<svg id="Layer_1" data-name="Layer 1" xmlns="http://www.w3.org/2000/svg" viewBox="0 0 988.58 232.66"><rect x="89.51" y="80.78" width="916.02" height="144.42" transform="translate(-32.41 4.63) rotate(-4.86)" fill="#efac06"/><path d="M212.32,253.93l-38.82,3.3c.45-2.11,1-4,2.48-4.85,3.91-2.37,10.71,3.86,15.82,0,5.39-4.1.54-12.4,3.7-15.7s11.34,1,15.28-4.13c4.14-5.35-2.69-12.11-.49-16.12s11.2-2,13.69-7.94c2.62-6.24-5.72-11-4.64-15.44s10.29-4.85,11.16-11.22c.91-6.7-8.38-9.14-8.48-13.72s8.69-7.34,7.88-13.73c-.85-6.7-10.46-6.65-11.74-11s6.49-9.35,4.06-15.3c-2.56-6.26-11.83-3.73-14.2-7.64l-.1-.17v0a2,2,0,0,1-.17-.37h0l-.07-.18v0l0-.17v-.06l0-.13,0-.06,0-.15v0h0l0-.14v-1.4h0l0-.24,0-.08V117h0l0-.16v-.07l0-.1,0-.14v0l0-.17v-.05l0-.12,0-.12v0l0-.18v0l.06-.25,0-.08,0-.17h0l.05-.18,0-.07,0-.11.05-.15v0l0-.17,0-.06,0-.12,0-.13.06-.22v0l0-.16,0-.1,0-.08,0-.19.05-.18,0-.08,0-.1,0-.16v0l.05-.18,0-.06,0-.13,0-.13v-.06l.05-.18v0l0-.16,0-.11v-.07l0-.19h0l0-.18,0-.08,0-.11,0-.16v0l0-.19v-.06l0-.13,0-.14v0l0-.19v0l0-.15v-.19l0-.18h0v-.18a3.82,3.82,0,0,0,.88,1.32c3.31,3.17,11.6-1.68,15.7,3.7,3.89,5.12-2.34,11.91,0,15.82s11.65,1.38,14.21,7.64c2.43,6-5.34,10.91-4.06,15.3s10.88,4.33,11.74,11.05c.81,6.38-8,9.15-7.88,13.72s9.4,7,8.49,13.72c-.88,6.37-10.08,6.77-11.17,11.21s7.26,9.21,4.64,15.45c-2.49,5.93-11.49,3.93-13.68,7.94s4.62,10.77.48,16.12c-3.94,5.08-12.11.82-15.28,4.13-1.53,1.6-1.18,4.38-1,7.28Zm-4.41-133.75h0a2,2,0,0,1-.17-.37A2,2,0,0,0,207.91,120.18Z" transform="translate(-21.42 -42.27)" fill="#c88e14" fill-rule="evenodd"/><path d="M188.15,85.58c5.09,3.93.84,12.1,4.13,15.27s11.6-1.68,15.7,3.7c3.89,5.12-2.34,11.91,0,15.82s11.64,1.38,14.2,7.64c2.43,6-5.35,10.91-4.06,15.3s10.89,4.34,11.74,11c.81,6.39-8,9.16-7.88,13.73s9.39,7,8.48,13.72c-.87,6.37-10.08,6.77-11.16,11.22s7.26,9.2,4.64,15.44c-2.49,5.93-11.49,3.93-13.69,7.94s4.63,10.77.49,16.12c-3.94,5.09-12.11.83-15.28,4.13s1.69,11.6-3.7,15.7c-5.11,3.89-11.91-2.34-15.82,0s-1.37,11.64-7.64,14.21c-6,2.43-10.9-5.34-15.29-4.07s-4.34,10.89-11.06,11.75c-6.38.81-9.15-8-13.72-7.89s-7,9.4-13.72,8.49c-6.37-.87-6.76-10.08-11.21-11.17s-9.2,7.26-15.44,4.64C82,265.86,84,256.86,80,254.66s-10.77,4.63-16.11.48c-5.09-3.93-.83-12.1-4.14-15.27s-11.6,1.69-15.69-3.7c-3.89-5.12,2.34-11.91,0-15.82S32.33,219,29.77,212.71c-2.43-6,5.34-10.9,4.06-15.3s-10.88-4.33-11.74-11c-.81-6.38,8-9.15,7.88-13.72s-9.39-7-8.48-13.73c.87-6.36,10.08-6.75,11.17-11.2S25.4,138.5,28,132.26c2.48-5.92,11.48-3.93,13.69-7.94s-4.63-10.76-.49-16.12c3.94-5.08,12.11-.82,15.27-4.13s-1.68-11.6,3.71-15.7c5.11-3.89,11.91,2.35,15.82,0s1.37-11.63,7.64-14.19c5.95-2.44,10.9,5.34,15.29,4.06S103.28,67.31,110,66.46c6.37-.82,9.14,8,13.71,7.89s7-9.41,13.72-8.5c6.38.87,6.77,10.08,11.21,11.17s9.21-7.26,15.46-4.64C170,74.86,168,83.86,172,86.06S182.8,81.43,188.15,85.58Z" transform="translate(-21.42 -42.27)" fill="#0c2635" fill-rule="evenodd"/><path d="M58.75,129.21l3.76-1.14a4.8,4.8,0,0,0,1.95,2.55,4.35,4.35,0,0,0,3,.34,4.43,4.43,0,0,0,2.69-1.36,2.39,2.39,0,0,0,.59-2.07,1.85,1.85,0,0,0-.63-1.1,3.43,3.43,0,0,0-1.57-.56q-.74-.11-3.3-.24a10.8,10.8,0,0,1-4.8-1A5.22,5.22,0,0,1,57.9,121a5.12,5.12,0,0,1,.29-3,5.38,5.38,0,0,1,2-2.45,9.67,9.67,0,0,1,3.68-1.43,8.24,8.24,0,0,1,5.81.54,5.89,5.89,0,0,1,2.8,4l-3.92.91a3.35,3.35,0,0,0-1.5-2,3.89,3.89,0,0,0-2.6-.18A4.44,4.44,0,0,0,62,118.66,1.46,1.46,0,0,0,61.6,120a1.52,1.52,0,0,0,.82,1.07,10.08,10.08,0,0,0,3.86.6,19.67,19.67,0,0,1,4.5.57,5.66,5.66,0,0,1,2.53,1.55,6,6,0,0,1,1.38,3,5.82,5.82,0,0,1-.3,3.32,5.68,5.68,0,0,1-2.2,2.69,11.33,11.33,0,0,1-4.1,1.55,8.65,8.65,0,0,1-6-.59,7.61,7.61,0,0,1-3.34-4.49Zm90.62,14.28h0L145.54,124l8.27-1.62a14.29,14.29,0,0,1,4.64-.37,4.51,4.51,0,0,1,2.64,1.42,5.64,5.64,0,0,1,1.45,2.89,5.28,5.28,0,0,1-.57,3.87,6.32,6.32,0,0,1-3.48,2.56A9.37,9.37,0,0,1,160.9,134a22.48,22.48,0,0,1,2.86,2.72l3.11,3.33-4.69.93-3.66-3.7a26,26,0,0,0-2.64-2.45,3.11,3.11,0,0,0-1.34-.57,6.78,6.78,0,0,0-2,.17l-.79.16,1.6,8.14-3.94.77Zm1.73-12h0l2.91-.57a14.74,14.74,0,0,0,3.48-.94,2,2,0,0,0,.94-1,2.62,2.62,0,0,0,.11-1.54,2.35,2.35,0,0,0-.84-1.48,2.4,2.4,0,0,0-1.63-.48c-.32,0-1.29.19-2.88.5l-3.06.6,1,4.95Zm-19.86,15.57h0l14.78-2.9-.65-3.3L134.53,143l-1-5.26,9.74-1.91-.65-3.3-9.73,1.92L132,130.1,142.46,128l-.65-3.29-14.4,2.84,3.83,19.46Zm-16.6,3.27h0l-3.83-19.46,13.37-2.63.64,3.28-9.43,1.86.91,4.62,8.16-1.6.65,3.28L117,141.28l1.63,8.27-3.94.77ZM98,153.59h0L94.2,134.13l13.38-2.63.64,3.28-9.43,1.86.91,4.62,8.16-1.6.64,3.28-8.15,1.61,1.62,8.27-3.94.77ZM74.18,148.3h0a12.65,12.65,0,0,1-.09-5.18,9.64,9.64,0,0,1,1.28-3,8,8,0,0,1,2.18-2.25,10.9,10.9,0,0,1,4-1.6A9.36,9.36,0,0,1,89,137.56a12.17,12.17,0,0,1,2.93,14.82,9.2,9.2,0,0,1-6.32,4,9.34,9.34,0,0,1-7.43-1.29,10.34,10.34,0,0,1-4-6.81Zm4-.93h0a7.44,7.44,0,0,0,2.51,4.72A5.17,5.17,0,0,0,85,153a5.08,5.08,0,0,0,3.53-2.47,7.58,7.58,0,0,0,.51-5.38,7.48,7.48,0,0,0-2.46-4.71,5,5,0,0,0-4.23-.87A5.07,5.07,0,0,0,78.71,142a7.44,7.44,0,0,0-.5,5.33Zm84.13-32h0l-3.8-19.3,3.94-.77,3.15,16,9.76-1.92.65,3.29-13.7,2.7Zm-2.21.43h0L148.5,97.87l-4.16.82-3.72,21,4.16-.82.75-4.75,7.8-1.53,2.56,4.1,4.24-.84Zm-8.72-6.3h0l-5.34,1,1.22-7.72,4.12,6.67Zm-16.49,11.27h0l-3.84-19.47,3.95-.78L138.85,120l-3.93.78ZM126.46,115h0l4,.42a8.76,8.76,0,0,1-2,5.34,8.37,8.37,0,0,1-4.86,2.58,8.54,8.54,0,0,1-6.9-1.4,10.28,10.28,0,0,1-3.92-6.76c-.64-3.23-.29-5.91,1-8a8.8,8.8,0,0,1,6.07-4,8.22,8.22,0,0,1,6.22,1,7.84,7.84,0,0,1,2.7,3.21L125.13,109a4.14,4.14,0,0,0-1.91-2.1,4.23,4.23,0,0,0-2.83-.35,4.53,4.53,0,0,0-3.21,2.24c-.7,1.22-.82,3-.36,5.3s1.27,4.12,2.37,5a4.35,4.35,0,0,0,3.76.9,4,4,0,0,0,2.5-1.53,5.84,5.84,0,0,0,1-3.45ZM97.29,128.17h0l14.78-2.91-.64-3.29-10.85,2.14-1-5.28,9.73-1.92-.65-3.28-9.73,1.91-.85-4.32,10.46-2.06-.65-3.29-14.4,2.84,3.83,19.46Zm-18.13,3.57h0L83.1,131l-1.45-7.34,2.56-.51a22.68,22.68,0,0,0,4-1.08,5.59,5.59,0,0,0,3.13-3.56,6.49,6.49,0,0,0,.05-3.15,6.15,6.15,0,0,0-1.87-3.57,5.24,5.24,0,0,0-3.18-1.35,22.75,22.75,0,0,0-4.72.63l-6.3,1.24,3.83,19.46Zm.76-17h0l1.88-.37a18.53,18.53,0,0,1,2.85-.42,2.83,2.83,0,0,1,1.75.55,2.73,2.73,0,0,1-.21,4.45,10.71,10.71,0,0,1-3,.92l-2.14.42Z" transform="translate(-21.42 -42.27)" fill="#fede0d" fill-rule="evenodd"/><path d="M158.65,226.19h0c-.58-3-.19-5.36,1.19-7.14a7.75,7.75,0,0,1,4.75-2.79,7.38,7.38,0,0,1,5.88,1.11,8.51,8.51,0,0,1,3.3,5.61,10.87,10.87,0,0,1,0,5.09,6.82,6.82,0,0,1-2.18,3.31,8.15,8.15,0,0,1-3.71,1.76A7.45,7.45,0,0,1,162,232c-1.68-1.17-2.79-3.13-3.33-5.85Zm2.82-.55h0a7,7,0,0,0,2.26,4.38,4.49,4.49,0,0,0,3.74.87,4.39,4.39,0,0,0,3.09-2.22,7.08,7.08,0,0,0,.43-5,6.74,6.74,0,0,0-2.25-4.27,4.66,4.66,0,0,0-6.83,1.33,7,7,0,0,0-.44,4.9Zm17.81,4.9h0L182,230l-2.77-14.07,3.12-.62L182,213.2l-3.15.61-.29-1.47a2.93,2.93,0,0,1,.12-2.08,2.47,2.47,0,0,1,1.66-.88,10.55,10.55,0,0,1,1.65-.18l-.06-2.47a13.93,13.93,0,0,0-2.62.22,5.12,5.12,0,0,0-2.65,1.21,3.52,3.52,0,0,0-1.05,2,7.43,7.43,0,0,0,.19,2.47l.34,1.72-2.44.48.42,2.12,2.43-.48,2.77,14.07Zm8.11-1.59h0l-2.77-14.07-2.43.47-.42-2.11,2.43-.49-.33-1.71a7.82,7.82,0,0,1-.2-2.47,3.58,3.58,0,0,1,1.05-2,5,5,0,0,1,2.66-1.21,13.1,13.1,0,0,1,2.62-.23l.06,2.48a9.39,9.39,0,0,0-1.65.17,2.46,2.46,0,0,0-1.66.88,2.93,2.93,0,0,0-.13,2.08l.29,1.48,3.16-.62.41,2.12-3.12.61,2.78,14.08-2.75.54Zm-25.46-52.26h0a5.73,5.73,0,0,1-.85,4.4,5.51,5.51,0,0,1-3.71,2.48,5.21,5.21,0,0,1-2.26,0,6,6,0,0,1-2-.88,5.64,5.64,0,0,1-1.59-1.6,5.91,5.91,0,0,1-.9-2.13l-3.46-17.61a5.28,5.28,0,0,1,0-2.24,6.16,6.16,0,0,1,2.41-3.61,5.57,5.57,0,0,1,2.09-.88,5.47,5.47,0,0,1,2.28,0,6.19,6.19,0,0,1,2.06.87,6.25,6.25,0,0,1,1.57,1.55,5.21,5.21,0,0,1,.89,2.07l3.46,17.59Zm-7.28-16.84h0l3.46,17.59a1.82,1.82,0,0,1-.29,1.47,1.89,1.89,0,0,1-1.21.78,1.92,1.92,0,0,1-1.47-.25,1.89,1.89,0,0,1-.78-1.26l-3.47-17.59a1.78,1.78,0,0,1,.26-1.43,2.15,2.15,0,0,1,2.68-.53,1.69,1.69,0,0,1,.82,1.22Zm20.67-8.64h0L160.64,206.7l-4.2.83L171.24,152l4.08-.8Zm9.58,45.95h0l-3.46-17.59a5.32,5.32,0,0,0-.89-2.08A5.86,5.86,0,0,0,179,176a6,6,0,0,0-2-.88,5.69,5.69,0,0,0-2.29,0,5.31,5.31,0,0,0-2.08.88,6.13,6.13,0,0,0-2.42,3.6,5.54,5.54,0,0,0,0,2.26l3.47,17.59a5.76,5.76,0,0,0,.89,2.14,5.67,5.67,0,0,0,1.6,1.6,5.82,5.82,0,0,0,2,.88,5.37,5.37,0,0,0,2.26,0,5.52,5.52,0,0,0,3.71-2.48,5.68,5.68,0,0,0,.85-4.4Zm-7.28-16.84h0a1.73,1.73,0,0,0-.81-1.22,2,2,0,0,0-1.42-.22,2,2,0,0,0-1.26.76,1.75,1.75,0,0,0-.26,1.42l3.46,17.59a1.9,1.9,0,0,0,.79,1.26,1.82,1.82,0,0,0,1.46.24,1.92,1.92,0,0,0,1.22-.77,1.82,1.82,0,0,0,.28-1.47Z" transform="translate(-21.42 -42.27)" fill="#fede0d" fill-rule="evenodd"/><path d="M292.14,131.57a111.27,111.27,0,0,1,15-2.31,96.13,96.13,0,0,1,14.43-.24l1.13,13.2q1,11.31,1.07,21.21,3.91,1.19,11.45.53c3.54-.32,7.78-.94,12.78-1.87q-.58-6.79-2.32-18.06c-1.21-8.17-2-14-2.28-17.54l27.92-2.41q1.41,7.47,2.41,19,1.13,12.84,7.88,70.54c-8.73.5-15.63,1-20.65,1.41-2.52.23-4.78.45-6.79.72q-3.36-38.76-4.12-38.69l.07.76a172.73,172.73,0,0,1-20.23,3.28l-5.29.45q.24,3,2.06,35.55a115.11,115.11,0,0,1-13.28,1.92,96.17,96.17,0,0,1-12.13.29q-5.5-63.41-9.13-87.79ZM861.05,81.68h0l6.79-.57q11.32-1,26.33-3.18,18-3.32,30.8-4.45l5.28-.45,1.84,21.38-43,3.73,2,14.29-.06-.76a52.88,52.88,0,0,0,12.71-2.62,101.89,101.89,0,0,1,12.75-1.87l1.71,19.62q-17.37,1.49-26.48,1.54l1.62,18.86q38.89-7.42,43.44-7.81l2.09,24.15-5.28.45c-6.56.57-17.1,1.59-31.69,3-8,1.2-14.79,2-20.3,2.52a105.64,105.64,0,0,1-14.43.48q.23-12.63.13-23.68-11.4,28.29-42.54,31l-3.09.27a40.74,40.74,0,0,1-19.85-4.5q-17.91-9.33-19.93-32.49a58,58,0,0,1,0-9.32q1.26-30.47,22-42.33a60.14,60.14,0,0,1,22-6.59q27.2-.31,38.66,28-24.59,8.92-26.77,10.7-5.07-9.51-10.94-9.33l-1,.09a15.4,15.4,0,0,0-8.87,3.56q-7.81,7.4-7.48,19.78l.19,2.32q1,11.58,8.26,14.82a8.39,8.39,0,0,0,4.8,1.17,18.4,18.4,0,0,0,3,0q8.86-.78,13.58-11.58l3.84-.33q7.52-.66,24.2,2.34-.24-19.38-1.49-33.78-1.5-17.37-4.72-28.38Zm-84.88,6.79h0a146.85,146.85,0,0,0-15,.53,117.34,117.34,0,0,0-13,1.89q4,24,5.68,43.62,2.14,24.65,2.27,44.15-21.43-34.74-30.79-37.73,18.42-6.9,17.18-21.25a27.28,27.28,0,0,0-2.23-8.18q-9.24-19-29.62-17.21l-49.06,4.25a624.1,624.1,0,0,1,9.7,68.36l1.82,21a82.89,82.89,0,0,1,13.51-2.2c4-.34,8.55-.64,13.6-.92.14-10.08-.1-18.87-.76-26.42l-.59-6.78q8.31-.72,27.64,29.52a30.22,30.22,0,0,0,10,.67,178.21,178.21,0,0,0,19.65-3v.29c6.89,0,12.41-.18,16.55-.55a66.31,66.31,0,0,0,11.77-1.9q-5.41-45-7.46-68.43a160.44,160.44,0,0,1-.83-19.71Zm-80.08,48.15h0q-1.51-17.3-3.34-20.82,13.59-1.15,16.84,1.26a11.13,11.13,0,0,1,2.9,7.11l.25,2.78c-.63,4.31-2.45,6.91-5.42,7.81a60.36,60.36,0,0,1-11.23,1.86Zm-102.22,58.3h0q-.47-14.29-1.64-27.88a516.42,516.42,0,0,0-9.14-61.56l49.06-4.25q17.37-1.52,27.91,15.08,4.44,7.22,5,13.26.78,9-7.7,16.64-11.27,10.09-33.17,12l-3.77.34.59,6.79q1,11.33.76,26.41a74.81,74.81,0,0,0-8.34.23c-1.86.16-3.61.4-5.26.7a97.74,97.74,0,0,0-14.26,2.26ZM618.44,145h0l3.77-.32q14.35-1.23,13.5-11.06-1.53-9-13.6-7.94a37.43,37.43,0,0,0-7.5,1.42q2.8,5.84,3.83,17.9ZM500.5,134.16h0l1.31,15.09a507.33,507.33,0,0,0,6.7,51.14,115,115,0,0,1-16.46,2.94,49.3,49.3,0,0,1-9,0q-1.19-40.22-2.9-59.83l-.71-8.3-10.69.91a158.54,158.54,0,0,0-17.3,2.28l-2-22.66q19.69-.93,36.3-2.38,22.65-1.95,39.87-5a112.25,112.25,0,0,1,2.94,16.46,42.27,42.27,0,0,1-.05,8.37q-18.17.82-28,.92ZM377.17,168.28h0q7.69,45,44,42.59l.74-.07q35.5-3.08,32.18-49.93l-.2-2.26q-1.68-19.63-14.82-30.67a40,40,0,0,0-28.2-9.71l-2.27.19a31.7,31.7,0,0,0-23.94,13.47q-9.59,12.24-7.88,31.87l.39,4.52Zm25.5,4.59h0a48.21,48.21,0,0,1-1.44-7.73q-1.39-16.44,12.09-18.48,13.57-1.18,15.16,17l.52,6c.2,8.15-3.44,12.82-10.95,14.07C410,184.46,404.88,180.81,402.67,172.87Z" transform="translate(-21.42 -42.27)" fill="#0c2635" fill-rule="evenodd"/></svg>