<svg id="Layer_1" data-name="Layer 1" xmlns="http://www.w3.org/2000/svg" xmlns:xlink="http://www.w3.org/1999/xlink" viewBox="0 0 1023.41 292.16"><defs><linearGradient id="GradientFill_2" x1="448.65" y1="-73.58" x2="756.87" y2="587.39" gradientUnits="userSpaceOnUse"><stop offset="0" stop-color="#fff"/><stop offset="1" stop-color="#969697"/></linearGradient><linearGradient id="GradientFill_3" x1="1051.88" y1="175.43" x2="960.74" y2="134.85" gradientUnits="userSpaceOnUse"><stop offset="0" stop-color="#5e5f5f"/><stop offset="0.21" stop-color="#cbcaca"/><stop offset="0.35" stop-color="#e5e6e5"/><stop offset="0.45" stop-color="#fff"/><stop offset="0.73" stop-color="#e5e6e5"/><stop offset="1" stop-color="#b3b2b3"/></linearGradient></defs><path d="M95.23,238.43c-2-2.78-73.56-68.33-73.56-68.33l84-12.36Z" transform="translate(-21.59 -31.74)" fill="#865f0f" fill-rule="evenodd"/><path d="M117.24,93.37,998.48,32a45.06,45.06,0,0,1,45.58,30.22l-.12,1-3,10-48,190.61L133.29,323.68A45,45,0,0,1,85.38,282L75.57,141.27A45,45,0,0,1,117.24,93.37Z" transform="translate(-21.59 -31.74)" fill="#efac06" stroke="#fff" stroke-miterlimit="2.61" stroke-width="0.22" fill-rule="evenodd"/><path d="M117.24,93.37,998.48,32a45.05,45.05,0,0,1,45.58,30.22l-.12,1-3,10-48,190.61L133.29,323.68A45,45,0,0,1,85.38,282L75.57,141.27a45,45,0,0,1,41.67-47.9ZM132.85,103h0c-23.78,1.6-41.94,21-40.35,43.21l9.11,126.66c1.59,22.16,22.35,39,46.14,37.37l830.07-56.14C991.9,253,995,250.72,995,248c12.1-52.17,26.87-106.65,39-158.82,4.56-32-19.81-45.85-50.19-43.76Z" transform="translate(-21.59 -31.74)" fill-rule="evenodd" fill="url(#GradientFill_2)"/><polygon points="267.87 9.87 242.71 65.53 302.3 105.67 0 138.25 53.37 36.06 267.87 9.87" fill="#0c2635" fill-rule="evenodd"/><polygon points="267.48 49.66 258.96 67.93 322.65 109.44 55.9 136.9 55.57 132.26 302.3 105.67 242.71 65.53 249.31 50.92 267.48 49.66" fill="#c88e14" fill-rule="evenodd"/><path d="M289.07,81.39l-5.31,11.38-18,1.22,5.12-11.33,18.17-1.27ZM94,166.94h0l-16.51,1.7L77.16,164l16.5-1.78Z" transform="translate(-21.59 -31.74)" fill="#c2c2c2" fill-rule="evenodd"/><path d="M1034.41,78.18c-24.74,35.28-90.39,103.72-107.12,125-9.58,13.63-6,23.89,13.14,31.51,10.1,4,30.57,10.6,38.43,19.3,13.19-1.14,16.14-3.33,16.17-6,12.1-52.17,26.87-106.65,39-158.82a50,50,0,0,0,.41-11ZM998.05,243.33h0l42.87-170.17,3-10,.12-1c-.25-.74-.53-1.47-.82-2.19a6.92,6.92,0,0,1,.68,1.55C1051.34,89.7,1018.77,193.47,998.05,243.33Z" transform="translate(-21.59 -31.74)" fill="#c88e14" fill-rule="evenodd"/><path d="M96,97.24l1.32-.08,1.14-.06a16.52,16.52,0,0,0,3.41-.55,4.5,4.5,0,0,0,2.25-1.5,4.56,4.56,0,0,0,.83-3.07c0-.15,0-.37,0-.66a5.46,5.46,0,0,0-1.24-3.48,4.43,4.43,0,0,0-2.63-1.34,16.87,16.87,0,0,0-3.91-.08c-.42,0-.77,0-1,.08l-.86.06L96,97.24Zm142.59,27.9h0l1.75-1.12a4.71,4.71,0,0,0,3.61,3.2,6,6,0,0,0,1.28,0,5.32,5.32,0,0,0,2-.51,3.87,3.87,0,0,0,1.51-1.25,5,5,0,0,0,.86-3.38,5.76,5.76,0,0,0-.15-1c-.41-1.48-1.63-2.67-3.64-3.58-.49-.22-1-.45-1.61-.69s-1.13-.49-1.62-.73a11.08,11.08,0,0,1-1.45-.89,7.17,7.17,0,0,1-1.2-1.11,5.46,5.46,0,0,1-1.29-3.22,5.64,5.64,0,0,1,.33-2.37,5,5,0,0,1,1.2-1.78,6,6,0,0,1,1.84-1.2,6.92,6.92,0,0,1,2.2-.51,5.43,5.43,0,0,1,2.95.52,6.78,6.78,0,0,1,2.31,2.06l-1.57,1.05a4.2,4.2,0,0,0-5.94-.92,3,3,0,0,0-1.14,2,4.42,4.42,0,0,0-.05,1.1,3.36,3.36,0,0,0,.81,2.07,5.7,5.7,0,0,0,1.61,1.32c.59.32,1.47.73,2.63,1.22a18,18,0,0,1,2.44,1.19,6.07,6.07,0,0,1,3.26,5.29,8.36,8.36,0,0,1-.09,2.08,6.38,6.38,0,0,1-.63,1.89,5.62,5.62,0,0,1-1.23,1.57,6.75,6.75,0,0,1-4.17,1.65,7.88,7.88,0,0,1-2.33-.2,7,7,0,0,1-4.47-3.77Zm-9.74,4.62h0l-1.43-20.93-6.3.43-.13-1.94,14.69-1,.13,1.93-6.33.43,1.43,20.94-2.06.14ZM219,111.87h0l-.1-2.31a12.33,12.33,0,0,0-3.62-1.56,12.55,12.55,0,0,0-3.92-.33A15.85,15.85,0,0,0,209,108a12.66,12.66,0,0,0-5,2.6,11.08,11.08,0,0,0-3.11,4.35,12.3,12.3,0,0,0-.82,5.46q0,.42.15,1.26a12.09,12.09,0,0,0,1.55,4.48,10.93,10.93,0,0,0,2.88,3.19,11.28,11.28,0,0,0,3.82,1.8,12.68,12.68,0,0,0,4.31.42A14.31,14.31,0,0,0,220,129l-.17-2.37a12.13,12.13,0,0,1-7.07,3.1c-.32,0-.66,0-1,0a9.13,9.13,0,0,1-8.08-4.63,10.76,10.76,0,0,1-1.42-4.76,11.18,11.18,0,0,1,.64-4.64,9.49,9.49,0,0,1,2.47-3.79,9.1,9.1,0,0,1,4.08-2.17,12.3,12.3,0,0,1,1.93-.29,10.16,10.16,0,0,1,3.9.47,13.54,13.54,0,0,1,3.67,1.93Zm-40.84-1.23h0l2.06-.13,1,14.92c.3,4.46,2.54,6.54,6.71,6.27a6.48,6.48,0,0,0,4.69-2.08,4.84,4.84,0,0,0,1-2.24,12,12,0,0,0,.1-2.8l-1-14.93,2.06-.14,1,14.24q.3,4.41-1.54,6.93T188,133.49a9.3,9.3,0,0,1-4.83-.78,6.58,6.58,0,0,1-2.93-3,13,13,0,0,1-1.18-4.86l-1-14.24Zm-20.61,24.58h0L156,112.35l3.5-.23,1.32-.09a36.5,36.5,0,0,1,3.78-.1,11.64,11.64,0,0,1,3.21.56,8.19,8.19,0,0,1,2.87,1.63,8.91,8.91,0,0,1,1.94,2.36,12.22,12.22,0,0,1,1.23,2.9,15.51,15.51,0,0,1,.54,3.2,15.69,15.69,0,0,1-.4,4.86,9.53,9.53,0,0,1-2.06,4,8.81,8.81,0,0,1-2.79,2,13.25,13.25,0,0,1-3.23,1c-1.11.18-2.41.33-3.9.43l-1,.07-3.5.23Zm1.93-2h0c.41,0,.72-.05.93-.05l.81,0c.33,0,.7,0,1.11,0l1.11,0a18.24,18.24,0,0,0,3.35-.53,6.78,6.78,0,0,0,2.54-1.29,7.48,7.48,0,0,0,2.37-3.71,13.45,13.45,0,0,0,.49-4.82,14.36,14.36,0,0,0-.56-3.21,9.6,9.6,0,0,0-1.35-2.81,7.07,7.07,0,0,0-2.21-2.08,6.76,6.76,0,0,0-2.79-.91,20.07,20.07,0,0,0-3.59,0c-.42,0-1,.08-1.82.16l-1.7.15,1.31,19.26ZM151.49,129h0a11.14,11.14,0,0,1-1.69,3.22,11.67,11.67,0,0,1-2.53,2.53,12.38,12.38,0,0,1-3.13,1.67,12.65,12.65,0,0,1-3.48.74,11.75,11.75,0,0,1-3-.15,12.79,12.79,0,0,1-2.84-.85,11.09,11.09,0,0,1-3.65-2.46,12,12,0,0,1-2.48-3.61,12.32,12.32,0,0,1-1.06-4.21,11.77,11.77,0,0,1,3.56-9.23,12.67,12.67,0,0,1,7.92-3.49,12.09,12.09,0,0,1,6.85,1.52,12.36,12.36,0,0,1,2.41,1.81,11.73,11.73,0,0,1,1.86,2.3,11.86,11.86,0,0,1,1.23,2.7,12.53,12.53,0,0,1,.57,2.94,11.5,11.5,0,0,1-.58,4.57Zm-2.1-.54h0a10.2,10.2,0,0,0,.49-3.9,10.52,10.52,0,0,0-.87-3.52,10.64,10.64,0,0,0-2-3.06,9.35,9.35,0,0,0-3-2.11,9.77,9.77,0,0,0-4.78-.87,10.19,10.19,0,0,0-4,1.17,10,10,0,0,0-3.27,2.79,9.68,9.68,0,0,0-1.81,4,10.68,10.68,0,0,0-.21,2.9,10.8,10.8,0,0,0,.79,3.32,11,11,0,0,0,1.86,3,9.86,9.86,0,0,0,2.71,2.16,9.3,9.3,0,0,0,3.3,1,9.13,9.13,0,0,0,1.95.06,10.16,10.16,0,0,0,8.88-6.9Zm-22.84,9.23h0l-9-10.35a6.3,6.3,0,0,0,4-1.63,5.13,5.13,0,0,0,1.57-3.85c0-.12,0-.31,0-.58a6.54,6.54,0,0,0-1.74-4.2,5.1,5.1,0,0,0-2.63-1.43,13.65,13.65,0,0,0-3.46-.16l-4.19.28,1.56,22.87,2.06-.14L114,127.62l1.25-.08L124,137.91l2.56-.18Zm-13.27-20.26h0l1.47-.09a15,15,0,0,1,3.14.05,3.46,3.46,0,0,1,2.07,1.06,4.4,4.4,0,0,1,1,2.77c0,.2,0,.36,0,.47a3.2,3.2,0,0,1-1.3,3.09,8.4,8.4,0,0,1-3.76,1l-.94,0-1.08.07-.58-8.45ZM97.9,127.65h0l1.11-.08.95,0a13.31,13.31,0,0,0,2.85-.45,3.63,3.63,0,0,0,1.88-1.26,3.76,3.76,0,0,0,.7-2.56c0-.12,0-.31,0-.55a4.52,4.52,0,0,0-1-2.9,3.72,3.72,0,0,0-2.21-1.13,14.72,14.72,0,0,0-3.26-.07l-.86.07-.72,0,.61,8.93Zm-1.23,12.26h0l-1.56-22.86,3.37-.23,1.3-.09a15.1,15.1,0,0,1,3.21.07,5.23,5.23,0,0,1,2.46,1,5.82,5.82,0,0,1,1.52,2,7.52,7.52,0,0,1,.64,2.63,6.88,6.88,0,0,1,0,1.2,6.24,6.24,0,0,1-.83,2.86,4.7,4.7,0,0,1-1.72,1.66,7.66,7.66,0,0,1-2.27.81,25,25,0,0,1-3,.36l-.8.05-1,0,.7,10.26-2.06.14Zm137.07-37.56h0L242,79.7l3.44,20.8,2.55-.17-5.46-28.26-9.19,25.05L221.26,73.53l-1.8,28.75,2.55-.18L222.67,81l11.07,21.33Zm-41-25.52h0l2.47-.17,1.21,17.87q.56,8,8,7.49a7.65,7.65,0,0,0,5.62-2.48,5.83,5.83,0,0,0,1.2-2.67,14.54,14.54,0,0,0,.11-3.36l-1.22-17.86,2.47-.17,1.17,17c.23,3.53-.38,6.3-1.85,8.3s-3.92,3.14-7.35,3.37a11.1,11.1,0,0,1-5.79-.94,7.83,7.83,0,0,1-3.5-3.56,15.31,15.31,0,0,1-1.41-5.8l-1.16-17Zm-7.25,28.08h0l-1.87-27.37,2.47-.17L188,104.74l-2.47.17ZM166,107.57h0l8.29-22.65,3.45,20.8,2.54-.17-5.46-28.26-9.18,25L153.52,78.75l-1.8,28.75,2.55-.18.66-21.08L166,107.57Zm-32.17,1.32h0L132,81.52l13.54-.93.16,2.32-11.08.75.59,8.6,11.07-.76.16,2.32-11.08.75.82,11.84,11.07-.76.15,2.31-13.53.93Zm-3.56.42h0L119.49,96.92a7.51,7.51,0,0,0,4.83-2,6.13,6.13,0,0,0,1.88-4.61,6.9,6.9,0,0,0,0-.69,7.82,7.82,0,0,0-2.09-5,5.88,5.88,0,0,0-3.14-1.71,15.66,15.66,0,0,0-4.14-.2l-5,.33,1.87,27.38,2.47-.17-.9-13.07,1.51-.1,10.48,12.41,3.07-.21ZM114.39,85.06h0l1.77-.11a18,18,0,0,1,3.75.06,4,4,0,0,1,2.47,1.28,5.22,5.22,0,0,1,1.16,3.3c0,.25,0,.44,0,.57.07,1.8-.45,3-1.54,3.7a10.34,10.34,0,0,1-4.5,1.19l-1.13,0-1.29.08-.7-10.11ZM94.51,111.92h0L92.64,84.55l4-.27,1.55-.11a18.34,18.34,0,0,1,3.85.09A6,6,0,0,1,105,85.51,6.86,6.86,0,0,1,106.84,88a9,9,0,0,1,.77,3.15,7.59,7.59,0,0,1,0,1.43,7.43,7.43,0,0,1-1,3.42,5.49,5.49,0,0,1-2,2,9.18,9.18,0,0,1-2.72,1,29.57,29.57,0,0,1-3.58.43l-1,.06-1.15.06L97,111.75Z" transform="translate(-21.59 -31.74)" fill="#fede0d" fill-rule="evenodd"/><path d="M417.64,131.84l-2-31.06,15.37-1,.18,2.62-12.59.81.64,9.79,12.59-.81.17,2.62-12.59.81.87,13.41,12.58-.81.17,2.62-15.37,1Zm276.12-18.46h0l-2-31.06,15.37-1,.17,2.62-12.57.82.64,9.79,12.06-.79.17,2.62-12.07.78,1,16-2.79.18Zm-18.27,1.22h0l-2-31.06,15.37-1,.17,2.62L676.43,86l.64,9.78L689.13,95l.17,2.62-12.06.78,1,16-2.79.18Zm-4.61-8.93h0a15.92,15.92,0,0,0,.81-6.21,16.38,16.38,0,0,0-.77-4,16.75,16.75,0,0,0-1.65-3.67,16.33,16.33,0,0,0-2.52-3.13,16.59,16.59,0,0,0-3.28-2.47,16.37,16.37,0,0,0-9.28-2.1,17.36,17.36,0,0,0-5.78,1.4,16.48,16.48,0,0,0-5,3.31A15.7,15.7,0,0,0,640,93.71a15.41,15.41,0,0,0-1.4,7.64,16.71,16.71,0,0,0,1.42,5.7,16.37,16.37,0,0,0,3.35,4.93,15.45,15.45,0,0,0,4.93,3.35,17.56,17.56,0,0,0,3.86,1.16,17.07,17.07,0,0,0,8.76-.77,17.37,17.37,0,0,0,4.26-2.25,16.89,16.89,0,0,0,3.44-3.42,15.71,15.71,0,0,0,2.31-4.38Zm-2.85-.74h0a13.69,13.69,0,0,1-12.09,9.33,13.9,13.9,0,0,1-2.65-.07,13.08,13.08,0,0,1-4.48-1.44,13.58,13.58,0,0,1-3.66-3,14.15,14.15,0,0,1-3.28-12.47,13.57,13.57,0,0,1,18.91-9.52,12.86,12.86,0,0,1,4,2.88,14.6,14.6,0,0,1,2.73,4.17,14.13,14.13,0,0,1,1.16,4.78,13.86,13.86,0,0,1-.68,5.29Zm-70.67,15.64h0L613.1,87.26l2.29-.15-15.73,33.32-2.3.14Zm6.27-21.37h0a12.47,12.47,0,0,0,.25-3.44,11.39,11.39,0,0,0-.94-3.89,6,6,0,0,0-2.25-2.7,5.69,5.69,0,0,0-3.53-.91,6,6,0,0,0-5.37,4.22,11.72,11.72,0,0,0-.47,4.37,10.83,10.83,0,0,0,.53,2.83,7.59,7.59,0,0,0,1.26,2.39,5.63,5.63,0,0,0,2,1.61,6.12,6.12,0,0,0,3,.61,5.58,5.58,0,0,0,3.5-1.5,6.65,6.65,0,0,0,2-3.59Zm-9.71-2.68h0a9.33,9.33,0,0,0,1.15,4.15,2.91,2.91,0,0,0,2.89,1.57,2.83,2.83,0,0,0,.42,0,2.79,2.79,0,0,0,2.45-2.07A10.38,10.38,0,0,0,601.3,96a11,11,0,0,0-1-4,2.73,2.73,0,0,0-2.64-1.78,3.32,3.32,0,0,0-3.12,2,9.27,9.27,0,0,0-.65,4.28Zm27.42,17.92h0a12,12,0,0,0,.24-3.42,11,11,0,0,0-.94-3.88,6.21,6.21,0,0,0-2.26-2.73,5.66,5.66,0,0,0-3.46-.86,6.09,6.09,0,0,0-3.36,1.28,5.94,5.94,0,0,0-2,3,11.42,11.42,0,0,0-.49,4.31,10.12,10.12,0,0,0,1.11,4.13,5.86,5.86,0,0,0,2.65,2.67,6.43,6.43,0,0,0,3.14.54,6.12,6.12,0,0,0,1.72-.35c1.93-.67,3.16-2.23,3.7-4.66Zm-9.71-2.7h0a9,9,0,0,0,1.21,4.22,3.28,3.28,0,0,0,3.25,1.54,2.9,2.9,0,0,0,2.46-2.15,10.67,10.67,0,0,0,.46-4.09,11.41,11.41,0,0,0-1-4,2.64,2.64,0,0,0-2.66-1.72,3.32,3.32,0,0,0-3.12,2,8.81,8.81,0,0,0-.65,4.23Zm-94.27,13.45h0l-.92-14.27L505.07,94.79l3.31-.22,9.33,13.72,7.47-14.81,3.23-.21-9.17,17.48.92,14.25-2.8.19Zm-9.63-8.61h0a16,16,0,0,0,.81-6.21,17,17,0,0,0-.77-4,16.67,16.67,0,0,0-1.65-3.66,16.46,16.46,0,0,0-5.8-5.6A16.38,16.38,0,0,0,491,95a17.61,17.61,0,0,0-5.78,1.4,17,17,0,0,0-5,3.32,15.7,15.7,0,0,0-3.48,4.89,15.36,15.36,0,0,0-1.39,7.63,16.57,16.57,0,0,0,1.41,5.71,16.21,16.21,0,0,0,3.35,4.92,15.68,15.68,0,0,0,4.94,3.36,17.93,17.93,0,0,0,3.86,1.15,16.47,16.47,0,0,0,4,.23,17.5,17.5,0,0,0,4.73-1,17.07,17.07,0,0,0,4.26-2.26,16.44,16.44,0,0,0,3.45-3.42,15.89,15.89,0,0,0,2.3-4.37Zm-2.84-.74a13.88,13.88,0,0,0,.67-5.3,14.13,14.13,0,0,0-1.16-4.77,14.46,14.46,0,0,0-2.73-4.17,12.62,12.62,0,0,0-4-2.89,13.26,13.26,0,0,0-6.49-1.2,13.81,13.81,0,0,0-9.95,5.35,13.18,13.18,0,0,0-2.46,5.37,13.82,13.82,0,0,0-.31,3.93,14.4,14.4,0,0,0,1.07,4.52,14.11,14.11,0,0,0,2.51,4,13.54,13.54,0,0,0,3.66,2.94,12.8,12.8,0,0,0,4.48,1.44,13.89,13.89,0,0,0,2.65.08,13.76,13.76,0,0,0,12.1-9.33Zm-34.21,4h0l-1.47-22.58L472,97l1.59,24.36q.44,6.74-4.94,7.74c-.35.06-.75.09-1.2.13a7.38,7.38,0,0,1-3.44-.58,6.6,6.6,0,0,1-2.68-2.16l1.83-2a5.05,5.05,0,0,0,4,2.11,3.76,3.76,0,0,0,1-.22,3,3,0,0,0,1.88-1.47,5.58,5.58,0,0,0,.63-2.26,22.35,22.35,0,0,0,0-2.91Zm-34.27,10.8h0l2.62-.18-1.64-25.11,23.72,24.51L459,97.92l-2.62.17,1.61,24.7L434.31,98.25Z" transform="translate(-21.59 -31.74)" fill="#805716" fill-rule="evenodd"/><path d="M479.06,264.55a13.93,13.93,0,0,1-2.07,4,15,15,0,0,1-3.14,3.17,15.43,15.43,0,0,1-3.89,2.12,15.77,15.77,0,0,1-8,.79,16.28,16.28,0,0,1-3.55-1,14.42,14.42,0,0,1-4.57-3,15,15,0,0,1-3.14-4.5,15.26,15.26,0,0,1-1.35-5.22,14.63,14.63,0,0,1,4.35-11.55,15.78,15.78,0,0,1,9.85-4.42,15.09,15.09,0,0,1,13.94,6.91,15.77,15.77,0,0,1,2.3,7,14.37,14.37,0,0,1-.69,5.71Zm208.48-6.48h0l-2.3-30.22,2.26-.18,1.19,15.66a7.12,7.12,0,0,1,5.7-3.83,7.87,7.87,0,0,1,1.75.07,5.27,5.27,0,0,1,3.56,1.83,6.42,6.42,0,0,1,1.48,3.81l.89,11.75-2.41.19-.8-10.68a8.41,8.41,0,0,0-.66-2.75,3.39,3.39,0,0,0-1.8-1.69,5.76,5.76,0,0,0-2.36-.3,6.3,6.3,0,0,0-1.69.38,4.21,4.21,0,0,0-2.71,2.45,10.9,10.9,0,0,0-.38,4.29l.69,9-2.41.18Zm-8.18-14.75h0l1.16,15.26,2.32-.18-1.16-15.25,3.43-.26-.15-2-3.43.27L681,234l-2.32.18.53,7.08-3.19.25.16,2,3.19-.25ZM661.53,260h0l-1.32-17.29,2.26-.18.2,2.73a7.11,7.11,0,0,1,5.71-3.82,7.33,7.33,0,0,1,1.75.06,5.35,5.35,0,0,1,3.56,1.83,6.53,6.53,0,0,1,1.47,3.82l.9,11.75-2.41.18-.81-10.67a7.83,7.83,0,0,0-.66-2.75,3.33,3.33,0,0,0-1.79-1.69,5.64,5.64,0,0,0-2.37-.3,6,6,0,0,0-1.68.38,4.21,4.21,0,0,0-2.71,2.45,10.68,10.68,0,0,0-.38,4.29l.69,9-2.41.18Zm-12,1.53h0a9,9,0,0,1-4.78-.91,9.4,9.4,0,0,1-3.62-3.11,8.92,8.92,0,0,1-1.59-4.49,9.23,9.23,0,0,1,0-1.29,8.76,8.76,0,0,1,1.31-4.27,9.55,9.55,0,0,1,3.16-3.16,9.67,9.67,0,0,1,4.24-1.36,10.12,10.12,0,0,1,2.38.11,9.63,9.63,0,0,1,3.82,1.63,9.29,9.29,0,0,1,3.83,6.81,9.52,9.52,0,0,1-.45,3.62,9,9,0,0,1-1.81,3.19,9.62,9.62,0,0,1-6.49,3.23Zm-.08-2.17h0a6.27,6.27,0,0,0,3.31-1.23,7,7,0,0,0,2.27-2.83,7.25,7.25,0,0,0,.64-3.56,7.36,7.36,0,0,0-2.31-4.86,6.86,6.86,0,0,0-2.27-1.37,6.65,6.65,0,0,0-6.13.92,6.77,6.77,0,0,0-2.22,2.83,7.43,7.43,0,0,0-.59,3.57,7.16,7.16,0,0,0,1.92,4.37,6.91,6.91,0,0,0,2.47,1.71,6.32,6.32,0,0,0,2.91.45ZM624,263.72h0l8.46-23.67,3.75,21.65,2.65-.2-5.91-29.4-9.36,26.18-12.83-24.49-1.64,30,2.65-.2.52-22L624,263.72Zm-44.48-.84h0l2.16-1.49a5.6,5.6,0,0,0,1.77,2,4.23,4.23,0,0,0,2.5.58c1.61-.12,2.64-.7,3.08-1.73a2.72,2.72,0,0,0,.25-1.37,2.85,2.85,0,0,0-.41-1.31,2.44,2.44,0,0,0-1-.91,9.62,9.62,0,0,0-1.93-.79l-2.12-.64a11.16,11.16,0,0,1-1.92-.79,4.24,4.24,0,0,1-2.34-3.54,4.75,4.75,0,0,1,.74-2.91,4.92,4.92,0,0,1,2.45-2,7.44,7.44,0,0,1,2.19-.52,6.41,6.41,0,0,1,2.3.24,5.71,5.71,0,0,1,2,1.05,5.5,5.5,0,0,1,1.49,1.82L588.68,252a3.57,3.57,0,0,0-3.22-2.27h-.61a2.88,2.88,0,0,0-2.29,1.16,2.65,2.65,0,0,0-.48,1.7,2.07,2.07,0,0,0,.64,1.35,3.36,3.36,0,0,0,1.26.87,14,14,0,0,0,2.1.65c.87.2,1.36.34,1.48.38a4.94,4.94,0,0,1,4,3.85,4.53,4.53,0,0,1,.12.81,5.18,5.18,0,0,1-.37,2.4,4.66,4.66,0,0,1-1.47,1.93,6.61,6.61,0,0,1-3.75,1.41,7.6,7.6,0,0,1-3.9-.71,5.57,5.57,0,0,1-2.68-2.63ZM575,266.23h0l-1.31-17.3,2.48-.19,1.32,17.3-2.49.19Zm-2.45-23.94h0A1.67,1.67,0,0,1,573,241a2,2,0,0,1,2.58-.21,1.66,1.66,0,0,1,.69,1.27,1.62,1.62,0,0,1-.46,1.36,2,2,0,0,1-1.29.57,1.9,1.9,0,0,1-1.33-.38,1.65,1.65,0,0,1-.66-1.27Zm-16.17,25.29h0l2.41-.18-.69-9a10.91,10.91,0,0,1,.37-4.29,4.21,4.21,0,0,1,2.71-2.45,6.39,6.39,0,0,1,1.69-.38,5.83,5.83,0,0,1,2.37.3,3.41,3.41,0,0,1,1.79,1.69,8.35,8.35,0,0,1,.66,2.75l.81,10.68,2.4-.19L570,254.72a6.42,6.42,0,0,0-1.48-3.81,5.32,5.32,0,0,0-3.55-1.84,8.57,8.57,0,0,0-1.75-.06,7.1,7.1,0,0,0-5.71,3.83l-1.19-15.65-2.25.17,2.3,30.22Zm-12,.85h0l-2-26.08-7.84.59-.18-2.41,18.3-1.39.19,2.41-7.9.6,2,26.08-2.57.2Zm-38.76-14.55h0l2.57-.19,5.93,13.18L517.56,253l2.57-.19-7,26.61-2.42.18,2.37-9-7.53-16.65Zm-.52,17.41h0l-2.3-30.22-2.49.19,2.3,30.22,2.49-.19Zm-21.12,1.54h0l-1.31-17.29,2.25-.18.21,2.73a7.13,7.13,0,0,1,5.71-3.83,7.81,7.81,0,0,1,1.74.07,5.31,5.31,0,0,1,3.56,1.83,6.54,6.54,0,0,1,1.48,3.81l.89,11.75-2.41.19-.81-10.68a8.17,8.17,0,0,0-.65-2.75,3.37,3.37,0,0,0-1.8-1.68,5.6,5.6,0,0,0-2.36-.3,5.92,5.92,0,0,0-1.69.37,4.23,4.23,0,0,0-2.71,2.45,10.74,10.74,0,0,0-.37,4.29l.68,9-2.41.18Zm-7.48-8.93h0A13.06,13.06,0,0,0,477,259a13.42,13.42,0,0,0-3.67-8.17,11.78,11.78,0,0,0-3.74-2.61,12.25,12.25,0,0,0-6-1,12.72,12.72,0,0,0-9.09,5,12,12,0,0,0-2.21,5,12.7,12.7,0,0,0-.24,3.61,13.1,13.1,0,0,0,1,4.14,13.58,13.58,0,0,0,2.35,3.67,12.47,12.47,0,0,0,3.4,2.67,11.7,11.7,0,0,0,4.13,1.27,12.49,12.49,0,0,0,2.44,0,12.7,12.7,0,0,0,11-8.69Z" transform="translate(-21.59 -31.74)" fill="#805716" fill-rule="evenodd"/><polygon points="115.25 219.31 109.81 144.15 147.02 141.44 147.49 147.79 117.04 150 118.75 173.68 149.19 171.47 149.66 177.81 119.21 180.02 121.57 212.47 152.01 210.26 152.46 216.6 115.25 219.31" fill="#0c2635" fill-rule="evenodd"/><polygon points="158.24 216.28 150.84 216.81 170.76 175.53 147.65 141.49 155.26 140.94 174.25 169.53 189.34 138.47 196.74 137.93 178.55 174.76 204.22 212.95 196.63 213.49 175.12 181.63 158.24 216.28" fill="#0c2635" fill-rule="evenodd"/><path d="M280.21,179.1a44.26,44.26,0,0,0-12.11-6.28,33.48,33.48,0,0,0-12.83-1.5,38.05,38.05,0,0,0-6.34,1,29.67,29.67,0,0,0-13.39,7.19A31,31,0,0,0,227.46,192a37.18,37.18,0,0,0-2,15.27,35.7,35.7,0,0,0,4.75,15.65,30.52,30.52,0,0,0,11,11.08,30.17,30.17,0,0,0,15.57,4c1.15,0,2.25,0,3.31-.08,8.09-.58,15.82-4,23.22-10.29l.56,7.78A46.89,46.89,0,0,1,260,244a43,43,0,0,1-14.2-1.29,38.09,38.09,0,0,1-12.55-5.9,35,35,0,0,1-9.54-10.45,39.32,39.32,0,0,1-5.14-14.68c-.27-1.83-.44-3.19-.51-4.09a40.33,40.33,0,0,1,2.6-17.94,36.39,36.39,0,0,1,10.19-14.35,41.49,41.49,0,0,1,16.48-8.59,44.33,44.33,0,0,1,7.75-1.3,41.5,41.5,0,0,1,12.88,1,39.86,39.86,0,0,1,11.95,5.07Z" transform="translate(-21.59 -31.74)" fill="#0c2635" fill-rule="evenodd"/><polygon points="270.27 208.36 264.83 133.2 271.59 132.71 276.58 201.52 302.3 199.66 302.76 206 270.27 208.36" fill="#0c2635" fill-rule="evenodd"/><path d="M321.58,162.46l6.77-.51L331.91,211q1.59,22,22.14,20.48,10.33-.75,15.42-6.9a15.88,15.88,0,0,0,3.26-7.33,39.81,39.81,0,0,0,.3-9.23L369.47,159l6.76-.49,3.39,46.79q1.06,14.51-5,22.82t-20.16,9.33q-9.51.66-15.9-2.55a21.32,21.32,0,0,1-9.67-9.72A42.2,42.2,0,0,1,325,209.23Z" transform="translate(-21.59 -31.74)" fill="#0c2635" fill-rule="evenodd"/><path d="M385.56,220.93l5.72-3.72c2.53,6.11,6.5,9.62,11.89,10.49a17.67,17.67,0,0,0,4.19.16,18,18,0,0,0,6.53-1.7,12.56,12.56,0,0,0,5-4.12,16.51,16.51,0,0,0,2.74-11.14,17.08,17.08,0,0,0-.49-3.27q-2.07-7.29-12-11.73c-1.63-.7-3.41-1.45-5.32-2.24s-3.68-1.6-5.31-2.41a35.13,35.13,0,0,1-4.77-2.9,21.22,21.22,0,0,1-4-3.64,18,18,0,0,1-4.28-10.57,18.42,18.42,0,0,1,1.1-7.76,15.43,15.43,0,0,1,3.87-5.88,19.41,19.41,0,0,1,6-4,22.83,22.83,0,0,1,7.18-1.7,17.88,17.88,0,0,1,9.69,1.67,22.35,22.35,0,0,1,7.61,6.74l-5.07,3.46a13.74,13.74,0,0,0-19.53-2.93,9.65,9.65,0,0,0-3.74,6.48,15.57,15.57,0,0,0-.16,3.64,11.31,11.31,0,0,0,2.69,6.78,18.53,18.53,0,0,0,5.31,4.31q2.93,1.59,8.65,4a57.48,57.48,0,0,1,8,3.9,21.46,21.46,0,0,1,7.68,7.21,22.09,22.09,0,0,1,3,10.17,28.89,28.89,0,0,1-.27,6.82,21.9,21.9,0,0,1-2.06,6.19,18,18,0,0,1-4,5.19,22,22,0,0,1-13.65,5.47,23.94,23.94,0,0,1-7.61-.63Q391.3,231.24,385.56,220.93Z" transform="translate(-21.59 -31.74)" fill="#0c2635" fill-rule="evenodd"/><rect x="434.28" y="154.34" width="6.78" height="75.36" transform="translate(-34.31 0.36) rotate(-4.14)" fill="#0c2635"/><polygon points="452.44 198.32 417.45 122.43 425.25 121.87 451.22 181.51 469.58 118.67 477.17 118.11 452.44 198.32" fill="#0c2635" fill-rule="evenodd"/><polygon points="483.31 193.31 477.87 118.15 515.08 115.45 515.55 121.79 485.1 124 486.81 147.68 517.25 145.47 517.72 151.81 487.27 154.02 489.63 186.48 520.07 184.27 520.52 190.61 483.31 193.31" fill="#0c2635" fill-rule="evenodd"/><path d="M601.25,174.55l4.67-.33q8.72-.65,12.16-3.29c2.3-1.77,3.3-4.53,3-8.3q-.45-6.15-4-8.41c-2.35-1.49-6.61-2-12.81-1.56l-4.65.33,1.55,21.56Zm2.41,33.2h0l4.21-.32a67.32,67.32,0,0,0,9.57-1.2,12,12,0,0,0,4.89-2.17,9.91,9.91,0,0,0,3.22-4.25,12.6,12.6,0,0,0,.82-5.64,12.79,12.79,0,0,0-2-6.17,10.29,10.29,0,0,0-4.56-3.85,15.46,15.46,0,0,0-4.07-1,35.11,35.11,0,0,0-6,0l-3.68.26-4.21.31,1.74,24Zm-11.2,11.11h0L587,143.7l18.93-1.36a60.32,60.32,0,0,1,12,0,17.65,17.65,0,0,1,6.79,2.41,17,17,0,0,1,5.9,6.32,21.41,21.41,0,0,1,2.59,9.05,17.12,17.12,0,0,1-2,10.21,14.41,14.41,0,0,1-7.62,6.21,15.36,15.36,0,0,1,10.74,5.24A20.15,20.15,0,0,1,639,194a24,24,0,0,1-1,8.79,19.77,19.77,0,0,1-4,7.31,16.89,16.89,0,0,1-7.33,5c-3,1.07-8.06,1.87-15.23,2.39Z" transform="translate(-21.59 -31.74)" fill="#0c2635" fill-rule="evenodd"/><rect x="644.55" y="139.29" width="12.3" height="75.36" transform="translate(-32.67 15.73) rotate(-4.14)" fill="#0c2635"/><path d="M710,171.82l29.79-2.16c0,.51.1,1.23.21,2.14.29,2.42.44,4.06.52,4.93q1.14,15.86-7.3,25.28t-25,10.63a46.92,46.92,0,0,1-16.66-1.52,34.93,34.93,0,0,1-13.26-7.32,37,37,0,0,1-9.11-12.19,43,43,0,0,1-4-15.49A42,42,0,0,1,667,160.2a36.55,36.55,0,0,1,7.68-13.3,37,37,0,0,1,12.26-9.16,44,44,0,0,1,15.58-4,37.36,37.36,0,0,1,16.12,2.08,35.45,35.45,0,0,1,13.19,9l-8.44,7.43a24.43,24.43,0,0,0-9-6,25.44,25.44,0,0,0-10.83-1.41q-12.21.9-19.35,9.29c-4.78,5.6-6.85,12.58-6.26,20.94s3.7,15.22,9.22,20.14,12.4,7.09,20.61,6.51c7-.52,12.35-2.53,16.11-6.07s5.45-8.11,5-13.73l-.09-1.08-18,1.31Z" transform="translate(-21.59 -31.74)" fill="#0c2635" fill-rule="evenodd"/><path d="M776.21,190.79l9.42-5.23a13.52,13.52,0,0,0,5.66,7.33,15.6,15.6,0,0,0,9.63,2,12.18,12.18,0,0,0,8.45-3.64,10.8,10.8,0,0,0,2.63-8.37q-.5-6.63-11.88-11c-1.07-.44-1.88-.75-2.44-1q-12.84-5.16-17.33-9.75a18,18,0,0,1-5-11.7c-.44-6.11,1.26-11.24,5.14-15.32s9.19-6.41,15.93-6.89c5.54-.41,10.25.33,14.13,2.18A16.76,16.76,0,0,1,819,138l-9.14,5.64a16.12,16.12,0,0,0-5.35-4.86,11.73,11.73,0,0,0-6.32-1.2,11.4,11.4,0,0,0-7.64,3.15,8.7,8.7,0,0,0-2.41,7.1q.48,6.8,13.68,11.74c.68.25,1.19.46,1.59.6q11.48,4.34,16,8.93a18.45,18.45,0,0,1,5,11.95q.76,10.69-5.49,17.45c-4.18,4.54-10.08,7.06-17.71,7.62q-9.59.67-16.05-3.27A20.69,20.69,0,0,1,776.21,190.79Z" transform="translate(-21.59 -31.74)" fill="#0c2635" fill-rule="evenodd"/><path d="M847.19,171.19l20.94-1.51-9-16.58c-.51-1.08-1.07-2.29-1.65-3.68s-1.19-2.94-1.79-4.65c-.29,1.68-.61,3.23-1,4.69s-.73,2.79-1.13,4l-6.45,17.7Zm35.9,27.07h0l-9.92-18.74-29.77,2.16-7.33,20-12.82.93L854,121.83l42,75.48Z" transform="translate(-21.59 -31.74)" fill="#0c2635" fill-rule="evenodd"/><polygon points="875.68 165.59 870.25 90.43 882.51 89.55 887.16 153.82 914.43 151.85 915.22 162.74 875.68 165.59" fill="#0c2635" fill-rule="evenodd"/><polygon points="919.27 162.51 913.83 87.35 955.8 84.32 956.55 94.68 926.85 96.83 928.22 115.75 957.92 113.61 958.68 124.28 928.98 126.43 930.75 150.74 960.45 148.6 961.24 159.48 919.27 162.51" fill="#0c2635" fill-rule="evenodd"/><path d="M978.27,145.46,968,157l12.3-.87-.75-10.73-1.24.09Zm-26.56,29.6h0c-4.1,4.57-7.93,8.86-11.36,12.75l.46,6.47,41.94-3L982,180.38l-29.75,2.1-.52-7.42Zm-15.13,17.06h0l-2.26,2.61,2.43-.17Z" transform="translate(-21.59 -31.74)" fill="#06151d" fill-rule="evenodd"/><path d="M1041.26,56.1c.4.21,2.55,7.14.78,11.18C1029.39,96.88,965,180.1,949.83,204c-7.76,13.69-5,23.92,10.29,31.4,10.73,5.26,36.15,14.92,32.79,28.36,13.2-29.53,58.1-168.75,51.28-202.22A16.38,16.38,0,0,0,1041.26,56.1Z" transform="translate(-21.59 -31.74)" fill-rule="evenodd" fill="url(#GradientFill_3)"/></svg>