<svg id="Layer_1" data-name="Layer 1" xmlns="http://www.w3.org/2000/svg" viewBox="0 0 1025.48 260.39"><polygon points="721.71 24.34 1025.48 0 947.48 77.17 1017.68 136.55 713.91 160.89 721.71 24.34" fill="#c88e14" fill-rule="evenodd"/><polygon points="916.91 72.59 718.64 99.55 722.71 25.55 916.91 72.59" fill="#865f0f" fill-rule="evenodd"/><polygon points="900.89 222.63 0 260.39 108.67 143.86 0.41 42.67 917.56 72.55 900.89 222.63" fill="#efac06" fill-rule="evenodd"/><path d="M617.71,115.49l10,0q16.67.06,38.85-1,26.6-2.11,45.47-2l7.76,0-.1,26.76-63.23-.24,1,17.95v-.93a90.6,90.6,0,0,0,18.88-1.84,185,185,0,0,1,18.87-.87L695.13,178q-25.51-.11-38.85-1.09l-.08,23.62q57.7-4.81,64.35-4.81l-.11,30.23-7.77,0c-9.59,0-25.14,0-46.57.14-11.83.61-21.83.86-29.94.83a178.32,178.32,0,0,1-21.08-1q5.71-45.32,5.81-74.59c.05-14.48-1-26.42-3.18-35.75ZM235.26,190.86h0q14.34-2.25,42.26-2.36,3.66,7.67,8.1,9.88a41.38,41.38,0,0,0,10.44,1.44,31.44,31.44,0,0,0,7.86-.91,11.33,11.33,0,0,0,6.39-4.46c2-2.57,3-4.91,3-7a13.57,13.57,0,0,0-.71-4.17c-1.46-4.25-5.87-6.69-13.19-7.28-1.42-.11-3.09-.17-5-.18s-3.91,0-6.18.14c-3.76.06-6.41.11-7.95.1h-1.11a49.7,49.7,0,0,1-28.9-9.79Q238.92,157.81,239,147a22.24,22.24,0,0,1,.46-4.25q3.33-17.08,18.87-26.21c9.14-5.39,20.19-8,33.13-8h.73A84.41,84.41,0,0,1,328,116.67q17.52,8.42,24.68,22.29-29.4,4.13-38.63,4.1a14.19,14.19,0,0,1-2.59-.17c-1.66-2.48-4.4-4.29-8.21-5.46a34.89,34.89,0,0,0-9-1.22,36.06,36.06,0,0,0-4,.23,12.19,12.19,0,0,0-5.89,3.45,7.8,7.8,0,0,0-1.39,8.24c1.79,4.36,5.15,7.27,10.13,8.72,3,.46,7.19.94,12.68,1.36,7.19.57,11.8,1,13.75,1.15,11.23,1.2,19.52,3.55,24.93,7q11,7.05,10.93,22.19c0,11.57-5.6,20.91-16.63,27.93q-15,9.66-37.79,10.58c-1.6,0-3.15.07-4.7.06A89.22,89.22,0,0,1,260.49,220q-19.76-9.42-25.23-29.14Zm209.13,17h0a113,113,0,0,0-21.07-2,107.19,107.19,0,0,0-20,1.84q-4.48,9.41-7.83,18.21a113.17,113.17,0,0,0-17.73-1.33,190.87,190.87,0,0,0-21.08,1.18,712.33,712.33,0,0,0,47-114,95.28,95.28,0,0,0,20,2,205.27,205.27,0,0,0,26.64-1.8q31.8,86.09,42.83,113.52l-41.06-.15q-2.19-4.89-4.41-9.77c-1.43-3.26-2.57-5.84-3.28-7.73Zm-6.2-20.66h0c-2.22-6.3-6.21-18.8-12.07-37.53a247.15,247.15,0,0,1-15.67,37.43,121.32,121.32,0,0,1,14.43-.89,97.72,97.72,0,0,1,13.31,1Zm62.69-73h0l12.21.05c8.11,0,16.63-.24,25.5-.85a290.58,290.58,0,0,1,2.07,35.74l0,12.29q-1.2,29.13-1.25,38.57,48.87-4.84,62.15-4.81h2.2c1.48,1.26,2.22,5.38,2.2,12.28a176.19,176.19,0,0,1-1.17,17.95l-8.9,0c-9.59,0-25.15,0-46.57.15-11.11.61-21.08.86-29.95.83a197.34,197.34,0,0,1-21.07-1q5.72-45.31,5.81-75.4Q504.14,128.27,500.88,114.24Z" transform="translate(-21.52 -21.31)" fill="#0c2635" fill-rule="evenodd"/></svg>