<svg id="Layer_1" data-name="Layer 1" xmlns="http://www.w3.org/2000/svg" viewBox="0 0 795.58 301.99"><polygon points="32.22 299.91 0 279.08 32.97 274.96 32.22 299.91" fill="#c88e14" fill-rule="evenodd"/><polygon points="13.68 81.33 795.58 55.59 776.52 275.43 27 301.99 13.68 81.33" fill="#efac06" fill-rule="evenodd"/><polygon points="52.92 17.52 454.88 0 444.83 81.83 51.32 99.35 52.92 17.52" fill="#0c2635" fill-rule="evenodd"/><path d="M209.89,66V77.13a7.31,7.31,0,0,1-.58,2.94,7.92,7.92,0,0,1-1.6,2.45,8,8,0,0,1-2.4,1.71,7.35,7.35,0,0,1-2.89.7l-7.41.33,0,18.53-7.41.33,0-44.54,14.83-.65a7,7,0,0,1,2.88.45,7.19,7.19,0,0,1,2.4,1.47,6.85,6.85,0,0,1,1.62,2.3,7.24,7.24,0,0,1,.58,2.86ZM548.63,43.72h0l0,18.59a7.6,7.6,0,0,1-2.18,5.35,8.2,8.2,0,0,1-2.4,1.69,7.71,7.71,0,0,1-2.88.7l0,18.53-7.41.33,0-18.53a7.17,7.17,0,0,1-2.89-.46,6.87,6.87,0,0,1-2.37-1.47,7.07,7.07,0,0,1-1.59-2.3,7.27,7.27,0,0,1-.58-2.86l0-18.6,7.42-.32,0,18.59,7.41-.33,0-18.59,7.47-.32Zm-25.58,1.12h0v7.41l-7.47.33,0,37.13-7.41.32-.05-37.13-7.41.33V45.82l22.3-1ZM497,46h0l0,44.54-7.41.33-.05-44.54L497,46ZM486.63,83.56h0V91L469,91.76l0-44.55,7.42-.32,0,37.12,7.41-.32,2.79-.13ZM465.4,54.79h0l0,37.13-7.48.32,0-18.54-7.41.33,0,18.54-7.41.32,0-37.12a7.63,7.63,0,0,1,.57-2.92,7.71,7.71,0,0,1,1.58-2.44,7.86,7.86,0,0,1,2.36-1.68,7.62,7.62,0,0,1,2.89-.7l7.42-.33a7.32,7.32,0,0,1,2.88.45,7.51,7.51,0,0,1,2.41,1.47,7,7,0,0,1,1.61,2.3,7.29,7.29,0,0,1,.58,2.87Zm-7.46,11.44h0l0-11.12-7.41.33V66.56l7.42-.33Zm-18.5-17.72h0l.05,44.54-7.47.33v-1a7.88,7.88,0,0,1-3.71,1.14l-3.71.16a7.15,7.15,0,0,1-2.88-.46,6.87,6.87,0,0,1-2.37-1.47,7,7,0,0,1-1.59-2.27,7.21,7.21,0,0,1-.58-2.89l0-37.13,7.42-.32,0,37.12L432,86l0-37.13,7.47-.33ZM413.5,57.07h0l0,29.71a7.44,7.44,0,0,1-2.12,5.32l2.13,2.09-14.83.66a7.35,7.35,0,0,1-2.92-.45,7.11,7.11,0,0,1-2.34-1.48,7.15,7.15,0,0,1-2.16-5.16l0-29.72a7.44,7.44,0,0,1,.57-2.91,7.71,7.71,0,0,1,6.83-4.83l7.41-.32a7.18,7.18,0,0,1,5.26,1.92,6.89,6.89,0,0,1,1.58,2.3,7.11,7.11,0,0,1,.58,2.87Zm-7.38,30h0l0-29.71-7.41.33,0,29.71,3.71-3.87,3.7,3.54ZM374.86,58.76h0l0,37.13-7.41.33,0-37.13-7.42.32,0,37.13-7.47.33,0-37.13-7.41.33,0,37.13-7.42.32,0-44.54,7.42-.33v1a7.85,7.85,0,0,1,3.71-1.14l5.59-.24a7.26,7.26,0,0,1,3.7.81,7.88,7.88,0,0,1,3.71-1.14l3.71-.16,1.88-.08a7,7,0,0,1,2.88.45,6.82,6.82,0,0,1,2.38,1.47,7,7,0,0,1,1.58,2.3,7.27,7.27,0,0,1,.58,2.86Zm-40.78-5.62h0l.05,44.54-7.48.33V97a7.72,7.72,0,0,1-3.7,1.13l-3.71.17a7.32,7.32,0,0,1-2.88-.45,7,7,0,0,1-4.54-6.64l0-37.13,7.41-.32,0,37.12,7.42-.33,0-37.12,7.48-.33Zm-26,1.14h0l.05,44.54-7.41.33,0-44.54,7.41-.33ZM297,62.18h0l0,37.13-7.41.33,0-37.13-7.41.33,0,37.12-7.48.33,0-37.13-7.41.33,0,37.13-7.41.32-.05-44.54,7.41-.32v1A7.85,7.85,0,0,1,271,55.91l5.59-.24a7.32,7.32,0,0,1,3.71.81,7.81,7.81,0,0,1,3.7-1.14l3.71-.16,1.88-.09a7.22,7.22,0,0,1,2.89.46A6.87,6.87,0,0,1,294.86,57,7.15,7.15,0,0,1,297,62.18Zm-40.43,31.5h0v7.41l-10.21.45a7.34,7.34,0,0,1-2.89-.45,7,7,0,0,1-2.37-1.48,6.79,6.79,0,0,1-1.58-2.3,7.07,7.07,0,0,1-.58-2.86l0-20.42v-9.3a7.45,7.45,0,0,1,.58-2.91,7.73,7.73,0,0,1,3.94-4.12,7.53,7.53,0,0,1,2.89-.7l7.41-.33,2.8-.13V64l-10.21.45,0,11.12,7.41-.33,2.8-.12v7.47L246.36,83l0,11.13,7.41-.33,2.8-.12ZM232.75,79.83h0a6.85,6.85,0,0,1,1.89,2.41,7.29,7.29,0,0,1,.67,3.08l0,16.7-7.48.33V85.64a1.76,1.76,0,0,0-.52-1.28A1.68,1.68,0,0,0,226,83.9l-5.59.25,0,18.53L213,103,213,58.46l14.83-.65a7.14,7.14,0,0,1,2.88.45,7.53,7.53,0,0,1,2.4,1.47A6.79,6.79,0,0,1,234.71,62a7.2,7.2,0,0,1,.58,2.86v9.29a7.26,7.26,0,0,1-.67,3.1,7.54,7.54,0,0,1-1.88,2.54Zm-4.92-3.49h0l0-11.11-7.41.32V76.67l7.42-.33Zm-25.4,1.12h0l0-11.12-7.41.33V77.79Z" transform="translate(-120.54 -22.01)" fill="#fede0d" fill-rule="evenodd"/><path d="M828,213.08l-.09-81,61.54-2.31v16.55l-40.81,1.54,0,14.31L886,160.77,886,177l-37.28,1.4,0,17.35,42.12-1.59,0,16.56L828,213.08ZM169.2,210.91h0l19.94-.75q.23,6.94,4.08,10.3c2.58,2.26,6.33,3.28,11.29,3.09,4.2-.16,7.47-1,9.78-2.47a6.8,6.8,0,0,0,3.46-6,6.87,6.87,0,0,0-.83-3.42,5,5,0,0,0-2.31-2.21c-1.5-.75-5.18-1.89-11.06-3.38s-10.82-3-14.86-4.45c-5.82-2.09-10.25-5-13.28-8.66a20.07,20.07,0,0,1-4.55-13.11,23.14,23.14,0,0,1,8.69-18.78c5.79-4.78,13.68-7.37,23.61-7.74q14.61-.54,23.19,6.34t8.6,19.16l-19.49.74c-.43-3.77-1.77-6.49-4-8.21s-5.43-2.48-9.62-2.32a15.13,15.13,0,0,0-8.15,2.37,6.35,6.35,0,0,0-3.12,5.35q0,5.38,14.93,9.62l4.13,1.16.83.23q15.38,4.44,19.25,7.37a20.5,20.5,0,0,1,5.94,7.29,21.93,21.93,0,0,1,2,9.51q0,12.11-9.25,19.2t-26,7.72q-15.79.58-24.06-6.35t-9.2-21.58Zm184.6-25.29h0l13.74-.52c3.73-.14,6.47-1,8.26-2.7s2.66-4.15,2.65-7.48-.92-5.59-2.78-7.12-4.64-2.21-8.38-2.07l-13.51.51,0,19.38ZM333,231.68h0l-.09-81,37-1.39q14.12-.54,21.48,5.7t7.4,18.54q0,12.92-7.24,20.1t-20.93,7.67l-16.86.64,0,29-20.84.78Zm-83.65-77.85h0l20.39-.77.05,50.56c0,5.58,1.06,9.5,3.19,11.78s5.59,3.34,10.48,3.15,8.26-1.49,10.36-3.93,3.12-6.44,3.12-12L296.89,152l20.61-.77.06,48.1q0,10.15-2,16.29a24.68,24.68,0,0,1-6.54,10.48,33.19,33.19,0,0,1-11.12,6.93,44.93,44.93,0,0,1-14.34,2.72,43.5,43.5,0,0,1-14.33-1.64,30.4,30.4,0,0,1-11.14-6.1A23.14,23.14,0,0,1,251.46,218q-2-6-2.05-16.08l0-48.09Zm161.26,74.93h0l-.09-81,61.53-2.31,0,16.56-40.81,1.53,0,14.31,37.28-1.4,0,16.22-37.29,1.4,0,17.34,42.13-1.58,0,16.56-62.85,2.36Zm95.69-49.89h0l15.45-.58c4.17-.16,7.24-1,9.19-2.66s2.95-4.11,2.94-7.47c0-3-1-5.14-2.86-6.51s-4.82-2-8.75-1.85l-16,.6,0,18.47Zm-20.57,47.07h0l-.08-81,38.74-1.46c10.28-.38,17.82,1.17,22.69,4.65s7.29,9.08,7.3,16.78a21.84,21.84,0,0,1-3.08,11.79,25,25,0,0,1-9.65,8.53c3.56,1.22,6.05,3,7.52,5.24s2.32,6.33,2.55,12.2c.11,1.64.23,3.86.34,6.63.28,6.52,1.4,10.26,3.4,11.21v2.8l-21.74.82a37.87,37.87,0,0,1-1.83-11.71q-.21-7.45-.44-9.38c-.35-3.15-1.4-5.41-3.2-6.81s-4.49-2-8.08-1.9l-13.85.53,0,30.29-20.62.78Zm112-31.13h0l19.94-.75c.16,4.63,1.51,8.07,4.09,10.3s6.33,3.28,11.28,3.09c4.21-.16,7.47-1,9.78-2.47a6.85,6.85,0,0,0,3.47-6,7.06,7.06,0,0,0-.83-3.42,5.07,5.07,0,0,0-2.31-2.2c-1.51-.75-5.19-1.89-11.07-3.38s-10.81-3-14.85-4.45c-5.82-2.09-10.26-5-13.28-8.67a20,20,0,0,1-4.56-13.1A23.14,23.14,0,0,1,608.12,145q8.7-7.17,23.61-7.74,14.61-.56,23.19,6.34t8.6,19.16l-19.48.73q-.66-5.62-4-8.2t-9.62-2.32a15,15,0,0,0-8.14,2.37,6.36,6.36,0,0,0-3.13,5.35q0,5.38,14.93,9.62l4.14,1.16.82.23q15.39,4.44,19.25,7.37a20.58,20.58,0,0,1,6,7.28,21.86,21.86,0,0,1,2,9.52q0,12.1-9.25,19.2t-26,7.72q-15.79.58-24-6.35t-9.21-21.58Zm103.87-8.63h0l17.7-.67-9-27.58-8.66,28.25Zm-2-49.27h0l22.66-.85L751,216l-22.28.84-5-14.68-27.08,1-4.6,15.05-21.51.81,29.06-82.09Zm59.79,78.75h0l-.09-81,20.84-.78.07,63.41,39.2-1.47,0,17.57Z" transform="translate(-120.54 -22.01)" fill="#0c2635" fill-rule="evenodd"/><polygon points="458.23 66.7 455.26 90.88 61.75 108.4 61.94 98.88 444.83 81.83 446.65 67.08 458.23 66.7" fill="#c88e14" fill-rule="evenodd"/><polygon points="277.4 265.12 0.27 279.21 0.23 241.22 277.36 227.13 257.85 245.74 277.4 265.12" fill="#0c2635" fill-rule="evenodd"/><path d="M167.61,288a4.65,4.65,0,0,1-.43,2,5.06,5.06,0,0,1-1.2,1.59,5.62,5.62,0,0,1-1.76,1.09,6.72,6.72,0,0,1-2.18.46,6.11,6.11,0,0,1-2.15-.25,5.43,5.43,0,0,1-1.78-.9,4.36,4.36,0,0,1-1.21-1.48,4.31,4.31,0,0,1-.44-2l0-16.2a4.66,4.66,0,0,1,1.65-3.65,5.61,5.61,0,0,1,1.77-1.05,7,7,0,0,1,2.15-.45,6.77,6.77,0,0,1,2.19.23,5.09,5.09,0,0,1,1.76.87,4.23,4.23,0,0,1,1.19,1.46,4.5,4.5,0,0,1,.45,2V288ZM355.24,278h0a5,5,0,0,1-.38,1.94,5,5,0,0,1-1.1,1.61A5.73,5.73,0,0,1,352,282.7a6.91,6.91,0,0,1-2.33.5l-5.58.28,0-25.07,5.58-.28a6.93,6.93,0,0,1,2.33.25,4.57,4.57,0,0,1,1.76.94,4.05,4.05,0,0,1,1.1,1.49,4.72,4.72,0,0,1,.39,1.93l0,15.28ZM352,262.91h0a1.77,1.77,0,0,0-.68-1.5,2.44,2.44,0,0,0-1.67-.46l-2.35.12,0,19.43,2.34-.12a2.5,2.5,0,0,0,1.67-.69,2,2,0,0,0,.68-1.51l0-15.27Zm-10.39,20.7h0l-2.87.14-5.26-15V284l-3,.16,0-25.07,3.23-.16,4.94,15.22,0-15.47,3-.15,0,25.07Zm-13.22.66h0l-9.5.48,0-25.06,9.5-.49V262l-6.28.32v7.94l3.63-.18v2.81l-3.63.19v8.67l6.27-.31v2.81Zm-11.41.58h0l-3.82.19-5.44-12.47v12.74l-3.23.17,0-25.07,3.24-.16v8.51l5.38-8.79,3.85-.19-6.74,10.43L317,284.85Zm-14.53.73h0l-9.51.48,0-25.07,9.5-.48v2.82l-6.27.32v7.94l3.63-.19v2.82l-3.63.18v8.68l6.27-.31v2.81Zm-11.56.58h0l-9.5.48,0-25.06,9.5-.49v2.82l-6.27.32v7.94l3.63-.18v2.82l-3.63.18v8.67l6.27-.31v2.81Zm-11.11-24.51h0L276,286.91l-3,.15-2.36-15.51-2.33,15.75-3,.15-3.7-24.89,3.71-.18,1.74,15.6,2.44-15.81,2.79-.14,2.44,15.56,1.71-15.77,3.3-.17Zm-32.15,1.21h0a6.15,6.15,0,0,1,4,1,4.11,4.11,0,0,1,1.58,3.57v1.38l-3.23-.45v-.76a1.77,1.77,0,0,0-.7-1.41,2.29,2.29,0,0,0-1.65-.52,2.51,2.51,0,0,0-1.19.31,2.46,2.46,0,0,0-.74.69,2.53,2.53,0,0,0-.36.92,4.87,4.87,0,0,0-.09,1,3.52,3.52,0,0,0,.38,1.57,8.78,8.78,0,0,0,1,1.56,18,18,0,0,0,1.28,1.51c.46.49.9.95,1.29,1.38s1,1.16,1.54,1.77a15.36,15.36,0,0,1,1.38,1.91,11.29,11.29,0,0,1,1,2,6.53,6.53,0,0,1,.39,2.25,7.92,7.92,0,0,1-.31,2.24,5.21,5.21,0,0,1-1,2,5.42,5.42,0,0,1-1.84,1.39,6.88,6.88,0,0,1-2.69.61,6.22,6.22,0,0,1-2.3-.27,5.05,5.05,0,0,1-1.74-.95,4.07,4.07,0,0,1-1.12-1.48,4.5,4.5,0,0,1-.39-1.89v-1.34l3.23.45v.74a1.73,1.73,0,0,0,.75,1.43,2.88,2.88,0,0,0,3.62-.26,2.6,2.6,0,0,0,.62-1.75,9,9,0,0,0-.11-1.46,4.89,4.89,0,0,0-.41-1.26,10.85,10.85,0,0,0-1.06-1.84c-.42-.58-.87-1.15-1.34-1.69s-1-1.1-1.47-1.65-1-1.07-1.46-1.6a13.72,13.72,0,0,1-1.74-2.54,6.88,6.88,0,0,1-.64-3.17,5.16,5.16,0,0,1,1.42-3.78,5.9,5.9,0,0,1,4.14-1.62Zm-7.82,25.88h0l-3.23.16,0-25.07,3.23-.16,0,25.07Zm-5.72.29h0l-3.24.16v-11.3l-4.7.24,0,11.3-3.23.16,0-25.07,3.23-.16v10.95l4.7-.24V264.12l3.23-.16,0,25.07Zm-12.76-21.61h0l-3.34.16,0,22.26-3.23.16,0-22.25-3.27.16V265.1l9.84-.5v2.82Zm-17.73-1.93h0L199,279V290.8l-3.26.16,0-11.72-4.63-13.12,3.67-.18,2.69,8.86,2.66-9.13,3.49-.18Zm-11.17,25.63h0v-2.81l-5.54.28,0-22.25-3.22.16,0,25.07,8.76-.45Zm-11.26.58h0l-2.86.14-5.27-15,0,15.27-3.05.15,0-25.06,3.23-.16,4.93,15.21,0-15.46,3-.15,0,25.07Zm-16.79-19.78h0a1.72,1.72,0,0,0-.7-1.47A2.52,2.52,0,0,0,162,270a2.66,2.66,0,0,0-1.67.63,1.89,1.89,0,0,0-.68,1.54l0,16.2a1.71,1.71,0,0,0,.68,1.49,2.6,2.6,0,0,0,1.67.44,2.8,2.8,0,0,0,1.65-.61,1.86,1.86,0,0,0,.69-1.56Z" transform="translate(-120.54 -22.01)" fill="#fede0d" fill-rule="evenodd"/><path d="M576.28,290.9l-14.17.39,0-42.83,14.17-.4v4.82l-9.35.26v13.57l5.42-.16v4.82l-5.41.15v14.82l9.36-.25v4.81Zm285.85-46h0l-5,.14,0,38-4.81.13,0-38-4.86.14v-4.81l14.66-.41v4.81Zm-16.65,30.94h0v-2.13l-4.81,1.71V276a3.43,3.43,0,0,1-1,2.52,3.53,3.53,0,0,1-2.46,1.08,3.35,3.35,0,0,1-3.5-3.41l0-27.68a3.35,3.35,0,0,1,1-2.68,3.75,3.75,0,0,1,2.49-.91,3.63,3.63,0,0,1,2.46.78,3.13,3.13,0,0,1,1,2.62v1.42l4.82-.13V248.2a8.7,8.7,0,0,0-.67-3.4,7.39,7.39,0,0,0-1.78-2.58,8,8,0,0,0-2.62-1.6,8.69,8.69,0,0,0-3.26-.51,10.2,10.2,0,0,0-3.2.58,7.58,7.58,0,0,0-2.65,1.61,7.24,7.24,0,0,0-1.8,2.65,9.5,9.5,0,0,0-.66,3.71l0,27.68a9.23,9.23,0,0,0,.66,3.51,7.28,7.28,0,0,0,1.81,2.57A7.37,7.37,0,0,0,834,284a9.12,9.12,0,0,0,3.2.46,9.31,9.31,0,0,0,3.25-.64,7.57,7.57,0,0,0,2.63-1.69,7.89,7.89,0,0,0,1.77-2.67,9.11,9.11,0,0,0,.66-3.54Zm-20.19.56h0a8.93,8.93,0,0,1-.65,3.46,8.27,8.27,0,0,1-1.78,2.67,7.78,7.78,0,0,1-2.62,1.75A9.15,9.15,0,0,1,817,285a8.91,8.91,0,0,1-3.2-.48,7.71,7.71,0,0,1-2.65-1.6,7.52,7.52,0,0,1-1.81-2.57,8.5,8.5,0,0,1-.66-3.43l0-35.29,4.81-.13,0,35.28a3.16,3.16,0,0,0,1,2.66,3.75,3.75,0,0,0,2.49.75,4,4,0,0,0,2.46-.89,3.28,3.28,0,0,0,1-2.71l0-35.28,4.81-.14,0,35.29Zm-20.19-.26h0a9.44,9.44,0,0,1-.57,3.29,7.86,7.86,0,0,1-1.64,2.7,8,8,0,0,1-2.62,1.86,9.19,9.19,0,0,1-3.47.75l-8.32.23-.05-42.83,8.32-.24a9,9,0,0,1,3.47.54,7.18,7.18,0,0,1,2.63,1.67,7.64,7.64,0,0,1,1.65,2.61,9.37,9.37,0,0,1,.57,3.32l0,26.1Zm-4.84-26h0a3.29,3.29,0,0,0-1-2.6,3.43,3.43,0,0,0-2.49-.86l-3.5.09,0,33.21,3.5-.1a3.38,3.38,0,0,0,2.49-1.11,3.58,3.58,0,0,0,1-2.54l0-26.09Zm-15.34,27.34h0a8.64,8.64,0,0,1-.66,3.41,8.19,8.19,0,0,1-4.39,4.44,8.8,8.8,0,0,1-3.26.69,8.31,8.31,0,0,1-3.2-.51,8,8,0,0,1-2.66-1.62,7.6,7.6,0,0,1-1.8-2.57,8.42,8.42,0,0,1-.66-3.38l0-27.68a8.7,8.7,0,0,1,.65-3.52,7.73,7.73,0,0,1,1.8-2.65,8.5,8.5,0,0,1,2.65-1.71,9.28,9.28,0,0,1,6.46-.18,7.65,7.65,0,0,1,2.63,1.56,7.53,7.53,0,0,1,1.78,2.56,8.74,8.74,0,0,1,.66,3.48l0,27.68ZM780.07,250h0a3.19,3.19,0,0,0-1-2.54,3.47,3.47,0,0,0-2.46-.86,3.67,3.67,0,0,0-2.49,1,3.4,3.4,0,0,0-1,2.6l0,27.69a3.17,3.17,0,0,0,1,2.56,3.46,3.46,0,0,0,2.49.84,3.76,3.76,0,0,0,2.46-1,3.35,3.35,0,0,0,1-2.63l0-27.68Zm-15.22,35.66h0l-4.82.13V270.7a11.75,11.75,0,0,0-.22-2.4,2.93,2.93,0,0,0-.71-1.41,2.67,2.67,0,0,0-1.29-.64,8,8,0,0,0-1.94-.14l-2.85.08,0,19.8-4.81.13-.05-42.83,8.32-.23q3.93-.1,6,2c1.37,1.4,2,3.52,2.06,6.37v5.91a6.43,6.43,0,0,1-1,3.77,5.82,5.82,0,0,1-2.79,2.13,5.64,5.64,0,0,1,2.9,2.1,7.59,7.59,0,0,1,1.21,4.62l0,15.71Zm-5.12-33.29h0a6,6,0,0,0-.8-3.42c-.53-.75-1.67-1.11-3.42-1.06L753,248l0,13.79,2.51-.07a4.41,4.41,0,0,0,3.2-1.13,5.26,5.26,0,0,0,1-3.64v-4.54Zm-14.22,7.4h0a11.2,11.2,0,0,1-.49,3.34,8.52,8.52,0,0,1-1.47,2.84,7.21,7.21,0,0,1-2.49,2,8.83,8.83,0,0,1-3.58.78l-3.78.11,0,17.72-4.81.13,0-42.83,8.59-.24c2.62-.07,4.62.64,6,2.16a8.89,8.89,0,0,1,2.06,6.2v7.83Zm-4.82-6.87h0a5.22,5.22,0,0,0-.94-3.56,4.14,4.14,0,0,0-3.22-.92l-2.85.08,0,15.43,2.84-.08a4.45,4.45,0,0,0,3.06-1.1c.73-.7,1.09-1.92,1.09-3.67v-6.18Zm-25,34.12h0l-14.17.39,0-42.83,14.16-.39V249l-9.36.26,0,13.57,5.41-.15v4.81l-5.42.15,0,14.83,9.35-.26V287ZM699.1,244.66h0l-6.13,43-4.49.12-6.06-42.66,5.52-.16,3.15,28.59,3.09-28.76,4.92-.13ZM680,288h0l0-42.83-4.82.13.05,42.83L680,288Zm-16.84-43.08h0a8.48,8.48,0,0,1,6,1.91c1.56,1.35,2.35,3.4,2.36,6.18v2.35l-4.82-.91v-1.31a3.27,3.27,0,0,0-1-2.43,3.54,3.54,0,0,0-4.24-.49,3.58,3.58,0,0,0-1.1,1.16,4.34,4.34,0,0,0-.54,1.54,11,11,0,0,0-.14,1.73,7.05,7.05,0,0,0,.58,2.69,16.71,16.71,0,0,0,1.46,2.72,31.32,31.32,0,0,0,1.91,2.63c.7.85,1.34,1.66,1.92,2.41.77,1,1.53,2,2.3,3.11a29.35,29.35,0,0,1,2.06,3.31,20.49,20.49,0,0,1,1.48,3.54,13,13,0,0,1,.57,3.86,15.08,15.08,0,0,1-.46,3.82,8.94,8.94,0,0,1-1.52,3.27,7.77,7.77,0,0,1-2.74,2.29,9.06,9.06,0,0,1-4,.93,8.24,8.24,0,0,1-3.41-.56,7.87,7.87,0,0,1-2.6-1.7,7.34,7.34,0,0,1-1.68-2.58,9,9,0,0,1-.57-3.24v-2.3l4.82.91V281a3.2,3.2,0,0,0,1.12,2.48,3.57,3.57,0,0,0,2.55,1,3.52,3.52,0,0,0,2.84-1.26,4.66,4.66,0,0,0,.93-3,17,17,0,0,0-.17-2.52,9.54,9.54,0,0,0-.6-2.16,20.19,20.19,0,0,0-1.59-3.19c-.62-1-1.29-2-2-3s-1.44-1.92-2.2-2.87-1.46-1.88-2.16-2.81a24.48,24.48,0,0,1-2.6-4.41,13.45,13.45,0,0,1-1-5.44,9.39,9.39,0,0,1,2.12-6.41,8,8,0,0,1,6.18-2.58Zm-11.61,36.32h0a9,9,0,0,1-.65,3.47,8.38,8.38,0,0,1-1.78,2.67,7.9,7.9,0,0,1-2.62,1.74,9.42,9.42,0,0,1-3.25.67,8.72,8.72,0,0,1-3.21-.49,7.59,7.59,0,0,1-4.46-4.17,8.5,8.5,0,0,1-.66-3.43l0-35.29,4.81-.13,0,35.29a3.15,3.15,0,0,0,1,2.65,3.7,3.7,0,0,0,2.49.75,4,4,0,0,0,2.46-.89,3.3,3.3,0,0,0,1-2.71l0-35.28,4.81-.14,0,35.29Zm-19,8.08h0v-4.82l-8.26.23,0-38-4.81.14.05,42.83,13.07-.36Zm-16.37-7.1h0a9,9,0,0,1-.65,3.55,7.94,7.94,0,0,1-1.77,2.67,7.66,7.66,0,0,1-2.63,1.69,9.54,9.54,0,0,1-3.25.64,9.12,9.12,0,0,1-3.2-.46,7.52,7.52,0,0,1-2.66-1.54,7.37,7.37,0,0,1-1.81-2.57,9.09,9.09,0,0,1-.65-3.52l0-27.68a9.42,9.42,0,0,1,.65-3.71,7.42,7.42,0,0,1,1.8-2.65,7.62,7.62,0,0,1,2.65-1.6,10.49,10.49,0,0,1,3.2-.59,8.44,8.44,0,0,1,3.25.52,7.78,7.78,0,0,1,2.63,1.59,7.39,7.39,0,0,1,1.78,2.58,8.55,8.55,0,0,1,.66,3.4V256l-4.82.14v-1.43a3.15,3.15,0,0,0-1-2.62,3.73,3.73,0,0,0-2.47-.78,3.8,3.8,0,0,0-2.48.92,3.32,3.32,0,0,0-1,2.68l0,27.68a3.29,3.29,0,0,0,1,2.46,3.33,3.33,0,0,0,2.49,1,3.54,3.54,0,0,0,2.46-1.09,3.39,3.39,0,0,0,1-2.51v-.55l4.81-1.72v2.13ZM585.61,269h0l-6.48,21.79,5.25-.15,3.87-15.58,4,15.36,5.52-.15-6.59-21.75,6.27-21.07-5.25.14-3.54,14.6-3.9-14.39-5.47.15Z" transform="translate(-120.54 -22.01)" fill="#0c2635" fill-rule="evenodd"/><polygon points="286.41 268.11 25.75 281.27 25.54 277.78 277.4 265.12 257.85 245.74 273.46 230.85 286.37 230.12 266.86 248.73 286.41 268.11" fill="#c88e14" fill-rule="evenodd"/></svg>