<svg id="Layer_1" data-name="Layer 1" xmlns="http://www.w3.org/2000/svg" viewBox="0 0 471.26 284.18"><polygon points="146.62 61.78 6.23 83.24 37.15 46.54 0 22.91 140.4 1.44 146.62 61.78" fill="#c88e14" fill-rule="evenodd"/><polygon points="325.56 225.99 465.94 204.43 434.55 238.2 471.26 259.1 330.88 280.66 325.56 225.99" fill="#c88e14" fill-rule="evenodd"/><polygon points="70.86 48.27 141.12 1.36 145.17 42.68 70.86 48.27" fill="#865f0f" fill-rule="evenodd"/><polygon points="401.88 233.27 331.6 279.99 327.58 238.91 401.88 233.27" fill="#865f0f" fill-rule="evenodd"/><polygon points="374.37 60.4 191.93 122.22 42.23 138.27 233.14 78.86 374.37 60.4" fill="#865f0f" fill-rule="evenodd"/><polygon points="374 60.67 74.22 107.7 70.09 47.03 369.87 0 374 60.67" fill="#efac06" fill-rule="evenodd"/><polygon points="431.85 144.32 254.73 206.6 105.44 225.22 290.96 156.81 431.85 144.32" fill="#865f0f" fill-rule="evenodd"/><polygon points="431.86 146.37 44.45 207.3 40.54 137.81 427.95 76.88 431.86 146.37" fill="#efac06" fill-rule="evenodd"/><polygon points="402.31 237.15 102.53 284.18 98.4 223.51 398.18 176.48 402.31 237.15" fill="#efac06" fill-rule="evenodd"/><path d="M148.55,134.5l-5-31.15,23.67-3.8,1,6.37-15.69,2.52.88,5.5,14.34-2.3,1,6.24-14.34,2.3,1.07,6.67,16.2-2.6,1,6.37-24.17,3.88Zm218.36-35h0l-5-31.15,23.66-3.79,1,6.36-15.7,2.52.88,5.5,14.34-2.3,1,6.24-14.34,2.3,1.07,6.67,16.2-2.6,1,6.37-24.18,3.88Zm-20.83,3.34h0l-15.7-29.43L338.84,72l6.94,15.31c.12.25.31.67.57,1.25.84,1.83,1.51,3.38,2,4.62,0-.66.12-1.43.2-2.33s.24-2.07.41-3.53l2-17.25,8.41-1.35-5.79,32.87-7.45,1.2Zm-21.4,3.43h0l8-1.28-5-31.14-8,1.28,5,31.14Zm-32.9-5.34h0l7.66-1.23a5.47,5.47,0,0,0,2.22,3.77,6.29,6.29,0,0,0,4.55.66,7.28,7.28,0,0,0,3.63-1.42,2.54,2.54,0,0,0,1-2.48,2.83,2.83,0,0,0-.53-1.28,2.13,2.13,0,0,0-1-.73,28.1,28.1,0,0,0-4.49-.78q-3.54-.45-6-1a12.13,12.13,0,0,1-5.67-2.71,8.08,8.08,0,0,1-2.57-4.82,8.71,8.71,0,0,1,2.22-7.64c1.94-2.11,4.84-3.48,8.65-4.09s6.87-.15,9.37,1.34a9.41,9.41,0,0,1,4.5,7l-7.5,1.2a4.6,4.6,0,0,0-2.05-3,5.83,5.83,0,0,0-3.86-.45,5.73,5.73,0,0,0-3,1.3,2.38,2.38,0,0,0-.88,2.21q.33,2.07,6.37,3c.73.12,1.28.2,1.67.25l.33.05q6.23,1,7.9,1.93A8.3,8.3,0,0,1,317,94.49a9.23,9.23,0,0,1-1,11.39c-2.1,2.1-5.28,3.5-9.57,4.19q-6.09,1-9.7-1.3t-4.88-7.87ZM257.82,85h0l7.84-1.26,3.12,19.44q.53,3.22,2,4.39c.95.78,2.37,1,4.24.71a5.12,5.12,0,0,0,3.77-2q1-1.56.47-4.77L276.1,82.09,284,80.81l3,18.5a20.84,20.84,0,0,1,.24,6.36,9.11,9.11,0,0,1-1.89,4.34,12.32,12.32,0,0,1-3.88,3.19,16.92,16.92,0,0,1-5.38,1.72,17.27,17.27,0,0,1-5.64,0,12.35,12.35,0,0,1-4.69-1.82,9.53,9.53,0,0,1-3.2-3.55,20.72,20.72,0,0,1-1.77-6.08l-3-18.5Zm-20.4,35.22h0l23.09-3.71-1.09-6.75-15.07,2.42-3.91-24.39-8,1.28,5,31.15Zm-6.57-10.15h0a13.66,13.66,0,0,1-3,9.41,14,14,0,0,1-8.82,4.58,14.63,14.63,0,0,1-11.74-2.69q-4.91-3.8-6.07-11.08-1.22-7.57,2.32-12.76t10.69-6.34a14.22,14.22,0,0,1,9.73,1.5,11.75,11.75,0,0,1,5.4,7.5l-7.49,1.2a5.78,5.78,0,0,0-2.62-3,6.7,6.7,0,0,0-4.21-.49,6.32,6.32,0,0,0-4.87,3.49,12.18,12.18,0,0,0-.78,7.55c.49,3,1.48,5.31,3,6.79a6.1,6.1,0,0,0,5.58,1.7,6.68,6.68,0,0,0,4.09-2,5.9,5.9,0,0,0,1.41-4.13l7.41-1.19ZM174.11,130.4h0l9.14-1.47,3.83-9.9,6.68,8.21,9.2-1.47-12.72-14.36,7.15-16.7-9.09,1.46-3.43,9.1-6.11-7.57-9.09,1.46,11.92,13.64Z" transform="translate(-45.92 -46.82)" fill="#0c2635" fill-rule="evenodd"/><path d="M155.21,207.62l7-1.12a6.21,6.21,0,0,0,4-1.89,4.87,4.87,0,0,0,.75-4,4.64,4.64,0,0,0-2-3.45,6.45,6.45,0,0,0-4.46-.53l-6.88,1.1,1.58,9.86Zm227.19-12.8h0l-6.61-41.22,14.51-2.33L399,170.46c.76,1.7,1.48,3.36,2.14,4.95s1.26,3.18,1.82,4.72c.09-1.73.21-3.55.36-5.47s.34-4,.59-6.16l2.08-19.74,14.51-2.32,6.61,41.21-9.63,1.55-2.93-18.27q-.31-1.94-.77-5.43t-1-8.09l-2.83,33-10.47,1.68L386.58,161.6c.72,3.63,1.34,6.91,1.89,9.81s.95,5.18,1.21,6.82l2.41,15-9.69,1.56Zm-49.14-34.4h0l10.38-1.66,4.13,25.73q.68,4.26,2.58,5.8c1.27,1,3.14,1.34,5.63,1s4.1-1.28,5-2.65,1.08-3.48.62-6.32l-4.12-25.73L368,154.86l3.92,24.48a27.54,27.54,0,0,1,.32,8.41,12.22,12.22,0,0,1-2.49,5.75,16.4,16.4,0,0,1-5.14,4.22A24.85,24.85,0,0,1,350,200.06a16.39,16.39,0,0,1-6.2-2.41,12.62,12.62,0,0,1-4.23-4.7,27.06,27.06,0,0,1-2.35-8l-3.93-24.48Zm-12,44.21h0l-6.61-41.22,10.55-1.69,6.61,41.22-10.55,1.69Zm-53.07,8.51h0l-6.61-41.22,14.5-2.32,8.66,19.19c.76,1.69,1.47,3.35,2.13,5s1.27,3.18,1.83,4.71c.08-1.72.2-3.55.35-5.46s.35-4,.59-6.16l2.09-19.74,14.51-2.33L312.83,206l-9.64,1.54-2.93-18.27c-.2-1.29-.46-3.09-.77-5.43s-.64-5-1-8.09l-2.83,33-10.47,1.68-12.85-30.48c.72,3.63,1.34,6.9,1.88,9.81s.95,5.18,1.21,6.82l2.42,15-9.69,1.55Zm-38.3,6.14,32-5.12-1.35-8.43-21.44,3.44-1.42-8.83,19-3.05L255.3,189l-19,3-1.17-7.28,20.77-3.33L254.58,173l-31.32,5,6.61,41.21ZM194.46,200.8h0l7.86-1.26a7.64,7.64,0,0,0,4.49-1.93,4.48,4.48,0,0,0,.9-4,4,4,0,0,0-2-3.14,7.44,7.44,0,0,0-4.63-.4L193,191.4l1.51,9.4ZM187.75,226h0l-6.62-41.21,19.72-3.17c5.23-.84,9.22-.52,12,1s4.47,4.16,5.09,8.08a10.88,10.88,0,0,1-.62,6.2,12.26,12.26,0,0,1-4.24,4.94,7.54,7.54,0,0,1,4.27,2.2q1.41,1.59,2.29,6.05c.2.83.44,1.95.72,3.35.67,3.31,1.55,5.13,2.64,5.5l.23,1.42-11.06,1.78a19.73,19.73,0,0,1-1.89-5.85c-.47-2.52-.8-4.1-1-4.75a5.07,5.07,0,0,0-2.19-3.26,6.48,6.48,0,0,0-4.29-.46l-7.05,1.13,2.48,15.42L187.75,226Zm-39.45,6.33h0l-6.61-41.22,18.85-3c4.79-.77,8.61-.24,11.47,1.56s4.62,4.8,5.29,9q1,6.59-2.08,10.68t-10.09,5.22l-8.58,1.38,2.36,14.73Z" transform="translate(-45.92 -46.82)" fill="#0c2635" fill-rule="evenodd"/><path d="M189.45,290.83l6-.95a5.31,5.31,0,0,0,3.43-1.62,4.14,4.14,0,0,0,.65-3.4,4,4,0,0,0-1.72-2.95,5.55,5.55,0,0,0-3.81-.45l-5.88.94,1.35,8.43Zm219.63-15h0l-4.5-28.09-10.1,1.62-1.15-7.16,29.22-4.68,1.15,7.15-10.1,1.62,4.5,28.09-9,1.45Zm-14.29-10.38h0l-8.38,1.34a6.69,6.69,0,0,1-1.6,4.67,7.55,7.55,0,0,1-4.63,2.26,6.92,6.92,0,0,1-6.32-1.92c-1.69-1.68-2.82-4.24-3.37-7.68s-.25-6.31.89-8.54a7.12,7.12,0,0,1,5.51-3.95,7.52,7.52,0,0,1,4.76.55,6.46,6.46,0,0,1,3,3.44l8.49-1.36a13.3,13.3,0,0,0-6.12-8.48,16,16,0,0,0-11-1.7q-8.09,1.31-12.1,7.17t-2.63,14.44q1.32,8.24,6.87,12.54a16.56,16.56,0,0,0,13.29,3,15.85,15.85,0,0,0,10-5.18,15.45,15.45,0,0,0,3.41-10.64Zm-71.31-12h0l8.87-1.43,3.53,22c.39,2.43,1.12,4.08,2.21,5s2.69,1.15,4.81.82,3.51-1.1,4.26-2.27.92-3,.54-5.4l-3.53-22,9-1.44,3.35,20.93a23.63,23.63,0,0,1,.28,7.2,10.47,10.47,0,0,1-2.14,4.91,13.94,13.94,0,0,1-4.39,3.61,21.23,21.23,0,0,1-12.47,2,14,14,0,0,1-5.3-2.06,10.71,10.71,0,0,1-3.62-4,23,23,0,0,1-2-6.88l-3.36-20.93Zm-22.93,32.23h0l4.9-.78q4.19-.68,5.74-3.45t.71-8c-.57-3.52-1.63-6-3.2-7.43s-3.73-1.91-6.52-1.46l-4.91.78,3.28,20.39Zm-7.89,8.86h0L287,259.25l15.05-2.42q7.83-1.24,12.73,2.63c3.28,2.6,5.36,6.74,6.28,12.43q1.41,8.83-2.21,13.91c-2.4,3.37-6.52,5.53-12.31,6.46l-13.89,2.23ZM258.17,282h0q.85,5.38,3.51,7.91a7.51,7.51,0,0,0,6.74,1.86,7.62,7.62,0,0,0,5.87-3.88c1.17-2.16,1.46-5,.89-8.61s-1.75-6.21-3.54-7.89a8.46,8.46,0,0,0-12.61,2q-1.72,3.24-.86,8.61ZM249,283.44h0q-1.38-8.58,2.57-14.34T263.66,262q8.16-1.32,13.76,2.92t7,12.81q1.38,8.57-2.62,14.34t-12.15,7.08q-8.14,1.31-13.7-2.92T249,283.44ZM223,285h0l6.72-1.08a6.55,6.55,0,0,0,3.85-1.65,3.84,3.84,0,0,0,.76-3.41,3.41,3.41,0,0,0-1.7-2.68,6.36,6.36,0,0,0-4-.34l-7,1.12,1.29,8Zm-5.74,21.58h0l-5.65-35.24,16.86-2.7q6.71-1.08,10.25.81c2.38,1.25,3.83,3.56,4.36,6.91a9.35,9.35,0,0,1-.53,5.29,10.51,10.51,0,0,1-3.63,4.23,6.42,6.42,0,0,1,3.65,1.88q1.2,1.37,2,5.17c.16.71.36,1.67.61,2.87.57,2.83,1.32,4.39,2.26,4.7l.19,1.22-9.46,1.51a17,17,0,0,1-1.61-5c-.4-2.16-.69-3.51-.85-4.06a4.33,4.33,0,0,0-1.87-2.8,5.53,5.53,0,0,0-3.66-.39l-6,1,2.11,13.18-9,1.44ZM183.55,312h0l-5.66-35.24L194,274.16q6.13-1,9.8,1.34t4.53,7.67q.9,5.63-1.78,9.14t-8.63,4.46l-7.34,1.17,2,12.6Z" transform="translate(-45.92 -46.82)" fill="#0c2635" fill-rule="evenodd"/></svg>