<svg id="Layer_1" data-name="Layer 1" xmlns="http://www.w3.org/2000/svg" viewBox="0 0 318.92 302.48"><path d="M322.69,99.91A140.74,140.74,0,0,0,60.46,166,138,138,0,0,0,72.28,227.1a141.27,141.27,0,0,1-5.34-38.65A143.2,143.2,0,0,1,311.39,87.2,145.06,145.06,0,0,1,322.69,99.91Z" transform="translate(-34.42 -28.52)" fill="#fede0d" fill-rule="evenodd"/><path d="M350.86,189.33c0-.29,0-.58,0-.88a140.74,140.74,0,0,0-281.48,0c0,63.87,42.88,116.7,100.84,135,41.95,13.25,63.06-5.55,114.15-12.25,26.28-3.44,50.29,6.88,66.49,17.75" transform="translate(-34.42 -28.52)" fill="none" stroke="#fff" stroke-miterlimit="2.61" stroke-width="1.42" fill-rule="evenodd"/><path d="M348.41,189.29v-.24h0v-.59a138.28,138.28,0,0,0-276.55,0,135.92,135.92,0,0,0,27.2,81.8A144,144,0,0,0,171,321.11c26.64,8.42,44.82,3.54,68.11-2.72,12.74-3.42,27-7.25,45-9.61a87.71,87.71,0,0,1,34.18,2.47,114.74,114.74,0,0,1,34,15.68L349.51,331A110.19,110.19,0,0,0,317,316a83.2,83.2,0,0,0-32.28-2.35c-17.61,2.31-31.72,6.1-44.34,9.5-24.07,6.46-42.86,11.51-70.86,2.66a148.87,148.87,0,0,1-74.38-52.61,140.82,140.82,0,0,1-28.18-84.74,143.2,143.2,0,0,1,286.4,0l0,.69v.23Z" transform="translate(-34.42 -28.52)" fill="#fff" fill-rule="evenodd"/><path d="M350.88,189.33h0c0-.29,0-.58,0-.88a140.74,140.74,0,0,0-281.48,0c0,63.87,42.88,116.7,100.84,135,41.95,13.25,63.06-5.55,114.15-12.25,26.28-3.44,50.29,6.88,66.49,17.75Z" transform="translate(-34.42 -28.52)" fill="#efac06" fill-rule="evenodd"/><polygon points="0 1.99 194.63 0 211.41 71.92 6.66 103.56 0 1.99" fill="#0c2635" fill-rule="evenodd"/><path d="M95.74,98.11c-.14,0-.26-.12-.35-.4,0-.09-.08-.18-.13-.29a2.82,2.82,0,0,1-.34-1.06,1.18,1.18,0,0,1,.41-.84,1.62,1.62,0,0,1,1-.53,1.26,1.26,0,0,1,.64.14c.24.12.37.25.38.38a4.3,4.3,0,0,1-.16,1.11,1.71,1.71,0,0,1-.68,1.12,2,2,0,0,1-.77.37Zm121.41-5.82h0a18.21,18.21,0,0,1-3,2.62,5.22,5.22,0,0,1-2,1,1.57,1.57,0,0,1-1.53-.62,3.26,3.26,0,0,1-.64-1.8,14.62,14.62,0,0,1,.34-3.76A12.28,12.28,0,0,1,211,87a1.16,1.16,0,0,1,.92-.52.49.49,0,0,1,.47.27,1.45,1.45,0,0,1,.22.7,1.36,1.36,0,0,1-.18.66,11.68,11.68,0,0,0-.47,1.07c0,.07-.11.47-.29,1.21a6.87,6.87,0,0,0-.21,2,5.26,5.26,0,0,0,.23,1c.15.45.39.66.72.62a3.94,3.94,0,0,0,1.3-.49,8.8,8.8,0,0,0,1.68-1.27,7.77,7.77,0,0,0,1.24-1.35,3.18,3.18,0,0,0,.4-1.09,14.65,14.65,0,0,0,0-2.54c-.05-1.3.21-2,.8-2,.36,0,.59,0,.71.19a2.5,2.5,0,0,1,.23,1c0,.43,0,1,0,1.61,0,.82,0,1.39,0,1.74a37,37,0,0,1-.31,5.43,15.41,15.41,0,0,1-1.31,4.69,3.49,3.49,0,0,1-2.81,2.16,5.83,5.83,0,0,1-3.46-.59c-1-.54-1.57-1-1.6-1.5a1.38,1.38,0,0,1,.11-.65c.08-.22.2-.33.36-.35a.31.31,0,0,1,.26.15,4.21,4.21,0,0,0,4.14,1.46c.94-.11,1.67-1,2.19-2.74a15,15,0,0,0,.72-4.75c0-.28,0-.56,0-.84Zm-7.88-12.11h0c-.32,0-.61.35-.88.92a27.26,27.26,0,0,0-.84,5.76,54,54,0,0,0-.23,7.88,1.8,1.8,0,0,1-.69.27c-.31,0-.56-.13-.74-.5a18.19,18.19,0,0,1-.7-2.92,6.68,6.68,0,0,0-1-2.79,1.6,1.6,0,0,0-1.49-.63,3,3,0,0,0-1.94,1.2,16.54,16.54,0,0,0-1.89,3.57,11.44,11.44,0,0,1-1.18,2.47q-.08,0-.09-.15a10.11,10.11,0,0,1,.1-1.29,28.39,28.39,0,0,0,.3-4.1,2.36,2.36,0,0,0-.31-1.22.76.76,0,0,0-.73-.23c-.19,0-.38.2-.57.52a1.64,1.64,0,0,0-.26.86A33.9,33.9,0,0,1,196,96a8.65,8.65,0,0,0-.06,1.34c.05.73.46,1,1.22,1a1.37,1.37,0,0,0,.75-.52,20.18,20.18,0,0,0,1.84-3.75,17.51,17.51,0,0,1,1.61-3.17,1.64,1.64,0,0,1,1-.79c.59-.07,1,.83,1.35,2.7a9.14,9.14,0,0,0,1,3.4,1.41,1.41,0,0,0,1.33.5,2.15,2.15,0,0,0,1.34-.64l0,0a4.11,4.11,0,0,0,.24,1c.16.41.41.6.76.56a1,1,0,0,0,.67-.44,1.24,1.24,0,0,0,.27-.87c0-.09,0-.23-.07-.43a25.38,25.38,0,0,1-.43-3.15,34.84,34.84,0,0,1,.57-7.83A19.87,19.87,0,0,0,210,81c0-.59-.29-.86-.76-.8ZM190.51,99.59h0a2.66,2.66,0,0,1-2.27-.74,3.55,3.55,0,0,1-1-2.38,9,9,0,0,1,1.33-5.13,5.21,5.21,0,0,1,3.86-2.91,3,3,0,0,1,2.61.88A4.22,4.22,0,0,1,196.17,92a7.07,7.07,0,0,1-1.67,4.91,6.06,6.06,0,0,1-4,2.65ZM188.89,96h0a2.76,2.76,0,0,0,.53,1.55,1.2,1.2,0,0,0,1.14.48,4.35,4.35,0,0,0,2.79-1.93,5.35,5.35,0,0,0,1.2-3.69,3,3,0,0,0-.69-1.87A1.73,1.73,0,0,0,192.3,90a3.43,3.43,0,0,0-2.55,2.24,7.6,7.6,0,0,0-.86,3.78Zm-13.16,1h0a13.31,13.31,0,0,1-2.52,3.54A4.85,4.85,0,0,1,170.6,102a1.68,1.68,0,0,1-1.54-.54,1.34,1.34,0,0,1-.11-.14,2.42,2.42,0,0,1-.85.27,1.4,1.4,0,0,1-1.32-.5,8.88,8.88,0,0,1-1-3.4c-.31-1.88-.76-2.78-1.34-2.71a1.7,1.7,0,0,0-1.06.79,18.61,18.61,0,0,0-1.61,3.17,20.18,20.18,0,0,1-1.84,3.75,1.37,1.37,0,0,1-.75.52c-.76.09-1.17-.23-1.22-1a7,7,0,0,1,0-.78,9.48,9.48,0,0,1-.95,1,6.15,6.15,0,0,1-3.52,1.84,3.1,3.1,0,0,1-2.28-.48,3,3,0,0,1-.3.36,2.32,2.32,0,0,1-1.37.61,2,2,0,0,1-1.17-.26,13,13,0,0,1-2.21-1.87c-.85-.85-1.38-1.36-1.59-1.52a.71.71,0,0,0-.5-.21c-.07,0-.29.2-.64.58a2,2,0,0,0-.58.84c0,.18,0,.84.09,2l0,.45a.9.9,0,0,1-.3.68,1.21,1.21,0,0,1-.72.38.89.89,0,0,1-.66-.16.71.71,0,0,1-.26-.47,11.38,11.38,0,0,1,.14-1.67q0-.24.06-.51a7.15,7.15,0,0,1-1.3,1.59,6.13,6.13,0,0,1-3.52,1.83,3,3,0,0,1-2.48-.63,3,3,0,0,1-.83-1.33,8.63,8.63,0,0,1-1,1.13,6.13,6.13,0,0,1-3.52,1.83,3,3,0,0,1-2.48-.63,3.5,3.5,0,0,1-1-2.47,9,9,0,0,1,1.49-5.49c1.14-1.81,2.44-2.81,3.92-3a1.61,1.61,0,0,1,1.23.33,1.52,1.52,0,0,1,.54,1.09,4.14,4.14,0,0,1-1.26,3,20.44,20.44,0,0,1-3.73,3.16.83.83,0,0,0-.46.73,1.56,1.56,0,0,0,2,1.55q2.09-.26,4.1-2.81h0a9.14,9.14,0,0,1,1.51-5.07c1.14-1.82,2.44-2.82,3.92-3a1.53,1.53,0,0,1,1.23.33,1.49,1.49,0,0,1,.54,1.08,4.14,4.14,0,0,1-1.26,3,20.05,20.05,0,0,1-3.73,3.16.82.82,0,0,0-.46.73,1.74,1.74,0,0,0,.56,1.24,1.79,1.79,0,0,0,1.41.32q2.08-.25,4.1-2.82c.2-.24.35-.37.47-.38a.27.27,0,0,1,.18,0c.06-.92.11-2,.14-3.16a61.19,61.19,0,0,1,.51-8.5c.21-.69.56-1.06,1-1.11a.44.44,0,0,1,.44.22,1.19,1.19,0,0,1,.22.67,31.39,31.39,0,0,1-.38,4.2c-.28,2.28-.45,4.5-.5,6.64.08-.12.62-.71,1.63-1.77s1.61-1.73,2-2.18c1.39-1.68,2.41-2.55,3.06-2.63s.78.15.81.64a1.35,1.35,0,0,1-.66,1.3,23.25,23.25,0,0,0-2.48,2c-1,.89-1.52,1.5-1.5,1.82,0,.13.42.56,1.25,1.3a13,13,0,0,0,2.11,1.62,2.92,2.92,0,0,0,1.46.41,4.16,4.16,0,0,1-.52-1.85,9.06,9.06,0,0,1,1.5-5.49q1.69-2.72,3.92-3a1.52,1.52,0,0,1,1.22.33,1.54,1.54,0,0,1,.55,1.09,4.18,4.18,0,0,1-1.27,3,20.43,20.43,0,0,1-3.73,3.15.84.84,0,0,0-.46.74,1.7,1.7,0,0,0,.56,1.23,1.78,1.78,0,0,0,1.42.32q2.07-.25,4.1-2.82a1.67,1.67,0,0,1,.34-.33,35.64,35.64,0,0,0,0-4.84,1.5,1.5,0,0,1,.26-.85c.19-.33.38-.5.57-.53a.8.8,0,0,1,.74.23,2.42,2.42,0,0,1,.3,1.22,26.94,26.94,0,0,1-.3,4.1,12.54,12.54,0,0,0-.1,1.3c0,.1,0,.15.09.14a11.44,11.44,0,0,0,1.18-2.47,16.73,16.73,0,0,1,1.9-3.57,2.92,2.92,0,0,1,1.94-1.2,1.59,1.59,0,0,1,1.48.63,6.54,6.54,0,0,1,1,2.79,17.77,17.77,0,0,0,.71,2.92.81.81,0,0,0,.49.49,2.46,2.46,0,0,1,0-.28A8.61,8.61,0,0,1,170,94.3q1.81-2.8,4.13-3.09a2.52,2.52,0,0,1,1.93.63l.91-6.49a1.34,1.34,0,0,1,.47-.94,1.4,1.4,0,0,1,.61-.29c.45-.06.71.32.76,1.11a10.39,10.39,0,0,1-.33,1.64,47.13,47.13,0,0,0-1,5.4,26.2,26.2,0,0,0-.28,5.06c.09,1.29.42,1.9,1,1.83a2.28,2.28,0,0,0,1.1-.49.76.76,0,0,1,.44-.23c.21,0,.33.09.34.36s-.23.75-.78,1.25a3.2,3.2,0,0,1-1.74.87c-1.07.12-1.68-.84-1.82-2.89a9.32,9.32,0,0,1,0-1.06Zm-1.59-4.38h0c-1,.13-2,1-3,2.51a7.1,7.1,0,0,0-1.26,4.11c.06.8.35,1.17.89,1.11a3.61,3.61,0,0,0,1.78-1,10.51,10.51,0,0,0,2-2.8,6,6,0,0,0,1-2.74,1.28,1.28,0,0,0-.45-.83,1.21,1.21,0,0,0-1-.34ZM151.77,99.2h0q3.94-2.94,3.84-4.42c0-.39-.21-.56-.56-.52-.6.07-1.24.59-1.92,1.55a8,8,0,0,0-1.36,3.39Zm-17.07,2.17h0c2.63-2,3.91-3.43,3.84-4.42,0-.38-.22-.55-.56-.51-.6.07-1.24.58-1.93,1.55a8,8,0,0,0-1.35,3.38Zm-7.83,1h0q3.94-2.94,3.84-4.42c0-.38-.21-.56-.56-.51-.6.07-1.24.58-1.93,1.55a8.08,8.08,0,0,0-1.35,3.38Zm-9-.44h0c.11.21.22.45.34.73a15.42,15.42,0,0,0,2.31,4.31,2.35,2.35,0,0,0,2,.63c.16,0,.33-.29.53-.8s.55-1.78,1-3.77a18.23,18.23,0,0,1,2-5.2.94.94,0,0,0,.07-.52.64.64,0,0,0-.2-.42.49.49,0,0,0-.43-.16,1.25,1.25,0,0,0-.75.35,6.35,6.35,0,0,0-.94,1.78,26.76,26.76,0,0,0-1.28,4.38c-.33,1.41-.58,2.14-.78,2.16s-.75-.57-1.47-1.8a8.45,8.45,0,0,1-1.2-3.64,1.79,1.79,0,0,1,0-.41,1.79,1.79,0,0,0,0-.41c0-.48-.34-.73-.9-.73a5.87,5.87,0,0,0-1.14,1.91l-.27.62c-.25.5-.65,1.42-1.2,2.74-.87,2.08-1.4,3.14-1.59,3.16s-.6-.51-1-1.63a10.41,10.41,0,0,1-.78-3.12,10.24,10.24,0,0,1,0-1.55c0-.57,0-.9,0-1v0a.85.85,0,0,0-.3-.57.7.7,0,0,0-.44-.27l-.25,0a1.25,1.25,0,0,0-.8.61,1.87,1.87,0,0,0-.27,1.21,21.37,21.37,0,0,0,1.43,5.63q1.28,3.44,2.49,3.29c.27,0,.68-.57,1.2-1.6a32.65,32.65,0,0,0,1.52-3.51c.58-1.58,1-2.38,1.14-2.41Zm-16.38,6.29h0c0-.41-.58-.83-1.65-1.24a14,14,0,0,1-2.79-1.29,1.66,1.66,0,0,1-.78-1.27A3.91,3.91,0,0,1,98,101a6.69,6.69,0,0,1,3.07-1.65,1.83,1.83,0,0,1,1.16.13,1.05,1.05,0,0,1,.42.9.69.69,0,0,1-.22.54.75.75,0,0,1-.39.26,1.22,1.22,0,0,1-.43-.09,1.47,1.47,0,0,0-.42-.09,6.92,6.92,0,0,0-1.92.94c-1,.59-1.41,1.19-1.37,1.78a1.21,1.21,0,0,0,.59.92,8.91,8.91,0,0,0,2,.85,6.78,6.78,0,0,1,1.83.91,1.77,1.77,0,0,1,.76,1.32c.07,1-.56,1.84-1.89,2.56a10.61,10.61,0,0,1-3.85,1.31q-1.58.19-1.65-.87a.6.6,0,0,1,.31-.59,1.8,1.8,0,0,1,.71-.26,3.16,3.16,0,0,1,.55,0,2.54,2.54,0,0,0,.54,0,8.56,8.56,0,0,0,2.28-.64,2.64,2.64,0,0,0,1.46-1.08ZM71,102.43h0a1.84,1.84,0,0,0,1.38.16c.46,0,1.24-.2,2.33-.43s1.82-.36,2.21-.42c.24,0,.37.07.38.29,0,0,0,.13,0,.35a78.35,78.35,0,0,0-.22,8.33,6.32,6.32,0,0,0,.53,2.67.94.94,0,0,0,.88.38.7.7,0,0,0,.54-.41,1.37,1.37,0,0,0,.17-.79,1.65,1.65,0,0,0,0-.23,7.52,7.52,0,0,1-.37-1.79c-.08-1.12-.09-2.85,0-5.19a28.77,28.77,0,0,1,.24-3.83c.09-.23.6-.44,1.54-.65s1.73-.35,2.39-.43l1.14-.12q-.28,5.37-.94,10.89a5.67,5.67,0,0,0-.08,1.07.72.72,0,0,0,.33.58,1,1,0,0,0,.74.17,1.28,1.28,0,0,0,.76-.59,15.91,15.91,0,0,0,1.21-2.24q2.72-5.69,3.73-5.81c.28,0,.5.15.66.55a15.82,15.82,0,0,1,.53,2.59,6.42,6.42,0,0,0,1,2.89,1.55,1.55,0,0,0,1.4.68.89.89,0,0,0,.35-.11c.16.62.48.9,1,.84a1.08,1.08,0,0,0,.66-.35.85.85,0,0,0,.29-.5,2.42,2.42,0,0,0-.06-.28,8,8,0,0,1-.33-1.63,17.93,17.93,0,0,1,0-2.64,36.87,36.87,0,0,1,.64-3.77,2.68,2.68,0,0,0,.08-.78.63.63,0,0,0-.32-.49,1.13,1.13,0,0,0-.8-.15.75.75,0,0,0-.6.51,2.26,2.26,0,0,0-.15,1.07,13.23,13.23,0,0,1-.13,1.68,46.33,46.33,0,0,0-.37,4.79,7.84,7.84,0,0,1-1.19-3.4,9.49,9.49,0,0,0-.86-3.06,1.09,1.09,0,0,0-1.06-.58q-2.34.28-5.48,7.36h0c-.07,0-.11,0-.11-.1a21.16,21.16,0,0,1,.27-3c.2-1.63.41-3,.62-4a19.78,19.78,0,0,0,.52-5,1.19,1.19,0,0,0-.4-.89,1,1,0,0,0-.79-.25c-.15,0-.33.19-.54.53a4.26,4.26,0,0,0-.36,1.84,5.16,5.16,0,0,0-.67.05,19.27,19.27,0,0,0-2.3.44c-2.11.55-3.68.93-4.7,1.14s-2.18.4-3.47.56a7,7,0,0,0-1.87.4.64.64,0,0,0-.28.63A1,1,0,0,0,71,102.43Z" transform="translate(-34.42 -28.52)" fill="#fede0d" fill-rule="evenodd"/><path d="M58.41,75c-3.72-3.27-7.54-6.55-11.32-9.85-.58-3.55-1.26-7.09-1.79-10.64a11.46,11.46,0,0,1-.19-2.81,13.15,13.15,0,0,1,.68-2.35A4.74,4.74,0,0,1,47,47.71,3.15,3.15,0,0,1,48.74,47c1.55-.1,3.09-.22,4.64-.34a4,4,0,0,1,1.94.44,5.56,5.56,0,0,1,1.74,1.42,8,8,0,0,1,1.45,2.18,11.28,11.28,0,0,1,.82,2.71c.34,1.76.63,3.55,1,5.33-1.6.1-3.15.22-4.74.34-.34-1.78-.68-3.54-1-5.33L50,54.14c.33,2.35.77,4.72,1.25,7.09,3.68,3.28,7.5,6.58,11.23,9.86.68,3.49,1.3,7,1.93,10.51a10.93,10.93,0,0,1,.15,2.81,6.9,6.9,0,0,1-.63,2.3,4.47,4.47,0,0,1-1.21,1.64,3.05,3.05,0,0,1-1.74.73c-1.55.17-3.15.32-4.74.47a3.31,3.31,0,0,1-1.94-.37,5.6,5.6,0,0,1-1.84-1.37,9.44,9.44,0,0,1-1.35-2.13,9.69,9.69,0,0,1-.87-2.76c-.34-1.76-.63-3.55-.92-5.35,1.59-.15,3.14-.27,4.74-.44.29,1.78.58,3.57.92,5.35,1.55-.12,3.14-.27,4.69-.44-.39-2.35-.82-4.72-1.26-7.07ZM75.69,52.16h0a8.51,8.51,0,0,0-.88-2.69,7.27,7.27,0,0,0-1.4-2.15A5.3,5.3,0,0,0,71.62,46a3.47,3.47,0,0,0-1.88-.45c-3.2.25-6.3.47-9.44.69,2.51,14.09,5.13,28.15,7.64,42.18,1.6-.14,3.15-.31,4.75-.46-1.07-5.82-2.18-11.67-3.2-17.51,1.55-.12,3.15-.27,4.7-.42a3,3,0,0,0,1.74-.7,4.79,4.79,0,0,0,1.26-1.64,8.81,8.81,0,0,0,.58-2.3,9.07,9.07,0,0,0-.15-2.76c-.68-3.48-1.31-6.95-1.93-10.42ZM223,53.87h0a8.52,8.52,0,0,1,1.74,2,15.06,15.06,0,0,1,1.06,2.57q1.74,7.05,3.49,14.06c-1.6.17-3.2.32-4.74.44q-1.75-7-3.49-14.11a2.45,2.45,0,0,0-.58-1.07,1.35,1.35,0,0,0-1-.39c-1.21.12-2.42.22-3.58.31l3.92,15.73-4.74.44c-3.1-12.62-6.14-25.26-9.24-37.93,3.15-.2,6.24-.42,9.39-.64a4.3,4.3,0,0,1,1.93.37A7.06,7.06,0,0,1,219,36.9a10.14,10.14,0,0,1,1.5,1.91,10.36,10.36,0,0,1,1,2.44c.59,2.62,1.26,5.21,1.94,7.82a9.94,9.94,0,0,1,.19,2.62,4.74,4.74,0,0,1-.67,2.18Zm-3.87-2.93h0c-.83-3.11-1.6-6.24-2.33-9.37-1.54.12-3.14.24-4.69.34.73,3.16,1.5,6.29,2.27,9.42l4.75-.39ZM211.4,67.78h0l-1.75.15c-1.59.15-3.19.27-4.74.42-.77-3.16-1.55-6.34-2.27-9.54,2.13-.17,4.3-.34,6.48-.54-.53-2.13-1-4.26-1.55-6.41-.58.08-1.21.12-1.79.15-1.55.15-3.14.27-4.69.39-.77-3.15-1.55-6.33-2.27-9.51,2.12-.15,4.3-.29,6.43-.47-.53-2.12-1-4.23-1.5-6.36-.58.08-1.16.1-1.74.13l-4.69.34a3.14,3.14,0,0,0-1.74.59,4.7,4.7,0,0,0-1.17,1.47,5.59,5.59,0,0,0-.48,2.1,9.13,9.13,0,0,0,.19,2.52c.68,2.69,1.31,5.35,1.94,8,1.35,5.87,2.76,11.71,4.16,17.56a8.47,8.47,0,0,0,.92,2.44,7.37,7.37,0,0,0,1.5,1.93,6.16,6.16,0,0,0,1.88,1.23,3.93,3.93,0,0,0,1.89.31q3.27-.28,6.53-.61c-.53-2.1-1.06-4.2-1.54-6.31Zm-17-14.84h0c.54,2.15,1,4.25,1.55,6.41-2.17.19-4.3.34-6.48.53,1.26,5.39,2.52,10.74,3.78,16.1-1.55.17-3.15.31-4.7.43-2.52-10.7-5-21.47-7.5-32.22a9.52,9.52,0,0,1-.19-2.55,7.37,7.37,0,0,1,.48-2.15,4.44,4.44,0,0,1,1.21-1.44,3,3,0,0,1,1.69-.64l4.65-.32c.63-.05,1.21-.07,1.79-.09.53,2.12,1,4.25,1.55,6.4l-6.44.44c.68,3.21,1.45,6.41,2.18,9.61,1.6-.14,3.14-.24,4.69-.37.59,0,1.16-.07,1.74-.14ZM181.35,54h0c-.58.08-1.21.1-1.79.15l-4.69.39c-.78-3.23-1.5-6.46-2.18-9.71,2.13-.15,4.31-.29,6.44-.47-.54-2.17-1-4.3-1.5-6.47l-1.75.12c-1.54.12-3.09.22-4.64.32a3,3,0,0,0-1.69.63,3.57,3.57,0,0,0-1.26,1.5,8.05,8.05,0,0,0-.53,2.15,9,9,0,0,0,.24,2.54c2.37,10.88,4.88,21.76,7.3,32.6l4.75-.44c-1.26-5.43-2.52-10.86-3.68-16.29,2.08-.17,4.26-.32,6.43-.54L181.35,54Zm-15.63-8.63h0c1.89,8.71,3.87,17.41,5.86,26.09a9.88,9.88,0,0,1,.19,2.62,8.91,8.91,0,0,1-.53,2.15A4.87,4.87,0,0,1,170,77.76a3.53,3.53,0,0,1-1.79.68c-1.5.15-3.1.32-4.65.45a3.62,3.62,0,0,1-2-.35,5,5,0,0,1-1.79-1.27,8.06,8.06,0,0,1-1.5-2,12,12,0,0,1-1-2.52q-2.82-13.17-5.66-26.41a6.69,6.69,0,0,1-.19-2.57A5.12,5.12,0,0,1,152,41.6a3.78,3.78,0,0,1,1.16-1.5,2.84,2.84,0,0,1,1.7-.63c1.55-.13,3.09-.22,4.74-.35a4.35,4.35,0,0,1,1.88.39,7.05,7.05,0,0,1,1.84,1.3,8.49,8.49,0,0,1,1.41,2,9.14,9.14,0,0,1,1,2.54Zm1.12,26.53h0q-3-13.1-5.81-26.21c-1.55.14-3.09.24-4.69.36,1.93,8.78,3.87,17.54,5.76,26.29,1.59-.12,3.14-.27,4.74-.44Zm-19.5,1.84h0c.48,2.2.92,4.42,1.4,6.62-3.72.37-7.5.73-11.17,1.08q-4.22-20-8.37-40.18l4.64-.32q3.48,16.73,7,33.41c1.55-.15,3.15-.3,4.7-.47.63,0,1.21-.07,1.79-.14ZM128.28,48.15h0a9.87,9.87,0,0,0-.87-2.57,7.35,7.35,0,0,0-1.5-2.08,5.3,5.3,0,0,0-1.79-1.34,3.67,3.67,0,0,0-1.94-.4c-1.55.12-3.1.22-4.64.32a3.22,3.22,0,0,0-1.7.64,3.52,3.52,0,0,0-1.21,1.56,7.37,7.37,0,0,0-.63,2.25,12.32,12.32,0,0,0,.25,2.64c2.17,11.35,4.5,22.62,6.82,33.89,1.55-.14,3.14-.31,4.69-.44-1.16-5.62-2.32-11.24-3.38-16.87,1.54-.14,3.09-.27,4.69-.39l3.48,16.8c1.55-.15,3.15-.32,4.74-.46-2.32-11.18-4.69-22.33-7-33.55Zm-2.66,10.42h0l-4.7.36c-.67-3.35-1.35-6.72-2-10.07,1.6-.13,3.14-.25,4.7-.35.62,3.35,1.35,6.73,2,10.06Zm-15.05-16h0q4,20.38,8.13,40.71c-1.6.17-3.15.32-4.74.46q-4.06-20.38-8.13-40.86c1.55-.09,3.09-.22,4.74-.31Zm-1.21,29.48h0c-1.65.13-3.19.28-4.74.42.29,1.74.63,3.45,1,5.16l-4.7.44Q98.2,64.39,95.57,50.62l4.69-.34c.34,1.73.68,3.47,1,5.15,1.6-.12,3.14-.22,4.69-.36-.33-1.71-.63-3.43-1-5.16a10,10,0,0,0-.92-2.59,9.38,9.38,0,0,0-1.41-2.13,8.55,8.55,0,0,0-1.79-1.37,3.9,3.9,0,0,0-2-.39c-1.55.12-3.1.22-4.69.32a2.81,2.81,0,0,0-1.7.66A4.17,4.17,0,0,0,91.31,46a5.64,5.64,0,0,0-.53,2.3,8.52,8.52,0,0,0,.1,2.69c1.74,9.22,3.48,18.39,5.32,27.58a7.3,7.3,0,0,0,.92,2.67,7.84,7.84,0,0,0,1.35,2.05,5.35,5.35,0,0,0,1.79,1.32,3.91,3.91,0,0,0,2,.37c1.59-.15,3.14-.3,4.74-.47a2.82,2.82,0,0,0,1.69-.71,4.11,4.11,0,0,0,1.26-1.59,5.54,5.54,0,0,0,.58-2.25,8.48,8.48,0,0,0-.15-2.71q-.57-2.56-1-5.14ZM94,78.76h0c.49,2.3.92,4.6,1.4,6.9-2.17.19-4.35.44-6.53.63a3.89,3.89,0,0,1-2-.36,5.53,5.53,0,0,1-1.79-1.35,9.82,9.82,0,0,1-2.27-4.76c-1.26-6.36-2.42-12.74-3.58-19.13-.58-2.88-1.12-5.79-1.6-8.73a7.76,7.76,0,0,1-.15-2.74A6.42,6.42,0,0,1,78.06,47a4.52,4.52,0,0,1,1.25-1.59A2.94,2.94,0,0,1,81,44.7c1.55-.1,3.09-.2,4.69-.35.58,0,1.16-.07,1.79-.12.39,2.33.87,4.63,1.26,6.92-2.13.18-4.31.35-6.39.49.58,3.45,1.26,6.9,1.94,10.35,1.55-.13,3.14-.25,4.69-.39.53-.05,1.11-.08,1.74-.15.44,2.32.87,4.65,1.36,7-2.18.19-4.31.39-6.48.56.67,3.47,1.35,6.92,2,10.37,1.55-.12,3.14-.29,4.69-.42.58,0,1.16-.09,1.74-.17ZM72.88,62.94h0c-1.55.15-3.1.27-4.69.39-.63-3.47-1.26-7-1.89-10.46,1.55-.1,3.1-.22,4.64-.37C71.57,56,72.25,59.47,72.88,62.94Z" transform="translate(-34.42 -28.52)" fill="#fede0d" fill-rule="evenodd"/><path d="M306.68,196.7h0a6.65,6.65,0,0,0,2.49,5.13,8.1,8.1,0,0,0,5.68,2,7.39,7.39,0,0,0,5.43-2.29,6.63,6.63,0,0,0,2.19-5.28,7,7,0,0,0-2.55-5.14,8,8,0,0,0-5.57-2,8.3,8.3,0,0,0-5.54,2.33,7.16,7.16,0,0,0-2.13,5.3ZM295,197h0a17.13,17.13,0,0,1,5.34-13.1,20.64,20.64,0,0,1,27.68-.76,17.17,17.17,0,0,1,6.22,12.75A16.83,16.83,0,0,1,329,209a19.06,19.06,0,0,1-13.69,5.65,19.74,19.74,0,0,1-14.15-4.92A17.14,17.14,0,0,1,295,197Zm-28.1,19h0q19.39-33.87,38.55-68c2.81,0,5.7-.16,8.57-.24Q295,181.92,275.64,215.72c-2.93.13-5.86.2-8.79.27ZM259,167.76h0a6.57,6.57,0,0,0,2.33,5.11A8.11,8.11,0,0,0,267,174.8a7.94,7.94,0,0,0,5.43-2.3,6.63,6.63,0,0,0,2.18-5.21,7.15,7.15,0,0,0-2.44-5.14,7.75,7.75,0,0,0-5.52-2,8,8,0,0,0-5.53,2.27,7.09,7.09,0,0,0-2.13,5.29Zm-11.68.4h0a16.33,16.33,0,0,0,6,12.58,19.37,19.37,0,0,0,14,4.95A19.73,19.73,0,0,0,281,180a17.42,17.42,0,0,0-.73-25.76,19.17,19.17,0,0,0-13.85-5,19.55,19.55,0,0,0-13.61,5.85,17.06,17.06,0,0,0-5.45,13.08Z" transform="translate(-34.42 -28.52)" fill="#0c2635" fill-rule="evenodd"/><path d="M175.23,285.29c-3.64.2-7-1.33-10-4.58a16.07,16.07,0,0,1-4.71-10.34c-.19-4.37,1-9.32,3.59-15a40.13,40.13,0,0,1,10.37-14.23c4.36-3.73,8.93-5.79,13.86-6.11a27.57,27.57,0,0,1,9.36.82,21.93,21.93,0,0,1,6.92,3.32,12.53,12.53,0,0,1,4.14,4.84,20.49,20.49,0,0,1,1.32,7.13,25.15,25.15,0,0,1-2.18,10.31,38,38,0,0,1-8.19,12,45.36,45.36,0,0,1-10.86,8.66c-3.51,1.85-8.12,2.87-13.6,3.18Zm80.61-47.21h0a46.53,46.53,0,0,0-1.34,7.22,58.66,58.66,0,0,0-.68,10c1.65-.3,3.22-.63,4.93-.92l7.06-1.17a31.5,31.5,0,0,0,4.76-1.26,18.74,18.74,0,0,1,4.25-1c2.67-.17,4,.79,4.2,2.87,0,.4-.29.91-1.06,1.61a6.87,6.87,0,0,1-3,1.5c-1.21.31-4.21.81-9.06,1.65-5.92,1-9.32,1.69-10.45,2.08a3.93,3.93,0,0,0-1.89,1c-.23.37-.3,1.94-.37,4.76s-.07,5,0,6.8c.09,1.32.33,2.7.44,4,.18,2.22-.67,3.39-2.36,3.48a4.59,4.59,0,0,1-3.06-1,3.74,3.74,0,0,1-1.49-2.88c-.32-5,.38-15.6,1.92-31.8.36-3.76.58-5.8.56-6.1a4.87,4.87,0,0,0-.51-1.83A7.06,7.06,0,0,1,248,235a3.19,3.19,0,0,1,1-2,2.69,2.69,0,0,1,1.82-1.13c1.59.1,3,.21,4.58.17a61,61,0,0,0,7.8-1.07,127.41,127.41,0,0,1,13.06-1.79,8.43,8.43,0,0,1,4.52.54c1,.57,1.48,1.2,1.5,1.73a3.87,3.87,0,0,1-.87,2.78,3.12,3.12,0,0,1-2.39,1.2,9,9,0,0,1-1.25,0,37.71,37.71,0,0,0-5.68-.24,86.64,86.64,0,0,0-9.4,1.08c-3.87.62-6.1,1.3-6.8,1.82Zm-35.65,2.48h0c.63-.53,2.95-1.2,6.79-1.82s7-1,9.42-1.15a34.08,34.08,0,0,1,5.74.25,7.44,7.44,0,0,0,1.25,0,3.15,3.15,0,0,0,2.26-1.22,4,4,0,0,0,.94-2.77,2.27,2.27,0,0,0-1.37-1.72,9.74,9.74,0,0,0-4.66-.56,116.76,116.76,0,0,0-13.05,1.8,58.29,58.29,0,0,1-7.82,1.14c-1.45,0-2.9-.18-4.42-.22a3.77,3.77,0,0,0-2.86,3.12,9.52,9.52,0,0,0,.69,2.08,5.77,5.77,0,0,1,.51,1.82c0,.3-.22,2.34-.63,6.1-1.77,16.24-2.51,26.76-2.19,31.76a3.73,3.73,0,0,0,1.48,2.88,4.31,4.31,0,0,0,3,1c1.75-.14,2.61-1.26,2.42-3.49-.1-1.25-.31-2.56-.36-3.94-.07-1.77-.15-4-.05-6.8a23.49,23.49,0,0,1,.38-4.76,3.82,3.82,0,0,1,1.88-1c1.17-.37,4.61-1,10.59-2.06,4.78-.83,7.76-1.31,9-1.67a8.1,8.1,0,0,0,3.06-1.49c.75-.62,1.07-1.2,1.05-1.61-.12-2.06-1.53-3-4.2-2.86a19.32,19.32,0,0,0-4.25,1,33.45,33.45,0,0,1-4.69,1.26c-2.41.41-4.78.8-7.2,1.23-1.72.3-3.21.55-4.86.86a58.38,58.38,0,0,1,.69-10.06c.54-4,1.08-6.41,1.46-7.12Zm-53.41,29.22h0a10.18,10.18,0,0,0,3.39,7.26,9.3,9.3,0,0,0,7.09,2.65c7-.37,13.27-3.74,18.69-10s8.08-12.86,7.68-19.48a10.26,10.26,0,0,0-1.83-5.9,12,12,0,0,0-5.3-3.48,19.81,19.81,0,0,0-8-1.17c-5.12.28-10,3.9-14.9,10.71S166.49,263.63,166.78,269.78Z" transform="translate(-34.42 -28.52)" fill="#0c2635" fill-rule="evenodd"/><path d="M245.19,52.12l12.23,52.39L81.31,131.72c.94-2.14,1.94-4.24,3-6.32l161.54-25L234,49.74Q239.69,50.72,245.19,52.12Z" transform="translate(-34.42 -28.52)" fill="#c88e14" fill-rule="evenodd"/><path d="M241.42,36l3.14,13.47c-3.67-.9-7.39-1.67-11.16-2.28l-3.28-14q4.22.88,8.33,2l.18,0,.17,0,.18.05.17,0,1.23.35.17,0,.17.05.18,0,.17.05.18.06.17.05ZM66,131.22h0l0-.09.14-.48,0-.1c.25-.83.51-1.65.77-2.47Zm0,0c-.29,1-.57,2-.83,3l.83-3Zm12.41.95h0q1.36-3.19,2.88-6.31Z" transform="translate(-34.42 -28.52)" fill="#ccb409" fill-rule="evenodd"/><path d="M78.43,132.17l-12.65,2q1.27-3.18,2.7-6.28l12.83-2Q79.79,129,78.43,132.17Z" transform="translate(-34.42 -28.52)" fill="#ccb409" fill-rule="evenodd"/></svg>