<svg id="Layer_1" data-name="Layer 1" xmlns="http://www.w3.org/2000/svg" viewBox="0 0 581.39 292.1"><line x1="0.71" y1="143.44" x2="0.7" y2="143.44" fill="none" stroke="#fff" stroke-miterlimit="2.61" stroke-width="1.42"/><line x1="0.71" y1="272.08" x2="0.71" y2="143.44" fill="none" stroke="#fff" stroke-miterlimit="2.61" stroke-width="1.42"/><line x1="0.71" y1="143.44" x2="0.7" y2="143.44" fill="none" stroke="#fff" stroke-miterlimit="2.61" stroke-width="1.42"/><line x1="0.71" y1="272.08" x2="0.71" y2="143.44" fill="none" stroke="#fff" stroke-miterlimit="2.61" stroke-width="1.42"/><polygon points="182.6 96.98 245.13 124.03 493.1 97.73 446.53 78.1 182.6 96.98" fill="#865f0f" fill-rule="evenodd"/><polygon points="74.49 115.8 493.05 97.1 513.14 218.36 95.3 292.1 74.49 115.8" fill="#efac06" fill-rule="evenodd"/><polygon points="581.39 74.95 182.92 96.93 166.26 41.7 564.24 0 581.39 74.95" fill="#efac06" fill-rule="evenodd"/><path d="M343.63,226.11c-7.85-6.86-15.9-13.72-23.85-20.63-1.25-7.45-2.7-14.89-3.84-22.34a24.31,24.31,0,0,1-.42-5.9,27.72,27.72,0,0,1,1.41-4.94,10.24,10.24,0,0,1,2.42-3.4,6.74,6.74,0,0,1,3.77-1.45c3.25-.21,6.5-.48,9.75-.75a8.49,8.49,0,0,1,4.07.91,12,12,0,0,1,3.67,3,17,17,0,0,1,3.06,4.57,25,25,0,0,1,1.75,5.69c.71,3.7,1.34,7.45,2.17,11.2-3.36.21-6.61.48-10,.75-.73-3.75-1.45-7.45-2.17-11.19l-9.66.79c.73,4.94,1.66,9.92,2.69,14.9,7.75,6.85,15.8,13.76,23.65,20.63,1.45,7.34,2.79,14.73,4.13,22.08a23.69,23.69,0,0,1,.33,5.9,14.45,14.45,0,0,1-1.31,4.84,9.21,9.21,0,0,1-2.53,3.44,6.29,6.29,0,0,1-3.65,1.55c-3.26.38-6.61.69-10,1a6.86,6.86,0,0,1-4.07-.76,11.53,11.53,0,0,1-3.87-2.86,19.82,19.82,0,0,1-2.86-4.46,20.75,20.75,0,0,1-1.85-5.8c-.72-3.69-1.35-7.44-2-11.24,3.36-.32,6.61-.59,10-1,.63,3.75,1.25,7.5,2,11.24,3.25-.26,6.61-.58,9.86-1-.83-4.93-1.76-9.91-2.69-14.84Zm36.13-48h0a17.63,17.63,0,0,0-1.85-5.65,15.35,15.35,0,0,0-3-4.51,11.34,11.34,0,0,0-3.76-2.86,7.2,7.2,0,0,0-4-.93c-6.71.55-13.21,1-19.81,1.51,5.37,29.57,10.95,59.1,16.33,88.57,3.35-.32,6.6-.69,10-1-2.27-12.23-4.65-24.5-6.83-36.77,3.25-.26,6.61-.58,9.86-.9a6.2,6.2,0,0,0,3.65-1.5,9.9,9.9,0,0,0,2.64-3.45,17.61,17.61,0,0,0,1.2-4.84,19.06,19.06,0,0,0-.32-5.8c-1.45-7.29-2.79-14.59-4.14-21.87Zm309.42,2.62h0a17.35,17.35,0,0,1,3.67,4.2,29.22,29.22,0,0,1,2.25,5.39c2.47,9.85,4.95,19.71,7.42,29.51-3.36.37-6.71.7-10,1q-3.7-14.79-7.41-29.62a5.3,5.3,0,0,0-1.23-2.26,2.88,2.88,0,0,0-2-.81c-2.54.27-5.08.48-7.52.69,2.78,11,5.56,22.07,8.34,33l-10,1c-6.59-26.48-13.07-53-19.66-79.62,6.6-.43,13.11-.91,19.71-1.39a9,9,0,0,1,4.07.75,14.82,14.82,0,0,1,3.87,2.61,21.13,21.13,0,0,1,3.16,4,21.63,21.63,0,0,1,2.15,5.13c1.24,5.49,2.68,10.93,4.12,16.42a20.63,20.63,0,0,1,.42,5.5,9.6,9.6,0,0,1-1.4,4.58ZM681,174.55h0c-1.76-6.52-3.4-13.09-4.94-19.66-3.26.26-6.61.53-9.86.75,1.54,6.63,3.19,13.19,4.84,19.76,3.35-.26,6.6-.53,10-.85ZM665,210h0l-3.66.33c-3.35.31-6.71.58-10,.9-1.64-6.62-3.3-13.3-4.84-20,4.47-.38,9-.75,13.62-1.18-1.14-4.47-2.16-8.94-3.3-13.45-1.22.15-2.54.26-3.76.32-3.25.32-6.6.59-9.86.85-1.64-6.62-3.29-13.3-4.83-20,4.47-.32,9-.65,13.51-1-1.14-4.47-2.06-8.88-3.19-13.35-1.22.16-2.44.22-3.66.28-3.36.26-6.61.48-9.86.74a6.74,6.74,0,0,0-3.65,1.25,9.59,9.59,0,0,0-2.43,3.09,11.92,11.92,0,0,0-1,4.42,19.42,19.42,0,0,0,.43,5.29c1.44,5.64,2.78,11.24,4.12,16.84,2.88,12.32,5.87,24.59,8.85,36.85a18.81,18.81,0,0,0,2,5.14,15.71,15.71,0,0,0,3.17,4.05,12.8,12.8,0,0,0,4,2.55,8.15,8.15,0,0,0,4,.66c4.56-.43,9.14-.85,13.71-1.33-1.13-4.41-2.26-8.83-3.29-13.25ZM629.2,178.92h0c1.13,4.52,2.16,8.93,3.29,13.45-4.57.43-9,.75-13.61,1.18q4,16.94,8,33.78c-3.25.37-6.6.68-9.85.95-5.36-22.48-10.62-45.07-16-67.66a19.65,19.65,0,0,1-.42-5.34,14.94,14.94,0,0,1,1-4.52,9.39,9.39,0,0,1,2.53-3,6.3,6.3,0,0,1,3.56-1.35c3.24-.21,6.6-.48,9.75-.69,1.32-.1,2.54-.16,3.76-.22,1.13,4.47,2.16,8.93,3.3,13.45-4.58.33-9.15.64-13.53,1,1.46,6.73,3.1,13.45,4.65,20.17,3.35-.31,6.6-.53,9.85-.8,1.22-.1,2.44-.16,3.66-.32Zm-27.43,2.3h0c-1.23.16-2.54.21-3.76.32-3.26.27-6.61.58-9.86.85q-2.48-10.15-4.64-20.38c4.47-.32,9-.65,13.52-1-1.14-4.56-2.17-9-3.2-13.6-1.21.1-2.54.21-3.66.27-3.25.26-6.5.48-9.75.69a6.36,6.36,0,0,0-3.55,1.35,7.52,7.52,0,0,0-2.64,3.15,17.4,17.4,0,0,0-1.1,4.52,19.57,19.57,0,0,0,.52,5.34c5.05,22.85,10.41,45.68,15.56,68.44,3.36-.32,6.61-.65,10-1-2.68-11.4-5.37-22.8-7.84-34.2,4.37-.37,8.95-.69,13.52-1.16-1-4.52-2.06-9-3.09-13.61Zm-32.89-18h0c4,18.28,8.24,36.55,12.47,54.78a20.41,20.41,0,0,1,.42,5.49,18.79,18.79,0,0,1-1.1,4.53,10.44,10.44,0,0,1-2.53,3.24,7.61,7.61,0,0,1-3.76,1.45c-3.15.32-6.5.69-9.75,1a7.75,7.75,0,0,1-4.17-.71,10.48,10.48,0,0,1-3.77-2.66,16.44,16.44,0,0,1-3.17-4.15,24.12,24.12,0,0,1-2-5.29q-6-27.65-12.07-55.44A14,14,0,0,1,539,160a10.81,10.81,0,0,1,1.11-4.62,7.83,7.83,0,0,1,2.43-3.14,5.89,5.89,0,0,1,3.55-1.35c3.25-.27,6.51-.48,10-.76a8.94,8.94,0,0,1,4,.82,14.05,14.05,0,0,1,3.87,2.71,17.56,17.56,0,0,1,3,4.2,19.16,19.16,0,0,1,2.06,5.34Zm2.51,55.73h0q-6.35-27.49-12.37-55c-3.25.31-6.5.53-9.86.8q6.2,27.65,12.27,55.19c3.35-.27,6.61-.59,10-1Zm-40.95,4h0c1,4.63,2,9.29,3,13.91-7.82.8-15.75,1.6-23.47,2.34q-9-42-17.85-84.35c3.25-.22,6.5-.49,9.75-.7q7.44,35.11,15,70.13c3.26-.32,6.61-.63,9.86-1,1.32-.06,2.54-.17,3.76-.33Zm-40.22-53.61h0a20.21,20.21,0,0,0-1.84-5.39,15.45,15.45,0,0,0-3.17-4.35,11,11,0,0,0-3.77-2.82,7.51,7.51,0,0,0-4.06-.8c-3.26.26-6.51.48-9.76.69a6.67,6.67,0,0,0-3.55,1.35,7.4,7.4,0,0,0-2.54,3.29,15,15,0,0,0-1.3,4.74,26.54,26.54,0,0,0,.52,5.54c4.65,23.82,9.61,47.49,14.56,71.16,3.25-.32,6.61-.68,9.86-1-2.48-11.8-5-23.62-7.23-35.42,3.25-.32,6.5-.59,9.85-.85q3.73,17.63,7.43,35.27c3.26-.32,6.61-.69,10-1-4.95-23.46-10-46.87-15-70.44ZM484.7,191.2h0l-9.85.8c-1.45-7-2.89-14.13-4.34-21.16,3.35-.27,6.61-.54,9.86-.75,1.34,7,2.89,14.12,4.33,21.11ZM453,157.74h0q8.52,42.82,17.34,85.49c-3.36.37-6.61.69-10,1q-8.65-42.81-17.34-85.78c3.25-.22,6.5-.49,10-.71Zm-2.35,62h0c-3.45.27-6.71.59-10,.91.62,3.64,1.35,7.23,2.07,10.83l-9.86,1q-5.73-28.8-11.36-57.7c3.25-.27,6.5-.49,9.86-.75.72,3.65,1.44,7.29,2.17,10.82,3.35-.26,6.6-.48,9.85-.79-.72-3.6-1.34-7.2-2.06-10.83a20.09,20.09,0,0,0-2-5.44,19.59,19.59,0,0,0-2.95-4.47,18.09,18.09,0,0,0-3.78-2.86,8.13,8.13,0,0,0-4.16-.8c-3.26.26-6.51.47-9.86.69a6,6,0,0,0-3.56,1.4,8.63,8.63,0,0,0-2.52,3.29,11.89,11.89,0,0,0-1.11,4.84,17.87,17.87,0,0,0,.22,5.65c3.72,19.35,7.44,38.61,11.37,57.91A14.83,14.83,0,0,0,425,239a16.67,16.67,0,0,0,2.85,4.3,11.15,11.15,0,0,0,3.77,2.76,8.14,8.14,0,0,0,4.17.76c3.35-.31,6.6-.64,10-1a6.09,6.09,0,0,0,3.56-1.5,8.89,8.89,0,0,0,2.62-3.34,11.85,11.85,0,0,0,1.22-4.74,18.79,18.79,0,0,0-.33-5.7q-1.24-5.38-2.17-10.78Zm-32.18,14.13h0c1,4.83,2,9.65,3,14.47-4.58.43-9.15,1-13.72,1.38a8,8,0,0,1-4.17-.75,11.59,11.59,0,0,1-3.77-2.82,20.85,20.85,0,0,1-3-4.4,21.3,21.3,0,0,1-1.85-5.6c-2.68-13.35-5.17-26.75-7.65-40.15q-1.86-9.09-3.42-18.33a15.9,15.9,0,0,1-.31-5.75,13.23,13.23,0,0,1,1.1-4.78,9.4,9.4,0,0,1,2.63-3.35,6.05,6.05,0,0,1,3.55-1.4c3.26-.22,6.51-.43,9.86-.76,1.22,0,2.44-.16,3.76-.26.83,4.88,1.86,9.71,2.69,14.53-4.47.37-9.05.75-13.41,1.07,1.24,7.24,2.68,14.48,4.14,21.72,3.25-.27,6.6-.53,9.85-.85,1.11-.11,2.34-.16,3.66-.32.93,4.87,1.86,9.75,2.89,14.63-4.57.42-9.05.85-13.62,1.22,1.45,7.29,2.89,14.54,4.24,21.77,3.25-.27,6.6-.64,9.86-.9,1.21-.11,2.43-.21,3.65-.37Zm-44.52-33.1h0c-3.25.32-6.5.59-9.86.85q-2-10.93-4-22c3.25-.21,6.5-.48,9.75-.79C371.15,186.16,372.6,193.45,373.94,200.74Z" transform="translate(-211.17 -21.9)" fill="#0c2635" fill-rule="evenodd"/><path d="M483.24,85.33a12.1,12.1,0,0,1-.87,7.27,14.12,14.12,0,0,1-5.14,5.69q-6.18,4.17-15.9,4.81c-2.16.14-5.19.19-9.18.19-1.16-4-2.62-8.83-4.31-14.67S444.2,76,442,68.29a68.75,68.75,0,0,1,10.46-1.66A31.24,31.24,0,0,1,472,71.11a26.91,26.91,0,0,1,7.76,6.49,17.24,17.24,0,0,1,3.53,7.73ZM731,50h0l-13.12,3c.83,6.11,1.69,12.22,2.5,18.32S722,83.51,722.9,89.63l-7.78.94c-.83-6-1.7-12-2.51-17.93s-1.66-12-2.49-17.91c-3.73.84-7.46,1.69-11.19,2.52-.55-2.78-1.07-5.54-1.59-8.31,10.63-2.47,21.33-5,32-7.52.55,2.85,1.08,5.7,1.63,8.55ZM702.81,91.31h0c-.88-8.72-1.87-16.69-2.9-23.89s-2.23-13.64-3.45-19.31L688.78,50c.84,4.1,1.67,8.45,2.43,13s1.52,9.44,2.23,14.53q-5.62-6.94-8.73-10.7c-2.05-2.5-3.21-4-3.56-4.42a132.3,132.3,0,0,1-8.91-13.15c-1.54.21-4.47.54-8.74,1,.14,2,.29,4,.47,5.81a197.14,197.14,0,0,0,3,20.26,126.87,126.87,0,0,0,4.66,17.15L679,91A122.57,122.57,0,0,1,675,77.64a113.32,113.32,0,0,1-2.26-13.1c1.18,1.66,2.77,3.68,4.69,6.12s4.19,5.24,6.82,8.45,4.84,6.07,6.74,8.54,3.45,4.57,4.66,6.27l7.13-2.61ZM667.05,80.13h0c.69,6.93-1.09,11.09-5.23,12.48-3.29,1.1-8.36,1.88-15.23,2.3-6.17.37-10.43-.41-12.81-2.36s-3.92-6-4.59-12.24c-.24-2.22-.38-5-.4-8.38s.07-7.32.3-11.86c.09-1.77.14-4.37.24-7.84l7.82-.59a85.17,85.17,0,0,1-.11,8.8c-.14,3.63-.3,7.29-.42,11a80.27,80.27,0,0,0,.24,10.86c.21,2.07.64,3.31,1.2,3.76,1.07.86,3.43,1.19,7.16.93.67,0,1.3-.12,1.86-.2s.89-.13,1.39-.17c.87-.08,2.73-.29,5.66-.75,3.13-.49,4.8-.82,4.92-1,.41-.64.5-2,.3-4A66.63,66.63,0,0,0,658.19,74c-.52-2.52-1.24-5.3-2.12-8.32-1.29-4.48-2.36-7.94-3.08-10.39s-1.12-3.91-1.23-4.36l7.75-1.82c.12.78.77,3.09,2,7,1.62,5.36,2.86,10.06,3.78,14.06a84.13,84.13,0,0,1,1.81,10Zm-39-13.94h0a24.14,24.14,0,0,1-1,10.06,23.56,23.56,0,0,1-5.1,8.66,25.56,25.56,0,0,1-17.91,8.58,20.58,20.58,0,0,1-15.47-5.21A21.69,21.69,0,0,1,583.54,82a23.3,23.3,0,0,1-2.39-7.89,20.84,20.84,0,0,1,.85-9.28,25.19,25.19,0,0,1,5.1-8.58,26.59,26.59,0,0,1,17.5-9.45,19.91,19.91,0,0,1,15.71,4.67A21.56,21.56,0,0,1,625.59,58a22.85,22.85,0,0,1,2.47,8.21Zm-7.88.77h0a14.3,14.3,0,0,0-4.76-9.48,12.51,12.51,0,0,0-9.95-3A18.3,18.3,0,0,0,593.42,61c-3.49,3.94-4.95,8.09-4.42,12.43a14.15,14.15,0,0,0,4.64,9.31,12.77,12.77,0,0,0,9.81,3,18.13,18.13,0,0,0,12.41-6A15.47,15.47,0,0,0,620.18,67ZM587.71,91.67h0c-1.18-2.33-2.35-4.65-3.47-7-6,2.52-11.16,3.94-15.32,4.23-8.37.61-13.91-2.88-16.7-10.43a10.68,10.68,0,0,1-.59-2.32,10.45,10.45,0,0,1,3-8.91,13.92,13.92,0,0,1,9.09-4.57,14.81,14.81,0,0,1,10.77,3.16l5-5.73a22.71,22.71,0,0,0-31,2.47,18.17,18.17,0,0,0-4,6.75,17.23,17.23,0,0,0-.57,7.57,21.11,21.11,0,0,0,1.1,4.36c-2.27-1.24-5.47-1.88-9.6-1.9-.09,0-4,.18-11.7.68-4,.26-6.36-.1-7.16-1.1a.77.77,0,0,1-.17-.43c-.07-.57.39-1.42,1.42-2.45q6.52-6.6,20.1-7.9c1.48-.14,2.93-.21,4.31-.22-.08-2.42-.12-4.83-.19-7.25-1.83,0-3.67.13-5.5.32a46.85,46.85,0,0,0-12.76,3,41.88,41.88,0,0,0-10.7,6.09c-3.78,3.08-5.4,6.25-4.89,9.54q1.36,8.63,19.29,7.23c3.87-.3,6.31-.43,7.39-.44,4.12,0,6.24.55,6.4,1.69a2.11,2.11,0,0,1-.53,1.28c-1.33,2-3.84,3.75-7.48,5.29a38.3,38.3,0,0,1-9.38,2.59c.56,2.32,1.15,4.64,1.74,7a39.17,39.17,0,0,0,13.46-4.06,25,25,0,0,0,8.17-6.32,9.54,9.54,0,0,0,2.18-5.25c.25.3.5.59.77.87,4.52,5,11,7.23,19.35,6.69a59.85,59.85,0,0,0,18.11-4.56Zm-73.32,7.79h0c-.59-2.29-1.21-4.58-1.83-6.87l-9,1.47c-.2-.74-.3-1.28-.39-1.65-1.17-4.79-2.13-8.36-2.8-10.73-1-3.44-1.89-7.1-2.81-11L506.93,69c-.62-2.3-1.15-4.6-1.71-6.9-8.54,1.56-17.09,3.1-25.57,4.62.61,2.24,1.2,4.48,1.85,6.72l8.31-1.56c1,3.85,1.93,7.43,2.74,10.77.11.43.6,2.26,1.54,5.47a47.15,47.15,0,0,1,1.33,5.49,6.64,6.64,0,0,0,.42,1.58c-2,.33-3.94.64-5.91,1,.58,2.23,1.2,4.45,1.81,6.66,7.51-1.1,15.08-2.22,22.65-3.35Zm-39-13.41h0c-.68-4-3.53-7.28-8.48-9.88a24,24,0,0,0-14.15-2.85l-.79.08,3.5,12.8c1.06,3.88,2.06,7.37,3,10.47l1.45-.11A26.77,26.77,0,0,0,470.7,94C474.39,92.14,476,89.45,475.39,86.05Z" transform="translate(-211.17 -21.9)" fill="#0c2635" fill-rule="evenodd"/></svg>