<svg id="Layer_1" data-name="Layer 1" xmlns="http://www.w3.org/2000/svg" viewBox="0 0 1012.85 274.26"><polygon points="765.29 55.01 1005.68 0 962.73 73.04 1012.85 133.05 772.46 188.06 765.29 55.01" fill="#c88e14" fill-rule="evenodd"/><polygon points="914.49 80.8 764.81 54.94 766.62 89.5 914.49 80.8" fill="#865f0f" fill-rule="evenodd"/><polygon points="244.05 82.32 0 69.26 50.38 134.21 7.17 202.31 251.22 215.37 244.05 82.32" fill="#c88e14" fill-rule="evenodd"/><polygon points="98.49 123.97 244.52 82.2 246.84 117.94 98.49 123.97" fill="#865f0f" fill-rule="evenodd"/><rect x="122.3" y="113.61" width="815.51" height="150.33" transform="translate(-29.53 17.28) rotate(-3.08)" fill="#efac06"/><path d="M233.51,236.11a22.06,22.06,0,0,1,4.08.09c1.31.15,2.58.35,3.81.61s2.62.46,3.94.67a18.73,18.73,0,0,0,3.76.21q6.21-.36,9.28-3.89c2.05-2.35,3-5.45,2.75-9.36a20.54,20.54,0,0,0-1.63-7.11,30.32,30.32,0,0,0-3.51-6,44.58,44.58,0,0,0-4.79-5.38c-1.8-1.69-3.65-3.34-5.61-5q-3.24-2.76-6.35-5.6a46.67,46.67,0,0,1-5.65-6.31,33.14,33.14,0,0,1-4.26-7.6,28.43,28.43,0,0,1-2-9.39,29.08,29.08,0,0,1,1.92-12.66,27.54,27.54,0,0,1,6.48-9.76,30.92,30.92,0,0,1,9.84-6.44,36.42,36.42,0,0,1,12-2.71l4.56-.25a19.2,19.2,0,0,1,5.57.42c1.78.39,2.72,1.6,2.84,3.67l0,2.78a10.43,10.43,0,0,1-.21,2c-.16,1.06-.37,2.21-.63,3.48s-.47,2.49-.67,3.64-.38,1.95-.45,2.38a74.18,74.18,0,0,0-7.94,1.26,31,31,0,0,0-7.62,2.63,15.5,15.5,0,0,0-5.55,4.64,11.2,11.2,0,0,0-1.86,7.46l.06,1a26.08,26.08,0,0,0,.44,3.83,6.59,6.59,0,0,0,2.23,3.39l2.57,2c3.4,2.65,6.87,5.42,10.36,8.34a85.58,85.58,0,0,1,9.57,9.36,49.51,49.51,0,0,1,7.23,10.86,32.94,32.94,0,0,1,3.23,12.76,29.14,29.14,0,0,1-1.74,12.42,25.65,25.65,0,0,1-6.11,9.25A28,28,0,0,1,264,253.7a39.54,39.54,0,0,1-11.88,2.44q-10.28.57-15.29-3.22c-3.35-2.54-5.21-7.15-5.58-13.75l-.17-2.93,2.45-.13Zm559.88-99h0l-1.95.25,2,36.67a18.61,18.61,0,0,0,8.12-2.32,22.83,22.83,0,0,0,6.4-5.35,25.59,25.59,0,0,0,4.18-7.26,20.36,20.36,0,0,0,1.28-8.07c0-.44-.09-1.06-.2-1.87s-.21-1.68-.3-2.61-.21-1.79-.32-2.6-.15-1.39-.16-1.72v.33a11.14,11.14,0,0,0-7.32-5.05,33.5,33.5,0,0,0-8.85-.73l-1.3.06c-1,.06-1.52.13-1.63.27Zm-15,57.38h0c-.08-1.74-.22-4.49-.37-8.24s-.3-8-.48-12.81-.3-9.82-.41-15.1-.3-10.29-.44-15.08-.25-9-.29-12.81-.07-6.51-.06-8.25a9.13,9.13,0,0,1,6-4.68,46.14,46.14,0,0,1,7.78-1.17l2.77-.14a48.81,48.81,0,0,1,14,1.17,32.78,32.78,0,0,1,11.91,5.4,28.35,28.35,0,0,1,8.38,9.65,33.19,33.19,0,0,1,3.66,14.19,32.5,32.5,0,0,1-1.18,11.18,41.51,41.51,0,0,1-4.27,9.72,56.24,56.24,0,0,1-6.48,8.61c-2.46,2.69-5,5.32-7.58,7.86l.12,2L814,190c.5,1.05,1.56,2.92,3.25,5.62s3.55,5.53,5.61,8.51,4.07,5.75,5.94,8.34a36.78,36.78,0,0,0,4.05,4.91,11.25,11.25,0,0,1-5.56,5.86,19.1,19.1,0,0,1-7.72,2.23,16,16,0,0,1-2.7,0,3.54,3.54,0,0,1-1.48-1.39L798,193.85l-2.45.13,1.79,32.1c.06,1.31-.7,2.17-2.32,2.58a22.53,22.53,0,0,1-4.69.75l-2.45.16-2.27.28a8.51,8.51,0,0,1-3.28-.47,3,3,0,0,1-2.09-2.33l-1.83-32.59Zm-52-71.69h0c.72-.14,1.49-.27,2.25-.37a17,17,0,0,0,2-.33c2.7-.5,5.17-.9,7.45-1.24s4.41-.65,6.47-.94,4.15-.51,6.27-.66,4.46-.33,7.07-.49c.54,0,1.38,0,2.53,0s2,0,2.73.07l.78,0,2.61,2.46.9,16.47-25.72,1.43,1.39,25.41,19.41-1.06,1,18.4-17.09.93,1.72,30.8,19.38-1.06.89,16.29L729.93,231l-3-53.12q-.81-14.35-.9-28.08t-.17-26.46l.48-.53ZM681.69,231h0l14.66-.65-.63-17.3-.93-25.6,18.89-1.05-1-18.4-17.12.94-1.69-30.63,20.86-1,.37-16.67-41.2,2.45,2.56,46.27c.1,1.51.2,3.15.36,4.88s.33,3.48.52,5.19.42,3.72.56,5.62.3,3.78.39,5.62l.86,15.3c.28,4.9.62,9.41,1,13.51s.73,7.82,1,11.07l.54.46Zm-49.91,2.42h0l14.65-.65-.62-17.29-.93-25.6,18.89-1.05-1-18.4-17.13.94L644,140.72l20.86-1,.38-16.68L624,125.49l2.56,46.27c.1,1.52.2,3.15.37,4.89s.32,3.47.51,5.19.41,3.71.56,5.61.3,3.78.39,5.63l.85,15.3q.43,7.34,1,13.51c.4,4.12.73,7.81,1,11.07l.54.45Zm-48.61-17.83h0c.14.44,1.63.88,4.51,1.39,4.14-1.44,7.65-4.4,10.45-8.93H598a52.08,52.08,0,0,0,5-14.75,72,72,0,0,0,.75-16.11c-.13-2.29-.42-5.35-.83-9.21a55.6,55.6,0,0,0-2.62-11.54c-1-2.78-2-4.63-3-5.55a4.46,4.46,0,0,0-3.42-1.28,5.25,5.25,0,0,0-1.94.28,16,16,0,0,0-2.56,1,7.92,7.92,0,0,0-2.14,1.59,24,24,0,0,0-2.11,2.65q-1.14,1.63-2.63,4.17a34.7,34.7,0,0,0-4.33,12.17,70.5,70.5,0,0,0-.81,16c.13,2.39.44,5.46.91,9.2a72,72,0,0,0,2.52,11.55c.38.94.7,1.77,1,2.48s.51,1.39.78,2.15a6.47,6.47,0,0,0,.57,1.94l.06.81ZM563,187.27h0a106.38,106.38,0,0,1,.8-20.48A66.73,66.73,0,0,1,569.11,148c1.38-2.9,2.61-5.41,3.77-7.54a55,55,0,0,1,3.21-5.41q3.18-4.11,11-7.32l1.47-.07A18.4,18.4,0,0,1,602,131.76a34.36,34.36,0,0,1,8.84,11.59,63.32,63.32,0,0,1,5,15.59,121.21,121.21,0,0,1,2,16l.13,2.6a111.85,111.85,0,0,1-.65,20.39A65.6,65.6,0,0,1,612,217.08c-1.38,2.91-2.58,5.45-3.65,7.63a39.5,39.5,0,0,1-3.37,5.67,23.9,23.9,0,0,1-3.79,4.06,21.92,21.92,0,0,1-5.06,3q-10.27.57-16.57-4.22a32,32,0,0,1-9.84-12.36,60.55,60.55,0,0,1-4.93-16.65,164,164,0,0,1-1.83-16.9Zm-80.64-35.08h0l-2,.24,2,36.68a18.89,18.89,0,0,0,8.13-2.32,23,23,0,0,0,6.39-5.35,25.62,25.62,0,0,0,4.19-7.26,20.25,20.25,0,0,0,1.27-8.08c0-.43-.08-1-.19-1.87s-.22-1.69-.3-2.6-.22-1.79-.33-2.61-.15-1.38-.16-1.71v.33a11.16,11.16,0,0,0-7.32-5.06,33.46,33.46,0,0,0-8.84-.73l-1.31.07c-1,.06-1.52.13-1.62.27Zm-15,57.37h0c-.09-1.74-.23-4.48-.37-8.24s-.31-8-.48-12.81-.31-9.81-.42-15.09-.29-10.29-.44-15.08-.25-9.06-.29-12.81-.06-6.51-.07-8.26a9.21,9.21,0,0,1,6-4.67,44.34,44.34,0,0,1,7.78-1.17l2.77-.14a48.15,48.15,0,0,1,14,1.17,32.74,32.74,0,0,1,11.9,5.4,28.37,28.37,0,0,1,8.39,9.65,33.26,33.26,0,0,1,3.65,14.19,32.68,32.68,0,0,1-1.18,11.17,40.75,40.75,0,0,1-4.27,9.72,55.12,55.12,0,0,1-6.48,8.61q-3.67,4.05-7.58,7.87l.12,2,2.53,4.11a61,61,0,0,0,3.25,5.62c1.66,2.67,3.54,5.53,5.6,8.52s4.07,5.75,5.95,8.34a35,35,0,0,0,4,4.9,11.34,11.34,0,0,1-5.57,5.88,19.19,19.19,0,0,1-7.71,2.22,15.94,15.94,0,0,1-2.7,0c-.39-.1-.89-.57-1.49-1.4L487,209l-2.45.13,1.79,32.1c.07,1.3-.69,2.17-2.32,2.58a21.77,21.77,0,0,1-4.68.74l-2.45.16-2.28.29a8.73,8.73,0,0,1-3.28-.47,3,3,0,0,1-2.09-2.33l-1.82-32.6Zm-52.06-71.68h0c.73-.13,1.49-.27,2.25-.37a14.93,14.93,0,0,0,1.95-.34c2.7-.49,5.17-.9,7.45-1.23s4.42-.66,6.48-.94,4.15-.51,6.27-.66,4.45-.33,7.06-.49c.55,0,1.39,0,2.53,0a26.11,26.11,0,0,1,2.73.08l.78,0,2.62,2.45.89,16.48-25.72,1.42L432,179.62l19.41-1.07,1,18.41-17.1.94L437,228.7l19.38-1.07.89,16.28-38.44,2.15-2.95-53.12q-.82-14.34-.91-28.08t-.16-26.45l.47-.53Zm-47.68,22.48h0l1.89,33.57a19.91,19.91,0,0,0,8.13-2.15,21.72,21.72,0,0,0,6.4-4.95,22.28,22.28,0,0,0,4.21-6.69,17,17,0,0,0,1.32-7.42c0-.43-.08-1.06-.2-1.87s-.21-1.66-.37-2.52a4.93,4.93,0,0,1-.28-1.93l-.07-1.3a12.58,12.58,0,0,0-7.35-4.43,34.32,34.32,0,0,0-8.8-.73c-.21,0-.62.07-1.21.14s-1.17.15-1.71.19l-2,.09Zm-13.15,54.51h0c-.08-1.63-.21-4.23-.35-7.83s-.29-7.66-.44-12.23-.26-9.37-.39-14.42-.25-9.85-.39-14.37-.24-8.57-.27-12.17,0-6.2,0-7.84a8.73,8.73,0,0,1,4.9-4.29,28.9,28.9,0,0,1,6.42-1.07l5.19-.3a50.2,50.2,0,0,1,14,1.09,33.3,33.3,0,0,1,11.9,5.16,28.17,28.17,0,0,1,8.37,9.25,30.65,30.65,0,0,1,3.61,13.45,31.52,31.52,0,0,1-5.59,20.07,59.8,59.8,0,0,1-5,6.5,57.36,57.36,0,0,1-5.77,5.55,67.45,67.45,0,0,1-7.05,5.15c-2.62,1.65-5.64,3.41-9,5.23l-3,2.46,1.69,30.8c.1,1.28-.69,2.15-2.29,2.58a27.07,27.07,0,0,1-4.71.75l-2.45.13-2.25.28a8.94,8.94,0,0,1-3.31-.47,3.05,3.05,0,0,1-2.09-2.33l-1.73-31.13Zm-70.85-71.05h0c.44,7.8.76,14.62,1,20.44s.39,11,.54,15.59l.76,14.16a123.93,123.93,0,0,0,2.86,20.2,64.37,64.37,0,0,0,7.3,18.48A58.64,58.64,0,0,0,304.47,245a24.11,24.11,0,0,0,9.82,6.18,42.25,42.25,0,0,0,16.62-4.2A23.67,23.67,0,0,0,336.5,242a21.46,21.46,0,0,0,3.88-6.74c2.14-4.91,3.65-13.89,4.55-26.88L344,141.58l-19.28,0q2.38,72.75.49,79.55c-1.23,3.57-2.25,5.78-3.06,6.71-.4.47-1.8,1-4.15,1.7-3.09-.47-5.77-2.83-8.09-7.07a45.39,45.39,0,0,1-4.92-14,124.9,124.9,0,0,1-1.76-15.17c-.17-3-.3-6.42-.39-10.12s-.2-7.56-.34-11.58q0-6.87-.35-14.05c-.23-4.78-.45-9.27-.67-13.51Z" transform="translate(-20.15 -11.5)" fill="#0c2635" fill-rule="evenodd"/></svg>