<svg id="Layer_1" data-name="Layer 1" xmlns="http://www.w3.org/2000/svg" viewBox="0 0 731.21 303.27"><polygon points="1.15 160.83 384.57 0 359.06 73.69 413.72 100.58 42.35 302.93 1.15 160.83" fill="#c88e14" fill-rule="evenodd"/><polygon points="690.02 46.01 0 161.16 41.19 303.27 731.21 188.12 690.02 46.01" fill="#efac06" fill-rule="evenodd"/><path d="M226.9,282.92,216.3,213l50.2-7.61,2.2,14.49-32.4,4.91,2.2,14.49L266.61,235l2.2,14.49-28.12,4.26,4,26.46-17.8,2.7Zm236-35.76h0l-10.6-69.93,18-2.73,8.3,54.76,33.85-5.13,2.3,15.17-51.85,7.86Zm-54-19.78h0l15.28-2.31L412.7,202.15l-3.85,25.23ZM400.72,185h0l-14.58,73.75L404.72,256l2-13.44L430.14,239l6.21,12.19,19.24-2.92-35.3-66.18-19.57,3Zm-82.2,84h0l-10.6-69.94,19.36-2.93,16.68,21q4.08,5.12,7.81,10.19c2.48,3.37,4.87,6.73,7.11,10-1.06-5.24-2-10.15-2.82-14.76s-1.51-8.66-2-12.17l-2.72-17.9,17.32-2.63,10.6,69.94-19.35,2.93-17.31-21.55c-2-2.55-4.26-5.41-6.69-8.6s-5-6.62-7.73-10.31q1.55,6.76,2.67,12.62t1.83,10.41l3.19,21.07L318.52,269Zm-32,4.84h0L275.92,204l17.9-2.71,10.6,69.93Z" transform="translate(-176.89 -28.73)" fill="#0c2635" fill-rule="evenodd"/><path d="M540.42,212.31l21.05-2.53c1.32,5.29,3.62,9.12,6.86,11.49s7.47,3.27,12.57,2.67c4.38-.5,7.6-1.68,9.71-3.61a7.45,7.45,0,0,0,2.35-7.27,9.72,9.72,0,0,0-1.61-3.91,6.8,6.8,0,0,0-2.93-2.37c-1.75-.73-5.94-1.75-12.53-3s-12.34-2.5-17-3.8a39.85,39.85,0,0,1-16.66-8.67,28.24,28.24,0,0,1-8.59-14.45c-2.15-8.8-.65-16.23,4.65-22.32S552,144.55,563.3,143c11.08-1.56,20.36,0,27.76,4.73s11.75,11.91,13.28,21.5L583,172c-1.29-4.31-3.37-7.35-6.21-9.1s-6.64-2.3-11.3-1.66c-3.73.5-6.57,1.7-8.56,3.6a6.51,6.51,0,0,0-2.2,6.48c.92,4.1,7.16,7.29,18.8,9.56,2.07.4,3.7.71,4.8,1l.93.19c11.83,2.45,19.35,4.68,22.51,6.74a25.49,25.49,0,0,1,7.77,8,29.17,29.17,0,0,1,3.91,11c1.49,9.45-.55,17.2-6,23.18s-13.73,9.51-25.05,10.75c-10.69,1.17-19.49-.71-26.37-5.57a35.21,35.21,0,0,1-9.13-9.58,55.91,55.91,0,0,1-6.39-14.26Zm242,4.64h0q.89-25.62,1.81-51.24T786,114.45q34.85-4.87,69.71-9.76-1.1,10.78-2.16,21.54l-45.31,6.09q-.51,9.13-1.07,18.27l40.62-5.26c-.71,7-1.39,14-2.08,21.06L806,171.31q-.62,11.07-1.29,22.16l43.92-5.15q-1.1,10.77-2.2,21.54l-64,7.09Zm-69.87,7.72h0q-1-24.82-2.1-49.66c-.72-16.55-1.37-33.12-2.08-49.68q11.8-1.65,23.59-3.3c.24,13.08.48,26.2.72,39.28s.47,26.17.72,39.26q20.37-2.4,40.88-4.8c-.2,7.38-.41,14.75-.58,22.15l-61.15,6.75Zm-63-31.28h0c6.26-.78,12.51-1.53,18.81-2.32q-3.23-8.1-6.44-16.16c-2.14-5.37-4.33-10.75-6.53-16.12q-1.59,8.7-3,17.34c-1,5.76-1.92,11.52-2.81,17.26Zm-8.8-58.58h0q12.84-1.83,25.67-3.59c6.71,15.55,13.32,31.15,19.57,46.86s12.16,31.64,18,47.54c-7.59.84-15.13,1.68-22.68,2.5-2.19-5.78-4.35-11.58-6.57-17.37q-14.07,1.63-28.1,3.29c-.92,6.08-1.81,12.15-2.63,18.21l-21.92,2.43c2.63-16.45,5.41-33,8.49-49.61S637.16,151.63,640.72,134.81Z" transform="translate(-176.89 -28.73)" fill="#0c2635" fill-rule="evenodd"/></svg>