<svg id="Layer_1" data-name="Layer 1" xmlns="http://www.w3.org/2000/svg" viewBox="0 0 1030.16 230.21"><path d="M216.87,275.35h-192L75.12,193.3l-50.28-82H235.63v139C235.21,264.9,228.57,272.88,216.87,275.35Z" transform="translate(-24.84 -45.13)" fill="#c88e14" fill-rule="evenodd"/><path d="M863,275.35h192l-50.28-82.05,50.28-82H844.2v139C844.63,264.9,851.26,272.88,863,275.35Z" transform="translate(-24.84 -45.13)" fill="#c88e14" fill-rule="evenodd"/><path d="M206.15,275.34a12.61,12.61,0,0,1-1.46-.55c4.73,2.19,43.2-13.4,16.34-22.24-31.45-11.87-91.38-26.78-98.62-37.79-2.7-4.09-3.29-7.88-2.89-13.93,37.77.82,78.22,0,116.11.72v48.7c-.42,14.65-7.06,22.63-18.76,25.09Z" transform="translate(-24.84 -45.13)" fill="#865f0f" fill-rule="evenodd"/><polygon points="935.61 0 935.63 0.85 935.63 157.49 93.13 157.49 93.13 0.85 93.15 0 935.61 0" fill="#efac06" fill-rule="evenodd"/><path d="M873.68,275.34a13.51,13.51,0,0,0,1.47-.55c-4.73,2.19-43.21-13.4-16.34-22.24,31.45-11.87,91.38-26.78,98.61-37.79,2.7-4.09,3.3-7.88,2.9-13.93-37.77.82-78.23,0-116.12.72v48.7c.42,14.65,7.06,22.63,18.77,25.09Z" transform="translate(-24.84 -45.13)" fill="#865f0f" fill-rule="evenodd"/><path d="M214.06,173.79V64.71h21.46a90.54,90.54,0,0,1,14.14.94,23.5,23.5,0,0,1,10.6,4.43,25.16,25.16,0,0,1,7.3,8.29,32.37,32.37,0,0,1,3.71,11c.1,1.4.16,2.45.16,3.13a23.22,23.22,0,0,1-17.09,23.39,29.26,29.26,0,0,1,12,4.71,22.17,22.17,0,0,1,7.55,8.85,28.48,28.48,0,0,1,2.57,12.35c0,.61,0,1.6-.15,3a30.48,30.48,0,0,1-3.61,13.63,27.66,27.66,0,0,1-9.49,10.24,27.24,27.24,0,0,1-7.29,3.26,43.45,43.45,0,0,1-8.47,1.5c-2.95.23-6,.33-9.1.33H214.06Zm9.77-8.77h0c1.45,0,3.53,0,6.28.07l7.63.15a59.77,59.77,0,0,0,14.62-1.52,17.76,17.76,0,0,0,9.76-6.26q3.81-4.76,3.81-13.8c0-6.2-1.27-10.91-3.81-14.19a17.89,17.89,0,0,0-10-6.46,59.92,59.92,0,0,0-14.59-1.55c-1.53,0-3.64,0-6.31.08l-7.42.15V165Zm0-51.8h0c2.29,0,4.19,0,5.67.06s3.15,0,4.93.1a62.66,62.66,0,0,0,13.32-1.27,17.74,17.74,0,0,0,9.41-5.24c2.49-2.65,3.84-6.56,4-11.78V93.54c0-8.36-2.23-13.85-6.73-16.42s-11-3.86-19.43-3.86c-2.44,0-4.45,0-6,0s-3.27.08-5.18.12Z" transform="translate(-24.84 -45.13)" fill="#0c2635" fill-rule="evenodd"/><polygon points="273.54 128.66 273.54 19.58 327.49 19.58 327.49 28.88 283.3 28.88 283.3 63.05 327.49 63.05 327.49 72.36 283.3 72.36 283.3 119.35 327.49 119.35 327.49 128.66 273.54 128.66" fill="#0c2635" fill-rule="evenodd"/><path d="M368.17,155.58l8.59-4.78q4.55,13.62,16.07,16.38a27.65,27.65,0,0,0,6,.66,26.28,26.28,0,0,0,9.59-1.78,18,18,0,0,0,7.58-5.44q5.14-6.1,5.13-15.77a24.44,24.44,0,0,0-.38-4.75q-2.21-10.72-16-18.15c-2.27-1.2-4.76-2.47-7.43-3.82s-5.13-2.67-7.37-4a49.88,49.88,0,0,1-6.59-4.67,31.27,31.27,0,0,1-5.34-5.65,26.18,26.18,0,0,1-5.05-15.71A27.19,27.19,0,0,1,375.29,77a22.88,22.88,0,0,1,6.2-8.06,28.15,28.15,0,0,1,9.16-5.11,32.67,32.67,0,0,1,10.5-1.7A26.13,26.13,0,0,1,415,65.55a33,33,0,0,1,10.25,10.63l-7.73,4.47q-5.88-9.53-17-9.53a18.86,18.86,0,0,0-10.89,3.23,14.12,14.12,0,0,0-6.07,9,22.79,22.79,0,0,0-.59,5.19,16.24,16.24,0,0,0,3.16,10.07,27.41,27.41,0,0,0,7.22,6.76c2.69,1.73,6.71,3.92,12.05,6.64a84.46,84.46,0,0,1,11.19,6.43A31.32,31.32,0,0,1,427,129.6a32.14,32.14,0,0,1,3.28,15,42,42,0,0,1-1.12,9.84,30,30,0,0,1-3.61,8.7,25.82,25.82,0,0,1-6.28,7.06Q411,176.68,399,176.69A35.83,35.83,0,0,1,388.05,175Q375.36,171.13,368.17,155.58Z" transform="translate(-24.84 -45.13)" fill="#0c2635" fill-rule="evenodd"/><polygon points="447.25 128.66 447.25 28.88 417.12 28.88 417.12 19.58 487.14 19.58 487.14 28.88 457.01 28.88 457.01 128.66 447.25 128.66" fill="#0c2635" fill-rule="evenodd"/><path d="M569.85,157.77h14.92c8.19,0,14.34-.53,18.44-1.63a27,27,0,0,0,10.7-5.51,32.85,32.85,0,0,0,9.28-13.17,49.84,49.84,0,0,0,3.11-18.29,49.71,49.71,0,0,0-3.11-18.28,32.85,32.85,0,0,0-9.28-13.17,27.65,27.65,0,0,0-11.06-5.52q-6.44-1.64-20.19-1.62H569.85v77.19Zm-17.7,16h0V64.71H576c15.56,0,26.49.79,32.85,2.34a44.9,44.9,0,0,1,16.65,7.86,45.66,45.66,0,0,1,14.34,18.56,64.68,64.68,0,0,1,4.88,25.86q0,14.52-4.88,25.73a46.44,46.44,0,0,1-14.34,18.53,45,45,0,0,1-16.3,7.86q-9.11,2.33-28.42,2.34H552.15Z" transform="translate(-24.84 -45.13)" fill="#0c2635" fill-rule="evenodd"/><polygon points="640.23 128.66 640.23 19.58 701.1 19.58 701.1 34.68 657.93 34.68 657.93 61.99 701.1 61.99 701.1 77.55 657.93 77.55 657.93 112.79 701.1 112.79 701.1 128.66 640.23 128.66" fill="#0c2635" fill-rule="evenodd"/><path d="M769.29,130.92H799.7l-11.19-24.87c-.63-1.57-1.32-3.4-2-5.46s-1.39-4.35-2.08-6.9c-.59,2.4-1.22,4.61-1.91,6.67s-1.35,4-2,5.69l-11.19,24.87Zm49,42.87h0L806,145.72H762.73l-12.66,28.07H731.46L784.27,60.44,837,173.79Z" transform="translate(-24.84 -45.13)" fill="#0c2635" fill-rule="evenodd"/><polygon points="822.43 128.66 822.43 19.58 840.13 19.58 840.13 112.79 879.79 112.79 879.79 128.66 822.43 128.66" fill="#0c2635" fill-rule="evenodd"/></svg>