<svg id="Layer_1" data-name="Layer 1" xmlns="http://www.w3.org/2000/svg" viewBox="0 0 825.99 307.58"><polygon points="825.99 187.7 650.9 194.98 696.78 307.58 825.99 187.7" fill="#865f0f" fill-rule="evenodd"/><polygon points="810.58 0 825.79 188.24 11.7 267.03 96.27 145.76 0 52.43 810.58 0" fill="#efac06" fill-rule="evenodd"/><path d="M307.78,196.52l39.62-7.33c1.65,6.37,4,11.09,7.07,14.19,5,5,11.51,7,19.53,6q9-1.08,13.34-5.88c2.9-3.22,4.15-6.67,3.7-10.36-.44-3.54-2.35-6.48-5.78-8.88s-10.91-4.17-22.45-5.28q-28.33-2.86-41.35-11.72a33.41,33.41,0,0,1-15-24.8A35.78,35.78,0,0,1,310.1,122q4.93-10,16.46-16.85t32.75-9.37q26-3.14,40.87,4.88t20,28.83l-39.27,7.1c-1.77-6-4.52-10.17-8.23-12.52s-8.51-3.21-14.43-2.49c-4.91.58-8.43,2.08-10.67,4.43a9.52,9.52,0,0,0-2.77,8,7.55,7.55,0,0,0,3.75,5.48c2.21,1.54,7.09,2.65,14.68,3.28q28.25,2.63,40.87,7.23t19.14,13a38.26,38.26,0,0,1,7.85,19.44,43.44,43.44,0,0,1-4.31,25,45.31,45.31,0,0,1-18.16,19.16q-12.28,7.28-32,9.64Q342,240.34,327,228.58C317,220.79,310.61,210.07,307.78,196.52Z" transform="translate(-127.01 -17.89)" fill="#0c2635" fill-rule="evenodd"/><path d="M538.62,192.42l-47.82,5.77L487,221.39l-42.89,5.19,34.6-142,45.78-5.56,67.45,129.65L548,214l-9.37-21.59Zm-12.36-28.3h0l-20.93-47-9,50.63Z" transform="translate(-127.01 -17.89)" fill="#0c2635" fill-rule="evenodd"/><polygon points="462.12 54.41 504.09 49.32 516.48 151.69 581.94 143.76 585.99 177.19 478.53 190.2 462.12 54.41" fill="#0c2635" fill-rule="evenodd"/><polygon points="588.76 39.97 701.22 26.38 704.72 55.38 634.32 63.9 636.93 85.49 702.24 77.59 705.6 105.29 640.3 113.19 643.52 139.93 715.96 131.18 719.67 161.94 605.2 175.77 588.76 39.97" fill="#0c2635" fill-rule="evenodd"/></svg>