<svg id="Layer_1" data-name="Layer 1" xmlns="http://www.w3.org/2000/svg" viewBox="0 0 489.14 299.53"><polygon points="341.24 209.77 288.73 299.53 470.87 202.75 341.24 209.77" fill="#865f0f" fill-rule="evenodd"/><path d="M342.53,255.93c21.85-5.94,127.64-29.59,144.62-33.38l.63-.34L437.32,225l-79.25,4.43Z" transform="translate(-16.91 -19.47)" fill="#6d4d0d" fill-rule="evenodd"/><polygon points="39.24 44.99 489.14 44.99 471 202.82 61.01 246.36 39.24 44.99" fill="#efac06" fill-rule="evenodd"/><path d="M212.23,136l5.38-2.74a7.56,7.56,0,0,0,3,4.19,8.86,8.86,0,0,0,5.37,1.28,6.77,6.77,0,0,0,4.8-1.88,6,6,0,0,0,1.64-4.63q-.15-3.72-6.44-6.4-.88-.39-1.35-.57c-4.75-2.09-7.92-4-9.55-5.8a10.11,10.11,0,0,1-2.57-6.66,10.82,10.82,0,0,1,3.18-8.5,13.09,13.09,0,0,1,9.07-3.54,15.52,15.52,0,0,1,7.88,1.5,9.44,9.44,0,0,1,4.56,5l-5.25,3a8.87,8.87,0,0,0-2.9-2.8,7.24,7.24,0,0,0-7.87.81,4.94,4.94,0,0,0-1.49,3.93q.15,3.81,7.44,6.83l.88.37q6.39,2.64,8.81,5.31a10.24,10.24,0,0,1,2.6,6.79,12.39,12.39,0,0,1-3.41,9.67q-3.65,3.67-10.08,3.92a14.71,14.71,0,0,1-8.93-2.13,11.61,11.61,0,0,1-4.79-6.93ZM351.36,91.72h0l-.25-19.36,10.8-.14,0,2.68-7.67.1.07,4.85,7.66-.1,0,2.76-7.66.1.07,6.26,7.67-.1,0,2.81-10.81.14Zm-4.09-14.43h0a9.68,9.68,0,0,0-2.85-1.67,8.91,8.91,0,0,0-3.13-.53,6.86,6.86,0,0,0-5.13,2.11,7.9,7.9,0,0,0,.08,10.44,6.48,6.48,0,0,0,4.91,2,9,9,0,0,0,3.26-.65,10.46,10.46,0,0,0,3-1.88l.05,3.55a9.08,9.08,0,0,1-2.75,1.41,11.1,11.1,0,0,1-3.23.49,11.5,11.5,0,0,1-4.12-.67A9.54,9.54,0,0,1,334,89.76a9.37,9.37,0,0,1-2.22-3.24,10.32,10.32,0,0,1-.81-4,10.49,10.49,0,0,1,.7-4,9.53,9.53,0,0,1,2.16-3.32A9.84,9.84,0,0,1,337.1,73a11.28,11.28,0,0,1,7.28-.33,11.53,11.53,0,0,1,3,1.47l-.13,3.17Zm-37.1,15.33h0l-.26-20.13,12.46,11.68c.34.33.68.68,1,1s.72.8,1.1,1.27l-.18-13.42,2.9,0,.27,20.12-12.7-11.89q-.51-.48-1-1c-.31-.36-.62-.73-.91-1.12l.18,13.46-2.9,0Zm-13.94-7.27h0l5.4-.07-2-4.39c-.12-.28-.24-.6-.38-1s-.25-.77-.38-1.22c-.1.43-.21.82-.32,1.19s-.23.7-.35,1l-1.93,4.45Zm8.8,7.49h0l-2.26-5-7.67.1-2.18,5-2.65,0,.1.12-3.54,0-6.56-8.58h-.35L280,93.3l-3,0L276.82,74l4.39-.06a14,14,0,0,1,3,.22,4.63,4.63,0,0,1,1.83.81,4.73,4.73,0,0,1,1.41,1.79,5.91,5.91,0,0,1,.52,2.43,5.39,5.39,0,0,1-1.08,3.65,4.92,4.92,0,0,1-3.29,1.63l6.26,8.06,8.87-19.7,9.62,20-3.32,0Zm-25-10.65h.57a6.32,6.32,0,0,0,3.32-.62,2.34,2.34,0,0,0,.79-2.07,2.61,2.61,0,0,0-.91-2.24,5.76,5.76,0,0,0-3.27-.62H280l.07,5.55Zm-16.93,3.87h0l5.39-.06-2-4.39c-.12-.29-.24-.6-.37-1s-.26-.77-.39-1.22c-.1.43-.21.82-.32,1.19s-.23.7-.35,1l-1.92,4.44Zm8.8,7.5h0l-2.26-5-7.67.1-2.19,5-3.3,0,9.11-20.25,9.63,20-3.32,0ZM244.73,94h0l-.25-19.37,10.81-.14,0,2.68-7.66.1.06,4.85,7.67-.1,0,2.77-7.66.1.07,6.25,7.67-.1,0,2.82L244.73,94ZM232,94.32h0L231.75,75l3.14,0,.21,16.55,7-.09,0,2.82L232,94.32Zm-4.09-14.44h0a9.9,9.9,0,0,0-2.85-1.67,8.69,8.69,0,0,0-3.13-.52,6.85,6.85,0,0,0-5.13,2.1,7.91,7.91,0,0,0,.08,10.45,6.47,6.47,0,0,0,4.91,2,9,9,0,0,0,3.26-.65,10.46,10.46,0,0,0,3-1.88l.05,3.56a9.53,9.53,0,0,1-2.75,1.4,12,12,0,0,1-7.35-.18,9.51,9.51,0,0,1-3.33-2.1,9.41,9.41,0,0,1-2.22-3.25,10.5,10.5,0,0,1-.81-4,10.31,10.31,0,0,1,.71-4,9.46,9.46,0,0,1,2.15-3.32,9.67,9.67,0,0,1,3.28-2.2,10.79,10.79,0,0,1,4-.79,11,11,0,0,1,3.26.45,11.86,11.86,0,0,1,3,1.47l-.13,3.17Zm120.32,34.53h0l1.25,0c3.63-.15,6-.66,7.19-1.55s1.71-2.41,1.62-4.56q-.14-3.49-2.11-4.85c-1.31-.9-3.71-1.28-7.16-1.15l-1.25,0,.46,12.11Zm-.21,5.34h0l.72,18.84-6.44.25-1.6-42.18,9.57-.36a29.5,29.5,0,0,1,6.54.3,10.33,10.33,0,0,1,4,1.66A10.06,10.06,0,0,1,364,102.1a13,13,0,0,1,1.27,5.26q.19,5.07-2.14,8a10.79,10.79,0,0,1-7.11,3.72l15.27,18.61-7.74.3-14.78-18.31-.77,0Zm-34.17,20.32h0L312.24,97.9l23.57-.9.22,5.85-16.72.63.4,10.57,16.72-.63.24,6-16.72.63.51,13.58,16.72-.63.23,6.14-23.56.9Zm-22.54-23.54h0l1.75-.06c3.81-.14,6.34-.66,7.58-1.53s1.81-2.36,1.74-4.45-.83-3.82-2.22-4.68-3.91-1.23-7.54-1.1l-1.76.07.45,11.75Zm-.2,5.63h0l.72,18.91-6.44.24-1.61-42.17,10.37-.4A32.86,32.86,0,0,1,301,99a10.45,10.45,0,0,1,3.87,1.51,9.92,9.92,0,0,1,3.27,3.85,14.11,14.11,0,0,1,.42,11,9.57,9.57,0,0,1-3,4.1,10.19,10.19,0,0,1-3.73,1.79A33.8,33.8,0,0,1,295,122l-1.35.06-2.58.09Zm-48.48-21.24h0l6.79-.25,1,25.59c.15,3.8,1.14,6.63,3,8.47s4.51,2.7,8,2.57,6.07-1.19,7.76-3.17,2.45-4.87,2.3-8.67l-1-25.6,6.85-.26,1,26.23q.33,8.56-3.83,13t-12.88,4.75q-8.71.33-13.17-3.74c-3-2.72-4.58-6.93-4.79-12.66Z" transform="translate(-16.91 -19.47)" fill="#0c2635" fill-rule="evenodd"/><path d="M235.9,150.92a16.19,16.19,0,0,1,11.24,3.6c3,2.52,4.55,6.36,4.68,11.55l.11,4.39-9-1.71-.06-2.46a6.65,6.65,0,0,0-10-5.49,6.58,6.58,0,0,0-2,2.16,8.36,8.36,0,0,0-1,2.88,20.26,20.26,0,0,0-.17,3.22,13.1,13.1,0,0,0,1.2,5,32.28,32.28,0,0,0,2.84,5.1,58,58,0,0,0,3.69,4.93c1.34,1.59,2.58,3.1,3.7,4.5,1.47,1.88,3,3.82,4.44,5.82a62.49,62.49,0,0,1,4,6.19,41.15,41.15,0,0,1,2.91,6.63,24.83,24.83,0,0,1,1.27,7.24,28.94,28.94,0,0,1-.71,7.12,16.5,16.5,0,0,1-2.7,6.11,14.36,14.36,0,0,1-5,4.25,16.72,16.72,0,0,1-7.46,1.72,15.82,15.82,0,0,1-6.42-1.07,14.68,14.68,0,0,1-4.94-3.2,14.13,14.13,0,0,1-3.24-4.82,17.13,17.13,0,0,1-1.23-6.06l-.1-4.3,9,1.72.05,2.35a6.21,6.21,0,0,0,2.21,4.65,6.79,6.79,0,0,0,4.8,1.83,6.39,6.39,0,0,0,5.27-2.33A8.57,8.57,0,0,0,244.9,217a32.65,32.65,0,0,0-.42-4.69,18.22,18.22,0,0,0-1.22-4.07,40.5,40.5,0,0,0-3.11-5.95q-1.83-2.82-3.88-5.52c-1.37-1.81-2.78-3.61-4.22-5.38s-2.83-3.52-4.16-5.27a46.72,46.72,0,0,1-5.08-8.26,25.63,25.63,0,0,1-2-10.17q-.19-7.36,3.69-12c2.57-3.07,6.4-4.66,11.43-4.78Zm115.3,78h0l-26.46.66-2-80,26.47-.66.23,9-17.48.44.62,25.34,10.11-.24.23,9-10.13.26.7,27.69L351,220l.21,9Zm-31.08.93h0l-24.42.6-2-80,9-.23,1.77,71,15.43-.38.21,9Zm-30,.94h0l-9.09.21-1.58-9.88-11.34.28-1,10-9.6.22,10.29-80.32,8.27-.21,14,79.74Zm-11.89-18h0l-5.47-34.93L269,213Z" transform="translate(-16.91 -19.47)" fill="#0c2635" fill-rule="evenodd"/><path d="M95.5,19.47c8.49,0,11.14,10.13,17.69,11.89s14-5.77,21.61-1.36c7.35,4.24,4.58,14.34,9.37,19.13s15,2,19.39,9.64c4.25,7.35-3.2,14.7-1.45,21.25s12,9.23,12,18c0,8.49-10.13,11.14-11.89,17.69s5.77,14,1.36,21.61c-4.24,7.35-14.34,4.58-19.13,9.37s-2,15-9.63,19.39c-7.36,4.25-14.71-3.2-21.26-1.44s-9.23,12-18,12c-8.49,0-11.14-10.13-17.69-11.88s-14,5.76-21.61,1.35c-7.35-4.24-4.58-14.33-9.37-19.13s-15-2-19.39-9.63c-4.25-7.35,3.2-14.71,1.45-21.26s-12-9.23-12-18c0-8.49,10.13-11.14,11.88-17.68S23,66.4,27.44,58.77c4.24-7.36,14.34-4.59,19.13-9.38s2-15,9.63-19.39c7.36-4.25,14.71,3.21,21.26,1.44S86.69,19.47,95.5,19.47Z" transform="translate(-16.91 -19.47)" fill="#0c2635" fill-rule="evenodd"/><path d="M136.92,89.93V86.64c-.09-.15,0,0-.14-.32l-.43-1.62c-1.17-3.57-4.77-7-8.51-7.52-4.16-.63-14.23,2.8-18.87,2.36.1-1.28,2.81-7.34,3.4-8.6a26.71,26.71,0,0,0,1.76-16.06,12.23,12.23,0,0,0-3-5.77c-2.38-2.14-7.49-2.42-10.39-1.93A4,4,0,0,0,98.19,49c-4.39,5.18-1.08,15.23-6.93,21.44C88.07,73.81,79.46,82.2,76,84.08c-1.09.58-1.81.22-3.07,1.24C71,86.86,71.55,90,71.55,92.82v30.74c0,2-.2,5.11,3.24,5.63a32.24,32.24,0,0,1,7,1.75c.93.34,2.3.81,3.21,1.09,2.26.71,4.45,1.43,6.7,2.15s4.76,1.15,7.07,1.7c4,1,12.64,1.09,16.79.81,8.54-.58,15.52-4.57,12.68-13.25,0-2.94.54-1.38,1.8-3.14a10.18,10.18,0,0,0,1.52-2.83c1-2.69.43-4.48-.14-7.42-.22-1.13,1.59-2.13,2-3.16a13.16,13.16,0,0,0,.84-7.68c-.14-.58-1.31-1.23-1.46-1.84-.21-.83,0-.93.47-1.47.62-.78,2.17-1.69,2.56-2.55a12.69,12.69,0,0,0,.83-3l.12-.34c0-.07,0-.08,0-.12ZM52.16,88.8h0v38.92c.15.29.25.74.41,1.09a3.65,3.65,0,0,0,.49.84c1.19,1.6,3.74,1,5.88,1,1.42,0,7.76.24,8.6-.2,1.07-.55,1.77-1.72,1.82-3.71s0-4.13,0-6.13V95.83c0-2,.06-4.25,0-6.25A4,4,0,0,0,67.54,86c-.89-.41-7.25-.18-8.69-.18a31.06,31.06,0,0,0-4.43.05C52.81,86.16,52.44,88.22,52.16,88.8Z" transform="translate(-16.91 -19.47)" fill="#fede0d" fill-rule="evenodd"/><path d="M68.73,180.84l-1.55-14.33c3.71-1.12,7.29-2.64,10.63-1.74,6.55,1.75,9.2,11.88,17.69,11.88,8.81,0,11.49-10.22,18-12s13.9,5.69,21.26,1.44c7.62-4.4,4.83-14.59,9.63-19.39s14.89-2,19.13-9.37c4.41-7.63-3.11-15.06-1.36-21.61,1.51-5.61,9.14-8.35,11.31-14.35,2.89,2.67,5.64,5.59,5.64,10.15,0,8.49-10.13,11.13-11.89,17.69s5.77,14,1.36,21.61c-4.24,7.35-14.34,4.58-19.13,9.37s-2,15-9.63,19.39c-7.36,4.25-14.71-3.2-21.26-1.44s-9.23,12-18,12c-8.49,0-11.14-10.13-17.69-11.88-4.38-1.18-9.17,1.81-14.14,2.58Zm95.5-112.73a10.49,10.49,0,0,1,4.39,4.15c2.91,5,.32,10.08-1,14.87-2.4-2.18-4.72-4.29-5.48-7.11C161.11,76.27,163.13,72.25,164.23,68.11Z" transform="translate(-16.91 -19.47)" fill="#c58b13" fill-rule="evenodd"/></svg>