<svg id="Layer_1" data-name="Layer 1" xmlns="http://www.w3.org/2000/svg" viewBox="0 0 738.75 309.91"><polygon points="738.29 205.38 485.47 309.91 549.63 225.99 738.29 205.38" fill="#865f0f" fill-rule="evenodd"/><polygon points="0 89.79 673.47 0 738.75 206.17 71.95 290.55 0 89.79" fill="#efac06" fill-rule="evenodd"/><path d="M277.62,203.23l5.35-.68q10-1.28,13.8-4.54t3-9.74c-.6-4.72-2.29-7.85-5.08-9.43s-7.74-1.92-14.84-1l-5.34.69,3.15,24.72Zm210.85-51.78h0L498,225.74l-14,1.79-9.48-74.29-22.92,2.92L450,144.22l59.7-7.62,1.52,11.94-22.79,2.91Zm-91.72,69.66h0a23.9,23.9,0,0,0,11.05,13.32q7.71,4.17,18.7,2.76,13.14-1.68,19.94-9.88t5.24-20.44a21.22,21.22,0,0,0-6.56-13.45q-5.47-5-19-9.27c-.46-.13-1.08-.34-1.87-.6q-15.48-4.83-16.48-12.63a10,10,0,0,1,2.33-8.3c2-2.25,4.85-3.63,8.61-4.1a13.34,13.34,0,0,1,7.36,1,18.21,18.21,0,0,1,6.44,5.22l10.21-7.06a19.53,19.53,0,0,0-10.22-9.42q-6.9-2.87-16.44-1.64-11.61,1.47-17.94,8.92t-5,18a20.84,20.84,0,0,0,6.5,13.15q5.44,5,20.6,10.16c.65.18,1.62.5,2.87.94q13.39,4.32,14.36,11.94a12.26,12.26,0,0,1-2.5,9.75c-2.17,2.63-5.32,4.21-9.5,4.75-4.41.56-8.15,0-11.23-1.66a15.43,15.43,0,0,1-7-8l-10.52,6.59Zm-57,24.83h0l-11-86.24,48.12-6.14,1.53,11.94-34.14,4.35L347,191.44l34.13-4.35,1.57,12.3-34.13,4.36,3.55,27.85,34.14-4.35,1.59,12.54-48.12,6.15Zm-57.23-4.59h0l4.83-.62a77.47,77.47,0,0,0,10.94-2,14.24,14.24,0,0,0,5.5-2.81,11.45,11.45,0,0,0,3.42-5.09,14.44,14.44,0,0,0,.59-6.55,14.59,14.59,0,0,0-2.62-7,12,12,0,0,0-5.5-4.14,16.77,16.77,0,0,0-4.75-.9,40.33,40.33,0,0,0-6.87.4l-4.22.54-4.83.61,3.51,27.51ZM270.22,254.8h0l-11-86.23L281,165.79a68.26,68.26,0,0,1,13.88-.75,20.36,20.36,0,0,1,8,2.33A19.78,19.78,0,0,1,310,174.3a25,25,0,0,1,3.56,10.27,20,20,0,0,1-1.71,11.92,16.59,16.59,0,0,1-8.42,7.63,17.82,17.82,0,0,1,12.72,5.37q5,5.12,6.15,13.78a27.57,27.57,0,0,1-.56,10.18,22.49,22.49,0,0,1-4.15,8.66,19.8,19.8,0,0,1-8.14,6.19q-5.06,2.14-17.4,3.71Z" transform="translate(-188.76 -27.09)" fill="#0c2635" fill-rule="evenodd"/><path d="M562.4,171c1.8-.23,3.3-.39,4.46-.52s2.47-.29,3.83-.47a54.63,54.63,0,0,0,11.37-2.49,15,15,0,0,0,7.31-5.51q2.8-3.87,2.21-10.46,0-.78-.21-2.19-1-7.94-4.84-11.44a15.28,15.28,0,0,0-9.17-4,61.8,61.8,0,0,0-13.19.51c-1.41.18-2.56.32-3.44.46l-2.88.41L562.4,171Zm252.94,17.28h0L803.62,96.44l45.44-5.8,1,7.84-37.22,4.75L816.51,132l37.22-4.74,1,7.83-37.22,4.75,5,39.57,37.22-4.75,1,7.84-45.44,5.79Zm-27.87-72.58h0a53.49,53.49,0,0,0-15.27-6.91,41,41,0,0,0-15.85-1,48.07,48.07,0,0,0-7.7,1.62,36.73,36.73,0,0,0-15.95,9.71,38.09,38.09,0,0,0-9.08,15.8,45.72,45.72,0,0,0-1.45,18.84A43.43,43.43,0,0,0,729,172.63a36.82,36.82,0,0,0,33.64,16.7,39.63,39.63,0,0,0,4-.32q14.81-1.89,27.78-14.18l1.22,9.53A57.23,57.23,0,0,1,767,196.55a52.82,52.82,0,0,1-17.49-.64,46.43,46.43,0,0,1-15.79-6.41,43.26,43.26,0,0,1-12.39-12.19,48.31,48.31,0,0,1-7.28-17.7q-.69-3.35-.9-5a50,50,0,0,1,2-22.23,45.15,45.15,0,0,1,11.53-18.29,50.13,50.13,0,0,1,19.62-11.66,61.61,61.61,0,0,1,9.43-2,51.06,51.06,0,0,1,15.86.44,48.72,48.72,0,0,1,15,5.49l1,9.32ZM692.39,204h0l-11.72-91.86,8.22-1.05,11.72,91.86-8.22,1Zm-12.14,1.55h0L670,206.84,632.27,167l-5,.64,5.61,43.93-8.22,1.05-11.72-91.85,16.76-2.14a52,52,0,0,1,14-.13,20.09,20.09,0,0,1,10.86,5.12,26.52,26.52,0,0,1,8,16.49c.13,1,.21,1.82.23,2.35q.5,9.63-5.4,15.85t-15.79,7.5l38.69,39.72ZM622.07,127h0l4.3,33.66c1.76-.22,3.19-.39,4.33-.51l3.78-.4c6.4-.81,11.38-2.42,14.9-4.83s5-6.65,4.47-12.71c0-.42-.07-1-.18-1.88q-.95-7.49-4.51-10.82a13.79,13.79,0,0,0-8.58-3.81,61.06,61.06,0,0,0-12.62.55l-5.89.75ZM560.4,220.82h0L548.68,129l13.51-1.72,5.2-.67a62.83,62.83,0,0,1,13-.48,20.72,20.72,0,0,1,10.12,3.65,22.74,22.74,0,0,1,6.61,7.9,30.83,30.83,0,0,1,3.25,10.47,31.19,31.19,0,0,1,.22,4.83,25.84,25.84,0,0,1-2.66,11.76,18.87,18.87,0,0,1-6.53,7.1,31.6,31.6,0,0,1-9,3.8,101.27,101.27,0,0,1-11.94,2.16l-3.23.39c-1,.1-2.28.24-3.86.45l5.25,41.17Z" transform="translate(-188.76 -27.09)" fill="#0c2635" fill-rule="evenodd"/></svg>