<svg id="Layer_1" data-name="Layer 1" xmlns="http://www.w3.org/2000/svg" viewBox="0 0 749 311.94"><rect x="169.5" y="44.6" width="687.32" height="170.77" transform="translate(-159.4 30.49) rotate(-5.02)" fill="#f1cc05"/><rect y="24.88" width="726.31" height="180.45" rx="35.8" fill="#efac06"/><polygon points="71.55 177.92 749 189.92 747.12 311.94 69.67 299.95 71.55 177.92" fill="#0c2635" fill-rule="evenodd"/><path d="M208.9,182.58l666.21,11a35.79,35.79,0,0,1-4.37,9.95L221.68,192.8l-.45,27.41H208.28Z" transform="translate(-150 -14.88)" fill="#c88e14" fill-rule="evenodd"/><path d="M786,307.25h0c0-3.83,1.07-6.66,3.21-8.51a9.67,9.67,0,0,1,6.52-2.29,9.32,9.32,0,0,1,7,2.79,10.61,10.61,0,0,1,2.71,7.72,13.67,13.67,0,0,1-1.2,6.28,8.47,8.47,0,0,1-3.49,3.55,10.13,10.13,0,0,1-5,1.27,9.35,9.35,0,0,1-7-2.78c-1.79-1.86-2.69-4.55-2.69-8Zm3.61,0h0c0,2.65.57,4.63,1.73,5.94a5.81,5.81,0,0,0,8.75,0c1.16-1.32,1.73-3.33,1.73-6a8.53,8.53,0,0,0-1.74-5.81,5.82,5.82,0,0,0-8.74,0c-1.16,1.31-1.73,3.28-1.73,5.93Zm20.77,10.35h0v-18h-3.11v-2.71h3.11v-2.2a9.58,9.58,0,0,1,.37-3.1,4.55,4.55,0,0,1,1.78-2.21,6.4,6.4,0,0,1,3.56-.84,17.57,17.57,0,0,1,3.29.35l-.53,3.08a11.86,11.86,0,0,0-2.07-.2,3.08,3.08,0,0,0-2.26.68,3.67,3.67,0,0,0-.67,2.54v1.9h4v2.71h-4v18Zm10.38,0h3.51v-18h4v-2.71h-4V295a3.62,3.62,0,0,1,.66-2.54,3.1,3.1,0,0,1,2.26-.68,12,12,0,0,1,2.07.2l.52-3.08a17.48,17.48,0,0,0-3.28-.35,6.4,6.4,0,0,0-3.56.84,4.5,4.5,0,0,0-1.78,2.21,9.58,9.58,0,0,0-.37,3.1v2.2h-3.11v2.71h3.11v18ZM802.06,247h0a7.19,7.19,0,0,1-2.11,5.21,7,7,0,0,1-5.18,2.16,6.82,6.82,0,0,1-2.78-.58,7.6,7.6,0,0,1-2.27-1.58,7.19,7.19,0,0,1-1.58-2.36,7.3,7.3,0,0,1-.58-2.85V224.5a6.78,6.78,0,0,1,.58-2.78,7.48,7.48,0,0,1,1.58-2.27,7.6,7.6,0,0,1,2.27-1.58,6.66,6.66,0,0,1,2.78-.58,6.86,6.86,0,0,1,2.81.58,7.68,7.68,0,0,1,3.9,3.85,6.78,6.78,0,0,1,.58,2.78V247Zm-4.89-22.53h0a2.11,2.11,0,0,0-.71-1.7,2.48,2.48,0,0,0-1.69-.62,2.45,2.45,0,0,0-1.74.62,2.21,2.21,0,0,0-.66,1.7V247a2.42,2.42,0,0,0,4.09,1.73,2.22,2.22,0,0,0,.71-1.73V224.5Zm27.58-5.64h-5.22l-31.72,64.86h5.38l31.56-64.86Zm.66,59h0a7.15,7.15,0,0,1-2.11,5.21,7,7,0,0,1-5.17,2.16,6.59,6.59,0,0,1-2.78-.58,7.49,7.49,0,0,1-3.85-3.93,7.42,7.42,0,0,1-.58-2.86V255.31a6.82,6.82,0,0,1,.58-2.78,7.75,7.75,0,0,1,1.57-2.27,7.52,7.52,0,0,1,2.28-1.58,6.75,6.75,0,0,1,2.78-.58,7,7,0,0,1,2.81.58,7.61,7.61,0,0,1,3.89,3.85,6.66,6.66,0,0,1,.58,2.78v22.53Zm-4.89-22.53h0v22.53a2.27,2.27,0,0,1-.7,1.74,2.57,2.57,0,0,1-3.44,0,2.35,2.35,0,0,1-.66-1.74V255.31a2.21,2.21,0,0,1,.66-1.7,2.7,2.7,0,0,1,3.44,0A2.14,2.14,0,0,1,820.52,255.31Z" transform="translate(-150 -14.88)" fill="#fede0d" fill-rule="evenodd"/><path d="M254.18,139.7h25.76c.71,3,2,5.12,3.86,6.42s4.63,1.94,8.32,1.94a14.24,14.24,0,0,0,7.27-1.58,4.9,4.9,0,0,0,2.65-4.39c0-3-3.7-5.38-11.11-7.25l-3.41-.84q-9.11-2.35-14.51-4.28a37.3,37.3,0,0,1-7.84-3.6A22.42,22.42,0,0,1,258,118a24.05,24.05,0,0,1-2.37-10.86q0-12.25,9.22-19.26t25.37-7q15.88,0,25,6.69t10.29,19.18H300.44a7.78,7.78,0,0,0-3.21-5.41c-1.74-1.21-4.22-1.8-7.42-1.8-2.83,0-4.93.46-6.32,1.39a4.81,4.81,0,0,0-2.06,4.26c0,2.71,3.61,5,10.84,6.81.65.19,1.13.32,1.45.4l4.77,1.17q14.37,3.63,18.8,6.6a23.73,23.73,0,0,1,8,8.27,22.62,22.62,0,0,1,2.52,11q0,13.65-9.54,20.95t-27.34,7.34q-16.4,0-26-7.34T254.18,139.7Z" transform="translate(-150 -14.88)" fill="#0c2635" fill-rule="evenodd"/><path d="M366.15,120h8.49c5.5,0,9.19-.61,11.06-1.86s2.78-3.39,2.78-6.54-.9-5.36-2.67-6.59-5.52-1.84-11.17-1.84h-8.49V120ZM339.7,165.35h0V83h33.88a94.39,94.39,0,0,1,17.8,1.32,30.64,30.64,0,0,1,11,4.21,24.54,24.54,0,0,1,8.49,9.57,30.31,30.31,0,0,1,2.81,13.53c0,9.2-2.74,16.26-8.17,21.16s-13.31,7.35-23.56,7.35h-15.8v25.19Z" transform="translate(-150 -14.88)" fill="#0c2635" fill-rule="evenodd"/><polygon points="274.19 150.47 274.19 68.14 340.02 68.14 340.02 87.84 300.64 87.84 300.64 98.83 333.93 98.83 333.93 117.72 300.64 117.72 300.64 130.44 341.64 130.44 341.64 150.47 274.19 150.47" fill="#0c2635" fill-rule="evenodd"/><path d="M557.35,133.44h25.08q-1.11,16.27-11.47,25.24t-28,9q-19.79,0-31.14-11.61t-11.36-31.8q0-20.11,11.24-31.75t30.65-11.64q17.89,0,28.15,8.64T582,114.21H556.66c-.38-4.22-1.73-7.39-4.08-9.55s-5.65-3.2-9.9-3.2c-5.2,0-9.07,1.88-11.67,5.66s-3.89,9.51-3.89,17.14,1.37,13.17,4.14,17,6.8,5.76,12.12,5.76q6.15,0,9.75-3.53C555.54,141.15,557,137.82,557.35,133.44Z" transform="translate(-150 -14.88)" fill="#0c2635" fill-rule="evenodd"/><rect x="444.02" y="68.14" width="26.91" height="82.33" fill="#0c2635"/><path d="M662.93,137.18h16.61l-8.21-28.51-8.4,28.51Zm-34,28.17h0l29-82.33h26.8l29,82.33H687.44l-3.09-10.87H658.12l-3.18,10.87Z" transform="translate(-150 -14.88)" fill="#0c2635" fill-rule="evenodd"/><polygon points="571.2 150.47 571.2 68.14 597.65 68.14 597.65 128.6 633.61 128.6 633.61 150.47 571.2 150.47" fill="#0c2635" fill-rule="evenodd"/><path d="M268.36,258.51q-1.25,11.79,2.88,18.61t13.11,7.75c6,.64,10.86-1,14.53-4.81s5.94-9.74,6.77-17.6-.14-14-2.93-18.58-7.19-7.16-13.2-7.8-10.79,1-14.44,4.82-5.88,9.74-6.72,17.61Zm285.52-6.27H568.7c4,0,7-.74,8.83-2.22s2.83-3.83,2.83-7.06c0-2.86-.92-5-2.74-6.35s-4.63-2.09-8.39-2.09H553.88v17.72ZM534.1,296.66h0V219h37.18q14.78,0,21.76,5.28t7,16.35a20.36,20.36,0,0,1-3,11.21,22.71,22.71,0,0,1-9.25,7.83q5.1,2,7.2,5.3t2.43,11.8q.17,2.37.33,6.38.38,9.4,3.24,10.88v2.68H580.14a37,37,0,0,1-1.75-11.3c-.12-4.77-.27-7.77-.41-9-.33-3-1.33-5.24-3.06-6.64s-4.31-2.11-7.75-2.11H553.88v29.07Zm-67.34,4.47h0l-7.45-77.35,58.77-5.66,1.52,15.81-39,3.76,1.31,13.66,35.61-3.43L519,263.41l-35.61,3.43L485,283.4l40.23-3.87,1.53,15.81-60,5.79Zm-72.29-1.84h0V221.58h55.76v16.11h-36v16.1h31.24v16.1H414.24v29.4Zm-63.28-4.38h0V217.2H387v16.1H351v16.11H382.2v16.1H351v29.4Zm-82.93-38.53h0q2-18.84,13.57-28.69t29.43-7.94q17.89,1.89,27.24,14t7.36,30.89q-2,18.78-13.67,28.65t-29.58,7.95q-17.83-1.89-27.1-13.94T248.26,256.38Z" transform="translate(-150 -14.88)" fill="#fede0d" fill-rule="evenodd"/><path d="M670.58,267.6a3.91,3.91,0,1,0,4.19-3.62,3.92,3.92,0,0,0-4.19,3.62Zm-56.89-4.15a3.92,3.92,0,1,0,4.19-3.63,3.91,3.91,0,0,0-4.19,3.63Zm10.09.73a3.92,3.92,0,1,0,4.19-3.61,3.92,3.92,0,0,0-4.19,3.61Zm10.1.74a3.92,3.92,0,1,0,4.19-3.61,3.92,3.92,0,0,0-4.19,3.61Zm10.09.74a3.92,3.92,0,1,0,4.19-3.62,3.93,3.93,0,0,0-4.19,3.62Zm6.22,7.95a3.92,3.92,0,1,1,3.62,4.2,3.92,3.92,0,0,1-3.62-4.2Zm1.1-15a3.92,3.92,0,1,1,3.62,4.18,3.92,3.92,0,0,1-3.62-4.18Zm6.06,8a3.92,3.92,0,1,0,4.19-3.62,3.93,3.93,0,0,0-4.19,3.62Zm-8.25,22a3.91,3.91,0,1,0,4.19-3.62,3.9,3.9,0,0,0-4.19,3.62Zm7.16-7a3.92,3.92,0,1,0,4.19-3.62,3.91,3.91,0,0,0-4.19,3.62Zm7.16-7a3.91,3.91,0,1,1,3.61,4.19,3.92,3.92,0,0,1-3.61-4.19Zm-11-30.95a3.91,3.91,0,1,0,4.18-3.61,3.9,3.9,0,0,0-4.18,3.61Zm6.06,8a3.92,3.92,0,1,0,4.19-3.62,3.92,3.92,0,0,0-4.19,3.62Zm6.06,8a3.92,3.92,0,1,1,3.62,4.19A3.92,3.92,0,0,1,664.51,259.62Z" transform="translate(-150 -14.88)" fill="#fede0d" fill-rule="evenodd"/></svg>