<svg id="Layer_1" data-name="Layer 1" xmlns="http://www.w3.org/2000/svg" viewBox="0 0 1043.35 180.6"><polygon points="793.31 0.1 1043.35 0.1 995.17 64.44 1043.35 137.21 793.31 137.21 793.31 0.1" fill="#d79b05" fill-rule="evenodd"/><polygon points="945.18 47 792.82 0 792.42 58.24 945.18 47" fill="#865f0f" fill-rule="evenodd"/><polygon points="250.03 0.1 0 0.1 48.17 64.44 0 137.21 250.03 137.21 250.03 0.1" fill="#d79b05" fill-rule="evenodd"/><polygon points="98.17 47 250.52 0 250.92 58.24 98.17 47" fill="#865f0f" fill-rule="evenodd"/><rect x="102.68" y="47.43" width="839.12" height="133.16" fill="#efac06"/><path d="M471.77,241l9.43-.79a48.31,48.31,0,0,0,11.56-2,16.86,16.86,0,0,0,6.47-4.06,20.81,20.81,0,0,0,5.16-8.82,35.3,35.3,0,0,0-1.94-23.16,20.81,20.81,0,0,0-6.57-7.85,17.58,17.58,0,0,0-7.29-2.89c-2.76-.48-7.06-.45-12.82,0l-4.07.35-4.05.33L471.77,241ZM887.5,155.43h0l5,59.67-11.27,1-5-59.67-18.37,1.54-.8-9.52,47.91-4,.8,9.53-18.27,1.52ZM799.09,223.1h0l10.3-.87-4-48.11q1.7,2,3.54,3.8c1.23,1.2,2.49,2.32,3.8,3.39l48.54,39.3-6-71.92-10.4.88,4,48q-2.27-2.37-4.27-4.26c-1.36-1.25-2.67-2.42-4-3.52L793,151.19l6.05,71.91Zm-71.47-63.56h0l11.07-.92,3.53,42q.79,9.35,5.52,13.69t13.34,3.6q8.55-.7,12.49-5.78t3.15-14.42l-3.53-42,11.27-1,3.63,43q1.17,14-5.33,21.63c-4.35,5-11.27,8-20.79,8.77s-16.83-.92-21.92-5.15-8-11.07-8.81-20.47l-3.62-43ZM712.83,196h0a26.69,26.69,0,0,0-2.75-9.8,25.73,25.73,0,0,0-6.2-8,24.56,24.56,0,0,0-18.43-6.06,24.59,24.59,0,0,0-9.52,2.75,24.85,24.85,0,0,0-7.72,6.3,25.34,25.34,0,0,0-4.78,8.84,26.82,26.82,0,0,0-1,10.17,26,26,0,0,0,8.89,17.68,25.26,25.26,0,0,0,8.64,4.93,25.14,25.14,0,0,0,19.33-1.63,25.46,25.46,0,0,0,7.7-6.31A26.1,26.1,0,0,0,712.83,196Zm11.76-1h0a35.3,35.3,0,0,1-8.67,26.58,37.79,37.79,0,0,1-11.38,8.9,36.75,36.75,0,0,1-13.85,3.93,37.73,37.73,0,0,1-14.48-1.56,37,37,0,0,1-12.64-6.87,35.29,35.29,0,0,1-9-11,36.11,36.11,0,0,1,4.7-40.43,36.91,36.91,0,0,1,11.33-8.85A38.88,38.88,0,0,1,699,163.23a37.32,37.32,0,0,1,12.64,6.84,36.39,36.39,0,0,1,9,11.17,35.73,35.73,0,0,1,3.94,13.68Zm-79.71-11.25h0a34.42,34.42,0,0,0-10.6-5.26,31.52,31.52,0,0,0-11.35-1.11q-11.32,1-17.83,8.85t-5.52,19.49q1,11.22,8.47,17.94a23.12,23.12,0,0,0,18.08,5.81,32,32,0,0,0,11.51-3.15,37.21,37.21,0,0,0,10.1-7.49l1.06,12.65a33.4,33.4,0,0,1-9.48,5.73,39.82,39.82,0,0,1-11.44,2.59,40.39,40.39,0,0,1-14.9-1.37,34.59,34.59,0,0,1-21.25-17.7,38,38,0,0,1-3.91-14.11A37.55,37.55,0,0,1,589.33,192a34.69,34.69,0,0,1,6.87-12.42,35.17,35.17,0,0,1,11.18-8.72,39.22,39.22,0,0,1,14.2-3.83,38.12,38.12,0,0,1,11.78.78,40.79,40.79,0,0,1,11.18,4.43l.34,11.41ZM542.16,231.22h0l8.62-4.9a12.31,12.31,0,0,0,5.25,6.62,14.75,14.75,0,0,0,8.89,1.7,11.17,11.17,0,0,0,7.7-3.46,9.81,9.81,0,0,0,2.33-7.7q-.53-6.07-11-10c-1-.4-1.73-.69-2.25-.87q-11.9-4.6-16.1-8.8a16.66,16.66,0,0,1-4.73-10.72,17.77,17.77,0,0,1,4.59-14.19c3.52-3.82,8.4-6,14.6-6.5a25.48,25.48,0,0,1,13.05,1.87,15.7,15.7,0,0,1,7.85,7.9l-8.44,5.23a14.47,14.47,0,0,0-4.94-4.35,10.67,10.67,0,0,0-5.8-1,10.47,10.47,0,0,0-7,2.95,8.08,8.08,0,0,0-2.13,6.56q.52,6.21,12.65,10.61c.61.24,1.1.42,1.47.55,7.09,2.57,12.06,5.25,14.85,8.05a16.77,16.77,0,0,1,4.78,10.95q.84,9.83-4.87,16.15c-3.79,4.2-9.21,6.61-16.22,7.2q-8.85.74-14.81-2.85a19,19,0,0,1-8.37-11Zm-15.63,15.29h0l-5.82-69.19,11.28-.95,5.81,69.19-11.27.95Zm-65.17,5.6h0l-5.82-69.19,15.17-1.29q14.78-1.24,20.93-.26a28.07,28.07,0,0,1,10.95,4.1,29,29,0,0,1,10.08,11,41.1,41.1,0,0,1,4.47,16.14,40.6,40.6,0,0,1-1.71,16.59,29.6,29.6,0,0,1-8.1,12.51,28.14,28.14,0,0,1-9.89,5.85q-5.65,2-17.88,3l-3,.25Z" transform="translate(-3.65 -78.8)" fill="#0c2635" fill-rule="evenodd"/><path d="M438.16,222.34l-8.92.75-31.11-35.75-4.35.36,3.2,38.11-7.17.6-6.71-79.78,14.59-1.23a45.33,45.33,0,0,1,12.06.41,17.3,17.3,0,0,1,9.22,4.83,23,23,0,0,1,6.32,14.58c.08.91.11,1.59.11,2q0,8.34-5.25,13.53t-14,5.89l32,35.68Zm-261.39,9h0l6-4q4.16,9.7,12.79,11a19.45,19.45,0,0,0,4.46.12,19.68,19.68,0,0,0,6.93-1.92,13.34,13.34,0,0,0,5.24-4.43c2.24-3.19,3.18-7.15,2.78-11.87a18.89,18.89,0,0,0-.56-3.48q-2.31-7.69-12.92-12.28c-1.73-.73-3.63-1.52-5.67-2.33s-4-1.65-5.69-2.49a36.3,36.3,0,0,1-5.11-3,23.14,23.14,0,0,1-4.27-3.82,19.32,19.32,0,0,1-4.69-11.2,19.73,19.73,0,0,1,1.06-8.24,17,17,0,0,1,4.06-6.31,21.22,21.22,0,0,1,6.42-4.3,24.05,24.05,0,0,1,7.6-1.9,19.27,19.27,0,0,1,10.36,1.64,24,24,0,0,1,8.18,7.08l-5.4,3.74a14.69,14.69,0,0,0-20.85-2.87,10.42,10.42,0,0,0-3.9,6.94,15.8,15.8,0,0,0-.11,3.85,12,12,0,0,0,2.95,7.19,19.88,19.88,0,0,0,5.71,4.51q3.13,1.63,9.25,4.12a63.33,63.33,0,0,1,8.62,4,21.29,21.29,0,0,1,11.66,18.34,30.08,30.08,0,0,1-.21,7.26,22.83,22.83,0,0,1-2.1,6.59,19.8,19.8,0,0,1-4.2,5.56,23.54,23.54,0,0,1-14.5,6,26.67,26.67,0,0,1-8.14-.56q-9.54-2-15.79-12.93Zm45.86-70.92h0l7.17-.6L234.18,212q2,23.35,23.76,21.52,10.95-.93,16.27-7.53a16.61,16.61,0,0,0,3.37-7.84,42,42,0,0,0,.19-9.82l-4.38-52.16,7.17-.6,4.18,49.73q1.29,15.43-5,24.34t-21.26,10.16c-6.71.57-12.35-.28-16.9-2.51a22.51,22.51,0,0,1-10.38-10.21,45.37,45.37,0,0,1-4.38-16.91l-4.18-49.73Zm77.84,31.08h0c1.57-.13,2.86-.24,3.87-.29l3.34-.26a48.31,48.31,0,0,0,9.9-1.74,13,13,0,0,0,6.52-4.51c1.71-2.16,2.48-5.17,2.3-9,0-.43,0-1.07-.11-1.91q-.59-6.91-3.76-10.1a13.4,13.4,0,0,0-7.78-3.83,54.6,54.6,0,0,0-11.39-.05c-1.25.11-2.24.2-3,.29l-2.5.24,2.62,31.15Zm-3.61,42.9h0l-6.71-79.77,11.75-1,4.51-.38a53.44,53.44,0,0,1,11.25.07,17.67,17.67,0,0,1,8.63,3.53,19.78,19.78,0,0,1,5.43,7,27,27,0,0,1,2.41,9.18,25.12,25.12,0,0,1,0,4.16,22,22,0,0,1-2.74,10,16,16,0,0,1-5.93,5.89,26.4,26.4,0,0,1-7.88,2.94,85.22,85.22,0,0,1-10.42,1.44l-2.81.21c-.85,0-2,.14-3.33.25l3,35.8-7.17.6Zm45.71-3.93h0l-6.71-79.77,39.42-3.32.58,6.72-32.26,2.72,2.11,25.09L378,179.19l.57,6.72-32.25,2.72,2.9,34.51,32.26-2.71.57,6.72-39.44,3.31Zm48.24-78.16h0l2.47,29.47c1.53-.13,2.78-.22,3.76-.29s2.07-.13,3.28-.19c5.55-.47,9.9-1.7,13-3.65s4.59-5.6,4.33-10.9c0-.35,0-.92-.09-1.64-.36-4.37-1.54-7.57-3.49-9.6a12.06,12.06,0,0,0-7.28-3.62,52.19,52.19,0,0,0-10.9,0Z" transform="translate(-3.65 -78.8)" fill="#0c2635" fill-rule="evenodd"/></svg>