<svg id="Layer_1" data-name="Layer 1" xmlns="http://www.w3.org/2000/svg" viewBox="0 0 311.05 311.05"><path d="M353.39,72.73c5.88,7.52-3.23,17.74.36,23.51S371.07,98,375,107.3c3.73,8.79-7.72,16.29-5.73,22.78s16.26,6.23,17.66,16.2c1.33,9.45-11.67,13.74-11.42,20.54S389.61,177,388.39,187c-1.17,9.48-14.83,10.27-16.36,16.87s11,13.54,7.2,22.86c-3.57,8.86-17,6.07-20.16,12.07s7.09,15.91,1.05,23.94c-5.75,7.62-18,1.46-22.61,6.43s2.74,17.21-5.18,23.39c-7.53,5.89-17.74-3.22-23.51.37s-1.8,17.32-11.06,21.26c-8.78,3.73-16.29-7.73-22.78-5.74s-6.23,16.27-16.18,17.67c-9.46,1.32-13.75-11.67-20.54-11.43S228,328.8,218.05,327.57c-9.48-1.15-10.25-14.84-16.88-16.36s-13.52,11-22.85,7.22c-8.85-3.58-6.06-17-12.06-20.17s-15.91,7.08-23.93,1c-7.63-5.75-1.47-18-6.45-22.6s-17.18,2.73-23.37-5.2c-5.89-7.51,3.22-17.72-.38-23.49S94.81,246.21,90.87,237c-3.73-8.79,7.72-16.29,5.74-22.79S80.35,207.92,78.94,198c-1.33-9.46,11.68-13.76,11.44-20.54s-14.09-10.22-12.88-20.2c1.16-9.48,14.83-10.26,16.36-16.88s-11-13.53-7.21-22.85c3.58-8.86,17-6.06,20.17-12.07s-7.09-15.9-1-23.93c5.75-7.63,18-1.48,22.61-6.44s-2.74-17.19,5.18-23.39c7.52-5.88,17.74,3.25,23.5-.37S158.88,34,168.13,30.06c8.77-3.74,16.29,7.72,22.78,5.72s6.23-16.25,16.18-17.66c9.46-1.34,13.74,11.68,20.55,11.43s10.21-14.08,20.2-12.88c9.47,1.17,10.25,14.84,16.86,16.38s13.54-11,22.85-7.22c8.86,3.57,6.07,17,12.07,20.18s15.91-7.1,23.94-1.07c7.63,5.75,1.47,18,6.43,22.61S347.19,64.82,353.39,72.73Z" transform="translate(-77.42 -16.6)" fill="#efac06" fill-rule="evenodd"/><path d="M151.15,88.32l5.83-.26a7.15,7.15,0,0,0,1.88,4.39A6.34,6.34,0,0,0,163.08,94a6.53,6.53,0,0,0,4.37-1,3.64,3.64,0,0,0,1.61-2.75,2.67,2.67,0,0,0-.52-1.82,4.87,4.87,0,0,0-2.06-1.38c-.67-.3-2.23-.8-4.67-1.55q-4.68-1.44-6.51-3.28A7.8,7.8,0,0,1,154.42,72a8,8,0,0,1,3.82-2.78,14.46,14.46,0,0,1,5.83-.72c3.68.2,6.41,1.18,8.17,2.9a8.72,8.72,0,0,1,2.58,6.71l-6-.12a4.9,4.9,0,0,0-1.44-3.35,5.73,5.73,0,0,0-3.68-1.21,6.61,6.61,0,0,0-4.07.85,2.12,2.12,0,0,0-1,1.79A2.22,2.22,0,0,0,159.4,78c.72.67,2.49,1.42,5.34,2.27A28,28,0,0,1,171,82.67a8.36,8.36,0,0,1,3.08,3.17,9.28,9.28,0,0,1-.74,9.41,8.37,8.37,0,0,1-4.14,3.07,16.37,16.37,0,0,1-6.47.73c-3.71-.2-6.52-1.22-8.43-3a11.24,11.24,0,0,1-3.16-7.69ZM259.59,264.43h0q.36-6.78,4.32-9.85a11.4,11.4,0,0,1,7.85-2.28,11,11,0,0,1,8.05,3.74c2,2.31,2.92,5.42,2.72,9.29a16.31,16.31,0,0,1-1.82,7.33,10,10,0,0,1-4.35,4,12.16,12.16,0,0,1-6,1.18,11,11,0,0,1-8.14-3.74q-3-3.45-2.65-9.64Zm4.25.24h0c-.18,3.13.39,5.51,1.67,7.13a6.89,6.89,0,0,0,10.33.55q2.16-2.24,2.43-7c.17-3-.4-5.34-1.69-7a6.89,6.89,0,0,0-10.32-.56c-1.44,1.48-2.26,3.76-2.42,6.89Zm23.86,13.55h0l4.15.23L293,257.17l4.73.25.17-3.2-4.77-.25.12-2.23a4.38,4.38,0,0,1,.94-3,3.72,3.72,0,0,1,2.72-.67,13.88,13.88,0,0,1,2.43.36l.81-3.59a20.3,20.3,0,0,0-3.85-.64A7.55,7.55,0,0,0,292,245a5.41,5.41,0,0,0-2.24,2.5,11.91,11.91,0,0,0-.62,3.63l-.14,2.6-3.7-.2-.16,3.2,3.68.2-1.15,21.27Zm12.26.67h0l1.15-21.27-3.69-.21.18-3.2,3.67.19.14-2.59a11.72,11.72,0,0,1,.63-3.62,5.3,5.3,0,0,1,2.23-2.5,7.72,7.72,0,0,1,4.28-.78,20.3,20.3,0,0,1,3.85.64l-.82,3.59a13.61,13.61,0,0,0-2.43-.36,3.71,3.71,0,0,0-2.72.66,4.37,4.37,0,0,0-.94,2.95l-.12,2.24,4.78.25-.18,3.21-4.71-.27-1.15,21.28-4.15-.21Zm-17.59-84.54h0a8.49,8.49,0,0,1-2.83,6,8.23,8.23,0,0,1-6.24,2.21,7.74,7.74,0,0,1-3.24-.85,9.81,9.81,0,0,1-2.6-2,8.77,8.77,0,0,1-1.7-2.9,8.4,8.4,0,0,1-.51-3.41l1.44-26.6a7.83,7.83,0,0,1,.86-3.23,9.16,9.16,0,0,1,4.79-4.3,8,8,0,0,1,3.32-.5,8.3,8.3,0,0,1,3.28.85,8.86,8.86,0,0,1,4.34,4.81,7.72,7.72,0,0,1,.53,3.3l-1.44,26.59ZM278,167.45a2.57,2.57,0,0,0-.72-2,3.22,3.22,0,0,0-4.07-.23,2.67,2.67,0,0,0-.88,2l-1.43,26.59a2.81,2.81,0,0,0,.66,2.1,2.9,2.9,0,0,0,2,.89,2.86,2.86,0,0,0,2.05-.69,2.64,2.64,0,0,0,.93-2l1.44-26.6ZM311,162.56l-6.16-.34-41.58,74.54,6.35.34L311,162.56Zm-3,69.66a8.45,8.45,0,0,1-2.83,6,8.18,8.18,0,0,1-6.24,2.21,8,8,0,0,1-3.24-.85,8.81,8.81,0,0,1-2.59-2,8.84,8.84,0,0,1-2.22-6.31l1.44-26.59a7.69,7.69,0,0,1,.87-3.23,8.83,8.83,0,0,1,2-2.59,9,9,0,0,1,2.79-1.71,7.68,7.68,0,0,1,3.32-.51,8.2,8.2,0,0,1,3.28.87,8.57,8.57,0,0,1,2.63,2,9.13,9.13,0,0,1,1.72,2.77,7.83,7.83,0,0,1,.5,3.32L308,232.22Zm-4.33-26.92-1.44,26.61a2.71,2.71,0,0,1-.94,2,3.05,3.05,0,0,1-4.06-.21,3,3,0,0,1-.68-2.1L298,205a2.71,2.71,0,0,1,.89-2,3,3,0,0,1,2.1-.61,2.84,2.84,0,0,1,2,.84,2.51,2.51,0,0,1,.73,2ZM276.41,142h0L278,112.54l12.52.68a21.71,21.71,0,0,1,6.81,1.16,6.74,6.74,0,0,1,3.27,3,8.57,8.57,0,0,1,1,4.71,7.84,7.84,0,0,1-2.24,5.35,9.35,9.35,0,0,1-5.94,2.43,14,14,0,0,1,3,2.62,33.78,33.78,0,0,1,3.1,5l3.27,5.93-7.1-.38-3.91-6.64a41.93,41.93,0,0,0-2.9-4.51,4.76,4.76,0,0,0-1.73-1.31,9.43,9.43,0,0,0-3-.49L283,130l-.67,12.3-5.95-.32Zm6.86-16.65h0l4.41.24a22.34,22.34,0,0,0,5.35-.08,3.12,3.12,0,0,0,1.73-1.15,4,4,0,0,0,.73-2.18,3.49,3.49,0,0,0-.67-2.44,3.7,3.7,0,0,0-2.17-1.29c-.48-.09-1.93-.2-4.33-.33l-4.64-.25-.41,7.48ZM249,140.49h0l22.34,1.21.28-5-16.4-.87.44-8,14.71.81.26-5-14.7-.79.35-6.54,15.81.85.27-5-21.77-1.18L249,140.49Zm-25.1-1.36h0l1.59-29.42,20.22,1.09-.27,5L231.17,115l-.37,7,12.33.66-.26,5L230.53,127l-.67,12.49-6-.31Zm-25.09-1.36h0l1.58-29.42,20.22,1.1-.27,5-14.26-.75-.37,7,12.32.66-.27,5-12.32-.67-.68,12.51-5.95-.33Zm-32.42-16.32h0a19.07,19.07,0,0,1,1.76-7.49,13.9,13.9,0,0,1,2.95-3.89,11.48,11.48,0,0,1,4-2.45,16.11,16.11,0,0,1,6.41-.82,13.85,13.85,0,0,1,10.2,4.59c2.44,2.85,3.55,6.67,3.29,11.46s-1.76,8.42-4.48,11a13.65,13.65,0,0,1-10.57,3.48q-6.58-.36-10.23-4.58t-3.29-11.26Zm6.14.13h0c-.18,3.33.45,5.91,1.9,7.71a8,8,0,0,0,11.72.66c1.62-1.64,2.5-4.14,2.7-7.57s-.42-5.94-1.82-7.68a7.48,7.48,0,0,0-5.78-2.8,7.56,7.56,0,0,0-6.06,2.2c-1.59,1.59-2.48,4.09-2.66,7.48Zm132.81-15.37h0L306.92,77l5.95.33-1.31,24.2,14.75.78-.26,5-20.71-1.11ZM302,106h0L291.81,76l-6.3-.34-13,28.82,6.29.33,2.8-6.57,11.81.63,2.17,6.85L302,106ZM291.76,93.77h0l-8.07-.43,4.56-10.67,3.51,11.1ZM263.89,104h0l1.59-29.42,5.95.32-1.58,29.41-6-.31ZM253.83,92.54h0l5.65,2.08a13,13,0,0,1-4.8,7,12.44,12.44,0,0,1-7.94,1.93A12.66,12.66,0,0,1,237.32,99c-2.37-2.8-3.44-6.51-3.18-11.15.25-4.89,1.73-8.64,4.39-11.21a13.13,13.13,0,0,1,10.21-3.53,12.21,12.21,0,0,1,8.6,3.67,11.59,11.59,0,0,1,2.71,5.6l-5.94,1.07a6.1,6.1,0,0,0-5.94-5.26,6.71,6.71,0,0,0-5.44,2.06c-1.45,1.49-2.27,4-2.46,7.49-.2,3.73.34,6.4,1.59,8.05A6.52,6.52,0,0,0,247,98.45a6,6,0,0,0,4.16-1.29,8.66,8.66,0,0,0,2.72-4.62ZM207,100.9h0l22.35,1.21.27-5-16.4-.91.43-8,14.72.79.27-5-14.72-.79.35-6.53,15.83.85.26-5-21.78-1.19L207,100.9Zm-27.4-1.47h0l5.95.31.6-11.09,3.86.2a33,33,0,0,0,6.18-.09,8.46,8.46,0,0,0,3.14-1.22A8.14,8.14,0,0,0,202,84.77a9.57,9.57,0,0,0,1.22-4.5,9.09,9.09,0,0,0-1.4-5.82,7.68,7.68,0,0,0-4.08-3.12,35.93,35.93,0,0,0-7-.82L181.19,70l-1.58,29.43Zm7.28-24.13h0l2.84.15a29.14,29.14,0,0,1,4.25.43,4.14,4.14,0,0,1,2.31,1.43,3.88,3.88,0,0,1,.8,2.72,3.86,3.86,0,0,1-2.73,3.61,15.37,15.37,0,0,1-4.69.22l-3.24-.18Z" transform="translate(-77.42 -16.6)" fill="#0c2635" fill-rule="evenodd"/></svg>