<svg xmlns="http://www.w3.org/2000/svg" viewBox="0 0 167.87 417.91"><g id="Layer_2" data-name="Layer 2"><g id="OBJECTS"><path d="M48.27,400.47S47.85,395,44.41,395h-6.7c-2.27,0-4.49,3.33-5.13,5.77a3.87,3.87,0,0,0-2.69,2.67c-.47,2.11-1.53,10-1.69,10.77s-.74,3.67,2.69,3.67H55.4c2.16,0,1.9-1.5,1.9-2.36a13.12,13.12,0,0,0-1.64-5.72C54.5,408.16,48.27,400.47,48.27,400.47Z" fill="#4d4c4e" fill-rule="evenodd"/><path d="M48.27,400.47S47.85,395,44.41,395h-6.7c-2.27,0-4.49,3.33-5.13,5.77l2.76,5.49A5.31,5.31,0,0,0,39,407.52h7.75s2-.37,1.94-2.15S48.27,400.47,48.27,400.47Z" fill="#292929" fill-rule="evenodd"/><path d="M28.33,413.48c-.06.38-.1.65-.13.76-.16.78-.74,3.67,2.69,3.67H55.4c2.16,0,1.9-1.5,1.9-2.36a12.06,12.06,0,0,0-.28-2.07Z" fill="#202023" fill-rule="evenodd"/><path d="M96.39,395.88s10.37,9.13,14.13,9.85,12,1.45,13.74,2.47,3.37,5.29,3.57,6.09.64,3.62-1.88,3.62H79.54c-1.94,0-2.33-1.09-2.33-2.68A6.38,6.38,0,0,1,78.37,412v-8.91a3.37,3.37,0,0,1,3.31-3.7c3.91-.25,8.19,2,10.72-2.13C93.52,395.47,94,394.05,96.39,395.88Z" fill="#4d4c4e" fill-rule="evenodd"/><path d="M96.39,395.88s9.94,8.75,13.89,9.8a7.45,7.45,0,0,1-5,2.27c-1.43-.11-12.14-5-13.11-6.33s0-4,0-4h0a2.23,2.23,0,0,0,.2-.3C93.52,395.47,94,394.05,96.39,395.88Z" fill="#292929" fill-rule="evenodd"/><path d="M127,412a16.78,16.78,0,0,1,.86,2.25c.19.79.64,3.62-1.88,3.62H79.54c-1.94,0-2.33-1.09-2.33-2.68A6.38,6.38,0,0,1,78.37,412Z" fill="#202023" fill-rule="evenodd"/><path d="M99.38,80.16s10.12,5.09,11.7,8.53,11.08,50.12,11.08,50.12l9,13.93s-14.21,12.41-25.52,2.48S92,134.67,92,134.67Z" fill="#3d3d3d" fill-rule="evenodd"/><path d="M100.77,180.65l3.14,6.49.84,10a76.89,76.89,0,0,1,4.06,7.14c.6,1.64,2.7,15.08,2.92,17.55S101.05,334,99.56,353.72a299.86,299.86,0,0,0,.4,43.06c.2,1.92-9.08,5.21-12.47,5.49a38.34,38.34,0,0,1-9.41-1.16l-.07,0h0c-1.3-.34-1.39-2-1.39-2l-.9-34.73h0c.11-5.17.1-19.46-.11-25.62s-.91-128.43-.91-128.43l6.42-26.81Z" fill="#202023" fill-rule="evenodd"/><path d="M45.46,181.16,44,185.85s-4.54,3-4.83,4.53-1.6,4.81-2,7,1.89,7.49,1.18,9.14-4.58,82.34-4.58,91.92-.28,9.16-.71,16.54h0l-3,83a3.05,3.05,0,0,0,2.65,3.44c3.11.73,15.14.19,17.29-.26a12.5,12.5,0,0,0,3.2-1.55c1.43-1.24,1-21.81,1.29-25s6.57-66.79,8.29-77.48,14.92-88.71,17.49-99.13,10-10.59,10-10.59Z" fill="#202023" fill-rule="evenodd"/><path d="M106,186.7a119.59,119.59,0,0,1-37.56,2.76C48.31,187.57,83.41,175.54,93,178.87S106,186.7,106,186.7Z" fill="#de8d4d" fill-rule="evenodd"/><path d="M57.86,74.24l-23.54,7.4s6.35,8.89,3.29,34.31c0,0,6.65,30,6.65,34s-3.6,21.28-3.6,23.85c0,2.4,29.34,18.87,58.48,9.29,8.76-2.88,6.51-7.15,6-9.53-4-17.19-3.46-37.94-4.3-42.91-.92-5.42,4.57-15.11,4.57-15.11L99.57,80.36,83.28,74.07Z" fill="#fff" fill-rule="evenodd"/><polygon points="59.96 57.24 80.4 57.24 80.4 79.9 72.28 79.9 59.96 75.1 59.96 57.24" fill="#d77f68" fill-rule="evenodd"/><polygon points="59.96 69.7 74.72 79.9 80.63 69.89 83.28 74.07 80.55 88.38 74.72 79.9 68.19 88.54 57.86 74.26 59.96 69.7" fill="#dbdadb" fill-rule="evenodd"/><path d="M67.61,203.16c0,5.22-2.9,6.38-2.9,6.38-3.34,2.61-29.09,9.76-30.11,9.18s-1.52-3.63-1.52-3.63c6.33-43.56,8.74-54,4.21-95.09,4-23.23.14-41.16.14-41.16,5.63-1.22,11.11-2.35,16.78-3.36,0,0,12,42.59,12.59,45.49C70.12,137.58,67.7,185.8,67.61,203.16Z" fill="#4d4c4e" fill-rule="evenodd"/><path d="M84.19,74.45a4.46,4.46,0,0,1,1.17-.07c.44.07,13.73,5.62,14.06,5.8s.61.29,1.19,3.26,4.9,31.08,5,32.13a62.89,62.89,0,0,1,.75,8c.1,12.8,2.43,33.15,4.61,51,2.07,16.9,4,31.55,3.82,35.35-.1,1.88-3.92,4.06-4.93,4.86s-1.53.8-3.7-.14-8.6-8.56-8.6-8.56a9.69,9.69,0,0,1-2-6.38C95.71,195.78,93,140.3,93,137.4s-.47-18.19-.26-19.93-7.48-42.58-7.48-42.58Z" fill="#4d4c4e" fill-rule="evenodd"/><path d="M90.83,38.88l.45.08h0a6.25,6.25,0,1,1-5.23,1.22c-.17,1.85.11,4.13,2.46,4.38l0-3.61A2.14,2.14,0,0,1,90.83,38.88Z" fill="#d77f68" fill-rule="evenodd"/><path d="M49.62,38.87l-.46.08h0a6.26,6.26,0,1,0,5.21,1.29c.15,1.85-.16,4.13-2.52,4.34l.1-3.6A2.15,2.15,0,0,0,49.62,38.87Z" fill="#d77f68" fill-rule="evenodd"/><path d="M70.18,70.19c-11.67,0-21.41-14.4-21.41-25.77V29.31A21.47,21.47,0,0,1,70.18,7.9h0A21.47,21.47,0,0,1,91.59,29.31V44.1C91.59,56.56,83.1,70.19,70.18,70.19Z" fill="#e6ad83" fill-rule="evenodd"/><path d="M81.65,48.64a3,3,0,1,0,3,2.91A3,3,0,0,0,81.65,48.64Z" fill="#d7766d" fill-rule="evenodd"/><path d="M58.6,49.11a3,3,0,1,0,3,2.91A3,3,0,0,0,58.6,49.11Z" fill="#d7766d" fill-rule="evenodd"/><path d="M63.07,33.1a.91.91,0,0,1,.45,1.19.9.9,0,0,1-1.19.44,5.89,5.89,0,0,0-5.3.35.9.9,0,0,1-1-1.53A7.78,7.78,0,0,1,63.07,33.1Z" fill="#202023" fill-rule="evenodd"/><path d="M84.24,33.5a.9.9,0,1,1-.87,1.57,5.88,5.88,0,0,0-5.3-.09.9.9,0,0,1-1.22-.39.89.89,0,0,1,.39-1.21A7.77,7.77,0,0,1,84.24,33.5Z" fill="#202023" fill-rule="evenodd"/><path d="M70.75,45.86a18.41,18.41,0,0,1,1,3.37c-.08.46-2.45.89-3.08.28-.41-.4.11-2.17.55-3.36C69.88,44.52,70.22,44.4,70.75,45.86Z" fill="#ebbf9e" fill-rule="evenodd"/><path d="M74.68,54.41a4.5,4.5,0,0,1-9,0,.83.83,0,0,1,.83-.82h7.34A.83.83,0,0,1,74.68,54.41Z" fill="#202023" fill-rule="evenodd"/><path d="M67,53.59H73.4v.76a.73.73,0,0,1-.72.72h-5a.73.73,0,0,1-.72-.72Z" fill="#fff" fill-rule="evenodd"/><path d="M73.44,57.51a4.5,4.5,0,0,1-6.52,0,4.52,4.52,0,0,1,6.52,0Z" fill="#d26070" fill-rule="evenodd"/><path d="M59.71,45.11a2.58,2.58,0,1,0-2.58-2.58A2.59,2.59,0,0,0,59.71,45.11Z" fill="#202023" fill-rule="evenodd"/><path d="M80.65,45.11a2.58,2.58,0,1,0-2.58-2.58A2.59,2.59,0,0,0,80.65,45.11Z" fill="#202023" fill-rule="evenodd"/><path d="M48.77,43.82c1.26-.49,2.56-3.75,2.07-8.38,0,0,6.66-4.89,4.29-11.69s-8.35-4.92-8.35-4.92-3.92,3.09,0,21.12C48.5,40.26,48.12,42.53,48.77,43.82Z" fill="#202023" fill-rule="evenodd"/><path d="M91.59,43.82c-1.26-.49-2.56-3.75-2.07-8.38,0,0-6.66-4.89-4.29-11.69s8.35-4.92,8.35-4.92,3.91,3.09,0,21.12C91.86,40.26,92.24,42.53,91.59,43.82Z" fill="#202023" fill-rule="evenodd"/><path d="M67.9,39.93h4.56a3.32,3.32,0,0,1,3.25-2.66h11.8a3.3,3.3,0,0,1,2.34,1l0,0a3.3,3.3,0,0,1,.94,2.3V42.9a5,5,0,0,1-5,5H77.35a4.94,4.94,0,0,1-3.5-1.45h0a4.94,4.94,0,0,1-1.45-3.5V41.23H68V42.9a5,5,0,0,1-4.95,5H54.49A4.92,4.92,0,0,1,51,46.4h0a5,5,0,0,1-1.46-3.5V40.58a3.3,3.3,0,0,1,1-2.34,3.34,3.34,0,0,1,2.35-1h11.8a3.29,3.29,0,0,1,2.3.93l0,0a3.33,3.33,0,0,1,.91,1.69Zm-3.25-1.36H52.85a2,2,0,0,0-1.42.59,2,2,0,0,0-.6,1.42V42.9a3.67,3.67,0,0,0,3.66,3.65H63a3.65,3.65,0,0,0,3.65-3.65V40.58a2,2,0,0,0-.59-1.42l0,0a2,2,0,0,0-1.39-.56Zm22.86,0H75.71a2,2,0,0,0-2,2V42.9a3.65,3.65,0,0,0,3.65,3.65h8.52a3.67,3.67,0,0,0,3.66-3.65V40.58A2,2,0,0,0,89,39.19l0,0A2,2,0,0,0,87.51,38.57Z" fill="#272525" fill-rule="evenodd"/><path d="M37.31,79.07c-.85,1.43-3.72,1.81-5.61,5.28C22.55,101.16,5.41,138.83,5.08,141c-1.1,7.17,1.66,16.69,7.31,18.62,9.84,3.35,30.05-37.39,30.72-43C44.35,106.07,45,92.39,37.31,79.07Z" fill="#3d3d3d" fill-rule="evenodd"/><path d="M164.85,137.47l1.26-.86s-6.22-8.72-6.15-13,7.45-6.62,7.45-6.62a1.32,1.32,0,0,0,.37-1.52c-.3-1-5.11-1.51-7.44-.79s-41.28,22.83-41.28,22.83a7.29,7.29,0,0,0-2.21,5c-.15,3.22,4.07,12.42,5.87,14.48S154,139.09,154,139.09Z" fill="#faeab4" fill-rule="evenodd"/><path d="M164.85,137.47l1.26-.86s-6.22-8.72-6.15-13,7.45-6.62,7.45-6.62a1.32,1.32,0,0,0,.37-1.52c-.28-1-4.42-1.43-6.88-.93a7.14,7.14,0,0,0-2.59,4.86,42.13,42.13,0,0,0,1,12.07s.21,1.38-.62,1.72c-.68.29-28.63,14.74-38.32,19.76a21.67,21.67,0,0,0,2.38,4C124.51,159,154,139.09,154,139.09Z" fill="#dec288" fill-rule="evenodd"/><path d="M154.58,138.39l-1.15-1.24a9.18,9.18,0,0,1,3.73-.59l8.38-.21s.54,0,.57.26,0,2.78,0,2.78l-7.69,1.48a33.59,33.59,0,0,0-3.76,0C154.62,141,154.58,138.39,154.58,138.39Z" fill="#c8a268" fill-rule="evenodd"/><path d="M111.27,166.91l5.07-.59a10,10,0,0,0,2.44-1c1-.62,47.34-26,47.34-26l-10.54.9S112.54,161.65,111.27,166.91Z" fill="#ab8454" fill-rule="evenodd"/><path d="M153.34,137.2a1.95,1.95,0,1,1,2,3.34l-43.73,26.21a1.95,1.95,0,0,1-2-3.34Z" fill="#eac67e" fill-rule="evenodd"/><path d="M156.92,144.39a1.93,1.93,0,0,1-.34,1.56c-.55.56-3.41.9-3.41.9l1.41,3.14s.28,1.79-.41,2.59-3.73,1.62-3.73,1.62-1,3-2.69,3.2a40.45,40.45,0,0,1-5.13-.1s-3.73,1.27-5.11,1.52-3.65-1.18-3.69-2.28,1.66-2.58,4-1.68a3.43,3.43,0,0,1,.69-2.22c.83-1.2,1.89-1.66,4.36-.55a3.12,3.12,0,0,1,1-2.34c1.11-.9,4.31-.59,4.31-.59Z" fill="#e6ad83" fill-rule="evenodd"/><path d="M137.48,154.94a.32.32,0,0,1,.22-.4.34.34,0,0,1,.4.23s.33,1.42,4.58,2.21a.33.33,0,0,1,.26.38.34.34,0,0,1-.38.26c-4.66-.86-5.08-2.67-5.08-2.68Zm10.72-5.46a.33.33,0,1,1,0-.65h2.94a.32.32,0,0,1,.32.33.32.32,0,0,1-.32.32Zm-5.75,2.66a2.37,2.37,0,0,0,1.21,1.33c1,.59,6.74,1.05,6.76,1.05a.33.33,0,1,0,.05-.65s-5.61-.44-6.48-1-.92-.94-.92-.94a.32.32,0,1,0-.62.17Z" fill="#d77f68" fill-rule="evenodd"/><path d="M9.45,86.88l-1.18.51.39-7.11a2.61,2.61,0,0,1,1-2.29,22.64,22.64,0,0,1,3.79-1.79,3.87,3.87,0,0,1,2.09,0c1.17.3,4.5,1.27,4.5,1.27a1,1,0,0,1,.6,1.14c-.13.87-1.42,1.91-5.26,1L13,80.31l.15,1.48Z" fill="#d77f68" fill-rule="evenodd"/><path d="M.24,67.19l.86-1a.93.93,0,0,1,1.31-.06L30,90.52A.93.93,0,0,1,30,91.83l-.86.94a.94.94,0,0,1-1.31.07L.31,68.5A.92.92,0,0,1,.24,67.19Z" fill="#eac67e" fill-rule="evenodd"/><path d="M21.4,85.59s.12-2.12-1-2.75S15,80.58,15,80.58a2.77,2.77,0,0,0-2.75,1.14c-1.09,1.52-4.81,6.88-4.81,6.88a3.22,3.22,0,0,0,.13,2.93,6.56,6.56,0,0,0-.26,3.19c.39,1.28,3.62,7.1,4.06,8.56s-.72,5.32-.72,5.32L20.21,110s.39-4.17.77-5.81,3.41-6.7,3.22-8.85S22,89.37,22,89.37a9.28,9.28,0,0,1,1.45.57,10.42,10.42,0,0,0,1.73.94c.49.1,1.7-.49,1.72-1s-.71-1.12-2.11-2.23S22.59,85.63,21.4,85.59Z" fill="#e6ad83" fill-rule="evenodd"/><path d="M21.4,85.59l-6.3-.89a1.55,1.55,0,0,0-1.39.52c-.59.67-6.15,6.31-6.15,6.31m5.57,6a4.41,4.41,0,0,0,1.78-5.4l1.59-.16c.37,0,4.73,1.88,4.16-1.6-.1-.63-1.17-1-2.47-1.59m3.81.63-3.1-.52s-3.12-.54-3.79-.17S10,92.33,10,92.33" fill="none" stroke="#d77f68" stroke-linecap="round" stroke-linejoin="round" stroke-width="0.71" fill-rule="evenodd"/><path d="M9,102.34l13.9,2.25s1.37.5,1.19,1.66-.4,43.65-.4,43.65C18.24,168.23-1.52,164.16.78,142.7c.53-4.89,1.52-10.39,2.4-15.24,1.74-9.56,4.34-23.74,4.34-23.74S7.88,102.34,9,102.34Z" fill="#3d3d3d" fill-rule="evenodd"/><path d="M80.29,186q1,0,2-.06a19.38,19.38,0,0,0,.77-6.91c-.08-1.09-.37-4.81-.76-9.74C79.84,138,79.5,111.06,75,79.4a1,1,0,0,0-1.09-.79.93.93,0,0,0-.84,1c4.42,31.63,4.81,58.53,7.27,89.79.39,5,.69,8.72.76,9.73a16.77,16.77,0,0,1-.78,6.54A1.12,1.12,0,0,0,80.29,186Z" fill="#dbdadb" fill-rule="evenodd"/><path d="M93.56,19.77C92.73-10.72,53.44.13,46.5,12.2c-.09.15-.11.57-.25.46-9.5-7.07-3.67,13.13,5.66,14.28s20.93,1.72,30.89-2.48c0,0,2.31-1.32,3,1.79s6.92-.35,6.92-.35Z" fill="#202023" fill-rule="evenodd"/><path d="M70.18,67.1a2.07,2.07,0,0,1,1.39.56,2.08,2.08,0,0,1,1.75,0,2.73,2.73,0,0,1,2-.06,6.32,6.32,0,0,1,2.2-.37c.53.18.32,3.9-7.3,3.9s-7.84-3.72-7.3-3.9a6.32,6.32,0,0,1,2.2.37,2.73,2.73,0,0,1,2,.06,2.08,2.08,0,0,1,1.75,0A2.06,2.06,0,0,1,70.18,67.1Z" fill="#202023" fill-rule="evenodd"/></g></g></svg>