<svg xmlns="http://www.w3.org/2000/svg" viewBox="0 0 70.03 177.43"><g style="isolation:isolate"><g id="Layer_2" data-name="Layer 2"><g id="OBJECTS"><path d="M35.34,42.19A6.3,6.3,0,1,1,28.73,36,6.4,6.4,0,0,1,35.34,42.19Z" fill="#5c311e"/><path d="M50.12,24.9c.48,10-4.58,17.93-14.48,18.4s-17-8.93-17.45-18.91S24,7.64,33.89,7.16,49.63,14.92,50.12,24.9Z" fill="#5c311e"/><path d="M23.75,138.58c3.42,2.54-3.19,4.23-3.19,4.23a15.84,15.84,0,0,0-4.73,2.65c-3.24,2.76-6.9,6.73-6.77,3.79a13.85,13.85,0,0,1,2.27-7.05A15.61,15.61,0,0,1,16.52,138l-3.85-.51.46-1.23A13.94,13.94,0,0,1,23.75,138.58Z" fill="#31363d"/><path d="M16.4,141.43a10.29,10.29,0,0,1,6.09-2.25c1.12-.05,15,.39,21.81,2.31,0,0-4-28-2-32a6.8,6.8,0,0,1,6.41-3.6S55.21,133.14,53,142.3,47.74,150,39,147.51c-5.67-1.6-11.92-2.92-14.74-3.83a10.19,10.19,0,0,0-4.32.48,38.3,38.3,0,0,0-6.92,3.08C13,144.38,14.81,142.73,16.4,141.43Z" fill="#de947a"/><path d="M15.85,159.29c4.25-.21.23,5.29.23,5.29a15.84,15.84,0,0,0-2,5.06c-.75,4.19-1,9.58-2.82,7.22A13.7,13.7,0,0,1,8.57,170a15.44,15.44,0,0,1,1.31-6.56l-3.3,2-.43-1.23A14,14,0,0,1,15.85,159.29Z" fill="#383e46"/><path d="M42.35,147.7c1.1,4.78-2.33,5.83-9,8.78-5.39,2.37-11,5.31-13.81,6.41a10.31,10.31,0,0,0-3,3.1,39.47,39.47,0,0,0-3.39,6.79c-1.85-2.18-1.51-4.6-1.11-6.62a12.07,12.07,0,0,1,3.29-5.6C30.27,143.71,40.56,145.75,42.35,147.7Z" fill="#f0a98f"/><path d="M43.22,146.23c-.24,2.88-.72,4.78-1.52,6-2.5,1.89-5.37-2.14-7.23-5.61-.61-2-8.16-27.1-6.79-31.21,1.44-4.28,10.91-6,10.91-6S44,136.83,43.22,146.23Z" fill="#f0a98f"/><path d="M53.19,125.62c.1-4.49,0-11.12-.47-16.86C51.87,98.71,49.28,88,46.41,84.57l-18.34,4s-2.34,5.34-2.85,17.64a157.27,157.27,0,0,0,.71,19.69,130,130,0,0,0,23,.12c-.16-6.83-.34-14.86-.34-14.86l2.81,14.76A15,15,0,0,0,53.19,125.62Z" fill="#22272e"/><path d="M32.09,80.8c-.37-1.21-9.41-27.26-9.41-27.26s16.47-5.74,27.38-1.33L44.24,76.65Z" fill="#9dcad1"/><path d="M23,53.61,25.42,62s-4.12,4.48,2,8.27l2.93,10.14L26.18,93.14l13.29.27,2.2-4.25,2.47,4.11s3.89.37,5.69-1.94L45.15,79.72l2-10.46s4.7-2.78,1.59-8l1.63-8.84-5.75-1.45L38.38,69.29l-10.74-17Z" fill="#3e4753"/><path d="M39,49.94A3.08,3.08,0,0,1,36,53.17h0a3.09,3.09,0,0,1-3.23-2.94L32.42,42a3.08,3.08,0,0,1,2.93-3.23h0a3.09,3.09,0,0,1,3.23,2.93Z" fill="#d8826c"/><path d="M47.77,29c.45,9.44-3.56,14.9-10.74,15.4-7.65.54-14.85-4.7-15.31-14.14s2-19.31,12.1-19.8C43.72,9.94,47.31,19.52,47.77,29Z" fill="#f0a98f"/><path d="M47.82,27.3s3.33-5.06,4.6-.42c1,3.69-2.2,6.61-4.3,6S47.82,27.3,47.82,27.3Z" fill="#f0a98f"/><path d="M47.82,28.17s2.38-3.2,3.1-1.79a5.72,5.72,0,0,1,.42,3.15s-.36-1.94-1.86-1c0,0,1.25,3.15-1.55,2.06A1.81,1.81,0,0,1,47.82,28.17Z" fill="#d8826c"/><path d="M21.66,28.56s-3.81-4.71-4.62,0c-.65,3.77,2.83,6.36,4.86,5.56S21.66,28.56,21.66,28.56Z" fill="#f0a98f"/><path d="M21.74,29.43s-2.68-3-3.26-1.48a5.68,5.68,0,0,0-.11,3.17s.17-2,1.76-1.14c0,0-.95,3.26,1.74,1.91A1.81,1.81,0,0,0,21.74,29.43Z" fill="#d8826c"/><path d="M28.64,51.88c-.46-.88,4.13-4.63,4.13-4.63s.95,4.65,3.27,5.92l-1.86,5.58A25.66,25.66,0,0,1,28.64,51.88Z" fill="#d7eef2"/><path d="M43.33,51.17C43.7,50.25,39,47,39,47s-.73,4.71-2.93,6.18l4.08,4.2A32.15,32.15,0,0,0,43.33,51.17Z" fill="#d7eef2"/><path d="M29.41,9.64s3.53-8,9.67-4.38,14.14,11.47,15.7,5.42c0,0-2.11,16-14.18,8.92S29.41,9.64,29.41,9.64Z" fill="#5c311e"/><path d="M34.43,11.25A44.3,44.3,0,0,1,21.2,27.12a12.37,12.37,0,0,1-2.78-6.45C17.81,13.3,23.34-1,34.43,11.25Z" fill="#5c311e"/><path d="M34.43,11.25l-2.65.54A12.22,12.22,0,0,0,41,23.08S34.54,17.83,34.43,11.25Z" fill="#5c311e"/><path d="M27.54,69s8.62,3.69,18.86-1.74C46.4,67.28,38.73,79,27.54,69Z" fill="#ded9d5" style="mix-blend-mode:multiply"/><path d="M40.61,72.71a1.1,1.1,0,0,1-1,1.13,1.08,1.08,0,1,1,1-1.13Z" fill="#22272e"/><path d="M41,78.45a1.08,1.08,0,1,1-1.13-1A1.08,1.08,0,0,1,41,78.45Z" fill="#22272e"/><path d="M41.77,85.41a1.08,1.08,0,1,1-1.14-1A1.08,1.08,0,0,1,41.77,85.41Z" fill="#22272e"/><path d="M23.39,34.22a1,1,0,1,1-1.07-1A1,1,0,0,1,23.39,34.22Z" fill="#fff700"/><path d="M49.27,33a1,1,0,1,1-2.05.1,1,1,0,0,1,1-1.07A1,1,0,0,1,49.27,33Z" fill="#fff700"/><path d="M38.12,57.8a.62.62,0,0,1-.59.65.62.62,0,0,1-.06-1.24A.63.63,0,0,1,38.12,57.8Z" fill="#d7eef2"/><path d="M39.16,62.28a.63.63,0,0,1-.59.65.62.62,0,0,1-.06-1.24A.63.63,0,0,1,39.16,62.28Z" fill="#d7eef2"/><path d="M34.88,33s1.77,2.69,3.4-.22Z" fill="#d8826c"/><path d="M32.67,32.8c.07,1.5-1.43,2.79-3.35,2.88s-3.53-1-3.61-2.55,1.43-2.79,3.35-2.89S32.6,31.3,32.67,32.8Z" fill="#f08671"/><path d="M46.42,32.13c.07,1.5-1.43,2.8-3.35,2.89S39.54,34,39.46,32.47s1.43-2.8,3.35-2.89S46.35,30.63,46.42,32.13Z" fill="#f08671"/><path d="M25.37,23.61s2.92-4.37,7.94-1A10.15,10.15,0,0,0,25.37,23.61Z" fill="#361d11"/><path d="M39,22.26s3.48-3.83,7.62.31A9.23,9.23,0,0,0,39,22.26Z" fill="#361d11"/><path d="M33,29.15A3.31,3.31,0,0,0,31,26c-3.27-1.49-4.83,2.4-5.83,3.06,0,0,.7.63,1.18.38C26.38,29.47,29.57,23.63,33,29.15Z" fill="#302725"/><path d="M39.2,28.85a3.29,3.29,0,0,1,1.66-3.29C44,23.76,45.9,27.47,47,28c0,0-.63.7-1.13.49C45.82,28.53,42.08,23,39.2,28.85Z" fill="#302725"/><path d="M41.88,33.4a11.43,11.43,0,0,1-1.12,2.87c-1.12,2-3.19,3.8-6.65,1.3A17,17,0,0,1,31,34.47l1,.08c2.13.14,7.13.36,9.17-.57A1.72,1.72,0,0,0,41.88,33.4Z" fill="#712311"/><path d="M40.76,36.27c-1.12,2-3.19,3.8-6.65,1.3C35.53,36.79,38.18,35.66,40.76,36.27Z" fill="#d5503b"/><path d="M41.11,34c-2.49,4-6.84,2.05-9.17.57C34.07,34.69,39.07,34.91,41.11,34Z" fill="#fff"/><path d="M7.5,6.25a6.18,6.18,0,0,1-.39,1.22.15.15,0,0,1-.28-.1,9.29,9.29,0,0,1,.39-1.25A1.9,1.9,0,0,0,7,4.72,4.11,4.11,0,0,0,5.38,3.33a3.91,3.91,0,0,0-1.8-.25A2.43,2.43,0,0,0,3,3a2.13,2.13,0,0,0-1.42.44,1.1,1.1,0,0,0-.27.38,1.3,1.3,0,0,0-1,.93,6.06,6.06,0,0,0-.13,3c.26,2.11,1.28,4,1.5,6.14a.1.1,0,0,1,0,0,2,2,0,0,0,1.66.42c.72-.05,1.3-.19,1.55-1C5.2,12.42,6.21,11.9,7,11.31A3.74,3.74,0,0,0,8.42,8,6.94,6.94,0,0,1,9,4.78C8.26,4.87,7.8,5.53,7.5,6.25Z" fill="#f0a98f"/><path d="M24.77,65.51S8.59,54.38,4.56,50.57c-5-4.78-4.38-25-3.66-35.45q.09-1.26.18-2.31a31.5,31.5,0,0,0,4.45.11c.15.61.3,1.33.46,2.12,1.89,9.51,4.38,30.74,4.41,31.41,3.94,2,10.93,4.68,12.28,7,1.18,2,2.69,5,2.94,7.06A8,8,0,0,1,24.77,65.51Z" fill="#3e4753"/><path d="M6,15,.9,15.12q.09-1.26.18-2.31a31.5,31.5,0,0,0,4.45.11C5.68,13.53,5.83,14.25,6,15Z" fill="#d7eef2"/><path d="M58.65,2.39a7,7,0,0,1,.89,3.15,3.75,3.75,0,0,0,1.78,3.15c.79.51,1.84.93,2.25,1.85.33.74.91.82,1.64.81a2,2,0,0,0,1.61-.59s0,0,.05,0c0-2.13.85-4.14.9-6.27a6.21,6.21,0,0,0-.41-3A1.34,1.34,0,0,0,66.24.67a1.12,1.12,0,0,0-.31-.34A2.14,2.14,0,0,0,64.47,0a3.1,3.1,0,0,0-.6.15,4.07,4.07,0,0,0-1.76.42,4.13,4.13,0,0,0-1.5,1.55,1.91,1.91,0,0,0-.07,1.41,8.07,8.07,0,0,1,.52,1.2c.06.16-.19.29-.27.13a6.1,6.1,0,0,1-.51-1.18A2.07,2.07,0,0,0,58.65,2.39Z" fill="#f0a98f"/><path d="M48.8,64.35s15-12.63,18.68-16.82c4.57-5.24,2-25.26.22-35.63l-.39-2.29a30.14,30.14,0,0,1-4.42.54c-.09.63-.17,1.35-.26,2.15-1,9.66-1.4,31-1.36,31.69-3.73,2.38-10.43,5.72-11.55,8.17-1,2.15-2.2,5.2-2.25,7.32A8,8,0,0,0,48.8,64.35Z" fill="#3e4753"/><path d="M62.63,12.3l5.07-.4-.39-2.29a30.14,30.14,0,0,1-4.42.54C62.8,10.78,62.72,11.5,62.63,12.3Z" fill="#d7eef2"/></g></g></g></svg>