<svg xmlns="http://www.w3.org/2000/svg" xmlns:xlink="http://www.w3.org/1999/xlink" viewBox="0 0 176.02 428.96"><defs><linearGradient id="linear-gradient" x1="142.39" y1="137.56" x2="149.05" y2="126.19" gradientUnits="userSpaceOnUse"><stop offset="0" stop-color="#302624" stop-opacity="0.5"/><stop offset="0.24" stop-color="#302624" stop-opacity="0.36"/><stop offset="0.99" stop-color="#302624" stop-opacity="0"/></linearGradient><linearGradient id="linear-gradient-2" x1="86.62" y1="143.73" x2="91.66" y2="201.98" xlink:href="#linear-gradient"/><linearGradient id="linear-gradient-3" x1="90" y1="105.74" x2="112.47" y2="167.12" gradientUnits="userSpaceOnUse"><stop offset="0" stop-color="#cfd4d8"/><stop offset="0.33" stop-color="#cfd4d8" stop-opacity="0.63"/><stop offset="0.65" stop-color="#cfd4d8" stop-opacity="0.29"/><stop offset="0.88" stop-color="#cfd4d8" stop-opacity="0.08"/><stop offset="1" stop-color="#cfd4d8" stop-opacity="0"/></linearGradient><linearGradient id="linear-gradient-4" x1="62.19" y1="285.86" x2="59.68" y2="413" xlink:href="#linear-gradient"/><linearGradient id="linear-gradient-5" x1="110.09" y1="286.8" x2="107.58" y2="413.95" xlink:href="#linear-gradient"/><radialGradient id="radial-gradient" cx="-1139.78" cy="133.06" r="6.23" gradientTransform="matrix(-1, 0.05, 0.05, 1, -1073.85, -16.92)" gradientUnits="userSpaceOnUse"><stop offset="0" stop-color="#f69d7d" stop-opacity="0.7"/><stop offset="0.14" stop-color="#f69d7d" stop-opacity="0.63"/><stop offset="0.42" stop-color="#f69d7d" stop-opacity="0.44"/><stop offset="0.81" stop-color="#f69d7d" stop-opacity="0.15"/><stop offset="1" stop-color="#f69d7d" stop-opacity="0"/></radialGradient><radialGradient id="radial-gradient-2" cx="-1167.97" cy="133.06" r="6.23" xlink:href="#radial-gradient"/><linearGradient id="linear-gradient-6" x1="-1035.08" y1="56.75" x2="-1030.43" y2="54.14" gradientTransform="matrix(-1, 0, 0, 1, -979.56, 0)" gradientUnits="userSpaceOnUse"><stop offset="0" stop-color="#f69d7d"/><stop offset="0.23" stop-color="#f69d7d" stop-opacity="0.93"/><stop offset="0.68" stop-color="#f69d7d" stop-opacity="0.75"/><stop offset="1" stop-color="#f69d7d" stop-opacity="0.6"/></linearGradient><linearGradient id="linear-gradient-7" x1="79.75" y1="32.24" x2="75.88" y2="13.19" gradientUnits="userSpaceOnUse"><stop offset="0" stop-color="#f8e8d8" stop-opacity="0.2"/><stop offset="0.41" stop-color="#f8e8d8" stop-opacity="0.13"/><stop offset="1" stop-color="#f8e8d8" stop-opacity="0"/></linearGradient></defs><g id="Layer_2" data-name="Layer 2"><g id="OBJECTS"><path d="M142.12,196.67c-1.78-2.72-3.66-5.38-5.69-7.93l-2.59,2.56c-2.79,2.74-4.71,4.6-5.09,4.88-1.81,1.34-9.72,2.06-9.45,7.32,0,0-1.92,2.88-3.49,5.59s5.49,2.06,5.94,5.06,5.33.91,6.48,3.86,1.24,2.68,3.8,2.43,4.86-2.52,4.68-6.88c0,0,5.26-.86,5.82-5.7a3.52,3.52,0,0,0,0-.45C142.64,203.63,138.53,200.22,142.12,196.67Z" fill="#fbc0a4"/><path d="M146.64,194.85,144,198.48A26,26,0,0,1,133,189.2l2.84-4.73Z" fill="#f8e8d8"/><path d="M147.82,197.31C140.38,194.08,133,185,133,185l14.78-30.66-23.94-23.55-1.65-33.12c10.82,3.5,51.71,45.72,53.86,55.61C176.77,156.76,147.82,197.31,147.82,197.31Z" fill="#3e3533"/><path d="M147.82,197.31C140.38,194.08,133,185,133,185l14.78-30.66-23.94-23.55-1.65-33.12c10.82,3.5,51.71,45.72,53.86,55.61C176.77,156.76,147.82,197.31,147.82,197.31Z" fill="url(#linear-gradient)"/><path d="M44.17,407.43l2.09-11.19L59,398.1l-.68,10.5s-2.4,4.7-9.1,4.82S44.17,407.43,44.17,407.43Z" fill="#302624"/><polygon points="101.09 400.31 100.68 409.41 103.12 415.34 113.65 411.99 115.94 405.24 116.71 394.75 101.09 400.31" fill="#302624"/><path d="M140.28,415.77c-3.27-1.63-13.64-4.76-20.9-10.51a3.52,3.52,0,0,0-2.84-.68l-.56.1a9.32,9.32,0,0,1-6.3,6.6c-3.61,1.16-9-1.87-9-1.87l-1,12.91h41.55a2.4,2.4,0,0,0,1.11-1.34S144.44,417.85,140.28,415.77Z" fill="#302624"/><path d="M57.54,195.25s-6.41,81.83-7,89.26S42,402.71,42,402.71c9.84,3.85,20.43.89,20.43.89L79.63,292l11.31-59.54,3.82-1.06s1.29,72.49,1.32,72.12,1.63,97.34,1.63,97.34c9.52,4.81,22.76-.39,22.76-.39s4.12-94.79,5.28-100.33,1.48-111.87,1.48-111.87Z" fill="#3e3533"/><path d="M55.61,219.85c17.41,4.73,49.62,8.88,71.49-3.74,0-6.64.07-12.57.09-17.24L56.78,205C56.46,209.08,56.05,214.19,55.61,219.85Z" fill="#302624"/><path d="M123.69,187.85c-.55-2-1-3.26-1-3.26l-62.17,2.56s-.21,1.26-.55,3.43c.3.43.55.75.55.75C88.27,202.66,108.37,202.67,123.69,187.85Z" fill="#330e00"/><path d="M46.85,135l10.9,40-5.54,37.4s49.21,18.71,80.1-1.44L126,127.39Z" fill="#3e3533"/><path d="M122.14,97.62c6.6,2.77,12,10.57,3.82,29.77l-2.83,59.13s3.16,9.11,1.17,11c-15.33,14.86-35.44,14.86-63.21,3.53a13.16,13.16,0,0,1-1.65-2.61c-1-4,2.37-15.24,2.37-15.24L46.29,135S31,114.17,41.12,106.61C57.06,94.73,96,86.63,122.14,97.62Z" fill="#3e3533"/><path d="M132.31,211l-3.69-48.51a95.84,95.84,0,0,0-16.72,28.4,118.22,118.22,0,0,1-41.5-36q6.06,16.23,12.14,32.45C72,175.05,55.5,141.79,45,129.48L57.75,175l-5.54,37.4S101.42,231.13,132.31,211Z" fill="url(#linear-gradient-2)"/><path d="M100.12,92.68s6.12-.26,7.24.43,3.9,8.73,4.46,10-7.45,8.75-7.45,8.75,6.61,10.85,6.33,11.72-12,48.28-12,48.28-28.4-42.36-29-44.47,2.72-13,2.72-13-8.41-6.19-8.92-7.55-1.58-10,0-11.08c1-.68,6.63-2,6.63-2Z" fill="#302624"/><path d="M70.16,95.86h0s8.71,22.46,16.37,42.24c6,15.56,12.69-.72,12.69-.72l1.88-44.6c-.42,0-1.29-.14-1.7-.16Z" fill="#f8e8d8"/><path d="M98.92,107c1.74-.42,1.83-5.87,1.83-5.87l.34-8.26a.61.61,0,0,0,0-.12c-.44,0-1.25-.14-1.64-.16l-26.95,3c.1.32-1,2.57-.79,3.2,1.57,4.59,6.6,11.2,7.6,11.36,1.19.19,4.2-3.26,4.61-4.39.62.56,1.68,2.23,2.29,2.79.33,8,0,18.6-.09,28.36,4.67,12,9,23.28,10.9,28.12.34.46.69.88,1,1.29l1-23.86L89.89,108c1-1.32,2.21-2.3,3.18-3.62A8.52,8.52,0,0,0,98.92,107Z" fill="url(#linear-gradient-3)"/><path d="M92.69,97.16c-2.61,1.51-8,2.3-11,2.37-4.36.12-2.61-2.43-4.06-2.82L63.53,64.05,89.12,75.58l.06,1.09Z" fill="#fbc0a4"/><path d="M85.66,87a25.74,25.74,0,0,1-7.86-2.29,53.48,53.48,0,0,1-7-3.82l-7.3-16.84L89.12,75.58l.06,1.09L91,87.5C89.24,87.32,87.45,87.21,85.66,87Z" fill="#f69d7d"/><path d="M99.22,137.38l-9.11-30.74,4-4.48L87.33,98l-5.17,4.78L87,107.06a286.46,286.46,0,0,0-.44,31L98,167.56Z" fill="#f84511"/><path d="M74.09,88.43S84.38,98.29,87,97.86,91,87.5,91,87.5s9.4,2.7,10.55,4-1.66,14.17-2.9,14.8c-2.6,1.31-10.44-7.44-11.86-6.32s-5.47,8.59-6.8,8.44S68.09,97.83,68.69,94,74.09,88.43,74.09,88.43Z" fill="#f8e8d8"/><path d="M55.55,409.25c-5-4.74-9.48-.74-9.48-.74l-1.9-1.08c-2.77,4.15-8.08,9.11-8.75,11.54-1.27,4.61,1,10,8.42,10,7.25,0,14.24-4.44,15-8,.47-2.15-.29-8-.53-12.32Z" fill="#302624"/><path d="M79.63,292l.34-1.78C76.22,303.28,71,321,70.05,321c-1.48.07-16.35-2.31-17-4.27-.29-.88-1.54-14.21-2.82-28.74C48.7,308.49,42,402.71,42,402.71c9.84,3.85,20.43.89,20.43.89Z" fill="url(#linear-gradient-4)"/><path d="M120.47,400.42v-.31c0-.1,0-.22,0-.36,0-.42,0-1,.08-1.8,0-.17,0-.36,0-.55,0-.35,0-.73.05-1.14,0-.15,0-.31,0-.47,0-.9.09-1.92.14-3,0-.18,0-.37,0-.56q0-1,.09-2v0c0-.74.06-1.52.1-2.32l0-.39c.09-2,.18-4.13.29-6.43l0-.68c.18-3.93.38-8.25.59-12.78v-.23q.12-2.55.24-5.19V362c.68-14.51,1.46-30.41,2.14-42.49v0c.17-3,.34-5.8.49-8.26-3,2.19-8.16,5.66-10.25,5.59-3-.1-13.32-8.45-13.92-12.17-.48-3-4-30.87-5.36-41.95.35,19.56.74,41,.76,40.83,0,0,0,.12,0,.4v.18c0,1.11.07,3.8.14,7.59,0,.22,0,.45,0,.68,0,1.38.05,2.9.07,4.54,0,.54,0,1.1,0,1.67,0,2.27.08,4.74.13,7.36,0,.32,0,.65,0,1,.49,28.8,1.23,73.94,1.23,73.94a18.85,18.85,0,0,0,5.64,1.75c.64.1,1.29.17,1.93.22s1.29.07,1.93.07,1.27,0,1.89-.05,1.23-.08,1.82-.15,1.18-.14,1.74-.23c.85-.13,1.65-.28,2.39-.44l1.42-.33a34.75,34.75,0,0,0,4-1.23Z" fill="url(#linear-gradient-5)"/><path d="M39.31,203.38c1.4-2.94,2.91-5.82,4.59-8.62l2.91,2.2c3.12,2.35,5.27,3.94,5.68,4.16,2,1.1,9.91.77,10.33,6,0,0,2.28,2.6,4.2,5.08S61.85,215,61.79,218s-5.16,1.61-5.91,4.68-.88,2.82-3.45,2.9-5.15-1.85-5.54-6.2c0,0-5.33-.16-6.52-4.88a3.58,3.58,0,0,1-.09-.45C39.7,210.34,43.33,206.42,39.31,203.38Z" fill="#fbc0a4"/><path d="M34.58,202.16l3.08,3.25a26,26,0,0,0,9.75-10.65L44,190.45Z" fill="#f8e8d8"/><path d="M33.74,204.76c6.95-4.19,13.11-14.21,13.11-14.21L28.17,162.1,48.8,135.61l-7.68-29C28.72,116.92.84,154.68,0,164.77-.3,168.37,33.74,204.76,33.74,204.76Z" fill="#3e3533"/><path d="M58.1,56.44s3.25-.18,4.65-1.89-3.18-15.74-3.18-15.74,4.35-3.76,4.42-9-3.43-8-8.87-7.66-13.28,7.56-13.28,7.56l4,2.05s1.28,12,3,15S58.1,56.44,58.1,56.44Z" fill="#3e3533"/><path d="M47.63,33.11C49.23,40.58,54.5,59,54.5,59l4.69-5.35-2.35-23Z" fill="#3e3533"/><path d="M54.56,46.45s-8.85-2-7.63,8.54,8.88,10.78,11.14,11.24c0,0,4.21,18.81,27.41,17s19.41-19.78,19.24-31.69,1.16-32.61-14-34.14S53.21,16.88,54.56,46.45Z" fill="#fbc0a4"/><path d="M88.2,63.1c0-.11.18-.2.42-.4a2.49,2.49,0,0,0,.76-1,2.9,2.9,0,0,0,.21-.82v-.34h0v-.11a3,3,0,0,0-.07-.51,10.23,10.23,0,0,0-.88-2.36C87,54,86,51.05,86.39,50.88s2,2.54,3.61,6.06a8.92,8.92,0,0,1,.89,2.79,4.22,4.22,0,0,1,0,.71c0,.07,0,.13,0,.2l0,.14v.07l0,.09a1.62,1.62,0,0,0,0,.19,3.68,3.68,0,0,1-.52,1.11,2.34,2.34,0,0,1-1.44,1C88.43,63.3,88.21,63.2,88.2,63.1Z" fill="#f69d7d"/><path d="M81.44,44.24c-.12.18-.77-.1-1.8-.39a11.28,11.28,0,0,0-4.07-.4l-.27,0-.29,0-.56.11a9.82,9.82,0,0,0-1,.28,11.94,11.94,0,0,0-1.72.71l-1.15.59c-.29.14-.48.2-.55.13s0-.27.16-.55a4.78,4.78,0,0,1,1-1A8.19,8.19,0,0,1,75.46,42c.22,0,.43,0,.67,0s.46,0,.68,0a9.39,9.39,0,0,1,1.25.18,7.45,7.45,0,0,1,2,.75C81.09,43.48,81.56,44.08,81.44,44.24Z" fill="#3e3533"/><path d="M90.41,43.85c-.14-.13.2-.81,1.13-1.59a7.22,7.22,0,0,1,1.8-1.11,8.33,8.33,0,0,1,1.19-.42c.22-.06.43-.11.66-.15l.66-.09a8,8,0,0,1,4.61.91,4.81,4.81,0,0,1,1.15.84c.23.25.31.42.26.51s-.26.06-.57,0l-1.24-.36A11,11,0,0,0,98.24,42a9.13,9.13,0,0,0-1.08-.08c-.18,0-.37,0-.56,0l-.29,0L96,42a11.17,11.17,0,0,0-3.92,1.17C91.16,43.61,90.57,44,90.41,43.85Z" fill="#3e3533"/><path d="M77.06,63.87a6.23,6.23,0,1,1-6.5-5.94A6.22,6.22,0,0,1,77.06,63.87Z" fill="url(#radial-gradient)"/><path d="M105.22,62.59a6.23,6.23,0,1,1-6.5-5.94A6.22,6.22,0,0,1,105.22,62.59Z" fill="url(#radial-gradient-2)"/><path d="M78.16,63A24.44,24.44,0,0,0,93,64.8c-1.07,3.93-2.33,6.7-8,6.36A7.06,7.06,0,0,1,78.16,63Z" fill="#cb4453"/><path d="M78.14,63.2a10.07,10.07,0,0,1,1.4.58,20.38,20.38,0,0,1,8,7.28,12.9,12.9,0,0,1-2.56.1A7.06,7.06,0,0,1,78.14,63.2Z" fill="#dd5664"/><path d="M91.26,65.08a10.61,10.61,0,0,1-.53,1.8c-.19.34-6.67,1.56-12.56-1.66a5.92,5.92,0,0,1,0-2.23A29.42,29.42,0,0,0,91.26,65.08Z" fill="#f8e8d8"/><path d="M50,51.16c-.8,2.8.34,5.74,1.47,8.43a4.42,4.42,0,0,0,1.42,2.12,1.57,1.57,0,0,0,2.25-.36c.37-.75-.17-1.6-.59-2.33s-.65-1.81,0-2.26c.33-.21.76-.19,1.1-.38.75-.39.74-1.46.55-2.29a12.87,12.87,0,0,0-1.26-3.27c-.55-1-1.43-2-2.58-2S50.29,50,50,51.16Z" fill="url(#linear-gradient-6)"/><path d="M54.56,46.45A13.84,13.84,0,0,1,59.19,55h2.68V44.82s8.1-2.23,5-14.12-15.13-.08-15.13-.08Z" fill="#3e3533"/><path d="M77.66,27.68A20.35,20.35,0,0,1,58.19,29C47.36,24.1,47.41,16.86,47.41,16.86s9.48-.38,15.91-7.52S88.5-5,102.64,4.77s9.69,24.2,1.22,26.63S90.59,28,88.45,29.24,82.93,32,77.66,27.68Z" fill="#3e3533"/><path d="M107.88,9.54a23.51,23.51,0,0,0-3.11-3.13A97.17,97.17,0,0,1,49.19,21.84a14.2,14.2,0,0,0,1.3,1.73,35.12,35.12,0,0,0-4.65,2.89A66.71,66.71,0,0,0,70.42,27.8,67.06,67.06,0,0,0,107.88,9.54Z" fill="url(#linear-gradient-7)"/><path d="M81,51.56c-.19.11-.62-.33-1.38-.81a6.43,6.43,0,0,0-1.39-.66,4.7,4.7,0,0,0-.86-.21l-.44-.06h-.5a7.86,7.86,0,0,0-1.86.31,8.5,8.5,0,0,0-1.48.57c-.4.2-.73.4-1,.52s-.4.23-.49.16-.08-.24,0-.52a3.35,3.35,0,0,1,.81-1,5.61,5.61,0,0,1,1.61-1,6.42,6.42,0,0,1,2.28-.51h.34l.28,0,.63.1a5.08,5.08,0,0,1,1.1.38A4.84,4.84,0,0,1,80.26,50,3.3,3.3,0,0,1,81,51C81.05,51.32,81,51.51,81,51.56Z" fill="#3e3533"/><path d="M99.7,49.77c-.14.16-.65-.07-1.44-.28a6.92,6.92,0,0,0-3.05-.17h-.08l-.11,0-.21.05c-.14,0-.27.08-.4.12a7.33,7.33,0,0,0-.75.31,7.64,7.64,0,0,0-1.19.74c-.32.24-.59.46-.79.6s-.35.24-.44.18-.11-.22,0-.48a3.09,3.09,0,0,1,.52-1,5.26,5.26,0,0,1,3.26-2l.25,0,.28,0a5,5,0,0,1,1.59.11,5,5,0,0,1,1.6.64C99.53,49.07,99.82,49.63,99.7,49.77Z" fill="#3e3533"/></g></g></svg>