<svg xmlns="http://www.w3.org/2000/svg" xmlns:xlink="http://www.w3.org/1999/xlink" viewBox="0 0 84.27 226.54"><defs><radialGradient id="radial-gradient" cx="46.94" cy="219" r="8.57" gradientUnits="userSpaceOnUse"><stop offset="0" stop-color="#484c50"/><stop offset="1" stop-color="#35383b"/></radialGradient><linearGradient id="linear-gradient" x1="39.47" y1="215.53" x2="48.67" y2="215.53" gradientUnits="userSpaceOnUse"><stop offset="0" stop-color="#a6a5b1"/><stop offset="1" stop-color="#a6a5b1" stop-opacity="0"/></linearGradient><radialGradient id="radial-gradient-2" cx="48.19" cy="219.47" r="8.37" gradientUnits="userSpaceOnUse"><stop offset="0" stop-color="#fff"/><stop offset="1" stop-color="#fff" stop-opacity="0"/></radialGradient><radialGradient id="radial-gradient-3" cx="34.44" cy="219.6" r="8.3" xlink:href="#radial-gradient"/><linearGradient id="linear-gradient-2" x1="27.91" y1="219.3" x2="37.39" y2="219.3" xlink:href="#linear-gradient"/><radialGradient id="radial-gradient-4" cx="35.75" cy="218.86" r="10.28" xlink:href="#radial-gradient-2"/><linearGradient id="linear-gradient-3" x1="48.7" y1="137.25" x2="48.1" y2="198.27" gradientUnits="userSpaceOnUse"><stop offset="0" stop-color="#fcc384"/><stop offset="1" stop-color="#fddfa9"/></linearGradient><linearGradient id="linear-gradient-4" x1="70.72" y1="181.93" x2="17.13" y2="192.96" gradientUnits="userSpaceOnUse"><stop offset="0" stop-color="#e09768"/><stop offset="1" stop-color="#e19768" stop-opacity="0"/></linearGradient><linearGradient id="linear-gradient-5" x1="34.6" y1="140.03" x2="34.03" y2="198.51" xlink:href="#linear-gradient-3"/><linearGradient id="linear-gradient-6" x1="56.6" y1="185.23" x2="5.34" y2="186.52" xlink:href="#linear-gradient-4"/><radialGradient id="radial-gradient-5" cx="37.41" cy="154.35" r="25.55" gradientUnits="userSpaceOnUse"><stop offset="0" stop-color="#4f455c"/><stop offset="1" stop-color="#3e3547"/></radialGradient><linearGradient id="linear-gradient-7" x1="44.54" y1="129.1" x2="10.14" y2="149.21" xlink:href="#linear-gradient"/><radialGradient id="radial-gradient-6" cx="44.83" cy="80.23" r="24.05" xlink:href="#radial-gradient-5"/><radialGradient id="radial-gradient-7" cx="48.34" cy="126.54" r="24.29" gradientUnits="userSpaceOnUse"><stop offset="0" stop-color="#4f455c"/><stop offset="1" stop-color="#4f455c" stop-opacity="0"/></radialGradient><linearGradient id="linear-gradient-8" x1="47.51" y1="58.78" x2="58.11" y2="58.78" xlink:href="#linear-gradient"/><linearGradient id="linear-gradient-9" x1="51.78" y1="76.95" x2="63.73" y2="95.93" xlink:href="#linear-gradient"/><linearGradient id="linear-gradient-10" x1="18.68" y1="157.3" x2="9.55" y2="151.26" gradientTransform="translate(10.75 -43.32) rotate(-13.26)" xlink:href="#linear-gradient-3"/><linearGradient id="linear-gradient-11" x1="11.67" y1="150.34" x2="19.51" y2="161.23" gradientTransform="translate(10.75 -43.32) rotate(-13.26)" xlink:href="#linear-gradient-4"/><linearGradient id="linear-gradient-12" x1="5.43" y1="152.07" x2="8.35" y2="159.44" gradientTransform="translate(10.75 -43.32) rotate(-13.26)" xlink:href="#linear-gradient-4"/><linearGradient id="linear-gradient-13" x1="1.69" y1="155.84" x2="6.12" y2="155.84" gradientTransform="translate(10.75 -43.32) rotate(-13.26)" xlink:href="#linear-gradient-4"/><linearGradient id="linear-gradient-14" x1="3.61" y1="149.63" x2="5.57" y2="155.17" gradientTransform="translate(10.75 -43.32) rotate(-13.26)" xlink:href="#linear-gradient-4"/><radialGradient id="radial-gradient-8" cx="61.82" cy="87.08" r="24.47" xlink:href="#radial-gradient-5"/><linearGradient id="linear-gradient-15" x1="55.24" y1="77.27" x2="66.96" y2="75.01" xlink:href="#linear-gradient"/><linearGradient id="linear-gradient-16" x1="28.03" y1="133.01" x2="33.43" y2="133.01" gradientTransform="translate(10.75 -43.32) rotate(-13.26)" xlink:href="#linear-gradient"/><linearGradient id="linear-gradient-17" x1="29.9" y1="134.31" x2="37.71" y2="134.31" gradientTransform="translate(10.75 -43.32) rotate(-13.26)" xlink:href="#linear-gradient"/><linearGradient id="linear-gradient-18" x1="15.65" y1="131.77" x2="43.1" y2="131.77" gradientTransform="translate(10.75 -43.32) rotate(-13.26)" xlink:href="#linear-gradient"/><radialGradient id="radial-gradient-9" cx="42.2" cy="79.03" r="24.52" xlink:href="#radial-gradient-5"/><radialGradient id="radial-gradient-10" cx="38.59" cy="124.05" r="20.22" xlink:href="#radial-gradient-7"/><radialGradient id="radial-gradient-11" cx="39.79" cy="85.31" r="1.33" gradientUnits="userSpaceOnUse"><stop offset="0" stop-color="#3b3445"/><stop offset="1" stop-color="#2d2835"/></radialGradient><radialGradient id="radial-gradient-12" cx="39.96" cy="99.64" r="1.33" xlink:href="#radial-gradient-11"/><linearGradient id="linear-gradient-19" x1="41.04" y1="79.26" x2="2.37" y2="109.2" xlink:href="#linear-gradient"/><radialGradient id="radial-gradient-13" cx="14.09" cy="56.96" r="12.25" xlink:href="#radial-gradient-5"/><linearGradient id="linear-gradient-20" x1="9.55" y1="58.92" x2="13.29" y2="58.92" xlink:href="#linear-gradient"/><linearGradient id="linear-gradient-21" x1="13.55" y1="61.14" x2="16.36" y2="61.14" xlink:href="#linear-gradient"/><linearGradient id="linear-gradient-22" x1="15.83" y1="61.68" x2="18.71" y2="61.68" xlink:href="#linear-gradient"/><linearGradient id="linear-gradient-23" x1="18.65" y1="61.16" x2="23.34" y2="61.16" xlink:href="#linear-gradient"/><linearGradient id="linear-gradient-24" x1="24.5" y1="65.45" x2="25.91" y2="52.23" xlink:href="#linear-gradient"/><linearGradient id="linear-gradient-25" x1="21.08" y1="58.83" x2="10.98" y2="77.43" xlink:href="#linear-gradient"/><radialGradient id="radial-gradient-14" cx="42.77" cy="13.37" r="21.22" gradientUnits="userSpaceOnUse"><stop offset="0" stop-color="#845b48"/><stop offset="1" stop-color="#664638"/></radialGradient><radialGradient id="radial-gradient-15" cx="41.15" cy="40.2" r="40.38" gradientUnits="userSpaceOnUse"><stop offset="0.37" stop-color="#a6a5b1"/><stop offset="1" stop-color="#a6a5b1" stop-opacity="0"/></radialGradient><radialGradient id="radial-gradient-16" cx="41.82" cy="66.95" r="10.61" gradientUnits="userSpaceOnUse"><stop offset="0" stop-color="#f9dce4"/><stop offset="1" stop-color="#eab6c4"/></radialGradient><linearGradient id="linear-gradient-26" x1="33.94" y1="54.44" x2="51.12" y2="83.41" gradientUnits="userSpaceOnUse"><stop offset="0" stop-color="#b2a5ad"/><stop offset="1" stop-color="#b2a5ad" stop-opacity="0"/></linearGradient><radialGradient id="radial-gradient-17" cx="46.74" cy="69.04" r="12.11" xlink:href="#radial-gradient-5"/><radialGradient id="radial-gradient-18" cx="37.5" cy="68.81" r="12.35" xlink:href="#radial-gradient-5"/><linearGradient id="linear-gradient-27" x1="37.92" y1="61.49" x2="36.26" y2="49.96" xlink:href="#linear-gradient"/><radialGradient id="radial-gradient-19" cx="57.11" cy="62.43" r="11.71" xlink:href="#radial-gradient-14"/><linearGradient id="linear-gradient-28" x1="52.38" y1="40.86" x2="56.4" y2="57.87" xlink:href="#linear-gradient"/><linearGradient id="linear-gradient-29" x1="57.24" y1="57.55" x2="60.02" y2="43.49" xlink:href="#radial-gradient-14"/><linearGradient id="linear-gradient-30" x1="48.15" y1="39.28" x2="70.6" y2="37.13" xlink:href="#linear-gradient"/><linearGradient id="linear-gradient-31" x1="26.95" y1="58.55" x2="26.95" y2="58.5" xlink:href="#radial-gradient-14"/><linearGradient id="linear-gradient-32" x1="21.99" y1="62.7" x2="22.61" y2="46.83" xlink:href="#radial-gradient-14"/><linearGradient id="linear-gradient-33" x1="26.92" y1="58.51" x2="26.98" y2="58.51" xlink:href="#linear-gradient"/><linearGradient id="linear-gradient-34" x1="35" y1="38.84" x2="7.44" y2="51.21" xlink:href="#linear-gradient"/><linearGradient id="linear-gradient-35" x1="31.66" y1="65.83" x2="31.66" y2="65.8" xlink:href="#radial-gradient-14"/><linearGradient id="linear-gradient-36" x1="31.87" y1="64.07" x2="32.38" y2="52.3" xlink:href="#radial-gradient-14"/><linearGradient id="linear-gradient-37" x1="30.4" y1="42.21" x2="34.94" y2="65.97" xlink:href="#linear-gradient"/><linearGradient id="linear-gradient-38" x1="34.95" y1="66.29" x2="33.04" y2="57.58" xlink:href="#radial-gradient-14"/><linearGradient id="linear-gradient-39" x1="31.57" y1="37.9" x2="29.98" y2="59.79" xlink:href="#linear-gradient"/><linearGradient id="linear-gradient-40" x1="47.34" y1="63.46" x2="51.42" y2="51.89" xlink:href="#radial-gradient-14"/><linearGradient id="linear-gradient-41" x1="55.43" y1="40.56" x2="49.13" y2="58.71" xlink:href="#linear-gradient"/><linearGradient id="linear-gradient-42" x1="51.62" y1="64.66" x2="50.43" y2="53.95" xlink:href="#radial-gradient-14"/><linearGradient id="linear-gradient-43" x1="49.24" y1="51.62" x2="62.09" y2="54.68" xlink:href="#linear-gradient"/><linearGradient id="linear-gradient-44" x1="42.29" y1="49.7" x2="41.87" y2="59.3" xlink:href="#linear-gradient-3"/><linearGradient id="linear-gradient-45" x1="41.23" y1="49.21" x2="40.85" y2="60.78" xlink:href="#linear-gradient-4"/><linearGradient id="linear-gradient-46" x1="25.95" y1="31.74" x2="22.25" y2="35.18" xlink:href="#linear-gradient-3"/><linearGradient id="linear-gradient-47" x1="26.3" y1="34.42" x2="28.23" y2="37.37" xlink:href="#linear-gradient-4"/><linearGradient id="linear-gradient-48" x1="26.14" y1="31.26" x2="21.92" y2="34.97" xlink:href="#linear-gradient-4"/><radialGradient id="radial-gradient-20" cx="29.2" cy="36.53" r="2.95" xlink:href="#radial-gradient-14"/><linearGradient id="linear-gradient-49" x1="-265.17" y1="31.74" x2="-268.88" y2="35.18" gradientTransform="matrix(-1, 0, 0, 1, -207.76, 0)" xlink:href="#linear-gradient-3"/><linearGradient id="linear-gradient-50" x1="57.91" y1="34.93" x2="56.89" y2="38.51" xlink:href="#linear-gradient-4"/><linearGradient id="linear-gradient-51" x1="-264.98" y1="31.26" x2="-269.2" y2="34.97" gradientTransform="matrix(-1, 0, 0, 1, -207.76, 0)" xlink:href="#linear-gradient-4"/><radialGradient id="radial-gradient-21" cx="58.62" cy="38.53" r="3.03" xlink:href="#radial-gradient-14"/><radialGradient id="radial-gradient-22" cx="42" cy="31.16" r="19.87" gradientUnits="userSpaceOnUse"><stop offset="0.66" stop-color="#fddfa9"/><stop offset="1" stop-color="#fcc384"/></radialGradient><radialGradient id="Rona_Pipi" cx="29.09" cy="37.86" r="5.56" gradientUnits="userSpaceOnUse"><stop offset="0" stop-color="#dd6162"/><stop offset="1" stop-color="#df6263" stop-opacity="0"/></radialGradient><radialGradient id="Rona_Pipi-2" cx="55.14" cy="37.95" r="5.65" xlink:href="#Rona_Pipi"/><radialGradient id="radial-gradient-23" cx="40.66" cy="37.01" r="3.73" xlink:href="#linear-gradient-4"/><radialGradient id="radial-gradient-24" cx="37.4" cy="27.1" r="5.41" xlink:href="#linear-gradient-4"/><radialGradient id="radial-gradient-25" cx="46.21" cy="26.15" r="5.62" xlink:href="#linear-gradient-4"/><radialGradient id="radial-gradient-26" cx="31.97" cy="28.43" r="4.56" gradientUnits="userSpaceOnUse"><stop offset="0" stop-color="#2c2e2d"/><stop offset="1" stop-color="#363838"/></radialGradient><radialGradient id="Gradient_Eye" cx="33.68" cy="28.91" r="5.32" gradientUnits="userSpaceOnUse"><stop offset="0.52" stop-color="#fff"/><stop offset="1" stop-color="#a6a5b1"/></radialGradient><clipPath id="clip-path"><path d="M28.45,28.4c.64,2,2.49,2.28,4.5,2.51s4.15.18,4.83-.24a5.28,5.28,0,0,0-4.27-3.93A5.76,5.76,0,0,0,28.45,28.4Z" fill="none"/></clipPath><radialGradient id="radial-gradient-27" cx="33.43" cy="29.34" r="2.39" gradientUnits="userSpaceOnUse"><stop offset="0.74" stop-color="#e2a580"/><stop offset="0.83" stop-color="#a3765c"/><stop offset="0.95" stop-color="#624738"/></radialGradient><linearGradient id="linear-gradient-52" x1="33.12" y1="25.19" x2="33.12" y2="30.9" xlink:href="#linear-gradient"/><linearGradient id="linear-gradient-53" x1="33.73" y1="31.66" x2="33.75" y2="31.66" xlink:href="#linear-gradient"/><radialGradient id="radial-gradient-28" cx="51.39" cy="28.52" r="4.59" xlink:href="#radial-gradient-26"/><radialGradient id="Gradient_Eye-2" cx="-257.44" cy="28.96" r="5.34" gradientTransform="matrix(-1, 0, 0, 1, -207.76, 0)" xlink:href="#Gradient_Eye"/><linearGradient id="linear-gradient-54" x1="-258.01" y1="25.19" x2="-258.01" y2="30.9" gradientTransform="matrix(-1, 0, 0, 1, -207.76, 0)" xlink:href="#linear-gradient"/><clipPath id="clip-path-2"><path d="M54.91,28.4c-.64,2-2.58,2.39-4.58,2.62s-4.08.07-4.76-.35a5.29,5.29,0,0,1,4.27-3.93A5.77,5.77,0,0,1,54.91,28.4Z" fill="none"/></clipPath><radialGradient id="radial-gradient-29" cx="49.95" cy="29.38" r="2.39" xlink:href="#radial-gradient-27"/><linearGradient id="linear-gradient-56" x1="42.07" y1="40.77" x2="42.07" y2="37.54" xlink:href="#linear-gradient-3"/><radialGradient id="radial-gradient-30" cx="46.43" cy="26.17" r="6.41" xlink:href="#linear-gradient-4"/><linearGradient id="linear-gradient-57" x1="33.11" y1="37.03" x2="42.22" y2="27.05" xlink:href="#linear-gradient-4"/><radialGradient id="radial-gradient-31" cx="37.57" cy="27.34" r="6.08" xlink:href="#linear-gradient-4"/><linearGradient id="linear-gradient-58" x1="41.85" y1="35.94" x2="41.39" y2="45.16" xlink:href="#linear-gradient-4"/><radialGradient id="radial-gradient-32" cx="39.83" cy="37.56" r="0.53" xlink:href="#radial-gradient-26"/><radialGradient id="radial-gradient-33" cx="43.81" cy="37.53" r="0.53" xlink:href="#radial-gradient-26"/><radialGradient id="radial-gradient-34" cx="-20.85" cy="91.91" r="4.21" gradientTransform="translate(23.61 -73.96) rotate(-19.11)" xlink:href="#radial-gradient-14"/><radialGradient id="radial-gradient-35" cx="79.14" cy="-60.87" r="4.65" gradientTransform="translate(-42.7 53.13) rotate(18.07)" xlink:href="#radial-gradient-14"/><linearGradient id="linear-gradient-59" x1="41.82" y1="10.19" x2="41.08" y2="63.21" xlink:href="#linear-gradient-4"/><radialGradient id="radial-gradient-36" cx="41.26" cy="10.66" r="18.23" xlink:href="#radial-gradient-14"/><linearGradient id="linear-gradient-60" x1="43.04" y1="23.77" x2="-11.51" y2="53.81" xlink:href="#linear-gradient"/><radialGradient id="radial-gradient-37" cx="42.93" cy="12.18" r="16.71" xlink:href="#radial-gradient-14"/><radialGradient id="radial-gradient-38" cx="42.13" cy="-1.84" r="23.25" xlink:href="#radial-gradient-2"/><linearGradient id="linear-gradient-61" x1="65.84" y1="28.24" x2="32.95" y2="44.95" xlink:href="#linear-gradient"/><radialGradient id="radial-gradient-40" cx="42" cy="46.61" r="3.73" xlink:href="#linear-gradient-4"/><radialGradient id="radial-gradient-41" cx="41.86" cy="44.01" r="5.7" gradientUnits="userSpaceOnUse"><stop offset="0" stop-color="#674738"/><stop offset="1" stop-color="#473127"/></radialGradient><clipPath id="clip-path-3"><path d="M49.2,38.72C47.12,41.64,46,45.28,42,45.28s-4.59-2.68-7.46-6.43a23,23,0,0,0,4.88,1.09,5.45,5.45,0,0,1,2.35.43,5.18,5.18,0,0,1,2.73-.46,24.43,24.43,0,0,0,4.64-1.16Z" fill="none"/></clipPath><radialGradient id="radial-gradient-42" cx="41.98" cy="45.73" r="3.03" gradientUnits="userSpaceOnUse"><stop offset="0.45" stop-color="#cd6a6b"/><stop offset="1" stop-color="#b15556"/></radialGradient><radialGradient id="Gradient_Eye-3" cx="41.93" cy="41.63" r="4.25" xlink:href="#Gradient_Eye"/><linearGradient id="linear-gradient-62" x1="41.73" y1="36.7" x2="41.94" y2="42.13" xlink:href="#linear-gradient"/><radialGradient id="Gradient_Eye-4" cx="42.1" cy="42.91" r="6.07" xlink:href="#Gradient_Eye"/><radialGradient id="radial-gradient-43" cx="41.23" cy="32.28" r="8.06" gradientUnits="userSpaceOnUse"><stop offset="0.92" stop-color="#f38081"/><stop offset="1" stop-color="#de6b6b"/></radialGradient><radialGradient id="radial-gradient-44" cx="41.98" cy="39.52" r="6.28" gradientUnits="userSpaceOnUse"><stop offset="0.88" stop-color="#f38081"/><stop offset="1" stop-color="#de6b6b"/></radialGradient><radialGradient id="radial-gradient-45" cx="49.15" cy="38.87" r="0.98" xlink:href="#linear-gradient-4"/><radialGradient id="radial-gradient-46" cx="34.43" cy="38.96" r="0.98" xlink:href="#linear-gradient-4"/><linearGradient id="linear-gradient-63" x1="6.7" y1="53.29" x2="7.66" y2="43.11" xlink:href="#linear-gradient-3"/><linearGradient id="linear-gradient-64" x1="1.82" y1="41.42" x2="7.87" y2="51.81" xlink:href="#linear-gradient-4"/><linearGradient id="linear-gradient-65" x1="-1.13" y1="64.74" x2="7.09" y2="56.13" xlink:href="#linear-gradient-3"/><linearGradient id="linear-gradient-66" x1="0" y1="57.41" x2="2.33" y2="57.41" xlink:href="#linear-gradient-4"/><linearGradient id="linear-gradient-67" x1="0.87" y1="53.3" x2="2.79" y2="53.3" xlink:href="#linear-gradient-4"/><linearGradient id="linear-gradient-68" x1="2.76" y1="55.01" x2="6.43" y2="68.02" xlink:href="#linear-gradient-4"/><linearGradient id="linear-gradient-69" x1="6.27" y1="50.56" x2="8.99" y2="59.18" xlink:href="#linear-gradient-4"/><linearGradient id="linear-gradient-70" x1="6.85" y1="55.69" x2="9.16" y2="61.14" xlink:href="#linear-gradient-4"/><linearGradient id="linear-gradient-71" x1="6.29" y1="58.33" x2="8.68" y2="65.25" xlink:href="#linear-gradient-4"/></defs><g style="isolation:isolate"><g id="Layer_2" data-name="Layer 2"><g id="Layer_2-2" data-name="Layer 2"><path d="M49.43,223.54c-.26.34-.51.67-.76,1a4.48,4.48,0,0,1-3.12,1.9,6.61,6.61,0,0,1-4.26-2,4.77,4.77,0,0,1-1.82-4.08c.07-1.19.35-6.13.35-8.57,0-2.07,1-4.69,1.29-6.34a5,5,0,0,1,.17-.71l.27.16.33.22c1.11.7,1.47,2.67,2.91,3.82.57,1.07,4.45,7,5,9S50.74,221.7,49.43,223.54Z" fill="url(#radial-gradient)"/><path d="M48.67,224.51a4.48,4.48,0,0,1-3.12,1.9,6.61,6.61,0,0,1-4.26-2,4.77,4.77,0,0,1-1.82-4.08c.07-1.19.35-6.13.35-8.57,0-2.07,1-4.69,1.29-6.34l.44-.55c.11-.15.19-.24.19-.24l.14.46.38,3s-1.41,9.56-1.32,10.88,0,2.88.82,4,3,2.84,4,2.88A6.82,6.82,0,0,0,48.67,224.51Z" fill="url(#linear-gradient)" style="mix-blend-mode:multiply"/><path d="M45.74,223.2a4.84,4.84,0,0,0,3.43-2.56C48.64,223.05,48,224.06,45.74,223.2Z" opacity="0.7" fill="url(#radial-gradient-2)" style="mix-blend-mode:screen"/><path d="M39.42,206.05c-.06,1.21.12,8.87,0,10.7s-.4,5.62-1.45,7.07a5.26,5.26,0,0,1-.58.67,7.26,7.26,0,0,1-4.08,2c-1.23.06-2.46-.66-4.12-2.67a4.91,4.91,0,0,1-.67-5.67c.84-1.56,2.8-4.17,3.76-6.14h0C33.91,210.71,37.12,206.35,39.42,206.05Z" fill="url(#radial-gradient-3)"/><path d="M37.39,224.49a7.26,7.26,0,0,1-4.08,2c-1.23.06-2.46-.66-4.12-2.67a4.91,4.91,0,0,1-.67-5.67c.84-1.56,2.8-4.17,3.76-6.14h0l-2.2,5.14c-.72,2.4-1.34,4.21-.28,5.93a4.8,4.8,0,0,0,3.31,2.64A6.81,6.81,0,0,0,37.39,224.49Z" fill="url(#linear-gradient-2)" style="mix-blend-mode:multiply"/><path d="M32.52,223c1,.37,3.8,0,4.8-1.29C36.43,224.06,34,224.76,32.52,223Z" opacity="0.7" fill="url(#radial-gradient-4)" style="mix-blend-mode:screen"/><path d="M53.26,165.26a106.34,106.34,0,0,1,.28,14.25c-.46,7-2.83,11.7-4.47,15.26S46,201.92,46,203.44s.51,2.16,0,3.44.18,3.21.47,4.73,2.36,4.6,1.72,6.52a3.26,3.26,0,0,1-3.53,2.62,6.34,6.34,0,0,1-2.89-.82,2.7,2.7,0,0,1-.4-.25,4,4,0,0,1-.79-.74c-.76-1-.46-2.05-.46-3.18s-.14-4-.22-5.29.68-3.47.38-4.31.07-2.79.52-4.46c0-.13.07-.25.1-.36a15.43,15.43,0,0,0,.79-5.56c0-3.4-.54-7.11-.39-11.65a34,34,0,0,1,1.73-9.8,10.36,10.36,0,0,0,.29-5.44c0-.14-.06-.26-.09-.38a14.55,14.55,0,0,1-.68-4.31c0-1.06,0-2.32.17-3.92,0-.27,0-.55.08-.84.1-.93.23-2,.41-3.16,0-.27.08-.54.13-.81,1.93-1.78,12.36-8.36,13.2-3C56,155.51,53.18,162.54,53.26,165.26Z" fill="url(#linear-gradient-3)"/><path d="M43.88,161.93c.3,1.29,1.28-.38,1.51-.45.08,2.34.08,4.31.91,5.06s1.06,1.59.76,2.19.53.61.6,2.5a11.25,11.25,0,0,1-.3,4.31c-.38.75-.53-2.72-1.29-3.48S44,175.47,43.5,178a24.2,24.2,0,0,0-.6,8.24,39.56,39.56,0,0,1-.15,11.11,17.9,17.9,0,0,1-1.36,5.15,5.21,5.21,0,0,0-.38,3.63c.3,1.13,0,1.5-.3,2.64a15.35,15.35,0,0,0-.16,4.76,26.71,26.71,0,0,1-.07,4,5.1,5.1,0,0,0,.94,2.19,4,4,0,0,1-.79-.74c-.76-1-.46-2.05-.46-3.18s-.14-4-.22-5.29.68-3.47.38-4.31.07-2.79.52-4.46c0-.13.07-.25.1-.36a15.43,15.43,0,0,0,.79-5.56c0-3.4-.54-7.11-.39-11.65a34,34,0,0,1,1.73-9.8,10.36,10.36,0,0,0,.29-5.44c0-.14-.06-.26-.09-.38a14.55,14.55,0,0,1-.68-4.31c0-1.06,0-2.32.17-3.92,0-.27,0-.55.08-.84.1-.93.23-2,.41-3.16,2.61-.73,6.28-1.65,7.66-2,2.11-.53,1.2,1.22,1.2,1.22-4.46,2.18-5,2.64-6.5,3.4S43.58,160.64,43.88,161.93Z" fill="url(#linear-gradient-4)"/><path d="M45.36,162.15l-.06,1.64a9.6,9.6,0,0,0,.06,1.61,7.09,7.09,0,0,0,.14.78,2.82,2.82,0,0,0,.27.72c.18.49.69.76,1.15,1a3.7,3.7,0,0,1-.78-.3,1.33,1.33,0,0,1-.62-.6,3.61,3.61,0,0,1-.53-1.61,6.66,6.66,0,0,1,0-1.67A14.55,14.55,0,0,1,45.36,162.15Z" fill="#b8784d"/><path d="M46,168.5a2.93,2.93,0,0,0,.35.63,4.61,4.61,0,0,0,.44.55l.47.53a6.79,6.79,0,0,1,.47.57,3.24,3.24,0,0,1-.66-.36,3,3,0,0,1-.57-.5,2.42,2.42,0,0,1-.4-.66A1.63,1.63,0,0,1,46,168.5Z" fill="#b8784d"/><path d="M39.54,173c-.35,1.14.11,2.73.45,5.57a32.12,32.12,0,0,1-.34,10.77c-.91,3.85-1.58,8.39-1.36,11.11a11.56,11.56,0,0,0,1,4,7.76,7.76,0,0,1,.38,3.55c-.23.91-.65,5.84-.88,7.73s-.18,3.05-1.39,3.66-4.8,1.19-6.33-.22a.8.8,0,0,1-.13-.13c-1-1-1-2.14.13-4.54a73.33,73.33,0,0,0,3-6.73c.31-1-.44-1.85-.35-3.59,0-.16,0-.34,0-.52s0-.07,0-.11c-.08-.59-.46-2-.94-3.74-.43-1.56-.94-3.36-1.41-5-1-3.68-3.26-8.32-3.18-14.74.06-6,1.4-9.57,1.57-12.73,0-.22,0-.44,0-.66,0-3.33-1.43-8.92-2-11.34a9.12,9.12,0,0,1,6-2.76,8.76,8.76,0,0,1,3,.44,15.52,15.52,0,0,1,3.72,1.87c.24,3,.41,5.21.5,7a37.93,37.93,0,0,1,.06,3.93A35.31,35.31,0,0,1,39.54,173Z" fill="url(#linear-gradient-5)"/><path d="M31.55,163c.54,1.89,1.95.17,1.95.17a7.73,7.73,0,0,0,1.84,4.74c.68.53-.38,3.24-.19,4-2.31-2.23-3.44-2.3-4.12.95a32,32,0,0,0-.23,15.46c1.7,7.15,3.29,10.1,4,12.7s1.7,4.09.57,6.35-1.69,3.6-3.16,6.66c-1,2.05-1.46,3.7-1.26,5-1-1-1-2.14.13-4.54a73.33,73.33,0,0,0,3-6.73c.31-1-.44-1.85-.35-3.59,0-.16,0-.34,0-.52s0-.07,0-.11a14.49,14.49,0,0,0-.85-3.46,0,0,0,0,0,0,0l-.08-.25c-.43-1.56-.94-3.36-1.41-5-1-3.68-3.26-8.32-3.18-14.74.06-6,1.4-9.57,1.57-12.73,0-.22,0-.44,0-.66,0-3.33-1.43-8.92-2-11.34a9.12,9.12,0,0,1,6-2.76l3,.44a15.52,15.52,0,0,1,3.72,1.87c.24,3,.41,5.21.5,7a7.34,7.34,0,0,0-6-2.73C32.32,159.05,31,161.09,31.55,163Z" fill="url(#linear-gradient-6)" style="mix-blend-mode:darken"/><path d="M33.49,163.17a13.76,13.76,0,0,0-.33,1.65,4.92,4.92,0,0,0,.08,1.63,3.09,3.09,0,0,0,.72,1.43,7.13,7.13,0,0,0,1.32,1,4.41,4.41,0,0,1-1.52-.82,3,3,0,0,1-.86-1.55,4.13,4.13,0,0,1,0-1.75A7,7,0,0,1,33.49,163.17Z" fill="#b8784d"/><path d="M33.78,169.2c.15.22.28.44.4.66l.37.67.32.69a7.69,7.69,0,0,1,.28.72,3.29,3.29,0,0,1-.54-.58,4.46,4.46,0,0,1-.4-.66,4.51,4.51,0,0,1-.43-1.5Z" fill="#b8784d"/><path d="M56.77,154.33c-1.6,2.16-11.23,3.74-14.64,4.08a38.36,38.36,0,0,1-10.66-.21,7.36,7.36,0,0,1-4-1.94c-2.27-12.59-4.54-31.53-4.09-34.93a8,8,0,0,1,.36-1.56c.7-2,2.14-2.54,4.18-4.68L39,98l4.53-.11c.34,0,10.21,5.56,18.72,18.26C63.12,126.89,59.37,143.67,56.77,154.33Z" fill="url(#radial-gradient-5)"/><path d="M40.54,117.92c-1.36,2.65-3.85,3.48-6.19,3.79a63.63,63.63,0,0,1-6.51.75c0,5.67,1.36,19.81,1.82,25.18a51.21,51.21,0,0,0,1.81,10.56,7.36,7.36,0,0,1-4-1.94c-2.27-12.59-4.54-31.53-4.09-34.93a8,8,0,0,1,.36-1.56l2.64.35C28.6,120.19,39.26,119.36,40.54,117.92Z" fill="url(#linear-gradient-7)" style="mix-blend-mode:multiply"/><path d="M35.72,125.85q2-.46,4-1c1.32-.35,2.63-.74,3.94-1.14s2.61-.81,3.91-1.25,2.59-.89,3.88-1.36c-1.24.6-2.49,1.16-3.78,1.66s-2.58,1-3.89,1.34-2.66.73-4,1S37.08,125.67,35.72,125.85Z" fill="#2d2836"/><path d="M37.49,132.16c1.25-.59,2.49-1.19,3.71-1.84s2.44-1.3,3.63-2,2.38-1.4,3.55-2.14,2.32-1.49,3.47-2.27c-1.07.89-2.16,1.74-3.3,2.53S46.23,128,45,128.67s-2.44,1.32-3.7,1.91S38.79,131.7,37.49,132.16Z" fill="#2d2836"/><path d="M38.05,138.19l2-1.06,2-1,2-1,2-1c-.61.44-1.23.87-1.87,1.26s-1.29.77-1.95,1.12-1.34.67-2,1S38.76,137.94,38.05,138.19Z" fill="#2d2836"/><path d="M40.41,152.81l2.11-1.67,2.11-1.65,2.12-1.64,2.14-1.63c-.64.64-1.29,1.25-2,1.84s-1.37,1.15-2.08,1.7-1.43,1.08-2.17,1.59S41.18,152.35,40.41,152.81Z" fill="#2d2836"/><path d="M41.28,154.86c.75-.43,1.5-.85,2.26-1.25s1.53-.79,2.3-1.17,1.55-.73,2.34-1.08,1.58-.68,2.38-1c-.75.43-1.5.86-2.26,1.26s-1.53.79-2.3,1.17-1.55.73-2.33,1.08S42.09,154.55,41.28,154.86Z" fill="#2d2836"/><path d="M63,116.84a54.06,54.06,0,0,1-7.13,2.24l-.92.18c-.31,0-.61.11-.92.15H54l-.87.09c-.32,0-.62,0-.93,0s-.69,0-1,0l-.4,0a5.93,5.93,0,0,1-.93-.2l-.42-.14a3.89,3.89,0,0,1-.5-.25.6.6,0,0,1-.11-.06l-.19-.13a9.46,9.46,0,0,1-1.47-1.21c-.16-.17-.31-.36-.48-.55s-.26-.31-.39-.49a4,4,0,0,1-.31-.45,6.67,6.67,0,0,1-.45-.72h0c-.15-.27-.3-.54-.43-.82a8.26,8.26,0,0,1-.4-.85c-.12-.29-.24-.57-.35-.86s-.2-.54-.29-.81a.74.74,0,0,0,0-.14c-.08-.24-.15-.48-.22-.73a2.86,2.86,0,0,1-.07-.28c-.07-.22-.13-.45-.18-.68-.23-.92-.4-1.86-.54-2.79,0-.31-.09-.63-.13-.94l-.11-.92c-.4-2.43-.67-5-.84-7.56-.08-1.17-.14-2.33-.18-3.44a48.38,48.38,0,0,1,.28-9c-.4-3.8.57-30.52.57-30.52a24.12,24.12,0,0,1,5,1l1.35.39c1.16.35,7.12,2.58,8.53,3.14a6.81,6.81,0,0,1,.72,2.14c0,.12,0,.26.07.4a41.22,41.22,0,0,1-.45,13.67,68.81,68.81,0,0,1-4,10.94,12.89,12.89,0,0,0-1.58,5.43c0,.1,0,.2,0,.3a5.06,5.06,0,0,0,.83,2.35c.78,1.33,2,2.75,3.08,4.22.21.29.46.67.72,1.11A55.67,55.67,0,0,1,63,116.84Z" fill="url(#radial-gradient-6)"/><path d="M63,116.84a54.06,54.06,0,0,1-7.13,2.24l-.92.18c-.31,0-.61.11-.92.15H54l-.87.09c-.32,0-.62,0-.93,0s-.69,0-1,0l-.4,0a5.93,5.93,0,0,1-.93-.2l-.42-.14a3.89,3.89,0,0,1-.5-.25.6.6,0,0,1-.11-.06l-.19-.13a9.46,9.46,0,0,1-1.47-1.21c-.16-.17-.31-.36-.48-.55s-.26-.31-.39-.49a4,4,0,0,1-.31-.45,6.67,6.67,0,0,1-.45-.72h0c-.15-.27-.3-.54-.43-.82a8.26,8.26,0,0,1-.4-.85c-.12-.29-.24-.57-.35-.86s-.2-.54-.29-.81a.74.74,0,0,0,0-.14c-.08-.24-.15-.48-.22-.73a2.86,2.86,0,0,1-.07-.28c-.07-.22-.13-.45-.18-.68-.23-.92-.4-1.86-.54-2.79,0-.31-.09-.63-.13-.94l-.11-.92c-.4-2.43-.67-5-.84-7.56-.08-1.17-.14-2.33-.18-3.44a48.38,48.38,0,0,1,.28-9c-.4-3.8.57-30.52.57-30.52a24.12,24.12,0,0,1,5,1l1.35.39c1.16.35,7.12,2.58,8.53,3.14a6.81,6.81,0,0,1,.72,2.14c0,.12,0,.26.07.4a41.22,41.22,0,0,1-.45,13.67,68.81,68.81,0,0,1-4,10.94,12.89,12.89,0,0,0-1.58,5.43c0,.1,0,.2,0,.3a5.06,5.06,0,0,0,.83,2.35c.78,1.33,2,2.75,3.08,4.22.21.29.46.67.72,1.11A55.67,55.67,0,0,1,63,116.84Z" fill="url(#radial-gradient-7)"/><path d="M48.43,58.89a10.53,10.53,0,0,1-.92-3l1.35.39c1.16.35,7.12,2.58,8.53,3.14a6.81,6.81,0,0,1,.72,2.14C52.28,59.91,48.77,59,48.43,58.89Z" fill="url(#linear-gradient-8)" style="mix-blend-mode:multiply"/><path d="M57.73,75.68a68.81,68.81,0,0,1-4,10.94,12.89,12.89,0,0,0-1.58,5.43c-.33.17-.57.27-.63.24-.28-.12-7.26-2.21-7.42-2.49s2.32-.63,4.13-1,4.87-3.12,5.78-4c-2.2-.23-2.15-1-1-2.16a7.32,7.32,0,0,0,1.82-2.72c-2.05,1.65-4.77,4.48-12.25,3.57-1.94-4.42.79-7,.79-7,2.84-.34,5.16,1,7.25,1s5-1.48,5.41-3.8c-.24-7.2,2.26-9.95,2.14-11.68A41.22,41.22,0,0,1,57.73,75.68Z" fill="url(#linear-gradient-9)" style="mix-blend-mode:multiply"/><path d="M63,116.85c-1.15.49-2.3,1-3.47,1.41s-2.38.78-3.6,1.09a17.49,17.49,0,0,1-3.76.54,6.36,6.36,0,0,1-3.78-.88A12.13,12.13,0,0,1,44,112.84a24.54,24.54,0,0,1-.93-3.66c-.2-1.24-.31-2.49-.39-3.73a29.4,29.4,0,0,0,1.58,7.29,12,12,0,0,0,4.31,6,6.08,6.08,0,0,0,3.57.85,18.59,18.59,0,0,0,3.71-.49A54,54,0,0,0,63,116.85Z" fill="#2d2835"/><path d="M68.73,97.35a2.63,2.63,0,0,1-.35.36,29.92,29.92,0,0,0-3.08,3c-.3.61,0,.93-.56,1.86a5.26,5.26,0,0,1-2.93,2.05,20.4,20.4,0,0,0-3.23,1.49A27,27,0,0,0,55.64,108a18.11,18.11,0,0,1-1.89,2,1.33,1.33,0,0,1-.43.25h0c-.54.15-.65-.47-.48-.79s.47-.69.85-1.24.43-.85.82-1.17a24.24,24.24,0,0,0,2.09-2.08A34,34,0,0,0,53.47,107c-.56.47-2.11,2-2.66,2.48a.68.68,0,0,1-.77.19.7.7,0,0,1-.42-.78v0l0-.11a2.53,2.53,0,0,1-.18.22,4.32,4.32,0,0,1-.61.49.55.55,0,0,1-.34.11.7.7,0,0,1-.59-1c.22-.47.79-1.6,1.24-2.41a6.13,6.13,0,0,1,1.69-2.25c.64-.35,1.44-1,3.32-2.16,0,0-2.48.9-4.11,1.45a23.59,23.59,0,0,1-3.89,2.19.93.93,0,0,1-.64-.08c-.34-.19-.4-.63,0-1,.63-.48,1.8-1.53,2.4-2a8,8,0,0,1,1.94-1.4c.68-.21,1.52-.61,2.66-1.1A13.48,13.48,0,0,1,54.86,99c.8-.21,6.22-1.27,6.6-1.69s.81-1,1.36-1.63c.12-.15.24-.29.35-.44a4.1,4.1,0,0,0,.34-.41S68.65,97.34,68.73,97.35Z" fill="url(#linear-gradient-10)"/><path d="M68.38,97.71a29.92,29.92,0,0,0-3.08,3c-.3.61,0,.93-.56,1.86a5.26,5.26,0,0,1-2.93,2.05,20.4,20.4,0,0,0-3.23,1.49A27,27,0,0,0,55.64,108a18.11,18.11,0,0,1-1.89,2,1.33,1.33,0,0,1-.43.25,5,5,0,0,0,1-1.16A6.06,6.06,0,0,1,56,107.36a33.77,33.77,0,0,0,2.92-2A29,29,0,0,1,62.26,104a4.24,4.24,0,0,0,2.27-3.22,15,15,0,0,1,1.3-1.6c-1.07-.36-2.68-2.48-3-3.51a1,1,0,0,1-.06-.26.74.74,0,0,1,.41-.18C64.31,95.06,66.68,96.52,68.38,97.71Z" fill="url(#linear-gradient-11)"/><path d="M57,104.68a4.5,4.5,0,0,0-.41.37A34,34,0,0,0,53.47,107c-.56.47-2.11,2-2.66,2.48a.68.68,0,0,1-.77.19,3.53,3.53,0,0,0,1.11-.86,17.07,17.07,0,0,1,2.74-2.56Z" fill="url(#linear-gradient-12)"/><path d="M52,105.52c-.07,0-1.49,1.87-1.49,1.87l-.89,1.33a2.53,2.53,0,0,1-.18.22,4.32,4.32,0,0,1-.61.49.55.55,0,0,1-.34.11,2.91,2.91,0,0,0,.78-.85c.5-.81,2.41-3.19,2.41-3.19C52.22,105.23,52.12,105.5,52,105.52Z" fill="url(#linear-gradient-13)"/><path d="M54.19,101.69s-2.48.9-4.11,1.45a23.59,23.59,0,0,1-3.89,2.19.93.93,0,0,1-.64-.08,4.15,4.15,0,0,0,1.39-.55,26.15,26.15,0,0,0,2.41-1.6,4.38,4.38,0,0,1,1.72-.62C51.89,102.26,54.19,101.69,54.19,101.69Z" fill="url(#linear-gradient-14)"/><path d="M55.44,102.81c-.55.53-1.13,1-1.71,1.53s-1.21,1-1.72,1.45-.93,1.17-1.4,1.75-.67.87-1,1.33a.28.28,0,0,1,0-.15,2.53,2.53,0,0,1-.18.22,12.88,12.88,0,0,1,.89-1.57c.43-.64.84-1.24,1.35-1.87a19.36,19.36,0,0,1,1.82-1.41C54.17,103.65,54.79,103.21,55.44,102.81Z" fill="#b8784d"/><path d="M83.93,83.73a4.78,4.78,0,0,1-.47.89,5.73,5.73,0,0,1-.78,1c-2,2.16-12.88,13.16-14.29,14.45a4.81,4.81,0,0,1-2.6-.3c-2.21-.85-4-3-3.87-4.37.1-.12.2-.27.32-.42s.23-.34.37-.53c2.79-3.91,8.91-11.92,9.14-12.18l-.14-.05A2.49,2.49,0,0,1,71,82a2.11,2.11,0,0,1-1.27-1.32l0,0a1,1,0,0,0-.26-.3,1.17,1.17,0,0,0-.2-.12c-.19-.1-.42-.19-.68-.32l-.11,0a3.67,3.67,0,0,1-1.07-.81,26.16,26.16,0,0,0-7.06-4.32c-.54-.2-1.07-.38-1.57-.54s-.87-.28-1.25-.39l-.42-.11-.07,0c-.08-.25-.18-.58-.29-1,0-.09,0-.19-.07-.29s-.07-.29-.11-.44c-.07-.32-.14-.66-.21-1a3.43,3.43,0,0,1-.06-.34,19.8,19.8,0,0,1,1.08-11.16c1.36.15,4,2.25,6.32,4.41a28.68,28.68,0,0,0,5.77,3.87l.39.2.56,0a3.72,3.72,0,0,1,3.14,1.48,20.59,20.59,0,0,0,5.59,4.1c2.16.9,3.54,3.13,4.41,4.86A7.59,7.59,0,0,1,83.93,83.73Z" fill="url(#radial-gradient-8)"/><path d="M68.14,79c-.39-.7.26-.66-.83-1.44a36.94,36.94,0,0,0-5.81-3.27,22.49,22.49,0,0,1,4.35-1.15c-1-.12-6.81-.06-8.7-.16.75-.44,3.07-1.31,5-2.06A35.37,35.37,0,0,0,56.58,72c0,.15.07.29.11.44s.05.2.07.29c.11.39.21.72.29,1l.07,0,.42.11c.4.11.84.25,1.3.41s1,.33,1.52.52a26.16,26.16,0,0,1,7.06,4.32,3.67,3.67,0,0,0,1.07.81A1.89,1.89,0,0,0,68.14,79Z" fill="url(#linear-gradient-15)" style="mix-blend-mode:multiply"/><path d="M73.55,77.36c-1.47,1-3,1.4-3.81,3.31a.88.88,0,0,0-.25-.29,1.32,1.32,0,0,0-.2-.12c-.19-.11-.43-.19-.68-.32A7.36,7.36,0,0,1,73.55,77.36Z" fill="url(#linear-gradient-16)" style="mix-blend-mode:multiply"/><path d="M77.92,79.33c-1.63.34-3.51-.07-6.31,2.89A3.46,3.46,0,0,1,71,82c1.22-2.51,2.73-4.78,6.88-4.87a10.93,10.93,0,0,0-5.64,4.27C74.53,79.38,76.12,78.68,77.92,79.33Z" fill="url(#linear-gradient-17)" style="mix-blend-mode:multiply"/><path d="M83.93,83.73a5.12,5.12,0,0,1-.47.89,6.65,6.65,0,0,1-.78,1c-2,2.15-12.89,13.15-14.29,14.45a4.92,4.92,0,0,1-2.6-.31C69.07,97,78.16,88.7,78.14,88.58a12.26,12.26,0,0,1-2.21.1c2.5-1.24,5.14-5.57,4.53-6.65s-2-2.44-5.58-2.29a9.52,9.52,0,0,1,5.59-.63c-1.11-1.26-3.71-1.63-5.4-1,1.21-1.35,3.11-1.58,3.32-2.16s-.79-1.38-2.34-1.77S68.7,72,67,71.89a10.84,10.84,0,0,1,2.44-.75c1.94-.46.82-2.46-.67-2.41s-3.47.12-5.83.28c1.1-.33,2.06-1,1-1.67s-5.53-4.37-6-4.1a15.81,15.81,0,0,1-2.31,1.09c-.39.94-.93,1.6-2.63,2.54l-.08,0c-.17.06-.08-.55.06-1.2s.37-1.47.37-1.47a5.1,5.1,0,0,0,.3-1.37,6.4,6.4,0,0,1,3.78-3.4c1.36.15,4,2.24,6.33,4.41a27.56,27.56,0,0,0,5.76,3.87l.4.2.55,0a3.72,3.72,0,0,1,3.14,1.48,21,21,0,0,0,5.6,4.11c2.16.89,3.53,3.13,4.41,4.86A7.61,7.61,0,0,1,83.93,83.73Z" fill="url(#linear-gradient-18)" style="mix-blend-mode:multiply"/><path d="M59.09,69.18a17.6,17.6,0,0,1-1.57,1.1c-.38.25-.76.48-1.15.69a3.43,3.43,0,0,1-.06-.34l1.08-.57C58,69.76,58.51,69.46,59.09,69.18Z" fill="#2d2835"/><path d="M61.75,70.89,60,71.54l-1.77.65-1.45.54c0-.09,0-.19-.07-.29a14.47,14.47,0,0,1,1.41-.59,18.8,18.8,0,0,1,1.8-.57A17.41,17.41,0,0,1,61.75,70.89Z" fill="#2d2835"/><path d="M65.63,72.94l-2.49.32-2.49.28-2.49.24-.62,0-.43-.11-.06,0q.54-.11,1.08-.18,1.24-.19,2.49-.33c.83-.08,1.67-.15,2.5-.19S64.79,72.94,65.63,72.94Z" fill="#2d2835"/><path d="M70.43,67.93c-.48.08-1,.16-1.44.26l-2.11.35c-.71.12-1.41.21-2.12.28.68-.19,1.38-.36,2.07-.53s1.39-.31,2.1-.45a5.25,5.25,0,0,1,.55-.09l.4.2Z" fill="#2d2835"/><path d="M68.08,71.79a12,12,0,0,1,1.34-.16,12.36,12.36,0,0,1,1.36,0q.68,0,1.35.09a11.9,11.9,0,0,1,1.33.22q-.67,0-1.35,0l-1.34,0-1.34,0C69,71.85,68.53,71.83,68.08,71.79Z" fill="#2d2835"/><path d="M73.55,77.36a5.73,5.73,0,0,0-1.5.65,7.56,7.56,0,0,0-1.28,1,12.39,12.39,0,0,0-1.11,1.18,1.84,1.84,0,0,0-.17.22,1.32,1.32,0,0,0-.2-.12l.16-.26a9.27,9.27,0,0,1,1.08-1.28,6,6,0,0,1,1.4-.94A4,4,0,0,1,73.55,77.36Z" fill="#2d2835"/><path d="M71.68,82.21a6,6,0,0,1,1.4-1.49,6.84,6.84,0,0,1,1.8-1,7,7,0,0,1,2-.42,8.83,8.83,0,0,1,1,0c.34,0,.67.11,1,.18-.34,0-.67,0-1,0s-.66,0-1,.1a9.49,9.49,0,0,0-1.9.5,9.93,9.93,0,0,0-1.76.87A10.83,10.83,0,0,0,71.68,82.21Z" fill="#2d2835"/><path d="M71.81,81.92a16,16,0,0,1,1.52-2.17,8.52,8.52,0,0,1,2-1.77,5.55,5.55,0,0,1,2.56-.81,3.94,3.94,0,0,1,2.55.7,4.34,4.34,0,0,0-2.52-.41,5.82,5.82,0,0,0-2.39.85,9.45,9.45,0,0,0-2,1.64C72.94,80.57,72.39,81.25,71.81,81.92Z" fill="#2d2835"/><path d="M83.93,83.73a5.12,5.12,0,0,1-.47.89,10.15,10.15,0,0,1-1,.95,11.07,11.07,0,0,1-1.91,1.26,10.74,10.74,0,0,1-2.11.86,22.45,22.45,0,0,0,2-1.07,16.78,16.78,0,0,0,1.82-1.31,14.76,14.76,0,0,0,1.64-1.52Z" fill="#2d2835"/><path d="M68.4,91.16c-.62.43-1.24.85-1.87,1.26s-1.27.81-1.91,1.2-1.3.75-2,1.11l-.43.24c.11-.17.23-.34.37-.53.6-.39,1.21-.76,1.83-1.14s1.3-.74,2-1.1S67.73,91.49,68.4,91.16Z" fill="#2d2835"/><path d="M57.05,73.7l-.29-1h0c-.15-.58-.27-1.17-.39-1.76h0a19.83,19.83,0,0,1,1-11.5,24.41,24.41,0,0,0-1,5.7c0,1,0,1.91,0,2.88s.14,1.93.25,2.86v0l.26,1.78h0Z" fill="#2d2835"/><path d="M40.15,118.78c-2.16,2.3-7.24,3-13.63,2.72-1,0-2-.1-3.11-.17.63-5.78,2.9-14.64,5.23-19.51s2.66-7.21,2.83-9.47S30.11,86.51,29,82.88,23.93,63,26.2,59.75c1-.35,8.39-3.42,10.09-4.15S39.64,55,42.08,55v.15c0,2-.34,24.41-.12,30.37-.12,2.21-.07,5.3,0,8.47,0,1.34.1,2.71.18,4,.16,3,.35,5.69.51,7.47C43.09,109.87,42.64,116.11,40.15,118.78Z" fill="url(#radial-gradient-9)"/><path d="M40.15,118.78c-2.16,2.3-7.24,3-13.63,2.72-1,0-2-.1-3.11-.17.63-5.78,2.9-14.64,5.23-19.51s2.66-7.21,2.83-9.47S30.11,86.51,29,82.88,23.93,63,26.2,59.75c1-.35,8.39-3.42,10.09-4.15S39.64,55,42.08,55v.15c0,2-.34,24.41-.12,30.37-.12,2.21-.07,5.3,0,8.47,0,1.34.1,2.71.18,4,.16,3,.35,5.69.51,7.47C43.09,109.87,42.64,116.11,40.15,118.78Z" fill="url(#radial-gradient-10)"/><circle cx="40.12" cy="86" r="0.91" fill="url(#radial-gradient-11)"/><circle cx="40.29" cy="100.33" r="0.91" fill="url(#radial-gradient-12)"/><path d="M34.42,97.74c-1.86,2.59-6.14,17.23-7.9,23.76-1,0-2-.1-3.11-.17.63-5.78,2.9-14.64,5.23-19.51s2.66-7.21,2.83-9.47S30.11,86.51,29,82.88,23.93,63,26.2,59.75c1-.35,8.39-3.42,10.09-4.15S39.64,55,42.08,55v.15c-2.62,2-7.43,5.3-7.43,5.3a36.93,36.93,0,0,1-6.41,1.76,3.51,3.51,0,0,0-2.32,1.65c-.17,1.7,1.81,2.38,2.32,3.79a16,16,0,0,1,.51,4.26,5.61,5.61,0,0,0,2.44,4.36c1.87,1.31,4.66,1.45,8.2.5,3.88,2.51,1.78,5.74,1.78,5.74a15.28,15.28,0,0,1-7.26-.62c.46,1.3,4.71,3.8,5.38,4.14a15.37,15.37,0,0,1-5,.22C36.81,89.12,35,97.82,34.42,97.74Z" fill="url(#linear-gradient-19)" style="mix-blend-mode:multiply"/><path d="M27.91,67.67a4.45,4.45,0,0,1,.23,2.14,17,17,0,0,0,0,2.14,10.37,10.37,0,0,0,1,4.08A6.29,6.29,0,0,0,32,79a8.09,8.09,0,0,0,4.13.82,7.44,7.44,0,0,1-4.26-.56A6.58,6.58,0,0,1,30.06,78a6.47,6.47,0,0,1-1.3-1.78A10.15,10.15,0,0,1,27.83,72,14.3,14.3,0,0,1,28,69.79,4.6,4.6,0,0,0,27.91,67.67Z" fill="#2d2836"/><path d="M55.93,67.51a18,18,0,0,0,.21,3.95,7.54,7.54,0,0,1-.31,4,7.94,7.94,0,0,1-.89,1.83,4.71,4.71,0,0,1-1.46,1.42,9.35,9.35,0,0,1-3.85,1,11,11,0,0,0,3.69-1.3,5.85,5.85,0,0,0,2.15-3.12,7.59,7.59,0,0,0,.38-3.84A15.15,15.15,0,0,1,55.93,67.51Z" fill="#2d2836"/><path d="M29.48,79.36l1.29,1.32c.43.44.87.86,1.33,1.25A10.27,10.27,0,0,0,33.56,83a7.54,7.54,0,0,0,1.66.75,5.43,5.43,0,0,1-1.8-.5,7.33,7.33,0,0,1-1.57-1,11.76,11.76,0,0,1-1.29-1.35A17.82,17.82,0,0,1,29.48,79.36Z" fill="#2d2836"/><path d="M55.34,80.77c-.24.37-.49.72-.76,1.07s-.54.68-.82,1l-.44.48c-.15.17-.3.33-.24.39a1.46,1.46,0,0,0,.5.28,2.19,2.19,0,0,0,.63.11,1.51,1.51,0,0,1-.67,0,1.19,1.19,0,0,1-.66-.28.39.39,0,0,1,0-.46,2.12,2.12,0,0,1,.21-.27l.42-.51c.29-.33.58-.65.88-1S55,81.06,55.34,80.77Z" fill="#2d2836"/><path d="M51.56,81.94a11.74,11.74,0,0,1-1.42.58,15.15,15.15,0,0,1-1.46.42c-.5.1-1,.19-1.51.25a12.79,12.79,0,0,1-1.52.08l1.48-.33,1.47-.32,1.48-.34Z" fill="#2d2836"/><path d="M53.74,85.65a16,16,0,0,1-1.33,1.65,6.76,6.76,0,0,1-1.68,1.32,5.61,5.61,0,0,1-2.06.6,18.8,18.8,0,0,1-2.12,0c.7-.12,1.39-.19,2.08-.32a6.34,6.34,0,0,0,1.93-.63,8.23,8.23,0,0,0,1.67-1.2C52.75,86.65,53.24,86.14,53.74,85.65Z" fill="#2d2836"/><path d="M38.77,101c-.46.53-.94,1-1.45,1.52s-1,.94-1.56,1.39-1.1.86-1.67,1.26-1.16.78-1.77,1.13l1.62-1.33,1.61-1.32,1.61-1.32Z" fill="#2d2836"/><path d="M40.17,102.6c-.26.69-.55,1.38-.87,2.05s-.67,1.32-1,2-.8,1.26-1.24,1.85-.92,1.17-1.42,1.72l1.19-1.87,1.16-1.89c.38-.62.76-1.26,1.13-1.89Z" fill="#2d2836"/><path d="M23.42,121.33c1.3,0,2.6,0,3.9,0s2.6,0,3.88-.14c2.55-.21,5.21-.49,7.4-1.7A5.62,5.62,0,0,0,41,116.82a16.72,16.72,0,0,0,1.13-3.64,29,29,0,0,0,.47-3.84,33.63,33.63,0,0,0,.07-3.89,30.72,30.72,0,0,1-.27,7.78,15.54,15.54,0,0,1-1.1,3.73,5.9,5.9,0,0,1-2.55,2.85,18,18,0,0,1-7.56,1.67A65.47,65.47,0,0,1,23.42,121.33Z" fill="#2d2835"/><path d="M42.7,105.45,42.32,103l-.27-2.49c-.16-1.66-.25-3.32-.35-5s-.1-3.33-.07-5c0-.84,0-1.67.09-2.51s.15-1.66.24-2.49c-.15,3.33,0,6.66.1,10S42.41,102.13,42.7,105.45Z" fill="#2d2835"/><path d="M28,67a14.53,14.53,0,0,1-.89,4.57,58.33,58.33,0,0,0-7.64-1.31c-2-.23-1.48.23-3,.11s-1.82.8-3.11.23S7.5,69.06,4.85,66.1a31.38,31.38,0,0,1,3.86-8c.5-.79.84-1.27.84-1.27L12,58.26a6,6,0,0,0,1.25.58,1.25,1.25,0,0,0,.31,0c.41,0,.64-.26,1-.08a1.87,1.87,0,0,1,.43.32,2.17,2.17,0,0,0,.83.62.62.62,0,0,0,.39-.05c.12,0,.32-.16.55-.23a.86.86,0,0,1,.9.13.93.93,0,0,0,1,.28l.32-.11a4.7,4.7,0,0,0,.68-.42,1.54,1.54,0,0,1,1.25-.17,2.72,2.72,0,0,0,1.2.18c.17,0,.38-.09.72-.18.91-.22.72-.46,1.48-.11a11.7,11.7,0,0,0,3.29.17c.13.82.24,1.81.31,2.88A36.58,36.58,0,0,1,28,67Z" fill="url(#radial-gradient-13)"/><path d="M12,58.26A11.11,11.11,0,0,1,13.29,61a21.86,21.86,0,0,0-3.74-4.25Z" fill="url(#linear-gradient-20)" style="mix-blend-mode:multiply"/><path d="M14.57,58.8a20.78,20.78,0,0,1,1.79,4.74,15,15,0,0,0-2.81-4.66C14,58.88,14.19,58.62,14.57,58.8Z" fill="url(#linear-gradient-21)" style="mix-blend-mode:multiply"/><path d="M16.77,59.46a41.61,41.61,0,0,1,1.94,4.44,23.25,23.25,0,0,0-2.88-4.16.62.62,0,0,0,.39-.05C16.34,59.65,16.54,59.53,16.77,59.46Z" fill="url(#linear-gradient-22)" style="mix-blend-mode:multiply"/><path d="M23.34,63c-.39-.27-3.22-2.1-4.69-3.11l.32-.11a4.7,4.7,0,0,0,.68-.42C20.4,60.09,21.56,61.16,23.34,63Z" fill="url(#linear-gradient-23)" style="mix-blend-mode:multiply"/><path d="M27.9,62.11a13,13,0,0,1-5.8-2.76c.17,0,.38-.09.72-.18.91-.22.72-.46,1.48-.11a11.7,11.7,0,0,0,3.29.17C27.72,60.05,27.83,61,27.9,62.11Z" fill="url(#linear-gradient-24)" style="mix-blend-mode:multiply"/><path d="M28,67a14.53,14.53,0,0,1-.89,4.57,58.33,58.33,0,0,0-7.64-1.31c-2-.23-1.48.23-3,.11s-1.82.8-3.11.23S7.5,69.06,4.85,66.1a31.38,31.38,0,0,1,3.86-8l.2,0c.54,2.78,1.1,5.5.7,6.86s1.59,2.22,2.84,2.34a2.51,2.51,0,0,0,2.27-1c.28.91.62,2.11,1.41,2.32s.79-3.28.4-4.64a17.75,17.75,0,0,0,3.74,4.25c.68.39-1.53-3.93-1.56-4.29,3.09,2.48,5.87,4.23,7.12,5.14s1.19-.57-.8-2.61a26.87,26.87,0,0,0-3.25-2.93C24.33,65,26.51,66.23,28,67Z" fill="url(#linear-gradient-25)" style="mix-blend-mode:multiply"/><path d="M14.28,59.65a5.81,5.81,0,0,1,1.35,1.53A8.42,8.42,0,0,1,16.47,63a12.39,12.39,0,0,1,.43,2,19.43,19.43,0,0,1,.16,2c-.16-.65-.28-1.31-.43-2s-.29-1.3-.49-1.93a10.41,10.41,0,0,0-.74-1.84A7.87,7.87,0,0,0,14.28,59.65Z" fill="#2d2835"/><path d="M16.73,60.76A11.15,11.15,0,0,1,18,62.17a16.17,16.17,0,0,1,1,1.56c.31.54.6,1.1.86,1.66s.5,1.15.72,1.73c-.34-.53-.65-1.06-1-1.6l-.92-1.62c-.31-.53-.62-1.06-.95-1.59S17.09,61.27,16.73,60.76Z" fill="#2d2835"/><path d="M20,62.12c.72.5,1.42,1,2.11,1.54s1.37,1.06,2.05,1.6l2,1.67c.66.57,1.3,1.15,1.93,1.75-.72-.49-1.42-1-2.11-1.53s-1.37-1.06-2.05-1.6-1.34-1.11-2-1.68S20.61,62.72,20,62.12Z" fill="#2d2835"/><path d="M22.68,67.2c.43.31.85.63,1.26,1s.81.68,1.2,1,.77.73,1.14,1.11.71.78,1.06,1.18c-.43-.32-.86-.63-1.27-1s-.8-.68-1.19-1-.77-.73-1.13-1.11S23,67.6,22.68,67.2Z" fill="#2d2835"/><path d="M19.44,59.88c.31.15.6.32.88.49l.84.52.81.58c.27.19.52.4.79.62a9.58,9.58,0,0,1-.93-.39,9.34,9.34,0,0,1-.87-.5,8,8,0,0,1-.8-.61A6.89,6.89,0,0,1,19.44,59.88Z" fill="#2d2835"/><path d="M8.23,68.34c.51.09,1,.21,1.51.29a9.28,9.28,0,0,0,1.49.14,6,6,0,0,0,1.46-.17A4,4,0,0,0,14.06,68a3.24,3.24,0,0,1-1.28.9,4.14,4.14,0,0,1-1.56.27,5.76,5.76,0,0,1-1.55-.24A9,9,0,0,1,8.23,68.34Z" fill="#2d2835"/><path d="M11.3,58.4a6.86,6.86,0,0,1,1,.86,8.54,8.54,0,0,1,.86,1,8.33,8.33,0,0,1,.67,1.16,6.9,6.9,0,0,1,.45,1.25l-.69-1.12c-.24-.37-.48-.73-.73-1.09s-.5-.71-.76-1.05Z" fill="#2d2835"/><path d="M27.59,59.23l.33,3.11c.07,1,.11,2.08.1,3.12a26.91,26.91,0,0,1-.2,3.11,11.8,11.8,0,0,1-.75,3,17,17,0,0,0,.47-3.06c.07-1,.14-2.06.12-3.09s0-2.06,0-3.1S27.55,60.29,27.59,59.23Z" fill="#2d2835"/><path d="M62.25,38.46c-1.67,1.66-2.65,4.08-1.9,5.52s1.44,4.38.54,5.89l0,0a6.77,6.77,0,0,1-4.29,3c-2.2.68-2,2.87-1.52,4s1.21,2.42.07,3.1a13.58,13.58,0,0,1-2.47.73C49,61.62,42.51,62.8,42.51,62.8S29.05,59.93,29.2,58.65a2,2,0,0,0,0-.23,1.93,1.93,0,0,0-.72-1.78,5.84,5.84,0,0,0-1-.71,2.84,2.84,0,0,0-.72-.32c-1.12-.4-2.13-.24-3.13-1.43-1.2-1.42-.61-3.38.07-4.81v0a5.13,5.13,0,0,0,.41-1.28,2.62,2.62,0,0,0-.72-2.51c-1-.9-4.08-2.94-5.06-6.12a15.72,15.72,0,0,1,.45-9.83c1.31-4,1.89-7,3.1-12.33a29.06,29.06,0,0,1,5-11.15c.42-.57.88-1.13,1.36-1.69.12-.15.26-.3.4-.46s.32-.34.49-.52C32.61.14,38.72-.36,41.61.5A13.36,13.36,0,0,1,55,4.32c.19.19.36.38.53.58A12.9,12.9,0,0,1,57.1,7.16c1.91,3.5,3.79,9.6,4.92,12.39s2.87,6.73,3.25,10.66A9.92,9.92,0,0,1,62.25,38.46Z" fill="url(#radial-gradient-14)"/><path d="M62.25,38.46c-1.67,1.66-2.65,4.08-1.9,5.52s1.44,4.38.54,5.89l0,0a6.77,6.77,0,0,1-4.29,3c-2.2.68-2,2.87-1.52,4s1.21,2.42.07,3.1a13.58,13.58,0,0,1-2.47.73C49,61.62,42.51,62.8,42.51,62.8S29.05,59.93,29.2,58.65a2,2,0,0,0,0-.23,1.93,1.93,0,0,0-.72-1.78,5.84,5.84,0,0,0-1-.71,2.84,2.84,0,0,0-.72-.32c-1.12-.4-2.13-.24-3.13-1.43-1.2-1.42-.61-3.38.07-4.81v0a5.13,5.13,0,0,0,.41-1.28,2.62,2.62,0,0,0-.72-2.51c-1-.9-4.08-2.94-5.06-6.12a15.72,15.72,0,0,1,.45-9.83c1.31-4,1.89-7,3.1-12.33a29.06,29.06,0,0,1,5-11.15c.42-.57.88-1.13,1.36-1.69.12-.15.26-.3.4-.46s.32-.34.49-.52C32.61.14,38.72-.36,41.61.5A13.36,13.36,0,0,1,55,4.32c.19.19.36.38.53.58A12.9,12.9,0,0,1,57.1,7.16c1.91,3.5,3.79,9.6,4.92,12.39s2.87,6.73,3.25,10.66A9.92,9.92,0,0,1,62.25,38.46Z" fill="url(#radial-gradient-15)" style="mix-blend-mode:multiply"/><polygon points="48.68 60.24 48.61 61.66 48.37 66.58 46.91 74.88 46.86 75.15 46.7 76.11 46.25 76.99 46.11 77.28 44.57 80.31 44.43 80.6 41.96 85.49 38.26 78.84 38.18 78.69 37.17 76.87 37.12 76.78 36.95 76.5 35.55 73.97 34.65 60.42 36.91 59.4 46.33 59.29 48.68 60.24" fill="url(#radial-gradient-16)"/><path d="M48.61,61.66l-.24,4.92-1.46,8.3,0,.27-.16,1-.45.88-.14.29-1.54,3-.14.28L42,85.49l-3.7-6.65-.08-.15-1-1.82c.14-.54.34-.94.65-1a11.16,11.16,0,0,1,4-.16c.91.16,3.12.45,3.06,0s-1.33-.68-3.06-.88c.8.14,3.58-1,3.91-2.07A107.49,107.49,0,0,0,47.61,60.8,2.29,2.29,0,0,1,48.61,61.66Z" fill="url(#linear-gradient-26)" style="mix-blend-mode:multiply"/><path d="M42.64,78l-1.28.28-1.27.26c-.42.07-.82.16-1.28.25-.17,0-.35.06-.55.1l-.08-.15.57-.2c.42-.13.84-.24,1.27-.33s.87-.14,1.31-.19A11.45,11.45,0,0,1,42.64,78Z" fill="#bf8193"/><path d="M40.88,76.67l-1.49.07-1.49,0h-.78L37,76.5c.32,0,.64,0,.95,0,.5,0,1,0,1.5,0A10.65,10.65,0,0,1,40.88,76.67Z" fill="#bf8193"/><path d="M46.91,74.88l0,.27c-.51,0-1,0-1.53,0L43.58,75c-.58-.06-1.16-.12-1.73-.2.58,0,1.16,0,1.74,0s1.17,0,1.75,0Z" fill="#bf8193"/><path d="M46.25,77l-.14.29-.56-.16c-.39-.13-.78-.26-1.16-.42a11.29,11.29,0,0,1-1.11-.53c.4.08.79.19,1.19.29l1.18.33Z" fill="#bf8193"/><path d="M44.57,80.32l-.14.28-.94-.09-1.27-.13-1.28-.14a9.38,9.38,0,0,1,1.29-.12,11.12,11.12,0,0,1,1.29,0C43.87,80.2,44.23,80.25,44.57,80.32Z" fill="#bf8193"/><path d="M45.38,52.6c.57,0,.91.26,1.4,1s1.51,2.12,2.08,2.76a54.56,54.56,0,0,1,2.65,7.41c-.49.3-1.89,1.1-2.12,1.28.8.53,1.69,1,2,1.24-2,6.44-4,12.58-9.43,19.22,1.31-3.35,5.46-11.67,5.65-24.69C45.48,56.11,44.55,53.84,45.38,52.6Z" fill="url(#radial-gradient-17)"/><path d="M51.51,63.75h0a55.36,55.36,0,0,0-2.65-7.41c.48,1.22.91,2.46,1.3,3.71s.73,2.37,1,3.57c-.67.39-1.35.77-2,1.18L48.8,65l.42.26L51,66.41c-.51,1.64-1,3.26-1.6,4.87a52.11,52.11,0,0,1-2,5A45.52,45.52,0,0,1,45,81a52.86,52.86,0,0,1-3,4.48,43.14,43.14,0,0,0,5.75-9.1,74.14,74.14,0,0,0,3.68-10.12h0l-2-1.24h0Z" fill="#2d2835"/><path d="M42,85.49c-6.18-6.81-9.13-15.13-9.69-18.87A10.47,10.47,0,0,1,34,65.11c-.27-.23-1.21-.75-1.78-1.17.14-.66.58-2.12,1.1-3.66A30.13,30.13,0,0,1,35,56c1.51-1.51,2.49-3.44,2.76-3.55A25.53,25.53,0,0,1,41,52a9.88,9.88,0,0,1,1,0s-.87,1.32-2.06,3.07h0l-.85,1.23c-1,1.47-2.16,3.07-3.14,4.32C35.66,67,38.17,76.79,42,85.49Z" fill="url(#radial-gradient-18)"/><path d="M41,52c-.33,1-.71,2.17-1,3h0c-.29.78-.51,1.3-.58,1.25s-.14,0-.27,0a14.08,14.08,0,0,0-2.06.67l.33-.05c-1.72,1.3-3.05,2.57-4.13,3.37A30.13,30.13,0,0,1,35,56c1.51-1.51,2.49-3.44,2.76-3.55A25.53,25.53,0,0,1,41,52Z" fill="url(#linear-gradient-27)" style="mix-blend-mode:multiply"/><path d="M38.81,81.16a44.17,44.17,0,0,1-2.64-4.63A42,42,0,0,1,34,71.66a31,31,0,0,1-1.42-5,5.92,5.92,0,0,1,.67-.64l.87-.71.3-.25-.29-.24a4.93,4.93,0,0,0-.47-.32l-.46-.28-.73-.46c.29-1.29.68-2.58,1.07-3.86A31,31,0,0,1,35,56a31,31,0,0,0-1.57,3.93c-.45,1.34-.89,2.68-1.23,4h0c.57.42,1.21.75,1.78,1.17h0l-.89.72a4.66,4.66,0,0,0-.81.79h0a27.81,27.81,0,0,0,1.44,5.16A43.56,43.56,0,0,0,42,85.49,49.28,49.28,0,0,1,38.81,81.16Z" fill="#2d2835"/><path d="M54.11,41.78a12.26,12.26,0,0,0-2,6.38,5.84,5.84,0,0,0,2.46,5l.08,0a.26.26,0,0,1,.15.38c-.19,0-.83,1.12-.91,1.26a2.9,2.9,0,0,0-.4,2.5A4,4,0,0,0,54.87,59a1.83,1.83,0,0,1,.36,2.08,5.27,5.27,0,0,1-.55,1.09,6.9,6.9,0,0,1,1.12-.61c.09-.06.23-.09.35-.15a2.65,2.65,0,0,0,.92-3c-.19-.52-1.51-1.58-.79-2.13a4.63,4.63,0,0,0,1.78-2.87,2.83,2.83,0,0,0-1-2.28,6.36,6.36,0,0,0-1.76-.94c-1.37-.71-1.62-3.11-1.59-4.47a8.59,8.59,0,0,1,.51-2.84c.09-.24,1-2,.83-2.11S54.13,41.75,54.11,41.78Z" fill="url(#radial-gradient-19)"/><path d="M54.11,41.78a12.26,12.26,0,0,0-2,6.38,5.84,5.84,0,0,0,2.46,5l.08,0a.26.26,0,0,1,.15.38c-.19,0-.83,1.12-.91,1.26a2.9,2.9,0,0,0-.4,2.5A4,4,0,0,0,54.87,59a1.83,1.83,0,0,1,.36,2.08,5.27,5.27,0,0,1-.55,1.09,6.9,6.9,0,0,1,1.12-.61c.09-.06.23-.09.35-.15a2.65,2.65,0,0,0,.92-3c-.19-.52-1.51-1.58-.79-2.13a4.63,4.63,0,0,0,1.78-2.87,2.83,2.83,0,0,0-1-2.28,6.36,6.36,0,0,0-1.76-.94c-1.37-.71-1.62-3.11-1.59-4.47a8.59,8.59,0,0,1,.51-2.84c.09-.24,1-2,.83-2.11S54.13,41.75,54.11,41.78Z" fill="url(#linear-gradient-28)" style="mix-blend-mode:multiply"/><path d="M64.84,38a2.59,2.59,0,0,1-.14.29,10.16,10.16,0,0,1-1.15,1.46.71.71,0,0,0-.12.15A3,3,0,0,0,62.5,42a5.62,5.62,0,0,0,1.19,2.18,4.57,4.57,0,0,1,.71,2.08A5.75,5.75,0,0,1,64,48.88s0,0,0,0a5.13,5.13,0,0,1-1.16,1.72c-1.24,1.19-2.76,1.55-4.25,2.27a3.33,3.33,0,0,0-1.81,1.48.91.91,0,0,0,0,.64c.1.33.42.53.77.77a2.12,2.12,0,0,1,.14,3.48,1.4,1.4,0,0,1-.17.09,5.67,5.67,0,0,0,.35-.46A2.24,2.24,0,0,0,58,58a1.68,1.68,0,0,0-1-1.54,2.52,2.52,0,0,1-1.07-1,2.11,2.11,0,0,1,.36-2.33A15.08,15.08,0,0,1,60,50.28c1.22-.77,2.63-2,2.1-3.6,0-.2-.2-.34-.25-.52-.4-.8-1.12-1.41-1.56-2.19a4.79,4.79,0,0,1-.61-2.47c.06-1.93,1.41-2.94,2.26-4.51a8.51,8.51,0,0,0,.42-5.72,19.8,19.8,0,0,0-1.49-4.76A5.47,5.47,0,0,0,60,24.33c-.24-.53-.45-1.08-.65-1.63-.13-.38-.47-1.91.26-1.16a15.84,15.84,0,0,1,1.21,1.59A39.35,39.35,0,0,1,64.33,28,10.76,10.76,0,0,1,64.84,38Z" fill="url(#linear-gradient-29)"/><path d="M61.9,40.23a2.71,2.71,0,0,0-.38,2.88,1.82,1.82,0,0,1-1-1.75c-.35,1.22,0,2,1,3.41a3.63,3.63,0,0,1,.95,3.06,4.62,4.62,0,0,1-1.13,2,2.1,2.1,0,0,0,1.51-1.14,2.59,2.59,0,0,1-.76,1.59A3.57,3.57,0,0,0,64,48.91a5.13,5.13,0,0,1-1.16,1.72c-1.24,1.19-2.76,1.55-4.25,2.27a3.33,3.33,0,0,0-1.81,1.48.91.91,0,0,0,0,.64l-.82.39a2.11,2.11,0,0,1,.36-2.33A15.08,15.08,0,0,1,60,50.28c1.22-.77,2.63-2,2.1-3.6,0-.2-.2-.34-.25-.52-.4-.8-1.12-1.41-1.56-2.19a4.79,4.79,0,0,1-.61-2.47c.06-1.93,1.41-2.94,2.26-4.51a8.51,8.51,0,0,0,.42-5.72,19.8,19.8,0,0,0-1.49-4.76A5.47,5.47,0,0,0,60,24.33c-.24-.53-.45-1.08-.65-1.63-.13-.38-.47-1.91.26-1.16a15.84,15.84,0,0,1,1.21,1.59A39.35,39.35,0,0,1,64.33,28a10.76,10.76,0,0,1,.51,10c-.49.74-1,1.4-1.29,1.75a.71.71,0,0,0-.12.15l-.09.09a2.77,2.77,0,0,0-1.25,2.38A2.61,2.61,0,0,1,61.9,40.23Z" fill="url(#linear-gradient-30)" style="mix-blend-mode:multiply"/><path d="M26.92,58.54l.06-.06C27,58.54,26.94,58.57,26.92,58.54Z" fill="url(#linear-gradient-31)"/><path d="M27,58.48a2.21,2.21,0,0,0,0-.81,1.05,1.05,0,0,0-.95-.48c-.69-.06-1.36.22-2,.14-1.64-.2-1.36-2.11-1-3.27.08-.49.13-.53-.3-.76-.21-.12-.46-.2-.68-.3a3.37,3.37,0,0,1-2-4.5c.09-.27,1.2-2.24,1.12-2.3a.34.34,0,0,0,0-.14,5.38,5.38,0,0,0-1-1.39,11.92,11.92,0,0,1-1.45-2.15,9.35,9.35,0,0,1-.82-4.7A9.53,9.53,0,0,1,18.5,35a32,32,0,0,1,2.85-5.32c0-.05.7-1.15.84-1.1s-.32,1.53-.38,1.77a13.59,13.59,0,0,0-.57,3.35c0,.45,0,.91,0,1.35a12,12,0,0,0,.88,4.81,8.83,8.83,0,0,0,1.23,1.9h0A8.1,8.1,0,0,1,25.25,45a4.45,4.45,0,0,1-.37,2.94A6.84,6.84,0,0,1,24.2,49a5.43,5.43,0,0,1-.29.46v0c-.11.16-.22.31-.29.32-.19.25-.07.48.12.66h0l0,0a8.46,8.46,0,0,1,1.54,1.24,2,2,0,0,1,.51,1.16c.06.92-.64,1.68-.93,2.51-.41,1.18.62.77,1.41,1.13C26.92,56.82,27.67,57.94,27,58.48Z" fill="url(#linear-gradient-32)"/><path d="M26.92,58.54l.06-.06C27,58.54,26.94,58.57,26.92,58.54Z" fill="url(#linear-gradient-33)" style="mix-blend-mode:multiply"/><path d="M27,58.48a2.21,2.21,0,0,0,0-.81,1.05,1.05,0,0,0-.95-.48c-.69-.06-1.36.22-2,.14-1.64-.2-1.36-2.11-1-3.27.08-.49.13-.53-.3-.76-.21-.12-.46-.2-.68-.3a3.37,3.37,0,0,1-2-4.5c.09-.27,1.2-2.24,1.12-2.3a.34.34,0,0,0,0-.14,5.38,5.38,0,0,0-1-1.39,11.92,11.92,0,0,1-1.45-2.15,9.35,9.35,0,0,1-.82-4.7A9.53,9.53,0,0,1,18.5,35a32,32,0,0,1,2.85-5.32c0-.05.7-1.15.84-1.1s-.32,1.53-.38,1.77a13.59,13.59,0,0,0-.57,3.35c0,.45,0,.91,0,1.35l2.11,6.71h0L24,43.82a6.15,6.15,0,0,1,.22,4.73c-.12.34-.22.64-.3.91v0a3.94,3.94,0,0,0-.17,1h0a1.27,1.27,0,0,0,0,.28,2.66,2.66,0,0,1-1-3,2.45,2.45,0,0,0-1.18-2.62,2.41,2.41,0,0,1-.14,2.31c-.42.42-.12,1.51.07,1.89-.42.15-.94-.38-.94-1A2.93,2.93,0,0,0,21,51.24c.6.64,1.67,1.13,1.82,1.36A7.41,7.41,0,0,0,22,51c.42.07,1.55.56,1.78,1.24s-.15,2.2-.15,3,.38,1.22.79,1.29a1.7,1.7,0,0,1,0-2,7.78,7.78,0,0,0,.95-2.78,2,2,0,0,1,.51,1.16c.06.92-.64,1.68-.93,2.51-.41,1.18.62.77,1.41,1.13C26.92,56.82,27.67,57.94,27,58.48Z" fill="url(#linear-gradient-34)" style="mix-blend-mode:multiply"/><path d="M31.59,65.83l.14-.08A.12.12,0,0,1,31.59,65.83Z" fill="url(#linear-gradient-35)"/><path d="M34.86,58.41a2.38,2.38,0,0,1,0,.91c-.39,1.36-2.32,1.3-3.2,2.38-.07.14-.35.25-.33.47a1.52,1.52,0,0,0,.07.53h0c.33,1,1.37,2.4.39,3a2,2,0,0,0,.14-.81,2.14,2.14,0,0,0-.63-1.18,5.55,5.55,0,0,1-.8-1.14A1.52,1.52,0,0,1,30.37,61c.49-1,1.36-1.16,2.11-1.81.92-.79-.85-1.36-1.41-1.76A2.25,2.25,0,0,1,30,54.59c.46-1,1.55-1.58,2.16-2.47a3.5,3.5,0,0,0,.55-3.49c-.49-1.05-1.21-2-1.76-3.05a12.25,12.25,0,0,1-1.16-7.24,17.19,17.19,0,0,1,3.35-8.28s.9-1,1-.93-1.38,2.43-1.49,2.66a19,19,0,0,0-1.18,3.68,12.55,12.55,0,0,0-.36,3.23A9.7,9.7,0,0,0,32.21,43c1,2.09,3.14,3.59,3.45,6a6.08,6.08,0,0,1-.81,3.72,7.28,7.28,0,0,1-1.14,1.52,13.51,13.51,0,0,0-1.05.94c-.65.39.42.87.7,1.06s.34.25.51.4a2.18,2.18,0,0,1,.21.22,7.42,7.42,0,0,1,.47.61s0,.06,0,.07a.3.3,0,0,0,0,.08A2.49,2.49,0,0,1,34.86,58.41Z" fill="url(#linear-gradient-36)"/><path d="M33.36,56.3a2.72,2.72,0,0,1,.51.4,2.18,2.18,0,0,1,.21.22,7.42,7.42,0,0,1,.47.61s0,.06,0,.07a.3.3,0,0,0,0,.08,6,6,0,0,0-2.06-1.11,5,5,0,0,1,1.32,1.28,8,8,0,0,0-1.51-.91c.3.57.8,1.59.56,2.08a3.66,3.66,0,0,1-1.28,1.25c.49.19,2-.83,2.15-1.25a1.2,1.2,0,0,1-.52,1.06,2.18,2.18,0,0,0,1.52-.76c-.39,1.36-2.32,1.3-3.2,2.38-.07.14-.35.25-.33.47a1.52,1.52,0,0,0,.07.53,1.78,1.78,0,0,1-.4-.88,2.29,2.29,0,0,0,.22,1.32,1.92,1.92,0,0,1-.64-1.09,1.94,1.94,0,0,0-.07.56A1.52,1.52,0,0,1,30.37,61c.49-1,1.36-1.16,2.11-1.81.92-.79-.85-1.36-1.41-1.76A2.25,2.25,0,0,1,30,54.59c.46-1,1.55-1.58,2.16-2.47a3.5,3.5,0,0,0,.55-3.49c-.49-1.05-1.21-2-1.76-3.05a12.25,12.25,0,0,1-1.16-7.24c.14-.19.64,0,1.33.36A9.7,9.7,0,0,0,32.21,43c1,2.09,3.14,3.59,3.45,6a6.08,6.08,0,0,1-.81,3.72,7.28,7.28,0,0,1-1.14,1.52,13.51,13.51,0,0,0-1.05.94C32,55.63,33.08,56.11,33.36,56.3Z" fill="url(#linear-gradient-37)" style="mix-blend-mode:multiply"/><path d="M34.85,58.41a3.14,3.14,0,0,0-1.22-1.61c-.14-.1-.28-.2-.42-.28l-.47-.24a1.43,1.43,0,0,1-.5-.44.55.55,0,0,1-.06-.55A.71.71,0,0,1,32.5,55l-.1.09a4.44,4.44,0,0,1,.71-.68,4.66,4.66,0,0,0,.6-.58,7.16,7.16,0,0,0,1-1.39,6.93,6.93,0,0,0,1-3.33A6,6,0,0,1,35,52.53,7.77,7.77,0,0,1,34,54c-.36.48-.93.75-1.32,1.22h0c-.15.07-.28.27-.15.43a1.31,1.31,0,0,0,.39.35,5.93,5.93,0,0,1,.88.6A2.91,2.91,0,0,1,34.85,58.41Z" fill="#4d352a"/><path d="M33.88,38.82a10,10,0,0,0-4.48,1.86,8.42,8.42,0,0,0-3.31,3.41A5.47,5.47,0,0,0,28.15,51a.19.19,0,0,1,.1.13c.25.18-.89,1.64-1,1.79a4.74,4.74,0,0,0-.92,2.83,3.3,3.3,0,0,0,3.55,3c.71,0,.39,1.08.55,1.53a2.55,2.55,0,0,0,2.36,1.44c.72.14,1.47.26,1.83,1,.07.15.19,1.9-.1,1.75.06,0,.48-.73.51-.83A1.8,1.8,0,0,0,35,62.39,3.06,3.06,0,0,0,33,61c-.24-.15-.94-.52-.91-.87,0-.57.36-1.15.29-1.78a2.59,2.59,0,0,0-1.82-2,1.53,1.53,0,0,0-.34-.17c-.3-.11-1.11-.26-.73-.79a18.32,18.32,0,0,1,1.47-2,4.26,4.26,0,0,0,.69-2.55,3.16,3.16,0,0,0-1.3-2.37,9.57,9.57,0,0,1-1.38-1c-1.57-1.65,0-3.51,1.31-4.75a22.24,22.24,0,0,1,4.64-3.44s.39-.09.39-.14a8.07,8.07,0,0,0-1.15-.32Z" fill="url(#linear-gradient-38)"/><path d="M33.88,38.82a10,10,0,0,0-4.48,1.86,8.42,8.42,0,0,0-3.31,3.41A5.47,5.47,0,0,0,28.15,51a.19.19,0,0,1,.1.13c.25.18-.89,1.64-1,1.79a4.74,4.74,0,0,0-.92,2.83,3.3,3.3,0,0,0,3.55,3c.71,0,.39,1.08.55,1.53a2.55,2.55,0,0,0,2.36,1.44c.72.14,1.47.26,1.83,1,.07.15.19,1.9-.1,1.75.06,0,.48-.73.51-.83A1.8,1.8,0,0,0,35,62.39,3.06,3.06,0,0,0,33,61c-.24-.15-.94-.52-.91-.87,0-.57.36-1.15.29-1.78a2.59,2.59,0,0,0-1.82-2,1.53,1.53,0,0,0-.34-.17c-.3-.11-1.11-.26-.73-.79a18.32,18.32,0,0,1,1.47-2,4.26,4.26,0,0,0,.69-2.55,3.16,3.16,0,0,0-1.3-2.37,9.57,9.57,0,0,1-1.38-1c-1.57-1.65,0-3.51,1.31-4.75a22.24,22.24,0,0,1,4.64-3.44s.39-.09.39-.14a8.07,8.07,0,0,0-1.15-.32Z" fill="url(#linear-gradient-39)" style="mix-blend-mode:multiply"/><path d="M32.4,58.31a2.11,2.11,0,0,0-.7-1.19,3.81,3.81,0,0,0-1.19-.64h0l0,0a1.77,1.77,0,0,0-.31-.13h0a3.5,3.5,0,0,1-.66-.23.68.68,0,0,1-.33-.4.68.68,0,0,1,.12-.51l0,0a6.74,6.74,0,0,1,1.14-1.6,4.23,4.23,0,0,0,.79-1.57,3.11,3.11,0,0,0-.78-3.15c-.4-.39-1-.63-1.53-1.12a2.47,2.47,0,0,1-.77-1.92,3.29,3.29,0,0,1,.82-1.81,10.83,10.83,0,0,1,1.37-1.34A10,10,0,0,0,29,44.14a3.29,3.29,0,0,0-.7,1.74,2.18,2.18,0,0,0,.75,1.68c.46.44,1.08.67,1.54,1.1a3.37,3.37,0,0,1,.89,3.5,4.69,4.69,0,0,1-.87,1.67,7.58,7.58,0,0,0-1.14,1.51h0a.39.39,0,0,0-.09.31.37.37,0,0,0,.2.24,2.75,2.75,0,0,0,.62.24h0a1.54,1.54,0,0,1,.34.17h0a3.42,3.42,0,0,1,1.2.75A2.22,2.22,0,0,1,32.4,58.31Z" fill="#4d352a"/><path d="M26.09,44.09a5.81,5.81,0,0,0,2.24,6.6l0,0a.54.54,0,0,1,.3.37l-.14-.2a.44.44,0,0,1,.16.48,1,1,0,0,1-.07.22,2.4,2.4,0,0,1-.17.32c-.12.19-.24.37-.37.55-.27.36-.56.65-.77,1a5,5,0,0,0-.88,2.32A4.49,4.49,0,0,1,27,53.28c.21-.37.49-.7.73-1.06a6,6,0,0,0,.34-.53c.09-.18.26-.39.17-.59h0a.17.17,0,0,0-.1-.13h0a5.63,5.63,0,0,1-2.32-3.06A5.31,5.31,0,0,1,26.09,44.09Z" fill="#4d352a"/><path d="M53.62,35.61a24.66,24.66,0,0,0,1.53,2.63c.59.88,1.62,1.59,1.92,2.64a5.69,5.69,0,0,1-.51,3.36,5,5,0,0,1-2.44,2.18c-2,1.11-4,2.24-5.26,4.19S49,54.44,50.36,56l0,0c.27.19.25.44.11.71-.19.52-.81,1-1.13,1.43a3.17,3.17,0,0,0-.69,2.11c.1,1.05,1.23,1.92,1.93,2.64-.2.16-.71-1.88-.67-2.09a4.46,4.46,0,0,1,.32-1.06,5.27,5.27,0,0,1,1.09-1.07,4.22,4.22,0,0,0,1.57-2.09,2.77,2.77,0,0,0-.75-2.16c-.28-.39-.57-.78-.86-1.16-.13-.17-.7-.68-.68-.9-.11-.68,1.66-1.94,2.11-2.27.91-.65,1.94-1.1,2.86-1.72a7.7,7.7,0,0,0,3.3-5.78c.23-2.14-.75-3.36-2.26-4.68a21.6,21.6,0,0,1-1.82-1.63,19.65,19.65,0,0,0-1.66-2C53,34.37,53.6,35.57,53.62,35.61Z" fill="url(#linear-gradient-40)"/><path d="M53.62,35.61a24.66,24.66,0,0,0,1.53,2.63c.59.88,1.62,1.59,1.92,2.64a5.69,5.69,0,0,1-.51,3.36,5,5,0,0,1-2.44,2.18c-2,1.11-4,2.24-5.26,4.19S49,54.44,50.36,56l0,0c.27.19.25.44.11.71-.19.52-.81,1-1.13,1.43a3.17,3.17,0,0,0-.69,2.11c.1,1.05,1.23,1.92,1.93,2.64-.2.16-.71-1.88-.67-2.09a4.46,4.46,0,0,1,.32-1.06,5.27,5.27,0,0,1,1.09-1.07,4.22,4.22,0,0,0,1.57-2.09,2.77,2.77,0,0,0-.75-2.16c-.28-.39-.57-.78-.86-1.16-.13-.17-.7-.68-.68-.9-.11-.68,1.66-1.94,2.11-2.27.91-.65,1.94-1.1,2.86-1.72a7.7,7.7,0,0,0,3.3-5.78c.23-2.14-.75-3.36-2.26-4.68a21.6,21.6,0,0,1-1.82-1.63,19.65,19.65,0,0,0-1.66-2C53,34.37,53.6,35.57,53.62,35.61Z" fill="url(#linear-gradient-41)" style="mix-blend-mode:multiply"/><path d="M50.27,59.72A13.78,13.78,0,0,1,51.82,58a2.81,2.81,0,0,0,.9-1.86,3.66,3.66,0,0,0-1-1.84l-.68-.9-.38-.4a1.29,1.29,0,0,1-.2-.25.69.69,0,0,1-.17-.49v.1a1.41,1.41,0,0,1,.4-1,5.37,5.37,0,0,1,.62-.64,13.59,13.59,0,0,1,1.36-1c1-.65,2-1.08,2.89-1.7a8,8,0,0,0,3.33-5.42,8.74,8.74,0,0,1-1,3.19,7.27,7.27,0,0,1-2.19,2.49c-.91.64-1.95,1.09-2.87,1.73a13.24,13.24,0,0,0-1.32,1,5.48,5.48,0,0,0-.59.59,1.16,1.16,0,0,0-.34.75h0c.09.38.45.61.68.9l.68.92a3.74,3.74,0,0,1,1,2,2.87,2.87,0,0,1-1,2A12.26,12.26,0,0,0,50.27,59.72Z" fill="#4d352a"/><path d="M56.56,44.24a3.55,3.55,0,0,1-1.24,1.61A17.77,17.77,0,0,1,53.62,47,21.18,21.18,0,0,0,50.4,49.3c-.9.91-1.81,2-1.7,3.18s1,2.27,1.85,3.29l0,0a1.16,1.16,0,0,1,.21.19.75.75,0,0,1,.13.32.88.88,0,0,1-.14.56l0,0a2.84,2.84,0,0,1-.68.89,5.83,5.83,0,0,0-.68.73,3,3,0,0,0-.68,1.85,3,3,0,0,1,.57-1.93c.34-.59,1-1,1.25-1.61h0a.76.76,0,0,0,.1-.41.5.5,0,0,0-.25-.33h0a6.47,6.47,0,0,1-2-3.44,3,3,0,0,1,.51-1.91,8.41,8.41,0,0,1,1.31-1.54,17.21,17.21,0,0,1,3.32-2.29c.59-.34,1.19-.65,1.75-1A3.59,3.59,0,0,0,56.56,44.24Z" fill="#4d352a"/><path d="M55.42,62.3a4.34,4.34,0,0,1,0,.51A3.48,3.48,0,0,1,55,64.08a3.37,3.37,0,0,1-1,1.15,13.38,13.38,0,0,1-2.52,1.11A9.89,9.89,0,0,0,52.67,65a4.64,4.64,0,0,0,.74-1.72c.23-1.42-1.31-1.84-2.18-2.64a3.46,3.46,0,0,1-1.08-3.43,4.63,4.63,0,0,1,.9-1.75c.13-.16.65-.56.58-.84-.14-.65-2.12-.87-2.61-1a4.86,4.86,0,0,1-3.68-6.07A5.22,5.22,0,0,1,48,44.8c1.06-.57,2.28-1,2.55-2.37.32-1.56-.9-2.54-1.61-3.72,0,0-.58-1.43-.28-1.39a1.88,1.88,0,0,0,.71,1A6.7,6.7,0,0,1,51.8,41a4,4,0,0,1-.11,3.69A8.77,8.77,0,0,1,48.75,47c-.92.58-1.81,1.74-1,2.81.25.4,1.07.39,1.46.45a15.58,15.58,0,0,1,1.77.3,7.15,7.15,0,0,1,2.64,1.29,3.33,3.33,0,0,1,1.56,2.78A2.73,2.73,0,0,1,54.7,56h0a6.57,6.57,0,0,1-1,1.08,2.55,2.55,0,0,0-.49.52c-.42.56-.3,1,.4,1.7A4.47,4.47,0,0,1,55.42,62.3Z" fill="url(#linear-gradient-42)"/><path d="M54.35,61.29a3.33,3.33,0,0,1,.07,1.89,4.12,4.12,0,0,0-.56-1.44A4.17,4.17,0,0,1,53,64.85c.45,0,1.17-1,1.17-1a4.63,4.63,0,0,1-.35,1c.38-.25.86-.52,1.26-.77a3.37,3.37,0,0,1-1,1.15,13.38,13.38,0,0,1-2.52,1.11A9.89,9.89,0,0,0,52.67,65a4.64,4.64,0,0,0,.74-1.72c.23-1.42-1.31-1.84-2.18-2.64a3.46,3.46,0,0,1-1.08-3.43,4.63,4.63,0,0,1,.9-1.75c.13-.16.65-.56.58-.84-.14-.65-2.12-.87-2.61-1a4.86,4.86,0,0,1-3.68-6.07A5.22,5.22,0,0,1,48,44.8c1.06-.57,2.28-1,2.55-2.37.32-1.56-.9-2.54-1.61-3.72,0,0-.58-1.43-.28-1.39a1.88,1.88,0,0,0,.71,1A6.7,6.7,0,0,1,51.8,41a4,4,0,0,1-.11,3.69A8.77,8.77,0,0,1,48.75,47c-.92.58-1.81,1.74-1,2.81.25.4,1.07.39,1.46.45a15.58,15.58,0,0,1,1.77.3,7.15,7.15,0,0,1,2.64,1.29,3.33,3.33,0,0,1,1.56,2.78A2.73,2.73,0,0,1,54.7,56h0a5.65,5.65,0,0,0-1.62,1.08.68.68,0,0,0,.1.52c-.42.56-.3,1,.4,1.7a4.47,4.47,0,0,1,1.85,2.95,4.34,4.34,0,0,1,0,.51A4.17,4.17,0,0,0,54.35,61.29Z" fill="url(#linear-gradient-43)" style="mix-blend-mode:multiply"/><path d="M55.42,62.29a3.28,3.28,0,0,0-1.1-2c-.28-.27-.57-.52-.87-.78a2.06,2.06,0,0,1-.76-1.07,1.48,1.48,0,0,1,.5-1.28c.3-.32.59-.54.84-.83a2.6,2.6,0,0,0,.85-1.87,2.79,2.79,0,0,0-.9-1.83,6.57,6.57,0,0,0-1.82-1.3,7.47,7.47,0,0,0-1.06-.4c-.36-.1-.75-.15-1.13-.24a11.39,11.39,0,0,0-1.14-.21,1.65,1.65,0,0,1-1.21-.55v0a1.64,1.64,0,0,1-.33-.88,1.66,1.66,0,0,1,.21-.88A3.17,3.17,0,0,1,48.74,47a3,3,0,0,0-1.13,1.23,1.45,1.45,0,0,0,.18,1.58h0a1.43,1.43,0,0,0,1.07.42,11.78,11.78,0,0,1,1.17.17c.38.08.78.12,1.16.22a7.4,7.4,0,0,1,1.11.41,6.76,6.76,0,0,1,1.93,1.34,3,3,0,0,1,1,2.08,3,3,0,0,1-1,2.09c-.27.29-.58.54-.86.81a1.25,1.25,0,0,0-.47,1,2,2,0,0,0,.66,1,11,11,0,0,1,.84.83A3.37,3.37,0,0,1,55.42,62.29Z" fill="#4d352a"/><path d="M45.34,47.56a4,4,0,0,0,.07,2.15,5.36,5.36,0,0,0,.92,1.89,5.19,5.19,0,0,0,3.61,1.85,7,7,0,0,1,1.12.32,2,2,0,0,1,.57.31.91.91,0,0,1,.27.33.55.55,0,0,1,.07.28.66.66,0,0,1-.06.26c-.26.49-.59.62-.75.9a4.65,4.65,0,0,0-.55.88,3.48,3.48,0,0,0,.62,3.92,3.66,3.66,0,0,1-1.1-1.87,3.56,3.56,0,0,1,.23-2.16,5,5,0,0,1,.54-1c.2-.31.55-.51.71-.84s0-.37-.19-.48a1.69,1.69,0,0,0-.48-.25,8.06,8.06,0,0,0-1.07-.29,5.33,5.33,0,0,1-3.77-2A4.86,4.86,0,0,1,45.34,47.56Z" fill="#4d352a"/><path d="M47.61,60.8c-2.15,1.13-8.77,1.55-11.6-.19a16,16,0,0,1,1.17-5.33A2.31,2.31,0,0,0,37.6,54c0-.56,0-2.86,0-6.1a20.58,20.58,0,0,1,8.23-.47c0,.44,0,2.85.1,4.6,0,.67,0,1.23,0,1.56,0,1.17.42,1.85.77,2A19.43,19.43,0,0,1,47.61,60.8Z" fill="url(#linear-gradient-44)"/><path d="M47.61,60.8a10,10,0,0,1-2.86.78,21.07,21.07,0,0,1-3,.2,17.29,17.29,0,0,1-3-.23A8.19,8.19,0,0,1,36,60.61a11.46,11.46,0,0,0,2.85.67,22,22,0,0,0,2.92.14,28.59,28.59,0,0,0,2.93-.12,14.2,14.2,0,0,0,1.46-.18A9.05,9.05,0,0,0,47.61,60.8Z" fill="#b8784d"/><path d="M46,52c-2.42,1.65-4.72,1.84-6.61.88a3.87,3.87,0,0,1-2,2.91,25.35,25.35,0,0,0-1.4,4.8,16,16,0,0,1,1.17-5.33A2.31,2.31,0,0,0,37.6,54c0-.56,0-2.86,0-6.1a20.58,20.58,0,0,1,8.23-.47C45.84,47.86,45.92,50.27,46,52Z" fill="url(#linear-gradient-45)" style="mix-blend-mode:darken"/><path d="M36.85,58.21a7.85,7.85,0,0,0,1.07.09c.36,0,.72,0,1.08,0a4.09,4.09,0,0,1,1.08.23,2.08,2.08,0,0,1,.91.63,3.14,3.14,0,0,0-1-.39,7.24,7.24,0,0,0-1-.15c-.35,0-.71-.07-1.07-.13A3.87,3.87,0,0,1,36.85,58.21Z" fill="#b8784d"/><path d="M42.56,59.25a1.33,1.33,0,0,1,.84-.71,4.24,4.24,0,0,1,1.1-.16,7.55,7.55,0,0,0,1.06-.07,7.72,7.72,0,0,0,1-.19,4,4,0,0,1-1,.44,4.47,4.47,0,0,1-1.09.15,7.23,7.23,0,0,0-1,.06A1.51,1.51,0,0,0,42.56,59.25Z" fill="#b8784d"/><path d="M38.5,54c.21.37.4.74.6,1.11l.57,1.11.56,1.12c.18.38.36.76.52,1.15-.26-.33-.49-.68-.72-1s-.42-.73-.61-1.1-.36-.76-.51-1.15A10.61,10.61,0,0,1,38.5,54Z" fill="#b8784d"/><path d="M26.32,28.92c-1-1.78-2-2.34-3-2.27S21.71,28.2,21.9,29.3s.3,2.72.45,3.74A5.72,5.72,0,0,0,23.6,35.8c.68.87,1.09,1.67,1.59,2.27a1.61,1.61,0,0,0,2.3.08C28.1,34.74,26.59,29.79,26.32,28.92Z" fill="url(#linear-gradient-46)"/><path d="M26.32,28.92c-1-1.78-2-2.34-3-2.27S21.71,28.2,21.9,29.3s.3,2.72.45,3.74A5.72,5.72,0,0,0,23.6,35.8c.68.87,1.09,1.67,1.59,2.27a1.61,1.61,0,0,0,2.3.08C28.1,34.74,26.59,29.79,26.32,28.92Z" fill="url(#linear-gradient-47)" style="mix-blend-mode:darken"/><path d="M22.82,30.62c0-1.25.2-1.78.74-1.93s1.7,1.14,1.87,2.07.31,1.28-.05,1.62a2.47,2.47,0,0,0-.4,2,1.8,1.8,0,0,0,1.53,1.47c-1.36.46-1.76-.56-2.24-1.13A6.05,6.05,0,0,1,22.82,30.62Z" fill="url(#linear-gradient-48)" style="mix-blend-mode:darken"/><path d="M23.1,29.31a.41.41,0,0,1,.37-.43.9.9,0,0,1,.6.17,2.9,2.9,0,0,1,.8.88A6,6,0,0,1,25.39,31a1.46,1.46,0,0,1-.07,1.16,1.72,1.72,0,0,0-.21-1.05c-.15-.32-.37-.64-.56-1a3.76,3.76,0,0,0-.64-.87.69.69,0,0,0-.43-.24A.36.36,0,0,0,23.1,29.31Z" fill="#b8784d"/><path d="M25.74,31.86A5.79,5.79,0,0,0,25.15,33a2.19,2.19,0,0,0-.07,1.16,2.45,2.45,0,0,0,.47,1,2.87,2.87,0,0,0,1,.74,1.91,1.91,0,0,1-1.19-.53,2,2,0,0,1-.62-1.19,2.31,2.31,0,0,1,.23-1.32A4.13,4.13,0,0,1,25.74,31.86Z" fill="#b8784d"/><path d="M24.31,30.81a1.94,1.94,0,0,0-.49.84,2.05,2.05,0,0,0-.06.92,2.57,2.57,0,0,0,.28.89,2,2,0,0,0,.59.77,1.42,1.42,0,0,1-.84-.62,2.09,2.09,0,0,1-.39-1,2,2,0,0,1,.19-1.06A1.69,1.69,0,0,1,24.31,30.81Z" fill="#b8784d"/><path d="M23.53,25.72c.4,1.76,2.21,8.16,3.75,10.77a105,105,0,0,0,.39-11.85S25.35,25.15,23.53,25.72Z" fill="url(#radial-gradient-20)"/><path d="M57,28.92c1-1.78,2-2.34,3-2.27s1.63,1.55,1.44,2.65S61.16,32,61,33a5.72,5.72,0,0,1-1.25,2.76c-.68.87-1.1,1.67-1.59,2.27a1.61,1.61,0,0,1-2.3.08C55.26,34.74,56.77,29.79,57,28.92Z" fill="url(#linear-gradient-49)"/><path d="M57,28.92c1-1.78,2-2.34,3-2.27s1.63,1.55,1.44,2.65S61.16,32,61,33a5.72,5.72,0,0,1-1.25,2.76c-.68.87-1.1,1.67-1.59,2.27a1.61,1.61,0,0,1-2.3.08C55.26,34.74,56.77,29.79,57,28.92Z" fill="url(#linear-gradient-50)" style="mix-blend-mode:darken"/><path d="M60.53,30.62c0-1.25-.19-1.78-.73-1.93s-1.7,1.14-1.87,2.07-.32,1.28,0,1.62a2.47,2.47,0,0,1,.4,2,1.8,1.8,0,0,1-1.53,1.47c1.36.46,1.76-.56,2.24-1.13A6,6,0,0,0,60.53,30.62Z" fill="url(#linear-gradient-51)" style="mix-blend-mode:darken"/><path d="M60.26,29.31a.42.42,0,0,0-.37-.43.89.89,0,0,0-.6.17,2.78,2.78,0,0,0-.8.88A6,6,0,0,0,58,31,1.46,1.46,0,0,0,58,32.14a1.79,1.79,0,0,1,.2-1.05c.16-.32.38-.64.57-1a4,4,0,0,1,.63-.87.74.74,0,0,1,.44-.24A.36.36,0,0,1,60.26,29.31Z" fill="#b8784d"/><path d="M57.62,31.86A6.42,6.42,0,0,1,58.21,33a2.19,2.19,0,0,1,.07,1.16,2.35,2.35,0,0,1-.48,1,2.83,2.83,0,0,1-.95.74A1.88,1.88,0,0,0,58,35.36a2.1,2.1,0,0,0,.63-1.19,2.4,2.4,0,0,0-.23-1.32A4.13,4.13,0,0,0,57.62,31.86Z" fill="#b8784d"/><path d="M59.05,30.81a1.94,1.94,0,0,1,.49.84,2.05,2.05,0,0,1,.05.92,2.55,2.55,0,0,1-.27.89,2,2,0,0,1-.59.77,1.45,1.45,0,0,0,.84-.62,2.2,2.2,0,0,0,.39-1,2,2,0,0,0-.2-1.06A1.72,1.72,0,0,0,59.05,30.81Z" fill="#b8784d"/><path d="M60.17,25.72c-.4,1.76-2.22,8.16-3.75,10.77A105,105,0,0,1,56,24.64S58.35,25.15,60.17,25.72Z" fill="url(#radial-gradient-21)"/><path d="M57.67,26.74c-.09,1.39-.3,3.37-.58,5.39,0,.12,0,.22-.05.34-.35,2.57-.76,5.15-1,6.59a11.22,11.22,0,0,1-2.31,4.61,11,11,0,0,1-1.78,1.82c-.37.28-1.06.79-2,1.36h0a30.61,30.61,0,0,1-4.07,2.23,11,11,0,0,1-4.25,1.13,10.28,10.28,0,0,1-4-1.07,31.07,31.07,0,0,1-7.19-4.72,7.63,7.63,0,0,1-.7-.69A10.07,10.07,0,0,1,27.11,38c-.2-1.32-.4-3.11-.65-5.22s-.51-4.62-.83-7.2a28.23,28.23,0,0,1,1.25-10.4C28.75,9.1,33,2.87,42.08,2.87c11.07,0,14.37,10.31,15.29,17.5h0A38.16,38.16,0,0,1,57.67,26.74Z" fill="url(#radial-gradient-22)"/><path d="M45.89,49.1a8.48,8.48,0,0,1-1.93,1,7.49,7.49,0,0,1-2.18.46,6.5,6.5,0,0,1-2.2-.41,8.29,8.29,0,0,1-1.93-1,10.24,10.24,0,0,0,4.12,1.07A11.59,11.59,0,0,0,45.89,49.1Z" fill="#b8784d"/><path d="M35.12,37.82a5.86,5.86,0,0,1-5.36,5.84,10.1,10.1,0,0,1-2.65-5.77c-.2-1.32-.4-3.12-.65-5.22a5.86,5.86,0,0,1,8.66,5.15Z" opacity="0.3" fill="url(#Rona_Pipi)" style="mix-blend-mode:darken"/><path d="M57,32.47c-.35,2.57-.76,5.15-1,6.59a11.22,11.22,0,0,1-2.31,4.61A5.86,5.86,0,1,1,57,32.47Z" opacity="0.3" fill="url(#Rona_Pipi-2)" style="mix-blend-mode:darken"/><circle cx="40.66" cy="37.01" r="3.73" fill="url(#radial-gradient-23)" style="mix-blend-mode:darken"/><path d="M43,27.38a5.69,5.69,0,1,1-9.1-4.55C35.93,23.79,43,24.24,43,27.38Z" fill="url(#radial-gradient-24)" style="mix-blend-mode:darken"/><path d="M40.49,26.93A6.15,6.15,0,1,0,50.32,22C48.1,23.05,40.49,23.53,40.49,26.93Z" fill="url(#radial-gradient-25)" style="mix-blend-mode:darken"/><path d="M35.33,29.8l2.45.87a5,5,0,0,0-3.16-4.5,6.44,6.44,0,0,0-4.95-.07c-1.61.51-2.61.94-3.52.6A2.21,2.21,0,0,0,28,28.8a4.19,4.19,0,0,0,3.62,2.28,17.7,17.7,0,0,0,5-.07Z" fill="url(#radial-gradient-26)"/><path d="M28.45,28.4c.64,2,2.49,2.28,4.5,2.51s4.15.18,4.83-.24a5.28,5.28,0,0,0-4.27-3.93A5.76,5.76,0,0,0,28.45,28.4Z" fill="url(#Gradient_Eye)"/><g clip-path="url(#clip-path)"><circle cx="33.41" cy="29.02" r="2.41" fill="url(#radial-gradient-27)"/><circle cx="33.41" cy="29.02" r="1.66" fill="#222223"/><circle cx="34.91" cy="28.33" r="0.43" fill="#fff"/><circle cx="32.04" cy="30.1" r="0.22" fill="#fff"/></g><path d="M33.51,27.42a5,5,0,0,1,4.23,3.28l0,0a5.28,5.28,0,0,0-4.27-3.93,5.76,5.76,0,0,0-5.06,1.66,1.92,1.92,0,0,0,.14.33A6.37,6.37,0,0,1,33.51,27.42Z" fill="url(#linear-gradient-52)" style="mix-blend-mode:multiply"/><path d="M33.73,31.66h0Z" fill="url(#linear-gradient-53)" style="mix-blend-mode:multiply"/><path d="M48,29.8l-2.46.87a5,5,0,0,1,3.17-4.5,6.44,6.44,0,0,1,4.95-.07c1.61.51,2.61.94,3.52.6a2.22,2.22,0,0,1-1.85,2.1,4.72,4.72,0,0,1-3.76,2.42A10.45,10.45,0,0,1,46.78,31Z" fill="url(#radial-gradient-28)"/><path d="M54.91,28.4c-.64,2-2.58,2.39-4.58,2.62s-4.08.07-4.76-.35a5.29,5.29,0,0,1,4.27-3.93A5.77,5.77,0,0,1,54.91,28.4Z" fill="url(#Gradient_Eye-2)"/><path d="M49.84,27.42a5,5,0,0,0-4.22,3.28l0,0a5.29,5.29,0,0,1,4.27-3.93,5.77,5.77,0,0,1,5.07,1.66,3.27,3.27,0,0,1-.14.33A6.39,6.39,0,0,0,49.84,27.42Z" fill="url(#linear-gradient-54)" style="mix-blend-mode:multiply"/><path d="M49.63,31.66h0Z" fill="url(#linear-gradient-53)" style="mix-blend-mode:multiply"/><g clip-path="url(#clip-path-2)"><circle cx="49.95" cy="29.02" r="2.41" fill="url(#radial-gradient-29)"/><circle cx="49.95" cy="29.02" r="1.66" fill="#222223"/><circle cx="51.45" cy="28.33" r="0.43" fill="#fff"/><circle cx="48.57" cy="30.1" r="0.22" fill="#fff"/></g><path d="M44.91,28.1a3.84,3.84,0,0,0-.68,3.12,8.38,8.38,0,0,1-.06,3.66,1.86,1.86,0,0,1,.93,1.45,1.8,1.8,0,0,1-.07.92c-.26.63-1,.58-1.56.58-.38,0-.64.47-1.07.76a1.18,1.18,0,0,1-.56.22h-.13c-.91,0-1.11-.84-1.59-1-.63,0-1.54,0-1.62-.86a2.42,2.42,0,0,1,.84-2.14,7.32,7.32,0,0,1,0-3.63c.23-.91,0-1.13-.34-1.93s-2.73-4.33-3.75-5.88c5-6,11.11-4,13.62-.43l.11.15A32.92,32.92,0,0,0,44.91,28.1Z" fill="url(#linear-gradient-56)"/><path d="M42,29.32c.06.45.1.9.13,1.35s0,.9.06,1.36,0,.9,0,1.35-.08.9-.15,1.35a12.38,12.38,0,0,1-.15-1.35c0-.45,0-.9,0-1.35s0-.91.06-1.36S41.9,29.77,42,29.32Z" fill="#faf8d3"/><path d="M41.93,35.37a1.33,1.33,0,0,1,.35.36,1.26,1.26,0,0,1,.17.47,1.2,1.2,0,0,1-.05.5.88.88,0,0,1-.27.43c0-.17-.06-.32-.07-.46L42,36.25l0-.41C42,35.69,42,35.53,41.93,35.37Z" fill="#faf8d3"/><path d="M44.91,28.1a3.84,3.84,0,0,0-.68,3.12,8.38,8.38,0,0,1-.06,3.66,1.86,1.86,0,0,1,.93,1.45,1.8,1.8,0,0,1-.07.92c-.26.63-1,.58-1.56.58-.38,0-.64.47-1.07.76a.7.7,0,0,1,0-.55,4,4,0,0,0,.45-1.93,14.73,14.73,0,0,1-.34-2.41c.08-.87.11-2.46.08-3.26a3.84,3.84,0,0,1,.49-2.38c.49-.75,2.8-5.52,3.26-6s2.64.48,3.79.22c0,0-.79.49-1.19.84A32.92,32.92,0,0,0,44.91,28.1Z" fill="url(#radial-gradient-30)" style="mix-blend-mode:darken"/><path d="M41.84,38.81h-.13c-.91,0-1.11-.84-1.59-1-.63,0-1.54,0-1.62-.86a2.42,2.42,0,0,1,.84-2.14,7.32,7.32,0,0,1,0-3.63c.23-.91,0-1.13-.34-1.93s-2.73-4.33-3.75-5.88a18,18,0,0,1,2.24.4c.72.21,1.53,1.8,2.31,3.14s1.29,1.95,1.35,3.06.06,3.21.06,4-.27,1.56-.3,2.28A2.08,2.08,0,0,0,41.56,38,1.17,1.17,0,0,1,41.84,38.81Z" fill="url(#linear-gradient-57)" style="mix-blend-mode:darken"/><path d="M41.84,38.81h-.13c-.91,0-1.11-.84-1.59-1-.63,0-1.54,0-1.62-.86a2.42,2.42,0,0,1,.84-2.14,7.32,7.32,0,0,1,0-3.63c.23-.91,0-1.13-.34-1.93s-2.73-4.33-3.75-5.88A3.21,3.21,0,0,1,37.08,23c.71.2,1.9,2.59,2.68,3.93s1.29,1.95,1.35,3.06.06,3.21.06,4-.27,1.56-.3,2.28A2.08,2.08,0,0,0,41.56,38,1.17,1.17,0,0,1,41.84,38.81Z" fill="url(#radial-gradient-31)" style="mix-blend-mode:darken"/><path d="M45,37.25c-.26.63-1,.58-1.56.58s-.86,1-1.76,1-1.11-.84-1.59-1c-.63,0-1.54,0-1.62-.86a2.42,2.42,0,0,1,.84-2.14,2.44,2.44,0,0,0-.21,2,1.54,1.54,0,0,1,1.49.57,1.27,1.27,0,0,0,1.93.22,2.25,2.25,0,0,1,2.3-.66,1.34,1.34,0,0,0,.25-.67A1.8,1.8,0,0,1,45,37.25Z" fill="url(#linear-gradient-58)" style="mix-blend-mode:darken"/><path d="M39.33,34.83a2.38,2.38,0,0,0-.84,2,.91.91,0,0,0,.53.9,2.72,2.72,0,0,0,1.1.11h0c.35.14.52.49.79.71a1.19,1.19,0,0,0,1,.28,1.61,1.61,0,0,0,.89-.55,2.25,2.25,0,0,1,.41-.34.82.82,0,0,1,.51-.08,1.92,1.92,0,0,0,1-.22,1.07,1.07,0,0,0,.38-.94,2,2,0,0,0-.95-1.79,1.4,1.4,0,0,1,.89.68,2.27,2.27,0,0,1,.35,1.11,2.3,2.3,0,0,1-.08.62.94.94,0,0,1-.43.55,2,2,0,0,1-1.19,0,.67.67,0,0,0-.5.08,1.54,1.54,0,0,0-.33.42,1.47,1.47,0,0,1-.92.81,1.19,1.19,0,0,1-1.2-.45c-.27-.31-.33-.7-.65-.85h0a11.22,11.22,0,0,1-1.15,0,.85.85,0,0,1-.58-.37,1.09,1.09,0,0,1-.18-.65,2.38,2.38,0,0,1,.28-1.17A1.69,1.69,0,0,1,39.33,34.83Z" fill="#b8784d"/><path d="M39.22,37.47c-.11-.17.08-.29.41-.31s.63.31.84.8c-.38-.33-.45-.39-.77-.38S39.36,37.67,39.22,37.47Z" fill="url(#radial-gradient-32)"/><path d="M44.42,37.44c.11-.17-.08-.29-.41-.3s-.63.3-.84.79c.38-.33.45-.39.77-.38S44.28,37.64,44.42,37.44Z" fill="url(#radial-gradient-33)"/><path d="M27.46,26c2-2,3.08-3,4.35-3.15s3.51-.26,4.41-.33A6.07,6.07,0,0,0,38.47,22c-.41.91-.92,1.28-2.25,1.47a42,42,0,0,1-4.73.31C30.64,23.71,29.17,24.66,27.46,26Z" fill="url(#radial-gradient-34)"/><path d="M56.25,25c-2-1.93-3.14-2.94-4.41-3.07s-3.52-.19-4.41-.25a5.82,5.82,0,0,1-2.26-.5c.42.9.94,1.26,2.28,1.42a40,40,0,0,0,4.73.23C53,22.77,54.52,23.7,56.25,25Z" fill="url(#radial-gradient-35)"/><path d="M57.67,26.74c-.09,1.39-.3,3.37-.58,5.39-.88-1.34-3.45-5.35-4.8-8.06-1.66-3.28-3.52-6.41-4.43-8.56A4.59,4.59,0,0,0,42,13c-1.52-.39-3.56-.23-5.44,2.33a38.84,38.84,0,0,0-4.3,8.16c-.85,2.15-3.47,6.69-4.54,8.79.34,5.84.95,8.53,2.94,10.87s8,6.69,11,6.69c2.08,0,5.84-1.71,8.24-2.94a30.61,30.61,0,0,1-4.07,2.23,11,11,0,0,1-4.25,1.13,10.28,10.28,0,0,1-4-1.07,31.07,31.07,0,0,1-7.19-4.72,7.63,7.63,0,0,1-.7-.69A10.07,10.07,0,0,1,27.11,38c-.2-1.32-.4-3.11-.65-5.22s-.51-4.62-.83-7.2a28.23,28.23,0,0,1,1.25-10.4l1.13-2s14.35-6,14.52-6.07,8.28,0,8.28,0,5,10.83,5.16,10.83a27.45,27.45,0,0,1,1.4,2.48h0A38.16,38.16,0,0,1,57.67,26.74Z" fill="url(#linear-gradient-59)" style="mix-blend-mode:darken"/><path d="M42,12.37a5.36,5.36,0,0,0-4.55,1,8.89,8.89,0,0,0-1.57,1.41,9.57,9.57,0,0,0-.83,1c-2.27,3.18-3.24,5.63-5,8.67-1.69,2.86-2.21,3.92-4.31,7.18a15.28,15.28,0,0,0-1.86,4,10.43,10.43,0,0,0-.3,4.14,6,6,0,0,0,1.95,3.35c1,.95,2.26,1.59,3.17,2.58a2.73,2.73,0,0,1,.33.43,2.27,2.27,0,0,1,.37,1.53c-.22,1.4-2,2.08-2.46,3.42a2,2,0,0,0-.07,1.19,2.15,2.15,0,0,0,.9,1.38c.37.24.79.37,1.17.59a2.54,2.54,0,0,1,1,3.07,2,2,0,0,1-.17.32,5.1,5.1,0,0,0-.74,1.4A1.68,1.68,0,0,0,30.18,61a4.09,4.09,0,0,1-2.69-.79,2.82,2.82,0,0,1-1.11-2.5c.06-.41.22-.81.3-1.22a3.48,3.48,0,0,0-.53-2.62,10.6,10.6,0,0,0-1.52-1.55,3.19,3.19,0,0,1-1.08-1.85,2.66,2.66,0,0,1,.13-1.09v0c.11-.42.3-.84.41-1.25v0a.56.56,0,0,0,0-.12,4.22,4.22,0,0,0-.87-3.68,16.09,16.09,0,0,1-2.53-3.47C19.6,38.38,19.68,35,20.66,30a100.57,100.57,0,0,1,4.88-16.11l.16-.41c.46-1.1.93-2.11,1.39-3S27.9,9,28.35,8.24c.31-.5.63-1,1-1.46C31.9,3.17,35.57.27,41.61.5,41.68,2.77,42,10.93,42,12.37Z" fill="url(#radial-gradient-36)"/><path d="M42,12.37a5,5,0,0,0-3.75.54,9.07,9.07,0,0,0-2.89,2.55,44.42,44.42,0,0,0-4,6.65c-.6,1.15-1.25,2.27-1.91,3.39l-2,3.35c-.66,1.11-1.37,2.2-2,3.3a14.37,14.37,0,0,0-1.59,3.53,14.6,14.6,0,0,1,1.43-3.62c.66-1.13,1.34-2.22,2-3.35,1.25-2.26,2.61-4.48,3.79-6.77a41.89,41.89,0,0,1,4.1-6.65,9.14,9.14,0,0,1,3-2.53A5.08,5.08,0,0,1,42,12.37Z" fill="#4d352a"/><path d="M29.85,57.36a2,2,0,0,1-.17.32,3.72,3.72,0,0,0-1-1.74c-.07.2-.13.45-.2.7A3.73,3.73,0,0,1,28,57.87a5.81,5.81,0,0,0-.49-1.94,2.84,2.84,0,0,0-.72-.32,3.22,3.22,0,0,0-.59-1.75,10.6,10.6,0,0,0-1.52-1.55,3.19,3.19,0,0,1-1.08-1.85,2.66,2.66,0,0,1,.13-1.09v0a5.52,5.52,0,0,0,.41-1.25v0a2.62,2.62,0,0,0-.72-2.51c-1-.9-4.08-2.94-5.06-6.12a15.72,15.72,0,0,1,.45-9.83c1.31-4,1.89-7,3.1-12.33a29.06,29.06,0,0,1,5-11.15,19.22,19.22,0,0,0-1.3,7.75c0,.21,0,.41,0,.61a5.44,5.44,0,0,1,1.88-1.65,26.66,26.66,0,0,0-2.63,6.79,14.09,14.09,0,0,1,3.18-4c-1.75,5.45-2.58,8.47-3.86,11.42s-3.78,6.58-3.56,10a8.41,8.41,0,0,0,2.27,5.3A8.77,8.77,0,0,1,22,36.87a5.64,5.64,0,0,0,.9,2.27,7.55,7.55,0,0,1,.91-3.46,10.43,10.43,0,0,0-.3,4.14,6,6,0,0,0,1.95,3.35c1,.95,2.26,1.59,3.17,2.58a2.73,2.73,0,0,1,.33.43,8.5,8.5,0,0,0-2.55-1.4c.85.45,1.41,2.54,1.24,3a8,8,0,0,0-2.27-2.44c.46.86,1.08,1.82.35,3s-1.39,2.22-1.26,3.06,1.94,1.76,1.94,1.76A2.23,2.23,0,0,1,26,51c.24.24.16.93.85,1.37a2.15,2.15,0,0,0,.9,1.38c.37.24.79.37,1.17.59A2.54,2.54,0,0,1,29.85,57.36Z" fill="url(#linear-gradient-60)" style="mix-blend-mode:multiply"/><path d="M26.15,53.86c-.67-.87-1.69-1.35-2.37-2.29a2.45,2.45,0,0,1-.45-1.69,8.73,8.73,0,0,1,.43-1.62,4,4,0,0,0-.22-2.95,5.19,5.19,0,0,0-.9-1.25c-.35-.41-.72-.82-1.07-1.26a8.6,8.6,0,0,1-1.56-3,11.34,11.34,0,0,1-.38-3.32A24.11,24.11,0,0,1,20,33.19c.2-1.08.44-2.14.71-3.2a33.72,33.72,0,0,0-.75,6.49,11.74,11.74,0,0,0,.42,3.23,8.29,8.29,0,0,0,1.53,2.87c.33.43.69.84,1.05,1.25a5.64,5.64,0,0,1,.93,1.34A4.13,4.13,0,0,1,24,48.35a8.7,8.7,0,0,0-.46,1.56,2.2,2.2,0,0,0,.37,1.56C24.52,52.4,25.53,53,26.15,53.86Z" fill="#4d352a"/><path d="M25.7,31.7a12.73,12.73,0,0,0-2,7.21,4.84,4.84,0,0,0,1.31,3.31A14.93,14.93,0,0,0,28,44.63a5.57,5.57,0,0,1,1.4,1.49,2.44,2.44,0,0,1,.18,2.14,5,5,0,0,1-1.28,1.59,4.63,4.63,0,0,0-1.11,1.39,2,2,0,0,0,.12,1.64,1.88,1.88,0,0,0,.57.65,7.76,7.76,0,0,0,.82.44,2.6,2.6,0,0,1,1.19,3.39,2.51,2.51,0,0,0-1.27-3.23,8.62,8.62,0,0,1-.86-.43,2.14,2.14,0,0,1-.64-.7,2.21,2.21,0,0,1-.19-1.86c.48-1.23,1.83-1.81,2.34-3a2,2,0,0,0-.17-1.84,5.13,5.13,0,0,0-1.33-1.38,15,15,0,0,1-2.92-2.48,6,6,0,0,1-1-1.62,5.77,5.77,0,0,1-.33-1.88A12.21,12.21,0,0,1,25.7,31.7Z" fill="#4d352a"/><path d="M62.09,38a7.68,7.68,0,0,0-.79,1.22c-.22.42-.43.85-.66,1.27-.32.6-.85,1-.84,1.75a8.62,8.62,0,0,0,.35,2.14h0c.22.78.49,1.56.69,2.35a5.79,5.79,0,0,1,0,3.3,2.67,2.67,0,0,1-.66,1.09,8.7,8.7,0,0,1-2.58,1.49,2.89,2.89,0,0,0-1.82,2.22v.08a5,5,0,0,0,.35,1.39,5.72,5.72,0,0,1,.16,3.25,3.74,3.74,0,0,1-.45,1.07,5.07,5.07,0,0,1-2.64,2,14.5,14.5,0,0,1-3.28.69A4.84,4.84,0,0,0,52.56,61a3,3,0,0,0,.17-2.63c-.34-.73-1.07-1.23-1.4-2A3.06,3.06,0,0,1,52.42,53a13.81,13.81,0,0,1,3.38-1.78c1.1-.52,2.27-1.37,2.28-2.59a5.18,5.18,0,0,0-.8-2.13c-1.11-2.36-.24-4.26.87-6.33a11.11,11.11,0,0,0,1.48-6.39c-.43-4-3.08-6.09-5.4-9.91s-2.72-4.81-5.13-8.92L49,14.79a7.82,7.82,0,0,0-.74-1.06c-1.76-2.12-3.84-1.89-6.29-1.36A39.16,39.16,0,0,1,41.61.5C47.94-.8,52.3,3.76,54.39,7c.25.37.45.73.64,1.05.06.13.12.25.19.37,1.58,3.1,6.49,14,7.85,17.84S63.68,36,62.09,38Z" fill="url(#radial-gradient-37)"/><path d="M35,12.39a25.68,25.68,0,0,0,2.44,1,8.89,8.89,0,0,0-1.57,1.41,24.89,24.89,0,0,1-2.57-1.69c.34-.28.73-.74,1-1-1.64.16-3.4.28-3.4.28a12.5,12.5,0,0,1,.22-1.76c-1.13.06-1.69.12-1.69.12a10.18,10.18,0,0,1,0-2.73,6.49,6.49,0,0,0-.86.79c-.06-.21-.12-.41-.17-.63a13.32,13.32,0,0,1-.15-3.8c.12-.15.26-.3.4-.46s.32-.34.49-.52a14.12,14.12,0,0,0,.17,3.37s0,0,.06,0A4.21,4.21,0,0,1,30.84,6a9.34,9.34,0,0,0-.38,3.56C31.53,9.5,33,9.5,33,9.5a4.11,4.11,0,0,0-.9,1.64c1.53.23,3.91.4,3.91.4A5.35,5.35,0,0,0,35,12.39Z" opacity="0.7" fill="url(#radial-gradient-38)" style="mix-blend-mode:screen"/><path d="M55.46,8l-.43,0-1.1.12a5.94,5.94,0,0,1,.79,2.22,12.29,12.29,0,0,0-3.06,1.76,4.66,4.66,0,0,1-.79,2.15c-.38.1-1,.35-1.77.62L49,14.79a7.82,7.82,0,0,0-.74-1.06c.9-.3,1.91-.77,1.91-.77a3.31,3.31,0,0,0,.45-1.87,18.15,18.15,0,0,0,2.73-1.87,5,5,0,0,0-1-1.36,10.8,10.8,0,0,1,1.92-.68A1,1,0,0,0,54.39,7,5.55,5.55,0,0,0,55,4.32l.53.58A13.65,13.65,0,0,1,55.46,8Z" opacity="0.7" fill="url(#radial-gradient-38)" style="mix-blend-mode:screen"/><path d="M41.6.5c.21,2,.29,4,.37,5.93s.1,4,0,5.94c-.22-2-.29-3.95-.37-5.93S41.52,2.48,41.6.5Z" fill="#4d352a"/><path d="M60.64,40.5c-.32.6-.85,1-.84,1.75a8.62,8.62,0,0,0,.35,2.14,2.68,2.68,0,0,1-.44-.79,14,14,0,0,0,.8,2.68A9.36,9.36,0,0,1,59,43.79c-.22,1.39.91,3.17.84,4.27-.65-1.71-1.55-2.34-1.66-3.48-.24,1.4.45,2.38.6,3.25A3.89,3.89,0,0,1,58,50.94c.39.33,1.74-.77,1.93-1.29a2.74,2.74,0,0,1-.64,1.55,4.49,4.49,0,0,0,1.55-1.15,2.71,2.71,0,0,0,.3-.37c-.34,1.63-3.55,3.63-4.27,4.2a4.89,4.89,0,0,0-1.09,1,3,3,0,0,0-.46,1.71c-.65-.31-.64-1.31-.41-2.17a3,3,0,0,0-.53,3.15,2.92,2.92,0,0,1-.84-2.86,2.31,2.31,0,0,0-.11,2.61,3.4,3.4,0,0,1,0,3.24A7,7,0,0,0,55,59.1a3.24,3.24,0,0,1-.57,2,8.13,8.13,0,0,0,1.84-1.49,3.74,3.74,0,0,1-.45,1.07,5.07,5.07,0,0,1-2.64,2,14.5,14.5,0,0,1-3.28.69A4.84,4.84,0,0,0,52.56,61a3,3,0,0,0,.17-2.63c-.34-.73-1.07-1.23-1.4-2A3.06,3.06,0,0,1,52.42,53a13.81,13.81,0,0,1,3.38-1.78c1.1-.52,2.27-1.37,2.28-2.59a5.18,5.18,0,0,0-.8-2.13c-1.11-2.36-.24-4.26.87-6.33a11.11,11.11,0,0,0,1.48-6.39c-.43-4-3.08-6.09-5.4-9.91s-2.72-4.81-5.13-8.92L49,14.79a7.82,7.82,0,0,0-.74-1.06c-1.76-2.12-3.84-1.89-6.29-1.36,1.51-.95,4.18-1.28,5.77.13s3.74,5.22,4.59,6.81,4.31,6.8,5.22,7.94,2.84,4.65,2.95,6.57a18.68,18.68,0,0,1-1.08,6c1-.46,2.06-2.65,2.21-3.18a13.29,13.29,0,0,1-.45,2.68l.11-.06C61.08,39.65,60.87,40.08,60.64,40.5Z" fill="url(#linear-gradient-61)" style="mix-blend-mode:multiply"/><path d="M59.62,33.77a9.9,9.9,0,0,1-.26,4,25.49,25.49,0,0,1-1.57,3.71,6,6,0,0,0-.6,3.69A6.5,6.5,0,0,0,57.9,47a3.07,3.07,0,0,1,.49,2.14,3.18,3.18,0,0,1-1.32,1.78,9.19,9.19,0,0,1-1.84,1,7.4,7.4,0,0,0-3.22,2,2.9,2.9,0,0,0-.64,1.7,2.51,2.51,0,0,0,.75,1.66A3.34,3.34,0,0,1,53,59,3.46,3.46,0,0,1,52.56,61,3.42,3.42,0,0,0,52.93,59a3.11,3.11,0,0,0-1-1.72,2.7,2.7,0,0,1-.83-1.77,3.08,3.08,0,0,1,.63-1.87,7.5,7.5,0,0,1,3.32-2.16,8.23,8.23,0,0,0,1.76-.93,2.34,2.34,0,0,0,.74-3.48,6.73,6.73,0,0,1-.73-1.86,6.09,6.09,0,0,1,.66-3.88,24.48,24.48,0,0,0,1.66-3.65A9.79,9.79,0,0,0,59.62,33.77Z" fill="#4d352a"/><circle cx="41.85" cy="42.98" r="3.73" fill="url(#radial-gradient-40)" style="mix-blend-mode:darken"/><path d="M49.2,38.72C47.12,41.64,46,45.36,42,45.36s-4.59-2.76-7.46-6.51a23,23,0,0,0,4.88,1.09,5.45,5.45,0,0,1,2.35.43,5.18,5.18,0,0,1,2.73-.46,24.43,24.43,0,0,0,4.64-1.16Z" fill="url(#radial-gradient-41)"/><g clip-path="url(#clip-path-3)"><path d="M38.87,45.05c-.92-.51-1.21-1.62-.45-2.13a3.56,3.56,0,0,1,3.36.13,3.68,3.68,0,0,1,3.84,0c.62.46.25,1.53-.72,2.06C44.26,45.44,41.12,46.3,38.87,45.05Z" fill="url(#radial-gradient-42)"/><path d="M36.6,44.58c.25-.85.85-1.47,1.18-1.2,1.89,1.58,6.71,1.28,8.55-.14.39-.3.79,1.23.84,1.37C45.81,46.59,40,47.62,36.6,44.58Z" fill="url(#Gradient_Eye-3)"/><path d="M47.29,38.69c0,.26-.14,1.38-.22,2a1.78,1.78,0,0,0-1.48-.26,22,22,0,0,1-4,.45c-1,0-2.06-.31-2.91-.33a2,2,0,0,0-1.76.74.68.68,0,0,1-.15-.2c-.08-.3-.28-1.21-.45-2a16.41,16.41,0,0,1,3.94-.75l4-.13C45.86,38.19,47.05,38.37,47.29,38.69Z" fill="url(#linear-gradient-62)" style="mix-blend-mode:multiply"/><path d="M47.29,38.18c0,.26-.14,1.38-.22,2,0,.09,0,.18,0,.24a.91.91,0,0,1-.27.44c-.46.52-1.67,1.2-4.55,1.2s-4.55-.7-5.14-1.15l-.13-.13a.68.68,0,0,1-.15-.2c-.08-.31-.28-1.21-.45-2a16.41,16.41,0,0,1,3.94-.75,33,33,0,0,1,4-.13C45.86,37.68,47.05,37.86,47.29,38.18Z" fill="url(#Gradient_Eye-4)"/><polygon points="42.71 40.71 42.46 41.82 43.07 41.77 42.71 40.71" fill="#fff"/></g><path d="M49.21,38.71c-1.3,1-5.58,1.9-7.43,1.9a18.92,18.92,0,0,1-7.26-1.76,21.41,21.41,0,0,0,5,.77,4.76,4.76,0,0,1,2.26.51,5.55,5.55,0,0,1,2.82-.54A22.47,22.47,0,0,0,49.21,38.71Z" fill="url(#radial-gradient-43)"/><path d="M49.2,38.72C47.47,41.77,46,46.05,42,46.05s-5-3.28-7.46-7.2l.38.17c1.42,2.27,3.05,5.8,6.85,5.8s5.89-3.49,7-5.91a2.39,2.39,0,0,1,.32-.16Z" fill="url(#radial-gradient-44)"/><path d="M41.9,45.23l.42-.07.4-.06.4,0a3.05,3.05,0,0,1,.43,0,1.11,1.11,0,0,1-.38.22,1.44,1.44,0,0,1-.42.11,1.25,1.25,0,0,1-.43,0A1,1,0,0,1,41.9,45.23Z" fill="#fbdcdd"/><circle cx="49.15" cy="38.87" r="0.98" opacity="0.7" fill="url(#radial-gradient-45)" style="mix-blend-mode:darken"/><circle cx="34.43" cy="38.96" r="0.98" opacity="0.7" fill="url(#radial-gradient-46)" style="mix-blend-mode:darken"/><path d="M9.65,52.4c-.77,2.57-3.93,1.47-5.23.5a1.79,1.79,0,0,1-.5-.5,9.49,9.49,0,0,0,2.23-5,16.82,16.82,0,0,0,0-4.88,1.26,1.26,0,0,1,.08-.92c.34-.58,1.24-.62,2,.18a5.42,5.42,0,0,1,1.32,4.88A14.87,14.87,0,0,0,9.65,52.4Z" fill="url(#linear-gradient-63)"/><path d="M6.84,49.06a5.66,5.66,0,0,0,0,3.51,8.07,8.07,0,0,1-2.42.33,1.79,1.79,0,0,1-.5-.5,9.49,9.49,0,0,0,2.23-5,16.82,16.82,0,0,0,0-4.88,1.26,1.26,0,0,1,.08-.92c.15.55.42,1.26.61,2.14A10.57,10.57,0,0,1,6.84,49.06Z" fill="url(#linear-gradient-64)" style="mix-blend-mode:darken"/><path d="M10.37,58.46l-.08.09a0,0,0,0,0,0,0,2.65,2.65,0,0,1,.38,2.38h0a2.19,2.19,0,0,1-.83,1h0a1.56,1.56,0,0,1-.34.18.36.36,0,0,1,0,.11v0a2.6,2.6,0,0,1-.14,1.47,2.16,2.16,0,0,1-.42.68H9a1.9,1.9,0,0,1-.54.48l0,0c-.77.53-1.36,1.56-3.53,1.12a5.41,5.41,0,0,1-3.41-1.94,1.62,1.62,0,0,1-.51-1.41,3.46,3.46,0,0,0-.29-1.92,4.67,4.67,0,0,1-.36-.78h0a2.06,2.06,0,0,1,0-.88c0-.21.08-.41.11-.6A2.31,2.31,0,0,0,.2,57.08a1.65,1.65,0,0,1-.2-.84H0a2.06,2.06,0,0,1,.31-1.08c.21-.3.41-.55.56-.77a1.42,1.42,0,0,0,.29-.61,11.75,11.75,0,0,1,0-1.55.81.81,0,0,1,.13-.3,2.32,2.32,0,0,1,2.05-1.19c1.13.05,1.69.05,3.28.05s2.1-.34,3.07.17a2.36,2.36,0,0,1,1.06,2.24,3,3,0,0,1-.27,1.09c0,.09-.09.19-.15.28l0,0h0A2.64,2.64,0,0,1,11.11,57a3.2,3.2,0,0,1-.52,1.22A3,3,0,0,1,10.37,58.46Z" fill="url(#linear-gradient-65)"/><path d="M5,50.78a4.44,4.44,0,0,1,1.09-.3c.37-.07.73-.06,1.08-.11s.7,0,1.08,0a4.34,4.34,0,0,1,.59.11,1.44,1.44,0,0,1,.52.31,2.48,2.48,0,0,0-1.08-.11c-.37,0-.73.07-1.09.08C6.5,50.8,5.77,50.78,5,50.78Z" fill="#b8784d"/><path d="M.2,57.08a1.65,1.65,0,0,1-.2-.84,1.39,1.39,0,0,0,.33.44c.38.3.53,0,1-.15a4,4,0,0,1,1-.08c-.64.42-1,.61-1.32,1.14a9.79,9.79,0,0,1-.59,1A2.31,2.31,0,0,0,.2,57.08Z" fill="url(#linear-gradient-66)" style="mix-blend-mode:darken"/><path d="M1.16,53.77a11.75,11.75,0,0,1,0-1.55c.1.29.22.54.26.68.12.38.35.45.73.34a.71.71,0,0,1,.6,0,8.75,8.75,0,0,1-1.92,1.1A1.42,1.42,0,0,0,1.16,53.77Z" fill="url(#linear-gradient-67)" style="mix-blend-mode:darken"/><path d="M9.39,63.79a2.16,2.16,0,0,1-.42.68H9a1.9,1.9,0,0,1-.54.48l0,0c-.77.53-1.36,1.56-3.53,1.12a5.41,5.41,0,0,1-3.41-1.94,1.62,1.62,0,0,1-.51-1.41,3.46,3.46,0,0,0-.29-1.92,4.67,4.67,0,0,1-.36-.78,2.66,2.66,0,0,0,.39.37c.46.34.79-.07,1.17-.18a1.63,1.63,0,0,1,.75,0c-.68.53-.87.49-.94,1.12a10.6,10.6,0,0,0-.21,1.22c.05.28-.09.19.4.64a2.53,2.53,0,0,0,1.93.91A31,31,0,0,0,9.39,63.79Z" fill="url(#linear-gradient-68)" style="mix-blend-mode:darken"/><path d="M10.79,53.19a3,3,0,0,1-.27,1.09c0,.09-.09.19-.15.28-1.59,0-4.17.1-6.54-.07.62-.07,3.11-.12,4.55-.41A9.18,9.18,0,0,0,10.79,53.19Z" fill="url(#linear-gradient-69)"/><path d="M11.11,57a3.2,3.2,0,0,1-.52,1.22,3,3,0,0,1-.22.28c-1.42-.08-3.86-.22-6.21-.33A16.83,16.83,0,0,0,11.11,57Z" fill="url(#linear-gradient-70)"/><path d="M10.68,61a2.19,2.19,0,0,1-.83,1h0a1.56,1.56,0,0,1-.34.18.36.36,0,0,1,0,.11c-1.18-.09-3.14-.24-5.46-.35A18.39,18.39,0,0,0,10.68,61Z" fill="url(#linear-gradient-71)"/><path d="M10.35,54.58h0c-.64.06-1.29.08-1.93.1s-1.53,0-2.31,0-1.53-.09-2.29-.18l2.29-.1,2.3-.06,2.1,0A2.28,2.28,0,0,1,10.35,54.58Z" fill="#b8784d"/><path d="M10.29,58.55a0,0,0,0,0,0,0l-1.41,0c-.79,0-1.58-.08-2.36-.14S5,58.24,4.16,58.13c.8,0,1.59-.06,2.38-.06s1.58,0,2.37,0q.84,0,1.68.09A3.25,3.25,0,0,1,10.29,58.55Z" fill="#b8784d"/><path d="M9.5,62.18l0,.14-1.65,0c-.65,0-1.29-.08-1.95-.14S4.64,62,4,61.94c.65,0,1.3-.07,2-.08s1.31,0,2,0,1.29.07,1.94.13A1.56,1.56,0,0,1,9.5,62.18Z" fill="#b8784d"/><path d="M9,64.47a1.9,1.9,0,0,1-.54.48l0,0a9.17,9.17,0,0,1-1,.16,10,10,0,0,1-1.73,0,11.83,11.83,0,0,1-1.7-.29l1.71,0c.57,0,1.13,0,1.68-.1A12.61,12.61,0,0,0,9,64.47Z" fill="#b8784d"/></g></g></g></svg>