<svg xmlns="http://www.w3.org/2000/svg" viewBox="0 0 83.62 180.81"><g style="isolation:isolate"><g id="Layer_2" data-name="Layer 2"><g id="OBJECTS"><path d="M13.32,134.57c2.4,2.87-3.14,3.4-3.14,3.4A11.71,11.71,0,0,0,6,139.67c-3,2-6.46,5.12-6,2.43A13.63,13.63,0,0,1,2.84,136a12.22,12.22,0,0,1,4.75-3.09l-3-1.07.53-1.06A10.53,10.53,0,0,1,13.32,134.57Z" fill="#383e46"/><path d="M7,136a7.46,7.46,0,0,1,5.2-1.11c.92.13,11.71-1.2,17.23,5.53,0,0-2.18-26.8,0-30.17s8.42-1.94,8.42-1.94,1.47,26.13-1.57,34.22-5.26,6.23-11.94,2.61c-4.34-2.35-9.18-4.55-11.33-5.83a7.41,7.41,0,0,0-3.54-.24,29.37,29.37,0,0,0-6,1.76C3.88,138.23,5.56,137,7,136Z" fill="#f0a98f"/><path d="M38,37.79a6.31,6.31,0,1,1-6.3-6.47A6.39,6.39,0,0,1,38,37.79Z" fill="#5c311e"/><path d="M53.56,21.24c0,10-5.43,17.69-15.35,17.69S21.69,29.18,21.69,19.19,28.29,2.74,38.21,2.74,53.56,11.25,53.56,21.24Z" fill="#5c311e"/><path d="M46.7,168.85c-1.56-1.76-4.88-1.86-5.9.6-.35.78-1.91,3.1-.89,9.79l1.17.06.16-3.2,0-.35c.14.63.33,1.3.52,2,.84,3.2,7.39,3.63,9.23,2.4.5-.34-.54-1.23-1.39-3.41C48.58,174,47.51,169.77,46.7,168.85Z" fill="#383e46"/><path d="M47.51,171.77a52.16,52.16,0,0,1-1.19-5.33c.74-7,5-66.65,2.79-73.78l-9.84,1.83,3,70.27a28.67,28.67,0,0,0-.28,5.59c.27,3.09,4.08,7.08,5.69,6.78C48.64,177,48,173.79,47.51,171.77Z" fill="#f0a98f"/><path d="M43.92,122c.18-6.82.39-14.85.39-14.85l2.24,14.69c.74,0,1.48-.12,2.21-.19,1-.11,2-.23,3-.36a153.41,153.41,0,0,0,.34-16.2C51.76,95.05,49.68,84.26,47,80.66l-18.5,3.09s-2.6,5.21-3.7,17.48a156.81,156.81,0,0,0-.25,19.7A92.11,92.11,0,0,0,43.92,122Z" fill="#22272e"/><path d="M32.45,78c-.31-1.85-7.67-29.36-7.67-29.36s16.72-4.86,27.41.08L44.52,78Z" fill="#9dcad1"/><path d="M24.78,48.45l2,8.21S22.52,61,28.48,65L31,75.26,26.69,88.13l9.83,1,2-4.93,1.85,5s7.63,0,9.53-2.2L45.75,75.2l2.47-10.36s4.82-2.56,2-8l2-8.46-5.68-2L37.8,66.35,29.49,47Z" fill="#3e4753"/><rect x="34" y="33.64" width="6.47" height="13.87" rx="2.91" fill="#d8826c"/><path d="M51,25.17C51,34.62,46.75,39.88,39.55,40,31.89,40.2,25,34.62,25,25.17S27.87,6,38,6C47.89,6,51,15.73,51,25.17Z" fill="#f0a98f"/><path d="M42.33,23a3.31,3.31,0,1,0,3.31-3.32A3.31,3.31,0,0,0,42.33,23Z" fill="#fff"/><path d="M47.53,22.81a2.5,2.5,0,0,1-2.19,2.73,2.5,2.5,0,0,1-2.19-2.73,2.51,2.51,0,0,1,2.19-2.74A2.51,2.51,0,0,1,47.53,22.81Z" fill="#5b6f7f"/><path d="M46.89,22.81a1.59,1.59,0,1,1-3.11,0,1.6,1.6,0,1,1,3.11,0Z" fill="#400404"/><path d="M47,21c0,.29-.36.53-.8.53s-.8-.24-.8-.53.36-.53.8-.53S47,20.68,47,21Z" fill="#fff"/><path d="M38,28.64s1.64,2.77,3.41-.05Z" fill="#d8826c"/><path d="M36.26,23A3.32,3.32,0,1,1,33,19.7,3.31,3.31,0,0,1,36.26,23Z" fill="#fff"/><path d="M35,22.81c0,1.51-.93,2.73-2.07,2.73s-2.07-1.22-2.07-2.73.92-2.74,2.07-2.74S35,21.3,35,22.81Z" fill="#5b6f7f"/><path d="M34.42,22.81A1.76,1.76,0,0,1,33,24.75c-.82,0-1.47-.87-1.47-1.94s.65-1.95,1.47-1.95S34.42,21.73,34.42,22.81Z" fill="#400404"/><path d="M34.51,21c0,.29-.34.53-.76.53S33,21.26,33,21s.34-.53.76-.53S34.51,20.68,34.51,21Z" fill="#fff"/><path d="M35.75,28.28c0,1.51-1.55,2.73-3.48,2.73s-3.48-1.22-3.48-2.73,1.56-2.72,3.48-2.72S35.75,26.78,35.75,28.28Z" fill="#f08671"/><path d="M49.52,28.28C49.52,29.79,48,31,46,31s-3.48-1.22-3.48-2.73,1.56-2.72,3.48-2.72S49.52,26.78,49.52,28.28Z" fill="#f08671"/><path d="M51.15,23.52s3.58-4.89,4.62-.19c.82,3.74-2.52,6.49-4.59,5.79S51.15,23.52,51.15,23.52Z" fill="#f0a98f"/><path d="M51.11,24.39s2.54-3.08,3.18-1.63a5.72,5.72,0,0,1,.27,3.16s-.27-2-1.81-1.05c0,0,1.1,3.21-1.65,2A1.84,1.84,0,0,1,51.11,24.39Z" fill="#d8826c"/><path d="M25,23.52s-3.58-4.89-4.61-.19c-.83,3.74,2.51,6.49,4.58,5.79S25,23.52,25,23.52Z" fill="#f0a98f"/><path d="M25,24.39s-2.53-3.08-3.18-1.63a5.72,5.72,0,0,0-.27,3.16s.27-2,1.81-1.05c0,0-1.1,3.21,1.65,2A1.84,1.84,0,0,0,25,24.39Z" fill="#d8826c"/><path d="M28.91,18.76s3.13-4.22,8-.62A10.11,10.11,0,0,0,28.91,18.76Z" fill="#361d11"/><path d="M42.56,18.06s3.66-3.65,7.6.69A9.24,9.24,0,0,0,42.56,18.06Z" fill="#361d11"/><path d="M30.81,47.15c-.42-.9,4.35-4.42,4.35-4.42s.72,4.7,3,6.07L34.37,54S32.73,51.26,30.81,47.15Z" fill="#d7eef2"/><path d="M45.52,47.15c.42-.9-4.12-4.39-4.12-4.39s-.95,4.67-3.22,6L42,54S43.6,51.26,45.52,47.15Z" fill="#d7eef2"/><path d="M33.62,5s3.91-7.81,9.87-3.91S57.06,13.23,58.91,7.26c0,0-2.88,15.83-14.6,8.23S33.62,5,33.62,5Z" fill="#5c311e"/><path d="M38.55,6.85a44.35,44.35,0,0,1-14,15.22,12.44,12.44,0,0,1-2.47-6.58C21.85,8.09,28.07-5.9,38.55,6.85Z" fill="#5c311e"/><path d="M38.55,6.85l-2.67.41A12.22,12.22,0,0,0,44.52,19S38.35,13.43,38.55,6.85Z" fill="#5c311e"/><path d="M28.89,64.22s8.43,4.11,18.92-.83C47.81,63.39,39.58,74.7,28.89,64.22Z" fill="#ded9d5" style="mix-blend-mode:multiply"/><path d="M39.29,67.3a1.08,1.08,0,1,1-1.08-1.08A1.08,1.08,0,0,1,39.29,67.3Z" fill="#22272e"/><path d="M39.43,74.7a1.08,1.08,0,1,1-1.08-1.08A1.08,1.08,0,0,1,39.43,74.7Z" fill="#22272e"/><path d="M39.43,82.1A1.08,1.08,0,1,1,38.35,81,1.08,1.08,0,0,1,39.43,82.1Z" fill="#22272e"/><path d="M35.47,30.29s5.34,2.47,7.61.21C43.08,30.5,41,35.64,35.47,30.29Z" fill="#d5503b"/><path d="M36.26,23a3.3,3.3,0,0,0-1.82-3.22c-3.19-1.64-4.93,2.16-6,2.78,0,0,.67.66,1.15.44C29.63,23,33.11,17.34,36.26,23Z" fill="#302725"/><path d="M42.26,22.61a2.84,2.84,0,0,1,1.82-2.85c3.19-1.46,4.94,1.92,6,2.46,0,0-.67.59-1.16.39C48.89,22.61,45.42,17.57,42.26,22.61Z" fill="#302725"/><path d="M18.61,57.43c1.6-1.76-9.87,10.7-9.87,13.3s15.9,12.61,15.9,12.61L26,80.05s-8.5-9.32-11-10.7c0,0,6-5.75,7.12-7.4S18.61,57.43,18.61,57.43Z" fill="#d8826c"/><path d="M30.63,79.65c.91-.09,1.83-.08,2.75-.17a.23.23,0,0,0,.23-.23c0-1.12-1.14-1.75-2.14-1.83a5.6,5.6,0,0,0-1.63.14,13.89,13.89,0,0,0,1.49-1.48.24.24,0,0,0,0-.37c-1-.44-1.81.08-2.57.74-.56.5-1,1.08-1.56,1.62a4.67,4.67,0,0,1-1.8,1.11h-.12c-1.81.36-2.1,2.11-1.3,3.57a2.68,2.68,0,0,0,2.15,1.34A6.59,6.59,0,0,0,28,83.82a4.43,4.43,0,0,1,3.62,1.3A.24.24,0,0,0,32,85C32.2,83.21,31,82,29.5,81.35c1.45-.23,2.57.84,4,1a.24.24,0,0,0,.24-.24C33.79,80.49,32.05,80,30.63,79.65Z" fill="#f0a98f"/><path d="M26.83,57.07c-1.44,2.71-10.89,12.28-10.89,12.28,1.53,1.08,6,5.48,8.24,7.64.74.73,1.21,1.21,1.21,1.21l-2.46,4.52-1.55-.8C11.46,76.55,7.92,70.59,7.92,70.59c.82-6,16.86-22.07,16.86-22.07C27,50.09,26.83,57.07,26.83,57.07Z" fill="#3e4753"/><path d="M25.39,78.2l-2.46,4.52-1.55-.8L24.18,77C24.92,77.72,25.39,78.2,25.39,78.2Z" fill="#9dcad1"/><path d="M83.52,50.41a9.89,9.89,0,0,1-2.11,2.79c-.18.15-.38.3-.59.45l.41-.58c1-1.43,3.11-4.7.6-5.76a.26.26,0,0,0-.34.09c-.71,1.42-.44,4-1.78,5,.17-1.26.58-2.27.21-3.61A2.23,2.23,0,0,0,78.12,47a.24.24,0,0,0-.24.31c.57,1.45,1.05,4.34,0,5.65-.45.55-.29-.76-.26-1a8.09,8.09,0,0,0,.06-1.39,1.69,1.69,0,0,0-1.43-1.47.26.26,0,0,0-.29.14A2,2,0,0,0,74.82,49a2.56,2.56,0,0,0-2.19,2.58,10.11,10.11,0,0,0,.44,2.72,6.19,6.19,0,0,1-.41,3.95.18.18,0,0,0,0,.2c-.56,2,3.07,3.21,3.88,1.07a.45.45,0,0,0,0-.11A11.71,11.71,0,0,0,79.24,56C81.58,54.55,84.15,53.07,83.52,50.41ZM76,52.22l-.3.37c-.54.54-1,.36-1.39-.51,0-.62.11-1.53.92-1.61a.91.91,0,0,0,.63-.33c.06,0,.1-.1.15-.15a5.4,5.4,0,0,0,.1.58A2.41,2.41,0,0,1,76,52.22Z" fill="#f0a98f"/><path d="M72.57,57.12,70.83,59l-7.12,7.91A95.68,95.68,0,0,0,52.19,48.52,18,18,0,0,0,50,59.2C55,66.3,58.77,75.66,63.16,76.48c1.75.33,9.81-10.28,12.33-14.27.61-.94,1-1.53,1-1.53Z" fill="#3e4753"/><path d="M70.83,59l4.66,3.23c.61-.94,1-1.53,1-1.53l-3.89-3.56Z" fill="#d7eef2"/><path d="M50.22,29a1,1,0,1,0,1-1A1,1,0,0,0,50.22,29Z" fill="#fff700"/><path d="M24.31,28.62a1,1,0,1,0,1-1A1,1,0,0,0,24.31,28.62Z" fill="#fff700"/><path d="M37.88,52.46a.62.62,0,1,0,.62-.61A.62.62,0,0,0,37.88,52.46Z" fill="#d7eef2"/><path d="M37.88,57.4a.62.62,0,1,0,.62-.62A.62.62,0,0,0,37.88,57.4Z" fill="#d7eef2"/></g></g></g></svg>