<svg xmlns="http://www.w3.org/2000/svg" xmlns:xlink="http://www.w3.org/1999/xlink" viewBox="0 0 113.93 225.6"><defs><radialGradient id="radial-gradient" cx="62.99" cy="220.78" r="9.96" gradientUnits="userSpaceOnUse"><stop offset="0" stop-color="#484c50"/><stop offset="1" stop-color="#35383b"/></radialGradient><linearGradient id="linear-gradient" x1="59.06" y1="219.54" x2="76.02" y2="219.54" gradientUnits="userSpaceOnUse"><stop offset="0" stop-color="#a6a5b1"/><stop offset="1" stop-color="#a6a5b1" stop-opacity="0"/></linearGradient><radialGradient id="radial-gradient-2" cx="55.34" cy="221.15" r="10.61" gradientUnits="userSpaceOnUse"><stop offset="0" stop-color="#fff"/><stop offset="1" stop-color="#fff" stop-opacity="0"/></radialGradient><linearGradient id="linear-gradient-2" x1="69.17" y1="140.19" x2="68.59" y2="198.63" gradientUnits="userSpaceOnUse"><stop offset="0" stop-color="#fcc384"/><stop offset="1" stop-color="#fddfa9"/></linearGradient><linearGradient id="linear-gradient-3" x1="51.44" y1="153.18" x2="83.88" y2="211.93" gradientUnits="userSpaceOnUse"><stop offset="0" stop-color="#e09768"/><stop offset="1" stop-color="#e19768" stop-opacity="0"/></linearGradient><radialGradient id="radial-gradient-3" cx="70.88" cy="221.42" r="9.25" xlink:href="#radial-gradient"/><linearGradient id="linear-gradient-4" x1="68.28" y1="216.93" x2="85.04" y2="216.93" xlink:href="#linear-gradient"/><radialGradient id="radial-gradient-4" cx="64.59" cy="222.46" r="10.45" xlink:href="#radial-gradient-2"/><linearGradient id="linear-gradient-5" x1="79.91" y1="135.41" x2="79.3" y2="198.25" xlink:href="#linear-gradient-2"/><linearGradient id="linear-gradient-6" x1="61.95" y1="139.43" x2="97.57" y2="205.66" xlink:href="#linear-gradient-3"/><linearGradient id="linear-gradient-7" x1="25.4" y1="57.89" x2="23.84" y2="55.83" xlink:href="#linear-gradient-2"/><linearGradient id="linear-gradient-8" x1="21.59" y1="53.99" x2="24.62" y2="60.62" xlink:href="#linear-gradient-3"/><linearGradient id="linear-gradient-9" x1="30.97" y1="69.95" x2="34.74" y2="63.94" xlink:href="#linear-gradient-2"/><linearGradient id="linear-gradient-10" x1="25.51" y1="60.38" x2="35.92" y2="74.05" xlink:href="#linear-gradient-3"/><radialGradient id="radial-gradient-5" cx="46.51" cy="71.19" r="13" gradientUnits="userSpaceOnUse"><stop offset="0" stop-color="#4f455c"/><stop offset="1" stop-color="#3e3547"/></radialGradient><linearGradient id="linear-gradient-11" x1="48.64" y1="74.29" x2="53.97" y2="96.83" xlink:href="#linear-gradient"/><radialGradient id="radial-gradient-6" cx="37.6" cy="76.86" r="1.33" gradientUnits="userSpaceOnUse"><stop offset="0" stop-color="#3b3445"/><stop offset="1" stop-color="#2d2835"/></radialGradient><linearGradient id="linear-gradient-12" x1="51.14" y1="82.53" x2="56.13" y2="93.95" xlink:href="#linear-gradient"/><radialGradient id="radial-gradient-7" cx="70.81" cy="154.9" r="24.63" xlink:href="#radial-gradient-5"/><linearGradient id="linear-gradient-13" x1="73.82" y1="129.22" x2="98.77" y2="138.86" xlink:href="#linear-gradient"/><radialGradient id="radial-gradient-8" cx="75.43" cy="12.49" r="18.82" gradientUnits="userSpaceOnUse"><stop offset="0" stop-color="#845b48"/><stop offset="1" stop-color="#664638"/></radialGradient><radialGradient id="radial-gradient-9" cx="76.25" cy="33.96" r="48.54" xlink:href="#linear-gradient"/><linearGradient id="linear-gradient-14" x1="38.37" y1="110.2" x2="38.44" y2="110.2" gradientTransform="translate(69.36 -40.25) rotate(19)" xlink:href="#linear-gradient"/><radialGradient id="radial-gradient-10" cx="72.29" cy="73.38" r="23.96" xlink:href="#radial-gradient-5"/><radialGradient id="radial-gradient-11" cx="71.5" cy="117.5" r="23.96" gradientUnits="userSpaceOnUse"><stop offset="0" stop-color="#4f455c"/><stop offset="1" stop-color="#4f455c" stop-opacity="0"/></radialGradient><linearGradient id="linear-gradient-15" x1="73.15" y1="88.61" x2="92.96" y2="85.28" xlink:href="#linear-gradient"/><linearGradient id="linear-gradient-16" x1="89.75" y1="105.94" x2="80.62" y2="99.9" xlink:href="#linear-gradient-2"/><linearGradient id="linear-gradient-17" x1="82.74" y1="98.98" x2="90.58" y2="109.87" xlink:href="#linear-gradient-3"/><linearGradient id="linear-gradient-18" x1="76.49" y1="100.7" x2="79.41" y2="108.08" xlink:href="#linear-gradient-3"/><linearGradient id="linear-gradient-19" x1="72.76" y1="104.47" x2="77.19" y2="104.47" xlink:href="#linear-gradient-3"/><linearGradient id="linear-gradient-20" x1="74.67" y1="98.27" x2="76.64" y2="103.8" xlink:href="#linear-gradient-3"/><radialGradient id="radial-gradient-12" cx="89.38" cy="76.59" r="24.14" xlink:href="#radial-gradient-5"/><linearGradient id="linear-gradient-21" x1="86.19" y1="74.33" x2="96.97" y2="72.25" xlink:href="#linear-gradient"/><linearGradient id="linear-gradient-22" x1="98.82" y1="80.37" x2="104.22" y2="80.37" xlink:href="#linear-gradient"/><linearGradient id="linear-gradient-23" x1="100.69" y1="81.67" x2="108.5" y2="81.67" xlink:href="#linear-gradient"/><linearGradient id="linear-gradient-24" x1="86.71" y1="80.03" x2="113.93" y2="80.03" xlink:href="#linear-gradient"/><radialGradient id="radial-gradient-13" cx="70.46" cy="71.05" r="24.85" xlink:href="#radial-gradient-5"/><radialGradient id="radial-gradient-14" cx="65.66" cy="121.81" r="23.97" xlink:href="#radial-gradient-11"/><radialGradient id="radial-gradient-15" cx="66.27" cy="86.84" r="1.33" xlink:href="#radial-gradient-6"/><radialGradient id="radial-gradient-16" cx="65.33" cy="100.29" r="1.33" xlink:href="#radial-gradient-6"/><linearGradient id="linear-gradient-25" x1="61.93" y1="75.68" x2="61.87" y2="82.77" xlink:href="#linear-gradient"/><radialGradient id="radial-gradient-17" cx="73.39" cy="66.68" r="10.78" gradientUnits="userSpaceOnUse"><stop offset="0" stop-color="#f9dce4"/><stop offset="1" stop-color="#eab6c4"/></radialGradient><linearGradient id="linear-gradient-26" x1="56.33" y1="50.98" x2="76.02" y2="84.19" gradientUnits="userSpaceOnUse"><stop offset="0" stop-color="#b2a5ad"/><stop offset="1" stop-color="#b2a5ad" stop-opacity="0"/></linearGradient><radialGradient id="radial-gradient-18" cx="77.72" cy="68.26" r="13.34" xlink:href="#radial-gradient-5"/><radialGradient id="radial-gradient-19" cx="69.52" cy="69.67" r="12.15" xlink:href="#radial-gradient-5"/><linearGradient id="linear-gradient-27" x1="76.66" y1="49.66" x2="76.89" y2="59.11" xlink:href="#linear-gradient-2"/><linearGradient id="linear-gradient-28" x1="78.14" y1="42.55" x2="78.86" y2="55.55" xlink:href="#linear-gradient-3"/><linearGradient id="linear-gradient-29" x1="79.14" y1="61.27" x2="88.85" y2="61.27" xlink:href="#linear-gradient"/><linearGradient id="linear-gradient-30" x1="61.82" y1="58.91" x2="74.83" y2="58.91" xlink:href="#linear-gradient"/><radialGradient id="radial-gradient-20" cx="55.6" cy="99.4" r="7.4" gradientTransform="translate(69.13 -50.79) rotate(19)" xlink:href="#radial-gradient-8"/><linearGradient id="linear-gradient-31" x1="88.46" y1="53.35" x2="87.13" y2="63.79" xlink:href="#linear-gradient"/><linearGradient id="linear-gradient-32" x1="56.5" y1="107.81" x2="59.27" y2="93.76" gradientTransform="translate(64.88 -53.48) rotate(19)" xlink:href="#radial-gradient-8"/><linearGradient id="linear-gradient-33" x1="47.4" y1="89.55" x2="69.86" y2="87.4" gradientTransform="translate(64.88 -53.48) rotate(19)" xlink:href="#linear-gradient"/><linearGradient id="linear-gradient-34" x1="35.25" y1="99.15" x2="35.24" y2="99.1" gradientTransform="translate(63.73 -39.58) rotate(19)" xlink:href="#radial-gradient-8"/><linearGradient id="linear-gradient-35" x1="30.28" y1="103.3" x2="30.91" y2="87.43" gradientTransform="translate(63.73 -39.58) rotate(19)" xlink:href="#radial-gradient-8"/><linearGradient id="linear-gradient-36" x1="43.3" y1="79.45" x2="15.74" y2="91.81" gradientTransform="translate(63.73 -39.58) rotate(19)" xlink:href="#linear-gradient"/><linearGradient id="linear-gradient-37" x1="33.48" y1="101.12" x2="33.49" y2="101.1" gradientTransform="translate(65.75 -42.98) rotate(19)" xlink:href="#radial-gradient-8"/><linearGradient id="linear-gradient-38" x1="33.69" y1="99.36" x2="34.2" y2="87.6" gradientTransform="translate(65.75 -42.98) rotate(19)" xlink:href="#radial-gradient-8"/><linearGradient id="linear-gradient-39" x1="37.71" y1="70.69" x2="30.91" y2="96.26" gradientTransform="translate(65.75 -42.98) rotate(19)" xlink:href="#linear-gradient"/><linearGradient id="linear-gradient-40" x1="69.47" y1="66.15" x2="69.47" y2="66.1" xlink:href="#radial-gradient-8"/><linearGradient id="linear-gradient-41" x1="73.66" y1="63.43" x2="71.79" y2="52.14" xlink:href="#radial-gradient-8"/><linearGradient id="linear-gradient-42" x1="67.93" y1="46.34" x2="72.74" y2="60.16" xlink:href="#linear-gradient"/><linearGradient id="linear-gradient-43" x1="38.76" y1="123.86" x2="37.57" y2="113.14" gradientTransform="matrix(0.87, 0.49, -0.49, 0.87, 106.51, -61.97)" xlink:href="#radial-gradient-8"/><linearGradient id="linear-gradient-44" x1="36.38" y1="110.81" x2="49.24" y2="113.88" gradientTransform="matrix(0.87, 0.49, -0.49, 0.87, 106.51, -61.97)" xlink:href="#linear-gradient"/><linearGradient id="linear-gradient-45" x1="47.23" y1="101.52" x2="51.26" y2="91.46" gradientTransform="translate(67.41 -50.43) rotate(19)" xlink:href="#radial-gradient-8"/><linearGradient id="linear-gradient-46" x1="-166.62" y1="30.8" x2="-170.52" y2="34.42" gradientTransform="matrix(-1, 0, 0, 1, -76.9, 0)" xlink:href="#linear-gradient-2"/><linearGradient id="linear-gradient-47" x1="89.21" y1="35.36" x2="87.84" y2="38.39" xlink:href="#linear-gradient-3"/><linearGradient id="linear-gradient-48" x1="-166.46" y1="30.56" x2="-170.69" y2="34.27" gradientTransform="matrix(-1, 0, 0, 1, -76.9, 0)" xlink:href="#linear-gradient-3"/><radialGradient id="radial-gradient-21" cx="69.03" cy="31.8" r="18.51" gradientUnits="userSpaceOnUse"><stop offset="0.66" stop-color="#fddfa9"/><stop offset="1" stop-color="#fcc384"/></radialGradient><radialGradient id="radial-gradient-22" cx="67.73" cy="35.73" r="3.25" xlink:href="#linear-gradient-3"/><radialGradient id="Rona_Pipi" cx="79.8" cy="37.84" r="6.12" gradientUnits="userSpaceOnUse"><stop offset="0" stop-color="#dd6162"/><stop offset="1" stop-color="#df6263" stop-opacity="0"/></radialGradient><radialGradient id="Rona_Pipi-2" cx="61.43" cy="37.3" r="5.21" xlink:href="#Rona_Pipi"/><radialGradient id="radial-gradient-23" cx="64.45" cy="26.16" r="4.23" xlink:href="#linear-gradient-3"/><radialGradient id="radial-gradient-24" cx="72.39" cy="26.26" r="4.8" xlink:href="#linear-gradient-3"/><linearGradient id="linear-gradient-49" x1="77.04" y1="10.63" x2="69.78" y2="58.41" xlink:href="#linear-gradient-3"/><radialGradient id="radial-gradient-25" cx="66.92" cy="6.73" r="11.11" xlink:href="#radial-gradient-8"/><radialGradient id="radial-gradient-26" cx="58.29" cy="4.18" r="12.69" xlink:href="#radial-gradient-2"/><radialGradient id="radial-gradient-27" cx="62.96" cy="27.61" r="3.5" gradientUnits="userSpaceOnUse"><stop offset="0" stop-color="#2c2e2d"/><stop offset="1" stop-color="#363838"/></radialGradient><radialGradient id="Gradient_Eye" cx="64.9" cy="27.97" r="4.45" gradientUnits="userSpaceOnUse"><stop offset="0.52" stop-color="#fff"/><stop offset="1" stop-color="#a6a5b1"/></radialGradient><clipPath id="clip-path"><path d="M61.46,26.93a2.07,2.07,0,0,0,.59,2.45c.65.56,1.19.36,2.1.47a8.74,8.74,0,0,0,3.15,0,3.89,3.89,0,0,0-2.45-3.7C63.65,25.62,61.9,25.71,61.46,26.93Z" fill="none"/></clipPath><radialGradient id="radial-gradient-28" cx="65.58" cy="28.33" r="2.21" gradientUnits="userSpaceOnUse"><stop offset="0.74" stop-color="#e2a580"/><stop offset="0.83" stop-color="#a3765c"/><stop offset="0.95" stop-color="#624738"/></radialGradient><linearGradient id="linear-gradient-50" x1="64.5" y1="25.16" x2="64.26" y2="29.38" xlink:href="#linear-gradient"/><linearGradient id="linear-gradient-51" x1="69.48" y1="38.11" x2="69.48" y2="35.5" xlink:href="#linear-gradient-2"/><linearGradient id="linear-gradient-52" x1="74.95" y1="39.57" x2="68.84" y2="27.77" xlink:href="#linear-gradient-3"/><radialGradient id="radial-gradient-29" cx="72.45" cy="26.24" r="5.86" xlink:href="#linear-gradient-3"/><linearGradient id="linear-gradient-53" x1="67.53" y1="33.42" x2="68.52" y2="38.92" xlink:href="#linear-gradient-3"/><radialGradient id="radial-gradient-30" cx="65.25" cy="-0.14" r="5.25" gradientTransform="translate(11.77 12.54) rotate(5.56)" xlink:href="#radial-gradient-8"/><radialGradient id="radial-gradient-31" cx="78.76" cy="27.51" r="4.4" xlink:href="#radial-gradient-27"/><radialGradient id="Gradient_Eye-2" cx="78.02" cy="28.15" r="6.06" xlink:href="#Gradient_Eye"/><clipPath id="clip-path-2"><path d="M73.14,30.07c.93.62,2.31.06,4.25,0C79.7,30,81,30,81.79,28.45a3.55,3.55,0,0,0-4.21-2.9C75.58,25.77,73.09,27.2,73.14,30.07Z" fill="none"/></clipPath><radialGradient id="radial-gradient-32" cx="78.58" cy="28.23" r="2.44" xlink:href="#radial-gradient-28"/><linearGradient id="linear-gradient-54" x1="77.54" y1="23.94" x2="77.45" y2="30.23" xlink:href="#linear-gradient"/><radialGradient id="radial-gradient-33" cx="63.14" cy="19.94" r="3.39" xlink:href="#radial-gradient-8"/><radialGradient id="radial-gradient-34" cx="78.17" cy="8.38" r="19.16" xlink:href="#radial-gradient-8"/><linearGradient id="linear-gradient-55" x1="86.41" y1="59.21" x2="93.83" y2="59.21" xlink:href="#linear-gradient"/><linearGradient id="linear-gradient-56" x1="77.19" y1="21.64" x2="107.59" y2="49.54" xlink:href="#linear-gradient"/><radialGradient id="radial-gradient-36" cx="68.59" cy="35.73" r="0.73" xlink:href="#radial-gradient-27"/><radialGradient id="radial-gradient-37" cx="88.68" cy="39.53" r="2.92" xlink:href="#radial-gradient-8"/><radialGradient id="radial-gradient-38" cx="69.79" cy="45.57" r="3.23" xlink:href="#linear-gradient-3"/><radialGradient id="radial-gradient-39" cx="70.86" cy="42.83" r="3.79" gradientUnits="userSpaceOnUse"><stop offset="0" stop-color="#674738"/><stop offset="1" stop-color="#473127"/></radialGradient><clipPath id="clip-path-3"><path d="M66,38.55A16.77,16.77,0,0,1,67,42.24,2.22,2.22,0,0,0,68.81,44c1.11.2,3.86-1.3,4.74-2.52s1.86-3.12,2.13-3.42c-1,.1-4.12.57-4.94.67A13.65,13.65,0,0,1,66,38.55Z" fill="none"/></clipPath><radialGradient id="radial-gradient-40" cx="69.55" cy="43.38" r="2.57" gradientUnits="userSpaceOnUse"><stop offset="0.45" stop-color="#cd6a6b"/><stop offset="1" stop-color="#b15556"/></radialGradient><radialGradient id="Gradient_Eye-3" cx="69.64" cy="42.79" r="6.08" xlink:href="#Gradient_Eye"/><linearGradient id="linear-gradient-57" x1="71.03" y1="35.56" x2="71.31" y2="40.67" xlink:href="#linear-gradient"/><radialGradient id="radial-gradient-41" cx="69.69" cy="34.16" r="4.91" gradientUnits="userSpaceOnUse"><stop offset="0.82" stop-color="#f38081"/><stop offset="1" stop-color="#de6b6b"/></radialGradient><radialGradient id="radial-gradient-42" cx="69.55" cy="41.23" r="3.17" gradientUnits="userSpaceOnUse"><stop offset="0.78" stop-color="#f38081"/><stop offset="1" stop-color="#de6b6b"/></radialGradient><radialGradient id="radial-gradient-43" cx="75.86" cy="38.06" r="0.98" xlink:href="#linear-gradient-3"/><radialGradient id="radial-gradient-44" cx="65.16" cy="38.09" r="0.98" xlink:href="#linear-gradient-3"/><linearGradient id="linear-gradient-58" x1="22.03" y1="63.03" x2="35.35" y2="63.03" xlink:href="#linear-gradient-2"/><linearGradient id="linear-gradient-59" x1="26.86" y1="62.29" x2="34.66" y2="61.14" xlink:href="#linear-gradient-3"/><linearGradient id="linear-gradient-60" x1="27.81" y1="60.82" x2="35.99" y2="72.17" xlink:href="#linear-gradient-3"/></defs><g style="isolation:isolate"><g id="Layer_2" data-name="Layer 2"><g id="Layer_2-2" data-name="Layer 2"><path d="M77.83,215.68c-.58.56-1.61,1.53-2.82,2.62-2.7,2.44-6.25,5.47-7.39,5.83-1.64.51-6.12.79-8.16-.4l-.4-.25c-1.52-1.08-.75-1.93-.17-2.3S60.31,220,61.61,219s4.25-.73,4.43-.79l10.54-9.3S79.7,213.86,77.83,215.68Z" fill="url(#radial-gradient)"/><path d="M76,214.51l-1,3.79c-2.7,2.44-6.25,5.47-7.39,5.83-1.64.51-6.12.79-8.16-.4l-.4-.25a11.92,11.92,0,0,0,6,.29c2.11-.53,5.44-5.49,5.85-6.31A30.94,30.94,0,0,1,76,214.51Z" fill="url(#linear-gradient)" style="mix-blend-mode:multiply"/><path d="M59.76,221.69a14.8,14.8,0,0,0,5.29.11C63.09,223,60.82,222.82,59.76,221.69Z" opacity="0.7" fill="url(#radial-gradient-2)" style="mix-blend-mode:screen"/><path d="M79.93,207.4c-1.14,1.51-6.11,9.11-8.45,10.55-.71.43-1.4.86-2,1.21h0c-1.48.81-2.75,1.29-3.61.82a6.69,6.69,0,0,0-4.2-1,50.71,50.71,0,0,0,4.88-4.64A50.29,50.29,0,0,0,71,208c.9-1.82,1.74-3.33,1.28-5.15a35.83,35.83,0,0,0-2-6.5c-1.29-3.08-4.34-9.9-6-13.53s-2.83-7.94-3.63-9.65a48.26,48.26,0,0,1-1.81-5,17.77,17.77,0,0,1-1.26-5.32c0-1.48.35-5.33.46-8.29,3.68-2.07,9.15-3.06,12.86.66.14.14.28.29.41.44-1.51,3.1-2.19,9.68,0,12.33s3.7,7.26,4.16,12.48c.39,4.42.88,11.21,1.29,16.28C77.15,202.33,78.11,204.6,79.93,207.4Z" fill="url(#linear-gradient-2)"/><path d="M79.93,207.4c-1.14,1.51-6.11,9.11-8.45,10.55-.71.43-1.4.86-2,1.21,1.87-2.42,3.92-6,4.09-7.27.23-1.73,1.89-4.76,2.88-7.25-.23-1.37-1.74-11.42-2-14.71s-1.36-11.56-1.82-13.83-3-5.56-4.31-3.41-1.81,1.36-2.16.69a13.5,13.5,0,0,1-.78-5.23,43,43,0,0,0,.78-6.23c0-2.27-1.57-3.86-4.08-4.2l8.78-2.52c.14.14.28.29.41.44-1.51,3.1-2.19,9.68,0,12.33s3.7,7.26,4.16,12.48c.39,4.42.88,11.21,1.29,16.28C77.15,202.33,78.11,204.6,79.93,207.4Z" fill="url(#linear-gradient-3)" style="mix-blend-mode:darken"/><path d="M61.69,163.45a4.37,4.37,0,0,1,.67,1.35,4.91,4.91,0,0,1,0,3,5.42,5.42,0,0,1-.29.7,4.54,4.54,0,0,1-.41.63,7.83,7.83,0,0,0,.44-1.4,6.88,6.88,0,0,0,.15-1.43,7,7,0,0,0-.12-1.44A8.33,8.33,0,0,0,61.69,163.45Z" fill="#b8784d"/><path d="M63.61,169.93c0,.13,0,.26-.07.37a3.38,3.38,0,0,1-.11.34c0,.11-.09.22-.14.33s-.12.21-.2.33a1.1,1.1,0,0,1-.05-.4,1.72,1.72,0,0,1,.08-.38,1.57,1.57,0,0,1,.19-.33A1.25,1.25,0,0,1,63.61,169.93Z" fill="#b8784d"/><path d="M85,214.54c-.29,1.25-3.12,8.12-3.12,8.12a2.07,2.07,0,0,1-1,.33s.23-2.43.35-3.57c-.52.4-1.19,1.81-2.44,3.12s-2.22,2.49-5,2.89a17.06,17.06,0,0,1-5.47-.1,9.18,9.18,0,0,1-1.16-.3c-1.37-.45-.29-1.87.45-2.44s1.7-1.36,2.55-2.15,1.66-.61,2.79-.91c0,0,4.69-4.16,7.84-7.56a13.09,13.09,0,0,0,2.75-3.7C84.53,209.36,85.26,213.3,85,214.54Z" fill="url(#radial-gradient-3)"/><path d="M85,214.54c-.29,1.25-3.12,8.12-3.12,8.12a2.07,2.07,0,0,1-1,.33s.23-2.43.35-3.57c-.52.4-1.19,1.81-2.44,3.12s-2.22,2.49-5,2.89a17.06,17.06,0,0,1-5.47-.1l1.77-.05c4.68-.21,5.78-2.34,6.76-3.67s2.64-5.25,3.9-8.46l0-1.18a13.09,13.09,0,0,0,2.75-3.7C84.53,209.36,85.26,213.3,85,214.54Z" fill="url(#linear-gradient-4)" style="mix-blend-mode:multiply"/><path d="M69,223.2a13.45,13.45,0,0,0,5.21-.23A4.76,4.76,0,0,1,69,223.2Z" fill="url(#radial-gradient-4)"/><path d="M86.45,164.19c.91,4.2,2.27,7.86,2,14.74s-2.8,14.75-4.24,19.66-1.13,8.54-.68,9.68a16.59,16.59,0,0,1-1.89,4c-.13.2-.32.58-.57,1l0,.05c-.68,1.36-1.71,3.55-2.66,5.33-1.28,2.42-3,3-4.23,2.58a25.08,25.08,0,0,0-4-.84,28.51,28.51,0,0,0,3.7-6.2,42,42,0,0,1,2.2-5.67c.87-1.74,1.16-3.62,1.4-6.82l0-.44c.61-8.39-.75-15.27-.75-19.36a63.46,63.46,0,0,0-1.59-12.32c-.56-2.15-.56-5-1.14-6.8a24.36,24.36,0,0,1-.45-8.05c1.12-1.39,9-6.4,13-5.75a2.45,2.45,0,0,1,2.2,2.07C86.52,157.84,86,162,86.45,164.19Z" fill="url(#linear-gradient-5)"/><path d="M86.45,164.19c.91,4.2,2.27,7.86,2,14.74s-2.8,14.75-4.24,19.66-1.13,8.54-.68,9.68a16.59,16.59,0,0,1-1.89,4c-.13.2-.32.58-.57,1,.4-1,.8-1.9.95-2.33.3-.87.64-2.46.83-3.1s-.37-1.71-.7-3.27.7-5.27,1.15-9,2.16-13.16,1.82-17.13-2.5-9.18-2.5-11.24.68-5.77.23-7.47-2.27-2.05-6.58-2.39l.91-3.85,9.37-4.5a2.45,2.45,0,0,1,2.2,2.07C86.52,157.84,86,162,86.45,164.19Z" fill="url(#linear-gradient-6)"/><path d="M79.4,159.86a6.32,6.32,0,0,1,.15,1.37,4.38,4.38,0,0,1-.21,1.39,3.29,3.29,0,0,1-.72,1.22,2.3,2.3,0,0,1-1.2.7,3.05,3.05,0,0,0,1-.87,3.61,3.61,0,0,0,.6-1.15,6.41,6.41,0,0,0,.28-1.3C79.36,160.77,79.38,160.32,79.4,159.86Z" fill="#b8784d"/><path d="M79.4,166a2.21,2.21,0,0,1-.17.57,3.6,3.6,0,0,1-.29.5,3.19,3.19,0,0,1-.4.42,2.37,2.37,0,0,1-.5.32c.11-.17.21-.33.32-.48l.32-.45.35-.44A4.8,4.8,0,0,1,79.4,166Z" fill="#b8784d"/><path d="M82.12,204.62a3.5,3.5,0,0,0,.55,1.43,3.13,3.13,0,0,1,.67,1.49,4.07,4.07,0,0,1-.3,1.6l-.27.74-.14.37c0,.11-.12.29-.27.28.14,0,.15-.19.18-.31l.07-.39.18-.77a4.86,4.86,0,0,0,.2-1.49,3.82,3.82,0,0,0-.54-1.39A2.85,2.85,0,0,1,82.12,204.62Z" fill="#b8784d"/><path d="M77.42,201.75a27.6,27.6,0,0,1-.72,5,11.93,11.93,0,0,1-1,2.35c-.36.76-.68,1.55-1,2.35a29.53,29.53,0,0,1-1.87,4.72,33.35,33.35,0,0,1-2.79,4.24c.49-.69.91-1.43,1.33-2.16s.85-1.46,1.22-2.21a14.63,14.63,0,0,0,1-2.29c.26-.81.52-1.62.81-2.43s.63-1.59,1-2.36a15.17,15.17,0,0,0,1-2.29,16.64,16.64,0,0,0,.57-2.44C77.16,203.43,77.3,202.59,77.42,201.75Z" fill="#b8784d"/><path d="M35.53,66.74c.17,1.27-1.85,1.06-1.85,1.06L27,65.38s-1.64-3.95-2.72-4.93a1.19,1.19,0,0,0-.25-.18,3.65,3.65,0,0,1-1.65-1.79.78.78,0,0,1-.05-.64c.25-.45.73-.42,1.19-.26s1.13.45,2.15.8c0,0,5.9,4.76,7.55,5.3A3.38,3.38,0,0,1,35.53,66.74Z" fill="url(#linear-gradient-7)"/><path d="M25,58.5s-.44,1.17-.72,2a1.19,1.19,0,0,0-.25-.18,3.65,3.65,0,0,1-1.65-1.79.75.75,0,0,1,.21-.49.76.76,0,0,1,.86-.12C23.74,58,24.18,58.15,25,58.5Z" fill="url(#linear-gradient-8)"/><path d="M40.45,71.32a13.48,13.48,0,0,1-2.21,6.27c-.13,0-2.85-6-3.19-6.23a11.41,11.41,0,0,0-2.15-1.1,37.84,37.84,0,0,0-3.73-1.43c-1.26-.32-1.79-.82-2.64-.84s-1.3-.68-2.25-.85-.7-.84-1.23-1.1-1-.45-1-1.08c.78.1,6.93.67,8.09.63a31.35,31.35,0,0,1,5.15.07,4.23,4.23,0,0,1,1.46.42c1.41.81,1.37,2,1.72,2.43S39.47,70.09,40.45,71.32Z" fill="url(#linear-gradient-9)"/><path d="M40.45,71.32a13.48,13.48,0,0,1-2.21,6.27c-.13,0-2.85-6-3.19-6.23a11.41,11.41,0,0,0-2.15-1.1,37.84,37.84,0,0,0-3.73-1.43c-1.26-.32-1.79-.82-2.64-.84s-1.3-.68-2.25-.85-.7-.84-1.23-1.1-1-.45-1-1.08c.78.1,6.93.67,8.09.63a31.35,31.35,0,0,1,5.15.07,4.23,4.23,0,0,1,1.46.42c1.41.81,1.37,2,1.72,2.43S39.47,70.09,40.45,71.32Z" fill="url(#linear-gradient-10)" style="mix-blend-mode:darken"/><path d="M30.12,65.59a5.88,5.88,0,0,1,1.28-.33c.43-.07.86-.08,1.29-.11a9.67,9.67,0,0,1,1.31.12,4.24,4.24,0,0,1,1.27.39A29.53,29.53,0,0,0,30.12,65.59Z" fill="#b8784d"/><path d="M64.22,58.82c-.49,2.07-.59,15.51-.79,20.63h0c0,.4,0,.74,0,1l-.19.37s0,0,0,0c-1.15,2.2-5,9.2-7.38,11.49l0,0a7.82,7.82,0,0,1-1.31,1,4.79,4.79,0,0,1-5.73-.68c-1.89-1.59-7.79-8-13.08-16,.23-.44.57-1.06,1-1.81A53.9,53.9,0,0,1,40,70.12c.54.84,8.85,10.52,10.66,12.18l.09-.18a2.09,2.09,0,0,1,.08-.23c.11-.4.15-.7.67-.88.68-.22,2.38-2.34,2.3-3.47a2.13,2.13,0,0,1,.91-2,1.39,1.39,0,0,0,.84-1.59A4,4,0,0,1,56.93,71c.68-.68,1.39-3.32,2.23-5.9S62.71,59.32,64.22,58.82Z" fill="url(#radial-gradient-5)"/><path d="M63.43,79.45h0c0,.4,0,.74,0,1l-.19.37s0,0,0,0c-1.15,2.2-5,9.2-7.38,11.49l0,0a7.82,7.82,0,0,1-1.31,1,4.79,4.79,0,0,1-5.73-.68c-1.89-1.59-7.79-8-13.08-16,.23-.44.57-1.06,1-1.81,2.65,3.91,8,10.81,9.9,12.91,2.11,2.32,2.9,3,3.69,3.29s.22-3.06.25-5c1,3.58,2.3,4.94,3.44,4.83s1.81-1.59,2-3.07,1.92-2.26,2.94-3.11-.57-4.43-2.55-6c3.24.69,4.76-.62,5.27-1.36A7.36,7.36,0,0,1,63.43,79.45Z" fill="url(#linear-gradient-11)" style="mix-blend-mode:multiply"/><circle cx="37.93" cy="77.55" r="0.91" fill="url(#radial-gradient-6)"/><path d="M53.63,88.27c-.68.27-1.5-.42-2-2.49-.47-1.88-.49-2.4-.82-3.66a2.09,2.09,0,0,1,.08-.23,17.48,17.48,0,0,1,2.26,2.75C53.82,85.82,54.31,88,53.63,88.27Z" fill="url(#linear-gradient-12)" style="mix-blend-mode:multiply"/><path d="M50.8,82.28c.39.9.77,1.81,1.13,2.73l.53,1.38c.18.45.28,1,.64,1.14l.1,0h0s0,0,0,0l0-.12a1.5,1.5,0,0,0,0-.3,3.4,3.4,0,0,0-.08-.63,6.3,6.3,0,0,0-.42-1.22,24.81,24.81,0,0,1-1.22-2.67c.44.88,1,1.66,1.48,2.55a6.05,6.05,0,0,1,.48,1.27,3.85,3.85,0,0,1,.1.68,1.44,1.44,0,0,1,0,.36,1.42,1.42,0,0,1,0,.2,1.07,1.07,0,0,1-.16.27l-.28,0-.18-.07c-.56-.32-.61-.93-.78-1.35l-.48-1.39C51.37,84.17,51.07,83.23,50.8,82.28Z" fill="#2d2835"/><path d="M52.05,81.14a9.08,9.08,0,0,1,1.29.5c.42.19.83.4,1.24.57a9.37,9.37,0,0,0,1.25.46,5,5,0,0,0,1.34.16,2.86,2.86,0,0,1-1.39.13,4.83,4.83,0,0,1-1.36-.39,11,11,0,0,1-1.21-.68Z" fill="#2d2835"/><path d="M57.49,88.14a8.71,8.71,0,0,1-.61,2.33,9.34,9.34,0,0,1-1.08,1.92l0,0a7.82,7.82,0,0,1-1.31,1,13.74,13.74,0,0,0,.92-1.1,13.43,13.43,0,0,0,1.24-2A14.63,14.63,0,0,0,57.49,88.14Z" fill="#2d2835"/><path d="M40.25,70.67c.33.47.64,1,.93,1.45s.57,1,.83,1.51.5,1,.72,1.56.42,1.07.6,1.62c-.29-.5-.57-1-.83-1.51l-.79-1.52c-.24-.51-.49-1-.75-1.55S40.48,71.2,40.25,70.67Z" fill="#2d2835"/><path d="M56.23,78.66c.58.27,1.16.51,1.75.74s1.18.42,1.78.61,1.2.35,1.81.5,1.23.28,1.86.39a11.75,11.75,0,0,1-3.78-.55,12.46,12.46,0,0,1-1.78-.71A11.84,11.84,0,0,1,56.23,78.66Z" fill="#2d2835"/><path d="M56.73,74.88,58,74.82l1.27-.08,1.27-.08,1.28-.1a9.92,9.92,0,0,1-1.24.38,9.19,9.19,0,0,1-1.28.19,9.55,9.55,0,0,1-1.31,0A8,8,0,0,1,56.73,74.88Z" fill="#2d2835"/><path d="M50.73,82.75a13.12,13.12,0,0,0,0,1.66c0,.55.09,1.1.15,1.65s.11,1.11.13,1.67A10.5,10.5,0,0,1,51,89.41c-.05-.56-.14-1.11-.22-1.66s-.16-1.1-.22-1.65a13.57,13.57,0,0,1-.06-1.69A6.62,6.62,0,0,1,50.73,82.75Z" fill="#2d2835"/><path d="M94.84,125.74c-.33,6.57-3.74,19.51-6,28.58-.46.79-2.49,1.82-4.54,2.16l-.75.12c-3.14.49-12.14,1.83-15.24,2-3.4.23-10.2.79-11-.91-.24-4.3.33-31.41.41-34s1.4-3.33,2.19-5.49l5.45-15.64s22.34,4.87,26.31,7.59a15.6,15.6,0,0,1,1.19,2.74A36.32,36.32,0,0,1,94.84,125.74Z" fill="url(#radial-gradient-7)"/><path d="M94.84,125.74c-.33,6.57-3.74,19.51-6,28.58-.46.79-2.49,1.82-4.54,2.16l-.75.12c1.46-6.39,4-18.23,4.62-22.58.79-5.67,0-12.93-2.84-17.35l7.54-3.73A36.32,36.32,0,0,1,94.84,125.74Z" fill="url(#linear-gradient-13)" style="mix-blend-mode:multiply"/><path d="M64.56,124.05c1.18-.18,2.35-.36,3.52-.56s2.34-.42,3.5-.66,2.32-.49,3.47-.76l3.46-.86c-1.11.42-2.24.8-3.39,1.12s-2.3.6-3.47.84-2.35.42-3.53.57S65.75,124,64.56,124.05Z" fill="#2d2835"/><path d="M66.15,128.69c1-.36,2-.73,3-1.13s2-.81,3-1.25,2-.88,2.94-1.34,1.94-.94,2.91-1.44a31.69,31.69,0,0,1-2.78,1.69c-1,.52-1.94,1-2.93,1.42s-2,.82-3,1.16S67.21,128.45,66.15,128.69Z" fill="#2d2835"/><path d="M65.15,151.53c1.13-.66,2.25-1.32,3.36-2s2.21-1.37,3.29-2.08S74,146,75.06,145.29l3.2-2.23c-1,.86-2,1.69-3,2.47s-2.12,1.52-3.21,2.23-2.22,1.38-3.37,2S66.34,151,65.15,151.53Z" fill="#2d2835"/><path d="M66.24,154.27l3.24-1.4,3.21-1.45c1.07-.49,2.13-1,3.19-1.5l3.18-1.54c-1,.63-2,1.23-3,1.79s-2.09,1.09-3.16,1.59-2.16.94-3.26,1.36S67.37,153.93,66.24,154.27Z" fill="#2d2835"/><path d="M74.81,132.46c-.64.8-1.28,1.58-1.94,2.36l-2,2.3A17.55,17.55,0,0,0,69,139.48a6.15,6.15,0,0,0-.67,1.33.42.42,0,0,0,.33.5,1.67,1.67,0,0,0,.74.05,1.62,1.62,0,0,1-.76,0,.54.54,0,0,1-.47-.61,5.71,5.71,0,0,1,.61-1.43,14.21,14.21,0,0,1,1.83-2.45l2.06-2.25C73.38,133.91,74.09,133.18,74.81,132.46Z" fill="#2d2835"/><path d="M78,0c3.82-.19,10.74.9,15.28,5.89s5.06,9.61,5.44,15c.35,5,2.34,7.63,3.7,12s-1.66,8.84-3.4,11-3.4,2.11-4.53,4.84S93,51.53,93.94,54s-.16,6-1.89,7.41c-9.91,3.32-25.33-1.82-26.62-2.65,2.72-1.81,2.27-4.61.3-6.12s-3.1-3.25-2.11-5.75,1.13-5.6,0-7.11a14.08,14.08,0,0,0-3.48-2.87c-1.59-1.21-3.25-3.63-1.44-9.83s.83-11.49,2.5-14.21S71.63.34,78,0Z" fill="url(#radial-gradient-8)"/><path d="M78,0c3.82-.19,10.74.9,15.28,5.89s5.06,9.61,5.44,15c.35,5,2.34,7.63,3.7,12s-1.66,8.84-3.4,11-3.4,2.11-4.53,4.84S93,51.53,93.94,54s-.16,6-1.89,7.41c-9.91,3.32-25.33-1.82-26.62-2.65,2.72-1.81,2.27-4.61.3-6.12s-3.1-3.25-2.11-5.75,1.13-5.6,0-7.11a14.08,14.08,0,0,0-3.48-2.87c-1.59-1.21-3.25-3.63-1.44-9.83s.83-11.49,2.5-14.21S71.63.34,78,0Z" fill="url(#radial-gradient-9)" style="mix-blend-mode:multiply"/><path d="M69.76,76.46a.2.2,0,0,0,.08,0C69.81,76.48,69.78,76.5,69.76,76.46Z" fill="url(#linear-gradient-14)" style="mix-blend-mode:multiply"/><path d="M94.69,116.71c-1.74.51-3.6,1-5.49,1.43-6.9,1.57-14.11,2.38-16.66.3s-4.44-5.22-5.54-9.85a34.24,34.24,0,0,1-.74-4.51c-.3-8.17,1.52-26.16,1.52-26.16l5.81-13,8.91-9.14,1.12-1.14s1.21.52,2.32,1.13,5.88,3.18,6.93,3.63S91.06,70.21,89.4,73.07s-3.7,7.72-5.9,10.52a10.54,10.54,0,0,0-1.66,8.92c.68,2.19,4.35,5.55,7.22,10.21S93.18,111.86,94.69,116.71Z" fill="url(#radial-gradient-10)"/><path d="M94.69,116.71c-1.74.51-3.6,1-5.49,1.43-6.9,1.57-14.11,2.38-16.66.3s-4.44-5.22-5.54-9.85a34.24,34.24,0,0,1-.74-4.51c-.3-8.17,1.52-26.16,1.52-26.16l5.81-13,8.91-9.14,1.12-1.14s1.21.52,2.32,1.13,5.88,3.18,6.93,3.63S91.06,70.21,89.4,73.07s-3.7,7.72-5.9,10.52a10.54,10.54,0,0,0-1.66,8.92c.68,2.19,4.35,5.55,7.22,10.21S93.18,111.86,94.69,116.71Z" fill="url(#radial-gradient-11)"/><path d="M94.69,116.71c-1.74.51-3.6,1-5.49,1.43a77.39,77.39,0,0,0-2.8-10.61c-2-5.27-4.83-9.75-5.79-10.31s-3.74-1-6.3-1.42A9.26,9.26,0,0,0,78,93.7c.91-1,.18-3.34-2.44-3.8s-1.81-1.76.68-2.44S79,86,78,86.16a18.52,18.52,0,0,1-6.4-.63c5.9-.74,6.34-2.83,5-3.57a13.78,13.78,0,0,1-3.85-3.06c6.06.12,10.09-3.63,10.42-5.34,1.07-.58,5.8-2.65,5-2.55a42.4,42.4,0,0,1-6.36.21c1.3-.12,4.31-.77,4.87-2.17-.3-.85,2-4.84,1.14-8.58-1.07-.44-4.73-2.79-4.87-2.83l-.44-1.87,1.12-1.14s1.21.52,2.32,1.13,5.88,3.18,6.93,3.63S91.06,70.21,89.4,73.07s-3.7,7.72-5.9,10.52a10.54,10.54,0,0,0-1.66,8.92c.68,2.19,4.35,5.55,7.22,10.21S93.18,111.86,94.69,116.71Z" fill="url(#linear-gradient-15)" style="mix-blend-mode:multiply"/><path d="M81.8,71.23c.72-.07,1.43-.14,2.13-.23s1.41-.22,2.11-.35,1.39-.28,2.08-.45,1.38-.35,2.07-.54a14.36,14.36,0,0,1-2,.82,16.51,16.51,0,0,1-4.24.78A15.58,15.58,0,0,1,81.8,71.23Z" fill="#2d2835"/><path d="M83.15,73.56a7.64,7.64,0,0,1,1.46-.65,15.82,15.82,0,0,1,1.53-.45l1.52-.37a11.47,11.47,0,0,0,1.51-.47,6.88,6.88,0,0,1-1.42.75,12,12,0,0,1-1.52.46l-1.55.34C84.17,73.28,83.66,73.4,83.15,73.56Z" fill="#2d2835"/><path d="M74.72,79.7a9.61,9.61,0,0,0,3.12,0,9.24,9.24,0,0,0,5.38-2.83A10,10,0,0,0,85,74.31a8,8,0,0,1-1.54,2.78,8.4,8.4,0,0,1-2.5,2,8.26,8.26,0,0,1-3.07.91A8,8,0,0,1,74.72,79.7Z" fill="#2d2835"/><path d="M71.59,85.53c.87.06,1.73.08,2.59.07s1.72-.06,2.57-.15,1.7-.2,2.55-.36,1.68-.35,2.52-.58a16,16,0,0,1-2.46.87,17.1,17.1,0,0,1-2.57.47,17.64,17.64,0,0,1-2.62.05A15,15,0,0,1,71.59,85.53Z" fill="#2d2835"/><path d="M80.5,86.75c-.58.25-1.17.48-1.77.7l-1.8.6c-.3.1-.59.2-.88.32a5.08,5.08,0,0,0-.81.39c-.11.07-.15.15-.11.24a.61.61,0,0,0,.28.27l.84.47-.92-.3a.84.84,0,0,1-.43-.33.47.47,0,0,1,.14-.59,4.78,4.78,0,0,1,.87-.49,7,7,0,0,1,.9-.35c.61-.2,1.22-.36,1.83-.52S79.88,86.86,80.5,86.75Z" fill="#2d2835"/><path d="M80.43,92.6a16.19,16.19,0,0,1-1.22,1.12,12.67,12.67,0,0,1-1.34,1,9.55,9.55,0,0,1-1.5.75,7.46,7.46,0,0,1-1.61.41,13.44,13.44,0,0,0,1.5-.67c.48-.25.95-.52,1.41-.8s.92-.58,1.38-.88Z" fill="#2d2835"/><path d="M94.69,116.7c-1.35.45-2.71.89-4.09,1.28s-2.77.71-4.16,1a43.64,43.64,0,0,1-8.54,1,12.64,12.64,0,0,1-4.33-.67c-.17-.07-.35-.13-.52-.22l-.49-.31a5.42,5.42,0,0,1-.85-.71,11.75,11.75,0,0,1-1.45-1.63,16.94,16.94,0,0,1-2.1-3.79A25.86,25.86,0,0,1,67,108.58a19.92,19.92,0,0,0,3.48,7.75,12.59,12.59,0,0,0,1.44,1.57,5.36,5.36,0,0,0,.83.68l.45.28c.16.08.33.14.49.21a12.49,12.49,0,0,0,4.21.61,45.71,45.71,0,0,0,8.48-1C89.18,118.18,92,117.49,94.69,116.7Z" fill="#2d2835"/><path d="M95.22,98.86a2.5,2.5,0,0,1-.42.26,31.26,31.26,0,0,0-3.69,2.23c-.43.51-.21.89-1,1.67a5.2,5.2,0,0,1-3.32,1.33,18.86,18.86,0,0,0-3.48.71,26.9,26.9,0,0,0-3.3,1.2,19.39,19.39,0,0,1-2.31,1.56,1.39,1.39,0,0,1-.48.13h0c-.56,0-.52-.61-.28-.87s.62-.57,1.11-1,.61-.73,1.07-1a22.17,22.17,0,0,0,2.5-1.54,32.79,32.79,0,0,0-3.47,1.16c-.66.33-2.52,1.45-3.16,1.81a.68.68,0,0,1-.8,0,.74.74,0,0,1-.23-.86,0,0,0,0,0,0,0l.07-.1-.23.17a3,3,0,0,1-.7.34.57.57,0,0,1-.36,0,.7.7,0,0,1-.34-1.14c.33-.4,1.14-1.38,1.76-2.06a6.25,6.25,0,0,1,2.16-1.81c.71-.19,1.65-.68,3.73-1.33,0,0-2.62.3-4.33.46a23.18,23.18,0,0,1-4.29,1.24.87.87,0,0,1-.61-.22c-.29-.27-.24-.71.26-.94.72-.32,2.1-1.08,2.78-1.38A8.07,8.07,0,0,1,76.1,98c.71-.06,1.62-.25,2.84-.46a12.71,12.71,0,0,1,2.41-.3c.84,0,6.35.19,6.82-.14.31-.22,1-.74,1.69-1.27l.45-.35a4.63,4.63,0,0,0,.42-.32S95.14,98.83,95.22,98.86Z" fill="url(#linear-gradient-16)"/><path d="M94.8,99.12a31.26,31.26,0,0,0-3.69,2.23c-.43.51-.21.89-1,1.67a5.2,5.2,0,0,1-3.32,1.33,18.86,18.86,0,0,0-3.48.71,26.9,26.9,0,0,0-3.3,1.2,19.39,19.39,0,0,1-2.31,1.56,1.39,1.39,0,0,1-.48.13,4.73,4.73,0,0,0,1.26-.89,6.06,6.06,0,0,1,2-1.39,31.27,31.27,0,0,0,3.28-1.24,32.59,32.59,0,0,1,3.62-.63,4.19,4.19,0,0,0,2.95-2.61A17.26,17.26,0,0,1,92,99.93c-1-.59-2-3-2.13-4.1a1.21,1.21,0,0,1,0-.27.73.73,0,0,1,.45-.08C91.44,95.61,93.42,97.58,94.8,99.12Z" fill="url(#linear-gradient-17)"/><path d="M82.12,103.3a3.52,3.52,0,0,0-.49.27,32.79,32.79,0,0,0-3.47,1.16c-.66.33-2.52,1.45-3.16,1.81a.68.68,0,0,1-.8,0,3.42,3.42,0,0,0,1.28-.58,16.82,16.82,0,0,1,3.26-1.86Z" fill="url(#linear-gradient-18)"/><path d="M77.1,103c-.07,0-1.88,1.48-1.88,1.48l-1.17,1.09-.23.17a3,3,0,0,1-.7.34.57.57,0,0,1-.36,0,2.92,2.92,0,0,0,1-.65c.67-.67,3.08-2.55,3.08-2.55C77.34,102.74,77.19,103,77.1,103Z" fill="url(#linear-gradient-19)"/><path d="M80.07,99.75s-2.62.3-4.33.46a23.18,23.18,0,0,1-4.29,1.24.87.87,0,0,1-.61-.22,4.22,4.22,0,0,0,1.48-.22A23.82,23.82,0,0,0,75,100a4.76,4.76,0,0,1,1.81-.21Z" fill="url(#linear-gradient-20)"/><path d="M81,101.12c-.66.39-1.33.74-2,1.1s-1.4.66-2,1-1.18.93-1.77,1.39c-.42.35-.85.69-1.27,1.06a.31.31,0,0,1,.08-.13l-.23.17a13.84,13.84,0,0,1,1.23-1.32c.57-.52,1.1-1,1.75-1.51a17.56,17.56,0,0,1,2.09-1C79.6,101.65,80.31,101.36,81,101.12Z" fill="#b8784d"/><path d="M113.15,86.9a4.34,4.34,0,0,1-.6.81,5.94,5.94,0,0,1-.92.87c-2.34,1.81-14.75,11-16.33,12.09a4.94,4.94,0,0,1-2.53-.69c-2-1.19-3.47-3.59-3.14-4.9A4.32,4.32,0,0,1,90,94.7c.13-.15.28-.3.44-.47,3.36-3.43,10.63-10.43,10.91-10.64l-.14-.07a2.75,2.75,0,0,1-.52-.31,2.14,2.14,0,0,1-.93-1.59s0,0,0,0a.86.86,0,0,0-.18-.34l-.16-.16c-.17-.15-.38-.28-.59-.47a3.47,3.47,0,0,1-1-1.1c-.48-.87-3.13-2.92-5.6-4.56-.91-.6-1.8-1.14-2.53-1.55l-.39-.21-.06,0-.63-.31a5.35,5.35,0,0,1-.39-.58,1.18,1.18,0,0,1-.11-.19,5.82,5.82,0,0,1-.34-.6c-.12-.25-.23-.49-.33-.74a1.57,1.57,0,0,1-.1-.28,10,10,0,0,1-.51-4.89,6.86,6.86,0,0,1,.24-1.13,7.36,7.36,0,0,1,1.3-2.61,6.43,6.43,0,0,1,4.46-2.44c1.29.46,3.41,3.1,5.15,5.74a28,28,0,0,0,4.73,5.09c.2.19.33.29.33.29l.55.1a3.72,3.72,0,0,1,2.71,2.16,16.66,16.66,0,0,0,4.23,4c1.89,1.37,2.72,3.86,3.17,5.75A5.64,5.64,0,0,1,113.15,86.9Z" fill="url(#radial-gradient-12)"/><path d="M98,74.59a17.4,17.4,0,0,0-5.72.36c-.91-.6-1.8-1.14-2.53-1.55l-.39-.21-.06,0-.63-.31a5.35,5.35,0,0,1-.39-.58,1.18,1.18,0,0,1-.11-.19,5.82,5.82,0,0,1-.34-.6,38.82,38.82,0,0,1,7.07.09c-2,.3-4.5.6-5.33.86C91.37,73,97.08,74.24,98,74.59Z" fill="url(#linear-gradient-21)" style="mix-blend-mode:multiply"/><path d="M104.22,79.23c-1.66.6-3.2.69-4.47,2.35a.86.86,0,0,0-.18-.34l-.16-.16c-.17-.15-.38-.28-.59-.47A7.39,7.39,0,0,1,104.22,79.23Z" fill="url(#linear-gradient-22)" style="mix-blend-mode:multiply"/><path d="M108,82.16c-1.66,0-3.4-.88-6.81,1.36a2.75,2.75,0,0,1-.52-.31c1.76-2.16,3.74-4,7.81-3.16A10.9,10.9,0,0,0,102,82.91C104.71,81.43,106.41,81.11,108,82.16Z" fill="url(#linear-gradient-23)" style="mix-blend-mode:multiply"/><path d="M113.15,86.9a4.34,4.34,0,0,1-.6.81,5.94,5.94,0,0,1-.92.87c-2.34,1.81-14.75,11-16.33,12.09a4.94,4.94,0,0,1-2.53-.69c3.68-2.27,13.92-9,13.92-9.17a11.67,11.67,0,0,1-2.2-.23c2.66-.85,5.72-4,5.38-5.21s-1.42-2.84-4.9-3.51a9.44,9.44,0,0,1,5.58.67c-.79-1.48-3.23-2.44-5-2.18,1.49-1,3.4-.83,3.73-1.33s-.45-1.54-1.87-2.27a69.2,69.2,0,0,0-8-3.07,11,11,0,0,1,2.55-.17c2,0,1.36-2.21-.11-2.5s-3.4-.68-5.73-1.07c1.14-.06,2.23-.5,1.32-1.4S93,63,92.5,63.17A14.94,14.94,0,0,1,90,63.7c-.6.83-1.27,1.34-3.14,1.87l-.09,0c-.18,0,0-.57.33-1.16s.7-1.35.7-1.35a5.16,5.16,0,0,0,.6-1.26,6.43,6.43,0,0,1,4.46-2.44c1.29.46,3.41,3.1,5.15,5.74a28,28,0,0,0,4.73,5.09c.2.19.33.29.33.29l.55.1a3.72,3.72,0,0,1,2.71,2.16,16.66,16.66,0,0,0,4.23,4c1.89,1.37,2.72,3.86,3.17,5.75A5.64,5.64,0,0,1,113.15,86.9Z" fill="url(#linear-gradient-24)" style="mix-blend-mode:multiply"/><path d="M92.3,69.23c-.58.26-1.17.5-1.78.71a18.7,18.7,0,0,1-1.84.57,10.14,10.14,0,0,1-1.2.23,1.57,1.57,0,0,1-.1-.28c.4-.08.81-.18,1.22-.29l1.84-.47C91.06,69.54,91.68,69.37,92.3,69.23Z" fill="#2d2835"/><path d="M94.5,71.5l-1.87.23L90.76,72l-1.86.23-.64.08a1.18,1.18,0,0,1-.11-.19l.7-.17c.62-.12,1.25-.23,1.87-.32s1.26-.11,1.89-.13S93.87,71.46,94.5,71.5Z" fill="#2d2835"/><path d="M97.8,74.39l-2.49-.26-2.49-.3-2.48-.34c-.21,0-.41,0-.61-.09l-.39-.21-.06,0c.36,0,.73,0,1.09.07.83.06,1.67.14,2.5.25s1.66.24,2.47.39S97,74.19,97.8,74.39Z" fill="#2d2835"/><path d="M103.63,70.61l-1.46-.08c-.71,0-1.43-.08-2.14-.13s-1.42-.13-2.13-.22c.71,0,1.43,0,2.14,0s1.43,0,2.14,0l.57,0c.2.19.33.29.33.29Z" fill="#2d2835"/><path d="M100.45,73.83a12.38,12.38,0,0,1,1.35.15c.44.07.89.17,1.32.28s.87.24,1.3.39.84.33,1.25.52c-.45-.08-.89-.18-1.32-.28L103,74.57l-1.3-.35C101.31,74.1,100.88,74,100.45,73.83Z" fill="#2d2835"/><path d="M104.22,79.23a6.18,6.18,0,0,0-1.61.29,7.77,7.77,0,0,0-1.47.66,10.85,10.85,0,0,0-1.35.89l-.22.17-.16-.16a2.08,2.08,0,0,1,.21-.21,8.43,8.43,0,0,1,1.35-1,5.8,5.8,0,0,1,1.58-.6A4.08,4.08,0,0,1,104.22,79.23Z" fill="#2d2835"/><path d="M101.29,83.52A5.91,5.91,0,0,1,103,82.4a6.86,6.86,0,0,1,4-.49,7,7,0,0,1,1,.25,7.66,7.66,0,0,1,.93.4,8.2,8.2,0,0,0-1-.23c-.33-.06-.65-.11-1-.14a9.89,9.89,0,0,0-3.89.51A10.84,10.84,0,0,0,101.29,83.52Z" fill="#2d2835"/><path d="M101.48,83.28a15.75,15.75,0,0,1,2-1.77,8.79,8.79,0,0,1,2.36-1.26,5.59,5.59,0,0,1,2.69-.2,3.9,3.9,0,0,1,2.32,1.26,4.32,4.32,0,0,0-2.36-1,6,6,0,0,0-2.53.27,9.93,9.93,0,0,0-2.31,1.14C102.89,82.22,102.19,82.76,101.48,83.28Z" fill="#2d2835"/><path d="M113.15,86.9a4.34,4.34,0,0,1-.6.81,11.16,11.16,0,0,1-1.15.79,11.47,11.47,0,0,1-2.08,1,10.71,10.71,0,0,1-2.22.53,20,20,0,0,0,2.13-.76,17.83,17.83,0,0,0,2-1A15.5,15.5,0,0,0,113.09,87Z" fill="#2d2835"/><path d="M96.68,91.87c-.68.34-1.37.66-2.05,1s-1.37.6-2.07.88-1.4.55-2.1.81L90,94.7c.13-.15.28-.3.44-.47.66-.29,1.32-.57,2-.84s1.4-.54,2.1-.79S96,92.1,96.68,91.87Z" fill="#2d2835"/><path d="M89.34,73.19l-.72-.28h0A9,9,0,0,1,86.67,69a9.73,9.73,0,0,1,0-4.36,7.38,7.38,0,0,1,2.19-3.77c.3-.22.59-.45.9-.65s.64-.35,1-.48.7-.2,1-.27l1.07-.12a6.6,6.6,0,0,0-3.81,1.71,7.44,7.44,0,0,0-2,3.67,10,10,0,0,0,1.61,8.08h0Z" fill="#2d2835"/><path d="M67.9,84.72a2.86,2.86,0,0,0,.51,1.21c-.41,3.63-1.24,17.92-1.62,21.1s-.37,10.5-1.82,12.85-3.85,3-7.25,3.86c.15-2.12.6-11.12,1.44-16.41s2.39-13.06,2.9-15.85a26.92,26.92,0,0,0-.16-7.82c0-.11,0-.22,0-.32a9.5,9.5,0,0,0-.26-1.27,18.81,18.81,0,0,0-1.81-4c-.29-.54-.61-1.13-.9-1.76h0a7.4,7.4,0,0,1-.78-4.69c.5-2.62,2-4.49,2.6-5.57s1.88-5.84,3.52-7.2c.74-.28,3.91-1.75,5-2.11a11.42,11.42,0,0,1,2-.44S68.19,76.28,67.9,84.72Z" fill="url(#radial-gradient-13)"/><path d="M67.9,84.72a2.86,2.86,0,0,0,.51,1.21c-.41,3.63-1.24,17.92-1.62,21.1s-.37,10.5-1.82,12.85-3.85,3-7.25,3.86c.15-2.12.6-11.12,1.44-16.41s2.39-13.06,2.9-15.85a26.92,26.92,0,0,0-.16-7.82c0-.11,0-.22,0-.32a9.5,9.5,0,0,0-.26-1.27,18.81,18.81,0,0,0-1.81-4c-.29-.54-.61-1.13-.9-1.76h0a7.4,7.4,0,0,1-.78-4.69c.5-2.62,2-4.49,2.6-5.57s1.88-5.84,3.52-7.2c.74-.28,3.91-1.75,5-2.11a11.42,11.42,0,0,1,2-.44S68.19,76.28,67.9,84.72Z" fill="url(#radial-gradient-14)"/><circle cx="66.6" cy="87.53" r="0.91" fill="url(#radial-gradient-15)"/><circle cx="65.66" cy="100.98" r="0.91" fill="url(#radial-gradient-16)"/><path d="M65,78.39c-.56.87-1.66,2.9-3.35,3.68a18.81,18.81,0,0,0-1.81-4c-.29-.54-.61-1.13-.9-1.76C60.56,77.83,62.56,78.24,65,78.39Z" fill="url(#linear-gradient-25)" style="mix-blend-mode:multiply"/><path d="M59.23,76.74a7.79,7.79,0,0,0,.88.93,7.29,7.29,0,0,0,1,.73,5.78,5.78,0,0,0,1.12.54,8.64,8.64,0,0,0,1.23.35,3.58,3.58,0,0,1-1.3-.1,4.36,4.36,0,0,1-1.23-.5,4.57,4.57,0,0,1-1-.84A4,4,0,0,1,59.23,76.74Z" fill="#2d2836"/><path d="M64.22,58.82a8.45,8.45,0,0,0-1.78,2.81c-.45,1-.83,2.07-1.22,3.12a9.52,9.52,0,0,1-.66,1.54l-.88,1.42a12.7,12.7,0,0,0-1.38,3.05,6.63,6.63,0,0,0-.18,3.31,11.68,11.68,0,0,0,1.21,3.11c1,2,2.26,3.91,2.53,6.16-.41-2.23-1.69-4.08-2.77-6a11,11,0,0,1-1.3-3.18A7,7,0,0,1,58,70.66a13.15,13.15,0,0,1,1.44-3.11l.9-1.42A11.68,11.68,0,0,0,61,64.66c.41-1,.83-2.09,1.32-3.1A8.59,8.59,0,0,1,64.22,58.82Z" fill="#2d2835"/><path d="M57.72,123.74a19.81,19.81,0,0,0,5-1.72,6.15,6.15,0,0,0,2-1.76,6.56,6.56,0,0,0,1-2.45c.73-3.49.71-7.08,1.06-10.61s.57-7.09.83-10.63.46-7.1.81-10.64c-.13,1.77-.19,3.55-.26,5.33l-.31,5.32c-.22,3.55-.39,7.1-.71,10.66s-.41,7.1-1.18,10.62a6.82,6.82,0,0,1-1.06,2.52,6.32,6.32,0,0,1-2,1.8A19.92,19.92,0,0,1,57.72,123.74Z" fill="#2d2835"/><path d="M81.57,61.38l-3.11,3.34-3.2,4.79-1.57,2.36L72.5,74.7l-.16.36L71.4,77.3l-.07.15L70.69,79l-.13.3-.7,1.67-.15.35L68.13,85,66,79.52l0-.23,0-.24-.84-5.3-.06-.32L64.85,72l2.69-9.5a6,6,0,0,1,2.27-3,1.92,1.92,0,0,1,.25-.12s5.67-.34,5.85-.34S80.5,60,80.5,60Z" fill="url(#radial-gradient-17)"/><path d="M75.26,69.51l-1.57,2.36L72.5,74.7l-.16.36L71.4,77.3l-.07.15L70.69,79l-.13.3-.7,1.67-.15.35L68.13,85,66,79.52l0-.23,0-.24-.84-5.3-.06-.32L64.85,72l2.69-9.5a6,6,0,0,1,2.27-3A24.82,24.82,0,0,0,67,69c-.19,4,1.32,4.17,1.47,4.2-1,.51-1.76,1.27-.87,1.37a20.07,20.07,0,0,1,2.81.72c.47.15-1-1-1.33-1.19s1.19-.24,2.16-.5,2.41-2.76,2.41-3-3.77.17-5.39-.87c3.77-.06,5.46-.17,6.87-.81A3,3,0,0,1,75.26,69.51Z" fill="url(#linear-gradient-26)" style="mix-blend-mode:multiply"/><path d="M71.4,77.3l-.07.15c-.21-.11-.43-.2-.65-.3-.37-.17-.76-.32-1.14-.47s-.77-.28-1.17-.4-.8-.24-1.21-.34a5.39,5.39,0,0,1,1.27.06,7.28,7.28,0,0,1,1.24.32,8.2,8.2,0,0,1,1.15.57A6,6,0,0,1,71.4,77.3Z" fill="#bf8193"/><path d="M72.5,74.7l-.16.36c-.33-.07-.65-.14-1-.23s-.79-.23-1.19-.36c.42,0,.84,0,1.25.07S72.13,74.63,72.5,74.7Z" fill="#bf8193"/><path d="M67.88,73.19l-1.1.24-1.08.21-.58.11-.06-.32.58-.13a10.52,10.52,0,0,1,1.11-.14A10.73,10.73,0,0,1,67.88,73.19Z" fill="#bf8193"/><path d="M70.69,79l-.13.3h-.07c-.67-.05-1.34-.08-2-.09s-1.35,0-2,.07l-.47.05,0-.24.48-.09a13.15,13.15,0,0,1,4.09,0A.45.45,0,0,1,70.69,79Z" fill="#bf8193"/><path d="M69.86,80.94l-.15.35-.44-.07c-.34,0-.68-.1-1.21-.18a10.28,10.28,0,0,1,1.22-.12A5.72,5.72,0,0,1,69.86,80.94Z" fill="#bf8193"/><path d="M68.27,69.74c.49.09,1,.16,1.46.22s1,.11,1.45.14,1,.06,1.46.07,1,0,1.47,0a8.18,8.18,0,0,1-1.46.28,10.73,10.73,0,0,1-1.5,0,9.17,9.17,0,0,1-1.47-.23A8.36,8.36,0,0,1,68.27,69.74Z" fill="#bf8193"/><path d="M68.13,85a80.29,80.29,0,0,1,7.49-17.75A64.48,64.48,0,0,1,80.5,60c.11-2.55,2.26-8.62,2.26-8.62.63.4,1.31.4,1.71,1.64a10,10,0,0,0,1.47,2.78c-.51,2.27-3.35,7.54-4.48,9.7-1,.11-3.4.28-3.4.28.68.63,2.1,2,2.1,2C76,73.06,71.54,78.73,68.13,85Z" fill="url(#radial-gradient-18)"/><path d="M85.94,55.76a17.19,17.19,0,0,1-.81,2.55c-.33.84-.67,1.67-1,2.48-.75,1.62-1.55,3.22-2.35,4.81l-.07.15H81.5L78.81,66l1.6,1.53.22.21-.2.25-3.24,4.14c-1.07,1.38-2.14,2.78-3.17,4.18S72,79.14,71,80.6,69,83.51,68.13,85c3.35-6.18,7.7-11.73,12-17.24L78.37,66l-.2-.2-.11-.1h.14l.3,0,3-.25c.83-1.58,1.67-3.16,2.45-4.75.39-.81.77-1.62,1.12-2.43A16.12,16.12,0,0,0,85.94,55.76Z" fill="#2d2835"/><path d="M74.37,53.27c-1,.51-3.89,2.65-5.17,3.45a76.17,76.17,0,0,0-4.38,6.82c.76.44,1.78,1.13,1.78,1.13-1.24.51-2.61,1.24-2.61,1.24-1.07,5.11.85,14.18,4.43,20a59.64,59.64,0,0,1-1.87-16.39,20.5,20.5,0,0,1,3.51-10.09C72.33,57.86,75.17,54.74,74.37,53.27Z" fill="url(#radial-gradient-19)"/><path d="M64.61,76.26a34.31,34.31,0,0,0,3.8,9.67,31.12,31.12,0,0,1-4.11-9.6,36.27,36.27,0,0,1-.87-5.19,18.51,18.51,0,0,1,.24-5.3l0-.16.13-.06,2.13-1-1.28-.86-.22-.14.12-.21c.7-1.19,1.44-2.31,2.19-3.44s1.57-2.21,2.42-3.27c-.8,1.09-1.54,2.22-2.27,3.36s-1.44,2.29-2.1,3.47l1.48.93.16.11.14.08-.16.08-.17.09L64,65.92a17.37,17.37,0,0,0-.29,3.22c0,.66,0,1.32.09,2A33.26,33.26,0,0,0,64.61,76.26Z" fill="#2d2835"/><path d="M83.62,54.63A23.29,23.29,0,0,1,80.5,60c-2.9.85-8.74,1.07-10.44-.51.4-.53.82-1.07,1.3-1.67l.19-.25c.54-.65,1.15-1.38,1.91-2.24.05-.07.12-.14.18-.21s.08-.44.12-.7.09-.81.12-1.28a30.25,30.25,0,0,0-.24-6c1.19-1,5.5-4.71,9.41-3.24A48.12,48.12,0,0,0,83,49.09,23.92,23.92,0,0,0,83.62,54.63Z" fill="url(#linear-gradient-27)"/><path d="M80.5,60a20.21,20.21,0,0,1-5.3.66,18.25,18.25,0,0,1-2.67-.2,5.22,5.22,0,0,1-2.47-1,4,4,0,0,0,1.23.47,7,7,0,0,0,1.28.22,19.22,19.22,0,0,0,2.63.11c.87,0,1.75,0,2.64-.07S79.6,60.06,80.5,60Z" fill="#b8784d"/><path d="M83,49.09a24.08,24.08,0,0,1-9.1,4,30.25,30.25,0,0,0-.24-6c1.19-1,5.5-4.71,9.41-3.24A48.12,48.12,0,0,0,83,49.09Z" fill="url(#linear-gradient-28)" style="mix-blend-mode:darken"/><path d="M73.52,58.41c-.26-.08-.5-.18-.73-.26a2.62,2.62,0,0,0-.72-.18,6.82,6.82,0,0,1-.71-.19l.19-.25c.22,0,.41.06.6.08a2,2,0,0,1,.76.28A2.76,2.76,0,0,1,73.52,58.41Z" fill="#b8784d"/><path d="M75.15,58.5A2.67,2.67,0,0,1,76.57,58a9.42,9.42,0,0,1,1.5,0c.5,0,1,0,1.48,0s1,0,1.49-.08a7.34,7.34,0,0,1-1.47.36,9.49,9.49,0,0,1-1.51.08c-.5,0-1-.08-1.48-.07A3.26,3.26,0,0,0,75.15,58.5Z" fill="#b8784d"/><path d="M80.41,52.42a11.18,11.18,0,0,1-.56,1.22c-.21.39-.45.77-.69,1.15s-.52.72-.81,1.07a9.35,9.35,0,0,1-.91,1c.24-.38.48-.75.73-1.12l.73-1.1.75-1.1Z" fill="#b8784d"/><path d="M73.78,54.64c0,.37,0,.74,0,1.11a10.09,10.09,0,0,1-.18,1.1,6.51,6.51,0,0,1-.33,1.06c0-.37,0-.73.07-1.1s.06-.74.1-1.09c0-.14,0-.28,0-.43s.12-.14.18-.21.08-.44.12-.7A2.28,2.28,0,0,1,73.78,54.64Z" fill="#b8784d"/><path d="M84.41,53.44c-.28,0-3.23,2.55-3,2.78s.79,4.36.79,4.36l-2.66,2a9.13,9.13,0,0,0-.15,3.78c.09-.2,1-1.9,1.68-2.13s-.68,2.38-2,2.72c.9,1,3.62.68,4,.34a2,2,0,0,1-.56,1.76,2.58,2.58,0,0,0,2.61-2.78c-.29-1.47.51-1.93.51-1.93-.34,1.08-.15,1.43-.15,1.43.88,0,2.81-2.79,2.93-3.58s.51-6.35.39-6.58S84.41,53.44,84.41,53.44Z" fill="url(#linear-gradient-29)" style="mix-blend-mode:multiply"/><path d="M62.52,60.64c-.91.91-1.08,3.4.34,3.57s2.1,1.48,1.81,2c1.14-.57,2-1.42,1.65-2.56a3.38,3.38,0,0,1,0-2.55c-.06.85.34,2.27,1.47,2.44s1.93,2.27,1.31,3.06a2.61,2.61,0,0,0,1.59-3.74c-.91-1.76-1.39-3.15,1-5.15a10,10,0,0,0,3.11-4.83l-.63-1.64Z" fill="url(#linear-gradient-30)" style="mix-blend-mode:multiply"/><path d="M90.57,45.59a12.17,12.17,0,0,0-4,5.37,5.51,5.51,0,0,0-.38,2.75A5.94,5.94,0,0,0,86.53,55,7.84,7.84,0,0,0,87,56c.13.24.36.57.26.86a.78.78,0,0,1-.11.18,1.57,1.57,0,0,1-.53.43,5,5,0,0,0-.5.42,2.92,2.92,0,0,0-1.19,2.24,4.14,4.14,0,0,0,.78,2.07,1.81,1.81,0,0,1-.34,2.08c0,.06-.84.92-.87.85a7.11,7.11,0,0,1,1.25-.21c.11,0,.25,0,.38,0a2.63,2.63,0,0,0,1.85-2.55c0-.55-.9-2,0-2.26a4.69,4.69,0,0,0,2.62-2.14,2.86,2.86,0,0,0-.16-2.47A7.31,7.31,0,0,0,89,54c-1.07-1.11-.52-3.46-.06-4.74a8.86,8.86,0,0,1,1.41-2.51c.17-.21,1.58-1.56,1.48-1.73S90.6,45.56,90.57,45.59Z" fill="url(#radial-gradient-20)"/><path d="M90.57,45.59a12.17,12.17,0,0,0-4,5.37,5.51,5.51,0,0,0-.38,2.75A5.94,5.94,0,0,0,86.53,55,7.84,7.84,0,0,0,87,56c.13.24.36.57.26.86a.78.78,0,0,1-.11.18,1.57,1.57,0,0,1-.53.43,5,5,0,0,0-.5.42,2.92,2.92,0,0,0-1.19,2.24,4.14,4.14,0,0,0,.78,2.07,1.81,1.81,0,0,1-.34,2.08c0,.06-.84.92-.87.85a7.11,7.11,0,0,1,1.25-.21c.11,0,.25,0,.38,0a2.63,2.63,0,0,0,1.85-2.55c0-.55-.9-2,0-2.26a4.69,4.69,0,0,0,2.62-2.14,2.86,2.86,0,0,0-.16-2.47A7.31,7.31,0,0,0,89,54c-1.07-1.11-.52-3.46-.06-4.74a8.86,8.86,0,0,1,1.41-2.51c.17-.21,1.58-1.56,1.48-1.73S90.6,45.56,90.57,45.59Z" fill="url(#linear-gradient-31)" style="mix-blend-mode:multiply"/><path d="M96.75,50.82l-.23.23a9.67,9.67,0,0,1-1.57,1l-.16.09a3,3,0,0,0-1.57,1.74,5.63,5.63,0,0,0,.41,2.45,4.43,4.43,0,0,1,0,2.2,5.5,5.5,0,0,1-1.18,2.32,0,0,0,0,1,0,0,4.86,4.86,0,0,1-1.66,1.24c-1.55.73-3.11.57-4.75.77a3.25,3.25,0,0,0-2.19.82.88.88,0,0,0-.25.58,1.7,1.7,0,0,0,.48,1,2.11,2.11,0,0,1-1,3.33.57.57,0,0,1-.18,0,3.46,3.46,0,0,0,.47-.31,2.26,2.26,0,0,0,.44-.84,1.7,1.7,0,0,0-.42-1.77,2.59,2.59,0,0,1-.68-1.32,2.1,2.1,0,0,1,1.1-2.08,14.83,14.83,0,0,1,4.43-1.43c1.4-.34,3.12-1,3.15-2.73,0-.19-.07-.39-.07-.57-.11-.89-.59-1.7-.76-2.58a4.83,4.83,0,0,1,.23-2.53c.69-1.81,2.3-2.32,3.6-3.53a8.48,8.48,0,0,0,2.27-5.27,19.4,19.4,0,0,0,.13-5,5.47,5.47,0,0,0-.1-2.34c-.06-.59-.08-1.17-.09-1.76,0-.4.18-2,.63-1a16.88,16.88,0,0,1,.62,1.9,40.23,40.23,0,0,1,1.72,5.74A10.78,10.78,0,0,1,96.75,50.82Z" fill="url(#linear-gradient-32)"/><path d="M93.24,52a2.7,2.7,0,0,0-1.3,2.6,1.83,1.83,0,0,1-.39-2c-.72,1-.65,1.9-.15,3.55a3.68,3.68,0,0,1-.1,3.21,4.61,4.61,0,0,1-1.72,1.52,2.07,2.07,0,0,0,1.79-.58,2.59,2.59,0,0,1-1.23,1.26,3.6,3.6,0,0,0,2.27-.68,4.86,4.86,0,0,1-1.66,1.24c-1.55.73-3.11.57-4.75.77a3.25,3.25,0,0,0-2.19.82.88.88,0,0,0-.25.58l-.9.1a2.1,2.1,0,0,1,1.1-2.08,14.83,14.83,0,0,1,4.43-1.43c1.4-.34,3.12-1,3.15-2.73,0-.19-.07-.39-.07-.57-.11-.89-.59-1.7-.76-2.58a4.83,4.83,0,0,1,.23-2.53c.69-1.81,2.3-2.32,3.6-3.53a8.48,8.48,0,0,0,2.27-5.27,19.4,19.4,0,0,0,.13-5,5.47,5.47,0,0,0-.1-2.34c-.06-.59-.08-1.17-.09-1.76,0-.4.18-2,.63-1a16.88,16.88,0,0,1,.62,1.9,40.23,40.23,0,0,1,1.72,5.74,10.78,10.78,0,0,1-2.77,9.6A19.63,19.63,0,0,1,95,52.06l-.16.09-.11.06a2.79,2.79,0,0,0-2,1.85A2.59,2.59,0,0,1,93.24,52Z" fill="url(#linear-gradient-33)" style="mix-blend-mode:multiply"/><path d="M64.75,65.63a.2.2,0,0,0,.08,0S64.77,65.66,64.75,65.63Z" fill="url(#linear-gradient-34)"/><path d="M64.83,65.59a2.06,2.06,0,0,0,.27-.76,1.07,1.07,0,0,0-.74-.77c-.64-.27-1.36-.23-2-.53-1.48-.72-.59-2.43.1-3.42.24-.44.3-.46,0-.82-.16-.18-.38-.33-.55-.51a3.7,3.7,0,0,1-1.24-2.29,3.66,3.66,0,0,1,.86-2.6c.17-.22,1.86-1.72,1.8-1.81a.5.5,0,0,0,0-.13,5.25,5.25,0,0,0-.48-1.64,12.8,12.8,0,0,1-.66-2.5A9.25,9.25,0,0,1,63,43.09a9.77,9.77,0,0,1,1.5-2.48,31.88,31.88,0,0,1,4.43-4.09s1-.86,1.15-.77-.8,1.35-.94,1.55a13.9,13.9,0,0,0-1.63,3c-.17.42-.32.85-.46,1.27a12,12,0,0,0-.73,4.84,8.85,8.85,0,0,0,.54,2.2h0a8.13,8.13,0,0,1,.75,3.68,4.41,4.41,0,0,1-1.31,2.66,7.37,7.37,0,0,1-1,.79c-.07,0-.24.2-.42.33v0c-.16.11-.32.22-.38.21-.26.17-.23.43-.1.67h0l0,0a8.66,8.66,0,0,1,1,1.68,1.94,1.94,0,0,1,.11,1.26c-.24.89-1.15,1.38-1.7,2.07-.78,1,.34.93,1,1.53S65.66,65.31,64.83,65.59Z" fill="url(#linear-gradient-35)"/><path d="M66.83,48.6a9.43,9.43,0,0,1,.78,3.3,4.46,4.46,0,0,1-1.34,3,7,7,0,0,0,.71-1.5,4.63,4.63,0,0,0,.26-1.55,6.27,6.27,0,0,0-.14-1.6C67,49.74,66.88,49.19,66.83,48.6Z" fill="#4d352a"/><path d="M64.83,65.59a2.06,2.06,0,0,0,.27-.76,1.07,1.07,0,0,0-.74-.77c-.64-.27-1.36-.23-2-.53-1.48-.72-.59-2.43.1-3.42.24-.44.3-.46,0-.82-.16-.18-.38-.33-.55-.51a3.7,3.7,0,0,1-1.24-2.29,3.66,3.66,0,0,1,.86-2.6c.17-.22,1.86-1.72,1.8-1.81a.5.5,0,0,0,0-.13,5.25,5.25,0,0,0-.48-1.64,12.8,12.8,0,0,1-.66-2.5A9.25,9.25,0,0,1,63,43.09a9.77,9.77,0,0,1,1.5-2.48,31.88,31.88,0,0,1,4.43-4.09s1-.86,1.15-.77-.8,1.35-.94,1.55a13.9,13.9,0,0,0-1.63,3c-.17.42-.32.85-.46,1.27l-.19,7h0l-.06,2.16a6.11,6.11,0,0,1-1.33,4.54c-.23.29-.42.54-.57.76v0a3.27,3.27,0,0,0-.48.88h0a1.45,1.45,0,0,0-.07.26,2.63,2.63,0,0,1,0-3.12A2.46,2.46,0,0,0,64,51.26a2.43,2.43,0,0,1-.89,2.13c-.53.26-.61,1.39-.55,1.81-.44,0-.77-.66-.57-1.24a2.9,2.9,0,0,0-.53,2.82c.36.81,1.2,1.62,1.27,1.88a7.43,7.43,0,0,0-.24-1.76c.37.2,1.29,1,1.28,1.75a12.92,12.92,0,0,1-1.11,2.74A1.19,1.19,0,0,0,63,62.87,1.68,1.68,0,0,1,63.65,61a7.71,7.71,0,0,0,1.8-2.32,1.94,1.94,0,0,1,.11,1.26c-.24.89-1.15,1.38-1.7,2.07-.78,1,.34.93,1,1.53S65.66,65.31,64.83,65.59Z" fill="url(#linear-gradient-36)" style="mix-blend-mode:multiply"/><path d="M64.42,63.51l.16,0A.11.11,0,0,1,64.42,63.51Z" fill="url(#linear-gradient-37)"/><path d="M69.92,57.56a2.32,2.32,0,0,1-.33.85c-.82,1.16-2.62.47-3.81,1.2-.11.12-.41.13-.46.34a1.34,1.34,0,0,0-.1.52s0,0,0,0c0,1,.52,2.71-.62,3a2.26,2.26,0,0,0,.4-.73,2.15,2.15,0,0,0-.21-1.32,5.59,5.59,0,0,1-.4-1.34,1.53,1.53,0,0,1,.46-1.56c.77-.74,1.66-.65,2.57-1,1.13-.46-.35-1.56-.75-2.12a2.27,2.27,0,0,1-.08-3c.76-.77,2-1,2.85-1.63a3.52,3.52,0,0,0,1.66-3.13c-.12-1.15-.49-2.3-.67-3.45a12.29,12.29,0,0,1,1.26-7.23,17.17,17.17,0,0,1,5.86-6.74s1.19-.68,1.25-.54-2.09,1.84-2.27,2a19.73,19.73,0,0,0-2.31,3.09,13.79,13.79,0,0,0-1.4,2.94,10,10,0,0,0-.39,4.43c.31,2.32,1.81,4.43,1.3,6.84a6,6,0,0,1-2,3.25,7.42,7.42,0,0,1-1.57,1.08,13.64,13.64,0,0,0-1.3.54c-.74.15.11,1,.32,1.23s.24.35.35.54a2.55,2.55,0,0,1,.13.29,6.63,6.63,0,0,1,.24.72s0,.06,0,.08a.22.22,0,0,0,0,.08A2.5,2.5,0,0,1,69.92,57.56Z" fill="url(#linear-gradient-38)"/><path d="M69.2,55.08a3,3,0,0,1,.35.54,2.55,2.55,0,0,1,.13.29,6.63,6.63,0,0,1,.24.72s0,.06,0,.08a.22.22,0,0,0,0,.08,5.91,5.91,0,0,0-1.59-1.71,5.16,5.16,0,0,1,.84,1.64,7.69,7.69,0,0,0-1.14-1.35c.1.64.24,1.76-.14,2.15a3.76,3.76,0,0,1-1.62.76c.4.34,2.17-.13,2.44-.48a1.2,1.2,0,0,1-.84.83,2.18,2.18,0,0,0,1.69-.22c-.82,1.16-2.62.47-3.81,1.2-.11.12-.41.13-.46.34a1.34,1.34,0,0,0-.1.52,1.71,1.71,0,0,1-.1-.95,2.23,2.23,0,0,0-.22,1.31,1.88,1.88,0,0,1-.25-1.24,3.18,3.18,0,0,0-.26.51,1.53,1.53,0,0,1,.46-1.56c.77-.74,1.66-.65,2.57-1,1.13-.46-.35-1.56-.75-2.12a2.27,2.27,0,0,1-.08-3c.76-.77,2-1,2.85-1.63a3.52,3.52,0,0,0,1.66-3.13c-.12-1.15-.49-2.3-.67-3.45a12.29,12.29,0,0,1,1.26-7.23c.19-.13.61.19,1.13.77a10,10,0,0,0-.39,4.43c.31,2.32,1.81,4.43,1.3,6.84a6,6,0,0,1-2,3.25,7.42,7.42,0,0,1-1.57,1.08,13.64,13.64,0,0,0-1.3.54C68.14,54,69,54.81,69.2,55.08Z" fill="url(#linear-gradient-39)" style="mix-blend-mode:multiply"/><path d="M69.92,57.56a3.25,3.25,0,0,0-.63-1.92,4.24,4.24,0,0,0-.31-.4l-.36-.39a1.45,1.45,0,0,1-.33-.57.57.57,0,0,1,.12-.54.87.87,0,0,1,.41-.22l-.12,0a3.67,3.67,0,0,1,.9-.4,5.12,5.12,0,0,0,.75-.36,7.16,7.16,0,0,0,1.39-1,7,7,0,0,0,2-2.84A6,6,0,0,1,72,52a7.53,7.53,0,0,1-1.44,1.08c-.5.35-1.12.41-1.64.73h0a.29.29,0,0,0-.28.36,1.24,1.24,0,0,0,.26.46,5.84,5.84,0,0,1,.63.85A3,3,0,0,1,69.92,57.56Z" fill="#4d352a"/><path d="M69.37,66.15a.43.43,0,0,0,.19-.12C69.49,66.14,69.43,66.2,69.37,66.15Z" fill="url(#linear-gradient-40)"/><path d="M78.35,42.5s-.44,0-.41,0a21.88,21.88,0,0,0-5,1.52l-.51.23c-1.62.74-3.74,2-2.78,4a8.46,8.46,0,0,0,1,1.38,3.24,3.24,0,0,1,.45,2.67,4.34,4.34,0,0,1-1.48,2.19,19.69,19.69,0,0,0-2,1.38c-.53.38.19.78.43,1s.18.11.27.27a2.58,2.58,0,0,1,1.07,2.48c-.14.63-.69,1.05-.85,1.6-.14.32.39.9.58,1.12s.27.23.4.36h0a2.43,2.43,0,0,1,1,1.6,2,2,0,0,1-.32,1.18,5.57,5.57,0,0,1-.56.5A5.12,5.12,0,0,0,70,64.52c-.1-.8-.77-1.15-1.41-1.52a2.59,2.59,0,0,1-1.77-2.14c0-.47.65-1.37,0-1.62a3.32,3.32,0,0,1-2.38-4,4.8,4.8,0,0,1,1.79-2.37c.14-.11,1.7-1.12,1.52-1.37a.21.21,0,0,0-.05-.16A5.46,5.46,0,0,1,68,44.17,8.41,8.41,0,0,1,72.24,42a9.94,9.94,0,0,1,4.84-.3c.1,0,.19.06.29.09A7.16,7.16,0,0,1,78.35,42.5Z" fill="url(#linear-gradient-41)"/><path d="M69.65,48.3a8.46,8.46,0,0,0,1,1.38,3.24,3.24,0,0,1,.45,2.67,4.34,4.34,0,0,1-1.48,2.19,19.69,19.69,0,0,0-2,1.38c-.53.38.19.78.43,1s.18.11.27.27a2.58,2.58,0,0,1,1.07,2.48c-.14.63-.69,1.05-.85,1.6-.14.32.39.9.58,1.12s.27.23.4.36c-2-1-1.29-2.27-1-3a1.85,1.85,0,0,0-.53-2.22c-.79-.76-1.47-1.27-1.47-1.86a2.42,2.42,0,0,0,.55,2,3.13,3.13,0,0,1-1.7-2c-.12-1,1.2-1.94,2.29-2.66s1.5-1.59,1.13-2a7.83,7.83,0,0,1-1.18-3.9s5.07-3.9,5.26-3.9a4.27,4.27,0,0,1,.15.79l-.51.23C70.81,45,68.69,46.24,69.65,48.3Z" fill="url(#linear-gradient-42)" style="mix-blend-mode:multiply"/><path d="M69.34,59.66a2.07,2.07,0,0,0-.27-1.34,3.69,3.69,0,0,0-.93-1h0l0,0c0-.09-.1-.1-.25-.23l0,0a3.3,3.3,0,0,1-.55-.44.61.61,0,0,1-.18-.48.67.67,0,0,1,.27-.44l0,0A6.66,6.66,0,0,1,69,54.59a4.31,4.31,0,0,0,1.26-1.22,3.14,3.14,0,0,0,.29-3.24c-.25-.5-.75-.92-1.09-1.56a2.51,2.51,0,0,1-.1-2.06,3.37,3.37,0,0,1,1.37-1.45,10.45,10.45,0,0,1,1.73-.81,10.77,10.77,0,0,0-1.66.92,3.42,3.42,0,0,0-1.22,1.42,2.24,2.24,0,0,0,.15,1.84c.3.56.81,1,1.11,1.54a3.38,3.38,0,0,1-.29,3.6,4.85,4.85,0,0,1-1.38,1.29,7.34,7.34,0,0,0-1.57,1.06h0a.39.39,0,0,0-.18.26.38.38,0,0,0,.11.3,4.06,4.06,0,0,0,.5.43h0a1.11,1.11,0,0,1,.27.26h0a3.55,3.55,0,0,1,.89,1.11A2.12,2.12,0,0,1,69.34,59.66Z" fill="#4d352a"/><path d="M68,44.16a5.81,5.81,0,0,0,0,7l0,0a.48.48,0,0,1,.16.44l0-.23a.45.45,0,0,1,0,.5,1,1,0,0,1-.14.18,2.05,2.05,0,0,1-.27.25,4.91,4.91,0,0,1-.53.4c-.37.26-.73.44-1,.7a5,5,0,0,0-1.59,1.91,4.52,4.52,0,0,1,1.43-2.09,12.4,12.4,0,0,1,1-.76c.17-.13.34-.26.5-.4s.37-.28.35-.5h0a.16.16,0,0,0-.05-.15h0a5.67,5.67,0,0,1-1.2-3.65A5.37,5.37,0,0,1,68,44.16Z" fill="#4d352a"/><path d="M84.43,64.85a3.3,3.3,0,0,1-.26.45,3.51,3.51,0,0,1-1,.92,3.57,3.57,0,0,1-1.4.53,14,14,0,0,1-2.75-.26,8.78,8.78,0,0,0,1.63-.62,4.46,4.46,0,0,0,1.49-1.13c.89-1.13-.24-2.24-.61-3.37a3.45,3.45,0,0,1,.73-3.52,4.45,4.45,0,0,1,1.64-1.09c.19-.08.83-.18.91-.45.2-.64-1.43-1.8-1.79-2.15a4.86,4.86,0,0,1-.25-7.09A5.17,5.17,0,0,1,86.5,46c1.21,0,2.5.19,3.39-.83,1-1.2.45-2.65.4-4,0,0,.2-1.54.44-1.36A1.89,1.89,0,0,0,90.84,41a6.72,6.72,0,0,1,.81,3.48,4,4,0,0,1-1.89,3.16,8.7,8.7,0,0,1-3.72.61c-1.08.06-2.42.64-2.21,2,0,.47.75.86,1.06,1.11a14.8,14.8,0,0,1,1.39,1.12A7.23,7.23,0,0,1,88,54.89a3.34,3.34,0,0,1,0,3.19,2.68,2.68,0,0,1-1.13,1h0a6.79,6.79,0,0,1-1.43.44,2.89,2.89,0,0,0-.68.21c-.64.29-.77.77-.47,1.68A4.53,4.53,0,0,1,84.43,64.85Z" fill="url(#linear-gradient-43)"/><path d="M84,63.45a3.27,3.27,0,0,1-.86,1.69,4.16,4.16,0,0,0,.22-1.54A4.15,4.15,0,0,1,81,65.87c.4.22,1.5-.29,1.5-.29a4.18,4.18,0,0,1-.78.69c.45,0,1,0,1.47,0a3.57,3.57,0,0,1-1.4.53,14,14,0,0,1-2.75-.26,8.78,8.78,0,0,0,1.63-.62,4.46,4.46,0,0,0,1.49-1.13c.89-1.13-.24-2.24-.61-3.37a3.45,3.45,0,0,1,.73-3.52,4.45,4.45,0,0,1,1.64-1.09c.19-.08.83-.18.91-.45.2-.64-1.43-1.8-1.79-2.15a4.86,4.86,0,0,1-.25-7.09A5.17,5.17,0,0,1,86.5,46c1.21,0,2.5.19,3.39-.83,1-1.2.45-2.65.4-4,0,0,.2-1.54.44-1.36A1.89,1.89,0,0,0,90.84,41a6.72,6.72,0,0,1,.81,3.48,4,4,0,0,1-1.89,3.16,8.7,8.7,0,0,1-3.72.61c-1.08.06-2.42.64-2.21,2,0,.47.75.86,1.06,1.11a14.8,14.8,0,0,1,1.39,1.12A7.23,7.23,0,0,1,88,54.89a3.34,3.34,0,0,1,0,3.19,2.68,2.68,0,0,1-1.13,1h0a5.41,5.41,0,0,0-1.94.16.64.64,0,0,0-.17.49c-.64.29-.77.77-.47,1.68a4.53,4.53,0,0,1,.18,3.48,3.3,3.3,0,0,1-.26.45A4,4,0,0,0,84,63.45Z" fill="url(#linear-gradient-44)" style="mix-blend-mode:multiply"/><path d="M84.43,64.85a3.37,3.37,0,0,0,0-2.28q-.18-.55-.39-1.11a2.15,2.15,0,0,1-.14-1.3A1.49,1.49,0,0,1,85,59.29c.41-.14.77-.19,1.13-.31a2.6,2.6,0,0,0,1.65-1.23,2.79,2.79,0,0,0,.12-2,6.65,6.65,0,0,0-1-2,6.73,6.73,0,0,0-.73-.87c-.27-.26-.58-.5-.87-.76a10.26,10.26,0,0,0-.89-.74c-.3-.26-.73-.5-.79-1.07v0a1.59,1.59,0,0,1,.75-1.59A3.07,3.07,0,0,1,86,48.26a3.18,3.18,0,0,0-1.59.51,1.48,1.48,0,0,0-.61,1.48h0c0,.41.42.65.73.88s.62.48.93.72.63.49.91.76a7.32,7.32,0,0,1,.77.9,6.81,6.81,0,0,1,1,2.11,3.05,3.05,0,0,1-.15,2.3,3,3,0,0,1-1.86,1.36c-.38.12-.77.18-1.15.29a1.2,1.2,0,0,0-.91.67,1.93,1.93,0,0,0,.1,1.16,11.4,11.4,0,0,1,.33,1.14A3.4,3.4,0,0,1,84.43,64.85Z" fill="#4d352a"/><path d="M82.81,47.07a4,4,0,0,0-1,1.9,5.56,5.56,0,0,0-.12,2.11A5.17,5.17,0,0,0,84,54.45a8.05,8.05,0,0,1,.82.83,2.07,2.07,0,0,1,.34.55.88.88,0,0,1,.08.42.54.54,0,0,1-.08.27.59.59,0,0,1-.18.2,6.82,6.82,0,0,1-1.1.42,5.28,5.28,0,0,0-.9.5,3.48,3.48,0,0,0-1.37,3.73,3.48,3.48,0,0,1,1.2-3.95,5.6,5.6,0,0,1,.94-.57,9.1,9.1,0,0,0,1-.39c.17-.11.14-.34.07-.5a1.74,1.74,0,0,0-.3-.46,7.18,7.18,0,0,0-.79-.77,5.35,5.35,0,0,1-2.3-3.63A4.84,4.84,0,0,1,82.81,47.07Z" fill="#4d352a"/><path d="M91.14,41.6a25.48,25.48,0,0,0,.59,3c.27,1,1,2,1,3.11a5.55,5.55,0,0,1-1.58,3,4.8,4.8,0,0,1-3,1.27c-2.23.41-4.51.82-6.34,2.26s-1.14,3.65-.32,5.53l0,0c.19.27.09.5-.13.71-.34.43-1.09.66-1.53,1a3.2,3.2,0,0,0-1.35,1.78c-.24,1,.55,2.21,1,3.12-.25.09-.07-2,0-2.19a4.13,4.13,0,0,1,.65-.9,5.25,5.25,0,0,1,1.37-.66,4.21,4.21,0,0,0,2.17-1.47,2.75,2.75,0,0,0,0-2.28c-.13-.46-.28-.92-.43-1.38-.07-.2-.45-.87-.35-1.07.11-.69,2.2-1.29,2.74-1.46,1.07-.32,2.19-.41,3.26-.7a7.7,7.7,0,0,0,5-4.39c.92-1.94.39-3.42-.62-5.15a22.29,22.29,0,0,1-1.18-2.14,18.07,18.07,0,0,0-.94-2.39C91,40.24,91.14,41.55,91.14,41.6Z" fill="url(#linear-gradient-45)"/><path d="M83.67,61.18A1.8,1.8,0,0,0,83.84,60a6,6,0,0,0-.34-1.17c-.14-.39-.3-.77-.43-1.16a4.23,4.23,0,0,0-.25-.54c0-.1-.09-.2-.13-.31a.65.65,0,0,1,0-.47l0,.06a1.22,1.22,0,0,1,.49-.67,4.24,4.24,0,0,1,.61-.36A10.53,10.53,0,0,1,85,54.85a17.63,17.63,0,0,1,2.63-.63A7.62,7.62,0,0,0,92.11,52a8.28,8.28,0,0,0,1.45-2.1,4.36,4.36,0,0,0,.52-2.41c-.2-1.7-1.36-3.18-2-4.83.71,1.61,2,3,2.23,4.79A4.43,4.43,0,0,1,93.84,50a8.59,8.59,0,0,1-1.48,2.2,7.32,7.32,0,0,1-2.11,1.6,9.33,9.33,0,0,1-2.54.77,16.48,16.48,0,0,0-2.59.6,10.9,10.9,0,0,0-1.24.47c-.38.2-.85.39-1,.83h0c0,.42.26.77.38,1.16l.37,1.18a6.15,6.15,0,0,1,.28,1.2A1.89,1.89,0,0,1,83.67,61.18Z" fill="#4d352a"/><path d="M88.58,28.43c1.23-1.78,3-2.81,4.26-2.73a2.24,2.24,0,0,1,1.8,2.64c-.23,1.1-.28,3-.47,4A5.23,5.23,0,0,1,92.6,35.1c-.85.87-1.37,1.66-2,2.27a2.41,2.41,0,0,1-2.9.08C87,34,88.24,29.3,88.58,28.43Z" fill="url(#linear-gradient-46)"/><path d="M88.58,28.43c1.23-1.78,3-2.81,4.26-2.73a2.24,2.24,0,0,1,1.8,2.64c-.23,1.1-.28,3-.47,4A5.23,5.23,0,0,1,92.6,35.1c-.85.87-1.37,1.66-2,2.27a2.41,2.41,0,0,1-2.9.08C87,34,88.24,29.3,88.58,28.43Z" fill="url(#linear-gradient-47)" style="mix-blend-mode:darken"/><path d="M92.89,29.92c0-1.25-.2-1.78-.74-1.93s-1.7,1.14-1.87,2.07-.31,1.28,0,1.62a2.47,2.47,0,0,1,.4,2,1.8,1.8,0,0,1-1.53,1.47c1.36.46,1.76-.56,2.24-1.13A6.05,6.05,0,0,0,92.89,29.92Z" fill="url(#linear-gradient-48)" style="mix-blend-mode:darken"/><path d="M92.61,28.61a.4.4,0,0,0-.37-.43.9.9,0,0,0-.6.17,2.9,2.9,0,0,0-.8.88,6,6,0,0,0-.52,1.05,1.46,1.46,0,0,0,.07,1.16,1.72,1.72,0,0,1,.21-1.05c.15-.32.37-.64.56-1a3.76,3.76,0,0,1,.64-.87.72.72,0,0,1,.43-.24A.36.36,0,0,1,92.61,28.61Z" fill="#b8784d"/><path d="M90,31.16a5.79,5.79,0,0,1,.59,1.09,2.19,2.19,0,0,1,.07,1.16,2.45,2.45,0,0,1-.47,1,2.87,2.87,0,0,1-1,.74,1.91,1.91,0,0,0,1.19-.53A2,2,0,0,0,91,33.47a2.31,2.31,0,0,0-.23-1.32A4.13,4.13,0,0,0,90,31.16Z" fill="#b8784d"/><path d="M91.4,30.11a1.94,1.94,0,0,1,.49.84,2.05,2.05,0,0,1,.06.92,2.57,2.57,0,0,1-.28.89,2,2,0,0,1-.59.77,1.42,1.42,0,0,0,.84-.62,2.09,2.09,0,0,0,.39-1,2,2,0,0,0-.19-1.06A1.69,1.69,0,0,0,91.4,30.11Z" fill="#b8784d"/><path d="M89.1,22.15c-.15,5-.61,11.61-1,14.14s-.78,4.84-2.26,6.43A13,13,0,0,1,83,44.82a48.08,48.08,0,0,1-5.65,2.74,30.15,30.15,0,0,1-3.52,1.21,14,14,0,0,1-4.68.6,3.67,3.67,0,0,1-1.25-.4h0a4.29,4.29,0,0,1-1.81-2c-.48-1.12-1.4-2.63-2.43-4.52l0,0A26,26,0,0,1,61,35.84,14.22,14.22,0,0,1,61,31.67c0-.42.12-.83.17-1.2a8.81,8.81,0,0,0,.15-1.39A6.33,6.33,0,0,0,61,27.34a14,14,0,0,1-.42-4.87c.17-1.24.21-3.21.74-6.68.19-1.29.88-6.41,5.33-9.47A14.91,14.91,0,0,1,75.34,4a12.64,12.64,0,0,1,7.17,2C88.36,9.85,89.21,18.39,89.1,22.15Z" fill="url(#radial-gradient-21)"/><circle cx="67.73" cy="35.73" r="3.25" fill="url(#radial-gradient-22)" style="mix-blend-mode:darken"/><circle cx="79.8" cy="37.84" r="6.12" opacity="0.3" fill="url(#Rona_Pipi)" style="mix-blend-mode:darken"/><path d="M67.17,37.23a5.58,5.58,0,0,1-3.53,5.2l0,0A26,26,0,0,1,61,35.84,14.22,14.22,0,0,1,61,31.67a4.87,4.87,0,0,1,.54,0A5.59,5.59,0,0,1,67.17,37.23Z" opacity="0.3" fill="url(#Rona_Pipi-2)" style="mix-blend-mode:darken"/><path d="M68.83,25.84a4.39,4.39,0,1,1-6.66-3.75C63.51,22.73,68.83,23.42,68.83,25.84Z" fill="url(#radial-gradient-23)"/><path d="M73.82,48.76a31,31,0,0,0,4.7-1.71A43.29,43.29,0,0,0,83,44.82a14.2,14.2,0,0,1-2.08,1.43c-.72.43-1.49.77-2.24,1.14s-1.56.64-2.37.88A13,13,0,0,1,73.82,48.76Z" fill="#b8784d"/><path d="M77.29,26.35a5.06,5.06,0,1,1-9.15-3c.92-1.27,3.4.33,7.2-1A5,5,0,0,1,77.29,26.35Z" fill="url(#radial-gradient-24)" style="mix-blend-mode:darken"/><path d="M89.1,22.15c-.15,5-.61,11.61-1,14.14s-.78,4.84-2.26,6.43A13,13,0,0,1,83,44.82a48.08,48.08,0,0,1-5.65,2.74,30.15,30.15,0,0,1-3.52,1.21,14,14,0,0,1-4.68.6,3.67,3.67,0,0,1-1.25-.4,15.14,15.14,0,0,0,2,.14c2,0,4-.76,8.48-3.21,6.07-3.37,6.8-6.75,7.22-12.73-5.09-5-9.6-12.51-11.7-15.8s-3.29-3.74-6.41-3.89c-3.63.75-5.39,5.25-5.44,8.59a47.68,47.68,0,0,1-.66,7A6.33,6.33,0,0,0,61,27.34a14,14,0,0,1-.42-4.87c.17-1.24.21-3.21.74-6.68.19-1.29.88-6.41,5.33-9.47C72.35,6.15,78.86,6,82.51,6,88.36,9.85,89.21,18.39,89.1,22.15Z" fill="url(#linear-gradient-49)" style="mix-blend-mode:darken"/><path d="M67.4,13.19a3.73,3.73,0,0,0-2.4.64A9,9,0,0,0,61.12,20c-.83,4.53-1.36,7.79-2.27,9.9a6.45,6.45,0,0,0,1.29,7c-3.56-2.19-3-5.67-2.5-7.79s.23-5.84.68-10.58a19.85,19.85,0,0,1,3.51-9.42q.49-.72,1-1.35h0c.41-.51.82-1,1.22-1.4C66.49,3.75,71.71-.42,78,0,78.74,5.7,69.89,12.21,67.4,13.19Z" fill="url(#radial-gradient-25)"/><path d="M65,13.83a3.59,3.59,0,0,1-2.52-2.23,7.19,7.19,0,0,1-1.14.08c.08-.49.21-1.49.49-2.61q.49-.72,1-1.35c-.23,1.08-.28,2.07-.37,2.75l1.13-.3A3.43,3.43,0,0,0,65,13.83Z" opacity="0.7" fill="url(#radial-gradient-26)" style="mix-blend-mode:screen"/><path d="M67.4,13.19a3.85,3.85,0,0,0-2.4.64,7.45,7.45,0,0,0-1.87,1.67,10,10,0,0,0-2,4.57c-.31,1.66-.6,3.32-.93,5a26.07,26.07,0,0,1-1.33,4.86,17.07,17.07,0,0,0,.61-2.44c.17-.82.32-1.65.45-2.47l.84-5a10.17,10.17,0,0,1,2.16-4.68,7.38,7.38,0,0,1,2-1.65A3.91,3.91,0,0,1,67.4,13.19Z" fill="#4d352a"/><path d="M67.3,29.85a4.79,4.79,0,0,0-2-4,3.62,3.62,0,0,0-3.89-.09c-1,.58-1.93,1.46-2.8,1.12A3.35,3.35,0,0,0,61,28.35a1.94,1.94,0,0,0,1.36,1.52,10.16,10.16,0,0,0,1.39.05,11.89,11.89,0,0,0,2.39,0c.28-.53.58-.56.58-.56Z" fill="url(#radial-gradient-27)"/><path d="M61.46,26.93a2.07,2.07,0,0,0,.59,2.45c.65.56,1.19.36,2.1.47a8.74,8.74,0,0,0,3.15,0,3.89,3.89,0,0,0-2.45-3.7C63.65,25.62,61.9,25.71,61.46,26.93Z" fill="url(#Gradient_Eye)"/><g clip-path="url(#clip-path)"><circle cx="65.58" cy="28" r="2.23" fill="url(#radial-gradient-28)"/><circle cx="65.58" cy="28" r="1.54" fill="#222223"/><circle cx="65.61" cy="27.55" r="0.4" fill="#fff"/><circle cx="64.31" cy="29" r="0.2" fill="#fff"/></g><path d="M61.46,27.32c.44-1.07,2.19-1.15,3.39-.69a3.44,3.44,0,0,1,2.44,3.22h0a3.89,3.89,0,0,0-2.45-3.7c-1.2-.53-2.95-.44-3.39.78a2.77,2.77,0,0,0-.16,1A2.25,2.25,0,0,1,61.46,27.32Z" fill="url(#linear-gradient-50)" style="mix-blend-mode:multiply"/><path d="M71.78,29.64a6.42,6.42,0,0,1-1.73,4,1.58,1.58,0,0,1,.75,1.43,1.45,1.45,0,0,1-1.06,1.29c-.68,0-1.06-.45-1.89-.08a2.56,2.56,0,0,1-2.38-.23,1.44,1.44,0,0,1-.47-.45h0l0,0a1.37,1.37,0,0,1-.09-1.35c.33-.75,1.36-3.1,1.73-4.08a3.83,3.83,0,0,0,.15-2.92,41.23,41.23,0,0,0-1.5-4c-.24-4.09,5.32-1.53,8.53-.47l.46.16A14.46,14.46,0,0,0,71.78,29.64Z" fill="url(#linear-gradient-51)"/><path d="M67.32,28.9c-.13.53-.28,1.06-.44,1.58L66.37,32a8.15,8.15,0,0,1-.3.77,7.36,7.36,0,0,1-.36.75A3.28,3.28,0,0,0,65,35a2.53,2.53,0,0,1,.44-1.58c.11-.24.19-.5.3-.75s.18-.5.28-.76l.59-1.52C66.85,29.89,67.07,29.39,67.32,28.9Z" fill="#faf8d3"/><path d="M71.78,29.64a6.42,6.42,0,0,1-1.73,4,1.58,1.58,0,0,1,.75,1.43,1.45,1.45,0,0,1-1.06,1.29c-.68,0-1.06-.45-1.89-.08a2.56,2.56,0,0,1-2.38-.23,1.44,1.44,0,0,1-.47-.45,2.16,2.16,0,0,0,.55,0c.81,0,.91-.91,1.11-1.73A34.9,34.9,0,0,1,68.5,28c.74-1.3,1.34-2.69,2.67-4.93a13,13,0,0,0,2.61-.35l.46.16A14.46,14.46,0,0,0,71.78,29.64Z" fill="url(#linear-gradient-52)" style="mix-blend-mode:darken"/><path d="M71.78,29.64a6.42,6.42,0,0,1-1.73,4,1.58,1.58,0,0,1,.75,1.43,1.45,1.45,0,0,1-1.06,1.29c-.68,0-1.06-.45-1.89-.08a2.56,2.56,0,0,1-2.38-.23,1.44,1.44,0,0,1-.47-.45,2.16,2.16,0,0,0,.55,0c.81,0,.91-.91,1.11-1.73A34.9,34.9,0,0,1,68.5,28c.74-1.3,1.34-2.69,2.67-4.93a13,13,0,0,0,2.61-.35l.46.16A14.46,14.46,0,0,0,71.78,29.64Z" fill="url(#radial-gradient-29)" style="mix-blend-mode:darken"/><path d="M70.8,35.12a1.45,1.45,0,0,1-1.06,1.29c-.68,0-1.06-.45-1.89-.08a2.56,2.56,0,0,1-2.38-.23,1.52,1.52,0,0,1-.51-.5,4.44,4.44,0,0,0,1,.17,7.51,7.51,0,0,0,2.47-.6,1.3,1.3,0,0,1,1.59.59A1.22,1.22,0,0,0,70.8,35.12Z" fill="url(#linear-gradient-53)" style="mix-blend-mode:darken"/><path d="M67.85,36.33a1.64,1.64,0,0,1,1.32,0,1.48,1.48,0,0,0,.66.06,1.07,1.07,0,0,0,.56-.37,1.55,1.55,0,0,0,.4-1.25A1.75,1.75,0,0,0,70,33.68a1.54,1.54,0,0,1,1,1,1.74,1.74,0,0,1-.4,1.53,1.29,1.29,0,0,1-1.57.34A2,2,0,0,0,67.85,36.33Z" fill="#b8784d"/><path d="M65.24,23.21,66.67,27a4,4,0,0,1,.26,2A8.83,8.83,0,0,1,66.26,31l-.8,1.88-.4.94a2.79,2.79,0,0,0-.32,1,1.58,1.58,0,0,0,1.13,1.54,2.4,2.4,0,0,0,2,0,2.48,2.48,0,0,1-2,.13,1.81,1.81,0,0,1-1.34-1.71,1.57,1.57,0,0,1,.12-.6l.19-.48.38-.94.77-1.89A8.43,8.43,0,0,0,66.6,29a3.91,3.91,0,0,0-.19-1.87l-.62-1.94Z" fill="#b8784d"/><path d="M82.63,23.4c-2.36-1.44-3.82-2.23-5.08-2.09A39.18,39.18,0,0,0,73,22.56a5.1,5.1,0,0,1-2.34.12,2.08,2.08,0,0,0,2.54.89,44.07,44.07,0,0,1,5-1.4A11.4,11.4,0,0,1,82.63,23.4Z" fill="url(#radial-gradient-30)"/><path d="M73.14,30.07a5.45,5.45,0,0,1,7.74-4.72c1.24.5,2.11,1.9,3.5,1.59a2.09,2.09,0,0,1-2,1.66A3.8,3.8,0,0,1,79,30.18c-2.57,0-5.83-.11-5.83-.11Z" fill="url(#radial-gradient-31)"/><path d="M73.14,30.07c.93.62,2.31.06,4.25,0C79.7,30,81,30,81.79,28.45a3.55,3.55,0,0,0-4.21-2.9C75.58,25.77,73.09,27.2,73.14,30.07Z" fill="url(#Gradient_Eye-2)"/><g clip-path="url(#clip-path-2)"><circle cx="78.58" cy="27.86" r="2.46" fill="url(#radial-gradient-32)"/><circle cx="78.58" cy="27.86" r="1.69" fill="#222223"/><circle cx="80.11" cy="27.15" r="0.44" fill="#fff"/><circle cx="77.18" cy="28.97" r="0.22" fill="#fff"/></g><path d="M77.58,26c2.32-.23,3.74.86,4.17,2.51,0,0,0,0,0-.06a3.55,3.55,0,0,0-4.21-2.9c-2,.22-4.49,1.65-4.44,4.52h0C73.11,27.49,75.58,26.2,77.58,26Z" fill="url(#linear-gradient-54)" style="mix-blend-mode:multiply"/><path d="M66,22.66a1.08,1.08,0,0,1-1.29.78,21,21,0,0,1-2.3-.53c-.55-.11-1.32.3-1.76,1.59a3,3,0,0,1,.51-1.93,1.43,1.43,0,0,1,1.7-.49C63.71,22.29,65.37,22.89,66,22.66Z" fill="url(#radial-gradient-33)"/><path d="M97.34,41.47c-2,3-4.69,3.18-6.58,5.29-1.41,1.58-.34,3.24,1.07,5,.49.59,1,1.17,1.5,1.77a3.25,3.25,0,0,1,.5,3.22,4.81,4.81,0,0,1-3.37,3.06,6.49,6.49,0,0,0-4,2.21v0a3.12,3.12,0,0,0-.33.41,7.88,7.88,0,0,0-.68,1.22,3.65,3.65,0,0,1-.07-1.18,4.22,4.22,0,0,1,2-3.29c1.13-.52,3-1.74,3-3.4a5.19,5.19,0,0,0-2.8-4.69,3.35,3.35,0,0,1-.38-5.29c1.45-1.36,3.11-3,3.41-5.22s-1.14-5-4.09-8.39-9-10.86-11-14.67a8.29,8.29,0,0,0-2.73-3.18l-.38-.25h0a8,8,0,0,0-5-.88C66.87,9.56,71.2,1.38,78,0h1.59a18.86,18.86,0,0,1,5.76,1l.09,0a15.16,15.16,0,0,1,5.64,3.52c.17.17.34.35.5.53a16.67,16.67,0,0,1,4.18,13q-.23,1.34-.33,2.7c-.38,5,.44,9.86,1.85,11.59A8.06,8.06,0,0,1,97.34,41.47Z" fill="url(#radial-gradient-34)"/><path d="M93.83,56.71a4.81,4.81,0,0,1-3.37,3.06,6.49,6.49,0,0,0-4,2.21c.78-2.25,2.42-2.82,3.44-3.38a8,8,0,0,0,2.44-2.16,3.58,3.58,0,0,1-.68,2.19A6.62,6.62,0,0,0,93.83,56.71Z" fill="url(#linear-gradient-55)" style="mix-blend-mode:multiply"/><path d="M97.34,41.47c-2,3-4.69,3.18-6.58,5.29-1.41,1.58-.34,3.24,1.07,5a2.48,2.48,0,0,0-.39-.21A5,5,0,0,1,89,49a3,3,0,0,0,.73,2.5c-.56-.46-2.48-2.27-2.32-3.51s1.48-2.1,3-3.67a13.47,13.47,0,0,0,3-5.93,15,15,0,0,1-.28,4.15,11.18,11.18,0,0,0,2.55-4.2,7.65,7.65,0,0,1-1,4.52,10.25,10.25,0,0,0,2.76-3.56c.8-2-.17-5.44-1.93-8.16a11.17,11.17,0,0,1-.22,3.74c-.28-1.53-1.94-3.63-2.42-5,0,.82-.76,3.1-.59,4.07a16,16,0,0,1-3.11-5.77A20.35,20.35,0,0,0,91.5,31,44.17,44.17,0,0,1,90,23.5s.84,1.47,2.21,3.63c0-.87.9-6.35,1.42-8.8-.06.18.39,4.2.67,6.58,0-.25.56-2.14,1.15-4.1-.38,5,.44,9.86,1.85,11.59A8.06,8.06,0,0,1,97.34,41.47Z" fill="url(#linear-gradient-56)" style="mix-blend-mode:multiply"/><path d="M91.57,5.12a9,9,0,0,1-1,1.87,2.36,2.36,0,0,1,.91.68,17.89,17.89,0,0,1-5.22,2.27,13.26,13.26,0,0,0,.79,1.7,52,52,0,0,1-7.26,1.14,2.68,2.68,0,0,1,.91,1.58,43.35,43.35,0,0,1-7.83,0l-.38-.25a28.23,28.23,0,0,0,5.61-1.18c-.57-.56-1.36-1.25-1.36-1.25a73.6,73.6,0,0,0,7.71-.91c-.68-.67-1.36-1.47-1.36-1.47,2.6.11,5.67-1.7,5.67-1.7a3.47,3.47,0,0,0-1-1.13,5,5,0,0,0,3.37-1.84c.11-.14.22-.27.32-.41l.4.34C91.72,4.71,91.65,4.92,91.57,5.12Z" opacity="0.7" fill="url(#radial-gradient-26)" style="mix-blend-mode:screen"/><path d="M67.4,13.19a8.31,8.31,0,0,1,4.69.5A8,8,0,0,1,75.58,17a63.83,63.83,0,0,0,5.35,7.74c1.89,2.51,3.88,4.95,5.89,7.38A25.25,25.25,0,0,1,89.55,36a7.49,7.49,0,0,1,1.06,4.57,7.46,7.46,0,0,0-1.21-4.48,26,26,0,0,0-2.79-3.81q-3.09-3.59-6-7.34a60.69,60.69,0,0,1-5.3-7.82A7.82,7.82,0,0,0,72,13.85,8.12,8.12,0,0,0,67.4,13.19Z" fill="#4d352a"/><path d="M78,0a13.1,13.1,0,0,0-7.4,4.88A16.8,16.8,0,0,0,68.25,8.8a9.25,9.25,0,0,0-.85,4.39,6.71,6.71,0,0,1,0-2.28A12.16,12.16,0,0,1,68,8.69a16.15,16.15,0,0,1,2.29-4A14.79,14.79,0,0,1,73.7,1.6a11.66,11.66,0,0,1,2.06-1c.37-.11.73-.25,1.1-.33Z" fill="#4d352a"/><path d="M85.39,63.63a6.74,6.74,0,0,1,1.36-2.17A6.3,6.3,0,0,1,88.91,60c.81-.35,1.71-.41,2.41-.77a4.89,4.89,0,0,0,1.78-1.63,3.92,3.92,0,0,0,.66-2.26,2.7,2.7,0,0,0-.3-1.11,4.44,4.44,0,0,0-.7-1c-.55-.64-1.13-1.27-1.67-2A6.17,6.17,0,0,1,89.81,49a2.66,2.66,0,0,1,.1-1.45,3.43,3.43,0,0,1,.8-1.16,9.6,9.6,0,0,1,2.11-1.56,12.71,12.71,0,0,0,4-3,7.66,7.66,0,0,0,1.71-4.58,7.46,7.46,0,0,0-1.26-4.8,7.48,7.48,0,0,1,1.43,4.8A7.8,7.8,0,0,1,97,41.93,12.83,12.83,0,0,1,93,45a9.29,9.29,0,0,0-2,1.54,3.13,3.13,0,0,0-.72,1,2.34,2.34,0,0,0-.07,1.26,5.83,5.83,0,0,0,1.2,2.23c.52.68,1.08,1.32,1.63,2A3.66,3.66,0,0,1,94,55.35a4.16,4.16,0,0,1-.74,2.41,5.18,5.18,0,0,1-1.89,1.68c-.77.38-1.65.42-2.44.75a6.05,6.05,0,0,0-2.16,1.33A6.76,6.76,0,0,0,85.39,63.63Z" fill="#4d352a"/><path d="M90.61,40.56a6.57,6.57,0,0,1-1.31,3.28,13.65,13.65,0,0,1-1.16,1.36A11,11,0,0,0,87,46.47a3.35,3.35,0,0,0-.35,3.06,2.67,2.67,0,0,0,1,1.17,8.28,8.28,0,0,1,1.46,1.09,5.37,5.37,0,0,1,1.59,3.34A3.19,3.19,0,0,1,90.34,57,4.5,4.5,0,0,1,89.1,58.4a7.82,7.82,0,0,1-1.57.93,3.25,3.25,0,0,0-1.26,1.05,4.23,4.23,0,0,0-.88,3.25,4.26,4.26,0,0,1,.74-3.35c.62-1.07,1.92-1.3,2.79-2.09a4.44,4.44,0,0,0,1.15-1.33,2.85,2.85,0,0,0,.3-1.7,5,5,0,0,0-1.51-3.11A7.93,7.93,0,0,0,87.46,51a3,3,0,0,1-1.12-1.33,3.58,3.58,0,0,1,.42-3.35A10.46,10.46,0,0,1,88,45a14.54,14.54,0,0,0,1.18-1.31A6.45,6.45,0,0,0,90.61,40.56Z" fill="#4d352a"/><path d="M67.62,35.88a3.71,3.71,0,0,1,1.28-.47c.41,0,.66.15.67.41s-.46.29-.74.13A2.81,2.81,0,0,0,67.62,35.88Z" fill="url(#radial-gradient-36)"/><path d="M86.9,25a42.66,42.66,0,0,1-.11,12.3,31.21,31.21,0,0,0,3-10.89C88.83,23.89,88,24.46,86.9,25Z" fill="url(#radial-gradient-37)"/><circle cx="69.66" cy="42.43" r="3.23" fill="url(#radial-gradient-38)" style="mix-blend-mode:darken"/><path d="M66,38.55A16.77,16.77,0,0,1,67,42.24,2.22,2.22,0,0,0,68.81,44c1.11.2,3.86-1.3,4.74-2.52s1.86-3.12,2.13-3.42c-1,.1-4.12.57-4.94.67A13.65,13.65,0,0,1,66,38.55Z" fill="url(#radial-gradient-39)"/><g clip-path="url(#clip-path-3)"><path d="M68,44c-.66-.62-.25-1.87.23-2.49A2.42,2.42,0,0,1,71.16,41a2.85,2.85,0,0,1,3.27.2c-.8,2-4.82,3-5.37,3.1A1.68,1.68,0,0,1,68,44Z" fill="url(#radial-gradient-40)"/><path d="M69.53,42.57a4,4,0,0,1,.59-.94,4.93,4.93,0,0,1,.82-.76,4.3,4.3,0,0,1,1-.53A3.43,3.43,0,0,1,73,40.11c-.34.15-.66.31-1,.48a7.67,7.67,0,0,0-.9.58,10.31,10.31,0,0,0-.83.65C70.05,42.06,69.79,42.31,69.53,42.57Z" fill="#853536"/><path d="M75.93,37.67c-.12.17-.78,1.23-1.2,1.9-.08.12-.16.24-.21.33a11.88,11.88,0,0,1-6,1c-.77-.08-1.67-.57-1.76-1-.06-.22-.1-.45-.16-.74s-.09-.42-.14-.67C68.85,37,74.22,36.84,75.93,37.67Z" fill="url(#Gradient_Eye-3)"/><path d="M75.93,37.67c-.12.17-.78,1.23-1.2,1.9a1.84,1.84,0,0,0-1-.37c-.77,0-2.29.28-3.49.4a9.78,9.78,0,0,1-3.67-.37c0-.19-.09-.42-.14-.67C68.85,37,74.22,36.84,75.93,37.67Z" fill="url(#linear-gradient-57)" style="mix-blend-mode:multiply"/></g><path d="M64.79,38a2.94,2.94,0,0,1,2.69.56,4,4,0,0,1,3.12-.37A27.75,27.75,0,0,0,75.9,38a25.5,25.5,0,0,1-8.28,1.25A5,5,0,0,1,64.79,38Z" fill="url(#radial-gradient-41)"/><path d="M66,38.55A12,12,0,0,1,66.66,42c.08,1,.45,2.36,1.56,2.67a4.16,4.16,0,0,0,4.25-1.42A29.3,29.3,0,0,0,75.9,38l-.39.13c-1.59,2.24-3.31,5.41-6.77,5.15-2-.16-1.55-2.57-2.52-4.63Z" fill="url(#radial-gradient-42)"/><path d="M68.79,43.81l.42-.07.4-.06.4,0a3.05,3.05,0,0,1,.43,0,1.11,1.11,0,0,1-.38.22,1.53,1.53,0,0,1-.42.11,1.3,1.3,0,0,1-.44,0A1.05,1.05,0,0,1,68.79,43.81Z" fill="#fbdcdd"/><circle cx="75.86" cy="38.06" r="0.98" opacity="0.7" fill="url(#radial-gradient-43)" style="mix-blend-mode:darken"/><circle cx="65.16" cy="38.09" r="0.98" opacity="0.7" fill="url(#radial-gradient-44)" style="mix-blend-mode:darken"/><path d="M.48,45.81,36.18,66.7a.67.67,0,1,1-.68,1.16h0L.15,46.36a.31.31,0,0,1-.1-.44A.31.31,0,0,1,.48,45.81Z" fill="#404041"/><path d="M35.35,65.42a.09.09,0,0,1,0,.07.18.18,0,0,1-.1.06.23.23,0,0,1-.11,0,1.93,1.93,0,0,1-.48,0,3.22,3.22,0,0,1-.91-.24,1.6,1.6,0,0,1-.54-.34,1.12,1.12,0,0,1-.18-.2l0,0a4.66,4.66,0,0,1-.53-.78c-.42-.08-1.33-.25-1.76-.36a0,0,0,0,1,0,0A4.85,4.85,0,0,1,30.35,65c-.18.43-.33.88-.47,1.33a2.29,2.29,0,0,1-1,1.45,2,2,0,0,1-.74.14c-.63,0-1.26-.12-1.59.08-.84,0-1.3-.68-2.25-.85s-.7-.84-1.23-1.1-1-.45-1-1.08c.14-.85.81-3.31,1-4.47a1.16,1.16,0,0,1,0-.18c.2-1,.47-1.68,1-2h0a2,2,0,0,1,.68-.22,3.22,3.22,0,0,1,1.44.19l.27.08c.72.23,1.81.53,2.52.72l.55.15a2.24,2.24,0,0,1,1.38.81h0a1,1,0,0,1,.06.16h0c1.26.36,1.65.74,1.75,1.28a.42.42,0,0,1,0,.12,3.37,3.37,0,0,1,.32.14,1.55,1.55,0,0,1,1,1.09c0,.07.06.15.1.25a11.59,11.59,0,0,0,1.12,2.17A.26.26,0,0,1,35.35,65.42Z" fill="url(#linear-gradient-58)"/><path d="M35.35,65.42a.09.09,0,0,1,0,.07.18.18,0,0,1-.1.06.23.23,0,0,1-.11,0,1.93,1.93,0,0,1-.48,0,3.22,3.22,0,0,1-.91-.24,1.6,1.6,0,0,1-.54-.34,1.12,1.12,0,0,1-.18-.2l0,0a4.66,4.66,0,0,1-.53-.78c-.42-.08-1.33-.25-1.76-.36a0,0,0,0,1,0,0,1.49,1.49,0,0,1-.26-.4,1.64,1.64,0,0,0-1.47-2.31c-.56-.65-.76-1.37-1.85-1.21a1.89,1.89,0,0,0-2-1,1.76,1.76,0,0,0-1-.45h0a2,2,0,0,1,.68-.22,3.22,3.22,0,0,1,1.44.19l.27.08c.72.23,1.81.53,2.52.72l.55.15a2.24,2.24,0,0,1,1.38.81h0a1,1,0,0,1,.06.16h0c1.26.36,1.65.74,1.75,1.28a.42.42,0,0,1,0,.12,3.37,3.37,0,0,1,.32.14,1.55,1.55,0,0,1,1,1.09c0,.07.06.15.1.25a11.59,11.59,0,0,0,1.12,2.17A.26.26,0,0,1,35.35,65.42Z" fill="url(#linear-gradient-59)" style="mix-blend-mode:darken"/><path d="M35.35,65.42a.09.09,0,0,1,0,.07.18.18,0,0,1-.1.06.23.23,0,0,1-.11,0,1.93,1.93,0,0,1-.48,0,3.22,3.22,0,0,1-.91-.24,1.6,1.6,0,0,1-.54-.34,1.12,1.12,0,0,1-.18-.2l0,0a4.66,4.66,0,0,1-.53-.78c-.42-.08-1.33-.25-1.76-.36A5.48,5.48,0,0,1,30.35,65c-.18.43-.33.88-.47,1.33a2.29,2.29,0,0,1-1,1.45,2,2,0,0,1-.74.14,9.29,9.29,0,0,0,.31-1.06c.14-.76,1.08-3.84,1.34-4.55s1.53-.18,3.27.17a3.49,3.49,0,0,1,1,.38c0,.07.06.15.1.25a11.59,11.59,0,0,0,1.12,2.17A.26.26,0,0,1,35.35,65.42Z" fill="url(#linear-gradient-60)" style="mix-blend-mode:darken"/><path d="M23.08,60.31a6.64,6.64,0,0,1,.3-1.08,1.77,1.77,0,0,1,.67-.88,2.53,2.53,0,0,1,2.17-.07c-.4,0-.77,0-1.11.07a1.88,1.88,0,0,0-.87.3,1.69,1.69,0,0,0-.6.68C23.46,59.63,23.31,60,23.08,60.31Z" fill="#b8784d"/><path d="M33.12,61.76c-.54-.06-1.08-.14-1.61-.23l-1.18-.22a2.45,2.45,0,0,0-1.06-.1c-.19,0-.34.51-.51.85s-.31.73-.47,1.1c-.31.73-.59,1.5-.86,2.26A21.38,21.38,0,0,1,28,63.05c.12-.39.24-.78.38-1.16l.23-.56a1,1,0,0,1,.51-.58,2.62,2.62,0,0,1,1.32.12l1.17.3c.4.1.8.21,1.19.33a.42.42,0,0,1,0,.12A3.37,3.37,0,0,1,33.12,61.76Z" fill="#b8784d"/><path d="M29,59.08c-.35,0-.7-.08-1.05-.13s-.95-.15-1.41-.19a1.44,1.44,0,0,0-1.17.31,3.15,3.15,0,0,0-.51,1.2c-.14.46-.29.92-.43,1.38-.3.91-.6,1.83-.93,2.72.19-.94.42-1.87.65-2.8l.35-1.39a3.21,3.21,0,0,1,.56-1.41,1.74,1.74,0,0,1,1.42-.41C27.21,58.59,28.3,58.89,29,59.08Z" fill="#b8784d"/><path d="M31,60.21c-.55-.05-1.12-.12-1.68-.2s-.93-.14-1.35-.2a.92.92,0,0,0-1,.4,7.64,7.64,0,0,0-.41,1.25c-.12.44-.25.88-.39,1.33s-.26.88-.42,1.31A2.65,2.65,0,0,1,25,65.26a5.72,5.72,0,0,0,.89-2.56c.1-.44.21-.89.32-1.33A6.65,6.65,0,0,1,26.63,60a1.11,1.11,0,0,1,.62-.52,1.53,1.53,0,0,1,.76,0l1.37.27,1.56.33h0A1,1,0,0,1,31,60.21Z" fill="#b8784d"/><path d="M35.29,65.27c0,.07.09.15,0,.22a.33.33,0,0,1-.21.09,1.93,1.93,0,0,1-.48,0,3.6,3.6,0,0,1-.91-.24,1.63,1.63,0,0,1-.75-.57,4.12,4.12,0,0,1-.53-.78h0l-1.76-.36h0A5.81,5.81,0,0,1,30.36,65a12.39,12.39,0,0,0-.48,1.33,7.19,7.19,0,0,1,.28-1.41,8.38,8.38,0,0,0,.21-1.33l0-.33.35.06c.58.11,1.17.18,1.74.32l.19,0,.07.15a3.35,3.35,0,0,0,.46.72,2.29,2.29,0,0,0,.27.31,1.74,1.74,0,0,0,.33.23,3.76,3.76,0,0,0,.83.32,1.81,1.81,0,0,0,.44.09C35.23,65.51,35.38,65.46,35.29,65.27Z" fill="#b8784d"/></g></g></g></svg>