<svg xmlns="http://www.w3.org/2000/svg" xmlns:xlink="http://www.w3.org/1999/xlink" viewBox="0 0 424.89 438.02"><defs><radialGradient id="radial-gradient" cx="221.2" cy="338.66" r="67.98" gradientUnits="userSpaceOnUse"><stop offset="0" stop-color="#4f455c"/><stop offset="1" stop-color="#3e3547"/></radialGradient><radialGradient id="radial-gradient-2" cx="235.05" cy="455.67" r="90.25" gradientUnits="userSpaceOnUse"><stop offset="0" stop-color="#4f455c"/><stop offset="1" stop-color="#4f455c" stop-opacity="0"/></radialGradient><linearGradient id="linear-gradient" x1="237.54" y1="293.85" x2="290.53" y2="293.85" gradientUnits="userSpaceOnUse"><stop offset="0" stop-color="#a6a5b1"/><stop offset="1" stop-color="#a6a5b1" stop-opacity="0"/></linearGradient><linearGradient id="linear-gradient-2" x1="258.75" y1="374.61" x2="307.32" y2="451.76" xlink:href="#linear-gradient"/><radialGradient id="radial-gradient-3" cx="207.68" cy="333.79" r="60.11" xlink:href="#radial-gradient"/><radialGradient id="radial-gradient-4" cx="192.28" cy="444.13" r="78.46" xlink:href="#radial-gradient-2"/><radialGradient id="radial-gradient-5" cx="198.93" cy="426.5" r="6.67" gradientUnits="userSpaceOnUse"><stop offset="0" stop-color="#3b3445"/><stop offset="1" stop-color="#2d2835"/></radialGradient><linearGradient id="linear-gradient-3" x1="204.41" y1="332.81" x2="105.3" y2="409.55" xlink:href="#linear-gradient"/><radialGradient id="radial-gradient-6" cx="70.45" cy="284.77" r="61.25" xlink:href="#radial-gradient"/><linearGradient id="linear-gradient-4" x1="47.77" y1="294.55" x2="66.46" y2="294.55" xlink:href="#linear-gradient"/><linearGradient id="linear-gradient-5" x1="67.73" y1="305.66" x2="81.79" y2="305.66" xlink:href="#linear-gradient"/><linearGradient id="linear-gradient-6" x1="79.16" y1="308.36" x2="93.54" y2="308.36" xlink:href="#linear-gradient"/><linearGradient id="linear-gradient-7" x1="93.22" y1="305.76" x2="116.67" y2="305.76" xlink:href="#linear-gradient"/><linearGradient id="linear-gradient-8" x1="122.46" y1="327.21" x2="129.55" y2="261.15" xlink:href="#linear-gradient"/><linearGradient id="linear-gradient-9" x1="105.37" y1="294.11" x2="54.91" y2="387.1" xlink:href="#linear-gradient"/><radialGradient id="radial-gradient-7" cx="213.83" cy="66.84" r="106.08" gradientUnits="userSpaceOnUse"><stop offset="0" stop-color="#845b48"/><stop offset="1" stop-color="#664638"/></radialGradient><radialGradient id="radial-gradient-8" cx="205.73" cy="200.96" r="201.86" gradientUnits="userSpaceOnUse"><stop offset="0.37" stop-color="#a6a5b1"/><stop offset="1" stop-color="#a6a5b1" stop-opacity="0"/></radialGradient><radialGradient id="radial-gradient-9" cx="209.08" cy="334.7" r="53.05" gradientUnits="userSpaceOnUse"><stop offset="0" stop-color="#f9dce4"/><stop offset="1" stop-color="#eab6c4"/></radialGradient><linearGradient id="linear-gradient-10" x1="169.67" y1="272.16" x2="255.58" y2="417.03" gradientUnits="userSpaceOnUse"><stop offset="0" stop-color="#b2a5ad"/><stop offset="1" stop-color="#b2a5ad" stop-opacity="0"/></linearGradient><radialGradient id="radial-gradient-10" cx="233.65" cy="345.17" r="60.54" xlink:href="#radial-gradient"/><radialGradient id="radial-gradient-11" cx="187.49" cy="344.03" r="61.73" xlink:href="#radial-gradient"/><linearGradient id="linear-gradient-11" x1="189.59" y1="307.4" x2="181.27" y2="249.75" xlink:href="#linear-gradient"/><radialGradient id="radial-gradient-12" cx="285.54" cy="312.1" r="58.57" xlink:href="#radial-gradient-7"/><linearGradient id="linear-gradient-12" x1="261.86" y1="204.28" x2="281.99" y2="289.33" xlink:href="#linear-gradient"/><linearGradient id="linear-gradient-13" x1="286.19" y1="287.7" x2="300.07" y2="217.44" xlink:href="#radial-gradient-7"/><linearGradient id="linear-gradient-14" x1="240.72" y1="196.4" x2="352.99" y2="185.62" xlink:href="#linear-gradient"/><linearGradient id="linear-gradient-15" x1="134.76" y1="292.73" x2="134.73" y2="292.48" xlink:href="#radial-gradient-7"/><linearGradient id="linear-gradient-16" x1="109.93" y1="313.49" x2="113.05" y2="234.1" xlink:href="#radial-gradient-7"/><linearGradient id="linear-gradient-17" x1="134.57" y1="292.54" x2="134.89" y2="292.54" xlink:href="#linear-gradient"/><linearGradient id="linear-gradient-18" x1="175" y1="194.21" x2="37.21" y2="256.01" xlink:href="#linear-gradient"/><linearGradient id="linear-gradient-19" x1="158.29" y1="329.11" x2="158.29" y2="328.98" xlink:href="#radial-gradient-7"/><linearGradient id="linear-gradient-20" x1="159.33" y1="320.31" x2="161.88" y2="261.49" xlink:href="#radial-gradient-7"/><linearGradient id="linear-gradient-21" x1="151.99" y1="211.04" x2="174.67" y2="329.83" xlink:href="#linear-gradient"/><linearGradient id="linear-gradient-22" x1="174.75" y1="331.41" x2="165.19" y2="287.89" xlink:href="#radial-gradient-7"/><linearGradient id="linear-gradient-23" x1="157.81" y1="189.5" x2="149.88" y2="298.94" xlink:href="#linear-gradient"/><linearGradient id="linear-gradient-24" x1="236.67" y1="317.26" x2="257.08" y2="259.42" xlink:href="#radial-gradient-7"/><linearGradient id="linear-gradient-25" x1="277.1" y1="202.8" x2="245.63" y2="293.52" xlink:href="#linear-gradient"/><linearGradient id="linear-gradient-26" x1="258.07" y1="323.29" x2="252.11" y2="269.71" xlink:href="#radial-gradient-7"/><linearGradient id="linear-gradient-27" x1="246.18" y1="258.08" x2="310.44" y2="273.39" xlink:href="#linear-gradient"/><linearGradient id="linear-gradient-28" x1="211.41" y1="248.46" x2="209.33" y2="296.46" gradientUnits="userSpaceOnUse"><stop offset="0" stop-color="#fcc384"/><stop offset="1" stop-color="#fddfa9"/></linearGradient><linearGradient id="linear-gradient-29" x1="206.11" y1="246.05" x2="204.22" y2="303.89" gradientUnits="userSpaceOnUse"><stop offset="0" stop-color="#e09768"/><stop offset="1" stop-color="#e19768" stop-opacity="0"/></linearGradient><linearGradient id="linear-gradient-30" x1="129.74" y1="158.66" x2="111.22" y2="175.86" xlink:href="#linear-gradient-28"/><linearGradient id="linear-gradient-31" x1="131.5" y1="172.09" x2="141.14" y2="186.83" xlink:href="#linear-gradient-29"/><linearGradient id="linear-gradient-32" x1="130.71" y1="156.27" x2="109.58" y2="174.84" xlink:href="#linear-gradient-29"/><radialGradient id="radial-gradient-13" cx="146" cy="182.63" r="14.74" xlink:href="#radial-gradient-7"/><linearGradient id="linear-gradient-33" x1="395.55" y1="158.66" x2="377.03" y2="175.86" gradientTransform="matrix(-1, 0, 0, 1, 682.56, 0)" xlink:href="#linear-gradient-28"/><linearGradient id="linear-gradient-34" x1="289.54" y1="174.65" x2="284.44" y2="192.51" xlink:href="#linear-gradient-29"/><linearGradient id="linear-gradient-35" x1="396.51" y1="156.27" x2="375.39" y2="174.84" gradientTransform="matrix(-1, 0, 0, 1, 682.56, 0)" xlink:href="#linear-gradient-29"/><radialGradient id="radial-gradient-14" cx="293.05" cy="192.65" r="15.13" xlink:href="#radial-gradient-7"/><radialGradient id="radial-gradient-15" cx="209.97" cy="155.76" r="99.32" gradientUnits="userSpaceOnUse"><stop offset="0.66" stop-color="#fddfa9"/><stop offset="1" stop-color="#fcc384"/></radialGradient><radialGradient id="Rona_Pipi" cx="145.44" cy="189.31" r="27.79" gradientUnits="userSpaceOnUse"><stop offset="0" stop-color="#dd6162"/><stop offset="1" stop-color="#df6263" stop-opacity="0"/></radialGradient><radialGradient id="Rona_Pipi-2" cx="275.69" cy="189.71" r="28.23" xlink:href="#Rona_Pipi"/><radialGradient id="radial-gradient-16" cx="203.27" cy="185.04" r="18.66" xlink:href="#linear-gradient-29"/><radialGradient id="radial-gradient-17" cx="186.7" cy="136.73" r="27.06" xlink:href="#linear-gradient-29"/><radialGradient id="radial-gradient-18" cx="232.86" cy="134.33" r="27" xlink:href="#linear-gradient-29"/><radialGradient id="radial-gradient-19" cx="159.82" cy="142.13" r="22.81" gradientUnits="userSpaceOnUse"><stop offset="0" stop-color="#2c2e2d"/><stop offset="1" stop-color="#363838"/></radialGradient><radialGradient id="Gradient_Eye" cx="168.4" cy="144.56" r="26.61" gradientUnits="userSpaceOnUse"><stop offset="0.52" stop-color="#fff"/><stop offset="1" stop-color="#a6a5b1"/></radialGradient><clipPath id="clip-path"><path d="M142.22,142c3.22,10,12.48,11.39,22.49,12.52s20.79.9,24.2-1.18c-2.93-8.45-8.56-17.76-21.36-19.65C156,132,146.43,137.08,142.22,142Z" fill="none"/></clipPath><radialGradient id="radial-gradient-20" cx="167.14" cy="146.7" r="11.94" gradientUnits="userSpaceOnUse"><stop offset="0.74" stop-color="#e2a580"/><stop offset="0.83" stop-color="#a3765c"/><stop offset="0.95" stop-color="#624738"/></radialGradient><linearGradient id="linear-gradient-36" x1="165.56" y1="125.93" x2="165.56" y2="154.47" xlink:href="#linear-gradient"/><linearGradient id="linear-gradient-37" x1="168.63" y1="158.26" x2="168.71" y2="158.26" xlink:href="#linear-gradient"/><radialGradient id="radial-gradient-21" cx="256.93" cy="142.6" r="22.96" xlink:href="#radial-gradient-19"/><radialGradient id="Gradient_Eye-2" cx="434.21" cy="144.77" r="26.72" gradientTransform="matrix(-1, 0, 0, 1, 682.56, 0)" xlink:href="#Gradient_Eye"/><linearGradient id="linear-gradient-38" x1="431.37" y1="125.93" x2="431.37" y2="154.47" gradientTransform="matrix(-1, 0, 0, 1, 682.56, 0)" xlink:href="#linear-gradient"/><clipPath id="clip-path-2"><path d="M274.53,142c-3.22,10-12.9,12-22.92,13.09s-20.37.33-23.77-1.75c2.93-8.45,8.56-17.76,21.36-19.65C260.73,132,270.32,137.08,274.53,142Z" fill="none"/></clipPath><radialGradient id="radial-gradient-22" cx="249.71" cy="146.86" r="11.94" xlink:href="#radial-gradient-20"/><linearGradient id="linear-gradient-40" x1="210.35" y1="203.82" x2="210.35" y2="187.7" xlink:href="#linear-gradient-28"/><radialGradient id="radial-gradient-23" cx="234.03" cy="132.39" r="32.05" xlink:href="#linear-gradient-29"/><linearGradient id="linear-gradient-41" x1="165.54" y1="185.13" x2="211.09" y2="135.23" xlink:href="#linear-gradient-29"/><radialGradient id="radial-gradient-24" cx="187.82" cy="136.67" r="30.42" xlink:href="#linear-gradient-29"/><linearGradient id="linear-gradient-42" x1="209.21" y1="179.67" x2="206.94" y2="225.79" xlink:href="#linear-gradient-29"/><radialGradient id="radial-gradient-25" cx="199.14" cy="187.79" r="2.67" xlink:href="#radial-gradient-19"/><radialGradient id="radial-gradient-26" cx="219.03" cy="187.65" r="2.67" xlink:href="#radial-gradient-19"/><radialGradient id="radial-gradient-27" cx="178.77" cy="77.39" r="21.07" gradientTransform="translate(-24.3 83.94) rotate(-19.11)" xlink:href="#radial-gradient-7"/><radialGradient id="radial-gradient-28" cx="252.51" cy="99.62" r="23.25" gradientTransform="translate(47.89 -74.03) rotate(18.07)" xlink:href="#radial-gradient-7"/><linearGradient id="linear-gradient-43" x1="209.08" y1="50.94" x2="205.4" y2="316.02" xlink:href="#linear-gradient-29"/><radialGradient id="radial-gradient-29" cx="206.28" cy="53.32" r="91.13" xlink:href="#radial-gradient-7"/><linearGradient id="linear-gradient-44" x1="215.19" y1="118.83" x2="-57.54" y2="269" xlink:href="#linear-gradient"/><radialGradient id="radial-gradient-30" cx="214.62" cy="60.91" r="83.54" xlink:href="#radial-gradient-7"/><radialGradient id="radial-gradient-31" cx="210.64" cy="-9.21" r="116.24" gradientUnits="userSpaceOnUse"><stop offset="0" stop-color="#fff"/><stop offset="1" stop-color="#fff" stop-opacity="0"/></radialGradient><linearGradient id="linear-gradient-45" x1="329.17" y1="141.19" x2="164.73" y2="224.73" xlink:href="#linear-gradient"/><radialGradient id="radial-gradient-33" cx="209.99" cy="233.05" r="18.66" xlink:href="#linear-gradient-29"/><radialGradient id="radial-gradient-34" cx="209.3" cy="220.01" r="28.48" gradientUnits="userSpaceOnUse"><stop offset="0" stop-color="#674738"/><stop offset="1" stop-color="#473127"/></radialGradient><clipPath id="clip-path-3"><path d="M246,193.6c-10.44,14.6-15.84,32.78-36.11,32.78s-23-13.41-37.29-32.15c7.94,2.45,18.43,5.32,24.37,5.45s9.65,1,11.78,2.13c4.68-2.54,8.09-2.13,13.62-2.26,5.31-.14,18.55-4.28,23.22-5.82A1,1,0,0,1,246,193.6Z" fill="none"/></clipPath><radialGradient id="radial-gradient-35" cx="209.89" cy="228.61" r="15.12" gradientUnits="userSpaceOnUse"><stop offset="0.45" stop-color="#cd6a6b"/><stop offset="1" stop-color="#b15556"/></radialGradient><radialGradient id="Gradient_Eye-3" cx="209.65" cy="208.15" r="21.26" xlink:href="#Gradient_Eye"/><linearGradient id="linear-gradient-46" x1="208.64" y1="183.49" x2="209.68" y2="210.61" xlink:href="#linear-gradient"/><radialGradient id="Gradient_Eye-4" cx="210.48" cy="214.51" r="30.35" xlink:href="#Gradient_Eye"/><radialGradient id="radial-gradient-36" cx="206.11" cy="161.39" r="40.31" gradientUnits="userSpaceOnUse"><stop offset="0.92" stop-color="#f38081"/><stop offset="1" stop-color="#de6b6b"/></radialGradient><radialGradient id="radial-gradient-37" cx="209.87" cy="197.59" r="31.4" gradientUnits="userSpaceOnUse"><stop offset="0.88" stop-color="#f38081"/><stop offset="1" stop-color="#de6b6b"/></radialGradient><radialGradient id="radial-gradient-38" cx="245.72" cy="194.35" r="4.91" xlink:href="#linear-gradient-29"/><radialGradient id="radial-gradient-39" cx="172.14" cy="194.76" r="4.91" xlink:href="#linear-gradient-29"/><linearGradient id="linear-gradient-47" x1="33.5" y1="266.44" x2="38.28" y2="215.53" xlink:href="#linear-gradient-28"/><linearGradient id="linear-gradient-48" x1="9.11" y1="207.08" x2="39.34" y2="259.05" xlink:href="#linear-gradient-29"/><linearGradient id="linear-gradient-49" x1="-5.65" y1="323.69" x2="35.46" y2="280.6" xlink:href="#linear-gradient-28"/><linearGradient id="linear-gradient-50" x1="0" y1="287" x2="11.66" y2="287" xlink:href="#linear-gradient-29"/><linearGradient id="linear-gradient-51" x1="4.35" y1="266.5" x2="13.93" y2="266.5" xlink:href="#linear-gradient-29"/><linearGradient id="linear-gradient-52" x1="13.8" y1="275.04" x2="32.13" y2="340.06" xlink:href="#linear-gradient-29"/><linearGradient id="linear-gradient-53" x1="31.36" y1="252.76" x2="44.97" y2="295.85" xlink:href="#linear-gradient-29"/><linearGradient id="linear-gradient-54" x1="34.25" y1="278.44" x2="45.78" y2="305.65" xlink:href="#linear-gradient-29"/><linearGradient id="linear-gradient-55" x1="31.47" y1="291.62" x2="43.37" y2="326.21" xlink:href="#linear-gradient-29"/><radialGradient id="radial-gradient-40" cx="1112.46" cy="285.99" r="61.25" gradientTransform="matrix(-1, 0, 0, 1, 1466.89, 0)" xlink:href="#radial-gradient"/><linearGradient id="linear-gradient-56" x1="1089.77" y1="295.78" x2="1108.46" y2="295.78" gradientTransform="matrix(-1, 0, 0, 1, 1466.89, 0)" xlink:href="#linear-gradient"/><linearGradient id="linear-gradient-57" x1="1109.73" y1="306.89" x2="1123.79" y2="306.89" gradientTransform="matrix(-1, 0, 0, 1, 1466.89, 0)" xlink:href="#linear-gradient"/><linearGradient id="linear-gradient-58" x1="1121.16" y1="309.59" x2="1135.54" y2="309.59" gradientTransform="matrix(-1, 0, 0, 1, 1466.89, 0)" xlink:href="#linear-gradient"/><linearGradient id="linear-gradient-59" x1="1135.22" y1="306.98" x2="1158.68" y2="306.98" gradientTransform="matrix(-1, 0, 0, 1, 1466.89, 0)" xlink:href="#linear-gradient"/><linearGradient id="linear-gradient-60" x1="1164.47" y1="328.43" x2="1171.56" y2="262.37" gradientTransform="matrix(-1, 0, 0, 1, 1466.89, 0)" xlink:href="#linear-gradient"/><linearGradient id="linear-gradient-61" x1="1147.38" y1="295.34" x2="1096.91" y2="388.33" gradientTransform="matrix(-1, 0, 0, 1, 1466.89, 0)" xlink:href="#linear-gradient"/><linearGradient id="linear-gradient-62" x1="1075.51" y1="267.67" x2="1080.28" y2="216.75" gradientTransform="matrix(-1, 0, 0, 1, 1466.89, 0)" xlink:href="#linear-gradient-28"/><linearGradient id="linear-gradient-63" x1="1051.12" y1="208.31" x2="1081.34" y2="260.27" gradientTransform="matrix(-1, 0, 0, 1, 1466.89, 0)" xlink:href="#linear-gradient-29"/><linearGradient id="linear-gradient-64" x1="1036.36" y1="324.92" x2="1077.46" y2="281.83" gradientTransform="matrix(-1, 0, 0, 1, 1466.89, 0)" xlink:href="#linear-gradient-28"/><linearGradient id="linear-gradient-65" x1="1042" y1="288.22" x2="1053.66" y2="288.22" gradientTransform="matrix(-1, 0, 0, 1, 1466.89, 0)" xlink:href="#linear-gradient-29"/><linearGradient id="linear-gradient-66" x1="1046.36" y1="267.72" x2="1055.93" y2="267.72" gradientTransform="matrix(-1, 0, 0, 1, 1466.89, 0)" xlink:href="#linear-gradient-29"/><linearGradient id="linear-gradient-67" x1="1055.8" y1="276.27" x2="1074.14" y2="341.29" gradientTransform="matrix(-1, 0, 0, 1, 1466.89, 0)" xlink:href="#linear-gradient-29"/><linearGradient id="linear-gradient-68" x1="1073.36" y1="253.99" x2="1086.97" y2="297.08" gradientTransform="matrix(-1, 0, 0, 1, 1466.89, 0)" xlink:href="#linear-gradient-29"/><linearGradient id="linear-gradient-69" x1="1076.25" y1="279.66" x2="1087.78" y2="306.88" gradientTransform="matrix(-1, 0, 0, 1, 1466.89, 0)" xlink:href="#linear-gradient-29"/><linearGradient id="linear-gradient-70" x1="1073.47" y1="292.84" x2="1085.38" y2="327.43" gradientTransform="matrix(-1, 0, 0, 1, 1466.89, 0)" xlink:href="#linear-gradient-29"/></defs><g style="isolation:isolate"><g id="Layer_2" data-name="Layer 2"><g id="Layer_2-2" data-name="Layer 2"><path d="M414.13,236.59A201.5,201.5,0,0,1,270.07,429.73c-1.06.32-2.11.62-3.16.91l-.92.25c-1.92.54-3.85,1-5.8,1.49A201.38,201.38,0,0,1,212.7,438c-1.08,0-2.14,0-3.21,0h-.91a202.52,202.52,0,0,1-34.91-3.74,198.24,198.24,0,0,1-24.32-6.39A201.51,201.51,0,0,1,11.25,236.59c0-111.26,90.19-201.45,201.45-201.45S414.13,125.33,414.13,236.59Z" fill="#a574b1"/><path d="M288.62,378.36c-4.84,18.53-13.53,40.48-18.55,51.37-1.06.32-2.11.62-3.16.91l-.92.25c-1.92.54-3.85,1-5.8,1.49A201.38,201.38,0,0,1,212.7,438c-1.08,0-2.14,0-3.21,0h-.91a84.7,84.7,0,0,1,1.2-10.59c-.52-4.88-.57-17.31-.39-33.08.56-45.69,3.25-119.47,3.25-119.47,5.4-.18,16.92,2.67,24.9,4.86,2.86.81,5.27,1.49,6.76,1.95,5.76,1.72,35.56,12.88,42.64,15.7,1.5,2.44,2.67,6.12,3.58,10.65.14.63.23,1.32.37,2C294.24,329.6,292.8,362.17,288.62,378.36Z" fill="url(#radial-gradient)"/><path d="M288.62,378.36c-4.84,18.53-13.53,40.48-18.55,51.37-1.06.32-2.11.62-3.16.91l-.92.25c-1.92.54-3.85,1-5.8,1.49A201.38,201.38,0,0,1,212.7,438c-1.08,0-2.14,0-3.21,0h-.91a84.7,84.7,0,0,1,1.2-10.59c-.52-4.88-.57-17.31-.39-33.08.56-45.69,3.25-119.47,3.25-119.47,5.4-.18,16.92,2.67,24.9,4.86,2.86.81,5.27,1.49,6.76,1.95,5.76,1.72,35.56,12.88,42.64,15.7,1.5,2.44,2.67,6.12,3.58,10.65.14.63.23,1.32.37,2C294.24,329.6,292.8,362.17,288.62,378.36Z" fill="url(#radial-gradient-2)"/><path d="M242.12,294.44c-1.08-.36-3.17-8.71-4.58-14.74,2.86.81,5.26,1.49,6.76,1.95,5.76,1.72,35.57,12.88,42.64,15.69,1.5,2.45,2.68,6.13,3.59,10.66C261.36,299.52,243.8,295,242.12,294.44Z" fill="url(#linear-gradient)" style="mix-blend-mode:multiply"/><path d="M288.62,378.36c-4.84,18.53-13.53,40.48-18.55,51.37-1.06.32-2.11.62-3.16.91l-.92.25c-1.92.54-3.85,1-5.8,1.49,4.25-3.4,7.86-6.67,9.7-8.39-11-1.13-10.76-5.08-4.82-10.79a35.68,35.68,0,0,0,9.08-13.62c-10.2,8.26-23.82,22.41-61.24,17.88-9.66-22.09,3.94-35.15,3.94-35.15,14.21-1.68,25.81,4.85,36.3,5.12,8.79.23,20.25-5.09,25-13.62a17.27,17.27,0,0,0,2-5.39c-.15-4.66-.09-8.95.16-12.9h0c1.65-26.57,11.06-38,10.55-45.51C294.24,329.6,292.8,362.17,288.62,378.36Z" fill="url(#linear-gradient-2)" style="mix-blend-mode:multiply"/><path d="M144.87,414.37c-5.67-18.14-25.22-99.52-13.89-115.66,5.09-1.74,42-17.06,50.45-20.73s16.74-3.14,28.94-3.14v.73c-.1,7.69-1,74.2-1,118.74,0,14.07.14,25.94.39,33.08,0,.06,0,.11,0,.18-.17,3.15-.27,6.66-.3,10.42h-.89a202.52,202.52,0,0,1-34.91-3.74,198.24,198.24,0,0,1-24.32-6.39C147.84,423.44,146.3,418.92,144.87,414.37Z" fill="url(#radial-gradient-3)"/><path d="M144.87,414.37c-5.67-18.14-25.22-99.52-13.89-115.66,5.09-1.74,42-17.06,50.45-20.73s16.74-3.14,28.94-3.14v.73c-.1,7.69-1,74.2-1,118.74,0,14.07.14,25.94.39,33.08,0,.06,0,.11,0,.18-.17,3.15-.27,6.66-.3,10.42h-.89a202.52,202.52,0,0,1-34.91-3.74,198.24,198.24,0,0,1-24.32-6.39C147.84,423.44,146.3,418.92,144.87,414.37Z" fill="url(#radial-gradient-4)"/><circle cx="200.58" cy="429.95" r="4.54" fill="url(#radial-gradient-5)"/><path d="M129.58,319.11c-.86,8.49,9.07,11.89,11.62,19s2,14.74,2.53,21.27,2.82,15.29,12.21,21.82,23.31,7.26,41,2.5c19.38,12.56,8.9,28.72,8.9,28.72-15.88,1.67-26.09.53-36.3-3.14,2.19,6.32,22.15,18.17,26.51,20.48l.4.21c-.12,0-.25.1-.4.14-5.5,1.85-21.5,1.83-24.56,1a17.75,17.75,0,0,1,2.18,3.17,198.24,198.24,0,0,1-24.32-6.39c-1.51-4.41-3-8.93-4.48-13.48-5.67-18.14-25.22-99.52-13.89-115.66,5.09-1.74,42-17.06,50.45-20.73s16.74-3.14,28.94-3.14v.73c-13.11,10.16-37.15,26.49-37.15,26.49-9.08,4-28.08,8.25-32,8.8S132.66,314.26,129.58,319.11Z" fill="url(#linear-gradient-3)" style="mix-blend-mode:multiply"/><path d="M139.56,338.32c1.49,3.33,1.35,7.14,1.11,10.69a84.77,84.77,0,0,0-.09,10.69c.43,7.07,1.82,14.15,5,20.42a31.46,31.46,0,0,0,14.52,14.57,40,40,0,0,0,20.66,4.11A37,37,0,0,1,159.43,396a33.15,33.15,0,0,1-9.15-6.11A32.33,32.33,0,0,1,143.8,381a50.1,50.1,0,0,1-4.66-21.24,71,71,0,0,1,.68-10.82C140.28,345.4,140.72,341.77,139.56,338.32Z" fill="#2d2836"/><path d="M279.6,337.52c-.11,6.66-.21,13.23,1,19.76,1.49,6.52.62,13.61-1.5,20a39.54,39.54,0,0,1-4.46,9.12,23.92,23.92,0,0,1-7.31,7.1c-5.91,3.56-12.71,4.51-19.25,5.26,6.42-1.52,13.06-2.91,18.45-6.51s8.67-9.51,10.75-15.59a38.43,38.43,0,0,0,1.91-19.2C278.29,350.84,278.81,344.07,279.6,337.52Z" fill="#2d2836"/><path d="M147.36,396.79l6.48,6.57c2.14,2.18,4.33,4.29,6.64,6.23a49.53,49.53,0,0,0,7.29,5.33,36.81,36.81,0,0,0,8.31,3.72,25.62,25.62,0,0,1-9-2.48,36.89,36.89,0,0,1-7.85-5.14,54,54,0,0,1-6.45-6.74A90.53,90.53,0,0,1,147.36,396.79Z" fill="#2d2836"/><path d="M276.69,403.81c-1.19,1.85-2.48,3.63-3.81,5.35s-2.71,3.42-4.12,5.08c-.71.81-1.43,1.61-2.18,2.44s-1.5,1.62-1.19,1.91a6.4,6.4,0,0,0,2.48,1.41,10,10,0,0,0,3.16.55,8,8,0,0,1-3.34.23,6,6,0,0,1-3.33-1.42,2,2,0,0,1,0-2.29,12.07,12.07,0,0,1,1.05-1.38l2.1-2.52q2.16-2.46,4.44-4.82C273.47,406.78,275,405.26,276.69,403.81Z" fill="#2d2836"/><path d="M257.75,409.67a57.69,57.69,0,0,1-7.05,2.9,74.72,74.72,0,0,1-7.34,2.07q-3.74.81-7.53,1.25a58.62,58.62,0,0,1-7.61.4l7.41-1.61,7.37-1.63,7.36-1.67Z" fill="#2d2836"/><path d="M268.68,428.21q-.87,1.23-1.77,2.43l-.92.25Z" fill="#2d2836"/><path d="M209.47,438h-.73c.28-3.48.63-7,1-10.41,0-.06,0-.12,0-.18-.16,3.53-.25,7.07-.3,10.6Z" fill="#2d2835"/><path d="M139.81,335.13c-.55,8.71-1.91,16.87-4.45,22.82-23.81-5.13-28.35-5.4-38.24-6.54s-7.39,1.14-14.79.55-9.07,4-15.56,1.18-29.26-7.9-42.55-22.68C28,315.8,37.83,299.11,43.55,290.27c2.49-3.95,4.22-6.36,4.22-6.36,5.58,3.36,9.34,5.68,12.2,7.35a29,29,0,0,0,6.21,2.91,7.38,7.38,0,0,0,1.55.22c2.08,0,3.22-1.31,5.12-.4A7.65,7.65,0,0,1,75,295.57c2.09,2.09,3.27,2.86,4.18,3.09a3.19,3.19,0,0,0,2-.23,28.85,28.85,0,0,1,2.72-1.18,4.27,4.27,0,0,1,4.49.68,4.81,4.81,0,0,0,4.9,1.41l1.63-.55c1.05-.31,2-1.36,3.4-2.13a7.53,7.53,0,0,1,6.22-.81c3.4.9,4.53,1.08,6,.86.86-.14,1.91-.46,3.59-.86,4.53-1.14,3.58-2.32,7.39-.59s16.47.86,16.47.86c.63,4.13,1.18,9.07,1.54,14.42A186,186,0,0,1,139.81,335.13Z" fill="url(#radial-gradient-6)"/><path d="M60,291.26c2.58,4.22,5.31,9.44,6.49,13.93-2.54-4.54-11.62-15.29-18.69-21.28C53.35,287.27,57.11,289.59,60,291.26Z" fill="url(#linear-gradient-4)" style="mix-blend-mode:multiply"/><path d="M72.85,294c3.45,6.71,7.94,17.6,8.94,23.67-1.5-5.71-7.67-15.78-14.06-23.27C69.81,294.35,71,293.08,72.85,294Z" fill="url(#linear-gradient-5)" style="mix-blend-mode:multiply"/><path d="M83.83,297.25a213.74,213.74,0,0,1,9.71,22.23c-1.91-4.54-8.49-13.66-14.38-20.82a3.19,3.19,0,0,0,2-.23A28.85,28.85,0,0,1,83.83,297.25Z" fill="url(#linear-gradient-6)" style="mix-blend-mode:multiply"/><path d="M116.67,314.85c-2-1.31-16.1-10.48-23.45-15.51l1.63-.55c1.05-.31,2-1.36,3.4-2.13C102,300.43,107.78,305.78,116.67,314.85Z" fill="url(#linear-gradient-7)" style="mix-blend-mode:multiply"/><path d="M139.49,310.54c-11.71-2-21.5-7.94-29-13.83.86-.14,1.91-.46,3.59-.86,4.53-1.14,3.58-2.32,7.39-.59s16.47.86,16.47.86C138.58,300.25,139.13,305.19,139.49,310.54Z" fill="url(#linear-gradient-8)" style="mix-blend-mode:multiply"/><path d="M139.81,335.13c-.55,8.71-1.91,16.87-4.45,22.82-23.81-5.13-28.35-5.4-38.24-6.54s-7.39,1.14-14.79.55-9.07,4-15.56,1.18-29.26-7.9-42.55-22.68C28,315.8,37.83,299.11,43.55,290.27l1,.18C47.22,304.33,50,317.94,48,324.74S56,335.81,62.24,336.4a12.41,12.41,0,0,0,11.34-5.13c1.4,4.54,3.13,10.53,7.07,11.62s3.95-16.43,2-23.23c5.67,9.07,15.29,19.28,18.69,21.27s-7.67-19.64-7.8-21.45c15.46,12.38,29.35,21.14,35.61,25.67s5.94-2.81-4-13a134,134,0,0,0-16.28-14.65C121.62,324.83,132.55,331.14,139.81,335.13Z" fill="url(#linear-gradient-9)" style="mix-blend-mode:multiply"/><path d="M71.41,298.23a29.2,29.2,0,0,1,6.72,7.62,41.78,41.78,0,0,1,4.22,9.31,61.81,61.81,0,0,1,2.15,9.94,94.79,94.79,0,0,1,.79,10.09c-.78-3.29-1.41-6.59-2.12-9.85s-1.48-6.51-2.48-9.67A54.41,54.41,0,0,0,77,306.48,39.23,39.23,0,0,0,71.41,298.23Z" fill="#2d2835"/><path d="M83.64,303.79a56.85,56.85,0,0,1,6.23,7,81.41,81.41,0,0,1,5.18,7.82c1.55,2.71,3,5.5,4.28,8.32s2.49,5.71,3.59,8.64q-2.49-4-4.78-8l-4.6-8.06c-1.53-2.68-3.09-5.34-4.74-8S85.45,306.34,83.64,303.79Z" fill="#2d2835"/><path d="M99.89,310.6c3.58,2.46,7.08,5,10.54,7.66s6.87,5.3,10.26,8,6.69,5.52,10,8.35,6.51,5.76,9.67,8.75c-3.58-2.48-7.11-5-10.56-7.65s-6.86-5.32-10.24-8-6.68-5.54-10-8.38S103.05,313.59,99.89,310.6Z" fill="#2d2835"/><path d="M113.39,336c2.15,1.55,4.25,3.17,6.31,4.84s4,3.41,6,5.19,3.83,3.66,5.67,5.56,3.57,3.93,5.32,5.92c-2.14-1.59-4.29-3.16-6.34-4.83s-4-3.43-6-5.2-3.81-3.66-5.64-5.57S115.12,338,113.39,336Z" fill="#2d2835"/><path d="M97.21,299.38c1.52.75,3,1.59,4.38,2.44s2.82,1.73,4.2,2.63,2.72,1.86,4,2.85,2.63,2,3.94,3.1a45.05,45.05,0,0,1-4.65-1.93,44.38,44.38,0,0,1-4.34-2.5,43.81,43.81,0,0,1-4-3.05A32.32,32.32,0,0,1,97.21,299.38Z" fill="#2d2835"/><path d="M41.15,341.66c2.54.48,5,1,7.52,1.45a43.85,43.85,0,0,0,7.46.68,26.61,26.61,0,0,0,7.32-.85,19.42,19.42,0,0,0,6.83-3.1,16,16,0,0,1-6.37,4.51,21.86,21.86,0,0,1-7.8,1.39,30,30,0,0,1-7.75-1.24A41.56,41.56,0,0,1,41.15,341.66Z" fill="#2d2835"/><path d="M56.47,292a34.94,34.94,0,0,1,5.08,4.32,41.45,41.45,0,0,1,4.29,5.14,42.09,42.09,0,0,1,3.34,5.78,34.39,34.39,0,0,1,2.27,6.28L68,307.87c-1.17-1.85-2.36-3.66-3.62-5.43s-2.5-3.55-3.81-5.29Z" fill="#2d2835"/><path d="M138,296.12l1.62,15.53c.36,5.19.55,10.4.5,15.6a130.88,130.88,0,0,1-1,15.58A59.65,59.65,0,0,1,135.36,358a87.4,87.4,0,0,0,2.34-15.3c.36-5.13.67-10.26.56-15.41.17-5.16,0-10.32-.09-15.49S137.73,301.41,138,296.12Z" fill="#2d2835"/><path d="M311.21,192.28c-8.35,8.31-13.25,20.42-9.48,27.58s7.21,21.91,2.68,29.49c-.05,0-.05.09-.09.14-4.54,7.48-10.62,11.56-21.46,15s-10.21,14.38-7.58,20.05,6,12.12.37,15.52c-1.41.86-6.13,2.18-12.39,3.67-18.55,4.4-50.71,10.3-50.71,10.3S145.23,299.61,146,293.21a9.18,9.18,0,0,0,.09-1.13c.23-3.86-.77-6.49-3.63-8.89a27.66,27.66,0,0,0-5.17-3.58,15.93,15.93,0,0,0-3.58-1.59c-5.63-2-10.66-1.18-15.7-7.12-6-7.13-3-16.92.37-24.09a.16.16,0,0,0,0-.09,26.11,26.11,0,0,0,2.09-6.4c.86-4.85-.18-9.34-3.63-12.52-4.9-4.53-20.41-14.74-25.31-30.62s-3.4-31.75,2.27-49.12c6.53-20,9.43-35.16,15.51-61.65,4.94-21.55,12.84-39.6,24.86-55.75,2.08-2.86,4.35-5.67,6.76-8.44.63-.77,1.31-1.54,2-2.31s1.64-1.73,2.5-2.59C163,.72,193.59-1.82,208,2.49c27-7.44,51.58,2.63,67.09,19.1.95.95,1.82,1.9,2.68,2.9a66.43,66.43,0,0,1,7.71,11.3c9.53,17.5,18.92,48,24.59,62s14.33,33.66,16.24,53.3S319.51,183.94,311.21,192.28Z" fill="url(#radial-gradient-7)"/><path d="M311.21,192.28c-8.35,8.31-13.25,20.42-9.48,27.58s7.21,21.91,2.68,29.49c-.05,0-.05.09-.09.14-4.54,7.48-10.62,11.56-21.46,15s-10.21,14.38-7.58,20.05,6,12.12.37,15.52c-1.41.86-6.13,2.18-12.39,3.67-18.55,4.4-50.71,10.3-50.71,10.3S145.23,299.61,146,293.21a9.18,9.18,0,0,0,.09-1.13c.23-3.86-.77-6.49-3.63-8.89a27.66,27.66,0,0,0-5.17-3.58,15.93,15.93,0,0,0-3.58-1.59c-5.63-2-10.66-1.18-15.7-7.12-6-7.13-3-16.92.37-24.09a.16.16,0,0,0,0-.09,26.11,26.11,0,0,0,2.09-6.4c.86-4.85-.18-9.34-3.63-12.52-4.9-4.53-20.41-14.74-25.31-30.62s-3.4-31.75,2.27-49.12c6.53-20,9.43-35.16,15.51-61.65,4.94-21.55,12.84-39.6,24.86-55.75,2.08-2.86,4.35-5.67,6.76-8.44.63-.77,1.31-1.54,2-2.31s1.64-1.73,2.5-2.59C163,.72,193.59-1.82,208,2.49c27-7.44,51.58,2.63,67.09,19.1.95.95,1.82,1.9,2.68,2.9a66.43,66.43,0,0,1,7.71,11.3c9.53,17.5,18.92,48,24.59,62s14.33,33.66,16.24,53.3S319.51,183.94,311.21,192.28Z" fill="url(#radial-gradient-8)" style="mix-blend-mode:multiply"/><polygon points="243.39 301.15 243.03 308.27 241.81 332.86 234.55 374.37 234.28 375.73 233.46 380.49 231.24 384.94 230.51 386.39 222.84 401.54 222.12 402.94 209.78 427.39 191.27 394.14 190.87 393.42 185.83 384.3 185.56 383.85 184.74 382.44 177.75 369.83 173.22 302.06 184.56 296.98 231.65 296.44 243.39 301.15" fill="url(#radial-gradient-9)"/><path d="M243,308.27l-1.22,24.59-7.26,41.51-.27,1.36-.82,4.76-2.22,4.45-.73,1.45-7.66,15.15-.73,1.4-12.34,24.45-18.51-33.25-.4-.72-5-9.12c.68-2.68,1.72-4.67,3.27-5.13,5.94-1.67,15.6-1.67,20.14-.81s15.6,2.27,15.28,0-6.62-3.4-15.28-4.4c4,.72,17.87-4.95,19.55-10.34s6.8-35.43,9.25-59.66A11.3,11.3,0,0,1,243,308.27Z" fill="url(#linear-gradient-10)" style="mix-blend-mode:multiply"/><path d="M213.18,389.7c-2.13.5-4.26.95-6.39,1.41s-4.31.86-6.35,1.31-4.09.77-6.4,1.23c-.86.13-1.77.31-2.77.49l-.4-.72c.95-.36,1.9-.73,2.85-1a64.56,64.56,0,0,1,6.35-1.68c2.18-.41,4.36-.68,6.54-.91A53.37,53.37,0,0,1,213.18,389.7Z" fill="#bf8193"/><path d="M204.38,383.3c-2.49.18-4.94.27-7.44.37l-7.44.13c-1.31.05-2.63.05-3.94.05l-.82-1.41c1.59-.14,3.18-.18,4.76-.23,2.5,0,5,.05,7.49.23A60,60,0,0,1,204.38,383.3Z" fill="#bf8193"/><path d="M234.55,374.37l-.27,1.36c-2.54,0-5.13-.09-7.67-.18-2.9-.19-5.81-.37-8.71-.59s-5.81-.59-8.66-1c2.9-.18,5.8-.23,8.71-.23s5.85,0,8.75.14C229.33,374,231.92,374.14,234.55,374.37Z" fill="#bf8193"/><path d="M231.24,384.94l-.73,1.45-2.77-.82c-2-.63-3.9-1.31-5.8-2.13a50.65,50.65,0,0,1-5.58-2.63c2,.41,4,.95,6,1.45s4,1.13,5.89,1.68C229.24,384.26,230.24,384.57,231.24,384.94Z" fill="#bf8193"/><path d="M222.85,401.54l-.73,1.4c-1.63-.13-3.13-.27-4.67-.45-2-.18-4.09-.41-6.35-.63-1.82-.19-3.68-.41-6.4-.68a41.9,41.9,0,0,1,6.44-.59,51.31,51.31,0,0,1,6.44.18C219.35,401,221.12,401.22,222.85,401.54Z" fill="#bf8193"/><path d="M226.9,263c2.83-.19,4.53,1.32,7,4.91s7.56,10.59,10.4,13.8a278.34,278.34,0,0,1,13.23,37.05c-2.46,1.51-9.45,5.48-10.59,6.42,4,2.65,8.46,5.14,10,6.16-9.81,32.21-19.92,62.92-47.14,96.09,6.52-16.72,27.3-58.32,28.25-123.43C227.37,280.54,222.74,269.19,226.9,263Z" fill="url(#radial-gradient-10)"/><path d="M257.52,318.72h0a277.6,277.6,0,0,0-13.23-37q3.59,9.18,6.5,18.56c1.88,5.92,3.66,11.86,5.19,17.86-3.35,1.93-6.74,3.84-10,5.85L244,325.13l2.08,1.31L255,332c-2.54,8.17-5.25,16.28-8,24.35-2.91,8.45-6.15,16.78-9.88,24.89A234.78,234.78,0,0,1,224.72,405a256.62,256.62,0,0,1-14.93,22.37,215.54,215.54,0,0,0,28.72-45.46c7.66-16.28,13.2-33.44,18.42-50.63h0l-10-6.16h0Z" fill="#2d2835"/><path d="M209.78,427.39c-30.89-34-45.63-75.61-48.45-94.3,1.09-1.73,4.9-4.72,8.49-7.58-1.32-1.13-6-3.76-8.89-5.85.72-3.27,2.9-10.57,5.48-18.28,2.77-8.35,6-17.1,8.53-21.59,7.53-7.58,12.43-17.2,13.79-17.78,1-.41,9.76-1.5,16.33-2,2-.13,3.86-.18,5.22-.13,0,0-4.35,6.62-10.3,15.33,0,0,0,0,0,.05-1.36,1.95-2.76,4-4.26,6.12-5.08,7.35-10.8,15.33-15.7,21.59C178.3,335.13,190.82,383.89,209.78,427.39Z" fill="url(#radial-gradient-11)"/><path d="M205.06,260.05c-1.63,5.09-3.53,10.89-5.08,15.2,0,0,0,0,0,.05-1.45,3.9-2.54,6.48-2.9,6.21-.18-.18-.68-.18-1.36-.09-3.09.45-10.3,3.36-10.3,3.36l1.68-.28c-8.62,6.54-15.24,12.89-20.69,16.88,2.77-8.35,6-17.1,8.53-21.59,7.53-7.58,12.43-17.2,13.79-17.78C189.73,261.6,198.49,260.51,205.06,260.05Z" fill="url(#linear-gradient-11)" style="mix-blend-mode:multiply"/><path d="M194,405.77a231.35,231.35,0,0,1-13.23-23.14,217.54,217.54,0,0,1-10.64-24.37c-2.88-8.12-5.61-16.35-7.08-24.75a30.82,30.82,0,0,1,3.32-3.18l4.38-3.58,1.51-1.24-1.46-1.18a24.26,24.26,0,0,0-2.38-1.63l-2.28-1.39c-1.25-.75-2.47-1.51-3.65-2.29,1.46-6.44,3.41-12.92,5.37-19.32a155.85,155.85,0,0,1,7-19.92,156.88,156.88,0,0,0-7.85,19.63c-2.25,6.69-4.45,13.4-6.14,20.25h0c2.87,2.1,6,3.75,8.89,5.86h0l-4.44,3.58a25.54,25.54,0,0,0-4.07,4h0a140.06,140.06,0,0,0,7.2,25.79,219.51,219.51,0,0,0,10.91,24.49,211.39,211.39,0,0,0,30.37,44A238,238,0,0,1,194,405.77Z" fill="#2d2835"/><path d="M270.51,208.88c-6.5,9.06-9.54,20.89-10.12,31.88-.55,10.49,4.33,18.74,12.31,25.07a1.05,1.05,0,0,0,.38.13c.93.2,1,1.21.75,1.93-.95.08-4.16,5.6-4.57,6.26-2.32,3.8-3.47,8.2-2,12.54,1.3,3.79,4.17,6,7.06,8.48s3.3,6.88,1.79,10.4c-.08.35-2.48,5.74-2.77,5.44a38.75,38.75,0,0,1,5.62-3c.44-.3,1.15-.45,1.72-.79a13.14,13.14,0,0,0,4.6-15c-.94-2.6-7.51-7.9-3.91-10.62,4.13-4.1,8.45-8.16,8.89-14.38a14.14,14.14,0,0,0-4.78-11.37c-2.72-2.5-5.7-3.14-8.81-4.74-6.89-3.53-8.09-15.53-8-22.32a43.25,43.25,0,0,1,2.57-14.2c.44-1.22,4.92-9.91,4.14-10.57S270.62,208.72,270.51,208.88Z" fill="url(#radial-gradient-12)"/><path d="M270.51,208.88c-6.5,9.06-9.54,20.89-10.12,31.88-.55,10.49,4.33,18.74,12.31,25.07a1.05,1.05,0,0,0,.38.13c.93.2,1,1.21.75,1.93-.95.08-4.16,5.6-4.57,6.26-2.32,3.8-3.47,8.2-2,12.54,1.3,3.79,4.17,6,7.06,8.48s3.3,6.88,1.79,10.4c-.08.35-2.48,5.74-2.77,5.44a38.75,38.75,0,0,1,5.62-3c.44-.3,1.15-.45,1.72-.79a13.14,13.14,0,0,0,4.6-15c-.94-2.6-7.51-7.9-3.91-10.62,4.13-4.1,8.45-8.16,8.89-14.38a14.14,14.14,0,0,0-4.78-11.37c-2.72-2.5-5.7-3.14-8.81-4.74-6.89-3.53-8.09-15.53-8-22.32a43.25,43.25,0,0,1,2.57-14.2c.44-1.22,4.92-9.91,4.14-10.57S270.62,208.72,270.51,208.88Z" fill="url(#linear-gradient-12)" style="mix-blend-mode:multiply"/><path d="M324.18,189.88a13,13,0,0,1-.72,1.45,49.17,49.17,0,0,1-5.76,7.3,6.3,6.3,0,0,0-.59.73c-2.72,3.31-5,6.76-4.63,10.75.45,4.22,3.81,7.49,5.94,10.93A22.47,22.47,0,0,1,322,231.43a28.13,28.13,0,0,1-1.81,12.93c0,.09,0,.14-.09.18a24.79,24.79,0,0,1-5.81,8.57c-6.17,5.95-13.79,7.76-21.23,11.34-3.27,1.55-7.71,3.81-9,7.44a4.4,4.4,0,0,0-.22,3.18c.5,1.63,2.08,2.63,3.85,3.85,6.62,4.54,6.26,12.34.68,17.38a3.65,3.65,0,0,1-.81.45,26.73,26.73,0,0,0,1.72-2.27,10.84,10.84,0,0,0,.68-4.67,8.4,8.4,0,0,0-4.85-7.66,12.81,12.81,0,0,1-5.36-5.13c-1.81-3.45-1.31-7.62,1.82-11.66,4.58-5.8,12.43-10,18.6-14s13.11-9.84,10.48-18c-.14-1-1-1.72-1.28-2.58-2-4-5.57-7.08-7.8-11a24.21,24.21,0,0,1-3-12.34c.32-9.66,7.08-14.7,11.3-22.54,4.67-8.76,4.08-19.15,2.13-28.58-1.68-7.94-3.81-16.56-7.48-23.82.22-3.54-2.91-7.8-4.31-10.88-1.23-2.68-2.27-5.4-3.27-8.17-.63-1.9-2.36-9.53,1.32-5.81,2.22,2.32,4.08,5.36,6,7.94,6,7.9,12.75,15.65,17.46,24.36C329.9,155.22,332.26,174.09,324.18,189.88Z" fill="url(#linear-gradient-13)"/><path d="M309.49,201.13c-4.72,4.76-3,11-1.91,14.38a9.08,9.08,0,0,1-5.08-8.71c-1.72,6.08,0,10,5.08,17s5.49,11.34,4.76,15.33-3.62,7.76-5.67,10c3.59-.41,6.4-3.4,7.53-5.67-.72,3.58-1.67,6.21-3.76,7.94a17.91,17.91,0,0,0,9.62-6.9,24.79,24.79,0,0,1-5.81,8.57c-6.17,5.95-13.79,7.76-21.23,11.34-3.27,1.55-7.71,3.81-9,7.44a4.4,4.4,0,0,0-.22,3.18c-1.36.63-2.73,1.31-4.09,1.95-1.81-3.45-1.31-7.62,1.82-11.66,4.58-5.8,12.43-10,18.6-14s13.11-9.84,10.48-18c-.14-1-1-1.72-1.28-2.58-2-4-5.57-7.08-7.8-11a24.21,24.21,0,0,1-3-12.34c.32-9.66,7.08-14.7,11.3-22.54,4.67-8.76,4.08-19.15,2.13-28.58-1.68-7.94-3.81-16.56-7.48-23.82.22-3.54-2.91-7.8-4.31-10.88-1.23-2.68-2.27-5.4-3.27-8.17-.63-1.9-2.36-9.53,1.32-5.81,2.22,2.32,4.08,5.36,6,7.94,6,7.9,12.75,15.65,17.46,24.36,8.26,15.24,10.62,34.11,2.54,49.9a97.94,97.94,0,0,1-6.48,8.75,6.3,6.3,0,0,0-.59.73l-.46.45c-1.67,1.73-6,3.81-6.21,11.93A12.93,12.93,0,0,1,309.49,201.13Z" fill="url(#linear-gradient-14)" style="mix-blend-mode:multiply"/><path d="M134.57,292.67c.09-.09.23-.14.32-.32C134.84,292.67,134.71,292.81,134.57,292.67Z" fill="url(#linear-gradient-15)"/><path d="M134.89,292.35a10,10,0,0,0,0-4c-1-1.81-2.85-2.26-4.76-2.4-3.45-.27-6.8,1.13-10.21.73-8.16-1-6.75-10.57-5.08-16.38.41-2.45.64-2.63-1.49-3.81-1-.59-2.32-.95-3.41-1.5-4.12-2.13-7.66-4.4-9.61-8.8a18.53,18.53,0,0,1-.18-13.7c.45-1.31,6-11.16,5.58-11.47a1.75,1.75,0,0,0-.09-.68c-.91-2.59-3.23-4.9-4.9-7a60.52,60.52,0,0,1-7.22-10.75c-3.63-7.35-4.58-15.33-4.12-23.5a49,49,0,0,1,3-14.15c3.4-9.39,9.16-18,14.28-26.58.14-.23,3.5-5.76,4.18-5.49.86.36-1.59,7.67-1.91,8.84a69.62,69.62,0,0,0-2.86,16.74c-.09,2.27-.13,4.54-.09,6.76,0,8.26,1,16.2,4.4,24a45.07,45.07,0,0,0,6.17,9.53l0,.05c3.94,5,8.16,9.79,9.52,16.19a22.22,22.22,0,0,1-1.86,14.7A33.38,33.38,0,0,1,121,245c-.23.32-.82,1.37-1.45,2.27v.09c-.59.82-1.14,1.59-1.46,1.64-.95,1.22-.36,2.4.59,3.31v0s.14.09.19.14c2.45,1.77,5.58,3.72,7.71,6.21a9.68,9.68,0,0,1,2.54,5.76c.31,4.63-3.18,8.44-4.63,12.57-2.09,5.9,3.09,3.86,7,5.67C134.57,284.1,138.34,289.68,134.89,292.35Z" fill="url(#linear-gradient-16)"/><path d="M134.57,292.67c.09-.09.23-.14.32-.32C134.84,292.67,134.71,292.81,134.57,292.67Z" fill="url(#linear-gradient-17)" style="mix-blend-mode:multiply"/><path d="M134.89,292.35a10,10,0,0,0,0-4c-1-1.81-2.85-2.26-4.76-2.4-3.45-.27-6.8,1.13-10.21.73-8.16-1-6.75-10.57-5.08-16.38.41-2.45.64-2.63-1.49-3.81-1-.59-2.32-.95-3.41-1.5-4.12-2.13-7.66-4.4-9.61-8.8a18.53,18.53,0,0,1-.18-13.7c.45-1.31,6-11.16,5.58-11.47a1.75,1.75,0,0,0-.09-.68c-.91-2.59-3.23-4.9-4.9-7a60.52,60.52,0,0,1-7.22-10.75c-3.63-7.35-4.58-15.33-4.12-23.5a49,49,0,0,1,3-14.15c3.4-9.39,9.16-18,14.28-26.58.14-.23,3.5-5.76,4.18-5.49.86.36-1.59,7.67-1.91,8.84a69.62,69.62,0,0,0-2.86,16.74c-.09,2.27-.13,4.54-.09,6.76l10.57,33.57,0,.05,3.22,10.29c3.76,9.85,3.76,16.51,1.13,23.64-.63,1.72-1.13,3.22-1.49,4.53v.09a18.58,18.58,0,0,0-.87,5v0a5.79,5.79,0,0,0,.1,1.36c-3.77-2.08-6.45-7.21-5.09-14.74s-3-10.8-5.89-13.06c1.72,3.4,1.36,9.48-.73,11.52s-.59,7.57.36,9.48c-2.08.73-4.71-1.91-4.71-4.94-1.91,4.35-1,11,2.08,14.19s8.3,5.67,9.08,6.81c-1-2.09-2.27-5.85-4-7.94,2.09.36,7.76,2.81,8.9,6.21s-.78,11-.78,14.75,1.91,6.07,4,6.44c-2.09-2.81-2.27-6-.19-9.85,1.86-3.44,4.68-9.79,4.77-13.88a9.68,9.68,0,0,1,2.54,5.76c.31,4.63-3.18,8.44-4.63,12.57-2.09,5.9,3.09,3.86,7,5.67C134.57,284.1,138.34,289.68,134.89,292.35Z" fill="url(#linear-gradient-18)" style="mix-blend-mode:multiply"/><path d="M157.93,329.1c.27-.14.5-.23.73-.37A.6.6,0,0,1,157.93,329.1Z" fill="url(#linear-gradient-19)"/><path d="M174.26,292a11.16,11.16,0,0,1-.22,4.54c-1.95,6.81-11.62,6.49-16,11.89-.36.72-1.72,1.27-1.63,2.35a7.15,7.15,0,0,0,.36,2.64s0,0,.05.09c1.63,4.94,6.85,12,1.95,15.15a10.93,10.93,0,0,0,.68-4.09c-.27-2.4-1.59-4.17-3.13-5.89a29.23,29.23,0,0,1-4-5.67c-1.45-2.68-2.08-5.63-.41-8.12,2.45-4.77,6.81-5.81,10.53-9,4.58-4-4.22-6.8-7-8.8-4.68-3.31-7.94-8.44-5.27-14.15,2.32-4.86,7.76-7.9,10.8-12.34,3.49-5.22,5.58-11.52,2.77-17.47-2.45-5.26-6.08-10.11-8.8-15.24-5.76-10.88-7.35-23.63-5.81-36.2a86,86,0,0,1,16.74-41.41c.09-.14,4.49-5.17,5-4.63,0,.59-6.89,12.11-7.43,13.29a97.1,97.1,0,0,0-5.9,18.37,65.45,65.45,0,0,0-1.82,16.15,49.17,49.17,0,0,0,5.36,21.6c5.21,10.47,15.74,18,17.28,30.21a30.45,30.45,0,0,1-4.08,18.6,37.73,37.73,0,0,1-5.67,7.62c-1.5,1.58-4,2.94-5.26,4.67-3.27,1.95,2.08,4.35,3.49,5.31.86.63,1.72,1.27,2.54,2a13.08,13.08,0,0,1,1.09,1.14,30.37,30.37,0,0,1,2.31,3,2.39,2.39,0,0,0,.23.37,1.34,1.34,0,0,0,.18.36A12.45,12.45,0,0,1,174.26,292Z" fill="url(#linear-gradient-20)"/><path d="M166.78,281.47a16.79,16.79,0,0,1,3.63,3.13,30.37,30.37,0,0,1,2.31,3,2.39,2.39,0,0,0,.23.37,1.34,1.34,0,0,0,.18.36c-5-4.4-9.57-5-10.3-5.53,3.4,2.45,6.44,5.67,6.62,6.39a39.15,39.15,0,0,0-7.57-4.53c1.5,2.85,4,7.93,2.81,10.38s-3.76,4.36-6.39,6.26c2.44,1,10-4.17,10.75-6.26a6,6,0,0,1-2.64,5.31c1.28.5,5.31-1.31,7.63-3.81-1.95,6.81-11.62,6.49-16,11.89-.36.72-1.72,1.27-1.63,2.35a7.15,7.15,0,0,0,.36,2.64,9.1,9.1,0,0,1-2-4.36c-.59.73.36,5.85,1.14,6.58-1.32-.91-3.22-3.95-3.22-5.45a11.76,11.76,0,0,0-.37,2.82c-1.45-2.68-2.08-5.63-.41-8.12,2.45-4.77,6.81-5.81,10.53-9,4.58-4-4.22-6.8-7-8.8-4.68-3.31-7.94-8.44-5.27-14.15,2.32-4.86,7.76-7.9,10.8-12.34,3.49-5.22,5.58-11.52,2.77-17.47-2.45-5.26-6.08-10.11-8.8-15.24-5.76-10.88-7.35-23.63-5.81-36.2.68-.95,3.18-.13,6.62,1.77a49.17,49.17,0,0,0,5.36,21.6c5.21,10.47,15.74,18,17.28,30.21a30.45,30.45,0,0,1-4.08,18.6,37.73,37.73,0,0,1-5.67,7.62c-1.5,1.58-4,2.94-5.26,4.67C160,278.11,165.37,280.51,166.78,281.47Z" fill="url(#linear-gradient-21)" style="mix-blend-mode:multiply"/><path d="M174.24,292a15.94,15.94,0,0,0-6.11-8.07,24.94,24.94,0,0,0-2.12-1.39l-2.34-1.22a7.83,7.83,0,0,1-2.5-2.18,2.87,2.87,0,0,1-.28-2.77,3.93,3.93,0,0,1,1.57-1.67l-.47.42a20.38,20.38,0,0,1,3.56-3.37,26.16,26.16,0,0,0,3-2.89,36,36,0,0,0,5-7,35.2,35.2,0,0,0,4.8-16.66,30.14,30.14,0,0,1-3.41,17.37,37,37,0,0,1-5,7.42c-1.8,2.45-4.64,3.78-6.56,6.1h0c-.79.36-1.42,1.39-.78,2.18a6.79,6.79,0,0,0,2,1.75,26.85,26.85,0,0,1,4.38,3A14.64,14.64,0,0,1,174.24,292Z" fill="#4d352a"/><path d="M169.36,194.1c-8.3.7-15.48,4.89-22.38,9.3s-13.06,9.53-16.55,17c-5.82,12.47-1.07,27,10.28,34.42a.91.91,0,0,1,.53.64c1.25.9-4.47,8.2-5,8.94-2.81,4.25-4.83,9-4.6,14.16.42,9.38,8.8,15.1,17.74,15,3.57.12,2,5.43,2.74,7.68,1.62,4.67,7.28,7,11.85,7.21,3.59.68,7.34,1.28,9.11,4.91.39.79,1,9.51-.47,8.75.28.25,2.41-3.62,2.55-4.13a9.25,9.25,0,0,0-.4-6.07c-1.72-4.08-5.89-5.59-9.71-7.14-1.23-.72-4.69-2.59-4.55-4.32-.12-2.87,1.81-5.76,1.42-8.93-.61-5.08-4.57-8.28-9.09-10a6.75,6.75,0,0,0-1.69-.84c-1.49-.58-5.53-1.3-3.67-3.95,1.68-3.65,5.24-6.45,7.38-9.86a21.3,21.3,0,0,0,3.44-12.74,15.76,15.76,0,0,0-6.48-11.85c-2.31-1.71-4.9-2.79-6.91-4.91-7.87-8.26.08-17.55,6.56-23.73a110.28,110.28,0,0,1,23.2-17.22c-.15,0,1.92-.46,1.93-.67s-5.53-1.58-5.77-1.63Z" fill="url(#linear-gradient-22)"/><path d="M169.36,194.1c-8.3.7-15.48,4.89-22.38,9.3s-13.06,9.53-16.55,17c-5.82,12.47-1.07,27,10.28,34.42a.91.91,0,0,1,.53.64c1.25.9-4.47,8.2-5,8.94-2.81,4.25-4.83,9-4.6,14.16.42,9.38,8.8,15.1,17.74,15,3.57.12,2,5.43,2.74,7.68,1.62,4.67,7.28,7,11.85,7.21,3.59.68,7.34,1.28,9.11,4.91.39.79,1,9.51-.47,8.75.28.25,2.41-3.62,2.55-4.13a9.25,9.25,0,0,0-.4-6.07c-1.72-4.08-5.89-5.59-9.71-7.14-1.23-.72-4.69-2.59-4.55-4.32-.12-2.87,1.81-5.76,1.42-8.93-.61-5.08-4.57-8.28-9.09-10a6.75,6.75,0,0,0-1.69-.84c-1.49-.58-5.53-1.3-3.67-3.95,1.68-3.65,5.24-6.45,7.38-9.86a21.3,21.3,0,0,0,3.44-12.74,15.76,15.76,0,0,0-6.48-11.85c-2.31-1.71-4.9-2.79-6.91-4.91-7.87-8.26.08-17.55,6.56-23.73a110.28,110.28,0,0,1,23.2-17.22c-.15,0,1.92-.46,1.93-.67s-5.53-1.58-5.77-1.63Z" fill="url(#linear-gradient-23)" style="mix-blend-mode:multiply"/><path d="M162,291.51a10.33,10.33,0,0,0-3.46-5.92,18.12,18.12,0,0,0-6-3.21l-.13,0-.14-.11c-.39-.31-.65-.27-1.56-.66l.1,0a16.58,16.58,0,0,1-3.3-1.15,3.13,3.13,0,0,1-1.64-2,3.37,3.37,0,0,1,.58-2.57l-.12.21c1.39-3.29,3.79-5.66,5.67-8a21.41,21.41,0,0,0,4-7.82c1.5-5.61.38-11.88-3.92-15.77-2-2-5-3.13-7.67-5.61a12.48,12.48,0,0,1-3.85-9.59,16.68,16.68,0,0,1,4.1-9,50.51,50.51,0,0,1,6.88-6.69,50,50,0,0,0-6.32,7.08,16.94,16.94,0,0,0-3.51,8.7,11.16,11.16,0,0,0,3.75,8.42c2.32,2.18,5.4,3.33,7.73,5.5,4.89,4.24,6.29,11.42,4.46,17.46a23.1,23.1,0,0,1-4.4,8.36c-2,2.45-4.34,4.67-5.7,7.57h0a2.15,2.15,0,0,0-.44,1.54,2,2,0,0,0,1,1.22,17.57,17.57,0,0,0,3.07,1.19h0a6.21,6.21,0,0,1,1.69.84h0a17.3,17.3,0,0,1,6,3.76A10.7,10.7,0,0,1,162,291.51Z" fill="#4d352a"/><path d="M130.43,220.41a29.05,29.05,0,0,0,11.2,33l-.24-.14a2.58,2.58,0,0,1,1.48,1.85l-.66-1a2.31,2.31,0,0,1,.78,2.4,4.68,4.68,0,0,1-.36,1.08,14.18,14.18,0,0,1-.84,1.61c-.6,1-1.22,1.88-1.86,2.76-1.35,1.81-2.77,3.25-3.86,5a25,25,0,0,0-4.39,11.6,22.35,22.35,0,0,1,3.38-12.18,63.13,63.13,0,0,1,3.6-5.29c.61-.88,1.2-1.77,1.74-2.69s1.29-1.94.84-2.94h0a1,1,0,0,0-.53-.64h0a28.35,28.35,0,0,1-11.58-15.32A26.71,26.71,0,0,1,130.43,220.41Z" fill="#4d352a"/><path d="M268.07,178a117.64,117.64,0,0,0,7.63,13.19c2.95,4.36,8.12,8,9.62,13.17s-.54,12.08-2.56,16.8c-2.36,5.48-7.19,8.08-12.19,10.9-9.86,5.55-20,11.19-26.3,21-6.54,10.15.59,19.13,7.49,26.66l.21.15c1.35.95,1.27,2.2.54,3.55-.92,2.6-4,4.9-5.64,7.16-2.16,3.07-3.85,6.73-3.47,10.57.52,5.23,6.19,9.59,9.7,13.16-1,.82-3.59-9.36-3.37-10.42.6-1.83.55-3.62,1.61-5.31,1.34-2.13,3.55-3.7,5.43-5.33,3.24-2.82,6.88-6.1,7.83-10.49.91-4.19-1.46-7.54-3.73-10.77-1.39-2-2.83-3.9-4.31-5.81-.66-.84-3.51-3.38-3.36-4.5-.6-3.42,8.26-9.69,10.54-11.33,4.53-3.25,9.68-5.52,14.31-8.62,9.92-6.66,15.2-17.16,16.48-28.91,1.15-10.67-3.74-16.79-11.33-23.36a111.52,111.52,0,0,1-9.07-8.19c-.76-.82-7.74-10-8.31-9.76S268,177.81,268.07,178Z" fill="url(#linear-gradient-24)"/><path d="M268.07,178a117.64,117.64,0,0,0,7.63,13.19c2.95,4.36,8.12,8,9.62,13.17s-.54,12.08-2.56,16.8c-2.36,5.48-7.19,8.08-12.19,10.9-9.86,5.55-20,11.19-26.3,21-6.54,10.15.59,19.13,7.49,26.66l.21.15c1.35.95,1.27,2.2.54,3.55-.92,2.6-4,4.9-5.64,7.16-2.16,3.07-3.85,6.73-3.47,10.57.52,5.23,6.19,9.59,9.7,13.16-1,.82-3.59-9.36-3.37-10.42.6-1.83.55-3.62,1.61-5.31,1.34-2.13,3.55-3.7,5.43-5.33,3.24-2.82,6.88-6.1,7.83-10.49.91-4.19-1.46-7.54-3.73-10.77-1.39-2-2.83-3.9-4.31-5.81-.66-.84-3.51-3.38-3.36-4.5-.6-3.42,8.26-9.69,10.54-11.33,4.53-3.25,9.68-5.52,14.31-8.62,9.92-6.66,15.2-17.16,16.48-28.91,1.15-10.67-3.74-16.79-11.33-23.36a111.52,111.52,0,0,1-9.07-8.19c-.76-.82-7.74-10-8.31-9.76S268,177.81,268.07,178Z" fill="url(#linear-gradient-25)" style="mix-blend-mode:multiply"/><path d="M251.34,298.57c2-3.35,5.32-5.53,7.72-8.39s4.69-5.93,4.52-9.28-2.65-6.18-4.88-9.23l-3.42-4.49-1.9-2a15.64,15.64,0,0,1-1-1.25,3.64,3.64,0,0,1-.84-2.47l0,.5c-.16-2.64,1.11-3.88,2-5.12a30.42,30.42,0,0,1,3.1-3.2,64.89,64.89,0,0,1,6.83-5.21c4.82-3.24,10-5.42,14.43-8.48,9-5.86,14.76-16.15,16.66-27.14a43.7,43.7,0,0,1-4.79,15.95,35.71,35.71,0,0,1-11,12.45c-4.56,3.23-9.73,5.47-14.33,8.65A74.55,74.55,0,0,0,257.8,255a28.53,28.53,0,0,0-3,3c-.85,1.06-1.76,2.29-1.65,3.72h0c.43,1.89,2.21,3.05,3.36,4.51l3.41,4.58c2.16,3,4.78,6.21,4.82,10.13s-2.53,7.22-5.22,9.81C256.94,293.45,253.49,295.38,251.34,298.57Z" fill="#4d352a"/><path d="M282.76,221.17a18.06,18.06,0,0,1-6.17,8.08,92.22,92.22,0,0,1-8.53,5.57c-5.68,3.6-11.31,7.19-16.06,11.66-4.53,4.55-9.05,10-8.53,15.9.47,6.09,5.11,11.35,9.26,16.44l-.21-.19a5.23,5.23,0,0,1,1,1,3.21,3.21,0,0,1,.67,1.58,4.44,4.44,0,0,1-.69,2.78l.07-.16a13.84,13.84,0,0,1-3.37,4.42,27.62,27.62,0,0,0-3.41,3.63,15,15,0,0,0-3.43,9.29,15.31,15.31,0,0,1,2.86-9.66c1.74-3,4.94-4.83,6.25-8.07h0a3.35,3.35,0,0,0,.49-2,2.46,2.46,0,0,0-1.24-1.66h0c-4.4-4.93-9.27-10.3-10-17.18a15.06,15.06,0,0,1,2.58-9.58,41.69,41.69,0,0,1,6.53-7.69c4.94-4.6,10.77-8.12,16.62-11.45,2.91-1.69,5.92-3.22,8.71-5.12A17.69,17.69,0,0,0,282.76,221.17Z" fill="#4d352a"/><path d="M277.1,311.45a17.26,17.26,0,0,1-.05,2.59,16.32,16.32,0,0,1-1.95,6.35,16.67,16.67,0,0,1-4.81,5.71c-1,.68-11.84,6-12.61,5.58.55,0,5.36-6.17,5.63-6.67a22.67,22.67,0,0,0,3.72-8.57c1.13-7.12-6.53-9.21-10.89-13.2a17.27,17.27,0,0,1-5.4-17.15,22.79,22.79,0,0,1,4.49-8.75c.64-.82,3.22-2.82,2.91-4.22-.73-3.27-10.62-4.36-13.07-5-6.21-1.68-11.34-4.31-14.92-9.89-4-6.08-5.81-13.43-3.45-20.46,2.18-6.58,7.58-10.57,13.43-13.79,5.31-2.86,11.38-5.26,12.74-11.88,1.59-7.76-4.49-12.66-8-18.56,0,0-2.91-7.16-1.41-7,.27,0,.41,3.17,3.54,5.17,4.9,3.95,9.52,7.12,12,13.2,2.4,5.9,3,12.84-.59,18.42s-9.35,8.3-14.7,11.75c-4.58,2.9-9,8.7-4.81,14.06,1.27,2,5.36,2,7.31,2.27a72.18,72.18,0,0,1,8.84,1.49,35.56,35.56,0,0,1,13.2,6.44c4.4,3.45,8.21,7.94,7.8,13.88a13.6,13.6,0,0,1-2.58,6.95s0,0-.05,0a33.76,33.76,0,0,1-5.17,5.4,14.67,14.67,0,0,0-2.45,2.58c-2.08,2.82-1.49,5.22,2,8.49C272.29,300.83,276.69,305,277.1,311.45Z" fill="url(#linear-gradient-26)"/><path d="M271.7,306.41c1.13,4,1.13,7.94.36,9.48-.36-2.08-1.9-6.44-2.81-7.21,1.13,4.18-1.54,12.89-4.54,15.52,2.27,0,5.86-4.9,5.86-4.9a22,22,0,0,1-1.73,4.9c1.86-1.23,4.27-2.59,6.26-3.81a16.67,16.67,0,0,1-4.81,5.71c-1,.68-11.84,6-12.61,5.58.55,0,5.36-6.17,5.63-6.67a22.67,22.67,0,0,0,3.72-8.57c1.13-7.12-6.53-9.21-10.89-13.2a17.27,17.27,0,0,1-5.4-17.15,22.79,22.79,0,0,1,4.49-8.75c.64-.82,3.22-2.82,2.91-4.22-.73-3.27-10.62-4.36-13.07-5-6.21-1.68-11.34-4.31-14.92-9.89-4-6.08-5.81-13.43-3.45-20.46,2.18-6.58,7.58-10.57,13.43-13.79,5.31-2.86,11.38-5.26,12.74-11.88,1.59-7.76-4.49-12.66-8-18.56,0,0-2.91-7.16-1.41-7,.27,0,.41,3.17,3.54,5.17,4.9,3.95,9.52,7.12,12,13.2,2.4,5.9,3,12.84-.59,18.42s-9.35,8.3-14.7,11.75c-4.58,2.9-9,8.7-4.81,14.06,1.27,2,5.36,2,7.31,2.27a72.18,72.18,0,0,1,8.84,1.49,35.56,35.56,0,0,1,13.2,6.44c4.4,3.45,8.21,7.94,7.8,13.88a13.6,13.6,0,0,1-2.58,6.95s0,0-.05,0c-4.31,2.31-7.57,4.36-8.07,5.4a3.24,3.24,0,0,0,.45,2.58c-2.08,2.82-1.49,5.22,2,8.49,4.45,4.12,8.85,8.25,9.26,14.74a17.26,17.26,0,0,1-.05,2.59A20.24,20.24,0,0,0,271.7,306.41Z" fill="url(#linear-gradient-27)" style="mix-blend-mode:multiply"/><path d="M277.1,311.43a16.58,16.58,0,0,0-5.52-10c-1.4-1.33-2.87-2.61-4.36-3.9s-3.2-2.81-3.8-5.35c-.55-2.73,1.17-4.94,2.51-6.41s2.94-2.71,4.21-4.12c2.58-2.7,4.36-5.91,4.22-9.36s-1.95-6.53-4.48-9.17a32.15,32.15,0,0,0-9.11-6.46,34.69,34.69,0,0,0-5.28-2c-1.83-.48-3.78-.76-5.66-1.2s-3.73-.86-5.69-1.06c-1.91-.38-4.36-.38-6.07-2.74l.07.09a8.1,8.1,0,0,1-1.66-4.36,8.32,8.32,0,0,1,1.05-4.42,15.82,15.82,0,0,1,6.16-5.89,15.49,15.49,0,0,0-5.68,6.12,7.33,7.33,0,0,0,.91,7.94h0c1.21,1.67,3.46,1.82,5.34,2.06s3.9.57,5.85.88,3.9.58,5.81,1.08a36.86,36.86,0,0,1,5.54,2.05,33.52,33.52,0,0,1,9.67,6.7c2.78,2.74,5,6.39,4.95,10.4s-2.06,7.69-4.8,10.46c-1.34,1.45-2.9,2.67-4.3,4.06s-2.71,3.14-2.33,5.17,1.87,3.47,3.27,4.8,2.9,2.68,4.22,4.15A16.93,16.93,0,0,1,277.1,311.43Z" fill="#4d352a"/><path d="M226.69,237.78A20.48,20.48,0,0,0,227,248.5a27.33,27.33,0,0,0,4.63,9.47c4.07,5.66,10.92,8.25,18.06,9.24a37.06,37.06,0,0,1,5.58,1.6,10.64,10.64,0,0,1,2.87,1.57,4.48,4.48,0,0,1,1.34,1.63,3.33,3.33,0,0,1,.35,1.4,3.64,3.64,0,0,1-.31,1.29c-1.31,2.45-2.93,3.1-3.77,4.5a27.73,27.73,0,0,0-2.72,4.4,17.42,17.42,0,0,0,3.1,19.64,18,18,0,0,1-5.52-9.37,17.85,17.85,0,0,1,1.14-10.81,23.86,23.86,0,0,1,2.74-4.78c1-1.57,2.7-2.54,3.52-4.23.49-.89-.24-1.83-.92-2.35a8.89,8.89,0,0,0-2.44-1.28,33.68,33.68,0,0,0-5.32-1.43c-7.16-1.1-14.72-3.92-18.86-10.23C226.36,252.75,224.28,244.86,226.69,237.78Z" fill="#4d352a"/><path d="M238,304c-10.75,5.68-43.86,7.76-58-.95.18-8.3,3-20.77,5.86-26.63,1-.95,1.9-3.58,2.08-6.44s.27-14.33.27-30.53c7.13-2.9,30.53-4.8,41.15-2.35-.18,2.22.18,14.29.5,23,.09,3.31.18,6.12.22,7.76.18,5.85,2.09,9.25,3.81,10.2C235.41,281.47,236.91,289.4,238,304Z" fill="url(#linear-gradient-28)"/><path d="M238,304a49.88,49.88,0,0,1-14.31,3.89,105.23,105.23,0,0,1-14.84,1,87.74,87.74,0,0,1-14.83-1.16,41.52,41.52,0,0,1-14-4.7,55.1,55.1,0,0,0,14.28,3.34,104.47,104.47,0,0,0,14.59.71,135.13,135.13,0,0,0,14.64-.6,70.92,70.92,0,0,0,7.28-.89A43.54,43.54,0,0,0,238,304Z" fill="#b8784d"/><path d="M229.88,260.1c-12.12,8.21-23.59,9.16-33,4.35-2.08,10.21-6.62,12.12-9.84,14.57a131.52,131.52,0,0,0-7,24c.18-8.3,3-20.77,5.86-26.63,1-.95,1.9-3.58,2.08-6.44s.27-14.33.27-30.53c7.13-2.9,30.53-4.8,41.15-2.35C229.2,239.28,229.56,251.35,229.88,260.1Z" fill="url(#linear-gradient-29)" style="mix-blend-mode:darken"/><path d="M184.25,291a37.12,37.12,0,0,0,5.34.45c1.78.05,3.57,0,5.39.19a21.14,21.14,0,0,1,5.4,1.18,10.39,10.39,0,0,1,4.54,3.12A16.36,16.36,0,0,0,200,294a35.72,35.72,0,0,0-5.18-.75c-1.76-.18-3.56-.35-5.36-.66A18,18,0,0,1,184.25,291Z" fill="#b8784d"/><path d="M212.76,296.2a6.82,6.82,0,0,1,4.22-3.53,20.36,20.36,0,0,1,5.5-.79,44.16,44.16,0,0,0,5.28-.34,49.39,49.39,0,0,0,5.29-1,20.57,20.57,0,0,1-5.05,2.16,23.09,23.09,0,0,1-5.47.79,30,30,0,0,0-5.24.28A7.76,7.76,0,0,0,212.76,296.2Z" fill="#b8784d"/><path d="M192.48,269.77c1.05,1.83,2,3.69,3,5.54l2.86,5.57c.89,1.81,1.78,3.6,2.78,5.62s1.81,3.77,2.64,5.71a54.52,54.52,0,0,1-3.6-5.19c-1.1-1.79-2.12-3.63-3.08-5.51s-1.78-3.81-2.56-5.76A56.85,56.85,0,0,1,192.48,269.77Z" fill="#b8784d"/><path d="M131.59,144.59c-4.91-8.88-10-11.72-14.93-11.34s-8.13,7.75-7.18,13.23,1.51,13.61,2.26,18.71A28.62,28.62,0,0,0,118,179c3.4,4.35,5.48,8.32,7.94,11.34s7.75,3.78,11.53.38C140.47,173.7,132.91,148.94,131.59,144.59Z" fill="url(#linear-gradient-30)"/><path d="M131.59,144.59c-4.91-8.88-10-11.72-14.93-11.34s-8.13,7.75-7.18,13.23,1.51,13.61,2.26,18.71A28.62,28.62,0,0,0,118,179c3.4,4.35,5.48,8.32,7.94,11.34s7.75,3.78,11.53.38C140.47,173.7,132.91,148.94,131.59,144.59Z" fill="url(#linear-gradient-31)" style="mix-blend-mode:darken"/><path d="M114.11,153.1c-.15-6.25,1-8.93,3.68-9.64s8.51,5.67,9.36,10.35,1.56,6.37-.28,8.08-2.7,6-2,10.2,4.69,7.27,7.66,7.32c-6.81,2.32-8.79-2.78-11.2-5.62S114.39,165.29,114.11,153.1Z" fill="url(#linear-gradient-32)" style="mix-blend-mode:darken"/><path d="M115.5,146.51a2,2,0,0,1,1.85-2.13,4.53,4.53,0,0,1,3,.88,13.68,13.68,0,0,1,4,4.39,28.55,28.55,0,0,1,2.57,5.23,7.2,7.2,0,0,1-.34,5.83,8.77,8.77,0,0,0-1-5.29c-.78-1.6-1.85-3.19-2.8-4.8a20.65,20.65,0,0,0-3.19-4.36,3.71,3.71,0,0,0-2.18-1.19A1.77,1.77,0,0,0,115.5,146.51Z" fill="#b8784d"/><path d="M128.7,159.27a29.1,29.1,0,0,0-2.95,5.47,10.66,10.66,0,0,0-.37,5.78,11.71,11.71,0,0,0,2.37,5.19,13.55,13.55,0,0,0,4.79,3.7,9.43,9.43,0,0,1-5.93-2.62,10.15,10.15,0,0,1-3.12-6,11.35,11.35,0,0,1,1.15-6.58A20,20,0,0,1,128.7,159.27Z" fill="#b8784d"/><path d="M121.53,154a10,10,0,0,0-2.44,4.19,10.31,10.31,0,0,0-.28,4.61,13.54,13.54,0,0,0,1.36,4.46,10.09,10.09,0,0,0,3,3.82,7.16,7.16,0,0,1-4.2-3.07,11,11,0,0,1-2-5,10,10,0,0,1,1-5.28A8.4,8.4,0,0,1,121.53,154Z" fill="#b8784d"/><path d="M117.65,128.57c2,8.79,11.06,40.83,18.71,53.87,2.84-23,2-59.25,2-59.25S126.72,125.74,117.65,128.57Z" fill="url(#radial-gradient-13)"/><path d="M285.16,144.59c4.91-8.88,10-11.72,14.93-11.34s8.13,7.75,7.18,13.23-1.51,13.61-2.26,18.71a28.62,28.62,0,0,1-6.24,13.8c-3.4,4.35-5.48,8.32-7.94,11.34s-7.75,3.78-11.53.38C276.28,173.7,283.84,148.94,285.16,144.59Z" fill="url(#linear-gradient-33)"/><path d="M285.16,144.59c4.91-8.88,10-11.72,14.93-11.34s8.13,7.75,7.18,13.23-1.51,13.61-2.26,18.71a28.62,28.62,0,0,1-6.24,13.8c-3.4,4.35-5.48,8.32-7.94,11.34s-7.75,3.78-11.53.38C276.28,173.7,283.84,148.94,285.16,144.59Z" fill="url(#linear-gradient-34)" style="mix-blend-mode:darken"/><path d="M302.64,153.1c.15-6.25-1-8.93-3.68-9.64s-8.51,5.67-9.36,10.35-1.56,6.37.28,8.08,2.7,6,2,10.2-4.69,7.27-7.66,7.32c6.81,2.32,8.79-2.78,11.2-5.62S302.36,165.29,302.64,153.1Z" fill="url(#linear-gradient-35)" style="mix-blend-mode:darken"/><path d="M301.25,146.51a2,2,0,0,0-1.85-2.13,4.53,4.53,0,0,0-3,.88,13.68,13.68,0,0,0-4,4.39,29.24,29.24,0,0,0-2.58,5.23,7.24,7.24,0,0,0,.35,5.83,8.77,8.77,0,0,1,1-5.29c.78-1.6,1.85-3.19,2.8-4.8a20.65,20.65,0,0,1,3.19-4.36,3.71,3.71,0,0,1,2.18-1.19A1.77,1.77,0,0,1,301.25,146.51Z" fill="#b8784d"/><path d="M288.05,159.27a29.1,29.1,0,0,1,2.95,5.47,10.66,10.66,0,0,1,.37,5.78,11.62,11.62,0,0,1-2.38,5.19,13.42,13.42,0,0,1-4.78,3.7,9.43,9.43,0,0,0,5.93-2.62,10.15,10.15,0,0,0,3.12-6,11.35,11.35,0,0,0-1.15-6.58A20,20,0,0,0,288.05,159.27Z" fill="#b8784d"/><path d="M295.22,154a10.06,10.06,0,0,1,2.44,4.19,10.31,10.31,0,0,1,.28,4.61,13.79,13.79,0,0,1-1.36,4.46,10.09,10.09,0,0,1-3,3.82,7.16,7.16,0,0,0,4.2-3.07,11,11,0,0,0,1.95-5,10,10,0,0,0-1-5.28A8.4,8.4,0,0,0,295.22,154Z" fill="#b8784d"/><path d="M300.8,128.57c-2,8.79-11.06,40.83-18.71,53.87-2.84-23-2-59.25-2-59.25S291.73,125.74,300.8,128.57Z" fill="url(#radial-gradient-14)"/><path d="M288.3,133.68c-.41,6.94-1.49,16.87-2.9,26.94,0,.59-.14,1.14-.23,1.73-1.77,12.83-3.81,25.72-5.17,32.93-1.5,8.21-6.44,16.6-11.52,23a57.13,57.13,0,0,1-8.89,9.12c-1.86,1.41-5.31,3.95-9.75,6.8l-.05,0a158.87,158.87,0,0,1-20.37,11.16c-7.3,3.26-14.83,5.62-21.23,5.62-5.89,0-12.88-2.13-20-5.35a155.76,155.76,0,0,1-36-23.59c-1.27-1.13-2.4-2.27-3.49-3.45-7.62-8.16-11.52-17.23-13.25-28.85-1-6.57-2-15.55-3.22-26.08-1.22-10.79-2.58-23.13-4.17-36-1.09-8.71-.54-30.12,6.26-52,9.34-30.26,30.57-61.42,76-61.42,55.34,0,71.85,51.58,76.44,87.5v0A188.21,188.21,0,0,1,288.3,133.68Z" fill="url(#radial-gradient-15)"/><path d="M229.43,245.46a42,42,0,0,1-9.64,5.11,37.29,37.29,0,0,1-10.89,2.3,32.58,32.58,0,0,1-11-2.05,40.16,40.16,0,0,1-9.66-5.08c6.5,2.86,13.41,5.41,20.61,5.32C216,250.8,222.91,248.3,229.43,245.46Z" fill="#b8784d"/><path d="M175.58,189.09a29.27,29.27,0,0,1-26.81,29.17c-7.62-8.17-11.52-17.24-13.25-28.85-1-6.58-2-15.56-3.22-26.08a29.64,29.64,0,0,1,14-3.54A29.32,29.32,0,0,1,175.58,189.09Z" opacity="0.3" fill="url(#Rona_Pipi)" style="mix-blend-mode:darken"/><path d="M285.17,162.35c-1.77,12.83-3.81,25.72-5.17,32.93-1.5,8.21-6.44,16.6-11.52,23a29.27,29.27,0,0,1,6.62-57.79A28.51,28.51,0,0,1,285.17,162.35Z" opacity="0.3" fill="url(#Rona_Pipi-2)" style="mix-blend-mode:darken"/><circle cx="203.27" cy="185.04" r="18.66" fill="url(#radial-gradient-16)" style="mix-blend-mode:darken"/><path d="M214.9,136.89a28.45,28.45,0,1,1-45.52-22.76C179.65,118.93,214.9,121.18,214.9,136.89Z" fill="url(#radial-gradient-17)" style="mix-blend-mode:darken"/><path d="M204.69,136.89a28.45,28.45,0,1,0,45.51-22.76C239.94,118.93,204.69,121.18,204.69,136.89Z" fill="url(#radial-gradient-18)" style="mix-blend-mode:darken"/><path d="M176.62,149l12.29,4.34c-.19-8.31-4.75-17.51-15.83-22.49-9.26-4.16-17.2-2.78-24.76-.38-8,2.55-13,4.73-17.58,3,.57,6,4.21,9.4,9.21,10.49,3.78,7,9.11,10.39,18.1,11.38,9.27,1,17.58,1,24.81-.33Z" fill="url(#radial-gradient-19)"/><path d="M142.22,142c3.22,10,12.48,11.39,22.49,12.52s20.79.9,24.2-1.18c-2.93-8.45-8.56-17.76-21.36-19.65C156,132,146.43,137.08,142.22,142Z" fill="url(#Gradient_Eye)"/><g clip-path="url(#clip-path)"><circle cx="167.04" cy="145.07" r="12.04" fill="url(#radial-gradient-20)"/><circle cx="167.04" cy="145.07" r="8.28" fill="#222223"/><circle cx="174.54" cy="141.61" r="2.17" fill="#fff"/><circle cx="160.18" cy="150.5" r="1.09" fill="#fff"/></g><path d="M167.55,137.08c12.48,1.59,18.12,9.25,21.11,16.38l.25-.13c-2.93-8.45-8.56-17.76-21.36-19.65-11.53-1.7-21.12,3.4-25.33,8.31.19.59.47,1.1.7,1.65C147.41,139.61,156.57,135.69,167.55,137.08Z" fill="url(#linear-gradient-36)" style="mix-blend-mode:multiply"/><path d="M168.63,158.26h0Z" fill="url(#linear-gradient-37)" style="mix-blend-mode:multiply"/><path d="M240.13,149l-12.29,4.34c.19-8.31,4.75-17.51,15.83-22.49,9.26-4.16,17.2-2.78,24.76-.38,8,2.55,13,4.73,17.58,3-.57,6-4.21,9.4-9.21,10.49-4.63,7.84-9.93,10.39-18.81,12.09s-15.59,1-24.1-1Z" fill="url(#radial-gradient-21)"/><path d="M274.53,142c-3.22,10-12.9,12-22.92,13.09s-20.37.33-23.77-1.75c2.93-8.45,8.56-17.76,21.36-19.65C260.73,132,270.32,137.08,274.53,142Z" fill="url(#Gradient_Eye-2)"/><path d="M249.2,137.08c-12.48,1.59-18.12,9.25-21.11,16.38l-.25-.13c2.93-8.45,8.56-17.76,21.36-19.65,11.53-1.7,21.12,3.4,25.33,8.31-.19.59-.47,1.1-.7,1.65C269.34,139.61,260.18,135.69,249.2,137.08Z" fill="url(#linear-gradient-38)" style="mix-blend-mode:multiply"/><path d="M248.11,158.26h0Z" fill="url(#linear-gradient-37)" style="mix-blend-mode:multiply"/><g clip-path="url(#clip-path-2)"><circle cx="249.71" cy="145.07" r="12.04" fill="url(#radial-gradient-22)"/><circle cx="249.71" cy="145.07" r="8.28" fill="#222223"/><circle cx="257.21" cy="141.61" r="2.17" fill="#fff"/><circle cx="242.84" cy="150.5" r="1.09" fill="#fff"/></g><path d="M224.52,140.48c-3.67,6.26-4.67,10.8-3.4,15.61s1.14,13.33-.27,18.28c2.72,1.31,4.22,4.4,4.63,7.25a8.92,8.92,0,0,1-.37,4.63c-1.27,3.13-5.12,2.86-7.8,2.86-1.86,0-3.17,2.36-5.31,3.81a6.06,6.06,0,0,1-2.81,1.09,3.88,3.88,0,0,1-.68,0c-4.54,0-5.53-4.22-7.94-4.94-3.13.13-7.66.13-8.07-4.27s1.31-8.61,4.17-10.7c-1.9-6.26-1.31-13.61-.18-18.15s-.05-5.67-1.72-9.66S181.16,124.69,176,116.94c25-30.21,55.57-19.87,68.09-2.13a5.88,5.88,0,0,1,.54.72C241,118.53,228.2,134.22,224.52,140.48Z" fill="url(#linear-gradient-40)"/><path d="M209.83,146.58c.32,2.25.52,4.51.67,6.77s.23,4.51.27,6.77-.11,4.51-.26,6.76a64.58,64.58,0,0,1-.75,6.77c-.37-2.26-.57-4.51-.72-6.77s-.22-4.51-.21-6.77.15-4.51.3-6.77S209.49,148.83,209.83,146.58Z" fill="#faf8d3"/><path d="M209.61,176.83a6.25,6.25,0,0,1,1.76,1.79,6.71,6.71,0,0,1,.87,2.37,6.85,6.85,0,0,1-.26,2.51,4.78,4.78,0,0,1-1.34,2.15c-.15-.85-.29-1.61-.37-2.32l-.3-2.07c0-.57-.08-1.15-.15-2.1C209.75,178.44,209.76,177.64,209.61,176.83Z" fill="#faf8d3"/><path d="M224.52,140.48c-3.67,6.26-4.67,10.8-3.4,15.61s1.14,13.33-.27,18.28c2.72,1.31,4.22,4.4,4.63,7.25a8.92,8.92,0,0,1-.37,4.63c-1.27,3.13-5.12,2.86-7.8,2.86-1.86,0-3.17,2.36-5.31,3.81a3.56,3.56,0,0,1,0-2.72,19.79,19.79,0,0,0,2.27-9.67c-.19-3.76-2.09-7.75-1.68-12.06s.54-12.29.36-16.29,0-8.12,2.45-11.88,14-27.61,16.31-30.06c2-2.13,13.18,2.39,18.94,1.08.23.22-4,2.45-6,4.21C241,118.53,228.2,134.22,224.52,140.48Z" fill="url(#radial-gradient-23)" style="mix-blend-mode:darken"/><path d="M209.19,194a3.88,3.88,0,0,1-.68,0c-4.54,0-5.53-4.22-7.94-4.94-3.13.13-7.66.13-8.07-4.27s1.31-8.61,4.17-10.7c-1.9-6.26-1.31-13.61-.18-18.15s-.05-5.67-1.72-9.66S181.16,124.69,176,116.94a93.25,93.25,0,0,1,11.21,2c3.58,1,7.66,9,11.52,15.7s6.48,9.75,6.76,15.29.31,16.05.31,20.23-1.36,7.8-1.49,11.38,1.31,6.9,3.45,8.53C208.65,190.79,209.06,192.37,209.19,194Z" fill="url(#linear-gradient-41)" style="mix-blend-mode:darken"/><path d="M209.19,194a3.88,3.88,0,0,1-.68,0c-4.54,0-5.53-4.22-7.94-4.94-3.13.13-7.66.13-8.07-4.27s1.31-8.61,4.17-10.7c-1.9-6.26-1.31-13.61-.18-18.15s-.05-5.67-1.72-9.66S181.16,124.69,176,116.94c0,0,5.75-3.06,9.33-2s9.54,13,13.4,19.67,6.48,9.75,6.76,15.29.31,16.05.31,20.23-1.36,7.8-1.49,11.38,1.31,6.9,3.45,8.53C208.65,190.79,209.06,192.37,209.19,194Z" fill="url(#radial-gradient-24)" style="mix-blend-mode:darken"/><path d="M225.11,186.25c-1.27,3.13-5.12,2.86-7.8,2.86s-4.26,4.94-8.8,4.94-5.53-4.22-7.94-4.94c-3.13.13-7.66.13-8.07-4.27s1.31-8.61,4.17-10.7c-1.54,1.77-2.18,5.94-1,10.21,2.9-.23,5.17.09,7.44,2.81s6.62,4.35,9.66,1.13,8.3-4.81,11.52-3.31a6.57,6.57,0,0,0,1.23-3.36A8.92,8.92,0,0,1,225.11,186.25Z" fill="url(#linear-gradient-42)" style="mix-blend-mode:darken"/><path d="M196.66,174.12c-3,2.29-4.32,6.21-4.22,9.88a4.45,4.45,0,0,0,2.66,4.47,13.17,13.17,0,0,0,5.48.58h0c1.75.66,2.58,2.43,4,3.52a6,6,0,0,0,4.94,1.41,8.43,8.43,0,0,0,4.46-2.74,11.42,11.42,0,0,1,2-1.72,4.38,4.38,0,0,1,2.58-.41,9.16,9.16,0,0,0,5.13-1.06c1.53-1,1.91-3,1.91-4.73-.05-3.47-1.48-7.32-4.74-9a7.1,7.1,0,0,1,4.42,3.4,11.34,11.34,0,0,1,1.74,5.55,9.11,9.11,0,0,1-.39,3.1,4.54,4.54,0,0,1-2.16,2.76c-2.24,1-4.17.22-5.91,0a3.33,3.33,0,0,0-2.54.39,6.84,6.84,0,0,0-1.61,2.12c-.9,1.49-2.18,3.55-4.61,4a6,6,0,0,1-6-2.22c-1.32-1.56-1.62-3.53-3.23-4.27h0c-1.88-.15-3.66.24-5.77-.09a4.51,4.51,0,0,1-2.89-1.84,5.6,5.6,0,0,1-.88-3.25,11.73,11.73,0,0,1,1.39-5.88A8.33,8.33,0,0,1,196.66,174.12Z" fill="#b8784d"/><path d="M196.09,187.32c-.56-.83.38-1.46,2-1.52s3.16,1.52,4.23,4c-1.9-1.64-2.28-2-3.86-1.89S196.79,188.33,196.09,187.32Z" fill="url(#radial-gradient-25)"/><path d="M222.07,187.18c.57-.83-.38-1.46-2-1.52s-3.16,1.52-4.23,4c1.89-1.64,2.27-2,3.85-1.9S221.38,188.19,222.07,187.18Z" fill="url(#radial-gradient-26)"/><path d="M137.28,129.83c9.81-9.8,15.43-14.94,21.76-15.74s17.56-1.28,22-1.63,9.67-1.55,11.27-2.7c-2,4.51-4.59,6.39-11.27,7.3a211.12,211.12,0,0,1-23.65,1.6C153.17,118.53,145.81,123.28,137.28,129.83Z" fill="url(#radial-gradient-27)"/><path d="M281.21,124.87c-10-9.62-15.69-14.66-22-15.34s-17.58-1-22.06-1.23-9.69-1.37-11.32-2.5c2.13,4.47,4.71,6.31,11.41,7.1a212,212,0,0,0,23.67,1.16C265.13,113.86,272.57,118.47,281.21,124.87Z" fill="url(#radial-gradient-28)"/><path d="M288.3,133.68c-.41,6.94-1.49,16.87-2.9,26.94-4.36-6.67-17.24-26.72-24-40.28-8.25-16.42-17.6-32-22.13-42.82s-15.61-16.69-29.22-12.75c-7.62-1.95-17.82-1.13-27.21,11.66s-17.29,30-21.51,40.83S144,150.69,138.65,161.17c1.68,29.21,4.72,42.68,14.7,54.38S193.27,249,208.56,249c10.43,0,29.21-8.58,41.23-14.7a158.87,158.87,0,0,1-20.37,11.16c-7.3,3.26-14.83,5.62-21.23,5.62-5.89,0-12.88-2.13-20-5.35a155.76,155.76,0,0,1-36-23.59c-1.27-1.13-2.4-2.27-3.49-3.45-7.62-8.16-11.52-17.23-13.25-28.85-1-6.57-2-15.55-3.22-26.08-1.22-10.79-2.58-23.13-4.17-36-1.09-8.71-.54-30.12,6.26-52l5.67-10.12s71.72-29.75,72.58-30.34,41.37,0,41.37,0S279,89.45,279.82,89.45c.27,0,3.18,5.21,7,12.38v0A188.21,188.21,0,0,1,288.3,133.68Z" fill="url(#linear-gradient-43)" style="mix-blend-mode:darken"/><path d="M209.87,61.87c-7.35-2.13-15.38,0-22.72,5.17a44.46,44.46,0,0,0-7.85,7,54.44,54.44,0,0,0-4.18,5.17c-11.34,15.88-16.19,28.17-25.13,43.37-8.43,14.29-11.06,19.59-21.54,35.88a74.42,74.42,0,0,0-9.3,19.91,51.91,51.91,0,0,0-1.5,20.69c.77,6.58,5.17,12.2,9.75,16.74,4.86,4.76,11.3,7.93,15.84,12.88a16.49,16.49,0,0,1,1.63,2.18,11.24,11.24,0,0,1,1.86,7.62c-1.09,7-9.8,10.43-12.3,17.1a10.47,10.47,0,0,0-.36,6,10.81,10.81,0,0,0,4.54,6.89c1.81,1.18,3.94,1.82,5.8,2.95a12.61,12.61,0,0,1,4.81,15.33,10.34,10.34,0,0,1-.81,1.59c-1.36,2.31-3.18,4.45-3.72,7a8.34,8.34,0,0,0,6.21,9.53A20.39,20.39,0,0,1,137.43,301c-3.72-2.9-6.13-7.76-5.54-12.47.28-2.09,1.09-4.09,1.5-6.13a15.59,15.59,0,0,0,.32-4.35,16.76,16.76,0,0,0-3-8.76c-2.09-3-5-5.26-7.62-7.75s-5-5.63-5.4-9.26a12.88,12.88,0,0,1,.64-5.44.16.16,0,0,0,0-.09c.59-2.09,1.5-4.18,2.09-6.26v-.14a3.32,3.32,0,0,0,.18-.59,21.14,21.14,0,0,0-4.35-18.41c-4.68-5.67-9.44-10.44-12.66-17.33-5.67-12.11-5.31-29.13-.41-54.07,4-20.1,13.84-54.62,24.41-80.52l.81-2c2.32-5.49,4.63-10.57,6.94-15,1.95-3.77,4-7.53,6.31-11.21,1.54-2.49,3.13-4.94,4.85-7.3,12.88-18,31.26-32.52,61.42-31.39C208.37,13.83,209.87,54.66,209.87,61.87Z" fill="url(#radial-gradient-29)"/><path d="M209.87,61.87c-6.28-1.84-13.1-.41-18.74,2.69a44.86,44.86,0,0,0-14.45,12.75c-8,10.24-14,21.81-20,33.24-3,5.74-6.24,11.35-9.54,16.92l-9.8,16.78c-3.31,5.56-6.85,11-10.28,16.48a72.24,72.24,0,0,0-7.91,17.67,72.73,72.73,0,0,1,7.16-18.12c3.3-5.64,6.68-11.1,9.85-16.75,6.21-11.31,13-22.41,18.92-33.83,6.14-11.35,12.19-23,20.49-33.25a45.88,45.88,0,0,1,15.14-12.68C196.63,60.84,203.68,59.73,209.87,61.87Z" fill="#4d352a"/><path d="M149.22,286.77a10.34,10.34,0,0,1-.81,1.59,18.53,18.53,0,0,0-4.95-8.66c-.32,1-.63,2.22-1,3.49a18.64,18.64,0,0,1-2.72,6.12c-.54-3.94-1-6.67-2.45-9.7a15.93,15.93,0,0,0-3.58-1.59,16.76,16.76,0,0,0-3-8.76c-2.09-3-5-5.26-7.62-7.75s-5-5.63-5.4-9.26a12.88,12.88,0,0,1,.64-5.44.16.16,0,0,0,0-.09,27.41,27.41,0,0,0,2.09-6.26v-.14c.86-4.85-.18-9.34-3.63-12.52-4.9-4.53-20.41-14.74-25.31-30.62s-3.4-31.75,2.27-49.12c6.53-20,9.43-35.16,15.51-61.65,4.94-21.55,12.84-39.6,24.86-55.75a96.25,96.25,0,0,0-6.53,38.74c0,1,.09,2,.18,3,1.86-3.31,7.84-7.8,9.39-8.26-5.36,8.48-9.48,20.6-13.16,34,4.63-8.21,9.85-15.11,15.88-20-8.71,27.22-12.88,42.32-19.28,57.06s-18.92,32.89-17.78,49.9,11.34,26.49,11.34,26.49c-4.17-8.71-6-18.55-4.17-27.21,1.13,5.26,3,9.79,4.53,11.34,0-5.77,1.41-11,4.54-17.29a51.91,51.91,0,0,0-1.5,20.69c.77,6.58,5.17,12.2,9.75,16.74,4.86,4.76,11.3,7.93,15.84,12.88a16.49,16.49,0,0,1,1.63,2.18c-3.63-2.73-8.44-5.85-12.75-7,4.27,2.26,7.08,12.74,6.22,15.28-3.41-5.94-9.35-11.07-11.34-12.2,2.26,4.26,5.39,9.07,1.72,15.06s-6.94,11.07-6.26,15.29,9.66,8.8,9.66,8.8c-2.86-3.68-3.72-7.12-2.27-11.34,1.18,1.18.77,4.62,4.22,6.85a10.81,10.81,0,0,0,4.54,6.89c1.81,1.18,3.94,1.82,5.8,2.95A12.61,12.61,0,0,1,149.22,286.77Z" fill="url(#linear-gradient-44)" style="mix-blend-mode:multiply"/><path d="M130.75,269.26c-3.36-4.35-8.48-6.72-11.87-11.46a12.12,12.12,0,0,1-2.24-8.4c.31-3,1.4-5.59,2.14-8.12a19.81,19.81,0,0,0-1.08-14.76,26.41,26.41,0,0,0-4.51-6.25c-1.77-2.05-3.62-4.09-5.34-6.28a43.21,43.21,0,0,1-7.8-15,55.91,55.91,0,0,1-1.92-16.62A121.57,121.57,0,0,1,99.75,166c1-5.39,2.2-10.72,3.54-16-2.06,10.69-3.8,21.52-3.77,32.44a58.74,58.74,0,0,0,2.11,16.16,41.39,41.39,0,0,0,7.64,14.34c1.68,2.15,3.48,4.2,5.25,6.27a27.87,27.87,0,0,1,4.67,6.68,20.75,20.75,0,0,1,.92,15.9c-.85,2.59-2,5.11-2.33,7.83a11.11,11.11,0,0,0,1.85,7.77C122.58,262,127.63,264.74,130.75,269.26Z" fill="#4d352a"/><path d="M128.47,158.49c-6.38,11.06-10.74,23.53-9.77,36.06.27,3.18.52,6.19,1.69,8.9a28.35,28.35,0,0,0,4.87,7.62c4,4.89,9.13,8.08,14.46,12,2.54,2.07,5.18,4.27,7,7.46a12,12,0,0,1,.9,10.7c-1.48,3.45-4.11,5.75-6.37,8s-4.49,4.33-5.56,6.94a9.84,9.84,0,0,0,.61,8.21,9.39,9.39,0,0,0,2.81,3.23,35.57,35.57,0,0,0,4.1,2.2,13,13,0,0,1,6,17c2.61-5.93-.33-13.66-6.36-16.18a34.37,34.37,0,0,1-4.29-2.15,10.61,10.61,0,0,1-3.23-3.5,11.11,11.11,0,0,1-.92-9.26c2.37-6.15,9.12-9.05,11.71-15a10.31,10.31,0,0,0-.88-9.22c-1.62-2.8-4.13-4.91-6.62-6.89-5.11-3.83-10.58-7.34-14.61-12.4a29.73,29.73,0,0,1-5.07-8.11c-1.26-3-1.47-6.24-1.63-9.42C116.56,181.68,121.53,169.17,128.47,158.49Z" fill="#4d352a"/><path d="M310.44,190a38.61,38.61,0,0,0-4,6.12c-1.09,2.09-2.13,4.22-3.27,6.35-1.59,3-4.26,5-4.22,8.76a43.68,43.68,0,0,0,1.77,10.7,0,0,0,0,0,0,.05c1.09,3.9,2.45,7.8,3.44,11.74,1.32,5.36,1.68,11.44-.18,16.47a14.32,14.32,0,0,1-3.31,5.49c-3.45,3.63-8.48,5.17-12.93,7.44s-8.93,6.08-9.07,11.07v.41c0,2.35,1,4.67,1.72,6.94a28.46,28.46,0,0,1,.82,16.28,17.55,17.55,0,0,1-2.27,5.35c-2.95,4.77-7.89,8-13.15,9.94s-10.84,2.72-16.42,3.45a24,24,0,0,0,13.33-11.71c2-4.08,2.82-9,.87-13.15-1.73-3.63-5.36-6.13-7-9.85-2.63-5.8.59-12.83,5.44-17S273.2,258.69,279,256c5.53-2.59,11.38-6.85,11.43-12.93,0-3.86-2.36-7.21-4-10.66-5.58-11.79-1.23-21.28,4.31-31.66,5.3-9.89,8.57-20.64,7.39-31.94-2.13-20.05-15.38-30.44-27-49.53s-13.56-24-25.63-44.59c-.14-.28-.32-.5-.45-.78a40,40,0,0,0-3.72-5.3c-8.76-10.57-19.19-9.44-31.44-6.76-2.27-8.71-5.26-42-1.86-59.38C239.67-4,261.49,18.82,271.93,35.1c1.22,1.86,2.26,3.63,3.17,5.27.32.63.64,1.22.95,1.81,7.94,15.52,32.48,69.95,39.29,89.23S318.38,180.17,310.44,190Z" fill="url(#radial-gradient-30)"/><path d="M174.94,62A126.49,126.49,0,0,0,187.15,67a44.46,44.46,0,0,0-7.85,7c-5.08-3.17-11.07-6.62-12.89-8.44a65.88,65.88,0,0,0,4.81-4.8c-8.21.81-17,1.4-17,1.4a60.86,60.86,0,0,1,1.14-8.8c-5.67.32-8.49.59-8.49.59-1.13-4.54,0-13.61,0-13.61a32.17,32.17,0,0,0-4.26,4c-.32-1-.59-2.09-.86-3.18-1.09-5.17-1.36-11.2-.77-19,.63-.77,1.31-1.54,2-2.31s1.64-1.73,2.5-2.59c-.41,7.9.27,15,.81,16.83a3,3,0,0,1,.32-.27,21.57,21.57,0,0,1,7.58-4c-2.77,6-1.91,17.83-1.91,17.83,5.35-.27,12.75-.27,12.75-.27a21.08,21.08,0,0,0-4.54,8.21c7.67,1.13,19.55,2,19.55,2C178.89,58,174.94,62,174.94,62Z" opacity="0.7" fill="url(#radial-gradient-31)" style="mix-blend-mode:screen"/><path d="M277.28,40.14c-.68,0-1.41.14-2.18.23-2.63.27-5.49.59-5.49.59,3.13,4.53,3.95,11.06,3.95,11.06-5.63,1.41-15.29,8.81-15.29,8.81a23.47,23.47,0,0,1-3.94,10.75c-1.91.49-5.22,1.77-8.85,3.13-.14-.28-.32-.5-.45-.78a40,40,0,0,0-3.72-5.3,103,103,0,0,0,9.57-3.86c2.86-5.4,2.27-9.34,2.27-9.34a91.37,91.37,0,0,0,13.61-9.35c-1.41-3.4-5.09-6.8-5.09-6.8,3.13-1.73,9.62-3.4,9.62-3.4a4.84,4.84,0,0,0,.64-.78c1.95-2.67,2.95-8,3.17-13.51l2.68,2.9A66.64,66.64,0,0,1,277.28,40.14Z" opacity="0.7" fill="url(#radial-gradient-31)" style="mix-blend-mode:screen"/><path d="M208,2.5c1,9.87,1.43,19.77,1.84,29.66.24,9.9.51,19.8,0,29.69-1.1-9.89-1.46-19.77-1.84-29.66C207.83,22.31,207.6,12.42,208,2.5Z" fill="#4d352a"/><path d="M303.18,202.49c-1.59,3-4.26,5-4.22,8.76a43.68,43.68,0,0,0,1.77,10.7,13.88,13.88,0,0,1-2.22-4c.41,4.35,2.86,9.84,4,13.43a48.34,48.34,0,0,1-7.76-12.48c-1.13,7,4.54,15.88,4.18,21.37-3.22-8.53-7.76-11.71-8.3-17.38-1.18,7,2.26,11.89,3,16.24s0,11.93-3.77,15.52c1.91,1.67,8.67-3.81,9.62-6.44-.36,2.63-1.5,6.44-3.17,7.75,1.18,0,5.3-3.13,7.75-5.76a14.49,14.49,0,0,0,1.5-1.81c-1.72,8.12-17.78,18.14-21.37,21a24.5,24.5,0,0,0-5.44,5.22,14.74,14.74,0,0,0-2.31,8.57c-3.22-1.54-3.18-6.58-2-10.84-3.63,3.67-4.77,9.7-2.68,15.74-3.45-2.45-5.67-9.44-4.17-14.34-3.22,3.59-2.77,9.53-.55,13.07,2,3.35,3.4,11.29,0,16.19,3.4-2.63,6.22-4.9,7.94-7.53,0,3.77-1.13,7.94-2.86,9.8,2.13-1,6.26-4.31,9.21-7.44a17.55,17.55,0,0,1-2.27,5.35c-2.95,4.77-7.89,8-13.15,9.94s-10.84,2.72-16.42,3.45a24,24,0,0,0,13.33-11.71c2-4.08,2.82-9,.87-13.15-1.73-3.63-5.36-6.13-7-9.85-2.63-5.8.59-12.83,5.44-17S273.2,258.69,279,256c5.53-2.59,11.38-6.85,11.43-12.93,0-3.86-2.36-7.21-4-10.66-5.58-11.79-1.23-21.28,4.31-31.66,5.3-9.89,8.57-20.64,7.39-31.94-2.13-20.05-15.38-30.44-27-49.53s-13.56-24-25.63-44.59c-.14-.28-.32-.5-.45-.78a40,40,0,0,0-3.72-5.3c-8.76-10.57-19.19-9.44-31.44-6.76,7.58-4.76,20.91-6.44,28.85.63s18.69,26.09,23,34,21.55,34,26.09,39.7S302,159.49,302.5,169.1s-2.81,21.82-5.4,29.81c4.86-2.27,10.3-13.25,11.07-15.88,0,3.76-1.31,9.62-2.27,13.38l.55-.27C305.36,198.23,304.32,200.36,303.18,202.49Z" fill="url(#linear-gradient-45)" style="mix-blend-mode:multiply"/><path d="M298.09,168.82a48.9,48.9,0,0,1-1.33,20c-1.72,6.58-5.17,12.62-7.84,18.55s-4.41,12.32-3,18.48a32.32,32.32,0,0,0,3.57,8.82c1.55,2.87,3.37,6.68,2.42,10.73s-3.76,6.81-6.6,8.87a44.61,44.61,0,0,1-9.21,4.77c-6.1,2.56-12.31,5.16-16.1,10.1a14.37,14.37,0,0,0-3.15,8.49c-.1,3.09,1.54,5.78,3.7,8.31s4.34,5.6,4.53,9.14a17.32,17.32,0,0,1-2.32,9.75,17.07,17.07,0,0,0,1.88-9.69c-.34-3.41-2.55-6.17-4.75-8.63s-4.19-5.42-4.18-8.85a15.6,15.6,0,0,1,3.17-9.32c4-5.54,10.54-8.18,16.57-10.81a44,44,0,0,0,8.85-4.65c2.65-1.95,5.12-4.55,5.85-7.87s-.66-6.65-2.2-9.54a33.61,33.61,0,0,1-3.65-9.29c-1.43-6.63.49-13.42,3.35-19.4S294,195,295.91,188.6A48.6,48.6,0,0,0,298.09,168.82Z" fill="#4d352a"/><circle cx="209.24" cy="214.9" r="18.66" fill="url(#radial-gradient-33)" style="mix-blend-mode:darken"/><path d="M246,193.6c-10.44,14.6-15.84,33.16-36.11,33.16s-23-13.79-37.29-32.53c7.94,2.45,18.43,5.32,24.37,5.45s9.65,1,11.78,2.13c4.68-2.54,8.09-2.13,13.62-2.26,5.31-.14,18.55-4.28,23.22-5.82A1,1,0,0,1,246,193.6Z" fill="url(#radial-gradient-34)"/><g clip-path="url(#clip-path-3)"><path d="M194.34,225.25c-4.62-2.56-6.05-8.13-2.27-10.68,3.61-2.44,12-2.55,16.83.66,8.5-4.15,15.4-2.93,19.18-.09,3.09,2.31,1.23,7.65-3.59,10.3C221.29,227.19,205.59,231.49,194.34,225.25Z" fill="url(#radial-gradient-35)"/><path d="M183,222.89c1.27-4.25,4.28-7.37,5.91-6,9.47,7.89,33.57,6.4,42.74-.71,2-1.52,3.94,6.14,4.22,6.85C229,233,200,238.06,183,222.89Z" fill="url(#Gradient_Eye-3)"/><path d="M236.42,193.41c-.13,1.32-.68,6.94-1.08,9.85a8.86,8.86,0,0,0-7.4-1.27A112.17,112.17,0,0,1,208,204.26c-5.13,0-10.3-1.59-14.56-1.68-3.59-.09-6.4.86-8.8,3.72a3.25,3.25,0,0,1-.73-1c-.41-1.54-1.41-6.08-2.27-10.21,4.67-1.77,11.93-3,19.69-3.76l20.23-.64C229.3,190.92,235.25,191.83,236.42,193.41Z" fill="url(#linear-gradient-46)" style="mix-blend-mode:multiply"/><path d="M236.42,190.86c-.13,1.32-.68,6.94-1.08,9.85-.09.49-.19.9-.23,1.22a4.65,4.65,0,0,1-1.32,2.22c-2.31,2.59-8.34,6-22.77,6-15.06,0-22.72-3.49-25.67-5.76a9.09,9.09,0,0,1-.68-.63,3.37,3.37,0,0,1-.73-1c-.41-1.55-1.41-6.08-2.27-10.21,4.67-1.77,11.93-3,19.69-3.76a161.35,161.35,0,0,1,20.23-.64C229.3,188.37,235.25,189.27,236.42,190.86Z" fill="url(#Gradient_Eye-4)"/><polygon points="213.53 203.51 212.29 209.08 215.33 208.85 213.53 203.51" fill="#fff"/></g><path d="M246,193.55c-6.53,4.94-27.9,9.48-37.15,9.48s-25.22-3.27-36.29-8.8a106.26,106.26,0,0,0,24.81,3.86c6,.13,9.21,1.4,11.34,2.54,4.68-2.54,8.53-2.54,14.07-2.68S241.78,195.09,246,193.55Z" fill="url(#radial-gradient-36)"/><path d="M246,193.6c-8.66,15.21-15.84,36.61-36.11,36.61s-24.81-16.39-37.29-36l1.86.86c7.12,11.35,15.29,29,34.29,29s29.44-17.46,35.25-29.54a7.27,7.27,0,0,1,1.59-.82A1,1,0,0,1,246,193.6Z" fill="url(#radial-gradient-37)"/><path d="M209.48,226.14c.73-.17,1.42-.27,2.1-.37l2-.28,2-.15c.68,0,1.38-.09,2.13-.07a6.09,6.09,0,0,1-1.89,1.13,8.82,8.82,0,0,1-2.11.53,8.3,8.3,0,0,1-2.17-.08A6.49,6.49,0,0,1,209.48,226.14Z" fill="#fbdcdd"/><circle cx="245.72" cy="194.35" r="4.91" opacity="0.7" fill="url(#radial-gradient-38)" style="mix-blend-mode:darken"/><circle cx="172.14" cy="194.76" r="4.91" opacity="0.7" fill="url(#radial-gradient-39)" style="mix-blend-mode:darken"/><path d="M48.26,262c-3.86,12.81-19.69,7.34-26.18,2.46a9.84,9.84,0,0,1-2.5-2.46c5.35-6.91,10.35-15.1,11.16-24.9s1.57-17.77,0-24.43a6.23,6.23,0,0,1,.42-4.58c1.7-2.89,6.2-3.1,10.18.89,5.56,5.56,8.49,14.59,6.62,24.39S46.39,255.08,48.26,262Z" fill="url(#linear-gradient-47)"/><path d="M34.17,245.28a28.68,28.68,0,0,0,0,17.52,38,38,0,0,1-12.09,1.65,9.84,9.84,0,0,1-2.5-2.46c5.35-6.91,10.35-15.1,11.16-24.9s1.57-17.77,0-24.43a6.23,6.23,0,0,1,.42-4.58c.72,2.76,2.08,6.28,3,10.69C36,227.51,36.85,237.09,34.17,245.28Z" fill="url(#linear-gradient-48)" style="mix-blend-mode:darken"/><path d="M51.85,292.26c-.14.14-.27.32-.41.46s0,0,.05,0a13.3,13.3,0,0,1,1.9,11.93v.05A10.59,10.59,0,0,1,49.26,310h0a7.71,7.71,0,0,1-1.73.91,2,2,0,0,1,.09.54c0,.05.05.14.05.19a13,13,0,0,1-.68,7.34,12,12,0,0,1-2.09,3.41h0a10.56,10.56,0,0,1-2.72,2.4c-.05.05-.14.09-.19.14-3.85,2.63-6.8,7.8-17.69,5.58s-15-7.4-17-9.67-3.08-4.53-2.54-7.07-.09-6.44-1.49-9.57a29,29,0,0,1-1.77-3.9v-.05a9.42,9.42,0,0,1,.13-4.35c.23-1.09.41-2.09.55-3A11.41,11.41,0,0,0,1,285.37a8.56,8.56,0,0,1-1-4.18v0a10.35,10.35,0,0,1,1.54-5.45c1-1.49,2-2.72,2.81-3.81a8.13,8.13,0,0,0,1.46-3.08c.31-2-.46-5.35.18-7.71a4.14,4.14,0,0,1,.68-1.54c1.68-2.27,4.53-6.22,10.2-5.95s8.49.28,16.43.28c8.52,0,10.47-1.73,15.33.86,3.67,1.95,5.58,6.53,5.31,11.16a14.46,14.46,0,0,1-1.37,5.44,13.33,13.33,0,0,1-.72,1.41c-.05,0-.05.09-.09.13l0,.05a13,13,0,0,1,3.72,11.84,15,15,0,0,1-2.58,6.08A11,11,0,0,1,51.85,292.26Z" fill="url(#linear-gradient-49)"/><path d="M25.13,253.86a26.94,26.94,0,0,1,5.48-1.16c.91-.14,1.82-.15,2.73-.24s1.78-.08,2.67-.14c1.78,0,3.55-.16,5.43-.08a12.65,12.65,0,0,1,2.89.4,7.06,7.06,0,0,1,2.6,1.33,11.78,11.78,0,0,0-5.4-.57c-1.82.15-3.63.34-5.45.42s-3.65.06-5.48.06Z" fill="#b8784d"/><path d="M1,285.37a8.56,8.56,0,0,1-1-4.18,6.94,6.94,0,0,0,1.63,2.18c1.91,1.5,2.68-.18,5.13-.77a18.76,18.76,0,0,1,4.9-.36c-3.22,2.08-5.26,3-6.62,5.67a42.72,42.72,0,0,1-2.95,4.9A11.41,11.41,0,0,0,1,285.37Z" fill="url(#linear-gradient-50)" style="mix-blend-mode:darken"/><path d="M5.81,268.81c.31-2-.46-5.35.18-7.71.5,1.45,1.09,2.67,1.31,3.35.59,1.91,1.73,2.27,3.63,1.73a3.61,3.61,0,0,1,3,.18,44.74,44.74,0,0,1-9.58,5.53A8.13,8.13,0,0,0,5.81,268.81Z" fill="url(#linear-gradient-51)" style="mix-blend-mode:darken"/><path d="M47,318.93a12,12,0,0,1-2.09,3.41h0a10.56,10.56,0,0,1-2.72,2.4c-.05.05-.14.09-.19.14-3.85,2.63-6.8,7.8-17.69,5.58s-15-7.4-17-9.67-3.08-4.53-2.54-7.07-.09-6.44-1.49-9.57a29,29,0,0,1-1.77-3.9,14,14,0,0,0,2,1.81c2.27,1.72,3.94-.36,5.85-.91A8.21,8.21,0,0,1,13,301c-3.4,2.63-4.35,2.45-4.71,5.63s-1.28,4.67-1,6.07-.45,1,2,3.22,4.72,4.54,9.62,4.54C23.18,320.43,40.83,320.7,47,318.93Z" fill="url(#linear-gradient-52)" style="mix-blend-mode:darken"/><path d="M53.94,265.91a14.46,14.46,0,0,1-1.37,5.44,13.33,13.33,0,0,1-.72,1.41c-7.94.27-20.87.49-32.71-.32,3.13-.36,15.56-.59,22.77-2.09A44.89,44.89,0,0,0,53.94,265.91Z" fill="url(#linear-gradient-53)"/><path d="M55.52,284.78a15,15,0,0,1-2.58,6.08,11,11,0,0,1-1.09,1.4c-7.12-.41-19.28-1.09-31-1.63C37.15,291,49.49,287.54,55.52,284.78Z" fill="url(#linear-gradient-54)"/><path d="M53.39,304.74A10.59,10.59,0,0,1,49.26,310h0a7.71,7.71,0,0,1-1.73.91,2,2,0,0,1,.09.54c-5.89-.45-15.69-1.18-27.3-1.72C34.84,309.68,47.54,307.41,53.39,304.74Z" fill="url(#linear-gradient-55)"/><path d="M51.76,272.89l0,.05c-3.22.27-6.44.41-9.66.5-3.85.09-7.66,0-11.52-.09s-7.67-.46-11.48-.91c4.36-.18,7.94-.32,11.48-.5,3.95-.09,7.67-.23,11.48-.32l10.47-.27A9.44,9.44,0,0,1,51.76,272.89Z" fill="#b8784d"/><path d="M51.44,292.72s0,0,.05,0c-2.36,0-4.68-.09-7-.18-3.94-.18-7.89-.41-11.79-.73s-7.89-.68-11.84-1.22c4-.23,7.94-.32,11.89-.32s7.89.05,11.84.14c2.81.09,5.58.22,8.39.41A15.09,15.09,0,0,1,51.44,292.72Z" fill="#b8784d"/><path d="M47.49,310.86c0,.23.09.5.14.73-2.77,0-5.49,0-8.21-.14-3.27-.18-6.49-.36-9.75-.68s-6.49-.64-9.71-1.09c3.22-.18,6.49-.36,9.75-.41s6.53,0,9.8.05,6.44.36,9.71.63A7.71,7.71,0,0,1,47.49,310.86Z" fill="#b8784d"/><path d="M44.82,322.34a10.56,10.56,0,0,1-2.72,2.4c-.05.05-.14.09-.19.14a50.92,50.92,0,0,1-5.17.81,50.06,50.06,0,0,1-8.66-.09,52.55,52.55,0,0,1-8.48-1.45c3.4,0,6,0,8.52-.09,2.86-.05,5.67-.18,8.44-.5A63,63,0,0,0,44.82,322.34Z" fill="#b8784d"/><path d="M285.08,336.35c.55,8.71,1.91,16.88,4.45,22.82,23.81-5.13,28.35-5.4,38.24-6.53s7.39,1.13,14.79.54,9.07,4,15.55,1.18,29.26-7.89,42.55-22.68c-3.81-14.65-13.6-31.34-19.32-40.19-2.5-3.95-4.22-6.35-4.22-6.35-5.58,3.36-9.34,5.67-12.2,7.35a29,29,0,0,1-6.22,2.9,6.76,6.76,0,0,1-1.54.23c-2.08-.05-3.22-1.32-5.12-.41a7.68,7.68,0,0,0-2.14,1.59c-2.08,2.08-3.26,2.86-4.17,3.08a3.12,3.12,0,0,1-2-.22c-.59-.23-1.59-.82-2.72-1.18a4.23,4.23,0,0,0-4.49.68,4.8,4.8,0,0,1-4.9,1.4L330,300c-1.05-.32-2.05-1.36-3.41-2.13a7.5,7.5,0,0,0-6.21-.82c-3.4.91-4.54,1.09-6,.86-.87-.13-1.91-.45-3.59-.86-4.53-1.13-3.58-2.31-7.39-.59s-16.47.86-16.47.86c-.63,4.13-1.18,9.07-1.54,14.43A184.2,184.2,0,0,0,285.08,336.35Z" fill="url(#radial-gradient-40)"/><path d="M364.92,292.49c-2.59,4.22-5.31,9.43-6.49,13.92,2.54-4.53,11.61-15.28,18.69-21.27C371.54,288.5,367.78,290.81,364.92,292.49Z" fill="url(#linear-gradient-56)" style="mix-blend-mode:multiply"/><path d="M352,295.21c-3.45,6.71-7.94,17.6-8.94,23.68,1.5-5.72,7.67-15.79,14.06-23.27C355.08,295.57,353.94,294.3,352,295.21Z" fill="url(#linear-gradient-57)" style="mix-blend-mode:multiply"/><path d="M341.06,298.48a210.49,210.49,0,0,0-9.71,22.22c1.91-4.53,8.48-13.65,14.38-20.82a3.12,3.12,0,0,1-2-.22C343.19,299.43,342.19,298.84,341.06,298.48Z" fill="url(#linear-gradient-58)" style="mix-blend-mode:multiply"/><path d="M308.22,316.08c1.95-1.32,16.1-10.48,23.45-15.52L330,300c-1.05-.32-2.05-1.36-3.41-2.13C322.91,301.65,317.11,307,308.22,316.08Z" fill="url(#linear-gradient-59)" style="mix-blend-mode:multiply"/><path d="M285.4,311.77c11.7-1.95,21.5-7.94,29-13.84-.87-.13-1.91-.45-3.59-.86-4.53-1.13-3.58-2.31-7.39-.59s-16.47.86-16.47.86C286.31,301.47,285.76,306.41,285.4,311.77Z" fill="url(#linear-gradient-60)" style="mix-blend-mode:multiply"/><path d="M285.08,336.35c.55,8.71,1.91,16.88,4.45,22.82,23.81-5.13,28.35-5.4,38.24-6.53s7.39,1.13,14.79.54,9.07,4,15.55,1.18,29.26-7.89,42.55-22.68c-3.81-14.65-13.6-31.34-19.32-40.19l-1,.18c-2.67,13.88-5.49,27.49-3.49,34.3s-7.94,11.06-14.2,11.65a12.41,12.41,0,0,1-11.34-5.12c-1.41,4.53-3.13,10.52-7.08,11.61s-3.94-16.42-2-23.23c-5.67,9.08-15.29,19.28-18.69,21.28s7.66-19.64,7.8-21.46c-15.47,12.39-29.35,21.14-35.61,25.68s-5.94-2.81,4-13A132.42,132.42,0,0,1,316,318.71C303.27,326.06,292.34,332.36,285.08,336.35Z" fill="url(#linear-gradient-61)" style="mix-blend-mode:multiply"/><path d="M353.48,299.46a28.82,28.82,0,0,0-6.72,7.61,42.48,42.48,0,0,0-4.23,9.31,62.13,62.13,0,0,0-2.14,9.95,94.59,94.59,0,0,0-.79,10.09c.78-3.29,1.41-6.59,2.12-9.86s1.48-6.5,2.47-9.66a54.11,54.11,0,0,1,3.69-9.19A39.23,39.23,0,0,1,353.48,299.46Z" fill="#2d2835"/><path d="M341.24,305a57.51,57.51,0,0,0-6.22,7,84,84,0,0,0-5.18,7.82c-1.55,2.72-3,5.5-4.29,8.32s-2.48,5.72-3.58,8.64c1.65-2.65,3.25-5.32,4.77-8l4.61-8.06q2.28-4,4.73-8C337.71,310.13,339.44,307.56,341.24,305Z" fill="#2d2835"/><path d="M325,311.82c-3.59,2.46-7.08,5-10.54,7.66s-6.88,5.31-10.26,8-6.7,5.53-10,8.36-6.5,5.75-9.66,8.74c3.58-2.47,7.11-5,10.55-7.65s6.87-5.31,10.25-8,6.68-5.54,10-8.37S321.84,314.82,325,311.82Z" fill="#2d2835"/><path d="M311.5,337.18q-3.24,2.34-6.31,4.85c-2.05,1.67-4.05,3.41-6,5.19s-3.83,3.65-5.66,5.56-3.57,3.92-5.32,5.92c2.13-1.59,4.28-3.16,6.33-4.84s4-3.42,6-5.2,3.81-3.66,5.65-5.57S309.77,339.21,311.5,337.18Z" fill="#2d2835"/><path d="M327.67,300.61c-1.52.74-2.95,1.58-4.38,2.43s-2.81,1.73-4.19,2.63-2.72,1.87-4.05,2.86-2.62,2-3.93,3.09a41,41,0,0,0,4.65-1.93,42.44,42.44,0,0,0,4.34-2.5,45,45,0,0,0,4-3A31.49,31.49,0,0,0,327.67,300.61Z" fill="#2d2835"/><path d="M383.74,342.88c-2.54.48-5,1-7.52,1.46a45.09,45.09,0,0,1-7.46.68,27,27,0,0,1-7.32-.85,19.64,19.64,0,0,1-6.84-3.1,16,16,0,0,0,6.38,4.51,21.6,21.6,0,0,0,7.8,1.38,30.08,30.08,0,0,0,7.75-1.23A41.12,41.12,0,0,0,383.74,342.88Z" fill="#2d2835"/><path d="M368.42,293.19a34.33,34.33,0,0,0-5.08,4.32,41.21,41.21,0,0,0-4.29,5.13,43.32,43.32,0,0,0-3.35,5.79,34.26,34.26,0,0,0-2.26,6.27l3.47-5.61c1.16-1.84,2.36-3.65,3.62-5.42s2.49-3.55,3.81-5.29Z" fill="#2d2835"/><path d="M286.94,297.34l-1.62,15.53c-.37,5.19-.55,10.4-.51,15.61a130.72,130.72,0,0,0,1,15.57,59.13,59.13,0,0,0,3.72,15.12,87.13,87.13,0,0,1-2.35-15.3c-.35-5.12-.66-10.25-.56-15.41-.17-5.15,0-10.31.1-15.49S287.16,302.63,286.94,297.34Z" fill="#2d2835"/><path d="M376.63,263.22c3.86,12.81,19.68,7.34,26.17,2.46a9.91,9.91,0,0,0,2.51-2.46c-5.35-6.92-10.35-15.1-11.16-24.9s-1.57-17.78,0-24.44a6.24,6.24,0,0,0-.42-4.58c-1.7-2.88-6.2-3.09-10.19.89-5.55,5.56-8.48,14.6-6.61,24.4S378.5,256.3,376.63,263.22Z" fill="url(#linear-gradient-62)"/><path d="M390.71,246.51a28.57,28.57,0,0,1,0,17.51,38.08,38.08,0,0,0,12.09,1.66,9.91,9.91,0,0,0,2.51-2.46c-5.35-6.92-10.35-15.1-11.16-24.9s-1.57-17.78,0-24.44a6.24,6.24,0,0,0-.42-4.58c-.73,2.76-2.08,6.28-3,10.69C388.85,228.73,388,238.32,390.71,246.51Z" fill="url(#linear-gradient-63)" style="mix-blend-mode:darken"/><path d="M373,293.49c.13.13.27.31.41.45a0,0,0,0,1-.05.05,13.29,13.29,0,0,0-1.9,11.93v0a10.55,10.55,0,0,0,4.12,5.22h.05a7.61,7.61,0,0,0,1.72.9,2.74,2.74,0,0,0-.09.55s0,.13,0,.18a13,13,0,0,0,.68,7.35,11.9,11.9,0,0,0,2.08,3.4h.05a10.79,10.79,0,0,0,2.72,2.41s.14.09.18.13c3.86,2.63,6.81,7.8,17.69,5.58s15-7.39,17-9.66,3.09-4.54,2.54-7.08.1-6.44,1.5-9.57a29.75,29.75,0,0,0,1.77-3.9v-.05a9.59,9.59,0,0,0-.14-4.35c-.22-1.09-.4-2.09-.54-3a11.35,11.35,0,0,1,1.09-7.44,8.63,8.63,0,0,0,1-4.17v-.05a10.2,10.2,0,0,0-1.55-5.44c-1-1.5-2-2.72-2.81-3.81a8.29,8.29,0,0,1-1.45-3.09c-.32-2,.45-5.35-.18-7.71a4.31,4.31,0,0,0-.68-1.54c-1.68-2.27-4.54-6.21-10.21-5.94s-8.48.27-16.42.27c-8.53,0-10.48-1.72-15.33.86-3.68,2-5.58,6.53-5.31,11.16A15.52,15.52,0,0,0,373,274s0,.09.09.14l-.05,0A13,13,0,0,0,369.36,286a15,15,0,0,0,2.59,6.08A11.08,11.08,0,0,0,373,293.49Z" fill="url(#linear-gradient-64)"/><path d="M399.76,255.09h-5.48c-1.82,0-3.65,0-5.47,0s-3.64-.27-5.45-.43a11.78,11.78,0,0,0-5.4.57,7,7,0,0,1,2.6-1.33,13.14,13.14,0,0,1,2.88-.4c1.89-.08,3.66,0,5.44.09.89.06,1.78.09,2.67.14s1.82.1,2.73.24A25.65,25.65,0,0,1,399.76,255.09Z" fill="#b8784d"/><path d="M423.89,286.59a8.63,8.63,0,0,0,1-4.17,7,7,0,0,1-1.64,2.18c-1.9,1.49-2.67-.19-5.12-.78a19.28,19.28,0,0,0-4.9-.36c3.22,2.09,5.26,3,6.62,5.67a42.72,42.72,0,0,0,2.95,4.9A11.35,11.35,0,0,1,423.89,286.59Z" fill="url(#linear-gradient-65)" style="mix-blend-mode:darken"/><path d="M419.08,270c-.32-2,.45-5.35-.18-7.71-.5,1.45-1.09,2.68-1.32,3.36-.59,1.9-1.72,2.27-3.63,1.72a3.59,3.59,0,0,0-3,.18,44.71,44.71,0,0,0,9.57,5.54A8.29,8.29,0,0,1,419.08,270Z" fill="url(#linear-gradient-66)" style="mix-blend-mode:darken"/><path d="M377.94,320.16a11.9,11.9,0,0,0,2.08,3.4h.05a10.79,10.79,0,0,0,2.72,2.41s.14.09.18.13c3.86,2.63,6.81,7.8,17.69,5.58s15-7.39,17-9.66,3.09-4.54,2.54-7.08.1-6.44,1.5-9.57a29.75,29.75,0,0,0,1.77-3.9,12.92,12.92,0,0,1-2,1.81c-2.27,1.73-3.95-.36-5.85-.9a8.25,8.25,0,0,0-3.77-.18c3.41,2.63,4.36,2.45,4.72,5.62s1.27,4.67,1.05,6.07.45,1-2,3.23-4.72,4.54-9.62,4.54C401.71,321.66,384.06,321.93,377.94,320.16Z" fill="url(#linear-gradient-67)" style="mix-blend-mode:darken"/><path d="M371,267.13A15.52,15.52,0,0,0,373,274c7.94.27,20.87.5,32.7-.32-3.13-.36-15.55-.59-22.77-2.08A44.49,44.49,0,0,1,371,267.13Z" fill="url(#linear-gradient-68)"/><path d="M369.36,286a15,15,0,0,0,2.59,6.08,11.08,11.08,0,0,0,1.09,1.41c7.12-.41,19.28-1.09,31-1.64C387.74,292.22,375.4,288.77,369.36,286Z" fill="url(#linear-gradient-69)"/><path d="M371.5,306a10.55,10.55,0,0,0,4.12,5.22h.05a7.61,7.61,0,0,0,1.72.9,2.74,2.74,0,0,0-.09.55c5.9-.45,15.7-1.18,27.31-1.72C390.05,310.91,377.35,308.64,371.5,306Z" fill="url(#linear-gradient-70)"/><path d="M373.13,274.12l-.05,0c3.22.27,6.45.41,9.67.5,3.85.09,7.66,0,11.52-.09s7.66-.45,11.47-.91c-4.35-.18-7.93-.31-11.47-.5-3.95-.09-7.67-.22-11.48-.31l-10.48-.28A10,10,0,0,0,373.13,274.12Z" fill="#b8784d"/><path d="M373.45,293.94a0,0,0,0,1-.05.05c2.36-.05,4.67-.1,7-.19,3.95-.18,7.9-.4,11.8-.72s7.89-.68,11.84-1.23c-4-.22-7.94-.31-11.89-.31s-7.89,0-11.84.13c-2.81.09-5.58.23-8.39.41A14.21,14.21,0,0,0,373.45,293.94Z" fill="#b8784d"/><path d="M377.39,312.08l-.13.73c2.76,0,5.49-.05,8.21-.14,3.26-.18,6.48-.36,9.75-.68s6.49-.63,9.71-1.08c-3.22-.19-6.49-.37-9.75-.41s-6.54,0-9.8,0-6.44.37-9.71.64A7.61,7.61,0,0,0,377.39,312.08Z" fill="#b8784d"/><path d="M380.07,323.56a10.79,10.79,0,0,0,2.72,2.41s.14.09.18.13a51.87,51.87,0,0,0,5.17.82,51.18,51.18,0,0,0,8.67-.09,53.87,53.87,0,0,0,8.48-1.45c-3.4-.05-6-.05-8.53-.1-2.85,0-5.67-.18-8.43-.49A62.76,62.76,0,0,1,380.07,323.56Z" fill="#b8784d"/></g></g></g></svg>