<svg xmlns="http://www.w3.org/2000/svg" xmlns:xlink="http://www.w3.org/1999/xlink" viewBox="0 0 50.15 225.6"><defs><radialGradient id="radial-gradient" cx="47.6" cy="81.82" r="11.34" gradientUnits="userSpaceOnUse"><stop offset="0" stop-color="#4f455c"/><stop offset="1" stop-color="#3e3547"/></radialGradient><linearGradient id="linear-gradient" x1="45.95" y1="80.52" x2="36.03" y2="90.9" gradientUnits="userSpaceOnUse"><stop offset="0" stop-color="#a6a5b1"/><stop offset="1" stop-color="#a6a5b1" stop-opacity="0"/></linearGradient><radialGradient id="radial-gradient-2" cx="372.53" cy="220.78" r="9.96" gradientTransform="matrix(-1, 0, 0, 1, 412.29, 0)" gradientUnits="userSpaceOnUse"><stop offset="0" stop-color="#484c50"/><stop offset="1" stop-color="#35383b"/></radialGradient><linearGradient id="linear-gradient-2" x1="368.6" y1="219.54" x2="385.56" y2="219.54" gradientTransform="matrix(-1, 0, 0, 1, 412.29, 0)" xlink:href="#linear-gradient"/><radialGradient id="radial-gradient-3" cx="364.88" cy="221.15" r="10.61" gradientTransform="matrix(-1, 0, 0, 1, 412.29, 0)" gradientUnits="userSpaceOnUse"><stop offset="0" stop-color="#fff"/><stop offset="1" stop-color="#fff" stop-opacity="0"/></radialGradient><linearGradient id="linear-gradient-3" x1="378.71" y1="140.19" x2="378.13" y2="198.63" gradientTransform="matrix(-1, 0, 0, 1, 412.29, 0)" gradientUnits="userSpaceOnUse"><stop offset="0" stop-color="#fcc384"/><stop offset="1" stop-color="#fddfa9"/></linearGradient><linearGradient id="linear-gradient-4" x1="360.98" y1="153.18" x2="393.42" y2="211.93" gradientTransform="matrix(-1, 0, 0, 1, 412.29, 0)" gradientUnits="userSpaceOnUse"><stop offset="0" stop-color="#e09768"/><stop offset="1" stop-color="#e19768" stop-opacity="0"/></linearGradient><radialGradient id="radial-gradient-4" cx="380.42" cy="221.42" r="9.25" xlink:href="#radial-gradient-2"/><linearGradient id="linear-gradient-5" x1="377.82" y1="216.93" x2="394.58" y2="216.93" gradientTransform="matrix(-1, 0, 0, 1, 412.29, 0)" xlink:href="#linear-gradient"/><radialGradient id="radial-gradient-5" cx="374.13" cy="222.46" r="10.45" xlink:href="#radial-gradient-3"/><linearGradient id="linear-gradient-6" x1="389.45" y1="135.41" x2="388.83" y2="198.25" xlink:href="#linear-gradient-3"/><linearGradient id="linear-gradient-7" x1="371.49" y1="139.43" x2="407.1" y2="205.66" xlink:href="#linear-gradient-4"/><radialGradient id="radial-gradient-6" cx="380.35" cy="154.9" r="24.63" gradientTransform="matrix(-1, 0, 0, 1, 412.29, 0)" xlink:href="#radial-gradient"/><linearGradient id="linear-gradient-8" x1="383.36" y1="129.22" x2="408.31" y2="138.86" gradientTransform="matrix(-1, 0, 0, 1, 412.29, 0)" xlink:href="#linear-gradient"/><radialGradient id="radial-gradient-7" cx="384.97" cy="12.49" r="18.82" gradientTransform="matrix(-1, 0, 0, 1, 412.29, 0)" gradientUnits="userSpaceOnUse"><stop offset="0" stop-color="#845b48"/><stop offset="1" stop-color="#664638"/></radialGradient><radialGradient id="radial-gradient-8" cx="385.78" cy="33.96" r="48.54" gradientTransform="matrix(-1, 0, 0, 1, 412.29, 0)" xlink:href="#linear-gradient"/><linearGradient id="linear-gradient-9" x1="324.2" y1="-31.49" x2="324.26" y2="-31.49" gradientTransform="matrix(-0.95, 0.33, 0.33, 0.95, 349.77, 0.67)" xlink:href="#linear-gradient"/><radialGradient id="radial-gradient-9" cx="380" cy="71.05" r="24.85" gradientTransform="matrix(-1, 0, 0, 1, 412.29, 0)" xlink:href="#radial-gradient"/><radialGradient id="radial-gradient-10" cx="39.49" cy="121.81" r="23.97" gradientUnits="userSpaceOnUse"><stop offset="0" stop-color="#4f455c"/><stop offset="1" stop-color="#4f455c" stop-opacity="0"/></radialGradient><linearGradient id="linear-gradient-10" x1="371.47" y1="75.68" x2="371.41" y2="82.77" gradientTransform="matrix(-1, 0, 0, 1, 412.29, 0)" xlink:href="#linear-gradient"/><radialGradient id="radial-gradient-11" cx="382.39" cy="73.38" r="23.85" gradientTransform="matrix(-1, 0, 0, 1, 412.29, 0)" xlink:href="#radial-gradient"/><radialGradient id="radial-gradient-12" cx="29.57" cy="125.4" r="17.15" xlink:href="#radial-gradient-10"/><linearGradient id="linear-gradient-11" x1="29.54" y1="90.72" x2="29.71" y2="113.35" xlink:href="#linear-gradient"/><radialGradient id="radial-gradient-13" cx="379.29" cy="87.28" r="1.33" gradientTransform="matrix(-1, 0, 0, 1, 412.29, 0)" gradientUnits="userSpaceOnUse"><stop offset="0" stop-color="#3b3445"/><stop offset="1" stop-color="#2d2835"/></radialGradient><radialGradient id="radial-gradient-14" cx="379.17" cy="100.44" r="1.33" xlink:href="#radial-gradient-13"/><linearGradient id="linear-gradient-12" x1="28.82" y1="89.73" x2="2.66" y2="82.78" xlink:href="#linear-gradient"/><radialGradient id="radial-gradient-15" cx="382.93" cy="66.68" r="10.78" gradientTransform="matrix(-1, 0, 0, 1, 412.29, 0)" gradientUnits="userSpaceOnUse"><stop offset="0" stop-color="#f9dce4"/><stop offset="1" stop-color="#eab6c4"/></radialGradient><linearGradient id="linear-gradient-13" x1="365.87" y1="50.98" x2="385.56" y2="84.19" gradientTransform="matrix(-1, 0, 0, 1, 412.29, 0)" gradientUnits="userSpaceOnUse"><stop offset="0" stop-color="#b2a5ad"/><stop offset="1" stop-color="#b2a5ad" stop-opacity="0"/></linearGradient><radialGradient id="radial-gradient-16" cx="387.26" cy="68.26" r="13.34" gradientTransform="matrix(-1, 0, 0, 1, 412.29, 0)" xlink:href="#radial-gradient"/><radialGradient id="radial-gradient-17" cx="379.06" cy="69.67" r="12.15" gradientTransform="matrix(-1, 0, 0, 1, 412.29, 0)" xlink:href="#radial-gradient"/><linearGradient id="linear-gradient-14" x1="41.7" y1="86.82" x2="42.43" y2="82.17" gradientTransform="matrix(1, 0, 0, 1, 0, 0)" xlink:href="#linear-gradient-3"/><linearGradient id="linear-gradient-15" x1="42.22" y1="85.97" x2="42.25" y2="89.51" gradientTransform="matrix(1, 0, 0, 1, 0, 0)" xlink:href="#linear-gradient-4"/><radialGradient id="radial-gradient-18" cx="43.99" cy="87.24" r="6.29" xlink:href="#radial-gradient"/><linearGradient id="linear-gradient-16" x1="37.84" y1="86.72" x2="43.43" y2="102.11" xlink:href="#linear-gradient"/><radialGradient id="radial-gradient-19" cx="27.46" cy="76.51" r="18.3" xlink:href="#radial-gradient"/><linearGradient id="linear-gradient-17" x1="27.55" y1="71.78" x2="-0.29" y2="100.99" xlink:href="#linear-gradient"/><linearGradient id="linear-gradient-18" x1="386.2" y1="49.66" x2="386.43" y2="59.11" xlink:href="#linear-gradient-3"/><linearGradient id="linear-gradient-19" x1="387.68" y1="42.55" x2="388.4" y2="55.55" xlink:href="#linear-gradient-4"/><linearGradient id="linear-gradient-20" x1="388.67" y1="61.27" x2="398.39" y2="61.27" gradientTransform="matrix(-1, 0, 0, 1, 412.29, 0)" xlink:href="#linear-gradient"/><linearGradient id="linear-gradient-21" x1="371.36" y1="58.91" x2="384.36" y2="58.91" gradientTransform="matrix(-1, 0, 0, 1, 412.29, 0)" xlink:href="#linear-gradient"/><radialGradient id="radial-gradient-20" cx="341.57" cy="-43.21" r="7.4" gradientTransform="matrix(-0.95, 0.33, 0.33, 0.95, 350.01, -9.87)" xlink:href="#radial-gradient-7"/><linearGradient id="linear-gradient-22" x1="13.86" y1="50.6" x2="14.88" y2="62.17" xlink:href="#linear-gradient"/><linearGradient id="linear-gradient-23" x1="342.32" y1="-33.88" x2="345.1" y2="-47.93" gradientTransform="matrix(-0.95, 0.33, 0.33, 0.95, 354.26, -12.57)" xlink:href="#radial-gradient-7"/><linearGradient id="linear-gradient-24" x1="333.23" y1="-52.14" x2="355.69" y2="-54.3" gradientTransform="matrix(-0.95, 0.33, 0.33, 0.95, 354.26, -12.57)" xlink:href="#linear-gradient"/><linearGradient id="linear-gradient-25" x1="321.07" y1="-42.54" x2="321.07" y2="-42.59" gradientTransform="matrix(-0.95, 0.33, 0.33, 0.95, 355.4, 1.34)" xlink:href="#radial-gradient-7"/><linearGradient id="linear-gradient-26" x1="316.11" y1="-38.39" x2="316.73" y2="-54.27" gradientTransform="matrix(-0.95, 0.33, 0.33, 0.95, 355.4, 1.34)" xlink:href="#radial-gradient-7"/><linearGradient id="linear-gradient-27" x1="329.12" y1="-62.25" x2="301.56" y2="-49.89" gradientTransform="matrix(-0.95, 0.33, 0.33, 0.95, 355.4, 1.34)" xlink:href="#linear-gradient"/><linearGradient id="linear-gradient-28" x1="319.31" y1="-40.57" x2="319.31" y2="-40.6" gradientTransform="matrix(-0.95, 0.33, 0.33, 0.95, 353.38, -2.06)" xlink:href="#radial-gradient-7"/><linearGradient id="linear-gradient-29" x1="319.52" y1="-42.33" x2="320.03" y2="-54.1" gradientTransform="matrix(-0.95, 0.33, 0.33, 0.95, 353.38, -2.06)" xlink:href="#radial-gradient-7"/><linearGradient id="linear-gradient-30" x1="323.54" y1="-71.01" x2="316.73" y2="-45.43" gradientTransform="matrix(-0.95, 0.33, 0.33, 0.95, 353.38, -2.06)" xlink:href="#linear-gradient"/><linearGradient id="linear-gradient-31" x1="379.01" y1="66.15" x2="379" y2="66.1" gradientTransform="matrix(-1, 0, 0, 1, 412.29, 0)" xlink:href="#radial-gradient-7"/><linearGradient id="linear-gradient-32" x1="383.2" y1="63.43" x2="381.33" y2="52.14" gradientTransform="matrix(-1, 0, 0, 1, 412.29, 0)" xlink:href="#radial-gradient-7"/><linearGradient id="linear-gradient-33" x1="377.47" y1="46.34" x2="382.28" y2="60.16" gradientTransform="matrix(-1, 0, 0, 1, 412.29, 0)" xlink:href="#linear-gradient"/><linearGradient id="linear-gradient-34" x1="292.78" y1="-89.54" x2="291.59" y2="-100.26" gradientTransform="matrix(-0.87, 0.49, 0.49, 0.87, 321.73, -0.68)" xlink:href="#radial-gradient-7"/><linearGradient id="linear-gradient-35" x1="290.41" y1="-102.58" x2="303.26" y2="-99.52" gradientTransform="matrix(-0.87, 0.49, 0.49, 0.87, 321.73, -0.68)" xlink:href="#linear-gradient"/><linearGradient id="linear-gradient-36" x1="333.06" y1="-40.17" x2="337.09" y2="-50.23" gradientTransform="matrix(-0.95, 0.33, 0.33, 0.95, 351.73, -9.51)" xlink:href="#radial-gradient-7"/><linearGradient id="linear-gradient-37" x1="-727.52" y1="30.8" x2="-731.41" y2="34.42" gradientTransform="translate(740.54)" xlink:href="#linear-gradient-3"/><linearGradient id="linear-gradient-38" x1="398.74" y1="35.36" x2="397.38" y2="38.39" xlink:href="#linear-gradient-4"/><linearGradient id="linear-gradient-39" x1="-727.36" y1="30.56" x2="-731.59" y2="34.27" gradientTransform="translate(740.54)" xlink:href="#linear-gradient-4"/><radialGradient id="radial-gradient-21" cx="378.57" cy="31.8" r="18.51" gradientTransform="matrix(-1, 0, 0, 1, 412.29, 0)" gradientUnits="userSpaceOnUse"><stop offset="0.66" stop-color="#fddfa9"/><stop offset="1" stop-color="#fcc384"/></radialGradient><radialGradient id="radial-gradient-22" cx="377.27" cy="35.73" r="3.25" gradientTransform="matrix(-1, 0, 0, 1, 412.29, 0)" xlink:href="#linear-gradient-4"/><radialGradient id="Rona_Pipi" cx="389.34" cy="37.84" r="6.12" gradientTransform="matrix(-1, 0, 0, 1, 412.29, 0)" gradientUnits="userSpaceOnUse"><stop offset="0" stop-color="#dd6162"/><stop offset="1" stop-color="#df6263" stop-opacity="0"/></radialGradient><radialGradient id="Rona_Pipi-2" cx="370.97" cy="37.3" r="5.21" xlink:href="#Rona_Pipi"/><radialGradient id="radial-gradient-23" cx="373.99" cy="26.16" r="4.23" gradientTransform="matrix(-1, 0, 0, 1, 412.29, 0)" xlink:href="#linear-gradient-4"/><radialGradient id="radial-gradient-24" cx="381.93" cy="26.26" r="4.8" gradientTransform="matrix(-1, 0, 0, 1, 412.29, 0)" xlink:href="#linear-gradient-4"/><linearGradient id="linear-gradient-40" x1="386.58" y1="10.63" x2="379.32" y2="58.41" xlink:href="#linear-gradient-4"/><radialGradient id="radial-gradient-25" cx="376.46" cy="6.73" r="11.11" xlink:href="#radial-gradient-7"/><radialGradient id="radial-gradient-26" cx="367.83" cy="4.18" r="12.69" xlink:href="#radial-gradient-3"/><radialGradient id="radial-gradient-27" cx="372.5" cy="27.61" r="3.5" gradientTransform="matrix(-1, 0, 0, 1, 412.29, 0)" gradientUnits="userSpaceOnUse"><stop offset="0" stop-color="#2c2e2d"/><stop offset="1" stop-color="#363838"/></radialGradient><radialGradient id="Gradient_Eye" cx="374.44" cy="27.97" r="4.45" gradientTransform="matrix(-1, 0, 0, 1, 412.29, 0)" gradientUnits="userSpaceOnUse"><stop offset="0.52" stop-color="#fff"/><stop offset="1" stop-color="#a6a5b1"/></radialGradient><clipPath id="clip-path"><path d="M41.28,26.93a2.07,2.07,0,0,1-.58,2.45c-.65.56-1.2.36-2.1.47a8.74,8.74,0,0,1-3.15,0,3.89,3.89,0,0,1,2.45-3.7C39.1,25.62,40.85,25.71,41.28,26.93Z" fill="none"/></clipPath><radialGradient id="radial-gradient-28" cx="375.12" cy="28.33" r="2.21" gradientTransform="matrix(-1, 0, 0, 1, 412.29, 0)" gradientUnits="userSpaceOnUse"><stop offset="0.74" stop-color="#e2a580"/><stop offset="0.83" stop-color="#a3765c"/><stop offset="0.95" stop-color="#624738"/></radialGradient><linearGradient id="linear-gradient-41" x1="374.04" y1="25.16" x2="373.8" y2="29.38" gradientTransform="matrix(-1, 0, 0, 1, 412.29, 0)" xlink:href="#linear-gradient"/><linearGradient id="linear-gradient-42" x1="379.02" y1="38.11" x2="379.02" y2="35.5" xlink:href="#linear-gradient-3"/><linearGradient id="linear-gradient-43" x1="384.49" y1="39.57" x2="378.38" y2="27.77" xlink:href="#linear-gradient-4"/><radialGradient id="radial-gradient-29" cx="381.99" cy="26.24" r="5.86" gradientTransform="matrix(-1, 0, 0, 1, 412.29, 0)" xlink:href="#linear-gradient-4"/><linearGradient id="linear-gradient-44" x1="377.07" y1="33.42" x2="378.06" y2="38.92" xlink:href="#linear-gradient-4"/><radialGradient id="radial-gradient-30" cx="372.74" cy="-42.28" r="5.25" gradientTransform="matrix(-1, 0.1, 0.1, 1, 401.11, 24.71)" xlink:href="#radial-gradient-7"/><radialGradient id="radial-gradient-31" cx="388.3" cy="27.51" r="4.4" xlink:href="#radial-gradient-27"/><radialGradient id="Gradient_Eye-2" cx="387.56" cy="28.15" r="6.06" xlink:href="#Gradient_Eye"/><clipPath id="clip-path-2"><path d="M29.61,30.07c-.93.62-2.32.06-4.25,0C23,30,21.73,30,21,28.45a3.54,3.54,0,0,1,4.21-2.9C27.17,25.77,29.65,27.2,29.61,30.07Z" fill="none"/></clipPath><radialGradient id="radial-gradient-32" cx="388.12" cy="28.23" r="2.44" xlink:href="#radial-gradient-28"/><linearGradient id="linear-gradient-45" x1="387.08" y1="23.94" x2="386.99" y2="30.23" gradientTransform="matrix(-1, 0, 0, 1, 412.29, 0)" xlink:href="#linear-gradient"/><radialGradient id="radial-gradient-33" cx="372.68" cy="19.94" r="3.39" xlink:href="#radial-gradient-7"/><radialGradient id="radial-gradient-34" cx="387.71" cy="8.38" r="19.16" xlink:href="#radial-gradient-7"/><linearGradient id="linear-gradient-46" x1="395.94" y1="59.21" x2="403.37" y2="59.21" gradientTransform="matrix(-1, 0, 0, 1, 412.29, 0)" xlink:href="#linear-gradient"/><linearGradient id="linear-gradient-47" x1="386.73" y1="21.64" x2="417.12" y2="49.54" gradientTransform="matrix(-1, 0, 0, 1, 412.29, 0)" xlink:href="#linear-gradient"/><radialGradient id="radial-gradient-36" cx="378.13" cy="35.73" r="0.73" xlink:href="#radial-gradient-27"/><radialGradient id="radial-gradient-37" cx="398.22" cy="39.53" r="2.92" xlink:href="#radial-gradient-7"/><radialGradient id="radial-gradient-38" cx="377.68" cy="41.6" r="3.23" gradientTransform="matrix(-1, 0.01, 0.01, 1, 410.89, -1.88)" xlink:href="#linear-gradient-4"/><radialGradient id="radial-gradient-39" cx="34.79" cy="33.71" r="6.82" gradientTransform="translate(-1.38 2.02) rotate(-0.54)" gradientUnits="userSpaceOnUse"><stop offset="0.89" stop-color="#f38081"/><stop offset="1" stop-color="#de6b6b"/></radialGradient><radialGradient id="radial-gradient-40" cx="33.89" cy="32.42" r="5.89" xlink:href="#radial-gradient-39"/><radialGradient id="radial-gradient-41" cx="385.69" cy="37.24" r="0.98" gradientTransform="matrix(-1, 0.01, 0.01, 1, 410.89, -1.88)" xlink:href="#linear-gradient-4"/><radialGradient id="radial-gradient-42" cx="373.51" cy="37.5" r="0.98" gradientTransform="matrix(-1, 0.01, 0.01, 1, 410.89, -1.88)" xlink:href="#linear-gradient-4"/><linearGradient id="linear-gradient-48" x1="23.26" y1="86.96" x2="22.41" y2="77.62" gradientTransform="matrix(1, 0, 0, 1, 0, 0)" xlink:href="#linear-gradient-3"/><linearGradient id="linear-gradient-49" x1="56.19" y1="38.6" x2="54.9" y2="41.86" gradientTransform="translate(-43.78 58.22) rotate(-14.66)" xlink:href="#linear-gradient-4"/><linearGradient id="linear-gradient-50" x1="56.51" y1="37.6" x2="55.19" y2="40.79" gradientTransform="translate(-43.78 58.22) rotate(-14.66)" xlink:href="#linear-gradient-4"/><linearGradient id="linear-gradient-51" x1="21.63" y1="84.75" x2="21.13" y2="85.81" gradientTransform="matrix(1, 0, 0, 1, 0, 0)" xlink:href="#linear-gradient-4"/><linearGradient id="linear-gradient-52" x1="58.35" y1="35.2" x2="55.49" y2="41.14" gradientTransform="translate(-43.78 58.22) rotate(-14.66)" xlink:href="#linear-gradient-4"/></defs><g style="isolation:isolate"><g id="Layer_2" data-name="Layer 2"><g id="Layer_2-2" data-name="Layer 2"><path d="M49.9,92.13c-.6,1.81-1.5,3-3.63,3.33-1,.13-2.27-.78-3.44-2.41a15.09,15.09,0,0,1-2.22-4.68A16.74,16.74,0,0,1,40,84.8c-.38-6.2-3.48-24.88-3.48-24.88a2.72,2.72,0,0,1,2-1.1,9.08,9.08,0,0,1,4,5.56c.85,3.17,1.36,6.88,2.27,8.32a5.6,5.6,0,0,1,1.13,3.63c-.15,1,.68,1.36.91,1.73a3.9,3.9,0,0,1,.45,1.67,34.9,34.9,0,0,0,1.82,6,13.75,13.75,0,0,1,1.06,4.32A5.56,5.56,0,0,1,49.9,92.13Z" fill="url(#radial-gradient)"/><path d="M43,75.38c-.4,2,.2,3.42,2.08,4-1.91.76-2.88,1.67-2.42,3.31a2.83,2.83,0,0,0,2.78,2.27c-1.87.34-2.78,1.13-1.7,1.19s3.45.4,4.65,1.53A6.86,6.86,0,0,0,44.67,87c1.13.51,2.61,2.66,2.49,4a15.18,15.18,0,0,1-9.24-1.59s.39-12.23.46-12.65S43,75.38,43,75.38Z" fill="url(#linear-gradient)" style="mix-blend-mode:multiply"/><path d="M42,87.33a5,5,0,0,1,1.82-.85,5.18,5.18,0,0,1,2-.06,5.38,5.38,0,0,1,1.9.74,4.72,4.72,0,0,1,1.43,1.42,6.44,6.44,0,0,0-1.57-1.19,6,6,0,0,0-3.75-.65A6.67,6.67,0,0,0,42,87.33Z" fill="#2d2835"/><path d="M40.67,80.42A6.92,6.92,0,0,1,42,79.76a8.22,8.22,0,0,1,1.48-.37,6,6,0,0,1,1.53-.06,3.2,3.2,0,0,1,1.45.48A4.87,4.87,0,0,0,45,79.6a8.11,8.11,0,0,0-1.47.13c-.49.07-1,.17-1.46.29S41.15,80.27,40.67,80.42Z" fill="#2d2835"/><path d="M41.43,78.1a5.12,5.12,0,0,1,1.89-.83,3.69,3.69,0,0,1,1-.07,2.93,2.93,0,0,1,1,.24,8.2,8.2,0,0,0-2,.2c-.32.06-.64.13-1,.22Z" fill="#2d2835"/><path d="M41.23,86.32a4.64,4.64,0,0,1,1.12-.77,6.3,6.3,0,0,1,1.27-.49A10.17,10.17,0,0,1,45,84.82a8.8,8.8,0,0,1,1.36,0l-1.32.3c-.43.09-.86.19-1.29.31a11.44,11.44,0,0,0-1.26.39A11.84,11.84,0,0,0,41.23,86.32Z" fill="#2d2835"/><path d="M24.92,215.68c.58.56,1.61,1.53,2.82,2.62,2.69,2.44,6.25,5.47,7.38,5.83,1.65.51,6.13.79,8.17-.4l.4-.25c1.51-1.08.74-1.93.17-2.3S42.44,220,41.14,219s-4.26-.73-4.43-.79l-10.54-9.3S23.05,213.86,24.92,215.68Z" fill="url(#radial-gradient-2)"/><path d="M26.73,214.51s.46,1.76,1,3.79c2.69,2.44,6.25,5.47,7.38,5.83,1.65.51,6.13.79,8.17-.4l.4-.25a11.93,11.93,0,0,1-6,.29c-2.12-.53-5.45-5.49-5.86-6.31A30.63,30.63,0,0,0,26.73,214.51Z" fill="url(#linear-gradient-2)" style="mix-blend-mode:multiply"/><path d="M43,221.69a14.85,14.85,0,0,1-5.3.11C39.66,223,41.93,222.82,43,221.69Z" opacity="0.7" fill="url(#radial-gradient-3)" style="mix-blend-mode:screen"/><path d="M22.82,207.4c1.13,1.51,6.11,9.11,8.45,10.55.7.43,1.39.86,2.05,1.21h0c1.48.81,2.75,1.29,3.61.82a6.67,6.67,0,0,1,4.2-1,50.71,50.71,0,0,1-4.88-4.64A49.3,49.3,0,0,1,31.72,208c-.91-1.82-1.74-3.33-1.29-5.15a37.54,37.54,0,0,1,2-6.5c1.29-3.08,4.35-9.9,6.06-13.53s2.83-7.94,3.62-9.65a48.24,48.24,0,0,0,1.82-5,17.73,17.73,0,0,0,1.25-5.32c0-1.48-.34-5.33-.45-8.29-3.69-2.07-9.16-3.06-12.87.66l-.41.44c1.52,3.1,2.2,9.68,0,12.33s-3.7,7.26-4.15,12.48c-.39,4.42-.88,11.21-1.29,16.28C25.6,202.33,24.63,204.6,22.82,207.4Z" fill="url(#linear-gradient-3)"/><path d="M22.82,207.4c1.13,1.51,6.11,9.11,8.45,10.55.7.43,1.39.86,2.05,1.21-1.87-2.42-3.92-6-4.09-7.27-.23-1.73-1.89-4.76-2.88-7.25.23-1.37,1.74-11.42,2-14.71s1.36-11.56,1.81-13.83,2.95-5.56,4.31-3.41,1.82,1.36,2.16.69a13.29,13.29,0,0,0,.79-5.23,41.54,41.54,0,0,1-.79-6.23c0-2.27,1.58-3.86,4.08-4.2L31.9,155.2l-.41.44c1.52,3.1,2.2,9.68,0,12.33s-3.7,7.26-4.15,12.48c-.39,4.42-.88,11.21-1.29,16.28C25.6,202.33,24.63,204.6,22.82,207.4Z" fill="url(#linear-gradient-4)" style="mix-blend-mode:darken"/><path d="M41.06,163.45a4.16,4.16,0,0,0-.67,1.35,4.74,4.74,0,0,0-.22,1.5,5.07,5.07,0,0,0,.25,1.5,4.3,4.3,0,0,0,.29.7,4.54,4.54,0,0,0,.41.63,7.83,7.83,0,0,1-.44-1.4,6.89,6.89,0,0,1-.16-1.43,7.79,7.79,0,0,1,.13-1.44A8.33,8.33,0,0,1,41.06,163.45Z" fill="#b8784d"/><path d="M39.14,169.93a3.49,3.49,0,0,0,.07.37c0,.12.07.23.1.34l.15.33a3.24,3.24,0,0,0,.2.33,1.37,1.37,0,0,0,.05-.4,1.72,1.72,0,0,0-.08-.38,1.57,1.57,0,0,0-.19-.33A1.25,1.25,0,0,0,39.14,169.93Z" fill="#b8784d"/><path d="M17.77,214.54c.29,1.25,3.12,8.12,3.12,8.12a2.07,2.07,0,0,0,1,.33s-.22-2.43-.34-3.57c.51.4,1.19,1.81,2.44,3.12s2.21,2.49,5,2.89a17.08,17.08,0,0,0,5.47-.1,10.17,10.17,0,0,0,1.16-.3c1.36-.45.28-1.87-.45-2.44s-1.7-1.36-2.55-2.15-1.66-.61-2.8-.91c0,0-4.69-4.16-7.84-7.56a13.3,13.3,0,0,1-2.75-3.7C18.22,209.36,17.48,213.3,17.77,214.54Z" fill="url(#radial-gradient-4)"/><path d="M17.77,214.54c.29,1.25,3.12,8.12,3.12,8.12a2.07,2.07,0,0,0,1,.33s-.22-2.43-.34-3.57c.51.4,1.19,1.81,2.44,3.12s2.21,2.49,5,2.89a17.08,17.08,0,0,0,5.47-.1l-1.77-.05c-4.68-.21-5.78-2.34-6.77-3.67s-2.64-5.25-3.89-8.46L22,212a13.3,13.3,0,0,1-2.75-3.7C18.22,209.36,17.48,213.3,17.77,214.54Z" fill="url(#linear-gradient-5)" style="mix-blend-mode:multiply"/><path d="M33.8,223.2a13.52,13.52,0,0,1-5.22-.23A4.78,4.78,0,0,0,33.8,223.2Z" fill="url(#radial-gradient-5)"/><path d="M16.3,164.19c-.91,4.2-2.27,7.86-2,14.74s2.8,14.75,4.23,19.66,1.14,8.54.68,9.68a17,17,0,0,0,1.89,4c.14.2.33.58.57,1l0,.05c.69,1.36,1.72,3.55,2.67,5.33,1.28,2.42,3,3,4.23,2.58a24.84,24.84,0,0,1,4-.84,28.11,28.11,0,0,1-3.7-6.2,42,42,0,0,0-2.2-5.67c-.87-1.74-1.16-3.62-1.41-6.82l0-.44c-.61-8.39.75-15.27.75-19.36a62.69,62.69,0,0,1,1.59-12.32c.56-2.15.56-5,1.13-6.8a24.59,24.59,0,0,0,.46-8.05c-1.12-1.39-9-6.4-13-5.75A2.45,2.45,0,0,0,14,151.1C16.22,157.84,16.78,162,16.3,164.19Z" fill="url(#linear-gradient-6)"/><path d="M16.3,164.19c-.91,4.2-2.27,7.86-2,14.74s2.8,14.75,4.23,19.66,1.14,8.54.68,9.68a17,17,0,0,0,1.89,4c.14.2.33.58.57,1-.4-1-.79-1.9-.94-2.33-.31-.87-.64-2.46-.83-3.1s.37-1.71.69-3.27-.69-5.27-1.15-9-2.16-13.16-1.81-17.13,2.49-9.18,2.49-11.24-.68-5.77-.22-7.47,2.26-2.05,6.57-2.39l-.9-3.85L16.22,149A2.45,2.45,0,0,0,14,151.1C16.22,157.84,16.78,162,16.3,164.19Z" fill="url(#linear-gradient-7)"/><path d="M23.34,159.86a6.32,6.32,0,0,0-.15,1.37,4.68,4.68,0,0,0,.21,1.39,3.58,3.58,0,0,0,.72,1.22,2.38,2.38,0,0,0,1.2.7,3.26,3.26,0,0,1-1-.87,4.07,4.07,0,0,1-.6-1.15,6.39,6.39,0,0,1-.27-1.3C23.39,160.77,23.37,160.32,23.34,159.86Z" fill="#b8784d"/><path d="M23.35,166a1.86,1.86,0,0,0,.16.57,2.88,2.88,0,0,0,.3.5,2.65,2.65,0,0,0,.4.42,2.58,2.58,0,0,0,.49.32,5.66,5.66,0,0,0-.31-.48l-.32-.45-.35-.44Z" fill="#b8784d"/><path d="M20.62,204.62a3.24,3.24,0,0,1-.55,1.43,3.12,3.12,0,0,0-.66,1.49,4.06,4.06,0,0,0,.29,1.6l.27.74.15.37c0,.11.11.29.26.28-.14,0-.15-.19-.17-.31l-.08-.39-.17-.77a4.86,4.86,0,0,1-.2-1.49,3.49,3.49,0,0,1,.54-1.39A2.84,2.84,0,0,0,20.62,204.62Z" fill="#b8784d"/><path d="M25.33,201.75a27.58,27.58,0,0,0,.71,5,12.61,12.61,0,0,0,1,2.35c.36.76.68,1.55,1,2.35a29.48,29.48,0,0,0,1.86,4.72,32.37,32.37,0,0,0,2.8,4.24c-.49-.69-.91-1.43-1.33-2.16s-.85-1.46-1.23-2.21a15.65,15.65,0,0,1-1-2.29c-.25-.81-.52-1.62-.8-2.43s-.64-1.59-1-2.36a14.27,14.27,0,0,1-1-2.29,18,18,0,0,1-.56-2.44C25.58,203.43,25.45,202.59,25.33,201.75Z" fill="#b8784d"/><path d="M7.9,125.74c.34,6.57,3.75,19.51,6,28.58.45.79,2.48,1.82,4.54,2.16l.75.12c3.14.49,12.14,1.83,15.23,2,3.4.23,10.21.79,11-.91.23-4.3-.34-31.41-.41-34s-1.41-3.33-2.19-5.49l-5.45-15.64S15,107.48,11.08,110.2a14.88,14.88,0,0,0-1.19,2.74A36.3,36.3,0,0,0,7.9,125.74Z" fill="url(#radial-gradient-6)"/><path d="M7.9,125.74c.34,6.57,3.75,19.51,6,28.58.45.79,2.48,1.82,4.54,2.16l.75.12c-1.46-6.39-4-18.23-4.62-22.58-.79-5.67,0-12.93,2.84-17.35l-7.54-3.73A36.3,36.3,0,0,0,7.9,125.74Z" fill="url(#linear-gradient-8)" style="mix-blend-mode:multiply"/><path d="M38.18,124.05c-1.17-.18-2.35-.36-3.52-.56s-2.33-.42-3.49-.66-2.32-.49-3.48-.76l-3.46-.86c1.12.42,2.25.8,3.4,1.12s2.3.6,3.47.84,2.34.42,3.53.57S37,124,38.18,124.05Z" fill="#2d2835"/><path d="M36.6,128.69c-1-.36-2-.73-3-1.13s-2-.81-3-1.25-2-.88-2.94-1.34-1.95-.94-2.91-1.44a30.28,30.28,0,0,0,2.78,1.69c.95.52,1.93,1,2.93,1.42s2,.82,3,1.16S35.54,128.45,36.6,128.69Z" fill="#2d2835"/><path d="M37.6,151.53c-1.13-.66-2.25-1.32-3.36-2s-2.21-1.37-3.3-2.08-2.18-1.42-3.25-2.16l-3.21-2.23c1,.86,2,1.69,3.05,2.47s2.11,1.52,3.21,2.23,2.22,1.38,3.36,2S36.41,151,37.6,151.53Z" fill="#2d2835"/><path d="M36.5,154.27l-3.24-1.4-3.21-1.45c-1.06-.49-2.13-1-3.19-1.5l-3.17-1.54c1,.63,2,1.23,3,1.79s2.09,1.09,3.16,1.59,2.16.94,3.26,1.36S35.37,153.93,36.5,154.27Z" fill="#2d2835"/><path d="M27.94,132.46c.63.8,1.28,1.58,1.93,2.36s1.34,1.53,2,2.3a17.55,17.55,0,0,1,1.86,2.36,6.64,6.64,0,0,1,.67,1.33.43.43,0,0,1-.33.5,1.73,1.73,0,0,1-.75.05,1.67,1.67,0,0,0,.77,0,.54.54,0,0,0,.46-.61,5.69,5.69,0,0,0-.6-1.43,14.8,14.8,0,0,0-1.84-2.45l-2.05-2.25C29.36,133.91,28.66,133.18,27.94,132.46Z" fill="#2d2835"/><path d="M24.76,0C21-.15,14,.94,9.49,5.93s-5.07,9.61-5.44,15c-.35,5-2.35,7.63-3.71,12S2,41.77,3.74,44s3.41,2.11,4.54,4.84,1.44,2.72.53,5.14S9,60,10.7,61.36c9.91,3.32,25.33-1.82,26.62-2.65-2.73-1.81-2.27-4.61-.31-6.12s3.1-3.25,2.12-5.75-1.13-5.6,0-7.11a13.9,13.9,0,0,1,3.48-2.87C44.2,35.65,45.86,33.23,44,27s-.83-11.49-2.49-14.21S31.12.34,24.76,0Z" fill="url(#radial-gradient-7)"/><path d="M24.76,0C21-.15,14,.94,9.49,5.93s-5.07,9.61-5.44,15c-.35,5-2.35,7.63-3.71,12S2,41.77,3.74,44s3.41,2.11,4.54,4.84,1.44,2.72.53,5.14S9,60,10.7,61.36c9.91,3.32,25.33-1.82,26.62-2.65-2.73-1.81-2.27-4.61-.31-6.12s3.1-3.25,2.12-5.75-1.13-5.6,0-7.11a13.9,13.9,0,0,1,3.48-2.87C44.2,35.65,45.86,33.23,44,27s-.83-11.49-2.49-14.21S31.12.34,24.76,0Z" fill="url(#radial-gradient-8)" style="mix-blend-mode:multiply"/><path d="M33,76.46a.18.18,0,0,1-.09,0C32.93,76.48,33,76.5,33,76.46Z" fill="url(#linear-gradient-9)" style="mix-blend-mode:multiply"/><path d="M34.84,84.72a2.73,2.73,0,0,1-.51,1.21c.42,3.63,1.25,17.92,1.63,21.1s.37,10.5,1.81,12.85,3.86,3,7.26,3.86c-.15-2.12-.61-11.12-1.44-16.41s-2.4-13.06-2.91-15.85a27.25,27.25,0,0,1,.17-7.82c0-.11,0-.22,0-.32a11.35,11.35,0,0,1,.27-1.27,18.78,18.78,0,0,1,1.8-4c.29-.54.62-1.13.91-1.76h0a7.54,7.54,0,0,0,.78-4.69c-.51-2.62-2-4.49-2.6-5.57s-1.88-5.84-3.52-7.2c-.74-.28-3.92-1.75-5-2.11a11.42,11.42,0,0,0-2-.44S34.56,76.28,34.84,84.72Z" fill="url(#radial-gradient-9)"/><path d="M45,123.74c-3.4-.84-5.82-1.52-7.26-3.86S36.33,110.2,36,107c-.05-.39-.1-.93-.16-1.59-.16-1.93-.37-4.87-.59-8-.12-1.88-.26-3.8-.39-5.55-.18-2.62-.35-4.86-.49-6a2.73,2.73,0,0,0,.51-1.21c-.08-2.26-.34-5.35-.71-8.67-1-9.06-2.58-19.78-2.58-19.78a11.42,11.42,0,0,1,2,.44c1.06.36,4.24,1.83,5,2.11,1.65,1.36,2.95,6.13,3.53,7.2s2.09,3,2.6,5.57a7.54,7.54,0,0,1-.78,4.69h0c-.29.63-.62,1.22-.91,1.76a18.78,18.78,0,0,0-1.8,4,11.35,11.35,0,0,0-.27,1.27l0,.32a27.25,27.25,0,0,0-.17,7.82c0,.24.09.52.16.83.33,1.72.86,4.46,1.4,7.38.49,2.6,1,5.35,1.35,7.64C44.42,112.62,44.88,121.62,45,123.74Z" fill="url(#radial-gradient-10)"/><path d="M37.8,78.39c.56.87,1.66,2.9,3.35,3.68a18.78,18.78,0,0,1,1.8-4c.29-.54.62-1.13.91-1.76C42.18,77.83,40.18,78.24,37.8,78.39Z" fill="url(#linear-gradient-10)" style="mix-blend-mode:multiply"/><path d="M43.52,76.74a7.86,7.86,0,0,1-.89.93,6.66,6.66,0,0,1-1,.73,5.86,5.86,0,0,1-1.13.54,8,8,0,0,1-1.23.35,3.62,3.62,0,0,0,1.31-.1,4.19,4.19,0,0,0,1.22-.5,4.36,4.36,0,0,0,1-.84A3.82,3.82,0,0,0,43.52,76.74Z" fill="#2d2836"/><path d="M38.53,58.82a8.61,8.61,0,0,1,1.78,2.81c.45,1,.83,2.07,1.22,3.12a9.52,9.52,0,0,0,.66,1.54l.88,1.42a13.1,13.1,0,0,1,1.38,3.05,6.63,6.63,0,0,1,.18,3.31,11.68,11.68,0,0,1-1.21,3.11c-1,2-2.26,3.91-2.53,6.16.4-2.23,1.69-4.08,2.77-6A11,11,0,0,0,45,74.13a6.91,6.91,0,0,0-.16-3.47,12.77,12.77,0,0,0-1.44-3.11l-.89-1.42a11.68,11.68,0,0,1-.67-1.47c-.42-1-.83-2.09-1.32-3.1A8.59,8.59,0,0,0,38.53,58.82Z" fill="#2d2835"/><path d="M45,123.74A19.68,19.68,0,0,1,40,122a6.08,6.08,0,0,1-2-1.76,6.38,6.38,0,0,1-1-2.45c-.73-3.49-.72-7.08-1.07-10.61s-.56-7.09-.82-10.63-.46-7.1-.82-10.64c.13,1.77.19,3.55.27,5.33l.31,5.32c.22,3.55.38,7.1.7,10.66s.42,7.1,1.19,10.62a6.8,6.8,0,0,0,1.05,2.52,6.46,6.46,0,0,0,2.06,1.8A19.8,19.8,0,0,0,45,123.74Z" fill="#2d2835"/><path d="M8.06,116.71c1.74.51,3.6,1,5.49,1.43,6.89,1.57,14.11,2.38,16.66.3s4.44-5.22,5.54-9.85c.21-.91-.19-13.77-.49-22.55-.16-4.63-.29-8.12-.29-8.12l-5.82-13-8.91-9.14-1.11-1.14s-1.21.52-2.33,1.13-5.88,3.18-6.93,3.63,1.82,10.82,3.48,13.68,3.7,7.72,5.89,10.52a10.52,10.52,0,0,1,1.67,8.92c-.69,2.19-4.35,5.55-7.23,10.21S9.56,111.86,8.06,116.71Z" fill="url(#radial-gradient-11)"/><path d="M35.75,108.59c-1.1,4.63-3,7.82-5.55,9.85s-9.76,1.27-16.65-.3c-1.89-.43-3.75-.92-5.49-1.43,1.5-4.85,2.76-9.34,5.62-14A46.49,46.49,0,0,1,17,98.17c1.87-2.39,3.52-4.26,3.95-5.66a7.73,7.73,0,0,0,.29-1.42,10.5,10.5,0,0,0-2-7.5C17.05,80.79,15,76,13.35,73.07S8.81,59.85,9.87,59.39s5.82-3,6.93-3.63,2.33-1.13,2.33-1.13l1.11,1.14,8.91,9.14,5,11.14L35,77.92s.13,3.49.29,8.12c.06,1.85.13,3.87.2,5.93.06,1.87.12,3.77.17,5.58.08,3,.15,5.84.17,7.86v0A28.13,28.13,0,0,1,35.75,108.59Z" fill="url(#radial-gradient-12)"/><path d="M42.24,99.69,38.6,98.35a19.07,19.07,0,0,0-3-.8l-.42-.06a6.17,6.17,0,0,0-2.56,0c-1.19.4-2.89,1.81-7,2.78-3.53.82-5.95.07-8.66-2.11,1.87-2.39,3.52-4.26,3.95-5.66a7.73,7.73,0,0,0,.29-1.42l13.63.85.64,0,5.38.34C41.17,94,41.7,96.77,42.24,99.69Z" fill="url(#linear-gradient-11)" style="mix-blend-mode:multiply"/><circle cx="32.67" cy="87.97" r="0.91" fill="url(#radial-gradient-13)"/><circle cx="32.78" cy="101.13" r="0.91" fill="url(#radial-gradient-14)"/><path d="M13.55,118.14a47.73,47.73,0,0,0,12.64,1.49A9.45,9.45,0,0,0,29.3,119a7.87,7.87,0,0,0,2.44-2,17,17,0,0,0,3.16-5.51,20.29,20.29,0,0,0,.87-3.07c.06-1.06,0-2.12,0-3.19l-.14-6.38L35.26,86l.39,6.38.25,6.38.2,6.39c0,1.08.06,2.11,0,3.23a20.81,20.81,0,0,1-.86,3.15A17.21,17.21,0,0,1,32,117.16a8.08,8.08,0,0,1-2.56,2.06,10,10,0,0,1-3.2.66,31.89,31.89,0,0,1-6.41-.4C17.69,119.13,15.61,118.67,13.55,118.14Z" fill="#2d2835"/><path d="M8.06,116.71c1.74.51,3.6,1,5.49,1.43a76,76,0,0,1,2.8-10.61c2-5.27,4.83-9.75,5.79-10.31s3.74-1,6.3-1.42a9.29,9.29,0,0,1-3.7-2.1c-.9-1-.17-3.34,2.44-3.8s1.82-1.76-.68-2.44-2.77-1.42-1.76-1.3a18.55,18.55,0,0,0,6.41-.63c-5.9-.74-6.34-2.83-5-3.57A13.6,13.6,0,0,0,30,78.9C24,79,19.93,75.27,19.6,73.56c-1.07-.58-5.8-2.65-5-2.55a42.24,42.24,0,0,0,6.35.21c-1.3-.12-4.3-.77-4.86-2.17.3-.85-2-4.84-1.15-8.58,1.08-.44,4.74-2.79,4.88-2.83l.43-1.87-1.11-1.14s-1.21.52-2.33,1.13-5.88,3.18-6.93,3.63,1.82,10.82,3.48,13.68,3.7,7.72,5.89,10.52a10.52,10.52,0,0,1,1.67,8.92c-.69,2.19-4.35,5.55-7.23,10.21S9.56,111.86,8.06,116.71Z" fill="url(#linear-gradient-12)" style="mix-blend-mode:multiply"/><path d="M21,71.23c-.72-.07-1.43-.14-2.14-.23s-1.4-.22-2.1-.35-1.39-.28-2.08-.45-1.39-.35-2.08-.54a14.48,14.48,0,0,0,2,.82,16.4,16.4,0,0,0,2.09.53,17.26,17.26,0,0,0,2.15.25A15.58,15.58,0,0,0,21,71.23Z" fill="#2d2835"/><path d="M19.6,73.56a7.93,7.93,0,0,0-1.46-.65c-.51-.18-1-.32-1.53-.45l-1.53-.37a11.81,11.81,0,0,1-1.5-.47,6.56,6.56,0,0,0,1.41.75,12.18,12.18,0,0,0,1.53.46l1.55.34C18.58,73.28,19.09,73.4,19.6,73.56Z" fill="#2d2835"/><path d="M28,79.7a9.61,9.61,0,0,1-3.12,0,9.24,9.24,0,0,1-5.38-2.83,10,10,0,0,1-1.76-2.58,8,8,0,0,0,1.54,2.78,8.48,8.48,0,0,0,2.49,2,8.37,8.37,0,0,0,3.08.91A8,8,0,0,0,28,79.7Z" fill="#2d2835"/><path d="M31.15,85.53c-.86.06-1.73.08-2.58.07s-1.72-.06-2.57-.15-1.71-.2-2.55-.36-1.69-.35-2.52-.58a16.21,16.21,0,0,0,2.45.87,16.26,16.26,0,0,0,5.19.52A14.85,14.85,0,0,0,31.15,85.53Z" fill="#2d2835"/><path d="M22.24,86.75c.59.25,1.18.48,1.78.7l1.79.6c.3.1.6.2.88.32a5.66,5.66,0,0,1,.82.39c.11.07.14.15.11.24a.64.64,0,0,1-.29.27l-.83.47.91-.3a.84.84,0,0,0,.43-.33.46.46,0,0,0-.14-.59,4.4,4.4,0,0,0-.86-.49,7.61,7.61,0,0,0-.9-.35c-.61-.2-1.22-.36-1.83-.52S22.87,86.86,22.24,86.75Z" fill="#2d2835"/><path d="M22.31,92.6c.4.39.8.77,1.22,1.12a12.8,12.8,0,0,0,1.35,1,9,9,0,0,0,1.49.75,7.55,7.55,0,0,0,1.62.41,12.67,12.67,0,0,1-1.5-.67c-.49-.25-.95-.52-1.42-.8s-.92-.58-1.37-.88Z" fill="#2d2835"/><path d="M8.05,116.7c1.36.45,2.72.89,4.09,1.28s2.77.71,4.17,1a43.64,43.64,0,0,0,8.54,1,12.68,12.68,0,0,0,4.33-.67c.17-.07.35-.13.52-.22l.49-.31a6.53,6.53,0,0,0,.85-.71,12.43,12.43,0,0,0,1.45-1.63,16.51,16.51,0,0,0,2.09-3.79,23.92,23.92,0,0,0,1.16-4.13,19.91,19.91,0,0,1-3.47,7.75,13.41,13.41,0,0,1-1.44,1.57,5.36,5.36,0,0,1-.83.68l-.45.28c-.16.08-.33.14-.49.21a12.49,12.49,0,0,1-4.21.61,45.72,45.72,0,0,1-8.49-1C13.56,118.18,10.8,117.49,8.05,116.7Z" fill="#2d2835"/><path d="M21.18,61.38l3.11,3.34,3.19,4.79,1.57,2.36,1.2,2.83.15.36,1,2.24.06.15L32.06,79l.12.3.71,1.67.15.35L34.61,85l2.1-5.5,0-.23,0-.24.85-5.3,0-.32L37.9,72l-2.7-9.5a6,6,0,0,0-2.26-3c-.09,0-.17-.09-.26-.12l-5.84-.34c-.16,0-4.59.85-4.59.85Z" fill="url(#radial-gradient-15)"/><path d="M27.48,69.51l1.57,2.36,1.2,2.83.15.36,1,2.24.06.15L32.06,79l.12.3.71,1.67.15.35L34.61,85l2.1-5.5,0-.23,0-.24.85-5.3,0-.32L37.9,72l-2.7-9.5a6,6,0,0,0-2.26-3A24.82,24.82,0,0,1,35.74,69c.18,4-1.32,4.17-1.47,4.2,1,.51,1.76,1.27.86,1.37a19.89,19.89,0,0,0-2.8.72c-.47.15,1-1,1.32-1.19s-1.19-.24-2.16-.5-2.4-2.76-2.4-3,3.76.17,5.39-.87c-3.78-.06-5.46-.17-6.87-.81A3.86,3.86,0,0,0,27.48,69.51Z" fill="url(#linear-gradient-13)" style="mix-blend-mode:multiply"/><path d="M31.35,77.3l.06.15c.22-.11.44-.2.66-.3s.76-.32,1.14-.47.77-.28,1.17-.4.8-.24,1.21-.34a5.36,5.36,0,0,0-1.27.06,7.39,7.39,0,0,0-1.25.32,7.58,7.58,0,0,0-1.14.57A6,6,0,0,0,31.35,77.3Z" fill="#bf8193"/><path d="M30.25,74.7l.15.36c.33-.07.66-.14,1-.23s.79-.23,1.19-.36c-.41,0-.83,0-1.24.07S30.61,74.63,30.25,74.7Z" fill="#bf8193"/><path d="M34.87,73.19c.37.09.73.17,1.1.24l1.08.21.58.11,0-.32-.57-.13A10.38,10.38,0,0,0,36,73.16,10.54,10.54,0,0,0,34.87,73.19Z" fill="#bf8193"/><path d="M32.06,79l.12.3h.08c.67-.05,1.34-.08,2-.09s1.34,0,2,.07l.47.05,0-.24L36.3,79a13.78,13.78,0,0,0-2-.17,14,14,0,0,0-2.05.15A.41.41,0,0,0,32.06,79Z" fill="#bf8193"/><path d="M32.89,80.94l.15.35.44-.07c.34,0,.68-.1,1.21-.18a10.24,10.24,0,0,0-1.23-.12A5.43,5.43,0,0,0,32.89,80.94Z" fill="#bf8193"/><path d="M34.48,69.74c-.49.09-1,.16-1.46.22s-1,.11-1.45.14-1,.06-1.46.07-1,0-1.47,0a8,8,0,0,0,1.46.28,10.56,10.56,0,0,0,1.49,0,9.29,9.29,0,0,0,1.48-.23A9,9,0,0,0,34.48,69.74Z" fill="#bf8193"/><path d="M34.61,85a79.82,79.82,0,0,0-7.48-17.75A65.88,65.88,0,0,0,22.25,60C22.14,57.41,20,51.34,20,51.34c-.62.4-1.3.4-1.7,1.64a10.5,10.5,0,0,1-1.47,2.78c.51,2.27,3.34,7.54,4.48,9.7,1,.11,3.4.28,3.4.28-.68.63-2.1,2-2.1,2C26.73,73.06,31.21,78.73,34.61,85Z" fill="url(#radial-gradient-16)"/><path d="M16.8,55.76a17.22,17.22,0,0,0,.82,2.55c.33.84.66,1.67,1,2.48C19.42,62.41,20.22,64,21,65.6l.08.15h.16l2.69.25-1.6,1.53-.22.21.19.25,3.25,4.14c1.07,1.38,2.13,2.78,3.17,4.18s2.06,2.82,3,4.28,2,2.91,2.84,4.42c-3.34-6.18-7.69-11.73-12-17.24L24.38,66l.2-.2.11-.1h-.15l-.3,0-2.95-.25c-.84-1.58-1.67-3.16-2.45-4.75-.39-.81-.77-1.62-1.13-2.43A17.21,17.21,0,0,1,16.8,55.76Z" fill="#2d2835"/><path d="M28.37,53.27c1,.51,3.9,2.65,5.18,3.45a73.33,73.33,0,0,1,4.37,6.82c-.76.44-1.78,1.13-1.78,1.13,1.25.51,2.61,1.24,2.61,1.24,1.08,5.11-.85,14.18-4.42,20A59.64,59.64,0,0,0,36.2,69.54a20.5,20.5,0,0,0-3.52-10.09C30.42,57.86,27.58,54.74,28.37,53.27Z" fill="url(#radial-gradient-17)"/><path d="M38.14,76.26a34,34,0,0,1-3.81,9.67,30.88,30.88,0,0,0,4.11-9.6,34.92,34.92,0,0,0,.87-5.19,18.51,18.51,0,0,0-.23-5.3l0-.16-.12-.06-2.14-1,1.28-.86.23-.14-.13-.21c-.7-1.19-1.43-2.31-2.18-3.44s-1.57-2.21-2.43-3.27c.81,1.09,1.55,2.22,2.28,3.36s1.43,2.29,2.1,3.47l-1.48.93-.17.11-.13.08.15.08.17.09,2.28,1.09A16.56,16.56,0,0,1,39,69.14c0,.66,0,1.32-.08,2A35.85,35.85,0,0,1,38.14,76.26Z" fill="#2d2835"/><path d="M45.63,89.3c-.63.55-2.83.9-4.37,1a5.85,5.85,0,0,1-1.6,0s-.16-.47-.35-1.08c-.13-.45-.3-1-.46-1.57-.5-1.73-1-3.66-1-3.66,1.51-.57,2.19-.72,3.21-.38a5.57,5.57,0,0,1,2.19,1.84l.54.65A10.73,10.73,0,0,1,45.63,89.3Z" fill="url(#linear-gradient-14)"/><path d="M45.63,89.3c-.63.55-2.83.9-4.37,1l-1.95-1c-.13-.45-.3-1-.46-1.57.35-1.36.92-3.45.92-3.45a3,3,0,0,1,1.79,2.15,5.39,5.39,0,0,1,2.35.54c-.22-.43-.48-1-.7-1.44l.54.65A10.73,10.73,0,0,1,45.63,89.3Z" fill="url(#linear-gradient-15)" style="mix-blend-mode:darken"/><path d="M46.27,95.46c-.54.31-2.6.3-4.81.09-1.07-.1-2.16-.25-3.14-.44-3-.56-9.08-1.58-9.08-1.58a12.65,12.65,0,0,0,3.46-4l6.55-1,1.36-.18c1.2-.15,2.17-.26,2.76-.28a4.25,4.25,0,0,1,3.79,3h0a3.26,3.26,0,0,1,.17.65C47.73,93.87,47.09,95,46.27,95.46Z" fill="url(#radial-gradient-18)"/><path d="M49.9,92.13c-.6,1.81-1.5,3-3.63,3.33-.54.31-2.6.3-4.81.09-1.07-.1-2.16-.25-3.14-.44-3-.56-9.08-1.58-9.08-1.58a12.65,12.65,0,0,0,3.46-4l6.55-1,.77.61c-1.42,1.76-1.7,3.18.74,3.68a9.55,9.55,0,0,0,2.07.21c2.12,0,4.32-.57,4.33-2V91c1.15.73,2.21.84,3-.88A5.56,5.56,0,0,1,49.9,92.13Z" fill="url(#linear-gradient-16)" style="mix-blend-mode:multiply"/><path d="M32.7,89.5l2-.47,2-.4c1.36-.25,2.73-.45,4.1-.66.69-.07,1.38-.15,2.08-.19a4.19,4.19,0,0,1,1.11,0,3.64,3.64,0,0,1,1,.41,4.64,4.64,0,0,1,1.56,1.49,4.55,4.55,0,0,1,.68,2A4.64,4.64,0,0,0,45,88.49a3.34,3.34,0,0,0-2-.38c-.69,0-1.37.14-2.06.22C38.17,88.69,35.44,89.12,32.7,89.5Z" fill="#2d2835"/><path d="M41.46,95.55c-1,0-2.08-.06-3.12-.15s-2-.3-3.06-.45-2-.38-3-.61-2-.49-3-.81l6.09,1.07,3,.53Z" fill="#2d2835"/><path d="M41.18,87.62a5.16,5.16,0,0,1-.58,1.71.79.79,0,0,1-.14.1l-4.77,3.38c-2.35,1.67-8.77,5.22-10.51,5.44s-5.16.08-6.79-1.91l-.09-.13c-1.59-2.11-2.42-3.55-4.16-6a45.11,45.11,0,0,1-3.78-6.88C9.84,82.23,8.17,78.52,7,75.88A20.21,20.21,0,0,1,6,66.5c.3-3.18,2-6,3.89-7.11A13,13,0,0,1,12.68,62a22.83,22.83,0,0,1,3.78,8.12.75.75,0,0,1,0,.16c.07.22.13.45.19.68s0,.15.07.24c.08.31.17.64.25,1,1.29,3.1,3.22,8.17,4,9.31s.68,2.57,1.66,3.4a4.17,4.17,0,0,1,1.6,2.65c.77-.68,1.57-.38,3.45-.64s5.72-2.25,9.49-3.3a4.92,4.92,0,0,1,2.29.38A3.24,3.24,0,0,1,41.18,87.62Z" fill="url(#radial-gradient-19)"/><path d="M41.18,87.62a5.16,5.16,0,0,1-.58,1.71.79.79,0,0,1-.14.1l-4.77,3.38c-2.35,1.67-8.77,5.22-10.51,5.44s-5.16.08-6.79-1.91l-.09-.13c-1.59-2.11-2.42-3.55-4.16-6a45.11,45.11,0,0,1-3.78-6.88C9.84,82.23,8.17,78.52,7,75.88A20.21,20.21,0,0,1,6,66.5c.3-3.18,2-6,3.89-7.11A13,13,0,0,1,12.68,62a8.18,8.18,0,0,0-3.23,6.62c.22,1.63,2.79,1.11,3.07,1-2.61,1.31-3.14,2.43-2,2.43s2-.44,3-.37C11.57,73.23,11,75,11.88,77.61s4.22,8.39,5,9.07,2.41,1.75,3.54,1.14c-2,1.44-2.56,2.19-1.73,3.55s3.73,1.2,4.42,0a7,7,0,0,0,1-3.3,5.31,5.31,0,0,1,1.17,4.39,1.42,1.42,0,0,0,1.92,1.78,4,4,0,0,0,1.06-3.71c1.06,1.78,4.29,1.77,6.36.72C36,90.54,39.27,88.71,41.18,87.62Z" fill="url(#linear-gradient-17)" style="mix-blend-mode:multiply"/><path d="M16.5,70.28c-.41-.07-.83-.14-1.25-.17a11.47,11.47,0,0,0-2,0,11.37,11.37,0,0,0-2,.32,13.55,13.55,0,0,0-2,.63,7.91,7.91,0,0,1,1.88-.89,9.54,9.54,0,0,1,2.06-.42,9.83,9.83,0,0,1,2.1.1,9.06,9.06,0,0,1,1.17.28A.75.75,0,0,1,16.5,70.28Z" fill="#2d2835"/><path d="M16.76,71.2l-.36,0a11.11,11.11,0,0,0-1.41.33c-.47.11-.94.25-1.41.4s-.94.27-1.42.39c.43-.23.88-.46,1.33-.65a11.76,11.76,0,0,1,1.41-.49A7.29,7.29,0,0,1,16.37,71l.32,0C16.71,71,16.74,71.11,16.76,71.2Z" fill="#2d2835"/><path d="M24.19,87.78a6.34,6.34,0,0,1-.1,1.94,8.22,8.22,0,0,1-.62,1.85,7.62,7.62,0,0,1-1.08,1.62,7.49,7.49,0,0,1-.68.7c-.25.21-.51.4-.77.58A12.93,12.93,0,0,0,22.15,93a11.34,11.34,0,0,0,1-1.61,12,12,0,0,0,.69-1.75A12.53,12.53,0,0,0,24.19,87.78Z" fill="#2d2835"/><path d="M26.12,87.56a3.09,3.09,0,0,1,1.24.79,4,4,0,0,1,.81,1.26,5.66,5.66,0,0,1,.34,1.45,7.12,7.12,0,0,1,0,1.46c-.09-.48-.17-1-.26-1.42a8.78,8.78,0,0,0-.41-1.35,5.38,5.38,0,0,0-.67-1.22A4,4,0,0,0,26.12,87.56Z" fill="#2d2835"/><path d="M24.35,88.47a4,4,0,0,1,.59,1.38A4.83,4.83,0,0,1,25,91.37a4.08,4.08,0,0,1-.46,1.46,1.37,1.37,0,0,1-.56.56.85.85,0,0,1-.76,0,.87.87,0,0,0,.67-.17,1.34,1.34,0,0,0,.4-.54,5.36,5.36,0,0,0,.34-1.38,6.21,6.21,0,0,0,0-1.43A6.47,6.47,0,0,0,24.35,88.47Z" fill="#2d2835"/><path d="M22,85.78a6.46,6.46,0,0,1-.95,1.56,3.11,3.11,0,0,1-1.62,1,3.7,3.7,0,0,1-1.87-.09A4.6,4.6,0,0,1,16,87.34a7.2,7.2,0,0,0,1.69.58,4.11,4.11,0,0,0,1.71,0,3,3,0,0,0,1.5-.77A11,11,0,0,0,22,85.78Z" fill="#2d2835"/><path d="M23.14,98c.35-.14.68-.27,1-.42a8.59,8.59,0,0,0,1-.48c.31-.17.61-.36.91-.56s.59-.41.88-.65a4.24,4.24,0,0,1-.7.87,4.5,4.5,0,0,1-1.95,1.09A3.81,3.81,0,0,1,23.14,98Z" fill="#2d2835"/><path d="M32.09,93.52a10,10,0,0,1-.89,1.06c-.32.33-.65.65-1,1s-.73.57-1.11.82a9.67,9.67,0,0,1-1.21.69q.53-.47,1.05-.9l1-.88L31,94.39Z" fill="#2d2835"/><path d="M39.49,84a5.08,5.08,0,0,0-2.28-.31h0c-2.16.69-4.23,1.62-6.34,2.46a15.69,15.69,0,0,1-3.3,1c-.57.08-1.15.11-1.71.14a2.1,2.1,0,0,0-1.42.44l-.36.34L24,87.59a3.75,3.75,0,0,0-.83-1.79,5.56,5.56,0,0,0-.74-.71,2.86,2.86,0,0,1-.7-1c-.33-.7-.47-1.4-.76-2-.07-.15-.15-.29-.23-.43a4.85,4.85,0,0,1-.29-.49,9.76,9.76,0,0,1-.47-1c-1.15-2.64-2.13-5.31-3.19-8v0h0a37.45,37.45,0,0,0-2.33-7.06A18,18,0,0,0,12.53,62a12.86,12.86,0,0,0-2.66-2.6,14.18,14.18,0,0,1,4.73,5.7A39.16,39.16,0,0,1,17,72.17h0c1.09,2.64,2.1,5.31,3.26,7.91.15.33.3.65.47,1s.38.6.52.93c.3.65.44,1.36.73,2s.94,1.06,1.38,1.61a4.06,4.06,0,0,1,.88,1.93h0a2.38,2.38,0,0,1,1.59-.5,16,16,0,0,0,1.7-.12,14.9,14.9,0,0,0,3.25-1,66,66,0,0,1,6.4-2.32h0A5.1,5.1,0,0,1,39.49,84Z" fill="#2d2835"/><path d="M18.4,96.34a5.17,5.17,0,0,0,2.68,1.43,10,10,0,0,0,3,.28,6.2,6.2,0,0,0,1.46-.21A13.92,13.92,0,0,0,27,97.28c.94-.42,1.86-.9,2.78-1.39,1.84-1,3.66-2,5.41-3.07L37.8,91.1l2.66-1.66-5.11,3.61a62.08,62.08,0,0,1-5.41,3.16c-.92.48-1.85,1-2.81,1.37a11.25,11.25,0,0,1-1.46.56,6.21,6.21,0,0,1-1.55.19A10.4,10.4,0,0,1,21,97.94,5.25,5.25,0,0,1,18.4,96.34Z" fill="#2d2835"/><path d="M19.13,54.63A22.93,22.93,0,0,0,22.25,60c2.89.85,8.74,1.07,10.43-.51-.4-.53-.81-1.07-1.3-1.67l-.19-.25c-.53-.65-1.14-1.38-1.9-2.24l-.18-.21c-.05-.22-.08-.44-.12-.7s-.09-.81-.13-1.28a30.32,30.32,0,0,1,.25-6c-1.19-1-5.5-4.71-9.41-3.24a50.78,50.78,0,0,1,.07,5.24A24.5,24.5,0,0,1,19.13,54.63Z" fill="url(#linear-gradient-18)"/><path d="M22.25,60a20.16,20.16,0,0,0,5.3.66,18.35,18.35,0,0,0,2.67-.2,5.19,5.19,0,0,0,2.46-1,4.05,4.05,0,0,1-1.22.47,7,7,0,0,1-1.29.22,19,19,0,0,1-2.62.11c-.88,0-1.76,0-2.64-.07S23.15,60.06,22.25,60Z" fill="#b8784d"/><path d="M19.77,49.09a24.1,24.1,0,0,0,9.09,4,30.32,30.32,0,0,1,.25-6c-1.19-1-5.5-4.71-9.41-3.24A50.78,50.78,0,0,1,19.77,49.09Z" fill="url(#linear-gradient-19)" style="mix-blend-mode:darken"/><path d="M29.23,58.41c.26-.08.49-.18.73-.26a2.54,2.54,0,0,1,.72-.18,6.66,6.66,0,0,0,.7-.19l-.19-.25c-.21,0-.4.06-.59.08a2.05,2.05,0,0,0-.77.28A3,3,0,0,0,29.23,58.41Z" fill="#b8784d"/><path d="M27.59,58.5A2.67,2.67,0,0,0,26.18,58a9.57,9.57,0,0,0-1.51,0c-.49,0-1,0-1.47,0s-1,0-1.49-.08a7.25,7.25,0,0,0,1.46.36,9.56,9.56,0,0,0,1.51.08c.51,0,1-.08,1.48-.07A3.21,3.21,0,0,1,27.59,58.5Z" fill="#b8784d"/><path d="M22.34,52.42a11.18,11.18,0,0,0,.56,1.22c.21.39.44.77.69,1.15s.52.72.8,1.07a10.66,10.66,0,0,0,.92,1c-.24-.38-.49-.75-.73-1.12l-.74-1.1-.74-1.1Z" fill="#b8784d"/><path d="M29,54.64a8.23,8.23,0,0,0,0,1.11c0,.37.1.74.17,1.1a5.69,5.69,0,0,0,.34,1.06c0-.37-.05-.73-.08-1.1s-.06-.74-.1-1.09c0-.14,0-.28,0-.43l-.18-.21c-.05-.22-.08-.44-.12-.7A2.28,2.28,0,0,0,29,54.64Z" fill="#b8784d"/><path d="M18.34,53.44c.28,0,3.23,2.55,2.95,2.78s-.8,4.36-.8,4.36l2.67,2a9.33,9.33,0,0,1,.15,3.78c-.1-.2-1-1.9-1.68-2.13s.68,2.38,2,2.72c-.91,1-3.63.68-4,.34a2,2,0,0,0,.57,1.76,2.58,2.58,0,0,1-2.61-2.78c.28-1.47-.51-1.93-.51-1.93.34,1.08.14,1.43.14,1.43-.88,0-2.81-2.79-2.92-3.58s-.51-6.35-.4-6.58S18.34,53.44,18.34,53.44Z" fill="url(#linear-gradient-20)" style="mix-blend-mode:multiply"/><path d="M40.23,60.64c.9.91,1.07,3.4-.34,3.57s-2.1,1.48-1.82,2c-1.13-.57-2-1.42-1.64-2.56a3.38,3.38,0,0,0,0-2.55c0,.85-.34,2.27-1.48,2.44S33,65.8,33.65,66.59a2.6,2.6,0,0,1-1.59-3.74c.91-1.76,1.39-3.15-1-5.15a9.93,9.93,0,0,1-3.1-4.83l.62-1.64Z" fill="url(#linear-gradient-21)" style="mix-blend-mode:multiply"/><path d="M11.74,44.77a12.17,12.17,0,0,1,4,5.37,5.44,5.44,0,0,1,.38,2.76,6.08,6.08,0,0,1-.33,1.32,6.52,6.52,0,0,1-.43.93c-.13.24-.36.57-.26.86a1.08,1.08,0,0,0,.11.18,1.57,1.57,0,0,0,.53.43,4,4,0,0,1,.5.42,2.9,2.9,0,0,1,1.19,2.24,4.07,4.07,0,0,1-.78,2.06A1.83,1.83,0,0,0,17,63.43c0,.06.84.92.88.84a8.78,8.78,0,0,0-1.26-.2c-.11,0-.25,0-.38,0a2.62,2.62,0,0,1-1.85-2.54c0-.55.91-2,.05-2.27a4.61,4.61,0,0,1-2.62-2.14A2.84,2.84,0,0,1,12,54.62a7.33,7.33,0,0,1,1.36-1.47c1.07-1.11.52-3.46.06-4.74A8.68,8.68,0,0,0,12,45.89c-.17-.2-1.58-1.55-1.48-1.73S11.71,44.75,11.74,44.77Z" fill="url(#radial-gradient-20)"/><path d="M11.74,44.77a12.17,12.17,0,0,1,4,5.37,5.44,5.44,0,0,1,.38,2.76,6.08,6.08,0,0,1-.33,1.32,6.52,6.52,0,0,1-.43.93c-.13.24-.36.57-.26.86a1.08,1.08,0,0,0,.11.18,1.57,1.57,0,0,0,.53.43,4,4,0,0,1,.5.42,2.9,2.9,0,0,1,1.19,2.24,4.07,4.07,0,0,1-.78,2.06A1.83,1.83,0,0,0,17,63.43c0,.06.84.92.88.84a8.78,8.78,0,0,0-1.26-.2c-.11,0-.25,0-.38,0a2.62,2.62,0,0,1-1.85-2.54c0-.55.91-2,.05-2.27a4.61,4.61,0,0,1-2.62-2.14A2.84,2.84,0,0,1,12,54.62a7.33,7.33,0,0,1,1.36-1.47c1.07-1.11.52-3.46.06-4.74A8.68,8.68,0,0,0,12,45.89c-.17-.2-1.58-1.55-1.48-1.73S11.71,44.75,11.74,44.77Z" fill="url(#linear-gradient-22)" style="mix-blend-mode:multiply"/><path d="M6,50.82l.23.23a9.55,9.55,0,0,0,1.56,1l.16.09a3,3,0,0,1,1.58,1.74,5.64,5.64,0,0,1-.42,2.45,4.55,4.55,0,0,0,0,2.2,5.64,5.64,0,0,0,1.19,2.32s0,0,0,0A4.92,4.92,0,0,0,12,62.13c1.56.73,3.12.57,4.76.77a3.29,3.29,0,0,1,2.19.82.88.88,0,0,1,.25.58,1.76,1.76,0,0,1-.48,1,2.11,2.11,0,0,0,1,3.33.63.63,0,0,0,.19,0,4.54,4.54,0,0,1-.48-.31,2.24,2.24,0,0,1-.43-.84,1.7,1.7,0,0,1,.42-1.77,2.59,2.59,0,0,0,.68-1.32A2.11,2.11,0,0,0,19,62.32a14.68,14.68,0,0,0-4.42-1.43c-1.4-.34-3.12-1-3.16-2.73,0-.19.08-.39.07-.57.12-.89.6-1.7.76-2.58A4.83,4.83,0,0,0,12,52.48c-.69-1.81-2.3-2.32-3.61-3.53a8.47,8.47,0,0,1-2.26-5.27,19.86,19.86,0,0,1-.14-5,5.47,5.47,0,0,1,.11-2.34,17.27,17.27,0,0,0,.08-1.76c0-.4-.17-2-.62-1a16.91,16.91,0,0,0-.63,1.9,38.94,38.94,0,0,0-1.71,5.74A10.78,10.78,0,0,0,6,50.82Z" fill="url(#linear-gradient-23)"/><path d="M9.51,52a2.67,2.67,0,0,1,1.29,2.6,1.81,1.81,0,0,0,.4-2c.72,1,.65,1.9.15,3.55a3.69,3.69,0,0,0,.09,3.21,4.64,4.64,0,0,0,1.73,1.52,2.09,2.09,0,0,1-1.8-.58,2.68,2.68,0,0,0,1.23,1.26,3.56,3.56,0,0,1-2.26-.68A4.92,4.92,0,0,0,12,62.13c1.56.73,3.12.57,4.76.77a3.29,3.29,0,0,1,2.19.82.88.88,0,0,1,.25.58l.9.1A2.11,2.11,0,0,0,19,62.32a14.68,14.68,0,0,0-4.42-1.43c-1.4-.34-3.12-1-3.16-2.73,0-.19.08-.39.07-.57.12-.89.6-1.7.76-2.58A4.83,4.83,0,0,0,12,52.48c-.69-1.81-2.3-2.32-3.61-3.53a8.47,8.47,0,0,1-2.26-5.27,19.86,19.86,0,0,1-.14-5,5.47,5.47,0,0,1,.11-2.34,17.27,17.27,0,0,0,.08-1.76c0-.4-.17-2-.62-1a16.91,16.91,0,0,0-.63,1.9,38.94,38.94,0,0,0-1.71,5.74A10.78,10.78,0,0,0,6,50.82a18.43,18.43,0,0,0,1.79,1.24l.16.09.12.06A2.79,2.79,0,0,1,10,54.06,2.59,2.59,0,0,0,9.51,52Z" fill="url(#linear-gradient-24)" style="mix-blend-mode:multiply"/><path d="M38,65.63a.15.15,0,0,1-.08,0S38,65.66,38,65.63Z" fill="url(#linear-gradient-25)"/><path d="M37.92,65.59a1.89,1.89,0,0,1-.27-.76,1.07,1.07,0,0,1,.74-.77c.63-.27,1.36-.23,2-.53,1.48-.72.59-2.43-.11-3.42-.24-.44-.29-.46,0-.82.16-.18.37-.33.54-.51a3.72,3.72,0,0,0,1.25-2.29,3.76,3.76,0,0,0-.86-2.6c-.17-.22-1.86-1.72-1.8-1.81a.28.28,0,0,1,0-.13,5.23,5.23,0,0,1,.47-1.64,12.16,12.16,0,0,0,.67-2.5,9.47,9.47,0,0,0-.75-4.72,10.38,10.38,0,0,0-1.5-2.48,32.45,32.45,0,0,0-4.43-4.09s-1-.86-1.15-.77.8,1.35.94,1.55a14.35,14.35,0,0,1,1.63,3c.16.42.32.85.45,1.27a12,12,0,0,1,.74,4.84,9.33,9.33,0,0,1-.55,2.2h0a8,8,0,0,0-.75,3.68,4.41,4.41,0,0,0,1.31,2.66,6.78,6.78,0,0,0,1,.79c.06,0,.24.2.42.33v0c.16.11.31.22.38.21.26.17.22.43.1.67h0l0,0a9.21,9.21,0,0,0-1.06,1.68,2,2,0,0,0-.1,1.26c.24.89,1.15,1.38,1.69,2.07.78,1-.33.93-1,1.53S37.09,65.31,37.92,65.59Z" fill="url(#linear-gradient-26)"/><path d="M35.92,48.6a9,9,0,0,0-.78,3.3,4.42,4.42,0,0,0,1.34,3,7,7,0,0,1-.71-1.5,4.91,4.91,0,0,1-.27-1.55,6.28,6.28,0,0,1,.15-1.6C35.74,49.74,35.87,49.19,35.92,48.6Z" fill="#4d352a"/><path d="M37.92,65.59a1.89,1.89,0,0,1-.27-.76,1.07,1.07,0,0,1,.74-.77c.63-.27,1.36-.23,2-.53,1.48-.72.59-2.43-.11-3.42-.24-.44-.29-.46,0-.82.16-.18.37-.33.54-.51a3.72,3.72,0,0,0,1.25-2.29,3.76,3.76,0,0,0-.86-2.6c-.17-.22-1.86-1.72-1.8-1.81a.28.28,0,0,1,0-.13,5.23,5.23,0,0,1,.47-1.64,12.16,12.16,0,0,0,.67-2.5,9.47,9.47,0,0,0-.75-4.72,10.38,10.38,0,0,0-1.5-2.48,32.45,32.45,0,0,0-4.43-4.09s-1-.86-1.15-.77.8,1.35.94,1.55a14.35,14.35,0,0,1,1.63,3c.16.42.32.85.45,1.27l.19,7h0L36,50.76A6.15,6.15,0,0,0,37.3,55.3c.23.29.43.54.58.76v0a3.58,3.58,0,0,1,.48.88h0a1,1,0,0,1,.08.26,2.67,2.67,0,0,0,0-3.12,2.44,2.44,0,0,1,.26-2.85,2.43,2.43,0,0,0,.89,2.13c.53.26.6,1.39.55,1.81.44,0,.77-.66.57-1.24a2.93,2.93,0,0,1,.53,2.82A21.2,21.2,0,0,1,40,58.66a8,8,0,0,1,.24-1.76c-.37.2-1.28,1-1.27,1.75s.86,2,1.1,2.74a1.17,1.17,0,0,1-.33,1.48A1.69,1.69,0,0,0,39.1,61a7.74,7.74,0,0,1-1.81-2.32,2,2,0,0,0-.1,1.26c.24.89,1.15,1.38,1.69,2.07.78,1-.33.93-1,1.53S37.09,65.31,37.92,65.59Z" fill="url(#linear-gradient-27)" style="mix-blend-mode:multiply"/><path d="M38.32,63.51l-.16,0C38.22,63.54,38.27,63.55,38.32,63.51Z" fill="url(#linear-gradient-28)"/><path d="M32.82,57.56a2.32,2.32,0,0,0,.34.85c.81,1.16,2.62.47,3.8,1.2.12.12.41.13.47.34a1.55,1.55,0,0,1,.1.52v0c0,1-.52,2.71.61,3a2.39,2.39,0,0,1-.39-.73A2.08,2.08,0,0,1,38,61.44a6.1,6.1,0,0,0,.39-1.34,1.52,1.52,0,0,0-.45-1.56c-.77-.74-1.67-.65-2.58-1-1.12-.46.36-1.56.76-2.12a2.25,2.25,0,0,0,.07-3c-.75-.77-2-1-2.84-1.63a3.52,3.52,0,0,1-1.66-3.13c.12-1.15.49-2.3.67-3.45a12.29,12.29,0,0,0-1.26-7.23A17.25,17.25,0,0,0,25.2,30.2s-1.19-.68-1.26-.54,2.1,1.84,2.27,2a19.8,19.8,0,0,1,2.32,3.09,13.27,13.27,0,0,1,1.39,2.94,9.73,9.73,0,0,1,.39,4.43C30,44.46,28.51,46.57,29,49a6.08,6.08,0,0,0,2,3.25,7.17,7.17,0,0,0,1.57,1.08c.38.2.93.3,1.29.54.75.15-.11,1-.31,1.23s-.24.35-.35.54a1.51,1.51,0,0,0-.13.29,5,5,0,0,0-.24.72s0,.06,0,.08a.22.22,0,0,1,0,.08A2.5,2.5,0,0,0,32.82,57.56Z" fill="url(#linear-gradient-29)"/><path d="M33.55,55.08a2.5,2.5,0,0,0-.35.54,1.51,1.51,0,0,0-.13.29,5,5,0,0,0-.24.72s0,.06,0,.08a.22.22,0,0,1,0,.08,5.8,5.8,0,0,1,1.58-1.71,5.28,5.28,0,0,0-.83,1.64,7.69,7.69,0,0,1,1.14-1.35c-.1.64-.24,1.76.14,2.15a3.76,3.76,0,0,0,1.62.76c-.4.34-2.17-.13-2.44-.48a1.18,1.18,0,0,0,.84.83,2.18,2.18,0,0,1-1.69-.22c.81,1.16,2.62.47,3.8,1.2.12.12.41.13.47.34a1.55,1.55,0,0,1,.1.52,1.71,1.71,0,0,0,.1-.95,2.23,2.23,0,0,1,.21,1.31,1.89,1.89,0,0,0,.26-1.24,2.63,2.63,0,0,1,.25.51,1.52,1.52,0,0,0-.45-1.56c-.77-.74-1.67-.65-2.58-1-1.12-.46.36-1.56.76-2.12a2.25,2.25,0,0,0,.07-3c-.75-.77-2-1-2.84-1.63a3.52,3.52,0,0,1-1.66-3.13c.12-1.15.49-2.3.67-3.45a12.29,12.29,0,0,0-1.26-7.23c-.19-.13-.61.19-1.14.77a9.73,9.73,0,0,1,.39,4.43C30,44.46,28.51,46.57,29,49a6.08,6.08,0,0,0,2,3.25,7.17,7.17,0,0,0,1.57,1.08c.38.2.93.3,1.29.54C34.61,54,33.75,54.81,33.55,55.08Z" fill="url(#linear-gradient-30)" style="mix-blend-mode:multiply"/><path d="M32.83,57.56a3.12,3.12,0,0,1,.63-1.92,3,3,0,0,1,.31-.4l.36-.39a1.45,1.45,0,0,0,.33-.57.55.55,0,0,0-.13-.54.81.81,0,0,0-.4-.22l.12,0a4,4,0,0,0-.9-.4,4.68,4.68,0,0,1-.75-.36A7.7,7.7,0,0,1,29,49,6,6,0,0,0,30.79,52a7.16,7.16,0,0,0,1.43,1.08c.5.35,1.13.41,1.64.73h0c.17,0,.36.17.29.36a1.24,1.24,0,0,1-.26.46,5.19,5.19,0,0,0-.63.85A2.9,2.9,0,0,0,32.83,57.56Z" fill="#4d352a"/><path d="M33.37,66.15a.37.37,0,0,1-.18-.12C33.25,66.14,33.32,66.2,33.37,66.15Z" fill="url(#linear-gradient-31)"/><path d="M24.4,42.5s.43,0,.41,0a21.88,21.88,0,0,1,5,1.52l.5.23c1.63.74,3.74,2,2.79,4a9.11,9.11,0,0,1-1,1.38,3.21,3.21,0,0,0-.45,2.67,4.28,4.28,0,0,0,1.48,2.19,22.09,22.09,0,0,1,2,1.38c.52.38-.19.78-.44,1-.08.09-.17.11-.26.27a2.56,2.56,0,0,0-1.07,2.48c.13.63.69,1.05.85,1.6.14.32-.39.9-.58,1.12s-.27.23-.41.36h0a2.41,2.41,0,0,0-.95,1.6,1.82,1.82,0,0,0,.32,1.18,3.94,3.94,0,0,0,.56.5,4.83,4.83,0,0,1-.47-1.51c.1-.8.77-1.15,1.4-1.52a2.58,2.58,0,0,0,1.77-2.14c0-.47-.64-1.37,0-1.62a3.32,3.32,0,0,0,2.39-4,4.76,4.76,0,0,0-1.8-2.37c-.13-.11-1.69-1.12-1.51-1.37a.18.18,0,0,1,0-.16,5.46,5.46,0,0,0-.3-7.17A8.37,8.37,0,0,0,30.5,42a9.9,9.9,0,0,0-4.83-.3c-.1,0-.19.06-.29.09A6.59,6.59,0,0,0,24.4,42.5Z" fill="url(#linear-gradient-32)"/><path d="M33.1,48.3a9.11,9.11,0,0,1-1,1.38,3.21,3.21,0,0,0-.45,2.67,4.28,4.28,0,0,0,1.48,2.19,22.09,22.09,0,0,1,2,1.38c.52.38-.19.78-.44,1-.08.09-.17.11-.26.27a2.56,2.56,0,0,0-1.07,2.48c.13.63.69,1.05.85,1.6.14.32-.39.9-.58,1.12s-.27.23-.41.36c2-1,1.3-2.27,1-3a1.84,1.84,0,0,1,.52-2.22c.79-.76,1.47-1.27,1.47-1.86.23.26,0,1.55-.54,2a3.09,3.09,0,0,0,1.69-2c.12-1-1.19-1.94-2.28-2.66s-1.5-1.59-1.14-2a7.63,7.63,0,0,0,1.18-3.9s-5.06-3.9-5.25-3.9a3.45,3.45,0,0,0-.15.79l.5.23C31.94,45,34.05,46.24,33.1,48.3Z" fill="url(#linear-gradient-33)" style="mix-blend-mode:multiply"/><path d="M33.41,59.66a2.07,2.07,0,0,1,.27-1.34,3.81,3.81,0,0,1,.92-1h0l0,0c.06-.09.11-.1.25-.23v0a4.39,4.39,0,0,0,.55-.44.65.65,0,0,0,.18-.48.68.68,0,0,0-.28-.44l0,0a6.91,6.91,0,0,0-1.6-1.15,4.31,4.31,0,0,1-1.26-1.22,3.14,3.14,0,0,1-.28-3.24c.25-.5.75-.92,1.08-1.56a2.51,2.51,0,0,0,.11-2.06,3.37,3.37,0,0,0-1.37-1.45,10.19,10.19,0,0,0-1.74-.81,9.91,9.91,0,0,1,1.66.92,3.37,3.37,0,0,1,1.23,1.42A2.2,2.2,0,0,1,33,48.43c-.3.56-.8,1-1.1,1.54a3.38,3.38,0,0,0,.29,3.6,4.6,4.6,0,0,0,1.38,1.29,7.87,7.87,0,0,1,1.57,1.06h0a.43.43,0,0,1,.18.26.39.39,0,0,1-.12.3,3.43,3.43,0,0,1-.5.43h0a1.07,1.07,0,0,0-.26.26h0a3.29,3.29,0,0,0-.89,1.11A2.12,2.12,0,0,0,33.41,59.66Z" fill="#4d352a"/><path d="M34.74,44.16a5.86,5.86,0,0,1,1.18,3.54,5.78,5.78,0,0,1-1.15,3.44l0,0a.54.54,0,0,0-.16.44l.06-.23a.45.45,0,0,0,0,.5.7.7,0,0,0,.14.18,2,2,0,0,0,.26.25,6.14,6.14,0,0,0,.53.4c.38.26.74.44,1.06.7a4.93,4.93,0,0,1,1.58,1.91,4.45,4.45,0,0,0-1.43-2.09,10.8,10.8,0,0,0-1-.76c-.18-.13-.35-.26-.51-.4s-.37-.28-.35-.5h0a.16.16,0,0,1,.06-.15h0a5.66,5.66,0,0,0,1.19-3.65A5.33,5.33,0,0,0,34.74,44.16Z" fill="#4d352a"/><path d="M18,63.72a3.91,3.91,0,0,0,.26.44,3.54,3.54,0,0,0,2.36,1.45,13.17,13.17,0,0,0,2.74-.25,10.23,10.23,0,0,1-1.63-.62,4.43,4.43,0,0,1-1.48-1.13c-.9-1.14.24-2.25.61-3.37a3.45,3.45,0,0,0-.73-3.52,4.62,4.62,0,0,0-1.64-1.09c-.19-.08-.84-.18-.92-.46-.19-.64,1.43-1.79,1.8-2.14a4.85,4.85,0,0,0,.24-7.09,5.11,5.11,0,0,0-3.68-1.1c-1.21,0-2.51.19-3.39-.83-1-1.2-.45-2.65-.41-4,0,0-.19-1.53-.43-1.35a1.9,1.9,0,0,1-.12,1.24,6.74,6.74,0,0,0-.81,3.48,4,4,0,0,0,1.9,3.16,8.67,8.67,0,0,0,3.71.62c1.09.06,2.43.64,2.21,2,0,.47-.74.86-1.05,1.1a16.86,16.86,0,0,0-1.4,1.13,7,7,0,0,0-1.67,2.41,3.32,3.32,0,0,0,0,3.19,2.68,2.68,0,0,0,1.13,1h0a6.79,6.79,0,0,0,1.43.44,2.6,2.6,0,0,1,.68.21c.64.29.77.76.47,1.68A4.48,4.48,0,0,0,18,63.72Z" fill="url(#linear-gradient-34)"/><path d="M18.43,62.31A3.25,3.25,0,0,0,19.29,64a4.1,4.1,0,0,1-.21-1.53,4.1,4.1,0,0,0,2.31,2.26c-.4.23-1.5-.28-1.5-.28a4.18,4.18,0,0,0,.78.69c-.45,0-1,0-1.47-.06a3.24,3.24,0,0,0,1.4.53,13.17,13.17,0,0,0,2.74-.25,10.23,10.23,0,0,1-1.63-.62,4.43,4.43,0,0,1-1.48-1.13c-.9-1.14.24-2.25.61-3.37a3.45,3.45,0,0,0-.73-3.52,4.62,4.62,0,0,0-1.64-1.09c-.19-.08-.84-.18-.92-.46-.19-.64,1.43-1.79,1.8-2.14a4.85,4.85,0,0,0,.24-7.09,5.11,5.11,0,0,0-3.68-1.1c-1.21,0-2.51.19-3.39-.83-1-1.2-.45-2.65-.41-4,0,0-.19-1.53-.43-1.35a1.9,1.9,0,0,1-.12,1.24,6.74,6.74,0,0,0-.81,3.48,4,4,0,0,0,1.9,3.16,8.67,8.67,0,0,0,3.71.62c1.09.06,2.43.64,2.21,2,0,.47-.74.86-1.05,1.1a16.86,16.86,0,0,0-1.4,1.13,7,7,0,0,0-1.67,2.41,3.32,3.32,0,0,0,0,3.19,2.68,2.68,0,0,0,1.13,1h0a5.41,5.41,0,0,1,1.93.15.65.65,0,0,1,.18.5c.64.29.77.76.47,1.68A4.48,4.48,0,0,0,18,63.72a3.91,3.91,0,0,0,.26.44A4.12,4.12,0,0,1,18.43,62.31Z" fill="url(#linear-gradient-35)" style="mix-blend-mode:multiply"/><path d="M18,63.71a3.28,3.28,0,0,1,0-2.27c.11-.37.25-.74.38-1.11A2,2,0,0,0,18.49,59a1.5,1.5,0,0,0-1.06-.87c-.42-.13-.78-.19-1.14-.31a2.65,2.65,0,0,1-1.65-1.22,2.79,2.79,0,0,1-.11-2,6.58,6.58,0,0,1,1-2,8.41,8.41,0,0,1,.72-.86c.28-.27.59-.51.88-.77s.56-.51.89-.74.72-.49.79-1.07v0A1.59,1.59,0,0,0,18,47.55a3.26,3.26,0,0,0-1.65-.43,3.09,3.09,0,0,1,1.58.52,1.45,1.45,0,0,1,.62,1.47h0c-.05.41-.43.66-.73.88s-.63.48-.94.73-.62.48-.91.75a8.22,8.22,0,0,0-.76.9,6.75,6.75,0,0,0-1,2.12,3,3,0,0,0,.15,2.29,2.9,2.9,0,0,0,1.86,1.36c.38.12.77.19,1.15.29a1.26,1.26,0,0,1,.91.68,1.93,1.93,0,0,1-.11,1.16c-.12.37-.24.75-.33,1.13A3.4,3.4,0,0,0,18,63.71Z" fill="#4d352a"/><path d="M19.6,45.93a4.28,4.28,0,0,1,1,1.91,5.32,5.32,0,0,1,.11,2.1,5.15,5.15,0,0,1-2.25,3.38,7.93,7.93,0,0,0-.82.82,2.33,2.33,0,0,0-.35.56,1,1,0,0,0-.07.41.64.64,0,0,0,.07.28,1.24,1.24,0,0,0,.18.2c.47.3.82.25,1.1.41a5.65,5.65,0,0,1,.9.51,3.48,3.48,0,0,1,1.38,3.73,3.48,3.48,0,0,0-1.2-4,4.6,4.6,0,0,0-.95-.57c-.32-.18-.72-.18-1-.4s-.13-.34-.07-.5a2,2,0,0,1,.31-.46,7.2,7.2,0,0,1,.79-.77A5.34,5.34,0,0,0,21,50,4.86,4.86,0,0,0,19.6,45.93Z" fill="#4d352a"/><path d="M11.6,41.6a23.55,23.55,0,0,1-.58,3c-.28,1-1,2-1,3.11a5.54,5.54,0,0,0,1.57,3,4.85,4.85,0,0,0,3,1.27c2.22.41,4.51.82,6.34,2.26s1.13,3.65.32,5.53l0,0a.49.49,0,0,0,.13.71c.34.43,1.08.66,1.53,1a3.14,3.14,0,0,1,1.34,1.78c.25,1-.54,2.21-1,3.12.24.09.07-2,0-2.19a4.49,4.49,0,0,0-.65-.9,5.48,5.48,0,0,0-1.38-.66,4.18,4.18,0,0,1-2.16-1.47,2.71,2.71,0,0,1,0-2.28c.14-.46.28-.92.44-1.38.07-.2.44-.87.34-1.07-.11-.69-2.19-1.29-2.73-1.46-1.07-.32-2.19-.41-3.27-.7a7.73,7.73,0,0,1-5-4.39C8,48,8.48,46.48,9.48,44.75a22.38,22.38,0,0,0,1.19-2.14,19.64,19.64,0,0,1,.93-2.39C11.74,40.24,11.61,41.55,11.6,41.6Z" fill="url(#linear-gradient-36)"/><path d="M19.08,61.18A1.87,1.87,0,0,1,18.9,60a6.84,6.84,0,0,1,.35-1.17c.14-.39.29-.77.42-1.16.06-.17.17-.35.26-.54l.12-.31a.64.64,0,0,0,0-.47l0,.06a1.19,1.19,0,0,0-.5-.67,4.14,4.14,0,0,0-.6-.36,10.67,10.67,0,0,0-1.27-.53,17.81,17.81,0,0,0-2.62-.63A7.67,7.67,0,0,1,10.63,52a8.83,8.83,0,0,1-1.45-2.1,4.35,4.35,0,0,1-.51-2.41c.19-1.7,1.36-3.18,2-4.83-.72,1.61-2,3-2.24,4.79A4.43,4.43,0,0,0,8.9,50a8.89,8.89,0,0,0,1.49,2.2,7.19,7.19,0,0,0,2.11,1.6,9.23,9.23,0,0,0,2.54.77,16.48,16.48,0,0,1,2.59.6,10.9,10.9,0,0,1,1.24.47c.38.2.85.39,1,.83h0c0,.42-.26.77-.37,1.16l-.37,1.18a6.15,6.15,0,0,0-.28,1.2A1.83,1.83,0,0,0,19.08,61.18Z" fill="#4d352a"/><path d="M14.17,28.43c-1.24-1.78-3-2.81-4.26-2.73A2.24,2.24,0,0,0,8.1,28.34c.24,1.1.28,3,.47,4a5.3,5.3,0,0,0,1.57,2.76c.86.87,1.38,1.66,2,2.27a2.41,2.41,0,0,0,2.9.08C15.8,34,14.5,29.3,14.17,28.43Z" fill="url(#linear-gradient-37)"/><path d="M14.17,28.43c-1.24-1.78-3-2.81-4.26-2.73A2.24,2.24,0,0,0,8.1,28.34c.24,1.1.28,3,.47,4a5.3,5.3,0,0,0,1.57,2.76c.86.87,1.38,1.66,2,2.27a2.41,2.41,0,0,0,2.9.08C15.8,34,14.5,29.3,14.17,28.43Z" fill="url(#linear-gradient-38)" style="mix-blend-mode:darken"/><path d="M9.86,29.92c0-1.25.2-1.78.74-1.93s1.7,1.14,1.87,2.07.31,1.28-.06,1.62a2.47,2.47,0,0,0-.4,2,1.81,1.81,0,0,0,1.54,1.47c-1.37.46-1.76-.56-2.24-1.13A6,6,0,0,1,9.86,29.92Z" fill="url(#linear-gradient-39)" style="mix-blend-mode:darken"/><path d="M10.14,28.61a.4.4,0,0,1,.37-.43.9.9,0,0,1,.6.17,3,3,0,0,1,.8.88,6,6,0,0,1,.51,1.05,1.42,1.42,0,0,1-.07,1.16,1.79,1.79,0,0,0-.2-1.05c-.16-.32-.37-.64-.56-1a3.76,3.76,0,0,0-.64-.87.74.74,0,0,0-.44-.24A.35.35,0,0,0,10.14,28.61Z" fill="#b8784d"/><path d="M12.78,31.16a5.79,5.79,0,0,0-.59,1.09,2.19,2.19,0,0,0-.08,1.16,2.47,2.47,0,0,0,.48,1,2.87,2.87,0,0,0,1,.74,1.91,1.91,0,0,1-1.19-.53,2,2,0,0,1-.62-1.19A2.23,2.23,0,0,1,12,32.15,3.7,3.7,0,0,1,12.78,31.16Z" fill="#b8784d"/><path d="M11.34,30.11a2,2,0,0,0-.48.84,2.05,2.05,0,0,0-.06.92,2.78,2.78,0,0,0,.27.89,2.09,2.09,0,0,0,.59.77,1.45,1.45,0,0,1-.84-.62,2.32,2.32,0,0,1-.39-1,2,2,0,0,1,.2-1.06A1.72,1.72,0,0,1,11.34,30.11Z" fill="#b8784d"/><path d="M13.65,22.15c.15,5,.6,11.61,1,14.14s.79,4.84,2.27,6.43a13.11,13.11,0,0,0,2.81,2.1,48.25,48.25,0,0,0,5.66,2.74,30.15,30.15,0,0,0,3.52,1.21,14,14,0,0,0,4.68.6,3.74,3.74,0,0,0,1.25-.4h0a4.26,4.26,0,0,0,1.8-2c.49-1.12,1.41-2.63,2.44-4.52l0,0a25.29,25.29,0,0,0,2.64-6.54,14.22,14.22,0,0,0-.05-4.17c-.06-.42-.12-.83-.17-1.2a9.06,9.06,0,0,1-.16-1.39,6.05,6.05,0,0,1,.35-1.74,14,14,0,0,0,.41-4.87c-.17-1.24-.2-3.21-.73-6.68-.19-1.29-.88-6.41-5.34-9.47A14.88,14.88,0,0,0,27.41,4a12.65,12.65,0,0,0-7.18,2C14.38,9.85,13.54,18.39,13.65,22.15Z" fill="url(#radial-gradient-21)"/><circle cx="35.02" cy="35.73" r="3.25" fill="url(#radial-gradient-22)" style="mix-blend-mode:darken"/><circle cx="22.95" cy="37.84" r="6.12" opacity="0.3" fill="url(#Rona_Pipi)" style="mix-blend-mode:darken"/><path d="M35.58,37.23a5.58,5.58,0,0,0,3.53,5.2l0,0a25.29,25.29,0,0,0,2.64-6.54,14.22,14.22,0,0,0-.05-4.17,5,5,0,0,0-.55,0A5.58,5.58,0,0,0,35.58,37.23Z" opacity="0.3" fill="url(#Rona_Pipi-2)" style="mix-blend-mode:darken"/><path d="M33.91,25.84a4.39,4.39,0,1,0,6.67-3.75C39.23,22.73,33.91,23.42,33.91,25.84Z" fill="url(#radial-gradient-23)"/><path d="M28.92,48.76a31.31,31.31,0,0,1-4.69-1.71,43.45,43.45,0,0,1-4.48-2.23,15.36,15.36,0,0,0,2.08,1.43c.73.43,1.5.77,2.25,1.14s1.55.64,2.36.88A13.12,13.12,0,0,0,28.92,48.76Z" fill="#b8784d"/><path d="M25.45,26.35a5.06,5.06,0,1,0,9.16-3c-.92-1.27-3.4.33-7.2-1A5,5,0,0,0,25.45,26.35Z" fill="url(#radial-gradient-24)" style="mix-blend-mode:darken"/><path d="M13.65,22.15c.15,5,.6,11.61,1,14.14s.79,4.84,2.27,6.43a13.11,13.11,0,0,0,2.81,2.1,48.25,48.25,0,0,0,5.66,2.74,30.15,30.15,0,0,0,3.52,1.21,14,14,0,0,0,4.68.6,3.74,3.74,0,0,0,1.25-.4,15.27,15.27,0,0,1-2,.14c-2,0-4.05-.76-8.48-3.21-6.07-3.37-6.81-6.75-7.23-12.73,5.1-5,9.6-12.51,11.71-15.8s3.28-3.74,6.41-3.89c3.62.75,5.38,5.25,5.44,8.59a47.61,47.61,0,0,0,.65,7,6.05,6.05,0,0,1,.35-1.74,14,14,0,0,0,.41-4.87c-.17-1.24-.2-3.21-.73-6.68-.19-1.29-.88-6.41-5.34-9.47C30.4,6.15,23.89,6,20.23,6,14.38,9.85,13.54,18.39,13.65,22.15Z" fill="url(#linear-gradient-40)" style="mix-blend-mode:darken"/><path d="M35.35,13.19a3.69,3.69,0,0,1,2.39.64A9,9,0,0,1,41.63,20c.82,4.53,1.36,7.79,2.27,9.9a6.46,6.46,0,0,1-1.29,7c3.55-2.19,3-5.67,2.49-7.79s-.22-5.84-.68-10.58a19.65,19.65,0,0,0-3.51-9.42c-.33-.48-.66-.93-1-1.35h0c-.41-.51-.82-1-1.22-1.4C36.26,3.75,31-.42,24.76,0,24,5.7,32.85,12.21,35.35,13.19Z" fill="url(#radial-gradient-25)"/><path d="M37.74,13.83a3.62,3.62,0,0,0,2.53-2.23,7.12,7.12,0,0,0,1.13.08,25.19,25.19,0,0,0-.49-2.61c-.33-.48-.66-.93-1-1.35.22,1.08.28,2.07.37,2.75l-1.14-.3A3.43,3.43,0,0,1,37.74,13.83Z" opacity="0.7" fill="url(#radial-gradient-26)" style="mix-blend-mode:screen"/><path d="M35.35,13.19a3.84,3.84,0,0,1,2.39.64,7.5,7.5,0,0,1,1.88,1.67,10.15,10.15,0,0,1,2,4.57c.3,1.66.59,3.32.92,5a26.86,26.86,0,0,0,1.33,4.86,17.07,17.07,0,0,1-.61-2.44c-.17-.82-.31-1.65-.45-2.47L42,20a10,10,0,0,0-2.16-4.68,7.34,7.34,0,0,0-2-1.65A3.91,3.91,0,0,0,35.35,13.19Z" fill="#4d352a"/><path d="M35.45,29.85a4.77,4.77,0,0,1,2-4,3.62,3.62,0,0,1,3.89-.09c1,.58,1.92,1.46,2.79,1.12a3.33,3.33,0,0,1-2.39,1.49,2,2,0,0,1-1.37,1.52,10,10,0,0,1-1.38.05,11.9,11.9,0,0,1-2.39,0c-.28-.53-.58-.56-.58-.56Z" fill="url(#radial-gradient-27)"/><path d="M41.28,26.93a2.07,2.07,0,0,1-.58,2.45c-.65.56-1.2.36-2.1.47a8.74,8.74,0,0,1-3.15,0,3.89,3.89,0,0,1,2.45-3.7C39.1,25.62,40.85,25.71,41.28,26.93Z" fill="url(#Gradient_Eye)"/><g clip-path="url(#clip-path)"><circle cx="37.17" cy="28" r="2.23" fill="url(#radial-gradient-28)"/><circle cx="37.17" cy="28" r="1.54" fill="#222223"/><circle cx="37.13" cy="27.55" r="0.4" fill="#fff"/><circle cx="38.44" cy="29" r="0.2" fill="#fff"/></g><path d="M41.28,27.32c-.43-1.07-2.18-1.15-3.38-.69a3.46,3.46,0,0,0-2.45,3.22h0a3.89,3.89,0,0,1,2.45-3.7c1.2-.53,3-.44,3.38.78a2.41,2.41,0,0,1,.16,1A2.25,2.25,0,0,0,41.28,27.32Z" fill="url(#linear-gradient-41)" style="mix-blend-mode:multiply"/><path d="M31,29.64a6.37,6.37,0,0,0,1.73,4A1.54,1.54,0,0,0,32,35.12,1.45,1.45,0,0,0,33,36.41c.68,0,1.05-.45,1.89-.08a2.54,2.54,0,0,0,2.37-.23,1.35,1.35,0,0,0,.47-.45h0l0,0a1.34,1.34,0,0,0,.1-1.35c-.33-.75-1.36-3.1-1.73-4.08A3.83,3.83,0,0,1,36,27.25c.38-1.2.91-2.64,1.51-4,.23-4.09-5.33-1.53-8.54-.47-.14.06-.3.1-.45.16A14.57,14.57,0,0,1,31,29.64Z" fill="url(#linear-gradient-42)"/><path d="M35.43,28.9c.12.53.27,1.06.43,1.58L36.37,32c.1.26.18.51.3.77s.22.51.36.75A3.3,3.3,0,0,1,37.72,35a2.6,2.6,0,0,0-.44-1.58c-.12-.24-.2-.5-.3-.75s-.19-.5-.28-.76l-.6-1.52C35.89,29.89,35.67,29.39,35.43,28.9Z" fill="#faf8d3"/><path d="M31,29.64a6.37,6.37,0,0,0,1.73,4A1.54,1.54,0,0,0,32,35.12,1.45,1.45,0,0,0,33,36.41c.68,0,1.05-.45,1.89-.08a2.54,2.54,0,0,0,2.37-.23,1.35,1.35,0,0,0,.47-.45,2,2,0,0,1-.54,0c-.82,0-.92-.91-1.12-1.73A34,34,0,0,0,34.24,28c-.73-1.3-1.33-2.69-2.66-4.93A13.16,13.16,0,0,1,29,22.75c-.14.06-.3.1-.45.16A14.57,14.57,0,0,1,31,29.64Z" fill="url(#linear-gradient-43)" style="mix-blend-mode:darken"/><path d="M31,29.64a6.37,6.37,0,0,0,1.73,4A1.54,1.54,0,0,0,32,35.12,1.45,1.45,0,0,0,33,36.41c.68,0,1.05-.45,1.89-.08a2.54,2.54,0,0,0,2.37-.23,1.35,1.35,0,0,0,.47-.45,2,2,0,0,1-.54,0c-.82,0-.92-.91-1.12-1.73A34,34,0,0,0,34.24,28c-.73-1.3-1.33-2.69-2.66-4.93A13.16,13.16,0,0,1,29,22.75c-.14.06-.3.1-.45.16A14.57,14.57,0,0,1,31,29.64Z" fill="url(#radial-gradient-29)" style="mix-blend-mode:darken"/><path d="M32,35.12A1.45,1.45,0,0,0,33,36.41c.68,0,1.05-.45,1.89-.08a2.54,2.54,0,0,0,2.37-.23,1.52,1.52,0,0,0,.51-.5,4.36,4.36,0,0,1-1,.17,7.45,7.45,0,0,1-2.47-.6,1.29,1.29,0,0,0-1.59.59A1.22,1.22,0,0,1,32,35.12Z" fill="url(#linear-gradient-44)" style="mix-blend-mode:darken"/><path d="M34.9,36.33a1.64,1.64,0,0,0-1.32,0,1.53,1.53,0,0,1-.67.06,1.08,1.08,0,0,1-.55-.37,1.48,1.48,0,0,1-.4-1.25,1.77,1.77,0,0,1,.74-1.09,1.56,1.56,0,0,0-1,1,1.74,1.74,0,0,0,.41,1.53,1.28,1.28,0,0,0,1.56.34A2.08,2.08,0,0,1,34.9,36.33Z" fill="#b8784d"/><path d="M37.5,23.21,36.07,27a3.84,3.84,0,0,0-.25,2A7.89,7.89,0,0,0,36.49,31l.8,1.88.4.94a3,3,0,0,1,.32,1,1.6,1.6,0,0,1-1.13,1.54,2.4,2.4,0,0,1-2,0,2.48,2.48,0,0,0,2.05.13,1.8,1.8,0,0,0,1.33-1.71,1.77,1.77,0,0,0-.11-.6L38,33.67l-.39-.94-.77-1.89A9,9,0,0,1,36.14,29a3.92,3.92,0,0,1,.2-1.87L37,25.19Z" fill="#b8784d"/><path d="M20.11,23.4c2.37-1.44,3.82-2.23,5.09-2.09a39.18,39.18,0,0,1,4.54,1.25,5.06,5.06,0,0,0,2.33.12,2.06,2.06,0,0,1-2.53.89,44.11,44.11,0,0,0-5-1.4A11.49,11.49,0,0,0,20.11,23.4Z" fill="url(#radial-gradient-30)"/><path d="M29.61,30.07a5.45,5.45,0,0,0-7.74-4.72c-1.24.5-2.12,1.9-3.51,1.59a2.11,2.11,0,0,0,2,1.66,3.78,3.78,0,0,0,3.4,1.58c2.56,0,5.83-.11,5.83-.11Z" fill="url(#radial-gradient-31)"/><path d="M29.61,30.07c-.93.62-2.32.06-4.25,0C23,30,21.73,30,21,28.45a3.54,3.54,0,0,1,4.21-2.9C27.17,25.77,29.65,27.2,29.61,30.07Z" fill="url(#Gradient_Eye-2)"/><g clip-path="url(#clip-path-2)"><circle cx="24.17" cy="27.86" r="2.46" fill="url(#radial-gradient-32)"/><circle cx="24.17" cy="27.86" r="1.69" fill="#222223"/><circle cx="22.63" cy="27.15" r="0.44" fill="#fff"/><circle cx="25.57" cy="28.97" r="0.22" fill="#fff"/></g><path d="M25.17,26c-2.32-.23-3.75.86-4.17,2.51l0-.06a3.54,3.54,0,0,1,4.21-2.9c2,.22,4.48,1.65,4.44,4.52h0C29.63,27.49,27.16,26.2,25.17,26Z" fill="url(#linear-gradient-45)" style="mix-blend-mode:multiply"/><path d="M36.77,22.66a1.07,1.07,0,0,0,1.28.78,20.67,20.67,0,0,0,2.31-.53c.55-.11,1.31.3,1.76,1.59a3,3,0,0,0-.51-1.93,1.44,1.44,0,0,0-1.7-.49C39,22.29,37.37,22.89,36.77,22.66Z" fill="url(#radial-gradient-33)"/><path d="M5.41,41.47c2,3,4.69,3.18,6.58,5.29,1.4,1.58.34,3.24-1.07,5-.49.59-1,1.17-1.5,1.77a3.25,3.25,0,0,0-.5,3.22,4.81,4.81,0,0,0,3.37,3.06A6.49,6.49,0,0,1,16.34,62v0a3.12,3.12,0,0,1,.33.41,7.88,7.88,0,0,1,.68,1.22,3.65,3.65,0,0,0,.07-1.18,4.25,4.25,0,0,0-2-3.29c-1.14-.52-3-1.74-3-3.4a5.19,5.19,0,0,1,2.79-4.69,3.35,3.35,0,0,0,.38-5.29c-1.44-1.36-3.1-3-3.4-5.22s1.13-5,4.08-8.39,9-10.86,11-14.67a8.46,8.46,0,0,1,2.73-3.18l.39-.25h0a8,8,0,0,1,5.05-.88C35.88,9.56,31.55,1.38,24.76,0h-1.6A18.91,18.91,0,0,0,17.4,1l-.08,0a15.16,15.16,0,0,0-5.64,3.52c-.17.17-.35.35-.5.53A16.59,16.59,0,0,0,7,18.11a26.88,26.88,0,0,1,.32,2.7c.38,5-.43,9.86-1.84,11.59A8.06,8.06,0,0,0,5.41,41.47Z" fill="url(#radial-gradient-34)"/><path d="M8.92,56.71a4.81,4.81,0,0,0,3.37,3.06A6.49,6.49,0,0,1,16.34,62c-.79-2.25-2.42-2.82-3.45-3.38a8.29,8.29,0,0,1-2.44-2.16,3.71,3.71,0,0,0,.68,2.19A6.7,6.7,0,0,1,8.92,56.71Z" fill="url(#linear-gradient-46)" style="mix-blend-mode:multiply"/><path d="M5.41,41.47c2,3,4.69,3.18,6.58,5.29,1.4,1.58.34,3.24-1.07,5a2.1,2.1,0,0,1,.39-.21A5,5,0,0,0,13.75,49a3,3,0,0,1-.74,2.5c.56-.46,2.49-2.27,2.32-3.51s-1.47-2.1-3-3.67a13.44,13.44,0,0,1-3-5.93,14.24,14.24,0,0,0,.28,4.15,11,11,0,0,1-2.55-4.2,7.57,7.57,0,0,0,1,4.52A10.13,10.13,0,0,1,5.3,39.31c-.8-2,.16-5.44,1.92-8.16a11.22,11.22,0,0,0,.23,3.74c.28-1.53,1.93-3.63,2.41-5,0,.82.77,3.1.59,4.07a15.87,15.87,0,0,0,3.11-5.77A19.53,19.53,0,0,1,11.25,31a45.32,45.32,0,0,0,1.53-7.48s-.85,1.47-2.21,3.63c0-.87-.91-6.35-1.42-8.8.06.18-.39,4.2-.68,6.58,0-.25-.56-2.14-1.15-4.1.38,5-.43,9.86-1.84,11.59A8.06,8.06,0,0,0,5.41,41.47Z" fill="url(#linear-gradient-47)" style="mix-blend-mode:multiply"/><path d="M11.18,5.12a9.45,9.45,0,0,0,1,1.87,2.37,2.37,0,0,0-.9.68,17.73,17.73,0,0,0,5.21,2.27,11.86,11.86,0,0,1-.79,1.7A52.47,52.47,0,0,0,23,12.78a2.68,2.68,0,0,0-.91,1.58,43.36,43.36,0,0,0,7.83,0l.39-.25a28.06,28.06,0,0,1-5.61-1.18c.57-.56,1.36-1.25,1.36-1.25a73.21,73.21,0,0,1-7.71-.91c.68-.67,1.36-1.47,1.36-1.47C17.09,9.37,14,7.56,14,7.56a3.38,3.38,0,0,1,1-1.13,4.92,4.92,0,0,1-3.36-1.84c-.11-.14-.22-.27-.32-.41l-.4.34C11,4.71,11.1,4.92,11.18,5.12Z" opacity="0.7" fill="url(#radial-gradient-26)" style="mix-blend-mode:screen"/><path d="M35.35,13.19a8.3,8.3,0,0,0-4.69.5A8,8,0,0,0,27.16,17a62.64,62.64,0,0,1-5.34,7.74c-1.89,2.51-3.88,4.95-5.89,7.38A25.31,25.31,0,0,0,13.19,36a7.48,7.48,0,0,0-1,4.57,7.32,7.32,0,0,1,1.21-4.48,24.66,24.66,0,0,1,2.79-3.81c2.06-2.39,4-4.84,6-7.34a60.69,60.69,0,0,0,5.3-7.82,7.85,7.85,0,0,1,3.32-3.26A8.15,8.15,0,0,1,35.35,13.19Z" fill="#4d352a"/><path d="M24.76,0a13.12,13.12,0,0,1,7.41,4.88A16.77,16.77,0,0,1,34.49,8.8a9.14,9.14,0,0,1,.86,4.39,7,7,0,0,0,0-2.28,14,14,0,0,0-.61-2.22,15.87,15.87,0,0,0-2.3-4,14.54,14.54,0,0,0-3.4-3.1A11.66,11.66,0,0,0,27,.57c-.37-.11-.73-.25-1.1-.33Z" fill="#4d352a"/><path d="M17.35,63.63A6.57,6.57,0,0,0,16,61.46,6.11,6.11,0,0,0,13.83,60c-.8-.35-1.7-.41-2.4-.77a4.92,4.92,0,0,1-1.79-1.63A3.92,3.92,0,0,1,9,55.36a2.87,2.87,0,0,1,.3-1.11,4.86,4.86,0,0,1,.71-1c.55-.64,1.13-1.27,1.66-2A6.19,6.19,0,0,0,12.94,49a2.66,2.66,0,0,0-.1-1.45,3.58,3.58,0,0,0-.8-1.16,9.84,9.84,0,0,0-2.11-1.56,12.71,12.71,0,0,1-4-3A7.6,7.6,0,0,1,4.23,37.2a7.45,7.45,0,0,1,1.25-4.8,7.54,7.54,0,0,0-1.43,4.8,7.88,7.88,0,0,0,1.7,4.73,12.83,12.83,0,0,0,4,3.1,9.53,9.53,0,0,1,2,1.54,3.1,3.1,0,0,1,.71,1,2.25,2.25,0,0,1,.08,1.26,6,6,0,0,1-1.2,2.23c-.52.68-1.09,1.32-1.63,2a3.61,3.61,0,0,0-1,2.27,4.22,4.22,0,0,0,.73,2.41,5.26,5.26,0,0,0,1.89,1.68c.77.38,1.65.42,2.44.75a6,6,0,0,1,2.16,1.33A6.59,6.59,0,0,1,17.35,63.63Z" fill="#4d352a"/><path d="M12.14,40.56a6.65,6.65,0,0,0,1.3,3.28,15.23,15.23,0,0,0,1.17,1.36,12,12,0,0,1,1.15,1.27,3.35,3.35,0,0,1,.34,3.06,2.65,2.65,0,0,1-1,1.17,8.73,8.73,0,0,0-1.47,1.09,5.41,5.41,0,0,0-1.58,3.34A3.26,3.26,0,0,0,12.4,57a4.4,4.4,0,0,0,1.25,1.39,7.75,7.75,0,0,0,1.56.93,3.21,3.21,0,0,1,1.27,1.05,4.18,4.18,0,0,1,.87,3.25,4.26,4.26,0,0,0-.73-3.35c-.63-1.07-1.92-1.3-2.8-2.09a4.55,4.55,0,0,1-1.14-1.33,2.85,2.85,0,0,1-.3-1.7,5,5,0,0,1,1.51-3.11A7.26,7.26,0,0,1,15.29,51a3,3,0,0,0,1.12-1.33A3.58,3.58,0,0,0,16,46.31,11.28,11.28,0,0,0,14.77,45a16.35,16.35,0,0,1-1.19-1.31A6.44,6.44,0,0,1,12.14,40.56Z" fill="#4d352a"/><path d="M35.13,35.88a3.78,3.78,0,0,0-1.28-.47c-.41,0-.66.15-.67.41s.45.29.74.13A2.8,2.8,0,0,1,35.13,35.88Z" fill="url(#radial-gradient-36)"/><path d="M15.84,25A42.66,42.66,0,0,0,16,37.33a31,31,0,0,1-3-10.89C13.91,23.89,14.71,24.46,15.84,25Z" fill="url(#radial-gradient-37)"/><circle cx="33.72" cy="40.15" r="3.23" fill="url(#radial-gradient-38)" style="mix-blend-mode:darken"/><path d="M25.83,39.21c1,.53,3.16,1.61,4.22,2.11a8.84,8.84,0,0,0,4.7.87,3.26,3.26,0,0,0,2.78-2.93,20.87,20.87,0,0,1-4.66.65C31.79,39.78,27.45,39.42,25.83,39.21Z" fill="url(#radial-gradient-39)"/><path d="M38.22,38.9a3.88,3.88,0,0,0-3.15.6,5.34,5.34,0,0,0-3.66-.33,38.66,38.66,0,0,1-6.21-.09,34.88,34.88,0,0,0,9.71,1.16A6.48,6.48,0,0,0,38.22,38.9Z" fill="url(#radial-gradient-40)"/><path d="M25.2,39.08a38.83,38.83,0,0,0,6.61,1.11,17.15,17.15,0,0,0,3.36,0,6.51,6.51,0,0,0,3-1.31,4.88,4.88,0,0,1-3,1.66,16.24,16.24,0,0,1-3.42-.05A26.67,26.67,0,0,1,28.45,40,21.14,21.14,0,0,1,25.2,39.08Z" fill="#964849"/><path d="M35,41.18h-.83l-.4,0a3.34,3.34,0,0,0-.43,0,1.29,1.29,0,0,0,.41.16,1.58,1.58,0,0,0,.43,0,2,2,0,0,0,.43-.08A1.23,1.23,0,0,0,35,41.18Z" fill="#fbdcdd"/><circle cx="25.57" cy="39.01" r="0.98" opacity="0.7" fill="url(#radial-gradient-41)" style="mix-blend-mode:darken"/><circle cx="37.75" cy="39.16" r="0.98" opacity="0.7" fill="url(#radial-gradient-42)" style="mix-blend-mode:darken"/><path d="M29.57,86.34a10.08,10.08,0,0,1-2.22.67c-1.45.2-2.18,0-2.8.36a.76.76,0,0,0-.19.12l-.16-.09a8.59,8.59,0,0,1-1.26-.93A11.34,11.34,0,0,0,20.84,85a11.1,11.1,0,0,1-2.39-1.56.64.64,0,0,1-.17-.39.33.33,0,0,1,.3-.4h0l.07,0h.13l-.07-.05v0a15.2,15.2,0,0,1-1.43-1.06.51.51,0,0,1-.15-.25.59.59,0,0,1,.53-.56h.18l0,0-.09,0h0a8.2,8.2,0,0,1-1.28-.82.58.58,0,0,1-.22-.4.5.5,0,0,1,.56-.53c.34.11,1.37.42,2.15.62.57.15.95.23,1.29.34l.36.16a17.72,17.72,0,0,1,1.92.9l.07,0h0l.6.33-.08-.06-.15-.11-.23-.16h0l-.13-.09L21.42,80l0,0s0,0,0,0A5.85,5.85,0,0,0,20,79.22h0a16,16,0,0,1-2-.94.84.84,0,0,1-.44-.53c-.07-.32.13-.58.4-.5l1.37.41.89.26a12.92,12.92,0,0,1,2.21.92c.39.24,1.48.72,2.15,1A4.68,4.68,0,0,1,25.94,81C26.38,81.48,28.31,84.62,29.57,86.34Z" fill="url(#linear-gradient-48)"/><path d="M18.71,82.59c-.51-.37-1-.71-1.42-1.07a.4.4,0,0,1-.14-.25,9.58,9.58,0,0,0,1.66,1.07,22.28,22.28,0,0,0,2.29,1c.07,0,2,1.47,2,1.47L21,83.55l-2.31-.91h.1Z" fill="url(#linear-gradient-49)" style="mix-blend-mode:darken"/><path d="M21.64,81.87c.21.13,2.62,1.56,2.64,1.62a13.11,13.11,0,0,1-2.79-1.39s-2.49-.94-3.75-1.4h.11l-.12-.07h0a7.75,7.75,0,0,1-1.27-.82.51.51,0,0,1-.23-.4,3.76,3.76,0,0,0,1.12.74c.84.41,2.91,1.14,3.22,1.23A6.88,6.88,0,0,1,21.64,81.87Z" fill="url(#linear-gradient-50)" style="mix-blend-mode:darken"/><path d="M24.55,87.37a.76.76,0,0,0-.19.12l-.16-.09a8.59,8.59,0,0,1-1.26-.93A11.34,11.34,0,0,0,20.84,85a11.1,11.1,0,0,1-2.39-1.56.64.64,0,0,1-.17-.39,3.68,3.68,0,0,0,1,.8c.62.35,1.42.73,1.91,1a13.87,13.87,0,0,1,2,1.41c.21.19.59.49.91.74h0Z" fill="url(#linear-gradient-51)" style="mix-blend-mode:darken"/><path d="M18,78.28a.9.9,0,0,1-.44-.53,5.89,5.89,0,0,0,1.29.71l1.76.71a6.89,6.89,0,0,1,1.54,1L24.68,82c-.49-.25-1.28-.68-2-1.06a0,0,0,0,0,0,0c-.41-.31-1-.73-1.32-1h0A5.36,5.36,0,0,0,20,79.22,16.07,16.07,0,0,1,18,78.28Z" fill="url(#linear-gradient-52)" style="mix-blend-mode:darken"/><path d="M25.25,83.94a13.24,13.24,0,0,1-2.11-.75,10.08,10.08,0,0,1-1-.54l-.47-.29-.5-.22c-.66-.31-1.38-.53-2.06-.82-.49-.19-1-.4-1.47-.61h.18l-.12-.06c.5.14,1,.29,1.5.45a22.19,22.19,0,0,1,2.11.75c.17.08.34.15.51.24l.47.31c.31.21.61.4.94.58C23.9,83.32,24.59,83.61,25.25,83.94Z" fill="#b8784d"/><path d="M25.18,82.26c-.4-.16-.81-.34-1.21-.53s-.77-.42-1.15-.63l-.26-.17.65.36c-.14-.1-1.29-1-1.83-1.32l.45.23c.38.2.77.42,1.14.64l1.11.7A13,13,0,0,1,25.18,82.26Z" fill="#b8784d"/><path d="M24.48,85.59c-.55-.25-1.08-.53-1.6-.82l-1.56-.87c-.51-.3-1.09-.42-1.64-.7a8.68,8.68,0,0,0-1.1-.55.81.81,0,0,1,.22,0l-.09-.06a7.14,7.14,0,0,1,1.07.39,13.39,13.39,0,0,1,1.68.64c.54.3,1,.62,1.54.94S24,85.23,24.48,85.59Z" fill="#b8784d"/></g></g></g></svg>