<svg xmlns="http://www.w3.org/2000/svg" viewBox="0 0 63.57 152.8"><g id="Layer_2" data-name="Layer 2"><g id="objects"><ellipse cx="31.78" cy="149.64" rx="31.78" ry="3.17" fill="#1c1918" opacity="0.1"/><path d="M50.67,29.05s-4.62-6.84-8.47-14.23L45,13.56s16,13.2,13.32,19.62C53,42.48,50.67,29.05,50.67,29.05Z" fill="#ffbfa1"/><path d="M51.54,30.3s-10,9.28-10.36,10.32c-2.5,7.47,3.43,7.24,3.43,7.24l14.5-15Z" fill="#e6f9ff"/><polygon points="50.53 31.11 57.69 35.73 60.28 33.11 51.17 29.85 50.53 31.11" fill="#d8eaef"/><path d="M43.53,11.63s-8-6.79-2.59-.88c0,0-6.11-4.88-1.18.34,0,0-5.95-3.52-.2,1.25,0,0-6.76-2.59.24,1.84,0,0,1.81.84,1.06,1.58s-2-.23-2.41,1c0,0,3.08,2.5,5.27.85C47.51,14.78,43.53,11.63,43.53,11.63Z" fill="#ffbfa1"/><path d="M13.47,31.06s5-6.56,9.31-13.7L20,15.93S3.25,28.16,5.55,34.72C10.4,44.32,13.47,31.06,13.47,31.06Z" fill="#ffbfa1"/><path d="M12.53,32.25S22,42.12,22.26,43.17c2,7.61-3.86,7-3.86,7L4.82,34.38Z" fill="#e6f9ff"/><polygon points="13.5 33.12 6.07 37.31 3.64 34.54 12.93 31.82 13.5 33.12" fill="#d8eaef"/><path d="M21.64,14.09s8.4-6.3,2.63-.72c0,0,6.4-4.51,1.16.41,0,0,6.15-3.16.13,1.26,0,0,6.9-2.18-.35,1.83,0,0-1.86.73-1.15,1.51s2-.12,2.35,1.17c0,0-3.23,2.31-5.32.53C17.48,17,21.64,14.09,21.64,14.09Z" fill="#ffbfa1"/><polygon points="27.16 35.67 26.97 46.93 33.87 44.18 34.14 32.59 27.16 35.67" fill="#d69f8a"/><path d="M34,7.9c6.37,1.74,6,6.16,6,6.16s-.34,3.4-.64,7.46A2.13,2.13,0,0,1,42,20.91c2.15,1,.25,7.87-3.06,7.13A16,16,0,0,1,38.22,32c-1,1.92-5.26,4.75-8.93,5.06s-8.14-2.3-8-6.6S22,12.09,22,12.09,23.4,5,34,7.9Z" fill="#ffbfa1"/><path d="M27.51,20.1a15.45,15.45,0,0,1-1.1,3.64,10.29,10.29,0,0,1-.89,1.71,5.39,5.39,0,0,1-1.27,1.47v-.24c.46.48.9,1,1.33,1.49q-.81-.6-1.56-1.26l-.12-.1.13-.14a11.46,11.46,0,0,0,2-3.11C26.53,22.42,27,21.27,27.51,20.1Z" fill="#d69f8a"/><path d="M31.39,20.87c0,.93.35,1.71.86,1.73s1-.72,1-1.66-.35-1.71-.87-1.73S31.43,19.93,31.39,20.87Z" fill="#222228"/><path d="M23.52,20.92c0,.93.35,1.71.86,1.73s1-.72,1-1.66-.35-1.71-.87-1.73S23.56,20,23.52,20.92Z" fill="#222228"/><path d="M22.37,15.83c.85.46,1.56,1,2.32,1.32a4,4,0,0,0,1.13.39,3.63,3.63,0,0,0,1.3-.05,1.89,1.89,0,0,1-1.3.73,2.87,2.87,0,0,1-1.51-.3,3.77,3.77,0,0,1-1.17-.87A3.38,3.38,0,0,1,22.37,15.83Z" fill="#664032"/><path d="M29,17.23a3.83,3.83,0,0,0,1.3,0,4.42,4.42,0,0,0,1.13-.42c.75-.37,1.44-.89,2.29-1.37A3.24,3.24,0,0,1,33,16.7a3.77,3.77,0,0,1-1.15.9,2.85,2.85,0,0,1-1.5.33A1.9,1.9,0,0,1,29,17.23Z" fill="#664032"/><path d="M41.35,20.67s.64-7.47.95-8.21,2.18-.56,2.18-.56-.32-8.07-8.16-8.77a6,6,0,0,1,5.36,1.72,11.05,11.05,0,0,0-12-4.52s-5,1-5.78,3.79A6.57,6.57,0,0,1,27.73.06S21.1,1.84,20.89,6.9c-.16,4,1.21,4.82,1.21,4.82s1.36,1,4.8-.69,8-1.49,9.39-.41.91,4.12.91,4.12a2.14,2.14,0,0,0,1,2l-.26,7.53H39.1l.22-2.1A2,2,0,0,1,41.35,20.67Z" fill="#664032"/><path d="M41.67,22.09c-1.12-.63-2.2,1.17-2.33,3.13.94-.1,1,1,.5,1.75C41.68,27.44,42.86,22.75,41.67,22.09Z" fill="#d69f8a"/><path d="M25.36,31.71s.67-4.25,4.37-4.58A3.84,3.84,0,0,1,34,30.41Z" fill="#bf6b6b"/><path d="M32.14,28.22a3.45,3.45,0,0,1,.88.14,3.58,3.58,0,0,0-3.29-1.23c-3.7.33-4.37,4.58-4.37,4.58L29,31.16A2.84,2.84,0,0,1,32.14,28.22Z" fill="#723838"/><polygon points="22.12 138.96 21.94 145.84 18.82 145.84 18.7 138.25 22.12 138.96" fill="#16333c"/><path d="M17.87,142a10.05,10.05,0,0,1-4.49,3.13c-2.71.81-5.45,1.85-5.25,3.48,0,0,4.33,2,10.86-.22v.69l4.29-.19v-5.7l-3.56.25.26-.57Z" fill="#333030"/><path d="M15.26,148.79a13.59,13.59,0,0,1-7.09-.58,1.05,1.05,0,0,0,0,.43s4.33,2,10.86-.22v.69l4.29-.19v-1.44C21.75,147.58,19.21,148.17,15.26,148.79Z" fill="#1c1918"/><path d="M18.46,145.35a.16.16,0,0,1-.15-.09,4.45,4.45,0,0,0-1.87-1.68.19.19,0,0,1-.12-.24.18.18,0,0,1,.24-.11,4.62,4.62,0,0,1,2.06,1.82.18.18,0,0,1-.05.26A.15.15,0,0,1,18.46,145.35Z" fill="#1c1918"/><path d="M17.48,145.79a.16.16,0,0,1-.15-.09A4.44,4.44,0,0,0,15.45,144a.19.19,0,0,1-.11-.24.18.18,0,0,1,.24-.11,4.7,4.7,0,0,1,2.06,1.82.19.19,0,0,1-.16.3Z" fill="#1c1918"/><path d="M16.5,146.22a.21.21,0,0,1-.16-.08,4.39,4.39,0,0,0-1.87-1.68.18.18,0,0,1-.11-.24.19.19,0,0,1,.24-.12,4.83,4.83,0,0,1,2.06,1.83.19.19,0,0,1-.06.26A.17.17,0,0,1,16.5,146.22Z" fill="#1c1918"/><polygon points="49.92 138.55 51.71 145.2 48.72 146.09 46.44 138.84 49.92 138.55" fill="#16333c"/><path d="M46.72,142.7A10,10,0,0,1,43.31,147c-2.37,1.55-4.7,3.32-4.05,4.82,0,0,4.71.67,10.35-3.29l.2.66,4.06-1.4-1.62-5.47-3.35,1.25.1-.61Z" fill="#333030"/><path d="M46.14,149.93a13.71,13.71,0,0,1-7,1.46,1.15,1.15,0,0,0,.08.41s4.71.67,10.35-3.29l.2.66,4.06-1.4-.41-1.38C52,146.92,49.75,148.21,46.14,149.93Z" fill="#1c1918"/><path d="M48.24,145.71a.19.19,0,0,1-.18,0,4.34,4.34,0,0,0-2.27-1.08.2.2,0,0,1-.18-.2.2.2,0,0,1,.2-.18,4.65,4.65,0,0,1,2.49,1.17.19.19,0,0,1,0,.26Z" fill="#1c1918"/><path d="M47.42,146.41a.17.17,0,0,1-.17,0A4.38,4.38,0,0,0,45,145.3a.19.19,0,0,1,0-.38,4.76,4.76,0,0,1,2.5,1.17.19.19,0,0,1-.07.32Z" fill="#1c1918"/><path d="M46.6,147.11a.17.17,0,0,1-.17,0A4.45,4.45,0,0,0,44.15,146a.19.19,0,0,1-.17-.2.18.18,0,0,1,.2-.18,4.68,4.68,0,0,1,2.49,1.17.18.18,0,0,1,0,.26A.15.15,0,0,1,46.6,147.11Z" fill="#1c1918"/><path d="M42.4,73.75l.91,39,9.52,27.86s-1.36,2.32-7.36,1.92L34.83,115.38,33.31,88.69l-4.44-.76-7.18,25.54A39.79,39.79,0,0,1,14.13,112L23,74.39Z" fill="#6d6d6d"/><path d="M25.23,76.81a9.56,9.56,0,0,1-2.55-.68c-.5-.13-.8.35-.83.86,0,.66.11,1,.56,1.12a13.48,13.48,0,0,0,2.58.68Z" fill="#1c1918"/><path d="M37.25,76.59a51.66,51.66,0,0,1-6.09.54A32.11,32.11,0,0,1,26.63,77a8.63,8.63,0,0,1,0,2,31.79,31.79,0,0,0,4.66.18c.72,0,1.42-.08,2.1-.13,1.54-.13,2.95-.3,4.27-.54A9.11,9.11,0,0,1,37.25,76.59Z" fill="#1c1918"/><path d="M42.69,76.08c-.13-.49-.21-.93-.69-.74a19.84,19.84,0,0,1-3.54,1c.08.64.22,1.28.36,1.92a19.55,19.55,0,0,0,3.7-1.19C42.86,77,42.81,76.57,42.69,76.08Z" fill="#1c1918"/><path d="M29.86,76.89l.2,2.45,4.34-.06-.21-2.63Zm3.77,2-2.87,0-.13-1.61,2.86-.16Z" fill="#adadad"/><path d="M17.31,46.2s3,19.55,5.41,29.36a30.51,30.51,0,0,0,12.82.36c5.45-.87,6.88-2.23,6.88-2.23l5-34.19a72.4,72.4,0,0,0-13.49.55l-3.44,4s-1.38-2.66-3.51-3c-3.12.59-6.5,1.37-10.09,2.41Z" fill="#e6f9ff"/><polygon points="30.49 44.09 31.08 40.48 33.43 41.24 30.49 44.09" fill="#d8cac7"/><polygon points="29.83 40.94 30.49 44.09 28.41 42.05 29.83 40.94" fill="#d8cac7"/><path d="M31.88,41.63a8.37,8.37,0,0,1-2.6.4l-1.06,1.61,1.27,1.42-1.3,25L31.82,73l3.62-3.3L31.59,45l1.12-2.08Z" fill="#16333c"/><polygon points="24.79 41.33 27.95 44.68 29.83 40.94 25.94 38.97 24.79 41.33" fill="#d8eaef"/><polygon points="36.41 39.45 33.42 43.82 31.08 40.48 34.76 37.43 36.41 39.45" fill="#d8eaef"/><path d="M14.13,112l2,28.46s3.3,3.89,8,.2l-1.94-29.52Z" fill="#6d6d6d"/></g></g></svg>