<svg xmlns="http://www.w3.org/2000/svg" viewBox="0 0 71.65 180.62"><g style="isolation:isolate"><g id="Layer_2" data-name="Layer 2"><g id="OBJECTS"><path d="M48.93,37.8a6.3,6.3,0,1,0,6.3-6.48A6.39,6.39,0,0,0,48.93,37.8Z" fill="#5c311e"/><path d="M33.33,21.24c0,10,5.44,17.69,15.35,17.69S65.2,29.18,65.2,19.19,58.6,2.74,48.68,2.74,33.33,11.25,33.33,21.24Z" fill="#5c311e"/><path d="M38.54,168.73c1.65-1.68,5-1.61,5.86.91.31.8,1.75,3.19.38,9.82H43.61v-3.21l0-.35c-.17.62-.4,1.28-.63,2-1,3.14-7.57,3.24-9.34,1.91-.48-.36.61-1.19,1.56-3.33C36.39,173.77,37.68,169.61,38.54,168.73Z" fill="#383e46"/><path d="M37.58,171.61A50.08,50.08,0,0,0,39,166.35c-.36-7-1.58-66.82,1-73.83l9.73,2.33-6.56,70a29,29,0,0,1,0,5.59c-.42,3.07-4.44,6.86-6,6.49C36.18,176.72,37,173.6,37.58,171.61Z" fill="#f0a98f"/><path d="M51.08,168.42c1.66-3.92,4.86,2.09,4.86,2.09a16.24,16.24,0,0,0,3.7,4c3.45,2.49,8.18,5.1,5.28,5.67a13.73,13.73,0,0,1-7.38-.54,15.53,15.53,0,0,1-5.34-4l.4,3.86-1.29-.15A14,14,0,0,1,51.08,168.42Z" fill="#383e46"/><path d="M57.16,92.1c2.22,6.74-.65,60.49-1.48,72a12.71,12.71,0,0,0,1.71,6.72,39.35,39.35,0,0,0,4.64,6c-2.77.72-4.8-.64-6.44-1.88A10.2,10.2,0,0,1,52,169.5a15.74,15.74,0,0,1-.58-3.37L47.15,94.9Z" fill="#f0a98f"/><path d="M43,122c-.17-6.82-.39-14.85-.39-14.85l-2.23,14.69c-.75,0-1.49-.12-2.22-.2-1-.1-2-.22-3-.35a156.15,156.15,0,0,1-.34-16.2c.37-10.08,2.44-20.87,5.14-24.46l18.51,3.08S61,89,62.12,101.23a159,159,0,0,1,.24,19.7A92.07,92.07,0,0,1,43,122Z" fill="#22272e"/><path d="M54.9,75.66c.32-1.23,7.22-27.14,7.22-27.14s-16.73-4.93-27.42,0l8,29.06Z" fill="#9dcad1"/><path d="M34.62,48.52l2.05,8.54s-4.31,4.29,1.65,8.34l2.47,10.26L36.53,88.53l9.83,1,2-4.93,1.86,5s8.39.2,10.3-2l-4.94-12,2.47-10.36s4.82-2.56,1.95-8l2-8.76L57.1,46.88,47.64,66.75,39.28,47Z" fill="#3e4753"/><rect x="45.31" y="33.63" width="6.47" height="13.87" rx="2.91" fill="#d8826c"/><path d="M35.87,25.17c0,9.45,4.28,14.71,11.47,14.87C55,40.2,62,34.62,62,25.17S59,6,48.91,6C39,6,35.87,15.73,35.87,25.17Z" fill="#f0a98f"/><path d="M44.57,23a3.32,3.32,0,1,1-3.31-3.31A3.32,3.32,0,0,1,44.57,23Z" fill="#fff"/><path d="M39.36,22.81a2.51,2.51,0,0,0,2.2,2.73,2.5,2.5,0,0,0,2.19-2.73,2.51,2.51,0,0,0-2.19-2.74A2.52,2.52,0,0,0,39.36,22.81Z" fill="#5b6f7f"/><path d="M40,22.81a1.78,1.78,0,0,0,1.56,1.94,1.78,1.78,0,0,0,1.55-1.94,1.79,1.79,0,0,0-1.55-1.95A1.79,1.79,0,0,0,40,22.81Z" fill="#400404"/><path d="M39.9,21c0,.29.36.53.8.53s.81-.24.81-.53-.36-.53-.81-.53S39.9,20.67,39.9,21Z" fill="#fff"/><path d="M48.94,28.64s-1.64,2.77-3.41-.05Z" fill="#d8826c"/><path d="M50.64,23A3.31,3.31,0,1,0,54,19.7,3.32,3.32,0,0,0,50.64,23Z" fill="#fff"/><path d="M51.88,22.81c0,1.51.92,2.73,2.07,2.73S56,24.32,56,22.81s-.93-2.74-2.07-2.74S51.88,21.3,51.88,22.81Z" fill="#5b6f7f"/><path d="M52.48,22.81A1.76,1.76,0,0,0,54,24.75a1.76,1.76,0,0,0,1.47-1.94c0-1.07-.66-1.95-1.47-1.95S52.48,21.74,52.48,22.81Z" fill="#400404"/><path d="M52.38,21c0,.29.34.53.76.53s.76-.24.76-.53-.34-.53-.76-.53S52.38,20.68,52.38,21Z" fill="#fff"/><path d="M51.14,28.28c0,1.51,1.56,2.73,3.48,2.73s3.49-1.22,3.49-2.73-1.57-2.72-3.49-2.72S51.14,26.78,51.14,28.28Z" fill="#f08671"/><path d="M37.37,28.28c0,1.51,1.56,2.73,3.48,2.73s3.49-1.22,3.49-2.73-1.56-2.72-3.49-2.72S37.37,26.78,37.37,28.28Z" fill="#f08671"/><path d="M35.75,23.52s-3.58-4.89-4.62-.19c-.83,3.74,2.52,6.49,4.58,5.79S35.75,23.52,35.75,23.52Z" fill="#f0a98f"/><path d="M35.78,24.39s-2.53-3.08-3.18-1.63a5.67,5.67,0,0,0-.26,3.16s.26-2,1.81-1.05c0,0-1.11,3.21,1.64,2A1.82,1.82,0,0,0,35.78,24.39Z" fill="#d8826c"/><path d="M61.93,23.52s3.58-4.89,4.62-.19c.83,3.74-2.52,6.49-4.59,5.79S61.93,23.52,61.93,23.52Z" fill="#f0a98f"/><path d="M61.89,24.39s2.54-3.08,3.19-1.63a5.67,5.67,0,0,1,.26,3.16s-.26-2-1.81-1.05c0,0,1.1,3.21-1.64,2A1.82,1.82,0,0,1,61.89,24.39Z" fill="#d8826c"/><path d="M58,18.76s-3.13-4.22-8-.63A10.14,10.14,0,0,1,58,18.76Z" fill="#361d11"/><path d="M44.33,18.06s-3.66-3.65-7.6.69A9.25,9.25,0,0,1,44.33,18.06Z" fill="#361d11"/><path d="M56.09,47.15c.41-.9-4.36-4.42-4.36-4.42s-.71,4.69-3,6.06L52.52,54S54.17,51.26,56.09,47.15Z" fill="#d7eef2"/><path d="M41.38,47.15c-.42-.9,4.11-4.39,4.11-4.39s1,4.66,3.22,6L44.94,54S43.3,51.26,41.38,47.15Z" fill="#d7eef2"/><path d="M53.28,5s-3.91-7.81-9.87-3.91S29.84,13.22,28,7.26c0,0,2.87,15.84,14.59,8.23S53.28,5,53.28,5Z" fill="#5c311e"/><path d="M48.34,6.85a44.35,44.35,0,0,0,14,15.22,12.44,12.44,0,0,0,2.47-6.58C65,8.09,58.83-5.9,48.34,6.85Z" fill="#5c311e"/><path d="M48.34,6.85,51,7.26A12.22,12.22,0,0,1,42.38,19S48.55,13.43,48.34,6.85Z" fill="#5c311e"/><path d="M58,64.22s-8.44,4.11-18.92-.83C39.09,63.39,47.31,74.7,58,64.22Z" fill="#ded9d5" style="mix-blend-mode:multiply"/><path d="M47.6,67.3a1.08,1.08,0,1,0,1.08-1.08A1.08,1.08,0,0,0,47.6,67.3Z" fill="#22272e"/><path d="M47.47,74.7a1.08,1.08,0,1,0,1.08-1.08A1.08,1.08,0,0,0,47.47,74.7Z" fill="#22272e"/><path d="M47.47,82.1a1.08,1.08,0,0,0,2.16,0,1.08,1.08,0,0,0-2.16,0Z" fill="#22272e"/><path d="M50.64,23a3.29,3.29,0,0,1,1.81-3.21c3.19-1.64,4.94,2.16,6,2.78,0,0-.67.66-1.16.43C57.26,23,53.79,17.34,50.64,23Z" fill="#302725"/><path d="M44.63,22.61a2.82,2.82,0,0,0-1.82-2.85c-3.19-1.46-4.93,1.92-6,2.46,0,0,.66.59,1.15.39C38,22.61,41.47,17.57,44.63,22.61Z" fill="#302725"/><path d="M60.47,29.26a1,1,0,1,0,1-1A1,1,0,0,0,60.47,29.26Z" fill="#fff700"/><path d="M34.57,29.67a1,1,0,1,0,1-1A1,1,0,0,0,34.57,29.67Z" fill="#fff700"/><path d="M48.14,53.52a.61.61,0,0,0,.61.62.62.62,0,0,0,.62-.62.61.61,0,0,0-.62-.61A.61.61,0,0,0,48.14,53.52Z" fill="#d7eef2"/><path d="M48.14,58.46a.61.61,0,0,0,.61.62.62.62,0,1,0,0-1.24A.61.61,0,0,0,48.14,58.46Z" fill="#d7eef2"/><path d="M43.25,30.77A11.25,11.25,0,0,0,45,33.85c1.3,1.44,3.2,2.38,5.3-.72a15.93,15.93,0,0,0,1.35-2.47,6.22,6.22,0,0,0-1.78.27c-1.67.47-4.15.85-5.87-.07h0C43.75,30.86,43.49,31,43.25,30.77Z" fill="#712311"/><path d="M45,34c1.3,1.45,3.2,2.3,5.3-.8C49.2,32.92,46.55,32.45,45,34Z" fill="#d5503b"/><path d="M44,31.56c2.74,3.05,4.73,1.44,5.87-.26C48.23,31.77,45.75,32.26,44,31.56Z" fill="#fff"/><path d="M53.25,77.26a4.1,4.1,0,0,1-2.12-.41c-.7-.5-1.09-.7-3.12-.95a6.43,6.43,0,0,1-3-1.06s-.91,1.51,2.21,2c1.91.31-3.62,1.81-5.34,2.12,0,0-.8.8,1,1.11s.3.8,3.83,1.2,7.45,0,7.65-2.11S53.25,77.26,53.25,77.26Z" fill="#ffbc9f"/><polygon points="67.06 59.91 67.06 59.91 67.06 59.91 67.06 59.91" fill="#f0a98f"/><path d="M67.06,59.91Z" fill="#f0a98f"/><path d="M59.8,57.07c.24,3.06,5,14.85,5,14.85-1.83.38-7.73,2.62-10.59,3.74l-1.6.62.47,5.13c.59,0,1.18-.07,1.74-.12,11.24-1,16.85-5.06,16.85-5.06-2.39-19.62-9.79-27.71-9.79-27.71C59.16,49.07,59.8,57.07,59.8,57.07Z" fill="#3e4753"/><path d="M52.59,76.28l.47,5.13c.59,0,1.18-.07,1.74-.12l-.61-5.63Z" fill="#d7eef2"/><path d="M12.53,68.12a4.33,4.33,0,0,1-2-1.06c-.57-.73-.91-1-2.92-1.92a6.81,6.81,0,0,1-2.78-2s-1.39,1.28,1.67,2.75c1.87.89-4.28.76-6.13.55,0,0-1.07.59.7,1.45s.07.91,3.57,2.39,7.65,2.26,8.5.15S12.53,68.12,12.53,68.12Z" fill="#ffbc9f"/><path d="M37.09,56.2S32.7,76.48,30.78,77.58C29.23,78.47,17.48,74.52,13,73c-1.06-.36-1.71-.6-1.71-.6l.82-5.21,2.52.37,12.56,1.82s1.92-14.52,7.48-20.83Z" fill="#3e4753"/><path d="M14.66,67.53,13,73c-1.06-.36-1.71-.6-1.71-.6l.82-5.21Z" fill="#d7eef2"/></g></g></g></svg>