<svg xmlns="http://www.w3.org/2000/svg" viewBox="0 0 52.41 180.62"><g style="isolation:isolate"><g id="Layer_2" data-name="Layer 2"><g id="OBJECTS"><path d="M39.36,38.77A37.7,37.7,0,0,1,36,34.51c-.9-1.55.08-2.33.24-3.46l3.35-3.64,2.94,2.06a48.93,48.93,0,0,1-1.31,7.3C40.61,38.45,41.23,39.13,39.36,38.77Z" fill="#ffbc9f"/><path d="M43.77,21.07,38.69,36.26c.85.22,1.56-1.09,1.56-1.09s3.61-11.29,3.87-12.49S43.77,21.07,43.77,21.07Z" fill="#e5e4cb"/><path d="M36.76,23.87a.32.32,0,0,0,.11.39h0c.11,0,.24,0,.29-.2l.54-1.65a.31.31,0,0,0-.11-.38h0c-.12-.06-.25,0-.3.18Z" fill="#b8b599"/><path d="M36.3,25.32a.21.21,0,0,0,.06.26h0c.08,0,.16,0,.2-.13l.25-.8a.23.23,0,0,0-.07-.26h0c-.07,0-.16,0-.19.13Z" fill="#b8b599"/><path d="M41.76,27.61c-.06.17,0,.35.1.39h0c.12,0,.25-.07.31-.24L42.73,26c.05-.17,0-.34-.11-.38h0c-.12,0-.25.07-.31.24Z" fill="#b8b599"/><path d="M38.24,19.82l-4,12.81A1.3,1.3,0,0,0,34.45,34l4.24,2.24c.32.14.72-.25.91-.86l4.21-13.47c.16-.5,0-1-.3-1.1L39.12,19.2C38.79,19.06,38.4,19.34,38.24,19.82Z" fill="#e5e4cb"/><path d="M41.33,20.07,37,35.47l1.65.79c.32.14.72-.25.91-.86l4.21-13.47c.16-.5,0-1-.3-1.1Z" fill="#f7f5e3"/><path d="M40.19,20.46a.1.1,0,0,0,.06.13l1.47.56a.1.1,0,0,0,.13-.06h0a.11.11,0,0,0-.07-.14l-1.46-.55a.1.1,0,0,0-.13.06Z" fill="#6c6959"/><path d="M39.69,20.31c0,.05,0,.09,0,.1l0,0s.07,0,.09-.06h0s0-.09,0-.1h0s-.07,0-.08,0Z" fill="#6c6959"/><path d="M36.3,33.46a.51.51,0,0,0,.13.57l.83.42c.15.08.32-.06.39-.3a0,0,0,0,0,0,0,.7.7,0,0,0,0-.32.28.28,0,0,0-.14-.21l-.84-.42c-.13-.07-.3,0-.38.26A0,0,0,0,1,36.3,33.46Z" fill="#b8b599"/><path d="M36.3,33.46a.51.51,0,0,0,.13.57l.83.42c.15.08.32-.06.39-.3a0,0,0,0,0,0,0l-1.35-.69A0,0,0,0,1,36.3,33.46Z" fill="#f7f5e3"/><path d="M42.88,23l-4.47-1.73L35.28,31.2l4.37,2.14Z" fill="#817f6a"/><polygon points="38.38 21.15 35.19 31.27 39.68 33.48 42.98 22.93 38.38 21.15" fill="#586280"/><path d="M43.07,22.54c-1.14,1.62-.07,2.57-.13,4.12a3,3,0,0,0-2.26-1.12,2.35,2.35,0,0,0,.52,1.58c-.67-.38-1.32-.4-1.2.59a3.46,3.46,0,0,0,1,1.63,3.26,3.26,0,0,0-1.16-.77c-1.76-.32,0,4,1.92,3.34-.47,2.89,1.69-.68,1.2-1.44.43,0,.75-.25.74-.88a.92.92,0,0,0-.2-.48c.43-.13.63-.37.66-.66C45.34,26.71,43.5,24.53,43.07,22.54Z" fill="#ffbc9f"/><path d="M38.58,21.24c0,10-5.44,17.68-15.35,17.68S6.71,29.18,6.71,19.19,13.31,2.74,23.23,2.74,38.58,11.25,38.58,21.24Z" fill="#5c311e"/><path d="M35.51,23.44s1.78-4.11,2,.69c.2,3.82-1.4,5.89-2.27,4.81S35.51,23.44,35.51,23.44Z" fill="#f0a98f"/><path d="M35.45,24.29s1.25-2.54,1.47-1a12.49,12.49,0,0,1,0,3.15s0-2-.75-1.37c0,0,.34,3.36-.81,1.64A3.59,3.59,0,0,1,35.45,24.29Z" fill="#d8826c"/><path d="M23,37.79a6.4,6.4,0,0,1-6.31,6.48,6.48,6.48,0,0,1,0-13A6.4,6.4,0,0,1,23,37.79Z" fill="#5c311e"/><path d="M33.37,168.73c-1.64-1.68-5-1.61-5.86.91-.31.79-1.75,3.19-.38,9.82H28.3v-3.21l0-.35c.16.62.39,1.28.62,2,1,3.14,7.57,3.24,9.34,1.91.48-.36-.61-1.19-1.56-3.34C35.52,173.77,34.23,169.61,33.37,168.73Z" fill="#383e46"/><path d="M34.33,171.61a50.78,50.78,0,0,1-1.45-5.26c.36-7,1.58-66.82-1-73.83l-9.73,2.33,6.57,70a28.2,28.2,0,0,0,0,5.59c.42,3.07,4.44,6.86,6,6.49C35.73,176.72,35,173.6,34.33,171.61Z" fill="#f0a98f"/><path d="M20.83,168.42c-1.66-3.92-4.86,2.09-4.86,2.09a16.24,16.24,0,0,1-3.7,4C8.82,177,4.1,179.59,7,180.16a13.73,13.73,0,0,0,7.38-.54,15.53,15.53,0,0,0,5.34-4l-.41,3.86,1.3-.15A14,14,0,0,0,20.83,168.42Z" fill="#383e46"/><path d="M14.75,92.1c-2.22,6.74.66,60.49,1.48,71.94a12.69,12.69,0,0,1-1.71,6.72,39,39,0,0,1-4.64,6c2.77.72,4.8-.65,6.44-1.88a10.16,10.16,0,0,0,3.62-5.39,15.74,15.74,0,0,0,.58-3.37L24.76,94.9Z" fill="#f0a98f"/><path d="M28.94,122c.18-6.82.39-14.85.39-14.85l2.24,14.69c.74,0,1.48-.12,2.21-.2,1-.1,2-.22,3-.35a156.15,156.15,0,0,0,.34-16.2C36.77,95.05,34.7,84.26,32,80.66L13.49,83.75s-2.6,5.21-3.7,17.47a157.1,157.1,0,0,0-.24,19.7A91.41,91.41,0,0,0,28.94,122Z" fill="#22272e"/><path d="M17.74,77.44c-.31-1.23-7.95-28.92-7.95-28.92s16.73-4.94,27.42,0l-7.4,29.74Z" fill="#9dcad1"/><path d="M9.79,48.52l2.06,8.54s-4.32,4.29,1.64,8.34L16,75.66,11.71,88.52l9.83,1,2-4.93,1.85,5s7.62,0,9.53-2.2L30.77,75.6l2.46-10.36s4.83-2.56,2-8l2-8.76-5.68-1.7L22.82,66.75,14.51,47.42Z" fill="#3e4753"/><rect x="20.58" y="34.38" width="6.47" height="13.87" rx="2.91" fill="#d8826c"/><path d="M36,25.17C36,34.62,31.76,39.88,24.57,40,16.91,40.2,10,34.62,10,25.17S12.88,6,23,6C32.91,6,36,15.73,36,25.17Z" fill="#f0a98f"/><path d="M27.34,23a3.32,3.32,0,1,0,3.31-3.31A3.32,3.32,0,0,0,27.34,23Z" fill="#fff"/><path d="M33.78,23.22A2.51,2.51,0,0,1,31.59,26a2.51,2.51,0,0,1-2.19-2.74,2.51,2.51,0,0,1,2.19-2.74A2.51,2.51,0,0,1,33.78,23.22Z" fill="#5b6f7f"/><path d="M33.14,23.22a1.78,1.78,0,0,1-1.55,1.94A1.78,1.78,0,0,1,30,23.22a1.79,1.79,0,0,1,1.56-1.95A1.78,1.78,0,0,1,33.14,23.22Z" fill="#400404"/><path d="M33.24,21.38c0,.29-.36.53-.8.53s-.8-.24-.8-.53.36-.53.8-.53S33.24,21.09,33.24,21.38Z" fill="#fff"/><path d="M23,28.64s1.64,2.77,3.41-.06Z" fill="#d8826c"/><path d="M21.28,23A3.32,3.32,0,1,1,18,19.7,3.32,3.32,0,0,1,21.28,23Z" fill="#fff"/><path d="M21.27,23.22c0,1.51-.93,2.74-2.07,2.74s-2.08-1.23-2.08-2.74.93-2.74,2.08-2.74S21.27,21.71,21.27,23.22Z" fill="#5b6f7f"/><path d="M20.67,23.22a1.76,1.76,0,0,1-1.47,1.94,1.76,1.76,0,0,1-1.48-1.94,1.76,1.76,0,0,1,1.48-1.95C20,21.27,20.67,22.14,20.67,23.22Z" fill="#400404"/><path d="M20.76,21.38c0,.29-.34.53-.76.53s-.76-.24-.76-.53.34-.53.76-.53S20.76,21.09,20.76,21.38Z" fill="#fff"/><path d="M20.77,28.28c0,1.51-1.56,2.73-3.48,2.73s-3.48-1.22-3.48-2.73,1.56-2.72,3.48-2.72S20.77,26.78,20.77,28.28Z" fill="#f08671"/><path d="M34.54,28.28C34.54,29.79,33,31,31.06,31s-3.49-1.22-3.49-2.73,1.56-2.72,3.49-2.72S34.54,26.78,34.54,28.28Z" fill="#f08671"/><path d="M10,23.52s-3.58-4.89-4.62-.19c-.83,3.73,2.52,6.49,4.59,5.79S10,23.52,10,23.52Z" fill="#f0a98f"/><path d="M10,24.39s-2.54-3.08-3.19-1.63a5.67,5.67,0,0,0-.26,3.16s.26-2,1.81-1.05c0,0-1.1,3.21,1.65,2A1.83,1.83,0,0,0,10,24.39Z" fill="#d8826c"/><path d="M13.93,18.76s3.13-4.23,8-.63A10.14,10.14,0,0,0,13.93,18.76Z" fill="#361d11"/><path d="M27.58,18.06s3.66-3.65,7.6.69A9.25,9.25,0,0,0,27.58,18.06Z" fill="#361d11"/><path d="M15.82,47.15c-.41-.9,4.36-4.42,4.36-4.42s.72,4.69,3,6.06L19.39,54S17.74,51.26,15.82,47.15Z" fill="#d7eef2"/><path d="M30.53,47.15c.42-.9-4.11-4.39-4.11-4.39s-1,4.66-3.22,6L27,54S28.61,51.26,30.53,47.15Z" fill="#d7eef2"/><path d="M18.63,5s3.91-7.81,9.87-3.91S42.07,13.22,43.92,7.26c0,0-2.87,15.83-14.59,8.22S18.63,5,18.63,5Z" fill="#5c311e"/><path d="M23.57,6.85a44.27,44.27,0,0,1-14,15.21,12.39,12.39,0,0,1-2.47-6.58C6.87,8.09,13.08-5.9,23.57,6.85Z" fill="#5c311e"/><path d="M23.57,6.85l-2.67.41A12.22,12.22,0,0,0,29.53,19S23.36,13.43,23.57,6.85Z" fill="#5c311e"/><path d="M13.91,64.21s8.43,4.12,18.91-.82C32.82,63.39,24.6,74.7,13.91,64.21Z" fill="#ded9d5" style="mix-blend-mode:multiply"/><path d="M24.31,67.3a1.08,1.08,0,1,1-2.16,0,1.08,1.08,0,1,1,2.16,0Z" fill="#22272e"/><path d="M24.44,74.7a1.08,1.08,0,1,1-1.08-1.08A1.08,1.08,0,0,1,24.44,74.7Z" fill="#22272e"/><path d="M24.44,82.1a1.08,1.08,0,1,1-2.16,0,1.08,1.08,0,0,1,2.16,0Z" fill="#22272e"/><path d="M21.28,23a3.31,3.31,0,0,0-1.82-3.21c-3.19-1.64-4.94,2.16-6,2.78,0,0,.67.66,1.16.43C14.65,23,18.12,17.34,21.28,23Z" fill="#302725"/><path d="M27.28,22.61a2.82,2.82,0,0,1,1.82-2.85c3.19-1.46,4.94,1.91,6,2.46,0,0-.66.59-1.15.39C33.91,22.61,30.44,17.57,27.28,22.61Z" fill="#302725"/><path d="M28.5,30.27a11,11,0,0,1-1.78,2.91c-1.3,1.45-3.19,2.31-5.29-.79a16.13,16.13,0,0,1-1.36-2.51s.73.27,1.79.57c1.66.48,4.14,1.16,5.86.23h0A1.42,1.42,0,0,0,28.5,30.27Z" fill="#712311"/><path d="M26.72,33.2c-1.3,1.44-3.19,2.3-5.29-.81C22.55,32.09,25.2,31.63,26.72,33.2Z" fill="#d5503b"/><path d="M27.72,30.73C25,33.79,23,32.18,21.86,30.48,23.52,31,26,31.43,27.72,30.73Z" fill="#fff"/><path d="M51.53,60.51c-1.79,1.71-9.87.83-17.27-3.29,0,0,1.44-9,3-8.7s7.75,5.66,7.94,5.82a146.93,146.93,0,0,1-6.68-14.45c-.18-.47-.35-.92-.51-1.38,1.22-1.1,3.12-1.76,4.32-2.88.07.1.41.62.92,1.43C46.23,41.83,55.22,57,51.53,60.51Z" fill="#3e4753"/><path d="M43.2,37.06c-1.55.91-3.54,2.09-4.73,2.83-.18-.47-.35-.92-.51-1.38,1.22-1.1,3.12-1.76,4.32-2.88C42.35,35.73,42.69,36.25,43.2,37.06Z" fill="#d7eef2"/><path d="M18.41,77.25a3.92,3.92,0,0,0,2.11-.4c.71-.5,1.09-.7,3.12-1a6.44,6.44,0,0,0,3-1s.9,1.51-2.22,2c-1.91.31,3.63,1.81,5.34,2.12,0,0,.8.8-1,1.1s-.3.81-3.83,1.21-7.45,0-7.65-2.11S18.41,77.25,18.41,77.25Z" fill="#ffbc9f"/><polygon points="4.59 59.91 4.59 59.91 4.6 59.91 4.59 59.91" fill="#f0a98f"/><path d="M4.6,59.91Z" fill="#f0a98f"/><path d="M11.85,57.06c-.24,3.07-5,14.86-5,14.86,1.84.37,7.73,2.62,10.6,3.74l1.59.62-.47,5.13q-.89,0-1.74-.12C5.61,80.3,0,76.23,0,76.23,2.39,56.61,9.79,48.52,9.79,48.52,12.49,49.07,11.85,57.06,11.85,57.06Z" fill="#3e4753"/><path d="M19.06,76.28l-.47,5.13q-.89,0-1.74-.12l.62-5.63Z" fill="#d7eef2"/><path d="M10.62,29.26a1,1,0,1,1-1-1A1,1,0,0,1,10.62,29.26Z" fill="#fff700"/><path d="M36.52,29.26a1,1,0,1,1-1-1A1,1,0,0,1,36.52,29.26Z" fill="#fff700"/><path d="M23.78,52.29a.62.62,0,1,1-.62-.62A.62.62,0,0,1,23.78,52.29Z" fill="#d7eef2"/><path d="M23.78,57.22a.62.62,0,0,1-1.24,0,.62.62,0,0,1,1.24,0Z" fill="#d7eef2"/></g></g></g></svg>