<svg xmlns="http://www.w3.org/2000/svg" viewBox="0 0 165.09 419.91"><g id="Layer_2" data-name="Layer 2"><g id="objects"><path d="M147.55,413.6c0,3.49-33,6.31-73.77,6.31S0,417.09,0,413.6s33-6.31,73.78-6.31S147.55,410.12,147.55,413.6Z" fill="#1c1918" opacity="0.1"/><path d="M118.53,178.94s21,49.28,24.51,46,7.89-1.9,4.9-10.34-16.07-46-16.07-46Z" fill="#ffbfa1"/><path d="M9.08,173.22s21,29.61,41.86,35.33l.2-9.8a121.3,121.3,0,0,1-22-25.12C18.47,157.7,9.08,173.22,9.08,173.22Z" fill="#ffbfa1"/><polygon points="53.24 380 49.56 402.18 40.95 402.18 43.83 378.06 53.24 380" fill="#16333c"/><path d="M38.34,391.67s-4.91,6.38-12.36,8.62-14.19,5.1-13.64,9.58c0,0,11.09,5.43,29.09-.61v1.9l11.82-.52V395l-9.82.69.73-1.56Z" fill="#333030"/><path d="M33.6,409.48c-16.13,4.15-20.23-.45-21.17-.77a2.85,2.85,0,0,0-.09,1.16s11.09,5.43,29.09-.61v1.9l11.82-.52v-3.13C49,407.77,45.49,406.42,33.6,409.48Z" fill="#1c1918"/><path d="M40,400.81a.52.52,0,0,1-.43-.23A12.14,12.14,0,0,0,34.39,396a.52.52,0,1,1,.35-1,12.89,12.89,0,0,1,5.66,5,.52.52,0,0,1-.43.81Z" fill="#1c1918"/><path d="M37.27,402a.51.51,0,0,1-.43-.23,12.07,12.07,0,0,0-5.16-4.63.52.52,0,0,1,.35-1,13,13,0,0,1,5.67,5,.52.52,0,0,1-.43.81Z" fill="#1c1918"/><path d="M34.56,403.23a.52.52,0,0,1-.43-.23A12.19,12.19,0,0,0,29,398.37a.52.52,0,0,1,.35-1,13,13,0,0,1,5.66,5,.52.52,0,0,1-.43.81Z" fill="#1c1918"/><polygon points="93.45 380 97.14 402.18 105.75 402.18 102.87 378.06 93.45 380" fill="#16333c"/><path d="M108.36,391.67s4.91,6.38,12.36,8.62,15,5.1,14.46,9.58c0,0-11.91,5.43-29.91-.61v1.9l-11.82-.52V395l9.82.69-.73-1.56Z" fill="#333030"/><path d="M115.55,410.3c11.32,1.78,18.59-1.27,19.54-1.59a3,3,0,0,1,.09,1.16s-11.91,5.43-29.91-.61v1.9l-11.82-.52V406.7C97.67,407,104.68,408.59,115.55,410.3Z" fill="#1c1918"/><path d="M106.72,400.81a.51.51,0,0,0,.43-.23,12.13,12.13,0,0,1,5.16-4.63.52.52,0,1,0-.35-1,12.83,12.83,0,0,0-5.67,5,.52.52,0,0,0,.43.81Z" fill="#1c1918"/><path d="M109.43,402a.52.52,0,0,0,.43-.23,12.14,12.14,0,0,1,5.15-4.63.52.52,0,1,0-.35-1,13,13,0,0,0-5.66,5,.52.52,0,0,0,.43.81Z" fill="#1c1918"/><path d="M112.13,403.23a.51.51,0,0,0,.43-.23,12.18,12.18,0,0,1,5.16-4.63.52.52,0,0,0-.35-1,13,13,0,0,0-5.67,5,.52.52,0,0,0,.43.81Z" fill="#1c1918"/><path d="M55.34,202.84l-9,107.06-9,78.42s4.36,6,20.7,3.27L70.34,314.8l9.8-73h5.45l4.63,149.76s7.07,5.44,20.14.54l-1.63-192.77Z" fill="#6d6d6d"/><polygon points="85.59 96.96 84.85 127.37 66.52 119.18 67.1 87.86 85.59 96.96" fill="#d69f8a"/><path d="M115.11,119.51s-1.77,54.41-5.29,82c0,0-13.48,6-34.94,5.16-15.17-.62-19.54-3.86-19.54-3.86L30.58,111s14-2.9,37.06-2.87L78.36,118s2.91-7.71,8.66-9.24c8.71.6,18.22,1.64,28.37,3.31Z" fill="#e6f9ff"/><polygon points="29.09 173.63 49.36 117.16 30.58 110.95 9.12 171.9 29.09 173.63" fill="#e6f9ff"/><path d="M101.83,206.78a25.71,25.71,0,0,0,6.9-2.32c1.35-.44,1.18.87,1.33,2.25.2,1.83-.11,2.81-1.33,3.18-.22.07-1.29,1.19-5.88,2.29Z" fill="#1c1918"/><path d="M68.77,208.25a144.09,144.09,0,0,0,16.83.45A88.2,88.2,0,0,0,98,207.51a23.81,23.81,0,0,0,.45,5.58,83.55,83.55,0,0,1-12.77,1.29c-2,0-3.91.05-5.81,0-4.23-.07-8.14-.31-11.8-.73A26.43,26.43,0,0,0,68.77,208.25Z" fill="#1c1918"/><path d="M53.73,207.79c.26-1.37.43-2.59,1.78-2.14a53.88,53.88,0,0,0,9.9,2.23c-.12,1.79-.38,3.56-.65,5.33a55.41,55.41,0,0,1-10.39-2.6C53.43,210.26,53.47,209.18,53.73,207.79Z" fill="#1c1918"/><path d="M77.2,207.89l-.13,7.28L89,214.56l.12-6.75Zm2,1.22,7.88-.05L87,213.52l-7.88.4Z" fill="#adadad"/><polygon points="78.36 118.01 75.58 108.34 69.42 111.17 78.36 118.01" fill="#d8cac7"/><polygon points="79.15 109.18 78.36 118.01 83.41 111.76 79.15 109.18" fill="#d8cac7"/><path d="M73.76,111.72A23.39,23.39,0,0,0,81,112l3.41,4-3,4.31,11.68,68-9,9-11-7.85,2.53-68.69-3.73-5.32Z" fill="#16333c"/><polygon points="93.07 108.6 85.52 118.79 79.15 109.18 89.16 102.52 93.07 108.6" fill="#d8eaef"/><polygon points="60.68 107.25 70.27 118.23 75.58 108.34 64.53 101.18 60.68 107.25" fill="#d8eaef"/><polygon points="32.77 167.09 9.62 163.15 5.9 172.59 31.13 176.9 32.77 167.09" fill="#d8eaef"/><path d="M70.32,21.22c-17.42,4-16.95,15.93-16.95,15.93s.54,9.24.88,20.24a5.72,5.72,0,0,0-7.13-1.94C41.19,58,45.57,76.66,54.58,75c.39,5.22.9,9.28,1.57,10.69C58.68,91,69.81,99.13,79.68,100.4s22.26-5.31,22.26-17,.25-49.58.25-49.58S99.16,14.64,70.32,21.22Z" fill="#ffbfa1"/><path d="M86.38,54.86c.65,1.6,1.26,3.19,1.89,4.77.3.8.63,1.58.94,2.37s.63,1.56,1,2.33.67,1.55,1,2.31.7,1.52,1.12,2.24c.2.36.39.74.61,1.08s.41.72.65,1.05l.71,1,.79.91.41.48-.42.32c-1.43,1.09-2.87,2.16-4.4,3.14,1.18-1.38,2.43-2.67,3.7-3.94v.8l-1-.92c-.3-.33-.58-.68-.86-1s-.51-.72-.77-1.08a9.15,9.15,0,0,1-.7-1.12c-.45-.75-.83-1.53-1.21-2.31s-.7-1.59-1-2.4a45.51,45.51,0,0,1-1.54-4.94A36.28,36.28,0,0,1,86.38,54.86Z" fill="#d69f8a"/><path d="M75.82,56.51c0,2.53-1.13,4.59-2.52,4.59S70.77,59,70.77,56.51s1.13-4.6,2.53-4.6S75.82,54,75.82,56.51Z" fill="#222228"/><path d="M97.07,57.52c0,2.54-1.13,4.59-2.52,4.59S92,60.06,92,57.52s1.13-4.59,2.53-4.59S97.07,55,97.07,57.52Z" fill="#222228"/><path d="M79.93,46l-.72,0-1.79-.15c-.71-.06-1.51-.15-2.34-.2l-.62,0h-.62c-.42,0-.82,0-1.23,0s-.8.06-1.18.13a7.66,7.66,0,0,0-1.1.25,4.75,4.75,0,0,1-.54.14c-.17.06-.32.15-.49.22a4.26,4.26,0,0,0-.94.44c-.28.17-.59.3-.83.46s-.45.31-.63.44c-.38.24-.63.38-.63.38a5.92,5.92,0,0,1,.12-.72c.06-.22.12-.51.23-.82a6.78,6.78,0,0,1,.51-1A4.33,4.33,0,0,1,67.5,45c.15-.17.32-.34.49-.51s.36-.35.56-.52.44-.28.67-.42a5.56,5.56,0,0,1,1.54-.66,8.7,8.7,0,0,1,1.68-.3,10.08,10.08,0,0,1,1.66.09,8,8,0,0,1,1.52.35,9.33,9.33,0,0,1,2.43,1.19,8.36,8.36,0,0,1,1.43,1.26A3.85,3.85,0,0,1,79.93,46Z" fill="#664032"/><path d="M90.3,46a3.57,3.57,0,0,1,.33-.54,6.25,6.25,0,0,1,1.1-1.19,6.73,6.73,0,0,1,2-1.16,6.08,6.08,0,0,1,2.8-.38,5.38,5.38,0,0,1,1.47.37,5,5,0,0,1,2.19,1.71,3.83,3.83,0,0,1,.56,1,3.54,3.54,0,0,1,.29.89,6,6,0,0,1,.1.71,4.77,4.77,0,0,1,0,.62s-.2-.13-.5-.37a5.32,5.32,0,0,1-.51-.42,6.28,6.28,0,0,0-.66-.47,4.65,4.65,0,0,0-.73-.49,4.6,4.6,0,0,0-.8-.4l-.41-.17c-.13-.06-.29-.07-.43-.12a4.9,4.9,0,0,0-.88-.16c-.31,0-.63,0-1,0s-.65,0-1,.06c-.66.05-1.32.17-1.91.25l-1.49.23Z" fill="#664032"/><path d="M69.94,79.28l24,1.26S88.15,91.67,69.94,79.28Z" fill="#fff"/><path d="M48.94,54.86S48.06,34.62,47.3,32.6s-5.82-1.77-5.82-1.77,1.77-21.76,23-22.77a16.19,16.19,0,0,0-14.67,4S60.7-4.59,82.71,1.23c0,0,13.41,3.29,15.18,10.88A17.73,17.73,0,0,0,88,.73S105.74,6.29,105.74,20c0,10.88-3.8,12.9-3.8,12.9s-3.79,2.53-12.9-2.4-21.5-4.93-25.3-2.15-2.91,11-2.91,11a5.84,5.84,0,0,1-2.91,5.32L57.8,65l-3.17-.12-.38-5.7A5.39,5.39,0,0,0,48.94,54.86Z" fill="#664032"/><path d="M47.92,58.66c3.09-1.56,5.83,3.41,5.95,8.73C51.34,67,50.92,70,52.33,72,47.31,73.1,44.64,60.32,47.92,58.66Z" fill="#d69f8a"/><path d="M46.65,206.92s11.85,8.78,7.76-10.83c0,0,14.5-4.08,1.23-4.29,0,0,14.09-6.74-1.23-2.86,0,0,10.62-13.88-5.51.21,0,0-3.2,3.2-1.84,11.84Z" fill="#ffbfa1"/><polygon points="115.39 112.08 134.05 173.22 118.53 178.94 110.36 158.52 115.39 112.08" fill="#e6f9ff"/><polygon points="133.79 167.19 115.64 174.68 119.49 183.37 137.41 175.45 133.79 167.19" fill="#d8eaef"/><path d="M136.53,217.58s5.35-5.94,9.88-5.62,7.92.76,10.79,4.1,8.18,3.86,7.88,5-.88,4.85-7.61.47c0,0-2.54-2.44-2.87-.64-.26,1.46,3,4.72,6.54,9.62,4.83,6.69,3.08,6.15,1.64,5.86s-7.35-7.08-9.58-8.53c-1.74-1.12,7.79,11.43,6.31,12.75-2.45,2.18-10.87-12.38-10.93-10.54s5.2,10.81,4.53,12c-2,3.7-8.78-12.07-9.66-11.55-.69.41,2.33,7.76,1,8.85s-2.82-2.71-3.68-5c-1-2.72-1.21-4-2.29-6.57S135.24,221.31,136.53,217.58Z" fill="#ffbfa1"/></g></g></svg>