<svg xmlns="http://www.w3.org/2000/svg" viewBox="0 0 68.79 153.76"><g id="Layer_2" data-name="Layer 2"><g id="objects"><path d="M20.36,19.08s-4.61,1.46-3.4,5.11l-3,3,2.79,1.55L18.38,27s.5,1.83,2.64.4S20.36,19.08,20.36,19.08Z" fill="#ffbfa1"/><path d="M29.84,14.4,18.66,22.05s-1.09.43-.51,1.77,2.4,5.27,2.4,5.27A1.25,1.25,0,0,0,22,29.8c1-.31,10.2-7,10.2-7Z" fill="#2b3838"/><path d="M18.66,22.05,29.84,14.4l.27.95L20,22.31s-1.09.44-.5,1.78,2.39,5.27,2.39,5.27a1.72,1.72,0,0,0,.27.37L22,29.8a1.25,1.25,0,0,1-1.45-.71s-1.82-3.92-2.4-5.27S18.66,22.05,18.66,22.05Z" fill="#1e2828"/><path d="M30.34,16,20.9,22.49l2.41,5.65L32,22Z" fill="#6e7c7c"/><path d="M21.91,25.65a.68.68,0,1,1-1.26.4.68.68,0,1,1,1.26-.4Z" fill="#6e7c7c" opacity="0.2"/><path d="M23.93,19.79s.62-.74-1.39-2a.69.69,0,0,0-.87.33C21.4,18.67,23.33,20.69,23.93,19.79Z" fill="#ffbfa1"/><path d="M22.34,21.05s1.28-.74-.93-2.94a1.18,1.18,0,0,0-1.42.16C19.31,18.91,21,22,22.34,21.05Z" fill="#ffbfa1"/><path d="M21,21.94s1.06-.62-.8-2.51a1,1,0,0,0-1.18.13C18.47,20.09,19.91,22.76,21,21.94Z" fill="#ffbfa1"/><path d="M11.29,41.34l7.9-14.85L17,23.14S-2.83,46.92.34,48.87C.7,49.09,4,50,5,50.27,15.29,53.11,11.29,41.34,11.29,41.34Z" fill="#ffbfa1"/><path d="M68.79,150.6c0,1.74-14.23,3.16-31.78,3.16S5.23,152.34,5.23,150.6s14.23-3.17,31.78-3.17S68.79,148.85,68.79,150.6Z" fill="#1c1918" opacity="0.1"/><path d="M60.72,62.9S53.08,73.65,45.51,75.73l-.07-3.56a44.24,44.24,0,0,0,8-9.12C57.31,57.27,60.72,62.9,60.72,62.9Z" fill="#ffbfa1"/><polygon points="44.68 137.99 46.02 146.04 49.14 146.04 48.1 137.29 44.68 137.99" fill="#16333c"/><path d="M50.09,142.23a10,10,0,0,0,4.49,3.13c2.71.81,5.15,1.85,5,3.48,0,0-4,2-10.56-.22v.69l-4.29-.19v-5.7l3.56.25-.26-.56Z" fill="#333030"/><path d="M51.81,148.7c5.86,1.5,7.35-.17,7.69-.28a1,1,0,0,1,0,.42s-4,2-10.56-.22v.69l-4.29-.19V148A21.36,21.36,0,0,1,51.81,148.7Z" fill="#1c1918"/><path d="M49.5,145.55a.18.18,0,0,0,.15-.08,4.43,4.43,0,0,1,1.88-1.69.19.19,0,0,0,.11-.24.2.2,0,0,0-.24-.11,4.69,4.69,0,0,0-2.06,1.83.19.19,0,0,0,0,.26A.2.2,0,0,0,49.5,145.55Z" fill="#1c1918"/><path d="M50.48,146a.21.21,0,0,0,.16-.08,4.28,4.28,0,0,1,1.87-1.68.19.19,0,0,0,.11-.25.19.19,0,0,0-.24-.11,4.74,4.74,0,0,0-2.06,1.83.2.2,0,0,0,0,.26A.23.23,0,0,0,50.48,146Z" fill="#1c1918"/><path d="M51.46,146.43a.19.19,0,0,0,.16-.09,4.39,4.39,0,0,1,1.87-1.68.19.19,0,1,0-.13-.35,4.63,4.63,0,0,0-2,1.82.18.18,0,0,0,0,.26A.14.14,0,0,0,51.46,146.43Z" fill="#1c1918"/><polygon points="30.08 137.99 28.74 146.04 25.61 146.04 26.66 137.29 30.08 137.99" fill="#16333c"/><path d="M24.66,142.23a10,10,0,0,1-4.49,3.13c-2.7.81-5.44,1.85-5.24,3.48,0,0,4.32,2,10.86-.22v.69l4.29-.19v-5.7l-3.57.25.27-.56Z" fill="#333030"/><path d="M22.05,149a13.77,13.77,0,0,1-7.09-.57,1,1,0,0,0,0,.42s4.32,2,10.86-.22v.69l4.29-.19v-1.43C28.55,147.78,26,148.37,22.05,149Z" fill="#1c1918"/><path d="M25.26,145.55a.21.21,0,0,1-.16-.08,4.44,4.44,0,0,0-1.87-1.69.18.18,0,0,1-.11-.24.19.19,0,0,1,.24-.11,4.69,4.69,0,0,1,2.05,1.83.18.18,0,0,1-.05.26A.19.19,0,0,1,25.26,145.55Z" fill="#1c1918"/><path d="M24.28,146a.21.21,0,0,1-.16-.08,4.28,4.28,0,0,0-1.87-1.68.21.21,0,0,1-.12-.25.21.21,0,0,1,.25-.11,4.75,4.75,0,0,1,2.05,1.83.18.18,0,0,1-.05.26A.19.19,0,0,1,24.28,146Z" fill="#1c1918"/><path d="M23.29,146.43a.16.16,0,0,1-.15-.09,4.44,4.44,0,0,0-1.88-1.68.19.19,0,0,1-.11-.24.18.18,0,0,1,.24-.11,4.62,4.62,0,0,1,2.06,1.82.19.19,0,0,1-.05.26A.15.15,0,0,1,23.29,146.43Z" fill="#1c1918"/><path d="M43.92,73.66l3.25,38.88L50.43,141s-1.58,2.18-7.51,1.19l-4.45-27.88-3.56-26.5h-2L31.25,142.2s-2.57,2-7.31.2l.59-70Z" fill="#6d6d6d"/><polygon points="32.93 35.21 33.2 46.25 39.86 43.28 39.65 31.91 32.93 35.21" fill="#d69f8a"/><path d="M22.21,43.4s.65,19.76,1.92,29.79a30.6,30.6,0,0,0,12.69,1.87c5.51-.23,7.1-1.4,7.1-1.4l9-33.37a72.77,72.77,0,0,0-13.46-1l-3.89,3.6s-1.06-2.8-3.15-3.35c-3.16.21-6.61.59-10.3,1.2Z" fill="#e6f9ff"/><polygon points="53.45 63.05 46.09 42.54 52.91 40.29 60.7 62.42 53.45 63.05" fill="#e6f9ff"/><path d="M27,75.09a9.77,9.77,0,0,1-2.5-.84c-.49-.16-.43.31-.48.81-.08.67,0,1,.48,1.16a5.79,5.79,0,0,0,2.13.83C26.79,76.4,26.91,75.74,27,75.09Z" fill="#1c1918"/><path d="M39,75.62a51.92,51.92,0,0,1-6.11.17,31,31,0,0,1-4.51-.44,8.66,8.66,0,0,1-.17,2,29.45,29.45,0,0,0,4.64.47c.72,0,1.42,0,2.11,0,1.54,0,3-.11,4.28-.26A10,10,0,0,1,39,75.62Z" fill="#1c1918"/><path d="M44.5,75.46c-.09-.5-.15-.95-.64-.78a19.82,19.82,0,0,1-3.6.81c0,.65.14,1.29.24,1.94a20.59,20.59,0,0,0,3.77-1C44.61,76.35,44.6,76,44.5,75.46Z" fill="#1c1918"/><path d="M31.65,75.46l.05,2.46,4.33.21L36,75.49Zm3.64,2.22-2.87-.14,0-1.62h2.86Z" fill="#adadad"/><polygon points="35.56 42.85 36.57 39.34 38.81 40.37 35.56 42.85" fill="#d8cac7"/><polygon points="35.27 39.65 35.56 42.85 33.73 40.59 35.27 39.65" fill="#d8cac7"/><path d="M37.23,40.57a8.47,8.47,0,0,1-2.63.1l-1.24,1.47,1.09,1.56L30.21,68.39l3.26,3.28,4-2.85-.92-24.94L37.9,42Z" fill="#16333c"/><polygon points="30.22 39.44 32.96 43.14 35.27 39.65 31.64 37.23 30.22 39.44" fill="#d8eaef"/><polygon points="41.98 38.95 38.5 42.93 36.57 39.34 40.58 36.74 41.98 38.95" fill="#d8eaef"/><polygon points="52.12 60.68 60.52 59.24 61.87 62.67 52.71 64.24 52.12 60.68" fill="#d8eaef"/><path d="M38.48,7.7c6.32,1.45,6.15,5.79,6.15,5.79s-.19,3.36-.32,7.35a2.1,2.1,0,0,1,2.59-.71c2.16.93.56,7.71-2.71,7.12a15.53,15.53,0,0,1-.57,3.88c-.92,1.93-5,4.87-8.54,5.33S27,34.53,27,30.3s-.09-18-.09-18S28,5.32,38.48,7.7Z" fill="#ffbfa1"/><path d="M32.64,19.92a15.06,15.06,0,0,1-.93,3.62,9.86,9.86,0,0,1-.8,1.71,5.36,5.36,0,0,1-1.19,1.5v-.24c.47.45.92.92,1.36,1.4-.54-.36-1.06-.76-1.57-1.16l-.13-.1.13-.14a11.26,11.26,0,0,0,1.8-3.13C31.77,22.25,32.21,21.09,32.64,19.92Z" fill="#d69f8a"/><path d="M34.76,15.41a3,3,0,0,1,1.2-.89,3.38,3.38,0,0,1,1.52-.29,2.55,2.55,0,0,1,1.5.58,2.11,2.11,0,0,1,.74,1.33,5.4,5.4,0,0,0-1.14-.71,3.56,3.56,0,0,0-1.15-.26A16.7,16.7,0,0,0,34.76,15.41Z" fill="#664032"/><path d="M27.57,16a12.05,12.05,0,0,0,2.27,1,3,3,0,0,0,1.08.06,5.75,5.75,0,0,0,1.21-.36,2,2,0,0,1-1,1,2.28,2.28,0,0,1-1.52.15,3.05,3.05,0,0,1-1.28-.72A2.73,2.73,0,0,1,27.57,16Z" fill="#664032"/><path d="M39.16,28.75l-8.46.44S35.11,34.83,39.16,28.75Z" fill="#bf6b6b"/><path d="M38.36,29.23a6.69,6.69,0,0,0-5,2,4.45,4.45,0,0,1-2.64-2l8.46-.44a4.78,4.78,0,0,1-.32.5Z" fill="#723838"/><path d="M46.24,19.92s.32-7.35.6-8.08S49,11.2,49,11.2s-.64-7.91-8.36-8.27A5.88,5.88,0,0,1,45.92,4.4,10.84,10.84,0,0,0,34,.45s-4.87,1.19-5.52,4A6.48,6.48,0,0,1,32.05.26s-6.43,2-6.43,7c0,3.95,1.37,4.68,1.37,4.68s1.38.92,4.69-.87,7.81-1.79,9.19-.78,1.05,4,1.05,4A2.12,2.12,0,0,0,43,16.2L43,23.6l1.14-.05.14-2.07A2,2,0,0,1,46.24,19.92Z" fill="#664032"/><path d="M46.61,21.3c-1.12-.57-2.11,1.24-2.16,3.17.92-.14,1.07.93.56,1.69C46.83,26.54,47.8,21.9,46.61,21.3Z" fill="#d69f8a"/><path d="M47.07,75.14s-4.3,3.19-2.82-3.93c0,0-5.26-1.49-.44-1.56,0,0-5.12-2.45.44-1,0,0-3.85-5,2,.08,0,0,1.16,1.16.66,4.3Z" fill="#ffbfa1"/><polygon points="12.23 41.85 24.71 40.33 29.07 49.91 6.11 50.91 12.23 41.85" fill="#e6f9ff"/><polygon points="13.25 41.27 9.24 51.45 4.83 50.56 11.5 41.13 13.25 41.27" fill="#d8eaef"/><path d="M31.16,19.71A3.7,3.7,0,0,1,31,21.39a2.17,2.17,0,0,1-.47.81,1.21,1.21,0,0,1-1,.36,1.43,1.43,0,0,1-.92-.44,1.85,1.85,0,0,1-.44-.84,3,3,0,0,1,.12-1.69,6.35,6.35,0,0,0,.38,1.53,1.12,1.12,0,0,0,.91.77c.36.08.67-.27.92-.71A11,11,0,0,0,31.16,19.71Z" fill="#222228"/><path d="M38.57,20.17a3.66,3.66,0,0,1,0,1.68,2,2,0,0,1-.39.85,1.22,1.22,0,0,1-1,.45,1.46,1.46,0,0,1-.95-.35,1.74,1.74,0,0,1-.51-.8,3,3,0,0,1,0-1.7,6.37,6.37,0,0,0,.52,1.49,1.14,1.14,0,0,0,1,.69c.36,0,.63-.33.84-.79A10.43,10.43,0,0,0,38.57,20.17Z" fill="#222228"/></g></g></svg>