<svg xmlns="http://www.w3.org/2000/svg" xmlns:xlink="http://www.w3.org/1999/xlink" viewBox="0 0 72.64 225.66"><defs><radialGradient id="radial-gradient" cx="14.43" cy="98.77" r="3.33" gradientUnits="userSpaceOnUse"><stop offset="0" stop-color="#4f455c"/><stop offset="1" stop-color="#3e3547"/></radialGradient><linearGradient id="linear-gradient" x1="14.08" y1="99.25" x2="17.75" y2="99.25" gradientUnits="userSpaceOnUse"><stop offset="0" stop-color="#a6a5b1"/><stop offset="1" stop-color="#a6a5b1" stop-opacity="0"/></linearGradient><linearGradient id="linear-gradient-2" x1="17.67" y1="103.91" x2="13.47" y2="89.09" gradientUnits="userSpaceOnUse"><stop offset="0" stop-color="#fcc384"/><stop offset="1" stop-color="#fddfa9"/></linearGradient><linearGradient id="linear-gradient-3" x1="17.36" y1="103.96" x2="15.21" y2="93.49" gradientUnits="userSpaceOnUse"><stop offset="0" stop-color="#e09768"/><stop offset="1" stop-color="#e19768" stop-opacity="0"/></linearGradient><radialGradient id="radial-gradient-2" cx="2.22" cy="76.91" r="22.96" xlink:href="#radial-gradient"/><linearGradient id="linear-gradient-4" x1="5.14" y1="71.24" x2="22.98" y2="81.38" xlink:href="#linear-gradient"/><linearGradient id="linear-gradient-5" x1="8.99" y1="87.31" x2="5.06" y2="100.69" xlink:href="#linear-gradient"/><radialGradient id="radial-gradient-3" cx="21.7" cy="220.83" r="9.96" gradientUnits="userSpaceOnUse"><stop offset="0" stop-color="#484c50"/><stop offset="1" stop-color="#35383b"/></radialGradient><linearGradient id="linear-gradient-6" x1="17.76" y1="219.59" x2="34.72" y2="219.59" xlink:href="#linear-gradient"/><radialGradient id="radial-gradient-4" cx="14.04" cy="221.21" r="10.61" gradientUnits="userSpaceOnUse"><stop offset="0" stop-color="#fff"/><stop offset="1" stop-color="#fff" stop-opacity="0"/></radialGradient><linearGradient id="linear-gradient-7" x1="27.87" y1="140.24" x2="27.3" y2="198.68" xlink:href="#linear-gradient-2"/><linearGradient id="linear-gradient-8" x1="10.15" y1="153.23" x2="42.59" y2="211.98" xlink:href="#linear-gradient-3"/><radialGradient id="radial-gradient-5" cx="29.59" cy="221.47" r="9.25" xlink:href="#radial-gradient-3"/><linearGradient id="linear-gradient-9" x1="26.98" y1="216.99" x2="43.75" y2="216.99" xlink:href="#linear-gradient"/><radialGradient id="radial-gradient-6" cx="23.29" cy="222.51" r="10.45" xlink:href="#radial-gradient-4"/><linearGradient id="linear-gradient-10" x1="38.62" y1="135.46" x2="38" y2="198.3" xlink:href="#linear-gradient-2"/><linearGradient id="linear-gradient-11" x1="20.66" y1="139.48" x2="56.27" y2="205.71" xlink:href="#linear-gradient-3"/><radialGradient id="radial-gradient-7" cx="29.51" cy="154.95" r="24.63" xlink:href="#radial-gradient"/><linearGradient id="linear-gradient-12" x1="32.53" y1="129.27" x2="57.48" y2="138.91" xlink:href="#linear-gradient"/><radialGradient id="radial-gradient-8" cx="44.94" cy="-3.16" r="18.82" gradientTransform="matrix(1, -0.09, 0.09, 1, -13.62, 20.18)" gradientUnits="userSpaceOnUse"><stop offset="0" stop-color="#845b48"/><stop offset="1" stop-color="#664638"/></radialGradient><radialGradient id="radial-gradient-9" cx="45.76" cy="18.31" r="48.54" gradientTransform="matrix(1, -0.09, 0.09, 1, -13.62, 20.18)" xlink:href="#linear-gradient"/><linearGradient id="linear-gradient-13" x1="-11.18" y1="60.91" x2="-11.11" y2="60.91" gradientTransform="translate(58.87 22.53) rotate(19)" xlink:href="#linear-gradient"/><radialGradient id="radial-gradient-10" cx="31" cy="73.43" r="23.96" xlink:href="#radial-gradient"/><radialGradient id="radial-gradient-11" cx="30.21" cy="117.55" r="23.96" gradientUnits="userSpaceOnUse"><stop offset="0" stop-color="#4f455c"/><stop offset="1" stop-color="#4f455c" stop-opacity="0"/></radialGradient><linearGradient id="linear-gradient-14" x1="23.35" y1="78.47" x2="53.52" y2="89.51" xlink:href="#linear-gradient"/><linearGradient id="linear-gradient-15" x1="48.45" y1="105.99" x2="39.32" y2="99.95" xlink:href="#linear-gradient-2"/><linearGradient id="linear-gradient-16" x1="41.44" y1="99.03" x2="49.28" y2="109.92" xlink:href="#linear-gradient-3"/><linearGradient id="linear-gradient-17" x1="35.2" y1="100.76" x2="38.12" y2="108.13" xlink:href="#linear-gradient-3"/><linearGradient id="linear-gradient-18" x1="31.46" y1="104.53" x2="35.89" y2="104.53" xlink:href="#linear-gradient-3"/><linearGradient id="linear-gradient-19" x1="33.38" y1="98.32" x2="35.34" y2="103.86" xlink:href="#linear-gradient-3"/><radialGradient id="radial-gradient-12" cx="48.09" cy="76.64" r="24.14" xlink:href="#radial-gradient"/><linearGradient id="linear-gradient-20" x1="44.9" y1="74.38" x2="55.67" y2="72.3" xlink:href="#linear-gradient"/><linearGradient id="linear-gradient-21" x1="57.52" y1="80.42" x2="62.92" y2="80.42" xlink:href="#linear-gradient"/><linearGradient id="linear-gradient-22" x1="59.39" y1="81.73" x2="67.2" y2="81.73" xlink:href="#linear-gradient"/><linearGradient id="linear-gradient-23" x1="45.42" y1="80.09" x2="72.64" y2="80.09" xlink:href="#linear-gradient"/><radialGradient id="radial-gradient-13" cx="55.26" cy="97.61" r="1.33" gradientUnits="userSpaceOnUse"><stop offset="0" stop-color="#3b3445"/><stop offset="1" stop-color="#2d2835"/></radialGradient><radialGradient id="radial-gradient-14" cx="29.16" cy="71.1" r="24.85" xlink:href="#radial-gradient"/><radialGradient id="radial-gradient-15" cx="24.36" cy="121.86" r="23.97" xlink:href="#radial-gradient-11"/><radialGradient id="radial-gradient-16" cx="24.98" cy="86.89" r="1.33" xlink:href="#radial-gradient-13"/><radialGradient id="radial-gradient-17" cx="24.03" cy="100.34" r="1.33" xlink:href="#radial-gradient-13"/><linearGradient id="linear-gradient-24" x1="20.64" y1="75.74" x2="20.58" y2="82.82" xlink:href="#linear-gradient"/><radialGradient id="radial-gradient-18" cx="32.1" cy="66.73" r="10.78" gradientUnits="userSpaceOnUse"><stop offset="0" stop-color="#f9dce4"/><stop offset="1" stop-color="#eab6c4"/></radialGradient><linearGradient id="linear-gradient-25" x1="15.04" y1="51.03" x2="34.73" y2="84.25" gradientUnits="userSpaceOnUse"><stop offset="0" stop-color="#b2a5ad"/><stop offset="1" stop-color="#b2a5ad" stop-opacity="0"/></linearGradient><radialGradient id="radial-gradient-19" cx="36.42" cy="68.31" r="13.34" xlink:href="#radial-gradient"/><radialGradient id="radial-gradient-20" cx="28.22" cy="69.72" r="12.15" xlink:href="#radial-gradient"/><linearGradient id="linear-gradient-26" x1="35.37" y1="49.71" x2="35.6" y2="59.16" xlink:href="#linear-gradient-2"/><linearGradient id="linear-gradient-27" x1="36.84" y1="42.6" x2="37.56" y2="55.6" xlink:href="#linear-gradient-3"/><linearGradient id="linear-gradient-28" x1="48.65" y1="45.62" x2="58.37" y2="45.62" gradientTransform="matrix(1, -0.09, 0.09, 1, -13.62, 20.18)" xlink:href="#linear-gradient"/><linearGradient id="linear-gradient-29" x1="31.33" y1="43.26" x2="44.34" y2="43.26" gradientTransform="matrix(1, -0.09, 0.09, 1, -13.62, 20.18)" xlink:href="#linear-gradient"/><radialGradient id="radial-gradient-21" cx="11.61" cy="30.79" r="7.4" gradientTransform="translate(45.88 26.65) rotate(13.65)" xlink:href="#radial-gradient-8"/><linearGradient id="linear-gradient-30" x1="47.81" y1="47.83" x2="48.6" y2="61.33" xlink:href="#linear-gradient"/><linearGradient id="linear-gradient-31" x1="12.05" y1="40.16" x2="14.83" y2="26.11" gradientTransform="translate(41.4 24.37) rotate(13.65)" xlink:href="#radial-gradient-8"/><linearGradient id="linear-gradient-32" x1="2.96" y1="21.9" x2="25.41" y2="19.74" gradientTransform="translate(41.4 24.37) rotate(13.65)" xlink:href="#linear-gradient"/><linearGradient id="linear-gradient-33" x1="-9.2" y1="31.5" x2="-9.2" y2="31.45" gradientTransform="translate(41.56 38.32) rotate(13.65)" xlink:href="#radial-gradient-8"/><linearGradient id="linear-gradient-34" x1="-14.16" y1="35.65" x2="-13.54" y2="19.77" gradientTransform="translate(41.56 38.32) rotate(13.65)" xlink:href="#radial-gradient-8"/><linearGradient id="linear-gradient-35" x1="-1.15" y1="11.79" x2="-28.71" y2="24.15" gradientTransform="translate(41.56 38.32) rotate(13.65)" xlink:href="#linear-gradient"/><linearGradient id="linear-gradient-36" x1="-10.96" y1="33.47" x2="-10.96" y2="33.44" gradientTransform="translate(43.25 34.75) rotate(13.65)" xlink:href="#radial-gradient-8"/><linearGradient id="linear-gradient-37" x1="-10.75" y1="31.71" x2="-10.24" y2="19.94" gradientTransform="translate(43.25 34.75) rotate(13.65)" xlink:href="#radial-gradient-8"/><linearGradient id="linear-gradient-38" x1="-6.74" y1="3.03" x2="-13.54" y2="28.61" gradientTransform="translate(43.25 34.75) rotate(13.65)" xlink:href="#linear-gradient"/><linearGradient id="linear-gradient-39" x1="38.99" y1="50.5" x2="38.98" y2="50.44" gradientTransform="matrix(1, -0.09, 0.09, 1, -13.62, 20.18)" xlink:href="#radial-gradient-8"/><linearGradient id="linear-gradient-40" x1="43.17" y1="47.78" x2="41.3" y2="36.49" gradientTransform="matrix(1, -0.09, 0.09, 1, -13.62, 20.18)" xlink:href="#radial-gradient-8"/><linearGradient id="linear-gradient-41" x1="37.45" y1="30.68" x2="42.25" y2="44.51" gradientTransform="matrix(1, -0.09, 0.09, 1, -13.62, 20.18)" xlink:href="#linear-gradient"/><linearGradient id="linear-gradient-42" x1="-20" y1="31.02" x2="-21.19" y2="20.31" gradientTransform="translate(71.07 44.47) rotate(23.84)" xlink:href="#radial-gradient-8"/><linearGradient id="linear-gradient-43" x1="-22.38" y1="17.98" x2="-9.52" y2="21.04" gradientTransform="translate(71.07 44.47) rotate(23.84)" xlink:href="#linear-gradient"/><linearGradient id="linear-gradient-44" x1="2.78" y1="33.87" x2="6.82" y2="23.81" gradientTransform="translate(44.21 27.18) rotate(13.65)" xlink:href="#radial-gradient-8"/><linearGradient id="linear-gradient-45" x1="-521.81" y1="15.15" x2="-525.71" y2="18.77" gradientTransform="matrix(-1, 0.09, 0.09, 1, -474.18, 63.32)" xlink:href="#linear-gradient-2"/><linearGradient id="linear-gradient-46" x1="58.72" y1="19.71" x2="57.36" y2="22.73" gradientTransform="matrix(1, -0.09, 0.09, 1, -13.62, 20.18)" xlink:href="#linear-gradient-3"/><linearGradient id="linear-gradient-47" x1="-521.66" y1="14.9" x2="-525.88" y2="18.62" gradientTransform="matrix(-1, 0.09, 0.09, 1, -474.18, 63.32)" xlink:href="#linear-gradient-3"/><radialGradient id="radial-gradient-22" cx="38.54" cy="16.14" r="18.51" gradientTransform="matrix(1, -0.09, 0.09, 1, -13.62, 20.18)" gradientUnits="userSpaceOnUse"><stop offset="0.66" stop-color="#fddfa9"/><stop offset="1" stop-color="#fcc384"/></radialGradient><radialGradient id="radial-gradient-23" cx="37.24" cy="20.07" r="3.25" gradientTransform="matrix(1, -0.09, 0.09, 1, -13.62, 20.18)" xlink:href="#linear-gradient-3"/><radialGradient id="Rona_Pipi" cx="49.31" cy="22.19" r="6.12" gradientTransform="matrix(1, -0.09, 0.09, 1, -13.62, 20.18)" gradientUnits="userSpaceOnUse"><stop offset="0" stop-color="#dd6162"/><stop offset="1" stop-color="#df6263" stop-opacity="0"/></radialGradient><radialGradient id="Rona_Pipi-2" cx="30.95" cy="21.65" r="5.21" xlink:href="#Rona_Pipi"/><radialGradient id="radial-gradient-24" cx="33.96" cy="10.51" r="4.23" gradientTransform="matrix(1, -0.09, 0.09, 1, -13.62, 20.18)" xlink:href="#linear-gradient-3"/><radialGradient id="radial-gradient-25" cx="41.9" cy="10.61" r="4.8" gradientTransform="matrix(1, -0.09, 0.09, 1, -13.62, 20.18)" xlink:href="#linear-gradient-3"/><linearGradient id="linear-gradient-48" x1="46.55" y1="-5.02" x2="39.3" y2="42.76" gradientTransform="matrix(1, -0.09, 0.09, 1, -13.62, 20.18)" xlink:href="#linear-gradient-3"/><radialGradient id="radial-gradient-26" cx="36.43" cy="-8.92" r="11.11" xlink:href="#radial-gradient-8"/><radialGradient id="radial-gradient-27" cx="27.8" cy="-11.47" r="12.69" gradientTransform="matrix(1, -0.09, 0.09, 1, -13.62, 20.18)" xlink:href="#radial-gradient-4"/><radialGradient id="radial-gradient-28" cx="32.48" cy="11.96" r="3.5" gradientTransform="matrix(1, -0.09, 0.09, 1, -13.62, 20.18)" gradientUnits="userSpaceOnUse"><stop offset="0" stop-color="#2c2e2d"/><stop offset="1" stop-color="#363838"/></radialGradient><radialGradient id="Gradient_Eye" cx="34.41" cy="12.32" r="4.45" gradientTransform="matrix(1, -0.09, 0.09, 1, -13.62, 20.18)" gradientUnits="userSpaceOnUse"><stop offset="0.52" stop-color="#fff"/><stop offset="1" stop-color="#a6a5b1"/></radialGradient><clipPath id="clip-path"><path d="M18.28,28.52a2.06,2.06,0,0,0,.81,2.39c.7.49,1.22.24,2.13.27a8.63,8.63,0,0,0,3.14-.3,3.9,3.9,0,0,0-2.79-3.46C20.33,27,18.6,27.26,18.28,28.52Z" fill="none"/></clipPath><radialGradient id="radial-gradient-29" cx="35.09" cy="12.68" r="2.21" gradientTransform="matrix(1, -0.09, 0.09, 1, -13.62, 20.18)" gradientUnits="userSpaceOnUse"><stop offset="0.74" stop-color="#e2a580"/><stop offset="0.83" stop-color="#a3765c"/><stop offset="0.95" stop-color="#624738"/></radialGradient><linearGradient id="linear-gradient-49" x1="34.02" y1="9.51" x2="33.78" y2="13.73" gradientTransform="matrix(1, -0.09, 0.09, 1, -13.62, 20.18)" xlink:href="#linear-gradient"/><linearGradient id="linear-gradient-50" x1="39" y1="22.46" x2="39" y2="19.85" gradientTransform="matrix(1, -0.09, 0.09, 1, -13.62, 20.18)" xlink:href="#linear-gradient-2"/><linearGradient id="linear-gradient-51" x1="44.47" y1="23.91" x2="38.35" y2="12.12" gradientTransform="matrix(1, -0.09, 0.09, 1, -13.62, 20.18)" xlink:href="#linear-gradient-3"/><radialGradient id="radial-gradient-30" cx="41.97" cy="10.59" r="5.86" gradientTransform="matrix(1, -0.09, 0.09, 1, -13.62, 20.18)" xlink:href="#linear-gradient-3"/><linearGradient id="linear-gradient-52" x1="37.04" y1="17.76" x2="38.04" y2="23.26" gradientTransform="matrix(1, -0.09, 0.09, 1, -13.62, 20.18)" xlink:href="#linear-gradient-3"/><radialGradient id="radial-gradient-31" cx="32.48" cy="-31.44" r="5.25" gradientTransform="matrix(1, 0, 0, 1, 0.12, 50.24)" xlink:href="#radial-gradient-8"/><radialGradient id="radial-gradient-32" cx="48.27" cy="11.86" r="4.4" xlink:href="#radial-gradient-28"/><radialGradient id="Gradient_Eye-2" cx="47.54" cy="12.49" r="6.06" xlink:href="#Gradient_Eye"/><clipPath id="clip-path-2"><path d="M30.2,30.55c1,.53,2.31-.15,4.22-.39,2.3-.29,3.61-.42,4.23-2a3.54,3.54,0,0,0-4.46-2.49C32.22,26.05,29.88,27.7,30.2,30.55Z" fill="none"/></clipPath><radialGradient id="radial-gradient-33" cx="48.09" cy="12.57" r="2.44" xlink:href="#radial-gradient-29"/><linearGradient id="linear-gradient-53" x1="47.05" y1="8.29" x2="46.96" y2="14.58" gradientTransform="matrix(1, -0.09, 0.09, 1, -13.62, 20.18)" xlink:href="#linear-gradient"/><radialGradient id="radial-gradient-34" cx="32.66" cy="4.28" r="3.39" xlink:href="#radial-gradient-8"/><radialGradient id="radial-gradient-35" cx="47.68" cy="-7.28" r="19.16" xlink:href="#radial-gradient-8"/><linearGradient id="linear-gradient-54" x1="55.92" y1="43.56" x2="63.34" y2="43.56" gradientTransform="matrix(1, -0.09, 0.09, 1, -13.62, 20.18)" xlink:href="#linear-gradient"/><linearGradient id="linear-gradient-55" x1="46.7" y1="5.99" x2="77.1" y2="33.89" gradientTransform="matrix(1, -0.09, 0.09, 1, -13.62, 20.18)" xlink:href="#linear-gradient"/><radialGradient id="radial-gradient-37" cx="38.11" cy="20.08" r="0.73" xlink:href="#radial-gradient-28"/><radialGradient id="radial-gradient-38" cx="58.19" cy="23.88" r="2.92" xlink:href="#radial-gradient-8"/><radialGradient id="radial-gradient-39" cx="39.3" cy="29.92" r="3.23" gradientTransform="matrix(1, -0.09, 0.09, 1, -13.62, 20.18)" xlink:href="#linear-gradient-3"/><radialGradient id="radial-gradient-40" cx="40.37" cy="27.18" r="3.79" gradientTransform="matrix(1, -0.09, 0.09, 1, -13.62, 20.18)" gradientUnits="userSpaceOnUse"><stop offset="0" stop-color="#674738"/><stop offset="1" stop-color="#473127"/></radialGradient><clipPath id="clip-path-3"><path d="M23.91,39.66a16.41,16.41,0,0,1,1.28,3.59,2.21,2.21,0,0,0,2,1.6c1.12.1,3.72-1.66,4.48-3s1.56-3.28,1.8-3.6c-.94.19-4,1-4.85,1.12A13.52,13.52,0,0,1,23.91,39.66Z" fill="none"/></clipPath><radialGradient id="radial-gradient-41" cx="39.06" cy="27.73" r="2.57" gradientTransform="matrix(1, -0.09, 0.09, 1, -13.62, 20.18)" gradientUnits="userSpaceOnUse"><stop offset="0.45" stop-color="#cd6a6b"/><stop offset="1" stop-color="#b15556"/></radialGradient><radialGradient id="Gradient_Eye-3" cx="39.16" cy="27.14" r="6.08" xlink:href="#Gradient_Eye"/><linearGradient id="linear-gradient-56" x1="40.54" y1="19.91" x2="40.83" y2="25.02" gradientTransform="matrix(1, -0.09, 0.09, 1, -13.62, 20.18)" xlink:href="#linear-gradient"/><radialGradient id="radial-gradient-42" cx="39.2" cy="18.5" r="4.91" gradientTransform="matrix(1, -0.09, 0.09, 1, -13.62, 20.18)" gradientUnits="userSpaceOnUse"><stop offset="0.82" stop-color="#f38081"/><stop offset="1" stop-color="#de6b6b"/></radialGradient><radialGradient id="radial-gradient-43" cx="39.07" cy="25.58" r="3.17" gradientTransform="matrix(1, -0.09, 0.09, 1, -13.62, 20.18)" gradientUnits="userSpaceOnUse"><stop offset="0.78" stop-color="#f38081"/><stop offset="1" stop-color="#de6b6b"/></radialGradient><radialGradient id="radial-gradient-44" cx="45.37" cy="22.4" r="0.98" gradientTransform="matrix(1, -0.09, 0.09, 1, -13.62, 20.18)" xlink:href="#linear-gradient-3"/><radialGradient id="radial-gradient-45" cx="34.67" cy="22.44" r="0.98" gradientTransform="matrix(1, -0.09, 0.09, 1, -13.62, 20.18)" xlink:href="#linear-gradient-3"/><linearGradient id="linear-gradient-57" x1="15.41" y1="102.96" x2="22.86" y2="102.96" xlink:href="#linear-gradient-2"/><linearGradient id="linear-gradient-58" x1="19.28" y1="96.63" x2="19.88" y2="104.09" xlink:href="#linear-gradient-3"/><linearGradient id="linear-gradient-59" x1="19.96" y1="103.36" x2="8.93" y2="108.57" xlink:href="#linear-gradient-3"/></defs><g style="isolation:isolate"><g id="Layer_2" data-name="Layer 2"><g id="Layer_2-2" data-name="Layer 2"><path d="M14.3,102.16c-.57-.06.12-4.1.12-4.1s3-1.83,3.29-1.72-1.07,3-1.57,3.67S14.79,102.21,14.3,102.16Z" fill="url(#radial-gradient)"/><path d="M14.3,102.16c-.57-.06.12-4.1.12-4.1s3-1.83,3.29-1.72-1.07,3-1.57,3.67S14.79,102.21,14.3,102.16Z" fill="url(#linear-gradient)" style="mix-blend-mode:multiply"/><path d="M13.27,100.22A11.89,11.89,0,0,1,15.51,103c.2.51,1.3,4.42,1.3,4.42a5.57,5.57,0,0,0,.6.71c0-.09,1.53-3.94,1.53-4s.85-4.62.79-4.76-3.49-4-3.6-4S13.27,100.22,13.27,100.22Z" fill="url(#linear-gradient-2)"/><path d="M13.27,100.22A11.89,11.89,0,0,1,15.51,103c.2.51,1.3,4.42,1.3,4.42a5.57,5.57,0,0,0,.6.71c0-.09,1.53-3.94,1.53-4s.85-4.62.79-4.76-3.49-4-3.6-4S13.27,100.22,13.27,100.22Z" fill="url(#linear-gradient-3)" style="mix-blend-mode:darken"/><path d="M21.68,68.53a60.64,60.64,0,0,1-2.46,8.31c-1,1.2-3.63,4.91-4.76,5.74s-1.36,1.06-1.66,1.89-.54.9-1.52,1.59c.3.3,4.09,7.63,6.43,10.28A9.21,9.21,0,0,0,15,99.89a6.17,6.17,0,0,0-.68,2.27s-3.54-2.72-5.44-4.54S1.68,90.9.62,89A7.34,7.34,0,0,1,.8,82.73a.35.35,0,0,1,0-.08C1.68,81.52,2.66,80.54,4.7,78s4.24-3.85,4.61-5.44.38-1.06,1.45-2,1.13-1,1.13-1.73A1.55,1.55,0,0,1,13,67.23c1-.46,2.05-2,3.63-4.16a12.08,12.08,0,0,1,6.27-4.2C23.27,60.27,22.63,64.39,21.68,68.53Z" fill="url(#radial-gradient-2)"/><path d="M21.68,68.53a60.64,60.64,0,0,1-2.46,8.31c-1,1.2-3.63,4.91-4.76,5.74s-1.36,1.06-1.66,1.89-.54.9-1.52,1.59c-.73-1.55-2-3-3.57-3a16.21,16.21,0,0,0-5.12.81c3.07-1.7,6.34-2.07,8.08-.43-.52-1.4-3-2.94-5.36-2.64,2.8-.58,5,.22,5.82,1.06s-1.85-2.69-1.85-2.69c2.34,1,3.74,2.19,4.91,1.33a15.59,15.59,0,0,0,2.65-3.11c-.69-1.81-1.14-3.4-2-3.78A19.57,19.57,0,0,0,11.09,73c3.56-.91,4.92-1.71,5.34-2.31s-1.71-1.32-3-1.25a18.36,18.36,0,0,0,6.38-3.82C20,65.32,20.8,66.66,21.68,68.53Z" fill="url(#linear-gradient-4)" style="mix-blend-mode:multiply"/><path d="M15,99.89a6.17,6.17,0,0,0-.68,2.27s-3.54-2.72-5.44-4.54S1.68,90.9.62,89A7.34,7.34,0,0,1,.8,82.73c0,2.48,1.05,4.9,4,7.94C7.26,93.25,12.07,97.42,15,99.89Z" fill="url(#linear-gradient-5)" style="mix-blend-mode:multiply"/><path d="M14.29,69.26c.45-.13.9-.24,1.36-.33s.91-.17,1.36-.24.92-.11,1.38-.15a13.11,13.11,0,0,1,1.4-.06q-.67.19-1.35.33c-.46.09-.92.17-1.38.23s-.92.11-1.38.15S14.75,69.25,14.29,69.26Z" fill="#2d2835"/><path d="M13,72.74c.58-.16,1.16-.31,1.75-.45l1.75-.43,1.76-.39L20,71.12c-.56.23-1.13.43-1.7.61s-1.16.33-1.75.47-1.18.25-1.78.34S13.58,72.7,13,72.74Z" fill="#2d2835"/><path d="M2.21,84.05a9.84,9.84,0,0,1,2.41-1,7.52,7.52,0,0,1,2.63-.28,4.84,4.84,0,0,1,2.51.9,3.65,3.65,0,0,1,1.47,2.15,4.05,4.05,0,0,0-1.65-1.89,5.17,5.17,0,0,0-2.36-.75,9.38,9.38,0,0,0-2.53.16A13.52,13.52,0,0,0,2.21,84.05Z" fill="#2d2835"/><path d="M4,81.2a3.94,3.94,0,0,1,2-.53,6.59,6.59,0,0,1,2.11.18A4.4,4.4,0,0,1,9.93,82a4,4,0,0,1,1,1.82,5.29,5.29,0,0,0-1.24-1.6,4.7,4.7,0,0,0-1.74-1A8.18,8.18,0,0,0,6,81,4.78,4.78,0,0,0,4,81.2Z" fill="#2d2835"/><path d="M9.42,79.33a4.37,4.37,0,0,1,1.08.73c.32.29.62.58.95.84a10.6,10.6,0,0,0,1,.78c.34.25.69.5,1.05.74a5.26,5.26,0,0,1-1.21-.48,6.74,6.74,0,0,1-1.09-.74,7.88,7.88,0,0,1-.9-.93A8.57,8.57,0,0,0,9.42,79.33Z" fill="#2d2835"/><path d="M10.15,97.49a9.13,9.13,0,0,1,.7.69c.22.24.43.48.63.74s.38.52.56.79a8.84,8.84,0,0,1,.48.85,7.49,7.49,0,0,1-.7-.68c-.22-.24-.43-.49-.63-.74s-.38-.53-.55-.8A7.84,7.84,0,0,1,10.15,97.49Z" fill="#2d2835"/><path d="M36.54,215.73c-.58.56-1.62,1.53-2.83,2.62-2.69,2.44-6.25,5.47-7.38,5.83-1.64.51-6.13.8-8.17-.39l-.4-.26c-1.51-1.08-.74-1.93-.17-2.3S19,220.09,20.31,219s4.26-.73,4.43-.78l10.54-9.3S38.41,213.92,36.54,215.73Z" fill="url(#radial-gradient-3)"/><path d="M34.72,214.56s-.46,1.76-1,3.79c-2.69,2.44-6.25,5.47-7.38,5.83-1.64.51-6.13.8-8.17-.39l-.4-.26a11.85,11.85,0,0,0,6,.29c2.11-.53,5.44-5.49,5.85-6.31A30.63,30.63,0,0,1,34.72,214.56Z" fill="url(#linear-gradient-6)" style="mix-blend-mode:multiply"/><path d="M18.47,221.74a14.57,14.57,0,0,0,5.29.11C21.79,223,19.52,222.88,18.47,221.74Z" opacity="0.7" fill="url(#radial-gradient-4)" style="mix-blend-mode:screen"/><path d="M38.63,207.46c-1.13,1.5-6.1,9.1-8.44,10.54-.71.43-1.4.86-2.06,1.21h0c-1.48.81-2.75,1.29-3.62.82a6.67,6.67,0,0,0-4.2-1,49.43,49.43,0,0,0,4.88-4.64A49.3,49.3,0,0,0,29.73,208c.91-1.82,1.74-3.33,1.29-5.15a36.37,36.37,0,0,0-2-6.49c-1.29-3.09-4.35-9.91-6.05-13.54s-2.83-7.94-3.63-9.65a47.4,47.4,0,0,1-1.82-5,17.73,17.73,0,0,1-1.25-5.32c0-1.48.35-5.33.45-8.29,3.69-2.06,9.16-3.05,12.87.67.14.13.27.28.41.43-1.52,3.11-2.2,9.68,0,12.33s3.7,7.26,4.15,12.48c.39,4.42.88,11.21,1.29,16.29C35.86,202.38,36.82,204.65,38.63,207.46Z" fill="url(#linear-gradient-7)"/><path d="M38.63,207.46c-1.13,1.5-6.1,9.1-8.44,10.54-.71.43-1.4.86-2.06,1.21,1.87-2.42,3.92-6,4.1-7.26.22-1.74,1.88-4.77,2.87-7.26-.22-1.36-1.74-11.42-2-14.71s-1.36-11.56-1.81-13.83-2.95-5.56-4.31-3.41-1.82,1.36-2.16.69a13.29,13.29,0,0,1-.79-5.23,41.37,41.37,0,0,0,.79-6.23c0-2.27-1.58-3.86-4.08-4.2l8.78-2.51c.14.13.27.28.41.43-1.52,3.11-2.2,9.68,0,12.33s3.7,7.26,4.15,12.48c.39,4.42.88,11.21,1.29,16.29C35.86,202.38,36.82,204.65,38.63,207.46Z" fill="url(#linear-gradient-8)" style="mix-blend-mode:darken"/><path d="M20.39,163.51a4.35,4.35,0,0,1,.68,1.34,4.94,4.94,0,0,1,0,3,5.32,5.32,0,0,1-.3.69,3.41,3.41,0,0,1-.41.63,7.1,7.1,0,0,0,.44-1.4,6.27,6.27,0,0,0,.16-1.43,7,7,0,0,0-.12-1.44A7.24,7.24,0,0,0,20.39,163.51Z" fill="#b8784d"/><path d="M22.31,170a2.32,2.32,0,0,1-.07.38c0,.11-.06.22-.1.34s-.09.21-.15.32-.12.21-.19.33a1.39,1.39,0,0,1-.06-.4,1.63,1.63,0,0,1,.08-.37,1.45,1.45,0,0,1,.2-.34A1,1,0,0,1,22.31,170Z" fill="#b8784d"/><path d="M43.69,214.6c-.29,1.24-3.13,8.11-3.13,8.11a2,2,0,0,1-1,.33s.23-2.43.34-3.57c-.51.4-1.18,1.81-2.44,3.12s-2.21,2.49-5,2.89a16.8,16.8,0,0,1-5.47-.1,10.17,10.17,0,0,1-1.16-.3c-1.36-.45-.28-1.86.45-2.44s1.7-1.36,2.55-2.15,1.66-.6,2.8-.9c0,0,4.69-4.17,7.84-7.57a13.3,13.3,0,0,0,2.75-3.7C43.23,209.42,44,213.35,43.69,214.6Z" fill="url(#radial-gradient-5)"/><path d="M43.69,214.6c-.29,1.24-3.13,8.11-3.13,8.11a2,2,0,0,1-1,.33s.23-2.43.34-3.57c-.51.4-1.18,1.81-2.44,3.12s-2.21,2.49-5,2.89a16.8,16.8,0,0,1-5.47-.1c.51,0,1.1,0,1.77,0,4.68-.21,5.78-2.34,6.77-3.67s2.64-5.25,3.89-8.46l.05-1.18a13.3,13.3,0,0,0,2.75-3.7C43.23,209.42,44,213.35,43.69,214.6Z" fill="url(#linear-gradient-9)" style="mix-blend-mode:multiply"/><path d="M27.65,223.25a13.34,13.34,0,0,0,5.22-.22A4.78,4.78,0,0,1,27.65,223.25Z" fill="url(#radial-gradient-6)"/><path d="M45.16,164.24c.9,4.2,2.26,7.87,2,14.74s-2.8,14.75-4.23,19.67-1.14,8.53-.68,9.67a16.41,16.41,0,0,1-1.89,4c-.14.21-.33.58-.57,1a.14.14,0,0,0,0,.06C39,214.79,38,217,37.06,218.75c-1.28,2.42-3,2.95-4.23,2.58a24.84,24.84,0,0,0-4-.84,28,28,0,0,0,3.71-6.19,41,41,0,0,1,2.19-5.67c.87-1.75,1.16-3.62,1.41-6.83l0-.43c.6-8.4-.76-15.28-.76-19.37a62.69,62.69,0,0,0-1.59-12.32c-.56-2.15-.56-5-1.13-6.8a24.36,24.36,0,0,1-.45-8c1.11-1.39,9-6.4,13-5.75a2.46,2.46,0,0,1,2.19,2.08C45.23,157.89,44.68,162,45.16,164.24Z" fill="url(#linear-gradient-10)"/><path d="M45.16,164.24c.9,4.2,2.26,7.87,2,14.74s-2.8,14.75-4.23,19.67-1.14,8.53-.68,9.67a16.41,16.41,0,0,1-1.89,4c-.14.21-.33.58-.57,1,.4-1,.8-1.9.94-2.33.31-.87.65-2.46.84-3.09s-.38-1.72-.7-3.28.7-5.27,1.15-9,2.16-13.16,1.82-17.13-2.5-9.18-2.5-11.23.68-5.78.23-7.48-2.27-2-6.58-2.39l.91-3.85,9.37-4.5a2.46,2.46,0,0,1,2.19,2.08C45.23,157.89,44.68,162,45.16,164.24Z" fill="url(#linear-gradient-11)"/><path d="M38.11,159.91a6.32,6.32,0,0,1,.15,1.37,4.38,4.38,0,0,1-.21,1.39,3.43,3.43,0,0,1-.72,1.22,2.38,2.38,0,0,1-1.2.7,3,3,0,0,0,1-.86,4.26,4.26,0,0,0,.6-1.16,6.39,6.39,0,0,0,.27-1.3C38.06,160.82,38.08,160.37,38.11,159.91Z" fill="#b8784d"/><path d="M38.11,166.05a2.26,2.26,0,0,1-.17.56,2.88,2.88,0,0,1-.3.5,2.32,2.32,0,0,1-.4.43,2.26,2.26,0,0,1-.49.31,5.66,5.66,0,0,1,.31-.48l.33-.45.34-.44C37.85,166.34,38,166.19,38.11,166.05Z" fill="#b8784d"/><path d="M40.83,204.67a3.6,3.6,0,0,0,.55,1.44,3.1,3.1,0,0,1,.67,1.48,4.18,4.18,0,0,1-.3,1.6l-.27.74-.15.37c0,.11-.11.29-.26.28.14,0,.15-.19.17-.31l.08-.38.17-.77a4.92,4.92,0,0,0,.2-1.5,3.49,3.49,0,0,0-.54-1.39A2.84,2.84,0,0,1,40.83,204.67Z" fill="#b8784d"/><path d="M36.13,201.8a27.47,27.47,0,0,1-.72,5,12.61,12.61,0,0,1-1,2.35c-.36.77-.67,1.55-1,2.35a29.12,29.12,0,0,1-1.86,4.72,32.37,32.37,0,0,1-2.8,4.24,24.09,24.09,0,0,0,1.33-2.16c.44-.73.85-1.46,1.23-2.21a14.24,14.24,0,0,0,1-2.29c.26-.81.52-1.62.8-2.43s.64-1.59,1-2.36a14.27,14.27,0,0,0,1-2.29,19.67,19.67,0,0,0,.57-2.44C35.87,203.48,36,202.64,36.13,201.8Z" fill="#b8784d"/><path d="M53.55,125.8c-.34,6.57-3.75,19.5-6,28.58-.45.79-2.48,1.81-4.53,2.15l-.76.12c-3.14.49-12.14,1.83-15.23,2-3.4.23-10.21.8-11-.91-.23-4.3.34-31.41.41-34s1.41-3.33,2.2-5.49l5.44-15.64s22.35,4.87,26.31,7.59A14.21,14.21,0,0,1,51.56,113,36.36,36.36,0,0,1,53.55,125.8Z" fill="url(#radial-gradient-7)"/><path d="M53.55,125.8c-.34,6.57-3.75,19.5-6,28.58-.45.79-2.48,1.81-4.53,2.15l-.76.12c1.46-6.39,4-18.22,4.62-22.58.79-5.67,0-12.93-2.84-17.35L51.56,113A36.36,36.36,0,0,1,53.55,125.8Z" fill="url(#linear-gradient-12)" style="mix-blend-mode:multiply"/><path d="M23.27,124.1c1.18-.18,2.35-.36,3.52-.56s2.33-.42,3.49-.66,2.32-.49,3.48-.76l3.46-.86c-1.11.42-2.25.8-3.39,1.12s-2.31.6-3.48.84-2.34.43-3.52.58S24.46,124.05,23.27,124.1Z" fill="#2d2835"/><path d="M24.86,128.75c1-.37,2-.74,3-1.14s2-.81,3-1.24,2-.88,2.94-1.35,2-.94,2.91-1.43c-.9.6-1.82,1.17-2.78,1.68s-1.93,1-2.93,1.43-2,.81-3,1.15S25.91,128.5,24.86,128.75Z" fill="#2d2835"/><path d="M23.85,151.58c1.13-.66,2.25-1.32,3.36-2s2.21-1.37,3.3-2.08,2.18-1.42,3.25-2.15L37,143.12c-1,.85-2,1.68-3,2.46s-2.12,1.52-3.22,2.23-2.22,1.38-3.36,2S25,151,23.85,151.58Z" fill="#2d2835"/><path d="M25,154.32l3.24-1.4,3.21-1.45L34.59,150l3.17-1.54c-1,.62-2,1.23-3,1.79s-2.09,1.08-3.16,1.58-2.16.94-3.26,1.37S26.08,154,25,154.32Z" fill="#2d2835"/><path d="M33.51,132.52c-.63.79-1.27,1.58-1.93,2.35l-2,2.3a16.85,16.85,0,0,0-1.87,2.36,6.59,6.59,0,0,0-.66,1.33.42.42,0,0,0,.33.5,1.67,1.67,0,0,0,.74,0,1.67,1.67,0,0,1-.77,0,.54.54,0,0,1-.46-.61,6,6,0,0,1,.6-1.43A14.8,14.8,0,0,1,29.34,137l2.06-2.24C32.09,134,32.8,133.24,33.51,132.52Z" fill="#2d2835"/><path d="M32.22.2C36-.34,43,.1,48,4.65s5.94,9.09,6.82,14.4c.81,4.92,3,7.38,4.81,11.62s-.83,9-2.36,11.31-3.19,2.43-4.06,5.24-1.18,2.85,0,5.17.41,6-1.19,7.55c-9.55,4.24-25.39.56-26.75-.15,2.54-2.06,1.83-4.8-.27-6.12s-3.39-3-2.64-5.53.6-5.67-.67-7.07a14,14,0,0,0-3.73-2.54c-1.69-1.06-3.57-3.31-2.34-9.65s-.25-11.52,1.16-14.39S25.92,1.1,32.22.2Z" fill="url(#radial-gradient-8)"/><path d="M32.22.2C36-.34,43,.1,48,4.65s5.94,9.09,6.82,14.4c.81,4.92,3,7.38,4.81,11.62s-.83,9-2.36,11.31-3.19,2.43-4.06,5.24-1.18,2.85,0,5.17.41,6-1.19,7.55c-9.55,4.24-25.39.56-26.75-.15,2.54-2.06,1.83-4.8-.27-6.12s-3.39-3-2.64-5.53.6-5.67-.67-7.07a14,14,0,0,0-3.73-2.54c-1.69-1.06-3.57-3.31-2.34-9.65s-.25-11.52,1.16-14.39S25.92,1.1,32.22.2Z" fill="url(#radial-gradient-9)" style="mix-blend-mode:multiply"/><path d="M28.47,76.51a.2.2,0,0,0,.08,0C28.52,76.53,28.48,76.55,28.47,76.51Z" fill="url(#linear-gradient-13)" style="mix-blend-mode:multiply"/><path d="M53.39,116.76c-1.74.51-3.6,1-5.48,1.43-6.9,1.57-14.11,2.38-16.66.3s-4.45-5.22-5.55-9.85a36.06,36.06,0,0,1-.73-4.51C24.67,96,26.48,78,26.48,78L32.3,65l8.91-9.14,1.12-1.14s1.2.53,2.32,1.13,5.88,3.18,6.93,3.63S49.77,70.26,48.1,73.13s-3.7,7.71-5.89,10.51a10.52,10.52,0,0,0-1.66,8.92c.68,2.2,4.34,5.55,7.22,10.21S51.89,111.91,53.39,116.76Z" fill="url(#radial-gradient-10)"/><path d="M53.39,116.76c-1.74.51-3.6,1-5.48,1.43-6.9,1.57-14.11,2.38-16.66.3s-4.45-5.22-5.55-9.85a36.06,36.06,0,0,1-.73-4.51C24.67,96,26.48,78,26.48,78L32.3,65l8.91-9.14,1.12-1.14s1.2.53,2.32,1.13,5.88,3.18,6.93,3.63S49.77,70.26,48.1,73.13s-3.7,7.71-5.89,10.51a10.52,10.52,0,0,0-1.66,8.92c.68,2.2,4.34,5.55,7.22,10.21S51.89,111.91,53.39,116.76Z" fill="url(#radial-gradient-11)"/><path d="M53.39,116.76c-1.74.51-3.6,1-5.48,1.43a76,76,0,0,0-2.81-10.6c-2-5.28-4.83-9.76-5.79-10.32s-3.74-1-6.29-1.42a9.21,9.21,0,0,0,3.69-2.1c.91-1,.17-3.34-2.44-3.79s-1.82-1.76.68-2.44,2.78-1.43,1.76-1.31a18.55,18.55,0,0,1-6.41-.63c5.9-.74,6.35-2.83,5-3.57A13.6,13.6,0,0,1,31.44,79c6.06.12,10.09-3.63,10.41-5.33,1.07-.58,5.8-2.66,5-2.55a42.85,42.85,0,0,1-6.35.2c1.3-.12,4.3-.77,4.86-2.17-.3-.85,2-4.84,1.15-8.58-1.07-.44-4.74-2.79-4.88-2.83l-.43-1.87,1.12-1.14s1.2.53,2.32,1.13,5.88,3.18,6.93,3.63S49.77,70.26,48.1,73.13s-3.7,7.71-5.89,10.51a10.52,10.52,0,0,0-1.66,8.92c.68,2.2,4.34,5.55,7.22,10.21S51.89,111.91,53.39,116.76Z" fill="url(#linear-gradient-14)" style="mix-blend-mode:multiply"/><path d="M40.51,71.28c.71-.06,1.42-.14,2.13-.23s1.4-.21,2.1-.35,1.39-.28,2.09-.45,1.38-.34,2.07-.54a14,14,0,0,1-2,.82,16.4,16.4,0,0,1-2.09.53,17.26,17.26,0,0,1-2.15.25A15.41,15.41,0,0,1,40.51,71.28Z" fill="#2d2835"/><path d="M41.86,73.61A7.56,7.56,0,0,1,43.31,73c.51-.18,1-.32,1.53-.45l1.53-.37a11.81,11.81,0,0,0,1.5-.47,6.15,6.15,0,0,1-1.41.75,11.7,11.7,0,0,1-1.53.46l-1.54.34A15.57,15.57,0,0,0,41.86,73.61Z" fill="#2d2835"/><path d="M33.43,79.75a9.61,9.61,0,0,0,3.12,0,9.24,9.24,0,0,0,5.38-2.83,10,10,0,0,0,1.76-2.58,8.15,8.15,0,0,1-1.53,2.78,8.69,8.69,0,0,1-2.5,2,8.78,8.78,0,0,1-3.07.91A8.2,8.2,0,0,1,33.43,79.75Z" fill="#2d2835"/><path d="M30.3,85.58c.87.06,1.73.08,2.59.07s1.71-.06,2.56-.15,1.71-.2,2.55-.36,1.69-.35,2.52-.58a16.21,16.21,0,0,1-2.45.87,16.26,16.26,0,0,1-5.19.52A14.85,14.85,0,0,1,30.3,85.58Z" fill="#2d2835"/><path d="M39.21,86.8c-.59.25-1.18.48-1.78.7l-1.79.61c-.3.09-.59.2-.88.31a5.66,5.66,0,0,0-.82.39c-.1.07-.14.15-.11.24a.64.64,0,0,0,.29.27l.83.47-.91-.3a.87.87,0,0,1-.43-.32.49.49,0,0,1,.14-.6,4.4,4.4,0,0,1,.86-.49c.3-.13.6-.25.9-.35.61-.2,1.22-.36,1.84-.52S38.58,86.91,39.21,86.8Z" fill="#2d2835"/><path d="M39.14,92.65a16.19,16.19,0,0,1-1.22,1.12,14.52,14.52,0,0,1-1.35,1,9,9,0,0,1-1.49.74,7.61,7.61,0,0,1-1.61.41A12.52,12.52,0,0,0,35,95.23a15.2,15.2,0,0,0,1.42-.8c.46-.28.92-.58,1.38-.88Z" fill="#2d2835"/><path d="M53.4,116.76c-1.36.44-2.72.88-4.09,1.27s-2.77.71-4.17,1a44.32,44.32,0,0,1-8.54,1,12.59,12.59,0,0,1-4.32-.68,4.93,4.93,0,0,1-.53-.22l-.48-.31a6,6,0,0,1-.86-.71A11.26,11.26,0,0,1,29,116.55a16.66,16.66,0,0,1-2.09-3.78,24.44,24.44,0,0,1-1.16-4.13,19.86,19.86,0,0,0,3.47,7.74A12.67,12.67,0,0,0,30.63,118a4.86,4.86,0,0,0,.82.68l.45.28c.16.08.33.14.5.21a12.4,12.4,0,0,0,4.2.61,46.57,46.57,0,0,0,8.49-1C47.89,118.23,50.66,117.54,53.4,116.76Z" fill="#2d2835"/><path d="M53.93,98.91a2.75,2.75,0,0,1-.43.27,29.85,29.85,0,0,0-3.68,2.22c-.44.52-.22.9-1,1.68a5.2,5.2,0,0,1-3.32,1.32,19.2,19.2,0,0,0-3.49.71,25.43,25.43,0,0,0-3.3,1.21,19.25,19.25,0,0,1-2.3,1.55A1.44,1.44,0,0,1,36,108h0c-.56,0-.53-.6-.28-.87s.61-.57,1.1-1,.62-.74,1.07-1a23,23,0,0,0,2.51-1.54,36.26,36.26,0,0,0-3.48,1.16c-.65.33-2.51,1.45-3.15,1.81a.7.7,0,0,1-.8,0,.72.72,0,0,1-.23-.86.06.06,0,0,0,0,0l.06-.1a1.05,1.05,0,0,1-.22.17,3.79,3.79,0,0,1-.7.35.67.67,0,0,1-.37,0,.7.7,0,0,1-.33-1.14c.33-.4,1.13-1.38,1.76-2.06a6.22,6.22,0,0,1,2.16-1.8c.71-.2,1.64-.69,3.73-1.34,0,0-2.62.3-4.33.46a24.23,24.23,0,0,1-4.29,1.25.92.92,0,0,1-.61-.23c-.29-.26-.24-.71.25-.93.73-.33,2.11-1.08,2.79-1.38a7.92,7.92,0,0,1,2.21-.92c.71,0,1.63-.24,2.84-.46a13.69,13.69,0,0,1,2.42-.3c.83,0,6.35.19,6.81-.14s1-.74,1.7-1.27l.44-.34c.16-.11.29-.22.43-.33S53.85,98.88,53.93,98.91Z" fill="url(#linear-gradient-15)"/><path d="M53.5,99.18a29.85,29.85,0,0,0-3.68,2.22c-.44.52-.22.9-1,1.68a5.2,5.2,0,0,1-3.32,1.32,19.2,19.2,0,0,0-3.49.71,25.43,25.43,0,0,0-3.3,1.21,19.25,19.25,0,0,1-2.3,1.55A1.44,1.44,0,0,1,36,108a4.73,4.73,0,0,0,1.26-.89,6.13,6.13,0,0,1,2-1.38,34.91,34.91,0,0,0,3.29-1.25,30.53,30.53,0,0,1,3.62-.62,4.24,4.24,0,0,0,3-2.62A16.66,16.66,0,0,1,50.69,100c-.95-.59-2-3-2.12-4.1a1.21,1.21,0,0,1,0-.27.7.7,0,0,1,.44-.07C50.15,95.66,52.12,97.63,53.5,99.18Z" fill="url(#linear-gradient-16)"/><path d="M40.83,103.35a3.52,3.52,0,0,0-.49.27,36.26,36.26,0,0,0-3.48,1.16c-.65.33-2.51,1.45-3.15,1.81a.7.7,0,0,1-.8,0,3.58,3.58,0,0,0,1.28-.59,16.82,16.82,0,0,1,3.25-1.86Z" fill="url(#linear-gradient-17)"/><path d="M35.81,103c-.07,0-1.89,1.48-1.89,1.48l-1.17,1.09a1.05,1.05,0,0,1-.22.17,3.79,3.79,0,0,1-.7.35.67.67,0,0,1-.37,0,2.85,2.85,0,0,0,1-.65c.67-.67,3.07-2.55,3.07-2.55C36.05,102.8,35.89,103,35.81,103Z" fill="url(#linear-gradient-18)"/><path d="M38.78,99.8s-2.62.3-4.33.46a24.23,24.23,0,0,1-4.29,1.25.92.92,0,0,1-.61-.23,4,4,0,0,0,1.48-.22,23.86,23.86,0,0,0,2.71-1,4.42,4.42,0,0,1,1.82-.21Z" fill="url(#linear-gradient-19)"/><path d="M39.74,101.17c-.66.39-1.33.75-2,1.1s-1.4.66-2,1-1.18.92-1.77,1.38c-.43.35-.85.69-1.27,1.07a.37.37,0,0,1,.07-.14,1.05,1.05,0,0,1-.22.17,12.64,12.64,0,0,1,1.23-1.31,21.51,21.51,0,0,1,1.74-1.52,19.45,19.45,0,0,1,2.1-1C38.31,101.7,39,101.42,39.74,101.17Z" fill="#b8784d"/><path d="M71.86,87a4.46,4.46,0,0,1-.6.81,5.6,5.6,0,0,1-.93.87C68,90.45,55.59,99.67,54,100.73a5,5,0,0,1-2.52-.7c-2-1.19-3.47-3.59-3.15-4.9l.37-.38.45-.47c3.36-3.42,10.62-10.43,10.9-10.64l-.13-.07a3.23,3.23,0,0,1-.53-.31,2.1,2.1,0,0,1-.92-1.59s0,0,0,0a1,1,0,0,0-.18-.35,1.29,1.29,0,0,0-.17-.16c-.16-.15-.37-.28-.59-.46a3.64,3.64,0,0,1-1-1.11c-.48-.87-3.14-2.91-5.61-4.56-.9-.59-1.79-1.14-2.53-1.55L48,73.24l0,0c-.24-.13-.46-.24-.64-.32s-.27-.38-.39-.58a1.74,1.74,0,0,0-.11-.18c-.12-.2-.23-.4-.33-.61s-.23-.49-.33-.74c0-.09-.08-.19-.11-.28a10.14,10.14,0,0,1-.51-4.89,8.08,8.08,0,0,1,.25-1.13,7.44,7.44,0,0,1,1.3-2.61,6.41,6.41,0,0,1,4.46-2.44c1.29.46,3.4,3.11,5.14,5.75a28.17,28.17,0,0,0,4.73,5.08c.21.19.34.29.34.29.2,0,.38.07.54.11A3.69,3.69,0,0,1,65,72.83a17.19,17.19,0,0,0,4.23,4c1.9,1.36,2.72,3.85,3.18,5.74A5.68,5.68,0,0,1,71.86,87Z" fill="url(#radial-gradient-12)"/><path d="M56.69,74.64A18.08,18.08,0,0,0,51,75c-.9-.59-1.79-1.14-2.53-1.55L48,73.24l0,0c-.24-.13-.46-.24-.64-.32s-.27-.38-.39-.58a1.74,1.74,0,0,0-.11-.18c-.12-.2-.23-.4-.33-.61a38.83,38.83,0,0,1,7.07.09c-2.05.3-4.51.6-5.33.86C50.07,73,55.78,74.3,56.69,74.64Z" fill="url(#linear-gradient-20)" style="mix-blend-mode:multiply"/><path d="M62.92,79.29c-1.65.6-3.19.68-4.46,2.35a1,1,0,0,0-.18-.35,1.29,1.29,0,0,0-.17-.16c-.16-.15-.37-.28-.59-.46A7.32,7.32,0,0,1,62.92,79.29Z" fill="url(#linear-gradient-21)" style="mix-blend-mode:multiply"/><path d="M66.72,82.21c-1.66,0-3.4-.88-6.8,1.36a3.23,3.23,0,0,1-.53-.31c1.76-2.16,3.75-4,7.81-3.16A11,11,0,0,0,60.73,83C63.41,81.48,65.12,81.16,66.72,82.21Z" fill="url(#linear-gradient-22)" style="mix-blend-mode:multiply"/><path d="M71.86,87a4.46,4.46,0,0,1-.6.81,5.6,5.6,0,0,1-.93.87C68,90.45,55.59,99.67,54,100.73a5,5,0,0,1-2.52-.7c3.67-2.27,13.92-9,13.92-9.17a11.75,11.75,0,0,1-2.21-.23c2.66-.85,5.73-4,5.38-5.21s-1.41-2.84-4.9-3.51a9.44,9.44,0,0,1,5.58.67c-.78-1.48-3.23-2.44-5-2.18,1.49-1,3.39-.82,3.73-1.33s-.46-1.53-1.87-2.27a71.83,71.83,0,0,0-8-3.07,11,11,0,0,1,2.54-.17c2,0,1.37-2.2-.1-2.49s-3.41-.68-5.74-1.07c1.15-.07,2.23-.5,1.33-1.41s-4.39-5.52-4.91-5.36a16.55,16.55,0,0,1-2.5.52c-.6.83-1.27,1.35-3.14,1.87l-.09,0c-.18,0,.05-.56.34-1.16s.7-1.34.7-1.34a5.35,5.35,0,0,0,.6-1.27,6.41,6.41,0,0,1,4.46-2.44c1.29.46,3.4,3.11,5.14,5.75a28.17,28.17,0,0,0,4.73,5.08c.21.19.34.29.34.29.2,0,.38.07.54.11A3.69,3.69,0,0,1,65,72.83a17.19,17.19,0,0,0,4.23,4c1.9,1.36,2.72,3.85,3.18,5.74A5.68,5.68,0,0,1,71.86,87Z" fill="url(#linear-gradient-23)" style="mix-blend-mode:multiply"/><circle cx="55.59" cy="98.3" r="0.91" fill="url(#radial-gradient-13)"/><path d="M51,69.28c-.58.26-1.17.51-1.78.72s-1.22.4-1.84.56a10.14,10.14,0,0,1-1.2.23c0-.09-.08-.19-.11-.28.41-.08.82-.18,1.23-.29l1.84-.47C49.77,69.59,50.38,69.42,51,69.28Z" fill="#2d2835"/><path d="M53.2,71.56l-1.87.22L49.47,72l-1.86.24-.65.07a1.74,1.74,0,0,0-.11-.18l.71-.18c.62-.12,1.24-.23,1.87-.31s1.25-.12,1.89-.14A16.86,16.86,0,0,1,53.2,71.56Z" fill="#2d2835"/><path d="M56.51,74.44,54,74.18l-2.48-.3-2.48-.34c-.21,0-.41-.05-.62-.09L48,73.24l0,0,1.09.06c.83.06,1.67.15,2.49.25s1.66.24,2.48.39S55.69,74.24,56.51,74.44Z" fill="#2d2835"/><path d="M62.33,70.67c-.48,0-1-.07-1.46-.08l-2.13-.14c-.72-.06-1.43-.13-2.13-.22.7,0,1.42,0,2.14,0s1.42,0,2.14,0l.56,0c.21.19.34.29.34.29C62,70.59,62.17,70.63,62.33,70.67Z" fill="#2d2835"/><path d="M59.16,73.88A11.94,11.94,0,0,1,60.5,74c.45.07.89.17,1.33.28s.87.25,1.29.39a10.65,10.65,0,0,1,1.25.53c-.44-.09-.88-.18-1.32-.29l-1.3-.32-1.3-.35C60,74.15,59.59,74,59.16,73.88Z" fill="#2d2835"/><path d="M62.92,79.29a5.39,5.39,0,0,0-1.6.29,7.15,7.15,0,0,0-1.47.65,11,11,0,0,0-1.36.89l-.21.17a1.29,1.29,0,0,0-.17-.16l.22-.21a8.34,8.34,0,0,1,1.34-1,5.92,5.92,0,0,1,1.58-.6A4.09,4.09,0,0,1,62.92,79.29Z" fill="#2d2835"/><path d="M60,83.58a6.08,6.08,0,0,1,1.7-1.13,7.17,7.17,0,0,1,2-.55,7.42,7.42,0,0,1,2.05.06,8,8,0,0,1,1,.25,6.41,6.41,0,0,1,.93.41,8.58,8.58,0,0,0-1-.24c-.33-.06-.66-.1-1-.13a9.15,9.15,0,0,0-2,0,9.58,9.58,0,0,0-1.92.45A10.23,10.23,0,0,0,60,83.58Z" fill="#2d2835"/><path d="M60.18,83.33a16.68,16.68,0,0,1,2-1.77,8.77,8.77,0,0,1,2.36-1.26,5.67,5.67,0,0,1,2.68-.2,3.87,3.87,0,0,1,2.32,1.26,4.26,4.26,0,0,0-2.36-1,6,6,0,0,0-2.52.28,9.7,9.7,0,0,0-2.31,1.13C61.59,82.27,60.9,82.81,60.18,83.33Z" fill="#2d2835"/><path d="M71.86,87a4.46,4.46,0,0,1-.6.81,11.16,11.16,0,0,1-1.15.79,11.47,11.47,0,0,1-2.08,1,10.86,10.86,0,0,1-2.22.53,20.72,20.72,0,0,0,2.13-.75,18.8,18.8,0,0,0,2-1A15.5,15.5,0,0,0,71.8,87S71.84,87,71.86,87Z" fill="#2d2835"/><path d="M55.38,91.93q-1,.5-2,1c-.69.31-1.38.61-2.08.89s-1.39.54-2.09.8l-.47.17.45-.47c.65-.29,1.31-.57,2-.84s1.39-.53,2.1-.79S54.66,92.15,55.38,91.93Z" fill="#2d2835"/><path d="M48,73.24,47.32,73h0a9.11,9.11,0,0,1-1.93-3.85,9.83,9.83,0,0,1,0-4.35A7.43,7.43,0,0,1,47.59,61c.3-.22.59-.45.89-.65a9.91,9.91,0,0,1,1-.47c.35-.1.7-.21,1.05-.28l1.06-.12a6.58,6.58,0,0,0-3.81,1.72,7.44,7.44,0,0,0-2,3.66,10,10,0,0,0,1.61,8.08h0Z" fill="#2d2835"/><path d="M26.61,84.78a2.75,2.75,0,0,0,.51,1.2c-.42,3.63-1.24,17.92-1.63,21.1s-.37,10.5-1.81,12.85-3.86,3-7.26,3.86c.16-2.12.61-11.11,1.44-16.41s2.4-13.06,2.91-15.84a27.31,27.31,0,0,0-.17-7.83l0-.32a11.16,11.16,0,0,0-.27-1.26,18.17,18.17,0,0,0-1.8-4c-.29-.54-.62-1.13-.91-1.75v0a7.53,7.53,0,0,1-.78-4.69c.51-2.62,2-4.48,2.61-5.56s1.87-5.85,3.52-7.21c.73-.28,3.91-1.75,5-2.1a11,11,0,0,1,2-.45S26.89,76.33,26.61,84.78Z" fill="url(#radial-gradient-14)"/><path d="M26.61,84.78a2.75,2.75,0,0,0,.51,1.2c-.42,3.63-1.24,17.92-1.63,21.1s-.37,10.5-1.81,12.85-3.86,3-7.26,3.86c.16-2.12.61-11.11,1.44-16.41s2.4-13.06,2.91-15.84a27.31,27.31,0,0,0-.17-7.83l0-.32a11.16,11.16,0,0,0-.27-1.26,18.17,18.17,0,0,0-1.8-4c-.29-.54-.62-1.13-.91-1.75v0a7.53,7.53,0,0,1-.78-4.69c.51-2.62,2-4.48,2.61-5.56s1.87-5.85,3.52-7.21c.73-.28,3.91-1.75,5-2.1a11,11,0,0,1,2-.45S26.89,76.33,26.61,84.78Z" fill="url(#radial-gradient-15)"/><circle cx="25.31" cy="87.58" r="0.91" fill="url(#radial-gradient-16)"/><circle cx="24.36" cy="101.03" r="0.91" fill="url(#radial-gradient-17)"/><path d="M23.65,78.44c-.56.87-1.66,2.91-3.35,3.69a18.17,18.17,0,0,0-1.8-4c-.29-.54-.62-1.13-.91-1.75C19.27,77.88,21.27,78.29,23.65,78.44Z" fill="url(#linear-gradient-24)" style="mix-blend-mode:multiply"/><path d="M17.94,76.8a7.66,7.66,0,0,0,.88.92,7.2,7.2,0,0,0,1,.73A6.94,6.94,0,0,0,21,79a7.94,7.94,0,0,0,1.23.34,3.64,3.64,0,0,1-1.31-.1,4.3,4.3,0,0,1-1.22-.5,4.36,4.36,0,0,1-1-.84A3.67,3.67,0,0,1,17.94,76.8Z" fill="#2d2836"/><path d="M22.93,58.88a8.1,8.1,0,0,0-1.78,2.81c-.46,1-.84,2.07-1.22,3.11a9.19,9.19,0,0,1-.67,1.54l-.88,1.43a13.45,13.45,0,0,0-1.38,3,6.64,6.64,0,0,0-.18,3.31A11.38,11.38,0,0,0,18,77.23c1,2,2.25,3.91,2.52,6.16-.4-2.23-1.69-4.08-2.77-6a10.85,10.85,0,0,1-1.29-3.18,6.92,6.92,0,0,1,.16-3.47A13.15,13.15,0,0,1,18.1,67.6L19,66.18a11.07,11.07,0,0,0,.67-1.47c.42-1,.83-2.08,1.32-3.1A8.32,8.32,0,0,1,22.93,58.88Z" fill="#2d2835"/><path d="M16.42,123.79a20.26,20.26,0,0,0,5-1.71,6.3,6.3,0,0,0,2-1.77,6.38,6.38,0,0,0,1-2.45c.73-3.49.72-7.07,1.07-10.61s.56-7.09.82-10.63.47-7.1.82-10.64c-.13,1.78-.19,3.55-.27,5.33l-.31,5.32c-.22,3.56-.38,7.1-.7,10.66s-.41,7.1-1.19,10.62a6.84,6.84,0,0,1-1,2.53,6.5,6.5,0,0,1-2.05,1.79A19.87,19.87,0,0,1,16.42,123.79Z" fill="#2d2835"/><path d="M40.27,61.43l-3.11,3.34L34,69.56,32.4,71.92l-1.2,2.83-.15.36-.95,2.24L30,77.5,29.4,79l-.13.3L28.56,81l-.14.36-1.58,3.73-2.1-5.5,0-.24,0-.23-.85-5.31-.05-.32-.22-1.39,2.7-9.5a6,6,0,0,1,2.27-3,1.92,1.92,0,0,1,.25-.12l5.84-.34c.17,0,4.59.86,4.59.86Z" fill="url(#radial-gradient-18)"/><path d="M34,69.56,32.4,71.92l-1.2,2.83-.15.36-.95,2.24L30,77.5,29.4,79l-.13.3L28.56,81l-.14.36-1.58,3.73-2.1-5.5,0-.24,0-.23-.85-5.31-.05-.32-.22-1.39,2.7-9.5a6,6,0,0,1,2.27-3A24.82,24.82,0,0,0,25.71,69c-.18,4,1.33,4.16,1.47,4.2-1,.5-1.76,1.26-.86,1.37a20.05,20.05,0,0,1,2.8.71c.48.15-1-1-1.32-1.19S29,73.87,30,73.62s2.4-2.77,2.4-3-3.76.16-5.39-.87c3.78-.07,5.47-.18,6.87-.82A2.93,2.93,0,0,1,34,69.56Z" fill="url(#linear-gradient-25)" style="mix-blend-mode:multiply"/><path d="M30.1,77.35,30,77.5l-.65-.3c-.38-.17-.77-.32-1.15-.46s-.77-.28-1.17-.41-.8-.24-1.2-.34a6,6,0,0,1,1.27.06,7.53,7.53,0,0,1,1.24.32,6.79,6.79,0,0,1,1.14.58A4.6,4.6,0,0,1,30.1,77.35Z" fill="#bf8193"/><path d="M31.2,74.75l-.15.36c-.33-.07-.66-.13-1-.22s-.79-.24-1.19-.37c.42,0,.83,0,1.24.08S30.84,74.69,31.2,74.75Z" fill="#bf8193"/><path d="M26.58,73.24l-1.09.24-1.08.21-.59.11-.05-.32.57-.13a8.54,8.54,0,0,1,1.12-.13A8.41,8.41,0,0,1,26.58,73.24Z" fill="#bf8193"/><path d="M29.4,79l-.13.3H29.2q-1-.07-2-.09a19.3,19.3,0,0,0-2,.08,3.88,3.88,0,0,0-.48,0l0-.23.48-.1a15.3,15.3,0,0,1,2-.17,14,14,0,0,1,2.05.15Z" fill="#bf8193"/><path d="M28.56,81l-.14.36L28,81.27l-1.21-.18A10.24,10.24,0,0,1,28,81,5.43,5.43,0,0,1,28.56,81Z" fill="#bf8193"/><path d="M27,69.79c.49.09,1,.16,1.46.22s1,.11,1.45.14,1,.07,1.46.07,1,0,1.47,0a8.75,8.75,0,0,1-1.46.27,9.25,9.25,0,0,1-1.49,0,8.28,8.28,0,0,1-1.48-.23A8.09,8.09,0,0,1,27,69.79Z" fill="#bf8193"/><path d="M26.84,85.08a79.89,79.89,0,0,1,7.48-17.75A64,64,0,0,1,39.2,60c.12-2.56,2.27-8.63,2.27-8.63.62.4,1.3.4,1.7,1.65a10.11,10.11,0,0,0,1.48,2.77c-.51,2.27-3.35,7.55-4.48,9.7-1,.11-3.41.28-3.41.28.68.63,2.1,2,2.1,2C34.72,73.11,30.24,78.78,26.84,85.08Z" fill="url(#radial-gradient-19)"/><path d="M44.65,55.81a15.8,15.8,0,0,1-.82,2.55c-.33.84-.66,1.67-1,2.48-.76,1.62-1.55,3.22-2.35,4.81l-.07.15H40.2l-2.68.25,1.59,1.53.22.21-.19.25-3.25,4.14c-1.07,1.38-2.13,2.78-3.16,4.18s-2.07,2.83-3,4.28-1.95,2.91-2.84,4.43c3.35-6.18,7.69-11.74,12-17.24l-1.79-1.75-.2-.2-.11-.1h.15l.3,0,3-.25c.83-1.58,1.67-3.15,2.45-4.75.39-.81.77-1.62,1.12-2.43A16.8,16.8,0,0,0,44.65,55.81Z" fill="#2d2835"/><path d="M33.08,53.32c-1,.51-3.9,2.65-5.18,3.45a77,77,0,0,0-4.37,6.82c.76.45,1.78,1.13,1.78,1.13C24.06,65.23,22.7,66,22.7,66c-1.08,5.11.85,14.18,4.42,20a60,60,0,0,1-1.87-16.39A20.5,20.5,0,0,1,28.77,59.5C31,57.91,33.87,54.79,33.08,53.32Z" fill="url(#radial-gradient-20)"/><path d="M23.32,76.31A33.61,33.61,0,0,0,27.12,86,31,31,0,0,1,23,76.38a34.92,34.92,0,0,1-.87-5.19,18.51,18.51,0,0,1,.23-5.3l0-.16.13-.06,2.13-1-1.28-.85-.23-.15.13-.21c.7-1.19,1.43-2.31,2.19-3.44s1.57-2.21,2.42-3.26c-.81,1.09-1.54,2.21-2.28,3.35s-1.43,2.29-2.09,3.47l1.47.93.17.11.13.09-.15.07-.17.09L22.7,66a16.56,16.56,0,0,0-.29,3.22c0,.66,0,1.32.08,2A34.61,34.61,0,0,0,23.32,76.31Z" fill="#2d2835"/><path d="M42.33,54.68A23.42,23.42,0,0,1,39.2,60c-2.89.84-8.73,1.07-10.43-.52.4-.53.82-1.06,1.3-1.67l.19-.25c.53-.65,1.14-1.38,1.9-2.24l.18-.21a6.15,6.15,0,0,0,.12-.69c0-.4.09-.82.13-1.28a30.42,30.42,0,0,0-.25-6c1.19-1,5.5-4.71,9.41-3.24-.11,1.68-.13,3.53-.07,5.25A23.77,23.77,0,0,0,42.33,54.68Z" fill="url(#linear-gradient-26)"/><path d="M39.2,60a20.58,20.58,0,0,1-5.3.65,15.92,15.92,0,0,1-2.67-.2,5.19,5.19,0,0,1-2.46-1A3.81,3.81,0,0,0,30,60a7.1,7.1,0,0,0,1.29.22,20.8,20.8,0,0,0,2.62.12c.88,0,1.76,0,2.64-.07S38.31,60.11,39.2,60Z" fill="#b8784d"/><path d="M41.68,49.15a24.19,24.19,0,0,1-9.09,4,30.42,30.42,0,0,0-.25-6c1.19-1,5.5-4.71,9.41-3.24C41.64,45.58,41.62,47.43,41.68,49.15Z" fill="url(#linear-gradient-27)" style="mix-blend-mode:darken"/><path d="M32.23,58.46c-.27-.08-.5-.18-.74-.26a2.82,2.82,0,0,0-.72-.18,6.66,6.66,0,0,1-.7-.19l.19-.25.6.09a1.88,1.88,0,0,1,.76.27A2.76,2.76,0,0,1,32.23,58.46Z" fill="#b8784d"/><path d="M33.86,58.55A2.66,2.66,0,0,1,35.27,58a11,11,0,0,1,1.51,0c.49,0,1,0,1.48,0s1,0,1.49-.07a8.27,8.27,0,0,1-1.47.35,9.56,9.56,0,0,1-1.51.08c-.5,0-1-.08-1.48-.07A3.23,3.23,0,0,0,33.86,58.55Z" fill="#b8784d"/><path d="M39.11,52.47a11.18,11.18,0,0,1-.56,1.22c-.21.39-.44.78-.69,1.15s-.52.73-.8,1.07a10.65,10.65,0,0,1-.91,1c.23-.38.48-.75.72-1.12l.74-1.1.74-1.1Z" fill="#b8784d"/><path d="M32.48,54.69a8.41,8.41,0,0,1,0,1.12,10.27,10.27,0,0,1-.17,1.09A5.46,5.46,0,0,1,32,58c0-.37.05-.73.08-1.09s.06-.75.1-1.1l0-.43.18-.21a6.15,6.15,0,0,0,.12-.69A2.11,2.11,0,0,1,32.48,54.69Z" fill="#b8784d"/><path d="M43.6,52.77c-.29,0-3,2.84-2.68,3s1.2,4.28,1.2,4.28l-2.47,2.28a9.08,9.08,0,0,0,.21,3.77c.07-.21.81-2,1.47-2.28s-.45,2.44-1.72,2.9c1,.93,3.68.34,4,0a2,2,0,0,1-.4,1.81,2.58,2.58,0,0,0,2.34-3c-.42-1.44.33-2,.33-2-.24,1.11,0,1.43,0,1.43.88,0,2.53-3,2.57-3.83s-.08-6.37-.21-6.59S43.6,52.77,43.6,52.77Z" fill="url(#linear-gradient-28)" style="mix-blend-mode:multiply"/><path d="M22.47,62c-.82,1-.75,3.49.68,3.53s2.22,1.27,2,1.8c1.07-.67,1.84-1.59,1.4-2.69a3.35,3.35,0,0,1-.24-2.54c0,.85.55,2.23,1.69,2.29s2.13,2.08,1.59,2.93a2.61,2.61,0,0,0,1.23-3.88c-1.07-1.66-1.67-3,.55-5.22A9.91,9.91,0,0,0,34,53.1l-.77-1.58Z" fill="url(#linear-gradient-29)" style="mix-blend-mode:multiply"/><path d="M49.66,43.56a12.18,12.18,0,0,0-3.47,5.72,5.57,5.57,0,0,0-.12,2.78,6.49,6.49,0,0,0,.45,1.28,9.76,9.76,0,0,0,.51.89c.16.23.42.53.35.83a.69.69,0,0,1-.1.19,1.69,1.69,0,0,1-.48.48,4,4,0,0,0-.46.46,3,3,0,0,0-1,2.34,4,4,0,0,0,1,2,1.83,1.83,0,0,1-.14,2.11c0,.06-.75,1-.79.93a6.45,6.45,0,0,1,1.23-.33c.1,0,.25,0,.37-.07a2.64,2.64,0,0,0,1.61-2.71c-.06-.54-1.09-1.89-.26-2.24a4.68,4.68,0,0,0,2.4-2.38,2.82,2.82,0,0,0-.39-2.44,7,7,0,0,0-1.49-1.33c-1.17-1-.84-3.4-.5-4.72a9.18,9.18,0,0,1,1.17-2.64c.15-.21,1.43-1.69,1.31-1.85S49.69,43.53,49.66,43.56Z" fill="url(#radial-gradient-21)"/><path d="M49.66,43.56a12.18,12.18,0,0,0-3.47,5.72,5.57,5.57,0,0,0-.12,2.78,6.49,6.49,0,0,0,.45,1.28,9.76,9.76,0,0,0,.51.89c.16.23.42.53.35.83a.69.69,0,0,1-.1.19,1.69,1.69,0,0,1-.48.48,4,4,0,0,0-.46.46,3,3,0,0,0-1,2.34,4,4,0,0,0,1,2,1.83,1.83,0,0,1-.14,2.11c0,.06-.75,1-.79.93a6.45,6.45,0,0,1,1.23-.33c.1,0,.25,0,.37-.07a2.64,2.64,0,0,0,1.61-2.71c-.06-.54-1.09-1.89-.26-2.24a4.68,4.68,0,0,0,2.4-2.38,2.82,2.82,0,0,0-.39-2.44,7,7,0,0,0-1.49-1.33c-1.17-1-.84-3.4-.5-4.72a9.18,9.18,0,0,1,1.17-2.64c.15-.21,1.43-1.69,1.31-1.85S49.69,43.53,49.66,43.56Z" fill="url(#linear-gradient-30)" style="mix-blend-mode:multiply"/><path d="M55.64,49l-.21.24A9,9,0,0,1,54,50.41l-.14.11a3,3,0,0,0-1.41,1.88,5.69,5.69,0,0,0,.64,2.4,4.52,4.52,0,0,1,.2,2.19,5.57,5.57,0,0,1-1,2.42s0,0,0,0a5.17,5.17,0,0,1-1.54,1.39c-1.48.86-3,.85-4.66,1.2a3.31,3.31,0,0,0-2.1,1,.89.89,0,0,0-.2.61,1.68,1.68,0,0,0,.57.93A2.11,2.11,0,0,1,43.64,68l-.18,0c.11-.07.42-.34.44-.36a2.34,2.34,0,0,0,.36-.88,1.72,1.72,0,0,0-.58-1.72,2.48,2.48,0,0,1-.8-1.25,2.1,2.1,0,0,1,.9-2.18,15,15,0,0,1,4.27-1.84c1.37-.46,3-1.29,2.89-3,0-.2-.11-.38-.12-.56-.2-.88-.75-1.64-1-2.51a4.76,4.76,0,0,1,0-2.54c.52-1.86,2.07-2.52,3.26-3.85a8.43,8.43,0,0,0,1.76-5.45,19.77,19.77,0,0,0-.33-5,5.61,5.61,0,0,0-.32-2.32c-.11-.58-.19-1.16-.25-1.74,0-.4,0-2,.53-1.07a17.74,17.74,0,0,1,.8,1.83A39.87,39.87,0,0,1,57.5,39.2,10.8,10.8,0,0,1,55.64,49Z" fill="url(#linear-gradient-31)"/><path d="M52.25,50.51a2.68,2.68,0,0,0-1,2.7,1.8,1.8,0,0,1-.57-1.93c-.63,1.1-.48,1.95.18,3.55A3.69,3.69,0,0,1,51,58a4.57,4.57,0,0,1-1.57,1.68A2.13,2.13,0,0,0,51.17,59a2.55,2.55,0,0,1-1.11,1.36,3.58,3.58,0,0,0,2.2-.88,5.17,5.17,0,0,1-1.54,1.39c-1.48.86-3,.85-4.66,1.2a3.31,3.31,0,0,0-2.1,1,.89.89,0,0,0-.2.61l-.88.18a2.1,2.1,0,0,1,.9-2.18,15,15,0,0,1,4.27-1.84c1.37-.46,3-1.29,2.89-3,0-.2-.11-.38-.12-.56-.2-.88-.75-1.64-1-2.51a4.76,4.76,0,0,1,0-2.54c.52-1.86,2.07-2.52,3.26-3.85a8.43,8.43,0,0,0,1.76-5.45,19.77,19.77,0,0,0-.33-5,5.61,5.61,0,0,0-.32-2.32c-.11-.58-.19-1.16-.25-1.74,0-.4,0-2,.53-1.07a17.74,17.74,0,0,1,.8,1.83A39.87,39.87,0,0,1,57.5,39.2,10.8,10.8,0,0,1,55.64,49,18.91,18.91,0,0,1,54,50.41l-.14.11-.11.07a2.78,2.78,0,0,0-1.77,2A2.58,2.58,0,0,1,52.25,50.51Z" fill="url(#linear-gradient-32)" style="mix-blend-mode:multiply"/><path d="M25.16,66.74a.15.15,0,0,0,.07,0C25.21,66.75,25.18,66.77,25.16,66.74Z" fill="url(#linear-gradient-33)"/><path d="M25.23,66.69a1.91,1.91,0,0,0,.2-.78,1,1,0,0,0-.81-.69c-.66-.22-1.37-.1-2-.34-1.54-.58-.81-2.37-.21-3.42.19-.46.25-.49-.11-.82-.18-.16-.41-.29-.59-.45a3.36,3.36,0,0,1-.85-4.83c.15-.24,1.69-1.89,1.63-2a.32.32,0,0,0,0-.14,5.26,5.26,0,0,0-.62-1.59A11.81,11.81,0,0,1,21,49.23a9.29,9.29,0,0,1,.3-4.76,10,10,0,0,1,1.26-2.61,32.34,32.34,0,0,1,4-4.49s.95-.95,1.07-.87-.67,1.42-.79,1.63a14,14,0,0,0-1.35,3.12c-.12.44-.24.88-.33,1.31a11.78,11.78,0,0,0-.28,4.88,8.64,8.64,0,0,0,.75,2.14h0a8.12,8.12,0,0,1,1.09,3.6A4.45,4.45,0,0,1,25.67,56a5.69,5.69,0,0,1-.9.87c-.06.05-.22.23-.39.38h0c-.16.13-.3.26-.36.25a.46.46,0,0,0,0,.67h0l0,0a8.29,8.29,0,0,1,1.21,1.57A1.89,1.89,0,0,1,25.43,61c-.16.91-1,1.49-1.49,2.22-.69,1,.42.9,1.1,1.44C25.56,65.07,26,66.34,25.23,66.69Z" fill="url(#linear-gradient-34)"/><path d="M25.64,49.59a9.31,9.31,0,0,1,1.08,3.21,4.44,4.44,0,0,1-1,3.16,7.2,7.2,0,0,0,.57-1.56,4.91,4.91,0,0,0,.12-1.57,6.85,6.85,0,0,0-.29-1.58C25.93,50.72,25.74,50.17,25.64,49.59Z" fill="#4d352a"/><path d="M25.23,66.69a1.91,1.91,0,0,0,.2-.78,1,1,0,0,0-.81-.69c-.66-.22-1.37-.1-2-.34-1.54-.58-.81-2.37-.21-3.42.19-.46.25-.49-.11-.82-.18-.16-.41-.29-.59-.45a3.36,3.36,0,0,1-.85-4.83c.15-.24,1.69-1.89,1.63-2a.32.32,0,0,0,0-.14,5.26,5.26,0,0,0-.62-1.59A11.81,11.81,0,0,1,21,49.23a9.29,9.29,0,0,1,.3-4.76,10,10,0,0,1,1.26-2.61,32.34,32.34,0,0,1,4-4.49s.95-.95,1.07-.87-.67,1.42-.79,1.63a14,14,0,0,0-1.35,3.12c-.12.44-.24.88-.33,1.31l.47,7h0l.14,2.16a6.19,6.19,0,0,1-.89,4.65,8.51,8.51,0,0,0-.51.81h0a3.49,3.49,0,0,0-.4.92h0a1.47,1.47,0,0,0,0,.27,2.64,2.64,0,0,1-.29-3.1,2.47,2.47,0,0,0-.53-2.82,2.42,2.42,0,0,1-.69,2.2c-.5.31-.47,1.45-.37,1.86-.44,0-.83-.59-.69-1.18a2.92,2.92,0,0,0-.26,2.86c.43.77,1.34,1.49,1.44,1.75a8.13,8.13,0,0,0-.4-1.73c.39.17,1.37.91,1.43,1.63a12.9,12.9,0,0,1-.84,2.82c-.18.75.08,1.28.47,1.44a1.69,1.69,0,0,1,.43-1.92,7.73,7.73,0,0,0,1.58-2.47A1.89,1.89,0,0,1,25.43,61c-.16.91-1,1.49-1.49,2.22-.69,1,.42.9,1.1,1.44C25.56,65.07,26,66.34,25.23,66.69Z" fill="url(#linear-gradient-35)" style="mix-blend-mode:multiply"/><path d="M24.63,64.66l.16,0C24.74,64.68,24.69,64.7,24.63,64.66Z" fill="url(#linear-gradient-36)"/><path d="M29.56,58.23a2.18,2.18,0,0,1-.26.87c-.7,1.23-2.56.71-3.67,1.56-.11.12-.4.16-.43.38a1.43,1.43,0,0,0-.06.53v0c.08,1,.76,2.65-.34,3a2,2,0,0,0,.33-.76,2.08,2.08,0,0,0-.33-1.29,6.07,6.07,0,0,1-.52-1.3,1.52,1.52,0,0,1,.3-1.59c.7-.81,1.6-.81,2.48-1.26,1.07-.56-.5-1.52-1-2a2.26,2.26,0,0,1-.35-3c.68-.84,1.88-1.17,2.68-1.89a3.51,3.51,0,0,0,1.36-3.27c-.23-1.13-.7-2.25-1-3.37a12.33,12.33,0,0,1,.58-7.31,17.2,17.2,0,0,1,5.21-7.26s1.12-.8,1.2-.67-1.92,2-2.08,2.24a19.44,19.44,0,0,0-2,3.29,13,13,0,0,0-1.12,3,9.84,9.84,0,0,0,0,4.45c.52,2.29,2.21,4.24,1.93,6.69a6.12,6.12,0,0,1-1.67,3.42A7.45,7.45,0,0,1,29.42,54a11.45,11.45,0,0,0-1.25.66c-.72.22.2.94.43,1.19a6.4,6.4,0,0,1,.4.51c.05.09.12.18.16.27.15.28.24.54.31.7s0,.06,0,.08a.24.24,0,0,0,0,.08A2.83,2.83,0,0,1,29.56,58.23Z" fill="url(#linear-gradient-37)"/><path d="M28.6,55.82a2.5,2.5,0,0,1,.4.51c.05.09.12.18.16.27.15.28.24.54.31.7s0,.06,0,.08a.24.24,0,0,0,0,.08,5.87,5.87,0,0,0-1.74-1.56,5.45,5.45,0,0,1,1,1.56,7.89,7.89,0,0,0-1.26-1.24c.15.62.4,1.73.05,2.15a3.59,3.59,0,0,1-1.53.91c.43.3,2.14-.33,2.38-.71a1.19,1.19,0,0,1-.76.91,2.16,2.16,0,0,0,1.66-.38c-.7,1.23-2.56.71-3.67,1.56-.11.12-.4.16-.43.38a1.43,1.43,0,0,0-.06.53,1.83,1.83,0,0,1-.19-1A2.3,2.3,0,0,0,24.86,62a1.91,1.91,0,0,1-.37-1.21,3.19,3.19,0,0,0-.2.53,1.52,1.52,0,0,1,.3-1.59c.7-.81,1.6-.81,2.48-1.26,1.07-.56-.5-1.52-1-2a2.26,2.26,0,0,1-.35-3c.68-.84,1.88-1.17,2.68-1.89a3.51,3.51,0,0,0,1.36-3.27c-.23-1.13-.7-2.25-1-3.37a12.33,12.33,0,0,1,.58-7.31c.18-.16.62.12,1.2.65a9.84,9.84,0,0,0,0,4.45c.52,2.29,2.21,4.24,1.93,6.69a6.12,6.12,0,0,1-1.67,3.42A7.45,7.45,0,0,1,29.42,54a11.45,11.45,0,0,0-1.25.66C27.45,54.85,28.37,55.57,28.6,55.82Z" fill="url(#linear-gradient-38)" style="mix-blend-mode:multiply"/><path d="M29.55,58.23a3.18,3.18,0,0,0-.8-1.86c-.11-.13-.23-.25-.35-.37l-.4-.35a1.59,1.59,0,0,1-.38-.54.57.57,0,0,1,.08-.55.8.8,0,0,1,.38-.25l-.11.06a4,4,0,0,1,.85-.49,4.27,4.27,0,0,0,.71-.42,7.66,7.66,0,0,0,3-4.13,6.06,6.06,0,0,1-1.48,3.21,7.28,7.28,0,0,1-1.33,1.21c-.46.39-1.08.52-1.56.88h0c-.17,0-.34.2-.26.38a1.49,1.49,0,0,0,.3.44,4.83,4.83,0,0,1,.71.79A2.87,2.87,0,0,1,29.55,58.23Z" fill="#4d352a"/><path d="M29.81,66.83A.37.37,0,0,0,30,66.7C29.93,66.81,29.87,66.87,29.81,66.83Z" fill="url(#linear-gradient-39)"/><path d="M36.54,42.44c0,.05-.43,0-.41,0a21.66,21.66,0,0,0-4.83,2c-.17.08-.32.17-.49.27-1.54.89-3.53,2.33-2.39,4.3a9,9,0,0,0,1.11,1.28,3.17,3.17,0,0,1,.7,2.61A4.28,4.28,0,0,1,29,55.25a20.47,20.47,0,0,0-1.9,1.56c-.49.43.26.76.53.94.09.09.18.11.28.25a2.57,2.57,0,0,1,1.3,2.38c-.08.63-.59,1.1-.7,1.66-.11.33.47.86.68,1.06s.3.21.44.33h0a2.44,2.44,0,0,1,1.1,1.51,1.88,1.88,0,0,1-.2,1.21,5.44,5.44,0,0,1-.52.55,5.12,5.12,0,0,0,.33-1.56c-.17-.78-.88-1.07-1.54-1.37a2.61,2.61,0,0,1-2-2c0-.47.51-1.42-.17-1.62a3.3,3.3,0,0,1-2.75-3.75,4.73,4.73,0,0,1,1.57-2.53c.12-.12,1.58-1.27,1.38-1.51a.21.21,0,0,0-.07-.15,5.48,5.48,0,0,1-.37-7.17,8.39,8.39,0,0,1,4-2.53,10.2,10.2,0,0,1,4.78-.75l.3.07A7.07,7.07,0,0,1,36.54,42.44Z" fill="url(#linear-gradient-40)"/><path d="M28.42,49a9,9,0,0,0,1.11,1.28,3.17,3.17,0,0,1,.7,2.61A4.28,4.28,0,0,1,29,55.25a20.47,20.47,0,0,0-1.9,1.56c-.49.43.26.76.53.94.09.09.18.11.28.25a2.57,2.57,0,0,1,1.3,2.38c-.08.63-.59,1.1-.7,1.66-.11.33.47.86.68,1.06s.3.21.44.33c-2.11-.83-1.5-2.14-1.31-2.91a1.83,1.83,0,0,0-.73-2.15c-.85-.69-1.58-1.13-1.63-1.72-.21.28.18,1.53.73,2a3.13,3.13,0,0,1-1.88-1.8c-.2-.94,1-2,2-2.86s1.35-1.72.94-2.14a7.71,7.71,0,0,1-1.54-3.76s4.68-4.36,4.87-4.38a3.58,3.58,0,0,1,.23.78c-.17.08-.32.17-.49.27C29.27,45.63,27.28,47.07,28.42,49Z" fill="url(#linear-gradient-41)" style="mix-blend-mode:multiply"/><path d="M29.17,60.38a2.16,2.16,0,0,0-.39-1.32,3.82,3.82,0,0,0-1-.9l0,0,0,0c-.06-.08-.11-.09-.27-.21v0a3.55,3.55,0,0,1-.58-.38.62.62,0,0,1-.23-.46.71.71,0,0,1,.24-.48l0,0a7.28,7.28,0,0,1,1.48-1.29A4.36,4.36,0,0,0,29.48,54a3.14,3.14,0,0,0,0-3.24c-.3-.48-.83-.85-1.23-1.46a2.48,2.48,0,0,1-.29-2,3.31,3.31,0,0,1,1.22-1.57,10.18,10.18,0,0,1,1.65-1,10.33,10.33,0,0,0-1.56,1.08,3.38,3.38,0,0,0-1.09,1.52,2.22,2.22,0,0,0,.33,1.82c.35.53.89.9,1.24,1.43a3.35,3.35,0,0,1,0,3.6,4.69,4.69,0,0,1-1.24,1.42,7.42,7.42,0,0,0-1.47,1.2h0a.47.47,0,0,0-.16.28.43.43,0,0,0,.15.29,3,3,0,0,0,.54.37h0a1.68,1.68,0,0,1,.29.25h0a3.37,3.37,0,0,1,1,1A2.13,2.13,0,0,1,29.17,60.38Z" fill="#4d352a"/><path d="M26.4,45.07A5.79,5.79,0,0,0,27,52L27,52a.5.5,0,0,1,.2.43l-.08-.23a.45.45,0,0,1,0,.5.78.78,0,0,1-.12.19,3.48,3.48,0,0,1-.24.28c-.16.16-.32.3-.49.45-.35.28-.69.5-1,.79a5,5,0,0,0-1.4,2,4.59,4.59,0,0,1,1.23-2.21c.29-.31.64-.57,1-.85.16-.15.31-.29.46-.45s.34-.31.3-.53h0a.16.16,0,0,0-.07-.14h0a5.7,5.7,0,0,1-1.53-3.53A5.36,5.36,0,0,1,26.4,45.07Z" fill="#4d352a"/><path d="M44.68,64.13a2.86,2.86,0,0,1-.22.47,3.25,3.25,0,0,1-.87,1,3.41,3.41,0,0,1-1.34.65,13.42,13.42,0,0,1-2.76,0,9.9,9.9,0,0,0,1.57-.77,4.48,4.48,0,0,0,1.37-1.27C43.21,63,42,62,41.51,60.94a3.46,3.46,0,0,1,.39-3.58,4.7,4.7,0,0,1,1.53-1.24c.19-.09.82-.25.88-.53.13-.66-1.59-1.66-2-2a4.87,4.87,0,0,1-.91-7A5.16,5.16,0,0,1,45,45.14c1.2-.09,2.51,0,3.29-1.14.92-1.29.21-2.68,0-4,0,0,0-1.55.3-1.4a1.9,1.9,0,0,0,.23,1.24A6.62,6.62,0,0,1,50,43.18a4,4,0,0,1-1.59,3.33,8.79,8.79,0,0,1-3.64,1c-1.07.16-2.36.86-2,2.18.07.47.82.79,1.16,1a13.28,13.28,0,0,1,1.49,1,7.2,7.2,0,0,1,1.9,2.24,3.33,3.33,0,0,1,.3,3.17,2.7,2.7,0,0,1-1,1.06s0,0,0,0a7.79,7.79,0,0,1-1.39.57,2.89,2.89,0,0,0-.65.27c-.61.35-.7.83-.31,1.72A4.52,4.52,0,0,1,44.68,64.13Z" fill="url(#linear-gradient-42)"/><path d="M44.1,62.78a3.33,3.33,0,0,1-.7,1.76A4,4,0,0,0,43.46,63a4.08,4.08,0,0,1-2.08,2.47c.42.19,1.47-.42,1.47-.42a4.49,4.49,0,0,1-.71.76c.43-.08,1-.13,1.45-.19a3.41,3.41,0,0,1-1.34.65,13.42,13.42,0,0,1-2.76,0,9.9,9.9,0,0,0,1.57-.77,4.48,4.48,0,0,0,1.37-1.27C43.21,63,42,62,41.51,60.94a3.46,3.46,0,0,1,.39-3.58,4.7,4.7,0,0,1,1.53-1.24c.19-.09.82-.25.88-.53.13-.66-1.59-1.66-2-2a4.87,4.87,0,0,1-.91-7A5.16,5.16,0,0,1,45,45.14c1.2-.09,2.51,0,3.29-1.14.92-1.29.21-2.68,0-4,0,0,0-1.55.3-1.4a1.9,1.9,0,0,0,.23,1.24A6.62,6.62,0,0,1,50,43.18a4,4,0,0,1-1.59,3.33,8.79,8.79,0,0,1-3.64,1c-1.07.16-2.36.86-2,2.18.07.47.82.79,1.16,1a13.28,13.28,0,0,1,1.49,1,7.2,7.2,0,0,1,1.9,2.24,3.33,3.33,0,0,1,.3,3.17,2.7,2.7,0,0,1-1,1.06s0,0,0,0a5.42,5.42,0,0,0-1.92.33.7.7,0,0,0-.12.51c-.61.35-.7.83-.31,1.72a4.52,4.52,0,0,1,.5,3.44,2.86,2.86,0,0,1-.22.47A4.18,4.18,0,0,0,44.1,62.78Z" fill="url(#linear-gradient-43)" style="mix-blend-mode:multiply"/><path d="M44.68,64.13a3.29,3.29,0,0,0-.21-2.27c-.14-.36-.31-.71-.48-1.06a2.09,2.09,0,0,1-.26-1.29,1.5,1.5,0,0,1,1-1c.4-.17.75-.26,1.1-.41a2.67,2.67,0,0,0,1.53-1.37,2.78,2.78,0,0,0-.08-2,6.43,6.43,0,0,0-1.14-1.92,6.8,6.8,0,0,0-.81-.8c-.29-.24-.63-.45-.94-.68s-.61-.46-.95-.65-.77-.43-.89-1v0a1.73,1.73,0,0,1,0-.93,1.69,1.69,0,0,1,.55-.73,3.21,3.21,0,0,1,1.61-.58,3.09,3.09,0,0,0-1.54.66,1.47,1.47,0,0,0-.47,1.53h0c.08.4.48.61.81.81s.67.42,1,.63.66.42,1,.67a6.59,6.59,0,0,1,.85.82,6.8,6.8,0,0,1,1.23,2,3,3,0,0,1,.06,2.3,2.92,2.92,0,0,1-1.72,1.53c-.36.15-.75.25-1.12.39a1.23,1.23,0,0,0-.84.76,1.89,1.89,0,0,0,.21,1.14c.16.37.31.73.44,1.1A3.43,3.43,0,0,1,44.68,64.13Z" fill="#4d352a"/><path d="M41.41,46.58a4,4,0,0,0-.81,2,5.3,5.3,0,0,0,.08,2.1,5.15,5.15,0,0,0,2.56,3.16,6.71,6.71,0,0,1,.89.74,2.22,2.22,0,0,1,.4.52.79.79,0,0,1,.11.4.54.54,0,0,1,0,.29.58.58,0,0,1-.16.21c-.44.34-.78.33-1,.52a5.54,5.54,0,0,0-.85.58,3.47,3.47,0,0,0-1,3.85,3.66,3.66,0,0,1-.26-2.16,3.59,3.59,0,0,1,1.09-1.89,4.36,4.36,0,0,1,.88-.65c.31-.21.7-.25,1-.49s.1-.36,0-.51a2,2,0,0,0-.34-.43,6.34,6.34,0,0,0-.86-.69,5.3,5.3,0,0,1-2.62-3.4A4.82,4.82,0,0,1,41.41,46.58Z" fill="#4d352a"/><path d="M49.2,40.35a23.36,23.36,0,0,0,.86,2.93c.37,1,1.2,1.93,1.25,3A5.68,5.68,0,0,1,50,49.43,4.88,4.88,0,0,1,47.13,51c-2.18.61-4.41,1.23-6.1,2.83s-.79,3.75.2,5.54l0,0c.22.25.14.49-.06.72-.3.46-1,.76-1.44,1.12a3.27,3.27,0,0,0-1.17,1.89c-.15,1,.75,2.16,1.27,3-.24.11-.26-2-.17-2.19a4.6,4.6,0,0,1,.57-1,5.35,5.35,0,0,1,1.3-.78,4.21,4.21,0,0,0,2-1.67,2.75,2.75,0,0,0-.22-2.27c-.17-.45-.36-.89-.56-1.33-.09-.2-.52-.83-.44-1,0-.69,2.06-1.49,2.58-1.7,1-.42,2.14-.62,3.19-1a7.76,7.76,0,0,0,4.57-4.84c.73-2,.06-3.44-1.1-5.08a21.18,21.18,0,0,1-1.38-2A20.29,20.29,0,0,0,49.07,39C48.93,39,49.19,40.31,49.2,40.35Z" fill="url(#linear-gradient-44)"/><path d="M43.58,60.55a1.83,1.83,0,0,0,.06-1.2,6,6,0,0,0-.45-1.13c-.18-.37-.36-.73-.53-1.11-.07-.17-.2-.33-.3-.52a2.69,2.69,0,0,1-.16-.29.69.69,0,0,1-.06-.47v.07a1.15,1.15,0,0,1,.43-.72,4.65,4.65,0,0,1,.57-.42,11.67,11.67,0,0,1,1.21-.64,16.33,16.33,0,0,1,2.55-.87,7.68,7.68,0,0,0,4.24-2.67,8.73,8.73,0,0,0,1.24-2.24,4.21,4.21,0,0,0,.29-2.45c-.35-1.66-1.65-3-2.44-4.62.86,1.54,2.25,2.81,2.67,4.57a4.32,4.32,0,0,1-.23,2.61,8.9,8.9,0,0,1-1.26,2.33,7.27,7.27,0,0,1-2,1.79,9.36,9.36,0,0,1-2.45,1,16,16,0,0,0-2.53.84,8.78,8.78,0,0,0-1.19.59c-.36.23-.81.46-.91.91h0c0,.42.33.75.48,1.12l.48,1.14a7,7,0,0,1,.39,1.17A1.87,1.87,0,0,1,43.58,60.55Z" fill="#4d352a"/><path d="M45.41,27.48c1.07-1.88,2.75-3.07,4-3.11a2.25,2.25,0,0,1,2.05,2.46c-.14,1.12,0,3-.1,4a5.24,5.24,0,0,1-1.3,2.89c-.78,1-1.22,1.79-1.78,2.45a2.4,2.4,0,0,1-2.88.34C44.31,33.22,45.16,28.38,45.41,27.48Z" fill="url(#linear-gradient-45)"/><path d="M45.41,27.48c1.07-1.88,2.75-3.07,4-3.11a2.25,2.25,0,0,1,2.05,2.46c-.14,1.12,0,3-.1,4a5.24,5.24,0,0,1-1.3,2.89c-.78,1-1.22,1.79-1.78,2.45a2.4,2.4,0,0,1-2.88.34C44.31,33.22,45.16,28.38,45.41,27.48Z" fill="url(#linear-gradient-46)" style="mix-blend-mode:darken"/><path d="M49.84,28.57c-.08-1.25-.36-1.76-.91-1.85S47.34,28,47.26,29s-.19,1.3.21,1.61a2.49,2.49,0,0,1,.58,2,1.78,1.78,0,0,1-1.39,1.6c1.4.34,1.7-.72,2.13-1.33A6,6,0,0,0,49.84,28.57Z" fill="url(#linear-gradient-47)" style="mix-blend-mode:darken"/><path d="M49.44,27.28a.41.41,0,0,0-.4-.39.94.94,0,0,0-.59.23,2.82,2.82,0,0,0-.71.95,5.69,5.69,0,0,0-.41,1.09,1.46,1.46,0,0,0,.17,1.16,1.8,1.8,0,0,1,.11-1.08c.12-.33.31-.67.47-1a4.08,4.08,0,0,1,.55-.93A.76.76,0,0,1,49,27,.36.36,0,0,1,49.44,27.28Z" fill="#b8784d"/><path d="M47.05,30.07a6,6,0,0,1,.69,1,2.08,2.08,0,0,1,.18,1.15,2.36,2.36,0,0,1-.37,1.08,2.82,2.82,0,0,1-.89.82,1.89,1.89,0,0,0,1.14-.63,2,2,0,0,0,.5-1.25A2.21,2.21,0,0,0,48,31,3.75,3.75,0,0,0,47.05,30.07Z" fill="#b8784d"/><path d="M48.38,28.89a2.08,2.08,0,0,1,.57.79,2.24,2.24,0,0,1,.14.92,2.69,2.69,0,0,1-.19.91,2,2,0,0,1-.52.81,1.41,1.41,0,0,0,.78-.68,2.2,2.2,0,0,0,.3-1,2,2,0,0,0-.3-1A1.71,1.71,0,0,0,48.38,28.89Z" fill="#b8784d"/><path d="M45.35,21.19c.31,4.94.47,11.61.3,14.17S45.31,40.25,44,42a12.7,12.7,0,0,1-2.61,2.35A48.83,48.83,0,0,1,36,47.58a31.33,31.33,0,0,1-3.39,1.53,14,14,0,0,1-4.61,1,3.86,3.86,0,0,1-1.28-.29h0a4.25,4.25,0,0,1-2-1.84c-.58-1.07-1.64-2.48-2.84-4.27l0,0a25.13,25.13,0,0,1-3.24-6.27,14.08,14.08,0,0,1-.33-4.15c0-.43,0-.84.06-1.21a9.68,9.68,0,0,0,0-1.4,6.43,6.43,0,0,0-.51-1.7A14.17,14.17,0,0,1,17,24.16c.06-1.25-.09-3.22.11-6.72.07-1.3.28-6.46,4.43-9.92A15,15,0,0,1,30,4.37a12.65,12.65,0,0,1,7.33,1.31C43.47,9,45.11,17.43,45.35,21.19Z" fill="url(#radial-gradient-22)"/><circle cx="25.33" cy="36.69" r="3.25" fill="url(#radial-gradient-23)" style="mix-blend-mode:darken"/><circle cx="37.55" cy="37.67" r="6.12" opacity="0.3" fill="url(#Rona_Pipi)" style="mix-blend-mode:darken"/><path d="M24.92,38.25a5.58,5.58,0,0,1-3,5.5l0,0a25.13,25.13,0,0,1-3.24-6.27,14.08,14.08,0,0,1-.33-4.15l.53-.08A5.61,5.61,0,0,1,24.92,38.25Z" opacity="0.3" fill="url(#Rona_Pipi-2)" style="mix-blend-mode:darken"/><path d="M25.51,26.75a4.38,4.38,0,1,1-7-3.11C19.93,24.15,25.29,24.33,25.51,26.75Z" fill="url(#radial-gradient-24)"/><path d="M32.62,49.1A32.09,32.09,0,0,0,37.14,47a46.28,46.28,0,0,0,4.24-2.65,13.66,13.66,0,0,1-1.94,1.62c-.68.49-1.41.91-2.13,1.34s-1.48.78-2.27,1.1A12,12,0,0,1,32.62,49.1Z" fill="#b8784d"/><path d="M34,26.46a5.06,5.06,0,1,1-9.39-2.09c.8-1.35,3.42,0,7.08-1.7A5,5,0,0,1,34,26.46Z" fill="url(#radial-gradient-25)" style="mix-blend-mode:darken"/><path d="M45.35,21.19c.31,4.94.47,11.61.3,14.17S45.31,40.25,44,42a12.7,12.7,0,0,1-2.61,2.35A48.83,48.83,0,0,1,36,47.58a31.33,31.33,0,0,1-3.39,1.53,14,14,0,0,1-4.61,1,3.86,3.86,0,0,1-1.28-.29,15,15,0,0,0,2,0c2-.15,4-1.14,8.15-4,5.73-3.92,6.14-7.35,6-13.35C37.32,28,32.13,20.92,29.73,17.85S26.11,14.42,23,14.57c-3.54,1.09-4.87,5.73-4.61,9.06a48.62,48.62,0,0,1,0,7,6.43,6.43,0,0,0-.51-1.7A14.17,14.17,0,0,1,17,24.16c.06-1.25-.09-3.22.11-6.72.07-1.3.28-6.46,4.43-9.92C27.18,6.81,33.64,6,37.28,5.68,43.47,9,45.11,17.43,45.35,21.19Z" fill="url(#linear-gradient-48)" style="mix-blend-mode:darken"/><path d="M22.9,14.29a3.69,3.69,0,0,0-2.32.85,9.06,9.06,0,0,0-3.29,6.51c-.4,4.59-.63,7.88-1.34,10.07a6.47,6.47,0,0,0,1.93,6.81c-3.74-1.85-3.53-5.36-3.21-7.53s-.32-5.83-.31-10.59A19.85,19.85,0,0,1,17,10.7a14.58,14.58,0,0,1,.89-1.44h0q.54-.81,1.08-1.5C21.12,5,25.92.33,32.22.2,33.5,5.78,25.3,13.08,22.9,14.29Z" fill="url(#radial-gradient-26)"/><path d="M20.58,15.14a3.58,3.58,0,0,1-2.72-2,6.55,6.55,0,0,1-1.12.19A24.9,24.9,0,0,1,17,10.7a14.58,14.58,0,0,1,.89-1.44c-.13,1.1-.09,2.09-.12,2.77l1.1-.4A3.42,3.42,0,0,0,20.58,15.14Z" opacity="0.7" fill="url(#radial-gradient-27)" style="mix-blend-mode:screen"/><path d="M22.9,14.29a3.75,3.75,0,0,0-2.32.86A7.31,7.31,0,0,0,18.87,17a10.1,10.1,0,0,0-1.59,4.74c-.15,1.67-.28,3.35-.45,5a27.69,27.69,0,0,1-.87,5,17.39,17.39,0,0,0,.37-2.49c.1-.83.17-1.66.22-2.5l.37-5a10.14,10.14,0,0,1,1.72-4.86A7.57,7.57,0,0,1,20.47,15,3.89,3.89,0,0,1,22.9,14.29Z" fill="#4d352a"/><path d="M24.36,30.88A4.8,4.8,0,0,0,22,27.06a3.64,3.64,0,0,0-3.88.27c-.94.68-1.78,1.64-2.68,1.38A3.32,3.32,0,0,0,18,30a2,2,0,0,0,1.51,1.39,8.82,8.82,0,0,0,1.38-.08,11.44,11.44,0,0,0,2.39-.19c.22-.56.52-.61.52-.61Z" fill="url(#radial-gradient-28)"/><path d="M18.28,28.52a2.06,2.06,0,0,0,.81,2.39c.7.49,1.22.24,2.13.27a8.63,8.63,0,0,0,3.14-.3,3.9,3.9,0,0,0-2.79-3.46C20.33,27,18.6,27.26,18.28,28.52Z" fill="url(#Gradient_Eye)"/><g clip-path="url(#clip-path)"><circle cx="22.48" cy="29.2" r="2.23" fill="url(#radial-gradient-29)"/><circle cx="22.48" cy="29.2" r="1.54" fill="#222223"/><circle cx="22.47" cy="28.75" r="0.4" fill="#fff"/><circle cx="21.3" cy="30.32" r="0.2" fill="#fff"/></g><path d="M18.31,28.9c.34-1.1,2.07-1.34,3.31-1a3.44,3.44,0,0,1,2.73,3h0a3.9,3.9,0,0,0-2.79-3.46c-1.24-.41-3-.16-3.29,1.1a2.65,2.65,0,0,0-.07,1A2.29,2.29,0,0,1,18.31,28.9Z" fill="url(#linear-gradient-49)" style="mix-blend-mode:multiply"/><path d="M28.8,30.26a6.31,6.31,0,0,1-1.35,4.19,1.56,1.56,0,0,1,.89,1.35,1.45,1.45,0,0,1-.94,1.38c-.67.1-1.09-.35-1.89.1a2.55,2.55,0,0,1-2.39,0,1.54,1.54,0,0,1-.51-.41h0l0,0a1.37,1.37,0,0,1-.22-1.34c.26-.78,1.06-3.22,1.34-4.23a3.75,3.75,0,0,0-.12-2.91,42.09,42.09,0,0,0-1.87-3.88c-.61-4,5.16-2,8.45-1.26l.47.11A14.51,14.51,0,0,0,28.8,30.26Z" fill="url(#linear-gradient-50)"/><path d="M24.29,29.93c-.08.54-.18,1.08-.29,1.62l-.36,1.6c-.07.26-.13.53-.22.79s-.17.53-.29.79a3.22,3.22,0,0,0-.55,1.5,2.57,2.57,0,0,1,.29-1.61c.09-.25.15-.52.23-.77s.14-.53.21-.79l.45-1.57C23.92,31,24.09,30.44,24.29,29.93Z" fill="#faf8d3"/><path d="M28.8,30.26a6.31,6.31,0,0,1-1.35,4.19,1.56,1.56,0,0,1,.89,1.35,1.45,1.45,0,0,1-.94,1.38c-.67.1-1.09-.35-1.89.1a2.55,2.55,0,0,1-2.39,0,1.54,1.54,0,0,1-.51-.41,2.06,2.06,0,0,0,.55,0c.81-.1.83-1,.95-1.83A34.35,34.35,0,0,1,25.39,29c.61-1.37,1.08-2.81,2.2-5.16a13.12,13.12,0,0,0,2.56-.59l.47.11A14.51,14.51,0,0,0,28.8,30.26Z" fill="url(#linear-gradient-51)" style="mix-blend-mode:darken"/><path d="M28.8,30.26a6.31,6.31,0,0,1-1.35,4.19,1.56,1.56,0,0,1,.89,1.35,1.45,1.45,0,0,1-.94,1.38c-.67.1-1.09-.35-1.89.1a2.55,2.55,0,0,1-2.39,0,1.54,1.54,0,0,1-.51-.41,2.06,2.06,0,0,0,.55,0c.81-.1.83-1,.95-1.83A34.35,34.35,0,0,1,25.39,29c.61-1.37,1.08-2.81,2.2-5.16a13.12,13.12,0,0,0,2.56-.59l.47.11A14.51,14.51,0,0,0,28.8,30.26Z" fill="url(#radial-gradient-30)" style="mix-blend-mode:darken"/><path d="M28.34,35.8a1.45,1.45,0,0,1-.94,1.38c-.67.1-1.09-.35-1.89.1a2.55,2.55,0,0,1-2.39,0,1.68,1.68,0,0,1-.55-.45,5.05,5.05,0,0,0,1,.07,7.59,7.59,0,0,0,2.4-.82,1.29,1.29,0,0,1,1.64.43A1.21,1.21,0,0,0,28.34,35.8Z" fill="url(#linear-gradient-52)" style="mix-blend-mode:darken"/><path d="M25.51,37.28a1.66,1.66,0,0,1,1.31-.12,1.51,1.51,0,0,0,.67,0,1.13,1.13,0,0,0,.52-.42,1.51,1.51,0,0,0,.28-1.28,1.77,1.77,0,0,0-.84-1,1.55,1.55,0,0,1,1.11,1A1.74,1.74,0,0,1,28.3,37a1.41,1.41,0,0,1-.7.52,1.34,1.34,0,0,1-.83,0A2,2,0,0,0,25.51,37.28Z" fill="#b8784d"/><path d="M21.69,24.46l1.79,3.69a4,4,0,0,1,.44,2,9.1,9.1,0,0,1-.49,2l-.62,1.95-.32,1a3.15,3.15,0,0,0-.22,1,1.6,1.6,0,0,0,1.26,1.43,2.4,2.4,0,0,0,2-.16,2.52,2.52,0,0,1-2,.33A1.82,1.82,0,0,1,22,36a2,2,0,0,1,.06-.61l.15-.5.29-1,.59-2a9,9,0,0,0,.51-1.9,3.92,3.92,0,0,0-.37-1.84l-.8-1.88Z" fill="#b8784d"/><path d="M39,23c-2.49-1.22-4-1.86-5.25-1.6a40.1,40.1,0,0,0-4.4,1.66,5.19,5.19,0,0,1-2.32.34,2.07,2.07,0,0,0,2.61.65,41.2,41.2,0,0,1,4.83-1.86A11.37,11.37,0,0,1,39,23Z" fill="url(#radial-gradient-31)"/><path d="M30.2,30.55a5.32,5.32,0,0,1,3.11-5.21,5.38,5.38,0,0,1,4.15-.21c1.28.39,2.28,1.7,3.64,1.26a2.1,2.1,0,0,1-1.86,1.84A3.79,3.79,0,0,1,36,30.13c-2.56.24-5.81.42-5.81.42Z" fill="url(#radial-gradient-32)"/><path d="M30.2,30.55c1,.53,2.31-.15,4.22-.39,2.3-.29,3.61-.42,4.23-2a3.54,3.54,0,0,0-4.46-2.49C32.22,26.05,29.88,27.7,30.2,30.55Z" fill="url(#Gradient_Eye-2)"/><g clip-path="url(#clip-path-2)"><circle cx="35.41" cy="27.85" r="2.46" fill="url(#radial-gradient-33)"/><circle cx="35.41" cy="27.85" r="1.69" fill="#222223"/><circle cx="36.87" cy="27" r="0.44" fill="#fff"/><circle cx="34.11" cy="29.08" r="0.22" fill="#fff"/></g><path d="M34.24,26.09c2.28-.45,3.8.51,4.38,2.11l0-.07a3.54,3.54,0,0,0-4.46-2.49c-2,.41-4.31,2.06-4,4.91h0C29.93,28,32.27,26.47,34.24,26.09Z" fill="url(#linear-gradient-53)" style="mix-blend-mode:multiply"/><path d="M22.38,23.85a1.08,1.08,0,0,1-1.21.89,20.57,20.57,0,0,1-2.35-.31c-.55-.06-1.28.42-1.6,1.74a2.91,2.91,0,0,1,.33-2,1.44,1.44,0,0,1,1.65-.65C20.08,23.69,21.79,24.13,22.38,23.85Z" fill="url(#radial-gradient-34)"/><path d="M55.35,39.65c-1.76,3.13-4.37,3.6-6.05,5.88-1.26,1.7,0,3.26,1.52,4.83.55.55,1.13,1.08,1.66,1.64a3.24,3.24,0,0,1,.8,3.16,4.8,4.8,0,0,1-3.07,3.35,6.56,6.56,0,0,0-3.83,2.58v0a3,3,0,0,0-.28.44,7.5,7.5,0,0,0-.57,1.28,3.7,3.7,0,0,1-.18-1.17,4.22,4.22,0,0,1,1.73-3.46c1.08-.63,2.77-2,2.69-3.67a5.21,5.21,0,0,0-3.22-4.41,3.35,3.35,0,0,1-.88-5.23c1.31-1.49,2.82-3.23,2.9-5.51s-1.59-4.87-4.84-8-9.95-10-12.28-13.58a8.37,8.37,0,0,0-3-2.91l-.4-.22h0a8,8,0,0,0-5.11-.4C22,10.72,25.59,2.17,32.22.2Q33,.1,33.81.05a18.68,18.68,0,0,1,5.83.47l.08,0a15.08,15.08,0,0,1,6,3c.19.16.38.32.55.48a16.65,16.65,0,0,1,5.37,12.55c-.07.9-.09,1.81-.07,2.72.08,5,1.35,9.78,2.91,11.36A8.05,8.05,0,0,1,55.35,39.65Z" fill="url(#radial-gradient-35)"/><path d="M53.28,55.16a4.8,4.8,0,0,1-3.07,3.35,6.56,6.56,0,0,0-3.83,2.58c.58-2.32,2.15-3,3.12-3.68A8.47,8.47,0,0,0,51.73,55a3.72,3.72,0,0,1-.48,2.24A6.54,6.54,0,0,0,53.28,55.16Z" fill="url(#linear-gradient-54)" style="mix-blend-mode:multiply"/><path d="M55.35,39.65c-1.76,3.13-4.37,3.6-6.05,5.88-1.26,1.7,0,3.26,1.52,4.83a3.42,3.42,0,0,0-.4-.17,5,5,0,0,1-2.67-2.25,3,3,0,0,0,1,2.41c-.6-.4-2.69-2-2.64-3.28s1.27-2.22,2.67-3.93A13.41,13.41,0,0,0,51.17,37a14.58,14.58,0,0,1,.11,4.16,11.12,11.12,0,0,0,2.15-4.42,7.53,7.53,0,0,1-.59,4.59,10.23,10.23,0,0,0,2.42-3.8c.61-2-.67-5.4-2.68-8a11.1,11.1,0,0,1,.13,3.75c-.43-1.5-2.27-3.43-2.87-4.72.1.81-.47,3.16-.21,4.1A15.72,15.72,0,0,1,46,27.22a19.82,19.82,0,0,0,2.56,2.53,45.47,45.47,0,0,1-2.22-7.31s1,1.39,2.53,3.41c0-.87.32-6.41.6-8.89,0,.18.78,4.14,1.28,6.49,0-.25.36-2.18.77-4.19.08,5,1.35,9.78,2.91,11.36A8.05,8.05,0,0,1,55.35,39.65Z" fill="url(#linear-gradient-55)" style="mix-blend-mode:multiply"/><path d="M46.22,4a9.91,9.91,0,0,1-.86,2,2.38,2.38,0,0,1,1,.59,18.35,18.35,0,0,1-5,2.75,11.68,11.68,0,0,0,.94,1.61,53.05,53.05,0,0,1-7.12,1.82,2.64,2.64,0,0,1,1,1.48,43.66,43.66,0,0,1-7.8.7l-.4-.22A27.94,27.94,0,0,0,33.49,13c-.62-.5-1.47-1.12-1.47-1.12a71.82,71.82,0,0,0,7.59-1.62c-.74-.6-1.49-1.34-1.49-1.34,2.6-.13,5.49-2.22,5.49-2.22a3.51,3.51,0,0,0-1.12-1,4.92,4.92,0,0,0,3.18-2.15c.1-.14.19-.29.28-.43l.43.3C46.33,3.57,46.28,3.79,46.22,4Z" opacity="0.7" fill="url(#radial-gradient-27)" style="mix-blend-mode:screen"/><path d="M22.9,14.29a8.16,8.16,0,0,1,4.72.06,8,8,0,0,1,3.79,2.94,64.61,64.61,0,0,0,6,7.21c2.12,2.32,4.33,4.56,6.55,6.79a24.91,24.91,0,0,1,3.09,3.63,7.49,7.49,0,0,1,1.48,4.46A7.52,7.52,0,0,0,47,35a26.33,26.33,0,0,0-3.14-3.53q-3.41-3.28-6.63-6.75a60.68,60.68,0,0,1-6-7.29,7.78,7.78,0,0,0-3.62-2.94A8.21,8.21,0,0,0,22.9,14.29Z" fill="#4d352a"/><path d="M32.22.2A13.11,13.11,0,0,0,25.3,5.76a16.58,16.58,0,0,0-1.95,4.07,9.28,9.28,0,0,0-.45,4.46A7.22,7.22,0,0,1,22.68,12a13.32,13.32,0,0,1,.4-2.27A16,16,0,0,1,25,5.56a14.8,14.8,0,0,1,3.11-3.4A11,11,0,0,1,30.05.94c.36-.14.7-.32,1.07-.43Z" fill="#4d352a"/><path d="M45.52,62.82a6.65,6.65,0,0,1,1.16-2.28,6,6,0,0,1,2-1.63c.77-.43,1.66-.57,2.33-1a4.86,4.86,0,0,0,1.62-1.78,3.93,3.93,0,0,0,.45-2.31,2.83,2.83,0,0,0-.41-1.09,4.64,4.64,0,0,0-.79-.9c-.61-.59-1.24-1.16-1.84-1.79a6.31,6.31,0,0,1-1.5-2.24,2.64,2.64,0,0,1,0-1.45,3.36,3.36,0,0,1,.69-1.23,9.54,9.54,0,0,1,1.95-1.76A12.51,12.51,0,0,0,54.85,40a7.72,7.72,0,0,0,1.28-4.72,7.49,7.49,0,0,0-1.7-4.67,7.48,7.48,0,0,1,1.87,4.65,7.76,7.76,0,0,1-1.25,4.87,12.64,12.64,0,0,1-3.71,3.46,9.64,9.64,0,0,0-1.88,1.73,3.09,3.09,0,0,0-.61,1.11,2.35,2.35,0,0,0,0,1.26,5.82,5.82,0,0,0,1.4,2.11c.58.62,1.2,1.2,1.81,1.8a3.67,3.67,0,0,1,1.25,2.17,4.15,4.15,0,0,1-.51,2.46,5.09,5.09,0,0,1-1.72,1.85c-.73.45-1.61.57-2.36,1a6.09,6.09,0,0,0-2,1.52A7,7,0,0,0,45.52,62.82Z" fill="#4d352a"/><path d="M48.57,39.38a6.53,6.53,0,0,1-1,3.38,13.68,13.68,0,0,1-1,1.46,12,12,0,0,0-1,1.37,3.37,3.37,0,0,0,0,3.09,2.64,2.64,0,0,0,1.11,1.06,8.11,8.11,0,0,1,1.56,1A5.31,5.31,0,0,1,50,53.87a3.22,3.22,0,0,1-.17,1.91,4.77,4.77,0,0,1-1.11,1.5,7.74,7.74,0,0,1-1.48,1.07,3.12,3.12,0,0,0-1.15,1.16,4.18,4.18,0,0,0-.58,3.31,4.32,4.32,0,0,1,.42-3.4c.53-1.12,1.8-1.47,2.59-2.34a4.47,4.47,0,0,0,1-1.42,2.93,2.93,0,0,0,.14-1.73,5,5,0,0,0-1.79-3,7.5,7.5,0,0,0-1.5-.93,3,3,0,0,1-1.24-1.22,3.59,3.59,0,0,1,.11-3.38,11.09,11.09,0,0,1,1.1-1.38,14.74,14.74,0,0,0,1.05-1.41A6.49,6.49,0,0,0,48.57,39.38Z" fill="#4d352a"/><path d="M25.24,36.86a3.38,3.38,0,0,1,1.23-.59c.41-.05.67.09.71.35s-.43.33-.73.2A2.64,2.64,0,0,0,25.24,36.86Z" fill="url(#radial-gradient-37)"/><path d="M43.43,24.25a42.64,42.64,0,0,1,1,12.26,31.07,31.07,0,0,0,2-11.12C45.24,22.94,44.51,23.58,43.43,24.25Z" fill="url(#radial-gradient-38)"/><circle cx="27.88" cy="43.19" r="3.23" fill="url(#radial-gradient-39)" style="mix-blend-mode:darken"/><path d="M23.91,39.66a16.41,16.41,0,0,1,1.28,3.59,2.21,2.21,0,0,0,2,1.6c1.12.1,3.72-1.66,4.48-3s1.56-3.28,1.8-3.6c-.94.19-4,1-4.85,1.12A13.52,13.52,0,0,1,23.91,39.66Z" fill="url(#radial-gradient-40)"/><g clip-path="url(#clip-path-3)"><path d="M26.4,45c-.72-.56-.42-1.84,0-2.51a2.44,2.44,0,0,1,2.86-.78,2.85,2.85,0,0,1,3.27-.1c-.6,2.11-4.51,3.48-5.05,3.59A1.7,1.7,0,0,1,26.4,45Z" fill="url(#radial-gradient-41)"/><path d="M27.76,43.34a4.22,4.22,0,0,1,.51-1,4.55,4.55,0,0,1,.74-.84,4.93,4.93,0,0,1,.94-.62A3.61,3.61,0,0,1,31,40.57c-.32.17-.63.37-.92.56a7.62,7.62,0,0,0-.84.66,10.57,10.57,0,0,0-.77.73C28.24,42.78,28,43.06,27.76,43.34Z" fill="#853536"/><path d="M33.68,37.86l-1,2c-.07.14-.13.26-.17.36a11.82,11.82,0,0,1-5.92,1.58c-.78,0-1.72-.41-1.85-.78s-.14-.45-.22-.73l-.21-.65C26.56,37.81,31.9,37.2,33.68,37.86Z" fill="url(#Gradient_Eye-3)"/><path d="M33.68,37.86l-1,2a1.76,1.76,0,0,0-1-.26c-.77,0-2.26.49-3.44.72a10,10,0,0,1-3.69,0l-.21-.65C26.56,37.81,31.9,37.2,33.68,37.86Z" fill="url(#linear-gradient-56)" style="mix-blend-mode:multiply"/></g><path d="M22.62,39.19a2.91,2.91,0,0,1,2.73.31,4,4,0,0,1,3.07-.66,28.24,28.24,0,0,0,5.27-.63,25.81,25.81,0,0,1-8.13,2A5.07,5.07,0,0,1,22.62,39.19Z" fill="url(#radial-gradient-42)"/><path d="M23.83,39.67a11.84,11.84,0,0,1,1,3.38c.18,1,.67,2.31,1.8,2.51a4.15,4.15,0,0,0,4.1-1.81,30.15,30.15,0,0,0,2.93-5.54l-.39.17c-1.37,2.36-2.78,5.69-6.25,5.75-2,0-1.79-2.42-2.94-4.38Z" fill="url(#radial-gradient-43)"/><path d="M27.14,44.64l.41-.11.4-.09.4-.07.42,0a1.28,1.28,0,0,1-.35.26,2,2,0,0,1-.41.14,1.63,1.63,0,0,1-.44,0A1.36,1.36,0,0,1,27.14,44.64Z" fill="#fbdcdd"/><circle cx="33.64" cy="38.25" r="0.98" opacity="0.7" fill="url(#radial-gradient-44)" style="mix-blend-mode:darken"/><circle cx="23" cy="39.29" r="0.98" opacity="0.7" fill="url(#radial-gradient-45)" style="mix-blend-mode:darken"/><path d="M22.61,102.16a.56.56,0,0,1-.25.15A1.66,1.66,0,0,1,21,102a8.48,8.48,0,0,1-1.26-.86h0c-.46-.35-.83-.68-1-.8a.32.32,0,0,0-.28,0,.3.3,0,0,0-.22.37.33.33,0,0,0,.05.18,1.25,1.25,0,0,0,.27.43c.12.12.24.26.4.41.74.74,1.89,1.8,2.46,2.25s1,1,.86,1.55a.77.77,0,0,1-.08.19c-.28.51-1,.13-1.53-.11h0l-.13-.06a.17.17,0,0,1,0,.08s0,0,0,0a1.11,1.11,0,0,1-.07.74.54.54,0,0,1-.66.33,12.49,12.49,0,0,1-1.86-.81l-.29-.15s0,.12.07.3h0a1.7,1.7,0,0,0,.48.69,8.24,8.24,0,0,1,1,.91h0a.87.87,0,0,1,.26.77.6.6,0,0,1-.12.24c-.19.24-.53,0-1.12-.21a8.15,8.15,0,0,1-1.41-.76c-.48-.33-.46-1.34-.59-1.75a2.34,2.34,0,0,0-.58-1c-.25-.26,0-1.26-.07-1.79,0-.34.07-.68.08-1.09a2.52,2.52,0,0,0-.11-.81,3.31,3.31,0,0,1-.14-.78,1,1,0,0,1,.68-.94c.75-.38.63-.48.73-.94.18-.78.4-1.36,1-1.44h.11c.55,0,1,.5,1.71,1a35.55,35.55,0,0,1,2.63,2.4C23.17,101.22,22.82,102,22.61,102.16Z" fill="url(#linear-gradient-57)"/><path d="M15.58,103.15a15.7,15.7,0,0,0-.29-1.7,2.63,2.63,0,0,1-.24-.93,1.27,1.27,0,0,1,.46-1.1c.32-.23.61-.3.79-.43s.09-.06.12-.14a2.58,2.58,0,0,1,.13-.44,3.6,3.6,0,0,1,.42-.86.94.94,0,0,1,.86-.4.92.92,0,0,0-.69.5,3.18,3.18,0,0,0-.3.83c-.08.28,0,.63-.32.8s-.53.27-.76.45a.92.92,0,0,0-.35.78,3.64,3.64,0,0,0,.18.87A6.56,6.56,0,0,1,15.58,103.15Z" fill="#b8784d"/><path d="M22.36,102.31A1.66,1.66,0,0,1,21,102a8.48,8.48,0,0,1-1.26-.86h0c-.46-.35-.83-.68-1-.8a.32.32,0,0,0-.28,0,.3.3,0,0,0-.22.37.33.33,0,0,0,.05.18A8,8,0,0,1,17,99.75a.65.65,0,0,1,.06-.93c.35-.28.91.08,1.54.71S21,102,22.36,102.31Z" fill="url(#linear-gradient-58)" style="mix-blend-mode:darken"/><path d="M22.26,105.51a.77.77,0,0,1-.08.19c-.28.51-1,.13-1.53-.11h0l-.13-.06a.17.17,0,0,1,0,.08,13.45,13.45,0,0,0-1.66-1,6.74,6.74,0,0,1-1.9-1.43c-.39-.49-.77,0-.33.71A4.84,4.84,0,0,0,18,105.33a24.4,24.4,0,0,1,2.46,1,.54.54,0,0,1-.66.33,12.49,12.49,0,0,1-1.86-.81l-.29-.15s0,.12.07.3h0a1.7,1.7,0,0,0,.48.69,8.24,8.24,0,0,1,1,.91,5.88,5.88,0,0,0-1.87-1.06c-.3,0-.51.44.21.78a4.51,4.51,0,0,1,1.8,1.3c-.19.24-.53,0-1.12-.21a8.15,8.15,0,0,1-1.41-.76c-.48-.33-.46-1.34-.59-1.75a2.34,2.34,0,0,0-.58-1c-.25-.26,0-1.26-.07-1.79,0-.34.07-.68.08-1.09a2.52,2.52,0,0,0-.11-.81,3.31,3.31,0,0,1-.14-.78,1.07,1.07,0,0,0,.23.26,4.27,4.27,0,0,1,1,1c.34.45.93,1.31,1.29,1.68a5,5,0,0,0,1.51.88,13.47,13.47,0,0,1,1.94,1.14A.75.75,0,0,0,22.26,105.51Z" fill="url(#linear-gradient-59)" style="mix-blend-mode:darken"/><path d="M18.94,101.71a2.26,2.26,0,0,1-.26-.16,5.39,5.39,0,0,1-.62-.53c-.19-.2-.37-.4-.54-.61a5,5,0,0,1-.48-.66,6.08,6.08,0,0,1,.66.47c.18.16.36.31.52.47a1.06,1.06,0,0,0,.32.61C18.66,101.42,18.78,101.56,18.94,101.71Z" fill="#b8784d"/><path d="M19.75,101.16c-.46-.35-.83-.68-1-.8a.32.32,0,0,0-.28,0c-.18-.16-.37-.33-.54-.5s-.39-.42-.57-.65c.26.14.49.3.73.46a8.32,8.32,0,0,1,.68.53c.21.19.43.38.63.58A5,5,0,0,1,19.75,101.16Z" fill="#b8784d"/><path d="M20.51,105.53a.36.36,0,0,1,0,.11,8.84,8.84,0,0,0-1-.53,7.69,7.69,0,0,1-1.44-.77A5.85,5.85,0,0,1,17,103.19c-.33-.43-.64-.88-.94-1.32.39.37.76.77,1.13,1.15a6.88,6.88,0,0,0,1.17,1.06c.42.3.9.54,1.37.81a5.07,5.07,0,0,1,.95.7Z" fill="#b8784d"/><path d="M17.65,105.75s0,.12.07.3a6,6,0,0,1-.81-.46,3,3,0,0,1-.66-.66,4.12,4.12,0,0,1-.45-.82l.64.65a3.91,3.91,0,0,0,.67.56c.23.17.47.32.74.51l.09.07Z" fill="#b8784d"/></g></g></g></svg>