<svg xmlns="http://www.w3.org/2000/svg" viewBox="0 0 142 416.67"><g id="Layer_2" data-name="Layer 2"><g id="OBJECTS"><path d="M57.73,398.32s-.42-5.73-3.82-5.73H47.27c-2.24,0-4.44,3.51-5.07,6.08a3.89,3.89,0,0,0-2.66,2.8c-.47,2.22-1.52,10.52-1.67,11.34s-.74,3.86,2.66,3.86H64.79c2.14,0,1.88-1.58,1.88-2.49a14.51,14.51,0,0,0-1.62-6C63.9,406.41,57.73,398.32,57.73,398.32Z" fill="#4d4c4e" fill-rule="evenodd"/><path d="M57.73,398.32s-.42-5.73-3.82-5.73H47.27c-2.24,0-4.44,3.51-5.07,6.08l2.73,5.77a5.09,5.09,0,0,0,3.59,1.3H56.2s2-.4,1.92-2.26S57.73,398.32,57.73,398.32Z" fill="#292929" fill-rule="evenodd"/><path d="M38,412c-.06.4-.1.69-.12.81-.16.82-.74,3.86,2.66,3.86H64.79c2.14,0,1.88-1.58,1.88-2.49A14.38,14.38,0,0,0,66.4,412Z" fill="#202023" fill-rule="evenodd"/><path d="M103.29,393.49s10.26,9.6,14,10.37,11.88,1.52,13.61,2.59,3.33,5.57,3.53,6.41.64,3.81-1.86,3.81h-46c-1.92,0-2.31-1.15-2.31-2.82a7,7,0,0,1,1.16-3.36v-9.38c0-2.06,1-3.73,3.27-3.89,3.88-.26,8.11,2.11,10.62-2.24C100.45,393.05,100.93,391.56,103.29,393.49Z" fill="#4d4c4e" fill-rule="evenodd"/><path d="M103.29,393.49s9.84,9.21,13.74,10.31a7.14,7.14,0,0,1-5,2.39c-1.41-.12-12-5.28-13-6.66s0-4.23,0-4.23h0c.07-.1.13-.21.2-.32C100.45,393.05,100.93,391.56,103.29,393.49Z" fill="#292929" fill-rule="evenodd"/><path d="M133.56,410.49a18.47,18.47,0,0,1,.85,2.36c.19.84.64,3.82-1.86,3.82h-46c-1.92,0-2.31-1.15-2.31-2.82a7,7,0,0,1,1.16-3.36Z" fill="#202023" fill-rule="evenodd"/><polygon points="17.64 67.03 23.44 71.63 22.97 77.91 13.89 78.89 10.52 76.27 11.11 75.57 11.82 68.12 17.64 67.03" fill="#d77f68" fill-rule="evenodd"/><path d="M107.77,78.57s8.65,3.37,10.45,5.14c1.47,1.44,14.41,29,19.92,41.27,4.87,10.89,5.7,21-.8,31.74-3.58,5.92-15.71,14.86-20.65,22.33-3.14,4.74-9,1.95-9,1.95a25.41,25.41,0,0,1-3.66-1.42c-1-.59-1.56-9.75-1.56-9.75s8.08-16,9.38-17.7,7.92-11.19,7.92-11.19l-12.9-31.62S98.23,94.2,107.77,78.57Z" fill="#3d3d3d" fill-rule="evenodd"/><path d="M109.7,180.65l3.13,6.49.84,10a74.63,74.63,0,0,1,4.06,7.14c.6,1.64,2.71,15.08,2.93,17.55S110,334,108.48,353.72a300.8,300.8,0,0,0,.41,43.06c.2,1.92-9.08,5.21-12.48,5.49A38.39,38.39,0,0,1,87,401.11l-.06,0h0c-1.3-.34-1.39-2-1.39-2l-.9-34.73h0c.1-5.17.1-19.46-.11-25.62s0-122.91,0-122.91l5.5-32.33Z" fill="#202023" fill-rule="evenodd"/><path d="M54.38,181.16,53,185.85s-4.54,3-4.83,4.53-1.6,4.81-2,7,1.89,7.49,1.18,9.14-4.58,82.34-4.58,91.92S42.42,307.61,42,315h0l-3,83a3,3,0,0,0,2.64,3.44c3.12.73,15.15.19,17.29-.26a12.62,12.62,0,0,0,3.21-1.55c1.43-1.24,1-21.81,1.29-25s6.57-66.79,8.29-77.48,13.54-80.43,16.11-90.85S99.17,187.5,99.17,187.5L96,184.3Z" fill="#202023" fill-rule="evenodd"/><path d="M111.35,185.32a93.08,93.08,0,0,1-34.32,3c-18.42-2,13.65-15,22.39-11.44S111.35,185.32,111.35,185.32Z" fill="#de8d4d" fill-rule="evenodd"/><path d="M66.78,74.24,43.25,81.55s6.34,8.78,3.29,33.89c0,0,6.64,29.59,6.64,33.54s-3.59,21-3.59,23.56c0,2.36,29.33,18.63,58.48,9.17,8.76-2.84,6.51-7.06,6-9.41-4-17-3.46-37.48-4.3-42.39-.91-5.36,4.58-14.93,4.58-14.93l-5.81-34.7L92.21,74.07Z" fill="#fff" fill-rule="evenodd"/><path d="M89.89,184.63c.66,0,1.33,0,2,0a18.73,18.73,0,0,0,.77-6.83c-.08-1.08-.37-4.75-.76-9.62-1.05-13.24-2.82-35.33-2.82-37.26,0-1.28.16-3.34.32-5.5.18-2.41.37-4.93.37-6.6,0-3.22-5.14-39.33-5.16-39.44a1,1,0,0,0-1.09-.77.91.91,0,0,0-.84,1c0,.11,5.14,36.06,5.14,39.21,0,1.65-.19,4.12-.37,6.48-.16,2.21-.32,4.33-.32,5.62,0,2,1.77,24.11,2.83,37.39.39,4.91.68,8.61.75,9.61a16.69,16.69,0,0,1-.77,6.46A.82.82,0,0,0,89.89,184.63Z" fill="#dbdadb" fill-rule="evenodd"/><polygon points="68.89 57.24 89.33 57.24 89.33 79.9 81.21 79.9 68.89 75.1 68.89 57.24" fill="#d77f68" fill-rule="evenodd"/><polygon points="68.66 68.96 83.65 79.9 89.33 69.55 92.21 74.07 89.48 88.38 83.65 79.9 77.11 88.54 66.78 74.26 68.66 68.96" fill="#dbdadb" fill-rule="evenodd"/><path d="M64.23,213.44c-8.45,2.74-20,5.67-20.7,5.28-1-.58-1.52-3.63-1.52-3.63,6.33-43.56,8.74-54,4.21-95.09,4-23.23-3-37.83-3-37.83s17.33-7.26,18.2-7.33a2.69,2.69,0,0,1,1.69.64c2.61,9.28,8,14,9.93,22.7C77.26,117.14,84,207,64.23,213.44Z" fill="#4d4c4e" fill-rule="evenodd"/><path d="M93.12,74.45a4.46,4.46,0,0,1,1.17-.07c.44.07,13.84,3.89,14.17,4.07s.61.29,1.2,3.27,4.78,32.8,4.92,33.85c1,7.06,9.39,90.26,9.17,94.34-.1,1.88-3.91,4.06-4.93,4.86s-1.52.8-3.7-.14-13.2-11.32-13.2-11.32a9.72,9.72,0,0,1-2-6.38c.38-10.28-.92-120.07-5.69-122Z" fill="#4d4c4e" fill-rule="evenodd"/><path d="M43.25,82.09a10,10,0,0,0-4.79,4.66c-1.5,3.3-26.7,27.84-26.7,27.84l-.68,24.22,7.29,2L46.22,120C50.13,111.3,52.42,91.27,43.25,82.09Z" fill="#3d3d3d" fill-rule="evenodd"/><path d="M28.59,63.85a13.53,13.53,0,0,1,5.5-5c1.32-.6-1.8-5.62-5.48-1.44,0,0-2.28,1.14-2.92.16s3.91-16.31,4.41-18a1.78,1.78,0,0,0-1.76-2.39c-.63.23-1.32,2.67-2.39,5.69s-2.31,6.4-2.65,6.58-1-.11-.95-2S22.74,35,22.2,34.21s-2.18-.64-2.66.92-.51,12.19-.9,13.55-1.53.73-1.77-.23S15.2,36,14.72,35.19s-2.15-.53-2.27,1.23S13.28,49.27,13,50s-1.44.86-2.45-1-2.71-6.08-3.24-6.39-2,1.21-1.3,3.36,2.32,7.52,2.46,8.35c.78,4.39.39,8.6,1.42,11.92a8.53,8.53,0,0,0,1.92,3.26A10.38,10.38,0,0,0,20,72.85C25.1,72.42,26,68.06,28.59,63.85Z" fill="#e6ad83" fill-rule="evenodd"/><path d="M28.61,57.4s-2.28,1.14-2.92.16c-.19-.29.07-1.82.55-3.88l-1.91,8.18Z" fill="#d77f68" fill-rule="evenodd"/><path d="M25.7,118.19s.7-32,.67-35.17.47-7.1-1.82-7.83c0,0-9.17,1.14-14.89-1.38-.12.07-19.48,66.21-3,69.5,5.49,1.1,10.52-.42,13.88-4.74Z" fill="#3d3d3d" fill-rule="evenodd"/><path d="M100.5,38.88,101,39h0a6.25,6.25,0,1,1-5.23,1.22c-.17,1.85.11,4.13,2.46,4.38l0-3.61A2.14,2.14,0,0,1,100.5,38.88Z" fill="#d77f68" fill-rule="evenodd"/><path d="M59.29,38.87l-.46.08h0A6.26,6.26,0,1,0,64,40.24c.15,1.85-.16,4.13-2.52,4.34l.09-3.6A2.15,2.15,0,0,0,59.29,38.87Z" fill="#d77f68" fill-rule="evenodd"/><path d="M79.85,70.19c-11.67,0-21.41-14.4-21.41-25.77V29.31A21.47,21.47,0,0,1,79.85,7.9h0a21.47,21.47,0,0,1,21.41,21.41V44.1C101.26,56.56,92.77,70.19,79.85,70.19Z" fill="#e6ad83" fill-rule="evenodd"/><path d="M91.32,48.64a3,3,0,1,0,3,2.91A3,3,0,0,0,91.32,48.64Z" fill="#d7766d" fill-rule="evenodd"/><path d="M68.27,49.11a3,3,0,1,0,3,2.91A3,3,0,0,0,68.27,49.11Z" fill="#d7766d" fill-rule="evenodd"/><path d="M72.74,33.1a.91.91,0,0,1,.45,1.19.89.89,0,0,1-1.19.44,5.87,5.87,0,0,0-5.29.35.9.9,0,0,1-1.24-.29.9.9,0,0,1,.28-1.24A7.78,7.78,0,0,1,72.74,33.1Z" fill="#202023" fill-rule="evenodd"/><path d="M93.92,33.5A.9.9,0,0,1,93,35.07a5.86,5.86,0,0,0-5.3-.09.9.9,0,0,1-.83-1.6A7.79,7.79,0,0,1,93.92,33.5Z" fill="#202023" fill-rule="evenodd"/><path d="M80.43,45.86a18.41,18.41,0,0,1,1,3.37c-.09.46-2.46.89-3.08.28-.42-.4.1-2.17.55-3.36C79.55,44.52,79.89,44.4,80.43,45.86Z" fill="#ebbf9e" fill-rule="evenodd"/><path d="M84.35,54a4.5,4.5,0,1,1-9,0,.84.84,0,0,1,.83-.83h7.34A.83.83,0,0,1,84.35,54Z" fill="#202023" fill-rule="evenodd"/><path d="M76.64,53.12h6.43v.76a.72.72,0,0,1-.72.72h-5a.72.72,0,0,1-.72-.72Z" fill="#fff" fill-rule="evenodd"/><path d="M83.11,57.05a4.5,4.5,0,0,1-6.52,0,4.5,4.5,0,0,1,6.52,0Z" fill="#d26070" fill-rule="evenodd"/><path d="M69.38,45.11a2.58,2.58,0,1,0-2.58-2.58A2.59,2.59,0,0,0,69.38,45.11Z" fill="#202023" fill-rule="evenodd"/><path d="M90.32,45.11a2.58,2.58,0,1,0-2.57-2.58A2.58,2.58,0,0,0,90.32,45.11Z" fill="#202023" fill-rule="evenodd"/><path d="M58.44,43.82c1.27-.49,2.56-3.75,2.07-8.38,0,0,6.67-4.89,4.3-11.69s-8.35-4.92-8.35-4.92-3.92,3.09,0,21.12C58.18,40.26,57.79,42.53,58.44,43.82Z" fill="#202023" fill-rule="evenodd"/><path d="M101.26,43.82c-1.26-.49-2.55-3.75-2.07-8.38,0,0-6.66-4.89-4.29-11.69s7.39-3,7.39-3,7.77,1.85.93,19.19C101.53,40.26,101.91,42.53,101.26,43.82Z" fill="#202023" fill-rule="evenodd"/><path d="M77.57,39.93h4.56A3.41,3.41,0,0,1,83,38.24a3.31,3.31,0,0,1,2.35-1H97.18a3.31,3.31,0,0,1,2.35,1l0,0a3.3,3.3,0,0,1,.94,2.3V42.9a5,5,0,0,1-5,5H87a4.9,4.9,0,0,1-3.49-1.45h0a5,5,0,0,1-1.45-3.5V41.23H77.64V42.9a5,5,0,0,1-5,5H64.16a4.94,4.94,0,0,1-3.5-1.45h0a4.94,4.94,0,0,1-1.45-3.5V40.58a3.31,3.31,0,0,1,3.31-3.31h11.8a3.28,3.28,0,0,1,2.3.93l0,0a3.26,3.26,0,0,1,.91,1.69Zm-3.25-1.36H62.52a2,2,0,0,0-1.42.59,2,2,0,0,0-.59,1.42V42.9a3.65,3.65,0,0,0,3.65,3.65h8.52a3.65,3.65,0,0,0,3.65-3.65V40.58a2,2,0,0,0-.59-1.42l0,0a2,2,0,0,0-1.39-.56Zm22.86,0H85.39a2,2,0,0,0-2,2V42.9A3.65,3.65,0,0,0,87,46.55h8.53A3.67,3.67,0,0,0,99.2,42.9V40.58a2,2,0,0,0-.56-1.39l0,0A2,2,0,0,0,97.18,38.57Z" fill="#272525" fill-rule="evenodd"/><path d="M102.42,19.77C101.59-10.72,62.3.13,55.36,12.2c-.09.15-.11.57-.25.46-9.5-7.07-3.68,13.13,5.65,14.28s20.93,1.72,30.9-2.48c0,0,2.31-1.32,3,1.79s6.91-.35,6.91-.35Z" fill="#202023" fill-rule="evenodd"/><path d="M79.85,67.1a2.09,2.09,0,0,1,1.4.56,2.06,2.06,0,0,1,1.74,0,2.73,2.73,0,0,1,2-.06,6.32,6.32,0,0,1,2.2-.37c.54.18.32,3.9-7.3,3.9s-7.83-3.72-7.29-3.9a6.32,6.32,0,0,1,2.2.37,2.73,2.73,0,0,1,2,.06,2.06,2.06,0,0,1,1.74,0A2.07,2.07,0,0,1,79.85,67.1Z" fill="#202023" fill-rule="evenodd"/></g></g></svg>