<svg xmlns="http://www.w3.org/2000/svg" viewBox="0 0 136.39 180.62"><g style="isolation:isolate"><g id="Layer_2" data-name="Layer 2"><g id="OBJECTS"><rect x="12.95" y="102.99" width="3.7" height="67.51" fill="#22272e"/><rect x="4.62" y="167.72" width="20.35" height="4.62" fill="#22272e"/><rect x="6.47" y="171.42" width="3.7" height="6.47" fill="#22272e"/><rect x="18.5" y="171.42" width="4.62" height="6.47" fill="#22272e"/><rect x="100.8" y="102.99" width="2.77" height="67.51" fill="#22272e"/><rect x="91.55" y="167.72" width="20.35" height="4.62" fill="#22272e"/><rect x="92.48" y="171.42" width="4.62" height="6.47" fill="#22272e"/><rect x="106.35" y="171.42" width="3.7" height="6.47" fill="#22272e"/><rect x="4.62" y="16.99" width="107.27" height="88.78" fill="#96999f"/><rect x="6.47" y="20.68" width="103.58" height="81.38" fill="#edf2ee"/><rect y="14.21" width="114.67" height="5.55" fill="#96999f"/><rect y="101.14" width="114.67" height="4.62" fill="#96999f"/><rect x="12.95" y="120.56" width="88.78" height="1.85" fill="#22272e"/><rect x="24.97" y="32.71" width="7.4" height="49.94" fill="#67ad7e"/><rect x="37.92" y="41.95" width="6.47" height="40.69" fill="#67ad7e"/><rect x="50.86" y="47.5" width="7.4" height="35.14" fill="#67ad7e"/><rect x="63.81" y="54.9" width="5.55" height="27.74" fill="#67ad7e"/><rect x="77.68" y="45.65" width="5.55" height="36.99" fill="#67ad7e"/><rect x="13.87" y="86.34" width="83.23" height="2.77" fill="#bcc1c6"/><rect x="18.16" y="32.55" width="1.72" height="61.1" fill="#bcc1c6"/><rect x="44.39" y="27.16" width="24.97" height="2.77" fill="#bcc1c6"/><path d="M113.67,37.8a6.3,6.3,0,1,0,6.3-6.48A6.39,6.39,0,0,0,113.67,37.8Z" fill="#5c311e"/><path d="M98.07,21.24c0,10,5.44,17.69,15.35,17.69s16.52-9.75,16.52-19.74-6.6-16.45-16.52-16.45S98.07,11.25,98.07,21.24Z" fill="#5c311e"/><path d="M103.28,168.73c1.64-1.68,5-1.61,5.86.91.31.8,1.75,3.19.38,9.82h-1.17v-3.21l0-.35c-.17.62-.39,1.28-.62,2-1,3.14-7.57,3.24-9.34,1.91-.48-.36.6-1.19,1.56-3.33C101.13,173.77,102.42,169.61,103.28,168.73Z" fill="#383e46"/><path d="M102.32,171.61a50.08,50.08,0,0,0,1.45-5.26c-.37-7-1.58-66.82,1-73.83l9.73,2.33-6.57,70a28.2,28.2,0,0,1,0,5.59c-.42,3.07-4.44,6.86-6,6.49C100.92,176.72,101.69,173.6,102.32,171.61Z" fill="#f0a98f"/><path d="M115.82,168.42c1.66-3.92,4.86,2.09,4.86,2.09a16,16,0,0,0,3.7,4c3.45,2.49,8.17,5.1,5.28,5.67a13.73,13.73,0,0,1-7.38-.54,15.62,15.62,0,0,1-5.35-4l.41,3.86-1.29-.15A14,14,0,0,1,115.82,168.42Z" fill="#383e46"/><path d="M121.9,92.1c2.22,6.74-.66,60.49-1.49,72a12.81,12.81,0,0,0,1.72,6.72,39.35,39.35,0,0,0,4.64,6c-2.77.72-4.8-.64-6.44-1.88a10.2,10.2,0,0,1-3.62-5.39,15.74,15.74,0,0,1-.58-3.37L111.89,94.9Z" fill="#f0a98f"/><path d="M107.71,122c-.18-6.82-.39-14.85-.39-14.85l-2.24,14.69c-.74,0-1.48-.12-2.21-.2-1-.1-2-.22-3-.35a156.15,156.15,0,0,1-.34-16.2c.37-10.08,2.44-20.87,5.14-24.46l18.5,3.08s2.61,5.21,3.71,17.48a159,159,0,0,1,.24,19.7A92.11,92.11,0,0,1,107.71,122Z" fill="#22272e"/><path d="M119.64,75.66c.32-1.23,7.21-27.14,7.21-27.14s-16.72-4.93-27.41,0l8,29.06Z" fill="#9dcad1"/><path d="M99.36,48.52l2,8.54s-4.32,4.29,1.65,8.34l2.47,10.26-4.26,12.87,9.83,1,2-4.93,1.86,5s8.39.2,10.29-2l-4.93-12,2.47-10.36s4.82-2.56,2-8l2-8.76-4.93-1.64-9.46,19.87L104,47Z" fill="#3e4753"/><rect x="110.05" y="33.63" width="6.47" height="13.87" rx="2.91" fill="#d8826c"/><path d="M100.61,25.17c0,9.45,4.28,14.71,11.47,14.87,7.66.16,14.6-5.42,14.6-14.87S123.77,6,113.65,6C103.74,6,100.61,15.73,100.61,25.17Z" fill="#f0a98f"/><path d="M109.31,23A3.32,3.32,0,1,1,106,19.7,3.32,3.32,0,0,1,109.31,23Z" fill="#fff"/><path d="M104.1,22.81a2.24,2.24,0,1,0,4.38,0,2.25,2.25,0,1,0-4.38,0Z" fill="#5b6f7f"/><path d="M104.74,22.81a1.59,1.59,0,1,0,3.11,0,1.6,1.6,0,1,0-3.11,0Z" fill="#400404"/><path d="M104.64,21c0,.29.36.53.8.53s.8-.24.8-.53-.35-.53-.8-.53S104.64,20.67,104.64,21Z" fill="#fff"/><path d="M113.68,28.64s-1.64,2.77-3.41-.05Z" fill="#d8826c"/><path d="M115.37,23a3.32,3.32,0,1,0,3.31-3.31A3.32,3.32,0,0,0,115.37,23Z" fill="#fff"/><path d="M116.62,22.81c0,1.51.92,2.73,2.06,2.73s2.08-1.22,2.08-2.73-.93-2.74-2.08-2.74S116.62,21.3,116.62,22.81Z" fill="#5b6f7f"/><path d="M117.21,22.81a1.53,1.53,0,1,0,3,0,1.77,1.77,0,0,0-1.48-1.95C117.88,20.86,117.21,21.74,117.21,22.81Z" fill="#400404"/><path d="M117.12,21c0,.29.34.53.76.53s.76-.24.76-.53-.34-.53-.76-.53S117.12,20.68,117.12,21Z" fill="#fff"/><path d="M115.88,28.28c0,1.51,1.56,2.73,3.48,2.73s3.48-1.22,3.48-2.73-1.56-2.72-3.48-2.72S115.88,26.78,115.88,28.28Z" fill="#f08671"/><path d="M102.11,28.28c0,1.51,1.56,2.73,3.48,2.73s3.49-1.22,3.49-2.73-1.57-2.72-3.49-2.72S102.11,26.78,102.11,28.28Z" fill="#f08671"/><path d="M100.49,23.52s-3.59-4.89-4.62-.19c-.83,3.74,2.51,6.49,4.58,5.79S100.49,23.52,100.49,23.52Z" fill="#f0a98f"/><path d="M100.52,24.39S98,21.31,97.34,22.76a5.67,5.67,0,0,0-.26,3.16s.26-2,1.8-1.05c0,0-1.1,3.21,1.65,2A1.82,1.82,0,0,0,100.52,24.39Z" fill="#d8826c"/><path d="M126.67,23.52s3.58-4.89,4.62-.19c.82,3.74-2.52,6.49-4.59,5.79S126.67,23.52,126.67,23.52Z" fill="#f0a98f"/><path d="M126.63,24.39s2.54-3.08,3.19-1.63a5.77,5.77,0,0,1,.26,3.16s-.26-2-1.81-1.05c0,0,1.1,3.21-1.65,2A1.83,1.83,0,0,1,126.63,24.39Z" fill="#d8826c"/><path d="M122.72,18.76s-3.13-4.22-8-.63A10.14,10.14,0,0,1,122.72,18.76Z" fill="#361d11"/><path d="M109.07,18.06s-3.66-3.65-7.6.69A9.25,9.25,0,0,1,109.07,18.06Z" fill="#361d11"/><path d="M120.82,47.15c.42-.9-4.35-4.42-4.35-4.42s-.72,4.69-3,6.06L117.26,54S118.9,51.26,120.82,47.15Z" fill="#d7eef2"/><path d="M106.12,47.15c-.42-.9,4.11-4.39,4.11-4.39s1,4.66,3.22,6L109.68,54S108,51.26,106.12,47.15Z" fill="#d7eef2"/><path d="M118,5s-3.9-7.81-9.86-3.91S94.58,13.22,92.73,7.26c0,0,2.87,15.84,14.59,8.23S118,5,118,5Z" fill="#5c311e"/><path d="M113.08,6.85a44.35,44.35,0,0,0,14,15.22,12.44,12.44,0,0,0,2.47-6.58C129.78,8.09,123.57-5.9,113.08,6.85Z" fill="#5c311e"/><path d="M113.08,6.85l2.67.41A12.22,12.22,0,0,1,107.12,19S113.29,13.43,113.08,6.85Z" fill="#5c311e"/><path d="M122.74,64.22s-8.43,4.11-18.91-.83C103.83,63.39,112.05,74.7,122.74,64.22Z" fill="#ded9d5" style="mix-blend-mode:multiply"/><path d="M112.34,67.3a1.08,1.08,0,1,0,1.08-1.08A1.08,1.08,0,0,0,112.34,67.3Z" fill="#22272e"/><path d="M112.21,74.7a1.08,1.08,0,1,0,1.08-1.08A1.08,1.08,0,0,0,112.21,74.7Z" fill="#22272e"/><path d="M112.21,82.1a1.08,1.08,0,0,0,2.16,0,1.08,1.08,0,0,0-2.16,0Z" fill="#22272e"/><path d="M115.37,23a3.29,3.29,0,0,1,1.82-3.21c3.19-1.64,4.94,2.16,6,2.78,0,0-.66.66-1.15.43C122,23,118.53,17.34,115.37,23Z" fill="#302725"/><path d="M109.37,22.61a2.82,2.82,0,0,0-1.82-2.85c-3.19-1.46-4.94,1.92-6,2.46,0,0,.66.59,1.15.39C102.74,22.61,106.21,17.57,109.37,22.61Z" fill="#302725"/><path d="M125.21,29.26a1,1,0,1,0,1-1A1,1,0,0,0,125.21,29.26Z" fill="#fff700"/><path d="M99.3,29.67a1,1,0,1,0,1-1A1,1,0,0,0,99.3,29.67Z" fill="#fff700"/><path d="M112.87,53.52a.62.62,0,0,0,1.24,0,.62.62,0,0,0-1.24,0Z" fill="#d7eef2"/><path d="M112.87,58.46a.62.62,0,1,0,.62-.62A.62.62,0,0,0,112.87,58.46Z" fill="#d7eef2"/><path d="M108,30.77a11.25,11.25,0,0,0,1.78,3.08c1.3,1.44,3.19,2.38,5.3-.72a15.93,15.93,0,0,0,1.35-2.47,6.31,6.31,0,0,0-1.79.27c-1.66.47-4.14.85-5.86-.07h0C108.49,30.86,108.23,31,108,30.77Z" fill="#712311"/><path d="M109.77,34c1.3,1.45,3.19,2.3,5.3-.8C113.94,32.92,111.29,32.45,109.77,34Z" fill="#d5503b"/><path d="M108.77,31.56c2.74,3.05,4.73,1.44,5.86-.26C113,31.77,110.49,32.26,108.77,31.56Z" fill="#fff"/><path d="M118,77.26a4.07,4.07,0,0,1-2.11-.41c-.7-.5-1.09-.7-3.12-.95a6.5,6.5,0,0,1-3-1.06s-.9,1.51,2.22,2c1.91.31-3.62,1.81-5.34,2.12,0,0-.8.8,1,1.11s.3.8,3.83,1.2,7.45,0,7.65-2.11S118,77.26,118,77.26Z" fill="#ffbc9f"/><polygon points="131.79 59.91 131.79 59.91 131.79 59.91 131.79 59.91" fill="#f0a98f"/><path d="M131.79,59.91Z" fill="#f0a98f"/><path d="M124.54,57.07c.24,3.06,5,14.85,5,14.85-1.84.38-7.73,2.62-10.6,3.74l-1.59.62.47,5.13q.89,0,1.74-.12c11.24-1,16.85-5.06,16.85-5.06-2.39-19.62-9.8-27.71-9.8-27.71C123.9,49.07,124.54,57.07,124.54,57.07Z" fill="#3e4753"/><path d="M117.33,76.28l.47,5.13q.89,0,1.74-.12l-.62-5.63Z" fill="#d7eef2"/><path d="M77.27,68.12a4.33,4.33,0,0,1-2-1.06c-.57-.73-.91-1-2.92-1.92a6.81,6.81,0,0,1-2.78-2s-1.39,1.28,1.66,2.75c1.87.89-4.27.76-6.12.55,0,0-1.07.59.7,1.45s.07.91,3.57,2.39,7.65,2.26,8.5.15S77.27,68.12,77.27,68.12Z" fill="#ffbc9f"/><path d="M101.83,56.2s-4.39,20.28-6.31,21.38C94,78.47,82.22,74.52,77.76,73c-1.06-.36-1.71-.6-1.71-.6l.83-5.21,2.52.37L92,69.35s1.93-14.52,7.49-20.83Z" fill="#3e4753"/><path d="M79.4,67.53,77.76,73c-1.06-.36-1.71-.6-1.71-.6l.83-5.21Z" fill="#d7eef2"/></g></g></g></svg>