<svg xmlns="http://www.w3.org/2000/svg" viewBox="0 0 149.44 457.18"><g id="Layer_2" data-name="Layer 2"><g id="OBJECTS"><path d="M48.27,437.63s-.43-6.1-3.89-6.1H37.62c-2.29,0-4.52,3.74-5.16,6.48a4,4,0,0,0-2.72,3c-.47,2.37-1.54,11.2-1.7,12.08s-.74,4.11,2.72,4.11H55.45c2.19,0,1.92-1.69,1.92-2.65a16,16,0,0,0-1.65-6.41C54.55,446.25,48.27,437.63,48.27,437.63Z" fill="#4d4c4e" fill-rule="evenodd"/><path d="M48.27,437.63s-.43-6.09-3.89-6.09H37.62c-2.29,0-4.52,3.73-5.16,6.47l2.78,6.14a5,5,0,0,0,3.65,1.39h7.82a2.41,2.41,0,0,0,1.95-2.41C48.56,441.15,48.27,437.63,48.27,437.63Z" fill="#292929" stroke="#4d4c4e" stroke-miterlimit="2.61" stroke-width="0.22" fill-rule="evenodd"/><path d="M28.17,452.21c-.06.43-.11.73-.13.86-.16.87-.74,4.11,2.72,4.11H55.45c2.19,0,1.92-1.69,1.92-2.65a15.14,15.14,0,0,0-.28-2.32Z" fill="#202023" fill-rule="evenodd"/><path d="M96.1,432.49s10.45,10.23,14.24,11,12.09,1.63,13.85,2.77,3.4,5.92,3.6,6.82.65,4.06-1.9,4.06H79.11c-2,0-2.35-1.22-2.35-3a7.61,7.61,0,0,1,1.18-3.57v-10c0-2.19,1-4,3.33-4.14,4-.28,8.26,2.24,10.81-2.39C93.21,432,93.7,430.44,96.1,432.49Z" fill="#4d4c4e" fill-rule="evenodd"/><path d="M96.1,432.49s10,9.81,14,11a7.15,7.15,0,0,1-5,2.55c-1.44-.13-12.24-5.63-13.22-7.1s0-4.5,0-4.5h0l.2-.34C93.21,432,93.7,430.44,96.1,432.49Z" fill="#292929" fill-rule="evenodd"/><path d="M126.92,450.6a19,19,0,0,1,.87,2.52c.19.89.65,4.06-1.9,4.06H79.11c-2,0-2.35-1.22-2.35-3a7.61,7.61,0,0,1,1.18-3.57Z" fill="#202023" fill-rule="evenodd"/><path d="M123.57,115.36l-.66-6.45-1-6.1s-4.53-10.27-4.56-12,1.71-8.43,2.21-10.43,5.07-8.11,5.82-9.23,2.35,1.37,1.22,3.31S124.57,78,124.57,78L123.44,84s1.77-4.36,2-4.79a3.53,3.53,0,0,1,2.21-1.75c1.46-.5,2.33.39,3,1.27a1.4,1.4,0,0,1-1.45,2.17l-.68,3.78,1.4-2.31a1.9,1.9,0,0,1,1.5-.59A5.64,5.64,0,0,1,134,83.47c.45.52-.26,2.15-.26,2.15a3.65,3.65,0,0,1,1.49.26,6.91,6.91,0,0,1,1.7,2.78c.22.76-.67,9.24-1.07,11.14A6.69,6.69,0,0,1,134,103l1.23,9.51Z" fill="#e6ad83" fill-rule="evenodd"/><path d="M123.25,112.24l-.34-3.33-.59-3.75a30.21,30.21,0,0,0,12,.39l.76,5.84c-5.14.32-10.76.75-11.09,1C123.91,112.51,123.64,112.43,123.25,112.24Z" fill="#d77f68" fill-rule="evenodd"/><path d="M88,.4a.73.73,0,0,0-1.31.66L127,81.62a2.38,2.38,0,0,1,1.7,2.4q0,.45-.09.81l2.47,5c.32-.06.89-.21,1-.47s.4-.95.58-1.42L88,.4Zm44.17,91.66,5.25,10.48c.43.86,2.64-.1,2.21-1l-5.05-9.89a4.67,4.67,0,0,1-.87.78A3.29,3.29,0,0,1,132.16,92.06Z" fill="#313132" fill-rule="evenodd"/><path d="M95.63,123.55s2.7-5.7,3-5.65a36.12,36.12,0,0,1,5.7,2.92c3.75,2.55,19.93,16.32,19.93,16.32,0-2.45-4.19-30.81-3.44-31,0,0,9.17,1.14,14.89-1.38a4.19,4.19,0,0,1,1.72,2.89c.4,2.14,12,49.6,12,49.6s-.19,8.51-7,9.88c-8.29,1.66-28.37-12-37.2-17.19-3.79-2.24-7.4-3.67-10.82-5.36Z" fill="#3d3d3d" fill-rule="evenodd"/><line x1="123.44" y1="83.96" x2="122.48" y2="87.26" fill="none" stroke="#d77f68" stroke-linecap="round" stroke-linejoin="round" stroke-width="0.71"/><path d="M122.5,91.78s2-6.36,2.65-8.52,1.65-1.93,2.47-1.29.92,2.67.92,2.67l-.44,2.07s2.09,4.6,1.42,7.18" fill="none" stroke="#d77f68" stroke-linecap="round" stroke-linejoin="round" stroke-width="0.71" fill-rule="evenodd"/><path d="M133.69,85.62l-1.77,3.89a1.44,1.44,0,0,1-1.68.25" fill="none" stroke="#d77f68" stroke-linecap="round" stroke-linejoin="round" stroke-width="0.71" fill-rule="evenodd"/><path d="M136.63,88a3.05,3.05,0,0,1-.36,1.62,25.63,25.63,0,0,1-2.41,2.81c-.4.29-1.84-.28-2.21-1.52" fill="none" stroke="#d77f68" stroke-linecap="round" stroke-linejoin="round" stroke-width="0.71" fill-rule="evenodd"/><path d="M129.22,80.86a2.74,2.74,0,0,1-1.62-1.26" fill="none" stroke="#d77f68" stroke-linecap="round" stroke-linejoin="round" stroke-width="0.71" fill-rule="evenodd"/><path d="M100.32,218.53l3.14,6.5.84,10a75.49,75.49,0,0,1,4.06,7.13c.6,1.65,2.71,15.09,2.93,17.56S100.61,371.86,99.11,391.61a299.2,299.2,0,0,0,.41,43.06c.2,1.92-9.08,5.21-12.48,5.49A38.89,38.89,0,0,1,77.63,439l-.06,0h0c-1.31-.34-1.39-2-1.39-2l-.9-34.73h0c.1-5.17.1-19.62-.11-25.62-.22-6.31-3.21-116-3.21-116l8.72-39.22Z" fill="#202023" fill-rule="evenodd"/><path d="M45,219.05l-1.43,4.69s-4.54,3-4.82,4.53-1.6,4.81-2,7,1.89,7.5,1.18,9.15-4.58,82.34-4.58,91.92-.28,9.16-.72,16.54h0l-3,83a3.05,3.05,0,0,0,2.65,3.44c3.12.73,15.14.19,17.29-.27a12.35,12.35,0,0,0,3.21-1.54c1.43-1.24,1-21.81,1.28-25s6.58-66.79,8.3-77.49S75,251.92,77.54,241.5s12.25-16.11,12.25-16.11Z" fill="#202023" fill-rule="evenodd"/><path d="M104,224.82a119.68,119.68,0,0,1-37.57,2.76C46.25,225.69,81.35,213.65,90.92,217S104,224.82,104,224.82Z" fill="#de8d4d" fill-rule="evenodd"/><path d="M57.41,112.14l-23.53,7.92s6.34,9.51,3.29,36.71c0,0,6.64,32,6.64,36.33S40,208.05,40,210.81c0,2.56,29.33,20.18,58.48,9.94,8.75-3.08,6.51-7.66,6-10.21-4-18.39-3.23-32.77-4.07-38.09-.91-5.81,4.58-16.17,4.58-16.17l-5.81-37.6L82.83,112Z" fill="#fff" fill-rule="evenodd"/><polygon points="59.52 95.12 79.95 95.12 79.95 117.78 71.83 117.78 59.52 112.99 59.52 95.12" fill="#d77f68" fill-rule="evenodd"/><polygon points="59.52 107.36 74.28 117.78 80.07 107.72 82.83 111.96 80.11 126.27 74.28 117.78 67.74 126.43 57.41 112.14 59.52 107.36" fill="#dbdadb" fill-rule="evenodd"/><path d="M71.3,238.75c0,5.22-2.9,6.38-2.9,6.38-3.33,2.61-33.23,12.05-34.24,11.47S32.63,253,32.63,253c2.88-19.76,3.3-37.69,7.48-57.07-1.53-2.11.43-3.19.43-3.19,0-1.31-3.7-34.83-3.7-34.83,4-23.23-3-37.83-3-37.83s17.33-7.26,18.2-7.33a2.65,2.65,0,0,1,1.68.64c4.25,15,10.11,29.33,11.56,43.39C68.1,183.63,64.54,209.7,71.3,238.75Z" fill="#4d4c4e" fill-rule="evenodd"/><path d="M83.75,112.33a4.18,4.18,0,0,1,1.17-.06c.44.07,13.73,5.62,14,5.8s.62.29,1.2,3.26,4.89,31.07,5,32.12a65.12,65.12,0,0,1,.75,8c.14,18.64,8.56,83.75,8.42,86.34-.1,1.88-3.91,4.06-4.93,4.86s-1.52.8-3.7-.15-13.2-11.31-13.2-11.31a9.72,9.72,0,0,1-2-6.38c1.85-49.91,3.29-74.29-5.69-122Z" fill="#4d4c4e" fill-rule="evenodd"/><rect x="6.16" y="181.49" width="60.13" height="48.51" rx="2.48" fill="#b36d3d"/><path d="M37.87,160.45c-1.57,3-25.56,33-25.56,33L2,189.75H2s-4.06-5.87.05-17.35c6.13-14.07,13.75-28.14,19.89-42.21,0,0,3-7,12-10.13C38.9,126.32,44.46,147.86,37.87,160.45Z" fill="#3d3d3d" fill-rule="evenodd"/><path d="M85.86,72.5h.47a6.25,6.25,0,1,1-4.87,2.27c.22,1.84,1,4,3.31,3.78L84,75A2.15,2.15,0,0,1,85.86,72.5Z" fill="#d77f68" fill-rule="evenodd"/><path d="M45.54,81l-.44.17h0a6.25,6.25,0,1,0,5.36.19c.53,1.78.7,4.07-1.57,4.77l-.65-3.55A2.15,2.15,0,0,0,45.54,81Z" fill="#d77f68" fill-rule="evenodd"/><path d="M72.13,107.41c-11.43,2.41-23.93-9.67-26.28-20.8L42.73,71.83A21.47,21.47,0,0,1,59.25,46.46h0A21.48,21.48,0,0,1,84.63,63l3.05,14.47C90.26,89.65,84.76,104.74,72.13,107.41Z" fill="#e6ad83" fill-rule="evenodd"/><path d="M78.9,84a3,3,0,1,0,3.55,2.23A3,3,0,0,0,78.9,84Z" fill="#d7766d" fill-rule="evenodd"/><path d="M56.44,89.17A3,3,0,1,0,60,91.4,3,3,0,0,0,56.44,89.17Z" fill="#d7766d" fill-rule="evenodd"/><path d="M57.51,72.59a.9.9,0,0,1,.68,1.07.91.91,0,0,1-1.07.68A5.87,5.87,0,0,0,52,75.76a.9.9,0,0,1-1.25-1.29A7.73,7.73,0,0,1,57.51,72.59Z" fill="#202023" fill-rule="evenodd"/><path d="M78.3,68.6a.9.9,0,1,1-.52,1.72,5.86,5.86,0,0,0-5.21,1,.9.9,0,1,1-1.15-1.39A7.8,7.8,0,0,1,78.3,68.6Z" fill="#202023" fill-rule="evenodd"/><path d="M67.66,83.48a18.74,18.74,0,0,1,1.71,3.09c0,.46-2.22,1.37-3,.91-.49-.31-.35-2.15-.16-3.41C66.53,82.36,66.83,82.16,67.66,83.48Z" fill="#ebbf9e" fill-rule="evenodd"/><path d="M73.27,91a4.5,4.5,0,0,1-8.81,1.86.83.83,0,0,1,.64-1l7.19-1.52A.84.84,0,0,1,73.27,91Z" fill="#202023" fill-rule="evenodd"/><path d="M65.55,91.83l6.29-1.33.16.74a.72.72,0,0,1-.56.85l-4.88,1a.73.73,0,0,1-.86-.56Z" fill="#fff" fill-rule="evenodd"/><path d="M72.7,94.33a4.51,4.51,0,0,1-6.38,1.35,4.42,4.42,0,0,1,2.9-2A4.49,4.49,0,0,1,72.7,94.33Z" fill="#d26070" fill-rule="evenodd"/><path d="M45.73,86c1.13-.75,1.73-4.2.29-8.63,0,0,5.51-6.16,1.79-12.32S38.62,62,38.62,62,35.43,65.82,43,82.65C44.73,82.6,44.82,84.9,45.73,86Z" fill="#202023" fill-rule="evenodd"/><path d="M87.62,77.18C86.29,77,84.35,74,83.87,69.41c0,0-7.53-3.4-6.62-10.55s7.16-6.54,7.16-6.54S88.88,54.53,88.74,73C87.15,73.65,88,75.78,87.62,77.18Z" fill="#202023" fill-rule="evenodd"/><path d="M63.64,78.27l4.46-.94a3.39,3.39,0,0,1,.54-1.85,3.33,3.33,0,0,1,2.1-1.43l11.54-2.44a3.31,3.31,0,0,1,2.49.47l0,0a3.3,3.3,0,0,1,1.39,2.06l.48,2.27a5,5,0,0,1-3.82,5.87l-8.34,1.76a5,5,0,0,1-3.73-.7h0a4.93,4.93,0,0,1-2.14-3.12l-.35-1.63L64,79.53l.35,1.63A5,5,0,0,1,60.49,87l-8.34,1.76a4.87,4.87,0,0,1-3.72-.7h0A4.9,4.9,0,0,1,46.29,85l-.48-2.27a3.31,3.31,0,0,1,.46-2.49,3.35,3.35,0,0,1,2.09-1.44l11.55-2.43a3.26,3.26,0,0,1,2.45.44l0,0a3.3,3.3,0,0,1,1.24,1.47Zm-3.46-.66L48.63,80.05a2,2,0,0,0-1.55,2.38l.48,2.27a3.66,3.66,0,0,0,4.32,2.82l8.35-1.76a3.69,3.69,0,0,0,2.3-1.58A3.65,3.65,0,0,0,63,81.43l-.48-2.27a2,2,0,0,0-.87-1.27l0,0a2.05,2.05,0,0,0-1.48-.26Zm22.37-4.72L71,75.32a2,2,0,0,0-1.55,2.39L69.93,80a3.67,3.67,0,0,0,4.33,2.82L82.6,81a3.67,3.67,0,0,0,2.3-1.59,3.62,3.62,0,0,0,.51-2.74l-.48-2.27a2,2,0,0,0-.83-1.25l0,0A2,2,0,0,0,82.55,72.89Z" fill="#272525" fill-rule="evenodd"/><path d="M59.78,83.15a.65.65,0,1,1-1.27.27,2.12,2.12,0,0,0-.91-1.33h0A2.11,2.11,0,0,0,56,81.8a2.07,2.07,0,0,0-1.33.91h0a2.1,2.1,0,0,0-.29,1.58.65.65,0,1,1-1.27.27A3.39,3.39,0,0,1,53.59,82h0a3.41,3.41,0,0,1,2.15-1.48,3.45,3.45,0,0,1,2.56.48h0A3.41,3.41,0,0,1,59.78,83.15Z" fill="#202023" fill-rule="evenodd"/><path d="M80.28,78.83a.66.66,0,0,1-.51.77.65.65,0,0,1-.77-.5,2.09,2.09,0,0,0-.91-1.33h0a2.06,2.06,0,0,0-1.58-.3,2.09,2.09,0,0,0-1.33.91h0A2.13,2.13,0,0,0,74.88,80a.65.65,0,0,1-1.27.27,3.39,3.39,0,0,1,.47-2.56h0a3.4,3.4,0,0,1,4.71-1h0A3.44,3.44,0,0,1,80.28,78.83Z" fill="#202023" fill-rule="evenodd"/><path d="M80.46,223.91c.67,0,1.33,0,2-.06a22.42,22.42,0,0,0,.77-7.4c-.08-1.17-.38-5.14-.76-10.42-2.55-34.56-2.46-53.54-7.06-88.37a1,1,0,0,0-1.1-.84,1,1,0,0,0-.83,1.09c4.54,34.85,4.49,53.68,7,88.26.39,5.32.68,9.33.76,10.41a19.65,19.65,0,0,1-.78,7A1,1,0,0,0,80.46,223.91Z" fill="#dbdadb" fill-rule="evenodd"/><path d="M84.41,52.32C77.77,22.56,41.28,40.7,36.77,53.88c-.06.17,0,.57-.16.5C25.94,49.25,35.51,68,44.89,67.31S65.76,65,74.74,59c0,0,2-1.73,3.24,1.19s6.72-1.65,6.72-1.65Z" fill="#202023" fill-rule="evenodd"/><path d="M70.41,104.69a2.07,2.07,0,0,1,1.43.45,2.07,2.07,0,0,1,1.74-.17,2.73,2.73,0,0,1,2-.22,6.27,6.27,0,0,1,2.16-.53c.55.13.62,3.87-7,4.44s-8.1-3.12-7.57-3.33a6.34,6.34,0,0,1,2.22.2,2.7,2.7,0,0,1,2-.09,2.09,2.09,0,0,1,1.74-.09A2.09,2.09,0,0,1,70.41,104.69Z" fill="#202023" fill-rule="evenodd"/><path d="M27,229.23c1.61,2.3,3.45,7.25,7.12,7.94a55.93,55.93,0,0,0,10.8.55c4.26-.28,3-1,2.08-4.81,0,0,2.64-2.3,2.64-3s-2.3-6.66-2.3-6.66L37.26,218.2S25.53,223.49,27,229.23Z" fill="#e6ad83" fill-rule="evenodd"/><path d="M35.43,237.36l.88.1a26.52,26.52,0,0,0-1.5-3.36.4.4,0,0,0-.56,0,.39.39,0,0,0,0,.55,27.4,27.4,0,0,1,1.18,2.71Zm4.07.34.85,0a32.93,32.93,0,0,0-1.81-4.1.39.39,0,0,0-.55,0,.4.4,0,0,0,0,.56s.11.11,1.51,3.5Zm4.14.07c.29,0,.56,0,.83,0a46.74,46.74,0,0,0-2.36-5.45.4.4,0,0,0-.56,0,.39.39,0,0,0,0,.55s.14.15,2.09,4.93ZM47.31,234a.39.39,0,0,1-.41-.24c-2.61-6.48-2.79-6.65-2.79-6.65a.4.4,0,0,1,0-.56.39.39,0,0,1,.55,0,55.77,55.77,0,0,1,2.64,6.13l-.27.24C47.12,233.3,47.22,233.66,47.31,234Z" fill="#d07954" fill-rule="evenodd"/><path d="M37.48,212.07c3.57,6.8,3.91,6.36,2.43,8.14,0,0-9.64,4.71-13,9.81a4.23,4.23,0,0,1-2.82-1.85C22.72,226.38,2,189.94,2,189.94s-4.66-9.67.15-14.22c1.94-1.84,5.55-5.75,8.35-6.39l3.48-6C20.14,173.59,33.91,205.28,37.48,212.07Z" fill="#3d3d3d" fill-rule="evenodd"/></g></g></svg>