<svg xmlns="http://www.w3.org/2000/svg" viewBox="0 0 92.72 180.62"><g style="isolation:isolate"><g id="Layer_2" data-name="Layer 2"><g id="OBJECTS"><path d="M45.72,37.79a6.31,6.31,0,1,1-6.3-6.47A6.39,6.39,0,0,1,45.72,37.79Z" fill="#5c311e"/><path d="M56.1,168.73c-1.64-1.67-5-1.61-5.85.91-.31.8-1.76,3.19-.39,9.82H51v-3.21l0-.35c.17.62.39,1.28.62,2,1,3.15,7.57,3.25,9.34,1.92.49-.36-.6-1.19-1.56-3.33C58.25,173.77,57,169.61,56.1,168.73Z" fill="#383e46"/><path d="M57.06,171.61a53.44,53.44,0,0,1-1.45-5.26c.37-7,1.58-66.82-1-73.83l-9.74,2.33,6.57,70a29,29,0,0,0,0,5.59c.43,3.07,4.44,6.86,6,6.49C58.46,176.72,57.69,173.6,57.06,171.61Z" fill="#f0a98f"/><path d="M43.56,168.42c-1.65-3.92-4.86,2.09-4.86,2.09a15.87,15.87,0,0,1-3.7,4c-3.45,2.49-8.17,5.1-5.28,5.67a13.76,13.76,0,0,0,7.39-.54,15.53,15.53,0,0,0,5.34-4L42,179.45l1.3-.15A14,14,0,0,0,43.56,168.42Z" fill="#383e46"/><path d="M37.48,92.1c-2.22,6.74.66,60.49,1.49,71.94a12.79,12.79,0,0,1-1.72,6.72,39.52,39.52,0,0,1-4.63,6c2.76.72,4.8-.64,6.44-1.88a10.2,10.2,0,0,0,3.61-5.39,15,15,0,0,0,.58-3.37L47.5,94.9Z" fill="#f0a98f"/><path d="M51.68,122c.17-6.82.38-14.85.38-14.85l2.24,14.69c.74,0,1.48-.12,2.21-.2,1-.1,2-.22,3-.35a153.41,153.41,0,0,0,.34-16.2c-.36-10.08-2.44-20.87-5.14-24.47l-18.5,3.09s-2.6,5.21-3.7,17.47a156.91,156.91,0,0,0-.25,19.7A91.51,91.51,0,0,0,51.68,122Z" fill="#22272e"/><path d="M39.11,77.85c-.32-1.23-6.58-29.33-6.58-29.33s16.72-4.94,27.41,0L53.09,78.13Z" fill="#9dcad1"/><path d="M57.76,87.41c-1.13,1.69-5.17,2.2-9.58,2.2l-1.88-5-2,4.93c-5.17-.28-9.83-1-9.83-1a.61.61,0,0,1,0-.13,1,1,0,0,1,0-.15c.1-.45.26-1,.46-1.72.07-.21.13-.43.2-.66,0,0,0,0,0,0,.08-.25.16-.49.23-.75l.09-.27c0-.17.11-.34.16-.52l.18-.54.27-.83.09-.27c0-.09.07-.19.1-.29s.15-.45.22-.68c.17-.48-.45-1-.29-1.44A14.88,14.88,0,0,0,37,75.67h0c0-.41,1-.69,1.06-.8l14.55-1.12,1,1.85h0Z" fill="#ebe6e2"/><path d="M32.53,48.52l2,8.54s-4.31,4.29,1.65,8.34L38.7,75.66,34.44,88.52l9.83,1,2-4.93,1.86,5s7.62,0,9.52-2.2L53.5,75.6,56,65.24s4.82-2.56,2-8c0,0,2.44-8.08,2-8.76s-5.67-1.7-5.67-1.7L45.55,66.75,37.24,47.42Z" fill="#3e4753"/><rect x="42.59" y="35.78" width="6.47" height="13.87" rx="2.91" fill="#d8826c"/><path d="M38.56,47.15c-.42-.9,4.35-4.42,4.35-4.42s.72,4.69,3,6.06L42.12,54S40.48,51.26,38.56,47.15Z" fill="#d7eef2"/><path d="M53.26,47.15c.42-.9-4.1-4.39-4.1-4.39s-1,4.66-3.23,6L49.7,54S51.35,51.26,53.26,47.15Z" fill="#d7eef2"/><path d="M36.64,64.22s8.43,4.11,18.91-.83C55.55,63.39,47.33,74.7,36.64,64.22Z" fill="#ded9d5" style="mix-blend-mode:multiply"/><path d="M47,67.3A1.08,1.08,0,1,1,46,66.22,1.08,1.08,0,0,1,47,67.3Z" fill="#22272e"/><path d="M47.18,74.7a1.08,1.08,0,1,1-1.08-1.08A1.08,1.08,0,0,1,47.18,74.7Z" fill="#22272e"/><path d="M47.18,82.1A1.08,1.08,0,1,1,46.1,81,1.08,1.08,0,0,1,47.18,82.1Z" fill="#22272e"/><path d="M5.45,74.32l-1.85,4c.64.32,1.26.6,1.87.88C18,84.71,25,81.78,25,81.78A65.5,65.5,0,0,0,34.09,61c2-8.21-1.65-12.56-1.65-12.56-3.65,5.89-10.09,26.69-10.09,26.69l-15-.71Z" fill="#3e4753"/><path d="M5.45,74.32l-1.85,4c.64.32,1.26.6,1.87.88l1.9-4.74Z" fill="#9dcad1"/><path d="M86.7,74.32l1.85,4c-.64.32-1.26.6-1.87.88C74.14,84.71,67.2,81.78,67.2,81.78A65.5,65.5,0,0,1,58.06,61c-2-8.21,1.65-12.56,1.65-12.56C63.36,54.32,69.8,75.12,69.8,75.12l15-.71Z" fill="#3e4753"/><path d="M86.7,74.32l1.85,4c-.64.32-1.26.6-1.87.88l-1.9-4.74Z" fill="#9dcad1"/><path d="M61.31,21.24c0,10-5.43,17.68-15.35,17.68S29.44,29.18,29.44,19.19,36,2.74,46,2.74,61.31,11.25,61.31,21.24Z" fill="#5c311e"/><path d="M58.77,25.17c0,9.45-4.27,14.71-11.47,14.87-7.66.16-14.6-5.42-14.6-14.87S35.62,6,45.74,6C55.64,6,58.77,15.73,58.77,25.17Z" fill="#f0a98f"/><path d="M58.9,23.52s3.58-4.89,4.62-.19c.82,3.73-2.52,6.49-4.59,5.79S58.9,23.52,58.9,23.52Z" fill="#f0a98f"/><path d="M58.86,24.39S61.4,21.31,62,22.76a5.72,5.72,0,0,1,.27,3.16S62,24,60.5,24.87c0,0,1.1,3.21-1.65,2A1.82,1.82,0,0,1,58.86,24.39Z" fill="#d8826c"/><path d="M32.71,23.52s-3.58-4.89-4.61-.19c-.83,3.73,2.51,6.49,4.58,5.79S32.71,23.52,32.71,23.52Z" fill="#f0a98f"/><path d="M32.75,24.39s-2.53-3.08-3.18-1.63a5.67,5.67,0,0,0-.26,3.16s.26-2,1.8-1.05c0,0-1.1,3.21,1.65,2A1.81,1.81,0,0,0,32.75,24.39Z" fill="#d8826c"/><path d="M41.37,5s3.9-7.81,9.87-3.91S64.81,13.23,66.66,7.26c0,0-2.88,15.83-14.6,8.23S41.37,5,41.37,5Z" fill="#5c311e"/><path d="M46.3,6.85a44.35,44.35,0,0,1-14,15.22,12.38,12.38,0,0,1-2.46-6.58C29.6,8.09,35.82-5.9,46.3,6.85Z" fill="#5c311e"/><path d="M46.3,6.85l-2.67.41A12.22,12.22,0,0,0,52.27,19S46.1,13.43,46.3,6.85Z" fill="#5c311e"/><path d="M45.7,28.64s1.64,2.77,3.41-.06Z" fill="#d8826c"/><path d="M36.66,18.76s3.13-4.22,8-.63A10.14,10.14,0,0,0,36.66,18.76Z" fill="#361d11"/><path d="M50.31,18.06s3.66-3.65,7.6.69A9.24,9.24,0,0,0,50.31,18.06Z" fill="#361d11"/><path d="M44,23A3.32,3.32,0,1,1,40.7,19.7,3.32,3.32,0,0,1,44,23Z" fill="#fff"/><path d="M42.77,22.81c0,1.51-.93,2.73-2.07,2.73s-2.07-1.22-2.07-2.73.92-2.74,2.07-2.74S42.77,21.3,42.77,22.81Z" fill="#5b6f7f"/><path d="M42.17,22.81a1.76,1.76,0,0,1-1.47,1.94c-.82,0-1.47-.87-1.47-1.94s.65-1.95,1.47-1.95S42.17,21.73,42.17,22.81Z" fill="#400404"/><path d="M42.26,21c0,.29-.34.53-.76.53s-.76-.24-.76-.53.35-.53.76-.53S42.26,20.67,42.26,21Z" fill="#fff"/><path d="M44,23a3.29,3.29,0,0,0-1.82-3.21c-3.19-1.64-4.93,2.16-6,2.78,0,0,.67.66,1.15.43C37.38,23,40.85,17.34,44,23Z" fill="#302725"/><path d="M50.07,23a3.32,3.32,0,1,0,3.32-3.31A3.32,3.32,0,0,0,50.07,23Z" fill="#fff"/><path d="M55.28,22.81a2.5,2.5,0,0,1-2.19,2.73,2.5,2.5,0,0,1-2.19-2.73,2.51,2.51,0,0,1,2.19-2.74A2.51,2.51,0,0,1,55.28,22.81Z" fill="#5b6f7f"/><path d="M54.64,22.81a1.59,1.59,0,1,1-3.11,0,1.6,1.6,0,1,1,3.11,0Z" fill="#400404"/><path d="M54.74,21c0,.29-.36.53-.8.53s-.8-.24-.8-.53.36-.53.8-.53S54.74,20.67,54.74,21Z" fill="#fff"/><path d="M50,22.61a2.82,2.82,0,0,1,1.81-2.85c3.19-1.46,4.94,1.91,6,2.46,0,0-.67.59-1.16.39C56.64,22.61,53.17,17.57,50,22.61Z" fill="#302725"/><path d="M51.78,29.62a11.93,11.93,0,0,1-1.22,2.58,8.22,8.22,0,0,1-.52.73c-1.12,1.39-2.8,2.34-5,.58a10.44,10.44,0,0,1-1.83-2c-.34-.46-.69-1-1.06-1.58C42.36,30.08,47.32,32.71,51.78,29.62Z" fill="#712311"/><path d="M51.78,29.62s-1.72,4.6-8.56,1.93c-.34-.46-.69-1-1.06-1.58C42.36,30.08,47.32,32.71,51.78,29.62Z" fill="#fff"/><path d="M50,32.93c-1.12,1.39-2.8,2.34-5,.58C46.24,32.85,48.52,31.87,50,32.93Z" fill="#d5503b"/><path d="M43.51,28.28C43.51,29.79,42,31,40,31s-3.48-1.22-3.48-2.73S38.1,25.56,40,25.56,43.51,26.78,43.51,28.28Z" fill="#f08671"/><path d="M57.27,28.28c0,1.51-1.56,2.73-3.48,2.73s-3.48-1.22-3.48-2.73,1.56-2.72,3.48-2.72S57.27,26.78,57.27,28.28Z" fill="#f08671"/><path d="M34.17,29.26a1,1,0,1,1-1-1A1,1,0,0,1,34.17,29.26Z" fill="#fff700"/><path d="M60.08,29.67a1,1,0,1,1-1-1A1,1,0,0,1,60.08,29.67Z" fill="#fff700"/><path d="M46.92,53.52a.62.62,0,0,1-.62.62.61.61,0,0,1-.61-.62.61.61,0,0,1,.61-.61A.61.61,0,0,1,46.92,53.52Z" fill="#d7eef2"/><path d="M46.92,58.46a.61.61,0,0,1-.62.61.61.61,0,0,1-.61-.61.61.61,0,0,1,.61-.62A.62.62,0,0,1,46.92,58.46Z" fill="#d7eef2"/><polygon points="1.69 52.09 2.92 98.14 88.45 101.43 92.57 47.97 1.69 52.09" fill="#eddbc3"/><path d="M92,72.24a2.35,2.35,0,0,0-2-.74,5.08,5.08,0,0,0-2.07.53c-1.5.84-1.42,1.68.4,1.64-3.71.31-1.58,3.34,1.17,3.57-.31,0-2.57-.24-1.31.6s4.72-.34,4.39-2.57A3.34,3.34,0,0,0,92,72.24Z" fill="#f0a98f"/><path d="M.68,72.24a2.35,2.35,0,0,1,2-.74A5.16,5.16,0,0,1,4.79,72c1.49.84,1.41,1.68-.41,1.64C8.09,74,6,77,3.21,77.24c.32,0,2.57-.24,1.31.6S-.2,77.5.14,75.27A3.34,3.34,0,0,1,.68,72.24Z" fill="#f0a98f"/></g></g></g></svg>