<svg xmlns="http://www.w3.org/2000/svg" viewBox="0 0 105.92 417.92"><g id="Layer_2" data-name="Layer 2"><g id="Layer_1-2" data-name="Layer 1"><path d="M33.12,31,29.65,48s3,4.18-.48,10.55-4.25,12.86,3.64,16.87,25,2.18,25,2.18Z" fill="#342a60" fill-rule="evenodd"/><path d="M93,200.18a172.56,172.56,0,0,1,1.29,26.68c-1.18,32.79-.08,70-.08,76s-12.25,62.27-12,79.67-.55,1.51-1.68,1.79S71.82,392.08,69.9,391c0,0-.25-6-.15-7,1-10.56-1.76-71.44,1.12-85.32L53.45,209.86s-.56-4-1.21-9.68Z" fill="#f2ba95" fill-rule="evenodd"/><path d="M94.32,217.31c.1,3.18.1,6.38,0,9.55-.21,5.82-.35,11.78-.43,17.68a229.63,229.63,0,0,1-32.59,5.25l-6.39-32.6c9.93-.89,17.84-1.38,20.66-1.05C79.22,216.56,86.57,216.94,94.32,217.31Z" fill="#ee8b83" fill-rule="evenodd"/><path d="M52.88,200.18c.16,2.67.35,5.21.58,7.51L53,282.51c2,34-2.43,71.56,1.1,104.18l1.84,7.5-2.52,11.36c-2.17,6.89-12.84,13.06-13.73-.08,0,0,3.42-18.11,3.33-19.27-2.6-34.65-17.7-71.78-15.25-105.91C22,250.62,13.57,226.12,13,200.18Z" fill="#f2ba95" fill-rule="evenodd"/><path d="M53.4,217.32l-.22,33.05a184.49,184.49,0,0,1-32.35-1c-2.25-9.57-4.34-18.79-5.8-28C27.11,220,41.54,218.4,53.4,217.32Z" fill="#ee8b83" fill-rule="evenodd"/><path d="M80.38,147.45c1.27,0,.53,8.63,1.82,9.61,6.82,5.19,8.15,11.66,9.92,18.62,5.07,19.88,13.67,57.55,13.8,58.13.17.75-5,4-7.74,4.36l.34,1.13a.84.84,0,0,1-.63.67c-.57.18-11.78,4.87-29.33,4.77,0,0-.83-.15-1-.53a6.12,6.12,0,0,1-.29-1.2s-28.6,1.25-47.41-2.16a2.47,2.47,0,0,1-1.61-2.41s-10.34-4.07-16.88-6.08c0,0-1.84-.84-1.26-3.61C4.85,206.11,14.17,165.4,24,155.92l1.1-7.82s-.28-1.1,1.55-1.7A252,252,0,0,0,80.38,147.45Z" fill="#5b528b" fill-rule="evenodd"/><path d="M40.51,395.22c-.22-3.38.75-4.68,3.59-4.68h6.74c2.21,0,4.5.76,4.5,3.38v14.76H42.13Z" fill="#443b72" fill-rule="evenodd"/><path d="M57.38,415.44l.81-1.34v-5c0-2.24-1.36-10.8-1.61-13.2s-2-2.8-3-.8-3.66,12-3.66,12Z" fill="#5b528b" fill-rule="evenodd"/><path d="M38.4,415.44l-.81-1.34v-5c0-2.24,1.36-10.8,1.61-13.2s2-2.8,3-.8,3.65,12,3.65,12Z" fill="#5b528b" fill-rule="evenodd"/><path d="M41.92,396.64a.41.41,0,0,1-.51-.24.38.38,0,0,1,.25-.48s4.78-1.59,12.53,0a.38.38,0,0,1,.31.45.4.4,0,0,1-.48.29c-7.53-1.54-12.09,0-12.1,0Zm0,9.53a.41.41,0,0,1-.51-.23.37.37,0,0,1,.25-.48s4.78-1.6,12.53,0a.37.37,0,0,1,.31.44.4.4,0,0,1-.48.29c-7.53-1.53-12.09,0-12.1,0Zm0-2.38a.41.41,0,0,1-.51-.24.37.37,0,0,1,.25-.48s4.78-1.59,12.53,0a.38.38,0,0,1,.31.45.41.41,0,0,1-.48.29c-7.53-1.54-12.09,0-12.1,0Zm0-2.38a.41.41,0,0,1-.51-.24.37.37,0,0,1,.25-.48s4.78-1.59,12.53,0a.37.37,0,0,1,.31.45.41.41,0,0,1-.48.29c-7.53-1.54-12.09,0-12.1,0Zm0-2.39a.41.41,0,0,1-.51-.24.36.36,0,0,1,.25-.47s4.78-1.6,12.53,0a.37.37,0,0,1,.31.44A.4.4,0,0,1,54,399C46.49,397.5,41.93,399,41.92,399Z" fill="#fff" fill-rule="evenodd"/><path d="M39.1,415.2,38,414.08s2-7.6,7.94-7.6h5.27c1.65,0,6.71,2.6,6.71,7.6l-1.62,1.81Z" fill="#fff" fill-rule="evenodd"/><rect x="36.72" y="414.08" width="22.12" height="3.84" rx="1" fill="#fff"/><path d="M72.73,388.26a2.78,2.78,0,0,0-2.19-1.45L69.75,384s-.81.17-1,.54-1,1.78-1,1.78a2.32,2.32,0,0,0-.51,1.66c.1,1,.64,7.18.64,7.18a6.91,6.91,0,0,0,.81,2.6c.64.94,5.3,5.67,5.3,5.67l1.62,10.35s.91,4.18,4.58,4.18h9.21c2.5,0,4.18-1.08,4.18-3.6s1.22-6.92-7.35-19c0,0-1-7.25-1.48-8.63a1.91,1.91,0,0,0-1.52-1.45.08.08,0,0,1,0-.07c0-1.33-1.64-2.8-3.55-2.8H74.14c-1.56,0-2,1.79-2,2.84A19.4,19.4,0,0,0,72.73,388.26Z" fill="#443b72" fill-rule="evenodd"/><path d="M93.56,414.54v-.22c0-2.53,1.22-6.92-7.35-19,0,0-1-7.25-1.48-8.63a1.91,1.91,0,0,0-1.52-1.45l1.26,10.15a12.21,12.21,0,0,0,.42,1.91c.27.79,5.55,11.62,5.55,11.62S91.5,414.82,93.56,414.54Z" fill="#5b528b" fill-rule="evenodd"/><path d="M72.73,388.26a2.78,2.78,0,0,0-2.19-1.45L69.75,384s-.81.17-1,.54-1,1.78-1,1.78a2.32,2.32,0,0,0-.51,1.66c.1,1,.64,7.18.64,7.18a6.91,6.91,0,0,0,.81,2.6c.64.94,5.3,5.67,5.3,5.67l1.62,10.35a6.44,6.44,0,0,0,2,3.33c1.64-.85,3-1.67,3-1.67s-1.18-7.44-.71-7-1.48-5.4-2.09-7.83-1.55-5.19-1.55-5.19Z" fill="#5b528b" fill-rule="evenodd"/><path d="M77.37,416.86a4.07,4.07,0,0,0,2.8,1.06h9.21c2.5,0,4.18-1.08,4.18-3.6,0-.17,0-.33,0-.5v-.48a8.13,8.13,0,0,0-8.1-8.1h0a8.13,8.13,0,0,0-8.11,8.1Z" fill="#fff" fill-rule="evenodd"/><path d="M67.79,394.24l.07.88a6.91,6.91,0,0,0,.81,2.6c.64.94,5.3,5.67,5.3,5.67l.17-1.93s-4.42-4.58-5.13-5.29A7.11,7.11,0,0,1,67.79,394.24Z" fill="#e4dedd" fill-rule="evenodd"/><path d="M75.22,411.41l.37,2.33s.91,4.18,4.58,4.18h9.21c2.5,0,4.18-1.08,4.18-3.6,0-.17,0-.33,0-.51h0s-.79,1.59-2.21,1.59H80.61C76.67,415.4,75.22,411.41,75.22,411.41Z" fill="#fff" fill-rule="evenodd"/><path d="M72.64,391.43a.48.48,0,1,1-.28-.91s9-2.81,12.55.09a.48.48,0,0,1-.61.73c-3.1-2.57-11.64.08-11.66.09ZM77.42,405a.48.48,0,0,1-.59-.32.46.46,0,0,1,.31-.59s9-2.81,12.56.08a.49.49,0,0,1,.06.68.48.48,0,0,1-.67.06c-3.11-2.57-11.64.08-11.67.09Zm-1-3.08s8.56-2.66,11.66-.09a.49.49,0,0,0,.68-.06.48.48,0,0,0-.07-.67c-3.5-2.9-12.53-.1-12.55-.09a.48.48,0,0,0-.32.59.48.48,0,0,0,.6.32ZM75,398.81a.47.47,0,0,1-.6-.32.47.47,0,0,1,.32-.59s9-2.81,12.55.09a.48.48,0,0,1-.61.73c-3.11-2.56-11.64.08-11.66.09Zm-1.49-3.61s8.56-2.65,11.67-.09a.48.48,0,1,0,.61-.73c-3.51-2.9-12.53-.1-12.56-.09a.48.48,0,0,0-.31.6A.46.46,0,0,0,73.51,395.2Z" fill="#fff" fill-rule="evenodd"/><path d="M19.61,229.69c-3-1.17-11.67-4.49-18.29-6.62q-.24,1.13-.48,2.22c6.9,2.23,16,5.75,18.42,6.7Z" fill="#fff" fill-rule="evenodd"/><path d="M67,234c-7,.21-30.73.68-47.69-2.21l-.34,2.24c17.16,2.91,41,2.45,48.11,2.23Z" fill="#fff" fill-rule="evenodd"/><path d="M97.08,231.63a102.74,102.74,0,0,1-30,4.48l.08,2.26a105.74,105.74,0,0,0,30.34-4.49Z" fill="#fff" fill-rule="evenodd"/><path d="M104,225.45l-2.1,1.26a27.12,27.12,0,0,1-5.24,2.46l.38,2.24a27.34,27.34,0,0,0,6-2.76,16.57,16.57,0,0,0,1.45-1Z" fill="#fff" fill-rule="evenodd"/><path d="M98.82,238.06a.65.65,0,1,1-1.28.22L86.27,171.41s-1.73-10.7-4.56-13.92a.65.65,0,1,1,1-.86c3.08,3.51,4.87,14.53,4.87,14.57l11.26,66.86Zm-79.92.48a.65.65,0,0,1-1.29-.2c0-.14,7.81-50.21,10.36-66.45a46.43,46.43,0,0,1,1.52-7.32,25,25,0,0,1,3.72-6.92.65.65,0,1,1,1.06.76A23.86,23.86,0,0,0,30.73,165a45,45,0,0,0-1.47,7.11C26.7,188.33,18.92,238.4,18.9,238.54Zm49,4.45a.65.65,0,1,1-1.3,0c0-.21-2.49-74-2.62-78a55.1,55.1,0,0,0-.37-5.54.65.65,0,1,1,1.29-.21A56.37,56.37,0,0,1,65.3,165C65.43,169,67.92,242.78,67.92,243Z" fill="#342a60" fill-rule="evenodd"/><path d="M39.9,70.23c-5.13,1.24-17.89,2.84-21.18,6,0,0,5.8,19.18,1.68,35.36l4.7,17.71a1.66,1.66,0,0,0-.3,2.26s-1.54,4.19-2.56,7.16c0,0-4,10.16-5.21,14.08a104.25,104.25,0,0,0-3,14.85c-.08,2.08.27,2.88.61,3.24a13.51,13.51,0,0,0-.11,3.07c.23.34,26.25,11.8,47.3,8.36s28.74-6.3,30.09-7.59.07-4.61.07-4.61a16.51,16.51,0,0,0,.88-6.44c-.5-5-10.14-23.12-13.08-30.6a1.67,1.67,0,0,0-.31-2.26L84,111.58c-4.12-16.18,1.68-35.36,1.68-35.36-3.29-3.15-16-4.75-21.18-6H39.9Z" fill="#c3b8b4" fill-rule="evenodd"/><path d="M53.47,80.47h0a1.78,1.78,0,0,0-1.6,1l-.1-.11C37,82.34,37.8,86.08,38,87a20.18,20.18,0,0,0,1.85,4.68c.9,1.6,3.6,1.9,6.71-1A50.09,50.09,0,0,0,51.72,85s-7.92,19.71-8.24,21.23a4.54,4.54,0,0,0,.5,3.63,20.06,20.06,0,0,0,4.38,4.2c.83.36,1.1-.6,1.1-.6.1-2.11,1.19-14.28,2.23-20.12a51.48,51.48,0,0,1,1.66-7.21h.24a52.74,52.74,0,0,1,1.65,7.21c1,5.84,2.14,18,2.24,20.12,0,0,.27,1,1.1.6a20.06,20.06,0,0,0,4.38-4.2,4.54,4.54,0,0,0,.5-3.63C63.13,104.7,55.22,85,55.22,85a50.53,50.53,0,0,0,5.18,5.66c3.11,2.91,5.81,2.61,6.71,1A19.73,19.73,0,0,0,69,87c.18-.9,1-4.64-13.8-5.61l-.09.11a1.78,1.78,0,0,0-1.6-1Zm-1.7,4.38c0,.07,0,.13.07.2L51.72,85l.05-.14Zm3.32.2c0-.07,0-.13.07-.19l.06.13Z" fill="#9d949c" fill-rule="evenodd"/><path d="M58.92,70.23H45.51a8.42,8.42,0,1,0,13.41,0Z" fill="#ebe7e9" fill-rule="evenodd"/><path d="M24,133.83c-.52,1.44-1.2,3.33-1.73,4.88,0,0-3.39,8.58-4.87,13l16.88-4.44a11.62,11.62,0,0,1,6.67-.67c3.43.57,37.38,3.79,47.22,4.71-1.7-3.69-3.59-7.62-5.22-11.11l-53.75-7.75Z" fill="#9d949c" fill-rule="evenodd"/><path d="M83.61,74.89c-.34-.16-.69-.31-1.07-.46a153.27,153.27,0,0,0-2.75,47.5h0l.24,2.42q.38-2.64.66-5.39A151.44,151.44,0,0,1,83.61,74.89Z" fill="#fff" fill-rule="evenodd"/><path d="M21.44,74.61l-1.05.48a151.82,151.82,0,0,1,7.34,43.7q.56,2.71,1.18,5.3v-2.43h0A153.63,153.63,0,0,0,21.44,74.61Z" fill="#fff" fill-rule="evenodd"/><path d="M14.26,170.31a1.55,1.55,0,0,0,.34.57l-.09.81c5.65,2.73,17.77,7.2,36.6,7.34A108.7,108.7,0,0,0,73.62,177c11-2.23,17.23-5.57,18.41-6.25h0l.08-.05c-.1-.34-.18-.55-.18-.55s.11-.29.25-.79l-.7.4,0,0c-1.15.66-7.23,3.92-18.07,6.12a107.36,107.36,0,0,1-22.28,2C31.56,177.76,19.39,172.91,14.26,170.31Z" fill="#9d949c" fill-rule="evenodd"/><path d="M63.23,68.35c-.95-1-1.29-2.38-1.29-4.43V56.76a22.59,22.59,0,0,0-19.45,0v7.1a6.89,6.89,0,0,1-1.28,4.4l-.47,2.5,11.47,4.55,11.48-4.55Z" fill="#f2ba95" fill-rule="evenodd"/><path d="M62,65.56a11.64,11.64,0,0,1-.1-1.64V56.76a22.59,22.59,0,0,0-19.45,0v7.1A8.23,8.23,0,0,1,42,67a46.94,46.94,0,0,0,6,3.31,12.57,12.57,0,0,0,10.6-1.47A33.55,33.55,0,0,0,62,65.56Z" fill="#ee8b83" fill-rule="evenodd"/><path d="M85.71,76.22A16,16,0,0,1,93,87.5c.84,6.11,2.74,30,3.53,40.17,1,13.36-3.66,17.55-16.49,17.65-9.07.06-19,0-37.65-1.18A2.31,2.31,0,0,1,42,142.5c0-1.19-.39-10.6,2.21-14.1a3.28,3.28,0,0,1,2.48-1c1.57,0,32.94-1.49,32.94-1.49a2,2,0,0,1,2.1-1.24S79.24,85,85.71,76.22Z" fill="#fff" fill-rule="evenodd"/><path d="M95.44,113.46c.42,5.23.81,10.15,1.08,13.65l-4.58-2a1.55,1.55,0,0,0-1.9.56c-.83,1.08-3.85,4.24-3.85,4.24l5.62,1.6s.24.1.09.28a2.71,2.71,0,0,1-2,.24c-1-.18-4.26-.69-4.26-.69a2.88,2.88,0,0,0-2.05.45c-.82.66-17.19,9.61-23.81,13.23-4.88-.19-10.54-.47-17.36-.89A2.31,2.31,0,0,1,42,142.5c0-1.19-.39-10.6,2.21-14.1a3.28,3.28,0,0,1,2.48-1c1.57,0,32.94-1.49,32.94-1.49a2,2,0,0,1,2.1-1.24s-.13-2.17-.25-5.61l3.16.64,2.07-5.45s-2.33-1.56-2-1.77,7.06-6.3,7.06-6.3l-1.61,5.3a51.26,51.26,0,0,0,4.93,2A1.89,1.89,0,0,1,95.44,113.46Z" fill="#e4dedd" fill-rule="evenodd"/><path d="M59.94,124.67s17.58-3,18.39-3.1,1.76-5.25,3.36-8.18a20.48,20.48,0,0,1,1.58-2.74c.59-.72,6.55-6.24,7.51-6.9s1.5,1.09.91,2.4-5.4,6.49-5.4,6.49,3.24-1.74,3.78-2a3.32,3.32,0,0,1,2.54.15c1,.43,2.66,1,3.07,1.21a2.11,2.11,0,0,1,1,1.62,1.7,1.7,0,0,1-1.14,1.56l-.06-.65s-3.24-.82-3.75-.84-1.59,1-2.54,1.75l4.37.43a1.92,1.92,0,0,1,1.24.69c.48.61,1.42,1.77,1.77,2.22a1.55,1.55,0,0,1-.54,2.55l0-.48-2.4-1.71a1,1,0,0,0-1-.13c-.53.22-2.75,1.48-2.75,1.48s2.06.13,2.54.18a2.15,2.15,0,0,1,1.42.61c.43.44,1.88,1.94,2.39,2.44a1.35,1.35,0,0,1,.46,1.36c-.11.33-.88.51-1.77,0s-2.44-1.44-2.44-1.44-2.19.1-3.21,0c0,0-4.41,6.05-7.11,7.23s-22,6.34-22,6.34Z" fill="#f2ba95" fill-rule="evenodd"/><path d="M18.72,76.22S14,79.67,12.92,87.5c-.85,6.11-2.74,30-3.53,40.17-1,13.36,3.66,17.55,16.48,17.65,8.17.06,27-4.47,39.71-7.19a2,2,0,0,0,1.22-1.87c0-1.44-1.35-12.82-1.35-12.82s-.44-1.55-2.76-1.55S29,125.51,29,125.51s-2-8.42-3-11.68a3.49,3.49,0,0,1-.06-.65C24.61,99.18,22,78.22,18.72,76.22Z" fill="#fff" fill-rule="evenodd"/><path d="M70.89,122.76a1.18,1.18,0,0,1,1-1.31,1.22,1.22,0,0,1,1.37,1,60.22,60.22,0,0,0,2.37,10.45,1.16,1.16,0,0,1-.77,1.48,1.24,1.24,0,0,1-1.55-.73A62.73,62.73,0,0,1,70.89,122.76Z" fill="#342a60" fill-rule="evenodd"/><path d="M73,131.79a4.3,4.3,0,1,0-4.51-4.3A4.41,4.41,0,0,0,73,131.79Z" fill="#5b528b" fill-rule="evenodd"/><path d="M73,130.53a3,3,0,1,0-3.19-3A3.12,3.12,0,0,0,73,130.53Z" fill="#fff" fill-rule="evenodd"/><path d="M86.1,112.37a.32.32,0,0,1,.45.08.31.31,0,0,1-.07.45l-1.25.91a.34.34,0,0,1-.46-.07.33.33,0,0,1,.08-.46l1.25-.91Zm3.83,7.78a.34.34,0,0,1,.31.35.32.32,0,0,1-.34.31l-1.84-.09a.32.32,0,0,1-.31-.34.32.32,0,0,1,.34-.31l1.84.08Zm-.68-5.05a.33.33,0,0,1,.31.35.33.33,0,0,1-.35.3l-1.8-.1a.33.33,0,0,1,0-.66Z" fill="#ee8b83" fill-rule="evenodd"/><path d="M29,125.51s-1.86-1.23-2.19-1.48-2.7-1-3.32-1.37-1-2.4,1.26-1.74c.75.23,1.66.45,2.18.64S28,122,28,122a10.44,10.44,0,0,0-.67-.93c-.19-.18-4.69-3.37-5.09-3.78s-1.27-1.7,0-2.17c-1.47-1.86-.3-3.51,1.53-2,.8.64,1.32,1,1.32,1s-.27-1.35-.3-1.94c-.06-1,.91-2.46,1.86.08.31.82.74,1.91.74,1.91s2.15.43,2.55,1.1,5.12,9.64,5.12,9.64Z" fill="#f2ba95" fill-rule="evenodd"/><path d="M27.84,122.26a.32.32,0,0,1-.06-.45.32.32,0,0,1,.46-.06l1.28,1a.32.32,0,0,1,.06.46.33.33,0,0,1-.46.05l-1.28-1Zm-.66-7.86a.34.34,0,0,1,0-.47.33.33,0,0,1,.46,0l1.78,1.73a.33.33,0,0,1,0,.46.32.32,0,0,1-.46,0l-1.78-1.72Zm-2.26,0,2.81,2.11a.33.33,0,1,0,.39-.52l-2.81-2.11a.33.33,0,0,0-.46.06.32.32,0,0,0,.07.46Zm-2.59,1.08a1,1,0,0,1,.55,0c.26.15,4.72,3.35,4.73,3.36a.33.33,0,0,0,.46-.08.32.32,0,0,0-.08-.45s-4.48-3.22-4.79-3.4a1.82,1.82,0,0,0-1-.12.34.34,0,0,0-.26.39A.33.33,0,0,0,22.33,115.45Z" fill="#ee8b83" fill-rule="evenodd"/><polygon points="52.21 80.6 47.54 75.05 44.96 76.22 44.69 77.28 49.76 83.75 52.21 80.6" fill="#c75859" fill-rule="evenodd"/><path d="M50.47,84.47a50.09,50.09,0,0,1-5.19,5.66c-3.11,2.91-5.81,2.61-6.71,1a19.73,19.73,0,0,1-1.85-4.68c-.18-.9-1-4.64,13.8-5.61l.93,1Z" fill="#ee8b83" fill-rule="evenodd"/><polygon points="52.21 80.6 56.89 75.05 59.47 76.22 59.74 77.28 54.67 83.75 52.21 80.6" fill="#c75859" fill-rule="evenodd"/><path d="M54,84.47a50.09,50.09,0,0,0,5.19,5.66c3.11,2.91,5.81,2.61,6.71,1a20.18,20.18,0,0,0,1.85-4.68c.17-.9,1-4.64-13.8-5.61l-.93,1Z" fill="#ee8b83" fill-rule="evenodd"/><path d="M67.77,85.81c0-1.4-1.51-4.15-13.86-5l-.33.36.4.3C55.53,82.11,67.22,87.86,67.77,85.81Z" fill="#c75859" fill-rule="evenodd"/><path d="M52.21,85.27A40.87,40.87,0,0,1,54,92.81c1,5.84,2.13,18,2.24,20.12,0,0,.26,1,1.1.61a20.59,20.59,0,0,0,4.38-4.21,4.62,4.62,0,0,0,.5-3.63C61.88,104.18,54,84.47,54,84.47Z" fill="#ee8b83" fill-rule="evenodd"/><path d="M36.65,85.81c.05-1.4,1.51-4.15,13.87-5l.32.36-.4.3C48.9,82.11,37.21,87.86,36.65,85.81Z" fill="#c75859" fill-rule="evenodd"/><path d="M52.21,85.27a41.76,41.76,0,0,0-1.77,7.54c-1,5.84-2.14,18-2.24,20.12,0,0-.27,1-1.1.61a20.59,20.59,0,0,1-4.38-4.21,4.62,4.62,0,0,1-.5-3.63c.33-1.52,8.25-21.23,8.25-21.23Z" fill="#ee8b83" fill-rule="evenodd"/><path d="M42.44,67.29l9.77,8L47,80.41s-1.77,1.39-2.9-.22S39,70.44,39,70.44l3.43-5.18Z" fill="#fff" fill-rule="evenodd"/><path d="M62,67.29l-9.78,8,5.24,5.1s1.77,1.39,2.9-.22,5.07-9.75,5.07-9.75L62,65.26Z" fill="#fff" fill-rule="evenodd"/><path d="M52.21,80h0a1.78,1.78,0,0,0-1.77,1.77v2.11a1.78,1.78,0,0,0,1.77,1.77h0A1.77,1.77,0,0,0,54,83.83V81.72A1.77,1.77,0,0,0,52.21,80Z" fill="#c75859" fill-rule="evenodd"/><path d="M29,124.86a.65.65,0,1,1,.13,1.29l-10.4,1a.65.65,0,0,1-.12-1.3Z" fill="#c3b8b4" fill-rule="evenodd"/><path d="M84.46,152.92a.46.46,0,1,1,.35.84c-.08,0-28.45,12-59.85,11.74a.46.46,0,0,1,0-.91c31.2.22,59.41-11.64,59.49-11.67ZM27.78,107.86a.45.45,0,0,1,.43-.48.44.44,0,0,1,.48.42,7.18,7.18,0,0,0,4.48,5.8c4.41,1.88,12.61,2.07,12.63,2.07a.44.44,0,0,1,.45.46.46.46,0,0,1-.46.45s-8.41-.19-13-2.14a8.12,8.12,0,0,1-5-6.58Zm50.87-3.6a.46.46,0,0,1,.47-.44.46.46,0,0,1,.44.47s-.16,5.84-5.6,8c-5.18,2-23.39,7.64-23.44,7.65a.46.46,0,0,1-.27-.87s18.23-5.63,23.38-7.63C78.5,109.5,78.65,104.28,78.65,104.26Z" fill="#9d949c" fill-rule="evenodd"/><path d="M60.45,45.74l14.92-.42c-6.64,8.62,13.08,14.93,3.29,24.4C82,85.29,51.84,85.4,59.42,62.32,61,57.4,64.33,49.16,60.45,45.74Z" fill="#342a60" fill-rule="evenodd"/><path d="M33.31,40.11s-1.8-1.92-3-1.8S27.55,41,27.73,43s2.5,8.85,6.51,6.23S33.31,40.11,33.31,40.11Z" fill="#f2ba95" fill-rule="evenodd"/><path d="M34.85,42.33a.44.44,0,0,1,.09.52.25.25,0,0,1-.37.06h0s-1.08,6.09-2,5.14a7.34,7.34,0,0,1-2.24-3.4c-.38-1.54,1-3,.49-3.37s-1,.22-1,.28h0a4,4,0,0,0-.58,1.14.24.24,0,0,1-.38.15.47.47,0,0,1-.19-.5s.69-2.32,2.39-2.25S34.84,42.32,34.85,42.33Z" fill="#ee8b83" fill-rule="evenodd"/><path d="M71.29,39.22s1.81-1.91,3-1.79,2.73,2.75,2.54,4.73S74.32,51,70.32,48.35,71.29,39.22,71.29,39.22Z" fill="#f2ba95" fill-rule="evenodd"/><path d="M69.74,41.43a.45.45,0,0,0-.09.52A.24.24,0,0,0,70,42h0s1,6.1,2,5.16a7.43,7.43,0,0,0,2.25-3.4c.39-1.54-1-3-.47-3.37s1,.23,1,.28h0a3.9,3.9,0,0,1,.58,1.14.25.25,0,0,0,.38.15.47.47,0,0,0,.19-.5s-.68-2.32-2.38-2.26S69.75,41.42,69.74,41.43Z" fill="#ee8b83" fill-rule="evenodd"/><path d="M52.17,12.33c-25.17.52-21.34,20.1-19,35.88a20.83,20.83,0,0,0,4.68,10.55s7.13,6.18,9.59,7.47a12,12,0,0,0,10.19-.06c2.44-1.32,9.49-7.59,9.49-7.59A20.72,20.72,0,0,0,71.64,48C73.76,32.16,77.34,12.55,52.17,12.33Z" fill="#f2ba95" fill-rule="evenodd"/><path d="M36.69,17.18a14.81,14.81,0,0,0-4.14,6.7c0,.12-1.07,7.89-1.1,8.5v0c.05.58,2.25,8.25,2.25,8.25C41,32.11,39.3,24,39.3,24l-2.16-1.5s2-9.43,10.45,5.35,25,12.47,25,12.47c.72-6.51.92-13-1.26-18.14C62.71,19.36,51.32,15.79,50.07,15,48.65,14.13,41.12,16,36.69,17.18Z" fill="#ee8b83" fill-rule="evenodd"/><path d="M32.72,45.38c1.34-1.32,1.7-4,1.36-6.61A25.18,25.18,0,0,0,39.3,23.94c6.37,0,18.42,19.92,35,13.49,0,0,2.62-.76,3.05-5.24C79,15.36,69.27,11.12,58.82,8.71,42.63,5,23.14,12.66,29.47,38.71,29.47,38.71,31.93,39.53,32.72,45.38Z" fill="#342a60" fill-rule="evenodd"/><path d="M72,45.38a6.53,6.53,0,0,1-.72-2.75,29.07,29.07,0,0,0-1.4-6.81l6.69-1.5c-.3,1-.89,3.43-1.31,4.39C75.29,38.71,72.82,39.53,72,45.38Z" fill="#342a60" fill-rule="evenodd"/><path d="M38.79,24a.33.33,0,0,1-.39-.26.31.31,0,0,1,.29-.34c3.5-.45,5.86,2.52,8.59,6,3,3.74,6.41,8,12.17,8.82a.31.31,0,0,1,.29.35.34.34,0,0,1-.39.26c-6.05-.81-9.58-5.24-12.63-9.09C44.12,26.43,41.87,23.61,38.79,24Z" fill="#342a60" fill-rule="evenodd"/><path d="M29.47,38.71s-2.72-10.72-3-16.48,2.45-7.67,5-8.6C42.25-11.66,50.46,5.78,65,6.85c8.25.61,16.25,8.46,16.25,19.26S71,38.39,71,38.39L50,17.86l-16.62.24Z" fill="#342a60" fill-rule="evenodd"/><path d="M44.6,36.76a1.65,1.65,0,0,0,1,0,1.84,1.84,0,0,0,1-1.1c0-.19-.29.08-1.16-.42s-4-1.78-6.55.33c-.43.37-.16.71.35.59A6.45,6.45,0,0,1,44.6,36.76Z" fill="#342a60" fill-rule="evenodd"/><path d="M53.13,49.41c.22-.2,0-1.07-.14-1.65s-.25-.65-.38-.63-.26.14-.46.54-.6,1.34-.41,1.59A1.21,1.21,0,0,0,53.13,49.41Z" fill="#f9d4c8" fill-rule="evenodd"/><path d="M53.38,44.49a.36.36,0,0,0-.45-.26.36.36,0,0,0-.26.45,45.82,45.82,0,0,1,1.08,4.72c-.07.22-.49.51-.68.62a2.52,2.52,0,0,1-1.07.33.36.36,0,0,0-.36.38.38.38,0,0,0,.38.36,3.1,3.1,0,0,0,1.42-.43,2.33,2.33,0,0,0,1-1A29.88,29.88,0,0,0,53.38,44.49Z" fill="#ee8b83" fill-rule="evenodd"/><path d="M59.39,40.67a1.64,1.64,0,0,1-1,0,1.84,1.84,0,0,1-1-1.1c0-.19.29.08,1.16-.42s4-1.78,6.55.33c.43.37.16.71-.35.59A6.41,6.41,0,0,0,59.39,40.67Z" fill="#342a60" fill-rule="evenodd"/><path d="M59.68,45.12a1.64,1.64,0,0,1-1,0A1.86,1.86,0,0,1,57.77,44c0-.18.29.1,1.18-.36a6.47,6.47,0,0,1,5.3-.23,1,1,0,0,0,.51-.72.35.35,0,0,1,.41-.29.35.35,0,0,1,.29.41,1.69,1.69,0,0,1-.55,1l.06,0a.51.51,0,0,0,.34-.22.36.36,0,1,1,.57.43,1.3,1.3,0,0,1-.31.31c.27.34,0,.6-.46.47A6.46,6.46,0,0,0,59.68,45.12Z" fill="#342a60" fill-rule="evenodd"/><path d="M52,57.26a.43.43,0,0,1,.1-.85,10.58,10.58,0,0,0,2.8-.17.44.44,0,0,1,.5.34.43.43,0,0,1-.34.5A11.8,11.8,0,0,1,52,57.26Z" fill="#ee8b83" fill-rule="evenodd"/><path d="M48.56,55a.45.45,0,0,1-.31-.54.44.44,0,0,1,.53-.31s6.53,1.75,9.09-1.59a.44.44,0,0,1,.69.53C55.65,56.87,48.58,55,48.56,55Z" fill="#ee8b83" fill-rule="evenodd"/><path d="M57.26,52.86a.44.44,0,0,1,0-.88s1.78,0,1.71,1.7a.44.44,0,0,1-.46.42.43.43,0,0,1-.41-.45C58.15,52.86,57.26,52.86,57.26,52.86Z" fill="#ee8b83" fill-rule="evenodd"/><path d="M42.58,41.25h0a2.05,2.05,0,0,0-1.15.35,1.07,1.07,0,0,1-.54-.79.36.36,0,0,0-.4-.31.35.35,0,0,0-.31.39A1.66,1.66,0,0,0,40.74,42a.58.58,0,0,1-.45-.25.34.34,0,0,0-.49-.1.36.36,0,0,0-.1.49,1.21,1.21,0,0,0,.93.57,2,2,0,0,0-.09.61v2a2,2,0,0,0,2,2h0a2,2,0,0,0,2-2v-2A2,2,0,0,0,42.58,41.25Z" fill="#342a60" fill-rule="evenodd"/><path d="M52,75.08a.32.32,0,0,1,.46,0,.33.33,0,0,1,0,.46l-4.18,4.07,0,0a11.87,11.87,0,0,1-1.27,1.11c-1,.7-2.15,1-3.12-.41-1.15-1.64-5.1-9.76-5.11-9.78a.33.33,0,0,1,.15-.44.32.32,0,0,1,.44.16s3.94,8.1,5.05,9.69c.68,1,1.49.75,2.21.24a9.33,9.33,0,0,0,1.19-1l0,0Z" fill="#9d949c" fill-rule="evenodd"/><path d="M52,75.57a.33.33,0,0,1,.46-.47l4.38,4.26a5.23,5.23,0,0,0,1.67,1.24,1.25,1.25,0,0,0,1.57-.6h0c.12-.17.27-.42.45-.72l.66-1.2a.33.33,0,0,1,.44-.13.33.33,0,0,1,.14.44c-.25.46-.48.87-.68,1.22s-.35.58-.48.76h0a1.82,1.82,0,0,1-2.32.84,5.85,5.85,0,0,1-1.91-1.38Z" fill="#9d949c" fill-rule="evenodd"/><path d="M93.05,179.35c-.32-1.28-.63-2.5-.93-3.67l-.24-1a12.79,12.79,0,0,1-4.07,1.89l.35,2.1.39,2.28A16.43,16.43,0,0,0,93.05,179.35Z" fill="#342a60" fill-rule="evenodd"/><path d="M88.16,178.71l-.35-2.1c-4,1.35-11,3.13-22.6,5.13l.07,2.11C68.44,183.61,75.7,182.62,88.16,178.71Z" fill="#342a60" fill-rule="evenodd"/><path d="M65.28,183.85l-.07-2.11-3.42.57c-11.62,1.9-24.76-.74-34.24-3.55-.1.63-.2,1.27-.3,1.93,6,2.16,23.12,7.55,38.07,4.31Z" fill="#342a60" fill-rule="evenodd"/><path d="M27.25,180.69c.1-.66.2-1.3.3-1.93a85.14,85.14,0,0,1-13-4.81c-.51,1.39-1,2.83-1.51,4.31a98.3,98.3,0,0,0,14,4C27.09,181.75,27.17,181.21,27.25,180.69Z" fill="#342a60" fill-rule="evenodd"/><path d="M77.9,14.79C67.66,22.72,42.22,21.27,36.89,4a28.07,28.07,0,0,0-2.44,3.5C38.89,22.14,64.47,35.57,81,28.9a15.07,15.07,0,0,0,.25-2.79A20.17,20.17,0,0,0,77.9,14.79Z" fill="#413871" fill-rule="evenodd"/></g></g></svg>