<svg xmlns="http://www.w3.org/2000/svg" viewBox="0 0 117.51 180.62"><g style="isolation:isolate"><g id="Layer_2" data-name="Layer 2"><g id="OBJECTS"><path d="M89.19,156.53c-3.5,1.7-6.88.29-10-1.42-4.75-2.65-8.78-6-11.43.19a8.17,8.17,0,0,1-.38.79c-5,9.2-24,4.45-23.7-6.44,0-.13,0-.26,0-.4.09-6.63-2.84-9-6.55-8-2.32.65-5,2.65-7.35,5.8-1.86,2.45-4.83,2.25-8.09.74C14,144.24,4.56,133.28,4.56,133.28c15.32,3.48,38.86-28.15,53-59.4S86.79,50,86.79,50c1.62-2.09,17.3,12.86,17.3,12.86-.47,5.42.14,13.53.82,22.77C106.81,111.71,109.22,146.82,89.19,156.53Z" fill="#d51e2b"/><path d="M104.91,85.67c-20.6-35.36-33.83,16.72-55.6,28.92a61.07,61.07,0,0,0-27.57,33.24C14,144.24,4.56,133.28,4.56,133.28c15.32,3.48,38.86-28.15,53-59.4S86.79,50,86.79,50c1.62-2.09,17.3,12.86,17.3,12.86C103.62,68.32,104.23,76.43,104.91,85.67Z" fill="#ba1a26"/><path d="M77.6,68.34S72.75,98.55,67,108c-4.81,7.89-18.76,25.21-23.26,41.24.09-6.63-2.84-9-6.55-8,1.78-5.16,5.62-13,13.77-21.35C64.52,106,76.77,70,77.6,68.34Z" fill="#ba1a26"/><path d="M88.78,54.14s-1.76,73.76-9.54,101c-4.75-2.65-8.78-6-11.43.19a8.17,8.17,0,0,1-.38.79c.24-9.35,1.54-28,7.78-41.09C83.85,96.91,88.78,54.14,88.78,54.14Z" fill="#ba1a26"/><path d="M18.06,152.42s-7-13.16,3.28-18.09S65.93,73.15,75.09,56.86l3.41-6.42s-4.93-6.17-20.56,18.91S18.46,121.58,4.07,129.8,18.06,152.42,18.06,152.42Z" fill="#f7514a"/><path d="M86.35,37.79a6.31,6.31,0,1,1-6.3-6.47A6.39,6.39,0,0,1,86.35,37.79Z" fill="#5c311e"/><path d="M96.73,168.73c-1.64-1.67-5-1.61-5.85.91-.31.8-1.76,3.19-.39,9.82h1.17v-3.21l0-.35c.17.62.39,1.28.62,2,1,3.14,7.57,3.24,9.34,1.92.49-.37-.6-1.2-1.56-3.34C98.88,173.77,97.6,169.61,96.73,168.73Z" fill="#383e46"/><path d="M97.69,171.61a53.44,53.44,0,0,1-1.45-5.26c.37-7,1.58-66.82-1-73.83l-9.73,2.33,6.57,70a28.2,28.2,0,0,0,0,5.59c.43,3.07,4.44,6.86,6,6.49C99.09,176.72,98.32,173.6,97.69,171.61Z" fill="#f0a98f"/><path d="M84.19,168.42c-1.66-3.92-4.86,2.09-4.86,2.09a15.87,15.87,0,0,1-3.7,4c-3.45,2.49-8.17,5.1-5.28,5.67a13.77,13.77,0,0,0,7.39-.54,15.53,15.53,0,0,0,5.34-4l-.41,3.86,1.3-.15A14,14,0,0,0,84.19,168.42Z" fill="#383e46"/><path d="M78.11,92.1c-2.22,6.74.66,60.49,1.49,71.94a12.76,12.76,0,0,1-1.72,6.72,39,39,0,0,1-4.64,6c2.77.72,4.8-.64,6.44-1.88a10.16,10.16,0,0,0,3.62-5.39,15.14,15.14,0,0,0,.58-3.37L88.13,94.9Z" fill="#f0a98f"/><path d="M92.3,122c.18-6.82.39-14.85.39-14.85l2.24,14.69c.74,0,1.48-.12,2.21-.2,1-.1,2-.22,3-.35a153.41,153.41,0,0,0,.34-16.2c-.37-10.08-2.44-20.87-5.14-24.46l-18.5,3.08s-2.61,5.21-3.7,17.48a156.84,156.84,0,0,0-.25,19.7A92.11,92.11,0,0,0,92.3,122Z" fill="#22272e"/><path d="M80.64,77.68c-.31-1.23-7.48-29.16-7.48-29.16s16.72-4.93,27.41,0L92.29,77.4Z" fill="#9dcad1"/><path d="M73.24,48.34l1.92,8S71,61.17,76.94,65.23L79.4,75.49,75.15,88.35l9.83,1,2-4.93,1.85,5s7.63,0,9.53-2.2L94.21,75.43l2.47-10.36s4.82-2.57,1.95-8l2-8.76L95,46.64,86.26,66.58,78,47.25Z" fill="#3e4753"/><rect x="83.86" y="34.86" width="6.47" height="13.87" rx="2.91" fill="#d8826c"/><path d="M79.19,47.15c-.42-.9,4.35-4.42,4.35-4.42s.72,4.7,3,6.06L82.75,54S81.11,51.26,79.19,47.15Z" fill="#d7eef2"/><path d="M93.9,47.15c.41-.9-4.12-4.39-4.12-4.39s-1,4.67-3.22,6L90.33,54S92,51.26,93.9,47.15Z" fill="#d7eef2"/><path d="M77.27,64.22s8.43,4.11,18.91-.83C96.18,63.39,88,74.7,77.27,64.22Z" fill="#ded9d5" style="mix-blend-mode:multiply"/><path d="M87.67,67.3a1.08,1.08,0,1,1-1.08-1.08A1.08,1.08,0,0,1,87.67,67.3Z" fill="#22272e"/><path d="M87.81,74.7a1.08,1.08,0,1,1-1.08-1.08A1.08,1.08,0,0,1,87.81,74.7Z" fill="#22272e"/><path d="M87.81,82.1A1.08,1.08,0,1,1,86.73,81,1.08,1.08,0,0,1,87.81,82.1Z" fill="#22272e"/><path d="M67,57.43c1.6-1.76-9.87,10.7-9.87,13.3S73,83.34,73,83.34l1.37-3.29s-8.5-9.32-11-10.7c0,0,6-5.75,7.12-7.4S67,57.43,67,57.43Z" fill="#d8826c"/><path d="M79,79.64c.91-.08,1.83-.07,2.74-.16a.23.23,0,0,0,.24-.23c0-1.12-1.14-1.75-2.14-1.83a5.57,5.57,0,0,0-1.63.14,14.69,14.69,0,0,0,1.48-1.47c.09-.11.11-.31,0-.38-1-.44-1.81.07-2.57.74-.56.5-1,1.08-1.56,1.62a4.67,4.67,0,0,1-1.8,1.11h-.12c-1.81.36-2.11,2.11-1.3,3.57a2.68,2.68,0,0,0,2.15,1.34,6.59,6.59,0,0,0,1.92-.26A4.43,4.43,0,0,1,80,85.12a.25.25,0,0,0,.41-.17c.17-1.74-1.08-2.92-2.53-3.6,1.45-.23,2.57.84,4,1a.23.23,0,0,0,.24-.23C82.17,80.49,80.43,80,79,79.64Z" fill="#f0a98f"/><path d="M75.21,57.07c-1.44,2.71-10.89,12.28-10.89,12.28,1.53,1.08,6.05,5.48,8.24,7.64.74.73,1.21,1.21,1.21,1.21l-2.46,4.52c-.53-.27-1-.53-1.55-.8C59.84,76.55,56.3,70.59,56.3,70.59c.82-6,16.86-22.07,16.86-22.07C75.42,50.09,75.21,57.07,75.21,57.07Z" fill="#3e4753"/><path d="M73.77,78.2l-2.46,4.52c-.53-.27-1-.53-1.55-.8L72.56,77C73.3,77.72,73.77,78.2,73.77,78.2Z" fill="#d7eef2"/><path d="M106.82,57.43c-1.6-1.76,9.87,10.7,9.87,13.3s-15.9,12.61-15.9,12.61l-1.37-3.29s8.5-9.32,11-10.7c0,0-6-5.75-7.13-7.4S106.82,57.43,106.82,57.43Z" fill="#d8826c"/><path d="M91.66,82.1a.23.23,0,0,0,.24.23c1.47-.14,2.59-1.21,4-1-1.45.68-2.7,1.86-2.53,3.6a.25.25,0,0,0,.41.17,4.43,4.43,0,0,1,3.62-1.3,6.59,6.59,0,0,0,1.92.26,2.66,2.66,0,0,0,2.15-1.34c.81-1.46.51-3.21-1.3-3.57h-.11a4.63,4.63,0,0,1-1.81-1.11c-.52-.54-1-1.12-1.56-1.62a2.3,2.3,0,0,0-2.56-.74.25.25,0,0,0,0,.38,14.81,14.81,0,0,0,1.49,1.47A5.66,5.66,0,0,0,94,77.42c-1,.08-2.17.71-2.14,1.83a.23.23,0,0,0,.24.23c.91.09,1.83.08,2.74.16C93.38,80,91.64,80.49,91.66,82.1Z" fill="#f0a98f"/><path d="M97.91,57.12c1.44,2.72,11.59,12.23,11.59,12.23-1.54,1.08-6.06,5.48-8.24,7.64-.75.73-1.22,1.21-1.22,1.21l2.47,4.52c.53-.27,1-.53,1.54-.8,9.93-5.37,13.46-11.33,13.46-11.33-.82-6-16.85-22.07-16.85-22.07C98.39,50.09,97.91,57.12,97.91,57.12Z" fill="#3e4753"/><path d="M100,78.2l2.47,4.52c.53-.27,1-.53,1.54-.8L101.26,77C100.51,77.72,100,78.2,100,78.2Z" fill="#d7eef2"/><path d="M87.14,53.11a.62.62,0,0,1-1.24,0,.62.62,0,0,1,1.24,0Z" fill="#d7eef2"/><path d="M87.14,58.05a.62.62,0,0,1-1.24,0,.62.62,0,0,1,1.24,0Z" fill="#d7eef2"/><path d="M101.94,21.24c0,10-5.43,17.69-15.35,17.69S70.07,29.18,70.07,19.19,76.67,2.74,86.59,2.74,101.94,11.25,101.94,21.24Z" fill="#5c311e"/><path d="M99.4,25.17c0,9.45-4.27,14.71-11.47,14.87-7.66.16-14.6-5.42-14.6-14.87S76.25,6,86.36,6C96.27,6,99.4,15.73,99.4,25.17Z" fill="#f0a98f"/><path d="M90.7,23A3.32,3.32,0,1,0,94,19.7,3.32,3.32,0,0,0,90.7,23Z" fill="#fff"/><path d="M95.91,22.81a2.24,2.24,0,1,1-4.38,0,2.25,2.25,0,1,1,4.38,0Z" fill="#5b6f7f"/><path d="M95.27,22.81a1.59,1.59,0,1,1-3.11,0,1.6,1.6,0,1,1,3.11,0Z" fill="#400404"/><path d="M95.37,21c0,.29-.36.53-.8.53s-.8-.24-.8-.53.36-.53.8-.53S95.37,20.68,95.37,21Z" fill="#fff"/><path d="M86.33,28.64s1.64,2.77,3.41-.06Z" fill="#d8826c"/><path d="M84.13,28.28c0,1.51-1.56,2.73-3.48,2.73s-3.48-1.22-3.48-2.73,1.56-2.72,3.48-2.72S84.13,26.78,84.13,28.28Z" fill="#f08671"/><path d="M97.9,28.28c0,1.51-1.56,2.73-3.48,2.73s-3.48-1.22-3.48-2.73,1.56-2.72,3.48-2.72S97.9,26.78,97.9,28.28Z" fill="#f08671"/><path d="M99.53,23.52s3.58-4.89,4.62-.19c.82,3.74-2.52,6.49-4.59,5.79S99.53,23.52,99.53,23.52Z" fill="#f0a98f"/><path d="M99.49,24.39s2.54-3.08,3.18-1.63a5.72,5.72,0,0,1,.27,3.16s-.27-2-1.81-1.05c0,0,1.1,3.21-1.65,2A1.82,1.82,0,0,1,99.49,24.39Z" fill="#d8826c"/><path d="M73.34,23.52s-3.58-4.89-4.62-.19c-.82,3.74,2.52,6.49,4.59,5.79S73.34,23.52,73.34,23.52Z" fill="#f0a98f"/><path d="M73.38,24.39s-2.53-3.08-3.18-1.63a5.72,5.72,0,0,0-.27,3.16s.27-2,1.81-1.05c0,0-1.1,3.21,1.65,2A1.81,1.81,0,0,0,73.38,24.39Z" fill="#d8826c"/><path d="M77.29,18.76s3.13-4.22,8-.63A10.14,10.14,0,0,0,77.29,18.76Z" fill="#361d11"/><path d="M90.94,18.06s3.66-3.65,7.6.69A9.24,9.24,0,0,0,90.94,18.06Z" fill="#361d11"/><path d="M82,5s3.9-7.81,9.87-3.91,13.57,12.13,15.42,6.17c0,0-2.88,15.83-14.6,8.23S82,5,82,5Z" fill="#5c311e"/><path d="M86.93,6.85A44.35,44.35,0,0,1,73,22.07a12.44,12.44,0,0,1-2.47-6.58C70.23,8.09,76.45-5.9,86.93,6.85Z" fill="#5c311e"/><path d="M86.93,6.85l-2.67.41A12.22,12.22,0,0,0,92.9,19S86.73,13.43,86.93,6.85Z" fill="#5c311e"/><path d="M83.82,24.66A3.31,3.31,0,0,0,82,21.45c-3.19-1.65-4.94,2.16-6,2.77,0,0,.66.67,1.15.44C77.19,24.66,80.66,19,83.82,24.66Z" fill="#302725"/><path d="M90.65,22.61a2.83,2.83,0,0,1,1.81-2.85c3.19-1.46,4.94,1.91,6,2.46,0,0-.67.59-1.16.39C97.27,22.61,93.8,17.57,90.65,22.61Z" fill="#302725"/><path d="M83.23,29.67s6,1.85,8.64,0C91.87,29.67,88.78,39.75,83.23,29.67Z" fill="#fff"/><path d="M74.8,28.85a1,1,0,1,1-1-1A1,1,0,0,1,74.8,28.85Z" fill="#fff700"/><path d="M100.71,29.26a1,1,0,1,1-1-1A1,1,0,0,1,100.71,29.26Z" fill="#fff700"/></g></g></g></svg>