<svg xmlns="http://www.w3.org/2000/svg" viewBox="0 0 198.59 419.94"><g id="Layer_2" data-name="Layer 2"><g id="OBJECTS"><path d="M154.11,401.15s.43-5.87,3.91-5.87h6.8c2.3,0,4.55,3.59,5.2,6.22a4,4,0,0,1,2.73,2.88c.48,2.27,1.55,10.77,1.71,11.61s.75,3.95-2.73,3.95H146.89c-2.2,0-1.93-1.62-1.93-2.55a14.77,14.77,0,0,1,1.66-6.16C147.79,409.43,154.11,401.15,154.11,401.15Z" fill="#4d4c4e" fill-rule="evenodd"/><path d="M154.11,401.15s.43-5.87,3.91-5.87h6.8c2.3,0,4.55,3.59,5.2,6.22l-2.8,5.91a5.18,5.18,0,0,1-3.67,1.33h-7.87s-2.07-.4-2-2.31S154.11,401.15,154.11,401.15Z" fill="#292929" fill-rule="evenodd"/><path d="M174.33,415.16c.06.41.11.7.13.83.16.83.75,3.95-2.73,3.95H146.89c-2.2,0-1.93-1.62-1.93-2.55a14.19,14.19,0,0,1,.28-2.23Z" fill="#202023" fill-rule="evenodd"/><path d="M107.37,396.2S96.85,406,93,406.82s-12.16,1.56-13.93,2.65-3.42,5.71-3.62,6.56-.65,3.91,1.91,3.91h47.05c2,0,2.37-1.17,2.37-2.89a7.1,7.1,0,0,0-1.19-3.44V404c0-2.11-1-3.83-3.35-4-4-.27-8.3,2.16-10.87-2.29C110.27,395.75,109.78,394.23,107.37,396.2Z" fill="#4d4c4e" fill-rule="evenodd"/><path d="M107.37,396.2s-10.09,9.43-14.08,10.56a7.33,7.33,0,0,0,5.07,2.45c1.45-.13,12.31-5.41,13.3-6.83s0-4.32,0-4.32h0c-.06-.11-.13-.22-.2-.33C110.27,395.75,109.78,394.23,107.37,396.2Z" fill="#292929" fill-rule="evenodd"/><path d="M76.36,413.61a18.86,18.86,0,0,0-.87,2.42c-.19.86-.65,3.91,1.91,3.91h47.05c2,0,2.37-1.17,2.37-2.89a7.1,7.1,0,0,0-1.19-3.44Z" fill="#202023" fill-rule="evenodd"/><path d="M109,79.68s-9.89,1.55-11.72,5.52c-2.57,5.59-8.14,20.35-12.28,29-2.42,5.06-5.34,9-8.08,11.23-4.08,3.26-8.3,3.42-14.35,4.14l-15.78,1.87-1.58,11.93v2.16l27.7,7.27c14.49-.46,30.41-20.51,32-28.17S109,79.68,109,79.68Z" fill="#3d3d3d" fill-rule="evenodd"/><path d="M103.25,181.79l-3.13,6.49-.84,10a74.63,74.63,0,0,0-4.06,7.14c-.6,1.64-2.71,15.08-2.93,17.55S103,335.11,104.47,354.86a299.2,299.2,0,0,1-.41,43.06c-.2,1.92,9.08,5.21,12.48,5.49a38.39,38.39,0,0,0,9.41-1.16l.06,0h0c1.31-.34,1.39-2,1.39-2l.9-34.73h0c-.1-5.17-.1-19.46.11-25.62s.45-123.83.45-123.83l-6-31.41Z" fill="#202023" fill-rule="evenodd"/><path d="M158.57,182.3,160,187s4.54,3,4.82,4.52,1.6,4.81,2,7-1.89,7.5-1.18,9.14,4.59,82.34,4.59,91.92.27,9.16.71,16.54h0l3,83a3,3,0,0,1-2.64,3.44c-3.12.73-15.14.2-17.29-.26a12.62,12.62,0,0,1-3.21-1.55c-1.43-1.23-1-21.8-1.28-25s-6.58-66.79-8.3-77.48S128.61,223.91,126,213.49s-12.25-24.84-12.25-24.84Z" fill="#202023" fill-rule="evenodd"/><path d="M98,188.3a119.33,119.33,0,0,0,37.57,2.76c20.16-1.89-14.94-13.92-24.51-10.59S98,188.3,98,188.3Z" fill="#de8d4d" fill-rule="evenodd"/><path d="M147.09,74.25l22.61,8.49s-6.34,8.91-3.29,34.4c0,0-6.64,30-6.64,34s3.59,21.33,3.59,23.91c0,2.4-29.33,18.91-58.48,9.31-8.75-2.88-6.51-7.17-6-9.55,4-17.24,3.46-38,4.3-43,.91-5.44,3.24-22.91,3.24-22.91l3.62-29.62,16-5Z" fill="#fff" fill-rule="evenodd"/><path d="M122.18,187.37l-2-.06a19.52,19.52,0,0,1-.7-6.93c.09-1.09.43-4.82.87-9.76,1.19-13.45,3.19-35.86,3.21-37.82,0-1.29-.12-3.39-.26-5.59-.15-2.44-.32-5-.3-6.69,0-3.27,5.56-39.92,5.58-40a1,1,0,0,1,1.1-.79.93.93,0,0,1,.83,1c0,.1-5.52,36.59-5.56,39.79,0,1.68.15,4.18.3,6.57s.28,4.4.27,5.71c0,2-2,24.47-3.23,37.95-.44,5-.78,8.74-.86,9.75a17.15,17.15,0,0,0,.71,6.57A.78.78,0,0,1,122.18,187.37Z" fill="#dbdadb" fill-rule="evenodd"/><polygon points="148.2 58.38 127.76 58.38 127.76 81.04 135.88 81.04 148.2 76.25 148.2 58.38" fill="#d77f68" fill-rule="evenodd"/><polygon points="148.2 69.35 133.44 81.04 127.88 71.38 124.88 75.21 127.61 89.52 133.44 81.04 139.97 89.68 150.31 75.4 148.2 69.35" fill="#dbdadb" fill-rule="evenodd"/><path d="M124.46,199.7c0,5.22,2.9,6.38,2.9,6.38,3.34,2.61,41.05,14.36,42.06,13.78s1.52-3.63,1.52-3.63c-2.87-19.76-3.28-37.68-7.47-57.07C165,157.06,163,156,163,156c0-1.31,3.69-34.83,3.69-34.83-4-23.22,3-37.83,3-37.83-7-3-9.69-4.41-16.95-6.57-.36-.11.08,3.14,0,3.5C140.64,123.53,134.67,155.83,124.46,199.7Z" fill="#4d4c4e" fill-rule="evenodd"/><path d="M123.45,75a13.84,13.84,0,0,0-2-.13c-.44.07-12.81,4.59-13.13,4.77s-.62.29-1.2,3.26-5.59,26.59-5.73,27.64a63,63,0,0,0-.75,8c-.06,8.16-1.69,24.74-1.69,29.92,0,21.49-10.42,49.61-9.72,62.62.27,5.15,20.61-6.17,21.83-6.59a9.76,9.76,0,0,0,2-6.39c-.15-3.91-.44-60.76-.44-63.66s1.4-17.74,1.18-19.48,7.37-38.32,7.37-38.32Z" fill="#4d4c4e" fill-rule="evenodd"/><path d="M25,130.46l-1.64.53s-1.4.16-1.3,1,.46,1.32,2.65,1.81a92.61,92.61,0,0,1,11.84,4.14c4,1.93,13.72,7.72,13.4-3.23C49.81,131.76,25,130.46,25,130.46Z" fill="#e6ad83" fill-rule="evenodd"/><path d="M91.32,138l1.36-.29L56.1,124.07a9.27,9.27,0,0,0-1.42-.4l-2.84-.49-.54,8.93Z" fill="#dbdadb" fill-rule="evenodd"/><path d="M92.68,137.67l-39.16-6.78a2.64,2.64,0,0,0-3,2.14h0a2.64,2.64,0,0,0,2.14,3l39.16,6.78a2.62,2.62,0,0,0,3-2.14h0A2.63,2.63,0,0,0,92.68,137.67Z" fill="#95908e" fill-rule="evenodd"/><path d="M51.27,135.83,5.45,127.9a3,3,0,0,1-2.33-2.72L0,63.22a1.8,1.8,0,0,1,2.17-1.95l46.66,8.09a3,3,0,0,1,2.34,2.72l2.26,61.81A1.79,1.79,0,0,1,51.27,135.83Z" fill="#dbdadb" fill-rule="evenodd"/><path d="M49.18,133.16,46.92,71.34a3,3,0,0,0-2.34-2.72l4.25.74a3,3,0,0,1,2.34,2.72l1.88,51.31.27,7.47.06,1.55,0,1.48a1.79,1.79,0,0,1-1.5,2,1.84,1.84,0,0,1-.66,0L47,135.1A1.8,1.8,0,0,0,49.18,133.16Z" fill="#95908e" fill-rule="evenodd"/><path d="M159.22,43.34l.44.15h0a6.25,6.25,0,1,1-5.36.36c-.46,1.79-.56,4.1,1.73,4.72l.53-3.57A2.16,2.16,0,0,1,159.22,43.34Z" fill="#d77f68" fill-rule="evenodd"/><path d="M118.54,36.71h-.46A6.25,6.25,0,1,0,123,38.82c-.15,1.85-.82,4-3.19,3.89l.68-3.55A2.15,2.15,0,0,0,118.54,36.71Z" fill="#d77f68" fill-rule="evenodd"/><path d="M133.81,70.93c-11.53-1.88-18.82-17.66-17-28.88l2.42-14.91A21.47,21.47,0,0,1,143.82,9.45h0A21.47,21.47,0,0,1,161.51,34l-2.38,14.59C157.13,60.91,146.55,73,133.81,70.93Z" fill="#e6ad83" fill-rule="evenodd"/><path d="M148.59,51.5a3,3,0,1,0,2.52,3.36A3,3,0,0,0,148.59,51.5Z" fill="#d7766d" fill-rule="evenodd"/><path d="M125.76,48.26a3,3,0,1,0,2.52,3.36A3,3,0,0,0,125.76,48.26Z" fill="#d7766d" fill-rule="evenodd"/><path d="M132.75,33.18a.89.89,0,0,1-1,1.49,5.9,5.9,0,0,0-5.28-.51.91.91,0,0,1-1.18-.48.9.9,0,0,1,.47-1.18A7.76,7.76,0,0,1,132.75,33.18Z" fill="#202023" fill-rule="evenodd"/><path d="M153.58,37a.9.9,0,0,1-1.11,1.41,5.91,5.91,0,0,0-5.22-.94.9.9,0,1,1-.56-1.71A7.79,7.79,0,0,1,153.58,37Z" fill="#202023" fill-rule="evenodd"/><path d="M138.28,47a18.93,18.93,0,0,1,.49,3.5c-.16.44-2.57.48-3.09-.22-.34-.46.45-2.13,1.09-3.23C137.63,45.55,138,45.48,138.28,47Z" fill="#ebbf9e" fill-rule="evenodd"/><path d="M140.78,56.08a4.5,4.5,0,1,1-8.88-1.45.83.83,0,0,1,.95-.68l7.25,1.18A.83.83,0,0,1,140.78,56.08Z" fill="#fff" fill-rule="evenodd"/><path d="M133.3,54l6.35,1-.12.75a.72.72,0,0,1-.83.59l-4.93-.8a.72.72,0,0,1-.59-.83Z" fill="#fff" fill-rule="evenodd"/><path d="M139.06,58.94a4.5,4.5,0,0,1-6.44-1,4.49,4.49,0,0,1,6.44,1Z" fill="#fff" fill-rule="evenodd"/><path d="M128.33,39.4a2.58,2.58,0,1,0,2.13,3A2.58,2.58,0,0,0,128.33,39.4Z" fill="#202023" fill-rule="evenodd"/><path d="M116.91,41.46c1.33-.29,3.13-3.29,3.39-7.94,0,0,7.36-3.75,6.12-10.85s-7.45-6.2-7.45-6.2-4.37,2.42-3.36,20.86C117.22,37.91,116.48,40.08,116.91,41.46Z" fill="#202023" fill-rule="evenodd"/><path d="M159.18,48.34c-1.17-.69-1.93-4.11-.7-8.6,0,0-5.79-5.9-2.36-12.23s9-3.52,9-3.52,3.37,3.68-3.43,20.85C160,44.87,160,47.17,159.18,48.34Z" fill="#202023" fill-rule="evenodd"/><path d="M136.42,40.69l4.5.74a3.32,3.32,0,0,1,3.64-2.11l11.64,1.9a3.29,3.29,0,0,1,2.16,1.33l0,.05a3.28,3.28,0,0,1,.55,2.42l-.37,2.29a5,5,0,0,1-5.69,4.09L144.47,50a4.93,4.93,0,0,1-3.22-2h0a4.93,4.93,0,0,1-.87-3.68l.27-1.65L136.27,42,136,43.64a4.95,4.95,0,0,1-5.68,4.09l-8.42-1.37a4.93,4.93,0,0,1-3.21-2h0a4.9,4.9,0,0,1-.88-3.69l.37-2.29A3.34,3.34,0,0,1,122,35.64l11.65,1.9a3.32,3.32,0,0,1,2.12,1.29l0,.05a3.32,3.32,0,0,1,.63,1.81Zm-3-1.86-11.65-1.9a2,2,0,0,0-1.5.35,2,2,0,0,0-.81,1.31l-.37,2.29a3.68,3.68,0,0,0,.64,2.72,3.63,3.63,0,0,0,2.37,1.47l8.42,1.37a3.67,3.67,0,0,0,4.19-3l.37-2.29a2,2,0,0,0-.36-1.5l0,0a2,2,0,0,0-1.28-.77ZM156,42.5l-11.64-1.89A2,2,0,0,0,142,42.27l-.37,2.29a3.59,3.59,0,0,0,.64,2.72,3.67,3.67,0,0,0,2.37,1.47l8.41,1.37a3.67,3.67,0,0,0,4.19-3l.38-2.29a2,2,0,0,0-.33-1.46l0,0A2,2,0,0,0,156,42.5Z" fill="#272525" fill-rule="evenodd"/><path d="M151.73,47.22a.65.65,0,0,1-1.29-.21,2.06,2.06,0,0,0-.37-1.57h0a2.12,2.12,0,0,0-2.93-.48h0a2.12,2.12,0,0,0-.84,1.38.65.65,0,0,1-.75.53.64.64,0,0,1-.54-.74,3.38,3.38,0,0,1,1.37-2.22h0a3.41,3.41,0,0,1,4.76.77h0A3.42,3.42,0,0,1,151.73,47.22Z" fill="#202023" fill-rule="evenodd"/><path d="M21.8,83.94c3.43,0,6.41,5.37,6.67,12s-2.32,12-5.75,12-6.41-5.37-6.67-12S18.37,83.94,21.8,83.94Z" fill="#95908e" fill-rule="evenodd"/><path d="M165.16,24c5.16-30.06-35.5-27.12-44.67-16.63-.11.13-.22.53-.33.4C112.23-1,114,19.9,122.91,22.85s20.19,5.78,30.78,3.61c0,0,2.53-.83,2.54,2.33s6.85,1,6.85,1Z" fill="#202023" fill-rule="evenodd"/><path d="M134.36,68a2.05,2.05,0,0,0-1.46.34,2.06,2.06,0,0,0-1.72-.31s-1.16-.68-1.92-.36a6.27,6.27,0,0,0-2.12-.69c-.56.09-.91,3.81,6.62,5s8.31-2.5,7.8-2.76a6.28,6.28,0,0,0-2.23,0c-.63-.54-1.94-.24-1.94-.24a2.11,2.11,0,0,0-1.74-.22A2,2,0,0,0,134.36,68Z" fill="#202023" fill-rule="evenodd"/><path d="M124.25,130.39a59.47,59.47,0,0,1-5.06-6.47l-8.3-2.79c-2.92,2.4,2.78,4.08,4.4,4.88.89.44-.24.68,1.72,3.78,0,0-3.15-2.23-6.51-1.2s-5.72,1.9-5.72,1.9c-.06,1.42-.76,2.08.62,2.51s5.7-1.31,6.61-.83l4.23,2.24c-3.83-.13-3.74-.27-6.67.7-.93.31-3.64,1.11-4,1.53-.9,1.15.38,2.52,2,2.72s4.86-1,6.45-1c1.19,0,2,0,.56.53-1,.39-4.51,1.17-5.35,1.86-1.25,1,.31,3,2,2.66s6.37-2.05,7.67-1.21,4.63,4.21,8.07,3.21c4-1.17,5.69-.3,6-1.07.54-1.57,1.68-6.29.1-9-.5-.88-5.35-1.62-6.59-2.62A17.38,17.38,0,0,1,124.25,130.39Z" fill="#e6ad91" fill-rule="evenodd"/><path d="M169.7,83.31a14.65,14.65,0,0,1,9.6,8.41c2.67,6.81,17.7,47.18,19.13,56s-7.18,20.12-15.63,19.6-52-14.54-52-14.54a2.71,2.71,0,0,1-.86-2c.08-1.12,1.78-13.48,1.43-16.5,13.88,2,23.29,4.51,35.24,6.47,5.75.94,5.88,1.62,4.14-3.78l-9.52-29.35S161.55,89.22,169.7,83.31Z" fill="#3d3d3d" fill-rule="evenodd"/></g></g></svg>