<svg xmlns="http://www.w3.org/2000/svg" xmlns:xlink="http://www.w3.org/1999/xlink" viewBox="0 0 177.55 459.77"><defs><filter id="luminosity-noclip" x="102.96" y="-8419" width="13.52" height="32766" filterUnits="userSpaceOnUse" color-interpolation-filters="sRGB"><feFlood flood-color="#fff" result="bg"/><feBlend in="SourceGraphic" in2="bg"/></filter><mask id="mask" x="102.96" y="-8419" width="13.52" height="32766" maskUnits="userSpaceOnUse"><g filter="url(#luminosity-noclip)"/></mask><radialGradient id="radial-gradient" cx="101.16" cy="78.87" r="6.76" gradientTransform="matrix(1, 0.09, -0.09, 1, 13.31, 1)" gradientUnits="userSpaceOnUse"><stop offset="0" stop-color="#fff"/><stop offset="1"/></radialGradient><filter id="luminosity-noclip-2" x="102.72" y="-8419" width="21.51" height="32766" filterUnits="userSpaceOnUse" color-interpolation-filters="sRGB"><feFlood flood-color="#fff" result="bg"/><feBlend in="SourceGraphic" in2="bg"/></filter><mask id="mask-2" x="102.72" y="-8419" width="21.51" height="32766" maskUnits="userSpaceOnUse"><g filter="url(#luminosity-noclip-2)"/></mask><linearGradient id="linear-gradient" x1="106.06" y1="62" x2="106.65" y2="72.62" gradientTransform="matrix(1, 0.09, -0.09, 1, 13.31, 1)" xlink:href="#radial-gradient"/><filter id="luminosity-noclip-3" x="120.43" y="-8419" width="4.12" height="32766" filterUnits="userSpaceOnUse" color-interpolation-filters="sRGB"><feFlood flood-color="#fff" result="bg"/><feBlend in="SourceGraphic" in2="bg"/></filter><mask id="mask-3" x="120.43" y="-8419" width="4.12" height="32766" maskUnits="userSpaceOnUse"><g filter="url(#luminosity-noclip-3)"/></mask><radialGradient id="radial-gradient-2" cx="115.39" cy="67.2" r="2.06" xlink:href="#radial-gradient"/><filter id="luminosity-noclip-4" x="98.11" y="-8419" width="4.12" height="32766" filterUnits="userSpaceOnUse" color-interpolation-filters="sRGB"><feFlood flood-color="#fff" result="bg"/><feBlend in="SourceGraphic" in2="bg"/></filter><mask id="mask-4" x="98.11" y="-8419" width="4.12" height="32766" maskUnits="userSpaceOnUse"><g filter="url(#luminosity-noclip-4)"/></mask><radialGradient id="radial-gradient-3" cx="93" cy="67.28" r="2.06" xlink:href="#radial-gradient"/><radialGradient id="radial-gradient-4" cx="114.37" cy="14.71" r="38.41" gradientTransform="translate(13.26 0.71) rotate(4.94)" gradientUnits="userSpaceOnUse"><stop offset="0" stop-color="#845b48"/><stop offset="1" stop-color="#664638"/></radialGradient><radialGradient id="radial-gradient-5" cx="116.04" cy="58.54" r="99.09" gradientTransform="translate(13.26 0.71) rotate(4.94)" gradientUnits="userSpaceOnUse"><stop offset="0" stop-color="#a6a5b1"/><stop offset="1" stop-color="#a6a5b1" stop-opacity="0"/></radialGradient><linearGradient id="linear-gradient-2" x1="28.19" y1="157.23" x2="23.37" y2="135.49" gradientUnits="userSpaceOnUse"><stop offset="0" stop-color="#fcc384"/><stop offset="1" stop-color="#fddfa9"/></linearGradient><linearGradient id="linear-gradient-3" y1="135.2" x2="4.67" y2="135.2" gradientUnits="userSpaceOnUse"><stop offset="0" stop-color="#e09768"/><stop offset="1" stop-color="#e19768" stop-opacity="0"/></linearGradient><linearGradient id="linear-gradient-4" x1="2.37" y1="137.58" x2="5.46" y2="137.58" xlink:href="#linear-gradient-3"/><linearGradient id="linear-gradient-5" x1="24.36" y1="129.88" x2="28.41" y2="157.2" xlink:href="#linear-gradient-3"/><radialGradient id="radial-gradient-6" cx="94.11" cy="449.93" r="20.33" gradientUnits="userSpaceOnUse"><stop offset="0" stop-color="#484c50"/><stop offset="1" stop-color="#35383b"/></radialGradient><linearGradient id="linear-gradient-6" x1="86.09" y1="447.39" x2="120.71" y2="447.39" gradientTransform="matrix(1, 0, 0, 1, 0, 0)" xlink:href="#radial-gradient-5"/><radialGradient id="radial-gradient-7" cx="78.49" cy="450.69" r="21.66" gradientUnits="userSpaceOnUse"><stop offset="0" stop-color="#fff"/><stop offset="1" stop-color="#fff" stop-opacity="0"/></radialGradient><linearGradient id="linear-gradient-7" x1="106.73" y1="285.41" x2="105.55" y2="404.71" xlink:href="#linear-gradient-2"/><linearGradient id="linear-gradient-8" x1="70.55" y1="311.92" x2="136.76" y2="431.85" xlink:href="#linear-gradient-3"/><radialGradient id="radial-gradient-8" cx="110.22" cy="451.23" r="18.89" xlink:href="#radial-gradient-6"/><linearGradient id="linear-gradient-9" x1="104.91" y1="442.08" x2="139.13" y2="442.08" gradientTransform="matrix(1, 0, 0, 1, 0, 0)" xlink:href="#radial-gradient-5"/><radialGradient id="radial-gradient-9" cx="97.38" cy="453.35" r="21.34" xlink:href="#radial-gradient-7"/><linearGradient id="linear-gradient-10" x1="128.66" y1="275.65" x2="127.4" y2="403.92" xlink:href="#linear-gradient-2"/><linearGradient id="linear-gradient-11" x1="92" y1="283.85" x2="164.7" y2="419.06" xlink:href="#linear-gradient-3"/><radialGradient id="radial-gradient-10" cx="60.47" cy="144.55" r="26.53" gradientUnits="userSpaceOnUse"><stop offset="0" stop-color="#4f455c"/><stop offset="1" stop-color="#3e3547"/></radialGradient><linearGradient id="linear-gradient-12" x1="64.82" y1="150.89" x2="75.7" y2="196.89" gradientTransform="matrix(1, 0, 0, 1, 0, 0)" xlink:href="#radial-gradient-5"/><radialGradient id="radial-gradient-11" cx="42.39" cy="157.05" r="2.72" gradientUnits="userSpaceOnUse"><stop offset="0" stop-color="#3b3445"/><stop offset="1" stop-color="#2d2835"/></radialGradient><linearGradient id="linear-gradient-13" x1="69.92" y1="167.71" x2="80.11" y2="191.01" gradientTransform="matrix(1, 0, 0, 1, 0, 0)" xlink:href="#radial-gradient-5"/><radialGradient id="radial-gradient-12" cx="110.08" cy="315.43" r="50.27" xlink:href="#radial-gradient-10"/><linearGradient id="linear-gradient-14" x1="116.23" y1="263.01" x2="167.16" y2="282.69" gradientTransform="matrix(1, 0, 0, 1, 0, 0)" xlink:href="#radial-gradient-5"/><linearGradient id="linear-gradient-15" x1="86.56" y1="85" x2="86.69" y2="85" gradientTransform="translate(53.78 46.72) rotate(19)" xlink:href="#radial-gradient-5"/><radialGradient id="radial-gradient-13" cx="113.11" cy="149.03" r="48.92" xlink:href="#radial-gradient-10"/><radialGradient id="radial-gradient-14" cx="111.49" cy="239.09" r="48.91" gradientUnits="userSpaceOnUse"><stop offset="0" stop-color="#4f455c"/><stop offset="1" stop-color="#4f455c" stop-opacity="0"/></radialGradient><linearGradient id="linear-gradient-16" x1="112.02" y1="180" x2="164.19" y2="172.28" gradientTransform="matrix(1, 0, 0, 1, 0, 0)" xlink:href="#radial-gradient-5"/><radialGradient id="radial-gradient-15" cx="109.36" cy="144.27" r="50.72" xlink:href="#radial-gradient-10"/><radialGradient id="radial-gradient-16" cx="99.56" cy="247.89" r="48.93" xlink:href="#radial-gradient-14"/><radialGradient id="radial-gradient-17" cx="100.81" cy="176.5" r="2.72" xlink:href="#radial-gradient-11"/><radialGradient id="radial-gradient-18" cx="98.88" cy="203.95" r="2.72" xlink:href="#radial-gradient-11"/><linearGradient id="linear-gradient-17" x1="91.95" y1="153.73" x2="91.83" y2="168.19" gradientTransform="matrix(1, 0, 0, 1, 0, 0)" xlink:href="#radial-gradient-5"/><radialGradient id="radial-gradient-19" cx="115.35" cy="135.35" r="22" gradientUnits="userSpaceOnUse"><stop offset="0" stop-color="#f9dce4"/><stop offset="1" stop-color="#eab6c4"/></radialGradient><linearGradient id="linear-gradient-18" x1="80.52" y1="103.3" x2="120.72" y2="171.1" gradientUnits="userSpaceOnUse"><stop offset="0" stop-color="#b2a5ad"/><stop offset="1" stop-color="#b2a5ad" stop-opacity="0"/></linearGradient><radialGradient id="radial-gradient-20" cx="124.18" cy="138.57" r="27.23" xlink:href="#radial-gradient-10"/><radialGradient id="radial-gradient-21" cx="107.44" cy="141.46" r="24.8" xlink:href="#radial-gradient-10"/><linearGradient id="linear-gradient-19" x1="84.35" y1="173.53" x2="91.15" y2="173.53" xlink:href="#linear-gradient-2"/><linearGradient id="linear-gradient-20" x1="87.87" y1="174.2" x2="87.26" y2="167.77" xlink:href="#linear-gradient-3"/><radialGradient id="radial-gradient-22" cx="124.7" cy="145.75" r="50.42" gradientUnits="userSpaceOnUse"><stop offset="0" stop-color="#c3dc86"/><stop offset="1" stop-color="#99c15e"/></radialGradient><linearGradient id="linear-gradient-21" x1="105.98" y1="214.49" x2="120.42" y2="177.88" gradientTransform="matrix(1, 0, 0, 1, 0, 0)" xlink:href="#radial-gradient-5"/><linearGradient id="linear-gradient-22" x1="93.78" y1="199.29" x2="101.81" y2="170.73" xlink:href="#linear-gradient-2"/><linearGradient id="linear-gradient-23" x1="94.97" y1="184.4" x2="74.25" y2="174.91" xlink:href="#linear-gradient-3"/><linearGradient id="linear-gradient-24" x1="98.29" y1="169.81" x2="93.89" y2="175.71" xlink:href="#linear-gradient-3"/><radialGradient id="radial-gradient-23" cx="128.63" cy="146.78" r="26.37" xlink:href="#radial-gradient-10"/><linearGradient id="linear-gradient-25" x1="119.74" y1="140.77" x2="178.9" y2="211.39" gradientTransform="matrix(1, 0, 0, 1, 0, 0)" xlink:href="#radial-gradient-5"/><linearGradient id="linear-gradient-26" x1="122.03" y1="100.6" x2="122.49" y2="119.89" xlink:href="#linear-gradient-2"/><linearGradient id="linear-gradient-27" x1="125.04" y1="86.09" x2="126.5" y2="112.63" xlink:href="#linear-gradient-3"/><linearGradient id="linear-gradient-28" x1="127.07" y1="124.3" x2="146.91" y2="124.3" gradientTransform="matrix(1, 0, 0, 1, 0, 0)" xlink:href="#radial-gradient-5"/><linearGradient id="linear-gradient-29" x1="91.72" y1="119.49" x2="118.27" y2="119.49" gradientTransform="matrix(1, 0, 0, 1, 0, 0)" xlink:href="#radial-gradient-5"/><radialGradient id="radial-gradient-24" cx="120.43" cy="53.33" r="15.12" gradientTransform="translate(53.54 36.18) rotate(19)" xlink:href="#radial-gradient-4"/><linearGradient id="linear-gradient-30" x1="108.23" y1="42.04" x2="120.46" y2="42.04" gradientTransform="translate(53.54 36.18) rotate(19)" xlink:href="#radial-gradient-5"/><linearGradient id="linear-gradient-31" x1="114.65" y1="68.62" x2="120.32" y2="39.93" gradientTransform="translate(49.29 33.48) rotate(19)" xlink:href="#radial-gradient-4"/><linearGradient id="linear-gradient-32" x1="96.09" y1="31.34" x2="141.93" y2="26.94" gradientTransform="translate(49.29 33.48) rotate(19)" xlink:href="#radial-gradient-5"/><linearGradient id="linear-gradient-33" x1="74.87" y1="65.02" x2="74.85" y2="64.92" gradientTransform="translate(48.15 47.39) rotate(19)" xlink:href="#radial-gradient-4"/><linearGradient id="linear-gradient-34" x1="64.73" y1="73.5" x2="66" y2="41.09" gradientTransform="translate(48.15 47.39) rotate(19)" xlink:href="#radial-gradient-4"/><linearGradient id="linear-gradient-35" x1="91.3" y1="24.79" x2="35.04" y2="50.03" gradientTransform="translate(48.15 47.39) rotate(19)" xlink:href="#radial-gradient-5"/><linearGradient id="linear-gradient-36" x1="72.1" y1="65.01" x2="72.1" y2="64.96" gradientTransform="translate(50.17 43.99) rotate(19)" xlink:href="#radial-gradient-4"/><linearGradient id="linear-gradient-37" x1="72.52" y1="61.42" x2="73.56" y2="37.4" gradientTransform="translate(50.17 43.99) rotate(19)" xlink:href="#radial-gradient-4"/><linearGradient id="linear-gradient-38" x1="80.72" y1="2.88" x2="66.83" y2="55.09" gradientTransform="translate(50.17 43.99) rotate(19)" xlink:href="#radial-gradient-5"/><linearGradient id="linear-gradient-39" x1="107.35" y1="134.27" x2="107.33" y2="134.16" gradientTransform="matrix(1, 0, 0, 1, 0, 0)" xlink:href="#radial-gradient-4"/><linearGradient id="linear-gradient-40" x1="115.9" y1="128.72" x2="112.07" y2="105.66" gradientTransform="matrix(1, 0, 0, 1, 0, 0)" xlink:href="#radial-gradient-4"/><linearGradient id="linear-gradient-41" x1="104.2" y1="93.82" x2="114.01" y2="122.04" gradientTransform="matrix(1, 0, 0, 1, 0, 0)" xlink:href="#radial-gradient-5"/><linearGradient id="linear-gradient-42" x1="82.35" y1="25.94" x2="79.92" y2="4.06" gradientTransform="matrix(0.87, 0.49, -0.49, 0.87, 71.03, 68.16)" xlink:href="#radial-gradient-4"/><linearGradient id="linear-gradient-43" x1="77.5" y1="-0.68" x2="103.74" y2="5.57" gradientTransform="matrix(0.87, 0.49, -0.49, 0.87, 71.03, 68.16)" xlink:href="#radial-gradient-5"/><linearGradient id="linear-gradient-44" x1="100.07" y1="56.02" x2="108.31" y2="35.48" gradientTransform="translate(51.82 36.54) rotate(19)" xlink:href="#radial-gradient-4"/><linearGradient id="linear-gradient-45" x1="-755.73" y1="52.09" x2="-763.68" y2="59.48" gradientTransform="matrix(-1, -0.09, -0.09, 1, -596.64, -52.05)" xlink:href="#linear-gradient-2"/><linearGradient id="linear-gradient-46" x1="142.49" y1="61.4" x2="139.71" y2="67.57" gradientTransform="translate(13.26 0.71) rotate(4.94)" xlink:href="#linear-gradient-3"/><linearGradient id="linear-gradient-47" x1="-755.41" y1="51.59" x2="-764.03" y2="59.17" gradientTransform="matrix(-1, -0.09, -0.09, 1, -596.64, -52.05)" xlink:href="#linear-gradient-3"/><radialGradient id="radial-gradient-25" cx="101.3" cy="54.12" r="37.78" gradientTransform="translate(13.26 0.71) rotate(4.94)" gradientUnits="userSpaceOnUse"><stop offset="0.66" stop-color="#fddfa9"/><stop offset="1" stop-color="#fcc384"/></radialGradient><radialGradient id="radial-gradient-26" cx="98.65" cy="62.14" r="6.64" gradientTransform="translate(13.26 0.71) rotate(4.94)" xlink:href="#linear-gradient-3"/><radialGradient id="Rona_Pipi" cx="123.29" cy="66.46" r="12.5" gradientTransform="translate(13.26 0.71) rotate(4.94)" gradientUnits="userSpaceOnUse"><stop offset="0" stop-color="#dd6162"/><stop offset="1" stop-color="#df6263" stop-opacity="0"/></radialGradient><radialGradient id="Rona_Pipi-2" cx="85.8" cy="65.36" r="10.63" xlink:href="#Rona_Pipi"/><radialGradient id="radial-gradient-27" cx="91.95" cy="42.61" r="8.63" gradientTransform="translate(13.26 0.71) rotate(4.94)" xlink:href="#linear-gradient-3"/><radialGradient id="radial-gradient-28" cx="107.92" cy="42.65" r="9.79" gradientTransform="translate(13.26 0.71) rotate(4.94)" xlink:href="#linear-gradient-3"/><linearGradient id="linear-gradient-48" x1="117.66" y1="10.91" x2="102.84" y2="108.46" gradientTransform="translate(13.26 0.71) rotate(4.94)" xlink:href="#linear-gradient-3"/><radialGradient id="radial-gradient-29" cx="97" cy="2.95" r="22.67" xlink:href="#radial-gradient-4"/><radialGradient id="radial-gradient-30" cx="79.38" cy="-2.26" r="25.91" gradientTransform="translate(13.26 0.71) rotate(4.94)" xlink:href="#radial-gradient-7"/><radialGradient id="radial-gradient-31" cx="88.93" cy="45.58" r="7.15" gradientTransform="translate(13.26 0.71) rotate(4.94)" gradientUnits="userSpaceOnUse"><stop offset="0" stop-color="#2c2e2d"/><stop offset="1" stop-color="#363838"/></radialGradient><radialGradient id="Gradient_Eye" cx="92.88" cy="46.32" r="9.08" gradientTransform="translate(13.26 0.71) rotate(4.94)" gradientUnits="userSpaceOnUse"><stop offset="0.52" stop-color="#fff"/><stop offset="1" stop-color="#a6a5b1"/></radialGradient><clipPath id="clip-path"><path d="M95,52.14a4.23,4.23,0,0,0,.75,5.08c1.23,1.25,2.37.94,4.19,1.32a17.37,17.37,0,0,0,6.41.55c.14-4.41-1.9-6.63-4.33-8S96.09,49.72,95,52.14Z" fill="none"/></clipPath><radialGradient id="radial-gradient-32" cx="94.27" cy="47.04" r="4.52" gradientTransform="translate(13.26 0.71) rotate(4.94)" gradientUnits="userSpaceOnUse"><stop offset="0.74" stop-color="#e2a580"/><stop offset="0.83" stop-color="#a3765c"/><stop offset="0.95" stop-color="#624738"/></radialGradient><linearGradient id="linear-gradient-49" x1="92.07" y1="40.57" x2="91.58" y2="49.19" gradientTransform="translate(13.26 0.71) rotate(4.94)" xlink:href="#radial-gradient-5"/><linearGradient id="linear-gradient-50" x1="111.23" y1="76.05" x2="111.23" y2="70.8" xlink:href="#linear-gradient-2"/><linearGradient id="linear-gradient-51" x1="115.92" y1="71.15" x2="97.86" y2="41.28" gradientTransform="translate(13.26 0.71) rotate(4.94)" xlink:href="#linear-gradient-3"/><radialGradient id="radial-gradient-33" cx="118.06" cy="51.75" r="12.09" xlink:href="#linear-gradient-3"/><linearGradient id="linear-gradient-52" x1="98.25" y1="57.43" x2="100.27" y2="68.66" gradientTransform="translate(13.26 0.71) rotate(4.94)" xlink:href="#linear-gradient-3"/><radialGradient id="radial-gradient-34" cx="105.85" cy="-22.71" r="10.71" gradientTransform="matrix(0.98, 0.18, -0.18, 0.98, 20.12, 39.88)" xlink:href="#radial-gradient-4"/><radialGradient id="radial-gradient-35" cx="121.17" cy="45.37" r="8.99" xlink:href="#radial-gradient-31"/><radialGradient id="Gradient_Eye-2" cx="119.67" cy="46.67" r="12.36" xlink:href="#Gradient_Eye"/><clipPath id="clip-path-2"><path d="M118.19,60.57c1.77,1.42,4.69.54,8.63.74,4.73.25,7.4.49,9.24-2.52-.46-3.91-3.18-6.74-8.05-6.63C123.89,52.26,118.59,54.73,118.19,60.57Z" fill="none"/></clipPath><radialGradient id="radial-gradient-36" cx="120.8" cy="46.83" r="4.98" xlink:href="#radial-gradient-32"/><linearGradient id="linear-gradient-53" x1="118.68" y1="38.08" x2="118.49" y2="50.92" gradientTransform="translate(13.26 0.71) rotate(4.94)" xlink:href="#radial-gradient-5"/><radialGradient id="radial-gradient-37" cx="92.43" cy="34.38" r="6.91" gradientTransform="translate(8.43 -0.14) rotate(2.72)" xlink:href="#radial-gradient-4"/><radialGradient id="radial-gradient-38" cx="119.97" cy="6.31" r="39.12" xlink:href="#radial-gradient-4"/><linearGradient id="linear-gradient-54" x1="136.78" y1="110.08" x2="151.93" y2="110.08" gradientTransform="translate(13.26 0.71) rotate(4.94)" xlink:href="#radial-gradient-5"/><linearGradient id="linear-gradient-55" x1="117.97" y1="33.39" x2="180.01" y2="90.34" gradientTransform="translate(13.26 0.71) rotate(4.94)" xlink:href="#radial-gradient-5"/><radialGradient id="radial-gradient-39" cx="75.32" cy="-14.49" r="86.13" gradientTransform="translate(13.26 0.71) rotate(4.94)" xlink:href="#radial-gradient-7"/><radialGradient id="radial-gradient-40" cx="100.42" cy="62.15" r="1.48" xlink:href="#radial-gradient-31"/><radialGradient id="radial-gradient-41" cx="141.42" cy="69.92" r="5.95" xlink:href="#radial-gradient-4"/><filter id="luminosity-noclip-5" x="102.96" y="75.15" width="13.52" height="13.52" filterUnits="userSpaceOnUse" color-interpolation-filters="sRGB"><feFlood flood-color="#fff" result="bg"/><feBlend in="SourceGraphic" in2="bg"/></filter><mask id="mask-5" x="102.96" y="75.15" width="13.52" height="13.52" maskUnits="userSpaceOnUse"><g mask="url(#mask)" filter="url(#luminosity-noclip-5)"><path d="M116.46,82.49a6.77,6.77,0,1,1-6.16-7.32A6.76,6.76,0,0,1,116.46,82.49Z" fill="url(#radial-gradient)" style="mix-blend-mode:multiply"/></g></mask><radialGradient id="radial-gradient-42" cx="101.16" cy="78.87" r="6.76" gradientTransform="matrix(1, 0.09, -0.09, 1, 13.31, 1)" gradientUnits="userSpaceOnUse"><stop offset="0" stop-color="#e09768"/><stop offset="1" stop-color="#e19768"/></radialGradient><radialGradient id="radial-gradient-43" cx="104.93" cy="74.65" r="7.83" gradientTransform="matrix(1, 0.09, -0.09, 1, 13.31, 1)" gradientUnits="userSpaceOnUse"><stop offset="0" stop-color="#674738"/><stop offset="1" stop-color="#473127"/></radialGradient><clipPath id="clip-path-3"><path d="M101.92,77.16a52.12,52.12,0,0,1,1.69,6.38c.42,1.67,1.9,2.17,4.17,2.78s7-1,8.51-2.44,6.32-5.62,6.93-6.19c-2,0-9.79.67-11.52.73S105.24,78.43,101.92,77.16Z" fill="none"/></clipPath><radialGradient id="Gradient_Eye-3" cx="103.28" cy="70.16" r="9.51" gradientTransform="matrix(1, 0.09, -0.09, 1, 13.31, 1)" xlink:href="#Gradient_Eye"/><radialGradient id="Gradient_Eye-4" cx="102.96" cy="77.21" r="13.75" gradientTransform="matrix(1, 0.09, -0.09, 1, 13.31, 1)" xlink:href="#Gradient_Eye"/><mask id="mask-6" x="102.72" y="75.37" width="21.51" height="5.48" maskUnits="userSpaceOnUse"><g mask="url(#mask-2)"><path d="M124.22,77.22c-.27.34-3.37,2.32-4.35,3.63a3.86,3.86,0,0,0-2-.94c-1.6-.2-4.84.17-7.36.2a20.41,20.41,0,0,1-7.57-1.44c-.06-.4-.12-.88-.18-1.42C108.08,74.34,120.82,75.19,124.22,77.22Z" fill="url(#linear-gradient)" style="mix-blend-mode:multiply"/></g></mask><linearGradient id="linear-gradient-56" x1="106.06" y1="62" x2="106.65" y2="72.62" gradientTransform="matrix(1, 0.09, -0.09, 1, 13.31, 1)" gradientUnits="userSpaceOnUse"><stop offset="0" stop-color="#a6a5b1"/><stop offset="1" stop-color="#a6a5b1"/></linearGradient><radialGradient id="radial-gradient-44" cx="102.26" cy="58.44" r="10.97" gradientTransform="matrix(1, 0.09, -0.09, 1, 13.31, 1)" gradientUnits="userSpaceOnUse"><stop offset="0.82" stop-color="#f38081"/><stop offset="1" stop-color="#de6b6b"/></radialGradient><radialGradient id="radial-gradient-45" cx="102.7" cy="71.73" r="6.63" gradientTransform="matrix(1, 0.09, -0.09, 1, 13.31, 1)" gradientUnits="userSpaceOnUse"><stop offset="0.78" stop-color="#f38081"/><stop offset="1" stop-color="#de6b6b"/></radialGradient><filter id="luminosity-noclip-6" x="120.43" y="75.84" width="4.12" height="4.12" filterUnits="userSpaceOnUse" color-interpolation-filters="sRGB"><feFlood flood-color="#fff" result="bg"/><feBlend in="SourceGraphic" in2="bg"/></filter><mask id="mask-7" x="120.43" y="75.84" width="4.12" height="4.12" maskUnits="userSpaceOnUse"><g mask="url(#mask-3)" filter="url(#luminosity-noclip-6)"><path d="M124.54,78.08a2.06,2.06,0,1,1-1.87-2.23A2.06,2.06,0,0,1,124.54,78.08Z" fill="url(#radial-gradient-2)" style="mix-blend-mode:multiply"/></g></mask><radialGradient id="radial-gradient-46" cx="115.39" cy="67.2" r="2.06" xlink:href="#radial-gradient-42"/><filter id="luminosity-noclip-7" x="98.11" y="73.99" width="4.12" height="4.12" filterUnits="userSpaceOnUse" color-interpolation-filters="sRGB"><feFlood flood-color="#fff" result="bg"/><feBlend in="SourceGraphic" in2="bg"/></filter><mask id="mask-8" x="98.11" y="73.99" width="4.12" height="4.12" maskUnits="userSpaceOnUse"><g mask="url(#mask-4)" filter="url(#luminosity-noclip-7)"><path d="M102.22,76.22A2.06,2.06,0,1,1,100.35,74,2.06,2.06,0,0,1,102.22,76.22Z" fill="url(#radial-gradient-3)" style="mix-blend-mode:multiply"/></g></mask><radialGradient id="radial-gradient-47" cx="93" cy="67.28" r="2.06" xlink:href="#radial-gradient-42"/></defs><g style="isolation:isolate"><g id="Layer_2" data-name="Layer 2"><g id="Layer_2-2" data-name="Layer 2"><path d="M133.32.34c7.8.29,21.67,3.74,30,14.69s8.62,20.42,8.44,31.4c-.16,10.19,3.42,15.94,5.42,25.1s-4.94,17.7-8.86,21.86-7.29,3.7-10.08,9-3.4,5.28-2,10.36-1.37,12.28-5.15,14.74c-20.73,5-51.19-8.15-53.66-10.07,5.85-3.21,5.42-9,1.69-12.4S93.43,97.9,95.87,93s3.29-11.18,1.25-14.45-6.57-6.46-6.57-6.46c-3-2.74-6-8-1.19-20.24s3.71-23.23,7.57-28.47S120.35-.16,133.32.34Z" fill="url(#radial-gradient-4)"/><path d="M133.32.34c7.8.29,21.67,3.74,30,14.69s8.62,20.42,8.44,31.4c-.16,10.19,3.42,15.94,5.42,25.1s-4.94,17.7-8.86,21.86-7.29,3.7-10.08,9-3.4,5.28-2,10.36-1.37,12.28-5.15,14.74c-20.73,5-51.19-8.15-53.66-10.07,5.85-3.21,5.42-9,1.69-12.4S93.43,97.9,95.87,93s3.29-11.18,1.25-14.45-6.57-6.46-6.57-6.46c-3-2.74-6-8-1.19-20.24s3.71-23.23,7.57-28.47S120.35-.16,133.32.34Z" fill="url(#radial-gradient-5)" style="mix-blend-mode:multiply"/><path d="M49.16,147.27c.05,6.11-2.34,9.6-5.89,10.17,0,0-.17-.37-.47-1-1.28-2.8-5-10.65-5.37-10.84a20.91,20.91,0,0,0-5.41-.94c-2.91-.22-8.59-1.61-12.26-2.28S13.5,141,9.63,140.51c-3.48-.44-4.33-1.09-4.72-1.78,0-.07-.06-.16-.1-.24v0H4.65c-1.41-.3-2.23-1.1-2.28-1.76a.6.6,0,0,1,.07-.47l.1-.11s0,0,0,0,0-.05.06-.09a.44.44,0,0,1-.15,0c-1.31-.24-2.72-.83-2.44-1.65l.11-.22c.4-.57,1.35-.85,2.72-1h0c.9-.13,2-.18,3.29-.24a.47.47,0,0,1,.1-.05c1.11-.69,3.39-1,5.76-.74s10.46.48,15.59,1l.28,0H28a7.18,7.18,0,0,1-1.38-.65l0,0a2.85,2.85,0,0,1-1.06-.85c-.42-.73-.65-2.86,1.61-2s3.5.57,6.63.94,7.62.37,9.43,3.13,1.32,5.49,2,6.56c.26.45,1,1.63,1.69,2.91l0,0C48,145,49.16,147.12,49.16,147.27Z" fill="url(#linear-gradient-2)"/><path d="M2.48,136c-1.31-.24-2.72-.83-2.44-1.65a13.2,13.2,0,0,0,4.63.89,4.73,4.73,0,0,0-2.1.87s0-.05.06-.09A.44.44,0,0,1,2.48,136Z" fill="url(#linear-gradient-3)" style="mix-blend-mode:darken"/><path d="M5.46,137.73a1.64,1.64,0,0,0-.7.74H4.65c-1.41-.3-2.23-1.1-2.28-1.76A7.33,7.33,0,0,0,5.46,137.73Z" fill="url(#linear-gradient-4)" style="mix-blend-mode:darken"/><path d="M45.58,155.31a17.39,17.39,0,0,1-2.78,1.15c-1.28-2.8-5-10.65-5.37-10.84a20.91,20.91,0,0,0-5.41-.94c-2.91-.22-8.59-1.61-12.26-2.28S13.5,141,9.63,140.51c-3.48-.44-4.33-1.09-4.72-1.78.46.1.92.23,1.37.37,1.85.58,7.29,1.17,9.15,1.45s6.42,1,8.79,1.39,9,1.16,10.71,1.39a8.42,8.42,0,0,0,4.52-.87,12.39,12.39,0,0,0,1.61,4.87c.74,1.15,5.48-4.08,5.78-4.28h0s0,0,0,0C48.75,147.85,45.53,155.14,45.58,155.31Z" fill="url(#linear-gradient-5)" style="mix-blend-mode:darken"/><path d="M35.54,133.16c-.95-.08-1.87-.08-2.8-.07s-1.89.06-2.8.07a19.19,19.19,0,0,1-2-.1H28a6.61,6.61,0,0,1-1.38-.65l.57.05c.91.07,1.84.07,2.77.07s1.87,0,2.82.07A10.17,10.17,0,0,1,35.54,133.16Z" fill="#b8784d"/><path d="M24.29,133.39c-.3.32-.62.63-.95.93a.46.46,0,0,0-.12.12c-.39.33-.79.67-1.19,1a8.81,8.81,0,0,1-1.12.76,5.26,5.26,0,0,1-.65.36l-.84.46a2.83,2.83,0,0,0-1.12.8,3.82,3.82,0,0,0-.37.58l-.05.14a2.81,2.81,0,0,0-.19.53,5.16,5.16,0,0,0,.12,2.88,4.52,4.52,0,0,1-.61-3,2.34,2.34,0,0,1,.12-.4.48.48,0,0,1,.07-.24,3.37,3.37,0,0,1,.44-.84,3,3,0,0,1,1.17-.95l.09-.05.77-.39a15.75,15.75,0,0,0,1.89-1l.92-.6c.09,0,.18-.12.28-.17Z" fill="#b8784d"/><path d="M30.08,137.17a16,16,0,0,1,3.35-.93,15.09,15.09,0,0,1,3.5-.18,5.2,5.2,0,0,1,3.23,1.51,4.87,4.87,0,0,1,1.45,3.16,5.71,5.71,0,0,0-1.8-2.78,5.21,5.21,0,0,0-3-1.22,20,20,0,0,0-3.37,0C32.35,136.83,31.22,137,30.08,137.17Z" fill="#b8784d"/><path d="M17.93,138.38l-.05.14h-.56c-.79,0-1.58-.07-2.38-.12-1.28-.11-2.49-.19-3.71-.3s-2.49-.21-3.73-.37a4.2,4.2,0,0,0-1.77.06,1.6,1.6,0,0,0-.94.68.3.3,0,0,1-.14,0,1.81,1.81,0,0,1,1-1,4.29,4.29,0,0,1,1.93-.28c1.24.05,2.5.11,3.74.19s2.49.3,3.73.48c.8.12,1.59.26,2.38.42A2.56,2.56,0,0,1,17.93,138.38Z" fill="#b8784d"/><path d="M20.91,136.18a5.26,5.26,0,0,1-.65.36l-1.26,0c-.19,0-.4,0-.6,0-2-.14-4-.27-5.95-.46s-4-.42-5.93-.56a7.11,7.11,0,0,0-4.08.79,1.06,1.06,0,0,1,.19-.23l-.15,0a7.19,7.19,0,0,1,4-1.06c2,.06,4,.27,6,.39s4,.37,6,.58c.47.05.92.1,1.4.17Z" fill="#b8784d"/><path d="M23.34,134.32a.46.46,0,0,0-.12.12,4.87,4.87,0,0,1-.55,0c-1.38,0-2.76-.14-4.13-.24l-5.84-.46-5.83-.42-4-.21c.91-.12,2-.17,3.31-.22l.08-.06h.6c2,0,3.9.09,5.86.23s3.9.33,5.85.58q2.17.25,4.35.63A2.44,2.44,0,0,1,23.34,134.32Z" fill="#b8784d"/><path d="M124.41,439.51c-1.19,1.15-3.3,3.13-5.76,5.35-5.5,5-12.76,11.17-15.08,11.89-3.35,1.06-12.5,1.63-16.67-.79-.29-.19-.57-.35-.81-.52-3.09-2.21-1.52-3.95-.35-4.71s2.9-2.31,5.55-4.51,8.69-1.51,9-1.62l21.52-19S128.23,435.81,124.41,439.51Z" fill="url(#radial-gradient-6)"/><path d="M120.71,437.12s-.95,3.59-2.06,7.74c-5.5,5-12.76,11.17-15.08,11.89-3.35,1.06-12.5,1.63-16.67-.79-.29-.19-.57-.35-.81-.52a24.36,24.36,0,0,0,12.17.59c4.31-1.09,11.11-11.2,11.94-12.89A63.74,63.74,0,0,1,120.71,437.12Z" fill="url(#linear-gradient-6)" style="mix-blend-mode:multiply"/><path d="M87.52,451.78c2.86.85,8.41.7,10.81.23C94.31,454.4,89.68,454.1,87.52,451.78Z" opacity="0.7" fill="url(#radial-gradient-7)" style="mix-blend-mode:screen"/><path d="M128.69,422.62c-2.32,3.07-12.47,18.59-17.25,21.52-1.44.89-2.85,1.76-4.18,2.48,0,0,0,0,0,0-3,1.65-5.61,2.63-7.37,1.67-2.54-1.39-3.71-2.09-8.58-2.09,0,0,7.41-6.25,10-9.49s7.41-9.26,9.26-13,3.55-6.8,2.63-10.51A74.4,74.4,0,0,0,109,400c-2.63-6.29-8.87-20.22-12.35-27.63s-5.78-16.21-7.41-19.69-2.32-6.24-3.71-10.19S83,334.64,83,331.62s.7-10.87.92-16.91c7.52-4.22,18.69-6.24,26.27,1.35.28.28.55.58.83.89-3.09,6.34-4.48,19.76,0,25.17s7.56,14.82,8.48,25.47c.8,9,1.8,22.89,2.63,33.25C123,412.26,125,416.89,128.69,422.62Z" fill="url(#linear-gradient-7)"/><path d="M128.69,422.62c-2.32,3.07-12.47,18.59-17.25,21.52-1.44.89-2.85,1.76-4.18,2.48,3.81-4.94,8-12.18,8.35-14.83.47-3.54,3.85-9.73,5.87-14.82-.46-2.78-3.55-23.3-4-30s-2.77-23.59-3.7-28.22-6-11.36-8.8-7-3.7,2.78-4.41,1.41-2.07-7.41-1.61-10.67,1.61-8.09,1.61-12.72-3.22-7.87-8.33-8.58l17.93-5.13c.28.28.55.58.83.89-3.09,6.34-4.48,19.76,0,25.17s7.56,14.82,8.48,25.47c.8,9,1.8,22.89,2.63,33.25C123,412.26,125,416.89,128.69,422.62Z" fill="url(#linear-gradient-8)" style="mix-blend-mode:darken"/><path d="M91.45,332.9a8.89,8.89,0,0,1,1.38,2.75,10,10,0,0,1-.06,6.13,12,12,0,0,1-.6,1.43,10.08,10.08,0,0,1-.84,1.28,15.17,15.17,0,0,0,.9-2.85,13.84,13.84,0,0,0,.32-2.93,14.75,14.75,0,0,0-1.1-5.81Z" fill="#b8784d"/><path d="M95.37,346.12a5.86,5.86,0,0,1-.14.77q-.09.35-.21.69t-.3.66a7,7,0,0,1-.4.67,2.49,2.49,0,0,1-.11-.8,2.94,2.94,0,0,1,.17-.78,3.07,3.07,0,0,1,.39-.68A2.54,2.54,0,0,1,95.37,346.12Z" fill="#b8784d"/><path d="M139,437.19c-.6,2.54-6.38,16.56-6.38,16.56a4,4,0,0,1-2.09.69s.46-5,.7-7.3c-1.05.82-2.42,3.71-5,6.37s-4.52,5.1-10.18,5.91a35,35,0,0,1-11.17-.2,21.75,21.75,0,0,1-2.37-.61c-2.78-.93-.58-3.82.92-5s3.47-2.77,5.21-4.39,3.39-1.24,5.7-1.85c0,0,9.58-8.5,16-15.45,2.93-3.16,5.21-6,5.62-7.55C138.08,426.62,139.58,434.66,139,437.19Z" fill="url(#radial-gradient-8)"/><path d="M139,437.19c-.6,2.54-6.38,16.56-6.38,16.56a4,4,0,0,1-2.09.69s.46-5,.7-7.3c-1.05.82-2.42,3.71-5,6.37s-4.52,5.1-10.18,5.91a35,35,0,0,1-11.17-.2c1,0,2.24-.06,3.61-.11,9.56-.43,11.8-4.78,13.82-7.49s5.39-10.72,7.94-17.28l.09-2.41c2.93-3.16,5.21-6,5.62-7.55C138.08,426.62,139.58,434.66,139,437.19Z" fill="url(#linear-gradient-9)" style="mix-blend-mode:multiply"/><path d="M106.27,454.87c3.4.62,8.8.23,10.65-.47C114.15,456.87,108.74,456.64,106.27,454.87Z" fill="url(#radial-gradient-9)"/><path d="M142,334.4c1.85,8.57,4.63,16.06,4,30.1s-5.73,30.09-8.65,40.13-2.32,17.43-1.39,19.75a33.61,33.61,0,0,1-3.86,8.18c-.27.43-.66,1.19-1.16,2.13a.28.28,0,0,0,0,.12c-1.41,2.77-3.5,7.24-5.45,10.87-2.61,4.94-6.16,6-8.63,5.26a50.62,50.62,0,0,0-8.18-1.71c1.07-1.24,6.16-8.48,7.55-12.65A85,85,0,0,1,120.71,425c1.77-3.56,2.37-7.39,2.87-13.93l0-.89c1.24-17.13-1.54-31.19-1.54-39.53a129.08,129.08,0,0,0-3.24-25.15c-1.14-4.39-1.14-10.19-2.31-13.89s-1.39-9.72-.93-16.43c2.28-2.83,18.41-13.06,26.54-11.74a5,5,0,0,1,4.49,4.24C142.15,321.43,141,329.82,142,334.4Z" fill="url(#linear-gradient-10)"/><path d="M142,334.4c1.85,8.57,4.63,16.06,4,30.1s-5.73,30.09-8.65,40.13-2.32,17.43-1.39,19.75a33.61,33.61,0,0,1-3.86,8.18c-.27.43-.66,1.19-1.16,2.13.81-2,1.63-3.87,1.92-4.76.63-1.77,1.32-5,1.71-6.31s-.76-3.5-1.43-6.69,1.43-10.76,2.35-18.39,4.41-26.86,3.71-35-5.1-18.74-5.1-22.93,1.39-11.8.47-15.26-4.63-4.19-13.43-4.87l1.85-7.87,19.13-9.19a5,5,0,0,1,4.49,4.24C142.15,321.43,141,329.82,142,334.4Z" fill="url(#linear-gradient-11)"/><path d="M127.62,325.56a13.13,13.13,0,0,1,.31,2.8,9.55,9.55,0,0,1-.43,2.84,6.67,6.67,0,0,1-1.48,2.48,4.75,4.75,0,0,1-2.44,1.44,6.42,6.42,0,0,0,2.06-1.77,7.91,7.91,0,0,0,1.22-2.36,12.46,12.46,0,0,0,.56-2.66C127.53,327.42,127.56,326.5,127.62,325.56Z" fill="#b8784d"/><path d="M127.62,338.09a4.08,4.08,0,0,1-.35,1.14,5.89,5.89,0,0,1-.6,1,5.63,5.63,0,0,1-.82.87,4.43,4.43,0,0,1-1,.64c.22-.34.42-.67.64-1l.66-.92.71-.89C127.09,338.68,127.34,338.38,127.62,338.09Z" fill="#b8784d"/><path d="M133.17,416.94a7.08,7.08,0,0,0,1.13,2.92,6.51,6.51,0,0,1,1.36,3,8.37,8.37,0,0,1-.61,3.26l-.55,1.52-.3.75c-.09.22-.23.6-.54.56.29,0,.31-.37.36-.62s.1-.54.15-.79c.13-.56.24-1.07.35-1.57a9.58,9.58,0,0,0,.41-3.05,7.19,7.19,0,0,0-1.09-2.84A5.8,5.8,0,0,1,133.17,416.94Z" fill="#b8784d"/><path d="M123.57,411.07a56.36,56.36,0,0,1-1.46,10.27,26.25,26.25,0,0,1-2,4.8c-.74,1.56-1.39,3.17-2,4.79-1.26,3.22-2,6.66-3.81,9.64a67.39,67.39,0,0,1-5.7,8.66c1-1.41,1.86-2.92,2.71-4.42s1.73-3,2.5-4.51a28.35,28.35,0,0,0,2-4.67c.53-1.65,1.06-3.31,1.64-4.95s1.3-3.25,2.07-4.83a29.17,29.17,0,0,0,2-4.67,34.65,34.65,0,0,0,1.16-5C123.05,414.5,123.32,412.79,123.57,411.07Z" fill="#b8784d"/><path d="M96.63,119.3c-1,4.23-1.21,31.66-1.61,42.12v0c0,.82-.06,1.5-.1,2.09a7,7,0,0,1-.39.76s0,.06,0,.1c-2.34,4.48-10.19,18.76-15.06,23.44l-.09.1a14.07,14.07,0,0,1-2.67,2c-4.34,2.5-8.48,1.29-11.69-1.39-3.87-3.24-15.91-16.36-26.71-32.73.47-.91,1.17-2.17,2.13-3.7a111.1,111.1,0,0,1,6.82-9.73c1.09,1.71,18.06,21.47,21.76,24.86l.17-.37c0-.17.11-.32.17-.47.24-.81.31-1.44,1.37-1.79,1.39-.47,4.85-4.78,4.7-7.1a4.33,4.33,0,0,1,1.85-4.16c.93-.61,1.86-.93,1.71-3.24s1.39-4.49,2.78-5.88,2.85-6.78,4.55-12S93.53,120.32,96.63,119.3Z" fill="url(#radial-gradient-10)"/><path d="M95,161.42v0c0,.82-.06,1.5-.1,2.09a7,7,0,0,1-.39.76s0,.06,0,.1c-2.34,4.48-10.19,18.76-15.06,23.44l-.09.1a14.07,14.07,0,0,1-2.67,2c-4.34,2.5-8.48,1.29-11.69-1.39-3.87-3.24-15.91-16.36-26.71-32.73.47-.91,1.17-2.17,2.13-3.7,5.41,8,16.34,22.07,20.21,26.35,4.3,4.74,5.91,6,7.52,6.73s.46-6.26.52-10.21c2.15,7.3,4.7,10.08,7,9.85s3.7-3.24,4.06-6.26,3.92-4.63,6-6.35-1.15-9-5.21-12.17c6.61,1.41,9.73-1.26,10.76-2.78A14.79,14.79,0,0,1,95,161.42Z" fill="url(#linear-gradient-12)" style="mix-blend-mode:multiply"/><circle cx="43.07" cy="158.46" r="1.85" fill="url(#radial-gradient-11)"/><path d="M75,179.43c-1.39.55-3.07-.86-4.17-5.1-1-3.83-1-4.89-1.68-7.46,0-.17.11-.32.17-.47A34.58,34.58,0,0,1,73.94,172C75.4,174.42,76.4,178.89,75,179.43Z" fill="url(#linear-gradient-13)" style="mix-blend-mode:multiply"/><path d="M69.22,167.2c.81,1.84,1.57,3.7,2.31,5.56l1.09,2.82c.37.93.57,2,1.31,2.32a.78.78,0,0,0,.21.09h0s0,0,0,0a.92.92,0,0,0,.06-.25,4,4,0,0,0,0-.61,8,8,0,0,0-.17-1.28,12.54,12.54,0,0,0-.85-2.48,49.19,49.19,0,0,1-2.49-5.47c.88,1.81,2.08,3.4,3,5.22a12.39,12.39,0,0,1,1,2.58,8.19,8.19,0,0,1,.21,1.39,3.66,3.66,0,0,1,0,.74,2.17,2.17,0,0,1-.09.41,2.32,2.32,0,0,1-.32.54,2.63,2.63,0,0,1-.58-.07,1.92,1.92,0,0,1-.36-.14c-1.14-.65-1.25-1.9-1.6-2.76s-.64-1.89-1-2.84C70.39,171.05,69.79,169.14,69.22,167.2Z" fill="#2d2835"/><path d="M71.79,164.88a17.53,17.53,0,0,1,2.64,1c.85.4,1.68.81,2.52,1.16a15.91,15.91,0,0,0,2.55.93,9.51,9.51,0,0,0,2.73.34,5.94,5.94,0,0,1-2.84.27,10.24,10.24,0,0,1-2.77-.8,22.71,22.71,0,0,1-2.47-1.38Z" fill="#2d2835"/><path d="M82.88,179.17a17.55,17.55,0,0,1-1.24,4.74,19.18,19.18,0,0,1-2.2,3.92l-.09.1a14.07,14.07,0,0,1-2.67,2,28.44,28.44,0,0,0,1.87-2.24,27.18,27.18,0,0,0,2.54-4A29.06,29.06,0,0,0,82.88,179.17Z" fill="#2d2835"/><path d="M47.7,143.49c.68,1,1.3,1.95,1.9,3s1.16,2,1.69,3.08,1,2.12,1.47,3.2.85,2.18,1.22,3.3c-.59-1-1.16-2-1.7-3.08l-1.61-3.11c-.49-1-1-2.05-1.52-3.15S48.16,144.57,47.7,143.49Z" fill="#2d2835"/><path d="M80.31,159.81c1.18.54,2.38,1,3.57,1.5s2.41.87,3.64,1.25,2.45.72,3.7,1,2.5.57,3.78.8a25.43,25.43,0,0,1-3.89-.26,26.26,26.26,0,0,1-3.81-.87,25.91,25.91,0,0,1-3.63-1.45A23.63,23.63,0,0,1,80.31,159.81Z" fill="#2d2835"/><path d="M81.35,152.09,84,152l2.59-.16,2.6-.16c.87-.06,1.74-.12,2.62-.21a20.62,20.62,0,0,1-2.54.77,16.53,16.53,0,0,1-2.63.4,19.54,19.54,0,0,1-2.65,0A15.34,15.34,0,0,1,81.35,152.09Z" fill="#2d2835"/><path d="M69.09,168.15a27.35,27.35,0,0,0,0,3.39c.07,1.12.19,2.24.31,3.37s.21,2.26.26,3.41a21.87,21.87,0,0,1-.14,3.43c-.11-1.14-.29-2.26-.45-3.38s-.32-2.25-.45-3.38a28.18,28.18,0,0,1-.12-3.44A13.42,13.42,0,0,1,69.09,168.15Z" fill="#2d2835"/><path d="M159.14,255.92c-.69,13.41-7.65,39.82-12.28,58.35-.93,1.61-5.08,3.7-9.26,4.38l-1.54.26c-6.41,1-24.78,3.73-31.1,4.13-6.94.49-20.84,1.63-22.45-1.85-.48-8.78.69-64.12.84-69.36s2.87-6.8,4.48-11.21l11.11-31.93s45.62,9.95,53.72,15.5a30.68,30.68,0,0,1,2.42,5.6C157.3,236.18,159.62,246.35,159.14,255.92Z" fill="url(#radial-gradient-12)"/><path d="M159.14,255.92c-.69,13.41-7.65,39.82-12.28,58.35-.93,1.61-5.08,3.7-9.26,4.38l-1.54.26c3-13.05,8.17-37.21,9.43-46.1,1.61-11.57,0-26.39-5.8-35.41l15.39-7.61C157.3,236.18,159.62,246.35,159.14,255.92Z" fill="url(#linear-gradient-14)" style="mix-blend-mode:multiply"/><path d="M97.32,252.46c2.41-.36,4.8-.74,7.19-1.14s4.77-.86,7.14-1.36,4.73-1,7.09-1.55l7.06-1.74q-3.4,1.29-6.92,2.28c-2.34.65-4.71,1.23-7.09,1.72s-4.79.86-7.2,1.17S99.75,252.35,97.32,252.46Z" fill="#2d2835"/><path d="M100.57,261.94c2.08-.74,4.15-1.5,6.2-2.32s4.08-1.65,6.1-2.54,4-1.79,6-2.74,4-1.92,5.94-2.93a65.46,65.46,0,0,1-5.68,3.44c-1.94,1.06-3.94,2-6,2.91s-4.11,1.66-6.21,2.36S102.72,261.44,100.57,261.94Z" fill="#2d2835"/><path d="M98.52,308.55c2.3-1.34,4.59-2.69,6.85-4.08s4.52-2.79,6.74-4.24,4.44-2.9,6.63-4.4l6.55-4.55c-2,1.75-4.07,3.44-6.21,5s-4.32,3.12-6.56,4.57-4.53,2.81-6.87,4.08S100.94,307.44,98.52,308.55Z" fill="#2d2835"/><path d="M100.76,314.16l6.61-2.87,6.55-3q3.27-1.49,6.51-3.05l6.48-3.14c-2,1.27-4.1,2.51-6.22,3.65s-4.27,2.22-6.45,3.23-4.41,1.93-6.66,2.79S103.06,313.46,100.76,314.16Z" fill="#2d2835"/><path d="M118.23,269.64q-1.94,2.43-3.94,4.8l-4.07,4.69a37.18,37.18,0,0,0-3.8,4.83,12.74,12.74,0,0,0-1.36,2.71.85.85,0,0,0,.67,1,3.48,3.48,0,0,0,1.51.11,3.42,3.42,0,0,1-1.56.06,1.1,1.1,0,0,1-.94-1.25,11.81,11.81,0,0,1,1.23-2.92,30.17,30.17,0,0,1,3.74-5l4.2-4.58Q116,271.85,118.23,269.64Z" fill="#2d2835"/><path d="M107.94,155.32s.1,0,.16-.08C108,155.35,108,155.39,107.94,155.32Z" fill="url(#linear-gradient-15)" style="mix-blend-mode:multiply"/><path d="M158.82,237.47c-3.55,1-7.35,2-11.2,2.93-14.08,3.2-28.8,4.85-34,.61s-9.07-10.65-11.32-20.11a74.8,74.8,0,0,1-1.5-9.21c-.61-16.67,3.1-53.4,3.1-53.4l11.87-26.56L134,113.08l2.28-2.33s2.46,1.07,4.74,2.31,12,6.48,14.15,7.41-3.71,22.08-7.09,27.93-7.56,15.74-12,21.47-4.78,13.72-3.39,18.21,8.87,11.33,14.74,20.83S155.75,227.58,158.82,237.47Z" fill="url(#radial-gradient-13)"/><path d="M158.82,237.47c-3.55,1-7.35,2-11.2,2.93-14.08,3.2-28.8,4.85-34,.61s-9.07-10.65-11.32-20.11a74.8,74.8,0,0,1-1.5-9.21c-.16-4.8,0-11.26.36-18s.87-14,1.37-20.12c.72-8.76,1.37-15.26,1.37-15.26l11.87-26.56L134,113.08l2.28-2.33s2.46,1.07,4.74,2.31,12,6.48,14.15,7.41-3.71,22.08-7.09,27.93-7.56,15.74-12,21.47-4.78,13.72-3.39,18.21a14.87,14.87,0,0,0,1.9,3.59c2.15,3.13,5.64,7,9.1,11.74,1.26,1.72,2.54,3.56,3.74,5.5C153.19,218.41,155.75,227.58,158.82,237.47Z" fill="url(#radial-gradient-14)"/><path d="M158.82,237.47c-3.55,1-7.35,2-11.2,2.93-1.22-6.08-3.26-15.1-5.73-21.65-4-10.76-9.85-19.91-11.81-21.06s-7.63-2.09-12.86-2.89c2.34-.82,5.69-2.21,7.54-4.3s.35-6.81-5-7.74-3.7-3.59,1.39-5,5.67-2.91,3.59-2.67a38.18,38.18,0,0,1-13.07-1.28c12-1.52,12.94-5.78,10.16-7.3a28,28,0,0,1-7.85-6.24c12.37.24,20.6-7.41,21.26-10.89,2.19-1.18,11.84-5.43,10.23-5.2a86.61,86.61,0,0,1-13,.42c2.65-.26,8.78-1.57,9.93-4.44-.61-1.72,4.08-9.87,2.33-17.51-2.18-.9-9.66-5.7-9.94-5.77l-.89-3.82,2.28-2.33s2.46,1.07,4.74,2.31,12,6.48,14.15,7.41-3.71,22.08-7.09,27.93-7.56,15.74-12,21.47-4.78,13.72-3.39,18.21,8.87,11.33,14.74,20.83S155.75,227.58,158.82,237.47Z" fill="url(#linear-gradient-16)" style="mix-blend-mode:multiply"/><path d="M132.51,144.63c1.46-.13,2.91-.28,4.35-.47s2.88-.43,4.3-.71,2.84-.56,4.25-.91,2.83-.71,4.24-1.11a30.12,30.12,0,0,1-4.08,1.67,35.16,35.16,0,0,1-4.27,1.09,36,36,0,0,1-4.39.51A32.32,32.32,0,0,1,132.51,144.63Z" fill="#2d2835"/><path d="M135.27,149.39a16.14,16.14,0,0,1,3-1.33c1-.36,2.08-.64,3.12-.91l3.12-.76a24.22,24.22,0,0,0,3.07-1,13.47,13.47,0,0,1-2.88,1.53,27.26,27.26,0,0,1-3.12.95l-3.16.68C137.35,148.82,136.3,149.07,135.27,149.39Z" fill="#2d2835"/><path d="M118.07,161.93a20,20,0,0,0,6.37,0,18.79,18.79,0,0,0,6-2,19.15,19.15,0,0,0,5-3.82,20.2,20.2,0,0,0,3.6-5.26,16.31,16.31,0,0,1-3.14,5.67,17.05,17.05,0,0,1-5.1,4.1,17.48,17.48,0,0,1-6.27,1.86A16.64,16.64,0,0,1,118.07,161.93Z" fill="#2d2835"/><path d="M111.68,173.83c1.77.11,3.53.16,5.28.14s3.5-.12,5.24-.3,3.48-.42,5.2-.75,3.45-.7,5.15-1.18a31.4,31.4,0,0,1-5,1.78,36,36,0,0,1-5.26,1,36.49,36.49,0,0,1-5.33.1A31,31,0,0,1,111.68,173.83Z" fill="#2d2835"/><path d="M129.86,176.31c-1.19.52-2.4,1-3.62,1.43L122.58,179c-.61.2-1.21.41-1.8.64a13,13,0,0,0-1.67.8c-.21.15-.29.3-.22.49a1.46,1.46,0,0,0,.59.56l1.69.94-1.86-.6a1.74,1.74,0,0,1-.88-.67,1,1,0,0,1,.29-1.2,9,9,0,0,1,1.76-1,18,18,0,0,1,1.84-.72c1.24-.4,2.49-.73,3.74-1.06S128.58,176.55,129.86,176.31Z" fill="#2d2835"/><path d="M129.72,188.26a31.58,31.58,0,0,1-2.49,2.28,27.19,27.19,0,0,1-2.75,2,19.17,19.17,0,0,1-3,1.52,14.65,14.65,0,0,1-3.3.83,25.47,25.47,0,0,0,3.06-1.37c1-.49,1.94-1,2.89-1.63s1.88-1.17,2.81-1.79Z" fill="#2d2835"/><path d="M158.83,237.47c-2.77.91-5.54,1.8-8.35,2.6s-5.65,1.45-8.5,2.08a89.33,89.33,0,0,1-17.44,2.13,25.62,25.62,0,0,1-8.83-1.37c-.35-.15-.72-.27-1.06-.45l-1-.64a11.79,11.79,0,0,1-1.74-1.44,24.57,24.57,0,0,1-3-3.33,34.19,34.19,0,0,1-4.28-7.73,51.78,51.78,0,0,1-2.37-8.43c1.36,5.64,3.49,11.21,7.1,15.81a26.27,26.27,0,0,0,2.94,3.21,11.71,11.71,0,0,0,1.69,1.38l.92.58c.32.17.67.28,1,.42a24.94,24.94,0,0,0,8.58,1.25,93.59,93.59,0,0,0,17.33-1.95C147.58,240.49,153.23,239.07,158.83,237.47Z" fill="#2d2835"/><path d="M104.15,172.18a5.63,5.63,0,0,0,1,2.47c-.85,7.41-2.53,36.58-3.31,43.06s-.76,21.45-3.71,26.25-7.87,6.16-14.81,7.87c.31-4.34,1.24-22.69,2.94-33.51s4.89-26.65,5.93-32.34.13-11.33-.33-16c0-.23-.06-.45-.08-.67a19.42,19.42,0,0,0-.54-2.57,37.68,37.68,0,0,0-3.68-8.23c-.59-1.09-1.26-2.3-1.85-3.57l0,0a15.25,15.25,0,0,1-1.6-9.58c1-5.33,4.17-9.15,5.32-11.35s3.83-11.93,7.19-14.71c1.5-.57,8-3.57,10.15-4.29a22.26,22.26,0,0,1,4.09-.91S104.72,154.94,104.15,172.18Z" fill="url(#radial-gradient-15)"/><path d="M104.15,172.18a5.63,5.63,0,0,0,1,2.47c-.85,7.41-2.53,36.58-3.31,43.06s-.76,21.45-3.71,26.25-7.87,6.16-14.81,7.87c.31-4.34,1.24-22.69,2.94-33.51s4.89-26.65,5.93-32.34.13-11.33-.33-16c0-.23-.06-.45-.08-.67a19.42,19.42,0,0,0-.54-2.57,37.68,37.68,0,0,0-3.68-8.23c-.59-1.09-1.26-2.3-1.85-3.57l0,0a15.25,15.25,0,0,1-1.6-9.58c1-5.33,4.17-9.15,5.32-11.35s3.83-11.93,7.19-14.71c1.5-.57,8-3.57,10.15-4.29a22.26,22.26,0,0,1,4.09-.91S104.72,154.94,104.15,172.18Z" fill="url(#radial-gradient-16)"/><circle cx="101.49" cy="177.91" r="1.85" fill="url(#radial-gradient-17)"/><circle cx="99.56" cy="205.36" r="1.85" fill="url(#radial-gradient-18)"/><path d="M98.11,159.25c-1.15,1.78-3.39,5.93-6.84,7.53a37.68,37.68,0,0,0-3.68-8.23c-.59-1.09-1.26-2.3-1.85-3.57C89.16,158.1,93.24,159,98.11,159.25Z" fill="url(#linear-gradient-17)" style="mix-blend-mode:multiply"/><path d="M86.44,155.89a15.32,15.32,0,0,0,1.8,1.88,13.62,13.62,0,0,0,2.07,1.5,14,14,0,0,0,2.3,1.12,16,16,0,0,0,2.51.7,7.48,7.48,0,0,1-2.66-.2,9.08,9.08,0,0,1-2.5-1,9.35,9.35,0,0,1-2.09-1.72A7.87,7.87,0,0,1,86.44,155.89Z" fill="#2d2836"/><path d="M96.63,119.31A17.16,17.16,0,0,0,93,125.05c-.93,2.08-1.7,4.23-2.49,6.37a19.7,19.7,0,0,1-1.35,3.13l-1.8,2.91a26.32,26.32,0,0,0-2.81,6.21,13.48,13.48,0,0,0-.37,6.76,23.53,23.53,0,0,0,2.47,6.35c2.11,4,4.61,8,5.16,12.57C91,164.81,88.36,161,86.14,157a22,22,0,0,1-2.63-6.48,14.19,14.19,0,0,1,.32-7.09,27,27,0,0,1,2.94-6.35l1.82-2.89a21.83,21.83,0,0,0,1.37-3c.86-2.11,1.7-4.25,2.7-6.32A17.21,17.21,0,0,1,96.63,119.31Z" fill="#2d2835"/><path d="M83.35,251.82c3.51-.89,7.11-1.68,10.27-3.49a12.65,12.65,0,0,0,4-3.6,13.58,13.58,0,0,0,2-5c1.48-7.12,1.45-14.43,2.17-21.64s1.15-14.47,1.68-21.71,1-14.49,1.66-21.71c-.26,3.62-.39,7.25-.54,10.87L104,196.39c-.45,7.25-.78,14.49-1.44,21.76s-.84,14.49-2.42,21.67A14,14,0,0,1,98,245a12.9,12.9,0,0,1-4.19,3.66C90.51,250.38,86.89,251.05,83.35,251.82Z" fill="#2d2835"/><path d="M132,124.53l-6.35,6.81-6.52,9.78L116,145.94l-2.44,5.78-.32.74L111.28,157l-.13.3-1.32,3.11-.26.61-1.44,3.41-.3.72-3.22,7.61-4.28-11.22-.07-.48-.08-.48-1.72-10.84-.11-.65-.44-2.83,5.5-19.39s1.4-4.23,4.63-6.06a5,5,0,0,1,.52-.26s11.57-.68,11.92-.68,9.38,1.74,9.38,1.74Z" fill="url(#radial-gradient-19)"/><path d="M119.17,141.12,116,145.94l-2.44,5.78-.32.74L111.28,157l-.13.3-1.32,3.11-.26.61-1.44,3.41-.3.72-3.22,7.61-4.28-11.22-.07-.48-.08-.48-1.72-10.84-.11-.65-.44-2.83,5.5-19.39s1.4-4.23,4.63-6.06c-2.32,4.72-5.39,11.82-5.73,19.17-.37,8.15,2.71,8.5,3,8.58-2.13,1-3.59,2.57-1.76,2.79a40,40,0,0,1,5.73,1.47c1,.29-2-2.06-2.71-2.43s2.43-.5,4.41-1,4.91-5.65,4.91-6-7.69.34-11-1.78c7.7-.13,11.15-.35,14-1.66A7.13,7.13,0,0,1,119.17,141.12Z" fill="url(#linear-gradient-18)" style="mix-blend-mode:multiply"/><path d="M111.28,157l-.13.3c-.45-.22-.89-.41-1.34-.61-.75-.35-1.55-.65-2.33-.95s-1.57-.57-2.39-.83-1.63-.48-2.46-.69a12.43,12.43,0,0,1,2.59.12,12.41,12.41,0,0,1,4.87,1.83A11,11,0,0,1,111.28,157Z" fill="#bf8193"/><path d="M113.52,151.72l-.32.74c-.66-.15-1.33-.28-2-.47s-1.61-.48-2.42-.74c.85,0,1.7.06,2.54.15S112.78,151.59,113.52,151.72Z" fill="#bf8193"/><path d="M104.09,148.64c-.76.19-1.5.34-2.24.48l-2.2.43-1.19.22-.11-.65,1.17-.26a17.77,17.77,0,0,1,2.27-.27A16.13,16.13,0,0,1,104.09,148.64Z" fill="#bf8193"/><path d="M109.83,160.44l-.26.61a.34.34,0,0,0-.14,0c-1.37-.11-2.75-.16-4.1-.18s-2.74,0-4.11.15c-.31,0-.65.05-1,.09l-.08-.48c.34-.08.65-.13,1-.19a28.67,28.67,0,0,1,4.14-.35,27.93,27.93,0,0,1,4.19.3A1.94,1.94,0,0,1,109.83,160.44Z" fill="#bf8193"/><path d="M108.13,164.46l-.3.72-.9-.15c-.69-.09-1.39-.2-2.47-.37a19.39,19.39,0,0,1,2.5-.24A11.43,11.43,0,0,1,108.13,164.46Z" fill="#bf8193"/><path d="M104.89,141.6c1,.18,2,.32,3,.44s2,.22,3,.29,2,.13,3,.14,2,0,3-.05a17.58,17.58,0,0,1-3,.55,19.4,19.4,0,0,1-3,.07,18.1,18.1,0,0,1-3-.46A17.15,17.15,0,0,1,104.89,141.6Z" fill="#bf8193"/><path d="M104.61,172.79c3-11.92,10.65-28.59,15.29-36.23s7.07-11.32,10-14.92c.22-5.22,4.62-17.61,4.62-17.61,1.27.81,2.66.81,3.47,3.36a20.77,20.77,0,0,0,3,5.67c-1,4.63-6.83,15.4-9.14,19.8-2,.23-6.95.58-6.95.58,1.39,1.27,4.29,4.16,4.29,4.16C120.71,148.37,111.56,160,104.61,172.79Z" fill="url(#radial-gradient-20)"/><path d="M141,113.06a34,34,0,0,1-1.67,5.21c-.67,1.7-1.35,3.4-2.13,5-1.54,3.32-3.17,6.58-4.8,9.82l-.14.31-.34,0-5.48.5,3.26,3.13.44.43-.38.52-6.64,8.44c-2.18,2.82-4.35,5.67-6.46,8.54s-4.22,5.76-6.22,8.73-4,5.94-5.8,9c6.83-12.61,15.71-23.94,24.54-35.19l-3.65-3.55-.4-.41-.23-.2.3,0,.61-.06,6-.5c1.7-3.22,3.41-6.44,5-9.7.8-1.65,1.57-3.3,2.3-5A33.69,33.69,0,0,0,141,113.06Z" fill="#2d2835"/><path d="M117.35,108c-2,1-7.95,5.42-10.56,7a155.74,155.74,0,0,0-8.93,13.93c1.55.91,3.63,2.3,3.63,2.3-2.55,1-5.33,2.54-5.33,2.54-2.2,10.42,1.74,28.94,9,40.87a122.47,122.47,0,0,1-3.82-33.46c.47-8.1,4.15-16.7,7.19-20.61C113.18,117.34,119,111,117.35,108Z" fill="url(#radial-gradient-21)"/><path d="M97.42,154.9a69.9,69.9,0,0,0,7.76,19.75,63.64,63.64,0,0,1-8.39-19.6A72.92,72.92,0,0,1,95,144.46a37.46,37.46,0,0,1,.48-10.82l.07-.33.26-.13,4.35-2-2.61-1.74-.46-.3.26-.43c1.42-2.42,2.92-4.72,4.46-7s3.21-4.52,5-6.66c-1.65,2.22-3.15,4.52-4.65,6.85s-2.93,4.67-4.28,7.07l3,1.91.33.22.28.17-.31.15-.36.18-4.65,2.23a34.46,34.46,0,0,0-.59,6.57c0,1.35.06,2.71.17,4A70.42,70.42,0,0,0,97.42,154.9Z" fill="#2d2835"/><path d="M91.13,174a1.61,1.61,0,0,1-1.32,1.54,9.56,9.56,0,0,1-1.39.05,6.83,6.83,0,0,1-2.94-.66s-1.89-2.82-.78-3.15a.48.48,0,0,1,.18,0,.18.18,0,0,1,.1,0,23.57,23.57,0,0,1,5.13-.18.35.35,0,0,1,.13,0C90.85,171.73,91.26,173,91.13,174Z" fill="url(#linear-gradient-19)"/><path d="M91.13,174a1.61,1.61,0,0,1-1.32,1.54,9.56,9.56,0,0,1-1.39.05,6.83,6.83,0,0,1-2.94-.66s-1.89-2.82-.78-3.15a.48.48,0,0,1,.18,0,.18.18,0,0,1,.1,0,23.57,23.57,0,0,1,5.13-.18.35.35,0,0,1,.13,0C90.85,171.73,91.26,173,91.13,174Z" fill="url(#linear-gradient-20)" style="mix-blend-mode:darken"/><polygon points="135.26 147.08 132.56 191.73 131.99 201.38 131.37 211.5 86.35 208.77 87.4 191.2 88.39 174.79 90.22 144.37 135.26 147.08" fill="url(#radial-gradient-22)"/><path d="M143.6,203.41c-4.34-.78-9.37-1.72-11.61-2-7.56-1.07-16.51-2.39-20.64-3-.09-1.37-.16-2.71-.24-4a34.09,34.09,0,0,0-3.87-.54l-6.09-.09c-2-.06-4-.13-5.15-.2-2.65-.17-5.43-.47-6.82-1.21a17.83,17.83,0,0,1-1.78-1.07l1-16.39,1,.35a14.13,14.13,0,0,0,1.39.33,2.71,2.71,0,0,1,.46.07c2.3.52,6.54,2.1,8.85,2.71a11.86,11.86,0,0,0-3.46-4.06c-1.91-1.39-2.5-2.31-2.89-4.13a3,3,0,0,1,0-1.57v0c.22-.82.82-1.15,1.37-.37a13.71,13.71,0,0,0,4.06,3.46,29.52,29.52,0,0,1,3.39,2,6.72,6.72,0,0,1,.78.65,64.81,64.81,0,0,1,4.92,6.3c1.28,1.82,2.08,2.89,3.93,3.2.72,1.1,1.3,4.1,1.44,6.75l19,1.27,1.94-.05C136.65,194.8,140.14,198.69,143.6,203.41Z" fill="url(#linear-gradient-21)" style="mix-blend-mode:multiply"/><path d="M113.48,191.6a4.62,4.62,0,0,1-.29,1.45c-.65,0-4.93-.87-6-.87s-8.58-.11-11.25-.28-5.42-.46-6.81-1.22a15.73,15.73,0,0,1-3.54-2.48,2.74,2.74,0,0,1-.69-3.25,3.14,3.14,0,0,1,.34-.4,4.33,4.33,0,0,1-.41-.3,0,0,0,0,1,0,0,2.64,2.64,0,0,1-.61-4,.12.12,0,0,1-.07-.07l0,0c-1.3-.92-1.41-3.07-.35-3.8h0a1,1,0,0,1,.55-.2,2.09,2.09,0,0,1-.24-.28,3.18,3.18,0,0,1-.7-1.9,2.6,2.6,0,0,1,.09-.71,1.44,1.44,0,0,1,.13-.31,1.4,1.4,0,0,1,.15-.3,1.5,1.5,0,0,1,.37-.46.82.82,0,0,1,.22-.17,1,1,0,0,1,.35-.18l0,0a.48.48,0,0,1,.18,0,.18.18,0,0,1,.1,0,.92.92,0,0,1,.37.09,22.74,22.74,0,0,0,3.92,1.76,9.1,9.1,0,0,0,1.39.34l.47.09c2.29.5,6.53,2.09,8.85,2.69a12.3,12.3,0,0,0-3.46-4.06c-1.91-1.39-2.5-2.32-2.89-4.11a3,3,0,0,1,0-1.58v0c.22-.81.81-1.14,1.37-.37a13.84,13.84,0,0,0,4,3.47,18.11,18.11,0,0,1,4.17,2.61,63.82,63.82,0,0,1,4.93,6.31c1.28,1.8,2.07,2.89,3.92,3.19C113.07,183.66,113.78,188.77,113.48,191.6Z" fill="url(#linear-gradient-22)"/><path d="M113.48,191.6a4.62,4.62,0,0,1-.29,1.45c-.65,0-4.93-.87-6-.87s-8.58-.11-11.25-.28-5.42-.46-6.81-1.22a15.73,15.73,0,0,1-3.54-2.48,2.74,2.74,0,0,1-.69-3.25,3.14,3.14,0,0,1,.34-.4,4.33,4.33,0,0,1-.41-.3,0,0,0,0,1,0,0,2.64,2.64,0,0,1-.61-4,.12.12,0,0,1-.07-.07l0,0c-1.3-.92-1.41-3.07-.35-3.8h0a1,1,0,0,1,.55-.2,2.09,2.09,0,0,1-.24-.28,3.18,3.18,0,0,1-.7-1.9,2.6,2.6,0,0,1,.09-.71,1.44,1.44,0,0,1,.13-.31,1.4,1.4,0,0,1,.15-.3,1.5,1.5,0,0,1,.37-.46.82.82,0,0,1,.22-.17,1,1,0,0,1,.35-.18l0,0a.48.48,0,0,1,.18,0,.18.18,0,0,1,.1,0,.92.92,0,0,1,.37.09,22.74,22.74,0,0,0,3.92,1.76,6.54,6.54,0,0,0-.85,2,.5.5,0,0,0,0,.17c0,.68.6,1.33.6,2.2s-1.12,1-1.23,1.91.6.95.87,2.3-.35,1.22-.4,2.09,1.2,1.8,1.2,2.61-.57,1.5-.28,2.48,4.8,1.45,7.3,1.8,10.82.24,10.82.24c-.52-3.18.35-8.06,2.66-9.09C112.15,184.9,113.09,188.42,113.48,191.6Z" fill="url(#linear-gradient-23)" style="mix-blend-mode:darken"/><path d="M100,176.68a12.3,12.3,0,0,0-3.46-4.06c-1.91-1.39-2.5-2.32-2.89-4.11a3,3,0,0,1,0-1.58,6.07,6.07,0,0,0,1.77,3.61A31.38,31.38,0,0,1,99.18,174,6,6,0,0,1,100,176.68Z" fill="url(#linear-gradient-24)"/><path d="M85.35,171.8A6,6,0,0,1,87,172c.5.12,1,.33,1.44.47s.9.39,1.34.64a8.54,8.54,0,0,1,1.36.87,12.81,12.81,0,0,1-3-.83A28.66,28.66,0,0,1,85.35,171.8Z" fill="#b8784d"/><path d="M89.22,178.25a17.19,17.19,0,0,1-2-.52c-.67-.2-1.3-.44-1.93-.68s-1-.47-1.55-.75a1,1,0,0,1,.55-.2,2.09,2.09,0,0,1-.24-.28c.52.17,1,.36,1.52.54s1.24.56,1.85.85A19.06,19.06,0,0,1,89.22,178.25Z" fill="#b8784d"/><path d="M88.64,182.16a11.62,11.62,0,0,1-1.63-.37c-.53-.15-1.05-.32-1.57-.52s-1-.43-1.52-.69l0,0a3,3,0,0,1,.28-.37.12.12,0,0,1-.07-.07c.53.15,1,.33,1.57.52s1,.42,1.52.67A9.54,9.54,0,0,1,88.64,182.16Z" fill="#b8784d"/><path d="M89,186.7a10.76,10.76,0,0,1-1.63-.47,15,15,0,0,1-1.53-.7c-.34-.19-.67-.37-1-.58a3.14,3.14,0,0,1,.34-.4,4.33,4.33,0,0,1-.41-.3l1.39.67c.48.26,1,.53,1.44.83A12.17,12.17,0,0,1,89,186.7Z" fill="#b8784d"/><path d="M161.1,149.53c.46,1.74-.11,4.39-.46,7.3s-1.5,14.93-3,25.8-7.19,13-12.39,12.85-25.71.12-34.16-1.85a10.71,10.71,0,0,1-2.09-3.8c-1-3.14-.57-6.64,1.52-8.81,7.3.11,23.15-3.48,24-3.82s2.77-.13,3.46-1.4,1.52-1.26,3,0c-.24-.58-.93-2.3-.46-3.23s.57-5,.57-6.37c0-.67-.07-2.35-.06-4.26a23.71,23.71,0,0,1,.75-6.17c1-3.24.92-6.59-.23-7.87s.23-2.67.58-4.39.35-2.91,1.39-7.3a33.57,33.57,0,0,1,1-3.33c1.57-4.57,4.7-10.5,10.65-12.41,7.45,5.09,5.52,16.56,6,18.87a10.92,10.92,0,0,1,0,5.45A8.29,8.29,0,0,0,161.1,149.53Z" fill="url(#radial-gradient-23)"/><path d="M161.1,149.53c.46,1.74-.11,4.39-.46,7.3s-1.5,14.93-3,25.8-7.19,13-12.39,12.85-25.71.12-34.16-1.85a10.71,10.71,0,0,1-2.09-3.8c12,1.15,32.58,0,31.84-2.57-.8-2.89-1.5-6.7.07-9.61-.4,3.7-.4,5.55,3.41,8.57s8.45,1,5.67-.46a24.81,24.81,0,0,1-8.45-8.56c1,1.5,7.06,6,9.49,5.89s3.13-2.53,2.77-3.92-4.85-2.45-8.9-3.49-1.73-2,.81-2.77,3.46-.47,5.8-1.62,2.42-5.09,3.11-8.46,1.85-8.09-.22-9a73.64,73.64,0,0,1-9.62-4.63c2.19.94,7.88,1.61,10.19,1.61s2.67-2.65.93-3a24.38,24.38,0,0,1-8.6-2.87c4,.7,5-.26,6.63-1.76s1.86-6.95,1.15-9.26-2.42-3.59-5.78-3.13a11.37,11.37,0,0,1-4.83,2.11c1.57-4.57,4.7-10.5,10.65-12.41,7.45,5.09,5.52,16.56,6,18.87a10.92,10.92,0,0,1,0,5.45A8.29,8.29,0,0,0,161.1,149.53Z" fill="url(#linear-gradient-25)" style="mix-blend-mode:multiply"/><path d="M142.59,148.24l3.23,1.12c1.08.36,2.15.69,3.24,1s2.17.63,3.27.9,2.2.56,3.32.8a23.24,23.24,0,0,1-3.43-.22,26.09,26.09,0,0,1-3.38-.73,26.65,26.65,0,0,1-3.23-1.2A21.11,21.11,0,0,1,142.59,148.24Z" fill="#2d2835"/><path d="M143.64,144c1.23.3,2.45.55,3.67.76s2.45.34,3.68.42,2.47.12,3.71.09,2.48-.11,3.73-.24a18.4,18.4,0,0,1-3.69.81,21.91,21.91,0,0,1-3.8.09,20.67,20.67,0,0,1-3.75-.62A18.67,18.67,0,0,1,143.64,144Z" fill="#2d2835"/><path d="M141.13,176.58c.83.77,1.62,1.59,2.39,2.41a29.06,29.06,0,0,0,2.36,2.35,13.45,13.45,0,0,0,2.73,1.8c1,.52,2,1,3,1.49a22.36,22.36,0,0,1-3.29-.93,10.9,10.9,0,0,1-3-1.76,17.28,17.28,0,0,1-2.29-2.57C142.4,178.46,141.74,177.54,141.13,176.58Z" fill="#2d2835"/><path d="M140.91,177.66a20.48,20.48,0,0,0,.62,3.41,19.84,19.84,0,0,0,1.2,3.2,18.51,18.51,0,0,0,1.71,3,23.28,23.28,0,0,0,2.21,2.68,13,13,0,0,1-1.42-1,15,15,0,0,1-1.25-1.27,13.71,13.71,0,0,1-1.93-3,13.56,13.56,0,0,1-1.06-3.4A12,12,0,0,1,140.91,177.66Z" fill="#2d2835"/><path d="M141.19,171.4a12.79,12.79,0,0,1,1.48-1.09q.77-.5,1.56-.93l1.63-.78a16.42,16.42,0,0,1,1.71-.66c-.46.4-.93.8-1.43,1.16a13.18,13.18,0,0,1-1.56.94c-.54.28-1.09.53-1.65.76A12.75,12.75,0,0,1,141.19,171.4Z" fill="#2d2835"/><path d="M149.61,172.65a13.66,13.66,0,0,1-3.22,1.36c-.56.16-1.17.27-1.7.38a1.9,1.9,0,0,0-.36.12l-.2.1h0s0,0,.11,0a9.46,9.46,0,0,0,1.61.11l1.72,0a28.54,28.54,0,0,0,3.45-.11,13,13,0,0,1-3.43.69c-.59,0-1.17.07-1.75.07a6.06,6.06,0,0,1-1.85-.13,1.27,1.27,0,0,1-.57-.44.56.56,0,0,1,.1-.71,1.59,1.59,0,0,1,.55-.31,3,3,0,0,1,.47-.13c.61-.1,1.15-.15,1.72-.26A26.33,26.33,0,0,0,149.61,172.65Z" fill="#2d2835"/><path d="M136.39,177.24l-1.24,1.52c-.41.51-.79,1-1.16,1.55s-.74,1.05-1.09,1.6l-1,1.67a8,8,0,0,1,.6-1.91,10.69,10.69,0,0,1,1-1.74,10.57,10.57,0,0,1,1.33-1.5A8.08,8.08,0,0,1,136.39,177.24Z" fill="#2d2835"/><path d="M155.12,120.47c-3.78,1.19-6.65,4.25-8.53,7.64a36.23,36.23,0,0,0-3.73,11.06c-.19,1-.35,1.92-.49,2.89a10,10,0,0,1-.71,2.84c-.35.85-.89,1.9-.29,2.78a4.5,4.5,0,0,1,1.06,2.67,14.16,14.16,0,0,1-.76,5.77,25.32,25.32,0,0,0-.64,5.82,25,25,0,0,1,.3-5.91,14,14,0,0,0,.54-5.61,5.81,5.81,0,0,0-.33-1.29,3.28,3.28,0,0,0-.27-.53c-.09-.16-.2-.26-.43-.57a2.38,2.38,0,0,1-.32-1.9,10.29,10.29,0,0,1,.52-1.49,6.92,6.92,0,0,0,.41-1.27c.08-.46.15-.93.22-1.42.13-1,.28-1.95.47-2.92a35.33,35.33,0,0,1,4-11.2,19.7,19.7,0,0,1,3.8-4.63A13.34,13.34,0,0,1,155.12,120.47Z" fill="#2d2835"/><path d="M136.23,110.75a47.72,47.72,0,0,1-6.37,10.89c-5.91,1.72-17.84,2.18-21.3-1.06.81-1.07,1.66-2.17,2.64-3.41l.39-.5c1.1-1.33,2.34-2.81,3.89-4.57.11-.15.24-.28.37-.43.1-.44.17-.91.24-1.42.1-.8.19-1.67.26-2.62a61.77,61.77,0,0,0-.5-12.28c2.43-2.09,11.23-9.61,19.21-6.61a103.16,103.16,0,0,0-.15,10.71C135.08,104.36,135.54,108.71,136.23,110.75Z" fill="url(#linear-gradient-26)"/><path d="M129.86,121.64A42.06,42.06,0,0,1,119,123a33.17,33.17,0,0,1-5.45-.41,10.49,10.49,0,0,1-5-2,8.09,8.09,0,0,0,2.5,1,16.29,16.29,0,0,0,2.62.44,39.77,39.77,0,0,0,5.35.23c1.79,0,3.59,0,5.39-.14S128,121.84,129.86,121.64Z" fill="#b8784d"/><path d="M134.91,99.45c-5,4.09-13.07,7-18.56,8.18a61.77,61.77,0,0,0-.5-12.28c2.43-2.09,11.23-9.61,19.21-6.61A103.16,103.16,0,0,0,134.91,99.45Z" fill="url(#linear-gradient-27)" style="mix-blend-mode:darken"/><path d="M115.61,118.47c-.53-.17-1-.37-1.5-.54a6,6,0,0,0-1.46-.37,10.83,10.83,0,0,1-1.45-.39l.39-.5c.45.08.84.13,1.23.17a4,4,0,0,1,1.55.56A6,6,0,0,1,115.61,118.47Z" fill="#b8784d"/><path d="M119,118.64a5.48,5.48,0,0,1,2.88-1.1,21.24,21.24,0,0,1,3.08-.08c1,.05,2,.05,3,0s2-.08,3-.15a16.11,16.11,0,0,1-3,.73,18.77,18.77,0,0,1-3.09.16c-1,0-2-.16-3-.15A6.84,6.84,0,0,0,119,118.64Z" fill="#b8784d"/><path d="M129.67,106.23a21.65,21.65,0,0,1-1.15,2.49c-.43.81-.9,1.59-1.4,2.35s-1.06,1.49-1.64,2.19a20.78,20.78,0,0,1-1.87,2c.48-.78,1-1.53,1.49-2.28l1.5-2.26c.49-.72,1-1.44,1.52-2.24Z" fill="#b8784d"/><path d="M116.13,110.76a17.35,17.35,0,0,1,0,2.28,21.69,21.69,0,0,1-.35,2.24,12.43,12.43,0,0,1-.68,2.17c0-.76.09-1.5.14-2.24s.13-1.52.21-2.24c0-.28,0-.58.07-.87s.24-.28.37-.43c.1-.44.17-.91.24-1.42A4.38,4.38,0,0,1,116.13,110.76Z" fill="#b8784d"/><path d="M137.84,108.32c-.58,0-6.6,5.2-6,5.67s1.62,8.91,1.62,8.91L128,127.07a18.65,18.65,0,0,0-.31,7.7c.19-.41,2.05-3.88,3.43-4.34s-1.38,4.86-4.05,5.55c1.85,2.09,7.41,1.39,8.11.7a4.08,4.08,0,0,1-1.16,3.59c2.55.34,5.9-2.67,5.32-5.68s1-3.93,1-3.93c-.7,2.2-.29,2.9-.29,2.9,1.79.11,5.73-5.68,6-7.3s1-13,.81-13.43S137.84,108.32,137.84,108.32Z" fill="url(#linear-gradient-28)" style="mix-blend-mode:multiply"/><path d="M93.15,123c-1.85,1.85-2.2,6.94.7,7.29s4.28,3,3.7,4.05c2.32-1.16,4-2.89,3.36-5.21s-.58-4.74,0-5.21c-.12,1.74.69,4.63,3,5s3.94,4.63,2.66,6.25a5.31,5.31,0,0,0,3.24-7.64C108,123.94,107,121.1,111.94,117a20.22,20.22,0,0,0,6.33-9.86L117,103.8Z" fill="url(#linear-gradient-29)" style="mix-blend-mode:multiply"/><path d="M152.57,93.76a24.79,24.79,0,0,0-8.14,11,11.25,11.25,0,0,0-.77,5.62,12.55,12.55,0,0,0,.67,2.7,17.1,17.1,0,0,0,.87,1.9c.27.49.75,1.16.53,1.76a1.13,1.13,0,0,1-.22.36,3.16,3.16,0,0,1-1.08.88,10.21,10.21,0,0,0-1,.85,6,6,0,0,0-2.43,4.57,8.23,8.23,0,0,0,1.6,4.22,3.75,3.75,0,0,1-.69,4.25c-.08.13-1.72,1.89-1.79,1.73a16.72,16.72,0,0,1,2.57-.42c.21,0,.5,0,.77-.07a5.37,5.37,0,0,0,3.77-5.2c0-1.12-1.85-4-.1-4.62,2.14-1,4.35-2,5.34-4.37a5.76,5.76,0,0,0-.33-5c-.72-1.33-1.78-2-2.77-3-2.19-2.28-1.06-7.07-.11-9.68A17.37,17.37,0,0,1,152.12,96c.33-.41,3.21-3.17,3-3.53S152.63,93.71,152.57,93.76Z" fill="url(#radial-gradient-24)"/><path d="M152.57,93.76a24.79,24.79,0,0,0-8.14,11,11.25,11.25,0,0,0-.77,5.62,12.55,12.55,0,0,0,.67,2.7,17.1,17.1,0,0,0,.87,1.9c.27.49.75,1.16.53,1.76a1.13,1.13,0,0,1-.22.36,3.16,3.16,0,0,1-1.08.88,10.21,10.21,0,0,0-1,.85,6,6,0,0,0-2.43,4.57,8.23,8.23,0,0,0,1.6,4.22,3.75,3.75,0,0,1-.69,4.25c-.08.13-1.72,1.89-1.79,1.73a16.72,16.72,0,0,1,2.57-.42c.21,0,.5,0,.77-.07a5.37,5.37,0,0,0,3.77-5.2c0-1.12-1.85-4-.1-4.62,2.14-1,4.35-2,5.34-4.37a5.76,5.76,0,0,0-.33-5c-.72-1.33-1.78-2-2.77-3-2.19-2.28-1.06-7.07-.11-9.68A17.37,17.37,0,0,1,152.12,96c.33-.41,3.21-3.17,3-3.53S152.63,93.71,152.57,93.76Z" fill="url(#linear-gradient-30)" style="mix-blend-mode:multiply"/><path d="M163,103c-.15.16-.31.32-.47.46a19.62,19.62,0,0,1-3.2,2,3.58,3.58,0,0,0-.32.21c-1.49.91-2.84,1.94-3.22,3.53s.48,3.4.85,5a9.18,9.18,0,0,1,0,4.48,11.41,11.41,0,0,1-2.42,4.75s0,.06-.06.06a10.07,10.07,0,0,1-3.38,2.54c-3.17,1.47-6.35,1.16-9.7,1.56-1.47.16-3.49.44-4.48,1.67a1.87,1.87,0,0,0-.51,1.19,3.48,3.48,0,0,0,1,2c1.95,2.64.78,5.6-2.05,6.8a1.33,1.33,0,0,1-.37.07c.23-.12.91-.61,1-.65a4.38,4.38,0,0,0,.89-1.71,3.45,3.45,0,0,0-.86-3.61,5.2,5.2,0,0,1-1.38-2.69,4.3,4.3,0,0,1,2.25-4.26c2.54-1.63,6.13-2.21,9-2.92s6.37-2.06,6.44-5.56c.08-.4-.16-.8-.15-1.16-.24-1.83-1.21-3.48-1.55-5.28a9.78,9.78,0,0,1,.46-5.17c1.41-3.69,4.69-4.73,7.36-7.2,3-2.76,4.12-6.85,4.62-10.75A40.45,40.45,0,0,0,163,78.21c.56-1.33-.08-3.4-.22-4.77-.11-1.2-.16-2.39-.17-3.59,0-.82.35-4,1.28-2.07a35.74,35.74,0,0,1,1.27,3.87c1.26,3.84,2.84,7.74,3.5,11.73C169.85,90.36,168.25,98,163,103Z" fill="url(#linear-gradient-31)"/><path d="M155.86,105.37c-2.45,1.21-2.63,3.83-2.64,5.29a3.7,3.7,0,0,1-.81-4c-1.47,2.11-1.33,3.87-.3,7.24s.61,5.11-.2,6.55a9.51,9.51,0,0,1-3.52,3.12,4.28,4.28,0,0,0,3.66-1.19,5.19,5.19,0,0,1-2.51,2.56,7.24,7.24,0,0,0,4.63-1.38,10.07,10.07,0,0,1-3.38,2.54c-3.17,1.47-6.35,1.16-9.7,1.56-1.47.16-3.49.44-4.48,1.67a1.87,1.87,0,0,0-.51,1.19l-1.83.21a4.3,4.3,0,0,1,2.25-4.26c2.54-1.63,6.13-2.21,9-2.92s6.37-2.06,6.44-5.56c.08-.4-.16-.8-.15-1.16-.24-1.83-1.21-3.48-1.55-5.28a9.78,9.78,0,0,1,.46-5.17c1.41-3.69,4.69-4.73,7.36-7.2,3-2.76,4.12-6.85,4.62-10.75A40.45,40.45,0,0,0,163,78.21c.56-1.33-.08-3.4-.22-4.77-.11-1.2-.16-2.39-.17-3.59,0-.82.35-4,1.28-2.07a35.74,35.74,0,0,1,1.27,3.87c1.26,3.84,2.84,7.74,3.5,11.73,1.17,7-.43,14.58-5.65,19.6a38,38,0,0,1-3.67,2.51,3.58,3.58,0,0,0-.32.21l-.24.11c-.87.44-2.83.67-4,3.78A5.27,5.27,0,0,1,155.86,105.37Z" fill="url(#linear-gradient-32)" style="mix-blend-mode:multiply"/><path d="M97.7,133.2a.37.37,0,0,0,.17-.08C97.81,133.24,97.74,133.27,97.7,133.2Z" fill="url(#linear-gradient-33)"/><path d="M97.87,133.12a4.09,4.09,0,0,0,.55-1.55A2.17,2.17,0,0,0,96.9,130c-1.29-.56-2.77-.46-4-1.07-3-1.47-1.21-5,.21-7,.49-.89.6-.93-.07-1.67-.32-.37-.76-.67-1.11-1a6.86,6.86,0,0,1-.79-10c.35-.45,3.79-3.51,3.68-3.69a.62.62,0,0,0,0-.27,11,11,0,0,0-1-3.35,25.19,25.19,0,0,1-1.36-5.11,19,19,0,0,1,1.53-9.62,20.09,20.09,0,0,1,3.06-5.06c2.56-3.17,5.93-5.73,9-8.36.08-.07,2.11-1.76,2.34-1.57s-1.63,2.75-1.91,3.16a28.13,28.13,0,0,0-3.33,6.09c-.34.86-.66,1.73-.94,2.59a24.38,24.38,0,0,0-1.49,9.87,18.52,18.52,0,0,0,1.11,4.5v0c.86,2.45,1.85,4.87,1.53,7.52a9.12,9.12,0,0,1-2.67,5.43,15.25,15.25,0,0,1-2,1.6c-.13.09-.5.42-.87.68v0c-.33.23-.65.46-.78.44a.94.94,0,0,0-.21,1.35v0a.28.28,0,0,1,0,.08A17.09,17.09,0,0,1,99.14,119a3.94,3.94,0,0,1,.21,2.56c-.49,1.83-2.34,2.84-3.45,4.24-1.59,2,.68,1.9,2,3.12C98.84,129.89,99.56,132.54,97.87,133.12Z" fill="url(#linear-gradient-34)"/><path d="M102,98.44c.77,2.17,1.66,4.39,1.59,6.73a9.11,9.11,0,0,1-2.73,6.22,15.51,15.51,0,0,0,1.45-3.07,9.91,9.91,0,0,0,.54-3.17,13.54,13.54,0,0,0-.29-3.26C102.32,100.78,102.05,99.64,102,98.44Z" fill="#4d352a"/><path d="M97.87,133.12a4.09,4.09,0,0,0,.55-1.55A2.17,2.17,0,0,0,96.9,130c-1.29-.56-2.77-.46-4-1.07-3-1.47-1.21-5,.21-7,.49-.89.6-.93-.07-1.67-.32-.37-.76-.67-1.11-1a6.86,6.86,0,0,1-.79-10c.35-.45,3.79-3.51,3.68-3.69a.62.62,0,0,0,0-.27,11,11,0,0,0-1-3.35,25.19,25.19,0,0,1-1.36-5.11,19,19,0,0,1,1.53-9.62,20.09,20.09,0,0,1,3.06-5.06c2.56-3.17,5.93-5.73,9-8.36.08-.07,2.11-1.76,2.34-1.57s-1.63,2.75-1.91,3.16a28.13,28.13,0,0,0-3.33,6.09c-.34.86-.66,1.73-.94,2.59l-.38,14.37v0l-.12,4.41c.14,4.3-.74,6.87-2.7,9.27-.48.58-.87,1.09-1.19,1.55v0a7.73,7.73,0,0,0-1,1.79v0a2.45,2.45,0,0,0-.15.54c-1.18-1.31-1.53-3.64,0-6.37s.26-4.57-.54-5.83c.21,1.54-.74,3.84-1.81,4.35s-1.24,2.85-1.12,3.71c-.91,0-1.57-1.36-1.17-2.53a6,6,0,0,0-1.08,5.76c.73,1.64,2.45,3.29,2.6,3.83a15.62,15.62,0,0,0-.49-3.6c.76.42,2.62,2.12,2.61,3.58s-1.76,4.14-2.26,5.59-.07,2.6.69,3a3.43,3.43,0,0,1,1.23-3.82A15.88,15.88,0,0,0,99.14,119a3.94,3.94,0,0,1,.21,2.56c-.49,1.83-2.34,2.84-3.45,4.24-1.59,2,.68,1.9,2,3.12C98.84,129.89,99.56,132.54,97.87,133.12Z" fill="url(#linear-gradient-35)" style="mix-blend-mode:multiply"/><path d="M97,128.88a3.26,3.26,0,0,0,.33,0A.25.25,0,0,1,97,128.88Z" fill="url(#linear-gradient-36)"/><path d="M108.27,116.74a4.67,4.67,0,0,1-.69,1.72c-1.66,2.37-5.35,1-7.76,2.46-.24.23-.84.26-.95.69a2.83,2.83,0,0,0-.21,1.07.06.06,0,0,0,0,0c0,2.12,1,5.53-1.26,6.11a4.4,4.4,0,0,0,.8-1.49,4.32,4.32,0,0,0-.42-2.69,11.6,11.6,0,0,1-.81-2.73,3.14,3.14,0,0,1,.92-3.19c1.58-1.51,3.4-1.33,5.27-2.08,2.3-.93-.73-3.19-1.55-4.33-1.36-1.9-1.94-4.32-.15-6.17,1.54-1.56,4-2,5.81-3.33,2-1.55,3.69-3.7,3.39-6.37-.25-2.36-1-4.71-1.37-7a25,25,0,0,1,2.57-14.75,35.14,35.14,0,0,1,12-13.77s2.42-1.4,2.56-1.11c-.08.22-4.28,3.76-4.64,4.14A39.6,39.6,0,0,0,117,70.22a26.55,26.55,0,0,0-2.85,6,20.12,20.12,0,0,0-.8,9.05c.62,4.74,3.69,9,2.65,14a12.42,12.42,0,0,1-4,6.64,15.43,15.43,0,0,1-3.21,2.19c-.79.41-1.91.61-2.65,1.1-1.52.32.23,2,.64,2.51.25.36.5.72.72,1.11.09.19.2.39.27.58a14.68,14.68,0,0,1,.49,1.49,1.57,1.57,0,0,1,.06.33A5.19,5.19,0,0,1,108.27,116.74Z" fill="url(#linear-gradient-37)"/><path d="M106.78,111.66a5.57,5.57,0,0,1,.72,1.11c.09.19.2.39.27.58a14.68,14.68,0,0,1,.49,1.49,1.57,1.57,0,0,1,.06.33,12.12,12.12,0,0,0-3.24-3.51,10.92,10.92,0,0,1,1.71,3.35,16,16,0,0,0-2.33-2.75c.2,1.3.49,3.59-.29,4.38a7.58,7.58,0,0,1-3.3,1.57c.82.69,4.42-.28,5-1a2.45,2.45,0,0,1-1.72,1.7c.42.36,2.22.2,3.45-.46-1.66,2.37-5.35,1-7.76,2.46-.24.23-.84.26-.95.69a2.83,2.83,0,0,0-.21,1.07,3.71,3.71,0,0,1-.21-2,4.57,4.57,0,0,0-.43,2.69,3.9,3.9,0,0,1-.52-2.53,4.64,4.64,0,0,0-.52,1,3.14,3.14,0,0,1,.92-3.19c1.58-1.51,3.4-1.33,5.27-2.08,2.3-.93-.73-3.19-1.55-4.33-1.36-1.9-1.94-4.32-.15-6.17,1.54-1.56,4-2,5.81-3.33,2-1.55,3.69-3.7,3.39-6.37-.25-2.36-1-4.71-1.37-7a25,25,0,0,1,2.57-14.75c.39-.28,1.24.37,2.32,1.56a20.12,20.12,0,0,0-.8,9.05c.62,4.74,3.69,9,2.65,14a12.42,12.42,0,0,1-4,6.64,15.43,15.43,0,0,1-3.21,2.19c-.79.41-1.91.61-2.65,1.1C104.62,109.47,106.37,111.11,106.78,111.66Z" fill="url(#linear-gradient-38)" style="mix-blend-mode:multiply"/><path d="M108.26,116.74a6.46,6.46,0,0,0-1.29-3.93,8.13,8.13,0,0,0-.63-.82l-.74-.78a3.19,3.19,0,0,1-.68-1.18,1.19,1.19,0,0,1,.26-1.1,1.64,1.64,0,0,1,.83-.44l-.24.1a8.51,8.51,0,0,1,1.83-.83,11.14,11.14,0,0,0,1.53-.72,14.93,14.93,0,0,0,2.85-2A14.36,14.36,0,0,0,116,99.22a12.25,12.25,0,0,1-3.62,6.25,15.38,15.38,0,0,1-2.93,2.2c-1,.7-2.29.84-3.34,1.48h0c-.36,0-.74.35-.59.74a2.75,2.75,0,0,0,.53.94,11.52,11.52,0,0,1,1.29,1.74A6,6,0,0,1,108.26,116.74Z" fill="#4d352a"/><path d="M107.15,134.27a1,1,0,0,0,.37-.24C107.39,134.25,107.26,134.36,107.15,134.27Z" fill="url(#linear-gradient-39)"/><path d="M125.47,86c0,.1-.89,0-.84,0a44.72,44.72,0,0,0-10.2,3.11c-.36.15-.69.3-1,.47-3.32,1.52-7.63,4-5.69,8.28a19.44,19.44,0,0,0,2,2.81,6.55,6.55,0,0,1,.93,5.45,8.78,8.78,0,0,1-3,4.46c-1.28,1-3,1.63-4.17,2.82-1.07.77.39,1.59.89,2,.17.18.35.24.54.55,1.52,1.28,2.61,3,2.18,5.08-.27,1.27-1.4,2.13-1.74,3.26-.28.64.8,1.83,1.19,2.27l.83.74a0,0,0,0,0,0,0,4.93,4.93,0,0,1,1.94,3.28,3.8,3.8,0,0,1-.64,2.41,13.78,13.78,0,0,1-1.15,1,10.19,10.19,0,0,0,1-3.09c-.2-1.63-1.57-2.36-2.87-3.1-1.74-.68-3.61-2.35-3.61-4.37,0-1,1.31-2.8,0-3.31C98.5,119,96,115.69,97.09,112a9.75,9.75,0,0,1,3.67-4.86c.28-.22,3.46-2.28,3.09-2.79a.39.39,0,0,0-.11-.32,11.18,11.18,0,0,1,.61-14.65C106.68,87,109.8,85.8,113,85s6.58-1.45,9.87-.61c.21,0,.39.13.6.18A16.22,16.22,0,0,1,125.47,86Z" fill="url(#linear-gradient-40)"/><path d="M107.7,97.84a19.44,19.44,0,0,0,2,2.81,6.55,6.55,0,0,1,.93,5.45,8.78,8.78,0,0,1-3,4.46c-1.28,1-3,1.63-4.17,2.82-1.07.77.39,1.59.89,2,.17.18.35.24.54.55,1.52,1.28,2.61,3,2.18,5.08-.27,1.27-1.4,2.13-1.74,3.26-.28.64.8,1.83,1.19,2.27l.83.74c-4.13-2.07-2.65-4.63-2.11-6.14a3.75,3.75,0,0,0-1.07-4.52c-1.62-1.56-3-2.6-3-3.8-.47.52.09,3.15,1.11,4.17-.56-.1-3.25-2-3.47-4s2.45-3.95,4.67-5.43,3.06-3.24,2.32-4.17a15.64,15.64,0,0,1-2.41-7.94s10.33-8,10.72-8a7,7,0,0,1,.32,1.61c-.36.15-.69.3-1,.47C110.07,91.08,105.76,93.61,107.7,97.84Z" fill="url(#linear-gradient-41)" style="mix-blend-mode:multiply"/><path d="M107.07,121a4.28,4.28,0,0,0-.55-2.75,7.42,7.42,0,0,0-1.88-2l0,0,0,0c-.11-.18-.21-.2-.51-.47l0,0a6.85,6.85,0,0,1-1.12-.88,1.31,1.31,0,0,1-.37-1,1.35,1.35,0,0,1,.56-.91l-.07.06a14.11,14.11,0,0,1,3.26-2.34,8.84,8.84,0,0,0,2.57-2.49,6.38,6.38,0,0,0,.58-6.61c-.51-1-1.52-1.88-2.21-3.19a5.07,5.07,0,0,1-.21-4.21,6.79,6.79,0,0,1,2.78-3,20.42,20.42,0,0,1,3.55-1.66A19.62,19.62,0,0,0,110,91.45a6.82,6.82,0,0,0-2.51,2.89,4.56,4.56,0,0,0,.32,3.75c.61,1.15,1.64,2,2.26,3.15a6.9,6.9,0,0,1-.6,7.34,9.56,9.56,0,0,1-2.81,2.64,16.26,16.26,0,0,0-3.21,2.16h0a.89.89,0,0,0-.37.54.82.82,0,0,0,.23.61,8.61,8.61,0,0,0,1,.87h0a2.17,2.17,0,0,1,.54.55h0a6.92,6.92,0,0,1,1.82,2.24A4.36,4.36,0,0,1,107.07,121Z" fill="#4d352a"/><path d="M104.35,89.39a11.85,11.85,0,0,0-.07,14.23l-.07-.08a1,1,0,0,1,.32.91l-.12-.48a1,1,0,0,1,0,1,2.52,2.52,0,0,1-.29.37,6.32,6.32,0,0,1-.54.51c-.35.29-.72.56-1.08.82-.76.51-1.5.88-2.16,1.41A10.34,10.34,0,0,0,97.1,112a9.12,9.12,0,0,1,2.92-4.26c.65-.58,1.4-1,2.1-1.56.35-.26.69-.52,1-.81s.76-.57.72-1h0a.38.38,0,0,0-.12-.32h0a11.52,11.52,0,0,1-2.43-7.45A10.88,10.88,0,0,1,104.35,89.39Z" fill="#4d352a"/><path d="M139.42,130.54a8.29,8.29,0,0,1-.53.91,6.84,6.84,0,0,1-2,1.87,6.74,6.74,0,0,1-2.86,1.08c-.47.06-5.42-.2-5.6-.52a19.16,19.16,0,0,0,3.33-1.26,9.23,9.23,0,0,0,3-2.31c1.83-2.31-.49-4.58-1.25-6.87a7,7,0,0,1,1.49-7.19,9.25,9.25,0,0,1,3.34-2.23c.39-.16,1.71-.36,1.88-.92.39-1.31-2.92-3.67-3.66-4.38a9.93,9.93,0,0,1-.51-14.48c2.09-1.91,4.81-2.26,7.53-2.24,2.46,0,5.11.39,6.91-1.7,2.11-2.45.92-5.41.83-8.21,0,0,.4-3.14.89-2.77a3.82,3.82,0,0,0,.24,2.54c1,2.39,2,4.44,1.65,7.1s-1.49,5.18-3.87,6.45-5,1.1-7.58,1.26c-2.21.13-5,1.31-4.52,4.06.06,1,1.52,1.76,2.15,2.26a28.5,28.5,0,0,1,2.86,2.3,14.44,14.44,0,0,1,3.42,4.92c.88,2.11,1.35,4.47,0,6.5a5.61,5.61,0,0,1-2.3,2s0,0,0,0a14,14,0,0,1-2.92.89A5.7,5.7,0,0,0,140,120c-1.3.58-1.57,1.56-1,3.43C139.82,125.79,140.56,128.14,139.42,130.54Z" fill="url(#linear-gradient-42)"/><path d="M138.49,127.67a6.71,6.71,0,0,1-1.75,3.45,8.4,8.4,0,0,0,.43-3.13,8.44,8.44,0,0,1-4.71,4.62c.81.45,3.07-.58,3.07-.58a9.1,9.1,0,0,1-1.59,1.41c.9-.07,2-.08,3-.12a6.74,6.74,0,0,1-2.86,1.08c-.47.06-5.42-.2-5.6-.52a19.16,19.16,0,0,0,3.33-1.26,9.23,9.23,0,0,0,3-2.31c1.83-2.31-.49-4.58-1.25-6.87a7,7,0,0,1,1.49-7.19,9.25,9.25,0,0,1,3.34-2.23c.39-.16,1.71-.36,1.88-.92.39-1.31-2.92-3.67-3.66-4.38a9.93,9.93,0,0,1-.51-14.48c2.09-1.91,4.81-2.26,7.53-2.24,2.46,0,5.11.39,6.91-1.7,2.11-2.45.92-5.41.83-8.21,0,0,.4-3.14.89-2.77a3.82,3.82,0,0,0,.24,2.54c1,2.39,2,4.44,1.65,7.1s-1.49,5.18-3.87,6.45-5,1.1-7.58,1.26c-2.21.13-5,1.31-4.52,4.06.06,1,1.52,1.76,2.15,2.26a28.5,28.5,0,0,1,2.86,2.3,14.44,14.44,0,0,1,3.42,4.92c.88,2.11,1.35,4.47,0,6.5a5.61,5.61,0,0,1-2.3,2s0,0,0,0c-2,0-3.57,0-3.95.32a1.31,1.31,0,0,0-.36,1c-1.3.58-1.57,1.56-1,3.43.77,2.35,1.51,4.7.37,7.1a8.29,8.29,0,0,1-.53.91A8.14,8.14,0,0,0,138.49,127.67Z" fill="url(#linear-gradient-43)" style="mix-blend-mode:multiply"/><path d="M139.42,130.53a6.82,6.82,0,0,0,0-4.65c-.24-.76-.51-1.5-.78-2.26a4.26,4.26,0,0,1-.29-2.66,3.07,3.07,0,0,1,2.17-1.79c.85-.27,1.59-.38,2.32-.63a5.38,5.38,0,0,0,3.37-2.49,5.73,5.73,0,0,0,.23-4.17,13.18,13.18,0,0,0-2-4.11A14.71,14.71,0,0,0,143,106c-.56-.53-1.2-1-1.78-1.55s-1.16-1-1.82-1.51-1.48-1-1.61-2.19v.05a3.2,3.2,0,0,1,1.53-3.25,6.46,6.46,0,0,1,3.37-.88,6.32,6.32,0,0,0-3.24,1,3,3,0,0,0-1.26,3h0c.1.84.88,1.34,1.5,1.8s1.27,1,1.9,1.48,1.28,1,1.86,1.54a14.53,14.53,0,0,1,1.57,1.84,13.84,13.84,0,0,1,2.11,4.31,5.55,5.55,0,0,1-4.1,7.47c-.77.24-1.56.37-2.34.59a2.5,2.5,0,0,0-1.86,1.38,3.91,3.91,0,0,0,.21,2.36c.25.77.5,1.53.68,2.32A6.91,6.91,0,0,1,139.42,130.53Z" fill="#4d352a"/><path d="M136.12,94.24a8.32,8.32,0,0,0-2,3.88,11.34,11.34,0,0,0-.23,4.3c.32,2.83,2.25,5.11,4.6,6.89a15.6,15.6,0,0,1,1.67,1.68,4.56,4.56,0,0,1,.71,1.13,1.82,1.82,0,0,1,.15.85,1.31,1.31,0,0,1-.15.57,1.45,1.45,0,0,1-.37.4,14.79,14.79,0,0,1-2.24.85,10.7,10.7,0,0,0-1.84,1,7.1,7.1,0,0,0-2.81,7.62,7.4,7.4,0,0,1-.1-4.44,7.27,7.27,0,0,1,2.56-3.63,9.62,9.62,0,0,1,1.92-1.16,19,19,0,0,0,2.1-.81c.35-.22.28-.7.14-1a3.79,3.79,0,0,0-.61-.94,14.92,14.92,0,0,0-1.61-1.57c-2.34-1.82-4.47-4.33-4.69-7.4A9.85,9.85,0,0,1,136.12,94.24Z" fill="#4d352a"/><path d="M153,82.6a48.83,48.83,0,0,0,1.19,6.11c.56,2.07,2.08,4.15,2,6.36s-1.81,4.59-3.22,6.14c-1.64,1.81-3.85,2.17-6.15,2.59-4.55.83-9.21,1.67-12.94,4.61s-2.32,7.46-.66,11.29l.06.08c.4.55.2,1-.26,1.44-.7.89-2.21,1.36-3.13,2a6.49,6.49,0,0,0-2.74,3.62c-.5,2.08,1.11,4.52,2,6.37-.5.18-.14-4.09.08-4.47a9,9,0,0,1,1.33-1.84,10.66,10.66,0,0,1,2.81-1.33c1.62-.66,3.47-1.44,4.42-3s.43-3.11,0-4.66c-.28-1-.58-1.88-.9-2.81-.14-.41-.9-1.77-.7-2.19.23-1.4,4.48-2.64,5.58-3,2.18-.65,4.47-.84,6.67-1.43a15.79,15.79,0,0,0,10.21-9c1.86-4,.79-7-1.27-10.52a47.61,47.61,0,0,1-2.42-4.37c-.18-.42-1.64-4.91-1.9-4.87S153,82.51,153,82.6Z" fill="url(#linear-gradient-44)"/><path d="M137.72,122.58a3.84,3.84,0,0,0,.35-2.42,13.25,13.25,0,0,0-.7-2.39c-.29-.78-.6-1.56-.87-2.35-.11-.36-.34-.72-.51-1.12a4,4,0,0,1-.26-.63,1.31,1.31,0,0,1,0-1l0,.14a2.33,2.33,0,0,1,1-1.37,8.9,8.9,0,0,1,1.24-.75,20.31,20.31,0,0,1,2.58-1.06,34.28,34.28,0,0,1,5.36-1.3,15.65,15.65,0,0,0,9.12-4.63,17.5,17.5,0,0,0,2.95-4.29A8.72,8.72,0,0,0,159,94.52c-.39-3.46-2.77-6.49-4.08-9.86,1.47,3.29,4.05,6.13,4.57,9.8a9.07,9.07,0,0,1-1,5.26,17.7,17.7,0,0,1-3,4.49,15.1,15.1,0,0,1-4.31,3.26A18.37,18.37,0,0,1,146,109a33.84,33.84,0,0,0-5.29,1.22,22.17,22.17,0,0,0-2.54,1c-.77.41-1.73.8-2,1.69h0c-.08.86.54,1.58.76,2.37l.76,2.41a12.84,12.84,0,0,1,.58,2.45A3.89,3.89,0,0,1,137.72,122.58Z" fill="#4d352a"/><path d="M149.87,60c2.83-3.4,6.64-5.18,9.14-4.81s3.89,3.52,3.21,5.7-1.09,6-1.66,8a10.68,10.68,0,0,1-3.67,5.34c-1.9,1.62-3.1,3.14-4.46,4.26a4.9,4.9,0,0,1-5.92-.36C145.56,71.08,149,61.66,149.87,60Z" fill="url(#linear-gradient-45)"/><path d="M149.87,60c2.83-3.4,6.64-5.18,9.14-4.81s3.89,3.52,3.21,5.7-1.09,6-1.66,8a10.68,10.68,0,0,1-3.67,5.34c-1.9,1.62-3.1,3.14-4.46,4.26a4.9,4.9,0,0,1-5.92-.36C145.56,71.08,149,61.66,149.87,60Z" fill="url(#linear-gradient-46)" style="mix-blend-mode:darken"/><path d="M158.37,63.75c.28-2.54-.09-3.67-1.16-4.06s-3.66,2-4.17,3.89-.86,2.54-.17,3.29.89,2.52.45,4.22A3.64,3.64,0,0,1,150,73.8c2.69,1.19,3.67-.82,4.75-1.89S157.83,68.69,158.37,63.75Z" fill="url(#linear-gradient-47)" style="mix-blend-mode:darken"/><path d="M158,61a.82.82,0,0,0-.68-.93,1.81,1.81,0,0,0-1.25.25A5.5,5.5,0,0,0,154.33,62a11.88,11.88,0,0,0-1.23,2A3,3,0,0,0,153,66.4a3.57,3.57,0,0,1,.6-2.11c.38-.63.87-1.23,1.31-1.85a8.42,8.42,0,0,1,1.46-1.67,1.45,1.45,0,0,1,.92-.4A.71.71,0,0,1,158,61Z" fill="#b8784d"/><path d="M152.22,65.74a12.74,12.74,0,0,1,1,2.33,4.33,4.33,0,0,1-.06,2.37,4.75,4.75,0,0,1-1.15,2A5.48,5.48,0,0,1,150,73.8a3.82,3.82,0,0,0,2.5-.86,4.12,4.12,0,0,0,1.48-2.31,4.59,4.59,0,0,0-.24-2.72A8,8,0,0,0,152.22,65.74Z" fill="#b8784d"/><path d="M155.32,63.87a3.94,3.94,0,0,1,.84,1.79,4,4,0,0,1,0,1.88,5.51,5.51,0,0,1-.7,1.77,4.22,4.22,0,0,1-1.34,1.45,2.89,2.89,0,0,0,1.81-1.1,4.47,4.47,0,0,0,1-2,4.08,4.08,0,0,0-.21-2.19A3.46,3.46,0,0,0,155.32,63.87Z" fill="#b8784d"/><path d="M152,47.28c-1.19,10-3.28,23.5-4.58,28.57s-2.45,9.7-5.74,12.69a26.86,26.86,0,0,1-6.09,3.76,98.23,98.23,0,0,1-12,4.58,62.37,62.37,0,0,1-7.37,1.84,28.69,28.69,0,0,1-9.63.41,7.91,7.91,0,0,1-2.47-1h0a8.65,8.65,0,0,1-3.32-4.42c-.78-2.37-2.4-5.6-4.15-9.61l0-.12c-1.73-4-3.87-9.76-4.21-13.77a29.15,29.15,0,0,1,.84-8.46c.18-.86.39-1.68.56-2.41a19.26,19.26,0,0,0,.56-2.81,12.33,12.33,0,0,0-.4-3.6,28.73,28.73,0,0,1,0-10c.57-2.5,1-6.49,2.67-13.47.62-2.59,2.92-12.87,12.52-18.31,4.36-2.46,10.19-3.93,18-3.25a25.93,25.93,0,0,1,14.25,5.3C152.71,22.13,152.92,39.64,152,47.28Z" fill="url(#radial-gradient-25)"/><circle cx="106.18" cy="71.12" r="6.64" fill="url(#radial-gradient-26)" style="mix-blend-mode:darken"/><circle cx="130.36" cy="77.55" r="12.5" opacity="0.3" fill="url(#Rona_Pipi)" style="mix-blend-mode:darken"/><path d="M104.78,74.09a11.41,11.41,0,0,1-8.09,10l0-.12c-1.73-4-3.87-9.76-4.21-13.77a29.15,29.15,0,0,1,.84-8.46c.37,0,.74,0,1.11,0A11.41,11.41,0,0,1,104.78,74.09Z" opacity="0.3" fill="url(#Rona_Pipi-2)" style="mix-blend-mode:darken"/><path d="M110.17,51.21a9,9,0,1,1-12.9-8.79C99.9,44,110.6,46.28,110.17,51.21Z" fill="url(#radial-gradient-27)"/><path d="M116.28,98.71a64.63,64.63,0,0,0,9.86-2.65,87.88,87.88,0,0,0,9.49-3.76,28.78,28.78,0,0,1-4.49,2.54c-1.55.74-3.16,1.31-4.76,1.92s-3.27,1-5,1.37A25.13,25.13,0,0,1,116.28,98.71Z" fill="#b8784d"/><path d="M127.28,53.74a10.32,10.32,0,1,1-18.09-7.64c2.09-2.42,6.85,1.28,14.83-.83A10.31,10.31,0,0,1,127.28,53.74Z" fill="url(#radial-gradient-28)" style="mix-blend-mode:darken"/><path d="M152,47.28c-1.19,10-3.28,23.5-4.58,28.57s-2.45,9.7-5.74,12.69a26.86,26.86,0,0,1-6.09,3.76,98.23,98.23,0,0,1-12,4.58,62.37,62.37,0,0,1-7.37,1.84,28.69,28.69,0,0,1-9.63.41,7.91,7.91,0,0,1-2.47-1,30.2,30.2,0,0,0,4,.64c4.14.43,8.36-.84,17.81-5,12.94-5.78,15-12.53,16.93-24.62-9.47-11.08-17.32-27.13-21-34.18s-6-8.2-12.35-9.05C102,26.73,97.65,35.57,97,42.35a97.41,97.41,0,0,1-2.56,14.13,12.33,12.33,0,0,0-.4-3.6,28.73,28.73,0,0,1,0-10c.57-2.5,1-6.49,2.67-13.47.62-2.59,2.92-12.87,12.52-18.31,11.6.65,24.86,1.47,32.3,2C152.71,22.13,152.92,39.64,152,47.28Z" fill="url(#linear-gradient-48)" style="mix-blend-mode:darken"/><path d="M109.47,25.23a7.6,7.6,0,0,0-5,.87c-3.57,1.76-7.33,5.82-9,11.87C93,47.05,91.37,53.58,89.15,57.72S87,68.22,90.55,72.1C83.7,67,85.4,60,86.84,55.81S88.33,44,90.09,34.41a40.15,40.15,0,0,1,8.8-18.53,32.21,32.21,0,0,1,2.3-2.57v0c.92-1,1.84-1.83,2.72-2.63,5.38-4.8,16.72-12.35,29.41-10.32C133.86,12,114.72,23.68,109.47,25.23Z" fill="url(#radial-gradient-29)"/><path d="M104.49,26.1c-2.36-.91-4.58-3.09-4.74-5a14.93,14.93,0,0,1-2.32,0,52.12,52.12,0,0,1,1.46-5.22,32.21,32.21,0,0,1,2.3-2.57c-.65,2.15-.93,4.15-1.24,5.52l2.36-.41C101.56,20.07,101.79,24.42,104.49,26.1Z" opacity="0.7" fill="url(#radial-gradient-30)" style="mix-blend-mode:screen"/><path d="M109.47,25.24a7.79,7.79,0,0,0-5,.87,15.07,15.07,0,0,0-4.1,3.08,20.64,20.64,0,0,0-4.92,8.93c-.91,3.32-1.79,6.64-2.75,9.94a54.32,54.32,0,0,1-3.56,9.66,35.3,35.3,0,0,0,1.67-4.86c.49-1.64.93-3.29,1.35-5l2.58-10A20.5,20.5,0,0,1,100,28.79a15.4,15.4,0,0,1,4.35-3A8,8,0,0,1,109.47,25.24Z" fill="#4d352a"/><path d="M106.34,59.09c.13-4.68-1.54-7-3.32-8.52a7.37,7.37,0,0,0-7.89-.87c-2.13,1-4.18,2.63-5.89,1.78a6.86,6.86,0,0,0,4.61,3.46,4,4,0,0,0,2.51,3.34,18.79,18.79,0,0,0,2.81.34c.79.1,4,.72,4.86.48.66-1,1.27-1,1.27-1Z" fill="url(#radial-gradient-31)"/><path d="M95,52.14a4.23,4.23,0,0,0,.75,5.08c1.23,1.25,2.37.94,4.19,1.32a17.37,17.37,0,0,0,6.41.55c.14-4.41-1.9-6.63-4.33-8S96.09,49.72,95,52.14Z" fill="url(#Gradient_Eye)"/><g clip-path="url(#clip-path)"><circle cx="103.18" cy="55.02" r="4.56" fill="url(#radial-gradient-32)"/><circle cx="103.18" cy="55.02" r="3.13" fill="#222223"/><circle cx="103.32" cy="54.12" r="0.82" fill="#fff"/><circle cx="100.41" cy="56.85" r="0.41" fill="#fff"/></g><path d="M94.92,52.92c1.08-2.1,4.65-2,7-.81a7.05,7.05,0,0,1,4.41,7h0c.14-4.41-1.9-6.63-4.33-8s-5.92-1.41-7,1a5,5,0,0,0-.5,2A4.59,4.59,0,0,1,94.92,52.92Z" fill="url(#linear-gradient-49)" style="mix-blend-mode:multiply"/><path d="M122.22,45.28a34.35,34.35,0,0,0-6.66,13.8c0,.13,0,.26-.07.38-.56,4-2.18,5.68-4.24,7.92a3.18,3.18,0,0,1,1.28,3.05,3,3,0,0,1-2.38,2.44c-1.39-.05-2.06-1.11-3.83-.5a5.21,5.21,0,0,1-4.79-.88,3,3,0,0,1-.88-1h0a.46.46,0,0,1,0-.1,2.78,2.78,0,0,1,0-2.76c.81-1.48,3.31-6.08,4.24-8a7.77,7.77,0,0,0,.83-5.9c-.55-2.52-1.38-5.53-2.35-8.48.2-7.05,13.3-2.27,17.56-.52C121.69,45,122.17,45.26,122.22,45.28Z" fill="url(#linear-gradient-50)"/><path d="M106.55,57.16c-.35,1.06-.75,2.11-1.16,3.14l-1.32,3.09c-.23.5-.45,1-.74,1.51a14.55,14.55,0,0,1-.87,1.47,6.68,6.68,0,0,0-1.64,2.82c-.14-1.17.63-2.23,1.17-3.14.28-.47.49-1,.74-1.46s.47-1,.71-1.5l1.48-3C105.43,59.1,106,58.12,106.55,57.16Z" fill="#faf8d3"/><path d="M115.49,59.46c-.56,4-2.18,5.68-4.23,7.92a3.22,3.22,0,0,1,1.28,3.05,3,3,0,0,1-2.39,2.44c-1.39-.05-2.06-1.11-3.82-.5a5.22,5.22,0,0,1-4.8-.88,3,3,0,0,1-.88-1,3.71,3.71,0,0,0,1.1.19c1.67.09,2-1.7,2.58-3.33s3.06-9.21,4.78-11.72,3.19-5.25,6.3-9.57a26.91,26.91,0,0,0,5.37-.24l.9.39A29.57,29.57,0,0,0,115.49,59.46Z" fill="url(#linear-gradient-51)" style="mix-blend-mode:darken"/><path d="M122.22,45.28a34.35,34.35,0,0,0-6.66,13.8c0,.13,0,.26-.07.38-.56,4-2.18,5.68-4.24,7.92a3.18,3.18,0,0,1,1.28,3.05,3,3,0,0,1-2.38,2.44c-1.39-.05-2.06-1.11-3.83-.5a5.21,5.21,0,0,1-4.79-.88,3,3,0,0,1-.88-1,3.71,3.71,0,0,0,1.1.19c1.66.09,2-1.7,2.57-3.33s3.07-9.21,4.79-11.72,4-6.69,7-11c.82.08,3,.09,4.74.12C121.69,45,122.17,45.26,122.22,45.28Z" fill="url(#radial-gradient-33)" style="mix-blend-mode:darken"/><path d="M112.54,70.43a3,3,0,0,1-2.39,2.44c-1.39-.05-2.06-1.11-3.82-.5a5.22,5.22,0,0,1-4.8-.88,3.08,3.08,0,0,1-.94-1.11,9.33,9.33,0,0,0,2,.53c1.37.29,3.76-.49,5.13-.78a2.62,2.62,0,0,1,3.12,1.46A2.4,2.4,0,0,0,112.54,70.43Z" fill="url(#linear-gradient-52)" style="mix-blend-mode:darken"/><path d="M106.33,72.37a3.37,3.37,0,0,1,2.67.23,3,3,0,0,0,1.35.24,2.37,2.37,0,0,0,1.2-.65,3.13,3.13,0,0,0,1-2.47,3.61,3.61,0,0,0-1.33-2.34,3.14,3.14,0,0,1,1.89,2.3,3.56,3.56,0,0,1-1.09,3,3,3,0,0,1-1.61.78,2.85,2.85,0,0,1-1.64-.37A4.07,4.07,0,0,0,106.33,72.37Z" fill="#b8784d"/><path d="M103.33,45.23l2.24,8.05a7.9,7.9,0,0,1,.16,4.12,16.6,16.6,0,0,1-1.7,3.8l-2,3.69-1,1.84a6.21,6.21,0,0,0-.82,1.91,3.28,3.28,0,0,0,2,3.33,4.94,4.94,0,0,0,4,.4,5.09,5.09,0,0,1-4.2-.08,3.72,3.72,0,0,1-2.42-3.73,3.38,3.38,0,0,1,.35-1.2l.47-.93,1-1.86,1.89-3.7a17.74,17.74,0,0,0,1.71-3.63,7.91,7.91,0,0,0-.07-3.83l-.91-4Z" fill="#b8784d"/><path d="M139.53,47.42c-4.56-3.36-7.37-5.21-10-5.15s-7.29,1.14-9.66,1.55c-1.81.31-3.84.4-4.56,0,1.1,1.69,2.29,2.79,5,2.26,3.73-.73,8.65-2,10.39-2S135.68,45.29,139.53,47.42Z" fill="url(#radial-gradient-34)"/><path d="M118.19,60.57a11.12,11.12,0,0,1,16.57-8.24c2.42,1.24,4,4.24,6.84,3.86-1,2.6-2.72,2.92-4.39,3-1.76,2-3.81,2.91-7.19,2.62-5.22-.45-11.83-1.26-11.83-1.26Z" fill="url(#radial-gradient-35)"/><path d="M118.19,60.57c1.77,1.42,4.69.54,8.63.74,4.73.25,7.4.49,9.24-2.52-.46-3.91-3.18-6.74-8.05-6.63C123.89,52.26,118.59,54.73,118.19,60.57Z" fill="url(#Gradient_Eye-2)"/><g clip-path="url(#clip-path-2)"><circle cx="129.64" cy="57.03" r="5.02" fill="url(#radial-gradient-36)"/><circle cx="129.64" cy="57.03" r="3.45" fill="#222223"/><circle cx="132.88" cy="55.87" r="0.91" fill="#fff"/><circle cx="126.59" cy="59.04" r="0.45" fill="#fff"/></g><path d="M127.93,53.07c4.75-.06,7.46,2.41,8,5.84,0,0,.06-.07.09-.12-.46-3.91-3.18-6.74-8.05-6.63-4.12.1-9.42,2.57-9.82,8.41h0C118.58,55.31,123.83,53.12,127.93,53.07Z" fill="url(#linear-gradient-53)" style="mix-blend-mode:multiply"/><path d="M104.64,44.13a2.41,2.41,0,0,1-2.71,1.74,39.2,39.2,0,0,1-4.65-1.3c-1.11-.28-2.71.49-3.74,3.07a7.52,7.52,0,0,1,1.23-3.88c.58-.86,1.76-1.35,3.51-.84S103.39,44.53,104.64,44.13Z" fill="url(#radial-gradient-37)"/><path d="M165.39,88c-4.67,5.64-10.1,5.63-14.31,9.6-3.13,3-1.27,6.53,1.31,10.26.89,1.29,1.86,2.58,2.73,3.88a6.64,6.64,0,0,1,.45,6.64,9.81,9.81,0,0,1-7.38,5.63c-3.8.43-6.54,1.59-8.64,3.77,0,0,0,0,0,0a9,9,0,0,0-.74.79,16,16,0,0,0-1.6,2.36,7.74,7.74,0,0,1,.06-2.41c.55-3.08,2.83-5.63,4.73-6.32,2.4-.88,6.31-3,6.75-6.39s-.92-7.2-4.86-10-3-8.31.15-10.83,6.83-5.45,7.84-10S150.43,74.64,145,67.2s-16.34-23.67-19.71-31.77a17.08,17.08,0,0,0-5-6.94l-.73-.58h0a16.48,16.48,0,0,0-10.11-2.68C109,17.76,119.28,1.88,133.32.34c1.11.06,2.2.15,3.25.28a38.27,38.27,0,0,1,11.54,3.06l.16.07a30.75,30.75,0,0,1,10.86,8.15c.32.38.64.78.92,1.16,6.9,9,7.95,20.58,6.22,27.16a55.27,55.27,0,0,0-1.14,5.44c-1.64,10-.84,20.14,1.71,23.89C169.86,74,170.06,82.38,165.39,88Z" fill="url(#radial-gradient-38)"/><path d="M155.57,118.4a9.81,9.81,0,0,1-7.38,5.63c-3.8.43-6.54,1.59-8.64,3.77,2-4.44,5.42-5.3,7.61-6.26a16.81,16.81,0,0,0,5.34-4c-.21,1.13-.53,3.32-1.77,4.33A13.58,13.58,0,0,0,155.57,118.4Z" fill="url(#linear-gradient-54)" style="mix-blend-mode:multiply"/><path d="M165.39,88c-4.67,5.64-10.1,5.63-14.31,9.6-3.13,3-1.27,6.53,1.31,10.26a7,7,0,0,0-.76-.49,10.09,10.09,0,0,1-4.52-5.5c-.43.89-.36,2.88,1,5.2-1.06-1-4.65-5-4.1-7.55s3.37-4,6.81-6.92,6.28-8.57,7.11-11.53c-.1,2.45-.43,6.25-1.3,8.39a22.71,22.71,0,0,0,5.92-8.1c.12,1.18-.41,6.1-2.84,9A20.85,20.85,0,0,0,166,83.65c2-3.89.63-11.11-2.47-17-.09,1,0,5.46-1.12,7.58-.3-3.17-3.29-7.72-4-10.54-.09,1.67-2.1,6.18-1.92,8.17-2.15-2.66-4.23-7.43-5.32-12.27.5,1.53,3.09,4.32,4.22,6a94.6,94.6,0,0,1-1.78-15.49s1.46,3.13,3.85,7.77c.21-1.77,3-12.76,4.44-17.63-.16.33.06,8.59.21,13.49,0-.52,1.52-4.25,3.06-8.14-1.64,10-.84,20.14,1.71,23.89C169.86,74,170.06,82.38,165.39,88Z" fill="url(#linear-gradient-55)" style="mix-blend-mode:multiply"/><path d="M160.05,13.06a18.37,18.37,0,0,1-2.43,3.64,4.94,4.94,0,0,1,1.73,1.54,36.91,36.91,0,0,1-11,3.7,26.22,26.22,0,0,0,1.3,3.59c-5.39.7-12.64,1.25-15,1A5.51,5.51,0,0,1,136.25,30a90,90,0,0,1-15.92-1.46l-.73-.58a57.07,57.07,0,0,0,11.61-1.41c-1.06-1.25-2.55-2.79-2.55-2.79a149.3,149.3,0,0,0,15.85-.49C143.24,21.74,142,20,142,20c5.27.68,11.83-2.48,11.83-2.48A7.07,7.07,0,0,0,152,15.06a10.12,10.12,0,0,0,7.17-3.16c.25-.25.49-.51.72-.77.26.24.5.49.75.75C160.44,12.26,160.25,12.67,160.05,13.06Z" opacity="0.7" fill="url(#radial-gradient-39)" style="mix-blend-mode:screen"/><path d="M109.47,25.24a16.71,16.71,0,0,1,9.46,1.84,16.29,16.29,0,0,1,6.53,7.28A129.78,129.78,0,0,0,135,51c3.41,5.45,7,10.76,10.69,16a51.79,51.79,0,0,1,4.87,8.42c1.25,3,2.15,6.31,1.35,9.49.67-3.2-.34-6.45-1.67-9.34a52.51,52.51,0,0,0-5-8.24q-5.66-7.83-10.85-16a122.23,122.23,0,0,1-9.4-16.84,15.92,15.92,0,0,0-6.19-7.21A16.67,16.67,0,0,0,109.47,25.24Z" fill="#4d352a"/><path d="M133.32.34c-6.18.73-11.71,4.19-15.93,8.64a34,34,0,0,0-5.4,7.47,19,19,0,0,0-2.52,8.79,14.63,14.63,0,0,1,.38-4.65,26.88,26.88,0,0,1,1.64-4.41,32.62,32.62,0,0,1,5.37-7.71,30,30,0,0,1,7.47-5.7A23.42,23.42,0,0,1,128.7,1c.78-.16,1.53-.38,2.3-.47Z" fill="#4d352a"/><path d="M137.2,131a13.76,13.76,0,0,1,3.15-4.17,12.76,12.76,0,0,1,4.64-2.54c1.7-.57,3.54-.53,5-1.15a10.2,10.2,0,0,0,3.92-3,8.1,8.1,0,0,0,1.74-4.48,5.72,5.72,0,0,0-.42-2.32,9.51,9.51,0,0,0-1.26-2.1c-1-1.41-2.07-2.79-3-4.28a12.53,12.53,0,0,1-2.2-5,5.5,5.5,0,0,1,.46-2.93,7.05,7.05,0,0,1,1.83-2.22,20,20,0,0,1,4.57-2.82c3.18-1.46,6.31-2.87,8.64-5.38a15.69,15.69,0,0,0,4.28-9,15.18,15.18,0,0,0-1.7-10,15.4,15.4,0,0,1,2.06,10,16,16,0,0,1-4.28,9.32c-2.36,2.62-5.6,4.13-8.72,5.6a18.81,18.81,0,0,0-4.4,2.78,6.33,6.33,0,0,0-1.64,2,4.75,4.75,0,0,0-.37,2.55,12.19,12.19,0,0,0,2,4.75c.94,1.47,2,2.87,3,4.29a7.43,7.43,0,0,1,1.73,4.8,8.58,8.58,0,0,1-1.92,4.77,10.6,10.6,0,0,1-4.14,3.08c-1.63.64-3.43.56-5.09,1.1a12.42,12.42,0,0,0-4.63,2.33A14,14,0,0,0,137.2,131Z" fill="#4d352a"/><path d="M151.87,85a13.56,13.56,0,0,1-3.24,6.44A28.45,28.45,0,0,1,146,94a22,22,0,0,0-2.56,2.38,6.83,6.83,0,0,0-1.25,6.17,5.52,5.52,0,0,0,1.84,2.55,16.17,16.17,0,0,1,2.79,2.48,10.93,10.93,0,0,1,2.63,7.06,6.5,6.5,0,0,1-1,3.77,9.11,9.11,0,0,1-2.78,2.62,16.3,16.3,0,0,1-3.34,1.61,6.51,6.51,0,0,0-2.76,1.91A8.55,8.55,0,0,0,137.2,131a8.74,8.74,0,0,1,2.08-6.67c1.46-2.06,4.14-2.31,6.05-3.76a9,9,0,0,0,2.56-2.5,5.81,5.81,0,0,0,.92-3.42,10.24,10.24,0,0,0-2.52-6.58,16.12,16.12,0,0,0-2.67-2.41,6.07,6.07,0,0,1-2-2.89A7.32,7.32,0,0,1,143,96a23.49,23.49,0,0,1,2.7-2.37,29,29,0,0,0,2.64-2.44A13.41,13.41,0,0,0,151.87,85Z" fill="#4d352a"/><path d="M105.93,71.43a7.13,7.13,0,0,1,2.69-.74c.84,0,1.31.42,1.29,1s-1,.51-1.52.14A5.33,5.33,0,0,0,105.93,71.43Z" fill="url(#radial-gradient-40)"/><path d="M147.07,52.74c.68,5.52-.63,19.35-2.4,25a63.49,63.49,0,0,0,8-21.61C151.19,50.77,149.47,51.78,147.07,52.74Z" fill="url(#radial-gradient-41)"/><g mask="url(#mask-5)"><path d="M116.46,82.49a6.77,6.77,0,1,1-6.16-7.32A6.76,6.76,0,0,1,116.46,82.49Z" fill="url(#radial-gradient-42)" style="mix-blend-mode:darken"/></g><path d="M101.92,77.16c.78,2,1.23,4.83,2,6.65s1.71,1.51,4,2.13,6.06-.63,8.38-2.22,5.22-5.22,5.84-5.8c-2,0-8.68.44-10.41.5S105.24,78.43,101.92,77.16Z" fill="url(#radial-gradient-43)"/><g clip-path="url(#clip-path-3)"><path d="M104.48,80.92a9.3,9.3,0,0,0-.57,2.89c1.89,1.55,6.36,2.61,8.35,2.15s5.81-3.31,6.81-4.38C118.21,80.08,104.48,80.92,104.48,80.92Z" fill="url(#Gradient_Eye-3)"/><path d="M124.41,76.94c-.28.34-3.56,2.6-4.54,3.91-.2.25-.37.48-.5.66a24.92,24.92,0,0,1-12.79,1,6.79,6.79,0,0,1-2.3-1,2.5,2.5,0,0,1-1.2-1.34c-.07-.48-.12-1-.18-1.58-.06-.4-.12-.88-.18-1.42C108.08,74.34,121,74.91,124.41,76.94Z" fill="url(#Gradient_Eye-4)"/><path d="M108.18,83.42a5.15,5.15,0,0,1-3.9-1.83,7.64,7.64,0,0,0,3.65,1.17,27.79,27.79,0,0,0,3.87.18,24.94,24.94,0,0,0,3.75-.37A16.09,16.09,0,0,1,108.18,83.42Z" fill="#a29faf"/><g mask="url(#mask-6)"><path d="M124.22,77.22c-.27.34-3.37,2.32-4.35,3.63a3.86,3.86,0,0,0-2-.94c-1.6-.2-4.84.17-7.36.2a20.41,20.41,0,0,1-7.57-1.44c-.06-.4-.12-.88-.18-1.42C108.08,74.34,120.82,75.19,124.22,77.22Z" fill="url(#linear-gradient-56)" style="mix-blend-mode:multiply"/></g></g><path d="M99.43,75.69c2.22-.16,3.75,0,5.51,1.67,3.1-1.34,4.65-.67,6.57-.2,1.6.38,7.44.34,11.09.28a9.14,9.14,0,0,1,1.81.06c-4.93,1.18-15.09,2.21-19.3,1.43A10.63,10.63,0,0,1,99.43,75.69Z" fill="url(#radial-gradient-44)"/><path d="M101.74,77.15a18.25,18.25,0,0,1,1.28,5c.09.85.58,3.73,4.68,4.58s7.08-1.24,8.79-2.6a76.2,76.2,0,0,0,7.5-6.67l-1,.15c-4.84,4.11-9.45,7-15.48,5.87-3.62-.67-3.55-1.63-5.19-6.1Z" fill="url(#radial-gradient-45)"/><path d="M105.73,84.25c.32,0,.61,0,.89.08l.84.12.84.16a7.55,7.55,0,0,1,.86.2,2.53,2.53,0,0,1-.88.25,4,4,0,0,1-.92,0,3.19,3.19,0,0,1-.86-.27A2.82,2.82,0,0,1,105.73,84.25Z" fill="#fbdcdd"/><g mask="url(#mask-7)"><path d="M124.54,78.08a2.06,2.06,0,1,1-1.87-2.23A2.06,2.06,0,0,1,124.54,78.08Z" opacity="0.7" fill="url(#radial-gradient-46)" style="mix-blend-mode:darken"/></g><g mask="url(#mask-8)"><path d="M102.22,76.22A2.06,2.06,0,1,1,100.35,74,2.06,2.06,0,0,1,102.22,76.22Z" opacity="0.7" fill="url(#radial-gradient-47)" style="mix-blend-mode:darken"/></g></g></g></g></svg>