<svg xmlns="http://www.w3.org/2000/svg" viewBox="0 0 80.22 152.88"><g id="Layer_2" data-name="Layer 2"><g id="objects"><path d="M21.73,66.45S9.06,62.77,4.61,56.31L8,55.07a43.78,43.78,0,0,0,11.24,4.57C25.93,61.37,21.73,66.45,21.73,66.45Z" fill="#ffbfa1"/><path d="M8.33,55.3S5.05,51.61,3.8,57c0,0-5.2-1.72-1.24,1,0,0-5.61-.83-.21,1.11,0,0-6,2,1.7,1,0,0,1.61-.31,3-3.19Z" fill="#ffbfa1"/><path d="M4.23,56.36s-2-2.16.3-1.21S4.23,56.36,4.23,56.36Z" fill="#ffbfa1"/><ellipse cx="40.45" cy="149.71" rx="31.78" ry="3.17" fill="#1c1918" opacity="0.1"/><polygon points="47.22 137.99 48.56 146.04 51.68 146.04 50.64 137.29 47.22 137.99" fill="#16333c"/><path d="M52.63,142.23a10,10,0,0,0,4.49,3.13c2.71.81,5.15,1.85,5,3.48,0,0-4,2-10.56-.22v.69l-4.29-.19v-5.7l3.56.25-.26-.56Z" fill="#333030"/><path d="M54.35,148.7c5.86,1.5,7.35-.17,7.69-.28a1,1,0,0,1,0,.42s-4,2-10.56-.22v.69l-4.29-.19V148A21.36,21.36,0,0,1,54.35,148.7Z" fill="#1c1918"/><path d="M52,145.55a.18.18,0,0,0,.15-.08,4.43,4.43,0,0,1,1.88-1.69.19.19,0,0,0,.11-.24.2.2,0,0,0-.24-.11,4.69,4.69,0,0,0-2.06,1.83.19.19,0,0,0,0,.26A.2.2,0,0,0,52,145.55Z" fill="#1c1918"/><path d="M53,146a.21.21,0,0,0,.16-.08,4.28,4.28,0,0,1,1.87-1.68.19.19,0,0,0,.11-.25.19.19,0,0,0-.24-.11,4.74,4.74,0,0,0-2.06,1.83.2.2,0,0,0,0,.26A.23.23,0,0,0,53,146Z" fill="#1c1918"/><path d="M54,146.43a.19.19,0,0,0,.16-.09A4.39,4.39,0,0,1,56,144.66a.18.18,0,0,0,.11-.24.18.18,0,0,0-.24-.11,4.63,4.63,0,0,0-2,1.82.18.18,0,0,0,0,.26A.14.14,0,0,0,54,146.43Z" fill="#1c1918"/><polygon points="32.62 137.99 31.28 146.04 28.15 146.04 29.2 137.29 32.62 137.99" fill="#16333c"/><path d="M27.2,142.23a10,10,0,0,1-4.48,3.13c-2.71.81-5.45,1.85-5.25,3.48,0,0,4.32,2,10.86-.22v.69l4.29-.19v-5.7l-3.57.25.27-.56Z" fill="#333030"/><path d="M24.59,149a13.77,13.77,0,0,1-7.09-.57,1,1,0,0,0,0,.42s4.32,2,10.86-.22v.69l4.29-.19v-1.43C31.09,147.78,28.54,148.37,24.59,149Z" fill="#1c1918"/><path d="M27.8,145.55a.21.21,0,0,1-.16-.08,4.44,4.44,0,0,0-1.87-1.69.18.18,0,0,1-.11-.24.19.19,0,0,1,.24-.11A4.69,4.69,0,0,1,28,145.26a.18.18,0,0,1-.05.26A.19.19,0,0,1,27.8,145.55Z" fill="#1c1918"/><path d="M26.82,146a.21.21,0,0,1-.16-.08,4.28,4.28,0,0,0-1.87-1.68.21.21,0,0,1-.12-.25.21.21,0,0,1,.25-.11,4.75,4.75,0,0,1,2,1.83.18.18,0,0,1,0,.26A.19.19,0,0,1,26.82,146Z" fill="#1c1918"/><path d="M25.83,146.43a.16.16,0,0,1-.15-.09,4.44,4.44,0,0,0-1.88-1.68.2.2,0,0,1-.11-.24.18.18,0,0,1,.24-.11A4.62,4.62,0,0,1,26,146.13a.18.18,0,0,1,0,.26A.15.15,0,0,1,25.83,146.43Z" fill="#1c1918"/><path d="M46.46,73.66l3.25,38.88L53,141s-1.58,2.18-7.51,1.19L41,114.32l-3.56-26.5h-2L33.79,142.2s-2.57,2-7.31.2l.59-70Z" fill="#6d6d6d"/><polygon points="35.47 35.21 35.74 46.25 42.4 43.28 42.19 31.91 35.47 35.21" fill="#d69f8a"/><path d="M24.75,43.4s.65,19.76,1.92,29.79a30.6,30.6,0,0,0,12.69,1.87c5.51-.23,7.1-1.4,7.1-1.4l9-33.37a72.77,72.77,0,0,0-13.46-1l-3.89,3.6S37,40.05,35,39.5c-3.16.21-6.61.59-10.3,1.2Z" fill="#e6f9ff"/><polygon points="17.11 58.94 24.79 40.8 31.29 43.86 21.71 65.28 17.11 58.94" fill="#e6f9ff"/><path d="M29.57,75.09a9.77,9.77,0,0,1-2.5-.84c-.49-.16-.43.31-.48.81-.08.67,0,1,.48,1.16a5.79,5.79,0,0,0,2.13.83C29.33,76.4,29.45,75.74,29.57,75.09Z" fill="#1c1918"/><path d="M41.58,75.62a51.92,51.92,0,0,1-6.11.17A31,31,0,0,1,31,75.35a8.66,8.66,0,0,1-.17,2,29.45,29.45,0,0,0,4.64.47c.72,0,1.42,0,2.11,0,1.54,0,3-.11,4.29-.26A9.32,9.32,0,0,1,41.58,75.62Z" fill="#1c1918"/><path d="M47,75.46c-.09-.5-.15-.95-.64-.78a19.82,19.82,0,0,1-3.6.81c0,.65.14,1.29.24,1.94a20.59,20.59,0,0,0,3.77-1C47.15,76.35,47.14,76,47,75.46Z" fill="#1c1918"/><path d="M34.19,75.46l.05,2.46,4.33.21,0-2.64Zm3.64,2.22L35,77.54l0-1.62h2.86Z" fill="#adadad"/><polygon points="38.1 42.85 39.11 39.34 41.35 40.37 38.1 42.85" fill="#d8cac7"/><polygon points="37.81 39.65 38.1 42.85 36.27 40.58 37.81 39.65" fill="#d8cac7"/><path d="M39.77,40.57a8.47,8.47,0,0,1-2.63.1L35.9,42.14,37,43.7,32.75,68.39,36,71.67l4-2.85-.92-24.94L40.44,42Z" fill="#16333c"/><polygon points="32.76 39.44 35.5 43.14 37.81 39.65 34.18 37.23 32.76 39.44" fill="#d8eaef"/><polygon points="44.52 38.95 41.04 42.93 39.11 39.34 43.12 36.74 44.52 38.95" fill="#d8eaef"/><polygon points="16.68 58.11 23.76 62.85 22.38 66.27 16.24 58.65 16.68 58.11" fill="#d8eaef"/><path d="M58.5,66.06s12.66-3.68,17.11-10.14l-3.33-1.24A44,44,0,0,1,61,59.25C54.3,61,58.5,66.06,58.5,66.06Z" fill="#ffbfa1"/><path d="M71.89,54.91s3.28-3.69,4.54,1.69c0,0,5.19-1.72,1.24,1,0,0,5.61-.83.21,1.11,0,0,6,2-1.7,1.06,0,0-1.62-.32-3-3.2Z" fill="#ffbfa1"/><path d="M76,56s1.94-2.16-.31-1.21S76,56,76,56Z" fill="#ffbfa1"/><polygon points="63.11 58.55 55.44 40.42 48.94 43.47 58.52 64.89 63.11 58.55" fill="#e6f9ff"/><polygon points="63.55 57.72 56.46 62.46 57.84 65.88 63.99 58.26 63.55 57.72" fill="#d8eaef"/><path d="M40.44,7.7c6.32,1.45,6.15,5.79,6.15,5.79s-.2,3.36-.32,7.35a2.09,2.09,0,0,1,2.59-.71c2.15.93.56,7.71-2.71,7.12a16,16,0,0,1-.57,3.88c-.92,1.93-5,4.87-8.54,5.33S29,34.53,29,30.3s-.09-18-.09-18S30,5.32,40.44,7.7Z" fill="#ffbfa1"/><path d="M35.18,19.92a15.06,15.06,0,0,1-.93,3.62,9.17,9.17,0,0,1-.8,1.71,5.36,5.36,0,0,1-1.19,1.5v-.24c.47.45.92.92,1.36,1.4-.54-.36-1.06-.76-1.57-1.16l-.13-.1.13-.14a11.26,11.26,0,0,0,1.8-3.13C34.31,22.25,34.75,21.09,35.18,19.92Z" fill="#d69f8a"/><path d="M39,20.52c0,.92.41,1.67.92,1.67s.91-.75.91-1.67-.41-1.67-.91-1.67S39,19.6,39,20.52Z" fill="#222228"/><path d="M31.3,20.89c0,.92.41,1.66.92,1.66s.92-.74.92-1.66-.41-1.67-.92-1.67S31.3,20,31.3,20.89Z" fill="#222228"/><path d="M42.38,16a3.07,3.07,0,0,1-.88,1.2,3.53,3.53,0,0,1-1.37.72,2.51,2.51,0,0,1-1.6-.11,2.11,2.11,0,0,1-1.11-1,5.77,5.77,0,0,0,1.31.34A3.63,3.63,0,0,0,39.91,17,17.44,17.44,0,0,0,42.38,16Z" fill="#664032"/><path d="M33.76,16.71a7.51,7.51,0,0,0-2.17-.28,1.85,1.85,0,0,0-.88.3,8.13,8.13,0,0,0-.9.71,1.89,1.89,0,0,1,.46-1.2,1.83,1.83,0,0,1,1.24-.65,2.4,2.4,0,0,1,1.31.27A2.34,2.34,0,0,1,33.76,16.71Z" fill="#664032"/><path d="M48.78,19.92s.32-7.35.6-8.08,2.11-.64,2.11-.64-.64-7.91-8.36-8.27A5.88,5.88,0,0,1,48.46,4.4,10.84,10.84,0,0,0,36.52.45S31.65,1.64,31,4.4A6.44,6.44,0,0,1,34.59.26s-6.43,2-6.43,7c0,3.95,1.38,4.68,1.38,4.68s1.37.92,4.68-.87,7.81-1.79,9.19-.78,1.05,4,1.05,4a2.12,2.12,0,0,0,1.06,1.93l0,7.4,1.14-.05.14-2.07A2,2,0,0,1,48.78,19.92Z" fill="#664032"/><path d="M49.15,21.3C48,20.73,47,22.54,47,24.47c.92-.14,1.07.93.56,1.69C49.37,26.54,50.34,21.9,49.15,21.3Z" fill="#d69f8a"/><path d="M32.55,30.68a3.36,3.36,0,0,1,3.08-1.26,4.39,4.39,0,0,1,1.64.57,5.78,5.78,0,0,1,.69.5c.19.21.39.41.56.63-.52-.21-1-.42-1.5-.6a7.13,7.13,0,0,0-1.47-.35A5.64,5.64,0,0,0,32.55,30.68Z" fill="#d69f8a"/></g></g></svg>