<svg xmlns="http://www.w3.org/2000/svg" viewBox="0 0 121.59 425.61"><g id="Layer_2" data-name="Layer 2"><g id="Layer_1-2" data-name="Layer 1"><polygon points="103.11 388.13 86.67 388.13 87.51 407.12 103.95 407.12 103.11 388.13" fill="#f2ba95" fill-rule="evenodd"/><path d="M87.26,409.56v-6.21s-.16-2.47,3.44-2.47h13.09a2.33,2.33,0,0,1,2.33,2.38v4.68L90,411.18Z" fill="#fff" fill-rule="evenodd"/><path d="M85.16,420.6s.88-7.48,1-9.73,0-4.83,0-6.09,3.53-.15,4.2,1.18.62,2.51.62,4.42.81,1.86,3.07,5.14L91,422l-4.2,1.22-1.65-1A2.87,2.87,0,0,1,85.16,420.6Z" fill="#da716d" fill-rule="evenodd"/><path d="M93.82,416.09a44,44,0,0,1-2.55-3.62c-.62-1.14-1.7-2.66-1.7-3.92,0-2.64.87-6,4.16-6h11.13s3.45,0,3.45,3.2v3a8.62,8.62,0,0,0,.62,3.54c.76,1.94,2,4.38,2,4.38Z" fill="#c75859" fill-rule="evenodd"/><path d="M88,422.1s2.32-8,9.57-8H106c2.1,0,5.9,1,5.9,5.78Z" fill="#ee8b83" fill-rule="evenodd"/><polygon points="91.36 423.66 91.27 423.93 90.69 425.6 111.9 425.6 112.42 425 111.97 422.52 100.53 422.1 91.36 423.66" fill="#4b495a" fill-rule="evenodd"/><path d="M85.16,420.6s0,1.26,2.06.88,5.23-1.91,10.24-1.91h13.72c1.79,0,2,1.14,2,1.75v3.22s0,1.07-1.32,1.07c0,0,.59-1.69-2-1.69h-10c-3.19,0-4.67,1.69-9.53,1.69H85.71c-.81,0-1.17-.86-1.17-1.64v-2.48A1.15,1.15,0,0,1,85.16,420.6Z" fill="#fff" fill-rule="evenodd"/><polygon points="18.47 388.13 34.91 388.13 34.08 407.12 17.64 407.12 18.47 388.13" fill="#f2ba95" fill-rule="evenodd"/><path d="M34.32,409.56v-6.21s.16-2.47-3.43-2.47H17.79a2.32,2.32,0,0,0-2.32,2.38v4.68l16.16,3.24Z" fill="#fff" fill-rule="evenodd"/><path d="M36.42,420.6s-.88-7.48-1-9.73,0-4.83,0-6.09-3.53-.15-4.21,1.18-.62,2.51-.62,4.42-.8,1.86-3.06,5.14L30.58,422l4.2,1.22,1.66-1A2.91,2.91,0,0,0,36.42,420.6Z" fill="#da716d" fill-rule="evenodd"/><path d="M27.76,416.09a41.62,41.62,0,0,0,2.55-3.62c.63-1.14,1.7-2.66,1.7-3.92,0-2.64-.87-6-4.16-6H16.72s-3.44,0-3.44,3.2v3a8.75,8.75,0,0,1-.63,3.54c-.76,1.94-2,4.38-2,4.38Z" fill="#c75859" fill-rule="evenodd"/><path d="M33.58,422.1s-2.33-8-9.57-8H15.6c-2.1,0-5.9,1-5.9,5.78Z" fill="#ee8b83" fill-rule="evenodd"/><polygon points="30.22 423.66 30.31 423.93 30.89 425.6 9.69 425.6 9.16 425 9.61 422.52 21.06 422.1 30.22 423.66" fill="#4b495a" fill-rule="evenodd"/><path d="M36.42,420.6s0,1.26-2.05.88-5.24-1.91-10.24-1.91H10.4c-1.79,0-2,1.14-2,1.75v3.22s0,1.07,1.32,1.07c0,0-.59-1.69,2-1.69h10c3.19,0,4.67,1.69,9.53,1.69h4.67c.81,0,1.17-.86,1.17-1.64v-2.48A1.15,1.15,0,0,0,36.42,420.6Z" fill="#fff" fill-rule="evenodd"/><path d="M12.12,413.74a.58.58,0,0,1-.78.24.56.56,0,0,1-.24-.77,3.39,3.39,0,0,1,3.08-1.67h10.1a8.61,8.61,0,0,1,5,1.7.57.57,0,0,1,.09.81.59.59,0,0,1-.81.09,7.24,7.24,0,0,0-4.32-1.45H14.18A2.21,2.21,0,0,0,12.12,413.74Z" fill="#fff" fill-rule="evenodd"/><path d="M13,410.69a.56.56,0,0,1-.77.24.57.57,0,0,1-.25-.78,3.42,3.42,0,0,1,3.09-1.66H25.15a8.5,8.5,0,0,1,5,1.7.57.57,0,0,1,.09.81.58.58,0,0,1-.81.08,7.34,7.34,0,0,0-4.32-1.44H15.06A2.22,2.22,0,0,0,13,410.69Z" fill="#fff" fill-rule="evenodd"/><path d="M109.46,413.74a.56.56,0,0,0,.77.24.58.58,0,0,0,.25-.77,3.42,3.42,0,0,0-3.09-1.67H97.3a8.66,8.66,0,0,0-5,1.7.58.58,0,0,0,.72.9,7.32,7.32,0,0,1,4.33-1.45h10.09A2.26,2.26,0,0,1,109.46,413.74Z" fill="#fff" fill-rule="evenodd"/><path d="M108.58,410.69a.58.58,0,0,0,1-.54,3.42,3.42,0,0,0-3.08-1.66H96.43a8.55,8.55,0,0,0-5.05,1.7.57.57,0,1,0,.72.89,7.39,7.39,0,0,1,4.33-1.44h10.09A2.21,2.21,0,0,1,108.58,410.69Z" fill="#fff" fill-rule="evenodd"/><path d="M60.79,190.56H99v6.63s4.07,48.65,2.91,72-1.17,40.21-1.26,43.73,3.05,70.61,3.09,78.05a.91.91,0,0,1-.72.85c-.74.21-13.52,0-15.41,0s-1.91-1.26-2-2.34-6.12-39.55-7.67-48.39-.77-24.33-.77-24.33-1.65-3.32-.39-5.73l-12-74.23c-.44-2.73-2-3.37-3.9-3.35s-3.46.62-3.9,3.35L44.88,311c1.25,2.41-.39,5.73-.39,5.73s.77,15.48-.78,24.33-7.52,47.31-7.66,48.39-.17,2.34-2.06,2.34-14.67.21-15.4,0a.91.91,0,0,1-.73-.85c.05-7.44,3.19-74.53,3.1-78.05s-.1-20.41-1.26-43.73,2.9-72,2.9-72v-6.63Z" fill="#7385a1" fill-rule="evenodd"/><path d="M61.45,233.42a.67.67,0,0,1-.66.66.66.66,0,0,1-.65-.66v-2.35a3.84,3.84,0,0,1-2.7-2.56,1,1,0,0,1,0-.18l-1-11.69a.66.66,0,0,1,.59-.71.67.67,0,0,1,.71.6l1,11.64a2.48,2.48,0,0,0,1.44,1.53V205.28a.65.65,0,0,1,.65-.65.66.66,0,0,1,.66.65v28.14Zm2.6,3.47a.66.66,0,0,1,.53-.76.65.65,0,0,1,.75.53c0,.21,14.08,75.77,14.73,78.48a3.37,3.37,0,0,1,.06,1.41c-.2,2.19-.92,9.95,7.24,72.46a.65.65,0,0,1-.56.73.65.65,0,0,1-.73-.56c-8.19-62.66-7.45-70.53-7.25-72.74a2.58,2.58,0,0,0,0-1c-.63-2.64-14.7-78.33-14.74-78.55Zm-7.8-.23a.66.66,0,0,1,.76-.53.65.65,0,0,1,.52.76c0,.22-14.1,75.91-14.73,78.55a2.4,2.4,0,0,0,0,1c.21,2.21.94,10.08-7.25,72.74a.65.65,0,1,1-1.29-.17c8.17-62.51,7.45-70.27,7.24-72.46a3.55,3.55,0,0,1,.07-1.41C42.17,312.43,56.21,236.87,56.25,236.66Z" fill="#5d6185" fill-rule="evenodd"/><path d="M60.79,79.29l-26.36,8s-14,4.06-15.31,12.73S14,171.82,14,171.82s.27,11.65,12.73,11.65H94.88c12.46,0,12.74-11.65,12.74-11.65s-3.8-63.13-5.15-71.81S87.16,87.28,87.16,87.28Z" fill="#342a60" fill-rule="evenodd"/><path d="M3.84,130.77,2.29,148.68s9.34-5.58,9.47-6.13,2.38-7,2.38-7Z" fill="#ee8b83" fill-rule="evenodd"/><path d="M19.31,85.93s-6.66,2.65-8.09,6.82S0,131.64,0,131.64a1.64,1.64,0,0,0,1.12,1.68c1.22.35,15.29,6.27,23.82,6.58S25.86,91.33,19.31,85.93Z" fill="#fff" fill-rule="evenodd"/><path d="M1,128.23l-.59,2.08c6.84,2.38,23.28,8.05,24,7.95a1.08,1.08,0,0,0-.28-2.15C23.82,136.16,7.64,130.55,1,128.23Z" fill="#4b495a" fill-rule="evenodd"/><path d="M60.79,190.56H99v6.63s.75,9,1.51,21c-10,2.15-33.62,8.13-33.62,8.13S52.59,215.6,53.73,215.82s1.94-16.48,1.94-16.48l-5,26.22s13.09,1,.72.06c-8.64-.65-22.59-6.06-30.22-9.25.72-11.12,1.39-19.18,1.39-19.18v-6.63Z" fill="#5d5c84" fill-rule="evenodd"/><path d="M47.59,52.23V88.52h0v0a1.18,1.18,0,0,1,0,.16H74.46c0-.07,0-.11,0-.14v0h0V52.23Z" fill="#f2ba95" fill-rule="evenodd"/><path d="M61,40h0c-7.39,0-13.43,5.69-13.43,12.63V70.49A67,67,0,0,0,55.17,76a14.35,14.35,0,0,0,11.49.06,66.89,66.89,0,0,0,7.79-5.51V52.63C74.45,45.69,68.41,40,61,40Z" fill="#ee8b83" fill-rule="evenodd"/><path d="M81,43.45s1.93-2.06,3.25-1.94,2.94,2.94,2.75,5.07-2.69,9.5-7,6.68S81,43.45,81,43.45Z" fill="#f2ba95" fill-rule="evenodd"/><path d="M79.34,45.83a.48.48,0,0,0-.1.56.27.27,0,0,0,.4.07h0S80.79,53,81.76,52a8,8,0,0,0,2.41-3.66c.41-1.65-1.06-3.18-.53-3.61s1,.23,1.1.29h0a4.46,4.46,0,0,1,.62,1.22.26.26,0,0,0,.41.16.48.48,0,0,0,.2-.53s-.74-2.5-2.57-2.42S79.34,45.82,79.34,45.83Z" fill="#ee8b83" fill-rule="evenodd"/><path d="M41,43.44s-1.94-2-3.26-1.92-2.92,2.95-2.73,5.07,2.73,9.5,7,6.66S41,43.44,41,43.44Z" fill="#f2ba95" fill-rule="evenodd"/><path d="M42.7,45.81a.48.48,0,0,1,.1.56.27.27,0,0,1-.4.07h0S41.28,53,40.3,52a7.93,7.93,0,0,1-2.42-3.64c-.42-1.66,1-3.19.51-3.62s-1,.24-1.1.3h0a4.15,4.15,0,0,0-.62,1.22.26.26,0,0,1-.41.16.48.48,0,0,1-.2-.53s.73-2.5,2.55-2.43S42.7,45.81,42.7,45.81Z" fill="#ee8b83" fill-rule="evenodd"/><path d="M61.15,13.57c27,.56,22.94,21.58,20.45,38.54a22.28,22.28,0,0,1-5,11.33s-7.66,6.65-10.3,8a11.72,11.72,0,0,1-5.48,1.19,11.93,11.93,0,0,1-5.47-1.25c-2.62-1.42-10.2-8.16-10.2-8.16a22.3,22.3,0,0,1-4.88-11.39C38,34.87,34.11,13.79,61.15,13.57Z" fill="#f2ba95" fill-rule="evenodd"/><rect x="68.94" y="43.91" width="4.38" height="6.56" rx="2.19" fill="#342a60"/><rect x="48.48" y="43.91" width="4.38" height="6.56" rx="2.19" fill="#342a60"/><path d="M69,40.11A1.78,1.78,0,0,1,67.94,40,2,2,0,0,1,67,38.75c0-.2.3.12,1.28-.33s4.52-1.5,7,1c.43.43.11.77-.43.59A7,7,0,0,0,69,40.11Z" fill="#342a60" fill-rule="evenodd"/><path d="M53,40a1.76,1.76,0,0,0,1.06-.16,2,2,0,0,0,.82-1.34c0-.2-.29.13-1.3-.24S49,37.05,46.72,39.73c-.39.47,0,.78.47.57A6.93,6.93,0,0,1,53,40Z" fill="#342a60" fill-rule="evenodd"/><path d="M62.4,52.69c.24-.22,0-1.15-.15-1.78-.14-.47-.26-.7-.4-.68s-.29.15-.5.58-.64,1.44-.44,1.71A1.31,1.31,0,0,0,62.4,52.69Z" fill="#f9d4c8" fill-rule="evenodd"/><path d="M62.68,47.4a.42.42,0,0,0-.49-.29.4.4,0,0,0-.28.49,51,51,0,0,1,1.17,5.08c-.08.23-.54.54-.74.66a2.45,2.45,0,0,1-1.15.35.41.41,0,0,0-.39.41.41.41,0,0,0,.42.39A3.29,3.29,0,0,0,62.74,54a2.51,2.51,0,0,0,1.1-1.11C64,52.42,62.91,48.18,62.68,47.4Z" fill="#ee8b83" fill-rule="evenodd"/><path d="M19.13,206.36c1.87-8.3,7.05-43.09,8.09-50.25,0,0-3.6-4.61-.39-8.77C22,128,23.9,96.27,19.31,85.93,27,83.52,47.56,77,47.58,77.08,51.12,82,56,85.22,60.79,85.22S70.47,82,74,77.08c0,0,20.64,6.44,28.28,8.85-4.6,10.34-2.72,42-7.53,61.41,3.22,4.16-.38,8.77-.38,8.77,1,7.16,7.74,38.12,9.61,46.43a3.08,3.08,0,0,1,0,1.54,0,0,0,0,1,0,0s0,0,0,0l-.08.23c-3,7.73-38.82,24.7-40,22.18s-3-21.28-3-21.28-5.72,17.59-6.95,20.13-31.65-9.51-34.57-17.22a2.25,2.25,0,0,1-.08-.24v0h0A3.08,3.08,0,0,1,19.13,206.36Z" fill="#fff" fill-rule="evenodd"/><path d="M61.1,205.39a.33.33,0,0,1-.42.2.32.32,0,0,1-.19-.42s2.77-7.66,2.77-10.75-1.21-14.74-1.21-14.77a.33.33,0,1,1,.65-.07s1.21,11.68,1.21,14.84S61.11,205.37,61.1,205.39Z" fill="#c3b8b4" fill-rule="evenodd"/><polygon points="58.45 92.31 53.85 181.48 60.79 193.88 67.74 181.48 63.14 92.31 60.79 91.53 58.45 92.31" fill="#7385a1" fill-rule="evenodd"/><path d="M32,155.65a1.92,1.92,0,0,0-3.65-1.19s-2.1,6.47-6.34,8.16a1.92,1.92,0,1,0,1.42,3.56C29.3,163.81,31.94,155.67,32,155.65Z" fill="#5b528b" fill-rule="evenodd"/><polygon points="56.15 87.49 58.45 92.31 60.79 92.31 63.14 92.31 65.44 87.49 60.79 85.22 56.15 87.49" fill="#7385a1" fill-rule="evenodd"/><path d="M47.59,74.38l13.2,10.84-7.07,6.89s-2.39,1.88-3.91-.3S43,78.64,43,78.64l4.64-7Z" fill="#fff" fill-rule="evenodd"/><path d="M74,74.38,60.79,85.22l7.08,6.89s2.38,1.88,3.91-.3,6.86-13.17,6.86-13.17l-4.64-7Z" fill="#fff" fill-rule="evenodd"/><path d="M26.1,83.79s5.63,44.36-.61,72.14c0,0-.46,1.56.53,1.56H31.3a3.77,3.77,0,0,0,3.36-2.26c.67-1.69,12.24-37.79,4.12-75.42,0,0-.26-1.22-1.75-.85s-10.09,3.32-10.09,3.32A1.59,1.59,0,0,0,26.1,83.79Z" fill="#ee8b83" fill-rule="evenodd"/><path d="M28.39,118.16a219.15,219.15,0,0,1-.84,24.41c2.2,1.11,6,3,9.36,4.71A169.32,169.32,0,0,0,41,122Z" fill="#c75859" fill-rule="evenodd"/><path d="M26.86,136.67s1.59,4.61-2.07,5.18c0,0-3.75,9.58-4.83,13.64s-6.54,5.43-10.45,4.61S2,153.53,2.28,148.85s9.61-13.08,17.29-20.41Z" fill="#f2ba95" fill-rule="evenodd"/><path d="M41.28,119.82s2.14.82,1.21,4a4.36,4.36,0,0,1,.72,4.54s1.48,2.37.23,4.44c0,0,.38,3-1,4.13a11.65,11.65,0,0,1-3.69,1.74l.19-1.09a17.78,17.78,0,0,1-12.79,3.22c-7.74-1-8-8.06-7.43-10.11a14.2,14.2,0,0,1,4.9-7.27,24,24,0,0,0,4.74-5l0,3.27S39.88,119.27,41.28,119.82Z" fill="#f2ba95" fill-rule="evenodd"/><path d="M117.75,130.77l1.54,17.91s-9.34-5.58-9.47-6.13-2.37-7-2.37-7Z" fill="#ee8b83" fill-rule="evenodd"/><path d="M102.28,85.93s6.66,2.65,8.08,6.82,11.22,38.89,11.22,38.89a1.63,1.63,0,0,1-1.12,1.68c-1.21.35-15.28,6.27-23.82,6.58S95.73,91.33,102.28,85.93Z" fill="#fff" fill-rule="evenodd"/><path d="M120.58,128.09l.59,2.08c-6.57,2.28-23.69,8.19-24.47,8.09a1.08,1.08,0,0,1,.28-2.15C97.31,136.16,114.19,130.31,120.58,128.09Z" fill="#4b495a" fill-rule="evenodd"/><path d="M89.64,155.65a1.91,1.91,0,1,1,3.64-1.19s2.1,6.47,6.35,8.16a1.92,1.92,0,0,1-1.43,3.56C92.28,163.81,89.65,155.67,89.64,155.65Z" fill="#5b528b" fill-rule="evenodd"/><path d="M95.48,83.79s-5.62,44.36.61,72.14c0,0,.46,1.56-.52,1.56H90.28a3.77,3.77,0,0,1-3.35-2.26c-.68-1.69-12.24-37.79-4.12-75.42,0,0,.26-1.22,1.75-.85s10.09,3.32,10.09,3.32A1.57,1.57,0,0,1,95.48,83.79Z" fill="#ee8b83" fill-rule="evenodd"/><path d="M93.16,124.49a182,182,0,0,0,1.6,24.1c-3.65-1.64-7.54-3.42-10.94-5a171.68,171.68,0,0,1-3.59-25.88l9,3.16S91.19,122.53,93.16,124.49Z" fill="#c75859" fill-rule="evenodd"/><path d="M94.73,136.67s-1.59,4.61,2.06,5.18c0,0,3.75,9.58,4.83,13.64s6.55,5.43,10.46,4.61,7.5-6.57,7.22-11.25-9.6-13.08-17.29-20.41Z" fill="#f2ba95" fill-rule="evenodd"/><path d="M80.31,119.82s-2.14.82-1.21,4a4.35,4.35,0,0,0-.73,4.54s-1.48,2.37-.23,4.44c0,0-.38,3,1,4.13a11.76,11.76,0,0,0,3.7,1.74l-.19-1.09a17.78,17.78,0,0,0,12.79,3.22c7.74-1,7.94-8.06,7.42-10.11a14.08,14.08,0,0,0-4.9-7.27,23.8,23.8,0,0,1-4.73-5l0,3.27S81.7,119.27,80.31,119.82Z" fill="#f2ba95" fill-rule="evenodd"/><path d="M39.92,25.71h0c.73-.17,39.23-1.05,39.68-.76s-1,4.45-1,4.45l-3.68.74L72.77,34c1.34-3.87-1.3-4.57-1.72-4.71s-7.08.84-9.5,1A9.55,9.55,0,0,1,57,29.16c-8.8,2.18-14-.05-14-.05S40.7,25.85,39.92,25.71Z" fill="#ee8b83" fill-rule="evenodd"/><path d="M39.7,47.89a14.63,14.63,0,0,0,1-7.33s3.58-8.47,3.35-12.94-5.17-2.23-5.17-2.23-2.53,4.3-.82,16.13Z" fill="#342a60" fill-rule="evenodd"/><path d="M82.18,47.89a14.63,14.63,0,0,1-1-7.33s-3.58-8.47-3.35-12.94S83,25.39,83,25.39s2.53,4.3.82,16.13Z" fill="#342a60" fill-rule="evenodd"/><path d="M43.06,28.18c-3.24-1.33-6.17-3.45-6.31-6a5.73,5.73,0,0,1,1.54-4.14S41.5,11,42.9,9a3.56,3.56,0,0,1,3.67-1.36A4.34,4.34,0,0,1,49,4.86a6,6,0,0,1,3.77-.37S55.13.86,59.23,1.6c0,0,7.73-1.81,10.57,2.52,0,0,7.16-.47,9.77,6.14,0,0,7.77,6.55,3.83,16.11,0,0-5.13,2.55-10.44,1.3,0,0-10,1.62-11.91,1.39A28.89,28.89,0,0,1,55.21,27C56.17,29.55,44.34,28.7,43.06,28.18Z" fill="#342a60" fill-rule="evenodd"/><path d="M58.12,3a.34.34,0,0,1-.49-.07.35.35,0,0,1,.06-.49s8.93-6.9,14.16,2.48a.36.36,0,0,1-.14.48.35.35,0,0,1-.48-.14C66.41-3.4,58.14,3,58.12,3Z" fill="#342a60" fill-rule="evenodd"/><path d="M69.87,26.78l-.84.91s3.7.7,4.37,2.39-.51,3.25-1.27,5.5c0,0-.1.23.07.26s3.24-3.43,3.63-5.46S74.71,24.33,69.87,26.78Z" fill="#342a60" fill-rule="evenodd"/><path d="M59,62.86a.51.51,0,0,1-.41-.58.5.5,0,0,1,.58-.4,12.32,12.32,0,0,0,3.3,0,.5.5,0,0,1,.13,1A13.52,13.52,0,0,1,59,62.86Z" fill="#ee8b83" fill-rule="evenodd"/><path d="M64.81,60.12c1.56-.84,1.56-2.09,1-2.82A1.93,1.93,0,0,0,64,56.53h-6.3a1.93,1.93,0,0,0-1.89.77c-.54.73-.54,2,1,2.82A9,9,0,0,0,64.81,60.12Z" fill="#342a60" fill-rule="evenodd"/><path d="M56.94,60.19a9,9,0,0,0,7.72,0,2.88,2.88,0,0,0-.34-.23,7,7,0,0,0-7,0A2.24,2.24,0,0,0,56.94,60.19Z" fill="#ea6063" fill-rule="evenodd"/><path d="M65.05,56.66a3.14,3.14,0,0,0-1.1-.13h-6.3a3.14,3.14,0,0,0-1.1.13v.43a.87.87,0,0,0,.88.88h6.74a.88.88,0,0,0,.88-.88Z" fill="#fff" fill-rule="evenodd"/><path d="M102,85.8a.32.32,0,1,1,.59.26c-2.32,5.24-3,16.07-3.7,28-.17,2.82-.35,5.7-.55,8.55a.31.31,0,0,1-.34.3.32.32,0,0,1-.31-.34c.2-2.89.38-5.75.55-8.55.72-12,1.38-22.87,3.76-28.21Zm-78.05,37a.33.33,0,0,1-.3.35.33.33,0,0,1-.35-.3c-.21-3-.39-5.93-.57-8.84-.72-11.92-1.37-22.75-3.7-28a.33.33,0,0,1,.17-.43.32.32,0,0,1,.42.17C22,91.14,22.64,102,23.37,114c.17,2.89.35,5.85.56,8.83ZM60.56,85h0l0,0,0,0H61l0,0,0,0h0l7.06,6.87c.19.15,2.17,1.57,3.43-.24,1.4-2,6.08-11.57,6.75-13l-4.53-6.85a.32.32,0,1,1,.54-.36l4.63,7a.32.32,0,0,1,0,.34S73.59,89.78,72,92c-1.68,2.42-4.25.47-4.37.38l0,0-6.85-6.66L54,92.34l0,0c-.11.09-2.69,2-4.37-.38-1.54-2.21-6.87-13.17-6.89-13.2a.33.33,0,0,1,.59-.29s5.33,11,6.83,13.12c1.27,1.81,3.24.39,3.43.24Z" fill="#c3b8b4" fill-rule="evenodd"/><path d="M36.1,389.09H17.9a.82.82,0,0,0-.6.74c0,.6-.36,7.36-.36,7.36s0,1.19,2,1.19h14.9a1.89,1.89,0,0,0,2-1.76c.2-1.11.66-6.48.66-6.48S36.73,389.19,36.1,389.09Z" fill="#4b495a" fill-rule="evenodd"/><path d="M85.48,389.09h18.2a.82.82,0,0,1,.6.74c0,.6.36,7.36.36,7.36s0,1.19-2,1.19H87.71a1.89,1.89,0,0,1-2-1.76c-.19-1.11-.65-6.48-.65-6.48S84.86,389.19,85.48,389.09Z" fill="#4b495a" fill-rule="evenodd"/><path d="M46.68,7.32c7.74,5.94,22.56,8,32.51,2.1.14.26.26.55.38.84A14.67,14.67,0,0,1,82,13.05C70.58,22.23,50.1,26.49,38.18,18.19l.11-.11S41.5,11,42.9,9a3.56,3.56,0,0,1,3.67-1.36A3.26,3.26,0,0,1,46.68,7.32Z" fill="#413871" fill-rule="evenodd"/></g></g></svg>