<svg id="Layer_1" data-name="Layer 1" xmlns="http://www.w3.org/2000/svg" xmlns:xlink="http://www.w3.org/1999/xlink" viewBox="0 0 1000.27 1037.59"><defs><linearGradient id="linear-gradient" x1="600.02" y1="226.22" x2="-43.58" y2="873.89" gradientUnits="userSpaceOnUse"><stop offset="0.12" stop-color="#124278"/><stop offset="0.27" stop-color="#0074a6"/><stop offset="0.34" stop-color="#026fa2"/><stop offset="0.42" stop-color="#076195"/><stop offset="0.51" stop-color="#0f4a7f"/><stop offset="0.53" stop-color="#124278"/><stop offset="0.55" stop-color="#124278"/><stop offset="0.7" stop-color="#124278"/><stop offset="0.71" stop-color="#10487d"/><stop offset="0.76" stop-color="#095b8f"/><stop offset="0.81" stop-color="#04699c"/><stop offset="0.88" stop-color="#0172a4"/><stop offset="1" stop-color="#0074a6"/></linearGradient><linearGradient id="linear-gradient-2" x1="156.92" y1="579.42" x2="660.12" y2="1043.91" gradientUnits="userSpaceOnUse"><stop offset="0" stop-color="#0074a6"/><stop offset="0.09" stop-color="#026fa2"/><stop offset="0.21" stop-color="#076195"/><stop offset="0.32" stop-color="#0f4a7f"/><stop offset="0.36" stop-color="#124278"/><stop offset="0.38" stop-color="#124278"/><stop offset="0.6" stop-color="#124278"/><stop offset="0.61" stop-color="#10487d"/><stop offset="0.68" stop-color="#095b8f"/><stop offset="0.75" stop-color="#04699c"/><stop offset="0.84" stop-color="#0172a4"/><stop offset="1" stop-color="#0074a6"/></linearGradient><linearGradient id="linear-gradient-3" x1="446.9" y1="204.67" x2="1104.93" y2="864.97" gradientUnits="userSpaceOnUse"><stop offset="0" stop-color="#0074a6"/><stop offset="0.08" stop-color="#026fa2"/><stop offset="0.17" stop-color="#076195"/><stop offset="0.27" stop-color="#0f4a7f"/><stop offset="0.29" stop-color="#124278"/><stop offset="0.31" stop-color="#124278"/><stop offset="0.46" stop-color="#124278"/><stop offset="0.48" stop-color="#10487d"/><stop offset="0.56" stop-color="#095b8f"/><stop offset="0.66" stop-color="#04699c"/><stop offset="0.78" stop-color="#0172a4"/><stop offset="1" stop-color="#0074a6"/></linearGradient><linearGradient id="linear-gradient-4" x1="729.65" y1="377.75" x2="162.7" y2="1010.73" gradientUnits="userSpaceOnUse"><stop offset="0" stop-color="#0074a6"/><stop offset="0.09" stop-color="#026fa2"/><stop offset="0.19" stop-color="#076195"/><stop offset="0.3" stop-color="#0f4a7f"/><stop offset="0.33" stop-color="#124278"/><stop offset="0.35" stop-color="#124278"/><stop offset="0.5" stop-color="#124278"/><stop offset="0.51" stop-color="#10487d"/><stop offset="0.59" stop-color="#095b8f"/><stop offset="0.69" stop-color="#04699c"/><stop offset="0.8" stop-color="#0172a4"/><stop offset="1" stop-color="#0074a6"/></linearGradient><linearGradient id="linear-gradient-5" x1="434.24" y1="524.54" x2="853.19" y2="1030.01" gradientUnits="userSpaceOnUse"><stop offset="0" stop-color="#124278"/><stop offset="0.16" stop-color="#0074a6"/><stop offset="0.26" stop-color="#026fa2"/><stop offset="0.37" stop-color="#076195"/><stop offset="0.5" stop-color="#0f4a7f"/><stop offset="0.53" stop-color="#124278"/><stop offset="0.56" stop-color="#124278"/><stop offset="0.77" stop-color="#124278"/><stop offset="0.78" stop-color="#10487d"/><stop offset="0.82" stop-color="#095b8f"/><stop offset="0.86" stop-color="#04699c"/><stop offset="0.91" stop-color="#0172a4"/><stop offset="1" stop-color="#0074a6"/></linearGradient><linearGradient id="linear-gradient-6" x1="821.82" y1="715.58" x2="585.02" y2="968.32" gradientUnits="userSpaceOnUse"><stop offset="0" stop-color="#124278"/><stop offset="0.01" stop-color="#124379"/><stop offset="0.1" stop-color="#0a598d"/><stop offset="0.21" stop-color="#04689b"/><stop offset="0.34" stop-color="#0171a3"/><stop offset="0.52" stop-color="#0074a6"/><stop offset="0.69" stop-color="#0171a3"/><stop offset="0.8" stop-color="#04689b"/><stop offset="0.9" stop-color="#0a598d"/><stop offset="0.99" stop-color="#11447a"/><stop offset="1" stop-color="#124278"/></linearGradient></defs><path d="M534.6,12.41c12.43,83,43.91,157.58,85.79,226-125.16,333.92-542.92,524.28-512,762.17,0,0-172.86-193.44,10-383.12,44.67-49.74,96.8-100.75,148.87-155C387.37,337.42,507.21,195.32,534.6,12.41Z" transform="translate(-34.46 -12.41)" fill="url(#linear-gradient)"/><path d="M639.51,1050C546,911.77,384.81,772.63,277.62,588.91,260.83,560.12,234,510,267.26,462.48c-20.58,21-76.46,78.27-96,98.55-32.43,33.61-41,84.37-18.9,125.54C228,827.71,329,942.54,429.69,1050Z" transform="translate(-34.46 -12.41)" fill="url(#linear-gradient-2)"/><path d="M534.6,12.41c-8.45,56.41-25.69,108.93-49,158.27C464.8,214.61,458,266,480.49,309.07c151.89,291.2,509,470.91,480.28,691.5,0,0,172.87-193.44-10-383.12C855.34,511.14,725.81,399,635.52,262.23,586.12,187.38,548.48,105.14,534.6,12.41Z" transform="translate(-34.46 -12.41)" fill="url(#linear-gradient-3)"/><path d="M216.67,1050c-28.9,0-54.32-22.79-49.46-51.28C199,812.53,481.1,646.7,626.64,401.48c16.92-28.49,38.8-81.61,8.88-139.25,18,32.6,73.35,98,93.23,120.81,30.66,35.12,40.37,85.51,17.49,126.12C621.87,730,400.49,886.42,325.13,1050Z" transform="translate(-34.46 -12.41)" fill="url(#linear-gradient-4)"/><path d="M902,998.72C873,828.87,635.69,675.94,483.78,464.24c-35.4,43.16-73.48,84-111.33,123.1C499.24,768.29,677.91,906.4,744.07,1050H852.52C881.43,1050,906.85,1027.21,902,998.72Z" transform="translate(-34.46 -12.41)" fill="url(#linear-gradient-5)"/><path d="M755,647C687.36,747.64,606.13,835,534.6,917.54,573.75,962.7,610,1006.4,639.51,1050c80.26-85.66,160.73-176,228.39-280.61C835.08,729.46,796.14,689,755,647Z" transform="translate(-34.46 -12.41)" fill="url(#linear-gradient-6)"/></svg>