<svg xmlns="http://www.w3.org/2000/svg" xmlns:xlink="http://www.w3.org/1999/xlink" viewBox="0 0 893.56 1013.45"><defs><linearGradient id="linear-gradient" x1="855.03" y1="1129.64" x2="120.86" y2="81.5" gradientUnits="userSpaceOnUse"><stop offset="0" stop-color="#b0ea3b"/><stop offset="1" stop-color="#0088bd"/></linearGradient><linearGradient id="linear-gradient-2" x1="896.93" y1="1100.29" x2="162.75" y2="52.16" xlink:href="#linear-gradient"/><linearGradient id="linear-gradient-3" x1="596.26" y1="-10.72" x2="194.9" y2="320.94" gradientUnits="userSpaceOnUse"><stop offset="0"/><stop offset="1" stop-color="#fff"/></linearGradient><linearGradient id="linear-gradient-4" x1="73.59" y1="166.18" x2="184.14" y2="622.81" xlink:href="#linear-gradient-3"/><linearGradient id="linear-gradient-5" x1="108.45" y1="607.69" x2="839.45" y2="1016.8" xlink:href="#linear-gradient-3"/><linearGradient id="linear-gradient-6" x1="121.6" y1="584.2" x2="852.6" y2="993.31" xlink:href="#linear-gradient-3"/><linearGradient id="linear-gradient-7" x1="10270.53" y1="1148.77" x2="9635.18" y2="45.59" gradientTransform="matrix(-1, 0, 0, 1, 10600.59, 0)" xlink:href="#linear-gradient"/><linearGradient id="linear-gradient-8" x1="10094.43" y1="-10.72" x2="9693.08" y2="320.94" gradientTransform="matrix(-1, 0, 0, 1, 10600.59, 0)" xlink:href="#linear-gradient-3"/><linearGradient id="linear-gradient-9" x1="9571.76" y1="166.18" x2="9682.32" y2="622.81" gradientTransform="matrix(-1, 0, 0, 1, 10600.59, 0)" xlink:href="#linear-gradient-3"/><linearGradient id="linear-gradient-10" x1="9512.87" y1="700.35" x2="10397.29" y2="933.47" gradientTransform="matrix(-1, 0, 0, 1, 10600.59, 0)" xlink:href="#linear-gradient-3"/></defs><g style="isolation:isolate"><g id="Layer_1" data-name="Layer 1"><path d="M551.61,31.55V275.07A860.06,860.06,0,0,1,319.27,398.29a860.25,860.25,0,0,1,5,93.53c0,19-.56,37.82-1.8,56.33a856.94,856.94,0,0,1,194.83,54.16A886.82,886.82,0,0,0,325.05,731.18c-10.81-2.18-21.67-4-32.67-5.72a692.28,692.28,0,0,0-102.79-7.7A700.61,700.61,0,0,0,104.45,723q6.52-18.26,12-37.08c1.8-6.09,3.55-12.17,5.16-18.32.19-.8.37-1.55.56-2.3,1-3.66,1.93-7.33,2.79-11,1.93-7.83,3.73-15.71,5.35-23.6a691.27,691.27,0,0,0,12.42-91.42c1.11-15.59,1.74-31.49,1.74-47.39,0-17.7-.75-35.09-2-52.54A678.9,678.9,0,0,0,105,262.53a677.08,677.08,0,0,0,175.88-41.86A684.78,684.78,0,0,0,551.61,31.55Z" transform="translate(-104.43 -31.55)" fill="url(#linear-gradient)"/><path d="M922.26,944,773.33,1045A686.13,686.13,0,0,0,577,838.06a653.26,653.26,0,0,1,192.34-76.64A869.7,869.7,0,0,1,922.26,944Z" transform="translate(-104.43 -31.55)" fill="url(#linear-gradient-2)"/><path d="M551.63,31.57V158a768.15,768.15,0,0,1-422,191.49,668.24,668.24,0,0,0-24.59-87A678.93,678.93,0,0,0,280.9,220.68,685,685,0,0,0,551.63,31.57Z" transform="translate(-104.43 -31.55)" opacity="0.3" fill="url(#linear-gradient-3)" style="mix-blend-mode:multiply"/><path d="M233.82,491.84A775.85,775.85,0,0,1,200.25,718c-3.51-.28-7.16-.28-10.67-.28a707.15,707.15,0,0,0-85.15,5.2,681.23,681.23,0,0,0,38.36-183.78c1.12-15.59,1.69-31.47,1.69-47.34,0-17.7-.72-35.13-2-52.55A676.93,676.93,0,0,0,105,262.55a698.14,698.14,0,0,0,89.5-15A772,772,0,0,1,233.82,491.84Z" transform="translate(-104.43 -31.55)" opacity="0.3" fill="url(#linear-gradient-4)" style="mix-blend-mode:multiply"/><path d="M189.59,628.39A774.2,774.2,0,0,1,415,661.74a881.7,881.7,0,0,0-90,69.44c-10.81-2.18-21.67-4-32.67-5.72a692.28,692.28,0,0,0-102.79-7.7A700.61,700.61,0,0,0,104.45,723q6.52-18.26,12-37.08c1.8-6.09,3.55-12.17,5.16-18.32.19-.8.37-1.55.56-2.3,1-3.72,1.93-7.39,2.79-11,1.93-7.83,3.67-15.71,5.28-23.6h.07C150,629.07,169.6,628.39,189.59,628.39Z" transform="translate(-104.43 -31.55)" opacity="0.3" fill="url(#linear-gradient-5)" style="mix-blend-mode:multiply"/><path d="M847.36,994.69l-74,50.31A686.13,686.13,0,0,0,577,838.06a650.84,650.84,0,0,1,89.93-44.71A776.75,776.75,0,0,1,847.36,994.69Z" transform="translate(-104.43 -31.55)" opacity="0.3" fill="url(#linear-gradient-6)" style="mix-blend-mode:multiply"/><path d="M180.16,944l148.92,101C432.34,876.52,606.42,756.11,810,725.48a689.11,689.11,0,0,1,102.83-7.72A707.27,707.27,0,0,1,998,723a681.23,681.23,0,0,1-38.36-183.78c-1.13-15.59-1.69-31.47-1.69-47.34,0-17.7.71-35.13,2-52.55a676.52,676.52,0,0,1,37.51-176.74,678.93,678.93,0,0,1-175.91-41.87A685,685,0,0,1,550.79,31.57V275.05A859.2,859.2,0,0,0,783.17,398.27a856.22,856.22,0,0,0-5.06,93.57c0,19,.56,37.79,1.82,56.34C527,587.1,310.53,735.88,180.16,944Z" transform="translate(-104.43 -31.55)" fill="url(#linear-gradient-7)"/><path d="M550.79,31.57V158A768.12,768.12,0,0,0,972.84,349.51a668.24,668.24,0,0,1,24.59-87,678.93,678.93,0,0,1-175.91-41.87A685,685,0,0,1,550.79,31.57Z" transform="translate(-104.43 -31.55)" opacity="0.3" fill="url(#linear-gradient-8)" style="mix-blend-mode:multiply"/><path d="M868.59,491.84A775.52,775.52,0,0,0,902.17,718c3.51-.28,7.16-.28,10.67-.28A707.27,707.27,0,0,1,998,723a681.23,681.23,0,0,1-38.36-183.78c-1.13-15.59-1.69-31.47-1.69-47.34,0-17.7.71-35.13,2-52.55a676.52,676.52,0,0,1,37.51-176.74,697.85,697.85,0,0,1-89.5-15A771.69,771.69,0,0,0,868.59,491.84Z" transform="translate(-104.43 -31.55)" opacity="0.3" fill="url(#linear-gradient-9)" style="mix-blend-mode:multiply"/><path d="M255,994.68l74,50.29C432.34,876.52,606.42,756.11,810,725.48a689.11,689.11,0,0,1,102.83-7.72A707.27,707.27,0,0,1,998,723a672,672,0,0,1-25.85-92.31c-19.67-1.55-39.35-2.25-59.3-2.25C635.08,628.4,391.6,774.8,255,994.68Z" transform="translate(-104.43 -31.55)" opacity="0.3" fill="url(#linear-gradient-10)" style="mix-blend-mode:multiply"/></g></g></svg>