<svg xmlns="http://www.w3.org/2000/svg" xmlns:xlink="http://www.w3.org/1999/xlink" viewBox="0 0 918.31 1041.51"><defs><linearGradient id="linear-gradient" x1="852.65" y1="1145.98" x2="98.15" y2="68.82" gradientUnits="userSpaceOnUse"><stop offset="0" stop-color="#ffa91f"/><stop offset="1" stop-color="#ff1d3d"/></linearGradient><linearGradient id="linear-gradient-2" x1="895.71" y1="1115.83" x2="141.2" y2="38.66" xlink:href="#linear-gradient"/><linearGradient id="linear-gradient-3" x1="586.71" y1="-25.95" x2="174.24" y2="314.89" gradientUnits="userSpaceOnUse"><stop offset="0"/><stop offset="1" stop-color="#fff"/></linearGradient><linearGradient id="linear-gradient-4" x1="49.57" y1="155.84" x2="163.19" y2="625.12" xlink:href="#linear-gradient-3"/><linearGradient id="linear-gradient-5" x1="85.4" y1="609.58" x2="836.64" y2="1030.02" xlink:href="#linear-gradient-3"/><linearGradient id="linear-gradient-6" x1="98.91" y1="585.44" x2="850.15" y2="1005.88" xlink:href="#linear-gradient-3"/><linearGradient id="linear-gradient-7" x1="10287.44" y1="1165.65" x2="9634.51" y2="31.91" gradientTransform="matrix(-1, 0, 0, 1, 10600.59, 0)" xlink:href="#linear-gradient"/><linearGradient id="linear-gradient-8" x1="10106.47" y1="-25.95" x2="9694" y2="314.89" gradientTransform="matrix(-1, 0, 0, 1, 10600.59, 0)" xlink:href="#linear-gradient-3"/><linearGradient id="linear-gradient-9" x1="9569.33" y1="155.84" x2="9682.95" y2="625.12" gradientTransform="matrix(-1, 0, 0, 1, 10600.59, 0)" xlink:href="#linear-gradient-3"/><linearGradient id="linear-gradient-10" x1="9508.8" y1="704.81" x2="10417.72" y2="944.38" gradientTransform="matrix(-1, 0, 0, 1, 10600.59, 0)" xlink:href="#linear-gradient-3"/></defs><g style="isolation:isolate"><g id="Layer_1" data-name="Layer 1"><path d="M540.83,17.49V267.75A883.8,883.8,0,0,1,302.06,394.38a887.44,887.44,0,0,1,5.16,96.12c0,19.53-.57,38.87-1.85,57.89a880.42,880.42,0,0,1,200.22,55.66A912.36,912.36,0,0,0,308,736.49c-11.1-2.24-22.27-4.15-33.57-5.87a710,710,0,0,0-105.63-7.92,719.07,719.07,0,0,0-87.51,5.36Q88,709.3,93.66,690c1.85-6.26,3.64-12.51,5.3-18.83.19-.83.39-1.6.57-2.36,1-3.77,2-7.53,2.88-11.36,2-8,3.83-16.15,5.49-24.26a710.06,710.06,0,0,0,12.76-93.95c1.15-16,1.79-32.36,1.79-48.7,0-18.19-.76-36.06-2-54A697.58,697.58,0,0,0,81.86,254.86a695.5,695.5,0,0,0,180.75-43A703.83,703.83,0,0,0,540.83,17.49Z" transform="translate(-81.26 -17.49)" fill="url(#linear-gradient)"/><path d="M921.74,955.16,768.69,1059A705.19,705.19,0,0,0,566.93,846.33,671.09,671.09,0,0,1,764.6,767.57,893.35,893.35,0,0,1,921.74,955.16Z" transform="translate(-81.26 -17.49)" fill="url(#linear-gradient-2)"/><path d="M540.85,17.51v130A789.51,789.51,0,0,1,107.11,344.25a686.14,686.14,0,0,0-25.27-89.37,697.25,697.25,0,0,0,180.78-43C370.76,170.56,465.92,103.12,540.85,17.51Z" transform="translate(-81.26 -17.49)" opacity="0.3" fill="url(#linear-gradient-3)" style="mix-blend-mode:multiply"/><path d="M214.24,490.52A797.06,797.06,0,0,1,179.74,723c-3.61-.29-7.36-.29-11-.29A727.59,727.59,0,0,0,81.26,728a700.22,700.22,0,0,0,39.43-188.86c1.15-16,1.73-32.35,1.73-48.66,0-18.19-.73-36.1-2-54A695.93,695.93,0,0,0,81.84,254.88a716.72,716.72,0,0,0,92-15.45A793.4,793.4,0,0,1,214.24,490.52Z" transform="translate(-81.26 -17.49)" opacity="0.3" fill="url(#linear-gradient-4)" style="mix-blend-mode:multiply"/><path d="M168.79,630.86a795.27,795.27,0,0,1,231.69,34.27A906.41,906.41,0,0,0,308,736.49c-11.1-2.24-22.27-4.15-33.57-5.87a710,710,0,0,0-105.63-7.92,719.07,719.07,0,0,0-87.51,5.36Q88,709.3,93.66,690c1.85-6.26,3.64-12.51,5.3-18.83.19-.83.39-1.6.57-2.36,1-3.83,2-7.6,2.88-11.36,2-8,3.76-16.15,5.43-24.26h.06C128.13,631.56,148.24,630.86,168.79,630.86Z" transform="translate(-81.26 -17.49)" opacity="0.3" fill="url(#linear-gradient-5)" style="mix-blend-mode:multiply"/><path d="M844.77,1007.3,768.69,1059A705.19,705.19,0,0,0,566.93,846.33a670,670,0,0,1,92.42-46A798.41,798.41,0,0,1,844.77,1007.3Z" transform="translate(-81.26 -17.49)" opacity="0.3" fill="url(#linear-gradient-6)" style="mix-blend-mode:multiply"/><path d="M159.09,955.16l153,103.81c106.12-173.12,285-296.86,494.25-328.34a709.56,709.56,0,0,1,105.68-7.94A727.59,727.59,0,0,1,999.57,728a700.22,700.22,0,0,1-39.43-188.86c-1.15-16-1.73-32.35-1.73-48.66,0-18.19.73-36.1,2-54A695.93,695.93,0,0,1,999,254.88a697.35,697.35,0,0,1-180.78-43C710.07,170.56,614.91,103.12,540,17.51V267.73A882.72,882.72,0,0,0,778.8,394.36a880.85,880.85,0,0,0-5.2,96.16c0,19.49.57,38.84,1.87,57.9C515.57,588.42,293.07,741.32,159.09,955.16Z" transform="translate(-81.26 -17.49)" fill="url(#linear-gradient-7)"/><path d="M540,17.51v130A789.51,789.51,0,0,0,973.72,344.25,686.14,686.14,0,0,1,999,254.88a697.35,697.35,0,0,1-180.78-43C710.07,170.56,614.91,103.12,540,17.51Z" transform="translate(-81.26 -17.49)" opacity="0.3" fill="url(#linear-gradient-8)" style="mix-blend-mode:multiply"/><path d="M866.59,490.52A797.06,797.06,0,0,0,901.09,723c3.61-.29,7.36-.29,11-.29A727.59,727.59,0,0,1,999.57,728a700.22,700.22,0,0,1-39.43-188.86c-1.15-16-1.73-32.35-1.73-48.66,0-18.19.73-36.1,2-54A695.93,695.93,0,0,1,999,254.88a716.72,716.72,0,0,1-92-15.45A793.4,793.4,0,0,0,866.59,490.52Z" transform="translate(-81.26 -17.49)" opacity="0.3" fill="url(#linear-gradient-9)" style="mix-blend-mode:multiply"/><path d="M236.05,1007.28,312.13,1059c106.12-173.12,285-296.86,494.25-328.34a709.56,709.56,0,0,1,105.68-7.94A727.59,727.59,0,0,1,999.57,728,691.28,691.28,0,0,1,973,633.17c-20.22-1.59-40.44-2.3-60.94-2.3C626.61,630.87,376.39,781.32,236.05,1007.28Z" transform="translate(-81.26 -17.49)" opacity="0.3" fill="url(#linear-gradient-10)" style="mix-blend-mode:multiply"/></g></g></svg>