<svg xmlns="http://www.w3.org/2000/svg" xmlns:xlink="http://www.w3.org/1999/xlink" viewBox="0 0 913.9 1036.51"><defs><linearGradient id="linear-gradient" x1="835.95" y1="1144.57" x2="85.07" y2="72.57" gradientUnits="userSpaceOnUse"><stop offset="0" stop-color="#2cc7ff"/><stop offset="1" stop-color="#8b40ff"/></linearGradient><linearGradient id="linear-gradient-2" x1="878.8" y1="1114.55" x2="127.92" y2="42.56" xlink:href="#linear-gradient"/><linearGradient id="linear-gradient-3" x1="571.29" y1="-21.74" x2="160.8" y2="317.46" gradientUnits="userSpaceOnUse"><stop offset="0"/><stop offset="1" stop-color="#fff"/></linearGradient><linearGradient id="linear-gradient-4" x1="36.72" y1="159.18" x2="149.79" y2="626.2" xlink:href="#linear-gradient-3"/><linearGradient id="linear-gradient-5" x1="72.38" y1="610.74" x2="820.02" y2="1029.16" xlink:href="#linear-gradient-3"/><linearGradient id="linear-gradient-6" x1="85.82" y1="586.71" x2="833.46" y2="1005.13" xlink:href="#linear-gradient-3"/><linearGradient id="linear-gradient-7" x1="10301.56" y1="1164.14" x2="9651.76" y2="35.84" gradientTransform="matrix(-1, 0, 0, 1, 10600.59, 0)" xlink:href="#linear-gradient"/><linearGradient id="linear-gradient-8" x1="10121.45" y1="-21.74" x2="9710.97" y2="317.46" gradientTransform="matrix(-1, 0, 0, 1, 10600.59, 0)" xlink:href="#linear-gradient-3"/><linearGradient id="linear-gradient-9" x1="9586.89" y1="159.18" x2="9699.96" y2="626.2" gradientTransform="matrix(-1, 0, 0, 1, 10600.59, 0)" xlink:href="#linear-gradient-3"/><linearGradient id="linear-gradient-10" x1="9526.65" y1="705.51" x2="10431.21" y2="943.93" gradientTransform="matrix(-1, 0, 0, 1, 10600.59, 0)" xlink:href="#linear-gradient-3"/></defs><g style="isolation:isolate"><g id="Layer_1" data-name="Layer 1"><path d="M525.62,21.49V270.55A879.71,879.71,0,0,1,288,396.57a881.49,881.49,0,0,1,5.14,95.66c0,19.44-.57,38.69-1.84,57.61a876.82,876.82,0,0,1,199.26,55.39A907.87,907.87,0,0,0,293.9,737c-11-2.22-22.16-4.12-33.41-5.84a708.54,708.54,0,0,0-105.12-7.87,716.32,716.32,0,0,0-87.09,5.33Q75,710,80.6,690.73c1.85-6.23,3.63-12.45,5.28-18.74.19-.82.38-1.59.57-2.35,1-3.75,2-7.49,2.86-11.31,2-8,3.81-16.07,5.46-24.13a705.38,705.38,0,0,0,12.7-93.5c1.15-16,1.78-32.21,1.78-48.47,0-18.1-.76-35.89-2-53.74A694,694,0,0,0,68.85,257.72a692.32,692.32,0,0,0,179.89-42.81A700.41,700.41,0,0,0,525.62,21.49Z" transform="translate(-68.26 -21.49)" fill="url(#linear-gradient)"/><path d="M904.7,954.65,752.39,1058A701.7,701.7,0,0,0,551.6,846.35,667.58,667.58,0,0,1,748.32,768,889.43,889.43,0,0,1,904.7,954.65Z" transform="translate(-68.26 -21.49)" fill="url(#linear-gradient-2)"/><path d="M525.64,21.51V150.83A785.66,785.66,0,0,1,94,346.69a684.38,684.38,0,0,0-25.14-88.95,694.2,694.2,0,0,0,179.91-42.82C356.37,173.82,451.07,106.71,525.64,21.51Z" transform="translate(-68.26 -21.49)" opacity="0.3" fill="url(#linear-gradient-3)" style="mix-blend-mode:multiply"/><path d="M200.6,492.25A793.39,793.39,0,0,1,166.27,723.6c-3.6-.29-7.33-.29-10.92-.29a724.73,724.73,0,0,0-87.09,5.32,696.48,696.48,0,0,0,39.24-188c1.15-15.94,1.72-32.19,1.72-48.42,0-18.11-.73-35.93-2-53.74A692.4,692.4,0,0,0,68.84,257.74a713.19,713.19,0,0,0,91.53-15.37A789.33,789.33,0,0,1,200.6,492.25Z" transform="translate(-68.26 -21.49)" opacity="0.3" fill="url(#linear-gradient-4)" style="mix-blend-mode:multiply"/><path d="M155.37,631.91A791.48,791.48,0,0,1,385.94,666a904.06,904.06,0,0,0-92,71c-11-2.22-22.16-4.12-33.41-5.84a708.54,708.54,0,0,0-105.12-7.87,716.32,716.32,0,0,0-87.09,5.33Q75,710,80.6,690.73c1.85-6.23,3.63-12.45,5.28-18.74.19-.82.38-1.59.57-2.35,1-3.81,2-7.56,2.86-11.31,2-8,3.74-16.07,5.4-24.13h.06C114.91,632.61,134.92,631.91,155.37,631.91Z" transform="translate(-68.26 -21.49)" opacity="0.3" fill="url(#linear-gradient-5)" style="mix-blend-mode:multiply"/><path d="M828.1,1006.55,752.39,1058A701.7,701.7,0,0,0,551.6,846.35a666.89,666.89,0,0,1,92-45.73A794.4,794.4,0,0,1,828.1,1006.55Z" transform="translate(-68.26 -21.49)" opacity="0.3" fill="url(#linear-gradient-6)" style="mix-blend-mode:multiply"/><path d="M145.72,954.66,298,1058C403.64,885.68,581.68,762.54,789.9,731.21a705.49,705.49,0,0,1,105.17-7.9,724.73,724.73,0,0,1,87.09,5.32,696.85,696.85,0,0,1-39.23-188c-1.16-15.94-1.73-32.19-1.73-48.42,0-18.11.73-35.93,2-53.74a692,692,0,0,1,38.37-180.77,694.18,694.18,0,0,1-179.92-42.82C694.06,173.82,599.35,106.71,524.78,21.51v249a878.48,878.48,0,0,0,237.67,126,877.57,877.57,0,0,0-5.18,95.7c0,19.4.58,38.65,1.87,57.62C500.49,589.68,279.05,741.85,145.72,954.66Z" transform="translate(-68.26 -21.49)" fill="url(#linear-gradient-7)"/><path d="M524.78,21.51V150.83A785.69,785.69,0,0,0,956.44,346.69a682.84,682.84,0,0,1,25.15-88.95,694.18,694.18,0,0,1-179.92-42.82C694.06,173.82,599.35,106.71,524.78,21.51Z" transform="translate(-68.26 -21.49)" opacity="0.3" fill="url(#linear-gradient-8)" style="mix-blend-mode:multiply"/><path d="M849.82,492.25A793.39,793.39,0,0,0,884.16,723.6c3.59-.29,7.32-.29,10.91-.29a724.73,724.73,0,0,1,87.09,5.32,696.85,696.85,0,0,1-39.23-188c-1.16-15.94-1.73-32.19-1.73-48.42,0-18.11.73-35.93,2-53.74a692,692,0,0,1,38.37-180.77,713.05,713.05,0,0,1-91.54-15.37A789.33,789.33,0,0,0,849.82,492.25Z" transform="translate(-68.26 -21.49)" opacity="0.3" fill="url(#linear-gradient-9)" style="mix-blend-mode:multiply"/><path d="M222.31,1006.53,298,1058C403.64,885.68,581.68,762.54,789.9,731.21a705.49,705.49,0,0,1,105.17-7.9,724.73,724.73,0,0,1,87.09,5.32,688.21,688.21,0,0,1-26.44-94.41c-20.12-1.58-40.24-2.3-60.65-2.3C611,631.92,362,781.65,222.31,1006.53Z" transform="translate(-68.26 -21.49)" opacity="0.3" fill="url(#linear-gradient-10)" style="mix-blend-mode:multiply"/></g></g></svg>