<svg id="Layer_1" data-name="Layer 1" xmlns="http://www.w3.org/2000/svg" viewBox="0 0 872.77 987.28"><path d="M103.26,451.06c145.5-64.65,290.92-63.66,436.43,0,145.42-63.66,290.92-64.65,436.34,0V1011c-148.48-66.55-293.73-61.76-436.34,0-142.7-61.76-288-66.55-436.43,0V451.06Z" transform="translate(-103.26 -23.72)" fill="#00205c" fill-rule="evenodd"/><path d="M103.26,400.05c145.5-64.65,290.92-63.74,436.43,0V960c-142.7-61.76-288-66.55-436.43,0V400.05Z" transform="translate(-103.26 -23.72)" fill="#1979c1" fill-rule="evenodd"/><path d="M976,400.05c-145.42-64.65-290.92-63.74-436.34,0V960C682.3,898.23,827.55,893.44,976,960V400.05Z" transform="translate(-103.26 -23.72)" fill="#1979c1" fill-rule="evenodd"/><path d="M894,263.14C688.41,281.33,640.3,333.33,539.69,397.32V960C638.31,897.9,705.94,849.71,894,825.81V263.14Z" transform="translate(-103.26 -23.72)" fill="#07d3ff" fill-rule="evenodd"/><path d="M539.69,854.91C220.57,732,14.3,356.89,157.41,23.72,143.85,532.49,460.49,331.93,704.2,158.23,439.4,481.4,347.64,623.43,539.69,854.91Z" transform="translate(-103.26 -23.72)" fill="#fbb038" fill-rule="evenodd"/><path d="M330,299.85c45.22,0,82-37.29,82-83.09s-36.79-83.08-82-83.08S248,171,248,216.76s36.87,83.09,82,83.09Z" transform="translate(-103.26 -23.72)" fill="#fbb038" fill-rule="evenodd"/></svg>