<svg id="Layer_1" data-name="Layer 1" xmlns="http://www.w3.org/2000/svg" viewBox="0 0 798.41 988.2"><rect x="310.25" y="11.37" width="45.94" height="129.22" transform="translate(42.57 345.3) rotate(-71.25)" fill="#ccc"/><path d="M209.61,521.89,368.37,54.17,359.16,51A40.58,40.58,0,1,1,282.31,25L273,21.8,114.26,489.52a50.47,50.47,0,0,0,31.49,63.86h0a50.47,50.47,0,0,0,63.86-31.49Z" transform="translate(-111.59 -21.8)" fill="#a87116" fill-rule="evenodd"/><path d="M359.16,51,200.4,518.76a40.58,40.58,0,1,1-76.85-26.09L282.31,25A40.58,40.58,0,1,0,359.16,51Z" transform="translate(-111.59 -21.8)" fill="#e6e6e6" fill-rule="evenodd"/><path d="M193.43,569.57l-47.68-16.19a50.47,50.47,0,0,0,63.86-31.49L368.37,54.17,910,238,751.25,705.74a50.47,50.47,0,0,1-63.86,31.49Z" transform="translate(-111.59 -21.8)" fill="#fbb038" fill-rule="evenodd"/><polygon points="190.46 159.61 202.44 124.32 161.03 110.26 170.13 133.03 149.05 145.56 190.46 159.61" fill="#1979c1"/><path d="M327.09,677.89a92.47,92.47,0,0,0,12,27.62c23,34.71,47.54,68.33,72.88,101.35,9,11.79,16,24.19,14.37,39.82a25.41,25.41,0,0,0,.57,6c4.67,32.65,9.5,65.27,14,97.94,2.71,19.78,5.15,39.6,7.71,59.4H614.82c-8.32-36.19-16.25-72.47-24.66-108.65-5.79-24.92-4.75-49.48,1.93-74,5.21-19.09,14.11-36.25,25.85-52.16,19.72-26.73,36-55.25,44.85-87.64,6.08-22.36,17.4-41.9,33-59,12.74-14,27.53-25.95,40.11-40.12,7.78-8.77,15.1-17.83,20.25-28.43,2.39-4.94,4-10.06,3.37-15.72-1.41-11.8-11.71-17.44-22-12-1.24.66-2.44,1.4-3.66,2.1-18.87,10.71-31.24,28.25-45.48,43.74-9.65,10.5-21,18.73-32.23,27.18-1.84,1.38-4.32,2.86-6.64.95-2-1.64-1.34-4.08-.69-6.21,1.29-4.23,2.36-8.59,4.17-12.59,9.56-21.09,20.77-41.33,32.17-61.46,10.5-18.55,22.11-36.54,28.8-57,2-6.11,2.58-12.17.84-18.39-2.38-8.49-8.12-12.39-16.4-9.66-18.47,6.07-31.63,18.08-37.51,37a55.93,55.93,0,0,1-5.2,12.1c-9.27,15.59-19.59,30.49-29.86,45.42-5.93,8.61-12.21,17-18.58,25.27-1.81,2.36-4.65,4.77-7.82,3-3.5-2-2.1-5.67-1.5-8.76a10.7,10.7,0,0,1,1.67-3.86c2.65-3.91,4-8.32,5.24-12.78,6-20.69,11.94-41.38,18.15-62,5.62-18.67,8.1-38.1,14.51-56.62,3.41-9.84-3.5-21.12-13.19-25-9.42-3.74-19.06-.35-24.88,9.14a84.73,84.73,0,0,0-5.79,11.93c-8.34,20.09-15.46,40.62-22.62,61.15-8.23,23.56-16.07,47.32-29.51,68.64-1.5,2.39-2.81,6.53-6.24,5.42-3-1-1.78-5-1.78-7.66,0-28.69,5.75-56.78,9-85.12a191,191,0,0,0-1-52.91c-1.35-8.29-6.26-12.13-13.61-14.1-7.12-1.91-12.52,1.14-17.24,6.07-5.15,5.37-7.78,12.14-10.35,18.93-5,13.12-6,27-8.43,40.65-4.34,23.95-9.61,47.73-14.9,71.5-7.4,33.2-18.35,65.07-37.13,93.8-5,7.64-11.46,13.38-20.48,16-19,5.45-35.34,0-50-12-7.16-5.9-13-13.2-19.26-20-16.86-18.2-34.31-35.73-55.39-49.21a32.17,32.17,0,0,0-16.51-5.09c-9.76-.37-16,5.63-16.17,15.43-.22,12.32,5.13,22.11,14,30.25,1.61,1.48,3.55,2.61,4.47,4.79,7.21,17.16,19.69,30.8,30.54,45.51C317.82,657.05,324.08,666.48,327.09,677.89Z" transform="translate(-111.59 -21.8)" fill="#00205c"/><path d="M240.28,491.59c-.25.2-.95,2.42-1.95,6-5.44,19.64-19.79,80.48-19.79,80.48l165.87,57.6s-6.67-113.92-6.67-117.85S240.28,491.59,240.28,491.59Z" transform="translate(-111.59 -21.8)" fill="#fbb038"/></svg>