<svg id="Layer_1" data-name="Layer 1" xmlns="http://www.w3.org/2000/svg" viewBox="0 0 983.91 1038.84"><path d="M658.06,182c-27.18-42.27-60.79-61.26-98.68-65.26A531.52,531.52,0,0,1,658.06,182ZM180.31,255.67c-28.4,9.59-56.7,16.67-84.35,19.37v781c159.75-12.66,477.48-216.82,555.31-104.92-75.22-122.23-302.56-221.65-471-224.44Z" transform="translate(-26.7 -17.16)" fill="#00205c" fill-rule="evenodd"/><path d="M658.06,182c-43.66-68.43-107.24-94.59-180.88-99.8,61.44,20.57,123.72,52,180.88,99.8ZM180.31,119.29c-53,9.4-105,17-153.61,17v781c167.94,3.16,537.53-91,623.36,31.93-76.53-121.3-302.28-219.7-469.75-222.49Z" transform="translate(-26.7 -17.16)" fill="#1979c1" fill-rule="evenodd"/><path d="M658.06,182C522,19.5,341.55,16.89,123.61,17.17v781c156.87,3,410.83,17.87,508.48,126.14-89.46-109.57-295.85-195-451.78-197.63V48.17C286.06,41.65,493.38,44.45,658.06,182Z" transform="translate(-26.7 -17.16)" fill="#07d3ff" fill-rule="evenodd"/><rect x="701.82" y="194.52" width="163" height="163" transform="translate(230.06 901.13) rotate(-70.06)" fill="#fbb038"/><polygon points="582.12 347.44 680.51 383.09 644.86 481.59 546.46 445.84 582.12 347.44" fill="#00205c"/><polygon points="672.6 521.06 801.63 567.79 754.8 696.91 625.78 650.09 672.6 521.06" fill="#00205c"/><polygon points="879.36 383.75 983.91 421.63 946.02 526.09 841.57 488.29 879.36 383.75" fill="#07d3ff"/><polygon points="424.51 439.97 491.44 464.27 467.14 531.11 400.3 506.91 424.51 439.97" fill="#07d3ff"/><polygon points="500.75 554.29 567.59 578.59 543.39 645.43 476.55 621.23 500.75 554.29" fill="#fbb038"/><rect x="347.74" y="592.82" width="43.47" height="43.47" transform="translate(-360.87 735.5) rotate(-70.09)" fill="#00205c"/></svg>