<svg id="Layer_1" data-name="Layer 1" xmlns="http://www.w3.org/2000/svg" viewBox="0 0 1008.01 631.99"><path d="M503.15,710l22.71-27.47s-80.65-64.1-200.09-117.61-178.09-53.51-178.09-53.51l6.76,76.94,262.9,71.19-257.92-14Z" transform="translate(-21.99 -164.98)" fill="#07d3ff" fill-rule="evenodd"/><path d="M31.62,681.77,525.86,780.7l494.47-99a8.16,8.16,0,0,1,9.52,6.32v.05a8.12,8.12,0,0,1-6.37,9.47L527.69,796.77h0a8.53,8.53,0,0,1-3.38.05L28.47,697.61a8.12,8.12,0,0,1-6.32-9.53h0a8.14,8.14,0,0,1,9.47-6.31Z" transform="translate(-21.99 -164.98)" fill="#00205c" fill-rule="evenodd"/><path d="M525.86,780.7V682.49c-144.69-30.42-294.31-63-439-93.4L49.57,685.37Z" transform="translate(-21.99 -164.98)" fill="#1979c1" fill-rule="evenodd"/><path d="M548.63,710l-22.77-27.47S606.52,618.39,726,564.88s178.1-53.51,178.1-53.51l-6.76,76.94L634.38,659.5l257.93-14Z" transform="translate(-21.99 -164.98)" fill="#07d3ff" fill-rule="evenodd"/><path d="M525.86,780.7V682.49c144.7-30.42,294.38-63,439-93.4l37.28,96.28Z" transform="translate(-21.99 -164.98)" fill="#1979c1" fill-rule="evenodd"/><path d="M595.11,610.25V239.71L456.84,165V610.42c8.37,5.09,16.62,10.3,24.82,15.62,14.68,9.47,29.86,19.61,44.2,30.19,14.35-10.58,29.53-20.72,44.21-30.19,8.25-5.38,16.62-10.64,25-15.79Z" transform="translate(-21.99 -164.98)" fill="#fbb038" fill-rule="evenodd"/><path d="M445.93,603.82V325L314.58,414.2v123c6.65,2.82,13.19,5.7,19.73,8.59a1099.26,1099.26,0,0,1,111.62,58Z" transform="translate(-21.99 -164.98)" fill="#fbb038" fill-rule="evenodd"/><path d="M604.14,409.55V604.82a1099.41,1099.41,0,0,1,113.28-59c6-2.66,12-5.27,18-7.87V483.62Z" transform="translate(-21.99 -164.98)" fill="#fbb038" fill-rule="evenodd"/></svg>