<svg id="Layer_1" data-name="Layer 1" xmlns="http://www.w3.org/2000/svg" viewBox="0 0 950.07 1023.23"><path d="M1000.66,229.11c-70.42,29.81-130.37,53.06-192.16,91.14-1.7,28.21-2.4,52.45-2.55,73.4a672.5,672.5,0,0,1,83.47-50.51c-28.19,82.44-25.89,176.88-23.64,269,2.46,100.53,3.72,154.07-29.47,228.15-68.94,153.92-200,191.53-226.49,203.73,231-18.32,330.16-145.55,315.43-453.14C915.1,379.08,946.18,311.81,1000.66,229.11Z" transform="translate(-50.59 -20.77)" fill="#e6394a"/><path d="M761.15,288.92c10.11-106.54,28.39-133.69,57.79-201.68-52.69,26.24-120.43,55.45-184.79,112.05C602,165.82,536,89.91,525.62,20.77c-10.33,69.14-76.35,145-108.53,178.52C352.73,142.68,285,113.48,232.3,87.24c34,78.78,53.23,102.81,62,259h0c.17,3.25.39,6.2.56,9.56l-.08,0c-81.41-61.27-154.28-88.54-244.18-126.62,54.46,82.7,85.54,150,75.4,361.75C111.25,898.45,210.4,1025.68,441.42,1044c-26.49-12.2-157.55-49.81-226.49-203.73C181.74,766.19,183,712.65,185.45,612.12c2.25-92.1,4.56-186.54-23.64-269,40.65,20.76,89.52,50.32,135.19,91.53h0l.06.05c.26,60.71-2.79,93.09-4.77,115.88-21.76,251.32,43,312.61,153.06,374.15,73.28-153.25,66.56-288.88-10.28-416.29a479.41,479.41,0,0,0-29.66-43.28c-.06,25.7-.31,60.1-7,102.05C459,691.64,448.75,827.67,430.17,881.91c-100.82-77.65-84.61-218.78-78.62-326.18,2.07-37.31,5.79-121.53,2.19-211.06-2.54-45.47-6.95-91.44-14.05-131.07,114.05,82.08,147,176.59,186,274.22C562.49,396,594.9,297.55,711.54,213.6c-10.46,58.53-15.22,130.93-16.44,195a515.57,515.57,0,0,0-78.93,99.83c-76.84,127.41-83.56,263-10.28,416.29C716,863.21,780.71,801.92,758.94,550.6,751,458,754.94,354.34,761.15,288.92Zm-210,5.35c-8.31,12.43-25.12,40.93-25.56,41.74-.45-.81-16.43-27.95-24.29-39.82a492.93,492.93,0,0,0-43.39-56.32c24.58-29.17,47.63-58.11,67.68-90.14,22,31.6,44.74,64.55,67.2,90.64A493.28,493.28,0,0,0,551.18,294.27Zm69.89,587.64c-22.16-64.64-32.85-245.66,74.69-384.49.89,23.38,1.93,35.25,3.93,58.31C708.53,657.78,721.88,804.26,621.07,881.91Z" transform="translate(-50.59 -20.77)" fill="#e6394a"/></svg>