<svg id="Layer_1" data-name="Layer 1" xmlns="http://www.w3.org/2000/svg" viewBox="0 0 1026.9 865.14"><path d="M188.16,808.12c-22.57,7.3-32.4,10.73-47.67,22.2.39,19.16,1.56,39.25,3.18,60.63.84,11.44,12.59,33,41.76,13.86,16.26-10.66,8.12-77.92,36.22-107.19.3-.33.47-.72.77-1C208.67,801.46,197.35,805.16,188.16,808.12Z" transform="translate(-33.83 -57.86)" fill="#a31a17"/><path d="M987.84,528.08c-33.34,4-135.92,4.71-195.74-33.77,1.45,2.49,2.86,5,4.53,7.44,34.86,50.79,88.51,75.91,131.49,88.33a309.29,309.29,0,0,0,57.36-13.59C1024,563.23,1009.14,525.58,987.84,528.08Z" transform="translate(-33.83 -57.86)" fill="#b56224"/><path d="M448.32,144.44c47.34-19.06,109.58,17.26,165,87.66,9.19-4.24,18.42-8.48,27.77-12.67-59.36-75-127.37-113.52-179.71-92.45-19.78,8-35.37,23.77-46.83,45.37C423.64,159.49,434.84,149.85,448.32,144.44Z" transform="translate(-33.83 -57.86)" fill="#b56224"/><path d="M732.68,654c-9.42,38.8-27.82,66.73-55.09,77.72-13.4,5.36-28.11,6.2-43.46,3.16,23,7.74,45,8.39,64.72.44,27.69-11.14,47.15-37.73,58.47-74.27C749.16,658.69,741,656.32,732.68,654Z" transform="translate(-33.83 -57.86)" fill="#b56224"/><path d="M637.59,180C572.58,108.71,499,74.68,439.94,98.41,342.21,137.79,321.73,320.28,394.24,506S604.81,810.39,702.6,771C740,756,766,719.9,779.84,670.76c4.72-16.77,13.52,106-86.45,143.75C585.47,855.24,434.18,725,353.54,518.27S294.14,109.07,401.15,66C471.49,37.63,561.37,85.28,637.59,180Z" transform="translate(-33.83 -57.86)" fill="#f7941e"/><path d="M319.61,516.82c-52.18-133.61-56-265.21-17.69-343.37-48.23,26.83-83.2,135-46.7,281.18l-.18.11c-55.5,31.2-82.13,41.06-139.21,27.15-45.67-11.17-61.08-59.15-64.33-52.61C11.39,509.66,101,570.6,153.45,566.62c-3.61,85.82-55.66,128-78.92,160.67C44,770.16,38.2,828.16,33.88,898.66c-.74,11.45,8,34.41,39.47,19.41C90.92,909.68,92,842,123.81,816.8c28.88-22.86,40.46-21.27,95.51-41.09,62.5-22.49,116.69-62.89,124.31-114.59,4.35,6.84,8.52,13.81,13.19,20.36,77.12,110.68,140,89.43,140,89.43C418.06,723,359.85,619.91,319.61,516.82Z" transform="translate(-33.83 -57.86)" fill="#c12017"/><path d="M960.59,178.62c4.7-17.88,13.4-59.9-7.19-73.31-9.07-5.89-21.26,20.44-48.5,38.81C917.56,148.18,944.63,158.87,960.59,178.62Z" transform="translate(-33.83 -57.86)" fill="#db8035"/><path d="M1000.15,623.07c-42.53-1.36-158.55-19.15-220.63-109.58-59.59-86.79,5.26-181.85,109.88-153.27,167.41,45.72,173.07-42.3,171.07-69.51-49.57-18.26-84.31-21.4-90.63-53C956.22,169,892,163.41,873,156.76c-2.91-10.42-18.39-64.35-46.81-64.9-15-.29-1.78,55.27-45.58,92.45C642,236.32,506,304.58,387.42,373.48a658.31,658.31,0,0,0,90.31,230.84c29.58-1.12,64.58-.08,110.28,2.22,154.11,7.09,267.22,89.08,402.63,64.08C1030.74,663.23,1021.57,623.76,1000.15,623.07ZM910.82,228.36a13.4,13.4,0,1,1-14.61,12.15A13.42,13.42,0,0,1,910.82,228.36Z" transform="translate(-33.83 -57.86)" fill="#db8035"/></svg>