<svg id="Layer_1" data-name="Layer 1" xmlns="http://www.w3.org/2000/svg" viewBox="0 0 1016.59 856.35"><path d="M491.33,193.94l24.79,42.95L597.55,378c4.77,0,9.48-.06,14.16-.06q13.6,0,27.26.21L491.33,122.35,330.12,401.57c15-2.65,30.17-5.09,45.54-7.3l90.85-157.38Z" transform="translate(-35 -65.09)" fill="none"/><path d="M675.67,570.53,619.94,474c-126.18,19.11-234.65,53-312.67,96.54Z" transform="translate(-35 -65.09)" fill="none"/><path d="M491.33,251.21l89.8,155.58q15.21-.29,30.58-.27,39.42,0,77.74,1.74L491.33,65.09,273.62,442.17c37.81-8.62,77.91-15.84,119.85-21.47ZM330.12,401.57,491.33,122.35,639,378.1q-13.63-.23-27.26-.21c-4.68,0-9.39,0-14.16.06L516.12,236.89l-24.79-42.95-24.82,42.95L375.66,394.27C360.29,396.48,345.08,398.92,330.12,401.57Z" transform="translate(-35 -65.09)" fill="#1d2a38"/><path d="M357.81,921.43C245.52,872.09,176.9,806.05,176.9,733.5c0-24.15,7.59-47.57,21.88-69.91H836.87L720.62,462.25c44.23-3.67,90-5.6,136.93-5.6a1628.25,1628.25,0,0,1,182.39,10.06c-3.34-1.08-6.79-2.11-10.19-3.16,3.4,1.05,6.85,2.08,10.19,3.16,3.9.43,7.77.88,11.65,1.35q-15.35-3.88-31.24-7.43h0c-94.78-21.13-203.84-33.23-319.91-33.36h-2.07q-39.63,0-78.08,1.83-12.79.6-25.46,1.4h0c-80.87,5.08-156.89,16-225.29,31.69q-8.86,2-17.55,4.17a940.16,940.16,0,0,0-112.4,34.78C113.5,549.51,35,617.68,35,693.19,35,790.13,164.41,875,357.81,921.43ZM619.94,474l55.73,96.54H307.27C385.29,527,493.76,493.1,619.94,474Z" transform="translate(-35 -65.09)" fill="#f60"/></svg>