<svg id="Layer_1" data-name="Layer 1" xmlns="http://www.w3.org/2000/svg" viewBox="0 0 945.31 945.77"><path d="M387,870.24a124.45,124.45,0,0,0-26.15-137.32l-201-201c35.61,109.42,91.22,202.42,165.62,276.82Z" transform="translate(-69 -24)" fill="none"/><path d="M722.48,260.87l201,201C887.86,352.44,832.25,259.46,757.85,185l-61.51-61.51A124.51,124.51,0,0,0,722.48,260.87Z" transform="translate(-69 -24)" fill="none"/><path d="M305,315.85l201-201c-109.43,35.63-202.42,91.23-276.82,165.64L167.6,342A124.52,124.52,0,0,0,305,315.85Z" transform="translate(-69 -24)" fill="none"/><path d="M778.35,677.92l-201,201c109.43-35.61,202.42-91.23,276.82-165.65l61.55-61.55a124.52,124.52,0,0,0-137.36,26.19Z" transform="translate(-69 -24)" fill="none"/><path d="M337.25,348.14,661.37,24,532.56,59.26c-134,36.67-247,100.24-335.7,188.93L96.93,348.14a170,170,0,0,0,240.32,0Zm-108.1-67.66c74.4-74.41,167.39-130,276.82-165.64l-201,201A124.52,124.52,0,0,1,167.6,342Z" transform="translate(-69 -24)" fill="#f7931e"/><path d="M293.19,841l99.93,99.92a170,170,0,0,0,0-240.32L69,376.51l35.24,128.81C140.91,639.36,204.49,752.32,293.19,841Zm67.63-108.1A124.45,124.45,0,0,1,387,870.24l-61.51-61.51c-74.4-74.4-130-167.4-165.62-276.82Z" transform="translate(-69 -24)" fill="#1d2a38"/><path d="M866.22,595.86a169.44,169.44,0,0,0-120.16,49.79L421.94,969.77l128.81-35.24c134-36.67,247-100.26,335.7-188.95l99.93-99.93a169.53,169.53,0,0,0-120.16-49.79ZM854.16,713.28c-74.4,74.42-167.39,130-276.82,165.65l201-201a124.52,124.52,0,0,1,137.36-26.19Z" transform="translate(-69 -24)" fill="#f7931e"/><path d="M690.19,293.14l324.12,324.12L979.07,488.45c-36.67-134-100.26-247-189-335.7L690.19,52.83A169.92,169.92,0,0,0,690.19,293.14Zm6.15-169.61L757.85,185c74.4,74.42,130,167.4,165.63,276.83l-201-201A124.51,124.51,0,0,1,696.34,123.53Z" transform="translate(-69 -24)" fill="#1d2a38"/></svg>