<svg id="Layer_1" data-name="Layer 1" xmlns="http://www.w3.org/2000/svg" viewBox="0 0 996.51 1007.86"><rect x="194.07" y="307.7" width="191.53" height="191.53" rx="15.17" fill="#0064ad"/><path d="M1035.11,306.26C1035.11,153.84,910.4,29.14,758,29.14h0c-152.42,0-277.12,124.7-277.12,277.12h0v405s554.2-61.71,554.25-404.92v-.05Z" transform="translate(-38.6 -29.14)" fill="#0064ad"/><path d="M38.6,844.15v.05h0c0,106,86.76,192.8,192.8,192.8h0c106,0,192.81-86.76,192.81-192.8h0V562.45S38.65,605.38,38.6,844.15Zm192.8,50.71a50.67,50.67,0,1,1,50.67-50.66A50.81,50.81,0,0,1,231.4,894.86Z" transform="translate(-38.6 -29.14)" fill="#0064ad"/></svg>