<svg id="Layer_1" data-name="Layer 1" xmlns="http://www.w3.org/2000/svg" viewBox="0 0 1010.53 875.15"><path d="M785,74.85H279.74L27.1,512.43,279.74,950H785l252.64-437.57ZM762.69,904.74l-1.91,3.3H304L75.55,512.43,304,116.81h3.82l51.78,89.68L414.72,111H422l-58.8,101.84,27.75,48L477.48,111h9.68L395.78,269.23l25.93,44.91L539,111h14.53L429,326.73l23.51,40.71L600.56,111h19.38L462.17,384.22l21.38,37L662.71,111h24.23L495.67,442.24l18.66,32.32L724.26,111h29.07L528.86,499.74l18,31.14,224.9-389.54,19.39,33.55L566.22,564.44Z" transform="translate(-27.1 -74.85)" fill="#ffb200"/></svg>