<svg id="Layer_1" data-name="Layer 1" xmlns="http://www.w3.org/2000/svg" viewBox="0 0 990.57 831.18"><path d="M425.63,922.66c5.44.68,10.92,1.24,16.42,1.72,84.72-37.62,156.26-99.6,206.21-180.09,48.42-78,72.29-166.5,70.15-256.21L626,395.68C663.56,590.76,589.89,797.26,425.63,922.66Z" transform="translate(-37 -94.82)" fill="#ffb200"/><path d="M392.65,918.39l2.52.48C571.3,793.34,646.84,574.25,597,372.73l-131.6-131.6C571.09,456.09,549.74,721.24,392.65,918.39Z" transform="translate(-37 -94.82)" fill="#ffb200"/><path d="M839,596.56C816.77,697,763.25,787.35,684.19,856.1A489.48,489.48,0,0,1,610.6,909c129.17-37.62,233.74-134.52,281.86-259Z" transform="translate(-37 -94.82)" fill="#ffb200"/><path d="M818.09,581.69l-76-76c-1.19,86.87-25.91,172.08-72.9,247.81A481.24,481.24,0,0,1,484.78,926h.35a430.2,430.2,0,0,0,51-3C678.37,864.86,787.1,738.27,818.09,581.69Z" transform="translate(-37 -94.82)" fill="#ffb200"/><path d="M403.84,185.64,313,94.82c-161,62.24-276,219-276,401.25h0c0,201,139.78,370.88,326.92,417.34C538.3,701.81,547.65,405.57,403.84,185.64Z" transform="translate(-37 -94.82)" fill="#ffb200"/><path d="M1027.57,567.73c0-236.47-193.47-429.93-429.93-429.93h0a426.07,426.07,0,0,0-153.91,28.67L998.9,721.64a426.07,426.07,0,0,0,28.67-153.91Z" transform="translate(-37 -94.82)" fill="#ffb200"/></svg>