<svg id="Layer_1" data-name="Layer 1" xmlns="http://www.w3.org/2000/svg" viewBox="0 0 899.92 999.33"><path d="M606.57,781.82a370.55,370.55,0,0,1-185.72-49.94l71.77-123.69a227.32,227.32,0,0,0,114,30.62c125.48,0,227.57-102.08,227.57-227.56S732.05,183.68,606.57,183.68a227.37,227.37,0,0,0-114,30.62L420.85,90.62A370.39,370.39,0,0,1,606.57,40.67c204.33,0,370.58,166.24,370.58,370.58S810.9,781.82,606.57,781.82Z" transform="translate(-77.23 -40.67)" fill="#0064ad"/><circle cx="456.73" cy="670.63" r="150.82" transform="translate(-417.66 478.71) rotate(-45)" fill="#0064ad"/><path d="M447.2,1040c-204,0-370-166-370-370s166-370,370-370a369,369,0,0,1,285.46,134.6l-110.29,91A226.43,226.43,0,0,0,447.2,443.06c-125.15,0-227,101.82-227,227s101.82,227,227,227a224.81,224.81,0,0,0,165.43-71.57l104.21,97.94A371.43,371.43,0,0,1,447.2,1040Z" transform="translate(-77.23 -40.67)" fill="#0064ad"/></svg>