<svg id="Layer_1" data-name="Layer 1" xmlns="http://www.w3.org/2000/svg" viewBox="0 0 989.09 856.46"><polygon points="469.47 428.23 475.74 417.37 605.64 192.4 494.54 0 247.27 428.23 494.54 856.46 605.64 664.05 475.74 439.09 469.47 428.23" fill="#423148"/><polygon points="339.56 631.49 247.27 791.32 37.61 428.23 247.27 65.14 339.56 224.97 358.37 192.4 247.27 0 0 428.23 247.27 856.46 358.37 664.05 339.56 631.49" fill="#423148"/><polygon points="736.18 375.91 736.38 376.03 736.38 306.96 580.45 577.01 600.26 611.31 736.18 375.91" fill="#423148"/><polygon points="736.18 281.48 736.38 281.6 736.38 212.53 553.19 529.79 573 564.09 736.18 281.48" fill="#423148"/><polygon points="518.47 469.66 736.18 92.62 736.38 92.74 736.38 9.4 494.54 428.23 518.47 469.66" fill="#423148"/><polygon points="736.18 187.05 736.38 187.17 736.38 118.1 525.93 482.58 545.73 516.88 736.18 187.05" fill="#423148"/><polygon points="747.24 9.4 747.24 847.06 989.09 428.23 747.24 9.4" fill="#423148"/><polygon points="736.18 470.34 736.38 470.46 736.38 401.39 607.72 624.22 627.52 658.52 736.18 470.34" fill="#423148"/><polygon points="736.18 564.77 736.38 564.89 736.38 495.82 634.98 671.44 654.79 705.74 736.18 564.77" fill="#423148"/><polygon points="736.38 757.15 710.43 802.1 736.38 847.05 736.38 757.15" fill="#423148"/><polygon points="702.97 789.19 736.18 731.67 736.38 731.79 736.38 684.68 689.51 765.87 702.97 789.19 702.97 789.19" fill="#423148"/><polygon points="736.18 659.2 736.38 659.32 736.38 590.25 662.24 718.65 682.05 752.95 736.18 659.2" fill="#423148"/></svg>