<svg id="Layer_1" data-name="Layer 1" xmlns="http://www.w3.org/2000/svg" viewBox="0 0 892.77 1014.12"><path d="M93.55,16.88S450,151.44,442.41,346.16h.12V675.44S86.1,540.88,93.67,346.16h-.12Z" transform="translate(-93.55 -16.88)" fill="#423148"/><path d="M759.92,598.39A487.49,487.49,0,0,1,986.32,515V411.84a464.43,464.43,0,0,0-226.4,186.55Z" transform="translate(-93.55 -16.88)" fill="#423148"/><path d="M719.43,629.41A484.16,484.16,0,0,1,986.32,390.2V93.2S478.76,284.82,489.53,562.1h-.17V1031s22.65-8.56,58.21-24.63c-.14-15,.35-30.16,1.6-45.34C560.2,827.21,624.5,710.32,719.43,629.41Z" transform="translate(-93.55 -16.88)" fill="#423148"/><path d="M671.19,803.62a486.58,486.58,0,0,1,17.74-96A452.51,452.51,0,0,0,582.81,963.81c-.74,8.94-1.14,17.85-1.35,26.74,28.83-13.88,62.37-31.14,97.61-51.46A484.4,484.4,0,0,1,671.19,803.62Z" transform="translate(-93.55 -16.88)" fill="#423148"/><path d="M691.38,805.29a464,464,0,0,0,6.25,122.91c138.69-83,294.54-211.14,288.52-366.1h.17V548.9A455.21,455.21,0,0,0,722.47,672.12,463.41,463.41,0,0,0,691.38,805.29Z" transform="translate(-93.55 -16.88)" fill="#423148"/></svg>