<svg id="Layer_1" data-name="Layer 1" xmlns="http://www.w3.org/2000/svg" viewBox="0 0 739.59 987.71"><path d="M746.39,587.84V750.06H336.8a163.71,163.71,0,0,1-31.29-2.95c-1.45-.3-2.9-.64-4.35-.93a166.61,166.61,0,0,1-130.75-162.4V22.29c82.29,46.83,135.1,135.16,135.1,232V520a95.1,95.1,0,0,0,95,95H679.91A94.73,94.73,0,0,0,746.39,587.84Z" transform="translate(-170.41 -22.29)" fill="#1d2a38"/><path d="M910,22.29V335.72a200.21,200.21,0,0,0-128.49-84.67c-2.15-.41-4.29-.81-6.49-1.1C776.53,154.78,829,68.42,910,22.29Z" transform="translate(-170.41 -22.29)" fill="#1d2a38"/><path d="M910,448.63V1010c-82.24-46.83-135-135.16-135-232V512.32a95.18,95.18,0,0,0-95.05-95.05H400.55a94.71,94.71,0,0,0-66.47,27.18V282.23H743.66a163.81,163.81,0,0,1,31.3,2.95C851.75,299.85,910,367.54,910,448.63Z" transform="translate(-170.41 -22.29)" fill="#e74011"/><path d="M305.45,782.34c-1.51,95.17-54,181.53-135,227.66V696.45a201.15,201.15,0,0,0,48.1,49.79,199,199,0,0,0,75.17,33.9l.93.23,4.29.87C301,781.65,303.24,782.05,305.45,782.34Z" transform="translate(-170.41 -22.29)" fill="#e74011"/></svg>