<svg id="Layer_1" data-name="Layer 1" xmlns="http://www.w3.org/2000/svg" viewBox="0 0 996.95 996.96"><path d="M847.08,138.23l.13.1-.14-.11c-.82-.7-1.67-1.37-2.51-2h0C845.39,136.86,846.25,137.53,847.08,138.23Z" transform="translate(-34.78 -27.04)" fill="#fffaf7"/><path d="M835.92,129.43l.08.06,0,0c2.82,2.14,5.64,4.34,8.32,6.52l0,0,0,0c-2.7-2.17-5.5-4.36-8.32-6.52l-.07-.06-.07-.05c-.74-.58-1.51-1.15-2.27-1.73l-.93-.7.92.7C834.42,128.28,835.17,128.84,835.92,129.43Z" transform="translate(-34.78 -27.04)" fill="#fffaf7"/><path d="M831.78,126.28l-.13-.1.08.06-.11-.08,0,0Z" transform="translate(-34.78 -27.04)" fill="#fffaf7"/><polygon points="796.67 98.99 796.54 98.89 794.96 97.72 796.53 98.9 796.67 98.99" fill="#fffaf7"/><path d="M825.11,121.39l1.23.87-1.22-.87-.88-.63h0v0Z" transform="translate(-34.78 -27.04)" fill="#fffaf7"/><path d="M824.15,120.69l-.06,0c-.84-.61-1.68-1.22-2.54-1.81.85.59,1.7,1.19,2.54,1.82Z" transform="translate(-34.78 -27.04)" fill="#fffaf7"/><path d="M814.2,113.7l-.08,0-2.82-1.92c.94.64,1.88,1.28,2.81,1.93Z" transform="translate(-34.78 -27.04)" fill="#fffaf7"/><path d="M615.27,33.78h0c-2-.34-4-.66-6-1-.94-.15-1.86-.28-2.8-.41l2.79.41C611.27,33.11,613.28,33.43,615.27,33.78Z" transform="translate(-34.78 -27.04)" fill="#fffaf7"/><path d="M806.3,108.42l-.23-.15h0Z" transform="translate(-34.78 -27.04)" fill="#fffaf7"/><path d="M744.4,73.85l.07,0-.06,0c-5.06-2.37-9.7-4.45-14.17-6.35l-.12,0,.12.06C734.71,69.4,739.35,71.47,744.4,73.85Z" transform="translate(-34.78 -27.04)" fill="#fffaf7"/><path d="M801.88,105.56c1,.64,2,1.3,3,2-1-.66-2-1.32-3-2l-.16-.1,0,0h0Z" transform="translate(-34.78 -27.04)" fill="#fffaf7"/><path d="M684.37,50.37c-1.19-.39-2.4-.78-3.62-1.15s-2.49-.76-3.74-1.13c1.25.37,2.49.75,3.73,1.14S683.16,50,684.37,50.37Z" transform="translate(-34.78 -27.04)" fill="#fffaf7"/><path d="M665.52,44.79l-1.65-.45-.34-.09.34.1Z" transform="translate(-34.78 -27.04)" fill="#fffaf7"/><polygon points="631.97 18.09 631.94 18.08 631.87 18.06 631.94 18.08 631.97 18.09" fill="#fffaf7"/><path d="M726.1,65.73l.46.18c1.1.46,2.17.91,3.25,1.4l.11,0-.11,0c-1.07-.48-2.15-.94-3.24-1.39l-.47-.19-.31-.14-.07,0,.06,0Z" transform="translate(-34.78 -27.04)" fill="#fffaf7"/><polygon points="751.79 69.08 751.78 69.07 751.79 69.07 751.79 69.08" fill="#fffaf7"/><path d="M789.3,97.75l2.52,1.53c1.61.94,3.19,1.93,4.75,2.93l.22.13,0,0,0,0-.19-.12c-1.56-1-3.16-2-4.75-2.94l-2.53-1.52,0,0L788.11,97l1.16.69Z" transform="translate(-34.78 -27.04)" fill="#fffaf7"/><path d="M850.94,141.39l.4.33-.4-.34c-1.14-.95-2.26-1.86-3.37-2.76l-.17-.14.16.15C848.69,139.52,849.79,140.43,850.94,141.39Z" transform="translate(-34.78 -27.04)" fill="#fffaf7"/><path d="M782.17,93.57c1.15.66,2.29,1.31,3.43,2l-3.42-2-.87-.5-1.18-.68,1.18.68Z" transform="translate(-34.78 -27.04)" fill="#fffaf7"/><path d="M745.25,74.26l4.27,2c1.64.76,3.25,1.53,4.83,2.37l.16.07.06,0-.07,0-.16-.08c-1.59-.81-3.19-1.58-4.82-2.36l-4.27-2h0l-.38-.18c.12.06.26.11.37.18Z" transform="translate(-34.78 -27.04)" fill="#fffaf7"/><path d="M708.37,58.67c3.63,1.34,7.57,2.9,12.37,4.83l1,.39-1-.4c-4.8-1.94-8.73-3.47-12.36-4.82l-2.17-.8-.3-.11.3.11Z" transform="translate(-34.78 -27.04)" fill="#fffaf7"/><polygon points="4.64 430.28 4.6 430.49 4.58 430.69 4.62 430.49 4.64 430.28" fill="#fffaf7"/><polygon points="4.52 431.2 4.48 431.51 4.47 431.57 4.48 431.51 4.52 431.2" fill="#fffaf7"/><path d="M40,453.11c.11-.86.24-1.72.37-2.57l.1-.62-.1.62c-.13.85-.26,1.71-.37,2.57v.14l0-.06Z" transform="translate(-34.78 -27.04)" fill="#fffaf7"/><path d="M39.92,453.77c-.07.51-.14,1-.22,1.53l-.19,1.35.2-1.34C39.78,454.78,39.85,454.28,39.92,453.77Z" transform="translate(-34.78 -27.04)" fill="#fffaf7"/><path d="M37.86,470c.07-.57.13-1.13.2-1.7-.07.57-.14,1.13-.2,1.7V470l0,.07,0-.07Z" transform="translate(-34.78 -27.04)" fill="#fffaf7"/><path d="M35.55,497.93c-.06,1-.11,2-.16,3V501l0-.1C35.44,499.9,35.49,498.91,35.55,497.93Z" transform="translate(-34.78 -27.04)" fill="#fffaf7"/><path d="M36.61,482.69l-.15,1.7c0,.29,0,.58-.07.87,0-.29,0-.58.08-.87C36.51,483.82,36.56,483.26,36.61,482.69Z" transform="translate(-34.78 -27.04)" fill="#fffaf7"/><path d="M36.12,489c0-.25,0-.51.05-.76l-.06.77c-.15,1.84-.28,3.77-.4,6v0C35.82,492.73,36,490.8,36.12,489Z" transform="translate(-34.78 -27.04)" fill="#fffaf7"/><path d="M498.25,28.26c1.1-.07,2.22-.1,3.33-.17C500.47,28.16,499.35,28.19,498.25,28.26Z" transform="translate(-34.78 -27.04)" fill="#fffaf7"/><path d="M457.1,32.83h0l.08,0Z" transform="translate(-34.78 -27.04)" fill="#fffaf7"/><path d="M295.14,693.12c.21.47.44.93.65,1.4C295.58,694.05,295.35,693.59,295.14,693.12Z" transform="translate(-34.78 -27.04)" fill="#fffaf7"/><path d="M552,27.42c11.26.42,22.51,1.19,33.67,2.35C574.53,28.61,563.28,27.84,552,27.42Z" transform="translate(-34.78 -27.04)" fill="#fffaf7"/><path d="M637.61,38.07c3.18.68,6.33,1.39,9.48,2.12C643.94,39.46,640.79,38.75,637.61,38.07Z" transform="translate(-34.78 -27.04)" fill="#fffaf7"/><path d="M755.13,79c7.24,3.61,14.45,7.41,21.52,11.36C769.58,86.44,762.36,82.63,755.13,79Z" transform="translate(-34.78 -27.04)" fill="#fffaf7"/><path d="M858,147.37c-1-.82-1.9-1.64-2.89-2.46l-1.94-1.62,1.93,1.62C856.13,145.73,857.07,146.55,858,147.37Z" transform="translate(-34.78 -27.04)" fill="#fffaf7"/><path d="M370.15,244.51A412.45,412.45,0,0,1,578,123.56a411.76,411.76,0,0,0-207.87,121Z" transform="translate(-34.78 -27.04)" fill="#fffaf7"/><path d="M458.87,878.87h0A415.39,415.39,0,0,1,301.77,707.28a415.26,415.26,0,0,0,157.1,171.59Z" transform="translate(-34.78 -27.04)" fill="#fffaf7"/><path d="M34.81,521.38h0c0,.56,0,1.1,0,1.65v1.46c0-.49,0-1,0-1.46Z" transform="translate(-34.78 -27.04)" fill="#fffaf7"/><path d="M141.78,781.27A357,357,0,0,1,34.83,530.93l0-1.34V528c0-.48,0-1,0-1.43V528c0,.53,0,1.06,0,1.59l0,1.35A359.21,359.21,0,0,0,394,884.71a363.6,363.6,0,0,0,44.89-2.84A363.8,363.8,0,0,1,394,884.7,357,357,0,0,1,141.78,781.27Z" transform="translate(-34.78 -27.04)" fill="#fffaf7"/><path d="M869.15,157.22l.17.16c.88.79,1.75,1.6,2.63,2.43-.88-.83-1.75-1.63-2.63-2.44l-.17-.16L868,156.16l-.56-.5.57.51Z" transform="translate(-34.78 -27.04)" fill="#fffaf7"/><polygon points="842.78 138.04 842.59 137.87 842.51 137.79 842.59 137.88 842.78 138.04" fill="#fffaf7"/><path d="M882.46,169.83a.32.32,0,0,1,.1.1l.05,0-.14-.13-1.77-1.73c-.78-.77-1.59-1.53-2.39-2.28l2.38,2.27Z" transform="translate(-34.78 -27.04)" fill="#fffaf7"/><path d="M875,162.68c-.77-.72-1.49-1.43-2.3-2.17l-.1-.09.09.1C873.51,161.25,874.24,162,875,162.68Z" transform="translate(-34.78 -27.04)" fill="#fffaf7"/><path d="M35.37,501.21v.07c0,.11,0,.22,0,.33,0-.1,0-.21,0-.32Z" transform="translate(-34.78 -27.04)" fill="#fffaf7"/><polygon points="0.54 475.53 0.54 475.57 0.54 475.59 0.54 475.56 0.54 475.53" fill="#fffaf7"/><path d="M34.91,515.24v-.68c0-.32,0-.64,0-.94,0-1.95.08-3.86.16-5.9l.06-1.42c0,.47,0,.94-.06,1.41-.08,2.05-.13,4-.17,5.91,0,.31,0,.63,0,.94v.69c0,1.59-.06,3.18-.07,4.79l0,.9,0-.9C34.83,518.43,34.86,516.85,34.91,515.24Z" transform="translate(-34.78 -27.04)" fill="#fffaf7"/><path d="M40.55,449.46l-.07.46-.1.62c-.13.85-.26,1.71-.37,2.57v.08l0,.06v0l-.06.5c-.07.51-.14,1-.21,1.54l-.2,1.34,0,.24,0,.41v0l0,.21,0,.2,0,.09-.05.41,0,.32v.05l0,.22c-.21,1.63-.43,3.29-.64,5-.17,1.46-.34,3-.5,4.47-.07.57-.13,1.13-.2,1.7V470l0,.07v0c-.22,1.8-.41,3.62-.59,5.42-.14,1.34-.24,2.7-.38,4.07v.14l-.13,1.34c-.06.53-.09,1.07-.13,1.6s-.1,1.13-.14,1.7c0,.29,0,.58-.08.87,0,.44-.08.87-.11,1.3s-.07,1.09-.11,1.63c0,.25,0,.51-.05.76-.16,1.85-.3,3.78-.4,6v0l0,0v.08c0,1-.09,1.89-.14,2.84s-.11,2-.15,2.95l0,.1v.31c0,.11,0,.22,0,.32s0,.43,0,.67v.35l0,.32c-.06,1.11-.09,2.23-.13,3.35l-.06,1.42c-.08,2-.13,3.95-.16,5.9,0,.3,0,.62,0,.94v.68c0,1.61-.08,3.19-.08,4.8l0,.9V523c0,.48,0,1,0,1.46s0,.69,0,1,0,.68,0,1,0,.95,0,1.43v1.59l0,1.34A359.19,359.19,0,0,0,394,884.7a363.8,363.8,0,0,0,44.88-2.83c6.71-.83,13.4-1.78,20-3h0a415.26,415.26,0,0,1-157.1-171.59c-2.08-4.22-4-8.48-6-12.76-.21-.47-.44-.93-.65-1.4a413.43,413.43,0,0,1,38.64-403.55,418.13,418.13,0,0,1,36.37-45.06A413.17,413.17,0,0,1,882.59,170s0,0,0,0a.32.32,0,0,0-.1-.1l-1.77-1.75-2.38-2.27-.73-.7,0,0-.2-.17-.07-.08-.12-.14c-.67-.65-1.44-1.34-2.16-2s-1.5-1.43-2.31-2.16l-.09-.1-.08-.09-.18-.16-.4-.36c-.88-.83-1.75-1.64-2.63-2.43l-.17-.16L868,156.17l-.57-.51c-1.28-1.16-2.54-2.31-3.8-3.43-1.45-1.29-2.85-2.49-4.24-3.7-.44-.39-.92-.77-1.36-1.16-1-.82-1.9-1.64-2.9-2.46l-1.93-1.62-1.05-.88,0,0-.78-.64-.4-.33c-1.15-1-2.25-1.87-3.38-2.76l-.16-.15-.08-.06-.11-.09-.13-.1c-.83-.7-1.69-1.37-2.52-2h0l-.07-.08-.06,0,0,0c-2.68-2.18-5.5-4.38-8.32-6.52l0,0-.08-.06c-.75-.59-1.5-1.15-2.28-1.74l-.92-.7-.55-.43-.39-.28-.13-.09,0,0-.1-.08-.07,0-.14-.09-1.58-1.18-.57-.42L827,122.75c-.23-.16-.46-.32-.68-.49l-1.23-.87-.86-.62v0l0,0-.05,0-.06,0c-.84-.63-1.69-1.23-2.54-1.82l-.6-.43-.24-.17-.21-.15-6.23-4.35,0,0h0l-.09,0c-.93-.65-1.87-1.29-2.81-1.93l-.67-.46,0,0-.08,0c-1.4-.91-2.8-1.85-4.22-2.77l-.24-.15h0l-.1-.07-.14-.08-.9-.59c-1-.66-2-1.32-3-2l-.16-.11h0l-.15-.1c-1.5-1-3-1.93-4.59-2.89l-.16-.09,0,0-.22-.13c-1.56-1-3.14-2-4.75-2.93l-2.52-1.53,0,0L788.11,97l-1.44-.86-.1,0h0l-.08,0c-.29-.17-.59-.33-.88-.51-1.14-.67-2.28-1.32-3.43-2l-.86-.51-1.18-.68c-1.06-.61-2.11-1.23-3.17-1.82l-.31-.16c-7.07-4-14.28-7.75-21.52-11.36l-.49-.25-.07,0-.06,0-.16-.07c-1.58-.84-3.19-1.61-4.83-2.37l-4.27-2,0,0c-.11-.07-.25-.12-.37-.18l-.25-.12-.11-.05h0l-.07,0c-5-2.38-9.69-4.45-14.16-6.35l-.12-.06-.1,0-.1,0-.11,0c-1.08-.49-2.15-.94-3.25-1.4l-.46-.18-.32-.14-.06,0h0l-1.93-.81-2.07-.84-1-.39c-4.8-1.93-8.74-3.49-12.37-4.83l-2.17-.8-.3-.11-2.28-.86c-6.08-2.2-12.41-4.37-18.77-6.38l-.08,0-.08,0-.32-.09c-1.21-.4-2.42-.77-3.63-1.14s-2.48-.77-3.73-1.14l-2.22-.69c-2.76-.8-5.39-1.55-7.91-2.25l-.13,0h0l-.07,0-.1,0-1-.28-1.65-.44-.34-.1L663,44.1c-5.23-1.4-10.59-2.66-15.95-3.91-3.15-.73-6.3-1.44-9.48-2.12-5.35-1.14-10.7-2.27-16.09-3.24-2-.35-4-.7-6-1l-.11,0h-.13c-2-.35-4-.67-6-1l-2.79-.41L603,31.87q-8.6-1.19-17.29-2.1c-11.16-1.16-22.41-1.93-33.67-2.35-6.26-.24-12.52-.38-18.78-.38-10.54,0-21.12.39-31.66,1.05-1.11.07-2.23.1-3.33.17-11.66.81-23.27,2-34.75,3.61l-6.17.92-.16,0-.08,0h0L40.57,449.33Z" transform="translate(-34.78 -27.04)" fill="#6b4b94"/><path d="M1026.07,601l.06-.37,0-.4c.11-.7.22-1.43.29-2.12l0-.16,0-.27,0-.3c.14-.91.3-1.85.4-2.76l.06-.62.11-.61c0-.3.08-.59.13-.86l.38-3.12.29-2.14c.27-2.07.48-4,.7-5.93l0-.27c.22-1.85.41-3.59.57-5.36.13-1.48.29-2.87.4-4.24v-.08l.13-1.34c.11-1,.19-2,.25-2.93l0-.37,0-.38c.13-1.26.21-2.52.29-3.78v-.18l0-.33c.16-1.82.3-3.75.4-5.92V556c.14-2,.24-3.86.35-5.74l0-.56v-.78l0-.78c.1-1.58.16-3.19.21-4.8.08-2.17.14-4.24.19-6.3l0-.27v-.94c0-1.48.06-3,.06-4.48v-1.69l0-.27c0-1.29,0-2.57,0-3.83s0-2.71,0-4v-.11l0-1.28A359.14,359.14,0,0,0,672.54,166.34a363.52,363.52,0,0,0-64.92,5.82,413,413,0,0,1-423.7,709l.11.11.29.26.27.27a8.47,8.47,0,0,0,.91.89l1,1c.81.81,1.61,1.59,2.44,2.37l.14.13.16.13c1.34,1.29,2.92,2.82,4.48,4.24l.24.19.22.21c1,1,2,1.94,3.08,2.87l.08.08.11.09q2.69,2.49,5.5,4.93l.1.08.11.11c1.21,1.07,2.41,2.14,3.65,3.22l.24.18.81.7.07,0,3.55,3.06.72.61.16.16c1,.81,1.91,1.62,2.9,2.39l.37.3.35.32c.83.72,1.77,1.47,2.82,2.31l.35.26.32.27c.75.65,1.5,1.26,2.23,1.8l.24.19.21.18c2.66,2.15,5.42,4.3,8.21,6.41.59.49,1.21.94,1.8,1.4s1.36,1,2.06,1.56c.4.29.78.56,1.13.85l.67.49c1.1.83,2.23,1.66,3.35,2.49l1,.75,1.69,1.21.21.16.24.16c.81.62,1.67,1.21,2.5,1.8l.91.64c2,1.45,4.13,2.9,6.22,4.35l.19.11.19.13c.91.64,1.85,1.26,2.76,1.88l.7.45,2.31,1.53,2.44,1.64c1.23.8,2.52,1.66,3.83,2.47s2.61,1.66,3.87,2.46h3.16l5.66,5.39c.86.54,1.74,1.08,2.63,1.59,1.72,1,3.46,2,5.2,3l.16.11.17.11c1.36.8,2.73,1.55,4.13,2.33,7.35,4.16,14.8,8.1,22.26,11.78,1.66.83,3.3,1.63,4.94,2.41.24.14.48.24.72.38,1.56.72,3.09,1.44,4.64,2.2,4.7,2.19,9.5,4.34,14.19,6.35l.11,0,.1,0c1.16.51,2.36,1,3.52,1.5.35.14.72.3,1.13.49,1.55.64,3.11,1.29,4.69,1.93,3.84,1.56,8,3.17,12.34,4.8l.13.05.14.06c1.34.51,2.68,1,4.05,1.5l.18,0,.16.06c6.36,2.33,12.67,4.48,18.73,6.38l.21.08.19.06c1.24.42,2.44.8,3.68,1.18l.18,0,.17.06c1.85.59,3.7,1.15,5.55,1.71l1.55.46c2.23.62,4.43,1.26,6.63,1.88,1.23.35,2.33.64,3.43.94l.27.05c13.73,3.7,27.71,6.81,41.5,9.25l.16.06.16,0c1.66.3,3.46.62,5.71,1h.13l.11,0c2.23.38,4.08.67,5.77.91l.27,0,.27.06c1.93.32,3.88.59,5.82.86l.16,0a505.9,505.9,0,0,0,139.48,0l.48-.08c1.85-.27,3.68-.51,5.5-.8l.27-.06.19,0L1026,601.69A6.38,6.38,0,0,1,1026.07,601Z" transform="translate(-34.78 -27.04)" fill="#1d2a38"/></svg>