<svg id="Layer_1" data-name="Layer 1" xmlns="http://www.w3.org/2000/svg" viewBox="0 0 1013.93 1013.93"><polygon points="623.98 582.04 623.97 389.95 431.91 389.96 410.94 389.96 389.96 389.96 389.96 431.91 389.95 623.97 603 623.97 623.98 623.98 623.98 603.01 623.98 582.04" fill="none"/><path d="M951.31,128.42A343.89,343.89,0,0,0,369.52,312.33q-1.81,10.49-3,21.14-1.15,10.47-1.66,21.1c-.29,5.62-.42,11.27-.42,16.93v88.82l0,255,255,0h42.07c.35-5.72.53-11.51.54-17.34V651.72H428l0-192.06V417.7l0-46.2c0-5.83.19-11.61.55-17.33q.65-10.62,2.09-21,1.44-10.67,3.72-21A280.73,280.73,0,0,1,708.24,91.28C862.75,91.3,988.45,217,988.46,371.5A280.68,280.68,0,0,1,767.55,645.36v52.55c0,4.12-.06,8.25-.18,12.31a343.83,343.83,0,0,0,183.95-581.8Z" transform="translate(-38.07 -27.74)" fill="#bccf00"/><path d="M428,417.7H662V697.91c0,5.83-.19,11.62-.54,17.34-.44,7.08-1.12,14.07-2.1,21q-1.42,10.63-3.69,21A280.74,280.74,0,0,1,381.83,978.13c-154.5,0-280.2-125.71-280.22-280.22A280.74,280.74,0,0,1,322.54,424V371.5c0-4.15,0-8.27.19-12.32A343.81,343.81,0,1,0,725.18,714.85c.13-2.75.24-5.49.31-8.23,0-1.49.06-3,.07-4.47s0-2.81,0-4.24h0V354.14h-297c-.36,5.72-.53,11.5-.55,17.33Z" transform="translate(-38.07 -27.74)" fill="#1d2a38"/></svg>