<svg id="Layer_1" data-name="Layer 1" xmlns="http://www.w3.org/2000/svg" viewBox="0 0 1017.46 824.15"><polygon points="344.25 557.73 523.07 557.73 259.66 267.7 80.85 267.7 344.25 557.73" fill="none"/><polygon points="673.19 266.44 494.4 266.44 757.79 556.46 936.61 556.46 673.19 266.44" fill="none"/><path d="M307.05,353H31.54l328.4,361.61H635.45ZM112.38,388.74H291.22l263.39,290H375.77Z" transform="translate(-31.54 -121.05)" fill="#bccf00"/><path d="M584.29,121.05,307.05,339H31.54l60.67-47.69A796.24,796.24,0,0,1,584.29,121.05Z" transform="translate(-31.54 -121.05)" fill="#1d2a38"/><path d="M720.6,351.68H445.08l328.4,361.61H1049ZM525.93,387.47H704.72l263.43,290H789.32Z" transform="translate(-31.54 -121.05)" fill="#bccf00"/><path d="M1049,727.23l-60.67,47.68A796.48,796.48,0,0,1,496.25,945.2l277.23-218Z" transform="translate(-31.54 -121.05)" fill="#1d2a38"/></svg>