<svg id="Layer_1" data-name="Layer 1" xmlns="http://www.w3.org/2000/svg" viewBox="0 0 989.72 686.43"><polygon points="282.96 686.43 282.91 686.33 257.02 641.5 51.78 286.01 0 286.01 231.13 686.35 231.08 686.43 231.18 686.43 282.84 686.43 282.96 686.43" fill="#1d2a38"/><polygon points="490 686.43 489.95 686.33 464.06 641.5 438.19 596.69 412.3 551.86 386.43 507.03 360.54 462.2 258.82 286.01 207.06 286.01 334.65 507.03 360.54 551.86 386.43 596.69 412.3 641.5 438.19 686.33 438.13 686.43 438.24 686.43 489.88 686.43 490 686.43" fill="#1d2a38"/><polygon points="567.58 641.5 541.71 596.69 515.82 551.86 489.95 507.03 464.06 462.2 438.19 417.38 412.3 372.55 362.34 286.01 310.58 286.01 386.41 417.37 438.19 507.03 464.06 551.86 489.95 596.69 515.82 641.5 541.71 686.33 541.64 686.43 541.76 686.43 593.42 686.43 593.52 686.43 593.47 686.35 567.58 641.5" fill="#1d2a38"/><polygon points="679.16 0 627.38 0 438.45 327.26 464.34 372.09 679.16 0" fill="#e5005b"/><polygon points="334.72 686.43 386.36 686.43 386.48 686.43 386.43 686.33 360.54 641.5 334.67 596.69 308.78 551.86 155.3 286.01 103.54 286.01 282.89 596.67 308.78 641.5 334.67 686.33 334.6 686.43 334.72 686.43" fill="#1d2a38"/><polygon points="516.1 461.74 782.68 0 730.92 0 490.21 416.91 490.49 417.38 516.1 461.74" fill="#e5005b"/><polygon points="567.86 551.4 886.2 0 834.44 0 541.97 506.55 542.25 507.03 567.86 551.4" fill="#e5005b"/><polygon points="989.72 0 937.96 0 593.73 596.22 594.01 596.69 619.62 641.05 989.72 0" fill="#e5005b"/></svg>