<svg id="Layer_1" data-name="Layer 1" xmlns="http://www.w3.org/2000/svg" viewBox="0 0 867.26 1022.4"><path d="M916.76,769.23a400.07,400.07,0,0,1-48.08,67.41l.51.5-17,17.08c-75.8,76.27-176.77,118.29-284.27,118.29-107.07,0-207.74-41.71-283.45-117.42A398.27,398.27,0,0,1,167.05,571.65c0-7.89.24-15.93.72-23.89,0-1.08.12-2.19.19-3.33l0-.31c0-.73.09-1.45.14-2.2l0-.36c.12-1.64.26-3.31.41-5,.12-1.35.24-2.8.38-4.24.22-2.13.44-4.3.68-6.47.14-1.25.29-2.65.48-4,.19-1.76.46-3.74.72-5.72.17-1.11.32-2.17.49-3.25.24-1.81.55-3.82.89-5.82.17-1.06.36-2.24.55-3.4.17-1,.34-2,.54-3,.21-1.28.48-2.75.74-4.17.24-1.25.51-2.63.77-4,.32-1.57.63-3.14,1-4.73,2.3-10.93,5.12-21.91,8.35-32.6l.1-.29c.41-1.4.84-2.82,1.3-4.22.36-1.18.75-2.41,1.16-3.64,2.26-7,4.8-14.07,7.48-20.92.36-.94.74-1.95,1.15-2.94s.85-2.15,1.31-3.26c.53-1.32,1.13-2.77,1.76-4.24.46-1.12,1-2.34,1.52-3.58l.24-.55c.75-1.66,1.47-3.33,2.22-5,.55-1.23,1.11-2.44,1.69-3.67a397.22,397.22,0,0,1,36.4-62.68l2.27-3.13c1.59-2.2,3.19-4.35,4.78-6.47.77-1,1.56-2.08,2.39-3.11q2.64-3.4,5.3-6.73c1-1.28,2.1-2.61,3.19-3.89s2.07-2.48,3.16-3.78,2.17-2.56,3.28-3.82c1.23-1.42,2.49-2.87,3.76-4.29L221.55,257.9a464.87,464.87,0,0,0-121,313.75c0,124.84,48.61,242.19,136.88,330.46S443.06,1039,567.91,1039c125.23,0,242.87-48.9,331.19-137.66a469.29,469.29,0,0,0,66.18-83.59Z" transform="translate(-100.56 -16.6)" fill="#1d2a38"/><path d="M318.67,820.88A350.14,350.14,0,0,0,567.91,924.11q4.41,0,8.85-.12c1.47,0,2.9-.07,4.35-.12h.21c2.18-.09,4.32-.19,6.5-.31,1.73-.1,3.44-.19,5.16-.31l2.36-.17,1.18-.1c1.57-.12,3.19-.26,4.78-.43,1.42-.12,2.75-.25,4.1-.39l2.66-.29,1.78-.19c1.16-.15,2.32-.29,3.5-.46,4.34-.53,8.64-1.16,12.81-1.86,1.18-.19,2.34-.41,3.5-.6l.38-.07,2.75-.49.46-.09c1.21-.22,2.42-.46,3.6-.7,3.18-.63,6.27-1.25,9.36-2,2.07-.45,4.15-1,6.2-1.47l.26-.07c.53-.12,1-.24,1.57-.39,1.55-.38,2.92-.74,4.3-1.11,1.2-.31,2.33-.6,3.45-.91l2.67-.75c.82-.24,1.48-.41,2.1-.6l.48-.15c.87-.24,1.74-.5,2.61-.77,1.45-.43,2.73-.82,4-1.23l2.87-.89c3-1,5.89-2,8.81-3,.82-.28,1.59-.55,2.34-.84l.58-.19c1-.36,2-.7,2.84-1.06,1.45-.53,2.75-1,4.06-1.55,1.11-.41,2-.77,3-1.15l5.07-2.06,4.89-2.09c1.55-.66,3-1.31,4.49-2l2.34-1.07.7-.31,3.62-1.71c7.4-3.52,14.71-7.33,21.78-11.34l2.22-1.28c1.64-.94,3.26-1.9,4.88-2.84l8.05-5c3.57-2.26,7.24-4.7,11.22-7.43l3.28-2.31.46-.32c.82-.57,1.64-1.15,2.44-1.76l.24-.17c.6-.43,1.21-.87,1.78-1.3l.22-.17c1-.72,2-1.47,3-2.22s2.22-1.66,3.28-2.48c.74-.58,1.37-1.09,2-1.59l.75-.58c1.11-.87,2.22-1.76,3.33-2.65s2.27-1.84,3.38-2.76l.29-.24c2.12-1.74,4.22-3.52,6.32-5.35.63-.56,1.28-1.11,1.93-1.67l-47.14-47.14A285,285,0,0,1,567.91,857.6c-157.68,0-286-128.27-286-286a284,284,0,0,1,84.63-203.07A289,289,0,0,1,456,308.46l-50-50a352.56,352.56,0,0,0-87.34,562.41Z" transform="translate(-100.56 -16.6)" fill="#bccf00"/><path d="M967.81,483.93c0-124.83-48.61-242.17-136.88-330.45S625.3,16.6,500.46,16.6c-125.24,0-242.87,48.87-331.2,137.65a468.23,468.23,0,0,0-66.17,83.6l48.51,48.51A402.73,402.73,0,0,1,199.69,219l-.51-.51,17-17.08C292,125.09,393,83.09,500.46,83.09A398.27,398.27,0,0,1,783.9,200.5c75.71,75.71,117.42,176.36,117.42,283.43,0,7.93-.24,16-.72,23.91-.05,1.06-.12,2.19-.2,3.32,0,.8-.12,1.62-.16,2.46l0,.39c-.12,1.66-.26,3.33-.41,5-.12,1.38-.24,2.85-.38,4.29-.22,2.08-.44,4.27-.68,6.45-.15,1.25-.29,2.63-.48,4-.2,1.76-.46,3.73-.73,5.71-.16,1.11-.31,2.17-.48,3.24-.24,1.83-.55,3.83-.89,5.83-.17,1.06-.36,2.22-.56,3.41-.16,1-.33,2-.53,3-.19,1.28-.48,2.75-.75,4.18-.24,1.25-.5,2.63-.79,4-.29,1.55-.6,3.14-1,4.73-2.32,10.93-5.12,21.93-8.35,32.59-.46,1.5-.9,3-1.4,4.51-.36,1.19-.75,2.39-1.16,3.65-2.29,7-4.8,14.09-7.48,20.92-.36.93-.75,1.92-1.13,2.91s-.87,2.17-1.33,3.28c-.53,1.33-1.16,2.8-1.76,4.25-.46,1.11-1,2.34-1.52,3.57l-.24.56c-.75,1.66-1.47,3.32-2.22,5-.56,1.24-1.11,2.47-1.69,3.67a395.61,395.61,0,0,1-36.41,62.68l-2.24,3.14c-1.62,2.21-3.21,4.36-4.8,6.46-.77,1-1.57,2.1-2.39,3.14q-2.64,3.39-5.3,6.73c-1,1.28-2.1,2.6-3.19,3.88-.92,1.14-1.93,2.34-2.94,3.55l-.2.22c-1.11,1.28-2.19,2.58-3.3,3.83-1.23,1.43-2.49,2.87-3.77,4.3l47.07,47.09A465,465,0,0,0,967.81,483.93Z" transform="translate(-100.56 -16.6)" fill="#bccf00"/><path d="M612.37,747.13l50,50a352.51,352.51,0,0,0-161.9-665.64c-2.95,0-5.89.05-8.86.12-1.47,0-2.92.05-4.34.12H487c-2.17.1-4.31.2-6.49.32-1.73.09-3.45.19-5.16.31-.89.05-1.64.12-2.36.17l-1.21.09-4.75.41c-1.43.15-2.75.27-4.1.42-1,.09-1.84.19-2.68.28l-1.38.15-.45.07c-1.16.12-2.27.27-3.43.41-4.34.56-8.64,1.18-12.81,1.88-1.18.2-2.34.39-3.5.61l-.38.07c-.92.15-1.79.31-2.66.48l-.58.1c-1.16.22-2.31.43-3.47.67-3.28.63-6.37,1.28-9.46,2-2.08.46-4.15,1-6.2,1.47l-.27.08c-.53.09-1,.24-1.56.36-1.55.38-2.92.75-4.3,1.11-1.18.31-2.31.6-3.45.94s-1.83.5-2.7.75-1.45.41-2.07.6l-.49.15c-.87.24-1.73.48-2.6.77-1.45.41-2.73.81-4,1.23l-2.87.89c-3,1-5.89,1.95-8.81,3-.8.27-1.52.53-2.27.8l-.67.24c-1,.36-1.86.67-2.75,1-1.52.56-2.82,1.06-4.13,1.57-1.08.41-2,.8-3,1.18-1.81.7-3.43,1.38-5.07,2.05l-4.89,2.1c-1.55.65-3,1.3-4.49,2l-2.34,1.06-.7.31L349,165.5c-7.41,3.52-14.74,7.33-21.78,11.34-.8.43-1.5.84-2.22,1.28-1.55.89-3.09,1.78-4.61,2.7l-5.09,3.09-3.24,2c-3.59,2.27-7.26,4.71-11.19,7.43-1,.7-2,1.4-3,2.1l-.65.46c-.91.65-1.73,1.23-2.55,1.83l-.34.24-1.67,1.24-.21.16c-1,.73-2,1.47-3,2.22s-2.19,1.67-3.26,2.49c-.77.58-1.4,1.08-2,1.57l-.77.6c-1.11.87-2.23,1.74-3.33,2.65-1.26,1-2.46,2-3.67,3-2.15,1.74-4.22,3.52-6.32,5.36l-1.93,1.67,47.14,47.14A285,285,0,0,1,500.46,198c157.68,0,286,128.3,286,286A284,284,0,0,1,701.78,687,288.78,288.78,0,0,1,612.37,747.13Z" transform="translate(-100.56 -16.6)" fill="#1d2a38"/></svg>