<svg xmlns="http://www.w3.org/2000/svg" viewBox="0 0 30.01 75.39"><g id="Layer_2" data-name="Layer 2"><g id="Ñëîé_1" data-name="Ñëîé 1"><path d="M25.13,57a.8.8,0,0,1-.56-.24L15,47.19,5.44,56.75a.8.8,0,0,1-.56.24.82.82,0,0,1-.57-.24L.23,52.67a.8.8,0,0,1,0-1.13l14.21-14.2a.79.79,0,0,1,1.13,0l14.21,14.2a.8.8,0,0,1,0,1.13L25.7,56.75A.82.82,0,0,1,25.13,57ZM1.93,52.11l3,3,9.56-9.57a.8.8,0,0,1,1.13,0l9.56,9.57,2.95-3L15,39Z" fill="#fff"/><path d="M25.13,38.44a.77.77,0,0,1-.56-.24L15,28.64,5.44,38.2a.8.8,0,0,1-1.13,0L.23,34.12A.81.81,0,0,1,.23,33l14.21-14.2a.82.82,0,0,1,1.13,0L29.78,33a.8.8,0,0,1,0,1.13L25.7,38.2A.8.8,0,0,1,25.13,38.44ZM1.93,33.56l3,2.94,9.56-9.56a.8.8,0,0,1,1.13,0l9.56,9.56,2.95-2.94L15,20.48Z" fill="#fff"/><path d="M25.13,19.88a.79.79,0,0,1-.56-.23L15,10.09,5.44,19.65a.79.79,0,0,1-.56.23.81.81,0,0,1-.57-.23L.23,15.57a.8.8,0,0,1,0-1.13L14.44.23a.8.8,0,0,1,1.13,0L29.78,14.44a.8.8,0,0,1,0,1.13L25.7,19.65A.81.81,0,0,1,25.13,19.88ZM1.93,15l3,2.94,9.56-9.56a.8.8,0,0,1,1.13,0L25.13,18,28.08,15,15,1.93Z" fill="#fff"/><path d="M25.13,75.39a.8.8,0,0,1-.56-.24L15,65.59,5.44,75.15a.8.8,0,0,1-.56.24.82.82,0,0,1-.57-.24L.23,71.07a.8.8,0,0,1,0-1.13l14.21-14.2a.79.79,0,0,1,1.13,0l14.21,14.2a.8.8,0,0,1,0,1.13L25.7,75.15A.82.82,0,0,1,25.13,75.39ZM1.93,70.51l3,2.95,9.56-9.57a.8.8,0,0,1,1.13,0l9.56,9.57,2.95-2.95L15,57.43Z" fill="#fff"/></g></g></svg>