<svg xmlns="http://www.w3.org/2000/svg" viewBox="0 0 44.23 85.26"><g id="Layer_2" data-name="Layer 2"><g id="Ñëîé_1" data-name="Ñëîé 1"><path d="M41,83.66a1.6,1.6,0,1,1,1.6,1.6A1.6,1.6,0,0,1,41,83.66Zm-5,1.08a1.59,1.59,0,1,1,.24,0Zm-6.47-1.53a1.6,1.6,0,1,1,.49.08A1.67,1.67,0,0,1,29.55,83.21Zm-6.14-2.53a1.57,1.57,0,1,1,.72.18A1.54,1.54,0,0,1,23.41,80.68Zm-5.68-3.46A1.6,1.6,0,1,1,20,76.86a1.58,1.58,0,0,1-2.23.36Zm-5.07-4.28a1.6,1.6,0,0,1,2.25-2.28,1.62,1.62,0,0,1,0,2.27,1.64,1.64,0,0,1-1.15.47A1.58,1.58,0,0,1,12.66,72.94Zm-4.35-5a1.61,1.61,0,0,1,.34-2.24,1.6,1.6,0,1,1,1.9,2.58,1.66,1.66,0,0,1-1,.31A1.62,1.62,0,0,1,8.31,67.92ZM4.8,62.29A1.6,1.6,0,1,1,7,63a1.66,1.66,0,0,1-.74.17A1.59,1.59,0,0,1,4.8,62.29ZM2.2,56.18a1.6,1.6,0,0,1,1-2,1.6,1.6,0,0,1,1,3,1.42,1.42,0,0,1-.5.08A1.6,1.6,0,0,1,2.2,56.18ZM.59,49.73A1.6,1.6,0,1,1,2.43,51a1.14,1.14,0,0,1-.26,0A1.6,1.6,0,0,1,.59,49.73ZM0,43.11A1.6,1.6,0,1,1,1.62,44.7,1.62,1.62,0,0,1,0,43.11ZM1.79,38.3a1.6,1.6,0,0,1,.46-3.16A1.6,1.6,0,0,1,2,38.32ZM3,32a1.6,1.6,0,1,1,.47.07A2,2,0,0,1,3,32Zm2.13-6a1.61,1.61,0,1,1,2.14-.73,1.58,1.58,0,0,1-1.44.89A1.62,1.62,0,0,1,5.08,26Zm3.05-5.63A1.6,1.6,0,1,1,10.36,20a1.6,1.6,0,0,1-2.23.39ZM12,15.26A1.59,1.59,0,0,1,12,13a1.61,1.61,0,0,1,2.26,0,1.59,1.59,0,0,1,0,2.26,1.57,1.57,0,0,1-1.15.49A1.55,1.55,0,0,1,12,15.26Zm4.61-4.42a1.6,1.6,0,1,1,2.25.31,1.62,1.62,0,0,1-2.25-.31Zm5.25-3.66A1.6,1.6,0,1,1,24,7.84a1.58,1.58,0,0,1-.75.19A1.61,1.61,0,0,1,21.87,7.18Zm5.75-2.8a1.6,1.6,0,1,1,2,1,1.63,1.63,0,0,1-.52.09A1.61,1.61,0,0,1,27.62,4.38Zm6.12-1.86a1.6,1.6,0,1,1,1.86,1.3l-.29,0A1.59,1.59,0,0,1,33.74,2.52Zm6.33-.88A1.61,1.61,0,0,1,41.64,0a1.59,1.59,0,0,1,1.63,1.56A1.59,1.59,0,0,1,41.71,3.2h0A1.62,1.62,0,0,1,40.07,1.64Z" fill="#fff"/><path d="M41,75.22a1.6,1.6,0,1,1,1.6,1.6A1.6,1.6,0,0,1,41,75.22Zm-5.06,1a1.6,1.6,0,1,1,.31,0A1.63,1.63,0,0,1,36,76.17Zm-6.42-1.94a1.6,1.6,0,1,1,.61.12A1.66,1.66,0,0,1,29.55,74.23Zm-5.91-3.17a1.6,1.6,0,1,1,1.78-2.65,1.6,1.6,0,0,1-.89,2.93A1.54,1.54,0,0,1,23.64,71.06Zm-5.18-4.24a1.62,1.62,0,1,1,1.13.46A1.6,1.6,0,0,1,18.46,66.82ZM14.2,61.64a1.6,1.6,0,1,1,2.22.44,1.58,1.58,0,0,1-.88.26A1.6,1.6,0,0,1,14.2,61.64ZM11,55.73a1.6,1.6,0,1,1,2.09.86,1.5,1.5,0,0,1-.62.13A1.61,1.61,0,0,1,11,55.73ZM9.09,49.32a1.6,1.6,0,0,1,1.25-1.88A1.6,1.6,0,0,1,11,50.58l-.31,0A1.6,1.6,0,0,1,9.09,49.32Zm-.66-6.67a1.6,1.6,0,1,1,1.6,1.6A1.6,1.6,0,0,1,8.43,42.65Zm1.91-4.79A1.6,1.6,0,0,1,11,34.72a1.61,1.61,0,0,1-.31,3.18A1.55,1.55,0,0,1,10.34,37.86Zm1.54-6.2a1.6,1.6,0,1,1,.61.12A1.66,1.66,0,0,1,11.88,31.66Zm2.74-5.79a1.59,1.59,0,1,1,.88.27A1.5,1.5,0,0,1,14.62,25.87Zm3.8-5.13a1.61,1.61,0,0,1,2.26-2.28,1.6,1.6,0,0,1-1.13,2.74A1.65,1.65,0,0,1,18.42,20.74Zm4.73-4.31a1.6,1.6,0,1,1,1.33.71A1.61,1.61,0,0,1,23.15,16.43Zm5.48-3.3A1.6,1.6,0,0,1,29.5,11a1.6,1.6,0,0,1,1.23,3,1.75,1.75,0,0,1-.62.12A1.61,1.61,0,0,1,28.63,13.13Zm6-2.16a1.6,1.6,0,1,1,1.88,1.25l-.31,0A1.59,1.59,0,0,1,34.65,11ZM41,10a1.6,1.6,0,1,1,1.6,1.6A1.6,1.6,0,0,1,41,10Z" fill="#fff"/><path d="M41,66.66a1.6,1.6,0,1,1,1.6,1.6A1.6,1.6,0,0,1,41,66.66Zm-5,.75a1.6,1.6,0,1,1,2-1.15,1.62,1.62,0,0,1-1.56,1.2A1.83,1.83,0,0,1,36.06,67.41Zm-6.15-2.52a1.61,1.61,0,1,1,.79.21A1.64,1.64,0,0,1,29.91,64.89Zm-5.28-4a1.6,1.6,0,0,1,2.24-2.28,1.6,1.6,0,0,1-1.12,2.75A1.58,1.58,0,0,1,24.63,60.87Zm-4.09-5.22a1.62,1.62,0,1,1,1.39.78A1.63,1.63,0,0,1,20.54,55.65Zm-2.6-6.11a1.59,1.59,0,1,1,1.54,1.17A1.6,1.6,0,0,1,17.94,49.54ZM17,43a1.6,1.6,0,1,1,1.62,1.57A1.61,1.61,0,0,1,17,43Zm1.92-4.65a1.59,1.59,0,1,1,.39.05A1.81,1.81,0,0,1,18.92,38.33Zm1.9-5.95A1.6,1.6,0,1,1,23,31.76a1.59,1.59,0,0,1-1.4.82A1.53,1.53,0,0,1,20.82,32.38Zm3.36-5.24a1.6,1.6,0,1,1,2.26-.05,1.57,1.57,0,0,1-1.15.49A1.63,1.63,0,0,1,24.18,27.14Zm4.59-4.23a1.6,1.6,0,1,1,2.2.54,1.61,1.61,0,0,1-2.2-.54ZM34.29,20a1.6,1.6,0,1,1,3.07-.91,1.6,1.6,0,0,1-1.08,2,1.76,1.76,0,0,1-.46.06A1.61,1.61,0,0,1,34.29,20Zm6.08-1.38A1.6,1.6,0,1,1,42,20.19H42A1.59,1.59,0,0,1,40.37,18.64Z" fill="#fff"/></g></g></svg>