<svg xmlns="http://www.w3.org/2000/svg" viewBox="0 0 106.95 96.96"><g id="Layer_2" data-name="Layer 2"><g id="Ñëîé_1" data-name="Ñëîé 1"><polygon points="55.5 0 58.6 0 58.6 3.1 55.5 0" fill="#fff"/><polygon points="0 54.99 3.61 58.6 0 58.6 0 54.99" fill="#fff"/><polygon points="0 42.7 15.9 58.6 10.7 58.6 0 47.9 0 42.7" fill="#fff"/><polygon points="43.06 0 48.23 0 58.6 10.36 58.6 15.55 43.06 0" fill="#fff"/><polygon points="0 29.8 28.8 58.6 23.61 58.6 0 34.97 0 29.8" fill="#fff"/><polygon points="0 17.14 41.46 58.6 36.28 58.6 0 22.31 0 17.14" fill="#fff"/><polygon points="0 3.5 55.09 58.6 49.91 58.6 0 8.69 0 3.5" fill="#fff"/><polygon points="5.34 0 10.54 0 58.6 48.06 58.6 53.26 5.34 0" fill="#fff"/><polygon points="18.03 0 23.21 0 58.6 35.39 58.6 40.56 18.03 0" fill="#fff"/><polygon points="30.78 0 35.98 0 58.6 22.61 58.6 27.81 30.78 0" fill="#fff"/><path d="M66.11,97A40.85,40.85,0,1,1,107,56.11,40.9,40.9,0,0,1,66.11,97Zm0-79.3a38.45,38.45,0,1,0,38.44,38.45A38.5,38.5,0,0,0,66.11,17.66Z" fill="#fff"/><path d="M66.11,89A32.86,32.86,0,1,1,99,56.11,32.9,32.9,0,0,1,66.11,89Zm0-63.32A30.46,30.46,0,1,0,96.56,56.11,30.5,30.5,0,0,0,66.11,25.65Z" fill="#fff"/><path d="M66.11,81.62A25.51,25.51,0,1,1,91.62,56.11,25.53,25.53,0,0,1,66.11,81.62Zm0-48.62A23.11,23.11,0,1,0,89.22,56.11,23.13,23.13,0,0,0,66.11,33Z" fill="#fff"/><path d="M66.11,74.86A18.75,18.75,0,1,1,84.86,56.11,18.78,18.78,0,0,1,66.11,74.86Zm0-35.1A16.35,16.35,0,1,0,82.46,56.11,16.37,16.37,0,0,0,66.11,39.76Z" fill="#fff"/></g></g></svg>