<svg xmlns="http://www.w3.org/2000/svg" viewBox="0 0 62.43 41.66"><g id="Layer_2" data-name="Layer 2"><g id="Ñëîé_1" data-name="Ñëîé 1"><path d="M9.56,41.66a9.23,9.23,0,0,1-6.07-2.43,10.5,10.5,0,0,1-3.49-8,31.21,31.21,0,0,1,62.42,0A10.12,10.12,0,0,1,59.32,39a9.07,9.07,0,0,1-7,2.62c-4.87-.43-8.72-5.21-8.4-10.43a12.66,12.66,0,0,0-25.32,0c.22,5.11-3.33,9.78-7.94,10.4A7.41,7.41,0,0,1,9.56,41.66ZM31.21,1.6A29.64,29.64,0,0,0,1.6,31.21,8.89,8.89,0,0,0,4.55,38a7.39,7.39,0,0,0,5.85,2c3.81-.51,6.74-4.44,6.55-8.76a14.26,14.26,0,1,1,28.52,0c-.27,4.42,2.91,8.43,6.94,8.79a7.51,7.51,0,0,0,5.8-2.18,8.52,8.52,0,0,0,2.61-6.57A29.65,29.65,0,0,0,31.21,1.6Z" fill="#fff"/><path d="M6.85,13,13,6.85A30.22,30.22,0,0,0,6.85,13Z" fill="#fff"/><path d="M22.26,2.14,2.14,22.26c-.3,1-.55,2-.76,3l23.9-23.9A30.31,30.31,0,0,0,22.26,2.14Z" fill="#fff"/><path d="M31.21.8l-.82,0L.82,30.39c0,.27,0,.54,0,.82a10.44,10.44,0,0,0,.08,1.38L32.64.84C32.16.81,31.69.8,31.21.8Z" fill="#fff"/><path d="M36.55,1.29,1.92,35.92A9.8,9.8,0,0,0,2.8,37.3L38.42,1.68C37.8,1.53,37.18,1.4,36.55,1.29Z" fill="#fff"/><path d="M6.65,40.26,18,29a13.5,13.5,0,0,1,1-3.24L5.16,39.48A8.46,8.46,0,0,0,6.65,40.26Z" fill="#fff"/><path d="M41.88,2.76,25.72,18.92A13.5,13.5,0,0,1,29,18L43.48,3.42C43,3.19,42.42,3,41.88,2.76Z" fill="#fff"/><path d="M17.48,34l-6.79,6.79A8.79,8.79,0,0,0,17.48,34Z" fill="#fff"/><path d="M46.48,5l-13,13a14.34,14.34,0,0,1,1.83.44L47.88,5.84C47.42,5.54,47,5.25,46.48,5Z" fill="#fff"/><path d="M50.43,7.72,38.34,19.8a13.84,13.84,0,0,1,1.33.94l12-12C51.25,8.41,50.84,8.06,50.43,7.72Z" fill="#fff"/><path d="M53.9,11.06l-12,12a12.27,12.27,0,0,1,.91,1.35L54.93,12.29C54.6,11.87,54.25,11.46,53.9,11.06Z" fill="#fff"/><path d="M56.83,14.94,44.17,27.6a13,13,0,0,1,.38,1.88L57.68,16.35C57.41,15.87,57.13,15.4,56.83,14.94Z" fill="#fff"/><path d="M58.94,18.83,44.74,33a9.11,9.11,0,0,0,.43,1.82L59.61,20.42C59.4,19.88,59.18,19.35,58.94,18.83Z" fill="#fff"/><path d="M60.7,23.87,46.81,37.77a8.69,8.69,0,0,0,1.13,1.14L61.11,25.74C61,25.11,60.86,24.49,60.7,23.87Z" fill="#fff"/><path d="M61.62,31.21c0-.47,0-.94,0-1.4l-10.7,10.7a8,8,0,0,0,1.46.29h.5L61.61,32C61.62,31.77,61.63,31.49,61.62,31.21Z" fill="#fff"/></g></g></svg>