<?xml version="1.0" encoding="utf-8"?>
<!-- Generator: Adobe Illustrator 24.1.1, SVG Export Plug-In . SVG Version: 6.00 Build 0)  -->
<svg version="1.1" id="Layer_1" xmlns="http://www.w3.org/2000/svg" xmlns:xlink="http://www.w3.org/1999/xlink" x="0px" y="0px"
	 viewBox="0 0 49.9 23.9" style="enable-background:new 0 0 49.9 23.9;" xml:space="preserve">
<style type="text/css">
	.st0{fill:#FFFFFF;}
</style>
<g id="Layer_2_1_">
	<g id="Ñëîé_1">
		<path class="st0" d="M2.3,1.2c0,0.6-0.5,1.2-1.2,1.2S0,1.8,0,1.2S0.5,0,1.2,0C1.8,0,2.3,0.5,2.3,1.2L2.3,1.2z"/>
		<path class="st0" d="M9.1,1.2c0,0.6-0.5,1.2-1.2,1.2S6.8,1.8,6.8,1.2S7.3,0,8,0c0,0,0,0,0,0C8.6,0,9.1,0.5,9.1,1.2z"/>
		<path class="st0" d="M15.9,1.2c0,0.6-0.5,1.2-1.2,1.2c-0.6,0-1.2-0.5-1.2-1.2S14.1,0,14.8,0c0,0,0,0,0,0C15.4,0,15.9,0.5,15.9,1.2
			z"/>
		<circle class="st0" cx="21.6" cy="1.2" r="1.2"/>
		<circle class="st0" cx="28.4" cy="1.2" r="1.2"/>
		<circle class="st0" cx="35.2" cy="1.2" r="1.2"/>
		<circle class="st0" cx="42" cy="1.2" r="1.2"/>
		<circle class="st0" cx="48.8" cy="1.2" r="1.2"/>
		<path class="st0" d="M2.3,8.4c0,0.6-0.5,1.2-1.2,1.2S0,9,0,8.4s0.5-1.2,1.2-1.2h0C1.8,7.2,2.3,7.7,2.3,8.4z"/>
		<path class="st0" d="M9.1,8.4C9.1,9,8.6,9.5,8,9.5C7.3,9.5,6.8,9,6.8,8.4c0-0.6,0.5-1.2,1.2-1.2c0,0,0,0,0,0
			C8.6,7.2,9.1,7.7,9.1,8.4z"/>
		<path class="st0" d="M15.9,8.4c0,0.6-0.5,1.2-1.2,1.2S13.6,9,13.6,8.4s0.5-1.2,1.2-1.2l0,0C15.4,7.2,15.9,7.7,15.9,8.4z"/>
		<circle class="st0" cx="21.6" cy="8.4" r="1.2"/>
		<circle class="st0" cx="28.4" cy="8.4" r="1.2"/>
		<circle class="st0" cx="35.2" cy="8.4" r="1.2"/>
		<circle class="st0" cx="42" cy="8.4" r="1.2"/>
		<circle class="st0" cx="48.8" cy="8.4" r="1.2"/>
		<path class="st0" d="M2.3,15.6c0,0.6-0.5,1.2-1.2,1.2S0,16.2,0,15.6c0-0.6,0.5-1.2,1.2-1.2S2.3,14.9,2.3,15.6L2.3,15.6z"/>
		<path class="st0" d="M9.1,15.6c0,0.6-0.5,1.2-1.2,1.2s-1.2-0.5-1.2-1.2s0.5-1.2,1.2-1.2c0,0,0,0,0,0C8.6,14.4,9.1,14.9,9.1,15.6z"
			/>
		<path class="st0" d="M15.9,15.6c0,0.6-0.5,1.2-1.2,1.2s-1.2-0.5-1.2-1.2c0-0.6,0.5-1.2,1.2-1.2l0,0C15.4,14.4,15.9,14.9,15.9,15.6
			z"/>
		<circle class="st0" cx="21.6" cy="15.6" r="1.2"/>
		<circle class="st0" cx="28.4" cy="15.6" r="1.2"/>
		<circle class="st0" cx="35.2" cy="15.6" r="1.2"/>
		<circle class="st0" cx="42" cy="15.6" r="1.2"/>
		<circle class="st0" cx="48.8" cy="15.6" r="1.2"/>
		<path class="st0" d="M2.3,22.8c0,0.6-0.5,1.2-1.2,1.2S0,23.4,0,22.8s0.5-1.2,1.2-1.2h0C1.8,21.6,2.3,22.1,2.3,22.8z"/>
		<path class="st0" d="M9.1,22.8c0,0.6-0.5,1.2-1.2,1.2c-0.6,0-1.2-0.5-1.2-1.2c0-0.6,0.5-1.2,1.2-1.2c0,0,0,0,0,0
			C8.6,21.6,9.1,22.1,9.1,22.8z"/>
		<path class="st0" d="M15.9,22.8c0,0.6-0.5,1.2-1.2,1.2s-1.2-0.5-1.2-1.2s0.5-1.2,1.2-1.2l0,0C15.4,21.6,15.9,22.1,15.9,22.8z"/>
		<circle class="st0" cx="21.6" cy="22.8" r="1.2"/>
		<circle class="st0" cx="28.4" cy="22.8" r="1.2"/>
		<circle class="st0" cx="35.2" cy="22.8" r="1.2"/>
		<circle class="st0" cx="42" cy="22.8" r="1.2"/>
		<circle class="st0" cx="48.8" cy="22.8" r="1.2"/>
	</g>
</g>
</svg>
