<svg xmlns="http://www.w3.org/2000/svg" viewBox="0 0 11.76 78.05"><g id="Layer_2" data-name="Layer 2"><g id="Ñëîé_1" data-name="Ñëîé 1"><path d="M5.88,11.76a5.88,5.88,0,1,1,5.88-5.88A5.89,5.89,0,0,1,5.88,11.76Zm0-9.36A3.48,3.48,0,1,0,9.36,5.88,3.48,3.48,0,0,0,5.88,2.4Z" fill="#fff"/><path d="M5.88,28.33a5.88,5.88,0,1,1,5.88-5.88A5.88,5.88,0,0,1,5.88,28.33Zm0-9.36a3.48,3.48,0,1,0,3.48,3.48A3.48,3.48,0,0,0,5.88,19Z" fill="#fff"/><path d="M5.88,44.91A5.88,5.88,0,1,1,11.76,39,5.89,5.89,0,0,1,5.88,44.91Zm0-9.36A3.48,3.48,0,1,0,9.36,39,3.48,3.48,0,0,0,5.88,35.55Z" fill="#fff"/><path d="M5.88,61.48a5.88,5.88,0,1,1,5.88-5.88A5.89,5.89,0,0,1,5.88,61.48Zm0-9.36A3.48,3.48,0,1,0,9.36,55.6,3.48,3.48,0,0,0,5.88,52.12Z" fill="#fff"/><path d="M5.88,78.05a5.88,5.88,0,1,1,5.88-5.88A5.89,5.89,0,0,1,5.88,78.05Zm0-9.36a3.48,3.48,0,1,0,3.48,3.48A3.48,3.48,0,0,0,5.88,68.69Z" fill="#fff"/></g></g></svg>