<svg xmlns="http://www.w3.org/2000/svg" viewBox="0 0 10.54 103.56"><g id="Layer_2" data-name="Layer 2"><g id="Ñëîé_1" data-name="Ñëîé 1"><path d="M10.54,23.67A5.27,5.27,0,1,1,5.27,18.4,5.27,5.27,0,0,1,10.54,23.67Z" fill="#fff"/><path d="M10.54,42.32a5.27,5.27,0,1,1-5.27-5.26A5.27,5.27,0,0,1,10.54,42.32Z" fill="#fff"/><path d="M10.54,61a5.27,5.27,0,1,1-5.27-5.27A5.27,5.27,0,0,1,10.54,61Z" fill="#fff"/><path d="M10.54,79.64a5.27,5.27,0,1,1-5.27-5.27A5.27,5.27,0,0,1,10.54,79.64Z" fill="#fff"/><path d="M10.54,98.29A5.27,5.27,0,1,1,5.27,93,5.27,5.27,0,0,1,10.54,98.29Z" fill="#fff"/><path d="M10.54,5.27A5.27,5.27,0,1,1,5.27,0,5.27,5.27,0,0,1,10.54,5.27Z" fill="#fff"/></g></g></svg>