<svg xmlns="http://www.w3.org/2000/svg" viewBox="0 0 44.51 44.63"><g id="Layer_2" data-name="Layer 2"><g id="Ñëîé_1" data-name="Ñëîé 1"><path d="M20.29,44.63A1.54,1.54,0,0,1,18.89,43a1.53,1.53,0,1,1,1.53,1.66Zm5.47-1.72A1.54,1.54,0,1,1,27.63,44a1.24,1.24,0,0,1-.37.06A1.55,1.55,0,0,1,25.76,42.91Zm-12.61-.08a1.52,1.52,0,1,1,.61.13A1.49,1.49,0,0,1,13.15,42.83Zm19.1-2.23a1.52,1.52,0,0,1,.44-2.12,1.54,1.54,0,1,1,.84,2.82A1.5,1.5,0,0,1,32.25,40.6ZM7,38.8a1.53,1.53,0,1,1,1,.41A1.47,1.47,0,0,1,7,38.8Zm30.65-2.47a1.55,1.55,0,1,1,.95.32A1.58,1.58,0,0,1,37.63,36.33ZM2.44,33a1.54,1.54,0,1,1,2.09.62,1.59,1.59,0,0,1-.74.18A1.54,1.54,0,0,1,2.44,33Zm38.91-2.46a1.55,1.55,0,0,1-1-2,1.54,1.54,0,1,1,1.46,2A1.69,1.69,0,0,1,41.35,30.54ZM0,26a1.54,1.54,0,0,1,3-.51A1.56,1.56,0,0,1,1.81,27.3l-.25,0A1.54,1.54,0,0,1,0,26Zm41.39-3.72v-.08a1.54,1.54,0,0,1,3.08,0,.09.09,0,0,1,0,.05.06.06,0,0,1,0,0,1.54,1.54,0,0,1-3.08,0ZM1.3,20.44A1.55,1.55,0,0,1,0,18.67a1.54,1.54,0,1,1,1.52,1.79A1,1,0,0,1,1.3,20.44ZM40.36,16a1.54,1.54,0,1,1,2,1,1.52,1.52,0,0,1-.51.09A1.54,1.54,0,0,1,40.36,16ZM3,13.78a1.53,1.53,0,1,1,.73.19A1.65,1.65,0,0,1,3,13.78Zm34.3-3.39a1.52,1.52,0,0,1,.25-2.15,1.54,1.54,0,1,1,1,2.75A1.5,1.5,0,0,1,37.32,10.39ZM6.83,8.05A1.54,1.54,0,1,1,8,8.55,1.55,1.55,0,0,1,6.83,8.05Zm25.79-2A1.54,1.54,0,0,1,34.3,3.52,1.54,1.54,0,1,1,32.62,6.1ZM12.28,3.86A1.54,1.54,0,1,1,15.1,2.61a1.54,1.54,0,0,1-.79,2,1.5,1.5,0,0,1-.62.13A1.55,1.55,0,0,1,12.28,3.86ZM26.8,3.57a1.52,1.52,0,1,1,.37.05A1.57,1.57,0,0,1,26.8,3.57Zm-8-1.9a1.54,1.54,0,0,1,3.07-.26,1.54,1.54,0,0,1-1.41,1.66h-.13A1.55,1.55,0,0,1,18.8,1.67Z" fill="#fff"/></g></g></svg>