<svg xmlns="http://www.w3.org/2000/svg" viewBox="0 0 19.27 30.84"><g id="Layer_2" data-name="Layer 2"><g id="Ñëîé_1" data-name="Ñëîé 1"><path d="M9.64,10.84a1.21,1.21,0,0,1-.85-.35L.35,2.05A1.2,1.2,0,0,1,2.05.35L9.64,7.94,17.22.35a1.2,1.2,0,0,1,1.7,1.7l-8.43,8.44A1.25,1.25,0,0,1,9.64,10.84Z" fill="#fff"/><path d="M9.64,21.24a1.21,1.21,0,0,1-.85-.35L.35,12.45a1.2,1.2,0,0,1,1.7-1.7l7.59,7.59,7.58-7.59a1.2,1.2,0,0,1,1.7,1.7l-8.43,8.44A1.25,1.25,0,0,1,9.64,21.24Z" fill="#fff"/><path d="M9.64,30.84a1.21,1.21,0,0,1-.85-.35L.35,22.05a1.2,1.2,0,0,1,1.7-1.7l7.59,7.59,7.58-7.59a1.2,1.2,0,0,1,1.7,1.7l-8.43,8.44A1.25,1.25,0,0,1,9.64,30.84Z" fill="#fff"/></g></g></svg>