<svg xmlns="http://www.w3.org/2000/svg" viewBox="0 0 89.55 53.93"><g id="Layer_2" data-name="Layer 2"><g id="Ñëîé_1" data-name="Ñëîé 1"><path d="M5.33,9.25a1.21,1.21,0,0,1-.85-2L10.89.79a1.2,1.2,0,0,1,1.7,0,1.22,1.22,0,0,1,0,1.7L6.18,8.89A1.17,1.17,0,0,1,5.33,9.25Z" fill="#fff"/><path d="M21.22,21.61a1.21,1.21,0,0,1-1-.57L16,14.17a1.2,1.2,0,1,1,2-1.25l4.18,6.87a1.2,1.2,0,0,1-.4,1.65A1.26,1.26,0,0,1,21.22,21.61Z" fill="#fff"/><path d="M1.2,22.65A1.21,1.21,0,0,1,0,21.72a1.2,1.2,0,0,1,.89-1.44l7.83-1.85a1.2,1.2,0,0,1,.55,2.34L1.48,22.61A1.45,1.45,0,0,1,1.2,22.65Z" fill="#fff"/><path d="M27.29,38.58a1.18,1.18,0,0,1-.78-.29L20.43,33A1.2,1.2,0,0,1,22,31.21l6.08,5.27a1.19,1.19,0,0,1,.12,1.69A1.21,1.21,0,0,1,27.29,38.58Z" fill="#fff"/><path d="M25.49,11.05a1.3,1.3,0,0,1-.54-.13,1.2,1.2,0,0,1-.53-1.61L28,2.13A1.2,1.2,0,1,1,30.17,3.2l-3.61,7.19A1.21,1.21,0,0,1,25.49,11.05Z" fill="#fff"/><path d="M10.18,36a1.26,1.26,0,0,1-.59-.15l-7-4a1.2,1.2,0,0,1,1.18-2.09l7,4a1.2,1.2,0,0,1,.46,1.63A1.22,1.22,0,0,1,10.18,36Z" fill="#fff"/><path d="M67.75,44a1.2,1.2,0,0,1-1.19-1l-1.24-9a1.2,1.2,0,0,1,2.38-.33l1.24,9a1.2,1.2,0,0,1-1,1.35Z" fill="#fff"/><path d="M54.34,35a1.33,1.33,0,0,1-.28,0l-7.81-1.9a1.18,1.18,0,0,1-.88-1.44,1.19,1.19,0,0,1,1.44-.89l7.82,1.9A1.2,1.2,0,0,1,54.34,35Z" fill="#fff"/><path d="M54.66,19.64a1.22,1.22,0,0,1,.16-.64,1.2,1.2,0,0,1,1.65-.41l6.9,4.12a1.2,1.2,0,1,1-1.23,2.06l-6.9-4.12A1.18,1.18,0,0,1,54.66,19.64Z" fill="#fff"/><path d="M30.78,24.35a1.2,1.2,0,0,1,1.84-1.54l5.4,6a1.2,1.2,0,0,1-1.78,1.61Z" fill="#fff"/><path d="M46.79,50a1.2,1.2,0,0,1-1.14-.82l-2.52-7.64a1.2,1.2,0,1,1,2.27-.75l2.53,7.63a1.21,1.21,0,0,1-.77,1.52A1.19,1.19,0,0,1,46.79,50Z" fill="#fff"/><path d="M45.19,21.46a1.2,1.2,0,0,1-2.12-1.08l2.65-7.59a1.2,1.2,0,1,1,2.26.79l-2.64,7.59A1.59,1.59,0,0,1,45.19,21.46Z" fill="#fff"/><path d="M60.74,51.69a1.19,1.19,0,0,1-.81-.31L54,46a1.2,1.2,0,0,1-.08-1.7,1.19,1.19,0,0,1,1.69-.08l6,5.39a1.2,1.2,0,0,1-.8,2.09Z" fill="#fff"/><path d="M31.6,53.66a1.19,1.19,0,0,1-.84-.34,1.2,1.2,0,0,1,0-1.7L36.4,45.9a1.2,1.2,0,1,1,1.7,1.68l-5.64,5.73A1.2,1.2,0,0,1,31.6,53.66Z" fill="#fff"/><path d="M2.51,51.89a1.2,1.2,0,0,1-.32-2.35l7.74-2.18a1.2,1.2,0,1,1,.65,2.31L2.84,51.85A1.24,1.24,0,0,1,2.51,51.89Z" fill="#fff"/><path d="M21.76,52.94a1.19,1.19,0,0,1-.91-.42l-5.26-6.08a1.2,1.2,0,0,1,.12-1.69,1.21,1.21,0,0,1,1.7.12L22.66,51a1.19,1.19,0,0,1-.12,1.69A1.16,1.16,0,0,1,21.76,52.94Z" fill="#fff"/><path d="M48.06,8.83a1.22,1.22,0,0,1-.41-.07L40.1,6a1.2,1.2,0,0,1,.82-2.26L48.47,6.5a1.2,1.2,0,0,1-.41,2.33Z" fill="#fff"/><path d="M76,32a1.19,1.19,0,0,1-1-.62l-3.91-7a1.2,1.2,0,1,1,2.09-1.17l3.91,7a1.19,1.19,0,0,1-.46,1.63A1.22,1.22,0,0,1,76,32Z" fill="#fff"/><path d="M67.7,3.83a1.2,1.2,0,0,1-1.24,2l-7.3-3.35a1.2,1.2,0,0,1,1-2.19l7.3,3.36A1.38,1.38,0,0,1,67.7,3.83Z" fill="#fff"/><path d="M81.47,22a1.26,1.26,0,0,1-.24-.22,1.2,1.2,0,0,1,.16-1.69L87.57,15a1.2,1.2,0,0,1,1.53,1.85L82.92,22A1.2,1.2,0,0,1,81.47,22Z" fill="#fff"/><path d="M74.39,11.28a1.28,1.28,0,0,1-.37.5l-6.24,5.06a1.19,1.19,0,0,1-1.68-.17A1.2,1.2,0,0,1,66.27,15l6.24-5.07a1.2,1.2,0,0,1,1.88,1.37Z" fill="#fff"/><path d="M85,9.36a1.22,1.22,0,0,1-1-.6l-4-7A1.2,1.2,0,1,1,82,.6l4,7a1.2,1.2,0,0,1-.44,1.64A1.17,1.17,0,0,1,85,9.36Z" fill="#fff"/><path d="M79.94,40.63a1.2,1.2,0,0,1-.82-2.08L85,33.08a1.2,1.2,0,1,1,1.64,1.75l-5.89,5.48A1.2,1.2,0,0,1,79.94,40.63Z" fill="#fff"/><path d="M88.35,53.93a1.19,1.19,0,0,1-1.15-.88L85.06,45.3a1.2,1.2,0,1,1,2.31-.64l2.14,7.75a1.19,1.19,0,0,1-.84,1.47A1.13,1.13,0,0,1,88.35,53.93Z" fill="#fff"/><path d="M78.7,53.6a1.43,1.43,0,0,1-.29,0l-7.81-1.9a1.19,1.19,0,0,1-.88-1.45,1.21,1.21,0,0,1,1.45-.88L79,51.24a1.2,1.2,0,0,1-.28,2.36Z" fill="#fff"/></g></g></svg>