<svg xmlns="http://www.w3.org/2000/svg" viewBox="0 0 13.98 59.6"><g id="Layer_2" data-name="Layer 2"><g id="Ñëîé_1" data-name="Ñëîé 1"><path d="M1.2,14a1.2,1.2,0,0,1-.85-2L11.94.35a1.19,1.19,0,0,1,1.69,0,1.2,1.2,0,0,1,0,1.7L2.05,13.63A1.18,1.18,0,0,1,1.2,14Z" fill="#fff"/><path d="M12.78,14a1.16,1.16,0,0,1-.84-.35L.35,2.05A1.2,1.2,0,0,1,2.05.35L13.63,11.94a1.19,1.19,0,0,1,0,1.69A1.16,1.16,0,0,1,12.78,14Z" fill="#fff"/><path d="M1.2,37.9a1.22,1.22,0,0,1-.85-.35,1.2,1.2,0,0,1,0-1.7L11.94,24.27A1.2,1.2,0,0,1,13.63,26L2.05,37.55A1.22,1.22,0,0,1,1.2,37.9Z" fill="#fff"/><path d="M12.78,37.9a1.2,1.2,0,0,1-.84-.35L.35,26a1.19,1.19,0,0,1,0-1.69,1.2,1.2,0,0,1,1.7,0L13.63,35.85a1.2,1.2,0,0,1-.85,2Z" fill="#fff"/><path d="M1.2,59.6a1.22,1.22,0,0,1-.85-.35,1.2,1.2,0,0,1,0-1.7L11.94,46a1.2,1.2,0,0,1,1.69,1.69L2.05,59.25A1.22,1.22,0,0,1,1.2,59.6Z" fill="#fff"/><path d="M12.78,59.6a1.2,1.2,0,0,1-.84-.35L.35,47.66A1.19,1.19,0,0,1,.35,46a1.2,1.2,0,0,1,1.7,0L13.63,57.55a1.2,1.2,0,0,1-.85,2.05Z" fill="#fff"/></g></g></svg>