<svg xmlns="http://www.w3.org/2000/svg" viewBox="0 0 26.84 19.27"><g id="Layer_2" data-name="Layer 2"><g id="Ñëîé_1" data-name="Ñëîé 1"><path d="M1.2,19.27a1.2,1.2,0,0,1-.85-2L7.94,9.64.35,2.05A1.2,1.2,0,0,1,2.05.35l8.44,8.44a1.22,1.22,0,0,1,0,1.7L2.05,18.92A1.18,1.18,0,0,1,1.2,19.27Z" fill="#fff"/><path d="M9.2,19.27a1.2,1.2,0,0,1-.85-2l7.59-7.59L8.35,2.05a1.2,1.2,0,1,1,1.7-1.7l8.44,8.44a1.22,1.22,0,0,1,0,1.7l-8.44,8.43A1.18,1.18,0,0,1,9.2,19.27Z" fill="#fff"/><path d="M17.2,19.27a1.2,1.2,0,0,1-.85-2l7.59-7.59L16.35,2.05a1.2,1.2,0,0,1,1.7-1.7l8.44,8.44a1.22,1.22,0,0,1,0,1.7l-8.44,8.43A1.18,1.18,0,0,1,17.2,19.27Z" fill="#fff"/></g></g></svg>