<svg xmlns="http://www.w3.org/2000/svg" viewBox="0 0 71.88 72.07"><g id="Layer_2" data-name="Layer 2"><g id="Ñëîé_1" data-name="Ñëîé 1"><path d="M50.61,3.12H21.27a36,36,0,0,1,29.34,0Z" fill="#fff"/><path d="M51.05,68.74a35.95,35.95,0,0,1-30.22,0Z" fill="#fff"/><path d="M62.49,11.68H9.39a36.32,36.32,0,0,1,4-3.75h45.1A33.06,33.06,0,0,1,62.49,11.68Z" fill="#fff"/><path d="M69,21.67H2.9a29.9,29.9,0,0,1,1.89-3.75h62.3A29.9,29.9,0,0,1,69,21.67Z" fill="#fff"/><path d="M71.71,31.65H.17A29.43,29.43,0,0,1,.84,27.9H71.05A31.28,31.28,0,0,1,71.71,31.65Z" fill="#fff"/><path d="M71.88,38.6a32.83,32.83,0,0,1-.46,3.75H.46A35.24,35.24,0,0,1,0,38.6Z" fill="#fff"/><path d="M69.44,49.3a34.46,34.46,0,0,1-1.72,3.75H4.17A32.72,32.72,0,0,1,2.44,49.3Z" fill="#fff"/><path d="M63.46,59.29A35,35,0,0,1,59.8,63H12.08a35,35,0,0,1-3.66-3.75Z" fill="#fff"/></g></g></svg>