<svg xmlns="http://www.w3.org/2000/svg" viewBox="0 0 135.81 11.64"><g id="Layer_2" data-name="Layer 2"><g id="Ñëîé_1" data-name="Ñëîé 1"><path d="M131.88,11.64a16,16,0,0,1-9.76-3.14,10.35,10.35,0,0,0-12.5,0,15.94,15.94,0,0,1-9.75,3.14A15.89,15.89,0,0,1,90.12,8.5a10.32,10.32,0,0,0-12.48,0,16,16,0,0,1-9.76,3.14A15.94,15.94,0,0,1,58.13,8.5a10.32,10.32,0,0,0-12.48,0,15.94,15.94,0,0,1-9.75,3.14A15.94,15.94,0,0,1,26.15,8.5a9.65,9.65,0,0,0-6.24-2.1,9.65,9.65,0,0,0-6.24,2.1,15.89,15.89,0,0,1-9.74,3.14c-5.24,0-5.24-6.4,0-6.4a9.66,9.66,0,0,0,6.23-2.09A15.88,15.88,0,0,1,19.91,0a15.88,15.88,0,0,1,9.75,3.15A9.71,9.71,0,0,0,35.9,5.24a9.71,9.71,0,0,0,6.24-2.09,16.69,16.69,0,0,1,19.5,0,9.65,9.65,0,0,0,6.24,2.1,9.66,9.66,0,0,0,6.25-2.1,16.69,16.69,0,0,1,19.5,0,9.69,9.69,0,0,0,6.24,2.09,9.65,9.65,0,0,0,6.24-2.1,16.74,16.74,0,0,1,19.52,0,9.66,9.66,0,0,0,6.25,2.1C137.11,5.24,137.12,11.64,131.88,11.64Z" fill="#fff"/></g></g></svg>