<svg xmlns="http://www.w3.org/2000/svg" viewBox="0 0 24.22 161.63"><g id="Layer_2" data-name="Layer 2"><g id="Ñëîé_1" data-name="Ñëîé 1"><path d="M0,155.88c0-7.59,5.25-11.44,8.73-14,3.2-2.35,4.07-3.22,4.07-4.8s-.86-2.45-4.07-4.8c-3.48-2.56-8.73-6.41-8.73-14s5.25-11.44,8.73-14c3.21-2.35,4.07-3.21,4.07-4.79s-.86-2.45-4.07-4.8S.54,88.7.05,81.86a8.25,8.25,0,0,1,0-1.11l0-1c.48-6.87,5.39-10.47,8.69-12.89s4.07-3.21,4.07-4.79-.86-2.44-4.07-4.79C5.25,54.73,0,50.87,0,43.29s5.25-11.45,8.73-14c3.21-2.36,4.07-3.22,4.07-4.8S11.93,22,8.73,19.68C5.25,17.13,0,13.27,0,5.68c0-3.34,4.27-7.3,8.14-5,4.32,2.58.86,6,8.55,11.26,2.47,1.69,5.27,3.61,6.66,7.5a16.73,16.73,0,0,1,.87,5c0,7.59-5.26,11.45-8.74,14-3.2,2.35-4.07,3.21-4.07,4.8s.87,2.43,4.07,4.78c3.48,2.55,8.74,6.41,8.74,14s-5.26,11.44-8.74,14c-3.18,2.33-4,3.19-4.06,4.74s.88,2.37,4.06,4.7c3.48,2.55,8.74,6.41,8.74,14s-5.26,11.44-8.74,14c-3.2,2.35-4.07,3.21-4.07,4.79s.87,2.44,4.07,4.8c3.48,2.55,8.74,6.4,8.74,14a16.73,16.73,0,0,1-.87,5c-1.37,3.84-4.14,5.73-6.59,7.39C8.64,155,12.59,159,8.3,161.14,4.87,162.89,0,159.61,0,155.88ZM2,80.8c.07,6.53,4.42,9.73,7.91,12.29,3.22,2.36,4.89,3.71,4.89,6.41s-1.67,4-4.88,6.4C6.39,108.49,2,111.7,2,118.28s4.39,9.8,7.91,12.38c3.22,2.36,4.89,3.72,4.89,6.42s-1.67,4-4.89,6.41C6.39,146.08,2,149.31,2,155.88c0,2.29,3.31,4.54,5.39,3.48,3-1.51-.29-5.72,8.24-11.51,2.41-1.64,4.69-3.19,5.83-6.41a14.56,14.56,0,0,0,.76-4.36c0-6.58-4.39-9.8-7.92-12.39-3.21-2.36-4.89-3.72-4.89-6.41s1.68-4,4.89-6.4c3.53-2.59,7.92-5.81,7.92-12.38s-4.39-9.8-7.92-12.38c-3.09-2.28-4.84-3.69-4.88-6.32s1.79-4.08,4.88-6.35c3.53-2.59,7.92-5.81,7.92-12.38s-4.39-9.8-7.92-12.38c-3.21-2.36-4.89-3.71-4.89-6.4s1.68-4.06,4.89-6.41c3.53-2.59,7.92-5.81,7.92-12.39a14.61,14.61,0,0,0-.76-4.37c-1.16-3.28-3.46-4.85-5.9-6.52C7.49,8.07,10.4,4.37,7.12,2.41,4.71,1,2,3.72,2,5.68c0,6.58,4.39,9.8,7.91,12.39,3.22,2.36,4.89,3.72,4.89,6.42s-1.67,4.05-4.89,6.41C6.39,33.49,2,36.71,2,43.29s4.39,9.79,7.91,12.37c3.22,2.36,4.89,3.71,4.89,6.41s-1.67,4.05-4.89,6.4C6.42,71,2.07,74.23,2,80.72Z" fill="#fff"/></g></g></svg>