<svg xmlns="http://www.w3.org/2000/svg" viewBox="0 0 127.2 10"><g id="Layer_2" data-name="Layer 2"><g id="Ñëîé_1" data-name="Ñëîé 1"><path d="M15.2,10a1.6,1.6,0,0,1-1.6-1.6,5.2,5.2,0,1,0-10.4,0A1.6,1.6,0,0,1,0,8.4a8.4,8.4,0,0,1,16.8,0A1.6,1.6,0,0,1,15.2,10Z" fill="#fff"/><path d="M37.6,10A1.6,1.6,0,0,1,36,8.4a5.2,5.2,0,1,0-10.4,0,1.6,1.6,0,1,1-3.2,0,8.4,8.4,0,0,1,16.8,0A1.6,1.6,0,0,1,37.6,10Z" fill="#fff"/><path d="M59.2,10a1.6,1.6,0,0,1-1.6-1.6,5.2,5.2,0,0,0-10.4,0,1.6,1.6,0,0,1-3.2,0,8.4,8.4,0,0,1,16.8,0A1.6,1.6,0,0,1,59.2,10Z" fill="#fff"/><path d="M81.6,10A1.6,1.6,0,0,1,80,8.4a5.2,5.2,0,0,0-10.4,0,1.6,1.6,0,1,1-3.2,0,8.4,8.4,0,0,1,16.8,0A1.6,1.6,0,0,1,81.6,10Z" fill="#fff"/><path d="M103.2,10a1.6,1.6,0,0,1-1.6-1.6,5.2,5.2,0,1,0-10.4,0,1.6,1.6,0,0,1-3.2,0,8.4,8.4,0,1,1,16.8,0A1.6,1.6,0,0,1,103.2,10Z" fill="#fff"/><path d="M125.6,10A1.6,1.6,0,0,1,124,8.4a5.2,5.2,0,0,0-10.4,0,1.6,1.6,0,1,1-3.2,0,8.4,8.4,0,0,1,16.8,0A1.6,1.6,0,0,1,125.6,10Z" fill="#fff"/></g></g></svg>