<svg xmlns="http://www.w3.org/2000/svg" xmlns:xlink="http://www.w3.org/1999/xlink" viewBox="0 0 97.55 78.91"><defs><clipPath id="clip-path" transform="translate(22.94 13.76)"><path d="M28.15.77A27.35,27.35,0,1,0,55.5,28.12,27.35,27.35,0,0,0,28.15.77Zm0,39.46A12.11,12.11,0,1,1,40.26,28.12,12.11,12.11,0,0,1,28.15,40.23Z" fill="#fff"/></clipPath></defs><g id="Layer_2" data-name="Layer 2"><g id="Ñëîé_1" data-name="Ñëîé 1"><path d="M28.15,56.3A28.15,28.15,0,1,1,56.3,28.15,28.18,28.18,0,0,1,28.15,56.3Zm0-54.7A26.55,26.55,0,1,0,54.7,28.15,26.58,26.58,0,0,0,28.15,1.6Zm0,39.46A12.91,12.91,0,1,1,41.06,28.15,12.92,12.92,0,0,1,28.15,41.06Zm0-24.22A11.31,11.31,0,1,0,39.46,28.15,11.32,11.32,0,0,0,28.15,16.84Z" transform="translate(22.94 13.76)" fill="#fff"/><path d="M28.15.77A27.35,27.35,0,1,0,55.5,28.12,27.35,27.35,0,0,0,28.15.77Zm0,39.46A12.11,12.11,0,1,1,40.26,28.12,12.11,12.11,0,0,1,28.15,40.23Z" transform="translate(22.94 13.76)" fill="#fff"/><g clip-path="url(#clip-path)"><circle cx="9.75" cy="1.49" r="1.49" fill="#fff"/><circle cx="18.01" cy="1.49" r="1.49" fill="#fff"/><path d="M-7.69-7.22A1.49,1.49,0,0,1-9.18-5.73a1.49,1.49,0,0,1-1.48-1.49A1.49,1.49,0,0,1-9.18-8.71,1.49,1.49,0,0,1-7.69-7.22Z" transform="translate(22.94 13.76)" fill="#fff"/><circle cx="26.26" cy="1.49" r="1.49" fill="#fff"/><path d="M.57-7.22A1.49,1.49,0,0,1-.92-5.73,1.49,1.49,0,0,1-2.41-7.22,1.49,1.49,0,0,1-.92-8.71,1.49,1.49,0,0,1,.57-7.22Z" transform="translate(22.94 13.76)" fill="#fff"/><path d="M13-12.27a1.49,1.49,0,0,1-1.49,1.49A1.49,1.49,0,0,1,10-12.27a1.49,1.49,0,0,1,1.49-1.48A1.49,1.49,0,0,1,13-12.27Z" transform="translate(22.94 13.76)" fill="#fff"/><path d="M8.76-7.22A1.49,1.49,0,0,1,7.28-5.73,1.49,1.49,0,0,1,5.79-7.22,1.49,1.49,0,0,1,7.28-8.71,1.49,1.49,0,0,1,8.76-7.22Z" transform="translate(22.94 13.76)" fill="#fff"/><path d="M21.26-12.27a1.48,1.48,0,0,1-1.48,1.49,1.49,1.49,0,0,1-1.49-1.49,1.49,1.49,0,0,1,1.49-1.48A1.48,1.48,0,0,1,21.26-12.27Z" transform="translate(22.94 13.76)" fill="#fff"/><path d="M17-7.22a1.49,1.49,0,0,1-1.48,1.49,1.49,1.49,0,0,1-1.49-1.49,1.49,1.49,0,0,1,1.49-1.49A1.49,1.49,0,0,1,17-7.22Z" transform="translate(22.94 13.76)" fill="#fff"/><circle cx="50.92" cy="1.49" r="1.49" fill="#fff"/><path d="M25.22-7.22a1.49,1.49,0,0,1-1.49,1.49,1.49,1.49,0,0,1-1.48-1.49,1.49,1.49,0,0,1,1.48-1.49A1.49,1.49,0,0,1,25.22-7.22Z" transform="translate(22.94 13.76)" fill="#fff"/><circle cx="59.18" cy="1.49" r="1.49" fill="#fff"/><path d="M33.48-7.22A1.49,1.49,0,0,1,32-5.73,1.49,1.49,0,0,1,30.5-7.22,1.49,1.49,0,0,1,32-8.71,1.49,1.49,0,0,1,33.48-7.22Z" transform="translate(22.94 13.76)" fill="#fff"/><path d="M45.92-12.27a1.49,1.49,0,0,1-1.49,1.49,1.49,1.49,0,0,1-1.49-1.49,1.49,1.49,0,0,1,1.49-1.48A1.49,1.49,0,0,1,45.92-12.27Z" transform="translate(22.94 13.76)" fill="#fff"/><path d="M41.68-7.22a1.49,1.49,0,0,1-1.49,1.49A1.49,1.49,0,0,1,38.7-7.22a1.49,1.49,0,0,1,1.49-1.49A1.49,1.49,0,0,1,41.68-7.22Z" transform="translate(22.94 13.76)" fill="#fff"/><path d="M54.17-12.27a1.48,1.48,0,0,1-1.48,1.49,1.49,1.49,0,0,1-1.49-1.49,1.49,1.49,0,0,1,1.49-1.48A1.48,1.48,0,0,1,54.17-12.27Z" transform="translate(22.94 13.76)" fill="#fff"/><path d="M49.93-7.22a1.49,1.49,0,0,1-1.48,1.49A1.49,1.49,0,0,1,47-7.22a1.49,1.49,0,0,1,1.49-1.49A1.49,1.49,0,0,1,49.93-7.22Z" transform="translate(22.94 13.76)" fill="#fff"/><path d="M62.39-12.27a1.49,1.49,0,0,1-1.49,1.49,1.49,1.49,0,0,1-1.49-1.49,1.49,1.49,0,0,1,1.49-1.48A1.49,1.49,0,0,1,62.39-12.27Z" transform="translate(22.94 13.76)" fill="#fff"/><path d="M58.15-7.22a1.49,1.49,0,0,1-1.49,1.49,1.49,1.49,0,0,1-1.49-1.49,1.49,1.49,0,0,1,1.49-1.49A1.49,1.49,0,0,1,58.15-7.22Z" transform="translate(22.94 13.76)" fill="#fff"/><path d="M70.58-12.27a1.48,1.48,0,0,1-1.48,1.49,1.49,1.49,0,0,1-1.49-1.49,1.49,1.49,0,0,1,1.49-1.48A1.48,1.48,0,0,1,70.58-12.27Z" transform="translate(22.94 13.76)" fill="#fff"/><path d="M66.34-7.22a1.49,1.49,0,0,1-1.48,1.49,1.49,1.49,0,0,1-1.49-1.49,1.49,1.49,0,0,1,1.49-1.49A1.49,1.49,0,0,1,66.34-7.22Z" transform="translate(22.94 13.76)" fill="#fff"/><path d="M74.6-7.22a1.49,1.49,0,0,1-1.48,1.49,1.49,1.49,0,0,1-1.49-1.49,1.49,1.49,0,0,1,1.49-1.49A1.49,1.49,0,0,1,74.6-7.22Z" transform="translate(22.94 13.76)" fill="#fff"/><path d="M-11.71-2.14A1.49,1.49,0,0,1-13.2-.65a1.49,1.49,0,0,1-1.48-1.49A1.49,1.49,0,0,1-13.2-3.63,1.49,1.49,0,0,1-11.71-2.14Z" transform="translate(22.94 13.76)" fill="#fff"/><path d="M-3.45-2.14A1.49,1.49,0,0,1-4.94-.65,1.49,1.49,0,0,1-6.42-2.14,1.49,1.49,0,0,1-4.94-3.63,1.49,1.49,0,0,1-3.45-2.14Z" transform="translate(22.94 13.76)" fill="#fff"/><path d="M4.81-2.14A1.49,1.49,0,0,1,3.32-.65,1.49,1.49,0,0,1,1.83-2.14,1.49,1.49,0,0,1,3.32-3.63,1.49,1.49,0,0,1,4.81-2.14Z" transform="translate(22.94 13.76)" fill="#fff"/><path d="M13-2.14A1.49,1.49,0,0,1,11.52-.65,1.49,1.49,0,0,1,10-2.14a1.49,1.49,0,0,1,1.49-1.49A1.49,1.49,0,0,1,13-2.14Z" transform="translate(22.94 13.76)" fill="#fff"/><path d="M21.26-2.14A1.49,1.49,0,0,1,19.78-.65a1.49,1.49,0,0,1-1.49-1.49,1.49,1.49,0,0,1,1.49-1.49A1.49,1.49,0,0,1,21.26-2.14Z" transform="translate(22.94 13.76)" fill="#fff"/><path d="M29.46-2.14A1.49,1.49,0,0,1,28-.65a1.49,1.49,0,0,1-1.48-1.49A1.49,1.49,0,0,1,28-3.63,1.49,1.49,0,0,1,29.46-2.14Z" transform="translate(22.94 13.76)" fill="#fff"/><path d="M37.72-2.14A1.49,1.49,0,0,1,36.23-.65a1.49,1.49,0,0,1-1.48-1.49,1.49,1.49,0,0,1,1.48-1.49A1.49,1.49,0,0,1,37.72-2.14Z" transform="translate(22.94 13.76)" fill="#fff"/><path d="M45.92-2.14A1.49,1.49,0,0,1,44.43-.65a1.49,1.49,0,0,1-1.49-1.49,1.49,1.49,0,0,1,1.49-1.49A1.49,1.49,0,0,1,45.92-2.14Z" transform="translate(22.94 13.76)" fill="#fff"/><path d="M54.17-2.14A1.49,1.49,0,0,1,52.69-.65,1.49,1.49,0,0,1,51.2-2.14a1.49,1.49,0,0,1,1.49-1.49A1.49,1.49,0,0,1,54.17-2.14Z" transform="translate(22.94 13.76)" fill="#fff"/><path d="M62.39-2.14A1.49,1.49,0,0,1,60.9-.65a1.49,1.49,0,0,1-1.49-1.49A1.49,1.49,0,0,1,60.9-3.63,1.49,1.49,0,0,1,62.39-2.14Z" transform="translate(22.94 13.76)" fill="#fff"/><path d="M70.58-2.14A1.49,1.49,0,0,1,69.1-.65a1.49,1.49,0,0,1-1.49-1.49A1.49,1.49,0,0,1,69.1-3.63,1.49,1.49,0,0,1,70.58-2.14Z" transform="translate(22.94 13.76)" fill="#fff"/><path d="M-7.69,2.91A1.49,1.49,0,0,1-9.18,4.39a1.48,1.48,0,0,1-1.48-1.48A1.49,1.49,0,0,1-9.18,1.42,1.49,1.49,0,0,1-7.69,2.91Z" transform="translate(22.94 13.76)" fill="#fff"/><circle cx="22.02" cy="16.67" r="1.49" fill="#fff"/><circle cx="30.22" cy="16.67" r="1.49" fill="#fff"/><circle cx="38.48" cy="16.67" r="1.49" fill="#fff"/><circle cx="46.68" cy="16.67" r="1.49" fill="#fff"/><path d="M33.48,2.91A1.49,1.49,0,1,1,32,1.42,1.49,1.49,0,0,1,33.48,2.91Z" transform="translate(22.94 13.76)" fill="#fff"/><path d="M41.68,2.91a1.49,1.49,0,1,1-1.49-1.49A1.49,1.49,0,0,1,41.68,2.91Z" transform="translate(22.94 13.76)" fill="#fff"/><circle cx="71.39" cy="16.67" r="1.49" fill="#fff"/><path d="M58.15,2.91a1.49,1.49,0,1,1-1.49-1.49A1.49,1.49,0,0,1,58.15,2.91Z" transform="translate(22.94 13.76)" fill="#fff"/><circle cx="87.8" cy="16.67" r="1.49" fill="#fff"/><circle cx="96.06" cy="16.67" r="1.49" fill="#fff"/><circle cx="9.75" cy="21.75" r="1.49" fill="#fff"/><circle cx="18.01" cy="21.75" r="1.49" fill="#fff"/><path d="M-7.69,13a1.49,1.49,0,0,1-1.49,1.49A1.49,1.49,0,0,1-10.66,13a1.48,1.48,0,0,1,1.48-1.48A1.49,1.49,0,0,1-7.69,13Z" transform="translate(22.94 13.76)" fill="#fff"/><circle cx="26.26" cy="21.75" r="1.49" fill="#fff"/><path d="M.57,13A1.49,1.49,0,0,1-.92,14.52,1.49,1.49,0,0,1-2.41,13,1.49,1.49,0,0,1-.92,11.55,1.49,1.49,0,0,1,.57,13Z" transform="translate(22.94 13.76)" fill="#fff"/><path d="M13,8A1.49,1.49,0,1,1,11.52,6.5,1.49,1.49,0,0,1,13,8Z" transform="translate(22.94 13.76)" fill="#fff"/><path d="M8.76,13a1.49,1.49,0,1,1-1.48-1.48A1.49,1.49,0,0,1,8.76,13Z" transform="translate(22.94 13.76)" fill="#fff"/><path d="M21.26,8a1.49,1.49,0,0,1-3,0,1.49,1.49,0,1,1,3,0Z" transform="translate(22.94 13.76)" fill="#fff"/><path d="M17,13a1.49,1.49,0,1,1-1.48-1.48A1.49,1.49,0,0,1,17,13Z" transform="translate(22.94 13.76)" fill="#fff"/><circle cx="50.92" cy="21.75" r="1.49" fill="#fff"/><path d="M25.22,13a1.49,1.49,0,1,1-3,0,1.49,1.49,0,0,1,3,0Z" transform="translate(22.94 13.76)" fill="#fff"/><circle cx="59.18" cy="21.75" r="1.49" fill="#fff"/><path d="M33.48,13A1.49,1.49,0,1,1,32,11.55,1.49,1.49,0,0,1,33.48,13Z" transform="translate(22.94 13.76)" fill="#fff"/><path d="M45.92,8A1.49,1.49,0,1,1,44.43,6.5,1.49,1.49,0,0,1,45.92,8Z" transform="translate(22.94 13.76)" fill="#fff"/><path d="M41.68,13a1.49,1.49,0,1,1-1.49-1.48A1.49,1.49,0,0,1,41.68,13Z" transform="translate(22.94 13.76)" fill="#fff"/><path d="M54.17,8a1.49,1.49,0,0,1-3,0,1.49,1.49,0,1,1,3,0Z" transform="translate(22.94 13.76)" fill="#fff"/><path d="M49.93,13a1.49,1.49,0,1,1-1.48-1.48A1.49,1.49,0,0,1,49.93,13Z" transform="translate(22.94 13.76)" fill="#fff"/><path d="M62.39,8A1.49,1.49,0,1,1,60.9,6.5,1.49,1.49,0,0,1,62.39,8Z" transform="translate(22.94 13.76)" fill="#fff"/><path d="M58.15,13a1.49,1.49,0,1,1-1.49-1.48A1.49,1.49,0,0,1,58.15,13Z" transform="translate(22.94 13.76)" fill="#fff"/><path d="M70.58,8a1.49,1.49,0,0,1-3,0,1.49,1.49,0,1,1,3,0Z" transform="translate(22.94 13.76)" fill="#fff"/><path d="M66.34,13a1.49,1.49,0,1,1-1.48-1.48A1.49,1.49,0,0,1,66.34,13Z" transform="translate(22.94 13.76)" fill="#fff"/><path d="M74.6,13a1.49,1.49,0,1,1-1.48-1.48A1.49,1.49,0,0,1,74.6,13Z" transform="translate(22.94 13.76)" fill="#fff"/><path d="M-11.71,18.11A1.49,1.49,0,0,1-13.2,19.6a1.49,1.49,0,0,1-1.48-1.49,1.48,1.48,0,0,1,1.48-1.48A1.48,1.48,0,0,1-11.71,18.11Z" transform="translate(22.94 13.76)" fill="#fff"/><path d="M-3.45,18.11A1.49,1.49,0,0,1-4.94,19.6a1.49,1.49,0,0,1-1.48-1.49,1.48,1.48,0,0,1,1.48-1.48A1.49,1.49,0,0,1-3.45,18.11Z" transform="translate(22.94 13.76)" fill="#fff"/><path d="M4.81,18.11a1.49,1.49,0,1,1-1.49-1.48A1.49,1.49,0,0,1,4.81,18.11Z" transform="translate(22.94 13.76)" fill="#fff"/><path d="M13,18.11a1.49,1.49,0,1,1-1.49-1.48A1.49,1.49,0,0,1,13,18.11Z" transform="translate(22.94 13.76)" fill="#fff"/><path d="M21.26,18.11a1.49,1.49,0,1,1-1.48-1.48A1.49,1.49,0,0,1,21.26,18.11Z" transform="translate(22.94 13.76)" fill="#fff"/><path d="M29.46,18.11a1.49,1.49,0,1,1-3,0,1.49,1.49,0,0,1,3,0Z" transform="translate(22.94 13.76)" fill="#fff"/><path d="M37.72,18.11a1.49,1.49,0,1,1-3,0,1.49,1.49,0,0,1,3,0Z" transform="translate(22.94 13.76)" fill="#fff"/><path d="M45.92,18.11a1.49,1.49,0,1,1-1.49-1.48A1.49,1.49,0,0,1,45.92,18.11Z" transform="translate(22.94 13.76)" fill="#fff"/><path d="M54.17,18.11a1.49,1.49,0,1,1-1.48-1.48A1.49,1.49,0,0,1,54.17,18.11Z" transform="translate(22.94 13.76)" fill="#fff"/><path d="M62.39,18.11a1.49,1.49,0,1,1-1.49-1.48A1.49,1.49,0,0,1,62.39,18.11Z" transform="translate(22.94 13.76)" fill="#fff"/><path d="M70.58,18.11a1.49,1.49,0,1,1-1.48-1.48A1.49,1.49,0,0,1,70.58,18.11Z" transform="translate(22.94 13.76)" fill="#fff"/><path d="M-7.69,23.16a1.49,1.49,0,0,1-1.49,1.49,1.49,1.49,0,0,1-1.48-1.49,1.49,1.49,0,0,1,1.48-1.49A1.49,1.49,0,0,1-7.69,23.16Z" transform="translate(22.94 13.76)" fill="#fff"/><circle cx="22.02" cy="36.92" r="1.49" fill="#fff"/><circle cx="30.22" cy="36.92" r="1.49" fill="#fff"/><circle cx="38.48" cy="36.92" r="1.49" fill="#fff"/><circle cx="46.68" cy="36.92" r="1.49" fill="#fff"/><path d="M33.48,23.16A1.49,1.49,0,1,1,32,21.67,1.49,1.49,0,0,1,33.48,23.16Z" transform="translate(22.94 13.76)" fill="#fff"/><path d="M41.68,23.16a1.49,1.49,0,1,1-1.49-1.49A1.49,1.49,0,0,1,41.68,23.16Z" transform="translate(22.94 13.76)" fill="#fff"/><circle cx="71.39" cy="36.92" r="1.49" fill="#fff"/><path d="M58.15,23.16a1.49,1.49,0,1,1-1.49-1.49A1.49,1.49,0,0,1,58.15,23.16Z" transform="translate(22.94 13.76)" fill="#fff"/><circle cx="87.8" cy="36.92" r="1.49" fill="#fff"/><circle cx="96.06" cy="36.92" r="1.49" fill="#fff"/><circle cx="9.75" cy="42" r="1.49" fill="#fff"/><circle cx="18.01" cy="42" r="1.49" fill="#fff"/><path d="M-7.69,33.29a1.49,1.49,0,0,1-1.49,1.48,1.48,1.48,0,0,1-1.48-1.48A1.48,1.48,0,0,1-9.18,31.8,1.49,1.49,0,0,1-7.69,33.29Z" transform="translate(22.94 13.76)" fill="#fff"/><circle cx="26.26" cy="42" r="1.49" fill="#fff"/><path d="M.57,33.29A1.49,1.49,0,0,1-.92,34.77a1.49,1.49,0,0,1-1.49-1.48A1.49,1.49,0,0,1-.92,31.8,1.49,1.49,0,0,1,.57,33.29Z" transform="translate(22.94 13.76)" fill="#fff"/><path d="M13,28.24a1.49,1.49,0,1,1-1.49-1.49A1.49,1.49,0,0,1,13,28.24Z" transform="translate(22.94 13.76)" fill="#fff"/><path d="M8.76,33.29A1.49,1.49,0,1,1,7.28,31.8,1.48,1.48,0,0,1,8.76,33.29Z" transform="translate(22.94 13.76)" fill="#fff"/><path d="M21.26,28.24a1.49,1.49,0,1,1-1.48-1.49A1.49,1.49,0,0,1,21.26,28.24Z" transform="translate(22.94 13.76)" fill="#fff"/><path d="M17,33.29a1.49,1.49,0,1,1-1.48-1.49A1.48,1.48,0,0,1,17,33.29Z" transform="translate(22.94 13.76)" fill="#fff"/><circle cx="50.92" cy="42" r="1.49" fill="#fff"/><path d="M25.22,33.29a1.49,1.49,0,1,1-1.49-1.49A1.49,1.49,0,0,1,25.22,33.29Z" transform="translate(22.94 13.76)" fill="#fff"/><circle cx="59.18" cy="42" r="1.49" fill="#fff"/><path d="M33.48,33.29A1.49,1.49,0,1,1,32,31.8,1.49,1.49,0,0,1,33.48,33.29Z" transform="translate(22.94 13.76)" fill="#fff"/><path d="M45.92,28.24a1.49,1.49,0,1,1-1.49-1.49A1.49,1.49,0,0,1,45.92,28.24Z" transform="translate(22.94 13.76)" fill="#fff"/><path d="M41.68,33.29a1.49,1.49,0,1,1-1.49-1.49A1.49,1.49,0,0,1,41.68,33.29Z" transform="translate(22.94 13.76)" fill="#fff"/><path d="M54.17,28.24a1.49,1.49,0,1,1-1.48-1.49A1.49,1.49,0,0,1,54.17,28.24Z" transform="translate(22.94 13.76)" fill="#fff"/><path d="M49.93,33.29a1.49,1.49,0,1,1-1.48-1.49A1.48,1.48,0,0,1,49.93,33.29Z" transform="translate(22.94 13.76)" fill="#fff"/><path d="M62.39,28.24a1.49,1.49,0,1,1-1.49-1.49A1.49,1.49,0,0,1,62.39,28.24Z" transform="translate(22.94 13.76)" fill="#fff"/><path d="M58.15,33.29a1.49,1.49,0,1,1-1.49-1.49A1.49,1.49,0,0,1,58.15,33.29Z" transform="translate(22.94 13.76)" fill="#fff"/><path d="M70.58,28.24a1.49,1.49,0,1,1-1.48-1.49A1.49,1.49,0,0,1,70.58,28.24Z" transform="translate(22.94 13.76)" fill="#fff"/><path d="M66.34,33.29a1.49,1.49,0,1,1-1.48-1.49A1.48,1.48,0,0,1,66.34,33.29Z" transform="translate(22.94 13.76)" fill="#fff"/><path d="M74.6,33.29a1.49,1.49,0,1,1-1.48-1.49A1.48,1.48,0,0,1,74.6,33.29Z" transform="translate(22.94 13.76)" fill="#fff"/><path d="M-11.71,38.37a1.48,1.48,0,0,1-1.49,1.48,1.48,1.48,0,0,1-1.48-1.48,1.48,1.48,0,0,1,1.48-1.49A1.48,1.48,0,0,1-11.71,38.37Z" transform="translate(22.94 13.76)" fill="#fff"/><path d="M-3.45,38.37a1.49,1.49,0,0,1-1.49,1.48,1.48,1.48,0,0,1-1.48-1.48,1.48,1.48,0,0,1,1.48-1.49A1.49,1.49,0,0,1-3.45,38.37Z" transform="translate(22.94 13.76)" fill="#fff"/><path d="M4.81,38.37a1.49,1.49,0,1,1-1.49-1.49A1.49,1.49,0,0,1,4.81,38.37Z" transform="translate(22.94 13.76)" fill="#fff"/><path d="M13,38.37a1.49,1.49,0,1,1-1.49-1.49A1.49,1.49,0,0,1,13,38.37Z" transform="translate(22.94 13.76)" fill="#fff"/><path d="M21.26,38.37a1.49,1.49,0,1,1-1.48-1.49A1.48,1.48,0,0,1,21.26,38.37Z" transform="translate(22.94 13.76)" fill="#fff"/><path d="M29.46,38.37A1.49,1.49,0,1,1,28,36.88,1.49,1.49,0,0,1,29.46,38.37Z" transform="translate(22.94 13.76)" fill="#fff"/><path d="M37.72,38.37a1.49,1.49,0,1,1-1.49-1.49A1.49,1.49,0,0,1,37.72,38.37Z" transform="translate(22.94 13.76)" fill="#fff"/><path d="M45.92,38.37a1.49,1.49,0,1,1-1.49-1.49A1.49,1.49,0,0,1,45.92,38.37Z" transform="translate(22.94 13.76)" fill="#fff"/><path d="M54.17,38.37a1.49,1.49,0,1,1-1.48-1.49A1.48,1.48,0,0,1,54.17,38.37Z" transform="translate(22.94 13.76)" fill="#fff"/><path d="M62.39,38.37a1.49,1.49,0,1,1-1.49-1.49A1.49,1.49,0,0,1,62.39,38.37Z" transform="translate(22.94 13.76)" fill="#fff"/><path d="M70.58,38.37a1.49,1.49,0,1,1-1.48-1.49A1.48,1.48,0,0,1,70.58,38.37Z" transform="translate(22.94 13.76)" fill="#fff"/><path d="M-7.69,43.41A1.49,1.49,0,0,1-9.18,44.9a1.49,1.49,0,0,1-1.48-1.49,1.49,1.49,0,0,1,1.48-1.49A1.49,1.49,0,0,1-7.69,43.41Z" transform="translate(22.94 13.76)" fill="#fff"/><circle cx="22.02" cy="57.17" r="1.49" fill="#fff"/><circle cx="30.22" cy="57.17" r="1.49" fill="#fff"/><circle cx="38.48" cy="57.17" r="1.49" fill="#fff"/><circle cx="46.68" cy="57.17" r="1.49" fill="#fff"/><path d="M33.48,43.41A1.49,1.49,0,1,1,32,41.92,1.49,1.49,0,0,1,33.48,43.41Z" transform="translate(22.94 13.76)" fill="#fff"/><path d="M41.68,43.41a1.49,1.49,0,1,1-1.49-1.49A1.49,1.49,0,0,1,41.68,43.41Z" transform="translate(22.94 13.76)" fill="#fff"/><circle cx="71.39" cy="57.17" r="1.49" fill="#fff"/><path d="M58.15,43.41a1.49,1.49,0,1,1-1.49-1.49A1.49,1.49,0,0,1,58.15,43.41Z" transform="translate(22.94 13.76)" fill="#fff"/><circle cx="87.8" cy="57.17" r="1.49" fill="#fff"/><circle cx="96.06" cy="57.17" r="1.49" fill="#fff"/><circle cx="9.75" cy="62.25" r="1.49" fill="#fff"/><circle cx="18.01" cy="62.25" r="1.49" fill="#fff"/><path d="M-7.69,53.54A1.49,1.49,0,0,1-9.18,55a1.48,1.48,0,0,1-1.48-1.48,1.49,1.49,0,0,1,1.48-1.49A1.49,1.49,0,0,1-7.69,53.54Z" transform="translate(22.94 13.76)" fill="#fff"/><circle cx="26.26" cy="62.25" r="1.49" fill="#fff"/><circle cx="22.02" cy="67.3" r="1.49" fill="#fff"/><path d="M13,48.49A1.49,1.49,0,1,1,11.52,47,1.49,1.49,0,0,1,13,48.49Z" transform="translate(22.94 13.76)" fill="#fff"/><circle cx="30.22" cy="67.3" r="1.49" fill="#fff"/><path d="M21.26,48.49A1.49,1.49,0,1,1,19.78,47,1.49,1.49,0,0,1,21.26,48.49Z" transform="translate(22.94 13.76)" fill="#fff"/><circle cx="38.48" cy="67.3" r="1.49" fill="#fff"/><circle cx="50.92" cy="62.25" r="1.49" fill="#fff"/><circle cx="46.68" cy="67.3" r="1.49" fill="#fff"/><circle cx="59.18" cy="62.25" r="1.49" fill="#fff"/><path d="M33.48,53.54A1.49,1.49,0,1,1,32,52.05,1.49,1.49,0,0,1,33.48,53.54Z" transform="translate(22.94 13.76)" fill="#fff"/><path d="M45.92,48.49A1.49,1.49,0,1,1,44.43,47,1.49,1.49,0,0,1,45.92,48.49Z" transform="translate(22.94 13.76)" fill="#fff"/><path d="M41.68,53.54a1.49,1.49,0,1,1-1.49-1.49A1.49,1.49,0,0,1,41.68,53.54Z" transform="translate(22.94 13.76)" fill="#fff"/><path d="M54.17,48.49A1.49,1.49,0,1,1,52.69,47,1.49,1.49,0,0,1,54.17,48.49Z" transform="translate(22.94 13.76)" fill="#fff"/><circle cx="71.39" cy="67.3" r="1.49" fill="#fff"/><path d="M62.39,48.49A1.49,1.49,0,1,1,60.9,47,1.49,1.49,0,0,1,62.39,48.49Z" transform="translate(22.94 13.76)" fill="#fff"/><path d="M58.15,53.54a1.49,1.49,0,1,1-1.49-1.49A1.49,1.49,0,0,1,58.15,53.54Z" transform="translate(22.94 13.76)" fill="#fff"/><path d="M70.58,48.49A1.49,1.49,0,1,1,69.1,47,1.49,1.49,0,0,1,70.58,48.49Z" transform="translate(22.94 13.76)" fill="#fff"/><circle cx="87.8" cy="67.3" r="1.49" fill="#fff"/><circle cx="96.06" cy="67.3" r="1.49" fill="#fff"/><circle cx="9.75" cy="72.38" r="1.49" fill="#fff"/><circle cx="18.01" cy="72.38" r="1.49" fill="#fff"/><circle cx="26.26" cy="72.38" r="1.49" fill="#fff"/><path d="M13,58.62a1.49,1.49,0,1,1-1.49-1.49A1.49,1.49,0,0,1,13,58.62Z" transform="translate(22.94 13.76)" fill="#fff"/><path d="M21.26,58.62a1.49,1.49,0,1,1-1.48-1.49A1.49,1.49,0,0,1,21.26,58.62Z" transform="translate(22.94 13.76)" fill="#fff"/><circle cx="50.92" cy="72.38" r="1.49" fill="#fff"/><circle cx="59.18" cy="72.38" r="1.49" fill="#fff"/><path d="M45.92,58.62a1.49,1.49,0,1,1-1.49-1.49A1.49,1.49,0,0,1,45.92,58.62Z" transform="translate(22.94 13.76)" fill="#fff"/><path d="M54.17,58.62a1.49,1.49,0,1,1-1.48-1.49A1.49,1.49,0,0,1,54.17,58.62Z" transform="translate(22.94 13.76)" fill="#fff"/><path d="M62.39,58.62a1.49,1.49,0,1,1-1.49-1.49A1.49,1.49,0,0,1,62.39,58.62Z" transform="translate(22.94 13.76)" fill="#fff"/><path d="M70.58,58.62a1.49,1.49,0,1,1-1.48-1.49A1.49,1.49,0,0,1,70.58,58.62Z" transform="translate(22.94 13.76)" fill="#fff"/><path d="M-7.69,63.66a1.49,1.49,0,0,1-1.49,1.49,1.48,1.48,0,0,1-1.48-1.49,1.48,1.48,0,0,1,1.48-1.48A1.49,1.49,0,0,1-7.69,63.66Z" transform="translate(22.94 13.76)" fill="#fff"/><path d="M.57,63.66A1.49,1.49,0,0,1-.92,65.15a1.49,1.49,0,0,1-1.49-1.49A1.49,1.49,0,0,1-.92,62.18,1.49,1.49,0,0,1,.57,63.66Z" transform="translate(22.94 13.76)" fill="#fff"/><path d="M8.76,63.66a1.49,1.49,0,1,1-1.48-1.48A1.48,1.48,0,0,1,8.76,63.66Z" transform="translate(22.94 13.76)" fill="#fff"/><path d="M17,63.66a1.49,1.49,0,1,1-1.48-1.48A1.48,1.48,0,0,1,17,63.66Z" transform="translate(22.94 13.76)" fill="#fff"/><path d="M25.22,63.66a1.49,1.49,0,1,1-1.49-1.48A1.49,1.49,0,0,1,25.22,63.66Z" transform="translate(22.94 13.76)" fill="#fff"/><path d="M33.48,63.66A1.49,1.49,0,1,1,32,62.18,1.49,1.49,0,0,1,33.48,63.66Z" transform="translate(22.94 13.76)" fill="#fff"/><path d="M41.68,63.66a1.49,1.49,0,1,1-1.49-1.48A1.49,1.49,0,0,1,41.68,63.66Z" transform="translate(22.94 13.76)" fill="#fff"/><path d="M49.93,63.66a1.49,1.49,0,1,1-1.48-1.48A1.48,1.48,0,0,1,49.93,63.66Z" transform="translate(22.94 13.76)" fill="#fff"/><path d="M58.15,63.66a1.49,1.49,0,1,1-1.49-1.48A1.49,1.49,0,0,1,58.15,63.66Z" transform="translate(22.94 13.76)" fill="#fff"/><path d="M66.34,63.66a1.49,1.49,0,1,1-1.48-1.48A1.48,1.48,0,0,1,66.34,63.66Z" transform="translate(22.94 13.76)" fill="#fff"/><path d="M74.6,63.66a1.49,1.49,0,1,1-1.48-1.48A1.48,1.48,0,0,1,74.6,63.66Z" transform="translate(22.94 13.76)" fill="#fff"/><path d="M-20-12.27a1.48,1.48,0,0,1-1.49,1.48,1.48,1.48,0,0,1-1.48-1.48,1.49,1.49,0,0,1,1.48-1.49A1.49,1.49,0,0,1-20-12.27Z" transform="translate(22.94 13.76)" fill="#fff"/><path d="M-15.95-7.23a1.49,1.49,0,0,1-1.49,1.49,1.49,1.49,0,0,1-1.48-1.49,1.48,1.48,0,0,1,1.48-1.48A1.49,1.49,0,0,1-15.95-7.23Z" transform="translate(22.94 13.76)" fill="#fff"/><circle cx="1.49" cy="11.61" r="1.49" fill="#fff"/><path d="M-15.95,2.9a1.49,1.49,0,0,1-1.49,1.49A1.49,1.49,0,0,1-18.92,2.9a1.49,1.49,0,0,1,1.48-1.49A1.49,1.49,0,0,1-15.95,2.9Z" transform="translate(22.94 13.76)" fill="#fff"/><circle cx="1.49" cy="21.74" r="1.49" fill="#fff"/><path d="M-15.95,13a1.49,1.49,0,0,1-1.49,1.48A1.48,1.48,0,0,1-18.92,13a1.48,1.48,0,0,1,1.48-1.49A1.49,1.49,0,0,1-15.95,13Z" transform="translate(22.94 13.76)" fill="#fff"/><path d="M-20,18.11a1.48,1.48,0,0,1-1.49,1.48,1.48,1.48,0,0,1-1.48-1.48,1.48,1.48,0,0,1,1.48-1.49A1.48,1.48,0,0,1-20,18.11Z" transform="translate(22.94 13.76)" fill="#fff"/><path d="M-15.95,23.15a1.49,1.49,0,0,1-1.49,1.49,1.49,1.49,0,0,1-1.48-1.49,1.49,1.49,0,0,1,1.48-1.49A1.49,1.49,0,0,1-15.95,23.15Z" transform="translate(22.94 13.76)" fill="#fff"/><circle cx="1.49" cy="41.99" r="1.49" fill="#fff"/><path d="M-15.95,33.28a1.49,1.49,0,0,1-1.49,1.48,1.48,1.48,0,0,1-1.48-1.48,1.49,1.49,0,0,1,1.48-1.49A1.49,1.49,0,0,1-15.95,33.28Z" transform="translate(22.94 13.76)" fill="#fff"/><path d="M-20,38.36a1.49,1.49,0,0,1-1.49,1.49,1.49,1.49,0,0,1-1.48-1.49,1.49,1.49,0,0,1,1.48-1.49A1.49,1.49,0,0,1-20,38.36Z" transform="translate(22.94 13.76)" fill="#fff"/><path d="M-15.95,43.4a1.49,1.49,0,0,1-1.49,1.49,1.48,1.48,0,0,1-1.48-1.49,1.48,1.48,0,0,1,1.48-1.48A1.49,1.49,0,0,1-15.95,43.4Z" transform="translate(22.94 13.76)" fill="#fff"/><circle cx="1.49" cy="62.24" r="1.49" fill="#fff"/><path d="M-15.95,53.53A1.49,1.49,0,0,1-17.44,55a1.49,1.49,0,0,1-1.48-1.49A1.49,1.49,0,0,1-17.44,52,1.49,1.49,0,0,1-15.95,53.53Z" transform="translate(22.94 13.76)" fill="#fff"/><path d="M-20,58.61a1.49,1.49,0,0,1-1.49,1.49,1.49,1.49,0,0,1-1.48-1.49,1.49,1.49,0,0,1,1.48-1.49A1.49,1.49,0,0,1-20,58.61Z" transform="translate(22.94 13.76)" fill="#fff"/><path d="M-15.95,63.66a1.49,1.49,0,0,1-1.49,1.48,1.48,1.48,0,0,1-1.48-1.48,1.48,1.48,0,0,1,1.48-1.49A1.49,1.49,0,0,1-15.95,63.66Z" transform="translate(22.94 13.76)" fill="#fff"/></g></g></g></svg>