<?xml version="1.0" encoding="utf-8"?>
<!-- Generator: Adobe Illustrator 24.1.1, SVG Export Plug-In . SVG Version: 6.00 Build 0)  -->
<svg version="1.1" id="Layer_1" xmlns="http://www.w3.org/2000/svg" xmlns:xlink="http://www.w3.org/1999/xlink" x="0px" y="0px"
	 viewBox="0 0 152.9 25.3" style="enable-background:new 0 0 152.9 25.3;" xml:space="preserve">
<style type="text/css">
	.st0{fill:#FFFFFF;}
</style>
<g id="Layer_2_1_">
	<g id="Ñëîé_1">
		<path class="st0" d="M58.1,25.3c-0.2,0-0.5-0.1-0.6-0.2L39.7,10.5L22,25.1c-0.4,0.3-0.9,0.3-1.3,0L0.4,8.4C0.2,8.2,0,7.9,0,7.7
			C0,7.4,0.1,7.2,0.2,7l4-5c0.4-0.4,1-0.5,1.4-0.1c0,0,0,0,0,0l15.7,12.9L39.1,0.2c0.4-0.3,0.9-0.3,1.3,0l17.7,14.5L75.8,0.2
			c0.4-0.3,0.9-0.3,1.3,0l17.7,14.5l17.7-14.5c0.4-0.3,0.9-0.3,1.3,0l17.7,14.5l15.7-12.9c0.2-0.2,0.5-0.2,0.7-0.2
			c0.3,0,0.5,0.2,0.7,0.4l4,4.9c0.4,0.4,0.3,1.1-0.1,1.4c0,0,0,0,0,0l-20.3,16.7c-0.4,0.3-0.9,0.3-1.3,0l-17.7-14.5L95.4,25.1
			c-0.4,0.3-0.9,0.3-1.3,0L76.4,10.5L58.7,25.1C58.5,25.2,58.3,25.3,58.1,25.3z M39.7,8.2c0.2,0,0.5,0.1,0.6,0.2L58.1,23L75.8,8.5
			c0.4-0.3,0.9-0.3,1.3,0L94.8,23l17.7-14.5c0.4-0.3,0.9-0.3,1.3,0L131.5,23l19-15.6l-2.8-3.4l-15.6,12.8c-0.4,0.3-0.9,0.3-1.3,0
			L113.1,2.3L95.4,16.8c-0.4,0.3-0.9,0.3-1.3,0L76.4,2.3L58.7,16.8c-0.4,0.3-0.9,0.3-1.3,0L39.7,2.3L22,16.8c-0.4,0.3-0.9,0.3-1.3,0
			L5.2,4.1L2.4,7.4l19,15.6L39.1,8.5C39.3,8.3,39.5,8.2,39.7,8.2z"/>
	</g>
</g>
</svg>
