<svg xmlns="http://www.w3.org/2000/svg" viewBox="0 0 44.62 44.38"><g id="Layer_2" data-name="Layer 2"><g id="Ñëîé_1" data-name="Ñëîé 1"><rect x="21.51" width="1.6" height="6.22" fill="#fff"/><rect x="13.68" y="1.66" width="1.6" height="6.22" transform="translate(-0.69 6.3) rotate(-24)" fill="#fff"/><rect x="7.21" y="6.37" width="1.6" height="6.22" transform="translate(-4.39 9.09) rotate(-48)" fill="#fff"/><rect x="3.21" y="13.29" width="1.6" height="6.22" transform="translate(-12.83 15.15) rotate(-72)" fill="#fff"/><rect x="0.07" y="23.56" width="6.22" height="1.6" transform="translate(-2.53 0.47) rotate(-6)" fill="#fff"/><rect x="2.54" y="31.17" width="6.22" height="1.6" transform="translate(-15.23 7.11) rotate(-30)" fill="#fff"/><rect x="7.89" y="37.11" width="6.22" height="1.6" transform="translate(-26.14 24.53) rotate(-54)" fill="#fff"/><rect x="15.2" y="40.37" width="6.22" height="1.6" transform="translate(-25.77 50.51) rotate(-77.99)" fill="#fff"/><rect x="25.51" y="38.06" width="1.6" height="6.22" transform="translate(-7.98 6.37) rotate(-12)" fill="#fff"/><rect x="32.82" y="34.8" width="1.6" height="6.22" transform="translate(-15.86 27) rotate(-36)" fill="#fff"/><rect x="38.17" y="28.86" width="1.6" height="6.22" transform="translate(-8.2 49.73) rotate(-60)" fill="#fff"/><rect x="40.64" y="21.25" width="1.6" height="6.22" transform="translate(12.89 63.03) rotate(-84)" fill="#fff"/><rect x="37.5" y="15.6" width="6.22" height="1.6" transform="translate(-3.08 13.35) rotate(-18)" fill="#fff"/><rect x="33.5" y="8.67" width="6.22" height="1.6" transform="translate(3.06 26.92) rotate(-41.99)" fill="#fff"/><rect x="27.03" y="3.97" width="6.22" height="1.6" transform="translate(13.52 30.36) rotate(-66)" fill="#fff"/></g></g></svg>