<svg xmlns="http://www.w3.org/2000/svg" viewBox="0 0 73.47 63.88"><g id="Layer_2" data-name="Layer 2"><g id="Ñëîé_1" data-name="Ñëîé 1"><path d="M38.47,2.2A2.2,2.2,0,1,1,36.27,0,2.2,2.2,0,0,1,38.47,2.2Z" fill="#fff"/><path d="M33.54,10.75a2.21,2.21,0,1,1-2.21-2.21A2.2,2.2,0,0,1,33.54,10.75Z" fill="#fff"/><circle cx="26.39" cy="19.28" r="2.2" fill="#fff"/><path d="M23.65,27.82a2.21,2.21,0,1,1-2.21-2.2A2.21,2.21,0,0,1,23.65,27.82Z" fill="#fff"/><path d="M18.71,36.37a2.21,2.21,0,1,1-2.21-2.21A2.2,2.2,0,0,1,18.71,36.37Z" fill="#fff"/><circle cx="11.56" cy="44.9" r="2.2" fill="#fff"/><path d="M8.83,53.44a2.21,2.21,0,1,1-2.21-2.2A2.21,2.21,0,0,1,8.83,53.44Z" fill="#fff"/><path d="M4.41,61.68a2.21,2.21,0,1,1-2.21-2.2A2.2,2.2,0,0,1,4.41,61.68Z" fill="#fff"/><path d="M43.43,10.75a2.21,2.21,0,1,1-2.21-2.21A2.2,2.2,0,0,1,43.43,10.75Z" fill="#fff"/><circle cx="36.28" cy="19.28" r="2.2" fill="#fff"/><path d="M33.54,27.82a2.21,2.21,0,1,1-2.2-2.2A2.21,2.21,0,0,1,33.54,27.82Z" fill="#fff"/><circle cx="26.4" cy="36.37" r="2.2" fill="#fff"/><circle cx="21.46" cy="44.9" r="2.2" fill="#fff"/><circle cx="16.51" cy="53.44" r="2.2" fill="#fff"/><path d="M14.3,61.68a2.21,2.21,0,1,1-2.2-2.2A2.2,2.2,0,0,1,14.3,61.68Z" fill="#fff"/><path d="M48.38,19.28a2.21,2.21,0,1,1-2.21-2.2A2.21,2.21,0,0,1,48.38,19.28Z" fill="#fff"/><path d="M43.43,27.82a2.21,2.21,0,1,1-2.2-2.2A2.2,2.2,0,0,1,43.43,27.82Z" fill="#fff"/><circle cx="36.29" cy="36.37" r="2.2" fill="#fff"/><circle cx="31.35" cy="44.9" r="2.2" fill="#fff"/><path d="M28.61,53.44a2.21,2.21,0,1,1-2.2-2.2A2.21,2.21,0,0,1,28.61,53.44Z" fill="#fff"/><path d="M24.19,61.68a2.21,2.21,0,1,1-2.2-2.2A2.19,2.19,0,0,1,24.19,61.68Z" fill="#fff"/><path d="M53.25,27.82A2.21,2.21,0,1,1,51,25.62,2.21,2.21,0,0,1,53.25,27.82Z" fill="#fff"/><path d="M48.31,36.37a2.21,2.21,0,1,1-2.21-2.21A2.21,2.21,0,0,1,48.31,36.37Z" fill="#fff"/><path d="M43.37,44.9a2.21,2.21,0,1,1-2.21-2.21A2.21,2.21,0,0,1,43.37,44.9Z" fill="#fff"/><path d="M38.43,53.44a2.21,2.21,0,1,1-2.21-2.2A2.21,2.21,0,0,1,38.43,53.44Z" fill="#fff"/><path d="M34,61.68a2.21,2.21,0,1,1-2.21-2.21A2.21,2.21,0,0,1,34,61.68Z" fill="#fff"/><path d="M58.17,36.37A2.2,2.2,0,1,1,56,34.16,2.2,2.2,0,0,1,58.17,36.37Z" fill="#fff"/><path d="M53.23,44.9A2.2,2.2,0,1,1,51,42.69,2.2,2.2,0,0,1,53.23,44.9Z" fill="#fff"/><path d="M48.29,53.44a2.21,2.21,0,1,1-2.2-2.2A2.2,2.2,0,0,1,48.29,53.44Z" fill="#fff"/><path d="M43.87,61.68a2.2,2.2,0,1,1-2.2-2.21A2.2,2.2,0,0,1,43.87,61.68Z" fill="#fff"/><circle cx="60.89" cy="44.9" r="2.2" fill="#fff"/><path d="M58.16,53.44A2.21,2.21,0,1,1,56,51.24,2.21,2.21,0,0,1,58.16,53.44Z" fill="#fff"/><path d="M53.74,61.68a2.21,2.21,0,1,1-2.2-2.21A2.21,2.21,0,0,1,53.74,61.68Z" fill="#fff"/><circle cx="66.33" cy="53.09" r="2.2" fill="#fff"/><path d="M63.59,61.64a2.21,2.21,0,1,1-2.21-2.2A2.2,2.2,0,0,1,63.59,61.64Z" fill="#fff"/><path d="M73.47,61.64a2.21,2.21,0,1,1-2.2-2.2A2.2,2.2,0,0,1,73.47,61.64Z" fill="#fff"/></g></g></svg>