<svg xmlns="http://www.w3.org/2000/svg" viewBox="0 0 52.03 52.54"><g id="Layer_2" data-name="Layer 2"><g id="Ñëîé_1" data-name="Ñëîé 1"><path d="M7,6H0L3.48,0Z" fill="#fff"/><path d="M16,6H9l3.48-6Z" fill="#fff"/><path d="M25,6H18l3.49-6Z" fill="#fff"/><path d="M34,6H27l3.49-6Z" fill="#fff"/><path d="M43,6H36l3.48-6Z" fill="#fff"/><path d="M52,6H45l3.48-6Z" fill="#fff"/><path d="M7,13.77H0l3.48-6Z" fill="#fff"/><path d="M16,13.77H9l3.48-6Z" fill="#fff"/><path d="M25,13.77H18l3.49-6Z" fill="#fff"/><path d="M34,13.77H27q1.76-3,3.49-6Z" fill="#fff"/><path d="M43,13.77H36l3.48-6Z" fill="#fff"/><path d="M52,13.77H45l3.48-6Z" fill="#fff"/><path d="M7,21.53H0l3.48-6Z" fill="#fff"/><path d="M16,21.53H9l3.48-6Z" fill="#fff"/><path d="M25,21.53H18l3.49-6Z" fill="#fff"/><path d="M34,21.53H27l3.49-6Z" fill="#fff"/><path d="M43,21.53H36l3.48-6Z" fill="#fff"/><path d="M52,21.53H45l3.48-6Z" fill="#fff"/><path d="M7,29.28H0l3.48-6Z" fill="#fff"/><path d="M16,29.28H9l3.48-6Z" fill="#fff"/><path d="M25,29.28H18l3.49-6Z" fill="#fff"/><path d="M34,29.28H27l3.49-6Z" fill="#fff"/><path d="M43,29.28H36l3.48-6Z" fill="#fff"/><path d="M52,29.28H45l3.48-6Z" fill="#fff"/><path d="M7,37H0l3.48-6Z" fill="#fff"/><path d="M16,37H9l3.48-6Z" fill="#fff"/><path d="M25,37H18l3.49-6Z" fill="#fff"/><path d="M34,37H27c1.17-2,2.33-4,3.49-6Z" fill="#fff"/><path d="M43,37H36l3.48-6Z" fill="#fff"/><path d="M52,37H45l3.48-6Z" fill="#fff"/><path d="M7,44.79H0l3.48-6Z" fill="#fff"/><path d="M16,44.79H9l3.48-6Z" fill="#fff"/><path d="M25,44.79H18l3.49-6Z" fill="#fff"/><path d="M34,44.79H27l3.49-6Z" fill="#fff"/><path d="M43,44.79H36l3.48-6Z" fill="#fff"/><path d="M52,44.79H45l3.48-6Z" fill="#fff"/><path d="M7,52.54H0l3.48-6Z" fill="#fff"/><path d="M16,52.54H9l3.48-6Z" fill="#fff"/><path d="M25,52.54H18l3.49-6Z" fill="#fff"/><path d="M34,52.54H27q1.76-3,3.49-6Z" fill="#fff"/><path d="M43,52.54H36l3.48-6Z" fill="#fff"/><path d="M52,52.54H45l3.48-6Z" fill="#fff"/></g></g></svg>