<svg xmlns="http://www.w3.org/2000/svg" viewBox="0 0 21.6 118.13"><g id="Layer_2" data-name="Layer 2"><g id="Ñëîé_1" data-name="Ñëîé 1"><path d="M1.2,17.33A1.2,1.2,0,0,1,0,16.13V1.2a1.2,1.2,0,0,1,2.4,0V16.13A1.2,1.2,0,0,1,1.2,17.33Z" fill="#fff"/><path d="M10,26.13a1.2,1.2,0,0,1-1.2-1.2V10a1.2,1.2,0,0,1,2.4,0V24.93A1.2,1.2,0,0,1,10,26.13Z" fill="#fff"/><path d="M20.4,19.73a1.2,1.2,0,0,1-1.2-1.2V3.6a1.2,1.2,0,1,1,2.4,0V18.53A1.2,1.2,0,0,1,20.4,19.73Z" fill="#fff"/><path d="M1.2,40.53A1.2,1.2,0,0,1,0,39.33V24.4a1.2,1.2,0,0,1,2.4,0V39.33A1.2,1.2,0,0,1,1.2,40.53Z" fill="#fff"/><path d="M10,49.33a1.2,1.2,0,0,1-1.2-1.2V33.2a1.2,1.2,0,1,1,2.4,0V48.13A1.2,1.2,0,0,1,10,49.33Z" fill="#fff"/><path d="M20.4,42.93a1.2,1.2,0,0,1-1.2-1.2V26.8a1.2,1.2,0,0,1,2.4,0V41.73A1.2,1.2,0,0,1,20.4,42.93Z" fill="#fff"/><path d="M1.2,62.13A1.2,1.2,0,0,1,0,60.93V46a1.2,1.2,0,0,1,2.4,0V60.93A1.2,1.2,0,0,1,1.2,62.13Z" fill="#fff"/><path d="M10,70.93a1.2,1.2,0,0,1-1.2-1.2V54.8a1.2,1.2,0,0,1,2.4,0V69.73A1.2,1.2,0,0,1,10,70.93Z" fill="#fff"/><path d="M20.4,64.53a1.2,1.2,0,0,1-1.2-1.2V48.4a1.2,1.2,0,0,1,2.4,0V63.33A1.2,1.2,0,0,1,20.4,64.53Z" fill="#fff"/><path d="M1.2,85.33A1.2,1.2,0,0,1,0,84.13V69.2a1.2,1.2,0,1,1,2.4,0V84.13A1.2,1.2,0,0,1,1.2,85.33Z" fill="#fff"/><path d="M10,94.13a1.2,1.2,0,0,1-1.2-1.2V78a1.2,1.2,0,0,1,2.4,0V92.93A1.2,1.2,0,0,1,10,94.13Z" fill="#fff"/><path d="M20.4,87.73a1.2,1.2,0,0,1-1.2-1.2V71.6a1.2,1.2,0,1,1,2.4,0V86.53A1.2,1.2,0,0,1,20.4,87.73Z" fill="#fff"/><path d="M1.2,109.33a1.2,1.2,0,0,1-1.2-1.2V93.2a1.2,1.2,0,1,1,2.4,0v14.93A1.2,1.2,0,0,1,1.2,109.33Z" fill="#fff"/><path d="M10,118.13a1.2,1.2,0,0,1-1.2-1.2V102a1.2,1.2,0,0,1,2.4,0v14.93A1.2,1.2,0,0,1,10,118.13Z" fill="#fff"/><path d="M20.4,111.73a1.2,1.2,0,0,1-1.2-1.2V95.6a1.2,1.2,0,0,1,2.4,0v14.93A1.2,1.2,0,0,1,20.4,111.73Z" fill="#fff"/></g></g></svg>