<svg xmlns="http://www.w3.org/2000/svg" viewBox="0 0 44.88 73.54"><g id="Layer_2" data-name="Layer 2"><g id="Ñëîé_1" data-name="Ñëîé 1"><circle cx="9.08" cy="1.39" r="1.39" fill="#fff"/><circle cx="16.78" cy="1.39" r="1.39" fill="#fff"/><circle cx="12.83" cy="6.1" r="1.39" fill="#fff"/><circle cx="24.48" cy="1.39" r="1.39" fill="#fff"/><path d="M21.91,6.1a1.39,1.39,0,1,1-1.39-1.39A1.38,1.38,0,0,1,21.91,6.1Z" fill="#fff"/><circle cx="32.11" cy="1.39" r="1.39" fill="#fff"/><circle cx="28.16" cy="6.1" r="1.39" fill="#fff"/><circle cx="39.81" cy="1.39" r="1.39" fill="#fff"/><circle cx="35.86" cy="6.1" r="1.39" fill="#fff"/><circle cx="43.5" cy="6.1" r="1.39" fill="#fff"/><circle cx="9.08" cy="10.83" r="1.39" fill="#fff"/><circle cx="16.78" cy="10.83" r="1.39" fill="#fff"/><circle cx="24.48" cy="10.83" r="1.39" fill="#fff"/><circle cx="32.11" cy="10.83" r="1.39" fill="#fff"/><circle cx="39.81" cy="10.83" r="1.39" fill="#fff"/><circle cx="12.83" cy="15.53" r="1.39" fill="#fff"/><path d="M21.91,15.53a1.39,1.39,0,1,1-1.39-1.38A1.39,1.39,0,0,1,21.91,15.53Z" fill="#fff"/><circle cx="28.16" cy="15.53" r="1.39" fill="#fff"/><circle cx="35.86" cy="15.53" r="1.39" fill="#fff"/><circle cx="43.5" cy="15.53" r="1.39" fill="#fff"/><circle cx="9.08" cy="20.27" r="1.39" fill="#fff"/><circle cx="16.78" cy="20.27" r="1.39" fill="#fff"/><circle cx="12.83" cy="24.97" r="1.39" fill="#fff"/><circle cx="24.48" cy="20.27" r="1.39" fill="#fff"/><path d="M21.91,25a1.39,1.39,0,1,1-1.39-1.39A1.38,1.38,0,0,1,21.91,25Z" fill="#fff"/><circle cx="32.11" cy="20.27" r="1.39" fill="#fff"/><circle cx="28.16" cy="24.97" r="1.39" fill="#fff"/><circle cx="39.81" cy="20.27" r="1.39" fill="#fff"/><circle cx="35.86" cy="24.97" r="1.39" fill="#fff"/><circle cx="43.5" cy="24.97" r="1.39" fill="#fff"/><circle cx="9.08" cy="29.7" r="1.39" fill="#fff"/><circle cx="16.78" cy="29.7" r="1.39" fill="#fff"/><circle cx="24.48" cy="29.7" r="1.39" fill="#fff"/><circle cx="32.11" cy="29.7" r="1.39" fill="#fff"/><circle cx="39.81" cy="29.7" r="1.39" fill="#fff"/><circle cx="12.83" cy="34.41" r="1.39" fill="#fff"/><path d="M21.91,34.41A1.39,1.39,0,1,1,20.52,33,1.38,1.38,0,0,1,21.91,34.41Z" fill="#fff"/><circle cx="28.16" cy="34.41" r="1.39" fill="#fff"/><circle cx="35.86" cy="34.41" r="1.39" fill="#fff"/><circle cx="43.5" cy="34.41" r="1.39" fill="#fff"/><circle cx="9.08" cy="39.14" r="1.39" fill="#fff"/><circle cx="16.78" cy="39.14" r="1.39" fill="#fff"/><circle cx="12.83" cy="43.84" r="1.39" fill="#fff"/><circle cx="24.48" cy="39.14" r="1.39" fill="#fff"/><path d="M21.91,43.84a1.39,1.39,0,1,1-1.39-1.38A1.39,1.39,0,0,1,21.91,43.84Z" fill="#fff"/><circle cx="32.11" cy="39.14" r="1.39" fill="#fff"/><circle cx="28.16" cy="43.84" r="1.39" fill="#fff"/><circle cx="39.81" cy="39.14" r="1.39" fill="#fff"/><circle cx="35.86" cy="43.84" r="1.39" fill="#fff"/><circle cx="43.5" cy="43.84" r="1.39" fill="#fff"/><circle cx="9.08" cy="48.58" r="1.39" fill="#fff"/><circle cx="16.78" cy="48.58" r="1.39" fill="#fff"/><circle cx="24.48" cy="48.58" r="1.39" fill="#fff"/><circle cx="32.11" cy="48.58" r="1.39" fill="#fff"/><circle cx="39.81" cy="48.58" r="1.39" fill="#fff"/><circle cx="12.83" cy="53.28" r="1.39" fill="#fff"/><path d="M21.91,53.28a1.39,1.39,0,1,1-1.39-1.39A1.38,1.38,0,0,1,21.91,53.28Z" fill="#fff"/><circle cx="28.16" cy="53.28" r="1.39" fill="#fff"/><circle cx="35.86" cy="53.28" r="1.39" fill="#fff"/><circle cx="43.5" cy="53.28" r="1.39" fill="#fff"/><circle cx="9.08" cy="58.01" r="1.39" fill="#fff"/><circle cx="16.78" cy="58.01" r="1.39" fill="#fff"/><circle cx="12.83" cy="62.71" r="1.39" fill="#fff"/><circle cx="24.48" cy="58.01" r="1.39" fill="#fff"/><path d="M21.91,62.71a1.39,1.39,0,1,1-1.39-1.38A1.39,1.39,0,0,1,21.91,62.71Z" fill="#fff"/><circle cx="32.11" cy="58.01" r="1.39" fill="#fff"/><circle cx="28.16" cy="62.71" r="1.39" fill="#fff"/><circle cx="39.81" cy="58.01" r="1.39" fill="#fff"/><circle cx="35.86" cy="62.71" r="1.39" fill="#fff"/><circle cx="43.5" cy="62.71" r="1.39" fill="#fff"/><circle cx="9.08" cy="67.45" r="1.39" fill="#fff"/><circle cx="16.78" cy="67.45" r="1.39" fill="#fff"/><circle cx="24.48" cy="67.45" r="1.39" fill="#fff"/><circle cx="32.11" cy="67.45" r="1.39" fill="#fff"/><circle cx="39.81" cy="67.45" r="1.39" fill="#fff"/><circle cx="12.83" cy="72.15" r="1.39" fill="#fff"/><path d="M21.91,72.15a1.39,1.39,0,1,1-1.39-1.38A1.39,1.39,0,0,1,21.91,72.15Z" fill="#fff"/><circle cx="28.16" cy="72.15" r="1.39" fill="#fff"/><circle cx="35.86" cy="72.15" r="1.39" fill="#fff"/><circle cx="43.5" cy="72.15" r="1.39" fill="#fff"/><circle cx="1.39" cy="1.39" r="1.39" fill="#fff"/><circle cx="5.13" cy="6.09" r="1.39" fill="#fff"/><circle cx="1.39" cy="10.82" r="1.39" fill="#fff"/><circle cx="5.13" cy="15.52" r="1.39" fill="#fff"/><circle cx="1.39" cy="20.26" r="1.39" fill="#fff"/><circle cx="5.13" cy="24.96" r="1.39" fill="#fff"/><circle cx="1.39" cy="29.7" r="1.39" fill="#fff"/><circle cx="5.13" cy="34.4" r="1.39" fill="#fff"/><circle cx="1.39" cy="39.13" r="1.39" fill="#fff"/><circle cx="5.13" cy="43.83" r="1.39" fill="#fff"/><circle cx="1.39" cy="48.57" r="1.39" fill="#fff"/><circle cx="5.13" cy="53.27" r="1.39" fill="#fff"/><circle cx="1.39" cy="58.01" r="1.39" fill="#fff"/><circle cx="5.13" cy="62.71" r="1.39" fill="#fff"/><circle cx="1.39" cy="67.44" r="1.39" fill="#fff"/><circle cx="5.13" cy="72.14" r="1.39" fill="#fff"/></g></g></svg>