<svg xmlns="http://www.w3.org/2000/svg" viewBox="0 0 69.46 21"><g id="Layer_2" data-name="Layer 2"><g id="Ñëîé_1" data-name="Ñëîé 1"><path d="M68.26,7.67C66,7.67,64,6.22,62,4.82,60.3,3.63,58.56,2.4,57.08,2.4s-3.21,1.23-4.89,2.42c-2,1.4-4,2.85-6.28,2.85s-4.3-1.45-6.28-2.85C38,3.63,36.21,2.4,34.73,2.4s-3.22,1.23-4.89,2.42c-2,1.4-4,2.85-6.29,2.85s-4.29-1.45-6.28-2.85C15.59,3.63,13.86,2.4,12.38,2.4S9.16,3.63,7.48,4.82c-2,1.4-4,2.85-6.28,2.85a1.2,1.2,0,0,1,0-2.4c1.48,0,3.22-1.22,4.9-2.41,2-1.41,4-2.86,6.28-2.86s4.29,1.45,6.28,2.86c1.68,1.19,3.41,2.41,4.89,2.41s3.22-1.22,4.9-2.41c2-1.41,4-2.86,6.28-2.86S39,1.45,41,2.86c1.68,1.19,3.42,2.41,4.9,2.41s3.21-1.22,4.89-2.41c2-1.41,4-2.86,6.28-2.86s4.3,1.45,6.29,2.86C65,4.05,66.78,5.27,68.26,5.27a1.2,1.2,0,1,1,0,2.4Z" fill="#fff"/><path d="M68.26,14.34C66,14.34,64,12.88,62,11.48c-1.68-1.19-3.42-2.42-4.9-2.42s-3.21,1.23-4.89,2.42c-2,1.4-4,2.86-6.28,2.86s-4.3-1.46-6.28-2.86c-1.68-1.19-3.42-2.42-4.9-2.42s-3.22,1.23-4.89,2.42c-2,1.4-4,2.86-6.29,2.86s-4.29-1.46-6.28-2.86c-1.68-1.19-3.41-2.42-4.89-2.42s-3.22,1.23-4.9,2.42c-2,1.4-4,2.86-6.28,2.86a1.2,1.2,0,0,1,0-2.4c1.48,0,3.22-1.23,4.9-2.42,2-1.4,4-2.86,6.28-2.86s4.29,1.46,6.28,2.86c1.68,1.19,3.41,2.42,4.89,2.42s3.22-1.23,4.9-2.42c2-1.4,4-2.86,6.28-2.86S39,8.12,41,9.52c1.68,1.19,3.42,2.42,4.9,2.42s3.21-1.23,4.89-2.42c2-1.4,4-2.86,6.28-2.86s4.3,1.46,6.29,2.86c1.67,1.19,3.41,2.42,4.89,2.42a1.2,1.2,0,1,1,0,2.4Z" fill="#fff"/><path d="M68.26,21C66,21,64,19.55,62,18.14c-1.68-1.19-3.42-2.41-4.9-2.41S53.87,17,52.19,18.14c-2,1.41-4,2.86-6.28,2.86s-4.3-1.45-6.28-2.86C38,17,36.21,15.73,34.73,15.73S31.51,17,29.84,18.14c-2,1.41-4,2.86-6.29,2.86s-4.29-1.45-6.28-2.86c-1.68-1.19-3.41-2.41-4.89-2.41S9.16,17,7.48,18.14C5.5,19.55,3.44,21,1.2,21a1.2,1.2,0,1,1,0-2.4c1.48,0,3.22-1.23,4.9-2.42,2-1.4,4-2.85,6.28-2.85s4.29,1.45,6.28,2.85c1.68,1.19,3.41,2.42,4.89,2.42s3.22-1.23,4.9-2.42c2-1.4,4-2.85,6.28-2.85S39,14.78,41,16.18c1.68,1.19,3.42,2.42,4.9,2.42s3.21-1.23,4.89-2.42c2-1.4,4-2.85,6.28-2.85s4.3,1.45,6.29,2.85c1.67,1.19,3.41,2.42,4.89,2.42a1.2,1.2,0,1,1,0,2.4Z" fill="#fff"/></g></g></svg>