<svg xmlns="http://www.w3.org/2000/svg" viewBox="0 0 84.69 100.39"><g id="Layer_2" data-name="Layer 2"><g id="Ñëîé_1" data-name="Ñëîé 1"><circle cx="32.12" cy="32.12" r="32.12" fill="#fff"/><circle cx="81.89" cy="28.17" r="2.81" fill="#fff"/><circle cx="81.94" cy="37.61" r="2.66" fill="#fff"/><path d="M81.94,48.84a2.49,2.49,0,1,1,2.49-2.49A2.49,2.49,0,0,1,81.94,48.84Z" fill="#fff"/><path d="M82,57.08a2.29,2.29,0,1,1,2.29-2.28A2.28,2.28,0,0,1,82,57.08Z" fill="#fff"/><path d="M81.89,64.91a2.16,2.16,0,1,1,2.16-2.16A2.17,2.17,0,0,1,81.89,64.91Z" fill="#fff"/><path d="M81.89,72.72a2,2,0,1,1,2-2A2,2,0,0,1,81.89,72.72Z" fill="#fff"/><path d="M81.89,79.45a1.9,1.9,0,1,1,1.89-1.89A1.9,1.9,0,0,1,81.89,79.45Z" fill="#fff"/><path d="M81.89,85.5a1.73,1.73,0,1,1,1.73-1.73A1.73,1.73,0,0,1,81.89,85.5Z" fill="#fff"/><path d="M81.89,91.17a1.55,1.55,0,1,1,1.54-1.55A1.54,1.54,0,0,1,81.89,91.17Z" fill="#fff"/><path d="M81.89,95.74a1.32,1.32,0,1,1,1.32-1.32A1.33,1.33,0,0,1,81.89,95.74Z" fill="#fff"/><path d="M81.89,100.39a1.2,1.2,0,1,1,1.19-1.19A1.19,1.19,0,0,1,81.89,100.39Z" fill="#fff"/><path d="M73.81,31a2.81,2.81,0,1,1,2.81-2.81A2.81,2.81,0,0,1,73.81,31Z" fill="#fff"/><path d="M73.87,40.26a2.66,2.66,0,1,1,2.65-2.65A2.65,2.65,0,0,1,73.87,40.26Z" fill="#fff"/><path d="M73.87,48.84a2.49,2.49,0,1,1,2.49-2.49A2.48,2.48,0,0,1,73.87,48.84Z" fill="#fff"/><circle cx="73.92" cy="54.8" r="2.29" fill="#fff"/><path d="M73.81,64.91A2.16,2.16,0,1,1,76,62.75,2.16,2.16,0,0,1,73.81,64.91Z" fill="#fff"/><path d="M73.81,72.72a2,2,0,1,1,2-2A2,2,0,0,1,73.81,72.72Z" fill="#fff"/><path d="M73.81,79.45a1.9,1.9,0,1,1,1.89-1.89A1.89,1.89,0,0,1,73.81,79.45Z" fill="#fff"/><path d="M73.81,85.5a1.73,1.73,0,1,1,1.74-1.73A1.73,1.73,0,0,1,73.81,85.5Z" fill="#fff"/><path d="M73.81,91.17a1.55,1.55,0,1,1,1.54-1.55A1.54,1.54,0,0,1,73.81,91.17Z" fill="#fff"/><path d="M73.81,95.74a1.32,1.32,0,1,1,1.32-1.32A1.32,1.32,0,0,1,73.81,95.74Z" fill="#fff"/><circle cx="73.81" cy="99.2" r="1.19" fill="#fff"/><circle cx="65.74" cy="28.17" r="2.81" fill="#fff"/><circle cx="65.79" cy="37.61" r="2.66" fill="#fff"/><path d="M65.79,48.84a2.49,2.49,0,1,1,2.49-2.49A2.49,2.49,0,0,1,65.79,48.84Z" fill="#fff"/><circle cx="65.85" cy="54.8" r="2.29" fill="#fff"/><path d="M65.74,64.91a2.16,2.16,0,1,1,2.16-2.16A2.16,2.16,0,0,1,65.74,64.91Z" fill="#fff"/><path d="M65.74,72.72a2,2,0,1,1,2-2A2,2,0,0,1,65.74,72.72Z" fill="#fff"/><path d="M65.74,79.45a1.9,1.9,0,1,1,1.89-1.89A1.89,1.89,0,0,1,65.74,79.45Z" fill="#fff"/><path d="M65.74,85.5a1.73,1.73,0,1,1,1.73-1.73A1.72,1.72,0,0,1,65.74,85.5Z" fill="#fff"/><path d="M65.74,91.17a1.55,1.55,0,1,1,1.54-1.55A1.54,1.54,0,0,1,65.74,91.17Z" fill="#fff"/><path d="M65.74,95.74a1.32,1.32,0,1,1,1.32-1.32A1.32,1.32,0,0,1,65.74,95.74Z" fill="#fff"/><path d="M65.74,100.39a1.2,1.2,0,1,1,1.19-1.19A1.19,1.19,0,0,1,65.74,100.39Z" fill="#fff"/><path d="M57.67,31a2.81,2.81,0,1,1,2.8-2.81A2.81,2.81,0,0,1,57.67,31Z" fill="#fff"/><circle cx="57.72" cy="37.61" r="2.66" transform="translate(0.78 76.39) rotate(-67.35)" fill="#fff"/><path d="M57.72,48.84a2.49,2.49,0,1,1,2.49-2.49A2.49,2.49,0,0,1,57.72,48.84Z" fill="#fff"/><path d="M57.77,57.08a2.29,2.29,0,1,1,2.29-2.28A2.28,2.28,0,0,1,57.77,57.08Z" fill="#fff"/><path d="M57.67,64.91a2.16,2.16,0,1,1,2.16-2.16A2.17,2.17,0,0,1,57.67,64.91Z" fill="#fff"/><path d="M57.67,72.72a2,2,0,1,1,2-2A2,2,0,0,1,57.67,72.72Z" fill="#fff"/><path d="M57.67,79.45a1.9,1.9,0,1,1,1.89-1.89A1.9,1.9,0,0,1,57.67,79.45Z" fill="#fff"/><path d="M57.67,85.5a1.73,1.73,0,1,1,1.73-1.73A1.73,1.73,0,0,1,57.67,85.5Z" fill="#fff"/><path d="M57.67,91.17a1.55,1.55,0,1,1,1.54-1.55A1.54,1.54,0,0,1,57.67,91.17Z" fill="#fff"/><path d="M57.67,95.74A1.32,1.32,0,1,1,59,94.42,1.33,1.33,0,0,1,57.67,95.74Z" fill="#fff"/><circle cx="57.67" cy="99.2" r="1.19" fill="#fff"/><circle cx="49.59" cy="28.17" r="2.81" fill="#fff"/><path d="M49.65,40.26a2.66,2.66,0,1,1,2.65-2.65A2.65,2.65,0,0,1,49.65,40.26Z" fill="#fff"/><path d="M49.65,48.84a2.49,2.49,0,1,1,2.49-2.49A2.48,2.48,0,0,1,49.65,48.84Z" fill="#fff"/><path d="M49.7,57.08A2.29,2.29,0,1,1,52,54.8,2.29,2.29,0,0,1,49.7,57.08Z" fill="#fff"/><path d="M49.59,64.91a2.16,2.16,0,1,1,2.16-2.16A2.16,2.16,0,0,1,49.59,64.91Z" fill="#fff"/><path d="M49.59,72.72a2,2,0,1,1,2-2A2,2,0,0,1,49.59,72.72Z" fill="#fff"/><path d="M49.59,79.45a1.9,1.9,0,1,1,1.89-1.89A1.89,1.89,0,0,1,49.59,79.45Z" fill="#fff"/><path d="M49.59,85.5a1.73,1.73,0,1,1,1.73-1.73A1.72,1.72,0,0,1,49.59,85.5Z" fill="#fff"/><path d="M49.59,91.17a1.55,1.55,0,1,1,1.54-1.55A1.54,1.54,0,0,1,49.59,91.17Z" fill="#fff"/><path d="M49.59,95.74a1.32,1.32,0,1,1,1.32-1.32A1.32,1.32,0,0,1,49.59,95.74Z" fill="#fff"/><path d="M49.59,100.39a1.2,1.2,0,1,1,1.19-1.19A1.19,1.19,0,0,1,49.59,100.39Z" fill="#fff"/><path d="M41.52,31a2.81,2.81,0,1,1,2.81-2.81A2.81,2.81,0,0,1,41.52,31Z" fill="#fff"/><path d="M41.57,40.26a2.66,2.66,0,1,1,2.66-2.65A2.65,2.65,0,0,1,41.57,40.26Z" fill="#fff"/><path d="M41.57,48.84a2.49,2.49,0,1,1,2.49-2.49A2.49,2.49,0,0,1,41.57,48.84Z" fill="#fff"/><circle cx="41.63" cy="54.8" r="2.29" fill="#fff"/><path d="M41.52,64.91a2.16,2.16,0,1,1,2.16-2.16A2.16,2.16,0,0,1,41.52,64.91Z" fill="#fff"/><path d="M41.52,72.72a2,2,0,1,1,2-2A2,2,0,0,1,41.52,72.72Z" fill="#fff"/><path d="M41.52,79.45a1.9,1.9,0,1,1,1.89-1.89A1.89,1.89,0,0,1,41.52,79.45Z" fill="#fff"/><path d="M41.52,85.5a1.73,1.73,0,1,1,1.73-1.73A1.72,1.72,0,0,1,41.52,85.5Z" fill="#fff"/><path d="M41.52,91.17a1.55,1.55,0,1,1,1.54-1.55A1.54,1.54,0,0,1,41.52,91.17Z" fill="#fff"/><path d="M41.52,95.74a1.32,1.32,0,1,1,1.32-1.32A1.32,1.32,0,0,1,41.52,95.74Z" fill="#fff"/><circle cx="41.52" cy="99.2" r="1.19" fill="#fff"/><path d="M33.44,31a2.81,2.81,0,1,1,2.81-2.81A2.8,2.8,0,0,1,33.44,31Z" fill="#fff"/><path d="M33.5,40.26a2.66,2.66,0,1,1,2.66-2.65A2.65,2.65,0,0,1,33.5,40.26Z" fill="#fff"/><path d="M33.5,48.84A2.49,2.49,0,1,1,36,46.35,2.48,2.48,0,0,1,33.5,48.84Z" fill="#fff"/><circle cx="33.55" cy="54.8" r="2.29" fill="#fff"/><path d="M33.44,64.91a2.16,2.16,0,1,1,2.17-2.16A2.16,2.16,0,0,1,33.44,64.91Z" fill="#fff"/><path d="M33.44,72.72a2,2,0,1,1,2-2A2,2,0,0,1,33.44,72.72Z" fill="#fff"/><path d="M33.44,79.45a1.9,1.9,0,1,1,1.9-1.89A1.89,1.89,0,0,1,33.44,79.45Z" fill="#fff"/><path d="M33.44,85.5a1.73,1.73,0,1,1,1.74-1.73A1.73,1.73,0,0,1,33.44,85.5Z" fill="#fff"/><path d="M33.44,91.17A1.55,1.55,0,1,1,35,89.62,1.54,1.54,0,0,1,33.44,91.17Z" fill="#fff"/><circle cx="33.45" cy="94.42" r="1.32" transform="translate(-1.36 0.49) rotate(-0.83)" fill="#fff"/><circle cx="33.44" cy="99.2" r="1.19" fill="#fff"/><circle cx="25.37" cy="28.17" r="2.81" fill="#fff"/><circle cx="25.43" cy="37.61" r="2.66" transform="translate(-19.08 46.58) rotate(-67.33)" fill="#fff"/><path d="M25.43,48.84a2.49,2.49,0,1,1,2.49-2.49A2.48,2.48,0,0,1,25.43,48.84Z" fill="#fff"/><path d="M25.48,57.08a2.29,2.29,0,1,1,2.29-2.28A2.29,2.29,0,0,1,25.48,57.08Z" fill="#fff"/><path d="M25.37,64.91a2.16,2.16,0,1,1,2.16-2.16A2.16,2.16,0,0,1,25.37,64.91Z" fill="#fff"/><path d="M25.37,72.72a2,2,0,1,1,2-2A2,2,0,0,1,25.37,72.72Z" fill="#fff"/><path d="M25.37,79.45a1.9,1.9,0,1,1,1.89-1.89A1.89,1.89,0,0,1,25.37,79.45Z" fill="#fff"/><path d="M25.37,85.5a1.73,1.73,0,1,1,1.73-1.73A1.72,1.72,0,0,1,25.37,85.5Z" fill="#fff"/><path d="M25.37,91.17a1.55,1.55,0,1,1,1.54-1.55A1.54,1.54,0,0,1,25.37,91.17Z" fill="#fff"/><circle cx="25.37" cy="94.42" r="1.32" fill="#fff"/><circle cx="25.37" cy="99.2" r="1.19" fill="#fff"/></g></g></svg>