<svg xmlns="http://www.w3.org/2000/svg" viewBox="0 0 42.03 43.88"><g id="Layer_2" data-name="Layer 2"><g id="Ñëîé_1" data-name="Ñëîé 1"><circle cx="1.98" cy="1.98" r="1.98" fill="#fff"/><path d="M10.53,1.94A1.88,1.88,0,1,1,8.65.07,1.88,1.88,0,0,1,10.53,1.94Z" fill="#fff"/><path d="M16.58,1.94A1.76,1.76,0,1,1,14.83.19,1.75,1.75,0,0,1,16.58,1.94Z" fill="#fff"/><path d="M22.4,1.91A1.61,1.61,0,1,1,20.79.29,1.61,1.61,0,0,1,22.4,1.91Z" fill="#fff"/><path d="M27.93,2A1.53,1.53,0,1,1,26.4.46,1.52,1.52,0,0,1,27.93,2Z" fill="#fff"/><path d="M33,2A1.43,1.43,0,1,1,31.57.55,1.43,1.43,0,0,1,33,2Z" fill="#fff"/><path d="M37.75,2A1.34,1.34,0,1,1,36.42.65,1.34,1.34,0,0,1,37.75,2Z" fill="#fff"/><path d="M42,2A1.23,1.23,0,1,1,40.8.76,1.23,1.23,0,0,1,42,2Z" fill="#fff"/><circle cx="1.98" cy="7.68" r="1.98" fill="#fff"/><path d="M10.53,7.65A1.88,1.88,0,1,1,8.65,5.77,1.88,1.88,0,0,1,10.53,7.65Z" fill="#fff"/><path d="M16.58,7.65a1.76,1.76,0,1,1-1.75-1.76A1.75,1.75,0,0,1,16.58,7.65Z" fill="#fff"/><path d="M22.4,7.61A1.61,1.61,0,1,1,20.79,6,1.61,1.61,0,0,1,22.4,7.61Z" fill="#fff"/><path d="M27.93,7.68A1.53,1.53,0,1,1,26.4,6.16,1.52,1.52,0,0,1,27.93,7.68Z" fill="#fff"/><path d="M33,7.68a1.43,1.43,0,1,1-1.43-1.43A1.43,1.43,0,0,1,33,7.68Z" fill="#fff"/><path d="M37.75,7.68a1.34,1.34,0,1,1-1.33-1.33A1.34,1.34,0,0,1,37.75,7.68Z" fill="#fff"/><path d="M42,7.68A1.23,1.23,0,1,1,40.8,6.46,1.23,1.23,0,0,1,42,7.68Z" fill="#fff"/><circle cx="1.98" cy="13.39" r="1.98" fill="#fff"/><path d="M10.53,13.35a1.88,1.88,0,1,1-1.88-1.88A1.88,1.88,0,0,1,10.53,13.35Z" fill="#fff"/><path d="M16.58,13.35a1.76,1.76,0,1,1-1.75-1.76A1.75,1.75,0,0,1,16.58,13.35Z" fill="#fff"/><path d="M22.4,13.31a1.61,1.61,0,1,1-1.61-1.61A1.61,1.61,0,0,1,22.4,13.31Z" fill="#fff"/><path d="M27.93,13.39a1.53,1.53,0,1,1-1.53-1.53A1.52,1.52,0,0,1,27.93,13.39Z" fill="#fff"/><path d="M33,13.39A1.43,1.43,0,1,1,31.57,12,1.43,1.43,0,0,1,33,13.39Z" fill="#fff"/><path d="M37.75,13.39a1.34,1.34,0,1,1-1.33-1.34A1.34,1.34,0,0,1,37.75,13.39Z" fill="#fff"/><path d="M42,13.39a1.23,1.23,0,1,1-1.23-1.23A1.23,1.23,0,0,1,42,13.39Z" fill="#fff"/><circle cx="1.98" cy="19.09" r="1.98" fill="#fff"/><path d="M10.53,19.05a1.88,1.88,0,1,1-1.88-1.88A1.88,1.88,0,0,1,10.53,19.05Z" fill="#fff"/><path d="M16.58,19.05a1.76,1.76,0,1,1-1.75-1.76A1.75,1.75,0,0,1,16.58,19.05Z" fill="#fff"/><path d="M22.4,19a1.61,1.61,0,1,1-1.61-1.61A1.62,1.62,0,0,1,22.4,19Z" fill="#fff"/><path d="M27.93,19.09a1.53,1.53,0,1,1-1.53-1.53A1.52,1.52,0,0,1,27.93,19.09Z" fill="#fff"/><path d="M33,19.09a1.43,1.43,0,1,1-1.43-1.43A1.43,1.43,0,0,1,33,19.09Z" fill="#fff"/><path d="M37.75,19.09a1.34,1.34,0,1,1-1.33-1.34A1.33,1.33,0,0,1,37.75,19.09Z" fill="#fff"/><path d="M42,19.09a1.23,1.23,0,1,1-1.23-1.23A1.23,1.23,0,0,1,42,19.09Z" fill="#fff"/><circle cx="1.98" cy="24.79" r="1.98" fill="#fff"/><path d="M10.53,24.75a1.88,1.88,0,1,1-1.88-1.88A1.88,1.88,0,0,1,10.53,24.75Z" fill="#fff"/><path d="M16.58,24.75A1.76,1.76,0,1,1,14.83,23,1.75,1.75,0,0,1,16.58,24.75Z" fill="#fff"/><path d="M22.4,24.71a1.61,1.61,0,1,1-1.61-1.61A1.61,1.61,0,0,1,22.4,24.71Z" fill="#fff"/><path d="M27.93,24.79a1.53,1.53,0,1,1-1.53-1.53A1.53,1.53,0,0,1,27.93,24.79Z" fill="#fff"/><path d="M33,24.79a1.43,1.43,0,1,1-1.43-1.43A1.43,1.43,0,0,1,33,24.79Z" fill="#fff"/><path d="M37.75,24.79a1.34,1.34,0,1,1-1.33-1.34A1.34,1.34,0,0,1,37.75,24.79Z" fill="#fff"/><path d="M42,24.79a1.23,1.23,0,1,1-1.23-1.22A1.22,1.22,0,0,1,42,24.79Z" fill="#fff"/><path d="M4,30.49a2,2,0,1,1-2-2A2,2,0,0,1,4,30.49Z" fill="#fff"/><path d="M10.53,30.45a1.88,1.88,0,1,1-1.88-1.87A1.88,1.88,0,0,1,10.53,30.45Z" fill="#fff"/><path d="M16.58,30.45a1.76,1.76,0,1,1-1.75-1.76A1.75,1.75,0,0,1,16.58,30.45Z" fill="#fff"/><path d="M22.4,30.42a1.61,1.61,0,1,1-1.61-1.62A1.61,1.61,0,0,1,22.4,30.42Z" fill="#fff"/><path d="M27.93,30.49A1.53,1.53,0,1,1,26.4,29,1.53,1.53,0,0,1,27.93,30.49Z" fill="#fff"/><path d="M33,30.49a1.43,1.43,0,1,1-1.43-1.43A1.43,1.43,0,0,1,33,30.49Z" fill="#fff"/><path d="M37.75,30.49a1.34,1.34,0,1,1-1.33-1.34A1.34,1.34,0,0,1,37.75,30.49Z" fill="#fff"/><path d="M42,30.49a1.23,1.23,0,1,1-1.23-1.22A1.23,1.23,0,0,1,42,30.49Z" fill="#fff"/><path d="M4,36.19a2,2,0,1,1-2-2A2,2,0,0,1,4,36.19Z" fill="#fff"/><path d="M10.53,36.15a1.88,1.88,0,1,1-1.88-1.87A1.88,1.88,0,0,1,10.53,36.15Z" fill="#fff"/><path d="M16.58,36.15a1.76,1.76,0,1,1-1.75-1.75A1.75,1.75,0,0,1,16.58,36.15Z" fill="#fff"/><path d="M22.4,36.12a1.61,1.61,0,1,1-1.61-1.62A1.61,1.61,0,0,1,22.4,36.12Z" fill="#fff"/><path d="M27.93,36.19a1.53,1.53,0,1,1-1.53-1.52A1.52,1.52,0,0,1,27.93,36.19Z" fill="#fff"/><path d="M33,36.19a1.43,1.43,0,1,1-1.43-1.43A1.43,1.43,0,0,1,33,36.19Z" fill="#fff"/><path d="M37.75,36.19a1.34,1.34,0,1,1-1.33-1.33A1.34,1.34,0,0,1,37.75,36.19Z" fill="#fff"/><path d="M42,36.19A1.23,1.23,0,1,1,40.8,35,1.23,1.23,0,0,1,42,36.19Z" fill="#fff"/><path d="M4,41.89a2,2,0,1,1-2-2A2,2,0,0,1,4,41.89Z" fill="#fff"/><path d="M10.53,41.86A1.88,1.88,0,1,1,8.65,40,1.88,1.88,0,0,1,10.53,41.86Z" fill="#fff"/><path d="M16.58,41.86a1.76,1.76,0,1,1-1.75-1.76A1.75,1.75,0,0,1,16.58,41.86Z" fill="#fff"/><path d="M22.4,41.82a1.61,1.61,0,1,1-1.61-1.62A1.61,1.61,0,0,1,22.4,41.82Z" fill="#fff"/><path d="M27.93,41.89a1.53,1.53,0,1,1-1.53-1.52A1.52,1.52,0,0,1,27.93,41.89Z" fill="#fff"/><path d="M33,41.89a1.43,1.43,0,1,1-1.43-1.43A1.44,1.44,0,0,1,33,41.89Z" fill="#fff"/><path d="M37.75,41.89a1.34,1.34,0,1,1-1.33-1.33A1.34,1.34,0,0,1,37.75,41.89Z" fill="#fff"/><path d="M42,41.89a1.23,1.23,0,1,1-1.23-1.22A1.23,1.23,0,0,1,42,41.89Z" fill="#fff"/></g></g></svg>