<svg xmlns="http://www.w3.org/2000/svg" viewBox="0 0 54.69 54.73"><g id="Layer_2" data-name="Layer 2"><g id="Ñëîé_1" data-name="Ñëîé 1"><path d="M38.17,52.47A27.46,27.46,0,0,0,52.45,38.2ZM27.34,0A27.34,27.34,0,0,0,0,27.35a25.8,25.8,0,0,0,.21,3.31l3.25-3.25H4.94L.4,32a23.75,23.75,0,0,0,.85,3.59l8.12-8.13h1.48L1.62,36.64A24.28,24.28,0,0,0,3,39.73L15.24,27.46v-.11A12.11,12.11,0,1,1,37.78,33.5c-.12.21-.26.42-.4.62s-.22.32-.34.47a5.19,5.19,0,0,1-.36.46c-.12.15-.25.3-.38.44a5.76,5.76,0,0,1-.42.45,13,13,0,0,1-.86.77c-.23.19-.47.37-.71.54h0a11.94,11.94,0,0,1-7,2.21,12.1,12.1,0,0,1-10.89-6.83l-11,11a25.77,25.77,0,0,0,2,2.41L18.2,35.3c.23.27.47.52.72.77L8.17,46.81a25.8,25.8,0,0,0,2.35,2.09L21.45,38c.32.18.65.34,1,.49L11.36,49.54a25.68,25.68,0,0,0,2.73,1.73L25.93,39.43a12.81,12.81,0,0,0,1.39.09L15.07,51.78a24.22,24.22,0,0,0,3.09,1.34L33.43,37.85a8.67,8.67,0,0,0,.81-.53l-15,16.17a25.9,25.9,0,0,0,3.87.88l1.3.18a27.88,27.88,0,0,0,2.9.15c.42,0,.84,0,1.25,0L54.65,28.6c0-.42,0-.83,0-1.25A27.34,27.34,0,0,0,27.34,0Zm19,27.35a18.95,18.95,0,1,0-37.89,0H6.31a21,21,0,1,1,42.07,0Zm-31,1.49L3.48,40.69A20,20,0,0,0,4.79,42.8L16,31.59A11.89,11.89,0,0,1,15.33,28.84ZM30.17,54.56a27.07,27.07,0,0,0,5.64-1.2L53.35,35.82a26.93,26.93,0,0,0,1.2-5.64Z" fill="#fff"/><path d="M.4,32h0C.31,31.53.25,31.1.2,30.67h0A11.47,11.47,0,0,0,.4,32Z" fill="#fff"/><path d="M7.8,46.45c-.13-.12-.25-.25-.37-.38h0Q7.61,46.26,7.8,46.45Z" fill="#fff"/><path d="M14.09,51.27l.22.13-.23-.12Z" fill="#fff"/><path d="M15.07,51.78l0,0-.36-.2Z" fill="#fff"/><path d="M18.16,53.12l1.11.37,0,0-1.1-.38Z" fill="#fff"/><path d="M37.78,33.5c-.12.21-.26.42-.4.62s-.22.32-.34.47a5.19,5.19,0,0,1-.36.46c-.12.15-.25.3-.38.44a5.76,5.76,0,0,1-.42.45,13,13,0,0,1-.86.77,6.33,6.33,0,0,1-.78.61l.06-.07h0Z" fill="#fff"/><path d="M23.14,54.37l-.05.05c.43.07.87.13,1.3.18l.05-.05Z" fill="#fff"/><path d="M28.59,54.66c.53,0,1.06,0,1.58-.1l-.06.06c-.52.05-1.05.09-1.59.11Z" fill="#fff"/><path d="M54.66,28.59v.06a.07.07,0,0,0,0,0Z" fill="#fff"/><path d="M38.17,52.47l0,0c-.77.34-1.57.64-2.38.91l.06-.06A24.84,24.84,0,0,0,38.17,52.47Z" fill="#fff"/></g></g></svg>