<?xml version="1.0" encoding="iso-8859-1"?>
<!-- Generator: Adobe Illustrator 19.0.0, SVG Export Plug-In . SVG Version: 6.00 Build 0)  -->
<svg xmlns="http://www.w3.org/2000/svg" xmlns:xlink="http://www.w3.org/1999/xlink" version="1.1" id="Capa_1" x="0px" y="0px" viewBox="0 0 469.334 469.334" style="enable-background:new 0 0 469.334 469.334;" xml:space="preserve" width="512px" height="512px">
<g>
	<g>
		<circle cx="236.16" cy="438.188" r="31.147" fill="#FFFFFF"/>
	</g>
</g>
<g>
	<g>
		<circle cx="236.16" cy="264.321" r="31.147" fill="#FFFFFF"/>
	</g>
</g>
<g>
	<g>
		<circle cx="236.16" cy="147.627" r="31.147" fill="#FFFFFF"/>
	</g>
</g>
<g>
	<g>
		<path d="M236.374,0.001c-17.201-0.118-31.241,13.731-31.359,30.933c0,0.071-0.001,0.143-0.001,0.214    c0,17.202,13.946,31.146,31.147,31.146c17.202,0,31.146-13.946,31.146-31.147C267.307,14.028,253.492,0.118,236.374,0.001z" fill="#FFFFFF"/>
	</g>
</g>
<g>
	<g>
		<path d="M321.494,321.707C321.494,321.707,321.494,321.707,321.494,321.707c-17.202,0-31.147,13.945-31.147,31.147    s13.945,31.147,31.147,31.147s31.147-13.945,31.147-31.147C352.64,335.652,338.696,321.707,321.494,321.707z" fill="#FFFFFF"/>
	</g>
</g>
<g>
	<g>
		<path d="M407.04,236.374c-17.153,0.116-31.03,13.993-31.147,31.147c0,17.202,13.945,31.147,31.147,31.147    c17.202,0,31.147-13.945,31.147-31.147S424.242,236.374,407.04,236.374z" fill="#FFFFFF"/>
	</g>
</g>
<g>
	<g>
		<path d="M149.334,320.001c-17.202,0-31.147,13.944-31.147,31.146c0,0.071,0,0.143,0.001,0.214    c0.118,17.201,14.158,31.05,31.359,30.933s31.05-14.158,30.933-31.359C180.362,333.816,166.452,320.001,149.334,320.001z" fill="#FFFFFF"/>
	</g>
</g>
<g>
	<g>
		<circle cx="62.294" cy="264.321" r="31.147" fill="#FFFFFF"/>
	</g>
</g>
<g>
</g>
<g>
</g>
<g>
</g>
<g>
</g>
<g>
</g>
<g>
</g>
<g>
</g>
<g>
</g>
<g>
</g>
<g>
</g>
<g>
</g>
<g>
</g>
<g>
</g>
<g>
</g>
<g>
</g>
</svg>
