<?xml version="1.0" encoding="iso-8859-1"?>
<!-- Generator: Adobe Illustrator 19.0.0, SVG Export Plug-In . SVG Version: 6.00 Build 0)  -->
<svg xmlns="http://www.w3.org/2000/svg" xmlns:xlink="http://www.w3.org/1999/xlink" version="1.1" id="Capa_1" x="0px" y="0px" viewBox="0 0 490.71 490.71" style="enable-background:new 0 0 490.71 490.71;" xml:space="preserve" width="512px" height="512px">
<g>
	<g>
		<path d="M424.555,291.84h-91.307V121.173c0-5.655-4.585-10.24-10.24-10.24H167.702c-5.655,0-10.24,4.585-10.24,10.24V291.84    H66.155c-2.731-0.007-5.351,1.078-7.278,3.012c-3.992,4.006-3.981,10.49,0.025,14.482l179.2,178.347    c1.926,1.919,4.535,2.993,7.253,2.987c2.601,0.24,5.196-0.523,7.253-2.133l179.2-179.2c1.934-1.928,3.018-4.548,3.012-7.279    C434.806,296.399,430.21,291.826,424.555,291.84z" fill="#FFFFFF"/>
	</g>
</g>
<g>
	<g>
		<rect x="157.462" y="54.827" width="175.787" height="20.48" fill="#FFFFFF"/>
	</g>
</g>
<g>
	<g>
		<rect x="157.462" width="175.787" height="20.48" fill="#FFFFFF"/>
	</g>
</g>
<g>
</g>
<g>
</g>
<g>
</g>
<g>
</g>
<g>
</g>
<g>
</g>
<g>
</g>
<g>
</g>
<g>
</g>
<g>
</g>
<g>
</g>
<g>
</g>
<g>
</g>
<g>
</g>
<g>
</g>
</svg>
