<?xml version="1.0" encoding="iso-8859-1"?>
<!-- Generator: Adobe Illustrator 19.0.0, SVG Export Plug-In . SVG Version: 6.00 Build 0)  -->
<svg xmlns="http://www.w3.org/2000/svg" xmlns:xlink="http://www.w3.org/1999/xlink" version="1.1" id="Capa_1" x="0px" y="0px" viewBox="0 0 491.545 491.545" style="enable-background:new 0 0 491.545 491.545;" xml:space="preserve" width="512px" height="512px">
<g>
	<g>
		<path d="M370.372,157.874H199.705V66.568c0.007-2.731-1.078-5.351-3.012-7.279c-4.006-3.992-10.49-3.981-14.482,0.025    l-179.2,179.2c-0.008,0.008-0.017,0.017-0.025,0.025c-3.992,4.006-3.981,10.49,0.025,14.482l179.2,179.2    c2.129,2.143,5.096,3.236,8.107,2.987h-0.853c5.655,0,10.24-4.585,10.24-10.24v-91.307h170.667c5.655,0,10.24-4.585,10.24-10.24    V168.114C380.612,162.459,376.027,157.874,370.372,157.874z" fill="#FFFFFF"/>
	</g>
</g>
<g>
	<g>
		<rect x="416.238" y="157.874" width="20.48" height="175.787" fill="#FFFFFF"/>
	</g>
</g>
<g>
	<g>
		<rect x="471.065" y="157.874" width="20.48" height="175.787" fill="#FFFFFF"/>
	</g>
</g>
<g>
</g>
<g>
</g>
<g>
</g>
<g>
</g>
<g>
</g>
<g>
</g>
<g>
</g>
<g>
</g>
<g>
</g>
<g>
</g>
<g>
</g>
<g>
</g>
<g>
</g>
<g>
</g>
<g>
</g>
</svg>
