<?xml version="1.0" encoding="iso-8859-1"?>
<!-- Generator: Adobe Illustrator 19.0.0, SVG Export Plug-In . SVG Version: 6.00 Build 0)  -->
<svg xmlns="http://www.w3.org/2000/svg" xmlns:xlink="http://www.w3.org/1999/xlink" version="1.1" id="Capa_1" x="0px" y="0px" viewBox="0 0 512 512" style="enable-background:new 0 0 512 512;" xml:space="preserve" width="512px" height="512px">
<g>
	<g>
		<path d="M332,128H196V44c0-7.376-4.06-14.153-10.563-17.633s-14.394-3.099-20.531,0.992l-156,104C3.342,135.068,0,141.313,0,148    s3.342,12.932,8.906,16.641l156,104c6.146,4.097,14.037,4.468,20.531,0.992C191.94,266.153,196,259.376,196,252v-84h136    c77.196,0,140,62.804,140,140s-62.804,140-140,140c-11.046,0-20,8.954-20,20c0,11.046,8.954,20,20,20c99.252,0,180-80.748,180-180    S431.252,128,332,128z M156,214.63L56.056,148L156,81.37V214.63z" fill="#FFFFFF"/>
	</g>
</g>
<g>
</g>
<g>
</g>
<g>
</g>
<g>
</g>
<g>
</g>
<g>
</g>
<g>
</g>
<g>
</g>
<g>
</g>
<g>
</g>
<g>
</g>
<g>
</g>
<g>
</g>
<g>
</g>
<g>
</g>
</svg>
