<?xml version="1.0" encoding="iso-8859-1"?>
<!-- Generator: Adobe Illustrator 19.0.0, SVG Export Plug-In . SVG Version: 6.00 Build 0)  -->
<svg version="1.1" id="Layer_1" xmlns="http://www.w3.org/2000/svg" xmlns:xlink="http://www.w3.org/1999/xlink" x="0px" y="0px"
	 viewBox="-49 277 512 34" style="enable-background:new -49 277 512 34;" xml:space="preserve">
<g>
	<polygon style="fill:#FFFFFF;" points="-40.863,292.123 -46,287.54 -36,287.955 -46,288.365 -36,288.775 -46,289.185 -36,289.596 
		-46,290.008 -36,290.422 -46,290.836 -36,291.253 -46,291.671 -36,292.088 -46,292.503 -36,292.918 -46,293.332 -36,293.748 
		-46,294.164 -36,294.582 -46,295.001 -36,295.418 -46,295.835 -36,296.253 -46,296.673 -36,297.09 -46,297.505 -36,297.921 
		-46,298.34 -36,298.761 -46,299.181 -36,299.603 -46,300.027 -36,300.451 -41.141,305.873 -25.913,295.875 -10.824,305.875 
		4.263,295.875 19.354,305.875 34.441,295.875 49.532,305.875 64.62,295.875 79.709,305.875 94.799,295.875 109.888,305.875 
		124.978,295.875 140.069,305.875 155.159,295.875 170.249,305.875 185.339,295.875 200.429,305.875 215.52,295.875 
		230.612,305.875 245.701,295.875 260.792,305.875 275.88,295.875 290.969,305.875 306.06,295.875 321.153,305.875 336.244,295.875 
		351.336,305.875 366.428,295.875 381.522,305.875 396.612,295.875 411.708,305.875 426.804,295.875 441.902,305.875 
		456.863,295.877 462,300.46 452,300.045 462,299.635 452,299.225 462,298.815 452,298.404 462,297.992 452,297.578 462,297.164 
		452,296.747 462,296.329 452,295.912 462,295.497 452,295.082 462,294.668 452,294.252 462,293.836 452,293.418 462,292.999 
		452,292.582 462,292.165 452,291.747 462,291.327 452,290.91 462,290.495 452,290.079 462,289.66 452,289.239 462,288.819 
		452,288.397 462,287.973 452,287.549 457.141,282.127 441.913,292.125 426.824,282.125 411.737,292.125 396.646,282.125 
		381.559,292.125 366.468,282.125 351.38,292.125 336.291,282.125 321.201,292.125 306.112,282.125 291.022,292.125 
		275.931,282.125 260.841,292.125 245.751,282.125 230.661,292.125 215.571,282.125 200.48,292.125 185.388,282.125 
		170.299,292.125 155.208,282.125 140.12,292.125 125.031,282.125 109.94,292.125 94.847,282.125 79.756,292.125 64.664,282.125 
		49.572,292.125 34.478,282.125 19.388,292.125 4.292,282.125 -10.804,292.125 -26.722,282.193 	"/>
</g>
</svg>
