<?xml version="1.0" encoding="utf-8"?>
<!-- Generator: Adobe Illustrator 24.1.1, SVG Export Plug-In . SVG Version: 6.00 Build 0)  -->
<svg version="1.1" id="Layer_1" xmlns="http://www.w3.org/2000/svg" xmlns:xlink="http://www.w3.org/1999/xlink" x="0px" y="0px"
	 viewBox="0 0 352 149" style="enable-background:new 0 0 352 149;" xml:space="preserve">
<style type="text/css">
	.st0{fill:#006438;}
	.st1{fill:#008B4C;}
	.st2{fill:#00A651;}
	.st3{fill:#FFFFFF;}
	.st4{fill:#D3D2C4;}
	.st5{fill-rule:evenodd;clip-rule:evenodd;fill:#008B4C;}
	.st6{fill-rule:evenodd;clip-rule:evenodd;fill:#FFFFFF;}
</style>
<g id="XMLID_36_">
	<path id="XMLID_182_" class="st0" d="M265.17,122.11h-193c-23.2,0-42-18.8-42-42v0c0-23.2,18.8-42,42-42h193c23.2,0,42,18.8,42,42
		v0C307.17,103.3,288.36,122.11,265.17,122.11z"/>
	<path id="XMLID_179_" class="st1" d="M265.17,110.61h-193c-23.2,0-42-18.8-42-42v0c0-23.2,18.8-42,42-42h193c23.2,0,42,18.8,42,42
		v0C307.17,91.8,288.36,110.61,265.17,110.61z"/>
	<path id="XMLID_174_" class="st2" d="M265.17,26.61h-193c-23.2,0-42,18.8-42,42v0h277v0C307.17,45.41,288.36,26.61,265.17,26.61z"
		/>
	<circle id="XMLID_171_" class="st3" cx="73.67" cy="68.61" r="30.5"/>
	<path id="XMLID_133_" class="st4" d="M49.5,73.82c0-16.84,13.66-30.5,30.5-30.5c5.88,0,11.37,1.67,16.03,4.55
		c-5.57-6-13.52-9.77-22.36-9.77c-16.84,0-30.5,13.66-30.5,30.5c0,10.96,5.79,20.57,14.47,25.95C52.59,89.11,49.5,81.83,49.5,73.82z
		"/>
	<g id="XMLID_94_">
		<path id="XMLID_93_" class="st5" d="M85.51,58.05H64.49c-2.3,0-4.16,1.86-4.16,4.16v12.48c0,2.3,1.86,4.16,4.16,4.16h10.14
			l3.83,3.83l3.83-3.83l0,0h3.22c2.3,0,4.16-1.86,4.16-4.16V62.21C89.67,59.92,87.8,58.05,85.51,58.05z"/>
		<g id="XMLID_91_">
			<rect id="XMLID_14_" x="65.69" y="65.02" class="st6" width="18.62" height="1.81"/>
			<rect id="XMLID_92_" x="65.69" y="70.38" class="st6" width="18.62" height="1.81"/>
		</g>
	</g>
</g>
<g>
</g>
<g>
</g>
<g>
</g>
<g>
</g>
<g>
</g>
<g>
</g>
<g>
</g>
<g>
</g>
<g>
</g>
<g>
</g>
<g>
</g>
<g>
</g>
<g>
</g>
<g>
</g>
<g>
</g>
</svg>
