<?xml version="1.0" encoding="utf-8"?>
<!-- Generator: Adobe Illustrator 24.1.1, SVG Export Plug-In . SVG Version: 6.00 Build 0)  -->
<svg version="1.1" id="Layer_1" xmlns="http://www.w3.org/2000/svg" xmlns:xlink="http://www.w3.org/1999/xlink" x="0px" y="0px"
	 viewBox="0 0 298 121" style="enable-background:new 0 0 298 121;" xml:space="preserve">
<style type="text/css">
	.st0{fill:#2B8643;}
	.st1{fill:#70AE50;}
	.st2{fill:#A3CE4B;}
	.st3{fill:#FFFFFF;}
	.st4{fill:#D3D2C4;}
	.st5{fill-rule:evenodd;clip-rule:evenodd;fill:#70AE50;}
</style>
<g id="XMLID_33_">
	<path id="XMLID_35_" class="st0" d="M246.17,110.11h-193c-23.2,0-42-18.8-42-42v0c0-23.2,18.8-42,42-42h193c23.2,0,42,18.8,42,42v0
		C288.17,91.3,269.36,110.11,246.17,110.11z"/>
	<path id="XMLID_25_" class="st1" d="M246.17,98.61h-193c-23.2,0-42-18.8-42-42v0c0-23.2,18.8-42,42-42h193c23.2,0,42,18.8,42,42v0
		C288.17,79.8,269.36,98.61,246.17,98.61z"/>
	<path id="XMLID_22_" class="st2" d="M246.17,14.61h-193c-23.2,0-42,18.8-42,42v0h277v0C288.17,33.41,269.36,14.61,246.17,14.61z"/>
	<circle id="XMLID_19_" class="st3" cx="54.67" cy="56.61" r="30.5"/>
	<path id="XMLID_16_" class="st4" d="M30.5,61.82c0-16.84,13.66-30.5,30.5-30.5c5.88,0,11.37,1.67,16.03,4.55
		c-5.57-6-13.52-9.77-22.36-9.77c-16.84,0-30.5,13.66-30.5,30.5c0,10.96,5.79,20.57,14.47,25.95C33.59,77.11,30.5,69.83,30.5,61.82z
		"/>
	<path id="XMLID_10331_" class="st5" d="M54.67,42.02c-6.79,0-12.3,5.51-12.3,12.3c0,6.79,12.3,18.88,12.3,18.88
		s12.3-12.08,12.3-18.88C66.97,47.53,61.46,42.02,54.67,42.02z M54.67,58.34c-2.71,0-4.91-2.2-4.91-4.91c0-2.71,2.2-4.91,4.91-4.91
		c2.71,0,4.91,2.2,4.91,4.91C59.58,56.14,57.38,58.34,54.67,58.34z"/>
</g>
<g>
</g>
<g>
</g>
<g>
</g>
<g>
</g>
<g>
</g>
<g>
</g>
<g>
</g>
<g>
</g>
<g>
</g>
<g>
</g>
<g>
</g>
<g>
</g>
<g>
</g>
<g>
</g>
<g>
</g>
</svg>
