<?xml version="1.0" encoding="utf-8"?>
<!-- Generator: Adobe Illustrator 24.1.1, SVG Export Plug-In . SVG Version: 6.00 Build 0)  -->
<svg version="1.1" id="Layer_1" xmlns="http://www.w3.org/2000/svg" xmlns:xlink="http://www.w3.org/1999/xlink" x="0px" y="0px"
	 viewBox="0 0 298 121" style="enable-background:new 0 0 298 121;" xml:space="preserve">
<style type="text/css">
	.st0{fill:#592348;}
	.st1{fill:#78355D;}
	.st2{fill:#9E3C6A;}
	.st3{fill:#FFFFFF;}
	.st4{fill:#D3D2C4;}
	.st5{fill-rule:evenodd;clip-rule:evenodd;fill:#78355D;}
</style>
<g id="XMLID_29_">
	<path id="XMLID_200_" class="st0" d="M245.83,108.11h-193c-23.2,0-42-18.8-42-42v0c0-23.2,18.8-42,42-42h193c23.2,0,42,18.8,42,42
		v0C287.83,89.3,269.03,108.11,245.83,108.11z"/>
	<path id="XMLID_197_" class="st1" d="M245.83,96.61h-193c-23.2,0-42-18.8-42-42v0c0-23.2,18.8-42,42-42h193c23.2,0,42,18.8,42,42v0
		C287.83,77.8,269.03,96.61,245.83,96.61z"/>
	<path id="XMLID_192_" class="st2" d="M245.83,12.61h-193c-23.2,0-42,18.8-42,42v0h277v0C287.83,31.41,269.03,12.61,245.83,12.61z"
		/>
	<circle id="XMLID_169_" class="st3" cx="54.33" cy="54.61" r="30.5"/>
	<path id="XMLID_152_" class="st4" d="M30.17,59.82c0-16.84,13.66-30.5,30.5-30.5c5.88,0,11.37,1.67,16.03,4.55
		c-5.57-6-13.52-9.77-22.36-9.77c-16.84,0-30.5,13.66-30.5,30.5c0,10.96,5.79,20.57,14.47,25.95
		C33.26,75.11,30.17,67.83,30.17,59.82z"/>
	<path id="XMLID_101_" class="st5" d="M48.06,46.07v17.08c0,3.05,3.45,4.81,5.92,3.02l11.79-8.54c2.06-1.49,2.06-4.55,0-6.04
		l-11.79-8.54C51.51,41.26,48.06,43.02,48.06,46.07z"/>
</g>
<g>
</g>
<g>
</g>
<g>
</g>
<g>
</g>
<g>
</g>
<g>
</g>
<g>
</g>
<g>
</g>
<g>
</g>
<g>
</g>
<g>
</g>
<g>
</g>
<g>
</g>
<g>
</g>
<g>
</g>
</svg>
