<?xml version="1.0" encoding="utf-8"?>
<!-- Generator: Adobe Illustrator 24.1.1, SVG Export Plug-In . SVG Version: 6.00 Build 0)  -->
<svg version="1.1" id="Layer_1" xmlns="http://www.w3.org/2000/svg" xmlns:xlink="http://www.w3.org/1999/xlink" x="0px" y="0px"
	 viewBox="0 0 298 121" style="enable-background:new 0 0 298 121;" xml:space="preserve">
<style type="text/css">
	.st0{fill:#006477;}
	.st1{fill:#00858B;}
	.st2{fill:#00A79D;}
	.st3{fill:#FFFFFF;}
	.st4{fill-rule:evenodd;clip-rule:evenodd;fill:#00858B;}
</style>
<g id="XMLID_27_">
	<path id="XMLID_218_" class="st0" d="M245.83,108.54h-193c-23.2,0-42-18.8-42-42v0c0-23.2,18.8-42,42-42h193c23.2,0,42,18.8,42,42
		v0C287.83,89.73,269.03,108.54,245.83,108.54z"/>
	<path id="XMLID_215_" class="st1" d="M245.83,97.04h-193c-23.2,0-42-18.8-42-42v0c0-23.2,18.8-42,42-42h193c23.2,0,42,18.8,42,42v0
		C287.83,78.23,269.03,97.04,245.83,97.04z"/>
	<path id="XMLID_212_" class="st2" d="M245.83,13.04h-193c-23.2,0-42,18.8-42,42v0h277v0C287.83,31.84,269.03,13.04,245.83,13.04z"
		/>
	<circle id="XMLID_209_" class="st3" cx="54.33" cy="55.04" r="30.5"/>
	<path id="XMLID_99_" class="st4" d="M68.87,54.37c0-5.68-6.51-10.28-14.53-10.28S39.8,48.69,39.8,54.37s6.51,10.28,14.53,10.28
		c0.64,0,1.26-0.04,1.87-0.1l5.89,3.41v-4.91C66.16,61.22,68.87,58.02,68.87,54.37z"/>
</g>
<g>
</g>
<g>
</g>
<g>
</g>
<g>
</g>
<g>
</g>
<g>
</g>
<g>
</g>
<g>
</g>
<g>
</g>
<g>
</g>
<g>
</g>
<g>
</g>
<g>
</g>
<g>
</g>
<g>
</g>
</svg>
