<?xml version="1.0" encoding="utf-8"?>
<!-- Generator: Adobe Illustrator 24.1.1, SVG Export Plug-In . SVG Version: 6.00 Build 0)  -->
<svg version="1.1" id="Layer_1" xmlns="http://www.w3.org/2000/svg" xmlns:xlink="http://www.w3.org/1999/xlink" x="0px" y="0px"
	 viewBox="0 0 445 231" style="enable-background:new 0 0 445 231;" xml:space="preserve">
<style type="text/css">
	.st0{fill:#DC4733;}
	.st1{fill:#F26831;}
	.st2{fill:#F89A2F;}
	.st3{fill:#FFFFFF;}
	.st4{fill:#D3D2C4;}
</style>
<g id="XMLID_41_">
	<path id="XMLID_162_" class="st0" d="M338.17,161.54h-193c-23.2,0-42-18.8-42-42v0c0-23.2,18.8-42,42-42h193c23.2,0,42,18.8,42,42
		v0C380.17,142.73,361.36,161.54,338.17,161.54z"/>
	<path id="XMLID_154_" class="st1" d="M338.17,150.04h-193c-23.2,0-42-18.8-42-42v0c0-23.2,18.8-42,42-42h193c23.2,0,42,18.8,42,42
		v0C380.17,131.23,361.36,150.04,338.17,150.04z"/>
	<path id="XMLID_151_" class="st2" d="M338.17,66.04h-193c-23.2,0-42,18.8-42,42v0h277v0C380.17,84.84,361.36,66.04,338.17,66.04z"
		/>
	<circle id="XMLID_137_" class="st3" cx="146.67" cy="108.04" r="30.5"/>
	<path id="XMLID_125_" class="st4" d="M122.5,113.25c0-16.84,13.66-30.5,30.5-30.5c5.88,0,11.37,1.67,16.03,4.55
		c-5.57-6-13.52-9.77-22.36-9.77c-16.84,0-30.5,13.66-30.5,30.5c0,10.96,5.79,20.57,14.47,25.95
		C125.59,128.54,122.5,121.26,122.5,113.25z"/>
</g>
<g>
</g>
<g>
</g>
<g>
</g>
<g>
</g>
<g>
</g>
<g>
</g>
<g>
</g>
<g>
</g>
<g>
</g>
<g>
</g>
<g>
</g>
<g>
</g>
<g>
</g>
<g>
</g>
<g>
</g>
</svg>
