<?xml version="1.0" encoding="utf-8"?>
<!-- Generator: Adobe Illustrator 24.1.1, SVG Export Plug-In . SVG Version: 6.00 Build 0)  -->
<svg version="1.1" id="Layer_1" xmlns="http://www.w3.org/2000/svg" xmlns:xlink="http://www.w3.org/1999/xlink" x="0px" y="0px"
	 viewBox="0 0 352 149" style="enable-background:new 0 0 352 149;" xml:space="preserve">
<style type="text/css">
	.st0{fill:#0B6DB7;}
	.st1{fill:#009BD7;}
	.st2{fill:#50B0E3;}
	.st3{fill:#FFFFFF;}
	.st4{fill:#D3D2C4;}
</style>
<g id="XMLID_17_">
	<path id="XMLID_236_" class="st0" d="M293,138H51.83c-23.2,0-42-18.8-42-42V75.74c0-23.2,18.8-42,42-42H293c23.2,0,42,18.8,42,42
		V96C335,119.2,316.2,138,293,138z"/>
	<path id="XMLID_233_" class="st1" d="M293,123.73H51.83c-23.2,0-42-18.8-42-42V61.47c0-23.2,18.8-42,42-42H293
		c23.2,0,42,18.8,42,42v20.26C335,104.92,316.2,123.73,293,123.73z"/>
	<path id="XMLID_230_" class="st2" d="M285.7,19.47H59.14c-27.23,0-49.3,23.34-49.3,52.13l0,0H335l0,0
		C335,42.81,312.93,19.47,285.7,19.47z"/>
	<ellipse id="XMLID_227_" class="st3" cx="60.9" cy="71.6" rx="35.8" ry="37.85"/>
	<path id="XMLID_221_" class="st4" d="M32.53,78.07c0-20.91,16.03-37.85,35.8-37.85c6.9,0,13.35,2.07,18.81,5.65
		c-6.54-7.45-15.88-12.12-26.25-12.12c-19.77,0-35.8,16.95-35.8,37.85c0,13.61,6.79,25.53,16.99,32.21
		C36.16,97.05,32.53,88.01,32.53,78.07z"/>
	<g id="XMLID_21_">
		<g>
			<g id="XMLID_49_">
				<path class="st1" d="M80.6,65c-0.26-0.71-0.75-1.32-1.17-1.93c-0.46-0.67-1.03-1.27-1.61-1.82c-1.41-1.33-3.07-2.36-4.81-3.13
					c-3.23-1.44-6.76-2.07-10.26-2.1c-2.3-0.02-4.61,0.23-6.85,0.79c-2.01,0.5-3.97,1.26-5.76,2.33c-1.56,0.94-3.02,2.13-4.14,3.61
					c-0.67,0.88-1.61,2.09-1.3,3.31c0.05,0.21,0.13,0.4,0.22,0.59c0.17,0.35,0.4,0.67,0.6,1c0.34,0.55,0.67,1.1,1,1.65
					c0.1,0.16,0.2,0.33,0.3,0.49c1.17,1.88,3.57,2.4,5.35,1.16l2.85-1.99c1.78-1.24,2.27-3.77,1.1-5.66l-0.21-0.34
					c1.93-0.64,4.23-1.04,6.8-1.01c2.59,0.02,4.89,0.46,6.82,1.14l-0.21,0.33c-1.2,1.86-0.75,4.4,1.01,5.68l2.82,2.03
					c1.76,1.27,4.16,0.8,5.37-1.07c0.32-0.51,0.65-1.03,0.97-1.54C80.19,67.41,81.12,66.45,80.6,65z"/>
			</g>
			<path id="XMLID_46_" class="st1" d="M78.61,79.06l-1.93-4.94c-0.45,0.11-0.91,0.17-1.37,0.17c-1.2,0-2.41-0.37-3.47-1.13
				l-2.82-2.03c-1.36-0.98-2.28-2.47-2.58-4.18c-0.08-0.47-0.1-0.94-0.09-1.41h-7.31c0,0.45-0.03,0.9-0.11,1.34
				c-0.33,1.71-1.27,3.17-2.65,4.13l-2.85,1.99c-1.43,1-3.11,1.28-4.66,0.93l-2,5.13c-0.87,3.57,1.69,7.05,5.18,7.05h21.48
				C76.92,86.11,79.47,82.64,78.61,79.06z M62.69,83.45c-3.15,0-5.7-2.7-5.7-6.03c0-3.33,2.55-6.03,5.7-6.03s5.7,2.7,5.7,6.03
				C68.4,80.75,65.84,83.45,62.69,83.45z"/>
			<ellipse id="XMLID_45_" class="st1" cx="62.69" cy="77.42" rx="3.37" ry="3.56"/>
		</g>
	</g>
</g>
<g>
</g>
<g>
</g>
<g>
</g>
<g>
</g>
<g>
</g>
<g>
</g>
<g>
</g>
<g>
</g>
<g>
</g>
<g>
</g>
<g>
</g>
<g>
</g>
<g>
</g>
<g>
</g>
<g>
</g>
</svg>
