<?xml version="1.0" encoding="utf-8"?>
<!-- Generator: Adobe Illustrator 24.1.1, SVG Export Plug-In . SVG Version: 6.00 Build 0)  -->
<svg version="1.1" id="Layer_1" xmlns="http://www.w3.org/2000/svg" xmlns:xlink="http://www.w3.org/1999/xlink" x="0px" y="0px"
	 viewBox="0 0 298 121" style="enable-background:new 0 0 298 121;" xml:space="preserve">
<style type="text/css">
	.st0{fill:#3E377A;}
	.st1{fill:#524D9A;}
	.st2{fill:#675EA9;}
	.st3{fill:#FFFFFF;}
	.st4{fill:#D3D2C4;}
</style>
<g id="XMLID_30_">
	<path id="XMLID_43_" class="st0" d="M245.8,107.77h-193c-23.2,0-42-18.8-42-42v0c0-23.2,18.8-42,42-42h193c23.2,0,42,18.8,42,42v0
		C287.8,88.97,269,107.77,245.8,107.77z"/>
	<path id="XMLID_40_" class="st1" d="M245.8,96.27h-193c-23.2,0-42-18.8-42-42v0c0-23.2,18.8-42,42-42h193c23.2,0,42,18.8,42,42v0
		C287.8,77.47,269,96.27,245.8,96.27z"/>
	<path id="XMLID_37_" class="st2" d="M245.8,12.27h-193c-23.2,0-42,18.8-42,42v0h277v0C287.8,31.07,269,12.27,245.8,12.27z"/>
	<circle id="XMLID_34_" class="st3" cx="54.3" cy="54.27" r="30.5"/>
	<path id="XMLID_28_" class="st4" d="M30.13,59.49c0-16.84,13.66-30.5,30.5-30.5c5.88,0,11.37,1.67,16.03,4.55
		c-5.57-6-13.52-9.77-22.36-9.77c-16.84,0-30.5,13.66-30.5,30.5c0,10.96,5.79,20.57,14.47,25.95
		C33.23,74.78,30.13,67.49,30.13,59.49z"/>
	<g id="XMLID_97_">
		<g>
			<path id="XMLID_24_" class="st1" d="M68.64,54.32c0,4.92-2.64,8.12-6.34,8.12c-1.98,0-3.43-0.79-3.86-2.57l-0.07-0.43
				c-1.29,1.85-3.1,2.64-4.98,2.64c-3.7,0-7.19-3.04-7.19-7.62c0-4.22,2.64-7.76,6.77-7.76c2.64,0,4.32,1.75,4.49,2.11v-1.75h4.03
				v11.12c0,1.19,0.5,1.62,1.22,1.62c1.39,0,2.74-2.21,2.74-5.38c0-6.3-4.06-11.19-10.92-11.19c-6.27,0-11.32,5.02-11.32,11.29
				c0,6.21,4.72,10.76,10.89,10.76c1.91,0,4.39-0.63,6.24-2.01l1.52,2.64c-1.95,1.45-5.21,2.38-7.76,2.38
				c-8.02,0-14.13-5.87-14.13-13.76c0-8.02,6.44-14.26,14.56-14.26C62.6,40.26,68.64,46.2,68.64,54.32z M50.59,54.29
				c0,2.24,1.25,4.19,3.23,4.19c2.11,0,3.37-1.88,3.37-4.16c0-2.18-1.29-3.96-3.4-3.96C51.88,50.36,50.59,52.14,50.59,54.29z"/>
		</g>
	</g>
</g>
<g>
</g>
<g>
</g>
<g>
</g>
<g>
</g>
<g>
</g>
<g>
</g>
<g>
</g>
<g>
</g>
<g>
</g>
<g>
</g>
<g>
</g>
<g>
</g>
<g>
</g>
<g>
</g>
<g>
</g>
</svg>
