<?xml version="1.0" encoding="utf-8"?>
<!-- Generator: Adobe Illustrator 24.1.1, SVG Export Plug-In . SVG Version: 6.00 Build 0)  -->
<svg version="1.1" id="Layer_1" xmlns="http://www.w3.org/2000/svg" xmlns:xlink="http://www.w3.org/1999/xlink" x="0px" y="0px"
	 viewBox="0 0 352 149" style="enable-background:new 0 0 352 149;" xml:space="preserve">
<style type="text/css">
	.st0{fill:#A21A1C;}
	.st1{fill:#E5282D;}
	.st2{fill:#EF413B;}
	.st3{fill:#FFFFFF;}
	.st4{fill:#D3D2C4;}
</style>
<g id="XMLID_15_">
	<path id="XMLID_123_" class="st0" d="M295,135H59.17c-23.2,0-42-18.8-42-42V72.74c0-23.2,18.8-42,42-42H295c23.2,0,42,18.8,42,42
		V93C337,116.2,318.2,135,295,135z"/>
	<path id="XMLID_118_" class="st1" d="M295,120.73H59.17c-23.2,0-42-18.8-42-42V58.47c0-23.2,18.8-42,42-42H295
		c23.2,0,42,18.8,42,42v20.26C337,101.92,318.2,120.73,295,120.73z"/>
	<path id="XMLID_131_" class="st2" d="M288.51,16.47H65.66c-26.78,0-48.49,23.34-48.49,52.13l0,0H337l0,0
		C337,39.81,315.29,16.47,288.51,16.47z"/>
	<ellipse id="XMLID_120_" class="st3" cx="67.39" cy="68.6" rx="35.22" ry="37.85"/>
	<path id="XMLID_135_" class="st4" d="M39.49,75.07c0-20.91,15.77-37.85,35.22-37.85c6.79,0,13.13,2.07,18.51,5.65
		c-6.43-7.45-15.62-12.12-25.82-12.12c-19.45,0-35.22,16.95-35.22,37.85c0,13.61,6.68,25.53,16.71,32.21
		C43.06,94.05,39.49,85.01,39.49,75.07z"/>
	<path id="XMLID_11332_" class="st1" d="M86.15,86.06c0.13-0.48,0.2-0.98,0.3-1.47c0.15-0.82,0.31-1.63,0.47-2.44
		c0.05-0.24,0.09-0.48,0.14-0.73c0.51-2.82-1.19-5.55-3.81-6.1l-4.19-0.89c-2.62-0.55-5.16,1.28-5.68,4.1l-0.1,0.51
		c-2.26-1.24-4.64-3.06-6.91-5.5c-2.29-2.46-3.99-5.04-5.14-7.48l0.46-0.1c2.62-0.55,4.33-3.29,3.81-6.1l-0.82-4.5
		c-0.51-2.82-3.06-4.65-5.68-4.1c-0.72,0.16-1.43,0.32-2.15,0.48c-1.57,0.35-3.2,0.35-3.93,2.16c-0.36,0.89-0.42,1.9-0.55,2.85
		c-0.14,1.04-0.14,2.12-0.08,3.17c0.15,2.54,0.78,5.04,1.69,7.39c1.68,4.36,4.32,8.26,7.41,11.58c2.04,2.19,4.31,4.14,6.78,5.75
		c2.21,1.44,4.59,2.6,7.08,3.32c2.17,0.63,4.46,0.92,6.7,0.63c1.33-0.17,3.17-0.38,3.91-1.78C85.99,86.56,86.08,86.31,86.15,86.06z"
		/>
</g>
<g>
</g>
<g>
</g>
<g>
</g>
<g>
</g>
<g>
</g>
<g>
</g>
<g>
</g>
<g>
</g>
<g>
</g>
<g>
</g>
<g>
</g>
<g>
</g>
<g>
</g>
<g>
</g>
<g>
</g>
</svg>
