<svg xmlns="http://www.w3.org/2000/svg" viewBox="0 0 1411.21 922.7"><g style="isolation:isolate"><g id="Layer_2" data-name="Layer 2"><g id="Layer_1-2" data-name="Layer 1"><path d="M1409.67,533.78c0,135.35-69.15,254.55-174,324.19a387.11,387.11,0,0,1-214.91,64.73c-214.79,0-388.92-174.13-388.92-388.92s174.13-388.95,388.92-388.95a389.18,389.18,0,0,1,94.21,11.51C1284.21,198.41,1409.67,351.45,1409.67,533.78Z" fill="#e8f7ff"/><path d="M1409.67,533.78c0,135.35-69.15,254.55-174,324.19-169.28-42.07-294.74-195.1-294.74-377.43,0-135.36,69.14-254.56,174-324.2C1284.21,198.41,1409.67,351.45,1409.67,533.78Z" fill="none" stroke="#fff" stroke-miterlimit="10" stroke-width="3.07"/><path d="M719.31,559.6c0,173.4-140.57,314-314,314-155.74,0-285-113.4-309.67-262.11a313.15,313.15,0,0,1-4.3-51.86c0-162.8,123.93-296.65,282.55-312.4a314,314,0,0,1,31.42-1.56C578.74,245.64,719.31,386.21,719.31,559.6Z" fill="#e8f7ff"/><path d="M388.64,336.22c0,152.33-123.47,275.8-275.77,275.8-5.77,0-11.51-.19-17.19-.56a313.15,313.15,0,0,1-4.3-51.86c0-162.8,123.93-296.65,282.55-312.4A274.44,274.44,0,0,1,388.64,336.22Z" fill="none" stroke="#fff" stroke-miterlimit="10" stroke-width="2.18"/><circle cx="551.7" cy="175.79" r="175.79" fill="#e8f7ff"/><circle cx="558.61" cy="210.85" r="124.8" fill="none" stroke="#fff" stroke-miterlimit="10" stroke-width="2.18"/><circle cx="920.17" cy="77.53" r="59.11" transform="translate(5.4 203.69) rotate(-12.67)" fill="#e8f7ff"/><circle cx="881.27" cy="62.69" r="45.27" transform="translate(9.84 208.21) rotate(-13.55)" fill="none" stroke="#fff" stroke-miterlimit="10" stroke-width="2.35"/><path d="M865.29,157.05V745.52a43.93,43.93,0,0,1-43.79,43.8H514.19a23.14,23.14,0,0,1-23.07-23.07V157.05a43.91,43.91,0,0,1,43.79-43.79H821.5A43.92,43.92,0,0,1,865.29,157.05Z" fill="#015da6"/><path d="M514.19,770.09a3.66,3.66,0,0,1-2.15-.68,3.93,3.93,0,0,1-1.7-3.16V157.05a24.6,24.6,0,0,1,24.57-24.57H821.5a24.6,24.6,0,0,1,24.57,24.57V745.52a24.6,24.6,0,0,1-24.57,24.57Z" fill="#c2e6ff"/><rect x="595.56" y="669.82" width="165.28" height="67.51" rx="4.09" fill="#ce462c"/><path d="M634.58,688.4a2.61,2.61,0,0,1,.55-1.68,2.14,2.14,0,0,1,1.77-.68h7.64a10.47,10.47,0,0,1,4.09.74,8.86,8.86,0,0,1,3,1.94,8.44,8.44,0,0,1,1.8,2.71,7.84,7.84,0,0,1,.62,3,8.77,8.77,0,0,1-1.36,5,6.51,6.51,0,0,1-3.52,2.74v.1a7.81,7.81,0,0,1,3,.88,9.21,9.21,0,0,1,2.41,1.88,8.42,8.42,0,0,1,1.63,2.66,9,9,0,0,1,.59,3.25,10.1,10.1,0,0,1-.77,3.91,9.66,9.66,0,0,1-2.21,3.26,10.85,10.85,0,0,1-3.6,2.24,13.35,13.35,0,0,1-4.9.84H636.9a2.11,2.11,0,0,1-1.77-.69,2.59,2.59,0,0,1-.55-1.68Zm4.34,12.47h4.93a5.56,5.56,0,0,0,4.31-1.63,5.72,5.72,0,0,0,1.5-4,5.58,5.58,0,0,0-1.38-3.89,5.5,5.5,0,0,0-4.29-1.53h-5.07Zm0,16.5H645a7.83,7.83,0,0,0,5.27-1.77,5.91,5.91,0,0,0,2.07-4.73,6.75,6.75,0,0,0-.47-2.51,5.71,5.71,0,0,0-1.4-2.07,6.71,6.71,0,0,0-2.24-1.38,8.52,8.52,0,0,0-3-.49h-6.31Z" fill="#fff"/><path d="M645.23,722.48H636.9a3.41,3.41,0,0,1-2.85-1.21,4,4,0,0,1-.84-2.52V688.4a4,4,0,0,1,.84-2.52,3.42,3.42,0,0,1,2.85-1.21h7.64a12,12,0,0,1,4.61.84,10.29,10.29,0,0,1,3.41,2.25,9.9,9.9,0,0,1,2.09,3.15,9.37,9.37,0,0,1,.72,3.5,10.17,10.17,0,0,1-1.59,5.71,8.91,8.91,0,0,1-1.36,1.61l.3.15A10.41,10.41,0,0,1,655.5,704a9.8,9.8,0,0,1,1.89,3.09,10.4,10.4,0,0,1,.68,3.75,11.61,11.61,0,0,1-.86,4.43,11,11,0,0,1-2.53,3.72,12.12,12.12,0,0,1-4,2.53A14.77,14.77,0,0,1,645.23,722.48ZM636.9,687.4a1,1,0,0,0-.7.17,1.27,1.27,0,0,0-.25.83v30.35a1.24,1.24,0,0,0,.25.83,1,1,0,0,0,.7.17h8.33a11.93,11.93,0,0,0,4.4-.75,9.46,9.46,0,0,0,3.15-2,8.44,8.44,0,0,0,1.9-2.79,8.79,8.79,0,0,0,.66-3.39,7.6,7.6,0,0,0-.5-2.76,7.06,7.06,0,0,0-1.36-2.23,8,8,0,0,0-2.05-1.59,6.34,6.34,0,0,0-2.44-.73l-.61-.06.36.13a8.06,8.06,0,0,1,2.7,1.66,7.17,7.17,0,0,1,1.73,2.56,8.07,8.07,0,0,1,.57,3,7.26,7.26,0,0,1-2.55,5.77,9.2,9.2,0,0,1-6.16,2.1h-7.48V703.05h7.68a11.13,11.13,0,0,1,2.52.27v-2a7.71,7.71,0,0,1-3.9.93h-6.3V688.41H644a6.84,6.84,0,0,1,5.31,2A6.93,6.93,0,0,1,651,695.2a7.07,7.07,0,0,1-1.87,5,6.21,6.21,0,0,1-.94.83l.48-.21a5.14,5.14,0,0,0,2.8-2.18,7.46,7.46,0,0,0,1.13-4.2,6.32,6.32,0,0,0-.52-2.46,7,7,0,0,0-1.51-2.27,7.49,7.49,0,0,0-2.5-1.64,9.27,9.27,0,0,0-3.56-.64Zm3.39,28.6H645a6.44,6.44,0,0,0,4.38-1.44,4.58,4.58,0,0,0,1.59-3.69,5.36,5.36,0,0,0-.37-2,4.26,4.26,0,0,0-1.07-1.58,5.28,5.28,0,0,0-1.79-1.09,7.16,7.16,0,0,0-2.54-.41h-4.94Zm0-16.5h3.56a4.23,4.23,0,0,0,3.3-1.19,4.36,4.36,0,0,0,1.14-3.11,4.21,4.21,0,0,0-1-3,4.25,4.25,0,0,0-3.27-1.07h-3.7Z" fill="#fff"/><path d="M664.11,688.31a2.31,2.31,0,0,1,.59-1.67,2.38,2.38,0,0,1,3.16,0,2.3,2.3,0,0,1,.59,1.67v20.45A8,8,0,0,0,671,715.1a11,11,0,0,0,13.4,0,8,8,0,0,0,2.56-6.34V688.31a2.3,2.3,0,0,1,.59-1.67,2.38,2.38,0,0,1,3.16,0,2.31,2.31,0,0,1,.59,1.67v18.85a16.76,16.76,0,0,1-1.28,7.08,11.34,11.34,0,0,1-3.28,4.24,11.49,11.49,0,0,1-4.38,2.08,19.63,19.63,0,0,1-9.31,0,11.46,11.46,0,0,1-4.39-2.08,11.34,11.34,0,0,1-3.28-4.24,16.76,16.76,0,0,1-1.28-7.08Z" fill="#fff"/><path d="M677.71,722.48a22,22,0,0,1-5-.59,12.35,12.35,0,0,1-8.58-7.07,18,18,0,0,1-1.42-7.66V688.31a3.6,3.6,0,0,1,1-2.62,3.76,3.76,0,0,1,5.11,0,3.59,3.59,0,0,1,1,2.63v20.45a6.64,6.64,0,0,0,2.1,5.31,9.65,9.65,0,0,0,11.58,0,6.65,6.65,0,0,0,2.11-5.31V688.31a3.66,3.66,0,0,1,1-2.63,3.78,3.78,0,0,1,5.12,0,3.63,3.63,0,0,1,1,2.63v18.85a18.23,18.23,0,0,1-1.41,7.66,12.39,12.39,0,0,1-8.59,7.07A22,22,0,0,1,677.71,722.48ZM666.28,687.4a.73.73,0,0,0-.6.2s-.2.2-.2.71v18.85a15.46,15.46,0,0,0,1.15,6.49,9.92,9.92,0,0,0,2.87,3.74,10.1,10.1,0,0,0,3.86,1.83,18.37,18.37,0,0,0,8.69,0,10.24,10.24,0,0,0,3.87-1.84,10,10,0,0,0,2.87-3.74,15.5,15.5,0,0,0,1.15-6.49V688.31c0-.51-.15-.66-.2-.71a1,1,0,0,0-1.2,0s-.2.2-.2.71v20.45a9.35,9.35,0,0,1-3,7.36,12.36,12.36,0,0,1-15.22,0,9.38,9.38,0,0,1-3-7.36V688.31c0-.51-.15-.66-.2-.71A.73.73,0,0,0,666.28,687.4Z" fill="#fff"/><path d="M707.39,704.64,698,689.57a3.53,3.53,0,0,1-.69-1.79,1.56,1.56,0,0,1,.56-1.28,2.15,2.15,0,0,1,1.41-.46,2.63,2.63,0,0,1,1.13.26,2.74,2.74,0,0,1,1,1.09l8.13,13,8.13-13a2.66,2.66,0,0,1,1-1.09,2.63,2.63,0,0,1,1.13-.26,2.15,2.15,0,0,1,1.41.46,1.56,1.56,0,0,1,.56,1.28,3.53,3.53,0,0,1-.69,1.79l-9.41,15.07v14.2a2.26,2.26,0,0,1-.59,1.67,2.34,2.34,0,0,1-3.15,0,2.26,2.26,0,0,1-.59-1.67Z" fill="#fff"/><path d="M709.56,722.48a3.49,3.49,0,0,1-2.56-1,3.63,3.63,0,0,1-1-2.63V705l-9.2-14.73a4.75,4.75,0,0,1-.9-2.52,2.88,2.88,0,0,1,1.07-2.34,3.77,3.77,0,0,1,4-.37,4,4,0,0,1,1.61,1.62l7,11.15,7-11.17a4,4,0,0,1,1.59-1.6,3.75,3.75,0,0,1,4,.37,2.91,2.91,0,0,1,1.07,2.34,4.72,4.72,0,0,1-.91,2.54L713.09,705v13.81a3.63,3.63,0,0,1-1,2.63A3.48,3.48,0,0,1,709.56,722.48Zm-10.3-35.08a.75.75,0,0,0-.54.16c-.06.25-.05.56.41,1.27l9.63,15.42v14.59a1,1,0,0,0,.2.71c0,.06.18.2.6.2s.54-.14.59-.2a1,1,0,0,0,.2-.71V704.25l9.62-15.4a2.36,2.36,0,0,0,.48-1.07c-.22-.45-.65-.48-1.13-.25,0,0-.18.09-.46.57L709.56,703l-9.3-14.89c-.29-.5-.47-.59-.48-.59A1.21,1.21,0,0,0,699.26,687.4Z" fill="#fff"/><path d="M645.17,235.37c0-16.36-64.39-16.36-64.39,0S595.2,265,613,265,645.17,251.73,645.17,235.37Z" fill="#facf28"/><path d="M580.93,235.37c0-16.36-64.62-16.36-64.62,0S530.78,265,548.62,265,580.93,251.73,580.93,235.37Z" fill="#7fb2fa"/><path d="M516.51,235.21v.17c0,16.37-14.29,29.6-31.87,29.6s-31.88-13.23-31.88-29.6v-.17l3.62-5.88C469.79,219.39,516.13,221.37,516.51,235.21Z" fill="#facf28"/><path d="M566.69,132.06,518.31,235.21H452.76l3.7-5.88,51.22-81.48c6.12-9.77,17.53-15.79,29.9-15.79Z" fill="#ffe275"/><polygon points="581.94 235.2 516.39 235.2 566.7 132.07 612.41 132.07 581.94 235.2" fill="#9cc5ff"/><polygon points="646.27 235.2 580.73 235.2 611.93 132.07 657.64 132.07 646.27 235.2" fill="#ffe275"/><path d="M710.2,235.37c0-16.36-65.17-16.36-65.17,0S659.61,265,677.61,265,710.2,251.73,710.2,235.37Z" fill="#7fb2fa"/><path d="M775.7,235.37c0-16.36-65.5-16.36-65.5,0S724.86,265,743,265,775.7,251.73,775.7,235.37Z" fill="#facf28"/><path d="M840.13,235.37c0-16.36-64.39-16.36-64.39,0S790.15,265,807.93,265,840.13,251.73,840.13,235.37Z" fill="#7fb2fa"/><path d="M903.61,235.15v.23c0,16.37-14.22,29.6-31.78,29.6s-31.78-13.23-31.78-29.6v-.17c.36-13.81,46.28-15.82,59.83-6Z" fill="#facf28"/><polygon points="710.62 235.2 645.07 235.2 656.92 132.07 702.63 132.07 710.62 235.2" fill="#9cc5ff"/><path d="M903.65,235.21H838.1L789.72,132.06h29.11c12.37,0,23.78,6,29.89,15.79l51.16,81.38,3.73,5.92Z" fill="#ffe275"/><polygon points="774.47 235.2 840.02 235.2 789.71 132.07 743.99 132.07 774.47 235.2" fill="#9cc5ff"/><polygon points="710.13 235.2 775.68 235.2 744.48 132.07 698.76 132.07 710.13 235.2" fill="#ffe275"/><rect x="533.33" y="269.12" width="134.68" height="180.04" rx="6.03" fill="#fff"/><rect x="688.39" y="269.12" width="134.68" height="180.04" rx="6.03" fill="#fff"/><rect x="533.33" y="473.32" width="134.68" height="180.04" rx="6.03" fill="#fff"/><rect x="688.39" y="473.32" width="134.68" height="180.04" rx="6.03" fill="#fff"/><path d="M600.39,330.29c11.2,0,14-11.06,14.53-13.85a.68.68,0,0,1,.76-.56,104.45,104.45,0,0,1,21.82,5.21c8.18,3,11.34,4.3,12.5,4.83a.7.7,0,0,1,.36.91l-9.43,21.71a.71.71,0,0,1-.89.38l-12.61-4.7a.7.7,0,0,0-.94.66V401.7a.7.7,0,0,1-.7.7H600.86a.7.7,0,0,1-.7-.7l.23-71.41" fill="#93b9f5"/><path d="M601,330.29c-11.2,0-14-11.06-14.52-13.85a.7.7,0,0,0-.77-.56,104.45,104.45,0,0,0-21.82,5.21c-8.17,3-11.34,4.3-12.5,4.83a.68.68,0,0,0-.35.91l9.42,21.71a.71.71,0,0,0,.89.38l12.61-4.7a.71.71,0,0,1,1,.66V401.7a.7.7,0,0,0,.7.7h24.92a.7.7,0,0,0,.7-.7L601,330.29" fill="#93b9f5"/><path d="M756,322.76c-9.91,0-13.39-10-14.35-13.82a1.1,1.1,0,0,0-1.63-.66L710.54,326a1.1,1.1,0,0,0-.43,1.41l6.49,13.93a1.12,1.12,0,0,0,1.17.62l14.58-2.34a1.07,1.07,0,0,1,1,.39c2,2.49,10.72,13.68,10.18,18.1s-22.18,42-27,50.38a1.1,1.1,0,0,0,1,1.64h41.65Z" fill="#93b9f5"/><path d="M755.51,322.76c9.91,0,13.39-10,14.35-13.82a1.1,1.1,0,0,1,1.63-.66L800.93,326a1.1,1.1,0,0,1,.43,1.41l-6.49,13.93a1.12,1.12,0,0,1-1.17.62l-14.58-2.34a1.07,1.07,0,0,0-1,.39c-2,2.49-10.72,13.68-10.18,18.1s22.18,42,27,50.38a1.1,1.1,0,0,1-.95,1.64H752.33Z" fill="#93b9f5"/><path d="M598.83,516.7h26.42a2.48,2.48,0,0,1,2.29,1.51c1.79,4.27,6.53,17.49,6.92,38.39.39,21.48-2.06,44.16-2.9,51.18a2.49,2.49,0,0,1-2.47,2.19H616.37a2.48,2.48,0,0,1-2.44-2l-13.52-64.37Z" fill="#93b9f5"/><path d="M602.51,516.7H576.09a2.47,2.47,0,0,0-2.28,1.51c-1.8,4.27-6.54,17.49-6.93,38.39-.39,21.48,2.06,44.16,2.9,51.18a2.49,2.49,0,0,0,2.47,2.19H585a2.48,2.48,0,0,0,2.43-2l13.52-64.37Z" fill="#93b9f5"/><path d="M764.87,511.88c5.07,0,5.65,6.78,12.62,8.47s17.89-.94,18.65,1.13.37,17.52-4,21.29-49,5.84-59.52,2.07-19.4-9.42-17.33-13.38,18.65.76,33.15-7.53S763.74,511.88,764.87,511.88Z" fill="#93b9f5"/><path d="M749.56,601.53s26-38,27.49-36.66,12,16.34,12.22,19.13c0,0-8.21,29.62-10,29.62s1.86-24.31,1.2-24.31-4.39,0-19.26,24.44c-1.25,2-39,.53-39,0C722.23,610.16,749.56,601.53,749.56,601.53Z" fill="#93b9f5"/><path d="M485.15,391.38c4.65,13.63,1.58,31.61-1.77,34.27s-16,.4-19.26-3.06,2-25.18,5.23-27.85S485.15,391.38,485.15,391.38Z" fill="#f4b798"/><path d="M455.72,414.2c-4.34,5.33-15.6,18.07-14.62,20.44s23.81,5.53,23.81,4.45-.2-10.77,1.77-17.29S455.72,414.2,455.72,414.2Z" fill="#f4b798"/><path d="M472.26,412.12s-5.63,6.48-14.44,5.39S439,394.05,439.89,392.68s47-18.26,47.71-15.61-.22,12.68-4.59,20.35S477.6,405,477.6,405s-1-4.93-4.15-5.11C469,399.62,466,409.29,472.26,412.12Z" fill="#561304"/><path d="M487.6,377.07c-1-6.83-17.78-10.05-21.41-8.59-6.47,2.61-28.44,21-26.3,24.2s16,9,23.78,4.63S487.89,379.17,487.6,377.07Z" fill="#662820"/><path d="M561.91,453.42c-.31,1.06,5.92,10.76,2.75,14-2.23,2.32-12,8.88-18.33,12.68a29.85,29.85,0,0,1-5.28,2.82c-2.28.5-10.76-7.11-10.76-7.11.9-1.57,1.87-3.11,2.91-4.6,13.68-19.7,38.81-32.29,39.38-30.46C573.14,442.75,562.19,452.33,561.91,453.42Z" fill="#f4b798"/><path d="M450.5,807.75a20,20,0,0,1-4.24.33c-2,0-4.39,0-6.81,0-4.57-.12-9.08-.45-10.29-1.12a2.08,2.08,0,0,1-.83-1.47c-.87-4.12,1.88-15.26,4.89-21.09,0,0,16.24-.31,17.73,3.79a1.57,1.57,0,0,1,.12.45A139.92,139.92,0,0,1,450.5,807.75Z" fill="#3d1006"/><path d="M446.26,808.08a1.12,1.12,0,0,1-.5.21,55.63,55.63,0,0,1-6.21.29c-5.17,0-11.57-.57-11.22-3.11.5-3.77,6.55-4.64,11.76-4.48,3.84.12,7.26.78,7.73,1.31C448.82,803.39,447.68,807.11,446.26,808.08Z" fill="#661f18"/><path d="M450.5,807.75a20,20,0,0,1-4.24.33,1.12,1.12,0,0,1-.5.21,55.63,55.63,0,0,1-6.21.29,4,4,0,0,1-.1-.52,19.7,19.7,0,0,1,.64-7.07c1.42-5.69,4.53-11.83,7.28-13.37a9.47,9.47,0,0,1,3.55.52,0,0,0,0,1,0,0,1.57,1.57,0,0,1,.12.45A139.92,139.92,0,0,1,450.5,807.75Z" fill="#e6e6e6" style="mix-blend-mode:multiply"/><path d="M502.79,805.66c-.38,1.73-3.82,2.66-8.27,3.08a101.14,101.14,0,0,1-15.27.07h-.09c-1.88-.11-3.51-.26-4.82-.4-6.13-.71-19.81,1.16-26.24,1a7.53,7.53,0,0,1-3.1-.49c-.85-.53-1.21-1.85-1.12-3.7.12-4.2,2.4-11,5.65-16.43,0,0,10.52-6.07,12-6s4.88,7.94,9.27,9.56S503.74,801.35,502.79,805.66Z" fill="#471208"/><path d="M479.25,808.81h-.09c-.62,0-1.43.1-7.94-.11-6-.22-17.73,2.27-23.57,1.39-1.63-.23-2.82-.73-3.27-1.63a4.41,4.41,0,0,1-.5-3.27c1.31-4.86,13.9-4.08,18.23-3.51a29.76,29.76,0,0,1,6.64,2.09A73.87,73.87,0,0,1,479.25,808.81Z" fill="#75241b"/><path d="M446,789.33c-.21.4-2.3.45-5,.28-4.72-.33-11.26-1.42-12.64-2.79-2.15-2.16-5.52-18.14-6.11-30.79s-8-31-13-51.21c-4.41-17.68-11.09-79.43-9.29-110.77a83,83,0,0,1,1-9.64c.07-.57.19-1.09.29-1.62l2.56-.8,22-7s0,.22.05.62c.17,1.68.66,6.75,1.4,14.24C432,638.26,446.54,788.43,446,789.33Z" fill="#66180e"/><path d="M468.56,784c-.52,1.35-25.48,7.54-27,7-.17,0-.34-.57-.5-1.43-1.31-6.82-2.59-35.88-3.63-41.41s-15.81-111.64-18.75-156.45c-.31-4.57-.5-8.53-.52-11.66,0,0,3.18-1.87,7.75-4.5,10.5-6,28.3-16,32-16.52H458a.72.72,0,0,1,.52,0c.52.31,1.06,5,1.56,12.37,1.76,25.65,3.25,83.7,3.49,100.23C463.82,693,469.06,782.76,468.56,784Z" fill="#7a1c12"/><path d="M422.73,434.25c-22.52,17.78-36.15,59.46-36.15,77s8.5,60.05,12.45,63.21S422.73,434.25,422.73,434.25Z" fill="#c73e2c"/><path d="M460.05,571.46c-4.22,3.3-6.39,5.69-13.91,10.94-6.22,4.35-8.73,4.92-18.8,7.43-2.77.69-5.69,1.33-8.63,1.92a118.39,118.39,0,0,1-18.7,2.3,83,83,0,0,1,1-9.64l2.85-2.42c5.76-4.86,12-10,15.52-12.42,7.59-5.26,26.29-10.91,38.55-10.5H458l.52,0C459,559.4,459.55,564.09,460.05,571.46Z" fill="#e6e6e6" style="mix-blend-mode:multiply"/><path d="M422.73,434.25c-15.16,9.31-15.41,55.11-15.41,72.69s-6.91,31.61-9.67,41.48-4.75,41.29-.79,42.47,33.38-4.34,45-13,18-11.66,18.57-13.44-3-17.58,1.58-37.33,12-45.83,12-45.83,10.08,50.37,29.24,53.73,42.1-48.79,41.87-52.15c-.09-1.48-12-12-14.81-10.07s-21.33,33-22.12,31.21-2.37-40.1-22.92-55.11S434,427.33,422.73,434.25Z" fill="#db4630"/><path d="M494.52,808.74a101.14,101.14,0,0,1-15.27.07h-.09c-.62,0-1.43.1-7.94-.11-6-.22-17.73,2.27-23.57,1.39a4.38,4.38,0,0,1,.45-.71c2.49-3,10.65-5.26,20.65-5.61.95,0,1.9-.08,2.87-.08C482.19,803.69,491.17,805.8,494.52,808.74Z" fill="#e6e6e6" style="mix-blend-mode:multiply"/><path d="M810.62,490.77s-.18,2.94-.63,6.41a.66.66,0,0,0,0,.24,44.35,44.35,0,0,1-1.93,9.16l0,.05c-.59,1.49-1.33,2.25-2.18,1.7a3.16,3.16,0,0,1-.9-1.11,44.08,44.08,0,0,1-3.17-8.4c-2.84-9.61-5.8-23.23-7-25.42-1.82-3.31-11.6-4.14-14.91-8.77s5.17-11.63,4.8-14.06c-.48-3.31-4.45-18.06-3.13-18.89.61-.39,9.46,18.2,12.24,23.18,3.86,6.94,12.47,26,15.68,33.15.26.61.5,1.14.68,1.57C810.44,490.35,810.62,490.77,810.62,490.77Z" fill="#f2caad"/><path d="M857.78,794c-3.8,2.48-11.58,12.41-9.76,15.39s13.74-.83,13.9-2.65S857.78,794,857.78,794Z" fill="#365dbd"/><path d="M869.52,754.62c-4.61,18.89-.63,23.84-.63,26.14s-8.95,25.85-10.6,25.51-1-27.15.64-39.38-3.28-61.6-4.61-74.16c-1.14-10.94-10.27-63.51-13.32-85-.21-1.54-.4-2.89-.56-4.08-.18-1.35-.29-2.46-.37-3.31,0,0,24.84-13.24,26.49-9.27.61,1.48,1.19,5.22,1.56,10.46.29,3.81.48,8.42.48,13.56.08,6.65-.14,14.17-.72,22-1.64,22.16.66,24.81,7.28,49.31S874.18,735.74,869.52,754.62Z" fill="#f2caad"/><path d="M922.67,789.55c-6.29,7-8.61,14.4-7.45,15.89s13.9-2,14.4-5S922.67,789.55,922.67,789.55Z" fill="#365dbd"/><path d="M924.16,801c-2.31-1-2.65-30.8-4.64-39.38s-27.8-75.48-32.09-86.07c-3.69-9-9.49-36.92-12.58-59.54-.53-4-1-7.81-1.35-11.33,0,0,28.49-5.62,29.47-2,.35,1.27,0,5.67-.55,11.41-1,9.32-2.71,22.2-3.71,30.86-.13,1.21-.27,2.35-.37,3.39-1.25,12,3.41,18.11,11.41,30.58.58.93,1.19,1.88,1.83,2.86,11.25,17.88,15.23,48.65,15.57,66.21s5.56,20.26,6.54,22.25S926.46,802,924.16,801Z" fill="#f2caad"/><path d="M889.73,479.86c-.61,19.33-8.1,42.53-3.84,57.76a21.3,21.3,0,0,0,1.54,4.16c7.25,14.88-31.47-8.95-31.47-27.18,0-12.81,12.85-43.91,20.4-61.15,3.17-7.2,5.42-12,5.42-12l.22.29a34.53,34.53,0,0,1,2.12,3.23C888.43,452.29,890.29,461.69,889.73,479.86Z" fill="#f06142"/><path d="M868.12,601.55c.29,3.81.48,8.42.48,13.56-11.5-1.88-22.3-5-27.6-7.36-.21-1.54-.4-2.89-.56-4.08C844.5,602.79,855.94,602,868.12,601.55Z" fill="#e6e6e6" style="mix-blend-mode:multiply"/><path d="M902.42,614.1c-6.52,3-17,3.13-27.57,1.88-.53-4-1-7.81-1.35-11.33,0,0,28.49-5.62,29.47-2C903.32,604,903,608.36,902.42,614.1Z" fill="#e6e6e6" style="mix-blend-mode:multiply"/><path d="M922.17,603c0,1.32-10.27,6.93-35.43,9.27a84.3,84.3,0,0,1-15.07-.06c-20.47-1.69-39.49-9.35-40.55-11.2-1.32-2.3,17.56-66.55,17.9-78.79s-4.31-29.13-5.29-29.79-16.9,33.76-23.2,38.05S800.35,512.3,800,510.63s8-20.5,9.59-23.14,11.91,18.19,12.92,18.19,12-45.37,21-56.6a8.32,8.32,0,0,1,2.12-2s.13-.1.39-.26c3.34-2.28,27.12-17.88,35-6.7a9.13,9.13,0,0,1,.93,1.64,7.44,7.44,0,0,1,.45,1,35.89,35.89,0,0,1,1.16,3.89c4.13,17-2.09,40.13-5.45,52.73-2.68,9.93-2.33,19,3.15,30.14a75.58,75.58,0,0,0,4.58,8.08c1.06,1.67,2.22,3.36,3.5,5.14C902.31,560.63,922.17,601.68,922.17,603Z" fill="#ff7c5f"/><path d="M884.12,445a8.77,8.77,0,0,1-.51,1.69,10.77,10.77,0,0,1-5.45,6,15.39,15.39,0,0,1-1.8.74c-10,3.61-27,1.43-32.79-4.37a7.45,7.45,0,0,1-1.17-1.45l3.68-.82c8.21-1.8,27.81-6,35-6.7a9.13,9.13,0,0,1,.93,1.64A34.53,34.53,0,0,1,884.12,445Z" fill="#e6e6e6" style="mix-blend-mode:multiply"/><path d="M894.15,435.5c.43,1.53-6.41,7.73-21.63,12.58-14.57,4.63-31.73,1.61-33.8.74-.1,0-.16-.05-.18-.08-.67-.66-.67-27.6-.67-27.6a61.41,61.41,0,0,1-1.77,10.17c-1.54,6.17-6.83,14.78-6.83,14.78s3.18-8.13,3.52-13.24c.85-13-1.77-24-2.62-33-.77-7.91-.13-14.24,5.48-18.9s15.73-6.94,23.86-3.26a16.85,16.85,0,0,1,4.19,2.59,29.62,29.62,0,0,1,2.7,2.52c5.16,5.3,10.35,13.8,14.51,27.49C885.7,426.28,893.7,434,894.15,435.5Z" fill="#542300"/><path d="M870.5,806.56c0,.29,0,.58,0,.85a16.87,16.87,0,0,1-.27,2.48c-.34,1-4.42,2.07-9.06,2.41-5,.35-10.64-.21-13-2.88,0,0,12-1,9.85-2.65s9.35-26.32,11.33-28C871,777.43,871,798.16,870.5,806.56Z" fill="#365dbd"/><path d="M870.5,806.56c0,.29,0,.58,0,.85a16.87,16.87,0,0,1-.27,2.48c-.34,1-4.42,2.07-9.06,2.41.4-5.72,5.94-20.31,8.72-26.8C869.87,785.5,870.53,798.32,870.5,806.56Z" fill="#e6e6e6" style="mix-blend-mode:multiply"/><path d="M869.47,778.75s6.91-1.28,6.58,15,.84,18.65-2.43,18.65-5.63,2-5.63-9.16S869.47,778.75,869.47,778.75Z" fill="#3b68d1"/><path d="M937.24,804c-.08.29-.56.69-1.3,1.11a26.4,26.4,0,0,1-8.1,2.57c-4.45.75-9.46.56-12.61-2.19,0,0,8.42-.67,8.11-2.33s8.66-33.59,10.48-34.27S937.74,802.14,937.24,804Z" fill="#365dbd"/><path d="M936.58,804a2.42,2.42,0,0,1-.64,1.11,26.4,26.4,0,0,1-8.1,2.57c-.77-4.95,2.86-21.82,6.25-32.33C934.09,775.31,936.58,802.8,936.58,804Z" fill="#e6e6e6" style="mix-blend-mode:multiply"/><path d="M933.81,768.86c3,.17,9.66,5.91,8.89,20.57s1.16,17.15-4,17.66-4.8-1.53-5.79-7.47S933.81,768.86,933.81,768.86Z" fill="#3b68d1"/><path d="M894.15,435.5c.43,1.53-6.41,7.73-21.63,12.58-14.57,4.63-31.73,1.61-33.8.74,5.93-4.45,26.8-11.92,33.45-19,7.1-7.44,1.25-29.19-5.77-47,5.16,5.3,10.35,13.8,14.51,27.49C885.7,426.28,893.7,434,894.15,435.5Z" fill="#ccc" style="mix-blend-mode:multiply"/><path d="M270.57,492c-3.73,3.36-8,7.16-5.22,13.58s5.15,12.16,9.7,12.31,11.79.37,11.56-4.25-.11-15.9-3.77-20.07S270.57,492,270.57,492Z" fill="#190e6e"/><path d="M291.15,526.73c0,1.39-12.72,8.86-12.72,6.76a26.87,26.87,0,0,0-3.61-10.17,11.47,11.47,0,0,0-4.25-4.44s-3.13-11.7,3.44-11.7a6.05,6.05,0,0,1,3.15,1.1C283.49,512.22,291.15,525.56,291.15,526.73Z" fill="#ffd6bb"/><path d="M274.89,511.76c.1.77,1.86,6.62-.07,11.56a11.47,11.47,0,0,0-4.25-4.44s-3.13-11.7,3.44-11.7a6.05,6.05,0,0,1,3.15,1.1C276,510.4,274.82,511.05,274.89,511.76Z" fill="#e6e6e6" style="mix-blend-mode:multiply"/><path d="M244.61,498.08c2.2,15.42,12.83,29.85,17.6,29.55s11.64-8.06,11.79-11.34-4.47-17.16-7.61-19.7S244.46,497,244.61,498.08Z" fill="#ffd6bb"/><path d="M268.63,504.9c.9-5.77,5.26-5.72,6.72-4.38,1.84,1.69,2.78,9.6-5,11.19S268.63,504.9,268.63,504.9Z" fill="#ffd6bb"/><path d="M274.3,546.88c-5.67,6-16.71,43.87-19.4,46.11s-37.9,40.14-36.56,43.43S236.55,626,236.55,626s26.56-20.29,30.14-25.07,14.92-25.82,14.92-28S274.3,546.88,274.3,546.88Z" fill="#f0caaf"/><path d="M305.1,887.17c-2-1.77-5.59-18.29-7.88-30.8,0,0,0-.07,0-.09-1.07-5.83-1.86-10.77-2.05-13a130.91,130.91,0,0,1,4.75-12.4c.26-.52.53-1,.76-1.5,0,0,0,0,0,0,1.07-2.06,2.15-3.47,2.94-3.37a.69.69,0,0,1,.5.26,4.45,4.45,0,0,1,.71,2.18,23.37,23.37,0,0,1,.27,3.41c0,1.1.07,2.15.14,3.15v.1c1.15,15.52,7.69,20.63,8.59,21.92S308,889.75,305.1,887.17Z" fill="#ffd6bb"/><path d="M359.32,863.29c0,1.1-16.71,23.28-18.22,21.28-1.07-1.43-1.43-20.89-1.79-32.5-.12-4.34-.24-7.59-.41-8.38,0,0,3.85-10.5,7.12-17.36,1.91-4,3.61-6.73,4.23-5.42a3,3,0,0,1,.21.7,11.81,11.81,0,0,1,.38,2.48s0,0,0,.07c.58,7.09-.55,22-.38,25.22C350.65,853.24,359.32,862.2,359.32,863.29Z" fill="#ffd6bb"/><path d="M326.58,874c-.14.12-.54.07-1.12-.07-2.43-.55-8-3-9.62-3-2,0-1.5,1.67.29,6.66s3.39,14.33,1.6,16c-1.25,1.17-13.06,3.56-20.32,3.75-3.27.1-5.61-.24-5.64-1.36-.12-3.58,11.94-11,13-12s6.23-25.72,7.76-29.56c.21-.5,5.58,1.38,8.16,4.08S330.26,871.15,326.58,874Z" fill="#264fa8"/><path d="M364.38,889.65c-.09.41-2,2.58-4.08,1.51a1.71,1.71,0,0,1-.5-.45c-1.79-2.2-3-10.46-4.06-10.92h-.05c-1.19-.16-2.87,11.77-4.94,14.54-1,1.29-6.11,2.51-11.49,3.16a60.62,60.62,0,0,1-8.23.45c-2.77-.05-4.83-.43-5.35-1.22-1.79-2.79,11.55-12.94,13.85-14.54s15.47-18.74,20-20.68c.69-.31,4.68,4.37,6.06,8.55S364.48,889.25,364.38,889.65Z" fill="#264fa8"/><path d="M303.62,826c-.94,1.19-2.3,3-3.73,4.89a130.91,130.91,0,0,0-4.75,12.4c.19,2.22,1,7.16,2.05,13,0,0,0,.07,0,.09,4.77-4,7.2-20.45,7.55-28.52Z" fill="#e6e6e6" style="mix-blend-mode:multiply"/><path d="M317.13,675.36c-.33,2.25-3.34,9.12-7.24,17.22v0c-6.51,13.54-15.44,30.52-18.43,35-4.77,7.16,3.58,8.64,11.34,28.34s5.07,43.28,3,64.15-7.48,30.76-10.75,32.24-5.65-37.59-9.55-54S270,749.09,268.18,734.46c-1.6-13,19-80.54,24.43-100.14.55-2,.95-3.56,1.14-4.44.05-.19.08-.36.1-.48l1-.14c.77-.12,1.91-.26,3.32-.43,6.66-.76,18.89-1.67,21.06,1.77a8.18,8.18,0,0,1,.81,3.15C321.19,643.66,317.92,670.16,317.13,675.36Z" fill="#eb9d9a"/><path d="M351.25,820.8a23.71,23.71,0,0,1-.41,3.29s0,0,0,.07c-1.17,7.21-4.94,22.76-11.53,27.91-.12-4.34-.24-7.59-.41-8.38,0,0,3.85-10.5,7.12-17.36,1.72-1.83,3.49-3.7,4.44-4.72C351,821.11,351.25,820.8,351.25,820.8Z" fill="#e6e6e6" style="mix-blend-mode:multiply"/><path d="M352.94,816.83c-2.67,13.13-14,32.83-16.11,33.43s-6.57-85.07-7.48-87.46-4.15-6.54-8-15.52c-1.86-4.32-6.64-28.82-11.42-54.68v0c-4.08-22.13-8.16-45.25-10.5-57.52-.5-2.6-.91-4.73-1.22-6.23-.05-.22-.09-.43-.14-.62a38.17,38.17,0,0,1,4.06-2.2c7.66-3.7,24.78-9.62,38,2.51a7.25,7.25,0,0,1,.62.62l0,.05a22.75,22.75,0,0,1,4.8,8.35c8.74,24.74-1.58,79.15-1.58,91.83,0,11.25,3.39,9.08,11.06,27.17C363.5,776.55,355.62,803.7,352.94,816.83Z" fill="#ffaba8"/><path d="M345.57,637.54c-4.71-.38-17-2.93-25.53-3.79a35.27,35.27,0,0,0-6.56-.17c-4.23.48-9.43,1.41-14.09,1.48a21,21,0,0,1-6.78-.74c.55-2,.95-3.56,1.14-4.44.36-.19.72-.41,1.1-.62a46.24,46.24,0,0,1,7.24-3.25,28.52,28.52,0,0,1,4.37-1.17c8.28-1.41,19.48-.28,27.17,1a17.69,17.69,0,0,1,7.09,3.25l0,.05A22.75,22.75,0,0,1,345.57,637.54Z" fill="#e6e6e6" style="mix-blend-mode:multiply"/><path d="M293.05,524.15c-5.77,1.39-15.52,6.76-16.31,10s-10.55,25.26-3.78,37.8c3.2,5.93,24.87,28.45,25.07,35.22s-7.36,24.87-5.57,26.46,14.82-2.49,24.87-3,27.26,6.76,27.85,5.77-22.68-45.17-21.88-48-4-34.82-13.53-46S293.05,524.15,293.05,524.15Z" fill="#7aa5fa"/><path d="M341.82,589.48c.14.55,1.17,4.25,2.39,7.38.33.83.64,1.62,1,2.29,1.7,3.49,6,5.59,5.57,6.07S339,612,339,612a14.58,14.58,0,0,1-2.29-3.49,10.87,10.87,0,0,1-.91-4.49,10.88,10.88,0,0,0-1.57,3.3,38.26,38.26,0,0,0-1.1,5S322.36,599,320,576s-10.7-31.75-16.26-37.82-15.49-11.87-21.15-20.25c-.89-1.31-1.65-2.43-2.3-3.43-3.94-5.95-4.29-6.86-4.29-6.86s6.54,0,8.42-3.39-5.25-16.95-10.24-11.34c-2.84,3.2-5.51,12-5.51,12s-3-7.69-12.68-6-11.25,1.1-11.94.72-1.43-3.8-.81-8.6a26.79,26.79,0,0,1,1-4.66c2.2-7,7.35-13.22,18.51-14.51a8,8,0,0,1,1.07-.1c4.82-.43,8.45.22,11.75,2,3.84,2.08,7.18,5.73,11.29,11.08,7.9,10.29,36.87,72.56,48.21,91.87a63.73,63.73,0,0,0,6.78,9.58C350.6,596.33,358,597,358,597a16.82,16.82,0,0,1-9.34-1.6C343.82,593.18,342.08,590,341.82,589.48Z" fill="#190e6e"/><path d="M350.75,605.22c-.38.5-11.73,6.78-11.73,6.78a14.58,14.58,0,0,1-2.29-3.49,10.87,10.87,0,0,1-.91-4.49,10.88,10.88,0,0,0-1.57,3.3,38.26,38.26,0,0,0-1.1,5S322.36,599,320,576s-10.7-31.75-16.26-37.82-15.49-11.87-21.15-20.25c-.89-1.31-1.65-2.43-2.3-3.43,15.09,11.79,28.51,18.91,36.42,38,5.85,14.2,17.52,36.65,27.53,44.32.33.83.64,1.62,1,2.29C346.88,602.64,351.15,604.74,350.75,605.22Z" fill="#ccc" style="mix-blend-mode:multiply"/><path d="M315.34,660.89c.6,7,.3,11.49,3.58,13.88s13.88,2.53,24.47,1.64,22.24-2.54,23.73-6.12-.3-12.68-2.24-14.62S315.34,660.89,315.34,660.89Z" fill="#f0655d"/><path d="M362.49,643s-46.11-86-51.93-93.71-9.7-13.28-16-13-8.66,9.55-6.72,18.06-.45-7.09,1.34-10.52,5.64-8.39,9.18-5.48,8,4.71,21.12,30.28,40.14,74.51,41,75S362.49,643,362.49,643Z" fill="#f0655d"/><polygon points="318.02 646.02 306.78 613.78 308.97 612.49 320.91 646.81 318.02 646.02" fill="#f0655d"/><path d="M315.24,665.52c8.74,4.37,27,2.36,37.41.49s14.18-4,14.88-6.29-1.23-15.49-3.2-17.09S318.51,643,316,645.9,312.65,664.22,315.24,665.52Z" fill="#ff847d"/><path d="M294.89,537.33c-11.79,1-6.86,28.8-5.67,36.26s7.91,32.38,5.67,32.53-38.79,7.46-51.48,14.48S206,642.24,208,644.32s16.87-5.37,25.82-6.26,6-7.76,15.22-10.3,52.83-4,56-6,11.86-17.95,5.23-52.08C304.2,538.47,297.83,537.08,294.89,537.33Z" fill="#ffd6bb"/><path d="M129.48,674.22l-2.34-.49c.51-2.41,5.21-23.48,14.14-24.06,5.49-.35,10.82,6.94,16.21,22.31l-2.25.79c-6.46-18.39-11.46-20.86-13.8-20.71C135.38,652.45,130.75,668.19,129.48,674.22Z" fill="#7aa6fa"/><path d="M109.41,672.78s62.47-5,63.07-4.18-5,136.09-6,136.29-62.08,1-62.28.2S109.41,672.78,109.41,672.78Z" fill="#7aa5fa"/><polygon points="172.48 668.6 184.62 803.9 166.51 804.89 172.48 668.6" fill="#4d7bd1"/><polygon points="53.49 686.9 121.54 681.73 156.76 805.29 69.21 805.29 53.49 686.9" fill="#ffaba8"/><polygon points="53.49 686.9 48.32 804.5 69.21 805.29 53.49 686.9" fill="#db8986"/><path d="M110.6,806.68a1.19,1.19,0,0,1-1.19-1.19V707.9a1.19,1.19,0,1,1,2.38,0v97.59A1.19,1.19,0,0,1,110.6,806.68Z" fill="#a38675"/><path d="M67.32,806.73a1.14,1.14,0,0,1-1.14-1.15v-90a1.15,1.15,0,0,1,2.29,0v90A1.14,1.14,0,0,1,67.32,806.73Z" fill="#a38675"/><path d="M153.87,806.63a1.25,1.25,0,0,1-1.24-1.24v-106a1.25,1.25,0,0,1,2.49,0v106A1.25,1.25,0,0,1,153.87,806.63Z" fill="#a38675"/><path d="M32.18,782.8a1.19,1.19,0,0,1,0-2.37l161.32-2.38h0a1.18,1.18,0,0,1,0,2.36L32.19,782.8Z" fill="#a38675"/><path d="M16.2,755.52a1.28,1.28,0,0,1-.13-2.56l188-18.93a1.28,1.28,0,0,1,.26,2.54l-188,18.94Z" fill="#a38675"/><path d="M186.7,807.88H47.39a3.06,3.06,0,0,1-2.6-1.47L.51,732a3.68,3.68,0,0,1-.19-3.19,2.81,2.81,0,0,1,2-1.68,2.39,2.39,0,0,1,2.73,3.18L48.38,803.1H186.7a2.39,2.39,0,1,1,0,4.78Z" fill="#c7a8a0"/><path d="M3.58,733.67a3.58,3.58,0,0,1-.76-7.08l213-46.07a3.58,3.58,0,0,1,1.52,7l-213,46.07A3.33,3.33,0,0,1,3.58,733.67Z" fill="#a38675"/><rect x="97.68" y="741.92" width="207.89" height="7.16" transform="translate(-570.49 761.39) rotate(-76.04)" fill="#c7a8a0"/><polygon points="84.08 880.15 174.29 840.86 178.82 851.9 86.98 887.22 84.08 880.15" fill="#c7a8a0"/><polygon points="219.62 888.7 172.63 850.87 180.49 841.89 224.22 883.45 219.62 888.7" fill="#c7a8a0"/><circle cx="78.96" cy="886.67" r="14.33" fill="#8a7261"/><circle cx="229.98" cy="886.67" r="14.33" fill="#8a7261"/><path d="M241.35,645.19l-31.63,4.6a2.76,2.76,0,0,1-1.14-5.4l30.81-8.54a4.78,4.78,0,1,1,2.55,9.22A5.6,5.6,0,0,1,241.35,645.19Z" fill="#a38675"/><path d="M74,688.06l-2.37-.33c.39-2.81,4.1-27.55,13.11-28.43,5.6-.52,11.25,7.86,17.41,25.67l-2.26.78C92.5,664.27,87.41,661.45,85,661.68,79.62,662.2,75.41,678.14,74,688.06Z" fill="#ffaba8"/><path d="M359.8,890.71c-1.79-2.2-3-10.46-4.06-10.92h-.05c-1.19-.16-2.87,11.77-4.94,14.54-1,1.29-6.11,2.51-11.49,3.16a60.62,60.62,0,0,1-8.23.45c4.84-2,18.12-6.16,19.34-9.84,1.67-5.11,3.62-11.17,6.44-10.74C359.46,877.79,359.25,882.06,359.8,890.71Z" fill="#ccc" style="mix-blend-mode:multiply"/><path d="M316.13,877.62c1.79,5,3.39,14.33,1.6,16-1.25,1.17-13.06,3.56-20.32,3.75,4.39-1.43,14.06-4.91,16.11-6.27,2.48-1.65-2.07-19.06.43-21.21,2.27-2,8.81,1.55,11.51,4.06-2.43-.55-8-3-9.62-3C313.86,871,314.34,872.63,316.13,877.62Z" fill="#ccc" style="mix-blend-mode:multiply"/><circle cx="342.26" cy="666.27" r="2.94" fill="#fc0"/><circle cx="342.26" cy="666.27" r="2.15" fill="#ff847d"/><path d="M341.82,586.26c-20.68-16.5-42.91-76.81-53.2-94.6-9.36-16.21-17.29-18.5-24.83-19.94,4.82-.43,8.45.22,11.75,2,3.84,2.08,7.18,5.73,11.29,11.08,7.9,10.29,36.87,72.56,48.21,91.87A63.73,63.73,0,0,0,341.82,586.26Z" fill="#e6e6e6" style="mix-blend-mode:soft-light"/><polygon points="1039.72 691.37 1001 688.42 980.95 758.75 1030.78 758.75 1039.72 691.37" fill="#ffaba8"/><polygon points="1039.72 691.37 1042.67 758.29 1030.78 758.75 1039.72 691.37" fill="#db8986"/><path d="M1028,692l1.34-.19c-.22-1.6-2.33-15.68-7.46-16.18-3.19-.3-6.4,4.47-9.9,14.61l1.28.44c4.22-12.22,7.12-13.83,8.49-13.7C1024.86,677.31,1027.25,686.38,1028,692Z" fill="#ffaba8"/><polygon points="968.51 702.41 1000.67 699.96 1017.32 758.36 975.94 758.36 968.51 702.41" fill="#7aa5fa"/><polygon points="968.51 702.41 966.07 757.98 975.94 758.36 968.51 702.41" fill="#4d7bd1"/><path d="M978.22,703l-1.12-.15c.18-1.33,1.93-13,6.19-13.44,2.65-.24,5.32,3.71,8.23,12.13l-1.07.37c-3.5-10.15-5.91-11.48-7.05-11.38C980.86,690.73,978.87,698.27,978.22,703Z" fill="#7aa5fa"/><path d="M1081.55,517.89c0,1.18,22.77,3.81,22.77,3.81-1.32-1.32-2.16-5.62-2.56-9.56-.36-3.51-.36-6.7-.07-7.34.18-.44-1.2-1.73-3.2-3.19-4-3-10.53-6.72-11.51-5.76C1085.52,497.31,1081.55,516.72,1081.55,517.89Z" fill="#ffdec7"/><path d="M1091,500.15c1.56,4.25,7.31,9.68,10.77,12-.36-3.51-.36-6.7-.07-7.34.18-.44-1.2-1.73-3.2-3.19C1094.71,500.69,1091,500.15,1091,500.15Z" fill="#e6e6e6" style="mix-blend-mode:multiply"/><path d="M1122.38,482.78c0,6.17-.88,24.23-8.52,27.32s-26.73-11.75-26.87-14.25-5.14-19.83,3.38-23.2S1122.38,482.78,1122.38,482.78Z" fill="#ffdec7"/><path d="M1155.29,551.21s1.45,12.93,10.26,4.56a15,15,0,0,0,2.92-4c.23-.45.47-.92.7-1.41,5.74-12.34,7-36,6.54-36s-9,12-12.06,17.32-.44,13.23-.44,13.65a14.31,14.31,0,0,1-2.85,2c-.19.14-.4.26-.61.4a30.47,30.47,0,0,0-4,3C1155.59,550.88,1155.43,551.05,1155.29,551.21Z" fill="#ffdec7"/><path d="M1163,532c-1.16-4.7-1.31-6.94-.47-7.4s5.48-1.16,5.56-.93S1163,532,1163,532Z" fill="#ffdec7"/><polygon points="952.11 703.34 1003.14 664.86 1008.34 661.21 1007.32 659.77 1002.11 663.44 951.05 701.93 952.11 703.34" fill="#c7a8a0"/><path d="M1012.86,662.5a3.38,3.38,0,0,0,.43,2.07c1.31,3,5.16,6.86,5.47,6.63s-.73-6-1.32-9.54a20.78,20.78,0,0,1,1.11-9.85,5.57,5.57,0,0,1,.33-.94,30.68,30.68,0,0,1,1.62-3.74s-2.35-3.24-3.53-2.25c0,0,0,0,0,0a11.54,11.54,0,0,0-1.2,3.37c-.19.84-.4,1.78-.64,2.79C1014.15,655.52,1013.21,661,1012.86,662.5Z" fill="#ffdec7"/><path d="M1013.31,665.53a5.78,5.78,0,0,1,.59-3.33c.14,0,4.7,7.83,4,7.54S1013.31,665.53,1013.31,665.53Z" fill="#e6e6e6" style="mix-blend-mode:multiply"/><rect x="1033.98" y="652.72" width="1.76" height="61.36" transform="translate(-146.66 1060.21) rotate(-51.13)" fill="#c7a8a0"/><path d="M1010.18,672.09c1.81-3.71,5.64-13.65,6.86-20.49.15-.73.26-1.41.33-2.05a11.31,11.31,0,0,0,0-3c-.89-5.43-4.7-1.74-4.7-1.74-.28.43-.61.94-1,1.6s-.94,1.6-1.5,2.56c-4.77,8.27-13.09,24.14-13.93,28C995.19,681.63,1007.83,676.93,1010.18,672.09Z" fill="#ffdec7"/><path d="M1112.54,866.54c-.89-1.9-4.84-2.35-5.43-11.3a53.9,53.9,0,0,1,.07-8c0-.61.1-1.15.15-1.69.35-3.32.79-5.36.37-5.85-.75-.87-12.92,2.21-12.92,2.21,0,.79,0,1.83-.1,3-.09,1-.18,2.19-.33,3.43-.58,5.5-1.85,12.48-4.13,16.71C1086.84,871.38,1113.44,868.44,1112.54,866.54Z" fill="#ffdec7"/><path d="M1024.42,839.66c.59-2.64,1.46-10,4.42-12.93,1.53-1.55,4.21-3.69,6.39-5.5l1.3-1.05v0c1.33-1.1,2.27-1.95,2.27-2.23a11.94,11.94,0,0,0-1.71-2.42c-1.41-1.72-3.36-4-4.91-5.76l-2.33-2.68a17.4,17.4,0,0,1-2.28,2.78c-.75.77-1.57,1.57-2.49,2.37-4.56,4.09-10.5,8.15-11.51,8.06C1012.09,820.13,1023.84,842.31,1024.42,839.66Z" fill="#ffdec7"/><path d="M1036.9,553c3.29-1,27-22.51,33.49-26.08,3.19-1.77,8.08-3.62,12.47-5.5,4.14-4.54,7.1-8.16,8-10,2.32-5.1,1-10.6.18-15-.54-3-.79-5.57.55-7.14,3.33-3.93,14.94-5.15,15.72-7.1s-18.62-17.25-18.62-17.25c-3.94,3.86-5.12,10.25-6.22,15.79-1,5.22-2,9.69-5.13,10.65-5.71,1.74-24.18,4.39-33,16.4a23.61,23.61,0,0,0-2.87,5.15c-.14.35-.28.7-.4,1.08C1037.35,524.17,1036.76,541.11,1036.9,553Z" fill="#591508"/><path d="M1030.44,544.76l.12,0c2-.86,2.12-3.67,2.22-7.92.17-7.12.43-17.88,10-29.36,7.32-8.76,12.38-9.82,24.61-12.37l.54-.12a.29.29,0,0,0,.22-.34.29.29,0,0,0-.34-.23l-.54.11c-12.37,2.59-17.49,3.66-24.94,12.57-9.73,11.64-10,22.52-10.17,29.72-.1,4-.16,6.68-1.86,7.4a.3.3,0,0,0,.11.57Z" fill="#591508"/><path d="M1082.44,478.81s40.09,6,39.5-3.21a17.35,17.35,0,0,0-.94-4.73,0,0,0,0,1,0,0c-2.4-7-9.07-12.2-18.12-12.46a21.62,21.62,0,0,0-9,1.67C1087.66,462.74,1082.75,468.73,1082.44,478.81Z" fill="#ff7738"/><path d="M1092.47,480.08c-.3,1,15,8.32,20.85,9.31,5.14.84,16.45-1.76,21.55-4,4.58-2-2.52-6.88-10.25-9.12-.89-.26-1.79-.47-2.68-.65,0,.16-.16,1.83-7.45,3.61-5.66,1.39-14.9.66-19.38.62C1093.53,479.78,1092.55,479.83,1092.47,480.08Z" fill="#f06526"/><path d="M1084.79,876.53c0,1.15,13.84,4.72,25.92,7.07,6.49,1.27,12.45,2.18,15.49,2.18,8.67,0,18.07.43,18.21-1.48s-23.78-15.72-31.87-17.76-21.15-3.83-21.15-3.83a2.26,2.26,0,0,0-1.12.8C1087.82,866.23,1084.79,875,1084.79,876.53Z" fill="#ffc9b8"/><path d="M1006.75,848.77c6.68,14.27,15.68,30.32,17.81,30.25,3.67-.14,1-34.08-.14-39.36s-8-20.85-8-20.85c-.54-.3-2.16,0-4.23.73-4.23,1.48-10.34,4.63-12.43,7.45h0c-.11.17-.21.31-.3.47C998.41,829.22,1002,838.53,1006.75,848.77Z" fill="#ffc9b8"/><path d="M1085.43,881.51c1.62,1.38,19.66,5.9,30.12,7.07,1.5.16,2.82.26,4,.28,8.9.1,27.61-2.54,24.91-4.56s-21.29-.37-26.86-1.71c-4.77-1.13-11.89-3.29-18.28-4.94-7.38-1.88-13.77-3.08-14.48-1.12C1083.78,879.3,1083.57,880,1085.43,881.51Z" fill="#a36153"/><path d="M993.43,832.32c-.28,1.86,7.28,18.29,13.65,27.69.14.23.31.44.45.65,6.46,9.26,16,20.28,17,18.36s-11-18.36-11.89-22.19c-.47-2-3.22-10.34-6.18-17.71-2.56-6.44-5.26-12.13-6.69-12.13h0a.3.3,0,0,0-.21,0C995.66,829.08,993.73,830.42,993.43,832.32Z" fill="#a36153"/><path d="M1094.35,848.35c2,1,9.26.49,12.83-1.15,0-.61.1-1.15.15-1.69-1.91-.87-5.43-2.21-8.51-2a7.39,7.39,0,0,0-4.14,1.36C1094.59,846,1094.5,847.11,1094.35,848.35Z" fill="#e6e6e6" style="mix-blend-mode:multiply"/><path d="M1092.08,762.06c-.52,33.44,1.85,83,2.25,84.2.59,1.79,10.88,1.48,12.62.3s9.12-42,15.58-86.07c5.92-40.37-4.21-108.4-10-140.29-.16-.91-.33-1.78-.47-2.63-.35-1.85-.68-3.57-1-5.12,0,0-11.66-5.08-17.16-1.9a5,5,0,0,0-2.25,2.51,4.37,4.37,0,0,0-.29,1.18,40.85,40.85,0,0,0-.25,5.42c0,24.47,8.95,105,3.78,112.94C1093.11,735.39,1092.31,747.12,1092.08,762.06Z" fill="#4d3f3c"/><path d="M999.56,716.05a13.47,13.47,0,0,0,2.8,2.1c.26.07.45.09.52,0a.23.23,0,0,0,.09-.12c0-.09.16-.18.38-.32a7.83,7.83,0,0,1,1-.5c3.53-1.55,12.74-4.37,13.14-4.74s-8.63-6.68-9.68-6.68c-.85,0-5.34,5.22-7.29,8.37a6.36,6.36,0,0,0-.89,1.76A.9.9,0,0,0,999.56,716.05Z" fill="#ffe633"/><path d="M983.4,710.67c-.17.52,4.72,3.86,9,6.54.49.3,1,.58,1.46.89a25,25,0,0,0,4.88,2.56,41.54,41.54,0,0,0,5.38-2c-.07-.1-.23-.29-.47-.57-.09-.14-.21-.28-.32-.44-.31-.36-.66-.83-1.09-1.34-.51-.66-1.12-1.41-1.76-2.21-3.45-4.28-8.1-9.92-8.48-9.73C991.43,704.68,983.7,709.78,983.4,710.67Z" fill="#ffe633"/><path d="M992.42,717.21c.49.3,1,.58,1.46.89,2.16.12,5.89.09,8.48,0a2.91,2.91,0,0,0,.52,0h.79c-.09-.14-.21-.28-.32-.44a7.83,7.83,0,0,1,1-.5,7.33,7.33,0,0,0-2.07-.84,13.09,13.09,0,0,0-2.65-.45,22.29,22.29,0,0,0-3.53,0C994,716,992.89,716.64,992.42,717.21Z" fill="#e6e6e6" style="mix-blend-mode:multiply"/><path d="M971.83,720.05V755a2.73,2.73,0,0,0,2.73,2.73H1022a2.71,2.71,0,0,0,2.71-2.73V720.05a2.72,2.72,0,0,0-2.71-2.73H974.56A2.74,2.74,0,0,0,971.83,720.05Z" fill="#ff672e"/><rect x="993.59" y="717.32" width="8.51" height="40.39" fill="#ffe633"/><path d="M1025.08,812.21c.59,2.84,7.05,8,10.15,9l1.3-1.05v0c.18-1.15.44-2.93.56-4.65.19-2,.19-4-.33-4.49s-2.44-1.06-4.58-1.27a14.7,14.7,0,0,0-4.61.1C1026.82,810.61,1026,811.41,1025.08,812.21Z" fill="#e6e6e6" style="mix-blend-mode:multiply"/><path d="M1026.49,811c-.3,2.07,7.61,9.71,10,10,1.88.24,37.65-35.5,55.63-59,4.46-5.85,7.84-10.92,9.3-14.49,6.89-16.78,4.56-90.4,2.56-126.94-.09-1.88-.21-3.64-.3-5.31,0-.54-.07-1.06-.1-1.58,0,0-4.25-1.62-9.61-3.19-7.8-2.28-18-4.44-20.75-1.32-1,1.2-2.23,3.69-3.43,7.07h0c-.94,2.66-1.91,5.9-2.84,9.47a227.17,227.17,0,0,0-6.63,40.44c-1.18,20.87,15.27,55.81,17.62,65.52s-4.7,9.4-13.23,18.49C1053.16,762.51,1026.77,809,1026.49,811Z" fill="#61504c"/><path d="M1159.75,547.71c1.58.94,6.58,3.86,8.72,4,.23-.45.47-.92.7-1.41-1.24-1.57-5.82-3-8.81-3C1160.17,547.45,1160,547.57,1159.75,547.71Z" fill="#e6e6e6" style="mix-blend-mode:multiply"/><path d="M1111,522.09c15.86,3.53,26.24,44.06,26.24,44.06s5.28-10.18,9.79-11.94,10.57-7.45,11.75-7.25,11.94,3.72,11.55,5.09-5.48,10.58-8.42,16.65-6.27,35.44-12.34,38.18a15,15,0,0,1-17.43-3.52c-4.5-4.9-21.54-42.1-21.54-45.83S1111,522.09,1111,522.09Z" fill="#ebc4b7"/><path d="M1010.16,648.94a19.18,19.18,0,0,0,4.93,2.14c.66.21,1.34.38,1.95.52a9.36,9.36,0,0,0,1.51.21,5.57,5.57,0,0,1,.33-.94c-.4-.35-.92-.82-1.51-1.32s-1.08-.87-1.64-1.26c-1.41-1-2.89-1.91-3.85-1.91h-.22C1011.22,647.11,1010.72,648,1010.16,648.94Z" fill="#e6e6e6" style="mix-blend-mode:multiply"/><path d="M1036.9,553c3.29-1,27-22.51,33.49-26.08,3.19-1.77,8.08-3.62,12.47-5.5,4.14-4.54,7.1-8.16,8-10,2.32-5.1,1-10.6.18-15,.15,6.58-1,14.36-7.09,16.19-6.58,2-34.52-9.68-42.84,1.39C1037.35,524.17,1036.76,541.11,1036.9,553Z" fill="#ccc" style="mix-blend-mode:multiply"/><path d="M1086.5,515.82c-25.07.4-34.07,5.88-44.06,22.72s-8.81,35.83-16.45,45.23-14.1,18.61-14.49,28.79-1.57,33.29-1.57,34.07,9.4,6.07,10,5.29,6.85-14.49,10-17.23,15.07-15.86,18-27,9.79-36.22,15.47-41.12S1086.5,515.82,1086.5,515.82Z" fill="#ffd5c7"/><path d="M1059.41,573.3c2.87,14,9.47,38.52,11.23,39.27,1.32.54,12.58.28,23,0,8-.18,15.49-.37,17.49-.16,4.58.49,4.39-4.39,8.5-26.53s2.94-40.32-8.62-63.82c0,0-17-6.67-24.46-6.28s-27.83,43.66-28.41,48.36C1058,565.34,1058.5,568.77,1059.41,573.3Z" fill="#ffd5c7"/><path d="M1066.89,625.77c5.28-.63,18-5.19,24.25-6.11h0c3.55-.51,8.41.43,12.76,1,3.55.47,6.75.66,8.6-.43-.16-.91-.33-1.78-.47-2.63-2-.58-5.36-1.52-8.43-2.25a45.31,45.31,0,0,0-5.13-1,57.12,57.12,0,0,0-7.12-.07c-7.82.28-18.79,1.24-21.59,2l0,0h0C1068.79,619,1067.82,622.2,1066.89,625.77Z" fill="#e6e6e6" style="mix-blend-mode:multiply"/><path d="M1068.48,619.43v0c.21.9,9.68-2.39,19.39-3.17s23.31,2.16,24.27,2,.59-2-1.05-5.78c0,0-1.09-.59-17.18-.42-5.69.07-13.23.23-23.27.54C1069.59,612.59,1068.48,618.47,1068.48,619.43Z" fill="#ebb6a0"/><path d="M1105.51,617.53a.3.3,0,0,0,.21-.09c.39-.4.34-1.34.2-3s-.3-3.58.27-4.65c2.88-5.38-6.26-88-6.65-91.55a.32.32,0,0,0-.32-.26.3.3,0,0,0-.26.33c.09.86,9.51,86,6.71,91.2-.65,1.23-.48,3.22-.34,5a6.19,6.19,0,0,1,0,2.53.3.3,0,0,0,0,.41A.29.29,0,0,0,1105.51,617.53Z" fill="#61504c"/><path d="M1099.2,518.16c.57-.73,3,5,1.88,5.65C1099,525.08,1099.2,518.16,1099.2,518.16Z" fill="#4d3f3c"/><path d="M1156.69,539.9h0a.88.88,0,0,0,1.23-.21l22.57-31.79a.88.88,0,0,0-.2-1.23h0a.88.88,0,0,0-1.23.21l-22.58,31.79A.88.88,0,0,0,1156.69,539.9Z"/><rect x="960.54" y="743.76" width="89.59" height="1.17" fill="#a38675"/><rect x="955.69" y="723.64" width="99.28" height="1.17" fill="#a38675"/><rect x="1004.45" y="702.78" width="1.18" height="54.93" fill="#a38675"/><rect x="979.34" y="703.08" width="1.17" height="54.93" transform="translate(-107.82 173.08) rotate(-9.57)" fill="#a38675"/><rect x="1003.27" y="729.96" width="54.93" height="1.17" transform="translate(138.37 1624.85) rotate(-80.39)" fill="#a38675"/><path d="M965,759.62h80a2.63,2.63,0,0,0,2.55-2l13.73-52.89a2.55,2.55,0,0,0-.11-1.66L1059,704l-13.72,53.07a.3.3,0,0,1-.28.21H965a.28.28,0,0,1-.27-.21L951,704.17l-2.28.59,13.73,52.89A2.64,2.64,0,0,0,965,759.62Z" fill="#a38675"/><path d="M948.76,704.76l2.27-.59a.31.31,0,0,1,.06-.25.28.28,0,0,1,.22-.11h107.45a.3.3,0,0,1,.27.18l2.17-.9a2.64,2.64,0,0,0-2.44-1.63H951.31a2.61,2.61,0,0,0-2.08,1A2.58,2.58,0,0,0,948.76,704.76Z" fill="#a38675"/><path d="M1093.86,460.06c13.82-1.36,23.64,6.7,27.12,10.79-2.4-7-9.07-12.2-18.12-12.46A21.62,21.62,0,0,0,1093.86,460.06Z" fill="#d9d9d9" style="mix-blend-mode:soft-light"/><path d="M1095.11,479.83c7.33,1.52,23,2.46,26.78.11,2.8-1.71,3.27-2.86,2.73-3.69-.89-.26-1.79-.47-2.68-.65,0,.16-.16,1.83-7.45,3.61C1108.83,480.6,1099.59,479.87,1095.11,479.83Z" fill="#e6e6e6" style="mix-blend-mode:multiply"/><path d="M1068.48,619.43v0c1.77-.94,3.62-4.61,6.54-4.82,6.84-.52,16.84-.61,18.58-2a.77.77,0,0,0,.28-.3.39.39,0,0,0,0-.28c-.28-2.14-15-4.54-20.59-7.5-5.87-3.08-7.63-45.37-8.06-47.14-.37-1.52-3.71,7.85-5.85,15.91,2.87,14,9.47,38.52,11.23,39.27C1069.59,612.59,1068.48,618.47,1068.48,619.43Z" fill="#e6e6e6" style="mix-blend-mode:multiply"/><path d="M1085.43,881.51c1.62,1.38,19.66,5.9,30.12,7.07-.4-1.27-2-3-4.84-5a56.88,56.88,0,0,0-10.36-5.45c-.38-.17-.73-.31-1.08-.5-9-4.13-9.24-9.65-9-14.14-2.45,2.72-5.48,11.51-5.48,13C1083.78,879.3,1083.57,880,1085.43,881.51Z" fill="#e6e6e6" style="mix-blend-mode:multiply"/><path d="M993.43,832.32c-.28,1.86,7.28,18.29,13.65,27.69a73.21,73.21,0,0,0-.33-11.24c-.07-.87-.14-1.78-.23-2.7a41.31,41.31,0,0,1,0-7,52.23,52.23,0,0,1,5.74-19.58c-4.23,1.48-10.34,4.63-12.43,7.45h0a.3.3,0,0,0-.21,0C995.66,829.08,993.73,830.42,993.43,832.32Z" fill="#e6e6e6" style="mix-blend-mode:multiply"/><path d="M1044.33,507.74c5.71-3.34,29.06-9,34.05-12.17,5.26-3.36,4.55-7.57,4-14.88-1,5.22-2,9.69-5.13,10.65C1071.58,493.08,1053.11,495.73,1044.33,507.74Z" fill="#d9d9d9" style="mix-blend-mode:soft-light"/></g></g></g></svg>