<svg xmlns="http://www.w3.org/2000/svg" viewBox="0 0 80.62 160.59"><g id="Layer_2" data-name="Layer 2"><g id="Plant"><path d="M44.74,136.36c-.85-3.4,1.39-6.79,3.9-9.24s5.51-4.64,6.82-7.89c2.14-5.26-.65-12.11,3-16.49,2.13-2.58,5.92-3.43,7.81-6.18a14.09,14.09,0,0,0,1.71-4.94,50.16,50.16,0,0,1,12.63-23.3,43.68,43.68,0,0,1-5,22.5c-1.47,2.76-3.27,5.45-3.77,8.53-.81,5,2,10.2.7,15.12-1.44,5.62-7.79,9.35-8.12,15.15-.29,4.9,4,9.23,3.62,14.13a13.28,13.28,0,0,1-2.22,5.8c-3.82,6.28-9.42,10.58-17.86,10.39l-10.33.31Z" fill="#e8505b"/><g opacity="0.3"><path d="M44.74,136.36c-.85-3.4,1.39-6.79,3.9-9.24s5.51-4.64,6.82-7.89c2.14-5.26-.65-12.11,3-16.49,2.13-2.58,5.92-3.43,7.81-6.18a14.09,14.09,0,0,0,1.71-4.94,50.16,50.16,0,0,1,12.63-23.3,43.68,43.68,0,0,1-5,22.5c-1.47,2.76-3.27,5.45-3.77,8.53-.81,5,2,10.2.7,15.12-1.44,5.62-7.79,9.35-8.12,15.15-.29,4.9,4,9.23,3.62,14.13a13.28,13.28,0,0,1-2.22,5.8c-3.82,6.28-9.42,10.58-17.86,10.39l-10.33.31Z"/></g><path d="M35.46,160.51a8.37,8.37,0,0,1-2.85-.08,17.4,17.4,0,0,1-3.35-.86,14.45,14.45,0,0,1-4.14-2.3A5.9,5.9,0,0,1,23.43,155a10.81,10.81,0,0,1-.47-3.1,29.71,29.71,0,0,0-.22-3.34,9.32,9.32,0,0,0-1.24-3.33c-1.21-2.15-3.22-4.19-3.86-7.1s-.17-6,.33-9.06,1-6.47-.18-9.71-3.34-6.17-4.46-9.82-.56-7.65-.77-11.55a15.36,15.36,0,0,0-1.32-5.75c-.82-1.83-2-3.57-2.87-5.5-1.81-3.9-2.11-8.32-2.59-12.65q-.35-3.27-.7-6.61A32.16,32.16,0,0,0,4,60.86a59.67,59.67,0,0,0-2.44-6.41A21.39,21.39,0,0,1,.35,51.1,33.34,33.34,0,0,1,0,47.54a41.8,41.8,0,0,1,.31-7.15c.3-2.39.74-4.75,1-7.14,0-.14,0-.28,0-.41l.06-.48.42.22a15.94,15.94,0,0,1,5.54,4.73,25.18,25.18,0,0,1,3.38,6.32c1.7,4.45,2.3,9.1,3.14,13.55S15.87,66,18.13,69.71c1.12,1.84,2.48,3.53,3.67,5.34A14.43,14.43,0,0,1,24.33,81c.59,4.38-1.84,8.2-1.36,12.08a13.28,13.28,0,0,0,1.85,5.37c.93,1.66,2,3.2,3.06,4.74a30.21,30.21,0,0,1,2.75,4.79,15,15,0,0,1,1.24,5.19c.24,3.49-.28,6.79,0,9.91a22.73,22.73,0,0,0,2.5,8.51c1.24,2.55,2.62,4.86,3.77,7.1.58,1.12,1.11,2.21,1.55,3.3a16.35,16.35,0,0,1,.89,3.28,20.87,20.87,0,0,1,0,5.9,14.89,14.89,0,0,1-3,7.5,7.54,7.54,0,0,1-.84.9,4.51,4.51,0,0,1-.69.58c-.38.28-.59.41-.59.41a13.22,13.22,0,0,0,2-2,14.91,14.91,0,0,0,2.85-7.46,20.38,20.38,0,0,0-.1-5.81,16.32,16.32,0,0,0-.89-3.2c-.44-1.07-1-2.15-1.56-3.26-1.16-2.22-2.56-4.51-3.82-7.08a23.18,23.18,0,0,1-2.59-8.66c-.25-3.19.25-6.51,0-9.91a14.6,14.6,0,0,0-1.22-5,30.08,30.08,0,0,0-2.71-4.69c-1-1.53-2.15-3.08-3.1-4.77a13.86,13.86,0,0,1-1.94-5.59c-.48-4.13,1.94-8,1.34-12a14.11,14.11,0,0,0-2.45-5.65c-1.17-1.77-2.54-3.46-3.69-5.35-2.33-3.82-3.44-8.27-4.28-12.74s-1.45-9.08-3.12-13.44A24.69,24.69,0,0,0,6.9,37.7a15.39,15.39,0,0,0-5.31-4.53l.48-.26,0,.42c-.27,2.41-.72,4.78-1,7.14a41.59,41.59,0,0,0-.31,7A31.62,31.62,0,0,0,1,51a19.73,19.73,0,0,0,1.14,3.23,59,59,0,0,1,2.45,6.48A32.88,32.88,0,0,1,5.72,67.4c.23,2.23.46,4.43.69,6.62.47,4.34.77,8.69,2.52,12.46.86,1.87,2,3.61,2.86,5.5a15.9,15.9,0,0,1,1.35,6c.2,4-.34,7.89.72,11.43s3.29,6.47,4.41,9.81.68,6.87.17,10-1,6.13-.39,8.88,2.54,4.8,3.77,7a9.58,9.58,0,0,1,1.26,3.47,31,31,0,0,1,.2,3.38,10.63,10.63,0,0,0,.42,3,5.58,5.58,0,0,0,1.59,2.18,14.17,14.17,0,0,0,4,2.31,17.44,17.44,0,0,0,3.31.92,12.46,12.46,0,0,0,2.1.21Z" fill="#263238"/><path d="M3.49,38.54a1.93,1.93,0,0,1,.1.32c.06.24.13.55.22.93.2.81.44,2,.82,3.58S6,46.64,6.74,48.78s1.66,4.59,2.42,7.35,1.45,5.83,2.16,9.11a38.27,38.27,0,0,0,3.26,10.11c.83,1.69,1.78,3.39,2.52,5.26a24,24,0,0,1,1.46,5.94,118,118,0,0,0,2.16,12.51c2,8.49,4,16.57,5.71,23.92s3.42,13.94,4.78,19.51,2.41,10,3.18,13.17c.35,1.52.62,2.71.83,3.59.08.38.14.68.19.93a1,1,0,0,1,.05.33,1.19,1.19,0,0,1-.11-.31c-.07-.25-.16-.55-.26-.92-.24-.87-.55-2.05-1-3.56l-3.37-13.11c-1.41-5.56-3.08-12.16-4.93-19.48L20.07,99.21a120.35,120.35,0,0,1-2.16-12.57,23.43,23.43,0,0,0-1.4-5.8C15.79,79,14.87,77.33,14,75.63a38.43,38.43,0,0,1-3.24-10.27C10.1,62.06,9.44,59,8.7,56.25S7.18,51,6.39,48.91s-1.64-3.89-2-5.47-.54-2.8-.7-3.63c-.06-.38-.12-.69-.16-.94A1.34,1.34,0,0,1,3.49,38.54Z" fill="#263238"/><path d="M33.64,160.53C26.91,156.48,25,144.28,27.9,137s7.82-14,8.63-21.8c.62-6-1.32-12.19.12-18,1.93-7.92,9.7-14,9.66-22.17,0-4.57-2.6-8.88-2.37-13.45.29-5.6,4.61-10,7.31-14.94C55.36,39,55.68,30.1,57.13,21.64S61.85,4.12,69.38,0c1.07,7.2,2.93,12.13,2.28,21.87-.23,3.5-4.34,10.17-4.93,17.84-.36,4.58-.61,9.17-.92,13.75s-.61,9-2.24,13.17c-1.24,3.2-3.23,6.09-4.15,9.39-1.75,6.2.46,13-1,19.24-1.2,5.32-4.92,9.89-5.7,15.3-1.11,7.59,3.77,15.52,1.21,22.75-1.27,3.59-4.25,6.46-5.11,10.17-.67,2.88,0,5.94-.58,8.83-1,4.66-9.89,8.23-14.64,7.92" fill="#e8505b"/><path d="M67.48,7.13a1.72,1.72,0,0,1,0,.4l-.15,1.18c-.17,1-.35,2.57-.71,4.54s-1.42,4.2-2.25,6.89-1.76,5.77-2.53,9.23-1.46,7.29-2.16,11.42-1.46,8.61-3.53,12.89c-1,2.16-2,4.31-2.85,6.61a29.94,29.94,0,0,0-1.47,7.29,146,146,0,0,1-2.06,15.71c-2.13,10.65-4.16,20.78-6,30l-5.16,24.44c-1.49,6.92-2.69,12.54-3.54,16.47-.42,1.9-.76,3.4-1,4.47-.12.48-.21.86-.28,1.16a1.86,1.86,0,0,1-.11.39s0-.14,0-.41.12-.68.21-1.17c.2-1.07.5-2.58.87-4.5.79-3.94,1.93-9.57,3.33-16.5s3.14-15.27,5-24.47,3.83-19.36,5.94-30a150.25,150.25,0,0,0,2.08-15.67,30.08,30.08,0,0,1,1.51-7.43c.84-2.35,1.93-4.51,2.89-6.65,2.06-4.22,2.8-8.63,3.55-12.74s1.42-8,2.24-11.42S63.06,22.7,64,20s1.94-4.9,2.36-6.83.62-3.47.82-4.5c.1-.48.17-.87.23-1.17S67.46,7.13,67.48,7.13Z" fill="#263238"/></g></g></svg>