<svg xmlns="http://www.w3.org/2000/svg" viewBox="0 0 78 65.31"><g id="Layer_2" data-name="Layer 2"><g id="Rocket"><path d="M50,4.79s11.75-8.38,28-3c0,0,1.34,13.46-11.7,24.16" fill="#e8505b"/><path d="M12.94,29.65c.5.75,13.24,21.24,13.24,21.24L64.46,27.31A13.39,13.39,0,0,0,68.19,7.93h0A13.39,13.39,0,0,0,50,4.79Z" fill="#e8505b"/><path d="M26.18,50.89l-.86,14.42S50.13,53.3,43.94,40Z" fill="#263238"/><path d="M30.66,17.75S13.85,10.33,0,21.21l12.94,8.44Z" fill="#263238"/><path d="M30.55,29.66l-23.94,15S7.43,47.21,8.08,47,26.6,36.19,32.43,32.74a1.78,1.78,0,0,0,.47-2.69h0A1.79,1.79,0,0,0,30.55,29.66Z" fill="#263238"/><circle cx="52.59" cy="18.31" r="7.66" transform="translate(22.72 65.31) rotate(-76.76)" fill="#fafafa"/><path d="M60.26,18.31c-.06,0,0-.68-.34-1.84a7.64,7.64,0,0,0-2.8-4.1A7.42,7.42,0,0,0,54,11a7.57,7.57,0,0,0-3.91.34,7.32,7.32,0,0,0-3.43,2.59,7.45,7.45,0,0,0,3.43,11.36,7.57,7.57,0,0,0,3.91.34,7.42,7.42,0,0,0,3.15-1.37,7.67,7.67,0,0,0,2.8-4.1c.31-1.16.28-1.85.34-1.85a2.73,2.73,0,0,1,0,.5,5.64,5.64,0,0,1-.17,1.4,7.63,7.63,0,0,1-2.77,4.34,7.74,7.74,0,0,1-3.29,1.5A7.85,7.85,0,0,1,46.21,23a7.86,7.86,0,0,1,0-9.36,7.74,7.74,0,0,1,3.68-2.74,7.76,7.76,0,0,1,7.44,1.19,7.57,7.57,0,0,1,2.77,4.34,5.64,5.64,0,0,1,.17,1.4A2.56,2.56,0,0,1,60.26,18.31Z" fill="#263238"/><path d="M69.59,23.42c-.1,0-.22-1.49-.81-3.82a28.58,28.58,0,0,0-1.33-4,31.81,31.81,0,0,0-2.39-4.55A32,32,0,0,0,61.89,7,28.62,28.62,0,0,0,58.8,4.14c-1.88-1.49-3.2-2.21-3.15-2.3a4.11,4.11,0,0,1,1,.45,11.58,11.58,0,0,1,1.06.63c.4.27.88.55,1.36.93a26.19,26.19,0,0,1,3.21,2.82,29.82,29.82,0,0,1,3.26,4.1,30,30,0,0,1,2.4,4.66,25.78,25.78,0,0,1,1.24,4.09c.15.59.21,1.14.29,1.62a11.31,11.31,0,0,1,.14,1.23A5,5,0,0,1,69.59,23.42Z" fill="#263238"/><path d="M67.52,24.52c-.1,0-.22-1.51-.82-3.88a29.54,29.54,0,0,0-1.35-4.06,32.9,32.9,0,0,0-2.42-4.64A33.38,33.38,0,0,0,59.72,7.8a29,29,0,0,0-3.13-2.93c-1.9-1.53-3.24-2.27-3.18-2.36a4.89,4.89,0,0,1,1,.47,10.26,10.26,0,0,1,1.08.65c.41.27.89.57,1.37,1a26.66,26.66,0,0,1,3.25,2.89,30.57,30.57,0,0,1,3.3,4.19A30.47,30.47,0,0,1,65.8,16.4a25.62,25.62,0,0,1,1.26,4.16,16.18,16.18,0,0,1,.3,1.64,11.89,11.89,0,0,1,.14,1.25A3.81,3.81,0,0,1,67.52,24.52Z" fill="#263238"/></g></g></svg>