<svg xmlns="http://www.w3.org/2000/svg" viewBox="0 0 182.31 170.69"><g id="Layer_2" data-name="Layer 2"><g id="Space"><g id="Earth"><g id="Star"><circle cx="63.91" cy="22.81" r="7.19" fill="#fff"/><path d="M14.38,98.88A7.18,7.18,0,0,1,7.19,91.7,7.18,7.18,0,0,1,0,98.88a7.19,7.19,0,0,1,7.19,7.19A7.19,7.19,0,0,1,14.38,98.88Z" fill="#fff"/><circle cx="86.72" cy="11.41" r="11.41" fill="#fff"/><path d="M182.31,62.08a9.69,9.69,0,0,1-9.69-9.69,9.69,9.69,0,0,1-9.69,9.69,9.68,9.68,0,0,1,9.69,9.68A9.68,9.68,0,0,1,182.31,62.08Z" fill="#fff"/></g><g id="Earth-2" data-name="Earth"><circle cx="98.61" cy="102.48" r="68.21" fill="#46bbeb"/><path d="M165,86.61l-1.11-.42h-5.36l-4-3.19-8.29,6.13L139.35,83l-11.73,2.17-7.53.89-1.28,14.17,3.06,13.52h12.51l7-1,3,5.48,3.19,6.38-5.62,4.72L146.63,140l-.77,4.21,4.16,3.07A68.31,68.31,0,0,0,165,86.61Z" fill="#4fffa8"/><path d="M39.42,96.1l4.42,1L48.26,100l6,1.87,3.07.77,2.89,1.28L58.64,107l-4.77,7.65,5.28,6.3,7.48,4.76V130l4.94,7.49s-.52,4.76,0,6.29,3.4,9.53,3.4,9.53L77.86,157l7,.85-4.42-7.14s6.47-9.87,7-10.21-2-4.25-1.53-4.76,4.6-4.94,4.6-4.94l4.42-5.61,1.87-7.32L91.13,109s-6.3-4.42-6.3-4.93-4.08-4.94-4.08-4.94l-11.4-.34-6.46-2L60.51,101l-5.44-2.72.17-4.49H51L48.6,90.15l3.57-2.72,7.32,3.74,4.59-2.89L69,76.71l4.43-5.61h8l1.19-2.73,5.28-2.55,2.21,1.47,2.38-3.51L87.9,57.32l-3.58-1.19L83,57.36l-4.3,4L68.67,59l-1.36,4.76-4.42-5.61,5.78-2,6.47,1.7,2.55-2.55,8.16-1.2-6.63-7H71.57L68.5,52l-3.06-3.91L58,47.64a68.14,68.14,0,0,0-27,45.24l5.44.94Z" fill="#4fffa8"/><path d="M139.69,60.21v3.06l-9,2.55.85,6.47-5.11-3.13-4.93,4,3.23,4.76,4.94.68L138,72,140.37,75s-1.53,3.57,0,4.76,8,3.06,8,3.06V77.05L144,73.14l2.89-2.38,5.27,4.42-1.7,3.06,9.87,4.59s1.08-1.25,2.65-3.1a68.36,68.36,0,0,0-26.5-34l-2.86,10.76Z" fill="#4fffa8"/><path d="M132.22,43.11A68.22,68.22,0,0,1,45,144.66,68.22,68.22,0,1,0,132.22,43.11Z" opacity="0.1"/><path d="M46,131.85l-1-1-2.86.58v2.81l-3,1.7a67.39,67.39,0,0,0,4.47,6.91l2.17-.4,4.25-3,.24-2.77-4.24-2Z" fill="#4fffa8"/></g></g></g></g></svg>