<svg xmlns="http://www.w3.org/2000/svg" viewBox="0 0 140.22 140.22"><g id="Layer_2" data-name="Layer 2"><g id="Space"><g id="Mars"><path d="M138,87.73A70.1,70.1,0,1,1,87.73,2.27,70.1,70.1,0,0,1,138,87.73Z" fill="#ff4f54"/><path d="M1.39,84c19.93.67,74-1.23,135.68-34.6A70.39,70.39,0,0,0,126.14,28C106.12,41.77,60.33,67.33.3,63.75A69.59,69.59,0,0,0,1.39,84Z" fill="#ea4753"/><path d="M138,87.73a70.1,70.1,0,0,0,2.16-21.41C124.3,78.19,75.79,109.62,10,106.11a70.38,70.38,0,0,0,11,14c20.79.14,64.55-3,115.28-26.79C136.89,91.5,137.46,89.63,138,87.73Z" fill="#ea4753"/><path d="M65.18,140a70.05,70.05,0,0,0,45.73-12.93A203.64,203.64,0,0,1,65.18,140Z" fill="#ea4753"/><path d="M113.25,14.84A70.15,70.15,0,0,0,6.05,41.65C29,40.86,68.43,35.9,113.25,14.84Z" fill="#ea4753"/><path d="M112.6,51a13.31,13.31,0,1,1-9.53-16.22A13.3,13.3,0,0,1,112.6,51Z" fill="#d83a4e"/><g opacity="0.1"><path d="M105.39,38.94a13.19,13.19,0,0,1,6.93,4.43A13.31,13.31,0,1,0,89.44,56.1a13.31,13.31,0,0,1,16-17.16Z"/></g><path d="M68.8,80.82a9.08,9.08,0,1,1-6.5-11.06A9.07,9.07,0,0,1,68.8,80.82Z" fill="#d83a4e"/><g opacity="0.1"><path d="M63.88,72.6a9.06,9.06,0,0,1,4.73,3A9.07,9.07,0,1,0,53,84.3,9.07,9.07,0,0,1,63.88,72.6Z"/></g><path d="M100,19.19A5.9,5.9,0,1,1,95.73,12,5.89,5.89,0,0,1,100,19.19Z" fill="#d83a4e"/><g opacity="0.1"><path d="M96.76,13.85a5.79,5.79,0,0,1,3.07,2,5.9,5.9,0,1,0-10.14,5.64,5.9,5.9,0,0,1,7.07-7.6Z"/></g><path d="M35.44,72.16a9.08,9.08,0,1,1-6.51-11.07A9.08,9.08,0,0,1,35.44,72.16Z" fill="#d83a4e"/><g opacity="0.1"><path d="M30.52,63.93a9,9,0,0,1,4.72,3,9.07,9.07,0,1,0-15.59,8.69A9.07,9.07,0,0,1,30.52,63.93Z"/></g><path d="M67,123.92a9.07,9.07,0,1,1-6.5-11.06A9.07,9.07,0,0,1,67,123.92Z" fill="#d83a4e"/><g opacity="0.1"><path d="M62.06,115.7a9,9,0,0,1,4.73,3,9.07,9.07,0,1,0-15.6,8.68,9.07,9.07,0,0,1,10.87-11.7Z"/></g><path d="M100.56,118.23a9.07,9.07,0,1,1-6.5-11.07A9.07,9.07,0,0,1,100.56,118.23Z" fill="#d83a4e"/><g opacity="0.1"><path d="M95.64,110a9,9,0,0,1,4.73,3,9.07,9.07,0,1,0-15.6,8.68A9.07,9.07,0,0,1,95.64,110Z"/></g><path d="M123.34,84.94a5.19,5.19,0,1,1-3.72-6.33A5.19,5.19,0,0,1,123.34,84.94Z" fill="#d83a4e"/><g opacity="0.1"><path d="M120.52,80.23A5.17,5.17,0,0,1,123.23,82a5.19,5.19,0,1,0-8.93,5,5.19,5.19,0,0,1,6.22-6.7Z"/></g><path d="M58.48,24.74a5.19,5.19,0,1,1-3.72-6.33A5.19,5.19,0,0,1,58.48,24.74Z" fill="#d83a4e"/><g opacity="0.1"><path d="M55.67,20a5.18,5.18,0,0,1,2.7,1.73,5.19,5.19,0,1,0-8.93,5,5.28,5.28,0,0,1-.11-3A5.21,5.21,0,0,1,55.67,20Z"/></g><path d="M25,31.3A2.73,2.73,0,1,1,23,28,2.73,2.73,0,0,1,25,31.3Z" fill="#d83a4e"/><g opacity="0.1"><path d="M23.47,28.83a2.7,2.7,0,0,1,1.42.91,2.72,2.72,0,1,0-4.68,2.61,2.7,2.7,0,0,1-.06-1.57A2.73,2.73,0,0,1,23.47,28.83Z"/></g><path d="M136.21,68.6a2.73,2.73,0,1,1-2-3.33A2.72,2.72,0,0,1,136.21,68.6Z" fill="#d83a4e"/><g opacity="0.1"><path d="M134.74,66.13a2.73,2.73,0,0,1,1.42.9,2.73,2.73,0,1,0-4.69,2.61,2.66,2.66,0,0,1-.06-1.56A2.73,2.73,0,0,1,134.74,66.13Z"/></g><path d="M20.76,92.58a2.73,2.73,0,1,1-2-3.32A2.74,2.74,0,0,1,20.76,92.58Z" fill="#d83a4e"/><g opacity="0.1"><path d="M19.28,90.11A2.7,2.7,0,0,1,20.7,91,2.73,2.73,0,1,0,16,93.63,2.7,2.7,0,0,1,16,92.06,2.73,2.73,0,0,1,19.28,90.11Z"/></g><path d="M40.57,117.33a2.73,2.73,0,1,1-2-3.33A2.73,2.73,0,0,1,40.57,117.33Z" fill="#d83a4e"/><g opacity="0.1"><path d="M39.09,114.86a2.69,2.69,0,0,1,1.42.9,2.73,2.73,0,1,0-4.69,2.61,2.72,2.72,0,0,1,3.27-3.51Z"/></g><path d="M114.81,16.11a70.08,70.08,0,0,1-83.37,92.11A69.76,69.76,0,0,1,4.35,94.39,70.1,70.1,0,1,0,114.81,16.11Z" opacity="0.1"/></g></g></g></svg>