<svg xmlns="http://www.w3.org/2000/svg" viewBox="0 0 1279.87 874.45"><g style="isolation:isolate"><g id="Layer_2" data-name="Layer 2"><g id="Layer_1-2" data-name="Layer 1"><path d="M132.39,109.76C-20.49,220.64,101.31,308.5,117.48,342.34S74.12,470.43,31,528.7s-52.19,136.52,44.82,176,39.52,84.59,170.66,90.23,115-48.87,228.14-26.32,454.48,114.66,589.21,47,256.88-244.36,203-372.18-112.3-107-62-244.2S1098.07-22.79,977.72,5.4s-231.43,65-439.81,46.22S268.06,11.36,132.39,109.76Z" fill="#c9c9ff" opacity="0.51"/><path d="M792.58,713.61s-100.06-86.27-37.53-155.55,66.14-105.19,48.42-172.56,45.68-9.6,64.54-11.59,32.42-34.71,15-70.15,33-43,48.94-54.18,20.1-45.76,46-67.41,48.88-75.8,53.29-68.76,17,81.28-2.41,109.14-17.37,31,7.37,78.77,8.44,77.53-27,108.64-8.23,36.17-.26,61.8-2.78,38-67.67,40.9-95.38,56.07-57.7,61.72,39.34,25.24-7.55,67.14C791.86,716.7,792.58,713.61,792.58,713.61Z" fill="#c4c4ff"/><path d="M784.31,682.25c0,.23-.34.24-.37,0C772.8,605.32,784,570.7,863,509.33c80.41-62.46,104.11-133.91,101.14-180.79S958,251.74,983.4,213.81c14.74-22,26.87-38.08,33.31-46.37a.38.38,0,0,1,.61.45c-9.39,14.68-30.88,49.4-35.17,66.26-10.72,42.18,4.28,146.71-30.28,188.29s-75.57,80.34-125.24,129.8C783.52,595.19,783.55,664.67,784.31,682.25Z" fill="#b1b1fa"/><path d="M486.32,723.21s1.3-3.73-22.07-61.76c-25.81-64.07-33.92-100-82.84-94.39s-43.26,4.32-74.46-6.57-55.72,7.38-73.95.14-48-52.06-82.74-65.85-38.93,25.68-74,7.12c-34-18-42.51-19.63-45.1-16.41-11.95,14.88,85.7,60.53,95,89.2.11.34.24.68.34,1,16.36,54.11,40.1,29.64,65,47.91,25.18,18.5,30.75,31.21,67,22.61s61.64-26.52,77.26,5.18,28.61,52.35,58,42.51,33.83-4.29,52.61,10.39C482.64,732.75,486.32,723.21,486.32,723.21Z" fill="#c4c4ff"/><path d="M457.15,688.13c-43.23-61-49.49-77-82.51-84.51s-66.22,17.58-106.36-4.36-67.23-56.69-109.71-71.68-60.48-9-60.48-9,39.68,1.88,63.55,17.35,95.07,76,137.28,76.63,66.91-16.18,93.19,7.38S462.32,695.43,457.15,688.13Z" fill="#b1b1fa"/><path d="M422.91,706.69s-107.82,17.62-118.54-58.8-31.57-97.78-83.7-122.32,18.17-34.06,26.92-47.07-4.79-39-36.51-46.75-9.7-43.74-8.37-59.8-18.34-37-18.32-64.94-22.1-71.23-15.3-70.29S229.66,269.07,237,296.2s10.46,27.49,53.85,37.14,53.63,35.82,54.54,74.8,18.56,24.42,39,33,22.61,21.93-10,64.62-15.09,90.24,8.5,69.35,36.89-11.54,38.56,40.44C424.49,708.78,422.91,706.69,422.91,706.69Z" fill="#c4c4ff"/><path d="M398.64,695.28c.15.11,0,.33-.19.23-54.69-33.78-70.69-59.27-67.65-141.94,3.1-84.15-29.62-137.11-60.92-160.12s-52-36.83-62.52-73.11c-6.1-21-9.88-37.26-11.71-45.75a.31.31,0,0,1,.61-.14c4.32,13.75,14.92,45.81,23.33,57.47,21,29.2,95.29,75.19,103.3,119.18s10.81,90.56,15.8,148.32C343,649.55,387.09,686.42,398.64,695.28Z" fill="#b1b1fa"/><path d="M378.09,299.58c-9.6,2.89-234.82,3.62-239.18-.72s-22.7-28.19-5.24-37.59,28.81,2.89,28.81,2.89-20.95-39.75,17.46-57.83,52.37,28.2,52.37,28.2,24.44-28.2,55-15.91S317,256.93,317,256.93s3.5-10.84,15.72-9.39,16.58,7.23,19.2,14.45-13.09,18.08-13.09,18.08a108.8,108.8,0,0,1,31.42-2.17C386.82,279.34,378.09,299.58,378.09,299.58Z" fill="#fff" opacity="0.5"/><path d="M778.54,149.55V721A42.65,42.65,0,0,1,736,763.53H437.6a22.13,22.13,0,0,1-12.88-4.11,22.38,22.38,0,0,1-9.53-18.29V149.55A42.66,42.66,0,0,1,457.72,107H736A42.65,42.65,0,0,1,778.54,149.55Z" fill="#015da6"/><path d="M437.6,744.86a3.52,3.52,0,0,1-2.09-.67,3.79,3.79,0,0,1-1.65-3.06V149.55a23.9,23.9,0,0,1,23.86-23.86H736a23.89,23.89,0,0,1,23.85,23.86V721A23.88,23.88,0,0,1,736,744.86Z" fill="#c2e6ff"/><rect x="516.62" y="647.49" width="160.5" height="65.55" rx="3.97" fill="#ce462c"/><path d="M554.51,665.53a2.57,2.57,0,0,1,.53-1.63,2.07,2.07,0,0,1,1.72-.67h7.42a10.41,10.41,0,0,1,4,.72,8.75,8.75,0,0,1,2.87,1.89,8.26,8.26,0,0,1,1.74,2.63,7.61,7.61,0,0,1,.6,2.9,8.59,8.59,0,0,1-1.31,4.81,6.34,6.34,0,0,1-3.42,2.65v.1a7.41,7.41,0,0,1,2.87.86,8.67,8.67,0,0,1,2.34,1.82,8,8,0,0,1,1.58,2.58,8.73,8.73,0,0,1,.57,3.16,9.71,9.71,0,0,1-.74,3.8,9.2,9.2,0,0,1-2.15,3.16,10.41,10.41,0,0,1-3.49,2.18,13.09,13.09,0,0,1-4.76.81h-8.09a2,2,0,0,1-1.72-.67,2.57,2.57,0,0,1-.53-1.63Zm4.21,12.11h4.79a5.42,5.42,0,0,0,4.18-1.58,5.53,5.53,0,0,0,1.46-3.93,5.4,5.4,0,0,0-1.34-3.77,5.33,5.33,0,0,0-4.16-1.49h-4.93Zm0,16h5.93a7.57,7.57,0,0,0,5.12-1.72,5.75,5.75,0,0,0,2-4.59,6.61,6.61,0,0,0-.45-2.44,5.54,5.54,0,0,0-1.37-2,6.46,6.46,0,0,0-2.17-1.34,8.31,8.31,0,0,0-2.94-.48h-6.13Z" fill="#fff"/><path d="M564.85,698.63h-8.09a3.31,3.31,0,0,1-2.77-1.18,3.84,3.84,0,0,1-.81-2.45V665.53a3.86,3.86,0,0,1,.81-2.45,3.33,3.33,0,0,1,2.77-1.18h7.42a11.73,11.73,0,0,1,4.48.82,10.07,10.07,0,0,1,3.31,2.19,9.48,9.48,0,0,1,2,3.06,8.81,8.81,0,0,1,.7,3.4,9.84,9.84,0,0,1-1.54,5.54,8.38,8.38,0,0,1-1.32,1.56l.29.15a10,10,0,0,1,2.7,2.09,9.43,9.43,0,0,1,1.84,3,10,10,0,0,1,.66,3.64,11.18,11.18,0,0,1-.84,4.31,10.69,10.69,0,0,1-2.46,3.6,11.86,11.86,0,0,1-3.93,2.47A14.57,14.57,0,0,1,564.85,698.63Zm-8.09-34.07a.94.94,0,0,0-.68.17,1.22,1.22,0,0,0-.24.8V695a1.26,1.26,0,0,0,.24.81,1,1,0,0,0,.68.16h8.09a11.68,11.68,0,0,0,4.27-.72,9.19,9.19,0,0,0,3.06-1.9,8,8,0,0,0,1.84-2.71,8.46,8.46,0,0,0,.64-3.29,7.41,7.41,0,0,0-.48-2.68,7,7,0,0,0-1.32-2.17,7.48,7.48,0,0,0-2-1.54,6.33,6.33,0,0,0-2.37-.71l-.59-.06.35.13a7.85,7.85,0,0,1,2.62,1.61,6.9,6.9,0,0,1,1.68,2.49,7.79,7.79,0,0,1,.55,2.93,7,7,0,0,1-2.47,5.6,8.9,8.9,0,0,1-6,2h-7.26V679.75h7.46a10.51,10.51,0,0,1,2.45.27v-2a7.44,7.44,0,0,1-3.79.91h-6.12V665.54h6.26a6.65,6.65,0,0,1,5.15,1.92,6.77,6.77,0,0,1,1.68,4.67,6.88,6.88,0,0,1-1.81,4.83,5.8,5.8,0,0,1-.92.8l.47-.2a4.94,4.94,0,0,0,2.72-2.12,7.29,7.29,0,0,0,1.09-4.07,6.14,6.14,0,0,0-.5-2.39,6.91,6.91,0,0,0-1.46-2.21,7.27,7.27,0,0,0-2.43-1.59,9,9,0,0,0-3.46-.62Zm3.29,27.77h4.6a6.27,6.27,0,0,0,4.26-1.4,4.43,4.43,0,0,0,1.54-3.58,5,5,0,0,0-.36-2,4.2,4.2,0,0,0-1-1.54,5.2,5.2,0,0,0-1.73-1.06,7,7,0,0,0-2.47-.39h-4.8Zm0-16h3.46a4.16,4.16,0,0,0,3.21-1.15,4.28,4.28,0,0,0,1.1-3,3.6,3.6,0,0,0-4.17-3.93h-3.6Z" fill="#fff"/><path d="M583.19,665.45a2.23,2.23,0,0,1,.57-1.63,2.28,2.28,0,0,1,3.06,0,2.23,2.23,0,0,1,.58,1.62v19.87a7.79,7.79,0,0,0,2.48,6.15,10.73,10.73,0,0,0,13,0,7.8,7.8,0,0,0,2.49-6.15V665.44a2.22,2.22,0,0,1,.57-1.62,2.28,2.28,0,0,1,3.06,0,2.24,2.24,0,0,1,.58,1.63v18.3a16.19,16.19,0,0,1-1.25,6.87,11,11,0,0,1-3.18,4.12,11.16,11.16,0,0,1-4.26,2,19.19,19.19,0,0,1-9,0,11.16,11.16,0,0,1-4.26-2,11,11,0,0,1-3.18-4.12,16.2,16.2,0,0,1-1.24-6.87Z" fill="#fff"/><path d="M596.39,698.63a21.29,21.29,0,0,1-4.82-.58,12.41,12.41,0,0,1-4.77-2.26,12.25,12.25,0,0,1-3.57-4.61,17.48,17.48,0,0,1-1.37-7.43V665.44a3.49,3.49,0,0,1,.95-2.54,3.65,3.65,0,0,1,5,0,3.53,3.53,0,0,1,1,2.55V685.3a6.46,6.46,0,0,0,2,5.16,9.38,9.38,0,0,0,11.24,0,6.46,6.46,0,0,0,2-5.16V665.44a3.53,3.53,0,0,1,1-2.55,3.66,3.66,0,0,1,5,0,3.53,3.53,0,0,1,.95,2.55v18.31a17.51,17.51,0,0,1-1.37,7.43,12.19,12.19,0,0,1-3.57,4.61,12.41,12.41,0,0,1-4.77,2.26A21.29,21.29,0,0,1,596.39,698.63Zm-11.1-34.07c-.4,0-.53.13-.58.19s-.2.2-.2.69v18.31a15,15,0,0,0,1.12,6.3,9.33,9.33,0,0,0,6.54,5.41,17.84,17.84,0,0,0,8.44,0,9.33,9.33,0,0,0,6.54-5.41,15,15,0,0,0,1.12-6.3V665.44c0-.49-.15-.64-.2-.69s-.18-.19-.58-.19-.53.13-.58.19-.2.2-.2.69V685.3a9.09,9.09,0,0,1-2.93,7.15,12,12,0,0,1-14.78,0,9.09,9.09,0,0,1-2.93-7.15V665.44c0-.49-.15-.64-.2-.69S585.69,664.56,585.29,664.56Z" fill="#fff"/><path d="M625.21,681.3l-9.14-14.63a3.39,3.39,0,0,1-.67-1.74,1.52,1.52,0,0,1,.55-1.25,2.08,2.08,0,0,1,1.36-.45,2.47,2.47,0,0,1,1.1.26,2.73,2.73,0,0,1,1,1.06l7.89,12.66,7.9-12.66a2.71,2.71,0,0,1,1-1.06,2.5,2.5,0,0,1,1.1-.26,2.11,2.11,0,0,1,1.37.45,1.55,1.55,0,0,1,.55,1.25,3.49,3.49,0,0,1-.67,1.74l-9.14,14.63v13.79a2.22,2.22,0,0,1-.57,1.62,2.29,2.29,0,0,1-3.07,0,2.22,2.22,0,0,1-.57-1.62Z" fill="#fff"/><path d="M627.31,698.63a3.36,3.36,0,0,1-2.48-1,3.5,3.5,0,0,1-1-2.55V681.68l-8.94-14.31a4.59,4.59,0,0,1-.87-2.44,2.83,2.83,0,0,1,1-2.28,3.66,3.66,0,0,1,3.89-.35,3.91,3.91,0,0,1,1.56,1.57l6.75,10.83,6.77-10.85a3.82,3.82,0,0,1,1.54-1.55,3.66,3.66,0,0,1,3.89.35,2.82,2.82,0,0,1,1,2.28,4.58,4.58,0,0,1-.89,2.46l-8.92,14.29v13.41a3.5,3.5,0,0,1-1,2.55A3.37,3.37,0,0,1,627.31,698.63Zm-10-34.07a.79.79,0,0,0-.52.15c-.06.25,0,.55.4,1.24l9.35,15v14.17a1,1,0,0,0,.19.69.7.7,0,0,0,.58.19c.4,0,.53-.13.58-.19a1,1,0,0,0,.2-.69V680.92L637.43,666a2.45,2.45,0,0,0,.47-1c-.22-.44-.64-.47-1.1-.24,0,0-.18.09-.45.54l-9,14.49-9-14.46a1.7,1.7,0,0,0-.47-.58A1.13,1.13,0,0,0,617.31,664.56Z" fill="#fff"/><rect x="456.19" y="248.72" width="130.79" height="174.83" rx="5.85" fill="#fff"/><rect x="606.76" y="248.72" width="130.79" height="174.83" rx="5.85" fill="#fff"/><rect x="456.19" y="447.01" width="130.79" height="174.83" rx="5.85" fill="#fff"/><rect x="606.76" y="447.01" width="130.79" height="174.83" rx="5.85" fill="#fff"/><path d="M521.3,308.12c10.89,0,13.6-10.74,14.11-13.45a.67.67,0,0,1,.74-.54,101.4,101.4,0,0,1,21.19,5.05c7.94,2.89,11,4.18,12.14,4.69a.69.69,0,0,1,.35.89l-9.16,21.08a.69.69,0,0,1-.86.37l-12.25-4.56a.67.67,0,0,0-.91.63v55.18a.68.68,0,0,1-.68.68h-24.2a.67.67,0,0,1-.68-.68l.21-69.34" fill="#96d2fa"/><path d="M521.85,308.12c-10.88,0-13.59-10.74-14.1-13.45a.67.67,0,0,0-.74-.54,101.26,101.26,0,0,0-21.19,5.05c-7.94,2.89-11,4.18-12.15,4.69a.69.69,0,0,0-.34.89l9.16,21.08a.68.68,0,0,0,.85.37l12.26-4.56a.67.67,0,0,1,.91.63v55.18a.68.68,0,0,0,.68.68h24.2a.67.67,0,0,0,.68-.68l-.22-69.34" fill="#96d2fa"/><path d="M672.38,300.81c-9.63,0-13-9.72-13.94-13.42a1.06,1.06,0,0,0-1.58-.64L628.27,304a1.07,1.07,0,0,0-.42,1.37l6.31,13.52a1.05,1.05,0,0,0,1.13.6l14.16-2.27a1.07,1.07,0,0,1,1,.39c1.94,2.42,10.41,13.28,9.89,17.58S638.8,376,634.1,384.08a1.06,1.06,0,0,0,.92,1.59h40.44Z" fill="#96d2fa"/><path d="M671.94,300.81c9.63,0,13-9.72,13.93-13.42a1.06,1.06,0,0,1,1.58-.64L716.05,304a1.08,1.08,0,0,1,.41,1.37l-6.3,13.52a1.06,1.06,0,0,1-1.13.6l-14.17-2.27a1.06,1.06,0,0,0-1,.39c-1.94,2.42-10.41,13.28-9.89,17.58s21.54,40.8,26.24,48.91a1.06,1.06,0,0,1-.93,1.59H668.85Z" fill="#96d2fa"/><path d="M519.79,489.13h25.65a2.43,2.43,0,0,1,2.23,1.47c1.74,4.15,6.35,17,6.72,37.28.38,20.86-2,42.89-2.81,49.7a2.43,2.43,0,0,1-2.4,2.13H536.82a2.41,2.41,0,0,1-2.36-1.92l-13.13-62.52Z" fill="#96d2fa"/><path d="M523.37,489.13H497.71a2.41,2.41,0,0,0-2.22,1.47c-1.74,4.15-6.35,17-6.72,37.28-.39,20.86,2,42.89,2.81,49.7a2.42,2.42,0,0,0,2.4,2.13h12.36a2.41,2.41,0,0,0,2.36-1.92l13.13-62.52Z" fill="#96d2fa"/><path d="M681,484.45c4.92,0,5.48,6.58,12.25,8.23s17.38-.91,18.11,1.1.37,17-3.84,20.67-47.56,5.67-57.8,2-18.84-9.15-16.83-13,18.11.73,32.19-7.31S679.93,484.45,681,484.45Z" fill="#96d2fa"/><path d="M666.16,571.51s25.28-36.88,26.7-35.59,11.6,15.86,11.86,18.57c0,0-8,28.76-9.67,28.76s1.81-23.6,1.16-23.6-4.26,0-18.7,23.73c-1.22,2-37.92.51-37.92,0C639.62,579.89,666.16,571.51,666.16,571.51Z" fill="#96d2fa"/><path d="M564.79,225.61c0-15.89-62.53-15.89-62.53,0s14,28.77,31.27,28.77S564.79,241.5,564.79,225.61Z" fill="#f04730"/><path d="M502.41,225.61c0-15.89-62.75-15.89-62.75,0s14,28.77,31.38,28.77S502.41,241.5,502.41,225.61Z" fill="#f5d440"/><path d="M439.85,225.45v.16c0,15.9-13.87,28.75-31,28.75S378,241.51,378,225.61v-.16l3.51-5.71C394.49,210.09,439.48,212,439.85,225.45Z" fill="#f04730"/><path d="M488.58,125.29l-47,100.16H378l3.59-5.71,49.74-79.12c5.94-9.49,17-15.33,29-15.33Z" fill="#ff634d"/><polygon points="503.39 225.44 439.73 225.44 488.59 125.29 532.98 125.29 503.39 225.44" fill="#ffe770"/><polygon points="565.86 225.44 502.21 225.44 532.51 125.29 576.9 125.29 565.86 225.44" fill="#ff634d"/><path d="M627.94,225.61c0-15.89-63.29-15.89-63.29,0s14.17,28.77,31.64,28.77S627.94,241.5,627.94,225.61Z" fill="#f5d440"/><path d="M691.54,225.61c0-15.89-63.6-15.89-63.6,0s14.23,28.77,31.8,28.77S691.54,241.5,691.54,225.61Z" fill="#f04730"/><path d="M754.11,225.61c0-15.89-62.53-15.89-62.53,0s14,28.77,31.27,28.77S754.11,241.5,754.11,225.61Z" fill="#f5d440"/><path d="M815.75,225.39v.22c0,15.9-13.8,28.75-30.86,28.75S754,241.51,754,225.61v-.16c.35-13.41,45-15.36,58.1-5.81Z" fill="#f04730"/><polygon points="628.34 225.44 564.69 225.44 576.2 125.29 620.59 125.29 628.34 225.44" fill="#ffe770"/><path d="M815.79,225.45H752.14l-47-100.16h28.28c12,0,23.09,5.84,29,15.33l49.67,79,3.62,5.75Z" fill="#ff634d"/><polygon points="690.35 225.44 754 225.44 705.15 125.29 660.76 125.29 690.35 225.44" fill="#ffe770"/><polygon points="627.87 225.44 691.52 225.44 661.23 125.29 616.83 125.29 627.87 225.44" fill="#ff634d"/><path d="M341.78,484c8.07,0,32.29,8.07,34.31,9.19s-11.44,12.33-19.51,10.32S341.78,484,341.78,484Z" fill="#e8b089"/><path d="M313,464.6a3.24,3.24,0,0,1-.2.86,17.09,17.09,0,0,1-.8,2.21,43,43,0,0,1-12.74,16.5c-10.62,8.52-29.76,6.14-45.6,9.28s-58.88,41.11-58.88,41.11-.35.48-1.48.34a9.37,9.37,0,0,1-3.62-1.54c-4.2-2.64-9.11-12.87-9.11-12.87s3.14-.44,8.82-3.28,10.61-9.11,19-16.45a55.65,55.65,0,0,1,18.76-10.29,56.06,56.06,0,0,0-11.28,2.67c-5.83,2.1-20.54,10.15-28.11,16.75-8.41,7.32-21.38,8.67-21.38,8.67a24.4,24.4,0,0,0,5.69-4.18c2.94-2.82,8.52-10.75,9.2-11.71-.23.25-1.18,1.27-3.07,3-2.24,2.1-12.71,6.44-12.71,6.44s-1.39-.31-2.17-3.34,1.43-10.87,1.43-10.87,13-5.08,31.23-14.35,47.69-17.79,45-17.49-30.35-2.38-37.22-1.94c-6.67.43-15.3,3.54-15.83,3.72.17-.16,1.61-1.2,13.07-5.67a3,3,0,0,1,.36-.14c13-5.08,27.36-4.63,54.71.3,24.45,4.41,29.33,4.52,42.46-1.6,1.56-.71,3.24-1.54,5.07-2.44,0,0,.33.18.83.49C306.72,460.14,313,463.87,313,464.6Z" fill="#721107"/><rect x="220.98" y="495.74" width="245.3" height="162.57" rx="11.61" transform="translate(-84.14 59.29) rotate(-8.79)" fill="#ffdf8f"/><rect x="214.64" y="518.73" width="245.3" height="34.59" transform="translate(-77.95 57.84) rotate(-8.79)" fill="#85674e"/><rect x="379.59" y="577.37" width="78.38" height="7.26" rx="2.07" transform="translate(-83.87 70.82) rotate(-8.79)" fill="#d1ad58"/><rect x="381.79" y="594.33" width="59.86" height="7.26" rx="1.81" transform="translate(-86.54 69.94) rotate(-8.79)" fill="#d1ad58"/><path d="M315.1,466.68c-.14,1.65-8.07-1.27-10.62-3.73a9.54,9.54,0,0,1-1-1.13c-1.81-2.31-2.44-5.09-1.47-6.63,0,0,1.72.21,5.46,2.76a47.3,47.3,0,0,1,6.92,7.17A3.13,3.13,0,0,1,315.1,466.68Z" fill="#ff634d"/><path d="M315.1,466.68c-.14,1.65-8.07-1.27-10.62-3.73a9.54,9.54,0,0,1-1-1.13c2.16.92,4.08,1,6.16,1.58a25.28,25.28,0,0,1,4.75,1.72A3.13,3.13,0,0,1,315.1,466.68Z" fill="#e6e6e6" style="mix-blend-mode:multiply"/><path d="M342.9,447.26c-.66,5.27-24.21,21-24.21,21a47.32,47.32,0,0,1-5.89-2.77,30.09,30.09,0,0,1-8.39-6.65A18.57,18.57,0,0,1,300,448.37a24.88,24.88,0,0,1,2-11.62c3.66-8.63,11.93-15.88,23.86-12.7,5.56,1.47,9.38,3.85,12,6.58C343.3,436.39,343.35,443.69,342.9,447.26Z" fill="#721107"/><path d="M332.59,485.27c-.45,1.11-18.5,2.13-18.15,1.45s3-13.9,3.19-19.12a7,7,0,0,0-.07-1.72c-.67-2.82,11.78,3.12,11.78,3.12.25,1.5,1,4.68,1.72,7.84C332,480.75,332.84,484.64,332.59,485.27Z" fill="#d4a07d"/><path d="M317.63,467.6a7,7,0,0,0-.07-1.72c-.67-2.82,11.78,3.12,11.78,3.12.25,1.5,1,4.68,1.72,7.84C328.05,475.8,320.82,471,317.63,467.6Z" fill="#e6e6e6" style="mix-blend-mode:multiply"/><path d="M341.26,438.29c2.54,7,4.93,21.22-.15,29.74s-22.42.68-26.53-5.23c-2.89-4.15-7.7-18.08-2.62-21.52s9.42-9.57,16.44-9.57S341.26,438.29,341.26,438.29Z" fill="#e8b089"/><path d="M308,457.35c4.26.22,17.41-5,20.85-10.77a53.22,53.22,0,0,0,5.08-11.73,17.88,17.88,0,0,0,4.19,6.13c3,2.69,5,4.48,5,4s-.56-6.65-2.35-8.59-6.65-6.06-11.66-6.28-10.91-.38-16.29,4.41-7.55,11.88-7.18,15.17A33.56,33.56,0,0,0,308,457.35Z" fill="#721107"/><path d="M347.31,471.21a.23.23,0,0,1-.17-.08c-.8-1-.69-3.63-.54-7.32.25-6.34.59-15-3.92-18.81-6.39-5.39-8.49-9.25-8.57-9.41a.22.22,0,0,1,.09-.3.22.22,0,0,1,.3.09s2.15,3.95,8.47,9.28c4.68,3.93,4.33,12.74,4.07,19.17-.13,3.32-.24,6.18.44,7a.21.21,0,0,1,0,.31A.24.24,0,0,1,347.31,471.21Z" fill="#721107"/><path d="M307.33,480.67a.21.21,0,0,1-.13-.05.22.22,0,0,1-.06-.31,28.18,28.18,0,0,0,2.6-6.25c1.77-5.26,4-11.81,9.24-16.73.78-.73,1.54-1.42,2.28-2.1,6.61-6.07,11.38-10.46,12.45-20.4a.2.2,0,0,1,.25-.2.22.22,0,0,1,.2.24c-1.09,10.12-5.92,14.55-12.6,20.69l-2.27,2.1c-5.18,4.84-7.37,11.33-9.13,16.54a28,28,0,0,1-2.65,6.37A.22.22,0,0,1,307.33,480.67Z" fill="#721107"/><path d="M359.94,509.28a8.89,8.89,0,0,1-.23,1.94.11.11,0,0,1,0,.07c-1.06,5.69-5.69,20-12.75,23a32.31,32.31,0,0,1-6,1.71c-9.19,1.81-21.8,1.84-23.59,1.13-2.24-.9-12.56-22.12-12.86-23.91s-3.07-24.88-3.07-24.88c8.76-6.07,38.94-7,44.18-4.13s5.53,13.45,8.67,17.35S359.8,506.59,359.94,509.28Z" fill="#ff634d"/><path d="M376.53,749.5c-6.87,31.39-13.75,58.89-13.75,59.79s-9,1.2-10.46-10.46-3.59-20.33.3-21.53S362.78,772.82,364,766s-5.08-59.8-2.39-72.65S373,660.71,371.74,658c-.78-1.79-15-18.44-24.3-30.67a84.49,84.49,0,0,1-7.35-10.75,3.79,3.79,0,0,1-.63-1.93c.36-2.41,12.05-2.73,21.88-2.57h0c7.19.11,13.38.48,13.38.48.93,2.89,1.92,5.83,2.94,8.79,4.9,14.17,10.26,28.27,10.51,34C388.5,662.2,383.4,718.11,376.53,749.5Z" fill="#e8b089"/><path d="M184.9,757c-4.78,0-11.21,5.83-14.2,13.46s-4.48,12-2.69,13.15,9.57,1,16.74-3.59,10.17-7.92,10.62-10.46S184.9,757,184.9,757Z" fill="#cc311c"/><path d="M326,631.42a74.28,74.28,0,0,1-4.52,7.37c-12.14,18-38.29,47.73-44.5,54.21-7.17,7.48-43.94,45.43-60.09,58.29S193,774.61,186.4,776.1s-12-8.66-8.38-14,33.8-18.84,36.49-22.73,19.12-34.37,40.36-55.61,31.08-27.19,33.77-34.67c1-2.83,2.39-7,3.79-11.14.52-1.49,1-3,1.52-4.39,1.83-5.08,3.55-9.31,4.56-9.89s6.62,1,12.57,2.84C318.35,628.71,326,631.42,326,631.42Z" fill="#e8b089"/><path d="M326,631.42a74.28,74.28,0,0,1-4.52,7.37c-9.68.88-22.4,1.1-29.05-.88.52-1.49,1-3,1.52-4.39,4-1.74,10.05-4.29,17.13-7C318.35,628.71,326,631.42,326,631.42Z" fill="#e6e6e6" style="mix-blend-mode:multiply"/><path d="M377.68,621.37c-4.34.33-13.11-.28-17.74.18-2.67.27-7.62,2.84-12.5,5.8a84.49,84.49,0,0,1-7.35-10.75,140.31,140.31,0,0,1,21.25-4.5h0c7.19.11,13.38.48,13.38.48C375.67,615.47,376.66,618.41,377.68,621.37Z" fill="#e6e6e6" style="mix-blend-mode:multiply"/><path d="M399,599.87c0,4.93-4,16.45-19.74,18.38s-19.42-1-29.14,3.59-14.35,15.1-35,14.06-23.91,1.94-30.49-1.5a25.67,25.67,0,0,1-3.47-2.19c-4.36-3.23-7-6.93-10.29-6.93-4,0-13.15,5.39-24.81,1.35s-12.41-11.35-7.62-19,25.7-16.59,40.05-22.28c6-2.36,13.26-8.73,20.09-15.55,9.53-9.49,18.19-19.85,21.33-21.52,4-2.1,15-5.87,20.39-7.66,1.87-.63,3.07-1,3.07-1,3.41,3.29,8.65,9.8,13.81,16.26,5.94,7.37,11.79,14.63,14.75,16.78C377.43,576.71,399,594.93,399,599.87Z" fill="#ff634d"/><path d="M360,510.22c0-2.17-.09-3.47-.09-3.47A7.46,7.46,0,0,1,360,510.22Z" fill="#e6e6e6" style="mix-blend-mode:multiply"/><path d="M301.42,488.29c8.1.2,8.07,15.47,3.81,31.61s-6.5,19.51-4.93,19.51,16.59-4,32.51-5.38,15.92-2.47,24.22-3.59,25.78,2.69,26.23,3.14-6.95,8.07-20.18,7.18-11.21-2.47-17.26-.23-43.5,19.28-52.25,16.14-6.95-13.22-6.27-26.9S292.45,488.06,301.42,488.29Z" fill="#e8b089"/><path d="M374,818.56c-.94.84-8.36,1.27-14.64.48-3.75-.46-7.09-1.36-8.38-2.87-3.44-4-.89-17.49-2.1-20.79s-6.4-9.63-6-11.76c0-.06,0-.13,0-.18.75-2,10.91-8.38,11.36-6.59,2,8.09,3.58,26.32,7,28.85S375.49,817.21,374,818.56Z" fill="#cc311c"/><path d="M359.35,819c-3.75-.46-7.09-1.36-8.38-2.87-3.44-4-.89-17.49-2.1-20.79s-6.4-9.63-6-11.76c3.48,4.7,7.91,6.49,8.79,11.41,1,5.38.3,17.18,2.4,19.49C355.66,816.32,358.26,818,359.35,819Z" fill="#e6e6e6" style="mix-blend-mode:multiply"/><path d="M255,614.07c3.48,7.7,21.25,9.12,23.91,12.56a9.32,9.32,0,0,1,2.22,5.58c-4.36-3.23-7-6.93-10.29-6.93-4,0-13.15,5.39-24.81,1.35s-12.41-11.35-7.62-19,25.7-16.59,40.05-22.28c6-2.36,13.26-8.73,20.09-15.55-4,10-14.35,16.83-29.2,25.42C259.8,600.76,252.17,607.8,255,614.07Z" fill="#e6e6e6" style="mix-blend-mode:multiply"/><path d="M312,467.67a43,43,0,0,1-12.74,16.5c-10.62,8.52-29.76,6.14-45.6,9.28s-58.88,41.11-58.88,41.11-.35.48-1.48.34c3.45-7.88,36.31-54.27,65.64-54.8C296.26,479.43,305.91,473.27,312,467.67Z" fill="#e6e6e6" style="mix-blend-mode:multiply"/><path d="M337.84,430.63c-6.45-2.14-12.61-4.61-18.33-2.73-4.79,1.56-12.84,7.05-17.51,8.85,3.66-8.63,11.93-15.88,23.86-12.7C331.42,425.52,335.24,427.9,337.84,430.63Z" fill="#e6e6e6" style="mix-blend-mode:soft-light"/><path d="M298.51,460.76c-4.83,5.37-8.72,9.76-28.49,7-22.53-3.14-39.23-8.52-51.33-7.75A155.76,155.76,0,0,0,201,462.2a3,3,0,0,1,.36-.14c13-5.08,27.36-4.63,54.71.3C280.5,466.77,285.38,466.88,298.51,460.76Z" fill="#e6e6e6" style="mix-blend-mode:soft-light"/><path d="M773.32,767.83s-3-3.84,1.19-80.78c4.64-85-.16-130,59.1-143s52.16-12.14,84.22-37.23,67.89-13.54,86.28-29.22,35.29-79.77,70.31-109.65,55.6,14.48,89.11-21.1c32.51-34.5,41.76-39.77,46.07-37,19.85,12.6-75.89,104.62-75.28,141.72,0,.45,0,.89,0,1.33,2.42,69.59-35,50.49-56.73,81.68-22,31.57-23.46,48.6-69.15,53s-82.41-6.44-88,36.74-12.56,72.41-50.7,72.6-41.15,8.42-57.21,33C781.39,777.49,773.32,767.83,773.32,767.83Z" fill="#c4c4ff"/><path d="M793.39,715.34C819.54,627,820.5,605.87,856,584s84.2-5.81,122.3-47.34,55.86-92.81,99.44-127.16S1144.7,375,1144.7,375s-45.53,18-67.2,45.48S996.83,546.85,947.87,564.36,863.42,572.08,842.14,610,790.26,725.91,793.39,715.34Z" fill="#b1b1fa"/><polygon points="801.96 795.7 864.97 469.7 1042.12 473.35 1003.47 792.96 801.96 795.7" fill="#7aa5fa"/><polygon points="1042.12 473.35 1056.73 793.87 995.55 792.96 1042.12 473.35" fill="#4d7bd1"/><path d="M997.34,480.54c-5.11-22.75-23.37-82-46.12-83-11-.36-29.05,13.35-50.94,82.09l-6.95-2.22c18.95-59.55,37.8-87.79,58.22-87.17,32.38,1.42,50.91,79.76,52.92,88.69Z" fill="#7aa5fa"/><polygon points="741.7 568.66 876.27 558.43 945.91 802.77 772.79 802.77 741.7 568.66" fill="#ffaba8"/><polygon points="741.7 568.66 731.47 801.2 772.79 802.77 741.7 568.66" fill="#db8986"/><path d="M782.31,571l-4.68-.65c.77-5.57,8.1-54.49,25.92-56.23,11.08-1,22.25,15.54,34.42,50.77l-4.46,1.54c-14.67-42.47-24.74-48.07-29.5-47.61C793.36,519.81,785,551.33,782.31,571Z" fill="#ffaba8"/><path d="M1046.74,768.56a95.59,95.59,0,0,1-1.33,20.26l-2.25-2.69-7-8.35s.5-5.52.5-7-.5-5.52-.5-5.52-2.17,8.53-2.83,8.53-11.55-7.53-13.73-8.53-12.87.32-16.23-5-29.27-44.35-29.27-44.35-1.48-13.07-2.77-23.51c-.78-6.36-1.48-11.74-1.74-12.62-.69-2.33-6.67-30.82-2.69-37.81,3.25-5.72,10.23-9.09,17.28-9.17a21.55,21.55,0,0,1,2.79.14c9.76,1.12,25.78,7,36.82,43.16,9.82,32.1,14.86,45.72,18.09,52,.42.8.78,1.47,1.14,2.05,3.08,5,11.35,11.76,11.87,12.18-.54-.16-9.18-2.85-14.21-9.35-5.18-6.69-8-10.86-8-10.86s.58,9.63,3.69,15.72C1040.39,745.66,1046.24,757.7,1046.74,768.56Z" fill="#3a0982"/><path d="M1003.92,689c.26,1.13-13.94,4-13.94,4s-.2-2.63-.58-5.81c-.5-4.17-1.3-9.33-2.29-10.76,0,0,.06-.34.2-.86.57-2.27,2.39-8,6-5.66A6.54,6.54,0,0,1,994.5,671c.36.38.72.83,1.1,1.31C999.52,677.5,1003.7,688,1003.92,689Z" fill="#ffcab0"/><path d="M994.5,671a57.11,57.11,0,0,0-7.19,4.58c-.14.52-.2.86-.2.86,1,1.43,1.79,6.59,2.29,10.76,2.21-3.63,5.54-10.47,6.2-14.89Z" fill="#e6e6e6" style="mix-blend-mode:multiply"/><path d="M964.27,661.33c0,11.88,5.38,25.94,12.29,27.65,8.66,2.13,21.67-18.11,20.16-23.47s-12.88-20.07-17.56-20.74-11.55,6.35-12.55,9S964.27,661.33,964.27,661.33Z" fill="#ffcab0"/><path d="M981.08,751.34s-8.16-10.79-18.57-16.31-12.67-8.41-13.8-11-5.4-11.16-7-12.79-12.55-13.43-13-13.43,5.15,21.08,9.66,27.35S975.06,766,980.2,763.76,981.08,751.34,981.08,751.34Z" fill="#ffcab0"/><path d="M944.88,714.47c0-2.7-.69-5.65-1.88-6s-3-.44-3.39-.06S944.88,714.47,944.88,714.47Z" fill="#ffcab0"/><path d="M1036.2,777.78s.5-5.52.5-7-.5-5.52-.5-5.52-2.17,8.53-2.83,8.53-11.55-7.53-13.73-8.53-12.87.32-16.23-5-29.27-44.35-29.27-44.35-1.48-13.07-2.77-23.51c9,17.27,24.9,43.21,40.07,52.3,15.64,9.36,29.28,16.55,31.72,41.48Z" fill="#ccc" style="mix-blend-mode:multiply"/><path d="M1053.6,827.79c-10.19-1.83-16.06,4.35-21.08,1.68s-8.69-3.51-10.37-13.55-3.84-42.16-2.84-55.21c.63-8.19-1.3-19.59-2.71-28.16-.1-.55-.18-1.09-.28-1.61-.68-4.36-1.18-7.77-1-9.37.32-3.12,3-9.7,4.94-14.06a0,0,0,0,1,0,0c.4-.92.76-1.72,1.06-2.41.5-1.08.83-1.76.83-1.76.14.24.3.5.44.76s.42.72.62,1.08.36.67.54,1c0,0,0,0,0,0,.18.34.36.68.54,1a83.53,83.53,0,0,1,9.22,43.73c-1.51,21.08-7.37,66.09-4.68,68.76s10.36-3.17,14.38-2.67,21.08,9.53,22.76,10S1063.8,829.63,1053.6,827.79Z" fill="#ffcab0"/><path d="M995,846.7c-.8-1-7.16-4.22-12.63-6.42a26.7,26.7,0,0,0-7.06-2.11s-12-8.92-19.34-15.3c-3.43-3-5.84-5.44-5.52-6.16,1-2.25,2-.87,9.18,1.14S982,831.38,984.84,832s9.54-.26,11.55.63S996.27,848.21,995,846.7Z" fill="#ffcab0"/><path d="M1015.12,862a36.73,36.73,0,0,1-2.73,9.75c-1.09,2.25-2.15,3.2-2.71,2.49-1.09-1.36-7.87-16.7-10.28-19.83s-8.77-7.91-8.19-8.63,4.92-5,4.33-8.4-4.67-7.16-4.41-7.91,19.15,2.92,21,7.19c0,.06.06.12.08.18C1014,841.26,1016.44,853.38,1015.12,862Z" fill="#6c50cc"/><path d="M971.29,778.78c-33.12-.34-85.49,9.7-88.83,19.9s108.07,20.08,109.74,18.57S971.29,778.78,971.29,778.78Z" fill="#907ae0"/><path d="M982.37,840.28a26.7,26.7,0,0,0-7.06-2.11s-12-8.92-19.34-15.3c.71-3.23,1.51-5.62,1.51-5.62C962.06,818.45,978.44,828.47,982.37,840.28Z" fill="#e6e6e6" style="mix-blend-mode:multiply"/><path d="M881.79,805.54c.5,8.7,4,17.9,24.76,22.76S981,841.51,981,839.67s-18.06-21-24.1-23.42c-21.41-8.74-31.66-13.09-46.34-13.55C887.81,802,881.79,805.54,881.79,805.54Z" fill="#a58cff"/><path d="M893.58,800.3v.06c-.34,1.67-11.71,10.36-13.39,13.88s-2,6.1-4,8.37-15.88-4.68-12.37-6.1c2.25-.93,5.69-4,8.62-7,.34-.34.66-.68,1-1,.88-.94,1.71-1.84,2.39-2.63l.72-.82a90,90,0,0,1,8.09-5.5,19,19,0,0,1,3.8-1.79c2.61-.74,4.23,0,4.88,1A2.06,2.06,0,0,1,893.58,800.3Z" fill="#ffcab0"/><path d="M882,817.43c.43.62-6.36,14.35-9.43,15.68a.84.84,0,0,1-.42.12c-2.81.08-20.16-1-28.07-7.19a35.68,35.68,0,0,1-4.5-4.17c-4.17-4.68-5.2-8.8-4.65-10,.7-1.51,10.74,2.33,17.68,2.91s12.85-3.17,12.93-2.75c.26,1.18-.78,5.68,3.8,7S881.59,816.75,882,817.43Z" fill="#6c50cc"/><path d="M999.57,664.26c-12.3,12.63-25.1-12.88-25.1-12.88s-3,15.89-10.29,13.3S965.23,641,969.54,639c5.38-2.57,17.23,1.67,19.15,4.51S999.57,664.26,999.57,664.26Z" fill="#3a0982"/><path d="M1020.5,724.7c-1.83,2.53-3.17,4.59-4.18,6.24-.68-4.36-1.18-7.77-1-9.37.32-3.12,3-9.7,4.94-14.06a0,0,0,0,1,0,0c.4-.92.76-1.72,1.06-2.41.54-.42,1-.76,1.27-1l.06,0c.24-.16.36-.26.36-.26.26.74.52,1.52.74,2.37v0s0,0,0,0A20.16,20.16,0,0,1,1020.5,724.7Z" fill="#e6e6e6" style="mix-blend-mode:multiply"/><path d="M1009.78,768.56c5.18,18.57,4.05,35.68.54,42.89-.56,1.14-1.89.7-3.69-.85-9.56-8.13-32.79-47.16-30-47.72,3.34-.66,1.67-24.59,1.51-25.94s-7-9.35-6.87-16.38,14.26-28.59,19.07-30.8c1-.46,11.29-4.79,19.46-2.67s10.66,8,13.83,17.41-6.34,21.08-10.86,26.1a17.29,17.29,0,0,0-3,5.18C1007,742.79,1005.82,754.47,1009.78,768.56Z" fill="#f9acff"/><path d="M895.12,798.64a16.47,16.47,0,0,1-1.54,1.66c-4.8,4.56-13.65,8.25-20.18,8.19.88-.94,1.71-1.84,2.39-2.63l.72-.82a90,90,0,0,1,8.09-5.5c2.73-.26,6.47-.58,8.68-.76Z" fill="#e6e6e6" style="mix-blend-mode:multiply"/><path d="M1010.32,811.45c-.56,1.14-1.89.7-3.69-.85-3.72-8.79-7.39-21-6.57-21.62,1.35-1,7,4.68,8.71,0s-8.31-42.66,1-53.2c-2.77,7-4,18.69,0,32.78C1015,787.13,1013.83,804.24,1010.32,811.45Z" fill="#e6e6e6" style="mix-blend-mode:multiply"/><path d="M991.49,823c-12.69-1.1-28.17-9.74-42.28-34.51-1.67-2.93-3.21-5.82-4.62-8.61-10.56-20.94-14.11-37.41-14.53-39.47a48.54,48.54,0,0,1-1.77,19.47A56.8,56.8,0,0,1,921.56,774a93.78,93.78,0,0,1-14.85,17.37c-13.21,12.33-35,17.39-33.45,15.06s11.87-16.75,26.26-46.68,20.58-43,31-41.5,73.09,56.68,80.12,88.34C1012.21,813.69,1007.43,824.35,991.49,823Z" fill="#a58cff"/><path d="M949.1,720.74h0a1.08,1.08,0,0,1-1.53-.13L923.42,692a1.09,1.09,0,0,1,.13-1.54h0a1.09,1.09,0,0,1,1.53.13l24.15,28.66A1.08,1.08,0,0,1,949.1,720.74Z"/><path d="M1041.92,728.05c-6.14-6.14-16-20.48-23.79-47.14C1008,646,995.79,637.77,984.22,632.75a21.55,21.55,0,0,1,2.79.14c9.76,1.12,25.78,7,36.82,43.16C1033.65,708.15,1038.69,721.77,1041.92,728.05Z" fill="#d9d9d9" style="mix-blend-mode:soft-light"/><path d="M1015.12,862a36.73,36.73,0,0,1-2.73,9.75c-1.67-3.59-2.79-10.17-2.79-17.7,0-7.21,1-13.53,2.59-17.21C1014,841.26,1016.44,853.38,1015.12,862Z" fill="#e6e6e6" style="mix-blend-mode:multiply"/><path d="M872.6,833.11a.84.84,0,0,1-.42.12c-2.81.08-20.16-1-28.07-7.19a35.68,35.68,0,0,1-4.5-4.17,77.14,77.14,0,0,1,14.68,3C862.12,827.23,868.78,830.3,872.6,833.11Z" fill="#e6e6e6" style="mix-blend-mode:multiply"/><path d="M930.06,740.4a48.54,48.54,0,0,1-1.77,19.47A56.8,56.8,0,0,1,921.56,774c4.18-11.28,7-35.74,7.45-39,.55-3.6,14.46,34.61,15.58,44.91C934,758.93,930.48,742.46,930.06,740.4Z" fill="#e6e6e6" style="mix-blend-mode:multiply"/><path d="M867.81,222.68c12.56,3.78,307.1,4.73,312.81-1s29.68-36.87,6.85-49.16-37.68,3.78-37.68,3.78,27.4-52-22.83-75.63-68.5,36.87-68.5,36.87-32-36.87-71.92-20.8-38.82,50.11-38.82,50.11-4.56-14.18-20.55-12.29-21.69,9.45-25.11,18.91,17.12,23.63,17.12,23.63a142.76,142.76,0,0,0-41.1-2.83C856.39,196.21,867.81,222.68,867.81,222.68Z" fill="#fff" opacity="0.5"/></g></g></g></svg>