<svg xmlns="http://www.w3.org/2000/svg" viewBox="0 0 109.09 92.79"><g style="isolation:isolate"><g id="Layer_2" data-name="Layer 2"><g id="Layer_1-2" data-name="Layer 1"><circle cx="70.78" cy="49.78" r="28.97" transform="translate(-13.81 31.57) rotate(-22.97)" fill="#f45762"/><circle cx="70.78" cy="49.78" r="21.96" transform="translate(-13.81 31.54) rotate(-22.95)" fill="#ebebeb"/><circle cx="70.78" cy="49.78" r="15.68" transform="translate(10.4 111.76) rotate(-80.87)" fill="#f45762"/><path d="M81.58,49.78A10.8,10.8,0,1,1,70.78,39,10.8,10.8,0,0,1,81.58,49.78Z" fill="#ebebeb"/><path d="M75.76,49.78a5,5,0,1,1-5-5A5,5,0,0,1,75.76,49.78Z" fill="#f45762"/><path d="M107.9,30.63c-.44-.5-1.79-2.25-4.79.46-2.85,2.58-6.31,6.26-6.31,6.26s4.89-1.27,8.52-2.53C109.14,33.49,108.27,31.21,107.9,30.63Z" fill="#f45762"/><path d="M103.67,31.79l-5,1.93a26.64,26.64,0,0,0-4.36,2.13L70.78,50.08l23.65-9.72a27.06,27.06,0,0,0,7.33-4.49l2.69-2.3A4.45,4.45,0,0,1,103.67,31.79Z" fill="#110239"/><path d="M96.11,37.35s.67-7.44,4.73-10.58,3.2,6,3.2,6Z" fill="#f45762"/><path d="M96.11,37.31s6.78,3.13,11.53,1.19S104,32.71,104,32.71Z" fill="#f45762"/><path d="M74.8,73.61c-.23-7.48,3.43-15.83.53-22.9C72.55,44,67.78,35,62,30.3c-2.68-2.18-6-2.5-9-3.36a29,29,0,0,0,17.81,51.8A28.48,28.48,0,0,0,75,78.43C74.9,76.77,74.84,75.13,74.8,73.61Z" fill="#c9071e" opacity="0.35" style="mix-blend-mode:multiply"/><path d="M32.53,16.2S23.67,18.41,17,23.33,3.5,43.5,2.14,54.2s-4.06,19.07,0,24.54,17.22,6.59,28.54,7.69,26.93-1.6,30.07-5.53,2.9-33.73-3-45S41.14,16,32.53,16.2Z" fill="#09c9ce"/><path d="M57.79,64.65c-5.69-.05-10.19,1.17-13.45,6.11-2.17,3.27-5.05,8.36-3.4,12.46a22.46,22.46,0,0,0,1.64,3.16c8.3-.75,16.06-2.83,18.17-5.48,1.31-1.64,2-7.77,2-15.17A16.54,16.54,0,0,0,57.79,64.65Z" fill="#23a1ad"/><path d="M47.61,80.3a19.62,19.62,0,0,1-6.49-3.13c-4-3.32-6.49-4.3-11.5-4.25-4.59,0-9,0-13-2.58A11.89,11.89,0,0,1,12,58.77,18.08,18.08,0,0,1,15.37,51c2.58-3.42,3.07-5.88,2.16-10.17a27.57,27.57,0,0,1,.24-14.56c.77-2.62,2.6-4.52,4.66-6.24A37.41,37.41,0,0,0,17,23.33C10.39,28.25,3.5,43.5,2.14,54.2s-4.06,19.07,0,24.54,17.22,6.59,28.54,7.69,26.93-1.6,30.07-5.53c.61-.77,1.09-2.51,1.43-4.9C58.25,79.89,53.16,82.14,47.61,80.3Z" fill="#23a1ad"/><path d="M31.3,18.41s-9.51-2.31-10.8-9.5S23-.78,25.9.88s3.37.77,5.4-.49,5,.77,6.45,2.89,1.76-.37,5.26-.65,4.71,3,2.86,7.2S42.27,18.59,31.3,18.41Z" fill="#09c9ce"/><path d="M41.6,14.36c-2.47.64-1-2.54-1.41-3.65-.64,0-.88,1.1-1.1,1.57a2.89,2.89,0,0,1-2.61,1.66c-1.54,0-1.75-1.7-2.41-2.73-.27-.43-.4-.41-.57.11s0,1.24-.54,1.68c-1,.83-2.62-.11-3.38-.77s-1.18-1.91-2.07-2.62a1.3,1.3,0,0,0-.28.62c-.22,1-.15,3-1.84,2.65C24,12.57,23,10.23,22.54,9a12.88,12.88,0,0,1-1-4.48,13.24,13.24,0,0,1,.13-1.89A5.31,5.31,0,0,1,22,1.22h0C20.62,2.42,19.79,5,20.5,8.91c1.1,6.12,8.14,8.7,10.22,9.34a4.22,4.22,0,0,0,1.12.17c8.65,0,11.34-3,13-6.39h0S42.48,14.14,41.6,14.36Z" fill="#23a1ad"/><path d="M35.3,39.79c4.66.46,8.86,2.55,8.78,7.21l-7.77-.13c0-1.77-1.82-2.18-3-2.2-.72,0-3-.05-3.05,1.38-.06,3.19,14.33.12,14.17,9.16-.09,5.42-4.37,7.37-9.59,7.65l.23,5.77-4.75-.09.4-5.79c-4.82-.59-9.28-2.94-9.2-7.82l7.78.14v.17c0,2.14,2.39,2.6,3.61,2.63s3.49,0,3.52-1.58C36.53,53,22.15,55.74,22.3,47c.09-5,4-6.91,8.88-7.25L31,34l4.75.08Z" fill="#ffd066"/><path d="M74.8,78.74a14,14,0,1,1-14-14A14,14,0,0,1,74.8,78.74Z" fill="#ffd066"/><path d="M72.22,78.74A11.47,11.47,0,1,1,60.75,67.28,11.47,11.47,0,0,1,72.22,78.74Z" fill="#feac1a"/><path d="M59.39,72.84c2.3-.71,4.71-.56,5.6,1.67L61.28,76c-.36-.84-1.29-.67-1.84-.45-.34.13-1.44.57-1.17,1.26.61,1.52,6.82-2.8,8.55,1.51,1,2.59-.6,4.37-3,5.55l1.26,2.68-2.27.91-1-2.83c-2.4.69-5,.46-5.92-1.87l3.72-1.48,0,.08c.43,1,1.65.76,2.24.52s1.65-.7,1.35-1.45c-.63-1.58-6.9,2.6-8.58-1.57-1-2.41.54-4.09,2.77-5.21l-1.25-2.72,2.27-.9Z" fill="#ffd066"/><path d="M24.38,15l-.86,4.53s2.43,2.33,9,2.33,10.18-2.33,10.18-2.33l-.43-4.09S33.26,17.72,24.38,15Z" fill="#ffd066"/></g></g></g></svg>