<svg xmlns="http://www.w3.org/2000/svg" viewBox="0 0 129.77 52.97"><g id="Layer_2" data-name="Layer 2"><g id="Screens"><rect x="0.2" y="0.2" width="129.42" height="52.57" fill="#fff"/><path d="M129.63,52.77s0-.32,0-.93,0-1.54,0-2.73c0-2.4,0-5.92,0-10.46,0-9.08,0-22.2-.08-38.45l.15.15L.21.41h0L.41.2c0,18.41,0,36.18,0,52.57l-.2-.19,92.8.09,26.92.06,7.2,0h2.51l-.62,0h-1.84l-7.17,0-26.87.06L.2,53H0v-.2C0,36.38,0,18.61,0,.2V0H.21L129.63.06h.14V.2c0,16.29-.06,29.44-.08,38.53,0,4.53,0,8,0,10.43,0,1.18,0,2.09,0,2.7S129.63,52.77,129.63,52.77Z" fill="#e8505b"/><path d="M.33,7.29c0-.11,28.93-.2,64.61-.2s64.61.09,64.61.2-28.92.21-64.61.21S.33,7.41.33,7.29Z" fill="#e8505b"/><g opacity="0.3"><path d="M5.75,4.12a.94.94,0,1,1-.94-.94A.94.94,0,0,1,5.75,4.12Z" fill="#e8505b"/></g><g opacity="0.3"><path d="M9,4.12A.94.94,0,1,1,8,3.18.94.94,0,0,1,9,4.12Z" fill="#e8505b"/></g><g opacity="0.3"><path d="M12.14,4.12a.94.94,0,1,1-.94-.94A.94.94,0,0,1,12.14,4.12Z" fill="#e8505b"/></g><g opacity="0.3"><rect x="11.2" y="15.84" width="31.26" height="31.26" fill="#e8505b"/></g><path d="M120.67,24.22c0,.11-16.08.2-35.92.2s-35.93-.09-35.93-.2S64.9,24,84.75,24,120.67,24.1,120.67,24.22Z" fill="#e8505b"/><path d="M120.67,30.58c0,.12-16.08.21-35.92.21s-35.93-.09-35.93-.21,16.08-.2,35.93-.2S120.67,30.47,120.67,30.58Z" fill="#e8505b"/><path d="M95.07,37a1.57,1.57,0,0,1-.47,0l-1.34,0-5,.07L72,37.16,55.59,37.1l-5-.07-1.35,0a1.57,1.57,0,0,1-.47,0,2.15,2.15,0,0,1,.47,0l1.35,0,5-.06L72,36.75l16.35.06,5,.06,1.34,0A2.15,2.15,0,0,1,95.07,37Z" fill="#e8505b"/></g></g></svg>