<svg xmlns="http://www.w3.org/2000/svg" viewBox="0 0 189.46 159.54"><g id="Layer_2" data-name="Layer 2"><g id="Space"><g id="Meteor"><g id="Star"><path d="M71.66,10.94A10.94,10.94,0,0,1,60.72,0,10.94,10.94,0,0,1,49.78,10.94,10.94,10.94,0,0,1,60.72,21.88,10.94,10.94,0,0,1,71.66,10.94Z" fill="#fff"/><circle cx="10.94" cy="72.8" r="10.94" fill="#fff"/><path d="M90,148.6a10.93,10.93,0,0,1-10.94-10.93A10.93,10.93,0,0,1,68.13,148.6a10.94,10.94,0,0,1,10.94,10.94A10.94,10.94,0,0,1,90,148.6Z" fill="#fff"/><circle cx="160.43" cy="36.59" r="6.88" fill="#fff"/><path d="M181.08,136.37a6.89,6.89,0,0,1-6.88-6.89,6.9,6.9,0,0,1-6.89,6.89,6.89,6.89,0,0,1,6.89,6.88A6.88,6.88,0,0,1,181.08,136.37Z" fill="#fff"/></g><g id="Meteor_2" data-name="Meteor 2"><path d="M155.47,113.83s-4.51,5.5-8.24,7.85c0,0,15.25-26.46,29.77-37.25,0,0-12.91,2.61-21.87,11.21,4.07-4,32.42-31.86,34.33-37.19-5.34,1.92-33.36,30.37-37.25,34.34,8.62-9,11.24-21.91,11.24-21.91-10.79,14.52-37.25,29.77-37.25,29.77,2.35-3.73,7.85-8.24,7.85-8.24-9.62,3.92-30.1,28.94-30.1,28.94l11.3,11.28,11.28,11.3S151.55,123.45,155.47,113.83Z" fill="#ffdf3c"/><path d="M135.06,123.14a22.52,22.52,0,0,1-4,3.79s7.35-12.75,14.34-18a24.09,24.09,0,0,0-10.54,5.4c2-1.92,15.62-15.35,16.55-17.92-2.58.93-16.08,14.63-17.95,16.54a24.13,24.13,0,0,0,5.42-10.55c-5.21,7-18,14.34-18,14.34a22.23,22.23,0,0,1,3.78-4c-4.64,1.89-14.5,13.94-14.5,13.94l5.44,5.44,5.44,5.44S133.17,127.78,135.06,123.14Z" fill="#ff8948"/><path d="M131,133.7a3,3,0,0,1-1.73-5.69,1.61,1.61,0,0,1-.08-.54,1.83,1.83,0,0,1,.61-1.37,16,16,0,0,0-30.47,8.05,1.38,1.38,0,0,1,.86,1.28,1.42,1.42,0,0,1-.06.42.89.89,0,0,1,.38.73.9.9,0,0,1-.52.81,16,16,0,0,0,31.18-3.74Z" fill="#0096af"/><path d="M106.92,127.44a2.82,2.82,0,1,1,2.82,2.81A2.82,2.82,0,0,1,106.92,127.44Z" fill="#047d89"/><path d="M108.55,130a2.82,2.82,0,0,1,1.91-4.89,2.91,2.91,0,0,1,1.18.26,2.82,2.82,0,1,0-3.09,4.63Z" fill="#036166"/><path d="M108.23,141.16a1.89,1.89,0,1,1,1.88,1.88A1.88,1.88,0,0,1,108.23,141.16Z" fill="#047d89"/><path d="M109.32,142.87a1.91,1.91,0,0,1-.61-1.39,1.9,1.9,0,0,1,2.68-1.72,1.92,1.92,0,0,0-1.28-.49,1.89,1.89,0,0,0-.79,3.6Z" fill="#036166"/><path d="M117.79,137.82a1.45,1.45,0,1,1,1.45,1.45A1.45,1.45,0,0,1,117.79,137.82Z" fill="#047d89"/><path d="M118.63,139.13a1.42,1.42,0,0,1-.47-1.06,1.45,1.45,0,0,1,1.45-1.46,1.4,1.4,0,0,1,.61.14,1.43,1.43,0,0,0-1-.38,1.45,1.45,0,0,0-.61,2.76Z" fill="#036166"/></g><g id="Meteor_1" data-name="Meteor 1"><path d="M102.78,85.58s-6.35,7.73-11.59,11c0,0,21.44-37.22,41.87-52.4,0,0-18.16,3.68-30.77,15.77,5.73-5.61,45.6-44.81,48.29-52.3C143.07,10.39,103.66,50.4,98.19,56,110.32,43.36,114,25.17,114,25.17,98.82,45.59,61.61,67,61.61,67c3.31-5.24,11-11.59,11-11.59C59.12,61,30.32,96.15,30.32,96.15L46.21,112l15.87,15.9S97.26,99.1,102.78,85.58Z" fill="#ffdf3c"/><path d="M74.07,98.67A31.47,31.47,0,0,1,68.49,104S78.82,86.06,88.66,78.75c0,0-8.75,1.77-14.82,7.59,2.76-2.7,22-21.59,23.26-25.19-3.62,1.29-22.6,20.57-25.24,23.26,5.85-6.08,7.62-14.85,7.62-14.85-7.31,9.85-25.24,20.18-25.24,20.18a30.92,30.92,0,0,1,5.32-5.59c-6.52,2.66-20.4,19.61-20.4,19.61l7.66,7.65,7.65,7.65S71.41,105.19,74.07,98.67Z" fill="#ff8948"/><path d="M68.39,113.51a4.18,4.18,0,0,1-2.44-8,2.74,2.74,0,0,1-.11-.76,2.61,2.61,0,0,1,.86-1.94,22.46,22.46,0,0,0-42.85,11.33,2,2,0,0,1,1.22,1.8,2,2,0,0,1-.1.59,1.25,1.25,0,0,1-.19,2.16,22.46,22.46,0,0,0,43.85-5.25Z" fill="#0096af"/><path d="M34.5,104.71a4,4,0,1,1,4,4A4,4,0,0,1,34.5,104.71Z" fill="#047d89"/><path d="M36.8,108.3a4,4,0,0,1,4.33-6.51,3.91,3.91,0,0,0-2.67-1,4,4,0,0,0-1.66,7.55Z" fill="#036166"/><circle cx="38.99" cy="124" r="2.65" fill="#047d89"/><path d="M37.88,126.41a2.65,2.65,0,0,1,1.79-4.61,2.73,2.73,0,0,1,1.11.24,2.65,2.65,0,1,0-2.9,4.37Z" fill="#036166"/><path d="M49.78,119.31a2,2,0,1,1,2,2A2.05,2.05,0,0,1,49.78,119.31Z" fill="#047d89"/><path d="M51,121.16a2,2,0,0,1,2.23-3.36A2,2,0,1,0,51,121.16Z" fill="#036166"/></g></g></g></g></svg>