<svg xmlns="http://www.w3.org/2000/svg" viewBox="0 0 182.83 163.05"><g id="Layer_2" data-name="Layer 2"><g id="Space"><g id="Saturn"><g id="Saturn-2" data-name="Saturn"><path d="M150.17,66.93A59,59,0,1,1,85.53,14.06,59,59,0,0,1,150.17,66.93Z" fill="#f4c18a"/><path d="M69,69.63s34.32-2.19,66.21-36.39a59.53,59.53,0,0,0-16.18-12.6C112.35,34.51,98.21,52,69,69.63Z" fill="#efb576"/><path d="M150.06,79.84c-28.43,26.54-60.92,40.43-82,47.24,1.82.78,3.67,1.47,5.57,2.07,13-3,35.12-10.05,51.29-24.92,0,0-6.9,16.37-32.28,27.63,1.53,0,3.07-.13,4.62-.29a58.53,58.53,0,0,0,12.88-2.75,86.8,86.8,0,0,0,15-10.95,31.45,31.45,0,0,1-3.36,5.56A59.16,59.16,0,0,0,150.06,79.84Z" fill="#e8b276"/><path d="M85.53,14.06A59.07,59.07,0,0,0,34,59.19c20.28-10.95,47.47-27,68.62-44.37A59.27,59.27,0,0,0,85.53,14.06Z" fill="#fee3c5"/><path d="M107,69.29C92.51,83.72,62.66,95.63,40.64,103a58.92,58.92,0,0,0,4.26,6.22C91,91.87,107,69.29,107,69.29Z" fill="#efb576"/><path d="M147,52.86c-16.2,18.61-50.25,51.36-96.74,62.3a59.06,59.06,0,0,0,11.44,8.68,58.16,58.16,0,0,0,6.4,3.24c21-6.81,53.53-20.7,82-47.24a58.83,58.83,0,0,0,.41-6.67,59.76,59.76,0,0,0-.3-6.24A58.78,58.78,0,0,0,147,52.86Z" fill="#fec689"/><path d="M125,104.23c-16.17,14.87-38.31,21.89-51.29,24.92a58.64,58.64,0,0,0,19,2.71C118.06,120.6,125,104.23,125,104.23Z" fill="#fec689"/><path d="M110.18,128.82a58.8,58.8,0,0,0,11.68-5.39,31.45,31.45,0,0,0,3.36-5.56A86.8,86.8,0,0,1,110.18,128.82Z" fill="#f4c18a"/><path d="M125,51.16a57.33,57.33,0,0,0,16.92-9q-1.38-2.27-3-4.38A93.27,93.27,0,0,1,125,51.16Z" fill="#efb576"/><path d="M182.44,27.42c-2.89-5.81-21.33-3-47,6a58.93,58.93,0,0,1,4.14,5.17c11.15-2.81,18.63-3,20.18.11s-3.1,9-12.05,16.19c-11.17,9-29,20.08-50,30.53S57.17,103.5,43.26,107c-11.15,2.82-18.63,3-20.18-.11s3.1-9,12.05-16.18a59.16,59.16,0,0,1-1.64-6.42C10.83,99.38-2.5,112.42.39,118.22s21.33,3,47-6A470.69,470.69,0,0,0,99.81,89.65a469,469,0,0,0,49.53-28.31C172,46.26,185.34,33.22,182.44,27.42Z" fill="#c18448"/></g><g id="Star"><path d="M39.65,6.68A6.68,6.68,0,0,1,33,0a6.68,6.68,0,0,1-6.68,6.68A6.68,6.68,0,0,1,33,13.35,6.68,6.68,0,0,1,39.65,6.68Z" fill="#fff"/><path d="M82.05,156.37a6.68,6.68,0,0,1-6.68-6.68,6.68,6.68,0,0,1-6.68,6.68,6.68,6.68,0,0,1,6.68,6.68A6.68,6.68,0,0,1,82.05,156.37Z" fill="#fff"/><path d="M178.85,108.13a6.68,6.68,0,0,1-6.68-6.67,6.67,6.67,0,0,1-6.67,6.67,6.67,6.67,0,0,1,6.67,6.68A6.68,6.68,0,0,1,178.85,108.13Z" fill="#fff"/></g></g></g></g></svg>