<svg xmlns="http://www.w3.org/2000/svg" viewBox="0 0 189.1 100.58"><g id="Layer_2" data-name="Layer 2"><g id="OBJECTS"><rect width="164.49" height="80.19" transform="translate(164.49 80.19) rotate(180)" fill="#8bcb0a"/><path d="M8.1,7.86V72.33H156.39V7.86ZM135.86,64.27H94.26c6.6-4.84,11-13.75,11-23.72,0-10.59-4.95-19.8-12.26-24.63h42.88c0,6.44,6,14.61,12.47,14.61V54.17C141.88,54.17,135.86,57.82,135.86,64.27ZM16.16,30.53c6.45,0,12.25-8.17,12.25-14.61H69.77c-7.31,4.83-12.26,14-12.26,24.63,0,10,4.38,18.88,11,23.72H28.41c0-6.45-5.8-10.1-12.25-10.1Z" fill="#419b19"/><path d="M90,32.63a5.51,5.51,0,0,0-1-.84,11,11,0,0,0-1.58-.86,12.49,12.49,0,0,0-2-.7,10.86,10.86,0,0,0-2.21-.37v8.07l.74.15a33.36,33.36,0,0,1,3.8,1.14,10.49,10.49,0,0,1,2.87,1.52,6.12,6.12,0,0,1,1.81,2.2A7.12,7.12,0,0,1,93,46.12a7.8,7.8,0,0,1-.74,3.53,7,7,0,0,1-2.05,2.43,9.13,9.13,0,0,1-3,1.46,14.35,14.35,0,0,1-3.73.53v4.1h-2V54a19.51,19.51,0,0,1-5.34-1.11,16.64,16.64,0,0,1-4.64-2.55l2-3.74a6.86,6.86,0,0,0,1.25,1,15.17,15.17,0,0,0,1.91,1,17.66,17.66,0,0,0,2.4.9,15,15,0,0,0,2.71.54V42l-.49-.13-.48-.14a32.35,32.35,0,0,1-3.61-1.15,9,9,0,0,1-2.56-1.46,5.76,5.76,0,0,1-1.54-2,6.71,6.71,0,0,1-.52-2.79A8.27,8.27,0,0,1,73.18,31a7.4,7.4,0,0,1,1.87-2.55,8.82,8.82,0,0,1,2.83-1.68A13.14,13.14,0,0,1,81.45,26V22h2V26a15,15,0,0,1,4.68,1A17.32,17.32,0,0,1,91.94,29Zm-12.87,1a2.82,2.82,0,0,0,1.15,2.46,11.39,11.39,0,0,0,3.49,1.44V29.86A5.67,5.67,0,0,0,78.21,31,3.38,3.38,0,0,0,77.08,33.64Zm11.27,13A2.9,2.9,0,0,0,87,44a14.84,14.84,0,0,0-3.82-1.58v7.72A7,7,0,0,0,87,49.2,2.94,2.94,0,0,0,88.35,46.59Z" fill="#fff"/><path d="M121.08,40.09a6.3,6.3,0,1,0,6.29-6.29A6.3,6.3,0,0,0,121.08,40.09Z" fill="#fff"/><path d="M43.41,40.09a6.3,6.3,0,1,1-6.29-6.29A6.3,6.3,0,0,1,43.41,40.09Z" fill="#fff"/><rect x="24.61" y="20.39" width="164.49" height="80.19" transform="translate(213.71 120.97) rotate(180)" fill="#8bcb0a"/><path d="M32.71,28.25V92.72H181V28.25ZM160.47,84.66h-41.6c6.6-4.83,11-13.75,11-23.71,0-10.6-4.95-19.81-12.26-24.64h42.88c0,6.45,6,14.62,12.47,14.62V74.57C166.49,74.57,160.47,78.22,160.47,84.66ZM40.77,50.93C47.22,50.93,53,42.76,53,36.31H94.38c-7.31,4.83-12.26,14-12.26,24.64,0,10,4.38,18.88,11,23.71H53c0-6.44-5.8-10.09-12.25-10.09Z" fill="#419b19"/><path d="M114.56,53a5.51,5.51,0,0,0-1-.84,12.07,12.07,0,0,0-1.58-.86,13.73,13.73,0,0,0-2-.7,11.49,11.49,0,0,0-2.2-.37v8.07l.74.16a34.06,34.06,0,0,1,3.8,1.13,10.63,10.63,0,0,1,2.87,1.52,6.21,6.21,0,0,1,1.81,2.2,7.13,7.13,0,0,1,.64,3.18,7.67,7.67,0,0,1-.74,3.53,6.76,6.76,0,0,1-2,2.43,9.34,9.34,0,0,1-3,1.47,14.8,14.8,0,0,1-3.73.52v4.1h-2V74.39a19.68,19.68,0,0,1-5.34-1.12,16.92,16.92,0,0,1-4.64-2.55l2-3.74a6.86,6.86,0,0,0,1.25,1A13,13,0,0,0,101.22,69a17.66,17.66,0,0,0,2.4.9,15.87,15.87,0,0,0,2.71.55V62.42a3.94,3.94,0,0,0-.49-.14l-.49-.14a30.19,30.19,0,0,1-3.6-1.15,9,9,0,0,1-2.56-1.46,5.76,5.76,0,0,1-1.54-2,6.65,6.65,0,0,1-.52-2.79,8.27,8.27,0,0,1,.66-3.39,7.27,7.27,0,0,1,1.87-2.55,8.82,8.82,0,0,1,2.83-1.68,13.45,13.45,0,0,1,3.56-.76V42.41h2v3.94a15,15,0,0,1,4.68,1,17,17,0,0,1,3.78,2.06Zm-12.87,1a2.82,2.82,0,0,0,1.15,2.46,11,11,0,0,0,3.49,1.44V50.25a5.67,5.67,0,0,0-3.51,1.11A3.36,3.36,0,0,0,101.69,54ZM113,67a2.9,2.9,0,0,0-1.37-2.6,14.52,14.52,0,0,0-3.82-1.57v7.72a7.14,7.14,0,0,0,3.84-.94A2.94,2.94,0,0,0,113,67Z" fill="#fff"/><path d="M145.68,60.49a6.3,6.3,0,1,0,6.3-6.3A6.3,6.3,0,0,0,145.68,60.49Z" fill="#fff"/><path d="M68,60.49a6.3,6.3,0,1,1-6.29-6.3A6.29,6.29,0,0,1,68,60.49Z" fill="#fff"/></g></g></svg>