<svg xmlns="http://www.w3.org/2000/svg" viewBox="0 0 110.06 107.7"><g id="Layer_2" data-name="Layer 2"><g id="Layer_1-2" data-name="Layer 1"><polygon points="57.59 105.31 39.76 105.31 41.23 83.81 56.12 83.81 57.59 105.31" fill="#ebebeb"/><path d="M42.8,100c4.46-1.48,9.74-2.54,14.1-4.7l-.78-11.45H41.22l-1.16,17C41,100.56,41.9,100.27,42.8,100Z" fill="#c8c8c8"/><path d="M59.93,101.87a1.16,1.16,0,0,0-1-.52H38.39a1.16,1.16,0,0,0-1,.52l-2.69,4a1.17,1.17,0,0,0,1,1.82H61.65a1.17,1.17,0,0,0,1-1.82Z" fill="#ebebeb"/><rect y="24.27" width="97.35" height="65.26" rx="5.02" fill="#ebebeb"/><rect x="4.48" y="28.59" width="88.38" height="55.93" fill="#fff"/><path d="M18.25,24.19A.51.51,0,0,1,18,24.1a.5.5,0,0,1-.12-.69s.31-.44.89-1.2a.5.5,0,0,1,.69-.09.49.49,0,0,1,.09.69c-.56.73-.86,1.16-.86,1.17A.49.49,0,0,1,18.25,24.19Z" fill="#110239"/><path d="M71.8,31.24a9,9,0,0,1-1.66-.15.49.49,0,1,1,.18-1,6.06,6.06,0,0,0,2.74,0,.49.49,0,0,1,.25,1A5.72,5.72,0,0,1,71.8,31.24ZM67.46,30A.48.48,0,0,1,67.2,30a11.53,11.53,0,0,1-2.41-2,.48.48,0,0,1,0-.69.5.5,0,0,1,.7,0,10.53,10.53,0,0,0,2.21,1.8.49.49,0,0,1,.17.67A.48.48,0,0,1,67.46,30Zm8.4-.3a.48.48,0,0,1-.4-.21.48.48,0,0,1,.12-.68A18.31,18.31,0,0,0,77.82,27a.5.5,0,0,1,.7,0,.49.49,0,0,1,0,.7,18.64,18.64,0,0,1-2.36,2A.46.46,0,0,1,75.86,29.74Zm-12.6-3.9a.49.49,0,0,1-.41-.21c-.51-.73-1.05-1.57-1.63-2.56a.48.48,0,0,1,.18-.67.49.49,0,0,1,.67.17c.57,1,1.09,1.78,1.59,2.5a.49.49,0,0,1-.12.68A.51.51,0,0,1,63.26,25.84Zm17-.19a.47.47,0,0,1-.32-.12.49.49,0,0,1-.05-.7c.59-.67,1.21-1.42,1.9-2.29a.49.49,0,1,1,.77.61c-.7.88-1.33,1.64-1.93,2.33A.5.5,0,0,1,80.22,25.65ZM84,21a.47.47,0,0,1-.3-.1.48.48,0,0,1-.09-.69l.58-.76,1.24-1.62a.49.49,0,0,1,.69-.09.49.49,0,0,1,.09.69L85,20l-.58.76A.52.52,0,0,1,84,21ZM60.17,20.7a.49.49,0,0,1-.43-.26l-.48-.89c-.32-.58-.63-1.16-.95-1.73a.48.48,0,0,1,.19-.67.49.49,0,0,1,.67.19c.32.58.64,1.16.95,1.74l.49.89a.49.49,0,0,1-.2.67A.5.5,0,0,1,60.17,20.7ZM21,20.67a.52.52,0,0,1-.32-.11.49.49,0,0,1-.06-.7c.65-.77,1.32-1.53,2-2.26a.49.49,0,1,1,.72.66c-.67.73-1.33,1.48-2,2.24A.48.48,0,0,1,21,20.67Zm4.06-4.4a.49.49,0,0,1-.35-.15.5.5,0,0,1,0-.7c.73-.72,1.47-1.41,2.21-2.07a.49.49,0,0,1,.69.05.48.48,0,0,1,0,.69c-.72.64-1.45,1.33-2.16,2A.5.5,0,0,1,25.07,16.27Zm62.6,0a.47.47,0,0,1-.31-.12.48.48,0,0,1-.06-.69c.75-.9,1.42-1.64,2-2.26a.49.49,0,0,1,.69,0,.5.5,0,0,1,0,.7c-.6.59-1.24,1.31-2,2.19A.46.46,0,0,1,87.67,16.25Zm-30.43-.78a.5.5,0,0,1-.42-.24c-.56-.93-1.09-1.74-1.62-2.47a.5.5,0,0,1,.11-.69.49.49,0,0,1,.69.12c.54.75,1.09,1.58,1.66,2.53a.5.5,0,0,1-.16.68A.48.48,0,0,1,57.24,15.47ZM29.55,12.29a.49.49,0,0,1-.3-.88c.82-.64,1.65-1.24,2.45-1.79a.49.49,0,0,1,.68.14.49.49,0,0,1-.13.68c-.79.53-1.59,1.11-2.39,1.74A.51.51,0,0,1,29.55,12.29Zm24.16-1.65a.48.48,0,0,1-.36-.15,15.38,15.38,0,0,0-2.16-1.94.49.49,0,0,1-.1-.69.48.48,0,0,1,.68-.1,16.14,16.14,0,0,1,2.3,2.06.49.49,0,0,1,0,.69A.46.46,0,0,1,53.71,10.64ZM34.53,9A.49.49,0,0,1,34.3,8a26.4,26.4,0,0,1,2.75-1.32.49.49,0,1,1,.37.91A26.52,26.52,0,0,0,34.77,8.9.53.53,0,0,1,34.53,9ZM48.89,7.18a.43.43,0,0,1-.19,0,11.37,11.37,0,0,0-2.58-.73l-.17,0a.49.49,0,1,1,.14-1l.18,0a12.21,12.21,0,0,1,2.81.79.5.5,0,0,1,.27.64A.51.51,0,0,1,48.89,7.18Zm-8.81-.44a.5.5,0,0,1-.48-.38A.49.49,0,0,1,40,5.77a16.53,16.53,0,0,1,3-.48.48.48,0,0,1,.52.46.49.49,0,0,1-.46.52,16.31,16.31,0,0,0-2.86.45Z" fill="#110239"/><polygon points="107.71 2.77 90.99 13.1 91.75 7.06 107.71 2.77" fill="#0186cb"/><polygon points="107.71 2.77 90.99 13.1 93.09 8.8 107.71 2.77" fill="#110239"/><polygon points="97.92 15.13 87.51 2.38 110.06 0 97.92 15.13" fill="#ebebeb"/><polygon points="109.35 0.39 91.67 7.47 92.95 9.03 109.35 0.39" fill="#0186cb"/><path d="M81.71,84.45V41.06a3.22,3.22,0,0,0-3.22-3.22H75.18c-5.5,0-4.74,12.38-4.74,12.38V84.45Z" fill="#0186cb"/><path d="M76.85,37.84H20.41c-5.49,0-4.74,12.38-4.74,12.38V84.45H72.11V50.22S71.36,37.84,76.85,37.84Z" fill="#ebebeb"/><rect x="22.37" y="57.21" width="45.18" height="7.46" fill="#fff"/><rect x="23.73" y="58.22" width="7.54" height="5.46" fill="#0186cb"/><rect x="32.46" y="58.22" width="7.54" height="5.46" fill="#0186cb"/><rect x="41.2" y="58.22" width="7.54" height="5.46" fill="#0186cb"/><rect x="49.93" y="58.22" width="7.54" height="5.46" fill="#ebebeb"/><rect x="58.66" y="58.22" width="7.54" height="5.46" fill="#ebebeb"/><rect x="24.08" y="77.68" width="7.81" height="3.18" fill="#f45762"/><rect x="35.4" y="77.68" width="7.81" height="3.18" fill="#f45762"/><rect x="46.72" y="77.68" width="7.81" height="3.18" fill="#f45762"/><rect x="58.05" y="77.68" width="7.81" height="3.18" fill="#f45762"/><rect x="21.99" y="43.93" width="45.95" height="7.94" fill="#bbeadb"/><path d="M48.77,50.22v1h-.83v-1a3.36,3.36,0,0,1-1.58-.67l.45-.9a2.79,2.79,0,0,0,1.58.67c.34,0,.55-.13.55-.36,0-.74-2.3-.29-2.3-1.84a1.35,1.35,0,0,1,1.3-1.3V44.9h.83v.91a3.19,3.19,0,0,1,1.36.47l-.43.9a3.41,3.41,0,0,0-1.41-.46c-.27,0-.45.09-.45.29,0,.73,2.3.32,2.3,1.89C50.14,49.67,49.55,50.12,48.77,50.22Z"/><path d="M52.22,47.41c1,0,1.7.55,1.7,1.33s-.71,1.52-1.79,1.52a3.22,3.22,0,0,1-1.73-.55l.46-.89a1.55,1.55,0,0,0,1.14.55c.44,0,.69-.2.69-.55s-.25-.52-.69-.52l-1.22,0V45.83h2.94v.92H51.83v.67Z"/><path d="M57.71,48.83c0,.84-.7,1.43-1.78,1.43a3,3,0,0,1-1.73-.54l.47-.88a1.61,1.61,0,0,0,1.17.55c.48,0,.75-.2.75-.55s-.27-.53-.76-.53H55.1V47.7l1-1H54.44v-.88h3.06v.66l-1.18,1.1.22,0A1.23,1.23,0,0,1,57.71,48.83Z"/><path d="M61.45,47a1,1,0,0,1-.52.9A1.22,1.22,0,0,1,61.68,49c0,.79-.69,1.29-1.77,1.29s-1.75-.49-1.75-1.27a1.24,1.24,0,0,1,.8-1.13,1.09,1.09,0,0,1-.58-.93c0-.7.6-1.15,1.53-1.15S61.45,46.24,61.45,47Zm-2.22,1.91c0,.36.24.55.68.55s.7-.19.7-.55-.25-.54-.69-.54S59.23,48.52,59.23,48.87Zm.1-1.84c0,.3.21.46.58.46s.59-.16.59-.46-.21-.48-.59-.48S59.33,46.72,59.33,47Z"/><path d="M63.77,47.41c1,0,1.7.55,1.7,1.33s-.71,1.52-1.79,1.52a3.26,3.26,0,0,1-1.74-.55l.46-.89a1.55,1.55,0,0,0,1.14.55c.45,0,.7-.2.7-.55s-.25-.52-.69-.52l-1.22,0V45.83h2.94v.92h-1.9v.67Z"/><rect x="48.73" y="67.06" width="18.82" height="7.63" fill="#ffd066"/><path d="M53.83,69.48c-.68,0-1,.44-1,1.15a1.16,1.16,0,0,1,1-.47,1.32,1.32,0,0,1,1.4,1.42,1.47,1.47,0,0,1-1.61,1.51c-1.16,0-1.86-.83-1.86-2.17s.78-2.31,2-2.31a2.77,2.77,0,0,1,1.39.37l-.42.78A1.56,1.56,0,0,0,53.83,69.48ZM53,71.59a.57.57,0,0,0,.64.6.56.56,0,0,0,.62-.62.55.55,0,0,0-.61-.59A.59.59,0,0,0,53,71.59Z"/><path d="M59,70.85c0,1.43-.61,2.22-1.71,2.22s-1.71-.79-1.71-2.22.6-2.22,1.71-2.22S59,69.42,59,70.85Zm-2.33,0c0,1,.18,1.42.62,1.42s.62-.42.62-1.42-.18-1.42-.62-1.42S56.7,69.84,56.7,70.85Z"/><path d="M61.88,70a1.22,1.22,0,1,1-1.22-1.32A1.19,1.19,0,0,1,61.88,70Zm-1.74,0c0,.45.19.72.52.72s.52-.27.52-.72-.2-.72-.52-.72S60.14,69.52,60.14,70Zm4.38-1.31L61.4,73h-1l3.11-4.38Zm.94,3.07a1.22,1.22,0,1,1-1.22-1.32A1.19,1.19,0,0,1,65.46,71.73Zm-1.74,0c0,.45.2.73.52.73s.52-.28.52-.73-.2-.71-.52-.71S63.72,71.29,63.72,71.73Z"/></g></g></svg>