<svg xmlns="http://www.w3.org/2000/svg" viewBox="0 0 1034.31 901.47"><g style="isolation:isolate"><g id="Layer_2" data-name="Layer 2"><g id="Layer_1-2" data-name="Layer 1"><circle cx="718.45" cy="452.91" r="315.86" fill="#e3ebff" opacity="0.5"/><circle cx="386.53" cy="386.53" r="386.53" fill="#e9d9ff" opacity="0.5"/><path d="M67.69,307.49c26.74,26.35,56.21,9,65.82,29.3s-49.59,1-56.63,7.5S60.5,398.17,78.5,406.35s74.9-34.39,89-29.54,26.75,33.19-24.55,48.82-58.87,12.61-60,24.11S78.55,514.28,109.3,515s112.92-75.2,120.12-68.36.75,38.5-42.8,75.7-78.11,41.27-74.92,52.26,17.71,55.91,44.82,57,125.73-90.08,141.26-87.88,33,36.59,20.12,46.27-53.71,48.34-91.79,55.67-54.07,11.22-34,24,80.75,52.51,130,32.27,87.19-76.67,88.67-74.12-8.8,33.82-4.17,36.95,24,.49,37.13-46.51,63.16-69.69,57.47-114.94-31.76-130-48.22-120-.63,62-38.42,90.81-70.44,42-54.76,11.42,51.7-111.78,29.93-150.87-52-40.74-55-28-6.93,83.89-43.08,105.55-5.36-13.33,8.65-47.18,7.27-69.85-2-81.3-10.49,2.3-21.92-6.3-19.82-19.56-27-10.79,9.53,50.83-10.71,70.85S208.17,365.75,204.19,352s25.3-33.39,15.93-65.67S212,263.4,199,259.72s-23.3-5.9-23.57.88,12.57,48.46.63,58.63-22.75,8.83-16.65-13.78,6.05-33-5.16-35.73S134.41,268,136.89,274s7.08,27,.57,19.93S120.92,260,95.58,260,53.1,293.12,67.69,307.49Z" fill="#e6d4ff" opacity="0.5"/><path d="M561.34,751.29c-2.08,6-116.39,13.83-202.6,19-23.3,1.4-44.51,2.62-60.94,3.54l-33.68,1.74-16.07-517S551.54,247.4,554,251.76,564.78,741.7,561.34,751.29Z" fill="#ff7d61"/><path d="M248.06,258.54l16,517s-119.84-5-124.81-5.74,34.4-133.87,51.18-215.56S248.06,258.54,248.06,258.54Z" fill="#d64e32"/><path d="M880.86,337c-15.92,23.88-10.82,75.77-24.74,71.13s6.19-64.17,3.09-66.49-32.47-4.64-41,7.73,3.87,80.41-3.86,85.05-24.75-53.35-27.84-61.08-43.3,9.28-51,18.55-5.42,52.58,15.46,96.66,18.56,61.85-11.6,32.47S716.94,415.1,710,411.24s-49.49,5.41-62.63,35.56-.77,57.22,10,72.69,35.57,31.7,31.7,35.56S652,564.33,635,550.41s-23.2,9.28-3.87,29.39,63.41,31.7,109,30.93,25.51,26.29,54.12,40.2,103.61,12,90.47-9.28c-.86-1.39-3.48-1.54-44.08-12.37-41.89-11.17-35.56-30.93-27.83-31.7s89.69,25.52,111.34,8.51,46.4-73.46,30.93-78.87-71.91,14.69-98.2,3.09-24-17,0-20.1S952,502.48,958.18,481.6s-2.32-33.25-14.69-31.7-64.17,11.59-60.31-4.64,42.53.77,51-29.39-9.27-13.14-24-12.37-27.06-2.32-11.59-15.46,27.06-20.88,15.46-44.85S882.41,334.69,880.86,337Z" fill="#e3ebff"/><polygon points="452.28 775.35 535.14 346.62 768.12 351.42 717.28 771.75 452.28 775.35" fill="#7aa5fa"/><polygon points="768.12 351.42 787.34 772.95 706.88 771.75 768.12 351.42" fill="#4d7bd1"/><polygon points="310.82 441.62 513.73 426.19 618.75 794.64 357.69 794.64 310.82 441.62" fill="#ffaead"/><polygon points="310.82 441.62 295.39 792.27 357.69 794.64 310.82 441.62" fill="#db7c78"/><path d="M372,445.07l-7.05-1c1.17-8.4,12.21-82.17,39.09-84.79,16.71-1.53,33.55,23.43,51.91,76.56l-6.74,2.32c-22.12-64-37.3-72.48-44.48-71.79C388.71,368,376.17,415.48,372,445.07Z" fill="#ffb4b3"/><path d="M339.77,276.53l-10.35-2.72c24.14-91.73,49.25-136.35,76.72-136.35h.57c43.89,1,70.49,118.38,73.38,131.76l-10.46,2.26c-10.23-47.36-36.43-122.72-63.16-123.31C394.21,147.88,369.33,164.21,339.77,276.53Z" fill="#ff7d61"/><ellipse cx="271.25" cy="831.58" rx="187.73" ry="30.69" fill="#e9d9ff" opacity="0.5"/><path d="M287.64,671.86s20,14.51,30.46,12.48a14.88,14.88,0,0,0,2.86-.86c8.06-3.45,9.92-13.2,8.61-6.62-1.31,6.89-6.58,12.23-7.23,12.92,1.2-.31,18.16-5.06,27.32-10.95a22.56,22.56,0,0,0,3.45-2.66s-4.27-58.71-16.51-52.55c-7.75,3.93-13.23,14.58-18,24-2.69,5.41-5.17,10.37-7.69,13.47a4.7,4.7,0,0,1-.58.62C303.25,669.66,287.64,671.86,287.64,671.86Z" fill="#e86100"/><path d="M326.44,704.22c-.66,2.17,30.36,3.45,30.36,2.17a106.31,106.31,0,0,1,2.27-15.06,25.68,25.68,0,0,1,2.65-7.58c3.24-4.72-.2-13.33-3.2-13.13s-8.62,2.8-8.62,2.8c-1,1.55-2.24,3.27-3.61,5.09C338.67,688.78,327,702.39,326.44,704.22Z" fill="#ffd2c0"/><path d="M346.29,678.51c2.41.25,5.2-.34,5.41.8s4.51,10,7.37,12a25.68,25.68,0,0,1,2.65-7.58c3.24-4.72-.2-13.33-3.2-13.13s-8.62,2.8-8.62,2.8C348.9,675,347.66,676.69,346.29,678.51Z" fill="#e6e6e6" style="mix-blend-mode:multiply"/><path d="M385.14,638.83c8.9,10.91,10.63,47.67,5.46,52.26s-31-4.59-33.89-7.46-10-25-9.76-27.57S385.14,638.83,385.14,638.83Z" fill="#ffd2c0"/><path d="M349.82,662.81c-5.88-2.16-10.33-1.44-11.05,3.44-.69,4.7,5.17,9.62,9,10.2,2.76.41,7.76-4,7.61-5.46S349.82,662.81,349.82,662.81Z" fill="#ffd2c0"/><path d="M366.91,737.18c6.89,14,19.81,40.49,18.52,45.66s-4.09,26.7-11.63,22.82-24.55-17.87-21.32-32.95S366.91,737.18,366.91,737.18Z" fill="#f0c6b4"/><path d="M376.82,807c-3.24-20.25,3.23-110.91,10.33-114.79s14.22,3.66,26.49,5.6,19.6-1.51,20.25,0-10.13,10.77-16.37,11.63-22.18-9.91-23.26-7.11-.86,26.06,2.15,44.8,11,51,1.29,59.43S376.82,807,376.82,807Z" fill="#facebc"/><path d="M344.94,658.93s.29,4.6,10.91,4,18.09-.14,22.83-7.46-1.29-13.07-1.29-13.07,11.49,13.07,14.93,5.31-9.85-22-27.42-25.55c-21.68-4.45-28.29,1.43-28.29,1.43Z" fill="#e86100"/><path d="M70.4,736s20.78-31.44,26-48,14.6,2.61,14.48,7.78S86.3,798.07,60.92,802.7,70.4,736,70.4,736Z" fill="#3a5702"/><path d="M231.81,769.2c-20.39-13.79-45.26-3.28-62.89,6.89-9.83,5.67-21.25,1.43-61.74,10S63.54,799.35,63.25,798.2s8.36-11.51,6.89-50.83c-1.72-46.23-4.59-81.83-7.46-83.56s-13.5-8.32-14.36-4.3-1.44,49.1-6.89,85.85-12.06,50,.57,70.93c11.6,19.24,139,33.88,211.06,8.61S231.81,769.2,231.81,769.2Z" fill="#486b02"/><path d="M67.25,651.91s.93,3.07,2.38,6.72,3.34,7.72,5.44,10c.31.34.69.83,1.1,1.34,4.79,6.38,14.58,24.3,15.34,25.71s5.92-5,12.33-2.1,7.93,11.58,10.13,9.47,7.1-19.88,6.55-24.39c-.48-4-24.71-18.09-45.59-24.71-1.13-.31-2.24-.65-3.31-1C70.14,652.6,68.66,652.22,67.25,651.91Z" fill="#213302"/><path d="M69.63,658.63c1.41,3.62,3.34,7.72,5.44,10,.31.34.69.83,1.1,1.34,1.21-6.72.52-12.23-1.24-16-1.13-.31-2.24-.65-3.31-1C71.07,654.5,70.35,656.53,69.63,658.63Z" fill="#ccc" style="mix-blend-mode:multiply"/><path d="M1,638.33c14.29-6,64.39,1.72,70,12.92s-1.5,25.63-2.58,25-8.4-8-12.06-8.68-8.61,4.59-10.55,5.24c-2.73.9-6.46-10.13-15.29-16.16S-4.16,640.48,1,638.33Z" fill="#213302"/><path d="M241,788.43c9.48,13.79,6.62,36.18,7.2,38.49s52-15.5,70.33-23.57,37.91-23.53,50.55-37.9-2.38-35.73-10.34-64.88c-.86-3.17-26.11-3.45-32.14-.59-1.66.79-6.48,6.1-12.79,13.54C297.08,733.3,270,768.1,264.55,772.93c-6.27,5.55-29.32-5.2-37.94-8.31-1.65-.55-2.75-.86-3.13-.72C221.17,764.73,231.51,774.65,241,788.43Z" fill="#a6d64d"/><path d="M337.4,718.23c17.65,2.82,37.48,82.26,38.77,82.7s61.38-4.74,72.14-5.17,46.52,21.1,51.69,22.61-3.44,9.91-25.84,1.08S452,804.37,452,804.37s-24.77,13.35-47,17.88-29.51,11-34.46,7.75-32.3-32.74-41.13-64S321.25,715.64,337.4,718.23Z" fill="#ffd2c0"/><path d="M434.5,832.08h98.85a1.68,1.68,0,0,0,1.68-1.69h0a1.68,1.68,0,0,0-1.68-1.68H434.5a1.68,1.68,0,0,0-1.69,1.68h0A1.68,1.68,0,0,0,434.5,832.08Z" fill="#33466b"/><rect x="509.17" y="788.72" width="96.38" height="3.37" rx="1.64" transform="translate(1521.94 719.89) rotate(121.01)" fill="#33466b"/><path d="M287.64,671.86s20,14.51,30.46,12.48a14.88,14.88,0,0,0,2.86-.86c-5.62-1.42-9.24-7.34-8.75-11.79.55-5,6.48-16.43,6.41-24.08-2.69,5.41-5.17,10.37-7.69,13.47a4.7,4.7,0,0,1-.58.62C303.25,669.66,287.64,671.86,287.64,671.86Z" fill="#e6e6e6" style="mix-blend-mode:multiply"/><path d="M226.61,764.62c1.11,1.42,2.59,2.9,3.55,4.21,2.35,3.24,24.32,11.95,37,9.16,11.92-2.65,27.19-28.6,46.59-64.47C297.08,733.3,270,768.1,264.55,772.93,258.28,778.48,235.23,767.73,226.61,764.62Z" fill="#e6e6e6" style="mix-blend-mode:multiply"/><path d="M571.38,405.8h53.11a0,0,0,0,1,0,0v68.62a2,2,0,0,1-2,2h-49a2,2,0,0,1-2-2V405.8a0,0,0,0,1,0,0Z" transform="translate(-139.33 348.62) rotate(-29.27)" fill="#d4e1fa"/><path d="M570.65,390.83h-1.22c0-5.07,8-64.9,14.24-68.44h0a1.47,1.47,0,0,1,1.54,0l-.63,1c-.08-.05-.15-.07-.31,0h0C579.09,326.4,570.62,385,570.65,390.83Z" fill="#394f7a"/><path d="M569,389.32h0l0,0ZM582.23,413l-5.18-9.24a4.13,4.13,0,0,1-4-7.2L569,389.34l-11.46,34Z" fill="#d4e1fa"/><path d="M568.94,389.35l4,7.23a4.13,4.13,0,0,1,4,7.2l5.18,9.25,21.55-15.66Zm0,0h0Z" fill="#d4e1fa"/><path d="M593.27,462.08a1.12,1.12,0,0,1-.39.13,1.1,1.1,0,0,1-1.24-.95c-.07-.49-1.62-12.18,2.54-27.66,3.28-12.23,4.6-17.24,4.29-18.6a1.11,1.11,0,0,1,.84-1.32,1.09,1.09,0,0,1,1.32.83c.43,1.87-.46,5.33-4.31,19.66-4,15.05-2.51,26.67-2.49,26.79A1.12,1.12,0,0,1,593.27,462.08Z" fill="#394f7a"/><path d="M612.57,454.61a9.88,9.88,0,1,1,3.78-13.45A9.9,9.9,0,0,1,612.57,454.61ZM604,439.31a7.66,7.66,0,1,0,10.43,2.94A7.68,7.68,0,0,0,604,439.31Z" fill="#394f7a"/><path d="M588.79,438.78a6.37,6.37,0,1,1,2.44-8.67A6.38,6.38,0,0,1,588.79,438.78Zm-5.15-9.18a4.15,4.15,0,1,0,5.66,1.59A4.16,4.16,0,0,0,583.64,429.6Z" fill="#394f7a"/><path d="M571.74,397.69a4.17,4.17,0,0,0,3,2.35,2.87,2.87,0,0,0,1.6-.4,6.19,6.19,0,0,0,2-1.9l.09-.12a24.1,24.1,0,0,0,2.6-5.42s0,0,0-.06a75.89,75.89,0,0,0,2.48-8.6c5-21.34,8.21-54.81,2.06-60.87a1.94,1.94,0,0,0-.31-.26l-.7,1a.86.86,0,0,1,.18.14c5.29,5.22,3,36.38-2.42,59.7a74.06,74.06,0,0,1-2.46,8.53s0,0,0,.07a22.11,22.11,0,0,1-2.38,5l0,.06c-.62.9-1.57,2-2.56,1.9s-1.74-1.41-2.1-2.09Z" fill="#394f7a"/><path d="M709.23,360.88C702.5,331,678.49,253,648.58,251.73c-14.52-.47-35,18.4-63.79,108.81l-9.15-2.92c24.93-78.31,46.51-116.31,73.36-115.49C691.6,244,716,347,718.61,358.78Z" fill="#7aa5fa"/><ellipse cx="703.81" cy="842.29" rx="144.9" ry="28.55" fill="#e9d9ff" opacity="0.5"/><ellipse cx="521.82" cy="884.05" rx="74.26" ry="14.63" fill="#e3ebff" opacity="0.5"/><path d="M902.94,757.88a129.93,129.93,0,0,1-1.79,27.47l-3-3.65-9.45-11.32s.68-7.49.68-9.53-.68-7.49-.68-7.49-2.94,11.57-3.84,11.57-15.65-10.21-18.62-11.57-17.45.44-22-6.8-39.69-60.14-39.69-60.14-2-17.73-3.76-31.88c-1.06-8.63-2-15.93-2.37-17.13-.92-3.16-9-41.79-3.64-51.26,4.41-7.76,13.88-12.33,23.44-12.44a27.91,27.91,0,0,1,3.78.19c13.23,1.52,35,9.53,49.93,58.53,13.31,43.53,20.15,62,24.53,70.51.57,1.09,1.06,2,1.55,2.78,4.17,6.8,15.38,15.95,16.09,16.52-.73-.21-12.44-3.86-19.27-12.68-7-9.07-10.89-14.73-10.89-14.73s.79,13.07,5,21.32C894.34,726.82,902.26,743.15,902.94,757.88Z" fill="#3a0982"/><path d="M844.87,650c.36,1.53-18.89,5.45-18.89,5.45s-.27-3.57-.79-7.87c-.68-5.66-1.77-12.66-3.1-14.59,0,0,.08-.47.27-1.17.76-3.08,3.24-10.87,8.06-7.68a9,9,0,0,1,1.69,1.47c.49.52,1,1.12,1.49,1.77C838.91,634.39,844.57,648.68,844.87,650Z" fill="#ffcab0"/><path d="M832.11,625.57a75.4,75.4,0,0,0-9.75,6.21c-.19.7-.27,1.17-.27,1.17,1.33,1.93,2.42,8.93,3.1,14.59,3-4.93,7.51-14.21,8.41-20.2Z" fill="#e6e6e6" style="mix-blend-mode:multiply"/><path d="M791.11,612.47c0,16.1,7.29,35.18,16.67,37.49,11.74,2.89,29.38-24.56,27.34-31.82S817.65,590.91,811.3,590s-15.66,8.62-17,12.25S791.11,612.47,791.11,612.47Z" fill="#ffcab0"/><path d="M813.91,734.52s-11.06-14.63-25.19-22.12-17.18-11.4-18.71-15-7.32-15.15-9.53-17.36-17-18.2-17.7-18.2,7,28.58,13.1,37.09,49.86,55.47,56.83,52.41S813.91,734.52,813.91,734.52Z" fill="#ffcab0"/><path d="M764.82,684.53c0-3.66-.94-7.66-2.56-8.09s-4.08-.59-4.59-.08S764.82,684.53,764.82,684.53Z" fill="#ffcab0"/><path d="M888.65,770.38s.68-7.49.68-9.53-.68-7.49-.68-7.49-2.94,11.57-3.84,11.57-15.65-10.21-18.62-11.57-17.45.44-22-6.8-39.69-60.14-39.69-60.14-2-17.73-3.76-31.88c12.17,23.41,33.76,58.58,54.34,70.92,21.21,12.68,39.7,22.43,43,56.24Z" fill="#ccc" style="mix-blend-mode:multiply"/><path d="M912.25,838.19c-13.83-2.47-21.78,5.91-28.58,2.29s-11.79-4.76-14.08-18.38-5.2-57.17-3.84-74.86c.85-11.11-1.76-26.58-3.67-38.2-.14-.74-.25-1.47-.38-2.18-.93-5.91-1.61-10.53-1.39-12.71.44-4.22,4.11-13.15,6.7-19.06,0,0,0,0,0,0,.55-1.25,1-2.34,1.45-3.26l1.11-2.4c.19.33.41.68.6,1l.85,1.47c.24.46.49.89.73,1.38,0,0,0,0,0,.06.24.46.49.92.73,1.41,6.89,13.37,14.27,34.33,12.5,59.3-2,28.58-10,89.62-6.34,93.24s14-4.3,19.49-3.62,28.58,12.93,30.87,13.61S926.08,840.7,912.25,838.19Z" fill="#ffcab0"/><path d="M832.79,863.84c-1.09-1.34-9.72-5.72-17.13-8.71-4-1.61-7.68-2.81-9.58-2.86,0,0-16.28-12.09-26.22-20.75-4.65-4-7.92-7.38-7.48-8.36,1.36-3,2.72-1.17,12.44,1.56s30.27,18.35,34.19,19.22,12.93-.36,15.65.84S834.5,865.88,832.79,863.84Z" fill="#ffcab0"/><path d="M860.07,884.56a49.91,49.91,0,0,1-3.71,13.23c-1.47,3.05-2.91,4.33-3.67,3.37-1.47-1.85-10.67-22.65-13.94-26.9s-11.9-10.72-11.11-11.7,6.67-6.78,5.88-11.38-6.34-9.72-6-10.73,26,3.95,28.45,9.75c0,.08.08.16.11.24C858.57,856.46,861.86,872.9,860.07,884.56Z" fill="#6c50cc"/><path d="M800.63,771.73c-44.92-.46-115.93,13.16-120.46,27S826.72,826,829,823.91,800.63,771.73,800.63,771.73Z" fill="#907ae0"/><path d="M815.66,855.13c-4-1.61-7.68-2.81-9.58-2.86,0,0-16.28-12.09-26.22-20.75.95-4.38,2-7.62,2-7.62C788.11,825.53,810.33,839.12,815.66,855.13Z" fill="#e6e6e6" style="mix-blend-mode:multiply"/><path d="M679.26,808c.68,11.8,5.44,24.27,33.58,30.85s100.95,17.93,100.95,15.43-24.49-28.42-32.67-31.76c-29-11.86-42.93-17.75-62.84-18.38C687.43,803.2,679.26,808,679.26,808Z" fill="#a58cff"/><path d="M695.25,800.92V801c-.46,2.26-15.87,14-18.16,18.82s-2.72,8.27-5.45,11.35-21.53-6.34-16.77-8.28c3-1.25,7.71-5.42,11.68-9.47.47-.46.9-.93,1.34-1.39,1.2-1.28,2.31-2.5,3.24-3.57.3-.35.62-.7,1-1.11a119.73,119.73,0,0,1,11-7.46,24.76,24.76,0,0,1,5.14-2.43c3.54-1,5.75-.05,6.62,1.39A2.82,2.82,0,0,1,695.25,800.92Z" fill="#ffcab0"/><path d="M679.59,824.14c.58.85-8.63,19.47-12.79,21.27a1.12,1.12,0,0,1-.57.16c-3.81.11-27.34-1.36-38.06-9.75a47.34,47.34,0,0,1-6.1-5.66c-5.66-6.34-7.05-11.92-6.32-13.5,1-2,14.57,3.16,24,4s17.42-4.31,17.53-3.73c.35,1.6-1.06,7.7,5.15,9.52S679,823.22,679.59,824.14Z" fill="#6c50cc"/><path d="M839,616.44c-16.68,17.12-34-17.47-34-17.47s-4.08,21.55-14,18,1.42-32,7.26-34.82c7.31-3.48,23.37,2.27,26,6.12S839,616.44,839,616.44Z" fill="#3a0982"/><path d="M867.36,698.4c-2.48,3.43-4.3,6.23-5.66,8.46-.93-5.91-1.61-10.53-1.39-12.71.44-4.22,4.11-13.15,6.7-19.06,0,0,0,0,0,0,.55-1.25,1-2.34,1.45-3.26.73-.57,1.33-1,1.71-1.36,0,0,.06,0,.08-.06.33-.22.49-.35.49-.35.36,1,.71,2.07,1,3.21v0s0,0,0,.06C873.7,680.05,874.33,688.76,867.36,698.4Z" fill="#e6e6e6" style="mix-blend-mode:multiply"/><path d="M852.82,757.88c7,25.18,5.5,48.38.74,58.15-.76,1.55-2.56,1-5-1.14-13-11-44.46-63.95-40.65-64.71,4.52-.9,2.26-33.35,2-35.18s-9.52-12.68-9.31-22.21S820,654,826.5,651c1.36-.62,15.3-6.5,26.38-3.62s14.45,10.89,18.76,23.61S863,699.59,856.91,706.4a23.53,23.53,0,0,0-4.09,7C849.07,722.92,847.46,738.77,852.82,757.88Z" fill="#f9acff"/><path d="M697.34,798.66a21.34,21.34,0,0,1-2.09,2.26c-6.51,6.18-18.51,11.19-27.36,11.11,1.2-1.28,2.31-2.5,3.24-3.57.3-.35.62-.7,1-1.11a119.73,119.73,0,0,1,11-7.46c3.7-.36,8.76-.79,11.76-1Z" fill="#e6e6e6" style="mix-blend-mode:multiply"/><path d="M853.56,816c-.76,1.55-2.56,1-5-1.14-5-11.93-10-28.48-8.9-29.32,1.82-1.36,9.53,6.34,11.81,0s-11.27-57.85,1.36-72.15c-3.75,9.5-5.36,25.35,0,44.46C859.85,783.06,858.32,806.26,853.56,816Z" fill="#e6e6e6" style="mix-blend-mode:multiply"/><path d="M828,831.69c-17.2-1.5-38.19-13.21-57.33-46.8-2.26-4-4.36-7.9-6.26-11.68-14.32-28.4-19.14-50.72-19.71-53.53a65.94,65.94,0,0,1-2.4,26.41,77,77,0,0,1-9.12,19.11,126.92,126.92,0,0,1-20.15,23.55c-17.91,16.72-47.39,23.58-45.35,20.42s16.09-22.7,35.61-63.3,27.9-58.31,42-56.27,99.12,76.86,108.65,119.79C856.12,819.08,849.64,833.54,828,831.69Z" fill="#a58cff"/><path d="M770.55,693h0a1.48,1.48,0,0,1-2.08-.18L735.71,654a1.48,1.48,0,0,1,.18-2.08h0a1.47,1.47,0,0,1,2.08.17L770.72,691A1.47,1.47,0,0,1,770.55,693Z" fill="#33466b"/><path d="M896.41,702.94c-8.33-8.33-21.7-27.77-32.26-63.92-13.8-47.32-30.3-58.51-46-65.31a27.91,27.91,0,0,1,3.78.19c13.23,1.52,35,9.53,49.93,58.53C885.19,676,892,694.42,896.41,702.94Z" fill="#d9d9d9" style="mix-blend-mode:soft-light"/><path d="M860.07,884.56a49.91,49.91,0,0,1-3.71,13.23c-2.26-4.88-3.78-13.81-3.78-24,0-9.77,1.39-18.34,3.51-23.33C858.57,856.46,861.86,872.9,860.07,884.56Z" fill="#e6e6e6" style="mix-blend-mode:multiply"/><path d="M666.8,845.41a1.12,1.12,0,0,1-.57.16c-3.81.11-27.34-1.36-38.06-9.75a47.34,47.34,0,0,1-6.1-5.66,105.4,105.4,0,0,1,19.9,4.09C652.59,837.43,661.63,841.6,666.8,845.41Z" fill="#e6e6e6" style="mix-blend-mode:multiply"/><path d="M744.72,719.68a65.94,65.94,0,0,1-2.4,26.41,77,77,0,0,1-9.12,19.11c5.66-15.3,9.41-48.47,10.09-52.88.75-4.88,19.61,46.92,21.14,60.89C750.11,744.81,745.29,722.49,744.72,719.68Z" fill="#e6e6e6" style="mix-blend-mode:multiply"/><path d="M537.43,575.62a28.75,28.75,0,0,1-2.3,10.87c-.38.92-.75,1.83-1,2.5-4.8,12.26-11.36,29-27.27,31.84-1.46.25-6.9.95-8.73,1-22.34,1.14-54.34,2.25-61.32-3.26-3.51-2.78-5.11-14-5-25.53-.05-6.86-.24-22.18,8.89-35,9.66-13.53,69.66-7.7,81.88-2.61C532.37,559.57,537.4,565.35,537.43,575.62Z" fill="#ffe1e0"/><path d="M431.9,622.69a6.2,6.2,0,1,0-6.19,6.2A6.2,6.2,0,0,0,431.9,622.69Z" fill="#ffe1e0"/><path d="M418.61,633.05a4.24,4.24,0,1,0-4.24,4.24A4.24,4.24,0,0,0,418.61,633.05Z" fill="#ffe1e0"/><path d="M471.37,603.67a.72.72,0,0,1-.31-1.36l7.91-3.84-14.38-33-7.47-.08a.72.72,0,0,1,0-1.43h7.32a1.59,1.59,0,0,1,1.46.94l14.44,32.84a1.51,1.51,0,0,1-.75,2l-7.91,3.84A.67.67,0,0,1,471.37,603.67Z" fill="#394f7a"/><rect x="486.43" y="593.7" width="1.47" height="14.7" transform="translate(-233.7 882.02) rotate(-72.27)" fill="#394f7a"/><path d="M498.72,592.5H477.15a.73.73,0,1,1,0-1.46h21.57l4.07-14v-.91l-.1.73-34.1-4.67a.73.73,0,0,1,.2-1.45l34.1,4.67a1.59,1.59,0,0,1,1.32,2l-3.94,13.87A1.61,1.61,0,0,1,498.72,592.5Z" fill="#394f7a"/><path d="M500.4,587.39H475.06a.49.49,0,0,1,0-1H500.4a.49.49,0,0,1,0,1Z" fill="#394f7a"/><path d="M502.26,582h0l-29.43-1.17a.53.53,0,0,1-.51-.54.54.54,0,0,1,.55-.51L502.28,581a.53.53,0,0,1,.51.54A.54.54,0,0,1,502.26,582Z" fill="#394f7a"/><path d="M482,591.89a.53.53,0,0,1-.53-.53V573.53A.52.52,0,0,1,482,573a.52.52,0,0,1,.52.52v17.83A.52.52,0,0,1,482,591.89Z" fill="#394f7a"/><path d="M491.75,591.88h0a.5.5,0,0,1-.47-.54l1.3-16.33a.52.52,0,0,1,.55-.46.5.5,0,0,1,.46.54l-1.3,16.33A.5.5,0,0,1,491.75,591.88Z" fill="#394f7a"/><circle cx="470.39" cy="603.17" r="3.01" fill="#394f7a"/><circle cx="495.71" cy="603.17" r="3.01" fill="#394f7a"/><path d="M313.68,214.15a1.86,1.86,0,0,1-1.86,1.8H254.08V160.78a1.87,1.87,0,0,1,2.06-1.86c6.7.73,28.16,3.86,41.09,15.16a31.62,31.62,0,0,1,6.09,7,78,78,0,0,1,5.09,9.51C313.46,201.9,313.82,210.57,313.68,214.15Z" fill="#c3b8ff"/><path d="M254.25,200.21V216H159a2.81,2.81,0,0,1-2.8-2.8V203a2.8,2.8,0,0,1,2.8-2.8Z" fill="#c3b8ff"/><path d="M161.6,142.56h87.77a5.35,5.35,0,0,1,5.35,5.35V201a0,0,0,0,1,0,0H161.6a5.35,5.35,0,0,1-5.35-5.35V147.91A5.35,5.35,0,0,1,161.6,142.56Z" fill="#ad9eff"/><path d="M308.41,190.61l-37.79-7.07a1.26,1.26,0,0,1-1-1.24v-7a1.25,1.25,0,0,1,1.26-1.25h26.38a31.62,31.62,0,0,1,6.09,7A78,78,0,0,1,308.41,190.61Z" fill="#e6e0ff"/><path d="M207.8,216H175.69a16.13,16.13,0,0,1,32.11,0Z" fill="#a18fff"/><path d="M293,216H260.86A16.13,16.13,0,0,1,293,216Z" fill="#a18fff"/><circle cx="276.92" cy="217.46" r="12.09" fill="#b9adff"/><circle cx="191.75" cy="217.46" r="12.09" fill="#b9adff"/><path d="M560.05,166.43a7.12,7.12,0,0,1-7.07,7.14l-22.07.11-14.33.07-21.66.09a7.12,7.12,0,0,1-7.14-7.07l-.21-52.55v-1.63l0-4.65a7.1,7.1,0,0,1,7.07-7.14l21.65-.09,14.33-.07,22.07-.11a7.11,7.11,0,0,1,7.14,7.06l0,4.63v1.61L560,148.6v3.31Z" fill="#ad9eff"/><path d="M548.71,79c0,.59-11.19,7.69-13.14,9.94-.55.65-1.2,1.44-1.87,2.28-1.65,2.13-3.36,4.46-3.46,4.6a45.24,45.24,0,0,1-6-.39l-3.09-.33c.13-.34.42-1.45.8-3.08.61-2.35,1.41-5.72,2.26-9.33,2.08-8.63,4.45-18.47,4.81-18.24.6.37,6.41,6.9,8.5,8.45S548.65,78.43,548.71,79Z" fill="#dad1ff"/><path d="M526.35,84.74s-.32,3.65-.87,6.73a22.34,22.34,0,0,1-.77,3.3,1.52,1.52,0,0,1-.43.62c-2,1.79-9.07.21-9.53-1a2.64,2.64,0,0,0-.76-.7c-3.32-2.23-16.11-8.1-16.1-8.54s3.09-2.3,6.33-4.67,9.92-10.75,10.58-10.74,3.94,7.1,9.45,12.91C524.92,83.37,525.63,84.07,526.35,84.74Z" fill="#dad1ff"/><path d="M559.83,113.83s0,0-.05,0a3.65,3.65,0,0,1-1.24.24l-27.95.13-14.32.07-27.63.12a3.13,3.13,0,0,1-1.07-.2v-1.63l0-4.65a7.1,7.1,0,0,1,7.07-7.14l21.65-.09,14.33-.07,22.07-.11a7.11,7.11,0,0,1,7.14,7.06l0,4.63Z" fill="#e6e6e6" style="mix-blend-mode:multiply"/><path d="M533.7,91.18c-1.65,2.13-3.36,4.46-3.46,4.6a45.24,45.24,0,0,1-6-.39c-2,1.79-9.07.21-9.53-1a2.64,2.64,0,0,0-.76-.7c1.93-.54,4.89-1.19,8-1.71,1.15-.19,2.34-.36,3.49-.51A32.8,32.8,0,0,1,533.7,91.18Z" fill="#e6e6e6" style="mix-blend-mode:multiply"/><path d="M562.28,108.73a3.79,3.79,0,0,1-3.71,3.74l-27.94.13-14.33.07-27.63.11a3.12,3.12,0,0,1-1.11-.19,3.68,3.68,0,0,1-2.61-3.51l-.06-11.19a3.72,3.72,0,0,1,3.7-3.72L516.22,94,530.55,94l27.94-.13a3.73,3.73,0,0,1,3.73,3.7Z" fill="#b5b3ff"/><polygon points="530.91 173.7 516.58 173.77 516.3 112.67 516.25 100.71 516.22 94.01 530.55 93.94 530.58 100.64 530.63 112.6 530.91 173.7" fill="#dad1ff"/><path d="M774.25,209.79c-10.94,0-14.77-11-15.83-15.24a1.2,1.2,0,0,0-1.79-.73L724.15,213.4a1.2,1.2,0,0,0-.47,1.54l7.16,15.36a1.22,1.22,0,0,0,1.29.69l16.08-2.58a1.19,1.19,0,0,1,1.13.43c2.2,2.75,11.82,15.09,11.23,20s-24.46,46.33-29.8,55.55a1.21,1.21,0,0,0,1.05,1.81h45.93Z" fill="#b5b3ff"/><path d="M773.75,209.79c10.93,0,14.76-11,15.82-15.24a1.21,1.21,0,0,1,1.8-.73l32.47,19.58a1.2,1.2,0,0,1,.47,1.54l-7.16,15.36a1.22,1.22,0,0,1-1.29.69l-16.08-2.58a1.19,1.19,0,0,0-1.13.43c-2.2,2.75-11.82,15.09-11.23,20s24.46,46.33,29.8,55.55a1.21,1.21,0,0,1-1.05,1.81H770.24Z" fill="#b5b3ff"/><circle cx="707.38" cy="87.8" r="24.27" fill="#e3ebff" opacity="0.5"/><circle cx="304.08" cy="322.64" r="17.85" transform="translate(-139.08 309.52) rotate(-45)" fill="#fff" opacity="0.5"/></g></g></g></svg>