<svg xmlns="http://www.w3.org/2000/svg" xmlns:xlink="http://www.w3.org/1999/xlink" viewBox="0 0 109.38 144.87"><defs><linearGradient id="Degradado_sin_nombre_3" x1="27.41" y1="98.62" x2="77.01" y2="98.62" gradientUnits="userSpaceOnUse"><stop offset="0.03" stop-color="#ffd01f"/><stop offset="1" stop-color="#e79f03"/></linearGradient><linearGradient id="Degradado_sin_nombre_3-2" x1="27.41" y1="81.29" x2="77.01" y2="81.29" xlink:href="#Degradado_sin_nombre_3"/><linearGradient id="Degradado_sin_nombre_3-3" x1="27.41" y1="63.95" x2="77.01" y2="63.95" xlink:href="#Degradado_sin_nombre_3"/><linearGradient id="Degradado_sin_nombre_3-4" x1="27.41" y1="46.61" x2="77.01" y2="46.61" xlink:href="#Degradado_sin_nombre_3"/><linearGradient id="Degradado_sin_nombre_3-5" x1="27.41" y1="29.27" x2="77.01" y2="29.27" xlink:href="#Degradado_sin_nombre_3"/></defs><g style="isolation:isolate"><g id="Layer_2" data-name="Layer 2"><g id="OBJECTS"><path d="M15.76,135.27c21.18,12.49,56,12.84,77.43.78,11-6.17,16.36-14.45,16.19-22.74,0-1.58,0-12.4,0-12.4s-7.46-4.65-15.73-9.54c-21.16-12.51-56-12.86-77.44-.78C6.63,96,0,100.49,0,100.49s0,11.79,0,12.82C.16,121.24,5.4,129.16,15.76,135.27Z" fill="#fdb600"/><path d="M15.76,122.87c21.18,12.49,56,12.84,77.43.78s21.62-32.17.46-44.69-56-12.86-77.44-.77S-5.42,110.38,15.76,122.87Z" fill="#ffd01f"/><path d="M55.36,122c-13.1,0-25.7-2.83-34.56-8.24-7-4.25-10.92-9.34-10.87-14.2S14,89.6,21.09,85.49c8.64-5.06,20.36-7.8,33-7.8,13.09,0,25.68,3.12,34.53,8.55,7,4.26,10.91,9.5,10.86,14.38s-4.11,9.73-11.14,13.84c-8.63,5-20.34,7.54-33,7.54Z" opacity="0.48" style="mix-blend-mode:soft-light"/><path d="M21.09,89.21c8.64-5,20.36-7.8,33-7.8,13.09,0,25.68,3.13,34.53,8.55,6,3.7,9.8,8.13,10.66,12.42a8.79,8.79,0,0,0,.2-1.76c.05-4.87-3.91-10.12-10.86-14.38-8.85-5.42-21.44-8.55-34.53-8.55-12.62,0-24.34,2.75-33,7.8C14,89.61,10,94.7,9.93,99.57a9.18,9.18,0,0,0,.19,1.94C11,97.2,14.9,92.83,21.09,89.21Z" opacity="0.48" style="mix-blend-mode:soft-light"/><g opacity="0.57" style="mix-blend-mode:soft-light"><path d="M70.46,99.71a3.31,3.31,0,0,0-.29-1.29,9.73,9.73,0,0,0-.94-1.68,12.91,12.91,0,0,0-1.6-1.85,14.41,14.41,0,0,0-2.26-1.8l-9.31,5.32.73.63a36.43,36.43,0,0,1,3.35,3.44,8.32,8.32,0,0,1,1.76,3,3.56,3.56,0,0,1-.32,2.74,7.24,7.24,0,0,1-2.86,2.55,14.94,14.94,0,0,1-5,1.81,19.26,19.26,0,0,1-5.32.16A24.94,24.94,0,0,1,43,111.59a31.88,31.88,0,0,1-5.18-2.29L33.12,112l-2.49-1.44,4.81-2.76a24.77,24.77,0,0,1-5.28-4.52,12.79,12.79,0,0,1-2.75-5l6.77-1.06a4.08,4.08,0,0,0,.36,1.55,10.44,10.44,0,0,0,1.13,2,16.77,16.77,0,0,0,1.9,2.29,20.27,20.27,0,0,0,2.7,2.29c3.72-2.14,5.59-3.2,9.31-5.33a6.08,6.08,0,0,0-.44-.44,6,6,0,0,1-.44-.43,33.85,33.85,0,0,1-3.09-3.32,6.66,6.66,0,0,1-1.44-2.77,3.3,3.3,0,0,1,.44-2.41,7.07,7.07,0,0,1,2.58-2.21,15.51,15.51,0,0,1,4.73-1.76,21.07,21.07,0,0,1,5.24-.37,25.51,25.51,0,0,1,5.38.89,29.85,29.85,0,0,1,5.23,2l4.54-2.6,2.47,1.43-4.54,2.6a18.69,18.69,0,0,1,4.54,4,12.8,12.8,0,0,1,2.23,4ZM53.57,91.28c-1.26.72-1.73,1.54-1.42,2.44a9.87,9.87,0,0,0,2.6,3.42l8.86-5.07A13.87,13.87,0,0,0,58,90.32,8,8,0,0,0,53.57,91.28ZM52.45,107.8c1.31-.75,1.75-1.65,1.31-2.68a13.13,13.13,0,0,0-2.87-3.74L42,106.47a16.54,16.54,0,0,0,5.79,2.11A7.18,7.18,0,0,0,52.45,107.8Z"/><path d="M70.46,99.71a3.31,3.31,0,0,0-.29-1.29,9.73,9.73,0,0,0-.94-1.68,12.91,12.91,0,0,0-1.6-1.85,14.41,14.41,0,0,0-2.26-1.8l-9.31,5.32.73.63a36.43,36.43,0,0,1,3.35,3.44,8.32,8.32,0,0,1,1.76,3,3.56,3.56,0,0,1-.32,2.74,7.24,7.24,0,0,1-2.86,2.55,14.94,14.94,0,0,1-5,1.81,19.26,19.26,0,0,1-5.32.16A24.94,24.94,0,0,1,43,111.59a31.88,31.88,0,0,1-5.18-2.29L33.12,112l-2.49-1.44,4.81-2.76a24.77,24.77,0,0,1-5.28-4.52,12.79,12.79,0,0,1-2.75-5l6.77-1.06a4.08,4.08,0,0,0,.36,1.55,10.44,10.44,0,0,0,1.13,2,16.77,16.77,0,0,0,1.9,2.29,20.27,20.27,0,0,0,2.7,2.29c3.72-2.14,5.59-3.2,9.31-5.33a6.08,6.08,0,0,0-.44-.44,6,6,0,0,1-.44-.43,33.85,33.85,0,0,1-3.09-3.32,6.66,6.66,0,0,1-1.44-2.77,3.3,3.3,0,0,1,.44-2.41,7.07,7.07,0,0,1,2.58-2.21,15.51,15.51,0,0,1,4.73-1.76,21.07,21.07,0,0,1,5.24-.37,25.51,25.51,0,0,1,5.38.89,29.85,29.85,0,0,1,5.23,2l4.54-2.6,2.47,1.43-4.54,2.6a18.69,18.69,0,0,1,4.54,4,12.8,12.8,0,0,1,2.23,4ZM53.57,91.28c-1.26.72-1.73,1.54-1.42,2.44a9.87,9.87,0,0,0,2.6,3.42l8.86-5.07A13.87,13.87,0,0,0,58,90.32,8,8,0,0,0,53.57,91.28ZM52.45,107.8c1.31-.75,1.75-1.65,1.31-2.68a13.13,13.13,0,0,0-2.87-3.74L42,106.47a16.54,16.54,0,0,0,5.79,2.11A7.18,7.18,0,0,0,52.45,107.8Z"/></g><path d="M70.46,98.71a3.31,3.31,0,0,0-.29-1.29,9.73,9.73,0,0,0-.94-1.68,12.91,12.91,0,0,0-1.6-1.85,14.41,14.41,0,0,0-2.26-1.8l-9.31,5.32.73.63a36.43,36.43,0,0,1,3.35,3.44,8.32,8.32,0,0,1,1.76,3,3.56,3.56,0,0,1-.32,2.74,7.24,7.24,0,0,1-2.86,2.55,14.94,14.94,0,0,1-5,1.81,19.26,19.26,0,0,1-5.32.16A24.94,24.94,0,0,1,43,110.59a31.88,31.88,0,0,1-5.18-2.29L33.12,111l-2.49-1.44,4.81-2.76a24.77,24.77,0,0,1-5.28-4.52,12.79,12.79,0,0,1-2.75-5l6.77-1.06a4.08,4.08,0,0,0,.36,1.55,10.44,10.44,0,0,0,1.13,2,16.77,16.77,0,0,0,1.9,2.29,20.27,20.27,0,0,0,2.7,2.29c3.72-2.14,5.59-3.2,9.31-5.33a6.08,6.08,0,0,0-.44-.44,6,6,0,0,1-.44-.43,33.85,33.85,0,0,1-3.09-3.32,6.66,6.66,0,0,1-1.44-2.77,3.3,3.3,0,0,1,.44-2.41,7.07,7.07,0,0,1,2.58-2.21,15.51,15.51,0,0,1,4.73-1.76,21.07,21.07,0,0,1,5.24-.37,25.51,25.51,0,0,1,5.38.89,29.85,29.85,0,0,1,5.23,2l4.54-2.6,2.47,1.43-4.54,2.6a18.69,18.69,0,0,1,4.54,4,12.8,12.8,0,0,1,2.23,4ZM53.57,90.28c-1.26.72-1.73,1.54-1.42,2.44a9.87,9.87,0,0,0,2.6,3.42l8.86-5.07A13.87,13.87,0,0,0,58,89.32,8,8,0,0,0,53.57,90.28ZM52.45,106.8c1.31-.75,1.75-1.65,1.31-2.68a13.13,13.13,0,0,0-2.87-3.74L42,105.47a16.54,16.54,0,0,0,5.79,2.11A7.18,7.18,0,0,0,52.45,106.8Z" fill="url(#Degradado_sin_nombre_3)"/><path d="M70.46,98.71a3.31,3.31,0,0,0-.29-1.29,9.73,9.73,0,0,0-.94-1.68,12.91,12.91,0,0,0-1.6-1.85,14.41,14.41,0,0,0-2.26-1.8l-9.31,5.32.73.63a36.43,36.43,0,0,1,3.35,3.44,8.32,8.32,0,0,1,1.76,3,3.56,3.56,0,0,1-.32,2.74,7.24,7.24,0,0,1-2.86,2.55,14.94,14.94,0,0,1-5,1.81,19.26,19.26,0,0,1-5.32.16A24.94,24.94,0,0,1,43,110.59a31.88,31.88,0,0,1-5.18-2.29L33.12,111l-2.49-1.44,4.81-2.76a24.77,24.77,0,0,1-5.28-4.52,12.79,12.79,0,0,1-2.75-5l6.77-1.06a4.08,4.08,0,0,0,.36,1.55,10.44,10.44,0,0,0,1.13,2,16.77,16.77,0,0,0,1.9,2.29,20.27,20.27,0,0,0,2.7,2.29c3.72-2.14,5.59-3.2,9.31-5.33a6.08,6.08,0,0,0-.44-.44,6,6,0,0,1-.44-.43,33.85,33.85,0,0,1-3.09-3.32,6.66,6.66,0,0,1-1.44-2.77,3.3,3.3,0,0,1,.44-2.41,7.07,7.07,0,0,1,2.58-2.21,15.51,15.51,0,0,1,4.73-1.76,21.07,21.07,0,0,1,5.24-.37,25.51,25.51,0,0,1,5.38.89,29.85,29.85,0,0,1,5.23,2l4.54-2.6,2.47,1.43-4.54,2.6a18.69,18.69,0,0,1,4.54,4,12.8,12.8,0,0,1,2.23,4ZM53.57,90.28c-1.26.72-1.73,1.54-1.42,2.44a9.87,9.87,0,0,0,2.6,3.42l8.86-5.07A13.87,13.87,0,0,0,58,89.32,8,8,0,0,0,53.57,90.28ZM52.45,106.8c1.31-.75,1.75-1.65,1.31-2.68a13.13,13.13,0,0,0-2.87-3.74L42,105.47a16.54,16.54,0,0,0,5.79,2.11A7.18,7.18,0,0,0,52.45,106.8Z" fill="#ffd74c"/><path d="M15.76,117.94c21.18,12.49,56,12.84,77.43.77,11-6.17,16.36-14.45,16.19-22.73,0-1.58,0-12.41,0-12.41S101.92,78.92,93.65,74c-21.16-12.51-56-12.86-77.44-.77C6.63,78.66,0,83.15,0,83.15S0,94.94,0,96C.16,103.9,5.4,111.83,15.76,117.94Z" fill="#fdb600"/><path d="M15.76,105.53c21.18,12.49,56,12.84,77.43.78s21.62-32.17.46-44.68-56-12.86-77.44-.78S-5.42,93,15.76,105.53Z" fill="#ffd01f"/><path d="M55.36,105c-13.1,0-25.7-3-34.56-8.41-7-4.25-10.92-9.42-10.87-14.28s4.11-10,11.16-14.12c8.64-5,20.36-7.82,33-7.82,13.09,0,25.68,3.12,34.53,8.54,7,4.26,10.91,9.5,10.86,14.38s-4.11,9.9-11.14,14c-8.63,5-20.34,7.71-33,7.71Z" opacity="0.48" style="mix-blend-mode:soft-light"/><path d="M21.09,71.87c8.64-5.05,20.36-7.8,33-7.8,13.09,0,25.68,3.13,34.53,8.55,6,3.7,9.8,8.13,10.66,12.43a8.89,8.89,0,0,0,.2-1.77c.05-4.87-3.91-10.12-10.86-14.38-8.85-5.42-21.44-8.55-34.53-8.55-12.62,0-24.34,2.75-33,7.8C14,72.27,10,77.36,9.93,82.23a9.18,9.18,0,0,0,.19,1.94C11,79.86,14.9,75.49,21.09,71.87Z" opacity="0.48" style="mix-blend-mode:soft-light"/><g opacity="0.57" style="mix-blend-mode:soft-light"><path d="M70.46,82.37a3.31,3.31,0,0,0-.29-1.29,10.53,10.53,0,0,0-.94-1.68,12.91,12.91,0,0,0-1.6-1.85,15.67,15.67,0,0,0-2.26-1.8l-9.31,5.33.73.62a37.67,37.67,0,0,1,3.35,3.44,8.32,8.32,0,0,1,1.76,3,3.56,3.56,0,0,1-.32,2.74,7.17,7.17,0,0,1-2.86,2.55,15,15,0,0,1-5,1.82,20.07,20.07,0,0,1-5.32.16A25,25,0,0,1,43,94.25,31.88,31.88,0,0,1,37.84,92l-4.72,2.7-2.49-1.44,4.81-2.75A25.06,25.06,0,0,1,30.16,86a12.9,12.9,0,0,1-2.75-5l6.77-1.06a4.16,4.16,0,0,0,.36,1.56,10.73,10.73,0,0,0,1.13,2,17.39,17.39,0,0,0,1.9,2.29,20.23,20.23,0,0,0,2.7,2.28l9.31-5.33a6,6,0,0,0-.44-.43,6.08,6.08,0,0,1-.44-.44,35,35,0,0,1-3.09-3.31,6.72,6.72,0,0,1-1.44-2.77,3.33,3.33,0,0,1,.44-2.42,7,7,0,0,1,2.58-2.2,15.79,15.79,0,0,1,4.73-1.77,20.61,20.61,0,0,1,5.24-.36,24.29,24.29,0,0,1,5.38.89,29,29,0,0,1,5.23,2l4.54-2.6,2.47,1.43-4.54,2.6a18.71,18.71,0,0,1,4.54,4,12.76,12.76,0,0,1,2.23,4ZM53.57,74c-1.26.72-1.73,1.53-1.42,2.43a9.87,9.87,0,0,0,2.6,3.42l8.86-5.07A13.87,13.87,0,0,0,58,73,8,8,0,0,0,53.57,74ZM52.45,90.47c1.31-.76,1.75-1.65,1.31-2.68A13.29,13.29,0,0,0,50.89,84L42,89.14a16.5,16.5,0,0,0,5.79,2.1A7.24,7.24,0,0,0,52.45,90.47Z"/><path d="M70.46,82.37a3.31,3.31,0,0,0-.29-1.29,10.53,10.53,0,0,0-.94-1.68,12.91,12.91,0,0,0-1.6-1.85,15.67,15.67,0,0,0-2.26-1.8l-9.31,5.33.73.62a37.67,37.67,0,0,1,3.35,3.44,8.32,8.32,0,0,1,1.76,3,3.56,3.56,0,0,1-.32,2.74,7.17,7.17,0,0,1-2.86,2.55,15,15,0,0,1-5,1.82,20.07,20.07,0,0,1-5.32.16A25,25,0,0,1,43,94.25,31.88,31.88,0,0,1,37.84,92l-4.72,2.7-2.49-1.44,4.81-2.75A25.06,25.06,0,0,1,30.16,86a12.9,12.9,0,0,1-2.75-5l6.77-1.06a4.16,4.16,0,0,0,.36,1.56,10.73,10.73,0,0,0,1.13,2,17.39,17.39,0,0,0,1.9,2.29,20.23,20.23,0,0,0,2.7,2.28l9.31-5.33a6,6,0,0,0-.44-.43,6.08,6.08,0,0,1-.44-.44,35,35,0,0,1-3.09-3.31,6.72,6.72,0,0,1-1.44-2.77,3.33,3.33,0,0,1,.44-2.42,7,7,0,0,1,2.58-2.2,15.79,15.79,0,0,1,4.73-1.77,20.61,20.61,0,0,1,5.24-.36,24.29,24.29,0,0,1,5.38.89,29,29,0,0,1,5.23,2l4.54-2.6,2.47,1.43-4.54,2.6a18.71,18.71,0,0,1,4.54,4,12.76,12.76,0,0,1,2.23,4ZM53.57,74c-1.26.72-1.73,1.53-1.42,2.43a9.87,9.87,0,0,0,2.6,3.42l8.86-5.07A13.87,13.87,0,0,0,58,73,8,8,0,0,0,53.57,74ZM52.45,90.47c1.31-.76,1.75-1.65,1.31-2.68A13.29,13.29,0,0,0,50.89,84L42,89.14a16.5,16.5,0,0,0,5.79,2.1A7.24,7.24,0,0,0,52.45,90.47Z"/></g><path d="M70.46,81.37a3.31,3.31,0,0,0-.29-1.29,10.53,10.53,0,0,0-.94-1.68,12.91,12.91,0,0,0-1.6-1.85,15.67,15.67,0,0,0-2.26-1.8l-9.31,5.33.73.62a37.67,37.67,0,0,1,3.35,3.44,8.32,8.32,0,0,1,1.76,3,3.56,3.56,0,0,1-.32,2.74,7.17,7.17,0,0,1-2.86,2.55,15,15,0,0,1-5,1.82,20.07,20.07,0,0,1-5.32.16A25,25,0,0,1,43,93.25,31.88,31.88,0,0,1,37.84,91l-4.72,2.7-2.49-1.44,4.81-2.75A25.06,25.06,0,0,1,30.16,85a12.9,12.9,0,0,1-2.75-5l6.77-1.06a4.16,4.16,0,0,0,.36,1.56,10.73,10.73,0,0,0,1.13,2,17.39,17.39,0,0,0,1.9,2.29,20.23,20.23,0,0,0,2.7,2.28l9.31-5.33a6,6,0,0,0-.44-.43,6.08,6.08,0,0,1-.44-.44,35,35,0,0,1-3.09-3.31,6.72,6.72,0,0,1-1.44-2.77,3.33,3.33,0,0,1,.44-2.42,7,7,0,0,1,2.58-2.2,15.79,15.79,0,0,1,4.73-1.77,20.61,20.61,0,0,1,5.24-.36,24.29,24.29,0,0,1,5.38.89,29,29,0,0,1,5.23,2l4.54-2.6,2.47,1.43-4.54,2.6a18.71,18.71,0,0,1,4.54,4,12.76,12.76,0,0,1,2.23,4ZM53.57,73c-1.26.72-1.73,1.53-1.42,2.43a9.87,9.87,0,0,0,2.6,3.42l8.86-5.07A13.87,13.87,0,0,0,58,72,8,8,0,0,0,53.57,73ZM52.45,89.47c1.31-.76,1.75-1.65,1.31-2.68A13.29,13.29,0,0,0,50.89,83L42,88.14a16.5,16.5,0,0,0,5.79,2.1A7.24,7.24,0,0,0,52.45,89.47Z" fill="url(#Degradado_sin_nombre_3-2)"/><path d="M70.46,81.37a3.31,3.31,0,0,0-.29-1.29,10.53,10.53,0,0,0-.94-1.68,12.91,12.91,0,0,0-1.6-1.85,15.67,15.67,0,0,0-2.26-1.8l-9.31,5.33.73.62a37.67,37.67,0,0,1,3.35,3.44,8.32,8.32,0,0,1,1.76,3,3.56,3.56,0,0,1-.32,2.74,7.17,7.17,0,0,1-2.86,2.55,15,15,0,0,1-5,1.82,20.07,20.07,0,0,1-5.32.16A25,25,0,0,1,43,93.25,31.88,31.88,0,0,1,37.84,91l-4.72,2.7-2.49-1.44,4.81-2.75A25.06,25.06,0,0,1,30.16,85a12.9,12.9,0,0,1-2.75-5l6.77-1.06a4.16,4.16,0,0,0,.36,1.56,10.73,10.73,0,0,0,1.13,2,17.39,17.39,0,0,0,1.9,2.29,20.23,20.23,0,0,0,2.7,2.28l9.31-5.33a6,6,0,0,0-.44-.43,6.08,6.08,0,0,1-.44-.44,35,35,0,0,1-3.09-3.31,6.72,6.72,0,0,1-1.44-2.77,3.33,3.33,0,0,1,.44-2.42,7,7,0,0,1,2.58-2.2,15.79,15.79,0,0,1,4.73-1.77,20.61,20.61,0,0,1,5.24-.36,24.29,24.29,0,0,1,5.38.89,29,29,0,0,1,5.23,2l4.54-2.6,2.47,1.43-4.54,2.6a18.71,18.71,0,0,1,4.54,4,12.76,12.76,0,0,1,2.23,4ZM53.57,73c-1.26.72-1.73,1.53-1.42,2.43a9.87,9.87,0,0,0,2.6,3.42l8.86-5.07A13.87,13.87,0,0,0,58,72,8,8,0,0,0,53.57,73ZM52.45,89.47c1.31-.76,1.75-1.65,1.31-2.68A13.29,13.29,0,0,0,50.89,83L42,88.14a16.5,16.5,0,0,0,5.79,2.1A7.24,7.24,0,0,0,52.45,89.47Z" fill="#ffd74c"/><path d="M15.76,100.6c21.18,12.49,56,12.84,77.43.78,11-6.18,16.36-14.45,16.19-22.74,0-1.58,0-12.41,0-12.41s-7.46-4.65-15.73-9.53c-21.16-12.52-56-12.87-77.44-.78C6.63,61.32,0,65.81,0,65.81S0,77.6,0,78.64C.16,86.56,5.4,94.49,15.76,100.6Z" fill="#fdb600"/><path d="M15.76,88.19c21.18,12.49,56,12.84,77.43.78s21.62-32.17.46-44.68-56-12.86-77.44-.78S-5.42,75.7,15.76,88.19Z" fill="#ffd01f"/><path d="M55.36,87c-13.1,0-25.7-2.66-34.56-8.08-7-4.25-10.92-9.25-10.87-14.12s4.11-9.91,11.16-14c8.64-5.05,20.36-7.78,33-7.78,13.09,0,25.68,3.14,34.53,8.56,7,4.26,10.91,9.52,10.86,14.39s-4.11,9.57-11.14,13.68C79.69,84.66,68,87,55.36,87Z" opacity="0.48" style="mix-blend-mode:soft-light"/><path d="M21.09,54.54c8.64-5,20.36-7.8,33-7.8,13.09,0,25.68,3.12,34.53,8.55,6,3.69,9.8,8.13,10.66,12.42a8.89,8.89,0,0,0,.2-1.77c.05-4.87-3.91-10.11-10.86-14.37C79.75,46.14,67.16,43,54.07,43c-12.62,0-24.34,2.74-33,7.8C14,54.93,10,60,9.93,64.89a9.05,9.05,0,0,0,.19,1.94C11,62.52,14.9,58.16,21.09,54.54Z" opacity="0.48" style="mix-blend-mode:soft-light"/><g opacity="0.57" style="mix-blend-mode:soft-light"><path d="M70.46,65a3.26,3.26,0,0,0-.29-1.28,9.73,9.73,0,0,0-.94-1.68,13,13,0,0,0-1.6-1.86,15.67,15.67,0,0,0-2.26-1.8l-9.31,5.33.73.63a36.42,36.42,0,0,1,3.35,3.43,8.49,8.49,0,0,1,1.76,3,3.55,3.55,0,0,1-.32,2.74,7.25,7.25,0,0,1-2.86,2.56,15.16,15.16,0,0,1-5,1.81,19.66,19.66,0,0,1-5.32.16A25,25,0,0,1,43,76.91a31,31,0,0,1-5.18-2.29l-4.72,2.71-2.49-1.44,4.81-2.76a24.77,24.77,0,0,1-5.28-4.52,12.76,12.76,0,0,1-2.75-5l6.77-1.05a4.12,4.12,0,0,0,.36,1.55,10.44,10.44,0,0,0,1.13,2.05,17.39,17.39,0,0,0,1.9,2.29,19.51,19.51,0,0,0,2.7,2.28l9.31-5.33a6,6,0,0,0-.44-.43,6.08,6.08,0,0,1-.44-.44,33.86,33.86,0,0,1-3.09-3.31,6.72,6.72,0,0,1-1.44-2.77,3.3,3.3,0,0,1,.44-2.41,7,7,0,0,1,2.58-2.21,15.79,15.79,0,0,1,4.73-1.77,20.61,20.61,0,0,1,5.24-.36,24.88,24.88,0,0,1,5.38.89,29.85,29.85,0,0,1,5.23,2L72.31,52l2.47,1.43-4.54,2.6a18.48,18.48,0,0,1,4.54,4,12.87,12.87,0,0,1,2.23,4ZM53.57,56.61c-1.26.72-1.73,1.53-1.42,2.43a9.7,9.7,0,0,0,2.6,3.42l8.86-5.07A13.68,13.68,0,0,0,58,55.65,7.88,7.88,0,0,0,53.57,56.61ZM52.45,73.13c1.31-.76,1.75-1.65,1.31-2.68a13.29,13.29,0,0,0-2.87-3.75L42,71.8a16.5,16.5,0,0,0,5.79,2.1A7.24,7.24,0,0,0,52.45,73.13Z"/><path d="M70.46,65a3.26,3.26,0,0,0-.29-1.28,9.73,9.73,0,0,0-.94-1.68,13,13,0,0,0-1.6-1.86,15.67,15.67,0,0,0-2.26-1.8l-9.31,5.33.73.63a36.42,36.42,0,0,1,3.35,3.43,8.49,8.49,0,0,1,1.76,3,3.55,3.55,0,0,1-.32,2.74,7.25,7.25,0,0,1-2.86,2.56,15.16,15.16,0,0,1-5,1.81,19.66,19.66,0,0,1-5.32.16A25,25,0,0,1,43,76.91a31,31,0,0,1-5.18-2.29l-4.72,2.71-2.49-1.44,4.81-2.76a24.77,24.77,0,0,1-5.28-4.52,12.76,12.76,0,0,1-2.75-5l6.77-1.05a4.12,4.12,0,0,0,.36,1.55,10.44,10.44,0,0,0,1.13,2.05,17.39,17.39,0,0,0,1.9,2.29,19.51,19.51,0,0,0,2.7,2.28l9.31-5.33a6,6,0,0,0-.44-.43,6.08,6.08,0,0,1-.44-.44,33.86,33.86,0,0,1-3.09-3.31,6.72,6.72,0,0,1-1.44-2.77,3.3,3.3,0,0,1,.44-2.41,7,7,0,0,1,2.58-2.21,15.79,15.79,0,0,1,4.73-1.77,20.61,20.61,0,0,1,5.24-.36,24.88,24.88,0,0,1,5.38.89,29.85,29.85,0,0,1,5.23,2L72.31,52l2.47,1.43-4.54,2.6a18.48,18.48,0,0,1,4.54,4,12.87,12.87,0,0,1,2.23,4ZM53.57,56.61c-1.26.72-1.73,1.53-1.42,2.43a9.7,9.7,0,0,0,2.6,3.42l8.86-5.07A13.68,13.68,0,0,0,58,55.65,7.88,7.88,0,0,0,53.57,56.61ZM52.45,73.13c1.31-.76,1.75-1.65,1.31-2.68a13.29,13.29,0,0,0-2.87-3.75L42,71.8a16.5,16.5,0,0,0,5.79,2.1A7.24,7.24,0,0,0,52.45,73.13Z"/></g><path d="M70.46,64a3.26,3.26,0,0,0-.29-1.28,9.73,9.73,0,0,0-.94-1.68,13,13,0,0,0-1.6-1.86,15.67,15.67,0,0,0-2.26-1.8l-9.31,5.33.73.63a36.42,36.42,0,0,1,3.35,3.43,8.49,8.49,0,0,1,1.76,3,3.55,3.55,0,0,1-.32,2.74,7.25,7.25,0,0,1-2.86,2.56,15.16,15.16,0,0,1-5,1.81,19.66,19.66,0,0,1-5.32.16A25,25,0,0,1,43,75.91a31,31,0,0,1-5.18-2.29l-4.72,2.71-2.49-1.44,4.81-2.76a24.77,24.77,0,0,1-5.28-4.52,12.76,12.76,0,0,1-2.75-5l6.77-1.05a4.12,4.12,0,0,0,.36,1.55,10.44,10.44,0,0,0,1.13,2.05,17.39,17.39,0,0,0,1.9,2.29,19.51,19.51,0,0,0,2.7,2.28l9.31-5.33a6,6,0,0,0-.44-.43,6.08,6.08,0,0,1-.44-.44,33.86,33.86,0,0,1-3.09-3.31,6.72,6.72,0,0,1-1.44-2.77,3.3,3.3,0,0,1,.44-2.41,7,7,0,0,1,2.58-2.21,15.79,15.79,0,0,1,4.73-1.77,20.61,20.61,0,0,1,5.24-.36,24.88,24.88,0,0,1,5.38.89,29.85,29.85,0,0,1,5.23,2L72.31,51l2.47,1.43-4.54,2.6a18.48,18.48,0,0,1,4.54,4,12.87,12.87,0,0,1,2.23,4ZM53.57,55.61c-1.26.72-1.73,1.53-1.42,2.43a9.7,9.7,0,0,0,2.6,3.42l8.86-5.07A13.68,13.68,0,0,0,58,54.65,7.88,7.88,0,0,0,53.57,55.61ZM52.45,72.13c1.31-.76,1.75-1.65,1.31-2.68a13.29,13.29,0,0,0-2.87-3.75L42,70.8a16.5,16.5,0,0,0,5.79,2.1A7.24,7.24,0,0,0,52.45,72.13Z" fill="url(#Degradado_sin_nombre_3-3)"/><path d="M70.46,64a3.26,3.26,0,0,0-.29-1.28,9.73,9.73,0,0,0-.94-1.68,13,13,0,0,0-1.6-1.86,15.67,15.67,0,0,0-2.26-1.8l-9.31,5.33.73.63a36.42,36.42,0,0,1,3.35,3.43,8.49,8.49,0,0,1,1.76,3,3.55,3.55,0,0,1-.32,2.74,7.25,7.25,0,0,1-2.86,2.56,15.16,15.16,0,0,1-5,1.81,19.66,19.66,0,0,1-5.32.16A25,25,0,0,1,43,75.91a31,31,0,0,1-5.18-2.29l-4.72,2.71-2.49-1.44,4.81-2.76a24.77,24.77,0,0,1-5.28-4.52,12.76,12.76,0,0,1-2.75-5l6.77-1.05a4.12,4.12,0,0,0,.36,1.55,10.44,10.44,0,0,0,1.13,2.05,17.39,17.39,0,0,0,1.9,2.29,19.51,19.51,0,0,0,2.7,2.28l9.31-5.33a6,6,0,0,0-.44-.43,6.08,6.08,0,0,1-.44-.44,33.86,33.86,0,0,1-3.09-3.31,6.72,6.72,0,0,1-1.44-2.77,3.3,3.3,0,0,1,.44-2.41,7,7,0,0,1,2.58-2.21,15.79,15.79,0,0,1,4.73-1.77,20.61,20.61,0,0,1,5.24-.36,24.88,24.88,0,0,1,5.38.89,29.85,29.85,0,0,1,5.23,2L72.31,51l2.47,1.43-4.54,2.6a18.48,18.48,0,0,1,4.54,4,12.87,12.87,0,0,1,2.23,4ZM53.57,55.61c-1.26.72-1.73,1.53-1.42,2.43a9.7,9.7,0,0,0,2.6,3.42l8.86-5.07A13.68,13.68,0,0,0,58,54.65,7.88,7.88,0,0,0,53.57,55.61ZM52.45,72.13c1.31-.76,1.75-1.65,1.31-2.68a13.29,13.29,0,0,0-2.87-3.75L42,70.8a16.5,16.5,0,0,0,5.79,2.1A7.24,7.24,0,0,0,52.45,72.13Z" fill="#ffd74c"/><path d="M15.76,83.26c21.18,12.49,56,12.84,77.43.78,11-6.17,16.36-14.45,16.19-22.74,0-1.58,0-12.4,0-12.4s-7.46-4.65-15.73-9.54c-21.16-12.51-56-12.86-77.44-.78C6.63,44,0,48.48,0,48.48S0,60.27,0,61.3C.16,69.22,5.4,77.15,15.76,83.26Z" fill="#fdb600"/><path d="M15.76,70.86c21.18,12.49,56,12.84,77.43.77s21.62-32.16.46-44.68-56-12.86-77.44-.77S-5.42,58.37,15.76,70.86Z" fill="#ffd01f"/><path d="M55.36,70c-13.1,0-25.7-2.83-34.56-8.25-7-4.25-10.92-9.33-10.87-14.2s4.11-10,11.16-14.07c8.64-5.06,20.36-7.8,33-7.8,13.09,0,25.68,3.12,34.53,8.55,7,4.26,10.91,9.5,10.86,14.38s-4.11,9.74-11.14,13.84C79.69,67.49,68,70,55.36,70Z" opacity="0.48" style="mix-blend-mode:soft-light"/><path d="M21.09,37.2c8.64-5.05,20.36-7.8,33-7.8,13.09,0,25.68,3.13,34.53,8.55,6,3.69,9.8,8.13,10.66,12.42a8.79,8.79,0,0,0,.2-1.76c.05-4.88-3.91-10.12-10.86-14.38-8.85-5.42-21.44-8.55-34.53-8.55-12.62,0-24.34,2.75-33,7.8C14,37.6,10,42.69,9.93,47.56a9.18,9.18,0,0,0,.19,1.94C11,45.19,14.9,40.82,21.09,37.2Z" opacity="0.48" style="mix-blend-mode:soft-light"/><g opacity="0.57" style="mix-blend-mode:soft-light"><path d="M70.46,47.69a3.3,3.3,0,0,0-.29-1.28,9.73,9.73,0,0,0-.94-1.68,12.91,12.91,0,0,0-1.6-1.85,15.05,15.05,0,0,0-2.26-1.81c-3.72,2.14-5.58,3.2-9.31,5.33l.73.63a36.43,36.43,0,0,1,3.35,3.44,8.32,8.32,0,0,1,1.76,3,3.53,3.53,0,0,1-.32,2.73,7.18,7.18,0,0,1-2.86,2.56,15.16,15.16,0,0,1-5,1.81,19.26,19.26,0,0,1-5.32.16A24.94,24.94,0,0,1,43,59.58a31.08,31.08,0,0,1-5.18-2.3L33.12,60l-2.49-1.44,4.81-2.76a24.77,24.77,0,0,1-5.28-4.52,12.79,12.79,0,0,1-2.75-5l6.77-1.06a4.08,4.08,0,0,0,.36,1.55,10.44,10.44,0,0,0,1.13,2.05,16.77,16.77,0,0,0,1.9,2.29,19.51,19.51,0,0,0,2.7,2.28l9.31-5.32a6.08,6.08,0,0,0-.44-.44,6,6,0,0,1-.44-.43,33.85,33.85,0,0,1-3.09-3.32,6.66,6.66,0,0,1-1.44-2.77,3.3,3.3,0,0,1,.44-2.41,7.07,7.07,0,0,1,2.58-2.21,15.79,15.79,0,0,1,4.73-1.77,21.57,21.57,0,0,1,5.24-.36,25.51,25.51,0,0,1,5.38.89,29.85,29.85,0,0,1,5.23,2l4.54-2.6,2.47,1.43-4.54,2.6a18.69,18.69,0,0,1,4.54,4,12.8,12.8,0,0,1,2.23,4ZM53.57,39.27c-1.26.72-1.73,1.53-1.42,2.44a9.87,9.87,0,0,0,2.6,3.42c3.54-2,5.31-3.05,8.86-5.07A13.87,13.87,0,0,0,58,38.31,8,8,0,0,0,53.57,39.27ZM52.45,55.79c1.31-.75,1.75-1.65,1.31-2.68a13.29,13.29,0,0,0-2.87-3.75L42,54.46a16.54,16.54,0,0,0,5.79,2.11A7.18,7.18,0,0,0,52.45,55.79Z"/><path d="M70.46,47.69a3.3,3.3,0,0,0-.29-1.28,9.73,9.73,0,0,0-.94-1.68,12.91,12.91,0,0,0-1.6-1.85,15.05,15.05,0,0,0-2.26-1.81c-3.72,2.14-5.58,3.2-9.31,5.33l.73.63a36.43,36.43,0,0,1,3.35,3.44,8.32,8.32,0,0,1,1.76,3,3.53,3.53,0,0,1-.32,2.73,7.18,7.18,0,0,1-2.86,2.56,15.16,15.16,0,0,1-5,1.81,19.26,19.26,0,0,1-5.32.16A24.94,24.94,0,0,1,43,59.58a31.08,31.08,0,0,1-5.18-2.3L33.12,60l-2.49-1.44,4.81-2.76a24.77,24.77,0,0,1-5.28-4.52,12.79,12.79,0,0,1-2.75-5l6.77-1.06a4.08,4.08,0,0,0,.36,1.55,10.44,10.44,0,0,0,1.13,2.05,16.77,16.77,0,0,0,1.9,2.29,19.51,19.51,0,0,0,2.7,2.28l9.31-5.32a6.08,6.08,0,0,0-.44-.44,6,6,0,0,1-.44-.43,33.85,33.85,0,0,1-3.09-3.32,6.66,6.66,0,0,1-1.44-2.77,3.3,3.3,0,0,1,.44-2.41,7.07,7.07,0,0,1,2.58-2.21,15.79,15.79,0,0,1,4.73-1.77,21.57,21.57,0,0,1,5.24-.36,25.51,25.51,0,0,1,5.38.89,29.85,29.85,0,0,1,5.23,2l4.54-2.6,2.47,1.43-4.54,2.6a18.69,18.69,0,0,1,4.54,4,12.8,12.8,0,0,1,2.23,4ZM53.57,39.27c-1.26.72-1.73,1.53-1.42,2.44a9.87,9.87,0,0,0,2.6,3.42c3.54-2,5.31-3.05,8.86-5.07A13.87,13.87,0,0,0,58,38.31,8,8,0,0,0,53.57,39.27ZM52.45,55.79c1.31-.75,1.75-1.65,1.31-2.68a13.29,13.29,0,0,0-2.87-3.75L42,54.46a16.54,16.54,0,0,0,5.79,2.11A7.18,7.18,0,0,0,52.45,55.79Z"/></g><path d="M70.46,46.69a3.3,3.3,0,0,0-.29-1.28,9.73,9.73,0,0,0-.94-1.68,12.91,12.91,0,0,0-1.6-1.85,15.05,15.05,0,0,0-2.26-1.81c-3.72,2.14-5.58,3.2-9.31,5.33l.73.63a36.43,36.43,0,0,1,3.35,3.44,8.32,8.32,0,0,1,1.76,3,3.53,3.53,0,0,1-.32,2.73,7.18,7.18,0,0,1-2.86,2.56,15.16,15.16,0,0,1-5,1.81,19.26,19.26,0,0,1-5.32.16A24.94,24.94,0,0,1,43,58.58a31.08,31.08,0,0,1-5.18-2.3L33.12,59l-2.49-1.44,4.81-2.76a24.77,24.77,0,0,1-5.28-4.52,12.79,12.79,0,0,1-2.75-5l6.77-1.06a4.08,4.08,0,0,0,.36,1.55,10.44,10.44,0,0,0,1.13,2.05,16.77,16.77,0,0,0,1.9,2.29,19.51,19.51,0,0,0,2.7,2.28l9.31-5.32a6.08,6.08,0,0,0-.44-.44,6,6,0,0,1-.44-.43,33.85,33.85,0,0,1-3.09-3.32,6.66,6.66,0,0,1-1.44-2.77,3.3,3.3,0,0,1,.44-2.41,7.07,7.07,0,0,1,2.58-2.21,15.79,15.79,0,0,1,4.73-1.77,21.57,21.57,0,0,1,5.24-.36,25.51,25.51,0,0,1,5.38.89,29.85,29.85,0,0,1,5.23,2l4.54-2.6,2.47,1.43-4.54,2.6a18.69,18.69,0,0,1,4.54,4,12.8,12.8,0,0,1,2.23,4ZM53.57,38.27c-1.26.72-1.73,1.53-1.42,2.44a9.87,9.87,0,0,0,2.6,3.42c3.54-2,5.31-3.05,8.86-5.07A13.87,13.87,0,0,0,58,37.31,8,8,0,0,0,53.57,38.27ZM52.45,54.79c1.31-.75,1.75-1.65,1.31-2.68a13.29,13.29,0,0,0-2.87-3.75L42,53.46a16.54,16.54,0,0,0,5.79,2.11A7.18,7.18,0,0,0,52.45,54.79Z" fill="url(#Degradado_sin_nombre_3-4)"/><path d="M70.46,46.69a3.3,3.3,0,0,0-.29-1.28,9.73,9.73,0,0,0-.94-1.68,12.91,12.91,0,0,0-1.6-1.85,15.05,15.05,0,0,0-2.26-1.81c-3.72,2.14-5.58,3.2-9.31,5.33l.73.63a36.43,36.43,0,0,1,3.35,3.44,8.32,8.32,0,0,1,1.76,3,3.53,3.53,0,0,1-.32,2.73,7.18,7.18,0,0,1-2.86,2.56,15.16,15.16,0,0,1-5,1.81,19.26,19.26,0,0,1-5.32.16A24.94,24.94,0,0,1,43,58.58a31.08,31.08,0,0,1-5.18-2.3L33.12,59l-2.49-1.44,4.81-2.76a24.77,24.77,0,0,1-5.28-4.52,12.79,12.79,0,0,1-2.75-5l6.77-1.06a4.08,4.08,0,0,0,.36,1.55,10.44,10.44,0,0,0,1.13,2.05,16.77,16.77,0,0,0,1.9,2.29,19.51,19.51,0,0,0,2.7,2.28l9.31-5.32a6.08,6.08,0,0,0-.44-.44,6,6,0,0,1-.44-.43,33.85,33.85,0,0,1-3.09-3.32,6.66,6.66,0,0,1-1.44-2.77,3.3,3.3,0,0,1,.44-2.41,7.07,7.07,0,0,1,2.58-2.21,15.79,15.79,0,0,1,4.73-1.77,21.57,21.57,0,0,1,5.24-.36,25.51,25.51,0,0,1,5.38.89,29.85,29.85,0,0,1,5.23,2l4.54-2.6,2.47,1.43-4.54,2.6a18.69,18.69,0,0,1,4.54,4,12.8,12.8,0,0,1,2.23,4ZM53.57,38.27c-1.26.72-1.73,1.53-1.42,2.44a9.87,9.87,0,0,0,2.6,3.42c3.54-2,5.31-3.05,8.86-5.07A13.87,13.87,0,0,0,58,37.31,8,8,0,0,0,53.57,38.27ZM52.45,54.79c1.31-.75,1.75-1.65,1.31-2.68a13.29,13.29,0,0,0-2.87-3.75L42,53.46a16.54,16.54,0,0,0,5.79,2.11A7.18,7.18,0,0,0,52.45,54.79Z" fill="#ffd74c"/><path d="M15.76,65.93c21.18,12.49,56,12.84,77.43.77,11-6.17,16.36-14.45,16.19-22.73,0-1.59,0-12.41,0-12.41S101.92,26.91,93.65,22c-21.16-12.51-56-12.86-77.44-.78C6.63,26.65,0,31.14,0,31.14S0,42.93,0,44C.16,51.89,5.4,59.82,15.76,65.93Z" fill="#fdb600"/><path d="M15.76,53.52c21.18,12.49,56,12.84,77.43.78s21.62-32.17.46-44.68-56-12.86-77.44-.78S-5.42,41,15.76,53.52Z" fill="#ffd01f"/><path d="M55.36,53c-13.1,0-25.7-3-34.56-8.42-7-4.24-10.92-9.42-10.87-14.28S14,20.3,21.09,16.18c8.64-5,20.36-7.82,33-7.82,13.09,0,25.68,3.12,34.53,8.54,7,4.26,10.91,9.5,10.86,14.38s-4.11,9.9-11.14,14C79.69,50.33,68,53,55.36,53Z" opacity="0.48" style="mix-blend-mode:soft-light"/><path d="M21.09,19.86c8.64-5,20.36-7.8,33-7.8,13.09,0,25.68,3.13,34.53,8.55,6,3.7,9.8,8.13,10.66,12.42a8.71,8.71,0,0,0,.2-1.76c.05-4.87-3.91-10.12-10.86-14.38-8.85-5.42-21.44-8.55-34.53-8.55-12.62,0-24.34,2.75-33,7.8C14,20.26,10,25.35,9.93,30.22a9.18,9.18,0,0,0,.19,1.94C11,27.85,14.9,23.48,21.09,19.86Z" opacity="0.48" style="mix-blend-mode:soft-light"/><g opacity="0.57" style="mix-blend-mode:soft-light"><path d="M70.46,30.36a3.31,3.31,0,0,0-.29-1.29,10.53,10.53,0,0,0-.94-1.68,12.91,12.91,0,0,0-1.6-1.85,15.67,15.67,0,0,0-2.26-1.8l-9.31,5.33.73.62a37.67,37.67,0,0,1,3.35,3.44,8.32,8.32,0,0,1,1.76,3,3.56,3.56,0,0,1-.32,2.74,7.17,7.17,0,0,1-2.86,2.55,14.72,14.72,0,0,1-5,1.81,19.66,19.66,0,0,1-5.32.17A25.57,25.57,0,0,1,43,42.24,31.88,31.88,0,0,1,37.84,40l-4.72,2.7-2.49-1.44,4.81-2.75a24.8,24.8,0,0,1-5.28-4.53,12.79,12.79,0,0,1-2.75-5l6.77-1.06a4.16,4.16,0,0,0,.36,1.56,10.39,10.39,0,0,0,1.13,2,16.81,16.81,0,0,0,1.9,2.3,20.23,20.23,0,0,0,2.7,2.28l9.31-5.33c-.13-.14-.28-.29-.44-.44a4.49,4.49,0,0,1-.44-.43,35,35,0,0,1-3.09-3.31,6.72,6.72,0,0,1-1.44-2.77,3.33,3.33,0,0,1,.44-2.42,7.07,7.07,0,0,1,2.58-2.21,16,16,0,0,1,4.73-1.76,20.61,20.61,0,0,1,5.24-.36,24.29,24.29,0,0,1,5.38.89,29,29,0,0,1,5.23,2l4.54-2.6,2.47,1.43-4.54,2.6a18.69,18.69,0,0,1,4.54,4,12.91,12.91,0,0,1,2.23,4ZM53.57,21.94c-1.26.72-1.73,1.53-1.42,2.43a9.87,9.87,0,0,0,2.6,3.42l8.86-5.07A13.87,13.87,0,0,0,58,21,8,8,0,0,0,53.57,21.94ZM52.45,38.45c1.31-.75,1.75-1.64,1.31-2.67A13.29,13.29,0,0,0,50.89,32L42,37.13a16.5,16.5,0,0,0,5.79,2.1A7.18,7.18,0,0,0,52.45,38.45Z"/><path d="M70.46,30.36a3.31,3.31,0,0,0-.29-1.29,10.53,10.53,0,0,0-.94-1.68,12.91,12.91,0,0,0-1.6-1.85,15.67,15.67,0,0,0-2.26-1.8l-9.31,5.33.73.62a37.67,37.67,0,0,1,3.35,3.44,8.32,8.32,0,0,1,1.76,3,3.56,3.56,0,0,1-.32,2.74,7.17,7.17,0,0,1-2.86,2.55,14.72,14.72,0,0,1-5,1.81,19.66,19.66,0,0,1-5.32.17A25.57,25.57,0,0,1,43,42.24,31.88,31.88,0,0,1,37.84,40l-4.72,2.7-2.49-1.44,4.81-2.75a24.8,24.8,0,0,1-5.28-4.53,12.79,12.79,0,0,1-2.75-5l6.77-1.06a4.16,4.16,0,0,0,.36,1.56,10.39,10.39,0,0,0,1.13,2,16.81,16.81,0,0,0,1.9,2.3,20.23,20.23,0,0,0,2.7,2.28l9.31-5.33c-.13-.14-.28-.29-.44-.44a4.49,4.49,0,0,1-.44-.43,35,35,0,0,1-3.09-3.31,6.72,6.72,0,0,1-1.44-2.77,3.33,3.33,0,0,1,.44-2.42,7.07,7.07,0,0,1,2.58-2.21,16,16,0,0,1,4.73-1.76,20.61,20.61,0,0,1,5.24-.36,24.29,24.29,0,0,1,5.38.89,29,29,0,0,1,5.23,2l4.54-2.6,2.47,1.43-4.54,2.6a18.69,18.69,0,0,1,4.54,4,12.91,12.91,0,0,1,2.23,4ZM53.57,21.94c-1.26.72-1.73,1.53-1.42,2.43a9.87,9.87,0,0,0,2.6,3.42l8.86-5.07A13.87,13.87,0,0,0,58,21,8,8,0,0,0,53.57,21.94ZM52.45,38.45c1.31-.75,1.75-1.64,1.31-2.67A13.29,13.29,0,0,0,50.89,32L42,37.13a16.5,16.5,0,0,0,5.79,2.1A7.18,7.18,0,0,0,52.45,38.45Z"/></g><path d="M70.46,29.36a3.31,3.31,0,0,0-.29-1.29,10.53,10.53,0,0,0-.94-1.68,12.91,12.91,0,0,0-1.6-1.85,15.67,15.67,0,0,0-2.26-1.8l-9.31,5.33.73.62a37.67,37.67,0,0,1,3.35,3.44,8.32,8.32,0,0,1,1.76,3,3.56,3.56,0,0,1-.32,2.74,7.17,7.17,0,0,1-2.86,2.55,14.72,14.72,0,0,1-5,1.81,19.66,19.66,0,0,1-5.32.17A25.57,25.57,0,0,1,43,41.24,31.88,31.88,0,0,1,37.84,39l-4.72,2.7-2.49-1.44,4.81-2.75a24.8,24.8,0,0,1-5.28-4.53,12.79,12.79,0,0,1-2.75-5l6.77-1.06a4.16,4.16,0,0,0,.36,1.56,10.39,10.39,0,0,0,1.13,2,16.81,16.81,0,0,0,1.9,2.3,20.23,20.23,0,0,0,2.7,2.28l9.31-5.33c-.13-.14-.28-.29-.44-.44a4.49,4.49,0,0,1-.44-.43,35,35,0,0,1-3.09-3.31,6.72,6.72,0,0,1-1.44-2.77,3.33,3.33,0,0,1,.44-2.42,7.07,7.07,0,0,1,2.58-2.21,16,16,0,0,1,4.73-1.76,20.61,20.61,0,0,1,5.24-.36,24.29,24.29,0,0,1,5.38.89,29,29,0,0,1,5.23,2l4.54-2.6,2.47,1.43-4.54,2.6a18.69,18.69,0,0,1,4.54,4,12.91,12.91,0,0,1,2.23,4ZM53.57,20.94c-1.26.72-1.73,1.53-1.42,2.43a9.87,9.87,0,0,0,2.6,3.42l8.86-5.07A13.87,13.87,0,0,0,58,20,8,8,0,0,0,53.57,20.94ZM52.45,37.45c1.31-.75,1.75-1.64,1.31-2.67A13.29,13.29,0,0,0,50.89,31L42,36.13a16.5,16.5,0,0,0,5.79,2.1A7.18,7.18,0,0,0,52.45,37.45Z" fill="url(#Degradado_sin_nombre_3-5)"/><path d="M70.46,29.36a3.31,3.31,0,0,0-.29-1.29,10.53,10.53,0,0,0-.94-1.68,12.91,12.91,0,0,0-1.6-1.85,15.67,15.67,0,0,0-2.26-1.8l-9.31,5.33.73.62a37.67,37.67,0,0,1,3.35,3.44,8.32,8.32,0,0,1,1.76,3,3.56,3.56,0,0,1-.32,2.74,7.17,7.17,0,0,1-2.86,2.55,14.72,14.72,0,0,1-5,1.81,19.66,19.66,0,0,1-5.32.17A25.57,25.57,0,0,1,43,41.24,31.88,31.88,0,0,1,37.84,39l-4.72,2.7-2.49-1.44,4.81-2.75a24.8,24.8,0,0,1-5.28-4.53,12.79,12.79,0,0,1-2.75-5l6.77-1.06a4.16,4.16,0,0,0,.36,1.56,10.39,10.39,0,0,0,1.13,2,16.81,16.81,0,0,0,1.9,2.3,20.23,20.23,0,0,0,2.7,2.28l9.31-5.33c-.13-.14-.28-.29-.44-.44a4.49,4.49,0,0,1-.44-.43,35,35,0,0,1-3.09-3.31,6.72,6.72,0,0,1-1.44-2.77,3.33,3.33,0,0,1,.44-2.42,7.07,7.07,0,0,1,2.58-2.21,16,16,0,0,1,4.73-1.76,20.61,20.61,0,0,1,5.24-.36,24.29,24.29,0,0,1,5.38.89,29,29,0,0,1,5.23,2l4.54-2.6,2.47,1.43-4.54,2.6a18.69,18.69,0,0,1,4.54,4,12.91,12.91,0,0,1,2.23,4ZM53.57,20.94c-1.26.72-1.73,1.53-1.42,2.43a9.87,9.87,0,0,0,2.6,3.42l8.86-5.07A13.87,13.87,0,0,0,58,20,8,8,0,0,0,53.57,20.94ZM52.45,37.45c1.31-.75,1.75-1.64,1.31-2.67A13.29,13.29,0,0,0,50.89,31L42,36.13a16.5,16.5,0,0,0,5.79,2.1A7.18,7.18,0,0,0,52.45,37.45Z" fill="#ffd74c"/></g></g></g></svg>