<svg xmlns="http://www.w3.org/2000/svg" xmlns:xlink="http://www.w3.org/1999/xlink" viewBox="0 0 1225.2 966.33"><defs><linearGradient id="linear-gradient" x1="119.1" y1="235.47" x2="508.91" y2="235.47" gradientTransform="translate(258.48 -153.07) rotate(45)" gradientUnits="userSpaceOnUse"><stop offset="0" stop-color="#fff"/><stop offset="1" stop-color="#8585ff"/></linearGradient><linearGradient id="linear-gradient-2" x1="-3021.09" y1="-1713.74" x2="-2435.21" y2="-1713.74" gradientTransform="translate(-2404.51 562.28) rotate(144.37)" xlink:href="#linear-gradient"/><linearGradient id="linear-gradient-3" x1="-579.98" y1="2044.77" x2="-248.49" y2="2044.77" gradientTransform="translate(563.18 -1285.63) rotate(-11.18)" xlink:href="#linear-gradient"/></defs><g style="isolation:isolate"><g id="Layer_2" data-name="Layer 2"><g id="Layer_1-2" data-name="Layer 1"><path d="M314.92,18.48c-106.37,60.17-27.23,184-140.07,217C-50.36,301.37-50.36,512.85,130.91,628.2c61.32,39-38.76,236.45,27.46,280.15C227,953.67,480.17,883.76,589.57,885c120.85,1.38,264.8,24.83,383.14,28.84s371.82-234.19,187.21-386.46c-84.21-69.46-173.35.22-132.28-239.74,32.18-188-193.48-152.24-271.9-170.29S439-51.69,314.92,18.48Z" fill="#d6d6ff" opacity="0.5"/><circle cx="314.01" cy="235.47" r="194.91" transform="translate(-74.53 291.01) rotate(-45)" opacity="0.5" fill="url(#linear-gradient)"/><path d="M128.61,403.5c19.7,28.9,49.77,18.35,54.91,38.63s-45.53-8-53.14-3.34-24.68,46.32-9.69,57,74.67-17.95,86.66-11,18.48,35.16-31.24,40.21S120,526,116.9,536.29s-15.6,58.23,12.37,64.46,116.8-48.42,122.15-40.86-6.25,35.33-52.77,61.5-78.85,23.68-77.91,34.3,6.12,54.3,30.71,60.16,131.19-59.72,145-54.92,23.54,39.4,10.07,45.94-57.82,34.52-94,34.37-51.45.52-35.39,15.82,64.37,62.55,113,52.92,93.53-54.4,94.43-51.8-14.14,29.34-10.47,33S396,796,416.47,755.37s70.3-52.35,73.25-94.75S484.09,536,467.24,542.21s-11.74,56.55-51.48,76.1-72,25.74-52.12.58S431,526,418.17,486.33s-40.23-46.62-45.26-35.47-21.44,75.46-58.4,88.75S312,526.46,330.91,498s19.24-62.57,12.82-74.71-10,.21-18.92-9.7-14.6-21.46-22.7-14.72-.43,48.19-22.55,62.85-33,20.3-34.16,7,29.14-26,26.39-57.18-3.31-22.45-14.52-28.15S237,373.87,235.57,380s2.76,46.58-10,53.72-22.4,4-12.75-15.6,11.48-29.1,1.72-33.59-17.84-5.12-16.65.8,1.62,25.94-3.07,18.33-9-34-32.16-38.64S117.85,387.72,128.61,403.5Z" fill="#afc1fa"/><circle cx="811.18" cy="366.06" r="292.93" opacity="0.5" fill="url(#linear-gradient-2)"/><circle cx="553.43" cy="800.58" r="165.74" transform="translate(-404 625.82) rotate(-45)" opacity="0.5" fill="url(#linear-gradient-3)"/><path d="M849.22,272.81c-19.36,39.28-1.4,116.76-23.37,112.5s-3.33-98.3-8.46-101.2-50-.59-60.46,19.8,21.74,120.87,11,129.42-48-75.81-54.18-86.89S650.05,369,640.19,384.59s2.21,80.61,42.5,143.15,40.3,89.9-11.12,51.41-54.87-155.8-66.16-160.27-73.78,18-87.7,66.18,10.14,86.71,29.57,108,60.07,40.92,55,47.53-54.31,21.37-82.79,3.68-33.25,18.63,0,45.21,102.17,35.42,171,25.23,43.79,34.72,89.82,50.12,159.09-2.35,135-31.92c-1.58-1.94-5.57-1.65-69.12-10-65.58-8.62-59.91-39.75-48.37-42.45s140.72,20.86,170.1-9.15,55.66-120.28,31.2-125.41S893.24,582.3,851.18,570s-39.62-21-4-30.41,142.33-30.5,147.56-63.3-10.08-49.83-28.49-45.05-94.78,30.23-92.14,4.91,64.48-7.24,71.38-54.54-16.63-18-38.7-14-41.4,1.84-20.6-21.1S923,309.56,900.73,275.6,851.1,269,849.22,272.81Z" fill="#afc1fa"/><path d="M728,515.82a1.78,1.78,0,0,1-2.17-.9c-.24-.49-23.57-49.69,10.87-106.16,12.18-20,25.12-39,37.63-57.35,22.62-33.23,42.17-61.92,48.84-84.2,5.19-17.34,5.6-35.29,6-51.13.36-15.64.67-29.14,5.77-37.14a1.77,1.77,0,1,1,3,1.91c-4.57,7.16-4.87,20.21-5.21,35.31-.37,16.07-.79,34.27-6.12,52.07-6.83,22.8-26.52,51.71-49.31,85.18-12.49,18.34-25.4,37.3-37.54,57.19-33.44,54.84-10.94,102.29-10.71,102.76a1.77,1.77,0,0,1-.81,2.37Z" fill="#94b5ff"/><path d="M830.87,201.77s-26-17.52-14.23-43.88S843.91,137,845.8,139.12c5.83,6.67-.15,17.18-.15,17.18s13.22-15.36,19.23-4.77,1.06,20-10.49,28S830.87,201.77,830.87,201.77Z" fill="#94b5ff"/><path d="M827.79,253.43c-5.55-11.06-8.23-32.81-22.52-35.69s-10.78,10-10.78,10-18.93,0-21,12.58,25.74,7.52,32.43,7.86S827.79,253.43,827.79,253.43Z" fill="#94b5ff"/><path d="M827.1,256.64s34-40.4,44.79-32.38.49,14.53.49,14.53,15.35-2.65,13.13,8.12-11.81,9.25-26.27,3.62S827.1,256.64,827.1,256.64Z" fill="#94b5ff"/><path d="M806.69,306.4c-3.35-11.51-9.24-19.95-26.59-24.43s-26.93-.54-28.18,4.9,7.77,8.89,7.77,8.89-14.67,1-16,12.24,28-3.26,39.12-5.4S806.69,306.4,806.69,306.4Z" fill="#94b5ff"/><path d="M806.69,306.4a101,101,0,0,1,41.2-19.73c25-5.51,17.05,11.31,17.05,11.31s15.57,4.78,9.78,17.89-24.4-3.61-36.08-8S806.69,306.4,806.69,306.4Z" fill="#94b5ff"/><path d="M775.37,351.49s4.8-13.24-19-18.3-37.09,2.66-41.31,9.44S723,354.74,723,354.74s-17.22,2.2-16.57,14.49,20.21,1.92,36.32-8A66.75,66.75,0,0,1,775.37,351.49Z" fill="#94b5ff"/><path d="M776.82,352.08s19-14.57,37.78-12,39.13,12.74,39.42,26.71-17.6,5.62-17.6,5.62,10.82,18.63-4.78,23.71-2.12-21.95-20.44-34.22S776.82,352.08,776.82,352.08Z" fill="#94b5ff"/><path d="M726.77,432.11c-8.38-13.84-18.39-2.08-28-9.88s-13.86-18.35-23.26-14.32-2.2,12.18-2.2,12.18S642,425.63,652.52,439s34.19,1.63,48.67-3.54S726.77,432.11,726.77,432.11Z" fill="#94b5ff"/><path d="M727.67,432.89s4.27-6.64,24.52-1.44,36.34-23.36,46.24-20.53S802,427.19,802,427.19s25.33,3.13,9.41,21.78-56.88-11.61-64.9-14S727.67,432.89,727.67,432.89Z" fill="#94b5ff"/><path d="M355.72,526.31a2,2,0,0,0,2.43-1c.27-.55,26.47-55.79-12.2-119.2-13.68-22.43-28.21-43.76-42.25-64.39-25.41-37.31-47.35-69.53-54.84-94.54-5.84-19.47-6.3-39.63-6.71-57.42-.4-17.56-.75-32.72-6.48-41.69a2,2,0,0,0-3.36,2.14c5.13,8,5.47,22.68,5.86,39.65.41,18,.89,38.48,6.87,58.46,7.67,25.6,29.77,58.06,55.36,95.64,14,20.59,28.52,41.88,42.15,64.22,37.55,61.57,12.28,114.85,12,115.38a2,2,0,0,0,.91,2.66Z" fill="#94b5ff"/><path d="M240.25,173.68s29.19-19.67,16-49.26-30.63-23.51-32.75-21.07c-6.54,7.48.17,19.29.17,19.29s-14.84-17.26-21.59-5.36-1.2,22.5,11.77,31.46S240.25,173.68,240.25,173.68Z" fill="#94b5ff"/><path d="M243.72,231.69C250,219.27,253,194.85,269,191.62s12.1,11.21,12.1,11.21,21.26,0,23.56,14.12-28.91,8.44-36.42,8.83S243.72,231.69,243.72,231.69Z" fill="#94b5ff"/><path d="M244.49,235.3s-38.22-45.36-50.29-36.36-.55,16.31-.55,16.31-17.24-3-14.75,9.13,13.27,10.38,29.5,4.06S244.49,235.3,244.49,235.3Z" fill="#94b5ff"/><path d="M267.4,291.17c3.77-12.93,10.38-22.4,29.86-27.43s30.24-.61,31.64,5.5-8.72,10-8.72,10,16.47,1.13,17.9,13.74-31.4-3.66-43.91-6.06S267.4,291.17,267.4,291.17Z" fill="#94b5ff"/><path d="M267.4,291.17A113.49,113.49,0,0,0,221.15,269c-28.07-6.19-19.15,12.7-19.15,12.7s-17.48,5.36-11,20.08,27.39-4.05,40.51-9S267.4,291.17,267.4,291.17Z" fill="#94b5ff"/><path d="M302.58,341.79s-5.4-14.86,21.33-20.54,41.64,3,46.38,10.6-8.92,13.6-8.92,13.6,19.34,2.47,18.61,16.27-22.7,2.16-40.79-9A75,75,0,0,0,302.58,341.79Z" fill="#94b5ff"/><path d="M300.94,342.46S279.55,326.1,258.53,329s-43.94,14.31-44.27,30S234,365.32,234,365.32s-12.15,20.91,5.37,26.62,2.38-24.64,22.95-38.42S300.94,342.46,300.94,342.46Z" fill="#94b5ff"/><path d="M357.14,432.32c9.41-15.54,20.65-2.34,31.41-11.09s15.56-20.61,26.11-16.08,2.47,13.67,2.47,13.67,35.25,6.22,23.38,21.26-38.39,1.82-54.65-4S357.14,432.32,357.14,432.32Z" fill="#94b5ff"/><path d="M356.13,433.2s-4.79-7.46-27.53-1.62-40.81-26.23-51.92-23.05-4,18.27-4,18.27-28.44,3.51-10.57,24.45,63.87-13,72.87-15.72S356.13,433.2,356.13,433.2Z" fill="#94b5ff"/><path d="M777.25,155.13V830.25a4.76,4.76,0,0,1-4.77,4.77H282.78a4.77,4.77,0,0,1-4.78-4.77V155.13a11.07,11.07,0,0,1,.12-1.63A12,12,0,0,1,290,143.13H765.24A12,12,0,0,1,777.25,155.13Z" fill="#fafbff"/><path d="M777.25,149.61v38.66H278.13V149.61a6.48,6.48,0,0,1,6.48-6.48H770.76A6.48,6.48,0,0,1,777.25,149.61Z" fill="#5372db"/><circle cx="309.99" cy="165.7" r="4.81" fill="#b1bff0"/><circle cx="323.51" cy="165.7" r="4.81" fill="#415aad"/><circle cx="337.03" cy="165.7" r="4.81" fill="#415aad"/><rect x="330.66" y="618.87" width="393.94" height="181.5" rx="7.43" fill="#95a9f0"/><path d="M498.88,762a2.11,2.11,0,0,1-1.95-1.35,2.22,2.22,0,0,1,1.15-2.85L523.44,747a.63.63,0,0,0,.17-.1l-46.24-92a1,1,0,0,0-.71-.26H453.2a2.18,2.18,0,0,1,0-4.36h23.46a5,5,0,0,1,4.45,2.6l46.31,92.1a4.22,4.22,0,0,1,.21,3.32,4.63,4.63,0,0,1-2.59,2.69l-25.36,10.77A2,2,0,0,1,498.88,762Z" fill="#fff"/><polygon points="571.41 762.92 526.51 750.36 527.64 746.04 572.54 758.6 571.41 762.92" fill="#fff"/><path d="M586.57,730.69H517.42a2.24,2.24,0,0,1,0-4.48h69.15a.77.77,0,0,0,.65-.26l12.63-38.88c0,.06-.17-.12-.51-.16L490,673.82a2.23,2.23,0,0,1-1.9-2.48,2.16,2.16,0,0,1,2.4-2l109.31,13.09a4.93,4.93,0,0,1,3.67,2.29,4.48,4.48,0,0,1,.44,3.74l-12.63,38.88A4.91,4.91,0,0,1,586.57,730.69Z" fill="#fff"/><path d="M592,716.3H510.7a1.49,1.49,0,0,1,0-3H592a1.49,1.49,0,0,1,0,3Z" fill="#fff"/><path d="M597.92,701.27h0L503.49,698a1.58,1.58,0,0,1-1.49-1.66,1.54,1.54,0,0,1,1.6-1.55L598,698.05a1.61,1.61,0,0,1-.05,3.22Z" fill="#fff"/><path d="M533,728.92a1.58,1.58,0,0,1-1.55-1.61v-50a1.56,1.56,0,1,1,3.11,0v50A1.59,1.59,0,0,1,533,728.92Z" fill="#fff"/><path d="M564.21,728.89h-.14a1.52,1.52,0,0,1-1.34-1.67l4.18-45.78a1.47,1.47,0,0,1,1.62-1.39,1.54,1.54,0,0,1,1.34,1.68l-4.18,45.78A1.51,1.51,0,0,1,564.21,728.89Z" fill="#fff"/><ellipse cx="495.75" cy="760.42" rx="9.66" ry="8.45" fill="#fff"/><ellipse cx="576.94" cy="760.42" rx="9.66" ry="8.45" fill="#fff"/><rect x="331.01" y="217.62" width="182.79" height="175.14" rx="6.92" fill="#cfd9ff"/><rect x="541.46" y="217.62" width="182.79" height="175.14" rx="6.92" fill="#cfd9ff"/><rect x="331.01" y="416.26" width="182.79" height="175.14" rx="6.92" fill="#cfd9ff"/><rect x="541.46" y="416.26" width="182.79" height="175.14" rx="6.92" fill="#cfd9ff"/><path d="M632.51,270.35c13.54,0,16.91-13.36,17.55-16.73A.83.83,0,0,1,651,253a125.75,125.75,0,0,1,26.35,6.29c9.88,3.59,13.7,5.19,15.1,5.83a.84.84,0,0,1,.43,1.1l-11.38,26.22a.86.86,0,0,1-1.07.46l-15.24-5.68A.85.85,0,0,0,664,288v68.63a.85.85,0,0,1-.84.85h-30.1a.85.85,0,0,1-.85-.85l.27-86.24" fill="#9c96ff"/><path d="M633.2,270.35c-13.54,0-16.91-13.36-17.55-16.73a.83.83,0,0,0-.92-.67,125.75,125.75,0,0,0-26.35,6.29c-9.88,3.59-13.71,5.19-15.11,5.83a.83.83,0,0,0-.42,1.1l11.38,26.22a.86.86,0,0,0,1.07.46l15.24-5.68a.85.85,0,0,1,1.14.79v68.63a.84.84,0,0,0,.84.85h30.1a.85.85,0,0,0,.85-.85l-.27-86.24" fill="#9c96ff"/><path d="M422.67,262.69c-11.58,0-15.64-11.69-16.77-16.14a1.27,1.27,0,0,0-1.9-.77l-34.4,20.73a1.29,1.29,0,0,0-.5,1.64l7.59,16.28a1.28,1.28,0,0,0,1.36.72l17-2.73a1.26,1.26,0,0,1,1.2.46c2.33,2.91,12.52,16,11.89,21.15s-25.91,49.08-31.56,58.84a1.28,1.28,0,0,0,1.11,1.92h48.65Z" fill="#9c96ff"/><path d="M422.14,262.69c11.58,0,15.64-11.69,16.77-16.14a1.26,1.26,0,0,1,1.89-.77l34.41,20.73a1.28,1.28,0,0,1,.49,1.64l-7.58,16.28a1.28,1.28,0,0,1-1.36.72l-17-2.73a1.26,1.26,0,0,0-1.2.46c-2.33,2.91-12.52,16-11.9,21.15s25.92,49.08,31.57,58.84a1.28,1.28,0,0,1-1.11,1.92H418.43Z" fill="#9c96ff"/><path d="M420.16,447.09H452.3a3,3,0,0,1,2.79,1.84c2.18,5.2,8,21.28,8.42,46.71.48,26.13-2.5,53.73-3.52,62.26a3,3,0,0,1-3,2.67H441.5a3,3,0,0,1-3-2.41l-16.45-78.32Z" fill="#9c96ff"/><path d="M424.65,447.09H392.5a3,3,0,0,0-2.78,1.84c-2.18,5.2-8,21.28-8.42,46.71-.49,26.13,2.5,53.73,3.52,62.26a3,3,0,0,0,3,2.67h15.49a3,3,0,0,0,3-2.41l16.45-78.32Z" fill="#9c96ff"/><path d="M647.75,475.31c8.28,0,9.22,11.07,20.59,13.83s29.19-1.53,30.42,1.85.62,28.57-6.45,34.72-79.9,9.53-97.1,3.38-31.66-15.36-28.28-21.82S597.36,508.5,621,495,645.91,475.31,647.75,475.31Z" fill="#9c96ff"/><circle cx="501.28" cy="578.5" r="21.14" fill="#3dbd00"/><path d="M486.24,577a.16.16,0,0,0-.1.29,43.76,43.76,0,0,1,5.25,6.15c4.25,6,5.75,9.07,6,9.07s2-5.27,5.4-11.24c2-3.47,10.57-14.53,12.46-16.71a.16.16,0,0,0-.2-.25s-11,8.06-14.08,11.5a33.48,33.48,0,0,0-4.19,5.31.15.15,0,0,1-.21,0,40.93,40.93,0,0,0-6.47-3.45A9.7,9.7,0,0,0,486.24,577Z" fill="#fff"/><circle cx="711.66" cy="378.96" r="21.14" fill="#3dbd00"/><path d="M696.62,377.42a.17.17,0,0,0-.11.29,43.09,43.09,0,0,1,5.25,6.15c4.25,6,5.75,9.08,6,9.08s2-5.28,5.41-11.25c2-3.46,10.56-14.53,12.46-16.7a.17.17,0,0,0-.21-.25s-11,8.05-14.07,11.49a33.27,33.27,0,0,0-4.19,5.31.16.16,0,0,1-.22,0,40.05,40.05,0,0,0-6.46-3.44A9.59,9.59,0,0,0,696.62,377.42Z" fill="#fff"/><path d="M819.11,521.89c-.29.31-.58.57-.87.86,0,0-5.28-2.31-7.34-4.76a3.71,3.71,0,0,1-.52-1.22,63.19,63.19,0,0,1-1.48-8.89c-1.3-11.14-2.11-27.41-.7-27.41,1.94,0,19.38-3.32,23.8,7.47a11,11,0,0,1,.68,2.08C835.55,502.81,826.47,514.48,819.11,521.89Z" fill="#5b3702"/><path d="M819.11,521.89a14.69,14.69,0,0,1-8.73-5.12,13.17,13.17,0,0,1-3.26-6.56c-.08-.95.6-1.67,1.78-2.33,4.16-2.31,14.64-3.61,19.61-10.72,3.18-4.54,4-5.94,3.49-9.22a11,11,0,0,1,.68,2.08C835.55,502.81,826.47,514.48,819.11,521.89Z" fill="#ccc" style="mix-blend-mode:multiply"/><path d="M814.89,505.1c4.65-4.9,7.61-3.48,8.9-.77s-2.06,10.05-4.38,11.08-7.09.65-7.22,0S814.89,505.1,814.89,505.1Z" fill="#fcd9bb"/><path d="M831.28,540.68c0,1.81-22.57,4.51-22.44,3.36A81.4,81.4,0,0,0,808,534c-.41-2.86-1-5.48-1.61-6.56-1.63-2.64,8.25-11.36,8.83-11.86a0,0,0,0,1,0,0,15.91,15.91,0,0,1,1.84,2C822,523.54,831.28,539.11,831.28,540.68Z" fill="#fcd9bb"/><path d="M817.07,517.51c-.33,5.8-5,13.22-9.08,16.46-.41-2.86-1-5.48-1.61-6.56-1.63-2.64,8.25-11.36,8.83-11.86a0,0,0,0,1,0,0A15.91,15.91,0,0,1,817.07,517.51Z" fill="#e6e6e6" style="mix-blend-mode:multiply"/><path d="M781,492.94c-1.37,11-2.06,28.88,6.88,38.16S814.16,523,815,521.65s2.15-22.69,2-24.58S781,492.94,781,492.94Z" fill="#fcd9bb"/><path d="M816.87,502.7l-.08.64s.38-3.52-9.16-5.76-24.58-1.37-26.9-1.46-8.07-7.47-5.41-16.67,5.24-12,5.76-12.2,5.58,7,7.82,7.73,24,2.58,27.07,6,6.1,9.71,6.27,11.86S816.87,502.7,816.87,502.7Z" fill="#5b3702"/><path d="M781.08,467.25c4.21.94,11.51,3.26,15.81,3.52s18.65-.09,25.78,4.38A21.16,21.16,0,0,1,831.56,487a13.61,13.61,0,0,0-5.88-4.64c-3.95-1.63-12.82-2.56-18.61-2.88-7-.38-15.42-1.24-20.49-4.51S781.08,467.25,781.08,467.25Z" fill="#704402"/><path d="M782.42,648a12.71,12.71,0,0,1-.77,1.32,8.77,8.77,0,0,1-1,1.32,16.43,16.43,0,0,1-4.56,3.75,26.13,26.13,0,0,1-6.45,2.29c-9.82,2.52-25.33,4-25.64,2-.37-2.58,6.07-5.28,13-7.34a103.3,103.3,0,0,0,17.53-6.89,30.68,30.68,0,0,0,2.82-1.63s.77.16,1.74.43c1.54.41,3.63,1,3.93,1.51S783.2,646.34,782.42,648Z" fill="#e3c5a8"/><path d="M847.78,835.16c-.07.87-2.62,5.34-5.92,10.68s-7.18,11.24-10.23,15.55a34.08,34.08,0,0,1-4.48,5.59c-1.65,1.22-16.17,1.94-28.75,2-9.88.07-18.56-.28-18.95-1.11-.91-1.9,5.42-8.85,17.26-14s16.25-8.21,16.38-11.49,0-13.39.78-14.52,15.2-5.32,15.2-5.32c5.49,2.8,18,9.9,18.66,12.39A.45.45,0,0,1,847.78,835.16Z" fill="#821e1d"/><path d="M848.77,844.34a1.58,1.58,0,0,1-.15.24c-2.43,4-15.92,16.53-17,16.81q-.06,0-.06,0c-.21-.41-1-5.15,1-10.91a22.79,22.79,0,0,1,2.16-4.55c4.64-7.57,13-11,13-11C851,838.52,851.12,840.38,848.77,844.34Z" fill="#ab2625"/><path d="M793.88,666.91c-14.69,3.79-60.07,49.67-55.43,59.27s78.25-53.08,77.73-56.87S793.88,666.91,793.88,666.91Z" fill="#821e1d"/><path d="M867.25,857.79h0a1.5,1.5,0,0,1-1.41-1.59l-4.59-143.52,9.79.15-2.42,143.33A1.55,1.55,0,0,1,867.25,857.79Z" fill="#ffa8c2"/><path d="M876.23,710.48c2.86,4.09-.31,10.5-6.41,11.28s-14.56-1.06-19.48-2.85c-3.78-1.38-10.69-4.36-12-4.49s1.8-4.49,13.44-4.52S876.23,710.48,876.23,710.48Z" fill="#fa96b5"/><path d="M881,567.88c4.9-9,34.55-36.35,44.86-30.94s1,38.67-9.28,67.81-13.4,80.43-14.69,88.17-1.81,12.12-19.6,16-57,9-65,3.61S881,567.88,881,567.88Z" fill="#ff6692"/><path d="M815.54,711.48c33.26-1.8,74-18.05,76.83-34.8s-2.41-63.51-14.78-70S815.54,711.48,815.54,711.48Z" fill="#e6e6e6" style="mix-blend-mode:multiply"/><path d="M880,672a6.69,6.69,0,0,1-.7,3.1c-9.63,20.66-113,58.53-113,58.53s5.65,4.56,15.47,12.89,26,35.11,30.93,44.72,23.45,26.6,22.42,30-24.58,13.63-26.29,11.44S797,815,768.62,788.42s-35.85-49-32.22-62.9,47.93-44,67-55.84c0,0,24-16.17,30.16-23.73,6.35-7.78,38.38,3.63,45.16,20.41A16.94,16.94,0,0,1,880,672Z" fill="#962221"/><path d="M781.34,650.81a1.36,1.36,0,0,1-.7-.18,4.06,4.06,0,0,1-1-.58,19.1,19.1,0,0,1-5.09-5.65,30.68,30.68,0,0,0,2.82-1.63s.77.16,1.74.43a17.43,17.43,0,0,1,2.41,5.47,4.18,4.18,0,0,1,.12.64C781.78,650.17,781.69,650.77,781.34,650.81Z" fill="#e6e6e6" style="mix-blend-mode:multiply"/><path d="M809.18,540.38c-16.33,3.78-31.8,11.86-30.77,28.87s11,37,28.88,47.44,7.91,5.67,3.26,6.53-35.62,18.91-34.84,20.46,5.28,5.41,5.8,6.83,43.31-15.08,43.57-18.43S809.18,540.38,809.18,540.38Z" fill="#a87e71"/><path d="M809,642.91a7,7,0,0,0-1.94,1.57A59.94,59.94,0,0,0,799.68,655c-.72,1.4-21.31,2.12-30,1.65,0,0,0,0,0,0-2.35-.1-3.84-.31-3.84-.62,0-1.34,9.24-3,13.88-6a8.7,8.7,0,0,0,.83-.58c.31-.22.66-.51,1-.8s.58-.46.89-.68c5.19-4,15.77-11.66,24-15.41.7-.33,1.4-.62,2.06-.89C808.44,631.69,811.81,641.61,809,642.91Z" fill="#fcd9bb"/><path d="M809,642.91a7,7,0,0,0-1.94,1.57c-.93-2.62-1.67-8.27-.64-11.9.7-.33,1.4-.62,2.06-.89C808.44,631.69,811.81,641.61,809,642.91Z" fill="#e6e6e6" style="mix-blend-mode:multiply"/><path d="M880,672a6.69,6.69,0,0,1-.7,3.1c-6.83,3.5-28.11-1.16-41.33-8.07,0,0,28.87-1.83,40.79-.64A16.94,16.94,0,0,1,880,672Z" fill="#e6e6e6" style="mix-blend-mode:multiply"/><path d="M809.18,540.38c-13.58,4.57-22.34,12.2-19.77,27.5s22.52,57.75,28,68.23-4,22.09-3.31,25.36,64.15,12.28,65.36,8.5,7-52.07,2.4-62.9-19.59-67.72-28.53-69.61S826.54,534.54,809.18,540.38Z" fill="#c29284"/><path d="M851,538.71a6.72,6.72,0,0,1,4.48-1.2c20.26,1.59,42,33.26,45.48,66.46,3.61,34.38,0,35.24-8.42,38.16s-39.36-.17-53.8-.86-29.13,2.41-29.77,1.63-3-8.93-.52-11.21,17.75-8.81,37.85-9.33S880,622,880,622s-1.2-14.09-11.69-24.92S846.82,572,845.45,556C844.53,545.36,848.35,540.66,851,538.71Z" fill="#d19e8d"/><path d="M904.74,864.9c-4.6,1.9-12.81-1.2-27.51-.6-2,.06-4.13.23-6.35.46-18.77,2-39.93,2.82-38.82-1.26.54-2,5.73-3.94,12.54-5.39a115.05,115.05,0,0,1,23.1-2.39C881.54,855.87,906.83,864.05,904.74,864.9Z" fill="#fa96b5"/><path d="M691,666.12l-55,205.15c-.19.71-.68,1.16-1.2,1.1h0c-.79-.08-1.31-1.24-1-2.33l51-205.48Z" fill="#80634b"/><path d="M877.46,665.72l55,205.15c.19.72.68,1.17,1.21,1.11h0c.79-.09,1.3-1.25,1-2.33l-51-205.49Z" fill="#80634b"/><rect x="719.63" y="655.02" width="89.89" height="5.29" rx="1.26" fill="#303052"/><path d="M703.65,660.09h22.93a.13.13,0,0,0,.11-.06l9.59-15.69a.15.15,0,0,0-.11-.23H713.24a.14.14,0,0,0-.11.06l-9.59,15.69A.15.15,0,0,0,703.65,660.09Z" fill="#424270"/><path d="M647.83,659.44H922.41a1.8,1.8,0,0,1,1.8,1.8v.42a7.28,7.28,0,0,1-7.28,7.28H653.3a7.28,7.28,0,0,1-7.28-7.28v-.42A1.8,1.8,0,0,1,647.83,659.44Z" fill="#5c4634"/><path d="M736.16,644.36H713.24a.16.16,0,0,1-.11-.05l-9.57-13.55a.15.15,0,0,1,.11-.23h22.92a.12.12,0,0,1,.1.05l9.57,13.55A.14.14,0,0,1,736.16,644.36Z" fill="#303052"/><path d="M773,633.1H670.73a3.2,3.2,0,0,1-3.11-2.42l-15-58.51a3.24,3.24,0,0,1,3.12-4H758a3.24,3.24,0,0,1,3.11,2.43l15,58.51A3.21,3.21,0,0,1,773,633.1Z" fill="#424270"/><path d="M723.08,633.1H670.73a3.2,3.2,0,0,1-3.11-2.42l-15-58.51a3.24,3.24,0,0,1,3.12-4h22.91Z" fill="#fff" opacity="0.3" style="mix-blend-mode:soft-light"/><path d="M848.77,844.34a1.58,1.58,0,0,1-.15.24c-2.43,4-15.92,16.53-17,16.81a34.08,34.08,0,0,1-4.48,5.59c-1.65,1.22-16.17,1.94-28.75,2,3.05-2.82,24-4.47,27.1-10.54a23.27,23.27,0,0,1,7.12-8,31.48,31.48,0,0,1,9.24-4.64A37.74,37.74,0,0,1,848.77,844.34Z" fill="#e6e6e6" style="mix-blend-mode:multiply"/><path d="M877.23,864.3c-2,.06-4.13.23-6.35.46-18.77,2-39.93,2.82-38.82-1.26.54-2,5.73-3.94,12.54-5.39C852,858.44,870.09,861,877.23,864.3Z" fill="#e6e6e6" style="mix-blend-mode:multiply"/><path d="M320.15,384.83c5.45,16,1.86,37.09-2.08,40.22s-18.78.46-22.6-3.6,2.32-29.55,6.14-32.68S320.15,384.83,320.15,384.83Z" fill="#f4b798"/><path d="M285.62,411.6c-5.1,6.26-18.31,21.21-17.15,24s27.92,6.49,27.92,5.22-.23-12.63,2.09-20.28S285.62,411.6,285.62,411.6Z" fill="#f4b798"/><path d="M305,409.17s-6.61,7.6-16.95,6.32S266,388,267.05,386.35s55.19-21.42,56-18.31-.26,14.88-5.39,23.88-6.34,8.89-6.34,8.89-1.22-5.78-4.87-6C301.15,394.51,297.64,405.85,305,409.17Z" fill="#561304"/><path d="M323,368c-1.13-8-20.86-11.79-25.12-10.07-7.59,3-33.37,24.63-30.85,28.38s18.77,10.58,27.9,5.44S323.37,370.5,323,368Z" fill="#662820"/><path d="M410.21,457.62c-.36,1.25,7,12.63,3.22,16.44-2.61,2.72-14.1,10.43-21.5,14.88a35.65,35.65,0,0,1-6.2,3.31c-2.67.58-12.62-8.35-12.62-8.35,1.05-1.83,2.19-3.64,3.42-5.39,16-23.12,45.53-37.88,46.19-35.74C423.39,445.1,410.54,456.34,410.21,457.62Z" fill="#f4b798"/><path d="M279.49,873.36a24.28,24.28,0,0,1-5,.39c-2.31,0-5.14,0-8,0-5.37-.14-10.65-.53-12.07-1.31a2.45,2.45,0,0,1-1-1.72c-1-4.84,2.2-17.91,5.73-24.75,0,0,19.06-.37,20.81,4.45a1.73,1.73,0,0,1,.14.52C280.69,856.28,279.82,872.8,279.49,873.36Z" fill="#3d1006"/><path d="M274.51,873.75a1.33,1.33,0,0,1-.58.25,68.4,68.4,0,0,1-7.29.33c-6.06,0-13.57-.67-13.16-3.64.59-4.42,7.68-5.45,13.8-5.26,4.51.14,8.51.92,9.07,1.53C277.51,868.24,276.18,872.61,274.51,873.75Z" fill="#661f18"/><path d="M279.49,873.36a24.28,24.28,0,0,1-5,.39,1.33,1.33,0,0,1-.58.25,68.4,68.4,0,0,1-7.29.33,3.68,3.68,0,0,1-.11-.61,23.07,23.07,0,0,1,.75-8.29c1.67-6.67,5.31-13.88,8.54-15.68a10.83,10.83,0,0,1,4.17.61,0,0,0,0,1,0,0,1.73,1.73,0,0,1,.14.52C280.69,856.28,279.82,872.8,279.49,873.36Z" fill="#e6e6e6" style="mix-blend-mode:multiply"/><path d="M340.84,870.91c-.44,2-4.47,3.12-9.7,3.62a121.74,121.74,0,0,1-17.91.08h-.12c-2.19-.14-4.11-.31-5.64-.47-7.2-.84-23.25,1.36-30.79,1.14a8.81,8.81,0,0,1-3.64-.59c-1-.61-1.42-2.17-1.31-4.34.14-4.92,2.81-12.84,6.62-19.27,0,0,12.35-7.12,14.07-7s5.73,9.32,10.88,11.21S342,865.85,340.84,870.91Z" fill="#471208"/><path d="M313.23,874.61h-.12c-.72,0-1.66.11-9.31-.14-7-.25-20.81,2.67-27.65,1.64-1.92-.28-3.31-.86-3.84-1.92a5.17,5.17,0,0,1-.58-3.84c1.53-5.7,16.3-4.78,21.39-4.11a35.09,35.09,0,0,1,7.78,2.45C306.88,871.08,313.23,874.39,313.23,874.61Z" fill="#75241b"/><path d="M274.26,851.75c-.25.47-2.7.53-5.81.33-5.54-.39-13.21-1.67-14.83-3.28-2.53-2.53-6.48-21.28-7.17-36.13s-9.4-36.35-15.3-60.07c-5.17-20.75-13-93.2-10.9-130a95.05,95.05,0,0,1,1.17-11.32c.08-.67.22-1.28.33-1.89l3-.95,25.87-8.23s0,.25.06.72c.19,2,.77,7.93,1.64,16.72C257.82,674.5,274.84,850.69,274.26,851.75Z" fill="#523b38"/><path d="M300.68,845.55c-.61,1.58-29.9,8.84-31.65,8.2-.19-.06-.39-.67-.58-1.67-1.53-8-3-42.11-4.26-48.59s-18.55-131-22-183.56c-.36-5.37-.58-10-.61-13.68,0,0,3.73-2.2,9.1-5.29,12.32-7.06,33.2-18.77,37.51-19.38h.06a.79.79,0,0,1,.61,0c.61.36,1.25,5.86,1.84,14.51,2.06,30.1,3.81,98.21,4.09,117.6C295.12,738.69,301.27,844,300.68,845.55Z" fill="#6b4f4b"/><path d="M246.91,435.13C220.49,456,204.5,504.89,204.5,525.52s10,70.46,14.6,74.16S246.91,435.13,246.91,435.13Z" fill="#a62524"/><path d="M290.7,596.12c-4.95,3.87-7.51,6.68-16.32,12.84-7.3,5.09-10.24,5.77-22.06,8.72-3.26.81-6.68,1.56-10.13,2.25a139.54,139.54,0,0,1-21.94,2.7,95.05,95.05,0,0,1,1.17-11.32l3.33-2.84c6.76-5.7,14.11-11.71,18.22-14.57,8.9-6.17,30.85-12.79,45.22-12.32h.06c.22,0,.42,0,.61,0C289.47,582,290.11,587.47,290.7,596.12Z" fill="#e6e6e6" style="mix-blend-mode:multiply"/><path d="M246.91,435.13c-17.78,10.92-18.08,64.66-18.08,85.29s-8.11,37.08-11.35,48.67-5.57,48.44-.93,49.83,39.17-5.1,52.84-15.3,21.09-13.67,21.79-15.76-3.48-20.62,1.85-43.8,14.14-53.77,14.14-53.77,11.82,59.1,34.3,63,49.4-57.24,49.14-61.19c-.12-1.73-14.14-14.13-17.38-11.82s-25,38.71-26,36.62-2.78-47.05-26.89-64.66S260.12,427,246.91,435.13Z" fill="#ba2928"/><path d="M331.14,874.53a121.74,121.74,0,0,1-17.91.08h-.12c-.72,0-1.66.11-9.31-.14-7-.25-20.81,2.67-27.65,1.64a4.8,4.8,0,0,1,.53-.83c2.92-3.51,12.49-6.18,24.22-6.59,1.12-.06,2.23-.09,3.37-.09C316.67,868.6,327.22,871.08,331.14,874.53Z" fill="#e6e6e6" style="mix-blend-mode:multiply"/></g></g></g></svg>