<svg xmlns="http://www.w3.org/2000/svg" viewBox="0 0 62.96 121.21"><g style="isolation:isolate"><g id="Layer_2" data-name="Layer 2"><g id="Layer_1-2" data-name="Layer 1"><circle cx="30.29" cy="24.7" r="24.69" transform="translate(-7.85 16.17) rotate(-26.58)" fill="#ffd066"/><circle cx="30.29" cy="24.7" r="20.15" transform="translate(-8.75 26.58) rotate(-41.95)" fill="#feac1a"/><path d="M31.34,14.1c4.23.11,8.17,1.72,8.4,5.94l-7,.38c-.12-1.59-1.77-1.84-2.8-1.78-.64,0-2.73.15-2.66,1.44.16,2.88,12.94-.83,13.39,7.33.27,4.9-3.46,6.94-8.15,7.54l.59,5.18-4.29.24,0-5.26c-4.4-.21-8.57-2-8.81-6.44l7-.39v.15c.14,1.94,2.33,2.2,3.43,2.14s3.15-.25,3.07-1.66c-.17-3-13,.45-13.4-7.44-.25-4.56,3.18-6.5,7.53-7.12l-.56-5.23,4.29-.24Z" fill="#ffd066"/><path d="M50.88,45.15A39.69,39.69,0,0,0,52,39.26a3.75,3.75,0,0,0-.45-3.12c-.45-.69-1.89-2.4-2.27-1.7-.33.46,1.23,2.42,1.44,2.93-.27-.58-1.82-3.38-2.75-2.79-.75.47,1.49,2.92,1.63,3.56-.49-.85-1.7-2.51-2.25-2.19-.53.64.87,2.14,1.43,3.1-.34-.45-1.71-2-2-1.17s1.33,2.07,1.52,3a8.52,8.52,0,0,1-.19,4C47.89,45.54,50.53,46.13,50.88,45.15Z" fill="#fcd4ca"/><path d="M10.93,47.4c-.68-1.82-.74-3.95-1.12-5.88a3.76,3.76,0,0,1,.41-3.11c.45-.7,1.88-2.42,2.27-1.73.33.47-1.21,2.43-1.42,3,.26-.58,1.79-3.4,2.72-2.82.76.47-1.46,2.94-1.6,3.57.49-.85,1.68-2.52,2.24-2.21.54.64-.86,2.16-1.4,3.12.33-.45,1.69-2.07,1.94-1.18s-1.31,2.08-1.49,3a8.53,8.53,0,0,0,.22,4C13.92,47.77,11.29,48.39,10.93,47.4Z" fill="#fcd4ca"/><path d="M33.69,54.09a8.22,8.22,0,0,1-2.2,1.33,9.17,9.17,0,0,1-1.94.54c-.18,1.15-.59,3.37-1.22,4.17,0,0-.13,1.55,2.74,1.15s2.26-1.55,2.26-1.55A29.46,29.46,0,0,1,33.69,54.09Z" fill="#fcd4ca"/><path d="M30.28,61.24V61a3.56,3.56,0,0,1,.14-1.08,3,3,0,0,1,2.4-2,2.92,2.92,0,0,1,.51,0,21.46,21.46,0,0,1,.36-3.69,8.22,8.22,0,0,1-2.2,1.33,9.17,9.17,0,0,1-1.94.54c-.18,1.15-.59,3.37-1.22,4.17,0,0-.1,1.24,1.94,1.21C30.28,61.31,30.27,61.27,30.28,61.24Z" fill="#e8a393"/><path d="M12.53,114.22a17.81,17.81,0,0,1,.5,3.35,3.22,3.22,0,0,1-.93,2.53c-.85.69-10.84,1.68-11.71.69s-.29-2.59,2-3.14a24.35,24.35,0,0,0,4.3-1.51,3.48,3.48,0,0,0,1.83-2.6Z" fill="#110239"/><path d="M57.36,103.36a8.89,8.89,0,0,1,3.75.35,3.13,3.13,0,0,1,1.83,2c.24,1.07-3.41,10.43-4.69,10.76s-2.44-.92-1.9-3.2a24.49,24.49,0,0,0,.61-4.52,1.73,1.73,0,0,0-1.29-2Z" fill="#110239"/><path d="M36,81H26.2S12.59,91.14,10.8,93.54c-1.14,1.52-3.13,21.07-3.13,21.07l5.58.52s2.7-17.37,3.63-18.8S36,89.45,36,89.45,38.27,86.67,36,81Z" fill="#0186cb"/><path d="M36,81H26.42c-.1,0,0,5.51-.92,7.85a14.81,14.81,0,0,1-4.44,5.5c4-1.54,14.9-4.87,14.9-4.87S38.27,86.67,36,81Z" fill="#0056a3" opacity="0.65"/><path d="M39.58,80.64l-13.45.76s11,20.62,12.27,21.69,18.27,5.2,18.27,5.2l1.42-5.37s-13.16-3.6-14.25-4.51c-.63-.52-3.45-7.43-3.26-11.07C40.8,83.12,40.35,81.22,39.58,80.64Z" fill="#0186cb"/><path d="M33,59.73s-2.49,1.64-4.63.36a6,6,0,0,1-3.28.49c-2.28-.14-7.27-3.7-7.84-4.55s-3.7-11.69-3.7-11.69L10,44.77S12.3,59.18,13,60.6s7.86,6.52,11.35,8.08a1.22,1.22,0,0,1,.76,1.24,92.07,92.07,0,0,1-1.91,12.19s6.19,4.35,17.87.71a96.39,96.39,0,0,0-1.38-14.53,3.5,3.5,0,0,1,.95-3.15c2.36-2.38,7.05-7.09,7.63-7.62.79-.71,3.28-13.42,3.28-13.42l-3.66-.24s-3.51,9.46-4,10.12a78.09,78.09,0,0,1-6.75,6.18C36.65,60.4,34.61,59.7,33,59.73Z" fill="#f45762"/><path d="M40.8,57.27c3.1-1.29,5-2.7,5.5-6.36.24-1.75,1.67-5.09,1.51-6.76-.57,1.52-3.46,9.23-3.89,9.83-.25.36-2,2-3.66,3.53Z" fill="#c9071e" opacity="0.35" style="mix-blend-mode:multiply"/><path d="M33.34,84.24c.76,0,3-7.06,3.24-8.19s1.21-7.9,1.34-8.87A2.74,2.74,0,0,1,39,65.12c1.92-1.7,4-3.19,6.06-4.74a3.69,3.69,0,0,1,.66-.33L42.5,63.29l-.16.16-.06.06-.72.73-.22.22-.68.68a3.5,3.5,0,0,0-.95,3.15,96.39,96.39,0,0,1,1.38,14.53A30.79,30.79,0,0,1,33.34,84.24Z" fill="#c9071e" opacity="0.35" style="mix-blend-mode:multiply"/><path d="M13,56.45a17.22,17.22,0,0,0,9,8.91c2.9,1.29,3.48,1.45,3.76,1.84a45.36,45.36,0,0,1-1,6.16c.18-1.41.31-2.64.37-3.44a1.25,1.25,0,0,0-.76-1.25C20.88,67.11,13.67,61.9,13,60.6A70,70,0,0,1,11.19,52C11.77,53.54,12.38,55,13,56.45Z" fill="#c9071e" opacity="0.35" style="mix-blend-mode:multiply"/><path d="M34.19,48.7s-4.66-2.34-5.87-1.24-1.2,4-1.43,4.28a16.52,16.52,0,0,0-1.37,1.75c-.07.25,1.16.59,1.21.79s.34,2.49,1.14,2.91,5.43-.07,6.73-2.51S35.88,49.59,34.19,48.7Z" fill="#fcd4ca"/><path d="M35.22,46.35,32.29,47.8a37.65,37.65,0,0,0-.68,5.47c.06,1.6.93.17,1-.75A.74.74,0,0,1,33.93,52c.48.44.13,1.46-1,2a3.15,3.15,0,0,0-.18,2.37,5,5,0,0,0,3.09-2.77C37,51.44,37.53,48.33,35.22,46.35Z" fill="#110239"/><path d="M34.47,45.13a6.17,6.17,0,0,0-2.69-.79,4,4,0,0,0-2.73,1.21,3.22,3.22,0,0,1-2,1.15,1.39,1.39,0,0,1-1.31-.31A3.29,3.29,0,0,0,26,48.65,3.39,3.39,0,0,0,27,49.71a7,7,0,0,0,3.47.83,7.07,7.07,0,0,0,2.38-.24c.85-.26,3.43-2.32,3.38-2.82A4.24,4.24,0,0,0,34.47,45.13Z" fill="#110239"/></g></g></g></svg>