<svg xmlns="http://www.w3.org/2000/svg" viewBox="0 0 75.95 116.16"><g style="isolation:isolate"><g id="Layer_2" data-name="Layer 2"><g id="Layer_1-2" data-name="Layer 1"><path d="M58.17,19.91l6,13.31s-1.76,2-2.34,1.54S52.25,23.52,51.37,23,58.17,19.91,58.17,19.91Z" fill="#09c9ce"/><path d="M53.3,24.7c1.38-.77,3-.93,4.43-1.48l1.64-.66-1.2-2.65S50.49,22.4,51.37,23a19,19,0,0,1,1.77,1.85A.91.91,0,0,1,53.3,24.7Z" fill="#068"/><path d="M43.3,21.57s0,3.83,2.37,4.71c0,0,12-5,14.4-5.45s11.19-.55,11.19-.55L62.41,4.48S58.17,13,54.3,15.75A75,75,0,0,1,43.3,21.57Z" fill="#ffd066"/><path d="M51.08,24.08,54,22.94a12.18,12.18,0,0,1-2.53-5.41c-.91.52-1.85,1-2.76,1.49A10.94,10.94,0,0,0,51.08,24.08Z" fill="#110239"/><ellipse cx="68.03" cy="11.24" rx="7.03" ry="11.81" transform="translate(0.88 26.91) rotate(-22.52)" fill="#fee08d"/><path d="M74,8.75c2.13,5.12,1.38,10.3-1.67,11.57s-7.25-1.87-9.38-7S61.62,3,64.67,1.76,71.92,3.62,74,8.75Z" fill="#110239"/><path d="M57.36,29.19c-.22-.13-.16-1-.11-1.18s.3-.77.07-1.09c-.42-.57-1,1-1.07,1.18a1.58,1.58,0,0,0-.11,1A4,4,0,0,0,57,30.46c-.05.15-.09.31-.15.48A8.25,8.25,0,0,1,58,31.5c.45.26.43.58.85.86l.41-1A19.38,19.38,0,0,0,57.36,29.19Z" fill="#fcd4ca"/><path d="M61.22,25.07c-.4-.43-1-.27-1.51.08s-1.37,1.08-1.09,1.68,1.53-.6,1.53-.6c-.48.41-1.38.75-1.15,1.16s1.39-.2,1.64-.38c-.25.07-1.53.84-1,1.24.35.28,1.29-.3,1.57-.5-.38.12-.89.45-.79,1,.16.29.73.1,1.05,0,.48-.19.93-.27,1-.86,0-.11,0-.21,0-.33A3.16,3.16,0,0,0,62,26.21,5.25,5.25,0,0,0,61.22,25.07Z" fill="#fcd4ca"/><path d="M37,14.15s-4.63-2.24-8.14.29-3.37,7.21-3.27,10.14-.88,4.48-2.92,6.53-2.25,3.71-1.17,8,1.91,6.69-.14,8.61c-2.26,2.1-4.45,7.47.53,11.47s11.74,3.18,16.28,2.93c2.53-.14,6.07-.3,8.06-2.08s3.57-3.74,2.59-6.63c-.39-1.15-1-2.23-1.31-3.39a8.71,8.71,0,0,1-.22-3.17c.07-1.39.6-2.65.66-4a23.41,23.41,0,0,0-.26-4.2,14.35,14.35,0,0,0-1.16-4.13c-1.16-2.74-4.31-4.13-5-7.22A19.71,19.71,0,0,1,41,21.79C41.26,17.66,39.28,14.94,37,14.15Z" fill="#110239"/><path d="M30.19,108.53a14,14,0,0,0,.34,3.82c.44,1.21,3.57,3.08,3.57,3.08s-2.83.55-3.92-.29-3.67-5.24-3.5-5.82.95-2.34.95-2.34Z" fill="#fcd4ca"/><path d="M47.07,108.29a14,14,0,0,0,.34,3.81c.44,1.22,3.57,3.09,3.57,3.09s-2.83.54-3.92-.3-3.67-5.24-3.5-5.81.95-2.34.95-2.34Z" fill="#fcd4ca"/><path d="M27.33,108.53s-2.38.79-1.79,2.87a18,18,0,0,1,.5,4.76h.69s.15-3,.6-2.87,1.43,2.87,2.42,2.87h5.6s.59-.6,0-.94-4.39-.2-4.82-1S27.33,108.53,27.33,108.53Z" fill="#110239"/><path d="M44.34,108.22s-2.38.79-1.78,2.87a18.23,18.23,0,0,1,.49,4.76h.7s.14-3,.59-2.87,1.44,2.87,2.43,2.87h5.59s.6-.6,0-.94-4.38-.2-4.81-1S44.34,108.22,44.34,108.22Z" fill="#110239"/><path d="M31.53,23.39s2.21,8.62.94,9.29c0,0,4.52,9.37,6.51,8.93s1-8.43,1-8.43a3.52,3.52,0,0,1-1.54-.89c-.38-.34-1.21-.91-1.33-1.48a30.59,30.59,0,0,1-.47-4.17Z" fill="#fcd4ca"/><path d="M35.31,37.68a5.22,5.22,0,0,1-1.12-3.53A4.4,4.4,0,0,1,37,30.41a31.89,31.89,0,0,1-.4-3.77l-5.06-3.25s2.21,8.62.94,9.29c0,0,4.52,9.37,6.51,8.93.52-.12.83-.75,1-1.61C38.08,40.35,36.42,39.17,35.31,37.68Z" fill="#e8a393"/><path d="M9.87,28.45a5.18,5.18,0,0,1-.54-1.14c-.11-.34-.2-.68-.32-1a2.86,2.86,0,0,1-.23-1,3.25,3.25,0,0,1,.13-.62c.07-.26.16-.51.22-.78s0-.47.07-.7a3.89,3.89,0,0,1,.41-1.29,4.38,4.38,0,0,1,.59-.82,3.15,3.15,0,0,1,.35-.38.87.87,0,0,0,.32-.39.38.38,0,0,0-.27-.51,1.39,1.39,0,0,0-1.31.43c-.35.48-.52,1.06-.9,1.52-1.19,1.42-2.3-.25-3.69-.84A8.94,8.94,0,0,1,3.37,20c-.25-.18-1.31-1.19-1.82-.93s.36,1,.71,1.25c.13.08,1.32,1,1.47,1.09a7.71,7.71,0,0,1-2-1.23c-.53-.41-1-.82-1.32-.58C-.45,20.35,3,22,3.27,22.15,3,22.18.28,20.26,0,21c-.14.38.42.77.88,1s1.54.53,1.76.7c-.41.14-2.2-1.08-2.2-.33,0,.48,1.11.85,1.53,1s1.7,1,2.1,1.19c1.34.64,1.89.56,2.42,1.36.33.51.93,3.21,1.42,4.24Z" fill="#fcd4ca"/><path d="M56.62,30.57C55.42,34,52.87,41.68,52,41.25a28.62,28.62,0,0,1-7.44-6.48,4.8,4.8,0,0,0-3-2l2.3,7.92s7.85,6.83,9.6,5.85c1.38-.77,4.78-10.44,6-14.45Z" fill="#f45762"/><path d="M48.32,42.52c-1.41-1.82-2.28-3.36-3.71-5.17a25.92,25.92,0,0,1-1.94-2.88q-.48-.54-.93-1.11l2.12,7.32s7.66,6.66,9.53,5.87A22,22,0,0,1,48.32,42.52Z" fill="#c9071e" opacity="0.35" style="mix-blend-mode:multiply"/><path d="M41.56,32.76l-3.17-.47s1.62,6.88.4,6.83-6-7.28-6-7.28a39.88,39.88,0,0,0-4.75,2.36s.67,5.55.28,6.29c0,0,1.26,3.55,2.09,5.21s.95,10.88.95,10.88A14.68,14.68,0,0,0,38,58.28c3.66,0,4.76-1.53,4.76-1.53s0-10.56.46-11.46S45.81,41,44,37.64C43,35.89,41.56,32.76,41.56,32.76Z" fill="#f45762"/><path d="M32.59,48.49c-1.29-2.36-1.09-5.13-1.75-7.88a19.44,19.44,0,0,0-2.64-5.39c.17,1.64.44,4.73.16,5.27,0,0,1.26,3.55,2.09,5.21s.95,10.88.95,10.88a15,15,0,0,0,5.15,1.61A10.58,10.58,0,0,1,32.59,48.49Z" fill="#c9071e" opacity="0.35" style="mix-blend-mode:multiply"/><path d="M31.71,42.31s2.67,1.43,3.86,1.41c3.19,0,3.78-2.1,3.78-2.1s1.67,2,3.15,1.86a1.75,1.75,0,0,0,1.71-1.14s-.12,3.07-2.7,3.36a3,3,0,0,1-2-.34,2.27,2.27,0,0,0-2.19,0,4.55,4.55,0,0,1-1.58.4A3.62,3.62,0,0,1,31.71,42.31Z" fill="#c9071e" opacity="0.35" style="mix-blend-mode:multiply"/><path d="M29.48,33.81s-12.43,3.56-13.56,3.26-6.63-11.7-6.63-11.7L6.17,26.64s4.64,14.27,6.78,15,15.41-1.13,15.41-1.13A7.82,7.82,0,0,0,29.48,33.81Z" fill="#f45762"/><path d="M33.76,16.73s3.12-1.24,4.58.74S39.2,21,39.52,22s.16,5.89-1.1,6.54c-1.1.57-4,.13-5.57-1.45-1.37-1.35-1.74-.79-2.72-2.25C27.68,21.17,31.18,16.4,33.76,16.73Z" fill="#fcd4ca"/><path d="M35.3,15.62s.46,4.79,4.51,4.46C39.81,20.08,39.66,13.55,35.3,15.62Z" fill="#110239"/><path d="M32,27.55a7,7,0,0,0,.24-1c-.39-.45-.85-1.1-1.11-1.13-.7-.11-1.8-1.5-1.06-2.26s1.51-.08,1.8.53a.62.62,0,0,0,.32.26c.12-.33.56-3.13,1.93-3.54,4.67-1.38,1.53-5.08,1.53-5.08-7.71-1.46-8.18,9.08-6.25,11.17A2.55,2.55,0,0,0,32,27.55Z" fill="#110239"/><path d="M30.44,23.18a1,1,0,0,1,.94.72c.22.68-.32,1.4-.62.92s0-.67,0-.95A.84.84,0,0,0,30.44,23.18Z" fill="#e8a393"/><path d="M42.77,56.52s-6.66,2.34-11.49,0A11.49,11.49,0,0,0,27.9,64a26.52,26.52,0,0,0,.19,5.63c.34,2.78,1.15,10.09.64,14.6-.74,6.59-2.79,24.39-2.79,24.39l4.59.71s4.22-21.76,4.72-24.61,2.1-14.44,2.1-14.44,2.86,9,3.6,13.3c.11.66,2.15,25.2,2.15,25.2l4.45,0s-.25-27.25-.25-25.82C47.3,83.51,46.09,64.54,42.77,56.52Z" fill="#0186cb"/><path d="M40.45,73.87a20.53,20.53,0,0,0-3.66-7.27c.21,1.24.4,2.48.54,3.74l0-.07s2.45,7.67,3.4,12.25C40.64,77.58,41.19,76.1,40.45,73.87Z" fill="#0056a3" opacity="0.65"/><path d="M67.71,12.42A3.39,3.39,0,0,0,63.6,10a2.88,2.88,0,0,0-1.38,1A18.92,18.92,0,0,0,63,13.33a16.3,16.3,0,0,0,2.07,3.6,2.88,2.88,0,0,0,.76-.13A3.39,3.39,0,0,0,67.71,12.42Z" fill="#bbeadb"/></g></g></g></svg>