<svg xmlns="http://www.w3.org/2000/svg" viewBox="0 0 132.3 100.51"><g style="isolation:isolate"><g id="Layer_2" data-name="Layer 2"><g id="Layer_1-2" data-name="Layer 1"><path d="M131.86,48.88A11.49,11.49,0,1,1,124,34.66,11.5,11.5,0,0,1,131.86,48.88Z" fill="#ffd066"/><path d="M129.83,48.3a9.38,9.38,0,1,1-6.44-11.6A9.39,9.39,0,0,1,129.83,48.3Z" fill="#feac1a"/><path d="M121.06,40.76c2,0,3.84.63,4,2.58l-3.26.33c-.09-.73-.87-.82-1.34-.77-.3,0-1.27.13-1.21.73.14,1.34,6-.66,6.39,3.12.23,2.27-1.46,3.3-3.63,3.68l.39,2.4-2,.2-.13-2.44c-2,0-4-.76-4.23-2.81l3.25-.33v.07c.11.9,1.13,1,1.64.92s1.46-.19,1.39-.84c-.14-1.39-6,.49-6.39-3.17-.21-2.11,1.34-3.09,3.35-3.47L119,38.54l2-.2Z" fill="#ffd066"/><path d="M90.5,14.66A11.49,11.49,0,1,1,82.61.45,11.51,11.51,0,0,1,90.5,14.66Z" fill="#ffd066"/><path d="M88.47,14.08A9.38,9.38,0,1,1,82,2.48,9.4,9.4,0,0,1,88.47,14.08Z" fill="#feac1a"/><path d="M79.7,6.55c2,0,3.84.62,4,2.57l-3.26.34c-.09-.74-.87-.82-1.34-.77-.3,0-1.27.13-1.21.72.14,1.34,6-.66,6.39,3.12.23,2.27-1.46,3.3-3.63,3.68l.39,2.4-2,.2L79,16.37c-2,0-4-.76-4.23-2.8L78,13.23v.07c.11.9,1.13,1,1.64.92S81.09,14,81,13.39c-.14-1.4-6,.49-6.39-3.18C74.42,8.1,76,7.12,78,6.74l-.37-2.42,2-.2Z" fill="#ffd066"/><path d="M22.55,45.91A11.49,11.49,0,1,1,14.66,31.7,11.5,11.5,0,0,1,22.55,45.91Z" fill="#ffd066"/><path d="M20.52,45.33a9.38,9.38,0,1,1-6.44-11.6A9.4,9.4,0,0,1,20.52,45.33Z" fill="#feac1a"/><path d="M11.75,37.8c2,0,3.84.62,4,2.57l-3.26.34c-.09-.74-.87-.82-1.34-.77-.3,0-1.27.13-1.21.72.14,1.34,6-.66,6.39,3.13.23,2.27-1.46,3.29-3.63,3.67l.39,2.4-2,.21L11,47.62c-2,0-4-.76-4.23-2.8L10,44.48v.08c.11.89,1.13,1,1.64.91s1.46-.18,1.39-.83c-.14-1.39-6,.49-6.39-3.18C6.47,39.35,8,38.37,10,38l-.37-2.42,2-.2Z" fill="#ffd066"/><polygon points="73.99 98.04 55.63 98.04 57.14 75.92 72.48 75.92 73.99 98.04" fill="#ebebeb"/><path d="M73.24,87.08l-.76-11.16H57.14L55.79,95.78C61.6,93.46,68.24,91.1,73.24,87.08Z" fill="#c8c8c8"/><path d="M76.4,94.5a1.22,1.22,0,0,0-1-.53H54.23a1.21,1.21,0,0,0-1,.53l-2.77,4.14a1.2,1.2,0,0,0,1,1.87H78.17a1.21,1.21,0,0,0,1-1.87Z" fill="#ebebeb"/><rect x="14.7" y="14.62" width="100.22" height="67.18" rx="5.17" fill="#ebebeb"/><rect x="19.32" y="19.07" width="90.99" height="57.58" fill="#fff"/><polygon points="72.39 39.7 92.16 22.4 102.05 30.38 115.64 18.36 111.48 13.53 128.67 7.69 122.27 24.87 117.66 21.05 102.38 40.71 91.71 29.93 79.47 47.01 72.39 39.7" fill="#09c9ce"/><path d="M32.84,76.66h56s7.86-6.1,9.51-12.24h5.39V52H98.53s-3.82-14.76-19-17.38S40.23,31.86,29.81,48.13C18.8,65.32,32.84,76.66,32.84,76.66Z" fill="#f45762"/><path d="M85.42,65.47C75.2,67.38,61,67,52.32,64.12s-16-5.53-18.27-14.92a15.84,15.84,0,0,1-.29-5.85,26.8,26.8,0,0,0-3.95,4.78c-11,17.19,3,28.53,3,28.53h56s7.86-6.1,9.51-12.24h5.39v-10A33,33,0,0,1,85.42,65.47Z" fill="#c9071e" opacity="0.35" style="mix-blend-mode:multiply"/><path d="M82.87,36.11s6.29-6.44,6.89-6.14,2.63,5.54,1,10.86Z" fill="#f45762"/><path d="M81.55,35.36s-6.29-6.45-6.89-6.14c-1.12.57-2.62,5.54-1,10.86Z" fill="#f45762"/><path d="M65.46,39.92a11.13,11.13,0,0,0-3.74-1.31,31,31,0,0,0-8.5-.23c-3.58.56-8.91,2.3-10.73,4.1,0,0-.85,1.09.46,2.53s2.93.27,3.81-.11c.47-.2,2-.79,3.68-1.32a16.63,16.63,0,0,1,6.39-.78c2,.15,4.49.34,5,.43,1,.17,2.8,1,3.74-.74S65.46,39.92,65.46,39.92Z" fill="#110239"/><path d="M51.52,41.07c4-1,7.87-.52,11.94-.52h0a11.79,11.79,0,0,0,1-3.38,11.5,11.5,0,1,0-19.47,6.45A31.24,31.24,0,0,1,51.52,41.07Z" fill="#ffd066"/><path d="M47.13,42.63a26.81,26.81,0,0,1,4.39-1.56,34.36,34.36,0,0,1,9.53-.56,9.27,9.27,0,0,0,1.38-3.65,9.38,9.38,0,1,0-15.3,5.77Z" fill="#feac1a"/><path d="M55,37.15c.15.63-.79.89-1.27,1s-1.52.17-1.75-.7l0-.07-3.18.76c.47,2,2.54,2.49,4.56,2.22l.07.35c.6-.09,1.19-.15,1.79-.19L55,40c2.1-.66,3.64-1.9,3.11-4.12-.88-3.7-6.43-.95-6.74-2.26-.13-.58.81-.81,1.1-.88.47-.11,1.25-.13,1.44.59l3.18-.76c-.45-1.91-2.39-2.32-4.33-2l-.43-2.4-1.94.47L51.07,31c-1.94.65-3.35,1.82-2.86,3.88C49.06,38.42,54.64,35.78,55,37.15Z" fill="#ffd066"/><path d="M88.54,49.15a4.61,4.61,0,0,1-8.31.13c-.52-1-2.58,0,.49,3.55,2.37,2.76,7,2.31,8.47-1a5.14,5.14,0,0,0,.44-2.11C89.63,48.77,88.8,48.57,88.54,49.15Z" fill="#110239"/></g></g></g></svg>