<svg xmlns="http://www.w3.org/2000/svg" xmlns:xlink="http://www.w3.org/1999/xlink" viewBox="0 0 176.23 130.93"><defs><clipPath id="clip-path"><path d="M156.5,56V48.81a17.2,17.2,0,0,0-17.2-17.2H17.21A17.2,17.2,0,0,0,0,48.81V56Z" fill="#ffd01f"/></clipPath></defs><g id="Layer_2" data-name="Layer 2"><g id="OBJECTS"><rect x="19.73" width="156.5" height="99.32" rx="14.64" fill="#ff9800"/><rect x="120.86" y="11.45" width="43.8" height="8.79" fill="#ffd01f"/><rect x="34.96" y="11.45" width="85.9" height="8.79" fill="#fdb600"/><path d="M164.85,70.85a10.33,10.33,0,0,0-14.6,0,10.2,10.2,0,0,0-2,2.82,10.33,10.33,0,1,0,0,9,10,10,0,0,0,2,2.81,10.33,10.33,0,1,0,14.6-14.61Z" fill="#fdb600"/><path d="M31.82,58.9a4.08,4.08,0,0,1-.54,2.34,1.91,1.91,0,0,1-1.67.76,1.94,1.94,0,0,1-1.67-.75A3.84,3.84,0,0,1,27.39,59v-1.2a4,4,0,0,1,.53-2.3,1.93,1.93,0,0,1,1.68-.75,1.94,1.94,0,0,1,1.67.72,3.88,3.88,0,0,1,.55,2.25Zm-.89-1.22A3.31,3.31,0,0,0,30.61,56a1.09,1.09,0,0,0-1-.52,1.07,1.07,0,0,0-1,.52,3.1,3.1,0,0,0-.32,1.59V59a3.38,3.38,0,0,0,.33,1.69,1.09,1.09,0,0,0,1,.54,1.07,1.07,0,0,0,1-.51,3.14,3.14,0,0,0,.34-1.61Z" fill="#454c53"/><path d="M39.85,58.9a4.17,4.17,0,0,1-.53,2.34,1.94,1.94,0,0,1-1.68.76A1.9,1.9,0,0,1,36,61.25,3.83,3.83,0,0,1,35.42,59v-1.2a4,4,0,0,1,.53-2.3,2.28,2.28,0,0,1,3.35,0,3.88,3.88,0,0,1,.55,2.25ZM39,57.68A3.31,3.31,0,0,0,38.64,56a1.09,1.09,0,0,0-1-.52,1.07,1.07,0,0,0-1,.52,3.21,3.21,0,0,0-.32,1.59V59a3.38,3.38,0,0,0,.33,1.69,1.09,1.09,0,0,0,1,.54,1.07,1.07,0,0,0,1-.51A3.14,3.14,0,0,0,39,59.15Z" fill="#454c53"/><path d="M47.88,58.9a4.17,4.17,0,0,1-.53,2.34,1.94,1.94,0,0,1-1.68.76A1.9,1.9,0,0,1,44,61.25,3.83,3.83,0,0,1,43.45,59v-1.2a4,4,0,0,1,.53-2.3,2.28,2.28,0,0,1,3.35,0,3.88,3.88,0,0,1,.55,2.25ZM47,57.68A3.31,3.31,0,0,0,46.67,56a1.23,1.23,0,0,0-2,0,3.21,3.21,0,0,0-.32,1.59V59a3.38,3.38,0,0,0,.33,1.69,1.09,1.09,0,0,0,1,.54,1.07,1.07,0,0,0,1-.51A3.14,3.14,0,0,0,47,59.15Z" fill="#454c53"/><path d="M56.11,61.9h-4.6v-.64l2.43-2.7a5.93,5.93,0,0,0,.75-1,1.75,1.75,0,0,0,.2-.79,1.29,1.29,0,0,0-.33-.91,1.18,1.18,0,0,0-.89-.35,1.41,1.41,0,0,0-1,.38A1.46,1.46,0,0,0,52.27,57h-.9A2.06,2.06,0,0,1,52,55.38a2.29,2.29,0,0,1,1.67-.6,2.25,2.25,0,0,1,1.55.51,1.75,1.75,0,0,1,.57,1.37,4,4,0,0,1-1.32,2.47l-1.89,2h3.53Z" fill="#454c53"/><path d="M68.87,58.9a4.17,4.17,0,0,1-.53,2.34,1.94,1.94,0,0,1-1.68.76A1.9,1.9,0,0,1,65,61.25,3.83,3.83,0,0,1,64.44,59v-1.2a4,4,0,0,1,.53-2.3,2.28,2.28,0,0,1,3.35,0,3.88,3.88,0,0,1,.55,2.25ZM68,57.68A3.31,3.31,0,0,0,67.66,56a1.23,1.23,0,0,0-2,0,3.21,3.21,0,0,0-.32,1.59V59a3.38,3.38,0,0,0,.33,1.69,1.09,1.09,0,0,0,1,.54,1.07,1.07,0,0,0,1-.51A3.14,3.14,0,0,0,68,59.15Z" fill="#454c53"/><path d="M76.9,58.9a4.09,4.09,0,0,1-.53,2.34,1.94,1.94,0,0,1-1.68.76A1.9,1.9,0,0,1,73,61.25,3.83,3.83,0,0,1,72.47,59v-1.2a4,4,0,0,1,.53-2.3,2.28,2.28,0,0,1,3.35,0,3.88,3.88,0,0,1,.55,2.25ZM76,57.68A3.31,3.31,0,0,0,75.69,56a1.23,1.23,0,0,0-2,0,3.33,3.33,0,0,0-.32,1.59V59a3.38,3.38,0,0,0,.33,1.69,1.21,1.21,0,0,0,2,0A3.26,3.26,0,0,0,76,59.15Z" fill="#454c53"/><path d="M84.93,58.9a4.09,4.09,0,0,1-.53,2.34,1.94,1.94,0,0,1-1.68.76,1.9,1.9,0,0,1-1.66-.75A3.83,3.83,0,0,1,80.5,59v-1.2a4,4,0,0,1,.54-2.3,1.9,1.9,0,0,1,1.67-.75,1.93,1.93,0,0,1,1.67.72,3.88,3.88,0,0,1,.55,2.25ZM84,57.68A3.2,3.2,0,0,0,83.72,56a1.09,1.09,0,0,0-1-.52,1.06,1.06,0,0,0-1,.52,3.2,3.2,0,0,0-.33,1.59V59a3.38,3.38,0,0,0,.33,1.69,1.21,1.21,0,0,0,2,0A3.26,3.26,0,0,0,84,59.15Z" fill="#454c53"/><path d="M89.86,58h.67a1.41,1.41,0,0,0,1-.33,1.12,1.12,0,0,0,.36-.87,1.09,1.09,0,0,0-1.23-1.24,1.28,1.28,0,0,0-.92.33,1.16,1.16,0,0,0-.35.88h-.89a1.82,1.82,0,0,1,.61-1.39,2.23,2.23,0,0,1,1.55-.55,2.18,2.18,0,0,1,1.56.52,1.9,1.9,0,0,1,.57,1.47,1.51,1.51,0,0,1-.3.88,1.86,1.86,0,0,1-.81.65,1.59,1.59,0,0,1,1.21,1.64,1.92,1.92,0,0,1-.61,1.5,2.63,2.63,0,0,1-3.22,0,1.78,1.78,0,0,1-.62-1.41h.9a1.17,1.17,0,0,0,.36.89,1.37,1.37,0,0,0,1,.33,1.34,1.34,0,0,0,1-.34A1.29,1.29,0,0,0,92,60a1.15,1.15,0,0,0-.38-.94,1.64,1.64,0,0,0-1.08-.34h-.67Z" fill="#454c53"/><path d="M105.92,58.9a4.09,4.09,0,0,1-.53,2.34,1.94,1.94,0,0,1-1.68.76,1.9,1.9,0,0,1-1.66-.75,3.83,3.83,0,0,1-.56-2.22v-1.2a4,4,0,0,1,.54-2.3,1.9,1.9,0,0,1,1.67-.75,1.93,1.93,0,0,1,1.67.72,3.88,3.88,0,0,1,.55,2.25ZM105,57.68a3.2,3.2,0,0,0-.32-1.65,1.09,1.09,0,0,0-1-.52,1.06,1.06,0,0,0-1,.52,3.2,3.2,0,0,0-.33,1.59V59a3.38,3.38,0,0,0,.33,1.69,1.1,1.1,0,0,0,1,.54,1.09,1.09,0,0,0,1-.51,3.26,3.26,0,0,0,.33-1.61Z" fill="#454c53"/><path d="M114,58.9a4.08,4.08,0,0,1-.54,2.34,2.22,2.22,0,0,1-3.34,0,3.83,3.83,0,0,1-.56-2.22v-1.2a4,4,0,0,1,.54-2.3,1.91,1.91,0,0,1,1.68-.75,2,2,0,0,1,1.67.72,4,4,0,0,1,.55,2.25Zm-.9-1.22a3.32,3.32,0,0,0-.31-1.65,1.1,1.1,0,0,0-1-.52,1.07,1.07,0,0,0-1,.52,3.2,3.2,0,0,0-.33,1.59V59a3.38,3.38,0,0,0,.33,1.69,1.11,1.11,0,0,0,1,.54,1.08,1.08,0,0,0,1-.51,3.26,3.26,0,0,0,.33-1.61Z" fill="#454c53"/><path d="M122,58.9a4.08,4.08,0,0,1-.54,2.34,2.22,2.22,0,0,1-3.34,0,3.83,3.83,0,0,1-.56-2.22v-1.2a4,4,0,0,1,.54-2.3,1.92,1.92,0,0,1,1.68-.75,2,2,0,0,1,1.67.72,4,4,0,0,1,.55,2.25Zm-.9-1.22a3.32,3.32,0,0,0-.31-1.65,1.1,1.1,0,0,0-1-.52,1.07,1.07,0,0,0-1,.52,3.1,3.1,0,0,0-.32,1.59V59a3.28,3.28,0,0,0,.33,1.69,1.2,1.2,0,0,0,2,0,3.26,3.26,0,0,0,.33-1.61Z" fill="#454c53"/><path d="M129.38,59.54h1v.73h-1V61.9h-.9V60.27h-3.2v-.53l3.15-4.87h.95Zm-3.08,0h2.18V56.1l-.1.19Z" fill="#454c53"/><path d="M143,58.9a4.08,4.08,0,0,1-.54,2.34,2.22,2.22,0,0,1-3.34,0,3.83,3.83,0,0,1-.56-2.22v-1.2a4,4,0,0,1,.54-2.3,1.91,1.91,0,0,1,1.68-.75,2,2,0,0,1,1.67.72,4,4,0,0,1,.55,2.25Zm-.9-1.22a3.32,3.32,0,0,0-.31-1.65,1.1,1.1,0,0,0-1-.52,1.07,1.07,0,0,0-1,.52,3.2,3.2,0,0,0-.33,1.59V59a3.38,3.38,0,0,0,.33,1.69,1.12,1.12,0,0,0,1,.54,1.08,1.08,0,0,0,1-.51,3.26,3.26,0,0,0,.33-1.61Z" fill="#454c53"/><path d="M151,58.9a4.08,4.08,0,0,1-.54,2.34,2.22,2.22,0,0,1-3.34,0,3.83,3.83,0,0,1-.56-2.22v-1.2a4,4,0,0,1,.54-2.3,1.93,1.93,0,0,1,1.68-.75,2,2,0,0,1,1.67.72,4,4,0,0,1,.55,2.25Zm-.89-1.22A3.31,3.31,0,0,0,149.8,56a1.1,1.1,0,0,0-1-.52,1.07,1.07,0,0,0-1,.52,3.1,3.1,0,0,0-.32,1.59V59a3.38,3.38,0,0,0,.33,1.69,1.09,1.09,0,0,0,1,.54,1.07,1.07,0,0,0,1-.51,3.24,3.24,0,0,0,.34-1.61Z" fill="#454c53"/><path d="M159,58.9a4.08,4.08,0,0,1-.54,2.34,2.22,2.22,0,0,1-3.34,0A3.91,3.91,0,0,1,154.6,59v-1.2a4,4,0,0,1,.54-2.3,2.28,2.28,0,0,1,3.35,0,3.88,3.88,0,0,1,.55,2.25Zm-.89-1.22a3.31,3.31,0,0,0-.32-1.65,1.09,1.09,0,0,0-1-.52,1.07,1.07,0,0,0-1,.52,3.1,3.1,0,0,0-.32,1.59V59a3.38,3.38,0,0,0,.33,1.69,1.09,1.09,0,0,0,1,.54,1.07,1.07,0,0,0,1-.51,3.24,3.24,0,0,0,.34-1.61Z" fill="#454c53"/><path d="M163.07,58.38l.36-3.51H167v.83h-2.84L164,57.62a2.18,2.18,0,0,1,1.17-.31,1.9,1.9,0,0,1,1.52.64,2.45,2.45,0,0,1,.57,1.71,2.38,2.38,0,0,1-.59,1.71A2.12,2.12,0,0,1,165,62a2.21,2.21,0,0,1-1.52-.52,2.08,2.08,0,0,1-.67-1.43h.85a1.38,1.38,0,0,0,.43.91,1.29,1.29,0,0,0,.91.31,1.19,1.19,0,0,0,1-.43,1.74,1.74,0,0,0,.36-1.17,1.6,1.6,0,0,0-.39-1.13,1.31,1.31,0,0,0-1-.43,1.45,1.45,0,0,0-.91.26l-.24.19Z" fill="#454c53"/><path d="M99.48,47.64a12.76,12.76,0,0,1-5.25.94c-5.6,0-9.82-3.54-9.82-10.06,0-6.22,4.22-10.44,10.38-10.44a10.55,10.55,0,0,1,4.72.89l-.62,2.09a9.36,9.36,0,0,0-4-.83c-4.66,0-7.76,3-7.76,8.2,0,4.87,2.81,8,7.64,8A10.27,10.27,0,0,0,99,45.6Z" fill="#fdb600"/><path d="M108.71,42l-2.06,6.25H104l6.76-19.88h3.09l6.79,19.88h-2.74L115.76,42Zm6.52-2-2-5.73c-.44-1.29-.73-2.47-1-3.62h-.06c-.29,1.18-.62,2.38-1,3.59l-2,5.76Z" fill="#fdb600"/><path d="M126.23,28.67a26.42,26.42,0,0,1,4.93-.41c2.74,0,4.51.5,5.75,1.62a5,5,0,0,1,1.56,3.77,5.23,5.23,0,0,1-3.74,5.08v.09c1.53.53,2.44,1.94,2.92,4a30.93,30.93,0,0,0,1.53,5.45h-2.66a26.34,26.34,0,0,1-1.32-4.74c-.59-2.75-1.65-3.78-4-3.87H128.8v8.61h-2.57Zm2.57,9.06h2.62c2.74,0,4.49-1.51,4.49-3.78,0-2.57-1.86-3.69-4.58-3.72a10.29,10.29,0,0,0-2.53.24Z" fill="#fdb600"/><path d="M144.78,28.67a36.21,36.21,0,0,1,5.46-.41c3.68,0,6.31.85,8,2.47a9.18,9.18,0,0,1,2.8,7.14,10.5,10.5,0,0,1-2.86,7.73c-1.86,1.86-4.93,2.86-8.79,2.86a43.45,43.45,0,0,1-4.66-.23Zm2.57,17.58a15.89,15.89,0,0,0,2.59.15c5.49,0,8.47-3.07,8.47-8.44,0-4.69-2.63-7.67-8-7.67a14.35,14.35,0,0,0-3,.27Z" fill="#fdb600"/><rect y="31.61" width="156.5" height="99.32" rx="14.64" fill="#ffd01f"/><path d="M156.5,56V48.81a17.2,17.2,0,0,0-17.2-17.2H17.21A17.2,17.2,0,0,0,0,48.81V56Z" fill="#ffd01f"/><g clip-path="url(#clip-path)"><line x1="9.32" y1="61.66" x2="35.95" y2="25.93" fill="none" stroke="#6dbdc2" stroke-miterlimit="10" stroke-width="6"/><line x1="37.82" y1="61.66" x2="64.46" y2="25.93" fill="none" stroke="#6dbdc2" stroke-miterlimit="10" stroke-width="6"/><line x1="66.33" y1="61.66" x2="92.96" y2="25.93" fill="none" stroke="#6dbdc2" stroke-miterlimit="10" stroke-width="6"/><line x1="94.83" y1="61.66" x2="121.47" y2="25.93" fill="none" stroke="#6dbdc2" stroke-miterlimit="10" stroke-width="6"/><line x1="123.34" y1="61.66" x2="149.97" y2="25.93" fill="none" stroke="#6dbdc2" stroke-miterlimit="10" stroke-width="6"/></g><rect y="47.71" width="156.5" height="15.34" fill="#454c53"/><rect x="7.58" y="72.43" width="98.57" height="17.59" fill="#fff"/><rect x="114.01" y="102.72" width="33.09" height="17.59" transform="translate(261.11 223.02) rotate(180)" fill="#fff"/><rect x="51.14" y="112.38" width="55.01" height="7.92" transform="translate(157.29 232.68) rotate(180)" fill="#e79f03"/><rect x="7.58" y="108.45" width="35.33" height="11.55" fill="#347a91"/><path d="M144.45,74.82a9,9,0,0,0-14.55,2.46,9.05,9.05,0,1,0,0,7.88,9.19,9.19,0,0,0,1.74,2.46,9.05,9.05,0,1,0,12.81-12.8Z" fill="#6dbdc2"/><path d="M12.32,99.07a3.92,3.92,0,0,1-.51,2.22,1.81,1.81,0,0,1-1.59.72,1.83,1.83,0,0,1-1.58-.71,3.69,3.69,0,0,1-.53-2.12V98.05a3.89,3.89,0,0,1,.5-2.19,1.83,1.83,0,0,1,1.6-.72,1.83,1.83,0,0,1,1.59.7A3.66,3.66,0,0,1,12.32,98Zm-.85-1.16a3.1,3.1,0,0,0-.3-1.57,1,1,0,0,0-1-.5,1,1,0,0,0-1,.49A3.07,3.07,0,0,0,9,97.84V99.2a3.15,3.15,0,0,0,.32,1.6,1,1,0,0,0,1,.52,1,1,0,0,0,.94-.49,3,3,0,0,0,.31-1.53Z" fill="#454c53"/><path d="M20,99.07a3.92,3.92,0,0,1-.51,2.22,1.81,1.81,0,0,1-1.59.72,1.83,1.83,0,0,1-1.58-.71,3.68,3.68,0,0,1-.54-2.12V98.05a3.81,3.81,0,0,1,.51-2.19,1.83,1.83,0,0,1,1.6-.72,1.83,1.83,0,0,1,1.59.7A3.66,3.66,0,0,1,20,98Zm-.85-1.16a3.1,3.1,0,0,0-.3-1.57,1.17,1.17,0,0,0-1.91,0,3.07,3.07,0,0,0-.31,1.51V99.2a3.15,3.15,0,0,0,.32,1.6,1,1,0,0,0,.95.52,1,1,0,0,0,.93-.49,3,3,0,0,0,.32-1.53Z" fill="#454c53"/><path d="M27.6,99.07a3.92,3.92,0,0,1-.51,2.22,1.81,1.81,0,0,1-1.59.72,1.85,1.85,0,0,1-1.59-.71,3.69,3.69,0,0,1-.53-2.12V98.05a3.81,3.81,0,0,1,.51-2.19,1.82,1.82,0,0,1,1.6-.72,1.83,1.83,0,0,1,1.59.7A3.66,3.66,0,0,1,27.6,98Zm-.85-1.16a3.1,3.1,0,0,0-.3-1.57,1.17,1.17,0,0,0-1.91,0,3.07,3.07,0,0,0-.31,1.51V99.2a3.27,3.27,0,0,0,.31,1.6,1,1,0,0,0,1,.52,1,1,0,0,0,.93-.49,3.06,3.06,0,0,0,.32-1.53Z" fill="#454c53"/><path d="M35.43,101.92H31.05v-.61l2.31-2.57a5.85,5.85,0,0,0,.71-.95,1.55,1.55,0,0,0,.19-.75,1.2,1.2,0,0,0-.31-.86,1.1,1.1,0,0,0-.85-.34,1.3,1.3,0,0,0-1,.36,1.37,1.37,0,0,0-.35,1h-.85a2,2,0,0,1,.59-1.5,2.21,2.21,0,0,1,1.59-.57,2.16,2.16,0,0,1,1.48.49,1.68,1.68,0,0,1,.54,1.3,3.79,3.79,0,0,1-1.26,2.35l-1.79,2h3.36Z" fill="#454c53"/><path d="M47.56,99.07a3.92,3.92,0,0,1-.51,2.22,2.11,2.11,0,0,1-3.17,0,3.68,3.68,0,0,1-.54-2.12V98.05a3.81,3.81,0,0,1,.51-2.19,2.15,2.15,0,0,1,3.19,0A3.66,3.66,0,0,1,47.56,98Zm-.85-1.16a3.1,3.1,0,0,0-.3-1.57,1.17,1.17,0,0,0-1.91,0,3.07,3.07,0,0,0-.31,1.51V99.2a3.15,3.15,0,0,0,.32,1.6,1,1,0,0,0,1,.52,1,1,0,0,0,.93-.49,3,3,0,0,0,.32-1.53Z" fill="#454c53"/><path d="M55.2,99.07a3.92,3.92,0,0,1-.51,2.22,1.81,1.81,0,0,1-1.59.72,1.85,1.85,0,0,1-1.59-.71A3.69,3.69,0,0,1,51,99.18V98.05a3.81,3.81,0,0,1,.51-2.19,2.15,2.15,0,0,1,3.19,0A3.66,3.66,0,0,1,55.2,98Zm-.85-1.16a3.1,3.1,0,0,0-.3-1.57,1.17,1.17,0,0,0-1.91,0,3.07,3.07,0,0,0-.31,1.51V99.2a3.15,3.15,0,0,0,.32,1.6,1.13,1.13,0,0,0,1.88,0,3,3,0,0,0,.32-1.53Z" fill="#454c53"/><path d="M62.84,99.07a3.92,3.92,0,0,1-.51,2.22,1.81,1.81,0,0,1-1.59.72,1.85,1.85,0,0,1-1.59-.71,3.69,3.69,0,0,1-.53-2.12V98.05a3.81,3.81,0,0,1,.51-2.19,1.82,1.82,0,0,1,1.6-.72,1.8,1.8,0,0,1,1.58.7A3.66,3.66,0,0,1,62.84,98ZM62,97.91a3.1,3.1,0,0,0-.3-1.57,1.06,1.06,0,0,0-1-.5,1,1,0,0,0-.95.49,3.07,3.07,0,0,0-.31,1.51V99.2a3.16,3.16,0,0,0,.31,1.6,1,1,0,0,0,1,.52,1,1,0,0,0,.93-.49A3.06,3.06,0,0,0,62,99.3Z" fill="#454c53"/><path d="M67.52,98.16h.64a1.38,1.38,0,0,0,.94-.31,1.06,1.06,0,0,0,.35-.83,1,1,0,0,0-1.17-1.18,1.22,1.22,0,0,0-.88.32,1.08,1.08,0,0,0-.33.83h-.85a1.69,1.69,0,0,1,.58-1.32,2.13,2.13,0,0,1,1.48-.53,2.1,2.1,0,0,1,1.48.5A1.82,1.82,0,0,1,70.3,97a1.51,1.51,0,0,1-.28.84,1.72,1.72,0,0,1-.77.61,1.69,1.69,0,0,1,.85.58,1.62,1.62,0,0,1,.3,1,1.81,1.81,0,0,1-.59,1.42,2.16,2.16,0,0,1-1.53.53,2.26,2.26,0,0,1-1.53-.51,1.7,1.7,0,0,1-.59-1.34H67a1.08,1.08,0,0,0,.34.84,1.32,1.32,0,0,0,.92.32,1.29,1.29,0,0,0,.94-.32,1.26,1.26,0,0,0,.33-.93,1.12,1.12,0,0,0-.36-.89,1.51,1.51,0,0,0-1-.32h-.64Z" fill="#454c53"/><path d="M82.8,99.07a3.92,3.92,0,0,1-.51,2.22,2.11,2.11,0,0,1-3.17,0,3.68,3.68,0,0,1-.54-2.12V98.05a3.81,3.81,0,0,1,.51-2.19,2.15,2.15,0,0,1,3.19,0A3.66,3.66,0,0,1,82.8,98ZM82,97.91a3.1,3.1,0,0,0-.3-1.57,1.17,1.17,0,0,0-1.91,0,3.07,3.07,0,0,0-.31,1.51V99.2a3.15,3.15,0,0,0,.32,1.6,1,1,0,0,0,1,.52,1,1,0,0,0,.93-.49A3,3,0,0,0,82,99.3Z" fill="#454c53"/><path d="M90.44,99.07a3.92,3.92,0,0,1-.51,2.22,1.81,1.81,0,0,1-1.59.72,1.85,1.85,0,0,1-1.59-.71,3.69,3.69,0,0,1-.53-2.12V98.05a3.81,3.81,0,0,1,.51-2.19,2.15,2.15,0,0,1,3.19,0A3.66,3.66,0,0,1,90.44,98Zm-.85-1.16a3.1,3.1,0,0,0-.3-1.57,1.05,1.05,0,0,0-1-.5,1,1,0,0,0-1,.49,3.07,3.07,0,0,0-.31,1.51V99.2a3.16,3.16,0,0,0,.31,1.6,1,1,0,0,0,1,.52,1,1,0,0,0,.93-.49,3.06,3.06,0,0,0,.32-1.53Z" fill="#454c53"/><path d="M98.08,99.07a3.92,3.92,0,0,1-.51,2.22,2.13,2.13,0,0,1-3.18,0,3.69,3.69,0,0,1-.53-2.12V98.05a3.81,3.81,0,0,1,.51-2.19,2.14,2.14,0,0,1,3.18,0A3.66,3.66,0,0,1,98.08,98Zm-.85-1.16a3,3,0,0,0-.31-1.57,1.16,1.16,0,0,0-1.9,0,3,3,0,0,0-.31,1.51V99.2a3.16,3.16,0,0,0,.31,1.6,1.14,1.14,0,0,0,1.89,0,3.06,3.06,0,0,0,.32-1.53Z" fill="#454c53"/><path d="M105.11,99.67H106v.7h-.93v1.55h-.86v-1.55h-3v-.5l3-4.63h.91Zm-2.93,0h2.07V96.4l-.1.18Z" fill="#454c53"/></g></g></svg>