<svg xmlns="http://www.w3.org/2000/svg" viewBox="0 0 140.07 119.38"><g id="Layer_2" data-name="Layer 2"><g id="OBJECTS"><ellipse cx="70.07" cy="103.27" rx="63" ry="14" fill="#2a5f1e"/><ellipse cx="103.57" cy="111.27" rx="36.5" ry="8.11" fill="#2a5f1e"/><path d="M48.73,25.47S23.92,30.33,11.44,43.21-6.19,79.46,11,96.5s50.72,10.89,58.84-3.17,4.41-32.76,2.33-43C70,37.66,64.63,33.05,64.63,33.05A28,28,0,0,0,48.73,25.47Z" fill="#ffddad"/><path d="M72.66,80.45a28.8,28.8,0,0,1-14.57,19.61C46.21,106.6,27.19,106.9,18,98.88a36.17,36.17,0,0,1-6.27-7.2q-.32-.45-.57-.9A17.93,17.93,0,0,1,17.5,66.15a40.9,40.9,0,0,1,16-5A24,24,0,0,0,54.65,39.22l.77-9.29,6.77,2.94,2.14.93C74.14,55.19,73.25,78.07,72.66,80.45Z" fill="#ffc17e"/><path d="M56.31,79.56c-6.26,8.8-19.75,15-31.3,15.3C9.2,95.27,2.34,74.61,15.6,66l.71-.43a40.57,40.57,0,0,1,16-5,24.07,24.07,0,0,0,21.18-22l.77-9.28L61,32.27C62.37,41.6,65.3,66.93,56.31,79.56Z" fill="#ffd097"/><path d="M86.92,16.86c-4,8.32-14.06,13.47-19.29,15.68-.61.26-1.14.47-1.6.64-1.07.41-1.7.62-1.7.62L50.66,27.11S49.77,2.44,52.25.41c5-1.47,13.07,1.19,20.17,4.92A57.57,57.57,0,0,1,83.81,13,11.49,11.49,0,0,1,86.92,16.86Z" fill="#ffddad"/><path d="M86.92,16.86c-4,8.32-14.06,13.47-19.29,15.68-.61.26-1.14.47-1.6.64l-8-4.44-3.17-4c0-.48,12.78-14.27,17.6-19.45A57.57,57.57,0,0,1,83.81,13,11.49,11.49,0,0,1,86.92,16.86Z" fill="#ffd097"/><path d="M86.92,16.86c-4,8.32-14.06,13.47-19.29,15.68L57.8,27c.89-1.19,15.45-12.48,14.86-10.1s-4.84,8.58-5,8.9C68,25.42,78,17.31,83.81,13A11.49,11.49,0,0,1,86.92,16.86Z" fill="#ffc17e"/><path d="M44.13,26c1,0,22.78,9.11,24.56,12.28a7.7,7.7,0,0,0,3-7.13S52.05,22.8,48.09,21.61C44.72,23.79,44.13,26,44.13,26Z" fill="#7e4a22"/><path d="M45.12,29.87c-9.71,2.35-18.75,5.8-26.34,12.48C12,48.3,4.47,57.38,3.84,66.77c-.16,2.4,2.93,2.53,4,1,2.59-3.5,4.39-7.58,6.85-11.18a56.3,56.3,0,0,1,8.7-9.86c6.48-5.85,14.23-11.09,22.86-12.91C48.87,33.29,47.72,29.24,45.12,29.87Z" fill="#ffe8c2"/><path d="M48.14,98c-4.33,1-8.4,2.57-12.94,2-1.31-.15-1.6,2.16-.28,2.33,4.87.61,10.08,1.09,14.56-1.41C51.18,100,49.88,97.57,48.14,98Z" fill="#fff7cb"/><path d="M70.06,76.57a1.21,1.21,0,0,0-2.38-.28C65.53,84.14,61.82,92.15,54.19,96c-1.36.69-.13,2.68,1.23,2C63.57,94,70.77,86.31,70.06,76.57Z" fill="#fff7cb"/><path d="M55.67,3.77a45.92,45.92,0,0,1-1.42,6.33,14.67,14.67,0,0,0-1,5.92c.16,1.49,2.38,2.39,3.13.76C58.05,13,57.26,8.36,58,4.36,58.22,2.86,55.9,2.28,55.67,3.77Z" fill="#fff7cb"/><path d="M41.35,65.64c-1-1.89-1.13-2.37-3.83-4.21L39,55.89a3.56,3.56,0,0,1,.27,2.53l4.79.42a8.29,8.29,0,0,0-3.84-7.63L41,48.27a15.77,15.77,0,0,0-2.21-.58,21.86,21.86,0,0,0-.68,2.42,12.14,12.14,0,0,0-2.15-.65l.62-2.35a17.28,17.28,0,0,0-2.21-.58,24.67,24.67,0,0,0-.77,2.75,9.44,9.44,0,0,0-6.34,2.81c-1.92,2-1.87,5.15.42,7.82a14.47,14.47,0,0,0,2.73,2.46c-.6,2.49-1.19,5-1.73,7.24a10.2,10.2,0,0,1-1.76-4.91,31.77,31.77,0,0,0-4.57,1s-.16,6.57,4.88,9.27l.15.08-.73,3.1,1.69.44L29,75.87a12.41,12.41,0,0,0,2.64.8c-.39,1.65-.62,2.66-.62,2.66l1.68.44.77-2.93a8.65,8.65,0,0,0,3.42-.74C40.51,74.53,43.62,69.93,41.35,65.64ZM36.52,53.75c.21.1.4.19.57.29-.45,1.84-1,4-1.49,6.14l-2.15-1.26,1.48-5.67A7,7,0,0,1,36.52,53.75Zm-5.81,1.32a3.41,3.41,0,0,1,1.83-1.66c-.32,1.29-.66,2.71-1,4.18C30.62,56.82,30.21,56,30.71,55.07Zm-.46,16.1,2-7.69a19.54,19.54,0,0,1,2.23,1.3c-.62,2.59-1.22,5.13-1.75,7.34A5.94,5.94,0,0,1,30.25,71.17Zm4.52.77,1.4-5.36C37.52,68.82,36.72,71.19,34.77,71.94Z" fill="#798a25"/><path d="M75.05,31.61s-18,17-21.53,34.24S58,105.09,81.17,110.13s47.66-17.61,47-33.51-13.55-29.41-20.67-36.81C99,30.53,92.18,29.53,92.18,29.53A27.41,27.41,0,0,0,75.05,31.61Z" fill="#ffddad"/><path d="M123.7,64.52A28.22,28.22,0,0,1,122,88.38c-6.4,11.64-22,21.87-33.8,20.07a35,35,0,0,1-9-2.66c-.33-.14-.64-.29-1-.45a17.55,17.55,0,0,1-7.66-23.7,39.85,39.85,0,0,1,10.58-12.5,23.57,23.57,0,0,0,6-29.27l-4.24-8.08,7.15-1.13,2.25-.36C111.66,42.85,122.94,62.24,123.7,64.52Z" fill="#ffc17e"/><path d="M109.71,72.36c-.56,10.56-8.46,22.77-17.85,29.08C79,110.08,62.48,96.59,68.93,82.51c.11-.25.23-.49.35-.74a39.86,39.86,0,0,1,10.59-12.5,23.57,23.57,0,0,0,6-29.27l-4.23-8.08,7.14-1.13C94.8,37.78,110.51,57.2,109.71,72.36Z" fill="#ffd097"/><path d="M102.11,4.44c1,9-4.55,18.52-7.72,23.1-.37.52-.7,1-1,1.37-.66.89-1.08,1.39-1.08,1.39L77.51,32S63.83,12,64.81,9c3.37-3.85,11.43-5.88,19.26-6.52a56.28,56.28,0,0,1,13.44.35A11.27,11.27,0,0,1,102.11,4.44Z" fill="#ffddad"/><path d="M102.11,4.44c1,9-4.55,18.52-7.72,23.1-.37.52-.7,1-1,1.37l-9,.54-4.7-1.61c-.26-.4,3.08-18.51,4.34-25.32a56.28,56.28,0,0,1,13.44.35A11.27,11.27,0,0,1,102.11,4.44Z" fill="#ffd097"/><path d="M102.11,4.44c1,9-4.55,18.52-7.72,23.1l-11.06.54c.11-1.45,6.23-18.43,7-16.15s.52,9.63.51,10C91,21.43,95,9.49,97.51,2.87A11.27,11.27,0,0,1,102.11,4.44Z" fill="#ffc17e"/><path d="M71.51,34.44c.81-.52,23.62-4.43,26.76-2.74A7.58,7.58,0,0,0,97,24.24s-20.59,3.42-24.49,4.51C70.85,32.32,71.51,34.44,71.51,34.44Z" fill="#7e4a22"/><path d="M74.38,37.14c-6.8,7-12.47,14.64-15.24,24.15-2.46,8.47-3.94,19.94.46,28,1.13,2.07,3.76.55,3.88-1.28.3-4.25-.35-8.57-.2-12.84a54.26,54.26,0,0,1,2-12.72c2.28-8.24,5.94-16.64,12.12-22.68C79.27,38,76.19,35.25,74.38,37.14Z" fill="#ffe8c2"/><path d="M112.61,91.87c-3,3.09-5.59,6.54-9.62,8.49-1.16.56-.18,2.62,1,2.07,4.34-2.05,8.91-4.39,11.3-8.81C116.19,91.94,113.84,90.63,112.61,91.87Z" fill="#fff7cb"/><path d="M119.51,62.67a1.19,1.19,0,0,0-2.12,1c2.35,7.62,3.48,16.19-.78,23.41-.76,1.28,1.3,2.28,2.07,1C123.32,80.52,125.21,70.35,119.51,62.67Z" fill="#fff7cb"/><path d="M69.4,10a43.42,43.42,0,0,1,2.14,6,14.56,14.56,0,0,0,2.24,5.44c.92,1.16,3.23.73,3-1-.54-4-3.65-7.45-5.17-11.13C71,7.93,68.8,8.67,69.4,10Z" fill="#fff7cb"/><path d="M90,68.7c-1.82-1-2.18-1.37-5.38-1.47L83,61.88a3.52,3.52,0,0,1,1.55,2l4.18-2.17a8.14,8.14,0,0,0-7.18-4.3l-.91-2.83a16.25,16.25,0,0,0-2.13.68,22.68,22.68,0,0,0,.71,2.36,11.7,11.7,0,0,0-2.12.59l-.72-2.27a15.08,15.08,0,0,0-2.14.69s.29,1.06.82,2.67a9.33,9.33,0,0,0-3.78,5.65c-.53,2.67,1.16,5.24,4.46,6.24a14,14,0,0,0,3.54.61l2.38,6.89a10,10,0,0,1-4-3.14,32,32,0,0,0-3.24,3.25s3.32,5.52,8.9,5.11l.17,0,1,3,1.63-.52-.85-2.65a12.91,12.91,0,0,0,2.62-.72l.87,2.52,1.63-.52-.91-2.83a8.42,8.42,0,0,0,2.44-2.4C94,76.49,94.16,71.06,90,68.7ZM79.8,61.4l.62-.06c.59,1.76,1.28,3.77,2,5.87L80,67.29l-1.75-5.47A7.08,7.08,0,0,1,79.8,61.4Zm-4.11,4.14a3.27,3.27,0,0,1,.64-2.33c.41,1.24.87,2.59,1.35,4C76.53,67,75.77,66.59,75.69,65.54ZM83.75,79.1l-2.37-7.41a18.37,18.37,0,0,1,2.53-.1l2.41,7A5.94,5.94,0,0,1,83.75,79.1Zm4.15-1.74L86.25,72.2C88.53,73.34,89.12,75.72,87.9,77.36Z" fill="#798a25"/><path d="M87.17,104.58l.76,3.46s1.93,2.13,9.4,1.9c7.86-.23,8.29-2.43,8.29-2.43l.2-3.2Z" fill="#ffbc00"/><path d="M105.38,103.56c-1.76-1.49-7.53-1.73-8.32-1.75-5.89-.14-9.18.54-9.76,2.26-.72,2.12,4.34,2.87,5.54,3.08a27.23,27.23,0,0,0,10.14-.34,4.28,4.28,0,0,0,2.32-1.08C106.14,104.81,106,104.1,105.38,103.56Z" fill="#ffe506"/><path d="M89.39,104.59c-.8-.83,1.15-1.91,6.24-2s8,.94,8.31,1.88C104.35,105.72,91.42,106.71,89.39,104.59Z" fill="#ffd300"/><path d="M86.69,98.69l.76,3.46s1.93,2.13,9.41,1.9c7.85-.23,8.29-2.43,8.29-2.43l.19-3.2Z" fill="#ffbc00"/><path d="M104.91,97.67c-1.77-1.49-7.53-1.73-8.33-1.75-5.89-.15-9.17.54-9.76,2.26-.71,2.12,4.34,2.87,5.55,3.08a27.25,27.25,0,0,0,10.14-.34,4.28,4.28,0,0,0,2.31-1.08C105.66,98.92,105.55,98.21,104.91,97.67Z" fill="#ffe506"/><path d="M88.91,98.7c-.79-.83,1.15-1.91,6.24-2s8,.94,8.31,1.88C103.88,99.83,90.94,100.82,88.91,98.7Z" fill="#ffd300"/><path d="M81.12,95.82l.76,3.46s1.93,2.13,9.4,1.91c7.86-.24,8.29-2.43,8.29-2.43l.2-3.2Z" fill="#ffbc00"/><path d="M99.33,94.81c-1.76-1.5-7.53-1.73-8.32-1.75-5.89-.15-9.18.53-9.76,2.26-.72,2.12,4.34,2.87,5.54,3.07a26.82,26.82,0,0,0,10.14-.34A4.21,4.21,0,0,0,99.25,97C100.09,96.05,100,95.35,99.33,94.81Z" fill="#ffe506"/><path d="M83.34,95.83c-.8-.83,1.15-1.9,6.24-2s8,.93,8.31,1.87C98.3,97,85.37,98,83.34,95.83Z" fill="#ffd300"/><path d="M82.55,91.84l.76,3.46s1.93,2.13,9.41,1.91c7.85-.24,8.29-2.43,8.29-2.43l.19-3.2Z" fill="#ffbc00"/><path d="M100.77,90.83c-1.77-1.5-7.53-1.74-8.33-1.75-5.88-.15-9.17.53-9.76,2.26C82,93.46,87,94.21,88.23,94.41a26.83,26.83,0,0,0,10.14-.34A4.21,4.21,0,0,0,100.68,93C101.52,92.07,101.41,91.37,100.77,90.83Z" fill="#ffe506"/><path d="M84.77,91.85C84,91,85.92,90,91,89.87s8,.93,8.31,1.87C99.74,93,86.8,94,84.77,91.85Z" fill="#ffd300"/><path d="M84.62,87.54,85.38,91s1.93,2.13,9.41,1.91c7.85-.24,8.29-2.43,8.29-2.43l.19-3.2Z" fill="#ffbc00"/><path d="M102.84,86.53c-1.77-1.49-7.53-1.73-8.33-1.75-5.89-.15-9.17.53-9.76,2.26-.71,2.12,4.34,2.87,5.55,3.07a26.83,26.83,0,0,0,10.14-.34,4.21,4.21,0,0,0,2.31-1.08C103.59,87.77,103.48,87.07,102.84,86.53Z" fill="#ffe506"/><path d="M86.84,87.55c-.79-.83,1.15-1.9,6.24-2s8,.93,8.31,1.87C101.81,88.68,88.87,89.68,86.84,87.55Z" fill="#ffd300"/><path d="M84,86.59l.76,3.46s1.93,2.13,9.41,1.9c7.86-.23,8.29-2.43,8.29-2.43l.19-3.2Z" fill="#ffbc00"/><path d="M102.2,85.57c-1.77-1.49-7.53-1.73-8.33-1.75-5.88-.15-9.17.54-9.75,2.26-.72,2.12,4.33,2.87,5.54,3.08a27.25,27.25,0,0,0,10.14-.34,4.31,4.31,0,0,0,2.32-1.08C103,86.82,102.84,86.11,102.2,85.57Z" fill="#ffe506"/><path d="M86.2,86.6c-.79-.83,1.15-1.91,6.24-2s8,.94,8.31,1.88C101.17,87.72,88.23,88.72,86.2,86.6Z" fill="#ffd300"/><path d="M100,108.59l.76,3.47s1.93,2.12,9.41,1.9c7.86-.24,8.29-2.43,8.29-2.43l.2-3.2Z" fill="#ffbc00"/><path d="M118.22,107.58c-1.77-1.49-7.53-1.73-8.33-1.75-5.88-.15-9.17.54-9.75,2.26-.72,2.12,4.34,2.87,5.54,3.07a26.82,26.82,0,0,0,10.14-.34,4.14,4.14,0,0,0,2.32-1.08C119,108.83,118.86,108.12,118.22,107.58Z" fill="#ffe506"/><path d="M102.22,108.6c-.79-.83,1.15-1.9,6.24-2s8,.93,8.31,1.88C117.19,109.73,104.25,110.73,102.22,108.6Z" fill="#ffd300"/><path d="M102.88,103.84l.76,3.46s1.93,2.13,9.41,1.9c7.85-.23,8.29-2.43,8.29-2.43l.19-3.2Z" fill="#ffbc00"/><path d="M121.1,102.82c-1.77-1.49-7.53-1.73-8.33-1.75-5.88-.15-9.17.54-9.76,2.26-.71,2.12,4.34,2.87,5.55,3.08a27.25,27.25,0,0,0,10.14-.34A4.35,4.35,0,0,0,121,105C121.85,104.07,121.74,103.36,121.1,102.82Z" fill="#ffe506"/><path d="M105.1,103.85c-.79-.83,1.15-1.91,6.24-2s8,.94,8.31,1.88C120.07,105,107.13,106,105.1,103.85Z" fill="#ffd300"/><path d="M99.12,99.74l.76,3.46s1.93,2.13,9.41,1.91c7.85-.24,8.28-2.43,8.28-2.43l.2-3.2Z" fill="#ffbc00"/><path d="M117.34,98.73C115.57,97.24,109.8,97,109,97c-5.89-.15-9.18.53-9.76,2.26-.71,2.12,4.34,2.87,5.55,3.07a26.78,26.78,0,0,0,10.13-.34,4.21,4.21,0,0,0,2.32-1.08C118.09,100,118,99.27,117.34,98.73Z" fill="#ffe506"/><path d="M101.34,99.75c-.79-.83,1.15-1.9,6.24-2s8,.93,8.31,1.87C116.3,100.88,103.37,101.88,101.34,99.75Z" fill="#ffd300"/><path d="M99.89,94.65l.76,3.46s1.93,2.13,9.41,1.91c7.86-.24,8.29-2.43,8.29-2.43l.19-3.2Z" fill="#ffbc00"/><path d="M118.11,93.64c-1.77-1.49-7.53-1.73-8.33-1.75-5.88-.15-9.17.53-9.75,2.26-.72,2.12,4.33,2.87,5.54,3.07a26.82,26.82,0,0,0,10.14-.34A4.24,4.24,0,0,0,118,95.8C118.86,94.88,118.75,94.18,118.11,93.64Z" fill="#ffe506"/><path d="M102.11,94.66c-.79-.83,1.15-1.9,6.24-2s8,.93,8.31,1.87C117.08,95.79,104.14,96.79,102.11,94.66Z" fill="#ffd300"/><path d="M99.45,89.78l.76,3.47s1.93,2.12,9.41,1.9c7.85-.24,8.29-2.43,8.29-2.43l.19-3.2Z" fill="#ffbc00"/><path d="M117.67,88.77c-1.77-1.49-7.53-1.73-8.33-1.75-5.88-.15-9.17.54-9.76,2.26-.71,2.12,4.34,2.87,5.55,3.07A26.83,26.83,0,0,0,115.27,92a4.28,4.28,0,0,0,2.32-1.08C118.42,90,118.31,89.31,117.67,88.77Z" fill="#ffe506"/><path d="M101.67,89.79c-.79-.83,1.15-1.9,6.24-2s8,.93,8.31,1.87C116.64,90.92,103.7,91.92,101.67,89.79Z" fill="#ffd300"/><path d="M99.45,87.13l.76,3.46s1.93,2.13,9.41,1.9c7.85-.23,8.29-2.43,8.29-2.43l.19-3.2Z" fill="#ffbc00"/><path d="M117.67,86.11c-1.77-1.49-7.53-1.73-8.33-1.75-5.88-.15-9.17.54-9.76,2.26-.71,2.12,4.34,2.87,5.55,3.08a27.25,27.25,0,0,0,10.14-.34,4.35,4.35,0,0,0,2.32-1.08C118.42,87.36,118.31,86.65,117.67,86.11Z" fill="#ffe506"/><path d="M101.67,87.14c-.79-.83,1.15-1.91,6.24-2s8,.94,8.31,1.88C116.64,88.27,103.7,89.26,101.67,87.14Z" fill="#ffd300"/><path d="M99.67,84l.76,3.46s1.93,2.13,9.41,1.9c7.86-.23,8.29-2.42,8.29-2.42l.19-3.2Z" fill="#ffbc00"/><path d="M117.89,83c-1.77-1.5-7.53-1.74-8.33-1.76-5.88-.14-9.17.54-9.75,2.26-.72,2.12,4.33,2.87,5.54,3.08a26.83,26.83,0,0,0,10.14-.34,4.31,4.31,0,0,0,2.32-1.08C118.64,84.26,118.53,83.56,117.89,83Z" fill="#ffe506"/><path d="M101.89,84c-.79-.83,1.15-1.9,6.24-2s8,.93,8.31,1.87C116.86,85.17,103.92,86.16,101.89,84Z" fill="#ffd300"/><path d="M99.45,80.71l.76,3.46s1.93,2.13,9.41,1.91c7.85-.24,8.29-2.43,8.29-2.43l.19-3.2Z" fill="#ffbc00"/><path d="M117.67,79.7c-1.77-1.5-7.53-1.74-8.33-1.76-5.88-.14-9.17.54-9.76,2.26-.71,2.13,4.34,2.88,5.55,3.08a26.83,26.83,0,0,0,10.14-.34,4.35,4.35,0,0,0,2.32-1.08C118.42,80.94,118.31,80.24,117.67,79.7Z" fill="#ffe506"/><path d="M101.67,80.72c-.79-.83,1.15-1.9,6.24-2s8,.93,8.31,1.87C116.64,81.85,103.7,82.84,101.67,80.72Z" fill="#ffd300"/><path d="M99.67,77.28l.76,3.46s1.93,2.13,9.41,1.91c7.86-.24,8.29-2.43,8.29-2.43l.19-3.2Z" fill="#ffbc00"/><path d="M117.89,76.27c-1.77-1.5-7.53-1.74-8.33-1.76-5.88-.14-9.17.54-9.75,2.26-.72,2.13,4.33,2.88,5.54,3.08a26.83,26.83,0,0,0,10.14-.34,4.31,4.31,0,0,0,2.32-1.08C118.64,77.51,118.53,76.81,117.89,76.27Z" fill="#ffe506"/><path d="M101.89,77.29c-.79-.83,1.15-1.9,6.24-2s8,.93,8.31,1.87C116.86,78.42,103.92,79.41,101.89,77.29Z" fill="#ffd300"/><path d="M103.65,74l.76,3.46s1.93,2.13,9.41,1.91c7.86-.24,8.29-2.43,8.29-2.43l.2-3.2Z" fill="#ffbc00"/><path d="M121.87,73c-1.76-1.5-7.53-1.74-8.32-1.76-5.89-.14-9.18.54-9.76,2.27-.72,2.12,4.34,2.87,5.54,3.07a26.82,26.82,0,0,0,10.14-.34,4.28,4.28,0,0,0,2.32-1.08C122.63,74.19,122.51,73.49,121.87,73Z" fill="#ffe506"/><path d="M105.87,74c-.79-.83,1.15-1.9,6.25-2s8,.93,8.3,1.87C120.84,75.1,107.91,76.1,105.87,74Z" fill="#ffd300"/><path d="M115.83,109l.76,3.46s1.93,2.13,9.4,1.9c7.86-.23,8.29-2.43,8.29-2.43l.2-3.2Z" fill="#ffbc00"/><path d="M134,108c-1.76-1.49-7.53-1.73-8.32-1.75-5.89-.15-9.18.54-9.76,2.26-.72,2.12,4.34,2.87,5.54,3.08a27.23,27.23,0,0,0,10.14-.34,4.28,4.28,0,0,0,2.32-1.08C134.8,109.27,134.68,108.56,134,108Z" fill="#ffe506"/><path d="M118.05,109.05c-.8-.83,1.15-1.91,6.24-2s8,.94,8.31,1.88C133,110.17,120.08,111.17,118.05,109.05Z" fill="#ffd300"/><path d="M112.62,104.28l.76,3.46s1.93,2.13,9.41,1.9c7.85-.23,8.28-2.43,8.28-2.43l.2-3.2Z" fill="#ffbc00"/><path d="M130.83,103.26c-1.76-1.49-7.53-1.73-8.32-1.75-5.89-.14-9.18.54-9.76,2.26-.71,2.12,4.34,2.87,5.55,3.08a27.19,27.19,0,0,0,10.13-.34,4.28,4.28,0,0,0,2.32-1.08C131.59,104.51,131.47,103.81,130.83,103.26Z" fill="#ffe506"/><path d="M114.84,104.29c-.79-.83,1.15-1.91,6.24-2s8,.94,8.31,1.88C129.8,105.42,116.87,106.41,114.84,104.29Z" fill="#ffd300"/><path d="M117,99.52l.76,3.46s1.93,2.13,9.41,1.91c7.86-.24,8.29-2.43,8.29-2.43l.2-3.2Z" fill="#ffbc00"/><path d="M135.26,98.51c-1.77-1.5-7.53-1.74-8.33-1.75-5.88-.15-9.17.53-9.75,2.26-.72,2.12,4.34,2.87,5.54,3.07a26.82,26.82,0,0,0,10.14-.34,4.21,4.21,0,0,0,2.32-1.08C136,99.75,135.9,99.05,135.26,98.51Z" fill="#ffe506"/><path d="M119.26,99.53c-.79-.83,1.15-1.9,6.24-2s8,.93,8.31,1.87C134.23,100.66,121.29,101.66,119.26,99.53Z" fill="#ffd300"/><path d="M111.62,96.42l.76,3.46s1.93,2.13,9.41,1.91c7.86-.24,8.29-2.43,8.29-2.43l.19-3.2Z" fill="#ffbc00"/><path d="M129.84,95.41c-1.77-1.49-7.53-1.73-8.33-1.75-5.88-.15-9.17.53-9.75,2.26C111,98,116.09,98.79,117.3,99a26.83,26.83,0,0,0,10.14-.34,4.24,4.24,0,0,0,2.32-1.08C130.59,96.65,130.48,96,129.84,95.41Z" fill="#ffe506"/><path d="M113.84,96.43c-.79-.83,1.15-1.9,6.24-2s8,.93,8.31,1.87C128.81,97.56,115.87,98.56,113.84,96.43Z" fill="#ffd300"/><path d="M111.84,91.89l.76,3.46s1.93,2.13,9.41,1.9c7.86-.24,8.29-2.43,8.29-2.43l.19-3.2Z" fill="#ffbc00"/><path d="M130.06,90.87c-1.77-1.49-7.53-1.73-8.33-1.75-5.88-.15-9.17.54-9.75,2.26-.72,2.12,4.34,2.87,5.54,3.08a27.23,27.23,0,0,0,10.14-.34A4.28,4.28,0,0,0,130,93C130.82,92.12,130.7,91.41,130.06,90.87Z" fill="#ffe506"/><path d="M114.06,91.89c-.79-.82,1.15-1.9,6.24-2s8,.94,8.31,1.88C129,93,116.09,94,114.06,91.89Z" fill="#ffd300"/><path d="M112.17,87.9l.76,3.46s1.94,2.13,9.41,1.91c7.86-.24,8.29-2.43,8.29-2.43l.2-3.2Z" fill="#ffbc00"/><path d="M130.39,86.89c-1.76-1.49-7.53-1.73-8.32-1.75-5.89-.15-9.18.53-9.76,2.26-.72,2.12,4.34,2.87,5.54,3.07A26.82,26.82,0,0,0,128,90.13a4.21,4.21,0,0,0,2.32-1.08C131.15,88.13,131,87.43,130.39,86.89Z" fill="#ffe506"/><path d="M114.39,87.91c-.79-.83,1.15-1.9,6.25-2s8,.93,8.3,1.87C129.36,89,116.43,90,114.39,87.91Z" fill="#ffd300"/><path d="M115.38,82.81l.76,3.46s1.93,2.13,9.41,1.91c7.86-.24,8.29-2.43,8.29-2.43l.2-3.2Z" fill="#ffbc00"/><path d="M133.6,81.8c-1.76-1.49-7.53-1.73-8.32-1.75-5.89-.15-9.18.53-9.76,2.26-.72,2.12,4.34,2.87,5.54,3.07A26.82,26.82,0,0,0,131.2,85,4.21,4.21,0,0,0,133.52,84C134.36,83,134.24,82.34,133.6,81.8Z" fill="#ffe506"/><path d="M117.6,82.82c-.79-.83,1.15-1.9,6.24-2s8,.93,8.31,1.87C132.57,84,119.63,85,117.6,82.82Z" fill="#ffd300"/></g></g></svg>