<svg xmlns="http://www.w3.org/2000/svg" viewBox="0 0 210.21 248.53"><g id="Layer_2" data-name="Layer 2"><g id="Character"><path d="M188.33,64.63a9.76,9.76,0,0,0,7.06-9.75c-.12-2-.85-3.86-.77-5.82.13-3,2.15-5.61,3.67-8.25s2.54-6.11.77-8.59c-1.15-1.6-3.18-2.33-4.57-3.73s-2-3.27-2.73-5.06-1.68-3.64-3.36-4.59-4.25-.53-4.93,1.27" fill="#263238"/><path d="M170.16,15.3c3-1.9,3.72-6.31,2.1-9.47S167.19.76,163.68.19a16.34,16.34,0,0,0-14.07,4.67c-1.93,2-3.49,4.59-6.12,5.5-2.3.8-4.85.08-7.27.39a11,11,0,0,0-7.68,5.54,23.7,23.7,0,0,0-2.74,9.35c-.35,3-.58,6.25-2.65,8.43s-5.2,2.57-7.71,4.08a10.55,10.55,0,0,0-3.14,14.41c1,1.45,2.42,2.78,2.54,4.53.1,1.6-.93,3-1.42,4.55a7.14,7.14,0,0,0,6.1,8.85c2.08.11,4.31-.7,6.17.23s2.54,3.16,3.73,4.86a8.89,8.89,0,0,0,10.86,2.8c1.53-.75,3-2,4.67-1.87s3,1.56,4.71,1.89c2.18.42,4.26-1.19,5.56-3s2.2-3.94,3.87-5.42c2.17-1.93,5.23-2.41,8-3.36A22.55,22.55,0,0,0,179.81,35" fill="#263238"/><path d="M176.74,19.23A4.79,4.79,0,0,1,181,24.1h0l-2.85,64.67c-.12,7.64-11.29,11.93-19.46,11.74h0c-8.26-.19-8.53-4.24-8.63-11.51-.17-12.14-.16-16.7-.16-16.63S139.47,70.62,137.34,57c-1.06-6.78-.69-17.88-.1-26.95.53-8.17,6-18.18,14.1-17.3Z" fill="#ffbe9d"/><path d="M140.23,38.87a1.75,1.75,0,0,0,1.68,1.76,1.68,1.68,0,0,0,1.81-1.57A1.76,1.76,0,0,0,142,37.29,1.68,1.68,0,0,0,140.23,38.87Z" fill="#263238"/><path d="M139.63,35.83c.22.23,1.54-.75,3.42-.74s3.26.95,3.46.72-.12-.51-.72-1A4.83,4.83,0,0,0,143,34a4.65,4.65,0,0,0-2.73.88C139.72,35.32,139.53,35.73,139.63,35.83Z" fill="#263238"/><path d="M159,38.87a1.75,1.75,0,0,0,1.68,1.76,1.68,1.68,0,0,0,1.81-1.57,1.76,1.76,0,0,0-1.68-1.77A1.68,1.68,0,0,0,159,38.87Z" fill="#263238"/><path d="M158.1,36.22c.22.23,1.54-.74,3.42-.74s3.26,1,3.46.73-.12-.52-.72-1a4.87,4.87,0,0,0-2.77-.86,4.64,4.64,0,0,0-2.72.88C158.19,35.71,158,36.12,158.1,36.22Z" fill="#263238"/><path d="M151.25,50.14a13,13,0,0,0-3.05-.56c-.48,0-.93-.14-1-.47a2.48,2.48,0,0,1,.32-1.42c.46-1.16.93-2.38,1.43-3.65,2-5.2,3.42-9.47,3.21-9.55s-2,4.07-4,9.27c-.48,1.28-.94,2.5-1.37,3.67a2.74,2.74,0,0,0-.25,1.88,1.24,1.24,0,0,0,.78.71,3.26,3.26,0,0,0,.82.11A11.81,11.81,0,0,0,151.25,50.14Z" fill="#263238"/><path d="M149.91,72.37a34.66,34.66,0,0,0,18.24-4.82s-4.62,9.6-18.24,8.3Z" fill="#eb996e"/><path d="M152,54.67a3.37,3.37,0,0,1,3-1.25,3.13,3.13,0,0,1,2.14,1.15,2,2,0,0,1,.14,2.24,2.27,2.27,0,0,1-2.46.62,7.12,7.12,0,0,1-2.4-1.44,2.06,2.06,0,0,1-.54-.56.63.63,0,0,1,0-.7" fill="#e8505b"/><path d="M156.78,51.45c-.31,0-.32,2-2.06,3.47s-3.92,1.21-3.94,1.5c0,.13.48.4,1.4.42a5.06,5.06,0,0,0,3.29-1.13,4.51,4.51,0,0,0,1.6-2.91C157.14,52,156.92,51.44,156.78,51.45Z" fill="#263238"/><path d="M157.26,32.93c.19.51,2.06.27,4.27.54s4,.88,4.28.42c.13-.22-.18-.7-.9-1.19a7,7,0,0,0-3.17-1.12,7.21,7.21,0,0,0-3.34.38C157.59,32.29,157.18,32.69,157.26,32.93Z" fill="#263238"/><path d="M140.34,30.39c.33.43,1.62,0,3.18,0s2.87.3,3.18-.15c.13-.21-.08-.64-.65-1.05a4.46,4.46,0,0,0-2.59-.7,4.38,4.38,0,0,0-2.54.85C140.37,29.75,140.19,30.19,140.34,30.39Z" fill="#263238"/><path d="M167.8,14.8a13.28,13.28,0,0,1,10.8-2c3.63,1.05,6.64,4.32,6.76,8,.08,2.41-1,5,.11,7.13s3.52,2.91,5.29,4.4a8.12,8.12,0,0,1,1.88,9.82c-1.48,2.73-4.61,4.73-4.87,7.81-.25,2.9,2.2,5.35,2.79,8.2.66,3.15-1.08,6.4-3.58,8.48s-5.64,3.24-8.73,4.35c-2.4.86-5,1.74-7.47,1.18a7.67,7.67,0,0,1-5.6-6.39A10.38,10.38,0,0,1,168,57.56c1.75-1.93,4.2-3.56,4.62-6.1.65-4-4.06-7.22-3.77-11.22.15-2.06,1.6-3.77,2.81-5.46S174,31,173.21,29c-1-2.52-4.28-3.17-6.28-5a6.12,6.12,0,0,1-1.67-6.19,6.32,6.32,0,0,1,4.94-4.21" fill="#263238"/><path d="M169.27,11.73a9.32,9.32,0,0,1-11,9.2c-2.08-.38-4.36-1.43-6.16-.32s-2,4-3.65,5.48c-2.4,2.08-6.22.13-9.27,1-2.35.7-3.82,2.95-5.38,4.84s-3.91,3.69-6.26,3a27.7,27.7,0,0,1,.93-6.28,9.29,9.29,0,0,1,3.57-5.11c1-.64,2.1-1,3-1.75,2-1.58,2.4-4.32,3.61-6.52a10.18,10.18,0,0,1,7.78-5.16c2.67-.28,5.43.53,8-.13,1.93-.49,3.62-1.74,5.58-2.11,3.8-.73,7.34,2,10.1,4.73" fill="#263238"/><path d="M194.14,44.28a3,3,0,0,0,.3-1.57,4,4,0,0,0-2.74-3.13,20.21,20.21,0,0,0-3-.81,8.75,8.75,0,0,1-3.39-1.39,4.81,4.81,0,0,1-1.76-3.65,38.57,38.57,0,0,1,.21-4.28,9.7,9.7,0,0,0-.11-2.1,4.31,4.31,0,0,0-.8-1.78,6.78,6.78,0,0,0-3.28-1.88,15.51,15.51,0,0,1-3.34-1.44,12,12,0,0,1-2.46-2,11.53,11.53,0,0,1-2.4-3.88,7.51,7.51,0,0,1-.35-1.19c-.06-.28-.08-.43-.06-.43s.18.56.6,1.54A12,12,0,0,0,174,20a12.27,12.27,0,0,0,5.69,3.25,7.26,7.26,0,0,1,3.52,2,5,5,0,0,1,.91,2,10.34,10.34,0,0,1,.12,2.22,39.21,39.21,0,0,0-.22,4.23,4.31,4.31,0,0,0,1.55,3.3,8.43,8.43,0,0,0,3.19,1.35,19.85,19.85,0,0,1,3,.89A4.84,4.84,0,0,1,194,40.82a3.63,3.63,0,0,1,.69,1.87,2.33,2.33,0,0,1-.25,1.24A.9.9,0,0,1,194.14,44.28Z" fill="#455a64"/><path d="M113.94,52.78l-.22-.11a1.35,1.35,0,0,1-.51-.51,2.74,2.74,0,0,1,.27-2.69,3.66,3.66,0,0,1,1.46-1.4,18.74,18.74,0,0,1,2.19-.92,6.67,6.67,0,0,0,2.29-1.3,4.93,4.93,0,0,0,1.31-2.58c.23-1,.3-2.14.48-3.3a7.26,7.26,0,0,1,1.35-3.43c1.59-2.09,4.19-3.2,6.12-5.16a9.31,9.31,0,0,0,2.13-3.61,24.27,24.27,0,0,0,1-4.36c.43-3,.85-6.34,2.86-9.08a6.67,6.67,0,0,1,4.11-2.65,14.43,14.43,0,0,1,4.74.12,17.64,17.64,0,0,0,4.43.26,5.73,5.73,0,0,0,3.62-1.87c1.86-2,2.93-4.71,5.21-6.09a8.7,8.7,0,0,1,6.88-.94,7.62,7.62,0,0,1,4.53,3.52,8.51,8.51,0,0,1,1.17,4.19,7.3,7.3,0,0,1-.43,2.73,5,5,0,0,1-.4.87s.12-.31.3-.91a7.71,7.71,0,0,0,.33-2.68,8.5,8.5,0,0,0-1.22-4.06,7.39,7.39,0,0,0-4.38-3.31,8.36,8.36,0,0,0-6.55,1,9.43,9.43,0,0,0-2.62,2.71,30.49,30.49,0,0,1-2.47,3.34,6.69,6.69,0,0,1-1.74,1.36,6.47,6.47,0,0,1-2.16.67,17.56,17.56,0,0,1-4.57-.25,14,14,0,0,0-4.57-.11,6.1,6.1,0,0,0-3.79,2.46,12.58,12.58,0,0,0-2,4.26,42.71,42.71,0,0,0-.82,4.58,25.41,25.41,0,0,1-1,4.45A9.81,9.81,0,0,1,129,31.71c-2.06,2-4.63,3.13-6.12,5.09a6.72,6.72,0,0,0-1.3,3.24c-.2,1.13-.27,2.25-.52,3.31a5.2,5.2,0,0,1-1.44,2.74,6.84,6.84,0,0,1-2.42,1.33,22.23,22.23,0,0,0-2.17.87,3.39,3.39,0,0,0-1.4,1.29,2.64,2.64,0,0,0-.36,2.53A2.26,2.26,0,0,0,113.94,52.78Z" fill="#455a64"/><path d="M80.53,146.51l24.15-2.21s14.86-39.15,33.19-48.64l11.86,20.73-25.4,47.74H74.72Z" fill="#e8505b"/><path d="M80.53,146.51l24.15-2.21s14.86-39.15,33.19-48.64l11.86,20.73-25.4,47.74H74.72Z" opacity="0.3"/><path d="M90.07,157.57a19,19,0,0,1,2-3.91A18.84,18.84,0,0,1,94.59,150a18.72,18.72,0,0,1-2,3.91A18.84,18.84,0,0,1,90.07,157.57Z" fill="#fafafa"/><path d="M107.18,157.09a18.22,18.22,0,0,1-3-3.25,18.08,18.08,0,0,1-2.54-3.58,19.13,19.13,0,0,1,3,3.25A19.16,19.16,0,0,1,107.18,157.09Z" fill="#fafafa"/><path d="M110.15,148.12a10,10,0,0,1-.26-3.17,10,10,0,0,1,.26-3.17,9.68,9.68,0,0,1,.26,3.17A9.68,9.68,0,0,1,110.15,148.12Z" fill="#fafafa"/><path d="M101.65,162.12a6.76,6.76,0,0,1-2.31-1.2c-1.19-.78-2.1-1.51-2-1.64a6.76,6.76,0,0,1,2.31,1.2C100.83,161.27,101.73,162,101.65,162.12Z" fill="#fafafa"/><path d="M115.52,126.13a21.42,21.42,0,0,1-1.67,4.36,21.11,21.11,0,0,1-2.14,4.15,20.73,20.73,0,0,1,1.67-4.36A21.11,21.11,0,0,1,115.52,126.13Z" fill="#fafafa"/><path d="M125.31,110.27c.09.12-.78.92-1.93,1.79a6.66,6.66,0,0,1-2.24,1.37c-.09-.11.77-.91,1.93-1.79A6.87,6.87,0,0,1,125.31,110.27Z" fill="#fafafa"/><path d="M161.43,161l12.46-50.31A17.12,17.12,0,0,1,193.54,98h0a17.1,17.1,0,0,1,13.87,19.46l-7.62,49.17a24.61,24.61,0,0,1-20.41,19.9l-9.91,1.55Z" fill="#e8505b"/><path d="M200.69,94.75a11.42,11.42,0,0,0-4.44-2.24,12,12,0,0,0-5.37,0,14.41,14.41,0,0,0-5.82,3c-3.65,3.06-5.64,7-7,9.82-.67,1.41-1.18,2.58-1.54,3.38a6.32,6.32,0,0,1-.61,1.22,7.4,7.4,0,0,1,.42-1.3c.31-.82.77-2,1.39-3.45a37.48,37.48,0,0,1,2.57-4.91,21.66,21.66,0,0,1,4.42-5.16,14.7,14.7,0,0,1,6.06-3.11,11.81,11.81,0,0,1,5.55.08,9.39,9.39,0,0,1,3.38,1.62,6.15,6.15,0,0,1,.75.69C200.62,94.64,200.7,94.73,200.69,94.75Z" fill="#263238"/><path d="M130.12,106.07s-.1.17-.35.46l-1.06,1.28c-.92,1.11-2.24,2.73-3.74,4.83a51.21,51.21,0,0,0-8.5,18c-1.74,7.67-1.83,14.85-2.12,20-.12,2.58-.25,4.67-.36,6.11-.06.67-.1,1.22-.14,1.66a2.26,2.26,0,0,1-.09.57,2.59,2.59,0,0,1,0-.58c0-.44,0-1,.05-1.66,0-1.52.11-3.59.19-6.12.2-5.14.23-12.35,2-20.1a49.84,49.84,0,0,1,8.71-18.15c1.55-2.08,2.91-3.67,3.89-4.74.48-.54.87-.94,1.14-1.22S130.11,106.05,130.12,106.07Z" fill="#263238"/><path d="M209.94,106c-1.36-9-6.33-11.16-11.48-14-1.68-.91-9.79-3-16.22-4.56-.61-3.9-1.71-10.87-2-12.35C179.94,73,147.53,78.2,147.12,79c-.28.52-1,8.59-1.49,14l-7.76,2.71-10.13,12.88L122.46,116a40.54,40.54,0,0,0-6.53,14.37,78.86,78.86,0,0,0-1.45,17.42l-1.57,33L180.74,200,186,166.57l17.5-23.82C205,133.12,211.62,117,209.94,106Z" fill="#e8505b"/><path d="M152.06,94a10.39,10.39,0,0,1-.45-2.29c-.22-1.43-.47-3.4-.73-5.58-.11-1.08-.23-2.1-.33-3.07a20.57,20.57,0,0,1-.18-2.55,3,3,0,0,1,.48-1.69c.26-.34.49-.43.5-.41s-.14.18-.33.52a3.21,3.21,0,0,0-.28,1.59c0,.69.17,1.54.28,2.48s.25,2,.38,3.07c.25,2.18.45,4.16.57,5.59A10.72,10.72,0,0,1,152.06,94Z" fill="#263238"/><path d="M160.7,91.94a7.94,7.94,0,0,1-.72-2.09,33.14,33.14,0,0,1-.91-5.27,33.84,33.84,0,0,1-.07-5.36,7.44,7.44,0,0,1,.33-2.19c.16,0-.14,3.38.26,7.5S160.86,91.9,160.7,91.94Z" fill="#263238"/><path d="M176.8,89.6a33.22,33.22,0,0,0-.19-7.46,33.68,33.68,0,0,0-2.33-7.08,6.81,6.81,0,0,1,1.19,1.88,19.09,19.09,0,0,1,1.66,5.12,18.82,18.82,0,0,1,.16,5.37A6.56,6.56,0,0,1,176.8,89.6Z" fill="#263238"/><path d="M130.74,119a18.77,18.77,0,0,1,2.66-4.2,19.11,19.11,0,0,1,3.29-3.73,32.77,32.77,0,0,1-2.87,4A31.24,31.24,0,0,1,130.74,119Z" fill="#fafafa"/><path d="M146,106.59a16.16,16.16,0,0,1-2.7-3.1,16.74,16.74,0,0,1-2.28-3.41,16.56,16.56,0,0,1,2.7,3.1A17.05,17.05,0,0,1,146,106.59Z" fill="#fafafa"/><path d="M162,98.78A29.87,29.87,0,0,1,158.8,102a30.06,30.06,0,0,1-3.31,3.11,14.84,14.84,0,0,1,2.94-3.48A15.59,15.59,0,0,1,162,98.78Z" fill="#fafafa"/><path d="M157.5,89.27A10,10,0,0,1,155,87.36a9.64,9.64,0,0,1-2.14-2.29,9.52,9.52,0,0,1,2.49,1.9A9.37,9.37,0,0,1,157.5,89.27Z" fill="#fafafa"/><path d="M171.49,81.81a12,12,0,0,1-3.36,1,11.86,11.86,0,0,1-3.48.48,12.21,12.21,0,0,1,3.37-1A12,12,0,0,1,171.49,81.81Z" fill="#fafafa"/><path d="M174.29,104a12.12,12.12,0,0,1-.44-3.48,12,12,0,0,1,.09-3.52,12.11,12.11,0,0,1,.43,3.49A12.1,12.1,0,0,1,174.29,104Z" fill="#fafafa"/><path d="M169.19,114.61a18.92,18.92,0,0,1-1.75-4,17.92,17.92,0,0,1-1.26-4.22,19.6,19.6,0,0,1,1.75,4A19.3,19.3,0,0,1,169.19,114.61Z" fill="#fafafa"/><path d="M155.33,122.11a21.4,21.4,0,0,1-1.92-4.23,21.21,21.21,0,0,1-1.44-4.42,21.07,21.07,0,0,1,1.93,4.23A20.8,20.8,0,0,1,155.33,122.11Z" fill="#fafafa"/><path d="M142.29,130.62a18.26,18.26,0,0,1-1.12-4.19,18.45,18.45,0,0,1-.62-4.29,18.14,18.14,0,0,1,1.13,4.19A18.16,18.16,0,0,1,142.29,130.62Z" fill="#fafafa"/><path d="M126.79,131a17.9,17.9,0,0,1-2.09-3.7,17.35,17.35,0,0,1-1.63-3.94,17.71,17.71,0,0,1,2.1,3.71A17.24,17.24,0,0,1,126.79,131Z" fill="#fafafa"/><path d="M126.46,140.9a20.59,20.59,0,0,1-4.06,2.29,21.15,21.15,0,0,1-4.29,1.83,21.44,21.44,0,0,1,4.06-2.29A21.15,21.15,0,0,1,126.46,140.9Z" fill="#fafafa"/><path d="M126.65,156.62a18,18,0,0,1-2-7.5,21,21,0,0,1,1.1,3.72A21.46,21.46,0,0,1,126.65,156.62Z" fill="#fafafa"/><path d="M123.45,167.66a16.76,16.76,0,0,1-3.27-2.63,17.69,17.69,0,0,1-2.91-3,16.55,16.55,0,0,1,3.26,2.63A16.75,16.75,0,0,1,123.45,167.66Z" fill="#fafafa"/><path d="M143.87,160.13c0,.15-2.26.8-4.94,2s-4.73,2.42-4.81,2.29a15.26,15.26,0,0,1,4.6-2.76A15,15,0,0,1,143.87,160.13Z" fill="#fafafa"/><path d="M137.89,154.65a13.73,13.73,0,0,1-1.46-3.42,13.17,13.17,0,0,1-1-3.6,13.93,13.93,0,0,1,1.47,3.43A13.25,13.25,0,0,1,137.89,154.65Z" fill="#fafafa"/><path d="M150,141.13a30.18,30.18,0,0,1-2.74,4.83,29.7,29.7,0,0,1-3.18,4.56,30.18,30.18,0,0,1,2.74-4.83A29.1,29.1,0,0,1,150,141.13Z" fill="#fafafa"/><path d="M163,142.43a20.9,20.9,0,0,1-3.32-4.54,21.07,21.07,0,0,1-2.45-5.07,54.08,54.08,0,0,1,2.89,4.8C161.73,140.27,163.14,142.34,163,142.43Z" fill="#fafafa"/><path d="M170.81,129.59a10.22,10.22,0,0,1-3.8.67,10.42,10.42,0,0,1-3.86-.29,24.82,24.82,0,0,1,3.83-.23A24.27,24.27,0,0,1,170.81,129.59Z" fill="#fafafa"/><path d="M189.32,115a30,30,0,0,1-4.9,2.62,29.7,29.7,0,0,1-5.12,2.15,29.52,29.52,0,0,1,4.9-2.62A29.7,29.7,0,0,1,189.32,115Z" fill="#fafafa"/><path d="M190.55,105.65a19.47,19.47,0,0,1,1.76-4.12,18.83,18.83,0,0,1,2.22-3.89,20.12,20.12,0,0,1-1.76,4.12A19.17,19.17,0,0,1,190.55,105.65Z" fill="#fafafa"/><path d="M202.32,113a31.28,31.28,0,0,1-1.52-4.55,34,34,0,0,1-1.35-4.6,16.62,16.62,0,0,1,1.84,4.45A17.34,17.34,0,0,1,202.32,113Z" fill="#fafafa"/><path d="M204.16,122.63a23.28,23.28,0,0,1-9,2.31,33.85,33.85,0,0,1,4.49-1.21A34.62,34.62,0,0,1,204.16,122.63Z" fill="#fafafa"/><path d="M184,134.46c-.15,0,.27-2.47.4-5.5s-.09-5.49.06-5.51a16.3,16.3,0,0,1,.46,5.53A16.7,16.7,0,0,1,184,134.46Z" fill="#fafafa"/><path d="M180,146.62a16.53,16.53,0,0,1-3.66-3.58,16.24,16.24,0,0,1-2.84-4.26c.12-.08,1.45,1.78,3.24,3.93S180.09,146.51,180,146.62Z" fill="#fafafa"/><path d="M200.2,144.06a20.89,20.89,0,0,1-4.17,2,20,20,0,0,1-4.37,1.54,21.19,21.19,0,0,1,4.17-2A20.45,20.45,0,0,1,200.2,144.06Z" fill="#fafafa"/><path d="M193,167a28.39,28.39,0,0,1-.21-5.5,28.42,28.42,0,0,1,.32-5.5,30,30,0,0,1,.2,5.5A30,30,0,0,1,193,167Z" fill="#fafafa"/><path d="M177.44,165.64a21,21,0,0,1,.89-5.66,21.54,21.54,0,0,1,1.88-5.4c.14,0-.62,2.49-1.38,5.53S177.59,165.66,177.44,165.64Z" fill="#fafafa"/><path d="M178.16,171.64c0,.15-2.49.39-5.53.9s-5.48,1.07-5.52.93a20,20,0,0,1,5.44-1.44A20.16,20.16,0,0,1,178.16,171.64Z" fill="#fafafa"/><path d="M161,167.79a20.38,20.38,0,0,1,3-3.44,20,20,0,0,1,3.34-3.09,19.67,19.67,0,0,1-3,3.45A19.69,19.69,0,0,1,161,167.79Z" fill="#fafafa"/><path d="M149.88,178.61a36.85,36.85,0,0,1-1.35-3.92,37.44,37.44,0,0,1-1.4-3.89,15.93,15.93,0,0,1,2.75,7.81Z" fill="#fafafa"/><path d="M167.82,184.78a26.72,26.72,0,0,1-5-1.94,27.91,27.91,0,0,1-4.8-2.41,26.72,26.72,0,0,1,5,1.94A27.91,27.91,0,0,1,167.82,184.78Z" fill="#fafafa"/><path d="M136.55,183a27,27,0,0,1,2.38-7.15,14.35,14.35,0,0,1-1,3.66A13.49,13.49,0,0,1,136.55,183Z" fill="#fafafa"/><path d="M157.15,186.46c0,.15-2.87-.31-6.41-.49s-6.41,0-6.42-.19a22.11,22.11,0,0,1,6.45-.33A22.49,22.49,0,0,1,157.15,186.46Z" fill="#fafafa"/><path d="M161.43,157a1.65,1.65,0,0,1,0-.39,3.71,3.71,0,0,1,.16-1.14,2.5,2.5,0,0,1,1.09-1.49,3.48,3.48,0,0,1,2.44-.4l-.21.12c1.1-3.83,2.85-9.44,4.6-15.72,1.63-5.87,2.74-11.29,3.52-15.21l.91-4.65a10.25,10.25,0,0,1,.4-1.7,12.48,12.48,0,0,1-.2,1.73c-.16,1.11-.41,2.71-.75,4.68-.69,4-1.74,9.4-3.38,15.29-1.76,6.3-3.57,11.88-4.76,15.68l0,.15-.16,0a3.23,3.23,0,0,0-2.22.3,2.31,2.31,0,0,0-1.05,1.31C161.44,156.42,161.5,157,161.43,157Z" fill="#263238"/><path d="M183.86,170.88c-.09,0-.7-1.32-2-3.33a34.37,34.37,0,0,0-13.61-12.37c-2.13-1.07-3.54-1.55-3.5-1.64a3.72,3.72,0,0,1,1,.26,24.27,24.27,0,0,1,2.65,1,31,31,0,0,1,13.76,12.51,23,23,0,0,1,1.3,2.54A4.32,4.32,0,0,1,183.86,170.88Z" fill="#263238"/><g opacity="0.2"><path d="M165.34,152.8a35.17,35.17,0,0,1,10.54,1.91c3.59,1.35,6.91,3.92,8.23,7.52a2.49,2.49,0,0,1-.18,2.6,1.86,1.86,0,0,1-1.9.3,4.93,4.93,0,0,1-1.66-1.14c-2.2-2-4.48-3.84-6.76-5.8s-5.58-4-8.55-4.47"/></g><path d="M158.13,146.42a4.82,4.82,0,0,1-1,.61,19.83,19.83,0,0,1-3.08,1.16A20.57,20.57,0,0,1,133.87,143a18.93,18.93,0,0,1-2.12-2.51,4.89,4.89,0,0,1-.62-1c.09-.06,1,1.41,3,3.28a21.22,21.22,0,0,0,19.79,5.14A42.89,42.89,0,0,0,158.13,146.42Z" fill="#263238"/><g opacity="0.2"><path d="M131.68,140.18c1.68,3.67,3.66,7.35,6.85,9.81a11,11,0,0,0,6.32,2.65c3.33.05,6.2-2.23,8.75-4.38-8.25,1.29-17.55-2.46-21.92-8.08"/></g><path d="M168.65,91.18c-.16,0,0-3.44-.38-7.62S167,76,167.19,76a7.9,7.9,0,0,1,.7,2.14,39.86,39.86,0,0,1,.9,5.37,37.11,37.11,0,0,1,.13,5.43A8.1,8.1,0,0,1,168.65,91.18Z" fill="#263238"/><path d="M50,225s-10.87,2.35-20.57.9c-9.1-1.37-29.47,0-29.46,12,0,13.38,27.17,10.07,37.77,7.95s21.15-4,21.15-4Z" fill="#e8505b"/><path d="M25.64,242.13a22.5,22.5,0,0,1-1.32-4.65,22.8,22.8,0,0,1-.8-4.77,22.37,22.37,0,0,1,1.31,4.66A22.43,22.43,0,0,1,25.64,242.13Z" fill="#263238"/><path d="M29.34,242.31a23,23,0,0,1-.91-4.77,21.76,21.76,0,0,1-.4-4.84,22.86,22.86,0,0,1,.91,4.77A21.73,21.73,0,0,1,29.34,242.31Z" fill="#263238"/><path d="M32.92,240.91a35,35,0,0,1-1-8.4,17.41,17.41,0,0,1,.77,4.17A16.71,16.71,0,0,1,32.92,240.91Z" fill="#263238"/><path d="M38.55,239.51a14.36,14.36,0,0,1-1.8-7.4,26.17,26.17,0,0,1,.9,3.7A27.58,27.58,0,0,1,38.55,239.51Z" fill="#263238"/><path d="M39.75,234.62a4.82,4.82,0,0,1,1.42-.09,11.91,11.91,0,0,1,3.82.74,4.22,4.22,0,0,1,1.17.64,1.79,1.79,0,0,1,.74,1.32A2,2,0,0,1,44.44,239a5.11,5.11,0,0,1-2.84-2,8.88,8.88,0,0,1-.41-10.27,1.4,1.4,0,0,1,.81-.48,1.07,1.07,0,0,1,.9.28,2.41,2.41,0,0,1,.68,1.46,7.36,7.36,0,0,1-.14,2.72,7.67,7.67,0,0,1-1.83,3.43,5.76,5.76,0,0,1-.8.7c-.2.14-.3.21-.32.19s.38-.34,1-1a7.76,7.76,0,0,0,1.63-3.37,7.35,7.35,0,0,0,.08-2.58,2.07,2.07,0,0,0-.56-1.18.7.7,0,0,0-1.05.18,8.15,8.15,0,0,0-1,6.48,8.33,8.33,0,0,0,1.5,3.16,4.7,4.7,0,0,0,2.52,1.86,1.58,1.58,0,0,0,1.95-1.31,1.39,1.39,0,0,0-.56-1,3.86,3.86,0,0,0-1.06-.6,13.25,13.25,0,0,0-3.69-.89C40.26,234.65,39.75,234.66,39.75,234.62Z" fill="#263238"/><path d="M57.84,240.07a1.1,1.1,0,0,1-.27.09l-.82.2-3.15.72c-2.74.6-6.72,1.45-11.66,2.4s-10.84,2-17.45,2.94a47.48,47.48,0,0,1-10.49.52,22.54,22.54,0,0,1-5.5-1.05,14.75,14.75,0,0,1-2.64-1.17,8,8,0,0,1-2.31-1.87l0,.05a5.59,5.59,0,0,1-.95-1.14,7.08,7.08,0,0,1-.55-5.85,9.29,9.29,0,0,1,3.49-4.55,17.62,17.62,0,0,1,4.95-2.46c.86-.24,1.71-.54,2.57-.74s1.7-.4,2.56-.52c6.81-1.07,13-.52,18.15-.52,2.58,0,4.91,0,6.95-.15a46.06,46.06,0,0,0,5.21-.66l1.87-.39,1.35-.39.84-.23a1,1,0,0,1,.29-.06,1,1,0,0,1-.28.11l-.82.28-1.34.44-1.87.44a42.2,42.2,0,0,1-5.22.75c-2,.15-4.4.25-7,.23-5.16,0-11.35-.46-18.08.63-.84.12-1.67.35-2.52.52s-1.67.49-2.52.73a17.06,17.06,0,0,0-4.81,2.4,8.82,8.82,0,0,0-3.3,4.3,6.61,6.61,0,0,0,.5,5.41,5.11,5.11,0,0,0,.86,1v0l0,0a7.68,7.68,0,0,0,2.14,1.72,16.09,16.09,0,0,0,2.55,1.13,21.7,21.7,0,0,0,5.37,1,46.68,46.68,0,0,0,10.38-.49c6.61-.87,12.51-1.91,17.46-2.81s8.93-1.7,11.68-2.24l3.17-.63.83-.15Z" fill="#263238"/><path d="M18.1,246.51a17,17,0,0,1-.26-2.78c-.13-1.71-.33-4.07-.68-6.67s-.77-4.93-1.1-6.62a18.93,18.93,0,0,1-.48-2.75,13.67,13.67,0,0,1,.84,2.67A62,62,0,0,1,17.68,237a57.76,57.76,0,0,1,.52,6.73A12.71,12.71,0,0,1,18.1,246.51Z" fill="#263238"/><polygon points="46.69 225.58 53.57 242.83 58.92 241.84 48.68 225 46.69 225.58" opacity="0.4"/><path d="M136.44,178.3c-1.1.37-72.28-19.58-101.06-27.67A27.31,27.31,0,0,0,13.12,154l-.35.22A27.36,27.36,0,0,0,1,183.37H1a27.33,27.33,0,0,0,12.34,17.12c19,11.63,59.15,36.09,60.38,35.62,1.61-.63,51.78-1.93,51.78-1.93l-60.35-43.4,28.71,18.55,42.58-31Z" fill="#263238"/><path d="M77,156.64l15.13-7.83,14.84,9.3,55.55,1.82,8,27-80.4-18.64s-14.64,1.3-15.73-2S77,156.64,77,156.64Z" fill="#ffbe9d"/><path d="M122.53,200l-7.48,24.56L116,232h0a38.42,38.42,0,0,0,50.68,3.41h0a37.65,37.65,0,0,0,14.73-30l-.12-25.66Z" fill="#263238"/><path d="M78,200.14c-.09.11-8.77-6.22-19.39-14.14s-19.16-14.43-19.08-14.55,8.77,6.21,19.39,14.14S78.08,200,78,200.14Z" fill="#455a64"/><path d="M91.13,153.72a60.17,60.17,0,0,1-7.4,2.64,59.35,59.35,0,0,1-7.56,2.15,59.9,59.9,0,0,1,7.4-2.65A58.73,58.73,0,0,1,91.13,153.72Z" fill="#eb996e"/><path d="M92.26,158.33a16.8,16.8,0,0,1-2.57.48c-1.6.26-3.79.65-6.19,1.2s-4.54,1.16-6.09,1.62a16,16,0,0,1-2.53.69,12,12,0,0,1,2.42-1,54.71,54.71,0,0,1,6.09-1.78,52.29,52.29,0,0,1,6.25-1.05A10.89,10.89,0,0,1,92.26,158.33Z" fill="#eb996e"/><path d="M91,162.56a71.64,71.64,0,0,1-8.34,1.92,71.56,71.56,0,0,1-8.44,1.4A70.52,70.52,0,0,1,82.56,164,70.48,70.48,0,0,1,91,162.56Z" fill="#eb996e"/><path d="M71.37,120.36l13.95,45.92a1.33,1.33,0,0,0,1.18.94l38,2.86a1.33,1.33,0,0,1,1.23,1.32v2.38a1.34,1.34,0,0,1-1.36,1.33l-104-2a1.35,1.35,0,0,1-1.22-.85L.94,124.4a1.33,1.33,0,0,1,1.18-1.8L70,119.42A1.34,1.34,0,0,1,71.37,120.36Z" fill="#455a64"/><path d="M42.07,140.15a3.26,3.26,0,0,0-2,2.33,3.12,3.12,0,0,0,1.34,2.86,3.42,3.42,0,0,0,3.8.15,3.17,3.17,0,0,0,1-3.84c-.46-1.27-2.78-2.16-4.13-1.5" fill="#e0e0e0"/><path d="M58.92,241.84l-11-18.07,80.8-63.33a32.37,32.37,0,0,1,17.65-7.23h0a32.46,32.46,0,0,1,35.3,35l-1.29,15.45-53.63,17.24Z" fill="#263238"/><path d="M162.54,198.92a1.19,1.19,0,0,1-.22.2l-.66.55-2.57,2.05-1.87,1.47c-.68.55-1.48,1.05-2.31,1.63l-2.69,1.84c-.47.32-1,.67-1.47,1l-1.6,1c-2.2,1.32-4.57,2.82-7.25,4.17-1.34.7-2.7,1.46-4.13,2.17l-4.47,2.12c-6.15,2.8-13,5.62-20.42,8.13C98.12,230.3,84.47,234,74.7,236.92c-2.45.72-4.66,1.4-6.59,2s-3.61,1.12-5,1.57l-3.13,1-.82.25a.87.87,0,0,1-.28.07s.08-.05.26-.12l.81-.3,3.09-1.11c1.35-.49,3-1,4.94-1.66s4.13-1.34,6.57-2.08c9.75-3,23.38-6.77,38.12-11.85,7.37-2.51,14.25-5.31,20.39-8.08l4.47-2.09c1.43-.7,2.79-1.45,4.12-2.14,2.69-1.33,5.06-2.81,7.27-4.1l1.6-.95c.52-.32,1-.66,1.48-1l2.7-1.81c.84-.57,1.65-1.06,2.34-1.59l1.89-1.43,2.63-2,.69-.5Z" fill="#455a64"/><path d="M164.5,207.37a2.87,2.87,0,0,1-.82.43c-.53.25-1.33.57-2.32.94a58.79,58.79,0,0,1-16.09,3.45c-1.05.08-1.9.11-2.49.1a3.54,3.54,0,0,1-.92,0,29.22,29.22,0,0,1,3.38-.41c2.09-.23,5-.64,8.09-1.31s5.92-1.49,7.91-2.13S164.47,207.3,164.5,207.37Z" fill="#455a64"/><path d="M125.5,163.48c.09.11-17.21,13.7-38.62,30.34S48,223.88,47.93,223.76s17.2-13.7,38.63-30.35S125.41,163.36,125.5,163.48Z" fill="#455a64"/><path d="M120.83,230.68c-3.88-2.07-8.23-.85-11.94.4-2.47.83-5,2.15-7.54,1.44-1.81-.51-3.16-2-4.54-3.25a28.62,28.62,0,0,0-20.89-7.49,8.54,8.54,0,0,0-5.74,2.6c-3.8,4.12-.93,9.49,2.47,13a37.54,37.54,0,0,0,22.71,11c7.09.74,16.84-.24,24-3.32,4.43-1.89,6.71-7.12,4.38-11.35A7.3,7.3,0,0,0,120.83,230.68Z" fill="#e8505b"/><g opacity="0.4"><path d="M120.82,234c-3.88-2.07-8.23-.85-11.94.4-2.46.83-5,2.15-7.54,1.44-1.81-.51-3.16-2-4.54-3.25a28.62,28.62,0,0,0-20.89-7.49,8.54,8.54,0,0,0-5.74,2.6,6.56,6.56,0,0,0-1.59,2.89,15,15,0,0,0,4.06,6.76,37.57,37.57,0,0,0,22.71,11c7.09.74,16.84-.24,24-3.32a8.73,8.73,0,0,0,5.11-6.09,7.4,7.4,0,0,0-.73-2A7.3,7.3,0,0,0,120.82,234Z"/></g><path d="M124.49,238.88a6.6,6.6,0,0,0-.95-2.3,7.4,7.4,0,0,0-2.07-2,8.2,8.2,0,0,0-3.56-1.37c-2.88-.34-6.21.87-9.92,1.88-1.83.48-3.83,1.22-6,1a8.19,8.19,0,0,1-3.1-1.07,19.75,19.75,0,0,1-2.66-2,27.92,27.92,0,0,0-10.6-6.3,28.65,28.65,0,0,0-5.27-1.22,16.78,16.78,0,0,0-4.69,0A10.22,10.22,0,0,0,72,226.66a9.21,9.21,0,0,0-2.22,1.88,20.64,20.64,0,0,0-1.43,2.07,8,8,0,0,1,1.27-2.2,8.93,8.93,0,0,1,2.23-2A10.34,10.34,0,0,1,75.59,225a16.68,16.68,0,0,1,4.8,0,27,27,0,0,1,5.37,1.2,31.1,31.1,0,0,1,5.57,2.45A22.44,22.44,0,0,1,94,230.41c.86.67,1.68,1.41,2.51,2.14a18.88,18.88,0,0,0,2.59,1.95,7.34,7.34,0,0,0,2.9,1c2,.27,4-.42,5.83-.91,3.68-1,7.07-2.17,10.08-1.77a8.33,8.33,0,0,1,5.76,3.64,5.27,5.27,0,0,1,.72,1.75A2.2,2.2,0,0,1,124.49,238.88Z" fill="#263238"/><path d="M124.49,238.88a6.6,6.6,0,0,0-.95-2.3,7.4,7.4,0,0,0-2.07-2,8.2,8.2,0,0,0-3.56-1.37c-2.88-.34-6.21.87-9.92,1.88-1.83.48-3.83,1.22-6,1a8.19,8.19,0,0,1-3.1-1.07,19.75,19.75,0,0,1-2.66-2,27.92,27.92,0,0,0-10.6-6.3,28.65,28.65,0,0,0-5.27-1.22,16.78,16.78,0,0,0-4.69,0A10.22,10.22,0,0,0,72,226.66a9.21,9.21,0,0,0-2.22,1.88,20.64,20.64,0,0,0-1.43,2.07,8,8,0,0,1,1.27-2.2,8.93,8.93,0,0,1,2.23-2A10.34,10.34,0,0,1,75.59,225a16.68,16.68,0,0,1,4.8,0,27,27,0,0,1,5.37,1.2,31.1,31.1,0,0,1,5.57,2.45A22.44,22.44,0,0,1,94,230.41c.86.67,1.68,1.41,2.51,2.14a18.88,18.88,0,0,0,2.59,1.95,7.34,7.34,0,0,0,2.9,1c2,.27,4-.42,5.83-.91,3.68-1,7.07-2.17,10.08-1.77a8.33,8.33,0,0,1,5.76,3.64,5.27,5.27,0,0,1,.72,1.75A2.2,2.2,0,0,1,124.49,238.88Z" fill="#263238"/><path d="M76.42,238a10.4,10.4,0,0,1,2-1.38c1.27-.77,3.08-1.77,5.13-2.74a56.72,56.72,0,0,1,5.39-2.21,10.38,10.38,0,0,1,2.33-.65,12.87,12.87,0,0,1-2.2,1c-1.37.57-3.25,1.37-5.29,2.33s-3.87,1.9-5.18,2.59A13.24,13.24,0,0,1,76.42,238Z" fill="#263238"/><path d="M77.76,241.82a70.09,70.09,0,0,1,7.57-3.95,70.53,70.53,0,0,1,7.79-3.48,68,68,0,0,1-7.57,4A70.53,70.53,0,0,1,77.76,241.82Z" fill="#263238"/><path d="M93.81,243.5c-.07.13-4.2-2.34-9.22-5.5s-9-5.82-9-5.94a107.27,107.27,0,0,1,9.23,5.5C89.88,240.72,93.89,243.38,93.81,243.5Z" fill="#263238"/><path d="M96.14,239.48a11.38,11.38,0,0,1-2-1.35c-1.22-.88-2.9-2.09-4.77-3.39s-3.6-2.44-4.85-3.27a12.56,12.56,0,0,1-2-1.42,10.51,10.51,0,0,1,2.17,1.1c1.3.76,3.06,1.86,5,3.17s3.53,2.57,4.69,3.52A11,11,0,0,1,96.14,239.48Z" fill="#263238"/></g></g></svg>