<svg xmlns="http://www.w3.org/2000/svg" xmlns:xlink="http://www.w3.org/1999/xlink" viewBox="0 0 121.67 101.69"><defs><clipPath id="clip-path" transform="translate(0 -9.49)"><path d="M24.19,18.92C21.91,22,47.13,26.16,60.28,26.3s26.16-2.28,26-4.16l-7-15.57L59.41,0,44,2.82l-14,7.47Z" fill="none"/></clipPath></defs><g id="Layer_2" data-name="Layer 2"><g id="OBJECTS"><ellipse cx="60.83" cy="92.69" rx="60.83" ry="9" fill="#2a5f1e"/><path d="M97.45,86a10.62,10.62,0,0,1-.09,1.82,8.38,8.38,0,0,1-.79,2.6c-1.61,3.22-8.72,11.81-41.46,11.81C23.52,102.24,13.42,95.61,10,88a8.41,8.41,0,0,1-.35-.82,6.94,6.94,0,0,1-.42-1.7,9.58,9.58,0,0,1,0-1.86.76.76,0,0,1,0-.15C9.87,75.3,19.29,64,19.29,64s5.37-16.1,11-23.88c-2.41-2.28-2-4.57,1.74-6l-4.42-7s-8.86-7-8.32-8.45,4-3.22,18.38-4.56,46.56.8,53.8,7c-.67,3.49-8.85,7.39-8.85,7.39l-5.37,7.91s3.09,1.07,3.76,2.28a.6.6,0,0,1,.07.3c0,1.16-3.42,2.52-3.42,2.52s.62,1.21,1.61,3.22c3,6.07,9.28,19.43,11.4,28.31.47.49.92,1,1.33,1.45C96,79,97.35,83,97.45,86Z" transform="translate(0 -9.49)" fill="#ffddad"/><path d="M97.45,86a10.62,10.62,0,0,1-.09,1.82,8.38,8.38,0,0,1-.79,2.6c-1.61,3.22-8.72,11.81-41.46,11.81C23.52,102.24,13.42,95.61,10,88a8.41,8.41,0,0,1-.35-.82,6.94,6.94,0,0,1-.42-1.7,9.58,9.58,0,0,1,0-1.86c19.64,18.63,57.49,9.62,61.87,3.72,1.92-2.59,4.16-7.13-2-10.5,2.78-8.72,5.75-34.72,5.75-34.72l2.85-.69s.62,1.21,1.61,3.22c3,6.07,9.28,19.43,11.4,28.31.47.49.92,1,1.33,1.45C96,79,97.35,83,97.45,86Z" transform="translate(0 -9.49)" fill="#ffd097"/><path d="M86.31,22.14c0,.67-1.59,1.41-4.32,2.08A97.2,97.2,0,0,1,60.28,26.3c-9.25-.1-24.48-2.18-31.9-4.49-3.13-1-4.87-2-4.19-2.89,2.28-3.09,28.17-4.43,27-3.09-.83.93-8.26,2.5-12.78,3.37-2,.4-3.45.66-3.45.66L61,20.92h.38S53.17,19.05,59.21,18C67.25,17.57,81.61,20.26,86.31,22.14Z" transform="translate(0 -9.49)" fill="#ffb162"/><path d="M51.15,15.83c-.83.93-8.26,2.5-12.78,3.37-3.83-.16-6.49-.16-7.1.07a4.83,4.83,0,0,0-2.89,2.54c-3.13-1-4.87-2-4.19-2.89C26.47,15.83,52.36,14.49,51.15,15.83Z" transform="translate(0 -9.49)" fill="#ffd097"/><path d="M86.31,22.14c0,.67-1.59,1.41-4.32,2.08-3.06-1.15-11.68-2.35-21-3.3h.34S53.17,19.05,59.21,18C67.25,17.57,81.61,20.26,86.31,22.14Z" transform="translate(0 -9.49)" fill="#ffd097"/><path d="M35.13,34.47a2.32,2.32,0,0,0-.2-1.17.48.48,0,0,0-.81,0A2.5,2.5,0,0,0,34,34.5a4.14,4.14,0,0,0,0,1.22.59.59,0,0,0,1.13,0A4.22,4.22,0,0,0,35.13,34.47Z" transform="translate(0 -9.49)" fill="#ffc17e"/><path d="M36.16,33.54c-.11.67-.37,1.33-.43,2s.9.68,1.05.13.16-1.29.29-1.91S36.26,33,36.16,33.54Z" transform="translate(0 -9.49)" fill="#ffc17e"/><path d="M39.2,34.09a5.63,5.63,0,0,1-.32,1.06,2.22,2.22,0,0,0-.32,1.08c0,.41.61.77.94.36a2.3,2.3,0,0,0,.34-1.13,5.56,5.56,0,0,1,.27-1.14C40.31,33.76,39.32,33.49,39.2,34.09Z" transform="translate(0 -9.49)" fill="#ffc17e"/><path d="M41.63,34.23c-.12.37-.23.75-.34,1.12A4.33,4.33,0,0,0,41,36.5a.6.6,0,0,0,1.11.28,4.68,4.68,0,0,0,.24-1.17c.07-.39.15-.77.23-1.15A.46.46,0,0,0,41.63,34.23Z" transform="translate(0 -9.49)" fill="#ffc17e"/><path d="M43.63,34.63A10.66,10.66,0,0,0,43.3,36a3.2,3.2,0,0,0-.2,1.46.6.6,0,0,0,1.09.11,3.54,3.54,0,0,0,.24-1.42,11.35,11.35,0,0,0,.13-1.42A.47.47,0,0,0,43.63,34.63Z" transform="translate(0 -9.49)" fill="#ffc17e"/><path d="M47.05,35.67a.47.47,0,0,0-.92-.1c-.06.28-.1.56-.16.84a6.85,6.85,0,0,0-.14.89c0,.67,1.06.81,1.18.14A9.5,9.5,0,0,0,47.05,35.67Z" transform="translate(0 -9.49)" fill="#ffc17e"/><path d="M34,40.29a2.42,2.42,0,0,0-.05-.66.24.24,0,0,0-.4-.11,5,5,0,0,0-.61,1.28.53.53,0,0,0,.05.59.52.52,0,0,0,.57.18,3.71,3.71,0,0,0,.56-.29A.56.56,0,0,0,34,40.29Z" transform="translate(0 -9.49)" fill="#ffc17e"/><path d="M36.31,38.76c0-.42-.64-.66-.85-.22a7.05,7.05,0,0,0-.34,1A2.37,2.37,0,0,0,35,40.67c.1.52.83.5,1.07.11a2.28,2.28,0,0,0,.21-1A5.36,5.36,0,0,0,36.31,38.76Z" transform="translate(0 -9.49)" fill="#ffc17e"/><path d="M38.61,39a.46.46,0,0,0-.56.33,4.43,4.43,0,0,1-.11.73,4.88,4.88,0,0,0-.2.75c-.05.63,1,.73,1.1.13a3.47,3.47,0,0,0,0-.72,3.52,3.52,0,0,1,.1-.65A.48.48,0,0,0,38.61,39Z" transform="translate(0 -9.49)" fill="#ffc17e"/><path d="M41.49,40.77c0-.27,0-.53,0-.8a.47.47,0,0,0-.93,0c0,.27,0,.53,0,.8a3.82,3.82,0,0,0,0,.83c.09.54,1,.5,1.08,0A4.57,4.57,0,0,0,41.49,40.77Z" transform="translate(0 -9.49)" fill="#ffc17e"/><path d="M43.47,40.64a.47.47,0,0,0-.92-.11,5.09,5.09,0,0,0-.24,1.21.58.58,0,0,0,1.13.13A5.07,5.07,0,0,0,43.47,40.64Z" transform="translate(0 -9.49)" fill="#ffc17e"/><path d="M56.54,36.9c-.06-.35-.09-.7-.18-1s-.62-.34-.67,0,0,.69,0,1A7.91,7.91,0,0,0,55.53,38c.06.8,1.29.78,1.25,0A6.27,6.27,0,0,0,56.54,36.9Z" transform="translate(0 -9.49)" fill="#ffc17e"/><path d="M59.68,37.07a8.24,8.24,0,0,1,0-.85c0-.52-.85-.63-.92-.11s-.44,1.17-.29,1.78a.64.64,0,0,0,1.16.12A1.88,1.88,0,0,0,59.68,37.07Z" transform="translate(0 -9.49)" fill="#ffc17e"/><path d="M62.67,36.86c-.13-.56-.15-1.14-.27-1.71s-.88-.35-.91.15,0,1.17,0,1.75a.62.62,0,0,0,.32.53l.06,0a.52.52,0,0,0,.62-.1l.07-.05A.65.65,0,0,0,62.67,36.86Z" transform="translate(0 -9.49)" fill="#ffc17e"/><path d="M65.35,35.7a4.2,4.2,0,0,1-.53-1c-.21-.65-1.21-.2-.85.38a3.9,3.9,0,0,1,.38,1c.12.37.16.79.56,1a.56.56,0,0,0,.8-.35C65.85,36.33,65.57,36,65.35,35.7Z" transform="translate(0 -9.49)" fill="#ffc17e"/><path d="M67.75,36.32A19.83,19.83,0,0,0,67,34.38c-.19-.41-.9-.19-.86.25a20.87,20.87,0,0,0,.37,2.07C66.68,37.5,68,37.11,67.75,36.32Z" transform="translate(0 -9.49)" fill="#ffc17e"/><path d="M69.62,35.55c-.17-.38-.31-.78-.51-1.15s-.94-.11-.84.38.2.77.3,1.15.16.85.48,1.09a.53.53,0,0,0,.87-.24A1.89,1.89,0,0,0,69.62,35.55Z" transform="translate(0 -9.49)" fill="#ffc17e"/><path d="M73.16,36.49l-.46-1a5.41,5.41,0,0,0-.49-.92c-.19-.23-.63-.18-.62.18a4.22,4.22,0,0,0,.2,1c.08.35.16.7.26,1C72.25,37.56,73.45,37.16,73.16,36.49Z" transform="translate(0 -9.49)" fill="#ffc17e"/><path d="M75.47,35.4c-.12-.3-.24-.6-.34-.91-.19-.57-1.09-.31-.9.27.1.3.18.62.26.93s.08.68.37.91a.51.51,0,0,0,.84-.24C75.8,36,75.6,35.73,75.47,35.4Z" transform="translate(0 -9.49)" fill="#ffc17e"/><path d="M59.19,43.66c0-.29-.1-.57-.16-.85-.13-.54-.9-.37-.92.13,0,.28,0,.56,0,.83s-.06.65.23.88a.53.53,0,0,0,.74,0C59.37,44.31,59.26,44,59.19,43.66Z" transform="translate(0 -9.49)" fill="#ffc17e"/><path d="M62,43.53c-.35-.48-.6-1-.94-1.52s-1-.14-.83.37.47,1.09.64,1.66C61.12,44.94,62.49,44.26,62,43.53Z" transform="translate(0 -9.49)" fill="#ffc17e"/><path d="M65.43,43.07a2.05,2.05,0,0,0-.32-.85c-.12-.24-.22-.49-.33-.75-.23-.53-1.07-.32-.89.27.07.27.16.53.23.81a2.18,2.18,0,0,0,.26.83C64.68,43.81,65.48,43.67,65.43,43.07Z" transform="translate(0 -9.49)" fill="#ffc17e"/><path d="M68,42.93a8.12,8.12,0,0,0-.27-1.08c-.08-.36-.17-.71-.26-1.06s-1-.39-.93.15c0,.36.1.72.16,1.08a9.84,9.84,0,0,0,.14,1.09C67,43.74,68.1,43.6,68,42.93Z" transform="translate(0 -9.49)" fill="#ffc17e"/><path d="M70.65,42.93a6.21,6.21,0,0,0-.25-1c-.09-.33-.17-.66-.25-1-.13-.59-1-.32-.89.27.06.31.12.63.17.94a7.24,7.24,0,0,0,.16,1C69.78,43.64,70.72,43.56,70.65,42.93Z" transform="translate(0 -9.49)" fill="#ffc17e"/><path d="M73.72,42.23c-.23-.46-.42-.95-.63-1.42s-1-.12-.85.38.31,1,.43,1.51a.58.58,0,1,0,1-.47Z" transform="translate(0 -9.49)" fill="#ffc17e"/><path d="M76.52,42.11a7.36,7.36,0,0,1-.43-1.19.47.47,0,0,0-.9.27,7.25,7.25,0,0,1,.3,1.22.57.57,0,0,0,.71.52A.57.57,0,0,0,76.52,42.11Z" transform="translate(0 -9.49)" fill="#ffc17e"/><path d="M45.32,41.49a5.82,5.82,0,0,0-1.22-2.61c.27-.09.55-.15.85-.24.56-.17.61-1.12,0-1.22a3.07,3.07,0,0,0-2.44.9,4.12,4.12,0,0,0-1.16,2.12.46.46,0,0,0,.9.23,1.8,1.8,0,0,1,.3-.66c0,.77.16,1.54.26,2.32a14.44,14.44,0,0,1,.09,3.15,13.19,13.19,0,0,1-.67,3.05,17.18,17.18,0,0,1-1.37,2.79,1.87,1.87,0,0,0-.12,1.87,1.16,1.16,0,0,0,1.36.56.75.75,0,0,0,.76-.33,3.61,3.61,0,0,0,.37-1.06l.28-1c.2-.69.39-1.37.58-2.06.37-1.3.77-2.61,1.07-3.93A9.31,9.31,0,0,0,45.32,41.49Z" transform="translate(0 -9.49)" fill="#42210b"/><path d="M66.25,53.14a4.26,4.26,0,0,0-.57-.81,12,12,0,0,1-.74-1.12,12.3,12.3,0,0,1-1-2.34,15,15,0,0,1-.68-5.11,11.93,11.93,0,0,1,.14-1.7l0,.13a3.21,3.21,0,0,0,.26,1.15.7.7,0,0,0,1.09.11c.71-.79.1-2.23-.46-2.94a3.77,3.77,0,0,0-1.1-1,3.36,3.36,0,0,0-.65-.28c-.41-.13-1.57-.09-1.06.64.2.29.66.4.9.66a2.51,2.51,0,0,0-.31.26,4.28,4.28,0,0,0-.44.61,5.16,5.16,0,0,0-.55,1.46,8,8,0,0,0,.1,3.47c.25,1.17.67,2.32,1,3.46a28.37,28.37,0,0,0,1.13,3.41,2.42,2.42,0,0,0,1.34,1.31A1.47,1.47,0,0,0,66.47,54,.61.61,0,0,0,66.25,53.14Z" transform="translate(0 -9.49)" fill="#42210b"/><g clip-path="url(#clip-path)"><path d="M37.19,24.69l1.19,2.19s1.72,1.07,6.74-.54c5.28-1.69,5.14-3.26,5.14-3.26l-.49-2.21Z" transform="translate(0 -9.49)" fill="#ffd300"/><path d="M49.33,20.45c-1.49-.67-5.44.29-6,.43-4,1.05-6.11,2.16-6.17,3.44-.07,1.57,3.5,1.1,4.36,1a19.08,19.08,0,0,0,6.8-2.21,3,3,0,0,0,1.36-1.18C50.08,21.14,49.87,20.69,49.33,20.45Z" transform="translate(0 -9.49)" fill="#ffe506"/><path d="M38.69,24.26c-.69-.41.41-1.51,3.84-2.56s5.6-.93,6-.35C49.05,22.11,40.48,25.3,38.69,24.26Z" transform="translate(0 -9.49)" fill="#ffd300"/><path d="M44,19.7l-.47,2.45S44.2,24.07,49.1,26c5.15,2,6,.74,6,.74l1-2Z" transform="translate(0 -9.49)" fill="#ffd300"/><path d="M56.09,24.12c-.73-1.46-4.39-3.22-4.9-3.46-3.77-1.73-6.09-2.21-6.95-1.25-1.05,1.17,2,3.06,2.73,3.53a19,19,0,0,0,6.66,2.61,3,3,0,0,0,1.81-.06C56.23,25.13,56.35,24.64,56.09,24.12Z" transform="translate(0 -9.49)" fill="#ffe506"/><path d="M45.45,20.32c-.28-.76,1.27-.91,4.59.46S55,23.61,54.9,24.31C54.82,25.22,46.17,22.26,45.45,20.32Z" transform="translate(0 -9.49)" fill="#ffd300"/><path d="M65.68,24.57l.92,2.32s1.58,1.27,6.76.28c5.44-1,5.5-2.61,5.5-2.61l-.22-2.25Z" transform="translate(0 -9.49)" fill="#ffd300"/><path d="M78.25,21.84c-1.39-.85-5.43-.37-6-.3-4.11.55-6.33,1.4-6.54,2.66-.26,1.56,3.34,1.52,4.2,1.52a19,19,0,0,0,7-1.36,3,3,0,0,0,1.49-1C78.91,22.62,78.76,22.14,78.25,21.84Z" transform="translate(0 -9.49)" fill="#ffe506"/><path d="M67.23,24.33c-.64-.49.59-1.46,4.12-2.08s5.67-.24,6,.38C77.77,23.45,68.88,25.58,67.23,24.33Z" transform="translate(0 -9.49)" fill="#ffd300"/><path d="M54.45,25.87l.92,2.32s1.58,1.27,6.76.28c5.44-1,5.5-2.61,5.5-2.61l-.22-2.25Z" transform="translate(0 -9.49)" fill="#ffd300"/><path d="M67,23.13c-1.39-.84-5.43-.36-6-.29-4.11.55-6.33,1.4-6.54,2.66-.26,1.56,3.34,1.52,4.2,1.52a19,19,0,0,0,7-1.36,3,3,0,0,0,1.49-1C67.68,23.92,67.53,23.44,67,23.13Z" transform="translate(0 -9.49)" fill="#ffe506"/><path d="M56,25.63c-.64-.49.59-1.46,4.12-2.08s5.67-.24,6,.38C66.54,24.75,57.65,26.88,56,25.63Z" transform="translate(0 -9.49)" fill="#ffd300"/><path d="M33.29,21l1.19,2.2s1.72,1.06,6.74-.55C46.5,21,46.36,19.4,46.36,19.4l-.49-2.21Z" transform="translate(0 -9.49)" fill="#ffd300"/><path d="M45.43,16.77c-1.49-.67-5.44.3-6,.44-4,1-6.11,2.15-6.17,3.43-.07,1.58,3.5,1.1,4.36,1a18.88,18.88,0,0,0,6.8-2.21,3,3,0,0,0,1.36-1.18C46.19,17.47,46,17,45.43,16.77Z" transform="translate(0 -9.49)" fill="#ffe506"/><path d="M34.79,20.58c-.69-.41.41-1.51,3.85-2.56s5.59-.92,6-.35C45.15,18.43,36.58,21.63,34.79,20.58Z" transform="translate(0 -9.49)" fill="#ffd300"/><path d="M59.75,22.32l1.19,2.19s1.73,1.07,6.75-.54c5.27-1.69,5.14-3.26,5.14-3.26l-.49-2.21Z" transform="translate(0 -9.49)" fill="#ffd300"/><path d="M71.89,18.08c-1.48-.67-5.43.29-6,.43-4,1-6.11,2.16-6.16,3.44-.08,1.57,3.49,1.1,4.35,1a18.82,18.82,0,0,0,6.8-2.21,3,3,0,0,0,1.36-1.18C72.65,18.77,72.43,18.32,71.89,18.08Z" transform="translate(0 -9.49)" fill="#ffe506"/><path d="M61.26,21.89c-.7-.41.41-1.51,3.84-2.56s5.59-.93,6-.35C71.62,19.74,63.05,22.93,61.26,21.89Z" transform="translate(0 -9.49)" fill="#ffd300"/><path d="M51.29,14.65,51,17.13s.76,1.87,5.77,3.52c5.27,1.73,6.08.38,6.08.38l.9-2.08Z" transform="translate(0 -9.49)" fill="#ffd300"/><path d="M63.61,18.35c-.81-1.41-4.58-3-5.1-3.16-3.86-1.51-6.21-1.84-7-.84-1,1.23,2.19,2.94,2.94,3.37a19,19,0,0,0,6.8,2.2,3,3,0,0,0,1.8-.15C63.81,19.36,63.9,18.86,63.61,18.35Z" transform="translate(0 -9.49)" fill="#ffe506"/><path d="M52.76,15.19c-.32-.74,1.22-1,4.61.18s5.08,2.54,5.06,3.24C62.41,19.53,53.6,17.08,52.76,15.19Z" transform="translate(0 -9.49)" fill="#ffd300"/><path d="M48.24,16.38l-.47,2.45s.65,1.92,5.56,3.85c5.15,2,6,.74,6,.74l1-2Z" transform="translate(0 -9.49)" fill="#ffd300"/><path d="M60.32,20.8c-.73-1.46-4.4-3.22-4.91-3.46-3.76-1.73-6.09-2.21-6.94-1.25-1.06,1.17,2,3.06,2.73,3.53a18.88,18.88,0,0,0,6.66,2.61,3,3,0,0,0,1.8-.06C60.46,21.81,60.58,21.32,60.32,20.8Z" transform="translate(0 -9.49)" fill="#ffe506"/><path d="M49.67,17c-.28-.76,1.28-.91,4.6.46s4.91,2.83,4.85,3.52C59.05,21.9,50.4,18.94,49.67,17Z" transform="translate(0 -9.49)" fill="#ffd300"/><path d="M42.58,15l.53,2.44s1.36,1.5,6.63,1.35c5.54-.17,5.85-1.72,5.85-1.72l.13-2.25Z" transform="translate(0 -9.49)" fill="#ffd300"/><path d="M55.42,14.26c-1.25-1-5.31-1.22-5.87-1.24-4.15-.1-6.47.38-6.88,1.6-.5,1.49,3.06,2,3.91,2.17a19.33,19.33,0,0,0,7.15-.24,3,3,0,0,0,1.63-.77C56,15.14,55.87,14.64,55.42,14.26Z" transform="translate(0 -9.49)" fill="#ffe506"/><path d="M44.14,15c-.56-.58.81-1.34,4.4-1.4s5.63.66,5.86,1.32C54.69,15.78,45.57,16.48,44.14,15Z" transform="translate(0 -9.49)" fill="#ffd300"/><path d="M47.21,11.45l.53,2.44s1.36,1.5,6.63,1.34c5.54-.16,5.85-1.71,5.85-1.71l.13-2.25Z" transform="translate(0 -9.49)" fill="#ffd300"/><path d="M60.05,10.74C58.8,9.69,54.74,9.52,54.18,9.5c-4.15-.1-6.47.38-6.88,1.6-.5,1.49,3.06,2,3.91,2.16A18.91,18.91,0,0,0,58.36,13,3,3,0,0,0,60,12.26C60.58,11.62,60.5,11.12,60.05,10.74Z" transform="translate(0 -9.49)" fill="#ffe506"/><path d="M48.77,11.46c-.56-.59.81-1.34,4.4-1.4s5.63.66,5.86,1.32C59.32,12.25,50.2,13,48.77,11.46Z" transform="translate(0 -9.49)" fill="#ffd300"/></g><path d="M12.4,91.14l0,0h0Z" transform="translate(0 -9.49)" fill="#42210b"/><path d="M60.67,67c-1.57-1.72-1.84-2.18-5.18-3.38V57.42a3.92,3.92,0,0,1,1,2.59l5.15-.88a9,9,0,0,0-6.13-7v-3.3a17.22,17.22,0,0,0-2.49,0,26.92,26.92,0,0,0,0,2.73,12,12,0,0,0-2.44-.09V48.87a17.09,17.09,0,0,0-2.48,0A28.69,28.69,0,0,0,48,52a10.33,10.33,0,0,0-5.9,4.69c-1.46,2.64-.54,5.93,2.6,8.1a15.2,15.2,0,0,0,3.54,1.83c.06,2.79.12,5.58.17,8.09A11.1,11.1,0,0,1,45.21,70a34.83,34.83,0,0,0-4.53,2.34s1.64,7,7.68,8.4l.18,0c.05,2.14.09,3.46.09,3.46h1.89V81.16a15,15,0,0,0,3,.12c0,1.84.07,3,.07,3h1.9V81a9.47,9.47,0,0,0,3.39-1.72C62.23,76.59,64.23,70.9,60.67,67ZM52.33,55.85A6.78,6.78,0,0,1,53,56c0,2,.07,4.41.11,6.87-.9-.27-1.78-.51-2.6-.75V55.76A7.88,7.88,0,0,1,52.33,55.85Zm-5.75,3a3.66,3.66,0,0,1,1.47-2.24c0,1.44.05,3,.08,4.67C47,60.69,46.31,60,46.58,58.83Zm3.94,17V67.25a20.54,20.54,0,0,1,2.71.75c.06,2.89.12,5.72.18,8.19A6.41,6.41,0,0,1,50.52,75.88Zm5-.43v-6C57.51,71.41,57.33,74.13,55.49,75.45Z" transform="translate(0 -9.49)" fill="#798a25"/><path d="M97.45,86a10.62,10.62,0,0,1-.09,1.82,8.38,8.38,0,0,1-.79,2.6c-1.61,3.22-8.72,11.81-41.46,11.81C23.52,102.24,13.42,95.61,10,88c17.88,13,49,11.1,58.49,8.06C79.56,92.52,84.28,90,85.7,87.57c2.49-4.18,2.63-9.22-2.77-12.28,1.78-6.74-5.27-33.83-5.27-33.83s.62,1.21,1.61,3.22c3,6.07,9.28,19.43,11.4,28.31.47.49.92,1,1.33,1.45C96,79,97.35,83,97.45,86Z" transform="translate(0 -9.49)" fill="#ffc180"/><path d="M25.5,66.34a2.12,2.12,0,0,0-3.81-1.65c-3.82,5.41-9.28,14-8.1,17.43,1.78,5.2,15.75,9.81,17.68,8.47s-9.36-11-9.8-11S24.35,72.2,25.5,66.34Z" transform="translate(0 -9.49)" fill="#ffe8c2"/><path d="M28.3,25.06c-.39-.21,4.46,5.65,7,7.14,2,1.17,23.5,1.23,34.55.18a22.24,22.24,0,0,0,10.7-4l.52-.38S42.42,32.79,28.3,25.06Z" transform="translate(0 -9.49)" fill="#ffd097"/><path d="M30.78,44.57c-1,2.41-2.78,4.52-3.89,6.93a33.26,33.26,0,0,0-2.67,7,2,2,0,0,0,3.67,1.44,55.84,55.84,0,0,0,2.88-6.86c.9-2.26,1.39-4.94,2.58-7C34.31,44.33,31.5,42.86,30.78,44.57Z" transform="translate(0 -9.49)" fill="#ffe8c2"/><path d="M47.91,27c-5.81-.7-12.17-1.11-17.47-3.81-1.15-.59-1.9,1.29-.66,1.63,6,1.67,11.75,3.79,18.14,3.47A.65.65,0,0,0,47.91,27Z" transform="translate(0 -9.49)" fill="#ffe8c2"/><path d="M89.72,74.19a.8.8,0,0,0-1.12,1.14c3.74,3.93,4.15,8.56,3.65,13.7-.1,1,1.57,1.46,2,.51C96.45,84.12,94,77.86,89.72,74.19Z" transform="translate(0 -9.49)" fill="#fff7cb"/><path d="M88.78,71.45c-1.73-4.33-3.21-8.87-5.37-13-.27-.51-1-.14-.9.38,1.12,4.47,3,8.79,4.57,13.12C87.47,73,89.2,72.51,88.78,71.45Z" transform="translate(0 -9.49)" fill="#ffe8bf"/><path d="M80.76,97.68l.76,3.47s1.93,2.12,9.41,1.9c7.85-.24,8.29-2.43,8.29-2.43l.19-3.2Z" transform="translate(0 -9.49)" fill="#ffbc00"/><path d="M99,96.67c-1.77-1.49-7.53-1.73-8.33-1.75-5.88-.15-9.17.54-9.76,2.26-.71,2.12,4.34,2.87,5.55,3.07a26.83,26.83,0,0,0,10.14-.34,4.28,4.28,0,0,0,2.32-1.08C99.73,97.91,99.62,97.21,99,96.67Z" transform="translate(0 -9.49)" fill="#ffe506"/><path d="M83,97.69c-.79-.83,1.15-1.9,6.24-2s8,.93,8.31,1.87C98,98.82,85,99.82,83,97.69Z" transform="translate(0 -9.49)" fill="#ffd300"/><path d="M83.64,92.92l.76,3.47s1.93,2.13,9.41,1.9c7.85-.24,8.28-2.43,8.28-2.43l.2-3.2Z" transform="translate(0 -9.49)" fill="#ffbc00"/><path d="M101.85,91.91c-1.76-1.49-7.53-1.73-8.32-1.75-5.89-.15-9.18.54-9.76,2.26-.71,2.12,4.34,2.87,5.55,3.08a27,27,0,0,0,10.13-.35,4.2,4.2,0,0,0,2.32-1.07C102.61,93.16,102.49,92.45,101.85,91.91Z" transform="translate(0 -9.49)" fill="#ffe506"/><path d="M85.86,92.93C85.07,92.1,87,91,92.1,91s8,.93,8.31,1.88C100.82,94.06,87.89,95.06,85.86,92.93Z" transform="translate(0 -9.49)" fill="#ffd300"/><path d="M79.87,88.83l.76,3.46S82.57,94.42,90,94.2c7.86-.24,8.29-2.43,8.29-2.43l.2-3.2Z" transform="translate(0 -9.49)" fill="#ffbc00"/><path d="M98.09,87.82c-1.76-1.5-7.53-1.73-8.32-1.75-5.89-.15-9.18.53-9.76,2.26-.72,2.12,4.34,2.87,5.54,3.07a26.82,26.82,0,0,0,10.14-.34A4.21,4.21,0,0,0,98,90C98.85,89.06,98.73,88.36,98.09,87.82Z" transform="translate(0 -9.49)" fill="#ffe506"/><path d="M82.1,88.84c-.8-.83,1.14-1.9,6.24-2s8,.93,8.3,1.87C97.06,90,84.13,91,82.1,88.84Z" transform="translate(0 -9.49)" fill="#ffd300"/><path d="M80.65,83.74l.76,3.46s1.93,2.13,9.41,1.91c7.85-.24,8.29-2.43,8.29-2.43l.19-3.2Z" transform="translate(0 -9.49)" fill="#ffbc00"/><path d="M98.87,82.73C97.1,81.23,91.34,81,90.54,81c-5.88-.15-9.17.53-9.76,2.26-.71,2.12,4.34,2.87,5.55,3.07A26.83,26.83,0,0,0,96.47,86a4.28,4.28,0,0,0,2.32-1.08C99.62,84,99.51,83.27,98.87,82.73Z" transform="translate(0 -9.49)" fill="#ffe506"/><path d="M82.87,83.75c-.79-.83,1.15-1.9,6.24-2s8,.93,8.31,1.87C97.84,84.88,84.9,85.88,82.87,83.75Z" transform="translate(0 -9.49)" fill="#ffd300"/><path d="M80.21,78.87,81,82.33s1.93,2.13,9.41,1.91c7.85-.24,8.28-2.43,8.28-2.43l.2-3.2Z" transform="translate(0 -9.49)" fill="#ffbc00"/><path d="M98.42,77.86c-1.76-1.49-7.53-1.73-8.32-1.75-5.89-.15-9.18.53-9.76,2.26-.71,2.12,4.34,2.87,5.55,3.07A26.78,26.78,0,0,0,96,81.1,4.21,4.21,0,0,0,98.34,80C99.18,79.1,99.06,78.4,98.42,77.86Z" transform="translate(0 -9.49)" fill="#ffe506"/><path d="M82.43,78.88c-.8-.83,1.15-1.9,6.24-2s8,.93,8.31,1.87C97.39,80,84.46,81,82.43,78.88Z" transform="translate(0 -9.49)" fill="#ffd300"/><path d="M80.21,76.22,81,79.68s1.93,2.13,9.41,1.9c7.85-.23,8.28-2.43,8.28-2.43l.2-3.2Z" transform="translate(0 -9.49)" fill="#ffbc00"/><path d="M98.42,75.2c-1.76-1.49-7.53-1.73-8.32-1.75-5.89-.15-9.18.54-9.76,2.26-.71,2.12,4.34,2.87,5.55,3.08A27.19,27.19,0,0,0,96,78.45a4.28,4.28,0,0,0,2.32-1.08C99.18,76.45,99.06,75.74,98.42,75.2Z" transform="translate(0 -9.49)" fill="#ffe506"/><path d="M82.43,76.23c-.8-.83,1.15-1.91,6.24-2s8,.94,8.31,1.88C97.39,77.36,84.46,78.35,82.43,76.23Z" transform="translate(0 -9.49)" fill="#ffd300"/><path d="M80.43,73.12l.76,3.46s1.93,2.13,9.41,1.9c7.85-.23,8.28-2.43,8.28-2.43l.2-3.2Z" transform="translate(0 -9.49)" fill="#ffbc00"/><path d="M98.65,72.1c-1.77-1.49-7.54-1.73-8.33-1.75-5.89-.14-9.18.54-9.76,2.26-.71,2.12,4.34,2.87,5.55,3.08a27.25,27.25,0,0,0,10.14-.34,4.28,4.28,0,0,0,2.31-1.08C99.4,73.35,99.29,72.65,98.65,72.1Z" transform="translate(0 -9.49)" fill="#ffe506"/><path d="M82.65,73.13c-.79-.83,1.15-1.9,6.24-2s8,.94,8.31,1.88C97.61,74.26,84.68,75.25,82.65,73.13Z" transform="translate(0 -9.49)" fill="#ffd300"/><path d="M80.21,69.8,81,73.26s1.93,2.13,9.41,1.9c7.85-.23,8.28-2.42,8.28-2.42l.2-3.2Z" transform="translate(0 -9.49)" fill="#ffbc00"/><path d="M98.42,68.78c-1.76-1.49-7.53-1.73-8.32-1.75-5.89-.14-9.18.54-9.76,2.26-.71,2.12,4.34,2.87,5.55,3.08A26.78,26.78,0,0,0,96,72,4.28,4.28,0,0,0,98.34,71C99.18,70,99.06,69.33,98.42,68.78Z" transform="translate(0 -9.49)" fill="#ffe506"/><path d="M82.43,69.81c-.8-.83,1.15-1.9,6.24-2s8,.94,8.31,1.88C97.39,70.94,84.46,71.93,82.43,69.81Z" transform="translate(0 -9.49)" fill="#ffd300"/><path d="M80.43,66.37l.76,3.46s1.93,2.13,9.41,1.9c7.85-.23,8.28-2.42,8.28-2.42l.2-3.2Z" transform="translate(0 -9.49)" fill="#ffbc00"/><path d="M98.65,65.35c-1.77-1.49-7.54-1.73-8.33-1.75-5.89-.14-9.18.54-9.76,2.26-.71,2.12,4.34,2.87,5.55,3.08a26.83,26.83,0,0,0,10.14-.34,4.28,4.28,0,0,0,2.31-1.08C99.4,66.6,99.29,65.9,98.65,65.35Z" transform="translate(0 -9.49)" fill="#ffe506"/><path d="M82.65,66.38c-.79-.83,1.15-1.9,6.24-2s8,.94,8.31,1.88C97.61,67.51,84.68,68.5,82.65,66.38Z" transform="translate(0 -9.49)" fill="#ffd300"/><path d="M84.41,63.05l.76,3.46s1.93,2.13,9.41,1.9c7.86-.23,8.29-2.42,8.29-2.42l.19-3.2Z" transform="translate(0 -9.49)" fill="#ffbc00"/><path d="M102.63,62c-1.77-1.5-7.53-1.74-8.33-1.76-5.88-.14-9.17.54-9.75,2.26-.72,2.12,4.33,2.87,5.54,3.08a26.83,26.83,0,0,0,10.14-.34,4.31,4.31,0,0,0,2.32-1.08C103.38,63.28,103.27,62.58,102.63,62Z" transform="translate(0 -9.49)" fill="#ffe506"/><path d="M86.63,63.06c-.79-.83,1.15-1.9,6.24-2s8,.94,8.31,1.88C101.6,64.19,88.66,65.18,86.63,63.06Z" transform="translate(0 -9.49)" fill="#ffd300"/><path d="M96.58,98.13l.76,3.46s1.93,2.13,9.41,1.9c7.86-.24,8.29-2.43,8.29-2.43l.2-3.2Z" transform="translate(0 -9.49)" fill="#ffbc00"/><path d="M114.8,97.11c-1.77-1.49-7.53-1.73-8.33-1.75-5.88-.15-9.17.54-9.75,2.26-.72,2.12,4.34,2.87,5.54,3.08a27.23,27.23,0,0,0,10.14-.34,4.28,4.28,0,0,0,2.32-1.08C115.56,98.36,115.44,97.65,114.8,97.11Z" transform="translate(0 -9.49)" fill="#ffe506"/><path d="M98.8,98.13c-.79-.82,1.15-1.9,6.24-2s8,.94,8.31,1.88C113.77,99.26,100.83,100.26,98.8,98.13Z" transform="translate(0 -9.49)" fill="#ffd300"/><path d="M93.37,93.37l.76,3.46s1.93,2.13,9.41,1.9c7.86-.23,8.29-2.43,8.29-2.43l.2-3.2Z" transform="translate(0 -9.49)" fill="#ffbc00"/><path d="M111.59,92.35c-1.76-1.49-7.53-1.73-8.32-1.75-5.89-.15-9.18.54-9.76,2.26-.72,2.12,4.34,2.87,5.54,3.08a27.23,27.23,0,0,0,10.14-.34,4.28,4.28,0,0,0,2.32-1.08C112.35,93.6,112.23,92.89,111.59,92.35Z" transform="translate(0 -9.49)" fill="#ffe506"/><path d="M95.59,93.38c-.79-.83,1.15-1.91,6.25-2s8,.94,8.3,1.88C110.56,94.51,97.63,95.5,95.59,93.38Z" transform="translate(0 -9.49)" fill="#ffd300"/><path d="M97.8,88.61l.76,3.46S100.49,94.2,108,94c7.85-.24,8.29-2.43,8.29-2.43l.19-3.2Z" transform="translate(0 -9.49)" fill="#ffbc00"/><path d="M116,87.6c-1.77-1.5-7.53-1.74-8.33-1.76-5.88-.14-9.17.54-9.76,2.26-.71,2.12,4.34,2.87,5.55,3.08a26.83,26.83,0,0,0,10.14-.34,4.35,4.35,0,0,0,2.32-1.08C116.77,88.84,116.66,88.14,116,87.6Z" transform="translate(0 -9.49)" fill="#ffe506"/><path d="M100,88.62c-.79-.83,1.15-1.9,6.24-2s8,.93,8.31,1.87C115,89.75,102.05,90.74,100,88.62Z" transform="translate(0 -9.49)" fill="#ffd300"/><path d="M92.38,85.51,93.14,89s1.93,2.13,9.41,1.91c7.85-.24,8.29-2.43,8.29-2.43l.19-3.2Z" transform="translate(0 -9.49)" fill="#ffbc00"/><path d="M110.6,84.5c-1.77-1.49-7.53-1.73-8.33-1.75-5.89-.15-9.18.53-9.76,2.26-.71,2.12,4.34,2.87,5.55,3.07a26.83,26.83,0,0,0,10.14-.34,4.21,4.21,0,0,0,2.31-1.08C111.35,85.74,111.24,85,110.6,84.5Z" transform="translate(0 -9.49)" fill="#ffe506"/><path d="M94.6,85.52c-.79-.83,1.15-1.9,6.24-2s8,.93,8.31,1.87C109.57,86.65,96.63,87.65,94.6,85.52Z" transform="translate(0 -9.49)" fill="#ffd300"/><path d="M92.6,81l.76,3.47s1.93,2.12,9.41,1.9c7.85-.24,8.29-2.43,8.29-2.43l.19-3.2Z" transform="translate(0 -9.49)" fill="#ffbc00"/><path d="M110.82,80c-1.77-1.49-7.53-1.73-8.33-1.75-5.88-.15-9.17.54-9.76,2.26-.71,2.12,4.34,2.87,5.55,3.08a27,27,0,0,0,10.14-.35,4.26,4.26,0,0,0,2.32-1.07C111.57,81.21,111.46,80.5,110.82,80Z" transform="translate(0 -9.49)" fill="#ffe506"/><path d="M94.82,81c-.79-.83,1.15-1.9,6.24-2s8,.93,8.31,1.88C109.79,82.11,96.85,83.11,94.82,81Z" transform="translate(0 -9.49)" fill="#ffd300"/><path d="M92.93,77l.76,3.46s1.93,2.13,9.41,1.91c7.86-.24,8.29-2.43,8.29-2.43l.19-3.2Z" transform="translate(0 -9.49)" fill="#ffbc00"/><path d="M111.15,76c-1.77-1.5-7.53-1.73-8.33-1.75-5.88-.15-9.17.53-9.75,2.26-.72,2.12,4.33,2.87,5.54,3.07a26.83,26.83,0,0,0,10.14-.34,4.24,4.24,0,0,0,2.32-1.08C111.9,77.22,111.79,76.52,111.15,76Z" transform="translate(0 -9.49)" fill="#ffe506"/><path d="M95.15,77c-.79-.83,1.15-1.9,6.24-2s8,.93,8.31,1.87C110.12,78.13,97.18,79.13,95.15,77Z" transform="translate(0 -9.49)" fill="#ffd300"/><path d="M96.14,71.9l.76,3.46s1.93,2.13,9.41,1.91c7.86-.24,8.29-2.43,8.29-2.43l.19-3.2Z" transform="translate(0 -9.49)" fill="#ffbc00"/><path d="M114.36,70.89c-1.77-1.49-7.53-1.73-8.33-1.75-5.88-.15-9.17.53-9.75,2.26-.72,2.12,4.33,2.87,5.54,3.07A26.83,26.83,0,0,0,112,74.13a4.28,4.28,0,0,0,2.32-1.08C115.11,72.13,115,71.43,114.36,70.89Z" transform="translate(0 -9.49)" fill="#ffe506"/><path d="M98.36,71.91c-.79-.83,1.15-1.9,6.24-2s8,.93,8.31,1.87C113.33,73,100.39,74,98.36,71.91Z" transform="translate(0 -9.49)" fill="#ffd300"/></g></g></svg>