<svg xmlns="http://www.w3.org/2000/svg" viewBox="0 0 145.75 97.77"><g id="Layer_2" data-name="Layer 2"><g id="Screens"><rect x="0.26" y="0.26" width="145.28" height="97.28" fill="#fff"/><path d="M145.54,97.54s0-.61,0-1.77l0-5.14c0-4.5,0-11.1-.06-19.56,0-16.9-.06-41.19-.11-70.81l.21.21L.27.52h0L.52.26c0,34.66,0,67.61,0,97.28L.26,97.3l104.67.12,29.9.06,7.95,0h2.06l.7,0h-2.7l-7.91,0-29.85.07L.26,97.77H0v-.23C0,67.87,0,34.92,0,.26V0H.27L145.54.05h.21V.26c0,29.67-.08,54-.11,70.94,0,8.44,0,15,0,19.52,0,2.23,0,3.93,0,5.09S145.54,97.54,145.54,97.54Z" fill="#e8505b"/><path d="M.26,8.94c0-.14,32.5-.26,72.58-.26s72.58.12,72.58.26-32.49.26-72.58.26S.26,9.09.26,8.94Z" fill="#e8505b"/><g opacity="0.3"><path d="M6,4.56A1.17,1.17,0,1,1,4.83,3.4,1.16,1.16,0,0,1,6,4.56Z" fill="#e8505b"/></g><g opacity="0.3"><path d="M10,4.56A1.17,1.17,0,1,1,8.82,3.4,1.16,1.16,0,0,1,10,4.56Z" fill="#e8505b"/></g><g opacity="0.3"><path d="M13.91,4.56A1.16,1.16,0,1,1,12.75,3.4,1.16,1.16,0,0,1,13.91,4.56Z" fill="#e8505b"/></g><g opacity="0.3"><rect x="12.75" y="19.09" width="38.75" height="38.75" fill="#e8505b"/></g><path d="M125.62,30c0,.14-15.11.26-33.76.26S58.11,30.18,58.11,30s15.11-.26,33.75-.26S125.62,29.9,125.62,30Z" fill="#e8505b"/><path d="M125.62,37.24c0,.15-15.11.26-33.76.26s-33.75-.11-33.75-.26S73.22,37,91.86,37,125.62,37.1,125.62,37.24Z" fill="#e8505b"/><path d="M125.62,44.44c0,.15-15.11.26-33.76.26s-33.75-.11-33.75-.26,15.11-.26,33.75-.26S125.62,44.3,125.62,44.44Z" fill="#e8505b"/><path d="M98,51.64a9,9,0,0,1-1.57.11l-4.28.08c-3.61.05-8.59.08-14.1.08s-10.5,0-14.11-.08l-4.28-.08a8.82,8.82,0,0,1-1.56-.11,9.68,9.68,0,0,1,1.56-.1L64,51.46c3.61-.05,8.6-.08,14.11-.08s10.49,0,14.1.08l4.28.08A9.9,9.9,0,0,1,98,51.64Z" fill="#e8505b"/><g opacity="0.3"><rect x="15.18" y="70.91" width="18.21" height="18.21" fill="#e8505b"/></g><g opacity="0.3"><rect x="48.2" y="70.91" width="18.21" height="18.21" fill="#e8505b"/></g><g opacity="0.3"><rect x="81.23" y="70.91" width="18.21" height="18.21" fill="#e8505b"/></g><g opacity="0.3"><rect x="114.26" y="70.91" width="18.21" height="18.21" fill="#e8505b"/></g></g></g></svg>