<svg xmlns="http://www.w3.org/2000/svg" viewBox="0 0 175.84 175"><g id="Layer_2" data-name="Layer 2"><g id="Space"><g id="Ufo"><g id="Ufo-2" data-name="Ufo"><rect x="44.91" y="116.78" width="3.97" height="36.34" fill="#0f171f"/><path d="M51.23,153.12a4.34,4.34,0,1,1-4.34-4.33A4.33,4.33,0,0,1,51.23,153.12Z" fill="#0f171f"/><rect x="121.49" y="116.78" width="3.97" height="36.34" fill="#0f171f"/><path d="M127.81,153.12a4.33,4.33,0,1,1-4.33-4.33A4.33,4.33,0,0,1,127.81,153.12Z" fill="#0f171f"/><path d="M86,116.78,1.55,103.12S4,130.44,86,130.44s84.47-27.32,84.47-27.32Z" fill="#e43d25"/><path d="M170.5,101.69c0,11.07-37.82,20-84.47,20s-84.48-9-84.48-20,37.82-20,84.48-20S170.5,90.63,170.5,101.69Z" fill="#f0512f"/><path d="M170.5,101.69c0,11.07-37.82,20-84.47,20s-84.48-9-84.48-20,37.82-20,84.48-20S170.5,90.63,170.5,101.69Z" fill="#f0512f"/><path d="M123.71,63.72h0a42,42,0,0,0-75.36,0h0a42.07,42.07,0,0,0-.63,35.8A323.15,323.15,0,0,0,86,101.69a323,323,0,0,0,38.3-2.17,42.12,42.12,0,0,0-.62-35.8Z" fill="#9edbf0"/><polygon points="67.9 101.23 67.9 101.23 67.9 101.23 67.9 101.23" fill="#9edbf0"/><path d="M123.71,63.72h0A42.11,42.11,0,0,0,112.27,49.5,62.84,62.84,0,0,0,91.73,59.88a10.47,10.47,0,1,1-14,15.34,66.57,66.57,0,0,0-9.84,26h0c5.84.3,11.9.46,18.13.46a323,323,0,0,0,38.3-2.17,42.12,42.12,0,0,0-.62-35.8Z" fill="#010101" opacity="0.1"/><path d="M29.81,98c0,1.77-3.24,3.2-7.23,3.2S15.36,99.8,15.36,98s3.24-3.2,7.22-3.2S29.81,96.26,29.81,98Z" fill="#fff"/><path d="M152.63,98c0,1.77-3.23,3.2-7.22,3.2s-7.22-1.43-7.22-3.2,3.23-3.2,7.22-3.2S152.63,96.26,152.63,98Z" fill="#fff"/><ellipse cx="46.89" cy="108.38" rx="7.22" ry="3.2" fill="#fff"/><ellipse cx="123.48" cy="108.38" rx="7.22" ry="3.2" fill="#fff"/><path d="M93.25,111.58c0,1.77-3.23,3.2-7.22,3.2s-7.22-1.43-7.22-3.2,3.23-3.2,7.22-3.2S93.25,109.81,93.25,111.58Z" fill="#fff"/></g><g id="Star"><path d="M15.86,60.44a7.93,7.93,0,0,1-7.93-7.93A7.93,7.93,0,0,1,0,60.44a7.93,7.93,0,0,1,7.93,7.93A7.93,7.93,0,0,1,15.86,60.44Z" fill="#fff"/><path d="M175.84,61.54a5.93,5.93,0,0,1-5.93-5.93A5.94,5.94,0,0,1,164,61.54a5.94,5.94,0,0,1,5.94,5.94A5.93,5.93,0,0,1,175.84,61.54Z" fill="#fff"/><circle cx="18.87" cy="164.06" r="10.94" fill="#fff"/><circle cx="64.15" cy="11.54" r="11.54" fill="#fff"/></g></g></g></g></svg>