<svg xmlns="http://www.w3.org/2000/svg" viewBox="0 0 182.17 117.09"><g id="Layer_2" data-name="Layer 2"><g id="OBJECTS"><path d="M0,86.5c53.42-27.9,108.79,23.68,164.49,0V6.31C108.55,28.22,56.35-15.57,0,6.31Z" fill="#8bcb0a"/><path d="M8.46,10.47Q7.8,42.56,7.12,74.64c50.61-16.87,98.21,22.09,149.72,7.57l-.6-64.46C105.43,30.9,59.33-3.11,8.46,10.47ZM136.61,78.53c-14.77.12-28.08-1.84-42.49-5,6.82-3.19,11.11-11.44,11.17-21.33.06-9.43-5.21-21.37-12.44-27.6,14.52,3.35,28,5.49,42.87,5.52.12,6.46,6.29,14.32,12.71,12.78.15,9.46.22,14.19.36,23.65C142.45,68.06,136.49,72.07,136.61,78.53ZM16,30.42c6.4-1.66,12.58-10.11,12.89-16.49,14.07-1,27.42,1.73,41.05,4.78-7.3,3.06-12.47,11.42-13.07,21.74-.5,8.71,3.87,20.1,10.46,26.05-13.52-3-26.82-5.82-40.78-4.76.31-6.38-5.23-9.59-11.4-7.87Z" fill="#419b19"/><path d="M89.75,40.58a8.28,8.28,0,0,0-1-1.11A17.81,17.81,0,0,0,85.11,37a14.05,14.05,0,0,0-2.2-.95c0,3.24,0,4.85-.06,8.09l.73.35c1.4.71,2.72,1.43,3.87,2.14a16,16,0,0,1,2.91,2.28,8.94,8.94,0,0,1,1.85,2.68,8.29,8.29,0,0,1,.65,3.36,6.63,6.63,0,0,1-.76,3.36A4.76,4.76,0,0,1,90,60.2a7.43,7.43,0,0,1-3.13.67A15.54,15.54,0,0,1,83,60.39c0,1.64,0,2.46,0,4.1l-2.07-.55c0-1.67,0-2.51,0-4.18a27.24,27.24,0,0,1-5.5-2.58,25,25,0,0,1-4.73-3.78l2.13-3.21a10.18,10.18,0,0,0,1.25,1.34,20.14,20.14,0,0,0,2,1.56,24.58,24.58,0,0,0,2.45,1.55,20.47,20.47,0,0,0,2.77,1.29c0-3.23,0-4.85.07-8.09l-.48-.26c-.17-.09-.34-.17-.49-.27-1.4-.74-2.62-1.44-3.66-2.12a13,13,0,0,1-2.56-2.13,8.07,8.07,0,0,1-1.52-2.41,7.42,7.42,0,0,1-.46-2.91,6.92,6.92,0,0,1,.74-3.21,5.25,5.25,0,0,1,1.92-2.07,6.68,6.68,0,0,1,2.84-.94,12,12,0,0,1,3.55.16c0-1.58,0-2.37,0-3.94l2,.51c0,1.58,0,2.37,0,4A19.71,19.71,0,0,1,88,34.44a23.78,23.78,0,0,1,3.82,3.05C91,38.73,90.56,39.35,89.75,40.58Zm-13-2.36A3.6,3.6,0,0,0,77.92,41a15.44,15.44,0,0,0,3.49,2.37c0-3.08,0-4.61.08-7.69a5,5,0,0,0-3.52.19A2.62,2.62,0,0,0,76.8,38.22Zm11.27,16a3.83,3.83,0,0,0-1.38-3,21.42,21.42,0,0,0-3.88-2.6c0,3.09,0,4.64-.06,7.74a6.76,6.76,0,0,0,3.93.09A2.19,2.19,0,0,0,88.07,54.18Z" fill="#fff"/><path d="M121.32,54.09a6.86,6.86,0,0,0,6.44,6.7A6.16,6.16,0,0,0,134,54.43a6.48,6.48,0,0,0-6.42-6.28A5.84,5.84,0,0,0,121.32,54.09Z" fill="#fff"/><path d="M42.66,37.94A6.32,6.32,0,0,1,36,43.81a5.85,5.85,0,0,1-6-6.14,6.65,6.65,0,0,1,6.59-6.3A6.24,6.24,0,0,1,42.66,37.94Z" fill="#fff"/><path d="M17.68,110.68c53.42-27.9,108.79,23.68,164.49,0V30.49C126.23,52.39,74,8.61,17.68,30.49Z" fill="#8bcb0a"/><path d="M26.14,34.65,24.79,98.82C75.4,81.94,123,120.91,174.52,106.38l-.6-64.45C123.1,55.08,77,21.06,26.14,34.65Zm128.15,68.06c-14.78.12-28.09-1.84-42.49-5,6.82-3.2,11.1-11.45,11.17-21.34.06-9.42-5.21-21.36-12.45-27.59,14.53,3.35,28,5.49,42.88,5.52.12,6.46,6.29,14.32,12.71,12.78.14,9.46.21,14.19.36,23.65C160.12,92.24,154.17,96.25,154.29,102.71ZM33.65,54.6C40,52.93,46.22,44.48,46.54,38.11c14.06-1,27.42,1.73,41.05,4.77-7.3,3.06-12.48,11.43-13.07,21.74C74,73.34,78.39,84.72,85,90.68c-13.53-3-26.82-5.82-40.78-4.77.31-6.37-5.23-9.58-11.4-7.86Z" fill="#419b19"/><path d="M107.43,64.76a8.46,8.46,0,0,0-1.05-1.11,17.9,17.9,0,0,0-1.6-1.28,18.76,18.76,0,0,0-2-1.22,14,14,0,0,0-2.2-.94c0,3.23,0,4.85-.07,8.09l.74.35c1.4.7,2.71,1.43,3.86,2.14A16,16,0,0,1,108,73.07a8.79,8.79,0,0,1,1.84,2.68,8.11,8.11,0,0,1,.66,3.35,6.48,6.48,0,0,1-.77,3.36,4.76,4.76,0,0,1-2.1,1.92,7.47,7.47,0,0,1-3.13.66,14.64,14.64,0,0,1-3.82-.48c0,1.65,0,2.47,0,4.11l-2.06-.55c0-1.67,0-2.51,0-4.18a26.74,26.74,0,0,1-5.5-2.58,24.37,24.37,0,0,1-4.73-3.79c.85-1.28,1.28-1.92,2.12-3.21a10.4,10.4,0,0,0,1.26,1.35,21.55,21.55,0,0,0,1.94,1.56,26.54,26.54,0,0,0,2.45,1.55A21.67,21.67,0,0,0,99,80.11c0-3.24,0-4.86.08-8.09l-.49-.27c-.17-.08-.33-.17-.49-.26-1.4-.74-2.61-1.45-3.65-2.12a13.06,13.06,0,0,1-2.56-2.14,7.83,7.83,0,0,1-1.52-2.4,7.48,7.48,0,0,1-.47-2.91,7.25,7.25,0,0,1,.74-3.22,5.32,5.32,0,0,1,1.93-2.06,6.64,6.64,0,0,1,2.84-1,12.42,12.42,0,0,1,3.55.17c0-1.58,0-2.37,0-4l2,.52c0,1.58,0,2.37,0,4a19.57,19.57,0,0,1,4.71,2.23,25.43,25.43,0,0,1,3.82,3Zm-13-2.36a3.64,3.64,0,0,0,1.13,2.76,15.54,15.54,0,0,0,3.49,2.37c0-3.08,0-4.62.07-7.7a4.92,4.92,0,0,0-3.51.2A2.59,2.59,0,0,0,94.47,62.4Zm11.28,16a3.85,3.85,0,0,0-1.39-3,21.82,21.82,0,0,0-3.87-2.6l-.06,7.74a6.77,6.77,0,0,0,3.93.1A2.21,2.21,0,0,0,105.75,78.36Z" fill="#fff"/><path d="M139,78.27A6.86,6.86,0,0,0,145.44,85a6.16,6.16,0,0,0,6.21-6.35,6.5,6.5,0,0,0-6.43-6.29A5.85,5.85,0,0,0,139,78.27Z" fill="#fff"/><path d="M60.33,62.12A6.32,6.32,0,0,1,53.71,68a5.85,5.85,0,0,1-6-6.14,6.65,6.65,0,0,1,6.59-6.3A6.23,6.23,0,0,1,60.33,62.12Z" fill="#fff"/></g></g></svg>