<svg xmlns="http://www.w3.org/2000/svg" viewBox="0 0 1468.34 971.81"><g style="isolation:isolate"><g id="Layer_2" data-name="Layer 2"><g id="Layer_1-2" data-name="Layer 1"><rect x="631.37" y="37.53" width="223.42" height="550.1" rx="4.86" fill="#ffefe6"/><rect x="827.06" y="229" width="169.21" height="358.63" fill="#ffefe6"/><rect x="556" y="267.52" width="136.16" height="320.11" fill="#ffefe6"/><rect x="365.6" y="172.83" width="216.81" height="414.8" rx="4" fill="#ffefe6"/><rect x="111.29" y="367.22" width="210.2" height="220.41" rx="3.39" fill="#ffefe6"/><rect y="457.85" width="157.53" height="129.78" rx="2.55" fill="#ffefe6"/><rect x="407.88" y="146.17" width="132.26" height="54.32" rx="3.06" fill="#ffefe6"/><rect x="1232.99" y="426.13" width="235.36" height="161.5" rx="4.45" fill="#ffefe6"/><rect x="1291.16" y="361.47" width="55.53" height="131.35" rx="4" fill="#ffefe6"/><rect x="184.67" y="293.82" width="48.7" height="105.35" rx="2" fill="#ffefe6"/><rect x="251.89" y="349.09" width="48.26" height="50.07" rx="2.1" fill="#ffefe6"/><rect x="128.92" y="342.3" width="32.39" height="55.71" rx="2.76" fill="#ffefe6"/><rect x="1382.4" y="398.94" width="47.6" height="93.88" rx="2.86" fill="#ffefe6"/><path d="M1145.72,187.38V584.89c0,1.51-1.65,2.74-3.67,2.74H948.41c-2,0-3.67-1.23-3.67-2.74V74.42c0-2.29,3.52-3.57,5.93-2.16l193.64,113A2.57,2.57,0,0,1,1145.72,187.38Z" fill="#ffefe6"/><path d="M1107.37,310.34V585.16c0,1.36,1.49,2.47,3.32,2.47h134.85c1.83,0,3.31-1.11,3.31-2.47V232.83c0-2.05-3.15-3.21-5.33-2l-134.85,77.51A2.31,2.31,0,0,0,1107.37,310.34Z" fill="#ffefe6"/><path d="M277,309.47V586.91c0,.4.43.72,1,.72H417.52c.54,0,1-.32,1-.72V229.27c0-.6-.92-.94-1.56-.57L277.39,308.9A.68.68,0,0,0,277,309.47Z" fill="#ffefe6"/><rect x="687.81" width="110.54" height="57.28" rx="3.37" fill="#ffefe6"/><path d="M441.22,153.74,473.29,40.38a.81.81,0,0,1,1.43,0l32.07,113.36c.1.34-.25.66-.71.66H441.93C441.47,154.4,441.12,154.08,441.22,153.74Z" fill="#ffefe6"/><ellipse cx="491.74" cy="706.11" rx="125.99" ry="31.54" fill="#ffeee6"/><path d="M900.77,906.81s-128.62,27.56-132.3,25.73-14.09-27.57-55.74-53.9S651.47,818,647.8,801.45,660.05,652,656.39,641c-1.13-3.38-10.41-18.28-22.16-37.63-6.53-10.77-13.83-22.94-20.92-35.28-21.65-37.64-41.27-76.9-31-83.29,11.27-7,28,6.57,40.2,19.42A198.5,198.5,0,0,1,638,522.76s5.58,9.59,14.43,24.83C684.79,603.35,760.73,734.7,766,748.17,772.75,765.32,900.77,906.81,900.77,906.81Z" fill="#f7d2b7"/><path d="M654.79,792.92c22.13,24.07,108.48,30.45,119.55,24.36s-2.25-33.22,6.88-53.14S654.79,792.92,654.79,792.92Z" fill="#e6e6e6" style="mix-blend-mode:multiply"/><path d="M634.23,603.35c-6.53-10.77-13.83-22.94-20.92-35.28-2.57-22.24-.38-48.45,9.16-63.87A198.5,198.5,0,0,1,638,522.76s5.58,9.59,14.43,24.83C654.63,564.94,644.53,595.07,634.23,603.35Z" fill="#e6e6e6" style="mix-blend-mode:multiply"/><path d="M826.59,454.65V776.7a24,24,0,0,1-24,24H634.44A12.7,12.7,0,0,1,621.81,788V454.65a24,24,0,0,1,24-24H802.62a24,24,0,0,1,24,24Z" fill="#015da6"/><path d="M634.44,790.15a2,2,0,0,1-1.17-.38,2.12,2.12,0,0,1-.93-1.73V454.64a13.46,13.46,0,0,1,13.44-13.44H802.62a13.46,13.46,0,0,1,13.45,13.44V776.7a13.46,13.46,0,0,1-13.45,13.45Z" fill="#d6eeff"/><rect x="678.98" y="673.73" width="90.45" height="36.94" rx="2.24" fill="#ce462c"/><path d="M700.33,683.9a1.43,1.43,0,0,1,.3-.92,1.15,1.15,0,0,1,1-.38h4.18A5.81,5.81,0,0,1,708,683a4.85,4.85,0,0,1,1.61,1.06,4.73,4.73,0,0,1,1,1.49,4.31,4.31,0,0,1,.33,1.63,4.76,4.76,0,0,1-.74,2.71,3.54,3.54,0,0,1-1.93,1.49v.06a4.12,4.12,0,0,1,1.62.48,4.61,4.61,0,0,1,1.32,1,4.46,4.46,0,0,1,.89,1.45,4.81,4.81,0,0,1,.33,1.78,5.57,5.57,0,0,1-.42,2.15,5.36,5.36,0,0,1-1.21,1.78,5.82,5.82,0,0,1-2,1.22,7.24,7.24,0,0,1-2.68.46H701.6a1.13,1.13,0,0,1-1-.38,1.4,1.4,0,0,1-.3-.91Zm2.37,6.82h2.7a3.08,3.08,0,0,0,2.36-.89,3.12,3.12,0,0,0,.82-2.21,3.08,3.08,0,0,0-.75-2.13,3,3,0,0,0-2.35-.84H702.7Zm0,9h3.35a4.24,4.24,0,0,0,2.88-1,3.23,3.23,0,0,0,1.13-2.59,3.7,3.7,0,0,0-.25-1.37,3.12,3.12,0,0,0-.77-1.13,3.5,3.5,0,0,0-1.23-.76,4.64,4.64,0,0,0-1.65-.27H702.7Z" fill="#fff"/><path d="M706.15,702.55H701.6a1.88,1.88,0,0,1-1.56-.66,2.15,2.15,0,0,1-.46-1.38V683.9a2.13,2.13,0,0,1,.46-1.38,1.85,1.85,0,0,1,1.56-.67h4.18a6.43,6.43,0,0,1,2.52.47,5.49,5.49,0,0,1,1.87,1.23,5.33,5.33,0,0,1,1.14,1.72,5.07,5.07,0,0,1,.39,1.92,5.59,5.59,0,0,1-.86,3.12,4.59,4.59,0,0,1-.75.88l.17.08a6,6,0,0,1,1.52,1.18,5.36,5.36,0,0,1,1,1.69,5.61,5.61,0,0,1,.38,2.05,6.23,6.23,0,0,1-.48,2.43,6,6,0,0,1-1.38,2,6.66,6.66,0,0,1-2.22,1.39A8.06,8.06,0,0,1,706.15,702.55Zm-4.55-19.2a.59.59,0,0,0-.38.09.71.71,0,0,0-.14.46v16.61a.65.65,0,0,0,.14.45c0,.06.19.09.38.09h4.55a6.58,6.58,0,0,0,2.41-.4,5.24,5.24,0,0,0,1.73-1.07,4.57,4.57,0,0,0,1-1.53,4.85,4.85,0,0,0,.36-1.86,4.21,4.21,0,0,0-.27-1.51,4,4,0,0,0-1.87-2.09,3.6,3.6,0,0,0-1.34-.4l-.33,0,.2.07a4.24,4.24,0,0,1,1.47.91,3.91,3.91,0,0,1,1,1.4,4.4,4.4,0,0,1,.31,1.65,4,4,0,0,1-1.39,3.16,5,5,0,0,1-3.37,1.15H702v-8.59h4.2a6.11,6.11,0,0,1,1.39.15V691a4.24,4.24,0,0,1-2.14.51H702V683.9h3.53a3.72,3.72,0,0,1,2.9,1.09,3.78,3.78,0,0,1,1,2.63,3.86,3.86,0,0,1-1,2.72,3.17,3.17,0,0,1-.52.45l.27-.11a2.8,2.8,0,0,0,1.53-1.2,4.08,4.08,0,0,0,.62-2.29,3.49,3.49,0,0,0-.29-1.35,3.63,3.63,0,0,0-.82-1.24,4.08,4.08,0,0,0-1.37-.9,5.1,5.1,0,0,0-2-.35ZM703.45,699h2.6a3.52,3.52,0,0,0,2.39-.79,2.49,2.49,0,0,0,.88-2,2.91,2.91,0,0,0-.21-1.1,2.29,2.29,0,0,0-.59-.86,2.79,2.79,0,0,0-1-.6,3.92,3.92,0,0,0-1.4-.22h-2.7Zm0-9h1.95a2.32,2.32,0,0,0,1.81-.65,2.38,2.38,0,0,0,.62-1.7,2,2,0,0,0-2.35-2.22h-2Z" fill="#fff"/><path d="M716.49,683.85a1.3,1.3,0,0,1,.32-.92,1.18,1.18,0,0,1,.87-.33,1.15,1.15,0,0,1,.86.33,1.24,1.24,0,0,1,.32.92V695a4.39,4.39,0,0,0,1.41,3.47,6,6,0,0,0,7.33,0A4.42,4.42,0,0,0,729,695V683.85a1.25,1.25,0,0,1,.33-.92,1.29,1.29,0,0,1,1.72,0,1.26,1.26,0,0,1,.33.92v10.32a9.07,9.07,0,0,1-.71,3.87,6.08,6.08,0,0,1-1.79,2.32,6.48,6.48,0,0,1-2.4,1.14,10.95,10.95,0,0,1-5.09,0,6.33,6.33,0,0,1-2.4-1.14,6.2,6.2,0,0,1-1.8-2.32,9.08,9.08,0,0,1-.7-3.87Z" fill="#fff"/><path d="M723.93,702.55a11.75,11.75,0,0,1-2.72-.33,6.75,6.75,0,0,1-4.7-3.87,9.89,9.89,0,0,1-.77-4.19V683.85a2,2,0,0,1,.54-1.44,2.05,2.05,0,0,1,2.79,0,2,2,0,0,1,.54,1.44V695a3.67,3.67,0,0,0,1.15,2.91,5.31,5.31,0,0,0,6.34,0,3.64,3.64,0,0,0,1.15-2.91V683.85a2,2,0,0,1,.54-1.44,2.06,2.06,0,0,1,2.8,0,2,2,0,0,1,.53,1.44v10.31a9.89,9.89,0,0,1-.77,4.19,7,7,0,0,1-2,2.6,7.11,7.11,0,0,1-2.69,1.28A12.23,12.23,0,0,1,723.93,702.55Zm-6.25-19.2a.4.4,0,0,0-.33.11s-.11.11-.11.39v10.31a8.44,8.44,0,0,0,.63,3.56,5.42,5.42,0,0,0,1.57,2,5.57,5.57,0,0,0,2.11,1,10.21,10.21,0,0,0,4.76,0,5.28,5.28,0,0,0,3.69-3,8.6,8.6,0,0,0,.63-3.56V683.85a.53.53,0,0,0-.11-.39.44.44,0,0,0-.33-.11.4.4,0,0,0-.33.11s-.11.11-.11.39V695a5.16,5.16,0,0,1-1.65,4,6.78,6.78,0,0,1-8.33,0,5.14,5.14,0,0,1-1.66-4V683.85c0-.28-.08-.37-.11-.39A.39.39,0,0,0,717.68,683.35Z" fill="#fff"/><path d="M740.17,692.79,735,684.54a1.94,1.94,0,0,1-.37-1,.83.83,0,0,1,.31-.7,1.15,1.15,0,0,1,.76-.26,1.39,1.39,0,0,1,.63.15,1.56,1.56,0,0,1,.56.6l4.45,7.13,4.45-7.13a1.51,1.51,0,0,1,.57-.6,1.32,1.32,0,0,1,.62-.15,1.15,1.15,0,0,1,.76.26.83.83,0,0,1,.31.7,1.94,1.94,0,0,1-.37,1l-5.15,8.25v7.77a1.24,1.24,0,0,1-.33.91,1.29,1.29,0,0,1-1.72,0,1.24,1.24,0,0,1-.33-.91Z" fill="#fff"/><path d="M741.36,702.55A1.89,1.89,0,0,1,740,702a2,2,0,0,1-.54-1.44V693l-5-8.06a2.6,2.6,0,0,1-.49-1.38,1.62,1.62,0,0,1,.58-1.29,2.06,2.06,0,0,1,3.07.69l3.81,6.1,3.81-6.11a2.13,2.13,0,0,1,.87-.87,2.06,2.06,0,0,1,2.2.19,1.62,1.62,0,0,1,.58,1.29,2.66,2.66,0,0,1-.49,1.39l-5,8v7.55a2,2,0,0,1-.54,1.44A1.89,1.89,0,0,1,741.36,702.55Zm-5.64-19.2a.39.39,0,0,0-.29.09c0,.13,0,.31.22.69l5.27,8.44v8a.6.6,0,0,0,.11.4.59.59,0,0,0,.66,0,.6.6,0,0,0,.11-.4v-8l5.26-8.43a1.32,1.32,0,0,0,.27-.58c-.13-.25-.36-.27-.62-.14,0,0-.1.05-.26.31l-5.09,8.16-5.08-8.15c-.17-.27-.26-.32-.27-.32A.59.59,0,0,0,735.72,683.35Z" fill="#fff"/><path d="M861.26,711.88c0,45.93,6.44,113-23.42,144.25-28.37,29.67-68.91-16.55-73.27-37a15.39,15.39,0,0,1-.38-3c-.72-28.22,11-47.67,24-62.8,12.86-15,26.9-25.69,31.25-36.43,8.74-21.6,5-41.8,24.8-69.82s41.35-25.73,41.35-20.69S861.26,665.93,861.26,711.88Z" fill="#f7d2b7"/><path d="M822.65,441.53l-6.59,18-121,330.62-3.84,10.52H634.44A12.7,12.7,0,0,1,621.81,788V731.2l10.52-28.77L727.9,441.2l3.85-10.52h70.87A24,24,0,0,1,822.65,441.53Z" fill="#fff" opacity="0.3"/><path d="M633.1,759c-35-4.75-50.58-51.36-36.57-59.06a.23.23,0,0,1,.1-.07,8.79,8.79,0,0,1,2.79-.9s19.42,17.83,32.58,34.12c2.26,2.77,4.33,5.51,6.09,8.1C645.68,752.43,647.46,761,633.1,759Z" fill="#f7d2b7"/><path d="M643.9,737.34a67.66,67.66,0,0,1-11.9-4.21c2.26,2.77,4.33,5.51,6.09,8.1-22-2.47-40.45-29.5-41.45-41h0a2.53,2.53,0,0,0,0-.27,5.59,5.59,0,0,1,.81-3.75s45.19,30.78,48.14,41.57C645,737.63,644.48,737.49,643.9,737.34Z" fill="#e6e6e6" style="mix-blend-mode:multiply"/><path d="M645.58,737.73c-.55-.1-1.1-.24-1.68-.39a67.66,67.66,0,0,1-11.9-4.21c-15.34-7.09-27.44-19.46-35.36-32.94h0c0-.07-.08-.14-.11-.2-13.17-22.53-14.63-48.11,0-57.16.45-.28.89-.53,1.37-.78,0,0,34.55,38.73,51.46,67.07C660.3,727.53,663.84,741.58,645.58,737.73Z" fill="#f7d2b7"/><path d="M649.31,709.11c-39.8-11.17-53.55-51.93-52.83-66.29.45-.28.89-.53,1.37-.78C597.85,642,632.4,680.77,649.31,709.11Z" fill="#e6e6e6" style="mix-blend-mode:multiply"/><path d="M588.7,604.82c-7.27,37,41.12,98.44,74,100,32.69,1.59-13.47-65.06-30.45-81.69S591.38,591.21,588.7,604.82Z" fill="#f7d2b7"/><path d="M749.18,910.33c5.05-5.05,151.6-29.4,154.35-26.64s8.73,21.13,8.73,26.18S749.18,910.33,749.18,910.33Z" fill="#f7f5ff"/><path d="M742.29,909c9.62-.69,172.73-6.44,177.32-4.14s44.11,52.83,42.73,57.43-201.68,14.24-204.89,6.89S735.85,909.42,742.29,909Z" fill="#25144f"/><path d="M694,622.3a1.84,1.84,0,0,1-.81-3.5l20.36-9.88a.28.28,0,0,0,.17-.34L676.5,524.05a.41.41,0,0,0-.38-.21H657.28a1.84,1.84,0,1,1,0-3.68h18.84a4.09,4.09,0,0,1,3.75,2.41l37.18,84.53a4,4,0,0,1-1.93,5.13l-20.36,9.88A1.77,1.77,0,0,1,694,622.3Z" fill="#300046"/><rect x="732.72" y="596.63" width="3.77" height="37.84" transform="translate(-75.44 1127.78) rotate(-72.27)" fill="#300046"/><path d="M764.35,593.55H708.84a1.89,1.89,0,0,1,0-3.78h55.51a.34.34,0,0,0,.34-.26l10.15-35.69a.4.4,0,0,0-.05-.3.37.37,0,0,0-.25-.16l-87.75-12a1.89,1.89,0,1,1,.51-3.74l87.75,12a4.13,4.13,0,0,1,3.42,5.22l-10.15,35.69A4.14,4.14,0,0,1,764.35,593.55Z" fill="#300046"/><path d="M768.66,580.4H703.44a1.26,1.26,0,0,1,0-2.52h65.22a1.26,1.26,0,0,1,0,2.52Z" fill="#300046"/><path d="M773.46,566.59h-.05l-75.76-3a1.35,1.35,0,0,1-1.3-1.41,1.31,1.31,0,0,1,1.4-1.3l75.76,3a1.36,1.36,0,0,1,0,2.71Z" fill="#300046"/><path d="M721.36,592a1.36,1.36,0,0,1-1.36-1.36V544.72a1.36,1.36,0,1,1,2.71,0v45.89A1.35,1.35,0,0,1,721.36,592Z" fill="#300046"/><path d="M746.4,592h-.1a1.31,1.31,0,0,1-1.2-1.4l3.36-42a1.28,1.28,0,0,1,1.39-1.19,1.3,1.3,0,0,1,1.19,1.4l-3.35,42A1.3,1.3,0,0,1,746.4,592Z" fill="#300046"/><circle cx="691.44" cy="621" r="7.75" fill="#300046"/><circle cx="756.61" cy="621" r="7.75" fill="#300046"/><circle cx="775.92" cy="550.84" r="12.32" fill="#ce462c"/><path d="M771.85,557.29v-.88a6.39,6.39,0,0,1,1-1.68,17.64,17.64,0,0,1,1.39-1.48c.5-.47,1-.92,1.51-1.35s1-.86,1.36-1.29a7.41,7.41,0,0,0,1-1.32,2.79,2.79,0,0,0,.39-1.42,2.84,2.84,0,0,0-.2-1.1,2,2,0,0,0-.54-.77,2.17,2.17,0,0,0-.83-.46,3.61,3.61,0,0,0-1.08-.15,2.7,2.7,0,0,0-1.77.59,2.52,2.52,0,0,0-.85,1.73l-1.25-.12a3.92,3.92,0,0,1,.35-1.25,3.17,3.17,0,0,1,.76-1,3.5,3.5,0,0,1,1.18-.69,4.69,4.69,0,0,1,1.61-.25,5.09,5.09,0,0,1,1.61.23,3.52,3.52,0,0,1,1.23.65,2.8,2.8,0,0,1,.78,1.07,3.78,3.78,0,0,1,.27,1.47,3.72,3.72,0,0,1-.22,1.29,6.05,6.05,0,0,1-.61,1.15,7.94,7.94,0,0,1-.89,1.06q-.5.51-1.05,1c-.36.33-.73.65-1.09,1s-.73.63-1.06,1a13.15,13.15,0,0,0-.89,1,4.16,4.16,0,0,0-.62,1H780v1.09Z" fill="#fff"/><ellipse cx="415.47" cy="856.91" rx="220.78" ry="61.78" fill="#fff2eb"/><path d="M327.34,681.68c-3.88-2.36-15-15.94-14.39-22.77s20.56-16.07,22.47-15.31,7.77,22.7,6.47,25.36S327.34,681.68,327.34,681.68Z" fill="#25144f"/><path d="M340.3,680.23c-.37,1.85-.88,4-1.46,6.63a78.18,78.18,0,0,0-1.49,8.92c-.56,5.56-.17,8.82-.34,9.82-.22,1.44-21.79-2.07-22.54-6.09s9.92-17.74,12.72-21.71a26.44,26.44,0,0,1,2.41-2.51,14.56,14.56,0,0,1,5.92-3.64,5.44,5.44,0,0,1,2-.17C341.1,671.9,341.45,674.19,340.3,680.23Z" fill="#dba179"/><path d="M340.3,680.23c-.37,1.85-.88,4-1.46,6.63a78.18,78.18,0,0,0-1.49,8.92c-8.26-5.38-7.77-13.11-7.19-16.13.49-2.56,0-2.56-.56-4.36a14.56,14.56,0,0,1,5.92-3.64C336.62,673.26,338.08,676.19,340.3,680.23Z" fill="#e6e6e6" style="mix-blend-mode:multiply"/><path d="M361.84,656.4c-1.11,39.6-10.92,38.37-12.69,38.08-3.41-.57-15.33-4.37-17.36-10.16s13.2-28.43,13.4-28.73S361.84,656.4,361.84,656.4Z" fill="#f4b387"/><path d="M341.28,668.13c-3.3-7.57-8.58-6.55-10.31-3.71-2.67,4.41-.76,11.63,6.45,12.08S341.28,668.13,341.28,668.13Z" fill="#f4b387"/><path d="M407.46,808.18a43,43,0,0,0-2.65-3.54c-1.32-1.56-2.85-3.07-4-3.31s-2.78.39-4.54,1-3.77,1.43-5.14,1.24a101,101,0,0,1-12.65-3.27c-.39-.12-.73-.26-1.07-.39a6,6,0,0,1-2.34-1.29.39.39,0,0,1-.05-.14,1,1,0,0,1,.2-.91s0,0,0,0a.35.35,0,0,0,.05-.08c.51.08,1.05.2,1.63.3a3.25,3.25,0,0,0-.68-1.32,32.24,32.24,0,0,1,4.92-3.31c.93.43,1.64.82,2.29,1.09,1.54.71,2.71.85,5.56-.1,4-1.36,13.16-4.72,14.92-3.87,1.53.73,10.18,14.33,13.3,17.94.49.56.83.85,1,.87C419.65,809.18,408,809,407.46,808.18Z" fill="#e0a47c"/><path d="M339.14,662.73l.24,2.15a49.37,49.37,0,0,1,14.39-5.44c6.26-1.13,7.69-.07,8.07-.38s3-8.91,3-15.46-.82-11.83-1.11-12.25-28.28,12.25-28.28,12.25Z" fill="#25144f"/><path d="M313,658.91c1.67-16.42,25.89-25.26,32.55-27.54,3.55-1.22,17.57-4.47,18.33.43s-18.41,6.38-33.21,14.29A94.09,94.09,0,0,0,313,658.91Z" fill="#3a2278"/><path d="M457.08,866c-15.2,10.09-52.93,14.92-66.75,6.32a13.8,13.8,0,0,1-2.48-1.95,3.39,3.39,0,0,1-.32-.35c-3.66-4.06.46-7.35,7.07-9.84,11.09-4.22,29.19-6.26,29.19-6.26a91.17,91.17,0,0,1,22.35-2.34C461.81,852.09,468.71,858.28,457.08,866Z" fill="#071b4d"/><path d="M376.27,796.48l-.95,1c.51.08,1.05.2,1.63.3a3.25,3.25,0,0,0-.68-1.32,32.24,32.24,0,0,1,4.92-3.31c.93.43,1.64.82,2.29,1.09a13.87,13.87,0,0,1-1.82,4.53,3.19,3.19,0,0,1-1.61,1.54,5.16,5.16,0,0,1-1.54,0,4.75,4.75,0,0,1-1-.19,4.47,4.47,0,0,1-2.47-1.41,2.22,2.22,0,0,1-.46-1.37c.24,0,.49.07.73.12Z" fill="#e6e6e6" style="mix-blend-mode:multiply"/><path d="M345.9,767c6.2,6.6,37.27,26.2,37.06,27.11s-3.75,6.09-6.8,6.3-34.83,3.25-36.76-2.74S345.9,767,345.9,767Z" fill="#9893eb"/><path d="M345.81,834.11c-.83,3.85-20.64,23.34-32.27,27.19-2.51.83-4.65.93-6.12,0-6.09-3.85-13.47-25.22-19.05-54.51-2.07-10.82-3.9-22.74-5.32-35.24-5.28-46.31,17.06-70.48,26-74.33,7.31-3.17,19.6-2,29.05,7.11,5.29,5.07,9.34,14.82,10.36,24.38S346.81,829.43,345.81,834.11Z" fill="#a49fff"/><path d="M313.54,861.3c-2.51.83-4.65.93-6.12,0-6.09-3.85-13.47-25.22-19.05-54.51,7.77,15.11,14.77,38.41,18.79,37.87,4.58-.61,20.25-9.75,24.83-8.68C336,836.91,322.63,855.7,313.54,861.3Z" fill="#e6e6e6" style="mix-blend-mode:multiply"/><path d="M446.14,851.56c.1,14.64-41.36,20.81-55.81,20.74a17.61,17.61,0,0,1-4-.32s.44-.73,1.22-2a112.33,112.33,0,0,1,7.07-9.84c11.09-4.22,29.19-6.26,29.19-6.26A91.17,91.17,0,0,1,446.14,851.56Z" fill="#e6e6e6" style="mix-blend-mode:multiply"/><path d="M345.85,831.41c-38.9,10.45-46,30.16-34.42,42s46.76,10.51,71.74,2,75.09-29.7,81.64-41.89,0-18.73-11.88-19.5S356.06,828.67,345.85,831.41Z" fill="#173b9e"/><path d="M423.77,810.54c.15,1-12.28,7.09-23.93,6s-17.21-5.56-19.33-6.17a16.4,16.4,0,0,0-4.39.27c-.95.15-2,.29-3,.46-4.44.71-9.16,1.56-9.48,1.1-.54-.85,9.82-14.94,9.82-14.94l1.12.17c.24,0,.49.07.73.12h.05c.51.08,1.05.2,1.63.3h0c1.36.26,2.95.6,4.68,1,4.26,1,9.4,2.25,14.64,3.59,2.85.75,5.73,1.51,8.51,2.26,4.73,1.3,9.11,2.56,12.45,3.59C421.19,809.42,423.72,810.3,423.77,810.54Z" fill="#f4b387"/><path d="M376.12,810.59l-2,.29-1.07.17a101.93,101.93,0,0,1,1.92-12.3.63.63,0,0,0,.05-.22c.08-.32.15-.64.2-.91,0,0,0,0,0,0v-.08l.1-.09,0,0-.07.07a.18.18,0,0,1,.12,0c.47.07,1,.17,1.51.27h0a10.65,10.65,0,0,1,.46,2.16c0,.08,0,.13,0,.2A28.23,28.23,0,0,1,376.12,810.59Z" fill="#e6e6e6" style="mix-blend-mode:multiply"/><path d="M374.15,810.88a1.42,1.42,0,0,1-.12.27c-.76,1.22-49.06,11-61.07,3.66s-14.8-41.73-12.65-68.85,10.77-42.45,26.05-36.87c9.14,3.36,12.65,19,9.43,34.58s-10.82,48.59-8.67,48.91,44.79,2.73,47.66,4.24a1.44,1.44,0,0,1,.59.56s0,0,0,0l0,0a.09.09,0,0,1,.05.1C377.05,800.33,375,809,374.15,810.88Z" fill="#b7b3ff"/><path d="M458.19,809.85l-62.84,7.57a1.55,1.55,0,0,0-1.36,1.73h0a1.55,1.55,0,0,0,1.73,1.36l62.84-7.58a1.55,1.55,0,0,0,1.36-1.73h0A1.55,1.55,0,0,0,458.19,809.85Z"/><path d="M487.51,755.11,457.05,810.6a1.57,1.57,0,0,0,.62,2.12h0a1.56,1.56,0,0,0,2.11-.62l30.45-55.49a1.55,1.55,0,0,0-.61-2.11h0A1.55,1.55,0,0,0,487.51,755.11Z"/><ellipse cx="1105.2" cy="800.11" rx="201.69" ry="56.44" fill="#fff2eb"/><ellipse cx="1012.9" cy="644.07" rx="112.71" ry="31.54" fill="#ffeee6"/><path d="M1124.11,746a88.1,88.1,0,0,1-1.22,18.64l-2.07-2.48-6.41-7.68s.47-5.08.47-6.47-.47-5.08-.47-5.08-2,7.85-2.6,7.85-10.62-6.92-12.64-7.85-11.84.3-14.92-4.61-26.93-40.81-26.93-40.81-1.37-12-2.55-21.63c-.72-5.85-1.37-10.8-1.61-11.61-.62-2.15-6.13-28.36-2.47-34.79,3-5.26,9.42-8.36,15.9-8.44a19.93,19.93,0,0,1,2.57.13c9,1,23.72,6.47,33.87,39.72,9,29.53,13.67,42.05,16.65,47.84.39.73.72,1.34,1,1.88,2.83,4.62,10.44,10.82,10.92,11.21-.5-.15-8.44-2.62-13.08-8.61-4.77-6.15-7.39-10-7.39-10s.54,8.87,3.4,14.46C1118.27,724.94,1123.65,736,1124.11,746Z" fill="#3a0982"/><path d="M1084.71,672.8c.24,1-12.82,3.7-12.82,3.7s-.18-2.42-.53-5.34c-.46-3.85-1.2-8.59-2.11-9.9,0,0,.06-.32.19-.8.51-2.08,2.19-7.37,5.46-5.21a6.31,6.31,0,0,1,1.15,1c.33.35.66.76,1,1.2C1080.67,662.24,1084.51,671.93,1084.71,672.8Z" fill="#ffcab0"/><path d="M1076.05,656.25a52,52,0,0,0-6.61,4.21c-.13.48-.19.8-.19.8.91,1.31,1.65,6,2.11,9.9,2-3.35,5.1-9.64,5.7-13.71Z" fill="#e6e6e6" style="mix-blend-mode:multiply"/><path d="M1048.23,647.36c0,10.93,5,23.87,11.32,25.44,8,2,19.93-16.67,18.54-21.59s-11.85-18.47-16.16-19.09-10.62,5.85-11.54,8.31S1048.23,647.36,1048.23,647.36Z" fill="#ffcab0"/><path d="M1063.7,730.17s-7.5-9.93-17.08-15-11.66-7.73-12.7-10.15-5-10.28-6.47-11.78-11.54-12.35-12-12.35,4.73,19.39,8.88,25.16,33.83,37.64,38.56,35.56S1063.7,730.17,1063.7,730.17Z" fill="#ffcab0"/><path d="M1030.4,696.25c0-2.48-.64-5.19-1.74-5.48s-2.77-.41-3.11-.06S1030.4,696.25,1030.4,696.25Z" fill="#ffcab0"/><path d="M1114.41,754.5s.47-5.08.47-6.47-.47-5.08-.47-5.08-2,7.85-2.6,7.85-10.62-6.92-12.64-7.85-11.84.3-14.92-4.61-26.93-40.81-26.93-40.81-1.37-12-2.55-21.63c8.26,15.89,22.9,39.75,36.87,48.12,14.39,8.61,26.93,15.22,29.18,38.16Z" fill="#ccc" style="mix-blend-mode:multiply"/><path d="M1130.43,800.51c-9.39-1.68-14.78,4-19.4,1.55s-8-3.23-9.55-12.47-3.52-38.79-2.6-50.79c.57-7.54-1.2-18-2.49-25.92-.1-.5-.17-1-.26-1.47-.63-4-1.09-7.15-1-8.63.3-2.86,2.79-8.92,4.55-12.93a0,0,0,0,1,0,0c.37-.85.7-1.59,1-2.22l.75-1.62c.13.22.28.46.41.7s.39.67.57,1,.33.61.5.94c0,0,0,0,0,0,.17.31.33.63.5,1a76.83,76.83,0,0,1,8.48,40.23c-1.39,19.39-6.78,60.8-4.31,63.26s9.53-2.92,13.23-2.46,19.39,8.78,20.94,9.24S1139.81,802.21,1130.43,800.51Z" fill="#ffcab0"/><path d="M1076.51,817.91c-.74-.91-6.59-3.88-11.62-5.91a24.82,24.82,0,0,0-6.5-1.94s-11.05-8.2-17.79-14.08c-3.16-2.75-5.37-5-5.08-5.67.93-2.07,1.85-.79,8.44,1.06s20.54,12.45,23.2,13,8.78-.24,10.63.57S1077.67,819.29,1076.51,817.91Z" fill="#ffcab0"/><path d="M1095,832a33.86,33.86,0,0,1-2.51,9c-1,2.07-2,2.94-2.5,2.29-1-1.25-7.24-15.36-9.45-18.25s-8.08-7.27-7.54-7.94,4.53-4.6,4-7.72-4.3-6.59-4.06-7.28,17.62,2.68,19.3,6.62l.07.16C1094,812.9,1096.24,824.06,1095,832Z" fill="#6c50cc"/><path d="M1054.7,755.42c-30.48-.31-78.66,8.92-81.74,18.31s99.44,18.47,101,17.09S1054.7,755.42,1054.7,755.42Z" fill="#907ae0"/><path d="M1064.89,812a24.82,24.82,0,0,0-6.5-1.94s-11.05-8.2-17.79-14.08c.65-3,1.39-5.17,1.39-5.17C1046.2,791.92,1061.27,801.14,1064.89,812Z" fill="#e6e6e6" style="mix-blend-mode:multiply"/><path d="M972.35,780c.46,8,3.69,16.47,22.78,20.94s68.49,12.16,68.49,10.46-16.61-19.28-22.16-21.55c-19.7-8-29.13-12-42.64-12.46C977.89,776.77,972.35,780,972.35,780Z" fill="#a58cff"/><path d="M983.19,775.22v.06c-.31,1.53-10.76,9.53-12.32,12.76s-1.84,5.62-3.69,7.7-14.61-4.3-11.38-5.61c2.07-.85,5.23-3.68,7.93-6.43.31-.31.61-.63.9-.94.81-.87,1.57-1.7,2.2-2.42l.66-.76a81.92,81.92,0,0,1,7.45-5.06,16.25,16.25,0,0,1,3.49-1.64c2.4-.69,3.9,0,4.49.94A1.88,1.88,0,0,1,983.19,775.22Z" fill="#ffcab0"/><path d="M972.57,791c.39.57-5.85,13.21-8.68,14.42a.74.74,0,0,1-.39.12c-2.58.07-18.54-.93-25.82-6.62a32.69,32.69,0,0,1-4.14-3.84c-3.84-4.3-4.78-8.09-4.28-9.16.65-1.39,9.88,2.14,16.27,2.68s11.82-2.92,11.9-2.53c.24,1.09-.72,5.22,3.49,6.46S972.17,790.35,972.57,791Z" fill="#6c50cc"/><path d="M1080.71,650.05c-11.31,11.63-23.09-11.85-23.09-11.85s-2.77,14.62-9.47,12.24,1-21.74,4.93-23.63c5-2.36,15.85,1.54,17.62,4.16S1080.71,650.05,1080.71,650.05Z" fill="#3a0982"/><path d="M1100,705.66c-1.68,2.33-2.92,4.23-3.84,5.75-.63-4-1.09-7.15-1-8.63.3-2.86,2.79-8.92,4.55-12.93a0,0,0,0,1,0,0c.37-.85.7-1.59,1-2.22.49-.38.9-.7,1.16-.92l.06,0a2.65,2.65,0,0,0,.33-.24c.24.69.48,1.41.68,2.18v0s0,0,0,0A18.56,18.56,0,0,1,1100,705.66Z" fill="#e6e6e6" style="mix-blend-mode:multiply"/><path d="M1090.11,746c4.76,17.09,3.73,32.82.49,39.45-.51,1.06-1.73.65-3.39-.77-8.8-7.48-30.17-43.39-27.58-43.91,3.06-.61,1.53-22.62,1.38-23.86s-6.46-8.61-6.31-15.07,13.11-26.31,17.54-28.34c.93-.42,10.38-4.41,17.9-2.46s9.81,7.39,12.73,16-5.84,19.39-10,24a15.91,15.91,0,0,0-2.77,4.77C1087.56,722.3,1086.47,733.05,1090.11,746Z" fill="#f9acff"/><path d="M984.62,773.69a14.22,14.22,0,0,1-1.43,1.53c-4.41,4.2-12.56,7.59-18.56,7.54.81-.87,1.57-1.7,2.2-2.42l.66-.76a81.92,81.92,0,0,1,7.45-5.06c2.51-.24,5.95-.53,8-.7Z" fill="#e6e6e6" style="mix-blend-mode:multiply"/><path d="M1090.6,785.47c-.51,1.06-1.73.65-3.39-.77-3.42-8.09-6.8-19.32-6-19.89,1.23-.93,6.46,4.3,8,0s-7.65-39.26.93-48.95c-2.55,6.44-3.64,17.19,0,30.16C1094.87,763.11,1093.84,778.84,1090.6,785.47Z" fill="#e6e6e6" style="mix-blend-mode:multiply"/><path d="M1073.28,796.1c-11.68-1-25.92-9-38.9-31.76-1.53-2.69-3-5.35-4.25-7.92-9.72-19.27-13-34.41-13.37-36.31a44.65,44.65,0,0,1-1.63,17.91,52.27,52.27,0,0,1-6.19,13,86.35,86.35,0,0,1-13.66,16c-12.16,11.34-32.16,16-30.78,13.85s10.92-15.41,24.16-43,18.94-39.56,28.48-38.18,67.26,52.15,73.72,81.28C1092.34,787.54,1087.94,797.35,1073.28,796.1Z" fill="#a58cff"/><path d="M1034.28,702h0a1,1,0,0,1-1.41-.12l-22.22-26.36a1,1,0,0,1,.12-1.41h0a1,1,0,0,1,1.41.12l22.22,26.36A1,1,0,0,1,1034.28,702Z"/><path d="M1119.68,708.75c-5.65-5.66-14.72-18.84-21.89-43.37-9.37-32.11-20.56-39.7-31.2-44.32a19.93,19.93,0,0,1,2.57.13c9,1,23.72,6.47,33.87,39.72C1112.07,690.44,1116.7,703,1119.68,708.75Z" fill="#d9d9d9" style="mix-blend-mode:soft-light"/><path d="M1095,832a33.86,33.86,0,0,1-2.51,9c-1.54-3.3-2.57-9.36-2.57-16.29,0-6.63.94-12.45,2.38-15.83C1094,812.9,1096.24,824.06,1095,832Z" fill="#e6e6e6" style="mix-blend-mode:multiply"/><path d="M963.89,805.4a.74.74,0,0,1-.39.12c-2.58.07-18.54-.93-25.82-6.62a32.69,32.69,0,0,1-4.14-3.84,71.05,71.05,0,0,1,13.51,2.77C954.25,800,960.38,802.82,963.89,805.4Z" fill="#e6e6e6" style="mix-blend-mode:multiply"/><path d="M1016.76,720.11a44.65,44.65,0,0,1-1.63,17.91,52.27,52.27,0,0,1-6.19,13c3.85-10.38,6.39-32.89,6.85-35.88.51-3.32,13.31,31.83,14.34,41.31C1020.41,737.15,1017.14,722,1016.76,720.11Z" fill="#e6e6e6" style="mix-blend-mode:multiply"/><path d="M486,426.86h0a2.76,2.76,0,0,1-.76,1.81,30.55,30.55,0,0,1-6.77,2.86c-7.94-4.4-16.47-12.15-14.22-19.4a4.28,4.28,0,0,1,.14-.43c2.72-7.37,18.36-8.91,19.46-7.21C484.78,406,486.9,421.35,486,426.86Z" fill="#301968"/><path d="M486,426.86h0a2.76,2.76,0,0,1-.76,1.81,30.55,30.55,0,0,1-6.77,2.86c-7.94-4.4-16.47-12.15-14.22-19.4,1.62,5.92,7.83,13,16.87,12.91C483.79,425,485.31,425.76,486,426.86Z" fill="#ccc" style="mix-blend-mode:multiply"/><path d="M488.11,441.22c-.06,2.94.09,6.38,0,6.76-.14.6-14,2.44-15-1.1-.85-2.92,2.71-12.4,5.72-18.61.65-1.33,1.25-2.49,1.8-3.43,0,0,8.54,10.91,7.89,12.45A14.63,14.63,0,0,0,488.11,441.22Z" fill="#c49069"/><path d="M488.48,437.29a14.63,14.63,0,0,0-.37,3.93c-9.32-3.63-8.55-9.69-8.1-10.86.35-.92-.27-1.06-1.22-2.09.65-1.33,1.25-2.49,1.8-3.43C480.59,424.84,489.13,435.75,488.48,437.29Z" fill="#e6e6e6" style="mix-blend-mode:multiply"/><path d="M500.05,407.72c1.77,8.84,1.77,28.1-5,31s-13.12-4.57-13.71-6,.59-19.6,1.62-20.49S500.05,407.72,500.05,407.72Z" fill="#d89e73"/><path d="M482.87,420.63c-1.91-2.58-4-3.19-5.67-2.13-2.95,1.91,1.1,8.1,2.51,8.55a2.84,2.84,0,0,0,3.31-.89C483.32,425.65,482.87,420.63,482.87,420.63Z" fill="#d89e73"/><path d="M507.71,711.24c0,.53-.52,1-5.73,1.61l-2.3.25a41,41,0,0,1-14.88-1.36l-2-.57c-2.21-.64-7.36-.8-11.41-1.22-3-.3-5.43-.73-5.61-1.57-.46-2,0-7.75,4.2-13.94,0,0,9.94-1,10.91-.52s.35,5.1,10.24,8.94S507.71,710.66,507.71,711.24Z" fill="#630"/><path d="M484.8,711.74h0a33.05,33.05,0,0,1-5.13.55c-1.61.11-10.12-.17-11.73-.67l-.1,0c-1.51-.49-1.93-1.06-2-3.21,0,0,6.41-1.72,10.6-.89a18.71,18.71,0,0,1,3.4,1.1C482.61,709.81,484.94,711.49,484.8,711.74Z" fill="#a85b0a"/><path d="M441.23,707c.14.72-1.63,1.91-4.63,2a52.29,52.29,0,0,1-11.09-.64c-2.78-.49-5.31-1.34-6.69-2.74-3.54-3.61-2.35-8.19-2.28-11.66,0-1.57-1.22-4.47-2.62-7.18-1.66-3.25-3.5-6.22-3.5-6.22s0,0,0-.06a12.84,12.84,0,0,1,9.42-4.88s8.55,6.19,7.73,7.89,2,12.75,2.52,14.08S441.09,706.23,441.23,707Z" fill="#630"/><path d="M416.54,694c-.14-.44-3.22-3.59-5.77-7-1.27-1.68-1.75-2.93-1.71-3.94a3.72,3.72,0,0,1,1.38-2.57s4.15,2.89,5,4.85a17.38,17.38,0,0,1,.91,4.3v0A22,22,0,0,1,416.54,694Z" fill="#a85b0a"/><path d="M498.72,618.6c-.44,12.39-13.94,75.41-15.25,76.51s-16.15,1.77-16.59.67c-.34-.85,2.34-35.62,3.47-52.5.35-5.11.56-8.58.51-9-.19-1.45.83-61,3.29-81.44.44-3.64.92-6,1.45-6.63,0-.05.09-.11.14-.12a.24.24,0,0,1,.2,0c.65.19,1.47.46,2.37.78h.05c4.23,1.54,10.19,4.07,10.19,4.07.42,1.35.94,3.49,1.52,6.18C493.5,572.91,499.09,608,498.72,618.6Z" fill="#854100"/><path d="M477.27,546.74c3.1,12.38,13.49,65.89,10.84,72.53s-23,31-38.92,47.76-19,18.13-19.68,18.13-11.72-6.41-11.5-10.39,43.12-51.74,43.12-54-17.69-57-17.69-61.24,5.31-22.78,10.84-21.45S477.27,546.74,477.27,546.74Z" fill="#994d00"/><path d="M490.07,557.12a90.55,90.55,0,0,1-11.07-2.8l-4.85-1.47c-4.86-1.5-9.25-2.91-10.81-3.34-4.08-1.11-10.27,1.43-16-2a22.72,22.72,0,0,1,8.28-3c3.76-.64,11.44-.25,20,1.68.3,0,.6.12.92.2h0l1.77.44h.05c4.23,1.54,10.19,4.07,10.19,4.07C489,552.29,489.49,554.43,490.07,557.12Z" fill="#e6e6e6" style="mix-blend-mode:multiply"/><path d="M500.63,494.32c-3.13,10.23-6.17,19.42-6.47,22.57-.23,2.21-.52,6.48-.89,11.34-.86,11.37-2,26.15-3.39,26.25-1.91.14-15.34-3.68-21.53-6.49-4.6-2.07-11.68-.66-17-.69a11.53,11.53,0,0,1-4.65-.78c-2.58-1.22-1-11.78,1-21.44,1.61-7.89,3.48-15.18,3.55-16.29.14-2.51-1.63-34.65-2.07-39.52s8.1-23,8.1-23c8.26-4.71,26.4-.73,34.36,1.18s12.24,3.24,15.61,12.24C509.21,464.87,504.84,480.52,500.63,494.32Z" fill="#fb0"/><path d="M500.63,494.32c-3.13,10.23-6.17,19.42-6.47,22.57-.23,2.21-.52,6.48-.89,11.34-12-8.51-6.86-52.94-5.6-59.2,0,0,5.85,3.3,8.06,5.85C496.56,475.84,498.86,484.31,500.63,494.32Z" fill="#e6e6e6" style="mix-blend-mode:multiply"/><path d="M542.73,518.27a5.15,5.15,0,0,1-5,5.29l-16,.41-10.4.26-15.73.39a5.16,5.16,0,0,1-5.28-5l-.94-38.16,0-1.18-.09-3.38a5.16,5.16,0,0,1,5-5.29L510,471.2l10.4-.26,16-.41a5.17,5.17,0,0,1,5.29,5l.09,3.36,0,1.17.62,25.24.06,2.41Z" fill="#ff5819"/><path d="M542.47,507.73a23.83,23.83,0,0,1-6.11-2.23c-5.52-2.65-5.2-5.85-4.47-7.32a7.24,7.24,0,0,1,3.59.09c1.36.37,4.93,4.42,6.93,7.05Z" fill="#e6e6e6" style="mix-blend-mode:multiply"/><path d="M543.68,492.05c1.73,2.81,1.62,13.2.3,13.64s-9.66-2.21-10.91-3.69-1.55-2.72-1.18-3.83S542.32,489.84,543.68,492.05Z" fill="#d89e73"/><path d="M434.16,578.93c0-.48-.21-11.84,5.12-17.09a8.93,8.93,0,0,1,6.85-2.6,9.28,9.28,0,0,1,6.91,2.92c3.39,3.81,2.89,10.36,2.58,14.28-.07.86-.13,1.6-.13,2.14h-1.77c0-.58.06-1.36.14-2.28.28-3.63.75-9.72-2.14-13a7.55,7.55,0,0,0-5.66-2.33,7,7,0,0,0-5.53,2.1c-4.8,4.71-4.61,15.68-4.61,15.79Z" fill="#ff8000"/><path d="M451.4,547.3a11.53,11.53,0,0,1-4.65-.78c-2.58-1.22-1-11.78,1-21.44C449.17,529.63,451,540.38,451.4,547.3Z" fill="#e6e6e6" style="mix-blend-mode:multiply"/><path d="M451.7,563.4c-.37,2.88-11.58,4-12.54,2-.76-1.6.78-13.73,1.88-18.61.28-1.22.53-2,.7-2,.89-.23,7-2.07,7-2.07a27.86,27.86,0,0,1,.92,2.8C451.56,552.16,452,560.9,451.7,563.4Z" fill="#d89e73"/><path d="M449.67,545.48a22.22,22.22,0,0,1-8.63,1.31c.28-1.22.53-2,.7-2,.89-.23,7-2.07,7-2.07A27.86,27.86,0,0,1,449.67,545.48Z" fill="#e6e6e6" style="mix-blend-mode:multiply"/><path d="M457.3,446.28c-14.17,0-31.33,44.08-31.4,51.3-.09,8.59,13.42,48.2,14.89,48.5s8.57-1.79,8.57-2.38-6.51-41.4-5.92-43.46,18-20.49,19.9-38S458.63,446.28,457.3,446.28Z" fill="#ffc72e"/><path d="M481.79,419.4s10.56-7.13,18.15-9.36c5.25-1.55,2.29-16.2.52-19.63S475.12,402.85,476,405.56,481.79,419.4,481.79,419.4Z" fill="#301968"/><path d="M464.72,411c2.15-5.2,19.35-16.89,27.26-19.65s10.17-1.66,7.4,1.55-6.63,5.36-14.31,8.18S464.72,411,464.72,411Z" fill="#412487"/><path d="M533.2,454.93c0,.42-8,5.75-9.4,7.41-.39.48-.85,1.06-1.32,1.68-1.17,1.57-2.37,3.29-2.44,3.4a36.29,36.29,0,0,1-4.34-.2l-2.24-.19c.08-.25.28-1.06.53-2.25.4-1.72.93-4.17,1.5-6.81,1.38-6.3,3-13.48,3.22-13.32.44.27,4.76,4.92,6.3,6S533.14,454.54,533.2,454.93Z" fill="#ffe633"/><path d="M517.05,459.46s-.18,2.65-.53,4.9a16.2,16.2,0,0,1-.52,2.4,1.05,1.05,0,0,1-.3.46c-1.41,1.33-6.58.28-6.93-.58a1.75,1.75,0,0,0-.57-.5c-2.44-1.57-11.81-5.64-11.81-6s2.21-1.71,4.52-3.48,7-8,7.52-8,3,5.09,7.06,9.23C516,458.48,516.52,459,517.05,459.46Z" fill="#ffe633"/><path d="M541.79,480.08s0,0,0,0a2.54,2.54,0,0,1-.9.19l-20.29.52-10.4.26-20.06.5a2.2,2.2,0,0,1-.78-.13l0-1.18-.09-3.38a5.16,5.16,0,0,1,5-5.29L510,471.2l10.4-.26,16-.41a5.17,5.17,0,0,1,5.29,5l.09,3.36Z" fill="#e6e6e6" style="mix-blend-mode:multiply"/><path d="M522.48,464c-1.17,1.57-2.37,3.29-2.44,3.4a36.29,36.29,0,0,1-4.34-.2c-1.41,1.33-6.58.28-6.93-.58a1.75,1.75,0,0,0-.57-.5c1.4-.42,3.54-.94,5.79-1.36.83-.16,1.69-.3,2.53-.42A23.93,23.93,0,0,1,522.48,464Z" fill="#e6e6e6" style="mix-blend-mode:multiply"/><path d="M543.49,476.34a2.7,2.7,0,0,1-1.73,2.58,2.78,2.78,0,0,1-.9.19l-20.29.51-10.4.27-20.06.49a2.43,2.43,0,0,1-.82-.12,2.67,2.67,0,0,1-1.94-2.51l-.22-8.13a2.7,2.7,0,0,1,2.64-2.75l20.06-.51,10.4-.27,20.29-.51a2.7,2.7,0,0,1,2.76,2.63Z" fill="#ff672e"/><polygon points="521.68 523.99 511.28 524.25 510.17 479.89 509.95 471.2 509.83 466.34 520.23 466.07 520.35 470.94 520.57 479.62 521.68 523.99" fill="#ffe633"/><path d="M465,643.47c-.25.06-1.47.13-3.36.23-10.15.54-39.53,1.61-39.53,1.1s-.48-11.66.07-23.44v-.14c.21-4.28.54-8.61,1.09-12.52,2.07-14.75,4.42-34.05,4.87-33.77,0,0,9.14,2.81,15.63,2.21s18.86-2.79,18.86-2.79S466.65,643.19,465,643.47Z" fill="#ff8000"/><path d="M462.68,574.34s10,42.61,12.23,48.8,5.61,20.19,5.61,20.19l-15.48.15Z" fill="#e06e00"/><path d="M461.68,643.7c-10.15.54-39.53,1.61-39.53,1.1s-.48-11.66.07-23.44c.44,7.41,1.48,14.51,8.73,16.81C440.51,641.21,459.61,641.92,461.68,643.7Z" fill="#e6e6e6" style="mix-blend-mode:multiply"/><path d="M502,712.85l-2.3.25a41,41,0,0,1-14.88-1.36h0a33.05,33.05,0,0,1-5.13.55c-1.61.11-10.12-.17-11.73-.67l-.1,0a12.08,12.08,0,0,1,3.57-1.64,40.91,40.91,0,0,1,8.39-1.36c1.52-.09,3.14-.14,4.81-.11C493.2,708.62,500.35,710.48,502,712.85Z" fill="#e6e6e6" style="mix-blend-mode:multiply"/><path d="M425.51,708.39c-2.78-.49-5.31-1.34-6.69-2.74-3.54-3.61-2.35-8.19-2.28-11.66-.14-.44-3.22-3.59-5.77-7-1.27-1.68-1.75-2.93-1.71-3.94,1.34.4,3,1.73,4.86,3.71.78.83,1.59,1.81,2.41,2.87v0a58.15,58.15,0,0,1,4.21,6.45A46.8,46.8,0,0,1,425.51,708.39Z" fill="#e6e6e6" style="mix-blend-mode:multiply"/><path d="M1098,393.74c-.39.51-10.61,7.29-10.61,7.29a17.75,17.75,0,0,0,7-1.64l1.89-1s-6.78,19.08-8,19.92-10.87,6.25-17.24,7.75l-2.43.55c-4.92,1.1-7.85,1.65-7.85,1.65s2,1.83,10.54.14c8.06-1.59,12.11-3.64,12.58-3.87-.88.58-13.45,8.82-24.56,9.34-11.51.51-21.18.7-30.26-10.23s-11.23-29-14.65-33a7.1,7.1,0,0,0-3-2.14,10.2,10.2,0,0,0-5.94.1c-.68.09-3-2.05-3-2.05,5-8.67,11.78-10.56,25.92-2.75s31.89,12.83,45.37,7,16.79-6.56,16.79-6.56-17,8.9-23.82,11c-4.74,1.45-15.3,2.22-27.34-2.22-6.41-2.34-9.55-4.3-11.09-5.61,2.81,3.3,9.51,10.19,18.51,13.29,12,4.16,21.6,4.3,34.76-3a171.22,171.22,0,0,0,19.57-12.22C1100.92,386,1098.4,393.24,1098,393.74Z" fill="#401f7f"/><path d="M996.47,388.32c.93-1,4-3.42,6.64-2.05s6.25,5.32,4.59,9.23S996.47,388.32,996.47,388.32Z" fill="#ffa1be"/><path d="M1003.31,417.65l-1.78-2.53h0l-4.42-6.28c-1.08-2.55,2.68-20.56,5.07-19a17.08,17.08,0,0,1,5.16,4.46,13.92,13.92,0,0,1,1.61,2.85c.06.12.12.26.17.39.13.32.2.56.24.64C1011,403,1010.39,411.27,1003.31,417.65Z" fill="#401f7f"/><path d="M1003.31,417.65l-1.78-2.53h0c0-.53.53-.72,1.14-1.33,7.86-7.79,4.87-13.87,4.67-19.53a13.92,13.92,0,0,1,1.61,2.85c.06.12.12.26.17.39.13.32.2.56.24.64C1011,403,1010.39,411.27,1003.31,417.65Z" fill="#e6e6e6" style="mix-blend-mode:multiply"/><path d="M1006.28,427c-.88,1.17-11.61,0-11.61-.67s1.7-1.11,2.16-4.88a20.44,20.44,0,0,0,0-4.5,9.59,9.59,0,0,1,.45-4.56h0a4.14,4.14,0,0,1,4.25-2.6l.21.33c.14.22.28.48.42.75C1004.59,415.58,1007.09,426,1006.28,427Z" fill="#fcd8c5"/><path d="M996.83,421.48a20.44,20.44,0,0,0,0-4.5,9.59,9.59,0,0,1,.45-4.56h0a14.3,14.3,0,0,1,4.46-2.27l.31-.09a6.85,6.85,0,0,1,.11.84C1002.59,414.92,1000.94,420.62,996.83,421.48Z" fill="#e6e6e6" style="mix-blend-mode:multiply"/><path d="M983.14,400.9c-1.95,8.72,2.61,17.05,5.34,19.13s11.06-2.6,12.11-4,3.25-9-.65-14.19-7.82-5.6-10.55-3.91A40.24,40.24,0,0,1,983.14,400.9Z" fill="#fcd8c5"/><path d="M1001.11,406c.78-1.27,3.09-2.69,4.1-1.66s1.82,3.94-1.11,5.83-3.32-1.18-3.38-1.57A18,18,0,0,1,1001.11,406Z" fill="#fcd8c5"/><path d="M879.08,425.36l-.25-1.54c.16,0,15.81-2.55,25.54-3.58,2.19-.24,3.76-.37,4.93-.43l.08,1.56c-1.14.06-2.68.19-4.84.42C894.84,422.82,879.24,425.34,879.08,425.36Z" fill="#ff6542"/><path d="M903.47,418.83s7.74-.75,8.66-1.27.06,2.21-1.7,4.1S903.47,418.83,903.47,418.83Z" fill="#edccb9"/><path d="M899.1,454.12l-1.41-.66c.09-.2,9.09-19.4,12.29-28.28l1.47.53C908.23,434.65,899.19,453.93,899.1,454.12Z" fill="#ffaba8"/><path d="M990.47,425.28s-2.05,10.64-2.83,13a1.3,1.3,0,0,1-.51.55c-1.4,1-5.39,2.68-10.41,4.42-9.93,3.45-23.87,7.23-29.51,7-9.08-.29-22.17-17.87-32.42-22.35s-11.41-8.41-11.32-9.09,12.31,4.11,15.81,6.34,30.27,16.12,31.84,16.12S984.31,426.54,990.47,425.28Z" fill="#fcd8c5"/><path d="M880.52,440.7a.78.78,0,0,1-.44-1.43c.17-.12,17.33-12,26.12-16.79a32.5,32.5,0,0,1,4.55-2,.78.78,0,1,1,.5,1.48,31.46,31.46,0,0,0-4.3,1.85c-8.72,4.79-25.81,16.59-26,16.71A.79.79,0,0,1,880.52,440.7Z" fill="#ffaba8"/><path d="M892.05,441a.77.77,0,0,1-.74-.54.76.76,0,0,1,.4-.94c1-.63,11.51-9.68,16.81-15.11a25.49,25.49,0,0,0,2.76-3.17.79.79,0,0,1,1.08-.23.78.78,0,0,1,.23,1.08,25.49,25.49,0,0,1-3,3.41c-5,5.15-16.52,15.2-17.35,15.47A1,1,0,0,1,892.05,441Z" fill="#ff6542"/><path d="M995.65,641.27c-1,.89-7.92-.14-8.13-1.24-.13-.64-1.07-4.07-1.61-7-.08-.44-.16-.87-.21-1.28-.23-1.52-.28-2.7.07-3,.86-.75,5.26-.14,6.79.11h.06l.47.08c.14.83.46,2,.82,3.29C995,635.9,996.44,640.6,995.65,641.27Z" fill="#fcd8c5"/><path d="M1070.36,551.85a32.35,32.35,0,0,1-5.7,1.5c-1.85.37-3.74.72-5.05.87-1,.11-1.61.11-1.69,0-.31-.65,3.46-8,3.46-8,.48,0,1-.06,1.64-.11l.89-.08c3.14-.33,6.86-.83,7.56-.33C1072.37,546.38,1071.28,551.19,1070.36,551.85Z" fill="#fcd8c5"/><path d="M1002.52,402.92s-.3,4.1-2.63,2.19-2.88-5.56-2.88-5.56-3.13,7.27-10.11,6.05-6.35-6-2.93-10.79,11.33-9,18.21-5S1002.52,402.92,1002.52,402.92Z" fill="#401f7f"/><path d="M997.59,647.21l-.2.09c-2.08.8-11.58,2.19-22.06.62a42.13,42.13,0,0,1-6.87-1.53c-4.91-1.56-6-3.32-5.75-3.42s13.2-2.14,16.71-3.58,5.94-4.48,6.13-4.35c5.76,3.84,10.87-.79,11.32-.72S999.15,646.42,997.59,647.21Z" fill="#4975c7"/><path d="M1083.06,563.36q-.68,3.07-1.31,5.25c-2.31,8.17-3.92,7.95-4,7.52s-1.56-11.78-2.73-15.56-2.47-6.32-3.58-6.52-2.53.59-2.67.27c-.28-.72,2.15-4.63.92-6.83s-4-2.61-3.91-2.87,10.47-4.49,12-3.71a4.46,4.46,0,0,1,1.21,1.1C1081.45,544.76,1085.51,552.27,1083.06,563.36Z" fill="#4975c7"/><path d="M993.91,632.22a19.35,19.35,0,0,1-8,.8c-.08-.44-.16-.87-.21-1.28a10.57,10.57,0,0,1,6.86-2.89h.06l.47.08C993.23,629.76,993.55,630.93,993.91,632.22Z" fill="#e6e6e6" style="mix-blend-mode:multiply"/><path d="M969.28,492.74c-6.06,22.65,1.56,73.62,3.51,85.14s10.21,54.48,12.74,54.68,8.11-1.22,8.11-2.2.34-45.84-3.08-56.77a85.61,85.61,0,0,1-3.9-37.11c2-17,4.88-33.78.58-37.88S969.28,492.74,969.28,492.74Z" fill="#6b92e0"/><path d="M1064.66,553.35c-1.85.37-3.74.72-5.05.87a1.5,1.5,0,0,1-.06-.72c.19-1.54,2.64-5.93,3.47-7.37l.89-.08C1065.17,547.33,1065.67,551.35,1064.66,553.35Z" fill="#e6e6e6" style="mix-blend-mode:multiply"/><path d="M980.6,493.33c2,18.94,8.71,73.82,28.12,74.4,19.6.58,54.35-13.22,54.61-14s1.57-6.9,0-7.55-24.21.39-32.15.65-18.23,4.43-19.27,4,1.3-49.86-7.68-61.06S980.6,493.33,980.6,493.33Z" fill="#7aa5fa"/><path d="M1007.48,493.06c-.55,2.47-19.62,3.72-31.21,4,0,0,0,0,0,0-4.92.09-8.5,0-8.73-.21-.78-.78-1.3-1.29,1.17-10.81s7.42-19.26,9.76-28.24S976,442,981.7,434s7-9.48,14.33-9.51c3.42,0,13.67,1,16.4,1.84s4.11,2.3,4.11,8.36c0,4.44-7.76,14.64-12.46,23.18a28.61,28.61,0,0,0-3.36,8.28C999.28,474.85,1008.26,489.55,1007.48,493.06Z" fill="#ffabc6"/><path d="M1106.94,474.76c-5.74-10.71-17.33-22.65-17.44-22.77l1.11-1.09c.12.12,11.86,12.21,17.71,23.12Z" fill="#7aa5fa"/><path d="M1112.15,460.46a.74.74,0,0,1-.42-.13,127.7,127.7,0,0,0-20.18-10.6.79.79,0,0,1-.43-1,.78.78,0,0,1,1-.43A129.53,129.53,0,0,1,1112.58,459a.78.78,0,0,1-.43,1.44Z" fill="#ffb78a"/><path d="M1096.77,451.05c-.13-.32-3.75-2-5-3.64s-2.18-3.58-2.37-3.58-.48,1.4-.62,2.89c-.17,1.72-.07,3.65.49,4S1096.77,451.05,1096.77,451.05Z" fill="#edccb9"/><path d="M1096.79,451.15c-.26,1.17-9,5.08-18.74,4.42s-29.81,14.45-37.23,13c-6.8-1.31-24.08-16.94-29.23-23a13.71,13.71,0,0,1-1.11-1.41,9.34,9.34,0,0,1-1.12-9.54,15.38,15.38,0,0,1,4.07-5.5c.91-.84,1.58-1.34,1.58-1.34,7.7,1.95,22.29,28.24,24.76,28.63s32.93-6.25,36.71-6.51S1097.06,450,1096.79,451.15Z" fill="#fcd8c5"/><path d="M842.93,458.37s33-25.77,36.13-25,29.1,26.56,28.9,27.14-33.2,33.59-34.56,32.61S842.93,458.37,842.93,458.37Z" fill="#ffaba8"/><path d="M873.4,493.13c1.43,1.63,7.94,7.49,8.33,7.23s7.81-14.19,13.15-22S908,460.52,908,460.52s-14.52,9-22.2,16.54A78.29,78.29,0,0,0,873.4,493.13Z" fill="#db8986"/><path d="M850.84,433c1.76-2.74,24.22-15.62,24.61-15.62s23.23,28,23.14,28.51-30.08,13-30.08,13Z" fill="#ff6542"/><path d="M868.51,458.86s8.5,10,9.08,9.67,21-22.65,21-22.65S868.22,458.08,868.51,458.86Z" fill="#d64e32"/><path d="M1088.69,481.32a.78.78,0,0,1-.77-.67c-.41-2.72-3.87-26.76-1.18-31.54a.77.77,0,0,1,1.06-.3.78.78,0,0,1,.3,1.06c-2.06,3.66.29,23.29,1.36,30.55a.78.78,0,0,1-.66.89Z" fill="#7aa5fa"/><path d="M1080.68,481.22l30.07-11.72s15.53,27.93,19,32.22,9.86,13,9.86,13L1113,527.11C1108.9,526.72,1080.68,481.22,1080.68,481.22Z" fill="#7aa5fa"/><path d="M1080.68,481.22l17.48,52.33s14.74-5.85,14.84-6.44S1080.68,481.22,1080.68,481.22Z" fill="#4d7bd1"/><path d="M1087.94,469.5s17.35-7.15,23-10.15c5.93-3.12,9.25-5.34,9.25-5.34s10.93,16.8,13.92,19.79,7.82,7.68,7.82,7.68l-23.18,14.19Z" fill="#ffb78a"/><path d="M1087.94,469.5s5.34,10,9.24,18.1a128.78,128.78,0,0,1,6.25,15.49l15.36-7.42Z" fill="#e6925c"/><path d="M1099.26,466.71a.79.79,0,0,1-.44-.14c-.47-.33-11.34-8-11.08-17.2a.8.8,0,0,1,.81-.76.78.78,0,0,1,.76.8c-.25,8.33,10.3,15.8,10.4,15.87a.79.79,0,0,1,.2,1.09A.8.8,0,0,1,1099.26,466.71Z" fill="#ffb78a"/><path d="M1083.86,424.5c-.88.58-13.45,8.82-24.56,9.34-11.51.51-21.18.7-30.26-10.23s-11.23-29-14.65-33a7.1,7.1,0,0,0-3-2.14c3-.12,4.55,2.94,9.59,11.42,5.47,9.17,16.2,23.53,28.9,26.84,4,1.06,11.69.78,18.76-.15-4.92,1.1-7.85,1.65-7.85,1.65s2,1.83,10.54.14C1079.34,426.78,1083.39,424.73,1083.86,424.5Z" fill="#e6e6e6" style="mix-blend-mode:multiply"/><path d="M1083.06,563.36q-.68,3.07-1.31,5.25a53.67,53.67,0,0,1-2.77-13.32,55.92,55.92,0,0,1,.07-13.28C1081.45,544.76,1085.51,552.27,1083.06,563.36Z" fill="#e6e6e6" style="mix-blend-mode:multiply"/><path d="M997.39,647.3c-2.08.8-11.58,2.19-22.06.62a42.13,42.13,0,0,1-6.87-1.53,46.24,46.24,0,0,1,13.43-1.64C989,644.75,995.08,645.81,997.39,647.3Z" fill="#e6e6e6" style="mix-blend-mode:multiply"/><path d="M1007.48,493.06c-.55,2.47-19.62,3.72-31.21,4,4.62-2.46,19.05-3.52,23.08-5.22,5.2-2.22.77-13-.26-16.86s-.2-11.13,5-17.14a28.61,28.61,0,0,0-3.36,8.28C999.28,474.85,1008.26,489.55,1007.48,493.06Z" fill="#e6e6e6" style="mix-blend-mode:multiply"/><path d="M1127.75,640c67.45,2.46,104.76-28.46,103.75-55.35s-79.66-26.73-103.19,1c-18.92,22.3,12.6,32.27,28.4,36.31S1127.75,640,1127.75,640Z" fill="#ffb585"/><path d="M277.81,662.68c-83.28,3-129.34-35.14-128.1-68.34s98.36-33,127.41,1.25c23.35,27.52-15.57,39.84-35.07,44.82S277.81,662.68,277.81,662.68Z" fill="#ffb585"/><path d="M1189.63,607.89a2.49,2.49,0,0,1-2.48,2.48h-20.28a2.49,2.49,0,0,1-2.48-2.48V587.36a2.48,2.48,0,0,1,2.47-2.49h20.28a2.49,2.49,0,0,1,2.48,2.48v20.55Z" fill="#ffe2d6"/><path d="M1185.79,577.32c0,.21-3.92,2.67-4.6,3.46l-.66.79c-.58.74-1.18,1.55-1.21,1.6a16,16,0,0,1-2.08-.14l-1.08-.12c0-.12.15-.51.28-1.08.22-.82.5-2,.8-3.25a59.72,59.72,0,0,1,1.71-6.37c.21.14,2.23,2.42,3,3S1185.77,577.14,1185.79,577.32Z" fill="#ffd0b3"/><path d="M1178,579.31s-.11,1.27-.31,2.35a7.9,7.9,0,0,1-.27,1.15.62.62,0,0,1-.15.22c-.7.62-3.17.06-3.33-.37a.83.83,0,0,0-.27-.24c-1.15-.79-5.61-2.85-5.6-3a18.93,18.93,0,0,1,2.21-1.62c1.13-.82,3.48-3.74,3.71-3.73a43,43,0,0,0,3.28,4.52Z" fill="#ffd0b3"/><path d="M1189.63,589.52h0a1.28,1.28,0,0,1-.44.09h-24.41a.94.94,0,0,1-.37-.07v-2.19a2.48,2.48,0,0,1,2.47-2.49h20.28a2.49,2.49,0,0,1,2.48,2.48v2.18Z" fill="#e6e6e6" style="mix-blend-mode:multiply"/><path d="M1180.53,581.57c-.58.74-1.18,1.55-1.21,1.6a16,16,0,0,1-2.08-.14c-.7.62-3.17.06-3.33-.37a.83.83,0,0,0-.27-.24c.68-.19,1.72-.41,2.8-.59l1.22-.17A11.59,11.59,0,0,1,1180.53,581.57Z" fill="#e6e6e6" style="mix-blend-mode:multiply"/><path d="M1190.49,587.74a1.31,1.31,0,0,1-.87,1.22,1.49,1.49,0,0,1-.43.08h-24.41a1,1,0,0,1-.39-.07,1.29,1.29,0,0,1-.91-1.23v-3.91a1.3,1.3,0,0,1,1.3-1.29h24.41a1.3,1.3,0,0,1,1.29,1.3Z" fill="#ffeae0"/><polygon points="1179.44 610.38 1174.44 610.39 1174.43 589.05 1174.43 584.87 1174.42 582.53 1179.43 582.53 1179.43 584.87 1179.43 589.04 1179.44 610.38" fill="#ffd0b3"/><path d="M239.76,613a1.9,1.9,0,0,1-1.89,1.9H222.33a1.91,1.91,0,0,1-1.9-1.9V597.23a1.89,1.89,0,0,1,1.89-1.9h15.54a1.91,1.91,0,0,1,1.9,1.9V613Z" fill="#ffdfd1"/><path d="M236.82,589.55c0,.15-3,2-3.52,2.64-.15.17-.32.38-.5.61-.45.57-.91,1.19-.93,1.23s-.91,0-1.6-.11l-.82-.1c0-.09.11-.39.21-.82.17-.63.38-1.53.62-2.49a47.57,47.57,0,0,1,1.3-4.88c.16.1,1.71,1.85,2.27,2.27S236.81,589.4,236.82,589.55Z" fill="#ffd0b3"/><path d="M230.84,591.07s-.09,1-.24,1.8a6.77,6.77,0,0,1-.21.88.59.59,0,0,1-.12.17,2.78,2.78,0,0,1-2.55-.28.73.73,0,0,0-.2-.19c-.89-.6-4.3-2.19-4.3-2.3a13.38,13.38,0,0,1,1.7-1.24c.86-.64,2.67-2.87,2.84-2.87a30.34,30.34,0,0,0,2.52,3.47C230.45,590.7,230.65,590.89,230.84,591.07Z" fill="#ffd0b3"/><path d="M239.76,598.89h0a1,1,0,0,1-.33.07h-18.7a.88.88,0,0,1-.29-.06v-1.68a1.89,1.89,0,0,1,1.89-1.9h15.54a1.91,1.91,0,0,1,1.9,1.9v1.67Z" fill="#e6e6e6" style="mix-blend-mode:multiply"/><path d="M232.8,592.8c-.45.57-.91,1.19-.93,1.23s-.91,0-1.6-.11a2.78,2.78,0,0,1-2.55-.28.73.73,0,0,0-.2-.19c.52-.14,1.31-.31,2.14-.45l.94-.13A8.49,8.49,0,0,1,232.8,592.8Z" fill="#e6e6e6" style="mix-blend-mode:multiply"/><path d="M240.42,597.52a1,1,0,0,1-.66.94.92.92,0,0,1-.33.06h-18.7a.94.94,0,0,1-.3,0,1,1,0,0,1-.7-.94v-3a1,1,0,0,1,1-1h18.7a1,1,0,0,1,1,1Z" fill="#ffeae0"/><polygon points="231.96 614.87 228.13 614.88 228.12 598.53 228.12 595.33 228.12 593.54 231.95 593.53 231.95 595.33 231.95 598.52 231.96 614.87" fill="#ffd0b3"/><path d="M231.81,621.9a.61.61,0,0,1-.61.59H212.34v-18a.6.6,0,0,1,.67-.61c2.19.24,9.2,1.26,13.43,4.95a10.34,10.34,0,0,1,2,2.29,25.88,25.88,0,0,1,1.66,3.11A17.57,17.57,0,0,1,231.81,621.9Z" fill="#fffbfa"/><path d="M212.39,617.35v5.14H181.27a.92.92,0,0,1-.92-.91v-3.32a.92.92,0,0,1,.92-.91Z" fill="#fffbfa"/><path d="M182.12,598.51H210.8a1.75,1.75,0,0,1,1.75,1.75v17.34a0,0,0,0,1,0,0H182.12a1.75,1.75,0,0,1-1.75-1.75V600.26A1.75,1.75,0,0,1,182.12,598.51Z" fill="#ffebe6"/><path d="M230.09,614.21l-12.35-2.31a.4.4,0,0,1-.33-.4v-2.28a.41.41,0,0,1,.41-.41h8.62a10.34,10.34,0,0,1,2,2.29A25.88,25.88,0,0,1,230.09,614.21Z" fill="#ffefeb"/><path d="M197.21,622.49H186.72a5.27,5.27,0,0,1,10.49,0Z" fill="#f5d9d3"/><path d="M225,622.49H214.55a5.27,5.27,0,0,1,10.49,0Z" fill="#f5d9d3"/><path d="M223.75,623a3.95,3.95,0,1,0-3.95,4A3.95,3.95,0,0,0,223.75,623Z" fill="#ffebe6"/><path d="M195.92,623a3.95,3.95,0,1,0-3.95,4A3.95,3.95,0,0,0,195.92,623Z" fill="#ffebe6"/><path d="M1198.46,603.43s-3.06,11-3.7,11,.69-9,.44-9-1.62,0-7.15,9.08c-.47.76-14.53.2-14.51,0,0-.78,3.45-2.19,6.33-3.22,1.44-.53,2.75-1,3.4-1.18a1.61,1.61,0,0,0,.31-.1l.12,0,.61-.9c1.86-2.69,7.42-10.67,9.13-12.42l.2-.18c.12-.1.22-.17.27-.13h0l0,.06C1194.72,597.19,1198.36,602.44,1198.46,603.43Z" fill="#ffe1d1"/><path d="M1194,596.39c.26,1.05-8.14,14.23-10.21,15a5.43,5.43,0,0,1-3.9-.15c1.44-.53,2.75-1,3.4-1.18l.31-.1.12,0,.61-.9c1.85-2.71,7.36-10.74,9.13-12.42l.2-.18a.58.58,0,0,1,.27-.13h0Z" fill="#fff7f5"/><path d="M788.21,753.36c-4.77,8-9.89,20.19-10.17,26.28-1.28,28.23-3.46,33.61-13.47,39.51a15.39,15.39,0,0,1-.38-3C763.47,787.94,775.23,768.49,788.21,753.36Z" fill="#e6e6e6" style="mix-blend-mode:multiply"/></g></g></g></svg>