<svg xmlns="http://www.w3.org/2000/svg" viewBox="0 0 49.58 69.36"><g id="Layer_2" data-name="Layer 2"><g id="Icons"><path d="M4.17,8.16H45.41a4.17,4.17,0,0,1,4.17,4.17V65.2a4.16,4.16,0,0,1-4.16,4.16H4.17A4.17,4.17,0,0,1,0,65.2V12.33A4.17,4.17,0,0,1,4.17,8.16Z" fill="#7f5026"/><path d="M.83,66V13.16A4.17,4.17,0,0,1,5,9H46.25a4.06,4.06,0,0,1,2.48.85,4.14,4.14,0,0,0-3.32-1.68H4.17A4.17,4.17,0,0,0,0,12.33V65.2a4.13,4.13,0,0,0,1.68,3.32A4.09,4.09,0,0,1,.83,66Z" fill="#fff" opacity="0.3"/><path d="M48.75,11.49V64.37a4.17,4.17,0,0,1-4.17,4.16H3.33a4.17,4.17,0,0,1-2.49-.84,4.15,4.15,0,0,0,3.33,1.67H45.41a4.17,4.17,0,0,0,4.17-4.16V12.33A4.16,4.16,0,0,0,47.9,9,4.18,4.18,0,0,1,48.75,11.49Z" opacity="0.2"/><polygon points="5 66.86 5 13.99 45.41 13.16 46.25 66.86 5 66.86" opacity="0.2"/><rect x="4.17" y="13.16" width="41.25" height="52.87" fill="#f3f3f3"/><rect x="29.79" y="16.63" width="13.44" height="6.56" fill="#f74910"/><rect x="30.33" y="17.83" width="12.36" height="0.83" fill="#fff"/><rect x="30.33" y="19.49" width="12.36" height="0.83" fill="#fff"/><rect x="30.33" y="21.16" width="12.36" height="0.83" fill="#fff"/><rect x="6.35" y="16.63" width="13.44" height="6.56" fill="#f74910"/><rect x="6.89" y="17.83" width="12.36" height="0.83" fill="#fff"/><rect x="6.89" y="19.49" width="12.36" height="0.83" fill="#fff"/><rect x="6.89" y="21.16" width="12.36" height="0.83" fill="#fff"/><path d="M28.12,19.91a3.33,3.33,0,1,1-3.33-3.33A3.34,3.34,0,0,1,28.12,19.91Z" fill="#f74910"/><rect x="24.29" y="17.41" width="1" height="5" fill="#fff"/><rect x="22.29" y="19.41" width="5" height="1" fill="#fff"/><path d="M36.46,14.86H13.11a.92.92,0,0,1-.91-.92V10.17H37.38v3.77A.92.92,0,0,1,36.46,14.86Z" fill="#b1b1b1"/><rect x="12.2" y="10.17" width="25.18" height="1.03" opacity="0.2"/><rect x="13.71" y="9.15" width="21.55" height="1.03" fill="#b1b1b1"/><path d="M24.84,0a4.18,4.18,0,0,0-4.4,3.89h-1a.92.92,0,0,0-.92.92V9.15H31.21V4.81a.92.92,0,0,0-.91-.92H29.25A4.18,4.18,0,0,0,24.84,0Zm0,.91a3.27,3.27,0,0,1,3.49,3,3.27,3.27,0,0,1-3.49,3,3.26,3.26,0,0,1-3.48-3A3.26,3.26,0,0,1,24.84.91Z" fill="#7a7a7a"/><rect x="6.35" y="24.86" width="36.87" height="1.46" fill="#63b5e4"/><rect x="11.35" y="28.92" width="31.87" height="0.82" fill="#4d4e54"/><rect x="11.35" y="31.17" width="22.03" height="0.82" fill="#4d4e54"/><rect x="11.35" y="34.88" width="31.87" height="0.82" fill="#4d4e54"/><rect x="11.35" y="37.14" width="14.69" height="0.82" fill="#4d4e54"/><rect x="11.35" y="40.72" width="31.87" height="0.82" fill="#4d4e54"/><rect x="11.35" y="42.97" width="25.16" height="0.82" fill="#4d4e54"/><path d="M9.27,29.34v2.5H6.77v-2.5Zm.42-.42H6.35v3.33H9.69V28.92Z" fill="#4d4e54"/><path d="M9.27,35.17v2.5H6.77v-2.5Zm.42-.42H6.35v3.33H9.69V34.75Z" fill="#4d4e54"/><path d="M9.27,41v2.5H6.77V41Zm.42-.42H6.35v3.34H9.69V40.58Z" fill="#4d4e54"/><rect x="6.35" y="47.46" width="36.87" height="9.32" fill="#ffd8b5"/><path d="M39.05,53.08l-.39-2.51c0-.12-.08-.2-.16-.2h0c-.07,0-.14.09-.15.2l-.52,3.65-.69-5.49c0-.11-.08-.2-.15-.2s-.14.07-.16.18L36,53.08H29.91l-.39-2.51c0-.12-.09-.2-.16-.2h0c-.07,0-.14.09-.16.2l-.51,3.65L28,48.73c0-.11-.08-.2-.15-.2s-.15.07-.17.18l-.8,4.37H20.76l-.39-2.51c0-.12-.08-.2-.15-.2h0c-.07,0-.13.09-.15.2l-.52,3.65-.69-5.49c0-.11-.07-.2-.15-.2s-.14.07-.16.18l-.8,4.37H11.62l-.39-2.51c0-.12-.08-.2-.16-.2h0c-.07,0-.13.09-.15.2l-.52,3.65-.69-5.49c0-.11-.08-.2-.15-.2s-.14.07-.16.18l-.81,4.37H6.35v.52H8.71c.08,0,.14-.08.16-.19l.65-3.56.71,5.65c0,.12.08.21.16.21h0c.08,0,.14-.08.16-.2l.53-3.76.26,1.65c0,.12.08.2.15.2h6.37c.07,0,.13-.08.15-.19l.66-3.56.71,5.65c0,.12.08.21.15.21h0c.07,0,.14-.08.15-.2l.54-3.76.25,1.65c0,.12.08.2.16.2H27c.07,0,.13-.08.15-.19l.66-3.56.71,5.65c0,.12.08.21.15.21h0c.07,0,.14-.08.16-.2l.53-3.76.25,1.65c0,.12.09.2.16.2h6.36c.08,0,.14-.08.16-.19L37,49.85l.71,5.65c0,.12.08.21.16.21h0c.08,0,.14-.08.16-.2l.53-3.76.26,1.65c0,.12.08.2.15.2h4.31v-.52Z" fill="#3b3c42"/><path d="M15.63,60.34a3.15,3.15,0,1,1-3.15-3.15A3.15,3.15,0,0,1,15.63,60.34Z" fill="#2a79a1"/><path d="M12.48,64.72a4.38,4.38,0,1,1,4.37-4.38A4.39,4.39,0,0,1,12.48,64.72Zm0-8.34a4,4,0,1,0,4,4A4,4,0,0,0,12.48,56.38Z" fill="#2a79a1"/><rect x="20.19" y="62.84" width="10.03" height="0.42" fill="#4d4e54"/><path d="M26.14,64.33h0a.21.21,0,0,1-.17-.24c.06-.35.09-.73.13-1.13s.05-.53.08-.8A1.07,1.07,0,0,1,25,62l-.09-.11a2,2,0,0,1-1.25.27.94.94,0,0,1-.56-.44,4.24,4.24,0,0,1-.82.32,1.75,1.75,0,0,1-1.33,1,.22.22,0,0,1-.25-.16.2.2,0,0,1,.16-.25,1.57,1.57,0,0,0,.84-.42,1.86,1.86,0,0,1-1.16-.15.91.91,0,0,1-.49-.87,1.16,1.16,0,0,1,2-.66,1.37,1.37,0,0,1,.37,1.1,4.68,4.68,0,0,0,.5-.22,2,2,0,0,1-.09-.35c-.06-.38,0-.68.2-.8a.47.47,0,0,1,.54.07.61.61,0,0,1,.2.9,1.33,1.33,0,0,1-.31.32.58.58,0,0,0,.3.25,1.68,1.68,0,0,0,1-.25,1.23,1.23,0,0,1,0-.5.87.87,0,0,1,.56-.66c.33-.09.47,0,.52.14.18.29-.1.77-.18.87a2.6,2.6,0,0,1-.44.33l0,0c.2.21.53.11.95-.05a3.28,3.28,0,0,1,1-2.12.47.47,0,0,1,.54-.1c.33.16.35.72.35,1,0,1-1.13,1.43-1.56,1.57-.05.33-.08.67-.11,1s-.07.8-.13,1.16A.21.21,0,0,1,26.14,64.33Zm-5-3.76a.52.52,0,0,0-.24,0,.72.72,0,0,0-.48.59.49.49,0,0,0,.28.48,1.81,1.81,0,0,0,1.22.05,1,1,0,0,0-.22-.92A.86.86,0,0,0,21.17,60.57Zm6.45-.73a.29.29,0,0,0-.1.06,2.66,2.66,0,0,0-.85,1.63c.72-.28,1.06-.64,1.07-1.11A1,1,0,0,0,27.62,59.84Zm-2.1.93h-.06a.51.51,0,0,0-.27.37l0,.14.22-.17A1.11,1.11,0,0,0,25.52,60.77Zm-2.32-.16a1.3,1.3,0,0,0,.05.54.52.52,0,0,0,.14-.16c.07-.09.1-.19-.1-.33S23.2,60.61,23.2,60.61Z" fill="#63b5e4"/><rect x="34.51" y="60.76" width="8.72" height="1.12" fill="#4d4e54"/><rect x="31.73" y="60.76" width="1.65" height="1.12" fill="#4d4e54"/><path d="M8.33,32.08,7,30.23a.42.42,0,1,1,.67-.49l.67.9,2-3a.42.42,0,0,1,.58-.11.4.4,0,0,1,.11.57Z" fill="#4fa648"/><path d="M8.33,37.86,7,36A.43.43,0,0,1,7,35.42a.44.44,0,0,1,.59.09l.67.91,2-3.05a.42.42,0,1,1,.69.47Z" fill="#4fa648"/><path d="M8.33,43.7,7,41.85A.43.43,0,0,1,7,41.26a.44.44,0,0,1,.59.09l.67.9,2-3a.42.42,0,1,1,.69.47Z" fill="#4fa648"/></g></g></svg>