<svg xmlns="http://www.w3.org/2000/svg" viewBox="0 0 67.89 82.25"><g id="Layer_2" data-name="Layer 2"><g id="Icons"><rect x="25.22" y="36.14" width="17.44" height="19.87" fill="#ffd8b5"/><path d="M42.66,36.14v2.29c-.34.26-.72.53-1.1.79-.14.11-.28.2-.43.3C39.11,40.89,37,42.2,37,42.2a6.36,6.36,0,0,1-5.76,0s-2.62-1.6-4.8-3.12l-1.17-.84v-2.1Z" opacity="0.2"/><path d="M46.56,18c0,6-.1,12.86-.37,14.12A10.12,10.12,0,0,1,44,35.81c-.32.3-.81.69-1.38,1.13l-1.24.88c-.17.11-.33.22-.5.35-2,1.33-4.11,2.62-4.11,2.62a6.4,6.4,0,0,1-5.75,0s-2.64-1.61-4.8-3.13l-1-.74a16.34,16.34,0,0,1-1.38-1.11,10.26,10.26,0,0,1-2.15-3.74c-.27-1.26-.37-8.1-.37-14.1,0-3.95.05-7.54.12-9,.12-2.3,1.61-5.27,3.31-5.66.25,0,.49-.1.72-.15l2.34-.51.35-.07a34,34,0,0,1,11.77,0l.13,0c1.12.23,2.17.47,3.07.66,1.18.27,2.27,1.81,2.86,3.49A8.32,8.32,0,0,1,46.44,9c0,.53.05,1.35.07,2.36C46.54,13.11,46.56,15.45,46.56,18Z" fill="#ffd8b5"/><path d="M48.57,50V73.19H19.31V50H48.57Z" fill="#fff"/><polygon points="37.57 73.19 30.27 73.19 30.47 71.51 30.48 71.37 30.86 68.12 30.91 67.57 32.24 56.02 32.26 55.83 35.59 55.83 35.61 56.02 36.96 67.91 37.02 68.46 37.38 71.53 37.4 71.65 37.57 73.19" fill="#f74910"/><polygon points="35.62 55.84 32.26 55.84 30.27 49.94 33.96 50.03 37.61 49.94 35.62 55.84" fill="#d73f0e"/><path d="M26.25,1.82C21.19,7.66,37.06,16.94,44.74,13c3.8-2,3.25-8.23-.21-10.5C40.73,0,29-1.28,26.25,1.82Z" fill="#3b3c42"/><path d="M26.25,1.82c-6.1,1.22-6.47,8.32-5.08,16.64,1.51-4.9,2.93-9.87,5.08-11C28.63,6.19,29.43,1.19,26.25,1.82Z" fill="#3b3c42"/><path d="M46.72,18.46c-.06-.18-.11-.34-.16-.51-.52-1.73-1-3.52-1.49-5.14a20.33,20.33,0,0,0-1.78-4.49A3.66,3.66,0,0,0,42,7a4.67,4.67,0,0,1-2-4.31,1.47,1.47,0,0,1,2-1.34l.09,0a6.72,6.72,0,0,1,5.16,4.91C48,9.29,47.63,13.5,46.72,18.46Z" fill="#3b3c42"/><path d="M44.54,47.88a15.1,15.1,0,0,1-1.72,7.93,8.32,8.32,0,0,1-.9,1.42c-.13-.17-.27-.35-.44-.55s-.58-.68-.95-1a71.45,71.45,0,0,0-6-5.26s0,0,0,0c5.07-1.2,7.36-3.77,8.09-8.6a6.67,6.67,0,0,1,.45.72,11,11,0,0,1,1.18,3.25A12.52,12.52,0,0,1,44.54,47.88Z" opacity="0.3"/><path d="M44.55,48.24A15.35,15.35,0,0,1,44.33,50,12.62,12.62,0,0,1,43.85,52h0a12.24,12.24,0,0,1-1.19,2.71,10.85,10.85,0,0,1-.74,1.12l-.1-.12h0A20.81,20.81,0,0,0,37,51.81c-1-.61-1.84-1.12-2.4-1.43h0l-.07,0L34,50a10.88,10.88,0,0,0,8.34-8,13.91,13.91,0,0,0,.35-1.66v0l0,0h0a10.5,10.5,0,0,1,1.62,4h0a9.09,9.09,0,0,1,.15.91h0a1.76,1.76,0,0,1,0,.33A15.44,15.44,0,0,1,44.55,48.24Z" fill="#fff"/><path d="M33.32,50.37s0,0,0,0a71.94,71.94,0,0,0-6,5.33,9.31,9.31,0,0,0-.88,1c-.17.2-.31.38-.44.55a8.32,8.32,0,0,1-.9-1.42,15.1,15.1,0,0,1-1.72-7.93,10.41,10.41,0,0,1,.19-1.76c0-.13,0-.25.07-.38a11,11,0,0,1,1.17-3.25c.15-.25.29-.49.46-.72C26,46.6,28.25,49.17,33.32,50.37Z" opacity="0.3"/><path d="M62.65,50a6.59,6.59,0,0,0-2.18-1.9,3.42,3.42,0,0,0-.55-.26l-.23-.09-4.38-1.71-2.07-.81-1.78-.6-3.75-.79-.32-.08-2-.41-.9,1.84-.07.13h0l-.19.38,0,.09-.33.66-.46,1.24c0,.36,0,.72-.07,1.09s-.08.8-.14,1.21a6,6,0,0,1-.11.7c0,.24-.08.47-.13.71s-.09.47-.15.72-.11.48-.18.72c-.14.58-.31,1.17-.5,1.77-.12.35-.23.68-.34,1h0a2.42,2.42,0,0,0-.1.32c-.09.21-.17.44-.24.66-.34,1-.7,2-1.08,3-.16.45-.34.9-.51,1.36-1,2.49-2,4.86-2.93,6.86v0c-.12.27-.25.54-.37.79l-.36.74a30.16,30.16,0,0,1-2,3.5l-.18.23L33.89,73a48.09,48.09,0,0,1-3-5.39A102.74,102.74,0,0,1,26.4,56.68L26.18,56c0-.12-.08-.22-.12-.32h0c-.11-.36-.22-.69-.34-1v0a17.36,17.36,0,0,1-.5-1.72A23.94,23.94,0,0,1,24.65,50c-.08-.49-.13-1-.17-1.46v0l-.56-1.43h0l-.39-1-.15-.33v0l-.86-2.21v0l-.05-.14h0l-2,.42-.31.07h0l-3.72.79-1.8.6L8.2,47.78A6.6,6.6,0,0,0,4,53.64L0,82.25H67.89l-4-28.61A6.26,6.26,0,0,0,62.65,50Z" fill="#e1e1e1"/><polygon points="30.66 82.25 34.08 82.25 34.08 73.19 30.66 70.86 30.66 82.25" fill="#f0f0f0"/><path d="M25.23,40.36A11.05,11.05,0,0,0,33.94,50s-6.29,3.39-8,5.8C22.82,51.72,22.33,44.47,25.23,40.36Z" fill="#fff"/><rect x="44.94" y="70.6" width="12.91" height="3.65" fill="#fff"/><rect x="10.03" y="70.6" width="12.91" height="3.65" fill="#fff"/><path d="M32.37,77.15a1.24,1.24,0,1,0,1.23,1.24A1.23,1.23,0,0,0,32.37,77.15Zm.48,1.49a.26.26,0,0,1-.26-.25.27.27,0,0,1,.26-.26.25.25,0,0,1,.25.26A.24.24,0,0,1,32.85,78.64Zm-1,0a.25.25,0,0,1-.25-.25.26.26,0,1,1,.51,0A.25.25,0,0,1,31.88,78.64Z" fill="#7f5026"/><path d="M32.37,77a1.41,1.41,0,1,0,1.4,1.41A1.41,1.41,0,0,0,32.37,77Zm0,2.48a1.06,1.06,0,0,1-1.07-1.07,1.07,1.07,0,1,1,2.13,0A1.06,1.06,0,0,1,32.37,79.46Z" fill="#9d7851"/><path d="M32.84,78.51h-1a.12.12,0,0,1-.12-.12.12.12,0,0,1,.12-.12h1a.12.12,0,0,1,.12.12A.12.12,0,0,1,32.84,78.51Z" fill="#b1b1b1"/><path d="M37.35,18.19a29,29,0,0,1-3.41.89,29,29,0,0,1-3.41-.89,16.65,16.65,0,0,0-7.73.44v1.92c.38.17.72,3.06,1.06,4A2.53,2.53,0,0,0,25.25,26a9.41,9.41,0,0,0,4.92.13,2.64,2.64,0,0,0,1.75-1.06c.7-1,.95-4.05,2-4.05s1.32,3.05,2,4.05a2.64,2.64,0,0,0,1.75,1.06A9.41,9.41,0,0,0,42.63,26,2.53,2.53,0,0,0,44,24.52c.34-.91.68-3.8,1.06-4V18.63A16.65,16.65,0,0,0,37.35,18.19Zm-4.84,3.23a11.43,11.43,0,0,1-.82,2.74,2.5,2.5,0,0,1-2.07,1.59,13.92,13.92,0,0,1-3.55,0,2.59,2.59,0,0,1-1.71-1.44,11.17,11.17,0,0,1-.57-3.48c0-1.38,1.1-1.7,2-1.95a16.52,16.52,0,0,1,5.57.38A1.93,1.93,0,0,1,32.51,21.42Zm11,2.89a2.59,2.59,0,0,1-1.71,1.44,13.92,13.92,0,0,1-3.55,0,2.5,2.5,0,0,1-2.07-1.59,12.13,12.13,0,0,1-.83-2.74,1.94,1.94,0,0,1,1.13-2.16,16.52,16.52,0,0,1,5.57-.38c.92.25,2,.57,2,1.95A11.17,11.17,0,0,1,43.52,24.31Z" fill="#2d2d2d"/><path d="M27.43,76.27,24.81,62.45l.33-.05L24,56.28a4.93,4.93,0,0,0-.71-1.78l0,0a6,6,0,0,0-.73-.93h0a5.52,5.52,0,0,0-3.81-1.65H18l-.11-.72-.32-2H17.2v-.65a7.54,7.54,0,0,1,.58-2.9l0,0v0c.09-.19.18-.38.28-.56l.06-.11c.1-.17.2-.34.31-.5l.09-.13,0,0a.91.91,0,0,0-.47-.57h0a1.47,1.47,0,0,0-.28-.14,1.78,1.78,0,0,0-.49-.09,8.84,8.84,0,0,0-1.59,4.51c0,.18,0,.37,0,.56v.16h0v.54h-.36v.07L15,51.16l-.11.72h-.77a5.55,5.55,0,0,0-5.27,4.4l-1,5.37,0,.11-.1.64.32.05L5.49,76.27a3.82,3.82,0,0,0,.3,2h0a4,4,0,0,0,2.12,2.16,10.17,10.17,0,0,0,3.59.63v.38h1l1.39.21a.46.46,0,0,0,.54-.47V80.17A.46.46,0,0,0,14,79.7a.43.43,0,0,0-.16,0l-1.39.22h-1v.37h-.38a8.88,8.88,0,0,1-2.91-.55,3.09,3.09,0,0,1-1.37-1.19s0,0,0,0a3.64,3.64,0,0,1-.3-.59s0,0,0,0a3,3,0,0,1-.22-1.53L8.92,62.6l.32.06.22-1.27a8.51,8.51,0,0,1,.71-.76,10.86,10.86,0,0,1,1.88-1.5,8.45,8.45,0,0,1,4.4-1.52,8.48,8.48,0,0,1,4.42,1.52,11.18,11.18,0,0,1,1.87,1.5c.13.12.26.26.39.39l.32.36.09.48v0l.14.77h.08l.23,0,2.62,13.79a2.87,2.87,0,0,1-.14,1.36.41.41,0,0,0,0,.08,3.27,3.27,0,0,1-1.74,1.9,7.26,7.26,0,0,1-1.16.34.32.32,0,0,0-.09,0,10.94,10.94,0,0,1-2,.19v-.37h-1l-.38-.06-1-.16a.47.47,0,0,0-.55.47v1.07a.46.46,0,0,0,.55.47l1.38-.21h1v-.38A10.33,10.33,0,0,0,25,80.49,4.13,4.13,0,0,0,27.43,76.27ZM23.07,60.65v0a10.75,10.75,0,0,0-2-1.85,8.74,8.74,0,0,0-1.88-1.08l-.1-.05a7.32,7.32,0,0,0-2.67-.6,8.23,8.23,0,0,0-4.64,1.73A11.05,11.05,0,0,0,9.53,61l.19-1,0-.22,0-.26.54-3a4,4,0,0,1,3.81-3.18h4.61A4,4,0,0,1,22,55.15s0,0,0,0a3.8,3.8,0,0,1,.56,1.35l.76,4.25v.07l0,.17-.19-.24A.81.81,0,0,1,23.07,60.65Z" opacity="0.15"/><path d="M23.85,61.81a7.6,7.6,0,0,0-1.48-1.9,12.25,12.25,0,0,0-1.88-1.5,8.44,8.44,0,0,0-4.41-1.51,8.44,8.44,0,0,0-4.41,1.51,12.89,12.89,0,0,0-1.88,1.5,7.37,7.37,0,0,0-1.48,1.9,8.86,8.86,0,0,1,3.12-3.75,8.24,8.24,0,0,1,4.65-1.71,8.24,8.24,0,0,1,4.65,1.71A8.86,8.86,0,0,1,23.85,61.81Z" fill="#a6a6a6"/><path d="M22.37,59.74a11.68,11.68,0,0,0-1.88-1.5,8.45,8.45,0,0,0-4.41-1.52,8.45,8.45,0,0,0-4.41,1.52,11.68,11.68,0,0,0-1.88,1.5A8,8,0,0,0,8.68,61a6.28,6.28,0,0,0-.37.79,7.37,7.37,0,0,1,1.48-1.9,12.89,12.89,0,0,1,1.88-1.5,8.44,8.44,0,0,1,4.41-1.51,8.44,8.44,0,0,1,4.41,1.51,12.25,12.25,0,0,1,1.88,1.5,7.6,7.6,0,0,1,1.48,1.9,5.68,5.68,0,0,0-.37-.79A9.11,9.11,0,0,0,22.37,59.74Z" opacity="0.2"/><path d="M13.47,79a.45.45,0,0,1,.54.46v1.07a.45.45,0,0,1-.54.47l-1.38-.21V79.2Z" fill="#474747"/><rect x="11.12" y="79.2" width="0.96" height="1.58" fill="#5e5e5e"/><path d="M7.75,61.63l.81.12L5.93,75.67A3.3,3.3,0,0,0,7.83,79a9.31,9.31,0,0,0,3.29.57v.83a10.28,10.28,0,0,1-3.6-.63,4.14,4.14,0,0,1-2.41-4.22Z" fill="#a6a6a6"/><path d="M18.69,79a.45.45,0,0,0-.54.46v1.07a.45.45,0,0,0,.54.47l1.38-.21V79.2Z" fill="#474747"/><rect x="20.07" y="79.2" width="0.96" height="1.58" fill="#5e5e5e"/><path d="M24.41,61.63l2.64,13.92a4.14,4.14,0,0,1-2.41,4.23,10.28,10.28,0,0,1-3.6.63v-.83A9.31,9.31,0,0,0,24.33,79a3.3,3.3,0,0,0,1.9-3.34L23.6,61.75Z" fill="#a6a6a6"/><path d="M18.1,43.62s0,0,0,0l-.06.07c-.13.2-.25.4-.36.61s-.21.43-.3.65a6.38,6.38,0,0,0-.3.87c-.05.16-.08.31-.12.48a8.29,8.29,0,0,0-.15,1.5v3.63H15.34V47.8a9.06,9.06,0,0,1,1.11-4.33l.11,0a2.56,2.56,0,0,1,.77,0,1.78,1.78,0,0,1,.49.09A1.47,1.47,0,0,1,18.1,43.62Z" fill="#63b5e4"/><path d="M17.82,43.48a1.47,1.47,0,0,1,.28.14.18.18,0,0,0-.05.07,4.24,4.24,0,0,0-.36.61,5.44,5.44,0,0,0-.3.65,6.38,6.38,0,0,0-.3.87c-.05.16-.08.31-.12.48a8.29,8.29,0,0,0-.15,1.5v3.63h-.37V47.8a7.31,7.31,0,0,1,.26-1.93A7.07,7.07,0,0,1,17.82,43.48Z" fill="#fff" opacity="0.3"/><rect x="15.34" y="47.9" width="1.49" height="3.45" opacity="0.2"/><polygon points="14.98 48.45 17.18 48.45 17.73 51.91 14.43 51.91 14.98 48.45" fill="#63b5e4"/><polygon points="17.49 51.91 16.93 48.45 16.16 48.45 16.71 51.91 17.49 51.91" fill="#fff" opacity="0.3"/><path d="M8.34,61.75,5.71,75.67A3.3,3.3,0,0,0,7.61,79a9.31,9.31,0,0,0,3.29.57h.22A9.31,9.31,0,0,1,7.83,79a3.3,3.3,0,0,1-1.9-3.34L8.56,61.75Z" fill="#fff" opacity="0.3"/><path d="M26.83,75.55a4.14,4.14,0,0,1-2.42,4.23A9.9,9.9,0,0,1,21,80.4h0a10.28,10.28,0,0,0,3.6-.63,4.14,4.14,0,0,0,2.41-4.23L24.41,61.63l-.21,0Z" fill="#fff" opacity="0.3"/><path d="M13.77,51.16h4.62a5.57,5.57,0,0,1,5.27,4.41l1.1,6.11-1.46.26-1.1-6.11a4,4,0,0,0-3.81-3.18H13.77A4,4,0,0,0,10,55.83l-1.1,6.11L7.4,61.68l1.1-6.11A5.56,5.56,0,0,1,13.77,51.16Z" fill="#63b5e4"/><path d="M9.74,55.83,8.65,61.9l.21,0L10,55.83a4,4,0,0,1,3.81-3.18h-.22A4,4,0,0,0,9.74,55.83Z" fill="#fff" opacity="0.3"/><path d="M23.44,55.57l1.1,6.11-1.25.22v0l1.46-.26-1.1-6.11a5.57,5.57,0,0,0-5.27-4.41h-.22A5.57,5.57,0,0,1,23.44,55.57Z" fill="#fff" opacity="0.3"/><path d="M54.81,65.49a2.92,2.92,0,0,1-.08.73,1,1,0,0,1,0,.18,3.39,3.39,0,0,1-.17.51s0,.1-.07.14a4.62,4.62,0,0,1-.28.48.48.48,0,0,1-.09.11,3.62,3.62,0,0,1-.36.42,3.43,3.43,0,0,1-2.06,1,1.84,1.84,0,0,1-.41,0,3.58,3.58,0,0,1-3.57-3.58,3.62,3.62,0,0,1,.92-2.38s0,0,0,0l.07-.06a4,4,0,0,1,.37-.34l.16-.14a3.18,3.18,0,0,1,.44-.26l.19-.11a4.83,4.83,0,0,1,.5-.16,1.59,1.59,0,0,1,.2-.07h0V49.65a9.78,9.78,0,0,0-.79-3.91A7.5,7.5,0,0,0,48.59,44a1.15,1.15,0,0,1,.47-.39,1.84,1.84,0,0,1,1-.17,7.81,7.81,0,0,1,.55.82,9.86,9.86,0,0,1,.72,1.54,11.17,11.17,0,0,1,.69,3.9V62l.45.13a2.39,2.39,0,0,1,.37.15l.07,0A3.57,3.57,0,0,1,54.81,65.49Z" opacity="0.15"/><path d="M52.8,49.65V63.38H51.32V49.64a9.62,9.62,0,0,0-.74-3.76,6.83,6.83,0,0,0-1.52-2.32,1.84,1.84,0,0,1,1-.17,2.61,2.61,0,0,1,.48,0h0a2.16,2.16,0,0,1,.47.15l0,0a7.1,7.1,0,0,1,.61,1h0a3,3,0,0,0,.16.31,3.13,3.13,0,0,1,.15.32,3.47,3.47,0,0,1,.17.45c.06.15.11.3.16.46a9.7,9.7,0,0,1,.4,1.67A10.91,10.91,0,0,1,52.8,49.65Z" fill="#63b5e4"/><path d="M48.49,65.49a3.57,3.57,0,1,0,3.57-3.57A3.57,3.57,0,0,0,48.49,65.49Z" fill="#474747"/><path d="M55.4,65.73a3.57,3.57,0,0,0-6-2.59,3.57,3.57,0,1,1,5.14,4.94A3.56,3.56,0,0,0,55.4,65.73Z" fill="#fff" opacity="0.2"/><rect x="51.31" y="59.44" width="1.49" height="4.54" fill="#b1b1b1"/><path d="M52.8,49.65V63.38h-.37V49.65a11.17,11.17,0,0,0-.76-4.11,9,9,0,0,0-1.15-2.09,2.16,2.16,0,0,1,.47.15,9.49,9.49,0,0,1,.63,1s0,0,0,0c.1.21.21.42.3.64a8,8,0,0,1,.34.9,12,12,0,0,1,.4,1.67A10.91,10.91,0,0,1,52.8,49.65Z" fill="#fff" opacity="0.3"/><path d="M51.31,63.1V64H52.8V63.1a2.37,2.37,0,0,0-1.49,0Z" opacity="0.2"/><path d="M49.85,65.49a2.21,2.21,0,1,0,2.21-2.2A2.2,2.2,0,0,0,49.85,65.49Z" fill="#b1b1b1"/><path d="M53.6,66.34a2.23,2.23,0,0,0-2.23-2.23,2,2,0,0,0-.69.13,1.83,1.83,0,0,1,1.46-.72,1.86,1.86,0,0,1,1.44,3C53.58,66.5,53.6,66.42,53.6,66.34Z" fill="#fff" opacity="0.3"/><path d="M34.08,73.19c-10-4-16.62-11.55-19.06-15.82,1.52-.9,4.56-2.42,4.56-2.42A38.37,38.37,0,0,0,15,53.42c.21-2.22,2.23-6.43,5.14-9.54v0l.31-.07,2-.41.07.14v0l.9,1.82.18.38.37.75c0,.2,0,.41-.06.6,0,0,0,0,0,0A18.66,18.66,0,0,0,24,52a19,19,0,0,0,.63,2.67c.13.38.26.78.4,1.16A79.18,79.18,0,0,0,33.9,73C34,73,34,73.12,34.08,73.19Z" opacity="0.3"/><path d="M34.08,73.19a39,39,0,0,1-18-15.82c1.52-.9,4.56-2.42,4.56-2.42a38.37,38.37,0,0,0-4.56-1.53,20.42,20.42,0,0,1,4.4-9.62h0a10.8,10.8,0,0,1,4.72-3.43s0,0,0,.07c-.16.69-.29,1.38-.41,2.06a24.36,24.36,0,0,0-.29,6.06h0a27.24,27.24,0,0,0,1.24,6.09c.12.35.23.69.34,1l.34,1c2.39,6.88,5.77,13.8,7.5,16.27C34,73,34,73.12,34.08,73.19Z" fill="#d0d0d0"/><path d="M48.57,55.09c.79.39,3,1.54,4.29,2.28a32.56,32.56,0,0,1-4.29,5.71c-.57.63-1.19,1.26-1.86,1.9a40.3,40.3,0,0,1-9.31,6.67,36.1,36.1,0,0,1-3.32,1.54l.18-.23A49.79,49.79,0,0,0,37,68.47h0a80.29,80.29,0,0,0,5.8-12.65c.14-.39.27-.78.39-1.16A17.64,17.64,0,0,0,43.85,52h0A19,19,0,0,0,44.06,50a20.56,20.56,0,0,0-.16-3.54l.32-.66h0l0-.09.19-.38h0l.07-.13.9-1.84,2,.41.32.08a22.24,22.24,0,0,1,3,4,15.19,15.19,0,0,1,2.18,5.54,33.65,33.65,0,0,0-4.29,1.42L48.3,55Z" opacity="0.3"/><path d="M48.57,55.64c1,.51,2.36,1.22,3.23,1.73a34.59,34.59,0,0,1-3.23,4.73c-.56.7-1.18,1.43-1.86,2.16a38.91,38.91,0,0,1-9.32,7.28c-1,.57-2.15,1.13-3.31,1.65l.18-.23a30.16,30.16,0,0,0,2-3.5l.36-.74c.12-.25.25-.52.37-.79v0c.95-2,2-4.37,2.93-6.86.17-.46.35-.91.51-1.36.38-1,.74-2,1.08-3,.07-.22.15-.45.24-.66a2.42,2.42,0,0,1,.1-.32h0c.11-.36.22-.69.34-1,.19-.6.36-1.19.5-1.77.07-.24.13-.49.18-.72s.11-.49.15-.72.09-.47.13-.71a6,6,0,0,0,.11-.7c.06-.41.11-.81.14-1.21s.06-.73.07-1.09,0-1,0-1.44a22.12,22.12,0,0,0-.22-2.94h0c0-.28-.08-.57-.13-.85-.11-.68-.24-1.37-.41-2.07h0s0,0,0,0a10.71,10.71,0,0,1,4.71,3.43,19.82,19.82,0,0,1,2.75,4.34,17,17,0,0,1,1.66,5.29,27.92,27.92,0,0,0-3.23,1c-.76.28-1.33.52-1.33.52Z" fill="#d0d0d0"/><path d="M53.49,72.23H41.24a.59.59,0,0,0-.6.59v7.32a.6.6,0,0,0,.6.59H53.49a.6.6,0,0,0,.6-.59V72.82A.59.59,0,0,0,53.49,72.23Zm-4.84,1.45H46.08v-.84h2.57Z" fill="#daf0f5"/><path d="M53.49,80.93H41.24a.8.8,0,0,1-.8-.79V72.82a.8.8,0,0,1,.8-.79H53.49a.79.79,0,0,1,.79.79v7.32A.79.79,0,0,1,53.49,80.93Zm-12.25-8.5a.39.39,0,0,0-.4.39v7.32a.39.39,0,0,0,.4.39H53.49a.39.39,0,0,0,.4-.39V72.82a.39.39,0,0,0-.4-.39Z" fill="#79787f"/><rect x="48.69" y="74.52" width="4.21" height="0.78" fill="#f74910"/><rect x="47.36" y="76.25" width="5.53" height="0.62" fill="#a1a0a8"/><rect x="47.36" y="77.75" width="5.53" height="0.62" fill="#a1a0a8"/><rect x="47.36" y="79.25" width="5.53" height="0.62" fill="#a1a0a8"/><rect x="41.99" y="74.52" width="4.39" height="5.47" fill="#74b8d5"/><polygon points="48.23 73.22 48.77 72.03 48.23 72.03 48.23 73.22" opacity="0.3"/><polygon points="48.23 73.22 46.5 73.22 45.95 69.06 48.77 69.06 48.23 73.22" fill="#4f9ec9"/><rect x="47.36" y="74.52" width="1.32" height="1.33" fill="#f74910"/><rect x="47.88" y="74.72" width="0.3" height="0.91" fill="#fff"/><rect x="47.57" y="75.03" width="0.91" height="0.3" fill="#fff"/></g></g></svg>