<svg xmlns="http://www.w3.org/2000/svg" viewBox="0 0 73.32 62.18"><g id="Layer_2" data-name="Layer 2"><g id="Icons"><rect x="35.01" y="38.34" width="38.12" height="23.66" rx="3.63" fill="#63b5e4"/><path d="M69.51,62.18H38.65a3.82,3.82,0,0,1-3.82-3.81V42a3.82,3.82,0,0,1,3.82-3.81H69.51A3.82,3.82,0,0,1,73.32,42v16.4A3.82,3.82,0,0,1,69.51,62.18ZM35.19,58.37a3.45,3.45,0,0,0,3.46,3.44H69.51A3.45,3.45,0,0,0,73,58.37V42a3.46,3.46,0,0,0-3.45-3.45H38.65A3.46,3.46,0,0,0,35.19,42Z" fill="#2181b8"/><path d="M37.74,42.69a4.12,4.12,0,0,1,.28-.31,2.4,2.4,0,0,1,.23-.21l.08-.06.08-.07a3.6,3.6,0,0,1,5,5l-.07.08-.06.08-.21.23-.31.28a3.6,3.6,0,0,1-5.06-5.06Z" opacity="0.2"/><path d="M38.15,42.51l.6,0,4.18,4.18,0,.61.2-.22.06-.08L43.3,47a3.41,3.41,0,0,0-4.78-4.78l-.08.06-.08.06Z" fill="#d0d0d0"/><path d="M38.15,42.51a3.85,3.85,0,0,0-.27.3,3.41,3.41,0,0,0,4.8,4.79l.3-.26,0-.61-4.18-4.18Z" fill="#f1f1f1"/><path d="M38.45,42.81a3,3,0,0,0-.24.26,3,3,0,0,0,4.21,4.2,1.86,1.86,0,0,0,.26-.23l.18-.19,0-.07.05-.07a3,3,0,0,0-4.19-4.19l-.07.06-.07.05Z" fill="#e2e2e2"/><polygon points="38.15 42.51 38.19 43.12 42.37 47.29 42.98 47.34 42.93 46.73 38.75 42.55 38.15 42.51" fill="#c5c6cb"/><polygon points="42.81 46.86 38.63 42.67 38.15 42.51 38.75 42.55 42.93 46.74 42.98 47.34 42.81 46.86" opacity="0.2"/><path d="M42.26,42.45a4.44,4.44,0,0,0-2.63,1.25A4.38,4.38,0,0,0,38.36,47l-.13-.11-.18-.19a.18.18,0,0,0,0-.07l-.06-.07a3,3,0,0,1,4.23-4.22l.07,0Z" fill="#fff" opacity="0.3"/><path d="M46.75,42.69a4.12,4.12,0,0,1,.28-.31l.22-.21.09-.06.08-.07a3.6,3.6,0,0,1,5,5l-.06.08-.06.08-.21.23-.32.28a3.6,3.6,0,0,1-5-5.06Z" opacity="0.2"/><path d="M47.15,42.51l.61,0,4.18,4.18.05.61.2-.22.06-.08.06-.07a3.41,3.41,0,0,0-4.78-4.78l-.08.06-.08.06Z" fill="#d0d0d0"/><path d="M47.15,42.51l-.26.3a3.41,3.41,0,0,0,4.8,4.79l.3-.26-.05-.61-4.18-4.18Z" fill="#f1f1f1"/><path d="M47.45,42.81a2.85,2.85,0,0,0-.23.26,3,3,0,0,0,4.21,4.2,1.86,1.86,0,0,0,.26-.23l.18-.19.05-.07,0-.07a3,3,0,0,0-4.19-4.19l-.07.06-.07.05Z" fill="#e2e2e2"/><polygon points="47.16 42.51 47.2 43.12 51.38 47.29 51.98 47.34 51.94 46.73 47.76 42.55 47.16 42.51" fill="#c5c6cb"/><polygon points="51.82 46.86 47.64 42.67 47.16 42.51 47.76 42.55 51.94 46.74 51.98 47.34 51.82 46.86" opacity="0.2"/><path d="M51.27,42.45a4.41,4.41,0,0,0-2.63,1.25A4.34,4.34,0,0,0,47.37,47a.69.69,0,0,1-.13-.11l-.18-.19L47,46.67,47,46.6a3,3,0,0,1,4.23-4.22l.06,0Z" fill="#fff" opacity="0.3"/><path d="M55.76,42.69l.27-.31.24-.21.08-.06.08-.07a3.6,3.6,0,0,1,5,5l-.06.08-.07.08a1.51,1.51,0,0,1-.21.23l-.31.28a3.6,3.6,0,0,1-5.05-5.06Z" opacity="0.2"/><path d="M56.16,42.51l.61,0L61,46.73l0,.61a2.18,2.18,0,0,0,.21-.22l.06-.08.06-.07a3.42,3.42,0,0,0-4.78-4.78l-.08.06-.08.06Z" fill="#d0d0d0"/><path d="M56.16,42.51a3.73,3.73,0,0,0-.26.3,3.41,3.41,0,0,0,4.8,4.79l.29-.26,0-.61-4.18-4.18Z" fill="#f1f1f1"/><path d="M56.46,42.81a2.85,2.85,0,0,0-.23.26,3,3,0,0,0,4.21,4.2A2.68,2.68,0,0,0,60.7,47a1.54,1.54,0,0,0,.17-.19l.06-.07,0-.07a3,3,0,0,0-4.19-4.19l-.07.06-.07.05Z" fill="#e2e2e2"/><polygon points="56.16 42.51 56.21 43.12 60.39 47.29 60.99 47.34 60.95 46.73 56.77 42.55 56.16 42.51" fill="#c5c6cb"/><polygon points="60.83 46.86 56.65 42.67 56.16 42.51 56.77 42.55 60.95 46.74 60.99 47.34 60.83 46.86" opacity="0.2"/><path d="M60.28,42.45A4.35,4.35,0,0,0,56.38,47a.69.69,0,0,1-.13-.11l-.18-.19,0-.07L56,46.6a3,3,0,0,1,4.23-4.22l.06,0Z" fill="#fff" opacity="0.3"/><path d="M64.77,42.69a2.61,2.61,0,0,1,.27-.31l.23-.21.09-.06.08-.07a3.6,3.6,0,0,1,5,5l-.06.08-.06.08a2.39,2.39,0,0,1-.22.23l-.31.28a3.6,3.6,0,0,1-5-5.06Z" opacity="0.2"/><path d="M65.17,42.51l.61,0L70,46.73l0,.61.21-.22.06-.08.06-.07a3.42,3.42,0,0,0-4.78-4.78l-.08.06-.08.06Z" fill="#d0d0d0"/><path d="M65.17,42.51a3.73,3.73,0,0,0-.26.3,3.41,3.41,0,0,0,4.8,4.79l.29-.26,0-.61-4.18-4.18Z" fill="#f1f1f1"/><path d="M65.47,42.81a2.85,2.85,0,0,0-.23.26,3,3,0,0,0,4.21,4.2,2.68,2.68,0,0,0,.26-.23l.18-.19,0-.07,0-.07a3,3,0,0,0-4.19-4.19l-.07.06a.18.18,0,0,0-.07.05Z" fill="#e2e2e2"/><polygon points="65.17 42.51 65.22 43.12 69.4 47.29 70 47.34 69.96 46.73 65.78 42.55 65.17 42.51" fill="#c5c6cb"/><polygon points="69.83 46.86 65.66 42.67 65.17 42.51 65.78 42.55 69.96 46.74 70 47.34 69.83 46.86" opacity="0.2"/><path d="M69.29,42.45a4.41,4.41,0,0,0-2.63,1.25A4.34,4.34,0,0,0,65.39,47a.69.69,0,0,1-.13-.11,1.62,1.62,0,0,1-.18-.19l0-.07L65,46.6a3,3,0,0,1,4.23-4.22l.06,0Z" fill="#fff" opacity="0.3"/><path d="M37.74,53.18a4.12,4.12,0,0,1,.28-.31,2.4,2.4,0,0,1,.23-.21l.08-.07.08-.06a3.6,3.6,0,0,1,5,5l-.07.08-.06.08-.21.23-.31.28a3.6,3.6,0,0,1-5.06-5.06Z" opacity="0.2"/><path d="M38.15,53l.6,0,4.18,4.19,0,.6.2-.22.06-.07.06-.08a3.41,3.41,0,0,0-4.78-4.78l-.08.06-.08.06Z" fill="#d0d0d0"/><path d="M38.15,53a3.71,3.71,0,0,0-.27.29,3.42,3.42,0,0,0,4.8,4.8l.3-.26,0-.6L38.75,53Z" fill="#f1f1f1"/><path d="M38.45,53.3a3,3,0,0,0-.24.26,3,3,0,0,0,4.21,4.2l.26-.23.18-.19,0-.07L43,57.2A3,3,0,0,0,38.77,53a.18.18,0,0,1-.07.05l-.07.06Z" fill="#e2e2e2"/><polygon points="38.15 53 38.19 53.61 42.37 57.78 42.98 57.83 42.93 57.23 38.75 53.04 38.15 53" fill="#c5c6cb"/><polygon points="42.81 57.35 38.63 53.17 38.15 53 38.75 53.04 42.93 57.23 42.98 57.83 42.81 57.35" opacity="0.2"/><path d="M42.26,52.94a4.4,4.4,0,0,0-2.63,1.26,4.35,4.35,0,0,0-1.27,3.34l-.13-.12-.18-.19,0-.07-.06-.07a3,3,0,0,1,4.23-4.22l.07.05Z" fill="#fff" opacity="0.3"/><path d="M46.75,53.18a4.12,4.12,0,0,1,.28-.31l.22-.21.09-.07.08-.06a3.6,3.6,0,0,1,5,5l-.06.08-.06.08-.21.23-.32.28a3.6,3.6,0,0,1-5-5.06Z" opacity="0.2"/><path d="M47.15,53l.61,0,4.18,4.19.05.6.2-.22.06-.07.06-.08a3.41,3.41,0,0,0-4.78-4.78l-.08.06-.08.06Z" fill="#d0d0d0"/><path d="M47.15,53c-.09.09-.17.19-.26.29a3.42,3.42,0,0,0,4.8,4.8l.3-.26-.05-.6L47.76,53Z" fill="#f1f1f1"/><path d="M47.45,53.3a2.85,2.85,0,0,0-.23.26,3,3,0,0,0,4.21,4.2l.26-.23.18-.19.05-.07,0-.07A3,3,0,0,0,47.78,53l-.07.05-.07.06Z" fill="#e2e2e2"/><polygon points="47.16 53 47.2 53.61 51.38 57.78 51.98 57.83 51.94 57.23 47.76 53.04 47.16 53" fill="#c5c6cb"/><polygon points="51.82 57.35 47.64 53.17 47.16 53 47.76 53.04 51.94 57.23 51.98 57.83 51.82 57.35" opacity="0.2"/><path d="M51.27,52.94a4.37,4.37,0,0,0-2.63,1.26,4.32,4.32,0,0,0-1.27,3.34l-.13-.12-.18-.19L47,57.16,47,57.09a3,3,0,0,1,4.23-4.22l.06.05Z" fill="#fff" opacity="0.3"/><path d="M55.76,53.18l.27-.31.24-.21.08-.07.08-.06a3.6,3.6,0,0,1,5,5l-.06.08-.07.08a2.19,2.19,0,0,1-.21.23l-.31.28a3.6,3.6,0,0,1-5.05-5.06Z" opacity="0.2"/><path d="M56.16,53l.61,0L61,57.23l0,.6a2.18,2.18,0,0,0,.21-.22l.06-.07.06-.08a3.42,3.42,0,0,0-4.78-4.78l-.08.06-.08.06Z" fill="#d0d0d0"/><path d="M56.16,53a3.58,3.58,0,0,0-.26.29,3.42,3.42,0,0,0,4.8,4.8l.29-.26,0-.6L56.77,53Z" fill="#f1f1f1"/><path d="M56.46,53.3a2.85,2.85,0,0,0-.23.26,3,3,0,0,0,4.21,4.2l.26-.23a1.54,1.54,0,0,0,.17-.19l.06-.07,0-.07A3,3,0,0,0,56.79,53a.18.18,0,0,1-.07.05l-.07.06Z" fill="#e2e2e2"/><polygon points="56.16 53 56.21 53.61 60.39 57.78 60.99 57.83 60.95 57.23 56.77 53.04 56.16 53" fill="#c5c6cb"/><polygon points="60.83 57.35 56.65 53.17 56.16 53 56.77 53.04 60.95 57.23 60.99 57.83 60.83 57.35" opacity="0.2"/><path d="M60.28,52.94a4.37,4.37,0,0,0-3.9,4.6l-.13-.12-.18-.19,0-.07L56,57.09a3,3,0,0,1,4.23-4.22l.06.05Z" fill="#fff" opacity="0.3"/><path d="M64.77,53.18a2.61,2.61,0,0,1,.27-.31l.23-.21.09-.07.08-.06a3.6,3.6,0,0,1,5,5l-.06.08-.06.08-.22.23-.31.28a3.6,3.6,0,0,1-5-5.06Z" opacity="0.2"/><path d="M65.17,53l.61,0L70,57.23l0,.6.21-.22s0,0,.06-.07l.06-.08a3.42,3.42,0,0,0-4.78-4.78l-.08.06-.08.06Z" fill="#d0d0d0"/><path d="M65.17,53a3.58,3.58,0,0,0-.26.29,3.42,3.42,0,0,0,4.8,4.8l.29-.26,0-.6L65.78,53Z" fill="#f1f1f1"/><path d="M65.47,53.3a2.85,2.85,0,0,0-.23.26,3,3,0,0,0,4.21,4.2l.26-.23.18-.19,0-.07,0-.07A3,3,0,0,0,65.8,53l-.07.05-.07.06Z" fill="#e2e2e2"/><polygon points="65.17 53 65.22 53.61 69.4 57.78 70 57.83 69.96 57.23 65.78 53.04 65.17 53" fill="#c5c6cb"/><polygon points="69.83 57.35 65.66 53.17 65.17 53 65.78 53.04 69.96 57.23 70 57.83 69.83 57.35" opacity="0.2"/><path d="M69.29,52.94a4.37,4.37,0,0,0-2.63,1.26,4.32,4.32,0,0,0-1.27,3.34l-.13-.12-.18-.19,0-.07L65,57.09a3,3,0,0,1,4.23-4.22l.06.05Z" fill="#fff" opacity="0.3"/><path d="M30.28,62.18H6a3,3,0,0,1-3-3V15.89H33.26V59.2A3,3,0,0,1,30.28,62.18Z" fill="#ffa530"/><rect x="2.97" y="15.89" width="30.28" height="0.74" opacity="0.2"/><path d="M1.46,12.32V11.26c0-.58.5-1.06,1.6-1.06H33.17c1.1,0,1.6.48,1.6,1.06v1.06Z" fill="#d8d8d8"/><rect x="1.46" y="11.94" width="33.31" height="0.4" opacity="0.2"/><path d="M3.06,10.2V2a2,2,0,0,1,2-2H31.18a2,2,0,0,1,2,2V10.2Z" fill="#d8d8d8"/><rect x="6.51" y="26.77" width="23.21" height="24.52" fill="#e2e2e2"/><rect y="12.32" width="36.23" height="3.56" fill="#ffa530"/><rect x="2.17" y="12.32" width="7.92" height="3.56" fill="#fff" opacity="0.3"/><rect x="30.16" y="12.32" width="3.03" height="3.56" fill="#fff" opacity="0.3"/><path d="M12.33,15.89H5.21V59.2c0,1.64,1,3,2.26,3h4.86Z" fill="#fff" opacity="0.3"/><path d="M28.17,15.89h2.77V59.2c0,1.64-.39,3-.88,3H28.17Z" fill="#fff" opacity="0.3"/><path d="M27.21,39.54H25.93a5.93,5.93,0,0,0,.91-2.92v-.17a5,5,0,0,0-5-4.85l-.44,0a5,5,0,0,0-3.25,1.6,5,5,0,0,0-8.72,3.4,5.89,5.89,0,0,0,.9,2.92H9v.62H10.7c2.32,3.38,7,6.11,7.25,6.26a.39.39,0,0,0,.18,0,.38.38,0,0,0,.17,0c.26-.16,4.91-2.9,7.23-6.26h1.68ZM10.1,36.62a4.34,4.34,0,0,1,4.33-4.34A4.28,4.28,0,0,1,17.85,34a.37.37,0,0,0,.27.13h0a.33.33,0,0,0,.26-.13,4.38,4.38,0,0,1,3-1.66l.39,0a4.31,4.31,0,0,1,4.33,4.2.66.66,0,0,1,0,.14,5.53,5.53,0,0,1-1,2.92H18.5l-.71-2.82a.3.3,0,0,0-.29-.24h0a.31.31,0,0,0-.3.24l-.92,4.05L15,34.64a.31.31,0,0,0-.6,0L13,39.54H11.11A5.47,5.47,0,0,1,10.1,36.62Zm8,9.1a26.12,26.12,0,0,1-6.58-5.56H13.2a.31.31,0,0,0,.29-.22l1.18-4L16,42.3a.32.32,0,0,0,.3.25h0a.3.3,0,0,0,.3-.25l1-4.18.45,1.8a.31.31,0,0,0,.3.24h6.43A26.58,26.58,0,0,1,18.12,45.72Z" fill="#868a95"/><path d="M5.25,9.07a.48.48,0,0,1-.5-.46v-7a.5.5,0,0,1,1,0v7A.48.48,0,0,1,5.25,9.07Z" fill="#b1b1b1"/><path d="M7.82,9.07a.49.49,0,0,1-.5-.46v-7a.5.5,0,0,1,1,0v7A.49.49,0,0,1,7.82,9.07Z" fill="#b1b1b1"/><path d="M10.39,9.07a.48.48,0,0,1-.49-.46v-7a.5.5,0,0,1,1,0v7A.48.48,0,0,1,10.39,9.07Z" fill="#b1b1b1"/><path d="M13,9.07a.48.48,0,0,1-.5-.46v-7a.5.5,0,0,1,1,0v7A.48.48,0,0,1,13,9.07Z" fill="#b1b1b1"/><path d="M15.54,9.07a.48.48,0,0,1-.49-.46v-7a.5.5,0,0,1,1,0v7A.48.48,0,0,1,15.54,9.07Z" fill="#b1b1b1"/><path d="M18.11,9.07a.48.48,0,0,1-.49-.46v-7a.5.5,0,0,1,1,0v7A.48.48,0,0,1,18.11,9.07Z" fill="#b1b1b1"/><path d="M20.69,9.07a.48.48,0,0,1-.5-.46v-7a.5.5,0,0,1,1,0v7A.48.48,0,0,1,20.69,9.07Z" fill="#b1b1b1"/><path d="M23.26,9.07a.48.48,0,0,1-.49-.46v-7a.5.5,0,0,1,1,0v7A.48.48,0,0,1,23.26,9.07Z" fill="#b1b1b1"/><path d="M25.84,9.07a.48.48,0,0,1-.5-.46v-7a.5.5,0,0,1,1,0v7A.48.48,0,0,1,25.84,9.07Z" fill="#b1b1b1"/><path d="M28.41,9.07a.49.49,0,0,1-.5-.46v-7a.5.5,0,0,1,1,0v7A.49.49,0,0,1,28.41,9.07Z" fill="#b1b1b1"/><path d="M31,9.07a.48.48,0,0,1-.49-.46v-7a.5.5,0,0,1,1,0v7A.48.48,0,0,1,31,9.07Z" fill="#b1b1b1"/><path d="M10.36,10.2V2c0-1.1.62-2,1.39-2H6.25A1.89,1.89,0,0,0,4.49,2V10.2c-1,0-1.42.48-1.42,1.06v1.06H9.23V11.26A1,1,0,0,1,10.36,10.2Z" fill="#fff" opacity="0.3"/></g></g></svg>