<svg xmlns="http://www.w3.org/2000/svg" viewBox="0 0 73.74 66.04"><g id="Layer_2" data-name="Layer 2"><g id="Icons"><path d="M73.27,66H60.51a28,28,0,0,1,.1-4.85c.55-2.45-2.24-12.75-2.45-16.83-1.61,2.71-3.38,18.19-3.38,20.36,0,.23,0,.68.11,1.32h-36A13,13,0,0,0,19,64.72c0-2.17-1.77-17.65-3.38-20.36-.21,4.08-3,14.38-2.45,16.83A29.87,29.87,0,0,1,13.24,66H.46a33.75,33.75,0,0,1,1.67-8.78c.77-2.07.28-18.25.43-19.61C2.28,36.29,2,24.15,5.8,20.21c5.21-5.4,11.74-7,13.78-7.82s7.92-4.8,8.87-5.34,0-7,0-7H45.28s-1,6.51,0,7.05,6.85,4.52,8.89,5.34,8.56,2.42,13.77,7.82c3.8,3.94,3.52,16.08,3.25,17.44.13,1.36-.35,17.54.41,19.61A32.94,32.94,0,0,1,73.27,66Z" fill="#ffbea7"/><path d="M19.43,64.72c0,.21,0,.68-.1,1.32h-.94c.07-.64.1-1.14.1-1.32,0-1.8-1.3-13.48-2.66-18.36-.23,1.64-.62,3.64-1,5.73-.7,3.61-1.51,7.7-1.22,9a28.18,28.18,0,0,1,.13,5h-.94a24.9,24.9,0,0,0-.1-4.75c-.33-1.48.42-5.32,1.21-9.38a68.84,68.84,0,0,0,1.23-7.57.47.47,0,0,1,.87-.21C17.68,47,19.43,62.73,19.43,64.72Z" fill="#eba679"/><path d="M61.07,61.29A27.57,27.57,0,0,0,61,66H60a30.74,30.74,0,0,1,.12-5c.29-1.3-.52-5.4-1.22-9-.41-2.08-.79-4.08-1-5.71-1.36,4.87-2.67,16.56-2.67,18.36,0,.24.06.9.11,1.32h-.94c-.07-.65-.1-1.11-.1-1.32,0-2,1.75-17.75,3.46-20.59a.44.44,0,0,1,.51-.22.46.46,0,0,1,.35.43,68.61,68.61,0,0,0,1.23,7.55C60.65,56,61.4,59.81,61.07,61.29Z" fill="#eba679"/><path d="M73.74,66H72.8a33.62,33.62,0,0,0-1.63-8.62c-.53-1.41-.51-8.05-.44-15.3,0-2.17,0-4,0-4.43a.66.66,0,0,1,0-.14c.26-1.27.49-13.27-3.13-17C63.25,16,58,14.23,55.21,13.26c-.5-.17-.91-.31-1.22-.44a66,66,0,0,1-7.3-4.33c-.78-.5-1.4-.9-1.64-1-1-.58-.69-4.36-.24-7.46h.93c-.4,2.81-.58,6.23-.2,6.67.24.13.83.51,1.65,1A69.8,69.8,0,0,0,54.34,12c.3.12.69.25,1.17.42a30.8,30.8,0,0,1,12.77,7.51C72.21,24,71.94,36,71.66,37.67c0,.52,0,2.19,0,4.45,0,5.09-.13,13.61.38,15A34.21,34.21,0,0,1,73.74,66Z" fill="#eba679"/><path d="M28.68,7.46c-.24.13-.85.53-1.63,1a68.34,68.34,0,0,1-7.3,4.32c-.31.13-.72.27-1.21.44-2.81,1-8,2.76-12.4,7.28C2.52,24.28,2.75,36.28,3,37.55a.71.71,0,0,1,0,.15c0,.38,0,2.29,0,4.5.06,7.22.07,13.81-.45,15.22A33.62,33.62,0,0,0,.94,66H0A34.63,34.63,0,0,1,1.7,57.1c.5-1.36.43-9.83.38-14.89,0-2.31,0-4,0-4.54C1.8,36,1.53,24,5.47,19.89c4.5-4.67,9.88-6.52,12.77-7.51.47-.17.87-.3,1.17-.42a72,72,0,0,0,7.13-4.25c.83-.53,1.42-.91,1.68-1.06.36-.42.13-3.86-.25-6.65h1C29.38,3.1,29.69,6.88,28.68,7.46Z" fill="#eba679"/><path d="M70.7,66h-.06c-.17-.81-.29-1.63-.41-2.45-.21-1.55-.36-3.12-.47-4.68s-.2-3.13-.23-4.71a18.64,18.64,0,0,1,0-2.36,13.79,13.79,0,0,0-.1-2.31A30.21,30.21,0,0,0,68.62,45a5,5,0,0,0-.4-1c0-.09-.23-.26-.34-.43s-.25-.33-.36-.49a20.54,20.54,0,0,1-1.17-2.09c-.18-.36-.34-.72-.49-1.09s-.27-.74-.43-1.08a18,18,0,0,0-1.07-2,10.35,10.35,0,0,0-.64-.94c-.11-.15-.23-.29-.34-.43l-.19-.19L63.08,35a.89.89,0,0,1-.17-.24A1.84,1.84,0,0,1,62.8,34c0-.22.05-.42.08-.63.07-.41.17-.79.25-1.18A25.35,25.35,0,0,0,64,27.67a4.49,4.49,0,0,0-1.24-3.88,18.47,18.47,0,0,0-5-3.48,16.73,16.73,0,0,0-2.76-1,2.61,2.61,0,0,0-.27-.06A16,16,0,0,0,52.72,19a9.25,9.25,0,0,0-2.16,0A6.6,6.6,0,0,0,47,21a18.13,18.13,0,0,0-2.69,3.58c-.78,1.31-1.47,2.69-2.15,4.09L40.86,28l-.4-.19.2-.4a28.22,28.22,0,0,1,5.17-7.62,8.14,8.14,0,0,1,4.53-2.37,7.22,7.22,0,0,1,1.31,0c.39,0,.82.07,1.22.11l.13,0a16.08,16.08,0,0,1,2.27.48l.3.08A19,19,0,0,1,63.53,23l.22.23a1.79,1.79,0,0,1,.22.24,3.52,3.52,0,0,1,.39.56,5.18,5.18,0,0,1,.49,1.23A7.94,7.94,0,0,1,65,27.74a25.23,25.23,0,0,1-1,4.68c-.09.38-.19.75-.26,1.12a3.4,3.4,0,0,0-.08.53.92.92,0,0,0,0,.37h0c.05.06.24.24.32.35a5.85,5.85,0,0,1,.38.49c.24.33.45.67.66,1a19.48,19.48,0,0,1,1.06,2.15c.16.36.29.78.41,1.12s.29.71.46,1a15.84,15.84,0,0,0,1.08,2,5.46,5.46,0,0,0,.31.47c.11.17.21.24.37.5a5.79,5.79,0,0,1,.44,1.17,29.93,29.93,0,0,1,.75,4.69,14.51,14.51,0,0,1,0,2.38,18.09,18.09,0,0,0-.11,2.33c0,1.57,0,3.13.11,4.69s.19,3.13.36,4.69C70.45,64.4,70.55,65.22,70.7,66Z" fill="#d73f0e"/><path d="M41.1,27.7l-.24.29-.93,1.17a8.39,8.39,0,0,0-2-1l-.05,0c-.5-.21-1-.41-1.53-.66a3.18,3.18,0,0,1-.32-.16c-.19-.09-.39-.2-.58-.31a4.57,4.57,0,0,1-1-.75,3,3,0,0,1-.28-.33c-.29-.45-.46-.78-.68-1.16-.42-.72-.84-1.44-1.28-2.14a23.79,23.79,0,0,0-1.4-2A7.27,7.27,0,0,0,29.32,19a7,7,0,0,0-2.06-.76A15.53,15.53,0,0,0,24.89,18a16.32,16.32,0,0,0-3.76.21,14.92,14.92,0,0,0-5.46,2c-.22.14-.45.29-.67.45a10.39,10.39,0,0,0-2.65,2.84A15.06,15.06,0,0,0,10.57,28c-.19.81-.36,1.62-.53,2.45-.09.42-.18.84-.28,1.26l-.17.62c-.06.21-.11.41-.15.59a16.47,16.47,0,0,0,0,4.86c.09.84.19,1.68.24,2.55A8,8,0,0,1,9.45,43a9.59,9.59,0,0,0-.28,2.38c0,.83,0,1.68,0,2.52,0,1.68.09,3.39,0,5.1a13.29,13.29,0,0,1-.37,2.56,12.21,12.21,0,0,1-.43,1.21c-.13.39-.26.79-.37,1.19a33.85,33.85,0,0,0-.76,3.6,1.22,1.22,0,0,1,0,.17L7.08,62.9A27.46,27.46,0,0,0,6.85,66H6.76a30.32,30.32,0,0,1,.09-3.16q0-.51.09-1s0-.09,0-.13a28.42,28.42,0,0,1,.64-3.89c.1-.42.21-.83.34-1.24a12.38,12.38,0,0,0,.37-1.19A12.42,12.42,0,0,0,8.56,53c0-1.67-.08-3.35-.17-5-.05-.85-.1-1.69-.1-2.55a9.23,9.23,0,0,1,.25-2.64,7,7,0,0,0,.1-2.35c-.08-.82-.2-1.65-.3-2.49a18.68,18.68,0,0,1-.17-4.8l.06-.43c0-.24.1-.46.15-.65l.1-.45,0-.16c.09-.4.17-.81.25-1.22.16-.82.31-1.66.5-2.51a16.2,16.2,0,0,1,1.84-4.93,12,12,0,0,1,3.74-3.85,16.55,16.55,0,0,1,7.32-2.55A18.86,18.86,0,0,1,25,16.25a18.3,18.3,0,0,1,2.65.34,10.73,10.73,0,0,1,1.32.35,5.43,5.43,0,0,1,1.35.63l.22.15s0,0,0,0a10,10,0,0,1,1.77,1.8c.14.18.28.35.41.53.39.53.76,1.07,1.1,1.62.47.73.91,1.46,1.34,2.19.2.36.44.77.6,1a1.71,1.71,0,0,0,.36.34l.19.13.13.08a11.43,11.43,0,0,0,1.4.67l.77.31a13.48,13.48,0,0,1,2.06,1Z" fill="#d73f0e"/><path d="M9.41,32A8.18,8.18,0,0,0,6.83,35,13,13,0,0,0,6,36.75a6.21,6.21,0,0,0-.29,1.91,20.58,20.58,0,0,0,.51,4c.13.68.28,1.35.39,2a9.3,9.3,0,0,1,.13,1.06,3.36,3.36,0,0,1,0,.55c0,.09,0,.19,0,.28l-.05.25a14.54,14.54,0,0,0,.13,4A13.25,13.25,0,0,1,6.83,53a4,4,0,0,1-.61,2,25,25,0,0,0-2.31,3.42c-.33.6-.64,1.22-.91,1.85a6.22,6.22,0,0,0-.55,2,6.24,6.24,0,0,1,.49-2c.26-.65.55-1.27.87-1.89A25.71,25.71,0,0,1,6,54.89,3.69,3.69,0,0,0,6.54,53a12.54,12.54,0,0,0-.16-2,14.93,14.93,0,0,1-.24-4.18,4.83,4.83,0,0,0-.1-2c-.13-.67-.29-1.34-.44-2A21.11,21.11,0,0,1,5,38.66a6.82,6.82,0,0,1,.28-2.17,13.08,13.08,0,0,1,.88-1.94,9.17,9.17,0,0,1,2.76-3.29Z" fill="#d73f0e"/><path d="M35.74,25.11H33.88c0-1-.1-3.29-.22-6.19-.24-5.8-.58-14.14-.47-18.93h1.86c-.1,4.69.23,13.05.47,18.86C35.64,21.78,35.74,24.08,35.74,25.11Z" fill="#d73f0e"/><path d="M41.66,27.92l-1.86.19C39.45,24.71,38.2,7.09,38,0h1.86C40.06,7,41.31,24.54,41.66,27.92Z" fill="#d73f0e"/><path d="M39.26,33.19l-2.34-.84c.24-.65.41-1.24.55-1.76.47-1.65.91-3.2,3-3.57,3.1-.53,3.73,2.63,4.1,4.52L42.14,32c-.52-2.67-.82-2.62-1.23-2.55s-.58.15-1,1.8C39.71,31.83,39.53,32.46,39.26,33.19Z" fill="#d73f0e"/><rect x="38.15" y="43.44" width="1.87" height="22.6" fill="#d73f0e"/><polygon points="36.97 41.3 36.64 66.04 34.77 66.04 35.1 41.27 36.97 41.3" fill="#4f9ec9"/><path d="M36.36,28.92c.1-1.41-.1-3-.08-4.86a19.73,19.73,0,0,1,0-2.77,6.51,6.51,0,0,1,1.05-2.84c.21-.26.31-.35.46-.53l.4-.5.8-1c.53-.71,1.07-1.43,1.66-2.13a12.68,12.68,0,0,1,2-2,4.84,4.84,0,0,1,2.92-1.1,7.56,7.56,0,0,1,2.87.76,13.72,13.72,0,0,1,2.43,1.43A15.76,15.76,0,0,1,53,15.15a10.7,10.7,0,0,1,1,1.06c.16.2.31.43.42.6a4.85,4.85,0,0,0,.34.42c.54.6,1.23,1.15,1.9,1.8a7.44,7.44,0,0,1,1,1.13A2.6,2.6,0,0,1,58,21l.13.69a45.24,45.24,0,0,0,1.26,5.07,5.29,5.29,0,0,0,.21.6c.07.18.15.35.25.59a5.54,5.54,0,0,1,.37,1.48,7.72,7.72,0,0,1-.26,2.89A23.7,23.7,0,0,1,59,34.9c-.16.41-.32.81-.43,1.19a2.81,2.81,0,0,0-.09.5.37.37,0,0,0,0,.21,4.11,4.11,0,0,0,.95.62c.38.2.77.4,1.17.59.8.4,1.61.8,2.39,1.28A9.27,9.27,0,0,1,65.24,41a4.38,4.38,0,0,1,.8,1.25,5.82,5.82,0,0,1,.32,1.41,48.57,48.57,0,0,1,.24,5.37c0,1.78,0,3.56,0,5.33,0,.89,0,1.78,0,2.65s.21,1.75.36,2.62.33,1.75.53,2.61a13.13,13.13,0,0,0,.79,2.54,13.21,13.21,0,0,1-.91-2.51c-.25-.85-.46-1.72-.66-2.59s-.38-1.74-.49-2.63-.11-1.79-.14-2.68c0-1.78-.08-3.55-.15-5.33s-.17-3.54-.42-5.26a5.4,5.4,0,0,0-.3-1.17,3.27,3.27,0,0,0-.66-1,8.21,8.21,0,0,0-2-1.49c-.75-.43-1.54-.8-2.35-1.17L59,38.44a5.21,5.21,0,0,1-1.27-.82,1.46,1.46,0,0,1-.39-1,3.3,3.3,0,0,1,.11-.81,13.86,13.86,0,0,1,.43-1.33,23.41,23.41,0,0,0,.8-2.46,6.31,6.31,0,0,0,.18-2.39,4.2,4.2,0,0,0-.3-1.08c-.08-.18-.19-.41-.28-.64s-.17-.44-.24-.66A46.11,46.11,0,0,1,56.64,22l-.11-.61a1.23,1.23,0,0,0-.18-.37,5.4,5.4,0,0,0-.77-.87c-.61-.58-1.32-1.14-2-1.86a4.65,4.65,0,0,1-.49-.61c-.14-.2-.23-.34-.35-.5a11.68,11.68,0,0,0-.83-.92A16.88,16.88,0,0,0,50,14.58a13.13,13.13,0,0,0-2.16-1.27,6.35,6.35,0,0,0-2.25-.6,3.28,3.28,0,0,0-2,.78,12.2,12.2,0,0,0-1.76,1.76c-.55.66-1.07,1.36-1.6,2.08l-.82,1.07-.44.54c-.13.16-.35.39-.41.47a5.15,5.15,0,0,0-.74,2.14,19.07,19.07,0,0,0-.2,2.54c0,1.72.47,3,.25,4.73Z" fill="#4f9ec9"/><path d="M68.26,57.75c-1.46-1.37-3.46-2-4.88-3.48a5.69,5.69,0,0,1-.92-1.21,8.5,8.5,0,0,1-.59-1.4,27.24,27.24,0,0,1-.76-2.92l-.63-2.93a8.86,8.86,0,0,0-.95-2.72,8.55,8.55,0,0,1-1.12-2.88c-.23-1-.45-1.94-.71-2.9l.8-.2c.23,1,.42,2,.61,3a7.88,7.88,0,0,0,1,2.71,5.46,5.46,0,0,1,.59,1.45c.13.5.23,1,.33,1.49l.53,2.95a28.29,28.29,0,0,0,.65,2.9,6.1,6.1,0,0,0,1.37,2.57C64.85,55.62,66.84,56.33,68.26,57.75Z" fill="#4f9ec9"/><rect x="41.99" width="1.87" height="13.13" fill="#4f9ec9"/><path d="M32.28,17.29H30.41c0-2.3-.17-12.77-.25-17.29H32C32.1,4.53,32.28,15,32.28,17.29Z" fill="#4f9ec9"/><path d="M34,30.75A37.26,37.26,0,0,0,34.52,26a8,8,0,0,0-.27-2.21,8.57,8.57,0,0,0-.37-1.07l-.45-1.11A7.64,7.64,0,0,0,31,18a4.59,4.59,0,0,0-.93-.49l-.11-.05-.13,0-.22-.06-.53-.09a14.59,14.59,0,0,0-2.3-.07,23,23,0,0,0-4.67.69,14.39,14.39,0,0,0-4.26,1.78,5.44,5.44,0,0,0-1.54,1.52,7.57,7.57,0,0,0-1,2,3,3,0,0,0,.1,2,23.75,23.75,0,0,1,.78,2.38,5.05,5.05,0,0,1,.15,1.37,6.27,6.27,0,0,1-.21,1.33,18.93,18.93,0,0,1-.85,2.37c-.31.75-.62,1.49-.85,2.24a5.62,5.62,0,0,0-.15.55c-.05.19-.1.42-.16.62-.12.41-.26.8-.4,1.19-.56,1.55-1.19,3.05-1.79,4.56a41.1,41.1,0,0,0-1.59,4.56,6.67,6.67,0,0,0-.19,1.13,9.42,9.42,0,0,0,.06,1.18c.08.79.22,1.6.34,2.4A28.47,28.47,0,0,1,11,56a6.38,6.38,0,0,1-.51,2.44,6.08,6.08,0,0,1-1.43,2,9,9,0,0,1-4.35,2.17,8.93,8.93,0,0,0,4.19-2.33,5.91,5.91,0,0,0,1.66-4.32A28,28,0,0,0,10,51.15c-.15-.8-.3-1.61-.41-2.43a10.21,10.21,0,0,1-.1-1.26,7.46,7.46,0,0,1,.17-1.28,40.93,40.93,0,0,1,1.48-4.71c.55-1.53,1.14-3,1.66-4.58.13-.38.25-.76.35-1.13.05-.2.09-.36.13-.57s.1-.42.16-.63c.23-.82.53-1.59.82-2.35.56-1.52,1.18-3,.74-4.37a18.93,18.93,0,0,0-.79-2.24,5.21,5.21,0,0,1-.32-1.36A4.25,4.25,0,0,1,14,22.81a8.76,8.76,0,0,1,1.15-2.38A6.75,6.75,0,0,1,17,18.51a15.32,15.32,0,0,1,4.68-2.05,24.66,24.66,0,0,1,5-.81,14,14,0,0,1,2.58,0c.22,0,.44.06.67.11l.37.1.16.05.18.07a6.86,6.86,0,0,1,1.23.64,6.53,6.53,0,0,1,1.89,2A15.42,15.42,0,0,1,34.91,21l.47,1.15a9,9,0,0,1,.44,1.24,9.89,9.89,0,0,1,.3,2.63,37.91,37.91,0,0,1-.54,4.94Z" fill="#4f9ec9"/><path d="M13.91,36a6.19,6.19,0,0,1-1.24.5c-.42.13-.83.27-1.24.42A14,14,0,0,0,9.12,38a7.86,7.86,0,0,0-3.27,3.77A15.24,15.24,0,0,0,5,46.9a43.42,43.42,0,0,0,.21,5.34,41.39,41.39,0,0,1-.63-5.34,15.64,15.64,0,0,1,.59-5.42,8.73,8.73,0,0,1,3.4-4.4A14.94,14.94,0,0,1,11,35.73l1.28-.52a5.83,5.83,0,0,1,1.3-.36Z" fill="#4f9ec9"/><path d="M35.41,31.14a5.17,5.17,0,0,0-2.65.7,3.42,3.42,0,0,0-.52.4,2.18,2.18,0,0,0-.21.22l-.09.12-.1.15c-.28.41-.55.83-.8,1.26a23.53,23.53,0,0,0-1.39,2.62A8,8,0,0,0,29.17,38c-.1.48-.2,1-.29,1.47-.19,1-.35,2-.48,3a21.22,21.22,0,0,0-.23,3,7.56,7.56,0,0,0,.14,1.44c.14.46.3,1,.45,1.43A12.13,12.13,0,0,0,29.85,51a5.79,5.79,0,0,1-.81-1.3c-.22-.45-.42-.92-.61-1.39s-.38-.92-.57-1.42a5.55,5.55,0,0,1-.27-1.55,29.49,29.49,0,0,1,.46-6.1c.08-.51.16-1,.26-1.51a8.54,8.54,0,0,1,.49-1.53,20.83,20.83,0,0,1,1.41-2.74c.26-.45.53-.88.81-1.31l.11-.16.14-.18a2.35,2.35,0,0,1,.3-.33,4.09,4.09,0,0,1,.69-.51,6.06,6.06,0,0,1,3.15-.8Z" fill="#d73f0e"/><path d="M29.2,37a18.42,18.42,0,0,1-2.13.72,3.14,3.14,0,0,0-1.8,1.17,1.91,1.91,0,0,1,.61-1,3.84,3.84,0,0,1,1-.66A9.9,9.9,0,0,1,29,36.44Z" fill="#d73f0e"/><path d="M27.06,37.69c-.56-.3-1.24-.49-1.86-.83a4.39,4.39,0,0,1-1.53-1.37,4,4,0,0,0,1.66,1.08c.62.24,1.28.31,2,.55Z" fill="#d73f0e"/><path d="M32.61,31.83c-.68-.06-1.35,0-2.1-.17A1.57,1.57,0,0,1,29.44,31a1.29,1.29,0,0,1-.19-.63,2.45,2.45,0,0,1,.07-.56,19.86,19.86,0,0,0,.49-2,5.55,5.55,0,0,0,0-2,5.88,5.88,0,0,1,.28,2.05c0,.7-.19,1.39-.27,2s.21,1,.84,1.07,1.31,0,2-.07Z" fill="#d73f0e"/><path d="M29.42,30.29a10.74,10.74,0,0,1-2.6,0,6.61,6.61,0,0,1-2.41-.93,6.42,6.42,0,0,0,2.44.62,10.43,10.43,0,0,0,2.5-.34Z" fill="#d73f0e"/><path d="M27.56,30.22a5.52,5.52,0,0,0-.29-1.62,4.07,4.07,0,0,0-.88-1.42,4.11,4.11,0,0,1,1.16,1.29,6.25,6.25,0,0,1,.63,1.65Z" fill="#d73f0e"/><path d="M28.83,38.81c.21.75.54,1.53.77,2.32a6.35,6.35,0,0,1,.29,2.44,5.86,5.86,0,0,0-.59-2.33c-.31-.75-.72-1.44-1.05-2.23Z" fill="#d73f0e"/><path d="M28.53,40.59a5.17,5.17,0,0,1-1.41,1.06,8.11,8.11,0,0,1-1.58.66,6.12,6.12,0,0,1-1.7.24,3.77,3.77,0,0,1-1.65-.38,5.27,5.27,0,0,0,3.19-.34,10.07,10.07,0,0,0,1.43-.72,6.35,6.35,0,0,0,1.25-.93Z" fill="#d73f0e"/><path d="M26.64,41.88a6.2,6.2,0,0,0-.54.61,7.37,7.37,0,0,0-.47.67A3.88,3.88,0,0,0,25,44.7,4,4,0,0,1,25.34,43c.11-.27.23-.54.36-.79a7.09,7.09,0,0,1,.45-.75Z" fill="#d73f0e"/><path d="M28.09,43.41c-.83,1-1.65,1.9-2.44,2.88-.39.5-.76,1-1.14,1.5s-.74,1-1.07,1.57A5.87,5.87,0,0,1,24,47.5a12.25,12.25,0,0,1,1-1.66A16.11,16.11,0,0,1,27.65,43Z" fill="#d73f0e"/><path d="M24.67,47.47a5.67,5.67,0,0,1-.84.15,4.94,4.94,0,0,1-.86,0,4,4,0,0,1-1.59-.46,3.92,3.92,0,0,0,1.59.15,5,5,0,0,0,.77-.16,5.54,5.54,0,0,0,.73-.29Z" fill="#d73f0e"/><path d="M43.81,34.37A5.12,5.12,0,0,0,44.87,33a15.59,15.59,0,0,0,.77-1.71,15,15,0,0,0,.93-3.73,8.11,8.11,0,0,1-.19,4,8.34,8.34,0,0,1-.77,1.89,3.82,3.82,0,0,1-1.46,1.53Z" fill="#d73f0e"/><path d="M45.8,31.53a4.18,4.18,0,0,1,1.73-.61,4.12,4.12,0,0,1,1.78.1,3.13,3.13,0,0,1,1.48,1,4.21,4.21,0,0,1,.79,1.53,4,4,0,0,0-.91-1.43,2.79,2.79,0,0,0-1.44-.75,3.7,3.7,0,0,0-1.62.05,3.54,3.54,0,0,0-1.43.65Z" fill="#d73f0e"/><path d="M48,30.87a2.42,2.42,0,0,1,.73-.48c.24-.12.47-.22.7-.35a2.4,2.4,0,0,0,.61-.43.84.84,0,0,0,.27-.69.92.92,0,0,1-.15.78,2.47,2.47,0,0,1-.56.6l-.63.49a2.31,2.31,0,0,0-.5.48Z" fill="#d73f0e"/><path d="M44.7,34.68a12.29,12.29,0,0,1,3,.22c.49.09,1,.15,1.47.21a3.83,3.83,0,0,0,1.47-.06,3.14,3.14,0,0,1-1.47.4,13,13,0,0,1-1.53,0c-1,0-2-.13-3-.14Z" fill="#d73f0e"/><path d="M47.38,34.83a15.28,15.28,0,0,1,1,1.24,2.34,2.34,0,0,1,.42,1.52,2.23,2.23,0,0,0-.66-1.33c-.36-.35-.77-.66-1.18-1Z" fill="#d73f0e"/><path d="M46.53,40.67a8.65,8.65,0,0,0,2.21.13,4.23,4.23,0,0,0,2.07-.64c.57-.46,1.15-1,1.74-1.47a10.1,10.1,0,0,1,1.9-1.29,11,11,0,0,0-1.8,1.4c-.57.52-1.07,1.06-1.65,1.61a4.69,4.69,0,0,1-2.21.85,8.81,8.81,0,0,1-2.35,0Z" fill="#d73f0e"/><path d="M48.51,41.11a1.67,1.67,0,0,0,.25.52,1.9,1.9,0,0,1,.33,1.94,2.53,2.53,0,0,0-.26-1.21,2.38,2.38,0,0,0-.42-.42,2.14,2.14,0,0,1-.46-.57Z" fill="#d73f0e"/><path d="M45.84,45.3c.66.46,1.33.91,2,1.31A18.85,18.85,0,0,0,50,47.68c.75.32,1.49.64,2.26.89a3.64,3.64,0,0,0,2.37.13,3.62,3.62,0,0,1-2.41,0A23.36,23.36,0,0,1,49.91,48,18.76,18.76,0,0,1,47.64,47c-.74-.36-1.45-.78-2.14-1.2Z" fill="#d73f0e"/><path d="M44.9,45.31A13.12,13.12,0,0,1,46.62,47c.53.59,1,1.22,1.48,1.84a22,22,0,0,1,1.32,2,7.27,7.27,0,0,1,.89,2.2,11.45,11.45,0,0,0-1.27-2c-.46-.63-1-1.22-1.45-1.82s-1-1.18-1.52-1.78-1-1.18-1.55-1.67Z" fill="#d73f0e"/><path d="M49,50.1a15.62,15.62,0,0,0,1.63.94,6,6,0,0,0,1.78.62,6.11,6.11,0,0,1-1.89-.33,16.39,16.39,0,0,1-1.81-.68Z" fill="#d73f0e"/><path d="M63.49,34.58A13.91,13.91,0,0,1,62.68,37l-1,2.35a19.54,19.54,0,0,0-1.34,4.82,21.16,21.16,0,0,0,0,2.52c0,.84,0,1.69.1,2.53a15,15,0,0,0,1.21,4.88,15.25,15.25,0,0,1-1.37-4.87c-.09-.84-.13-1.69-.18-2.53s-.13-1.69-.07-2.55a20.46,20.46,0,0,1,1.22-5l.88-2.39a14.22,14.22,0,0,0,.71-2.37Z" fill="#d73f0e"/><path d="M67,40.88c-.81,2.74-1.72,5.43-2.27,8.21a14.75,14.75,0,0,0-.27,2.09,5.15,5.15,0,0,0,0,1,2.69,2.69,0,0,0,.39,1,8.42,8.42,0,0,0,1.3,1.67,7.56,7.56,0,0,0,.8.7,2.14,2.14,0,0,0,.94.47,2.16,2.16,0,0,1-1-.44,6.83,6.83,0,0,1-.83-.68,8.06,8.06,0,0,1-1.38-1.64,2.8,2.8,0,0,1-.45-1,5,5,0,0,1-.08-1.09A14,14,0,0,1,64.4,49c.45-2.82,1.27-5.57,2-8.31Z" fill="#d73f0e"/><path d="M9.1,32.4a2.21,2.21,0,0,1,1.18,1.15A13.26,13.26,0,0,1,11,35a14.49,14.49,0,0,1,.84,3,17.82,17.82,0,0,1-.27,6.19c-.18,1-.4,2-.52,3,0,.24,0,.49-.06.73a6.41,6.41,0,0,0,.07.73c.08.49.19,1,.31,1.47L12.07,53c.12.5.23,1,.31,1.49a6.53,6.53,0,0,1,.08.76,1.14,1.14,0,0,1-.15.73,1.14,1.14,0,0,0,.12-.73,6,6,0,0,0-.12-.74c-.1-.5-.23-1-.37-1.47l-.87-2.91c-.14-.49-.28-1-.38-1.48a4.89,4.89,0,0,1-.11-.78,6.77,6.77,0,0,1,0-.78c.06-1,.22-2,.34-3a15.88,15.88,0,0,0-.14-5.88,16.62,16.62,0,0,0-1-2.75,10.51,10.51,0,0,0-.63-1.31,4,4,0,0,1-.54-1.33Z" fill="#d73f0e"/><path d="M11.81,42.47a16.32,16.32,0,0,1,1,1.8,3.4,3.4,0,0,1,.27,1,2.08,2.08,0,0,1-.17,1,2.39,2.39,0,0,0-.38-1.91,15.28,15.28,0,0,0-1.28-1.61Z" fill="#d73f0e"/><path d="M60.88,45.74a4.86,4.86,0,0,1,1.34.62,13.47,13.47,0,0,1,1.16.82c.74.58,1.45,1.19,2.13,1.84A19.6,19.6,0,0,1,67.4,51.1a9.65,9.65,0,0,1,1.43,2.41,9.71,9.71,0,0,0-1.65-2.22,22.46,22.46,0,0,0-2-1.89c-.71-.59-1.44-1.14-2.2-1.66-.38-.25-.76-.51-1.15-.75a8.25,8.25,0,0,0-1.12-.65Z" fill="#4f9ec9"/><path d="M34.52,33.75a7.62,7.62,0,0,0-1.75,2.17,21.67,21.67,0,0,0-1.32,2.64A11.8,11.8,0,0,0,31,39.93a5.87,5.87,0,0,0-.14.68,2.84,2.84,0,0,0,0,.35c0,.16,0,.29-.05.43a18.73,18.73,0,0,1-.95,3A29.66,29.66,0,0,1,27,49.83,8.11,8.11,0,0,1,26,51L25,52.13l-1.06,1.1A5.16,5.16,0,0,0,23,54.42a5.42,5.42,0,0,1,.8-1.3c.31-.41.63-.8.95-1.19l1-1.18a9.38,9.38,0,0,0,.85-1.21A32.76,32.76,0,0,0,29,44.08a16.09,16.09,0,0,0,.79-2.84,2,2,0,0,0,0-.32c0-.1,0-.29,0-.42a5.27,5.27,0,0,1,.13-.81,14.69,14.69,0,0,1,.46-1.51,18.71,18.71,0,0,1,1.29-2.85,8.74,8.74,0,0,1,2-2.56Z" fill="#4f9ec9"/><path d="M30.07,43a6.93,6.93,0,0,1,.67,1.62,9.13,9.13,0,0,1,.31,1.72,5.92,5.92,0,0,1-.54,3.38,7.21,7.21,0,0,0,0-3.3,14.59,14.59,0,0,0-.45-1.6c-.16-.52-.35-1-.55-1.54Z" fill="#4f9ec9"/><path d="M32.35,34.93a7,7,0,0,1-2-1.5,8.41,8.41,0,0,1-1.53-1.95,3.73,3.73,0,0,1-.17-1.25c0-.4,0-.81-.05-1.21A5.63,5.63,0,0,0,28,26.71a6,6,0,0,1,.74,2.3c.06.4.09.81.12,1.21a3.28,3.28,0,0,0,.22,1.12,8.09,8.09,0,0,0,1.57,1.75,6.22,6.22,0,0,0,1.92,1.25Z" fill="#4f9ec9"/><path d="M28.89,31.67a7.83,7.83,0,0,0-1.4.19,11.65,11.65,0,0,0-1.4.39,13.1,13.1,0,0,0-1.35.54,9.85,9.85,0,0,0-1.3.72,3.08,3.08,0,0,1,1-1.18,5.91,5.91,0,0,1,1.38-.74,7.64,7.64,0,0,1,1.5-.45,4.67,4.67,0,0,1,1.59-.08Z" fill="#4f9ec9"/><path d="M30.5,33.38a20,20,0,0,1-2.86,1.31,9.73,9.73,0,0,1-1.52.41,3,3,0,0,1-1.55-.05,3.13,3.13,0,0,0,1.52-.1,8.27,8.27,0,0,0,1.43-.55,18.05,18.05,0,0,0,2.65-1.56Z" fill="#4f9ec9"/><path d="M28.4,46.86c-1.22.41-2.46.75-3.66,1.16a10,10,0,0,0-3.36,1.77,10.28,10.28,0,0,1,3.24-2.06c1.19-.51,2.39-.95,3.56-1.46Z" fill="#4f9ec9"/><path d="M30.66,40.39a10.61,10.61,0,0,1-3,1.13,5.24,5.24,0,0,1-1.64.12,3.61,3.61,0,0,1-.84-.18,3,3,0,0,1-.4-.2,2.74,2.74,0,0,1-.34-.25c-.8-.63-1.61-1.27-2.37-2a8.58,8.58,0,0,1-2-2.36,5.17,5.17,0,0,0,1,1.11c.38.33.78.64,1.19.94.82.6,1.66,1.16,2.52,1.72a3.06,3.06,0,0,0,2.63.23,11.8,11.8,0,0,0,2.71-1.11Z" fill="#4f9ec9"/><path d="M44.23,31.07c1.25-.47,2.52-.75,3.69-1.28a2.79,2.79,0,0,0,.79-.5,2.29,2.29,0,0,0,.26-.38l.21-.43a3.18,3.18,0,0,1,1.13-1.58,3,3,0,0,0-1,1.64,3.67,3.67,0,0,1-.45.91,3.23,3.23,0,0,1-.81.62c-1.17.64-2.45,1-3.6,1.57Z" fill="#4f9ec9"/><path d="M45.1,30.91c.18-1.15.33-2.31.54-3.47.1-.57.21-1.15.35-1.72a7,7,0,0,1,.58-1.66,7.11,7.11,0,0,0-.43,1.69c-.08.58-.14,1.16-.19,1.74-.11,1.16-.15,2.32-.23,3.49Z" fill="#4f9ec9"/><path d="M46,36.71c.41.15.79.34,1.19.53s.77.4,1.15.63a6.87,6.87,0,0,1,1.1.78,1.8,1.8,0,0,1,.7,1.15,2,2,0,0,0-.92-.83c-.38-.2-.77-.36-1.17-.53s-.8-.34-1.2-.53a9.35,9.35,0,0,1-1.14-.66Z" fill="#4f9ec9"/><path d="M48.13,37.87c.78-.23,1.56-.33,2.3-.53a3.32,3.32,0,0,0,2-1.15,2.38,2.38,0,0,1-.79.88,5.37,5.37,0,0,1-1.06.56c-.74.31-1.52.52-2.2.83Z" fill="#4f9ec9"/><path d="M47.53,42.89a9.16,9.16,0,0,1,1.51,2c.43.68.81,1.4,1.18,2.11s.69,1.45,1,2.2a9,9,0,0,1,.61,2.33,7,7,0,0,0-.42-1.11c-.16-.36-.34-.72-.53-1.07-.36-.7-.75-1.4-1.15-2.08s-.81-1.36-1.23-2c-.21-.34-.43-.67-.66-1a5.85,5.85,0,0,0-.69-.88Z" fill="#4f9ec9"/><path d="M49.56,45.83a5.15,5.15,0,0,0,2.66.7,11.25,11.25,0,0,0,2.89-.27,11.16,11.16,0,0,1-2.88.58,7.52,7.52,0,0,1-1.5,0,4.05,4.05,0,0,1-1.49-.44Z" fill="#4f9ec9"/><path d="M47.05,42.1c.61.07,1.19.12,1.79.14a15.45,15.45,0,0,0,1.8,0,9.63,9.63,0,0,0,1.77-.3,6.08,6.08,0,0,0,.85-.29,1.6,1.6,0,0,0,.72-.53,1.56,1.56,0,0,1-.68.59,6.35,6.35,0,0,1-.84.38,11.08,11.08,0,0,1-1.78.46c-.6.1-1.22.16-1.83.2s-1.24,0-1.85,0Z" fill="#4f9ec9"/><path d="M30.89,45.56a21.7,21.7,0,0,1,1.7,1.87,4.6,4.6,0,0,1,1,2.28,4.38,4.38,0,0,0-1.27-2.07A18.13,18.13,0,0,0,30.47,46Z" fill="#4f9ec9"/><path d="M24.2,40.7a5.9,5.9,0,0,0-1,0,5,5,0,0,0-1,.21,2.59,2.59,0,0,0-1.57,1.26,2.75,2.75,0,0,1,1.45-1.55,4.46,4.46,0,0,1,1-.37,6,6,0,0,1,1.1-.17Z" fill="#4f9ec9"/><path d="M24.85,32.74c-.24,0-.51,0-.76-.08a4.7,4.7,0,0,1-.74-.18,5,5,0,0,1-1.31-.7,4.63,4.63,0,0,0,1.38.4,4.1,4.1,0,0,0,.7,0l.7-.08Z" fill="#4f9ec9"/><path d="M36.46,32.48a13.12,13.12,0,0,0,1.63-2.69l1.7.21-.5,3Z" fill="#d73f0e"/><path d="M33.28,33c.16-.56,1-3.89,1-3.89l1.57-.21v.91c.33,0,.5-.91.5-.91l1.55-.1a16.72,16.72,0,0,1-1.22,2.73,10.2,10.2,0,0,0-.78,1.18l-1.77.53Z" fill="#4f9ec9"/><path d="M39.33,33.3c.61,0,3.23-.55,4.24-.17s3.79,4.85,4.28,7.76c.81,4.82-.3,6.13-4.22,5.45-7.32-1.26-10.26-4.83-10.93-8.42s.4-4.74.58-4.9a3.23,3.23,0,0,1,2.63-.29l-.07.67.7-1a3.29,3.29,0,0,1,2.58.37A.67.67,0,0,1,39.33,33.3Z" fill="#f74910"/><path d="M35.1,33.75c.07-.26.14-.51.21-.74a3.2,3.2,0,0,0-1.55.42c-.18.15-1.34,1.11-.63,4.54.5,2.43,2.28,4.85,6.19,6.41C35.11,40.7,34.28,36.92,35.1,33.75Z" fill="#fff" opacity="0.3"/><path d="M47.85,40.89c-.49-2.91-3.28-7.38-4.28-7.76A2.06,2.06,0,0,0,43,33a18.8,18.8,0,0,1,2.81,6.32c.86,5.15-.32,6.54-4.5,5.83A23.82,23.82,0,0,1,37.09,44a18,18,0,0,0,6.54,2.3C47.55,47,48.66,45.71,47.85,40.89Z" opacity="0.2"/><path d="M41.83,30.19a5.78,5.78,0,0,0-2.18,3.09c-.38.87,0,1.71,1.83,2,.8.13,1-.28,1-.46a6.72,6.72,0,0,1,.18-2.25c1-1.49.78.68.78.68s1.23,2,1.38,1.18c.12-.64,0-3.71-.5-4.25S42.43,29.82,41.83,30.19Z" fill="#4f9ec9"/></g></g></svg>