<svg xmlns="http://www.w3.org/2000/svg" viewBox="0 0 71.61 66.14"><g id="Layer_2" data-name="Layer 2"><g id="Icons"><path d="M68.33,66.14h-65A1.22,1.22,0,0,1,2,65V63.79H69.58V65A1.22,1.22,0,0,1,68.33,66.14Z" fill="#4d4e54"/><path d="M1.88,2.5H69.73a1.87,1.87,0,0,1,1.87,1.87V61.92a1.88,1.88,0,0,1-1.88,1.88H1.88A1.88,1.88,0,0,1,0,61.92V4.38A1.88,1.88,0,0,1,1.88,2.5Z" fill="#d5d4d9"/><path d="M66.06,62.15h-7a4.6,4.6,0,0,0-.58-2.25.94.94,0,0,0-.12-.22,4.78,4.78,0,0,0-.66-.84,5.28,5.28,0,0,0-.85-.68L56.66,58a4.7,4.7,0,0,0-5.58.79,4.63,4.63,0,0,0-1.37,3.32H5.55A.85.85,0,0,1,4.69,61l1.1-3.41a1.83,1.83,0,0,1,1.64-1.19H64.18a1.85,1.85,0,0,1,1.64,1.19L66.92,61A.85.85,0,0,1,66.06,62.15Z" fill="#7a7a7a"/><g opacity="0.3"><path d="M67.24,61.3l-1.11-3.41a1.62,1.62,0,0,0-.53-.75,1.49,1.49,0,0,1,.22.41L66.92,61a.85.85,0,0,1-.86,1.19h-7c0,.12,7.29.34,7.29.34A.86.86,0,0,0,67.24,61.3Z" fill="#fff"/><path d="M57.72,58.84a5.28,5.28,0,0,0-.85-.68L56.66,58a4.7,4.7,0,0,0-5.58.79,4.63,4.63,0,0,0-1.37,3.32H5.55A1.09,1.09,0,0,1,5,62a.9.9,0,0,0,.84.47H50a4.61,4.61,0,0,1,1.37-3.32,4.69,4.69,0,0,1,5.58-.8l.21.12a6.42,6.42,0,0,1,.78.62Z" fill="#fff"/></g><path d="M5.31,61.59l1.1-3.41A1.84,1.84,0,0,1,8.05,57H64.81a1.65,1.65,0,0,1,.87.27,1.83,1.83,0,0,0-1.5-.9H7.43a1.83,1.83,0,0,0-1.64,1.19L4.69,61a.83.83,0,0,0,.59,1.16A1,1,0,0,1,5.31,61.59Z" opacity="0.2"/><path d="M25.67,58.25H21.94a.67.67,0,0,0-.67.67v.68a.67.67,0,0,0,.67.67h3.73a.68.68,0,0,0,.68-.67v-.68A.68.68,0,0,0,25.67,58.25Z" fill="#f1f1f1"/><path d="M21.45,59.87v-.68a.67.67,0,0,1,.67-.67h3.74a.69.69,0,0,1,.44.17.68.68,0,0,0-.63-.44H21.94a.67.67,0,0,0-.67.67v.68a.66.66,0,0,0,.22.49A.78.78,0,0,1,21.45,59.87Z" fill="#fff" opacity="0.3"/><path d="M25.67,58.25H25.6a.67.67,0,0,1,.67.67v.67a.67.67,0,0,1-.68.68h.08a.68.68,0,0,0,.68-.67v-.68A.68.68,0,0,0,25.67,58.25Z" opacity="0.2"/><path d="M33.25,58.25H29.52a.67.67,0,0,0-.67.67v.68a.67.67,0,0,0,.67.67h3.73a.68.68,0,0,0,.68-.67v-.68A.68.68,0,0,0,33.25,58.25Z" fill="#f1f1f1"/><path d="M29,59.87v-.68a.67.67,0,0,1,.67-.67h3.74a.69.69,0,0,1,.44.17.67.67,0,0,0-.63-.44H29.52a.67.67,0,0,0-.67.67v.68a.64.64,0,0,0,.23.49A.54.54,0,0,1,29,59.87Z" fill="#fff" opacity="0.3"/><path d="M33.25,58.25h-.07a.67.67,0,0,1,.67.67v.67a.67.67,0,0,1-.67.68h.07a.68.68,0,0,0,.68-.67v-.68A.68.68,0,0,0,33.25,58.25Z" opacity="0.2"/><path d="M40.83,58.25H37.1a.67.67,0,0,0-.67.67v.68a.67.67,0,0,0,.67.67h3.73a.67.67,0,0,0,.68-.67v-.68A.67.67,0,0,0,40.83,58.25Z" fill="#f1f1f1"/><path d="M36.61,59.87v-.68a.67.67,0,0,1,.67-.67H41a.69.69,0,0,1,.44.17.68.68,0,0,0-.63-.44H37.1a.67.67,0,0,0-.67.67v.68a.64.64,0,0,0,.23.49A.54.54,0,0,1,36.61,59.87Z" fill="#fff" opacity="0.3"/><path d="M40.83,58.25h-.07a.67.67,0,0,1,.67.67v.67a.67.67,0,0,1-.67.68h.07a.67.67,0,0,0,.68-.67v-.68A.67.67,0,0,0,40.83,58.25Z" opacity="0.2"/><path d="M48.41,58.25H44.68a.67.67,0,0,0-.67.67v.68a.67.67,0,0,0,.67.67h3.73a.67.67,0,0,0,.68-.67v-.68A.67.67,0,0,0,48.41,58.25Z" fill="#f1f1f1"/><path d="M44.19,59.87v-.68a.67.67,0,0,1,.67-.67H48.6a.69.69,0,0,1,.44.17.67.67,0,0,0-.63-.44H44.68a.67.67,0,0,0-.67.67v.68a.64.64,0,0,0,.23.49A.54.54,0,0,1,44.19,59.87Z" fill="#fff" opacity="0.3"/><path d="M48.41,58.25h-.07a.67.67,0,0,1,.67.67v.67a.67.67,0,0,1-.67.68h.07a.67.67,0,0,0,.68-.67v-.68A.67.67,0,0,0,48.41,58.25Z" opacity="0.2"/><path d="M64.68,58.25H61a.67.67,0,0,0-.67.67v.68a.67.67,0,0,0,.67.67h3.73a.68.68,0,0,0,.68-.67v-.68A.68.68,0,0,0,64.68,58.25Z" fill="#f1f1f1"/><path d="M60.46,59.87v-.68a.67.67,0,0,1,.67-.67h3.74a.69.69,0,0,1,.44.17.68.68,0,0,0-.63-.44H61a.67.67,0,0,0-.67.67v.68a.66.66,0,0,0,.22.49A.78.78,0,0,1,60.46,59.87Z" fill="#fff" opacity="0.3"/><path d="M64.68,58.25h-.07a.67.67,0,0,1,.67.67v.67a.67.67,0,0,1-.67.68h.07a.68.68,0,0,0,.68-.67v-.68A.68.68,0,0,0,64.68,58.25Z" opacity="0.2"/><path d="M65.12,10.32V51.09A1.87,1.87,0,0,1,63.24,53H8.36a1.87,1.87,0,0,1-1.82-1.42,2.3,2.3,0,0,1,0-.45V10.32A1.87,1.87,0,0,1,8.36,8.44H63.24A1.88,1.88,0,0,1,65.12,10.32Z" fill="#f1f1f1"/><path d="M17.28,2.5,18,1.12A2.21,2.21,0,0,1,19.78,0H51.83a2.21,2.21,0,0,1,1.81,1.12l.69,1.38Z" fill="#4d4e54"/><path d="M1.25,5.63A1.88,1.88,0,0,1,3.13,3.75h15.4l.69-1.38A2.21,2.21,0,0,1,21,1.25S52.52,0,51.83,0h-32A2.21,2.21,0,0,0,18,1.12L17.28,2.5H1.87A1.88,1.88,0,0,0,0,4.38V61.92C0,62.76,1.25,5.63,1.25,5.63Z" fill="#fff" opacity="0.3"/><path d="M65.29,43.2c-1.46,0-2.17-1-2.86-2s-1.28-1.78-2.51-1.78-1.85.87-2.5,1.78-1.41,2-2.87,2-2.17-1-2.86-2-1.27-1.78-2.5-1.78-1.85.87-2.5,1.78-1.41,2-2.86,2-2.17-1-2.86-2-1.27-1.78-2.5-1.78-1.85.87-2.5,1.78-1.41,2-2.86,2-2.17-1-2.86-2-1.27-1.78-2.5-1.78-1.84.87-2.5,1.78-1.41,2-2.86,2-2.16-1-2.86-2-1.27-1.78-2.5-1.78-1.84.87-2.49,1.78-1.41,2-2.86,2-2.17-1-2.86-2-1.27-1.78-2.5-1.78V39c1.45,0,2.17,1,2.86,2s1.27,1.79,2.5,1.79,1.84-.87,2.5-1.79,1.4-2,2.85-2,2.17,1,2.86,2,1.27,1.79,2.5,1.79S24.24,41.9,24.9,41s1.4-2,2.85-2,2.17,1,2.86,2,1.27,1.79,2.5,1.79S35,41.9,35.61,41s1.41-2,2.86-2,2.17,1,2.86,2,1.28,1.79,2.5,1.79,1.85-.87,2.5-1.79,1.41-2,2.86-2,2.17,1,2.86,2,1.28,1.79,2.5,1.79S56.4,41.9,57.06,41s1.41-2,2.86-2,2.17,1,2.86,2,1.28,1.79,2.51,1.79Z" fill="#4f9ec9"/><path d="M15,36.32h-.39a5.47,5.47,0,0,1-1.79-.49,4.93,4.93,0,0,1-.9-.76A6.2,6.2,0,0,0,10.54,34L10,33.82a1.77,1.77,0,0,1-1.34-.9c0-.09-.08-.2-.12-.32a3.16,3.16,0,0,0-.21-.45.51.51,0,0,0-.11.16,6.79,6.79,0,0,0-.31,1.48c-.2,1.34-.36,2.23-.73,2.49a.19.19,0,0,1-.12,0H6.63v-.43H7a7.87,7.87,0,0,0,.51-2.16,6.38,6.38,0,0,1,.35-1.63c.11-.19.26-.43.53-.41s.45.4.58.76c0,.1.08.2.12.28.2.44.59.54,1.05.67a4.3,4.3,0,0,1,.58.18,6.12,6.12,0,0,1,1.48,1.18,5.73,5.73,0,0,0,.79.68,5,5,0,0,0,1.59.45H15Z" fill="#4f9ec9"/><path d="M23.3,36.32h-.39a5.35,5.35,0,0,1-1.78-.49,4.93,4.93,0,0,1-.9-.76A6.2,6.2,0,0,0,18.88,34c-.16-.06-.34-.11-.52-.16a1.75,1.75,0,0,1-1.33-.9,1.93,1.93,0,0,1-.13-.32,2.35,2.35,0,0,0-.21-.45.77.77,0,0,0-.11.16,7,7,0,0,0-.3,1.48c-.21,1.34-.37,2.23-.73,2.49a.22.22,0,0,1-.13,0H15v-.43h.36a7.52,7.52,0,0,0,.51-2.16,6.47,6.47,0,0,1,.36-1.64c.1-.18.26-.42.52-.4s.44.38.59.76c0,.1.07.2.11.28.2.44.6.54,1,.67a3.89,3.89,0,0,1,.58.18,5.94,5.94,0,0,1,1.48,1.18,5.15,5.15,0,0,0,.8.68,4.84,4.84,0,0,0,1.58.45h.39Z" fill="#4f9ec9"/><path d="M31.64,36.32h-.39a5.47,5.47,0,0,1-1.79-.49,4.93,4.93,0,0,1-.9-.76A6.2,6.2,0,0,0,27.21,34a5.36,5.36,0,0,0-.52-.16,1.75,1.75,0,0,1-1.33-.9l-.13-.32a3.18,3.18,0,0,0-.2-.45.49.49,0,0,0-.12.16,7.66,7.66,0,0,0-.3,1.48c-.2,1.34-.36,2.23-.73,2.49a.2.2,0,0,1-.13,0H23.3v-.43h.37a7.87,7.87,0,0,0,.51-2.16,6.61,6.61,0,0,1,.35-1.64c.11-.18.27-.42.53-.4s.44.38.58.76c0,.1.08.2.12.28.2.44.59.54,1,.67a4.3,4.3,0,0,1,.58.18,6.12,6.12,0,0,1,1.48,1.18,5.73,5.73,0,0,0,.79.68,5,5,0,0,0,1.59.45h.39Z" fill="#4f9ec9"/><path d="M40,36.32h-.39a5.35,5.35,0,0,1-1.78-.49,4.93,4.93,0,0,1-.9-.76A6.45,6.45,0,0,0,35.55,34c-.16-.06-.34-.11-.52-.16a1.74,1.74,0,0,1-1.33-.9,1.93,1.93,0,0,1-.13-.32,2.35,2.35,0,0,0-.21-.45.77.77,0,0,0-.11.16,7.47,7.47,0,0,0-.31,1.48c-.2,1.34-.36,2.23-.72,2.49a.2.2,0,0,1-.13,0h-.45v-.43H32a7.52,7.52,0,0,0,.51-2.16,6.47,6.47,0,0,1,.36-1.64c.1-.18.28-.41.52-.4s.44.38.59.76a1.82,1.82,0,0,0,.11.28c.21.44.6.54,1,.67a3.56,3.56,0,0,1,.58.18,6.12,6.12,0,0,1,1.48,1.18,5.73,5.73,0,0,0,.79.68,5,5,0,0,0,1.59.45H40Z" fill="#4f9ec9"/><path d="M48.3,36.32h-.38a5.47,5.47,0,0,1-1.79-.49,4.61,4.61,0,0,1-.89-.76A6.48,6.48,0,0,0,43.88,34a5.36,5.36,0,0,0-.52-.16,1.75,1.75,0,0,1-1.33-.9c0-.09-.09-.2-.13-.32a3.18,3.18,0,0,0-.2-.45.49.49,0,0,0-.12.16,7,7,0,0,0-.3,1.48c-.2,1.34-.36,2.23-.73,2.49a.2.2,0,0,1-.13,0H40v-.43h.37a7.57,7.57,0,0,0,.5-2.16,6.47,6.47,0,0,1,.36-1.64c.11-.18.26-.42.53-.4s.44.4.58.76l.11.28c.21.44.6.54,1.06.67a4.3,4.3,0,0,1,.58.18,6.32,6.32,0,0,1,1.48,1.18,5.73,5.73,0,0,0,.79.68,5,5,0,0,0,1.59.45h.38Z" fill="#4f9ec9"/><path d="M56.64,36.32h-.39a5.35,5.35,0,0,1-1.78-.49,4.93,4.93,0,0,1-.9-.76A6.45,6.45,0,0,0,52.22,34c-.16-.06-.34-.11-.52-.16a1.77,1.77,0,0,1-1.34-.9c0-.09-.08-.2-.12-.32a2.35,2.35,0,0,0-.21-.45.77.77,0,0,0-.11.16,7.47,7.47,0,0,0-.31,1.48c-.2,1.34-.36,2.23-.72,2.49a.22.22,0,0,1-.13,0H48.3v-.43h.37a7.87,7.87,0,0,0,.51-2.16,5.84,5.84,0,0,1,.36-1.63c.1-.19.25-.43.52-.41s.45.4.59.76a1.82,1.82,0,0,0,.11.28c.2.44.6.54,1.05.67a4.3,4.3,0,0,1,.58.18,6.12,6.12,0,0,1,1.48,1.18,5.73,5.73,0,0,0,.79.68,5,5,0,0,0,1.59.45h.39Z" fill="#4f9ec9"/><path d="M65,36.32h-.39a5.4,5.4,0,0,1-1.79-.49,4.93,4.93,0,0,1-.9-.76A6.2,6.2,0,0,0,60.55,34a5.36,5.36,0,0,0-.52-.16,1.75,1.75,0,0,1-1.33-.9l-.13-.32a3.18,3.18,0,0,0-.2-.45.49.49,0,0,0-.12.16,7,7,0,0,0-.3,1.48c-.2,1.34-.36,2.23-.73,2.49a.2.2,0,0,1-.13,0h-.45v-.43H57a7.87,7.87,0,0,0,.51-2.16,6.17,6.17,0,0,1,.35-1.64c.11-.18.26-.42.53-.4s.44.38.58.76l.11.28c.21.44.6.54,1.06.67a4.3,4.3,0,0,1,.58.18,6.32,6.32,0,0,1,1.48,1.18,5.19,5.19,0,0,0,.79.68,4.83,4.83,0,0,0,1.59.45H65Z" fill="#4f9ec9"/><path d="M14.63,59.26a.5.5,0,0,1-1,0,.5.5,0,1,1,1,0Z" fill="#f74910"/><path d="M14.41,58.85a.48.48,0,0,1,.12.32.5.5,0,0,1-.49.5.61.61,0,0,1-.27-.08.5.5,0,0,0,.86-.33A.48.48,0,0,0,14.41,58.85Z" opacity="0.2"/><path d="M16.91,59.26a.5.5,0,0,1-1,0,.5.5,0,1,1,1,0Z" fill="#5ab353"/><path d="M16.69,58.85a.48.48,0,0,1,.12.32.5.5,0,0,1-.49.5.57.57,0,0,1-.27-.08.5.5,0,0,0,.86-.33A.48.48,0,0,0,16.69,58.85Z" opacity="0.2"/><path d="M19,59.26a.5.5,0,0,1-1,0,.5.5,0,1,1,1,0Z" fill="#ffae01"/><path d="M18.8,58.85a.48.48,0,0,1,.12.32.5.5,0,0,1-.49.5.61.61,0,0,1-.27-.08.5.5,0,0,0,.86-.33A.48.48,0,0,0,18.8,58.85Z" opacity="0.2"/><path d="M11.46,59.26a1.79,1.79,0,1,1-1.79-1.79A1.78,1.78,0,0,1,11.46,59.26Z" fill="#f74910"/><path d="M9.67,57.71a1.78,1.78,0,0,1,1.78,1.67s0-.08,0-.12a1.79,1.79,0,0,0-3.58,0s0,.08,0,.12A1.78,1.78,0,0,1,9.67,57.71Z" fill="#fff" opacity="0.3"/><path d="M9.67,60.8a1.78,1.78,0,0,0,1.78-1.66s0,.08,0,.12a1.79,1.79,0,0,1-3.58,0s0-.08,0-.12A1.78,1.78,0,0,0,9.67,60.8Z" opacity="0.2"/><path d="M9.67,60.51a1.13,1.13,0,0,1-1.13-1.12A1.11,1.11,0,0,1,9,58.51a.14.14,0,0,1,.21,0,.15.15,0,0,1,0,.22.82.82,0,1,0,1,0,.16.16,0,0,1,0-.22.15.15,0,0,1,.22,0,1.11,1.11,0,0,1,.42.88A1.13,1.13,0,0,1,9.67,60.51Z" fill="#f0f0f0"/><path d="M9.67,59.49a.15.15,0,0,1-.15-.15V58.16A.15.15,0,0,1,9.67,58a.16.16,0,0,1,.15.16v1.18A.15.15,0,0,1,9.67,59.49Z" fill="#f0f0f0"/><path d="M9.63,30.87a.23.23,0,0,1-.22-.17c-.15-.75-.26-2.58-.34-4.05C9,26,9,25.31,9,24.9a2.85,2.85,0,0,1-1,.28A2,2,0,0,1,7.09,25h-.6v-.43h.74a2.24,2.24,0,0,0,.67.21,1.58,1.58,0,0,0,1-.38.26.26,0,0,1,.17-.12.24.24,0,0,1,.2.07c.09.11.11.26.23,2.31,0,.59.08,1.24.12,1.85a.34.34,0,0,0,0-.1c.16-1.41.33-3,.31-3.58a.22.22,0,0,1,.39-.15c.15.18.33.37.51.55a9.05,9.05,0,0,1,.76.87,4.15,4.15,0,0,0,.33-.52,3.35,3.35,0,0,1,.22-.34A4.05,4.05,0,0,1,15,24.26a2.37,2.37,0,0,1,.8.27h.46V25h-.51a.15.15,0,0,1-.09,0A2.5,2.5,0,0,0,15,24.7a3.79,3.79,0,0,0-2.49.78c-.07.09-.12.18-.19.29a5.23,5.23,0,0,1-.55.82.24.24,0,0,1-.19.07.22.22,0,0,1-.18-.11,6.26,6.26,0,0,0-.87-1.05l-.15-.16c0,.77-.18,2-.3,3.08-.1.93-.2,1.8-.22,2.25a.22.22,0,0,1-.21.2Z" fill="#4f9ec9"/><path d="M19.4,30.87a.23.23,0,0,1-.22-.17c-.14-.75-.26-2.58-.35-4.05,0-.64-.07-1.34-.11-1.75a2.85,2.85,0,0,1-1,.28,2,2,0,0,1-.86-.22h-.6v-.43H17a2.24,2.24,0,0,0,.67.21c.51-.07.94-.23,1-.38a.22.22,0,0,1,.16-.12.24.24,0,0,1,.2.07c.09.11.11.26.23,2.31,0,.59.08,1.24.12,1.85,0,0,0-.07,0-.1.15-1.41.32-3,.3-3.58a.22.22,0,0,1,.14-.21.2.2,0,0,1,.25.06c.15.18.33.37.51.55a11,11,0,0,1,.77.87,5.35,5.35,0,0,0,.32-.52,3.35,3.35,0,0,1,.22-.34,4,4,0,0,1,2.85-.95,2.5,2.5,0,0,1,.81.27H26V25h-.5a.16.16,0,0,1-.1,0,2.58,2.58,0,0,0-.66-.24,3.78,3.78,0,0,0-2.5.78c-.07.09-.12.18-.19.29a5.23,5.23,0,0,1-.55.82.24.24,0,0,1-.19.07.22.22,0,0,1-.18-.11,6.26,6.26,0,0,0-.87-1.05l-.15-.16c-.05.77-.18,2-.3,3.08-.1.93-.2,1.8-.22,2.25a.21.21,0,0,1-.21.2Z" fill="#4f9ec9"/><path d="M29.17,30.87A.21.21,0,0,1,29,30.7c-.15-.75-.26-2.58-.35-4.05,0-.64-.08-1.34-.12-1.75a2.8,2.8,0,0,1-1,.28,2.11,2.11,0,0,1-.86-.22H26v-.43h.74a2.24,2.24,0,0,0,.67.21c.51-.07.94-.23,1-.38a.22.22,0,0,1,.16-.12.24.24,0,0,1,.2.07c.09.11.11.26.23,2.31,0,.59.08,1.24.12,1.85a.34.34,0,0,0,0-.1c.16-1.41.33-3,.31-3.58a.22.22,0,0,1,.14-.21.2.2,0,0,1,.25.06c.16.18.33.37.51.55a11,11,0,0,1,.77.87,5.35,5.35,0,0,0,.32-.52,2.24,2.24,0,0,1,.23-.34,4,4,0,0,1,2.84-.95,2.42,2.42,0,0,1,.81.27h.45V25h-.5a.16.16,0,0,1-.1,0,2.46,2.46,0,0,0-.66-.24,3.8,3.8,0,0,0-2.5.78c-.07.09-.12.18-.19.29a4.59,4.59,0,0,1-.55.82.23.23,0,0,1-.19.07.19.19,0,0,1-.17-.11,7.44,7.44,0,0,0-.87-1.05l-.16-.16c-.05.77-.18,2-.3,3.08-.1.93-.2,1.8-.22,2.25a.21.21,0,0,1-.2.2Z" fill="#4f9ec9"/><path d="M38.94,30.87a.21.21,0,0,1-.21-.17c-.15-.75-.26-2.58-.35-4.05,0-.64-.08-1.34-.12-1.75a2.81,2.81,0,0,1-1,.28A2.11,2.11,0,0,1,36.4,25h-.6v-.43h.74a2.24,2.24,0,0,0,.67.21c.51-.07.94-.23,1-.38a.22.22,0,0,1,.17-.12.23.23,0,0,1,.19.07c.09.11.11.26.23,2.31,0,.59.08,1.24.12,1.85,0,0,0-.07,0-.1.15-1.41.32-3,.3-3.58a.22.22,0,0,1,.14-.21.2.2,0,0,1,.25.06c.16.18.33.37.51.55a11,11,0,0,1,.77.87,5.35,5.35,0,0,0,.32-.52,2.24,2.24,0,0,1,.23-.34,4,4,0,0,1,2.84-.95,2.42,2.42,0,0,1,.81.27h.45V25h-.5a.18.18,0,0,1-.1,0,2.46,2.46,0,0,0-.66-.24,3.81,3.81,0,0,0-2.5.78,2,2,0,0,0-.18.29,5.46,5.46,0,0,1-.56.82.23.23,0,0,1-.19.07.2.2,0,0,1-.17-.11,6.8,6.8,0,0,0-.87-1.05c-.06-.05-.11-.11-.16-.16,0,.77-.18,2-.3,3.08-.1.93-.2,1.8-.22,2.25a.21.21,0,0,1-.2.2Z" fill="#4f9ec9"/><path d="M48.71,30.87a.21.21,0,0,1-.21-.17c-.15-.75-.26-2.58-.35-4.05,0-.64-.08-1.34-.12-1.75a2.81,2.81,0,0,1-1,.28,2,2,0,0,1-.86-.22h-.61v-.43h.74a2.24,2.24,0,0,0,.67.21c.51-.07.94-.23,1-.38a.22.22,0,0,1,.17-.12.23.23,0,0,1,.19.07c.09.11.11.26.24,2.31,0,.59.07,1.24.11,1.85l0-.1c.15-1.41.32-3,.31-3.58a.2.2,0,0,1,.14-.21.19.19,0,0,1,.24.06l.51.55a11,11,0,0,1,.77.87,5.78,5.78,0,0,0,.33-.52,2.22,2.22,0,0,1,.22-.34,4,4,0,0,1,2.84-.95,2.42,2.42,0,0,1,.81.27h.46V25h-.51a.16.16,0,0,1-.1,0,2.46,2.46,0,0,0-.66-.24,3.78,3.78,0,0,0-2.5.78,2,2,0,0,0-.18.29,5.46,5.46,0,0,1-.56.82.23.23,0,0,1-.19.07.2.2,0,0,1-.17-.11,6.8,6.8,0,0,0-.87-1.05c-.06-.05-.11-.11-.16-.16-.05.77-.18,2-.3,3.08-.1.93-.19,1.8-.22,2.25a.21.21,0,0,1-.2.2Z" fill="#4f9ec9"/><path d="M58.48,30.87a.21.21,0,0,1-.21-.17c-.15-.75-.26-2.58-.35-4.05,0-.64-.08-1.34-.12-1.75a2.81,2.81,0,0,1-1,.28A2,2,0,0,1,56,25h-.6v-.43h.73a2.32,2.32,0,0,0,.67.21,1.59,1.59,0,0,0,1-.38.24.24,0,0,1,.17-.12.22.22,0,0,1,.19.07c.09.11.11.26.24,2.31,0,.59.07,1.24.12,1.85v-.1c.15-1.41.33-3,.31-3.58a.2.2,0,0,1,.14-.21.19.19,0,0,1,.24.06c.16.18.34.37.52.55s.56.6.76.87a5.78,5.78,0,0,0,.33-.52,1.66,1.66,0,0,1,.22-.34,4.05,4.05,0,0,1,2.85-.95,2.44,2.44,0,0,1,.8.27h.46V25h-.51a.18.18,0,0,1-.1,0,2.46,2.46,0,0,0-.66-.24,3.8,3.8,0,0,0-2.5.78,2,2,0,0,0-.18.29,5.46,5.46,0,0,1-.56.82.23.23,0,0,1-.19.07.2.2,0,0,1-.17-.11,6.8,6.8,0,0,0-.87-1.05l-.16-.16c0,.77-.18,2-.3,3.08-.1.93-.19,1.8-.22,2.25a.2.2,0,0,1-.2.2Z" fill="#4f9ec9"/><path d="M17.9,22.18c-.48,0-2.57-2.87-2.59-2.9A8.24,8.24,0,0,1,15,17c-.09-1.13-.24-2.85-.39-3.7-.24,1.31-.57,4.85-.8,8.07a.21.21,0,0,1-.2.2.23.23,0,0,1-.23-.16l-.48-2H10.34L9.55,20a.23.23,0,0,1-.28,0l-.69-.6H6.8V19H8.66a.3.3,0,0,1,.15.05l.61.54.71-.54a.19.19,0,0,1,.13-.05H13.1a.21.21,0,0,1,.21.17l.2.8c.57-7.54.9-7.54,1.13-7.54s.48.42.83,4.56c.07.92.16,2,.21,2.1a27.69,27.69,0,0,0,2.22,2.66,24,24,0,0,0,2.21-2.66.23.23,0,0,1,.18-.09h1v.44h-.9C18.3,22.18,18,22.18,17.9,22.18Z" fill="#4f9ec9"/><path d="M32.41,22.18c-.49,0-2.58-2.87-2.6-2.9A8.83,8.83,0,0,1,29.53,17c-.09-1.13-.24-2.85-.38-3.71-.24,1.32-.57,4.86-.81,8.08a.21.21,0,0,1-.19.2.21.21,0,0,1-.23-.16l-.49-2H24.84l-.79.61a.23.23,0,0,1-.28,0l-.69-.6H21.3V19h1.86a.25.25,0,0,1,.15.05l.61.54.71-.54a.21.21,0,0,1,.13-.05h2.85a.22.22,0,0,1,.21.17l.19.79c.57-7.53.91-7.53,1.13-7.53s.48.42.83,4.55c.08.92.16,2,.22,2.11a25,25,0,0,0,2.22,2.66,25.26,25.26,0,0,0,2.21-2.66.2.2,0,0,1,.17-.09h1v.44h-.9C32.8,22.18,32.52,22.18,32.41,22.18Z" fill="#4f9ec9"/><path d="M46.91,22.18c-.48,0-2.58-2.87-2.6-2.9A8.72,8.72,0,0,1,44,17c-.1-1.12-.24-2.84-.39-3.69-.24,1.31-.57,4.85-.8,8.07a.22.22,0,0,1-.2.2.21.21,0,0,1-.23-.16l-.49-2H39.34l-.79.61a.23.23,0,0,1-.28,0l-.69-.6H35.8V19h1.87a.24.24,0,0,1,.14.05l.62.54.7-.54a.24.24,0,0,1,.14-.05h2.84a.22.22,0,0,1,.21.17l.19.8c.58-7.54.91-7.54,1.13-7.54s.48.42.83,4.55c.08.92.17,2,.22,2.11a25.86,25.86,0,0,0,2.22,2.66,24,24,0,0,0,2.21-2.66.2.2,0,0,1,.17-.09h1v.44H49.4C47.31,22.18,47,22.18,46.91,22.18Z" fill="#4f9ec9"/><path d="M61.41,22.18c-.48,0-2.57-2.87-2.59-2.9a8.28,8.28,0,0,1-.28-2.3c-.1-1.12-.24-2.84-.39-3.69-.24,1.32-.57,4.85-.8,8.07a.22.22,0,0,1-.2.2.22.22,0,0,1-.23-.16l-.48-2h-2.6l-.79.61a.21.21,0,0,1-.27,0l-.69-.6H50.31V19h1.86a.24.24,0,0,1,.14.05l.62.54.7-.54a.24.24,0,0,1,.14-.05h2.84a.21.21,0,0,1,.21.17l.2.8c.57-7.54.9-7.54,1.13-7.54s.48.42.82,4.55c.08.92.17,2,.22,2.11a26.29,26.29,0,0,0,2.22,2.66,24,24,0,0,0,2.21-2.66A.21.21,0,0,1,63.8,19h1v.44h-.9C61.81,22.18,61.52,22.18,61.41,22.18Z" fill="#4f9ec9"/><path d="M63.24,8.44H9a2.51,2.51,0,0,0-2.5,2.5v40.6A1.87,1.87,0,0,0,8.36,53H9a1.26,1.26,0,0,1-1.25-1.25V10.94A1.26,1.26,0,0,1,9,9.69H63.93a1.26,1.26,0,0,1,1.19.88v-.25A1.88,1.88,0,0,0,63.24,8.44Z" opacity="0.2"/><path d="M63.24,53.59H8.36a2.51,2.51,0,0,1-2.5-2.5V10.32a2.51,2.51,0,0,1,2.5-2.5H63.24a2.51,2.51,0,0,1,2.51,2.5V51.09A2.51,2.51,0,0,1,63.24,53.59ZM8.36,9.07a1.26,1.26,0,0,0-1.25,1.25V51.09a1.26,1.26,0,0,0,1.25,1.25H63.24a1.26,1.26,0,0,0,1.26-1.25V10.32a1.26,1.26,0,0,0-1.26-1.25Z" fill="#4d4e54"/><rect x="2.03" y="63.79" width="67.54" height="0.76" opacity="0.2"/><path d="M56.72,64.48a3.27,3.27,0,0,1-3.91.55L52.66,65a3.29,3.29,0,0,1-.59-.47,2.64,2.64,0,0,1-.47-.6.67.67,0,0,1-.09-.14A3.29,3.29,0,0,1,56,59.27l.14.08a3.29,3.29,0,0,1,.59.47,3.83,3.83,0,0,1,.48.6.53.53,0,0,1,.08.15A3.27,3.27,0,0,1,56.72,64.48Z" fill="#4f9ec9"/><path d="M52.26,60a3.3,3.3,0,0,1,4.07-.47,2.81,2.81,0,0,1,.49.38l-.1-.11a3.29,3.29,0,0,0-5.12,4.06,2.44,2.44,0,0,0,.47.6.43.43,0,0,0,.1.09,2.93,2.93,0,0,1-.38-.49A3.29,3.29,0,0,1,52.26,60Z" fill="#fff" opacity="0.3"/><path d="M57.2,60.42,52.66,65a3.29,3.29,0,0,1-.59-.47,2.64,2.64,0,0,1-.47-.6l4.53-4.53a3.29,3.29,0,0,1,.59.47A3.83,3.83,0,0,1,57.2,60.42Z" fill="#2a79a1"/><path d="M57.18,60.4a14.13,14.13,0,0,0-4.53,4.54,2.73,2.73,0,0,1-.58-.46,2.44,2.44,0,0,1-.46-.58,14,14,0,0,0,4.53-4.54,3.08,3.08,0,0,1,.58.46A3.33,3.33,0,0,1,57.18,60.4Z" fill="#63b5e4"/><rect x="10.22" y="10.46" width="0.68" height="1.63" fill="#3b3c42"/><rect x="11.2" y="10.46" width="0.68" height="1.63" fill="#3b3c42"/><rect x="12.17" y="10.46" width="0.68" height="1.63" fill="#3b3c42"/><path d="M19.23,49.71V47.66H18.8a1.66,1.66,0,0,1-.63.23v.36h.48v1.46h-.56v.48h1.62v-.48Z" fill="#3b3c42"/><path d="M21.33,49.69a3.13,3.13,0,0,0-.42,0,2.33,2.33,0,0,0,.81-1.32.78.78,0,0,0-.84-.8A1.06,1.06,0,0,0,20,48l.32.31a.64.64,0,0,1,.44-.26.34.34,0,0,1,.36.38c0,.36-.45.79-1.1,1.4v.34h1.78v-.5Z" fill="#3b3c42"/><path d="M23.07,47.61c-.55,0-.91.45-.91,1.3s.36,1.32.91,1.32.9-.46.9-1.32S23.61,47.61,23.07,47.61Zm0,2.17c-.2,0-.35-.17-.35-.87s.15-.85.35-.85.35.16.35.85S23.26,49.78,23.07,49.78Z" fill="#3b3c42"/><path d="M28,48.87h0a.68.68,0,0,0,.33-.56.69.69,0,0,0-.76-.69.72.72,0,0,0-.81.7.74.74,0,0,0,.33.6h0a.72.72,0,0,0-.43.62c0,.41.38.7.89.7s.89-.31.89-.71A.73.73,0,0,0,28,48.87ZM27.54,48a.3.3,0,0,1,.31.33.62.62,0,0,1-.15.37c-.26-.1-.44-.2-.44-.41A.26.26,0,0,1,27.54,48Zm0,1.81a.35.35,0,0,1-.39-.36.54.54,0,0,1,.19-.39c.32.13.54.21.54.43A.3.3,0,0,1,27.55,49.83Z" fill="#3b3c42"/><path d="M29.64,47.61c-.54,0-.91.45-.91,1.3s.37,1.33.91,1.33.9-.47.9-1.33S30.18,47.61,29.64,47.61Zm0,2.17c-.2,0-.35-.18-.35-.87s.15-.84.35-.84.35.15.35.84S29.84,49.78,29.64,49.78Z" fill="#3b3c42"/><rect x="23.89" y="48.67" width="2.92" height="0.51" transform="translate(-29.74 48.15) rotate(-61.8)" fill="#3b3c42"/><path d="M15.29,47.52a.91.91,0,0,0-.73.36,1,1,0,0,0-.74-.36.93.93,0,0,0-.93.93c0,.93,1.67,1.88,1.67,1.88s1.66-1,1.66-1.88A.93.93,0,0,0,15.29,47.52Z" fill="#3b3c42"/><path d="M35.22,48.61h-.3v-.48l.33,0,.08-.58h.53v.58h.52v.51h-.52v.87c0,.24.11.34.28.34a.71.71,0,0,0,.21,0l.1.47a1.69,1.69,0,0,1-.48.08c-.54,0-.75-.34-.75-.85Z" fill="#3b3c42"/><path d="M38.62,49.55a.84.84,0,0,0,.59.27c.27,0,.44-.11.44-.32s-.14-.38-.73-.38v-.45c.49,0,.64-.15.64-.36s-.12-.3-.33-.3a.76.76,0,0,0-.51.24l-.32-.39a1.29,1.29,0,0,1,.86-.34c.56,0,.93.27.93.74a.63.63,0,0,1-.45.6v0a.68.68,0,0,1,.54.66c0,.51-.46.79-1,.79a1.16,1.16,0,0,1-.94-.38Z" fill="#3b3c42"/><path d="M42.22,48.22A.57.57,0,0,0,41.8,48c-.3,0-.54.21-.56.84a.76.76,0,0,1,1.35.55.87.87,0,0,1-.9.91c-.53,0-1-.39-1-1.34s.53-1.47,1.1-1.47a1.09,1.09,0,0,1,.79.32Zm-.2,1.2c0-.28-.15-.39-.36-.39a.49.49,0,0,0-.41.27c.06.43.24.56.42.56S42,49.73,42,49.42Z" fill="#3b3c42"/><path d="M43.38,49.54a.4.4,0,1,1-.38.4A.38.38,0,0,1,43.38,49.54Z" fill="#3b3c42"/><path d="M45.75,48.22a.57.57,0,0,0-.42-.19c-.3,0-.54.21-.56.84a.77.77,0,0,1,.54-.29.75.75,0,0,1,.81.84.87.87,0,0,1-.9.91c-.53,0-1-.39-1-1.34s.52-1.47,1.09-1.47a1.09,1.09,0,0,1,.79.32Zm-.2,1.2c0-.28-.15-.39-.36-.39a.48.48,0,0,0-.4.27c.05.43.23.56.42.56S45.55,49.73,45.55,49.42Z" fill="#3b3c42"/><path d="M55.66,48.58a.77.77,0,0,0-.55.29c0-.64.26-.84.56-.84a.61.61,0,0,1,.43.19l.32-.38a1.09,1.09,0,0,0-.79-.32c-.57,0-1.09.45-1.09,1.46s.5,1.35,1,1.35a.87.87,0,0,0,.9-.91A.75.75,0,0,0,55.66,48.58Zm-.11,1.28c-.19,0-.37-.14-.43-.56a.5.5,0,0,1,.42-.27c.2,0,.35.11.35.39S55.74,49.86,55.55,49.86Z" fill="#3b3c42"/><path d="M57.74,47.52c-.58,0-1,.47-1,1.39s.38,1.42,1,1.42,1-.49,1-1.42S58.32,47.52,57.74,47.52Zm0,2.33c-.2,0-.37-.2-.37-.94s.17-.91.37-.91.38.17.38.91S58,49.85,57.74,49.85Z" fill="#3b3c42"/><path d="M50.5,47.5h1c.62,0,1.12.23,1.12.92s-.51,1-1.12,1h-.39v1H50.5Zm1,1.37c.36,0,.53-.16.53-.45S51.85,48,51.5,48h-.35v.86Z" fill="#3b3c42"/><rect x="17.24" y="10.91" width="1.74" height="0.73" fill="#3b3c42"/><path d="M17.52,11.27l.34-.78,0,0-.91.51-.95.29.95.3.91.51h0Z" fill="#3b3c42"/><rect x="19.35" y="10.91" width="1.74" height="0.73" fill="#3b3c42"/><path d="M20.81,11.27l-.34-.78,0,0,.91.51,1,.29-1,.3-.91.51h0Z" fill="#3b3c42"/></g></g></svg>