<svg xmlns="http://www.w3.org/2000/svg" viewBox="0 0 42.35 69.48"><g id="Layer_2" data-name="Layer 2"><g id="Icons"><rect x="3.15" y="68.22" width="9.06" height="1.27" fill="#74b8d5"/><polygon points="9.42 19.3 9.42 18.25 5.94 18.25 5.94 19.3 3.56 20.07 3.56 53.05 11.81 53.05 11.81 20.07 9.42 19.3" fill="#d5d4d9"/><polygon points="3.96 37.09 3.96 20.35 6.35 19.57 6.35 18.25 9.02 18.25 9.02 19.57 11.4 20.35 11.4 37.09 3.96 37.09" fill="#63b5e4"/><rect x="4.32" y="42.05" width="6.73" height="26.17" fill="#b2e3f8"/><rect x="6.73" y="42.05" width="1.91" height="26.17" fill="#86c7e4"/><rect y="53.05" width="15.36" height="1.27" fill="#74b8d5"/><path d="M7.26,13V1.65L7.68,0,8.1,1.65V13C8,13.78,7.32,13.78,7.26,13Z" fill="#a1a0a8"/><polygon points="6.04 13.7 7.68 12.03 9.32 13.7 9.32 18.25 6.04 18.25 6.04 13.7" fill="#7a7a7a"/><polygon points="7.68 12.03 6.4 13.7 6.4 18.25 7.21 18.25 7.21 13.7 7.68 12.03" fill="#fff" opacity="0.3"/><rect x="3.68" y="37.09" width="8" height="1.65" fill="#474747"/><rect x="3.68" y="40.4" width="8" height="1.65" fill="#474747"/><rect x="4.41" y="38.74" width="6.55" height="1.65" fill="#7a7a7a"/><polygon points="6.04 20.69 6.8 19.91 6.8 18.25 5.94 18.25 5.94 19.3 4.37 20.08 4.37 53.04 6.04 53.05 6.04 20.69" fill="#fff" opacity="0.5"/><rect x="5.44" y="18.05" width="4.49" height="0.39" fill="#7a7a7a"/><rect x="3.55" y="37.09" width="8.25" height="15.96" fill="#d5d4d9" opacity="0.3"/><path d="M25.89,50.25c-.36-1-1.67-2.51-1.67-3.54s1-2.14,1-2.86-.91-6.07-1-7.25S24,34,22.2,34s-1.91,1.45-2,2.63-1,6.52-1,7.25,1,1.9,1,2.86-1.3,2.54-1.67,3.54,0,15.49,0,16.94,1.79,2.29,3.7,2.29,3.69-.84,3.69-2.29S26.26,51.24,25.89,50.25Z" fill="#b2e3f8"/><path d="M25.42,64.82c0,1.2,0,2.07,0,2.37,0,1.16-1.65,1.78-3.19,1.78S19,68.35,19,67.19c0-.3,0-1.17,0-2.37-.06-3.52-.23-12.59,0-14.21h6.51C25.66,52.23,25.49,61.3,25.42,64.82Z" fill="#f7d458"/><path d="M20.16,67.19c0-1.45-.25-15.95,0-16.94s1.17-2.51,1.17-3.54-.68-2.14-.68-2.86.64-6.07.7-7.25.13-2.43,1.18-2.6a2.3,2.3,0,0,0-.26,0c-1.5,0-1.57,1.45-1.65,2.63s-.82,6.52-.82,7.25.8,1.9.8,2.86-1.08,2.54-1.38,3.54,0,15.49,0,16.94,1.48,2.29,3.05,2.29h.32A2.36,2.36,0,0,1,20.16,67.19Z" fill="#fff" opacity="0.3"/><path d="M25.27,49.65c0,.88-1.55,1.4-3.2,1.4s-1.64.68,0,.68,3.2-.52,3.2-1.4Z" fill="#fff" opacity="0.3"/><path d="M42.17,66.65c0,2.14-1.91,2.83-6.47,2.83s-6.48-.69-6.48-2.83c0-.85-.42-15.56,0-16.74.21-.58,1.89-2.13,2.13-2.65a3.94,3.94,0,0,0,.21-1c0-.19,0-.4.05-.59,0-.61,0-1.13,0-1.13h8.12s0,.53,0,1.13a5.63,5.63,0,0,0,0,.59,3.94,3.94,0,0,0,.21,1c.24.52,1.92,2.07,2.13,2.65C42.58,51.09,42.17,65.8,42.17,66.65Z" fill="#b2e3f8"/><path d="M41.69,65.13c0,.82,0,1.37,0,1.52,0,1.47-1,2.33-6,2.33s-6-.86-6-2.33c0-.15,0-.7,0-1.52-.2-9.36-.2-14.43,0-15a5.34,5.34,0,0,1,.75-.95h10.5a4.53,4.53,0,0,1,.75.95C41.9,50.71,41.9,55.77,41.69,65.13Z" fill="#63b5e4"/><path d="M35.69,50.54c-3.26,0-4,.86,0,.86S41.4,51,41.4,49.64v-.13C40.75,50.27,39,50.54,35.69,50.54Z" fill="#fff" opacity="0.3"/><path d="M32.24,66.65c0-.85-.28-15.56,0-16.73.15-.59,1.33-2.14,1.49-2.66a14.63,14.63,0,0,0,.2-2.75H32.35a12.49,12.49,0,0,1-.24,2.75c-.2.52-1.63,2.07-1.8,2.66-.35,1.17,0,15.88,0,16.73,0,2.14,1.61,2.83,5.48,2.83h.54C33.46,69.41,32.24,68.69,32.24,66.65Z" fill="#fff" opacity="0.3"/><path d="M40.53,45.64H30.86a.71.71,0,0,1-.7-.72V43.83H41.22v1.09A.7.7,0,0,1,40.53,45.64Z" fill="#868a95"/><path d="M41.4,43.83H30a.71.71,0,0,1-.7-.72v-1.5a.71.71,0,0,1,.7-.72H41.4a.71.71,0,0,1,.7.72v1.5A.71.71,0,0,1,41.4,43.83Z" fill="#5c6cbf"/><path d="M33.57,44.92V43.83h-.11c-.25,0-.45-.32-.45-.72v-1.5c0-.4.2-.72.45-.72H31.32a.66.66,0,0,0-.58.72v1.5a.66.66,0,0,0,.58.72h.14v1.09a.66.66,0,0,0,.58.72h2C33.78,45.64,33.57,45.32,33.57,44.92Z" fill="#fff" opacity="0.3"/><path d="M39.83,46.23H31.56c0-.19,0-.4.05-.59h8.17A5.63,5.63,0,0,0,39.83,46.23Z" opacity="0.2"/></g></g></svg>