<svg xmlns="http://www.w3.org/2000/svg" viewBox="0 0 66.4 56.24"><g id="Layer_2" data-name="Layer 2"><g id="Icons"><path d="M66.4,18.54c0,18.34-33.2,37.7-33.2,37.7S0,37.09,0,18.54A18.55,18.55,0,0,1,33.2,7.18a18.58,18.58,0,0,1,13-7.11C46.75,0,47.3,0,47.84,0A18.56,18.56,0,0,1,66.39,17.92C66.4,18.13,66.4,18.33,66.4,18.54Z" fill="#f74910"/><path d="M48.7,25h0a8.44,8.44,0,0,0-.83-.61l-.14-.07A8.12,8.12,0,0,1,48.7,25Z" opacity="0.2"/><path d="M41.14,38.13a8,8,0,0,1-1.34-.59c.12.08.23.19.36.27a9.48,9.48,0,0,0,1,.48Z" opacity="0.2"/><path d="M38.35,36.52l-4,1.06.24.41,4.25-1.13C38.67,36.74,38.49,36.65,38.35,36.52Z" opacity="0.2"/><path d="M33.34,35.58l1.23,2.13,4.28-1.14a8.56,8.56,0,0,0,1.31,1,7.52,7.52,0,0,0,1.48.66l1.17,4.28h2.45l1.16-4.28a7.27,7.27,0,0,0,1.48-.66,7.68,7.68,0,0,0,1.31-1l4.29,1.14,1.23-2.13L51.6,32.43a7.71,7.71,0,0,0,0-3.22l3.13-3.15L53.5,23.94l-4.29,1.13a7.68,7.68,0,0,0-1.31-.95,7.86,7.86,0,0,0-1.48-.66l-1.16-4.28H42.81l-1.17,4.28a8.15,8.15,0,0,0-1.48.66,8.56,8.56,0,0,0-1.31.95l-4.28-1.13-1.23,2.12,3.12,3.15a8.18,8.18,0,0,0,0,3.22Zm5.55-4.76a5.14,5.14,0,1,1,2.57,4.46A5.13,5.13,0,0,1,38.89,30.82Z" fill="#c23a0d"/><path d="M11,24.59a11.3,11.3,0,0,0,.79,1.55A16.33,16.33,0,0,0,9.6,30.26,14.37,14.37,0,0,0,11.3,32a16.66,16.66,0,0,0,4.12-2.17,12.54,12.54,0,0,0,1.55.79,12.23,12.23,0,0,0,1.65.54A16.94,16.94,0,0,0,20,35.57a14.92,14.92,0,0,0,2.41,0,16.54,16.54,0,0,0,1.37-4.45A11.12,11.12,0,0,0,27,29.79,16.33,16.33,0,0,0,31.11,32a14.37,14.37,0,0,0,1.7-1.7,16.66,16.66,0,0,0-2.17-4.12,13.29,13.29,0,0,0,.79-1.55A13.82,13.82,0,0,0,32,22.94a16.94,16.94,0,0,0,4.45-1.38,13.85,13.85,0,0,0,0-2.41A16.71,16.71,0,0,0,32,17.77a10.92,10.92,0,0,0-.53-1.65,11.3,11.3,0,0,0-.79-1.55,16.66,16.66,0,0,0,2.17-4.12,15.16,15.16,0,0,0-1.7-1.7A16.33,16.33,0,0,0,27,10.92a13.29,13.29,0,0,0-1.55-.79,11.92,11.92,0,0,0-1.66-.54A16.22,16.22,0,0,0,22.4,5.14a14.79,14.79,0,0,0-2.4,0A16.89,16.89,0,0,0,18.62,9.6a10.92,10.92,0,0,0-1.65.53,11.3,11.3,0,0,0-1.55.79A16.33,16.33,0,0,0,11.3,8.75a13.65,13.65,0,0,0-1.7,1.7,16.33,16.33,0,0,0,2.17,4.12A12.54,12.54,0,0,0,11,16.12a12.23,12.23,0,0,0-.54,1.65A16.94,16.94,0,0,0,6,19.15a14.92,14.92,0,0,0,0,2.41,16.82,16.82,0,0,0,4.45,1.38A12.23,12.23,0,0,0,11,24.59Zm3.6-1.49A7.17,7.17,0,1,1,18.46,27,7.16,7.16,0,0,1,14.58,23.1Z" fill="#c23a0d"/><path d="M23.28,9.25c.16,0,.31.11.47.16A16.28,16.28,0,0,0,22.4,5.14H22A16.63,16.63,0,0,1,23.28,9.25Z" opacity="0.2"/><path d="M45.92,23.13l.46.17-1.12-4.12h-.42Z" opacity="0.2"/><path d="M17,26.13a7.16,7.16,0,0,1,7-12.4,6,6,0,0,1,1,.52,7.06,7.06,0,0,0-1.48-.86A7.16,7.16,0,0,0,17,26.13Z" opacity="0.2"/><path d="M40.89,34.9a5.14,5.14,0,0,1,5.71-8.53l.07,0a5.25,5.25,0,0,0-.58-.38,5.14,5.14,0,0,0-5.2,8.87Z" opacity="0.2"/><path d="M32.3,10.11a16.33,16.33,0,0,1-2.17,4.12,11.9,11.9,0,0,1,.79,1.55,12.23,12.23,0,0,1,.54,1.65l.42.09a12.7,12.7,0,0,0-.45-1.4,11.3,11.3,0,0,0-.79-1.55,16.66,16.66,0,0,0,2.17-4.12,15.16,15.16,0,0,0-1.7-1.7l-.09,0A16,16,0,0,1,32.3,10.11Z" opacity="0.2"/><path d="M51.77,30.82a7.93,7.93,0,0,0-.17-1.61l3.13-3.15L53.5,23.94l-.27.07,1,1.72-3.13,3.15a7.16,7.16,0,0,1,.17,1.61,7.28,7.28,0,0,1-.17,1.61l3.13,3.15L53,37.37,48.7,36.23a8.11,8.11,0,0,1-2.78,1.62l-1.17,4.28h-2l.09.33h2.45l1.16-4.28a7.27,7.27,0,0,0,1.48-.66,7.68,7.68,0,0,0,1.31-1l4.29,1.14,1.23-2.13L51.6,32.43A7.86,7.86,0,0,0,51.77,30.82Z" opacity="0.2"/><path d="M31.43,24.59A13.82,13.82,0,0,0,32,22.94a16.94,16.94,0,0,0,4.45-1.38,13.85,13.85,0,0,0,0-2.41c-.16-.08-.33-.14-.5-.21a13.35,13.35,0,0,1,0,2.28,16.94,16.94,0,0,1-4.45,1.38,12.23,12.23,0,0,1-.54,1.65,11.87,11.87,0,0,1-.79,1.55,16.33,16.33,0,0,1,2.17,4.12,13.65,13.65,0,0,1-1.7,1.7,16.33,16.33,0,0,1-4.12-2.17,11.3,11.3,0,0,1-1.55.79,12.23,12.23,0,0,1-1.65.54,16.46,16.46,0,0,1-1.38,4.45,15.43,15.43,0,0,1-2,0l.14.33a14.92,14.92,0,0,0,2.41,0,16.54,16.54,0,0,0,1.37-4.45A11.12,11.12,0,0,0,27,29.79,16.33,16.33,0,0,0,31.11,32a14.37,14.37,0,0,0,1.7-1.7,16.66,16.66,0,0,0-2.17-4.12A13.29,13.29,0,0,0,31.43,24.59Z" opacity="0.2"/><path d="M9.94,22.6A16.47,16.47,0,0,1,6,21.44v.12a16.44,16.44,0,0,0,4,1.29C10,22.77,10,22.68,9.94,22.6Z" opacity="0.2"/><path d="M18.11,30.78a12.23,12.23,0,0,1-1.65-.54,11.9,11.9,0,0,1-1.55-.79,16.29,16.29,0,0,1-4,2.13c.14.13.27.26.42.38a16.66,16.66,0,0,0,4.12-2.17,12.54,12.54,0,0,0,1.55.79,9.55,9.55,0,0,0,1.18.38C18.14,30.9,18.12,30.84,18.11,30.78Z" opacity="0.2"/><path d="M18.84,9.42a18.1,18.1,0,0,1,14.36,7A18.21,18.21,0,0,1,46,9.49c.52,0,1.06-.07,1.6-.07A18.17,18.17,0,0,1,62.84,17.8,16.6,16.6,0,0,0,46.3,2.46c-.49,0-1,0-1.46.07A16.56,16.56,0,0,0,33.2,8.89,16.58,16.58,0,0,0,3.56,17.8,18.14,18.14,0,0,1,18.84,9.42Z" fill="#fff" opacity="0.3"/></g></g></svg>