<svg xmlns="http://www.w3.org/2000/svg" viewBox="0 0 45.79 64.07"><g id="Layer_2" data-name="Layer 2"><g id="Icons"><path d="M29.8,12C27.94,10.9,16.41,3.12,16.41,3.12a44.58,44.58,0,0,0-2.73,5.52,58.06,58.06,0,0,1,9.48,5.21c1.74,1.29,4.59,2.57,5.52,3.5l4.4-3.26C31.89,13.37,30.8,12.61,29.8,12Z" fill="#4f9ec9"/><path d="M19.23,20.26c.35-1.75,4.86-12.84,10.2-13.77,0,0,3.49,6.25,3.92,6.87a7.71,7.71,0,0,0-4.85,2.38,6.24,6.24,0,0,0-.93,3.84c.12.62-2.73,3.17-2.73,3.17l-4.35.64Z" fill="#f74910"/><path d="M28.52,14.31a4.93,4.93,0,0,0-.82.83,7.25,7.25,0,0,0-1.14,4.39,16.61,16.61,0,0,1-2.17,2.28L20.7,22.88l-.44-2.7a34.48,34.48,0,0,1,4.33-8.57,2,2,0,0,1,3.4-.12C28.81,12.68,29,13.9,28.52,14.31Z" fill="#ffac85"/><path d="M28,11.49a1.91,1.91,0,0,0-1.8-.87,2,2,0,0,1,1.44.87c.82,1.19,1,2.41.53,2.82a4.93,4.93,0,0,0-.82.83,7.25,7.25,0,0,0-1.14,4.39A16.61,16.61,0,0,1,24,21.81l-2.93.43,0,.05,3.27-.48a16.61,16.61,0,0,0,2.17-2.28,7.25,7.25,0,0,1,1.14-4.39,4.93,4.93,0,0,1,.82-.83C29,13.9,28.81,12.68,28,11.49Z" fill="#f74910" opacity="0.3"/><path d="M20.84,20.62a33.85,33.85,0,0,1,4.32-8.57,2,2,0,0,1,2.6-.82,2,2,0,0,0-3.17.38,34.48,34.48,0,0,0-4.33,8.57v2.19Z" fill="#d73f0e"/><path d="M12,15.34c1.76-3.89,7.36-13,9.49-15.19,2,1.24,5.35,4.05,6.4,4.67-3.47,2.92-8.6,11.72-8.69,15.44C18.45,19.77,12,15.34,12,15.34Z" fill="#63b5e4"/><path d="M22.93,9.33a33.12,33.12,0,0,0-4.44,9.23c-1.4-.94-3.61-2.46-5.2-3.56,1.08-2.19,3-5.55,4.89-8.49a3.05,3.05,0,0,1,4.06-1A2.66,2.66,0,0,1,22.93,9.33Z" fill="#a4d8ee"/><path d="M22.84,6a2.79,2.79,0,0,1-.15,3,33.12,33.12,0,0,0-4.44,9.23c-1.32-.88-3.34-2.28-4.9-3.36l-.06.11c1.59,1.1,3.8,2.62,5.2,3.56a33.12,33.12,0,0,1,4.44-9.23A2.74,2.74,0,0,0,22.84,6Z" fill="#fff" opacity="0.3"/><path d="M18.68,7a3,3,0,0,1,4.06-1,2.23,2.23,0,0,1,.24.19,2.46,2.46,0,0,0-.74-.69,3.05,3.05,0,0,0-4.06,1c-1.86,2.94-3.81,6.3-4.89,8.49l.56.38C14.94,13.19,16.84,9.9,18.68,7Z" fill="#4f9ec9"/><path d="M27.92,4.82c-.41.59-2.2,0-4-1.24S21,.82,21.44.23s2.2,0,4,1.24S28.33,4.24,27.92,4.82Z" fill="#4f9ec9"/><path d="M33.35,13.36c-.62.37-2-.86-3.16-2.73s-1.55-3.71-.94-4.07,2,.85,3.16,2.73S34,13,33.35,13.36Z" fill="#d73f0e"/><path d="M16.22,61.05c0-.11-.94-3.69-.71-5a6.27,6.27,0,0,1,2.18-3.3c.54-.33.45-4.16.45-4.16L15.64,45l-3.15,1.2c-1,1.46-6.06,12.33-3.1,16.86h0A4.14,4.14,0,0,0,13.3,64C15.44,63.49,16.37,61.75,16.22,61.05Z" fill="#d73f0e"/><path d="M7.73,54.89c-.09-4.54,3.17-14.18,5.91-16.71C12.75,37.92,5.2,36,5.2,36,3.45,39.84.31,49.86,0,53H0v0s0,.07,0,.09H0c0,.68,1.53,1.58,3.55,2.07S7.56,55.58,7.73,54.89Z" fill="#63b5e4"/><path d="M32.74,23.64c6,2.06,5.67,11.29,3.47,14.19,1.54,2.36-.48,8-3.93,14.86-5.75,11.47-10.57,11-18.49,4.21C-2.18,43.2.4,31.52,4.78,23c3.63-7.07,7.78-7.92,8.39-8,2.06-.19,4.74,2.23,5.42,3.35s1.24,3.81,2.4,4.26c1.69.67,6.58-3.06,6.58-3.06Z" fill="#ffac85"/><path d="M15.56,6.13C14.81,7.66,14,8.78,13.68,8.64s.1-1.49.85-3S16.12,3,16.41,3.12,16.31,4.61,15.56,6.13Z" fill="#4f9ec9"/><path d="M45.69,21.46C45.27,22.64,43,27,43,27c-1.18-1.52-2.68-3.14-4.79-3.59s-2.86-1.72-9,3.18l-.58-.63-3.73-4-.67-.72C25.42,20.46,28,18.56,29,18c.16-.1-.07-.39-.3-.62l4.41-3.26a19.8,19.8,0,0,0,3.36,1.65,24.06,24.06,0,0,1,6.45,3.72C44.26,20.51,45.69,21.46,45.69,21.46Z" fill="#4f9ec9"/><path d="M38.38,22.42c-.26-.06-.52-.14-.78-.22a6.43,6.43,0,0,0-2-.38c-1.74,0-4.12,1.91-7,4.12l-3.73-4c1.79-1.14,4.27-3.06,5.08-3.71,2.15-1.74,4.12-2.31,6.18-1.56,2.59.93,4.36,1.72,5.64,3.16C42.74,21,40.24,22.81,38.38,22.42Z" fill="#a4d8ee"/><path d="M44.85,24.48C44.1,26,43.26,27.12,43,27s.1-1.49.85-3,1.59-2.65,1.88-2.51S45.6,23,44.85,24.48Z" fill="#2a79a1"/><path d="M37.62,28.46a7.78,7.78,0,0,0-3.91-5,9.26,9.26,0,0,0-1.11.62,6.66,6.66,0,0,1,4.07,4.63A12.83,12.83,0,0,1,37,34.37a64.5,64.5,0,0,1-5.6,6.38l.36,1.18a18.14,18.14,0,0,1,3-1.91c-.12,1.82-2.54,9.59-5.58,13.07s-4.28,1.31-4.9-1.73a103.72,103.72,0,0,1-1.11-14.45c0-1.1.59-2.19,1.25-2.11a5.43,5.43,0,0,1,1.17.3,5.12,5.12,0,0,0,0-1,5.37,5.37,0,0,1-1-.36c-.54-.27-.44-1.41.22-2.28,1-1.28,2.22-2.71,3-3.6,0,0,.16.75.36,1.67a3.84,3.84,0,0,1-.45,2.74l-.8,1.07.36.76.85-.65c.46-.36.91.24,1,1.33A28.79,28.79,0,0,1,28.93,40c.25.16,1.19,0,1.19,0s0-10.13-1-13.45v0L28.6,26l0,0V23.74h-1s-.07.37-.2.89A10.2,10.2,0,0,1,26,28.07c-.68.86-3.53,4-4.65,6.72s.68,15.94.55,19.11-2,2.6-4.89,1.67c-2.37-.76-7.28-4.5-10.14-8.06A20.32,20.32,0,0,1,3.68,26.63a1.3,1.3,0,0,1,2.25-.5c2.24,2.36,2.4,4.54,2.15,7.17a4.79,4.79,0,0,1,1.05,0c1-3.87.22-7.11-2.05-9.39A2.44,2.44,0,0,1,6.56,21c3.33-5.05,6.62-5.43,6.65-5.43h.2c1.74,0,4.1,2.05,4.76,3.12a8.7,8.7,0,0,1,.49,1.1A6.32,6.32,0,0,1,17.51,25c-1.3,1.62-2.84,3.32-3.47,4a18.64,18.64,0,0,0-2.42,4.71l.93.37a28,28,0,0,1,2.23-4c1.12-1.18,6.21-6,7.7-6.51A15,15,0,0,1,26,23.09c.75,0,1.29,0,1.29,0l.32-.68a12.31,12.31,0,0,1-2.66-.44l-.74-.72a6.84,6.84,0,0,1-2.7,1,.85.85,0,0,1-.3-.05c-.58-.23-1.09-1.56-1.48-2.53A9.69,9.69,0,0,0,19,18.13c-.77-1.28-3.6-3.78-5.88-3.6-.2,0-4.82.53-8.79,8.25-4.09,8-7.59,20.16,9.12,34.5,4,3.45,6.87,4.93,9.48,4.93,3.54,0,6.56-2.87,9.79-9.29,4-8,5.27-12.7,4.07-15.06C38,35.94,38.67,32,37.62,28.46Z" fill="#f74910"/><path d="M18.17,18.64a8.7,8.7,0,0,1,.49,1.1A6.32,6.32,0,0,1,17.51,25c-1.3,1.62-2.84,3.32-3.47,4a18.64,18.64,0,0,0-2.42,4.71l.93.37.07-.14L12,33.73A18.8,18.8,0,0,1,14.47,29c.62-.72,2.17-2.42,3.47-4a6.31,6.31,0,0,0,1.14-5.24,8.85,8.85,0,0,0-.48-1.1c-.66-1.07-3-3.12-4.77-3.12h-.27C15.29,15.65,17.53,17.6,18.17,18.64Z" fill="#fff" opacity="0.3"/><path d="M5.13,25.7a1.38,1.38,0,0,1,.8.43c2.24,2.36,2.4,4.54,2.15,7.17l.43,0c.24-2.62.08-4.79-2.16-7.14A1.27,1.27,0,0,0,5.13,25.7Z" opacity="0.2"/><path d="M26.75,54.84c.72.11,1.64-.36,2.86-1.75,3-3.48,5.46-11.25,5.58-13.07a2.32,2.32,0,0,0-.45.2c-.25,2.1-2.61,9.5-5.56,12.87A4.6,4.6,0,0,1,26.75,54.84Z" opacity="0.2"/><path d="M26.38,28.07a10.41,10.41,0,0,0,1.42-3.44c.13-.52.2-.89.2-.89h-.43s-.07.37-.2.89A10.2,10.2,0,0,1,26,28.07c-.68.86-3.53,4-4.65,6.72s.68,15.94.55,19.11c-.06,1.7-.63,2.32-1.6,2.39,1.22.08,2-.45,2-2.39.13-3.17-1.67-16.44-.56-19.11S25.7,28.93,26.38,28.07Z" fill="#fff" opacity="0.3"/><path d="M31.36,40.75l.36,1.18.35-.26-.29-.92a65.49,65.49,0,0,0,5.61-6.38,12.69,12.69,0,0,0-.3-5.62A6.64,6.64,0,0,0,33,24.12a8.57,8.57,0,0,1,.89-.51l-.2-.11a9.26,9.26,0,0,0-1.11.62,6.66,6.66,0,0,1,4.07,4.63A12.83,12.83,0,0,1,37,34.37,64.5,64.5,0,0,1,31.36,40.75Z" fill="#fff" opacity="0.3"/><path d="M13.89,57.28C-2.82,42.94.68,30.73,4.77,22.78c4-7.72,8.58-8.23,8.78-8.25h-.42c-.2,0-4.82.53-8.79,8.25-4.09,8-7.59,20.16,9.12,34.5,4,3.45,6.87,4.93,9.48,4.93h.24C20.63,62.13,17.84,60.65,13.89,57.28Z" opacity="0.2"/><path d="M31.87,23.47l-3.3,2.47v-2.2h-1A12.79,12.79,0,0,1,26,28.07c-.68.86-3.53,4-4.65,6.72s.68,15.94.55,19.11-2,2.6-4.89,1.67c-2.37-.76-7.28-4.5-10.14-8.06A20.32,20.32,0,0,1,3.68,26.63a1.3,1.3,0,0,1,2.25-.5c2.24,2.36,2.4,4.54,2.15,7.17a4.79,4.79,0,0,1,1.05,0c1-3.87.22-7.11-2.05-9.39A2.44,2.44,0,0,1,6.56,21c3.33-5.05,6.62-5.43,6.65-5.43h.2c1.74,0,4.1,2.05,4.76,3.12a8.7,8.7,0,0,1,.49,1.1A6.32,6.32,0,0,1,17.51,25c-1.3,1.62-2.84,3.32-3.47,4a18.64,18.64,0,0,0-2.42,4.71l.93.37a28,28,0,0,1,2.23-4c1.12-1.18,6.21-6,7.7-6.51a21.21,21.21,0,0,1,4.77-.5l.32-.68a12.31,12.31,0,0,1-2.66-.44,31.59,31.59,0,0,0,2.65-1.74Z" fill="#a4d8ee"/><path d="M30,18.58c2.14-1.74,4.11-2.3,6.17-1.56,2.59.93,4.36,1.72,5.64,3.16a.66.66,0,0,1,.12.17.8.8,0,0,0-.22-.52c-1.28-1.44-3.05-2.23-5.64-3.16-2.06-.75-4-.18-6.18,1.56-.81.65-3.29,2.57-5.08,3.71l.24.26C26.86,21.05,29.23,19.22,30,18.58Z" fill="#2a79a1"/><path d="M41.74,19.83v0c.51,1.13-1.78,2.73-3.51,2.36-.27-.06-.53-.14-.78-.22a6.49,6.49,0,0,0-2-.38c-1.74,0-3.95,1.78-6.84,4v.37c2.89-2.21,5.27-4.12,7-4.12a6.43,6.43,0,0,1,2,.38c.26.08.52.16.78.22C40.24,22.81,42.74,21,41.74,19.83Z" fill="#fff" opacity="0.3"/></g></g></svg>