<svg xmlns="http://www.w3.org/2000/svg" viewBox="0 0 76.83 67.57"><g id="Layer_2" data-name="Layer 2"><g id="Icons"><path d="M68.33,25.81H64.55a2,2,0,0,1-2-2V11.29h7.76V23.82A2,2,0,0,1,68.33,25.81Z" fill="#a4d8ee"/><path d="M71.31,8.06c0,1.1-2.18,2-4.87,2s-4.87-.88-4.87-2,2.18-2,4.87-2S71.31,7,71.31,8.06Z" fill="#a4d8ee"/><rect x="60.9" y="60.41" width="1.66" height="3.93" fill="#4d4e54"/><rect x="25.07" y="44.35" width="10.42" height="8.27" fill="#63b5e4"/><path d="M40.29,52.62a69.1,69.1,0,0,1-10,1,69.1,69.1,0,0,1-10-1,36.45,36.45,0,0,1,10-2A36.45,36.45,0,0,1,40.29,52.62Z" fill="#63b5e4"/><path d="M44.51,44.35a43.56,43.56,0,0,1-14.23,2.48,43.56,43.56,0,0,1-14.23-2.48,43.56,43.56,0,0,1,14.23-2.48A43.56,43.56,0,0,1,44.51,44.35Z" fill="#63b5e4"/><path d="M.5,67.57V56.77c0-2.29,2.22-4.15,5-4.15H55.93c2.74,0,5,1.86,5,4.15v10.8Z" fill="#a4d8ee"/><path d="M61.39,67.57h-1V56.77c0-2-2-3.65-4.47-3.65H5.46C3,53.12,1,54.76,1,56.77v10.8H0V56.77c0-2.56,2.45-4.64,5.46-4.64H55.93c3,0,5.46,2.08,5.46,4.64Z" fill="#63b5e4"/><path d="M7.7,57.5a2,2,0,1,1-2-2A2,2,0,0,1,7.7,57.5Z" fill="#f74910"/><path d="M5.71,55.78a2,2,0,0,1,2,1.85.57.57,0,0,0,0-.13,2,2,0,1,0-4,0v.13A2,2,0,0,1,5.71,55.78Z" fill="#fff" opacity="0.3"/><path d="M5.71,59.22a2,2,0,0,0,2-1.86.66.66,0,0,1,0,.14,2,2,0,0,1-4,0v-.14A2,2,0,0,0,5.71,59.22Z" opacity="0.2"/><path d="M5.71,58.9a1.26,1.26,0,0,1-.79-2.24.17.17,0,0,1,.21.27.91.91,0,0,0-.33.71.92.92,0,1,0,1.83,0,.89.89,0,0,0-.34-.71.17.17,0,0,1,0-.24.16.16,0,0,1,.24,0,1.29,1.29,0,0,1,.46,1A1.26,1.26,0,0,1,5.71,58.9Z" fill="#f0f0f0"/><path d="M5.71,57.76a.18.18,0,0,1-.17-.17V56.27a.18.18,0,0,1,.17-.17.17.17,0,0,1,.17.17v1.32A.17.17,0,0,1,5.71,57.76Z" fill="#f0f0f0"/><path d="M13.66,57.5a2,2,0,1,1-2-2A2,2,0,0,1,13.66,57.5Z" fill="#75b924"/><path d="M11.67,55.78a2,2,0,0,1,2,1.85s0-.09,0-.13a2,2,0,0,0-4,0s0,.09,0,.13A2,2,0,0,1,11.67,55.78Z" fill="#fff" opacity="0.3"/><path d="M11.67,59.22a2,2,0,0,0,2-1.86s0,.09,0,.14a2,2,0,0,1-4,0s0-.09,0-.14A2,2,0,0,0,11.67,59.22Z" opacity="0.2"/><polygon points="10.95 56.39 12.87 57.5 10.95 58.61 10.95 56.39" fill="#f0f0f0"/><polygon points="11.08 56.66 12.7 57.59 12.87 57.5 10.95 56.39 10.95 58.61 11.08 58.53 11.08 56.66" opacity="0.2"/><path d="M12,64.68h-3V61.47h3a1.07,1.07,0,0,1,1.07,1.07v1.07A1.07,1.07,0,0,1,12,64.68Z" fill="#f1f1f1"/><path d="M12,61.47h-.12A1.06,1.06,0,0,1,13,62.54v1.07a1.07,1.07,0,0,1-1.07,1.07H12a1.07,1.07,0,0,0,1.07-1.07V62.54A1.07,1.07,0,0,0,12,61.47Z" opacity="0.2"/><path d="M9.26,61.59h3a1,1,0,0,1,.48.12,1,1,0,0,0-.66-.24h-3v3.21h.19Z" fill="#fff" opacity="0.3"/><path d="M5.35,64.68h3V61.47h-3a1.06,1.06,0,0,0-1.07,1.07v1.07A1.06,1.06,0,0,0,5.35,64.68Z" fill="#f1f1f1"/><path d="M5.35,61.47h.11A1.06,1.06,0,0,0,4.4,62.54v1.07a1.07,1.07,0,0,0,1.07,1.07H5.35a1.06,1.06,0,0,1-1.07-1.07V62.54A1.06,1.06,0,0,1,5.35,61.47Z" opacity="0.2"/><path d="M8.12,61.59h-3a.94.94,0,0,0-.47.12,1,1,0,0,1,.66-.24h3v3.21H8.12Z" fill="#fff" opacity="0.3"/><path d="M42.32,64.56h-12a2.14,2.14,0,0,1-2.1-2.18V57.81a2.14,2.14,0,0,1,2.1-2.18h12a2.14,2.14,0,0,1,2.1,2.18v4.57A2.14,2.14,0,0,1,42.32,64.56Z" fill="#7a7a7a"/><path d="M43.14,57.3v2.48H40.69V57.3a.85.85,0,0,1,.82-.89h.81A.85.85,0,0,1,43.14,57.3Z" fill="#f1f1f1"/><path d="M40.69,57.3v.1a.86.86,0,0,1,.82-.89h.81a.86.86,0,0,1,.82.9v2.37h0V57.3a.85.85,0,0,0-.82-.89h-.81A.85.85,0,0,0,40.69,57.3Z" opacity="0.2"/><path d="M40.78,59.62V57.15a.87.87,0,0,1,.09-.4.93.93,0,0,0-.18.55v2.48h2.45v-.16Z" fill="#fff" opacity="0.3"/><path d="M43.14,62.89V60.42H40.69v2.47a.85.85,0,0,0,.82.89h.81A.85.85,0,0,0,43.14,62.89Z" fill="#f1f1f1"/><path d="M40.69,62.89v-.1a.86.86,0,0,0,.82.89h.81a.85.85,0,0,0,.82-.89V60.42h0v2.47a.85.85,0,0,1-.82.89h-.81A.85.85,0,0,1,40.69,62.89Z" opacity="0.2"/><path d="M40.78,60.58v2.47a.86.86,0,0,0,.09.39.93.93,0,0,1-.18-.55V60.42h2.45v.16Z" fill="#fff" opacity="0.3"/><path d="M39.42,57.3v2.48H37V57.3a.86.86,0,0,1,.82-.89h.82A.86.86,0,0,1,39.42,57.3Z" fill="#f1f1f1"/><path d="M37,57.3v.1a.86.86,0,0,1,.82-.89h.82a.86.86,0,0,1,.82.9v2.37h0V57.3a.86.86,0,0,0-.82-.89h-.82A.86.86,0,0,0,37,57.3Z" opacity="0.2"/><path d="M37.06,59.62V57.15a1,1,0,0,1,.08-.4.93.93,0,0,0-.18.55v2.48h2.46v-.16Z" fill="#fff" opacity="0.3"/><path d="M39.42,62.89V60.42H37v2.47a.86.86,0,0,0,.82.89h.82A.86.86,0,0,0,39.42,62.89Z" fill="#f1f1f1"/><path d="M37,62.89v-.1a.86.86,0,0,0,.82.89h.82a.86.86,0,0,0,.82-.89V60.42h0v2.47a.86.86,0,0,1-.82.89h-.82A.86.86,0,0,1,37,62.89Z" opacity="0.2"/><path d="M37.05,60.58v2.47a1,1,0,0,0,.09.39.93.93,0,0,1-.18-.55V60.42h2.46v.16Z" fill="#fff" opacity="0.3"/><path d="M35.69,57.3v2.48H33.24V57.3a.85.85,0,0,1,.81-.89h.82A.86.86,0,0,1,35.69,57.3Z" fill="#f1f1f1"/><path d="M33.24,57.3v.1a.85.85,0,0,1,.81-.89h.82a.86.86,0,0,1,.82.9v2.37h0V57.3a.86.86,0,0,0-.82-.89h-.82A.85.85,0,0,0,33.24,57.3Z" opacity="0.2"/><path d="M33.33,59.62V57.15a.87.87,0,0,1,.09-.4.93.93,0,0,0-.18.55v2.48h2.45v-.16Z" fill="#fff" opacity="0.3"/><path d="M35.69,62.89V60.42H33.24v2.47a.85.85,0,0,0,.81.89h.82A.86.86,0,0,0,35.69,62.89Z" fill="#f1f1f1"/><path d="M33.24,62.89v-.1a.85.85,0,0,0,.81.89h.82a.86.86,0,0,0,.82-.89V60.42h0v2.47a.86.86,0,0,1-.82.89h-.82A.85.85,0,0,1,33.24,62.89Z" opacity="0.2"/><path d="M33.33,60.58v2.47a.86.86,0,0,0,.09.39.87.87,0,0,1-.18-.55V60.42h2.45v.16Z" fill="#fff" opacity="0.3"/><path d="M32,57.3v2.48H29.51V57.3a.85.85,0,0,1,.82-.89h.82A.85.85,0,0,1,32,57.3Z" fill="#f1f1f1"/><path d="M29.51,57.3v.1a.86.86,0,0,1,.82-.89h.82a.85.85,0,0,1,.81.9v2.37h0V57.3a.85.85,0,0,0-.81-.89h-.82A.85.85,0,0,0,29.51,57.3Z" opacity="0.2"/><path d="M29.6,59.62V57.15a.87.87,0,0,1,.09-.4.93.93,0,0,0-.18.55v2.48H32v-.16Z" fill="#fff" opacity="0.3"/><path d="M32,62.89V60.42H29.51v2.47a.85.85,0,0,0,.82.89h.82A.85.85,0,0,0,32,62.89Z" fill="#f1f1f1"/><path d="M29.51,62.89v-.1a.86.86,0,0,0,.82.89h.82a.85.85,0,0,0,.81-.89V60.42h0v2.47a.85.85,0,0,1-.81.89h-.82A.85.85,0,0,1,29.51,62.89Z" opacity="0.2"/><path d="M29.6,60.58v2.47a.86.86,0,0,0,.09.39.93.93,0,0,1-.18-.55V60.42H32v.16Z" fill="#fff" opacity="0.3"/><rect x="3.15" width="54.28" height="44.35" rx="4.96" fill="#a4d8ee"/><path d="M5.6,8.21a5.57,5.57,0,0,1,5.57-5.57s42.06-2,40.47-2H8.72A4.82,4.82,0,0,0,3.91,5.48V38.79C3.91,40.25,5.6,8.21,5.6,8.21Z" fill="#fff" opacity="0.3"/><rect x="8.11" y="4.96" width="44.35" height="34.42" fill="#4d4e54"/><polygon points="9.1 5.96 52.46 5.96 52.46 4.96 8.11 4.96 8.11 39.38 9.1 39.38 9.1 5.96" opacity="0.2"/><path d="M48.16,31.6c-9.85,5.39-25,6.22-35.75,0L25,8.39c4,1.66,6.55,1.66,10.57,0Z" fill="#d5d4d9"/><path d="M36.77,18.61a14.24,14.24,0,0,0-4.71.48h0a2.86,2.86,0,0,1-.25-.16.8.8,0,0,0,.13-.22,7.73,7.73,0,0,1,.75-.52,1.18,1.18,0,0,1,1.11,0c.18.05.43-.33.58-.84s.11-.91,0-1h0c-.52-.3-3.33.16-4.21.46h0l-1,.34.41-.46a2.94,2.94,0,0,1,1.13-.76,4.74,4.74,0,0,1,1.62.07c.16.06.42-.26.6-.7s.19-.86,0-.92h-.07a12.8,12.8,0,0,1-2.35-.3c-.25-.17-.37-2.17-.37-2.17h0a0,0,0,0,1,0,0c-.09-.15-.5,0-.92.21s-.65.55-.6.7h0a14,14,0,0,1,.21,1.39c0,.37-1,1-1.39,1.3-.21,0-1.58.19-3.07,3.31S23.22,26,28,30.9c2.53,2.61,4,2.25,6.06-1.76,1.21-2.41,1.56-7.22,1-8a1.9,1.9,0,0,0-.37-.4l.14,0c.4,0,1.29-.09,1.41-.1h0c.19.06.46-.34.61-.88S37,18.66,36.77,18.61Z" fill="#4d4e54"/><path d="M58.31,60.09A5.35,5.35,0,1,1,53,54.75,5.35,5.35,0,0,1,58.31,60.09Z" fill="#d9d9d9"/><path d="M53,65.72a5.63,5.63,0,1,1,5.63-5.63A5.64,5.64,0,0,1,53,65.72ZM53,55A5.08,5.08,0,1,0,58,60.09,5.08,5.08,0,0,0,53,55Z" fill="#fff"/><path d="M57.4,60.09A4.44,4.44,0,1,1,53,55.66,4.44,4.44,0,0,1,57.4,60.09Z" fill="#868a95"/><path d="M53,59.86c-.85,1-2,1.36-2.68.82s-.46-1.79.39-2.78,2.05-1.35,2.68-.81S53.85,58.87,53,59.86Z" fill="#fff" opacity="0.3"/><rect x="15.48" y="55.2" width="2.83" height="2.83" rx="0.51" fill="#f1f1f1"/><path d="M15.64,57.67V55.86a.5.5,0,0,1,.5-.51H18a.51.51,0,0,1,.27.09.5.5,0,0,0-.42-.24H16a.51.51,0,0,0-.51.51v1.81a.5.5,0,0,0,.24.42A.5.5,0,0,1,15.64,57.67Z" fill="#fff" opacity="0.3"/><path d="M18.16,55.55v1.81a.51.51,0,0,1-.51.51H15.84a.51.51,0,0,1-.27-.09A.48.48,0,0,0,16,58H17.8a.5.5,0,0,0,.51-.5V55.71a.5.5,0,0,0-.24-.42A.48.48,0,0,1,18.16,55.55Z" fill="#7a7a7a" opacity="0.3"/><rect x="19.33" y="55.2" width="2.83" height="2.83" rx="0.51" fill="#f1f1f1"/><path d="M19.48,57.67V55.86a.51.51,0,0,1,.51-.51h1.8a.48.48,0,0,1,.27.09.5.5,0,0,0-.42-.24H19.83a.5.5,0,0,0-.5.51v1.81a.49.49,0,0,0,.23.42A.5.5,0,0,1,19.48,57.67Z" fill="#fff" opacity="0.3"/><path d="M22,55.55v1.81a.51.51,0,0,1-.51.51H19.68a.51.51,0,0,1-.27-.09.48.48,0,0,0,.42.24h1.81a.5.5,0,0,0,.51-.5V55.71a.5.5,0,0,0-.24-.42A.48.48,0,0,1,22,55.55Z" fill="#7a7a7a" opacity="0.3"/><rect x="23.17" y="55.2" width="2.83" height="2.83" rx="0.51" fill="#f1f1f1"/><path d="M23.32,57.67V55.86a.51.51,0,0,1,.51-.51h1.81a.51.51,0,0,1,.27.09.53.53,0,0,0-.42-.24H23.68a.51.51,0,0,0-.51.51v1.81a.5.5,0,0,0,.24.42A.51.51,0,0,1,23.32,57.67Z" fill="#fff" opacity="0.3"/><path d="M25.84,55.55v1.81a.51.51,0,0,1-.51.51H23.52a.51.51,0,0,1-.27-.09.5.5,0,0,0,.43.24h1.81a.5.5,0,0,0,.5-.5V55.71a.5.5,0,0,0-.24-.42A.48.48,0,0,1,25.84,55.55Z" fill="#7a7a7a" opacity="0.3"/><rect x="15.48" y="59.04" width="2.83" height="2.83" rx="0.51" fill="#f1f1f1"/><path d="M15.64,61.51V59.7a.5.5,0,0,1,.5-.51H18a.51.51,0,0,1,.27.09A.5.5,0,0,0,17.8,59H16a.51.51,0,0,0-.51.51v1.81a.5.5,0,0,0,.24.42A.5.5,0,0,1,15.64,61.51Z" fill="#fff" opacity="0.3"/><path d="M18.16,59.4v1.81a.5.5,0,0,1-.51.5H15.84a.5.5,0,0,1-.27-.08.5.5,0,0,0,.42.24H17.8a.51.51,0,0,0,.51-.51V59.55a.5.5,0,0,0-.24-.42A.51.51,0,0,1,18.16,59.4Z" fill="#7a7a7a" opacity="0.3"/><rect x="19.33" y="59.04" width="2.83" height="2.83" rx="0.51" fill="#f1f1f1"/><path d="M19.48,61.51V59.7a.51.51,0,0,1,.51-.51h1.8a.48.48,0,0,1,.27.09.5.5,0,0,0-.42-.24H19.83a.5.5,0,0,0-.5.51v1.81a.49.49,0,0,0,.23.42A.5.5,0,0,1,19.48,61.51Z" fill="#fff" opacity="0.3"/><path d="M22,59.4v1.81a.5.5,0,0,1-.51.5H19.68a.5.5,0,0,1-.27-.08.5.5,0,0,0,.42.24h1.81a.51.51,0,0,0,.51-.51V59.55a.5.5,0,0,0-.24-.42A.51.51,0,0,1,22,59.4Z" fill="#7a7a7a" opacity="0.3"/><rect x="23.17" y="59.04" width="2.83" height="2.83" rx="0.51" fill="#f1f1f1"/><path d="M23.32,61.51V59.7a.51.51,0,0,1,.51-.51h1.81a.51.51,0,0,1,.27.09.53.53,0,0,0-.42-.24H23.68a.51.51,0,0,0-.51.51v1.81a.5.5,0,0,0,.24.42A.51.51,0,0,1,23.32,61.51Z" fill="#fff" opacity="0.3"/><path d="M25.84,59.4v1.81a.5.5,0,0,1-.51.5H23.52a.5.5,0,0,1-.27-.08.52.52,0,0,0,.43.24h1.81a.5.5,0,0,0,.5-.51V59.55a.5.5,0,0,0-.24-.42A.51.51,0,0,1,25.84,59.4Z" fill="#7a7a7a" opacity="0.3"/><rect x="15.48" y="62.88" width="2.83" height="2.83" rx="0.51" fill="#f1f1f1"/><path d="M15.64,65.35V63.54a.5.5,0,0,1,.5-.51H18a.51.51,0,0,1,.27.09.5.5,0,0,0-.42-.24H16a.51.51,0,0,0-.51.51V65.2a.5.5,0,0,0,.24.42A.5.5,0,0,1,15.64,65.35Z" fill="#fff" opacity="0.3"/><path d="M18.16,63.24v1.81a.5.5,0,0,1-.51.5H15.84a.5.5,0,0,1-.27-.08.5.5,0,0,0,.42.24H17.8a.51.51,0,0,0,.51-.51V63.39a.5.5,0,0,0-.24-.42A.51.51,0,0,1,18.16,63.24Z" fill="#7a7a7a" opacity="0.3"/><rect x="19.33" y="62.88" width="2.83" height="2.83" rx="0.51" fill="#f1f1f1"/><path d="M19.48,65.35V63.54A.51.51,0,0,1,20,63h1.8a.48.48,0,0,1,.27.09.5.5,0,0,0-.42-.24H19.83a.5.5,0,0,0-.5.51V65.2a.49.49,0,0,0,.23.42A.5.5,0,0,1,19.48,65.35Z" fill="#fff" opacity="0.3"/><path d="M22,63.24v1.81a.5.5,0,0,1-.51.5H19.68a.5.5,0,0,1-.27-.08.5.5,0,0,0,.42.24h1.81a.51.51,0,0,0,.51-.51V63.39a.5.5,0,0,0-.24-.42A.51.51,0,0,1,22,63.24Z" fill="#7a7a7a" opacity="0.3"/><rect x="23.17" y="62.88" width="2.83" height="2.83" rx="0.51" fill="#f1f1f1"/><path d="M23.32,65.35V63.54a.51.51,0,0,1,.51-.51h1.81a.51.51,0,0,1,.27.09.53.53,0,0,0-.42-.24H23.68a.51.51,0,0,0-.51.51V65.2a.5.5,0,0,0,.24.42A.51.51,0,0,1,23.32,65.35Z" fill="#fff" opacity="0.3"/><path d="M25.84,63.24v1.81a.5.5,0,0,1-.51.5H23.52a.5.5,0,0,1-.27-.08.52.52,0,0,0,.43.24h1.81a.5.5,0,0,0,.5-.51V63.39a.5.5,0,0,0-.24-.42A.51.51,0,0,1,25.84,63.24Z" fill="#7a7a7a" opacity="0.3"/><path d="M72.12,63.12H62.56V61.63h9.56a3.23,3.23,0,0,0,3.22-3.23V50.13a3.23,3.23,0,0,0-3.22-3.23H70.5a4.71,4.71,0,0,1-4.71-4.71V25.81h1.49V42.19a3.22,3.22,0,0,0,3.22,3.22h1.62a4.72,4.72,0,0,1,4.71,4.72V58.4A4.72,4.72,0,0,1,72.12,63.12Z" fill="#666"/><rect x="65.04" y="25.81" width="2.79" height="0.99" fill="#4d4e54"/><polygon points="71.31 8.06 61.57 8.06 62.56 11.29 70.32 11.29 71.31 8.06" fill="#7ebdd5"/><path d="M65.71,23.82V11.29l-.45-2.78a1.33,1.33,0,0,1-.08-.45,2.22,2.22,0,0,1,2.14-1.95c-.22,0-.45,0-.68,0-2.07,0-3.75.89-3.75,2a1,1,0,0,0,.11.45l.66,2.78V23.82a1.8,1.8,0,0,0,1.52,2h1.6C66.19,25.81,65.71,24.92,65.71,23.82Z" fill="#fff" opacity="0.3"/></g></g></svg>