<svg xmlns="http://www.w3.org/2000/svg" viewBox="0 0 52.45 79.35"><g id="Layer_2" data-name="Layer 2"><g id="Icons"><path d="M39.53,47.61a47.56,47.56,0,0,1-26.6,0c-2.79-.8-4.84-4.08-4.69-7,.28-5.57,2.19-11.22,2.49-16.95,11.42,0,19.66-.19,31.08-.19.29,5.73,2.13,11.57,2.41,17.14C44.36,43.53,42.31,46.81,39.53,47.61Z" fill="#7f5026"/><path d="M36.81,51.59c-2.7-.63-4.88-2.35-4.88-3.82V42.64H20.54v5.13c0,1.47-2.19,3.19-4.88,3.82-.6.15,5,4.29,10.57,4.26C31.49,55.82,36.81,51.59,36.81,51.59Z" fill="#ffd0ae"/><polygon points="15.66 51.59 7.49 53.64 26.18 74.54 44.93 53.64 36.81 51.59 15.66 51.59" fill="#ffd0ae"/><path d="M10.75,23.69c0-11.83,6-19.38,15.48-19.38S41.81,11.67,41.81,23.5s-6.11,9.08-15.58,9.08S10.75,35.54,10.75,23.69Z" fill="#7f5026"/><path d="M31.93,42.64v1.68c-2,1.73-4,2.75-5.7,2.75S22.55,46,20.54,44.19V42.64Z" opacity="0.3"/><path d="M38,25.31c.42-.9.51-1.65,1.13-1.68,1-.06-.63,8.69-1.76,9.52C36.89,32,38,25.31,38,25.31Z" fill="#ffd0ae"/><path d="M14.38,25.31c-.42-.9-.51-1.65-1.13-1.68-1.05-.06.64,8.69,1.76,9.52C15.53,32,14.38,25.31,14.38,25.31Z" fill="#ffd0ae"/><path d="M38,27.4c-.19,1.6-.44,3.26-.7,4.81a40.33,40.33,0,0,1-1.43,6.2c-1.36,3.52-6.9,7.48-9.64,7.48h-.08c-2.77-.07-8.19-4-9.55-7.47a39,39,0,0,1-1.45-6.34.31.31,0,0,0,0-.09c-.84-5-1.49-11.14-1.32-12.74.27-2.46.59-10.28,12.33-10.32h.08c11.83,0,12.16,7.84,12.42,10.32A53.28,53.28,0,0,1,38,27.4Z" fill="#ffd0ae"/><path d="M39.56,22.33V12.44c-1.17-1-3.47-3.85-4.84-4.56h-17a9.38,9.38,0,0,0-2,1.66c1.33,3.92,4.63,7,9,9.22a2.62,2.62,0,0,0,.73.36,37.5,37.5,0,0,0,9.24,2.81Z" fill="#7f5026"/><path d="M18.79,8.5c7.72-.28.91,10.71-5.34,14.61C8.86,17.76,13.19,8.71,18.79,8.5Z" fill="#7f5026"/><path d="M52.45,79.35H0C.38,73.8,1.18,60.1,1.61,59A9.46,9.46,0,0,1,6.68,54,135.64,135.64,0,0,1,20,49.24c.21.83,6.17,11,6.17,11s6.13-10.25,6.32-11c2.87.9,5.68,2.27,8.55,3.17,3.73,1.18,9,2.6,9.88,7.07l0,.13a1.29,1.29,0,0,0,0,.14C51.49,62.57,52.14,75.14,52.45,79.35Z" fill="#87e0da"/><path d="M26.2,61.2l-.43-.72c-1-1.71-6-10.26-6.23-11.11l.77-.74c.18.59,3.62,6.73,5.9,10.61,2.32-3.89,5.84-9.9,6-10.47l.78.6c-.2.75-4.93,8.69-6.38,11.11Z" fill="#aef5f0"/><path d="M36.73,28.6a14.91,14.91,0,0,1,1-2.65,14.26,14.26,0,0,1,1.41-2.45,16.18,16.18,0,0,1-2.36,5.1Z" fill="#f0f0f0"/><path d="M36.72,28.6l-1.33,9.92C33.83,41,30.3,44.6,26.22,44.6v-16c1.48,0,4.2,1.8,5.56,1.57A19.25,19.25,0,0,0,36.72,28.6Z" fill="#d0d0d0"/><path d="M26.22,28.6v16c-4.08,0-7.61-3.59-9.17-6.08L15.72,28.6a19.25,19.25,0,0,0,4.94,1.57C22,30.4,24.74,28.6,26.22,28.6Z" fill="#e1e1e1"/><path d="M26.22,44.85c-4.33,0-7.93-3.9-9.38-6.2l0-.09L15.41,28.1l.45.29a19.21,19.21,0,0,0,4.85,1.54,6.66,6.66,0,0,0,2.79-.77,8.23,8.23,0,0,1,2.72-.81,8.3,8.3,0,0,1,2.72.81,6.66,6.66,0,0,0,2.8.77,19.26,19.26,0,0,0,4.84-1.54L37,28.1,35.6,38.65C34.15,41,30.55,44.85,26.22,44.85Zm-8.94-6.41c1.42,2.22,4.85,5.92,8.94,5.92s7.52-3.7,8.93-5.92l1.26-9.39a22.45,22.45,0,0,1-4.59,1.36,6.85,6.85,0,0,1-3.06-.79,8.33,8.33,0,0,0-2.54-.78,8.33,8.33,0,0,0-2.54.78,6.85,6.85,0,0,1-3.06.79A22.45,22.45,0,0,1,16,29.05Z" fill="#f0f0f0"/><path d="M37.2,32.73a30.37,30.37,0,0,1-1.81,5.79c.19-1,.48-2,.76-2.94A29.53,29.53,0,0,1,37.2,32.73Z" fill="#f0f0f0"/><path d="M15.71,28.6a14.5,14.5,0,0,1-1.4-2.44,14.55,14.55,0,0,1-1-2.66A13.58,13.58,0,0,1,14.75,26,14.19,14.19,0,0,1,15.71,28.6Z" fill="#f0f0f0"/><path d="M15.24,32.73a27,27,0,0,1,1,2.85,29.53,29.53,0,0,1,.77,2.94,30.37,30.37,0,0,1-1.81-5.79Z" fill="#f0f0f0"/><path d="M11.15,18.61c.09-5.29.18-8.59.27-13.88a3.84,3.84,0,0,1,3-3.63,64.67,64.67,0,0,1,23.66,0A3.83,3.83,0,0,1,41,4.7c.13,5.3.26,8.61.39,13.91A64.79,64.79,0,0,0,11.15,18.61Z" fill="#87e0da"/><path d="M15,7.71c.38-1.27,1.49-3.74,3.34-4.08a72.86,72.86,0,0,1,21.1-.81,3.39,3.39,0,0,0-2-1.3A61.12,61.12,0,0,0,15,1.54,3.64,3.64,0,0,0,12.18,5c-.08,5-.16,8.11-.25,13.11C12.87,17.86,14.18,10.3,15,7.71Z" fill="#fff" opacity="0.3"/><polygon points="44 79.35 42.67 79.35 42.45 71.23 44 79.35" opacity="0.2"/><polygon points="9.99 71.23 9.77 79.35 8.45 79.35 9.99 71.23" opacity="0.2"/></g></g></svg>