<svg xmlns="http://www.w3.org/2000/svg" viewBox="0 0 339.72 275.13"><g id="Layer_2" data-name="Layer 2"><g id="Object"><path d="M338.39,121.8a1.3,1.3,0,0,0-.34,0h0l.22,1.56,1.45-.78A1.68,1.68,0,0,0,338.39,121.8Z" fill="#2b2a2a"/><path d="M300.12,36.74a1.68,1.68,0,0,0,1.29-1l-2.14.85A1.74,1.74,0,0,0,300.12,36.74Z" fill="#2b2a2a"/><path d="M294.4,44.4h0a1.78,1.78,0,0,0-.09-.33A1.69,1.69,0,0,0,293.15,43a1.67,1.67,0,0,0-.67,0l.24,1.67Z" fill="#2b2a2a"/><path d="M300.63,52.05a1.76,1.76,0,0,0,.28.71l.82-2.55A1.69,1.69,0,0,0,300.63,52.05Z" fill="#2b2a2a"/><path d="M294.9,59.71l.48,3.34a1.69,1.69,0,0,0-.14-3.36,2,2,0,0,0-.34,0Z" fill="#2b2a2a"/><path d="M293,46.32a1.69,1.69,0,0,0,1.44-1.58,2,2,0,0,0,0-.34l-1.68.24Z" fill="#2b2a2a"/><path d="M320.81,108.93a1.63,1.63,0,0,0-.44-.91l-.88-.5a1.71,1.71,0,0,0-.6,0,1.69,1.69,0,0,0-1.43,1.91h0l3.35-.48Z" fill="#2b2a2a"/><path d="M307.88,102.25a1.68,1.68,0,0,0,3.17.54l-2.93-1.65A1.64,1.64,0,0,0,307.88,102.25Z" fill="#2b2a2a"/><path d="M304.07,111.35h0A1.87,1.87,0,0,0,304,111a1.71,1.71,0,0,0-1.16-1.06l-.33,0a1.3,1.3,0,0,0-.34,0l.24,1.67Z" fill="#2b2a2a"/><path d="M336.61,123.73a1.84,1.84,0,0,0,.15.47l1.51-.82-.22-1.56A1.69,1.69,0,0,0,336.61,123.73Z" fill="#2b2a2a"/><path d="M321.79,127.58a1.69,1.69,0,1,0-1.91-1.43A1.69,1.69,0,0,0,321.79,127.58Z" fill="#2b2a2a"/><path d="M314.15,133.81a1.69,1.69,0,0,0-1.43,1.92,1.71,1.71,0,0,0,.65,1.1l2.7-1.46v-.13A1.71,1.71,0,0,0,314.15,133.81Z" fill="#2b2a2a"/><path d="M312.22,120.42A1.69,1.69,0,1,0,310.3,119,1.69,1.69,0,0,0,312.22,120.42Z" fill="#2b2a2a"/><path d="M328.47,114.66a1.69,1.69,0,1,0,1.91,1.43A1.68,1.68,0,0,0,328.47,114.66Z" fill="#2b2a2a"/><path d="M306.49,128.08a1.69,1.69,0,0,0-1.57-1.44,2,2,0,0,0-.35,0h0l.49,3.35A1.69,1.69,0,0,0,306.49,128.08Z" fill="#2b2a2a"/><path d="M318.12,110.52a1.69,1.69,0,0,0,2.7-1.25,1.93,1.93,0,0,0,0-.34l-3.35.48A1.66,1.66,0,0,0,318.12,110.52Z" fill="#2b2a2a"/><path d="M302.4,111.59l.24,1.67a1.7,1.7,0,0,0,1.45-1.57,1.94,1.94,0,0,0,0-.34Z" fill="#2b2a2a"/><path d="M291.05,44.89l1.67-.25L292.48,43h0a1.69,1.69,0,0,0-1.11.66,1.53,1.53,0,0,0-.28.59A1.65,1.65,0,0,0,291.05,44.89Z" fill="#2b2a2a"/><path d="M277.66,46.82h0a1.7,1.7,0,0,0-.85-1.23l-2.43,1a1.63,1.63,0,0,0-.07.73h0Z" fill="#2b2a2a"/><path d="M281.84,79.18a1.69,1.69,0,0,0-1.26-.32l-.33.08a1.7,1.7,0,0,0-1.11,1.49,1.37,1.37,0,0,0,0,.35l3.35-.49A1.73,1.73,0,0,0,281.84,79.18Z" fill="#2b2a2a"/><path d="M293.79,60.37a1.56,1.56,0,0,0-.28.58,1.51,1.51,0,0,0,0,.67,1.63,1.63,0,0,0,.22.63,1.69,1.69,0,0,0,.44.48,1.66,1.66,0,0,0,1.25.32h0l-.48-3.34A1.65,1.65,0,0,0,293.79,60.37Z" fill="#2b2a2a"/><path d="M278.16,62.13a1.69,1.69,0,1,0,1.92,1.43A1.69,1.69,0,0,0,278.16,62.13Z" fill="#2b2a2a"/><path d="M271,71.7a1.69,1.69,0,1,0,1.92,1.44A1.7,1.7,0,0,0,271,71.7Z" fill="#2b2a2a"/><path d="M286.31,71.2a1.69,1.69,0,1,0,1.43-1.92A1.69,1.69,0,0,0,286.31,71.2Z" fill="#2b2a2a"/><path d="M269.07,58.31a1.69,1.69,0,1,0-1.91-1.43A1.68,1.68,0,0,0,269.07,58.31Z" fill="#2b2a2a"/><path d="M285.32,52.55A1.69,1.69,0,1,0,287.24,54,1.69,1.69,0,0,0,285.32,52.55Z" fill="#2b2a2a"/><path d="M265.76,82.71a1.67,1.67,0,0,0-1.57-1.44,1.29,1.29,0,0,0-.34,0h0l.24,1.67Z" fill="#2b2a2a"/><path d="M263.34,66a1.67,1.67,0,0,0-1.57-1.45,1.93,1.93,0,0,0-.34,0l.48,3.35A1.68,1.68,0,0,0,263.34,66Z" fill="#2b2a2a"/><path d="M291.05,44.89h0a1.69,1.69,0,0,0,.22.63,2.56,2.56,0,0,0,.2.26,1.72,1.72,0,0,0,1.5.54h0l-.25-1.68Z" fill="#2b2a2a"/><path d="M276.23,48.73a1.68,1.68,0,0,0,1.45-1.57,2,2,0,0,0,0-.34l-3.35.48A1.69,1.69,0,0,0,276.23,48.73Z" fill="#2b2a2a"/><path d="M302.16,109.92h0a1.3,1.3,0,0,0-.34.08,1.73,1.73,0,0,0-.78.58,1.7,1.7,0,0,0-.33.91,1.93,1.93,0,0,0,0,.34h0l1.68-.24Z" fill="#2b2a2a"/><path d="M285.42,112.33a1.7,1.7,0,0,0-1.43,1.92h0l3.35-.48h0A1.71,1.71,0,0,0,285.42,112.33Z" fill="#2b2a2a"/><path d="M299.93,96.54l-1.36-.77a1.71,1.71,0,0,0,.67.61A1.79,1.79,0,0,0,299.93,96.54Z" fill="#2b2a2a"/><path d="M283,95.6A1.69,1.69,0,1,0,284.92,97,1.69,1.69,0,0,0,283,95.6Z" fill="#2b2a2a"/><path d="M274.41,107.09a1.69,1.69,0,0,0,3.35-.48,1.69,1.69,0,1,0-3.35.48Z" fill="#2b2a2a"/><path d="M292.58,102.76a1.69,1.69,0,1,0,1.91,1.43A1.68,1.68,0,0,0,292.58,102.76Z" fill="#2b2a2a"/><path d="M273.42,88.44a1.69,1.69,0,1,0,1.92,1.43A1.69,1.69,0,0,0,273.42,88.44Z" fill="#2b2a2a"/><path d="M288.73,87.94a1.66,1.66,0,0,0,.64,1.09l1-3h-.17A1.68,1.68,0,0,0,288.73,87.94Z" fill="#2b2a2a"/><path d="M270.6,116.18h0c0-.11-.05-.22-.08-.33a1.68,1.68,0,0,0-1.17-1.06,1.13,1.13,0,0,0-.32-.05,2,2,0,0,0-.35,0l.25,1.68Z" fill="#2b2a2a"/><path d="M266.75,101.36a1.14,1.14,0,0,0,.33-.08,1.68,1.68,0,0,0,1.1-1.83A1.7,1.7,0,0,0,266.61,98a1.94,1.94,0,0,0-.34,0l.48,3.34Z" fill="#2b2a2a"/><path d="M279.81,81.89a1.72,1.72,0,0,0,1.26.32,1.69,1.69,0,0,0,1.44-1.58,1.3,1.3,0,0,0,0-.34h0l-3.35.49h0A1.73,1.73,0,0,0,279.81,81.89Z" fill="#2b2a2a"/><path d="M264.33,84.63a1.68,1.68,0,0,0,1.39-1.25,1.51,1.51,0,0,0,0-.67h0l-1.67.24Z" fill="#2b2a2a"/><path d="M291.75,146.34a1.67,1.67,0,0,0-1.49-.53,1.69,1.69,0,0,0-1.45,1.57,1.3,1.3,0,0,0,0,.34l3.34-.48h0A1.71,1.71,0,0,0,291.75,146.34Z" fill="#2b2a2a"/><path d="M305.06,130h0l-.49-3.35a1.69,1.69,0,0,0-1.2,2.55,1.65,1.65,0,0,0,.43.48A1.69,1.69,0,0,0,305.06,130Z" fill="#2b2a2a"/><path d="M288.32,132.42a1.69,1.69,0,1,0-1.91-1.43A1.68,1.68,0,0,0,288.32,132.42Z" fill="#2b2a2a"/><path d="M281.16,142a1.69,1.69,0,1,0-.48-3.35,1.69,1.69,0,0,0,.48,3.35Z" fill="#2b2a2a"/><path d="M297.42,136.23a1.69,1.69,0,1,0,1.91,1.43A1.69,1.69,0,0,0,297.42,136.23Z" fill="#2b2a2a"/><path d="M280.18,123.34a1.69,1.69,0,1,0-1.44,1.92A1.71,1.71,0,0,0,280.18,123.34Z" fill="#2b2a2a"/><path d="M295.48,122.84a1.69,1.69,0,1,0-1.91-1.43A1.68,1.68,0,0,0,295.48,122.84Z" fill="#2b2a2a"/><path d="M275.44,149.66a1.7,1.7,0,0,0-1.58-1.45,1.32,1.32,0,0,0-.34,0h0l.24,1.67Z" fill="#2b2a2a"/><path d="M273,132.92a1.7,1.7,0,0,0-1.57-1.45,2.06,2.06,0,0,0-.35,0l.49,3.35A1.71,1.71,0,0,0,273,132.92Z" fill="#2b2a2a"/><path d="M300.72,111.83a1.59,1.59,0,0,0,.09.33,1,1,0,0,0,.14.3,1.68,1.68,0,0,0,1.69.8h0l-.24-1.67Z" fill="#2b2a2a"/><path d="M284.65,115.36a1.66,1.66,0,0,0,1.25.32,1.7,1.7,0,0,0,1.45-1.57,1.93,1.93,0,0,0,0-.34l-3.35.48A1.69,1.69,0,0,0,284.65,115.36Z" fill="#2b2a2a"/><path d="M269.17,118.1a1.68,1.68,0,0,0,1.44-1.57,1.37,1.37,0,0,0,0-.35l-1.67.25Z" fill="#2b2a2a"/><path d="M293.65,180.85a1.93,1.93,0,0,0,0,.34l.33,0,0-1.16A1.74,1.74,0,0,0,293.65,180.85Z" fill="#2b2a2a"/><path d="M293.16,165.89a1.25,1.25,0,0,0,.32-.08l-.11-3.22a1.78,1.78,0,0,0-.69-.05,1.69,1.69,0,1,0,.48,3.35Z" fill="#2b2a2a"/><path d="M286,175.47a1.69,1.69,0,1,0-1.91-1.43A1.69,1.69,0,0,0,286,175.47Z" fill="#2b2a2a"/><path d="M285,156.82a1.69,1.69,0,1,0-1.43,1.91A1.69,1.69,0,0,0,285,156.82Z" fill="#2b2a2a"/><path d="M280.27,183.13a1.68,1.68,0,0,0-1.57-1.45,1.94,1.94,0,0,0-.34,0l.24,1.67Z" fill="#2b2a2a"/><path d="M276.42,168.31a1.7,1.7,0,0,0,1.45-1.57,2,2,0,0,0,0-.35,1.9,1.9,0,0,0-.23-.63,1.64,1.64,0,0,0-.2-.26,1.66,1.66,0,0,0-1.15-.55,2,2,0,0,0-.34,0l.48,3.35Z" fill="#2b2a2a"/><path d="M288.83,147.72a1.63,1.63,0,0,0,.66,1.11,1.65,1.65,0,0,0,1.25.32,1.7,1.7,0,0,0,1.4-1.24,1.67,1.67,0,0,0,0-.67l-3.34.48Z" fill="#2b2a2a"/><path d="M274,151.57a1.68,1.68,0,0,0,.89-.42,1.7,1.7,0,0,0,.54-1.49h0l-1.68.24Z" fill="#2b2a2a"/><path d="M287.94,188.86a1.69,1.69,0,1,0,1.91,1.43A1.69,1.69,0,0,0,287.94,188.86Z" fill="#2b2a2a"/><path d="M293.66,181.19a1.71,1.71,0,0,0,.36.81l0-.85-.33,0Z" fill="#2b2a2a"/><path d="M280.27,183.13h0l-1.67.24.24,1.67a1.66,1.66,0,0,0,1.43-1.91Z" fill="#2b2a2a"/><path d="M238.69,17.07a1.71,1.71,0,0,0-1.25-.32,1.89,1.89,0,0,0-.34.09A1.68,1.68,0,0,0,236,18.33a1.32,1.32,0,0,0,0,.34l3.34-.49A1.65,1.65,0,0,0,238.69,17.07Z" fill="#2b2a2a"/><path d="M235,0a1.69,1.69,0,0,0,.48,3.35,1.69,1.69,0,0,0,1.22-.84L236.1.23A1.67,1.67,0,0,0,235,0Z" fill="#2b2a2a"/><path d="M228.34,12.94a1.69,1.69,0,1,0-1.91-1.43A1.68,1.68,0,0,0,228.34,12.94Z" fill="#2b2a2a"/><path d="M222.62,20.6A1.68,1.68,0,0,0,221,19.16a2,2,0,0,0-.34,0h0l.24,1.67Z" fill="#2b2a2a"/><path d="M244.19,51.66h0a1.69,1.69,0,0,0-3.35.48h0Z" fill="#2b2a2a"/><path d="M239.85,33.49a1.69,1.69,0,1,0,1.92,1.43A1.69,1.69,0,0,0,239.85,33.49Z" fill="#2b2a2a"/><path d="M231.27,45a1.69,1.69,0,1,0,1.43-1.91A1.67,1.67,0,0,0,231.27,45Z" fill="#2b2a2a"/><path d="M230.28,26.33a1.69,1.69,0,1,0,1.91,1.43A1.68,1.68,0,0,0,230.28,26.33Z" fill="#2b2a2a"/><path d="M227.45,54.08a1.68,1.68,0,0,0-1.57-1.45,1.93,1.93,0,0,0-.34,0l.24,1.68Z" fill="#2b2a2a"/><path d="M223.6,39.26h0a1.89,1.89,0,0,0,.34-.09,1.69,1.69,0,0,0-.48-3.28,2,2,0,0,0-.34,0Z" fill="#2b2a2a"/><path d="M236.67,19.78a1.65,1.65,0,0,0,1.25.32,1.7,1.7,0,0,0,1.45-1.57,2.06,2.06,0,0,0,0-.35h0l-3.34.49h0A1.65,1.65,0,0,0,236.67,19.78Z" fill="#2b2a2a"/><path d="M221.18,22.52a1.7,1.7,0,0,0,1.4-1.25,1.87,1.87,0,0,0,0-.67h0l-1.68.24Z" fill="#2b2a2a"/><path d="M263.85,81.28a1.87,1.87,0,0,0-.34.08,1.71,1.71,0,0,0-1.06,1.16,1.88,1.88,0,0,0-.05.33,2,2,0,0,0,0,.35l1.68-.25Z" fill="#2b2a2a"/><path d="M248.37,84a1.69,1.69,0,0,0-1.26-.32,1.77,1.77,0,0,0-.33.08,1.7,1.7,0,0,0-1.12,1.49,1.94,1.94,0,0,0,0,.34l3.35-.48A1.73,1.73,0,0,0,248.37,84Z" fill="#2b2a2a"/><path d="M261.91,67.89h0l-.48-3.35h0A1.69,1.69,0,0,0,260,66.46a1.69,1.69,0,0,0,1.91,1.43Z" fill="#2b2a2a"/><path d="M243.26,68.88A1.69,1.69,0,1,0,244.69,67,1.69,1.69,0,0,0,243.26,68.88Z" fill="#2b2a2a"/><path d="M236.1,78.46a1.69,1.69,0,1,0,1.43-1.92A1.7,1.7,0,0,0,236.1,78.46Z" fill="#2b2a2a"/><path d="M254.27,74.12a1.69,1.69,0,0,0,.48,3.35,1.69,1.69,0,1,0-.48-3.35Z" fill="#2b2a2a"/><path d="M235.11,59.8A1.69,1.69,0,1,0,237,61.24,1.7,1.7,0,0,0,235.11,59.8Z" fill="#2b2a2a"/><path d="M252.33,60.73a1.69,1.69,0,1,0-1.91-1.43A1.69,1.69,0,0,0,252.33,60.73Z" fill="#2b2a2a"/><path d="M232.29,87.55a1.7,1.7,0,0,0-1.57-1.45,1.94,1.94,0,0,0-.34,0h0l.24,1.67Z" fill="#2b2a2a"/><path d="M228.44,72.73a1.69,1.69,0,0,0-.14-3.36,1.29,1.29,0,0,0-.34,0Z" fill="#2b2a2a"/><path d="M242.76,53.57A1.67,1.67,0,0,0,244.2,52a1.29,1.29,0,0,0,0-.34l-3.35.48A1.69,1.69,0,0,0,242.76,53.57Z" fill="#2b2a2a"/><path d="M226,56a1.59,1.59,0,0,0,.33-.08,1.69,1.69,0,0,0,1.1-1.83h0l-1.67.24Z" fill="#2b2a2a"/><path d="M268.68,114.75h0a2,2,0,0,0-.33.09,1.66,1.66,0,0,0-.78.57,1.74,1.74,0,0,0-.33.92,2,2,0,0,0,0,.34h0l1.68-.24Z" fill="#2b2a2a"/><path d="M252,117.17a1.69,1.69,0,0,0-1.43,1.92h0l3.34-.49h0A1.69,1.69,0,0,0,252,117.17Z" fill="#2b2a2a"/><path d="M266.75,101.36,266.27,98h0a1.68,1.68,0,0,0-.9.42A1.78,1.78,0,0,0,265,99a1.73,1.73,0,0,0-.15,1A1.69,1.69,0,0,0,266.75,101.36Z" fill="#2b2a2a"/><path d="M249.53,100.44a1.69,1.69,0,1,0,1.92,1.43A1.68,1.68,0,0,0,249.53,100.44Z" fill="#2b2a2a"/><path d="M242.37,110a1.69,1.69,0,1,0,1.92,1.43A1.7,1.7,0,0,0,242.37,110Z" fill="#2b2a2a"/><path d="M257.67,109.51a1.71,1.71,0,0,0,1.92,1.43,1.69,1.69,0,1,0-1.92-1.43Z" fill="#2b2a2a"/><path d="M240.44,96.62a1.69,1.69,0,1,0-1.92-1.43A1.69,1.69,0,0,0,240.44,96.62Z" fill="#2b2a2a"/><path d="M256.69,90.86a1.69,1.69,0,1,0,1.91,1.43A1.68,1.68,0,0,0,256.69,90.86Z" fill="#2b2a2a"/><path d="M235.45,121.26l1.68-.24h0a1.78,1.78,0,0,0-.09-.33,1.69,1.69,0,0,0-1.16-1.06,1.14,1.14,0,0,0-.33,0,1.3,1.3,0,0,0-.34,0Z" fill="#2b2a2a"/><path d="M233.28,106.2h0a1.32,1.32,0,0,0,.33-.08,1.69,1.69,0,0,0-.47-3.28,2,2,0,0,0-.35,0Z" fill="#2b2a2a"/><path d="M262.5,83.53a1.73,1.73,0,0,0,.58.78l.27.17a1.71,1.71,0,0,0,1,.15h0L264.09,83l-1.68.25h0A2,2,0,0,0,262.5,83.53Z" fill="#2b2a2a"/><path d="M245.68,85.61h0a1.68,1.68,0,0,0,.66,1.12,1.7,1.7,0,0,0,1.25.31A1.67,1.67,0,0,0,249,85.47a2,2,0,0,0,0-.34h0Z" fill="#2b2a2a"/><path d="M230.86,89.46a1.69,1.69,0,0,0,1.43-1.91h0l-1.67.24Z" fill="#2b2a2a"/><path d="M273.52,148.23a1.69,1.69,0,0,0-1.43,1.91l1.67-.24Z" fill="#2b2a2a"/><path d="M258.28,151.18a1.71,1.71,0,0,0-1.49-.54,1.88,1.88,0,0,0-.64.23,1.78,1.78,0,0,0-.65.71,1.72,1.72,0,0,0-.16.64,2,2,0,0,0,0,.34l3.35-.48h0A1.68,1.68,0,0,0,258.28,151.18Z" fill="#2b2a2a"/><path d="M271.59,134.84h0l-.49-3.35h0a1.7,1.7,0,0,0-1.28.94,1.68,1.68,0,0,0-.15,1,1.69,1.69,0,0,0,1.92,1.44Z" fill="#2b2a2a"/><path d="M256.28,135.34a1.69,1.69,0,1,0-1.43,1.92A1.68,1.68,0,0,0,256.28,135.34Z" fill="#2b2a2a"/><path d="M247.69,146.83a1.69,1.69,0,1,0-1.91-1.43A1.68,1.68,0,0,0,247.69,146.83Z" fill="#2b2a2a"/><path d="M264.43,144.41a1.69,1.69,0,1,0-1.92-1.43A1.69,1.69,0,0,0,264.43,144.41Z" fill="#2b2a2a"/><path d="M246.71,128.18a1.7,1.7,0,0,0-1.92-1.43,1.69,1.69,0,0,0,.48,3.35A1.7,1.7,0,0,0,246.71,128.18Z" fill="#2b2a2a"/><path d="M263.44,125.76a1.69,1.69,0,1,0-1.43,1.92A1.69,1.69,0,0,0,263.44,125.76Z" fill="#2b2a2a"/><path d="M242,154.49a1.67,1.67,0,0,0-1.57-1.44,2,2,0,0,0-.34,0h0l.24,1.68Z" fill="#2b2a2a"/><path d="M239.55,137.76a1.7,1.7,0,0,0-1.58-1.45,2,2,0,0,0-.34,0l.49,3.34A1.69,1.69,0,0,0,239.55,137.76Z" fill="#2b2a2a"/><path d="M269.17,118.1h0l-.24-1.67-1.68.24c0,.11.05.22.08.33a1.4,1.4,0,0,0,.15.3A1.69,1.69,0,0,0,269.17,118.1Z" fill="#2b2a2a"/><path d="M251.18,120.2a1.69,1.69,0,0,0,2.7-1.26,1.32,1.32,0,0,0,0-.34l-3.34.49A1.65,1.65,0,0,0,251.18,120.2Z" fill="#2b2a2a"/><path d="M235.7,122.94a2,2,0,0,0,.33-.09,1.68,1.68,0,0,0,1.11-1.49,2,2,0,0,0,0-.34l-1.68.24Z" fill="#2b2a2a"/><path d="M278.36,181.7h0a1.69,1.69,0,0,0-1.11.66,1.67,1.67,0,0,0-.34.91,1.94,1.94,0,0,0,0,.34l1.67-.24Z" fill="#2b2a2a"/><path d="M276.42,168.31l-.48-3.35h0a1.65,1.65,0,0,0-.89.42,1.67,1.67,0,0,0-.54,1.5,1.7,1.7,0,0,0,.94,1.28A1.68,1.68,0,0,0,276.42,168.31Z" fill="#2b2a2a"/><path d="M257.77,169.3a1.69,1.69,0,1,0,1.43-1.92A1.7,1.7,0,0,0,257.77,169.3Z" fill="#2b2a2a"/><path d="M268.78,174.54A1.69,1.69,0,1,0,270.7,176,1.69,1.69,0,0,0,268.78,174.54Z" fill="#2b2a2a"/><path d="M249.63,160.22a1.69,1.69,0,1,0,1.91,1.43A1.68,1.68,0,0,0,249.63,160.22Z" fill="#2b2a2a"/><path d="M266.85,161.15a1.69,1.69,0,1,0-1.92-1.43A1.69,1.69,0,0,0,266.85,161.15Z" fill="#2b2a2a"/><path d="M272.17,150.47a1.69,1.69,0,0,0,.58.78,1.61,1.61,0,0,0,.28.17,1.7,1.7,0,0,0,1,.15h0l-.25-1.67-1.67.24h0A1.59,1.59,0,0,0,272.17,150.47Z" fill="#2b2a2a"/><path d="M255.35,152.56a1.73,1.73,0,0,0,.66,1.11,1.69,1.69,0,0,0,2.69-1.59l-3.35.48Z" fill="#2b2a2a"/><path d="M240.53,156.41a1.68,1.68,0,0,0,1.43-1.92h0l-1.67.25Z" fill="#2b2a2a"/><path d="M276.93,183.61h0a1.3,1.3,0,0,0,.08.34c0,.1.09.2.14.3a1.69,1.69,0,0,0,1.69.79h0l-.24-1.67Z" fill="#2b2a2a"/><path d="M220.7,19.17a1.7,1.7,0,0,0-1.45,1.57,2.06,2.06,0,0,0,0,.35l1.67-.25Z" fill="#2b2a2a"/><path d="M205.22,21.91a1.68,1.68,0,0,0-1.26-.32l-.33.08-.21.11-.59.51a1.66,1.66,0,0,0-.31.87,2,2,0,0,0,0,.35l3.35-.49A1.69,1.69,0,0,0,205.22,21.91Z" fill="#2b2a2a"/><path d="M211.61,15.36A1.69,1.69,0,0,0,213,13.45a.24.24,0,0,0,0-.08l-2.18,1.92A1.65,1.65,0,0,0,211.61,15.36Z" fill="#2b2a2a"/><path d="M225.78,54.32l-.24-1.68h0a1.82,1.82,0,0,0-.63.23,1.65,1.65,0,0,0-.8,1.69Z" fill="#2b2a2a"/><path d="M210.72,56.49h0a1.69,1.69,0,0,0-3.35.49h0Z" fill="#2b2a2a"/><path d="M223.12,35.91a1.69,1.69,0,0,0,.48,3.35l-.48-3.35Z" fill="#2b2a2a"/><path d="M206.87,41.68a1.71,1.71,0,0,0,1.43-1.92,1.69,1.69,0,0,0-3.35.48A1.7,1.7,0,0,0,206.87,41.68Z" fill="#2b2a2a"/><path d="M199.22,47.9a1.69,1.69,0,1,0,1.92,1.44A1.7,1.7,0,0,0,199.22,47.9Z" fill="#2b2a2a"/><path d="M214.53,47.4a1.69,1.69,0,0,0,3.35-.48,1.69,1.69,0,1,0-3.35.48Z" fill="#2b2a2a"/><path d="M197.29,34.52a1.7,1.7,0,0,0,1.43-1.92,1.69,1.69,0,0,0-3.35.48A1.7,1.7,0,0,0,197.29,34.52Z" fill="#2b2a2a"/><path d="M213.54,28.75a1.69,1.69,0,1,0,1.92,1.43A1.69,1.69,0,0,0,213.54,28.75Z" fill="#2b2a2a"/><path d="M194,58.91a1.68,1.68,0,0,0-1.57-1.44,1.93,1.93,0,0,0-.34,0h0l.24,1.67Z" fill="#2b2a2a"/><path d="M189.65,40.75l.48,3.34h0a1.14,1.14,0,0,0,.33-.08,1.69,1.69,0,0,0-.47-3.28,1.3,1.3,0,0,0-.34,0Z" fill="#2b2a2a"/><path d="M219.35,21.42a1.71,1.71,0,0,0,.86.95,1.68,1.68,0,0,0,1,.15h0l-.24-1.68-1.67.25h0A2,2,0,0,0,219.35,21.42Z" fill="#2b2a2a"/><path d="M203.19,24.62a1.73,1.73,0,0,0,1.26.32,1.7,1.7,0,0,0,1.45-1.58,2,2,0,0,0,0-.34h0l-3.35.49h0A1.73,1.73,0,0,0,203.19,24.62Z" fill="#2b2a2a"/><path d="M230.38,86.12a1.3,1.3,0,0,0-.34.08A1.69,1.69,0,0,0,229,87.36a1.88,1.88,0,0,0,0,.33,1.93,1.93,0,0,0,0,.34l1.68-.24Z" fill="#2b2a2a"/><path d="M214.89,88.86a1.65,1.65,0,0,0-1.25-.32,1.14,1.14,0,0,0-.33.08,1.7,1.7,0,0,0-1.12,1.49,1.94,1.94,0,0,0,0,.34l3.35-.48A1.67,1.67,0,0,0,214.89,88.86Z" fill="#2b2a2a"/><path d="M228,69.38a1.69,1.69,0,0,0-1.44,1.92,1.7,1.7,0,0,0,1.25,1.39,1.67,1.67,0,0,0,.67,0h0L228,69.38Z" fill="#2b2a2a"/><path d="M209.79,73.71a1.69,1.69,0,1,0,1.43-1.91A1.69,1.69,0,0,0,209.79,73.71Z" fill="#2b2a2a"/><path d="M202.63,83.29a1.69,1.69,0,1,0,1.43-1.91A1.68,1.68,0,0,0,202.63,83.29Z" fill="#2b2a2a"/><path d="M219.37,80.87A1.69,1.69,0,1,0,220.8,79,1.69,1.69,0,0,0,219.37,80.87Z" fill="#2b2a2a"/><path d="M201.64,64.64a1.69,1.69,0,1,0,1.92,1.43A1.69,1.69,0,0,0,201.64,64.64Z" fill="#2b2a2a"/><path d="M218.38,62.22a1.69,1.69,0,1,0,1.92,1.43A1.71,1.71,0,0,0,218.38,62.22Z" fill="#2b2a2a"/><path d="M198.82,92.39a1.7,1.7,0,0,0-1.57-1.45,2,2,0,0,0-.35,0h0l.25,1.68Z" fill="#2b2a2a"/><path d="M194.49,74.22l.48,3.35h0a1.71,1.71,0,0,0,1.43-1.92,1.69,1.69,0,0,0-1.24-1.39A1.51,1.51,0,0,0,194.49,74.22Z" fill="#2b2a2a"/><path d="M224.11,54.56h0a1.69,1.69,0,0,0,.22.63,1.28,1.28,0,0,0,.2.26A1.66,1.66,0,0,0,226,56h0l-.24-1.67Z" fill="#2b2a2a"/><path d="M209.29,58.41a1.69,1.69,0,0,0,1.44-1.57,2,2,0,0,0,0-.35l-3.35.49A1.69,1.69,0,0,0,209.29,58.41Z" fill="#2b2a2a"/><path d="M192.31,59.15l.24,1.68h0a1.59,1.59,0,0,0,.33-.09,1.65,1.65,0,0,0,1.06-1.16,1.67,1.67,0,0,0,0-.67h0Z" fill="#2b2a2a"/><path d="M235.21,119.59h0a2,2,0,0,0-.33.08,1.69,1.69,0,0,0-.78.58,1.73,1.73,0,0,0-.33.91,1.37,1.37,0,0,0,0,.35h0l1.67-.25Z" fill="#2b2a2a"/><path d="M220.39,123.44a1.69,1.69,0,0,0-3.34.48h0l3.34-.48Z" fill="#2b2a2a"/><path d="M232.79,102.85a1.69,1.69,0,1,0,.49,3.35l-.49-3.35Z" fill="#2b2a2a"/><path d="M214.63,107.19a1.69,1.69,0,1,0,1.43-1.92A1.69,1.69,0,0,0,214.63,107.19Z" fill="#2b2a2a"/><path d="M207.47,116.77a1.69,1.69,0,1,0,1.43-1.92A1.69,1.69,0,0,0,207.47,116.77Z" fill="#2b2a2a"/><path d="M224.2,114.35a1.69,1.69,0,1,0,1.44-1.92A1.7,1.7,0,0,0,224.2,114.35Z" fill="#2b2a2a"/><path d="M206.48,98.11a1.69,1.69,0,1,0,1.92,1.44A1.7,1.7,0,0,0,206.48,98.11Z" fill="#2b2a2a"/><path d="M223.22,95.69a1.69,1.69,0,1,0,1.91,1.44A1.7,1.7,0,0,0,223.22,95.69Z" fill="#2b2a2a"/><path d="M201.74,124.43l.24,1.67,1.68-.24h0a1.59,1.59,0,0,0-.09-.33,1,1,0,0,0-.14-.3,1.72,1.72,0,0,0-1.35-.82,2,2,0,0,0-.34,0Z" fill="#2b2a2a"/><path d="M199.32,107.69l.49,3.35h0l.33-.08a1.71,1.71,0,0,0,1.1-1.84,1.68,1.68,0,0,0-1.58-1.44,1.3,1.3,0,0,0-.34,0Z" fill="#2b2a2a"/><path d="M229,88.36a1.61,1.61,0,0,0,.57.78,1.17,1.17,0,0,0,.28.17,1.7,1.7,0,0,0,1,.15h0l-.24-1.67-1.68.24h0A1.59,1.59,0,0,0,229,88.36Z" fill="#2b2a2a"/><path d="M212.87,91.56a1.65,1.65,0,0,0,1.25.32,1.69,1.69,0,0,0,1.45-1.57,1.93,1.93,0,0,0,0-.34h0l-3.35.48h0A1.65,1.65,0,0,0,212.87,91.56Z" fill="#2b2a2a"/><path d="M197.39,94.3a2,2,0,0,0,.33-.08,1.7,1.7,0,0,0,1.11-1.49,1.29,1.29,0,0,0,0-.34h0l-1.67.24Z" fill="#2b2a2a"/><path d="M240.05,153.06a1.68,1.68,0,0,0-1.39,1.25,1.51,1.51,0,0,0,0,.67l1.67-.24Z" fill="#2b2a2a"/><path d="M224.81,156a1.72,1.72,0,0,0-1.5-.54,1.54,1.54,0,0,0-.63.23,1.66,1.66,0,0,0-.81,1.34,2,2,0,0,0,0,.35l3.35-.49h0A1.68,1.68,0,0,0,224.81,156Z" fill="#2b2a2a"/><path d="M238.12,139.67l-.49-3.34h0a1.69,1.69,0,0,0-1.43,1.91,1.71,1.71,0,0,0,.42.9,1.79,1.79,0,0,0,.82.5,1.72,1.72,0,0,0,.68,0Z" fill="#2b2a2a"/><path d="M221.38,142.09a1.69,1.69,0,1,0-1.92-1.43A1.69,1.69,0,0,0,221.38,142.09Z" fill="#2b2a2a"/><path d="M214.22,151.67a1.69,1.69,0,1,0-1.91-1.43A1.69,1.69,0,0,0,214.22,151.67Z" fill="#2b2a2a"/><path d="M231,149.25a1.69,1.69,0,1,0-1.92-1.43A1.69,1.69,0,0,0,231,149.25Z" fill="#2b2a2a"/><path d="M213.23,133a1.69,1.69,0,1,0-1.43,1.91A1.68,1.68,0,0,0,213.23,133Z" fill="#2b2a2a"/><path d="M230,130.6a1.69,1.69,0,1,0-1.43,1.91A1.68,1.68,0,0,0,230,130.6Z" fill="#2b2a2a"/><path d="M208.49,159.33a1.67,1.67,0,0,0-1.57-1.44,1.29,1.29,0,0,0-.34,0h0l.24,1.67Z" fill="#2b2a2a"/><path d="M204.64,144.51a1.69,1.69,0,0,0-.14-3.36,2,2,0,0,0-.34,0l.48,3.35Z" fill="#2b2a2a"/><path d="M233.78,121.51c0,.11.05.22.08.33a2.1,2.1,0,0,0,.15.3,1.69,1.69,0,0,0,1.69.8h0l-.25-1.68Z" fill="#2b2a2a"/><path d="M217.71,125a1.7,1.7,0,0,0,2.7-1.26,2,2,0,0,0,0-.34l-3.34.48A1.65,1.65,0,0,0,217.71,125Z" fill="#2b2a2a"/><path d="M202.22,127.77h0a1.3,1.3,0,0,0,.34-.08,1.7,1.7,0,0,0,1.11-1.49,1.93,1.93,0,0,0,0-.34l-1.68.24Z" fill="#2b2a2a"/><path d="M226.22,175.57a1.69,1.69,0,1,0-1.92-1.44A1.71,1.71,0,0,0,226.22,175.57Z" fill="#2b2a2a"/><path d="M219.06,185.14a1.69,1.69,0,1,0-1.92-1.43A1.69,1.69,0,0,0,219.06,185.14Z" fill="#2b2a2a"/><path d="M218.07,166.49a1.69,1.69,0,1,0-1.43,1.92A1.69,1.69,0,0,0,218.07,166.49Z" fill="#2b2a2a"/><path d="M232.89,162.64a1.69,1.69,0,1,0,1.92,1.43A1.69,1.69,0,0,0,232.89,162.64Z" fill="#2b2a2a"/><path d="M213.33,192.8a1.54,1.54,0,0,0-.23-.63,1.67,1.67,0,0,0-1.34-.81,1.93,1.93,0,0,0-.34,0h0l.24,1.68Z" fill="#2b2a2a"/><path d="M209.48,178a1.69,1.69,0,0,0-.14-3.36,1.94,1.94,0,0,0-.34,0h0l.48,3.34Z" fill="#2b2a2a"/><path d="M239.56,156.26a1.68,1.68,0,0,0,1,.15h0l-.24-1.67-1.67.24h0a1.32,1.32,0,0,0,.08.33,1.63,1.63,0,0,0,.58.78A2.61,2.61,0,0,0,239.56,156.26Z" fill="#2b2a2a"/><path d="M221.88,157.4a1.69,1.69,0,0,0,1.92,1.43,1.7,1.7,0,0,0,1.39-1.25,1.67,1.67,0,0,0,0-.67l-3.35.49Z" fill="#2b2a2a"/><path d="M207.06,161.25a1.71,1.71,0,0,0,1.45-1.58,2,2,0,0,0,0-.34h0l-1.67.24Z" fill="#2b2a2a"/><path d="M211.66,193.05l.24,1.67h0l.33-.08a1.68,1.68,0,0,0,1.06-1.17,1.65,1.65,0,0,0,.06-.32,2.06,2.06,0,0,0,0-.35h0Z" fill="#2b2a2a"/><path d="M171.75,26.75a1.69,1.69,0,0,0-1.26-.32,1.32,1.32,0,0,0-.33.08A1.7,1.7,0,0,0,169.05,28a1.93,1.93,0,0,0,0,.34l3.35-.48A1.73,1.73,0,0,0,171.75,26.75Z" fill="#2b2a2a"/><path d="M161.4,22.62a1.7,1.7,0,0,0,1.43-1.92,1.69,1.69,0,0,0-3.35.48A1.7,1.7,0,0,0,161.4,22.62Z" fill="#2b2a2a"/><path d="M155.67,30.28a1.69,1.69,0,0,0-1.57-1.45,1.3,1.3,0,0,0-.34,0l.24,1.67Z" fill="#2b2a2a"/><path d="M151.82,15.46a1.69,1.69,0,0,0,1.43-1.92,1.69,1.69,0,0,0-1.91-1.43l.48,3.35Z" fill="#2b2a2a"/><path d="M192.07,57.48a1.68,1.68,0,0,0-.9.42,1.82,1.82,0,0,0-.39.52,2.83,2.83,0,0,0-.11.31,1.87,1.87,0,0,0,0,.67l1.68-.25Z" fill="#2b2a2a"/><path d="M177.25,61.33h0a1.69,1.69,0,0,0-3.35.49h0Z" fill="#2b2a2a"/><path d="M188.22,42.66a1.69,1.69,0,0,0,.22.63,1.55,1.55,0,0,0,.44.48,1.65,1.65,0,0,0,1.25.32l-.48-3.34A1.68,1.68,0,0,0,188.22,42.66Z" fill="#2b2a2a"/><path d="M171.48,45.08a1.69,1.69,0,1,0,1.43-1.92A1.69,1.69,0,0,0,171.48,45.08Z" fill="#2b2a2a"/><path d="M164.32,54.66a1.69,1.69,0,1,0,1.43-1.92A1.7,1.7,0,0,0,164.32,54.66Z" fill="#2b2a2a"/><path d="M183,53.67a1.69,1.69,0,1,0-1.91-1.43A1.69,1.69,0,0,0,183,53.67Z" fill="#2b2a2a"/><path d="M163.33,36a1.69,1.69,0,1,0,1.92,1.44A1.7,1.7,0,0,0,163.33,36Z" fill="#2b2a2a"/><path d="M178.64,35.5A1.7,1.7,0,0,0,180.25,37l-1.59-2A1.5,1.5,0,0,0,178.64,35.5Z" fill="#2b2a2a"/><path d="M160.51,63.75a1.7,1.7,0,0,0-1.57-1.45,1.94,1.94,0,0,0-.34,0h0l.24,1.67Z" fill="#2b2a2a"/><path d="M156.18,45.58l.48,3.35a1.69,1.69,0,0,0-.14-3.36,1.93,1.93,0,0,0-.34,0Z" fill="#2b2a2a"/><path d="M169.72,29.45a1.69,1.69,0,0,0,2.7-1.25,1.29,1.29,0,0,0,0-.34h0l-3.35.48h0A1.7,1.7,0,0,0,169.72,29.45Z" fill="#2b2a2a"/><path d="M154.24,32.19a1.71,1.71,0,0,0,1.4-1.24,1.67,1.67,0,0,0,0-.67h0l-1.67.24Z" fill="#2b2a2a"/><path d="M195.51,92.2a1.67,1.67,0,0,0,0,.67l1.68-.24L196.9,91a2,2,0,0,0-.33.09A1.69,1.69,0,0,0,195.51,92.2Z" fill="#2b2a2a"/><path d="M181.42,93.69a1.7,1.7,0,0,0-1.25-.32,1.59,1.59,0,0,0-.33.09A1.67,1.67,0,0,0,178.72,95a2,2,0,0,0,0,.34l3.34-.49A1.65,1.65,0,0,0,181.42,93.69Z" fill="#2b2a2a"/><path d="M194.49,74.22a1.65,1.65,0,0,0-1.12.66,1.69,1.69,0,0,0,.93,2.65,1.87,1.87,0,0,0,.67,0l-.48-3.35Z" fill="#2b2a2a"/><path d="M176.32,78.55a1.69,1.69,0,1,0,1.43-1.91A1.68,1.68,0,0,0,176.32,78.55Z" fill="#2b2a2a"/><path d="M169.16,88.13a1.69,1.69,0,0,0,3.35-.48,1.69,1.69,0,1,0-3.35.48Z" fill="#2b2a2a"/><path d="M187.33,83.79a1.69,1.69,0,1,0,.48,3.35,1.69,1.69,0,0,0-.48-3.35Z" fill="#2b2a2a"/><path d="M168.17,69.48a1.69,1.69,0,1,0,1.92,1.43A1.69,1.69,0,0,0,168.17,69.48Z" fill="#2b2a2a"/><path d="M185.39,70.41A1.69,1.69,0,1,0,183.48,69,1.69,1.69,0,0,0,185.39,70.41Z" fill="#2b2a2a"/><path d="M165.35,97.22a1.7,1.7,0,0,0-1.25-1.39,1.67,1.67,0,0,0-.67,0l.24,1.67Z" fill="#2b2a2a"/><path d="M161,79.06l.49,3.34h0a1.69,1.69,0,0,0,.18-3.31A1.67,1.67,0,0,0,161,79.06Z" fill="#2b2a2a"/><path d="M190.63,59.4h0a1.71,1.71,0,0,0,1.92,1.43l-.24-1.68Z" fill="#2b2a2a"/><path d="M175.81,63.25a1.7,1.7,0,0,0,1.45-1.58,2,2,0,0,0,0-.34l-3.35.49A1.69,1.69,0,0,0,175.81,63.25Z" fill="#2b2a2a"/><path d="M159.08,65.66h0a1.23,1.23,0,0,0,.33-.08,1.63,1.63,0,0,0,.78-.58,1.56,1.56,0,0,0,.28-.58,1.67,1.67,0,0,0,0-.67h0l-1.67.24Z" fill="#2b2a2a"/><path d="M201.74,124.43a1.23,1.23,0,0,0-.33.08,1.72,1.72,0,0,0-1.12,1.49,1.94,1.94,0,0,0,0,.34h0l1.67-.24Z" fill="#2b2a2a"/><path d="M185,126.85a1.69,1.69,0,0,0-1.43,1.91h0l3.35-.48h0A1.68,1.68,0,0,0,185,126.85Z" fill="#2b2a2a"/><path d="M197.89,109.61a1.69,1.69,0,0,0,1.92,1.43l-.49-3.35A1.69,1.69,0,0,0,197.89,109.61Z" fill="#2b2a2a"/><path d="M183.07,113.46a1.69,1.69,0,0,0-.48-3.35,1.69,1.69,0,0,0,.48,3.35Z" fill="#2b2a2a"/><path d="M175.91,123A1.69,1.69,0,1,0,174,121.6,1.68,1.68,0,0,0,175.91,123Z" fill="#2b2a2a"/><path d="M192.65,120.62a1.71,1.71,0,0,0,1.43-1.92,1.69,1.69,0,0,0-3.35.48A1.7,1.7,0,0,0,192.65,120.62Z" fill="#2b2a2a"/><path d="M174.92,104.38a1.69,1.69,0,1,0-1.43,1.92A1.69,1.69,0,0,0,174.92,104.38Z" fill="#2b2a2a"/><path d="M191.66,102a1.69,1.69,0,1,0-1.43,1.92A1.69,1.69,0,0,0,191.66,102Z" fill="#2b2a2a"/><path d="M170.18,130.7h0a1.3,1.3,0,0,0-.08-.34,1.7,1.7,0,0,0-1.49-1.11,2,2,0,0,0-.34,0h0l.24,1.68Z" fill="#2b2a2a"/><path d="M167.77,114a1.7,1.7,0,0,0-1.58-1.45,2,2,0,0,0-.34,0h0l.48,3.35A1.71,1.71,0,0,0,167.77,114Z" fill="#2b2a2a"/><path d="M195.47,92.87h0a3.18,3.18,0,0,0,.08.33,1.69,1.69,0,0,0,.58.78,1.61,1.61,0,0,0,.59.28,1.67,1.67,0,0,0,.67,0h0l-.24-1.67Z" fill="#2b2a2a"/><path d="M178.74,95.29h0a1.69,1.69,0,0,0,1.91,1.43,1.7,1.7,0,0,0,1.45-1.57,2.06,2.06,0,0,0,0-.35h0Z" fill="#2b2a2a"/><path d="M163.92,99.14a2,2,0,0,0,.33-.09,1.68,1.68,0,0,0,1.11-1.49,2,2,0,0,0,0-.34h0l-1.68.24Z" fill="#2b2a2a"/><path d="M206.58,157.9a1.66,1.66,0,0,0-1.28.94,1.88,1.88,0,0,0-.12.3,1.68,1.68,0,0,0,0,.67l1.67-.24Z" fill="#2b2a2a"/><path d="M191.76,161.75a1.65,1.65,0,0,0-.42-.89,1.68,1.68,0,0,0-2.78.4,1.67,1.67,0,0,0-.16.63,1.29,1.29,0,0,0,0,.34l3.35-.48Z" fill="#2b2a2a"/><path d="M204.64,144.51l-.48-3.35h0a1.73,1.73,0,0,0-1.11.66,1.69,1.69,0,0,0,.92,2.65A1.51,1.51,0,0,0,204.64,144.51Z" fill="#2b2a2a"/><path d="M187.91,146.93A1.69,1.69,0,1,0,186,145.5,1.69,1.69,0,0,0,187.91,146.93Z" fill="#2b2a2a"/><path d="M180.75,156.51a1.69,1.69,0,1,0-1.92-1.43A1.7,1.7,0,0,0,180.75,156.51Z" fill="#2b2a2a"/><path d="M197,150.74a1.69,1.69,0,1,0,1.92,1.43A1.69,1.69,0,0,0,197,150.74Z" fill="#2b2a2a"/><path d="M179.76,137.86a1.69,1.69,0,1,0-1.43,1.91A1.69,1.69,0,0,0,179.76,137.86Z" fill="#2b2a2a"/><path d="M195.07,137.35a1.69,1.69,0,1,0-1.92-1.43A1.69,1.69,0,0,0,195.07,137.35Z" fill="#2b2a2a"/><path d="M175,164.17a1.7,1.7,0,0,0-1.57-1.45,1.94,1.94,0,0,0-.34,0h0l.24,1.67Z" fill="#2b2a2a"/><path d="M171.17,149.35A1.69,1.69,0,0,0,171,146a1.29,1.29,0,0,0-.34,0l.48,3.35Z" fill="#2b2a2a"/><path d="M200.31,126.34a1.59,1.59,0,0,0,.08.33,2.09,2.09,0,0,0,.14.3,1.69,1.69,0,0,0,1.69.8L202,126.1Z" fill="#2b2a2a"/><path d="M184.23,129.87a1.7,1.7,0,0,0,2.71-1.25,1.94,1.94,0,0,0,0-.34l-3.35.48A1.73,1.73,0,0,0,184.23,129.87Z" fill="#2b2a2a"/><path d="M168.75,132.61h0a1.87,1.87,0,0,0,.34-.08A1.7,1.7,0,0,0,170.2,131a1.3,1.3,0,0,0,0-.34l-1.67.24Z" fill="#2b2a2a"/><path d="M211.42,191.37a1.68,1.68,0,0,0-.9.42A1.7,1.7,0,0,0,210,193a2,2,0,0,0,0,.34l1.68-.24Z" fill="#2b2a2a"/><path d="M195.35,193.83a1.67,1.67,0,0,0-.67,0l-.33.08a1.7,1.7,0,0,0-1.12,1.49,2.06,2.06,0,0,0,0,.35l3.35-.49A1.7,1.7,0,0,0,195.35,193.83Z" fill="#2b2a2a"/><path d="M209.48,178l-.48-3.34a1.69,1.69,0,0,0-1.44,1.91,1.7,1.7,0,0,0,.67,1.11A1.65,1.65,0,0,0,209.48,178Z" fill="#2b2a2a"/><path d="M192.74,180.4a1.69,1.69,0,1,0-1.91-1.43A1.69,1.69,0,0,0,192.74,180.4Z" fill="#2b2a2a"/><path d="M185.1,186.63a1.69,1.69,0,1,0,1.92,1.43A1.7,1.7,0,0,0,185.1,186.63Z" fill="#2b2a2a"/><path d="M202.32,187.56a1.69,1.69,0,1,0-1.91-1.43A1.68,1.68,0,0,0,202.32,187.56Z" fill="#2b2a2a"/><path d="M183.17,173.24a1.69,1.69,0,1,0-1.92-1.43A1.69,1.69,0,0,0,183.17,173.24Z" fill="#2b2a2a"/><path d="M201.34,168.91a1.69,1.69,0,1,0-1.44,1.91A1.69,1.69,0,0,0,201.34,168.91Z" fill="#2b2a2a"/><path d="M207.06,161.25h0l-.24-1.68-1.67.24h0a1.3,1.3,0,0,0,.08.34,1.73,1.73,0,0,0,.58.78A1.7,1.7,0,0,0,207.06,161.25Z" fill="#2b2a2a"/><path d="M189.07,163.35a1.72,1.72,0,0,0,1.26.31,1.68,1.68,0,0,0,1.39-1.24,1.67,1.67,0,0,0,0-.67l-3.35.48h0A1.72,1.72,0,0,0,189.07,163.35Z" fill="#2b2a2a"/><path d="M173.59,166.08a1.65,1.65,0,0,0,.89-.42,1.43,1.43,0,0,0,.39-.52,1.68,1.68,0,0,0,.17-.63,1.94,1.94,0,0,0,0-.34h0l-1.67.24Z" fill="#2b2a2a"/><path d="M212.72,208.77a1.65,1.65,0,0,0-.32,1.11l1.17-1.7A1.61,1.61,0,0,0,212.72,208.77Z" fill="#2b2a2a"/><path d="M199,212a1.68,1.68,0,0,0-1.91-1.43,1.63,1.63,0,0,0-.91.44l1.65,2.84A1.69,1.69,0,0,0,199,212Z" fill="#2b2a2a"/><path d="M206.68,217.69a1.69,1.69,0,0,0-1.44,1.91,2.15,2.15,0,0,0,.14.45l1.64-2.38A1.3,1.3,0,0,0,206.68,217.69Z" fill="#2b2a2a"/><path d="M204.26,201a1.69,1.69,0,1,0,1.91,1.43A1.69,1.69,0,0,0,204.26,201Z" fill="#2b2a2a"/><path d="M210,193.29h0a2,2,0,0,0,.09.33,1,1,0,0,0,.14.3,1.7,1.7,0,0,0,1.69.8l-.24-1.67Z" fill="#2b2a2a"/><path d="M193.25,195.71h0a1.69,1.69,0,0,0,.66,1.11,1.69,1.69,0,0,0,2.7-1.26,2,2,0,0,0,0-.34h0Z" fill="#2b2a2a"/><path d="M154,30.52l-.24-1.67h0a1.67,1.67,0,0,0-1.28.93,1.56,1.56,0,0,0-.17.64,1.3,1.3,0,0,0,0,.34Z" fill="#2b2a2a"/><path d="M137.36,31.25a2,2,0,0,0-.34,0,1.78,1.78,0,0,0-.33.09,1.66,1.66,0,0,0-1.11,1.49,1.3,1.3,0,0,0,0,.34l3.35-.48A1.7,1.7,0,0,0,137.36,31.25Z" fill="#2b2a2a"/><path d="M149.91,14a1.7,1.7,0,0,0,.94,1.29,1.68,1.68,0,0,0,1,.15l-.48-3.35h0a1.71,1.71,0,0,0-.9.42A1.68,1.68,0,0,0,149.91,14Z" fill="#2b2a2a"/><path d="M144.66,25a1.69,1.69,0,1,0-1.91-1.43A1.69,1.69,0,0,0,144.66,25Z" fill="#2b2a2a"/><path d="M122.2,35.1l0,0h0Z" fill="#2b2a2a"/><path d="M158.6,62.32a1.68,1.68,0,0,0-.9.42,1.82,1.82,0,0,0-.39.52,2.65,2.65,0,0,0-.11.3,1.68,1.68,0,0,0,0,.67l1.68-.24Z" fill="#2b2a2a"/><path d="M143.77,66.17h0a1.69,1.69,0,0,0-3.34.48h0Z" fill="#2b2a2a"/><path d="M154.74,47.5a1.9,1.9,0,0,0,.23.63,1.55,1.55,0,0,0,.44.48,1.65,1.65,0,0,0,1.25.32h0l-.48-3.35A1.7,1.7,0,0,0,154.74,47.5Z" fill="#2b2a2a"/><path d="M139.44,48a1.69,1.69,0,1,0,1.92,1.43A1.71,1.71,0,0,0,139.44,48Z" fill="#2b2a2a"/><path d="M130.85,59.49a1.69,1.69,0,1,0,1.43-1.91A1.69,1.69,0,0,0,130.85,59.49Z" fill="#2b2a2a"/><path d="M147.59,57.08A1.69,1.69,0,1,0,149,55.16,1.69,1.69,0,0,0,147.59,57.08Z" fill="#2b2a2a"/><path d="M129.86,40.84a1.69,1.69,0,1,0,1.92,1.43A1.69,1.69,0,0,0,129.86,40.84Z" fill="#2b2a2a"/><path d="M146.6,38.42a1.69,1.69,0,1,0,1.91,1.44A1.69,1.69,0,0,0,146.6,38.42Z" fill="#2b2a2a"/><path d="M127,68.59a1.7,1.7,0,0,0-1.57-1.45,1.37,1.37,0,0,0-.35,0h0l.25,1.67Z" fill="#2b2a2a"/><path d="M122.7,50.42l.49,3.35a1.7,1.7,0,0,0-.14-3.37,2.06,2.06,0,0,0-.35,0Z" fill="#2b2a2a"/><path d="M152.33,30.76h0a1.14,1.14,0,0,0,.08.33,1.63,1.63,0,0,0,.58.78,1.65,1.65,0,0,0,1.25.32h0L154,30.52Z" fill="#2b2a2a"/><path d="M136.25,34.29a1.66,1.66,0,0,0,1.25.32A1.69,1.69,0,0,0,139,33a1.93,1.93,0,0,0,0-.34h0l-3.35.48h0A1.69,1.69,0,0,0,136.25,34.29Z" fill="#2b2a2a"/><path d="M122.16,35.78a1.65,1.65,0,0,0,0-.67h0l-1.46,1.54,0,.37A1.68,1.68,0,0,0,122.16,35.78Z" fill="#2b2a2a"/><path d="M163.43,95.79h0l-.33.08A1.7,1.7,0,0,0,162,97a1.67,1.67,0,0,0,0,.67l1.67-.25Z" fill="#2b2a2a"/><path d="M148,98.53a1.66,1.66,0,0,0-1.25-.32,1.87,1.87,0,0,0-.34.08,1.7,1.7,0,0,0-1.11,1.49,2,2,0,0,0,0,.35l3.35-.49A1.65,1.65,0,0,0,148,98.53Z" fill="#2b2a2a"/><path d="M161,79.06A1.69,1.69,0,0,0,159.58,81a1.66,1.66,0,0,0,.94,1.28,1.7,1.7,0,0,0,1,.15L161,79.06Z" fill="#2b2a2a"/><path d="M142.85,83.39a1.69,1.69,0,1,0,1.43-1.92A1.68,1.68,0,0,0,142.85,83.39Z" fill="#2b2a2a"/><path d="M135.69,93a1.69,1.69,0,1,0,1.43-1.92A1.69,1.69,0,0,0,135.69,93Z" fill="#2b2a2a"/><path d="M152.42,90.55a1.69,1.69,0,1,0,1.43-1.92A1.7,1.7,0,0,0,152.42,90.55Z" fill="#2b2a2a"/><path d="M134.7,74.31a1.69,1.69,0,1,0,1.92,1.44A1.71,1.71,0,0,0,134.7,74.31Z" fill="#2b2a2a"/><path d="M151.44,71.9a1.69,1.69,0,1,0,1.91,1.43A1.69,1.69,0,0,0,151.44,71.9Z" fill="#2b2a2a"/><path d="M131.88,102.06a1.7,1.7,0,0,0-1.92-1.43l.24,1.67Z" fill="#2b2a2a"/><path d="M128,87.24h0a1.69,1.69,0,0,0-.15-3.36,2,2,0,0,0-.34,0Z" fill="#2b2a2a"/><path d="M157.58,65.13a1.69,1.69,0,0,0,1.5.53L158.84,64l-1.68.24h0A1.68,1.68,0,0,0,157.58,65.13Z" fill="#2b2a2a"/><path d="M142.34,68.08a1.68,1.68,0,0,0,1.45-1.57,1.3,1.3,0,0,0,0-.34l-3.34.48A1.68,1.68,0,0,0,142.34,68.08Z" fill="#2b2a2a"/><path d="M125.61,70.5a1.65,1.65,0,0,0,1.11-.66,1.56,1.56,0,0,0,.28-.58,1.68,1.68,0,0,0,0-.67h0l-1.67.24Z" fill="#2b2a2a"/><path d="M168.27,129.26a1.59,1.59,0,0,0-.33.09,1.66,1.66,0,0,0-.57.34,1.58,1.58,0,0,0-.38.51,1.73,1.73,0,0,0-.17.64,2,2,0,0,0,0,.34h0l1.67-.24Z" fill="#2b2a2a"/><path d="M151.53,131.68a1.7,1.7,0,0,0-1.43,1.92h0l3.35-.49h0A1.69,1.69,0,0,0,151.53,131.68Z" fill="#2b2a2a"/><path d="M166.33,115.88h0l-.48-3.35a1.69,1.69,0,0,0-1.43,1.91,1.74,1.74,0,0,0,.22.64,2,2,0,0,0,.44.48A1.71,1.71,0,0,0,166.33,115.88Z" fill="#2b2a2a"/><path d="M151,116.38a1.69,1.69,0,1,0-1.43,1.91A1.68,1.68,0,0,0,151,116.38Z" fill="#2b2a2a"/><path d="M142.44,127.87a1.69,1.69,0,1,0-1.92-1.43A1.7,1.7,0,0,0,142.44,127.87Z" fill="#2b2a2a"/><path d="M159.18,125.45a1.69,1.69,0,1,0-1.92-1.43A1.69,1.69,0,0,0,159.18,125.45Z" fill="#2b2a2a"/><path d="M141.45,109.22a1.69,1.69,0,1,0-1.43,1.91A1.68,1.68,0,0,0,141.45,109.22Z" fill="#2b2a2a"/><path d="M158.19,106.8a1.69,1.69,0,1,0-1.43,1.92A1.69,1.69,0,0,0,158.19,106.8Z" fill="#2b2a2a"/><path d="M136.71,135.53h0a1.32,1.32,0,0,0-.08-.33,1.7,1.7,0,0,0-1.49-1.11,1.29,1.29,0,0,0-.34,0h0l.24,1.67Z" fill="#2b2a2a"/><path d="M134.29,118.8a1.68,1.68,0,0,0-1.57-1.45,1.3,1.3,0,0,0-.34,0h0l.48,3.34A1.68,1.68,0,0,0,134.29,118.8Z" fill="#2b2a2a"/><path d="M163.92,99.14h0l-.25-1.68-1.67.25h0a2,2,0,0,0,.08.33,1.75,1.75,0,0,0,.58.78,1.69,1.69,0,0,0,.59.28A1.65,1.65,0,0,0,163.92,99.14Z" fill="#2b2a2a"/><path d="M145.26,100.13h0a1.7,1.7,0,0,0,3.37-.15,2,2,0,0,0,0-.34h0Z" fill="#2b2a2a"/><path d="M130.44,104a1.68,1.68,0,0,0,.9-.42,1.74,1.74,0,0,0,.5-.82,1.87,1.87,0,0,0,0-.67h0l-1.68.24Z" fill="#2b2a2a"/><path d="M173.11,162.74a1.66,1.66,0,0,0-1.28.94,1.57,1.57,0,0,0-.12.3,1.87,1.87,0,0,0,0,.67l1.68-.24Z" fill="#2b2a2a"/><path d="M157.87,165.69a1.72,1.72,0,0,0-2.13-.31,1.71,1.71,0,0,0-.65.71,1.58,1.58,0,0,0-.15,1l3.35-.48h0A1.75,1.75,0,0,0,157.87,165.69Z" fill="#2b2a2a"/><path d="M171.17,149.35l-.48-3.35h0a1.7,1.7,0,0,0-1.11.66,1.68,1.68,0,0,0-.32,1.26,1.71,1.71,0,0,0,.93,1.28A1.73,1.73,0,0,0,171.17,149.35Z" fill="#2b2a2a"/><path d="M152.52,150.33a1.69,1.69,0,1,0,1.43-1.91A1.69,1.69,0,0,0,152.52,150.33Z" fill="#2b2a2a"/><path d="M147.28,161.34a1.69,1.69,0,1,0-1.92-1.43A1.69,1.69,0,0,0,147.28,161.34Z" fill="#2b2a2a"/><path d="M163.53,155.58a1.69,1.69,0,0,0,.48,3.35,1.69,1.69,0,1,0-.48-3.35Z" fill="#2b2a2a"/><path d="M146.29,142.69a1.69,1.69,0,1,0-1.43,1.92A1.69,1.69,0,0,0,146.29,142.69Z" fill="#2b2a2a"/><path d="M161.59,142.19a1.69,1.69,0,1,0-1.91-1.43A1.69,1.69,0,0,0,161.59,142.19Z" fill="#2b2a2a"/><path d="M141.55,169a1.7,1.7,0,0,0-1.24-1.4,1.88,1.88,0,0,0-.67,0l.24,1.68Z" fill="#2b2a2a"/><path d="M137.7,154.19a1.7,1.7,0,0,0-.14-3.37,1.94,1.94,0,0,0-.34,0l.48,3.35Z" fill="#2b2a2a"/><path d="M168.75,132.61l-.24-1.67-1.67.24a1.23,1.23,0,0,0,.08.33A1.69,1.69,0,0,0,168.75,132.61Z" fill="#2b2a2a"/><path d="M152,135a1.68,1.68,0,0,0,1.44-1.57,1.37,1.37,0,0,0,0-.35l-3.35.49A1.7,1.7,0,0,0,152,135Z" fill="#2b2a2a"/><path d="M135,135.77l.24,1.68a1.7,1.7,0,0,0,1.45-1.58,2,2,0,0,0,0-.34Z" fill="#2b2a2a"/><path d="M149.21,174.73a1.69,1.69,0,1,0,1.92,1.44A1.7,1.7,0,0,0,149.21,174.73Z" fill="#2b2a2a"/><path d="M144,185.74a1.68,1.68,0,0,0-1.57-1.44,1.37,1.37,0,0,0-.35,0h0l.49,3.35h0A1.69,1.69,0,0,0,144,185.74Z" fill="#2b2a2a"/><path d="M173.59,166.08h0l-.24-1.67-1.68.24h0a1.59,1.59,0,0,0,.09.33,1.63,1.63,0,0,0,.58.78A1.65,1.65,0,0,0,173.59,166.08Z" fill="#2b2a2a"/><path d="M154.94,167.07a1.69,1.69,0,0,0,.66,1.11,1.66,1.66,0,0,0,1.25.32,1.7,1.7,0,0,0,1.4-1.24,1.88,1.88,0,0,0,0-.67l-3.35.48Z" fill="#2b2a2a"/><path d="M140.12,170.92a1.65,1.65,0,0,0,.89-.42,1.71,1.71,0,0,0,.54-1.49h0l-1.67.24Z" fill="#2b2a2a"/><path d="M88.73,40a1.68,1.68,0,0,0-1.57-1.44,1.37,1.37,0,0,0-.35,0l.25,1.67Z" fill="#2b2a2a"/><path d="M125.12,67.16a1.68,1.68,0,0,0-.89.42,1.78,1.78,0,0,0-.39.51,1.63,1.63,0,0,0-.11.31,1.67,1.67,0,0,0,0,.67l1.68-.24Z" fill="#2b2a2a"/><path d="M110.3,71h0a1.69,1.69,0,1,0-3.34.48h0Z" fill="#2b2a2a"/><path d="M121.27,52.33a1.69,1.69,0,0,0,.23.64,1.65,1.65,0,0,0,.43.48,1.73,1.73,0,0,0,1.26.32h0l-.49-3.35A1.69,1.69,0,0,0,121.27,52.33Z" fill="#2b2a2a"/><path d="M106,52.84a1.69,1.69,0,1,0,1.91,1.43A1.68,1.68,0,0,0,106,52.84Z" fill="#2b2a2a"/><path d="M98.81,62.41a1.69,1.69,0,1,0,1.92,1.44A1.69,1.69,0,0,0,98.81,62.41Z" fill="#2b2a2a"/><path d="M116,63.34a1.69,1.69,0,1,0-1.92-1.43A1.68,1.68,0,0,0,116,63.34Z" fill="#2b2a2a"/><path d="M96.87,49A1.69,1.69,0,1,0,95,47.6,1.7,1.7,0,0,0,96.87,49Z" fill="#2b2a2a"/><path d="M113.61,46.61A1.69,1.69,0,0,0,115,44.69a1.65,1.65,0,0,0-.79-1.19L112,45.89A1.71,1.71,0,0,0,113.61,46.61Z" fill="#2b2a2a"/><path d="M93.57,73.42A1.69,1.69,0,0,0,92,72a2,2,0,0,0-.34,0h0l.24,1.68Z" fill="#2b2a2a"/><path d="M89.23,55.26l.49,3.34a1.69,1.69,0,0,0-.14-3.36,2.06,2.06,0,0,0-.35,0Z" fill="#2b2a2a"/><path d="M120.77,37h0l0-.37-.36.37A1.41,1.41,0,0,0,120.77,37Z" fill="#2b2a2a"/><path d="M87.3,41.87a1.7,1.7,0,0,0,1.39-1.25,1.67,1.67,0,0,0,0-.67h0l-1.67.24Z" fill="#2b2a2a"/><path d="M130,100.63h0a1.77,1.77,0,0,0-.33.08,1.7,1.7,0,0,0-1.1,1.83l1.67-.24Z" fill="#2b2a2a"/><path d="M113.57,103a2.06,2.06,0,0,0-.35,0,1.32,1.32,0,0,0-.33.08,1.7,1.7,0,0,0-1.11,1.49,1.93,1.93,0,0,0,0,.34l3.35-.48A1.7,1.7,0,0,0,113.57,103Z" fill="#2b2a2a"/><path d="M127.54,83.89a1.68,1.68,0,0,0-.89.42,1.72,1.72,0,0,0-.54,1.5A1.69,1.69,0,0,0,128,87.24l-.49-3.35Z" fill="#2b2a2a"/><path d="M109.37,88.23a1.69,1.69,0,1,0,1.44-1.92A1.7,1.7,0,0,0,109.37,88.23Z" fill="#2b2a2a"/><path d="M102.22,97.8a1.69,1.69,0,1,0,1.43-1.91A1.69,1.69,0,0,0,102.22,97.8Z" fill="#2b2a2a"/><path d="M119,95.39a1.69,1.69,0,1,0,1.43-1.92A1.69,1.69,0,0,0,119,95.39Z" fill="#2b2a2a"/><path d="M101.23,79.15a1.69,1.69,0,1,0,1.91,1.43A1.68,1.68,0,0,0,101.23,79.15Z" fill="#2b2a2a"/><path d="M118,76.73a1.69,1.69,0,1,0,1.92,1.44A1.7,1.7,0,0,0,118,76.73Z" fill="#2b2a2a"/><path d="M98.4,106.9a1.66,1.66,0,0,0-1.91-1.43l.24,1.67Z" fill="#2b2a2a"/><path d="M94.55,92.08h0a1.69,1.69,0,0,0-.14-3.37,2,2,0,0,0-.34,0Z" fill="#2b2a2a"/><path d="M124.11,70a1.67,1.67,0,0,0,1.5.54h0l-.24-1.67-1.68.24h0A1.65,1.65,0,0,0,124.11,70Z" fill="#2b2a2a"/><path d="M108.87,72.92a1.7,1.7,0,0,0,1.45-1.57,1.94,1.94,0,0,0,0-.34l-3.34.48A1.69,1.69,0,0,0,108.87,72.92Z" fill="#2b2a2a"/><path d="M92.14,75.34a1.73,1.73,0,0,0,1.11-.66,1.78,1.78,0,0,0,.28-.59,1.85,1.85,0,0,0,0-.67h0l-1.68.25Z" fill="#2b2a2a"/><path d="M134.8,134.1l-.33.08a1.8,1.8,0,0,0-.57.34,1.62,1.62,0,0,0-.38.52,1.66,1.66,0,0,0-.12.31,3.06,3.06,0,0,0-.05.32,1.37,1.37,0,0,0,0,.35h0l1.67-.25Z" fill="#2b2a2a"/><path d="M118.06,136.52a1.69,1.69,0,0,0-1.43,1.91h0L120,138h0A1.7,1.7,0,0,0,118.06,136.52Z" fill="#2b2a2a"/><path d="M132.86,120.71h0l-.48-3.34a1.69,1.69,0,0,0,.48,3.34Z" fill="#2b2a2a"/><path d="M116.13,123.13a1.69,1.69,0,1,0-1.92-1.43A1.69,1.69,0,0,0,116.13,123.13Z" fill="#2b2a2a"/><path d="M109,132.71a1.69,1.69,0,1,0-1.92-1.43A1.7,1.7,0,0,0,109,132.71Z" fill="#2b2a2a"/><path d="M125.7,130.29a1.69,1.69,0,1,0-1.91-1.43A1.69,1.69,0,0,0,125.7,130.29Z" fill="#2b2a2a"/><path d="M108,114.06a1.69,1.69,0,1,0-1.43,1.91A1.69,1.69,0,0,0,108,114.06Z" fill="#2b2a2a"/><path d="M124.72,111.64a1.69,1.69,0,1,0-1.43,1.91A1.69,1.69,0,0,0,124.72,111.64Z" fill="#2b2a2a"/><path d="M103.24,140.37h0a1.59,1.59,0,0,0-.08-.33,1.7,1.7,0,0,0-1.49-1.12,1.94,1.94,0,0,0-.34,0h0l.24,1.67Z" fill="#2b2a2a"/><path d="M100.82,123.63a1.68,1.68,0,0,0-1.57-1.44,1.93,1.93,0,0,0-.34,0h0l.48,3.35A1.68,1.68,0,0,0,100.82,123.63Z" fill="#2b2a2a"/><path d="M130.44,104h0l-.24-1.67-1.67.24h0a1.68,1.68,0,0,0,.66,1.12A1.7,1.7,0,0,0,130.44,104Z" fill="#2b2a2a"/><path d="M112.45,106.07a1.69,1.69,0,0,0,1.26.32,1.67,1.67,0,0,0,1.44-1.57,1.29,1.29,0,0,0,0-.34h0l-3.35.48h0A1.7,1.7,0,0,0,112.45,106.07Z" fill="#2b2a2a"/><path d="M97,108.81a1.68,1.68,0,0,0,.9-.42,1.74,1.74,0,0,0,.5-.82,1.68,1.68,0,0,0,0-.67h0l-1.67.24Z" fill="#2b2a2a"/><path d="M139.64,167.57h0a1.72,1.72,0,0,0-1.29.94,2.83,2.83,0,0,0-.11.31,1.67,1.67,0,0,0,0,.67l1.68-.24Z" fill="#2b2a2a"/><path d="M124.39,170.53a1.69,1.69,0,0,0-1.49-.54,1.72,1.72,0,0,0-1.28.94,1.73,1.73,0,0,0-.17.64,2,2,0,0,0,0,.34l3.34-.49h0A1.68,1.68,0,0,0,124.39,170.53Z" fill="#2b2a2a"/><path d="M137.7,154.19l-.48-3.35h0a1.68,1.68,0,0,0-.9.42,1.68,1.68,0,0,0,.4,2.77A1.64,1.64,0,0,0,137.7,154.19Z" fill="#2b2a2a"/><path d="M121,156.6a1.69,1.69,0,1,0-1.91-1.43A1.69,1.69,0,0,0,121,156.6Z" fill="#2b2a2a"/><path d="M113.81,166.18a1.69,1.69,0,1,0-1.92-1.43A1.69,1.69,0,0,0,113.81,166.18Z" fill="#2b2a2a"/><path d="M130.54,163.76a1.69,1.69,0,1,0-1.91-1.43A1.68,1.68,0,0,0,130.54,163.76Z" fill="#2b2a2a"/><path d="M112.82,147.53a1.69,1.69,0,1,0-1.43,1.91A1.69,1.69,0,0,0,112.82,147.53Z" fill="#2b2a2a"/><path d="M129.56,145.11a1.7,1.7,0,0,0-1.92-1.43,1.69,1.69,0,0,0,.48,3.35A1.7,1.7,0,0,0,129.56,145.11Z" fill="#2b2a2a"/><path d="M108.08,173.84a1.7,1.7,0,0,0-1.25-1.39,1.67,1.67,0,0,0-.67,0l.25,1.67Z" fill="#2b2a2a"/><path d="M104.23,159a1.69,1.69,0,0,0-.14-3.36,1.9,1.9,0,0,0-.34,0l.48,3.35Z" fill="#2b2a2a"/><path d="M133.37,136a1.32,1.32,0,0,0,.08.33,2,2,0,0,0,.14.3,1.7,1.7,0,0,0,1.69.8h0l-.24-1.68Z" fill="#2b2a2a"/><path d="M118.55,139.87a1.69,1.69,0,0,0,1.44-1.58,2,2,0,0,0,0-.34l-3.35.48A1.69,1.69,0,0,0,118.55,139.87Z" fill="#2b2a2a"/><path d="M101.57,140.61l.24,1.67a1.68,1.68,0,0,0,1.45-1.57,2,2,0,0,0,0-.34Z" fill="#2b2a2a"/><path d="M128.41,203.5a1.68,1.68,0,0,0-.67,0,1.3,1.3,0,0,0-.34.08,1.7,1.7,0,0,0-1.11,1.49,1.32,1.32,0,0,0,0,.34l2-.29,1-1A1.67,1.67,0,0,0,128.41,203.5Z" fill="#2b2a2a"/><path d="M141.16,184.73a1.69,1.69,0,0,0,.12,2.61,1.69,1.69,0,0,0,1.26.32h0l-.49-3.35A1.68,1.68,0,0,0,141.16,184.73Z" fill="#2b2a2a"/><path d="M125.32,186.73a1.69,1.69,0,1,0,1.91,1.43A1.68,1.68,0,0,0,125.32,186.73Z" fill="#2b2a2a"/><path d="M118.64,199.65a1.69,1.69,0,1,0-1.91-1.43A1.68,1.68,0,0,0,118.64,199.65Z" fill="#2b2a2a"/><path d="M136.81,195.32a1.69,1.69,0,0,0-3.35.48,1.68,1.68,0,0,0,2.74,1.07l.31-.32A1.71,1.71,0,0,0,136.81,195.32Z" fill="#2b2a2a"/><path d="M117.66,181a1.71,1.71,0,0,0-1.92-1.43,1.69,1.69,0,1,0,1.92,1.43Z" fill="#2b2a2a"/><path d="M132.48,177.15a1.69,1.69,0,1,0,1.91,1.43A1.69,1.69,0,0,0,132.48,177.15Z" fill="#2b2a2a"/><path d="M112.92,207.32a1.7,1.7,0,0,0-1.58-1.45,2,2,0,0,0-.34,0h0l.24,1.68Z" fill="#2b2a2a"/><path d="M110.5,190.58a1.7,1.7,0,0,0-1.58-1.45,2,2,0,0,0-.34,0h0l.49,3.35h0A1.71,1.71,0,0,0,110.5,190.58Z" fill="#2b2a2a"/><path d="M140.12,170.92h0l-.24-1.67-1.68.24h0a1.73,1.73,0,0,0,.66,1.11A1.69,1.69,0,0,0,140.12,170.92Z" fill="#2b2a2a"/><path d="M121.47,171.91a1.69,1.69,0,0,0,1.91,1.43,1.7,1.7,0,0,0,1.4-1.25,1.67,1.67,0,0,0,0-.67l-3.34.49Z" fill="#2b2a2a"/><path d="M106.65,175.76a1.68,1.68,0,0,0,.89-.42,1.72,1.72,0,0,0,.54-1.5h0l-1.67.24Z" fill="#2b2a2a"/><path d="M119.14,214.7l1.59-1.66h-.15A1.68,1.68,0,0,0,119.14,214.7Z" fill="#2b2a2a"/><path d="M126.31,205.38a1.65,1.65,0,0,0,.66,1.11h0l1.35-1.41-2,.29Z" fill="#2b2a2a"/><path d="M111.48,209.23a1.7,1.7,0,0,0,1.4-1.24,1.88,1.88,0,0,0,0-.67h0l-1.68.24Z" fill="#2b2a2a"/><path d="M64,8.26c0,.05-.06.1-.08.14a2,2,0,0,0-.17.64,1.94,1.94,0,0,0,0,.34l1.34-.19Z" fill="#2b2a2a"/><path d="M87.06,40.19l-.25-1.67h0a1.69,1.69,0,0,0-1.11.66,1.73,1.73,0,0,0-.33.91,2,2,0,0,0,0,.35Z" fill="#2b2a2a"/><path d="M71.33,41.26a1.65,1.65,0,0,0-1.25-.32,1.59,1.59,0,0,0-.33.08,1.7,1.7,0,0,0-1.12,1.49,1.94,1.94,0,0,0,0,.34L72,42.37A1.65,1.65,0,0,0,71.33,41.26Z" fill="#2b2a2a"/><path d="M83.9,25l.1,0-.8-.67A1.77,1.77,0,0,0,83.9,25Z" fill="#2b2a2a"/><path d="M67.66,24.2a1.69,1.69,0,1,0,1.92,1.43A1.71,1.71,0,0,0,67.66,24.2Z" fill="#2b2a2a"/><path d="M61,37.13a1.69,1.69,0,1,0-.48-3.35,1.66,1.66,0,0,0-.38.11l-.34,3A1.72,1.72,0,0,0,61,37.13Z" fill="#2b2a2a"/><path d="M77.72,34.71a1.69,1.69,0,1,0-1.92-1.43A1.69,1.69,0,0,0,77.72,34.71Z" fill="#2b2a2a"/><path d="M73.39,16.54A1.68,1.68,0,0,0,75.3,18a1.05,1.05,0,0,0,.24-.06l-2.15-1.8A1.24,1.24,0,0,0,73.39,16.54Z" fill="#2b2a2a"/><path d="M64.75,10.66a1.68,1.68,0,0,0,.63.17,1.94,1.94,0,0,0,.34,0,1.3,1.3,0,0,0,.34-.08,1.84,1.84,0,0,0,.54-.32L65.15,9.19l-1.34.19h0A1.66,1.66,0,0,0,64.75,10.66Z" fill="#2b2a2a"/><path d="M91.65,72a1.7,1.7,0,0,0-1.43,1.92l1.67-.24Z" fill="#2b2a2a"/><path d="M76.83,75.84h0a1.69,1.69,0,0,0-3.35.49h0Z" fill="#2b2a2a"/><path d="M87.8,57.17a1.49,1.49,0,0,0,.23.63,1.53,1.53,0,0,0,.43.48,1.68,1.68,0,0,0,1.26.32h0l-.49-3.34A1.69,1.69,0,0,0,87.8,57.17Z" fill="#2b2a2a"/><path d="M71.07,59.59a1.69,1.69,0,1,0,1.43-1.91A1.68,1.68,0,0,0,71.07,59.59Z" fill="#2b2a2a"/><path d="M63.91,69.17a1.69,1.69,0,1,0,1.43-1.92A1.69,1.69,0,0,0,63.91,69.17Z" fill="#2b2a2a"/><path d="M80.64,66.75a1.69,1.69,0,1,0,1.43-1.92A1.7,1.7,0,0,0,80.64,66.75Z" fill="#2b2a2a"/><path d="M62.92,50.52A1.69,1.69,0,1,0,64.84,52,1.68,1.68,0,0,0,62.92,50.52Z" fill="#2b2a2a"/><path d="M79.66,48.1a1.69,1.69,0,1,0,1.91,1.43A1.69,1.69,0,0,0,79.66,48.1Z" fill="#2b2a2a"/><path d="M60.09,78.26a1.67,1.67,0,0,0-1.57-1.44,1.3,1.3,0,0,0-.34,0h0l.24,1.67Z" fill="#2b2a2a"/><path d="M56.77,63.27a1.68,1.68,0,0,0,.32-2.79Z" fill="#2b2a2a"/><path d="M85.38,40.44h0c0,.11.05.22.08.33a2.1,2.1,0,0,0,.15.3,1.69,1.69,0,0,0,1.69.8h0l-.24-1.68Z" fill="#2b2a2a"/><path d="M68.73,43.19A1.69,1.69,0,0,0,72,42.71a1.32,1.32,0,0,0,0-.34h0l-3.34.48h0A1.3,1.3,0,0,0,68.73,43.19Z" fill="#2b2a2a"/><path d="M96.49,105.47h0A1.71,1.71,0,0,0,95,107a1.94,1.94,0,0,0,0,.34l1.67-.24Z" fill="#2b2a2a"/><path d="M81,108.2a1.73,1.73,0,0,0-1.26-.32l-.33.09a1.69,1.69,0,0,0-1.11,1.49,1.3,1.3,0,0,0,0,.34l3.35-.48A1.72,1.72,0,0,0,81,108.2Z" fill="#2b2a2a"/><path d="M94.07,88.73a1.69,1.69,0,0,0-1.43,1.91,1.7,1.7,0,0,0,.94,1.29,1.68,1.68,0,0,0,1,.15l-.48-3.35Z" fill="#2b2a2a"/><path d="M75.9,93.06a1.69,1.69,0,1,0,1.43-1.91A1.7,1.7,0,0,0,75.9,93.06Z" fill="#2b2a2a"/><path d="M68.74,102.64a1.69,1.69,0,1,0,1.44-1.92A1.71,1.71,0,0,0,68.74,102.64Z" fill="#2b2a2a"/><path d="M85.48,100.22a1.69,1.69,0,1,0,1.43-1.91A1.68,1.68,0,0,0,85.48,100.22Z" fill="#2b2a2a"/><path d="M67.76,84a1.69,1.69,0,1,0,1.91,1.43A1.68,1.68,0,0,0,67.76,84Z" fill="#2b2a2a"/><path d="M84.49,81.57A1.69,1.69,0,1,0,86.41,83,1.69,1.69,0,0,0,84.49,81.57Z" fill="#2b2a2a"/><path d="M64.93,111.73a1.7,1.7,0,0,0-1.24-1.39,1.67,1.67,0,0,0-.67,0l.24,1.68Z" fill="#2b2a2a"/><path d="M61.08,96.91h0a1.14,1.14,0,0,0,.33-.08,1.7,1.7,0,0,0,1.07-1.16,1.75,1.75,0,0,0-.39-1.57,1.7,1.7,0,0,0-1.15-.55,1.94,1.94,0,0,0-.34,0Z" fill="#2b2a2a"/><path d="M90.3,74.24a1.68,1.68,0,0,0,.34.56,1.82,1.82,0,0,0,.52.39,1.7,1.7,0,0,0,1,.15h0l-.25-1.67-1.67.24h0A2,2,0,0,0,90.3,74.24Z" fill="#2b2a2a"/><path d="M75.4,77.76a1.7,1.7,0,0,0,1.45-1.58,2,2,0,0,0,0-.34l-3.35.49A1.7,1.7,0,0,0,75.4,77.76Z" fill="#2b2a2a"/><path d="M58.66,80.18a1.72,1.72,0,0,0,1.12-.66,1.88,1.88,0,0,0,.28-.59,1.67,1.67,0,0,0,0-.67h0l-1.67.24Z" fill="#2b2a2a"/><path d="M101.33,138.94a1.87,1.87,0,0,0-.34.08,1.74,1.74,0,0,0-.78.58,1.73,1.73,0,0,0-.28.58,1.88,1.88,0,0,0-.05.33,1.93,1.93,0,0,0,0,.34h0l1.68-.24Z" fill="#2b2a2a"/><path d="M84.59,141.36a1.68,1.68,0,0,0-1.43,1.91h0l3.35-.48h0A1.69,1.69,0,0,0,84.59,141.36Z" fill="#2b2a2a"/><path d="M99.39,125.55h0l-.48-3.35a1.7,1.7,0,0,0-1.21,2.55,1.55,1.55,0,0,0,.44.48A1.65,1.65,0,0,0,99.39,125.55Z" fill="#2b2a2a"/><path d="M80.74,126.54a1.69,1.69,0,1,0,1.43-1.92A1.69,1.69,0,0,0,80.74,126.54Z" fill="#2b2a2a"/><path d="M73.58,136.11A1.69,1.69,0,1,0,75,134.2,1.7,1.7,0,0,0,73.58,136.11Z" fill="#2b2a2a"/><path d="M92.23,135.13a1.69,1.69,0,1,0-1.91-1.43A1.69,1.69,0,0,0,92.23,135.13Z" fill="#2b2a2a"/><path d="M72.59,117.46a1.69,1.69,0,1,0,1.92,1.43A1.69,1.69,0,0,0,72.59,117.46Z" fill="#2b2a2a"/><path d="M91.25,116.48a1.69,1.69,0,1,0-1.44,1.91A1.71,1.71,0,0,0,91.25,116.48Z" fill="#2b2a2a"/><path d="M69.77,145.21h0a3.38,3.38,0,0,0-.08-.34,1.7,1.7,0,0,0-1.49-1.11,1.37,1.37,0,0,0-.35,0h0l.25,1.67Z" fill="#2b2a2a"/><path d="M67.35,128.47A1.69,1.69,0,0,0,65.44,127l.48,3.35A1.71,1.71,0,0,0,67.35,128.47Z" fill="#2b2a2a"/><path d="M95.72,108.49a1.65,1.65,0,0,0,1.25.32h0l-.24-1.67-1.67.24h0a1.64,1.64,0,0,0,.66,1.11Z" fill="#2b2a2a"/><path d="M78.4,110.13a1.69,1.69,0,0,0,3.28-.47,1.29,1.29,0,0,0,0-.34h0l-3.35.48h0A3.18,3.18,0,0,0,78.4,110.13Z" fill="#2b2a2a"/><path d="M63.5,113.65a1.71,1.71,0,0,0,.9-.42,1.68,1.68,0,0,0,.49-.83,1.5,1.5,0,0,0,0-.67h0l-1.67.25Z" fill="#2b2a2a"/><path d="M106.16,172.41h0a1.73,1.73,0,0,0-1.11.66,1.61,1.61,0,0,0-.28.59,1.67,1.67,0,0,0,0,.67l1.68-.25Z" fill="#2b2a2a"/><path d="M104.23,159l-.48-3.35h0a1.76,1.76,0,0,0-.9.43,1.69,1.69,0,0,0,1.38,2.92Z" fill="#2b2a2a"/><path d="M87.49,161.44A1.69,1.69,0,1,0,85.58,160,1.68,1.68,0,0,0,87.49,161.44Z" fill="#2b2a2a"/><path d="M97.07,168.6a1.69,1.69,0,1,0-1.92-1.43A1.69,1.69,0,0,0,97.07,168.6Z" fill="#2b2a2a"/><path d="M77.43,150.93A1.7,1.7,0,0,0,76,152.85a1.69,1.69,0,0,0,3.35-.48A1.71,1.71,0,0,0,77.43,150.93Z" fill="#2b2a2a"/><path d="M96.08,150a1.69,1.69,0,1,0-1.43,1.91A1.69,1.69,0,0,0,96.08,150Z" fill="#2b2a2a"/><path d="M72.19,161.94a1.7,1.7,0,0,0-.23-.63,1.67,1.67,0,0,0-1.34-.81,2,2,0,0,0-.35,0l.49,3.35h0a2,2,0,0,0,.33-.08,1.68,1.68,0,0,0,1.06-1.17A1.67,1.67,0,0,0,72.19,161.94Z" fill="#2b2a2a"/><path d="M99.89,140.85a1.89,1.89,0,0,0,.09.34,1.69,1.69,0,0,0,1.83,1.09h0l-.24-1.67Z" fill="#2b2a2a"/><path d="M85.07,144.7a1.68,1.68,0,0,0,1.45-1.57,1.93,1.93,0,0,0,0-.34l-3.35.48A1.68,1.68,0,0,0,85.07,144.7Z" fill="#2b2a2a"/><path d="M68.34,147.12a1.68,1.68,0,0,0,1.44-1.57,1.29,1.29,0,0,0,0-.34l-1.67.24Z" fill="#2b2a2a"/><path d="M111,205.88a1.7,1.7,0,0,0-1.45,1.58,2,2,0,0,0,0,.34l1.67-.24Z" fill="#2b2a2a"/><path d="M94.26,208.3a1.69,1.69,0,0,0-1.44,1.58,2,2,0,0,0,0,.34h0l3.35-.49A1.69,1.69,0,0,0,94.26,208.3Z" fill="#2b2a2a"/><path d="M107.69,189.57a1.69,1.69,0,0,0,.12,2.61,1.72,1.72,0,0,0,1.26.32h0l-.49-3.35A1.68,1.68,0,0,0,107.69,189.57Z" fill="#2b2a2a"/><path d="M93.76,193a1.68,1.68,0,0,0-1.86-1.44l0,3.36A1.69,1.69,0,0,0,93.76,193Z" fill="#2b2a2a"/><path d="M101.91,202.07a1.69,1.69,0,1,0-1.92-1.43A1.69,1.69,0,0,0,101.91,202.07Z" fill="#2b2a2a"/><path d="M100.92,183.42a1.69,1.69,0,0,0-3.35.48,1.69,1.69,0,1,0,3.35-.48Z" fill="#2b2a2a"/><path d="M105.39,175.44a1.72,1.72,0,0,0,1.26.32h0l-.24-1.68-1.68.25h0a1.54,1.54,0,0,0,.23.63A1.65,1.65,0,0,0,105.39,175.44Z" fill="#2b2a2a"/><path d="M97.17,228.39A1.69,1.69,0,1,0,95.25,227,1.71,1.71,0,0,0,97.17,228.39Z" fill="#2b2a2a"/><path d="M103.84,215.46a1.69,1.69,0,1,0,1.92,1.43A1.69,1.69,0,0,0,103.84,215.46Z" fill="#2b2a2a"/><path d="M109.65,208.13a1.71,1.71,0,0,0,.86,1,1.68,1.68,0,0,0,1,.15h0l-.24-1.67-1.67.24h0A1.77,1.77,0,0,0,109.65,208.13Z" fill="#2b2a2a"/><path d="M92.83,210.22a1.73,1.73,0,0,0,.66,1.11,1.7,1.7,0,0,0,2.71-1.25,2.06,2.06,0,0,0,0-.35h0Z" fill="#2b2a2a"/><path d="M58.18,76.83a1.69,1.69,0,0,0-1.39,1.24,1.55,1.55,0,0,0,0,.68l1.67-.25Z" fill="#2b2a2a"/><path d="M43.36,80.68h0a1.67,1.67,0,0,0-.56-1l-2.62.51a1.66,1.66,0,0,0-.17,1h0Z" fill="#2b2a2a"/><path d="M26.62,83.1a1.63,1.63,0,0,0-.07-.3l-1.63.32,0,.22Z" fill="#2b2a2a"/><path d="M63,110.3h0a1.68,1.68,0,0,0-1.45,1.58,1.32,1.32,0,0,0,0,.34l1.67-.24Z" fill="#2b2a2a"/><path d="M47.54,113a1.69,1.69,0,0,0-.59-.28,1.68,1.68,0,0,0-2.11,1.53,1.37,1.37,0,0,0,0,.35l3.35-.49A1.73,1.73,0,0,0,47.54,113Z" fill="#2b2a2a"/><path d="M60.6,93.57a1.68,1.68,0,0,0-.9.42,1.58,1.58,0,0,0-.38.51,1.73,1.73,0,0,0-.15,1,1.68,1.68,0,0,0,1.91,1.43l-.48-3.34Z" fill="#2b2a2a"/><path d="M42.43,97.9A1.69,1.69,0,1,0,43.86,96,1.69,1.69,0,0,0,42.43,97.9Z" fill="#2b2a2a"/><path d="M35.27,107.48a1.69,1.69,0,1,0,1.43-1.92A1.7,1.7,0,0,0,35.27,107.48Z" fill="#2b2a2a"/><path d="M52,105.06a1.69,1.69,0,1,0,1.43-1.92A1.69,1.69,0,0,0,52,105.06Z" fill="#2b2a2a"/><path d="M34.28,88.83a1.69,1.69,0,1,0,1.92,1.43A1.69,1.69,0,0,0,34.28,88.83Z" fill="#2b2a2a"/><path d="M51,86.41a1.69,1.69,0,1,0,1.92,1.43A1.69,1.69,0,0,0,51,86.41Z" fill="#2b2a2a"/><path d="M31.46,116.57a1.69,1.69,0,0,0-.22-.63,2.56,2.56,0,0,0-.2-.26,1.66,1.66,0,0,0-1.15-.55,1.29,1.29,0,0,0-.34,0l.24,1.67Z" fill="#2b2a2a"/><path d="M27.61,101.75h0a1.14,1.14,0,0,0,.33-.08,1.69,1.69,0,0,0-.47-3.28,1.93,1.93,0,0,0-.34,0Z" fill="#2b2a2a"/><path d="M56.83,79.08a1.69,1.69,0,0,0,1.83,1.1h0l-.24-1.68-1.67.25h0A1.32,1.32,0,0,0,56.83,79.08Z" fill="#2b2a2a"/><path d="M41.93,82.59A1.67,1.67,0,0,0,43.37,81a1.3,1.3,0,0,0,0-.34L40,81.16A1.69,1.69,0,0,0,41.93,82.59Z" fill="#2b2a2a"/><path d="M25.19,85a1.63,1.63,0,0,0,1.11-.66,1.76,1.76,0,0,0,.29-.58,1.67,1.67,0,0,0,0-.67h0L25,83.34Z" fill="#2b2a2a"/><path d="M67.85,143.78a1.32,1.32,0,0,0-.33.08,1.53,1.53,0,0,0-.56.34,1.7,1.7,0,0,0-.22.24,1.73,1.73,0,0,0-.28.58,1.26,1.26,0,0,0,0,.33,1.93,1.93,0,0,0,0,.34h0l1.68-.24Z" fill="#2b2a2a"/><path d="M52.31,146.48l-.6,1.34,1.32-.19h0A1.65,1.65,0,0,0,52.31,146.48Z" fill="#2b2a2a"/><path d="M65.92,130.39h0L65.44,127h0a1.68,1.68,0,0,0-1.12.66,1.7,1.7,0,0,0,1.6,2.69Z" fill="#2b2a2a"/><path d="M47.27,131.37a1.69,1.69,0,1,0,1.43-1.91A1.69,1.69,0,0,0,47.27,131.37Z" fill="#2b2a2a"/><path d="M58.76,140a1.69,1.69,0,1,0-1.91-1.43A1.68,1.68,0,0,0,58.76,140Z" fill="#2b2a2a"/><path d="M39.61,125.65a1.73,1.73,0,1,0-1.56-.63l.57.47A1.67,1.67,0,0,0,39.61,125.65Z" fill="#2b2a2a"/><path d="M56.34,123.23a1.69,1.69,0,1,0-1.91-1.43A1.69,1.69,0,0,0,56.34,123.23Z" fill="#2b2a2a"/><path d="M63.5,113.65h0L63.26,112l-1.67.24h0a1.67,1.67,0,0,0,1.91,1.43Z" fill="#2b2a2a"/><path d="M44.85,114.64h0a1.69,1.69,0,0,0,.66,1.11,1.69,1.69,0,0,0,2.7-1.26,2,2,0,0,0,0-.34h0Z" fill="#2b2a2a"/><path d="M30,118.49a1.78,1.78,0,0,0,.33-.09,1.66,1.66,0,0,0,.56-.33,1.69,1.69,0,0,0,.5-.83,1.67,1.67,0,0,0,0-.67h0l-1.67.24Z" fill="#2b2a2a"/><path d="M56,179.67a1.68,1.68,0,0,0-.64.22,1.74,1.74,0,0,0-.65.72,1.67,1.67,0,0,0-.16.63,1.07,1.07,0,0,0,0,.25l2.69-1.5A1.66,1.66,0,0,0,56,179.67Z" fill="#2b2a2a"/><path d="M70.27,160.51a1.68,1.68,0,0,0-.89.42,1.82,1.82,0,0,0-.39.52,1.69,1.69,0,0,0,1.77,2.41l-.49-3.35Z" fill="#2b2a2a"/><path d="M55.45,164.36A1.69,1.69,0,1,0,54,166.28,1.69,1.69,0,0,0,55.45,164.36Z" fill="#2b2a2a"/><path d="M46.38,172.51a1.69,1.69,0,1,0,1.91,1.43A1.68,1.68,0,0,0,46.38,172.51Z" fill="#2b2a2a"/><path d="M63.6,173.44A1.69,1.69,0,1,0,61.68,172,1.7,1.7,0,0,0,63.6,173.44Z" fill="#2b2a2a"/><path d="M62.61,154.79a1.69,1.69,0,1,0-1.43,1.91A1.69,1.69,0,0,0,62.61,154.79Z" fill="#2b2a2a"/><path d="M41.14,183.52a1.7,1.7,0,0,0-1.25-1.4,1.67,1.67,0,0,0-.67,0l.24,1.67Z" fill="#2b2a2a"/><path d="M68.34,147.12h0l-.24-1.67-1.68.24a1.59,1.59,0,0,0,.09.33,1.66,1.66,0,0,0,.85.95A1.7,1.7,0,0,0,68.34,147.12Z" fill="#2b2a2a"/><path d="M51,149.51A1.7,1.7,0,0,0,53.05,148a1.3,1.3,0,0,0,0-.34l-1.32.19Z" fill="#2b2a2a"/><path d="M39.7,185.43a1.87,1.87,0,0,0,.34-.08,1.7,1.7,0,0,0,1.1-1.83h0l-1.68.24Z" fill="#2b2a2a"/><path d="M25,83.34l0-.22-1.65.32a.66.66,0,0,0,0,.14Z" fill="#2b2a2a"/><path d="M29.55,115.14h0a1.54,1.54,0,0,0-.64.23,1.67,1.67,0,0,0-.81,1.34.74.74,0,0,0,0,.21l.13.12,1.55-.23Z" fill="#2b2a2a"/><path d="M27.13,98.4a1.69,1.69,0,1,0,.48,3.35l-.48-3.35Z" fill="#2b2a2a"/><path d="M12.31,102.25a1.71,1.71,0,0,0-1.92-1.43,1.68,1.68,0,0,0-1.15.73l2.6,2.12A1.72,1.72,0,0,0,12.31,102.25Z" fill="#2b2a2a"/><path d="M18.59,109.17l2.42,2a1.67,1.67,0,0,0,.87-1.73,1.69,1.69,0,0,0-3.29-.24Z" fill="#2b2a2a"/><path d="M2.73,95.1A1.69,1.69,0,0,0,.81,93.66,1.76,1.76,0,0,0,0,94l2.56,2.09A1.73,1.73,0,0,0,2.73,95.1Z" fill="#2b2a2a"/><path d="M18,94.59a1.69,1.69,0,1,0-1.91-1.43A1.69,1.69,0,0,0,18,94.59Z" fill="#2b2a2a"/><path d="M23.28,83.58h0a1.14,1.14,0,0,0,.08.33,1.63,1.63,0,0,0,.34.57,1.58,1.58,0,0,0,.51.38,1.73,1.73,0,0,0,1,.15h0L25,83.34Z" fill="#2b2a2a"/><path d="M8.46,87.43A1.7,1.7,0,0,0,9.88,86l-3.11.6A1.68,1.68,0,0,0,8.46,87.43Z" fill="#2b2a2a"/><polygon points="30.03 118.49 29.79 116.81 28.25 117.04 30.02 118.49 30.03 118.49 30.03 118.49" fill="#2b2a2a"/><path d="M39.22,182.09h0a1.71,1.71,0,0,0-1.45,1.57,1.94,1.94,0,0,0,0,.34l1.67-.24Z" fill="#2b2a2a"/><path d="M32.18,191.66,31,194.37a.93.93,0,0,0,.16.18L34,193A1.68,1.68,0,0,0,32.18,191.66Z" fill="#2b2a2a"/><path d="M38.45,185.11a1.66,1.66,0,0,0,1.25.32h0l-.24-1.67-1.67.24h0a1.69,1.69,0,0,0,.22.63A1.84,1.84,0,0,0,38.45,185.11Z" fill="#2b2a2a"/><path d="M166.36,191.35a88.92,88.92,0,0,1,28,12.7,119.07,119.07,0,0,1,22.74,20.21,178.11,178.11,0,0,1,17.76,24.46c5.25,8.58,10,17.46,14.47,26.41-4.88-8.76-9.95-17.43-15.53-25.74A174.68,174.68,0,0,0,215.21,226a115.9,115.9,0,0,0-22.92-18.75,84.66,84.66,0,0,0-27-11Z"/><path d="M266.74,150.22a100.78,100.78,0,0,0,3.43,46.7,102.11,102.11,0,0,0,24.21,40.78,103.31,103.31,0,0,1-26.57-40,104.46,104.46,0,0,1-6-48.21Z"/><polygon points="241.89 179.6 269.47 242.68 237.39 181.77 241.89 179.6"/><path d="M206.23,192.24a75.34,75.34,0,0,1,12.15,8.81,111.1,111.1,0,0,1,10.45,10.59,138.45,138.45,0,0,1,16.83,24.28,138.16,138.16,0,0,0-17.94-23.27,109.17,109.17,0,0,0-10.78-9.87,72.55,72.55,0,0,0-12.12-7.89Z"/><path d="M270.77,96a28.5,28.5,0,0,0,1.3-13.64C269.92,67.47,256.84,57,242.86,59c-.77.11-1.53.27-2.28.45-8.78-18.46-27.84-29.94-47.94-27a43.74,43.74,0,0,0-24.35,12.1c-10-10.73-24.39-16.54-39.36-14.38-25.09,3.63-42.29,28.29-38.42,55.07-22.38,3.24-37.72,25.23-34.26,49.12,3.3,22.86,22.62,39.17,43.89,37.7,8.62,18.88,27.92,30.7,48.29,27.76A44.34,44.34,0,0,0,178.51,181a44.74,44.74,0,0,0,37.38,12.37c22.16-3.21,38.16-22.82,38.92-45.82a24.22,24.22,0,0,0,12.67,1.58c14-2,23.57-15.76,21.41-30.68A27.5,27.5,0,0,0,270.77,96Z" fill="#f7ec41"/><path d="M270.59,96.12a8.76,8.76,0,0,1,.25-1l.23-.87c.15-.57.28-1.15.38-1.74a28.85,28.85,0,0,0,0-10.6,26.77,26.77,0,0,0-.87-3.42,25.64,25.64,0,0,0-1.26-3.29,27.32,27.32,0,0,0-3.72-5.92,31.92,31.92,0,0,0-2.37-2.56,32.59,32.59,0,0,0-2.71-2.17,23.69,23.69,0,0,0-6.11-3.22l-1.64-.54-1.68-.37a9.59,9.59,0,0,0-1.69-.26c-.58,0-1.14-.16-1.71-.16a21.82,21.82,0,0,0-3.43.12,22.84,22.84,0,0,0-3.37.58l-1,.19-.45-.87a54,54,0,0,0-5.64-8.88,49,49,0,0,0-7.38-7.44,44.19,44.19,0,0,0-18.62-9,42.18,42.18,0,0,0-20.55.73,43,43,0,0,0-17.73,10.42l-1.31,1.27L167,45.76A45.45,45.45,0,0,0,142.63,32a42,42,0,0,0-27.69,4.14l-1.57.87a11.39,11.39,0,0,0-1.54.92l-3,2-2.74,2.33-.69.58-.62.65-1.26,1.3A47.06,47.06,0,0,0,95.4,56.76a52.66,52.66,0,0,0-4.24,13.85,56.61,56.61,0,0,0,0,14.54l.08.62-.61.09a37.16,37.16,0,0,0-14.9,5.51,40.07,40.07,0,0,0-11.42,11A42.34,42.34,0,0,0,57.84,117a45,45,0,0,0-.78,15.85A44.11,44.11,0,0,0,71.3,160.33a40.84,40.84,0,0,0,13.39,8A37.27,37.27,0,0,0,100,170.38l1.12-.09.51,1.06a53.32,53.32,0,0,0,6.13,9.84,47.48,47.48,0,0,0,8.26,8.08c.79.56,1.52,1.2,2.35,1.69l2.44,1.55,2.55,1.34c.84.47,1.76.78,2.63,1.18A42.69,42.69,0,0,0,137.1,198a44.7,44.7,0,0,0,11.44-.22,41.2,41.2,0,0,0,10.93-3.35,43.93,43.93,0,0,0,17.29-14.67l1.43-2,1.8,1.71a44.45,44.45,0,0,0,22.1,11.52,40.41,40.41,0,0,0,12.56.45,44.49,44.49,0,0,0,12.13-3.32,44,44,0,0,0,18.88-16.46,47.72,47.72,0,0,0,5.39-11.55,53.17,53.17,0,0,0,2.2-12.6l.12-2.25,2,.85a22.78,22.78,0,0,0,19.29-.69,25.2,25.2,0,0,0,12.43-15.28A28.35,28.35,0,0,0,288.19,120a27.53,27.53,0,0,0-2.57-9.93c-.34-.8-.8-1.53-1.2-2.3s-.89-1.48-1.43-2.16a26.46,26.46,0,0,0-3.44-3.89,27.19,27.19,0,0,0-4.14-3.17A35.46,35.46,0,0,0,270.59,96.12Zm.36-.18a15.33,15.33,0,0,1,2.38.83,26.77,26.77,0,0,1,2.41,1.17,26.27,26.27,0,0,1,4.4,3.07,27.46,27.46,0,0,1,3.72,3.9c.58.68,1.05,1.46,1.57,2.19s1,1.53,1.34,2.35a29.79,29.79,0,0,1,2.29,21.18,27.48,27.48,0,0,1-13.15,17,25.84,25.84,0,0,1-10.67,3.08,25.46,25.46,0,0,1-11-1.8l2.15-1.4A56.45,56.45,0,0,1,254.26,161a50.88,50.88,0,0,1-5.58,12.49l-.91,1.45-.46.73-.52.68c-.7.92-1.38,1.84-2.09,2.74l-2.3,2.56c-.77.86-1.66,1.59-2.49,2.39a47.45,47.45,0,0,1-11.47,7.65,48.14,48.14,0,0,1-13.3,3.76,44.57,44.57,0,0,1-13.83-.39A47.77,47.77,0,0,1,177,182.49l3.22-.32a46.92,46.92,0,0,1-19.06,16,45.24,45.24,0,0,1-12,3.57,48.74,48.74,0,0,1-12.54.12,46.2,46.2,0,0,1-12.07-3.32c-1-.44-1.94-.79-2.85-1.31L119,195.73,116.32,194c-.89-.54-1.68-1.24-2.52-1.85a49.47,49.47,0,0,1-8.79-8.8,56.11,56.11,0,0,1-6.39-10.65l1.64,1a40.35,40.35,0,0,1-16.62-2.53,42.36,42.36,0,0,1-14.16-8.87,47.14,47.14,0,0,1-6.34-60.7A41.78,41.78,0,0,1,75,90.3a40.71,40.71,0,0,1,15.39-5.69l-.53.71a60.88,60.88,0,0,1-.11-14.9,56.06,56.06,0,0,1,4.11-14.36A48.81,48.81,0,0,1,102,43.47l1.27-1.39.64-.7.7-.63,2.82-2.53,3-2.23a11.67,11.67,0,0,1,1.59-1l1.64-1a44.88,44.88,0,0,1,29.46-5.17A47.62,47.62,0,0,1,169.6,43.32L167,43.26a45.22,45.22,0,0,1,24.74-12.44c.93-.17,1.87-.2,2.8-.31a23.79,23.79,0,0,1,2.8-.18l2.81,0,2.81.21a21.59,21.59,0,0,1,2.78.37,25.34,25.34,0,0,1,2.76.52,47.51,47.51,0,0,1,19.83,10l2.09,1.85c.67.64,1.3,1.32,1.95,2,.32.33.65.66,1,1l.89,1.07c.58.73,1.21,1.41,1.74,2.17a55.49,55.49,0,0,1,5.7,9.5l-1.42-.67a28,28,0,0,1,3.75-.55,25,25,0,0,1,3.77,0c.63,0,1.25.15,1.88.22a11.79,11.79,0,0,1,1.85.34l1.83.45,1.77.64A25.52,25.52,0,0,1,261.64,63a27.42,27.42,0,0,1,2.82,2.44,30.78,30.78,0,0,1,2.42,2.82,28.51,28.51,0,0,1,3.68,6.4,27,27,0,0,1,1.18,3.49,26.19,26.19,0,0,1,.76,3.6,27.89,27.89,0,0,1,.16,7.3,29,29,0,0,1-.63,3.59c-.14.59-.31,1.18-.48,1.76l-.29.86A4.82,4.82,0,0,1,271,95.94Z"/><path d="M72.81,143.82,71.14,72.46l20-.47a20.75,20.75,0,0,1,8.38,1.5,21.29,21.29,0,0,1,6.88,4.45,22.54,22.54,0,0,1,4.73,6.72A20.74,20.74,0,0,1,113,93a21.36,21.36,0,0,1-1.46,8.38,20.53,20.53,0,0,1-4.4,6.88,22.43,22.43,0,0,1-6.68,4.73,20.18,20.18,0,0,1-8.24,1.88l-5.84.14L87,143.49ZM86,100.65l5.74-.13a7,7,0,0,0,5-2.19,6.88,6.88,0,0,0,2-5,7.07,7.07,0,0,0-7.32-7l-5.74.13Z"/><path d="M157.94,73.25a34.23,34.23,0,0,1,13.58,3.81,36.05,36.05,0,0,1,10.76,8.46,36.49,36.49,0,0,1,6.84,11.87,35.3,35.3,0,0,1-2,27.61,36.09,36.09,0,0,1-20.31,17.62,35.27,35.27,0,0,1-27.58-2,36.21,36.21,0,0,1-17.59-20.33,35.43,35.43,0,0,1,2-27.62A36.09,36.09,0,0,1,144,75.08,34.2,34.2,0,0,1,157.94,73.25Zm-1,14.28a20.91,20.91,0,0,0-8.43,1.09,22.47,22.47,0,0,0-7.14,4.06,21.37,21.37,0,0,0-5.08,6.42,21.2,21.2,0,0,0-1.19,16.59,21.65,21.65,0,0,0,4.12,7.13,21.87,21.87,0,0,0,6.48,5.08,21.41,21.41,0,0,0,16.63,1.19,21.42,21.42,0,0,0,7.09-4.11,22.17,22.17,0,0,0,5-6.47,20.9,20.9,0,0,0,2.29-8.18,20.64,20.64,0,0,0-1.1-8.41,21.3,21.3,0,0,0-10.51-12.11A20.82,20.82,0,0,0,157,87.53Z"/><path d="M238.06,155.89l-1.69-41.38-17,37.78L205,149.5l-3-73.29L216.37,79l1.68,41.47,17-37.86,14.42,2.78,1.68,41.48,17-37.87,14.43,2.79-30.1,66.89Z"/><path d="M65.74,138.27,64.07,66.91l20-.47a20.75,20.75,0,0,1,8.38,1.5,21.32,21.32,0,0,1,6.88,4.46A22.24,22.24,0,0,1,104,79.12a20.7,20.7,0,0,1,1.89,8.29,21.16,21.16,0,0,1-1.46,8.37,20.43,20.43,0,0,1-4.4,6.88,22.25,22.25,0,0,1-6.68,4.73,20.35,20.35,0,0,1-8.24,1.89l-5.84.13L80,137.94ZM79,95.1,84.7,95a7,7,0,0,0,5-2.19,6.81,6.81,0,0,0,2-5,7.07,7.07,0,0,0-7.32-7l-5.74.14Z" fill="#bb4c46"/><path d="M65.64,138.38c-.41-5.68-.78-11.49-1.1-17.39s-.61-11.86-.82-17.87-.41-12.06-.4-18.12l.14-18.08V66.3h.59l5.81,0,5.81-.09L81.49,66a38.62,38.62,0,0,1,5.89,0,22.28,22.28,0,0,1,11,4.39,22.53,22.53,0,0,1,3.23,32.8,23.35,23.35,0,0,1-10.35,6.69,22,22,0,0,1-6.16.94l-5.81.08,1.48-1.55,0,7.13v7.14c0,4.76-.06,9.51-.11,14.27v.83H80c-2.47,0-4.92-.07-7.31-.15Zm.21-.21,7.19-.54c2.34-.2,4.63-.37,6.9-.49l-.78.82c-.27-4.75-.57-9.5-.78-14.25l-.32-7.13-.28-7.13-.06-1.5,1.54,0,5.81-.19a20.75,20.75,0,0,0,5.28-.87,21.25,21.25,0,0,0,9-5.7,19.6,19.6,0,0,0,4.83-9.51,21,21,0,0,0-.74-10.75,21.92,21.92,0,0,0-6.15-9,20.46,20.46,0,0,0-10.06-4.65,36.1,36.1,0,0,0-5.72-.2l-5.81.11-5.8.17-5.81.26.59-.63,1,17.61c.28,5.83.39,11.67.43,17.57s.05,11.81,0,17.8S66,132,65.85,138.17Z"/><path d="M79.06,95c1.69-.34,3.06-.7,4.31-.95.63-.12,1.24-.2,1.84-.3a6.46,6.46,0,0,0,1.66-.54,9.46,9.46,0,0,0,2.73-2.12,5.63,5.63,0,0,0,1.52-3.37A5,5,0,0,0,90,84a5.65,5.65,0,0,0-3.25-1.91,14.11,14.11,0,0,0-3.82.06c-1.41.12-2.82.22-4.24.3l1.56-1.63A45,45,0,0,1,80,87.47C79.75,89.77,79.43,92.21,79.06,95Zm-.21.22a67.86,67.86,0,0,1-1.24-6.69,55.56,55.56,0,0,1-.58-7.6V79.27l1.55,0c1.42,0,2.83,0,4.25.1.73,0,1.35,0,2.22.12a7.2,7.2,0,0,1,2.35.72,9.44,9.44,0,0,1,4.85,7.45,7.83,7.83,0,0,1-.7,4.69,6.9,6.9,0,0,1-3.67,3.27,7.51,7.51,0,0,1-2.45.48A21,21,0,0,1,83,96,32.55,32.55,0,0,1,78.85,95.21Z"/><path d="M150.87,67.7a34.28,34.28,0,0,1,13.59,3.81,36.12,36.12,0,0,1,17.59,20.33,35.32,35.32,0,0,1-2,27.62,36.11,36.11,0,0,1-20.3,17.62,35.24,35.24,0,0,1-27.59-2,36.12,36.12,0,0,1-17.59-20.33,35.43,35.43,0,0,1,2-27.62,36.1,36.1,0,0,1,20.31-17.61A34.06,34.06,0,0,1,150.87,67.7Zm-1,14.29a20.57,20.57,0,0,0-8.43,1.09,22.28,22.28,0,0,0-7.14,4.06,21.12,21.12,0,0,0-5.08,6.42,21.2,21.2,0,0,0-1.19,16.59,21.71,21.71,0,0,0,10.6,12.2,21.41,21.41,0,0,0,16.63,1.19,21.32,21.32,0,0,0,7.09-4.11,22.17,22.17,0,0,0,5-6.47,21.2,21.2,0,0,0,1.19-16.59,21.32,21.32,0,0,0-10.51-12.1A20.77,20.77,0,0,0,149.89,82Z" fill="#bb4c46"/><path d="M150.88,67.55a38.09,38.09,0,0,1,25.05,11.82,34.37,34.37,0,0,1,7.44,12.26,33.35,33.35,0,0,1,1.75,14.31,35.07,35.07,0,0,1-4.2,13.69,39.32,39.32,0,0,1-21.19,18,36.45,36.45,0,0,1-14,2.1,34.6,34.6,0,0,1-13.88-3.47,36.83,36.83,0,0,1-11.48-8.71A38.14,38.14,0,0,1,113,115.06a35.39,35.39,0,0,1,11.33-39.42A38.12,38.12,0,0,1,150.88,67.55Zm0,.3a34.36,34.36,0,0,0-7,.25,31.23,31.23,0,0,0-6.69,1.75,35.14,35.14,0,0,0-11.56,7.28A38.3,38.3,0,0,0,117.75,88,35,35,0,0,0,116,114a35,35,0,0,0,6.49,11.66,35.34,35.34,0,0,0,23.34,12.39,32.67,32.67,0,0,0,13.56-1.43,34,34,0,0,0,11.92-6.81,33.25,33.25,0,0,0,4.63-5.08,36.6,36.6,0,0,0,3.49-5.9,33.84,33.84,0,0,0,3.2-13.11,36.1,36.1,0,0,0-1.75-13.27,39.27,39.27,0,0,0-6.37-11.89,35.3,35.3,0,0,0-10.42-8.85,31.2,31.2,0,0,0-6.39-2.68A34.42,34.42,0,0,0,150.86,67.85Z"/><path d="M149.88,82.14a17.92,17.92,0,0,0-8.14,1.25A20.82,20.82,0,0,0,135,87.85a23.08,23.08,0,0,0-4.6,6.44,22,22,0,0,0-2.16,7.53,20.82,20.82,0,0,0,.59,7.92,19,19,0,0,0,18.05,14.07,20.36,20.36,0,0,0,7.84-1.34,20.56,20.56,0,0,0,11.38-10.3,20,20,0,0,0,2-7.44,20.21,20.21,0,0,0-.8-7.69A23.44,23.44,0,0,0,163.79,90a20.3,20.3,0,0,0-6-5.4A18.11,18.11,0,0,0,149.88,82.14Zm0-.3a24.07,24.07,0,0,1,15.38,6.83A20.41,20.41,0,0,1,170,96.11a21.63,21.63,0,0,1-1.19,17.5,23.34,23.34,0,0,1-5.59,6.94,21.83,21.83,0,0,1-7.8,4.2,21.4,21.4,0,0,1-8.73.7,24,24,0,0,1-14.93-7.88,24.72,24.72,0,0,1-4.57-7.29,20.83,20.83,0,0,1-1.51-8.64A19.79,19.79,0,0,1,128,93.08a20.18,20.18,0,0,1,5.73-6.68A24.45,24.45,0,0,1,149.91,81.84Z"/><path d="M231,150.35,229.3,109l-17,37.77L197.89,144l-3-73.28,14.42,2.78L211,114.92l17-37.86,14.42,2.79,1.68,41.47,17-37.86,14.43,2.78-30.09,66.89Z" fill="#bb4c46"/><path d="M230.88,150.44l-1.33-20.55c-.45-6.91-.81-13.9-1.21-20.88l1.83.35c-2.74,6.34-5.48,12.67-8.3,19l-8.38,18.94-.41.93-1-.2c-4.81-.91-9.63-1.77-14.44-2.73l-1-.21,0-1.05q-.39-9.16-.67-18.33l-.51-18.33c-.35-12.22-.59-24.45-1-36.66l0-.66.65.12L209.39,73l.35.07,0,.36.91,20.74c.29,6.91.69,13.81,1,20.72l-1.4-.27,8.25-19,8.3-19,.38-.89,1,.18,14.44,2.66,1.05.2,0,1.08,1.9,41.47-3-.59,8.48-18.94,8.56-18.9.51-1.12,1.19.24,14.4,2.87,1.81.36-.76,1.66-15.37,33.3-7.78,16.61q-3.87,8.31-7.82,16.58l-.17.36-.37-.08Zm.23-.19,14.4,2.41-.54.28q3.59-8.46,7.22-16.86l7.27-16.84,14.73-33.59,1,2L260.79,85l1.7-.88-8.44,19L245.52,122l-2.78,6.16-.23-6.74L241.05,79.9l1.1,1.28-14.4-2.91,1.36-.7L220.4,96.4l-8.75,18.82L210.34,118l-.09-3.09c-.21-6.91-.37-13.83-.64-20.74l-.77-20.74.37.43-14.43-2.72.62-.54c.58,12.22,1.34,24.42,2,36.63l1,18.31q.48,9.15.84,18.32l-1.09-1.27c4.82.91,9.61,1.9,14.42,2.84l-1.42.74,8.6-18.84c2.84-6.28,5.76-12.54,8.69-18.79l1.72-3.69.1,4c.17,6.8.37,13.61.49,20.49Z"/><path d="M105.11,141.91a33.9,33.9,0,0,0,5.69,8.77,21.72,21.72,0,0,0,8,5.57,26.83,26.83,0,0,0,4.72,1.33,36.15,36.15,0,0,0,5,.52,99.49,99.49,0,0,0,10.65-.4,28.41,28.41,0,0,1-10.49,3.54,22.47,22.47,0,0,1-2.84.21,23.11,23.11,0,0,1-2.88-.11,22.73,22.73,0,0,1-5.69-1.38,19.34,19.34,0,0,1-9-7.37,19.82,19.82,0,0,1-2.4-5.16A17.09,17.09,0,0,1,105.11,141.91Z"/><path d="M227.31,70a34.15,34.15,0,0,0-8.21-6.46,21.85,21.85,0,0,0-9.33-2.7,27,27,0,0,0-4.9.26,35.08,35.08,0,0,0-4.93,1.14A95.26,95.26,0,0,0,190,66.09a28.34,28.34,0,0,1,8.79-6.74,23.39,23.39,0,0,1,2.62-1.11,23.15,23.15,0,0,1,2.76-.83,22.63,22.63,0,0,1,5.82-.53A19.43,19.43,0,0,1,220.84,61a20.17,20.17,0,0,1,3.94,4.11A17.36,17.36,0,0,1,227.31,70Z"/><polygon points="24.53 33.48 30.81 41.64 40.51 38.19 34.69 46.68 40.97 54.84 31.09 51.93 25.28 60.43 24.99 50.14 15.12 47.23 24.81 43.78 24.53 33.48"/><polygon points="307.32 153.16 313.17 156.27 317.94 151.66 316.79 158.19 322.65 161.29 316.09 162.22 314.94 168.75 312.03 162.8 305.46 163.72 310.23 159.12 307.32 153.16"/><path d="M277.79,176.54a4.28,4.28,0,0,1,3.38.13,6.86,6.86,0,0,1,2.6,2.33,7.42,7.42,0,0,1,1.19,3.34,8.61,8.61,0,0,1-.55,3.53,17.49,17.49,0,0,1-3.94,5.8c-1.6,1.69-3.31,3.17-5,4.76a166.71,166.71,0,0,1-21.79,16.71A170,170,0,0,1,229.44,226a155.52,155.52,0,0,1-26,8.46,227.26,227.26,0,0,0,25.41-9.89c4.09-2,8.18-3.92,12.13-6.16s7.87-4.5,11.69-6.93,7.57-5,11.19-7.73c1.84-1.31,3.6-2.74,5.4-4.13s3.51-2.87,5.25-4.33,3.46-3,5.08-4.5a16.59,16.59,0,0,0,3.95-5.25,7.49,7.49,0,0,0,.71-3.13,6.76,6.76,0,0,0-.89-3.1,6.42,6.42,0,0,0-2.29-2.34A4.11,4.11,0,0,0,277.79,176.54Z"/><path d="M218.62,244.16c-2.13,1.08-4.34,2.2-5.84,4a6.23,6.23,0,0,0-1.4,3.09,4.67,4.67,0,0,0,.59,3.16,3.79,3.79,0,0,0,2.62,1.62,13.14,13.14,0,0,0,3.44.05c2.38-.19,4.76-.39,7.13-.72a100.6,100.6,0,0,0,14-2.82,80.9,80.9,0,0,0,13.36-4.89c2.16-1,4.25-2.1,6.31-3.29s4.05-2.53,6.08-3.8c4.07-2.55,8.08-5.16,11.93-8a70.26,70.26,0,0,0,19.5-20.76,58,58,0,0,1-8,12,72.21,72.21,0,0,1-10.58,9.95c-3.8,3-7.82,5.69-11.84,8.33-2,1.33-4,2.62-6.11,3.9s-4.24,2.4-6.45,3.42a86.72,86.72,0,0,1-28,7.46c-2.41.25-4.83.39-7.24.47a14.08,14.08,0,0,1-3.75-.23,4.87,4.87,0,0,1-3.22-2.24,5.47,5.47,0,0,1-.49-3.81,6.78,6.78,0,0,1,1.74-3.3C214.1,246,216.41,245.05,218.62,244.16Z"/></g></g></svg>