<svg xmlns="http://www.w3.org/2000/svg" viewBox="0 0 324.13 318.05"><g id="Layer_2" data-name="Layer 2"><g id="Object"><path d="M310.22,112.44a1.89,1.89,0,0,0-.09-.34,1.75,1.75,0,0,0-.93-1,1.84,1.84,0,0,0-1-.12l.31,1.73Z"/><path d="M318.62,121.6a22,22,0,0,0-1.25-2.88,1.75,1.75,0,0,0,1.25,2.88Z"/><path d="M312.84,131.33a1.76,1.76,0,0,0-.52-2.88,1.83,1.83,0,0,0-1-.12l.63,3.47A1.81,1.81,0,0,0,312.84,131.33Z"/><path d="M308.81,114.48a1.7,1.7,0,0,0,.91-.47,1.75,1.75,0,0,0,.5-1.57l-1.73.31Z"/><path d="M286.67,80.94a1.76,1.76,0,0,0-3.34-.4,1.68,1.68,0,0,0-.12,1Z"/><path d="M274.41,72.42a1.76,1.76,0,1,0,2,1.42A1.76,1.76,0,0,0,274.41,72.42Z"/><path d="M269.36,84.06a1.88,1.88,0,0,0-.47-.92,1.78,1.78,0,0,0-1.22-.53,2.19,2.19,0,0,0-.36,0l.32,1.73Z"/><path d="M264.82,68.79a1.33,1.33,0,0,0,.34-.1,1.76,1.76,0,0,0-.61-3.39,1.46,1.46,0,0,0-.36,0Z"/><path d="M308.18,111a1.76,1.76,0,0,0-1.45,1.69,2.07,2.07,0,0,0,0,.35l1.73-.31Z"/><path d="M290.87,114.14a1.76,1.76,0,0,0-1.45,1.69,2.19,2.19,0,0,0,0,.36l3.46-.63a1.89,1.89,0,0,0-.09-.34A1.77,1.77,0,0,0,290.87,114.14Z"/><path d="M287.75,96.83a1.76,1.76,0,1,0,2,1.42A1.76,1.76,0,0,0,287.75,96.83Z"/><path d="M280.65,107.05a1.76,1.76,0,1,0,2.05,1.42A1.76,1.76,0,0,0,280.65,107.05Z"/><path d="M296.55,106a1.75,1.75,0,0,0,3.48-.23,13.14,13.14,0,0,0-3,.16,16.79,16.79,0,0,0,.83-2A1.75,1.75,0,0,0,296.55,106Z"/><path d="M277.53,89.73a1.76,1.76,0,1,0,2,1.42A1.77,1.77,0,0,0,277.53,89.73Z"/><path d="M293.42,88.66a1.77,1.77,0,0,0,2.05,1.42,1.75,1.75,0,0,0,1.35-1.2,17.17,17.17,0,0,0-1.41-2.27,1.82,1.82,0,0,0-.57,0A1.77,1.77,0,0,0,293.42,88.66Z"/><path d="M273.91,117.24a1.4,1.4,0,0,0-.35,0l.31,1.74,1.73-.32a1.33,1.33,0,0,0-.1-.34A1.75,1.75,0,0,0,273.91,117.24Z"/><path d="M270.79,99.92a2.07,2.07,0,0,0-.35,0l.62,3.47.34-.1a1.76,1.76,0,0,0-.61-3.4Z"/><path d="M283.46,82.21a1.77,1.77,0,0,0,1.79.77,1.75,1.75,0,0,0,1.4-1.35,1.6,1.6,0,0,0,0-.69l-3.46.62A1.76,1.76,0,0,0,283.46,82.21Z"/><path d="M267.94,86.1a1.33,1.33,0,0,0,.34-.1,1.74,1.74,0,0,0,1.06-1.24,1.83,1.83,0,0,0,0-.7l-1.73.31Z"/><path d="M297.11,148.77a1.74,1.74,0,0,0-1.29,1,1.76,1.76,0,0,0-.13,1l3.47-.62a1.84,1.84,0,0,0-.47-.92A1.78,1.78,0,0,0,297.11,148.77Z"/><path d="M311.93,131.8l-.63-3.47a1.76,1.76,0,1,0,.63,3.47Z"/><path d="M294,131.46a1.75,1.75,0,0,0-1.42,2,1.76,1.76,0,1,0,1.42-2Z"/><path d="M288.94,143.09a1.76,1.76,0,1,0-1.42,2A1.76,1.76,0,0,0,288.94,143.09Z"/><path d="M304.21,138.55a1.76,1.76,0,1,0,2,1.42A1.76,1.76,0,0,0,304.21,138.55Z"/><path d="M283.77,124.36a1.76,1.76,0,1,0,2.05,1.42A1.75,1.75,0,0,0,283.77,124.36Z"/><path d="M301.09,121.24a1.76,1.76,0,1,0,2,1.42A1.74,1.74,0,0,0,301.09,121.24Z"/><path d="M281.84,153.31a1.73,1.73,0,0,0-.47-.92,1.75,1.75,0,0,0-1.21-.53l-.36,0,.31,1.73Z"/><path d="M277.65,137.94a1.76,1.76,0,0,0-.62-3.39l-.35,0,.62,3.46A1.4,1.4,0,0,0,277.65,137.94Z"/><path d="M308.81,114.48l-.32-1.73-1.73.31A1.76,1.76,0,0,0,308.81,114.48Z"/><path d="M291.49,117.6a1.74,1.74,0,0,0,1.42-2l-3.46.63A1.75,1.75,0,0,0,291.49,117.6Z"/><path d="M274.18,120.73a2.75,2.75,0,0,0,.34-.1,1.77,1.77,0,0,0,1.08-1.95l-1.73.32Z"/><path d="M303.36,183.39a1.76,1.76,0,0,0-1.45,1.69,2.19,2.19,0,0,0,0,.36l3.46-.63a1.33,1.33,0,0,0-.1-.34A1.76,1.76,0,0,0,303.36,183.39Z"/><path d="M300.86,169.54a1.76,1.76,0,1,0-2-1.42A1.75,1.75,0,0,0,300.86,169.54Z"/><path d="M293.14,176.3a1.76,1.76,0,1,0,2,1.42A1.75,1.75,0,0,0,293.14,176.3Z"/><path d="M310.45,173.18a1.75,1.75,0,0,0,.07,3.46c.17-1.15.31-2.31.38-3.48A1.74,1.74,0,0,0,310.45,173.18Z"/><path d="M290,159a1.76,1.76,0,1,0,2,1.43A1.77,1.77,0,0,0,290,159Z"/><path d="M308,159.33a1.78,1.78,0,0,0,1.12-.71,28.59,28.59,0,0,0-1.09-2.75,1.76,1.76,0,1,0,0,3.46Z"/><path d="M288.09,187.93a1.91,1.91,0,0,0-.1-.34,1.75,1.75,0,0,0-1.59-1.1,1.34,1.34,0,0,0-.35,0l.31,1.73Z"/><path d="M283.28,169.18a1.45,1.45,0,0,0-.36,0l.63,3.47.34-.1a1.77,1.77,0,0,0,1.08-1.95A1.74,1.74,0,0,0,283.28,169.18Z"/><path d="M296,151.46a1.76,1.76,0,0,0,3.21-1.27l-3.47.62A2,2,0,0,0,296,151.46Z"/><path d="M280.11,153.62l.32,1.73a1.33,1.33,0,0,0,.34-.1,1.77,1.77,0,0,0,1.06-1.24,1.65,1.65,0,0,0,0-.7Z"/><path d="M294.84,195.65a1.76,1.76,0,1,0,1.42-2A1.76,1.76,0,0,0,294.84,195.65Z"/><path d="M304,186.85a1.75,1.75,0,0,0,1.42-2l-3.46.63A1.75,1.75,0,0,0,304,186.85Z"/><path d="M286.67,190a1.91,1.91,0,0,0,.34-.1,1.77,1.77,0,0,0,1.08-1.95l-1.73.32Z"/><path d="M245.8,52.55a1.33,1.33,0,0,0-.1-.34,1.76,1.76,0,0,0-3.39.61,2.19,2.19,0,0,0,0,.36Z"/><path d="M235.58,45.46a1.76,1.76,0,1,0-1.42,2A1.75,1.75,0,0,0,235.58,45.46Z"/><path d="M228.49,55.68a2,2,0,0,0-.1-.35,1.75,1.75,0,0,0-.92-.95,1.69,1.69,0,0,0-1-.12l.31,1.73Z"/><path d="M267.63,84.37l-.32-1.73a1.75,1.75,0,0,0-1.29,1,1.76,1.76,0,0,0-.13,1Z"/><path d="M252.05,87.18a1.75,1.75,0,0,0-.48-.91,1.73,1.73,0,0,0-1.57-.51,1.78,1.78,0,0,0-1.3,1,1.85,1.85,0,0,0-.12,1Z"/><path d="M263.54,65.58a1.77,1.77,0,0,0,.58,3.2,1.83,1.83,0,0,0,.7,0l-.63-3.46A1.76,1.76,0,0,0,263.54,65.58Z"/><path d="M247.5,71.91a1.76,1.76,0,1,0-2-1.42A1.75,1.75,0,0,0,247.5,71.91Z"/><path d="M240.41,82.13a1.76,1.76,0,1,0-2-1.42A1.76,1.76,0,0,0,240.41,82.13Z"/><path d="M259.14,77A1.76,1.76,0,1,0,257.72,79,1.76,1.76,0,0,0,259.14,77Z"/><path d="M237.29,64.82a1.76,1.76,0,1,0-2-1.42A1.77,1.77,0,0,0,237.29,64.82Z"/><path d="M252.56,60.28A1.76,1.76,0,1,0,254,58.23,1.75,1.75,0,0,0,252.56,60.28Z"/><path d="M234.73,90.3a1.67,1.67,0,0,0-.47-.91,2,2,0,0,0-.55-.39,1.84,1.84,0,0,0-1-.12l.31,1.73Z"/><path d="M231.11,74.56a1.76,1.76,0,0,0-1.54-3l.62,3.46A1.73,1.73,0,0,0,231.11,74.56Z"/><path d="M244.38,54.6a1.77,1.77,0,0,0,1.42-2.05l-3.46.63A1.76,1.76,0,0,0,244.38,54.6Z"/><path d="M227.07,57.72a1.81,1.81,0,0,0,.91-.47,1.75,1.75,0,0,0,.51-1.57l-1.73.31Z"/><path d="M273.56,117.26a2,2,0,0,0-.65.26,1.75,1.75,0,0,0-.8,1.43,2.19,2.19,0,0,0,0,.36l1.73-.31Z"/><path d="M256.25,120.39a1.76,1.76,0,0,0-1.45,1.68,2.19,2.19,0,0,0,0,.36l3.46-.63a2.19,2.19,0,0,0-.1-.34A1.75,1.75,0,0,0,256.25,120.39Z"/><path d="M269.79,100.21a1.76,1.76,0,0,0,.57,3.19,1.82,1.82,0,0,0,.7,0l-.62-3.47A1.78,1.78,0,0,0,269.79,100.21Z"/><path d="M253.75,106.54a1.76,1.76,0,1,0-2.05-1.42A1.77,1.77,0,0,0,253.75,106.54Z"/><path d="M246.65,116.75a1.76,1.76,0,1,0-2-1.42A1.75,1.75,0,0,0,246.65,116.75Z"/><path d="M264,113.63a1.76,1.76,0,1,0-2-1.42A1.75,1.75,0,0,0,264,113.63Z"/><path d="M243.53,99.44a1.76,1.76,0,1,0-2-1.42A1.76,1.76,0,0,0,243.53,99.44Z"/><path d="M260.84,96.32a1.76,1.76,0,1,0-2-1.42A1.75,1.75,0,0,0,260.84,96.32Z"/><path d="M241,124.93a3.57,3.57,0,0,0-.1-.35,1.77,1.77,0,0,0-.93-1,1.68,1.68,0,0,0-1-.12l.32,1.73Z"/><path d="M237.35,109.19a1.78,1.78,0,0,0,.5-1.58,1.72,1.72,0,0,0-1-1.29,1.68,1.68,0,0,0-1-.12l.63,3.46A1.77,1.77,0,0,0,237.35,109.19Z"/><path d="M265.89,84.68a2,2,0,0,0,.26.65,1.78,1.78,0,0,0,1.09.76,1.83,1.83,0,0,0,.7,0l-.31-1.73Z"/><path d="M248.84,88.45a1.76,1.76,0,0,0,3.19-.57,1.83,1.83,0,0,0,0-.7l-3.47.62A2,2,0,0,0,248.84,88.45Z"/><path d="M233.31,92.34a1.7,1.7,0,0,0,.92-.47,1.8,1.8,0,0,0,.49-.87,1.65,1.65,0,0,0,0-.7l-1.73.31Z"/><path d="M279.8,151.89a1.62,1.62,0,0,0-.65.26,1.77,1.77,0,0,0-.65.76,1.84,1.84,0,0,0-.12,1l1.73-.31Z"/><path d="M264.06,155.52a1.73,1.73,0,0,0-1.57-.51,1.75,1.75,0,0,0-1.42,2l3.46-.62A1.67,1.67,0,0,0,264.06,155.52Z"/><path d="M275.26,136.62a1.74,1.74,0,0,0,2,1.42l-.62-3.46a1.74,1.74,0,0,0-1.42,2Z"/><path d="M259.37,137.7a1.76,1.76,0,1,0,2,1.42A1.76,1.76,0,0,0,259.37,137.7Z"/><path d="M252.27,147.92a1.76,1.76,0,1,0,2,1.42A1.75,1.75,0,0,0,252.27,147.92Z"/><path d="M269.58,144.79a1.76,1.76,0,1,0,2.05,1.42A1.77,1.77,0,0,0,269.58,144.79Z"/><path d="M249.15,130.6a1.76,1.76,0,1,0,2,1.42A1.77,1.77,0,0,0,249.15,130.6Z"/><path d="M266.46,127.48a1.76,1.76,0,1,0,2.05,1.42A1.77,1.77,0,0,0,266.46,127.48Z"/><path d="M247.22,159.55a1.67,1.67,0,0,0-.47-.91,2.12,2.12,0,0,0-.55-.39,1.84,1.84,0,0,0-1-.12l.31,1.73Z"/><path d="M243.08,140.94a1.85,1.85,0,0,0-1-.12l.62,3.46a1.67,1.67,0,0,0,.91-.47,1.73,1.73,0,0,0,.51-1.57A1.78,1.78,0,0,0,243.08,140.94Z"/><path d="M272.14,119.31a1.76,1.76,0,0,0,1.34,1.4,1.83,1.83,0,0,0,.7,0l-.31-1.73Z"/><path d="M256.87,123.85a1.76,1.76,0,0,0,1.42-2l-3.46.63A1.76,1.76,0,0,0,256.87,123.85Z"/><path d="M239.25,125.24l.31,1.73a1.73,1.73,0,0,0,.91-.47,1.76,1.76,0,0,0,.51-1.57Z"/><path d="M286.05,186.52a1.74,1.74,0,0,0-1.45,1.68,1.46,1.46,0,0,0,0,.36l1.73-.31Z"/><path d="M268.73,189.64a1.76,1.76,0,0,0-1.44,1.68,1.45,1.45,0,0,0,0,.36l3.47-.62a2,2,0,0,0-.1-.35A1.76,1.76,0,0,0,268.73,189.64Z"/><path d="M282.27,169.46a1.76,1.76,0,0,0,.58,3.19,1.82,1.82,0,0,0,.7,0l-.63-3.47A2.06,2.06,0,0,0,282.27,169.46Z"/><path d="M265.61,172.32a1.76,1.76,0,1,0,2,1.42A1.77,1.77,0,0,0,265.61,172.32Z"/><path d="M258.52,182.54a1.76,1.76,0,1,0,2,1.42A1.75,1.75,0,0,0,258.52,182.54Z"/><path d="M275.83,179.42a1.76,1.76,0,1,0,2,1.42A1.76,1.76,0,0,0,275.83,179.42Z"/><path d="M255.39,165.23a1.76,1.76,0,0,0,.63,3.46,1.76,1.76,0,1,0-.63-3.46Z"/><path d="M272.71,162.11a1.76,1.76,0,1,0,2,1.42A1.74,1.74,0,0,0,272.71,162.11Z"/><path d="M253.46,194.18a1.69,1.69,0,0,0-.09-.34,1.75,1.75,0,0,0-.93-1,1.68,1.68,0,0,0-1-.12l.31,1.73Z"/><path d="M249.32,175.57a1.68,1.68,0,0,0-1-.12l.62,3.46a1.7,1.7,0,0,0,.92-.47,1.78,1.78,0,0,0,.5-1.58A1.76,1.76,0,0,0,249.32,175.57Z"/><path d="M278.38,153.93a1.78,1.78,0,0,0,1.35,1.41,1.83,1.83,0,0,0,.7,0l-.32-1.73Z"/><path d="M261.07,157.05a1.62,1.62,0,0,0,.26.65,1.76,1.76,0,0,0,3.19-.57,1.65,1.65,0,0,0,0-.7Z"/><path d="M245.49,159.86l.31,1.73a1.73,1.73,0,0,0,.92-.47,1.8,1.8,0,0,0,.49-.87,1.83,1.83,0,0,0,0-.7Z"/><path d="M270.44,209a1.62,1.62,0,0,0,.26.65,11.35,11.35,0,0,0,.89-2.61A1.75,1.75,0,0,0,270.44,209Z"/><path d="M260.22,201.9a1.76,1.76,0,1,0,1.42-2.05A1.76,1.76,0,0,0,260.22,201.9Z"/><path d="M277.53,198.78a1.76,1.76,0,1,0,1.42-2.05A1.76,1.76,0,0,0,277.53,198.78Z"/><path d="M255.56,210.19a1.84,1.84,0,0,0-1-.12l.63,3.47a1.79,1.79,0,0,0,1.42-2A1.77,1.77,0,0,0,255.56,210.19Z"/><path d="M286.36,188.25l-1.73.31A1.74,1.74,0,0,0,286,190a1.82,1.82,0,0,0,.7,0Z"/><path d="M269.36,193.1a1.76,1.76,0,0,0,1.42-2l-3.47.62A1.77,1.77,0,0,0,269.36,193.1Z"/><path d="M251.73,194.49l.32,1.73a1.7,1.7,0,0,0,.91-.47,1.76,1.76,0,0,0,.5-1.57Z"/><path d="M226.76,56l-.31-1.73A1.76,1.76,0,0,0,225,56a1.42,1.42,0,0,0,0,.35Z"/><path d="M211.18,58.8a1.69,1.69,0,0,0-.1-.34,1.76,1.76,0,0,0-3.39.61,1.06,1.06,0,0,0,0,.35Z"/><path d="M201,51.7a1.76,1.76,0,1,0-1.42,2A1.76,1.76,0,0,0,201,51.7Z"/><path d="M218.27,48.58a1.76,1.76,0,1,0-1.42,2A1.76,1.76,0,0,0,218.27,48.58Z"/><path d="M193.86,61.92a1.89,1.89,0,0,0-.09-.34,1.78,1.78,0,0,0-1.59-1.11,2.19,2.19,0,0,0-.36,0l.31,1.73Z"/><path d="M189.67,46.55a1.75,1.75,0,0,0,1.07-1.94,1.58,1.58,0,0,0-.11-.37c-.55.15-1.1.31-1.65.49l.34,1.92A1.4,1.4,0,0,0,189.67,46.55Z"/><path d="M233,90.61l-.31-1.73a1.76,1.76,0,0,0-1.42,2.05Z"/><path d="M217.42,93.42a1.67,1.67,0,0,0-.47-.91,1.75,1.75,0,0,0-2.87.52,1.68,1.68,0,0,0-.12,1Z"/><path d="M230.19,75l-.62-3.46a1.76,1.76,0,0,0,.62,3.46Z"/><path d="M212.88,78.16a1.76,1.76,0,1,0-2-1.43A1.77,1.77,0,0,0,212.88,78.16Z"/><path d="M205.78,88.37a1.76,1.76,0,1,0-2-1.42A1.75,1.75,0,0,0,205.78,88.37Z"/><path d="M223.1,85.25a1.76,1.76,0,1,0-2-1.42A1.76,1.76,0,0,0,223.1,85.25Z"/><path d="M202.66,71.06a1.76,1.76,0,1,0-2-1.42A1.76,1.76,0,0,0,202.66,71.06Z"/><path d="M220,67.94a1.76,1.76,0,1,0-2-1.42A1.76,1.76,0,0,0,220,67.94Z"/><path d="M200.11,96.54a1.85,1.85,0,0,0-.47-.91,1.78,1.78,0,0,0-1.22-.53,1.38,1.38,0,0,0-.35,0l.31,1.73Z"/><path d="M195.91,81.18a1.76,1.76,0,0,0-.61-3.39,1.45,1.45,0,0,0-.36,0l.63,3.47A1.91,1.91,0,0,0,195.91,81.18Z"/><path d="M225,56.3a1.75,1.75,0,0,0,2,1.42L226.76,56Z"/><path d="M209.76,60.84a1.76,1.76,0,0,0,1.42-2l-3.46.62A1.75,1.75,0,0,0,209.76,60.84Z"/><path d="M192.45,64a1.33,1.33,0,0,0,.34-.1,1.73,1.73,0,0,0,1.07-1.94l-1.73.31Z"/><path d="M238.93,123.51a1.76,1.76,0,0,0-1.44,1.69,1.4,1.4,0,0,0,0,.35l1.74-.31Z"/><path d="M221.62,126.63a1.76,1.76,0,0,0-1.45,1.69,2.16,2.16,0,0,0,0,.35l3.46-.62a1.69,1.69,0,0,0-.09-.34A1.77,1.77,0,0,0,221.62,126.63Z"/><path d="M236.44,109.66l-.63-3.46a1.76,1.76,0,1,0,.63,3.46Z"/><path d="M219.12,112.78a1.76,1.76,0,1,0-2-1.42A1.75,1.75,0,0,0,219.12,112.78Z"/><path d="M212,123a1.76,1.76,0,1,0-2-1.42A1.77,1.77,0,0,0,212,123Z"/><path d="M229.34,119.88a1.76,1.76,0,1,0-2-1.42A1.77,1.77,0,0,0,229.34,119.88Z"/><path d="M208.91,105.68a1.76,1.76,0,1,0-2-1.41A1.76,1.76,0,0,0,208.91,105.68Z"/><path d="M226.22,102.56a1.76,1.76,0,1,0-2-1.42A1.76,1.76,0,0,0,226.22,102.56Z"/><path d="M204.66,129.72l-.35,0,.31,1.73,1.73-.31a1.33,1.33,0,0,0-.1-.34A1.76,1.76,0,0,0,204.66,129.72Z"/><path d="M202.15,115.8a1.76,1.76,0,0,0-.61-3.39l-.35,0,.62,3.46A1.22,1.22,0,0,0,202.15,115.8Z"/><path d="M231.27,90.93a1.63,1.63,0,0,0,.26.64,1.74,1.74,0,0,0,1.78.77L233,90.61Z"/><path d="M214.22,94.7a1.76,1.76,0,0,0,3.19-.58,1.83,1.83,0,0,0,0-.7l-3.46.63A1.62,1.62,0,0,0,214.22,94.7Z"/><path d="M198.69,98.59a1.91,1.91,0,0,0,.34-.1,1.76,1.76,0,0,0,1.06-1.25,1.82,1.82,0,0,0,0-.7l-1.73.32Z"/><path d="M245.18,158.13a1.77,1.77,0,0,0-1.3,1,1.68,1.68,0,0,0-.12,1l1.73-.32Z"/><path d="M229.44,161.76a1.78,1.78,0,0,0-1.58-.5,1.72,1.72,0,0,0-1.29,1,1.68,1.68,0,0,0-.12,1l3.46-.63A1.85,1.85,0,0,0,229.44,161.76Z"/><path d="M240.64,142.86a1.74,1.74,0,0,0,2,1.42l-.62-3.46A1.75,1.75,0,0,0,240.64,142.86Z"/><path d="M224.74,143.94a1.76,1.76,0,1,0,2,1.42A1.77,1.77,0,0,0,224.74,143.94Z"/><path d="M217.65,154.16a1.76,1.76,0,1,0,2,1.42A1.76,1.76,0,0,0,217.65,154.16Z"/><path d="M235,151a1.76,1.76,0,1,0,2,1.42A1.75,1.75,0,0,0,235,151Z"/><path d="M214.53,136.85a1.76,1.76,0,1,0,2,1.42A1.74,1.74,0,0,0,214.53,136.85Z"/><path d="M231.84,133.72a1.76,1.76,0,1,0,2,1.42A1.77,1.77,0,0,0,231.84,133.72Z"/><path d="M212.6,165.8a1.84,1.84,0,0,0-.47-.92,1.78,1.78,0,0,0-1.22-.53l-.36,0,.32,1.73Z"/><path d="M207.79,147a1.45,1.45,0,0,0-.36,0l.63,3.47a1.91,1.91,0,0,0,.34-.1,1.76,1.76,0,0,0-.61-3.39Z"/><path d="M237.51,125.55a1.77,1.77,0,0,0,2.05,1.42l-.31-1.73Z"/><path d="M222.25,130.09a1.75,1.75,0,0,0,1.41-2l-3.46.62A1.76,1.76,0,0,0,222.25,130.09Z"/><path d="M204.93,133.21a1.4,1.4,0,0,0,.35-.1,1.75,1.75,0,0,0,1.07-1.94l-1.73.31Z"/><path d="M251.42,192.76a1.76,1.76,0,0,0-1.45,1.69,2.16,2.16,0,0,0,0,.35l1.73-.31Z"/><path d="M234.11,195.88a1.76,1.76,0,0,0-1.45,1.69,2.07,2.07,0,0,0,0,.35l3.46-.62a1.33,1.33,0,0,0-.1-.34A1.76,1.76,0,0,0,234.11,195.88Z"/><path d="M246.88,177.49a1.76,1.76,0,0,0,2,1.42l-.62-3.46A1.75,1.75,0,0,0,246.88,177.49Z"/><path d="M231,178.57a1.76,1.76,0,1,0,2,1.42A1.76,1.76,0,0,0,231,178.57Z"/><path d="M223.89,188.78a1.76,1.76,0,1,0,2.05,1.42A1.77,1.77,0,0,0,223.89,188.78Z"/><path d="M241.2,185.66a1.76,1.76,0,1,0,2.05,1.42A1.77,1.77,0,0,0,241.2,185.66Z"/><path d="M220.77,171.47a1.76,1.76,0,1,0,2,1.42A1.76,1.76,0,0,0,220.77,171.47Z"/><path d="M238.08,168.35a1.76,1.76,0,1,0,2,1.42A1.76,1.76,0,0,0,238.08,168.35Z"/><path d="M217.15,199l-.35,0,.31,1.73,1.73-.31a1.91,1.91,0,0,0-.1-.34A1.78,1.78,0,0,0,217.15,199Z"/><path d="M214,181.66a2,2,0,0,0-.35,0l.62,3.46a1.89,1.89,0,0,0,.34-.09,1.76,1.76,0,0,0-.61-3.4Z"/><path d="M243.76,160.18a1.68,1.68,0,0,0,.26.65,1.74,1.74,0,0,0,1.78.76l-.31-1.73Z"/><path d="M226.45,163.3a1.75,1.75,0,0,0,3.44.07,1.82,1.82,0,0,0,0-.7Z"/><path d="M210.87,166.11l.31,1.73a1.91,1.91,0,0,0,.34-.1,1.76,1.76,0,0,0,1.06-1.25,1.78,1.78,0,0,0,0-.69Z"/><path d="M253.12,212.11a1.77,1.77,0,0,0,2,1.43l-.63-3.47A1.76,1.76,0,0,0,253.12,212.11Z"/><path d="M237.85,216.66a1.76,1.76,0,1,0-2-1.42A1.76,1.76,0,0,0,237.85,216.66Z"/><path d="M232.18,224.83a1.76,1.76,0,1,0-1.42,2A1.76,1.76,0,0,0,232.18,224.83Z"/><path d="M225.59,208.14a1.76,1.76,0,1,0,1.42-2A1.77,1.77,0,0,0,225.59,208.14Z"/><path d="M242.91,205a1.76,1.76,0,1,0,1.42-2A1.75,1.75,0,0,0,242.91,205Z"/><path d="M225.08,235.05a1.7,1.7,0,0,0-.47-.92,1.75,1.75,0,0,0-1.21-.53l-.36,0,.31,1.73Z"/><path d="M220.89,219.68a1.76,1.76,0,0,0-.62-3.39,1.06,1.06,0,0,0-.35,0l.62,3.46A2,2,0,0,0,220.89,219.68Z"/><path d="M250,194.8a1.76,1.76,0,0,0,2.05,1.42l-.32-1.73Z"/><path d="M234.73,199.34a1.76,1.76,0,0,0,1.42-2l-3.46.62A1.76,1.76,0,0,0,234.73,199.34Z"/><path d="M217.42,202.46a1.69,1.69,0,0,0,.34-.09,1.77,1.77,0,0,0,1.08-2l-1.73.31Z"/><path d="M223.66,237.09a2,2,0,0,0,.35-.1,1.78,1.78,0,0,0,1.06-1.25,1.6,1.6,0,0,0,0-.69l-1.73.31Z"/><path d="M192.13,62.23l-.31-1.73a1.62,1.62,0,0,0-.65.26,1.76,1.76,0,0,0-.8,1.43,2.07,2.07,0,0,0,0,.35Z"/><path d="M176.55,65a1.33,1.33,0,0,0-.1-.34,1.76,1.76,0,0,0-3.39.61,2.19,2.19,0,0,0,0,.36Z"/><path d="M188.63,46.64a1.78,1.78,0,0,0,.69,0L189,44.73q-.84.27-1.68.57A1.77,1.77,0,0,0,188.63,46.64Z"/><path d="M170,48.35a1.76,1.76,0,0,0,3.46-.61c-.36-.46-.73-.9-1.12-1.34a1.68,1.68,0,0,0-.92-.09A1.76,1.76,0,0,0,170,48.35Z"/><path d="M164.92,60a1.76,1.76,0,1,0-2-1.42A1.76,1.76,0,0,0,164.92,60Z"/><path d="M183.65,54.82a1.76,1.76,0,1,0-1.42,2A1.77,1.77,0,0,0,183.65,54.82Z"/><path d="M161.79,42.68a1.76,1.76,0,1,0-2-1.42A1.76,1.76,0,0,0,161.79,42.68Z"/><path d="M159.24,68.16a1.33,1.33,0,0,0-.1-.34,1.78,1.78,0,0,0-1.94-1.08l.31,1.74Z"/><path d="M155.1,49.55a1.85,1.85,0,0,0-1-.12l.62,3.47a1.75,1.75,0,0,0,.91-.48,1.73,1.73,0,0,0,.51-1.57A1.78,1.78,0,0,0,155.1,49.55Z"/><path d="M152.49,35.11a1.72,1.72,0,0,0,.41-.62c-.53-.15-1.06-.28-1.59-.4l.27,1.49A1.67,1.67,0,0,0,152.49,35.11Z"/><path d="M198.38,96.86l-.31-1.73a1.76,1.76,0,0,0-.65.25,1.73,1.73,0,0,0-.65.77,1.68,1.68,0,0,0-.12,1Z"/><path d="M182.8,99.67a1.84,1.84,0,0,0-.47-.92,1.78,1.78,0,0,0-1.58-.5,1.72,1.72,0,0,0-1.29,1,1.76,1.76,0,0,0-.13,1Z"/><path d="M194.87,81.26a1.82,1.82,0,0,0,.7,0l-.63-3.47a2.06,2.06,0,0,0-.65.26,1.76,1.76,0,0,0,.58,3.19Z"/><path d="M178.26,84.4a1.76,1.76,0,1,0-2-1.42A1.76,1.76,0,0,0,178.26,84.4Z"/><path d="M171.16,94.62a1.76,1.76,0,1,0-2-1.42A1.77,1.77,0,0,0,171.16,94.62Z"/><path d="M188.47,91.49a1.76,1.76,0,1,0-2-1.42A1.75,1.75,0,0,0,188.47,91.49Z"/><path d="M168,77.3a1.76,1.76,0,1,0-2-1.42A1.76,1.76,0,0,0,168,77.3Z"/><path d="M185.35,74.18a1.76,1.76,0,1,0-2-1.42A1.76,1.76,0,0,0,185.35,74.18Z"/><path d="M165.48,102.79a1.73,1.73,0,0,0-.47-.92,1.64,1.64,0,0,0-.55-.38,1.76,1.76,0,0,0-1-.12l.31,1.73Z"/><path d="M161.34,84.18a1.68,1.68,0,0,0-1-.12l.62,3.46a1.7,1.7,0,0,0,.92-.47,1.76,1.76,0,0,0-.52-2.87Z"/><path d="M190.4,62.54A1.77,1.77,0,0,0,191.75,64a1.65,1.65,0,0,0,.7,0l-.32-1.73Z"/><path d="M175.13,67.08a1.74,1.74,0,0,0,1.42-2l-3.46.63A1.75,1.75,0,0,0,175.13,67.08Z"/><path d="M157.82,70.21a1.88,1.88,0,0,0,.92-.47,1.78,1.78,0,0,0,.5-1.58l-1.73.32Z"/><path d="M204.31,129.75a1.62,1.62,0,0,0-.65.26,1.78,1.78,0,0,0-.8,1.43,2,2,0,0,0,0,.35l1.73-.31Z"/><path d="M187,132.87a1.76,1.76,0,0,0-1.45,1.69,2.19,2.19,0,0,0,0,.36l3.46-.63a1.33,1.33,0,0,0-.1-.34A1.76,1.76,0,0,0,187,132.87Z"/><path d="M201.11,115.89a1.65,1.65,0,0,0,.7,0l-.62-3.46a1.62,1.62,0,0,0-.65.26,1.76,1.76,0,0,0,.57,3.19Z"/><path d="M184.5,119a1.76,1.76,0,1,0-2-1.42A1.76,1.76,0,0,0,184.5,119Z"/><path d="M177.4,129.24a1.76,1.76,0,1,0-2-1.42A1.75,1.75,0,0,0,177.4,129.24Z"/><path d="M194.72,126.12a1.76,1.76,0,1,0-2.05-1.42A1.76,1.76,0,0,0,194.72,126.12Z"/><path d="M174.28,111.93a1.76,1.76,0,1,0-2-1.42A1.76,1.76,0,0,0,174.28,111.93Z"/><path d="M191.59,108.81a1.76,1.76,0,1,0-2-1.42A1.76,1.76,0,0,0,191.59,108.81Z"/><path d="M171.73,137.41a1.91,1.91,0,0,0-.1-.34,1.75,1.75,0,0,0-.92-.95,1.69,1.69,0,0,0-1-.12l.31,1.73Z"/><path d="M168.1,121.68a1.76,1.76,0,0,0-.52-2.88,1.84,1.84,0,0,0-1-.12l.63,3.47A1.81,1.81,0,0,0,168.1,121.68Z"/><path d="M196.65,97.17a1.76,1.76,0,0,0,.25.65,1.79,1.79,0,0,0,1.09.75,1.82,1.82,0,0,0,.7,0l-.31-1.73Z"/><path d="M179.59,100.94a1.76,1.76,0,0,0,3.21-1.27l-3.47.62A2,2,0,0,0,179.59,100.94Z"/><path d="M164.07,104.83a1.7,1.7,0,0,0,.91-.47,1.84,1.84,0,0,0,.49-.87,1.65,1.65,0,0,0,0-.7l-1.73.31Z"/><path d="M210.55,164.38a1.76,1.76,0,0,0-.65.25,1.87,1.87,0,0,0-.65.77,1.84,1.84,0,0,0-.12,1l1.74-.31Z"/><path d="M194.81,168a1.76,1.76,0,0,0-2.87.52,1.84,1.84,0,0,0-.12,1l3.46-.62A1.73,1.73,0,0,0,194.81,168Z"/><path d="M206.78,147.32a1.76,1.76,0,0,0,.58,3.19,1.82,1.82,0,0,0,.7,0l-.63-3.47A2,2,0,0,0,206.78,147.32Z"/><path d="M190.12,150.19a1.76,1.76,0,1,0,2,1.41A1.75,1.75,0,0,0,190.12,150.19Z"/><path d="M183,160.4a1.76,1.76,0,1,0,2,1.42A1.77,1.77,0,0,0,183,160.4Z"/><path d="M200.34,157.28a1.76,1.76,0,1,0,2,1.42A1.75,1.75,0,0,0,200.34,157.28Z"/><path d="M179.9,143.09a1.76,1.76,0,1,0,2,1.42A1.76,1.76,0,0,0,179.9,143.09Z"/><path d="M197.21,140a1.76,1.76,0,1,0,2,1.42A1.76,1.76,0,0,0,197.21,140Z"/><path d="M178,172a1.73,1.73,0,0,0-.47-.92,1.76,1.76,0,0,0-1.57-.5l.31,1.73Z"/><path d="M173.83,153.43a1.68,1.68,0,0,0-1-.12l.62,3.46a1.73,1.73,0,0,0,.92-.47,1.76,1.76,0,0,0,.5-1.57A1.78,1.78,0,0,0,173.83,153.43Z"/><path d="M202.89,131.79a1.77,1.77,0,0,0,1.34,1.41,1.65,1.65,0,0,0,.7,0l-.31-1.73Z"/><path d="M187.62,136.33a1.75,1.75,0,0,0,1.42-2l-3.46.63A1.75,1.75,0,0,0,187.62,136.33Z"/><path d="M170,137.73l.31,1.73a1.81,1.81,0,0,0,.91-.47,1.76,1.76,0,0,0,.51-1.58Z"/><path d="M216.8,199a2,2,0,0,0-.65.26,1.75,1.75,0,0,0-.8,1.43,2.19,2.19,0,0,0,0,.36l1.73-.32Z"/><path d="M199.48,202.12a1.77,1.77,0,0,0-1.44,1.69,1.46,1.46,0,0,0,0,.36l3.46-.63a1.91,1.91,0,0,0-.1-.34A1.76,1.76,0,0,0,199.48,202.12Z"/><path d="M213,182a1.76,1.76,0,0,0,.57,3.19,1.65,1.65,0,0,0,.7,0l-.62-3.46A1.62,1.62,0,0,0,213,182Z"/><path d="M196.36,184.81a1.76,1.76,0,1,0,2,1.42A1.76,1.76,0,0,0,196.36,184.81Z"/><path d="M189.27,195a1.76,1.76,0,1,0,2,1.42A1.75,1.75,0,0,0,189.27,195Z"/><path d="M206.58,191.91a1.76,1.76,0,1,0,2,1.42A1.75,1.75,0,0,0,206.58,191.91Z"/><path d="M186.14,177.72a1.76,1.76,0,1,0,2.05,1.42A1.75,1.75,0,0,0,186.14,177.72Z"/><path d="M203.46,174.59a1.76,1.76,0,1,0,2,1.42A1.77,1.77,0,0,0,203.46,174.59Z"/><path d="M183.19,205.37a1.68,1.68,0,0,0-1-.12l.31,1.73,1.74-.32c0-.11-.06-.23-.1-.34A1.77,1.77,0,0,0,183.19,205.37Z"/><path d="M180.07,188.05a1.84,1.84,0,0,0-1-.12l.63,3.47a1.85,1.85,0,0,0,.91-.47,1.78,1.78,0,0,0,.5-1.58A1.73,1.73,0,0,0,180.07,188.05Z"/><path d="M209.13,166.42a2,2,0,0,0,.26.65,1.76,1.76,0,0,0,1.09.75,1.82,1.82,0,0,0,.7,0l-.31-1.73Z"/><path d="M191.82,169.54a1.78,1.78,0,0,0,.26.65,1.76,1.76,0,0,0,3.19-.57,1.65,1.65,0,0,0,0-.7Z"/><path d="M176.24,172.35l.31,1.73a1.73,1.73,0,0,0,.92-.47,1.8,1.8,0,0,0,.49-.87,1.83,1.83,0,0,0,0-.7Z"/><path d="M223,233.63a1.62,1.62,0,0,0-.65.26,1.72,1.72,0,0,0-.65.76,1.84,1.84,0,0,0-.12,1l1.73-.31Z"/><path d="M205.73,236.75a1.78,1.78,0,0,0-1.3,1,1.68,1.68,0,0,0-.12,1l3.46-.62a1.73,1.73,0,0,0-.47-.92A1.75,1.75,0,0,0,205.73,236.75Z"/><path d="M219.92,216.32a1.76,1.76,0,0,0-.08,3.44,1.83,1.83,0,0,0,.7,0Z"/><path d="M202.61,219.44a1.76,1.76,0,1,0,2,1.42A1.75,1.75,0,0,0,202.61,219.44Z"/><path d="M197.55,231.07a1.76,1.76,0,1,0-1.41,2.05A1.76,1.76,0,0,0,197.55,231.07Z"/><path d="M212.82,226.53a1.76,1.76,0,1,0,2.05,1.42A1.77,1.77,0,0,0,212.82,226.53Z"/><path d="M192.39,212.34a1.76,1.76,0,1,0,2,1.42A1.76,1.76,0,0,0,192.39,212.34Z"/><path d="M209.7,209.22a1.76,1.76,0,1,0,2.05,1.42A1.76,1.76,0,0,0,209.7,209.22Z"/><path d="M186.83,225.55a1.76,1.76,0,0,0-.51-2.87,1.71,1.71,0,0,0-1-.12l.63,3.46A1.67,1.67,0,0,0,186.83,225.55Z"/><path d="M215.38,201.05a1.76,1.76,0,0,0,1.34,1.4,1.65,1.65,0,0,0,.7,0l-.31-1.73Z"/><path d="M200.11,205.59a1.77,1.77,0,0,0,1.42-2.05l-3.46.63A1.76,1.76,0,0,0,200.11,205.59Z"/><path d="M182.8,208.71a1.81,1.81,0,0,0,.91-.47,1.78,1.78,0,0,0,.51-1.58l-1.74.32Z"/><path d="M223.35,235.36l-1.73.31a1.62,1.62,0,0,0,.26.65,1.79,1.79,0,0,0,1.78.77Z"/><path d="M204.57,239.44a1.2,1.2,0,0,0,.17.21c.76.13,1.53.22,2.3.28a1.79,1.79,0,0,0,.72-1.06,1.83,1.83,0,0,0,0-.7l-3.46.62A1.62,1.62,0,0,0,204.57,239.44Z"/><path d="M150.7,34l-1.18-.23a2.17,2.17,0,0,0,0,.44Z"/><path d="M135.69,36.66a1.82,1.82,0,0,0-.48-.92,1.75,1.75,0,0,0-1.57-.5,1.78,1.78,0,0,0-1.3,1,1.85,1.85,0,0,0-.12,1Z"/><path d="M157.51,68.48l-.31-1.74a2,2,0,0,0-.65.26,1.75,1.75,0,0,0-.8,1.43,2.19,2.19,0,0,0,0,.36Z"/><path d="M141.83,70.94a1.76,1.76,0,0,0-3.39.61,2.19,2.19,0,0,0,0,.36l3.46-.63A2.19,2.19,0,0,0,141.83,70.94Z"/><path d="M153.43,49.69a1.76,1.76,0,0,0,.57,3.19,1.82,1.82,0,0,0,.7,0l-.62-3.47A1.62,1.62,0,0,0,153.43,49.69Z"/><path d="M136.76,52.55A1.76,1.76,0,1,0,138.81,54,1.77,1.77,0,0,0,136.76,52.55Z"/><path d="M130.29,66.23a1.76,1.76,0,1,0-2-1.42A1.75,1.75,0,0,0,130.29,66.23Z"/><path d="M147.6,63.11a1.76,1.76,0,1,0-2-1.42A1.75,1.75,0,0,0,147.6,63.11Z"/><path d="M125.13,47.5a1.76,1.76,0,1,0,1.42-2A1.75,1.75,0,0,0,125.13,47.5Z"/><path d="M144.48,45.8a1.76,1.76,0,1,0-2-1.42A1.76,1.76,0,0,0,144.48,45.8Z"/><path d="M122.57,73l.32,1.73,1.73-.31a3.57,3.57,0,0,0-.1-.35A1.76,1.76,0,0,0,122.57,73Z"/><path d="M119.45,55.68l.63,3.46a1.76,1.76,0,0,0-.63-3.46Z"/><path d="M149.79,34.81a1.78,1.78,0,0,0,1.09.76,1.83,1.83,0,0,0,.7,0l-.27-1.49L150.7,34l-1.17.21A2,2,0,0,0,149.79,34.81Z"/><path d="M132.48,37.93a1.76,1.76,0,0,0,3.19-.57,1.83,1.83,0,0,0,0-.7l-3.47.62A2,2,0,0,0,132.48,37.93Z"/><path d="M163.44,101.37a1.62,1.62,0,0,0-.65.26,1.72,1.72,0,0,0-.65.76,1.84,1.84,0,0,0-.12,1l1.73-.31Z"/><path d="M148.17,105.91a1.67,1.67,0,0,0-.47-.91,1.73,1.73,0,0,0-1.57-.51,1.75,1.75,0,0,0-1.42,2Z"/><path d="M159.67,84.31a1.76,1.76,0,0,0,1.27,3.21l-.62-3.46A1.76,1.76,0,0,0,159.67,84.31Z"/><path d="M143.63,90.64a1.76,1.76,0,1,0-2-1.42A1.76,1.76,0,0,0,143.63,90.64Z"/><path d="M136.54,100.86a1.76,1.76,0,1,0-2-1.42A1.76,1.76,0,0,0,136.54,100.86Z"/><path d="M153.85,97.74a1.76,1.76,0,1,0-2-1.42A1.77,1.77,0,0,0,153.85,97.74Z"/><path d="M133.41,83.55a1.76,1.76,0,1,0-2-1.42A1.76,1.76,0,0,0,133.41,83.55Z"/><path d="M148.68,79A1.76,1.76,0,1,0,150.1,77,1.76,1.76,0,0,0,148.68,79Z"/><path d="M128.82,107.61l.31,1.73,1.73-.31a1.67,1.67,0,0,0-.47-.91A1.76,1.76,0,0,0,128.82,107.61Z"/><path d="M127.74,91.72a1.76,1.76,0,0,0-2-1.42l.62,3.46A1.76,1.76,0,0,0,127.74,91.72Z"/><path d="M155.78,68.79a1.76,1.76,0,0,0,1.34,1.4,1.83,1.83,0,0,0,.7,0l-.31-1.73Z"/><path d="M140.51,73.33a1.77,1.77,0,0,0,1.42-2l-3.46.63A1.76,1.76,0,0,0,140.51,73.33Z"/><path d="M123.2,76.45a1.76,1.76,0,0,0,1.42-2l-1.73.31Z"/><path d="M169.69,136a1.74,1.74,0,0,0-1.45,1.68,1.46,1.46,0,0,0,0,.36l1.73-.31Z"/><path d="M154.42,140.54a3.57,3.57,0,0,0-.1-.35,1.76,1.76,0,0,0-3.39.61,1.45,1.45,0,0,0,0,.36Z"/><path d="M166.49,122.13a1.82,1.82,0,0,0,.7,0l-.63-3.47a2.06,2.06,0,0,0-.65.26,1.76,1.76,0,0,0,.58,3.19Z"/><path d="M149.88,125.27a1.76,1.76,0,1,0-2-1.42A1.76,1.76,0,0,0,149.88,125.27Z"/><path d="M142.78,135.48a1.76,1.76,0,1,0-2-1.41A1.75,1.75,0,0,0,142.78,135.48Z"/><path d="M160.09,132.36a1.76,1.76,0,1,0-2-1.42A1.75,1.75,0,0,0,160.09,132.36Z"/><path d="M139.66,118.17a1.76,1.76,0,1,0-.63-3.46,1.76,1.76,0,0,0,.63,3.46Z"/><path d="M157,115.05a1.76,1.76,0,1,0-2-1.42A1.76,1.76,0,0,0,157,115.05Z"/><path d="M137.1,143.66a2,2,0,0,0-.09-.35,1.78,1.78,0,0,0-1.95-1.07l.31,1.73Z"/><path d="M134,126.34a1.75,1.75,0,0,0-2-1.41l.62,3.46A1.76,1.76,0,0,0,134,126.34Z"/><path d="M163.37,104.82a1.83,1.83,0,0,0,.7,0l-.32-1.73-1.73.31a1.62,1.62,0,0,0,.26.65A1.78,1.78,0,0,0,163.37,104.82Z"/><path d="M145,107.18a1.76,1.76,0,0,0,3.19-.57,1.65,1.65,0,0,0,0-.7l-3.46.62A1.62,1.62,0,0,0,145,107.18Z"/><path d="M129.44,111.07a1.75,1.75,0,0,0,1.41-1.34,1.83,1.83,0,0,0,0-.7l-1.73.31Z"/><path d="M175.93,170.62a1.62,1.62,0,0,0-.65.26,1.77,1.77,0,0,0-.65.76,1.69,1.69,0,0,0-.12,1l1.73-.31Z"/><path d="M160.19,174.25a1.74,1.74,0,0,0-1.57-.51,1.78,1.78,0,0,0-1.3,1,1.71,1.71,0,0,0-.12,1l3.46-.63A1.67,1.67,0,0,0,160.19,174.25Z"/><path d="M172.16,153.57a1.73,1.73,0,0,0-.77,1.78,1.76,1.76,0,0,0,1.34,1.41,1.83,1.83,0,0,0,.7,0l-.62-3.46A1.62,1.62,0,0,0,172.16,153.57Z"/><path d="M155.49,156.43a1.76,1.76,0,1,0,2,1.42A1.75,1.75,0,0,0,155.49,156.43Z"/><path d="M148.4,166.65a1.76,1.76,0,1,0,2,1.42A1.75,1.75,0,0,0,148.4,166.65Z"/><path d="M165.71,163.52a1.76,1.76,0,1,0,2,1.42A1.77,1.77,0,0,0,165.71,163.52Z"/><path d="M145.28,149.33a1.76,1.76,0,1,0,2,1.42A1.77,1.77,0,0,0,145.28,149.33Z"/><path d="M162.59,146.21a1.76,1.76,0,1,0,2,1.42A1.76,1.76,0,0,0,162.59,146.21Z"/><path d="M143.35,178.28a1.81,1.81,0,0,0-.47-.91,1.78,1.78,0,0,0-1.58-.51l.32,1.73Z"/><path d="M138.18,159.55l.63,3.47a1.76,1.76,0,1,0-.63-3.47Z"/><path d="M168.27,138a1.74,1.74,0,0,0,1.34,1.4,1.82,1.82,0,0,0,.7,0l-.31-1.73Z"/><path d="M153,142.58a1.76,1.76,0,0,0,1.42-2l-3.47.62A1.77,1.77,0,0,0,153,142.58Z"/><path d="M135.69,145.7a1.75,1.75,0,0,0,1.41-2l-1.73.31Z"/><path d="M182.17,205.25a1.72,1.72,0,0,0-1.44,1.68,1.45,1.45,0,0,0,0,.36l1.73-.31Z"/><path d="M164.86,208.37a1.76,1.76,0,0,0-1.45,1.69,2.16,2.16,0,0,0,0,.35l3.46-.62a2,2,0,0,0-.09-.35A1.76,1.76,0,0,0,164.86,208.37Z"/><path d="M178.4,188.19a1.76,1.76,0,0,0,.58,3.19,1.82,1.82,0,0,0,.7,0l-.63-3.47A2,2,0,0,0,178.4,188.19Z"/><path d="M161.74,191.06a1.76,1.76,0,1,0,2,1.41A1.75,1.75,0,0,0,161.74,191.06Z"/><path d="M154.64,201.27a1.76,1.76,0,1,0,2.05,1.42A1.77,1.77,0,0,0,154.64,201.27Z"/><path d="M172,198.15a1.76,1.76,0,1,0,2,1.42A1.75,1.75,0,0,0,172,198.15Z"/><path d="M151.52,184a1.76,1.76,0,1,0,2,1.42A1.76,1.76,0,0,0,151.52,184Z"/><path d="M168.83,180.84a1.76,1.76,0,1,0,2,1.42A1.76,1.76,0,0,0,168.83,180.84Z"/><path d="M149.59,212.91a1.22,1.22,0,0,0-.1-.34,1.76,1.76,0,0,0-1.94-1.08l.31,1.73Z"/><path d="M144.43,194.18l.62,3.46a1.76,1.76,0,0,0-.62-3.46Z"/><path d="M174.51,172.66a1.62,1.62,0,0,0,.26.65,1.74,1.74,0,0,0,1.08.76,1.83,1.83,0,0,0,.7,0l-.31-1.73Z"/><path d="M157.2,175.79a1.63,1.63,0,0,0,.26.64,1.73,1.73,0,0,0,1.78.77,1.77,1.77,0,0,0,1.41-1.34,1.83,1.83,0,0,0,0-.7Z"/><path d="M141.93,180.33a1.75,1.75,0,0,0,1.4-1.35,1.82,1.82,0,0,0,0-.7l-1.73.31Z"/><path d="M185.29,222.56a1.76,1.76,0,0,0-.07,3.45,1.65,1.65,0,0,0,.7,0Z"/><path d="M168.61,229.14a1.76,1.76,0,1,0-2.05-1.42A1.76,1.76,0,0,0,168.61,229.14Z"/><path d="M160.89,235.9a1.76,1.76,0,1,0,2,1.42A1.75,1.75,0,0,0,160.89,235.9Z"/><path d="M178.2,232.77a1.76,1.76,0,1,0,2,1.43A1.77,1.77,0,0,0,178.2,232.77Z"/><path d="M157.76,218.58a1.76,1.76,0,1,0,2.05,1.42A1.76,1.76,0,0,0,157.76,218.58Z"/><path d="M175.08,215.46a1.76,1.76,0,1,0,2,1.42A1.76,1.76,0,0,0,175.08,215.46Z"/><path d="M154.2,247.83c.49-.24,1-.49,1.48-.75a1.65,1.65,0,0,0-.32-.46,1.75,1.75,0,0,0-1.57-.5l.31,1.73Z"/><path d="M150.67,228.8l.62,3.47a1.76,1.76,0,0,0-.62-3.47Z"/><path d="M180.75,207.29a1.75,1.75,0,0,0,1.35,1.4,1.82,1.82,0,0,0,.7,0l-.32-1.73Z"/><path d="M165.48,211.83a1.75,1.75,0,0,0,1.42-2l-3.46.62A1.76,1.76,0,0,0,165.48,211.83Z"/><path d="M148.17,215a1.76,1.76,0,0,0,1.42-2l-1.73.31Z"/><path d="M154.11,247.87l.09,0-.1,0Z"/><path d="M122.57,73a1.76,1.76,0,0,0-1.44,1.69,1.4,1.4,0,0,0,0,.35l1.74-.31Z"/><path d="M107.3,77.53a1.69,1.69,0,0,0-.09-.34,1.76,1.76,0,0,0-3.4.61,2.16,2.16,0,0,0,0,.35Z"/><path d="M118,57.72a1.77,1.77,0,0,0,2,1.42l-.63-3.46A1.75,1.75,0,0,0,118,57.72Z"/><path d="M104.2,60.39c-.22.49-.43,1-.62,1.48A1.77,1.77,0,0,0,104.2,60.39Z"/><path d="M97.09,70.43a1.76,1.76,0,1,0-1.42,2A1.77,1.77,0,0,0,97.09,70.43Z"/><path d="M114.4,67.31a1.76,1.76,0,1,0-1.42,2A1.76,1.76,0,0,0,114.4,67.31Z"/><path d="M109.86,52a1.76,1.76,0,0,0,1.42-2,1.71,1.71,0,0,0-.34-.75q-1.05,1.32-2,2.7A1.71,1.71,0,0,0,109.86,52Z"/><path d="M90,80.65a1.33,1.33,0,0,0-.1-.34,1.77,1.77,0,0,0-.92-1,1.84,1.84,0,0,0-1-.12L88.26,81Z"/><path d="M128.82,107.61a1.77,1.77,0,0,0-1.3,1,1.68,1.68,0,0,0-.12,1l1.73-.32Z"/><path d="M113.55,112.15a1.85,1.85,0,0,0-.47-.91,1.78,1.78,0,0,0-1.58-.5,1.72,1.72,0,0,0-1.29,1,1.68,1.68,0,0,0-.12,1Z"/><path d="M126.32,93.76l-.62-3.46a1.76,1.76,0,0,0,.62,3.46Z"/><path d="M109,96.89A1.76,1.76,0,1,0,107,95.47,1.77,1.77,0,0,0,109,96.89Z"/><path d="M101.91,107.1a1.76,1.76,0,1,0-2-1.42A1.76,1.76,0,0,0,101.91,107.1Z"/><path d="M119.22,104a1.76,1.76,0,1,0-2-1.42A1.75,1.75,0,0,0,119.22,104Z"/><path d="M98.79,89.79a1.76,1.76,0,1,0-2-1.42A1.76,1.76,0,0,0,98.79,89.79Z"/><path d="M116.1,86.67a1.76,1.76,0,1,0-2-1.42A1.76,1.76,0,0,0,116.1,86.67Z"/><path d="M96.24,115.28a1.84,1.84,0,0,0-.47-.92,1.79,1.79,0,0,0-.56-.38,1.68,1.68,0,0,0-1-.12l.32,1.73Z"/><path d="M92.61,99.54a1.78,1.78,0,0,0,.5-1.58,1.72,1.72,0,0,0-1-1.29,1.76,1.76,0,0,0-1-.13L91.7,100A1.85,1.85,0,0,0,92.61,99.54Z"/><path d="M121.15,75a1.77,1.77,0,0,0,2,1.42l-.31-1.73Z"/><path d="M105.88,79.57a1.75,1.75,0,0,0,1.42-2l-3.46.62A1.76,1.76,0,0,0,105.88,79.57Z"/><path d="M88.57,82.69a1.7,1.7,0,0,0,.92-.47,1.75,1.75,0,0,0,.5-1.57L88.26,81Z"/><path d="M135.06,142.24a1.76,1.76,0,0,0-1.45,1.69,2.16,2.16,0,0,0,0,.35l1.73-.31Z"/><path d="M117.75,145.36a1.76,1.76,0,0,0-1.45,1.69,2.07,2.07,0,0,0,0,.35l3.46-.62a1.33,1.33,0,0,0-.1-.34A1.76,1.76,0,0,0,117.75,145.36Z"/><path d="M132.56,128.39l-.62-3.46a1.76,1.76,0,1,0,.62,3.46Z"/><path d="M114.63,128.05a1.76,1.76,0,1,0,2,1.42A1.75,1.75,0,0,0,114.63,128.05Z"/><path d="M107.53,138.26a1.76,1.76,0,1,0,2,1.42A1.77,1.77,0,0,0,107.53,138.26Z"/><path d="M124.84,135.14a1.76,1.76,0,1,0,2,1.42A1.77,1.77,0,0,0,124.84,135.14Z"/><path d="M104.41,121a1.76,1.76,0,1,0,2,1.42A1.76,1.76,0,0,0,104.41,121Z"/><path d="M121.72,117.83a1.76,1.76,0,1,0,2,1.42A1.76,1.76,0,0,0,121.72,117.83Z"/><path d="M102.48,149.9a1.91,1.91,0,0,0-.1-.34,1.77,1.77,0,0,0-.92-1,1.84,1.84,0,0,0-1-.12l.31,1.73Z"/><path d="M98.34,131.29a1.79,1.79,0,0,0-1-.12l.63,3.46a1.67,1.67,0,0,0,.91-.47,1.73,1.73,0,0,0,.51-1.57A1.78,1.78,0,0,0,98.34,131.29Z"/><path d="M127.4,109.66a1.68,1.68,0,0,0,.26.65,1.74,1.74,0,0,0,1.78.76l-.31-1.73Z"/><path d="M110.34,113.43a1.77,1.77,0,0,0,1.79.77,1.75,1.75,0,0,0,1.4-1.35,1.82,1.82,0,0,0,0-.7l-3.46.63A1.76,1.76,0,0,0,110.34,113.43Z"/><path d="M94.51,115.59l.31,1.73a1.81,1.81,0,0,0,.91-.47,1.75,1.75,0,0,0,.49-.88,1.78,1.78,0,0,0,0-.69Z"/><path d="M141.3,176.86a1.75,1.75,0,0,0-1.29,1,1.68,1.68,0,0,0-.12,1l1.73-.32Z"/><path d="M125.57,180.49A1.78,1.78,0,0,0,124,180a1.73,1.73,0,0,0-1.3,1,1.84,1.84,0,0,0-.12,1l3.47-.63A1.85,1.85,0,0,0,125.57,180.49Z"/><path d="M136.76,161.59a1.77,1.77,0,0,0,2.05,1.43l-.63-3.47A1.76,1.76,0,0,0,136.76,161.59Z"/><path d="M120.87,162.67a1.76,1.76,0,1,0,2,1.42A1.77,1.77,0,0,0,120.87,162.67Z"/><path d="M113.77,172.89a1.76,1.76,0,1,0,2,1.42A1.75,1.75,0,0,0,113.77,172.89Z"/><path d="M131.09,169.77a1.76,1.76,0,1,0,2,1.42A1.75,1.75,0,0,0,131.09,169.77Z"/><path d="M110.65,155.58a1.76,1.76,0,1,0,2,1.42A1.76,1.76,0,0,0,110.65,155.58Z"/><path d="M128,152.45a1.76,1.76,0,1,0,2,1.43A1.76,1.76,0,0,0,128,152.45Z"/><path d="M107.7,183.23a1.68,1.68,0,0,0-1-.12l.31,1.73,1.73-.31a1.7,1.7,0,0,0-.47-.92A1.64,1.64,0,0,0,107.7,183.23Z"/><path d="M104.58,165.92a1.68,1.68,0,0,0-1-.12l.62,3.46a1.88,1.88,0,0,0,.92-.47,1.78,1.78,0,0,0,.5-1.58A1.74,1.74,0,0,0,104.58,165.92Z"/><path d="M135.69,145.7l-.32-1.73-1.73.31A1.76,1.76,0,0,0,135.69,145.7Z"/><path d="M118.37,148.82a1.76,1.76,0,0,0,1.42-2l-3.46.62A1.76,1.76,0,0,0,118.37,148.82Z"/><path d="M100.75,150.21l.31,1.73a1.73,1.73,0,0,0,.92-.47,1.75,1.75,0,0,0,.5-1.57Z"/><path d="M147.55,211.49a1.76,1.76,0,0,0-1.45,1.69,2.16,2.16,0,0,0,0,.35l1.73-.31Z"/><path d="M130.24,214.61a1.76,1.76,0,0,0-1.45,1.69,2.07,2.07,0,0,0,0,.35l3.46-.62a1.33,1.33,0,0,0-.1-.34A1.76,1.76,0,0,0,130.24,214.61Z"/><path d="M143,196.22a1.75,1.75,0,0,0,2,1.42l-.62-3.46A1.74,1.74,0,0,0,143,196.22Z"/><path d="M127.11,197.3a1.76,1.76,0,1,0,2,1.42A1.75,1.75,0,0,0,127.11,197.3Z"/><path d="M122.06,208.94a1.76,1.76,0,1,0-1.42,2A1.76,1.76,0,0,0,122.06,208.94Z"/><path d="M137.33,204.39a1.76,1.76,0,1,0,2,1.42A1.77,1.77,0,0,0,137.33,204.39Z"/><path d="M116.9,190.2a1.76,1.76,0,1,0,2,1.42A1.76,1.76,0,0,0,116.9,190.2Z"/><path d="M134.21,187.08a1.76,1.76,0,1,0,2,1.42A1.76,1.76,0,0,0,134.21,187.08Z"/><path d="M115,219.15a1.91,1.91,0,0,0-.1-.34,1.8,1.8,0,0,0-.92-1,1.88,1.88,0,0,0-1-.12l.32,1.73Z"/><path d="M110.82,200.54a1.76,1.76,0,0,0-1-.12l.63,3.46a1.67,1.67,0,0,0,.91-.47,1.75,1.75,0,0,0-.52-2.87Z"/><path d="M141.93,180.33l-.31-1.74-1.73.32a1.83,1.83,0,0,0,.25.65A1.79,1.79,0,0,0,141.93,180.33Z"/><path d="M122.57,182a2,2,0,0,0,.26.65,1.76,1.76,0,0,0,3.19-.58,1.82,1.82,0,0,0,0-.7Z"/><path d="M107.3,186.57a1.77,1.77,0,0,0,.92-.47,1.83,1.83,0,0,0,.49-.88,1.6,1.6,0,0,0,0-.69l-1.73.31Z"/><path d="M153.79,246.12a1.73,1.73,0,0,0-1.3,1,1.84,1.84,0,0,0-.12,1l1.73-.31Z"/><path d="M136.48,249.24a1.73,1.73,0,0,0-1.3,1,1.84,1.84,0,0,0-.12,1l3.46-.62a1.7,1.7,0,0,0-.47-.92A1.75,1.75,0,0,0,136.48,249.24Z"/><path d="M149.25,230.85a1.76,1.76,0,0,0,2,1.42l-.62-3.47A1.76,1.76,0,0,0,149.25,230.85Z"/><path d="M134,235.39a1.76,1.76,0,1,0-2-1.42A1.76,1.76,0,0,0,134,235.39Z"/><path d="M128.31,243.56a1.76,1.76,0,1,0-1.42,2A1.77,1.77,0,0,0,128.31,243.56Z"/><path d="M145.62,240.44a1.76,1.76,0,1,0-1.42,2A1.76,1.76,0,0,0,145.62,240.44Z"/><path d="M123.14,224.83a1.76,1.76,0,1,0,2,1.42A1.75,1.75,0,0,0,123.14,224.83Z"/><path d="M140.45,221.71a1.76,1.76,0,1,0,2.05,1.42A1.76,1.76,0,0,0,140.45,221.71Z"/><path d="M116.09,235.28l.74-.19a1.7,1.7,0,0,0-.78,0Z"/><path d="M148.17,215l-.31-1.73-1.73.31A1.76,1.76,0,0,0,148.17,215Z"/><path d="M130.86,218.07a1.75,1.75,0,0,0,1.42-2l-3.46.62A1.74,1.74,0,0,0,130.86,218.07Z"/><path d="M113.55,221.19a1.67,1.67,0,0,0,.91-.47,1.75,1.75,0,0,0,.51-1.57l-1.73.31Z"/><path d="M154.1,247.85l-1.73.31a1.93,1.93,0,0,0,.16.46c.53-.24,1.06-.49,1.58-.75Z"/><path d="M135.32,251.93a1.71,1.71,0,0,0,.21.26c.81.07,1.62.09,2.43.08a1.75,1.75,0,0,0,.55-.92,1.6,1.6,0,0,0,0-.69l-3.46.62A1.62,1.62,0,0,0,135.32,251.93Z"/><path d="M88.26,81,88,79.23a1.62,1.62,0,0,0-.65.26,1.78,1.78,0,0,0-.8,1.43,2.07,2.07,0,0,0,0,.35Z"/><path d="M72.58,83.43a1.76,1.76,0,0,0-1.94-1.08,1.63,1.63,0,0,0-.51.19,8.42,8.42,0,0,0,.17,1.66l2.38-.43A1.33,1.33,0,0,0,72.58,83.43Z"/><path d="M79.78,73.56a1.76,1.76,0,1,0-1.42,2A1.77,1.77,0,0,0,79.78,73.56Z"/><path d="M94.19,113.86a1.76,1.76,0,0,0-.65.25,1.87,1.87,0,0,0-.65.77,1.84,1.84,0,0,0-.12,1l1.74-.31Z"/><path d="M78.92,118.4a1.73,1.73,0,0,0-.47-.92,1.76,1.76,0,0,0-2.87.52,1.84,1.84,0,0,0-.12,1Z"/><path d="M91,100a1.82,1.82,0,0,0,.7,0l-.63-3.47a2,2,0,0,0-.65.26A1.76,1.76,0,0,0,91,100Z"/><path d="M72.34,101.71a1.76,1.76,0,1,0,1.42-2A1.76,1.76,0,0,0,72.34,101.71Z"/><path d="M67.29,113.35a1.76,1.76,0,1,0-2.05-1.42A1.77,1.77,0,0,0,67.29,113.35Z"/><path d="M84.6,110.22a1.76,1.76,0,1,0-2-1.41A1.75,1.75,0,0,0,84.6,110.22Z"/><path d="M64.17,96a1.76,1.76,0,1,0-2.05-1.42A1.76,1.76,0,0,0,64.17,96Z"/><path d="M81.48,92.91a1.76,1.76,0,1,0-2-1.42A1.76,1.76,0,0,0,81.48,92.91Z"/><path d="M61.61,121.52a1.73,1.73,0,0,0-.47-.92,1.75,1.75,0,0,0-1.57-.5l.31,1.73Z"/><path d="M58.49,104.21a1.76,1.76,0,0,0-2-1.42l.62,3.46A1.76,1.76,0,0,0,58.49,104.21Z"/><path d="M86.53,81.27a1.77,1.77,0,0,0,1.34,1.41,1.65,1.65,0,0,0,.7,0L88.26,81Z"/><path d="M70.8,85.83a1.79,1.79,0,0,0,.46,0,1.75,1.75,0,0,0,1.42-2l-2.38.43A8.52,8.52,0,0,0,70.8,85.83Z"/><path d="M53.91,88.72l0,.22a1.78,1.78,0,0,0,1.18-.82C54.72,88.31,54.31,88.5,53.91,88.72Z"/><path d="M100.44,148.48a2,2,0,0,0-.65.26,1.75,1.75,0,0,0-.8,1.43,2.19,2.19,0,0,0,0,.36l1.73-.32Z"/><path d="M83.12,151.6a1.77,1.77,0,0,0-1.44,1.69,1.46,1.46,0,0,0,0,.36l3.46-.63a1.91,1.91,0,0,0-.1-.34A1.76,1.76,0,0,0,83.12,151.6Z"/><path d="M96.67,131.43a1.76,1.76,0,0,0,.57,3.19,1.65,1.65,0,0,0,.7,0l-.63-3.46A1.63,1.63,0,0,0,96.67,131.43Z"/><path d="M80.63,137.76a1.76,1.76,0,1,0-2-1.43A1.77,1.77,0,0,0,80.63,137.76Z"/><path d="M73.53,148a1.76,1.76,0,1,0-2-1.42A1.76,1.76,0,0,0,73.53,148Z"/><path d="M90.84,144.85a1.76,1.76,0,1,0-2-1.42A1.75,1.75,0,0,0,90.84,144.85Z"/><path d="M70.41,130.66a1.76,1.76,0,1,0-2-1.42A1.76,1.76,0,0,0,70.41,130.66Z"/><path d="M87.72,127.54a1.76,1.76,0,1,0-2-1.42A1.77,1.77,0,0,0,87.72,127.54Z"/><path d="M65.81,154.73l.31,1.73,1.74-.32a3.37,3.37,0,0,0-.1-.34A1.76,1.76,0,0,0,65.81,154.73Z"/><path d="M64.73,138.83a1.76,1.76,0,0,0-2-1.42l.63,3.47A1.76,1.76,0,0,0,64.73,138.83Z"/><path d="M92.77,115.9a2,2,0,0,0,.26.65,1.76,1.76,0,0,0,1.09.75,1.82,1.82,0,0,0,.7,0l-.31-1.73Z"/><path d="M75.72,119.67a1.76,1.76,0,0,0,3.19-.57,1.65,1.65,0,0,0,0-.7l-3.46.62A1.62,1.62,0,0,0,75.72,119.67Z"/><path d="M60.19,123.56a1.76,1.76,0,0,0,1.41-1.34,1.83,1.83,0,0,0,0-.7l-1.73.31Z"/><path d="M106.68,183.11a1.62,1.62,0,0,0-.65.26,1.72,1.72,0,0,0-.65.76,1.84,1.84,0,0,0-.12,1l1.73-.31Z"/><path d="M90.94,186.73a1.75,1.75,0,0,0-1.57-.5,1.78,1.78,0,0,0-1.3,1,1.68,1.68,0,0,0-.12,1l3.46-.62A1.73,1.73,0,0,0,90.94,186.73Z"/><path d="M102.91,166.05a1.76,1.76,0,0,0,.57,3.19,1.83,1.83,0,0,0,.7,0l-.62-3.46A1.76,1.76,0,0,0,102.91,166.05Z"/><path d="M86.25,168.92a1.76,1.76,0,1,0,2,1.42A1.75,1.75,0,0,0,86.25,168.92Z"/><path d="M79.15,179.13a1.76,1.76,0,1,0,2,1.42A1.77,1.77,0,0,0,79.15,179.13Z"/><path d="M96.46,176a1.76,1.76,0,1,0,2.05,1.42A1.77,1.77,0,0,0,96.46,176Z"/><path d="M76,161.82a1.76,1.76,0,1,0,2,1.42A1.76,1.76,0,0,0,76,161.82Z"/><path d="M93.34,158.7a1.76,1.76,0,1,0,2,1.42A1.76,1.76,0,0,0,93.34,158.7Z"/><path d="M74.1,190.77a1.77,1.77,0,0,0-2-1.42l.31,1.73Z"/><path d="M68.93,172l.63,3.46a1.76,1.76,0,1,0-.63-3.46Z"/><path d="M99,150.53a1.76,1.76,0,0,0,1.34,1.4,1.65,1.65,0,0,0,.7,0l-.31-1.73Z"/><path d="M83.75,155.07a1.77,1.77,0,0,0,1.42-2l-3.46.63A1.76,1.76,0,0,0,83.75,155.07Z"/><path d="M66.44,158.19a1.77,1.77,0,0,0,1.42-2.05l-1.74.32Z"/><path d="M112.92,217.73a2.16,2.16,0,0,0-.65.26,1.77,1.77,0,0,0-.79,1.43,1.45,1.45,0,0,0,0,.36l1.74-.32Z"/><path d="M95.61,220.86a1.74,1.74,0,0,0-1.44,1.68,1.45,1.45,0,0,0,0,.36l3.47-.63a3.37,3.37,0,0,0-.1-.34A1.75,1.75,0,0,0,95.61,220.86Z"/><path d="M109.15,200.68a1.76,1.76,0,0,0,.58,3.19,1.65,1.65,0,0,0,.7,0l-.63-3.46A1.62,1.62,0,0,0,109.15,200.68Z"/><path d="M92.49,203.54a1.76,1.76,0,1,0,2,1.42A1.76,1.76,0,0,0,92.49,203.54Z"/><path d="M85.39,213.76a1.76,1.76,0,1,0,2,1.42A1.75,1.75,0,0,0,85.39,213.76Z"/><path d="M102.71,210.64a1.76,1.76,0,1,0,2,1.42A1.74,1.74,0,0,0,102.71,210.64Z"/><path d="M82.27,196.45a1.76,1.76,0,1,0,2,1.42A1.76,1.76,0,0,0,82.27,196.45Z"/><path d="M99.58,193.32a1.76,1.76,0,1,0,2,1.42A1.76,1.76,0,0,0,99.58,193.32Z"/><path d="M78.3,224l.31,1.73,1.73-.31a1.4,1.4,0,0,0-.1-.35A1.75,1.75,0,0,0,78.3,224Z"/><path d="M75.18,206.66l.62,3.47a1.76,1.76,0,0,0-.62-3.47Z"/><path d="M105.26,185.15a1.62,1.62,0,0,0,.26.65,1.79,1.79,0,0,0,1.78.77l-.31-1.73Z"/><path d="M88,188.27a1.62,1.62,0,0,0,.26.65,1.73,1.73,0,0,0,1.78.77,1.77,1.77,0,0,0,1.41-1.34,1.83,1.83,0,0,0,0-.7Z"/><path d="M72.37,191.08l.31,1.73a1.74,1.74,0,0,0,1.4-1.34,1.82,1.82,0,0,0,0-.7Z"/><path d="M115.4,235.3l-.26.2,1-.22,0-.23A1.76,1.76,0,0,0,115.4,235.3Z"/><path d="M87.4,231.78c.76-.16,1.51-.34,2.25-.52a1.74,1.74,0,0,0-1.13-.19A1.78,1.78,0,0,0,87.4,231.78Z"/><path d="M104.41,230a1.76,1.76,0,1,0,1.42-2A1.75,1.75,0,0,0,104.41,230Z"/><path d="M113.24,219.46l-1.74.32a1.77,1.77,0,0,0,1.35,1.4,1.65,1.65,0,0,0,.7,0Z"/><path d="M96.24,224.32a1.77,1.77,0,0,0,1.42-2l-3.47.63A1.77,1.77,0,0,0,96.24,224.32Z"/><path d="M78.92,227.44a1.75,1.75,0,0,0,1.42-2l-1.73.31Z"/><path d="M59.88,121.83l-.31-1.73a1.78,1.78,0,0,0-1.3,1,1.68,1.68,0,0,0-.12,1Z"/><path d="M44.3,124.64a1.67,1.67,0,0,0-.47-.91,1.74,1.74,0,0,0-1.57-.51,1.78,1.78,0,0,0-1.3,1,1.69,1.69,0,0,0-.12,1Z"/><path d="M55,104.83a1.75,1.75,0,0,0,2,1.42l-.62-3.46A1.74,1.74,0,0,0,55,104.83Z"/><path d="M34,118.52a17.5,17.5,0,0,0-1.48,1.08h.16A1.75,1.75,0,0,0,34,118.52Z"/><path d="M51.4,114.42a1.76,1.76,0,1,0-1.42,2A1.77,1.77,0,0,0,51.4,114.42Z"/><path d="M46.85,99.15a1.76,1.76,0,0,0-.54-3.47A19.92,19.92,0,0,0,45,98.16,1.75,1.75,0,0,0,46.85,99.15Z"/><path d="M26.52,126.85h0c-.22.37-.44.75-.65,1.13l1.13-.21A1.81,1.81,0,0,0,26.52,126.85Z"/><path d="M53.5,89a2.26,2.26,0,0,0,.45,0l0-.22Z"/><path d="M65.81,154.73a1.75,1.75,0,0,0-1.44,1.68,1.45,1.45,0,0,0,0,.36l1.73-.31Z"/><path d="M48.5,157.85a1.76,1.76,0,0,0-1.45,1.69,2.16,2.16,0,0,0,0,.35l3.46-.62a2,2,0,0,0-.09-.35A1.76,1.76,0,0,0,48.5,157.85Z"/><path d="M63.32,140.88l-.63-3.47a1.76,1.76,0,1,0,.63,3.47Z"/><path d="M46,144a1.76,1.76,0,1,0-2-1.42A1.76,1.76,0,0,0,46,144Z"/><path d="M38.91,154.21a1.76,1.76,0,1,0-2-1.41A1.76,1.76,0,0,0,38.91,154.21Z"/><path d="M56.22,151.09a1.76,1.76,0,1,0-2-1.42A1.75,1.75,0,0,0,56.22,151.09Z"/><path d="M35.79,136.9a1.76,1.76,0,1,0-2-1.42A1.75,1.75,0,0,0,35.79,136.9Z"/><path d="M53.1,133.78a1.76,1.76,0,1,0-2.05-1.42A1.76,1.76,0,0,0,53.1,133.78Z"/><path d="M31.54,160.94l-.35,0,.31,1.73,1.73-.31a1.22,1.22,0,0,0-.1-.34A1.76,1.76,0,0,0,31.54,160.94Z"/><path d="M29,147a1.76,1.76,0,0,0-.61-3.39,2.07,2.07,0,0,0-.35,0l.62,3.46A1.33,1.33,0,0,0,29,147Z"/><path d="M58.15,122.14a1.62,1.62,0,0,0,.26.65,1.74,1.74,0,0,0,1.78.77l-.31-1.73Z"/><path d="M41.09,125.91a1.77,1.77,0,0,0,3.2-.57,1.83,1.83,0,0,0,0-.7l-3.46.62A1.76,1.76,0,0,0,41.09,125.91Z"/><path d="M25.91,129.71A1.76,1.76,0,0,0,27,128.46a1.82,1.82,0,0,0,0-.7l-1.13.21c-.16.29-.31.58-.46.88l.17,1Z"/><path d="M72.06,189.35a1.78,1.78,0,0,0-1.3,1,1.69,1.69,0,0,0-.12,1l1.73-.31Z"/><path d="M56.32,193a1.78,1.78,0,0,0-1.58-.51,1.76,1.76,0,0,0-1.29,1,1.71,1.71,0,0,0-.12,1l3.46-.63A1.81,1.81,0,0,0,56.32,193Z"/><path d="M67.51,174.08a1.77,1.77,0,0,0,2,1.42L68.93,172A1.76,1.76,0,0,0,67.51,174.08Z"/><path d="M51.62,175.16a1.76,1.76,0,1,0,2.05,1.42A1.76,1.76,0,0,0,51.62,175.16Z"/><path d="M46.57,186.8a1.76,1.76,0,1,0-1.42,2A1.75,1.75,0,0,0,46.57,186.8Z"/><path d="M61.84,182.25a1.76,1.76,0,1,0,2,1.43A1.77,1.77,0,0,0,61.84,182.25Z"/><path d="M42,171.53a1.76,1.76,0,1,0-2-1.42A1.77,1.77,0,0,0,42,171.53Z"/><path d="M58.72,164.94a1.76,1.76,0,1,0,2,1.42A1.76,1.76,0,0,0,58.72,164.94Z"/><path d="M64.39,156.77a1.77,1.77,0,0,0,2,1.42l-.32-1.73Z"/><path d="M49.12,161.31a1.75,1.75,0,0,0,1.42-2l-3.46.62A1.76,1.76,0,0,0,49.12,161.31Z"/><path d="M31.71,163.89c.18.14.36.26.54.39a1.75,1.75,0,0,0,1-1.89l-1.73.31Z"/><path d="M78.3,224a1.76,1.76,0,0,0-1.45,1.68,2.19,2.19,0,0,0,0,.36l1.73-.31Z"/><path d="M62.93,228.17A1.76,1.76,0,0,0,61,227.1a1.74,1.74,0,0,0-.72.31,21.6,21.6,0,0,0,1.85,1.27l.91-.16A1.4,1.4,0,0,0,62.93,228.17Z"/><path d="M73.76,208.71a1.76,1.76,0,0,0,2,1.42l-.62-3.47A1.77,1.77,0,0,0,73.76,208.71Z"/><path d="M57.87,209.79a1.76,1.76,0,1,0,2,1.41A1.74,1.74,0,0,0,57.87,209.79Z"/><path d="M68.08,216.88a1.76,1.76,0,1,0,2,1.42A1.77,1.77,0,0,0,68.08,216.88Z"/><path d="M65,199.57A1.76,1.76,0,1,0,67,201,1.75,1.75,0,0,0,65,199.57Z"/><path d="M70.64,191.39a1.74,1.74,0,0,0,2,1.42l-.31-1.73Z"/><path d="M53.33,194.52a1.78,1.78,0,0,0,.25.64,1.76,1.76,0,0,0,3.19-.57,1.82,1.82,0,0,0,0-.7Z"/><path d="M76.88,226a1.76,1.76,0,0,0,2,1.42l-.31-1.73Z"/><path d="M62.12,228.68c.3.18.59.36.9.53a1.78,1.78,0,0,0,0-.69Z"/><path d="M31.19,161a1.62,1.62,0,0,0-.65.26,1.77,1.77,0,0,0-.73,1c.23.22.46.45.7.66l1-.18Z"/><path d="M26.65,145.7A1.77,1.77,0,0,0,28,147.11a1.83,1.83,0,0,0,.7,0l-.62-3.46a1.74,1.74,0,0,0-1.42,2Z"/><path d="M25.4,128.85c-.17.31-.33.63-.48,1a1.77,1.77,0,0,0,.65,0Z"/><path d="M30.51,162.88c.4.35.8.69,1.2,1l-.21-1.19Z"/><path d="M81.28,51.94c78.52,52.83,96.81,6.62,129.47-17.59-4.46,23,5.13,67.71,26.52,77.23,14.64,6.52,31.53,3.77,47.3.9-19.83,11.27-31.75,33.72-33.79,56.43s4.85,45.52,15.67,65.58c-10.68-9.9-21.87-20.1-35.81-24.33-19.53-5.92-41.49,1.46-56.36,15.43s-23.38,33.61-27.6,53.57A127.78,127.78,0,0,0,151.53,222c-2.25-15.57-9.1-32.55-23.82-38.06-8.2-3.07-17.32-1.95-25.91-.27s-17.07,2.83-25.47,4.94c-9,2.28-19.18,8.17-27.12,11.78,2.95-7.78,11.2-13.54,16.42-20a215.5,215.5,0,0,0,30.63-51.21,90.87,90.87,0,0,0,6-18.63C105.29,94.32,91.57,64.76,81.28,51.94Z" fill="#bb4c46"/><path d="M81.17,51.84l8.08,4.91,4,2.34c1.33.79,2.67,1.57,4,2.27l4.09,2.19c1.37.73,2.79,1.35,4.18,2,2.76,1.4,5.65,2.52,8.48,3.74a97.71,97.71,0,0,0,17.73,5.09,56.89,56.89,0,0,0,18.27.39,50.08,50.08,0,0,0,17.19-5.9,87.1,87.1,0,0,0,14.92-10.7c9.32-8.05,17.76-17.28,27.83-24.85l2.53-1.9L212,34.58a72.42,72.42,0,0,0-.91,16.4,112,112,0,0,0,2,16.42,113.63,113.63,0,0,0,4.37,15.95q1.41,3.89,3.16,7.61a70.5,70.5,0,0,0,4,7.17c3,4.53,6.67,8.7,11.28,11.36l1.77.9c.61.27,1.25.51,1.87.77l1,.38,1,.32c.65.21,1.29.44,1.94.63a54.16,54.16,0,0,0,8,1.58A79.06,79.06,0,0,0,267.9,114c5.51-.53,11-1.46,16.5-2.41l5.33-.93L285,113.28a63.5,63.5,0,0,0-23.54,23.64A78,78,0,0,0,251.3,169a98.07,98.07,0,0,0,3,33.71,140,140,0,0,0,12.64,31.52l1.57,2.9-2.42-2.24a194,194,0,0,0-15.71-13.43,66.74,66.74,0,0,0-17.9-9.88,48.45,48.45,0,0,0-9.93-2.27,48,48,0,0,0-5.09-.3,50.82,50.82,0,0,0-5.09.17,56,56,0,0,0-10,1.82c-1.66.38-3.24,1-4.87,1.53l-2.36.95-1.19.47-1.15.55-2.31,1.09-2.24,1.22-1.12.62-1.08.67-2.16,1.36c-1.37,1-2.82,1.9-4.12,3-.66.53-1.34,1-2,1.59l-1.9,1.7c-.64.55-1.24,1.16-1.84,1.76s-1.22,1.19-1.8,1.81c-1.13,1.27-2.31,2.5-3.36,3.84a81,81,0,0,0-6,8.27,100.42,100.42,0,0,0-9.07,18.32,131.79,131.79,0,0,0-5.72,19.7l-2.71-.72a126.66,126.66,0,0,0,5.76-45.54,95.75,95.75,0,0,0-3.72-22.61c-2.25-7.22-5.7-14.21-11-19.38a26.85,26.85,0,0,0-9.25-5.88,31.81,31.81,0,0,0-10.92-1.81,65.12,65.12,0,0,0-11.33,1.12l-5.73,1.06-5.76,1c-3.83.67-7.65,1.33-11.42,2.13-1.89.4-3.78.82-5.62,1.3a50.51,50.51,0,0,0-5.39,1.75c-7.15,2.71-13.95,6.47-21.11,9.73l-3.19,1.46,1.28-3.24A30.41,30.41,0,0,1,54,190.65c2.41-2.67,5-5.08,7.43-7.57,1.22-1.25,2.36-2.51,3.45-3.84s2.19-2.73,3.25-4.13q3.21-4.14,6.2-8.47A218,218,0,0,0,94.83,130a92.14,92.14,0,0,0,6.69-19.79,36.55,36.55,0,0,0,.06-10.29c-.28-1.71-.48-3.44-.89-5.14-.19-.85-.35-1.71-.56-2.56l-.68-2.53A117.79,117.79,0,0,0,92,70.09c-1.49-3.18-3.18-6.26-4.93-9.31-.93-1.49-1.8-3-2.8-4.46-.51-.73-.94-1.44-1.51-2.2S81.66,52.56,81.17,51.84Zm.22.2c.56.69,1.14,1.3,1.65,1.93s1,1.42,1.52,2.12c1,1.43,2,2.94,2.92,4.42,1.82,3,3.59,6.08,5.16,9.24a119.67,119.67,0,0,1,8,19.63l.74,2.55c.23.86.42,1.73.63,2.59.45,1.72.68,3.49,1,5.24a38.38,38.38,0,0,1,.08,10.76,93.72,93.72,0,0,1-6.5,20.26c-2.74,6.53-5.82,12.9-9.19,19.13S80.3,162.17,76.31,168c-2,2.92-4.06,5.81-6.2,8.63-1.06,1.42-2.16,2.8-3.25,4.2s-2.34,2.76-3.57,4.05c-2.46,2.58-5,5-7.29,7.57a27.67,27.67,0,0,0-5.47,8.37l-1.9-1.79c7-3.23,13.79-7.13,21.21-10a53.48,53.48,0,0,1,5.7-1.86c1.92-.51,3.83-.94,5.75-1.35,3.84-.81,7.69-1.49,11.52-2.16l5.74-1,5.75-1.09a68.72,68.72,0,0,1,11.87-1.18,34.8,34.8,0,0,1,12,2,29.77,29.77,0,0,1,10.34,6.54,40.12,40.12,0,0,1,7.29,9.66,57.38,57.38,0,0,1,4.62,11.06A79.73,79.73,0,0,1,153,221.26q.84,5.87,1.16,11.76A129.85,129.85,0,0,1,148,279.59l-2.71-.72c2.95-13.62,7.76-27,15.41-38.8a84.63,84.63,0,0,1,6.26-8.45c1.1-1.38,2.32-2.63,3.51-3.93.6-.64,1.24-1.24,1.87-1.86s1.24-1.23,1.92-1.8l2-1.74c.68-.56,1.39-1.09,2.08-1.63,1.36-1.12,2.86-2,4.29-3.06l2.25-1.37,1.13-.68,1.16-.62,2.33-1.24,2.4-1.09,1.2-.55,1.23-.47,2.46-1c1.68-.5,3.32-1.13,5-1.51a58.87,58.87,0,0,1,10.39-1.74c1.75-.06,3.51-.2,5.27-.1A48.84,48.84,0,0,1,233,210.13a68.53,68.53,0,0,1,18.17,10.3c5.53,4.22,10.61,9,15.68,13.66l-.85.66a141.61,141.61,0,0,1-12.59-31.81,102.73,102.73,0,0,1-3.12-34,81,81,0,0,1,10.07-32.65,65.21,65.21,0,0,1,23.78-24.57l.62,1.7c-5.49,1-11,2.05-16.62,2.67a80,80,0,0,1-17,.32,53.85,53.85,0,0,1-8.43-1.54c-.69-.19-1.37-.42-2.06-.63l-1-.33-1-.4c-.66-.27-1.33-.52-2-.81l-2-1c-5.13-2.94-9-7.4-12.2-12.13a70.77,70.77,0,0,1-4.19-7.44c-1.22-2.57-2.32-5.19-3.3-7.84a105.76,105.76,0,0,1-4.5-16.34,114.54,114.54,0,0,1-2-16.82,75.8,75.8,0,0,1,1-17l2,1.23c-9.87,7.31-18.33,16.46-27.84,24.58A85.09,85.09,0,0,1,168.23,70.7a52,52,0,0,1-17.91,5.87,58.36,58.36,0,0,1-18.79-.66,93.34,93.34,0,0,1-17.9-5.49c-2.84-1.29-5.73-2.48-8.48-4-1.38-.71-2.79-1.38-4.15-2.13l-4.07-2.29c-1.37-.74-2.69-1.55-4-2.37l-4-2.45C86.37,55.6,84,53.82,81.39,52Z"/><path d="M84,104.77a42.54,42.54,0,0,0-12.79,18.52,42.91,42.91,0,0,0-2.23,11.1,41.88,41.88,0,0,0,.84,11.28A41.38,41.38,0,0,0,80.07,165.5a42.6,42.6,0,0,0,19,11.75l1.55.46v1.61a41.67,41.67,0,0,0,6.33,22.48l1.62,2.48,1.85,2.32c.32.38.6.78.94,1.14l1,1.06c.71.68,1.35,1.45,2.12,2.07l2.28,1.9c.75.64,1.61,1.14,2.42,1.71l1.22.85c.42.25.86.48,1.29.72.87.47,1.72,1,2.61,1.42a45.33,45.33,0,0,0,11.3,3.63,46,46,0,0,0,11.9.32,43.31,43.31,0,0,0,21.79-9.23l1-.78.92.78a43.12,43.12,0,0,0,47.25,5.66,44.91,44.91,0,0,0,13.4-10.39h0A44.77,44.77,0,0,0,241.73,195a42.92,42.92,0,0,0,4.72-15.09l.05-.42.39-.25a42.69,42.69,0,0,0,9.88-9l.05-.07.1-.08a42.5,42.5,0,0,0,12.88-19.22,41.63,41.63,0,0,0,1-23,42.6,42.6,0,0,0-4.13-10.8,43.82,43.82,0,0,0-6.95-9.23,42.83,42.83,0,0,0-19.87-11.36l-1.43-.37.09-1.4a27,27,0,0,0,0-3c-.06-1,0-2-.16-3a44.43,44.43,0,0,0-1.07-5.86,49.43,49.43,0,0,0-1.8-5.69c-.39-.92-.83-1.81-1.24-2.72-.22-.45-.4-.92-.65-1.35l-.76-1.29L232,70.57a8.72,8.72,0,0,0-.81-1.26l-1.76-2.43c-.61-.8-1.31-1.51-2-2.28l-1-1.12-1.1-1a42.57,42.57,0,0,0-21.13-11l-3-.5c-1-.14-2-.15-3-.24a34.41,34.41,0,0,0-6.09.06,42.09,42.09,0,0,0-22.38,8.92l-.39.3-.38-.3a42.44,42.44,0,0,0-51.83-.87c-.75.53-1.46,1.14-2.19,1.72s-1.37,1.2-2,1.85a38.55,38.55,0,0,0-3.63,4.14,27.17,27.17,0,0,0-4.84,9.65,17.52,17.52,0,0,0,.45,10.39l.41,1.1-1.11.6a56.83,56.83,0,0,0-5.47,3.41c-1.78,1.24-3.53,2.54-5.21,3.92s-3.31,2.81-4.87,4.33-3,3.07-4.48,4.67c.11.09.16.14,0,0h0v0l.17.15.18.17-.38-.29,0,0Z" fill="#8fffff"/><path d="M81.39,102.35c-.12-.09-.25-.19-.2-.14a4.11,4.11,0,0,0,.31.28l0,0Z"/><path d="M81.57,102.43h0C81.49,102.35,81.46,102.33,81.57,102.43Z"/><path d="M84.3,104.77l-.17-.15,0,0,.38.29Z"/><path d="M84.17,104.57h0C84.33,104.71,84.28,104.66,84.17,104.57Z"/><path d="M242,94.82c0-.46,0-.92,0-1.38-.45-.12-.89-.27-1.34-.38Z"/><path d="M103,85.74c-.36.18-.7.36-1,.55.1.38.21.77.34,1.15Z"/><path d="M169.74,58.68c-.13-.1-.27-.19-.39-.29l-.38.29Z"/><path d="M81.84,102.19l-.09.08-.09.1Z"/><path d="M232,207.58l0,0,.12.15.05-.05h0Z"/><path d="M258.39,171.83l.07-.06.08-.09Z"/><path d="M247.92,180.8l.35-.22c0-.15.06-.3.08-.45Z"/><path d="M169.29,214.45l1,.73c.31-.24.62-.47.92-.73Z"/><path d="M96.3,179.28c0,.52,0,1,0,1.55.51.18,1,.36,1.53.52Z"/><path d="M82.37,103.12l-.77-.67,0,0,0,0,.48.38C82.31,103.08,82.47,103.21,82.37,103.12Z"/><path d="M232,207.62a43.78,43.78,0,0,1-61.72,5.7,43.77,43.77,0,0,1-71.79-34,43.76,43.76,0,0,1-15.66-75.72l-.13-.1-1-.9a1.06,1.06,0,0,1-.11-.09,47.47,47.47,0,0,0-8.1,8.65,45,45,0,0,0-8.27,23A45.94,45.94,0,0,0,77,168.34a43.78,43.78,0,0,0,9.55,7.92,46.85,46.85,0,0,0,9.78,4.57c0-.51,0-1,0-1.55l1.54,2.07c-.51-.16-1-.34-1.53-.52A45,45,0,0,0,103.38,204l1.81,2.71c.66.86,1.37,1.69,2,2.53.35.41.67.85,1.05,1.24l1.15,1.16c.78.74,1.5,1.57,2.34,2.25A46.59,46.59,0,0,0,122.64,221a45.5,45.5,0,0,0,25.29,3.83,46.47,46.47,0,0,0,22.32-9.64l-1-.73h1.88c-.3.26-.61.49-.92.73a44.68,44.68,0,0,0,32.13,9,44,44,0,0,0,29.74-16.48l-.05.05Z"/><path d="M232,207.58l-.16-.12h0l.12.15Z"/><path d="M231.94,207.61h0l0,0h0Z"/><path d="M231.94,207.61h0l-.12-.15a44.91,44.91,0,0,1-13.4,10.39,42.78,42.78,0,0,1-47.25-5.66l-.92-.78-1,.78a43.31,43.31,0,0,1-21.79,9.23,46,46,0,0,1-11.9-.32,45.33,45.33,0,0,1-11.3-3.63c-.89-.42-1.74-.95-2.61-1.42-.43-.24-.87-.47-1.29-.72l-1.22-.85c-.81-.57-1.67-1.07-2.42-1.71l-2.28-1.9c-.77-.62-1.41-1.39-2.12-2.07l-1-1.06c-.34-.36-.62-.76-.94-1.14l-1.85-2.32-1.62-2.48a41.67,41.67,0,0,1-6.33-22.48v-1.61L99,177.25a42.6,42.6,0,0,1-19-11.75,41.38,41.38,0,0,1-10.29-19.83,41.88,41.88,0,0,1-.84-11.28,42.91,42.91,0,0,1,2.23-11.1A42.54,42.54,0,0,1,84,104.77l.11-.09,0,0-.07-.06L83,103.73l-.15-.12h0l0,0A43.76,43.76,0,0,0,98.44,179.3a43.77,43.77,0,0,0,71.79,34,43.78,43.78,0,0,0,61.72-5.7Z"/><path d="M274,127.13a45.64,45.64,0,0,0-4.37-11.72,47.34,47.34,0,0,0-7.46-10c-.76-.73-1.46-1.51-2.26-2.18l-2.41-2L255,99.34c-.85-.61-1.79-1.08-2.68-1.63A47.06,47.06,0,0,0,242,93.44c0,.46,0,.92,0,1.38l-1.34-1.76c.45.11.89.26,1.34.38,0-.61,0-1.23-.08-1.84-.09-1.07-.08-2.15-.24-3.21A48.14,48.14,0,0,0,238.35,76c-.45-1-.95-1.92-1.42-2.88-.25-.48-.46-1-.74-1.43l-.85-1.36L234.48,69a11.4,11.4,0,0,0-.9-1.32l-2-2.54c-.67-.83-1.44-1.57-2.15-2.36l-1.1-1.17-1.2-1.06a43.35,43.35,0,0,0-10.53-7.11,44,44,0,0,0-12.06-3.86l-3.14-.43c-1.05-.11-2.11-.1-3.17-.15a37.9,37.9,0,0,0-6.3.23,45.07,45.07,0,0,0-22.62,9.21c.12.1.26.19.39.29H169l.38-.29a44.77,44.77,0,0,0-43.12-6.51A44.44,44.44,0,0,0,116,57.26c-.8.55-1.54,1.14-2.3,1.73s-1.5,1.25-2.21,1.91a40.85,40.85,0,0,0-3.94,4.27,29.91,29.91,0,0,0-5.52,10.34,20.43,20.43,0,0,0-.13,10.78c.34-.19.68-.37,1-.55l-.7,1.7c-.13-.38-.24-.77-.34-1.15-1.69.9-3.28,1.87-4.86,2.9-1.88,1.25-3.72,2.57-5.49,4s-3.49,2.85-5.14,4.4-3.17,3.09-4.69,4.71l.09-.08-.18.18.09-.1-.17.15.11.08,1.06.85.15.13.16.13,1,.88.08.08c1.45-1.6,2.92-3.18,4.48-4.67s3.2-2.94,4.87-4.33,3.43-2.68,5.21-3.92a56.83,56.83,0,0,1,5.47-3.41l1.11-.6-.41-1.1a17.52,17.52,0,0,1-.45-10.39,27.17,27.17,0,0,1,4.84-9.65,38.55,38.55,0,0,1,3.63-4.14c.66-.65,1.33-1.28,2-1.85s1.44-1.19,2.19-1.72a42.63,42.63,0,0,1,51.83.87l.38.3.39-.3a42.09,42.09,0,0,1,22.38-8.92,34.41,34.41,0,0,1,6.09-.06c1,.09,2,.1,3,.24l3,.5a42.57,42.57,0,0,1,21.13,11l1.1,1,1,1.12c.65.77,1.35,1.48,2,2.28l1.76,2.43a8.72,8.72,0,0,1,.81,1.26l.76,1.29.76,1.29c.25.43.43.9.65,1.35.41.91.85,1.8,1.24,2.72a49.43,49.43,0,0,1,1.8,5.69,44.43,44.43,0,0,1,1.07,5.86c.13,1,.1,2,.16,3a27,27,0,0,1,0,3l-.09,1.4,1.43.37a42.83,42.83,0,0,1,19.87,11.36,43.82,43.82,0,0,1,6.95,9.23,42.6,42.6,0,0,1,4.13,10.8,41.63,41.63,0,0,1-1,23,42.5,42.5,0,0,1-12.88,19.22l-.1.08-.05.07a42.69,42.69,0,0,1-9.88,9l-.39.25-.05.42A42.92,42.92,0,0,1,241.73,195a44.77,44.77,0,0,1-9.92,12.51h0l.16.12.15.13h0a42.94,42.94,0,0,0,10.67-12.17,44.52,44.52,0,0,0,5.48-15l-.35.22.43-.67c0,.15-.06.3-.08.45a45.12,45.12,0,0,0,10.19-8.81l-.07.06.15-.15-.08.09a45.2,45.2,0,0,0,14.15-20A44.74,44.74,0,0,0,274,127.13Z"/><path d="M84.16,104.58l-.8-.64c-.11-.09,0,.06.34.3l.43.38v0Z"/><path d="M82.65,103.48l.13.1.12-.1h0l-.15-.13-1.06-.85-.11-.08h0l0,0,.77.67c.1.09-.06,0-.36-.28l-.48-.38,0,0a1.06,1.06,0,0,0,.11.09Z"/><path d="M82.81,103.61l.15.12,1.07.86.07.06,0,0-.43-.38c-.29-.24-.45-.39-.34-.3l.8.64h0l-.08-.08-1-.88-.16-.13h0Z"/><path d="M82.9,103.48l-.12.1,0,0Z"/><path d="M246.93,108.19a2,2,0,0,0-2,2h3.95A2,2,0,0,0,246.93,108.19Z" fill="#f7ec41"/><path d="M239,100.3a2,2,0,1,0-2,2A2,2,0,0,0,239,100.3Z" fill="#f7ec41"/><path d="M229.16,110.17a2,2,0,0,0-2-2v2Z" fill="#f7ec41"/><path d="M229.16,90.42a2,2,0,0,0-2-2v4A2,2,0,0,0,229.16,90.42Z" fill="#f7ec41"/><path d="M227.59,72.61a1.79,1.79,0,0,0,.39-.13l-.79-1v1.22A1.81,1.81,0,0,0,227.59,72.61Z" fill="#f7ec41"/><path d="M248.57,148.55a2,2,0,0,0-1.64-.87,2,2,0,0,0-1.63.87,1.94,1.94,0,0,0-.34,1.11h3.95A2,2,0,0,0,248.57,148.55Z" fill="#f7ec41"/><path d="M265.36,148.19a2.17,2.17,0,0,0-.32.36,2,2,0,0,0-.34,1.11h.23C265.08,149.17,265.23,148.68,265.36,148.19Z" fill="#f7ec41"/><path d="M246.93,127.94a2,2,0,1,0,2,2A2,2,0,0,0,246.93,127.94Z" fill="#f7ec41"/><path d="M266.46,131.87c-.17-1.26-.39-2.49-.67-3.71a2,2,0,0,0,.67,3.71Z" fill="#f7ec41"/><path d="M258.78,139.78a2,2,0,1,0-2,2A2,2,0,0,0,258.78,139.78Z" fill="#f7ec41"/><path d="M237.06,137.81a2,2,0,1,0,2,2A2,2,0,0,0,237.06,137.81Z" fill="#f7ec41"/><path d="M256.8,118.07a2,2,0,1,0,2,2A2,2,0,0,0,256.8,118.07Z" fill="#f7ec41"/><path d="M237.06,118.07a2,2,0,1,0,2,2A2,2,0,0,0,237.06,118.07Z" fill="#f7ec41"/><path d="M229.16,149.66a1.94,1.94,0,0,0-.34-1.11,2,2,0,0,0-1.63-.87v2Z" fill="#f7ec41"/><path d="M227.19,127.94v3.95a2,2,0,0,0,0-3.95Z" fill="#f7ec41"/><path d="M245,110.17a2,2,0,0,0,3.95,0Z" fill="#f7ec41"/><path d="M227.19,112.14a2,2,0,0,0,2-2h-2Z" fill="#f7ec41"/><path d="M246.93,167.43a2,2,0,1,0,2,2A2,2,0,0,0,246.93,167.43Z" fill="#f7ec41"/><path d="M237.06,177.3a2,2,0,1,0,2,2A2,2,0,0,0,237.06,177.3Z" fill="#f7ec41"/><path d="M254.83,159.53a2,2,0,1,0,2-2A2,2,0,0,0,254.83,159.53Z" fill="#f7ec41"/><path d="M235.09,159.53a2,2,0,1,0,2-2A2,2,0,0,0,235.09,159.53Z" fill="#f7ec41"/><path d="M227.19,187.17v2h2A2,2,0,0,0,227.19,187.17Z" fill="#f7ec41"/><path d="M227.19,167.43v3.95a2,2,0,0,0,0-3.95Z" fill="#f7ec41"/><path d="M245,149.66a2,2,0,0,0,3.95,0Z" fill="#f7ec41"/><path d="M264.7,149.66a2,2,0,0,0,.07.48l.16-.48Z" fill="#f7ec41"/><path d="M227.19,149.66v2a2,2,0,0,0,2-2Z" fill="#f7ec41"/><path d="M227.19,191.12a2,2,0,0,0,2-2h-2Z" fill="#f7ec41"/><path d="M207.44,68.7a2,2,0,0,0-2,2h3.95A2,2,0,0,0,207.44,68.7Z" fill="#f7ec41"/><path d="M225.6,69.51a2,2,0,0,0-.39,1.17h1.39C226.28,70.28,225.94,69.89,225.6,69.51Z" fill="#f7ec41"/><path d="M217.32,62.78a2,2,0,0,0,.59-.1c-.83-.56-1.67-1.09-2.54-1.59A2,2,0,0,0,217.32,62.78Z" fill="#f7ec41"/><path d="M199.55,60.81a2,2,0,1,0-2,2A2,2,0,0,0,199.55,60.81Z" fill="#f7ec41"/><path d="M189.67,70.68a2,2,0,0,0-2-2v2Z" fill="#f7ec41"/><path d="M209.42,110.17a2,2,0,1,0-3.95,0Z" fill="#f7ec41"/><path d="M227.19,110.17v-2a2,2,0,0,0-2,2Z" fill="#f7ec41"/><path d="M207.44,92.4a2,2,0,1,0-2-2A2,2,0,0,0,207.44,92.4Z" fill="#f7ec41"/><path d="M227.19,92.4v-4a2,2,0,1,0,0,4Z" fill="#f7ec41"/><path d="M217.32,102.27a2,2,0,1,0-2-2A2,2,0,0,0,217.32,102.27Z" fill="#f7ec41"/><path d="M197.57,102.27a2,2,0,1,0-2-2A2,2,0,0,0,197.57,102.27Z" fill="#f7ec41"/><path d="M217.32,82.53a2,2,0,1,0-2-2A2,2,0,0,0,217.32,82.53Z" fill="#f7ec41"/><path d="M197.57,82.53a2,2,0,1,0-2-2A2,2,0,0,0,197.57,82.53Z" fill="#f7ec41"/><path d="M189.67,110.17a2,2,0,0,0-2-2v2Z" fill="#f7ec41"/><path d="M189.67,90.42a2,2,0,0,0-2-2v4A2,2,0,0,0,189.67,90.42Z" fill="#f7ec41"/><path d="M205.51,71.08a2,2,0,0,0,1.54,1.53,1.67,1.67,0,0,0,.39,0,1.75,1.75,0,0,0,.4,0,2,2,0,0,0,1.54-1.53,2.71,2.71,0,0,0,0-.4h-3.95A1.81,1.81,0,0,0,205.51,71.08Z" fill="#f7ec41"/><path d="M226.79,72.61a1.75,1.75,0,0,0,.4,0V71.43l-.59-.75h-1.39a2.71,2.71,0,0,0,0,.4A2,2,0,0,0,226.79,72.61Z" fill="#f7ec41"/><path d="M187.7,72.65a1.75,1.75,0,0,0,.4,0,2,2,0,0,0,1.53-1.53,1.81,1.81,0,0,0,0-.4h-2Z" fill="#f7ec41"/><path d="M209.08,148.55a2,2,0,0,0-3.27,0,1.94,1.94,0,0,0-.34,1.11h3.95A2,2,0,0,0,209.08,148.55Z" fill="#f7ec41"/><path d="M227.19,147.68a2,2,0,0,0-1.64.87,2,2,0,0,0-.34,1.11h2Z" fill="#f7ec41"/><path d="M207.44,127.94a2,2,0,1,0,2,2A2,2,0,0,0,207.44,127.94Z" fill="#f7ec41"/><path d="M225.21,129.91a2,2,0,0,0,2,2v-3.95A2,2,0,0,0,225.21,129.91Z" fill="#f7ec41"/><path d="M217.32,137.81a2,2,0,1,0,2,2A2,2,0,0,0,217.32,137.81Z" fill="#f7ec41"/><path d="M197.57,137.81a2,2,0,1,0,2,2A2,2,0,0,0,197.57,137.81Z" fill="#f7ec41"/><path d="M217.32,118.07a2,2,0,1,0,2,2A2,2,0,0,0,217.32,118.07Z" fill="#f7ec41"/><path d="M197.57,118.07a2,2,0,1,0,2,2A2,2,0,0,0,197.57,118.07Z" fill="#f7ec41"/><path d="M189.67,149.66a2,2,0,0,0-2-2v2Z" fill="#f7ec41"/><path d="M187.7,127.94v3.95a2,2,0,0,0,0-3.95Z" fill="#f7ec41"/><path d="M207.44,112.14a2,2,0,0,0,2-2h-3.95A2,2,0,0,0,207.44,112.14Z" fill="#f7ec41"/><path d="M227.19,110.17h-2a2,2,0,0,0,2,2Z" fill="#f7ec41"/><path d="M187.7,112.14a2,2,0,0,0,2-2h-2Z" fill="#f7ec41"/><path d="M207.44,187.17a2,2,0,0,0-2,2h3.95A2,2,0,0,0,207.44,187.17Z" fill="#f7ec41"/><path d="M227.19,187.17a2,2,0,0,0-2,2h2Z" fill="#f7ec41"/><path d="M207.44,167.43a2,2,0,1,0,2,2A2,2,0,0,0,207.44,167.43Z" fill="#f7ec41"/><path d="M225.21,169.4a2,2,0,0,0,2,2v-3.95A2,2,0,0,0,225.21,169.4Z" fill="#f7ec41"/><path d="M217.32,177.3a2,2,0,1,0,2,2A2,2,0,0,0,217.32,177.3Z" fill="#f7ec41"/><path d="M197.57,177.3a2,2,0,1,0,2,2A2,2,0,0,0,197.57,177.3Z" fill="#f7ec41"/><path d="M217.32,157.55a2,2,0,1,0,2,2A2,2,0,0,0,217.32,157.55Z" fill="#f7ec41"/><path d="M197.57,157.55a2,2,0,1,0,2,2A2,2,0,0,0,197.57,157.55Z" fill="#f7ec41"/><path d="M189.67,189.15a2,2,0,0,0-2-2v2Z" fill="#f7ec41"/><path d="M187.7,167.43v3.95a2,2,0,0,0,0-3.95Z" fill="#f7ec41"/><path d="M205.47,149.66a2,2,0,0,0,3.95,0Z" fill="#f7ec41"/><path d="M225.21,149.66a2,2,0,0,0,2,2v-2Z" fill="#f7ec41"/><path d="M187.7,149.66v2a2,2,0,0,0,2-2Z" fill="#f7ec41"/><path d="M207.44,206.92a2,2,0,1,0,2,2A2,2,0,0,0,207.44,206.92Z" fill="#f7ec41"/><path d="M197.57,216.79a2,2,0,0,0-1.73,1.05h.66c.93,0,1.85,0,2.76-.1A2,2,0,0,0,197.57,216.79Z" fill="#f7ec41"/><path d="M215.34,199a2,2,0,1,0,2-2A2,2,0,0,0,215.34,199Z" fill="#f7ec41"/><path d="M195.6,199a2,2,0,1,0,2-2A2,2,0,0,0,195.6,199Z" fill="#f7ec41"/><path d="M187.7,206.92v4a2,2,0,0,0,0-4Z" fill="#f7ec41"/><path d="M205.47,189.15a2,2,0,0,0,3.95,0Z" fill="#f7ec41"/><path d="M225.21,189.15a2,2,0,0,0,2,2v-2Z" fill="#f7ec41"/><path d="M187.7,189.15v2a2,2,0,0,0,2-2Z" fill="#f7ec41"/><path d="M168,68.7a2,2,0,0,0-2,2h4A2,2,0,0,0,168,68.7Z" fill="#f7ec41"/><path d="M187.7,68.7a2.58,2.58,0,0,0-.4,0,2,2,0,0,0-1.54,1.54,2.58,2.58,0,0,0,0,.4h2Z" fill="#f7ec41"/><path d="M177.83,62.78a2,2,0,0,0,.71-3.81c-.88.39-1.74.8-2.59,1.25a1.87,1.87,0,0,0-.1.59A2,2,0,0,0,177.83,62.78Z" fill="#f7ec41"/><path d="M160.06,60.81a2,2,0,1,0-2,2A2,2,0,0,0,160.06,60.81Z" fill="#f7ec41"/><path d="M150.18,70.68a2,2,0,0,0-1.57-1.94,2.58,2.58,0,0,0-.4,0v2Z" fill="#f7ec41"/><path d="M169.93,110.17a2,2,0,1,0-4,0Z" fill="#f7ec41"/><path d="M187.7,110.17v-2a2.58,2.58,0,0,0-.4,0,2,2,0,0,0-1.54,1.54,2.58,2.58,0,0,0,0,.4Z" fill="#f7ec41"/><path d="M168,92.4a2,2,0,1,0-2-2A2,2,0,0,0,168,92.4Z" fill="#f7ec41"/><path d="M187.3,92.36a2.58,2.58,0,0,0,.4,0v-4a1.75,1.75,0,0,0-.4,0A2,2,0,0,0,185.76,90a2.45,2.45,0,0,0,0,.39,2.58,2.58,0,0,0,0,.4A2,2,0,0,0,187.3,92.36Z" fill="#f7ec41"/><path d="M177.83,102.27a2,2,0,1,0-2-2A2,2,0,0,0,177.83,102.27Z" fill="#f7ec41"/><path d="M158.08,102.27a2,2,0,1,0-2-2A2,2,0,0,0,158.08,102.27Z" fill="#f7ec41"/><path d="M177.83,82.53a2,2,0,1,0-2-2A2,2,0,0,0,177.83,82.53Z" fill="#f7ec41"/><path d="M158.08,82.53a2,2,0,1,0-2-2A2,2,0,0,0,158.08,82.53Z" fill="#f7ec41"/><path d="M150.18,110.17a2,2,0,0,0-1.57-1.94,2.58,2.58,0,0,0-.4,0v2Z" fill="#f7ec41"/><path d="M148.61,92.36a2,2,0,0,0,0-3.87,1.75,1.75,0,0,0-.4,0v4A2.58,2.58,0,0,0,148.61,92.36Z" fill="#f7ec41"/><path d="M166,71.08a2,2,0,0,0,1.54,1.53,1.67,1.67,0,0,0,.39,0,1.75,1.75,0,0,0,.4,0,2,2,0,0,0,1.54-1.53,2.71,2.71,0,0,0,0-.4h-4A1.81,1.81,0,0,0,166,71.08Z" fill="#f7ec41"/><path d="M187.3,72.61a1.75,1.75,0,0,0,.4,0v-2h-2a2.71,2.71,0,0,0,0,.4A2,2,0,0,0,187.3,72.61Z" fill="#f7ec41"/><path d="M148.21,70.68v2a1.75,1.75,0,0,0,.4,0,1.94,1.94,0,0,0,1.53-1.53,1.81,1.81,0,0,0,0-.4Z" fill="#f7ec41"/><path d="M169.59,148.55a2,2,0,0,0-3.27,0,1.94,1.94,0,0,0-.34,1.11h4A2,2,0,0,0,169.59,148.55Z" fill="#f7ec41"/><path d="M187.7,147.68a2.58,2.58,0,0,0-.4,0,2,2,0,0,0-1.24.83,2.14,2.14,0,0,0-.3.71,2.58,2.58,0,0,0,0,.4h2Z" fill="#f7ec41"/><path d="M168,127.94a2,2,0,1,0,2,2A2,2,0,0,0,168,127.94Z" fill="#f7ec41"/><path d="M187.3,128a2,2,0,0,0-1.54,1.53,2.71,2.71,0,0,0,0,.4,2.58,2.58,0,0,0,0,.4,2,2,0,0,0,1.54,1.54,2.58,2.58,0,0,0,.4,0v-3.95A1.75,1.75,0,0,0,187.3,128Z" fill="#f7ec41"/><path d="M177.83,137.81a2,2,0,1,0,2,2A2,2,0,0,0,177.83,137.81Z" fill="#f7ec41"/><path d="M158.08,137.81a2,2,0,1,0,2,2A2,2,0,0,0,158.08,137.81Z" fill="#f7ec41"/><path d="M177.83,118.07a2,2,0,1,0,2,2A2,2,0,0,0,177.83,118.07Z" fill="#f7ec41"/><path d="M158.08,118.07a2,2,0,1,0,2,2A2,2,0,0,0,158.08,118.07Z" fill="#f7ec41"/><path d="M150.18,149.66a2,2,0,0,0-1.57-1.94,2.58,2.58,0,0,0-.4,0v2Z" fill="#f7ec41"/><path d="M148.61,128a1.75,1.75,0,0,0-.4,0v3.95a2.58,2.58,0,0,0,.4,0,2,2,0,0,0,0-3.87Z" fill="#f7ec41"/><path d="M168,112.14a2,2,0,0,0,2-2h-4A2,2,0,0,0,168,112.14Z" fill="#f7ec41"/><path d="M187.7,110.17h-2a2.71,2.71,0,0,0,0,.4,2,2,0,0,0,1.54,1.53,1.75,1.75,0,0,0,.4,0Z" fill="#f7ec41"/><path d="M148.21,110.17v2a1.75,1.75,0,0,0,.4,0,2,2,0,0,0,1.57-1.93Z" fill="#f7ec41"/><path d="M168,187.17a2,2,0,0,0-2,2h4A2,2,0,0,0,168,187.17Z" fill="#f7ec41"/><path d="M187.7,187.17a1.75,1.75,0,0,0-.4,0,2,2,0,0,0-1.54,1.54,2.58,2.58,0,0,0,0,.4h2Z" fill="#f7ec41"/><path d="M168,167.43a2,2,0,1,0,2,2A2,2,0,0,0,168,167.43Z" fill="#f7ec41"/><path d="M187.3,167.47a2,2,0,0,0-1.54,1.53,2.71,2.71,0,0,0,0,.4,2.58,2.58,0,0,0,0,.4,2,2,0,0,0,1.54,1.54,2.58,2.58,0,0,0,.4,0v-3.95A1.75,1.75,0,0,0,187.3,167.47Z" fill="#f7ec41"/><path d="M177.83,177.3a2,2,0,1,0,2,2A2,2,0,0,0,177.83,177.3Z" fill="#f7ec41"/><path d="M158.08,177.3a2,2,0,1,0,2,2A2,2,0,0,0,158.08,177.3Z" fill="#f7ec41"/><path d="M177.83,157.55a2,2,0,1,0,2,2A2,2,0,0,0,177.83,157.55Z" fill="#f7ec41"/><path d="M158.08,157.55a2,2,0,1,0,2,2A2,2,0,0,0,158.08,157.55Z" fill="#f7ec41"/><path d="M150.18,189.15a2,2,0,0,0-1.57-1.94,1.75,1.75,0,0,0-.4,0v2Z" fill="#f7ec41"/><path d="M148.61,167.47a1.75,1.75,0,0,0-.4,0v3.95a2.58,2.58,0,0,0,.4,0,2,2,0,0,0,0-3.87Z" fill="#f7ec41"/><path d="M166,149.66a2,2,0,0,0,4,0Z" fill="#f7ec41"/><path d="M185.72,149.66a2.45,2.45,0,0,0,0,.39,2,2,0,0,0,1.54,1.54,1.75,1.75,0,0,0,.4,0v-2Z" fill="#f7ec41"/><path d="M148.21,149.66v2a1.75,1.75,0,0,0,.4,0,2,2,0,0,0,1.57-1.93Z" fill="#f7ec41"/><path d="M168,206.92a2,2,0,0,0-2,2,2,2,0,0,0,1.22,1.83c.94-.64,1.84-1.31,2.71-2A2,2,0,0,0,168,206.92Z" fill="#f7ec41"/><path d="M187.3,207a2,2,0,0,0-1.54,1.53,2,2,0,0,0,0,.8,2,2,0,0,0,1.54,1.54,2.58,2.58,0,0,0,.4,0v-4A1.75,1.75,0,0,0,187.3,207Z" fill="#f7ec41"/><path d="M175.85,199a2,2,0,1,0,2-2A2,2,0,0,0,175.85,199Z" fill="#f7ec41"/><path d="M156.11,199a2,2,0,1,0,2-2A2,2,0,0,0,156.11,199Z" fill="#f7ec41"/><path d="M148.61,207a1.75,1.75,0,0,0-.4,0v4a2.58,2.58,0,0,0,.4,0,2,2,0,0,0,0-3.87Z" fill="#f7ec41"/><path d="M168,191.12a2,2,0,0,0,2-2h-4A2,2,0,0,0,168,191.12Z" fill="#f7ec41"/><path d="M185.72,189.15a2.45,2.45,0,0,0,0,.39,2,2,0,0,0,1.54,1.54,1.75,1.75,0,0,0,.4,0v-2Z" fill="#f7ec41"/><path d="M148.21,189.15v2a1.75,1.75,0,0,0,.4,0,2,2,0,0,0,1.57-1.93Z" fill="#f7ec41"/><path d="M128.47,68.7a2,2,0,0,0-2,2h4A2,2,0,0,0,128.47,68.7Z" fill="#f7ec41"/><path d="M148.21,68.7a2.58,2.58,0,0,0-.4,0,2,2,0,0,0-1.53,1.54,1.75,1.75,0,0,0,0,.4h2Z" fill="#f7ec41"/><path d="M140.31,60.81a2,2,0,1,0-2,2A2,2,0,0,0,140.31,60.81Z" fill="#f7ec41"/><path d="M128.47,108.19a2,2,0,0,0-2,2h4A2,2,0,0,0,128.47,108.19Z" fill="#f7ec41"/><path d="M148.21,110.17v-2a2.58,2.58,0,0,0-.4,0,2,2,0,0,0-1.53,1.54,1.75,1.75,0,0,0,0,.4Z" fill="#f7ec41"/><path d="M128.47,88.45a2,2,0,1,0,2,2A2,2,0,0,0,128.47,88.45Z" fill="#f7ec41"/><path d="M147.81,92.36a2.58,2.58,0,0,0,.4,0v-4a1.75,1.75,0,0,0-.4,0A2,2,0,0,0,146.28,90a1.67,1.67,0,0,0,0,.39,1.75,1.75,0,0,0,0,.4A2,2,0,0,0,147.81,92.36Z" fill="#f7ec41"/><path d="M138.34,102.27a2,2,0,1,0-2-2A2,2,0,0,0,138.34,102.27Z" fill="#f7ec41"/><path d="M118.59,102.27a2,2,0,1,0-2-2A2,2,0,0,0,118.59,102.27Z" fill="#f7ec41"/><path d="M138.34,82.53a2,2,0,1,0-2-2A2,2,0,0,0,138.34,82.53Z" fill="#f7ec41"/><path d="M116.62,80.55a2,2,0,1,0,2-2A2,2,0,0,0,116.62,80.55Z" fill="#f7ec41"/><path d="M109.49,108.35a2,2,0,0,0-.77-.16v2h2A2,2,0,0,0,109.49,108.35Z" fill="#f7ec41"/><path d="M109.49,92.24a2,2,0,0,0,0-3.64,2,2,0,0,0-.77-.15v4A2,2,0,0,0,109.49,92.24Z" fill="#f7ec41"/><path d="M126.53,71.08a2,2,0,0,0,1.54,1.53,1.75,1.75,0,0,0,.4,0,1.72,1.72,0,0,0,.39,0,2,2,0,0,0,1.54-1.53,1.81,1.81,0,0,0,0-.4h-4A1.81,1.81,0,0,0,126.53,71.08Z" fill="#f7ec41"/><path d="M147.81,72.61a1.75,1.75,0,0,0,.4,0v-2h-2a1.81,1.81,0,0,0,0,.4A1.94,1.94,0,0,0,147.81,72.61Z" fill="#f7ec41"/><path d="M130.1,148.55a2,2,0,0,0-3.27,0,1.94,1.94,0,0,0-.34,1.11h4A2,2,0,0,0,130.1,148.55Z" fill="#f7ec41"/><path d="M148.21,147.68a2.58,2.58,0,0,0-.4,0,2,2,0,0,0-1.24.83,1.94,1.94,0,0,0-.29.71,1.75,1.75,0,0,0,0,.4h2Z" fill="#f7ec41"/><path d="M128.47,127.94a2,2,0,1,0,2,2A2,2,0,0,0,128.47,127.94Z" fill="#f7ec41"/><path d="M147.81,128a2,2,0,0,0-1.53,1.53,1.81,1.81,0,0,0,0,.4,1.75,1.75,0,0,0,0,.4,2,2,0,0,0,1.53,1.54,2.58,2.58,0,0,0,.4,0v-3.95A1.75,1.75,0,0,0,147.81,128Z" fill="#f7ec41"/><path d="M138.34,141.76a2,2,0,1,0-2-2A2,2,0,0,0,138.34,141.76Z" fill="#f7ec41"/><path d="M118.59,141.76a2,2,0,1,0-2-2A2,2,0,0,0,118.59,141.76Z" fill="#f7ec41"/><path d="M136.36,120a2,2,0,1,0,2-2A2,2,0,0,0,136.36,120Z" fill="#f7ec41"/><path d="M118.59,122a2,2,0,1,0-2-2A2,2,0,0,0,118.59,122Z" fill="#f7ec41"/><path d="M110.69,149.66a2,2,0,0,0-.33-1.11,2.08,2.08,0,0,0-.87-.71,2,2,0,0,0-.77-.16v2Z" fill="#f7ec41"/><path d="M109.49,128.09a2,2,0,0,0-.77-.15v3.95a2,2,0,0,0,.77-.16,2,2,0,0,0,0-3.64Z" fill="#f7ec41"/><path d="M128.47,112.14a2,2,0,0,0,2-2h-4A2,2,0,0,0,128.47,112.14Z" fill="#f7ec41"/><path d="M148.21,110.17h-2a1.81,1.81,0,0,0,0,.4,2,2,0,0,0,1.53,1.53,1.75,1.75,0,0,0,.4,0Z" fill="#f7ec41"/><path d="M108.72,112.14a2,2,0,0,0,.77-.15,2,2,0,0,0,1.2-1.82h-2Z" fill="#f7ec41"/><path d="M128.47,187.17a2,2,0,0,0-2,2h4A2,2,0,0,0,128.47,187.17Z" fill="#f7ec41"/><path d="M148.21,187.17a1.75,1.75,0,0,0-.4,0,2,2,0,0,0-1.53,1.54,1.75,1.75,0,0,0,0,.4h2Z" fill="#f7ec41"/><path d="M128.47,167.43a2,2,0,1,0,2,2A2,2,0,0,0,128.47,167.43Z" fill="#f7ec41"/><path d="M147.81,167.47a1.94,1.94,0,0,0-1.53,1.53,1.81,1.81,0,0,0,0,.4,1.75,1.75,0,0,0,0,.4,2,2,0,0,0,1.53,1.54,2.58,2.58,0,0,0,.4,0v-3.95A1.75,1.75,0,0,0,147.81,167.47Z" fill="#f7ec41"/><path d="M138.34,177.3a2,2,0,1,0,2,2A2,2,0,0,0,138.34,177.3Z" fill="#f7ec41"/><path d="M118.59,177.3a2,2,0,1,0,2,2A2,2,0,0,0,118.59,177.3Z" fill="#f7ec41"/><path d="M138.34,157.55a2,2,0,1,0,2,2A2,2,0,0,0,138.34,157.55Z" fill="#f7ec41"/><path d="M118.59,157.55a2,2,0,1,0,2,2A2,2,0,0,0,118.59,157.55Z" fill="#f7ec41"/><path d="M109.49,187.33a2,2,0,0,0-.77-.16v2h2A2,2,0,0,0,109.49,187.33Z" fill="#f7ec41"/><path d="M109.49,167.58a2,2,0,0,0-.77-.15v3.95a2,2,0,0,0,.77-.16,2,2,0,0,0,0-3.64Z" fill="#f7ec41"/><path d="M126.49,149.66a2,2,0,0,0,4,0Z" fill="#f7ec41"/><path d="M146.24,149.66a1.67,1.67,0,0,0,0,.39,2,2,0,0,0,1.53,1.54,1.75,1.75,0,0,0,.4,0v-2Z" fill="#f7ec41"/><path d="M108.72,151.63a2,2,0,0,0,.77-.15,2,2,0,0,0,1.2-1.82h-2Z" fill="#f7ec41"/><path d="M128.47,206.92a2,2,0,1,0,2,2A2,2,0,0,0,128.47,206.92Z" fill="#f7ec41"/><path d="M147.81,207a1.94,1.94,0,0,0-1.53,1.53,2,2,0,0,0,0,.8,2,2,0,0,0,1.53,1.54,2.58,2.58,0,0,0,.4,0v-4A1.75,1.75,0,0,0,147.81,207Z" fill="#f7ec41"/><path d="M138.34,216.79a2,2,0,0,0-1.24.44c1,.17,1.9.3,2.85.4A2,2,0,0,0,138.34,216.79Z" fill="#f7ec41"/><path d="M136.36,199a2,2,0,1,0,2-2A2,2,0,0,0,136.36,199Z" fill="#f7ec41"/><path d="M116.62,199a2,2,0,1,0,2-2A2,2,0,0,0,116.62,199Z" fill="#f7ec41"/><path d="M126.49,189.15a2,2,0,0,0,4,0Z" fill="#f7ec41"/><path d="M146.24,189.15a1.67,1.67,0,0,0,0,.39,2,2,0,0,0,1.53,1.54,1.75,1.75,0,0,0,.4,0v-2Z" fill="#f7ec41"/><path d="M108.72,191.12a2,2,0,0,0,2-2h-2Z" fill="#f7ec41"/><path d="M89,108.19a2,2,0,0,0-2,2h4A2,2,0,0,0,89,108.19Z" fill="#f7ec41"/><path d="M108.72,110.17v-2a2,2,0,0,0-.77.16,2,2,0,0,0-1.2,1.82Z" fill="#f7ec41"/><path d="M108,92.24a2,2,0,0,0,.77.16v-4a2,2,0,0,0-.77.15,2.68,2.68,0,0,0-.33.18c.13.53.28,1.06.46,1.59,0,0-.44.22-1.23.67A2,2,0,0,0,108,92.24Z" fill="#f7ec41"/><path d="M100.82,100.3a2,2,0,1,0-2,2A2,2,0,0,0,100.82,100.3Z" fill="#f7ec41"/><path d="M89,147.68a2,2,0,0,0-1.64.87,2,2,0,0,0-.34,1.11h4a1.94,1.94,0,0,0-.34-1.11A2,2,0,0,0,89,147.68Z" fill="#f7ec41"/><path d="M108.72,149.66v-2a2,2,0,0,0-.77.16,2.08,2.08,0,0,0-.87.71,2,2,0,0,0-.33,1.11Z" fill="#f7ec41"/><path d="M89,127.94a2,2,0,1,0,2,2A2,2,0,0,0,89,127.94Z" fill="#f7ec41"/><path d="M108,128.09a2,2,0,0,0,0,3.64,2,2,0,0,0,.77.16v-3.95A2,2,0,0,0,108,128.09Z" fill="#f7ec41"/><path d="M98.85,137.81a2,2,0,1,0,2,2A2,2,0,0,0,98.85,137.81Z" fill="#f7ec41"/><path d="M81.08,139.78a2,2,0,1,0-2,2A2,2,0,0,0,81.08,139.78Z" fill="#f7ec41"/><path d="M98.85,118.07a2,2,0,1,0,2,2A2,2,0,0,0,98.85,118.07Z" fill="#f7ec41"/><path d="M79.1,122a2,2,0,1,0,0-3.94,2.22,2.22,0,0,0-.45.05c-.48.9-.92,1.81-1.34,2.74A2,2,0,0,0,79.1,122Z" fill="#f7ec41"/><path d="M87,110.17a2,2,0,0,0,4,0Z" fill="#f7ec41"/><path d="M108.72,110.17h-2A2,2,0,0,0,108,112a2,2,0,0,0,.77.15Z" fill="#f7ec41"/><path d="M108.72,189.15v-2a2,2,0,0,0-.77.16,2,2,0,0,0-1.2,1.82Z" fill="#f7ec41"/><path d="M89,167.43a2,2,0,0,0-1.35.53c1,.86,2,1.67,3,2.44a2,2,0,0,0,.28-1A2,2,0,0,0,89,167.43Z" fill="#f7ec41"/><path d="M108,167.58a2,2,0,0,0,0,3.64,2,2,0,0,0,.77.16v-3.95A2,2,0,0,0,108,167.58Z" fill="#f7ec41"/><path d="M100.82,159.53a2,2,0,1,0-2,2A2,2,0,0,0,100.82,159.53Z" fill="#f7ec41"/><path d="M79.19,157.56c.54.95,1.11,1.87,1.72,2.76a1.9,1.9,0,0,0,.17-.79A2,2,0,0,0,79.19,157.56Z" fill="#f7ec41"/><path d="M89,151.63a2,2,0,0,0,2-2H87A2,2,0,0,0,89,151.63Z" fill="#f7ec41"/><path d="M108,151.48a2,2,0,0,0,.77.15v-2h-2A2,2,0,0,0,108,151.48Z" fill="#f7ec41"/><path d="M106.75,189.15a2,2,0,0,0,2,2v-2Z" fill="#f7ec41"/><path d="M271,241.45A52.15,52.15,0,0,0,279.83,253a26.57,26.57,0,0,0-7.41-10.78Z" fill="#f7ec41"/><path d="M271.08,241.49c.76.85,1.46,1.91,2.17,2.87s1.43,1.94,2.11,2.93,1.33,2,2.1,3a20,20,0,0,0,2.55,2.58l-.43.28c-.46-1-1-2-1.49-2.91a32.39,32.39,0,0,0-1.73-2.74c-.62-.89-1.26-1.76-1.94-2.61s-1.4-1.66-2.15-2.45l0,0C271.94,242.18,271.6,241.82,271.08,241.49Zm-.07-.07c.4.19,1,.35,1.52.61h0l0,0a18.9,18.9,0,0,1,2.53,2.21,17.31,17.31,0,0,1,2.14,2.6,23.35,23.35,0,0,1,1.66,2.92,20.84,20.84,0,0,1,1.18,3.14v0a.26.26,0,0,1-.18.32.25.25,0,0,1-.27-.08c-.81-.92-1.6-1.84-2.43-2.73s-1.72-1.75-2.51-2.68a22.9,22.9,0,0,1-2.09-3A17.94,17.94,0,0,1,271,241.42Z"/><path d="M36.36,204.38a2.16,2.16,0,0,1-1.25,1.79A42.64,42.64,0,0,0,23.71,214c1.95-2.56,5.53-3,8.66-3.72s6.75-2.58,6.9-5.84l-2.91-.09Z" fill="#f7ec41"/><path d="M36.41,204.38a2.25,2.25,0,0,1-.94,1.87l-1.77,1c-1.16.68-2.29,1.38-3.41,2.11a35.83,35.83,0,0,0-6.47,4.76.16.16,0,0,1-.23,0,.18.18,0,0,1,0-.22h0a9,9,0,0,1,4-2.84,43.64,43.64,0,0,1,4.69-1.28A14,14,0,0,0,36.53,208,5,5,0,0,0,39,204.45l.28.3c-.49,0-1-.08-1.45-.14l-.73-.09-.36,0-.18,0h-.18S36.3,204.47,36.41,204.38Zm-.1,0c.1-.09,0,0,0,0h.36l.37,0,.73,0c.48,0,1,0,1.45-.06a.28.28,0,0,1,.28.26h0v0a4.56,4.56,0,0,1-.69,2.48,6.83,6.83,0,0,1-1.75,1.88,11.8,11.8,0,0,1-4.6,2c-1.59.34-3.17.57-4.68,1a7.24,7.24,0,0,0-4,2.33l-.25-.22a52.17,52.17,0,0,1,6.21-5.28,29,29,0,0,1,3.57-2l1.84-.8A2.08,2.08,0,0,0,36.31,204.37Z"/><path d="M213.81,22.06A97.14,97.14,0,0,0,218.88.26a22.09,22.09,0,0,1-3.64,20.79Z" fill="#f7ec41"/><path d="M213.77,22.1c.43-1.94,1-3.65,1.41-5.48l1.38-5.41c.48-1.8,1-3.6,1.36-5.43a45.05,45.05,0,0,0,.72-5.55A.24.24,0,0,1,218.9,0a.26.26,0,0,1,.21.15v0a19.79,19.79,0,0,1,1.32,5.43,22,22,0,0,1-.21,5.61,19.9,19.9,0,0,1-4.85,10h0l0,0C214.8,21.55,214.22,21.82,213.77,22.1Zm.07-.08c.51-.4.89-.79,1.3-1.12l0,0A24.46,24.46,0,0,0,219.18,11a23.39,23.39,0,0,0,.35-5.35,22.49,22.49,0,0,0-.88-5.33l.48-.06-.87,5.56c-.26,1.85-.5,3.72-.87,5.56a48.39,48.39,0,0,1-1.48,5.43A37.67,37.67,0,0,1,213.84,22Z"/><path d="M71.45,41.12A140,140,0,0,1,60.84,30.35c-1.05,2.55.82,5.4,3,7a15.75,15.75,0,0,0,7.66,3Z" fill="#f7ec41"/><path d="M71.46,41.17a28,28,0,0,1-3-2.36,37.81,37.81,0,0,1-2.74-2.63c-.86-.93-1.64-1.93-2.45-2.9s-1.67-1.89-2.56-2.79l.35-.06a4.51,4.51,0,0,0,.57,3.71A9.35,9.35,0,0,0,64.23,37a19.52,19.52,0,0,0,3.45,2,20.16,20.16,0,0,0,3.87,1.27h0a.12.12,0,0,1,.09.14A6.54,6.54,0,0,1,71.46,41.17Zm0-.09c0-.26,0-.47,0-.66l.11.15a13.42,13.42,0,0,1-4.15-.73,13.8,13.8,0,0,1-3.78-2,9.37,9.37,0,0,1-2.78-3.31,5,5,0,0,1-.17-4.28v0a.21.21,0,0,1,.28-.1l.07.06A29.2,29.2,0,0,0,63.52,33l2.79,2.55c.9.88,1.77,1.79,2.64,2.7S70.71,40.12,71.43,41.08Z"/><path d="M294.06,109.05c5.55-1,10.11-6.19,15.72-5.63-.1-.35-.7-.23-.85.11a3.73,3.73,0,0,0-.07,1.11c-.11,1.29-1.66,1.82-2.88,2.24-3.79,1.32-7.71,4.48-11.3,2.7Z" fill="#f7ec41"/><path d="M294,109a23.78,23.78,0,0,0,3.87-1.68c1.24-.64,2.43-1.37,3.7-2a24,24,0,0,1,4-1.55,12.66,12.66,0,0,1,4.24-.6l-.24.28s-.06,0-.18,0-.19.12-.2.22a9.83,9.83,0,0,0,0,1.07,2,2,0,0,1-.57,1.22,4.13,4.13,0,0,1-1,.74c-.72.37-1.46.6-2.12.88s-1.33.62-2,.94a22.23,22.23,0,0,1-4.28,1.66,5.91,5.91,0,0,1-4.57-.5h0C294.36,109.46,294.18,109.22,294,109Zm.09,0c.25.18.48.29.66.42l0,0a5.75,5.75,0,0,0,2.12.34,8.42,8.42,0,0,0,2.1-.42,39,39,0,0,0,4.05-1.81c.68-.33,1.38-.62,2.1-.9s1.46-.46,2.1-.75a2,2,0,0,0,1.29-1.25,7.06,7.06,0,0,1,.14-1.17.85.85,0,0,1,.6-.51.68.68,0,0,1,.42,0,.5.5,0,0,1,.33.36v0a.2.2,0,0,1-.17.24h-.07a8,8,0,0,0-4.07.5,29,29,0,0,0-3.69,2,38.42,38.42,0,0,1-3.78,1.94A11.38,11.38,0,0,1,294.1,109.06Z"/><path d="M144.12,306.6a28.89,28.89,0,0,0-2.25,11.16,16.44,16.44,0,0,0,1.8-8.52Z" fill="#f7ec41"/><path d="M144.11,306.65a25.7,25.7,0,0,1-.59,2.76c-.23.91-.43,1.83-.67,2.74a21.53,21.53,0,0,0-.68,2.77,12.26,12.26,0,0,0,0,2.84l-.51-.12c.27-.68.48-1.37.69-2.05a14.68,14.68,0,0,0,.51-2.08,27.23,27.23,0,0,0,.46-4.24v-.09c.1-.37.24-.73.39-1.13A7.44,7.44,0,0,0,144.11,306.65Zm0-.1a8.1,8.1,0,0,0,0,1.24c0,.48,0,1,0,1.52v-.09a12.23,12.23,0,0,1-.2,4.51,16,16,0,0,1-.69,2.16,11.92,11.92,0,0,1-1,2l0,0a.27.27,0,0,1-.37.08.26.26,0,0,1-.12-.25c.08-1,.19-1.92.25-2.88s.06-1.93.18-2.89a13.55,13.55,0,0,1,.75-2.81A10.14,10.14,0,0,1,144.14,306.55Z"/><path d="M69.47,115.87a33.15,33.15,0,0,1,13.62.53,34.81,34.81,0,0,1,21.1,15.16A34.15,34.15,0,0,1,108.54,158,34.9,34.9,0,0,1,93.4,179.09,34,34,0,0,1,67,183.42a34.89,34.89,0,0,1-21.1-15.16,34.19,34.19,0,0,1-4.34-26.4,34.83,34.83,0,0,1,15.14-21.12A33,33,0,0,1,69.47,115.87Zm2.29,13.65a19.93,19.93,0,0,0-7.69,2.92,21.55,21.55,0,0,0-5.79,5.41A20.48,20.48,0,0,0,54.94,145a20.56,20.56,0,0,0,2.61,15.86A20.89,20.89,0,0,0,63,166.66,21.18,21.18,0,0,0,70.25,170a20.21,20.21,0,0,0,8.21.3,19.88,19.88,0,0,0,7.68-2.92,20.51,20.51,0,0,0,5.75-5.45,21.58,21.58,0,0,0,3.29-7.22,20.56,20.56,0,0,0-2.61-15.86,20.71,20.71,0,0,0-12.6-9A20,20,0,0,0,71.76,129.52Z"/><path d="M143.81,103.65a33.2,33.2,0,0,1,13.63.52,35,35,0,0,1,21.1,15.17,34.19,34.19,0,0,1,4.34,26.4,34.83,34.83,0,0,1-15.14,21.12,34.11,34.11,0,0,1-26.37,4.34A34.85,34.85,0,0,1,120.27,156a34.17,34.17,0,0,1-4.34-26.4,34.9,34.9,0,0,1,15.14-21.12A32.86,32.86,0,0,1,143.81,103.65Zm2.29,13.64a20,20,0,0,0-7.68,2.92,21.32,21.32,0,0,0-5.8,5.42,20.43,20.43,0,0,0-3.34,7.17,20.57,20.57,0,0,0,2.61,15.87,21,21,0,0,0,12.7,9.09,19.87,19.87,0,0,0,8.21.3,20.07,20.07,0,0,0,7.69-2.91,20.78,20.78,0,0,0,5.74-5.46,21.53,21.53,0,0,0,3.29-7.21,20.54,20.54,0,0,0-2.61-15.86,20.6,20.6,0,0,0-12.6-9A20,20,0,0,0,146.1,117.29Z"/><path d="M195.43,165.08,184.23,97l19-3.13a20.09,20.09,0,0,1,8.22.31,20.61,20.61,0,0,1,7.19,3.34,21.42,21.42,0,0,1,5.42,5.79A20.12,20.12,0,0,1,227,111a20.56,20.56,0,0,1-.27,8.21,20.16,20.16,0,0,1-3.29,7.19,21.67,21.67,0,0,1-5.75,5.41,19.58,19.58,0,0,1-7.64,2.92l-5.57.92L209,162.85Zm6.84-43.1,5.48-.9a6.68,6.68,0,0,0,4.52-2.77,6.55,6.55,0,0,0,1.19-5.08,6.83,6.83,0,0,0-7.94-5.71l-5.48.9Z"/><path d="M250.28,127.49a19.7,19.7,0,0,1-6.59-1.68,22.4,22.4,0,0,1-5.68-3.67,20.41,20.41,0,0,1-4.24-5.29,20.15,20.15,0,0,1-2.28-6.62,19.81,19.81,0,0,1,.31-8.2,21.29,21.29,0,0,1,3.29-7.22,20.64,20.64,0,0,1,5.74-5.46,20.1,20.1,0,0,1,7.68-2.92,34,34,0,0,1,22.11,3.74l-8.18,11.4a21.48,21.48,0,0,0-5.56-1.57,20,20,0,0,0-6.12.08,6.84,6.84,0,0,0-5.71,8,7.19,7.19,0,0,0,2.34,4.14,7.58,7.58,0,0,0,4.41,1.67,34,34,0,0,0,5.13-.11,22.66,22.66,0,0,1,8,.43,20.06,20.06,0,0,1,6.89,3.07,19.18,19.18,0,0,1,5.13,5.43,21.05,21.05,0,0,1,2.51,15.82,20.71,20.71,0,0,1-9,12.6A20.06,20.06,0,0,1,262.8,154a33.24,33.24,0,0,1-13.32-.41,34.46,34.46,0,0,1-11.72-5.22l8-11.22a20.66,20.66,0,0,0,7,3,20.3,20.3,0,0,0,7.82.19,6.57,6.57,0,0,0,4.44-2.76,6.67,6.67,0,0,0,1.18-5.16,7.41,7.41,0,0,0-1.12-2.86,4.68,4.68,0,0,0-2.43-1.9,9.48,9.48,0,0,0-2.95-.57,26.76,26.76,0,0,0-3.22.07l-3.28.26A25.07,25.07,0,0,1,250.28,127.49Z"/><path d="M294.1,130.34,286,81.3l13.56-2.23,8.07,49Zm7.72,4.26a6.58,6.58,0,0,1,5.12,1.16,6.68,6.68,0,0,1,2.73,4.52,6.84,6.84,0,0,1-1.13,5.19,6.48,6.48,0,0,1-4.48,2.78,6.64,6.64,0,0,1-5.18-1.19,6.74,6.74,0,0,1-2.77-4.55,6.59,6.59,0,0,1,1.18-5.17A6.75,6.75,0,0,1,301.82,134.6Z"/><path d="M62.07,111.08a33,33,0,0,1,13.63.53,35,35,0,0,1,12,5.54,35.38,35.38,0,0,1,9.09,9.62,34.19,34.19,0,0,1,4.34,26.4A34.83,34.83,0,0,1,86,174.29a34,34,0,0,1-26.37,4.34,34.85,34.85,0,0,1-21.1-15.17,34.17,34.17,0,0,1-4.34-26.4,34.9,34.9,0,0,1,15.14-21.12A33.18,33.18,0,0,1,62.07,111.08Zm2.29,13.64a20.14,20.14,0,0,0-7.68,2.92,21.48,21.48,0,0,0-5.8,5.42,20.48,20.48,0,0,0-3.34,7.18,20.56,20.56,0,0,0,2.61,15.86,21,21,0,0,0,12.7,9.09,20,20,0,0,0,8.21.31,20.25,20.25,0,0,0,7.69-2.92,20.64,20.64,0,0,0,5.74-5.46,21.53,21.53,0,0,0,3.29-7.21,20.54,20.54,0,0,0-2.61-15.86,20.6,20.6,0,0,0-12.6-9A20,20,0,0,0,64.36,124.72Z" fill="#f7ec41"/><path d="M62,110.93a36.94,36.94,0,0,1,26.23,5.46A33.48,33.48,0,0,1,98,126.25a32.25,32.25,0,0,1,4.86,13.08,33.89,33.89,0,0,1-.89,13.82,38,38,0,0,1-15.9,21.68A35,35,0,0,1,73.39,180a33.29,33.29,0,0,1-13.84-.14,35.24,35.24,0,0,1-12.76-5.61,36.76,36.76,0,0,1-9.7-10.11,34.23,34.23,0,0,1,1.82-39.64A36.91,36.91,0,0,1,62,110.93Zm.05.3A32.83,32.83,0,0,0,55.62,113a30.38,30.38,0,0,0-5.9,3.15,34,34,0,0,0-9.2,9.45,37,37,0,0,0-5,12,33.92,33.92,0,0,0,4.19,24.82,34.07,34.07,0,0,0,33.4,15.91A31.5,31.5,0,0,0,85.55,174a32.69,32.69,0,0,0,9.67-9.07,32.34,32.34,0,0,0,3.21-5.82,36.07,36.07,0,0,0,1.95-6.32,32.67,32.67,0,0,0,.05-13,34.86,34.86,0,0,0-4.63-12.06,38,38,0,0,0-8.63-9.75,34.17,34.17,0,0,0-11.77-6,29.36,29.36,0,0,0-6.6-1.09A32.1,32.1,0,0,0,62.09,111.23Z"/><path d="M64.38,124.87a17.39,17.39,0,0,0-7.37,3,20.24,20.24,0,0,0-5.35,5.73,22.3,22.3,0,0,0-2.86,7.08,21.21,21.21,0,0,0-.34,7.54,20,20,0,0,0,2.31,7.3,18.31,18.31,0,0,0,20.1,9.16,19.46,19.46,0,0,0,7-3,19.78,19.78,0,0,0,8.35-12.21,19.15,19.15,0,0,0,.25-7.43,19.4,19.4,0,0,0-2.46-7,22.79,22.79,0,0,0-4.87-5.86,19.46,19.46,0,0,0-6.87-3.74A17.45,17.45,0,0,0,64.38,124.87Zm0-.29a23.3,23.3,0,0,1,16,2.94,19.8,19.8,0,0,1,6.16,5.93,21,21,0,0,1,2.82,16.76A22.42,22.42,0,0,1,85.6,158a21,21,0,0,1-6.4,5.71,20.54,20.54,0,0,1-8.07,2.61,23.24,23.24,0,0,1-15.81-4.07,24,24,0,0,1-6-5.83A20,20,0,0,1,46,148.63a19.23,19.23,0,0,1,.21-8.57,19.46,19.46,0,0,1,3.91-7.58A23.72,23.72,0,0,1,64.33,124.58Z"/><path d="M136.41,98.85a33.2,33.2,0,0,1,13.63.53,34.89,34.89,0,0,1,21.1,15.16A34.2,34.2,0,0,1,175.48,141a34.9,34.9,0,0,1-15.14,21.12A34,34,0,0,1,134,166.4a34.81,34.81,0,0,1-21.1-15.16,34.14,34.14,0,0,1-4.35-26.4,34.89,34.89,0,0,1,15.14-21.13A33.24,33.24,0,0,1,136.41,98.85Zm2.29,13.65a19.88,19.88,0,0,0-7.68,2.92,21.59,21.59,0,0,0-5.8,5.41,20.48,20.48,0,0,0-3.34,7.18,20.56,20.56,0,0,0,2.61,15.86,21,21,0,0,0,12.7,9.09,20.66,20.66,0,0,0,15.9-2.61,20.6,20.6,0,0,0,5.74-5.45,21.58,21.58,0,0,0,3.29-7.22,20.56,20.56,0,0,0-2.61-15.86,20.71,20.71,0,0,0-12.6-9A20,20,0,0,0,138.7,112.5Z" fill="#f7ec41"/><path d="M136.39,98.71a36.86,36.86,0,0,1,26.22,5.45,33.28,33.28,0,0,1,9.76,9.87,32.15,32.15,0,0,1,4.86,13.07,33.94,33.94,0,0,1-.89,13.83,38.11,38.11,0,0,1-15.9,21.68,35,35,0,0,1-12.7,5.13,33.5,33.5,0,0,1-13.85-.13A35.58,35.58,0,0,1,121.13,162a36.87,36.87,0,0,1-9.69-10.11,34.17,34.17,0,0,1,1.82-39.64A36.82,36.82,0,0,1,136.39,98.71Zm.05.29a33.63,33.63,0,0,0-6.48,1.79,30.05,30.05,0,0,0-5.89,3.16,33.77,33.77,0,0,0-9.21,9.44,37.17,37.17,0,0,0-5,12,33.84,33.84,0,0,0,4.2,24.81,34,34,0,0,0,33.39,15.91,31.58,31.58,0,0,0,12.42-4.37,31.93,31.93,0,0,0,12.88-14.89,35.34,35.34,0,0,0,1.95-6.33,32.67,32.67,0,0,0,.05-13,35.12,35.12,0,0,0-4.62-12.06,38.08,38.08,0,0,0-8.64-9.75,34.16,34.16,0,0,0-11.77-6,29.94,29.94,0,0,0-6.6-1.09A33.38,33.38,0,0,0,136.44,99Z"/><path d="M138.72,112.64a17.31,17.31,0,0,0-7.36,3,19.88,19.88,0,0,0-5.36,5.73,22.38,22.38,0,0,0-2.86,7.07,21.22,21.22,0,0,0-.34,7.54,20.09,20.09,0,0,0,2.31,7.31,18.34,18.34,0,0,0,20.1,9.16,19.81,19.81,0,0,0,7-3,20.47,20.47,0,0,0,5.38-5.32,20.69,20.69,0,0,0,3-6.9,20.32,20.32,0,0,0-2.22-14.47,23.09,23.09,0,0,0-4.86-5.86,19.66,19.66,0,0,0-6.88-3.74A17.58,17.58,0,0,0,138.72,112.64Zm0-.29a23.33,23.33,0,0,1,16,3,19.85,19.85,0,0,1,6.15,5.92A21,21,0,0,1,163.66,138a22.67,22.67,0,0,1-3.71,7.79,21.32,21.32,0,0,1-6.41,5.71,20.69,20.69,0,0,1-8.07,2.6A23.3,23.3,0,0,1,129.66,150a24.22,24.22,0,0,1-6-5.83,20,20,0,0,1-3.37-7.79,19.16,19.16,0,0,1,4.12-16.15A23.73,23.73,0,0,1,138.68,112.35Z"/><path d="M188,160.28l-11.2-68.07,19-3.13a19.91,19.91,0,0,1,8.22.31,20.5,20.5,0,0,1,7.19,3.33,21.47,21.47,0,0,1,5.42,5.8,20,20,0,0,1,2.93,7.68,20.57,20.57,0,0,1-.27,8.21,19.94,19.94,0,0,1-3.29,7.18,21.71,21.71,0,0,1-5.75,5.42,19.66,19.66,0,0,1-7.64,2.91l-5.56.92,4.47,27.21Zm6.84-43.09,5.48-.9a6.71,6.71,0,0,0,4.52-2.77,6.87,6.87,0,0,0-6.75-10.79l-5.48.9Z" fill="#f7ec41"/><path d="M187.94,160.4c-1.16-5.37-2.3-10.88-3.41-16.47s-2.19-11.27-3.2-17-2-11.49-2.83-17.29l-2.27-17.33-.08-.62.59-.09,5.56-.79,5.54-.87,5.54-.94a35.8,35.8,0,0,1,5.64-.78,21.55,21.55,0,0,1,11.18,2.7,21.82,21.82,0,0,1,7.52,31,22.55,22.55,0,0,1-9,7.81,21.15,21.15,0,0,1-5.78,1.73l-5.55.85,1.25-1.73,1,6.82,1,6.82c.65,4.55,1.21,9.12,1.8,13.68l.11.82-.77.1c-2.37.32-4.73.59-7,.83Zm.18-.24,6.81-1.49c2.21-.51,4.37-1,6.53-1.41l-.66.92c-.91-4.51-1.83-9-2.68-13.53l-1.26-6.78-1.24-6.78-.27-1.48,1.52-.26,5.53-1a19.91,19.91,0,0,0,4.93-1.54,20.53,20.53,0,0,0,7.83-6.65,18.81,18.81,0,0,0,3.33-9.72,20.27,20.27,0,0,0-2.14-10.17,21.1,21.1,0,0,0-7.08-7.82A19.75,19.75,0,0,0,199,89.37a33.58,33.58,0,0,0-5.49.58l-5.55.88-5.53,1-5.53,1,.51-.7,3.32,16.7c1.06,5.54,2,11.11,2.78,16.75s1.62,11.29,2.39,17S187.41,154.19,188.12,160.16Z"/><path d="M195,117.07c1.57-.58,2.83-1.11,4-1.52.58-.21,1.15-.37,1.71-.55a6.53,6.53,0,0,0,1.5-.73,9.08,9.08,0,0,0,2.32-2.38,5.45,5.45,0,0,0,1-3.41,4.83,4.83,0,0,0-1.59-3.36,5.5,5.5,0,0,0-3.36-1.37,13.87,13.87,0,0,0-3.63.59c-1.34.3-2.68.6-4,.86l1.32-1.83a41.89,41.89,0,0,1,.64,6.35C194.94,112,195,114.34,195,117.07Zm-.18.24a63,63,0,0,1-2.13-6.22,55,55,0,0,1-1.59-7.2l-.22-1.64,1.54-.2c1.36-.17,2.72-.33,4.08-.47.71-.07,1.3-.14,2.15-.18a7.25,7.25,0,0,1,2.36.38,9.22,9.22,0,0,1,5.65,6.51,7.64,7.64,0,0,1,0,4.61,6.61,6.61,0,0,1-3.09,3.64,7.17,7.17,0,0,1-2.29.79,18.39,18.39,0,0,1-2.33.17A31.43,31.43,0,0,1,194.78,117.31Z"/><path d="M242.88,122.69a19.24,19.24,0,0,1-6.59-1.68,22.3,22.3,0,0,1-5.68-3.67,20.51,20.51,0,0,1-6.21-20.11A21.38,21.38,0,0,1,227.69,90a20.47,20.47,0,0,1,5.74-5.45,19.94,19.94,0,0,1,7.68-2.92,34.15,34.15,0,0,1,11.59,0,33.81,33.81,0,0,1,10.52,3.71L255,96.78a21.38,21.38,0,0,0-5.56-1.58,20,20,0,0,0-6.12.09,6.83,6.83,0,0,0-5.71,7.94,7.16,7.16,0,0,0,2.34,4.14A7.52,7.52,0,0,0,244.4,109a34.16,34.16,0,0,0,5.14-.1,22.61,22.61,0,0,1,8,.43,19.91,19.91,0,0,1,6.9,3.06,19.42,19.42,0,0,1,5.12,5.43,21.05,21.05,0,0,1,2.51,15.82,20.53,20.53,0,0,1-9,12.6,19.84,19.84,0,0,1-7.67,2.92,33.24,33.24,0,0,1-13.32-.41,34.35,34.35,0,0,1-11.72-5.22l8-11.22a20.56,20.56,0,0,0,7,3,20.35,20.35,0,0,0,7.83.18,6.56,6.56,0,0,0,4.43-2.75,6.69,6.69,0,0,0,1.18-5.17,7.43,7.43,0,0,0-1.12-2.85,4.74,4.74,0,0,0-2.43-1.91,9.48,9.48,0,0,0-3-.57,26.76,26.76,0,0,0-3.22.07l-3.28.26A23.06,23.06,0,0,1,242.88,122.69Z" fill="#f7ec41"/><path d="M242.87,122.84a19.85,19.85,0,0,1-5.1-1,24.48,24.48,0,0,1-4.69-2.28,21.9,21.9,0,0,1-7.26-7.47A21.56,21.56,0,0,1,223,101.86a22,22,0,0,1,2.47-10.44,21.16,21.16,0,0,1,7.32-8,20.82,20.82,0,0,1,5-2.37,26.49,26.49,0,0,1,5.34-1,33.61,33.61,0,0,1,10.68.61,34.77,34.77,0,0,1,9.91,3.9l1,.56L264,86l-8.46,11.2-.31.42-.45-.21a19.06,19.06,0,0,0-11.38-1.6,6.22,6.22,0,0,0-3.32,1.56,6.45,6.45,0,0,0-1.89,3.15,6.45,6.45,0,0,0,2.3,6.64,6.83,6.83,0,0,0,3.41,1.32,28.09,28.09,0,0,0,3.89,0c.66,0,1.3-.1,1.95-.18s1.36-.15,2-.18a23.07,23.07,0,0,1,8.16,1.09,19.94,19.94,0,0,1,7.24,4.14,20.33,20.33,0,0,1,4.92,6.81,23.14,23.14,0,0,1,1.89,8.19,22.19,22.19,0,0,1-5.77,15.61A22.62,22.62,0,0,1,261.4,149c-10.64,4.47-22.83,2.23-31.91-4.15l-1.27-.89.91-1.23,4.08-5.56q2-2.77,4.13-5.52l.77-1,1,.7a19.82,19.82,0,0,0,9.89,3.6,18.57,18.57,0,0,0,2.69,0c.45,0,.9-.07,1.35-.13a6.1,6.1,0,0,0,1.23-.26,6.23,6.23,0,0,0,3.65-3.35,6.61,6.61,0,0,0,0-5.11,5.11,5.11,0,0,0-1.47-2.16,6.17,6.17,0,0,0-2.42-1.11,10,10,0,0,0-2.74-.25c-.93,0-1.86,0-2.8.07l-2.81.19Zm0-.3,2.8-.08,2.8-.24c.93-.1,1.89-.07,2.83-.12a10.13,10.13,0,0,1,2.85.16,6.55,6.55,0,0,1,2.7,1.13,6.15,6.15,0,0,1,1.8,2.35,7.44,7.44,0,0,1-3.9,10.16,8.73,8.73,0,0,1-1.49.43c-.47.09-.95.17-1.44.23a20.31,20.31,0,0,1-2.93.19,21.28,21.28,0,0,1-11.24-3.33l1.76-.32q-1.94,2.86-3.9,5.69l-3.94,5.66-.37-2.12a33.68,33.68,0,0,0,14.09,5.45,32,32,0,0,0,7.58.14,31.08,31.08,0,0,0,3.72-.57,18.29,18.29,0,0,0,3.48-1.18,19.37,19.37,0,0,0,11.25-17.81,20.72,20.72,0,0,0-1.46-7.33,18.23,18.23,0,0,0-10.51-10.2,21,21,0,0,0-7.54-1.33c-.65,0-1.29,0-1.94.09s-1.35.09-2,.11a29.52,29.52,0,0,1-4.08-.15,8,8,0,0,1-3.91-1.62,7.71,7.71,0,0,1-2.4-3.48,7.31,7.31,0,0,1,2-7.8,7.17,7.17,0,0,1,3.78-1.82,20.51,20.51,0,0,1,4.07-.31,22.18,22.18,0,0,1,8,1.68l-.77.21,7.9-11.6.32,1.42A32.78,32.78,0,0,0,253.3,83a33.69,33.69,0,0,0-9.92-.35,20.87,20.87,0,0,0-9.19,2.94,20,20,0,0,0-7.52,26,20.32,20.32,0,0,0,2.82,4.2,20.81,20.81,0,0,0,3.85,3.34A19.55,19.55,0,0,0,242.89,122.54Z"/><path d="M287.89,125.8l-8.06-49,13.56-2.23,8.06,49Zm7.71,4.27a6.57,6.57,0,0,1,5.12,1.15,6.67,6.67,0,0,1,2.73,4.52,6.82,6.82,0,0,1-1.13,5.2,6.48,6.48,0,0,1-4.48,2.78,6.66,6.66,0,0,1-5.17-1.19,6.75,6.75,0,0,1-2.78-4.56,6.56,6.56,0,0,1,1.18-5.16A6.71,6.71,0,0,1,295.6,130.07Z" fill="#f7ec41"/><path d="M287.8,125.92c-.94-3.72-1.83-7.66-2.67-11.67s-1.65-8.12-2.41-12.26-1.34-8.4-1.79-12.63S280,81,279.37,76.84l-.08-.46.46-.07c1.13-.16,2.26-.37,3.39-.57s2.25-.4,3.38-.62c2.25-.43,4.49-.91,6.73-1.39l.76-.17.19.84c.88,4.06,1.78,8.1,2.53,12.18L299,98.8l1,6.12.92,6.15q.87,6.15,1.59,12.33l.14,1.13-1,.12c-2.41.28-4.8.52-7.12.72Zm.18-.24c2.38-.57,4.64-1.11,6.85-1.68s4.33-1,6.44-1.5l-.89,1.25q-1.31-6.09-2.44-12.19l-1.1-6.11-1-6.14L294.08,87c-.6-4.1-1-8.22-1.5-12.34l.94.68c-2.28.25-4.56.52-6.83.83-1.13.16-2.27.31-3.4.49s-2.26.34-3.39.55l.38-.53c.68,4.06,1.58,8.07,2.47,12s1.66,7.86,2.25,11.89,1.14,8.08,1.62,12.25S287.58,121.23,288,125.68Z"/><path d="M295.58,129.92a14.39,14.39,0,0,1,2.81-.18,8,8,0,0,1,2.93.74,5.79,5.79,0,0,1,2.41,2.1,6.44,6.44,0,0,1,1,3,7.36,7.36,0,0,1-.49,3.08,10,10,0,0,1-1.52,2.56,9.22,9.22,0,0,1-4.78,3.29,6.93,6.93,0,0,1-6.11-.89,7.69,7.69,0,0,1-3.49-5.42,7.77,7.77,0,0,1,.21-3.28,6.23,6.23,0,0,1,1.74-2.73,8.43,8.43,0,0,1,2.58-1.59A13.17,13.17,0,0,1,295.58,129.92Zm.05.3a4.7,4.7,0,0,0-2.37,1.11,5.19,5.19,0,0,0-1.39,2.07,7.59,7.59,0,0,0-.4,4.31,6.21,6.21,0,0,0,6.19,5.21,4.74,4.74,0,0,0,4.24-2.22,4.58,4.58,0,0,0,.69-2.37,7.29,7.29,0,0,0-.37-2.33,10.39,10.39,0,0,0-2-4,5.27,5.27,0,0,0-2-1.53A4.49,4.49,0,0,0,295.63,130.22Z"/><polygon points="8.28 95.71 11.25 102.06 18.2 101.19 13.08 105.98 16.05 112.32 9.92 108.93 4.8 113.71 6.13 106.84 0 103.45 6.95 102.59 8.28 95.71"/><polygon points="316.41 33.15 317.25 40.1 324.13 41.45 317.78 44.4 318.62 51.35 313.85 46.22 307.5 49.17 310.9 43.05 306.13 37.92 313 39.27 316.41 33.15"/><polygon points="216.41 243.91 221.25 254.11 232.44 252.65 224.24 260.41 229.08 270.61 219.17 265.2 210.97 272.96 213.05 261.86 203.14 256.46 214.33 255.01 216.41 243.91"/></g></g></svg>