<svg xmlns="http://www.w3.org/2000/svg" viewBox="0 0 370.01 265.58"><g id="Layer_2" data-name="Layer 2"><g id="Object"><path d="M308.7,106.46a1.67,1.67,0,0,0-1.93-1.34l.3,1.64Z"/><path d="M316.63,115.12a21,21,0,0,0-1.18-2.73,1.7,1.7,0,0,0-.37,1.37A1.67,1.67,0,0,0,316.63,115.12Z"/><path d="M311.17,124.3a1.64,1.64,0,0,0,.48-1.48,1.66,1.66,0,0,0-1-1.23,1.64,1.64,0,0,0-1-.11l.59,3.27A1.6,1.6,0,0,0,311.17,124.3Z"/><path d="M307.36,108.39a1.61,1.61,0,0,0,.86-.44,1.65,1.65,0,0,0,.48-1.49l-1.63.3Z"/><path d="M286.45,76.7a1.6,1.6,0,0,0-.45-.86,1.66,1.66,0,0,0-2.71.49,1.64,1.64,0,0,0-.11,1Z"/><path d="M274.87,68.66a1.66,1.66,0,0,0,.59,3.27,1.66,1.66,0,1,0-.59-3.27Z"/><path d="M270.09,79.65a1.67,1.67,0,0,0-1.59-1.37,1.84,1.84,0,0,0-.33,0l.29,1.64Z"/><path d="M265.81,65.23a1.66,1.66,0,0,0-.26-3.3,1.84,1.84,0,0,0-.33,0Z"/><path d="M306.77,105.12a1.66,1.66,0,0,0-1.37,1.6,1.84,1.84,0,0,0,0,.33l1.64-.29Z"/><path d="M290.42,108.07a1.66,1.66,0,0,0-1.37,1.6,1.84,1.84,0,0,0,0,.33l3.27-.59a1.19,1.19,0,0,0-.1-.32A1.65,1.65,0,0,0,290.42,108.07Z"/><path d="M287.47,91.72a1.66,1.66,0,1,0,.59,3.27,1.66,1.66,0,0,0-.59-3.27Z"/><path d="M280.76,101.37a1.66,1.66,0,0,0,.59,3.27,1.66,1.66,0,1,0-.59-3.27Z"/><path d="M295.78,100.35a1.66,1.66,0,0,0,3.29-.22,12.81,12.81,0,0,0-2.83.15,17.33,17.33,0,0,0,.78-1.83A1.64,1.64,0,0,0,295.78,100.35Z"/><path d="M277.82,85a1.66,1.66,0,1,0,1.93,1.34A1.66,1.66,0,0,0,277.82,85Z"/><path d="M292.83,84a1.66,1.66,0,0,0,3.21.21,16.37,16.37,0,0,0-1.33-2.15,2,2,0,0,0-.54,0A1.68,1.68,0,0,0,292.83,84Z"/><path d="M274.4,111l-.34,0,.3,1.63,1.63-.29A1.66,1.66,0,0,0,274.4,111Z"/><path d="M271.45,94.64a1.34,1.34,0,0,0-.34,0l.59,3.27a1.15,1.15,0,0,0,.33-.1A1.64,1.64,0,0,0,273,96,1.66,1.66,0,0,0,271.45,94.64Z"/><path d="M283.42,77.9a1.67,1.67,0,0,0,3-.54,1.82,1.82,0,0,0,0-.66l-3.27.59A1.56,1.56,0,0,0,283.42,77.9Z"/><path d="M268.75,81.58a1.59,1.59,0,0,0,.33-.09,1.68,1.68,0,0,0,1-1.18,1.47,1.47,0,0,0,0-.66l-1.63.3Z"/><path d="M296.31,140.78a1.68,1.68,0,0,0-1.34,1.93l3.28-.59a1.74,1.74,0,0,0-.45-.86A1.65,1.65,0,0,0,296.31,140.78Z"/><path d="M310.31,124.75l-.59-3.27a1.66,1.66,0,0,0,.59,3.27Z"/><path d="M293.37,124.43a1.66,1.66,0,0,0,.59,3.27,1.66,1.66,0,1,0-.59-3.27Z"/><path d="M288.59,135.42a1.66,1.66,0,0,0-3.27.59,1.67,1.67,0,0,0,1.93,1.34A1.65,1.65,0,0,0,288.59,135.42Z"/><path d="M303,131.13a1.66,1.66,0,0,0,.59,3.27,1.66,1.66,0,1,0-.59-3.27Z"/><path d="M283.71,117.72a1.66,1.66,0,0,0,.59,3.27,1.66,1.66,0,1,0-.59-3.27Z"/><path d="M300.07,114.77a1.66,1.66,0,1,0,1.93,1.34A1.66,1.66,0,0,0,300.07,114.77Z"/><path d="M281.89,145.07a1.61,1.61,0,0,0-.44-.86,1.66,1.66,0,0,0-1.15-.51,2,2,0,0,0-.34,0l.3,1.63Z"/><path d="M277.93,130.55a1.66,1.66,0,0,0-.58-3.2,2,2,0,0,0-.34,0l.59,3.28A1.8,1.8,0,0,0,277.93,130.55Z"/><path d="M307.36,108.39l-.29-1.63-1.64.29A1.67,1.67,0,0,0,307.36,108.39Z"/><path d="M291,111.34a1.67,1.67,0,0,0,1.34-1.93l-3.27.59A1.66,1.66,0,0,0,291,111.34Z"/><path d="M274.65,114.29a1.78,1.78,0,0,0,.33-.09,1.66,1.66,0,0,0,1-1.84l-1.63.29Z"/><path d="M302.21,173.49a1.64,1.64,0,0,0-1.36,1.59,1.3,1.3,0,0,0,0,.34l3.27-.59a1.65,1.65,0,0,0-1.93-1.34Z"/><path d="M299.85,160.41a1.67,1.67,0,1,0-1.93-1.35A1.66,1.66,0,0,0,299.85,160.41Z"/><path d="M292.56,166.79a1.66,1.66,0,1,0,1.93,1.34A1.66,1.66,0,0,0,292.56,166.79Z"/><path d="M308.92,163.84a1.66,1.66,0,0,0-1.35,1.93,1.68,1.68,0,0,0,1.41,1.34c.16-1.09.29-2.18.36-3.29A1.48,1.48,0,0,0,308.92,163.84Z"/><path d="M289.61,150.43a1.66,1.66,0,1,0,1.93,1.34A1.67,1.67,0,0,0,289.61,150.43Z"/><path d="M306.56,150.75a1.64,1.64,0,0,0,1.05-.67,26.33,26.33,0,0,0-1-2.59,1.56,1.56,0,0,0-.61,0,1.66,1.66,0,0,0,.59,3.27Z"/><path d="M287.79,177.78a2,2,0,0,0-.09-.33,1.68,1.68,0,0,0-1.5-1,1.87,1.87,0,0,0-.34,0l.29,1.63Z"/><path d="M283.25,160.06a1.3,1.3,0,0,0-.34,0l.59,3.28a1.7,1.7,0,0,0,.32-.1,1.66,1.66,0,0,0-.57-3.2Z"/><path d="M295.22,143.32a1.66,1.66,0,0,0,3-.54,1.62,1.62,0,0,0,0-.66l-3.28.59A1.74,1.74,0,0,0,295.22,143.32Z"/><path d="M280.26,145.36l.29,1.64a1.66,1.66,0,0,0,1.33-1.27,1.83,1.83,0,0,0,0-.66Z"/><path d="M294.17,185.07a1.66,1.66,0,1,0,1.34-1.93A1.67,1.67,0,0,0,294.17,185.07Z"/><path d="M302.8,176.76a1.65,1.65,0,0,0,1.34-1.93l-3.27.59A1.67,1.67,0,0,0,302.8,176.76Z"/><path d="M286.45,179.71a1.65,1.65,0,0,0,1.34-1.93l-1.64.29Z"/><path d="M247.84,49.89a1.65,1.65,0,0,0-1.93-1.34,1.64,1.64,0,0,0-1.36,1.59,1.27,1.27,0,0,0,0,.34Z"/><path d="M238.19,43.19a1.66,1.66,0,1,0-1.34,1.93A1.65,1.65,0,0,0,238.19,43.19Z"/><path d="M231.49,52.84a1.68,1.68,0,0,0-.09-.32,1.74,1.74,0,0,0-.88-.91,1.64,1.64,0,0,0-1-.11l.29,1.63Z"/><path d="M268.46,80l-.29-1.64a1.78,1.78,0,0,0-.62.24,1.67,1.67,0,0,0-.61.73,1.64,1.64,0,0,0-.12,1Z"/><path d="M253.74,82.6a1.66,1.66,0,0,0-1.93-1.34,1.69,1.69,0,0,0-1.23,1,1.77,1.77,0,0,0-.11,1Z"/><path d="M264.6,62.2a1.66,1.66,0,0,0,.55,3,1.62,1.62,0,0,0,.66,0L265.22,62A1.61,1.61,0,0,0,264.6,62.2Z"/><path d="M249.45,68.18a1.67,1.67,0,0,0,1.34-1.93,1.66,1.66,0,1,0-1.34,1.93Z"/><path d="M242.75,77.83a1.67,1.67,0,0,0,1.34-1.93,1.66,1.66,0,1,0-1.34,1.93Z"/><path d="M260.44,73a1.66,1.66,0,0,0-3.27.59,1.67,1.67,0,0,0,1.93,1.34A1.65,1.65,0,0,0,260.44,73Z"/><path d="M239.8,61.47a1.66,1.66,0,1,0-1.93-1.34A1.66,1.66,0,0,0,239.8,61.47Z"/><path d="M254.22,57.18a1.67,1.67,0,0,0,3.28-.59,1.67,1.67,0,0,0-3.28.59Z"/><path d="M237.39,85.55a1.56,1.56,0,0,0-.45-.86,1.59,1.59,0,0,0-.52-.37,1.64,1.64,0,0,0-1-.11l.29,1.63Z"/><path d="M234,70.68a1.67,1.67,0,0,0,.48-1.49,1.68,1.68,0,0,0-1.93-1.34l.59,3.28A1.74,1.74,0,0,0,234,70.68Z"/><path d="M246.5,51.82a1.66,1.66,0,0,0,1.34-1.93l-3.27.59A1.67,1.67,0,0,0,246.5,51.82Z"/><path d="M230.15,54.77a1.6,1.6,0,0,0,.86-.45,1.66,1.66,0,0,0,.48-1.48l-1.64.29Z"/><path d="M274.06,111a1.81,1.81,0,0,0-.61.24,1.67,1.67,0,0,0-.75,1.35,1.3,1.3,0,0,0,0,.34l1.64-.3Z"/><path d="M257.71,114a1.66,1.66,0,0,0-1.37,1.59,2,2,0,0,0,0,.34l3.27-.59a1.65,1.65,0,0,0-1.93-1.34Z"/><path d="M270.5,94.91a1.66,1.66,0,0,0,.54,3,1.63,1.63,0,0,0,.66,0l-.59-3.27A1.62,1.62,0,0,0,270.5,94.91Z"/><path d="M255.35,100.89a1.67,1.67,0,1,0-1.93-1.35A1.68,1.68,0,0,0,255.35,100.89Z"/><path d="M248.65,110.54a1.66,1.66,0,1,0-.59-3.27,1.66,1.66,0,0,0,.59,3.27Z"/><path d="M265,107.59a1.66,1.66,0,1,0-1.93-1.34A1.66,1.66,0,0,0,265,107.59Z"/><path d="M245.7,94.18a1.66,1.66,0,1,0-1.93-1.34A1.66,1.66,0,0,0,245.7,94.18Z"/><path d="M262.05,91.23a1.66,1.66,0,1,0-1.93-1.34A1.65,1.65,0,0,0,262.05,91.23Z"/><path d="M243.28,118.26a1.78,1.78,0,0,0-.09-.33,1.65,1.65,0,0,0-1.83-1l.29,1.63Z"/><path d="M239.86,103.39a1.65,1.65,0,0,0-.49-2.71,1.65,1.65,0,0,0-1-.12l.59,3.28A1.79,1.79,0,0,0,239.86,103.39Z"/><path d="M266.82,80.24a1.57,1.57,0,0,0,.25.61,1.67,1.67,0,0,0,1,.72,1.83,1.83,0,0,0,.66,0L268.46,80Z"/><path d="M250.71,83.8a1.67,1.67,0,0,0,3-.54,1.82,1.82,0,0,0,0-.66l-3.27.59A1.73,1.73,0,0,0,250.71,83.8Z"/><path d="M236.05,87.48a1.6,1.6,0,0,0,.86-.45,1.68,1.68,0,0,0,.48-1.48l-1.64.29Z"/><path d="M280,143.73a1.62,1.62,0,0,0-.61.24,1.73,1.73,0,0,0-.62.72,1.77,1.77,0,0,0-.11,1l1.64-.3Z"/><path d="M265.09,147.15a1.67,1.67,0,0,0-2.71.49,1.68,1.68,0,0,0-.11,1l3.27-.59A1.62,1.62,0,0,0,265.09,147.15Z"/><path d="M275.67,129.3a1.66,1.66,0,0,0,1.27,1.33,1.63,1.63,0,0,0,.66,0l-.59-3.28a1.83,1.83,0,0,0-.61.25A1.66,1.66,0,0,0,275.67,129.3Z"/><path d="M260.66,130.32a1.67,1.67,0,0,0,.59,3.28,1.67,1.67,0,0,0-.59-3.28Z"/><path d="M254,140a1.67,1.67,0,1,0,1.94,1.35A1.66,1.66,0,0,0,254,140Z"/><path d="M270.31,137a1.66,1.66,0,1,0,1.93,1.34A1.66,1.66,0,0,0,270.31,137Z"/><path d="M251,123.62a1.66,1.66,0,1,0,1.93,1.34A1.67,1.67,0,0,0,251,123.62Z"/><path d="M267.36,120.67a1.66,1.66,0,1,0,1.93,1.34A1.67,1.67,0,0,0,267.36,120.67Z"/><path d="M249.18,151a1.68,1.68,0,0,0-.44-.87,1.86,1.86,0,0,0-.52-.36,1.67,1.67,0,0,0-1-.11l.3,1.63Z"/><path d="M245.27,133.39a1.67,1.67,0,0,0-1-.12l.59,3.27a1.68,1.68,0,0,0,.87-.44,1.67,1.67,0,0,0-.49-2.71Z"/><path d="M272.72,113a1.67,1.67,0,0,0,1.27,1.33,1.83,1.83,0,0,0,.66,0l-.29-1.64Z"/><path d="M258.3,117.24a1.67,1.67,0,0,0,1.34-1.93l-3.27.59A1.66,1.66,0,0,0,258.3,117.24Z"/><path d="M241.65,118.55l.29,1.64a1.66,1.66,0,0,0,1.34-1.93Z"/><path d="M285.86,176.44a1.56,1.56,0,0,0-.61.24,1.68,1.68,0,0,0-.76,1.35,2,2,0,0,0,0,.34l1.63-.3Z"/><path d="M269.51,179.39a1.65,1.65,0,0,0-1.37,1.59,1.34,1.34,0,0,0,0,.34l3.27-.59a1.8,1.8,0,0,0-.1-.33A1.64,1.64,0,0,0,269.51,179.39Z"/><path d="M282.3,160.33a1.66,1.66,0,0,0,.54,3,1.62,1.62,0,0,0,.66,0l-.59-3.28A1.57,1.57,0,0,0,282.3,160.33Z"/><path d="M266.56,163a1.66,1.66,0,1,0,1.93,1.34A1.66,1.66,0,0,0,266.56,163Z"/><path d="M259.85,172.68a1.67,1.67,0,0,0,.59,3.28,1.67,1.67,0,0,0-.59-3.28Z"/><path d="M276.21,169.73a1.67,1.67,0,1,0,1.93,1.35A1.66,1.66,0,0,0,276.21,169.73Z"/><path d="M256.9,156.33a1.66,1.66,0,1,0,1.94,1.34A1.67,1.67,0,0,0,256.9,156.33Z"/><path d="M273.26,153.38a1.66,1.66,0,1,0,1.93,1.34A1.65,1.65,0,0,0,273.26,153.38Z"/><path d="M255.08,183.68a1.78,1.78,0,0,0-.09-.33,1.65,1.65,0,0,0-1.84-1l.3,1.63Z"/><path d="M251.17,166.1a1.68,1.68,0,0,0-1-.12l.59,3.27a1.64,1.64,0,0,0,1.34-1.93A1.66,1.66,0,0,0,251.17,166.1Z"/><path d="M278.62,145.66a1.81,1.81,0,0,0,.24.61,1.67,1.67,0,0,0,1,.71,1.63,1.63,0,0,0,.66,0l-.29-1.64Z"/><path d="M262.27,148.61a1.62,1.62,0,0,0,.24.61,1.66,1.66,0,0,0,3-.54,1.63,1.63,0,0,0,0-.66Z"/><path d="M247.55,151.26l.29,1.64a1.65,1.65,0,0,0,1.34-1.93Z"/><path d="M271.11,197.67a1.8,1.8,0,0,0,.25.62,10.84,10.84,0,0,0,.84-2.48A1.67,1.67,0,0,0,271.11,197.67Z"/><path d="M261.46,191A1.66,1.66,0,1,0,262.8,189,1.67,1.67,0,0,0,261.46,191Z"/><path d="M277.82,188a1.66,1.66,0,1,0,1.34-1.93A1.66,1.66,0,0,0,277.82,188Z"/><path d="M257.07,198.81a1.68,1.68,0,0,0-1-.12l.59,3.27a1.61,1.61,0,0,0,.86-.44,1.66,1.66,0,0,0-.48-2.71Z"/><path d="M286.15,178.07l-1.63.3a1.65,1.65,0,0,0,1.27,1.32,1.62,1.62,0,0,0,.66,0Z"/><path d="M270.09,182.66a1.67,1.67,0,0,0,1.35-1.93l-3.27.59A1.66,1.66,0,0,0,270.09,182.66Z"/><path d="M253.45,184l.29,1.64a1.7,1.7,0,0,0,.86-.45,1.64,1.64,0,0,0,.48-1.48Z"/><path d="M229.85,53.13l-.29-1.63a1.66,1.66,0,0,0-1.37,1.59,2,2,0,0,0,0,.34Z"/><path d="M215.13,55.79a1.68,1.68,0,0,0-.09-.32,1.66,1.66,0,0,0-3.2.57,1.94,1.94,0,0,0,0,.34Z"/><path d="M205.48,49.09A1.66,1.66,0,1,0,204.14,51,1.67,1.67,0,0,0,205.48,49.09Z"/><path d="M221.84,46.14a1.66,1.66,0,1,0-1.34,1.93A1.66,1.66,0,0,0,221.84,46.14Z"/><path d="M198.78,58.74a1.78,1.78,0,0,0-.09-.33,1.68,1.68,0,0,0-1.5-1,2,2,0,0,0-.34,0l.3,1.63Z"/><path d="M194.82,44.22a1.67,1.67,0,0,0,1-1.84,1.91,1.91,0,0,0-.1-.34c-.53.14-1,.29-1.57.46l.33,1.81Z"/><path d="M235.75,85.84l-.29-1.63a1.67,1.67,0,0,0-1.23,1,1.6,1.6,0,0,0-.11,1Z"/><path d="M221,88.5a1.64,1.64,0,0,0-1.93-1.34,1.66,1.66,0,0,0-1.22,1,1.68,1.68,0,0,0-.12,1Z"/><path d="M233.1,71.13l-.59-3.28a1.67,1.67,0,0,0,.59,3.28Z"/><path d="M216.74,74.08a1.67,1.67,0,1,0-1.93-1.35A1.66,1.66,0,0,0,216.74,74.08Z"/><path d="M210,83.73a1.67,1.67,0,1,0-1.93-1.34A1.67,1.67,0,0,0,210,83.73Z"/><path d="M226.39,80.78a1.67,1.67,0,1,0-1.93-1.34A1.67,1.67,0,0,0,226.39,80.78Z"/><path d="M207.09,67.37A1.66,1.66,0,1,0,205.16,66,1.66,1.66,0,0,0,207.09,67.37Z"/><path d="M223.45,64.42a1.66,1.66,0,1,0-1.93-1.34A1.66,1.66,0,0,0,223.45,64.42Z"/><path d="M204.68,91.45a1.62,1.62,0,0,0-.45-.87,1.65,1.65,0,0,0-1.15-.5,1.84,1.84,0,0,0-.33,0l.29,1.63Z"/><path d="M200.71,76.93a1.67,1.67,0,0,0,1-1.84,1.64,1.64,0,0,0-1.59-1.36,1.27,1.27,0,0,0-.34,0l.59,3.27A1.68,1.68,0,0,0,200.71,76.93Z"/><path d="M228.22,53.43a1.66,1.66,0,0,0,1.93,1.34l-.3-1.64Z"/><path d="M213.79,57.72a1.65,1.65,0,0,0,1.34-1.93l-3.27.59A1.67,1.67,0,0,0,213.79,57.72Z"/><path d="M197.44,60.67a1.19,1.19,0,0,0,.32-.1,1.65,1.65,0,0,0,1-1.83l-1.63.29Z"/><path d="M241.36,116.92a1.65,1.65,0,0,0-1.37,1.59,2,2,0,0,0,0,.34l1.64-.3Z"/><path d="M225,119.87a1.66,1.66,0,0,0-1.37,1.59,2,2,0,0,0,0,.34l3.27-.59a1.78,1.78,0,0,0-.09-.33A1.66,1.66,0,0,0,225,119.87Z"/><path d="M239,103.84l-.59-3.28a1.67,1.67,0,1,0,.59,3.28Z"/><path d="M222.64,106.78a1.66,1.66,0,1,0-.59-3.27,1.66,1.66,0,1,0,.59,3.27Z"/><path d="M215.94,116.43a1.66,1.66,0,1,0-1.93-1.34A1.66,1.66,0,0,0,215.94,116.43Z"/><path d="M232.29,113.49a1.67,1.67,0,0,0-.59-3.28,1.67,1.67,0,0,0,.59,3.28Z"/><path d="M213,100.08a1.66,1.66,0,1,0-1.93-1.34A1.67,1.67,0,0,0,213,100.08Z"/><path d="M229.34,97.13a1.66,1.66,0,1,0-1.93-1.34A1.67,1.67,0,0,0,229.34,97.13Z"/><path d="M209,122.79a1.84,1.84,0,0,0-.33,0l.29,1.63,1.64-.29a1.15,1.15,0,0,0-.1-.33A1.67,1.67,0,0,0,209,122.79Z"/><path d="M206.61,109.64a1.67,1.67,0,0,0,1-1.84,1.65,1.65,0,0,0-1.6-1.36,1.22,1.22,0,0,0-.33,0l.59,3.27A1.68,1.68,0,0,0,206.61,109.64Z"/><path d="M234.12,86.14a1.62,1.62,0,0,0,.24.61,1.67,1.67,0,0,0,1.69.73l-.3-1.64Z"/><path d="M218,89.7a1.66,1.66,0,0,0,3-.54,1.63,1.63,0,0,0,0-.66l-3.27.59A1.64,1.64,0,0,0,218,89.7Z"/><path d="M203.34,93.38a1.7,1.7,0,0,0,.32-.1,1.67,1.67,0,0,0,1-1.83l-1.64.29Z"/><path d="M247.25,149.63a1.63,1.63,0,0,0-1.22,1,1.68,1.68,0,0,0-.12,1l1.64-.3Z"/><path d="M232.39,153.05a1.66,1.66,0,0,0-2.83,1.46l3.27-.59A1.68,1.68,0,0,0,232.39,153.05Z"/><path d="M243,135.2a1.66,1.66,0,0,0,1.93,1.34l-.59-3.27A1.67,1.67,0,0,0,243,135.2Z"/><path d="M228,136.22a1.66,1.66,0,1,0,1.93,1.34A1.67,1.67,0,0,0,228,136.22Z"/><path d="M221.25,145.87a1.66,1.66,0,1,0,1.93,1.34A1.66,1.66,0,0,0,221.25,145.87Z"/><path d="M237.6,142.92a1.67,1.67,0,1,0,1.93,1.35A1.68,1.68,0,0,0,237.6,142.92Z"/><path d="M218.3,129.52a1.66,1.66,0,1,0,.59,3.27,1.66,1.66,0,0,0-.59-3.27Z"/><path d="M234.65,126.57a1.66,1.66,0,1,0,1.93,1.34A1.67,1.67,0,0,0,234.65,126.57Z"/><path d="M216.47,156.86a1.65,1.65,0,0,0-1.59-1.36,1.23,1.23,0,0,0-.33,0l.29,1.63Z"/><path d="M211.93,139.14l-.33,0,.59,3.27a1.66,1.66,0,0,0-.26-3.3Z"/><path d="M240,118.85a1.67,1.67,0,0,0,1.93,1.34l-.29-1.64Z"/><path d="M225.59,123.14a1.67,1.67,0,0,0,1.34-1.93l-3.27.59A1.67,1.67,0,0,0,225.59,123.14Z"/><path d="M209.24,126.09a1.7,1.7,0,0,0,.32-.1,1.65,1.65,0,0,0,1-1.83l-1.64.29Z"/><path d="M253.15,182.34a1.66,1.66,0,0,0-1.37,1.59,2,2,0,0,0,0,.34l1.64-.3Z"/><path d="M236.8,185.29a1.66,1.66,0,0,0-1.37,1.59,1.84,1.84,0,0,0,0,.33l3.27-.58a1.59,1.59,0,0,0-.09-.33A1.65,1.65,0,0,0,236.8,185.29Z"/><path d="M248.86,167.91a1.66,1.66,0,0,0,1.93,1.34L250.2,166A1.67,1.67,0,0,0,248.86,167.91Z"/><path d="M233.85,168.93a1.66,1.66,0,1,0,1.93,1.34A1.66,1.66,0,0,0,233.85,168.93Z"/><path d="M227.14,178.58a1.66,1.66,0,1,0,1.94,1.34A1.68,1.68,0,0,0,227.14,178.58Z"/><path d="M243.5,175.63a1.67,1.67,0,0,0-1.34,1.93,1.66,1.66,0,1,0,1.34-1.93Z"/><path d="M224.2,162.23a1.66,1.66,0,1,0,.59,3.27,1.66,1.66,0,1,0-.59-3.27Z"/><path d="M240.55,159.28a1.66,1.66,0,1,0,1.93,1.34A1.66,1.66,0,0,0,240.55,159.28Z"/><path d="M220.78,188.21a2,2,0,0,0-.34,0l.3,1.64,1.63-.3a1.68,1.68,0,0,0-.09-.32A1.66,1.66,0,0,0,220.78,188.21Z"/><path d="M217.83,171.85l-.34,0,.59,3.27a1.59,1.59,0,0,0,.33-.09,1.67,1.67,0,0,0-.58-3.21Z"/><path d="M245.91,151.56a1.64,1.64,0,0,0,.25.61,1.66,1.66,0,0,0,1.68.73l-.29-1.64Z"/><path d="M229.56,154.51a1.62,1.62,0,0,0,.24.61,1.67,1.67,0,0,0,3-.54,1.83,1.83,0,0,0,0-.66Z"/><path d="M214.84,157.16l.29,1.63a1.59,1.59,0,0,0,.33-.09,1.66,1.66,0,0,0,1-1.18,1.47,1.47,0,0,0,0-.66Z"/><path d="M254.76,200.62a1.66,1.66,0,0,0,1.93,1.34l-.59-3.27A1.67,1.67,0,0,0,254.76,200.62Z"/><path d="M240.34,204.91a1.66,1.66,0,1,0-1.93-1.34A1.67,1.67,0,0,0,240.34,204.91Z"/><path d="M235,212.63a1.66,1.66,0,1,0-1.34,1.93A1.66,1.66,0,0,0,235,212.63Z"/><path d="M228.75,196.87a1.67,1.67,0,1,0,1.34-1.93A1.67,1.67,0,0,0,228.75,196.87Z"/><path d="M245.11,193.92a1.66,1.66,0,1,0,1.34-1.93A1.66,1.66,0,0,0,245.11,193.92Z"/><path d="M228.27,222.28a1.65,1.65,0,0,0-1.59-1.36,1.3,1.3,0,0,0-.34,0l.3,1.64Z"/><path d="M224.31,207.77a1.67,1.67,0,0,0-.58-3.21l-.34,0,.59,3.27A1.78,1.78,0,0,0,224.31,207.77Z"/><path d="M251.81,184.27a1.67,1.67,0,0,0,1.93,1.34l-.29-1.64Z"/><path d="M237.39,188.55a1.66,1.66,0,0,0,1.34-1.92l-3.27.58A1.65,1.65,0,0,0,237.39,188.55Z"/><path d="M221,191.5a1.78,1.78,0,0,0,.33-.09,1.66,1.66,0,0,0,1-1.84l-1.63.3Z"/><path d="M226.93,224.21a1.68,1.68,0,0,0,.32-.09,1.65,1.65,0,0,0,1-1.18,1.62,1.62,0,0,0,0-.66l-1.63.3Z"/><path d="M197.15,59l-.3-1.63a1.56,1.56,0,0,0-.61.24,1.68,1.68,0,0,0-.76,1.35,2,2,0,0,0,0,.34Z"/><path d="M182.43,61.69a1.26,1.26,0,0,0-.1-.33,1.64,1.64,0,0,0-1.83-1,1.66,1.66,0,0,0-1.37,1.59,2,2,0,0,0,0,.34Z"/><path d="M193.83,44.3a1.47,1.47,0,0,0,.66,0l-.33-1.81c-.53.17-1.06.35-1.58.54A1.66,1.66,0,0,0,193.83,44.3Z"/><path d="M176.21,45.92a1.66,1.66,0,0,0,3.27-.58c-.34-.43-.7-.85-1.06-1.26a1.7,1.7,0,0,0-.87-.09A1.66,1.66,0,0,0,176.21,45.92Z"/><path d="M171.43,56.91a1.66,1.66,0,1,0-1.93-1.34A1.66,1.66,0,0,0,171.43,56.91Z"/><path d="M189.13,52A1.66,1.66,0,1,0,187.79,54,1.67,1.67,0,0,0,189.13,52Z"/><path d="M168.49,40.56a1.66,1.66,0,1,0-.59-3.27,1.66,1.66,0,0,0,.59,3.27Z"/><path d="M166.07,64.64a1.59,1.59,0,0,0-.09-.33,1.63,1.63,0,0,0-.87-.9,1.6,1.6,0,0,0-1-.11l.3,1.63Z"/><path d="M162.16,47.06a1.67,1.67,0,0,0-1-.12l.59,3.27a1.64,1.64,0,0,0,1.34-1.93A1.63,1.63,0,0,0,162.16,47.06Z"/><path d="M159.7,33.41a1.54,1.54,0,0,0,.38-.59c-.5-.13-1-.26-1.5-.37l.25,1.41A1.7,1.7,0,0,0,159.7,33.41Z"/><path d="M203,91.74l-.29-1.63a1.56,1.56,0,0,0-.61.24,1.63,1.63,0,0,0-.73,1.69Z"/><path d="M188.33,94.4a1.77,1.77,0,0,0-.45-.87,1.67,1.67,0,0,0-2.71.49,1.67,1.67,0,0,0-.12,1Z"/><path d="M199.73,77a1.62,1.62,0,0,0,.66,0l-.59-3.27a1.57,1.57,0,0,0-.61.25,1.64,1.64,0,0,0-.73,1.68A1.66,1.66,0,0,0,199.73,77Z"/><path d="M184,80a1.66,1.66,0,1,0-1.93-1.34A1.67,1.67,0,0,0,184,80Z"/><path d="M177.33,89.62a1.66,1.66,0,0,0-.59-3.27,1.66,1.66,0,0,0,.59,3.27Z"/><path d="M193.69,86.67a1.66,1.66,0,1,0-1.93-1.34A1.66,1.66,0,0,0,193.69,86.67Z"/><path d="M174.38,73.27a1.66,1.66,0,1,0-1.93-1.34A1.67,1.67,0,0,0,174.38,73.27Z"/><path d="M190.74,70.32A1.66,1.66,0,1,0,188.81,69,1.67,1.67,0,0,0,190.74,70.32Z"/><path d="M172,97.34a1.69,1.69,0,0,0-.44-.86,1.86,1.86,0,0,0-.52-.36,1.68,1.68,0,0,0-1-.12l.3,1.64Z"/><path d="M168.06,79.76a1.77,1.77,0,0,0-1-.11l.59,3.27a1.67,1.67,0,0,0,.38-3.16Z"/><path d="M195.51,59.33a1.66,1.66,0,0,0,1.27,1.32,1.62,1.62,0,0,0,.66,0L197.15,59Z"/><path d="M181.09,63.62a1.67,1.67,0,0,0,1.34-1.93l-3.27.59A1.66,1.66,0,0,0,181.09,63.62Z"/><path d="M164.73,66.57a1.77,1.77,0,0,0,.87-.45,1.66,1.66,0,0,0,.47-1.48l-1.63.29Z"/><path d="M208.65,122.82a1.61,1.61,0,0,0-.62.24,1.65,1.65,0,0,0-.75,1.35,2,2,0,0,0,0,.34l1.63-.3Z"/><path d="M192.29,125.77a1.64,1.64,0,0,0-1.36,1.59,1.22,1.22,0,0,0,0,.33l3.27-.59a1.68,1.68,0,0,0-.09-.32A1.65,1.65,0,0,0,192.29,125.77Z"/><path d="M205.63,109.72a1.62,1.62,0,0,0,.66,0l-.59-3.27a1.86,1.86,0,0,0-.62.24,1.67,1.67,0,0,0,.55,3Z"/><path d="M189.93,112.68a1.66,1.66,0,1,0-1.93-1.34A1.65,1.65,0,0,0,189.93,112.68Z"/><path d="M183.23,122.33A1.66,1.66,0,1,0,181.3,121,1.66,1.66,0,0,0,183.23,122.33Z"/><path d="M199.59,119.38a1.66,1.66,0,1,0-1.94-1.34A1.66,1.66,0,0,0,199.59,119.38Z"/><path d="M180.28,106a1.66,1.66,0,1,0-1.93-1.34A1.66,1.66,0,0,0,180.28,106Z"/><path d="M196.64,103a1.66,1.66,0,1,0-.59-3.27,1.66,1.66,0,1,0,.59,3.27Z"/><path d="M177.87,130.05a1.63,1.63,0,0,0-1-1.22,1.64,1.64,0,0,0-1-.12l.29,1.64Z"/><path d="M174.44,115.19a1.66,1.66,0,0,0-.49-2.72,1.64,1.64,0,0,0-1-.11l.59,3.27A1.65,1.65,0,0,0,174.44,115.19Z"/><path d="M201.41,92a1.62,1.62,0,0,0,.24.61,1.67,1.67,0,0,0,1,.71,1.62,1.62,0,0,0,.66,0l-.3-1.64Z"/><path d="M185.3,95.6a1.66,1.66,0,0,0,3-.54,1.63,1.63,0,0,0,0-.66l-3.28.59A1.83,1.83,0,0,0,185.3,95.6Z"/><path d="M170.63,99.27a1.61,1.61,0,0,0,.86-.44A1.64,1.64,0,0,0,172,98a1.82,1.82,0,0,0,0-.66l-1.63.3Z"/><path d="M214.55,155.53a1.61,1.61,0,0,0-.62.24,1.7,1.7,0,0,0-.61.72,1.65,1.65,0,0,0-.12,1l1.64-.29Z"/><path d="M199.68,159a1.68,1.68,0,0,0-1.49-.48,1.7,1.7,0,0,0-1.23,1,1.73,1.73,0,0,0-.11,1l3.27-.59A1.69,1.69,0,0,0,199.68,159Z"/><path d="M211,139.41a1.67,1.67,0,0,0,.55,3,1.62,1.62,0,0,0,.66,0l-.59-3.27A1.78,1.78,0,0,0,211,139.41Z"/><path d="M195.24,142.12a1.66,1.66,0,1,0,1.93,1.34A1.67,1.67,0,0,0,195.24,142.12Z"/><path d="M188.54,151.77a1.66,1.66,0,1,0,1.93,1.34A1.66,1.66,0,0,0,188.54,151.77Z"/><path d="M204.89,148.82a1.66,1.66,0,1,0,.59,3.27,1.66,1.66,0,1,0-.59-3.27Z"/><path d="M185.59,135.42a1.66,1.66,0,1,0,1.93,1.34A1.66,1.66,0,0,0,185.59,135.42Z"/><path d="M201.94,132.47a1.66,1.66,0,1,0,1.94,1.34A1.66,1.66,0,0,0,201.94,132.47Z"/><path d="M183.77,162.76a1.6,1.6,0,0,0-.45-.86,1.57,1.57,0,0,0-.52-.36,1.64,1.64,0,0,0-1-.12l.29,1.64Z"/><path d="M179.85,145.18a1.64,1.64,0,0,0-1-.11l.59,3.27a1.65,1.65,0,0,0,.86-.44,1.69,1.69,0,0,0,.48-1.49A1.66,1.66,0,0,0,179.85,145.18Z"/><path d="M207.31,124.75a1.65,1.65,0,0,0,1.27,1.32,1.62,1.62,0,0,0,.66,0l-.3-1.64Z"/><path d="M192.88,129a1.65,1.65,0,0,0,1.34-1.93l-3.27.59A1.66,1.66,0,0,0,192.88,129Z"/><path d="M176.23,130.35l.3,1.63a1.65,1.65,0,0,0,.86-.44,1.67,1.67,0,0,0,.48-1.49Z"/><path d="M220.44,188.23a1.83,1.83,0,0,0-.61.25,1.65,1.65,0,0,0-.75,1.35,1.22,1.22,0,0,0,0,.33l1.64-.29Z"/><path d="M204.09,191.18a1.68,1.68,0,0,0-1.37,1.6,1.84,1.84,0,0,0,0,.33l3.27-.59a1.65,1.65,0,0,0-1.93-1.34Z"/><path d="M216.88,172.12a1.67,1.67,0,0,0,.54,3,1.63,1.63,0,0,0,.66,0l-.59-3.27A1.62,1.62,0,0,0,216.88,172.12Z"/><path d="M201.14,174.83a1.66,1.66,0,1,0,1.93,1.34A1.67,1.67,0,0,0,201.14,174.83Z"/><path d="M194.44,184.48a1.66,1.66,0,1,0,1.93,1.34A1.67,1.67,0,0,0,194.44,184.48Z"/><path d="M210.79,181.53a1.66,1.66,0,1,0,1.93,1.34A1.67,1.67,0,0,0,210.79,181.53Z"/><path d="M191.49,168.12a1.67,1.67,0,1,0,1.93,1.35A1.67,1.67,0,0,0,191.49,168.12Z"/><path d="M207.84,165.18a1.66,1.66,0,1,0,1.93,1.34A1.66,1.66,0,0,0,207.84,165.18Z"/><path d="M188.7,194.25a1.65,1.65,0,0,0-1-.12l.29,1.64,1.64-.3a3,3,0,0,0-.1-.32A1.63,1.63,0,0,0,188.7,194.25Z"/><path d="M185.75,177.89a1.65,1.65,0,0,0-1-.11l.59,3.27a1.63,1.63,0,0,0,.86-.45,1.66,1.66,0,0,0,.48-1.48A1.68,1.68,0,0,0,185.75,177.89Z"/><path d="M213.2,157.45a1.68,1.68,0,0,0,1.27,1.33,1.47,1.47,0,0,0,.66,0l-.29-1.63Z"/><path d="M196.85,160.4a1.78,1.78,0,0,0,.24.62,1.67,1.67,0,0,0,3-.55,1.62,1.62,0,0,0,0-.66Z"/><path d="M182.13,163.06l.3,1.63a1.65,1.65,0,0,0,.86-.44,1.71,1.71,0,0,0,.48-1.49Z"/><path d="M226.34,220.94a1.64,1.64,0,0,0-.61.25,1.58,1.58,0,0,0-.61.72,1.64,1.64,0,0,0-.12,1l1.64-.29Z"/><path d="M210,223.89a1.66,1.66,0,0,0-1.23,1,1.64,1.64,0,0,0-.11,1l3.27-.59a1.6,1.6,0,0,0-.45-.86A1.66,1.66,0,0,0,210,223.89Z"/><path d="M223.39,204.59a1.62,1.62,0,0,0-.61.24,1.67,1.67,0,0,0,.54,3,1.83,1.83,0,0,0,.66,0Z"/><path d="M207,207.54a1.66,1.66,0,1,0,1.93,1.34A1.65,1.65,0,0,0,207,207.54Z"/><path d="M202.27,218.53a1.67,1.67,0,0,0-1.93-1.34,1.66,1.66,0,1,0,1.93,1.34Z"/><path d="M216.69,214.24a1.66,1.66,0,1,0,1.93,1.34A1.67,1.67,0,0,0,216.69,214.24Z"/><path d="M197.39,200.83a1.67,1.67,0,1,0,1.93,1.35A1.66,1.66,0,0,0,197.39,200.83Z"/><path d="M213.74,197.88a1.67,1.67,0,1,0,1.93,1.35A1.68,1.68,0,0,0,213.74,197.88Z"/><path d="M192.14,213.31a1.63,1.63,0,0,0,.47-1.48,1.65,1.65,0,0,0-1-1.23,1.67,1.67,0,0,0-1-.11l.59,3.27A1.62,1.62,0,0,0,192.14,213.31Z"/><path d="M219.1,190.16a1.66,1.66,0,0,0,1.27,1.33,1.63,1.63,0,0,0,.66,0l-.29-1.63Z"/><path d="M204.68,194.45a1.66,1.66,0,0,0,1.34-1.93l-3.27.59A1.65,1.65,0,0,0,204.68,194.45Z"/><path d="M188.33,197.4a1.69,1.69,0,0,0,.86-.44,1.67,1.67,0,0,0,.48-1.49l-1.64.3Z"/><path d="M226.64,222.58l-1.64.29a1.78,1.78,0,0,0,.24.62,1.71,1.71,0,0,0,1,.71,1.63,1.63,0,0,0,.66,0Z"/><path d="M208.89,226.44a1.46,1.46,0,0,0,.16.19c.72.12,1.45.21,2.17.26a1.6,1.6,0,0,0,.68-1,1.62,1.62,0,0,0,0-.66l-3.27.59A1.67,1.67,0,0,0,208.89,226.44Z"/><path d="M158,32.32c-.37-.08-.74-.16-1.11-.22a2,2,0,0,0,0,.42Z"/><path d="M143.82,34.88a1.68,1.68,0,0,0-.44-.87,1.66,1.66,0,0,0-2.83,1.46Z"/><path d="M164.44,64.93l-.3-1.63a1.62,1.62,0,0,0-.61.24,1.65,1.65,0,0,0-.75,1.35,1.32,1.32,0,0,0,0,.34Z"/><path d="M149.63,67.26a1.66,1.66,0,0,0-3.21.58,1.84,1.84,0,0,0,0,.33l3.27-.59A1.68,1.68,0,0,0,149.63,67.26Z"/><path d="M160.58,47.18a1.68,1.68,0,0,0-.73,1.69,1.66,1.66,0,0,0,1.27,1.33,1.63,1.63,0,0,0,.66,0l-.59-3.27A1.81,1.81,0,0,0,160.58,47.18Z"/><path d="M144.84,49.89a1.66,1.66,0,1,0,1.93,1.34A1.67,1.67,0,0,0,144.84,49.89Z"/><path d="M138.73,62.81a1.66,1.66,0,1,0-1.93-1.34A1.66,1.66,0,0,0,138.73,62.81Z"/><path d="M155.08,59.86a1.66,1.66,0,1,0-1.93-1.34A1.66,1.66,0,0,0,155.08,59.86Z"/><path d="M133.85,45.12a1.66,1.66,0,1,0,1.34-1.93A1.66,1.66,0,0,0,133.85,45.12Z"/><path d="M152.13,43.51a1.66,1.66,0,1,0-1.93-1.34A1.66,1.66,0,0,0,152.13,43.51Z"/><path d="M131.43,69.19l.3,1.64,1.63-.3a1.65,1.65,0,0,0-1.93-1.34Z"/><path d="M128.49,52.84l.59,3.27a1.66,1.66,0,1,0-.59-3.27Z"/><path d="M157.15,33.13a1.68,1.68,0,0,0,1.68.73l-.25-1.41-.58-.13-1.1.2A1.64,1.64,0,0,0,157.15,33.13Z"/><path d="M140.79,36.08a1.67,1.67,0,0,0,3-.55,1.77,1.77,0,0,0,0-.65l-3.27.59A1.81,1.81,0,0,0,140.79,36.08Z"/><path d="M170,96a1.74,1.74,0,0,0-.61.25,1.63,1.63,0,0,0-.73,1.68l1.64-.29Z"/><path d="M155.62,100.29a1.6,1.6,0,0,0-.45-.86,1.66,1.66,0,0,0-1.48-.48,1.68,1.68,0,0,0-1.23,1,1.64,1.64,0,0,0-.11,1Z"/><path d="M166.48,79.89a1.68,1.68,0,0,0-.73,1.69A1.66,1.66,0,0,0,167,82.91a1.63,1.63,0,0,0,.66,0l-.59-3.27A1.81,1.81,0,0,0,166.48,79.89Z"/><path d="M151.33,85.87a1.66,1.66,0,1,0-1.93-1.34A1.67,1.67,0,0,0,151.33,85.87Z"/><path d="M144.62,95.52a1.66,1.66,0,1,0-1.93-1.34A1.67,1.67,0,0,0,144.62,95.52Z"/><path d="M161,92.57a1.66,1.66,0,1,0-1.93-1.34A1.66,1.66,0,0,0,161,92.57Z"/><path d="M141.68,79.17a1.66,1.66,0,0,0-.59-3.27,1.66,1.66,0,0,0,.59,3.27Z"/><path d="M156.1,74.88A1.66,1.66,0,1,0,157.44,73,1.67,1.67,0,0,0,156.1,74.88Z"/><path d="M137.33,101.9l.3,1.64,1.63-.3a1.65,1.65,0,0,0-.44-.86A1.67,1.67,0,0,0,137.33,101.9Z"/><path d="M136.31,86.89a1.66,1.66,0,0,0-1.93-1.34l.59,3.27A1.65,1.65,0,0,0,136.31,86.89Z"/><path d="M162.8,65.23a1.66,1.66,0,0,0,1.27,1.32,1.63,1.63,0,0,0,.66,0l-.29-1.64Z"/><path d="M148.38,69.51a1.66,1.66,0,0,0,1.34-1.93l-3.27.59A1.65,1.65,0,0,0,148.38,69.51Z"/><path d="M132,72.46a1.65,1.65,0,0,0,1.34-1.93l-1.63.3Z"/><path d="M175.94,128.71a1.57,1.57,0,0,0-.61.25,1.64,1.64,0,0,0-.76,1.35,1.84,1.84,0,0,0,0,.33l1.63-.29Z"/><path d="M161.52,133a3,3,0,0,0-.1-.32,1.66,1.66,0,0,0-3.2.58,1.83,1.83,0,0,0,0,.33Z"/><path d="M172.92,115.62a1.82,1.82,0,0,0,.66,0l-.59-3.27a1.56,1.56,0,0,0-.61.24,1.67,1.67,0,0,0,.54,3Z"/><path d="M157.23,118.58a1.66,1.66,0,1,0-1.93-1.34A1.67,1.67,0,0,0,157.23,118.58Z"/><path d="M150.52,128.23a1.66,1.66,0,1,0-1.93-1.34A1.67,1.67,0,0,0,150.52,128.23Z"/><path d="M166.88,125.28a1.66,1.66,0,1,0-1.93-1.34A1.67,1.67,0,0,0,166.88,125.28Z"/><path d="M147.57,111.88a1.67,1.67,0,0,0-.59-3.28,1.67,1.67,0,0,0,.59,3.28Z"/><path d="M163.93,108.93a1.67,1.67,0,0,0,1.34-1.93,1.66,1.66,0,1,0-1.34,1.93Z"/><path d="M145.16,136a1.65,1.65,0,0,0-1.93-1.34l.3,1.64Z"/><path d="M142.21,119.6a1.65,1.65,0,0,0-1.93-1.34l.59,3.27A1.67,1.67,0,0,0,142.21,119.6Z"/><path d="M170,99.26a1.62,1.62,0,0,0,.66,0l-.29-1.63-1.64.29a1.78,1.78,0,0,0,.24.62A1.67,1.67,0,0,0,170,99.26Z"/><path d="M152.59,101.5a1.66,1.66,0,0,0,3-.55,1.62,1.62,0,0,0,0-.66l-3.27.59A1.61,1.61,0,0,0,152.59,101.5Z"/><path d="M137.92,105.17a1.66,1.66,0,0,0,1.33-1.27,1.62,1.62,0,0,0,0-.66l-1.63.3Z"/><path d="M181.84,161.42a1.62,1.62,0,0,0-.62.25,1.65,1.65,0,0,0-.72,1.68l1.63-.29Z"/><path d="M167,164.85a1.67,1.67,0,0,0-1.49-.48,1.68,1.68,0,0,0-1.34,1.93l3.27-.59A1.65,1.65,0,0,0,167,164.85Z"/><path d="M178.27,145.31a1.67,1.67,0,0,0,.55,3,1.82,1.82,0,0,0,.66,0l-.59-3.27A1.67,1.67,0,0,0,178.27,145.31Z"/><path d="M162.53,148a1.66,1.66,0,1,0,1.93,1.34A1.66,1.66,0,0,0,162.53,148Z"/><path d="M155.83,157.67a1.66,1.66,0,1,0,1.93,1.34A1.67,1.67,0,0,0,155.83,157.67Z"/><path d="M172.19,154.72a1.66,1.66,0,1,0,1.93,1.34A1.67,1.67,0,0,0,172.19,154.72Z"/><path d="M152.88,141.31a1.67,1.67,0,1,0,1.93,1.35A1.68,1.68,0,0,0,152.88,141.31Z"/><path d="M169.24,138.36a1.67,1.67,0,1,0,1.93,1.35A1.66,1.66,0,0,0,169.24,138.36Z"/><path d="M151.06,168.66a1.6,1.6,0,0,0-.45-.86,1.66,1.66,0,0,0-1.48-.48l.29,1.64Z"/><path d="M146.18,151l.59,3.27a1.66,1.66,0,1,0-.59-3.27Z"/><path d="M174.6,130.64a1.66,1.66,0,0,0,1.27,1.33,1.62,1.62,0,0,0,.66,0l-.3-1.63Z"/><path d="M160.17,134.93a1.66,1.66,0,0,0,1.35-1.93l-3.28.59A1.66,1.66,0,0,0,160.17,134.93Z"/><path d="M143.82,137.88a1.67,1.67,0,0,0,1.34-1.93l-1.63.3Z"/><path d="M187.74,194.13a1.62,1.62,0,0,0-.62.25,1.64,1.64,0,0,0-.75,1.35,1.83,1.83,0,0,0,0,.33l1.64-.29Z"/><path d="M171.38,197.08a1.66,1.66,0,0,0-1.37,1.6,1.84,1.84,0,0,0,0,.33l3.27-.59a1.65,1.65,0,0,0-1.93-1.34Z"/><path d="M184.17,178a1.67,1.67,0,0,0,.55,3,1.82,1.82,0,0,0,.66,0l-.59-3.27A1.61,1.61,0,0,0,184.17,178Z"/><path d="M168.43,180.73a1.66,1.66,0,1,0,1.93,1.34A1.66,1.66,0,0,0,168.43,180.73Z"/><path d="M161.73,190.38a1.66,1.66,0,1,0,1.93,1.34A1.66,1.66,0,0,0,161.73,190.38Z"/><path d="M178.08,187.43a1.66,1.66,0,1,0,1.93,1.34A1.67,1.67,0,0,0,178.08,187.43Z"/><path d="M158.78,174a1.67,1.67,0,0,0-1.34,1.93,1.66,1.66,0,1,0,1.34-1.93Z"/><path d="M175.13,171.07a1.67,1.67,0,1,0,1.94,1.35A1.68,1.68,0,0,0,175.13,171.07Z"/><path d="M157,201.37a1.19,1.19,0,0,0-.1-.32,1.65,1.65,0,0,0-1.83-1l.29,1.63Z"/><path d="M152.08,183.68l.59,3.27A1.67,1.67,0,0,0,154,185,1.65,1.65,0,0,0,152.08,183.68Z"/><path d="M180.5,163.35a1.61,1.61,0,0,0,.24.62,1.71,1.71,0,0,0,1,.71,1.62,1.62,0,0,0,.66,0l-.3-1.63Z"/><path d="M164.14,166.3a1.57,1.57,0,0,0,.25.61,1.64,1.64,0,0,0,1.68.73,1.66,1.66,0,0,0,1.33-1.27,1.62,1.62,0,0,0,0-.66Z"/><path d="M149.72,170.59a1.67,1.67,0,0,0,1.33-1.27,1.82,1.82,0,0,0,0-.66l-1.64.3Z"/><path d="M190.68,210.49a1.62,1.62,0,0,0-.61.24,1.66,1.66,0,0,0,.54,3,1.63,1.63,0,0,0,.66,0Z"/><path d="M174.92,216.71a1.67,1.67,0,0,0,1.34-1.93,1.66,1.66,0,1,0-1.34,1.93Z"/><path d="M167.63,223.09a1.66,1.66,0,0,0,.59,3.27,1.66,1.66,0,1,0-.59-3.27Z"/><path d="M184,220.14a1.66,1.66,0,1,0,1.93,1.34A1.66,1.66,0,0,0,184,220.14Z"/><path d="M164.68,206.73a1.66,1.66,0,1,0,1.93,1.34A1.66,1.66,0,0,0,164.68,206.73Z"/><path d="M181,203.78a1.67,1.67,0,0,0-1.34,1.93,1.66,1.66,0,1,0,1.34-1.93Z"/><path d="M161.31,234.36l1.4-.71a1.66,1.66,0,0,0-.3-.43,1.64,1.64,0,0,0-1.48-.48l.29,1.63Z"/><path d="M158,216.38l.59,3.28a1.67,1.67,0,0,0-.59-3.28Z"/><path d="M186.39,196.06a1.65,1.65,0,0,0,1.94,1.34l-.3-1.63Z"/><path d="M172,200.35a1.67,1.67,0,0,0,1.34-1.93L170,199A1.67,1.67,0,0,0,172,200.35Z"/><path d="M155.62,203.3a1.67,1.67,0,0,0,1.34-1.93l-1.64.29Z"/><path d="M161.23,234.4l.08,0h-.09Z"/><path d="M131.43,69.19a1.67,1.67,0,0,0-1.36,1.6,1.22,1.22,0,0,0,0,.33l1.64-.29Z"/><path d="M117,73.48a1.66,1.66,0,0,0-3.3.26,1.84,1.84,0,0,0,0,.33Z"/><path d="M127.14,54.77a1.68,1.68,0,0,0,1.94,1.34l-.59-3.27A1.67,1.67,0,0,0,127.14,54.77Z"/><path d="M114.07,57.3c-.2.46-.39.92-.58,1.39A1.62,1.62,0,0,0,114.07,57.3Z"/><path d="M107.36,66.78A1.66,1.66,0,1,0,106,68.71,1.67,1.67,0,0,0,107.36,66.78Z"/><path d="M123.71,63.83a1.66,1.66,0,1,0-1.34,1.93A1.66,1.66,0,0,0,123.71,63.83Z"/><path d="M119.42,49.41a1.66,1.66,0,0,0,1.34-1.93,1.58,1.58,0,0,0-.31-.71c-.67.83-1.3,1.68-1.91,2.55A1.75,1.75,0,0,0,119.42,49.41Z"/><path d="M100.66,76.43a1.7,1.7,0,0,0-.1-.32,1.67,1.67,0,0,0-1.83-1L99,76.73Z"/><path d="M137.33,101.9a1.68,1.68,0,0,0-1.34,1.93l1.64-.29Z"/><path d="M122.91,106.19a1.6,1.6,0,0,0-.45-.86,1.66,1.66,0,0,0-2.71.49,1.64,1.64,0,0,0-.11,1Z"/><path d="M135,88.82l-.59-3.27a1.66,1.66,0,1,0,.59,3.27Z"/><path d="M118.62,91.77a1.66,1.66,0,1,0-1.93-1.34A1.67,1.67,0,0,0,118.62,91.77Z"/><path d="M111.92,101.42a1.66,1.66,0,0,0-.59-3.27,1.66,1.66,0,0,0,.59,3.27Z"/><path d="M128.27,98.47a1.66,1.66,0,1,0-1.93-1.34A1.67,1.67,0,0,0,128.27,98.47Z"/><path d="M109,85.07A1.67,1.67,0,1,0,107,83.73,1.67,1.67,0,0,0,109,85.07Z"/><path d="M125.32,82.12a1.67,1.67,0,1,0-1.93-1.34A1.66,1.66,0,0,0,125.32,82.12Z"/><path d="M106.55,109.14a1.65,1.65,0,0,0-.44-.86,1.52,1.52,0,0,0-.52-.36,1.67,1.67,0,0,0-1-.12l.3,1.64Z"/><path d="M103.13,94.27a1.66,1.66,0,0,0,.48-1.48,1.68,1.68,0,0,0-1-1.23,1.65,1.65,0,0,0-1-.11l.59,3.27A1.63,1.63,0,0,0,103.13,94.27Z"/><path d="M130.09,71.12A1.66,1.66,0,0,0,132,72.46l-.29-1.63Z"/><path d="M115.67,75.41A1.66,1.66,0,0,0,117,73.48l-3.27.59A1.66,1.66,0,0,0,115.67,75.41Z"/><path d="M99.32,78.36a1.66,1.66,0,0,0,1.34-1.93l-1.64.3Z"/><path d="M143.23,134.61a1.66,1.66,0,0,0-1.37,1.6,1.84,1.84,0,0,0,0,.33l1.64-.29Z"/><path d="M126.88,137.56a1.66,1.66,0,0,0-1.37,1.6,1.84,1.84,0,0,0,0,.33l3.27-.59a1.19,1.19,0,0,0-.1-.32A1.65,1.65,0,0,0,126.88,137.56Z"/><path d="M140.87,121.53l-.59-3.27a1.66,1.66,0,0,0,.59,3.27Z"/><path d="M123.93,121.21a1.66,1.66,0,0,0,.59,3.27,1.66,1.66,0,1,0-.59-3.27Z"/><path d="M117.22,130.86a1.66,1.66,0,1,0,1.94,1.34A1.66,1.66,0,0,0,117.22,130.86Z"/><path d="M133.58,127.91a1.66,1.66,0,1,0,1.93,1.34A1.67,1.67,0,0,0,133.58,127.91Z"/><path d="M114.28,114.5a1.66,1.66,0,1,0,1.93,1.34A1.66,1.66,0,0,0,114.28,114.5Z"/><path d="M130.63,111.55a1.67,1.67,0,1,0,1.93,1.35A1.68,1.68,0,0,0,130.63,111.55Z"/><path d="M112.45,141.85a1.66,1.66,0,0,0-1-1.23,1.77,1.77,0,0,0-1-.11l.3,1.63Z"/><path d="M108.54,124.27a1.59,1.59,0,0,0-1-.11l.59,3.27a1.66,1.66,0,0,0,1.34-1.93A1.65,1.65,0,0,0,108.54,124.27Z"/><path d="M136,103.83a1.62,1.62,0,0,0,.25.62,1.65,1.65,0,0,0,1.68.72l-.29-1.63Z"/><path d="M119.88,107.39a1.67,1.67,0,0,0,3-.54,1.82,1.82,0,0,0,0-.66l-3.27.59A1.56,1.56,0,0,0,119.88,107.39Z"/><path d="M104.92,109.44l.29,1.63a1.64,1.64,0,0,0,1.33-1.27,1.47,1.47,0,0,0,0-.66Z"/><path d="M149.13,167.32a1.66,1.66,0,0,0-1.23,1,1.64,1.64,0,0,0-.11,1l1.63-.29Z"/><path d="M134.26,170.75a1.67,1.67,0,0,0-2.83,1.45l3.28-.59A1.74,1.74,0,0,0,134.26,170.75Z"/><path d="M144.84,152.9a1.67,1.67,0,0,0,1.93,1.34l-.59-3.27A1.66,1.66,0,0,0,144.84,152.9Z"/><path d="M129.83,153.92a1.66,1.66,0,0,0,.59,3.27,1.66,1.66,0,1,0-.59-3.27Z"/><path d="M123.12,163.57a1.66,1.66,0,1,0,1.93,1.34A1.66,1.66,0,0,0,123.12,163.57Z"/><path d="M139.48,160.62a1.66,1.66,0,1,0,.59,3.27,1.66,1.66,0,1,0-.59-3.27Z"/><path d="M120.17,147.21a1.66,1.66,0,0,0,.59,3.27,1.66,1.66,0,1,0-.59-3.27Z"/><path d="M136.53,144.26a1.66,1.66,0,1,0,1.93,1.34A1.66,1.66,0,0,0,136.53,144.26Z"/><path d="M117.39,173.33a1.68,1.68,0,0,0-1-.11l.3,1.63,1.63-.29a1.61,1.61,0,0,0-.44-.86A1.71,1.71,0,0,0,117.39,173.33Z"/><path d="M114.44,157a1.68,1.68,0,0,0-1-.12l.59,3.28a1.62,1.62,0,0,0,.87-.45,1.67,1.67,0,0,0-.49-2.71Z"/><path d="M143.82,137.88l-.29-1.63-1.64.29A1.67,1.67,0,0,0,143.82,137.88Z"/><path d="M127.47,140.83a1.67,1.67,0,0,0,1.34-1.93l-3.27.59A1.66,1.66,0,0,0,127.47,140.83Z"/><path d="M110.82,142.14l.29,1.64a1.64,1.64,0,0,0,1.34-1.93Z"/><path d="M155,200a1.66,1.66,0,0,0-1.37,1.59,2,2,0,0,0,0,.34l1.63-.3Z"/><path d="M138.67,203a1.64,1.64,0,0,0-1.36,1.59,1.3,1.3,0,0,0,0,.34l3.27-.59a1.65,1.65,0,0,0-1.93-1.34Z"/><path d="M150.74,185.61a1.66,1.66,0,0,0,1.93,1.34l-.59-3.27A1.65,1.65,0,0,0,150.74,185.61Z"/><path d="M135.72,186.62a1.67,1.67,0,1,0,1.93,1.34A1.67,1.67,0,0,0,135.72,186.62Z"/><path d="M131,197.62a1.66,1.66,0,1,0-1.34,1.93A1.67,1.67,0,0,0,131,197.62Z"/><path d="M145.38,193.33a1.66,1.66,0,1,0,1.93,1.34A1.66,1.66,0,0,0,145.38,193.33Z"/><path d="M126.07,179.92a1.66,1.66,0,1,0,1.93,1.34A1.67,1.67,0,0,0,126.07,179.92Z"/><path d="M142.43,177a1.66,1.66,0,1,0,1.93,1.34A1.67,1.67,0,0,0,142.43,177Z"/><path d="M124.25,207.27a2,2,0,0,0-.09-.33,1.69,1.69,0,0,0-.88-.9,1.64,1.64,0,0,0-1-.11l.29,1.63Z"/><path d="M120.33,189.69a1.64,1.64,0,0,0-1-.12l.59,3.28a1.74,1.74,0,0,0,.86-.45,1.65,1.65,0,0,0-.49-2.71Z"/><path d="M149.72,170.59l-.3-1.63-1.63.29a1.56,1.56,0,0,0,.24.61A1.66,1.66,0,0,0,149.72,170.59Z"/><path d="M131.43,172.2a1.74,1.74,0,0,0,.25.61,1.66,1.66,0,0,0,3-.54,1.62,1.62,0,0,0,0-.66Z"/><path d="M117,176.49a1.56,1.56,0,0,0,.86-.45,1.66,1.66,0,0,0,.47-.82,1.83,1.83,0,0,0,0-.66l-1.63.29Z"/><path d="M160.93,232.74a1.65,1.65,0,0,0-1.23,1,1.68,1.68,0,0,0-.12,1l1.64-.3Z"/><path d="M144.57,235.69a1.66,1.66,0,0,0-1.22,1,1.68,1.68,0,0,0-.12,1l3.27-.59a1.64,1.64,0,0,0-1.93-1.34Z"/><path d="M156.64,218.31a1.66,1.66,0,0,0,1.93,1.35l-.59-3.28A1.66,1.66,0,0,0,156.64,218.31Z"/><path d="M142.21,222.61a1.67,1.67,0,1,0-1.93-1.35A1.67,1.67,0,0,0,142.21,222.61Z"/><path d="M136.85,230.33a1.66,1.66,0,1,0-1.34,1.93A1.67,1.67,0,0,0,136.85,230.33Z"/><path d="M153.2,227.38a1.66,1.66,0,1,0-3.27.59,1.66,1.66,0,1,0,3.27-.59Z"/><path d="M132,212.63A1.66,1.66,0,1,0,133.9,214,1.67,1.67,0,0,0,132,212.63Z"/><path d="M148.32,209.68a1.66,1.66,0,1,0,1.94,1.34A1.67,1.67,0,0,0,148.32,209.68Z"/><path d="M125.31,222.51l.7-.19a1.82,1.82,0,0,0-.74,0Z"/><path d="M155.62,203.3l-.3-1.64-1.63.3A1.66,1.66,0,0,0,155.62,203.3Z"/><path d="M139.26,206.25a1.65,1.65,0,0,0,1.34-1.93l-3.27.59A1.67,1.67,0,0,0,139.26,206.25Z"/><path d="M122.91,209.2a1.6,1.6,0,0,0,.86-.45,1.66,1.66,0,0,0,.48-1.48l-1.64.29Z"/><path d="M161.22,234.37l-1.64.3a2,2,0,0,0,.15.43c.5-.22,1-.46,1.5-.7Z"/><path d="M143.47,238.23a1.69,1.69,0,0,0,.2.25,22.19,22.19,0,0,0,2.3.08,1.66,1.66,0,0,0,.52-.87,1.63,1.63,0,0,0,0-.66l-3.27.59A1.81,1.81,0,0,0,143.47,238.23Z"/><path d="M99,76.73l-.29-1.64a1.78,1.78,0,0,0-.62.24,1.67,1.67,0,0,0-.75,1.36,1.84,1.84,0,0,0,0,.33Z"/><path d="M84.21,79.06a1.67,1.67,0,0,0-1.84-1,1.64,1.64,0,0,0-.48.18,9.19,9.19,0,0,0,.16,1.57l2.25-.41A1.68,1.68,0,0,0,84.21,79.06Z"/><path d="M91,69.73a1.67,1.67,0,1,0-1.35,1.93A1.66,1.66,0,0,0,91,69.73Z"/><path d="M104.62,107.8a1.81,1.81,0,0,0-.61.24,1.67,1.67,0,0,0-.61.73,1.64,1.64,0,0,0-.12,1l1.64-.29Z"/><path d="M90.2,112.09a1.66,1.66,0,0,0-1.93-1.34,1.68,1.68,0,0,0-1.23,1,1.72,1.72,0,0,0-.11,1Z"/><path d="M101.61,94.7a1.62,1.62,0,0,0,.66,0l-.59-3.27a1.61,1.61,0,0,0-.62.24,1.66,1.66,0,0,0,.55,3Z"/><path d="M84,96.32a1.66,1.66,0,1,0,1.34-1.92A1.67,1.67,0,0,0,84,96.32Z"/><path d="M79.21,107.32a1.67,1.67,0,0,0,1.34-1.93,1.66,1.66,0,1,0-1.34,1.93Z"/><path d="M95.56,104.37A1.66,1.66,0,1,0,93.63,103,1.65,1.65,0,0,0,95.56,104.37Z"/><path d="M76.26,91a1.66,1.66,0,1,0-1.93-1.34A1.66,1.66,0,0,0,76.26,91Z"/><path d="M92.61,88A1.66,1.66,0,0,0,92,84.74,1.66,1.66,0,0,0,92.61,88Z"/><path d="M73.85,115a1.56,1.56,0,0,0-.45-.86,1.64,1.64,0,0,0-1.48-.48l.29,1.63Z"/><path d="M70.9,98.68A1.67,1.67,0,0,0,69,97.34l.59,3.28A1.68,1.68,0,0,0,70.9,98.68Z"/><path d="M97.39,77a1.65,1.65,0,0,0,1.27,1.33,1.82,1.82,0,0,0,.66,0L99,76.73Z"/><path d="M82.53,81.32a1.25,1.25,0,0,0,.43,0,1.66,1.66,0,0,0,1.34-1.93l-2.25.41A8.23,8.23,0,0,0,82.53,81.32Z"/><path d="M66.57,84.05l0,.21a1.64,1.64,0,0,0,1.11-.77C67.34,83.67,67,83.85,66.57,84.05Z"/><path d="M110.52,140.51a1.81,1.81,0,0,0-.61.24,1.67,1.67,0,0,0-.75,1.35,1.3,1.3,0,0,0,0,.34l1.64-.3Z"/><path d="M94.17,143.46a1.66,1.66,0,0,0-1.37,1.59,2,2,0,0,0,0,.34l3.27-.59a1.65,1.65,0,0,0-1.93-1.34Z"/><path d="M107,124.4a1.66,1.66,0,0,0,.54,3,1.63,1.63,0,0,0,.66,0l-.59-3.27A1.62,1.62,0,0,0,107,124.4Z"/><path d="M91.81,130.38A1.67,1.67,0,1,0,89.88,129,1.68,1.68,0,0,0,91.81,130.38Z"/><path d="M85.11,140a1.66,1.66,0,1,0-.59-3.27,1.66,1.66,0,0,0,.59,3.27Z"/><path d="M101.46,137.08a1.66,1.66,0,1,0-1.93-1.34A1.67,1.67,0,0,0,101.46,137.08Z"/><path d="M82.16,123.67a1.66,1.66,0,1,0-1.93-1.34A1.66,1.66,0,0,0,82.16,123.67Z"/><path d="M98.51,120.72a1.66,1.66,0,1,0-1.93-1.34A1.65,1.65,0,0,0,98.51,120.72Z"/><path d="M77.81,146.41l.3,1.63,1.63-.29a2,2,0,0,0-.09-.33A1.67,1.67,0,0,0,77.81,146.41Z"/><path d="M76.8,131.39a1.67,1.67,0,0,0-1.93-1.34l.59,3.28A1.68,1.68,0,0,0,76.8,131.39Z"/><path d="M103.28,109.73a1.57,1.57,0,0,0,.25.61,1.67,1.67,0,0,0,1,.72,1.83,1.83,0,0,0,.66,0l-.29-1.63Z"/><path d="M87.17,113.29a1.67,1.67,0,0,0,3-.54,1.82,1.82,0,0,0,0-.66l-3.27.59A1.73,1.73,0,0,0,87.17,113.29Z"/><path d="M72.51,117a1.66,1.66,0,0,0,1.32-1.27,1.63,1.63,0,0,0,0-.66l-1.64.29Z"/><path d="M116.42,173.22a1.62,1.62,0,0,0-.61.24,1.73,1.73,0,0,0-.62.72,1.77,1.77,0,0,0-.11,1l1.64-.3Z"/><path d="M101.55,176.64a1.67,1.67,0,0,0-2.71.49,1.68,1.68,0,0,0-.11,1l3.27-.59A1.62,1.62,0,0,0,101.55,176.64Z"/><path d="M112.86,157.11a1.66,1.66,0,0,0,.54,3,1.63,1.63,0,0,0,.66,0l-.59-3.28A1.83,1.83,0,0,0,112.86,157.11Z"/><path d="M97.12,159.81a1.67,1.67,0,0,0,.59,3.28,1.67,1.67,0,0,0-.59-3.28Z"/><path d="M90.41,169.46a1.67,1.67,0,1,0,1.94,1.35A1.66,1.66,0,0,0,90.41,169.46Z"/><path d="M106.77,166.52a1.66,1.66,0,1,0,1.93,1.34A1.66,1.66,0,0,0,106.77,166.52Z"/><path d="M87.47,153.11a1.66,1.66,0,1,0,1.93,1.34A1.67,1.67,0,0,0,87.47,153.11Z"/><path d="M103.82,150.16a1.66,1.66,0,1,0,1.93,1.34A1.67,1.67,0,0,0,103.82,150.16Z"/><path d="M85.64,180.46a1.64,1.64,0,0,0-1.93-1.34l.3,1.63Z"/><path d="M80.76,162.76l.59,3.27a1.66,1.66,0,1,0-.59-3.27Z"/><path d="M109.18,142.44a1.67,1.67,0,0,0,1.27,1.33,1.83,1.83,0,0,0,.66,0l-.29-1.64Z"/><path d="M94.76,146.73a1.67,1.67,0,0,0,1.34-1.93l-3.27.59A1.66,1.66,0,0,0,94.76,146.73Z"/><path d="M78.4,149.68a1.66,1.66,0,0,0,1.34-1.93l-1.63.29Z"/><path d="M122.32,205.93a1.56,1.56,0,0,0-.61.24,1.68,1.68,0,0,0-.76,1.35,2,2,0,0,0,0,.34l1.63-.3Z"/><path d="M106,208.88a1.65,1.65,0,0,0-1.36,1.59,2,2,0,0,0,0,.34l3.28-.59a1.8,1.8,0,0,0-.1-.33A1.66,1.66,0,0,0,106,208.88Z"/><path d="M118.76,189.82a1.66,1.66,0,0,0,.54,3,1.62,1.62,0,0,0,.66,0l-.59-3.28A1.57,1.57,0,0,0,118.76,189.82Z"/><path d="M103,192.52a1.66,1.66,0,1,0,1.93,1.34A1.66,1.66,0,0,0,103,192.52Z"/><path d="M96.31,202.17a1.67,1.67,0,0,0,.59,3.28,1.67,1.67,0,0,0-.59-3.28Z"/><path d="M112.67,199.22a1.67,1.67,0,1,0,1.93,1.35A1.66,1.66,0,0,0,112.67,199.22Z"/><path d="M93.36,185.82a1.66,1.66,0,1,0,1.93,1.34A1.67,1.67,0,0,0,93.36,185.82Z"/><path d="M109.72,182.87a1.66,1.66,0,1,0,1.93,1.34A1.65,1.65,0,0,0,109.72,182.87Z"/><path d="M89.61,211.83l.3,1.63,1.63-.29a1.78,1.78,0,0,0-.09-.33A1.66,1.66,0,0,0,89.61,211.83Z"/><path d="M86.66,195.47l.59,3.27a1.66,1.66,0,1,0-.59-3.27Z"/><path d="M115.08,175.15a1.81,1.81,0,0,0,.24.61,1.67,1.67,0,0,0,1,.71,1.62,1.62,0,0,0,.66,0l-.29-1.64Z"/><path d="M98.73,178.1a1.62,1.62,0,0,0,.24.61,1.66,1.66,0,0,0,3-.54,1.63,1.63,0,0,0,0-.66Z"/><path d="M84,180.75l.29,1.64a1.67,1.67,0,0,0,1.33-1.27,1.63,1.63,0,0,0,0-.66Z"/><path d="M124.65,222.53a1.37,1.37,0,0,0-.23.19l.89-.21,0-.23A1.69,1.69,0,0,0,124.65,222.53Z"/><path d="M98.21,219.19c.71-.14,1.42-.31,2.13-.49a1.65,1.65,0,0,0-1.08-.17A1.67,1.67,0,0,0,98.21,219.19Z"/><path d="M114.28,217.51a1.66,1.66,0,1,0,1.34-1.93A1.66,1.66,0,0,0,114.28,217.51Z"/><path d="M122.61,207.56l-1.63.3a1.66,1.66,0,0,0,1.27,1.32,1.62,1.62,0,0,0,.66,0Z"/><path d="M106.55,212.15a1.67,1.67,0,0,0,1.35-1.93l-3.28.59A1.67,1.67,0,0,0,106.55,212.15Z"/><path d="M90.2,215.1a1.67,1.67,0,0,0,1.34-1.93l-1.63.29Z"/><path d="M72.21,115.33l-.29-1.63a1.67,1.67,0,0,0-1.23,1,1.6,1.6,0,0,0-.11,1Z"/><path d="M57.49,118a1.64,1.64,0,0,0-1.93-1.34,1.66,1.66,0,0,0-1.22,1,1.68,1.68,0,0,0-.12,1Z"/><path d="M67.63,99.27a1.66,1.66,0,0,0,1.93,1.35L69,97.34A1.66,1.66,0,0,0,67.63,99.27Z"/><path d="M47.74,112.21a15.5,15.5,0,0,0-1.39,1h.15A1.67,1.67,0,0,0,47.74,112.21Z"/><path d="M64.2,108.34a1.67,1.67,0,1,0-1.35,1.93A1.68,1.68,0,0,0,64.2,108.34Z"/><path d="M59.91,93.91a1.66,1.66,0,0,0-.52-3.28A19,19,0,0,0,58.11,93,1.65,1.65,0,0,0,59.91,93.91Z"/><path d="M40.69,120.07h0c-.21.35-.42.7-.62,1.06l1.07-.19A1.62,1.62,0,0,0,40.69,120.07Z"/><path d="M66.18,84.27a1.56,1.56,0,0,0,.43,0l0-.21Z"/><path d="M77.81,146.41A1.65,1.65,0,0,0,76.45,148a2,2,0,0,0,0,.34l1.64-.3Z"/><path d="M61.46,149.36A1.66,1.66,0,0,0,60.09,151a2,2,0,0,0,0,.34l3.27-.59a1.78,1.78,0,0,0-.09-.33A1.66,1.66,0,0,0,61.46,149.36Z"/><path d="M75.46,133.33l-.59-3.28a1.67,1.67,0,1,0,.59,3.28Z"/><path d="M59.1,136.27a1.66,1.66,0,1,0-1.93-1.34A1.67,1.67,0,0,0,59.1,136.27Z"/><path d="M52.4,145.93a1.67,1.67,0,1,0-1.93-1.34A1.67,1.67,0,0,0,52.4,145.93Z"/><path d="M68.75,143a1.67,1.67,0,0,0-.59-3.28,1.67,1.67,0,0,0,.59,3.28Z"/><path d="M49.45,129.57a1.66,1.66,0,1,0-1.93-1.34A1.67,1.67,0,0,0,49.45,129.57Z"/><path d="M65.8,126.62a1.66,1.66,0,1,0-1.93-1.34A1.67,1.67,0,0,0,65.8,126.62Z"/><path d="M45.44,152.28a1.84,1.84,0,0,0-.33,0l.29,1.63,1.64-.29a1.59,1.59,0,0,0-.1-.33A1.67,1.67,0,0,0,45.44,152.28Z"/><path d="M43.07,139.13a1.67,1.67,0,0,0,1-1.84,1.65,1.65,0,0,0-1.6-1.36,1.22,1.22,0,0,0-.33,0l.59,3.27A1.68,1.68,0,0,0,43.07,139.13Z"/><path d="M70.58,115.63a1.62,1.62,0,0,0,.24.61,1.67,1.67,0,0,0,1.69.73l-.3-1.64Z"/><path d="M54.47,119.19a1.66,1.66,0,0,0,3-.54,1.63,1.63,0,0,0,0-.66l-3.27.59A1.64,1.64,0,0,0,54.47,119.19Z"/><path d="M40.12,122.77a1.67,1.67,0,0,0,1-1.83l-1.07.19c-.15.27-.29.55-.44.83l.17.91A1.7,1.7,0,0,0,40.12,122.77Z"/><path d="M83.71,179.12a1.63,1.63,0,0,0-1.22,1,1.68,1.68,0,0,0-.12,1l1.64-.3Z"/><path d="M68.85,182.54A1.66,1.66,0,0,0,66,184l3.27-.59A1.68,1.68,0,0,0,68.85,182.54Z"/><path d="M79.42,164.69A1.66,1.66,0,0,0,81.35,166l-.59-3.27A1.67,1.67,0,0,0,79.42,164.69Z"/><path d="M64.41,165.71a1.66,1.66,0,1,0,1.93,1.34A1.67,1.67,0,0,0,64.41,165.71Z"/><path d="M59.64,176.7a1.66,1.66,0,1,0-3.27.59,1.66,1.66,0,1,0,3.27-.59Z"/><path d="M74.06,172.41A1.67,1.67,0,1,0,76,173.76,1.68,1.68,0,0,0,74.06,172.41Z"/><path d="M55.35,162.28a1.66,1.66,0,1,0-.59-3.27,1.66,1.66,0,0,0,.59,3.27Z"/><path d="M71.11,156.06A1.66,1.66,0,1,0,73,157.4,1.67,1.67,0,0,0,71.11,156.06Z"/><path d="M76.47,148.34a1.67,1.67,0,0,0,1.93,1.34L78.11,148Z"/><path d="M62.05,152.63a1.67,1.67,0,0,0,1.34-1.93l-3.27.59A1.67,1.67,0,0,0,62.05,152.63Z"/><path d="M45.6,155.06l.51.37a1.66,1.66,0,0,0,.93-1.78l-1.64.29Z"/><path d="M89.61,211.83a1.66,1.66,0,0,0-1.37,1.59,2,2,0,0,0,0,.34l1.64-.3Z"/><path d="M75.09,215.79a1.63,1.63,0,0,0-1.83-1,1.55,1.55,0,0,0-.68.29,19.32,19.32,0,0,0,1.75,1.2l.86-.15A1.15,1.15,0,0,0,75.09,215.79Z"/><path d="M85.32,197.4a1.66,1.66,0,0,0,1.93,1.34l-.59-3.27A1.67,1.67,0,0,0,85.32,197.4Z"/><path d="M70.31,198.42a1.66,1.66,0,1,0,1.93,1.34A1.65,1.65,0,0,0,70.31,198.42Z"/><path d="M80,205.12a1.67,1.67,0,0,0-1.34,1.93A1.66,1.66,0,1,0,80,205.12Z"/><path d="M77,188.77a1.66,1.66,0,1,0,1.93,1.34A1.66,1.66,0,0,0,77,188.77Z"/><path d="M82.37,181.05a1.68,1.68,0,0,0,1.93,1.34L84,180.75Z"/><path d="M66,184a1.62,1.62,0,0,0,.24.61,1.67,1.67,0,0,0,3-.54,1.83,1.83,0,0,0,0-.66Z"/><path d="M88.27,213.76a1.67,1.67,0,0,0,1.93,1.34l-.29-1.64Z"/><path d="M74.33,216.27l.84.5a1.58,1.58,0,0,0,0-.65Z"/><path d="M45.11,152.31a1.61,1.61,0,0,0-.62.24,1.7,1.7,0,0,0-.68.94c.22.21.43.42.66.62l.93-.17Z"/><path d="M40.82,137.88a1.66,1.66,0,0,0,1.27,1.33,1.62,1.62,0,0,0,.66,0L42.16,136a1.78,1.78,0,0,0-.62.24A1.66,1.66,0,0,0,40.82,137.88Z"/><path d="M39.63,122l-.45.9a1.84,1.84,0,0,0,.62,0Z"/><path d="M44.47,154.11c.37.33.75.65,1.13.95l-.2-1.12Z"/><path d="M0,138.19c30.82-3.09,61.64-4.79,92.47-6.07s61.66-1.9,92.49-2.1,61.67.08,92.51.91,61.68,2.19,92.54,4.92c-30.82,3.11-61.64,4.81-92.47,6.09s-61.66,1.89-92.49,2.08-61.67-.1-92.51-.93S30.85,140.89,0,138.19Z" fill="#8fffff"/><path d="M58.54,38.15c10.67,6.91,21,14.22,31.28,21.62s20.38,15,30.42,22.67q30.08,23.07,59.15,47.34t57.23,49.66q14,12.74,27.77,25.83c9.12,8.78,18.17,17.64,26.88,26.9-10.67-6.91-21-14.22-31.29-21.61s-20.38-15-30.41-22.67q-30.07-23.07-59.14-47.36T113.21,90.87Q99.19,78.12,85.44,65C76.32,56.26,67.27,47.4,58.54,38.15Z" fill="#8fffff"/><path d="M271.92,18.79c-6.92,10.67-14.23,21-21.62,31.28s-15,20.38-22.67,30.42q-23.07,30.08-47.35,59.15t-49.65,57.23q-12.73,14-25.84,27.77C96,233.76,87.15,242.81,77.9,251.52c6.91-10.67,14.21-21,21.61-31.29s15-20.38,22.66-30.41q23.08-30.07,47.36-59.14T219.2,73.46c8.5-9.35,17.08-18.63,25.84-27.77S262.67,27.52,271.92,18.79Z" fill="#8fffff"/><polygon points="78.36 132.53 72.51 72.13 119.82 97.27 147.6 51.75 179.37 78.05 215.1 30.29 240.04 79.2 283.37 50.23 278.32 101.52 329.56 117.47 292 149.43 303.02 193.79 252.99 173.35 229.8 229.16 189.55 184.79 139.63 265.58 124.17 196.58 78.92 236.22 89.82 184.88 28.75 153.57 78.36 132.53" fill="#bb4c46"/><g opacity="0.5"><path d="M326.07,118.53a1.66,1.66,0,0,0-1.34,1.93,1.73,1.73,0,0,0,.39.79l2.52-2.15A1.66,1.66,0,0,0,326.07,118.53Z" fill="#f7ec41"/><path d="M317,115.1a1.66,1.66,0,0,0,1.28-1.14l-3.16-1a1.74,1.74,0,0,0-.05.79A1.67,1.67,0,0,0,317,115.1Z" fill="#f7ec41"/><path d="M310.68,121.59a1.64,1.64,0,0,0-1-.11l.59,3.27a1.6,1.6,0,0,0,.86-.45,1.64,1.64,0,0,0,.48-1.48A1.66,1.66,0,0,0,310.68,121.59Z" fill="#f7ec41"/><path d="M281.57,59a1.66,1.66,0,0,0,.59,3.27h0l.31-3.16A1.63,1.63,0,0,0,281.57,59Z" fill="#f7ec41"/><path d="M276.8,70a1.66,1.66,0,0,0-1.93-1.34,1.66,1.66,0,0,0,.59,3.27A1.67,1.67,0,0,0,276.8,70Z" fill="#f7ec41"/><path d="M270.09,79.65a1.67,1.67,0,0,0-1.59-1.37,1.84,1.84,0,0,0-.33,0l.29,1.64Z" fill="#f7ec41"/><path d="M266.13,65.14a1.66,1.66,0,0,0-.31-3.18l-.54.36.53,2.91A1.68,1.68,0,0,0,266.13,65.14Z" fill="#f7ec41"/><path d="M290.42,108.07a1.66,1.66,0,0,0-1.37,1.6,1.84,1.84,0,0,0,0,.33l3.27-.59a1.19,1.19,0,0,0-.1-.32A1.65,1.65,0,0,0,290.42,108.07Z" fill="#f7ec41"/><path d="M279.43,103.3a1.66,1.66,0,0,0,3.28-.42l-2.94-.91A1.64,1.64,0,0,0,279.43,103.3Z" fill="#f7ec41"/><path d="M279.75,86.35a1.66,1.66,0,1,0-3.27.59,1.66,1.66,0,1,0,3.27-.59Z" fill="#f7ec41"/><path d="M276,112.36A1.66,1.66,0,0,0,274.4,111l-.34,0,.3,1.63Z" fill="#f7ec41"/><path d="M272,97.84A1.64,1.64,0,0,0,273,96a1.66,1.66,0,0,0-1.59-1.37,1.34,1.34,0,0,0-.34,0l.59,3.27A1.15,1.15,0,0,0,272,97.84Z" fill="#f7ec41"/><path d="M268.75,81.58a1.59,1.59,0,0,0,.33-.09,1.68,1.68,0,0,0,1-1.18,1.47,1.47,0,0,0,0-.66l-1.63.3Z" fill="#f7ec41"/><path d="M297.8,141.26a1.67,1.67,0,0,0-2.83,1.45l3.28-.59A1.74,1.74,0,0,0,297.8,141.26Z" fill="#f7ec41"/><path d="M308.38,123.41a1.67,1.67,0,0,0,1.93,1.34l-.59-3.27A1.66,1.66,0,0,0,308.38,123.41Z" fill="#f7ec41"/><path d="M294,127.7a1.66,1.66,0,1,0-.59-3.27,1.66,1.66,0,0,0,.59,3.27Z" fill="#f7ec41"/><path d="M286.66,134.08a1.66,1.66,0,1,0,1.93,1.34A1.66,1.66,0,0,0,286.66,134.08Z" fill="#f7ec41"/><path d="M303.61,134.4a1.66,1.66,0,1,0-.59-3.27,1.66,1.66,0,0,0,.59,3.27Z" fill="#f7ec41"/><path d="M283.71,117.72a1.66,1.66,0,0,0,.59,3.27,1.66,1.66,0,1,0-.59-3.27Z" fill="#f7ec41"/><path d="M298.73,116.7a1.66,1.66,0,1,0,3.27-.59,1.66,1.66,0,0,0-3.27.59Z" fill="#f7ec41"/><path d="M281.89,145.07a1.61,1.61,0,0,0-.44-.86,1.66,1.66,0,0,0-1.15-.51,2,2,0,0,0-.34,0l.3,1.63Z" fill="#f7ec41"/><path d="M277.35,127.35a2,2,0,0,0-.34,0l.59,3.28a1.8,1.8,0,0,0,.33-.1,1.66,1.66,0,0,0-.58-3.2Z" fill="#f7ec41"/><path d="M291,111.34a1.67,1.67,0,0,0,1.34-1.93l-3.27.59A1.66,1.66,0,0,0,291,111.34Z" fill="#f7ec41"/><path d="M274.65,114.29a1.78,1.78,0,0,0,.33-.09,1.66,1.66,0,0,0,1-1.84l-1.63.29Z" fill="#f7ec41"/><path d="M292.56,166.79a1.66,1.66,0,1,0,1.93,1.34A1.66,1.66,0,0,0,292.56,166.79Z" fill="#f7ec41"/><path d="M289.61,150.43a1.66,1.66,0,1,0,1.93,1.34A1.67,1.67,0,0,0,289.61,150.43Z" fill="#f7ec41"/><path d="M287.79,177.78a2,2,0,0,0-.09-.33,1.68,1.68,0,0,0-1.5-1,1.87,1.87,0,0,0-.34,0l.29,1.63Z" fill="#f7ec41"/><path d="M283.25,160.06a1.3,1.3,0,0,0-.34,0l.59,3.28a1.7,1.7,0,0,0,.32-.1,1.66,1.66,0,0,0-.57-3.2Z" fill="#f7ec41"/><path d="M295,142.71a1.74,1.74,0,0,0,.25.61,1.66,1.66,0,0,0,3-.54,1.62,1.62,0,0,0,0-.66Z" fill="#f7ec41"/><path d="M280.26,145.36l.29,1.64a1.66,1.66,0,0,0,1.33-1.27,1.83,1.83,0,0,0,0-.66Z" fill="#f7ec41"/><path d="M294.17,185.07a1.66,1.66,0,1,0,1.34-1.93A1.67,1.67,0,0,0,294.17,185.07Z" fill="#f7ec41"/><path d="M286.45,179.71a1.65,1.65,0,0,0,1.34-1.93l-1.64.29Z" fill="#f7ec41"/><path d="M268.46,80l-.29-1.64a1.78,1.78,0,0,0-.62.24,1.67,1.67,0,0,0-.61.73,1.64,1.64,0,0,0-.12,1Z" fill="#f7ec41"/><path d="M253.74,82.6a1.66,1.66,0,0,0-1.93-1.34,1.69,1.69,0,0,0-1.23,1,1.77,1.77,0,0,0-.11,1Z" fill="#f7ec41"/><path d="M265.15,65.21a1.62,1.62,0,0,0,.66,0l-.53-2.91-1.39.93a1.72,1.72,0,0,0,0,.64A1.67,1.67,0,0,0,265.15,65.21Z" fill="#f7ec41"/><path d="M244.08,76.49l-2,1.33a1.71,1.71,0,0,0,.64,0A1.66,1.66,0,0,0,244.08,76.49Z" fill="#f7ec41"/><path d="M260.44,73a1.66,1.66,0,0,0-3.27.59,1.67,1.67,0,0,0,1.93,1.34A1.65,1.65,0,0,0,260.44,73Z" fill="#f7ec41"/><path d="M237.39,85.55a1.56,1.56,0,0,0-.45-.86,1.59,1.59,0,0,0-.52-.37,1.64,1.64,0,0,0-1-.11l.29,1.63Z" fill="#f7ec41"/><path d="M233.1,71.13a1.74,1.74,0,0,0,.86-.45,1.67,1.67,0,0,0,.48-1.49,1.68,1.68,0,0,0-1.93-1.34Z" fill="#f7ec41"/><path d="M274.36,112.65l-.3-1.63a1.81,1.81,0,0,0-.61.24,1.67,1.67,0,0,0-.75,1.35,1.3,1.3,0,0,0,0,.34Z" fill="#f7ec41"/><path d="M259.64,115.31a1.65,1.65,0,0,0-1.93-1.34,1.66,1.66,0,0,0-1.37,1.59,2,2,0,0,0,0,.34Z" fill="#f7ec41"/><path d="M271,97.92a1.63,1.63,0,0,0,.66,0l-.59-3.27a1.62,1.62,0,0,0-.61.24,1.66,1.66,0,0,0,.54,3Z" fill="#f7ec41"/><path d="M255.35,100.89a1.67,1.67,0,1,0-1.93-1.35A1.68,1.68,0,0,0,255.35,100.89Z" fill="#f7ec41"/><path d="M248.65,110.54a1.66,1.66,0,1,0-.59-3.27,1.66,1.66,0,0,0,.59,3.27Z" fill="#f7ec41"/><path d="M265,107.59a1.66,1.66,0,1,0-1.93-1.34A1.66,1.66,0,0,0,265,107.59Z" fill="#f7ec41"/><path d="M245.7,94.18a1.66,1.66,0,1,0-1.93-1.34A1.66,1.66,0,0,0,245.7,94.18Z" fill="#f7ec41"/><path d="M262.05,91.23a1.66,1.66,0,1,0-1.93-1.34A1.65,1.65,0,0,0,262.05,91.23Z" fill="#f7ec41"/><path d="M243.28,118.26a1.78,1.78,0,0,0-.09-.33,1.65,1.65,0,0,0-1.83-1l.29,1.63Z" fill="#f7ec41"/><path d="M239.86,103.39a1.65,1.65,0,0,0-.49-2.71,1.65,1.65,0,0,0-1-.12l.59,3.28A1.79,1.79,0,0,0,239.86,103.39Z" fill="#f7ec41"/><path d="M266.82,80.24a1.57,1.57,0,0,0,.25.61,1.67,1.67,0,0,0,1,.72,1.83,1.83,0,0,0,.66,0L268.46,80Z" fill="#f7ec41"/><path d="M250.71,83.8a1.67,1.67,0,0,0,3-.54,1.82,1.82,0,0,0,0-.66l-3.27.59A1.73,1.73,0,0,0,250.71,83.8Z" fill="#f7ec41"/><path d="M236.05,87.48a1.6,1.6,0,0,0,.86-.45,1.68,1.68,0,0,0,.48-1.48l-1.64.29Z" fill="#f7ec41"/><path d="M280,143.73a1.62,1.62,0,0,0-.61.24,1.73,1.73,0,0,0-.62.72,1.77,1.77,0,0,0-.11,1l1.64-.3Z" fill="#f7ec41"/><path d="M265.09,147.15a1.67,1.67,0,0,0-2.71.49,1.68,1.68,0,0,0-.11,1l3.27-.59A1.62,1.62,0,0,0,265.09,147.15Z" fill="#f7ec41"/><path d="M276.4,127.62a1.66,1.66,0,0,0,.54,3,1.63,1.63,0,0,0,.66,0l-.59-3.28A1.83,1.83,0,0,0,276.4,127.62Z" fill="#f7ec41"/><path d="M260.66,130.32a1.67,1.67,0,0,0,.59,3.28,1.67,1.67,0,0,0-.59-3.28Z" fill="#f7ec41"/><path d="M254,140a1.67,1.67,0,1,0,1.94,1.35A1.66,1.66,0,0,0,254,140Z" fill="#f7ec41"/><path d="M270.31,137a1.66,1.66,0,1,0,1.93,1.34A1.66,1.66,0,0,0,270.31,137Z" fill="#f7ec41"/><path d="M251,123.62a1.66,1.66,0,1,0,1.93,1.34A1.67,1.67,0,0,0,251,123.62Z" fill="#f7ec41"/><path d="M267.36,120.67a1.66,1.66,0,1,0,1.93,1.34A1.67,1.67,0,0,0,267.36,120.67Z" fill="#f7ec41"/><path d="M249.18,151a1.68,1.68,0,0,0-.44-.87,1.86,1.86,0,0,0-.52-.36,1.67,1.67,0,0,0-1-.11l.3,1.63Z" fill="#f7ec41"/><path d="M245.27,133.39a1.67,1.67,0,0,0-1-.12l.59,3.27a1.68,1.68,0,0,0,.87-.44,1.67,1.67,0,0,0-.49-2.71Z" fill="#f7ec41"/><path d="M272.72,113a1.67,1.67,0,0,0,1.27,1.33,1.83,1.83,0,0,0,.66,0l-.29-1.64Z" fill="#f7ec41"/><path d="M258.3,117.24a1.67,1.67,0,0,0,1.34-1.93l-3.27.59A1.66,1.66,0,0,0,258.3,117.24Z" fill="#f7ec41"/><path d="M241.94,120.19a1.66,1.66,0,0,0,1.34-1.93l-1.63.29Z" fill="#f7ec41"/><path d="M285.86,176.44a1.56,1.56,0,0,0-.61.24,1.68,1.68,0,0,0-.76,1.35,2,2,0,0,0,0,.34l1.63-.3Z" fill="#f7ec41"/><path d="M271.34,180.4a1.64,1.64,0,0,0-1.83-1,1.55,1.55,0,0,0-.8.39l2.45,1,.28-.05A1.8,1.8,0,0,0,271.34,180.4Z" fill="#f7ec41"/><path d="M282.3,160.33a1.66,1.66,0,0,0,.54,3,1.62,1.62,0,0,0,.66,0l-.59-3.28A1.57,1.57,0,0,0,282.3,160.33Z" fill="#f7ec41"/><path d="M266.56,163a1.66,1.66,0,1,0,1.93,1.34A1.66,1.66,0,0,0,266.56,163Z" fill="#f7ec41"/><path d="M259.85,172.68a1.67,1.67,0,0,0,.59,3.28,1.67,1.67,0,0,0-.59-3.28Z" fill="#f7ec41"/><path d="M276.21,169.73a1.67,1.67,0,1,0,1.93,1.35A1.66,1.66,0,0,0,276.21,169.73Z" fill="#f7ec41"/><path d="M256.9,156.33a1.66,1.66,0,1,0,1.94,1.34A1.67,1.67,0,0,0,256.9,156.33Z" fill="#f7ec41"/><path d="M273.26,153.38a1.66,1.66,0,1,0,1.93,1.34A1.65,1.65,0,0,0,273.26,153.38Z" fill="#f7ec41"/><path d="M251.66,168.81A1.67,1.67,0,0,0,250.2,166l.59,3.27A1.68,1.68,0,0,0,251.66,168.81Z" fill="#f7ec41"/><path d="M278.62,145.66a1.81,1.81,0,0,0,.24.61,1.67,1.67,0,0,0,1,.71,1.63,1.63,0,0,0,.66,0l-.29-1.64Z" fill="#f7ec41"/><path d="M262.27,148.61a1.62,1.62,0,0,0,.24.61,1.66,1.66,0,0,0,3-.54,1.63,1.63,0,0,0,0-.66Z" fill="#f7ec41"/><path d="M247.84,152.9a1.65,1.65,0,0,0,1.34-1.93l-1.63.29Z" fill="#f7ec41"/><path d="M286.15,178.07l-1.63.3a1.65,1.65,0,0,0,1.27,1.32,1.62,1.62,0,0,0,.66,0Z" fill="#f7ec41"/><path d="M271.16,180.78l.29.11s0-.11,0-.16Z" fill="#f7ec41"/><path d="M215.13,55.79a1.68,1.68,0,0,0-.09-.32,1.66,1.66,0,0,0-3.2.57,1.94,1.94,0,0,0,0,.34Z" fill="#f7ec41"/><path d="M210.26,38.09a1.67,1.67,0,0,0,.59,3.28,1.67,1.67,0,0,0-.59-3.28Z" fill="#f7ec41"/><path d="M205.48,49.09A1.66,1.66,0,1,0,204.14,51,1.67,1.67,0,0,0,205.48,49.09Z" fill="#f7ec41"/><path d="M220.5,48.07a1.66,1.66,0,1,0-.59-3.27,1.66,1.66,0,0,0,.59,3.27Z" fill="#f7ec41"/><path d="M198.78,58.74a1.78,1.78,0,0,0-.09-.33,1.68,1.68,0,0,0-1.5-1,2,2,0,0,0-.34,0l.3,1.63Z" fill="#f7ec41"/><path d="M235.46,84.21a1.67,1.67,0,0,0-1.23,1,1.6,1.6,0,0,0-.11,1l1.63-.3Z" fill="#f7ec41"/><path d="M221,88.5a1.64,1.64,0,0,0-1.93-1.34,1.66,1.66,0,0,0-1.22,1,1.68,1.68,0,0,0-.12,1Z" fill="#f7ec41"/><path d="M231.17,69.78a1.66,1.66,0,0,0,1.93,1.35l-.59-3.28A1.66,1.66,0,0,0,231.17,69.78Z" fill="#f7ec41"/><path d="M216.74,74.08a1.67,1.67,0,1,0-1.93-1.35A1.66,1.66,0,0,0,216.74,74.08Z" fill="#f7ec41"/><path d="M210,83.73a1.67,1.67,0,1,0-1.93-1.34A1.67,1.67,0,0,0,210,83.73Z" fill="#f7ec41"/><path d="M226.39,80.78a1.67,1.67,0,1,0-1.93-1.34A1.67,1.67,0,0,0,226.39,80.78Z" fill="#f7ec41"/><path d="M207.09,67.37A1.66,1.66,0,1,0,205.16,66,1.66,1.66,0,0,0,207.09,67.37Z" fill="#f7ec41"/><path d="M223.45,64.42a1.66,1.66,0,1,0-1.93-1.34A1.66,1.66,0,0,0,223.45,64.42Z" fill="#f7ec41"/><path d="M204.68,91.45a1.62,1.62,0,0,0-.45-.87,1.65,1.65,0,0,0-1.15-.5,1.84,1.84,0,0,0-.33,0l.29,1.63Z" fill="#f7ec41"/><path d="M200.71,76.93a1.67,1.67,0,0,0,1-1.84,1.64,1.64,0,0,0-1.59-1.36,1.27,1.27,0,0,0-.34,0l.59,3.27A1.68,1.68,0,0,0,200.71,76.93Z" fill="#f7ec41"/><path d="M213.79,57.72a1.65,1.65,0,0,0,1.34-1.93l-3.27.59A1.67,1.67,0,0,0,213.79,57.72Z" fill="#f7ec41"/><path d="M197.44,60.67a1.19,1.19,0,0,0,.32-.1,1.65,1.65,0,0,0,1-1.83l-1.63.29Z" fill="#f7ec41"/><path d="M241.65,118.55l-.29-1.63a1.65,1.65,0,0,0-1.37,1.59,2,2,0,0,0,0,.34Z" fill="#f7ec41"/><path d="M225,119.87a1.66,1.66,0,0,0-1.37,1.59,2,2,0,0,0,0,.34l3.27-.59a1.78,1.78,0,0,0-.09-.33A1.66,1.66,0,0,0,225,119.87Z" fill="#f7ec41"/><path d="M239,103.84l-.59-3.28a1.67,1.67,0,1,0,.59,3.28Z" fill="#f7ec41"/><path d="M222.64,106.78a1.66,1.66,0,1,0-.59-3.27,1.66,1.66,0,1,0,.59,3.27Z" fill="#f7ec41"/><path d="M215.94,116.43a1.66,1.66,0,1,0-1.93-1.34A1.66,1.66,0,0,0,215.94,116.43Z" fill="#f7ec41"/><path d="M232.29,113.49a1.67,1.67,0,0,0-.59-3.28,1.67,1.67,0,0,0,.59,3.28Z" fill="#f7ec41"/><path d="M213,100.08a1.66,1.66,0,1,0-1.93-1.34A1.67,1.67,0,0,0,213,100.08Z" fill="#f7ec41"/><path d="M229.34,97.13a1.66,1.66,0,1,0-1.93-1.34A1.67,1.67,0,0,0,229.34,97.13Z" fill="#f7ec41"/><path d="M210.58,124.16a1.15,1.15,0,0,0-.1-.33,1.67,1.67,0,0,0-1.5-1,1.84,1.84,0,0,0-.33,0l.29,1.63Z" fill="#f7ec41"/><path d="M206.61,109.64a1.67,1.67,0,0,0,1-1.84,1.65,1.65,0,0,0-1.6-1.36,1.22,1.22,0,0,0-.33,0l.59,3.27A1.68,1.68,0,0,0,206.61,109.64Z" fill="#f7ec41"/><path d="M236.05,87.48l-.3-1.64-1.63.3a1.62,1.62,0,0,0,.24.61A1.67,1.67,0,0,0,236.05,87.48Z" fill="#f7ec41"/><path d="M218,89.7a1.66,1.66,0,0,0,3-.54,1.63,1.63,0,0,0,0-.66l-3.27.59A1.64,1.64,0,0,0,218,89.7Z" fill="#f7ec41"/><path d="M203.34,93.38a1.7,1.7,0,0,0,.32-.1,1.67,1.67,0,0,0,1-1.83l-1.64.29Z" fill="#f7ec41"/><path d="M247.25,149.63a1.63,1.63,0,0,0-1.22,1,1.68,1.68,0,0,0-.12,1l1.64-.3Z" fill="#f7ec41"/><path d="M230.9,152.58a1.65,1.65,0,0,0-1.23,1,1.67,1.67,0,0,0-.11,1l3.27-.59a1.68,1.68,0,0,0-.44-.87A1.66,1.66,0,0,0,230.9,152.58Z" fill="#f7ec41"/><path d="M243,135.2a1.66,1.66,0,0,0,1.93,1.34l-.59-3.27A1.67,1.67,0,0,0,243,135.2Z" fill="#f7ec41"/><path d="M228,136.22a1.66,1.66,0,1,0,1.93,1.34A1.67,1.67,0,0,0,228,136.22Z" fill="#f7ec41"/><path d="M221.25,145.87a1.66,1.66,0,1,0,1.93,1.34A1.66,1.66,0,0,0,221.25,145.87Z" fill="#f7ec41"/><path d="M237.6,142.92a1.67,1.67,0,1,0,1.93,1.35A1.68,1.68,0,0,0,237.6,142.92Z" fill="#f7ec41"/><path d="M218.3,129.52a1.66,1.66,0,1,0,.59,3.27,1.66,1.66,0,0,0-.59-3.27Z" fill="#f7ec41"/><path d="M234.65,126.57a1.66,1.66,0,1,0,1.93,1.34A1.67,1.67,0,0,0,234.65,126.57Z" fill="#f7ec41"/><path d="M216.47,156.86a1.65,1.65,0,0,0-1.59-1.36,1.23,1.23,0,0,0-.33,0l.29,1.63Z" fill="#f7ec41"/><path d="M211.93,139.14l-.33,0,.59,3.27a1.66,1.66,0,0,0-.26-3.3Z" fill="#f7ec41"/><path d="M240,118.85a1.67,1.67,0,0,0,1.93,1.34l-.29-1.64Z" fill="#f7ec41"/><path d="M225.59,123.14a1.67,1.67,0,0,0,1.34-1.93l-3.27.59A1.67,1.67,0,0,0,225.59,123.14Z" fill="#f7ec41"/><path d="M209.24,126.09a1.7,1.7,0,0,0,.32-.1,1.65,1.65,0,0,0,1-1.83l-1.64.29Z" fill="#f7ec41"/><path d="M238.64,186.3a1.67,1.67,0,0,0-3.21.58,1.84,1.84,0,0,0,0,.33l3.27-.58A1.59,1.59,0,0,0,238.64,186.3Z" fill="#f7ec41"/><path d="M250.79,169.25,250.2,166a1.66,1.66,0,1,0,.59,3.27Z" fill="#f7ec41"/><path d="M233.85,168.93a1.66,1.66,0,1,0,1.93,1.34A1.66,1.66,0,0,0,233.85,168.93Z" fill="#f7ec41"/><path d="M227.14,178.58a1.66,1.66,0,1,0,1.94,1.34A1.68,1.68,0,0,0,227.14,178.58Z" fill="#f7ec41"/><path d="M245.43,177a1.66,1.66,0,1,0-1.34,1.93A1.67,1.67,0,0,0,245.43,177Z" fill="#f7ec41"/><path d="M224.2,162.23a1.66,1.66,0,1,0,.59,3.27,1.66,1.66,0,1,0-.59-3.27Z" fill="#f7ec41"/><path d="M240.55,159.28a1.66,1.66,0,1,0,1.93,1.34A1.66,1.66,0,0,0,240.55,159.28Z" fill="#f7ec41"/><path d="M220.78,188.21a2,2,0,0,0-.34,0l.3,1.64,1.63-.3a1.68,1.68,0,0,0-.09-.32A1.66,1.66,0,0,0,220.78,188.21Z" fill="#f7ec41"/><path d="M217.83,171.85l-.34,0,.59,3.27a1.59,1.59,0,0,0,.33-.09,1.67,1.67,0,0,0-.58-3.21Z" fill="#f7ec41"/><path d="M247.84,152.9l-.29-1.64-1.64.3a1.64,1.64,0,0,0,.25.61A1.66,1.66,0,0,0,247.84,152.9Z" fill="#f7ec41"/><path d="M229.8,155.12a1.67,1.67,0,0,0,3-.54,1.83,1.83,0,0,0,0-.66l-3.27.59A1.62,1.62,0,0,0,229.8,155.12Z" fill="#f7ec41"/><path d="M214.84,157.16l.29,1.63a1.59,1.59,0,0,0,.33-.09,1.66,1.66,0,0,0,1-1.18,1.47,1.47,0,0,0,0-.66Z" fill="#f7ec41"/><path d="M239.75,201.64a1.66,1.66,0,0,0,.12,3.28l1.22-2.93A1.68,1.68,0,0,0,239.75,201.64Z" fill="#f7ec41"/><path d="M233.63,214.56a1.66,1.66,0,1,0-.59-3.27,1.66,1.66,0,0,0,.59,3.27Z" fill="#f7ec41"/><path d="M228.75,196.87a1.67,1.67,0,1,0,1.34-1.93A1.67,1.67,0,0,0,228.75,196.87Z" fill="#f7ec41"/><path d="M228.27,222.28a1.65,1.65,0,0,0-1.59-1.36,1.3,1.3,0,0,0-.34,0l.3,1.64Z" fill="#f7ec41"/><path d="M224.31,207.77a1.67,1.67,0,0,0-.58-3.21l-.34,0,.59,3.27A1.78,1.78,0,0,0,224.31,207.77Z" fill="#f7ec41"/><path d="M237.39,188.55a1.66,1.66,0,0,0,1.34-1.92l-3.27.58A1.65,1.65,0,0,0,237.39,188.55Z" fill="#f7ec41"/><path d="M221,191.5a1.78,1.78,0,0,0,.33-.09,1.66,1.66,0,0,0,1-1.84l-1.63.3Z" fill="#f7ec41"/><path d="M226.93,224.21a1.68,1.68,0,0,0,.32-.09,1.65,1.65,0,0,0,1-1.18,1.62,1.62,0,0,0,0-.66l-1.63.3Z" fill="#f7ec41"/><path d="M196.85,57.4a1.56,1.56,0,0,0-.61.24,1.68,1.68,0,0,0-.76,1.35,2,2,0,0,0,0,.34l1.64-.3Z" fill="#f7ec41"/><path d="M202.75,90.11a1.56,1.56,0,0,0-.61.24,1.63,1.63,0,0,0-.73,1.69l1.63-.3Z" fill="#f7ec41"/><path d="M186.39,93.06a1.63,1.63,0,0,0-1.22,1,1.67,1.67,0,0,0-.12,1l3.28-.59a1.77,1.77,0,0,0-.45-.87A1.64,1.64,0,0,0,186.39,93.06Z" fill="#f7ec41"/><path d="M199.8,73.75a1.57,1.57,0,0,0-.61.25,1.64,1.64,0,0,0-.73,1.68A1.66,1.66,0,0,0,199.73,77a1.62,1.62,0,0,0,.66,0Z" fill="#f7ec41"/><path d="M183.45,76.7A1.66,1.66,0,1,0,185.38,78,1.67,1.67,0,0,0,183.45,76.7Z" fill="#f7ec41"/><path d="M178.67,87.69a1.66,1.66,0,1,0-1.34,1.93A1.66,1.66,0,0,0,178.67,87.69Z" fill="#f7ec41"/><path d="M195,84.74a1.66,1.66,0,1,0-3.27.59,1.66,1.66,0,1,0,3.27-.59Z" fill="#f7ec41"/><path d="M173.49,73.18l-.81-.68A1.68,1.68,0,0,0,173.49,73.18Z" fill="#f7ec41"/><path d="M190.15,67.05a1.66,1.66,0,1,0,1.93,1.34A1.65,1.65,0,0,0,190.15,67.05Z" fill="#f7ec41"/><path d="M172,97.34a1.69,1.69,0,0,0-.44-.86,1.86,1.86,0,0,0-.52-.36,1.68,1.68,0,0,0-1-.12l.3,1.64Z" fill="#f7ec41"/><path d="M167.68,82.92a1.67,1.67,0,0,0,.38-3.16,1.77,1.77,0,0,0-1-.11Z" fill="#f7ec41"/><path d="M196.78,60.65a1.62,1.62,0,0,0,.66,0L197.15,59l-1.64.3A1.66,1.66,0,0,0,196.78,60.65Z" fill="#f7ec41"/><path d="M165.26,66.37l-.66-.55.13.75A1.77,1.77,0,0,0,165.26,66.37Z" fill="#f7ec41"/><path d="M208.94,124.45l-.29-1.63a1.61,1.61,0,0,0-.62.24,1.65,1.65,0,0,0-.75,1.35,2,2,0,0,0,0,.34Z" fill="#f7ec41"/><path d="M192.29,125.77a1.64,1.64,0,0,0-1.36,1.59,1.22,1.22,0,0,0,0,.33l3.27-.59a1.68,1.68,0,0,0-.09-.32A1.65,1.65,0,0,0,192.29,125.77Z" fill="#f7ec41"/><path d="M205.63,109.72a1.62,1.62,0,0,0,.66,0l-.59-3.27a1.86,1.86,0,0,0-.62.24,1.67,1.67,0,0,0,.55,3Z" fill="#f7ec41"/><path d="M189.93,112.68a1.66,1.66,0,1,0-1.93-1.34A1.65,1.65,0,0,0,189.93,112.68Z" fill="#f7ec41"/><path d="M183.23,122.33A1.66,1.66,0,1,0,181.3,121,1.66,1.66,0,0,0,183.23,122.33Z" fill="#f7ec41"/><path d="M199.59,119.38a1.66,1.66,0,1,0-1.94-1.34A1.66,1.66,0,0,0,199.59,119.38Z" fill="#f7ec41"/><path d="M180.28,106a1.66,1.66,0,1,0-1.93-1.34A1.66,1.66,0,0,0,180.28,106Z" fill="#f7ec41"/><path d="M196.64,103a1.66,1.66,0,1,0-.59-3.27,1.66,1.66,0,1,0,.59,3.27Z" fill="#f7ec41"/><path d="M177.87,130.05a1.63,1.63,0,0,0-1-1.22,1.64,1.64,0,0,0-1-.12l.29,1.64Z" fill="#f7ec41"/><path d="M174,112.47a1.64,1.64,0,0,0-1-.11l.59,3.27a1.66,1.66,0,0,0,.37-3.16Z" fill="#f7ec41"/><path d="M202.68,93.36a1.62,1.62,0,0,0,.66,0l-.3-1.64-1.63.3a1.62,1.62,0,0,0,.24.61A1.67,1.67,0,0,0,202.68,93.36Z" fill="#f7ec41"/><path d="M185.3,95.6a1.66,1.66,0,0,0,3-.54,1.63,1.63,0,0,0,0-.66l-3.28.59A1.83,1.83,0,0,0,185.3,95.6Z" fill="#f7ec41"/><path d="M170.63,99.27a1.61,1.61,0,0,0,.86-.44A1.64,1.64,0,0,0,172,98a1.82,1.82,0,0,0,0-.66l-1.63.3Z" fill="#f7ec41"/><path d="M214.55,155.53a1.61,1.61,0,0,0-.62.24,1.7,1.7,0,0,0-.61.72,1.65,1.65,0,0,0-.12,1l1.64-.29Z" fill="#f7ec41"/><path d="M199.68,159a1.68,1.68,0,0,0-1.49-.48,1.7,1.7,0,0,0-1.23,1,1.73,1.73,0,0,0-.11,1l3.27-.59A1.69,1.69,0,0,0,199.68,159Z" fill="#f7ec41"/><path d="M211,139.41a1.67,1.67,0,0,0,.55,3,1.62,1.62,0,0,0,.66,0l-.59-3.27A1.78,1.78,0,0,0,211,139.41Z" fill="#f7ec41"/><path d="M195.24,142.12a1.66,1.66,0,1,0,1.93,1.34A1.67,1.67,0,0,0,195.24,142.12Z" fill="#f7ec41"/><path d="M188.54,151.77a1.66,1.66,0,1,0,1.93,1.34A1.66,1.66,0,0,0,188.54,151.77Z" fill="#f7ec41"/><path d="M204.89,148.82a1.66,1.66,0,1,0,.59,3.27,1.66,1.66,0,1,0-.59-3.27Z" fill="#f7ec41"/><path d="M185.59,135.42a1.66,1.66,0,1,0,1.93,1.34A1.66,1.66,0,0,0,185.59,135.42Z" fill="#f7ec41"/><path d="M201.94,132.47a1.66,1.66,0,1,0,1.94,1.34A1.66,1.66,0,0,0,201.94,132.47Z" fill="#f7ec41"/><path d="M182.8,161.54a1.64,1.64,0,0,0-1-.12l.29,1.64,1.64-.3a1.6,1.6,0,0,0-.45-.86A1.57,1.57,0,0,0,182.8,161.54Z" fill="#f7ec41"/><path d="M179.85,145.18a1.64,1.64,0,0,0-1-.11l.59,3.27a1.65,1.65,0,0,0,.86-.44,1.69,1.69,0,0,0,.48-1.49A1.66,1.66,0,0,0,179.85,145.18Z" fill="#f7ec41"/><path d="M207.31,124.75a1.65,1.65,0,0,0,1.27,1.32,1.62,1.62,0,0,0,.66,0l-.3-1.64Z" fill="#f7ec41"/><path d="M192.88,129a1.65,1.65,0,0,0,1.34-1.93l-3.27.59A1.66,1.66,0,0,0,192.88,129Z" fill="#f7ec41"/><path d="M176.23,130.35l.3,1.63a1.65,1.65,0,0,0,.86-.44,1.67,1.67,0,0,0,.48-1.49Z" fill="#f7ec41"/><path d="M220.44,188.23a1.83,1.83,0,0,0-.61.25,1.65,1.65,0,0,0-.75,1.35,1.22,1.22,0,0,0,0,.33l1.64-.29Z" fill="#f7ec41"/><path d="M204.09,191.18a1.68,1.68,0,0,0-1.37,1.6,1.84,1.84,0,0,0,0,.33l3.27-.59a1.65,1.65,0,0,0-1.93-1.34Z" fill="#f7ec41"/><path d="M216.88,172.12a1.67,1.67,0,0,0,.54,3,1.63,1.63,0,0,0,.66,0l-.59-3.27A1.62,1.62,0,0,0,216.88,172.12Z" fill="#f7ec41"/><path d="M201.14,174.83a1.66,1.66,0,1,0,1.93,1.34A1.67,1.67,0,0,0,201.14,174.83Z" fill="#f7ec41"/><path d="M196.37,185.82a1.67,1.67,0,0,0-1.93-1.34,1.66,1.66,0,1,0,1.93,1.34Z" fill="#f7ec41"/><path d="M210.79,181.53a1.66,1.66,0,1,0,1.93,1.34A1.67,1.67,0,0,0,210.79,181.53Z" fill="#f7ec41"/><path d="M191.49,168.12a1.67,1.67,0,1,0,1.93,1.35A1.67,1.67,0,0,0,191.49,168.12Z" fill="#f7ec41"/><path d="M207.84,165.18a1.66,1.66,0,1,0,1.93,1.34A1.66,1.66,0,0,0,207.84,165.18Z" fill="#f7ec41"/><path d="M185.75,177.89a1.65,1.65,0,0,0-1-.11l.59,3.27a1.63,1.63,0,0,0,.86-.45,1.66,1.66,0,0,0,.48-1.48A1.68,1.68,0,0,0,185.75,177.89Z" fill="#f7ec41"/><path d="M213.2,157.45a1.68,1.68,0,0,0,1.27,1.33,1.47,1.47,0,0,0,.66,0l-.29-1.63Z" fill="#f7ec41"/><path d="M196.85,160.4a1.78,1.78,0,0,0,.24.62,1.67,1.67,0,0,0,3-.55,1.62,1.62,0,0,0,0-.66Z" fill="#f7ec41"/><path d="M182.43,164.69a1.65,1.65,0,0,0,.86-.44,1.71,1.71,0,0,0,.48-1.49l-1.64.3Z" fill="#f7ec41"/><path d="M226.34,220.94a1.64,1.64,0,0,0-.61.25,1.58,1.58,0,0,0-.61.72,1.64,1.64,0,0,0-.12,1l1.64-.29Z" fill="#f7ec41"/><path d="M223.39,204.59a1.62,1.62,0,0,0-.61.24,1.67,1.67,0,0,0,.54,3,1.83,1.83,0,0,0,.66,0Z" fill="#f7ec41"/><path d="M216.69,214.24a1.91,1.91,0,0,0-.34.1l2.1,2.31a1.63,1.63,0,0,0,.17-1.07A1.67,1.67,0,0,0,216.69,214.24Z" fill="#f7ec41"/><path d="M213.74,197.88a1.67,1.67,0,1,0,1.93,1.35A1.68,1.68,0,0,0,213.74,197.88Z" fill="#f7ec41"/><path d="M219.1,190.16a1.66,1.66,0,0,0,1.27,1.33,1.63,1.63,0,0,0,.66,0l-.29-1.63Z" fill="#f7ec41"/><path d="M204.68,194.45a1.66,1.66,0,0,0,1.34-1.93l-3.27.59A1.65,1.65,0,0,0,204.68,194.45Z" fill="#f7ec41"/><path d="M226.64,222.58l-1.64.29a1.78,1.78,0,0,0,.24.62,1.71,1.71,0,0,0,1,.71,1.63,1.63,0,0,0,.66,0Z" fill="#f7ec41"/><path d="M162.87,64.39a1.7,1.7,0,0,0-.09.5,1.32,1.32,0,0,0,0,.34l.89-.16Z" fill="#f7ec41"/><path d="M149.72,67.58a1.66,1.66,0,0,0-3.3.26,1.84,1.84,0,0,0,0,.33Z" fill="#f7ec41"/><path d="M155.08,59.86a1.69,1.69,0,0,0,1.21-.92l-2.48-2a1.66,1.66,0,0,0,1.27,3Z" fill="#f7ec41"/><path d="M170.34,97.64,170,96a1.74,1.74,0,0,0-.61.25,1.63,1.63,0,0,0-.73,1.68Z" fill="#f7ec41"/><path d="M155.17,99.43a1.66,1.66,0,0,0-1.48-.48,1.68,1.68,0,0,0-1.23,1,1.64,1.64,0,0,0-.11,1l3.27-.59A1.6,1.6,0,0,0,155.17,99.43Z" fill="#f7ec41"/><path d="M166.48,79.89a1.68,1.68,0,0,0-.73,1.69A1.66,1.66,0,0,0,167,82.91a1.63,1.63,0,0,0,.66,0l-.59-3.27A1.81,1.81,0,0,0,166.48,79.89Z" fill="#f7ec41"/><path d="M150.74,82.6a1.66,1.66,0,1,0,1.93,1.34A1.65,1.65,0,0,0,150.74,82.6Z" fill="#f7ec41"/><path d="M144.62,95.52a1.66,1.66,0,1,0-1.93-1.34A1.67,1.67,0,0,0,144.62,95.52Z" fill="#f7ec41"/><path d="M161,92.57a1.66,1.66,0,1,0-1.93-1.34A1.66,1.66,0,0,0,161,92.57Z" fill="#f7ec41"/><path d="M139.75,77.83a1.66,1.66,0,1,0,1.34-1.93A1.66,1.66,0,0,0,139.75,77.83Z" fill="#f7ec41"/><path d="M158,76.22a1.66,1.66,0,1,0-1.93-1.34A1.67,1.67,0,0,0,158,76.22Z" fill="#f7ec41"/><path d="M137.33,101.9l.3,1.64,1.63-.3a1.65,1.65,0,0,0-.44-.86A1.67,1.67,0,0,0,137.33,101.9Z" fill="#f7ec41"/><path d="M134.38,85.55l.59,3.27a1.66,1.66,0,1,0-.59-3.27Z" fill="#f7ec41"/><path d="M164.07,66.55a1.63,1.63,0,0,0,.66,0l-.13-.75-.91-.75-.89.16A1.66,1.66,0,0,0,164.07,66.55Z" fill="#f7ec41"/><path d="M148.38,69.51a1.66,1.66,0,0,0,1.34-1.93l-3.27.59A1.65,1.65,0,0,0,148.38,69.51Z" fill="#f7ec41"/><path d="M175.94,128.71a1.57,1.57,0,0,0-.61.25,1.64,1.64,0,0,0-.76,1.35,1.84,1.84,0,0,0,0,.33l1.63-.29Z" fill="#f7ec41"/><path d="M161.52,133a3,3,0,0,0-.1-.32,1.66,1.66,0,0,0-3.2.58,1.83,1.83,0,0,0,0,.33Z" fill="#f7ec41"/><path d="M172.38,112.6a1.67,1.67,0,0,0,.54,3,1.82,1.82,0,0,0,.66,0l-.59-3.27A1.56,1.56,0,0,0,172.38,112.6Z" fill="#f7ec41"/><path d="M157.23,118.58a1.66,1.66,0,1,0-1.93-1.34A1.67,1.67,0,0,0,157.23,118.58Z" fill="#f7ec41"/><path d="M150.52,128.23a1.66,1.66,0,1,0-1.93-1.34A1.67,1.67,0,0,0,150.52,128.23Z" fill="#f7ec41"/><path d="M166.88,125.28a1.66,1.66,0,1,0-1.93-1.34A1.67,1.67,0,0,0,166.88,125.28Z" fill="#f7ec41"/><path d="M147.57,111.88a1.67,1.67,0,0,0-.59-3.28,1.67,1.67,0,0,0,.59,3.28Z" fill="#f7ec41"/><path d="M162,107.59a1.66,1.66,0,1,0,1.34-1.93A1.66,1.66,0,0,0,162,107.59Z" fill="#f7ec41"/><path d="M143.23,134.61l.3,1.64,1.63-.3a1.65,1.65,0,0,0-1.93-1.34Z" fill="#f7ec41"/><path d="M142.21,119.6a1.65,1.65,0,0,0-1.93-1.34l.59,3.27A1.67,1.67,0,0,0,142.21,119.6Z" fill="#f7ec41"/><path d="M168.7,97.93a1.78,1.78,0,0,0,.24.62,1.67,1.67,0,0,0,1,.71,1.62,1.62,0,0,0,.66,0l-.29-1.63Z" fill="#f7ec41"/><path d="M154.28,102.22A1.66,1.66,0,0,0,155.6,101a1.62,1.62,0,0,0,0-.66l-3.27.59a1.61,1.61,0,0,0,.24.62A1.65,1.65,0,0,0,154.28,102.22Z" fill="#f7ec41"/><path d="M137.92,105.17a1.66,1.66,0,0,0,1.33-1.27,1.62,1.62,0,0,0,0-.66l-1.63.3Z" fill="#f7ec41"/><path d="M181.84,161.42a1.62,1.62,0,0,0-.62.25,1.65,1.65,0,0,0-.72,1.68l1.63-.29Z" fill="#f7ec41"/><path d="M165.48,164.37a1.68,1.68,0,0,0-1.34,1.93l3.27-.59a1.65,1.65,0,0,0-.44-.86A1.67,1.67,0,0,0,165.48,164.37Z" fill="#f7ec41"/><path d="M178.27,145.31a1.67,1.67,0,0,0,.55,3,1.82,1.82,0,0,0,.66,0l-.59-3.27A1.67,1.67,0,0,0,178.27,145.31Z" fill="#f7ec41"/><path d="M162.53,148a1.66,1.66,0,1,0,1.93,1.34A1.66,1.66,0,0,0,162.53,148Z" fill="#f7ec41"/><path d="M157.76,159a1.66,1.66,0,1,0-1.34,1.93A1.67,1.67,0,0,0,157.76,159Z" fill="#f7ec41"/><path d="M172.19,154.72a1.66,1.66,0,1,0,1.93,1.34A1.67,1.67,0,0,0,172.19,154.72Z" fill="#f7ec41"/><path d="M152.88,141.31a1.67,1.67,0,1,0,1.93,1.35A1.68,1.68,0,0,0,152.88,141.31Z" fill="#f7ec41"/><path d="M169.24,138.36a1.67,1.67,0,1,0,1.93,1.35A1.66,1.66,0,0,0,169.24,138.36Z" fill="#f7ec41"/><path d="M151.06,168.66a1.6,1.6,0,0,0-.45-.86,1.66,1.66,0,0,0-1.48-.48l.29,1.64Z" fill="#f7ec41"/><path d="M146.18,151l.59,3.27a1.66,1.66,0,1,0-.59-3.27Z" fill="#f7ec41"/><path d="M174.6,130.64a1.66,1.66,0,0,0,1.27,1.33,1.62,1.62,0,0,0,.66,0l-.3-1.63Z" fill="#f7ec41"/><path d="M160.17,134.93a1.66,1.66,0,0,0,1.35-1.93l-3.28.59A1.66,1.66,0,0,0,160.17,134.93Z" fill="#f7ec41"/><path d="M143.82,137.88a1.67,1.67,0,0,0,1.34-1.93l-1.63.3Z" fill="#f7ec41"/><path d="M171.38,197.08a1.66,1.66,0,0,0-1.37,1.6,1.84,1.84,0,0,0,0,.33l3.27-.59a1.65,1.65,0,0,0-1.93-1.34Z" fill="#f7ec41"/><path d="M184.17,178a1.67,1.67,0,0,0,.55,3,1.82,1.82,0,0,0,.66,0l-.59-3.27A1.61,1.61,0,0,0,184.17,178Z" fill="#f7ec41"/><path d="M169,184a1.66,1.66,0,1,0-1.93-1.34A1.66,1.66,0,0,0,169,184Z" fill="#f7ec41"/><path d="M161.73,190.38a1.66,1.66,0,1,0,1.93,1.34A1.66,1.66,0,0,0,161.73,190.38Z" fill="#f7ec41"/><path d="M180,188.77a1.66,1.66,0,1,0-1.34,1.93A1.66,1.66,0,0,0,180,188.77Z" fill="#f7ec41"/><path d="M158.78,174a1.67,1.67,0,0,0-1.34,1.93,1.66,1.66,0,1,0,1.34-1.93Z" fill="#f7ec41"/><path d="M175.13,171.07a1.67,1.67,0,1,0,1.94,1.35A1.68,1.68,0,0,0,175.13,171.07Z" fill="#f7ec41"/><path d="M157,201.37a1.19,1.19,0,0,0-.1-.32,1.65,1.65,0,0,0-1.83-1l.29,1.63Z" fill="#f7ec41"/><path d="M152.08,183.68l.59,3.27A1.67,1.67,0,0,0,154,185,1.65,1.65,0,0,0,152.08,183.68Z" fill="#f7ec41"/><path d="M180.5,163.35a1.61,1.61,0,0,0,.24.62,1.71,1.71,0,0,0,1,.71,1.62,1.62,0,0,0,.66,0l-.3-1.63Z" fill="#f7ec41"/><path d="M164.39,166.91a1.64,1.64,0,0,0,1.68.73,1.66,1.66,0,0,0,1.33-1.27,1.62,1.62,0,0,0,0-.66l-3.27.59A1.57,1.57,0,0,0,164.39,166.91Z" fill="#f7ec41"/><path d="M149.72,170.59a1.67,1.67,0,0,0,1.33-1.27,1.82,1.82,0,0,0,0-.66l-1.64.3Z" fill="#f7ec41"/><path d="M163.34,208.66a1.66,1.66,0,1,0,3.27-.59,1.66,1.66,0,0,0-3.27.59Z" fill="#f7ec41"/><path d="M159.91,217.72a1.67,1.67,0,0,0-1.93-1.34l.59,3.28A1.68,1.68,0,0,0,159.91,217.72Z" fill="#f7ec41"/><path d="M172,200.35a1.67,1.67,0,0,0,1.34-1.93L170,199A1.67,1.67,0,0,0,172,200.35Z" fill="#f7ec41"/><path d="M155.62,203.3a1.67,1.67,0,0,0,1.34-1.93l-1.64.29Z" fill="#f7ec41"/><path d="M137.33,101.9a1.68,1.68,0,0,0-1.34,1.93l1.64-.29Z" fill="#f7ec41"/><path d="M122.91,106.19a1.6,1.6,0,0,0-.45-.86,1.66,1.66,0,0,0-2.71.49,1.64,1.64,0,0,0-.11,1Z" fill="#f7ec41"/><path d="M133,87.48A1.67,1.67,0,0,0,135,88.82l-.59-3.27A1.67,1.67,0,0,0,133,87.48Z" fill="#f7ec41"/><path d="M113.26,99.49a1.66,1.66,0,0,0-1.93-1.34,1.66,1.66,0,0,0,.59,3.27A1.67,1.67,0,0,0,113.26,99.49Z" fill="#f7ec41"/><path d="M129.61,96.54a1.66,1.66,0,1,0-1.34,1.93A1.67,1.67,0,0,0,129.61,96.54Z" fill="#f7ec41"/><path d="M106.55,109.14a1.65,1.65,0,0,0-.44-.86,1.52,1.52,0,0,0-.52-.36,1.67,1.67,0,0,0-1-.12l.3,1.64Z" fill="#f7ec41"/><path d="M102.27,94.72a1.63,1.63,0,0,0,.86-.45,1.66,1.66,0,0,0,.48-1.48,1.68,1.68,0,0,0-1-1.23,1.65,1.65,0,0,0-1-.11Z" fill="#f7ec41"/><path d="M143.23,134.61a1.66,1.66,0,0,0-1.37,1.6,1.84,1.84,0,0,0,0,.33l1.64-.29Z" fill="#f7ec41"/><path d="M126.88,137.56a1.66,1.66,0,0,0-1.37,1.6,1.84,1.84,0,0,0,0,.33l3.27-.59a1.19,1.19,0,0,0-.1-.32A1.65,1.65,0,0,0,126.88,137.56Z" fill="#f7ec41"/><path d="M140.87,121.53l-.59-3.27a1.66,1.66,0,0,0,.59,3.27Z" fill="#f7ec41"/><path d="M124.52,124.48a1.66,1.66,0,1,0-.59-3.27,1.66,1.66,0,0,0,.59,3.27Z" fill="#f7ec41"/><path d="M117.81,134.13a1.66,1.66,0,1,0-1.93-1.34A1.67,1.67,0,0,0,117.81,134.13Z" fill="#f7ec41"/><path d="M134.17,131.18a1.66,1.66,0,1,0-1.93-1.34A1.67,1.67,0,0,0,134.17,131.18Z" fill="#f7ec41"/><path d="M114.87,117.77a1.66,1.66,0,1,0-1.93-1.34A1.66,1.66,0,0,0,114.87,117.77Z" fill="#f7ec41"/><path d="M131.22,114.83a1.67,1.67,0,1,0-1.93-1.34A1.67,1.67,0,0,0,131.22,114.83Z" fill="#f7ec41"/><path d="M112.45,141.85a1.66,1.66,0,0,0-1-1.23,1.77,1.77,0,0,0-1-.11l.3,1.63Z" fill="#f7ec41"/><path d="M109,127a1.63,1.63,0,0,0,.47-1.48,1.65,1.65,0,0,0-1-1.23,1.59,1.59,0,0,0-1-.11l.59,3.27A1.62,1.62,0,0,0,109,127Z" fill="#f7ec41"/><path d="M136,103.83a1.62,1.62,0,0,0,.25.62,1.65,1.65,0,0,0,1.68.72l-.29-1.63Z" fill="#f7ec41"/><path d="M119.88,107.39a1.67,1.67,0,0,0,3-.54,1.82,1.82,0,0,0,0-.66l-3.27.59A1.56,1.56,0,0,0,119.88,107.39Z" fill="#f7ec41"/><path d="M105.21,111.07a1.64,1.64,0,0,0,1.33-1.27,1.47,1.47,0,0,0,0-.66l-1.63.3Z" fill="#f7ec41"/><path d="M149.13,167.32a1.66,1.66,0,0,0-1.23,1,1.64,1.64,0,0,0-.11,1l1.63-.29Z" fill="#f7ec41"/><path d="M134.26,170.75a1.67,1.67,0,0,0-2.83,1.45l3.28-.59A1.74,1.74,0,0,0,134.26,170.75Z" fill="#f7ec41"/><path d="M144.84,152.9a1.67,1.67,0,0,0,1.93,1.34l-.59-3.27A1.66,1.66,0,0,0,144.84,152.9Z" fill="#f7ec41"/><path d="M129.83,153.92a1.66,1.66,0,0,0,.59,3.27,1.66,1.66,0,1,0-.59-3.27Z" fill="#f7ec41"/><path d="M123.12,163.57a1.66,1.66,0,1,0,1.93,1.34A1.66,1.66,0,0,0,123.12,163.57Z" fill="#f7ec41"/><path d="M139.48,160.62a1.66,1.66,0,1,0,.59,3.27,1.66,1.66,0,1,0-.59-3.27Z" fill="#f7ec41"/><path d="M120.17,147.21a1.66,1.66,0,0,0,.59,3.27,1.66,1.66,0,1,0-.59-3.27Z" fill="#f7ec41"/><path d="M136.53,144.26a1.66,1.66,0,1,0,1.93,1.34A1.66,1.66,0,0,0,136.53,144.26Z" fill="#f7ec41"/><path d="M117.39,173.33a1.68,1.68,0,0,0-1-.11l.3,1.63,1.63-.29a1.61,1.61,0,0,0-.44-.86A1.71,1.71,0,0,0,117.39,173.33Z" fill="#f7ec41"/><path d="M114.44,157a1.68,1.68,0,0,0-1-.12l.59,3.28a1.62,1.62,0,0,0,.87-.45,1.67,1.67,0,0,0-.49-2.71Z" fill="#f7ec41"/><path d="M141.89,136.54a1.67,1.67,0,0,0,1.93,1.34l-.29-1.63Z" fill="#f7ec41"/><path d="M127.47,140.83a1.67,1.67,0,0,0,1.34-1.93l-3.27.59A1.66,1.66,0,0,0,127.47,140.83Z" fill="#f7ec41"/><path d="M110.82,142.14l.29,1.64a1.64,1.64,0,0,0,1.34-1.93Z" fill="#f7ec41"/><path d="M155,200a1.66,1.66,0,0,0-1.37,1.59,2,2,0,0,0,0,.34l1.63-.3Z" fill="#f7ec41"/><path d="M138.67,203a1.64,1.64,0,0,0-1.36,1.59,1.3,1.3,0,0,0,0,.34l3.27-.59a1.65,1.65,0,0,0-1.93-1.34Z" fill="#f7ec41"/><path d="M150.74,185.61a1.66,1.66,0,0,0,1.93,1.34l-.59-3.27A1.65,1.65,0,0,0,150.74,185.61Z" fill="#f7ec41"/><path d="M135.72,186.62a1.67,1.67,0,1,0,1.93,1.34A1.67,1.67,0,0,0,135.72,186.62Z" fill="#f7ec41"/><path d="M131,197.62a1.66,1.66,0,1,0-1.34,1.93A1.67,1.67,0,0,0,131,197.62Z" fill="#f7ec41"/><path d="M145.38,193.33a1.66,1.66,0,1,0,1.93,1.34A1.66,1.66,0,0,0,145.38,193.33Z" fill="#f7ec41"/><path d="M126.07,179.92a1.66,1.66,0,1,0,1.93,1.34A1.67,1.67,0,0,0,126.07,179.92Z" fill="#f7ec41"/><path d="M142.43,177a1.66,1.66,0,1,0,1.93,1.34A1.67,1.67,0,0,0,142.43,177Z" fill="#f7ec41"/><path d="M120.82,192.4a1.67,1.67,0,0,0-1.45-2.83l.59,3.28A1.74,1.74,0,0,0,120.82,192.4Z" fill="#f7ec41"/><path d="M149.72,170.59l-.3-1.63-1.63.29a1.56,1.56,0,0,0,.24.61A1.66,1.66,0,0,0,149.72,170.59Z" fill="#f7ec41"/><path d="M131.43,172.2a1.74,1.74,0,0,0,.25.61,1.66,1.66,0,0,0,3-.54,1.62,1.62,0,0,0,0-.66Z" fill="#f7ec41"/><path d="M117,176.49a1.56,1.56,0,0,0,.86-.45,1.66,1.66,0,0,0,.47-.82,1.83,1.83,0,0,0,0-.66l-1.63.29Z" fill="#f7ec41"/><path d="M144.57,235.69a1.66,1.66,0,0,0-1.22,1,1.68,1.68,0,0,0-.12,1l3.27-.59a1.64,1.64,0,0,0-1.93-1.34Z" fill="#f7ec41"/><path d="M158.57,219.66l-.59-3.28a1.67,1.67,0,0,0,.59,3.28Z" fill="#f7ec41"/><path d="M142.21,222.61a1.67,1.67,0,1,0-1.93-1.35A1.67,1.67,0,0,0,142.21,222.61Z" fill="#f7ec41"/><path d="M134.92,229a1.67,1.67,0,1,0,1.93,1.35A1.68,1.68,0,0,0,134.92,229Z" fill="#f7ec41"/><path d="M153.2,227.38a1.66,1.66,0,1,0-3.27.59,1.66,1.66,0,1,0,3.27-.59Z" fill="#f7ec41"/><path d="M132,212.63A1.66,1.66,0,1,0,133.9,214,1.67,1.67,0,0,0,132,212.63Z" fill="#f7ec41"/><path d="M148.32,209.68a1.66,1.66,0,1,0,1.94,1.34A1.67,1.67,0,0,0,148.32,209.68Z" fill="#f7ec41"/><path d="M155.62,203.3l-.3-1.64-1.63.3A1.66,1.66,0,0,0,155.62,203.3Z" fill="#f7ec41"/><path d="M139.26,206.25a1.65,1.65,0,0,0,1.34-1.93l-3.27.59A1.67,1.67,0,0,0,139.26,206.25Z" fill="#f7ec41"/><path d="M147.52,252a1.67,1.67,0,0,0-1.34,1.93,1.78,1.78,0,0,0,.24.62L148,252A1.93,1.93,0,0,0,147.52,252Z" fill="#f7ec41"/><path d="M139.48,263.63a1.65,1.65,0,0,0,.69,1.07l1.75-2.82a1.65,1.65,0,0,0-2.44,1.75Z" fill="#f7ec41"/><path d="M136.53,247.27a1.66,1.66,0,1,0,1.34-1.93A1.66,1.66,0,0,0,136.53,247.27Z" fill="#f7ec41"/><path d="M152.87,244.16l1-1.68A1.66,1.66,0,0,0,152.87,244.16Z" fill="#f7ec41"/><path d="M143.47,238.23a1.68,1.68,0,0,0,1.69.73,1.66,1.66,0,0,0,1.33-1.27,1.63,1.63,0,0,0,0-.66l-3.27.59A1.81,1.81,0,0,0,143.47,238.23Z" fill="#f7ec41"/><path d="M84.3,79.38A1.65,1.65,0,0,0,82.37,78,1.64,1.64,0,0,0,81,79.63,1.27,1.27,0,0,0,81,80Z" fill="#f7ec41"/><path d="M72.75,74.61a1.75,1.75,0,0,0,.56,0,1.67,1.67,0,0,0,1.34-1.35l-2.14-1.13Z" fill="#f7ec41"/><path d="M104.62,107.8a1.81,1.81,0,0,0-.61.24,1.67,1.67,0,0,0-.61.73,1.64,1.64,0,0,0-.12,1l1.64-.29Z" fill="#f7ec41"/><path d="M88.27,110.75a1.68,1.68,0,0,0-1.23,1,1.72,1.72,0,0,0-.11,1l3.27-.59a1.66,1.66,0,0,0-1.93-1.34Z" fill="#f7ec41"/><path d="M101.06,91.69a1.66,1.66,0,0,0,.55,3,1.62,1.62,0,0,0,.66,0l-.59-3.27A1.61,1.61,0,0,0,101.06,91.69Z" fill="#f7ec41"/><path d="M85.91,97.67a1.67,1.67,0,0,0,1.34-1.93,1.66,1.66,0,1,0-1.34,1.93Z" fill="#f7ec41"/><path d="M80.55,105.39a1.66,1.66,0,1,0-1.34,1.93A1.67,1.67,0,0,0,80.55,105.39Z" fill="#f7ec41"/><path d="M95.56,104.37A1.66,1.66,0,1,0,93.63,103,1.65,1.65,0,0,0,95.56,104.37Z" fill="#f7ec41"/><path d="M74.33,89.62a1.66,1.66,0,1,0,1.34-1.93A1.65,1.65,0,0,0,74.33,89.62Z" fill="#f7ec41"/><path d="M90.68,86.67A1.66,1.66,0,1,0,92,84.74,1.66,1.66,0,0,0,90.68,86.67Z" fill="#f7ec41"/><path d="M83,81.31a1.66,1.66,0,0,0,1.34-1.93L81,80A1.67,1.67,0,0,0,83,81.31Z" fill="#f7ec41"/><path d="M110.52,140.51a1.81,1.81,0,0,0-.61.24,1.67,1.67,0,0,0-.75,1.35,1.3,1.3,0,0,0,0,.34l1.64-.3Z" fill="#f7ec41"/><path d="M96,144.48a1.66,1.66,0,0,0-3.21.57,2,2,0,0,0,0,.34l3.27-.59A1.68,1.68,0,0,0,96,144.48Z" fill="#f7ec41"/><path d="M107.5,127.41a1.63,1.63,0,0,0,.66,0l-.59-3.27a1.62,1.62,0,0,0-.61.24,1.66,1.66,0,0,0,.54,3Z" fill="#f7ec41"/><path d="M91.81,130.38A1.67,1.67,0,1,0,89.88,129,1.68,1.68,0,0,0,91.81,130.38Z" fill="#f7ec41"/><path d="M85.11,140a1.66,1.66,0,1,0-.59-3.27,1.66,1.66,0,0,0,.59,3.27Z" fill="#f7ec41"/><path d="M101.46,137.08a1.66,1.66,0,1,0-1.93-1.34A1.67,1.67,0,0,0,101.46,137.08Z" fill="#f7ec41"/><path d="M80.23,122.33a1.66,1.66,0,1,0,3.27-.59,1.66,1.66,0,0,0-3.27.59Z" fill="#f7ec41"/><path d="M98.51,120.72a1.66,1.66,0,1,0-1.93-1.34A1.65,1.65,0,0,0,98.51,120.72Z" fill="#f7ec41"/><path d="M77.81,146.41l.3,1.63,1.63-.29a2,2,0,0,0-.09-.33A1.67,1.67,0,0,0,77.81,146.41Z" fill="#f7ec41"/><path d="M104.55,111.06a1.83,1.83,0,0,0,.66,0l-.29-1.63-1.64.29a1.57,1.57,0,0,0,.25.61A1.67,1.67,0,0,0,104.55,111.06Z" fill="#f7ec41"/><path d="M87.17,113.29a1.67,1.67,0,0,0,3-.54,1.82,1.82,0,0,0,0-.66l-3.27.59A1.73,1.73,0,0,0,87.17,113.29Z" fill="#f7ec41"/><path d="M116.42,173.22a1.62,1.62,0,0,0-.61.24,1.73,1.73,0,0,0-.62.72,1.77,1.77,0,0,0-.11,1l1.64-.3Z" fill="#f7ec41"/><path d="M100.07,176.17a1.65,1.65,0,0,0-1.34,1.93l3.27-.59a1.62,1.62,0,0,0-.45-.87A1.66,1.66,0,0,0,100.07,176.17Z" fill="#f7ec41"/><path d="M112.86,157.11a1.66,1.66,0,0,0,.54,3,1.63,1.63,0,0,0,.66,0l-.59-3.28A1.83,1.83,0,0,0,112.86,157.11Z" fill="#f7ec41"/><path d="M97.12,159.81a1.67,1.67,0,0,0,.59,3.28,1.67,1.67,0,0,0-.59-3.28Z" fill="#f7ec41"/><path d="M92.35,170.81a1.66,1.66,0,1,0-3.27.59,1.66,1.66,0,0,0,3.27-.59Z" fill="#f7ec41"/><path d="M106.77,166.52a1.66,1.66,0,1,0,1.93,1.34A1.66,1.66,0,0,0,106.77,166.52Z" fill="#f7ec41"/><path d="M87.47,153.11a1.66,1.66,0,1,0,1.93,1.34A1.67,1.67,0,0,0,87.47,153.11Z" fill="#f7ec41"/><path d="M103.82,150.16a1.66,1.66,0,1,0,1.93,1.34A1.67,1.67,0,0,0,103.82,150.16Z" fill="#f7ec41"/><path d="M85.64,180.46a1.64,1.64,0,0,0-1.93-1.34l.3,1.63Z" fill="#f7ec41"/><path d="M80.76,162.76l.59,3.27a1.66,1.66,0,1,0-.59-3.27Z" fill="#f7ec41"/><path d="M109.18,142.44a1.67,1.67,0,0,0,1.27,1.33,1.83,1.83,0,0,0,.66,0l-.29-1.64Z" fill="#f7ec41"/><path d="M94.76,146.73a1.67,1.67,0,0,0,1.34-1.93l-3.27.59A1.66,1.66,0,0,0,94.76,146.73Z" fill="#f7ec41"/><path d="M78.4,149.68a1.66,1.66,0,0,0,1.34-1.93l-1.63.29Z" fill="#f7ec41"/><path d="M107.8,209.89a1.66,1.66,0,0,0-3.2.58,2,2,0,0,0,0,.34l3.28-.59A1.8,1.8,0,0,0,107.8,209.89Z" fill="#f7ec41"/><path d="M119.37,189.57a1.57,1.57,0,0,0-.61.25,1.66,1.66,0,0,0,.54,3,1.62,1.62,0,0,0,.66,0Z" fill="#f7ec41"/><path d="M103.61,195.79a1.66,1.66,0,1,0-1.93-1.34A1.66,1.66,0,0,0,103.61,195.79Z" fill="#f7ec41"/><path d="M96.31,202.17a1.67,1.67,0,0,0,.59,3.28,1.67,1.67,0,0,0-.59-3.28Z" fill="#f7ec41"/><path d="M113.26,202.5a1.67,1.67,0,1,0-1.93-1.34A1.67,1.67,0,0,0,113.26,202.5Z" fill="#f7ec41"/><path d="M93.36,185.82a1.66,1.66,0,1,0,1.93,1.34A1.67,1.67,0,0,0,93.36,185.82Z" fill="#f7ec41"/><path d="M108.38,184.8a1.66,1.66,0,1,0,1.34-1.93A1.66,1.66,0,0,0,108.38,184.8Z" fill="#f7ec41"/><path d="M89.61,211.83l.3,1.63,1.63-.29a1.78,1.78,0,0,0-.09-.33A1.66,1.66,0,0,0,89.61,211.83Z" fill="#f7ec41"/><path d="M88.59,196.81a1.67,1.67,0,0,0-1-1.25l-.47,2.22.17,1A1.66,1.66,0,0,0,88.59,196.81Z" fill="#f7ec41"/><path d="M115.08,175.15a1.81,1.81,0,0,0,.24.61,1.67,1.67,0,0,0,1,.71,1.62,1.62,0,0,0,.66,0l-.29-1.64Z" fill="#f7ec41"/><path d="M99,178.71a1.66,1.66,0,0,0,3-.54,1.63,1.63,0,0,0,0-.66l-3.27.59A1.62,1.62,0,0,0,99,178.71Z" fill="#f7ec41"/><path d="M84.24,182l.46.24a1.67,1.67,0,0,0,.93-1.14,1.63,1.63,0,0,0,0-.66l-1.63.29Z" fill="#f7ec41"/><path d="M98.06,219.46l1-.87A1.62,1.62,0,0,0,98.06,219.46Z" fill="#f7ec41"/><path d="M104.62,210.81a1.68,1.68,0,0,0,1.77,1.35l1.5-1.31a1.9,1.9,0,0,0,0-.63Z" fill="#f7ec41"/><path d="M90.2,215.1a1.67,1.67,0,0,0,1.34-1.93l-1.63.29Z" fill="#f7ec41"/><path d="M77.81,146.41A1.65,1.65,0,0,0,76.45,148a2,2,0,0,0,0,.34l1.64-.3Z" fill="#f7ec41"/><path d="M61.46,149.36A1.66,1.66,0,0,0,60.09,151a2,2,0,0,0,0,.34l3.27-.59a1.78,1.78,0,0,0-.09-.33A1.66,1.66,0,0,0,61.46,149.36Z" fill="#f7ec41"/><path d="M52.4,145.93A1.67,1.67,0,0,0,53.74,144a1.64,1.64,0,0,0-.42-.84l-2.87,1.21c0,.07,0,.14,0,.22A1.66,1.66,0,0,0,52.4,145.93Z" fill="#f7ec41"/><path d="M70.09,141.05A1.66,1.66,0,1,0,68.75,143,1.66,1.66,0,0,0,70.09,141.05Z" fill="#f7ec41"/><path d="M47,153.65a1.59,1.59,0,0,0-.1-.33,1.67,1.67,0,0,0-1.5-1,1.84,1.84,0,0,0-.33,0l.29,1.63Z" fill="#f7ec41"/><path d="M83.71,179.12a1.63,1.63,0,0,0-1.22,1,1.68,1.68,0,0,0-.12,1l1.64-.3Z" fill="#f7ec41"/><path d="M79.42,164.69A1.66,1.66,0,0,0,81.35,166l-.59-3.27A1.67,1.67,0,0,0,79.42,164.69Z" fill="#f7ec41"/><path d="M65,169a1.66,1.66,0,1,0-1.93-1.34A1.67,1.67,0,0,0,65,169Z" fill="#f7ec41"/><path d="M76,173.76a1.66,1.66,0,1,0-1.34,1.93A1.67,1.67,0,0,0,76,173.76Z" fill="#f7ec41"/><path d="M53.42,160.94A1.66,1.66,0,1,0,54.76,159,1.66,1.66,0,0,0,53.42,160.94Z" fill="#f7ec41"/><path d="M71.11,156.06A1.66,1.66,0,1,0,73,157.4,1.67,1.67,0,0,0,71.11,156.06Z" fill="#f7ec41"/><path d="M76.47,148.34a1.67,1.67,0,0,0,1.93,1.34L78.11,148Z" fill="#f7ec41"/><path d="M62.05,152.63a1.67,1.67,0,0,0,1.34-1.93l-3.27.59A1.67,1.67,0,0,0,62.05,152.63Z" fill="#f7ec41"/><path d="M45.7,155.58a1.7,1.7,0,0,0,.32-.1,1.65,1.65,0,0,0,1-1.83l-1.64.29Z" fill="#f7ec41"/><path d="M89.61,211.83a1.66,1.66,0,0,0-1.37,1.59,2,2,0,0,0,0,.34l1.64-.3Z" fill="#f7ec41"/><path d="M87.08,197.78l-.21,1a1.22,1.22,0,0,0,.38,0Z" fill="#f7ec41"/><path d="M84,180.75l-1.64.3v0l1.86,1Z" fill="#f7ec41"/><path d="M83.5,224.75a1.66,1.66,0,1,0-.59-3.27,1.62,1.62,0,0,0-1,.58l-.32,1.49A1.66,1.66,0,0,0,83.5,224.75Z" fill="#f7ec41"/><path d="M88.27,213.76a1.67,1.67,0,0,0,1.93,1.34l-.29-1.64Z" fill="#f7ec41"/><path d="M45.11,152.31a1.61,1.61,0,0,0-.62.24,1.65,1.65,0,0,0-.75,1.35,2,2,0,0,0,0,.34l1.63-.3Z" fill="#f7ec41"/><path d="M45.4,153.94l-1.63.3A1.65,1.65,0,0,0,45,155.56a1.62,1.62,0,0,0,.66,0Z" fill="#f7ec41"/></g><polygon points="139.63 265.58 124.17 196.58 78.92 236.22 89.82 184.88 28.75 153.57 78.36 132.53 72.51 72.13 119.82 97.27 147.6 51.75 120.59 100.92 76.2 76.95 82.42 136.34 33.66 154.26 93.46 182.43 85.05 226.94 126.05 190.26 139.63 265.58"/><polygon points="147.6 51.75 179.37 78.05 215.1 30.29 240.04 79.2 283.37 50.23 278.32 101.52 329.56 117.47 271.73 104.55 278.98 56.92 238.51 84.22 213.93 37.58 180.67 84.03 147.6 51.75"/><polygon points="139.63 265.58 189.55 184.79 229.8 229.16 252.99 173.35 303.02 193.79 292 149.43 329.56 117.47 287.71 146.31 297.62 187.44 251.34 169.23 228.83 222.12 187.8 178.4 139.63 265.58"/><path d="M294.77,86.59l-14.52,41.76L262,88.06l-21.65,1,1.3,28.94a36.31,36.31,0,0,0-2.53-5.53,38,38,0,0,0-22-17.77,36.46,36.46,0,0,0-14.85-1.43h0a36.32,36.32,0,0,0-14.22,4.53,37.85,37.85,0,0,0-17.73,22,35.92,35.92,0,0,0-1.57,8.55,35.81,35.81,0,0,0-3.75-7.63,38,38,0,0,0-23-16.35,36.46,36.46,0,0,0-14.91-.5h0a36.87,36.87,0,0,0-13.92,5.41,38,38,0,0,0-16.32,23,36.68,36.68,0,0,0-.49,14.92c.07.38.15.76.22,1.14A24.45,24.45,0,0,0,93,145.29a26.13,26.13,0,0,0,.45-3.09A24.29,24.29,0,0,0,89,126.13a25.07,25.07,0,0,0-6.71-6.37,24.29,24.29,0,0,0-8.65-3.43,23.69,23.69,0,0,0-9.7.19l-22.43,5L58,194.94,84.49,189a23.93,23.93,0,0,0,8.85-4,24.88,24.88,0,0,0,6.35-6.73,24.51,24.51,0,0,0,3.36-8.62,23.23,23.23,0,0,0,.31-6.29,37.61,37.61,0,0,0,21.41,14.11,36.5,36.5,0,0,0,14.92.5l.37-.07a36.42,36.42,0,0,0,13.54-5.34,38,38,0,0,0,16.32-23,36.69,36.69,0,0,0,1-6.26,35.29,35.29,0,0,0,2.55,5.6,38.09,38.09,0,0,0,22,17.76,36.53,36.53,0,0,0,14.86,1.43c.93-.1,1.86-.23,2.77-.4a36.17,36.17,0,0,0,11.45-4.12,38,38,0,0,0,17.73-22c.16-.5.3-1,.43-1.52l1.09,24.15,22-1-.66-14.76,6.58,14.49,20.23-.91,5.25-15,.67,14.77,22-1-3.39-75.15ZM136,156.15a14.85,14.85,0,0,1-6.13-.19,15.67,15.67,0,0,1-9.62-6.81,15.34,15.34,0,0,1-2-11.78,15.06,15.06,0,0,1,2.47-5.4,16.16,16.16,0,0,1,4.38-4.13,14.75,14.75,0,0,1,5.54-2.18l.17,0h0a14.79,14.79,0,0,1,6.12.19,15.47,15.47,0,0,1,9.53,6.74,15.35,15.35,0,0,1,2,11.79,16.47,16.47,0,0,1-2.46,5.49,15.31,15.31,0,0,1-4.29,4.11A14.67,14.67,0,0,1,136,156.15ZM67.83,138.32l.92-.21a2,2,0,0,1,1.71.27,2.07,2.07,0,0,1,1,1.43,1.93,1.93,0,0,1-.29,1.63,2.06,2.06,0,0,1-1.44,1l-.91.2Zm6.79,30.2-1-4.31,5-1.12a2,2,0,0,1,1.71.26,2.06,2.06,0,0,1,1,1.44,1.92,1.92,0,0,1-.25,1.63,2.14,2.14,0,0,1-1.47,1ZM221.68,129a14.68,14.68,0,0,1-.57,6.07,16.27,16.27,0,0,1-2.8,5.33,15.34,15.34,0,0,1-4.53,3.83,15.48,15.48,0,0,1-11.94,1.27,16.25,16.25,0,0,1-5.32-2.81,16,16,0,0,1-3.87-4.59,15.43,15.43,0,0,1-1.26-11.9,15.16,15.16,0,0,1,2.8-5.23,16.55,16.55,0,0,1,4.63-3.85,14.8,14.8,0,0,1,4.64-1.66c.39-.07.8-.13,1.2-.17h0a14.81,14.81,0,0,1,6.1.58,15.41,15.41,0,0,1,9.09,7.32A14.56,14.56,0,0,1,221.68,129Z"/><path d="M58.36,116.76a19.37,19.37,0,0,1,8-.16,19.93,19.93,0,0,1,7.16,2.83,20.87,20.87,0,0,1,5.59,5.31A20.06,20.06,0,0,1,82.79,138a22.38,22.38,0,0,1-1.2,5.57,20.82,20.82,0,0,1,6.86,5.53,20.19,20.19,0,0,1,4.09,16.16A20.07,20.07,0,0,1,84.48,178a19.6,19.6,0,0,1-7.29,3.27l-22.43,5L40.07,120.87ZM59,144.08l5.26-1.18a6.48,6.48,0,0,0,4.23-3,6.33,6.33,0,0,0,.87-5,6.63,6.63,0,0,0-8-5.09L56,131.05Zm5.87,26.14,9.41-2.11a6.6,6.6,0,0,0,4.24-2.9,6.4,6.4,0,0,0,.86-5.05,6.65,6.65,0,0,0-8-5.08l-9.4,2.11Z" fill="#f7ec41"/><path d="M58.33,116.61a21.36,21.36,0,0,1,20.16,6.13,20,20,0,0,1,5.24,9.92,18.67,18.67,0,0,1,.34,5.73A21.1,21.1,0,0,1,82.85,144l-.66-1.65a21.09,21.09,0,0,1,7.32,6.13,20.82,20.82,0,0,1,3.76,8.69,20.51,20.51,0,0,1-.4,9.32,21.59,21.59,0,0,1-4.22,8.2,21.85,21.85,0,0,1-7.25,5.68A23,23,0,0,1,77,181.88L72.62,183c-5.86,1.48-11.71,3.06-17.59,4.47l-1.17.28-.31-1.22c-1.36-5.42-2.62-10.86-3.91-16.29l-1.94-8.15-1.85-8.17c-1.18-5.46-2.39-10.92-3.47-16.4s-2-11-3-16.5l-.12-.7.63-.11c3.08-.54,6.16-1.09,9.23-1.69,1.53-.31,3.07-.59,4.59-.93Zm.06.3L53.83,118c-1.52.35-3,.75-4.55,1.13-3,.77-6.05,1.59-9.06,2.42l.51-.81c1.48,5.39,3,10.77,4.37,16.19s2.61,10.86,3.88,16.3l1.83,8.18,1.73,8.2c1.15,5.46,2.35,10.92,3.43,16.4l-1.48-.94c5.92-1.24,11.87-2.31,17.81-3.48l4.45-.87A18.73,18.73,0,0,0,81,179.41a17,17,0,0,0,3.79-2.26,18.62,18.62,0,0,0,6.77-19.62A19.85,19.85,0,0,0,81,144.73l-1-.53.39-1.12a24.49,24.49,0,0,0,1.12-5,19.36,19.36,0,0,0-.12-5A21.59,21.59,0,0,0,80,128.18a18.86,18.86,0,0,0-2.65-4.42,19.17,19.17,0,0,0-8.38-6.17,18.22,18.22,0,0,0-10.54-.68Z"/><path d="M59.05,144c1.5-.65,2.69-1.25,3.79-1.72.54-.23,1.08-.42,1.61-.63a6.42,6.42,0,0,0,1.41-.79,9,9,0,0,0,2.1-2.42,5.25,5.25,0,0,0,.81-3.35A4.59,4.59,0,0,0,67,131.88a5.23,5.23,0,0,0-3.32-1.12,13.56,13.56,0,0,0-3.48.78c-1.28.37-2.56.74-3.85,1.07l1.21-1.91a38.33,38.33,0,0,1,1,6.12C58.76,139,58.89,141.29,59.05,144Zm-.16.26a56.24,56.24,0,0,1-2.44-5.9,50.59,50.59,0,0,1-2-6.91l-.31-1.62,1.52-.29c1.31-.24,2.62-.46,3.94-.67.68-.11,1.25-.21,2.07-.3a7,7,0,0,1,2.32.25,9,9,0,0,1,5.86,6,7.39,7.39,0,0,1,.25,4.48,6.43,6.43,0,0,1-2.8,3.73,7.21,7.21,0,0,1-2.18.89,17.62,17.62,0,0,1-2.27.29A28.25,28.25,0,0,1,58.89,144.21Z"/><path d="M64.92,170.09a73,73,0,0,1,9.41-3.38,7.25,7.25,0,0,0,3.38-2.25,5,5,0,0,0,1.16-4.22,5.07,5.07,0,0,0-2.64-3.66,5.55,5.55,0,0,0-4.26-.39l-1.14.34-1.22.35-2.44.67c-1.62.44-3.25.88-4.9,1.2l1.21-1.91a61.55,61.55,0,0,1,.86,6.19C64.55,165.2,64.72,167.5,64.92,170.09Zm-.16.26c-.77-1.75-1.57-3.8-2.34-6s-1.48-4.49-2.06-6.84L60,156l1.59-.4c1.63-.41,3.29-.71,4.94-1l2.5-.43,1.24-.21c.42-.06.82-.14,1.33-.18a7.3,7.3,0,0,1,5.36,1.72A8.44,8.44,0,0,1,79.81,160a9.34,9.34,0,0,1,.36,2.71,7.48,7.48,0,0,1-.65,2.81,6.54,6.54,0,0,1-4.46,3.72A49.38,49.38,0,0,1,64.76,170.35Z"/><path d="M121.89,104a32.19,32.19,0,0,1,13.24.44A33.92,33.92,0,0,1,155.71,119a33.23,33.23,0,0,1,4.36,25.63,34,34,0,0,1-5.3,11.71,34.35,34.35,0,0,1-9.28,8.89,33.15,33.15,0,0,1-25.6,4.36A33.88,33.88,0,0,1,99.31,155,33.23,33.23,0,0,1,95,129.38a33.93,33.93,0,0,1,14.59-20.6A32.22,32.22,0,0,1,121.89,104Zm2.3,13.24a19.64,19.64,0,0,0-7.45,2.88,21,21,0,0,0-5.6,5.3,19.94,19.94,0,0,0-3.21,7,20,20,0,0,0,2.62,15.39,20.34,20.34,0,0,0,12.39,8.76,20,20,0,0,0,15.43-2.62,19.89,19.89,0,0,0,5.55-5.33,20.85,20.85,0,0,0,3.16-7,19.93,19.93,0,0,0-2.62-15.39,20.08,20.08,0,0,0-12.29-8.69A19.45,19.45,0,0,0,124.19,117.23Z" fill="#f7ec41"/><path d="M121.86,103.84A35.94,35.94,0,0,1,147.38,109a32.37,32.37,0,0,1,9.56,9.52,31.36,31.36,0,0,1,4.8,12.69,33.13,33.13,0,0,1-.8,13.45,37.14,37.14,0,0,1-15.35,21.16,34,34,0,0,1-12.32,5.06,32.31,32.31,0,0,1-13.46,0,34.38,34.38,0,0,1-12.44-5.38,35.77,35.77,0,0,1-9.49-9.78,33.22,33.22,0,0,1,1.57-38.56A35.9,35.9,0,0,1,121.86,103.84Zm0,.3a31.8,31.8,0,0,0-6.27,1.78,29.19,29.19,0,0,0-5.71,3.1,32.74,32.74,0,0,0-8.87,9.23,35.87,35.87,0,0,0-4.75,11.68,32.92,32.92,0,0,0,4.2,24,32.85,32.85,0,0,0,8.49,9.17,33.19,33.19,0,0,0,24,6.1,30.36,30.36,0,0,0,12-4.3,30.93,30.93,0,0,0,12.42-14.53,34.93,34.93,0,0,0,1.85-6.16,31.64,31.64,0,0,0,0-12.64,33.88,33.88,0,0,0-4.55-11.68,37.07,37.07,0,0,0-8.43-9.42,33,33,0,0,0-11.45-5.76,28.88,28.88,0,0,0-6.41-1A32.39,32.39,0,0,0,121.91,104.14Z"/><path d="M124.21,117.38a16.74,16.74,0,0,0-7.13,3,19.62,19.62,0,0,0-5.16,5.6,21.85,21.85,0,0,0-2.72,6.89,20.62,20.62,0,0,0-.29,7.31,19.34,19.34,0,0,0,2.27,7.08,18.11,18.11,0,0,0,5,5.73,17.9,17.9,0,0,0,14.57,3,19.25,19.25,0,0,0,6.82-3,19.26,19.26,0,0,0,8-11.9,18.75,18.75,0,0,0,.2-7.2,19,19,0,0,0-2.42-6.81,22.72,22.72,0,0,0-4.74-5.67,19,19,0,0,0-6.68-3.6A16.92,16.92,0,0,0,124.21,117.38Zm0-.29a22.71,22.71,0,0,1,15.59,2.75,19.28,19.28,0,0,1,6,5.73,20.45,20.45,0,0,1,2.84,16.3,21.93,21.93,0,0,1-3.58,7.6,20.55,20.55,0,0,1-6.2,5.59,20,20,0,0,1-7.84,2.57,22.68,22.68,0,0,1-15.4-3.88,23.56,23.56,0,0,1-5.82-5.63,19.48,19.48,0,0,1-3.34-7.55,18.7,18.7,0,0,1,.17-8.35,18.93,18.93,0,0,1,3.76-7.39A23.17,23.17,0,0,1,124.16,117.09Z"/><path d="M197.53,93.36a32.26,32.26,0,0,1,13.19,1.26,34,34,0,0,1,19.62,15.88,33.21,33.21,0,0,1,2.75,25.85A34,34,0,0,1,217.24,156a33.19,33.19,0,0,1-25.82,2.74,33.87,33.87,0,0,1-19.62-15.88A33.2,33.2,0,0,1,169.05,117,33.91,33.91,0,0,1,184.9,97.37,32,32,0,0,1,197.53,93.36ZM199,106.72a19.31,19.31,0,0,0-7.61,2.41,20.73,20.73,0,0,0-5.92,4.93,19.86,19.86,0,0,0-3.64,6.77,19.93,19.93,0,0,0,1.65,15.53,20.39,20.39,0,0,0,11.82,9.52,19.43,19.43,0,0,0,8,.76,19.64,19.64,0,0,0,7.61-2.41,19.94,19.94,0,0,0,5.87-5,20.81,20.81,0,0,0,3.59-6.82,19.9,19.9,0,0,0-1.65-15.52,19.94,19.94,0,0,0-11.72-9.45A19.6,19.6,0,0,0,199,106.72Z" fill="#f7ec41"/><path d="M197.51,93.21a35.94,35.94,0,0,1,25.15,6.73,32.25,32.25,0,0,1,8.94,10.11,31.17,31.17,0,0,1,4,13A33.12,33.12,0,0,1,234,136.39a37.16,37.16,0,0,1-16.64,20.15,34,34,0,0,1-12.61,4.28,32.3,32.3,0,0,1-13.43-.89,34.43,34.43,0,0,1-12.09-6.14,35.81,35.81,0,0,1-8.85-10.36,33.2,33.2,0,0,1,4-38.38A35.89,35.89,0,0,1,197.51,93.21Zm0,.3a31.47,31.47,0,0,0-6.37,1.38,29.23,29.23,0,0,0-5.89,2.74,32.71,32.71,0,0,0-9.44,8.66,36.06,36.06,0,0,0-5.47,11.36,32.86,32.86,0,0,0,2.69,24.26,32.56,32.56,0,0,0,7.9,9.68,33.2,33.2,0,0,0,23.56,7.6,30.55,30.55,0,0,0,12.29-3.54,31,31,0,0,0,13.31-13.72,35.52,35.52,0,0,0,2.23-6,31.65,31.65,0,0,0,.76-12.62,33.88,33.88,0,0,0-3.82-12,37.13,37.13,0,0,0-7.81-9.93,33.44,33.44,0,0,0-11.07-6.47,29.72,29.72,0,0,0-6.34-1.43A32.39,32.39,0,0,0,197.54,93.51Z"/><path d="M199,106.87a16.76,16.76,0,0,0-7.31,2.52,19.41,19.41,0,0,0-5.49,5.26,21.88,21.88,0,0,0-3.16,6.7,20.73,20.73,0,0,0-.74,7.28,19.62,19.62,0,0,0,1.82,7.21,17.76,17.76,0,0,0,19,10,19.33,19.33,0,0,0,7-2.55,19.67,19.67,0,0,0,5.49-4.85,20,20,0,0,0,3.27-6.52,19.72,19.72,0,0,0-1.35-14.12,22.29,22.29,0,0,0-4.37-6,19,19,0,0,0-6.44-4A16.91,16.91,0,0,0,199,106.87Zm0-.3a22.73,22.73,0,0,1,15.38,3.73,19.18,19.18,0,0,1,5.66,6.09,20.36,20.36,0,0,1,1.81,16.45,21.92,21.92,0,0,1-4.05,7.36,20.54,20.54,0,0,1-6.54,5.19,20.05,20.05,0,0,1-8,2.07,22.75,22.75,0,0,1-15.13-4.83,23.45,23.45,0,0,1-5.45-6,19.54,19.54,0,0,1-2.86-7.74,18.58,18.58,0,0,1,4.91-15.46A23.17,23.17,0,0,1,199,106.57Z"/><path d="M269.88,154.68,254.94,121.8l1.51,33.48-13.34.6-3-66.95,14.39-.65,21.82,48.05,17.31-49.81,14.4-.65,3,66.95-13.34.6L296.19,120,284.27,154Z" fill="#f7ec41"/><path d="M269.8,154.8,262,138.64c-2.65-5.42-5.23-10.95-7.84-16.46l1.72-.42,1,16.73.89,16.73.07,1.27-1.28.06-13.34.65-1.31.07-.07-1.33q-.84-16.74-1.38-33.48l-1-33.5,0-.7h.68c4.8-.13,9.6-.31,14.4-.48l.35,0,.14.32q5.37,12,10.9,24l5.51,12,5.6,12-1.35.06,8.31-25,8.42-25,.29-.86.92,0,14.4-.72,1.42-.07.07,1.43,1.67,33.47.77,16.74.68,16.74.06,1.55-1.52.06-13.35.51-1.45,0-.05-1.43L295.08,120l2.16.31c-4.17,11.29-8.25,22.62-12.5,33.88l-.12.32h-.33Zm.15-.25,14.3-1-.44.33c3.7-11.46,7.56-22.86,11.33-34.29L297,114l.33,5.91,1.83,33.46L297.63,152l13.34-.69-1.47,1.6-.82-16.73-.75-16.74-1.34-33.49,1.5,1.37-14.4.57L294.9,87,286,111.78l-9,24.79-.63,1.73-.73-1.67-5.3-12.08-5.4-12q-5.37-12-10.91-24l.49.3c-4.8.26-9.6.52-14.39.82l.65-.71,2,33.45q1,16.72,1.63,33.47l-1.38-1.26,13.34-.55-1.21,1.33-.62-16.75L254,121.84l-.15-4.72,1.87,4.31c2.37,5.45,4.77,10.87,7.1,16.41Z"/><polygon points="239.42 0 244.93 5.17 251.55 1.53 248.34 8.37 253.85 13.54 246.35 12.6 243.13 19.44 241.72 12.01 234.22 11.07 240.84 7.42 239.42 0"/><polygon points="198.65 235 204.75 239.46 210.88 235.04 208.53 242.22 214.63 246.68 207.07 246.66 204.71 253.84 202.4 246.65 194.84 246.62 200.97 242.2 198.65 235"/><polygon points="35.15 187.18 37.88 193 44.25 192.21 39.56 196.6 42.28 202.42 36.66 199.31 31.96 203.7 33.18 197.39 27.56 194.28 33.94 193.49 35.15 187.18"/></g></g></svg>