<svg xmlns="http://www.w3.org/2000/svg" viewBox="0 0 317.53 241.28"><g id="Layer_2" data-name="Layer 2"><g id="Object"><path d="M300.56,87.36a1.79,1.79,0,0,0-.1-.35,1.77,1.77,0,0,0-2-1.09l.32,1.75Z"/><path d="M309.05,96.62a24.73,24.73,0,0,0-1.26-2.92,1.77,1.77,0,0,0,1.26,2.92Z"/><path d="M303.21,106.46a1.78,1.78,0,0,0-.53-2.91,1.88,1.88,0,0,0-1-.12l.63,3.51A1.81,1.81,0,0,0,303.21,106.46Z"/><path d="M299.12,89.42a1.72,1.72,0,0,0,.93-.47,1.77,1.77,0,0,0,.51-1.59l-1.75.31Z"/><path d="M276.73,55.49a1.7,1.7,0,0,0-.47-.92,1.79,1.79,0,0,0-2.91.52,1.88,1.88,0,0,0-.12,1Z"/><path d="M264.33,46.88a1.78,1.78,0,1,0,2.07,1.44A1.77,1.77,0,0,0,264.33,46.88Z"/><path d="M259.22,58.65a1.76,1.76,0,0,0-.47-.93,1.8,1.8,0,0,0-1.23-.53,1.45,1.45,0,0,0-.36,0l.31,1.75Z"/><path d="M254.63,43.21l.35-.1a1.78,1.78,0,0,0-.62-3.44,2.19,2.19,0,0,0-.36,0Z"/><path d="M298.49,85.92A1.78,1.78,0,0,0,297,87.63a2.19,2.19,0,0,0,0,.36l1.75-.32Z"/><path d="M281,89.08a1.78,1.78,0,0,0-1.46,1.71,2.16,2.16,0,0,0,0,.35l3.5-.63a1.91,1.91,0,0,0-.1-.34A1.78,1.78,0,0,0,281,89.08Z"/><path d="M277.82,71.57A1.78,1.78,0,1,0,279.89,73,1.78,1.78,0,0,0,277.82,71.57Z"/><path d="M270.65,81.9a1.78,1.78,0,1,0,2.07,1.44A1.78,1.78,0,0,0,270.65,81.9Z"/><path d="M286.72,80.81a1.78,1.78,0,0,0,3.53-.23,13.52,13.52,0,0,0-3,.16,16.19,16.19,0,0,0,.84-2A1.79,1.79,0,0,0,286.72,80.81Z"/><path d="M267.49,64.39a1.78,1.78,0,1,0,2.07,1.44A1.79,1.79,0,0,0,267.49,64.39Z"/><path d="M283.57,63.3a1.77,1.77,0,0,0,3.43.23,16.62,16.62,0,0,0-1.43-2.3,1.82,1.82,0,0,0-.57,0A1.77,1.77,0,0,0,283.57,63.3Z"/><path d="M263.83,92.21a1.46,1.46,0,0,0-.36,0l.32,1.75,1.75-.32a2,2,0,0,0-.1-.35A1.78,1.78,0,0,0,263.83,92.21Z"/><path d="M260.67,74.7a1.5,1.5,0,0,0-.36,0l.64,3.51a1.91,1.91,0,0,0,.34-.1,1.78,1.78,0,0,0-.62-3.43Z"/><path d="M273.49,56.78a1.78,1.78,0,0,0,3.23-.58,1.7,1.7,0,0,0,0-.71l-3.5.63A2,2,0,0,0,273.49,56.78Z"/><path d="M257.79,60.71a1.89,1.89,0,0,0,.34-.09,1.8,1.8,0,0,0,1.08-1.27,1.65,1.65,0,0,0,0-.7l-1.75.31Z"/><path d="M287.3,124.1a1.8,1.8,0,0,0-1.32,1,1.91,1.91,0,0,0-.12,1l3.5-.63a1.72,1.72,0,0,0-.47-.93A1.77,1.77,0,0,0,287.3,124.1Z"/><path d="M302.28,106.94l-.63-3.51a1.78,1.78,0,1,0,.63,3.51Z"/><path d="M284.14,106.59a1.78,1.78,0,1,0,2.07,1.43A1.79,1.79,0,0,0,284.14,106.59Z"/><path d="M279,118.36a1.78,1.78,0,1,0-1.44,2.07A1.78,1.78,0,0,0,279,118.36Z"/><path d="M294.47,113.76a1.78,1.78,0,1,0,2.07,1.44A1.78,1.78,0,0,0,294.47,113.76Z"/><path d="M273.81,99.41a1.78,1.78,0,1,0,.63,3.5,1.78,1.78,0,0,0-.63-3.5Z"/><path d="M291.32,96.25a1.78,1.78,0,1,0,2.06,1.44A1.79,1.79,0,0,0,291.32,96.25Z"/><path d="M271.85,128.69a1.7,1.7,0,0,0-.47-.92,1.77,1.77,0,0,0-1.23-.54,2.19,2.19,0,0,0-.36,0l.31,1.75Z"/><path d="M267.61,113.15a1.78,1.78,0,0,0-.62-3.43,2.19,2.19,0,0,0-.36,0l.63,3.5A2,2,0,0,0,267.61,113.15Z"/><path d="M299.12,89.42l-.31-1.75-1.75.32A1.77,1.77,0,0,0,299.12,89.42Z"/><path d="M281.61,92.58a1.79,1.79,0,0,0,1.44-2.07l-3.5.63A1.78,1.78,0,0,0,281.61,92.58Z"/><path d="M264.1,95.74l.35-.1a1.78,1.78,0,0,0,1.09-2l-1.75.32Z"/><path d="M293.61,159.12a1.79,1.79,0,0,0-1.46,1.71,2.19,2.19,0,0,0,0,.36l3.5-.63a2,2,0,0,0-.1-.35A1.78,1.78,0,0,0,293.61,159.12Z"/><path d="M291.09,145.11a1.78,1.78,0,1,0-2.07-1.43A1.77,1.77,0,0,0,291.09,145.11Z"/><path d="M283.28,151.94a1.78,1.78,0,1,0,2.07,1.44A1.79,1.79,0,0,0,283.28,151.94Z"/><path d="M300.79,148.79a1.77,1.77,0,0,0,.07,3.5c.17-1.16.31-2.34.39-3.52A1.78,1.78,0,0,0,300.79,148.79Z"/><path d="M280.12,134.43a1.78,1.78,0,1,0,2.07,1.44A1.77,1.77,0,0,0,280.12,134.43Z"/><path d="M298.26,134.78a1.75,1.75,0,0,0,1.13-.72,29.21,29.21,0,0,0-1.1-2.78,1.83,1.83,0,0,0-.66,0,1.78,1.78,0,0,0,.63,3.5Z"/><path d="M278.17,163.71a1.91,1.91,0,0,0-.1-.34,1.79,1.79,0,0,0-1.61-1.12,2.19,2.19,0,0,0-.36,0l.32,1.75Z"/><path d="M273.3,144.74l-.35,0,.63,3.5a1.33,1.33,0,0,0,.34-.1,1.78,1.78,0,0,0-.62-3.43Z"/><path d="M286.12,126.82a1.78,1.78,0,0,0,3.23-.58,1.65,1.65,0,0,0,0-.7l-3.5.63A2,2,0,0,0,286.12,126.82Z"/><path d="M270.1,129l.32,1.75a2,2,0,0,0,.35-.1,1.81,1.81,0,0,0,1.07-1.26,1.7,1.7,0,0,0,0-.71Z"/><path d="M285,171.52a1.78,1.78,0,1,0,3.5-.63,1.78,1.78,0,0,0-3.5.63Z"/><path d="M294.24,162.62a1.78,1.78,0,0,0,1.44-2.06l-3.5.63A1.76,1.76,0,0,0,294.24,162.62Z"/><path d="M276.73,165.78a1.4,1.4,0,0,0,.35-.1,1.78,1.78,0,0,0,1.09-2l-1.75.32Z"/><path d="M235.4,26.78a1.91,1.91,0,0,0-.1-.34,1.78,1.78,0,0,0-3.43.62,1.54,1.54,0,0,0,0,.36Z"/><path d="M225.06,19.61a1.78,1.78,0,1,0-1.43,2.06A1.78,1.78,0,0,0,225.06,19.61Z"/><path d="M217.89,29.94a2.75,2.75,0,0,0-.1-.34,1.79,1.79,0,0,0-.94-1,1.71,1.71,0,0,0-1-.12l.32,1.75Z"/><path d="M257.47,59l-.31-1.75a2,2,0,0,0-.66.26,1.79,1.79,0,0,0-.66.78,1.88,1.88,0,0,0-.12,1Z"/><path d="M241.71,61.81a1.72,1.72,0,0,0-.47-.93,1.79,1.79,0,0,0-2.91.52,1.91,1.91,0,0,0-.12,1Z"/><path d="M253.34,40a1.78,1.78,0,0,0,.58,3.23,1.88,1.88,0,0,0,.71,0L254,39.7A2.12,2.12,0,0,0,253.34,40Z"/><path d="M237.12,46.36a1.78,1.78,0,1,0-2.07-1.43A1.78,1.78,0,0,0,237.12,46.36Z"/><path d="M229.94,56.7a1.78,1.78,0,1,0-2.06-1.44A1.79,1.79,0,0,0,229.94,56.7Z"/><path d="M248.89,51.47a1.78,1.78,0,1,0-1.44,2.07A1.79,1.79,0,0,0,248.89,51.47Z"/><path d="M226.79,39.19a1.78,1.78,0,1,0-2.07-1.44A1.78,1.78,0,0,0,226.79,39.19Z"/><path d="M242.23,34.59a1.78,1.78,0,1,0,1.43-2.07A1.78,1.78,0,0,0,242.23,34.59Z"/><path d="M224.2,65a1.7,1.7,0,0,0-.47-.92,1.82,1.82,0,0,0-.56-.39,1.71,1.71,0,0,0-1-.12l.31,1.75Z"/><path d="M220.53,49a1.78,1.78,0,0,0-.52-2.9,1.71,1.71,0,0,0-1-.12l.63,3.5A1.71,1.71,0,0,0,220.53,49Z"/><path d="M234,28.85a1.78,1.78,0,0,0,1.44-2.07l-3.5.64A1.77,1.77,0,0,0,234,28.85Z"/><path d="M216.45,32a1.85,1.85,0,0,0,.93-.48,1.77,1.77,0,0,0,.51-1.59l-1.75.32Z"/><path d="M263.47,92.24a1.62,1.62,0,0,0-.65.26,1.74,1.74,0,0,0-.81,1.44,1.46,1.46,0,0,0,0,.36l1.75-.31Z"/><path d="M246,95.39a1.78,1.78,0,0,0-1.46,1.71,1.46,1.46,0,0,0,0,.36l3.5-.63a2,2,0,0,0-.1-.35A1.78,1.78,0,0,0,246,95.39Z"/><path d="M259.66,75a1.77,1.77,0,0,0,.58,3.22,1.87,1.87,0,0,0,.71,0l-.64-3.51A1.79,1.79,0,0,0,259.66,75Z"/><path d="M243.44,81.39A1.78,1.78,0,1,0,241.37,80,1.79,1.79,0,0,0,243.44,81.39Z"/><path d="M236.26,91.72a1.78,1.78,0,1,0-2.07-1.44A1.78,1.78,0,0,0,236.26,91.72Z"/><path d="M253.77,88.56a1.78,1.78,0,1,0-2.07-1.43A1.78,1.78,0,0,0,253.77,88.56Z"/><path d="M233.1,74.21A1.78,1.78,0,1,0,231,72.77,1.79,1.79,0,0,0,233.1,74.21Z"/><path d="M250.61,71.05a1.78,1.78,0,1,0-2.07-1.43A1.78,1.78,0,0,0,250.61,71.05Z"/><path d="M230.52,100a1.79,1.79,0,0,0-.1-.35,1.82,1.82,0,0,0-.94-1,1.88,1.88,0,0,0-1-.12l.32,1.75Z"/><path d="M226.85,84.07a1.79,1.79,0,0,0-.52-2.91,1.74,1.74,0,0,0-1-.12l.64,3.5A1.73,1.73,0,0,0,226.85,84.07Z"/><path d="M255.72,59.28a1.9,1.9,0,0,0,.26.66,1.8,1.8,0,0,0,1.1.76,1.7,1.7,0,0,0,.71,0L257.47,59Z"/><path d="M238.47,63.09a1.78,1.78,0,0,0,3.23-.58,1.65,1.65,0,0,0,0-.7l-3.5.63A1.78,1.78,0,0,0,238.47,63.09Z"/><path d="M222.77,67a1.81,1.81,0,0,0,1.42-1.36,1.69,1.69,0,0,0,0-.71l-1.75.32Z"/><path d="M269.79,127.26a1.66,1.66,0,0,0-.66.26,1.82,1.82,0,0,0-.66.77,1.88,1.88,0,0,0-.12,1l1.75-.31Z"/><path d="M253.87,130.93a1.79,1.79,0,0,0-2.91.52,1.88,1.88,0,0,0-.12,1l3.5-.63A1.7,1.7,0,0,0,253.87,130.93Z"/><path d="M265.19,111.81a1.8,1.8,0,0,0,1.36,1.43,1.88,1.88,0,0,0,.71,0l-.63-3.5a1.72,1.72,0,0,0-.66.26A1.78,1.78,0,0,0,265.19,111.81Z"/><path d="M249.12,112.9a1.78,1.78,0,1,0,2.07,1.44A1.79,1.79,0,0,0,249.12,112.9Z"/><path d="M241.94,123.24a1.78,1.78,0,1,0,2.07,1.43A1.77,1.77,0,0,0,241.94,123.24Z"/><path d="M259.45,120.08a1.78,1.78,0,1,0,2.07,1.44A1.78,1.78,0,0,0,259.45,120.08Z"/><path d="M238.78,105.73a1.78,1.78,0,1,0,2.07,1.43A1.78,1.78,0,0,0,238.78,105.73Z"/><path d="M256.3,102.57a1.78,1.78,0,1,0,2.06,1.44A1.78,1.78,0,0,0,256.3,102.57Z"/><path d="M236.83,135a1.76,1.76,0,0,0-.47-.93,1.84,1.84,0,0,0-1.59-.51l.31,1.75Z"/><path d="M232.64,116.18a1.88,1.88,0,0,0-1-.12l.63,3.51a1.85,1.85,0,0,0,.93-.48,1.83,1.83,0,0,0,.51-1.59A1.79,1.79,0,0,0,232.64,116.18Z"/><path d="M262,94.3a1.76,1.76,0,0,0,1.36,1.42,1.82,1.82,0,0,0,.7,0L263.79,94Z"/><path d="M246.59,98.89A1.78,1.78,0,0,0,248,96.83l-3.5.63A1.76,1.76,0,0,0,246.59,98.89Z"/><path d="M228.77,100.3l.31,1.75a1.76,1.76,0,0,0,1.44-2.06Z"/><path d="M276.1,162.28a1.62,1.62,0,0,0-.65.26,1.77,1.77,0,0,0-.81,1.45,2.19,2.19,0,0,0,0,.36l1.75-.32Z"/><path d="M258.59,165.44a1.77,1.77,0,0,0-1.46,1.7,2.19,2.19,0,0,0,0,.36l3.5-.63a1.91,1.91,0,0,0-.1-.34A1.78,1.78,0,0,0,258.59,165.44Z"/><path d="M272.29,145a1.78,1.78,0,0,0,.58,3.23,1.69,1.69,0,0,0,.71,0l-.63-3.5A1.61,1.61,0,0,0,272.29,145Z"/><path d="M255.43,147.93a1.78,1.78,0,1,0,2.07,1.43A1.78,1.78,0,0,0,255.43,147.93Z"/><path d="M248.26,158.26a1.78,1.78,0,1,0,.63,3.5,1.78,1.78,0,0,0-.63-3.5Z"/><path d="M265.77,155.1a1.78,1.78,0,1,0,2.07,1.44A1.79,1.79,0,0,0,265.77,155.1Z"/><path d="M245.1,140.75a1.78,1.78,0,1,0,2.07,1.44A1.77,1.77,0,0,0,245.1,140.75Z"/><path d="M262.61,137.59a1.78,1.78,0,1,0,2.07,1.44A1.77,1.77,0,0,0,262.61,137.59Z"/><path d="M243.15,170a2,2,0,0,0-.1-.35,1.77,1.77,0,0,0-.94-1,1.71,1.71,0,0,0-1-.12l.32,1.75Z"/><path d="M239,151.21a1.83,1.83,0,0,0-1-.13l.64,3.51a1.78,1.78,0,0,0,.4-3.38Z"/><path d="M268.35,129.32a1.94,1.94,0,0,0,.26.66,1.76,1.76,0,0,0,1.1.76,1.7,1.7,0,0,0,.71,0L270.1,129Z"/><path d="M250.84,132.48a2.12,2.12,0,0,0,.26.66,1.78,1.78,0,0,0,3.23-.58,1.7,1.7,0,0,0,0-.71Z"/><path d="M235.08,135.32l.32,1.75a1.7,1.7,0,0,0,.92-.47,1.8,1.8,0,0,0,.5-.89,1.65,1.65,0,0,0,0-.7Z"/><path d="M260.31,185a1.77,1.77,0,0,0,.27.66,11.14,11.14,0,0,0,.9-2.64A1.78,1.78,0,0,0,260.31,185Z"/><path d="M250,177.84a1.78,1.78,0,1,0,1.43-2.07A1.79,1.79,0,0,0,250,177.84Z"/><path d="M267.49,174.68a1.78,1.78,0,1,0,1.44-2.07A1.78,1.78,0,0,0,267.49,174.68Z"/><path d="M245.27,186.23a1.71,1.71,0,0,0-1-.12l.63,3.5a1.85,1.85,0,0,0,.93-.48,1.82,1.82,0,0,0,.51-1.59A1.79,1.79,0,0,0,245.27,186.23Z"/><path d="M276.42,164l-1.75.32a1.79,1.79,0,0,0,1.36,1.42,1.83,1.83,0,0,0,.7,0Z"/><path d="M259.22,168.94a1.79,1.79,0,0,0,1.44-2.07l-3.5.63A1.78,1.78,0,0,0,259.22,168.94Z"/><path d="M241.4,170.35l.31,1.75a1.81,1.81,0,0,0,.93-.48,1.77,1.77,0,0,0,.51-1.59Z"/><path d="M216.14,30.26l-.32-1.75a1.77,1.77,0,0,0-1.46,1.7,1.45,1.45,0,0,0,0,.36Z"/><path d="M200.38,33.1a2,2,0,0,0-.1-.35,1.78,1.78,0,0,0-3.43.62,1.45,1.45,0,0,0,0,.36Z"/><path d="M190,25.92a1.78,1.78,0,0,0-3.5.63,1.78,1.78,0,1,0,3.5-.63Z"/><path d="M207.55,22.77a1.78,1.78,0,1,0-1.43,2.06A1.77,1.77,0,0,0,207.55,22.77Z"/><path d="M182.87,36.26a3.57,3.57,0,0,0-.1-.35,1.8,1.8,0,0,0-1.61-1.12,2.19,2.19,0,0,0-.36,0l.32,1.75Z"/><path d="M178.62,20.71a1.77,1.77,0,0,0,1.09-2,2,2,0,0,0-.11-.37c-.56.15-1.12.31-1.68.49l.35,1.94A1.4,1.4,0,0,0,178.62,20.71Z"/><path d="M222.45,65.28l-.31-1.75a1.78,1.78,0,0,0-1.32,1,1.72,1.72,0,0,0-.12,1Z"/><path d="M206.69,68.12a1.7,1.7,0,0,0-.47-.92,1.79,1.79,0,0,0-2.91.52,1.71,1.71,0,0,0-.12,1Z"/><path d="M219.61,49.52,219,46a1.78,1.78,0,1,0,.63,3.5Z"/><path d="M202.1,52.68A1.78,1.78,0,1,0,200,51.24,1.77,1.77,0,0,0,202.1,52.68Z"/><path d="M194.92,63a1.78,1.78,0,1,0-2.06-1.43A1.78,1.78,0,0,0,194.92,63Z"/><path d="M212.43,59.85a1.78,1.78,0,1,0-2.06-1.43A1.78,1.78,0,0,0,212.43,59.85Z"/><path d="M191.76,45.5a1.78,1.78,0,1,0-2.06-1.43A1.78,1.78,0,0,0,191.76,45.5Z"/><path d="M209.28,42.34a1.78,1.78,0,1,0-2.07-1.43A1.77,1.77,0,0,0,209.28,42.34Z"/><path d="M189.18,71.28a1.83,1.83,0,0,0-.47-.93,1.81,1.81,0,0,0-1.24-.53,1.5,1.5,0,0,0-.36,0l.32,1.75Z"/><path d="M184.94,55.74a1.79,1.79,0,0,0-.62-3.44l-.36,0,.63,3.51Z"/><path d="M214.38,30.57A1.79,1.79,0,0,0,216.45,32l-.31-1.75Z"/><path d="M198.94,35.16a1.77,1.77,0,0,0,1.44-2.06l-3.51.63A1.77,1.77,0,0,0,198.94,35.16Z"/><path d="M181.43,38.32a1.4,1.4,0,0,0,.35-.1,1.77,1.77,0,0,0,1.09-2l-1.75.31Z"/><path d="M228.45,98.55a1.77,1.77,0,0,0-1.46,1.71,1.1,1.1,0,0,0,0,.36l1.75-.32Z"/><path d="M210.94,101.71a1.77,1.77,0,0,0-1.46,1.71,1.06,1.06,0,0,0,0,.35l3.5-.63a1.91,1.91,0,0,0-.1-.34A1.78,1.78,0,0,0,210.94,101.71Z"/><path d="M225.93,84.54l-.64-3.5a1.78,1.78,0,0,0,.64,3.5Z"/><path d="M208.41,87.7a1.78,1.78,0,1,0-.63-3.5,1.78,1.78,0,0,0,.63,3.5Z"/><path d="M201.24,98a1.78,1.78,0,1,0-2.07-1.43A1.77,1.77,0,0,0,201.24,98Z"/><path d="M218.75,94.88a1.78,1.78,0,1,0-2.07-1.44A1.77,1.77,0,0,0,218.75,94.88Z"/><path d="M198.08,80.52A1.78,1.78,0,1,0,196,79.09,1.78,1.78,0,0,0,198.08,80.52Z"/><path d="M215.59,77.37a1.78,1.78,0,1,0-2.07-1.44A1.79,1.79,0,0,0,215.59,77.37Z"/><path d="M193.79,104.84a1.46,1.46,0,0,0-.36,0l.32,1.75,1.75-.32a3.57,3.57,0,0,0-.1-.35A1.79,1.79,0,0,0,193.79,104.84Z"/><path d="M191.25,90.76a1.78,1.78,0,0,0-.62-3.43,1.45,1.45,0,0,0-.36,0l.63,3.51A1.79,1.79,0,0,0,191.25,90.76Z"/><path d="M220.7,65.59a1.61,1.61,0,0,0,.26.66,1.79,1.79,0,0,0,1.81.78l-.32-1.75Z"/><path d="M203.45,69.41a1.78,1.78,0,0,0,3.23-.58,1.7,1.7,0,0,0,0-.71l-3.5.63A1.66,1.66,0,0,0,203.45,69.41Z"/><path d="M187.75,73.34a1.89,1.89,0,0,0,.34-.09A1.8,1.8,0,0,0,189.17,72a1.83,1.83,0,0,0,0-.7l-1.75.31Z"/><path d="M234.77,133.57a1.77,1.77,0,0,0-1.32,1,1.79,1.79,0,0,0-.12,1l1.75-.32Z"/><path d="M218.85,137.24a1.79,1.79,0,0,0-2.91.52,1.82,1.82,0,0,0-.12,1l3.5-.63A1.72,1.72,0,0,0,218.85,137.24Z"/><path d="M230.17,118.13a1.8,1.8,0,0,0,2.07,1.44l-.63-3.51A1.79,1.79,0,0,0,230.17,118.13Z"/><path d="M214.1,119.22a1.78,1.78,0,1,0,2.07,1.43A1.78,1.78,0,0,0,214.1,119.22Z"/><path d="M206.92,129.55A1.78,1.78,0,1,0,209,131,1.77,1.77,0,0,0,206.92,129.55Z"/><path d="M224.43,126.4a1.76,1.76,0,0,0-1.43,2.06,1.78,1.78,0,1,0,1.43-2.06Z"/><path d="M203.76,112a1.78,1.78,0,1,0,2.07,1.44A1.78,1.78,0,0,0,203.76,112Z"/><path d="M221.27,108.88a1.78,1.78,0,1,0,2.07,1.44A1.78,1.78,0,0,0,221.27,108.88Z"/><path d="M201.81,141.32a1.7,1.7,0,0,0-.47-.92,1.77,1.77,0,0,0-1.24-.54l-.35,0,.31,1.75Z"/><path d="M197,122.35a2.19,2.19,0,0,0-.36,0l.63,3.5a2,2,0,0,0,.35-.1,1.78,1.78,0,0,0-.62-3.43Z"/><path d="M227,100.62a1.77,1.77,0,0,0,2.06,1.43l-.31-1.75Z"/><path d="M211.57,105.21a1.79,1.79,0,0,0,1.44-2.07l-3.5.63A1.77,1.77,0,0,0,211.57,105.21Z"/><path d="M194.06,108.37l.35-.1a1.78,1.78,0,0,0,1.09-2l-1.75.32Z"/><path d="M241.08,168.6a1.78,1.78,0,0,0-1.46,1.7,1.46,1.46,0,0,0,0,.36l1.75-.31Z"/><path d="M223.57,171.75a1.78,1.78,0,0,0-1.46,1.71,1.46,1.46,0,0,0,0,.36l3.5-.63a2,2,0,0,0-.1-.35A1.78,1.78,0,0,0,223.57,171.75Z"/><path d="M236.49,153.15a1.78,1.78,0,0,0,2.07,1.44l-.64-3.51A1.78,1.78,0,0,0,236.49,153.15Z"/><path d="M220.41,154.24a1.78,1.78,0,1,0,2.07,1.44A1.78,1.78,0,0,0,220.41,154.24Z"/><path d="M213.24,164.57A1.78,1.78,0,1,0,215.3,166,1.79,1.79,0,0,0,213.24,164.57Z"/><path d="M230.75,161.42a1.78,1.78,0,1,0,2.07,1.43A1.78,1.78,0,0,0,230.75,161.42Z"/><path d="M210.08,147.06a1.78,1.78,0,1,0,2.07,1.44A1.79,1.79,0,0,0,210.08,147.06Z"/><path d="M227.59,143.91a1.78,1.78,0,1,0,2.07,1.43A1.78,1.78,0,0,0,227.59,143.91Z"/><path d="M206.42,174.88a2.19,2.19,0,0,0-.36,0l.32,1.75,1.75-.31a1.78,1.78,0,0,0-1.71-1.47Z"/><path d="M203.26,157.37a2.19,2.19,0,0,0-.36,0l.63,3.5a1.29,1.29,0,0,0,.35-.1,1.78,1.78,0,0,0-.62-3.43Z"/><path d="M233.33,135.64a1.72,1.72,0,0,0,.26.66,1.78,1.78,0,0,0,1.81.77l-.32-1.75Z"/><path d="M215.82,138.8a1.62,1.62,0,0,0,.26.65,1.78,1.78,0,0,0,3.23-.58,1.65,1.65,0,0,0,0-.7Z"/><path d="M200.06,141.64l.32,1.75a1.91,1.91,0,0,0,.34-.1A1.8,1.8,0,0,0,201.8,142a1.7,1.7,0,0,0,0-.71Z"/><path d="M242.8,188.17a1.79,1.79,0,0,0,2.07,1.44l-.63-3.5A1.78,1.78,0,0,0,242.8,188.17Z"/><path d="M227.36,192.77a1.78,1.78,0,1,0-2.07-1.44A1.79,1.79,0,0,0,227.36,192.77Z"/><path d="M221.62,201a1.78,1.78,0,1,0-1.44,2.07A1.78,1.78,0,0,0,221.62,201Z"/><path d="M215,184.15a1.78,1.78,0,1,0,1.43-2.06A1.78,1.78,0,0,0,215,184.15Z"/><path d="M232.47,181a1.78,1.78,0,1,0,1.43-2.07A1.78,1.78,0,0,0,232.47,181Z"/><path d="M214.44,211.37a1.72,1.72,0,0,0-.47-.93,1.86,1.86,0,0,0-1.23-.54,2.19,2.19,0,0,0-.36,0l.31,1.75Z"/><path d="M210.2,195.83a1.79,1.79,0,0,0-.62-3.44l-.36,0,.63,3.5A2,2,0,0,0,210.2,195.83Z"/><path d="M239.65,170.66a1.78,1.78,0,0,0,2.06,1.44l-.31-1.75Z"/><path d="M224.2,175.25a1.78,1.78,0,0,0,1.44-2.06l-3.5.63A1.76,1.76,0,0,0,224.2,175.25Z"/><path d="M206.69,178.41a1.4,1.4,0,0,0,.35-.1,1.78,1.78,0,0,0,1.09-2l-1.75.31Z"/><path d="M213,213.43a1.33,1.33,0,0,0,.34-.1,1.78,1.78,0,0,0,1.08-1.26,1.65,1.65,0,0,0,0-.7l-1.75.31Z"/><path d="M181.12,36.57l-.32-1.75a2.12,2.12,0,0,0-.66.26,1.79,1.79,0,0,0-.8,1.45,1.45,1.45,0,0,0,0,.36Z"/><path d="M165.36,39.41a3.37,3.37,0,0,0-.1-.34,1.79,1.79,0,0,0-2-1.09,1.76,1.76,0,0,0-1.46,1.71,1.5,1.5,0,0,0,0,.36Z"/><path d="M177.57,20.8a1.65,1.65,0,0,0,.7,0l-.35-1.94c-.57.18-1.13.37-1.69.58A1.76,1.76,0,0,0,177.57,20.8Z"/><path d="M158.7,22.53a1.78,1.78,0,0,0,3.5-.61c-.37-.47-.75-.92-1.13-1.36a1.77,1.77,0,0,0-2.37,2Z"/><path d="M153.59,34.3a1.78,1.78,0,1,0-2.07-1.43A1.77,1.77,0,0,0,153.59,34.3Z"/><path d="M172.53,29.08a1.78,1.78,0,1,0-1.43,2.07A1.78,1.78,0,0,0,172.53,29.08Z"/><path d="M150.43,16.79a1.78,1.78,0,1,0-2.07-1.43A1.77,1.77,0,0,0,150.43,16.79Z"/><path d="M147.84,42.57a1.69,1.69,0,0,0-.09-.34,1.79,1.79,0,0,0-.94-1,1.71,1.71,0,0,0-1-.12l.31,1.75Z"/><path d="M143.65,23.75a1.71,1.71,0,0,0-1-.12l.63,3.5a1.81,1.81,0,0,0,.93-.48,1.77,1.77,0,0,0-.53-2.9Z"/><path d="M141,9.14a1.76,1.76,0,0,0,.41-.63c-.53-.14-1.07-.28-1.61-.4l.27,1.51A1.81,1.81,0,0,0,141,9.14Z"/><path d="M187.43,71.59l-.32-1.75a2,2,0,0,0-.65.26,1.79,1.79,0,0,0-.66.78,1.71,1.71,0,0,0-.12,1Z"/><path d="M171.67,74.44a1.78,1.78,0,0,0-3.38-.41,1.74,1.74,0,0,0-.12,1Z"/><path d="M183.88,55.82a1.88,1.88,0,0,0,.71,0L184,52.33a2,2,0,0,0-.66.26,1.78,1.78,0,0,0,.58,3.23Z"/><path d="M167.08,59A1.78,1.78,0,1,0,165,57.56,1.77,1.77,0,0,0,167.08,59Z"/><path d="M159.9,69.33a1.78,1.78,0,1,0-2.06-1.44A1.79,1.79,0,0,0,159.9,69.33Z"/><path d="M177.41,66.17a1.78,1.78,0,1,0-2.07-1.44A1.79,1.79,0,0,0,177.41,66.17Z"/><path d="M156.74,51.82a1.78,1.78,0,1,0-2.06-1.44A1.79,1.79,0,0,0,156.74,51.82Z"/><path d="M174.25,48.66a1.78,1.78,0,1,0-2.06-1.44A1.79,1.79,0,0,0,174.25,48.66Z"/><path d="M154.16,77.59a1.78,1.78,0,0,0-.48-.92,1.67,1.67,0,0,0-.55-.39,1.74,1.74,0,0,0-1-.12l.32,1.75Z"/><path d="M150,58.77a1.71,1.71,0,0,0-1-.12l.63,3.5a1.71,1.71,0,0,0,.92-.48,1.76,1.76,0,0,0,.51-1.59A1.78,1.78,0,0,0,150,58.77Z"/><path d="M179.36,36.89a1.79,1.79,0,0,0,1.36,1.42,1.7,1.7,0,0,0,.71,0l-.31-1.75Z"/><path d="M163.92,41.48a1.78,1.78,0,0,0,1.44-2.07l-3.51.64A1.79,1.79,0,0,0,163.92,41.48Z"/><path d="M146.41,44.64a1.79,1.79,0,0,0,1.43-2.07l-1.75.32Z"/><path d="M193.43,104.87a1.72,1.72,0,0,0-.66.26,1.76,1.76,0,0,0-.8,1.44,1.45,1.45,0,0,0,0,.36l1.76-.31Z"/><path d="M175.92,108a1.78,1.78,0,0,0-1.46,1.71,1.45,1.45,0,0,0,0,.36l3.51-.63a3.57,3.57,0,0,0-.1-.35A1.78,1.78,0,0,0,175.92,108Z"/><path d="M190.2,90.84a1.82,1.82,0,0,0,.7,0l-.63-3.51a1.79,1.79,0,0,0-.65.27,1.77,1.77,0,0,0,.58,3.22Z"/><path d="M173.39,94a1.78,1.78,0,1,0-.63-3.51,1.78,1.78,0,0,0,.63,3.51Z"/><path d="M166.22,104.35a1.78,1.78,0,1,0-2.07-1.44A1.78,1.78,0,0,0,166.22,104.35Z"/><path d="M183.73,101.19a1.78,1.78,0,1,0-2.07-1.43A1.77,1.77,0,0,0,183.73,101.19Z"/><path d="M163.06,86.84A1.78,1.78,0,1,0,161,85.4,1.77,1.77,0,0,0,163.06,86.84Z"/><path d="M180.57,83.68a1.78,1.78,0,1,0-2.07-1.43A1.78,1.78,0,0,0,180.57,83.68Z"/><path d="M160.48,112.62a2.92,2.92,0,0,0-.1-.35,1.82,1.82,0,0,0-.94-1,1.88,1.88,0,0,0-1-.12l.31,1.75Z"/><path d="M156.81,96.7a1.78,1.78,0,0,0-.53-2.91,1.71,1.71,0,0,0-1-.12l.63,3.5A1.72,1.72,0,0,0,156.81,96.7Z"/><path d="M185.68,71.91a1.72,1.72,0,0,0,.26.66,1.8,1.8,0,0,0,1.1.76,1.69,1.69,0,0,0,.71,0l-.32-1.75Z"/><path d="M168.43,75.72a1.78,1.78,0,0,0,3.23-.58,1.83,1.83,0,0,0,0-.7l-3.5.63A1.62,1.62,0,0,0,168.43,75.72Z"/><path d="M152.73,79.66a1.82,1.82,0,0,0,.92-.48,1.73,1.73,0,0,0,.5-.88,1.88,1.88,0,0,0,0-.71l-1.75.32Z"/><path d="M199.75,139.89a1.61,1.61,0,0,0-.66.26,1.82,1.82,0,0,0-.66.77,1.72,1.72,0,0,0-.12,1l1.75-.31Z"/><path d="M183.83,143.56a1.79,1.79,0,0,0-1.6-.51,1.76,1.76,0,0,0-1.31,1,1.71,1.71,0,0,0-.12,1l3.5-.63A1.7,1.7,0,0,0,183.83,143.56Z"/><path d="M195.93,122.64a1.78,1.78,0,0,0-.78,1.8,1.8,1.8,0,0,0,1.36,1.43,1.88,1.88,0,0,0,.71,0l-.63-3.5A1.66,1.66,0,0,0,195.93,122.64Z"/><path d="M179.08,125.53a1.78,1.78,0,1,0,2.06,1.44A1.79,1.79,0,0,0,179.08,125.53Z"/><path d="M171.9,135.87A1.78,1.78,0,1,0,174,137.3,1.77,1.77,0,0,0,171.9,135.87Z"/><path d="M189.41,132.71a1.78,1.78,0,1,0,2.07,1.44A1.79,1.79,0,0,0,189.41,132.71Z"/><path d="M168.74,118.36a1.78,1.78,0,1,0,2.07,1.43A1.77,1.77,0,0,0,168.74,118.36Z"/><path d="M186.25,115.2a1.78,1.78,0,1,0,2.07,1.44A1.78,1.78,0,0,0,186.25,115.2Z"/><path d="M166.79,147.64a1.83,1.83,0,0,0-.47-.93,1.79,1.79,0,0,0-.56-.38,1.83,1.83,0,0,0-1-.13L165,148Z"/><path d="M162.6,128.81a1.88,1.88,0,0,0-1-.12l.63,3.51a1.79,1.79,0,0,0,1.43-2.07A1.8,1.8,0,0,0,162.6,128.81Z"/><path d="M192,106.93a1.79,1.79,0,0,0,1.36,1.42,1.88,1.88,0,0,0,.71,0l-.31-1.75Z"/><path d="M176.55,111.52a1.78,1.78,0,0,0,1.44-2.06l-3.51.63A1.77,1.77,0,0,0,176.55,111.52Z"/><path d="M158.72,112.93l.32,1.75a1.76,1.76,0,0,0,.93-.47,1.83,1.83,0,0,0,.51-1.59Z"/><path d="M206.06,174.91a1.72,1.72,0,0,0-.66.26,1.79,1.79,0,0,0-.8,1.45,1.45,1.45,0,0,0,0,.36l1.76-.32Z"/><path d="M188.55,178.07a1.77,1.77,0,0,0-1.46,1.7,1.1,1.1,0,0,0,0,.36l3.5-.63a1.91,1.91,0,0,0-.1-.34A1.78,1.78,0,0,0,188.55,178.07Z"/><path d="M202.25,157.66a1.78,1.78,0,0,0,.58,3.23,1.65,1.65,0,0,0,.7,0l-.63-3.5A1.62,1.62,0,0,0,202.25,157.66Z"/><path d="M185.39,160.56a1.78,1.78,0,0,0,.63,3.5,1.78,1.78,0,1,0-.63-3.5Z"/><path d="M178.22,170.89a1.78,1.78,0,1,0,2.06,1.44A1.78,1.78,0,0,0,178.22,170.89Z"/><path d="M195.73,167.73a1.78,1.78,0,1,0,2.06,1.44A1.79,1.79,0,0,0,195.73,167.73Z"/><path d="M175.06,153.38a1.78,1.78,0,1,0,2.07,1.44A1.78,1.78,0,0,0,175.06,153.38Z"/><path d="M192.57,150.22a1.78,1.78,0,1,0,2.07,1.44A1.79,1.79,0,0,0,192.57,150.22Z"/><path d="M172.07,181.35a1.71,1.71,0,0,0-1-.12l.32,1.75,1.75-.32a3.57,3.57,0,0,0-.1-.35A1.77,1.77,0,0,0,172.07,181.35Z"/><path d="M168.91,163.84a1.79,1.79,0,0,0-1-.13l.63,3.51a1.81,1.81,0,0,0,.93-.48,1.77,1.77,0,0,0,.51-1.59A1.76,1.76,0,0,0,168.91,163.84Z"/><path d="M198.31,142a1.61,1.61,0,0,0,.26.66,1.76,1.76,0,0,0,1.1.76,1.69,1.69,0,0,0,.71,0l-.32-1.75Z"/><path d="M180.8,145.11a1.72,1.72,0,0,0,.26.66,1.78,1.78,0,0,0,3.23-.58,1.7,1.7,0,0,0,0-.71Z"/><path d="M165,148l.32,1.75a1.7,1.7,0,0,0,.92-.47,1.8,1.8,0,0,0,.5-.89,1.83,1.83,0,0,0,0-.7Z"/><path d="M212.38,209.93a1.94,1.94,0,0,0-.66.26,1.79,1.79,0,0,0-.66.78,1.71,1.71,0,0,0-.12,1l1.75-.32Z"/><path d="M194.87,213.09a1.78,1.78,0,0,0-1.32,1,1.74,1.74,0,0,0-.12,1l3.5-.64a1.73,1.73,0,0,0-.47-.92A1.77,1.77,0,0,0,194.87,213.09Z"/><path d="M209.22,192.42a2,2,0,0,0-.66.26,1.78,1.78,0,0,0,.58,3.23,1.7,1.7,0,0,0,.71,0Z"/><path d="M191.71,195.58a1.78,1.78,0,1,0,2.06,1.43A1.78,1.78,0,0,0,191.71,195.58Z"/><path d="M186.6,207.35a1.78,1.78,0,1,0-1.44,2.07A1.79,1.79,0,0,0,186.6,207.35Z"/><path d="M202,202.75a1.78,1.78,0,1,0,2.07,1.44A1.77,1.77,0,0,0,202,202.75Z"/><path d="M181.37,188.4a1.78,1.78,0,1,0,2.07,1.44A1.78,1.78,0,0,0,181.37,188.4Z"/><path d="M198.88,185.24a1.78,1.78,0,1,0,2.07,1.44A1.78,1.78,0,0,0,198.88,185.24Z"/><path d="M175.75,201.76a1.78,1.78,0,0,0-.52-2.9,1.71,1.71,0,0,0-1-.12l.63,3.5A1.78,1.78,0,0,0,175.75,201.76Z"/><path d="M204.62,177a1.77,1.77,0,0,0,2.07,1.43l-.31-1.75Z"/><path d="M189.18,181.57a1.79,1.79,0,0,0,1.44-2.07l-3.5.63A1.77,1.77,0,0,0,189.18,181.57Z"/><path d="M171.67,184.73a1.85,1.85,0,0,0,.93-.48,1.83,1.83,0,0,0,.51-1.59l-1.75.32Z"/><path d="M212.69,211.68l-1.75.32a1.72,1.72,0,0,0,.26.66,1.8,1.8,0,0,0,1.1.76,1.7,1.7,0,0,0,.71,0Z"/><path d="M193.69,215.81a1.84,1.84,0,0,0,.17.22c.78.12,1.55.22,2.33.27a1.76,1.76,0,0,0,.73-1.07,1.69,1.69,0,0,0,0-.71l-3.5.64A1.62,1.62,0,0,0,193.69,215.81Z"/><path d="M139.2,8c-.39-.09-.79-.17-1.19-.24a1.7,1.7,0,0,0,0,.45Z"/><path d="M124,10.71a1.81,1.81,0,0,0-.48-.93,1.77,1.77,0,0,0-2.9.53,1.71,1.71,0,0,0-.12,1Z"/><path d="M146.09,42.89l-.31-1.75a1.72,1.72,0,0,0-.66.26,1.79,1.79,0,0,0-.81,1.44,2.19,2.19,0,0,0,0,.36Z"/><path d="M130.24,45.38a1.78,1.78,0,0,0-3.44.62,2.19,2.19,0,0,0,0,.36l3.5-.63A2,2,0,0,0,130.24,45.38Z"/><path d="M142,23.89a1.78,1.78,0,0,0,.59,3.22,1.82,1.82,0,0,0,.7,0l-.63-3.5A1.72,1.72,0,0,0,142,23.89Z"/><path d="M125.11,26.78a1.78,1.78,0,0,0,.63,3.51,1.78,1.78,0,1,0-.63-3.51Z"/><path d="M118.56,40.62a1.78,1.78,0,1,0-2.06-1.44A1.78,1.78,0,0,0,118.56,40.62Z"/><path d="M136.08,37.46A1.78,1.78,0,1,0,134,36,1.77,1.77,0,0,0,136.08,37.46Z"/><path d="M113.34,21.67a1.78,1.78,0,1,0,3.5-.63,1.78,1.78,0,0,0-3.5.63Z"/><path d="M132.92,20a1.78,1.78,0,1,0-2.07-1.43A1.78,1.78,0,0,0,132.92,20Z"/><path d="M110.76,47.45l.31,1.75,1.75-.31a1.4,1.4,0,0,0-.1-.35A1.77,1.77,0,0,0,110.76,47.45Z"/><path d="M107.6,29.94l.63,3.5a1.78,1.78,0,1,0-.63-3.5Z"/><path d="M138.29,8.84a1.8,1.8,0,0,0,1.1.76,1.82,1.82,0,0,0,.7,0l-.27-1.51L139.2,8,138,8.18A1.72,1.72,0,0,0,138.29,8.84Z"/><path d="M120.78,12a1.77,1.77,0,0,0,3.22-.58,1.64,1.64,0,0,0,0-.7l-3.5.63A1.62,1.62,0,0,0,120.78,12Z"/><path d="M152.09,76.16a1.62,1.62,0,0,0-.65.26,1.82,1.82,0,0,0-.66.77,1.74,1.74,0,0,0-.12,1l1.75-.32Z"/><path d="M136.65,80.75a1.78,1.78,0,0,0-.48-.92,1.76,1.76,0,0,0-1.59-.51,1.78,1.78,0,0,0-1.31,1,1.71,1.71,0,0,0-.12,1Z"/><path d="M148.28,58.91a1.78,1.78,0,0,0,.58,3.23,1.88,1.88,0,0,0,.71,0l-.63-3.5A1.61,1.61,0,0,0,148.28,58.91Z"/><path d="M132.06,65.31A1.78,1.78,0,1,0,130,63.87,1.78,1.78,0,0,0,132.06,65.31Z"/><path d="M124.88,75.64a1.78,1.78,0,1,0-2.07-1.43A1.78,1.78,0,0,0,124.88,75.64Z"/><path d="M142.39,72.48a1.78,1.78,0,1,0-2.07-1.43A1.78,1.78,0,0,0,142.39,72.48Z"/><path d="M121.72,58.13a1.78,1.78,0,1,0-2.06-1.43A1.78,1.78,0,0,0,121.72,58.13Z"/><path d="M137.17,53.54a1.78,1.78,0,0,0,3.5-.63,1.79,1.79,0,0,0-2.07-1.44A1.77,1.77,0,0,0,137.17,53.54Z"/><path d="M117.07,82.47l.32,1.75,1.75-.31a1.85,1.85,0,0,0-.48-.93A1.78,1.78,0,0,0,117.07,82.47Z"/><path d="M116,66.4A1.78,1.78,0,0,0,113.92,65l.63,3.51A1.79,1.79,0,0,0,116,66.4Z"/><path d="M144.34,43.2a1.78,1.78,0,0,0,1.36,1.42,1.88,1.88,0,0,0,.71,0l-.32-1.75Z"/><path d="M128.9,47.8a1.77,1.77,0,0,0,1.43-2.07l-3.5.63A1.79,1.79,0,0,0,128.9,47.8Z"/><path d="M111.39,51a1.76,1.76,0,0,0,1.43-2.06l-1.75.31Z"/><path d="M158.41,111.18a1.9,1.9,0,0,0-.66.26,1.79,1.79,0,0,0-.8,1.45,1.45,1.45,0,0,0,0,.36l1.75-.32Z"/><path d="M143,115.77a3.37,3.37,0,0,0-.1-.34,1.79,1.79,0,0,0-2-1.09,1.76,1.76,0,0,0-1.46,1.71,1.4,1.4,0,0,0,0,.35Z"/><path d="M155.18,97.16a1.65,1.65,0,0,0,.7,0l-.63-3.5a1.72,1.72,0,0,0-.66.26,1.79,1.79,0,0,0,.59,3.23Z"/><path d="M138.37,100.33a1.78,1.78,0,1,0-.63-3.5,1.78,1.78,0,0,0,.63,3.5Z"/><path d="M131.2,110.66a1.78,1.78,0,1,0-2.07-1.43A1.77,1.77,0,0,0,131.2,110.66Z"/><path d="M148.71,107.51a1.78,1.78,0,1,0-2.07-1.44A1.78,1.78,0,0,0,148.71,107.51Z"/><path d="M128,93.15A1.78,1.78,0,1,0,126,91.72,1.77,1.77,0,0,0,128,93.15Z"/><path d="M145.55,90a1.78,1.78,0,1,0-2.07-1.44A1.77,1.77,0,0,0,145.55,90Z"/><path d="M125.45,118.93a2,2,0,0,0-.09-.35,1.78,1.78,0,0,0-2-1.08l.31,1.75Z"/><path d="M122.3,101.42a1.77,1.77,0,0,0-2.07-1.43l.63,3.5A1.79,1.79,0,0,0,122.3,101.42Z"/><path d="M152,79.65a1.87,1.87,0,0,0,.71,0l-.32-1.75-1.75.32a1.62,1.62,0,0,0,.26.65A1.81,1.81,0,0,0,152,79.65Z"/><path d="M133.41,82a1.78,1.78,0,0,0,1.8.78,1.8,1.8,0,0,0,1.43-1.36,1.88,1.88,0,0,0,0-.71l-3.5.63A1.66,1.66,0,0,0,133.41,82Z"/><path d="M117.7,86a1.76,1.76,0,0,0,1.42-1.36,1.64,1.64,0,0,0,0-.7l-1.75.31Z"/><path d="M164.72,146.2a2,2,0,0,0-.65.26,1.79,1.79,0,0,0-.66.78,1.71,1.71,0,0,0-.12,1L165,148Z"/><path d="M148.81,149.87a1.79,1.79,0,0,0-2.91.52,1.74,1.74,0,0,0-.12,1l3.5-.63A1.8,1.8,0,0,0,148.81,149.87Z"/><path d="M160.91,129a1.78,1.78,0,0,0,.58,3.23,1.88,1.88,0,0,0,.71,0l-.63-3.51A1.94,1.94,0,0,0,160.91,129Z"/><path d="M144.06,131.85a1.78,1.78,0,1,0,2.06,1.43A1.78,1.78,0,0,0,144.06,131.85Z"/><path d="M136.88,142.18a1.78,1.78,0,1,0,2.07,1.44A1.79,1.79,0,0,0,136.88,142.18Z"/><path d="M154.39,139a1.78,1.78,0,1,0,2.07,1.43A1.77,1.77,0,0,0,154.39,139Z"/><path d="M133.72,124.67a1.78,1.78,0,1,0,2.07,1.44A1.77,1.77,0,0,0,133.72,124.67Z"/><path d="M151.23,121.51A1.78,1.78,0,1,0,153.3,123,1.77,1.77,0,0,0,151.23,121.51Z"/><path d="M131.77,154a1.78,1.78,0,0,0-.48-.92,1.76,1.76,0,0,0-1.59-.51l.32,1.75Z"/><path d="M126.55,135l.63,3.5a1.78,1.78,0,0,0-.63-3.5Z"/><path d="M157,113.25a1.8,1.8,0,0,0,1.36,1.42,1.7,1.7,0,0,0,.71,0l-.32-1.75Z"/><path d="M141.53,117.84a1.78,1.78,0,0,0,1.44-2.07l-3.51.63A1.79,1.79,0,0,0,141.53,117.84Z"/><path d="M124,121a1.77,1.77,0,0,0,1.43-2.07l-1.75.32Z"/><path d="M171,181.23a1.72,1.72,0,0,0-.66.26,1.76,1.76,0,0,0-.8,1.44,1.45,1.45,0,0,0,0,.36l1.76-.31Z"/><path d="M153.53,184.38a1.78,1.78,0,0,0-1.46,1.71,1.45,1.45,0,0,0,0,.36l3.51-.63a3.57,3.57,0,0,0-.1-.35A1.79,1.79,0,0,0,153.53,184.38Z"/><path d="M167.23,164a1.78,1.78,0,0,0,.58,3.23,1.82,1.82,0,0,0,.7,0l-.63-3.51A2,2,0,0,0,167.23,164Z"/><path d="M150.37,166.87a1.78,1.78,0,0,0,.63,3.51,1.78,1.78,0,0,0-.63-3.51Z"/><path d="M143.19,177.2a1.78,1.78,0,1,0,2.07,1.44A1.79,1.79,0,0,0,143.19,177.2Z"/><path d="M160.71,174.05a1.78,1.78,0,1,0,2.06,1.43A1.78,1.78,0,0,0,160.71,174.05Z"/><path d="M140,159.69a1.78,1.78,0,1,0,2.06,1.44A1.79,1.79,0,0,0,140,159.69Z"/><path d="M157.55,156.54a1.78,1.78,0,1,0,2.07,1.43A1.78,1.78,0,0,0,157.55,156.54Z"/><path d="M138.09,189a2.92,2.92,0,0,0-.1-.35,1.79,1.79,0,0,0-2-1.09l.31,1.75Z"/><path d="M132.86,170l.63,3.5a1.78,1.78,0,1,0-.63-3.5Z"/><path d="M163.29,148.27a1.72,1.72,0,0,0,.26.66,1.8,1.8,0,0,0,1.1.76,1.69,1.69,0,0,0,.71,0L165,148Z"/><path d="M145.78,151.43a1.62,1.62,0,0,0,.26.65,1.78,1.78,0,0,0,3.23-.58,1.83,1.83,0,0,0,0-.7Z"/><path d="M130.33,156a1.79,1.79,0,0,0,1.43-1.36,1.88,1.88,0,0,0,0-.71l-1.75.32Z"/><path d="M174.2,198.74a1.66,1.66,0,0,0-.66.26,1.77,1.77,0,0,0,.58,3.22,1.7,1.7,0,0,0,.71,0Z"/><path d="M157.32,205.4a1.78,1.78,0,1,0-2.07-1.44A1.78,1.78,0,0,0,157.32,205.4Z"/><path d="M149.51,212.23a1.78,1.78,0,1,0,2.07,1.43A1.77,1.77,0,0,0,149.51,212.23Z"/><path d="M167,209.07a1.78,1.78,0,1,0,2.07,1.44A1.79,1.79,0,0,0,167,209.07Z"/><path d="M146.35,194.72a1.78,1.78,0,0,0,.63,3.5,1.78,1.78,0,1,0-.63-3.5Z"/><path d="M163.86,191.56a1.78,1.78,0,1,0,2.07,1.44A1.78,1.78,0,0,0,163.86,191.56Z"/><path d="M142.74,224.3c.51-.25,1-.5,1.5-.76a1.63,1.63,0,0,0-.32-.47,1.76,1.76,0,0,0-1.59-.51l.32,1.75Z"/><path d="M139.18,205.05l.63,3.5a1.78,1.78,0,0,0-.63-3.5Z"/><path d="M169.6,183.29a1.78,1.78,0,0,0,1.36,1.42,1.88,1.88,0,0,0,.71,0l-.31-1.75Z"/><path d="M154.16,187.88a1.78,1.78,0,0,0,1.44-2.06l-3.51.63A1.77,1.77,0,0,0,154.16,187.88Z"/><path d="M136.65,191a1.78,1.78,0,0,0,1.44-2.06l-1.76.31Z"/><path d="M142.65,224.34l.09,0h-.09Z"/><path d="M110.76,47.45a1.78,1.78,0,0,0-1.47,1.71,2.19,2.19,0,0,0,0,.36l1.75-.32Z"/><path d="M95.31,52a1.33,1.33,0,0,0-.1-.34,1.78,1.78,0,0,0-3.43.62,2.38,2.38,0,0,0,0,.36Z"/><path d="M106.16,32a1.78,1.78,0,0,0,2.07,1.43l-.63-3.5A1.79,1.79,0,0,0,106.16,32Z"/><path d="M92.17,34.71q-.33.75-.63,1.5A1.76,1.76,0,0,0,92.17,34.71Z"/><path d="M85,44.87a1.78,1.78,0,1,0-3.5.63,1.78,1.78,0,0,0,3.5-.63Z"/><path d="M102.49,41.71a1.78,1.78,0,1,0-1.44,2.07A1.78,1.78,0,0,0,102.49,41.71Z"/><path d="M97.9,26.27a1.78,1.78,0,0,0,1.43-2.07,1.7,1.7,0,0,0-.34-.76c-.71.89-1.39,1.8-2,2.73A1.75,1.75,0,0,0,97.9,26.27Z"/><path d="M77.8,55.2a1.33,1.33,0,0,0-.1-.34,1.74,1.74,0,0,0-.93-1,1.71,1.71,0,0,0-1-.12l.31,1.75Z"/><path d="M117.07,82.47a1.79,1.79,0,0,0-1.31,1,1.71,1.71,0,0,0-.12,1l1.75-.32Z"/><path d="M101.63,87.07a1.81,1.81,0,0,0-.48-.93,1.77,1.77,0,0,0-2.9.53,1.71,1.71,0,0,0-.12,1Z"/><path d="M114.55,68.47,113.92,65a1.78,1.78,0,1,0,.63,3.51Z"/><path d="M97,71.62A1.78,1.78,0,1,0,95,70.19,1.77,1.77,0,0,0,97,71.62Z"/><path d="M89.86,82a1.78,1.78,0,1,0-2.07-1.44A1.79,1.79,0,0,0,89.86,82Z"/><path d="M107.37,78.8a1.78,1.78,0,1,0-2.07-1.44A1.79,1.79,0,0,0,107.37,78.8Z"/><path d="M86.7,64.45A1.78,1.78,0,1,0,84.64,63,1.79,1.79,0,0,0,86.7,64.45Z"/><path d="M104.21,61.29a1.78,1.78,0,1,0-2.06-1.44A1.79,1.79,0,0,0,104.21,61.29Z"/><path d="M84.12,90.22a1.78,1.78,0,0,0-.48-.92,1.82,1.82,0,0,0-.56-.39,1.71,1.71,0,0,0-1-.12l.32,1.75Z"/><path d="M80.45,74.31a1.79,1.79,0,0,0-.52-2.91,1.74,1.74,0,0,0-1-.12l.64,3.5A1.77,1.77,0,0,0,80.45,74.31Z"/><path d="M109.32,49.52A1.78,1.78,0,0,0,111.39,51l-.32-1.75Z"/><path d="M93.88,54.11A1.78,1.78,0,0,0,95.31,52l-3.5.64A1.79,1.79,0,0,0,93.88,54.11Z"/><path d="M76.37,57.27A1.79,1.79,0,0,0,77.8,55.2l-1.75.32Z"/><path d="M123.39,117.5a1.78,1.78,0,0,0-1.47,1.7,2.19,2.19,0,0,0,0,.36l1.75-.31Z"/><path d="M105.88,120.65a1.79,1.79,0,0,0-1.47,1.71,2.19,2.19,0,0,0,0,.36l3.5-.63a2,2,0,0,0-.09-.35A1.79,1.79,0,0,0,105.88,120.65Z"/><path d="M120.86,103.49l-.63-3.5a1.78,1.78,0,1,0,.63,3.5Z"/><path d="M102.72,103.14a1.78,1.78,0,1,0,2.07,1.44A1.79,1.79,0,0,0,102.72,103.14Z"/><path d="M95.54,113.48a1.78,1.78,0,0,0,.63,3.5,1.79,1.79,0,0,0,1.44-2.07A1.77,1.77,0,0,0,95.54,113.48Z"/><path d="M113.05,110.32a1.78,1.78,0,1,0,2.07,1.44A1.78,1.78,0,0,0,113.05,110.32Z"/><path d="M92.39,96a1.78,1.78,0,1,0,2.06,1.44A1.79,1.79,0,0,0,92.39,96Z"/><path d="M109.9,92.81A1.78,1.78,0,1,0,112,94.24,1.78,1.78,0,0,0,109.9,92.81Z"/><path d="M90.43,125.25a1.4,1.4,0,0,0-.1-.35,1.77,1.77,0,0,0-.93-1,1.88,1.88,0,0,0-1-.12l.31,1.75Z"/><path d="M86.24,106.42a1.71,1.71,0,0,0-1-.12l.63,3.5a1.76,1.76,0,0,0,.93-.47,1.84,1.84,0,0,0,.51-1.6A1.79,1.79,0,0,0,86.24,106.42Z"/><path d="M115.64,84.54a1.72,1.72,0,0,0,.26.66,1.75,1.75,0,0,0,1.8.77l-.31-1.75Z"/><path d="M98.39,88.35a1.77,1.77,0,0,0,3.22-.58,1.64,1.64,0,0,0,0-.7l-3.5.63A1.62,1.62,0,0,0,98.39,88.35Z"/><path d="M82.37,90.54l.31,1.75a1.81,1.81,0,0,0,.93-.48,1.71,1.71,0,0,0,.49-.88,1.87,1.87,0,0,0,0-.71Z"/><path d="M129.7,152.52a1.78,1.78,0,0,0-1.31,1,1.72,1.72,0,0,0-.12,1l1.75-.31Z"/><path d="M113.78,156.19a1.78,1.78,0,0,0-2.9.52,1.71,1.71,0,0,0-.12,1l3.5-.63A1.78,1.78,0,0,0,113.78,156.19Z"/><path d="M125.11,137.07a1.78,1.78,0,0,0,2.07,1.44l-.63-3.5A1.78,1.78,0,0,0,125.11,137.07Z"/><path d="M109,138.16a1.78,1.78,0,1,0,2.07,1.44A1.79,1.79,0,0,0,109,138.16Z"/><path d="M101.86,148.5a1.78,1.78,0,1,0,2.07,1.43A1.78,1.78,0,0,0,101.86,148.5Z"/><path d="M119.37,145.34a1.78,1.78,0,1,0,2.07,1.44A1.78,1.78,0,0,0,119.37,145.34Z"/><path d="M98.7,131a1.78,1.78,0,1,0,2.07,1.43A1.77,1.77,0,0,0,98.7,131Z"/><path d="M116.21,127.83a1.78,1.78,0,1,0,2.07,1.44A1.79,1.79,0,0,0,116.21,127.83Z"/><path d="M95.72,159a1.83,1.83,0,0,0-1-.13l.32,1.75,1.75-.31a1.85,1.85,0,0,0-.48-.93A1.87,1.87,0,0,0,95.72,159Z"/><path d="M92.56,141.44a1.89,1.89,0,0,0-1-.12l.63,3.51a1.79,1.79,0,0,0,1.43-2.07A1.8,1.8,0,0,0,92.56,141.44Z"/><path d="M124,121l-.32-1.75-1.75.31A1.79,1.79,0,0,0,124,121Z"/><path d="M106.51,124.15a1.76,1.76,0,0,0,1.43-2.06l-3.5.63A1.77,1.77,0,0,0,106.51,124.15Z"/><path d="M88.68,125.56l.32,1.75a1.7,1.7,0,0,0,.92-.47,1.77,1.77,0,0,0,.51-1.59Z"/><path d="M136,187.54a1.78,1.78,0,0,0-1.47,1.71,2.19,2.19,0,0,0,0,.36l1.75-.32Z"/><path d="M118.51,190.7a1.78,1.78,0,0,0-1.47,1.71,2.16,2.16,0,0,0,0,.35l3.51-.63a3.37,3.37,0,0,0-.1-.34A1.79,1.79,0,0,0,118.51,190.7Z"/><path d="M131.43,172.1a1.77,1.77,0,0,0,2.06,1.43l-.63-3.5A1.77,1.77,0,0,0,131.43,172.1Z"/><path d="M115.35,173.19a1.78,1.78,0,0,0,.63,3.5,1.78,1.78,0,1,0-.63-3.5Z"/><path d="M110.24,185a1.78,1.78,0,1,0-1.43,2.06A1.78,1.78,0,0,0,110.24,185Z"/><path d="M125.68,180.36a1.78,1.78,0,1,0,2.07,1.44A1.78,1.78,0,0,0,125.68,180.36Z"/><path d="M105,166a1.78,1.78,0,1,0,2.06,1.44A1.78,1.78,0,0,0,105,166Z"/><path d="M122.53,162.85a1.78,1.78,0,1,0,.63,3.5,1.76,1.76,0,0,0,1.43-2.06A1.78,1.78,0,0,0,122.53,162.85Z"/><path d="M103.06,195.29a1.4,1.4,0,0,0-.1-.35,1.75,1.75,0,0,0-.93-1,1.71,1.71,0,0,0-1-.12l.31,1.75Z"/><path d="M98.87,176.47a1.79,1.79,0,0,0-1-.13l.63,3.51a1.85,1.85,0,0,0,.93-.48,1.77,1.77,0,0,0-.53-2.9Z"/><path d="M130.33,156l-.31-1.75-1.75.31a1.61,1.61,0,0,0,.26.66A1.78,1.78,0,0,0,130.33,156Z"/><path d="M110.76,157.74a1.72,1.72,0,0,0,.26.66,1.77,1.77,0,0,0,3.22-.58,1.7,1.7,0,0,0,0-.71Z"/><path d="M95.31,162.33a1.72,1.72,0,0,0,.93-.47,1.78,1.78,0,0,0,.49-.89,1.82,1.82,0,0,0,0-.7l-1.75.31Z"/><path d="M142.33,222.56a1.77,1.77,0,0,0-1.31,1,1.71,1.71,0,0,0-.12,1l1.75-.32Z"/><path d="M124.82,225.72a1.78,1.78,0,0,0-1.31,1,1.74,1.74,0,0,0-.12,1l3.5-.64a1.79,1.79,0,0,0-2.07-1.43Z"/><path d="M137.74,207.12a1.78,1.78,0,0,0,2.07,1.43l-.63-3.5A1.79,1.79,0,0,0,137.74,207.12Z"/><path d="M122.3,211.71a1.78,1.78,0,1,0-2.07-1.43A1.78,1.78,0,0,0,122.3,211.71Z"/><path d="M116.56,220a1.78,1.78,0,1,0-1.44,2.07A1.79,1.79,0,0,0,116.56,220Z"/><path d="M134.07,216.82a1.78,1.78,0,1,0-1.44,2.07A1.79,1.79,0,0,0,134.07,216.82Z"/><path d="M111.33,201a1.78,1.78,0,1,0,2.07,1.44A1.77,1.77,0,0,0,111.33,201Z"/><path d="M128.84,197.87a1.78,1.78,0,1,0,2.07,1.44A1.77,1.77,0,0,0,128.84,197.87Z"/><path d="M104.2,211.6l.75-.19a1.75,1.75,0,0,0-.79,0Z"/><path d="M136.65,191l-.32-1.75-1.75.32A1.78,1.78,0,0,0,136.65,191Z"/><path d="M119.14,194.2a1.79,1.79,0,0,0,1.44-2.07l-3.51.63A1.79,1.79,0,0,0,119.14,194.2Z"/><path d="M101.63,197.36a1.79,1.79,0,0,0,1.43-2.07l-1.75.32Z"/><path d="M142.65,224.31l-1.75.32a1.67,1.67,0,0,0,.16.46c.53-.24,1.07-.49,1.59-.75Z"/><path d="M123.65,228.44a1.39,1.39,0,0,0,.21.27c.82.07,1.64.09,2.46.08a1.79,1.79,0,0,0,.56-.93,1.87,1.87,0,0,0,0-.71l-3.5.64A1.62,1.62,0,0,0,123.65,228.44Z"/><path d="M76.05,55.52l-.31-1.75a1.61,1.61,0,0,0-.66.26,1.79,1.79,0,0,0-.81,1.44,2.19,2.19,0,0,0,0,.36Z"/><path d="M60.19,58a1.77,1.77,0,0,0-2-1.09,2.14,2.14,0,0,0-.52.19,9.39,9.39,0,0,0,.18,1.68l2.4-.43A1.4,1.4,0,0,0,60.19,58Z"/><path d="M67.47,48A1.78,1.78,0,1,0,66,50.09,1.78,1.78,0,0,0,67.47,48Z"/><path d="M82.05,88.79a1.72,1.72,0,0,0-.66.26,1.8,1.8,0,0,0-.65.77,1.74,1.74,0,0,0-.12,1l1.75-.32Z"/><path d="M66.61,93.38a1.78,1.78,0,0,0-3.38-.4,1.71,1.71,0,0,0-.12,1Z"/><path d="M78.82,74.77a1.87,1.87,0,0,0,.71,0l-.64-3.5a1.62,1.62,0,0,0-.65.26,1.78,1.78,0,0,0,.58,3.23Z"/><path d="M60,76.5a1.78,1.78,0,1,0,1.43-2.06A1.78,1.78,0,0,0,60,76.5Z"/><path d="M54.84,88.27a1.78,1.78,0,1,0-2.07-1.43A1.77,1.77,0,0,0,54.84,88.27Z"/><path d="M72.35,85.11a1.78,1.78,0,1,0-2.07-1.43A1.78,1.78,0,0,0,72.35,85.11Z"/><path d="M51.68,70.76a1.78,1.78,0,1,0-2.07-1.43A1.78,1.78,0,0,0,51.68,70.76Z"/><path d="M69.19,67.6a1.78,1.78,0,1,0-2.07-1.43A1.78,1.78,0,0,0,69.19,67.6Z"/><path d="M49.1,96.54a1.85,1.85,0,0,0-.48-.93A1.82,1.82,0,0,0,47,95.1l.32,1.75Z"/><path d="M45.94,79a1.78,1.78,0,0,0-2.07-1.44l.64,3.51A1.79,1.79,0,0,0,45.94,79Z"/><path d="M74.3,55.83a1.76,1.76,0,0,0,1.36,1.42,1.88,1.88,0,0,0,.71,0l-.32-1.75Z"/><path d="M58.39,60.44a2.48,2.48,0,0,0,.47,0,1.78,1.78,0,0,0,1.43-2.07l-2.4.43A8.5,8.5,0,0,0,58.39,60.44Z"/><path d="M41.31,63.36l0,.22a1.75,1.75,0,0,0,1.19-.82C42.13,63,41.71,63.15,41.31,63.36Z"/><path d="M88.37,123.81a1.78,1.78,0,0,0-1.47,1.71,2.19,2.19,0,0,0,0,.36l1.75-.32Z"/><path d="M70.86,127a1.78,1.78,0,0,0-1.47,1.71,2.16,2.16,0,0,0,0,.35l3.5-.63a1.33,1.33,0,0,0-.1-.34A1.77,1.77,0,0,0,70.86,127Z"/><path d="M84.55,106.56a1.78,1.78,0,0,0,.58,3.23,1.7,1.7,0,0,0,.71,0l-.63-3.5A1.72,1.72,0,0,0,84.55,106.56Z"/><path d="M68.33,113a1.78,1.78,0,1,0-2.07-1.44A1.78,1.78,0,0,0,68.33,113Z"/><path d="M61.15,123.29a1.78,1.78,0,1,0-2.06-1.43A1.78,1.78,0,0,0,61.15,123.29Z"/><path d="M78.66,120.14a1.78,1.78,0,1,0-2.06-1.44A1.79,1.79,0,0,0,78.66,120.14Z"/><path d="M58,105.78a1.78,1.78,0,1,0-2.07-1.43A1.77,1.77,0,0,0,58,105.78Z"/><path d="M75.51,102.63a1.78,1.78,0,1,0-2.07-1.44A1.78,1.78,0,0,0,75.51,102.63Z"/><path d="M53.35,130.13l.31,1.75,1.75-.32a1.4,1.4,0,0,0-.1-.35A1.77,1.77,0,0,0,53.35,130.13Z"/><path d="M52.25,114.05a1.76,1.76,0,0,0-2.06-1.43l.63,3.5A1.77,1.77,0,0,0,52.25,114.05Z"/><path d="M80.62,90.86a1.62,1.62,0,0,0,.26.65,1.75,1.75,0,0,0,1.8.78l-.31-1.75Z"/><path d="M63.37,94.67a1.77,1.77,0,0,0,3.22-.58,1.88,1.88,0,0,0,0-.71l-3.5.63A1.66,1.66,0,0,0,63.37,94.67Z"/><path d="M47.66,98.6a1.76,1.76,0,0,0,1.42-1.36,1.82,1.82,0,0,0,0-.7l-1.75.31Z"/><path d="M94.68,158.83a2,2,0,0,0-.65.26,1.79,1.79,0,0,0-.66.78,1.71,1.71,0,0,0-.12,1l1.75-.32Z"/><path d="M78.76,162.5a1.78,1.78,0,0,0-2.9.52,1.74,1.74,0,0,0-.12,1l3.5-.63A1.81,1.81,0,0,0,78.76,162.5Z"/><path d="M90.87,141.58a1.78,1.78,0,0,0,.58,3.23,1.87,1.87,0,0,0,.71,0l-.63-3.51A1.94,1.94,0,0,0,90.87,141.58Z"/><path d="M74,144.48a1.78,1.78,0,1,0,2.07,1.43A1.78,1.78,0,0,0,74,144.48Z"/><path d="M66.84,154.81a1.78,1.78,0,1,0,2.06,1.44A1.79,1.79,0,0,0,66.84,154.81Z"/><path d="M84.35,151.66a1.78,1.78,0,1,0,2.07,1.43A1.78,1.78,0,0,0,84.35,151.66Z"/><path d="M63.68,137.3a1.78,1.78,0,1,0,2.07,1.44A1.77,1.77,0,0,0,63.68,137.3Z"/><path d="M81.19,134.14a1.78,1.78,0,1,0,2.07,1.44A1.77,1.77,0,0,0,81.19,134.14Z"/><path d="M61.73,166.58a1.79,1.79,0,0,0-2.07-1.43L60,166.9Z"/><path d="M56.5,147.64l.64,3.5a1.78,1.78,0,0,0-.64-3.5Z"/><path d="M86.93,125.88a1.79,1.79,0,0,0,1.36,1.42,1.7,1.7,0,0,0,.71,0l-.32-1.75Z"/><path d="M71.49,130.47a1.78,1.78,0,0,0,1.43-2.07l-3.5.63A1.79,1.79,0,0,0,71.49,130.47Z"/><path d="M54,133.63a1.78,1.78,0,0,0,1.43-2.07l-1.75.32Z"/><path d="M101,193.86a1.66,1.66,0,0,0-.66.26,1.79,1.79,0,0,0-.81,1.44,2.19,2.19,0,0,0,0,.36l1.75-.31Z"/><path d="M83.49,197A1.79,1.79,0,0,0,82,198.72a2.19,2.19,0,0,0,0,.36l3.5-.63a1.4,1.4,0,0,0-.1-.35A1.77,1.77,0,0,0,83.49,197Z"/><path d="M97.18,176.6a1.78,1.78,0,0,0,.59,3.23,1.82,1.82,0,0,0,.7,0l-.63-3.51A2.12,2.12,0,0,0,97.18,176.6Z"/><path d="M80.33,179.5a1.78,1.78,0,1,0,2.07,1.44A1.79,1.79,0,0,0,80.33,179.5Z"/><path d="M73.15,189.84a1.76,1.76,0,0,0-1.43,2.06,1.78,1.78,0,1,0,1.43-2.06Z"/><path d="M90.66,186.68a1.78,1.78,0,1,0,2.07,1.43A1.78,1.78,0,0,0,90.66,186.68Z"/><path d="M70,172.32a1.78,1.78,0,1,0,2.07,1.44A1.79,1.79,0,0,0,70,172.32Z"/><path d="M87.51,169.17a1.78,1.78,0,1,0,2.06,1.43A1.76,1.76,0,0,0,87.51,169.17Z"/><path d="M66,200.17l.31,1.75,1.75-.31a1.29,1.29,0,0,0-.1-.35A1.77,1.77,0,0,0,66,200.17Z"/><path d="M62.82,182.66l.63,3.5a1.78,1.78,0,1,0-.63-3.5Z"/><path d="M93.25,160.9a1.72,1.72,0,0,0,.26.66,1.8,1.8,0,0,0,1.1.76,1.65,1.65,0,0,0,.7,0L95,160.58Z"/><path d="M75.74,164.06a1.62,1.62,0,0,0,.26.65,1.77,1.77,0,0,0,3.22-.58,1.82,1.82,0,0,0,0-.7Z"/><path d="M60,166.9l.31,1.75a1.76,1.76,0,0,0,1.42-1.36,1.88,1.88,0,0,0,0-.71Z"/><path d="M103.5,211.63l-.26.2,1-.23,0-.23A1.61,1.61,0,0,0,103.5,211.63Z"/><path d="M75.18,208.06c.77-.16,1.52-.34,2.28-.52a1.68,1.68,0,0,0-1.15-.19A1.77,1.77,0,0,0,75.18,208.06Z"/><path d="M92.39,206.26a1.78,1.78,0,1,0,1.43-2.07A1.77,1.77,0,0,0,92.39,206.26Z"/><path d="M101.31,195.61l-1.75.31a1.78,1.78,0,0,0,1.36,1.42,1.88,1.88,0,0,0,.71,0Z"/><path d="M84.12,200.51a1.77,1.77,0,0,0,1.43-2.06l-3.5.63A1.77,1.77,0,0,0,84.12,200.51Z"/><path d="M66.61,203.67A1.77,1.77,0,0,0,68,201.61l-1.75.31Z"/><path d="M47.35,96.85,47,95.1a1.79,1.79,0,0,0-1.31,1,1.71,1.71,0,0,0-.12,1Z"/><path d="M31.59,99.7a1.81,1.81,0,0,0-.48-.93,1.77,1.77,0,0,0-2.9.53,1.71,1.71,0,0,0-.12,1Z"/><path d="M42.44,79.66a1.78,1.78,0,0,0,2.07,1.44l-.64-3.51A1.78,1.78,0,0,0,42.44,79.66Z"/><path d="M21.15,93.51a17.93,17.93,0,0,0-1.5,1.09h.17A1.8,1.8,0,0,0,21.15,93.51Z"/><path d="M38.76,89.36a1.78,1.78,0,0,0-3.5.63,1.79,1.79,0,0,0,2.07,1.44A1.77,1.77,0,0,0,38.76,89.36Z"/><path d="M34.17,73.92a1.78,1.78,0,0,0-.55-3.51,20.23,20.23,0,0,0-1.37,2.5A1.77,1.77,0,0,0,34.17,73.92Z"/><path d="M13.6,101.93h0c-.22.38-.44.76-.65,1.14l1.14-.21A1.78,1.78,0,0,0,13.6,101.93Z"/><path d="M40.89,63.6a1.79,1.79,0,0,0,.46,0l0-.22Z"/><path d="M53.35,130.13a1.78,1.78,0,0,0-1.47,1.7,2.19,2.19,0,0,0,0,.36l1.75-.31Z"/><path d="M35.84,133.28A1.79,1.79,0,0,0,34.37,135a2.19,2.19,0,0,0,0,.36l3.5-.63a1.4,1.4,0,0,0-.1-.35A1.77,1.77,0,0,0,35.84,133.28Z"/><path d="M50.82,116.12l-.63-3.5a1.78,1.78,0,1,0,.63,3.5Z"/><path d="M33.31,119.28a1.78,1.78,0,1,0-2.07-1.44A1.79,1.79,0,0,0,33.31,119.28Z"/><path d="M26.13,129.61a1.78,1.78,0,1,0-.63-3.5,1.78,1.78,0,0,0,.63,3.5Z"/><path d="M43.64,126.45A1.78,1.78,0,1,0,41.58,125,1.78,1.78,0,0,0,43.64,126.45Z"/><path d="M23,112.1a1.78,1.78,0,1,0-2.06-1.44A1.78,1.78,0,0,0,23,112.1Z"/><path d="M40.49,108.94a1.78,1.78,0,1,0-2.07-1.43A1.78,1.78,0,0,0,40.49,108.94Z"/><path d="M18.68,136.41l-.35,0,.31,1.75,1.75-.31a1.4,1.4,0,0,0-.1-.35A1.79,1.79,0,0,0,18.68,136.41Z"/><path d="M16.15,122.33a1.78,1.78,0,0,0-.62-3.43,2.19,2.19,0,0,0-.36,0l.63,3.5A1.4,1.4,0,0,0,16.15,122.33Z"/><path d="M45.6,97.17a1.72,1.72,0,0,0,.26.66,1.75,1.75,0,0,0,1.8.77l-.31-1.75Z"/><path d="M28.35,101a1.77,1.77,0,0,0,3.22-.58,1.82,1.82,0,0,0,0-.7l-3.5.63A1.62,1.62,0,0,0,28.35,101Z"/><path d="M13,104.82a1.79,1.79,0,0,0,1.07-1.26,1.87,1.87,0,0,0,0-.71l-1.14.21c-.17.29-.32.59-.47.89l.17,1A2,2,0,0,0,13,104.82Z"/><path d="M59.66,165.15a1.78,1.78,0,0,0-1.31,1,1.72,1.72,0,0,0-.12,1L60,166.9Z"/><path d="M43.74,168.82a1.78,1.78,0,0,0-2.9.52,1.71,1.71,0,0,0-.12,1l3.5-.63A1.78,1.78,0,0,0,43.74,168.82Z"/><path d="M55.07,149.7a1.78,1.78,0,0,0,2.07,1.44l-.64-3.5A1.77,1.77,0,0,0,55.07,149.7Z"/><path d="M39,150.8a1.78,1.78,0,0,0,.63,3.5,1.79,1.79,0,0,0,1.44-2.07A1.77,1.77,0,0,0,39,150.8Z"/><path d="M33.88,162.57a1.78,1.78,0,1,0-1.43,2.06A1.77,1.77,0,0,0,33.88,162.57Z"/><path d="M49.33,158a1.78,1.78,0,1,0,.63,3.5,1.78,1.78,0,0,0-.63-3.5Z"/><path d="M29.29,147.12a1.78,1.78,0,1,0-2.07-1.43A1.78,1.78,0,0,0,29.29,147.12Z"/><path d="M46.17,140.46a1.78,1.78,0,1,0,2.07,1.44A1.78,1.78,0,0,0,46.17,140.46Z"/><path d="M51.91,132.19A1.78,1.78,0,0,0,54,133.63l-.32-1.75Z"/><path d="M36.47,136.78a1.77,1.77,0,0,0,1.43-2.06l-3.5.63A1.77,1.77,0,0,0,36.47,136.78Z"/><path d="M18.86,139.39l.54.4a1.76,1.76,0,0,0,1-1.91l-1.75.31Z"/><path d="M66,200.17a1.78,1.78,0,0,0-1.47,1.71,2.19,2.19,0,0,0,0,.36l1.75-.32Z"/><path d="M50.43,204.42a1.77,1.77,0,0,0-2-1.09,1.67,1.67,0,0,0-.73.32c.6.45,1.23.88,1.87,1.28l.92-.17A1.33,1.33,0,0,0,50.43,204.42Z"/><path d="M61.38,184.73a1.78,1.78,0,0,0,2.07,1.43l-.63-3.5A1.78,1.78,0,0,0,61.38,184.73Z"/><path d="M45.31,185.82a1.78,1.78,0,1,0,2.07,1.43A1.78,1.78,0,0,0,45.31,185.82Z"/><path d="M55.64,193a1.78,1.78,0,1,0,2.07,1.44A1.77,1.77,0,0,0,55.64,193Z"/><path d="M52.48,175.48a1.78,1.78,0,1,0,2.07,1.44A1.78,1.78,0,0,0,52.48,175.48Z"/><path d="M58.23,167.21a1.61,1.61,0,0,0,.26.66,1.78,1.78,0,0,0,1.8.78L60,166.9Z"/><path d="M40.72,170.37A1.66,1.66,0,0,0,41,171a1.77,1.77,0,0,0,3.22-.58,1.88,1.88,0,0,0,0-.71Z"/><path d="M64.54,202.24a1.78,1.78,0,0,0,2.07,1.43l-.32-1.75Z"/><path d="M49.61,204.93c.3.18.6.36.91.53a1.65,1.65,0,0,0,0-.7Z"/><path d="M18.33,136.44a1.94,1.94,0,0,0-.66.26,1.83,1.83,0,0,0-.74,1c.24.22.47.45.71.66l1-.18Z"/><path d="M13.73,121a1.79,1.79,0,0,0,1.36,1.42,1.7,1.7,0,0,0,.71,0l-.63-3.5a1.66,1.66,0,0,0-.66.26A1.79,1.79,0,0,0,13.73,121Z"/><path d="M12.47,104c-.17.32-.33.64-.49,1a1.83,1.83,0,0,0,.66,0Z"/><path d="M17.64,138.37c.4.35.8.7,1.22,1l-.22-1.2Z"/><path d="M35.83,63.32c14.83,14.29,37.51,23.66,54,11.3s21.67-23.8,22.06-48.69c9.37,13.63,12.74,19.53,22.6,26.84s22.18,12.11,34.35,10.48,25.84-25.19,27.71-37.32c-.11,8.41,1.34,30.31,8,35.4a27.45,27.45,0,0,0,23.91,4.45c7.44-2.16,13.55-7.36,19.42-12.42L269,35.16c-3.65,17-5.91,37.93,3.95,52.25,9.48,13.77,27.56,18,44,21.26-16.31,1.61-35.2,6.18-46.47,18.08-8.89,9.39-11.83,23.37-9.82,36.14s8.42,24.49,16.17,34.84c-8.5-11.39-34.31-23.25-48.37-25.3a65.86,65.86,0,0,0-15.54-.82C201,172.71,195.4,206.41,189,216.5c-.75-10.78-12.16-32.56-21.52-38-7-4-14.63-7.36-22.68-7.55-16-.39-29.61,11.43-39.79,23.79a188.11,188.11,0,0,0-21.25,32c-.37.7-1,1.51-1.72,1.35s-.16-1.73.3-1.09c-.52-11.47,2.72-17.78,4.1-29.18,2-16.17-9.91-31.47-24.49-38.73S30.59,150.84,14.32,150c14.39-2,23.81-12.13,29.69-25.42S44,75.32,35.83,63.32Z" fill="#8fffff"/><path d="M35.7,63.16a18.88,18.88,0,0,1,1.59,1.22l1.38,1.19q1.38,1.16,2.82,2.25,2.88,2.18,6,4.05a56.34,56.34,0,0,0,13,5.94,37.66,37.66,0,0,0,14,1.67A27.73,27.73,0,0,0,87.66,75C95.31,69.43,102.47,62.6,106,53.86a52.61,52.61,0,0,0,3.52-13.66,119.18,119.18,0,0,0,.89-14.29,1.43,1.43,0,0,1,1.44-1.4,1.38,1.38,0,0,1,1.13.58l0,0c5.88,8.16,11,17,18.44,23.24s16.33,11.24,25.88,12.94a40.26,40.26,0,0,0,7.18.56l1.8-.07,1.79-.18a6.45,6.45,0,0,0,.84-.13,5.44,5.44,0,0,0,.78-.17l.78-.23.78-.3A21.67,21.67,0,0,0,177.09,57,45.22,45.22,0,0,0,182,51.66a71.51,71.51,0,0,0,7.86-12.39,61.5,61.5,0,0,0,2.95-6.71,37.22,37.22,0,0,0,1.93-6.9h0a1.78,1.78,0,0,1,3.54.31,118.16,118.16,0,0,0,.78,13.91,68.5,68.5,0,0,0,2.68,13.51,18.14,18.14,0,0,0,2.88,5.73l.48.51c.19.15.32.29.54.45.45.32.88.66,1.35,1a26.44,26.44,0,0,0,2.89,1.63,26.08,26.08,0,0,0,13,2.56,24.78,24.78,0,0,0,6.54-1.28,33.88,33.88,0,0,0,6.14-2.87,83.81,83.81,0,0,0,11.12-8.37l21.61-18.34h0a1,1,0,0,1,1.7,1,120.42,120.42,0,0,0-3.29,25.52A59,59,0,0,0,268,73.63a38.75,38.75,0,0,0,4.59,11.83A34.55,34.55,0,0,0,281,94.87a49.68,49.68,0,0,0,11.09,6.35C300,104.59,308.53,106.4,317,108a.64.64,0,0,1,.5.75.65.65,0,0,1-.56.52,128.56,128.56,0,0,0-15.75,2.56,84.46,84.46,0,0,0-15.09,5,50.09,50.09,0,0,0-13.22,8.56,35.19,35.19,0,0,0-8.77,12.84A43.92,43.92,0,0,0,261,153.59a51.39,51.39,0,0,0,2.06,15.53c2.9,10.14,8.39,19.37,14.77,27.79l-2.18,1.64a47.41,47.41,0,0,0-11.3-9.68,104.81,104.81,0,0,0-13.33-7.29,112.32,112.32,0,0,0-14.18-5.45,65.69,65.69,0,0,0-7.3-1.77c-1.2-.23-2.47-.41-3.73-.56s-2.51-.29-3.77-.4a51.73,51.73,0,0,0-7.46-.14l-.92.06a6,6,0,0,0-.85.1,5.27,5.27,0,0,0-.69.14l-.68.24a9.84,9.84,0,0,0-2.57,1.87,25.94,25.94,0,0,0-4.06,5.89,73.29,73.29,0,0,0-3.1,6.85c-1.87,4.7-3.46,9.56-5.11,14.45-.82,2.44-1.66,4.89-2.58,7.34a44.21,44.21,0,0,1-3.4,7.34,1.93,1.93,0,0,1-3.57-.82v-.09a37.45,37.45,0,0,0-2.26-9.12,81.45,81.45,0,0,0-3.94-8.87,76.74,76.74,0,0,0-5-8.34,45.26,45.26,0,0,0-6.06-7.34c-.56-.53-1.16-1-1.73-1.5s-1.18-.81-1.83-1.22Q164.17,179,162,178a52.14,52.14,0,0,0-8.89-3.51,31.74,31.74,0,0,0-9.24-1.3c-.78,0-1.55,0-2.32.09l-2.32.27-2.28.48c-.77.16-1.51.43-2.26.63a42.08,42.08,0,0,0-8.6,3.91,58.15,58.15,0,0,0-7.77,5.63,100.46,100.46,0,0,0-13.4,14.15,183.85,183.85,0,0,0-11.5,16q-2.67,4.15-5.1,8.43c-.82,1.43-1.61,2.87-2.39,4.32l-.29.54a7,7,0,0,1-.4.7,4.17,4.17,0,0,1-1.79,1.61,2.87,2.87,0,0,1-1.92.16,2.44,2.44,0,0,1-1.42-1,2.33,2.33,0,0,1-.34-.72,2.87,2.87,0,0,1-.1-.61,3,3,0,0,1,.52-1.86,1.86,1.86,0,0,1,.22-.27l.12-.13.19-.16a2,2,0,0,1,.47-.28,2.42,2.42,0,0,1,.71-.2,2.58,2.58,0,0,1,.83.08,2.39,2.39,0,0,1,1,.59,2.69,2.69,0,0,1,.27.32l-3.68,1.27a54,54,0,0,1,.28-8.24,74.58,74.58,0,0,1,1.4-8c.57-2.62,1.18-5.17,1.67-7.72.24-1.28.46-2.55.65-3.83.09-.64.2-1.29.26-1.91l.13-1.86a11.41,11.41,0,0,0,0-1.85c0-.62,0-1.24-.07-1.86a30.74,30.74,0,0,0-.57-3.69A32.94,32.94,0,0,0,81.69,181a42.38,42.38,0,0,0-9-12.24c-7.34-7.18-17.1-11.42-27.23-13.75S24.81,152,14.25,151.3h0a1.32,1.32,0,0,1-.09-2.62A33,33,0,0,0,26,144.74a36.08,36.08,0,0,0,9.54-8.15,51.74,51.74,0,0,0,6.83-10.74c2-3.73,2.7-7.93,3.06-12.21a86.69,86.69,0,0,0-.06-12.89,123.38,123.38,0,0,0-1.61-12.84,111.2,111.2,0,0,0-3-12.62c-.63-2.06-1.31-4.11-2.14-6.11-.41-1-.85-2-1.33-3-.23-.48-.51-.94-.76-1.42-.11-.22-.32-.52-.45-.82Zm.26.31a5.54,5.54,0,0,1,.92,1.11c.27.48.57.94.82,1.43.51,1,1,1.94,1.43,2.94a63.54,63.54,0,0,1,2.34,6.11A106.28,106.28,0,0,1,44.78,87.7a122.35,122.35,0,0,1,1.94,12.94,88.27,88.27,0,0,1,.37,13.12,44.74,44.74,0,0,1-.8,6.59L45.9,122l-.49,1.62c-.39,1.1-.85,2.1-1.31,3.09A54,54,0,0,1,37.18,138a38,38,0,0,1-10,8.84,35.36,35.36,0,0,1-12.67,4.47l-.11-2.62c10.57.48,21.29,1,31.82,3.31,2.63.56,5.23,1.32,7.81,2.12a69.16,69.16,0,0,1,7.56,3,51.15,51.15,0,0,1,13.54,9.16A46,46,0,0,1,85,179.45a37.31,37.31,0,0,1,2.76,7.87,39,39,0,0,1,.69,4.15c.06.7.06,1.41.1,2.11a14.85,14.85,0,0,1,0,2.11l-.14,2.11c0,.7-.16,1.35-.24,2-.19,1.34-.4,2.68-.65,4-.48,2.65-1.07,5.26-1.6,7.82s-1,5.1-1.28,7.64a49.69,49.69,0,0,0-.21,7.62L80.7,228.2a1.63,1.63,0,0,0,.17.2,2.6,2.6,0,0,0,.27.21,1.38,1.38,0,0,0,.48.21,1.56,1.56,0,0,0,.68.06,1.6,1.6,0,0,0,1.22-.68,1,1,0,0,0,.19-.68.86.86,0,0,0,0-.3,1.41,1.41,0,0,0-.2-.44,1.72,1.72,0,0,0-.93-.66,1.11,1.11,0,0,0-.7,0c-.29.15-.12.1,0-.1a3.55,3.55,0,0,0,.21-.38l.3-.56c.78-1.48,1.59-3,2.41-4.42,1.65-2.92,3.37-5.81,5.17-8.64a189.15,189.15,0,0,1,11.68-16.42,101.34,101.34,0,0,1,14-14.76,62.84,62.84,0,0,1,8.36-6,46.13,46.13,0,0,1,9.51-4.31,35.45,35.45,0,0,1,20.85-.18,56.59,56.59,0,0,1,9.6,3.85q2.28,1.15,4.49,2.43c.75.47,1.56,1,2.3,1.56s1.39,1.16,2,1.78a49.31,49.31,0,0,1,6.57,8,81.11,81.11,0,0,1,5.18,8.8,85.75,85.75,0,0,1,4.09,9.36,40.68,40.68,0,0,1,2.42,10.19l-3.57-.9a40.08,40.08,0,0,0,3.09-6.63c.91-2.36,1.75-4.77,2.58-7.2,1.67-4.85,3.31-9.76,5.27-14.6a73.69,73.69,0,0,1,3.31-7.19,29,29,0,0,1,4.73-6.72,13,13,0,0,1,3.68-2.59l1.14-.4a11.93,11.93,0,0,1,1.19-.24c.44-.08.71-.07,1.07-.11l1-.06a56.85,56.85,0,0,1,7.95.24c1.31.12,2.61.28,3.9.45s2.57.36,3.89.62a70,70,0,0,1,7.67,1.95,115.38,115.38,0,0,1,14.54,5.76A106.81,106.81,0,0,1,266,186.39a50,50,0,0,1,11.84,10.52,1.37,1.37,0,1,1-2.16,1.67v0h0c-6.37-8.7-11.89-18.28-14.73-28.84s-2.73-22,1.52-32.12a36.79,36.79,0,0,1,9.37-13.32,53.17,53.17,0,0,1,13.68-8.72c9.93-4.37,20.63-6.46,31.3-7.51l-.06,1.26c-8.49-1.71-17-3.57-25.13-6.91a50.74,50.74,0,0,1-11.43-6.45,35.66,35.66,0,0,1-8.87-9.73A39.81,39.81,0,0,1,266.48,74a63.17,63.17,0,0,1-1.43-13.06,121.74,121.74,0,0,1,2.9-26l1.71,1L248.37,54.66A86.93,86.93,0,0,1,237,63.48a36.55,36.55,0,0,1-6.62,3.23,28.46,28.46,0,0,1-7.3,1.55,29.13,29.13,0,0,1-14.58-2.64,26.33,26.33,0,0,1-3.29-1.81c-.53-.33-1-.72-1.55-1.07-.26-.2-.55-.46-.82-.69s-.49-.51-.74-.77a21.38,21.38,0,0,1-3.56-6.8,72.33,72.33,0,0,1-3-14.21,118.39,118.39,0,0,1-.82-14.36l3.54.3a40.37,40.37,0,0,1-2.09,7.6,65.67,65.67,0,0,1-3.1,7.08,73.84,73.84,0,0,1-8.33,13,48.1,48.1,0,0,1-5.39,5.68,24.76,24.76,0,0,1-6.76,4.39,13.93,13.93,0,0,1-4.09,1l-2,.18-2,.07a43.46,43.46,0,0,1-7.82-.66c-10.3-1.9-19.62-7.13-27.35-13.84a64.4,64.4,0,0,1-10.22-11.51c-3-4.13-5.7-8.34-8.52-12.49l2.6-.78a121.66,121.66,0,0,1-1.15,14.6,55.83,55.83,0,0,1-3.91,14.26A42.52,42.52,0,0,1,100,67.09l-1.27,1.34-1.35,1.25c-.88.86-1.82,1.65-2.76,2.43s-1.9,1.55-2.87,2.29c-.49.37-1,.75-1.46,1.11l-1.54,1.06a29,29,0,0,1-14.08,4.49A39.28,39.28,0,0,1,60.1,79,57.72,57.72,0,0,1,47,72.61a70.69,70.69,0,0,1-5.88-4.29c-1-.76-1.87-1.56-2.77-2.36L37,64.74C36.63,64.38,36.37,63.94,36,63.47Z"/><path d="M63.25,132.64a21.52,21.52,0,0,1-7.12-2.1,24.62,24.62,0,0,1-6-4.24,22.35,22.35,0,0,1-5.94-22.18A23.43,23.43,0,0,1,48,96.39a22.56,22.56,0,0,1,6.48-5.71A22,22,0,0,1,63,87.81a37.48,37.48,0,0,1,12.62.51A36.76,36.76,0,0,1,87,92.8l-9.38,12.09a23.05,23.05,0,0,0-6-1.94,21.58,21.58,0,0,0-6.68-.17,7.47,7.47,0,0,0-6.54,8.43,7.83,7.83,0,0,0,2.38,4.61,8.24,8.24,0,0,0,4.74,2,38.52,38.52,0,0,0,5.6.1,24.65,24.65,0,0,1,8.73.8,21.7,21.7,0,0,1,7.39,3.62,21.06,21.06,0,0,1,5.36,6.13,22.93,22.93,0,0,1,2.08,17.35,22.46,22.46,0,0,1-10.35,13.36,21.83,21.83,0,0,1-8.47,2.87,36.44,36.44,0,0,1-14.51-1,37.48,37.48,0,0,1-12.56-6.17L58,143a22.43,22.43,0,0,0,7.5,3.56,22.06,22.06,0,0,0,8.52.53,7.19,7.19,0,0,0,5-2.82,7.31,7.31,0,0,0,1.5-5.58,8.07,8.07,0,0,0-1.1-3.16,5.21,5.21,0,0,0-2.57-2.18,10.7,10.7,0,0,0-3.2-.74,29.16,29.16,0,0,0-3.51-.06l-3.58.15A25.75,25.75,0,0,1,63.25,132.64Z"/><path d="M147.24,80.4l15-.84,4.25,75.13-17.45,1-33-48.36,2.83,50.06-15,.84L99.66,83.09l17.55-1,32.86,48.46Z"/><path d="M224.36,155.46l-7.15-21.22-23.13-.54L186,154.56l-16-.37,28.95-74.6,16,.37,25.44,75.87Zm-18-53.55-6.45,16.83,12.21.28Z"/><path d="M244,156.27,251,81.35l21,2a21.94,21.94,0,0,1,8.58,2.6,22.49,22.49,0,0,1,6.65,5.52,23.22,23.22,0,0,1,4.12,7.62,21.8,21.8,0,0,1,1,8.91,22.4,22.4,0,0,1-2.56,8.59,21.87,21.87,0,0,1-5.46,6.66,23.58,23.58,0,0,1-7.57,4.12,21.53,21.53,0,0,1-8.86,1l-6.13-.57-2.83,29.94Zm19.16-43.57,6,.57a7.32,7.32,0,0,0,5.55-1.67,7.17,7.17,0,0,0,2.66-5,7.46,7.46,0,0,0-6.8-8.23l-6-.56Z"/><path d="M53.48,127a21,21,0,0,1-7.12-2.1,24,24,0,0,1-6-4.23,22,22,0,0,1-6.62-13.25,21.92,21.92,0,0,1,.67-8.93,23.62,23.62,0,0,1,3.88-7.73A22.47,22.47,0,0,1,44.74,85a21.93,21.93,0,0,1,8.49-2.87,37.47,37.47,0,0,1,12.62.51,36.82,36.82,0,0,1,11.33,4.48L67.79,99.23a23.45,23.45,0,0,0-6-2,21.84,21.84,0,0,0-6.67-.16,7.47,7.47,0,0,0-6.55,8.43A7.83,7.83,0,0,0,51,110.16a8.24,8.24,0,0,0,4.74,2,37.2,37.2,0,0,0,5.6.09,24.65,24.65,0,0,1,8.73.81,21.7,21.7,0,0,1,7.39,3.62,20.79,20.79,0,0,1,5.36,6.13,22.88,22.88,0,0,1,2.09,17.35,22.46,22.46,0,0,1-10.35,13.36A21.88,21.88,0,0,1,66,156.39a36.38,36.38,0,0,1-14.5-1A37.44,37.44,0,0,1,39,149.22l9.22-11.9a22.23,22.23,0,0,0,16,4.09,7.24,7.24,0,0,0,5-2.82,7.32,7.32,0,0,0,1.5-5.59,8.35,8.35,0,0,0-1.1-3.16A5.21,5.21,0,0,0,67,127.67a10.06,10.06,0,0,0-3.19-.74,29.36,29.36,0,0,0-3.52-.06l-3.58.15A23.67,23.67,0,0,1,53.48,127Z" fill="#f7ec41"/><path d="M53.46,127.12A21.34,21.34,0,0,1,48,125.78a26.21,26.21,0,0,1-5-2.68,23.73,23.73,0,0,1-7.59-8.45,23.39,23.39,0,0,1-2.61-11.19,23.83,23.83,0,0,1,3.13-11.23A23.18,23.18,0,0,1,49.63,81.49a29.74,29.74,0,0,1,5.84-.9,36.53,36.53,0,0,1,11.59,1.1,37.36,37.36,0,0,1,10.62,4.62l.94.59-.67.84L68.29,99.62,68,100l-.44-.22a22,22,0,0,0-8.12-2.31,20.84,20.84,0,0,0-4.25.11,6.9,6.9,0,0,0-3.71,1.57,7.25,7.25,0,0,0-2.2,3.38,7.11,7.11,0,0,0,2.25,7.38,7.61,7.61,0,0,0,3.68,1.59,30,30,0,0,0,4.25.15c.72,0,1.42,0,2.14-.12s1.48-.1,2.23-.1A25.16,25.16,0,0,1,72.61,113a21.49,21.49,0,0,1,7.67,4.81,22,22,0,0,1,5.06,7.58,25.29,25.29,0,0,1,1.7,9,23.48,23.48,0,0,1-1.82,9A23.8,23.8,0,0,1,80.14,151a24.71,24.71,0,0,1-7.62,5.21c-11.71,4.4-24.87,1.48-34.47-5.81l-1.23-.94,1-1.2,4.67-5.89c1.56-2,3.14-3.92,4.72-5.86l.8-1,1,.73a21.58,21.58,0,0,0,10.69,4.32,22.32,22.32,0,0,0,3,.12c.49,0,1-.05,1.48-.09a7,7,0,0,0,1.37-.25,6.84,6.84,0,0,0,4.13-3.54,7.28,7.28,0,0,0,.25-5.6,5.76,5.76,0,0,0-1.53-2.43,6.68,6.68,0,0,0-2.61-1.3,11,11,0,0,0-3-.39c-1,0-2-.09-3.06,0l-3.07.11Zm0-.29,3,0,3.07-.15c1-.06,2,0,3.08,0a11.22,11.22,0,0,1,3.1.3,7.34,7.34,0,0,1,2.89,1.34A6.62,6.62,0,0,1,70.52,131a8.06,8.06,0,0,1-4.65,10.83,8.43,8.43,0,0,1-1.63.4c-.52.08-1,.15-1.57.2a24.23,24.23,0,0,1-3.19.07,23.07,23.07,0,0,1-12.06-4.1l1.77-.25q-2.22,3-4.49,6l-4.54,6L39.88,148a36.65,36.65,0,0,0,15.18,6.55,34.85,34.85,0,0,0,8.29.47,32.07,32.07,0,0,0,4.11-.48,19.93,19.93,0,0,0,3.86-1.15,21.55,21.55,0,0,0,6.74-4.47,20.8,20.8,0,0,0,4.57-6.68,21.31,21.31,0,0,0,1.75-7.93,22.67,22.67,0,0,0-1.3-8.08A20,20,0,0,0,72,114.64a23.15,23.15,0,0,0-8.19-1.75c-.71,0-1.41,0-2.12,0s-1.48,0-2.22,0a31.76,31.76,0,0,1-4.43-.32,8.81,8.81,0,0,1-4.17-1.91,8.57,8.57,0,0,1-2.47-3.88,7.93,7.93,0,0,1,2.49-8.37A7.86,7.86,0,0,1,55,96.66a23.51,23.51,0,0,1,4.44-.17,24.07,24.07,0,0,1,8.6,2.17l-.78.18,9.12-12.3L76.67,88a35.78,35.78,0,0,0-10.19-3.91,37.18,37.18,0,0,0-10.83-.8,22.71,22.71,0,0,0-10.18,2.85,21.74,21.74,0,0,0-7.66,7.29,21.61,21.61,0,0,0-1.59,20.82,21.72,21.72,0,0,0,2.92,4.7,22.57,22.57,0,0,0,4.07,3.8A21.54,21.54,0,0,0,53.49,126.83Z"/><path d="M137.46,74.74l15-.85L156.67,149l-17.44,1-33-48.35,2.83,50.05-15,.85L89.88,77.43l17.55-1,32.87,48.45Z" fill="#f7ec41"/><path d="M137.35,74.64l15.05-1.29.53,0,0,.55c.52,6.25,1,12.51,1.41,18.77l1.32,18.77,1.2,18.77L158,149l.08,1.34-1.34.08q-8.73.49-17.45.89l-.73,0-.38-.58-16.11-24.43c-5.36-8.15-10.72-16.3-16.2-24.36l.86-.3c.22,4.18.44,8.35.71,12.52l.77,12.51c.49,8.34,1.13,16.67,1.69,25l.06.8-.83.06-15,1.07-1,.08-.07-1.06-1.28-18.77-1.2-18.78L88.29,77.52l-.1-1.6,1.6-.09,17.55-1,.91-.06.51.76c5.42,8.11,10.91,16.18,16.29,24.32l16.18,24.4-2.07.7-1-25.38Zm.23.2,2,25.22,1.86,24.77.31,4.14-2.38-3.44-16.68-24.06c-5.58-8-11.05-16.09-16.58-24.13l1.42.7L90,79l1.51-1.68,1.92,37.57.92,18.8.85,18.79-1.1-1,15-.62-.77.86c-.38-8.35-.69-16.7-1.13-25l-.65-12.52c-.2-4.17-.45-8.34-.7-12.51l-.11-1.71,1,1.41c5.51,8,11.13,16,16.76,24l16.84,23.93-1.1-.55q8.72-.58,17.44-1.07l-1.27,1.41-1-18.78-.92-18.79-.8-18.8c-.26-6.27-.53-12.53-.71-18.81l.57.52Z"/><path d="M214.59,149.8l-7.15-21.22L184.31,128l-8.13,20.86-16-.37,29-74.6,16,.37,25.44,75.87Zm-18-53.55-6.45,16.83,12.21.28Z" fill="#f7ec41"/><path d="M214.5,149.92l-4-10.38c-1.35-3.5-2.65-7.08-4-10.66l.86.63-11.56,0c-3.86-.05-7.72-.06-11.57-.14l1.23-.82-4,10.46c-1.36,3.47-2.73,6.94-4.15,10.4l-.34.83-.86,0c-2.67-.08-5.33-.24-8-.36l-8-.38-1.3-.06.48-1.16c2.57-6.15,5.16-12.3,7.62-18.5s4.86-12.42,7.18-18.67L181,92.23c2.25-6.28,4.59-12.53,6.9-18.78l.32-.86h1l16,.22,1,0,.34,1c2.17,6.31,4.37,12.6,6.48,18.93s4.18,12.66,6.26,19l6.07,19.06c2,6.35,3.94,12.75,5.91,19.12l.32,1-1-.05c-2.73-.12-5.44-.31-8.12-.47Zm.17-.24,8.05-.13c2.65,0,5.27-.11,7.86-.11l-.7,1c-2.27-6.27-4.61-12.52-6.81-18.82l-6.65-18.87c-2.16-6.31-4.36-12.6-6.45-18.93s-4.17-12.67-6.24-19l1.36,1-16-.53,1.26-.84c-2.51,6.18-5,12.36-7.57,18.52l-7.63,18.49q-3.75,9.28-7.29,18.63c-2.37,6.24-4.61,12.52-6.86,18.8l-.81-1.22h8c2.67,0,5.33,0,8,0l-1.21.8c1.3-3.5,2.64-7,4-10.46l4.12-10.41.33-.85.9,0c3.85.1,7.71.27,11.56.4l11.56.49.68,0,.18.61c1.07,3.49,2.15,7,3.18,10.55Z"/><path d="M196.57,96.4c-.53,1.83-1,3.47-1.36,5s-.73,3-1.12,4.34a16,16,0,0,1-1.5,3.74c-.64,1.17-1.41,2.4-2,3.74l-.45-.66a32,32,0,0,0,6.11-.19c1-.1,2-.24,3.07-.31s2-.12,3.05-.15L201,113.81c-.52-1.29-1-2.54-1.42-3.82a38.15,38.15,0,0,1-1-4C198,103.15,197.5,100,196.57,96.4Zm0-.3c1,2.1,2.36,4.66,3.73,7.53.68,1.44,1.35,3,1.91,4.54s1,3.18,1.46,4.74l.56,2-1.94-.16c-1-.08-2-.16-3.05-.28s-2-.31-3-.46a33,33,0,0,0-6.1-.48l-.67,0,.23-.68c.47-1.46.78-3,1.2-4.67a25,25,0,0,1,1.73-4.67c.69-1.46,1.42-2.84,2.11-4.08Z"/><path d="M234.19,150.6l7.07-74.92,20.95,2a21.84,21.84,0,0,1,8.58,2.6,22.66,22.66,0,0,1,6.66,5.52,23.46,23.46,0,0,1,4.12,7.61,21.87,21.87,0,0,1,.95,8.92,22.29,22.29,0,0,1-2.55,8.58,21.68,21.68,0,0,1-5.47,6.67,23.53,23.53,0,0,1-7.56,4.12,21.57,21.57,0,0,1-8.87,1l-6.13-.58L249.12,152ZM253.36,107l6,.57a7.29,7.29,0,0,0,5.54-1.67,7.16,7.16,0,0,0,2.67-5,7.46,7.46,0,0,0-6.81-8.22l-6-.57Z" fill="#f7ec41"/><path d="M234.08,150.7c.29-6,.63-12.15,1-18.36s.85-12.5,1.37-18.81,1.07-12.66,1.81-19l2.36-18.9.08-.62.58.07,6.09.69,6.1.61,6.1.55,3.06.25a24.83,24.83,0,0,1,3.09.49,23.37,23.37,0,0,1,11,6,23.68,23.68,0,0,1-.7,34.64A24.34,24.34,0,0,1,264.43,124a22.44,22.44,0,0,1-6.54.23l-6.09-.63,1.65-1.36-.82,7.47-.86,7.47c-.57,5-1.22,10-1.85,14.94l-.11.81-.77-.09c-2.57-.31-5.13-.67-7.62-1.05Zm.23-.19,7.59.34c2.48.1,4.9.21,7.29.36l-.87.73c.31-5,.6-10,1-15l.56-7.5.59-7.5.11-1.49,1.53.13,6.11.52a21.83,21.83,0,0,0,5.66-.26A22.46,22.46,0,0,0,274,115.94a20.68,20.68,0,0,0,6.24-9.4,22,22,0,0,0,.54-11.39,23,23,0,0,0-5.35-10.25,21.52,21.52,0,0,0-10-6.1,36.13,36.13,0,0,0-6-.91l-6.1-.61-6.1-.53-6.11-.46.66-.55L240.69,94.3c-.44,6.15-1,12.28-1.72,18.46s-1.4,12.38-2.17,18.65S235.19,144,234.31,150.51Z"/><path d="M253.47,106.94c1.79-.14,3.27-.33,4.63-.41.67,0,1.32,0,2-.08a7.8,7.8,0,0,0,1.83-.35,9.79,9.79,0,0,0,3.15-1.92,6.08,6.08,0,0,0,2-3.37,5.39,5.39,0,0,0-.76-4,6,6,0,0,0-3.16-2.43,14.64,14.64,0,0,0-4-.44c-1.49,0-3-.12-4.48-.22l1.74-1.44a48.86,48.86,0,0,1-1.05,6.93C254.79,101.58,254.18,104.09,253.47,106.94Zm-.23.2c-.23-2.13-.38-4.59-.42-7.18a63.72,63.72,0,0,1,.35-8l.2-1.63,1.54.19c1.49.19,3,.4,4.44.62.76.12,1.42.2,2.31.39a7.88,7.88,0,0,1,2.36,1,9.8,9.8,0,0,1,4.15,8.35,8.18,8.18,0,0,1-1.33,4.78,7.2,7.2,0,0,1-4.22,2.94,7.92,7.92,0,0,1-2.6.21,20.43,20.43,0,0,1-2.48-.45A39.63,39.63,0,0,1,253.24,107.14Z"/><path d="M77.51,57.61c-2.66-3.16-5.35-6.28-8.2-9.24s-5.71-5.88-8.69-8.68-6.31-5.21-9.18-8.11c-1.46-1.42-2.89-2.88-4.31-4.39-.72-.73-1.41-1.51-2.1-2.29s-1.38-1.57-2-2.43l.24-.32A37.83,37.83,0,0,1,48.9,25c.9.54,1.76,1.14,2.64,1.71s1.7,1.23,2.53,1.86c3.35,2.53,6,5.79,8.83,8.88s5.45,6.3,7.95,9.63,4.84,6.76,7,10.3Z" fill="#bb4c46"/><path d="M81.15,46.36c-2.45-3.86-5-7.68-7.64-11.36s-5.4-7.32-8.26-10.84-6.1-6.71-8.85-10.3q-2.11-2.67-4.12-5.44c-.69-.91-1.35-1.85-2-2.8S49,3.72,48.37,2.69l.29-.28A44.13,44.13,0,0,1,54.33,6.5c.9.73,1.74,1.53,2.61,2.29s1.66,1.62,2.47,2.44c3.26,3.29,5.78,7.22,8.4,11s5.1,7.69,7.39,11.68S79.6,42,81.5,46.17Z" fill="#bb4c46"/><path d="M88.29,40.83C86.58,37.52,84.87,34.22,83,31s-3.67-6.44-5.58-9.6c-1-1.57-2-3.1-3-4.63A51.58,51.58,0,0,1,71.55,12c-.87-1.63-1.7-3.28-2.47-5A44.65,44.65,0,0,1,67,1.76l.33-.23a32.38,32.38,0,0,1,4.13,4A51.29,51.29,0,0,1,75,9.93a38.11,38.11,0,0,1,2.88,4.84l2.43,5.09q2.47,5.06,4.58,10.27c1.37,3.49,2.69,7,3.82,10.54Z" fill="#bb4c46"/><polygon points="142.34 5.23 150.61 7.25 155.08 0 155.72 8.49 164 10.5 156.12 13.74 156.76 22.23 151.25 15.73 143.38 18.97 147.85 11.72 142.34 5.23"/><path d="M226.3,36.48a90.35,90.35,0,0,1,5.14-9.08,87.85,87.85,0,0,1,6.21-8.46c.56-.67,1.12-1.34,1.67-2l1.7-2c.59-.66,1.19-1.3,1.82-1.91s1.32-1.17,2-1.73a37.47,37.47,0,0,1,4.39-3,25.5,25.5,0,0,1,4.86-2.22l.24.32c-.51.76-1.07,1.44-1.63,2.12s-1.12,1.34-1.7,2-1.14,1.29-1.73,1.9-1.16,1.25-1.76,1.85c-1.18,1.22-2.41,2.37-3.7,3.47s-2.59,2.21-3.8,3.4q-3.62,3.6-7,7.49c-2.26,2.58-4.35,5.31-6.4,8.1Z" fill="#bb4c46"/><path d="M236.4,37.58c.69-1.46,1.5-2.84,2.29-4.25s1.69-2.73,2.62-4,1.62-2.86,2.94-3.82a10.26,10.26,0,0,1,4.64-2.13l.28.29a11.92,11.92,0,0,1-2,4.59c-.85,1.33-2.28,2.11-3.43,3.18l-7,6.42Z" fill="#bb4c46"/><path d="M53.13,181.44c-2.43,2.46-4.8,4.95-7,7.59s-4.32,5.31-6.3,8.07c-1,1.39-1.88,2.84-2.76,4.29a49.85,49.85,0,0,1-2.84,4.2c-.5.69-1,1.36-1.55,2s-1,1.35-1.61,2-1.09,1.33-1.67,2-1.16,1.32-1.83,1.94l-.36-.18a25.58,25.58,0,0,1,1.43-5.16,36.55,36.55,0,0,1,2.23-4.79c.44-.76.9-1.52,1.39-2.25s1-1.42,1.59-2.1l1.73-2c.59-.65,1.17-1.31,1.75-2a89.48,89.48,0,0,1,7.36-7.47,92.36,92.36,0,0,1,8.16-6.51Z" fill="#bb4c46"/><path d="M55.84,191.22l-5.24,7.91c-.87,1.31-1.41,2.85-2.59,3.9a12.07,12.07,0,0,1-4.22,2.72l-.33-.23a10.29,10.29,0,0,1,1.37-4.92c.74-1.46,2.16-2.39,3.31-3.51s2.34-2.2,3.58-3.23,2.5-2,3.83-2.92Z" fill="#bb4c46"/><polygon points="0 104.51 7.4 102.61 7.89 94.99 11.98 101.44 19.38 99.55 14.51 105.43 18.59 111.89 11.49 109.07 6.62 114.95 7.1 107.33 0 104.51"/><polygon points="150.91 221.86 156.22 221.96 157.96 216.94 159.5 222.03 164.82 222.13 160.46 225.17 162 230.25 157.76 227.04 153.41 230.08 155.15 225.06 150.91 221.86"/><path d="M216.23,194.57c2.58,3.25,4.93,6.67,7.21,10.15s4.34,7.11,6.25,10.81,4,7.36,5.24,11.38c.3,1,.59,2,.85,3s.5,2,.68,3.07a36.48,36.48,0,0,1,.7,6.29l-.38.12c-.59-.91-1.08-1.83-1.57-2.75s-1-1.84-1.42-2.77c-.91-1.85-1.79-3.7-2.61-5.57-1.71-3.7-2.81-7.65-4.38-11.43s-3.28-7.5-5.1-11.18-3.76-7.32-5.8-10.91Z" fill="#bb4c46"/><path d="M228,195.05c3.25,3.24,6.3,6.68,9.27,10.19s5.74,7.21,8.37,11S251.1,223.75,253,228c.49,1,1,2.1,1.42,3.17s.86,2.15,1.24,3.25a43.85,43.85,0,0,1,1.85,6.74l-.36.16c-.76-.91-1.42-1.86-2.08-2.8s-1.32-1.89-1.93-2.85q-1.89-2.87-3.65-5.76c-2.41-3.84-4.26-8-6.56-11.9s-4.73-7.75-7.28-11.53-5.21-7.48-8-11.13Z" fill="#bb4c46"/><path d="M235.67,190.27c2.94,2.3,5.76,4.76,8.55,7.26s5.44,5.16,8,7.88l3.92,4.06a37.16,37.16,0,0,1,3.53,4.38,52.66,52.66,0,0,1,2.92,4.84,33.82,33.82,0,0,1,2.28,5.26l-.33.23a44.17,44.17,0,0,1-4.21-3.82c-1.34-1.31-2.59-2.67-3.82-4.05A51.33,51.33,0,0,1,253.1,212c-1.07-1.51-2.14-3-3.28-4.47q-3.44-4.35-7-8.59c-2.38-2.85-4.88-5.6-7.38-8.36Z" fill="#bb4c46"/><polygon points="292.83 145.56 301.1 147.57 305.57 140.33 306.22 148.82 314.49 150.83 306.61 154.07 307.25 162.56 301.75 156.06 293.87 159.3 298.34 152.05 292.83 145.56"/></g></g></svg>