<svg xmlns="http://www.w3.org/2000/svg" viewBox="0 0 370.49 294.08"><g id="Layer_2" data-name="Layer 2"><g id="Object"><path d="M365,80.43a2.07,2.07,0,0,0-2,2.13,2.12,2.12,0,0,0,.1.62c.85-1.26,1.52-2.18,1.93-2.74Z"/><path d="M356.93,93.16a2.23,2.23,0,0,0-.34-1.18,2.17,2.17,0,0,0-.55-.58,2,2,0,0,0-1.13-.36v2.12Z"/><path d="M354.91,95.28a1.93,1.93,0,0,0,1.13-.36h0c.29-.55.58-1.08.87-1.6,0,0,0-.1,0-.15h-2Z"/><path d="M356.9,198.9a2.14,2.14,0,0,0-.86-1.44,2,2,0,0,0-1.13-.36v1.76Z"/><path d="M354.91,93.16V91a2,2,0,0,0-1.67.94,2.15,2.15,0,0,0-.35,1.18Z"/><path d="M336.74,93.16a2.15,2.15,0,0,0-.35-1.18A2,2,0,0,0,333,92a2.15,2.15,0,0,0-.34,1.18Z"/><path d="M322.6,82.56a2,2,0,1,0,4,0,2.12,2.12,0,0,0-1.09-1.87l-1-.25A2.07,2.07,0,0,0,322.6,82.56Z"/><path d="M344.81,84.68a2.07,2.07,0,0,0,2-2.12v0c-1.36.07-2.71.11-4,.12A2.07,2.07,0,0,0,344.81,84.68Z"/><path d="M316.54,93.16a2.15,2.15,0,0,0-.35-1.18,2,2,0,0,0-1.26-.89,1.84,1.84,0,0,0-.41,0v2.12Z"/><path d="M336.69,135.16a2.08,2.08,0,0,0-.55-1.07,1.48,1.48,0,0,0-.3-.26,2,2,0,0,0-.72-.32,1.81,1.81,0,0,0-.4,0,1.84,1.84,0,0,0-.41,0,2,2,0,0,0-.72.32,1.48,1.48,0,0,0-.3.26,2.08,2.08,0,0,0-.55,1.07,2,2,0,0,0,0,.43h4A2,2,0,0,0,336.69,135.16Z"/><path d="M334.72,116.5a2.13,2.13,0,1,0-2-2.13A2.08,2.08,0,0,0,334.72,116.5Z"/><path d="M324.62,127.1a2.12,2.12,0,1,0-2-2.12A2.08,2.08,0,0,0,324.62,127.1Z"/><path d="M344.31,127c.28-1.4.58-2.77.91-4.13a1.84,1.84,0,0,0-.41,0,2.08,2.08,0,0,0-2,2.12A2.11,2.11,0,0,0,344.31,127Z"/><path d="M324.62,105.89a2.12,2.12,0,1,0-2-2.12A2.08,2.08,0,0,0,324.62,105.89Z"/><path d="M344.81,101.65a2.12,2.12,0,1,0,2,2.12A2.08,2.08,0,0,0,344.81,101.65Z"/><path d="M316.54,135.59a3,3,0,0,0,0-.43,2.15,2.15,0,0,0-.55-1.07,1.48,1.48,0,0,0-.3-.26,2.12,2.12,0,0,0-.72-.32,1.84,1.84,0,0,0-.41,0v2.12Z"/><path d="M314.93,116.45a2.14,2.14,0,0,0,0-4.15,1.84,1.84,0,0,0-.41,0v4.25A1.84,1.84,0,0,0,314.93,116.45Z"/><path d="M352.89,93.16a2.27,2.27,0,0,0,.16.83,2,2,0,0,0,1.86,1.29V93.16Z"/><path d="M332.85,94a2,2,0,0,0,3.73,0,2.27,2.27,0,0,0,.16-.83h-4A2.27,2.27,0,0,0,332.85,94Z"/><path d="M314.52,95.28a1.84,1.84,0,0,0,.41,0A2.07,2.07,0,0,0,316.38,94a2.27,2.27,0,0,0,.16-.83h-2Z"/><path d="M336.39,176.82a2,2,0,0,0-3.35,0,2.18,2.18,0,0,0-.34,1.19h4A2.19,2.19,0,0,0,336.39,176.82Z"/><path d="M334.72,154.68a2.12,2.12,0,1,0,2,2.12A2.07,2.07,0,0,0,334.72,154.68Z"/><path d="M324.62,165.28a2.13,2.13,0,1,0,2,2.13A2.07,2.07,0,0,0,324.62,165.28Z"/><path d="M344.81,169.53a2,2,0,0,0,1.87-1.31c-.32-.88-.61-1.77-.89-2.66a1.93,1.93,0,0,0-1-.28,2.13,2.13,0,0,0,0,4.25Z"/><path d="M324.62,144.07a2.12,2.12,0,1,0,2,2.12A2.07,2.07,0,0,0,324.62,144.07Z"/><path d="M316.54,178a2.19,2.19,0,0,0-.35-1.19,2,2,0,0,0-1.26-.89,1.84,1.84,0,0,0-.41,0V178Z"/><path d="M314.93,154.72a1.84,1.84,0,0,0-.41,0v4.24a1.84,1.84,0,0,0,.41,0,2.15,2.15,0,0,0,0-4.16Z"/><path d="M332.7,135.59a2,2,0,1,0,4,0Z"/><path d="M314.52,135.59v2.12a1.84,1.84,0,0,0,.41-.05,2.09,2.09,0,0,0,1.61-2.07Z"/><path d="M354.91,198.86V197.1a2,2,0,0,0-2,1.76C353.6,198.85,354.27,198.85,354.91,198.86Z"/><path d="M334.72,197.1a2.07,2.07,0,0,0-2,2.12,2.17,2.17,0,0,0,.78,1.67c1-.2,2-.39,2.95-.56a2.17,2.17,0,0,0,.31-1.11A2.08,2.08,0,0,0,334.72,197.1Z"/><path d="M322.6,188.62a2,2,0,1,0,2-2.13A2.07,2.07,0,0,0,322.6,188.62Z"/><path d="M342.79,188.62a2,2,0,1,0,2-2.13A2.08,2.08,0,0,0,342.79,188.62Z"/><path d="M314.93,201.3a2.15,2.15,0,0,0,0-4.16,2.71,2.71,0,0,0-.41,0v4.25A1.84,1.84,0,0,0,314.93,201.3Z"/><path d="M332.7,178a2.31,2.31,0,0,0,.15.83,2,2,0,0,0,3.73,0,2.31,2.31,0,0,0,.16-.83Z"/><path d="M314.52,178v2.12a1.84,1.84,0,0,0,.41,0,2.07,2.07,0,0,0,1.45-1.25,2.31,2.31,0,0,0,.16-.83Z"/><path d="M276.15,50.74a2,2,0,0,0,0-.43,2.12,2.12,0,0,0-.55-1.07,2.35,2.35,0,0,0-.29-.26,2.09,2.09,0,0,0-.73-.32,1.75,1.75,0,0,0-.4,0v2.12Z"/><path d="M274.13,31.65a1.91,1.91,0,0,0,1.07-.33c-.37-1-.73-1.9-1.07-2.84Z"/><path d="M312.84,92a2.23,2.23,0,0,0-.34,1.18h2V91a1.9,1.9,0,0,0-.79.17A2.07,2.07,0,0,0,312.84,92Z"/><path d="M296.34,93.16A2.15,2.15,0,0,0,296,92a2,2,0,0,0-1.68-.94,2,2,0,0,0-1.67.94,2.15,2.15,0,0,0-.35,1.18Z"/><path d="M294.32,69.83a2.12,2.12,0,1,0,2,2.12A2.08,2.08,0,0,0,294.32,69.83Z"/><path d="M286.24,82.56a2,2,0,1,0-2,2.12A2.07,2.07,0,0,0,286.24,82.56Z"/><path d="M306.44,82.56a2,2,0,1,0-2,2.12A2.07,2.07,0,0,0,306.44,82.56Z"/><path d="M282.21,61.35a2,2,0,1,0,2-2.13A2.07,2.07,0,0,0,282.21,61.35Z"/><path d="M276.15,93.16a2.22,2.22,0,0,0-.89-1.76,2,2,0,0,0-1.13-.36v2.12Z"/><path d="M275.26,73.71a2.19,2.19,0,0,0,0-3.52,2,2,0,0,0-1.13-.36v4.24A2,2,0,0,0,275.26,73.71Z"/><path d="M274.13,52.86a2,2,0,0,0,1.13-.36,2.17,2.17,0,0,0,.89-1.76h-2Z"/><path d="M314.52,133.47a1.84,1.84,0,0,0-.41,0,2.4,2.4,0,0,0-.38.12,2.33,2.33,0,0,0-.34.2,1.48,1.48,0,0,0-.3.26,2.15,2.15,0,0,0-.55,1.07,2,2,0,0,0,0,.43h2Z"/><path d="M296.3,135.16a2.08,2.08,0,0,0-.55-1.07,1.48,1.48,0,0,0-.3-.26,2,2,0,0,0-.72-.32,1.84,1.84,0,0,0-.41,0,1.75,1.75,0,0,0-.4,0,2.09,2.09,0,0,0-.73.32,2.32,2.32,0,0,0-.3.26,2.24,2.24,0,0,0-.55,1.07,3,3,0,0,0,0,.43h4A2,2,0,0,0,296.3,135.16Z"/><path d="M312.5,114.37a2.14,2.14,0,0,0,1.23,2,1.9,1.9,0,0,0,.79.17v-4.25a1.9,1.9,0,0,0-.79.17A2.13,2.13,0,0,0,312.5,114.37Z"/><path d="M294.32,116.5a2.13,2.13,0,1,0-2-2.13A2.07,2.07,0,0,0,294.32,116.5Z"/><path d="M284.22,122.86a2.12,2.12,0,1,0,2,2.12A2.07,2.07,0,0,0,284.22,122.86Z"/><path d="M304.42,127.1a2.12,2.12,0,1,0-2-2.12A2.07,2.07,0,0,0,304.42,127.1Z"/><path d="M284.22,101.65a2.12,2.12,0,1,0,2,2.12A2.07,2.07,0,0,0,284.22,101.65Z"/><path d="M304.42,105.89a2.12,2.12,0,1,0-2-2.12A2.07,2.07,0,0,0,304.42,105.89Z"/><path d="M276.15,135.59a2,2,0,0,0,0-.43,2.08,2.08,0,0,0-.55-1.07,1.75,1.75,0,0,0-.29-.26,2.09,2.09,0,0,0-.73-.32,1.75,1.75,0,0,0-.4,0v2.12Z"/><path d="M275.26,112.62a2,2,0,0,0-1.13-.37v4.25a2,2,0,0,0,1.13-.37,2.18,2.18,0,0,0,0-3.51Z"/><path d="M312.5,93.16a2.27,2.27,0,0,0,.16.83,2,2,0,0,0,1.86,1.29V93.16Z"/><path d="M292.46,94a2,2,0,0,0,1.86,1.29A2,2,0,0,0,296.18,94a2.08,2.08,0,0,0,.16-.83h-4A2.27,2.27,0,0,0,292.46,94Z"/><path d="M274.13,95.28a2,2,0,0,0,1.13-.36A2.17,2.17,0,0,0,276,94a2.27,2.27,0,0,0,.16-.83h-2Z"/><path d="M314.52,175.89a1.9,1.9,0,0,0-.79.17,2.11,2.11,0,0,0-.89.76,2.27,2.27,0,0,0-.34,1.19h2Z"/><path d="M296,176.82a2,2,0,0,0-1.68-.93,2,2,0,0,0-1.67.93,2.19,2.19,0,0,0-.35,1.19h4A2.18,2.18,0,0,0,296,176.82Z"/><path d="M313.73,154.84a2.15,2.15,0,0,0-1.23,2,2.12,2.12,0,0,0,1.23,1.95,1.9,1.9,0,0,0,.79.17v-4.24A2.06,2.06,0,0,0,313.73,154.84Z"/><path d="M294.32,154.68a2.12,2.12,0,1,0,2,2.12A2.08,2.08,0,0,0,294.32,154.68Z"/><path d="M284.22,165.28a2.13,2.13,0,1,0,2,2.13A2.07,2.07,0,0,0,284.22,165.28Z"/><path d="M304.42,165.28a2.13,2.13,0,1,0,2,2.13A2.07,2.07,0,0,0,304.42,165.28Z"/><path d="M284.22,144.07a2.12,2.12,0,1,0,2,2.12A2.07,2.07,0,0,0,284.22,144.07Z"/><path d="M304.42,144.07a2.12,2.12,0,1,0,2,2.12A2.07,2.07,0,0,0,304.42,144.07Z"/><path d="M276.15,178a2.19,2.19,0,0,0-.35-1.19,2.1,2.1,0,0,0-.54-.57,2,2,0,0,0-1.13-.36V178Z"/><path d="M275.26,155a2,2,0,0,0-1.13-.36v4.24a2,2,0,0,0,1.13-.36,2.19,2.19,0,0,0,0-3.52Z"/><path d="M312.5,135.59a2.13,2.13,0,0,0,1.23,1.95,1.9,1.9,0,0,0,.79.17v-2.12Z"/><path d="M294.32,137.71a2.07,2.07,0,0,0,2-2.12h-4A2.08,2.08,0,0,0,294.32,137.71Z"/><path d="M274.13,135.59v2.12a2,2,0,0,0,1.13-.37,2.15,2.15,0,0,0,.89-1.75Z"/><path d="M295.7,218.89a1.64,1.64,0,0,0-.25-.21,1.74,1.74,0,0,0-.72-.32,1.84,1.84,0,0,0-.41-.05,1.75,1.75,0,0,0-.4.05,1.78,1.78,0,0,0-.73.32,3.31,3.31,0,0,0-.3.25,2.27,2.27,0,0,0-.55,1.08,2.85,2.85,0,0,0,0,.42h1.63C294.52,219.91,295.1,219.39,295.7,218.89Z"/><path d="M314.52,197.1a1.9,1.9,0,0,0-.79.17,2.17,2.17,0,0,0,0,3.91,1.9,1.9,0,0,0,.79.17Z"/><path d="M294.32,201.35a2.13,2.13,0,1,0-2-2.13A2.08,2.08,0,0,0,294.32,201.35Z"/><path d="M286.24,209.83a2,2,0,1,0-2,2.12A2.07,2.07,0,0,0,286.24,209.83Z"/><path d="M304.42,207.71a2.12,2.12,0,1,0,2,2.12A2.07,2.07,0,0,0,304.42,207.71Z"/><path d="M284.22,186.49a2.13,2.13,0,1,0,2,2.13A2.07,2.07,0,0,0,284.22,186.49Z"/><path d="M304.42,186.49a2.13,2.13,0,1,0,2,2.13A2.07,2.07,0,0,0,304.42,186.49Z"/><path d="M276.15,220.43a1.93,1.93,0,0,0,0-.42,2.11,2.11,0,0,0-.55-1.08,2.26,2.26,0,0,0-.29-.25,1.78,1.78,0,0,0-.73-.32,1.75,1.75,0,0,0-.4-.05v2.12Z"/><path d="M275.26,201a2.19,2.19,0,0,0,0-3.52,2,2,0,0,0-1.13-.36v4.25A2,2,0,0,0,275.26,201Z"/><path d="M312.5,178a2.31,2.31,0,0,0,.16.83,2.06,2.06,0,0,0,1.07,1.12,1.9,1.9,0,0,0,.79.17V178Z"/><path d="M294.32,180.13a2,2,0,0,0,1.86-1.29,2.12,2.12,0,0,0,.16-.83h-4a2.31,2.31,0,0,0,.16.83A2,2,0,0,0,294.32,180.13Z"/><path d="M274.13,180.13a2,2,0,0,0,1.13-.36,2.17,2.17,0,0,0,.73-.93,2.31,2.31,0,0,0,.16-.83h-2Z"/><path d="M282.21,231a2.2,2.2,0,0,0,.66,1.57c.84-1.13,1.69-2.21,2.56-3.26a1.92,1.92,0,0,0-1.21-.43A2.07,2.07,0,0,0,282.21,231Z"/><path d="M275.26,243.41a2.19,2.19,0,0,0,.89-1.76,2.16,2.16,0,0,0-.89-1.76,2,2,0,0,0-1.13-.36v4.24A2,2,0,0,0,275.26,243.41Z"/><path d="M292.3,220.43a2.23,2.23,0,0,0,.34,1.18l1.29-1.18Z"/><path d="M274.13,222.55a2,2,0,0,0,1.13-.36,2.16,2.16,0,0,0,.89-1.76h-2Z"/><path d="M274.13,50.74V48.62a1.84,1.84,0,0,0-.41,0A2,2,0,0,0,273,49a1.87,1.87,0,0,0-.3.26,2.12,2.12,0,0,0-.55,1.07,2,2,0,0,0,0,.43Z"/><path d="M256,50.74a2,2,0,0,0,0-.43,2.2,2.2,0,0,0-.55-1.07,1.87,1.87,0,0,0-.3-.26,2.12,2.12,0,0,0-.72-.32,2.12,2.12,0,0,0-.82,0,2.12,2.12,0,0,0-.72.32,1.87,1.87,0,0,0-.3.26,2.2,2.2,0,0,0-.55,1.07,3,3,0,0,0,0,.43Z"/><path d="M273.76,27.45a2.13,2.13,0,0,0,.37,4.2V28.48C274,28.13,273.88,27.79,273.76,27.45Z"/><path d="M253.93,31.65a2.12,2.12,0,1,0-2-2.12A2.07,2.07,0,0,0,253.93,31.65Z"/><path d="M245.85,40.13a2,2,0,1,0-2,2.12A2.07,2.07,0,0,0,245.85,40.13Z"/><path d="M266.05,40.13a2,2,0,1,0-2,2.12A2.08,2.08,0,0,0,266.05,40.13Z"/><path d="M264,21a2.12,2.12,0,1,0-2-2.12A2.08,2.08,0,0,0,264,21Z"/><path d="M233.73,50.74h2a2,2,0,0,0,0-.43,2.12,2.12,0,0,0-.55-1.07,1.87,1.87,0,0,0-.3-.26,2,2,0,0,0-.72-.32,1.84,1.84,0,0,0-.41,0Z"/><path d="M274.13,93.16V91a2,2,0,0,0-1.68.94,2.15,2.15,0,0,0-.34,1.18Z"/><path d="M256,93.16a2.23,2.23,0,0,0-.34-1.18,2,2,0,0,0-1.68-.94,2,2,0,0,0-1.67.94,2.15,2.15,0,0,0-.35,1.18Z"/><path d="M274.13,74.07V69.83a2.12,2.12,0,0,0,0,4.24Z"/><path d="M253.93,74.07a2.12,2.12,0,1,0-2-2.12A2.07,2.07,0,0,0,253.93,74.07Z"/><path d="M243.83,84.68a2.13,2.13,0,1,0-2-2.12A2.07,2.07,0,0,0,243.83,84.68Z"/><path d="M264,84.68a2.13,2.13,0,1,0-2-2.12A2.08,2.08,0,0,0,264,84.68Z"/><path d="M243.83,63.47a2.13,2.13,0,1,0-2-2.12A2.07,2.07,0,0,0,243.83,63.47Z"/><path d="M264,63.47a2.13,2.13,0,1,0-2-2.12A2.08,2.08,0,0,0,264,63.47Z"/><path d="M235.75,93.16a2.15,2.15,0,0,0-.34-1.18,2,2,0,0,0-1.27-.89,1.84,1.84,0,0,0-.41,0v2.12Z"/><path d="M234.14,74a2.15,2.15,0,0,0,0-4.16,2.71,2.71,0,0,0-.41,0v4.24A1.84,1.84,0,0,0,234.14,74Z"/><path d="M272.11,50.74a2.07,2.07,0,0,0,2,2.12V50.74Z"/><path d="M253.93,52.86a2.07,2.07,0,0,0,2-2.12h-4A2.07,2.07,0,0,0,253.93,52.86Z"/><path d="M233.73,52.86a2.71,2.71,0,0,0,.41,0,2.11,2.11,0,0,0,1.61-2.08h-2Z"/><path d="M274.13,133.47a1.84,1.84,0,0,0-.41,0,2,2,0,0,0-.72.32,1.48,1.48,0,0,0-.3.26,2.08,2.08,0,0,0-.55,1.07,2,2,0,0,0,0,.43h2Z"/><path d="M255.91,135.16a2.15,2.15,0,0,0-.55-1.07,1.48,1.48,0,0,0-.3-.26,2.12,2.12,0,0,0-.72-.32,2.12,2.12,0,0,0-.82,0,2.12,2.12,0,0,0-.72.32,1.48,1.48,0,0,0-.3.26,2.15,2.15,0,0,0-.55,1.07,3,3,0,0,0,0,.43h4A2,2,0,0,0,255.91,135.16Z"/><path d="M272.11,114.37a2.07,2.07,0,0,0,2,2.13v-4.25A2.07,2.07,0,0,0,272.11,114.37Z"/><path d="M253.93,116.5a2.13,2.13,0,1,0-2-2.13A2.07,2.07,0,0,0,253.93,116.5Z"/><path d="M243.83,122.86a2.12,2.12,0,1,0,2,2.12A2.08,2.08,0,0,0,243.83,122.86Z"/><path d="M264,122.86a2.12,2.12,0,1,0,2,2.12A2.07,2.07,0,0,0,264,122.86Z"/><path d="M243.83,101.65a2.12,2.12,0,1,0,2,2.12A2.08,2.08,0,0,0,243.83,101.65Z"/><path d="M264,101.65a2.12,2.12,0,1,0,2,2.12A2.07,2.07,0,0,0,264,101.65Z"/><path d="M235.75,135.59a2,2,0,0,0,0-.43,2.08,2.08,0,0,0-.55-1.07,1.48,1.48,0,0,0-.3-.26,2,2,0,0,0-.72-.32,1.84,1.84,0,0,0-.41,0v2.12Z"/><path d="M234.14,116.45a2.14,2.14,0,0,0,0-4.15,1.84,1.84,0,0,0-.41,0v4.25A1.84,1.84,0,0,0,234.14,116.45Z"/><path d="M272.11,93.16a2.08,2.08,0,0,0,.16.83,2,2,0,0,0,1.86,1.29V93.16Z"/><path d="M252.07,94a2,2,0,0,0,3.72,0,2.27,2.27,0,0,0,.16-.83h-4A2.27,2.27,0,0,0,252.07,94Z"/><path d="M233.73,95.28a1.84,1.84,0,0,0,.41,0A2,2,0,0,0,235.59,94a2.08,2.08,0,0,0,.16-.83h-2Z"/><path d="M274.13,175.89a2,2,0,0,0-1.68.93,2.18,2.18,0,0,0-.34,1.19h2Z"/><path d="M255.61,176.82a2,2,0,0,0-1.68-.93,2,2,0,0,0-1.67.93,2.19,2.19,0,0,0-.35,1.19h4A2.27,2.27,0,0,0,255.61,176.82Z"/><path d="M272.11,156.8a2.07,2.07,0,0,0,2,2.12v-4.24A2.07,2.07,0,0,0,272.11,156.8Z"/><path d="M253.93,154.68a2.12,2.12,0,1,0,2,2.12A2.07,2.07,0,0,0,253.93,154.68Z"/><path d="M243.83,165.28a2.13,2.13,0,1,0,2,2.13A2.08,2.08,0,0,0,243.83,165.28Z"/><path d="M264,165.28a2.13,2.13,0,1,0,2,2.13A2.07,2.07,0,0,0,264,165.28Z"/><path d="M243.83,144.07a2.12,2.12,0,1,0,2,2.12A2.08,2.08,0,0,0,243.83,144.07Z"/><path d="M264,144.07a2.12,2.12,0,1,0,2,2.12A2.07,2.07,0,0,0,264,144.07Z"/><path d="M234.14,175.93a1.84,1.84,0,0,0-.41,0V178h2a2.18,2.18,0,0,0-.34-1.19A2,2,0,0,0,234.14,175.93Z"/><path d="M234.14,154.72a1.84,1.84,0,0,0-.41,0v4.24a1.84,1.84,0,0,0,.41,0,2.15,2.15,0,0,0,0-4.16Z"/><path d="M272.11,135.59a2.07,2.07,0,0,0,2,2.12v-2.12Z"/><path d="M251.91,135.59a2,2,0,1,0,4,0Z"/><path d="M233.73,135.59v2.12a1.84,1.84,0,0,0,.41-.05,2.09,2.09,0,0,0,1.61-2.07Z"/><path d="M274.13,218.31a1.84,1.84,0,0,0-.41.05,1.74,1.74,0,0,0-.72.32,1.81,1.81,0,0,0-.3.25,2.11,2.11,0,0,0-.55,1.08,1.93,1.93,0,0,0,0,.42h2Z"/><path d="M255.36,218.93a2.14,2.14,0,0,0-1-.57,1.71,1.71,0,0,0-.82,0,2.14,2.14,0,0,0-1,.57A2.19,2.19,0,0,0,252,220a2.85,2.85,0,0,0,0,.42h4a1.93,1.93,0,0,0,0-.42A2.19,2.19,0,0,0,255.36,218.93Z"/><path d="M274.13,201.35V197.1a2.13,2.13,0,0,0,0,4.25Z"/><path d="M253.93,201.35a2.13,2.13,0,1,0-2-2.13A2.08,2.08,0,0,0,253.93,201.35Z"/><path d="M245.85,209.83a2,2,0,1,0-2,2.12A2.07,2.07,0,0,0,245.85,209.83Z"/><path d="M264,207.71a2.12,2.12,0,1,0,2,2.12A2.07,2.07,0,0,0,264,207.71Z"/><path d="M243.83,186.49a2.13,2.13,0,1,0,2,2.13A2.08,2.08,0,0,0,243.83,186.49Z"/><path d="M264,186.49a2.13,2.13,0,1,0,2,2.13A2.07,2.07,0,0,0,264,186.49Z"/><path d="M235.75,220.43a1.93,1.93,0,0,0,0-.42,2.11,2.11,0,0,0-.55-1.08,1.81,1.81,0,0,0-.3-.25,1.74,1.74,0,0,0-.72-.32,1.84,1.84,0,0,0-.41-.05v2.12Z"/><path d="M234.14,201.3a2.15,2.15,0,0,0,0-4.16,2.71,2.71,0,0,0-.41,0v4.25A1.84,1.84,0,0,0,234.14,201.3Z"/><path d="M274.13,180.13V178h-2a2.12,2.12,0,0,0,.16.83A2,2,0,0,0,274.13,180.13Z"/><path d="M251.91,178a2.31,2.31,0,0,0,.16.83,2,2,0,0,0,3.72,0A2.31,2.31,0,0,0,256,178Z"/><path d="M233.73,180.13a1.84,1.84,0,0,0,.41,0,2,2,0,0,0,1.45-1.25,2.12,2.12,0,0,0,.16-.83h-2Z"/><path d="M253.93,260.74a2,2,0,0,0-1.67.93,2.21,2.21,0,0,0-.28.67l.48.52H256a2.27,2.27,0,0,0-.34-1.19A2,2,0,0,0,253.93,260.74Z"/><path d="M274.13,243.77v-4.24a2.12,2.12,0,0,0,0,4.24Z"/><path d="M253.93,239.53a2.12,2.12,0,1,0,2,2.12A2.06,2.06,0,0,0,253.93,239.53Z"/><path d="M245.85,252.25a2,2,0,1,0-4,0,2.4,2.4,0,0,0,0,.28l2,1.84A2.08,2.08,0,0,0,245.85,252.25Z"/><path d="M266.05,252.25a2,2,0,1,0-2,2.12A2.08,2.08,0,0,0,266.05,252.25Z"/><path d="M241.81,231a2,2,0,1,0,2-2.12A2.08,2.08,0,0,0,241.81,231Z"/><path d="M264,228.92a2.12,2.12,0,1,0,2,2.12A2.07,2.07,0,0,0,264,228.92Z"/><path d="M234.14,243.73a2.15,2.15,0,0,0,0-4.16,1.84,1.84,0,0,0-.41,0v4.24A2.71,2.71,0,0,0,234.14,243.73Z"/><path d="M274.13,222.55v-2.12h-2A2.07,2.07,0,0,0,274.13,222.55Z"/><path d="M253.93,222.55a2.07,2.07,0,0,0,2-2.12h-4A2.07,2.07,0,0,0,253.93,222.55Z"/><path d="M233.73,220.43v2.12a1.84,1.84,0,0,0,.41,0,2.1,2.1,0,0,0,1.61-2.08Z"/><path d="M262,273.46a2.18,2.18,0,0,0,.15.82l.67.88a1.91,1.91,0,0,0,1.2.43h.06c.3-1.34.62-2.65,1-3.94a1.87,1.87,0,0,0-1-.3A2.07,2.07,0,0,0,262,273.46Z"/><path d="M254.36,264.93a2,2,0,0,0,1.43-1.25,2.22,2.22,0,0,0,.16-.82h-3.49C253.12,263.56,253.76,264.25,254.36,264.93Z"/><path d="M233.73,48.62a1.75,1.75,0,0,0-.4,0,2.39,2.39,0,0,0-.73.32,2.35,2.35,0,0,0-.29.26,2.12,2.12,0,0,0-.55,1.07,2,2,0,0,0,0,.43h2Z"/><path d="M211.56,50.31a2,2,0,0,0,0,.43h4a3,3,0,0,0,0-.43,2.2,2.2,0,0,0-.55-1.07,1.87,1.87,0,0,0-.3-.26c-1,.35-2,.68-3,1A1.65,1.65,0,0,0,211.56,50.31Z"/><path d="M233.73,91a1.89,1.89,0,0,0-.78.17,2.07,2.07,0,0,0-.89.77,2.15,2.15,0,0,0-.35,1.18h2Z"/><path d="M215.21,92a2,2,0,0,0-3.35,0,2.23,2.23,0,0,0-.34,1.18h4A2.15,2.15,0,0,0,215.21,92Z"/><path d="M231.71,72a2.14,2.14,0,0,0,1.24,2,2.05,2.05,0,0,0,.78.16V69.83A1.89,1.89,0,0,0,233,70,2.11,2.11,0,0,0,231.71,72Z"/><path d="M213.54,74.07a2.12,2.12,0,1,0-2-2.12A2.08,2.08,0,0,0,213.54,74.07Z"/><path d="M205.46,82.56a2,2,0,1,0-2,2.12A2.08,2.08,0,0,0,205.46,82.56Z"/><path d="M223.64,84.68a2.13,2.13,0,1,0-2-2.12A2.08,2.08,0,0,0,223.64,84.68Z"/><path d="M203.44,59.22a2.13,2.13,0,1,0,2,2.13A2.07,2.07,0,0,0,203.44,59.22Z"/><path d="M221.62,61.35a2,2,0,1,0,2-2.13A2.07,2.07,0,0,0,221.62,61.35Z"/><path d="M195.36,93.16A2.23,2.23,0,0,0,195,92a2.17,2.17,0,0,0-.55-.58,2,2,0,0,0-1.13-.36v2.12Z"/><path d="M194.47,73.71a2.19,2.19,0,0,0,0-3.52,1.93,1.93,0,0,0-1.13-.36v4.24A1.93,1.93,0,0,0,194.47,73.71Z"/><path d="M231.71,50.74A2.11,2.11,0,0,0,233,52.69a1.89,1.89,0,0,0,.78.17V50.74Z"/><path d="M213.54,52.86a2.08,2.08,0,0,0,2-2.12h-4A2.07,2.07,0,0,0,213.54,52.86Z"/><path d="M194.25,52.62c-.31,0-.61,0-.91,0v.24A1.9,1.9,0,0,0,194.25,52.62Z"/><path d="M233.73,133.47a1.75,1.75,0,0,0-.4,0,2.4,2.4,0,0,0-.38.12,2.43,2.43,0,0,0-.35.2,1.75,1.75,0,0,0-.29.26,2.08,2.08,0,0,0-.55,1.07,2,2,0,0,0,0,.43h2Z"/><path d="M215.56,135.59a3,3,0,0,0,0-.43,2.15,2.15,0,0,0-.55-1.07,2.32,2.32,0,0,0-.3-.26,2.09,2.09,0,0,0-.73-.32,1.75,1.75,0,0,0-.4,0,1.84,1.84,0,0,0-.41,0,2,2,0,0,0-.72.32,1.48,1.48,0,0,0-.3.26,2.15,2.15,0,0,0-.55,1.07,2,2,0,0,0,0,.43Z"/><path d="M233,116.33a1.89,1.89,0,0,0,.78.17v-4.25a1.89,1.89,0,0,0-.78.17,2.16,2.16,0,0,0,0,3.91Z"/><path d="M213.54,116.5a2.13,2.13,0,1,0-2-2.13A2.08,2.08,0,0,0,213.54,116.5Z"/><path d="M203.44,127.1a2.12,2.12,0,1,0-2-2.12A2.08,2.08,0,0,0,203.44,127.1Z"/><path d="M223.64,127.1a2.12,2.12,0,1,0-2-2.12A2.08,2.08,0,0,0,223.64,127.1Z"/><path d="M203.44,105.89a2.12,2.12,0,1,0-2-2.12A2.08,2.08,0,0,0,203.44,105.89Z"/><path d="M223.64,105.89a2.12,2.12,0,1,0-2-2.12A2.08,2.08,0,0,0,223.64,105.89Z"/><path d="M195.36,135.59a2,2,0,0,0,0-.43,2.15,2.15,0,0,0-.55-1.07,1.48,1.48,0,0,0-.3-.26,2,2,0,0,0-.72-.32,1.84,1.84,0,0,0-.41,0v2.12Z"/><path d="M194.47,116.13a2.18,2.18,0,0,0,0-3.51,1.93,1.93,0,0,0-1.13-.37v4.25A1.93,1.93,0,0,0,194.47,116.13Z"/><path d="M233,95.12a2.05,2.05,0,0,0,.78.16V93.16h-2a2.27,2.27,0,0,0,.16.83A2.1,2.1,0,0,0,233,95.12Z"/><path d="M213.54,95.28A2,2,0,0,0,215.4,94a2.27,2.27,0,0,0,.16-.83h-4a2.27,2.27,0,0,0,.16.83A2,2,0,0,0,213.54,95.28Z"/><path d="M193.34,95.28a1.93,1.93,0,0,0,1.13-.36,2.1,2.1,0,0,0,.73-.93,2.27,2.27,0,0,0,.16-.83h-2Z"/><path d="M233.73,175.89a1.89,1.89,0,0,0-.78.17,2.11,2.11,0,0,0-.89.76,2.19,2.19,0,0,0-.35,1.19h2Z"/><path d="M215.21,176.82a2,2,0,0,0-3.35,0,2.27,2.27,0,0,0-.34,1.19h4A2.19,2.19,0,0,0,215.21,176.82Z"/><path d="M233,154.84a2.14,2.14,0,0,0-1.24,2,2.11,2.11,0,0,0,1.24,1.95,1.89,1.89,0,0,0,.78.17v-4.24A2.05,2.05,0,0,0,233,154.84Z"/><path d="M213.54,154.68a2.12,2.12,0,1,0,2,2.12A2.07,2.07,0,0,0,213.54,154.68Z"/><path d="M203.44,165.28a2.13,2.13,0,1,0,2,2.13A2.07,2.07,0,0,0,203.44,165.28Z"/><path d="M223.64,165.28a2.13,2.13,0,1,0,2,2.13A2.07,2.07,0,0,0,223.64,165.28Z"/><path d="M203.44,144.07a2.12,2.12,0,1,0,2,2.12A2.07,2.07,0,0,0,203.44,144.07Z"/><path d="M223.64,144.07a2.12,2.12,0,1,0,2,2.12A2.07,2.07,0,0,0,223.64,144.07Z"/><path d="M195.36,178a2.27,2.27,0,0,0-.34-1.19,2.13,2.13,0,0,0-.55-.57,1.93,1.93,0,0,0-1.13-.36V178Z"/><path d="M194.47,155a1.93,1.93,0,0,0-1.13-.36v4.24a1.93,1.93,0,0,0,1.13-.36,2.19,2.19,0,0,0,0-3.52Z"/><path d="M231.71,135.59a2.12,2.12,0,0,0,1.24,1.95,1.89,1.89,0,0,0,.78.17v-2.12Z"/><path d="M213.54,137.71a2.08,2.08,0,0,0,2-2.12h-4A2.07,2.07,0,0,0,213.54,137.71Z"/><path d="M193.34,135.59v2.12a1.93,1.93,0,0,0,1.13-.37,2.13,2.13,0,0,0,.89-1.75Z"/><path d="M233.73,218.31a1.75,1.75,0,0,0-.4.05,1.68,1.68,0,0,0-.38.12,1.75,1.75,0,0,0-.35.2,2.26,2.26,0,0,0-.29.25,2.11,2.11,0,0,0-.55,1.08,1.93,1.93,0,0,0,0,.42h2Z"/><path d="M215.52,220a2.19,2.19,0,0,0-.55-1.08,3.31,3.31,0,0,0-.3-.25,1.78,1.78,0,0,0-.73-.32,1.75,1.75,0,0,0-.4-.05,1.84,1.84,0,0,0-.41.05,1.74,1.74,0,0,0-.72.32,1.81,1.81,0,0,0-.3.25,2.19,2.19,0,0,0-.55,1.08,1.93,1.93,0,0,0,0,.42h4A2.85,2.85,0,0,0,215.52,220Z"/><path d="M231.71,199.22a2.13,2.13,0,0,0,1.24,2,1.89,1.89,0,0,0,.78.17V197.1a1.89,1.89,0,0,0-.78.17A2.11,2.11,0,0,0,231.71,199.22Z"/><path d="M213.54,201.35a2.13,2.13,0,1,0-2-2.13A2.08,2.08,0,0,0,213.54,201.35Z"/><path d="M203.44,207.71a2.12,2.12,0,1,0,2,2.12A2.07,2.07,0,0,0,203.44,207.71Z"/><path d="M223.64,207.71a2.12,2.12,0,1,0,2,2.12A2.07,2.07,0,0,0,223.64,207.71Z"/><path d="M203.44,186.49a2.13,2.13,0,1,0,2,2.13A2.07,2.07,0,0,0,203.44,186.49Z"/><path d="M223.64,186.49a2.13,2.13,0,1,0,2,2.13A2.07,2.07,0,0,0,223.64,186.49Z"/><path d="M195.36,220.43a1.93,1.93,0,0,0,0-.42,2.19,2.19,0,0,0-.55-1.08,1.81,1.81,0,0,0-.3-.25,1.74,1.74,0,0,0-.72-.32,1.84,1.84,0,0,0-.41-.05v2.12Z"/><path d="M194.47,197.46a2,2,0,0,0-1.13-.36v4.25a1.93,1.93,0,0,0,1.13-.37,2.19,2.19,0,0,0,0-3.52Z"/><path d="M231.71,178a2.31,2.31,0,0,0,.16.83A2.08,2.08,0,0,0,233,180a1.89,1.89,0,0,0,.78.17V178Z"/><path d="M211.52,178a2.31,2.31,0,0,0,.16.83,2,2,0,0,0,1.86,1.29,2,2,0,0,0,1.86-1.29,2.31,2.31,0,0,0,.16-.83Z"/><path d="M193.34,178v2.12a1.93,1.93,0,0,0,1.13-.36,2.1,2.1,0,0,0,.73-.93,2.31,2.31,0,0,0,.16-.83Z"/><path d="M233.73,239.53a1.88,1.88,0,0,0-.78.16,2.16,2.16,0,0,0,0,3.91,1.89,1.89,0,0,0,.78.17Z"/><path d="M203.44,228.92a2.05,2.05,0,0,0-2,2c1.31.24,2.61.52,3.9.85a2.27,2.27,0,0,0,.12-.69A2.08,2.08,0,0,0,203.44,228.92Z"/><path d="M221.62,231a2,2,0,1,0,2-2.12A2.07,2.07,0,0,0,221.62,231Z"/><path d="M231.71,220.43a2.13,2.13,0,0,0,1.24,2,2.05,2.05,0,0,0,.78.16v-2.12Z"/><path d="M213.54,222.55a2.08,2.08,0,0,0,2-2.12h-4A2.07,2.07,0,0,0,213.54,222.55Z"/><path d="M193.34,220.43v2.12a1.93,1.93,0,0,0,1.13-.36,2.13,2.13,0,0,0,.89-1.76Z"/><path d="M171.13,50.74h4a2,2,0,0,0,0-.43v0c-1.17-.29-2.33-.61-3.48-.95a2.1,2.1,0,0,0-.47,1A2,2,0,0,0,171.13,50.74Z"/><path d="M155,50.74a3,3,0,0,0,0-.43,2.2,2.2,0,0,0-.55-1.07,1.87,1.87,0,0,0-.3-.26,2.12,2.12,0,0,0-.72-.32,1.9,1.9,0,0,0-.41,0v2.12Z"/><path d="M193.34,91a1.85,1.85,0,0,0-.78.17,2,2,0,0,0-.89.77,2.15,2.15,0,0,0-.35,1.18h2Z"/><path d="M173.14,91a2,2,0,0,0-1.67.94,2.15,2.15,0,0,0-.34,1.18h4a2.15,2.15,0,0,0-.35-1.18A2,2,0,0,0,173.14,91Z"/><path d="M191.32,72a2.14,2.14,0,0,0,1.24,2,2,2,0,0,0,.78.16V69.83a1.85,1.85,0,0,0-.78.17A2.11,2.11,0,0,0,191.32,72Z"/><path d="M173.14,74.07a2.12,2.12,0,1,0-2-2.12A2.08,2.08,0,0,0,173.14,74.07Z"/><path d="M163.05,84.68a2.13,2.13,0,1,0-2-2.12A2.08,2.08,0,0,0,163.05,84.68Z"/><path d="M183.24,84.68a2.13,2.13,0,1,0-2-2.12A2.07,2.07,0,0,0,183.24,84.68Z"/><path d="M163.05,63.47a2.13,2.13,0,1,0-2-2.12A2.08,2.08,0,0,0,163.05,63.47Z"/><path d="M181.22,61.35a2,2,0,1,0,2-2.13A2.08,2.08,0,0,0,181.22,61.35Z"/><path d="M155,93.16a2.15,2.15,0,0,0-.35-1.18A2,2,0,0,0,153,91v2.12Z"/><path d="M155,72a2.08,2.08,0,0,0-2-2.12v4.24A2.08,2.08,0,0,0,155,72Z"/><path d="M193.34,52.62h-.91l.13.07a1.85,1.85,0,0,0,.78.17Z"/><path d="M173.14,52.86a2.08,2.08,0,0,0,2-2.12h-4A2.07,2.07,0,0,0,173.14,52.86Z"/><path d="M153,52.86a2.08,2.08,0,0,0,2-2.12h-2Z"/><path d="M193.34,133.47a1.9,1.9,0,0,0-.41,0,2.29,2.29,0,0,0-.37.12,2,2,0,0,0-.35.2,1.48,1.48,0,0,0-.3.26,2.15,2.15,0,0,0-.55,1.07,3,3,0,0,0,0,.43h2Z"/><path d="M175.12,135.16a2.08,2.08,0,0,0-.55-1.07,1.48,1.48,0,0,0-.3-.26,2,2,0,0,0-.72-.32,1.84,1.84,0,0,0-.41,0,1.81,1.81,0,0,0-.4,0,2,2,0,0,0-.72.32,1.48,1.48,0,0,0-.3.26,2.08,2.08,0,0,0-.55,1.07,2,2,0,0,0,0,.43h4A2,2,0,0,0,175.12,135.16Z"/><path d="M192.56,116.33a1.85,1.85,0,0,0,.78.17v-4.25a1.85,1.85,0,0,0-.78.17,2.16,2.16,0,0,0,0,3.91Z"/><path d="M173.14,116.5a2.13,2.13,0,1,0-2-2.13A2.08,2.08,0,0,0,173.14,116.5Z"/><path d="M163.05,127.1a2.12,2.12,0,1,0-2-2.12A2.08,2.08,0,0,0,163.05,127.1Z"/><path d="M183.24,127.1a2.12,2.12,0,1,0-2-2.12A2.07,2.07,0,0,0,183.24,127.1Z"/><path d="M163.05,105.89a2.12,2.12,0,1,0-2-2.12A2.08,2.08,0,0,0,163.05,105.89Z"/><path d="M183.24,105.89a2.12,2.12,0,1,0-2-2.12A2.07,2.07,0,0,0,183.24,105.89Z"/><path d="M155,135.59a3,3,0,0,0,0-.43,2.15,2.15,0,0,0-.55-1.07,1.48,1.48,0,0,0-.3-.26,2.12,2.12,0,0,0-.72-.32,1.9,1.9,0,0,0-.41,0v2.12Z"/><path d="M155,114.37a2.08,2.08,0,0,0-2-2.12v4.25A2.08,2.08,0,0,0,155,114.37Z"/><path d="M192.56,95.12a2,2,0,0,0,.78.16V93.16h-2a2.27,2.27,0,0,0,.16.83A2.06,2.06,0,0,0,192.56,95.12Z"/><path d="M171.28,94A2,2,0,0,0,175,94a2.27,2.27,0,0,0,.16-.83h-4A2.27,2.27,0,0,0,171.28,94Z"/><path d="M153,95.28A2,2,0,0,0,154.81,94a2.27,2.27,0,0,0,.16-.83h-2Z"/><path d="M193.34,175.89a1.85,1.85,0,0,0-.78.17,2,2,0,0,0-.89.76,2.19,2.19,0,0,0-.35,1.19h2Z"/><path d="M174.82,176.82a2,2,0,0,0-3.35,0,2.18,2.18,0,0,0-.34,1.19h4A2.19,2.19,0,0,0,174.82,176.82Z"/><path d="M192.56,154.84a2.14,2.14,0,0,0-1.24,2,2.11,2.11,0,0,0,1.24,1.95,1.85,1.85,0,0,0,.78.17v-4.24A2,2,0,0,0,192.56,154.84Z"/><path d="M173.14,154.68a2.12,2.12,0,1,0,2,2.12A2.07,2.07,0,0,0,173.14,154.68Z"/><path d="M163.05,165.28a2.13,2.13,0,1,0,2,2.13A2.07,2.07,0,0,0,163.05,165.28Z"/><path d="M183.24,165.28a2.13,2.13,0,1,0,2,2.13A2.08,2.08,0,0,0,183.24,165.28Z"/><path d="M163.05,144.07a2.12,2.12,0,1,0,2,2.12A2.07,2.07,0,0,0,163.05,144.07Z"/><path d="M183.24,144.07a2.12,2.12,0,1,0,2,2.12A2.08,2.08,0,0,0,183.24,144.07Z"/><path d="M155,178a2.19,2.19,0,0,0-.35-1.19,2,2,0,0,0-1.67-.93V178Z"/><path d="M153,154.68v4.24a2.12,2.12,0,0,0,0-4.24Z"/><path d="M191.32,135.59a2.12,2.12,0,0,0,1.24,1.95,1.85,1.85,0,0,0,.78.17v-2.12Z"/><path d="M171.13,135.59a2,2,0,1,0,4,0Z"/><path d="M153,137.71a2.08,2.08,0,0,0,2-2.12h-2Z"/><path d="M193.34,218.31a1.92,1.92,0,0,0-.41.05,1.6,1.6,0,0,0-.37.12,1.51,1.51,0,0,0-.35.2,1.81,1.81,0,0,0-.3.25,2.19,2.19,0,0,0-.55,1.08,2.85,2.85,0,0,0,0,.42h2Z"/><path d="M175.12,220a2.11,2.11,0,0,0-.55-1.08,1.81,1.81,0,0,0-.3-.25,1.74,1.74,0,0,0-.72-.32,1.67,1.67,0,0,0-.81,0,1.68,1.68,0,0,0-.72.32,1.81,1.81,0,0,0-.3.25,2.11,2.11,0,0,0-.55,1.08,1.93,1.93,0,0,0,0,.42h4A1.93,1.93,0,0,0,175.12,220Z"/><path d="M192.56,197.27a2.16,2.16,0,0,0,0,3.91,1.85,1.85,0,0,0,.78.17V197.1A1.85,1.85,0,0,0,192.56,197.27Z"/><path d="M173.14,201.35a2.13,2.13,0,1,0-2-2.13A2.09,2.09,0,0,0,173.14,201.35Z"/><path d="M163.05,207.71a2.12,2.12,0,1,0,2,2.12A2.07,2.07,0,0,0,163.05,207.71Z"/><path d="M183.24,207.71a2.12,2.12,0,1,0,2,2.12A2.08,2.08,0,0,0,183.24,207.71Z"/><path d="M163.05,186.49a2.13,2.13,0,1,0,2,2.13A2.07,2.07,0,0,0,163.05,186.49Z"/><path d="M183.24,186.49a2.13,2.13,0,1,0,2,2.13A2.08,2.08,0,0,0,183.24,186.49Z"/><path d="M155,220.43a2.85,2.85,0,0,0,0-.42,2.19,2.19,0,0,0-.55-1.08,2.14,2.14,0,0,0-1-.57,1.92,1.92,0,0,0-.41-.05v2.12Z"/><path d="M155,199.22a2.08,2.08,0,0,0-2-2.12v4.25A2.08,2.08,0,0,0,155,199.22Z"/><path d="M191.32,178a2.31,2.31,0,0,0,.16.83,2,2,0,0,0,1.08,1.12,1.85,1.85,0,0,0,.78.17V178Z"/><path d="M171.13,178a2.31,2.31,0,0,0,.15.83,2,2,0,0,0,3.73,0,2.31,2.31,0,0,0,.16-.83Z"/><path d="M153,180.13a2,2,0,0,0,1.86-1.29A2.31,2.31,0,0,0,155,178h-2Z"/><path d="M161,231a2,2,0,1,0,2-2.12A2.07,2.07,0,0,0,161,231Z"/><path d="M183.24,228.92a2.08,2.08,0,0,0-2,2.12c0,.06,0,.12,0,.18,1.32-.3,2.64-.55,3.94-.74A2,2,0,0,0,183.24,228.92Z"/><path d="M153,239.53v4.24a2.12,2.12,0,0,0,0-4.24Z"/><path d="M191.32,220.43a2.13,2.13,0,0,0,1.24,2,2,2,0,0,0,.78.16v-2.12Z"/><path d="M173.14,222.55a2.08,2.08,0,0,0,2-2.12h-4A2.07,2.07,0,0,0,173.14,222.55Z"/><path d="M153,222.55a2.08,2.08,0,0,0,2-2.12h-2Z"/><path d="M153,50.74V48.62a1.84,1.84,0,0,0-.41,0,2,2,0,0,0-.72.32,1.87,1.87,0,0,0-.3.26,2.2,2.2,0,0,0-.55,1.07,2,2,0,0,0,0,.43Z"/><path d="M134.77,50.74a2,2,0,0,0,0-.43,2.2,2.2,0,0,0-.55-1.07,1.87,1.87,0,0,0-.3-.26,2,2,0,0,0-.72-.32,1.84,1.84,0,0,0-.41,0,1.75,1.75,0,0,0-.4,0,2.09,2.09,0,0,0-.73.32,3.48,3.48,0,0,0-.3.26,2.2,2.2,0,0,0-.55,1.07,3,3,0,0,0,0,.43Z"/><path d="M130.73,29.53a2,2,0,1,0,4,.07c-.91-.7-1.79-1.4-2.63-2.08A2.09,2.09,0,0,0,130.73,29.53Z"/><path d="M124.67,40.13a2,2,0,1,0-2,2.12A2.07,2.07,0,0,0,124.67,40.13Z"/><path d="M144.87,40.13a2,2,0,1,0-2,2.12A2.07,2.07,0,0,0,144.87,40.13Z"/><path d="M122.65,21a2,2,0,0,0,1.4-.59c-1.16-1.09-2.14-2.05-3-2.86a2.11,2.11,0,0,0-.47,1.33A2.08,2.08,0,0,0,122.65,21Z"/><path d="M112.56,50.74h2a2,2,0,0,0,0-.43,2.12,2.12,0,0,0-.55-1.07,2.35,2.35,0,0,0-.29-.26,2.09,2.09,0,0,0-.73-.32,1.75,1.75,0,0,0-.4,0Z"/><path d="M114.58,29.53a2.13,2.13,0,0,0-.21-.91c-.34,1-.7,1.93-1.05,2.87a1.9,1.9,0,0,0,.37-.2A2.17,2.17,0,0,0,114.58,29.53Z"/><path d="M153,93.16V91a2,2,0,0,0-1.68.94,2.23,2.23,0,0,0-.34,1.18Z"/><path d="M134.77,93.16a2.15,2.15,0,0,0-.34-1.18,2,2,0,0,0-1.68-.94,2,2,0,0,0-1.67.94,2.15,2.15,0,0,0-.35,1.18Z"/><path d="M153,74.07V69.83a2.12,2.12,0,0,0,0,4.24Z"/><path d="M132.75,74.07a2.12,2.12,0,1,0-2-2.12A2.07,2.07,0,0,0,132.75,74.07Z"/><path d="M122.65,84.68a2.13,2.13,0,1,0-2-2.12A2.07,2.07,0,0,0,122.65,84.68Z"/><path d="M142.85,84.68a2.13,2.13,0,1,0-2-2.12A2.07,2.07,0,0,0,142.85,84.68Z"/><path d="M122.65,63.47a2.13,2.13,0,1,0-2-2.12A2.07,2.07,0,0,0,122.65,63.47Z"/><path d="M142.85,63.47a2.13,2.13,0,1,0-2-2.12A2.07,2.07,0,0,0,142.85,63.47Z"/><path d="M114.58,93.16a2.22,2.22,0,0,0-.89-1.76,2,2,0,0,0-1.13-.36v2.12Z"/><path d="M113.69,73.71a2.19,2.19,0,0,0,0-3.52,2,2,0,0,0-1.13-.36v4.24A2,2,0,0,0,113.69,73.71Z"/><path d="M150.93,50.74a2.07,2.07,0,0,0,2,2.12V50.74Z"/><path d="M132.75,52.86a2.07,2.07,0,0,0,2-2.12h-4A2.08,2.08,0,0,0,132.75,52.86Z"/><path d="M112.56,52.86a2,2,0,0,0,1.13-.36,2.17,2.17,0,0,0,.89-1.76h-2Z"/><path d="M153,133.47a1.84,1.84,0,0,0-.41,0,2,2,0,0,0-.72.32,1.48,1.48,0,0,0-.3.26,2.15,2.15,0,0,0-.55,1.07,2,2,0,0,0,0,.43h2Z"/><path d="M134.73,135.16a2.15,2.15,0,0,0-.55-1.07,1.48,1.48,0,0,0-.3-.26,2,2,0,0,0-.72-.32,1.84,1.84,0,0,0-.41,0,1.75,1.75,0,0,0-.4,0,2.09,2.09,0,0,0-.73.32,2.32,2.32,0,0,0-.3.26,2.15,2.15,0,0,0-.55,1.07,3,3,0,0,0,0,.43h4A2,2,0,0,0,134.73,135.16Z"/><path d="M153,116.5v-4.25a2.13,2.13,0,0,0,0,4.25Z"/><path d="M132.75,116.5a2.13,2.13,0,1,0-2-2.13A2.07,2.07,0,0,0,132.75,116.5Z"/><path d="M122.65,122.86a2.12,2.12,0,1,0,2,2.12A2.08,2.08,0,0,0,122.65,122.86Z"/><path d="M142.85,122.86a2.12,2.12,0,1,0,2,2.12A2.07,2.07,0,0,0,142.85,122.86Z"/><path d="M122.65,101.65a2.12,2.12,0,1,0,2,2.12A2.08,2.08,0,0,0,122.65,101.65Z"/><path d="M142.85,101.65a2.12,2.12,0,1,0,2,2.12A2.07,2.07,0,0,0,142.85,101.65Z"/><path d="M114.58,135.59a2,2,0,0,0,0-.43,2.08,2.08,0,0,0-.55-1.07,1.75,1.75,0,0,0-.29-.26,2.09,2.09,0,0,0-.73-.32,1.75,1.75,0,0,0-.4,0v2.12Z"/><path d="M113.69,112.62a2,2,0,0,0-1.13-.37v4.25a2,2,0,0,0,1.13-.37,2.18,2.18,0,0,0,0-3.51Z"/><path d="M150.93,93.16a2.27,2.27,0,0,0,.16.83A2,2,0,0,0,153,95.28V93.16Z"/><path d="M130.89,94a2,2,0,0,0,1.86,1.29A2,2,0,0,0,134.61,94a2.08,2.08,0,0,0,.16-.83h-4A2.27,2.27,0,0,0,130.89,94Z"/><path d="M112.56,93.16v2.12a2,2,0,0,0,1.13-.36,2.17,2.17,0,0,0,.73-.93,2.27,2.27,0,0,0,.16-.83Z"/><path d="M153,175.89a2,2,0,0,0-1.68.93,2.27,2.27,0,0,0-.34,1.19h2Z"/><path d="M134.43,176.82a2,2,0,0,0-1.68-.93,2,2,0,0,0-1.67.93,2.19,2.19,0,0,0-.35,1.19h4A2.18,2.18,0,0,0,134.43,176.82Z"/><path d="M150.93,156.8a2.07,2.07,0,0,0,2,2.12v-4.24A2.07,2.07,0,0,0,150.93,156.8Z"/><path d="M132.75,154.68a2.12,2.12,0,1,0,2,2.12A2.08,2.08,0,0,0,132.75,154.68Z"/><path d="M122.65,165.28a2.13,2.13,0,1,0,2,2.13A2.08,2.08,0,0,0,122.65,165.28Z"/><path d="M142.85,165.28a2.13,2.13,0,1,0,2,2.13A2.07,2.07,0,0,0,142.85,165.28Z"/><path d="M122.65,144.07a2.12,2.12,0,1,0,2,2.12A2.08,2.08,0,0,0,122.65,144.07Z"/><path d="M142.85,144.07a2.12,2.12,0,1,0,2,2.12A2.07,2.07,0,0,0,142.85,144.07Z"/><path d="M114.58,178a2.19,2.19,0,0,0-.35-1.19,2.1,2.1,0,0,0-.54-.57,2,2,0,0,0-1.13-.36V178Z"/><path d="M113.69,155a2,2,0,0,0-1.13-.36v4.24a2,2,0,0,0,1.13-.36,2.19,2.19,0,0,0,0-3.52Z"/><path d="M153,137.71v-2.12h-2A2.07,2.07,0,0,0,153,137.71Z"/><path d="M130.73,135.59a2,2,0,1,0,4,0Z"/><path d="M112.56,135.59v2.12a2,2,0,0,0,1.13-.37,2.15,2.15,0,0,0,.89-1.75Z"/><path d="M153,218.31a1.84,1.84,0,0,0-.41.05,1.74,1.74,0,0,0-.72.32,1.81,1.81,0,0,0-.3.25A2.19,2.19,0,0,0,151,220a1.93,1.93,0,0,0,0,.42h2Z"/><path d="M134.18,218.93a1.81,1.81,0,0,0-.3-.25,1.74,1.74,0,0,0-.72-.32,1.84,1.84,0,0,0-.41-.05,1.75,1.75,0,0,0-.4.05,1.78,1.78,0,0,0-.73.32,3.31,3.31,0,0,0-.3.25,2.19,2.19,0,0,0-.55,1.08,2.85,2.85,0,0,0,0,.42h4a1.93,1.93,0,0,0,0-.42A2.19,2.19,0,0,0,134.18,218.93Z"/><path d="M153,201.35V197.1a2.13,2.13,0,0,0,0,4.25Z"/><path d="M132.75,201.35a2.13,2.13,0,1,0-2-2.13A2.08,2.08,0,0,0,132.75,201.35Z"/><path d="M122.65,207.71a2.12,2.12,0,1,0,2,2.12A2.08,2.08,0,0,0,122.65,207.71Z"/><path d="M142.85,207.71a2.12,2.12,0,1,0,2,2.12A2.07,2.07,0,0,0,142.85,207.71Z"/><path d="M122.65,186.49a2.13,2.13,0,1,0,2,2.13A2.08,2.08,0,0,0,122.65,186.49Z"/><path d="M142.85,186.49a2.13,2.13,0,1,0,2,2.13A2.07,2.07,0,0,0,142.85,186.49Z"/><path d="M114,218.93a2.26,2.26,0,0,0-.29-.25,1.78,1.78,0,0,0-.73-.32,1.75,1.75,0,0,0-.4-.05V219l1,1.48h1a1.93,1.93,0,0,0,0-.42A2.11,2.11,0,0,0,114,218.93Z"/><path d="M113.69,197.46a2,2,0,0,0-1.13-.36v4.25a2,2,0,0,0,1.13-.37,2.19,2.19,0,0,0,0-3.52Z"/><path d="M153,180.13V178h-2a2.31,2.31,0,0,0,.16.83A2,2,0,0,0,153,180.13Z"/><path d="M130.73,178a2.31,2.31,0,0,0,.16.83,2,2,0,0,0,1.86,1.29,2,2,0,0,0,1.86-1.29,2.12,2.12,0,0,0,.16-.83Z"/><path d="M112.56,178v2.12a2,2,0,0,0,1.13-.36,2.17,2.17,0,0,0,.73-.93,2.31,2.31,0,0,0,.16-.83Z"/><path d="M132.75,260.74a2,2,0,0,0-1.67.93,2.19,2.19,0,0,0-.35,1.19h4a2.18,2.18,0,0,0-.34-1.19A2,2,0,0,0,132.75,260.74Z"/><path d="M150.93,241.65a2.07,2.07,0,0,0,2,2.12v-4.24A2.06,2.06,0,0,0,150.93,241.65Z"/><path d="M132.75,239.53a2.12,2.12,0,1,0,2,2.12A2.07,2.07,0,0,0,132.75,239.53Z"/><path d="M142.85,254.37a2.12,2.12,0,1,0-2-2.12A2.07,2.07,0,0,0,142.85,254.37Z"/><path d="M122.65,228.92a2.12,2.12,0,1,0,2,2.12A2.08,2.08,0,0,0,122.65,228.92Z"/><path d="M140.83,231a2,2,0,1,0,2-2.12A2.07,2.07,0,0,0,140.83,231Z"/><path d="M153,222.55v-2.12h-2A2.07,2.07,0,0,0,153,222.55Z"/><path d="M132.75,222.55a2.07,2.07,0,0,0,2-2.12h-4A2.08,2.08,0,0,0,132.75,222.55Z"/><path d="M114.31,221.47a2.26,2.26,0,0,0,.27-1h-1C113.84,220.78,114.08,221.12,114.31,221.47Z"/><path d="M130.89,263.68a2,2,0,0,0,1.86,1.3,2.11,2.11,0,0,0,2-2.12h-4A2.22,2.22,0,0,0,130.89,263.68Z"/><path d="M112.56,48.62a1.84,1.84,0,0,0-.41,0,1.71,1.71,0,0,0-.38.13,1.41,1.41,0,0,0-.34.19,1.87,1.87,0,0,0-.3.26,2.12,2.12,0,0,0-.55,1.07,2,2,0,0,0,0,.43h2Z"/><path d="M112.56,91a1.9,1.9,0,0,0-.79.17,2.07,2.07,0,0,0-.89.77,2.15,2.15,0,0,0-.34,1.18h2Z"/><path d="M94.38,93.16A2.15,2.15,0,0,0,94,92a2,2,0,0,0-3.34,0,2.15,2.15,0,0,0-.35,1.18Z"/><path d="M110.54,72a2.13,2.13,0,0,0,1.23,2,2.06,2.06,0,0,0,.79.16V69.83a1.9,1.9,0,0,0-.79.17A2.1,2.1,0,0,0,110.54,72Z"/><path d="M92.36,69.83a2.12,2.12,0,1,0,2,2.12A2.07,2.07,0,0,0,92.36,69.83Z"/><path d="M84.28,82.56a2,2,0,1,0-2,2.12A2.07,2.07,0,0,0,84.28,82.56Z"/><path d="M104.48,82.56a2,2,0,1,0-2,2.12A2.08,2.08,0,0,0,104.48,82.56Z"/><path d="M100.44,61.35a2,2,0,1,0,2-2.13A2.07,2.07,0,0,0,100.44,61.35Z"/><path d="M74.18,93.16A2.15,2.15,0,0,0,73.84,92a2.17,2.17,0,0,0-.55-.58A2,2,0,0,0,72.16,91v2.12Z"/><path d="M73.29,73.71A2.15,2.15,0,0,0,74.18,72a2.26,2.26,0,0,0-.13-.74c-.63.1-1.26.17-1.89.24v2.62A1.93,1.93,0,0,0,73.29,73.71Z"/><path d="M110.54,50.74a2.1,2.1,0,0,0,1.23,1.95,1.9,1.9,0,0,0,.79.17V50.74Z"/><path d="M112.56,133.47a1.84,1.84,0,0,0-.41,0,2.4,2.4,0,0,0-.38.12,1.9,1.9,0,0,0-.34.2,1.48,1.48,0,0,0-.3.26,2.08,2.08,0,0,0-.55,1.07,2,2,0,0,0,0,.43h2Z"/><path d="M94.34,135.16a2.15,2.15,0,0,0-.55-1.07,1.48,1.48,0,0,0-.3-.26,2.12,2.12,0,0,0-.72-.32,2.12,2.12,0,0,0-.82,0,2.12,2.12,0,0,0-.72.32,1.48,1.48,0,0,0-.3.26,2.15,2.15,0,0,0-.55,1.07,2,2,0,0,0,0,.43h4A2,2,0,0,0,94.34,135.16Z"/><path d="M111.77,112.42a2.17,2.17,0,0,0,0,3.91,1.9,1.9,0,0,0,.79.17v-4.25A1.9,1.9,0,0,0,111.77,112.42Z"/><path d="M92.36,116.5a2.13,2.13,0,1,0-2-2.13A2.08,2.08,0,0,0,92.36,116.5Z"/><path d="M82.26,127.1a2.12,2.12,0,1,0-2-2.12A2.07,2.07,0,0,0,82.26,127.1Z"/><path d="M102.46,127.1a2.12,2.12,0,1,0-2-2.12A2.08,2.08,0,0,0,102.46,127.1Z"/><path d="M82.26,105.89a2.12,2.12,0,1,0-2-2.12A2.07,2.07,0,0,0,82.26,105.89Z"/><path d="M102.46,105.89a2.12,2.12,0,1,0-2-2.12A2.08,2.08,0,0,0,102.46,105.89Z"/><path d="M74.18,135.59a2,2,0,0,0,0-.43,2.08,2.08,0,0,0-.55-1.07,1.48,1.48,0,0,0-.3-.26,2,2,0,0,0-.72-.32,1.84,1.84,0,0,0-.41,0v2.12Z"/><path d="M73.29,116.13a2.18,2.18,0,0,0,0-3.51,1.93,1.93,0,0,0-1.13-.37v4.25A1.93,1.93,0,0,0,73.29,116.13Z"/><path d="M110.54,93.16a2,2,0,0,0,2,2.12V93.16Z"/><path d="M90.5,94a2,2,0,0,0,3.72,0,2.27,2.27,0,0,0,.16-.83h-4A2.27,2.27,0,0,0,90.5,94Z"/><path d="M72.16,95.28a1.93,1.93,0,0,0,1.13-.36A2,2,0,0,0,74,94a2.08,2.08,0,0,0,.16-.83h-2Z"/><path d="M112.56,175.89a1.9,1.9,0,0,0-.79.17,2.11,2.11,0,0,0-.89.76,2.18,2.18,0,0,0-.34,1.19h2Z"/><path d="M94,176.82a2,2,0,0,0-3.34,0,2.19,2.19,0,0,0-.35,1.19h4A2.19,2.19,0,0,0,94,176.82Z"/><path d="M111.77,154.84a2.13,2.13,0,0,0-1.23,2,2.1,2.1,0,0,0,1.23,1.95,1.9,1.9,0,0,0,.79.17v-4.24A2.06,2.06,0,0,0,111.77,154.84Z"/><path d="M92.36,154.68a2.12,2.12,0,1,0,2,2.12A2.07,2.07,0,0,0,92.36,154.68Z"/><path d="M82.26,165.28a2.13,2.13,0,1,0,2,2.13A2.07,2.07,0,0,0,82.26,165.28Z"/><path d="M102.46,165.28a2.13,2.13,0,1,0,2,2.13A2.07,2.07,0,0,0,102.46,165.28Z"/><path d="M82.26,144.07a2.12,2.12,0,1,0,2,2.12A2.07,2.07,0,0,0,82.26,144.07Z"/><path d="M102.46,144.07a2.12,2.12,0,1,0,2,2.12A2.07,2.07,0,0,0,102.46,144.07Z"/><path d="M74.18,178a2.18,2.18,0,0,0-.34-1.19,2.13,2.13,0,0,0-.55-.57,1.93,1.93,0,0,0-1.13-.36V178Z"/><path d="M73.29,155a1.93,1.93,0,0,0-1.13-.36v4.24a1.93,1.93,0,0,0,1.13-.36,2.19,2.19,0,0,0,0-3.52Z"/><path d="M110.54,135.59a2.11,2.11,0,0,0,1.23,1.95,1.9,1.9,0,0,0,.79.17v-2.12Z"/><path d="M90.34,135.59a2,2,0,1,0,4,0Z"/><path d="M72.16,135.59v2.12a1.93,1.93,0,0,0,1.13-.37,2.13,2.13,0,0,0,.89-1.75Z"/><path d="M112.15,218.36h0l.43.59v-.64A1.84,1.84,0,0,0,112.15,218.36Z"/><path d="M111.77,197.27a2.17,2.17,0,0,0,0,3.91,1.9,1.9,0,0,0,.79.17V197.1A1.9,1.9,0,0,0,111.77,197.27Z"/><path d="M92.36,197.1a2,2,0,0,0-1.86,1.31c1.16.71,2.29,1.43,3.39,2.19a2.21,2.21,0,0,0,.49-1.38A2.08,2.08,0,0,0,92.36,197.1Z"/><path d="M102.75,207.74c.57.54,1.13,1.08,1.68,1.63A2.05,2.05,0,0,0,102.75,207.74Z"/><path d="M80.24,188.62a2,2,0,1,0,2-2.13A2.07,2.07,0,0,0,80.24,188.62Z"/><path d="M100.44,188.62a2,2,0,1,0,2-2.13A2.07,2.07,0,0,0,100.44,188.62Z"/><path d="M110.54,178a2.12,2.12,0,0,0,.16.83,2.06,2.06,0,0,0,1.07,1.12,1.9,1.9,0,0,0,.79.17V178Z"/><path d="M90.34,178a2.31,2.31,0,0,0,.16.83,2,2,0,0,0,3.72,0,2.31,2.31,0,0,0,.16-.83Z"/><path d="M72.16,178v2.12a1.93,1.93,0,0,0,1.13-.36,2,2,0,0,0,.73-.93,2.12,2.12,0,0,0,.16-.83Z"/><path d="M72.16,93.16V91a2,2,0,0,0-1.67.94,2.15,2.15,0,0,0-.35,1.18Z"/><path d="M54,93.16A2.15,2.15,0,0,0,53.64,92a2,2,0,0,0-3.35,0A2.23,2.23,0,0,0,50,93.16Z"/><path d="M72.16,74.07V71.45c-.66.07-1.32.12-2,.16a2,2,0,0,0,0,.34A2.08,2.08,0,0,0,72.16,74.07Z"/><path d="M52,69.83A2.12,2.12,0,1,0,54,72,2.07,2.07,0,0,0,52,69.83Z"/><path d="M43.89,82.56a2,2,0,1,0-2,2.12A2.08,2.08,0,0,0,43.89,82.56Z"/><path d="M64.09,82.56a2,2,0,1,0-2,2.12A2.08,2.08,0,0,0,64.09,82.56Z"/><path d="M33.79,93.16A2.23,2.23,0,0,0,33.45,92a2,2,0,0,0-1.27-.89,1.84,1.84,0,0,0-.41,0v2.12Z"/><path d="M32.18,74a2.15,2.15,0,0,0,0-4.16,2.71,2.71,0,0,0-.41,0v4.24A1.84,1.84,0,0,0,32.18,74Z"/><path d="M72.16,133.47a1.75,1.75,0,0,0-.4,0,2.09,2.09,0,0,0-.73.32,1.75,1.75,0,0,0-.29.26,2.17,2.17,0,0,0-.56,1.07,3,3,0,0,0,0,.43h2Z"/><path d="M54,135.16a2.15,2.15,0,0,0-.55-1.07,2.32,2.32,0,0,0-.3-.26,2.09,2.09,0,0,0-.73-.32,1.75,1.75,0,0,0-.4,0,1.84,1.84,0,0,0-.41,0,2,2,0,0,0-.72.32,1.48,1.48,0,0,0-.3.26,2.15,2.15,0,0,0-.55,1.07,2,2,0,0,0,0,.43h4A3,3,0,0,0,54,135.16Z"/><path d="M72.16,116.5v-4.25a2.13,2.13,0,0,0,0,4.25Z"/><path d="M52,116.5a2.13,2.13,0,1,0-2-2.13A2.08,2.08,0,0,0,52,116.5Z"/><path d="M41.87,127.1a2.12,2.12,0,1,0-2-2.12A2.08,2.08,0,0,0,41.87,127.1Z"/><path d="M62.07,127.1a2.12,2.12,0,1,0-2-2.12A2.08,2.08,0,0,0,62.07,127.1Z"/><path d="M41.87,105.89a2.12,2.12,0,1,0-2-2.12A2.08,2.08,0,0,0,41.87,105.89Z"/><path d="M62.07,105.89a2.12,2.12,0,1,0-2-2.12A2.08,2.08,0,0,0,62.07,105.89Z"/><path d="M70.14,93.16a2.27,2.27,0,0,0,.16.83,2,2,0,0,0,1.86,1.29V93.16Z"/><path d="M50.11,94A2,2,0,0,0,52,95.28,2,2,0,0,0,53.83,94a2.27,2.27,0,0,0,.16-.83H50A2.08,2.08,0,0,0,50.11,94Z"/><path d="M31.77,95.28a1.84,1.84,0,0,0,.41,0A2,2,0,0,0,33.63,94a2.27,2.27,0,0,0,.16-.83h-2Z"/><path d="M72.16,175.89a2,2,0,0,0-1.67.93,2.19,2.19,0,0,0-.35,1.19h2Z"/><path d="M53.64,176.82a2,2,0,0,0-3.35,0A2.27,2.27,0,0,0,50,178h4A2.19,2.19,0,0,0,53.64,176.82Z"/><path d="M70.14,156.8a2.08,2.08,0,0,0,2,2.12v-4.24A2.08,2.08,0,0,0,70.14,156.8Z"/><path d="M52,154.68a2.12,2.12,0,1,0,2,2.12A2.07,2.07,0,0,0,52,154.68Z"/><path d="M41.87,165.28a2.13,2.13,0,1,0,2,2.13A2.07,2.07,0,0,0,41.87,165.28Z"/><path d="M62.07,165.28a2.13,2.13,0,1,0,2,2.13A2.07,2.07,0,0,0,62.07,165.28Z"/><path d="M41.87,144.07a2.12,2.12,0,1,0,2,2.12A2.07,2.07,0,0,0,41.87,144.07Z"/><path d="M62.07,144.07a2.12,2.12,0,1,0,2,2.12A2.07,2.07,0,0,0,62.07,144.07Z"/><path d="M33.79,178a2.27,2.27,0,0,0-.34-1.19,2.07,2.07,0,0,0-1.27-.89,1.84,1.84,0,0,0-.41,0V178Z"/><path d="M32.18,158.88a2.15,2.15,0,0,0,0-4.16,1.84,1.84,0,0,0-.41,0v4.24A1.84,1.84,0,0,0,32.18,158.88Z"/><path d="M70.14,135.59a2.08,2.08,0,0,0,2,2.12v-2.12Z"/><path d="M50,135.59a2,2,0,1,0,4,0Z"/><path d="M62.07,186.49a2,2,0,0,0-1.79,1.15c1.28.2,2.54.43,3.78.68A2.06,2.06,0,0,0,62.07,186.49Z"/><path d="M70.14,178a2.31,2.31,0,0,0,.16.83,2,2,0,0,0,1.86,1.29V178Z"/><path d="M50,178a2.12,2.12,0,0,0,.16.83A2,2,0,0,0,52,180.13a2,2,0,0,0,1.86-1.29A2.31,2.31,0,0,0,54,178Z"/><path d="M31.77,180.13a1.84,1.84,0,0,0,.41,0,2,2,0,0,0,1.45-1.25,2.31,2.31,0,0,0,.16-.83h-2Z"/><path d="M13.55,50.31A2.12,2.12,0,0,0,13,49.24a1.87,1.87,0,0,0-.3-.26,2,2,0,0,0-.72-.32h-.14c.4.7.78,1.39,1.16,2.09h.59A2,2,0,0,0,13.55,50.31Z"/><path d="M30.91,93.16h.86V91a1.93,1.93,0,0,0-.79.17,2.07,2.07,0,0,0-.53.36C30.6,92.1,30.76,92.64,30.91,93.16Z"/><path d="M31.77,69.83A1.93,1.93,0,0,0,31,70a2.12,2.12,0,0,0-1.23,2,2.15,2.15,0,0,0,1.23,2,2.1,2.1,0,0,0,.79.16Z"/><path d="M21.67,63.47a2.13,2.13,0,1,0-2-2.12A2.07,2.07,0,0,0,21.67,63.47Z"/><path d="M13.59,50.74H13l.45.79A2.3,2.3,0,0,0,13.59,50.74Z"/><path d="M30.91,93.16c.19.71.36,1.39.53,2.09a1.84,1.84,0,0,0,.33,0V93.16Z"/><path d="M31.77,175.89a1.93,1.93,0,0,0-.79.17,2,2,0,0,0-.88.76,2.19,2.19,0,0,0-.35,1.19h2Z"/><path d="M31.77,154.68a2.1,2.1,0,0,0-.79.16,2.15,2.15,0,0,0-1.23,2A2.12,2.12,0,0,0,31,158.75a1.93,1.93,0,0,0,.79.17Z"/><path d="M23.69,167.41c0-.07,0-.13,0-.19-.46.75-.92,1.48-1.39,2.19A2.09,2.09,0,0,0,23.69,167.41Z"/><path d="M3.29,189.54l-1.7,1.19A2,2,0,0,0,3.29,189.54Z"/><path d="M21.67,186.49a2,2,0,0,0-1.93,1.56c1.23-.19,2.46-.36,3.66-.52A2,2,0,0,0,21.67,186.49Z"/><path d="M31.77,178h-2a2.31,2.31,0,0,0,.16.83A2.06,2.06,0,0,0,31,180a1.93,1.93,0,0,0,.79.17Z"/><path d="M0,149.83c30.86-3.1,61.72-4.8,92.59-6.08s61.74-1.89,92.61-2.1,61.75.08,92.63.91,61.77,2.2,92.66,4.92c-30.86,3.11-61.72,4.82-92.59,6.09s-61.74,1.9-92.61,2.08-61.75-.1-92.63-.93S30.89,152.53,0,149.83Z" fill="#8fffff"/><path d="M106.64,21.51C115,31.1,123,41,130.85,50.9s15.52,20,23.09,30.16q22.67,30.45,44,61.78t41.54,63.48q10,16.11,19.69,32.49c6.38,10.94,12.67,22,18.54,33.26-8.39-9.58-16.35-19.45-24.23-29.38s-15.52-20-23.09-30.16q-22.65-30.45-44-61.79t-41.53-63.5q-10-16.11-19.68-32.48C118.81,43.82,112.51,32.81,106.64,21.51Z" fill="#8fffff"/><path d="M241.84,3.45c-2.7,12.44-5.89,24.71-9.18,36.95s-6.83,24.39-10.46,36.51q-11,36.35-23.4,72.17t-26.24,71.18c-4.64,11.77-9.4,23.5-14.37,35.16s-10.08,23.27-15.66,34.71c2.69-12.44,5.88-24.72,9.16-37s6.83-24.39,10.47-36.51q11-36.34,23.41-72.16t26.26-71.18q7-17.65,14.36-35.16C231.18,26.51,236.27,14.9,241.84,3.45Z" fill="#8fffff"/><path d="M309.31,150.54a27.52,27.52,0,0,0-18.16-22.41,28.6,28.6,0,0,0,1.32-13.66c-2.17-15-15.27-25.44-29.28-23.41a21.87,21.87,0,0,0-2.28.45,49.79,49.79,0,0,0-3.55-6.26l25.71-36a12,12,0,0,0,11.8-6.63,6.19,6.19,0,0,0,2.71,1.74,6.69,6.69,0,0,0,8.21-4.66,6.93,6.93,0,0,0-1.7-7.06,7.25,7.25,0,0,0,1.78-3,6.67,6.67,0,0,0-4.12-8.49,5.12,5.12,0,0,0-.56-.15,11.69,11.69,0,0,0-8-11.36,11,11,0,0,0-6.86.11A11.36,11.36,0,0,0,279,2.2c-6.11-1.9-12.7,1.85-14.73,8.37-5.45-1.7-11.33,1.65-13.14,7.46-1.73,5.57.9,11.38,5.9,13.35a12.31,12.31,0,0,0,2.56,7.8L249.18,75.77a44.6,44.6,0,0,0-36.31-11.35,43.75,43.75,0,0,0-24.39,12.12C178.46,65.79,164,60,149,62.13c-21.49,3.11-37.2,21.63-38.88,43.71L92.92,81.06a12,12,0,0,0-2.27-13.34,6.07,6.07,0,0,0,2.54-2,6.69,6.69,0,0,0-1.63-9.3,6.93,6.93,0,0,0-7.22-.77A7.18,7.18,0,0,0,82.15,53a6.68,6.68,0,0,0-9.38,1,5.25,5.25,0,0,0-.33.49A11.68,11.68,0,0,0,59.05,58.2a11.06,11.06,0,0,0-2.2,6.49,11.35,11.35,0,0,0-9.6,4.43c-3.84,5.12-2.53,12.59,2.93,16.69-3.43,4.56-2.26,11.22,2.6,14.88,4.66,3.5,11,3,14.56-1.06a12.33,12.33,0,0,0,8.21.21l27.26,19.43c-18.09,6.6-29.64,26.18-26.6,47.25,3.32,22.91,22.68,39.25,44,37.77,8.63,18.93,28,30.77,48.38,27.82a43.61,43.61,0,0,0,21.11-9.21l10.07,34.73a12,12,0,0,0-2.1,13.36,6.15,6.15,0,0,0-3,1.06,6.68,6.68,0,0,0-1.43,9.33,6.94,6.94,0,0,0,6.6,3,7.12,7.12,0,0,0,1.22,3.23,6.69,6.69,0,0,0,9.22,2,5.19,5.19,0,0,0,.46-.36,11.7,11.7,0,0,0,13.87.79,11.06,11.06,0,0,0,4.16-5.46,11.34,11.34,0,0,0,10.51-1.12c5.28-3.62,6.42-11.12,2.56-16.75,4.71-3.22,5.73-9.91,2.29-14.93-3.29-4.81-9.48-6.35-14.13-3.65a12.36,12.36,0,0,0-7.71-2.82l-22.85-31.58a44.74,44.74,0,0,0,36.79,11.8c22.21-3.21,38.23-22.87,39-45.91a24.22,24.22,0,0,0,12.7,1.58C301.87,179.26,311.47,165.5,309.31,150.54Z" fill="#f7ec41"/><path d="M309.11,150.57a28.6,28.6,0,0,0-5.9-13.67,26.33,26.33,0,0,0-12.13-8.54l-.24-.08.08-.23a28.65,28.65,0,0,0,.32-17.59,26.32,26.32,0,0,0-1.23-3.35,27.43,27.43,0,0,0-3.69-6.07,30,30,0,0,0-2.38-2.65,29.45,29.45,0,0,0-2.74-2.27A24.5,24.5,0,0,0,275,92.79l-1.68-.56-1.73-.39a11.39,11.39,0,0,0-1.75-.28c-.58,0-1.16-.17-1.75-.17a23.1,23.1,0,0,0-3.53.11,23.93,23.93,0,0,0-3.47.58l-.48.1-.2-.42a50.14,50.14,0,0,0-3.56-6.15l-.25-.37.27-.37,25.38-36.26.35-.5.63.06a10.25,10.25,0,0,0,6.23-1.42A11.59,11.59,0,0,0,293.81,42l.77-1.53,1.17,1.28a4.88,4.88,0,0,0,3.84,1.56,5.34,5.34,0,0,0,3.74-1.9,6,6,0,0,0,1.44-4,5.4,5.4,0,0,0-1.65-3.81l-1-1,1-1a5.84,5.84,0,0,0,1.49-5.39,5,5,0,0,0-1.34-2.45,4.78,4.78,0,0,0-2.37-1.29l-1.2-.25,0-1.24a11.15,11.15,0,0,0-1-4.63,9.94,9.94,0,0,0-2.92-3.65,9.33,9.33,0,0,0-4.23-1.83,9.45,9.45,0,0,0-4.59.43l-1.58.55-.53-1.62a10,10,0,0,0-3.66-5.09,9.3,9.3,0,0,0-5.92-1.7,10,10,0,0,0-5.79,2.33,12.12,12.12,0,0,0-2.13,2.39,13.11,13.11,0,0,0-1.37,2.91l-.55,1.67-1.66-.51a8.25,8.25,0,0,0-6.52.78A9.86,9.86,0,0,0,253,25a8.32,8.32,0,0,0,4.61,4.68l1.15.45,0,1.24A10.54,10.54,0,0,0,261,38.08l.55.72-.24.87L250.79,76.23l-.74,2.55-2-1.77a46.58,46.58,0,0,0-13.62-8.55,42,42,0,0,0-31.59.1,43.17,43.17,0,0,0-13.53,8.85l-.9.86-.84-.9a48.51,48.51,0,0,0-10-8.27A45.25,45.25,0,0,0,165.62,64a42.43,42.43,0,0,0-25.69,1.41,41.36,41.36,0,0,0-11.36,6.44,47.2,47.2,0,0,0-9,9.54,49.62,49.62,0,0,0-8.78,24.5l-.17,1.82-1-1.49L101,93.8,92.41,81.41l-.21-.3.16-.32a10.73,10.73,0,0,0,.85-6.63,12,12,0,0,0-3-6l-.65-.69.87-.36A5.44,5.44,0,0,0,93.5,63.7,6,6,0,0,0,93,59.06a6.72,6.72,0,0,0-3.64-3,6.12,6.12,0,0,0-4.66.27l-.64.32L83.71,56a6.56,6.56,0,0,0-5.12-3.66,5.71,5.71,0,0,0-3.16.48,5.45,5.45,0,0,0-2.37,2.09l-.31.5-.56-.19a11.75,11.75,0,0,0-5-.64,10.69,10.69,0,0,0-4.79,1.63,10.12,10.12,0,0,0-3.42,3.67,10.38,10.38,0,0,0-1.25,4.85v.84l-.85,0A10.87,10.87,0,0,0,50.3,67.4a10.05,10.05,0,0,0-3.9,5.46,10.77,10.77,0,0,0,.29,6.73,13,13,0,0,0,1.65,3A13.58,13.58,0,0,0,50.78,85l.79.61-.59.79a9,9,0,0,0-1.58,7,10.49,10.49,0,0,0,10.66,8.45,8.92,8.92,0,0,0,6.37-3L67,98.2l.8.3a11.19,11.19,0,0,0,7.38.14l.6-.21.53.38,27.4,19.24,2.32,1.63-2.67,1A39.39,39.39,0,0,0,82.1,140a44.4,44.4,0,0,0,11,53.43,39.56,39.56,0,0,0,12.67,7.08,37.08,37.08,0,0,0,14.33,1.83l1.32-.1.58,1.22a48.35,48.35,0,0,0,11.82,15.92A44.19,44.19,0,0,0,151,228.92a41.15,41.15,0,0,0,19.6.71,41.82,41.82,0,0,0,17.71-8.39l2.49-2,.89,3.06L201.82,257l.35,1.21-.89.89a9.22,9.22,0,0,0-2.51,5.16,10.53,10.53,0,0,0,.84,5.82l1.27,2.83-3.07.19a4,4,0,0,0-2.95,1.62,4.54,4.54,0,0,0-.74,3.45,5.22,5.22,0,0,0,1.93,3.16,4.68,4.68,0,0,0,3.44,1l2.15-.3.23,2.13a5.2,5.2,0,0,0,2.87,4,4.49,4.49,0,0,0,2.43.44,4,4,0,0,0,2.18-.91l1.31-1.05,1.31,1a10.63,10.63,0,0,0,4.06,2,9.52,9.52,0,0,0,4.44,0,9,9,0,0,0,3.89-2.05A9.22,9.22,0,0,0,226.8,284l.7-1.95,1.93.73a9.73,9.73,0,0,0,6,.33,9.09,9.09,0,0,0,4.87-3.45,9.77,9.77,0,0,0,1.77-5.83,12.11,12.11,0,0,0-.51-3.1,13,13,0,0,0-1.39-2.86l-1-1.61,1.53-1a8.11,8.11,0,0,0,3.44-5.5,9.48,9.48,0,0,0-1.4-6.58,9.67,9.67,0,0,0-5.38-4.13,8.38,8.38,0,0,0-6.58.67l-1,.6-.9-.75a10.7,10.7,0,0,0-6.64-2.49h-.85l-.48-.67c-7.58-10.56-15-21.19-22.57-31.78l-7.47-10.52,9.42,8.79a44.83,44.83,0,0,0,22.53,11.53,41.68,41.68,0,0,0,12.81.36,45.75,45.75,0,0,0,12.37-3.5,44,44,0,0,0,10.79-7.06,50.88,50.88,0,0,0,4.56-4.61l2-2.56c.68-.85,1.21-1.8,1.83-2.69a49.34,49.34,0,0,0,5.45-11.79,55.32,55.32,0,0,0,2.19-12.84l0-.54.49.2a23.51,23.51,0,0,0,13.18,1.5l1.66-.32c.55-.12,1.07-.32,1.61-.48a22.17,22.17,0,0,0,3.14-1.22,24.72,24.72,0,0,0,5.57-3.77,26.75,26.75,0,0,0,7.39-11.13A29.52,29.52,0,0,0,309.11,150.57Zm.4-.06a29.82,29.82,0,0,1-1.22,13.56,27.19,27.19,0,0,1-7.48,11.38,25.3,25.3,0,0,1-5.68,3.86,24.41,24.41,0,0,1-3.19,1.28c-.55.17-1.09.38-1.65.5l-1.69.35A24.23,24.23,0,0,1,275,180.05l.51-.34a56.28,56.28,0,0,1-2.07,13.08,50.88,50.88,0,0,1-5.36,12.12c-.61.93-1.15,1.91-1.82,2.79l-2,2.66a50,50,0,0,1-4.6,4.83,45.16,45.16,0,0,1-11,7.5,47.51,47.51,0,0,1-12.8,3.88,44,44,0,0,1-13.41-.13,47.2,47.2,0,0,1-23.95-11.67l1.95-1.73c7.71,10.46,15.47,20.88,23.13,31.38l-1.33-.69a14,14,0,0,1,8.77,3.16l-1.93-.15a11.84,11.84,0,0,1,9.28-1.1,13.39,13.39,0,0,1,9.45,14.65,11.89,11.89,0,0,1-4.95,8.07l.49-2.64a16.51,16.51,0,0,1,1.91,3.8,15.45,15.45,0,0,1,.74,4.21,13.62,13.62,0,0,1-2.4,8.21,12.92,12.92,0,0,1-7,5,13.75,13.75,0,0,1-8.58-.41l2.63-1.22a13,13,0,0,1-9.17,8.36,13.58,13.58,0,0,1-6.37,0A14.73,14.73,0,0,1,209.4,291l2.61,0a8.22,8.22,0,0,1-4.42,1.87A8.67,8.67,0,0,1,203,292a9.37,9.37,0,0,1-5.26-7.3l2.37,1.83a8.85,8.85,0,0,1-6.59-1.79,9.44,9.44,0,0,1-3.53-5.75,8.77,8.77,0,0,1,1.46-6.71,8.2,8.2,0,0,1,6.11-3.39l-1.81,3a14.84,14.84,0,0,1-1.16-8.22,13.45,13.45,0,0,1,3.7-7.53l-.53,2.09-10.07-34.73,3.38,1.07a45.6,45.6,0,0,1-19.54,9.16,46.42,46.42,0,0,1-40.34-11.34,52.27,52.27,0,0,1-12.7-17.28l1.89,1.12a41,41,0,0,1-15.81-2.09,43.14,43.14,0,0,1-13.83-7.82A47.71,47.71,0,0,1,79.2,138.55a42.56,42.56,0,0,1,23.1-20.68l-.35,2.61L74.81,100.87,76,101a13.58,13.58,0,0,1-9-.28l1.33-.34a11.29,11.29,0,0,1-8.09,3.74,12.63,12.63,0,0,1-8.34-2.84,12.47,12.47,0,0,1-4.49-7.56,11,11,0,0,1,2.05-8.55l.19,1.4a15.06,15.06,0,0,1-2.8-2.84,14.37,14.37,0,0,1-1.88-3.52,12.66,12.66,0,0,1-.25-7.91A11.9,11.9,0,0,1,49.31,66a12.53,12.53,0,0,1,7.57-2.09l-.86.81a12,12,0,0,1,1.52-5.6,11.75,11.75,0,0,1,4-4.18A12.33,12.33,0,0,1,67,53.08a13.42,13.42,0,0,1,5.69.74l-.87.31a6.79,6.79,0,0,1,3-2.65,7.3,7.3,0,0,1,3.93-.59A8,8,0,0,1,85,55.38l-1-.33a7.46,7.46,0,0,1,5.73-.32,8,8,0,0,1,4.38,3.68,7.29,7.29,0,0,1,.63,5.69,6.77,6.77,0,0,1-3.87,4.23l.22-1a13.33,13.33,0,0,1,3.35,6.66,11.94,11.94,0,0,1-1,7.39l0-.63,8.62,12.4,8.65,12.37-1.19.32a51.07,51.07,0,0,1,8.89-25.24,48.33,48.33,0,0,1,9.21-9.9A44.43,44.43,0,0,1,166.11,62a46.85,46.85,0,0,1,12.61,5.16,50.87,50.87,0,0,1,10.65,8.52l-1.74,0a45.92,45.92,0,0,1,14.21-9.57,45,45,0,0,1,33.75-.55,48.29,48.29,0,0,1,14.7,9l-2.71.79L257.83,38.7l.31,1.58a14.12,14.12,0,0,1-2.94-8.93L256.33,33a11.87,11.87,0,0,1-6.62-6.66,13.24,13.24,0,0,1-.21-9.28,13.11,13.11,0,0,1,5.91-7.17,11.78,11.78,0,0,1,9.33-1l-2.2,1.16a16.17,16.17,0,0,1,1.81-3.8,15.08,15.08,0,0,1,2.83-3.14A13.42,13.42,0,0,1,275,0a12.64,12.64,0,0,1,8.1,2.39,13.46,13.46,0,0,1,4.83,6.84l-2.11-1.06a12.54,12.54,0,0,1,11.84,2,13.15,13.15,0,0,1,3.78,4.85,14.24,14.24,0,0,1,1.27,6l-1.21-1.5a7.73,7.73,0,0,1,3.9,2.19,8,8,0,0,1,2,3.88,8.73,8.73,0,0,1-2.36,8l0-2a8.17,8.17,0,0,1,2.41,5.78,8.71,8.71,0,0,1-2.18,5.78,7.9,7.9,0,0,1-5.59,2.67A7.34,7.34,0,0,1,294,43.4l1.95-.26a13.89,13.89,0,0,1-5.39,5.57A12.43,12.43,0,0,1,283,50.28l1-.44-26,35.79v-.75a52.07,52.07,0,0,1,3.53,6.37l-.67-.32a26.35,26.35,0,0,1,3.65-.55,23.93,23.93,0,0,1,3.69,0c.61,0,1.22.14,1.83.21a11.06,11.06,0,0,1,1.81.32l1.79.44,1.74.61a25.84,25.84,0,0,1,6.4,3.55,28.65,28.65,0,0,1,2.8,2.36,31.39,31.39,0,0,1,2.42,2.74,27.63,27.63,0,0,1,4.94,9.71,27,27,0,0,1,.81,3.56,29,29,0,0,1-1.26,14.37l-.16-.31a26.61,26.61,0,0,1,12.33,8.73A29,29,0,0,1,309.51,150.51Z"/><path d="M135.71,191.89a34.22,34.22,0,0,0,5.7,8.79,21.85,21.85,0,0,0,8,5.58,26.7,26.7,0,0,0,4.73,1.33,36.29,36.29,0,0,0,5,.52,97.37,97.37,0,0,0,10.67-.41,28.28,28.28,0,0,1-10.51,3.55,22.49,22.49,0,0,1-2.85.21,23.11,23.11,0,0,1-2.88-.11,22.81,22.81,0,0,1-5.7-1.38,19.36,19.36,0,0,1-9-7.38,20.31,20.31,0,0,1-2.41-5.18A17.37,17.37,0,0,1,135.71,191.89Z"/><path d="M232.75,95.07a34.15,34.15,0,0,0-8.23-6.48,22.05,22.05,0,0,0-9.34-2.71,26.14,26.14,0,0,0-4.91.27,35.35,35.35,0,0,0-5,1.14,96.39,96.39,0,0,0-10,3.82,28.3,28.3,0,0,1,8.8-6.75,24.37,24.37,0,0,1,2.63-1.11,23.72,23.72,0,0,1,2.76-.83,22.78,22.78,0,0,1,5.84-.53A19.4,19.4,0,0,1,226.26,86a19.75,19.75,0,0,1,4,4.12A17.39,17.39,0,0,1,232.75,95.07Z"/><path d="M205.79,266.42a5.27,5.27,0,0,1,0-3.17,5,5,0,0,1,2-2.74,5.13,5.13,0,0,1,3.29-.82,7.53,7.53,0,0,1,1.58.34,9.7,9.7,0,0,1,1.38.76,12.36,12.36,0,0,1-1.5.22c-.48.1-.94.13-1.37.25a6.46,6.46,0,0,0-2.26.91C207.61,263,206.73,264.55,205.79,266.42Z"/><path d="M220.79,270.25a9.49,9.49,0,0,1,2.46-3.83,8.57,8.57,0,0,1,4.14-2.31,7.53,7.53,0,0,1,2.46-.14l1.2.27a5.78,5.78,0,0,1,1.12.47A8,8,0,0,1,234.1,266a12.1,12.1,0,0,1,1.46,1.75c-.73-.28-1.34-.66-2-.93a12.51,12.51,0,0,0-1.95-.67,7.29,7.29,0,0,0-3.79-.11,11.29,11.29,0,0,0-3.6,1.57A34,34,0,0,0,220.79,270.25Z"/><path d="M197.3,225.11c.9,2,1.7,4,2.49,6s1.51,4.08,2.23,6.13,1.39,4.12,2,6.2l.92,3.13c.28,1.06.59,2.1.83,3.17-.46-1-.86-2-1.29-3l-1.19-3c-.8-2-1.52-4.07-2.23-6.12s-1.4-4.12-2-6.21S197.81,227.23,197.3,225.11Z"/><path d="M205.79,231.65a28.55,28.55,0,0,1,2.68,5.1,29.07,29.07,0,0,1,1.75,5.47,28.73,28.73,0,0,1-2.67-5.09A30,30,0,0,1,205.79,231.65Z"/><path d="M255.19,73.09c.73-2.62,1.56-5.22,2.41-7.8s1.74-5.15,2.66-7.72,1.86-5.11,2.87-7.63l1.52-3.8c.54-1.25,1-2.51,1.61-3.75-.35,1.32-.77,2.61-1.15,3.92l-1.25,3.89c-.84,2.59-1.75,5.15-2.66,7.71s-1.87,5.11-2.88,7.64S256.31,70.61,255.19,73.09Z"/><path d="M263.24,67.05a103.94,103.94,0,0,1,4.59-9.79,101.62,101.62,0,0,1,5.48-9.33,103.94,103.94,0,0,1-4.59,9.79A101.62,101.62,0,0,1,263.24,67.05Z"/><path d="M263.24,24.27a23.07,23.07,0,0,0,2.84,4.59A11.34,11.34,0,0,0,270,32a6.73,6.73,0,0,0,1.15.46l.59.22.62.12c.42.07.82.21,1.25.24l1.3.09a6.47,6.47,0,0,0,1.32,0l1.35,0c.9-.1,1.81-.23,2.77-.26a26.39,26.39,0,0,1-2.57,1.22,16.16,16.16,0,0,1-2.81.63,10.59,10.59,0,0,1-5.84-.89,10,10,0,0,1-4.33-4A11.12,11.12,0,0,1,263.24,24.27Z"/><path d="M104.51,106.82c-1.69-1.83-3.29-3.73-4.88-5.64s-3.14-3.85-4.67-5.8-3-3.93-4.49-5.94l-2.18-3c-.7-1-1.42-2-2.1-3.09.86.91,1.66,1.86,2.49,2.79L91.08,89c1.59,1.9,3.13,3.85,4.66,5.8s3,3.93,4.49,5.94S103.14,104.74,104.51,106.82Z"/><path d="M95.35,106.82a87.51,87.51,0,0,1-8.22-5.47,85.79,85.79,0,0,1-7.62-6.28,84.46,84.46,0,0,1,8.22,5.48A86,86,0,0,1,95.35,106.82Z"/><path d="M62.74,73.09a34.55,34.55,0,0,0,6.09,1.17,10.13,10.13,0,0,0,5.58-.87,7.91,7.91,0,0,0,3.5-4.22,30.75,30.75,0,0,0,1.6-6,14.3,14.3,0,0,1-.12,6.47A9.35,9.35,0,0,1,78,72.79a8,8,0,0,1-2.66,2.37,9.9,9.9,0,0,1-6.74.64A15.06,15.06,0,0,1,62.74,73.09Z"/><path d="M60,90.88a25.94,25.94,0,0,0,4.25.45,6.24,6.24,0,0,0,3.55-.91,6,6,0,0,0,2.12-3,40.65,40.65,0,0,0,1.19-4.13,9.9,9.9,0,0,1,.32,4.54,7.7,7.7,0,0,1-.77,2.3,5.66,5.66,0,0,1-1.74,1.91,6.35,6.35,0,0,1-4.83.8A8.93,8.93,0,0,1,60,90.88Z"/><path d="M68.41,140a17.91,17.91,0,0,1,7.32-.66,18.35,18.35,0,0,1,6.76,2.14A19.39,19.39,0,0,1,88,146a18,18,0,0,1,3.47,6.48,18.26,18.26,0,0,1,.77,5.42,20.78,20.78,0,0,1-.74,5.19,19.36,19.36,0,0,1,6.65,4.64,18.52,18.52,0,0,1,4.79,14.59,18.4,18.4,0,0,1-6.59,12.21A18,18,0,0,1,89.84,198l-20.28,6.07L51.87,144.94Zm2.31,25.06,4.76-1.42a6,6,0,0,0,3.7-3,5.91,5.91,0,0,0,.48-4.65A6.12,6.12,0,0,0,72,151.86l-4.75,1.42Zm7.07,23.64,8.5-2.55A6,6,0,0,0,90,183.22a5.84,5.84,0,0,0,.47-4.69,6.13,6.13,0,0,0-7.7-4.16l-8.51,2.55Z"/><path d="M151.61,182l-10-15.39-18.48,4.31-2.18,18.23-12.77,3,7.71-65.17,12.77-3,35.74,55Zm-25.27-38.84-1.68,14.69,9.76-2.28Z"/><path d="M196.32,111.25l12.15-1.92,9.6,61-14.16,2.23-30.84-36.77,6.39,40.62-12.14,1.91-9.6-61L172,115.08l30.78,36.86Z"/><path d="M248.53,105.42a29.77,29.77,0,0,1,11.79,1.38,30.81,30.81,0,0,1,10.06,5.51l-8,9.44a17.3,17.3,0,0,0-5.92-3.22,18.15,18.15,0,0,0-7-.77,17.94,17.94,0,0,0-7.07,2,19.09,19.09,0,0,0-5.58,4.38,18.36,18.36,0,0,0-3.53,6.14,18.34,18.34,0,0,0,1.11,14.34,19,19,0,0,0,4.43,5.56,18.61,18.61,0,0,0,6.2,3.51,18.58,18.58,0,0,0,15.5-1.71,19.09,19.09,0,0,0,6-5.83l-14.77,1.14-1-12.34,6.09-.47,12.34-.95,12.26-1a2.89,2.89,0,0,0,.09.6,5.24,5.24,0,0,1,.09.61,29.88,29.88,0,0,1-1.52,12.12,31.35,31.35,0,0,1-5.85,10.29,31.73,31.73,0,0,1-9.27,7.38,30.56,30.56,0,0,1-23.87,1.85,31.22,31.22,0,0,1-17.67-15.13,30.56,30.56,0,0,1-1.85-23.87,31.22,31.22,0,0,1,15.13-17.67A29.78,29.78,0,0,1,248.53,105.42Z"/><path d="M319.87,102.76a30,30,0,0,1,11.62,2.39,31,31,0,0,1,9.54,6.37l-8.79,8.7a17.57,17.57,0,0,0-5.63-3.71,18.67,18.67,0,0,0-14.09,0,19.15,19.15,0,0,0-5.94,3.88,18.1,18.1,0,0,0-4,5.81,18.32,18.32,0,0,0-.14,14.38,18.72,18.72,0,0,0,3.93,5.93,19,19,0,0,0,5.86,4,18.69,18.69,0,0,0,15.6-.36,19.13,19.13,0,0,0,6.48-5.29l-14.82-.15.12-12.38,6.11.07,12.38.12,12.29.12a4,4,0,0,0,0,.61,5.79,5.79,0,0,1,0,.61,29.58,29.58,0,0,1-2.56,11.94,31.21,31.21,0,0,1-16.61,16.29,30.62,30.62,0,0,1-23.93-.23A31.3,31.3,0,0,1,291,145.31a30.58,30.58,0,0,1,.24-23.94,31.3,31.3,0,0,1,6.73-9.75,31.72,31.72,0,0,1,9.87-6.54A29.75,29.75,0,0,1,319.87,102.76Z"/><path d="M58.4,136.74a17.64,17.64,0,0,1,7.33-.66,18.3,18.3,0,0,1,6.75,2.14A19.39,19.39,0,0,1,78,142.74a18.4,18.4,0,0,1,4.24,11.91,20.78,20.78,0,0,1-.74,5.19,19.4,19.4,0,0,1,6.66,4.64,18.56,18.56,0,0,1,4.78,14.59,18.46,18.46,0,0,1-6.59,12.21,17.79,17.79,0,0,1-6.48,3.47l-20.28,6.06L41.86,141.68Zm2.31,25.06,4.76-1.43a6,6,0,0,0,3.7-3A6.15,6.15,0,0,0,62,148.59L57.19,150Zm7.07,23.63,8.51-2.54A6.07,6.07,0,0,0,80,180a5.86,5.86,0,0,0,.46-4.68,6.09,6.09,0,0,0-7.7-4.16l-8.5,2.54Z" fill="#bb4c46"/><path d="M58.36,136.59a19.29,19.29,0,0,1,10-.35,19.5,19.5,0,0,1,9,4.65,18.56,18.56,0,0,1,5.5,8.8,17.31,17.31,0,0,1,.69,5.27,19.87,19.87,0,0,1-.76,5.24L82,158.6a19.63,19.63,0,0,1,7.14,5.2,19.15,19.15,0,0,1,4,7.78,18.89,18.89,0,0,1,.21,8.62A19.75,19.75,0,0,1,90,188a20,20,0,0,1-6.3,5.7,21.31,21.31,0,0,1-3.93,1.7l-4,1.32c-5.29,1.75-10.55,3.59-15.85,5.27l-1.16.37-.39-1.2c-1.61-4.89-3.11-9.81-4.66-14.71l-2.31-7.37-2.22-7.38c-1.43-4.94-2.89-9.88-4.22-14.85s-2.51-10-3.74-15l-.17-.7.63-.15c2.8-.68,5.59-1.37,8.38-2.11,1.38-.38,2.78-.73,4.16-1.14Zm.08.29-4.12,1.28c-1.37.42-2.73.89-4.1,1.34-2.73.91-5.45,1.86-8.16,2.83l.45-.84c1.73,4.85,3.5,9.69,5.11,14.57s3.11,9.81,4.62,14.73l2.2,7.39,2.12,7.42c1.4,5,2.84,9.89,4.18,14.86l-1.55-.84c5.36-1.5,10.77-2.85,16.15-4.3l4-1.07a17.25,17.25,0,0,0,3.78-1.44,15.61,15.61,0,0,0,3.33-2.31,17.05,17.05,0,0,0,4.93-18.41,18.28,18.28,0,0,0-10.48-11l-1.08-.45.31-1.14a22.15,22.15,0,0,0,.7-4.59,18.33,18.33,0,0,0-.41-4.6,19.68,19.68,0,0,0-1.55-4.4,18.15,18.15,0,0,0-10.75-9,16.65,16.65,0,0,0-9.72,0Z"/><path d="M60.78,161.66l3.36-1.89c.48-.26,1-.47,1.41-.69a5.88,5.88,0,0,0,1.22-.81A9.13,9.13,0,0,0,68.52,156a4.7,4.7,0,0,0,.57-3.08,4.07,4.07,0,0,0-1.77-2.78,4.72,4.72,0,0,0-3.11-.77,13.42,13.42,0,0,0-3.1,1c-1.15.43-2.3.85-3.46,1.25l1.07-2A32.6,32.6,0,0,1,60,155.09C60.25,157.06,60.49,159.19,60.78,161.66Zm-.14.27A47.08,47.08,0,0,1,58,156.72a42.08,42.08,0,0,1-2.29-6.24l-.43-1.61,1.5-.38c1.19-.31,2.38-.59,3.58-.86.62-.14,1.13-.27,1.89-.4a6.65,6.65,0,0,1,2.18.09,8.53,8.53,0,0,1,5.8,5.23,6.78,6.78,0,0,1,.56,4.14,5.88,5.88,0,0,1-2.35,3.66,6.75,6.75,0,0,1-2,1,17.09,17.09,0,0,1-2.09.4A25.31,25.31,0,0,1,60.64,161.93Z"/><path d="M67.85,185.3a63.68,63.68,0,0,1,8.39-3.8,6.84,6.84,0,0,0,2.92-2.22,4.63,4.63,0,0,0-1.82-7.06,5,5,0,0,0-3.89,0l-1,.39-1.09.4-2.19.79c-1.47.51-2.93,1-4.43,1.43l1.07-2a51.3,51.3,0,0,1,1.14,5.6C67.24,180.79,67.52,182.9,67.85,185.3Zm-.14.26c-.85-1.52-1.73-3.34-2.6-5.27a62.87,62.87,0,0,1-2.38-6.18l-.49-1.47,1.56-.52c1.47-.49,3-.87,4.48-1.24l2.27-.55,1.13-.26c.38-.08.74-.18,1.22-.25A6.81,6.81,0,0,1,78,171.11a7.92,7.92,0,0,1,2.94,4,8.83,8.83,0,0,1,.52,2.49,7,7,0,0,1-.4,2.65,6.19,6.19,0,0,1-1.49,2.33,6.12,6.12,0,0,1-2.4,1.44A41.8,41.8,0,0,1,67.71,185.56Z"/><path d="M141.61,178.68l-10-15.38-18.47,4.3-2.19,18.24-12.77,3,7.72-65.17,12.76-3,35.74,55Zm-25.28-38.83-1.67,14.68,9.75-2.27Z" fill="#bb4c46"/><path d="M141.55,178.82l-5.34-7.36c-1.82-2.49-3.6-5.07-5.41-7.65l1,.4c-3.07.79-6.12,1.61-9.19,2.37s-6.13,1.55-9.21,2.28l1-1.1c-.35,3-.67,6.08-1,9.12s-.75,6.08-1.18,9.11l-.12.89-.84.19c-2.14.47-4.28.88-6.43,1.32l-6.42,1.3-1.28.25.19-1.23c.81-5.41,1.64-10.82,2.33-16.25s1.32-10.85,1.87-16.3L103,139.82c.47-5.45,1-10.89,1.57-16.33l.09-.91.93-.23,12.73-3.12,1-.25.58.88c3,4.56,6.08,9.1,9,13.69s5.91,9.21,8.86,13.82,5.82,9.26,8.68,13.92,5.69,9.35,8.53,14l.55.9-1,.2c-2.21.46-4.42.84-6.58,1.25Zm.11-.28,6.37-1.81c2.09-.58,4.13-1.19,6.18-1.73l-.44,1.1c-3.11-4.5-6.28-9-9.34-13.5s-6.14-9-9.19-13.59-6.06-9.11-9-13.71-5.9-9.21-8.83-13.83l1.57.63-12.8,2.83,1-1.13c-.75,5.42-1.47,10.84-2.29,16.25l-2.34,16.24q-1.1,8.13-2,16.29c-.59,5.44-1,10.89-1.52,16.34l-1.09-1,6.34-1.68c2.11-.55,4.22-1.13,6.34-1.65l-1,1.08c.3-3.05.65-6.09,1-9.13s.77-6.07,1.15-9.11l.11-.9.87-.2c3.09-.71,6.18-1.35,9.27-2s6.19-1.3,9.29-2l.67-.14.33.55c1.53,2.54,3.09,5.09,4.61,7.73Z"/><path d="M116.37,140c0,1.64,0,3.07,0,4.41s.1,2.54.09,3.68a10.2,10.2,0,0,1-.42,3.19,33.72,33.72,0,0,0-.93,3.32l-.59-.53a21.6,21.6,0,0,0,4.8-1.46c.78-.32,1.56-.67,2.35-.95s1.59-.53,2.39-.77l-.87,2.15c-.68-.89-1.33-1.76-1.89-2.66a24.94,24.94,0,0,1-1.5-3C118.89,145.25,117.87,142.79,116.37,140Zm-.07-.29c1.19,1.34,2.86,3,4.61,5a33.2,33.2,0,0,1,2.54,3.23c.79,1.17,1.49,2.37,2.15,3.54l1.05,1.85-1.92.31c-.82.14-1.65.27-2.48.36s-1.69.13-2.53.19a21.61,21.61,0,0,0-5,.82l-.63.19,0-.72c.07-1.27-.06-2.61-.09-4a17.69,17.69,0,0,1,.42-4.16c.27-1.31.6-2.56.93-3.66Z"/><path d="M186.32,108l12.14-1.91,9.6,61-14.15,2.23L163.06,132.5l6.4,40.62L157.31,175l-9.6-61L162,111.82l30.78,36.86Z" fill="#bb4c46"/><path d="M186.19,107.89l6-1.18,6.18-1.18.51-.1.11.56c1,5.05,1.85,10.12,2.74,15.18l2.66,15.21,2.54,15.21,2.45,15.24.21,1.32-1.33.21q-7.07,1.13-14.17,2.15l-.72.1-.43-.54L177.87,151.4c-5-6.23-10-12.46-15.17-18.59l.83-.38c.51,3.39,1,6.77,1.6,10.15l1.66,10.15c1.09,6.76,2.32,13.5,3.48,20.26l.13.79-.82.15-12.11,2.13-1,.18-.19-1.05c-.91-5.06-1.74-10.14-2.61-15.21l-2.54-15.21-5-30.46-.26-1.57,1.59-.25,14.24-2.25.9-.15.58.7c5.08,6.19,10.22,12.32,15.25,18.54L193.6,148l-2,.91-2.8-20.7Zm.25.18,3.79,20.43,3.62,20,.74,4.1-2.73-3.19-15.62-18.24C171,125.1,165.89,119,160.72,112.85l1.47.55L148,115.64l1.33-1.82,4.61,30.51,2.25,15.26c.73,5.09,1.5,10.18,2.19,15.28l-1.19-.87,12.18-1.69-.68.94c-1-6.79-1.88-13.58-2.92-20.36l-1.54-10.16c-.5-3.39-1-6.77-1.6-10.16l-.27-1.69,1.1,1.32c5.16,6.11,10.42,12.14,15.68,18.16l15.77,18.1-1.16-.43q7.06-1.2,14.14-2.32l-1.11,1.54L204.39,152l-2.26-15.27L200,121.45c-.71-5.09-1.43-10.19-2.07-15.29l.63.45Z"/><path d="M238.53,102.16a29.92,29.92,0,0,1,11.78,1.37A31,31,0,0,1,260.38,109l-8,9.44a17.59,17.59,0,0,0-5.93-3.21,18.65,18.65,0,0,0-14,1.24,19.29,19.29,0,0,0-5.58,4.39,18.07,18.07,0,0,0-3.52,6.14,17.6,17.6,0,0,0-.91,7.28,18.05,18.05,0,0,0,2,7.06A18.78,18.78,0,0,0,235,150.45a18.7,18.7,0,0,0,15.51-1.71,18.88,18.88,0,0,0,6-5.84l-14.77,1.15-1-12.34,6.09-.47,12.34-1,12.25-.95a5.24,5.24,0,0,0,.09.61,5.24,5.24,0,0,1,.09.61,29.56,29.56,0,0,1-1.52,12.12A31.35,31.35,0,0,1,264.31,153a31.76,31.76,0,0,1-9.27,7.38,30.62,30.62,0,0,1-23.87,1.84,31.3,31.3,0,0,1-17.67-15.13,30.53,30.53,0,0,1-1.85-23.86,31.22,31.22,0,0,1,15.13-17.67A29.83,29.83,0,0,1,238.53,102.16Z" fill="#bb4c46"/><path d="M238.52,102a30.94,30.94,0,0,1,11.67,1.25,32.9,32.9,0,0,1,10.48,5.42l.37.28-.31.38L253,119l-.49.6-.63-.5a17.72,17.72,0,0,0-26.56,6.59,17.24,17.24,0,0,0-1.44,10.09,17.5,17.5,0,0,0,4.5,9.23,18,18,0,0,0,9,5.21,17.58,17.58,0,0,0,18.76-7.58l.44.74c-4.93.35-9.85.74-14.77,1.14l-.47,0,0-.47-.53-6.17-.56-6.17-.05-.59.61-.06,30.64-2.92,1.06-.1.19,1.16a30.58,30.58,0,0,1-3.16,18.46,32.59,32.59,0,0,1-13.09,13.61,31.58,31.58,0,0,1-18.55,3.94A32.28,32.28,0,0,1,210,142.08a31.16,31.16,0,0,1,.66-18.68A32.28,32.28,0,0,1,238.52,102Zm0,.3a29.78,29.78,0,0,0-8.83,2.08,31,31,0,0,0-7.73,4.69,30.55,30.55,0,0,0-9.67,14.85,30.25,30.25,0,0,0,10,31.59,29.39,29.39,0,0,0,7.45,4.42,28.46,28.46,0,0,0,8.38,2.12,29.28,29.28,0,0,0,16.78-3.39,29.78,29.78,0,0,0,12.12-12.24,28.6,28.6,0,0,0,3.29-17l1.24,1.06-30.73,1.82.56-.65.4,6.18.43,6.17-.52-.44q7.4-.52,14.78-1.15l1-.08-.53.83a19.43,19.43,0,0,1-30.13,3.34,20.26,20.26,0,0,1-3.52-4.71,18,18,0,0,1-2-5.6,20,20,0,0,1-.17-5.94,19.56,19.56,0,0,1,9.66-14.34,19.24,19.24,0,0,1,11.4-2.54,18.65,18.65,0,0,1,10.64,4.49l-1.12.1,8.26-9.23.06.66a30.09,30.09,0,0,0-4.72-3.35,31.12,31.12,0,0,0-5.31-2.36A29,29,0,0,0,238.54,102.31Z"/><path d="M309.86,99.5a30,30,0,0,1,11.62,2.39,31.29,31.29,0,0,1,9.55,6.36l-8.8,8.71a17.49,17.49,0,0,0-5.63-3.72,18.64,18.64,0,0,0-14.08,0,19.35,19.35,0,0,0-5.94,3.89,18.28,18.28,0,0,0-4.05,5.81,18.43,18.43,0,0,0-.14,14.38,18.77,18.77,0,0,0,9.79,10,18.69,18.69,0,0,0,15.6-.36,18.84,18.84,0,0,0,6.49-5.29l-14.82-.14.12-12.38,6.11.06,12.37.12,12.3.13a3,3,0,0,0,0,.61,3,3,0,0,1,0,.61,29.58,29.58,0,0,1-2.56,11.94,31.24,31.24,0,0,1-16.6,16.29,30.58,30.58,0,0,1-23.94-.24A31.24,31.24,0,0,1,281,142a30.5,30.5,0,0,1,.23-23.93,31.21,31.21,0,0,1,16.61-16.29A29.57,29.57,0,0,1,309.86,99.5Z" fill="#bb4c46"/><path d="M309.86,99.35a31,31,0,0,1,11.52,2.25,33,33,0,0,1,10,6.32l.34.31-.34.35-8.56,9-.53.55-.59-.55a17.72,17.72,0,0,0-27,4.26,17.24,17.24,0,0,0-2.31,9.92A17.58,17.58,0,0,0,296,141.3a18,18,0,0,0,8.54,6,17.62,17.62,0,0,0,19.35-5.92l.37.77c-4.94-.08-9.88-.12-14.82-.15H309v-6.67l0-6.18v-.6h.61l30.79-.24h1.06l.09,1.18.07,1.12c0,.43,0,.8,0,1.2,0,.79-.08,1.59-.15,2.37a31,31,0,0,1-4.67,13.42A32.64,32.64,0,0,1,322.53,160a30.9,30.9,0,0,1-9.24,2.6,31.79,31.79,0,0,1-26.37-9.13A32.06,32.06,0,0,1,278,136.79a31.15,31.15,0,0,1,2.28-18.56A32.27,32.27,0,0,1,309.86,99.35Zm0,.3a29.67,29.67,0,0,0-9,1.3,31.1,31.1,0,0,0-8.11,4,30.6,30.6,0,0,0-10.92,14,30.3,30.3,0,0,0,7.23,32.35,29.52,29.52,0,0,0,7,5.05,28.48,28.48,0,0,0,8.16,2.84,29.35,29.35,0,0,0,17-1.92,29.74,29.74,0,0,0,13.14-11.14,28.51,28.51,0,0,0,4.76-16.66l1.14,1.17-30.77-.85.62-.6-.14,6.18-.12,6.19-.47-.48c4.94.07,9.88.13,14.82.14h1l-.61.77a19.42,19.42,0,0,1-30.3.71,20.49,20.49,0,0,1-3.1-5,18.09,18.09,0,0,1-1.45-5.75,19.73,19.73,0,0,1,.35-5.93,19.31,19.31,0,0,1,2.17-5.54,19.56,19.56,0,0,1,8.69-7.91A19.37,19.37,0,0,1,312.58,111a18.79,18.79,0,0,1,10.21,5.4h-1.12l9-8.48v.67a29.9,29.9,0,0,0-4.41-3.76A31.51,31.51,0,0,0,321.2,102,29,29,0,0,0,309.86,99.65Z"/></g></g></svg>