<svg xmlns="http://www.w3.org/2000/svg" xmlns:xlink="http://www.w3.org/1999/xlink" viewBox="0 0 1002.49 1002.49"><defs><radialGradient id="Íîâûé_îáðàçåö_ãðàäèåíòà_1" cx="503.36" cy="412.42" r="501.24" gradientUnits="userSpaceOnUse"><stop offset="0" stop-color="#fddb35"/><stop offset="0.48" stop-color="#fdd934"/><stop offset="0.66" stop-color="#fcd232"/><stop offset="0.78" stop-color="#fbc72e"/><stop offset="0.88" stop-color="#fab629"/><stop offset="0.96" stop-color="#f8a022"/><stop offset="1" stop-color="#f7941e"/></radialGradient></defs><g style="isolation:isolate"><g id="Layer_1" data-name="Layer 1"><ellipse cx="501.24" cy="501.23" rx="501.24" ry="501.23" fill="url(#Íîâûé_îáðàçåö_ãðàäèåíòà_1)"/><path d="M1044,529.29c0,276.76-224.47,501.22-501.23,501.22A498.33,498.33,0,0,1,249,935.4a533.71,533.71,0,0,0,248.1,60.86c295.71,0,535.48-239.77,535.48-535.47,0-16.1-.68-32.08-2.17-47.84A500.56,500.56,0,0,1,1044,529.29Z" transform="translate(-41.51 -28.02)" fill="#fbd69e" style="mix-blend-mode:multiply"/><path d="M436.86,561.56l12.89-123a54.32,54.32,0,0,0-54.06-60.09H191.79a54.26,54.26,0,0,0-54.06,60.09l12.88,123a54.39,54.39,0,0,0,47.76,48.37l8.08.42H382.68A54.42,54.42,0,0,0,436.86,561.56Z" transform="translate(-41.51 -28.02)" fill="#414042"/><polygon points="226.69 350.44 261.38 350.44 106.16 505.66 102.89 474.25 226.69 350.44" fill="#939598"/><path d="M436.08,396.43a3.6,3.6,0,0,1,.37.44L223,610.33H204.78a54.36,54.36,0,0,1-45.68-24.79L366.18,378.45h29.5A54.59,54.59,0,0,1,436.08,396.43Z" transform="translate(-41.51 -28.02)" fill="#939598"/><path d="M992.66,328.52H92.85A32.48,32.48,0,0,0,60.37,361,16.37,16.37,0,0,0,76.78,377.4c4.23,0,8,3.13,11.08,7.28a31.22,31.22,0,0,1,5.32,13.53l23.09,209.66a36.28,36.28,0,0,0,36.12,32.31H439.53c16.49,0,31-17.25,35.18-33.15L493,541.14a36.39,36.39,0,0,1,35-26.64h29.1c16.49,0,30.87,17.26,35.1,33.24l14,50.66,4.23,15.23a36.31,36.31,0,0,0,34.93,26.55H933c18.53,0,34.09-20,36.12-38.48l11.33-102.51,11.84-107.07a16.42,16.42,0,0,1,16.33-14.72h.08A16.37,16.37,0,0,0,1025.14,361,32.54,32.54,0,0,0,992.66,328.52Zm-542.9,110-12.94,123a54.39,54.39,0,0,1-54.13,48.8H204.82a54.41,54.41,0,0,1-54.21-48.8l-12.85-123a54.2,54.2,0,0,1,54-60.05H395.72a54.34,54.34,0,0,1,54,60.05Zm498,0-12.86,123a54.59,54.59,0,0,1-54.21,48.8H702.73a54.45,54.45,0,0,1-54.13-48.8l-12.94-123a54.34,54.34,0,0,1,54.13-60.05H893.62a54.34,54.34,0,0,1,54.13,60.05Z" transform="translate(-41.51 -28.02)" fill="#2b2b2b"/><path d="M947.75,438.55l-12.86,123a54.59,54.59,0,0,1-54.21,48.8H702.73a54.46,54.46,0,0,1-52.1-38.74v-.08a49.21,49.21,0,0,1-2-10l-5.41-51.09-3.55-33.91-4-38a54.34,54.34,0,0,1,54.13-60.05H893.62a54.53,54.53,0,0,1,40.43,17.93,57,57,0,0,1,4.4,5.58A54.38,54.38,0,0,1,947.75,438.55Z" transform="translate(-41.51 -28.02)" fill="#414042"/><polygon points="745.12 350.49 601.68 482.43 598.13 448.51 704.7 350.49 745.12 350.49" fill="#939598"/><path d="M938.45,402,712,610.33h-9.22a54.46,54.46,0,0,1-52.1-38.74v-.08l209.84-193h33.15a54.53,54.53,0,0,1,40.43,17.93A57,57,0,0,1,938.45,402Z" transform="translate(-41.51 -28.02)" fill="#939598"/><path d="M844,700.92A293.73,293.73,0,0,1,825.22,778c-43.51,111.83-152.24,191-279.46,191h-6.07c-127.15,0-235.87-79.2-279.39-191a297.89,297.89,0,0,1-18.73-77.2,18.08,18.08,0,0,1,24.8-18.57c96.88,38.26,249.93,42.48,276.35,42.48s179.55-4.22,276.43-42.48A18.08,18.08,0,0,1,844,700.92Z" transform="translate(-41.51 -28.02)" fill="#87594a"/><path d="M843.92,701a294.5,294.5,0,0,1-18.68,77.1c-78.84,33.56-174.54,53.19-277.6,53.19h-9.89c-103,0-198.6-19.63-277.44-53.11A299.19,299.19,0,0,1,241.55,701a18.13,18.13,0,0,1,24.85-18.6c96.81,38.23,249.9,42.5,276.34,42.5s179.52-4.27,276.41-42.5A18.06,18.06,0,0,1,843.92,701Z" transform="translate(-41.51 -28.02)" fill="#fff"/><path d="M266.37,696.6c96.88,38.26,249.93,42.48,276.35,42.48s179.55-4.22,276.43-42.48A18,18,0,0,1,843,707.67c.29-2.26.7-4.48.94-6.75a18.08,18.08,0,0,0-24.8-18.57c-96.88,38.26-250,42.48-276.43,42.48s-179.47-4.22-276.35-42.48a18.08,18.08,0,0,0-24.8,18.57c.24,2.27.65,4.49.94,6.74A18,18,0,0,1,266.37,696.6Z" transform="translate(-41.51 -28.02)" fill="#87594a"/><path d="M825.24,778.05c-43.53,111.84-152.29,191-279.5,191h-6c-127.2,0-235.89-79.16-279.42-190.92,78.84,33.48,174.46,53.11,277.44,53.11h9.89C650.7,831.24,746.4,811.61,825.24,778.05Z" transform="translate(-41.51 -28.02)" fill="#fff"/><path d="M537.75,847.07h9.89c99.49,0,192.08-18.33,269.3-49.8q4.47-9.43,8.3-19.22c-78.84,33.56-174.54,53.19-277.6,53.19h-9.89c-103,0-198.6-19.63-277.44-53.11,2.54,6.52,5.33,12.92,8.3,19.22C345.83,828.74,438.34,847.07,537.75,847.07Z" transform="translate(-41.51 -28.02)" fill="#87594a"/></g></g></svg>