<svg xmlns="http://www.w3.org/2000/svg" xmlns:xlink="http://www.w3.org/1999/xlink" viewBox="0 0 1010 1010"><defs><radialGradient id="Íîâûé_îáðàçåö_ãðàäèåíòà_1" cx="511.39" cy="436.81" r="504.99" gradientUnits="userSpaceOnUse"><stop offset="0" stop-color="#fddb35"/><stop offset="0.48" stop-color="#fdd934"/><stop offset="0.66" stop-color="#fcd232"/><stop offset="0.78" stop-color="#fbc72e"/><stop offset="0.88" stop-color="#fab629"/><stop offset="0.96" stop-color="#f8a022"/><stop offset="1" stop-color="#f7941e"/></radialGradient></defs><g style="isolation:isolate"><g id="Layer_1" data-name="Layer 1"><ellipse cx="505" cy="504.98" rx="505" ry="504.98" fill="url(#Íîâûé_îáðàçåö_ãðàäèåíòà_1)"/><path d="M1047,538.2c0,278.82-226.15,505-505,505a502.17,502.17,0,0,1-296-95.81,537.73,537.73,0,0,0,250,61.31c297.93,0,539.5-241.56,539.5-539.48,0-16.22-.69-32.32-2.19-48.19A504.54,504.54,0,0,1,1047,538.2Z" transform="translate(-37 -33.16)" fill="#fbd69e" style="mix-blend-mode:multiply"/><path d="M292.32,433.33c29.3,15.68,194.85,113.18,176,149.6s-153,62.55-214.52,50.71c-30-5.79,9.14-39.79,50.25-45.23s133.68-8.4,64.51-49.9-82.91-60.47-95-71.71S278.92,426.16,292.32,433.33Z" transform="translate(-37 -33.16)" fill="#87594a"/><path d="M791.67,433.33c-29.29,15.68-194.84,113.18-176,149.6s153,62.55,214.52,50.71c30-5.79-9.15-39.79-50.25-45.23s-133.69-8.4-64.51-49.9,82.91-60.47,95-71.71S805.08,426.16,791.67,433.33Z" transform="translate(-37 -33.16)" fill="#87594a"/><path d="M681.86,866.66a37.59,37.59,0,0,1-24.56-9.45l-45.42-38.92L566.51,857.2c-14.69,12.6-34.43,12.61-49.12,0L472,818.29,426.64,857.2c-14.71,12.6-34.44,12.59-49.13,0l-60.43-51.84c-11.4-9.78-13.88-28.54-5.55-41.91s24.33-16.28,35.73-6.5l54.82,47,47.22-40.51c13.56-11.63,31.81-11.64,45.39,0L541.94,804l47.24-40.51c13.58-11.64,31.83-11.64,45.39,0L681.86,804l54.89-47.05c11.4-9.77,27.39-6.85,35.72,6.52s5.84,32.14-5.56,41.91l-60.5,51.86A37.64,37.64,0,0,1,681.86,866.66Z" transform="translate(-37 -33.16)" fill="#87594a"/></g></g></svg>