<svg xmlns="http://www.w3.org/2000/svg" xmlns:xlink="http://www.w3.org/1999/xlink" viewBox="0 0 972 972"><defs><radialGradient id="Íîâûé_îáðàçåö_ãðàäèåíòà_1" cx="523.08" cy="421.24" r="485.99" gradientTransform="translate(1030.57 -26.33) rotate(89.57)" gradientUnits="userSpaceOnUse"><stop offset="0" stop-color="#fddb35"/><stop offset="0.48" stop-color="#fdd934"/><stop offset="0.66" stop-color="#fcd232"/><stop offset="0.78" stop-color="#fbc72e"/><stop offset="0.88" stop-color="#fab629"/><stop offset="0.96" stop-color="#f8a022"/><stop offset="1" stop-color="#f7941e"/></radialGradient></defs><g style="isolation:isolate"><g id="Layer_1" data-name="Layer 1"><ellipse cx="528.55" cy="505.98" rx="485.98" ry="486" transform="translate(-23.92 1010.73) rotate(-89.57)" fill="url(#Íîâûé_îáðàçåö_ãðàäèåíòà_1)"/><path d="M1014.55,506c0,268.34-217.64,486-486,486a483.24,483.24,0,0,1-284.83-92.21,517.43,517.43,0,0,0,240.55,59c286.72,0,519.2-232.47,519.2-519.18,0-15.61-.67-31.1-2.11-46.38A485.25,485.25,0,0,1,1014.55,506Z" transform="translate(-42.55 -20)" fill="#fbd69e" style="mix-blend-mode:multiply"/><ellipse cx="294.98" cy="441.7" rx="160.08" ry="165.55" fill="#fff"/><path d="M397.67,461.7a60.15,60.15,0,1,1-60.15-60.14A60.15,60.15,0,0,1,397.67,461.7Z" transform="translate(-42.55 -20)" fill="#87594a"/><ellipse cx="677.02" cy="441.7" rx="160.08" ry="165.55" fill="#fff"/><path d="M659.42,461.7a60.15,60.15,0,1,0,60.15-60.14A60.15,60.15,0,0,0,659.42,461.7Z" transform="translate(-42.55 -20)" fill="#87594a"/><path d="M242.1,248.47A126,126,0,0,1,343.25,226c13.29,2.65,28.23-2.08,33.89-13.89.06-.15.13-.29.19-.44C383,200,372.45,183.3,353,179.25a173.79,173.79,0,0,0-139.49,31c-15.92,11.9-18.44,31.47-8.34,39.67l.36.32C215.63,258.53,231.18,256.49,242.1,248.47Z" transform="translate(-42.55 -20)" fill="#fbd69e" style="mix-blend-mode:multiply"/><path d="M815,248.47A126,126,0,0,0,713.85,226c-13.3,2.65-28.24-2.08-33.9-13.89-.06-.15-.13-.29-.19-.44-5.68-11.71,4.89-28.37,24.35-32.42a173.78,173.78,0,0,1,139.49,31c15.92,11.9,18.44,31.47,8.34,39.67l-.36.32C841.46,258.53,825.91,256.49,815,248.47Z" transform="translate(-42.55 -20)" fill="#fbd69e" style="mix-blend-mode:multiply"/><path d="M618.13,797.74c0,37.75-19,70.58-47,87.37a82.66,82.66,0,0,1-37.94,11.76c-1.54.1-3.07.13-4.61.13s-3.08,0-4.62-.13A82.66,82.66,0,0,1,486,885.11c-28-16.79-47-49.62-47-87.37,0-16,3.42-30,9.49-41.68,14.72-28.48,45.05-43.89,80.09-43.89s65.36,15.41,80.08,43.89C614.7,767.79,618.13,781.74,618.13,797.74Z" transform="translate(-42.55 -20)" fill="#87594a"/></g></g></svg>