<svg xmlns="http://www.w3.org/2000/svg" xmlns:xlink="http://www.w3.org/1999/xlink" viewBox="0 0 966 966"><defs><radialGradient id="Íîâûé_îáðàçåö_ãðàäèåíòà_1" cx="543.08" cy="431.35" r="482.99" gradientTransform="translate(1038.17 -42.23) rotate(89.56)" gradientUnits="userSpaceOnUse"><stop offset="0" stop-color="#fddb35"/><stop offset="0.48" stop-color="#fdd934"/><stop offset="0.66" stop-color="#fcd232"/><stop offset="0.78" stop-color="#fbc72e"/><stop offset="0.88" stop-color="#fab629"/><stop offset="0.96" stop-color="#f8a022"/><stop offset="1" stop-color="#f7941e"/></radialGradient></defs><g style="isolation:isolate"><g id="Layer_1" data-name="Layer 1"><ellipse cx="540.36" cy="501.98" rx="482.98" ry="483" transform="translate(-23.13 1019.46) rotate(-89.56)" fill="url(#Íîâûé_îáðàçåö_ãðàäèåíòà_1)"/><path d="M1023.36,502c0,266.68-216.29,483-483,483A480.22,480.22,0,0,1,257.3,893.36,514.37,514.37,0,0,0,496.37,952c285,0,516-231,516-516,0-15.51-.66-30.91-2.09-46.09A482.54,482.54,0,0,1,1023.36,502Z" transform="translate(-57.36 -19)" fill="#fbd69e" style="mix-blend-mode:multiply"/><path d="M540.36,708.32c-78.36,0-148-23.92-192.63-61.06-5.68-4.74-13.67,2.31-9.69,8.55,34.84,54.63,112.31,92.65,202.32,92.65s167.49-38,202.33-92.65c4-6.24-4-13.29-9.7-8.55C688.42,684.41,618.73,708.32,540.36,708.32Z" transform="translate(-57.36 -19)" fill="#87594a"/><ellipse cx="299.92" cy="394.23" rx="91.06" ry="94.18" fill="#87594a"/><circle cx="299.92" cy="357.72" r="34.21" fill="#fff"/><path d="M814.5,413.23c0,52-40.77,94.17-91.06,94.17s-91.07-42.16-91.07-94.17,40.78-94.18,91.07-94.18S814.5,361.22,814.5,413.23Z" transform="translate(-57.36 -19)" fill="#87594a"/><path d="M757.65,376.72a34.22,34.22,0,1,1-34.21-34.21A34.22,34.22,0,0,1,757.65,376.72Z" transform="translate(-57.36 -19)" fill="#fff"/></g></g></svg>