<svg xmlns="http://www.w3.org/2000/svg" xmlns:xlink="http://www.w3.org/1999/xlink" viewBox="0 0 950.29 950.22"><defs><radialGradient id="radial-gradient" cx="542.76" cy="427.39" r="475.11" gradientUnits="userSpaceOnUse"><stop offset="0" stop-color="#fddb35"/><stop offset="0.48" stop-color="#fdd934"/><stop offset="0.66" stop-color="#fcd232"/><stop offset="0.78" stop-color="#fbc72e"/><stop offset="0.88" stop-color="#fab629"/><stop offset="0.96" stop-color="#f8a022"/><stop offset="1" stop-color="#f7941e"/></radialGradient></defs><g style="isolation:isolate"><g id="Layer_1" data-name="Layer 1"><path d="M1015.21,496.87C1015.21,759.26,802.52,972,540.12,972A475.08,475.08,0,0,1,65,496.87C65,234.47,277.73,21.78,540.12,21.78S1015.21,234.47,1015.21,496.87Z" transform="translate(-64.96 -21.78)" fill="url(#radial-gradient)"/><path d="M1015.24,496.9c0,262.33-212.77,475.1-475.11,475.1a472.4,472.4,0,0,1-278.46-90.15,505.83,505.83,0,0,0,235.17,57.68c280.31,0,507.58-227.26,507.58-507.56,0-15.26-.65-30.41-2.06-45.34A474.11,474.11,0,0,1,1015.24,496.9Z" transform="translate(-64.96 -21.78)" fill="#fbd69e" style="mix-blend-mode:multiply"/><path d="M273.16,297.74a123.17,123.17,0,0,1,94.66-36c13.24.69,27-6,30.83-18.22l.12-.45c3.84-12.13-8.73-26.76-28.13-27.92A169.89,169.89,0,0,0,240.07,264.8c-13.71,13.76-13.38,33-2.45,39.55l.39.26C249,311.21,263.72,307,273.16,297.74Z" transform="translate(-64.96 -21.78)" fill="#fbd69e" style="mix-blend-mode:multiply"/><path d="M807.09,297.74a123.18,123.18,0,0,0-94.67-36c-13.23.69-27-6-30.82-18.22-.05-.15-.09-.31-.13-.45-3.84-12.13,8.74-26.76,28.13-27.92A169.86,169.86,0,0,1,840.17,264.8c13.72,13.76,13.39,33,2.46,39.55l-.39.26C831.28,311.21,816.52,307,807.09,297.74Z" transform="translate(-64.96 -21.78)" fill="#fbd69e" style="mix-blend-mode:multiply"/><ellipse cx="295.07" cy="434.99" rx="89.58" ry="92.64" fill="#87594a"/><path d="M393.68,420.86A33.66,33.66,0,1,1,360,387.2,33.66,33.66,0,0,1,393.68,420.86Z" transform="translate(-64.96 -21.78)" fill="#fff"/><path d="M809.79,456.77c0,51.16-40.11,92.64-89.58,92.64s-89.58-41.48-89.58-92.64,40.1-92.64,89.58-92.64S809.79,405.61,809.79,456.77Z" transform="translate(-64.96 -21.78)" fill="#87594a"/><path d="M753.86,420.86a33.66,33.66,0,1,1-33.65-33.66A33.66,33.66,0,0,1,753.86,420.86Z" transform="translate(-64.96 -21.78)" fill="#fff"/><path d="M530.66,802.05h7.93a728.61,728.61,0,0,1,101.7,7c37.52,5.31,64.79-34.45,46.82-67.82-30.79-57.19-84.51-87-145.65-87H538c-60.51,0-113.76,29.08-144.71,85.27-18.27,33.18,8.67,72.94,46.24,68.21A731.58,731.58,0,0,1,530.66,802.05Z" transform="translate(-64.96 -21.78)" fill="#87594a"/></g></g></svg>