<svg xmlns="http://www.w3.org/2000/svg" xmlns:xlink="http://www.w3.org/1999/xlink" viewBox="0 0 1026.59 963"><defs><radialGradient id="Íîâûé_îáðàçåö_ãðàäèåíòà_1" cx="550.51" cy="419.23" r="481.49" gradientUnits="userSpaceOnUse"><stop offset="0" stop-color="#fddb35"/><stop offset="0.48" stop-color="#fdd934"/><stop offset="0.66" stop-color="#fcd232"/><stop offset="0.78" stop-color="#fbc72e"/><stop offset="0.88" stop-color="#fab629"/><stop offset="0.96" stop-color="#f8a022"/><stop offset="1" stop-color="#f7941e"/></radialGradient><radialGradient id="radial-gradient" cx="817.77" cy="304.8" r="247.29" gradientUnits="userSpaceOnUse"><stop offset="0.01" stop-color="#fbec26"/><stop offset="0.36" stop-color="#fbea26"/><stop offset="0.54" stop-color="#fbe225"/><stop offset="0.67" stop-color="#fad524"/><stop offset="0.79" stop-color="#f9c223"/><stop offset="0.89" stop-color="#f8aa21"/><stop offset="0.98" stop-color="#f78d1f"/><stop offset="1" stop-color="#f7851e"/></radialGradient><radialGradient id="radial-gradient-2" cx="1742.75" cy="304.8" r="247.29" gradientTransform="matrix(-1, 0, 0, 1, 2026, 0)" xlink:href="#radial-gradient"/></defs><g style="isolation:isolate"><g id="Layer_1" data-name="Layer 1"><path d="M1032,500.48C1032,766.4,816.48,982,550.55,982,384,982,237.18,897.37,150.65,768.84A480.36,480.36,0,0,1,69,500.48C69,234.55,284.63,19,550.55,19S1032,234.55,1032,500.48Z" transform="translate(-37.22 -19)" fill="url(#Íîâûé_îáðàçåö_ãðàäèåíòà_1)"/><path d="M1032.06,500.52c0,265.85-215.63,481.48-481.5,481.48a478.78,478.78,0,0,1-282.21-91.36A512.77,512.77,0,0,0,506.69,949.1c284.07,0,514.41-230.33,514.41-514.39,0-15.46-.66-30.82-2.09-46A480.85,480.85,0,0,1,1032.06,500.52Z" transform="translate(-37.22 -19)" fill="#fbd69e" style="mix-blend-mode:multiply"/><g style="mix-blend-mode:multiply"><path d="M1053.12,320.75,931.27,400.68l-3.15,141.88a23.71,23.71,0,0,1-28,26.58.74.74,0,0,0-.28,0,23.76,23.76,0,0,1-10.31-4.78L775.88,473.13l-139.53,42a23.68,23.68,0,0,1-29-31.07L659,347.74,576,228a23.69,23.69,0,0,1,20.59-37.15l145.55,7L830.33,81.83A23.69,23.69,0,0,1,872,89.94l38.37,140.57L1048,278.6a23.68,23.68,0,0,1,5.17,42.15Z" transform="translate(-37.22 -19)" fill="#fbd69e"/><path d="M47.9,320.75l121.85,79.93,3.15,141.88a23.71,23.71,0,0,0,28,26.58.76.76,0,0,1,.29,0,23.78,23.78,0,0,0,10.3-4.78l113.66-91.18,139.53,42a23.68,23.68,0,0,0,29-31.07L442.05,347.74l83-119.77a23.69,23.69,0,0,0-20.59-37.15l-145.55,7L270.69,81.83A23.69,23.69,0,0,0,229,89.94L190.63,230.51,53.07,278.6a23.68,23.68,0,0,0-5.17,42.15Z" transform="translate(-37.22 -19)" fill="#fbd69e"/></g><path d="M1053.12,304.5,931.27,384.43l-3.15,141.88a23.71,23.71,0,0,1-28,26.58.74.74,0,0,0-.28,0,23.65,23.65,0,0,1-10.31-4.78L775.88,456.88,636.35,498.83a23.68,23.68,0,0,1-29-31.07L659,331.49,576,211.72a23.69,23.69,0,0,1,20.59-37.15l145.55,7L830.33,65.58A23.69,23.69,0,0,1,872,73.69l38.37,140.57L1048,262.35a23.68,23.68,0,0,1,5.17,42.15Z" transform="translate(-37.22 -19)" fill="url(#radial-gradient)"/><path d="M47.9,304.5l121.85,79.93,3.15,141.88a23.71,23.71,0,0,0,28,26.58.76.76,0,0,1,.29,0,23.67,23.67,0,0,0,10.3-4.78l113.66-91.18,139.53,41.95a23.68,23.68,0,0,0,29-31.07L442.05,331.49l83-119.77a23.69,23.69,0,0,0-20.59-37.15l-145.55,7L270.69,65.58A23.69,23.69,0,0,0,229,73.69L190.63,214.26,53.07,262.35A23.68,23.68,0,0,0,47.9,304.5Z" transform="translate(-37.22 -19)" fill="url(#radial-gradient-2)"/><path d="M859.67,626.36a301.92,301.92,0,0,1-19.22,79.16C795.78,820.3,684.18,901.59,553.6,901.59h-6.23c-130.52,0-242.11-81.29-286.78-196a306.32,306.32,0,0,1-19.22-79.23,18.56,18.56,0,0,1,25.45-19.07c99.44,39.28,256.54,43.61,283.66,43.61s184.3-4.33,283.74-43.61A18.56,18.56,0,0,1,859.67,626.36Z" transform="translate(-37.22 -19)" fill="#87594a"/><path d="M859.64,626.39a302.12,302.12,0,0,1-19.17,79.13c-80.93,34.45-179.15,54.6-284.94,54.6H545.38c-105.71,0-203.86-20.15-284.78-54.52a307.23,307.23,0,0,1-19.26-79.21,18.62,18.62,0,0,1,25.52-19.1c99.36,39.25,256.5,43.63,283.63,43.63s184.28-4.38,283.72-43.63A18.54,18.54,0,0,1,859.64,626.39Z" transform="translate(-37.22 -19)" fill="#fff"/><path d="M266.82,621.92c99.44,39.27,256.54,43.6,283.66,43.6s184.3-4.33,283.74-43.6a18.52,18.52,0,0,1,24.49,11.36c.29-2.31.71-4.59,1-6.92a18.56,18.56,0,0,0-25.45-19.07C734.78,646.57,577.6,650.9,550.48,650.9s-184.22-4.33-283.66-43.61a18.56,18.56,0,0,0-25.45,19.07c.24,2.33.67,4.6,1,6.92A18.52,18.52,0,0,1,266.82,621.92Z" transform="translate(-37.22 -19)" fill="#87594a"/><path d="M840.47,705.52C795.78,820.33,684.15,901.57,553.58,901.57h-6.17c-130.57,0-242.12-81.24-286.81-196,80.92,34.37,179.07,54.52,284.78,54.52h10.15C661.32,760.12,759.54,740,840.47,705.52Z" transform="translate(-37.22 -19)" fill="#fff"/><path d="M545.38,776.37h10.15c102.12,0,197.15-18.82,276.42-51.11,3-6.46,5.91-13,8.52-19.74-80.93,34.45-179.15,54.6-284.94,54.6H545.38c-105.71,0-203.86-20.15-284.78-54.52,2.61,6.7,5.47,13.27,8.52,19.73C348.38,757.55,443.33,776.37,545.38,776.37Z" transform="translate(-37.22 -19)" fill="#87594a"/></g></g></svg>