<svg xmlns="http://www.w3.org/2000/svg" xmlns:xlink="http://www.w3.org/1999/xlink" viewBox="0 0 983.48 958"><defs><radialGradient id="Íîâûé_îáðàçåö_ãðàäèåíòà_1" cx="533.91" cy="448.9" r="469.4" gradientUnits="userSpaceOnUse"><stop offset="0" stop-color="#fddb35"/><stop offset="0.48" stop-color="#fdd934"/><stop offset="0.66" stop-color="#fcd232"/><stop offset="0.78" stop-color="#fbc72e"/><stop offset="0.88" stop-color="#fab629"/><stop offset="0.96" stop-color="#f8a022"/><stop offset="1" stop-color="#f7941e"/></radialGradient><radialGradient id="radial-gradient" cx="531.27" cy="14079.92" r="572.87" gradientTransform="translate(0 -4900.79) scale(1 0.36)" gradientUnits="userSpaceOnUse"><stop offset="0" stop-color="#2abef8"/><stop offset="0.3" stop-color="#2cacec"/><stop offset="0.71" stop-color="#2d99e0"/><stop offset="1" stop-color="#2e92db"/></radialGradient></defs><g style="isolation:isolate"><g id="Layer_1" data-name="Layer 1"><path d="M1000.69,517.55c0,259.24-210.14,469.38-469.38,469.38S61.85,776.79,61.85,517.55A469.09,469.09,0,0,1,853,175.85a460.52,460.52,0,0,1,68.28,80.39A466.72,466.72,0,0,1,1000.69,517.55Z" transform="translate(-39.53 -29)" fill="url(#Íîâûé_îáðàçåö_ãðàäèåíòà_1)"/><path d="M1000.69,517.61c0,259.18-210.21,469.39-469.4,469.39a466.73,466.73,0,0,1-275.12-89.07,499.76,499.76,0,0,0,232.35,57C765.46,954.92,990,730.39,990,453.46c0-15.08-.64-30-2-44.8A468.9,468.9,0,0,1,1000.69,517.61Z" transform="translate(-39.53 -29)" fill="#fbd69e" style="mix-blend-mode:multiply"/><path d="M531.27,753.57c-75.21,0-143.82-23.4-195.91-61.9-17.05-12.6-38.64,8.4-26.45,25.74,47.24,67.25,129.19,111.72,222.36,111.72s175.12-44.47,222.37-111.72c12.19-17.34-9.4-38.34-26.45-25.74C675.1,730.17,606.49,753.57,531.27,753.57Z" transform="translate(-39.53 -29)" fill="#87594a"/><path d="M671.51,520.11H673c19.87,0,37.83,12.17,50.87,31.82,3.93,5.92,11.28,2.55,11.28-5.31V504.54c0-60.21-27.87-109-62.25-109h-1.26c-34.38,0-62.25,48.81-62.25,109v42.08c0,7.86,7.35,11.23,11.28,5.31C633.68,532.28,651.64,520.11,671.51,520.11Z" transform="translate(-39.53 -29)" fill="#87594a"/><path d="M389.58,520.11H391c19.87,0,37.83,12.17,50.87,31.82,3.93,5.92,11.28,2.55,11.28-5.31V504.54c0-60.21-27.87-109-62.25-109h-1.26c-34.38,0-62.25,48.81-62.25,109v42.08c0,7.86,7.35,11.23,11.28,5.31C351.75,532.28,369.71,520.11,389.58,520.11Z" transform="translate(-39.53 -29)" fill="#87594a"/><path d="M853,175.85c-36.59,34-166.73,59.09-321.65,59.09s-285.15-25.11-321.74-59.09a464.34,464.34,0,0,0-68.28,80.31c89.9,31.29,231.13,51.41,390,51.41s300-20.12,389.93-51.33A460.52,460.52,0,0,0,853,175.85Z" transform="translate(-39.53 -29)" fill="#fbd69e" style="mix-blend-mode:multiply"/><path d="M531.27,29C259.69,29,39.53,87.81,39.53,160.35S259.69,291.7,531.27,291.7,1023,232.89,1023,160.35,802.86,29,531.27,29Zm0,190.1c-183.36,0-332-35.17-332-78.55S347.91,62,531.27,62s332,35.17,332,78.55S714.64,219.1,531.27,219.1Z" transform="translate(-39.53 -29)" fill="url(#radial-gradient)"/></g></g></svg>