<svg xmlns="http://www.w3.org/2000/svg" xmlns:xlink="http://www.w3.org/1999/xlink" viewBox="0 0 963 963"><defs><radialGradient id="Íîâûé_îáðàçåö_ãðàäèåíòà_1" cx="486.91" cy="397.53" r="481.49" gradientUnits="userSpaceOnUse"><stop offset="0" stop-color="#fddb35"/><stop offset="0.48" stop-color="#fdd934"/><stop offset="0.66" stop-color="#fcd232"/><stop offset="0.78" stop-color="#fbc72e"/><stop offset="0.88" stop-color="#fab629"/><stop offset="0.96" stop-color="#f8a022"/><stop offset="1" stop-color="#f7941e"/></radialGradient></defs><g style="isolation:isolate"><g id="Layer_1" data-name="Layer 1"><ellipse cx="481.5" cy="481.48" rx="481.5" ry="481.48" fill="url(#Íîâûé_îáðàçåö_ãðàäèåíòà_1)"/><path d="M1007.85,504.7c0,265.85-215.62,481.47-481.48,481.47a478.75,478.75,0,0,1-282.2-91.36A512.7,512.7,0,0,0,482.5,953.27c284.06,0,514.39-230.31,514.39-514.37,0-15.46-.66-30.82-2.09-45.95A480.68,480.68,0,0,1,1007.85,504.7Z" transform="translate(-44.85 -23.17)" fill="#fbd69e" style="mix-blend-mode:multiply"/><path d="M286.18,389a124.81,124.81,0,0,0-98.4,29.2c-10.24,8.69-25.46,11.78-36,4.28l-.38-.29c-10.55-7.41-9.42-26.92,5.49-39.79a172.17,172.17,0,0,1,135.72-40.28c19.52,2.65,31.11,18.39,26.31,30.35-.06.15-.11.3-.16.45C314,385,299.5,390.67,286.18,389Z" transform="translate(-44.85 -23.17)" fill="#fbd69e" style="mix-blend-mode:multiply"/><path d="M803.69,394.64A124.86,124.86,0,0,1,896.25,439c8.73,10.2,23.28,15.65,34.91,9.91l.42-.23c11.59-5.65,13.55-25.09.86-40.15a172.2,172.2,0,0,0-127.66-61.21c-19.69-.46-33.62,13.25-30.77,25.82l.09.47C776.9,386.29,790.26,394.21,803.69,394.64Z" transform="translate(-44.85 -23.17)" fill="#fbd69e" style="mix-blend-mode:multiply"/><path d="M803.45,480.22c-28.43-.51-104.6,1.52-152.84,50.27-14.73,16.25,12.19,13.71,26.91,12.19,13.34-1.38,62.46-4.61,78.2,14.5a51.79,51.79,0,0,0,3.83,6.58s0,0,0,.08c1.68,5.06,4.13,7.49,7,8.16a53.3,53.3,0,1,0,36.86-91.78Z" transform="translate(-44.85 -23.17)" fill="#87594a"/><path d="M353.05,480.22c-28.44-.51-104.6,1.52-152.84,50.27-14.73,16.25,12.18,13.71,26.91,12.19,13.33-1.38,62.46-4.61,78.19,14.5a53.08,53.08,0,0,0,3.84,6.58s0,0,0,.08c1.68,5.06,4.13,7.49,7,8.16a53.3,53.3,0,1,0,36.87-91.78Z" transform="translate(-44.85 -23.17)" fill="#87594a"/><path d="M741.23,655c-8.39,0-16.36,4.65-19.72,12.34-15.47,35.41-61.14,62.95-150.23,86.35-51.56,13.53-106,11.61-154.38.33-18.2-4.25-26.5,22.06-9,28.75,57.75,22.14,131,31.33,199.32,13.39C722.29,765.93,765,728.8,763.58,676.68a22.12,22.12,0,0,0-22-21.68Z" transform="translate(-44.85 -23.17)" fill="#87594a"/></g></g></svg>