<svg xmlns="http://www.w3.org/2000/svg" xmlns:xlink="http://www.w3.org/1999/xlink" viewBox="0 0 984.29 984.22"><defs><radialGradient id="Íîâûé_îáðàçåö_ãðàäèåíòà_1" cx="542.93" cy="431.9" r="492.11" gradientUnits="userSpaceOnUse"><stop offset="0" stop-color="#fddb35"/><stop offset="0.48" stop-color="#fdd934"/><stop offset="0.66" stop-color="#fcd232"/><stop offset="0.78" stop-color="#fbc72e"/><stop offset="0.88" stop-color="#fab629"/><stop offset="0.96" stop-color="#f8a022"/><stop offset="1" stop-color="#f7941e"/></radialGradient></defs><g style="isolation:isolate"><g id="Layer_1" data-name="Layer 1"><path d="M1032.29,503.87C1032.29,775.65,812,996,540.21,996A492.1,492.1,0,0,1,48,503.87C48,232.08,268.42,11.78,540.21,11.78S1032.29,232.08,1032.29,503.87Z" transform="translate(-48.04 -11.78)" fill="url(#Íîâûé_îáðàçåö_ãðàäèåíòà_1)"/><path d="M1032.33,503.9c0,271.72-220.39,492.1-492.12,492.1a489.35,489.35,0,0,1-288.42-93.37,524,524,0,0,0,243.59,59.74c290.33,0,525.74-235.4,525.74-525.72,0-15.81-.68-31.5-2.13-47A491.86,491.86,0,0,1,1032.33,503.9Z" transform="translate(-48.04 -11.78)" fill="#fbd69e" style="mix-blend-mode:multiply"/><path d="M538.52,802.49h3.36c40.42,0,77.46,12.24,106.27,32.58,5.61,4,13.51-.9,11.5-7.14-17.49-54.24-63.8-93-118.18-93h-2.54c-54.39,0-100.69,38.77-118.19,93-2,6.24,5.89,11.1,11.5,7.14C461.05,814.73,498.1,802.49,538.52,802.49Z" transform="translate(-48.04 -11.78)" fill="#87594a"/><path d="M353.11,393.62a127.6,127.6,0,0,1,89.07,55.44c7.73,11.34,21.9,18.51,34.36,14l.44-.18c12.41-4.45,16.58-24,5.37-40.7a176,176,0,0,0-122.84-76.47c-19.95-2.67-35.63,9.69-34.14,22.79l0,.48C326.84,382.14,339.52,391.68,353.11,393.62Z" transform="translate(-48.04 -11.78)" fill="#fbd69e" style="mix-blend-mode:multiply"/><path d="M727.3,393.62a127.6,127.6,0,0,0-89.06,55.44c-7.74,11.34-21.9,18.51-34.36,14l-.45-.18c-12.41-4.45-16.58-24-5.37-40.7A176,176,0,0,1,720.9,345.69c20-2.67,35.64,9.69,34.15,22.79,0,.16,0,.32,0,.48C753.58,382.14,740.89,391.68,727.3,393.62Z" transform="translate(-48.04 -11.78)" fill="#fbd69e" style="mix-blend-mode:multiply"/><ellipse cx="338.65" cy="525.29" rx="76.36" ry="78.97" fill="#87594a"/><path d="M415.38,506.46a28.69,28.69,0,1,1-28.69-28.69A28.7,28.7,0,0,1,415.38,506.46Z" transform="translate(-48.04 -11.78)" fill="#fff"/><ellipse cx="645.67" cy="525.29" rx="76.36" ry="78.97" fill="#87594a"/><path d="M722.39,506.46a28.69,28.69,0,1,1-28.68-28.69A28.69,28.69,0,0,1,722.39,506.46Z" transform="translate(-48.04 -11.78)" fill="#fff"/></g></g></svg>