<svg xmlns="http://www.w3.org/2000/svg" xmlns:xlink="http://www.w3.org/1999/xlink" viewBox="0 0 1025 1025"><defs><radialGradient id="Íîâûé_îáðàçåö_ãðàäèåíòà_1" cx="518.98" cy="443.3" r="512.49" gradientUnits="userSpaceOnUse"><stop offset="0" stop-color="#fddb35"/><stop offset="0.48" stop-color="#fdd934"/><stop offset="0.66" stop-color="#fcd232"/><stop offset="0.78" stop-color="#fbc72e"/><stop offset="0.88" stop-color="#fab629"/><stop offset="0.96" stop-color="#f8a022"/><stop offset="1" stop-color="#f7941e"/></radialGradient></defs><g style="isolation:isolate"><g id="Layer_1" data-name="Layer 1"><ellipse cx="512.5" cy="512.48" rx="512.5" ry="512.48" fill="url(#Íîâûé_îáðàçåö_ãðàäèåíòà_1)"/><path d="M1053.22,550.53c0,283-229.51,512.47-512.48,512.47a509.54,509.54,0,0,1-300.37-97.24A545.71,545.71,0,0,0,494,1028c302.35,0,547.51-245.14,547.51-547.49,0-16.46-.71-32.8-2.22-48.91A512.27,512.27,0,0,1,1053.22,550.53Z" transform="translate(-28.22 -38)" fill="#fbd69e" style="mix-blend-mode:multiply"/><path d="M362.49,347.06a132.86,132.86,0,0,0-104.74,31.09c-10.9,9.25-27.1,12.53-38.36,4.54l-.4-.3c-11.23-7.89-10-28.66,5.84-42.35a183.25,183.25,0,0,1,144.46-42.87c20.77,2.82,33.11,19.56,28,32.3l-.17.48C392,342.78,376.67,348.87,362.49,347.06Z" transform="translate(-28.22 -38)" fill="#fbd69e" style="mix-blend-mode:multiply"/><path d="M719,347.06a132.86,132.86,0,0,1,104.74,31.09c10.9,9.25,27.1,12.53,38.36,4.54l.4-.3c11.23-7.89,10-28.66-5.84-42.35a183.25,183.25,0,0,0-144.46-42.87c-20.77,2.82-33.11,19.56-28,32.3l.17.48C689.4,342.78,704.77,348.87,719,347.06Z" transform="translate(-28.22 -38)" fill="#fbd69e" style="mix-blend-mode:multiply"/><path d="M869.77,672.68a321.45,321.45,0,0,1-20.46,84.26C801.77,879.11,683,965.62,544,965.62h-6.63c-138.91,0-257.69-86.51-305.23-208.6a326,326,0,0,1-20.46-84.34,19.75,19.75,0,0,1,27.09-20.29c105.84,41.8,273,46.41,301.91,46.41s196.16-4.61,302-46.41A19.75,19.75,0,0,1,869.77,672.68Z" transform="translate(-28.22 -38)" fill="#87594a"/><path d="M869.74,672.71a321.74,321.74,0,0,1-20.41,84.23c-86.13,36.67-190.68,58.11-303.27,58.11H535.25c-112.5,0-217-21.44-303.1-58a326.6,326.6,0,0,1-20.49-84.32,19.81,19.81,0,0,1,27.15-20.32c105.76,41.77,273,46.44,301.89,46.44s196.13-4.67,302-46.44A19.73,19.73,0,0,1,869.74,672.71Z" transform="translate(-28.22 -38)" fill="#fff"/><path d="M238.77,668c105.84,41.8,273,46.41,301.91,46.41s196.16-4.61,302-46.41a19.72,19.72,0,0,1,26.07,12.09c.31-2.46.76-4.88,1-7.37a19.75,19.75,0,0,0-27.09-20.29c-105.84,41.8-273.13,46.41-302,46.41s-196.07-4.61-301.91-46.41a19.75,19.75,0,0,0-27.09,20.29c.26,2.48.71,4.9,1,7.37A19.71,19.71,0,0,1,238.77,668Z" transform="translate(-28.22 -38)" fill="#87594a"/><path d="M849.33,756.94C801.77,879.13,683,965.61,544,965.61h-6.57c-139,0-257.7-86.48-305.26-208.58,86.13,36.58,190.6,58,303.1,58h10.81C658.65,815.05,763.2,793.61,849.33,756.94Z" transform="translate(-28.22 -38)" fill="#fff"/><path d="M535.25,832.35h10.81c108.69,0,209.84-20,294.2-54.4,3.25-6.88,6.3-13.88,9.07-21-86.13,36.67-190.68,58.11-303.27,58.11H535.25c-112.5,0-217-21.44-303.1-58q4.17,10.69,9.07,21C325.58,812.32,426.64,832.35,535.25,832.35Z" transform="translate(-28.22 -38)" fill="#87594a"/><path d="M456.53,548.49c-9.38,2.21-19.37.5-28.38-4.33-26.58-14.26-58.89-5.4-65.41-4.33s-40,3.07-60.56,25.13c-7,7.48-15.9,12.31-25.49,13.22s-19.25-2-22-15.14A27.2,27.2,0,0,1,257,545.45c19.27-38.32,52.38-65.93,93.26-72.68l2.77-.45c40.92-6.76,81.2,8.79,111.77,38.93a27,27,0,0,1,7.87,16C474.1,540.45,465.84,546.3,456.53,548.49Z" transform="translate(-28.22 -38)" fill="#87594a"/><path d="M625.59,548.49C635,550.7,645,549,654,544.16c26.59-14.26,58.9-5.4,65.41-4.33s40,3.07,60.56,25.13c7,7.48,15.9,12.31,25.49,13.22s19.25-2,22-15.14a27.13,27.13,0,0,0-2.33-17.59c-19.27-38.32-52.38-65.93-93.26-72.68l-2.77-.45c-40.92-6.76-81.2,8.79-111.77,38.93a27,27,0,0,0-7.86,16C608,540.45,616.27,546.3,625.59,548.49Z" transform="translate(-28.22 -38)" fill="#87594a"/></g></g></svg>