<svg xmlns="http://www.w3.org/2000/svg" xmlns:xlink="http://www.w3.org/1999/xlink" viewBox="0 0 998.37 998.3"><defs><radialGradient id="Íîâûé_îáðàçåö_ãðàäèåíòà_1" cx="544.97" cy="454.15" r="499.14" gradientUnits="userSpaceOnUse"><stop offset="0" stop-color="#fddb35"/><stop offset="0.48" stop-color="#fdd934"/><stop offset="0.66" stop-color="#fcd232"/><stop offset="0.78" stop-color="#fbc72e"/><stop offset="0.88" stop-color="#fab629"/><stop offset="0.96" stop-color="#f8a022"/><stop offset="1" stop-color="#f7941e"/></radialGradient><linearGradient id="linear-gradient" x1="130.77" y1="739.75" x2="368.55" y2="739.75" gradientUnits="userSpaceOnUse"><stop offset="0" stop-color="#2e92db"/><stop offset="0.04" stop-color="#2d99df"/><stop offset="0.2" stop-color="#2caded"/><stop offset="0.35" stop-color="#2abaf5"/><stop offset="0.5" stop-color="#2abef8"/><stop offset="0.65" stop-color="#2abaf5"/><stop offset="0.8" stop-color="#2caded"/><stop offset="0.96" stop-color="#2d98df"/><stop offset="1" stop-color="#2e92db"/></linearGradient></defs><g style="isolation:isolate"><g id="Layer_1" data-name="Layer 1"><path d="M1041.33,527.14c0,275.67-223.45,499.13-499.12,499.13A499.15,499.15,0,0,1,43,527.14C43,251.47,266.54,28,542.21,28S1041.33,251.47,1041.33,527.14Z" transform="translate(-43 -28.02)" fill="url(#Íîâûé_îáðàçåö_ãðàäèåíòà_1)"/><path d="M1041.37,527.18c0,275.61-223.54,499.13-499.15,499.13A496.34,496.34,0,0,1,249.66,931.6a531.51,531.51,0,0,0,247.08,60.61C791.22,992.21,1030,753.44,1030,459c0-16-.69-31.95-2.16-47.64A499.14,499.14,0,0,1,1041.37,527.18Z" transform="translate(-43 -28.02)" fill="#fbd69e" style="mix-blend-mode:multiply"/><path d="M355.72,282a129.41,129.41,0,0,1-99.1,38.76c-13.91-.59-28.33,6.57-32.21,19.45,0,.15-.09.31-.13.47-3.91,12.78,9.44,28,29.82,29.06a178.48,178.48,0,0,0,136.69-53.45c14.28-14.59,13.75-34.85,2.2-41.58l-.41-.26C381,267.6,365.54,272.12,355.72,282Z" transform="translate(-43 -28.02)" fill="#fbd69e" style="mix-blend-mode:multiply"/><path d="M728.7,282a129.4,129.4,0,0,0,99.1,38.76c13.91-.59,28.33,6.57,32.21,19.45l.12.47c3.92,12.78-9.43,28-29.82,29.06a178.5,178.5,0,0,1-136.69-53.45c-14.27-14.59-13.74-34.85-2.2-41.58l.42-.26C703.42,267.6,718.88,272.12,728.7,282Z" transform="translate(-43 -28.02)" fill="#fbd69e" style="mix-blend-mode:multiply"/><ellipse cx="347.9" cy="470.02" rx="83.25" ry="86.1" fill="#87594a"/><path d="M422.18,464.66a31.28,31.28,0,1,1-31.28-31.27A31.28,31.28,0,0,1,422.18,464.66Z" transform="translate(-43 -28.02)" fill="#fff"/><ellipse cx="650.52" cy="470.02" rx="83.25" ry="86.1" fill="#87594a"/><path d="M662.24,464.66a31.28,31.28,0,1,0,31.28-31.27A31.28,31.28,0,0,0,662.24,464.66Z" transform="translate(-43 -28.02)" fill="#fff"/><g style="mix-blend-mode:multiply"><path d="M327,900.35a126.34,126.34,0,0,1-79,30.07A500,500,0,0,1,130.76,809.8c-.33-41.6,18.79-92,71.76-149.75,22.75-24.09,36.73-58,42.62-74.62a3.94,3.94,0,0,1,7.33-.26c6.82,16.34,22,49.28,40.6,70.92C318.5,685.82,426.9,804.75,327,900.35Z" transform="translate(-43 -28.02)" fill="#fbd69e"/></g><path d="M202.51,643.25c22.74-24.12,36.73-58,42.66-74.7a3.89,3.89,0,0,1,7.26-.2c6.87,16.28,22.05,49.22,40.65,70.89C318.53,669,426.88,788,327,883.51,274,928.12,197.5,921.76,159.24,872.88S109,745.23,202.51,643.25Z" transform="translate(-43 -28.02)" fill="url(#linear-gradient)"/><path d="M542.17,854.89a871.49,871.49,0,0,1,107.41,6.51c44.89,5.59,63.79-55.85,23.27-76-36.48-18.11-81.7-28.83-130.68-28.83S448,767.33,411.48,785.44c-40.51,20.11-21.61,81.55,23.27,76A871.65,871.65,0,0,1,542.17,854.89Z" transform="translate(-43 -28.02)" fill="#87594a"/></g></g></svg>