<svg xmlns="http://www.w3.org/2000/svg" xmlns:xlink="http://www.w3.org/1999/xlink" viewBox="0 0 1010 1010"><defs><radialGradient id="Íîâûé_îáðàçåö_ãðàäèåíòà_1" cx="537.99" cy="449.09" r="504.99" gradientTransform="translate(1082.45 -10.48) rotate(89.58)" gradientUnits="userSpaceOnUse"><stop offset="0" stop-color="#fddb35"/><stop offset="0.48" stop-color="#fdd934"/><stop offset="0.66" stop-color="#fcd232"/><stop offset="0.78" stop-color="#fbc72e"/><stop offset="0.88" stop-color="#fab629"/><stop offset="0.96" stop-color="#f8a022"/><stop offset="1" stop-color="#f7941e"/></radialGradient></defs><g style="isolation:isolate"><g id="Layer_1" data-name="Layer 1"><ellipse cx="546.51" cy="539.98" rx="504.98" ry="505" transform="translate(-38.99 1047.5) rotate(-89.58)" fill="url(#Íîâûé_îáðàçåö_ãðàäèåíòà_1)"/><path d="M1051.51,540c0,278.83-226.15,505-505,505a502.11,502.11,0,0,1-296-95.82,537.73,537.73,0,0,0,250,61.31c297.93,0,539.5-241.55,539.5-539.47,0-16.22-.69-32.33-2.19-48.2A504.67,504.67,0,0,1,1051.51,540Z" transform="translate(-41.51 -35)" fill="#fbd69e" style="mix-blend-mode:multiply"/><path d="M785.38,850.52c1.23,43.33-21.34,65.32-47.94,63.84a49.72,49.72,0,0,1-10.71-1.82c-11.94-3.37-24.21-11.28-35.09-23.88-39.12-45.3-95.71-38.8-145.13-38.8s-106.08-6.5-145.21,38.8c-10.87,12.6-23.14,20.51-35.09,23.88a55.21,55.21,0,0,1-10.62,1.82c-26.69,1.56-49.34-20.43-47.94-63.84.74-28.41,7.5-53,18.29-74.21,46-90.52,166.3-120,220.57-120s174.62,29.49,220.58,120C777.88,797.56,784.64,822.11,785.38,850.52Z" transform="translate(-41.51 -35)" fill="#87594a"/><path d="M737.44,914.36a49.72,49.72,0,0,1-10.71-1.82c-11.94-3.37-24.21-11.28-35.09-23.88-39.12-45.3-95.71-38.8-145.13-38.8s-106.08-6.5-145.21,38.8c-10.87,12.6-23.14,20.51-35.09,23.88a55.21,55.21,0,0,1-10.62,1.82c32.86-72.65,105.92-100.9,190.92-100.9S704.58,841.71,737.44,914.36Z" transform="translate(-41.51 -35)" fill="#ee6571"/><path d="M755,756.2c-5,2.15-10.16,4.28-15.45,6.29a462.63,462.63,0,0,0-386.16,0c-5.28-2-10.43-4.14-15.45-6.29,52.32-74.84,158.5-99.89,208.53-99.89S702.72,681.36,755,756.2Z" transform="translate(-41.51 -35)" fill="#fff"/><path d="M392.87,263.84a131,131,0,0,1-92.95,54.32c-14,1.6-27.28,11-29.13,24.5,0,.17,0,.33-.05.5-1.91,13.39,13.83,26.52,34.37,24.35a180.6,180.6,0,0,0,128.2-74.92c12-16.83,8.25-37-4.34-41.9l-.46-.2C415.86,245.49,401.13,252.44,392.87,263.84Z" transform="translate(-41.51 -35)" fill="#fbd69e" style="mix-blend-mode:multiply"/><path d="M700.15,263.84a130.94,130.94,0,0,0,93,54.32c14,1.6,27.28,11,29.12,24.5l.06.5c1.9,13.39-13.84,26.52-34.38,24.35a180.6,180.6,0,0,1-128.2-74.92c-12-16.83-8.25-37,4.35-41.9l.45-.2C677.15,245.49,691.89,252.44,700.15,263.84Z" transform="translate(-41.51 -35)" fill="#fbd69e" style="mix-blend-mode:multiply"/><path d="M356.88,472.79c-37,13-74.35,13.73-105.09,4.36-8-2.45-14.54,6.76-9.78,13.66,28.74,41.73,84.24,60.45,136.09,42.17s83.34-67.69,79.54-118.21c-.62-8.36-11.48-11.44-16.19-4.5C423.39,436.85,393.84,459.75,356.88,472.79Z" transform="translate(-41.51 -35)" fill="#87594a"/><path d="M736.14,472.79c37,13,74.34,13.73,105.08,4.36,8-2.45,14.54,6.76,9.78,13.66-28.73,41.73-84.24,60.45-136.09,42.17s-83.34-67.69-79.54-118.21c.63-8.36,11.48-11.44,16.19-4.5C669.62,436.85,699.17,459.75,736.14,472.79Z" transform="translate(-41.51 -35)" fill="#87594a"/></g></g></svg>