<svg xmlns="http://www.w3.org/2000/svg" xmlns:xlink="http://www.w3.org/1999/xlink" viewBox="0 0 1039 1039"><defs><radialGradient id="Íîâûé_îáðàçåö_ãðàäèåíòà_1" cx="547.75" cy="463.51" r="519.49" gradientTransform="translate(4.16 -4.17) rotate(0.44)" gradientUnits="userSpaceOnUse"><stop offset="0" stop-color="#fddb35"/><stop offset="0.48" stop-color="#fdd934"/><stop offset="0.66" stop-color="#fcd232"/><stop offset="0.78" stop-color="#fbc72e"/><stop offset="0.88" stop-color="#fab629"/><stop offset="0.96" stop-color="#f8a022"/><stop offset="1" stop-color="#f7941e"/></radialGradient></defs><g style="isolation:isolate"><g id="Layer_1" data-name="Layer 1"><ellipse cx="544.82" cy="539.48" rx="519.5" ry="519.48" transform="translate(-29.46 -15.8) rotate(-0.44)" fill="url(#Íîâûé_îáðàçåö_ãðàäèåíòà_1)"/><path d="M1064.32,539.53c0,286.84-232.64,519.47-519.48,519.47a516.52,516.52,0,0,1-304.47-98.57,553.1,553.1,0,0,0,257.14,63.07c306.48,0,555-248.49,555-555,0-16.69-.71-33.25-2.25-49.58A518.91,518.91,0,0,1,1064.32,539.53Z" transform="translate(-25.32 -20)" fill="#fbd69e" style="mix-blend-mode:multiply"/><path d="M314.77,378.7a134.7,134.7,0,0,0-105.59,33.41c-10.87,9.57-27.23,13.2-38.79,5.3l-.41-.3c-11.53-7.79-10.68-28.86,5.15-43A185.8,185.8,0,0,1,320.76,328c21.1,2.49,33.91,19.23,29,32.23-.05.17-.1.33-.16.49C344.65,373.83,329.18,380.28,314.77,378.7Z" transform="translate(-25.32 -20)" fill="#fbd69e" style="mix-blend-mode:multiply"/><path d="M774.87,378.7a134.69,134.69,0,0,1,105.59,33.41c10.88,9.57,27.24,13.2,38.8,5.3l.41-.3c11.52-7.79,10.68-28.86-5.16-43A185.8,185.8,0,0,0,768.88,328c-21.1,2.49-33.91,19.23-29,32.23.05.17.11.33.16.49C745,373.83,760.47,380.28,774.87,378.7Z" transform="translate(-25.32 -20)" fill="#fbd69e" style="mix-blend-mode:multiply"/><path d="M547,779.9H542.7c-51.18,0-98.08-16.82-134.55-44.79-7.11-5.44-17.11,1.24-14.56,9.82C415.74,819.5,474.36,872.8,543.22,872.8h3.21c68.86,0,127.48-53.3,149.63-127.87,2.54-8.58-7.46-15.26-14.56-9.82C645,763.08,598.12,779.9,547,779.9Z" transform="translate(-25.32 -20)" fill="#87594a"/><path d="M338.63,536.42c-47.88,0-91.23-14.38-122.83-37.66-8.25-6.08-19.5,1.88-16.82,11.76,16.15,59.75,72.49,103.87,139.65,103.87s123.51-44.12,139.66-103.87c2.67-9.88-8.58-17.84-16.82-11.76C429.86,522,386.51,536.42,338.63,536.42Z" transform="translate(-25.32 -20)" fill="#87594a"/><path d="M751,536.42c47.88,0,91.24-14.38,122.84-37.66,8.24-6.08,19.49,1.88,16.82,11.76C874.52,570.27,818.18,614.39,751,614.39s-123.5-44.12-139.65-103.87c-2.67-9.88,8.58-17.84,16.82-11.76C659.78,522,703.14,536.42,751,536.42Z" transform="translate(-25.32 -20)" fill="#87594a"/></g></g></svg>