<svg xmlns="http://www.w3.org/2000/svg" xmlns:xlink="http://www.w3.org/1999/xlink" viewBox="0 0 1016.25 1016.18"><defs><radialGradient id="Íîâûé_îáðàçåö_ãðàäèåíòà_1" cx="532.97" cy="465.58" r="508.09" gradientUnits="userSpaceOnUse"><stop offset="0" stop-color="#fddb35"/><stop offset="0.48" stop-color="#fdd934"/><stop offset="0.66" stop-color="#fcd232"/><stop offset="0.78" stop-color="#fbc72e"/><stop offset="0.88" stop-color="#fab629"/><stop offset="0.96" stop-color="#f8a022"/><stop offset="1" stop-color="#f7941e"/></radialGradient><linearGradient id="linear-gradient" x1="111.34" y1="756.3" x2="353.39" y2="756.3" gradientUnits="userSpaceOnUse"><stop offset="0" stop-color="#2e92db"/><stop offset="0.04" stop-color="#2d99df"/><stop offset="0.2" stop-color="#2caded"/><stop offset="0.35" stop-color="#2abaf5"/><stop offset="0.5" stop-color="#2abef8"/><stop offset="0.65" stop-color="#2abaf5"/><stop offset="0.8" stop-color="#2caded"/><stop offset="0.96" stop-color="#2d98df"/><stop offset="1" stop-color="#2e92db"/></linearGradient></defs><g style="isolation:isolate"><g id="Layer_1" data-name="Layer 1"><path d="M1038.22,539.88c0,280.61-227.46,508.07-508.07,508.07A508.1,508.1,0,0,1,22,539.88C22,259.27,249.54,31.82,530.15,31.82S1038.22,259.27,1038.22,539.88Z" transform="translate(-22 -31.82)" fill="url(#Íîâûé_îáðàçåö_ãðàäèåíòà_1)"/><path d="M1038.25,539.92c0,280.55-227.54,508.08-508.09,508.08a505.15,505.15,0,0,1-297.79-96.41,541,541,0,0,0,251.5,61.69c299.76,0,542.81-243,542.81-542.8,0-16.32-.69-32.52-2.2-48.49A507.42,507.42,0,0,1,1038.25,539.92Z" transform="translate(-22 -31.82)" fill="#fbd69e" style="mix-blend-mode:multiply"/><path d="M528.24,832.71H532c45.71,0,87.61,13.84,120.19,36.84,6.35,4.49,15.28-1,13-8.07C645.45,800.14,593.09,756.3,531.58,756.3h-2.87c-61.51,0-113.87,43.84-133.66,105.18-2.27,7.06,6.66,12.56,13,8.07C440.64,846.55,482.53,832.71,528.24,832.71Z" transform="translate(-22 -31.82)" fill="#87594a"/><path d="M206,350.7a131.75,131.75,0,0,1,91.25-58.36c14-2.17,27-12.19,28.3-25.81l0-.5c1.38-13.53-15-26.1-35.54-23.09a181.7,181.7,0,0,0-125.86,80.49c-11.36,17.4-6.81,37.51,6.06,41.95l.46.18C183.61,370.08,198.15,362.5,206,350.7Z" transform="translate(-22 -31.82)" fill="#fbd69e" style="mix-blend-mode:multiply"/><path d="M854.3,350.7A131.75,131.75,0,0,0,763,292.34c-14-2.17-27-12.19-28.3-25.81l0-.5c-1.37-13.53,15-26.1,35.55-23.09a181.68,181.68,0,0,1,125.85,80.49c11.36,17.4,6.81,37.51-6.05,41.95l-.47.18C876.68,370.08,862.14,362.5,854.3,350.7Z" transform="translate(-22 -31.82)" fill="#fbd69e" style="mix-blend-mode:multiply"/><ellipse cx="315.55" cy="456.61" rx="95.8" ry="99.07" fill="#87594a"/><path d="M373.54,450a36,36,0,1,1-36-36A36,36,0,0,1,373.54,450Z" transform="translate(-22 -31.82)" fill="#fff"/><ellipse cx="700.74" cy="456.61" rx="95.8" ry="99.07" fill="#87594a"/><circle cx="700.74" cy="418.21" r="35.99" fill="#fff"/><g style="mix-blend-mode:multiply"><path d="M311.1,919.78a128.58,128.58,0,0,1-80.42,30.6A508.88,508.88,0,0,1,111.34,827.61c-.35-42.35,19.12-93.62,73-152.44,23.15-24.52,37.38-59.07,43.38-76a4,4,0,0,1,7.46-.25c6.95,16.63,22.38,50.15,41.33,72.18C302.44,701.41,412.78,822.47,311.1,919.78Z" transform="translate(-22 -31.82)" fill="#fbd69e"/></g><path d="M184.37,658.07c23.14-24.55,37.39-59.08,43.42-76a4,4,0,0,1,7.39-.21c7,16.57,22.45,50.1,41.38,72.16,25.91,30.25,136.2,151.37,34.57,248.65-54,45.41-131.87,38.94-170.81-10.82S89.21,761.88,184.37,658.07Z" transform="translate(-22 -31.82)" fill="url(#linear-gradient)"/></g></g></svg>