<svg xmlns="http://www.w3.org/2000/svg" xmlns:xlink="http://www.w3.org/1999/xlink" viewBox="0 0 1022 1022"><defs><radialGradient id="Íîâûé_îáðàçåö_ãðàäèåíòà_1" cx="539.47" cy="468" r="510.99" gradientTransform="translate(4.09 -4.03) rotate(0.43)" gradientUnits="userSpaceOnUse"><stop offset="0" stop-color="#fddb35"/><stop offset="0.48" stop-color="#fdd934"/><stop offset="0.66" stop-color="#fcd232"/><stop offset="0.78" stop-color="#fbc72e"/><stop offset="0.88" stop-color="#fab629"/><stop offset="0.96" stop-color="#f8a022"/><stop offset="1" stop-color="#f7941e"/></radialGradient></defs><g style="isolation:isolate"><g id="Layer_1" data-name="Layer 1"><ellipse cx="533" cy="536.98" rx="511" ry="510.98" transform="translate(-26.06 -21.94) rotate(-0.43)" fill="url(#Íîâûé_îáðàçåö_ãðàäèåíòà_1)"/><path d="M1044,537c0,282.14-228.84,511-511,511a508.08,508.08,0,0,1-299.49-97,544,544,0,0,0,252.93,62c301.47,0,545.9-244.42,545.9-545.88,0-16.41-.7-32.71-2.21-48.77A510.41,510.41,0,0,1,1044,537Z" transform="translate(-22 -26)" fill="#fbd69e" style="mix-blend-mode:multiply"/><path d="M355.29,334.15a132.51,132.51,0,0,0-104.43,31c-10.87,9.22-27,12.5-38.25,4.53l-.4-.3c-11.2-7.86-10-28.57,5.83-42.23a182.72,182.72,0,0,1,144-42.74c20.71,2.81,33,19.51,27.92,32.21-.06.15-.11.31-.17.47C384.76,329.89,369.43,336,355.29,334.15Z" transform="translate(-22 -26)" fill="#fbd69e" style="mix-blend-mode:multiply"/><path d="M710.71,334.15a132.51,132.51,0,0,1,104.43,31c10.87,9.22,27,12.5,38.25,4.53l.4-.3c11.2-7.86,10-28.57-5.83-42.23a182.72,182.72,0,0,0-144-42.74c-20.71,2.81-33,19.51-27.92,32.21.06.15.11.31.17.47C681.24,329.89,696.57,336,710.71,334.15Z" transform="translate(-22 -26)" fill="#fbd69e" style="mix-blend-mode:multiply"/><path d="M338.26,531.71h2.09c28.46,0,54.19,13.25,72.85,34.63,5.63,6.45,16.16,2.79,16.16-5.77v-45.8c0-65.55-39.92-118.69-89.15-118.69h-1.8c-49.24,0-89.15,53.14-89.15,118.69v45.8c0,8.56,10.53,12.22,16.16,5.77C284.08,545,309.8,531.71,338.26,531.71Z" transform="translate(-22 -26)" fill="#87594a"/><path d="M725.64,531.71h2.09c28.46,0,54.18,13.25,72.85,34.63,5.63,6.45,16.16,2.79,16.16-5.77v-45.8c0-65.55-39.92-118.69-89.15-118.69h-1.8c-49.24,0-89.15,53.14-89.15,118.69v45.8c0,8.56,10.53,12.22,16.15,5.77C671.46,545,697.18,531.71,725.64,531.71Z" transform="translate(-22 -26)" fill="#87594a"/><path d="M861.08,658.83a320.05,320.05,0,0,1-20.39,84C793.28,864.65,674.85,950.91,536.27,950.91h-6.61c-138.5,0-256.93-86.26-304.34-208a324.61,324.61,0,0,1-20.39-84.08,19.69,19.69,0,0,1,27-20.24c105.53,41.68,272.25,46.28,301,46.28s195.58-4.6,301.11-46.28A19.69,19.69,0,0,1,861.08,658.83Z" transform="translate(-22 -26)" fill="#87594a"/><path d="M861.06,658.85a320.8,320.8,0,0,1-20.35,84c-85.88,36.55-190.12,57.94-302.38,57.94H527.55c-112.18,0-216.34-21.39-302.21-57.86a325.91,325.91,0,0,1-20.44-84.07A19.75,19.75,0,0,1,232,638.59c105.46,41.65,272.21,46.3,301,46.3s195.55-4.65,301.09-46.3A19.67,19.67,0,0,1,861.06,658.85Z" transform="translate(-22 -26)" fill="#fff"/><path d="M231.93,654.11c105.53,41.68,272.25,46.28,301,46.28s195.58-4.6,301.11-46.28a19.66,19.66,0,0,1,26,12.06c.31-2.45.76-4.87,1-7.34a19.69,19.69,0,0,0-27-20.24C728.55,680.27,561.75,684.87,533,684.87s-195.51-4.6-301-46.28a19.69,19.69,0,0,0-27,20.24c.26,2.47.7,4.88,1,7.34A19.66,19.66,0,0,1,231.93,654.11Z" transform="translate(-22 -26)" fill="#87594a"/><path d="M840.71,742.84c-47.42,121.83-165.89,208-304.45,208H529.7c-138.56,0-256.94-86.22-304.36-208,85.87,36.47,190,57.86,302.21,57.86h10.78C650.59,800.78,754.83,779.39,840.71,742.84Z" transform="translate(-22 -26)" fill="#fff"/><path d="M527.55,818h10.78c108.37,0,209.22-20,293.34-54.24,3.24-6.86,6.27-13.83,9-20.94-85.88,36.55-190.12,57.94-302.38,57.94H527.55c-112.18,0-216.34-21.39-302.21-57.86,2.76,7.11,5.8,14.08,9,20.94C318.49,798.05,419.26,818,527.55,818Z" transform="translate(-22 -26)" fill="#87594a"/></g></g></svg>