<svg xmlns="http://www.w3.org/2000/svg" xmlns:xlink="http://www.w3.org/1999/xlink" viewBox="0 0 991 991"><defs><radialGradient id="Íîâûé_îáðàçåö_ãðàäèåíòà_1" cx="550.23" cy="445.02" r="495.49" gradientTransform="translate(3.98 -4.18) rotate(0.44)" gradientUnits="userSpaceOnUse"><stop offset="0" stop-color="#fddb35"/><stop offset="0.48" stop-color="#fdd934"/><stop offset="0.66" stop-color="#fcd232"/><stop offset="0.78" stop-color="#fbc72e"/><stop offset="0.88" stop-color="#fab629"/><stop offset="0.96" stop-color="#f8a022"/><stop offset="1" stop-color="#f7941e"/></radialGradient></defs><g style="isolation:isolate"><g id="Layer_1" data-name="Layer 1"><ellipse cx="547.44" cy="517.48" rx="495.5" ry="495.48" transform="translate(-55.89 -17.79) rotate(-0.44)" fill="url(#Íîâûé_îáðàçåö_ãðàäèåíòà_1)"/><path d="M1043,517.53C1043,791.11,821.05,1013,547.46,1013a492.65,492.65,0,0,1-290.4-94,527.63,527.63,0,0,0,245.25,60.15c292.33,0,529.35-237,529.35-529.32,0-15.92-.68-31.72-2.14-47.29A495.12,495.12,0,0,1,1043,517.53Z" transform="translate(-51.95 -22)" fill="#fbd69e" style="mix-blend-mode:multiply"/><path d="M545.93,807.78h3c36.46,0,69.88,8.13,95.88,21.64,5.06,2.63,12.18-.6,10.37-4.74-15.78-36-57.56-61.79-106.62-61.79H546.3c-49.07,0-90.84,25.75-106.62,61.79-1.82,4.14,5.31,7.37,10.37,4.74C476,815.91,509.46,807.78,545.93,807.78Z" transform="translate(-51.95 -22)" fill="#87594a"/><ellipse cx="298.99" cy="495.48" rx="150.69" ry="155.83" fill="#87594a"/><path d="M360,449.94a56.62,56.62,0,1,1-56.62-56.61A56.62,56.62,0,0,1,360,449.94Z" transform="translate(-51.95 -22)" fill="#fff"/><path d="M424,539.48a31.06,31.06,0,1,1-31.06-31.06A31.06,31.06,0,0,1,424,539.48Z" transform="translate(-51.95 -22)" fill="#fff"/><ellipse cx="692.01" cy="495.48" rx="150.69" ry="155.83" fill="#87594a"/><path d="M753,449.94a56.62,56.62,0,1,1-56.62-56.61A56.62,56.62,0,0,1,753,449.94Z" transform="translate(-51.95 -22)" fill="#fff"/><path d="M817,539.48A31.06,31.06,0,1,1,786,508.42,31.05,31.05,0,0,1,817,539.48Z" transform="translate(-51.95 -22)" fill="#fff"/><path d="M291.72,255.87A128.5,128.5,0,0,1,202.89,313c-13.65,2.15-26.27,12-27.52,25.24,0,.17,0,.33,0,.49C174,352,190,364.19,210.07,361.19a177.21,177.21,0,0,0,122.51-78.84c11-17,6.53-36.61-6-40.9l-.45-.17C313.49,236.91,299.34,244.34,291.72,255.87Z" transform="translate(-51.95 -22)" fill="#fbd69e" style="mix-blend-mode:multiply"/><path d="M803.17,255.87A128.5,128.5,0,0,0,892,313c13.65,2.15,26.28,12,27.52,25.24l0,.49c1.3,13.2-14.68,25.42-34.72,22.42a177.21,177.21,0,0,1-122.51-78.84c-11-17-6.53-36.61,6-40.9l.46-.17C781.4,236.91,795.55,244.34,803.17,255.87Z" transform="translate(-51.95 -22)" fill="#fbd69e" style="mix-blend-mode:multiply"/></g></g></svg>