<svg xmlns="http://www.w3.org/2000/svg" xmlns:xlink="http://www.w3.org/1999/xlink" viewBox="0 0 1013 1012.93"><defs><radialGradient id="radial-gradient" cx="544.33" cy="477.45" r="506.46" gradientUnits="userSpaceOnUse"><stop offset="0" stop-color="#fda135"/><stop offset="0.46" stop-color="#fd9f35"/><stop offset="0.62" stop-color="#fc9833"/><stop offset="0.74" stop-color="#fc8d30"/><stop offset="0.83" stop-color="#fb7c2c"/><stop offset="0.92" stop-color="#f96626"/><stop offset="0.99" stop-color="#f74b20"/><stop offset="1" stop-color="#f7451e"/></radialGradient></defs><g style="isolation:isolate"><g id="Layer_1" data-name="Layer 1"><path d="M1048,551.51C1048,831.22,821.24,1058,541.53,1058A506.46,506.46,0,0,1,35,551.51C35,271.8,261.81,45.07,541.53,45.07S1048,271.8,1048,551.51Z" transform="translate(-35 -45.07)" fill="url(#radial-gradient)"/><path d="M1048,551.55C1048,831.19,821.19,1058,541.53,1058a503.61,503.61,0,0,1-296.84-96.1,539.26,539.26,0,0,0,250.7,61.49c298.8,0,541.07-242.26,541.07-541.06,0-16.26-.69-32.42-2.19-48.34A506,506,0,0,1,1048,551.55Z" transform="translate(-35 -45.07)" fill="#fbaa9e" style="mix-blend-mode:multiply"/><path d="M539.79,858.85h3.45c41.6,0,79.73,12.59,109.38,33.53,5.78,4.07,13.91-.93,11.83-7.35-18-55.83-65.65-95.72-121.63-95.72h-2.61c-56,0-103.63,39.89-121.63,95.72-2.07,6.42,6.06,11.42,11.83,7.35C460.06,871.44,498.19,858.85,539.79,858.85Z" transform="translate(-35 -45.07)" fill="#87594a"/><path d="M349,438.05a131.34,131.34,0,0,1,91.67,57.06c8,11.67,22.54,19,35.36,14.38l.46-.18c12.77-4.58,17.06-24.68,5.53-41.89a181.15,181.15,0,0,0-126.43-78.7c-20.53-2.75-36.68,10-35.14,23.45l0,.5C321.93,426.23,335,436.06,349,438.05Z" transform="translate(-35 -45.07)" fill="#fbaa9e" style="mix-blend-mode:multiply"/><path d="M734.08,438.05a131.3,131.3,0,0,0-91.66,57.06c-8,11.67-22.54,19-35.37,14.38l-.46-.18c-12.76-4.58-17.06-24.68-5.52-41.89a181.11,181.11,0,0,1,126.42-78.7c20.53-2.75,36.68,10,35.14,23.45l0,.5C761.12,426.23,748.06,436.06,734.08,438.05Z" transform="translate(-35 -45.07)" fill="#fbaa9e" style="mix-blend-mode:multiply"/><ellipse cx="348.53" cy="540.61" rx="78.58" ry="81.27" fill="#87594a"/><path d="M413.06,554.18a29.53,29.53,0,1,1-29.53-29.52A29.53,29.53,0,0,1,413.06,554.18Z" transform="translate(-35 -45.07)" fill="#fff"/><path d="M778.09,585.68c0,44.89-35.19,81.27-78.59,81.27s-78.58-36.38-78.58-81.27,35.18-81.27,78.58-81.27S778.09,540.8,778.09,585.68Z" transform="translate(-35 -45.07)" fill="#87594a"/><circle cx="664.5" cy="509.11" r="29.53" fill="#fff"/></g></g></svg>