<svg xmlns="http://www.w3.org/2000/svg" xmlns:xlink="http://www.w3.org/1999/xlink" viewBox="0 0 987 987"><defs><radialGradient id="Íîâûé_îáðàçåö_ãðàäèåíòà_1" cx="495.58" cy="406.05" r="493.49" gradientUnits="userSpaceOnUse"><stop offset="0" stop-color="#fddb35"/><stop offset="0.48" stop-color="#fdd934"/><stop offset="0.66" stop-color="#fcd232"/><stop offset="0.78" stop-color="#fbc72e"/><stop offset="0.88" stop-color="#fab629"/><stop offset="0.96" stop-color="#f8a022"/><stop offset="1" stop-color="#f7941e"/></radialGradient></defs><g style="isolation:isolate"><g id="Layer_1" data-name="Layer 1"><ellipse cx="493.5" cy="493.48" rx="493.5" ry="493.48" fill="url(#Íîâûé_îáðàçåö_ãðàäèåíòà_1)"/><path d="M1051.74,522.53c0,272.48-221,493.47-493.48,493.47A490.67,490.67,0,0,1,269,922.37,525.6,525.6,0,0,0,513.3,982.28c291.14,0,527.2-236.06,527.2-527.19,0-15.85-.67-31.59-2.13-47.1A492.92,492.92,0,0,1,1051.74,522.53Z" transform="translate(-64.74 -29)" fill="#fbd69e" style="mix-blend-mode:multiply"/><path d="M454,554.3l12.7-121.11A53.48,53.48,0,0,0,413.45,374H212.7a53.44,53.44,0,0,0-53.23,59.16L172.16,554.3a53.54,53.54,0,0,0,47,47.62l8,.41H400.65A53.55,53.55,0,0,0,454,554.3Z" transform="translate(-64.74 -29)" fill="#414042"/><polygon points="223.19 345.02 257.34 345.02 104.52 497.85 101.29 466.92 223.19 345.02" fill="#939598"/><path d="M453.22,391.73a3.36,3.36,0,0,1,.36.42L243.42,602.32H225.49a53.55,53.55,0,0,1-45-24.41L384.4,374h29.05A53.72,53.72,0,0,1,453.22,391.73Z" transform="translate(-64.74 -29)" fill="#939598"/><path d="M1001.2,324.86H115.29a32,32,0,0,0-32,32A16.12,16.12,0,0,0,99.47,373c4.16,0,7.91,3.08,10.91,7.16a30.81,30.81,0,0,1,5.24,13.32L138.35,599.9a35.73,35.73,0,0,0,35.56,31.81h282.7c16.24,0,30.56-17,34.64-32.64l18-64.87A35.82,35.82,0,0,1,543.71,508h28.65c16.24,0,30.39,17,34.55,32.73l13.83,49.87,4.16,15a35.75,35.75,0,0,0,34.39,26.15h283.2c18.24,0,33.56-19.74,35.56-37.89L989.21,492.9l11.66-105.42A16.15,16.15,0,0,1,1016.94,373h.08a16.11,16.11,0,0,0,16.15-16.16A32,32,0,0,0,1001.2,324.86ZM466.69,433.19,454,554.27a53.55,53.55,0,0,1-53.3,48H225.54a53.57,53.57,0,0,1-53.38-48L159.51,433.19a53.36,53.36,0,0,1,53.2-59.12H413.48a53.5,53.5,0,0,1,53.21,59.12Zm490.29,0L944.33,554.27a53.76,53.76,0,0,1-53.38,48H715.75a53.6,53.6,0,0,1-53.29-48L649.72,433.19A53.5,53.5,0,0,1,703,374.07H903.69A53.5,53.5,0,0,1,957,433.19Z" transform="translate(-64.74 -29)" fill="#2b2b2b"/><path d="M957,433.19,944.33,554.27a53.76,53.76,0,0,1-53.38,48H715.75a53.63,53.63,0,0,1-51.3-38.13v-.09a48.17,48.17,0,0,1-2-9.82L657.13,504l-3.5-33.39-3.91-37.39A53.5,53.5,0,0,1,703,374.07H903.69A53.52,53.52,0,0,1,957,433.19Z" transform="translate(-64.74 -29)" fill="#414042"/><polygon points="733.61 345.07 592.38 474.97 588.88 441.58 693.8 345.07 733.61 345.07" fill="#939598"/><path d="M947.82,397.22l-223,205.09h-9.07a53.63,53.63,0,0,1-51.3-38.13v-.09l206.6-190h32.64a53.3,53.3,0,0,1,44.13,23.15Z" transform="translate(-64.74 -29)" fill="#939598"/><path d="M658.56,781.27c0,35.8-9.64,68.44-25.54,93.18-1.74,2.7-3.52,5.29-5.42,7.79a108.86,108.86,0,0,1-21.72,22.11c-12.73,9.61-27.17,15.5-42.47,16.58-.86.07-1.71.1-2.6.14s-1.71,0-2.57,0-1.74,0-2.6,0-1.71-.07-2.56-.14c-15.33-1.08-29.74-7-42.51-16.58a108.72,108.72,0,0,1-21.68-22.07c-1.91-2.5-3.69-5.1-5.43-7.8-15.89-24.74-25.53-57.41-25.53-93.21,0-19.51,2.86-36.81,8-51.85.79-2.37,1.68-4.67,2.6-6.91C485,682.41,519,660.7,558.24,660.7s73.21,21.71,89.69,61.81c.92,2.24,1.78,4.54,2.6,6.91C655.69,744.46,658.56,761.76,658.56,781.27Z" transform="translate(-64.74 -29)" fill="#87594a"/><path d="M650.53,729.42a334.49,334.49,0,0,1-184.57,0c.79-2.37,1.68-4.67,2.6-6.91C485,682.41,519,660.7,558.24,660.7s73.21,21.71,89.69,61.81C648.85,724.75,649.71,727.05,650.53,729.42Z" transform="translate(-64.74 -29)" fill="#fff"/><path d="M627.6,882.24a108.86,108.86,0,0,1-21.72,22.11c-12.73,9.61-27.17,15.5-42.47,16.58-.86.07-1.71.1-2.6.14s-1.71,0-2.57,0-1.74,0-2.6,0-1.71-.07-2.56-.14c-15.33-1.08-29.74-7-42.51-16.58a108.72,108.72,0,0,1-21.68-22.07,178.44,178.44,0,0,1,138.71,0Z" transform="translate(-64.74 -29)" fill="#ee6571"/></g></g></svg>