<svg xmlns="http://www.w3.org/2000/svg" xmlns:xlink="http://www.w3.org/1999/xlink" viewBox="0 0 997 997"><defs><radialGradient id="Íîâûé_îáðàçåö_ãðàäèåíòà_1" cx="551.64" cy="434.56" r="498.49" gradientTransform="translate(4.03 -4.27) rotate(0.44)" gradientUnits="userSpaceOnUse"><stop offset="0" stop-color="#fddb35"/><stop offset="0.48" stop-color="#fdd934"/><stop offset="0.66" stop-color="#fcd232"/><stop offset="0.78" stop-color="#fbc72e"/><stop offset="0.88" stop-color="#fab629"/><stop offset="0.96" stop-color="#f8a022"/><stop offset="1" stop-color="#f7941e"/></radialGradient></defs><g style="isolation:isolate"><g id="Layer_1" data-name="Layer 1"><ellipse cx="557.24" cy="521.48" rx="498.5" ry="498.48" transform="translate(-62.74 -18.7) rotate(-0.44)" fill="url(#Íîâûé_îáðàçåö_ãðàäèåíòà_1)"/><path d="M1055.75,521.53c0,275.24-223.24,498.47-498.49,498.47A495.63,495.63,0,0,1,265.1,925.42a530.88,530.88,0,0,0,246.74,60.52c294.1,0,532.55-238.45,532.55-532.53,0-16-.68-31.91-2.16-47.58A497.83,497.83,0,0,1,1055.75,521.53Z" transform="translate(-58.74 -23)" fill="#fbd69e" style="mix-blend-mode:multiply"/><ellipse cx="309.55" cy="421.15" rx="93.99" ry="97.2" fill="#87594a"/><circle cx="309.55" cy="383.47" r="35.31" fill="#fff"/><path d="M840.18,444.15c0,53.68-42.08,97.19-94,97.19s-94-43.51-94-97.19,42.08-97.2,94-97.2S840.18,390.47,840.18,444.15Z" transform="translate(-58.74 -23)" fill="#87594a"/><path d="M781.51,406.47a35.32,35.32,0,1,1-35.31-35.31A35.31,35.31,0,0,1,781.51,406.47Z" transform="translate(-58.74 -23)" fill="#fff"/><path d="M272,267.59A129.26,129.26,0,0,1,375.42,243.1c13.67,2.53,28.94-2.55,34.57-14.74.06-.15.12-.3.19-.45,5.65-12.09-5.42-29-25.44-32.9A178.24,178.24,0,0,0,242.12,228.8c-16.16,12.44-18.46,32.54-8,40.81l.37.32C245,278.3,260.93,276,272,267.59Z" transform="translate(-58.74 -23)" fill="#fbd69e" style="mix-blend-mode:multiply"/><path d="M842.47,267.59A129.24,129.24,0,0,0,739.06,243.1c-13.67,2.53-28.93-2.55-34.56-14.74l-.19-.45c-5.65-12.09,5.42-29,25.44-32.9A178.25,178.25,0,0,1,872.37,228.8c16.16,12.44,18.46,32.54,8,40.81-.13.1-.25.21-.37.32C869.48,278.3,853.56,276,842.47,267.59Z" transform="translate(-58.74 -23)" fill="#fbd69e" style="mix-blend-mode:multiply"/><path d="M779.67,762.11c0,73.22-47.23,136.92-116.76,169.5a248.31,248.31,0,0,1-94.22,22.81c-3.8.18-7.61.24-11.45.24s-7.64-.06-11.45-.24a248.26,248.26,0,0,1-94.21-22.81C382,899,334.82,835.33,334.82,762.11c0-31.05,8.5-58.12,23.58-80.87,36.54-55.26,111.86-85.15,198.84-85.15S719.55,626,756.09,681.24C771.17,704,779.67,731.06,779.67,762.11Z" transform="translate(-58.74 -23)" fill="#87594a"/><path d="M662.91,931.61a248.31,248.31,0,0,1-94.22,22.81c-3.8.18-7.61.24-11.45.24s-7.64-.06-11.45-.24a248.26,248.26,0,0,1-94.21-22.81c21.75-19.1,60.92-31.82,105.66-31.82S641.18,912.51,662.91,931.61Z" transform="translate(-58.74 -23)" fill="#ee6571"/><path d="M756.09,681.24H358.4c36.54-55.26,111.86-85.15,198.84-85.15S719.55,626,756.09,681.24Z" transform="translate(-58.74 -23)" fill="#fff"/></g></g></svg>