<svg xmlns="http://www.w3.org/2000/svg" xmlns:xlink="http://www.w3.org/1999/xlink" viewBox="0 0 991.03 991"><defs><radialGradient id="Íîâûé_îáðàçåö_ãðàäèåíòà_1" cx="565.01" cy="457.61" r="495.5" gradientUnits="userSpaceOnUse"><stop offset="0" stop-color="#fddb35"/><stop offset="0.48" stop-color="#fdd934"/><stop offset="0.66" stop-color="#fcd232"/><stop offset="0.78" stop-color="#fbc72e"/><stop offset="0.88" stop-color="#fab629"/><stop offset="0.96" stop-color="#f8a022"/><stop offset="1" stop-color="#f7941e"/></radialGradient><linearGradient id="linear-gradient" x1="790.32" y1="263.11" x2="1026.35" y2="263.11" gradientUnits="userSpaceOnUse"><stop offset="0" stop-color="#2e92db"/><stop offset="0.04" stop-color="#2d99df"/><stop offset="0.2" stop-color="#2caded"/><stop offset="0.35" stop-color="#2abaf5"/><stop offset="0.5" stop-color="#2abef8"/><stop offset="0.65" stop-color="#2abaf5"/><stop offset="0.8" stop-color="#2caded"/><stop offset="0.96" stop-color="#2d98df"/><stop offset="1" stop-color="#2e92db"/></linearGradient></defs><g style="isolation:isolate"><g id="Layer_1" data-name="Layer 1"><path d="M1054.23,524.45c0,273.65-221.8,495.54-495.45,495.54S63.25,798.1,63.25,524.45,285.14,29,558.78,29a495,495,0,0,1,495.45,495.45Z" transform="translate(-63.25 -29)" fill="url(#Íîâûé_îáðàçåö_ãðàäèåíòà_1)"/><path d="M1054.27,524.54c0,273.57-221.89,495.46-495.47,495.46a492.62,492.62,0,0,1-290.4-94,527.63,527.63,0,0,0,245.25,60.15c292.32,0,529.34-237,529.34-529.32,0-15.91-.68-31.71-2.15-47.29A494.67,494.67,0,0,1,1054.27,524.54Z" transform="translate(-63.25 -29)" fill="#fbd69e" style="mix-blend-mode:multiply"/><path d="M395,519.38h2c27.6,0,52.54,12.84,70.64,33.58,5.46,6.25,15.67,2.7,15.67-5.6V503c0-63.56-38.71-115.08-86.45-115.08h-1.74c-47.75,0-86.45,51.52-86.45,115.08v44.41c0,8.3,10.21,11.85,15.67,5.6C342.5,532.22,367.44,519.38,395,519.38Z" transform="translate(-63.25 -29)" fill="#87594a"/><path d="M720.5,519.38h2c27.6,0,52.54,12.84,70.64,33.58,5.46,6.25,15.67,2.7,15.67-5.6V503c0-63.56-38.71-115.08-86.45-115.08h-1.74c-47.74,0-86.45,51.52-86.45,115.08v44.41c0,8.3,10.21,11.85,15.67,5.6C668,532.22,692.9,519.38,720.5,519.38Z" transform="translate(-63.25 -29)" fill="#87594a"/><path d="M876.91,642.64a310.25,310.25,0,0,1-19.78,81.45c-46,118.12-160.8,201.76-295.18,201.76h-6.41c-134.3,0-249.13-83.64-295.1-201.68a314.82,314.82,0,0,1-19.78-81.53A19.1,19.1,0,0,1,266.85,623c102.33,40.42,264,44.88,291.9,44.88s189.64-4.46,292-44.88A19.1,19.1,0,0,1,876.91,642.64Z" transform="translate(-63.25 -29)" fill="#87594a"/><path d="M876.91,642.64a310.25,310.25,0,0,1-19.78,81.45C773.88,759.58,672.8,780.3,563.91,780.3h-10.4c-108.82,0-209.82-20.72-293.07-56.13a314.82,314.82,0,0,1-19.78-81.53A19.1,19.1,0,0,1,266.85,623c102.33,40.42,264,44.88,291.9,44.88s189.64-4.46,292-44.88A19.1,19.1,0,0,1,876.91,642.64Z" transform="translate(-63.25 -29)" fill="#fff"/><path d="M266.85,638.06c102.33,40.42,264,44.87,291.9,44.87s189.64-4.45,292-44.87a19.07,19.07,0,0,1,25.2,11.7c.31-2.38.74-4.73,1-7.12A19.1,19.1,0,0,0,850.72,623c-102.33,40.42-264.06,44.88-292,44.88S369.18,663.43,266.85,623a19.1,19.1,0,0,0-26.19,19.63c.25,2.39.69,4.73,1,7.11A19.07,19.07,0,0,1,266.85,638.06Z" transform="translate(-63.25 -29)" fill="#87594a"/><path d="M1026.39,360.33c-5.35,21.07-17.39,42.14-39,62.21C933.17,466.85,855,460.49,816,412s-51.34-126.75,44.22-228a170.89,170.89,0,0,0,24.33-32.86A495.44,495.44,0,0,1,1026.39,360.33Z" transform="translate(-63.25 -29)" fill="#fbd69e" style="mix-blend-mode:multiply"/><path d="M861.53,167.32c22.57-23.94,36.46-57.61,42.35-74.14a3.85,3.85,0,0,1,7.2-.2c6.82,16.16,21.9,48.86,40.35,70.37C976.7,192.84,1084.25,311,985.15,405.82c-52.7,44.28-128.59,38-166.57-10.55S768.74,268.55,861.53,167.32Z" transform="translate(-63.25 -29)" fill="url(#linear-gradient)"/></g></g></svg>