<svg xmlns="http://www.w3.org/2000/svg" xmlns:xlink="http://www.w3.org/1999/xlink" viewBox="0 0 992 992"><defs><radialGradient id="Íîâûé_îáðàçåö_ãðàäèåíòà_1" cx="539.95" cy="431.66" r="495.99" gradientTransform="translate(3.91 -4.16) rotate(0.44)" gradientUnits="userSpaceOnUse"><stop offset="0" stop-color="#fddb35"/><stop offset="0.48" stop-color="#fdd934"/><stop offset="0.66" stop-color="#fcd232"/><stop offset="0.78" stop-color="#fbc72e"/><stop offset="0.88" stop-color="#fab629"/><stop offset="0.96" stop-color="#f8a022"/><stop offset="1" stop-color="#f7941e"/></radialGradient><linearGradient id="linear-gradient" x1="444.38" y1="664.77" x2="685.84" y2="906.23" gradientTransform="matrix(-0.99, 0.11, 0.11, 0.99, 1295.47, -90.03)" gradientUnits="userSpaceOnUse"><stop offset="0" stop-color="#ec3676"/><stop offset="1" stop-color="#e3272d"/></linearGradient></defs><g style="isolation:isolate"><g id="Layer_1" data-name="Layer 1"><ellipse cx="542.74" cy="506.98" rx="496" ry="495.98" transform="translate(-50.63 -6.81) rotate(-0.44)" fill="url(#Íîâûé_îáðàçåö_ãðàäèåíòà_1)"/><path d="M1038.74,507c0,273.86-222.12,496-496,496a493.16,493.16,0,0,1-290.7-94.11,528.19,528.19,0,0,0,245.51,60.22c292.62,0,529.88-237.25,529.88-529.86,0-15.93-.68-31.75-2.15-47.34A495.61,495.61,0,0,1,1038.74,507Z" transform="translate(-46.74 -11)" fill="#fbd69e" style="mix-blend-mode:multiply"/><path d="M623.66,646.13c-1,22.1-24.73,34.82-38.54,52.11-3.84,4.82-7.12,10.72-6.32,16.84,1.54,11.76,15.72,16.23,25.23,23.33,14.43,10.77,19.27,31.59,13.69,48.7s-20.1,30.38-36.69,37.37-35.09,8.29-53,7c-2.92-.2-6-.53-8.36-2.22-6-4.27-3.3-14.7,3.16-18.24s14.42-2.23,21.55-.36,14.57,4.21,21.71,2.41c11.07-2.79,17.7-15.51,16.06-26.81s-9.91-20.78-19.72-26.62-21.11-8.61-32.23-11.18c-5.63-1.3-11.43-2.64-16.11-6s-8-9.35-6.48-14.92c2.08-7.63,11.22-10.39,18.91-12.28,13.9-3.43,27.77-8.17,39.2-16.79s20.21-21.63,21-35.92-8-29.35-21.75-33.34c-19.29-5.59-38.68,10.73-58.73,9.49,17-23.31,47.24-36.16,75.79-32.16C602.79,609.47,624.63,625.09,623.66,646.13Z" transform="translate(-46.74 -11)" fill="#87594a"/><path d="M746.89,600.25A90.53,90.53,0,0,1,858.68,674c.18,1.12.36,2.25.61,3.77,1.06-1.12,1.84-2,2.61-2.79A90.52,90.52,0,0,1,995.81,676c27.51,30.53,31.06,81.1,8.39,120.34-13.14,22.75-32,40.14-52.93,55.4-51,37.18-107.85,63.16-166.36,85.91a14.59,14.59,0,0,1-5.11,1.2,14.46,14.46,0,0,1-3.57-3.84c-35.91-51.5-68.62-104.73-90.28-164-8.88-24.35-14.84-49.29-13.08-75.5C675.91,650.29,707,610.28,746.89,600.25Z" transform="translate(-46.74 -11)" fill="url(#linear-gradient)"/><path d="M323.08,281.15a128.59,128.59,0,0,0-91.51,53c-8.16,11.18-22.66,17.94-35.07,13l-.44-.2c-12.36-4.87-15.93-24.69-4.1-41.17a177.39,177.39,0,0,1,126.22-73c20.18-2,35.59,10.91,33.66,24.06,0,.16,0,.32,0,.48C349.92,270.43,336.83,279.64,323.08,281.15Z" transform="translate(-46.74 -11)" fill="#fbd69e" style="mix-blend-mode:multiply"/><path d="M731.32,339.34a128.61,128.61,0,0,1,97,42.09c9.39,10.16,24.58,15.21,36.33,8.85l.42-.25c11.71-6.27,13-26.36-.67-41.37A177.38,177.38,0,0,0,730.6,290.61c-20.28.29-34.09,14.94-30.67,27.77,0,.16.07.32.11.48C703.42,331.78,717.48,339.42,731.32,339.34Z" transform="translate(-46.74 -11)" fill="#fbd69e" style="mix-blend-mode:multiply"/><path d="M616.77,484.59c8.33,2,17.2.45,25.2-3.85,23.6-12.66,52.3-4.8,58.08-3.84s35.5,2.73,53.78,22.32C760,505.85,768,510.15,776.47,511s17.09-1.8,19.56-13.44A24.1,24.1,0,0,0,794,481.88c-17.11-34-46.51-58.54-82.81-64.53l-2.47-.41c-36.34-6-72.1,7.81-99.25,34.57a24,24,0,0,0-7,14.24C601.16,477.45,608.5,482.64,616.77,484.59Z" transform="translate(-46.74 -11)" fill="#87594a"/><ellipse cx="337.25" cy="452.32" rx="85.15" ry="88.06" fill="#87594a"/><path d="M416,429.19a32,32,0,1,1-32-32A32,32,0,0,1,416,429.19Z" transform="translate(-46.74 -11)" fill="#fff"/></g></g></svg>