<svg xmlns="http://www.w3.org/2000/svg" xmlns:xlink="http://www.w3.org/1999/xlink" viewBox="0 0 1025.86 1025.86"><defs><filter id="luminosity-noclip" x="41.54" y="-8732" width="327.44" height="32766" filterUnits="userSpaceOnUse" color-interpolation-filters="sRGB"><feFlood flood-color="#fff" result="bg"/><feBlend in="SourceGraphic" in2="bg"/></filter><mask id="mask" x="41.54" y="-8732" width="327.44" height="32766" maskUnits="userSpaceOnUse"><g filter="url(#luminosity-noclip)"/></mask><radialGradient id="radial-gradient" cx="205.26" cy="530.68" r="163.72" gradientTransform="translate(698.68 247.34) rotate(81.28)" gradientUnits="userSpaceOnUse"><stop offset="0" stop-color="#fff"/><stop offset="0.18" stop-color="#fcfcfc"/><stop offset="0.31" stop-color="#f3f3f3"/><stop offset="0.43" stop-color="#e3e3e3"/><stop offset="0.54" stop-color="#ccc"/><stop offset="0.64" stop-color="#afafaf"/><stop offset="0.74" stop-color="#8b8b8b"/><stop offset="0.83" stop-color="#616161"/><stop offset="0.92" stop-color="#313131"/><stop offset="1"/></radialGradient><filter id="luminosity-noclip-2" x="695.16" y="-8732" width="327.44" height="32766" filterUnits="userSpaceOnUse" color-interpolation-filters="sRGB"><feFlood flood-color="#fff" result="bg"/><feBlend in="SourceGraphic" in2="bg"/></filter><mask id="mask-2" x="695.16" y="-8732" width="327.44" height="32766" maskUnits="userSpaceOnUse"><g filter="url(#luminosity-noclip-2)"/></mask><radialGradient id="radial-gradient-2" cx="-304.84" cy="530.68" r="163.72" gradientTransform="matrix(-0.71, -0.71, -0.71, 0.71, 1018.57, -60.13)" xlink:href="#radial-gradient"/><radialGradient id="Íîâûé_îáðàçåö_ãðàäèåíòà_1" cx="534.95" cy="458.92" r="512.92" gradientTransform="translate(1061.88 -2.24) rotate(89.56)" gradientUnits="userSpaceOnUse"><stop offset="0" stop-color="#fddb35"/><stop offset="0.48" stop-color="#fdd934"/><stop offset="0.66" stop-color="#fcd232"/><stop offset="0.78" stop-color="#fbc72e"/><stop offset="0.88" stop-color="#fab629"/><stop offset="0.96" stop-color="#f8a022"/><stop offset="1" stop-color="#f7941e"/></radialGradient><filter id="luminosity-noclip-3" x="41.54" y="366.96" width="327.44" height="327.44" filterUnits="userSpaceOnUse" color-interpolation-filters="sRGB"><feFlood flood-color="#fff" result="bg"/><feBlend in="SourceGraphic" in2="bg"/></filter><mask id="mask-3" x="22.4" y="345.94" width="327.44" height="327.44" maskUnits="userSpaceOnUse"><g filter="url(#luminosity-noclip-3)"><g transform="translate(-19.14 -21.02)"><g mask="url(#mask)"><circle cx="205.26" cy="530.68" r="163.72" transform="translate(-350.41 653.11) rotate(-81.28)" fill="url(#radial-gradient)" style="mix-blend-mode:multiply"/></g></g></g></mask><radialGradient id="radial-gradient-3" cx="205.26" cy="530.68" r="163.72" gradientTransform="translate(698.68 247.34) rotate(81.28)" gradientUnits="userSpaceOnUse"><stop offset="0" stop-color="#ffa482"/><stop offset="0.31" stop-color="#ffa67f"/><stop offset="0.54" stop-color="#ffac76"/><stop offset="0.74" stop-color="#ffb566"/><stop offset="0.93" stop-color="#ffc34f"/><stop offset="1" stop-color="#ffca44"/></radialGradient><filter id="luminosity-noclip-4" x="695.16" y="366.96" width="327.44" height="327.44" filterUnits="userSpaceOnUse" color-interpolation-filters="sRGB"><feFlood flood-color="#fff" result="bg"/><feBlend in="SourceGraphic" in2="bg"/></filter><mask id="mask-4" x="676.02" y="345.94" width="327.44" height="327.44" maskUnits="userSpaceOnUse"><g filter="url(#luminosity-noclip-4)"><g transform="translate(-19.14 -21.02)"><g mask="url(#mask-2)"><circle cx="858.88" cy="530.68" r="163.72" transform="translate(-123.69 762.75) rotate(-45)" fill="url(#radial-gradient-2)" style="mix-blend-mode:multiply"/></g></g></g></mask><radialGradient id="radial-gradient-4" cx="-304.84" cy="530.68" r="163.72" gradientTransform="matrix(-0.71, -0.71, -0.71, 0.71, 1018.57, -60.13)" xlink:href="#radial-gradient-3"/></defs><g style="isolation:isolate"><g id="Layer_1" data-name="Layer 1"><ellipse cx="532.07" cy="533.93" rx="512.91" ry="512.93" transform="translate(-25.08 1040.85) rotate(-89.56)" fill="url(#Íîâûé_îáðàçåö_ãðàäèåíòà_1)"/><path d="M1045,534c0,283.2-229.7,512.9-512.91,512.9a510,510,0,0,1-300.62-97.33,546.06,546.06,0,0,0,253.88,62.28c302.61,0,548-245.35,548-547.95,0-16.47-.7-32.83-2.22-48.95A512.53,512.53,0,0,1,1045,534Z" transform="translate(-19.14 -21.02)" fill="#fbd69e" style="mix-blend-mode:multiply"/><path d="M535.38,825.67H528c-122.9,0-231.59-85.67-297.76-217-7.21-14.31-28.12-4.27-22.38,10.74,58.95,154,180.22,259.64,320.29,259.64h7.24c140.54,0,262.17-106.36,320.9-261.2,5.7-15-15.23-25-22.4-10.71C767.8,739.33,658.75,825.67,535.38,825.67Z" transform="translate(-19.14 -21.02)" fill="#87594a"/><path d="M363.62,264.59a133,133,0,0,0-103.89,34.1c-10.64,9.56-26.75,13.32-38.25,5.65l-.4-.3c-11.47-7.56-10.86-28.38,4.63-42.53a183.37,183.37,0,0,1,143.29-47c20.86,2.23,33.68,18.63,28.94,31.51l-.16.48C393.07,259.46,377.86,266,363.62,264.59Z" transform="translate(-19.14 -21.02)" fill="#fbd69e" style="mix-blend-mode:multiply"/><path d="M700.51,264.59a133,133,0,0,1,103.9,34.1c10.63,9.56,26.75,13.32,38.24,5.65l.41-.3c11.46-7.56,10.85-28.38-4.63-42.53a183.37,183.37,0,0,0-143.29-47c-20.86,2.23-33.69,18.63-28.94,31.51,0,.17.11.33.16.48C671.07,259.46,686.28,266,700.51,264.59Z" transform="translate(-19.14 -21.02)" fill="#fbd69e" style="mix-blend-mode:multiply"/><g mask="url(#mask-3)"><circle cx="205.26" cy="530.68" r="163.72" transform="translate(-369.55 632.09) rotate(-81.28)" fill="url(#radial-gradient-3)" style="mix-blend-mode:darken"/></g><g mask="url(#mask-4)"><circle cx="858.88" cy="530.68" r="163.72" transform="translate(-142.83 741.74) rotate(-45)" fill="url(#radial-gradient-4)" style="mix-blend-mode:darken"/></g><path d="M454.44,438.34c-8.61,2-17.79.47-26.06-4-24.41-13.1-54.08-5-60.06-4s-36.71,2.83-55.62,23.08c-6.41,6.87-14.6,11.31-23.41,12.14s-17.68-1.86-20.23-13.9a25,25,0,0,1,2.14-16.16c17.7-35.19,48.1-60.54,85.64-66.74l2.55-.42C397,362.19,434,376.46,462,404.14a24.88,24.88,0,0,1,7.23,14.73C470.58,431,463,436.33,454.44,438.34Z" transform="translate(-19.14 -21.02)" fill="#87594a"/><path d="M609.7,438.34c8.61,2,17.79.47,26.06-4,24.41-13.1,54.08-5,60.06-4s36.71,2.83,55.62,23.08c6.41,6.87,14.6,11.31,23.41,12.14s17.68-1.86,20.23-13.9a25,25,0,0,0-2.14-16.16c-17.7-35.19-48.1-60.54-85.64-66.74l-2.55-.42c-37.58-6.2-74.57,8.07-102.64,35.75a24.88,24.88,0,0,0-7.23,14.73C593.55,431,601.14,436.33,609.7,438.34Z" transform="translate(-19.14 -21.02)" fill="#87594a"/></g></g></svg>