<svg xmlns="http://www.w3.org/2000/svg" xmlns:xlink="http://www.w3.org/1999/xlink" viewBox="0 0 1000.06 1000.06"><defs><radialGradient id="Íîâûé_îáðàçåö_ãðàäèåíòà_1" cx="506.36" cy="432.51" r="500.02" gradientUnits="userSpaceOnUse"><stop offset="0" stop-color="#fddb35"/><stop offset="0.48" stop-color="#fdd934"/><stop offset="0.66" stop-color="#fcd232"/><stop offset="0.78" stop-color="#fbc72e"/><stop offset="0.88" stop-color="#fab629"/><stop offset="0.96" stop-color="#f8a022"/><stop offset="1" stop-color="#f7941e"/></radialGradient></defs><g style="isolation:isolate"><g id="Layer_1" data-name="Layer 1"><ellipse cx="500.03" cy="500.01" rx="500.03" ry="500.01" fill="url(#Íîâûé_îáðàçåö_ãðàäèåíòà_1)"/><path d="M1027.74,530c0,276.08-223.92,500-500,500a497.19,497.19,0,0,1-293.06-94.87,532.49,532.49,0,0,0,247.5,60.7c295,0,534.19-239.18,534.19-534.16,0-16.06-.69-32-2.17-47.73A499.3,499.3,0,0,1,1027.74,530Z" transform="translate(-27.68 -29.94)" fill="#fbd69e" style="mix-blend-mode:multiply"/><path d="M848.76,632.31a313.78,313.78,0,0,1-20,82.2c-46.39,119.2-162.28,203.61-297.89,203.61h-6.47c-135.52,0-251.41-84.41-297.8-203.53a318.36,318.36,0,0,1-20-82.28,19.27,19.27,0,0,1,26.43-19.8c103.27,40.78,266.41,45.28,294.57,45.28s191.38-4.5,294.65-45.28A19.27,19.27,0,0,1,848.76,632.31Z" transform="translate(-27.68 -29.94)" fill="#87594a"/><path d="M848.76,632.31a313.78,313.78,0,0,1-20,82.2c-84,35.81-186,56.72-295.91,56.72h-10.5c-109.81,0-211.73-20.91-295.75-56.64a318.36,318.36,0,0,1-20-82.28,19.27,19.27,0,0,1,26.43-19.8c103.27,40.78,266.41,45.28,294.57,45.28s191.38-4.5,294.65-45.28A19.27,19.27,0,0,1,848.76,632.31Z" transform="translate(-27.68 -29.94)" fill="#fff"/><path d="M233.11,627.69C336.38,668.48,499.52,673,527.68,673s191.38-4.49,294.65-45.28a19.24,19.24,0,0,1,25.43,11.81c.31-2.41.74-4.77,1-7.19a19.27,19.27,0,0,0-26.43-19.8c-103.27,40.78-266.49,45.28-294.65,45.28s-191.3-4.5-294.57-45.28a19.27,19.27,0,0,0-26.43,19.8c.26,2.41.7,4.78,1,7.18A19.24,19.24,0,0,1,233.11,627.69Z" transform="translate(-27.68 -29.94)" fill="#87594a"/><path d="M259.81,366.61c31.42,9.76,210.63,73.57,199.09,112.52s-137,89.45-199.09,89.45c-30.29,0,1.45-40.4,40.4-53.38S428.62,482,353.59,454.61s-91.93-43.28-105.84-51.94S245.44,362.14,259.81,366.61Z" transform="translate(-27.68 -29.94)" fill="#87594a"/><path d="M795.61,366.61C764.2,376.37,585,440.18,596.53,479.13s137.05,89.45,199.08,89.45c30.3,0-1.44-40.4-40.39-53.38S626.81,482,701.83,454.61s91.94-43.28,105.84-51.94S810,362.14,795.61,366.61Z" transform="translate(-27.68 -29.94)" fill="#87594a"/></g></g></svg>