<svg xmlns="http://www.w3.org/2000/svg" xmlns:xlink="http://www.w3.org/1999/xlink" viewBox="0 0 1027.33 901.78"><defs><filter id="luminosity-noclip" x="134.73" y="-8732" width="287.84" height="32766" filterUnits="userSpaceOnUse" color-interpolation-filters="sRGB"><feFlood flood-color="#fff" result="bg"/><feBlend in="SourceGraphic" in2="bg"/></filter><mask id="mask" x="134.73" y="-8732" width="287.84" height="32766" maskUnits="userSpaceOnUse"><g filter="url(#luminosity-noclip)"/></mask><radialGradient id="radial-gradient" cx="278.65" cy="621.98" r="143.92" gradientTransform="translate(819.31 207.01) rotate(76.63)" gradientUnits="userSpaceOnUse"><stop offset="0" stop-color="#fff"/><stop offset="0.18" stop-color="#fcfcfc"/><stop offset="0.31" stop-color="#f3f3f3"/><stop offset="0.43" stop-color="#e3e3e3"/><stop offset="0.54" stop-color="#ccc"/><stop offset="0.64" stop-color="#afafaf"/><stop offset="0.74" stop-color="#8b8b8b"/><stop offset="0.83" stop-color="#616161"/><stop offset="0.92" stop-color="#313131"/><stop offset="1"/></radialGradient><filter id="luminosity-noclip-2" x="709.3" y="-8732" width="287.84" height="32766" filterUnits="userSpaceOnUse" color-interpolation-filters="sRGB"><feFlood flood-color="#fff" result="bg"/><feBlend in="SourceGraphic" in2="bg"/></filter><mask id="mask-2" x="709.3" y="-8732" width="287.84" height="32766" maskUnits="userSpaceOnUse"><g filter="url(#luminosity-noclip-2)"/></mask><radialGradient id="radial-gradient-2" cx="-299.18" cy="621.98" r="143.92" gradientTransform="matrix(-0.97, -0.23, -0.23, 0.97, 706.02, -52.34)" xlink:href="#radial-gradient"/><radialGradient id="Íîâûé_îáðàçåö_ãðàäèåíòà_1" cx="568.47" cy="464.16" r="450.88" gradientTransform="translate(1091.82 -39.76) rotate(89.58)" gradientUnits="userSpaceOnUse"><stop offset="0" stop-color="#fddb35"/><stop offset="0.48" stop-color="#fdd934"/><stop offset="0.66" stop-color="#fcd232"/><stop offset="0.78" stop-color="#fbc72e"/><stop offset="0.88" stop-color="#fab629"/><stop offset="0.96" stop-color="#f8a022"/><stop offset="1" stop-color="#f7941e"/></radialGradient><filter id="luminosity-noclip-3" x="134.73" y="478.06" width="287.84" height="287.84" filterUnits="userSpaceOnUse" color-interpolation-filters="sRGB"><feFlood flood-color="#fff" result="bg"/><feBlend in="SourceGraphic" in2="bg"/></filter><mask id="mask-3" x="119.73" y="398.84" width="287.84" height="287.84" maskUnits="userSpaceOnUse"><g filter="url(#luminosity-noclip-3)"><g transform="translate(-15 -79.22)"><g mask="url(#mask)"><circle cx="278.65" cy="621.98" r="143.92" transform="translate(-390.91 749.2) rotate(-76.63)" fill="url(#radial-gradient)" style="mix-blend-mode:multiply"/></g></g></g></mask><radialGradient id="radial-gradient-3" cx="278.65" cy="621.98" r="143.92" gradientTransform="translate(819.31 207.01) rotate(76.63)" gradientUnits="userSpaceOnUse"><stop offset="0" stop-color="#ffa482"/><stop offset="0.31" stop-color="#ffa67f"/><stop offset="0.54" stop-color="#ffac76"/><stop offset="0.74" stop-color="#ffb566"/><stop offset="0.93" stop-color="#ffc34f"/><stop offset="1" stop-color="#ffca44"/></radialGradient><filter id="luminosity-noclip-4" x="709.3" y="478.06" width="287.84" height="287.84" filterUnits="userSpaceOnUse" color-interpolation-filters="sRGB"><feFlood flood-color="#fff" result="bg"/><feBlend in="SourceGraphic" in2="bg"/></filter><mask id="mask-4" x="694.3" y="398.84" width="287.84" height="287.84" maskUnits="userSpaceOnUse"><g filter="url(#luminosity-noclip-4)"><g transform="translate(-15 -79.22)"><g mask="url(#mask-2)"><circle cx="853.22" cy="621.98" r="143.92" transform="translate(-120.73 214.23) rotate(-13.37)" fill="url(#radial-gradient-2)" style="mix-blend-mode:multiply"/></g></g></g></mask><radialGradient id="radial-gradient-4" cx="-299.18" cy="621.98" r="143.92" gradientTransform="matrix(-0.97, -0.23, -0.23, 0.97, 706.02, -52.34)" xlink:href="#radial-gradient-3"/><linearGradient id="linear-gradient" x1="295.22" y1="186.75" x2="479.3" y2="370.82" gradientTransform="matrix(-0.97, 0.25, 0.25, 0.97, 1200.17, -166.74)" gradientUnits="userSpaceOnUse"><stop offset="0" stop-color="#ec3676"/><stop offset="1" stop-color="#e3272d"/></linearGradient><linearGradient id="linear-gradient-2" x1="476.6" y1="798.79" x2="660.68" y2="982.87" xlink:href="#linear-gradient"/><linearGradient id="linear-gradient-3" x1="1193.53" y1="271.5" x2="1377.61" y2="455.58" gradientTransform="matrix(-0.75, 0.66, 0.66, 0.75, 870.01, -383.4)" xlink:href="#linear-gradient"/></defs><g style="isolation:isolate"><g id="Layer_1" data-name="Layer 1"><ellipse cx="565.94" cy="530.09" rx="450.87" ry="450.89" transform="translate(16.66 1012.86) rotate(-89.58)" fill="url(#Íîâûé_îáðàçåö_ãðàäèåíòà_1)"/><path d="M1016.83,530.14C1016.83,779.09,814.91,981,566,981a448.31,448.31,0,0,1-264.26-85.55,480.11,480.11,0,0,0,223.18,54.74c266,0,481.69-215.67,481.69-481.67,0-14.48-.62-28.86-1.95-43A450.43,450.43,0,0,1,1016.83,530.14Z" transform="translate(-15 -79.22)" fill="#fbd69e" style="mix-blend-mode:multiply"/><path d="M417.87,388.07a116.9,116.9,0,0,0-91.33,30c-9.35,8.41-23.52,11.7-33.62,5l-.36-.26c-10.08-6.65-9.54-24.94,4.07-37.39a161.26,161.26,0,0,1,126-41.34c18.34,2,29.61,16.38,25.44,27.71,0,.14-.09.28-.14.42C443.75,383.57,430.38,389.3,417.87,388.07Z" transform="translate(-15 -79.22)" fill="#fbd69e" style="mix-blend-mode:multiply"/><path d="M714,388.07a116.88,116.88,0,0,1,91.32,30c9.35,8.41,23.52,11.7,33.62,5a3.32,3.32,0,0,0,.36-.26c10.08-6.65,9.54-24.94-4.07-37.39a161.26,161.26,0,0,0-126-41.34c-18.33,2-29.61,16.38-25.43,27.71,0,.14.09.28.13.42C688.12,383.57,701.49,389.3,714,388.07Z" transform="translate(-15 -79.22)" fill="#fbd69e" style="mix-blend-mode:multiply"/><g mask="url(#mask-3)"><circle cx="278.65" cy="621.98" r="143.92" transform="translate(-405.91 669.98) rotate(-76.63)" fill="url(#radial-gradient-3)" style="mix-blend-mode:darken"/></g><g mask="url(#mask-4)"><circle cx="853.22" cy="621.98" r="143.92" transform="translate(-135.73 135.01) rotate(-13.37)" fill="url(#radial-gradient-4)" style="mix-blend-mode:darken"/></g><path d="M497.7,540.81c-7.57,1.78-15.64.41-22.91-3.49-21.46-11.51-47.54-4.37-52.8-3.5s-32.27,2.48-48.89,20.29c-5.63,6-12.83,9.94-20.58,10.67s-15.54-1.64-17.78-12.22a22,22,0,0,1,1.88-14.21c15.56-30.93,42.28-53.21,75.28-58.66l2.24-.37c33-5.45,65.55,7.1,90.23,31.43a21.81,21.81,0,0,1,6.35,12.94C511.89,534.32,505.22,539,497.7,540.81Z" transform="translate(-15 -79.22)" fill="#87594a"/><path d="M634.18,540.81c7.56,1.78,15.63.41,22.9-3.49,21.46-11.51,47.55-4.37,52.8-3.5s32.27,2.48,48.89,20.29c5.63,6,12.84,9.94,20.58,10.67s15.54-1.64,17.79-12.22a22,22,0,0,0-1.89-14.21C779.7,507.42,753,485.14,720,479.69l-2.24-.37c-33-5.45-65.55,7.1-90.23,31.43a21.86,21.86,0,0,0-6.35,12.94C620,534.32,626.66,539,634.18,540.81Z" transform="translate(-15 -79.22)" fill="#87594a"/><path d="M567.78,738.76h-3.69c-44.41,0-85.12-14.6-116.78-38.87-6.16-4.73-14.84,1.07-12.63,8.52,19.22,64.72,70.1,111,129.86,111h2.79c59.76,0,110.64-46.26,129.87-111,2.21-7.45-6.47-13.25-12.64-8.52C652.9,724.16,612.2,738.76,567.78,738.76Z" transform="translate(-15 -79.22)" fill="#87594a"/><path d="M821.33,90.77a69,69,0,0,1,92.12,44c.25.83.51,1.66.85,2.79l1.68-2.38a69,69,0,0,1,101.25-13.14c24,20.19,31.9,58,18.87,90-7.55,18.56-20,33.65-34.21,47.36-34.66,33.4-74.88,58.93-116.7,82.21a11,11,0,0,1-3.73,1.44,10.91,10.91,0,0,1-3.1-2.53c-32.48-35.15-62.73-71.95-85.26-114.48-9.25-17.47-16.35-35.68-17.75-55.67C772.94,136,792.28,102.49,821.33,90.77Z" transform="translate(-15 -79.22)" fill="url(#linear-gradient)"/><path d="M795.83,728.64a69,69,0,0,1,92.11,44c.25.83.51,1.66.86,2.78.67-1,1.18-1.67,1.67-2.38a69,69,0,0,1,101.26-13.14c23.95,20.19,31.9,58,18.87,90-7.56,18.55-20,33.65-34.21,47.36-34.67,33.39-74.88,58.93-116.7,82.21a4,4,0,0,1-6.83-1.09c-32.48-35.16-62.74-72-85.27-114.49-9.25-17.46-16.35-35.68-17.74-55.66C747.43,773.82,766.78,740.36,795.83,728.64Z" transform="translate(-15 -79.22)" fill="url(#linear-gradient-2)"/><path d="M31.8,675.59a69,69,0,0,1,102.06-2.81c.6.63,1.21,1.25,2,2.09.17-1.16.29-2,.41-2.88a69,69,0,0,1,84.13-57.86c30.52,7,54.84,37.09,57.83,71.51,1.73,20-2.44,39.06-8.85,57.75C253.78,788.92,229.63,830,203,869.76a11.15,11.15,0,0,1-2.67,3,11.11,11.11,0,0,1-3.91-.84c-44.94-16.48-88.64-35.44-128.09-63-16.19-11.32-30.81-24.3-41.17-41.45C9.33,737.87,11.29,699.26,31.8,675.59Z" transform="translate(-15 -79.22)" fill="url(#linear-gradient-3)"/></g></g></svg>