<svg xmlns="http://www.w3.org/2000/svg" xmlns:xlink="http://www.w3.org/1999/xlink" viewBox="0 0 974.72 1011"><defs><radialGradient id="Íîâûé_îáðàçåö_ãðàäèåíòà_1" cx="487.36" cy="411.28" r="487.35" gradientUnits="userSpaceOnUse"><stop offset="0" stop-color="#fddb35"/><stop offset="0.48" stop-color="#fdd934"/><stop offset="0.66" stop-color="#fcd232"/><stop offset="0.78" stop-color="#fbc72e"/><stop offset="0.88" stop-color="#fab629"/><stop offset="0.96" stop-color="#f8a022"/><stop offset="1" stop-color="#f7941e"/></radialGradient><linearGradient id="linear-gradient" x1="555.4" y1="685.16" x2="555.4" y2="1034" gradientUnits="userSpaceOnUse"><stop offset="0" stop-color="#e3272d"/><stop offset="1" stop-color="#ec3676"/></linearGradient></defs><g style="isolation:isolate"><g id="Layer_1" data-name="Layer 1"><ellipse cx="487.36" cy="487.34" rx="487.36" ry="487.34" fill="url(#Íîâûé_îáðàçåö_ãðàäèåíòà_1)"/><path d="M1042.73,510.39c0,269.09-218.25,487.33-487.34,487.33a484.57,484.57,0,0,1-285.64-92.47A518.88,518.88,0,0,0,511,964.42c287.53,0,520.65-233.12,520.65-520.63,0-15.65-.66-31.2-2.11-46.51A486.77,486.77,0,0,1,1042.73,510.39Z" transform="translate(-68.01 -23)" fill="#fbd69e" style="mix-blend-mode:multiply"/><path d="M835.4,654.71A195.44,195.44,0,0,1,818,714.1c-40.46,86.11-141.54,147.1-259.83,147.1h-5.64c-118.21,0-219.29-61-259.75-147.05a197.58,197.58,0,0,1-17.41-59.44c-1.31-10.49,11.28-18.18,23.05-14.31,90.07,29.47,232.37,32.72,256.93,32.72s166.93-3.25,257-32.72C824.11,636.53,836.7,644.22,835.4,654.71Z" transform="translate(-68.01 -23)" fill="#87594a"/><path d="M705.6,837.38v68.09c0,71-60,128.53-133.88,128.53H539.07c-73.93,0-133.88-57.56-133.88-128.53V837.38c0-111.51,22.37-152.22,95.15-152.22q38.61,0,50.08,13.49a20.67,20.67,0,0,1,4.93,13.9,20.33,20.33,0,0,1,4.94-13.82c7.56-9,24.34-13.57,50.16-13.57C683.15,685.16,705.6,725.87,705.6,837.38Z" transform="translate(-68.01 -23)" fill="url(#linear-gradient)"/><path d="M560.29,698.73v94.65c0,4.77-2.14,8.64-4.85,8.64h-.09c-2.71,0-4.93-3.87-4.93-8.64V698.65a20.67,20.67,0,0,1,4.93,13.9A20.33,20.33,0,0,1,560.29,698.73Z" transform="translate(-68.01 -23)" fill="#e6e7e8" style="mix-blend-mode:multiply"/><path d="M628.17,429.39c8.18,1.93,16.9.44,24.76-3.78,23.19-12.44,51.39-4.71,57.07-3.77s34.88,2.68,52.84,21.93c6.09,6.52,13.87,10.73,22.24,11.53s16.8-1.77,19.23-13.21a23.71,23.71,0,0,0-2-15.35c-16.81-33.44-45.7-57.53-81.37-63.42l-2.42-.4c-35.71-5.89-70.85,7.68-97.53,34a23.69,23.69,0,0,0-6.86,14C612.83,422.38,620,427.48,628.17,429.39Z" transform="translate(-68.01 -23)" fill="#87594a"/><ellipse cx="331.44" cy="385.49" rx="147.28" ry="152.31" fill="#fff"/><path d="M454.78,408.49a55.34,55.34,0,1,1-55.33-55.33A55.34,55.34,0,0,1,454.78,408.49Z" transform="translate(-68.01 -23)" fill="#87594a"/></g></g></svg>