<svg xmlns="http://www.w3.org/2000/svg" xmlns:xlink="http://www.w3.org/1999/xlink" viewBox="0 0 982 982"><defs><filter id="luminosity-noclip" x="71.76" y="-8732" width="313.44" height="32766" filterUnits="userSpaceOnUse" color-interpolation-filters="sRGB"><feFlood flood-color="#fff" result="bg"/><feBlend in="SourceGraphic" in2="bg"/></filter><mask id="mask" x="71.76" y="-8732" width="313.44" height="32766" maskUnits="userSpaceOnUse"><g filter="url(#luminosity-noclip)"/></mask><radialGradient id="radial-gradient" cx="228.48" cy="560.79" r="156.72" gradientUnits="userSpaceOnUse"><stop offset="0" stop-color="#fff"/><stop offset="0.18" stop-color="#fcfcfc"/><stop offset="0.31" stop-color="#f3f3f3"/><stop offset="0.43" stop-color="#e3e3e3"/><stop offset="0.54" stop-color="#ccc"/><stop offset="0.64" stop-color="#afafaf"/><stop offset="0.74" stop-color="#8b8b8b"/><stop offset="0.83" stop-color="#616161"/><stop offset="0.92" stop-color="#313131"/><stop offset="1"/></radialGradient><filter id="luminosity-noclip-2" x="722.29" y="-8732" width="313.44" height="32766" filterUnits="userSpaceOnUse" color-interpolation-filters="sRGB"><feFlood flood-color="#fff" result="bg"/><feBlend in="SourceGraphic" in2="bg"/></filter><mask id="mask-2" x="722.29" y="-8732" width="313.44" height="32766" maskUnits="userSpaceOnUse"><g filter="url(#luminosity-noclip-2)"/></mask><radialGradient id="radial-gradient-2" cx="-324.85" cy="560.79" r="156.72" gradientTransform="matrix(-1, 0, 0, 1, 554.16, 0)" xlink:href="#radial-gradient"/><radialGradient id="Íîâûé_îáðàçåö_ãðàäèåíòà_1" cx="556.5" cy="446.18" r="490.99" gradientTransform="translate(1067.58 -39.61) rotate(89.57)" gradientUnits="userSpaceOnUse"><stop offset="0" stop-color="#fddb35"/><stop offset="0.48" stop-color="#fdd934"/><stop offset="0.66" stop-color="#fcd232"/><stop offset="0.78" stop-color="#fbc72e"/><stop offset="0.88" stop-color="#fab629"/><stop offset="0.96" stop-color="#f8a022"/><stop offset="1" stop-color="#f7941e"/></radialGradient><filter id="luminosity-noclip-3" x="71.76" y="404.07" width="313.44" height="313.44" filterUnits="userSpaceOnUse" color-interpolation-filters="sRGB"><feFlood flood-color="#fff" result="bg"/><feBlend in="SourceGraphic" in2="bg"/></filter><mask id="mask-3" x="9.01" y="377.07" width="313.44" height="313.44" maskUnits="userSpaceOnUse"><g filter="url(#luminosity-noclip-3)"><g transform="translate(-62.74 -27)"><g mask="url(#mask)"><circle cx="228.48" cy="560.79" r="156.72" fill="url(#radial-gradient)" style="mix-blend-mode:multiply"/></g></g></g></mask><radialGradient id="radial-gradient-3" cx="165.73" cy="533.79" r="156.72" gradientUnits="userSpaceOnUse"><stop offset="0" stop-color="#ffa482"/><stop offset="0.31" stop-color="#ffa67f"/><stop offset="0.54" stop-color="#ffac76"/><stop offset="0.74" stop-color="#ffb566"/><stop offset="0.93" stop-color="#ffc34f"/><stop offset="1" stop-color="#ffca44"/></radialGradient><filter id="luminosity-noclip-4" x="722.29" y="404.07" width="313.44" height="313.44" filterUnits="userSpaceOnUse" color-interpolation-filters="sRGB"><feFlood flood-color="#fff" result="bg"/><feBlend in="SourceGraphic" in2="bg"/></filter><mask id="mask-4" x="659.54" y="377.07" width="313.44" height="313.44" maskUnits="userSpaceOnUse"><g filter="url(#luminosity-noclip-4)"><g transform="translate(-62.74 -27)"><g mask="url(#mask-2)"><circle cx="879.01" cy="560.79" r="156.72" fill="url(#radial-gradient-2)" style="mix-blend-mode:multiply"/></g></g></g></mask><radialGradient id="radial-gradient-4" cx="-324.85" cy="560.79" r="156.72" gradientTransform="matrix(-1, 0, 0, 1, 491.41, -27)" xlink:href="#radial-gradient-3"/></defs><g style="isolation:isolate"><g id="Layer_1" data-name="Layer 1"><ellipse cx="553.74" cy="517.98" rx="490.98" ry="491" transform="translate(-31.1 1040.85) rotate(-89.57)" fill="url(#Íîâûé_îáðàçåö_ãðàäèåíòà_1)"/><path d="M1044.74,518c0,271.1-219.88,491-491,491A488.23,488.23,0,0,1,266,915.84a522.78,522.78,0,0,0,243,59.61c289.67,0,524.54-234.86,524.54-524.52,0-15.77-.67-31.43-2.12-46.86A490.7,490.7,0,0,1,1044.74,518Z" transform="translate(-62.74 -27)" fill="#fbd69e" style="mix-blend-mode:multiply"/><g mask="url(#mask-3)"><circle cx="165.73" cy="533.79" r="156.72" fill="url(#radial-gradient-3)" style="mix-blend-mode:darken"/></g><g mask="url(#mask-4)"><circle cx="816.26" cy="533.79" r="156.72" fill="url(#radial-gradient-4)" style="mix-blend-mode:darken"/></g><path d="M553.74,731.7c-78.67,0-150.44-24.47-204.92-64.74-17.83-13.18-40.41,8.78-27.67,26.92,49.42,70.34,135.13,116.85,232.59,116.85s183.17-46.51,232.59-116.85c12.75-18.14-9.83-40.1-27.66-26.92C704.18,707.23,632.42,731.7,553.74,731.7Z" transform="translate(-62.74 -27)" fill="#87594a"/><path d="M700.43,487.51H702c20.79,0,39.57,12.72,53.21,33.27,4.11,6.2,11.8,2.68,11.8-5.54v-44c0-63-29.15-114-65.11-114h-1.32c-36,0-65.11,51.05-65.11,114v44c0,8.22,7.69,11.74,11.8,5.54C660.85,500.23,679.64,487.51,700.43,487.51Z" transform="translate(-62.74 -27)" fill="#87594a"/><path d="M405.54,487.51h1.52c20.79,0,39.57,12.72,53.21,33.27,4.11,6.2,11.8,2.68,11.8-5.54v-44c0-63-29.16-114-65.11-114h-1.32c-36,0-65.11,51.05-65.11,114v44c0,8.22,7.69,11.74,11.8,5.54C366,500.23,384.75,487.51,405.54,487.51Z" transform="translate(-62.74 -27)" fill="#87594a"/></g></g></svg>