<svg xmlns="http://www.w3.org/2000/svg" xmlns:xlink="http://www.w3.org/1999/xlink" viewBox="0 0 993 993"><defs><radialGradient id="Íîâûé_îáðàçåö_ãðàäèåíòà_1" cx="498.59" cy="408.52" r="496.49" gradientUnits="userSpaceOnUse"><stop offset="0" stop-color="#fddb35"/><stop offset="0.48" stop-color="#fdd934"/><stop offset="0.66" stop-color="#fcd232"/><stop offset="0.78" stop-color="#fbc72e"/><stop offset="0.88" stop-color="#fab629"/><stop offset="0.96" stop-color="#f8a022"/><stop offset="1" stop-color="#f7941e"/></radialGradient></defs><g style="isolation:isolate"><g id="Layer_1" data-name="Layer 1"><ellipse cx="496.5" cy="496.48" rx="496.5" ry="496.48" fill="url(#Íîâûé_îáðàçåö_ãðàäèåíòà_1)"/><path d="M1051.75,519.53c0,274.13-222.35,496.47-496.49,496.47a493.73,493.73,0,0,1-291-94.2A528.69,528.69,0,0,0,510,982.07c292.92,0,530.42-237.49,530.42-530.39,0-15.95-.68-31.78-2.15-47.39A496.1,496.1,0,0,1,1051.75,519.53Z" transform="translate(-58.74 -23)" fill="#fbd69e" style="mix-blend-mode:multiply"/><path d="M1000.9,320.66H109.59a32.13,32.13,0,0,0-32.17,32.16,16.25,16.25,0,0,0,16.25,16.27c4.24,0,8,3,11,7.16a31.94,31.94,0,0,1,5.32,13.4l22.86,207.66a36,36,0,0,0,35.74,32.06H453c16.34,0,30.69-17.09,34.82-32.89L506,531.25a35.9,35.9,0,0,1,34.65-26.38h28.84c16.37,0,30.58,17.09,34.74,32.91L622.27,603a36.08,36.08,0,0,0,34.62,26.37H941.82c18.37,0,33.74-19.85,35.77-38.12l22.94-207.65a16.22,16.22,0,0,1,16.17-14.51h.12a16.29,16.29,0,0,0,16.25-16.27A32.19,32.19,0,0,0,1000.9,320.66Zm-537.78,109L450.35,551.47a53.89,53.89,0,0,1-53.66,48.32H220.48a53.91,53.91,0,0,1-53.67-48.32L154.05,429.62A53.76,53.76,0,0,1,207.6,370.1h202a53.81,53.81,0,0,1,53.55,59.52ZM943.66,551.47A54,54,0,0,1,890,599.79H713.68a53.85,53.85,0,0,1-53.55-48.32L647.28,429.62a53.88,53.88,0,0,1,53.63-59.52H902.77a53.9,53.9,0,0,1,53.66,59.52Z" transform="translate(-58.74 -23)" fill="#2b2b2b"/><path d="M557.65,778.5h-4.81C495,778.5,442,762.42,400.71,735.7c-8-5.21-19.34,1.18-16.46,9.38,25,71.27,91.32,122.2,169.18,122.2h3.63c77.86,0,144.14-50.93,169.18-122.2,2.88-8.2-8.43-14.59-16.46-9.38C668.54,762.42,615.51,778.5,557.65,778.5Z" transform="translate(-58.74 -23)" fill="#87594a"/><ellipse cx="279.38" cy="460.39" rx="84.18" ry="87.06" fill="#87594a"/><circle cx="279.38" cy="426.64" r="31.63" fill="#fff"/><ellipse cx="713.62" cy="460.39" rx="84.18" ry="87.06" fill="#87594a"/><path d="M804,449.64A31.63,31.63,0,1,1,772.36,418,31.63,31.63,0,0,1,804,449.64Z" transform="translate(-58.74 -23)" fill="#fff"/></g></g></svg>