<svg xmlns="http://www.w3.org/2000/svg" xmlns:xlink="http://www.w3.org/1999/xlink" viewBox="0 0 1001 1001"><defs><radialGradient id="Íîâûé_îáðàçåö_ãðàäèåíòà_1" cx="549.61" cy="432.22" r="500.49" gradientTransform="translate(1070.58 -39.61) rotate(89.57)" gradientUnits="userSpaceOnUse"><stop offset="0" stop-color="#fddb35"/><stop offset="0.48" stop-color="#fdd934"/><stop offset="0.66" stop-color="#fcd232"/><stop offset="0.78" stop-color="#fbc72e"/><stop offset="0.88" stop-color="#fab629"/><stop offset="0.96" stop-color="#f8a022"/><stop offset="1" stop-color="#f7941e"/></radialGradient></defs><g style="isolation:isolate"><g id="Layer_1" data-name="Layer 1"><ellipse cx="555.24" cy="519.48" rx="500.48" ry="500.5" transform="translate(-23.1 1051.84) rotate(-89.57)" fill="url(#Íîâûé_îáðàçåö_ãðàäèåíòà_1)"/><path d="M1055.75,519.53c0,276.34-224.14,500.47-500.49,500.47a497.67,497.67,0,0,1-293.33-95A532.92,532.92,0,0,0,509.66,985.8c295.27,0,534.68-239.4,534.68-534.67,0-16.07-.68-32-2.16-47.76A500,500,0,0,1,1055.75,519.53Z" transform="translate(-54.74 -19)" fill="#fbd69e" style="mix-blend-mode:multiply"/><path d="M647.5,769.73c0,38.87-19.59,72.68-48.43,90A85.27,85.27,0,0,1,560,871.82c-1.57.09-3.15.12-4.75.12s-3.17,0-4.74-.12a85.24,85.24,0,0,1-39.08-12.11c-28.84-17.3-48.43-51.11-48.43-90,0-16.48,3.53-30.85,9.78-42.93,15.16-29.33,46.4-45.2,82.47-45.2s67.32,15.87,82.48,45.2C644,738.88,647.5,753.25,647.5,769.73Z" transform="translate(-54.74 -19)" fill="#87594a"/><ellipse cx="310.79" cy="481.95" rx="94.36" ry="97.59" fill="#87594a"/><path d="M401,463.12a35.46,35.46,0,1,1-35.46-35.45A35.47,35.47,0,0,1,401,463.12Z" transform="translate(-54.74 -19)" fill="#fff"/><path d="M839.32,501c0,53.9-42.25,97.59-94.37,97.59S650.59,554.85,650.59,501s42.25-97.58,94.36-97.58S839.32,447.06,839.32,501Z" transform="translate(-54.74 -19)" fill="#87594a"/><path d="M780.41,463.12A35.46,35.46,0,1,1,745,427.67,35.47,35.47,0,0,1,780.41,463.12Z" transform="translate(-54.74 -19)" fill="#fff"/><path d="M268.87,323.69A129.77,129.77,0,0,1,372.69,299.1c13.73,2.54,29.05-2.56,34.7-14.8l.2-.45c5.67-12.14-5.44-29.15-25.54-33a179,179,0,0,0-143.2,33.92c-16.22,12.49-18.53,32.67-8,41l.38.32C241.76,334.44,257.74,332.11,268.87,323.69Z" transform="translate(-54.74 -19)" fill="#fbd69e" style="mix-blend-mode:multiply"/><path d="M841.62,323.69A129.79,129.79,0,0,0,737.79,299.1c-13.72,2.54-29-2.56-34.7-14.8l-.19-.45c-5.68-12.14,5.44-29.15,25.54-33a179,179,0,0,1,143.2,33.92c16.21,12.49,18.52,32.67,8,41-.12.11-.24.22-.37.32C868.73,334.44,852.75,332.11,841.62,323.69Z" transform="translate(-54.74 -19)" fill="#fbd69e" style="mix-blend-mode:multiply"/></g></g></svg>