<svg xmlns="http://www.w3.org/2000/svg" xmlns:xlink="http://www.w3.org/1999/xlink" viewBox="0 0 998.07 998"><defs><radialGradient id="radial-gradient" cx="550.55" cy="439" r="499" gradientUnits="userSpaceOnUse"><stop offset="0" stop-color="#fddb35"/><stop offset="0.48" stop-color="#fdd934"/><stop offset="0.66" stop-color="#fcd232"/><stop offset="0.78" stop-color="#fbc72e"/><stop offset="0.88" stop-color="#fab629"/><stop offset="0.96" stop-color="#f8a022"/><stop offset="1" stop-color="#f7941e"/></radialGradient></defs><g style="isolation:isolate"><g id="Layer_1" data-name="Layer 1"><path d="M1046.76,512c0,275.59-223.38,499-499,499A499,499,0,0,1,48.73,512c0-275.59,223.47-499,499.06-499S1046.76,236.39,1046.76,512Z" transform="translate(-48.73 -13)" fill="url(#radial-gradient)"/><path d="M1046.79,512c0,275.52-223.47,499-499,499a496.17,496.17,0,0,1-292.46-94.68,531.28,531.28,0,0,0,247,60.58c294.4,0,533.1-238.69,533.1-533.08,0-16-.68-31.94-2.16-47.63A498.34,498.34,0,0,1,1046.79,512Z" transform="translate(-48.73 -13)" fill="#fbd69e" style="mix-blend-mode:multiply"/><ellipse cx="326.74" cy="389.5" rx="94.08" ry="97.3" fill="#87594a"/><circle cx="326.74" cy="351.79" r="35.35" fill="#fff"/><path d="M814.17,402.5c0,53.74-42.13,97.3-94.09,97.3S626,456.24,626,402.5s42.12-97.29,94.08-97.29S814.17,348.77,814.17,402.5Z" transform="translate(-48.73 -13)" fill="#87594a"/><path d="M755.43,364.79a35.35,35.35,0,1,1-35.35-35.35A35.34,35.34,0,0,1,755.43,364.79Z" transform="translate(-48.73 -13)" fill="#fff"/></g></g></svg>