<svg xmlns="http://www.w3.org/2000/svg" xmlns:xlink="http://www.w3.org/1999/xlink" viewBox="0 0 994 994"><defs><radialGradient id="Íîâûé_îáðàçåö_ãðàäèåíòà_1" cx="550.54" cy="439.3" r="496.99" gradientTransform="translate(1055.5 -39.68) rotate(89.56)" gradientUnits="userSpaceOnUse"><stop offset="0" stop-color="#fddb35"/><stop offset="0.48" stop-color="#fdd934"/><stop offset="0.66" stop-color="#fcd232"/><stop offset="0.78" stop-color="#fbc72e"/><stop offset="0.88" stop-color="#fab629"/><stop offset="0.96" stop-color="#f8a022"/><stop offset="1" stop-color="#f7941e"/></radialGradient></defs><g style="isolation:isolate"><g id="Layer_1" data-name="Layer 1"><ellipse cx="547.74" cy="511.98" rx="496.98" ry="497" transform="translate(-19.18 1040.77) rotate(-89.56)" fill="url(#Íîâûé_îáðàçåö_ãðàäèåíòà_1)"/><path d="M1044.74,512c0,274.41-222.56,497-497,497a494.14,494.14,0,0,1-291.28-94.3,529.17,529.17,0,0,0,246,60.34c293.21,0,530.94-237.73,530.94-530.93,0-16-.67-31.81-2.15-47.43A496.51,496.51,0,0,1,1044.74,512Z" transform="translate(-50.74 -15)" fill="#fbd69e" style="mix-blend-mode:multiply"/><path d="M257.21,494.58A43.74,43.74,0,0,1,283.61,505c22.25,18.49,55.65,18.45,62.21,19.06s39.4,6.73,64.66-7.4a43.6,43.6,0,0,1,27.85-5.38c9.45,1.46,18.13,6.25,17.65,18.17A22.46,22.46,0,0,1,449.46,544c-27.92,28.42-66.63,44.38-107.8,40.59l-2.79-.25c-41.22-3.79-76.41-26.59-98.68-59.66A22.29,22.29,0,0,1,236.47,509C238.26,497.37,247.67,494.28,257.21,494.58Z" transform="translate(-50.74 -15)" fill="#87594a"/><path d="M838.28,494.58A43.72,43.72,0,0,0,811.88,505c-22.26,18.49-55.65,18.45-62.21,19.06s-39.41,6.73-64.66-7.4a43.62,43.62,0,0,0-27.86-5.38c-9.45,1.46-18.13,6.25-17.64,18.17A22.46,22.46,0,0,0,646,544c27.92,28.42,66.62,44.38,107.8,40.59l2.79-.25c41.21-3.79,76.4-26.59,98.67-59.66A22.3,22.3,0,0,0,859,509C857.23,497.37,847.82,494.28,838.28,494.58Z" transform="translate(-50.74 -15)" fill="#87594a"/><path d="M309,317.32a128.85,128.85,0,0,1-100.85,32.46c-13.79-1.43-28.56,4.81-33.2,17.37l-.15.46c-4.67,12.46,7.66,28.43,27.86,30.7a177.72,177.72,0,0,0,139.1-44.78c15.08-13.63,15.79-33.79,4.72-41.19l-.39-.29C335,304.56,319.35,308.11,309,317.32Z" transform="translate(-50.74 -15)" fill="#fbd69e" style="mix-blend-mode:multiply"/><path d="M786.5,317.32a128.85,128.85,0,0,0,100.85,32.46c13.79-1.43,28.56,4.81,33.19,17.37l.16.46c4.67,12.46-7.67,28.43-27.87,30.7a177.72,177.72,0,0,1-139.1-44.78C738.65,339.9,738,319.74,749,312.34l.4-.29C760.5,304.56,776.14,308.11,786.5,317.32Z" transform="translate(-50.74 -15)" fill="#fbd69e" style="mix-blend-mode:multiply"/><rect x="375.14" y="741.81" width="243.72" height="66.56" rx="32.95" fill="#87594a"/></g></g></svg>