<svg xmlns="http://www.w3.org/2000/svg" xmlns:xlink="http://www.w3.org/1999/xlink" viewBox="0 0 1013 1013"><defs><radialGradient id="Íîâûé_îáðàçåö_ãðàäèåíòà_1" cx="512.91" cy="438.11" r="506.49" gradientUnits="userSpaceOnUse"><stop offset="0" stop-color="#fddb35"/><stop offset="0.48" stop-color="#fdd934"/><stop offset="0.66" stop-color="#fcd232"/><stop offset="0.78" stop-color="#fbc72e"/><stop offset="0.88" stop-color="#fab629"/><stop offset="0.96" stop-color="#f8a022"/><stop offset="1" stop-color="#f7941e"/></radialGradient></defs><g style="isolation:isolate"><g id="Layer_1" data-name="Layer 1"><ellipse cx="506.5" cy="506.48" rx="506.5" ry="506.48" fill="url(#Íîâûé_îáðàçåö_ãðàäèåíòà_1)"/><path d="M1057.74,539.53c0,279.66-226.82,506.47-506.48,506.47a503.62,503.62,0,0,1-296.85-96.1,539.38,539.38,0,0,0,250.7,61.49c298.82,0,541.1-242.27,541.1-541.08,0-16.26-.69-32.42-2.19-48.34A506,506,0,0,1,1057.74,539.53Z" transform="translate(-44.74 -33)" fill="#fbd69e" style="mix-blend-mode:multiply"/><path d="M279.88,374c31.82,9.89,213.35,74.53,201.66,114s-138.82,90.6-201.66,90.6c-30.69,0,1.46-40.92,40.92-54.07s130.07-33.61,54.07-61.38-93.12-43.84-107.21-52.6S265.31,369.5,279.88,374Z" transform="translate(-44.74 -33)" fill="#87594a"/><path d="M822.61,374C790.79,383.91,609.26,448.55,621,488s138.82,90.6,201.66,90.6c30.69,0-1.46-40.92-40.92-54.07s-130.07-33.61-54.08-61.38,93.13-43.83,107.22-52.6S837.17,369.5,822.61,374Z" transform="translate(-44.74 -33)" fill="#87594a"/><path d="M864.72,719.79a307.49,307.49,0,0,1-14.62,44.29C817,843.72,751.85,907.17,670.32,938.9a329.25,329.25,0,0,1-238.17,0c-81.46-31.77-146.61-95.18-179.77-174.82a311.23,311.23,0,0,1-14.62-44.29,26.12,26.12,0,0,1,25.46-32.26h576C856.18,687.53,868.83,703.39,864.72,719.79Z" transform="translate(-44.74 -33)" fill="#87594a"/><path d="M670.32,938.91a329.34,329.34,0,0,1-238.15,0c23-22.57,67.72-37.87,119.08-37.87S647.33,916.34,670.32,938.91Z" transform="translate(-44.74 -33)" fill="#ee6571"/><path d="M864.72,719.79a307.49,307.49,0,0,1-14.62,44.29H252.38a311.23,311.23,0,0,1-14.62-44.29,26.12,26.12,0,0,1,25.46-32.26h576C856.18,687.53,868.83,703.39,864.72,719.79Z" transform="translate(-44.74 -33)" fill="#fff"/></g></g></svg>