<svg xmlns="http://www.w3.org/2000/svg" xmlns:xlink="http://www.w3.org/1999/xlink" viewBox="0 0 1019.14 1019.14"><defs><radialGradient id="radial-gradient" cx="529.24" cy="454.88" r="509.56" gradientTransform="translate(1059.68 1.2) rotate(89.57)" gradientUnits="userSpaceOnUse"><stop offset="0" stop-color="#fda135"/><stop offset="0.46" stop-color="#fd9f35"/><stop offset="0.62" stop-color="#fc9833"/><stop offset="0.74" stop-color="#fc8d30"/><stop offset="0.83" stop-color="#fb7c2c"/><stop offset="0.92" stop-color="#f96626"/><stop offset="0.99" stop-color="#f74b20"/><stop offset="1" stop-color="#f7451e"/></radialGradient></defs><g style="isolation:isolate"><g id="Layer_1" data-name="Layer 1"><ellipse cx="529.24" cy="534.41" rx="509.55" ry="509.57" transform="translate(-28.78 1034.78) rotate(-89.57)" fill="url(#radial-gradient)"/><path d="M1038.81,534.47c0,281.34-228.2,509.53-509.55,509.53a506.64,506.64,0,0,1-298.65-96.68,542.6,542.6,0,0,0,252.22,61.86c300.62,0,544.37-243.74,544.37-544.36,0-16.36-.69-32.61-2.2-48.63A509.28,509.28,0,0,1,1038.81,534.47Z" transform="translate(-19.67 -24.86)" fill="#fbaa9e" style="mix-blend-mode:multiply"/><ellipse cx="309.28" cy="506.24" rx="167.84" ry="173.58" fill="#fff"/><path d="M392,531.1A63.06,63.06,0,1,1,329,468,63.06,63.06,0,0,1,392,531.1Z" transform="translate(-19.67 -24.86)" fill="#87594a"/><ellipse cx="709.85" cy="506.24" rx="167.84" ry="173.58" fill="#fff"/><circle cx="709.85" cy="506.24" r="63.06" fill="#87594a"/><path d="M342.42,280.18a132.15,132.15,0,0,1,95.86,51.1c8.78,11.18,23.91,17.6,36.47,12.06l.45-.22c12.51-5.45,15.46-25.92,2.72-42.42a182.22,182.22,0,0,0-132.21-70.48c-20.8-1.37-36.15,12.49-33.7,25.91,0,.17.05.33.07.5C314.48,270.14,328.25,279.13,342.42,280.18Z" transform="translate(-19.67 -24.86)" fill="#fbaa9e" style="mix-blend-mode:multiply"/><path d="M716.06,280.18a132.13,132.13,0,0,0-95.86,51.1c-8.78,11.18-23.92,17.6-36.47,12.06l-.45-.22c-12.51-5.45-15.46-25.92-2.73-42.42a182.24,182.24,0,0,1,132.22-70.48c20.79-1.37,36.14,12.49,33.69,25.91,0,.17,0,.33-.07.5C744,270.14,730.23,279.13,716.06,280.18Z" transform="translate(-19.67 -24.86)" fill="#fbaa9e" style="mix-blend-mode:multiply"/><path d="M527.5,819.85H531c41.85,0,80.21,12.67,110,33.73,5.81,4.1,14-.93,11.91-7.39-18.12-56.17-66.06-96.31-122.38-96.31h-2.63c-56.31,0-104.26,40.14-122.37,96.31-2.08,6.46,6.1,11.49,11.91,7.39C447.29,832.52,485.65,819.85,527.5,819.85Z" transform="translate(-19.67 -24.86)" fill="#87594a"/></g></g></svg>