<svg xmlns="http://www.w3.org/2000/svg" xmlns:xlink="http://www.w3.org/1999/xlink" viewBox="0 0 1016.74 1016.74"><defs><radialGradient id="Íîâûé_îáðàçåö_ãðàäèåíòà_1" cx="550.23" cy="459.01" r="508.36" gradientTransform="translate(1076.63 -17.98) rotate(89.57)" gradientUnits="userSpaceOnUse"><stop offset="0" stop-color="#fddb35"/><stop offset="0.48" stop-color="#fdd934"/><stop offset="0.66" stop-color="#fcd232"/><stop offset="0.78" stop-color="#fbc72e"/><stop offset="0.88" stop-color="#fab629"/><stop offset="0.96" stop-color="#f8a022"/><stop offset="1" stop-color="#f7941e"/></radialGradient></defs><g style="isolation:isolate"><g id="Layer_1" data-name="Layer 1"><ellipse cx="547.37" cy="533.35" rx="508.35" ry="508.37" transform="translate(-29.05 1051.73) rotate(-89.57)" fill="url(#Íîâûé_îáðàçåö_ãðàäèåíòà_1)"/><path d="M1055.74,533.41c0,280.68-227.66,508.33-508.35,508.33a505.51,505.51,0,0,1-297.95-96.45A541.32,541.32,0,0,0,501.07,1007c299.92,0,543.1-243.17,543.1-543.08,0-16.33-.7-32.54-2.2-48.52A508,508,0,0,1,1055.74,533.41Z" transform="translate(-39 -25)" fill="#fbd69e" style="mix-blend-mode:multiply"/><ellipse cx="315.68" cy="414" rx="95.85" ry="99.12" fill="#87594a"/><path d="M390.69,400.57a36,36,0,1,1-36-36A36,36,0,0,1,390.69,400.57Z" transform="translate(-39 -25)" fill="#fff"/><path d="M835.91,439c0,54.74-42.91,99.12-95.84,99.12S644.22,493.74,644.22,439s42.91-99.13,95.85-99.13S835.91,384.25,835.91,439Z" transform="translate(-39 -25)" fill="#87594a"/><path d="M776.08,400.57a36,36,0,1,1-36-36A36,36,0,0,1,776.08,400.57Z" transform="translate(-39 -25)" fill="#fff"/><path d="M544.6,693.18h5.55c95.08,0,178.83,56.64,228.13,142.69,4.22,7.38,15.54,2.39,12.67-5.61C750.24,716.88,657.69,637.7,550,637.7h-5.32c-107.66,0-200.2,79.18-240.91,192.56-2.88,8,8.44,13,12.67,5.61C365.76,749.82,449.52,693.18,544.6,693.18Z" transform="translate(-39 -25)" fill="#87594a"/></g></g></svg>