<svg xmlns="http://www.w3.org/2000/svg" xmlns:xlink="http://www.w3.org/1999/xlink" viewBox="0 0 992.23 966.52"><defs><radialGradient id="Íîâûé_îáðàçåö_ãðàäèåíòà_1" cx="546.54" cy="500.64" r="473.57" gradientUnits="userSpaceOnUse"><stop offset="0" stop-color="#fddb35"/><stop offset="0.48" stop-color="#fdd934"/><stop offset="0.66" stop-color="#fcd232"/><stop offset="0.78" stop-color="#fbc72e"/><stop offset="0.88" stop-color="#fab629"/><stop offset="0.96" stop-color="#f8a022"/><stop offset="1" stop-color="#f7941e"/></radialGradient><radialGradient id="radial-gradient" cx="543.88" cy="14216.7" r="577.96" gradientTransform="translate(0 -4900.79) scale(1 0.36)" gradientUnits="userSpaceOnUse"><stop offset="0" stop-color="#2abef8"/><stop offset="0.3" stop-color="#2cacec"/><stop offset="0.71" stop-color="#2d99e0"/><stop offset="1" stop-color="#2e92db"/></radialGradient></defs><g style="isolation:isolate"><g id="Layer_1" data-name="Layer 1"><path d="M1017.47,569.89c0,261.55-212,473.56-473.55,473.56S70.28,831.44,70.28,569.89A473.27,473.27,0,0,1,868.44,225.16a464.76,464.76,0,0,1,68.88,81.11A470.84,470.84,0,0,1,1017.47,569.89Z" transform="translate(-47.77 -77)" fill="url(#Íîâûé_îáðàçåö_ãðàäèåíòà_1)"/><path d="M1017.48,570c0,261.48-212.09,473.56-473.58,473.56a470.82,470.82,0,0,1-277.56-89.86,504.22,504.22,0,0,0,234.41,57.5c279.4,0,505.94-226.53,505.94-505.92,0-15.21-.65-30.32-2.05-45.2A472.72,472.72,0,0,1,1017.48,570Z" transform="translate(-47.77 -77)" fill="#fbd69e" style="mix-blend-mode:multiply"/><path d="M685.37,572.48h1.47c20,0,38.17,12.27,51.32,32.1,4,6,11.38,2.58,11.38-5.35V556.77c0-60.74-28.12-110-62.8-110h-1.27c-34.69,0-62.8,49.25-62.8,110v42.46c0,7.93,7.41,11.32,11.38,5.35C647.2,584.75,665.32,572.48,685.37,572.48Z" transform="translate(-47.77 -77)" fill="#87594a"/><path d="M400.93,572.48h1.47c20.05,0,38.17,12.27,51.32,32.1,4,6,11.38,2.58,11.38-5.35V556.77c0-60.74-28.12-110-62.8-110H401c-34.68,0-62.8,49.25-62.8,110v42.46c0,7.93,7.42,11.32,11.38,5.35C362.76,584.75,380.88,572.48,400.93,572.48Z" transform="translate(-47.77 -77)" fill="#87594a"/><path d="M868.44,225.16c-36.92,34.28-168.22,59.61-324.52,59.61s-287.68-25.33-324.6-59.61a467.75,467.75,0,0,0-68.89,81c90.7,31.56,233.19,51.86,393.49,51.86s302.7-20.3,393.4-51.78A464.76,464.76,0,0,0,868.44,225.16Z" transform="translate(-47.77 -77)" fill="#fbd69e" style="mix-blend-mode:multiply"/><path d="M543.89,77c-274,0-496.12,59.33-496.12,132.52S269.89,342,543.89,342,1040,282.71,1040,209.52,817.88,77,543.89,77Zm0,191.79c-185,0-335-35.48-335-79.25s150-79.24,335-79.24,335,35.48,335,79.24S728.88,268.79,543.89,268.79Z" transform="translate(-47.77 -77)" fill="url(#radial-gradient)"/><path d="M848,692.88A296.79,296.79,0,0,1,829,770.74c-43.93,112.9-153.69,192.85-282.13,192.85h-6.13c-128.36,0-238.12-80-282-192.77a301,301,0,0,1-18.91-77.94,18.25,18.25,0,0,1,25-18.75c97.81,38.63,252.32,42.89,279,42.89s181.26-4.26,279.07-42.89A18.25,18.25,0,0,1,848,692.88Z" transform="translate(-47.77 -77)" fill="#87594a"/><path d="M847.92,692.91a297.16,297.16,0,0,1-18.86,77.84c-79.59,33.88-176.2,53.7-280.24,53.7h-10c-104,0-200.5-19.82-280.09-53.63a302.08,302.08,0,0,1-18.94-77.91,18.31,18.31,0,0,1,25.09-18.78c97.73,38.6,252.28,42.91,279,42.91s181.24-4.31,279-42.91A18.23,18.23,0,0,1,847.92,692.91Z" transform="translate(-47.77 -77)" fill="#fff"/><path d="M264.85,688.52c97.81,38.62,252.32,42.88,279,42.88s181.26-4.26,279.07-42.88A18.2,18.2,0,0,1,847,699.7c.3-2.28.71-4.52,1-6.82a18.25,18.25,0,0,0-25-18.75C725.11,712.76,570.52,717,543.85,717s-181.19-4.26-279-42.89a18.25,18.25,0,0,0-25,18.75c.24,2.3.66,4.53,1,6.81A18.21,18.21,0,0,1,264.85,688.52Z" transform="translate(-47.77 -77)" fill="#87594a"/><path d="M829.06,770.75C785.11,883.66,675.31,963.57,546.9,963.57h-6.08c-128.41,0-238.13-79.91-282.08-192.75,79.59,33.81,176.12,53.63,280.09,53.63h10C652.86,824.45,749.47,804.63,829.06,770.75Z" transform="translate(-47.77 -77)" fill="#fff"/><path d="M538.83,840.43h10c100.44,0,193.9-18.51,271.86-50.27,3-6.36,5.82-12.83,8.38-19.41-79.59,33.88-176.2,53.7-280.24,53.7h-10c-104,0-200.5-19.82-280.09-53.63,2.56,6.59,5.37,13.06,8.38,19.41C345.08,821.92,438.46,840.43,538.83,840.43Z" transform="translate(-47.77 -77)" fill="#87594a"/></g></g></svg>