<svg xmlns="http://www.w3.org/2000/svg" xmlns:xlink="http://www.w3.org/1999/xlink" viewBox="0 0 989 989"><defs><radialGradient id="Íîâûé_îáðàçåö_ãðàäèåíòà_1" cx="541.02" cy="441.61" r="494.49" gradientTransform="translate(1053.75 -22.57) rotate(89.58)" gradientUnits="userSpaceOnUse"><stop offset="0" stop-color="#fddb35"/><stop offset="0.48" stop-color="#fdd934"/><stop offset="0.66" stop-color="#fcd232"/><stop offset="0.78" stop-color="#fbc72e"/><stop offset="0.88" stop-color="#fab629"/><stop offset="0.96" stop-color="#f8a022"/><stop offset="1" stop-color="#f7941e"/></radialGradient><linearGradient id="linear-gradient" x1="237.27" y1="285.69" x2="476.08" y2="524.5" gradientUnits="userSpaceOnUse"><stop offset="0" stop-color="#ec3676"/><stop offset="1" stop-color="#e3272d"/></linearGradient><linearGradient id="linear-gradient-2" x1="450.79" y1="285.69" x2="689.6" y2="524.5" gradientTransform="matrix(-1, 0, 0, 1, 1290.01, 0)" xlink:href="#linear-gradient"/></defs><g style="isolation:isolate"><g id="Layer_1" data-name="Layer 1"><ellipse cx="538.24" cy="519.48" rx="494.48" ry="494.5" transform="translate(-28.93 1028.89) rotate(-89.58)" fill="url(#Íîâûé_îáðàçåö_ãðàäèåíòà_1)"/><path d="M1032.75,519.53c0,273-221.45,494.47-494.49,494.47a491.69,491.69,0,0,1-289.82-93.82,526.66,526.66,0,0,0,244.77,60c291.73,0,528.27-236.53,528.27-528.26,0-15.88-.67-31.65-2.14-47.19A493.75,493.75,0,0,1,1032.75,519.53Z" transform="translate(-43.74 -25)" fill="#fbd69e" style="mix-blend-mode:multiply"/><path d="M412.72,246.56a89.53,89.53,0,0,0-101.8,84.73c-.06,1.13-.11,2.25-.19,3.77-1.16-1-2-1.72-2.87-2.45a89.53,89.53,0,0,0-131.51,15.74c-23.69,33-21.63,83.12,5,119.2,15.41,20.93,35.85,36,58.11,48.66,54.23,30.95,112.94,50.25,173,66.2a14.39,14.39,0,0,0,5.15.62,14.32,14.32,0,0,0,3.09-4.17c29.64-54.55,56-110.47,70.75-171.14,6.06-24.9,9.19-50.07,4.58-75.65C488,288,453,252,412.72,246.56Z" transform="translate(-43.74 -25)" fill="url(#linear-gradient)"/><path d="M420.6,578.86a14.32,14.32,0,0,1-3.09,4.17,14.39,14.39,0,0,1-5.15-.62c-60-15.95-118.72-35.25-173-66.2-22.26-12.7-42.7-27.73-58.11-48.66-21.59-29.3-27-67.85-15.58-99-21.16,33-18.43,80.84,7.24,115.68,15.41,20.93,35.84,36,58.1,48.66,54.24,31,113,50.25,173,66.2a14.42,14.42,0,0,0,5.16.62,14.27,14.27,0,0,0,3.08-4.17q12.51-23,24-46.46Q428.62,564,420.6,578.86Z" transform="translate(-43.74 -25)" fill="#fbd69e" style="mix-blend-mode:multiply"/><path d="M663.76,246.56a89.54,89.54,0,0,1,101.81,84.73c0,1.13.11,2.25.18,3.77l2.88-2.45a89.53,89.53,0,0,1,131.51,15.74c23.69,33,21.63,83.12-4.95,119.2-15.42,20.93-35.85,36-58.11,48.66-54.24,30.95-112.94,50.25-173,66.2A14.39,14.39,0,0,1,659,583a14.14,14.14,0,0,1-3.09-4.17c-29.65-54.55-56-110.47-70.75-171.14-6.07-24.9-9.19-50.07-4.58-75.65C588.51,288,623.5,252,663.76,246.56Z" transform="translate(-43.74 -25)" fill="url(#linear-gradient-2)"/><path d="M655.89,578.86A14.14,14.14,0,0,0,659,583a14.39,14.39,0,0,0,5.15-.62c60-15.95,118.71-35.25,173-66.2,22.26-12.7,42.69-27.73,58.11-48.66,21.58-29.3,27-67.85,15.58-99,21.15,33,18.43,80.84-7.24,115.68-15.41,20.93-35.85,36-58.11,48.66-54.23,31-112.94,50.25-172.95,66.2a14.39,14.39,0,0,1-5.15.62,14.46,14.46,0,0,1-3.09-4.17q-12.51-23-24-46.46Q647.88,564,655.89,578.86Z" transform="translate(-43.74 -25)" fill="#fbd69e" style="mix-blend-mode:multiply"/><path d="M790.39,733.93a175.28,175.28,0,0,1-15.68,53.47c-36.43,77.55-127.45,132.46-234,132.46h-5.08c-106.45,0-197.47-54.91-233.9-132.41a178,178,0,0,1-15.67-53.52c-1.18-9.45,10.16-16.38,20.75-12.89C388,747.58,516.09,750.5,538.21,750.5S688.53,747.58,769.63,721C780.23,717.55,791.57,724.48,790.39,733.93Z" transform="translate(-43.74 -25)" fill="#87594a"/></g></g></svg>