<svg xmlns="http://www.w3.org/2000/svg" xmlns:xlink="http://www.w3.org/1999/xlink" viewBox="0 0 1028 1028"><defs><radialGradient id="Íîâûé_îáðàçåö_ãðàäèåíòà_1" cx="552.63" cy="438.82" r="513.99" gradientTransform="translate(1059.61 -39.58) rotate(89.57)" gradientUnits="userSpaceOnUse"><stop offset="0" stop-color="#fddb35"/><stop offset="0.48" stop-color="#fdd934"/><stop offset="0.66" stop-color="#fcd232"/><stop offset="0.78" stop-color="#fbc72e"/><stop offset="0.88" stop-color="#fab629"/><stop offset="0.96" stop-color="#f8a022"/><stop offset="1" stop-color="#f7941e"/></radialGradient></defs><g style="isolation:isolate"><g id="Layer_1" data-name="Layer 1"><ellipse cx="549.74" cy="513.98" rx="513.98" ry="514" transform="translate(-4.07 1059.87) rotate(-89.57)" fill="url(#Íîâûé_îáðàçåö_ãðàäèåíòà_1)"/><path d="M1063.74,514c0,283.8-230.18,514-514,514a511.14,511.14,0,0,1-301.25-97.52,547.43,547.43,0,0,0,254.42,62.4C806.17,992.88,1052,747,1052,443.79c0-16.51-.71-32.9-2.23-49.06A513.66,513.66,0,0,1,1063.74,514Z" transform="translate(-35.74)" fill="#fbd69e" style="mix-blend-mode:multiply"/><path d="M323.19,315.38a133.26,133.26,0,0,0-94.84,54.89c-8.45,11.57-23.48,18.58-36.34,13.43l-.46-.2c-12.8-5.05-16.5-25.59-4.24-42.67a183.82,183.82,0,0,1,130.8-75.7C339,263,355,276.44,353,290.06c0,.17,0,.33-.05.5C351,304.27,337.44,313.81,323.19,315.38Z" transform="translate(-35.74)" fill="#fbd69e" style="mix-blend-mode:multiply"/><path d="M746.23,375.68A133.28,133.28,0,0,1,846.75,419.3c9.74,10.52,25.47,15.76,37.65,9.16l.43-.25c12.14-6.49,13.45-27.32-.69-42.87A183.79,183.79,0,0,0,745.5,325.18c-21,.3-35.33,15.48-31.79,28.78,0,.16.08.33.11.49C717.33,367.85,731.9,375.76,746.23,375.68Z" transform="translate(-35.74)" fill="#fbd69e" style="mix-blend-mode:multiply"/><path d="M627.53,526.2c8.63,2,17.83.46,26.12-4,24.46-13.13,54.19-5,60.19-4s36.78,2.83,55.73,23.13c6.42,6.88,14.63,11.33,23.46,12.16s17.71-1.87,20.27-13.93a25,25,0,0,0-2.15-16.19c-17.73-35.27-48.2-60.67-85.82-66.88l-2.55-.42c-37.66-6.21-74.72,8.09-102.85,35.83a24.87,24.87,0,0,0-7.24,14.75C611.36,518.8,619,524.18,627.53,526.2Z" transform="translate(-35.74)" fill="#87594a"/><path d="M551.85,751.86h-4.21c-50.63,0-97-16.65-133.13-44.32-7-5.39-16.92,1.23-14.4,9.72C422,791,480,843.77,548.15,843.77h3.18c68.13,0,126.13-52.73,148-126.51,2.53-8.49-7.37-15.11-14.4-9.72C648.88,735.21,602.48,751.86,551.85,751.86Z" transform="translate(-35.74)" fill="#87594a"/><ellipse cx="350.57" cy="504.16" rx="88.24" ry="91.25" fill="#87594a"/><path d="M419.46,468.79a33.15,33.15,0,1,1-33.15-33.15A33.15,33.15,0,0,1,419.46,468.79Z" transform="translate(-35.74)" fill="#fff"/></g></g></svg>