<svg xmlns="http://www.w3.org/2000/svg" xmlns:xlink="http://www.w3.org/1999/xlink" viewBox="0 0 1011 1011"><defs><filter id="luminosity-noclip" x="68.82" y="-8732" width="322.7" height="32766" filterUnits="userSpaceOnUse" color-interpolation-filters="sRGB"><feFlood flood-color="#fff" result="bg"/><feBlend in="SourceGraphic" in2="bg"/></filter><mask id="mask" x="68.82" y="-8732" width="322.7" height="32766" maskUnits="userSpaceOnUse"><g filter="url(#luminosity-noclip)"/></mask><radialGradient id="radial-gradient" cx="230.17" cy="643.49" r="161.35" gradientTransform="translate(522.43 25.72) rotate(45)" gradientUnits="userSpaceOnUse"><stop offset="0" stop-color="#fff"/><stop offset="0.18" stop-color="#fcfcfc"/><stop offset="0.31" stop-color="#f3f3f3"/><stop offset="0.43" stop-color="#e3e3e3"/><stop offset="0.54" stop-color="#ccc"/><stop offset="0.64" stop-color="#afafaf"/><stop offset="0.74" stop-color="#8b8b8b"/><stop offset="0.83" stop-color="#616161"/><stop offset="0.92" stop-color="#313131"/><stop offset="1"/></radialGradient><filter id="luminosity-noclip-2" x="712.97" y="-8732" width="322.7" height="32766" filterUnits="userSpaceOnUse" color-interpolation-filters="sRGB"><feFlood flood-color="#fff" result="bg"/><feBlend in="SourceGraphic" in2="bg"/></filter><mask id="mask-2" x="712.97" y="-8732" width="322.7" height="32766" maskUnits="userSpaceOnUse"><g filter="url(#luminosity-noclip-2)"/></mask><radialGradient id="radial-gradient-2" cx="-320.28" cy="643.49" r="161.35" gradientTransform="matrix(-0.71, -0.71, -0.71, 0.71, 1102.86, -38)" xlink:href="#radial-gradient"/><radialGradient id="Íîâûé_îáðàçåö_ãðàäèåíòà_1" cx="555.09" cy="466.56" r="505.49" gradientTransform="translate(1088.46 -15.91) rotate(89.56)" gradientUnits="userSpaceOnUse"><stop offset="0" stop-color="#fddb35"/><stop offset="0.48" stop-color="#fdd934"/><stop offset="0.66" stop-color="#fcd232"/><stop offset="0.78" stop-color="#fbc72e"/><stop offset="0.88" stop-color="#fab629"/><stop offset="0.96" stop-color="#f8a022"/><stop offset="1" stop-color="#f7941e"/></radialGradient><filter id="luminosity-noclip-3" x="68.82" y="482.14" width="322.7" height="322.7" filterUnits="userSpaceOnUse" color-interpolation-filters="sRGB"><feFlood flood-color="#fff" result="bg"/><feBlend in="SourceGraphic" in2="bg"/></filter><mask id="mask-3" x="22.07" y="447.14" width="322.7" height="322.7" maskUnits="userSpaceOnUse"><g filter="url(#luminosity-noclip-3)"><g transform="translate(-46.74 -35)"><g mask="url(#mask)"><circle cx="230.17" cy="643.49" r="161.35" transform="translate(-387.6 351.23) rotate(-45)" fill="url(#radial-gradient)" style="mix-blend-mode:multiply"/></g></g></g></mask><radialGradient id="radial-gradient-3" cx="230.17" cy="643.49" r="161.35" gradientTransform="translate(522.43 25.72) rotate(45)" gradientUnits="userSpaceOnUse"><stop offset="0" stop-color="#ffa482"/><stop offset="0.31" stop-color="#ffa67f"/><stop offset="0.54" stop-color="#ffac76"/><stop offset="0.74" stop-color="#ffb566"/><stop offset="0.93" stop-color="#ffc34f"/><stop offset="1" stop-color="#ffca44"/></radialGradient><filter id="luminosity-noclip-4" x="712.97" y="482.14" width="322.7" height="322.7" filterUnits="userSpaceOnUse" color-interpolation-filters="sRGB"><feFlood flood-color="#fff" result="bg"/><feBlend in="SourceGraphic" in2="bg"/></filter><mask id="mask-4" x="666.23" y="447.14" width="322.7" height="322.7" maskUnits="userSpaceOnUse"><g filter="url(#luminosity-noclip-4)"><g transform="translate(-46.74 -35)"><g mask="url(#mask-2)"><circle cx="874.32" cy="643.49" r="161.35" transform="translate(-198.94 806.71) rotate(-45)" fill="url(#radial-gradient-2)" style="mix-blend-mode:multiply"/></g></g></g></mask><radialGradient id="radial-gradient-4" cx="-320.28" cy="643.49" r="161.35" gradientTransform="matrix(-0.71, -0.71, -0.71, 0.71, 1102.86, -38)" xlink:href="#radial-gradient-3"/></defs><g style="isolation:isolate"><g id="Layer_1" data-name="Layer 1"><ellipse cx="552.24" cy="540.48" rx="505.48" ry="505.5" transform="translate(-39.22 1053.55) rotate(-89.56)" fill="url(#Íîâûé_îáðàçåö_ãðàäèåíòà_1)"/><path d="M1057.74,540.53c0,279.1-226.37,505.47-505.48,505.47A502.61,502.61,0,0,1,256,950.09a538.2,538.2,0,0,0,250.2,61.37c298.23,0,540-241.8,540-540,0-16.24-.69-32.36-2.19-48.24A505,505,0,0,1,1057.74,540.53Z" transform="translate(-46.74 -35)" fill="#fbd69e" style="mix-blend-mode:multiply"/><path d="M386.24,381.26a131.09,131.09,0,0,0-102.39,33.6c-10.48,9.43-26.37,13.13-37.69,5.57l-.41-.29c-11.29-7.46-10.69-28,4.57-41.92a180.78,180.78,0,0,1,141.21-46.35c20.56,2.2,33.2,18.36,28.52,31.06l-.15.48C415.26,376.21,400.27,382.64,386.24,381.26Z" transform="translate(-46.74 -35)" fill="#fbd69e" style="mix-blend-mode:multiply"/><path d="M718.25,381.26a131.11,131.11,0,0,1,102.39,33.6c10.48,9.43,26.36,13.13,37.69,5.57l.4-.29c11.3-7.46,10.7-28-4.56-41.92A180.79,180.79,0,0,0,713,331.87c-20.56,2.2-33.2,18.36-28.52,31.06.05.16.1.32.16.48C689.23,376.21,704.22,382.64,718.25,381.26Z" transform="translate(-46.74 -35)" fill="#fbd69e" style="mix-blend-mode:multiply"/><g mask="url(#mask-3)"><circle cx="230.17" cy="643.49" r="161.35" transform="translate(-434.35 316.23) rotate(-45)" fill="url(#radial-gradient-3)" style="mix-blend-mode:darken"/></g><g mask="url(#mask-4)"><circle cx="874.32" cy="643.49" r="161.35" transform="translate(-245.68 771.71) rotate(-45)" fill="url(#radial-gradient-4)" style="mix-blend-mode:darken"/></g><path d="M475.74,552.5c-8.49,2-17.53.45-25.68-3.92-24.06-12.91-53.3-4.89-59.2-3.92s-36.18,2.78-54.81,22.75c-6.31,6.76-14.39,11.14-23.07,12s-17.42-1.84-19.94-13.71a24.59,24.59,0,0,1,2.12-15.92c17.43-34.68,47.4-59.66,84.4-65.77l2.51-.41c37-6.11,73.48,7.95,101.15,35.23a24.53,24.53,0,0,1,7.12,14.51C491.65,545.22,484.17,550.51,475.74,552.5Z" transform="translate(-46.74 -35)" fill="#87594a"/><path d="M628.75,552.5c8.48,2,17.53.45,25.68-3.92,24.06-12.91,53.3-4.89,59.2-3.92s36.17,2.78,54.81,22.75c6.31,6.76,14.38,11.14,23.07,12s17.42-1.84,19.93-13.71a24.58,24.58,0,0,0-2.11-15.92c-17.44-34.68-47.4-59.66-84.4-65.77l-2.51-.41c-37-6.11-73.49,7.95-101.16,35.23a24.46,24.46,0,0,0-7.11,14.51C612.84,545.22,620.32,550.51,628.75,552.5Z" transform="translate(-46.74 -35)" fill="#87594a"/><path d="M554.31,774.42h-4.14c-49.79,0-95.43-16.37-130.92-43.58-6.91-5.3-16.64,1.2-14.16,9.55C426.64,813,483.68,864.81,550.68,864.81h3.13c67,0,124-51.86,145.59-124.42,2.48-8.35-7.25-14.85-14.16-9.55C649.74,758.05,604.1,774.42,554.31,774.42Z" transform="translate(-46.74 -35)" fill="#87594a"/></g></g></svg>