<svg xmlns="http://www.w3.org/2000/svg" xmlns:xlink="http://www.w3.org/1999/xlink" viewBox="0 0 986 986"><defs><radialGradient id="Íîâûé_îáðàçåö_ãðàäèåíòà_1" cx="549.82" cy="424.64" r="492.99" gradientTransform="translate(1055.82 -39.39) rotate(89.59)" gradientUnits="userSpaceOnUse"><stop offset="0" stop-color="#fddb35"/><stop offset="0.48" stop-color="#fdd934"/><stop offset="0.66" stop-color="#fcd232"/><stop offset="0.78" stop-color="#fbc72e"/><stop offset="0.88" stop-color="#fab629"/><stop offset="0.96" stop-color="#f8a022"/><stop offset="1" stop-color="#f7941e"/></radialGradient></defs><g style="isolation:isolate"><g id="Layer_1" data-name="Layer 1"><ellipse cx="547.74" cy="511.98" rx="492.98" ry="493" transform="translate(-22.87 1037.07) rotate(-89.59)" fill="url(#Íîâûé_îáðàçåö_ãðàäèåíòà_1)"/><path d="M1040.75,512c0,272.2-220.78,493-493,493a490.2,490.2,0,0,1-288.94-93.54,525,525,0,0,0,244,59.85c290.85,0,526.68-235.81,526.68-526.65,0-15.84-.68-31.56-2.14-47.05A492.43,492.43,0,0,1,1040.75,512Z" transform="translate(-54.74 -19)" fill="#fbd69e" style="mix-blend-mode:multiply"/><path d="M443.59,543.77l12.68-121a53.42,53.42,0,0,0-53.17-59.1H202.55a53.37,53.37,0,0,0-53.17,59.1l12.67,121a53.49,53.49,0,0,0,47,47.57l7.95.41H390.31A53.51,53.51,0,0,0,443.59,543.77Z" transform="translate(-54.74 -19)" fill="#414042"/><polygon points="222.96 344.67 257.08 344.67 104.41 497.34 101.19 466.45 222.96 344.67" fill="#939598"/><path d="M442.83,381.36a4.48,4.48,0,0,1,.36.42l-209.95,210H215.33a53.45,53.45,0,0,1-44.93-24.39L374.07,363.67h29A53.69,53.69,0,0,1,442.83,381.36Z" transform="translate(-54.74 -19)" fill="#939598"/><path d="M990.25,314.56h-885A32,32,0,0,0,73.29,346.5a16.1,16.1,0,0,0,16.14,16.14c4.16,0,7.9,3.08,10.9,7.15a30.82,30.82,0,0,1,5.24,13.31l22.71,206.22A35.69,35.69,0,0,0,163.8,621.1H446.22c16.22,0,30.52-17,34.6-32.61l18-64.8a35.79,35.79,0,0,1,34.44-26.21h28.61c16.23,0,30.37,17,34.53,32.7L610.17,580l4.16,15a35.73,35.73,0,0,0,34.36,26.12H931.6c18.22,0,33.53-19.72,35.53-37.85l11.14-100.82,11.65-105.32A16.13,16.13,0,0,1,1006,362.64h.09a16.09,16.09,0,0,0,16.13-16.14A32,32,0,0,0,990.25,314.56Zm-534,108.22-12.73,121a53.48,53.48,0,0,1-53.23,48H215.37a53.51,53.51,0,0,1-53.32-48l-12.64-121a53.32,53.32,0,0,1,53.15-59.06H403.13a53.44,53.44,0,0,1,53.15,59.06Zm489.8,0-12.64,121a53.7,53.7,0,0,1-53.33,48h-175a53.55,53.55,0,0,1-53.24-48l-12.73-121a53.46,53.46,0,0,1,53.24-59.06H892.84a53.46,53.46,0,0,1,53.24,59.06Z" transform="translate(-54.74 -19)" fill="#2b2b2b"/><path d="M946.08,422.78l-12.64,121a53.7,53.7,0,0,1-53.33,48h-175a53.55,53.55,0,0,1-51.24-38.1v-.08a47.43,47.43,0,0,1-2-9.81l-5.32-50.25L643,460.13l-3.91-37.35a53.46,53.46,0,0,1,53.24-59.06H892.84a53.63,53.63,0,0,1,39.76,17.64,53.6,53.6,0,0,1,13.48,41.42Z" transform="translate(-54.74 -19)" fill="#414042"/><polygon points="732.87 344.72 591.78 474.49 588.29 441.13 693.1 344.72 732.87 344.72" fill="#939598"/><path d="M936.93,386.85,714.16,591.73h-9.07a53.55,53.55,0,0,1-51.24-38.1v-.08L860.23,363.72h32.61a53.63,53.63,0,0,1,39.76,17.64A53,53,0,0,1,936.93,386.85Z" transform="translate(-54.74 -19)" fill="#939598"/><path d="M547.74,798.09c-71.84,0-137.37-22.35-187.12-59.12-16.28-12-36.9,8-25.26,24.59,45.12,64.22,123.39,106.7,212.38,106.7S715,827.78,760.13,763.56c11.64-16.57-9-36.62-25.26-24.59C685.12,775.74,619.58,798.09,547.74,798.09Z" transform="translate(-54.74 -19)" fill="#87594a"/></g></g></svg>