<svg xmlns="http://www.w3.org/2000/svg" xmlns:xlink="http://www.w3.org/1999/xlink" viewBox="0 0 997.97 998"><defs><radialGradient id="Íîâûé_îáðàçåö_ãðàäèåíòà_1" cx="549.84" cy="453.68" r="498.99" gradientUnits="userSpaceOnUse"><stop offset="0" stop-color="#fddb35"/><stop offset="0.48" stop-color="#fdd934"/><stop offset="0.66" stop-color="#fcd232"/><stop offset="0.78" stop-color="#fbc72e"/><stop offset="0.88" stop-color="#fab629"/><stop offset="0.96" stop-color="#f8a022"/><stop offset="1" stop-color="#f7941e"/></radialGradient><linearGradient id="linear-gradient" x1="215.12" y1="749.13" x2="397.57" y2="749.13" gradientUnits="userSpaceOnUse"><stop offset="0" stop-color="#2e92db"/><stop offset="0.04" stop-color="#2d99df"/><stop offset="0.2" stop-color="#2caded"/><stop offset="0.35" stop-color="#2abaf5"/><stop offset="0.5" stop-color="#2abef8"/><stop offset="0.65" stop-color="#2abaf5"/><stop offset="0.8" stop-color="#2caded"/><stop offset="0.96" stop-color="#2d98df"/><stop offset="1" stop-color="#2e92db"/></linearGradient><linearGradient id="linear-gradient-2" x1="-316.27" y1="749.13" x2="-133.82" y2="749.13" gradientTransform="matrix(-1, 0, 0, 1, 564, 0)" xlink:href="#linear-gradient"/></defs><g style="isolation:isolate"><g id="Layer_1" data-name="Layer 1"><path d="M1046.72,540c0,275.57-223.37,498.94-499,498.94A496.38,496.38,0,0,1,215.12,911.84C113,820.57,48.75,687.79,48.75,540c0-275.58,223.37-499,499-499S1046.72,264.45,1046.72,540Z" transform="translate(-48.75 -41)" fill="url(#Íîâûé_îáðàçåö_ãðàäèåíòà_1)"/><path d="M1046.72,540.05c0,275.5-223.46,499-499,499A496.11,496.11,0,0,1,255.3,944.32a531.27,531.27,0,0,0,247,60.58c294.38,0,533.06-238.67,533.06-533,0-16-.68-31.93-2.16-47.62A498.26,498.26,0,0,1,1046.72,540.05Z" transform="translate(-48.75 -41)" fill="#fbd69e" style="mix-blend-mode:multiply"/><path d="M649.17,821.77c0,36.2-9.75,69.2-25.81,94.21-1.77,2.73-3.56,5.36-5.49,7.89a110.2,110.2,0,0,1-22,22.35C583,955.93,568.43,961.89,553,963c-.87.06-1.73.1-2.63.13s-1.73,0-2.6,0-1.76,0-2.63,0-1.72-.07-2.59-.13c-15.5-1.1-30.07-7.06-43-16.77a109.86,109.86,0,0,1-21.92-22.32c-1.93-2.53-3.73-5.16-5.49-7.88-16.07-25-25.81-58-25.81-94.25,0-19.72,2.89-37.22,8.11-52.42.8-2.4,1.7-4.73,2.63-7,16.67-40.55,51-62.5,90.68-62.5s74,21.95,90.68,62.5c.94,2.26,1.8,4.59,2.63,7C646.27,784.55,649.17,802.05,649.17,821.77Z" transform="translate(-48.75 -41)" fill="#87594a"/><path d="M293.49,405a129.41,129.41,0,0,0-92.17,53.11c-8.23,11.23-22.83,18-35.3,13l-.45-.2c-12.41-4.93-16-24.87-4-41.43a178.43,178.43,0,0,1,127.12-73.25c20.3-2,35.77,11.06,33.81,24.27,0,.16,0,.33-.05.49C320.51,394.22,307.33,403.46,293.49,405Z" transform="translate(-48.75 -41)" fill="#fbd69e" style="mix-blend-mode:multiply"/><path d="M802,405a129.41,129.41,0,0,1,92.17,53.11c8.23,11.23,22.84,18,35.3,13l.45-.2c12.42-4.93,16-24.87,4-41.43a178.45,178.45,0,0,0-127.12-73.25c-20.31-2-35.78,11.06-33.82,24.27,0,.16,0,.33,0,.49C775,394.22,788.14,403.46,802,405Z" transform="translate(-48.75 -41)" fill="#fbd69e" style="mix-blend-mode:multiply"/><path d="M641.05,769.35a338.25,338.25,0,0,1-186.62,0c.8-2.4,1.7-4.73,2.63-7,16.67-40.55,51-62.5,90.68-62.5s74,21.95,90.68,62.5C639.36,764.62,640.22,767,641.05,769.35Z" transform="translate(-48.75 -41)" fill="#fff"/><path d="M397.57,482.27V1016A497.6,497.6,0,0,1,215.12,911.84V552.07Z" transform="translate(-48.75 -41)" fill="url(#linear-gradient)"/><path d="M697.82,482.27V1016A497.6,497.6,0,0,0,880.27,911.84V552.07Z" transform="translate(-48.75 -41)" fill="url(#linear-gradient-2)"/><path d="M617.87,923.87a110.2,110.2,0,0,1-22,22.35C583,955.93,568.43,961.89,553,963c-.87.06-1.73.1-2.63.13s-1.73,0-2.6,0-1.76,0-2.63,0-1.72-.07-2.59-.13c-15.5-1.1-30.07-7.06-43-16.77a109.86,109.86,0,0,1-21.92-22.32,180.43,180.43,0,0,1,140.25,0Z" transform="translate(-48.75 -41)" fill="#ee6571"/><path d="M745.78,524.66c46,0,87.63,13.81,118,36.17,7.92,5.84,18.73-1.8,16.16-11.3-15.51-57.38-69.63-99.76-134.14-99.76s-118.63,42.38-134.14,99.76c-2.57,9.5,8.24,17.14,16.16,11.3C658.15,538.47,699.79,524.66,745.78,524.66Z" transform="translate(-48.75 -41)" fill="#87594a"/><path d="M349.68,524.66c-46,0-87.63,13.81-118,36.17-7.92,5.84-18.73-1.8-16.16-11.3,15.52-57.38,69.63-99.76,134.14-99.76s118.63,42.38,134.14,99.76c2.57,9.5-8.23,17.14-16.15,11.3C437.31,538.47,395.67,524.66,349.68,524.66Z" transform="translate(-48.75 -41)" fill="#87594a"/></g></g></svg>