<svg xmlns="http://www.w3.org/2000/svg" xmlns:xlink="http://www.w3.org/1999/xlink" viewBox="0 0 1013.79 1013.72"><defs><radialGradient id="radial-gradient" cx="528.73" cy="457.72" r="506.86" gradientUnits="userSpaceOnUse"><stop offset="0" stop-color="#fda135"/><stop offset="0.46" stop-color="#fd9f35"/><stop offset="0.62" stop-color="#fc9833"/><stop offset="0.74" stop-color="#fc8d30"/><stop offset="0.83" stop-color="#fb7c2c"/><stop offset="0.92" stop-color="#f96626"/><stop offset="0.99" stop-color="#f74b20"/><stop offset="1" stop-color="#f7451e"/></radialGradient></defs><g style="isolation:isolate"><g id="Layer_1" data-name="Layer 1"><path d="M1032.76,531.84c0,279.93-226.9,506.84-506.84,506.84A506.87,506.87,0,0,1,19,531.84C19,251.91,246,25,525.92,25S1032.76,251.91,1032.76,531.84Z" transform="translate(-19 -25)" fill="url(#radial-gradient)"/><path d="M1032.79,531.88c0,279.86-227,506.84-506.86,506.84a504,504,0,0,1-297.07-96.17,539.64,539.64,0,0,0,250.89,61.54c299,0,541.5-242.46,541.5-541.48,0-16.28-.69-32.45-2.19-48.38A506.63,506.63,0,0,1,1032.79,531.88Z" transform="translate(-19 -25)" fill="#fbaa9e" style="mix-blend-mode:multiply"/><path d="M333.22,418.29A131.41,131.41,0,0,1,425,475.39c8,11.68,22.56,19.06,35.39,14.4l.47-.19c12.77-4.57,17.07-24.7,5.53-41.92a181.32,181.32,0,0,0-126.53-78.76c-20.54-2.75-36.7,10-35.17,23.47,0,.17,0,.33,0,.5C306.15,406.46,319.22,416.29,333.22,418.29Z" transform="translate(-19 -25)" fill="#fbaa9e" style="mix-blend-mode:multiply"/><path d="M718.63,418.29a131.45,131.45,0,0,0-91.74,57.1c-8,11.68-22.56,19.06-35.39,14.4l-.46-.19c-12.78-4.57-17.07-24.7-5.53-41.92A181.3,181.3,0,0,1,712,368.92c20.55-2.75,36.71,10,35.17,23.47l0,.5C745.69,406.46,732.62,416.29,718.63,418.29Z" transform="translate(-19 -25)" fill="#fbaa9e" style="mix-blend-mode:multiply"/><ellipse cx="348.8" cy="541.04" rx="78.64" ry="81.33" fill="#87594a"/><path d="M397.35,534.51A29.55,29.55,0,1,1,367.8,505,29.55,29.55,0,0,1,397.35,534.51Z" transform="translate(-19 -25)" fill="#fff"/><path d="M762.67,566c0,44.92-35.21,81.33-78.65,81.33S605.38,611,605.38,566,640.59,484.7,684,484.7,762.67,521.12,762.67,566Z" transform="translate(-19 -25)" fill="#87594a"/><path d="M713.57,534.51A29.55,29.55,0,1,1,684,505,29.55,29.55,0,0,1,713.57,534.51Z" transform="translate(-19 -25)" fill="#fff"/><rect x="106.33" y="658.71" width="801.11" height="259.63" fill="#212722"/><path d="M170,756.55h4.24q8.85,0,10.06,10.75v71.88l-.51.51H180q-7.72,0-10.25-8.67l-.26-3.22V757Zm0,92.7h2.85q8.22,0,10.94,7l.51,3v10.75l-.51.45h-3.48q-7.78,0-10.31-7.91l-.45-4v-8.86Z" transform="translate(-19 -25)" fill="#fff"/><path d="M210.58,756.55h29.17q19.11,0,26.07,17.71a36.77,36.77,0,0,1,1.39,8.86v11.2q0,11.52-10.44,20.5a30.67,30.67,0,0,1-11.45,4.88v23.79l-.44.44h-3q-7.72,0-10.76-8.16l-.44-3.23V814.13q0-6.78,7.21-8.86,11.21,0,14.49-10.95l.44-5.12v-3q0-11.58-10.94-14.68l-7-.51H219.69q-6.51,0-9.11-7l-.44-4v-3Zm20.75,93h4.18q7.1,0,9.56,7.41a9.5,9.5,0,0,1,.5,3.73v9.36l-.5.45h-3.93c-4.6,0-7.86-2.49-9.81-7.47l-.44-4.18V850Z" transform="translate(-19 -25)" fill="#fff"/><path d="M293,756.55h4.24q8.87,0,10.06,10.75v71.88l-.5.51H303q-7.72,0-10.26-8.67l-.25-3.22V757Zm0,92.7h2.85c5.49,0,9.13,2.34,10.95,7l.5,3v10.75l-.5.45h-3.48q-7.78,0-10.32-7.91l-.44-4v-8.86Z" transform="translate(-19 -25)" fill="#fff"/><path d="M333.59,756.55h29.17q19.11,0,26.07,17.71a37.28,37.28,0,0,1,1.39,8.86v11.2q0,11.52-10.44,20.5a30.64,30.64,0,0,1-11.46,4.88v23.79l-.44.44h-3q-7.71,0-10.75-8.16l-.44-3.23V814.13q0-6.78,7.21-8.86,11.19,0,14.49-10.95l.44-5.12v-3q0-11.58-11-14.68l-7-.51H342.7q-6.52,0-9.11-7l-.45-4v-3Zm20.75,93h4.18q7.08,0,9.55,7.41a9.27,9.27,0,0,1,.51,3.73v9.36l-.51.45h-3.92q-6.9,0-9.81-7.47l-.44-4.18V850Z" transform="translate(-19 -25)" fill="#fff"/><path d="M416,756.55h4.24q8.87,0,10.06,10.75v71.88l-.51.51H426q-7.71,0-10.25-8.67l-.25-3.22V757Zm0,92.7h2.85q8.22,0,10.94,7l.51,3v10.75l-.51.45h-3.48q-7.77,0-10.31-7.91l-.44-4v-8.86Z" transform="translate(-19 -25)" fill="#fff"/><path d="M456.59,756.55h29.17q19.11,0,26.07,17.71a36.77,36.77,0,0,1,1.39,8.86v11.2q0,11.52-10.44,20.5a30.6,30.6,0,0,1-11.45,4.88v23.79l-.44.44h-3q-7.71,0-10.75-8.16l-.45-3.23V814.13q0-6.78,7.22-8.86,11.19,0,14.49-10.95l.44-5.12v-3q0-11.58-10.95-14.68l-7-.51H465.71q-6.52,0-9.12-7l-.44-4v-3Zm20.76,93h4.17q7.1,0,9.56,7.41a9.27,9.27,0,0,1,.51,3.73v9.36l-.51.45h-3.92q-6.9,0-9.81-7.47l-.45-4.18V850Z" transform="translate(-19 -25)" fill="#fff"/><path d="M539,756.55h4.24q8.85,0,10.06,10.75v71.88l-.51.51H549q-7.72,0-10.25-8.67l-.25-3.22V757Zm0,92.7h2.85q8.22,0,10.94,7l.51,3v10.75l-.51.45h-3.48q-7.78,0-10.31-7.91l-.44-4v-8.86Z" transform="translate(-19 -25)" fill="#fff"/><path d="M579.6,756.55h29.17q19.11,0,26.07,17.71a36.77,36.77,0,0,1,1.39,8.86v11.2q0,11.52-10.44,20.5a30.67,30.67,0,0,1-11.45,4.88v23.79l-.44.44h-3q-7.73,0-10.76-8.16l-.44-3.23V814.13q0-6.78,7.21-8.86,11.21,0,14.49-10.95l.45-5.12v-3q0-11.58-10.95-14.68l-7-.51H588.71q-6.51,0-9.11-7l-.44-4v-3Zm20.76,93h4.17q7.1,0,9.56,7.41a9.5,9.5,0,0,1,.5,3.73v9.36l-.5.45h-3.93q-6.9,0-9.8-7.47l-.45-4.18V850Z" transform="translate(-19 -25)" fill="#fff"/><path d="M662,756.55h4.24q8.87,0,10.07,10.75v71.88l-.51.51h-3.73q-7.72,0-10.25-8.67l-.26-3.22V757Zm0,92.7h2.85q8.24,0,10.95,7l.51,3v10.75l-.51.45H672.3q-7.78,0-10.32-7.91l-.44-4v-8.86Z" transform="translate(-19 -25)" fill="#fff"/><path d="M702.61,756.55h29.17q19.11,0,26.07,17.71a37.28,37.28,0,0,1,1.39,8.86v11.2q0,11.52-10.44,20.5a30.67,30.67,0,0,1-11.45,4.88v23.79l-.45.44h-3q-7.73,0-10.76-8.16l-.44-3.23V814.13q0-6.78,7.21-8.86,11.21,0,14.49-10.95l.44-5.12v-3q0-11.58-10.94-14.68l-7-.51H711.72q-6.53,0-9.11-7l-.44-4v-3Zm20.75,93h4.18q7.08,0,9.55,7.41a9.27,9.27,0,0,1,.51,3.73v9.36l-.51.45h-3.92q-6.9,0-9.81-7.47l-.44-4.18V850Z" transform="translate(-19 -25)" fill="#fff"/><path d="M785,756.55h4.24q8.87,0,10.06,10.75v71.88l-.5.51h-3.74q-7.71,0-10.25-8.67l-.25-3.22V757Zm0,92.7h2.85q8.22,0,10.95,7l.5,3v10.75l-.5.45h-3.48q-7.78,0-10.32-7.91l-.44-4v-8.86Z" transform="translate(-19 -25)" fill="#fff"/><path d="M825.61,756.55h29.17q19.11,0,26.07,17.71a36.86,36.86,0,0,1,1.4,8.86v11.2q0,11.52-10.44,20.5a30.71,30.71,0,0,1-11.46,4.88v23.79l-.44.44h-3q-7.71,0-10.75-8.16l-.45-3.23V814.13q0-6.78,7.22-8.86,11.19,0,14.49-10.95l.44-5.12v-3q0-11.58-11-14.68l-7-.51H834.73q-6.53,0-9.12-7l-.44-4v-3Zm20.76,93h4.17q7.1,0,9.56,7.41a9.27,9.27,0,0,1,.51,3.73v9.36l-.51.45h-3.92q-6.9,0-9.81-7.47l-.44-4.18V850Z" transform="translate(-19 -25)" fill="#fff"/></g></g></svg>