<svg xmlns="http://www.w3.org/2000/svg" xmlns:xlink="http://www.w3.org/1999/xlink" viewBox="0 0 1014.75 1014.74"><defs><radialGradient id="Íîâûé_îáðàçåö_ãðàäèåíòà_1" cx="550.37" cy="446.74" r="507.36" gradientTransform="translate(1078.61 -21.96) rotate(89.57)" gradientUnits="userSpaceOnUse"><stop offset="0" stop-color="#fddb35"/><stop offset="0.48" stop-color="#fdd934"/><stop offset="0.66" stop-color="#fcd232"/><stop offset="0.78" stop-color="#fbc72e"/><stop offset="0.88" stop-color="#fab629"/><stop offset="0.96" stop-color="#f8a022"/><stop offset="1" stop-color="#f7941e"/></radialGradient></defs><g style="isolation:isolate"><g id="Layer_1" data-name="Layer 1"><ellipse cx="550.37" cy="532.35" rx="507.35" ry="507.37" transform="translate(-29.07 1053.75) rotate(-89.57)" fill="url(#Íîâûé_îáðàçåö_ãðàäèåíòà_1)"/><path d="M1057.75,532.41c0,280.13-227.22,507.33-507.36,507.33A504.5,504.5,0,0,1,253,943.48a540.26,540.26,0,0,0,251.13,61.6c299.33,0,542-242.7,542-542,0-16.3-.7-32.48-2.2-48.43A506.59,506.59,0,0,1,1057.75,532.41Z" transform="translate(-43 -25)" fill="#fbd69e" style="mix-blend-mode:multiply"/><path d="M633.88,838.17c0,35.18-17.73,65.79-43.84,81.45a77.12,77.12,0,0,1-35.37,11c-1.43.08-2.86.11-4.3.11s-2.87,0-4.3-.11a77.19,77.19,0,0,1-35.37-11c-26.11-15.66-43.84-46.27-43.84-81.45,0-14.92,3.2-27.93,8.86-38.86,13.72-26.55,42-40.92,74.65-40.92s60.94,14.37,74.66,40.92C630.69,810.24,633.88,823.25,633.88,838.17Z" transform="translate(-43 -25)" fill="#87594a"/><g style="mix-blend-mode:multiply"><path d="M633.57,332.32h-83.2V316.45L604.25,257H553.64V240.73h76.84V256.6l-53.87,59.48h57Z" transform="translate(-43 -25)" fill="#fbd69e"/><path d="M803.89,320.81H658.42V293.05l94.21-104H664.14V160.65H798.5V188.4l-94.2,104h99.59Z" transform="translate(-43 -25)" fill="#fbd69e"/><path d="M965.3,377.2H862.86V357.65l66.34-73.23H866.89v-20H961.5V284l-66.33,73.23H965.3Z" transform="translate(-43 -25)" fill="#fbd69e"/></g><path d="M633.57,322.18h-83.2V306.3l53.88-59.47H553.64V230.58h76.84v15.87l-53.87,59.48h57Z" transform="translate(-43 -25)" fill="#4f74bf"/><path d="M803.89,310.66H658.42V282.9l94.21-104H664.14V150.5H798.5v27.76l-94.2,104h99.59Z" transform="translate(-43 -25)" fill="#4f74bf"/><path d="M965.3,367.05H862.86V347.51l66.34-73.24H866.89v-20H961.5v19.54l-66.33,73.24H965.3Z" transform="translate(-43 -25)" fill="#4f74bf"/><path d="M349,551.16c-46.76,0-89.1-14-120-36.79-8.06-5.93-19,1.84-16.43,11.49C228.37,584.21,283.4,627.3,349,627.3s120.62-43.09,136.4-101.44C488,516.21,477,508.44,469,514.37,438.09,537.11,395.75,551.16,349,551.16Z" transform="translate(-43 -25)" fill="#87594a"/><path d="M751.75,551.16c46.76,0,89.1-14,120-36.79,8.06-5.93,19,1.84,16.43,11.49-15.77,58.35-70.8,101.44-136.39,101.44s-120.62-43.09-136.4-101.44c-2.61-9.65,8.38-17.42,16.43-11.49C662.65,537.11,705,551.16,751.75,551.16Z" transform="translate(-43 -25)" fill="#87594a"/></g></g></svg>