<svg xmlns="http://www.w3.org/2000/svg" xmlns:xlink="http://www.w3.org/1999/xlink" viewBox="0 0 968 968"><defs><radialGradient id="Íîâûé_îáðàçåö_ãðàäèåíòà_1" cx="489.44" cy="399.59" r="483.99" gradientUnits="userSpaceOnUse"><stop offset="0" stop-color="#fddb35"/><stop offset="0.48" stop-color="#fdd934"/><stop offset="0.66" stop-color="#fcd232"/><stop offset="0.78" stop-color="#fbc72e"/><stop offset="0.88" stop-color="#fab629"/><stop offset="0.96" stop-color="#f8a022"/><stop offset="1" stop-color="#f7941e"/></radialGradient></defs><g style="isolation:isolate"><g id="Layer_1" data-name="Layer 1"><ellipse cx="484" cy="483.98" rx="484" ry="483.98" fill="url(#Íîâûé_îáðàçåö_ãðàäèåíòà_1)"/><path d="M1026.74,540c0,267.23-216.74,484-484,484A481.24,481.24,0,0,1,259.1,932.17a515.39,515.39,0,0,0,239.56,58.76c285.54,0,517.06-231.51,517.06-517,0-15.55-.66-31-2.09-46.2A484.06,484.06,0,0,1,1026.74,540Z" transform="translate(-58.75 -56)" fill="#fbd69e" style="mix-blend-mode:multiply"/><path d="M301.33,423.7a125.47,125.47,0,0,0-98.92,29.35c-10.29,8.74-25.59,11.84-36.23,4.3l-.37-.29c-10.61-7.45-9.47-27.06,5.51-40a173.12,173.12,0,0,1,136.43-40.49c19.61,2.67,31.27,18.49,26.44,30.51l-.16.45C329.24,419.65,314.72,425.4,301.33,423.7Z" transform="translate(-58.75 -56)" fill="#fbd69e" style="mix-blend-mode:multiply"/><path d="M821.52,429.4a125.5,125.5,0,0,1,93,44.6c8.78,10.26,23.4,15.74,35.09,10l.42-.23c11.65-5.68,13.62-25.23.87-40.36a173.11,173.11,0,0,0-128.32-61.53c-19.79-.46-33.8,13.32-30.93,26,0,.15.06.31.08.46C794.6,421,808,429,821.52,429.4Z" transform="translate(-58.75 -56)" fill="#fbd69e" style="mix-blend-mode:multiply"/><path d="M821.28,515.42C792.7,514.91,716.14,517,667.65,566c-14.81,16.34,12.25,13.78,27.05,12.25,13.4-1.38,62.78-4.63,78.6,14.58a54.39,54.39,0,0,0,3.85,6.62l0,.08c1.69,5.08,4.16,7.53,7,8.19a53.58,53.58,0,1,0,37.06-92.25Z" transform="translate(-58.75 -56)" fill="#87594a"/><path d="M368.54,515.42C340,514.91,263.39,517,214.9,566c-14.8,16.34,12.25,13.78,27.06,12.25,13.4-1.38,62.78-4.63,78.6,14.58a53.12,53.12,0,0,0,3.85,6.62l0,.08c1.69,5.08,4.15,7.53,7,8.19a53.58,53.58,0,1,0,37.06-92.25Z" transform="translate(-58.75 -56)" fill="#87594a"/><path d="M540.93,814.44h3.62c43.54,0,83.45,13.18,114.49,35.1,6,4.27,14.55-1,12.38-7.7-18.84-58.43-68.72-100.19-127.31-100.19h-2.73c-58.59,0-108.47,41.76-127.32,100.19-2.16,6.73,6.34,12,12.39,7.7C457.48,827.62,497.39,814.44,540.93,814.44Z" transform="translate(-58.75 -56)" fill="#87594a"/></g></g></svg>