<svg xmlns="http://www.w3.org/2000/svg" xmlns:xlink="http://www.w3.org/1999/xlink" viewBox="0 0 1001 1001"><defs><radialGradient id="Íîâûé_îáðàçåö_ãðàäèåíòà_1" cx="506.83" cy="432.92" r="500.49" gradientUnits="userSpaceOnUse"><stop offset="0" stop-color="#fddb35"/><stop offset="0.48" stop-color="#fdd934"/><stop offset="0.66" stop-color="#fcd232"/><stop offset="0.78" stop-color="#fbc72e"/><stop offset="0.88" stop-color="#fab629"/><stop offset="0.96" stop-color="#f8a022"/><stop offset="1" stop-color="#f7941e"/></radialGradient></defs><g style="isolation:isolate"><g id="Layer_1" data-name="Layer 1"><ellipse cx="500.5" cy="500.48" rx="500.5" ry="500.48" fill="url(#Íîâûé_îáðàçåö_ãðàäèåíòà_1)"/><path d="M1041,528.55C1041,804.89,816.87,1029,540.52,1029a497.62,497.62,0,0,1-293.34-95,533,533,0,0,0,247.73,60.77c295.28,0,534.69-239.41,534.69-534.67,0-16.08-.68-32-2.17-47.77A499.58,499.58,0,0,1,1041,528.55Z" transform="translate(-40 -28.02)" fill="#fbd69e" style="mix-blend-mode:multiply"/><path d="M366.44,329.84A129.72,129.72,0,0,0,264.16,360.2c-10.65,9-26.47,12.24-37.47,4.44l-.39-.3c-11-7.7-9.79-28,5.71-41.36a179,179,0,0,1,141.07-41.87c20.29,2.76,32.34,19.11,27.35,31.55-.06.16-.11.31-.17.46C395.3,325.66,380.29,331.6,366.44,329.84Z" transform="translate(-40 -28.02)" fill="#fbd69e" style="mix-blend-mode:multiply"/><path d="M714.56,329.84A129.72,129.72,0,0,1,816.84,360.2c10.65,9,26.47,12.24,37.47,4.44l.39-.3c11-7.7,9.79-28-5.71-41.36a179,179,0,0,0-141.07-41.87c-20.29,2.76-32.34,19.11-27.35,31.55.06.16.11.31.17.46C685.7,325.66,700.71,331.6,714.56,329.84Z" transform="translate(-40 -28.02)" fill="#fbd69e" style="mix-blend-mode:multiply"/><path d="M349.77,523.33h2c27.88,0,53.07,13,71.35,33.93C428.68,563.57,439,560,439,551.6V506.74c0-64.2-39.1-116.25-87.32-116.25h-1.76c-48.23,0-87.32,52.05-87.32,116.25V551.6c0,8.38,10.31,12,15.82,5.66C296.7,536.31,321.89,523.33,349.77,523.33Z" transform="translate(-40 -28.02)" fill="#87594a"/><path d="M729.19,523.33h2c27.88,0,53.07,13,71.35,33.93,5.52,6.31,15.83,2.72,15.83-5.66V506.74c0-64.2-39.1-116.25-87.32-116.25h-1.76c-48.23,0-87.32,52.05-87.32,116.25V551.6c0,8.38,10.31,12,15.82,5.66C676.12,536.31,701.31,523.33,729.19,523.33Z" transform="translate(-40 -28.02)" fill="#87594a"/><path d="M861.84,647.84a313.5,313.5,0,0,1-20,82.28c-46.43,119.31-162.42,203.8-298.16,203.8h-6.47c-135.66,0-251.66-84.49-298.09-203.72a318.46,318.46,0,0,1-20-82.36A19.29,19.29,0,0,1,245.62,628C349,668.84,512.28,673.34,540.47,673.34S732,668.84,835.39,628A19.29,19.29,0,0,1,861.84,647.84Z" transform="translate(-40 -28.02)" fill="#87594a"/><path d="M861.84,647.84a313.5,313.5,0,0,1-20,82.28C757.77,766,655.67,786.89,545.68,786.89H535.17c-109.91,0-211.93-20.92-296-56.69a318.46,318.46,0,0,1-20-82.36A19.29,19.29,0,0,1,245.62,628C349,668.84,512.28,673.34,540.47,673.34S732,668.84,835.39,628A19.29,19.29,0,0,1,861.84,647.84Z" transform="translate(-40 -28.02)" fill="#fff"/><path d="M245.62,643.22C349,684,512.28,688.54,540.47,688.54S732,684,835.39,643.22A19.26,19.26,0,0,1,860.85,655c.3-2.41.74-4.78,1-7.2A19.29,19.29,0,0,0,835.39,628C732,668.84,568.66,673.34,540.47,673.34S349,668.84,245.62,628a19.29,19.29,0,0,0-26.45,19.82c.25,2.42.69,4.78,1,7.19A19.25,19.25,0,0,1,245.62,643.22Z" transform="translate(-40 -28.02)" fill="#87594a"/></g></g></svg>