<svg xmlns="http://www.w3.org/2000/svg" xmlns:xlink="http://www.w3.org/1999/xlink" viewBox="0 0 997 997"><defs><radialGradient id="Íîâûé_îáðàçåö_ãðàäèåíòà_1" cx="534.64" cy="475.56" r="498.49" gradientTransform="translate(1098.62 17.99) rotate(89.57)" gradientUnits="userSpaceOnUse"><stop offset="0" stop-color="#fddb35"/><stop offset="0.48" stop-color="#fdd934"/><stop offset="0.66" stop-color="#fcd232"/><stop offset="0.78" stop-color="#fbc72e"/><stop offset="0.88" stop-color="#fab629"/><stop offset="0.96" stop-color="#f8a022"/><stop offset="1" stop-color="#f7941e"/></radialGradient></defs><g style="isolation:isolate"><g id="Layer_1" data-name="Layer 1"><ellipse cx="540.24" cy="562.48" rx="498.48" ry="498.5" transform="translate(-68.06 1034.45) rotate(-89.57)" fill="url(#Íîâûé_îáðàçåö_ãðàäèåíòà_1)"/><path d="M1038.74,562.53c0,275.24-223.23,498.47-498.48,498.47A495.7,495.7,0,0,1,248.1,966.42a530.88,530.88,0,0,0,246.74,60.52c294.1,0,532.55-238.45,532.55-532.54,0-16-.68-31.9-2.16-47.57A497.83,497.83,0,0,1,1038.74,562.53Z" transform="translate(-41.74 -64)" fill="#fbd69e" style="mix-blend-mode:multiply"/><path d="M670.18,830.45c0,54.75-27.59,102.37-68.21,126.73a120,120,0,0,1-55,17.06c-2.22.13-4.44.18-6.69.18s-4.46,0-6.69-.18a120,120,0,0,1-55-17.06c-40.62-24.36-68.21-72-68.21-126.73,0-23.21,5-43.45,13.78-60.46,21.34-41.31,65.34-63.66,116.15-63.66S635.06,728.68,656.4,770C665.21,787,670.18,807.24,670.18,830.45Z" transform="translate(-41.74 -64)" fill="#87594a"/><path d="M255,342.24a129.26,129.26,0,0,1,103.41-24.49c13.67,2.52,28.94-2.55,34.57-14.74l.18-.46c5.66-12.08-5.41-29-25.43-32.89a178.28,178.28,0,0,0-142.62,33.78c-16.16,12.44-18.46,32.54-8,40.81l.37.32C228,352.94,243.93,350.63,255,342.24Z" transform="translate(-41.74 -64)" fill="#fbd69e" style="mix-blend-mode:multiply"/><path d="M825.47,342.24a129.25,129.25,0,0,0-103.41-24.49c-13.67,2.52-28.93-2.55-34.56-14.74-.06-.15-.13-.3-.19-.46-5.65-12.08,5.42-29,25.44-32.89a178.29,178.29,0,0,1,142.62,33.78c16.16,12.44,18.46,32.54,8,40.81l-.37.32C852.48,352.94,836.56,350.63,825.47,342.24Z" transform="translate(-41.74 -64)" fill="#fbd69e" style="mix-blend-mode:multiply"/><polygon points="795.14 374.57 762.6 342.03 689.16 415.47 615.71 342.03 583.17 374.57 656.62 448.01 583.17 521.46 615.71 554 689.16 480.55 762.6 554 795.14 521.46 721.7 448.01 795.14 374.57" fill="#87594a"/><polygon points="413.82 374.57 381.28 342.03 307.84 415.47 234.4 342.03 201.86 374.57 275.3 448.01 201.86 521.46 234.4 554 307.84 480.55 381.28 554 413.82 521.46 340.38 448.01 413.82 374.57" fill="#87594a"/></g></g></svg>