<svg xmlns="http://www.w3.org/2000/svg" xmlns:xlink="http://www.w3.org/1999/xlink" viewBox="0 0 1022 1021.93"><defs><radialGradient id="radial-gradient" cx="545.86" cy="464.24" r="510.96" gradientUnits="userSpaceOnUse"><stop offset="0" stop-color="#fddb35"/><stop offset="0.48" stop-color="#fdd934"/><stop offset="0.66" stop-color="#fcd232"/><stop offset="0.78" stop-color="#fbc72e"/><stop offset="0.88" stop-color="#fab629"/><stop offset="0.96" stop-color="#f8a022"/><stop offset="1" stop-color="#f7941e"/></radialGradient></defs><g style="isolation:isolate"><g id="Layer_1" data-name="Layer 1"><path d="M1054,539C1054,821.15,825.22,1049.9,543,1049.9A511,511,0,0,1,32,539C32,256.76,260.83,28,543,28S1054,256.76,1054,539Z" transform="translate(-32 -28.02)" fill="url(#radial-gradient)"/><path d="M1054,539c0,282.13-228.83,511-511,511a508,508,0,0,1-299.48-97,544,544,0,0,0,252.92,62c301.46,0,545.88-244.42,545.88-545.87,0-16.41-.7-32.7-2.21-48.76A510.35,510.35,0,0,1,1054,539Z" transform="translate(-32 -28.02)" fill="#fbd69e" style="mix-blend-mode:multiply"/><rect x="278.92" y="686" width="464.15" height="70.41" rx="34.85" fill="#87594a"/><rect x="259.85" y="363.64" width="149.45" height="70.41" rx="34.85" fill="#87594a"/><rect x="612.75" y="363.64" width="149.45" height="70.41" rx="34.85" fill="#87594a"/></g></g></svg>