<svg xmlns="http://www.w3.org/2000/svg" xmlns:xlink="http://www.w3.org/1999/xlink" viewBox="0 0 1014.4 1052.15"><defs><radialGradient id="Íîâûé_îáðàçåö_ãðàäèåíòà_1" cx="526.2" cy="455.86" r="507.19" gradientTransform="translate(1057.28 4.85) rotate(89.57)" gradientUnits="userSpaceOnUse"><stop offset="0" stop-color="#fddb35"/><stop offset="0.48" stop-color="#fdd934"/><stop offset="0.66" stop-color="#fcd232"/><stop offset="0.78" stop-color="#fbc72e"/><stop offset="0.88" stop-color="#fab629"/><stop offset="0.96" stop-color="#f8a022"/><stop offset="1" stop-color="#f7941e"/></radialGradient><linearGradient id="linear-gradient" x1="526.22" y1="716.96" x2="526.22" y2="1080" gradientUnits="userSpaceOnUse"><stop offset="0" stop-color="#e3272d"/><stop offset="1" stop-color="#ec3676"/></linearGradient></defs><g style="isolation:isolate"><g id="Layer_1" data-name="Layer 1"><ellipse cx="526.2" cy="535.03" rx="507.18" ry="507.2" transform="translate(-31.74 1029.37) rotate(-89.57)" fill="url(#Íîâûé_îáðàçåö_ãðàäèåíòà_1)"/><path d="M1033.4,535.08c0,280-227.13,507.16-507.18,507.16A504.26,504.26,0,0,1,229,946a540,540,0,0,0,251,61.58c299.23,0,541.85-242.61,541.85-541.83,0-16.29-.7-32.46-2.2-48.4A506.7,506.7,0,0,1,1033.4,535.08Z" transform="translate(-19 -27.85)" fill="#fbd69e" style="mix-blend-mode:multiply"/><path d="M349.81,320.87a131.51,131.51,0,0,0-103.65,30.77c-10.79,9.15-26.82,12.4-38,4.5l-.39-.31c-11.12-7.8-9.92-28.35,5.78-41.91a181.38,181.38,0,0,1,143-42.43c20.56,2.8,32.77,19.37,27.71,32-.05.16-.11.32-.16.47C379.06,316.64,363.85,322.66,349.81,320.87Z" transform="translate(-19 -27.85)" fill="#fbd69e" style="mix-blend-mode:multiply"/><path d="M702.59,320.87a131.51,131.51,0,0,1,103.65,30.77c10.79,9.15,26.83,12.4,38,4.5l.39-.31c11.12-7.8,9.92-28.35-5.78-41.91a181.38,181.38,0,0,0-143-42.43c-20.56,2.8-32.77,19.37-27.71,32,.05.16.11.32.16.47C673.34,316.64,688.55,322.66,702.59,320.87Z" transform="translate(-19 -27.85)" fill="#fbd69e" style="mix-blend-mode:multiply"/><ellipse cx="314.95" cy="448.32" rx="95.63" ry="98.89" fill="#87594a"/><path d="M369.88,437.83A35.93,35.93,0,1,1,334,401.9,35.93,35.93,0,0,1,369.88,437.83Z" transform="translate(-19 -27.85)" fill="#fff"/><ellipse cx="699.45" cy="448.32" rx="95.63" ry="98.89" fill="#87594a"/><path d="M754.38,437.83a35.93,35.93,0,1,1-35.93-35.93A35.93,35.93,0,0,1,754.38,437.83Z" transform="translate(-19 -27.85)" fill="#fff"/><path d="M817.62,685.27a202.86,202.86,0,0,1-18.12,61.8C757.4,836.7,652.2,900.16,529.1,900.16h-5.87c-123,0-228.22-63.46-270.33-153a206,206,0,0,1-18.11-61.86c-1.36-10.91,11.74-18.92,24-14.89,93.73,30.67,241.82,34,267.39,34s173.72-3.38,267.46-34C805.88,666.35,819,674.36,817.62,685.27Z" transform="translate(-19 -27.85)" fill="#87594a"/><path d="M682.54,875.37v70.87c0,73.85-62.39,133.76-139.33,133.76h-34c-76.93,0-139.32-59.91-139.32-133.76V875.37c0-116,23.28-158.41,99-158.41q40.17,0,52.12,14a21.52,21.52,0,0,1,5.13,14.46,21.13,21.13,0,0,1,5.14-14.38c7.87-9.41,25.33-14.12,52.2-14.12C659.17,717,682.54,759.32,682.54,875.37Z" transform="translate(-19 -27.85)" fill="url(#linear-gradient)"/><path d="M531.32,731.08v98.51c0,5-2.23,9-5.05,9h-.09c-2.82,0-5.13-4-5.13-9V731a21.52,21.52,0,0,1,5.13,14.46A21.13,21.13,0,0,1,531.32,731.08Z" transform="translate(-19 -27.85)" fill="#e6e7e8" style="mix-blend-mode:multiply"/></g></g></svg>