<svg xmlns="http://www.w3.org/2000/svg" xmlns:xlink="http://www.w3.org/1999/xlink" viewBox="0 0 1008.85 1008.85"><defs><radialGradient id="Íîâûé_îáðàçåö_ãðàäèåíòà_1" cx="547.26" cy="458.66" r="504.42" gradientTransform="translate(1072.77 -15.96) rotate(89.57)" gradientUnits="userSpaceOnUse"><stop offset="0" stop-color="#fddb35"/><stop offset="0.48" stop-color="#fdd934"/><stop offset="0.66" stop-color="#fcd232"/><stop offset="0.78" stop-color="#fbc72e"/><stop offset="0.88" stop-color="#fab629"/><stop offset="0.96" stop-color="#f8a022"/><stop offset="1" stop-color="#f7941e"/></radialGradient><linearGradient id="linear-gradient" x1="90.33" y1="237.69" x2="377.2" y2="237.69" gradientUnits="userSpaceOnUse"><stop offset="0" stop-color="#2e92db"/><stop offset="0.04" stop-color="#2d99df"/><stop offset="0.2" stop-color="#2caded"/><stop offset="0.35" stop-color="#2abaf5"/><stop offset="0.5" stop-color="#2abef8"/><stop offset="0.65" stop-color="#2abaf5"/><stop offset="0.8" stop-color="#2caded"/><stop offset="0.96" stop-color="#2d98df"/><stop offset="1" stop-color="#2e92db"/></linearGradient></defs><g style="isolation:isolate"><g id="Layer_1" data-name="Layer 1"><ellipse cx="544.43" cy="532.42" rx="504.41" ry="504.43" transform="translate(-32.05 1044.85) rotate(-89.57)" fill="url(#Íîâûé_îáðàçåö_ãðàäèåíòà_1)"/><path d="M1048.85,532.48c0,278.5-225.89,504.39-504.41,504.39a501.51,501.51,0,0,1-295.63-95.71,537,537,0,0,0,249.67,61.24c297.59,0,538.88-241.28,538.88-538.86,0-16.2-.69-32.29-2.18-48.14A504,504,0,0,1,1048.85,532.48Z" transform="translate(-40 -28.02)" fill="#fbd69e" style="mix-blend-mode:multiply"/><g style="mix-blend-mode:multiply"><path d="M176.88,138.29c27.43-29.09,44.32-70,51.46-90.11a4.69,4.69,0,0,1,8.76-.25c8.29,19.64,26.61,59.39,49,85.53,30.71,35.85,161.43,179.4,41,294.7C263.07,482,170.83,474.31,124.68,415.33S64.1,261.32,176.88,138.29Z" transform="translate(-40 -28.02)" fill="#fbd69e"/></g><path d="M176.88,121.27c27.43-29.1,44.32-70,51.46-90.11a4.69,4.69,0,0,1,8.76-.25c8.29,19.64,26.61,59.39,49,85.53,30.71,35.85,161.43,179.4,41,294.69C263.07,465,170.83,457.28,124.68,398.31S64.1,244.3,176.88,121.27Z" transform="translate(-40 -28.02)" fill="url(#linear-gradient)"/><path d="M744.63,577.28c46.49,0,88.59,14,119.27,36.57,8,5.9,18.93-1.82,16.34-11.42-15.68-58-70.39-100.86-135.61-100.86S624.71,544.41,609,602.43c-2.6,9.6,8.33,17.32,16.33,11.42C656.05,591.24,698.15,577.28,744.63,577.28Z" transform="translate(-40 -28.02)" fill="#87594a"/><path d="M344.22,577.28c-46.49,0-88.59,14-119.27,36.57-8,5.9-18.93-1.82-16.34-11.42,15.69-58,70.39-100.86,135.61-100.86s119.92,42.84,135.6,100.86c2.6,9.6-8.33,17.32-16.33,11.42C432.8,591.24,390.7,577.28,344.22,577.28Z" transform="translate(-40 -28.02)" fill="#87594a"/><path d="M755.69,870.75c-23,29.46-67.37,40.26-112.2,47.1l-4.65.7c-1,.13-2,.29-3,.42-5.69.83-11.39,1.61-17,2.36a655.88,655.88,0,0,1-66.67,4.14c-2.56,0-5.13,0-7.69,0s-5.14,0-7.7,0a655.88,655.88,0,0,1-66.67-4.14q-8.46-1.12-17-2.36l-3-.42c-1.55-.22-3.08-.46-4.63-.7-44.83-6.84-89.23-17.64-112.22-47.1-11-14.94-13.07-32.77-5.05-52.13a81.84,81.84,0,0,1,13.1-22.37c32-40.29,108.5-79.24,203.22-78.62C639.14,717,715.62,756,747.64,796.25a81.84,81.84,0,0,1,13.1,22.37C768.76,838,766.68,855.81,755.69,870.75Z" transform="translate(-40 -28.02)" fill="#87594a"/><path d="M643.49,917.85l-4.65.7c-1,.13-2,.29-3,.42-5.69.83-11.39,1.61-17,2.36a655.88,655.88,0,0,1-66.67,4.14c-2.56,0-5.13,0-7.69,0s-5.14,0-7.7,0a655.88,655.88,0,0,1-66.67-4.14q-8.46-1.12-17-2.36l-3-.42c-1.55-.22-3.08-.46-4.63-.7,21.84-22.16,58.07-36.62,99-36.62S621.65,895.69,643.49,917.85Z" transform="translate(-40 -28.02)" fill="#ee6571"/><path d="M747.64,796.25H341.21c32-40.29,108.5-79.24,203.22-78.62C639.14,717,715.62,756,747.64,796.25Z" transform="translate(-40 -28.02)" fill="#fff"/></g></g></svg>