<svg xmlns="http://www.w3.org/2000/svg" xmlns:xlink="http://www.w3.org/1999/xlink" viewBox="0 0 1047.98 1047.98"><defs><radialGradient id="Íîâûé_îáðàçåö_ãðàäèåíòà_1" cx="522" cy="436.44" r="523.98" gradientUnits="userSpaceOnUse"><stop offset="0" stop-color="#fddb35"/><stop offset="0.48" stop-color="#fdd934"/><stop offset="0.66" stop-color="#fcd232"/><stop offset="0.78" stop-color="#fbc72e"/><stop offset="0.88" stop-color="#fab629"/><stop offset="0.96" stop-color="#f8a022"/><stop offset="1" stop-color="#f7941e"/></radialGradient></defs><g style="isolation:isolate"><g id="Layer_1" data-name="Layer 1"><circle cx="523.99" cy="523.97" r="523.98" fill="url(#Íîâûé_îáðàçåö_ãðàäèåíòà_1)"/><path d="M1056,544c0,289.31-234.65,524-524,524a521,521,0,0,1-307.11-99.42A558,558,0,0,0,484.3,1032.2c309.14,0,559.79-250.65,559.79-559.77,0-16.83-.72-33.54-2.27-50A523.48,523.48,0,0,1,1056,544Z" transform="translate(-8.04 -20.02)" fill="#fbd69e" style="mix-blend-mode:multiply"/><path d="M349.8,296.22A135.83,135.83,0,0,0,242.72,328c-11.15,9.46-27.71,12.82-39.23,4.65l-.4-.31c-11.49-8.06-10.25-29.3,6-43.3a187.43,187.43,0,0,1,147.7-43.84c21.23,2.89,33.85,20,28.62,33-.05.17-.11.33-.17.49C380,291.84,364.3,298.07,349.8,296.22Z" transform="translate(-8.04 -20.02)" fill="#fbd69e" style="mix-blend-mode:multiply"/><path d="M714.26,296.22A135.87,135.87,0,0,1,821.35,328c11.14,9.46,27.71,12.82,39.22,4.65l.41-.31c11.48-8.06,10.25-29.3-6-43.3A187.42,187.42,0,0,0,707.3,245.2c-21.23,2.89-33.85,20-28.62,33,.05.17.11.33.17.49C684,291.84,699.76,298.07,714.26,296.22Z" transform="translate(-8.04 -20.02)" fill="#fbd69e" style="mix-blend-mode:multiply"/><ellipse cx="325.38" cy="436.64" rx="98.79" ry="102.17" fill="#87594a"/><path d="M370.53,417.05a37.12,37.12,0,1,1-37.12-37.12A37.12,37.12,0,0,1,370.53,417.05Z" transform="translate(-8.04 -20.02)" fill="#fff"/><ellipse cx="722.61" cy="436.64" rx="98.79" ry="102.17" fill="#87594a"/><circle cx="722.61" cy="397.03" r="37.12" fill="#fff"/><path d="M856.34,699.38a316.83,316.83,0,0,1-15.13,45.82c-34.24,82.4-101.64,148-186,180.87a340.63,340.63,0,0,1-246.4,0c-84.27-32.87-151.68-98.47-186-180.87a321.79,321.79,0,0,1-15.13-45.82c-4.21-17,8.84-33.36,26.34-33.36H830C847.5,666,860.59,682.42,856.34,699.38Z" transform="translate(-8.04 -20.02)" fill="#87594a"/><path d="M655.23,926.07a340.58,340.58,0,0,1-246.38,0C432.66,902.72,478.91,886.9,532,886.9S631.44,902.72,655.23,926.07Z" transform="translate(-8.04 -20.02)" fill="#ee6571"/><path d="M856.34,699.38a316.83,316.83,0,0,1-15.13,45.82H222.85a321.79,321.79,0,0,1-15.13-45.82c-4.21-17,8.84-33.36,26.34-33.36H830C847.5,666,860.59,682.42,856.34,699.38Z" transform="translate(-8.04 -20.02)" fill="#fff"/></g></g></svg>