<svg xmlns="http://www.w3.org/2000/svg" xmlns:xlink="http://www.w3.org/1999/xlink" viewBox="0 0 390.13 491.9"><defs><clipPath id="clip-path"><polygon points="107.06 147.49 76.68 370.79 112.8 365.05 127.58 147.49 107.06 147.49" fill="none"/></clipPath><clipPath id="clip-path-2"><polygon points="231.02 369.15 221.17 189.36 237.59 189.36 260.57 372.43 231.02 369.15" fill="none"/></clipPath></defs><g id="Layer_2" data-name="Layer 2"><g id="Слой_1" data-name="Слой 1"><path d="M193.67,416.25c-46.56,0-90.54-3.3-123.85-9.29l1.31-7.27c32.89,5.91,76.41,9.17,122.54,9.17s89.65-3.26,122.53-9.17l1.31,7.27C284.21,413,240.22,416.25,193.67,416.25Z" fill="#ffca76"/><path d="M362,369.15c0,16.78-75.35,30.38-168.3,30.38s-168.3-13.6-168.3-30.38,75.35-30.37,168.3-30.37S362,352.37,362,369.15Z" fill="#ff7381"/><polygon points="107.06 147.49 76.68 370.79 112.8 365.05 127.58 147.49 107.06 147.49" fill="#76c1ff"/><polygon points="123.48 376.54 147.28 186.08 169.45 190.18 159.6 370.79 123.48 376.54" fill="#45a4e5"/><polygon points="178.48 361.76 178.48 162.27 197.36 158.16 213.78 362.58 178.48 361.76" fill="#2a8ec6"/><polygon points="231.02 369.15 221.17 189.36 237.59 189.36 260.57 372.43 231.02 369.15" fill="#76c1ff"/><polygon points="268.78 362.58 264.68 150.78 286.03 150.78 313.94 367.51 268.78 362.58" fill="#45a4e5"/><path d="M119.37,99.88a50.94,50.94,0,0,1-4.93,14.77c-4.25,8.25-8.49,10.8-8.2,16.43.21,4.33,3.06,9.13,7.38,10.67,5.3,1.88,11.29-1.66,14-4.93C133.53,129.54,130.41,114.59,119.37,99.88Z" fill="#ffca76"/><path d="M158,154.06a37.92,37.92,0,0,0-4.93,9.85c-1.67,5.07-3.24,9.85-.82,14,.19.33,3,4.92,8.21,4.92,7.39,0,5.49-10.74,1.64-18.06A48.89,48.89,0,0,1,158,154.06Z" fill="#ffca76"/><path d="M186,115.48a45.92,45.92,0,0,0,4.44,13.34c3.85,7.45,7.68,9.76,7.42,14.83-.2,3.92-2.78,8.25-6.68,9.64-4.78,1.71-10.18-1.5-12.6-4.45C173.2,142.27,176,128.76,186,115.48Z" fill="#ffca76"/><path d="M225.28,155.7a44.15,44.15,0,0,1-1.65,8.21c-2.17,7.19-4.75,9.08-4.1,13.14a9.6,9.6,0,0,0,5.75,7.38c3.58,1.34,8-.12,9.84-2.46C238.7,177.44,234.87,166.85,225.28,155.7Z" fill="#ffca76"/><path d="M271.24,109.73A42.87,42.87,0,0,0,265.5,122c-1.7,6-3.59,12.68,0,18.06,2.48,3.72,7.92,7.38,13.14,5.75A11,11,0,0,0,286,136c0-5.8-6.45-7.47-11.49-17.24A38.37,38.37,0,0,1,271.24,109.73Z" fill="#ffca76"/><g clip-path="url(#clip-path)"><path d="M72.5,181.31l63.84-19.54c-.44,6.94-.86,13.89-1.3,20.84L71.19,200.85Q71.85,191.09,72.5,181.31Z" fill="#45a4e5"/><path d="M72.5,224.3l63.84-19.54c-.44,7-.86,13.9-1.3,20.85L71.19,243.85Q71.85,234.07,72.5,224.3Z" fill="#45a4e5"/><path d="M72.5,267.3l63.84-19.54c-.44,7-.86,13.9-1.3,20.84L71.19,286.85Q71.85,277.07,72.5,267.3Z" fill="#45a4e5"/><path d="M72.5,310.3l63.84-19.55c-.44,6.95-.86,13.9-1.3,20.85L71.19,329.84Q71.85,320.08,72.5,310.3Z" fill="#45a4e5"/></g><g clip-path="url(#clip-path-2)"><path d="M267.93,222.24l-63.84-15.53q.65,8.29,1.31,16.57l63.84,14.49Z" fill="#45a4e5"/><path d="M267.93,256.41l-63.84-15.53q.65,8.28,1.31,16.56l63.84,14.5Q268.58,264.17,267.93,256.41Z" fill="#45a4e5"/><path d="M267.93,290.57,204.09,275q.65,8.28,1.31,16.57l63.84,14.49Q268.58,298.33,267.93,290.57Z" fill="#45a4e5"/><path d="M267.93,324.74l-63.84-15.53q.65,8.28,1.31,16.56l63.84,14.49Q268.58,332.51,267.93,324.74Z" fill="#45a4e5"/></g><rect x="62.36" y="147.65" width="29.39" height="7.39" transform="translate(-31.68 20.89) rotate(-12.83)" fill="#ff7381"/><rect x="73.37" y="106.11" width="7.39" height="24.03" transform="translate(-54.97 167.71) rotate(-77.47)" fill="#ff4367"/><rect x="89" y="71.7" width="7.39" height="27.7" transform="translate(-33.4 82.21) rotate(-41.19)" fill="#ff7381"/><rect x="115.37" y="72.08" width="22.3" height="7.39" transform="translate(25.65 183.36) rotate(-77.77)" fill="#ff4367"/><rect x="142.2" y="76.64" width="39.09" height="7.38" transform="translate(72.07 237.09) rotate(-86.64)" fill="#ff7381"/><rect x="189.97" y="75.1" width="7.38" height="24.79" transform="translate(-15.17 48.11) rotate(-13.63)" fill="#ff4367"/><rect x="213.23" y="75.34" width="24.72" height="7.39" transform="matrix(0.32, -0.95, 0.95, 0.32, 79.25, 268.03)" fill="#ff7381"/><polygon points="261.05 94.05 255.83 66.69 263.09 65.31 268.3 92.67 261.05 94.05" fill="#ff4367"/><rect x="279.73" y="77.94" width="27.21" height="7.39" transform="translate(130.85 339.14) rotate(-73.3)" fill="#ff7381"/><rect x="300.09" y="104" width="34.7" height="7.39" transform="translate(-13.29 162.3) rotate(-28.11)" fill="#ff4367"/><rect x="314.4" y="131.43" width="7.38" height="29.4" transform="translate(53.82 375.68) rotate(-65.65)" fill="#ff7381"/><path d="M28.09,25.1Q34.53,46.19,41,67.27q-3.66,1.13-7.3,2.3Q30.82,60.75,28,51.94c-2.21.71-4.42,1.43-6.62,2.18l5.28,16.57c-2.45.79-4.88,1.59-7.31,2.41Q12.53,52.87,5.78,32.61q3.94-1.32,7.9-2.6Q16,37.36,18.35,44.69q3.3-1.11,6.61-2.18-2.4-7.45-4.79-14.92Q24.13,26.32,28.09,25.1Z" fill="#3a3a3a"/><path d="M60.6,50.54Q55.27,51.92,50,53.41c.08,3.35.17,6.7.29,10.05-2.5.71-5,1.44-7.47,2.19Q42.18,43.39,42.53,21q5.89-1.63,11.81-3.15,10.47,19.29,20.2,38.84c-3.16.78-6.33,1.59-9.49,2.44C64.44,57.84,61.73,52.64,60.6,50.54ZM56.15,42q-3.21-6.45-6.48-12.87,0,7.29.15,14.57C51.93,43.14,54,42.58,56.15,42Z" fill="#3a3a3a"/><path d="M86,54.35c-3.11.64-6.2,1.3-9.3,2q-4.62-20.82-9.19-41.64,2.85-.66,5.72-1.28a17.23,17.23,0,0,1,2.47-.7,22.06,22.06,0,0,1,12.65.95c3.22,1.41,5.26,3.72,5.75,6.47.63,3.43.47,11.1-12,14.94Q84.08,44.72,86,54.35ZM78.88,19c.65,3.19,1.29,6.37,2,9.55,7.14-2.36,6.51-5.65,6.23-7-.16-.85-1.11-1.43-1.9-1.76A14.35,14.35,0,0,0,78.88,19Z" fill="#3a3a3a"/><path d="M111.41,49.63q-4.68.72-9.36,1.53-3.6-21-7.14-42,2.86-.53,5.75-1a17.87,17.87,0,0,1,2.5-.58,22.06,22.06,0,0,1,12.56,1.57c3.14,1.57,5.06,4,5.42,6.75.46,3.46-.08,11.11-12.67,14.33Q109.93,39.92,111.41,49.63ZM106,14c.49,3.21,1,6.43,1.48,9.64,7.23-2,6.77-5.33,6.56-6.73-.12-.85-1-1.48-1.81-1.85A14.22,14.22,0,0,0,106,14Z" fill="#3a3a3a"/><path d="M140.74,21.45q1.5,12,3,24.05c-2.53.31-5.05.63-7.58,1q-1.66-12.18-3.37-24.37-5.62-7.23-11.5-14.32c2.2-1.54,4.43-3.07,6.67-4.58q4.35,5.34,8.55,10.74,4.88-7,10-13.93c2.29,1.37,4.57,2.76,6.82,4.16Q146.81,12.74,140.74,21.45Z" fill="#3a3a3a"/><path d="M172,6.8c-.14-2-.27-3.94-.41-5.91a15.48,15.48,0,0,1,1.72-.12c8.58-.65,21.57-1.1,22.16,9.05A9.43,9.43,0,0,1,193,17.1c-.4.38-.8.75-1.25,1.13a13.09,13.09,0,0,1,2.3,1.66c3,2.69,4.37,6.37,4.17,10.94a11.43,11.43,0,0,1-4,8.61c-3.57,3-8.71,3.72-13.15,3.85a59.48,59.48,0,0,1-7.21-.3l-.5-.09Q172.64,24.86,172,6.8Zm20,23.81c0-2.79-.7-4.89-2.37-6.38-2-1.82-5-2.36-7.26-2.46q.13,7.71.29,15.44c2.83-.23,5.7-.8,7.47-2.33A5.3,5.3,0,0,0,192,30.61ZM182.13,6.48q.06,4.48.14,9c3.51-.57,5.12-1.55,5.86-2.32a3.51,3.51,0,0,0,.9-3C188.89,7.76,186.66,6.7,182.13,6.48Z" fill="#3a3a3a"/><path d="M209.06,43.28c-2.72-.07-5.45-.12-8.17-.15q.24-21.43.49-42.86c3,0,5.89.09,8.84.17Q209.64,21.86,209.06,43.28Z" fill="#3a3a3a"/><path d="M212.35,43.32q.87-21.4,1.78-42.81c1.94.08,3.87.17,5.81.27a22.17,22.17,0,0,1,14.52,4.11c2.8,2.19,4.16,5,3.94,7.79-.24,3.08-2,9.25-11.38,11q5.31,9.69,10.21,19.48c-2,1-4,1.92-6,2.9q-4.14-8.07-8.55-16-.4,6.89-.82,13.76Q217.09,43.5,212.35,43.32ZM229.82,10A13.6,13.6,0,0,0,224,7.6l-.57,9.84c7.47-.46,7.71-3.86,7.79-5.27A3,3,0,0,0,229.82,10Z" fill="#3a3a3a"/><path d="M266.09,13.63c-2.63-.34-5.26-.65-7.9-1q-1.92,16.91-3.84,33.81c-2.77-.32-5.53-.61-8.3-.88q1.65-16.92,3.31-33.86-4.19-.4-8.38-.75c.25-3,.5-6,.76-9Q254.51,3,267.24,4.66C266.86,7.65,266.47,10.64,266.09,13.63Z" fill="#3a3a3a"/><path d="M293.21,8.58Q289.39,30.29,285.59,52c-2.48-.44-5-.85-7.47-1.25l2.94-18.29c-2.26-.36-4.53-.71-6.79-1q-1.41,8.58-2.81,17.16c-2.5-.4-5-.78-7.49-1.15q3.09-21.12,6.25-42.23c2.7.39,5.4.81,8.1,1.24l-2.49,15.2c2.26.33,4.54.68,6.8,1q1.25-7.73,2.48-15.47Q289.17,7.88,293.21,8.58Z" fill="#3a3a3a"/><path d="M289,51.58c.26-1.42.52-2.83.77-4.24,1-5.46,6.32-32.5,6.53-33.62.26-1.28.51-2.56.77-3.85l4.34.42c1,.14,2,.28,2.94.46,5.61,1.1,9.67,3.51,12.17,7,2.89,4.17,3.42,9.61,1.71,16.5-4.06,16.11-17.38,19.48-24.85,18.11C291.94,52.11,290.47,51.84,289,51.58Zm10.68-8c3.58-1,7.82-3.95,9.54-11.4,1-4.46.79-7.87-.59-9.86a7.29,7.29,0,0,0-3.91-2.5C303.48,25.72,301.13,36.62,299.69,43.58Z" fill="#3a3a3a"/><path d="M337.58,52.65q-5.29-1.45-10.61-2.8-2.4,4.41-4.75,8.86-3.75-.95-7.5-1.81Q325.24,37.3,336.67,18q5.9,1.52,11.77,3.16-.54,21.92-1.86,43.74-4.71-1.36-9.43-2.63C337.26,60.89,337.5,55,337.58,52.65Zm.39-9.6q.43-7.19.82-14.39-3.62,6.35-7.13,12.72C333.76,41.93,335.87,42.48,338,43.05Z" fill="#3a3a3a"/><path d="M371.41,47.71q-3.57,11.58-7.18,23.14c-2.45-.77-4.92-1.53-7.37-2.26q3.5-11.81,7-23.61-2.19-8.9-4.66-17.8c2.67-.49,5.33-1,8-1.41q1.79,6.66,3.43,13.33,7.36-4.38,14.95-8.55c1.54,2.21,3.06,4.41,4.57,6.62Q380.59,42.29,371.41,47.71Z" fill="#3a3a3a"/><path d="M0,456.33q1-2.7,2-5.41c2.55-6.95,15.61-41.4,16.11-42.82l1.86-4.91,5.31,1.35c1.22.35,2.44.7,3.57,1.08,6.77,2.32,11.46,5.9,14.21,10.81,3.18,5.78,3.47,13.05.65,22.12-6.37,21.35-26.42,24-37.35,20Q3.16,457.47,0,456.33Zm16.87-8.05c5.26-.65,11.59-3.84,14.81-13.54,1.92-5.8,2.07-10.36.58-13.18a9.64,9.64,0,0,0-4.67-3.89C25,425.28,20,439.31,16.87,448.28Z" fill="#3a3a3a"/><path d="M63.63,426.39c-.78,3-1.55,5.93-2.33,8.9q8.78,2.29,17.61,4.29-1.09,4.88-2.21,9.75-8.76-2-17.47-4.25Q56.92,453,54.59,461q10.13,2.65,20.34,4.92-1.28,5.76-2.57,11.51-10.41-2.31-20.76-5-6.29-1.65-12.55-3.43l3.24-11.34q2.28-8,4.54-15.91l2.75-9.62,2.52-8.85q1.38-4.8,2.74-9.62,5.64,1.62,11.32,3.09,9.32,2.44,18.72,4.53c-.72,3.25-1.45,6.51-2.17,9.76Q73.14,428.87,63.63,426.39Z" fill="#3a3a3a"/><path d="M108.18,471q-7.71-1.25-15.39-2.7-2.94,6.07-6,12.11-5.64-1.11-11.25-2.32,14.52-26.22,27.4-53,7.41,1.38,14.85,2.54,2.21,29.1,5.84,58.24-7.18-.87-14.34-1.91C109.19,482,108.47,474.2,108.18,471Zm-.94-12.83q-.4-9.63-.69-19.24-4,8.87-8.11,17.69C101.37,457.18,104.31,457.69,107.24,458.19Z" fill="#3a3a3a"/><path d="M126.85,486.7q3.81-28.36,7.56-56.76c2.39.33,4.78.63,7.17.92a28.65,28.65,0,0,1,17.95,6.07c3.51,2.93,5.3,6.57,5.07,10.37-.27,4.06-2.36,12.56-15.31,14.55Q156.15,475,163.75,488q-4.44,2-8.95,3.86-6.2-10.86-11.89-21.85-1,9.15-2,18.31Q133.87,487.61,126.85,486.7Zm26.66-43a18.17,18.17,0,0,0-7.38-3.43c-.47,4.36-.92,8.73-1.39,13.09,10-.19,10.33-4.86,10.49-6.7C155.33,445.47,154.35,444.38,153.51,443.66Z" fill="#3a3a3a"/><path d="M201.64,443.81l0,9.07q8,0,16-.3.15,5,.32,10-8.15.27-16.31.31,0,14.1.1,28.19-6.41,0-12.81-.09.52-28.62,1-57.24,13.56.24,27.1-.21.17,5,.34,10Q209.55,443.78,201.64,443.81Z" fill="#3a3a3a"/><path d="M223.12,490.74q-.9-28.62-1.87-57.22,3.62-.12,7.22-.28a28.69,28.69,0,0,1,18.71,3c3.94,2.32,6.32,5.61,6.7,9.4.4,4.05-.26,12.77-12.72,16.86q8.94,11.88,18.57,23.47-4.07,2.67-8.2,5.27-7.91-9.69-15.32-19.59.51,9.18,1,18.38Q230.18,490.49,223.12,490.74Zm19.22-46.83a17.86,17.86,0,0,0-7.84-2.17l.78,13.14c9.81-1.83,9.4-6.49,9.25-8.34C244.43,445.4,243.3,444.48,242.34,443.91Z" fill="#3a3a3a"/><path d="M275.32,486.36q-6.06.78-12.11,1.45-3.1-28.47-6.22-56.92c3.65-.4,7.28-.84,10.92-1.31Q271.63,458,275.32,486.36Z" fill="#3a3a3a"/><path d="M285.41,436.9l1.47,9.09q8.92-1.44,17.8-3.18,1,4.9,1.92,9.81-8.81,1.72-17.66,3.17,1.1,8.2,2.18,16.41,10.29-1.68,20.55-3.72L314,480.05q-10.47,2.08-21,3.79-6.39,1-12.79,1.93-.82-5.85-1.63-11.69-1.14-8.19-2.27-16.38l-1.38-9.91c-.42-3-.85-6.07-1.27-9.11l-1.38-9.91c3.85-.53,7.71-1.11,11.54-1.74q9.49-1.53,18.93-3.42c.65,3.27,1.31,6.54,1.95,9.81Q295.07,435.34,285.41,436.9Z" fill="#3a3a3a"/><path d="M307.58,423.58c2.35-.59,4.69-1.19,7-1.82Q327,436,340.5,449.7q-4.62-16.26-9.2-32.54,4.24-1.12,8.46-2.33,8.25,27.45,16.65,54.87c-3.75,1.12-7.49,2.2-11.25,3.24l-.24.06q-11.71-11.88-22.67-24.2,3,13.63,6,27.26c-3.21.7-6.43,1.37-9.64,2Q313.11,450.83,307.58,423.58Z" fill="#3a3a3a"/><path d="M361.23,468.56c-.53-1.84-1.07-3.68-1.59-5.53-2-7.12-11.69-42.67-12.12-44.11-.47-1.69-.92-3.38-1.39-5.07,1.7-.66,3.4-1.34,5.08-2,1.19-.43,2.39-.87,3.53-1.22,6.83-2.1,12.76-2,17.87.38,6,2.82,10.51,8.51,13.56,17.51,7.37,21-7.41,34.95-18.53,38.18Q364.45,467.64,361.23,468.56Zm8.89-16.41c3.88-3.62,7.14-9.93,4.05-19.67-1.85-5.82-4.41-9.59-7.28-11a9.65,9.65,0,0,0-6.06-.41C363.16,428.78,367.37,443.06,370.12,452.15Z" fill="#3a3a3a"/></g></g></svg>