<svg xmlns="http://www.w3.org/2000/svg" xmlns:xlink="http://www.w3.org/1999/xlink" viewBox="0 0 437.65 443.18"><defs><clipPath id="clip-path" transform="translate(0.09)"><path d="M366.37,219.49c4.6,31.8,10.47,110.57,13.86,124.73-34.65,27.72-67.5,37.61-121.92,41.58-86.76,6.33-153.54-12.13-193.39-38.11C69.39,317.23,76.46,237,80.51,217.75,174.41,219.49,272.46,217.75,366.37,219.49Z" fill="#45a4e5"/></clipPath><clipPath id="clip-path-2" transform="translate(0.09)"><path d="M114.43,112c-3.46,23.92-7.88,83.16-10.42,93.81,26.06,20.85,50.76,28.29,91.69,31.28,65.24,4.74,115.47-9.13,145.44-28.68-3.36-22.89-8.68-83.22-11.72-97.71C258.79,112,185.05,110.67,114.43,112Z" fill="none"/></clipPath><clipPath id="clip-path-3" transform="translate(0.09)"><polygon points="181.63 54.97 180.9 120.24 201.62 116 193.65 53.48 181.63 54.97" fill="none"/></clipPath><clipPath id="clip-path-4" transform="translate(0.09)"><polygon points="265.57 54.97 266.29 120.24 245.57 116 253.55 53.48 265.57 54.97" fill="none"/></clipPath></defs><g id="Layer_2" data-name="Layer 2"><g id="Слой_1" data-name="Слой 1"><polygon points="10.29 319.13 78.05 290.47 360.78 295.68 422.01 326.95 32.45 334.77 10.29 319.13" fill="#ff4367"/><path d="M366.37,219.49c4.6,31.8,10.47,110.57,13.86,124.73-34.65,27.72-67.5,37.61-121.92,41.58-86.76,6.33-153.54-12.13-193.39-38.11C69.39,317.23,76.46,237,80.51,217.75,174.41,219.49,272.46,217.75,366.37,219.49Z" transform="translate(0.09)" fill="#45a4e5"/><g clip-path="url(#clip-path)"><path d="M401.63,297.5a203.56,203.56,0,0,1-98.81-68.81l5.82-4.55a196.21,196.21,0,0,0,95.23,66.32Z" transform="translate(0.09)" fill="#ffca76"/><path d="M398.17,349.64a306.66,306.66,0,0,1-149-103.8l5.81-4.54A299.36,299.36,0,0,0,400.4,342.6Z" transform="translate(0.09)" fill="#ffca76"/><path d="M380.84,393.51a464.92,464.92,0,0,1-104.59-48.27A465.2,465.2,0,0,1,155.57,236.63l5.81-4.55A457.9,457.9,0,0,0,280.15,339a457.52,457.52,0,0,0,102.93,47.5Z" transform="translate(0.09)" fill="#ffca76"/><path d="M312.41,431.05A553.28,553.28,0,0,1,194.7,360.29a554.83,554.83,0,0,1-129-144.35L72,212.05A547.38,547.38,0,0,0,199.26,354.48,547,547,0,0,0,315.4,424.31Z" transform="translate(0.09)" fill="#ffca76"/><path d="M246.58,443.18a553.59,553.59,0,0,1-117.72-70.76A555,555,0,0,1-.09,228.07l6.27-3.9A547.26,547.26,0,0,0,133.43,366.61a546.35,546.35,0,0,0,116.14,69.82Z" transform="translate(0.09)" fill="#ffca76"/></g><path d="M368.88,239.88c-.87-7.83-1.7-14.83-2.51-20.39-93.91-1.74-192,0-285.86-1.74-.93,4.43-2,12.06-3.19,21.56,8.43,7.42,22.31,13.56,41.84,18.53,28,7.13,65.05,11.05,104.28,11.05S299.7,265,327.72,257.84C346.73,253,360.39,247.05,368.88,239.88Z" transform="translate(0.09)" fill="#ffca76"/><path d="M80.51,219.49c0,20.09,64,36.38,142.93,36.38s142.93-16.29,142.93-36.38-64-36.38-142.93-36.38S80.51,199.39,80.51,219.49Z" transform="translate(0.09)" fill="#76c1ff"/><path d="M114.43,112c-3.46,23.92-7.88,83.16-10.42,93.81,26.06,20.85,50.76,28.29,91.69,31.28,65.24,4.74,115.47-9.13,145.44-28.68-3.36-22.89-8.68-83.22-11.72-97.71C258.79,112,185.05,110.67,114.43,112Z" transform="translate(0.09)" fill="#ff4367"/><path d="M112.14,131c26.44,20.09,93.71,21.33,109.78,21.33s84.32-1.26,110.35-21.77c-1.06-8.86-2-16-2.85-19.92-70.63,1.3-144.37,0-215,1.3C113.7,117,112.93,123.63,112.14,131Z" transform="translate(0.09)" fill="#ffca76"/><g clip-path="url(#clip-path-2)"><path d="M88.19,171.52l-2.24-7a146.61,146.61,0,0,0,71.18-49.57l5.81,4.55a153.89,153.89,0,0,1-74.75,52.06Z" transform="translate(0.09)" fill="#ffca76"/><path d="M90.8,210.73l-2.24-7a225,225,0,0,0,50.58-23.34,225.08,225.08,0,0,0,58.37-52.54l5.82,4.56a232.49,232.49,0,0,1-60.28,54.25A232.69,232.69,0,0,1,90.8,210.73Z" transform="translate(0.09)" fill="#ffca76"/><path d="M103.83,243.72l-2.25-7a342.5,342.5,0,0,0,77.21-35.63,343.26,343.26,0,0,0,89.08-80.18l5.82,4.56a350.62,350.62,0,0,1-91,81.9A350.63,350.63,0,0,1,103.83,243.72Z" transform="translate(0.09)" fill="#ffca76"/><path d="M155.39,271.92l-3-6.75a410.21,410.21,0,0,0,87.15-52.39A410.39,410.39,0,0,0,335,105.89l6.28,3.89a418.2,418.2,0,0,1-97.19,108.81A417.64,417.64,0,0,1,155.39,271.92Z" transform="translate(0.09)" fill="#ffca76"/><path d="M204.89,281l-3-6.75a410,410,0,0,0,87.14-52.39A410.55,410.55,0,0,0,384.53,115l6.28,3.89a417.69,417.69,0,0,1-97.2,108.8A417.18,417.18,0,0,1,204.89,281Z" transform="translate(0.09)" fill="#ffca76"/></g><path d="M329.42,112c0,15.11-48.13,27.36-107.5,27.36S114.43,127.08,114.43,112s48.13-27.36,107.49-27.36S329.42,96.86,329.42,112Z" transform="translate(0.09)" fill="#ff7381"/><polygon points="181.72 54.97 181 120.24 201.71 116 193.74 53.48 181.72 54.97" fill="#76c1ff"/><path d="M181.52,12.46a51.76,51.76,0,0,1-1.1,13.06c-1.65,7.46-4.16,10.15-3.1,14.85.81,3.62,3.51,7.29,6.7,8.05,3.92.93,7.47-2.8,8.8-5.89C195.78,35.66,191.34,23.46,181.52,12.46Z" transform="translate(0.09)" fill="#ffca76"/><g clip-path="url(#clip-path-3)"><path d="M164,67l35.9-10.13c.28,2,.55,4,.83,6l-36,9.76C164.46,70.76,164.21,68.88,164,67Z" transform="translate(0.09)" fill="#45a4e5"/><path d="M167.26,79.16,203.15,69c.28,2,.55,4,.83,6l-36,9.76C167.75,82.9,167.5,81,167.26,79.16Z" transform="translate(0.09)" fill="#45a4e5"/><path d="M170.54,91.31l35.9-10.14c.28,2,.56,4,.83,6l-36,9.77C171,95.05,170.79,93.17,170.54,91.31Z" transform="translate(0.09)" fill="#45a4e5"/><path d="M173.83,103.45l35.9-10.13c.27,2,.55,4,.82,6l-36,9.77Q174.2,106.25,173.83,103.45Z" transform="translate(0.09)" fill="#45a4e5"/></g><polygon points="265.67 54.97 266.38 120.24 245.67 116 253.64 53.48 265.67 54.97" fill="#76c1ff"/><path d="M265.68,12.46a51.29,51.29,0,0,0,1.1,13.06c1.64,7.46,4.15,10.15,3.1,14.85-.82,3.62-3.5,7.29-6.7,8.05-3.92.93-7.48-2.8-8.8-5.89C251.42,35.66,255.85,23.46,265.68,12.46Z" transform="translate(0.09)" fill="#ffca76"/><g clip-path="url(#clip-path-4)"><path d="M283.22,67,247.33,56.88c-.28,2-.55,4-.83,6l36,9.76C282.74,70.76,283,68.88,283.22,67Z" transform="translate(0.09)" fill="#45a4e5"/><path d="M279.94,79.16,244,69c-.28,2-.55,4-.83,6l36,9.76C279.46,82.9,279.69,81,279.94,79.16Z" transform="translate(0.09)" fill="#45a4e5"/><path d="M276.65,91.31,240.76,81.17c-.28,2-.55,4-.83,6l36,9.77C276.16,95.05,276.41,93.17,276.65,91.31Z" transform="translate(0.09)" fill="#45a4e5"/><path d="M273.37,103.45l-35.9-10.13q-.42,3-.83,6l36,9.77C272.87,107.19,273.12,105.32,273.37,103.45Z" transform="translate(0.09)" fill="#45a4e5"/></g><polygon points="216.15 107.89 216.15 37.85 225.97 36.41 234.51 108.17 216.15 107.89" fill="#2a8ec6"/><polygon points="10.29 319.13 1.18 425.97 437.65 422.06 422.01 326.95 10.29 319.13" fill="#ff7381"/><path d="M219.72,0a36.91,36.91,0,0,0,3.51,10.52c3,5.86,6.05,7.69,5.85,11.69-.16,3.09-2.18,6.5-5.26,7.6-3.77,1.34-8-1.19-9.94-3.51C209.65,21.11,211.87,10.48,219.72,0Z" transform="translate(0.09)" fill="#ffca76"/><path d="M63.2,350.13q-2.7,35.81.06,37.46a5.28,5.28,0,0,1-2.85,2.61,10,10,0,0,1-4.07,1.19,3.79,3.79,0,0,1-3.47-2.15,15.7,15.7,0,0,1-1.75-6.34,80.32,80.32,0,0,1-.4-8.39c0-2.85.16-6.15.4-9.91H50a1.59,1.59,0,0,1-.49-.06h-.55l-.28,0-.34,0a1.9,1.9,0,0,1-.55-.06,10.18,10.18,0,0,1-1.28-.12,2.32,2.32,0,0,0-.62-.1l-.61,0-4.66-.68a3.43,3.43,0,0,0-.68-.12q-1,20.53,1.05,21.76a5.05,5.05,0,0,1-2.79,2.61,10.29,10.29,0,0,1-4.08,1.19,3.86,3.86,0,0,1-3.56-2.36,16.1,16.1,0,0,1-1.71-6.35q-.37-3.92-.37-8.88c0-3.31.15-6.66.46-10s.56-6.6.77-9.68.38-5.73.55-7.92A14.65,14.65,0,0,0,30,339c.17,0,.39-.09.68-.13s.83-.08,1.62-.12a12,12,0,0,1,2.27.09,9.4,9.4,0,0,1,2.36.71,5.83,5.83,0,0,1,3.59,4.11,10.75,10.75,0,0,1,.33,4c-.32,4.54-.59,8.74-.79,12.63l.43.09c.24.07.45.11.61.15l4.48.87,1.22.18,1.23.18a.57.57,0,0,0,.31.06.35.35,0,0,1,.24.06,1.56,1.56,0,0,1,.55.07,1.59,1.59,0,0,1,.49.06h.43l.25,0,.24,0h.74c.12-1.35.27-3.15.46-5.43s.32-4,.43-5.3.19-2.65.27-4.17.11-2.72.09-3.65a9.75,9.75,0,0,0-.21-2.11,4.81,4.81,0,0,1,.68-.12c.28,0,.82-.09,1.62-.13a11.24,11.24,0,0,1,2.27.1,9,9,0,0,1,2.36.7,6.6,6.6,0,0,1,2.18,1.47,6.4,6.4,0,0,1,1.4,2.63A11,11,0,0,1,63.2,350.13Z" transform="translate(0.09)" fill="#fff"/><path d="M101,366.69h2c-.16.57-.41,1.31-.74,2.23a52.68,52.68,0,0,1-2.21,4.91,42.21,42.21,0,0,1-3.67,6.25A20.49,20.49,0,0,1,91.15,385a11.83,11.83,0,0,1-6.74,2.21,4.21,4.21,0,0,1-3.52-1.63,7.52,7.52,0,0,1-1.5-3.89,34.52,34.52,0,0,1-.07-5.58Q75,380.3,70.25,379.5a4.6,4.6,0,0,1-3.86-3,7,7,0,0,1,.4-5.28,9.87,9.87,0,0,1,3.89-4.47A13.82,13.82,0,0,1,80.55,365a15.11,15.11,0,0,0-.12-4.1,4.87,4.87,0,0,1,.61-.13,13.46,13.46,0,0,1,1.44-.09,13.12,13.12,0,0,1,2,.09,8,8,0,0,1,2.09.61,6,6,0,0,1,1.93,1.32A5.85,5.85,0,0,1,89.78,365a10.08,10.08,0,0,1,.28,3.62q-.93,12.75,1.4,12.81c.62,0,1.37-.45,2.27-1.47a32.15,32.15,0,0,0,4.26-6.1,31.6,31.6,0,0,0,2.42-5.3C100.6,368,100.78,367.32,101,366.69Zm-28.33,6q-.12,3.13,2.64,2.21a12.17,12.17,0,0,0,4.54-3.31c.16-1.55.3-2.71.42-3.49a12.37,12.37,0,0,0-2,.15,18.18,18.18,0,0,0-2.39.55,4.65,4.65,0,0,0-2.27,1.41A3.88,3.88,0,0,0,72.64,372.69Z" transform="translate(0.09)" fill="#fff"/><path d="M115.8,363.8q3.32.43,2.94,4.91c-.28,3.3-1.81,6.79-4.59,10.42a22.59,22.59,0,0,1-7.18,6.32q-.68,16.55.92,17.53a5.76,5.76,0,0,1-5.88,4.47c-1.31.05-2.37-.72-3.16-2.29a17.1,17.1,0,0,1-1.53-6.22q-.34-3.87-.34-8.68c0-3.2.14-6.45.43-9.72s.52-6.4.7-9.41.35-5.55.49-7.63a14.16,14.16,0,0,0-.15-4.41c.16,0,.37-.09.61-.13s.73-.07,1.45-.09a13.24,13.24,0,0,1,2,.09,8.7,8.7,0,0,1,2.09.61,5.84,5.84,0,0,1,1.92,1.33,5.73,5.73,0,0,1,1.26,2.35,9.65,9.65,0,0,1,.28,3.62c0,.21,0,.75-.1,1.62s-.11,1.59-.15,2.12Q111.32,363.2,115.8,363.8Zm-8.64,18.46a.46.46,0,0,0-.07-.07v.13q4.11-2.76,6.62-8.89,2.08-5,1.05-6.87a1,1,0,0,0-.86-.61c-1.1-.08-2.22,1.23-3.34,3.95a45,45,0,0,0-2.54,8.25C107.73,379.52,107.44,380.89,107.16,382.26Z" transform="translate(0.09)" fill="#fff"/><path d="M138.49,363.8q3.3.43,2.94,4.91c-.29,3.3-1.82,6.79-4.6,10.42a22.67,22.67,0,0,1-7.17,6.32Q129,402,130.58,403a5.77,5.77,0,0,1-5.89,4.47c-1.31.05-2.36-.72-3.16-2.29a17.3,17.3,0,0,1-1.53-6.22q-.34-3.87-.34-8.68c0-3.2.15-6.45.43-9.72s.52-6.4.71-9.41.34-5.55.49-7.63a14.4,14.4,0,0,0-.16-4.41c.17,0,.37-.09.62-.13s.72-.07,1.44-.09a13.18,13.18,0,0,1,2,.09,8.38,8.38,0,0,1,2.08.61,5.83,5.83,0,0,1,1.94,1.33,5.73,5.73,0,0,1,1.26,2.35,9.88,9.88,0,0,1,.27,3.62q0,.31-.09,1.62c-.07.89-.11,1.59-.16,2.12Q134,363.2,138.49,363.8Zm-8.65,18.46-.06-.07v.13q4.11-2.76,6.62-8.89,2.08-5,1-6.87a1,1,0,0,0-.86-.61c-1.1-.08-2.21,1.23-3.34,3.95a45.81,45.81,0,0,0-2.54,8.25C130.41,379.52,130.12,380.89,129.84,382.26Z" transform="translate(0.09)" fill="#fff"/><path d="M178.94,367c.41.25.82.5,1.23.73q-5.26,6.7-10.54,13.37a75.53,75.53,0,0,1,2,12,35.34,35.34,0,0,1-.15,8.24,17,17,0,0,1-1.63,5,10.13,10.13,0,0,1-1.89,2.73,5.45,5.45,0,0,1-1.48.92,6.57,6.57,0,0,1-2.21.55c-1.59.13-2.87-1-3.83-3.25a27.86,27.86,0,0,1-1.81-8.7c-.24-3.52-.42-7.34-.52-11.47s-.07-8,.09-11.53q-3.3,9.39-10.11,9.15a4.88,4.88,0,0,1-4.14-2.28,10.14,10.14,0,0,1-1.47-5.3,50.79,50.79,0,0,1,.21-6.29c.21-2.08.44-4,.71-5.82a11.37,11.37,0,0,0,.21-3.31,3.39,3.39,0,0,1,.52-.09l1.29-.06a12.74,12.74,0,0,1,1.78.06,8.85,8.85,0,0,1,1.81.43,4.88,4.88,0,0,1,1.65.92,3.49,3.49,0,0,1,1,1.65,5.94,5.94,0,0,1,.16,2.54q-1.6,11.24-.19,12.39c.57.45,1.52,0,2.82-1.35q3.44-3.48,3.44-11.7c0-.82-.09-1.64-.12-2.46l.61-.15a10.36,10.36,0,0,1,1.41-.19,13.7,13.7,0,0,1,2,0,7.35,7.35,0,0,1,2.15.52,5.68,5.68,0,0,1,2,1.32,7,7,0,0,1,1.41,2.48,10.75,10.75,0,0,1,.52,3.9c0,.73,0,2.05,0,3.92s0,3.35,0,4.41c2-2.2,4-4.41,5.85-6.62s3.22-3.86,4.08-5ZM168.4,400a25.49,25.49,0,0,0,1.2-8.08,30.31,30.31,0,0,0-.59-6.57,40,40,0,0,0-1.22-4.16A164.32,164.32,0,0,0,168.4,400Z" transform="translate(0.09)" fill="#fff"/><path d="M214.32,365.16c2.94,0,5,.88,6.1,2.66a7.89,7.89,0,0,1,.7,6.44,19.05,19.05,0,0,1-3.92,7.33q-7.11,8.57-19.13,8.58a3.9,3.9,0,0,1-3.55-2.36,16.27,16.27,0,0,1-1.72-6.35c-.24-2.61-.37-5.57-.37-8.88s.15-6.66.47-10,.56-6.6.76-9.69.39-5.72.55-7.91a15.06,15.06,0,0,0-.18-4.75c.16,0,.39-.08.67-.12s.83-.09,1.63-.12a12.08,12.08,0,0,1,2.27.09,9.58,9.58,0,0,1,2.35.7,6.8,6.8,0,0,1,2.18,1.47,6.46,6.46,0,0,1,1.41,2.64,10.82,10.82,0,0,1,.33,4.05q-.17,2.38-.36,5.64,3.93-8.46,9.2-7.85,4.29.8,3.3,6.8c-.64,4-2.63,8-5.94,12A13.71,13.71,0,0,1,214.32,365.16Zm-9.38,21.21a14.35,14.35,0,0,0,1.35-.62q.86-.42,3-1.8a26.57,26.57,0,0,0,3.77-2.92A15.12,15.12,0,0,0,216,377.1a9.73,9.73,0,0,0,1.22-4.89,2.75,2.75,0,0,0-1.07-2.24,4.1,4.1,0,0,0-2.54-.77,12.74,12.74,0,0,0-3.35.49,17.16,17.16,0,0,0-3.55,1.41,17.86,17.86,0,0,0-3.1,2Q203.35,385.44,204.94,386.37Zm6.62-37.09c-.9,0-1.81.71-2.76,2.26a24.81,24.81,0,0,0-2.45,5.89c-.7,2.37-1.25,4.39-1.66,6s-.71,3.09-.91,4.32v.43q4.53-3.18,7.48-10c1.59-3.76,2.08-6.43,1.46-8A1.32,1.32,0,0,0,211.56,349.28Z" transform="translate(0.09)" fill="#fff"/><path d="M245.09,367.3l1.78.67s-.31.64-.82,1.78-1.07,2.34-1.66,3.59a35.1,35.1,0,0,1-2.51,4.26,33.18,33.18,0,0,1-3.34,4.19,15,15,0,0,1-4.11,3,10,10,0,0,1-4.84,1.17,4.89,4.89,0,0,1-4.14-2.24,9.88,9.88,0,0,1-1.47-5.27,50.5,50.5,0,0,1,.21-6.28q.3-3.13.71-5.83a11.38,11.38,0,0,0,.21-3.31c.25-.05.57-.09,1-.15a10.8,10.8,0,0,1,2.18,0,8,8,0,0,1,2.66.55,4.18,4.18,0,0,1,1.9,1.74,4.76,4.76,0,0,1,.5,3.31c-1.11,7.48-.92,11.52.55,12.08.61.25,1.45,0,2.51-.74a17.47,17.47,0,0,0,4.14-4.5,48.31,48.31,0,0,0,3.4-5.61C244.31,368.93,244.7,368.11,245.09,367.3Zm-12-9.14a4.6,4.6,0,0,1-7.85-3.24,4.45,4.45,0,0,1,1.35-3.25,4.59,4.59,0,1,1,6.5,6.49Z" transform="translate(0.09)" fill="#fff"/><path d="M270.66,368.77l1.35-.06c.57.12.78.45.62,1,0,0-.16.56-.44,1.53s-.59,2-.92,3.19-.79,2.54-1.4,4.2-1.27,3.24-1.93,4.75a36.57,36.57,0,0,1-2.49,4.6,27.39,27.39,0,0,1-3,4,13,13,0,0,1-3.59,2.67,8.22,8.22,0,0,1-4.17.89,4.23,4.23,0,0,1-2.76-1.07,5.35,5.35,0,0,1-1.53-2.79,22.26,22.26,0,0,1-.56-3.8,30.21,30.21,0,0,1,.16-4.72c.19-1.8.38-3.43.58-4.87s.44-3.09.71-4.88.46-3.19.58-4.17a24.19,24.19,0,0,1-6.1-.71,4.8,4.8,0,0,1-2.85-1.62,5.35,5.35,0,0,1-.77-2.21,7.83,7.83,0,0,1,.12-2.54,4.58,4.58,0,0,0-.21-2.61,7.6,7.6,0,0,1,.95-.37,17,17,0,0,1,2.09-.42,6.81,6.81,0,0,1,2.63,0,3.26,3.26,0,0,1,2,1.4,5.09,5.09,0,0,1,.65,3.38c-.09,1.07.8,1.59,2.63,1.59a16,16,0,0,1,2,0,9.86,9.86,0,0,1,2.33.52,6,6,0,0,1,2.24,1.32,6.23,6.23,0,0,1,1.45,2.55,9,9,0,0,1,.24,3.95c-1,7.52-1.43,12.09-1.35,13.73q.12,4.66,3.19,1.35a22.44,22.44,0,0,0,4.07-7.2,62.82,62.82,0,0,0,2.8-8.73C270.12,371.3,270.39,370,270.66,368.77Z" transform="translate(0.09)" fill="#fff"/><path d="M291.62,366.87l1.35,1q-.18.5-.48,1.26c-.21.51-.67,1.54-1.38,3.07s-1.47,3-2.25,4.34a47.08,47.08,0,0,1-3,4.54,29.82,29.82,0,0,1-3.69,4.23,15.39,15.39,0,0,1-4.31,2.85,9.9,9.9,0,0,1-4.91.92,3.22,3.22,0,0,1-2.51-1.47,10,10,0,0,1-1.56-4.13,55.48,55.48,0,0,1-.8-5.68,68.62,68.62,0,0,1-.22-7.13q.06-4.22.19-7.45c.07-2.17.2-4.7.36-7.61l-1,0a7.29,7.29,0,0,0-1,.09,18.58,18.58,0,0,0-2,.07h-4c-.07-.64-.13-1.27-.19-1.91a.89.89,0,0,0,.3-.05l.8-.13.74-.12c.29,0,.64-.1,1.07-.15l1.07-.16c.13,0,.41,0,.86-.09l1-.15c.45-.09,1.17-.16,2.15-.25a.57.57,0,0,1,.24-.06q.81-12.13.31-14l.62-.12c.24,0,.72-.07,1.43-.1a13.27,13.27,0,0,1,2,.1,7.51,7.51,0,0,1,2.08.61,5.86,5.86,0,0,1,1.93,1.32,5.66,5.66,0,0,1,1.26,2.36,9.46,9.46,0,0,1,.27,3.62c0,.73-.14,2.53-.3,5.39.16,0,.45,0,.86,0l.86,0q.68-.06,1.89-.06l.86,0,.8,0h2.4c0,.64.07,1.28.11,1.91a7.88,7.88,0,0,1-1,.24,7.3,7.3,0,0,1-1.28.18,4.21,4.21,0,0,0-.77.1l-.83.15a6.33,6.33,0,0,0-.95.1c-.43.05-.76.11-1,.15a9.35,9.35,0,0,0-1,.09c-.47.06-.83.11-1.07.16-.17,3.22-.29,6.78-.37,10.66,0,7.44.1,11.62.19,12.57.28,3.35,1,5,2.14,5a3.07,3.07,0,0,0,1.84-.85,24.33,24.33,0,0,0,4.23-5.27,70.79,70.79,0,0,0,4-6.94C290.61,368.91,291.12,367.9,291.62,366.87Z" transform="translate(0.09)" fill="#fff"/><path d="M322.46,369l1.16.37a13.87,13.87,0,0,1-.58,1.6c-.26.65-.79,1.81-1.58,3.46a38,38,0,0,1-2.4,4.32,13.93,13.93,0,0,1-2.85,3.22A3.77,3.77,0,0,1,313,383c-1.18-.24-2.12-1.42-2.82-3.56a30.36,30.36,0,0,1-1.35-6.8,37.2,37.2,0,0,0-1.1-6.56c-.54-2-1.25-2.94-2.14-2.94s-1.32.82-1.72,2.45a49.1,49.1,0,0,0-1,5.92q-.44,3.47-1.17,6.93a13.8,13.8,0,0,1-2.64,5.85,5.77,5.77,0,0,1-4.9,2.33c-1.31.05-2.36-.72-3.15-2.29a17.14,17.14,0,0,1-1.54-6.23c-.22-2.57-.34-5.47-.34-8.67s.14-6.45.43-9.72.52-6.41.7-9.41.36-5.55.5-7.63a14.92,14.92,0,0,0-.15-4.42,7.8,7.8,0,0,1,1.13-.22,15.57,15.57,0,0,1,2.45.06,8.59,8.59,0,0,1,3,.8,5.64,5.64,0,0,1,2.26,2.46,8.11,8.11,0,0,1,.74,4.63q-1,13.61-1.29,22.8c1.56-7.31,3.82-11,6.81-11,1.59,0,2.83,1.12,3.71,3.34a23.85,23.85,0,0,1,1.56,7.38,73.86,73.86,0,0,0,.83,7.61c.39,2.37,1,3.66,1.75,3.86.93.24,2.14-.56,3.61-2.39a35.12,35.12,0,0,0,3.74-5.7C321.45,370.92,322,369.93,322.46,369Z" transform="translate(0.09)" fill="#fff"/><path d="M352,368.52c.49.36,1,.7,1.48,1.05q-2.94,7.9-7.85,11.16a14.09,14.09,0,0,1-8.58,2.21,4.37,4.37,0,0,1-3.41-1.6,5.68,5.68,0,0,1-1.13-3.59,37,37,0,0,1,.3-4.62,10.88,10.88,0,0,1-4.07,4,7.28,7.28,0,0,1-5.61,1,4.53,4.53,0,0,1-3.68-3.19,6.93,6.93,0,0,1,.67-5.27,9.82,9.82,0,0,1,4.11-4.23,13.5,13.5,0,0,1,9.93-1.16q.61-4.73,1-11.25c.21-4.36.33-7.74.33-10.15s0-4.07-.06-5a4.81,4.81,0,0,0,.61,0,10.29,10.29,0,0,1,1.48.07,10.63,10.63,0,0,1,2.08.36,9.71,9.71,0,0,1,2.14.92,6.68,6.68,0,0,1,1.93,1.56,6.43,6.43,0,0,1,1.17,2.55A10.39,10.39,0,0,1,345,347c-.12,1.1-.37,3-.73,5.64q-2.4,16.49-1.72,21,.56,4,2.95,2.4a19.33,19.33,0,0,0,3.82-3.34,15.21,15.21,0,0,0,2.18-3Zm-26.18,3c-.12,1.55.41,2.31,1.6,2.26,1.39-.07,2.83-1.07,4.36-3a14.29,14.29,0,0,0,1.89-3.44C328.69,367.2,326.08,368.58,325.83,371.53Z" transform="translate(0.09)" fill="#fff"/><path d="M384.56,366.69h2c-.16.57-.41,1.31-.73,2.23s-1.07,2.56-2.21,4.91a43.12,43.12,0,0,1-3.68,6.25,20.44,20.44,0,0,1-5.21,4.94,11.88,11.88,0,0,1-6.75,2.21,4.21,4.21,0,0,1-3.52-1.63,7.6,7.6,0,0,1-1.5-3.89,37,37,0,0,1-.07-5.58c-2.85,2.78-5.88,3.91-9.06,3.37a4.6,4.6,0,0,1-3.87-3,6.94,6.94,0,0,1,.4-5.28,9.84,9.84,0,0,1,3.9-4.47,13.79,13.79,0,0,1,9.86-1.78,15.54,15.54,0,0,0-.12-4.1,5.29,5.29,0,0,1,.61-.13,16.29,16.29,0,0,1,3.47,0,8.09,8.09,0,0,1,2.08.61,5.91,5.91,0,0,1,1.93,1.32,5.85,5.85,0,0,1,1.26,2.36,9.67,9.67,0,0,1,.27,3.62q-.91,12.75,1.41,12.81c.62,0,1.37-.45,2.27-1.47a32.2,32.2,0,0,0,4.27-6.1,33.1,33.1,0,0,0,2.41-5.3C384.2,368,384.38,367.32,384.56,366.69Zm-28.31,6q-.13,3.13,2.63,2.21a12.09,12.09,0,0,0,4.54-3.31c.16-1.55.3-2.71.42-3.49a12.09,12.09,0,0,0-2,.15,17.93,17.93,0,0,0-2.4.55,4.75,4.75,0,0,0-2.27,1.41A3.82,3.82,0,0,0,356.25,372.69Z" transform="translate(0.09)" fill="#fff"/><path d="M419,367c.41.25.82.5,1.23.73q-5.28,6.7-10.55,13.37a75.65,75.65,0,0,1,2,12,35.13,35.13,0,0,1-.17,8.24,16.68,16.68,0,0,1-1.61,5,9.86,9.86,0,0,1-1.91,2.73,5.14,5.14,0,0,1-1.47.92,6.57,6.57,0,0,1-2.21.55c-1.58.13-2.87-1-3.83-3.25a27.86,27.86,0,0,1-1.81-8.7c-.24-3.52-.42-7.34-.51-11.47s-.08-8,.08-11.53q-3.3,9.39-10.11,9.15a4.91,4.91,0,0,1-4.14-2.28,10.14,10.14,0,0,1-1.47-5.3,48.92,48.92,0,0,1,.22-6.29c.2-2.08.44-4,.7-5.82a11.54,11.54,0,0,0,.22-3.31,3,3,0,0,1,.51-.09l1.3-.06a12.65,12.65,0,0,1,1.77.06,8.93,8.93,0,0,1,1.82.43,5.08,5.08,0,0,1,1.65.92,3.57,3.57,0,0,1,1,1.65,6.12,6.12,0,0,1,.15,2.54c-1.07,7.49-1.12,11.62-.18,12.39q.85.68,2.82-1.35,3.44-3.48,3.43-11.7c0-.82-.09-1.64-.12-2.46l.62-.15a10.14,10.14,0,0,1,1.4-.19,13.72,13.72,0,0,1,2,0,7.35,7.35,0,0,1,2.15.52,5.59,5.59,0,0,1,2,1.32,7,7,0,0,1,1.42,2.48,11,11,0,0,1,.51,3.9c0,.73,0,2.05,0,3.92s0,3.35,0,4.41q3.08-3.3,5.85-6.62c1.87-2.2,3.23-3.86,4.08-5Zm-10.55,33a25.49,25.49,0,0,0,1.2-8.08,30.43,30.43,0,0,0-.58-6.57,42.47,42.47,0,0,0-1.23-4.16A164.32,164.32,0,0,0,408.47,400Z" transform="translate(0.09)" fill="#fff"/><path d="M54.45,192.23a16.26,16.26,0,0,1-3.79-.48c-7.87-1.91-16.43-8.81-20.82-16.8A33.14,33.14,0,0,1,26,157.72a22.15,22.15,0,0,0-7.69,3.15c-8.86,5.82-10.62,16.77-11,20L0,180.1c.41-4,2.67-17.79,14.24-25.41a30.23,30.23,0,0,1,12.9-4.64,33.87,33.87,0,0,1,5.66-11.81,36.32,36.32,0,0,1,17-12.05,37.36,37.36,0,0,1,1.11-6.78c5.58-21.13,29.34-27.33,30.35-27.59L83.05,99c-.2,0-20.53,5.35-25,22.31a28.9,28.9,0,0,0-.62,3c1.37-.21,2.75-.34,4.14-.42,9.26-.47,17.32,2.19,22.14,7.34,6,6.35,8.45,18.63,2.63,24.33-2.21,2.16-5.5,3.2-9.48,3-7.32-.39-15.94-4.92-21-11a27.13,27.13,0,0,1-5.83-13.45A28.33,28.33,0,0,0,38.7,142.7a26,26,0,0,0-3.84,7.24,35.87,35.87,0,0,1,5.54.95c9.25,2.29,17.09,7.88,21,15,4.53,8.25,5.14,20.45-1.23,24.77A10,10,0,0,1,54.45,192.23Zm-21.08-35a25.85,25.85,0,0,0,3,14.17c3.82,7,11.13,12,16.08,13.17,1.91.47,3.11.28,3.6-.06,2-1.33,2.17-9.14-1.09-15.09-2.92-5.3-9-9.54-16.29-11.36A30.3,30.3,0,0,0,33.37,157.22ZM57.2,131.83a20.23,20.23,0,0,0,4.38,11c4.25,5.16,11.1,8.1,15.67,8.34,1.81.1,3.24-.22,3.91-.88,2-1.92,1.29-9.57-2.86-14-3.27-3.5-9.39-5.37-16.35-5A35.43,35.43,0,0,0,57.2,131.83Z" transform="translate(0.09)" fill="#76c1ff"/><path d="M108.81,84.13a65.83,65.83,0,0,0-16-16c-23.14-16.19-50.3-12.28-60.9-9.86l-1.65-7.19C41.78,48.39,71.43,44.16,97,62a73.47,73.47,0,0,1,17.83,17.83Z" transform="translate(0.09)" fill="#ffca76"/><path d="M23.58,98.55l-5.91-4.43a48.12,48.12,0,0,1,14.11-12.7c13.81-8.12,27.94-7,35.14-5.65L65.53,83c-6.17-1.18-18.28-2.13-30,4.77A40.59,40.59,0,0,0,23.58,98.55Z" transform="translate(0.09)" fill="#ff7381"/><path d="M318.3,77.68C318,74.51,317,60.8,324.29,49a27.39,27.39,0,0,1-2.16-5.85c-2.55-10.41,1.3-21.88,10.06-29.9l5,5.44c-6.76,6.21-9.79,14.91-7.88,22.71.08.33.17.65.26,1,.56-.55,1.14-1.08,1.75-1.59,4.1-3.52,15-11.34,27.26-8,6.39,1.76,15.88,7.51,15.83,16.11,0,9-10.12,14.58-16.87,16.14-9.38,2.15-21-1.44-28.49-9.37-4.35,9.08-3.67,18.82-3.4,21.24Zm14.91-28.47c5.57,6.94,15.22,10.33,22.65,8.61,5.25-1.21,11.13-5.19,11.15-9s-6-7.73-10.41-8.94c-8.86-2.44-17.28,3.69-20.49,6.44A29.23,29.23,0,0,0,333.21,49.21Z" transform="translate(0.09)" fill="#ffca76"/><path d="M399.65,93.62c-2.72-3-12.82-12.67-28.65-13.14-15.31-.44-25.8,8.12-28.66,10.75l-5-5.42A48.52,48.52,0,0,1,371.22,73.1c18.72.55,30.66,12,33.87,15.53Z" transform="translate(0.09)" fill="#76c1ff"/><path d="M405.42,147.12c-2.58-7.07-10.6-24.44-29.35-33.1a53.58,53.58,0,0,0-21.95-4.87l.09-7.39a60.89,60.89,0,0,1,25,5.56c21.26,9.82,30.29,29.33,33.19,37.26Z" transform="translate(0.09)" fill="#ff7381"/></g></g></svg>