<svg xmlns="http://www.w3.org/2000/svg" xmlns:xlink="http://www.w3.org/1999/xlink" viewBox="0 0 523.9 474.37"><defs><clipPath id="clip-path" transform="translate(25.59)"><path d="M428.35,182.8c5.65,39,12.86,135.77,17,153.15C402.83,370,362.5,382.14,295.68,387c-106.52,7.76-188.52-14.89-237.45-46.79,5.49-37.39,14.17-135.87,19.15-159.54C192.67,182.8,313.06,180.67,428.35,182.8Z" fill="none"/></clipPath><clipPath id="clip-path-2" transform="translate(25.59)"><polygon points="318.65 89.73 319.83 196.29 286.01 189.38 299.03 87.31 318.65 89.73" fill="none"/></clipPath><clipPath id="clip-path-3" transform="translate(25.59)"><polygon points="181.61 89.73 180.44 196.29 214.25 189.38 201.23 87.31 181.61 89.73" fill="none"/></clipPath></defs><g id="Layer_2" data-name="Layer 2"><g id="Слой_1" data-name="Слой 1"><path d="M428.35,182.8c5.65,39,12.86,135.77,17,153.15C402.83,370,362.5,382.14,295.68,387c-106.52,7.76-188.52-14.89-237.45-46.79,5.49-37.39,14.17-135.87,19.15-159.54C192.67,182.8,313.06,180.67,428.35,182.8Z" transform="translate(25.59)" fill="#ff4367"/><path d="M432.09,213.92c-43.16,32.79-153,34.82-179.22,34.82-26.44,0-137.66-2.06-180.16-35.55,1.73-14.45,3.34-26.18,4.67-32.52,115.29,2.13,235.68,0,351,2.13C429.54,191,430.81,201.85,432.09,213.92Z" transform="translate(25.59)" fill="#ffca76"/><g clip-path="url(#clip-path)"><path d="M470.22,283.06A254.42,254.42,0,0,1,346.64,197l14.53-11.38a236.21,236.21,0,0,0,114.65,79.85Z" transform="translate(25.59)" fill="#ffca76"/><path d="M466,347.09a382.62,382.62,0,0,1-86-39.71,382.65,382.65,0,0,1-99.25-89.32l14.55-11.38a364.33,364.33,0,0,0,94.46,85,363.9,363.9,0,0,0,81.87,37.78Z" transform="translate(25.59)" fill="#ffca76"/><path d="M444.7,401a575.2,575.2,0,0,1-129.48-59.76,576,576,0,0,1-149.4-134.45l14.55-11.38A557.64,557.64,0,0,0,325,325.51,556.47,556.47,0,0,0,450.3,383.35Z" transform="translate(25.59)" fill="#ffca76"/><path d="M360.19,446.87a685.75,685.75,0,0,1-145.52-87.49A685.61,685.61,0,0,1,55.25,180.91l15.68-9.73A667.54,667.54,0,0,0,226.08,344.86,666.48,666.48,0,0,0,367.68,430Z" transform="translate(25.59)" fill="#ffca76"/><path d="M279.37,461.75a685.11,685.11,0,0,1-145.53-87.48A685.94,685.94,0,0,1-25.59,195.81l15.7-9.74A667.14,667.14,0,0,0,145.25,359.75a666.89,666.89,0,0,0,141.6,85.12Z" transform="translate(25.59)" fill="#ffca76"/></g><path d="M77.38,182.8c0,24.67,78.57,44.67,175.49,44.67s175.48-20,175.48-44.67-78.56-44.67-175.48-44.67S77.38,158.13,77.38,182.8Z" transform="translate(25.59)" fill="#ff7381"/><polygon points="344.25 89.73 345.42 196.29 311.6 189.38 324.62 87.31 344.25 89.73" fill="#76c1ff"/><path d="M318.83,20.34a83.56,83.56,0,0,0,1.8,21.31c2.68,12.2,6.78,16.58,5.06,24.24-1.34,5.92-5.73,11.93-10.94,13.16-6.4,1.51-12.21-4.59-14.37-9.62C295.55,58.21,302.79,38.31,318.83,20.34Z" transform="translate(25.59)" fill="#ffca76"/><g clip-path="url(#clip-path-2)"><path d="M347.47,109.4l-58.6-16.54c-.44,3.26-.9,6.51-1.35,9.77l58.76,15.94C346.68,115.51,347.08,112.46,347.47,109.4Z" transform="translate(25.59)" fill="#45a4e5"/><path d="M342.11,129.23l-58.6-16.54q-.69,4.88-1.36,9.77l58.77,15.94C341.32,135.34,341.71,132.29,342.11,129.23Z" transform="translate(25.59)" fill="#45a4e5"/><path d="M336.74,149.06l-58.6-16.54c-.44,3.25-.9,6.51-1.36,9.76l58.78,15.95C336,155.17,336.35,152.11,336.74,149.06Z" transform="translate(25.59)" fill="#45a4e5"/><path d="M331.38,168.89l-58.6-16.55c-.46,3.26-.9,6.52-1.36,9.77l58.77,15.94C330.59,175,331,171.94,331.38,168.89Z" transform="translate(25.59)" fill="#45a4e5"/></g><polygon points="207.2 89.73 206.03 196.29 239.84 189.38 226.82 87.31 207.2 89.73" fill="#76c1ff"/><path d="M181.43,20.34a83.46,83.46,0,0,1-1.79,21.31c-2.69,12.2-6.8,16.58-5.06,24.24,1.33,5.92,5.72,11.93,10.94,13.16,6.39,1.51,12.2-4.59,14.36-9.62C204.71,58.21,197.47,38.31,181.43,20.34Z" transform="translate(25.59)" fill="#ffca76"/><g clip-path="url(#clip-path-3)"><path d="M152.78,109.4l58.6-16.54c.46,3.26.91,6.51,1.36,9.77L154,118.57Z" transform="translate(25.59)" fill="#45a4e5"/><path d="M158.15,129.23l58.61-16.54,1.35,9.77L159.35,138.4Z" transform="translate(25.59)" fill="#45a4e5"/><path d="M163.51,149.06l58.61-16.54c.45,3.25.91,6.51,1.35,9.76l-58.76,15.95Z" transform="translate(25.59)" fill="#45a4e5"/><path d="M168.88,168.89l58.61-16.55c.44,3.26.9,6.52,1.35,9.77l-58.76,15.94Z" transform="translate(25.59)" fill="#45a4e5"/></g><polygon points="288.03 176.13 288.03 61.78 272 59.43 258.06 176.6 288.03 176.13" fill="#2a8ec6"/><path d="M256.44,0a58.72,58.72,0,0,1-5.72,17.17c-4.94,9.58-9.87,12.55-9.53,19.08.24,5,3.55,10.62,8.58,12.4,6.15,2.2,13.12-1.93,16.22-5.72C272.9,34.47,269.28,17.1,256.44,0Z" transform="translate(25.59)" fill="#ffca76"/><path d="M74,372.36q-9.37,22.92-18.76,45.85-4.5-1.83-9-3.77l8.24-19.11c-2.52-1.08-5-2.19-7.53-3.31l-8.34,17.67q-4.42-2.06-8.82-4.2Q40.45,384,51,362.43c2.67,1.3,5.33,2.57,8,3.82q-3.65,7.85-7.32,15.67,3.6,1.63,7.24,3.19l7-16.17C68.59,370.1,71.31,371.24,74,372.36Z" transform="translate(25.59)" fill="#3a3a3a"/><path d="M86.83,417.16q-6.33-2.18-12.6-4.53-3.35,4.61-6.74,9.17c-3.06-1.17-6.13-2.37-9.17-3.59q15.88-19.63,30.54-40,6.11,2.26,12.24,4.34-2.2,24.48-3.33,49.17Q91.85,430,86,428.05C86.13,426.45,86.62,419.84,86.83,417.16Zm1-10.79c.66-5.37,1.38-10.72,2.11-16.07q-4.6,6.78-9.33,13.48C83,404.66,85.44,405.53,87.85,406.37Z" transform="translate(25.59)" fill="#3a3a3a"/><path d="M111.89,436.21c-3.85-1.11-7.68-2.25-11.51-3.45q7.25-22.83,14.43-45.69,3,.92,6,1.78a20.78,20.78,0,0,1,2.68.58A24.62,24.62,0,0,1,135,396.57c2.47,2.94,3.46,6.22,2.71,9.28-.91,3.71-4.6,11.85-19.64,9.16Q115,425.62,111.89,436.21Zm11.31-38.93-3,10.53c8.45,1.33,9.4-2.42,9.8-3.92a3.33,3.33,0,0,0-1-2.71A16.36,16.36,0,0,0,123.2,397.28Z" transform="translate(25.59)" fill="#3a3a3a"/><path d="M143.51,444.06q-5.83-1.29-11.66-2.72,5.81-23.23,11.55-46.5,3,.72,6,1.4a20.06,20.06,0,0,1,2.7.41,24.65,24.65,0,0,1,12,6.4c2.63,2.77,3.82,6,3.26,9.09-.68,3.76-3.86,12.11-19,10.37Zm8.86-39.56q-1.19,5.36-2.36,10.69c8.48.81,9.2-3,9.52-4.52a3.38,3.38,0,0,0-1.19-2.64A16.29,16.29,0,0,0,152.37,404.5Z" transform="translate(25.59)" fill="#3a3a3a"/><path d="M186.89,424.11q-1.47,13.53-2.92,27.07c-3.2-.37-6.39-.76-9.58-1.19q1.74-13.73,3.5-27.43-4.06-9.51-7.71-19.07c2.77-.92,5.51-1.87,8.24-2.84q2.81,7.08,5.83,14.11,7.16-6.31,13.94-12.82,3.08,3,6.23,6Q195.93,416.17,186.89,424.11Z" transform="translate(25.59)" fill="#3a3a3a"/><path d="M224,413.74q.11-3.33.23-6.66c.56,0,1.19,0,1.82.05,9.12.3,22.75.1,23.4,11.44a10.39,10.39,0,0,1-3,8.13c-.46.42-.93.83-1.46,1.25a14.68,14.68,0,0,1,2.6,1.91,15,15,0,0,1,4.83,12.32,12,12,0,0,1-5,9.64c-4.5,3.28-11.05,3.9-16.65,3.65a66.66,66.66,0,0,1-9-1.07l-.62-.17Q222.64,434,224,413.74Zm21.06,28.12c.12-3.14-.71-5.51-2.6-7.25-2.27-2.1-5.68-2.87-8.31-3.16q-.37,8.67-.76,17.35c3.49-.05,7.06-.55,9.28-2.2A5.75,5.75,0,0,0,245.07,441.86ZM235,414.29l-.45,10.09c4-.39,5.83-1.44,6.69-2.27a4,4,0,0,0,1.12-3.3C242.25,416.09,239.86,414.84,235,414.29Z" transform="translate(25.59)" fill="#3a3a3a"/><path d="M266.27,455.82c-3.43.08-6.87.14-10.31.15q-.09-24.08-.18-48.16c3.12,0,6.24-.06,9.36-.13Q265.72,431.76,266.27,455.82Z" transform="translate(25.59)" fill="#3a3a3a"/><path d="M270.42,455.65q-.53-24.07-1.13-48.15c2-.05,4.11-.1,6.15-.18A24.68,24.68,0,0,1,291.37,410c3.33,2,5.32,4.77,5.61,8,.3,3.41-.38,10.73-11,14.07q7.49,10.06,15.53,19.9c-2.32,1.47-4.65,2.92-7,4.36q-6.6-8.22-12.81-16.61.36,7.72.71,15.47Q276.4,455.49,270.42,455.65Zm16.75-39.24a15.27,15.27,0,0,0-6.67-1.89c.18,3.68.38,7.37.55,11.06,8.37-1.47,8.06-5.39,7.95-6.94C288.93,417.68,288,416.9,287.17,416.41Z" transform="translate(25.59)" fill="#3a3a3a"/><path d="M327,412.24c-2.88.44-5.77.86-8.66,1.24q2.55,18.94,5.07,37.9-5.24.71-10.47,1.3-2.14-19-4.3-38c-3.07.36-6.14.67-9.21,1q-.47-5.06-1-10.12,13.53-1.27,27-3.33C326,405.54,326.54,408.89,327,412.24Z" transform="translate(25.59)" fill="#3a3a3a"/><path d="M353,397.18q5.16,24.22,10.31,48.46-4.71,1-9.43,1.92l-4-20.43c-2.65.52-5.31,1-8,1.48q1.54,9.64,3.06,19.3-4.73.78-9.47,1.47-3.36-23.76-6.79-47.5c2.88-.42,5.74-.87,8.61-1.33q1.4,8.54,2.77,17.07,3.84-.67,7.67-1.42l-3.36-17.28Q348.69,398.1,353,397.18Z" transform="translate(25.59)" fill="#3a3a3a"/><path d="M367.1,443.63c-.35-1.57-.69-3.15-1.05-4.73-1.33-6.08-7.58-36.42-7.86-37.66-.31-1.44-.6-2.88-.9-4.33l4.41-1.43c1-.31,2.07-.62,3.05-.85,5.91-1.42,10.92-1,15.12,1.25,4.91,2.68,8.4,7.71,10.45,15.43,5,18.05-8.19,28.93-17.72,31.07C370.77,442.81,368.93,443.22,367.1,443.63Zm8.38-13.32c3.46-2.83,6.56-7.95,4.49-16.3-1.24-5-3.19-8.29-5.54-9.62a8.2,8.2,0,0,0-5.11-.66C370.88,410.33,373.65,422.54,375.48,430.31Z" transform="translate(25.59)" fill="#3a3a3a"/><path d="M421.11,417c-4.23,1.45-8.47,2.86-12.73,4.2.14,3.79.26,7.57.36,11.36q-4.68,1.46-9.39,2.81.38-25.23-.62-50.27,6.18-2,12.32-4.13,13.33,20.64,27.73,40.77Q433,424,427.13,426.14C426.28,424.77,422.59,419.26,421.11,417Zm-5.85-9.13Q411.09,401,407,394q.54,8.18,1,16.36C410.4,409.53,412.83,408.72,415.26,407.9Z" transform="translate(25.59)" fill="#3a3a3a"/><path d="M449.43,388.45q5.7,12.38,11.43,24.73-4.49,2-9,4-5.58-12.66-11.12-25.32-8.43-6-16.55-12.34,2.9-3.33,5.71-6.71,6.1,4.59,12.39,9.05,3-9.13,5.58-18.26c2.85.65,5.7,1.27,8.58,1.86Q453.25,376.94,449.43,388.45Z" transform="translate(25.59)" fill="#3a3a3a"/><path d="M143.24,118.37a93.48,93.48,0,0,0-23.81-43.86,91.34,91.34,0,0,0-26.3-18.79l3.17-6.67a98.77,98.77,0,0,1,28.43,20.3,100.94,100.94,0,0,1,25.7,47.34Z" transform="translate(25.59)" fill="#76c1ff"/><path d="M115.47,110.53a151.49,151.49,0,0,0-75-10.18L39.56,93a158.93,158.93,0,0,1,78.7,10.67Z" transform="translate(25.59)" fill="#ff7381"/><path d="M99.08,84.05A63,63,0,0,0,72,73a61.68,61.68,0,0,0-18.45,0l-1.09-7.31a69.32,69.32,0,0,1,20.64,0,70.45,70.45,0,0,1,30.26,12.38Z" transform="translate(25.59)" fill="#ffca76"/><path d="M122.21,134.88a60.65,60.65,0,0,0-26.31-6.15h-.19a60.58,60.58,0,0,0-25,5.45l-3.07-6.72a67.51,67.51,0,0,1,57.84.79Z" transform="translate(25.59)" fill="#76c1ff"/><path d="M349.83,94.25l-7.11-2A56.32,56.32,0,0,1,380.15,53.6l2.22,7a49,49,0,0,0-32.54,33.61Z" transform="translate(25.59)" fill="#ff7381"/><path d="M354.62,118l-6.46-3.59a70.58,70.58,0,0,1,27.5-27.49,71.4,71.4,0,0,1,42.62-8.25L417.39,86a63.88,63.88,0,0,0-38.15,7.38A63.14,63.14,0,0,0,354.62,118Z" transform="translate(25.59)" fill="#ffca76"/><path d="M422.31,131a81.52,81.52,0,0,0-11.22-6.24,84.83,84.83,0,0,0-30-7.49l.49-7.37a91.05,91.05,0,0,1,44.79,14.93Z" transform="translate(25.59)" fill="#76c1ff"/><polygon points="43.87 386.36 36.56 378.07 25.59 379.39 31.22 369.88 26.57 359.85 37.35 362.26 45.46 354.74 46.49 365.75 56.15 371.13 46.01 375.52 43.87 386.36" fill="#45a4e5"/><polygon points="505.62 386.36 512.92 378.07 523.9 379.39 518.27 369.88 522.91 359.85 512.13 362.26 504.03 354.74 502.98 365.75 493.34 371.13 503.48 375.52 505.62 386.36" fill="#45a4e5"/><path d="M255.84,474.37c-2.49,0-5,0-7.43-.06a529.8,529.8,0,0,1-227-55.11l3.29-6.61a522.3,522.3,0,0,0,223.81,54.33A522.25,522.25,0,0,0,471,420.35l3.06,6.73A530.23,530.23,0,0,1,255.84,474.37Z" transform="translate(25.59)" fill="#ffca76"/></g></g></svg>