<svg xmlns="http://www.w3.org/2000/svg" viewBox="0 0 385.62 447.61"><g id="Layer_2" data-name="Layer 2"><g id="Слой_1" data-name="Слой 1"><path d="M87.83,110.75c-14.33,8-64.3,38.25-81.9,99-23,79.61,25.33,156.75,72,194.14,74.6,59.79,200.7,62.79,266.8-19.55,43.7-54.43,54.4-137.66,22.35-204.56-33.88-70.68-100.73-92.37-120.38-97.72C164.06,59.6,98.45,103.4,87.83,110.75Z" fill="#ffca76"/><polygon points="363.51 271.01 338.76 287.94 330.94 252.76 363.51 271.01" fill="#2a8ec6"/><polygon points="61.23 93.81 39.09 367.42 345.27 375.24 328.33 85.99 61.23 93.81" fill="#ff7381"/><polygon points="330.55 123.78 328.33 85.99 61.23 93.81 58.81 123.78 330.55 123.78" fill="#d3264f"/><path d="M181.1,66.45a211.63,211.63,0,0,0-69,83.38l20.84-2.6q5.87,9.77,11.74,19.54a256.06,256.06,0,0,1,52.11-89.9Z" fill="#d3264f"/><path d="M201.17,66.45a253.48,253.48,0,0,1,37.52,32.83A255.71,255.71,0,0,1,284,166.52l-25-3.13L245,186.84a308.22,308.22,0,0,0-32.84-68.79A306.2,306.2,0,0,0,182.4,79Z" fill="#d3264f"/><polygon points="340.72 297.64 44.68 298.33 39.09 367.42 44.56 367.56 343.73 349.02 340.72 297.64" fill="#d3264f"/><polygon points="46.36 277.52 339.55 277.52 335.17 202.78 53.84 185.13 46.36 277.52" fill="#d3264f"/><polygon points="168.08 76.87 160.26 379.15 226.7 385.66 211.07 85.99 168.08 76.87" fill="#76c1ff"/><polygon points="166.96 119.87 212.83 119.87 211.07 85.99 209.1 85.57 167.82 86.78 166.96 119.87" fill="#45a4e5"/><polygon points="45.04 58.63 39.09 106.84 343.97 106.84 343.97 45.6 45.04 58.63" fill="#ff4367"/><path d="M182.79,68.52c10.94,1,57.94,4,80.89-25.46,2.93-3.76,14.05-18,9.13-29.26C267.72,2.16,248.34.44,237.35,1.74c-19.79,2.35-32,16.83-37,22.81C186.13,41.41,183.44,60.2,182.79,68.52Zm24.1-18.95a54,54,0,0,1,8-12.76c3.91-4.64,12-14.3,23.92-16.06l.78-.11a37,37,0,0,1,14.92,1.27c-.67,1.78-2.24,4.82-5.84,9.45-7.13,9.14-19.16,15-35.76,17.49h0C211,49.15,208.93,49.38,206.89,49.57Z" fill="#ffca76"/><path d="M183.79,28c-3-5.76-10.22-19.72-25.81-25.24C149.33-.36,133.31-2.51,127.05,6c-6,8.2.37,21.79,2,25.37C142.3,59.4,180.92,65.54,190,66.77,190.94,59.91,192.2,44.2,183.79,28ZM169.16,45.33h0c-13-5-21.65-12-25.75-20.71a31.59,31.59,0,0,1-3-8.72,30.68,30.68,0,0,1,12.31,1.7l.61.23c9.3,3.6,14.12,12.92,16.44,17.39A45.13,45.13,0,0,1,173.9,47C172.28,46.49,170.69,45.93,169.16,45.33Z" fill="#ffca76"/><path d="M177.2,56a211.52,211.52,0,0,0-69.06,83.38l20.84-2.6,11.73,19.54a256,256,0,0,1,52.12-89.9Z" fill="#ffca76"/><path d="M197.26,56a253.48,253.48,0,0,1,37.52,32.83,255.92,255.92,0,0,1,45.35,67.23l-25-3.13L241,176.41a308.43,308.43,0,0,0-32.84-68.79,305.12,305.12,0,0,0-29.71-39.08Q187.88,62.29,197.26,56Z" fill="#ffca76"/><polygon points="162.95 274.92 220.93 274.92 216.64 192.74 165.16 189.51 162.95 274.92" fill="#2a8ec6"/><polygon points="14.33 175.9 39.09 224.1 14.33 271.01 363.51 271.01 356.99 198.05 14.33 175.9" fill="#45a4e5"/><path d="M119.2,190.76l-2,75.17-12.66-.33.82-31.58-11.1-.29-1.24,29.64-12.66-.52,2.92-72.76,12.66.52-1.06,26.24,10.92.28.7-26.7Z" fill="#fff"/><path d="M156.71,244.79l-15.86.23-3.38,14.77-11.38.16,16.17-65.15,16.59-.23,15.63,64.05-14.4.37C159.65,256.87,157.57,248.28,156.71,244.79Zm-3.29-14.11L149,209.43l-4.82,21.38Z" fill="#fff"/><path d="M192.87,262.82,179,262l3.82-63.71,7.89.41a24.9,24.9,0,0,1,3.47-.06,28.9,28.9,0,0,1,16.23,6c3.78,3.19,5.75,7.24,5.53,11.43-.27,5.15-3,16.46-21.32,17.36Zm3.21-53.89-.84,14.56c10.45-.75,10.72-5.82,10.82-7.91.07-1.29-1-2.47-1.92-3.25A19.14,19.14,0,0,0,196.08,208.93Z" fill="#fff"/><path d="M234.37,262.29,221.29,262l1.24-60.26,7.46.1a23.28,23.28,0,0,1,3.27-.19,27.27,27.27,0,0,1,15.53,5.07c3.7,2.87,5.7,6.63,5.65,10.58-.06,4.87-2.17,15.65-19.47,17.17Zm1-51-.26,13.77c9.84-1.09,9.89-5.88,9.92-7.86,0-1.22-1-2.3-1.94-3A18,18,0,0,0,235.42,211.31Z" fill="#fff"/><path d="M277.05,230.47l-.92,33L266,263.13l.95-33.48-11-21.86L265,203.2l8.25,16.28,14.9-16.83,7.64,6.78Z" fill="#fff"/><polygon points="160.85 356.45 224.97 352.47 221.92 294.01 162.45 294.15 160.85 356.45" fill="#2a8ec6"/><polygon points="29.71 290.55 346.58 289.8 353.08 340.62 25.8 360.91 29.71 290.55" fill="#45a4e5"/><path d="M72.53,303.6,72.32,296c.63-.06,1.32-.06,2-.06,10.08-.35,25.23-.84,26,12.23a12.58,12.58,0,0,1-3.06,9.38c-.48.49-1,1-1.52,1.46a16,16,0,0,1,2.77,2.15c3.62,3.48,5.36,8.21,5.15,14.12a14.75,14.75,0,0,1-5,11.12c-4.52,3.82-11.06,4.72-16.69,4.72a66.33,66.33,0,0,1-9.1-.69l-.63-.14ZM96,335c.07-3.62-.83-6.33-2.85-8.27-2.43-2.37-6-3.13-8.82-3.34l-.07,20c3.54-.21,7.16-.9,9.38-2.85A6.87,6.87,0,0,0,96,335ZM84.48,303.6l-.06,11.61c4.23-.63,6.18-1.88,7.08-2.85a4.77,4.77,0,0,0,1.12-3.83C92.48,305.4,89.84,304,84.48,303.6Z" fill="#fff"/><path d="M120,348.46h-9.42V298.17H120Z" fill="#fff"/><path d="M129,346l.34-46,5.66.06a20.82,20.82,0,0,1,14.37,3.53,10,10,0,0,1,4.45,8c0,3.29-1.22,10.1-10.63,12.58L155,344.3l-6.11,3.58-9.88-16.62L138.94,346Zm16.16-36.59a13,13,0,0,0-5.89-2.2l-.06,10.57c7.44-.93,7.44-4.62,7.44-6.12A3.16,3.16,0,0,0,145.12,309.39Z" fill="#fff"/><path d="M183.75,308.08h-7.86v36.54H167.1V308.08h-8.33v-9.71h25Z" fill="#fff"/><path d="M210,298.4l3.43,44L206,343l-1.44-18.47-6.5.5,1.09,17.37-7.42.47L189,300.2l7.42-.47,1,15.37,6.4-.5L202.56,299Z" fill="#fff"/><path d="M221,339.41v-4.24c0-5.47.37-32.64.37-33.75l0-3.88,3.88-.37c.9-.05,1.79-.1,2.65-.1,5.09,0,9.07,1.48,11.94,4.35,3.34,3.39,4.93,8.49,4.82,15.49-.21,16.4-12,22.5-19.41,22.5Zm8.6-9.71c3.13-1.7,6.46-5.36,6.57-12.89.06-4.51-.79-7.75-2.39-9.4a6.38,6.38,0,0,0-3.93-1.64C229.8,311.71,229.64,322.69,229.6,329.7Z" fill="#fff"/><path d="M267.52,329.8H257.17l-2.33,9.61h-7.43l11.14-42.34h10.83L279,339l-9.39.1C269.33,337.71,268.06,332.09,267.52,329.8Zm-2-9.23-2.7-13.9-3.35,13.9Z" fill="#fff"/><path d="M294.17,315.44l.83,22.49-7,.23-.82-22.83-8.48-14.39,6-3.53,6.34,10.72,9.4-12.11L306,300.3Z" fill="#fff"/><polygon points="59.93 379.15 324.42 363.51 295.76 400 315.31 426.05 70.36 424.75 59.93 379.15" fill="#45a4e5"/><path d="M144,388.8l-6.6.41,1.93,30.68-7.38.46L130,389.68l-7,.44-.52-8.16,21-1.31Z" fill="#fff"/><path d="M169.19,406a24.85,24.85,0,0,1-1.07,6,13.67,13.67,0,0,1-3.42,6.15,9.49,9.49,0,0,1-3.65,2.23,12.11,12.11,0,0,1-2.18.37,1.64,1.64,0,0,1-.51.05h-.46l-.47-.05-.5-.05a9.21,9.21,0,0,1-3.85-1.16A9.62,9.62,0,0,1,150,417a14.43,14.43,0,0,1-2.59-6.34,38.4,38.4,0,0,1-.65-5.92c0-1.9,0-3.8,0-5.65s0-3.75.13-5.65a38.61,38.61,0,0,1,.7-5.92,15.45,15.45,0,0,1,1-3.19,9,9,0,0,1,2.35-3.34,8.24,8.24,0,0,1,4-1.85,8.35,8.35,0,0,1,1.81-.18l.4-.05h.42c.28,0,.56.05.89.05a12.15,12.15,0,0,1,3.78.88,9.92,9.92,0,0,1,3.3,2.54,14.61,14.61,0,0,1,2.91,6.25,50.55,50.55,0,0,1,.93,11.66C169.38,402.14,169.38,404.09,169.19,406Zm-5.79-5.79a40.94,40.94,0,0,0-1.19-10,8.75,8.75,0,0,0-1.72-3.52,3,3,0,0,0-2.5-1.06h-1a6.28,6.28,0,0,0-.93,0,1.74,1.74,0,0,0-.87.33,2.9,2.9,0,0,0-.84,1,8,8,0,0,0-.78,1.94,39.39,39.39,0,0,0-1.26,10.14,36,36,0,0,0,1.07,10.09,9.26,9.26,0,0,0,1.85,3.56,3.6,3.6,0,0,0,2.41,1.11h.79a1.65,1.65,0,0,0,.51-.09,2.73,2.73,0,0,0,.92-.55,9.09,9.09,0,0,0,1.95-3.25,31.09,31.09,0,0,0,1.61-9.76Z" fill="#fff"/><path d="M199.82,396.7l2.38,23.76-7.35.71L192.46,397l-9.94-14.67,6.12-4.13,7.41,10.93,9.15-13.46,6.11,4.17Z" fill="#fff"/><path d="M235.66,403.83a26.34,26.34,0,0,1-1.12,6.37,14.57,14.57,0,0,1-3.63,6.53,10,10,0,0,1-3.87,2.35,12.83,12.83,0,0,1-2.31.4,2.28,2.28,0,0,1-.54,0h-.49l-.5,0-.53-.06a9.81,9.81,0,0,1-4.07-1.22,10.23,10.23,0,0,1-3.29-2.8,15.32,15.32,0,0,1-2.75-6.72,42,42,0,0,1-.69-6.28c0-2,0-4,0-6s0-4,.15-6a38.56,38.56,0,0,1,.73-6.28,17.09,17.09,0,0,1,1.08-3.38,9.52,9.52,0,0,1,2.5-3.53,8.6,8.6,0,0,1,4.27-2,8.8,8.8,0,0,1,1.91-.2l.45-.05h.44c.29,0,.58.05.93.05a13.23,13.23,0,0,1,4,.93,10.59,10.59,0,0,1,3.48,2.7,15.45,15.45,0,0,1,3.09,6.62,53.91,53.91,0,0,1,1,12.36C235.86,399.71,235.86,401.77,235.66,403.83Zm-6.12-6.14a43.21,43.21,0,0,0-1.28-10.64,9.2,9.2,0,0,0-1.81-3.73,3.15,3.15,0,0,0-2.66-1.13h-1.07a5.51,5.51,0,0,0-1,.05,1.87,1.87,0,0,0-.93.34,3.06,3.06,0,0,0-.89,1.08,9.07,9.07,0,0,0-.84,2.06,41.77,41.77,0,0,0-1.32,10.75,37.51,37.51,0,0,0,1.13,10.69,9.57,9.57,0,0,0,2,3.77,3.71,3.71,0,0,0,2.55,1.18h.84a1.68,1.68,0,0,0,.53-.09,2.88,2.88,0,0,0,1-.59,9.42,9.42,0,0,0,2.06-3.44,33.18,33.18,0,0,0,1.72-10.34Z" fill="#fff"/><path d="M244.67,418.75c-4.23-3.48-4.87-9.68-5.16-15.19a245.72,245.72,0,0,1,1.51-29.8l7.72,1a209.28,209.28,0,0,0-1.46,26.1c.11,2.37.41,7.94,2.32,9.5.06.06.52.41.7.36.52-.06,1.79-1.11,3-3.37,4.87-9.16,4.76-22.26,4.7-30.56-.06-.81-.06-1.62-.06-2.26h7.83v2.2c.06,9,.17,25.69-5.63,36.59-1.22,2.38-4,6.5-8.28,7.37a7.42,7.42,0,0,1-1.63.17A8.77,8.77,0,0,1,244.67,418.75Z" fill="#fff"/></g></g></svg>