<svg xmlns="http://www.w3.org/2000/svg" xmlns:xlink="http://www.w3.org/1999/xlink" viewBox="0 0 657.45 356.31"><defs><clipPath id="clip-path"><polygon points="238.66 113.67 254.47 308.93 35.97 314.51 48.05 108.09 238.66 113.67" fill="none"/></clipPath></defs><g id="Layer_2" data-name="Layer 2"><g id="Слой_1" data-name="Слой 1"><polygon points="12.27 160.06 4.88 150.21 0.31 54.02 47.81 46.53 41.31 17.88 153.09 0 271.23 16.25 264.75 51.27 283.52 53.62 283.52 86.78 533.68 101.1 533.68 181.84 657.45 188.42 641.9 328.46 297.49 328.46 298.75 344.93 0 356.31 12.27 160.06" fill="#ff7381"/><path d="M31.34,345.22a1.85,1.85,0,0,1-.07-3.69l25.84-1a1.85,1.85,0,1,1,.13,3.69l-25.83,1Zm51.66-2a1.85,1.85,0,0,1-.06-3.69l25.83-1a1.85,1.85,0,1,1,.14,3.69l-25.83,1Zm51.68-2a1.85,1.85,0,0,1-.07-3.7l25.84-1a1.85,1.85,0,0,1,.13,3.7l-25.84,1Zm51.66-2a1.85,1.85,0,0,1-.07-3.69l25.84-1a1.86,1.86,0,0,1,1.91,1.78,1.85,1.85,0,0,1-1.77,1.92l-25.83,1ZM13,338.94h-.13a1.85,1.85,0,0,1-1.72-2l1.61-25.8a1.88,1.88,0,0,1,2-1.73,1.85,1.85,0,0,1,1.73,2l-1.62,25.8A1.83,1.83,0,0,1,13,338.94ZM238,337.35a1.85,1.85,0,0,1-.07-3.69l25.83-1a1.85,1.85,0,1,1,.14,3.69l-25.84,1ZM285.85,332a1.85,1.85,0,0,1-1.84-1.7l-1-13.39a1.89,1.89,0,0,1,.49-1.4,1.82,1.82,0,0,1,1.35-.59h12.42a1.85,1.85,0,1,1,0,3.7H286.82l.87,11.39a1.83,1.83,0,0,1-1.69,2Zm321.64-13.38H581.63a1.85,1.85,0,0,1,0-3.7h25.86a1.85,1.85,0,0,1,0,3.7Zm-51.71,0H529.93a1.85,1.85,0,1,1,0-3.7h25.85a1.85,1.85,0,0,1,0,3.7Zm-51.71,0H478.22a1.85,1.85,0,1,1,0-3.7h25.85a1.85,1.85,0,1,1,0,3.7Zm-51.7,0H426.51a1.85,1.85,0,0,1,0-3.7h25.86a1.85,1.85,0,0,1,0,3.7Zm-51.71,0H374.8a1.85,1.85,0,0,1,0-3.7h25.86a1.85,1.85,0,0,1,0,3.7Zm-51.7,0H323.1a1.85,1.85,0,1,1,0-3.7H349a1.85,1.85,0,0,1,0,3.7Zm282.65-1.93h-.2a1.85,1.85,0,0,1-1.63-2l2.85-25.69a1.85,1.85,0,0,1,2-1.63,1.83,1.83,0,0,1,1.63,2L633.45,315A1.86,1.86,0,0,1,631.61,316.66ZM16.18,287.34h-.12a1.84,1.84,0,0,1-1.72-2l1.6-25.81a1.85,1.85,0,0,1,3.7.23L18,285.61A1.85,1.85,0,0,1,16.18,287.34Zm621.14-22.07-.2,0a1.85,1.85,0,0,1-1.64-2l2.86-25.69a1.85,1.85,0,0,1,3.67.41l-2.85,25.69A1.87,1.87,0,0,1,637.32,265.27ZM19.41,235.73h-.12a1.85,1.85,0,0,1-1.73-2L19.17,208a1.85,1.85,0,0,1,3.69.23L21.25,234A1.85,1.85,0,0,1,19.41,235.73ZM643,213.88l-.21,0a1.85,1.85,0,0,1-1.64-2l1.18-10.6-11.24-.6a1.85,1.85,0,1,1,.19-3.69l13.2.7a1.87,1.87,0,0,1,1.32.65,1.82,1.82,0,0,1,.42,1.4l-1.4,12.55A1.85,1.85,0,0,1,643,213.88ZM605.4,199.25h-.09l-25.82-1.38a1.84,1.84,0,0,1-1.74-1.94,1.81,1.81,0,0,1,1.94-1.74l25.81,1.37a1.83,1.83,0,0,1,1.75,1.94A1.85,1.85,0,0,1,605.4,199.25Zm-51.62-2.75h-.11l-25.8-1.38a1.85,1.85,0,0,1-1.76-1.94,1.81,1.81,0,0,1,1.94-1.74l25.82,1.37a1.85,1.85,0,0,1-.09,3.69ZM22.63,184.12h-.12a1.83,1.83,0,0,1-1.72-2L22.36,157l-2.89-3.83a1.85,1.85,0,1,1,3-2.22l3.28,4.38a1.79,1.79,0,0,1,.37,1.22L24.47,182.4A1.85,1.85,0,0,1,22.63,184.12ZM522,175a1.85,1.85,0,0,1-1.86-1.84V147.27a1.85,1.85,0,1,1,3.7,0v25.85A1.84,1.84,0,0,1,522,175ZM15.55,129.62a1.85,1.85,0,0,1-1.84-1.76L12.48,102a1.85,1.85,0,1,1,3.69-.18l1.23,25.82a1.85,1.85,0,0,1-1.76,1.93ZM522,123.26a1.85,1.85,0,0,1-1.86-1.85v-7.49l-14.85-.85a1.84,1.84,0,0,1,.21-3.68l16.6,1a1.84,1.84,0,0,1,1.74,1.84v9.23A1.85,1.85,0,0,1,522,123.26Zm-42.41-11.67h-.1l-25.81-1.48a1.84,1.84,0,1,1,.2-3.68l25.81,1.47a1.85,1.85,0,0,1-.1,3.69Zm-51.62-3h-.1L402,107.15a1.83,1.83,0,0,1-1.73-2,1.85,1.85,0,0,1,2-1.73L428,105a1.85,1.85,0,0,1-.11,3.69Zm-51.62-3h-.11l-25.81-1.48a1.85,1.85,0,0,1,.21-3.69L376.41,102a1.85,1.85,0,0,1-.1,3.69Zm-51.62-3h-.11l-25.81-1.48a1.85,1.85,0,1,1,.21-3.69L324.79,99a1.84,1.84,0,0,1-.1,3.68Zm-51.62-3H273l-1.27-.07A1.84,1.84,0,0,1,270,97.85V73.27a1.85,1.85,0,1,1,3.69,0v22.9a1.84,1.84,0,0,1-.57,3.59ZM13.09,78a1.84,1.84,0,0,1-1.84-1.76l-.57-12.15a1.82,1.82,0,0,1,1.55-1.91L25.74,60a1.85,1.85,0,1,1,.58,3.65L14.44,65.54l.5,10.5A1.84,1.84,0,0,1,13.18,78ZM255.37,63.76h-.23l-4.43-.56a1.75,1.75,0,0,1-1.25-.74,1.8,1.8,0,0,1-.33-1.42L253,40a1.85,1.85,0,0,1,3.63.68l-3.54,19.12,2.48.3a1.85,1.85,0,0,1,1.59,2.07A1.83,1.83,0,0,1,255.37,63.76ZM51.57,59.65A1.85,1.85,0,0,1,51.29,56l8.5-1.35-2.95-13a1.85,1.85,0,0,1,3.61-.81l3.37,14.88a1.86,1.86,0,0,1-.26,1.45,1.92,1.92,0,0,1-1.25.79L51.86,59.63ZM67.09,27.48a1.85,1.85,0,0,1-.29-3.67l25.53-4.08a1.84,1.84,0,0,1,.58,3.64L67.38,27.46Zm179-1-.25,0-25.61-3.52a1.85,1.85,0,1,1,.5-3.66l25.61,3.52a1.85,1.85,0,0,1-.25,3.68Zm-51.22-7h-.25L169,15.88a1.84,1.84,0,0,1,.5-3.65l25.62,3.52a1.84,1.84,0,0,1-.25,3.67Zm-76.73-.1a1.85,1.85,0,0,1-.28-3.67l25.52-4.09a1.85,1.85,0,0,1,.59,3.65l-25.53,4.08A1.53,1.53,0,0,1,118.14,19.32Z" fill="#fff"/><polygon points="238.66 113.67 254.47 308.93 35.97 314.51 48.05 108.09 238.66 113.67" fill="#76c1ff"/><polygon points="46.47 135.05 48.05 108.09 238.66 113.67 240.39 135.05 46.47 135.05" fill="#2a8ec6"/><g clip-path="url(#clip-path)"><path d="M16.42,236c11.41-9.83,26-8.18,28.66-7.82,15.62,2.08,24.21,13.11,26.07,15.64,1.67,2.28,12.08,16.41,6.51,32.56-5,14.56-19.2,19.77-22.15,20.85-12.85,4.72-32.8,4.22-44.3-10.42C-1.11,271.09,2.88,247.62,16.42,236Z" fill="#ffdc78"/><path d="M112.83,204.69a19,19,0,0,0-13,6.51c-5.74,7-6,18.8,1.3,26.06,7.53,7.48,20.33,7.34,27.36,0,5.68-5.93,6.29-15.18,2.61-22.15A19.55,19.55,0,0,0,112.83,204.69Z" fill="#ffdc78"/><path d="M64.63,157.78C55.79,160,48.86,168.41,49,177.32c.2,12.77,14.83,23.32,27.37,19.55,8.92-2.68,15.7-12.29,14.33-22.16C89,162.76,76,154.94,64.63,157.78Z" fill="#ffdc78"/><path d="M131.08,268.53c-2.85.19-12.6,1.27-19.55,9.11-10.2,11.53-9.56,32.26,2.61,44.31,10.58,10.47,29.26,13.78,41.69,3.91,10.57-8.4,12.48-23,9.13-33.88C160.38,277.21,145.47,267.55,131.08,268.53Z" fill="#ffdc78"/><path d="M181.89,209.89c-10.61,1.68-19.09,9.74-22.15,19.55A29.07,29.07,0,0,0,171.47,262c11.43,7.51,27.34,6,36.49-3.91,7.55-8.19,8.37-19.84,5.21-28.66C208.8,217.28,195.84,207.69,181.89,209.89Z" fill="#ffdc78"/><path d="M150.62,142.14c-1.39.44-10.85,3.5-15.63,13a27.57,27.57,0,0,0,41.7,33.88c1-.79,11.19-8.92,10.41-22.15-.75-12.77-11.09-19.57-13-20.85C170.55,143.73,161.41,138.83,150.62,142.14Z" fill="#ffdc78"/><path d="M248.34,139.54c-13.31-1-23.44,13.68-24.75,15.63-11.68,17.36-3.71,37.73-2.61,40.4,8.19,19.94,31.83,36.56,45.6,30,13.48-6.46,12.34-32.7,10.43-44.3C274.66,167,265.53,140.78,248.34,139.54Z" fill="#ffdc78"/><path d="M265.28,265.92c-9.14-3.93-19.93.55-26.06,5.22-12.78,9.74-19.38,31.14-7.82,45.59,10.17,12.72,29.78,14.28,40.39,6.52C288.93,310.72,283.13,273.58,265.28,265.92Z" fill="#ffdc78"/></g><path d="M155.73,94.14A151.14,151.14,0,0,1,205,153.65c-4.95-.62-9.91-1.23-14.86-1.86q-4.2,7-8.37,14a183.92,183.92,0,0,0-19.53-40.91,182.7,182.7,0,0,0-17.67-23.25Z" fill="#2a8ec6"/><path d="M141.41,94.14a181.35,181.35,0,0,0-59.13,71.41l17.85-2.23q5,8.37,10,16.74a218.87,218.87,0,0,1,44.63-77Z" fill="#2a8ec6"/><polygon points="250.22 88.56 254.47 122.97 36.89 122.97 36.89 79.27 250.22 88.56" fill="#45a4e5"/><path d="M141.71,97.13c10.68.94,56.6,3.9,79-24.88,2.85-3.66,13.72-17.61,8.91-28.58-5-11.38-23.91-13.06-34.64-11.78-19.33,2.29-31.25,16.44-36.17,22.28C145,70.64,142.34,89,141.71,97.13Zm23.53-18.52a53.36,53.36,0,0,1,7.82-12.46c3.82-4.54,11.77-14,23.37-15.69l.76-.11a36.07,36.07,0,0,1,14.58,1.24c-.66,1.74-2.18,4.72-5.7,9.22-7,9-18.72,14.7-34.94,17.11h0Q168.25,78.34,165.24,78.61Z" fill="#ffdc78"/><path d="M142.68,57.5c-2.92-5.64-10-19.28-25.22-24.67-8.46-3-24.11-5.1-30.21,3.2-5.9,8,.35,21.28,2,24.78,12.9,27.41,50.63,33.41,59.45,34.61C149.67,88.72,150.9,73.37,142.68,57.5Zm-14.3,17h0c-12.69-4.91-21.16-11.72-25.17-20.23a31.13,31.13,0,0,1-2.92-8.52,30.06,30.06,0,0,1,12,1.66l.6.23c9.09,3.51,13.8,12.62,16.06,17A44.12,44.12,0,0,1,133,76.12Q130.64,75.35,128.38,74.47Z" fill="#ffdc78"/><path d="M155.91,86.71a150.62,150.62,0,0,1,22.32,19.52,152.38,152.38,0,0,1,27,40l-14.88-1.85q-4.19,7-8.37,13.94a183.47,183.47,0,0,0-19.53-40.91,182.7,182.7,0,0,0-17.67-23.25Z" fill="#ffdc78"/><path d="M141.59,86.71a181.19,181.19,0,0,0-59.13,71.4l17.85-2.23,10,16.74a218.65,218.65,0,0,1,44.64-77Z" fill="#ffdc78"/><path d="M307.61,132.62v75.32H294.92V176.3H283.79L283.34,206l-12.7-.18,1-72.93,12.69.17L284,159.38h10.94V132.62Z" fill="#ffdc78"/><path d="M346.15,189.54H328.22l-4.06,16.65H311.29l19.32-73.39h18.76L366,205.46l-16.27.18C349.28,203.25,347.07,193.5,346.15,189.54Zm-3.5-16L338,149.45l-5.79,24.09Z" fill="#ffdc78"/><path d="M385.5,205.83l-15.81-.1.55-72.83h9a26.75,26.75,0,0,1,4-.28c6.53,0,13.8,2.11,18.85,5.89,4.5,3.39,7,7.9,7,12.69,0,5.89-2.39,19-23.27,21.06Zm.47-61.62-.1,16.64c11.87-1.47,11.87-7.26,11.87-9.65,0-1.48-1.29-2.76-2.39-3.59A21.87,21.87,0,0,0,386,144.21Z" fill="#ffdc78"/><path d="M428.54,205.83l-15.82-.1.55-72.83h9a26.85,26.85,0,0,1,4-.28c6.52,0,13.79,2.11,18.85,5.89,4.5,3.39,7,7.9,7,12.69,0,5.89-2.39,19-23.27,21.06Zm.47-61.62-.1,16.64c11.87-1.47,11.87-7.26,11.87-9.65,0-1.48-1.29-2.76-2.39-3.59A21.87,21.87,0,0,0,429,144.21Z" fill="#ffdc78"/><path d="M482,164.53l1,41.39-12.78.27-1-42L453.92,137.5l11.13-6.36L476.46,151,494,128.94l10,8Z" fill="#ffdc78"/><path d="M280.13,233.15,279.86,223a22.87,22.87,0,0,1,2.67-.1c13.33-.45,33.4-1.1,34.41,16.2a16.74,16.74,0,0,1-4.05,12.42c-.64.64-1.29,1.28-2,1.93a20.88,20.88,0,0,1,3.69,2.85c4.78,4.6,7.08,10.86,6.8,18.68-.18,6.07-2.39,11-6.62,14.72-6,5.06-14.63,6.25-22.08,6.25a89.48,89.48,0,0,1-12-.91l-.83-.19Zm31.11,41.5c.08-4.78-1.11-8.37-3.78-10.94-3.22-3.13-8-4.15-11.68-4.43l-.1,26.41c4.69-.27,9.48-1.19,12.43-3.77C310.13,280.26,311.14,277.87,311.24,274.65ZM296,233.15l-.1,15.37c5.62-.82,8.2-2.48,9.39-3.77a6.33,6.33,0,0,0,1.48-5.06C306.54,235.55,303,233.7,296,233.15Z" fill="#ffdc78"/><path d="M339.76,296H326.05V222.76h13.71Z" fill="#ffdc78"/><path d="M345.28,295.91l.55-73.24,9,.09a33.21,33.21,0,0,1,22.92,5.61c4.59,3.4,7.08,7.91,7.08,12.79,0,5.24-1.93,16.1-16.93,20l19,32-9.76,5.71-15.73-26.5L361.2,296ZM371,237.58a20.73,20.73,0,0,0-9.39-3.51l-.09,16.84c11.87-1.46,11.87-7.36,11.87-9.75C373.43,239.69,372.15,238.4,371,237.58Z" fill="#ffdc78"/><path d="M428.45,237.94H415.94v58.15H402V237.94H388.71V222.49h39.74Z" fill="#ffdc78"/><path d="M469.12,222.49v75.35h-12.7V266.19H445.29l-.46,29.72-12.69-.19,1-73,12.71.18-.38,26.32h10.95V222.49Z" fill="#ffdc78"/><path d="M474.65,296.09v-7.36c0-9.48.64-56.59.64-58.52l.09-6.71,6.72-.65c1.56-.09,3.13-.18,4.6-.18,8.83,0,15.73,2.58,20.7,7.54,5.8,5.89,8.55,14.72,8.37,26.87-.37,28.43-20.89,39-33.67,39Zm14.9-16.84C495,276.31,500.77,270,501,256.9c.09-7.83-1.38-13.44-4.15-16.29-1.56-1.57-3.76-2.48-6.8-2.85C489.92,248.06,489.64,267.1,489.55,279.25Z" fill="#ffdc78"/><path d="M553.41,279.43H535.46l-4.05,16.66H518.53l19.32-73.42h18.77l16.66,72.69-16.29.18C556.54,293.15,554.32,283.39,553.41,279.43Zm-3.5-16-4.69-24.1-5.8,24.1Z" fill="#ffdc78"/><path d="M603.19,254.41l1,41.4-12.8.28-1-42-15.26-26.68L586.25,221l11.41,19.87,17.57-22.07,10,8Z" fill="#ffdc78"/></g></g></svg>