<svg xmlns="http://www.w3.org/2000/svg" viewBox="0 0 784.4 324.47"><g id="Layer_2" data-name="Layer 2"><g id="Слой_1" data-name="Слой 1"><polygon points="762.46 161.43 679.02 160.37 676.96 323.22 727.45 289.98 775.97 324.48 762.46 161.43" fill="#76c1ff"/><polygon points="573.49 159.04 592.28 322.15 626.55 291.32 669.14 323.13 679.02 160.37 573.49 159.04" fill="#ff7381"/><polygon points="482.3 157.89 580.01 159.12 577.95 321.98 535.38 287.56 495.87 320.94 482.3 157.89" fill="#ffca76"/><polygon points="21.1 152.06 118.81 153.29 116.76 316.15 58.56 281.54 0.81 314.68 21.1 152.06" fill="#ff7381"/><polygon points="118.81 153.29 124.56 316.24 160.67 280.21 201.44 317.21 201.27 154.34 118.81 153.29" fill="#76c1ff"/><path d="M46.74,187.85l-.17-11.72a28.4,28.4,0,0,1,3.09-.06c15.45-.34,38.68-.79,39.59,19.24a19.34,19.34,0,0,1-4.86,14.32c-.76.74-1.51,1.47-2.37,2.21a24.74,24.74,0,0,1,4.21,3.35c5.47,5.4,8,12.67,7.61,21.72-.3,7-2.93,12.75-7.88,17-7,5.77-17,7-25.65,6.92a102.22,102.22,0,0,1-13.94-1.25l-1-.21Zm35.39,48.49c.18-5.53-1.15-9.71-4.2-12.73-3.69-3.67-9.21-4.91-13.47-5.29L64,248.9c5.44-.26,11-1.25,14.44-4.19C80.77,242.82,82,240.06,82.13,236.34ZM65.06,188.08l-.33,17.78c6.51-.87,9.51-2.75,10.92-4.22.86-.95,1.95-2.53,1.78-5.84C77.27,191,73.25,188.82,65.06,188.08Z" fill="#fff"/><path d="M173.24,255.69l-13.42-.17.91-71.68,13.41.17Z" fill="#fff"/><path d="M517.71,260.89l-.2-7.2c-.24-9.27-.83-55.38-.89-57.27l-.08-6.58,6.55-.81c1.53-.12,3.06-.25,4.5-.29,8.64-.23,15.46,2.11,20.45,6.84,5.83,5.61,8.76,14.18,8.89,26.07.39,27.83-19.42,38.72-31.93,39ZM531.85,244c5.24-3,10.74-9.38,10.59-22.18-.12-7.65-1.71-13.11-4.48-15.82a10.79,10.79,0,0,0-6.73-2.61C531.4,213.5,531.63,232.15,531.85,244Z" fill="#fff"/><path d="M636.59,244,619,243.81l-4.17,16.25-12.61-.16,19.82-71.63,18.37.23,15.4,71.36-15.94,0C639.48,257.49,637.44,247.91,636.59,244Zm-3.23-15.72-4.29-23.65-6,23.53Z" fill="#fff"/><path d="M729.81,228.52l.47,40.55-12.52.1L717.29,228,702.68,201.7l11-6.07,10.92,19.59L742,193.83l9.72,7.95Z" fill="#fff"/><polygon points="196.98 154.28 215.77 317.39 250.04 286.56 292.64 318.37 302.51 155.61 196.98 154.28" fill="#ffca76"/><path d="M231.48,258.58l-2.68-76.41,9.4-.31c7.73-1.48,17.62.41,24.15,4.84,4.95,3.34,7.75,7.94,8,13,.23,5.46-1.3,16.87-16.76,21.67L274.74,254l-9.91,6.38-17.6-26.94.86,24.58Zm24.28-62a21.67,21.67,0,0,0-9.95-3.24l.66,17.57c12.31-2.06,12-8.21,11.94-10.7C258.35,198.7,256.94,197.41,255.76,196.6Z" fill="#fff"/><polygon points="302.51 155.61 300.5 314.56 343.77 292.95 390.34 319.6 401.52 156.87 302.51 155.61" fill="#ff7381"/><path d="M367.52,206.53l-12.25-.16-.71,56.91-13.69-.17.72-56.91-13-.17.19-15.12,38.9.48Z" fill="#fff"/><polygon points="395.01 156.78 401.59 319.74 441.55 283.76 486.75 320.82 486.34 157.94 395.01 156.78" fill="#76c1ff"/><path d="M461.51,184.08l2.91,78.69-13.26.49-1.23-33-11.62.42.67,31.06-13.27.3L424,185.75l13.26-.29.64,27.49,11.43-.42-1-28Z" fill="#fff"/><path d="M779.73,166.26,4.56,156.47a4.62,4.62,0,0,1,.12-9.24L779.85,157a4.62,4.62,0,0,1-.12,9.23Z" fill="#3a3a3a"/><path d="M251.88,3.47l-1.7,134.26-22.62-.28.71-56.4-19.84-.24-1.49,52.93-22.61-.6,3.44-130,22.62.61-1.25,46.88,19.51.25.61-47.71Z" fill="#3a3a3a"/><path d="M319.28,105.82l-32-.41L279.73,135l-23-.28L292.86,4.31l33.44.42,28,129.9-29,0C324.55,130.31,320.83,112.88,319.28,105.82Zm-5.87-28.61L305.6,34.15,294.72,77Z" fill="#3a3a3a"/><path d="M389.08,135.72l-28.2-.52L363.51,5.37l16.06.2a49.29,49.29,0,0,1,7.06-.4c11.64.14,24.54,4.08,33.48,10.92,7.95,6.16,12.28,14.25,12.17,22.77-.14,10.5-4.69,33.73-41.95,37Zm2.21-109.83-.54,29.67c21.18-2.35,21.31-12.68,21.36-16.94,0-2.63-2.23-5-4.18-6.46C403.38,28.83,397.18,26.78,391.29,25.89Z" fill="#3a3a3a"/><path d="M465.8,136.69l-28.2-.52L440.23,6.34l16.06.2a49.29,49.29,0,0,1,7.06-.4c11.64.14,24.54,4.08,33.47,10.92,8,6.16,12.28,14.25,12.18,22.77-.13,10.5-4.69,33.73-41.95,37ZM468,26.86l-.53,29.67c21.18-2.36,21.31-12.68,21.36-17,0-2.62-2.23-4.95-4.18-6.44C480.1,29.8,473.9,27.75,468,26.86Z" fill="#3a3a3a"/><path d="M562,64.28l.87,73.8-22.79.2-.86-74.94L512.58,15.45l20-11.06,19.88,35.66L584.25,1.11l17.69,14.48Z" fill="#3a3a3a"/><polygon points="162.27 42.55 146.05 37.63 132.79 48.19 132.46 31.24 118.31 21.9 134.33 16.35 138.84 0 149.07 13.53 166.01 12.77 156.31 26.68 162.27 42.55" fill="#ffca76"/><polygon points="117.47 76.66 110.19 72 102.22 75.35 104.4 66.98 98.74 60.44 107.38 59.92 111.86 52.52 115.01 60.58 123.43 62.55 116.75 68.04 117.47 76.66" fill="#76c1ff"/><polygon points="78.88 68.06 67.21 63.07 56.49 69.87 57.62 57.22 47.85 49.13 60.22 46.29 64.91 34.5 71.42 45.4 84.08 46.21 75.74 55.77 78.88 68.06" fill="#ff7381"/><polygon points="83.88 106.06 77.31 101.85 70.11 104.88 72.08 97.32 66.98 91.41 74.78 90.96 78.81 84.28 81.66 91.55 89.27 93.32 83.23 98.28 83.88 106.06" fill="#ffca76"/><polygon points="34.08 129.11 24.86 118.82 11.15 120.58 18.09 108.63 12.19 96.14 25.69 99.05 35.74 89.58 37.15 103.32 49.27 109.95 36.64 115.54 34.08 129.11" fill="#76c1ff"/><polygon points="139.88 131.74 126.78 126.14 114.74 133.76 116.01 119.57 105.05 110.48 118.94 107.31 124.2 94.06 131.51 106.29 145.73 107.19 136.35 117.93 139.88 131.74" fill="#ff7381"/><polygon points="623.94 48.39 640.29 43.87 653.27 54.77 654.03 37.84 668.41 28.85 652.53 22.89 648.44 6.44 637.87 19.7 620.95 18.51 630.3 32.66 623.94 48.39" fill="#ffca76"/><polygon points="667.87 83.61 675.27 79.13 683.15 82.69 681.18 74.27 687 67.87 678.38 67.14 674.09 59.63 670.73 67.6 662.26 69.36 668.81 75.01 667.87 83.61" fill="#76c1ff"/><polygon points="706.66 75.99 718.46 71.3 729 78.36 728.19 65.69 738.16 57.84 725.87 54.7 721.48 42.79 714.69 53.52 702.01 54.01 710.12 63.78 706.66 75.99" fill="#ff7381"/><polygon points="700.7 113.85 707.38 109.81 714.5 113.02 712.72 105.42 717.97 99.64 710.19 98.98 706.32 92.2 703.29 99.4 695.64 100.99 701.55 106.09 700.7 113.85" fill="#ffca76"/><polygon points="749.91 138.16 759.38 128.1 773.04 130.21 766.4 118.09 772.62 105.75 759.05 108.32 749.24 98.59 747.48 112.29 735.2 118.62 747.69 124.52 749.91 138.16" fill="#76c1ff"/><polygon points="644.07 138.1 657.31 132.84 669.15 140.77 668.24 126.55 679.43 117.73 665.63 114.2 660.71 100.84 653.09 112.88 638.85 113.43 647.95 124.39 644.07 138.1" fill="#ff7381"/></g></g></svg>