<svg xmlns="http://www.w3.org/2000/svg" viewBox="0 0 301.2 300.94"><g id="Layer_2" data-name="Layer 2"><g id="OBJECTS"><path d="M33.72,14.39h3.93L41.75,28,45.86,14.4h3.47L53.39,28l4.14-13.57h4l-6,18.31h-3.7L47.6,19.06,43.35,32.71H39.61Z" transform="translate(0 -4.58)" fill="#444242"/><path d="M66.35,10.19a2.17,2.17,0,0,1-.65-1.6A2.19,2.19,0,0,1,66.35,7,2.21,2.21,0,0,1,68,6.34,2.31,2.31,0,0,1,69.62,7a2.18,2.18,0,0,1,.66,1.61,2.13,2.13,0,0,1-.67,1.6,2.25,2.25,0,0,1-1.66.64A2.13,2.13,0,0,1,66.35,10.19ZM66,14.43h3.93l0,18.32H66Z" transform="translate(0 -4.58)" fill="#444242"/><path d="M77.92,32.85a10.08,10.08,0,0,1-3.36-1.28V28.29A13.92,13.92,0,0,0,78,29.72a13.31,13.31,0,0,0,3.77.56,6.92,6.92,0,0,0,3-.49,1.68,1.68,0,0,0,.95-1.6,2,2,0,0,0-.43-1.36,3.82,3.82,0,0,0-1.49-.93c-.7-.28-1.75-.61-3.15-1a20.29,20.29,0,0,1-3.56-1.32,4.92,4.92,0,0,1-2-1.7,4.81,4.81,0,0,1-.67-2.67,4.48,4.48,0,0,1,2.09-4,10.17,10.17,0,0,1,5.59-1.34,18.42,18.42,0,0,1,3.58.35,9.63,9.63,0,0,1,2.83.95v3.21a10,10,0,0,0-2.72-1,14.59,14.59,0,0,0-3.3-.38,7.59,7.59,0,0,0-3.09.49,1.77,1.77,0,0,0-1.07,1.75,1.81,1.81,0,0,0,.45,1.3,3.65,3.65,0,0,0,1.47.86c.67.25,1.75.56,3.22.94a11.6,11.6,0,0,1,4.83,2.26,4.69,4.69,0,0,1,1.34,3.59,4.43,4.43,0,0,1-2,3.77A9.77,9.77,0,0,1,82,33.34,19.09,19.09,0,0,1,77.92,32.85Z" transform="translate(0 -4.58)" fill="#444242"/><path d="M93.9,4.58h3.86l0,12.4a8.73,8.73,0,0,1,7-3.08c2.45,0,4.26.65,5.46,1.95A7.39,7.39,0,0,1,112,21.09V32.8h-3.85V21.47q0-4.47-4.27-4.47a7,7,0,0,0-3.41.85,7.53,7.53,0,0,0-2.73,2.61l0,12.32H93.87Z" transform="translate(0 -4.58)" fill="#444242"/><path d="M117.44,10.26a2.15,2.15,0,0,1-.65-1.6A2.22,2.22,0,0,1,119,6.41a2.29,2.29,0,0,1,1.66.65,2.13,2.13,0,0,1,.67,1.6,2.19,2.19,0,0,1-.67,1.61,2.3,2.3,0,0,1-1.66.64A2.17,2.17,0,0,1,117.44,10.26Zm-.35,4.24H121l0,18.31h-3.93Z" transform="translate(0 -4.58)" fill="#444242"/><path d="M126.32,14.51h3.74v2.64a7.69,7.69,0,0,1,3.18-2.42,10.27,10.27,0,0,1,3.95-.78c2.45,0,4.26.65,5.46,2a7.41,7.41,0,0,1,1.78,5.23V32.85h-3.86l0-11.33q0-4.47-4.27-4.47a7,7,0,0,0-3.41.85,7.53,7.53,0,0,0-2.73,2.61l0,12.33H126.3Z" transform="translate(0 -4.58)" fill="#444242"/><path d="M155.11,41.33a11.88,11.88,0,0,1-3-.88V37.28a16,16,0,0,0,6.64,1.31q3.54,0,5.17-1.54a6.22,6.22,0,0,0,1.63-4.67v-2q-2.52,3-7.41,3a10.3,10.3,0,0,1-5-1.23,8.83,8.83,0,0,1-3.47-3.44,10,10,0,0,1-1.25-5.08,10.13,10.13,0,0,1,1.24-5.09,8.81,8.81,0,0,1,3.44-3.41A10,10,0,0,1,158.06,14a11.09,11.09,0,0,1,4.33.75,9.17,9.17,0,0,1,3.3,2.46V14.56h3.74l0,17.39q0,4.7-2.62,7.19c-1.75,1.67-4.43,2.49-8,2.49A20.79,20.79,0,0,1,155.11,41.33Zm8-12.2a6.18,6.18,0,0,0,2.46-3.35V21.66a6.43,6.43,0,0,0-2.49-3.36,7.12,7.12,0,0,0-4.14-1.23,7,7,0,0,0-3.38.81,5.89,5.89,0,0,0-2.37,2.35,7,7,0,0,0-.86,3.47,6.94,6.94,0,0,0,.85,3.49,6.06,6.06,0,0,0,2.36,2.35,6.83,6.83,0,0,0,3.38.84A7.06,7.06,0,0,0,163.1,29.13Z" transform="translate(0 -4.58)" fill="#444242"/><path d="M188.93,40V37a6.67,6.67,0,0,0,2.44.39,3.06,3.06,0,0,0,2.1-.67,5.57,5.57,0,0,0,1.37-2.15l.88-2.13-8-17.87h4l6.09,14.09,5.7-14.07h4L199.2,35a10.2,10.2,0,0,1-2.73,4.17,6.14,6.14,0,0,1-4.1,1.31A12,12,0,0,1,188.93,40Z" transform="translate(0 -4.58)" fill="#444242"/><path d="M212.62,32.34A8.5,8.5,0,0,1,209,29a9.84,9.84,0,0,1-1.31-5.17,10.05,10.05,0,0,1,1.3-5.15,8.77,8.77,0,0,1,3.67-3.41,13,13,0,0,1,10.91,0,8.81,8.81,0,0,1,3.68,3.42,9.84,9.84,0,0,1,1.31,5.15A9.87,9.87,0,0,1,227.2,29a8.68,8.68,0,0,1-3.69,3.35,12.32,12.32,0,0,1-5.46,1.16A12.13,12.13,0,0,1,212.62,32.34Zm10.17-3.7a6.66,6.66,0,0,0,1.76-4.81A6.66,6.66,0,0,0,222.8,19a7.14,7.14,0,0,0-9.46,0,6.71,6.71,0,0,0-1.76,4.89,6.68,6.68,0,0,0,1.75,4.81,7,7,0,0,0,9.46,0Z" transform="translate(0 -4.58)" fill="#444242"/><path d="M234.4,31.55a7.4,7.4,0,0,1-1.88-5.3l0-11.6h3.85l0,11.45c0,2.92,1.46,4.39,4.39,4.39a6.75,6.75,0,0,0,6-3.46l0-12.36h3.85l0,18.32H246.9V30.39a7.89,7.89,0,0,1-3.08,2.4,9.55,9.55,0,0,1-3.83.75A7.34,7.34,0,0,1,234.4,31.55Z" transform="translate(0 -4.58)" fill="#444242"/><path d="M244.2,286.3l-2.46-.69A1.93,1.93,0,0,0,240,286l-2,1.64a1.93,1.93,0,0,1-3.17-1.41l-.11-2.55a1.91,1.91,0,0,0-.9-1.56l-2.16-1.36a1.94,1.94,0,0,1,.36-3.46l2.39-.89a1.94,1.94,0,0,0,1.21-1.34l.62-2.47a1.94,1.94,0,0,1,3.4-.73l1.58,2a2,2,0,0,0,1.65.73l2.55-.17a1.93,1.93,0,0,1,1.74,3l-1.42,2.13a1.93,1.93,0,0,0-.18,1.79l.95,2.37A2,2,0,0,1,244.2,286.3Z" transform="translate(0 -4.58)" fill="none" stroke="#444242" stroke-miterlimit="10" stroke-width="1.5"/><path d="M38.39,286l2.46-.68a1.94,1.94,0,0,1,1.76.38l2,1.64a1.94,1.94,0,0,0,3.18-1.4l.11-2.55a1.91,1.91,0,0,1,.9-1.56l2.17-1.35a1.94,1.94,0,0,0-.35-3.46l-2.39-.89A2,2,0,0,1,47,274.8l-.62-2.47a1.93,1.93,0,0,0-3.39-.74l-1.59,2a2,2,0,0,1-1.65.73l-2.55-.18a1.93,1.93,0,0,0-1.74,3l1.41,2.13a2,2,0,0,1,.18,1.8l-1,2.36A1.94,1.94,0,0,0,38.39,286Z" transform="translate(0 -4.58)" fill="none" stroke="#444242" stroke-miterlimit="10" stroke-width="1.5"/><rect x="30.38" y="104.28" width="4.17" height="57.71" transform="translate(-56.02 23.91) rotate(-26.51)" fill="#fab680"/><rect x="48.96" y="98.69" width="4.17" height="57.71" transform="translate(-26.53 9.58) rotate(-12.57)" fill="#fab680"/><rect x="66.31" y="90.23" width="4.17" height="57.71" transform="translate(6.83 -8.25) rotate(3.23)" fill="#fab680"/><rect x="84.92" y="91.28" width="4.17" height="57.71" transform="translate(31.96 -22.19) rotate(14.13)" fill="#fab680"/><rect x="103.82" y="98.19" width="4.17" height="57.71" transform="translate(60.49 -36.58) rotate(23.88)" fill="#fab680"/><rect x="163.83" y="115.27" width="4.17" height="57.71" transform="translate(-42.2 68.9) rotate(-22.23)" fill="#fab680"/><rect x="178.45" y="104.28" width="4.17" height="57.71" transform="translate(-33.1 60.17) rotate(-18.66)" fill="#fab680"/><rect x="186.82" y="95.77" width="4.17" height="57.71" transform="translate(-15.13 22.13) rotate(-7.78)" fill="#fab680"/><rect x="204.18" y="92.62" width="4.17" height="57.71" transform="translate(13.48 -25.01) rotate(5.86)" fill="#fab680"/><rect x="223.3" y="91.99" width="4.17" height="57.71" transform="translate(29.36 -47.98) rotate(11.76)" fill="#fab680"/><rect x="239.26" y="92.01" width="4.17" height="57.71" transform="translate(52.81 -76.88) rotate(19.09)" fill="#fab680"/><rect x="250.79" y="101.76" width="4.17" height="57.71" transform="translate(133.37 -132.28) rotate(37.86)" fill="#fab680"/><rect x="265.28" y="116.02" width="4.17" height="57.71" transform="translate(181.13 -151.32) rotate(45.08)" fill="#fab680"/><path d="M20.07,135.14a7.16,7.16,0,0,1-6.34-3.59L.93,109c-2.13-3.75-.49-8.29,3.9-10.78a10.11,10.11,0,0,1,5-1.41,7.37,7.37,0,0,1,2.86.56,9,9,0,0,1,4.75-6.3,10.32,10.32,0,0,1,5-1.41,7.15,7.15,0,0,1,6.29,3.59L33,100.85l2.25-15.13c.61-3.81,3.93-6.69,8.47-7.37a13.5,13.5,0,0,1,1.9-.14c3.79,0,6.89,1.76,8.32,4.68l2.81,5.89.56-9.33a7.55,7.55,0,0,1,7.81-7h.52L74,73a15.49,15.49,0,0,1,10.21,4.07,13,13,0,0,1,2.94,4.41l6-.45c.54,0,1.08-.06,1.61-.06,5.1,0,9.19,1.94,11.76,5.5a10.08,10.08,0,0,1,3.58-.6,11.74,11.74,0,0,1,4.3.8,7.28,7.28,0,0,1,4.67,6.13l.21,1.86,1.32-1.09a7.25,7.25,0,0,1,4.84-1.87,7.56,7.56,0,0,1,2.9.59c4.4,1.77,8,6.57,6.1,11.24a6.38,6.38,0,0,1-1.72,2.47l-.16.14-12.2,9.22-3.36,8.34a7.29,7.29,0,0,1-7,4.48,10.35,10.35,0,0,1-3.88-.79,10.12,10.12,0,0,1-4.06-2.89,7.21,7.21,0,0,1-1.23-7.32l3.36-8.33-.14-.87a16.24,16.24,0,0,1-7.58,3l.24,3.3c.32,4.26-3.18,7.75-8.13,8.12-.29,0-.57,0-.86,0-4.57,0-8.1-2.89-8.39-6.86l-1-13.18a18.28,18.28,0,0,1-5.08.73l-.19,3.3c-.25,4-3.81,7-8.47,7a8.81,8.81,0,0,1-2,2.25,11.14,11.14,0,0,1-5.19,2.28A8.51,8.51,0,0,1,56,118a7.18,7.18,0,0,1-6.68-4.15l-.45-1-.13,0-.12,1a7.37,7.37,0,0,1-6.34,6.27,9,9,0,0,1-4.73,6.5A10.23,10.23,0,0,1,32.65,128a7.6,7.6,0,0,1-2.92-.58,7.64,7.64,0,0,1-1.09,2.93A10.16,10.16,0,0,1,25,133.76,10.23,10.23,0,0,1,20.07,135.14Z" transform="translate(0 -4.58)" fill="#eadce4"/><path d="M127.57,94.33a5.81,5.81,0,0,0-2.07-.43,5.18,5.18,0,0,0-3.43,1.37L117.62,99l-.69-5.85a5.08,5.08,0,0,0-3.3-4.39,9.4,9.4,0,0,0-3.47-.65,7,7,0,0,0-4.38,1.35c-2-4-5.8-6.24-11-6.24-.47,0-1,0-1.45,0l-7.74.58a10.89,10.89,0,0,0-2.92-5.16,13.38,13.38,0,0,0-8.8-3.45l-8.42-.51H65.1a5.37,5.37,0,0,0-5.6,4.9l-1.08,17.9-6.5-13.62c-1-2.15-3.4-3.43-6.32-3.43a10.58,10.58,0,0,0-1.58.11c-3.56.53-6.15,2.68-6.59,5.51l-3.21,21.47L26.74,94.35a4.88,4.88,0,0,0-4.37-2.46A8.1,8.1,0,0,0,18.5,93c-3.33,1.89-4.59,5.08-3.06,7.76l3.28,5.8-1.27.72-3.29-5.79A4.87,4.87,0,0,0,9.79,99a8.1,8.1,0,0,0-3.87,1.12c-3.33,1.89-4.59,5.09-3.07,7.77l12.8,22.54a4.93,4.93,0,0,0,4.43,2.46,7.87,7.87,0,0,0,3.83-1.08,8.16,8.16,0,0,0,2.85-2.65A4.94,4.94,0,0,0,27,124l-3.81-6.72,1.27-.72,3.81,6.71a4.92,4.92,0,0,0,4.43,2.47,7.89,7.89,0,0,0,3.83-1.09c2.82-1.6,4.16-4.25,3.51-6.66l.55,0a7.92,7.92,0,0,0,1.21-.09,5.15,5.15,0,0,0,4.7-4.37l.32-2.72,3.48-.52,1.12,2.55A4.93,4.93,0,0,0,56,115.76a8.09,8.09,0,0,0,1.08-.08,9,9,0,0,0,4.14-1.82A6.27,6.27,0,0,0,63.34,111c.28,0,.54.07.78.08l.53,0c3.52,0,6.1-2,6.27-4.9l.33-5.47.71,0c.41,0,.81,0,1.2,0a14.13,14.13,0,0,0,7.23-1.76l1.21,16.27c.21,2.82,2.75,4.8,6.19,4.81l.68,0c3.76-.28,6.32-2.7,6.09-5.75l-.4-5.46.71,0a14.08,14.08,0,0,0,9-3.61,11,11,0,0,0,1.69-2.16l1,6L103,118a4.92,4.92,0,0,0,.88,5.08,8,8,0,0,0,3.18,2.25,8.24,8.24,0,0,0,3.06.62,5,5,0,0,0,4.94-3.09L118.6,114l12.62-9.54.1-.08a4.19,4.19,0,0,0,1.13-1.64C133.89,99.1,130.55,95.53,127.57,94.33Zm-54.5-6.22,0,.45a2.77,2.77,0,0,1-.12.73h-.13l-.85,0,.12-2,.71,0,.27,0A3.43,3.43,0,0,1,73.07,88.11Zm21.21,9.22-.27,0-.71.06-.14-2,.71,0h.27a3.1,3.1,0,0,1,.13.73l0,.45A3,3,0,0,1,94.28,97.33Z" transform="translate(0 -4.58)" fill="#f7f6f2"/><path d="M271.37,150.41a9.65,9.65,0,0,1-6-2.32,10.08,10.08,0,0,1-3-4,7.2,7.2,0,0,1,1-7.35l1.53-1.85a10.87,10.87,0,0,1-3.75-1.55A7.35,7.35,0,0,1,257.9,125l.35-1.06-.11-.08-.79.7a7,7,0,0,1-4.62,1.73,8.07,8.07,0,0,1-4.48-1.43,11.21,11.21,0,0,1-3.74-4.25,8.8,8.8,0,0,1-.82-2.46l-3.52-.89a9.56,9.56,0,0,1-6,1.91,9,9,0,0,1-7.23-3.21,9,9,0,0,1-7.24,3.19c-4,0-7.24-2.12-8.32-5.19a9.74,9.74,0,0,1-3.61.64c-.34,0-.68,0-1,0a10.52,10.52,0,0,1-4.13-1.25,10.26,10.26,0,0,1-8.1,5h-.38a7.63,7.63,0,0,1-6.16-3,7.73,7.73,0,0,1-2.16,1.93,10,10,0,0,1-4.16,1.34,9.33,9.33,0,0,1-5.52,4.37,10.57,10.57,0,0,1-3.25.53c-.87,4-3.72,7.25-8.23,9.17l-8.33,3.53a9.36,9.36,0,0,1-3.66.77,7.32,7.32,0,0,1-6.9-4.39l-10.12-23.86a7.15,7.15,0,0,1,.79-7,9.24,9.24,0,0,1,3.94-3.13l7.69-3.26a16.54,16.54,0,0,1,6.47-1.43,11.78,11.78,0,0,1,3.23.44l-.15-.49a7.11,7.11,0,0,1,1.83-7.28A10.33,10.33,0,0,1,163.67,84a11.14,11.14,0,0,1,3.36-.55,8,8,0,0,1,3.91,1,7.38,7.38,0,0,1,1.84-4.15,7.47,7.47,0,0,1,5.29-2.48l8.43-.37c.4,0,.79,0,1.18,0a18.47,18.47,0,0,1,6.33,1A7.5,7.5,0,0,1,201.1,73l.65,0,17.53,1.61a7.16,7.16,0,0,1,5.89,4.21,7.66,7.66,0,0,1,.44,1.19,7.19,7.19,0,0,1,1.4,1.35,9,9,0,0,1,7.24-3.11,10,10,0,0,1,4.89,1.18,7.82,7.82,0,0,1,6.19-2.79,9.61,9.61,0,0,1,2.36.3l7,1.78c8.26,2.1,12.61,7.93,11.87,15.56a8,8,0,0,1,4.74-1.49,11.33,11.33,0,0,1,6.07,2c3.89,2.57,5.64,6.48,4.57,10.21l-1.3,4.44a11.85,11.85,0,0,1,4.93,2.34,7.28,7.28,0,0,1,2.6,7.26l-.35,1.84,1.58-.64a7.84,7.84,0,0,1,3.08-.66,7.26,7.26,0,0,1,4.69,1.76c3.66,3,5.63,8.68,2.43,12.56a6.33,6.33,0,0,1-2.36,1.83l-.2.09-14.42,5.12-5.72,6.94A7,7,0,0,1,271.37,150.41Z" transform="translate(0 -4.58)" fill="#eadce4"/><path d="M295.76,123a5.13,5.13,0,0,0-3.29-1.25,5.65,5.65,0,0,0-2.24.49l-5.36,2.18,1.11-5.79a5.11,5.11,0,0,0-1.83-5.19,9.38,9.38,0,0,0-5.59-2.06,6,6,0,0,0-.85.08l2.1-7.12c.79-2.76-.62-5.73-3.67-7.75A9.07,9.07,0,0,0,271.29,95a5.84,5.84,0,0,0-3.74,1.29L263,100.06l.85-3.35c2-7.85-1.64-13.77-9.74-15.83l-7-1.78a7.17,7.17,0,0,0-1.82-.24,5.31,5.31,0,0,0-5.38,3.81l-.07.3a6.68,6.68,0,0,0-5.62-2.5c-3.83,0-6.5,2.15-6.51,5.23v6.66h-1.46V85.7a4.84,4.84,0,0,0-2.63-4.31,6.17,6.17,0,0,0-.49-1.63,5,5,0,0,0-4.08-2.94l-17.53-1.61-.46,0c-2.82,0-5,2.32-5.32,5.65a8.05,8.05,0,0,0,0,1,14.35,14.35,0,0,0-8.08-2.16l-1.09,0-8.42.36a5.22,5.22,0,0,0-5,5.46l.33,7.73-1.31-4.1A5.11,5.11,0,0,0,167,85.7a8.91,8.91,0,0,0-2.68.45,8.09,8.09,0,0,0-3.29,1.92,5,5,0,0,0-1.3,5.05l2.05,6.39a9.12,9.12,0,0,0-7.24-3.45A14.47,14.47,0,0,0,149,97.32l-7.69,3.26a7.06,7.06,0,0,0-3,2.35,5,5,0,0,0-.56,4.89l10.12,23.86a5.12,5.12,0,0,0,4.86,3,7.17,7.17,0,0,0,2.79-.59l8.33-3.53c4.62-2,7.08-5.38,7.17-9.63a6.75,6.75,0,0,0,1.9.29,8.83,8.83,0,0,0,2.6-.42,6.62,6.62,0,0,0,4.68-4.46c.13,0,.25,0,.39,0h.4a7.93,7.93,0,0,0,3.74-1.06,4.93,4.93,0,0,0,2.53-4.5l-.06-1.33,2.18,3.81a5.44,5.44,0,0,0,4.82,2.74h.28c3.38-.15,7.18-3.21,7-6.93,0,0,0-.09,0-.13a5.31,5.31,0,0,0,1.84,2.06A8,8,0,0,0,207,112.3a7.32,7.32,0,0,0,.81,0,6.15,6.15,0,0,0,5.44-2.62v1.88c0,3.06,2.73,5.28,6.5,5.29s6.5-2.21,6.5-5.27V103.9h1.47v7.72c0,3.06,2.72,5.28,6.49,5.29a6.92,6.92,0,0,0,5.34-2.15l5.6,1.42.65.15a6.25,6.25,0,0,0,.7,3.24,8.91,8.91,0,0,0,3,3.39,5.85,5.85,0,0,0,3.25,1.07,4.77,4.77,0,0,0,3.16-1.19l2.05-1.81,2.94,1.94-.87,2.64a5.13,5.13,0,0,0,2.42,5.9,9,9,0,0,0,4.74,1.43,6.17,6.17,0,0,0,2.8-.63l-4.83,5.86a4.93,4.93,0,0,0-.68,5.12,8,8,0,0,0,2.34,3.09,7.5,7.5,0,0,0,4.58,1.82,4.81,4.81,0,0,0,3.8-1.76l6.11-7.42,14.92-5.29.12,0a4,4,0,0,0,1.55-1.22C300.35,129.48,298.23,125.06,295.76,123Zm-138.7-2.79-.59-1.39.62-.26c0,.1.12.23.18.38l.26.61a2.79,2.79,0,0,1,.14.4Zm7.56-12,.17.51-.19-.1C164.62,108.55,164.61,108.41,164.62,108.27Zm22.86-15.5-.32,0-.71,0,0-.94.71,0h.32a3.58,3.58,0,0,1,.05.45C187.49,92.51,187.49,92.66,187.48,92.77ZM201,106.45a5.34,5.34,0,0,0,0,.8,4.29,4.29,0,0,0-.28-.51l-3.67-6c2.37-2.27,3.58-5.6,3.41-9.59a15,15,0,0,0-.62-3.75,5.13,5.13,0,0,0,.59.12l2.29.21Zm49.84-13.84.29.08a1.37,1.37,0,0,1,.26.08,2.7,2.7,0,0,1-.11.73l-2.6,10.23a2.34,2.34,0,0,1-.26.69,1.14,1.14,0,0,1-.26,0l-.29-.07Z" transform="translate(0 -4.58)" fill="#f7f6f2"/><path d="M25.67,112.07l-7,4,5.45,9.61c.64,1.13-.42,2.48-1.8,3.27s-3.08,1-3.73-.13L5.74,106.28c-.66-1.17.44-2.45,1.82-3.24s3.05-1.07,3.71.1l4.93,8.68,7.05-4-4.93-8.69c-.66-1.17.44-2.45,1.82-3.23s3.05-1.07,3.71.09l12.8,22.54c.64,1.14-.42,2.49-1.8,3.27s-3.08,1-3.73-.13Z" transform="translate(0 -4.58)" fill="#c3c3ff"/><path d="M36.86,112.7a2.42,2.42,0,0,1,0-.46l3.84-25.7c.24-1.48,1.95-2.43,3.8-2.71s3.77.14,4.43,1.48l11.19,23.47a1.85,1.85,0,0,1,.15.43c.22,1.49-1.91,2.92-3.65,3.18-1,.15-1.86,0-2.23-.86l-2.12-4.84L43.78,108l-.62,5.24c-.12.88-.88,1.33-1.89,1.48C39.54,114.93,37.08,114.19,36.86,112.7Zm13.37-10.65L45.68,91.69l-1.33,11.24Z" transform="translate(0 -4.58)" fill="#a0a0de"/><path d="M62.81,79.78A2.13,2.13,0,0,1,65.29,78l8.42.51c5.37.32,9.45,3.09,9,9.93v.2c-.41,6.83-5,9.17-10.58,8.84l-4-.24L67.61,106c-.08,1.3-1.71,1.86-3.29,1.76s-3.14-.84-3.06-2.14Zm6.13,4-.51,8.58,4,.25c2.28.13,3.74-1.09,3.91-3.85l0-.45c.16-2.77-1.14-4.15-3.42-4.29Z" transform="translate(0 -4.58)" fill="#cef287"/><path d="M83,89.25c-.08-1,.79-2,2.22-2.08l8.41-.63c5.36-.39,9.78,1.81,10.28,8.64l0,.2c.51,6.83-3.69,9.76-9.3,10.17l-4,.3.65,8.78c.1,1.3-1.44,2.07-3,2.19s-3.21-.42-3.31-1.72ZM89.6,92.4l.64,8.58,4-.3c2.27-.17,3.56-1.58,3.35-4.34l0-.45c-.2-2.76-1.68-4-4-3.79Z" transform="translate(0 -4.58)" fill="#ff7d9e"/><path d="M109.85,109.76a1.07,1.07,0,0,0,.06-.59l-2.6-16.12a1.16,1.16,0,0,1,.09-.45c.57-1.4,3.36-1.46,5-.8a1.81,1.81,0,0,1,1.26,1.78L115,105.42l9.17-7.59a1.79,1.79,0,0,1,2.14-.41c1.63.65,3.6,2.63,3,4a1,1,0,0,1-.25.38l-13,9.83a1.08,1.08,0,0,0-.36.47l-3.82,9.49c-.49,1.21-2.21,1.22-3.68.63s-2.71-1.8-2.22-3Z" transform="translate(0 -4.58)" fill="#6edbdb"/><path d="M140.78,106.53c-.51-1.2.51-2.35,1.79-2.89l7.69-3.26c3.75-1.59,8.08-1.83,10.34,3.5,1.28,3,.93,5.53-.7,7.24,2.66-.11,4.82.61,6.41,4.37l.34.78c2.51,5.93.12,9.47-4.12,11.27l-8.33,3.53c-1.58.67-2.9.25-3.3-.68Zm9.43,6,3.94-1.67c1.42-.61,1.58-2.22,1-3.5s-1.83-2.32-3.25-1.72L148,107.36ZM159.05,123c1.88-.79,2.56-2.32,1.54-4.72l-.26-.6c-1.08-2.55-2.59-3-4.46-2.18l-3.75,1.59,3.18,7.5Z" transform="translate(0 -4.58)" fill="#facc6f"/><path d="M162.92,92.1c-.41-1.28.93-2.3,2.44-2.79s3.2-.43,3.61.85l7.93,24.68c.4,1.24-.91,2.34-2.43,2.83s-3.22.35-3.62-.89Z" transform="translate(0 -4.58)" fill="#f7a670"/><path d="M176.44,85.37a1.89,1.89,0,0,1,1.87-2l8.43-.36c5.58-.25,10.1,1.64,10.39,8.27.2,4.56-1.77,7.26-4.57,8.48l5.36,8.78a1.38,1.38,0,0,1,.23.73c.07,1.59-2,3.39-3.84,3.47a2.18,2.18,0,0,1-2.09-1.09l-6.05-10.59-2.68.12.42,9.81c.06,1.3-1.5,2-3.09,2.09s-3.2-.52-3.26-1.82ZM183,88.72l.32,7.57,4-.18c2.27-.09,3.62-1.09,3.49-3.94s-1.54-3.73-3.82-3.63Z" transform="translate(0 -4.58)" fill="#ff7d9e"/><path d="M218.78,80.13c1.34.12,1.77,1.64,1.65,3-.14,1.54-1,2.81-2.17,2.7l-5.6-.51-2,22c-.12,1.3-1.76,1.81-3.34,1.66s-3.11-.94-3-2.24l2-22-5.6-.52c-1.22-.11-1.79-1.51-1.65-3,.13-1.34.83-2.75,2.17-2.63Z" transform="translate(0 -4.58)" fill="#c3c3ff"/><path d="M231,100.58h-8.11v11c0,1.31-1.59,2-3.18,2s-3.18-.66-3.18-2l0-25.92c0-1.35,1.59-1.92,3.18-1.91s3.18.57,3.17,1.92v10h8.11v-10c0-1.35,1.6-1.92,3.18-1.91s3.18.57,3.18,1.91l0,25.92c0,1.31-1.6,2-3.18,2s-3.18-.65-3.18-2Z" transform="translate(0 -4.58)" fill="#cef287"/><path d="M253.31,84.1c5.45,1.38,9.07,5,7.34,11.79l-2.6,10.23c-1.73,6.79-6.64,8.23-12.09,6.84l-7-1.78c-1.62-.41-2.46-1.55-2.21-2.54l6.4-25.15c.25-1,1.54-1.59,3.16-1.17Zm-4.88,4.47-4.61,18.13,3.51.89c2.21.57,3.88-.36,4.56-3l2.6-10.23c.69-2.69-.33-4.29-2.55-4.85Z" transform="translate(0 -4.58)" fill="#6edbdb"/><path d="M249.34,115.77a1.94,1.94,0,0,1,.32-.33l20-16.57c1.16-1,3.08-.52,4.64.52s2.71,2.62,2.3,4l-7.33,24.95a1.65,1.65,0,0,1-.18.42c-.83,1.26-3.37.9-4.83-.07-.85-.56-1.36-1.28-1.09-2.13l1.65-5-7.18-4.74-4,3.49a1.89,1.89,0,0,1-2.38-.16C249.84,119.22,248.51,117,249.34,115.77Zm17.06,1L269.93,106l-8.5,7.48Z" transform="translate(0 -4.58)" fill="#62c7f0"/><path d="M274.21,132.39a1.08,1.08,0,0,0,.24-.54l2.37-16.16a1,1,0,0,1,.22-.39c1-1.17,3.64-.38,5,.73a1.84,1.84,0,0,1,.66,2.08l-2.25,11.71,11-4.48a1.78,1.78,0,0,1,2.16.25c1.36,1.11,2.64,3.6,1.68,4.76a1,1,0,0,1-.35.29l-15.36,5.46a1,1,0,0,0-.49.33l-6.5,7.9c-.83,1-2.48.5-3.7-.51s-2-2.53-1.21-3.53Z" transform="translate(0 -4.58)" fill="#ff7d9e"/><path d="M141,184a21.41,21.41,0,0,1,20.18,14.39,21.42,21.42,0,1,0-40.4,0A21.42,21.42,0,0,1,141,184Z" transform="translate(0 -4.58)" fill="#ff7d9e"/><path d="M140.4,184.05a49.33,49.33,0,0,0-2.45-13.9,21.33,21.33,0,0,0-17.2,28.21A21.39,21.39,0,0,1,140.4,184.05Z" transform="translate(0 -4.58)" fill="#e852a6"/><path d="M158.1,211.8a49,49,0,0,0,67.47,15.83c23-14.26,42.92-52.42,28.66-75.42s-57.3-22.14-80.3-7.88A49,49,0,0,0,158.1,211.8Z" transform="translate(0 -4.58)" fill="#ff8db0"/><path d="M254.23,152.21a33.5,33.5,0,0,0-12.95-11.76,30.68,30.68,0,0,1,6.13,7.11c14.27,23-5.65,61.16-28.65,75.42a49,49,0,0,1-49.93,1,49,49,0,0,0,56.74,3.63C248.58,213.37,268.49,175.21,254.23,152.21Z" transform="translate(0 -4.58)" fill="#ff7d9e"/><path d="M123.76,211.76a49,49,0,0,1-67.51,15.65c-23-14.32-42.77-52.54-28.45-75.5s57.35-22,80.31-7.66A49,49,0,0,1,123.76,211.76Z" transform="translate(0 -4.58)" fill="#ff8db0"/><path d="M115.13,149.56a49,49,0,0,1-64,72.39,60.74,60.74,0,0,1-9.73-7.66,66.64,66.64,0,0,0,14.89,13.12,49,49,0,0,0,58.88-77.85Z" transform="translate(0 -4.58)" fill="#ff7d9e"/><circle cx="81.48" cy="180.94" r="39.88" fill="#ffb6cc"/><circle cx="200.45" cy="181.1" r="39.88" fill="#ffb6cc"/><circle cx="81.48" cy="180.94" r="36.84" fill="#6edbdb"/><circle cx="200.45" cy="181.1" r="36.84" fill="#6edbdb"/><path d="M97.52,152.36,48.27,201.48A36.92,36.92,0,0,0,69.64,220.4l46.75-46.63A36.94,36.94,0,0,0,97.52,152.36Z" transform="translate(0 -4.58)" fill="#78edea"/><path d="M237.29,185.73a36.69,36.69,0,0,0-10.13-25.4l-52.13,52a36.69,36.69,0,0,0,25.38,10.19,39,39,0,0,0,5.1-.35l31.41-31.34A35.81,35.81,0,0,0,237.29,185.73Z" transform="translate(0 -4.58)" fill="#78edea"/><path d="M171.11,208l51.68-51.55a36.6,36.6,0,0,0-7.65-4.5l-48.51,48.38A37.11,37.11,0,0,0,171.11,208Z" transform="translate(0 -4.58)" fill="#78edea"/><path d="M46,187.32a36.82,36.82,0,0,1,65.68-22.84,36.83,36.83,0,1,0-59.07,43.94A36.68,36.68,0,0,1,46,187.32Z" transform="translate(0 -4.58)" fill="#62c7f0"/><path d="M165,187.48a36.83,36.83,0,0,1,65.69-22.84,36.83,36.83,0,1,0-59.07,43.94A36.66,36.66,0,0,1,165,187.48Z" transform="translate(0 -4.58)" fill="#62c7f0"/><path d="M100.94,242.94a9.56,9.56,0,0,1-3.76-3.73,12.09,12.09,0,0,1,0-11.14,9.65,9.65,0,0,1,3.77-3.78,10.83,10.83,0,0,1,5.41-1.35c3.62,0,6.37,1.11,8.23,3.31l0-13.5h4.22l0,30.9h-4.09v-2.92a10.82,10.82,0,0,1-3.66,2.69,11.9,11.9,0,0,1-4.71.85A11.06,11.06,0,0,1,100.94,242.94Zm10.92-3.38a7.23,7.23,0,0,0,2.74-3.65v-4.52a6.83,6.83,0,0,0-2.7-3.68,7.79,7.79,0,0,0-4.57-1.38,7.38,7.38,0,0,0-3.7.91,6.67,6.67,0,0,0-2.6,2.59,8.21,8.21,0,0,0,0,7.61,6.53,6.53,0,0,0,2.59,2.57,8.13,8.13,0,0,0,8.24-.45Z" transform="translate(0 -4.58)" fill="#444242"/><path d="M126.57,241.51a9.93,9.93,0,0,1-3.15-7.85,10.7,10.7,0,0,1,2.84-7.81q2.82-2.88,8-2.87a12.18,12.18,0,0,1,5.89,1.32,8.77,8.77,0,0,1,3.65,3.64,11.13,11.13,0,0,1,1.23,5.29v2.09l-17.65,0a5.2,5.2,0,0,0,2.4,4.25,11,11,0,0,0,6,1.4,20.69,20.69,0,0,0,3.89-.35,18.52,18.52,0,0,0,3.47-.93v3.38a16.44,16.44,0,0,1-3.53.9,27.87,27.87,0,0,1-4.33.35C131.58,244.29,128.67,243.36,126.57,241.51Zm14.54-9.16a5.76,5.76,0,0,0-1.86-4.41,7.38,7.38,0,0,0-5-1.58,7,7,0,0,0-4.94,1.63,5.91,5.91,0,0,0-1.84,4.34Z" transform="translate(0 -4.58)" fill="#444242"/><path d="M151,242.46a6.23,6.23,0,0,1-2.18-5,6.46,6.46,0,0,1,2.11-5.16,8.9,8.9,0,0,1,6-1.81,13.72,13.72,0,0,1,7,1.68v-1a4.26,4.26,0,0,0-1.44-3.53,7.28,7.28,0,0,0-4.53-1.16,18.34,18.34,0,0,0-3.58.35,14.56,14.56,0,0,0-3.11,1v-3.43a13.54,13.54,0,0,1,3.26-.93,22,22,0,0,1,3.89-.35c3.32,0,5.78.74,7.38,2.2a7.82,7.82,0,0,1,2.39,6.09v12.41h-4v-2.26a8.38,8.38,0,0,1-3.08,2.15,11.33,11.33,0,0,1-4.33.73A8.79,8.79,0,0,1,151,242.46Zm10.52-2.14a5.41,5.41,0,0,0,2.43-2.21v-2.72a10.93,10.93,0,0,0-6.06-1.76,5.75,5.75,0,0,0-3.61.93,3.41,3.41,0,0,0-1.2,2.86c0,2.46,1.6,3.68,4.8,3.69A8.2,8.2,0,0,0,161.54,240.32Z" transform="translate(0 -4.58)" fill="#444242"/><path d="M173.48,223.65h4.1v3.59a7.42,7.42,0,0,1,3.54-2.71,14.78,14.78,0,0,1,5.29-.87V227a13.43,13.43,0,0,0-5.52,1,5.91,5.91,0,0,0-3.18,3.3l0,12.42h-4.22Z" transform="translate(0 -4.58)" fill="#444242"/><path d="M68.63,255q10.31.36,12,.93a14.9,14.9,0,0,1,2-.18,36.6,36.6,0,0,1,6.58.93v1.05q0,4.37-1.35,6a3.7,3.7,0,0,1-1.23,1.33l-.6-.14-.6.28a.24.24,0,0,0-.28-.28c-1.31,0-3-.05-5.1-.15l-.29.14a1.31,1.31,0,0,0-.59-.14c-.52,0-1.52.05-3,.14l-.59-.14a1.84,1.84,0,0,1-.78.14H74.6l-.32-.15q-.28,2-.75,7.47l.14,1.37c-.1,3.43-.19,5.42-.29,6a1.16,1.16,0,0,1,.14.6.13.13,0,0,0-.14.14c2.42.22,4.26.32,5.53.33l.32.14a1.1,1.1,0,0,1,.59-.14v.14a.13.13,0,0,0,.15-.14l.73.14a17.18,17.18,0,0,1,2.43-.28h2.54c.73,0,1.12.15,1.19.43v2.11l.14.88c0,.12,0,.18-.14.18l.14.74v.88q-.39.42-2.54,3.9a2.13,2.13,0,0,0-.92.14l-5.24-.29c-.94.09-2.23.14-3.87.14H72.91l-.14,1.52v1.79l.14.88c0,.12,0,.18-.14.18l.14.74a42,42,0,0,0-.47,5.1q0,1.62-3,5.21H69q-1.65,0-6,.31c-.49-.52-.74-1.82-.73-3.91h.14a.13.13,0,0,0-.14-.14Q64.1,275.89,65,265.36c.12,0,.22-.4.29-1.2l-.14-.31a28.29,28.29,0,0,0,.6-4.51l-.14-.28C66.74,256.9,67.74,255.56,68.63,255Zm-5,46.42V304a22.52,22.52,0,0,0,2.57-3.16l-.17-.74a6.71,6.71,0,0,0,.18-1.52Zm.18-3.73v1.2l-.17.73h.17a10,10,0,0,0,2.22-2.4v-1.93A11.76,11.76,0,0,0,63.78,297.71Zm0-5.7c2.19-2.07,3.28-4,3.28-5.84a4.93,4.93,0,0,1,.15-1.2q-3,2.85-3,4Zm.14,1.37v2.22c1.69-1.36,2.54-2.45,2.54-3.27a21.56,21.56,0,0,1,.32-2.57A31.26,31.26,0,0,0,63.93,293.38ZM66.45,302l-2.08,2.25h.29l1-.28c1.81.1,3,.15,3.59.15a4.28,4.28,0,0,0,.92-1.8H70a1.31,1.31,0,0,0-.59.14Zm-2-15.1c2-2.39,3-3.85,3-4.36a11.2,11.2,0,0,0,.14-1.94V280c-1.9,2-2.86,3.17-2.86,3.45S64.59,284.9,64.4,286.94Zm.43-5.56c1.81-1.62,2.71-2.57,2.71-2.85a17.35,17.35,0,0,0-.14-1.94,5,5,0,0,0,.15-1c-1.7,2-2.54,3.21-2.54,3.73A16,16,0,0,0,64.83,281.38Zm.32-7.5c.1,1,.14,1.76.14,2.25v.74a15.68,15.68,0,0,0,2.26-2.81v-.32c0-.51,0-1.36.14-2.53C66.23,273,65.39,273.88,65.15,273.88Zm.15-1.48c1.69-1.5,2.53-2.75,2.54-3.76q.16-1.87.18-2.25l-.18-.29a.91.91,0,0,0,.18-.45A9.07,9.07,0,0,0,65.3,272.4Zm.6-6v.18H66c1.41-1.78,2.12-2.88,2.12-3.31v-2.71A8.11,8.11,0,0,0,65.9,266.38Zm1.95-9.11a5.3,5.3,0,0,0-1.34,2.67v.18l.14,1h.18a6.91,6.91,0,0,0,1.48-2.39l-.14-1.48Zm2-.74a7.27,7.27,0,0,0,.28,2.22l-.14.77Q69.17,276,68.74,276v.28l.14.91a1.27,1.27,0,0,0-.14.6c0,.31.05.46.14.46l-.14,1.48v.77c0,1.62-.11,3.62-.33,6l.32.59a1.73,1.73,0,0,0-.32.88c0,.22.06.32.17.32l-.17.88q0,1.54-1,11.55l3.59.14v-.14c.19-2.25.29-3.45.29-3.59-.19,0-.28-.11-.28-.32.09-1.24.14-2,.14-2.21a1.69,1.69,0,0,0-.14-.78,11.61,11.61,0,0,0,.14-1.65v-2.22l.46-2.11-.14-.28a5.21,5.21,0,0,1,.74-2.85c1,.16,3.4.31,7.32.43l2.25-.28a1.86,1.86,0,0,0,.92.28h2.67V282h-.14a22.05,22.05,0,0,0-4.33.45,8.68,8.68,0,0,0-1.38-.14h-1c-.11,0-.17-.06-.17-.18a1,1,0,0,1-.42.18q-.81,0-5.85-.18a2.14,2.14,0,0,1-.45-1.2q.45-1.49.75-11.23a1.39,1.39,0,0,1,.14-.6.12.12,0,0,0-.14-.14l.14-1.79v-.92a1.09,1.09,0,0,1,.17-.6,1,1,0,0,1-.17-.6l.32-.45v-3.28c.16-.91.36-1.37.6-1.37a6.44,6.44,0,0,1,1.34.18c.11,0,.17-.06.17-.18a6.22,6.22,0,0,1,2.08.32l.74-.14h2.11a1.21,1.21,0,0,1,.6.15l.28-.14,2.71.42c1.5-.09,2.75-.13,3.73-.13v-1.8l.17-1.05a1.26,1.26,0,0,0-.45-.15,20.78,20.78,0,0,0-2.4.14,14.29,14.29,0,0,0-1.94-.14l-.77.14a41.59,41.59,0,0,0-6-.75l-.28.14c-2.77-.28-4.47-.43-5.11-.43Zm3.24,30a17.89,17.89,0,0,1-.15,1.94h.14a10.52,10.52,0,0,0,1.38-1.65v-.15H73.37Zm2.43.29c0,.21-.42.76-1.24,1.65v.14H75c.93,0,1.69-.59,2.25-1.79Zm-1-24.72v1.34h.14c.12,0,.47-.54,1.06-1.62h-.91C74.56,261.81,74.46,261.9,74.46,262.06Zm1.48,1.52h1.65c.8-.91,1.2-1.51,1.2-1.79H77.31C76.4,262.61,75.94,263.2,75.94,263.58Zm1.16,24.85c1.11,0,1.66.05,1.66.15l.31-.14.74.14,1.34-1.8H78.48A11.24,11.24,0,0,0,77.1,288.43Zm1.55-25v.17H80.3a1.86,1.86,0,0,0,.89-1.52,1.27,1.27,0,0,0-.6-.14h-.74C79.73,261.93,79.33,262.42,78.65,263.41Zm2,25.35h1.83l1.48-.18c0,.12,0,.18.14.18a9.69,9.69,0,0,0,1.06-2.25h-.6l-.88.14a1.7,1.7,0,0,0-.91-.32C82.46,286.33,81.75,287.14,80.69,288.76Zm.81-25.17h2.25a5.34,5.34,0,0,1,1-1.51v-.14H82.7C82.42,262,82,262.56,81.5,263.59Zm4.19-1.51a8.36,8.36,0,0,1-1.06,1.51v.14h1.52a1.7,1.7,0,0,0,.74-1.33A2.1,2.1,0,0,1,85.69,262.08Z" transform="translate(0 -4.58)" fill="#444242"/><path d="M96.9,254.42c4.22,0,7.18.76,8.86,2.26q4.89,2.16,6.33,5.5c.66,2.26,1.08,3.38,1.27,3.39l-.15.7a23.22,23.22,0,0,1,.28,2.82v1.69q0,10-7.91,14.77v.14q2,3.81,7.45,12.4a5.18,5.18,0,0,1,.7,2c-.78,2.82-1.76,4.23-3,4.22a27,27,0,0,1-3.8.56q-2.19,0-6.47-9.44c-.11,0-.21-.28-.28-.85h-.14L99.94,296v3.52A8.22,8.22,0,0,1,97.67,305a8.69,8.69,0,0,1-2.81.42H92.75a1.08,1.08,0,0,1-.57-.15,1,1,0,0,1-.56.14h-.14q-.47-.31-.84-2.67c.09-.66.19-1,.28-1l-.14-.7v-.14a20.39,20.39,0,0,0-.14-2.82,19.08,19.08,0,0,0,.15-2.67l.14-.57-.42-.28a3.52,3.52,0,0,0,.42-1.27c-.09-1-.14-1.78-.14-2.39,0-.19,0-.28.15-.28a1,1,0,0,0-.15-.42l-.26-12.39a4.42,4.42,0,0,0,.14-1,6.43,6.43,0,0,0-.42-1.13,2.2,2.2,0,0,0,.28-1c-.37-4.58-.55-8.33-.55-11.27v-.14l.14-.84a5.5,5.5,0,0,1-.28-1.83c.51-.4,1.64-2.33,3.38-5.77l.71-.14h1.41C95.46,254.7,96,254.61,96.9,254.42Zm-4,7.32a30.93,30.93,0,0,1-2.11,3.79,23.52,23.52,0,0,1,.27,3.39h.15c0-.29.7-1.27,2.11-3-.09-.94-.14-1.64-.14-2.11v-2.11Zm-.27-4.37q-1.85,4.29-1.84,4.5v2.26H91l2.12-3.8v-3Zm-1.43,13.09.14,1v1.27l.14.7h.14a15.23,15.23,0,0,1,1.84-3.09v-2.82A18.91,18.91,0,0,0,91.24,270.46Zm.28,4.93c.09,1.74.14,3,.13,3.8a16.13,16.13,0,0,0,2.12-2.81c-.09-1.73-.14-3.19-.14-4.36v-.28C92.22,273.66,91.52,274.88,91.52,275.39Zm2.08,22.25a15.86,15.86,0,0,1-2,2.53v2.54c.07.56.21.85.42.85h.43a12,12,0,0,0,1.27-5.78v-.14Zm-2-2.82v3.95h.14a13.58,13.58,0,0,1,2.12-3.1V291A9,9,0,0,0,91.63,294.82Zm2-10.27a6.75,6.75,0,0,1-2,2.39l.14,1.69v3.52h.14A25.45,25.45,0,0,0,94,288.91c-.09-1-.13-1.71-.13-2.25v-1.83A.24.24,0,0,0,93.62,284.55Zm-2-3.24v.7a5.18,5.18,0,0,0,.14,1.27,7,7,0,0,0-.14,1.41v1c1.5-1.62,2.25-2.74,2.25-3.37v-2.68l-.14-1.41C92.36,279.66,91.65,280.7,91.65,281.31Zm2.65,21a.13.13,0,0,0-.14-.14,7.14,7.14,0,0,0-1.13,2h.14c2-.09,3.52-.14,4.51-.13l.42-2A23,23,0,0,1,94.3,302.29Zm.34-45.48c.19,1.76.28,2.93.28,3.52s-.14,1-.14,1.13a4.09,4.09,0,0,1,.13,1.12,2.35,2.35,0,0,1-.28.85,53.13,53.13,0,0,1,.56,7l-.15.84c.47,4.89.7,8.59.69,11.13v1.13a.25.25,0,0,1-.28.28l.14,1.4q0,2.4-.15,7.89c.09,3.33.13,5.73.13,7.18a1,1,0,0,0-.14.42l.28-.14h.56a.12.12,0,0,1,.14.14c1.32-.23,2-.42,2-.56.09-2.25.23-3.37.42-3.37a1.15,1.15,0,0,1-.14-.43c0-.61,0-1.41-.14-2.39a6.71,6.71,0,0,0,.15-1.13l-.14-.28a31.72,31.72,0,0,0,.56-4.5,9.6,9.6,0,0,1-.13-1.69v-.29c0-.75.19-1.12.56-1.12q.89.18,3.94,6.06a65,65,0,0,1,4.63,8.17l.56.42h3.1v-.14q-.42-1.8-6-10a38.71,38.71,0,0,1-2.25-4.79q8.32-4.24,8.33-11,0-11-3.93-13.8a9.47,9.47,0,0,0-7-3.25,15.64,15.64,0,0,0-3-.57Zm3.52,1.84a14.52,14.52,0,0,1,7.18,2.4,11,11,0,0,1,3.51,8.45q0,4.75-1.7,7a11.41,11.41,0,0,1-2.82,3.38,12.92,12.92,0,0,1-5.08,2.52H99q-.84,0-.83-12.81a91.51,91.51,0,0,1-.69-10.56Zm.56,1.69v.56c0,.52.47.84,1.41,1l.56-1.27A7.54,7.54,0,0,0,98.72,260.34Zm.28,2.39q.42,2.08,1.11,9.15a1.15,1.15,0,0,1-.14.43c.09.7.18,3.38.27,8a19.78,19.78,0,0,0,5.92-5.62q-1-7.6-2.24-7.61a22.15,22.15,0,0,0-4.08-4A1.54,1.54,0,0,0,99,262.73Zm1.23,25.21v.28c-.1,2.3-.14,3.56-.14,3.8l.42.28h.14a20,20,0,0,0,1-2A8.08,8.08,0,0,0,100.23,287.94Zm.7,5.49a8.92,8.92,0,0,1,1,2.53h.28a8.77,8.77,0,0,1,1.13-2.26v-.14a13.71,13.71,0,0,1-1-2.25C102.1,291.32,101.63,292,100.93,293.43Zm.75-32.39a6,6,0,0,0-.71,1.55c1.08.94,1.73,1.41,2,1.41l1.27-1.83A5.37,5.37,0,0,0,101.68,261Zm1.07,36.19a11.37,11.37,0,0,0,1,2.26H104a15.74,15.74,0,0,1,1-2.25,14.56,14.56,0,0,1-1.13-2.4A4.76,4.76,0,0,0,102.75,297.23Zm2.3-34.21a14.26,14.26,0,0,0-1.41,1.83,21.58,21.58,0,0,0,1.55,1.69,12.33,12.33,0,0,1,1.13-1.83A4.76,4.76,0,0,0,105.05,263Zm.38,35.34-1,2.4a11.42,11.42,0,0,1,1.26,2.39q.42,0,1-3.24A9.23,9.23,0,0,1,105.43,298.36Zm.46-30.83a13.6,13.6,0,0,1,.56,2h.14a13.18,13.18,0,0,0,.71-2c-.19-.85-.28-1.32-.28-1.41S106.53,266.59,105.89,267.53Zm1.65,33.65-.85,2.25h.14a1.13,1.13,0,0,1,.56-.14h3.66c.17,0,.45-.71.85-2.11Zm-.81-30.84c0,.22.09.92.28,2.12h.14a9.53,9.53,0,0,0,.29-2.26h-.14A1.1,1.1,0,0,1,106.73,270.34Z" transform="translate(0 -4.58)" fill="#444242"/><path d="M123.51,254.84a4.12,4.12,0,0,1,1.12.18,13.06,13.06,0,0,1,2.12-.17h1.48c1.05.21,1.64.32,1.76.32l.8-.14a2.92,2.92,0,0,1,.5,1.93v2.61q-1.59,3.69-1.8,3.69a4.46,4.46,0,0,1-1.94.67v.18q0,.94.18,3.87c-.12,1.57-.18,2.44-.18,2.6l.17,1.62a1.52,1.52,0,0,1-.18.81,25.46,25.46,0,0,1,.18,2.61v3.69c0,1.36,0,2.61.14,3.73l-.15,1.62c0,.64,0,2.42.14,5.35-.1,3.13-.15,5.34-.15,6.66a10.44,10.44,0,0,0,1.62-.14c1.5,0,2.25.59,2.25,1.76v3.42c-.84,2.15-1.55,3.23-2.11,3.23l-1.13-.14h-.49c-1.76,0-5.21.2-10.35.62a21.74,21.74,0,0,1-.81-4.37q1.17-3.41,2.58-4.08a17.85,17.85,0,0,0,.18-2.25v-2.61a1.56,1.56,0,0,0-.17-.8,1.08,1.08,0,0,1,.17-.5q-.16-11.26-.29-16.19c.21-2.06.32-4.66.32-7.78,0-2.06-.59-3.1-1.79-3.1l-1,.17H116a.27.27,0,0,1-.31-.31v-3.42a17.88,17.88,0,0,1,2.61-5.17l.64.14a1.23,1.23,0,0,0,.49-.14,9.68,9.68,0,0,0,1.79.32A8.16,8.16,0,0,1,123.51,254.84Zm-5.85,4.36a12.58,12.58,0,0,0-1.13,2.6v1.13h.31a8,8,0,0,0,1-3.38v-.35Zm0-1.94a12.91,12.91,0,0,0-1,2.43,4.19,4.19,0,0,0,1.13-2.11v-.32Zm.61,42a9,9,0,0,1-.81,2.25l.14.35V304h.18a7.48,7.48,0,0,1,1-2.29,14.57,14.57,0,0,0-.34-2.43Zm1.67-38.09h-1.3a1.84,1.84,0,0,0-.81,1.76c.09,0,.53,0,1.3-.14a1.23,1.23,0,0,0,.5.14l1.44-1.93Zm-1.36,43.27H120a1.91,1.91,0,0,0,1.16-.46H122a5.81,5.81,0,0,1,.46-1.3h-1.27a1.54,1.54,0,0,0-.67.14,1.3,1.3,0,0,0-.63-.14h-.18C119.57,302.68,119.2,303.26,118.58,304.44Zm5.6-48.15H123l-.49.36h-2.25a1.25,1.25,0,0,1-.64-.17c-.54,0-.81.8-.81,2.42v.81l-.18.32.32.18a12,12,0,0,1,1.8-.18c.09,0,.14.06.14.18l.35-.18h1.44l.32.17a5.34,5.34,0,0,0-.32,1.8,51.56,51.56,0,0,0,.31,6c-.1.94-.14,1.75-.15,2.43V274c0,.86-.06,2-.18,3.41,0,.12.06.18.17.18-.11.56-.17.88-.17.95q0,2.43-.19,12.18a20.49,20.49,0,0,0,.34,3.06l-.17.67.17.63a13,13,0,0,0-.18,2.11l.18.67a2.85,2.85,0,0,1-1.48.46.12.12,0,0,1-.14-.14l-.81.14h-1c0,.16.11,1,.32,2.6v.49a15.33,15.33,0,0,0,3.73-.48h1.93a4.82,4.82,0,0,1,1.31.18,4.69,4.69,0,0,1,1.3-.18h.49l1.94.18-.14-2v-1.27a23,23,0,0,1-2.92.32c-.66,0-1-.6-1.16-1.8.12-3.12.18-5.72.19-7.78V287a7.64,7.64,0,0,0-.18-1.48c0-.09.06-.14.18-.14-.12-2-.17-3.45-.17-4.36v-4.55q0-1.83.18-4.71a1.87,1.87,0,0,1-.18-1l.18-1a1.09,1.09,0,0,0-.18-.49,12,12,0,0,0,.18-1.8,30.41,30.41,0,0,0-.31-3.73c.1-1,.15-2,.15-2.92l-.14-.63c2.7-.52,4-.84,4-1h.17c-.16-2.16-.32-3.24-.49-3.24C127.07,256.18,125.18,256.29,124.18,256.29ZM121.36,279a33.54,33.54,0,0,0-1.62,4.22c.21,0,.32.44.31,1.3h.18a7.42,7.42,0,0,0,1.13-2.6,18.4,18.4,0,0,0,.18-2.6V279Zm-1.45,10.38v.32h.14a14.84,14.84,0,0,1,1.3-2.57V284.2C120.39,285.06,119.91,286.79,119.91,289.37Zm.13,2.11a14.39,14.39,0,0,1,.18,2.61h.17a23.44,23.44,0,0,0,.82-2.61,17.43,17.43,0,0,1,.14-2.28C121.19,289.2,120.75,290,120,291.48Zm1.19-17a7.11,7.11,0,0,1-1.17,2.28v2.92h.18a22.41,22.41,0,0,1,1.3-2.77c0-.26-.05-1.07-.17-2.43Zm.15-8.91a21.09,21.09,0,0,0-1.3,3.24v1.93h.18l1.31-3.06v-2.11ZM121,294.09a5.75,5.75,0,0,0-.64,1.62v1.12l-.18.32H121l.32-.17a18.23,18.23,0,0,1-.14-2.89Zm.21-24a12.33,12.33,0,0,0-1,2.43v1.93c.14,0,.58-.64,1.31-1.93l-.18-.81v-.32c0-.11.06-.17.18-.17a2.15,2.15,0,0,1-.17-1.13Zm-.17-7.64a8.06,8.06,0,0,0-.81,2.61v.17h.17a2.5,2.5,0,0,1,.95-1.61,6,6,0,0,1-.13-1.17Zm2.55,40.07A11.48,11.48,0,0,1,123,304h2.29c.61,0,1.09-.55,1.44-1.66h-.14C125.23,302.45,124.26,302.51,123.62,302.51Zm5-.17h-.81c-.14,0-.41.5-.81,1.48.09,0,.42-.06,1-.17.08,0,.4.06,1,.18s1-.54,1.3-1.62h-.17A10.18,10.18,0,0,1,128.62,302.34Zm-.4-41.33h-.67v1.79c1.29,0,1.93-.7,1.93-2.11h-.14Z" transform="translate(0 -4.58)" fill="#444242"/><path d="M151.92,252.94q.84,0,4.26.15c0-.09.06-.14.17-.14a12,12,0,0,1,.46,4.12v.14a6.55,6.55,0,0,1-2,4.71h-.14a.12.12,0,0,1-.14-.14c-.42.14-.63.3-.63.46l-.6-.18a10.7,10.7,0,0,0-2.57.32l-.77-.15c-3.53.49-6,.79-7.47.91v1.37a1.56,1.56,0,0,1-.14.74q.27,4.08.45,5c0,.09-.06.14-.18.14a61.77,61.77,0,0,1,.91,8.55q.77,0,7.64-.45c1.52,0,2.28.16,2.28.46v.15c0,.09-.06.14-.17.14a1.22,1.22,0,0,1,.17.45c0,.47,0,1.59.14,3.35q-1.69,4.43-3.07,4.43l-6.37.91v.28a37.94,37.94,0,0,0,.73,5.63q3.19-.45,14.33-.72l.28-.17a2.35,2.35,0,0,1,2.14,1.23l-.14,1.06v.45a15.9,15.9,0,0,0,.28,3.35l-1.52,2.74q-2.5,1.05-15.53,2.27a31.31,31.31,0,0,0-8.37.9h-.15q-1.68,0-1.94-19.78-.77-8.57-1.07-20.24l.18-1.55a1.19,1.19,0,0,0-.17-.46l.17-.74a40.84,40.84,0,0,0-.31-4.44q1.69-4.4,3.21-4.39c1.57,0,4.92-.19,10-.59a12.49,12.49,0,0,0,1.69.15A16,16,0,0,1,151.92,252.94Zm-18,5.93a6.11,6.11,0,0,1,.31,1.65h.14a13.29,13.29,0,0,1,1.38-2.42c-.3-1.18-.46-1.79-.46-1.83A5.69,5.69,0,0,0,134,258.87Zm2.1,5.91a15.53,15.53,0,0,0-1.66,3.66v1.84l-.14,1.83a22.21,22.21,0,0,0,2.25-3.35l-.27-4Zm-.41-5.17a9.23,9.23,0,0,0-1.38,3.66v2.6h.14a14.79,14.79,0,0,0,1.65-3.06v-.45c-.19-1.79-.28-2.7-.28-2.75Zm-1.25,14.15a13.12,13.12,0,0,1,.45,2.75,16.94,16.94,0,0,0,2-3l-.14-1.51v-1.55A23.3,23.3,0,0,0,134.4,273.76Zm2.42,1.1c0,.37-.66,1.48-2,3.34v.59c0,.52,0,1.28.13,2.29,1.53-1.68,2.3-2.75,2.3-3.2a24.62,24.62,0,0,1-.32-3Zm.6,4.39c0,.29-.76,1.46-2.26,3.52v3.49c0,.21.12.31.29.31q1.73-3.27,2.29-4.11v-.92c0-.51,0-1.27-.14-2.28Zm-2.13,9.15v3.49q2.57-3.66,2.57-4.71v-1.24l-.13-.91a1.24,1.24,0,0,0,.14-.6Q135.29,287.6,135.29,288.4Zm2.43.92a39.74,39.74,0,0,1-2.12,3.94c.09,1.27.14,2,.14,2.29a22.68,22.68,0,0,0,2.29-2.74v-1.69l-.17-1.8Zm-1.84,8.2.14.78v1.37a13.34,13.34,0,0,0,2.15-2.6l-.14-1.52v-.77Zm.31,4c0,.05.09.86.28,2.43.28-.12,1-1.23,2.29-3.34a2.71,2.71,0,0,1-.28-1.23V298.3C137.19,300,136.42,301.08,136.19,301.5ZM149,254.91c-.47,0-1.63,0-3.49-.14-2,.2-4.82.4-8.55.58a74,74,0,0,1,1.08,9.9l-.18.77q.45,5.49.45,7.92l-.14,1.37a47.3,47.3,0,0,1,.9,9.72q.1,0,.45,1.23a1,1,0,0,1-.14.46c.09,1.6.24,3.12.45,4.58l-.17,1.51c.11,2.54.17,4.87.16,7v.45q13.2-1.8,18.27-1.8h2.12c-.1-1-.14-1.77-.14-2.29V295a4.12,4.12,0,0,1-1.23.28l-.92-.15q-7.74.76-9,.77a6.8,6.8,0,0,1-1.24-.18,17.67,17.67,0,0,0-3.62.63c-.73-.15-1.09-.3-1.09-.46v-1.83c-.19-1.13-.38-2.86-.59-5.18l.14-1.37a19.59,19.59,0,0,0-.28-2.75q.25-1.23.6-1.23h1.52c4.27-.39,6.86-.59,7.78-.58v-.15a26.18,26.18,0,0,1-.32-2.74h-.14a1.39,1.39,0,0,1-.6.14h-1.69a48.08,48.08,0,0,1-7.32.59,4.41,4.41,0,0,1-.42-1.2l.14-.92q-.45-8.09-1-14.33H141l-.14-.28.14-.91c0-.14-.15-1.36-.46-3.66,0-.83.77-1.23,2.29-1.23q1,0,6.55-.59l1.52.14c2.2-.4,3.47-.59,3.8-.59H155a9.65,9.65,0,0,0-.31-2.29,1.13,1.13,0,0,0,.14-.6.13.13,0,0,1-.14-.14Zm-9.95,46.74a9.33,9.33,0,0,1-1.7,2.42v.14h.18a9.38,9.38,0,0,1,3.2-.73,4.92,4.92,0,0,1,.92-1.69,6.63,6.63,0,0,1-1.55-.14,1.21,1.21,0,0,1-.6.14A1,1,0,0,0,139.08,301.65Zm2.42,1.65v.18h2.15c.12,0,.52-.65,1.2-2h-.14c-1.83,0-2.75.35-2.75,1.06Zm.83-43.22v.17c.1.87.14,1.38.14,1.52h.32a5.23,5.23,0,0,1,.6-1.69Zm1.52,1.55h1.69c.25,0,.65-.72,1.2-2.15h-.15c-1.52.21-2.28.72-2.29,1.51C144.21,261,144.06,261.21,143.85,261.63Zm1.2,23.58H144v2h.32a12.32,12.32,0,0,0,1.06-2.15Zm-.34,18.1H145c1.72,0,2.57-.44,2.57-1.34l.46-.91h-.14c-1.45,0-2.32.45-2.6,1.37A2.93,2.93,0,0,0,144.71,303.31Zm.62-16.26h.31c1.13,0,1.83-.37,2.12-1.09a1.63,1.63,0,0,1,.46-.92v-.14c-1.51,0-2.26.46-2.26,1.37Q145.75,286.27,145.33,287.05Zm1.4-25.88v.15h.18c1.5,0,2.25-.51,2.25-1.52l.18-.31h-1.55C147.65,259.49,147.3,260.05,146.73,261.17Zm1.18,41.69V303H149c.63,0,1.19-.71,1.69-2.14a.25.25,0,0,0,.28-.28v-.18h-.46q-1.83.21-1.83,1.23A4.32,4.32,0,0,0,147.91,302.86Zm1.4-18.1a10.4,10.4,0,0,1-1.1,2c2.35,0,3.52-.56,3.53-1.68.21,0,.31-.1.31-.28v-.32C150.53,284.66,149.61,284.76,149.31,284.76ZM149.8,261q2.43,0,2.43-1.05c.09,0,.29-.3.6-.92h-.15c-1.83,0-2.74.41-2.74,1.23A1.27,1.27,0,0,0,149.8,261Zm.86,41.72h.28c1.73,0,2.6-.5,2.6-1.51.19,0,.34-.33.46-.92h-.17a2.7,2.7,0,0,0-2.57,1.23A3.64,3.64,0,0,1,150.66,302.72ZM153.6,259a5.42,5.42,0,0,1-.92,1.68H153c1.2,0,1.79-.36,1.8-1.08a1,1,0,0,0,.17-.46h-.63Zm3.15,41.12h-1.09c-.59,0-1.14.71-1.66,2.11h.14c1.62,0,2.43-.45,2.43-1.37.21,0,.37-.32.46-.91ZM158,300a10,10,0,0,0-.75,2c1.81,0,3-.71,3.49-2.15h-.14C160,299.84,159.14,299.89,158,300Z" transform="translate(0 -4.58)" fill="#444242"/><path d="M172.83,255c0,.33.17.49.38.49q-.21,1.23-.21,1.41c.14,3,.2,5,.2,6.09v.25h.18c1.86-3.76,3.54-5.63,5-5.63,0-.35,1.23-.82,3.7-1.4q3.16,0,7.52,7.5a23.49,23.49,0,0,1,1.93,5.18q.31,0,1.15,7.75.21,0,.21.24c0,.92.06,2.8.17,5.64-.38,5-.65,9.54-.79,13.62l.21.46-.21.49.21.92q-1.7,4-2.16,4a12.54,12.54,0,0,1-2.5.25h-2.92l-.56.45q-.6,0-.6-3.06v-2.82a1.77,1.77,0,0,1-.39-.95q0-4.29.23-13.37c0-.1-.13-1-.38-2.58l.38-.24-.21-.46v-2.6a17.64,17.64,0,0,0-.39-1.87v-2.61a20.89,20.89,0,0,1,.21-2.56,8.81,8.81,0,0,0-1.37-3.77q-4.57,0-7.93,8.22,0,3.08-.21,3.06c.13,1.72.2,3.2.2,4.44v10.81a20.46,20.46,0,0,1-2.55,9.89c0,.61-.39,1.08-1.16,1.4q-.39,0-.39-.24a38.61,38.61,0,0,0-4.82.69c-.92-.14-1.38-1.31-1.37-3.52h.21a1.85,1.85,0,0,1-.21-.7c0-2-.05-4.4-.17-7.29q.41-5.46.4-8h.18l-.18-.46v-1.19a21,21,0,0,0-.21-2.57l.22-.46a21.28,21.28,0,0,1-.21-2.61V275a13.09,13.09,0,0,1,.22-2.15c-.14-.47-.27-.7-.39-.7l.18-1.16v-2.11a21.44,21.44,0,0,1,.22-3.07,10.94,10.94,0,0,1-.21-2.57l.21-.45c-.26,0-.39-.17-.39-.5v-1.16l3.67-5.63c.92,0,1.43-.08,1.55-.24l1.16.25h.21A16.32,16.32,0,0,0,172.83,255Zm-8.16,21.6c.25,2.49.38,3.9.38,4.23a9.26,9.26,0,0,0,2.11-4.44,17.72,17.72,0,0,1-.17-2.11v-.74h-.21Zm2-11q-2,3.58-2,5.38a5.54,5.54,0,0,1,.18,2.11L167,271l-.21-1.65v-3.73Zm-1.94-1.42v2.57h.39a25.87,25.87,0,0,0,1.94-4.47c-.26-1.51-.39-2.36-.39-2.57.12,0,.18-.08.18-.25h-.18a5.39,5.39,0,0,0-1.76,4C164.74,263.45,164.68,263.69,164.68,264.15Zm2.3,15.74-2.15,4.22a15.82,15.82,0,0,1,.21,2.57h.17c0-.68.59-1.46,1.77-2.35.12-2.14.18-3.46.18-4v-.46Zm0,12q0,.6-1.77,2.82v.7h.39c0-.4.52-1.19,1.55-2.36v-1.16Zm-1.76-2.57v2.82h.21a10.24,10.24,0,0,1,1.73-3.06v-3.31C166.66,285.74,166,286.92,165.21,289.29Zm1.54,6.09a5.74,5.74,0,0,1-1.34,2.36V301q.74,0,1.73-4.92a2.14,2.14,0,0,1-.18-.71Zm1.55,2.36q0,1.31-2.12,4.22v.25a10.67,10.67,0,0,1,3.28-.49V302l.38-.25.39.25a8,8,0,0,1,1.38-3.52A12.27,12.27,0,0,1,168.3,297.74Zm-.12-40.66a3.79,3.79,0,0,1-.22,1.66q1,11.29,1,22.32c0,.72-.14,3.39-.4,8q.55,1,.56,6.09-.18,0-.18.24a11.64,11.64,0,0,0,3.27.47l.39-.21a2.14,2.14,0,0,1-.18-.71,6.06,6.06,0,0,1,.18-2.11c-.11-2-.17-3.68-.17-4.93l0-8.48.17-1.41a20.74,20.74,0,0,1-.38-3q0-3.59,5.26-9.88l3.49-1.16q3.27,0,5.41,3.53.67,0,1.53,12v9.19l.18,1.16h-.18l.18.46v5.42c.68.14,1.07.21,1.16.21,1.29-.26,1.94-.56,1.94-.91v-.5c0-.47-.06-.7-.18-.7l.18-1.16c0-2.82.08-5.56.22-8.24q0-13.94-2.51-17.6-1.68-6.27-6-8.71a1.64,1.64,0,0,1-1-.24c-2,0-4.42,1.72-7.15,5.16,0,1-.91,2.37-2.71,4h-.39l-.39-1.2.18-1.41-.18-.45a2.4,2.4,0,0,0,.18-.95,2.34,2.34,0,0,0-.17-.71,13.42,13.42,0,0,0,.39-3.52c0-.94-.39-1.41-1.16-1.41a1.32,1.32,0,0,0-.78.25A5.7,5.7,0,0,1,168.18,257.08ZM184,268.4a16,16,0,0,1,.55,3.53c.19,0,.39-.24.6-.71C184.82,269.34,184.44,268.4,184,268.4Zm1.54,4.23a9.35,9.35,0,0,0-1,2.11,10,10,0,0,1,.21,2.36H185a8.48,8.48,0,0,0,1.16-2.81C186.07,273.18,185.88,272.63,185.58,272.63Zm-.8,16.9a3.14,3.14,0,0,1,.39,1.41,4,4,0,0,0,1.16-2.57V287C186,287.12,185.47,288,184.78,289.53Zm0-4.47.17,1.19a3.52,3.52,0,0,0,1.17-2.35v-1.41A4.18,4.18,0,0,0,184.79,285.06Zm1.17-7.5a6.81,6.81,0,0,1-1.16,2.36v2.32a4.13,4.13,0,0,0,1.34-2.57v-2.11Zm.36,18.09c0,.31-.45,1-1.37,2.11v2.36h.21a6.38,6.38,0,0,1,1.55-2.35l-.21-2.12Zm-1.37-.24a3.85,3.85,0,0,0,1.55-3.28A4.79,4.79,0,0,0,185,295.41Zm2.71,2.57a18.2,18.2,0,0,0-1.17,2.85h1.94l1-.24c0,.16.05.24.17.24A7.8,7.8,0,0,0,191,298Z" transform="translate(0 -4.58)" fill="#444242"/><path d="M202.29,255.54a16.67,16.67,0,0,1,8.55,3.71q5.73,6.5,6.71,9.59s.28.57.84,1.58l-.14.28a14.39,14.39,0,0,1,1,4.86v2a30.85,30.85,0,0,1-6.47,18.68q-1.86,4.94-5.71,6.58c-4.25,1.7-6.63,2.56-7.15,2.56a19.92,19.92,0,0,1-2.56.14h-.89c-.11,0-.35-.23-.7-.7l.28-.42a59,59,0,0,1-.69-9,7.92,7.92,0,0,1,.14-1.3c-.09-1.08-.13-2.12-.13-3.13v-.71c0-1.19.05-2.28.14-3.27l-.14-.88.31-15.42c-.1-.84-.14-2.65-.14-5.42V263.1c0-1.1,1.19-3.29,3.57-6.57A5.69,5.69,0,0,1,202.29,255.54ZM196.52,282v1.83l.18,1.45c1.5-1.36,2.25-2.45,2.26-3.27v-1.31l-.14-1.72C197.28,280.28,196.52,281.29,196.52,282Zm0-19.29v.85l.17.88a1,1,0,0,0-.17.56h.17c1.41-1.57,2.12-2.61,2.12-3.13V260.4l-.14-.71A15.59,15.59,0,0,0,196.54,262.68Zm.15,24.29v3.28c1.5-1.36,2.26-2.56,2.26-3.59v-2.43h-.14A28.16,28.16,0,0,0,196.69,287Zm1.84-12.74c0,.35-.56,1.16-1.69,2.43V277c0,.61-.05,1.56-.14,2.85a13.73,13.73,0,0,0,2.11-2.43V275l-.14-.74ZM196.71,271l.14,1.44v.7a1.1,1.1,0,0,1-.14.57,1.45,1.45,0,0,1,.14.74h.28c1-.73,1.55-1.4,1.56-2v-3.59A16.7,16.7,0,0,0,196.71,271Zm1.83-6.55a13,13,0,0,1-1.83,2.43v2.57c1.31-1.17,2-2.14,2-2.89v-2.11Zm.7,34.11a18.09,18.09,0,0,1-2.29,3.59,17.91,17.91,0,0,0-.15,2.11q2.72-2.43,2.72-4V298.8A.25.25,0,0,0,199.24,298.52Zm-2.43-.42.14.28a7.82,7.82,0,0,0-.14,1.3V300a15.92,15.92,0,0,0,2.43-2.71,16.12,16.12,0,0,1-.31-1.86A7.36,7.36,0,0,0,196.81,298.1Zm0-5.42v2.85H197a8,8,0,0,0,1.83-2v-3.69C197.48,291.28,196.82,292.23,196.82,292.68Zm1.67,11.72.74-.18h.85c.09,0,.14,0,.14.17.49,0,1-.81,1.58-2.42C200.47,302,199.36,302.78,198.49,304.4ZM200.56,258v.14q.13,4.93.13,7.71v1.59a.25.25,0,0,1-.28.28c.09,2.53.13,4.53.13,6v4.58c0,.44.14,2.44.42,6v1.45q0,.84-.15,2.28a.12.12,0,0,0,.14.14c-.09.5-.14.78-.14.85,0,1.57.14,4.58.41,9l-.14.85a1.49,1.49,0,0,1,.28.74h2.29a11.57,11.57,0,0,0,6.44-3.72,62,62,0,0,1,4-5.56,21.74,21.74,0,0,0,3.47-11.72q0-8.73-3.44-12.29-.81-2.43-5.13-6.55a34.25,34.25,0,0,0-4.54-2A21.18,21.18,0,0,1,200.56,258Zm1.67,45.41c2.18-.79,3.27-1.46,3.27-2V301C203.32,301.47,202.23,302.28,202.23,303.38Zm1-43.26a9.18,9.18,0,0,1,6.3,2.86,13,13,0,0,1,4.25,5.71,19.67,19.67,0,0,1,2,8.87q-1.25,10.21-3.15,12.28c0,.36-.86,1.45-2.57,3.28-.52,1-1.14,1.44-1.87,1.44l-3.28,3.13h-1.3q-.84,0-.82-19.85.15-4.54.16-10.14c0-.68,0-2.06-.14-4.15a5.24,5.24,0,0,0,.14-1.27l-.14-.28A4,4,0,0,1,203.27,260.12Zm.84,4.12v.18a21.32,21.32,0,0,1,.17,2.25V269a4.83,4.83,0,0,0,.14,1.3,6.71,6.71,0,0,0-.15,1.13q0,2.67-.18,6.44.16,3.66.17,7.29l.14.7-.15.85c0,2,.09,5.14.27,9.43q1.77-1.73,4.41-4,1.33-1.44,3-7.71a28.69,28.69,0,0,0,.28-3.73h.14a1.17,1.17,0,0,1-.14-.42q0-8.24-2.27-10.85a35.22,35.22,0,0,0-5.7-5.18Zm0-2.71v.14c.07,1.06.18,1.59.32,1.59l.84.42q0-.29,1-1.41a7,7,0,0,0-2-.74ZM206,264.1l1.87,1.59,1.12-1.27L207.14,263H207C206.88,263,206.54,263.35,206,264.1Zm.52,37.56h.17c.94,0,1.94-1,3-3a11.12,11.12,0,0,1-2.57,1.86A2.85,2.85,0,0,0,206.49,301.66Zm2-35.26a17.86,17.86,0,0,1,1.72,1.44l.71-1.16v-.14c-.54-.85-.87-1.27-1-1.27h-.28C209.58,265.27,209.2,265.65,208.54,266.4ZM211.07,297a1.79,1.79,0,0,0-.57,1c.17,0,.4-.32.71-1ZM211,268.83a7.51,7.51,0,0,0,1.17,1.86,2,2,0,0,1,.42-1,7.05,7.05,0,0,0-.84-2A1.19,1.19,0,0,0,211,268.83Zm2,1.87a4,4,0,0,0-.43,1.16,7.26,7.26,0,0,1,.42,2.39l1-.84-.84-2.71Zm.12,13.41v.46h.14v-.46Zm0-8.56a7.74,7.74,0,0,1,.14,1.87h.14c.24-.77.53-1.16.88-1.16l-.17-1.41C213.6,275.32,213.27,275.55,213.1,275.55Zm.13,7.71V284h.15a6.44,6.44,0,0,1,.14-1.13C213.33,282.84,213.23,283,213.23,283.26Zm.15-4.29v.28l.14,1.73c-.1,0-.14,0-.14.14h.14c.49,0,.74-1,.74-3C214.12,278.12,213.83,278.41,213.38,279Z" transform="translate(0 -4.58)" fill="#444242"/><path d="M107.41,48.25a4.19,4.19,0,0,1,3.13,2q1.39,1.94,1.39,7.24c-.05,2-.12,3.48-.22,4.46a.46.46,0,0,0,.07.21c0,.65-.07,1.21-.07,1.67v1.81c0,.46,0,1.16-.08,2.09h-.06l.06.14v1q0,2.86-1.11,3.48a4,4,0,0,1-1.26.35l-.42-.07h-.55a.89.89,0,0,1-.42-.84V68a.07.07,0,0,1,.07-.07l-.06-.14q0-.21.06-.21l-.13-.83c0-.41.07-.76.07-1v-.27h-.07a7.81,7.81,0,0,1-1.25-.14q-.84.06-1.26.06a29.65,29.65,0,0,1-3.62-.28V67.6c0,2.42-.19,3.86-.56,4.31l-.63.63-.14-.07a6,6,0,0,1-2.09.34,6.09,6.09,0,0,1-.35-1.74,2.43,2.43,0,0,1,.07-.55c0-.63-.06-1.16-.06-1.61V68l-.07-.35a.13.13,0,0,0,.14-.14v-.9a.68.68,0,0,1,.07-.35.46.46,0,0,0-.07-.21c0-.31,0-1,.07-2.16q0-.69-.06-2.85a32.36,32.36,0,0,1,1.54-9.26c1.09-1.49,1.86-2.23,2.3-2.23a6.64,6.64,0,0,1,3.07-1.25h.41C105.89,48.32,106.59,48.29,107.41,48.25Zm-9,19.34V68h.13c.38-.23.56-.46.56-.7v-.55C98.64,67,98.41,67.31,98.41,67.59Zm.06,1.19v.62h.07c.33-.19.49-.33.49-.41v-.77A1.41,1.41,0,0,0,98.47,68.78Zm.07,1.32v.49a.14.14,0,0,0,.14.14c0-.07.16-.19.49-.35,0,0-.07-.26-.07-.77C98.73,69.88,98.54,70,98.54,70.1Zm0-4v.42h.07a1.31,1.31,0,0,0,.62-1.19h-.07C98.76,65.6,98.55,65.85,98.55,66.13Zm0-1.39v.48h.07c.34-.27.54-.41.63-.41V64C98.78,64.22,98.55,64.45,98.55,64.74Zm0-4.25.07.49h.07c.47-.35.7-.56.7-.63v-.76C98.83,59.93,98.56,60.23,98.55,60.49Zm.06,10.86a2,2,0,0,1,.07.56c.15,0,.31-.33.49-1H99.1A1.31,1.31,0,0,0,98.61,71.35Zm0-8.15v.56a2,2,0,0,0,.7-.55v-.56A1.69,1.69,0,0,0,98.62,63.2Zm0-1.46v.7c.33,0,.58-.44.77-1.32h-.07A1.94,1.94,0,0,0,98.62,61.74Zm.08-2.43v.14h.07q.69-.39.69-.84v-.28A1,1,0,0,0,98.7,59.31Zm.07-1.19h.07a1,1,0,0,0,.69-1V56.8A1.36,1.36,0,0,0,98.77,58.12Zm.28-1.6h.07a1,1,0,0,0,.56-1v-.14Q99.05,55.62,99.05,56.52Zm.21-1.46h.07a.8.8,0,0,0,.56-.7v-.2h-.07A1.13,1.13,0,0,0,99.26,55.06Zm.18,17h.7c.12,0,.28-.25.49-.77h-.21A1,1,0,0,0,99.44,72.05Zm.17-18.45v.07h.07c.22,0,.4-.35.56-1.05A1,1,0,0,0,99.61,53.6Zm.26,15H99.8a7,7,0,0,1,.13,1.81h1V69.34c0-.64,0-1.48.07-2.51a.63.63,0,0,1-.07-.21l.07-.14c0-.6-.06-1.09-.06-1.46V65c0-1.44.16-2.16.49-2.16,1-.09,1.68-.14,2-.14a6.5,6.5,0,0,1,1.74.29l.62-.07q4.32.2,4.32.63a1.92,1.92,0,0,0,.07.49c0,.68-.07,1.15-.07,1.39,0,.39,0,1,.06,1.88L110,68.37c0,.61.07,1.09.07,1.46a3.28,3.28,0,0,0-.07.56h.42a.52.52,0,0,0,.56-.55s0-.18-.07-.42a1.92,1.92,0,0,1,.07-.49c-.05-.52-.07-1-.07-1.39V67a1,1,0,0,0-.07-.49,3.24,3.24,0,0,0,.07-.62v-2a.61.61,0,0,1,.07-.28l-.07-.14c0-1.65.08-3,.08-3.9-.14-5-.4-7.45-.76-7.45q-1-3.13-3.75-3.14c-1.89,0-3,.28-3.42.83q-1.95,1.78-2,3.06Q100.39,53.82,99.87,68.64Zm.23-16.43a2.23,2.23,0,0,0,.76-1.19C100.35,51.61,100.1,52,100.1,52.21Zm6.13-2.36c1,0,2,.67,2.85,2a16.37,16.37,0,0,1,1,5c0,1.37-.07,2.26-.08,2.65,0,1.09.07,1.69.07,1.81-.09.28-.18.42-.28.42h-.28a5,5,0,0,1-.83-.07l-.35.07c-.71,0-1.36-.07-2-.08h-.76s-.07,0-.07-.07a.06.06,0,0,0-.07.07l-3.69-.28-.35.14c-.37-.11-.56-.53-.56-1.26V59A15.54,15.54,0,0,1,103.51,51a3.43,3.43,0,0,1,1.95-1.18Zm-4.61,9.81c0,.11,0,.46.07,1h.07c.35,0,1.41.1,3.2.29a.63.63,0,0,0,.21-.07,5.5,5.5,0,0,1,1,.14,5.05,5.05,0,0,1,.77-.07H108l.14-.07c0-1,.07-1.74.07-2.23V57.58q0-4.63-1.74-6.06c-.35-.42-.59-.63-.69-.63L105,51v-.07q-.78.13-2.3,3.76A11.27,11.27,0,0,0,101.62,59.66Zm.06,4.18v.34h.07a1.07,1.07,0,0,1,.21-.41h-.07A.63.63,0,0,1,101.68,63.84Zm.7-.14a3.64,3.64,0,0,0-.28.83v.07l.35-.07a.46.46,0,0,0,.21.07,2.94,2.94,0,0,1,.21-.83A1.08,1.08,0,0,1,102.38,63.7Zm.76.9h.42a2.93,2.93,0,0,1,.28-.83h-.35C103.38,63.77,103.26,64.05,103.14,64.6Zm1.12-.76a2.55,2.55,0,0,1-.28.83h.42c.11,0,.23-.25.35-.76l-.14-.07Zm1.39.07a2.69,2.69,0,0,0-.42.77h.7a2,2,0,0,0,.21-.7Zm1,.77h.14c.11,0,.25-.21.41-.63H107C106.87,64.05,106.75,64.26,106.63,64.68Zm0-13.72c0,.06.12.18.35.35l.14-.21Zm.91.49a.55.55,0,0,1-.14.28v.07a.14.14,0,0,0,.14.14c.07,0,.16-.09.28-.28v-.07a.13.13,0,0,0-.14-.14Zm.26,12.67a6.56,6.56,0,0,0-.35.63l.7.07c0-.07.16-.28.49-.63A3.06,3.06,0,0,1,107.81,64.12Zm.09-11.63a2.15,2.15,0,0,1,.2.63h.14c0-.14.1-.25.28-.34l-.21-.7C108.24,52.08,108.1,52.22,107.9,52.49Zm.41,1.33a4.05,4.05,0,0,1,.14.9h.14a1.13,1.13,0,0,1,.35-.55l-.21-.91C108.67,53.26,108.53,53.45,108.31,53.82Zm.12,15.94v.63a3.42,3.42,0,0,0,.9-.77V69A2.49,2.49,0,0,0,108.43,69.76ZM108.5,68v.56l-.07.35a3.57,3.57,0,0,1,1-.56V68.3l.07-.69a.06.06,0,0,1-.07-.07A4.08,4.08,0,0,1,108.5,68Zm0,3.07v.76a6.49,6.49,0,0,0,.83-1v-.56C109.22,70.32,108.94,70.58,108.5,71.09Zm0-4.11v.49c.56-.29.86-.5.91-.63v-.07l-.07-.35h-.07A3.28,3.28,0,0,0,108.5,67Zm.07-1.25v.34c.47-.24.72-.42.77-.55v-.07l-.07-.84h-.07A1.28,1.28,0,0,0,108.57,65.73Zm.09-10.17v.49l.07.48h.06a5.55,5.55,0,0,1,.42-.69l-.13-.84C109,55,108.88,55.19,108.66,55.56Zm.06,3.69V60c.06,0,.22-.21.49-.63v-.84C109.14,58.55,109,58.79,108.72,59.25Zm0-1.81v.77a1.56,1.56,0,0,0,.56-1.33h-.07A1.64,1.64,0,0,0,108.72,57.44Zm.14,3.55h.21a.13.13,0,0,0,.14-.14v-.42C109.09,60.43,109,60.62,108.86,61Zm.33,11.07h.14q1.26,0,1.26-.69h-.49C109.85,71.37,109.55,71.6,109.19,72.06Z" transform="translate(0 -4.58)" fill="#444242"/><path d="M137.49,48.39l.47.14a13,13,0,0,1,1.71-.14c.61.42.92.69.92.81s-1.15,5.41-3.45,16l-2.08,5.68a6.88,6.88,0,0,1-1.26,1.89,5.84,5.84,0,0,0-1.25.14c-1.53,0-2.3-.32-2.3-1a21.8,21.8,0,0,0-1.37-3.51c.15,0,.23-.09.23-.28A85,85,0,0,1,123.3,55a14.72,14.72,0,0,1-.8-2,41.07,41.07,0,0,0,1.38-3.92l3.43-.53q3.42,8.86,3.42,9.45a47.12,47.12,0,0,1,1.71,4.88h.23c0-.37.38-2.62,1.16-6.75.29-2.44.67-3.66,1.15-3.66a14.32,14.32,0,0,1,2.41-4ZM124,51.07a8.07,8.07,0,0,1-.8,2c.34,1,.58,1.48.69,1.48a6.26,6.26,0,0,1,.68-1.9Q124.22,51.07,124,51.07Zm.82,2.3-.58,2.18a14.52,14.52,0,0,1,.57,1.61h.11q.45-1.89.69-1.89a13,13,0,0,1-.69-1.9Zm12.81-4q-.68,3.15-2,10.55l-1.26,4.73a6.61,6.61,0,0,1-.8,1.76h-.13q-.56,0-2.49-6.08-.81-1.73-3-8l-1.14-2.7c-1.54.19-2.3.46-2.3.79q2.58,6.87,6.85,16.25c.3.71.61,1.52.92,2.42l.8-.12h1.48q1.68-2,4.72-17.71c.15,0,.23-.58.23-1.76a.82.82,0,0,0-.45-.14ZM125.7,56.09a15.12,15.12,0,0,0-.46,2.29,6.82,6.82,0,0,1,.57,1.48H126l.46-2.15a5.12,5.12,0,0,1-.58-1.62Zm1,2.7-.45,2c.48,1.26.79,1.88.92,1.88a14.09,14.09,0,0,1,.56-2,9.5,9.5,0,0,1-.8-1.9Zm1.27,2.7-.58,2a9.53,9.53,0,0,1,.68,1.76h.22a12.28,12.28,0,0,0,.58-2.3,5.35,5.35,0,0,1-.68-1.49Zm1.25,2.43c-.39,1.19-.58,1.82-.58,1.9a3,3,0,0,1,.45,1.22h.25a14.11,14.11,0,0,0,.45-1.9,4.41,4.41,0,0,1-.45-1.22Zm.92,2.3a5.64,5.64,0,0,1-.58,1.64q.42,1.2.57,1.2a17.72,17.72,0,0,1,.56-1.76C130.46,66.58,130.27,66.22,130.16,66.22Zm.8,2.18a7.67,7.67,0,0,1-.48,1.48,3.3,3.3,0,0,1,.35,1.62,3.22,3.22,0,0,0,.8-1.76A2.42,2.42,0,0,0,131,68.4Zm1.12,1.88-.8,1.64h2.4a7.58,7.58,0,0,1,.7-1.64l-.57.14A13.15,13.15,0,0,0,132.08,70.28Zm.81-6.47c.4.53.63.8.7.8a7.06,7.06,0,0,0,.23-1.62C133.2,63.16,132.89,63.44,132.89,63.81Zm.48-1.64c.66,0,1.08-.67,1.25-2A2,2,0,0,0,133.37,62.17Zm.45-2.43h.12a3,3,0,0,0,1.14-.8l-.11-.28a6.22,6.22,0,0,0,.11-1.48A2.55,2.55,0,0,0,133.82,59.74Zm.46-3c1-.41,1.5-1,1.5-1.76V54.6h-.12A2,2,0,0,0,134.28,56.78Zm2.08-6.09a19.47,19.47,0,0,1-1.61,3c-.08.48-.12.74-.12.8h.12c1-.27,1.48-1.17,1.48-2.69.11,0,.18-.32.23-.94v-.14Z" transform="translate(0 -4.58)" fill="#444242"/><path d="M150.53,46.91c.28,0,1,0,2.11.08a.07.07,0,0,1,.08-.08,6,6,0,0,1,.23,2V49a3.24,3.24,0,0,1-1,2.33h-.07a.06.06,0,0,1-.07-.07c-.21.07-.31.15-.31.23l-.3-.09a5.3,5.3,0,0,0-1.27.16l-.38-.07c-1.74.24-3,.39-3.69.44v.68a.87.87,0,0,1-.07.37c.09,1.34.16,2.17.22,2.49,0,0,0,.07-.09.07a31.48,31.48,0,0,1,.45,4.23c.26,0,1.52-.08,3.78-.22.75,0,1.13.07,1.13.22v.07s0,.07-.09.07a.57.57,0,0,1,.09.23c0,.23,0,.78.07,1.65-.56,1.46-1.07,2.19-1.52,2.19l-3.15.45v.14a19.16,19.16,0,0,0,.36,2.79q1.59-.22,7.09-.36l.13-.09a1.19,1.19,0,0,1,1.07.61l-.08.53v.22a8.14,8.14,0,0,0,.14,1.66l-.75,1.35q-1.23.53-7.68,1.13a15,15,0,0,0-4.14.44h-.07q-.84,0-1-9.78-.37-4.23-.53-10l.09-.77a.55.55,0,0,0-.09-.22l.09-.37q-.09-1.89-.15-2.19c.56-1.45,1.09-2.18,1.58-2.18.78,0,2.44-.09,5-.28a7.88,7.88,0,0,0,.83.07A8,8,0,0,1,150.53,46.91Zm-8.88,2.93a3.29,3.29,0,0,1,.16.82h.06a6.58,6.58,0,0,1,.69-1.2c-.15-.58-.23-.88-.23-.9A2.84,2.84,0,0,0,141.65,49.84Zm1,2.93a7.2,7.2,0,0,0-.82,1.81v.9l-.07.91a11.3,11.3,0,0,0,1.11-1.66l-.13-2Zm-.21-2.56A4.61,4.61,0,0,0,141.8,52v1.29h.07a7.29,7.29,0,0,0,.82-1.52v-.22c-.09-.89-.14-1.34-.14-1.36Zm-.61,7a6.41,6.41,0,0,1,.22,1.36,8.36,8.36,0,0,0,1-1.49l-.07-.75v-.77A11.09,11.09,0,0,0,141.87,57.2Zm1.2.55a5.86,5.86,0,0,1-1,1.65v.29c0,.26,0,.64.07,1.14.75-.84,1.13-1.37,1.13-1.59a12.25,12.25,0,0,1-.15-1.49Zm.29,2.17a7.69,7.69,0,0,1-1.12,1.74v1.72c0,.11.06.16.14.16.57-1.08,1-1.76,1.13-2v-.46c0-.25,0-.63-.06-1.13Zm-1.05,4.53v1.72a6.33,6.33,0,0,0,1.27-2.33v-.61l-.07-.45a.56.56,0,0,0,.07-.3A5.46,5.46,0,0,0,142.31,64.45Zm1.2.45a19.48,19.48,0,0,1-1,1.95c0,.63.07,1,.07,1.13a9.94,9.94,0,0,0,1.13-1.36v-.83l-.09-.89ZM142.6,69l.07.38V70a6.44,6.44,0,0,0,1.06-1.29l-.07-.75V67.6Zm.15,2s.05.43.14,1.2A6.31,6.31,0,0,0,144,70.47a1.36,1.36,0,0,1-.13-.61v-.52C143.25,70.19,142.87,70.71,142.75,70.92Zm6.35-23-1.72-.08c-1,.11-2.39.2-4.23.29a36.64,36.64,0,0,1,.53,4.89l-.09.39c.15,1.81.23,3.11.23,3.91l-.08.68a23.21,23.21,0,0,1,.45,4.81s.11.2.23.61a.67.67,0,0,1-.07.22c0,.79.12,1.55.22,2.27l-.09.75c.06,1.25.09,2.4.08,3.46v.23a79,79,0,0,1,9-.9h1c0-.5-.06-.87-.06-1.13V67.7a2,2,0,0,1-.61.14l-.46-.07c-2.55.25-4,.38-4.43.38a3.16,3.16,0,0,1-.61-.09,8.9,8.9,0,0,0-1.8.31c-.36-.07-.54-.15-.54-.23v-.9c-.09-.56-.18-1.41-.29-2.56l.07-.68a9.6,9.6,0,0,0-.13-1.36c.08-.4.18-.61.29-.61h.75c2.11-.19,3.4-.29,3.85-.29v-.07a11.5,11.5,0,0,1-.16-1.35h-.07a.72.72,0,0,1-.29.06h-.84a21.78,21.78,0,0,1-3.62.29,2,2,0,0,1-.21-.59l.07-.45c-.14-2.67-.32-5-.51-7.09h.07L145,52.4l.07-.45c0-.07-.07-.67-.22-1.81,0-.4.37-.61,1.13-.61.31,0,1.39-.09,3.24-.29l.75.07c1.09-.19,1.71-.29,1.87-.29H152a4.83,4.83,0,0,0-.15-1.13.66.66,0,0,0,.07-.3c-.05,0-.07,0-.07-.07ZM144.18,71a4.4,4.4,0,0,1-.84,1.2v.07h.09A4.79,4.79,0,0,1,145,71.9a2.51,2.51,0,0,1,.46-.83,3.48,3.48,0,0,1-.77-.08.54.54,0,0,1-.29.07A.71.71,0,0,0,144.18,71Zm1.2.82v.09h1.06c.06,0,.26-.32.6-1H147c-.91,0-1.36.17-1.36.52Zm.41-21.37v.09c.05.43.07.67.07.74H146a2.87,2.87,0,0,1,.29-.84Zm.75.77h.83c.13,0,.33-.36.6-1.06h-.07c-.76.1-1.13.35-1.13.74C146.72,50.89,146.64,51,146.54,51.21Zm.59,11.66h-.54v1h.16a5.7,5.7,0,0,0,.52-1.06ZM147,71.82h.16c.85,0,1.27-.22,1.27-.66l.23-.46h-.07c-.72,0-1.15.23-1.29.68A1.4,1.4,0,0,0,147,71.82Zm.31-8h.16c.55,0,.9-.17,1-.53a.85.85,0,0,1,.23-.46v-.07c-.74,0-1.11.23-1.12.68C147.52,63.39,147.41,63.52,147.27,63.77ZM148,51v.07h.08c.75,0,1.12-.25,1.12-.75l.09-.15h-.77C148.42,50.15,148.25,50.43,148,51Zm.58,20.61v.09h.52c.31,0,.59-.35.84-1.06a.13.13,0,0,0,.14-.14v-.09h-.23c-.6.07-.9.27-.9.61C148.88,71,148.76,71.2,148.55,71.59Zm.69-8.94a5.11,5.11,0,0,1-.54,1c1.16,0,1.74-.28,1.74-.83.1,0,.16,0,.16-.14v-.16C149.84,62.59,149.39,62.65,149.24,62.65Zm.24-11.75c.8,0,1.2-.18,1.2-.52,0,0,.15-.15.3-.46h-.07c-.91,0-1.36.2-1.36.61A.62.62,0,0,0,149.48,50.9Zm.43,20.62h.14c.85,0,1.28-.24,1.28-.74.1,0,.17-.17.23-.46h-.09a1.36,1.36,0,0,0-1.27.61A1.87,1.87,0,0,1,149.91,71.52Zm1.45-21.6a2.59,2.59,0,0,1-.45.84h.16c.59,0,.88-.18.88-.54A.45.45,0,0,0,152,50h-.31Zm1.56,20.34h-.54c-.29,0-.56.34-.82,1h.07c.8,0,1.2-.23,1.2-.68.11,0,.18-.16.23-.45Zm.59-.09a5.63,5.63,0,0,0-.37,1,1.63,1.63,0,0,0,1.73-1.06h-.07C154.53,70.1,154.1,70.13,153.51,70.17Z" transform="translate(0 -4.58)" fill="#444242"/><path d="M159.49,47.69c2.09,0,3.55.38,4.39,1.12A5.67,5.67,0,0,1,167,51.53c.32,1.11.53,1.67.62,1.67l-.07.35a10.29,10.29,0,0,1,.14,1.39v.84a7.94,7.94,0,0,1-3.91,7.3v.07q1,1.89,3.68,6.13a2.67,2.67,0,0,1,.35,1c-.39,1.39-.87,2.09-1.47,2.09a13.69,13.69,0,0,1-1.88.27c-.72,0-1.78-1.55-3.19-4.67-.06,0-.11-.14-.14-.42h-.07l-.07.7V70a4.08,4.08,0,0,1-1.12,2.72,4.57,4.57,0,0,1-1.39.2h-1.05a.55.55,0,0,1-.28-.07.51.51,0,0,1-.28.07h-.06c-.16-.1-.29-.54-.42-1.32,0-.33.09-.49.14-.49l-.07-.35v-.07a9.87,9.87,0,0,0-.07-1.39,9.51,9.51,0,0,0,.07-1.32l.07-.28-.21-.14a1.72,1.72,0,0,0,.21-.63c0-.49-.06-.88-.06-1.18,0-.09,0-.14.07-.14a.63.63,0,0,0-.07-.21l-.13-6.13a2.31,2.31,0,0,0,.07-.48,2.82,2.82,0,0,0-.21-.56,1.19,1.19,0,0,0,.14-.49c-.18-2.26-.27-4.12-.27-5.57v-.07l.07-.42a2.54,2.54,0,0,1-.14-.9,13.66,13.66,0,0,0,1.67-2.85l.35-.07h.7C158.79,47.83,159,47.78,159.49,47.69Zm-2,3.62a15.49,15.49,0,0,1-1,1.88,10.71,10.71,0,0,1,.14,1.67h.07a5.5,5.5,0,0,1,1.05-1.46c-.05-.47-.07-.82-.07-1v-1Zm-.14-2.16c-.6,1.41-.9,2.16-.9,2.23v1.11h.07l1.05-1.88V49.15Zm-.7,6.47.07.49v.63l.07.35h.07a7.2,7.2,0,0,1,.9-1.53v-1.4A10.22,10.22,0,0,0,156.7,55.62Zm.13,2.44c0,.86.07,1.49.07,1.88a8.35,8.35,0,0,0,1-1.39c0-.86-.07-1.58-.07-2.16v-.14A5.13,5.13,0,0,0,156.83,58.06Zm1,11a7.4,7.4,0,0,1-1,1.25v1.26c0,.28.1.42.2.42h.21a5.9,5.9,0,0,0,.63-2.86v-.07Zm-1-1.39v2H157a6.69,6.69,0,0,1,1-1.53v-2.3A4.32,4.32,0,0,0,156.89,67.67Zm1-5.08a3.37,3.37,0,0,1-1,1.18l.07.84v1.74H157a12.93,12.93,0,0,0,1.05-1.6,11.18,11.18,0,0,1-.07-1.12v-.9C158,62.63,158,62.59,157.87,62.59Zm-1-1.61v.35A2.33,2.33,0,0,0,157,62a3.44,3.44,0,0,0-.07.69v.49c.74-.8,1.11-1.35,1.11-1.67V60.15l-.07-.7Q156.9,60.53,156.9,61Zm1.31,10.38s0-.07-.07-.07a3.76,3.76,0,0,0-.56,1h.07c1,0,1.74-.06,2.23-.06l.21-1A10.75,10.75,0,0,1,158.21,71.36Zm.17-22.49c.09.87.14,1.45.14,1.74s-.07.51-.07.56a2.47,2.47,0,0,1,.06.56,1.12,1.12,0,0,1-.13.41,27.28,27.28,0,0,1,.27,3.49l-.07.41c.23,2.42.34,4.25.34,5.5v.56a.13.13,0,0,1-.14.14l.07.7c0,.79,0,2.09-.08,3.9,0,1.64.07,2.83.07,3.55a.46.46,0,0,0-.07.21l.14-.07h.28s.06,0,.06.07c.66-.12,1-.21,1-.28.05-1.12.12-1.67.21-1.67a.63.63,0,0,1-.07-.21,11.71,11.71,0,0,0-.07-1.18,3.18,3.18,0,0,0,.07-.56l-.07-.14a14.38,14.38,0,0,0,.29-2.23,4.15,4.15,0,0,1-.07-.83v-.14c0-.37.09-.56.28-.56s.94,1.06,1.94,3a31.23,31.23,0,0,1,2.3,4l.27.21h1.53V70a26.7,26.7,0,0,0-3-5,17.71,17.71,0,0,1-1.11-2.37q4.11-2.1,4.11-5.42,0-5.41-1.94-6.83a4.69,4.69,0,0,0-3.48-1.6,7.11,7.11,0,0,0-1.46-.28Zm1.74.91A7.22,7.22,0,0,1,163.67,51a5.38,5.38,0,0,1,1.73,4.18,5.87,5.87,0,0,1-.84,3.48,5.77,5.77,0,0,1-1.39,1.67,6.41,6.41,0,0,1-2.51,1.25h-.14c-.28,0-.41-2.12-.41-6.34a44.7,44.7,0,0,1-.34-5.22Zm.28.83v.28c0,.26.23.42.69.49l.28-.62A3.53,3.53,0,0,0,160.4,50.61Zm.13,1.19c.14.68.32,2.19.55,4.52a.46.46,0,0,1-.07.21c.05.35.1,1.67.14,4a9.86,9.86,0,0,0,2.93-2.78c-.33-2.5-.7-3.76-1.11-3.76a11.18,11.18,0,0,0-2-2A.74.74,0,0,0,160.53,51.8Zm.61,12.46v.14c0,1.14-.07,1.77-.07,1.88l.21.14h.07c.32-.61.49-.94.49-1A4,4,0,0,0,161.14,64.26Zm.35,2.72a4.39,4.39,0,0,1,.48,1.25h.14a4.61,4.61,0,0,1,.56-1.11v-.07a6.33,6.33,0,0,1-.48-1.12C162.07,65.93,161.84,66.28,161.49,67Zm.37-16a3.05,3.05,0,0,0-.35.76,3.23,3.23,0,0,0,1,.7l.63-.91A2.53,2.53,0,0,0,161.86,51Zm.53,17.89a5.47,5.47,0,0,0,.49,1.11H163a7.26,7.26,0,0,1,.48-1.12,6.75,6.75,0,0,1-.55-1.18A2.35,2.35,0,0,0,162.39,68.86Zm1.14-16.92a6.25,6.25,0,0,0-.7.91,10.25,10.25,0,0,0,.76.83,7.58,7.58,0,0,1,.56-.9A2.32,2.32,0,0,0,163.53,51.94Zm.18,17.48-.49,1.18a5.61,5.61,0,0,1,.63,1.19c.14,0,.3-.54.49-1.61A4.54,4.54,0,0,1,163.71,69.42Zm.23-15.25a5.85,5.85,0,0,1,.28,1h.07a6.73,6.73,0,0,0,.35-1,6.08,6.08,0,0,1-.14-.69C164.44,53.48,164.26,53.71,163.94,54.17Zm.81,16.64-.41,1.12h.07a.5.5,0,0,1,.27-.07h1.81c.09,0,.22-.35.42-1Zm-.39-15.25a9.23,9.23,0,0,0,.14,1h.07a4.91,4.91,0,0,0,.14-1.12h-.07A.55.55,0,0,1,164.36,55.56Z" transform="translate(0 -4.58)" fill="#444242"/><path d="M168.05,68.88h.19V69h-.19Zm4.29-21.23a10.94,10.94,0,0,1,2.24,2.79q2.1,3.9,2.33,4.13a29,29,0,0,1,1.74-3.6c1.17-2.06,2-3.1,2.43-3.1h.1l1.84,3.3q0,.59-3.4,6.29A6.65,6.65,0,0,1,178.35,59l-.2,5.57.19,3.52a12.33,12.33,0,0,1-1.18,4.21c0,.35-.41.52-1.25.52,0,.07-.35.11-1,.1a2.13,2.13,0,0,1-1.36-.31l.1-1c0-.6,0-1.36-.1-2.26,0-.09,0-.44.11-1a20.28,20.28,0,0,1-.1-2.27l-.19-.1.08-.51c0-.35,0-.86-.08-1.55q.09-1.38.09-2.07T171.18,57a27.42,27.42,0,0,0-2.24-3.91,5.65,5.65,0,0,0-.09-.82c.28,0,.7-.9,1.26-2.68a6.12,6.12,0,0,1,2-2Zm-2.72,5.15a2.81,2.81,0,0,1,.67,1.14h.11a2.81,2.81,0,0,0,.78-1.45q-.17,0-.69-1.23A4.38,4.38,0,0,0,169.62,52.8Zm1.07,1.76a4.77,4.77,0,0,1,.58,1.13h.19a3.87,3.87,0,0,1,.59-1.23,4,4,0,0,0-.48-1.24Zm.2-4q3.81,6.09,5,8.66v.1c0,1.3,0,2.71-.11,4.23.07,1.09.1,1.75.1,2-.07.89-.11,1.61-.11,2.16,0,1.17.2,1.76.59,1.76h1c0-.35,0-.87-.11-1.55.13-1.78.27-4.76.4-9l-.09-.21q1.47-2.49,4.08-6.49a1.73,1.73,0,0,1,.3-.63,8.31,8.31,0,0,0-1.08-2.36,5.22,5.22,0,0,1-.87,1.44,18.25,18.25,0,0,1-2.14,3.91c-.38.83-.79,1.24-1.26,1.24h-.1l-1-1.87c-.05,0-1.14-1.72-3.3-5.15h-.19A5.75,5.75,0,0,0,170.89,50.54Zm1.44,4.34-.68,1.42a8.31,8.31,0,0,1,.78,1.55h.19a4.07,4.07,0,0,1,.68-1.13A3.92,3.92,0,0,0,172.33,54.88Zm1.27,2.26a3.47,3.47,0,0,1-.79,1.24c.13.61.29.92.49.92a11.55,11.55,0,0,0,1-1.44Zm1,1.45-1,1.34a1.23,1.23,0,0,0,.49.92l.77-1.34V58.9C174.85,58.8,174.76,58.69,174.57,58.59Zm.38,1.55a9.32,9.32,0,0,1-1,2.26v1.13c.78-.73,1.17-1.17,1.17-1.34v-2Zm-.87,4.21.08,1V66a2.46,2.46,0,0,0,.89-.81V63.43Zm.08,5.36v1.34l.89-1.34a5.33,5.33,0,0,1-.1-1A5.45,5.45,0,0,0,174.16,69.71Zm.68-3.6c0,.14-.23.44-.68.92v1.55c.31-.41.57-.61.78-.61V66.11Zm.48,4.44a5.07,5.07,0,0,1-1,1.65v.09l.68-.09h1.36a6.41,6.41,0,0,0,1-1.65l-.49.1h-1.08Z" transform="translate(0 -4.58)" fill="#444242"/><circle cx="89.7" cy="55.72" r="1.47" fill="#727176"/><circle cx="189.05" cy="55.85" r="1.47" fill="#727176"/></g></g></svg>