<svg xmlns="http://www.w3.org/2000/svg" viewBox="0 0 242.47 429.75"><g style="isolation:isolate"><g id="Layer_2" data-name="Layer 2"><g id="OBJECTS"><path d="M98.46,26.47a10.5,10.5,0,0,1-.33,2.35c-.28,1-.59,2-.92,2.92a27.28,27.28,0,0,1-1.93,5.51A1.86,1.86,0,0,1,94,38.33a2.74,2.74,0,0,1-2.1-.36c-.13-.08-1.29-.6-1.26-.87l.3.25a2.76,2.76,0,0,1-.4-.49l0,.14c-.08.14-.71-1-.75-1.17a5.72,5.72,0,0,1-.28-1.6c0-.9,0-1.8,0-2.69a15.57,15.57,0,0,1,.37-2.85A7.81,7.81,0,0,1,90.32,27s0,.38,0,.41L90.5,26l-.07.13.3-2.71a24.71,24.71,0,0,0-2.21,4.65,14.13,14.13,0,0,1-1,2.24c-.16.24-.26.15-.37.41a4,4,0,0,0-.17.72c-.41,1.55-1.08,3-1.53,4.53l-.31,1.29a1.6,1.6,0,0,1-.07.51,1.15,1.15,0,0,1-1.68.29A1.85,1.85,0,0,1,82.68,37a18.38,18.38,0,0,1-.85-4.77,68.84,68.84,0,0,1-.34-10.36,58.73,58.73,0,0,1,1.4-9s0-.82.09-1c0,.05,0,.73,0,.73l.19-.92a.13.13,0,0,1-.08,0,5.6,5.6,0,0,1,.5-2.4c.26-.93.55-1.84.89-2.76a18.08,18.08,0,0,1,2.1-4.77A3.86,3.86,0,0,1,88.68.07,1.8,1.8,0,0,1,90,.21c.18.1,1.11,1,1,1.19a3.82,3.82,0,0,0-.36-.46,4.4,4.4,0,0,1,.71,1.67c0-.08,0-.12,0-.13a23.29,23.29,0,0,1,.34,3.65,27,27,0,0,1-.33,3.92,35.33,35.33,0,0,1-2.3,8.35c-.24.48-.61.88-.83,1.28s-.34,1-.56,1.55a34.42,34.42,0,0,1-2,3.74,3.49,3.49,0,0,0-.6,1.93c0,.8,0,1.59-.07,2.35,0,1.51-.07,3,0,4.54.33-1.07.7-2.11,1.11-3.17-.3.65-.5,1.12-.5,1.12s2.74-6.6,3-7.21c.72-1.41,1.93-4.34,4-2.92,1.18.82.89,2.29.67,3.48a46,46,0,0,0-.8,6.79s0-.61.17-.57.11,1.95.13,2.28.12,1.43.44,1.52c.54.18,1.07-1,1.3-1.35.9-1.57,1.65-3.25,2.41-4.89a19.46,19.46,0,0,1,.86-1.94c.07-.13.22-.54.39-.6S98.66,26.38,98.46,26.47Zm-13.82-3c0,.19,0,.78.1.76-.11,0,.22-4,.26-4.42.06-.81.3-1.55.32-2.38a16.91,16.91,0,0,1,.36-2.5c.17-1.1,2.07-10.46,1.75-10.55-.08,0-1.57,7.27-1.68,8.05-.27,1.66-.77,3.3-.88,5a34.93,34.93,0,0,0-.23,5.95Zm0,0a.11.11,0,0,0,0-.07S84.63,23.47,84.64,23.5ZM88.39,4c-.68,2.33-1.13,4.79-1.6,7.17-.42,2.18-.92,4.46-1.2,6.61a1.38,1.38,0,0,1,.17-.46s-.13,2.25-.18,2.48l-.24,3a46.44,46.44,0,0,0,3.88-10.53c-.36,1.35-.76,2.7-1.22,4l-.82,2.34-.44.8.18-.39c.23-.51.42-1,.61-1.52.35-1,.69-2,1-3.06A41.12,41.12,0,0,0,89.92,8a24.4,24.4,0,0,0,.2-3.43c0-.56,0-2.14-.59-2.42s-.93,1.17-1.09,1.67c0,0,0,0,0,.11v0s0,0,0,0v0A0,0,0,0,1,88.39,4ZM86.48,19.9c-.08.13-.11.29-.16.38A1.72,1.72,0,0,1,86.48,19.9Zm2-16h0v0Z" fill="#444242"/><path d="M113.79,26.85a24.92,24.92,0,0,1-1.12,3.22A26.9,26.9,0,0,1,111,33.42a4.91,4.91,0,0,1-2.3,2.41,2.5,2.5,0,0,1-2.84-1.47c-1.16-2-.89-4.27-.55-6.4a5.56,5.56,0,0,1,0-.57c-.28.59-.68,1.3-.93,1.85-.33.74-.55,1.46-.92,2.17-.16.35-2.56,4.31-3,3.76,0,0,.4-.24.35-.3a1.83,1.83,0,0,1-1.46.43c.12.06.19.08.16.09-.81.23-1.64-1-1.9-1.5a7.15,7.15,0,0,1-.5-3.1,17,17,0,0,1,1.56-6.45,5.19,5.19,0,0,1,.92-1.41,6.92,6.92,0,0,1,.78-.63,2.64,2.64,0,0,1,1.65-1.12c1.75-.25,2.76,1.63,3.31,2.94.69-1.24,2-2.92,3.56-1.52.84.75.48,1.46.2,2.31a16.42,16.42,0,0,0-.89,4.28c0-.12,0-.67.18-.72s-1.1,8.31,1.9,3.25c.9-1.56,1.64-3.16,2.39-4.76.33-.74.65-1.52,1-2.26.17-.32.71-1.09.87-.31S114,26.13,113.79,26.85Zm-9.43-1.29c0-.29-1-2.14-.89-2.31s.5.94.55,1c-.17-.41-.51-1.71-1.15-1.61-1.18.17-1.75,2.47-2,3.35a21.14,21.14,0,0,0-.88,5.3c0-.55,1.13-7.3,1.78-7.36-.48.18-1.56,5.95-1.59,6.46,0,.3-.32,2.23.24,2.33.37.05,1.06-1.18,1.2-1.45.56-.92,1.07-1.87,1.54-2.85l.73-1.46c.11-.27.25-.54.39-.82A.72.72,0,0,0,104.36,25.56Zm.06-.27.06.36C104.57,25.52,104.55,25.42,104.42,25.29Zm1.11,1.58-.14.28c0,.11,0,.63,0,.63Z" fill="#444242"/><path d="M133.05,24.25c-.29,1-1.19,1.29-1.83,1.87a17.08,17.08,0,0,1-1.8,1.37c-.47.33-1,.22-1.33.58,0,0,0,0,0,0a1.62,1.62,0,0,1-.46.43c-.33.22-.47.43-.76.65-.5.36-.86.22-1.22.4h0a19.56,19.56,0,0,0-2.05,2.31c-.57.65-1.19,1.23-1.72,1.84s-1.44,1.69-2.23,1.7-1.66-1.58-1.88-2.27c-.33-1,.14-.65.76-.79.86-.22,1.61-1.3,2.19-1.91.75-.83,1.43-1.74,2.19-2.6a5.06,5.06,0,0,0,.78-.94c0-.11.22-.72.36-.72a.88.88,0,0,1-.1.25l.21-.32c-.11.07.18-.61.22-.65.17-.4.39-.76.6-1.15a9,9,0,0,0,1-2.35c.11-.39.39-1.91-.4-1.76-.29,0-1.94,1.34-2,1.3s.21-.25.18-.29a12.46,12.46,0,0,0-.9,1,.78.78,0,0,1,.22-.15c-.29.26-3.16,4.29-3.41,4.66-.57.79-1,1.65-1.58,2.52a13.36,13.36,0,0,1-.89,1.37,3.21,3.21,0,0,0-.51.36,22.33,22.33,0,0,0-1.07,2c-.47.79-.9,1.66-1.4,2.45a14.83,14.83,0,0,0-.93,2.49c-.21.61-.46,1.15-.64,1.73a.62.62,0,0,1,.18-.29,5.38,5.38,0,0,1-.22,1.37l-.32,1.65c-.25,1.19-.42,2.41-.64,3.6,0,.44,0,1.26-.39,1.62-.79.76-1.8-.5-2.12-1.11-.94-1.72-.09-4.53.2-6.4a15.14,15.14,0,0,1,.89-3.64,10.19,10.19,0,0,0,.5-1s.07-.79.18-.83,0,.08,0,.11a1.22,1.22,0,0,1,.07-.25c-.18.32,0-.54,0-.58.11-.39.25-.75.36-1.11a14.25,14.25,0,0,0,.57-2c.07-.29,1-3.31,1.32-3.24.08,0-.07.25,0,.29.14-.33.25-.65.36-1a.38.38,0,0,1-.15.18s1.32-3.74,1.47-4.14c.28-.72.46-1.44.71-2.2a3.1,3.1,0,0,0,.22-.65c0-.14-.18-.21-.18-.36-.08-.93.49-1.9,1.68-1.58a2,2,0,0,1,1.3,1.18c.33.61.15.86,0,1.4l.11-.18c.14,0-.14,1.52-.36,1.48,0,0,.11-.54.11-.65-.29,1-.61,2-.93,3v0l-.21.61a1.25,1.25,0,0,1-.15.36c-.85,2.53-2.21,6.81-2.35,7.35.28-.57.61-1.15.93-1.69-.32.47-.58.83-.58.83s3.59-5.84,4-6.38c1.29-1.95,2.58-4,4-5.85.65-.79,1.76-2.27,3-2.2,1.94.14,2.41,2.34,2.38,3.78,0-.19.07-.51.14-.47.54.28-.28,2.95-.42,3.38a18.88,18.88,0,0,1-1.65,3.5c.72-.4,1.37-.87,2-1.34a10.49,10.49,0,0,1,2-.69s-.11,0-.11-.07c-.11-.29,1.76-.87,2-.91A1.3,1.3,0,0,1,133.05,24.25ZM110.16,39.78s0,0,0,.07S110.16,39.82,110.16,39.78Zm4-11.78a8.15,8.15,0,0,1-.68,1.91c-.57,1.48-1.29,3-1.75,4.47s-1.15,3.38-1.54,5.15a28.19,28.19,0,0,1,1.22-3.67C112,34.49,112.52,33,113,31.6c.21-.68.43-1.37.68-2.05a5.46,5.46,0,0,0,.54-1.44v0A.13.13,0,0,0,114.16,28Zm1.26,2.34a8.8,8.8,0,0,0,.36-1.19C115.64,29.55,115.53,30,115.42,30.34Zm.54-1.59s0,0,0,0Zm1.68-4.61a.17.17,0,0,0,.07-.14Zm.22-.47-.15.33Zm0,0a.92.92,0,0,1,.1-.29Zm1.76,1.11s0,0,0,.08v0C119.62,24.82,119.66,24.75,119.62,24.78Zm.4-.54.68-1C120.45,23.56,120.23,23.92,120,24.24Zm6.88,3.12c-.11.07-.29.11-.32.21Z" fill="#444242"/><path d="M151.41,27.37c-.43.92-1.37,1.11-2.1,1.58a16.42,16.42,0,0,1-2,1.09c-.51.25-1,.07-1.4.37,0,0,0,0,0,0a2,2,0,0,1-.53.36c-.35.16-.52.36-.84.53-.55.28-.89.08-1.27.21h0a20.38,20.38,0,0,0-2.37,2c-.67.55-1.36,1-2,1.56s-1.68,1.46-2.46,1.34-1.4-1.81-1.52-2.52c-.17-1,.24-.62.87-.67.88-.09,1.79-1,2.45-1.56.87-.71,1.68-1.5,2.56-2.24a5,5,0,0,0,.92-.81c0-.1.32-.68.46-.66a1.22,1.22,0,0,1-.14.24l.26-.29c-.12.05.27-.58.31-.61.23-.37.5-.69.77-1.05A9,9,0,0,0,144.81,24c.17-.38.68-1.83-.13-1.8-.29,0-2.12,1-2.18,1s.25-.22.22-.26a12.17,12.17,0,0,0-1,.83.64.64,0,0,1,.24-.11c-.32.21-3.77,3.77-4.07,4.09-.69.69-1.28,1.48-1.94,2.25a10.55,10.55,0,0,1-1.09,1.22c-.2.12-.43.16-.55.29a18.16,18.16,0,0,0-1.37,1.83c-.58.71-1.14,1.5-1.75,2.21a14.17,14.17,0,0,0-1.29,2.32c-.31.57-.64,1.07-.9,1.61a.8.8,0,0,1,.22-.26,5.16,5.16,0,0,1-.42,1.33l-.56,1.58c-.43,1.14-.79,2.33-1.17,3.47-.1.42-.23,1.24-.64,1.54-.89.63-1.7-.76-1.93-1.42-.67-1.84.6-4.49,1.16-6.3A15.59,15.59,0,0,1,127.05,36a9.49,9.49,0,0,0,.65-1s.19-.77.3-.79,0,.07,0,.11a1,1,0,0,1,.11-.24c-.23.29.08-.53.08-.57.17-.37.37-.71.53-1a13.5,13.5,0,0,0,.86-1.91c.12-.27,1.45-3.13,1.8-3,.07,0-.11.23-.08.28a10.26,10.26,0,0,0,.5-.91.31.31,0,0,1-.17.15l2.07-3.87c.4-.67.68-1.36,1-2.07a3.17,3.17,0,0,0,.31-.61c0-.14-.15-.24-.12-.38.06-.93.78-1.81,1.9-1.31A2,2,0,0,1,138,20.19c.23.66,0,.88-.17,1.4l.13-.17c.14,0-.37,1.48-.57,1.41a5.27,5.27,0,0,1,.2-.62c-.44.95-.9,1.86-1.36,2.78v0l-.3.57a1.32,1.32,0,0,1-.2.34c-1.23,2.36-3.21,6.4-3.43,6.91.37-.53.77-1.05,1.17-1.54l-.69.74s4.42-5.24,4.86-5.72c1.57-1.73,3.15-3.53,4.88-5.16.76-.69,2.08-2,3.25-1.74,1.9.43,2,2.67,1.79,4.09.06-.17.14-.49.21-.44.49.37-.72,2.88-.93,3.28a19.14,19.14,0,0,1-2.15,3.21,23.28,23.28,0,0,0,2.22-1,11.49,11.49,0,0,1,2.1-.38s-.1-.05-.1-.09c-.06-.3,1.87-.59,2.09-.59A1.59,1.59,0,0,1,151.41,27.37Zm-25,11.92s0,0,0,.06S126.44,39.32,126.44,39.29Zm5.73-11a7.84,7.84,0,0,1-1,1.79c-.79,1.37-1.72,2.73-2.4,4.15s-1.64,3.18-2.3,4.86a29.38,29.38,0,0,1,1.76-3.45c.77-1.26,1.52-2.61,2.19-4,.32-.65.63-1.29,1-1.93a5.73,5.73,0,0,0,.75-1.34v0A.1.1,0,0,0,132.17,28.24Zm.9,2.5a9.78,9.78,0,0,0,.53-1.12C133.4,30,133.23,30.4,133.07,30.74Zm.77-1.48a0,0,0,0,0,0,0ZM136.19,25a.18.18,0,0,0,.09-.13Zm.28-.43-.19.3Zm0,0a.83.83,0,0,1,.15-.27Zm1.58,1.36s0,0,0,.07v0C138.05,25.92,138.09,25.85,138.05,25.88Zm.48-.47.82-.9C139.05,24.8,138.79,25.12,138.53,25.41Zm6.33,4.11c-.12.06-.3.07-.35.17Z" fill="#444242"/><path d="M167.78,34.56,164.06,36c-1.32.54-2.66,1.12-4,1.74a10.37,10.37,0,0,0-1.83.84,10.43,10.43,0,0,0-1.32,1.89c-2.49,3.65-5,7.53-8.28,10.52-1,.89-1.92,1.9-3.44,1.82a4.31,4.31,0,0,1-3.71-2.92c-.84-2.21,1.31-3.85,2.86-5A53.86,53.86,0,0,1,149,41.78c1.13-.63,2.32-1.21,3.51-1.79a13.44,13.44,0,0,0,2.92-1.57,25.65,25.65,0,0,0,2.21-3.24c.57-.89,1.17-1.76,1.77-2.63a20.51,20.51,0,0,0-2,1.27l-3,1.59a8.44,8.44,0,0,1-3.18,1.18c-.23,0-1.63.19-1.66.14l.09,0h-.23c.24.08-.49.15-.63.11a1.79,1.79,0,0,1-1-.5,2.68,2.68,0,0,1-.6-2.25c0-.25.84-2.42,1.17-2.28.07,0-.1.2,0,.25a6.85,6.85,0,0,1,.37-.71l-.09,0a29,29,0,0,1,2.28-3.44,16.52,16.52,0,0,1,1.49-1.85c.2-.16.4-.18.56-.36a5,5,0,0,0,.41-.36,1.83,1.83,0,0,1,2.45-.28c.34.25.71.89.47,1.31-.13.19-.32.2-.46.31,0,0,.08,0,.11,0s-.77,1-.86,1,.12-.27.19-.4a44.4,44.4,0,0,0-3.51,4.32,30.94,30.94,0,0,1,2.44-2.87c.09.06-5.31,5.66-3.81,6.67.52.38,2-.39,2.43-.58a29.62,29.62,0,0,0,3.57-1.49.43.43,0,0,1-.28,0s2.25-1.46,2.57-1.67A8,8,0,0,0,161.12,30c.28-.44.45-.77,1.22-.69s2,.87,1.89,1.85a1.61,1.61,0,0,1-.63,1,29.73,29.73,0,0,0-4.29,4.61c2-.87,4-1.74,6.06-2.5.73-.31,1.47-.53,2.2-.84.44-.21,1.83-.95,1.6.18C169.05,34.23,168.33,34.35,167.78,34.56Zm-14,6.09a37.18,37.18,0,0,0-5.22,3.13c-1.62,1.13-3.49,2.33-4.57,4-.43.69-1,3,.51,2.93.8,0,1.62-.86,2.18-1.37a21,21,0,0,0,1.91-2,.4.4,0,0,0,.07-.09s0,0,0,0l0,0L149,47v0C150.71,45,152.26,42.78,153.8,40.65Zm-3.48,7.45.48-.46A9.07,9.07,0,0,0,152.12,46a6.84,6.84,0,0,0-1,1.09A9.94,9.94,0,0,0,150.32,48.1Zm1.31-2-.2.17A.85.85,0,0,0,151.63,46.12Zm2-3a2.64,2.64,0,0,1-.72,1.13,3,3,0,0,0-.53.78l1.07-1.33A1.2,1.2,0,0,0,153.59,43.11Z" fill="#444242"/><circle cx="53.81" cy="326.02" r="3.93" fill="#e552a4"/><path d="M55.9,323.43a3.37,3.37,0,0,1,.24,1.23,3.41,3.41,0,0,1-3.41,3.41,3.35,3.35,0,0,1-2.08-.73,3.4,3.4,0,1,0,5.25-3.91Z" fill="#c4488e"/><circle cx="52.93" cy="323.97" r="1.01" fill="#ff93b0"/><circle cx="192.86" cy="327.36" r="3.93" fill="#e552a4"/><path d="M194.94,324.77a3.33,3.33,0,0,1,.24,1.23,3.41,3.41,0,0,1-3.41,3.41,3.36,3.36,0,0,1-2.08-.74,3.4,3.4,0,1,0,5.25-3.9Z" fill="#c4488e"/><circle cx="191.97" cy="325.31" r="1.01" fill="#ff93b0"/><path d="M229.17,222.89H17.75L59.57,345.38h0c2.66,7.87,30.21,14.05,63.84,14.05s61.18-6.18,63.84-14.05h0Z" fill="#de8069"/><path d="M213.23,222.89,174,337.69h0c-2.66,7.87-30.22,14.05-63.84,14.05-20.41,0-38.56-2.28-50.29-5.83,3.7,7.61,30.75,13.52,63.61,13.52,33.62,0,61.18-6.18,63.84-14.05h0l41.88-122.49Z" fill="#c67063"/><path d="M57.24,338.58c17.72,5.72,40.86,9.18,66.19,9.18s48.47-3.46,66.18-9.18l8.2-24c-18.44,7.46-44.92,12.15-74.38,12.15s-55.93-4.68-74.37-12.15Z" fill="#f9e0b5"/><path d="M179.9,320.33,174,337.69h0c-.85,2.5-4.2,4.82-9.45,6.83a176.74,176.74,0,0,0,25.11-5.94l4.69-13.69,3.51-10.28A136.94,136.94,0,0,1,179.9,320.33Z" fill="#ffbf93"/><circle cx="66.42" cy="331.8" r="3.93" fill="#ffbf93"/><circle cx="65.39" cy="330.57" r="3.93" fill="#e552a4"/><path d="M67.47,328a3.33,3.33,0,0,1,.24,1.23,3.39,3.39,0,0,1-5.49,2.67,3.4,3.4,0,0,0,6.57-1.23A3.37,3.37,0,0,0,67.47,328Z" fill="#c4488e"/><circle cx="64.5" cy="328.52" r="1.01" fill="#ff93b0"/><circle cx="180.5" cy="332.91" r="3.93" fill="#dc9f79"/><circle cx="179.47" cy="331.68" r="3.93" fill="#e552a4"/><path d="M181.56,329.09a3.37,3.37,0,0,1,.24,1.23,3.4,3.4,0,0,1-5.5,2.68,3.41,3.41,0,0,0,6.58-1.24A3.37,3.37,0,0,0,181.56,329.09Z" fill="#c4488e"/><circle cx="178.59" cy="329.63" r="1.01" fill="#ff93b0"/><circle cx="87.03" cy="336.43" r="3.93" fill="#ffbf93"/><circle cx="86.01" cy="335.2" r="3.93" fill="#e552a4"/><path d="M88.09,332.6a3.39,3.39,0,0,1-3.17,4.64,3.37,3.37,0,0,1-2.08-.73,3.4,3.4,0,1,0,5.25-3.91Z" fill="#c4488e"/><circle cx="85.12" cy="333.14" r="1.01" fill="#ff93b0"/><circle cx="157.95" cy="337.17" r="3.93" fill="#ffbf93"/><circle cx="156.92" cy="335.94" r="3.93" fill="#e552a4"/><path d="M159,333.35a3.33,3.33,0,0,1,.24,1.23,3.41,3.41,0,0,1-3.4,3.41,3.35,3.35,0,0,1-2.09-.74,3.4,3.4,0,0,0,6.57-1.23A3.37,3.37,0,0,0,159,333.35Z" fill="#c4488e"/><circle cx="156.03" cy="333.89" r="1.01" fill="#ff93b0"/><circle cx="110.14" cy="338.93" r="3.93" fill="#ffbf93"/><circle cx="109.12" cy="337.7" r="3.93" fill="#e552a4"/><path d="M111.2,335.1a3.39,3.39,0,0,1-3.17,4.64A3.35,3.35,0,0,1,106,339a3.4,3.4,0,1,0,5.25-3.91Z" fill="#c4488e"/><circle cx="108.23" cy="335.64" r="1.01" fill="#ff93b0"/><circle cx="134.43" cy="339.1" r="3.93" fill="#ffbf93"/><circle cx="133.4" cy="337.87" r="3.93" fill="#e552a4"/><path d="M135.49,335.27a3.39,3.39,0,0,1-5.26,3.91,3.4,3.4,0,1,0,5.26-3.91Z" fill="#c4488e"/><circle cx="132.51" cy="335.81" r="1.01" fill="#ff93b0"/><path d="M75.93,312.65c-1.5,3.38-3.1,4.73-4.74,4.62,2.8,3,5.56,3,8.07-2.6,8-17.91,8.19-36.5,18.51-32C84.09,272.54,84.68,293,75.93,312.65Z" fill="#c67063"/><path d="M123.46,279.23c-7.5-1.94-10.78,11.17-21.53,6.08,13.45,9.75,16.62-6.11,24.8-4.07A7.46,7.46,0,0,0,123.46,279.23Z" fill="#c67063"/><path d="M50.39,277.33a11.92,11.92,0,0,0-1.23-1.92c-5.68-7,1.52,23.57-4.57,26.1L45.1,303a3.59,3.59,0,0,0,1.73.7C53.26,304.23,49.13,282.15,50.39,277.33Z" fill="#c67063"/><path d="M159.4,272.25c-5.66-2.83-7.49,15.8-16.46,23.11a5.31,5.31,0,0,1-3.92,1.49c2,2.21,4.22,3,7.24.53,8.18-6.67,10.43-22.71,15-23.37A5.66,5.66,0,0,0,159.4,272.25Z" fill="#c67063"/><path d="M198,263.6c-4.49-4.48-13,28.6-22.11,30.43a5.31,5.31,0,0,1-2.1,0,5.65,5.65,0,0,0,5.43,2c7.91-1.58,15.33-26.57,20.09-30.35A6.55,6.55,0,0,0,198,263.6Z" fill="#c67063"/><path d="M36.46,277.7l8.75,25.62c18.34,8.5,46.56,13.95,78.22,13.95s59.91-5.45,78.25-14l8.76-25.64c-17.22,11.21-49.73,18.78-87,18.78S53.69,288.89,36.46,277.7Z" fill="#adeaec"/><path d="M201.68,303.3l8.76-25.64a86.68,86.68,0,0,1-19,8.87l-8,23.32A119.61,119.61,0,0,0,201.68,303.3Z" fill="#62c7f0"/><path d="M50.68,284.8l-8.79,8.79,3.32,9.73c1.78.82,3.66,1.62,5.62,2.39l15.82-15.82A137.93,137.93,0,0,1,50.68,284.8Z" fill="#6edbdb"/><path d="M81,313.79l18.42-18.43c-6.47-.59-12.7-1.41-18.61-2.45L63.79,310C69.15,311.44,74.92,312.72,81,313.79Z" fill="#6edbdb"/><path d="M115.92,317.17,137,296.1q-6.66.33-13.56.34c-2.6,0-5.18-.05-7.73-.12L96.15,315.88C102.5,316.54,109.11,317,115.92,317.17Z" fill="#6edbdb"/><path d="M156.11,315.25l25.81-25.82a196.16,196.16,0,0,1-26.06,5L133.2,317.1C141.15,316.81,148.82,316.18,156.11,315.25Z" fill="#6edbdb"/><path d="M201.68,303.3l8.52-24.93L177.07,311.5A129.81,129.81,0,0,0,201.68,303.3Z" fill="#6edbdb"/><path d="M186,302.6l-2.48,7.25.11,0,1.2-.35,1.74-.51,1.26-.39,1.7-.54,1.1-.36c.88-.3,1.74-.59,2.59-.9l.7-.26,2-.74.9-.35,1.75-.72.78-.33c.82-.35,1.62-.7,2.4-1.07l8.52-24.93Z" fill="#06b6ee"/><path d="M79.74,313.56c3-7,4.88-14.09,6.69-19.75-1.28-.19-2.53-.38-3.78-.59-1.77,5.7-3.68,12.61-6.72,19.43l-.08.17C77.13,313.07,78.42,313.32,79.74,313.56Z" fill="#62c7f0"/><path d="M142.41,295.76a4.87,4.87,0,0,1-3.39,1.09c2,2.21,4.22,3,7.24.53a17.35,17.35,0,0,0,2.17-2.12C146.44,295.45,144.44,295.62,142.41,295.76Z" fill="#62c7f0"/><path d="M44.59,301.51,45.1,303a3.59,3.59,0,0,0,1.73.7c4.62.38,3.79-10.89,3.42-19.07q-1.7-.67-3.3-1.38C47.29,290.63,47.88,300.15,44.59,301.51Z" fill="#62c7f0"/><path d="M181.34,289.59c-1.78,2.38-3.62,4.07-5.48,4.44a5.31,5.31,0,0,1-2.1,0,5.65,5.65,0,0,0,5.43,2c2.71-.54,5.37-3.84,7.88-8.09Q184.28,288.81,181.34,289.59Z" fill="#62c7f0"/><path d="M123.43,195.72c-60.76,0-110,11.76-110,26.26a7,7,0,0,0,.57,2.69s4.74,10.17,5.07,13.66.84,15.3,4.83,20.95S35.53,301,43.51,301.68s-.34-33.59,5.65-26.27,18,57,26.77,37.24,8.15-40.4,22.11-29.76,17.09-5.82,25.42-3.66,10.5,23.45,19.48,16.13,10.8-25.94,16.46-23.11,7.31,23.61,16.46,21.78S193.48,259.12,198,263.6s1.84,23,10.56,19.65,25.11-54,24.9-61.27C233.43,207.48,184.18,195.72,123.43,195.72Z" fill="#ffbf93"/><path d="M123.43,195.72q-4.09,0-8.11.07c57,1,101.9,12.34,101.9,26.19.16,5.26-8.39,33.26-16.43,49.59,1.18,6.53,2,13.9,7.74,11.68,8.73-3.35,25.11-54,24.9-61.27C233.43,207.48,184.18,195.72,123.43,195.72Z" fill="#fab680"/><ellipse cx="125.12" cy="227.72" rx="104.14" ry="26.12" fill="#fab680"/><ellipse cx="123.52" cy="224.51" rx="105.75" ry="26.12" fill="#ffbf93"/><ellipse cx="123.43" cy="221.94" rx="105.75" ry="25.25" fill="#f9e0b5"/><ellipse cx="123.43" cy="218.57" rx="73.36" ry="17.51" fill="#ffbf93"/><path d="M207.12,274.86c-4.44,2,.33-7.54-4.07-8.14s-.48-8.38-6.79-8.05-13.38,19-13.38,19c-3.07,6.36-5.47,5.73-7.34,2.74s-4.12-1.33-6.89-1.36-7.09-8.84-10.7-10.17-10.47,7.54-13,10.17-8.76,4-15.46-2.52-9.92-1.55-21.24,1.88-16.39-3.54-21.2-4-6.5,15.88-9.83,14.67-3.65,8.09-7.42,15.18S58.69,282.73,57.22,279s-3.85-18.37-8.16-16.38-2.23,5.54-5.78,6.76.34,16.74-3,20.95c-2.29,2.91-8.93-12.47-12.81-22.28,4.21,12.55,10,33.09,16,33.59,8,.67-.34-33.59,5.65-26.27s18,57,26.77,37.24,8.15-40.4,22.11-29.76,17.09-5.82,25.42-3.66,10.5,23.45,19.48,16.13,10.8-25.94,16.46-23.11,7.31,23.61,16.46,21.78S193.48,259.12,198,263.6s1.84,23,10.56,19.65c3.56-1.37,8.39-10.59,12.84-21.52C215.65,269.86,210.45,273.36,207.12,274.86Z" fill="#fab680"/><path d="M24.53,260.4v0h0Z" fill="#fab680"/><path d="M167.57,281.1s4.6,12.55,9.09,9.2,8.2-12.66,7.73-12.64-5.15,10.53-6.82,8.43c-.65-.82-1.6,2.33-2.85,1.66S172.92,286.48,167.57,281.1Z" fill="#f9e0b5"/><path d="M203.67,268.88s1,11.24,4,8.95,1.58-5.08,4.9-5.45S220.75,256,220.75,256s-6.11,13.7-8.19,13.14-4.13,7.38-6.07,5.22A13.49,13.49,0,0,1,203.67,268.88Z" fill="#f9e0b5"/><path d="M134,283.65s3.77,12.07,7.31,7.51,4.33-8.21,6.54-10.32c0,0-5.43,2.39-7.87,7.13S136.84,285.36,134,283.65Z" fill="#f9e0b5"/><path d="M94.34,277.66s9.63,7.17,14.68,5.12,9.64-6.71,12.47-6.65a19.11,19.11,0,0,0-11.09,4.21C104.86,284.67,94.34,277.66,94.34,277.66Z" fill="#f9e0b5"/><path d="M59.13,285.07s6.28,25.65,11.7,22.84c4.48-2.33,3.83-17.34,5.91-17.49s4-2.37,5-9c0,0-2.12,6.47-4.94,6.95s-4.66,6-7,12.49S59.13,285.07,59.13,285.07Z" fill="#f9e0b5"/><path d="M34.9,284.8s5.78,13.56,6.53,10-.58-21.12,1.66-21.53,3.45-8.4,3.45-8.4-2.7,6.32-5.86,6.15.66,18.3-1.08,17.51S40.93,294,34.9,284.8Z" fill="#f9e0b5"/><path d="M194.27,211.9s7.16,5.74,28.07,1.09c0,0,1.37-3.29-7.92-3.92S194.27,211.9,194.27,211.9Z" fill="#fab680"/><path d="M216,211.9a38.23,38.23,0,0,1-21.72,0c-3.12-.93-4.66-3.85-3.58-6h0a5.13,5.13,0,0,1,6-2.31,29.54,29.54,0,0,0,16.82,0,5.14,5.14,0,0,1,6,2.31h0C220.65,208.05,219.11,211,216,211.9Z" fill="#6edbdb"/><path d="M217.56,210.44a45.63,45.63,0,0,1-23.77,0,6.45,6.45,0,0,1-3.28-2,5.42,5.42,0,0,0,3.76,3.46,38.23,38.23,0,0,0,21.72,0,5.86,5.86,0,0,0,3-2A7.2,7.2,0,0,1,217.56,210.44Z" fill="#62c7f0"/><path d="M217.25,203.83a5.74,5.74,0,0,0-3.71-.21,29.54,29.54,0,0,1-16.82,0,5.67,5.67,0,0,0-3.73.22,5,5,0,0,0,2.94,2.5,29.52,29.52,0,0,0,18.4,0A4.91,4.91,0,0,0,217.25,203.83Z" fill="#06b6ee"/><path d="M217.36,200h0a4.17,4.17,0,0,0-5.11-2.15c-12.1,1.74-13.3-4.22-13.3-4.22-5.94,4.11-6.35,7.26-6.35,7.26h0a4.58,4.58,0,0,0,3.33,4.66,29.52,29.52,0,0,0,18.4,0C217,204.65,218.27,201.93,217.36,200Z" fill="#6edbdb"/><path d="M215.57,204.38a34.61,34.61,0,0,1-19.91,0,5.3,5.3,0,0,1-3-2.16,4.81,4.81,0,0,0,3.23,3.29,29.52,29.52,0,0,0,18.4,0,5,5,0,0,0,2.35-1.6A5.53,5.53,0,0,1,215.57,204.38Z" fill="#62c7f0"/><path d="M195.86,208.44s3.83,5.5,18.83,2.67c0,0,2.26-.5,2.56-2.1s-1.83-2.33-3.47-1.54-6.59,2.28-15,.34C198.81,207.81,194.89,207,195.86,208.44Z" fill="#adeaec"/><path d="M195.71,199s-6.81,7.76,17.83,4.23c0,0,4.11-.62-1.28-1C208.2,201.91,198.94,202.27,195.71,199Z" fill="#adeaec"/><path d="M198.84,194.51a10.29,10.29,0,0,0,8.64,4.48S193.78,202,198.84,194.51Z" fill="#62c7f0"/><path d="M34.85,211.53s7,5.29,25.68,1.25,4.26-4.37-.65-5.41S33.86,209.51,34.85,211.53Z" fill="#fab680"/><path d="M57.51,211.9a38.23,38.23,0,0,1-21.72,0c-3.12-.93-4.65-3.85-3.58-6h0a5.14,5.14,0,0,1,6-2.31,29.54,29.54,0,0,0,16.82,0,5.15,5.15,0,0,1,6,2.31h0C62.17,208.05,60.64,211,57.51,211.9Z" fill="#6edbdb"/><path d="M59.09,210.44a45.67,45.67,0,0,1-23.78,0,6.49,6.49,0,0,1-3.28-2,5.44,5.44,0,0,0,3.76,3.46,38.23,38.23,0,0,0,21.72,0,5.85,5.85,0,0,0,3-2A7.7,7.7,0,0,1,59.09,210.44Z" fill="#62c7f0"/><path d="M58.77,203.83a5.74,5.74,0,0,0-3.71-.21,29.54,29.54,0,0,1-16.82,0,5.64,5.64,0,0,0-3.72.22,5,5,0,0,0,2.93,2.5,29.52,29.52,0,0,0,18.4,0A4.85,4.85,0,0,0,58.77,203.83Z" fill="#06b6ee"/><path d="M58.89,200h0a4.17,4.17,0,0,0-5.11-2.15c-12.1,1.74-13.3-4.22-13.3-4.22-5.95,4.11-6.35,7.26-6.35,7.26h0a4.56,4.56,0,0,0,3.32,4.66,29.52,29.52,0,0,0,18.4,0C58.5,204.65,59.8,201.93,58.89,200Z" fill="#6edbdb"/><path d="M57.09,204.38a34.61,34.61,0,0,1-19.91,0,5.34,5.34,0,0,1-3-2.16,4.85,4.85,0,0,0,3.23,3.29,29.52,29.52,0,0,0,18.4,0,4.94,4.94,0,0,0,2.35-1.6A5.53,5.53,0,0,1,57.09,204.38Z" fill="#62c7f0"/><path d="M37.39,208.44s3.82,5.5,18.82,2.67c0,0,2.27-.5,2.56-2.1s-1.83-2.33-3.47-1.54-6.59,2.28-15,.34C40.33,207.81,36.41,207,37.39,208.44Z" fill="#adeaec"/><path d="M37.23,199s-6.81,7.76,17.83,4.23c0,0,4.12-.62-1.28-1C49.72,201.91,40.46,202.27,37.23,199Z" fill="#adeaec"/><path d="M40.36,194.51A10.32,10.32,0,0,0,49,199S35.3,202,40.36,194.51Z" fill="#62c7f0"/><path d="M33.67,145.74l21.1,70c3.87,10.61,30.71,17.92,68.6,17.92S189,225.31,192,215.79l21.21-70.48Z" fill="#a16257"/><path d="M200.57,145.34l-19,63c-2.95,9.51-30.72,17.91-68.61,17.91-25,0-45.13-3.17-57.09-8.37,6.49,9.44,32.19,15.78,67.47,15.78,37.89,0,65.66-8.4,68.61-17.92l21.21-70.48Z" fill="#80544f"/><path d="M52.79,208.92c16.47,7.15,42,11.73,70.67,11.73s54.2-4.58,70.67-11.72l6.08-20.2c-15.81,8.82-44.26,14.72-76.75,14.72s-60.95-5.9-76.76-14.73Z" fill="#de8069"/><path d="M194,209l6.08-20.18a84.73,84.73,0,0,1-14.45,6.11l-4.06,13.49c-.72,2.32-2.92,4.57-6.38,6.65A117.3,117.3,0,0,0,194,209Z" fill="#c67063"/><path d="M142.19,180.85c-10.58,7.3,8.48,33.58-15.3,37.41-5,.81-8.73,0-11.47-1.82,2.86,3.86,7.34,6.14,14.74,4.95,23.78-3.83,4.71-30.11,15.3-37.41,4.83-3.34,8-4.07,10.19-3.48C154.2,177.14,150.7,175,142.19,180.85Z" fill="#80544f"/><path d="M62,186.3a2.12,2.12,0,0,1,1.91-1.06c-1.86-2.81-3.46-4.28-5.18-2.07-4.55,5.87-7.54,6.83-11.61,7.19l1,3.19a2.15,2.15,0,0,0,.62.07C53.68,193.3,56.84,193,62,186.3Z" fill="#80544f"/><path d="M81.17,200.1a8.88,8.88,0,0,1-7.4-1.61c2.78,3.35,6.2,5.75,10.67,4.74,11.84-2.67,14.77-17.8,20-16.6A6.18,6.18,0,0,0,103,184.5C96.47,178.85,94.31,197.14,81.17,200.1Z" fill="#80544f"/><path d="M180.77,190.82c-2.33,14-12.47,21.62-21.29,19.29a10.54,10.54,0,0,1-1.2-.4c.56,1.66,1.86,2.84,4.47,3.53,8.81,2.33,19-5.32,21.28-19.29,1-6.18,2.62-9.07,4.05-10C188.21,179.64,183.09,176.91,180.77,190.82Z" fill="#80544f"/><path d="M126.89,218.26c-5,.81-8.73,0-11.47-1.82a12.42,12.42,0,0,0,5.23,4.18c.94,0,1.87,0,2.81,0,3.59,0,7.13-.07,10.6-.21,8.74-3,9.19-10.27,8.61-17.7-1,.08-2.06.15-3.1.21C139.67,210.1,137.73,216.51,126.89,218.26Z" fill="#c67063"/><path d="M49.27,190.07c-.67.13-1.35.22-2.08.29l1,3.22a2.37,2.37,0,0,0,.53,0,18.8,18.8,0,0,0,6.09-1.08Q51.86,191.36,49.27,190.07Z" fill="#c67063"/><path d="M81.76,199.94c-.2.06-.39.12-.59.16a8.88,8.88,0,0,1-7.4-1.61c2.78,3.35,6.2,5.75,10.67,4.74a15.52,15.52,0,0,0,5-2.07Q85.49,200.62,81.76,199.94Z" fill="#c67063"/><path d="M179.16,196.83c-3.83,10.08-12.23,15.25-19.68,13.28a10.54,10.54,0,0,1-1.2-.4c.56,1.66,1.86,2.84,4.47,3.53,8.48,2.24,18.18-4.76,21-17.73C182.25,196,180.73,196.41,179.16,196.83Z" fill="#c67063"/><path d="M216.07,144c0-13.35-41.46-24.18-92.61-24.18S30.85,130.61,30.85,144a6.62,6.62,0,0,0,.29,1.92c1.37,8.82,7.42,45.05,14.28,44.61,5-.32,8.15-.67,13.3-7.32S68,203.07,81.17,200.1s15.3-21.25,21.78-15.6.17,37.58,23.94,33.76,4.72-30.11,15.3-37.41c14.47-10,14.47,3.24,14.47,6.15,0,12.86-6,20.78,2.82,23.11s19-5.32,21.29-19.29,7.48-11.15,7.31-6.82-2.43,28.59,7.33,20.69,6.64-21.52,12.79-33c5-9.34,7.08-21.85,7.67-26.18A6.3,6.3,0,0,0,216.07,144Z" fill="#ff7d9e"/><ellipse cx="125.77" cy="149.94" rx="88.85" ry="22.3" fill="#e552a4"/><path d="M123.46,119.78c-2.21,0-4.41,0-6.59.06,48.07.89,86,11.35,86,24.12a6.8,6.8,0,0,1-.19,1.56c-.6,4.33-2.67,16.84-7.67,26.18-4.47,8.33-4,17.74-7.17,25.33.42,6.52,2.13,12,7.55,7.66,9.88-8,6.64-21.52,12.79-33,5-9.34,7.08-21.85,7.67-26.18a6.3,6.3,0,0,0,.2-1.56C216.07,130.61,174.61,119.78,123.46,119.78Z" fill="#e852a6"/><ellipse cx="123.28" cy="145.34" rx="91.14" ry="23.73" fill="#ff7d9e"/><ellipse cx="123.46" cy="143.96" rx="89.96" ry="23.49" fill="#ffa2be"/><path d="M193.64,197.06c-2.73-2.54,2.06-8.33-1.49-8.27s-1.55-8.71-4.07-14.25-8.34.44-12.08,4.88,3.18,10.49-.78,17.64c-8.12,14.64-7,1.87-13,7s-1.6-16.67-1.55-21.17-6.87-7.87-12.86-9.42-16.83,4.43-14.61,10c4.08,10.19,2.2,22.37-3.12,19.31s-3.55,6.38-9.54,8.95-10-7.89-8.2-18.07-4.43-12.21-10.41-15.09-9.54,5.32-15.5,11.54-9.34.21-12.66,1.78-8.21-11.55-11-14.67-9,3.57-16.23,6.25c-2.94,1.08-5.61-.54-7.74-2.86,2,5.9,4.27,10.07,6.62,9.92,5-.32,8.15-.67,13.3-7.32S68,203.07,81.17,200.1s15.3-21.25,21.78-15.6.17,37.58,23.94,33.76,4.72-30.11,15.3-37.41c14.47-10,14.47,3.24,14.47,6.15,0,12.86-6,20.78,2.82,23.11s19-5.32,21.29-19.29,7.48-11.15,7.31-6.82-2.43,28.59,7.33,20.69a19.73,19.73,0,0,0,6.28-9.41C198.69,197.23,195.08,198.4,193.64,197.06Z" fill="#e852a6"/><path d="M40.44,182.1s2.9,6.35,4.67,5,4.1-5.81,7.21-4.71,8.92-6,8.92-6-4.12-.51-10.4,4.31S40.44,182.1,40.44,182.1Z" fill="#ffb6cc"/><path d="M67.5,185.26s5.71,11.24,9.7,10.46,1.23,3.95,4.39,1S93.7,181.4,93.7,181.4s-7.41,8.49-14.28,7.59S79.2,197.09,67.5,185.26Z" fill="#ffb6cc"/><path d="M159.2,196.77c-.38,5.49,0,9.85,3,7.25,6-5.09,4.88,7.67,13-7a10.05,10.05,0,0,0,1.27-4.67s-3.52,11.52-8,9.52-3.32-3.54-6.54-1.54C159,202.23,159.17,197.42,159.2,196.77Z" fill="#ffb6cc"/><path d="M120.54,211.69c6-2.57,4.22-12,9.54-8.95,4.57,2.63,6.6-6,4.5-14.93,0,5.49-.68,12.55-4.43,11.16-6-2.2-5.73,1.72-8.5,5.59-2.61,3.63-4.42,6.16-9.67-4.13C112.48,207.87,115.92,213.68,120.54,211.69Z" fill="#ffb6cc"/><path d="M190,192.58s3.17,12.06,6.15,7.51,3.64-8.22,5.5-10.33a16.23,16.23,0,0,0-6.62,7.13C193,201.63,192.46,194.28,190,192.58Z" fill="#ffb6cc"/><path d="M109.86,240.72s8.61,6.46,31.32,1.52,5.19-5.32-.79-6.59S108.66,238.26,109.86,240.72Z" fill="#fab680"/><path d="M137.5,241.17a46.61,46.61,0,0,1-26.48,0c-3.81-1.13-5.68-4.69-4.37-7.28h0c1.31-2.6,4.54-3.62,7.36-2.81a35.94,35.94,0,0,0,20.5,0c2.81-.81,6,.21,7.35,2.81h0C143.18,236.48,141.3,240,137.5,241.17Z" fill="#6edbdb"/><path d="M139.42,239.39a55.67,55.67,0,0,1-29,0,7.9,7.9,0,0,1-4-2.44,6.6,6.6,0,0,0,4.59,4.22,46.61,46.61,0,0,0,26.48,0,7.16,7.16,0,0,0,3.68-2.47A8.6,8.6,0,0,1,139.42,239.39Z" fill="#62c7f0"/><path d="M139,231.34a6.92,6.92,0,0,0-4.52-.26,35.94,35.94,0,0,1-20.5,0,6.85,6.85,0,0,0-4.54.27A6,6,0,0,0,113,234.4a36.12,36.12,0,0,0,22.43,0A5.92,5.92,0,0,0,139,231.34Z" fill="#06b6ee"/><path d="M139.17,226.61h0a5.08,5.08,0,0,0-6.23-2.61c-14.75,2.11-16.21-5.15-16.21-5.15-7.25,5-7.74,8.85-7.74,8.85h0a5.55,5.55,0,0,0,4.05,5.68,36,36,0,0,0,22.43,0C138.7,232.34,140.28,229,139.17,226.61Z" fill="#6edbdb"/><path d="M137,232a42.14,42.14,0,0,1-24.27,0,6.52,6.52,0,0,1-3.61-2.62,5.9,5.9,0,0,0,3.94,4,36,36,0,0,0,22.43,0,6,6,0,0,0,2.87-1.95A7.2,7.2,0,0,1,137,232Z" fill="#62c7f0"/><path d="M113,237s4.66,6.71,23,3.26c0,0,2.76-.61,3.12-2.56s-2.23-2.84-4.23-1.88-8,2.79-18.25.41C116.55,236.18,111.78,235.17,113,237Z" fill="#adeaec"/><path d="M112.77,225.43s-8.3,9.46,21.74,5.16c0,0,5-.76-1.56-1.23C128,229,116.71,229.43,112.77,225.43Z" fill="#adeaec"/><path d="M116.59,220a12.56,12.56,0,0,0,10.54,5.45S110.42,229.13,116.59,220Z" fill="#62c7f0"/><path d="M174.62,233.74s8.16,6.12,29.7,1.45,4.93-5.05-.74-6.26S173.48,231.4,174.62,233.74Z" fill="#fab680"/><path d="M200.84,234.16a44.19,44.19,0,0,1-25.12,0c-3.62-1.06-5.39-4.45-4.15-6.9h0a5.93,5.93,0,0,1,7-2.66,34.24,34.24,0,0,0,19.45,0,5.93,5.93,0,0,1,7,2.66h0C206.22,229.71,204.45,233.1,200.84,234.16Z" fill="#6edbdb"/><path d="M202.65,232.48a52.74,52.74,0,0,1-27.49,0,7.48,7.48,0,0,1-3.79-2.31,6.23,6.23,0,0,0,4.35,4,44.19,44.19,0,0,0,25.12,0,6.79,6.79,0,0,0,3.48-2.33A8.66,8.66,0,0,1,202.65,232.48Z" fill="#62c7f0"/><path d="M202.29,224.84a6.5,6.5,0,0,0-4.29-.24,34.24,34.24,0,0,1-19.45,0,6.49,6.49,0,0,0-4.31.25,5.75,5.75,0,0,0,3.4,2.89,34.24,34.24,0,0,0,21.28,0A5.62,5.62,0,0,0,202.29,224.84Z" fill="#06b6ee"/><path d="M202.43,220.36h0a4.84,4.84,0,0,0-5.92-2.49c-14,2-15.38-4.88-15.38-4.88-6.87,4.75-7.34,8.4-7.34,8.4h0a5.28,5.28,0,0,0,3.85,5.39,34.24,34.24,0,0,0,21.28,0C202,225.79,203.48,222.64,202.43,220.36Z" fill="#6edbdb"/><path d="M200.35,225.47a40,40,0,0,1-23,0A6.15,6.15,0,0,1,173.9,223a5.59,5.59,0,0,0,3.74,3.8,34.24,34.24,0,0,0,21.28,0,5.72,5.72,0,0,0,2.71-1.85A7,7,0,0,1,200.35,225.47Z" fill="#62c7f0"/><path d="M177.56,230.17s4.42,6.36,21.77,3.09c0,0,2.62-.59,3-2.44s-2.11-2.69-4-1.77-7.62,2.64-17.32.39C181,229.44,176.43,228.47,177.56,230.17Z" fill="#adeaec"/><path d="M177.38,219.24s-7.88,9,20.62,4.89c0,0,4.76-.72-1.48-1.17C191.82,222.62,181.12,223,177.38,219.24Z" fill="#adeaec"/><path d="M181,214.06a11.92,11.92,0,0,0,10,5.18S175.15,222.74,181,214.06Z" fill="#62c7f0"/><path d="M39.25,233.74s8.16,6.12,29.7,1.45,4.93-5.05-.74-6.26S38.11,231.4,39.25,233.74Z" fill="#fab680"/><path d="M65.47,234.16a44.23,44.23,0,0,1-25.13,0c-3.61-1.06-5.38-4.45-4.14-6.9h0a5.93,5.93,0,0,1,7-2.66,34.24,34.24,0,0,0,19.45,0,5.93,5.93,0,0,1,7,2.66h0C70.85,229.71,69.08,233.1,65.47,234.16Z" fill="#6edbdb"/><path d="M67.28,232.48a52.74,52.74,0,0,1-27.49,0A7.48,7.48,0,0,1,36,230.17a6.24,6.24,0,0,0,4.34,4,44.23,44.23,0,0,0,25.13,0A6.79,6.79,0,0,0,69,231.83,8.66,8.66,0,0,1,67.28,232.48Z" fill="#62c7f0"/><path d="M66.92,224.84a6.5,6.5,0,0,0-4.29-.24,34.24,34.24,0,0,1-19.45,0,6.49,6.49,0,0,0-4.31.25,5.76,5.76,0,0,0,3.39,2.89,34.27,34.27,0,0,0,21.29,0A5.62,5.62,0,0,0,66.92,224.84Z" fill="#06b6ee"/><path d="M67.05,220.36h0a4.82,4.82,0,0,0-5.91-2.49c-14,2-15.38-4.88-15.38-4.88-6.87,4.75-7.34,8.4-7.34,8.4h0a5.28,5.28,0,0,0,3.84,5.39,34.27,34.27,0,0,0,21.29,0C66.6,225.79,68.11,222.64,67.05,220.36Z" fill="#6edbdb"/><path d="M65,225.47a40,40,0,0,1-23,0A6.15,6.15,0,0,1,38.53,223a5.59,5.59,0,0,0,3.73,3.8,34.27,34.27,0,0,0,21.29,0,5.77,5.77,0,0,0,2.71-1.85A7,7,0,0,1,65,225.47Z" fill="#62c7f0"/><path d="M42.19,230.17s4.42,6.36,21.77,3.09c0,0,2.62-.59,3-2.44s-2.11-2.69-4-1.77-7.62,2.64-17.32.39C45.59,229.44,41.06,228.47,42.19,230.17Z" fill="#adeaec"/><path d="M42,219.24s-7.88,9,20.62,4.89c0,0,4.76-.72-1.48-1.17C56.45,222.62,45.75,223,42,219.24Z" fill="#adeaec"/><path d="M45.63,214.06a11.92,11.92,0,0,0,10,5.18S39.78,222.74,45.63,214.06Z" fill="#62c7f0"/><path d="M28.23,248.2s2.44,30.57,9,22.74S45.85,256.89,50,259.67s9.58,24.67,16.56,20.38,10.4-14.71,18.74-12,18.36,8.47,31.43,1.6,12.53,7.51,23.18,3.31S150.79,258,157.7,261.41s12.39,21.11,17.85,15.73,15.52-25.89,21.21-22.29,6.93-3.2,6.93-3.2-12.89-5.82-18.95,0S174.41,258.13,160,257s-26.56-4.73-33.4-2.12-12.72,11.93-25.85,7.94S77,253.24,68.54,254.85s-18.38-4.7-21.44-5S27.56,242.05,28.23,248.2Z" fill="#ffcba9"/><path d="M207.48,143.1c-.67-2.32-19-15.44-27-16.23s-33.89-1.21-41.58-2.36-35.26-.68-43.4-.21-38.79,8.12-38.79,8.12S38.2,145.35,44.59,146.54c0,0,6,4.89,12,5.69s15.36-1.5,15,1.88,3.2,7.21,14.71,7.21,19-3.3,22.69-2.3,7.74,3,12.35,3.6,18.89-4.05,25.85-2.67,23.55-3.78,28.35-3.12,16.47-4.24,22.22-5.51S208.15,145.41,207.48,143.1ZM175,148.4c-3.94.92-12,4.44-15.25,4s-14.68,3.23-19.46,2.24-14.58,2.34-17.74,1.92-5.93-1.87-8.48-2.58-7.68,1.65-15.58,1.65-10.35-2.76-10.09-5.19-6.16-.77-10.29-1.35-8.22-4.1-8.22-4.1c-4.39-.85,8.35-10.15,8.35-10.15s21-5.51,26.62-5.85,24.51-.67,29.79.16,23.12,1.13,28.55,1.7,18,10,18.5,11.67S179,147.49,175,148.4Z" fill="#ff7d9e"/><path d="M41,164.84s-1.32,13.2,3.58,12.34S56.77,173.4,58.2,171,42.5,160,41,164.84Z" fill="#ff8db0"/><path d="M65.39,171.32c.68,3.12,3.06,15,8.38,14.47s9-7.65,12.66-6.15,9.08-3.88,11.34-3.27,8.79-1.78,11.18,0,8.55,7.84,6.47,13.7,7.24,9.7,11.31,3.38,7.27-14.37,4.42-17.08S103,174.65,95.22,173,64.31,166.36,65.39,171.32Z" fill="#ff8db0"/><path d="M163.55,176.37s-1.07,23.93,4.23,18.14S170,178,175.22,176.37,163.63,170.22,163.55,176.37Z" fill="#ff8db0"/><path d="M68.76,119.78c-.45,2.44-4,3.19-5.31,3.39l-.43,0h0c-4.76.71-8.31,3.5-8.31,6.84,0,3.88,4.78,7,10.68,7S76,134,76,130.07C76.37,125.48,68.76,119.78,68.76,119.78Z" fill="#f7f6f2"/><path d="M71.12,121.79c1.2,1.62,2.11,3.41,2,5,0,3.88-4.79,7-10.69,7a14,14,0,0,1-7.37-1.94c1.24,3,5.37,5.17,10.3,5.17,5.9,0,10.68-3.14,10.68-7C76.25,127.18,73.32,123.86,71.12,121.79Z" fill="#eadce4"/><path d="M191.07,119.78c-.45,2.44-4,3.19-5.31,3.39l-.43,0h-.05c-4.75.71-8.31,3.5-8.31,6.84,0,3.88,4.79,7,10.69,7s10.68-3.14,10.68-7C198.68,125.48,191.07,119.78,191.07,119.78Z" fill="#f7f6f2"/><path d="M193.42,121.79c1.21,1.62,2.12,3.41,2,5,0,3.88-4.78,7-10.68,7a14,14,0,0,1-7.37-1.94c1.24,3,5.37,5.17,10.3,5.17,5.9,0,10.68-3.14,10.68-7C198.55,127.18,195.63,123.86,193.42,121.79Z" fill="#eadce4"/><path d="M89.11,115.19c-.41,2.16-3.55,2.82-4.7,3l-.39,0h0c-4.21.63-7.35,3.1-7.35,6.06,0,3.43,4.23,6.21,9.45,6.21s9.46-2.78,9.46-6.21C95.84,120.23,89.11,115.19,89.11,115.19Z" fill="#f7f6f2"/><path d="M91.19,117A7.18,7.18,0,0,1,93,121.44c0,3.43-4.23,6.22-9.46,6.22A12.36,12.36,0,0,1,77,125.93c1.09,2.64,4.75,4.58,9.11,4.58,5.23,0,9.46-2.78,9.46-6.21C95.73,121.74,93.14,118.8,91.19,117Z" fill="#eadce4"/><path d="M110,113.47c-.4,2.13-3.5,2.78-4.64,3l-.39,0h0c-4.16.62-7.27,3.06-7.27,6,0,3.39,4.18,6.14,9.34,6.14s9.34-2.75,9.34-6.14C116.61,118.44,110,113.47,110,113.47Z" fill="#f7f6f2"/><path d="M112,115.22a7.16,7.16,0,0,1,1.74,4.42c0,3.39-4.19,6.14-9.35,6.14a12.27,12.27,0,0,1-6.44-1.7c1.08,2.6,4.7,4.52,9,4.52,5.16,0,9.34-2.75,9.34-6.14C116.5,119.93,113.94,117,112,115.22Z" fill="#eadce4"/><path d="M150.43,114.34c-.39,2-3.36,2.67-4.45,2.84l-.37,0h0c-4,.59-7,2.93-7,5.73,0,3.25,4,5.88,8.95,5.88s9-2.63,9-5.88C156.8,119.11,150.43,114.34,150.43,114.34Z" fill="#f7f6f2"/><path d="M152.4,116a6.75,6.75,0,0,1,1.66,4.24c0,3.25-4,5.88-8.95,5.88a11.7,11.7,0,0,1-6.17-1.63c1,2.5,4.5,4.33,8.62,4.33,4.95,0,9-2.63,9-5.88C156.7,120.54,154.24,117.76,152.4,116Z" fill="#eadce4"/><path d="M130.33,113.22c-.39,2-3.36,2.68-4.45,2.84l-.37,0h0c-4,.6-7,2.93-7,5.73,0,3.25,4,5.89,8.95,5.89s9-2.64,9-5.89C136.7,118,130.33,113.22,130.33,113.22Z" fill="#f7f6f2"/><path d="M132.3,114.91a6.71,6.71,0,0,1,1.66,4.23c0,3.25-4,5.88-9,5.88a11.74,11.74,0,0,1-6.18-1.63c1,2.5,4.51,4.34,8.63,4.34,5,0,9-2.64,9-5.89C136.6,119.42,134.14,116.64,132.3,114.91Z" fill="#eadce4"/><path d="M170.7,115.49c-.39,2.12-3.48,2.77-4.61,2.94l-.38,0h0c-4.13.61-7.22,3-7.22,5.94,0,3.37,4.16,6.11,9.28,6.11s9.29-2.74,9.29-6.11C177.32,120.44,170.7,115.49,170.7,115.49Z" fill="#f7f6f2"/><path d="M172.75,117.24a7,7,0,0,1,1.73,4.39c0,3.37-4.16,6.1-9.29,6.1a12.25,12.25,0,0,1-6.41-1.69c1.08,2.59,4.67,4.5,8.95,4.5,5.13,0,9.29-2.74,9.29-6.11C177.21,121.92,174.66,119,172.75,117.24Z" fill="#eadce4"/><path d="M203.73,130.42c-.45,2.43-4,3.18-5.31,3.38l-.44.06h0c-4.75.71-8.31,3.5-8.31,6.84,0,3.88,4.79,7,10.69,7s10.68-3.14,10.68-7C211.34,136.11,203.73,130.42,203.73,130.42Z" fill="#f7f6f2"/><path d="M206.08,132.42c1.21,1.62,2.12,3.41,2,5.06,0,3.87-4.78,7-10.68,7a14,14,0,0,1-7.37-1.95c1.24,3,5.37,5.17,10.3,5.17,5.9,0,10.68-3.14,10.68-7C211.21,137.81,208.29,134.49,206.08,132.42Z" fill="#eadce4"/><path d="M203.81,132.38c-.28.19-2.62,2.29-8.12,2.71-3.77.29.93,5.35,5.88,4S203.81,132.38,203.81,132.38Z" fill="#eadce4"/><path d="M54.4,130.42c-.46,2.43-4,3.18-5.31,3.38l-.44.06h0c-4.76.71-8.31,3.5-8.31,6.84,0,3.88,4.78,7,10.68,7s10.69-3.14,10.69-7C62,136.11,54.4,130.42,54.4,130.42Z" fill="#f7f6f2"/><path d="M56.75,132.42a8.1,8.1,0,0,1,2,5.06c0,3.87-4.78,7-10.68,7a14,14,0,0,1-7.37-1.95c1.23,3,5.37,5.17,10.29,5.17,5.9,0,10.69-3.14,10.69-7C61.88,137.81,59,134.49,56.75,132.42Z" fill="#eadce4"/><path d="M54.69,132.38c-.2.14-1.84,1.62-5.73,1.91-2.66.21.66,3.78,4.15,2.81S54.69,132.38,54.69,132.38Z" fill="#eadce4"/><rect x="70.25" y="80.22" width="2.6" height="67.36" transform="translate(-33.01 29.28) rotate(-18.88)" fill="#fab680"/><path d="M63.77,95.16A3.77,3.77,0,0,1,66.12,94L61.88,81.61l-2.46.84Z" fill="#f58a78"/><path d="M69.57,84.59l-6.14-.66a4.69,4.69,0,0,0-4,1.61l-4,4.69a4.69,4.69,0,0,1-8.14-2.08L46,82.1a4.69,4.69,0,0,0-2.78-3.35l-5.7-2.38A4.68,4.68,0,0,1,36.93,68l5.36-3.08a4.69,4.69,0,0,0,2.33-3.68l.49-6.15A4.69,4.69,0,0,1,52.92,52l4.58,4.14a4.72,4.72,0,0,0,4.22,1.08l6-1.43a4.68,4.68,0,0,1,5.36,6.46l-2.52,5.64a4.69,4.69,0,0,0,.28,4.35l3.21,5.27A4.68,4.68,0,0,1,69.57,84.59Z" fill="#ffe480"/><path d="M74.06,77.49l-3.21-5.27a4.69,4.69,0,0,1-.28-4.35l2.52-5.64a4.68,4.68,0,0,0-5.36-6.46l-6,1.43a4.72,4.72,0,0,1-4.22-1.08L52.92,52A4.68,4.68,0,0,0,45.4,53.8,4.63,4.63,0,0,1,49.12,55l4.59,4.14a4.67,4.67,0,0,0,4.22,1.08l6-1.43a4.69,4.69,0,0,1,5.36,6.47l-2.52,5.64a4.67,4.67,0,0,0,.27,4.34l3.22,5.28a4.58,4.58,0,0,1,.38,4.08A4.68,4.68,0,0,0,74.06,77.49Z" fill="#facc6f"/><path d="M45.26,66l-4.13,2.38a3.61,3.61,0,0,0,.41,6.47l4.4,1.84c-2.27-1.25-4-2.14-4.46-4.74S45.26,66,45.26,66Z" fill="#f7f6f2"/><rect x="123.12" y="64.35" width="2.6" height="67.36" fill="#fab680"/><path d="M123.12,77.78a3.85,3.85,0,0,1,2.6-.33V64.35h-2.6Z" fill="#f58a78"/><path d="M131.16,73l-4.56-2.28a3.88,3.88,0,0,0-3.6.09l-4.46,2.47a3.87,3.87,0,0,1-5.71-3.95l.75-5.05a3.84,3.84,0,0,0-1.19-3.39l-3.73-3.48a3.87,3.87,0,0,1,2-6.65l5-.84a3.89,3.89,0,0,0,2.87-2.19l2.15-4.62a3.87,3.87,0,0,1,6.94-.16L130,47.44a3.89,3.89,0,0,0,3,2.05l5.06.62a3.86,3.86,0,0,1,2.29,6.54l-3.57,3.65a3.84,3.84,0,0,0-1,3.44l1,5A3.87,3.87,0,0,1,131.16,73Z" fill="#ffe480"/><path d="M136.68,68.75l-1-5a3.84,3.84,0,0,1,1-3.44l3.57-3.65A3.86,3.86,0,0,0,138,50.11L133,49.49a3.89,3.89,0,0,1-3-2.05l-2.36-4.53a3.88,3.88,0,0,0-6.35-.75,3.82,3.82,0,0,1,2.55,2l2.36,4.52a3.85,3.85,0,0,0,3,2.05l5.06.62a3.87,3.87,0,0,1,2.29,6.55l-3.57,3.64a3.86,3.86,0,0,0-1,3.45l1,5a3.78,3.78,0,0,1-.88,3.27A3.86,3.86,0,0,0,136.68,68.75Z" fill="#facc6f"/><path d="M117.69,51.54l-3.89.66a3,3,0,0,0-1.54,5.13L115.14,60c-1.4-1.63-2.51-2.82-2.09-5S117.69,51.54,117.69,51.54Z" fill="#f7f6f2"/><ellipse cx="94.2" cy="143.03" rx="5.9" ry="1.71" fill="#ff7d9e"/><ellipse cx="117.21" cy="147.72" rx="5.9" ry="1.71" fill="#ff7d9e"/><ellipse cx="145.16" cy="143.76" rx="5.9" ry="1.71" fill="#ff7d9e"/><ellipse cx="165.06" cy="141.79" rx="5.9" ry="1.71" fill="#ff7d9e"/><path d="M130,142.63c-.54,2.9-4.76,3.79-6.31,4l-.52.07h0c-5.65.84-9.87,4.16-9.87,8.12,0,4.61,5.68,8.34,12.69,8.34s12.69-3.73,12.69-8.34C139,149.4,130,142.63,130,142.63Z" fill="#f7f6f2"/><path d="M132.76,145c1.43,1.92,2.51,4,2.37,6,0,4.61-5.68,8.34-12.69,8.34a16.66,16.66,0,0,1-8.76-2.31c1.47,3.54,6.38,6.14,12.23,6.14,7,0,12.69-3.73,12.69-8.34C138.86,151.42,135.38,147.48,132.76,145Z" fill="#eadce4"/><path d="M130.26,145c-.26.17-2.4,2.1-7.45,2.48-3.45.27.86,4.91,5.39,3.65S130.26,145,130.26,145Z" fill="#eadce4"/><path d="M101.83,140.76c-.55,2.9-4.76,3.79-6.31,4l-.52.07h0c-5.65.85-9.87,4.16-9.87,8.13,0,4.6,5.68,8.34,12.69,8.34s12.69-3.74,12.69-8.34C110.86,147.52,101.83,140.76,101.83,140.76Z" fill="#f7f6f2"/><path d="M104.62,143.15c1.43,1.92,2.51,4,2.36,6,0,4.6-5.68,8.34-12.69,8.34a16.62,16.62,0,0,1-8.75-2.32c1.47,3.54,6.38,6.15,12.23,6.15,7,0,12.69-3.74,12.69-8.34C110.71,149.55,107.24,145.6,104.62,143.15Z" fill="#eadce4"/><path d="M101.41,143.21c-.2.2-1.74,2.39-6.24,3.8-3.07,1,1.8,4.26,5.65,2.18S101.41,143.21,101.41,143.21Z" fill="#eadce4"/><path d="M75,138c-.52,2.75-4.52,3.6-6,3.82l-.5.06h0c-5.37.8-9.38,4-9.38,7.72,0,4.37,5.4,7.92,12.05,7.92s12.06-3.55,12.06-7.92C83.62,144.38,75,138,75,138Z" fill="#f7f6f2"/><path d="M77.69,140.23c1.36,1.82,2.38,3.84,2.24,5.7,0,4.37-5.39,7.92-12.05,7.92a15.75,15.75,0,0,1-8.31-2.2c1.39,3.36,6.06,5.84,11.61,5.84,6.66,0,12.06-3.55,12.06-7.92C83.48,146.31,80.18,142.56,77.69,140.23Z" fill="#eadce4"/><path d="M75.3,140.18c-.25.16-2.32,2-7.2,2.4-3.33.25.83,4.74,5.21,3.52S75.3,140.18,75.3,140.18Z" fill="#eadce4"/><circle cx="143.96" cy="94.65" r="12.54" fill="#fff2c5" style="mix-blend-mode:multiply"/><path d="M146.15,86.63c-.36,2-2.36,2.48-3.09,2.6a1.07,1.07,0,0,0-.25,0h0a5.75,5.75,0,1,0,6.93,6C150.12,91.5,146.15,86.63,146.15,86.63Z" fill="#f7a670"/><path d="M145.94,90.45a1.81,1.81,0,0,1-1.79,1.09H144a3,3,0,1,0,3.12,3.6C147.61,93.25,145.94,90.45,145.94,90.45Z" fill="#facc6f"/><path d="M141.28,103.21l-2.22,40.17c0,.72.91,1.37,2.13,1.43s2.24-.46,2.28-1.19l2.22-40.17Z" fill="#f7f6f2"/><path d="M144.32,103.38l-2.13,38.75c0,.73-1.06,1.26-2.28,1.19a3.69,3.69,0,0,1-.84-.14v.2c0,.72.91,1.37,2.13,1.43s2.24-.46,2.28-1.19l2.22-40.17Z" fill="#eadce4"/><path d="M144,134.84l-4.8,6.65-.1,1.89c0,.61.64,1.16,1.58,1.36l3-4.17Z" fill="#6edbdb"/><polygon points="139.45 136.36 144.24 129.71 144.56 123.97 139.76 130.63 139.45 136.36" fill="#6edbdb"/><polygon points="140.04 125.5 144.84 118.84 145.16 113.11 140.36 119.77 140.04 125.5" fill="#6edbdb"/><polygon points="140.65 114.64 145.44 107.98 145.69 103.45 144.92 103.41 140.96 108.91 140.65 114.64" fill="#6edbdb"/><polygon points="143.36 120.9 144.84 118.84 145.16 113.11 143.67 115.17 143.36 120.9" fill="#62c7f0"/><polygon points="144.92 103.41 144.27 104.31 143.96 110.04 145.44 107.98 145.69 103.45 144.92 103.41" fill="#62c7f0"/><polygon points="142.76 131.76 144.24 129.71 144.56 123.97 143.07 126.03 142.76 131.76" fill="#62c7f0"/><path d="M142.19,142.13c0,.73-1.06,1.26-2.28,1.19a3.69,3.69,0,0,1-.84-.14v.2a.72.72,0,0,0,0,.25s0,.05,0,.08a1,1,0,0,0,.07.15l.06.1.09.11.12.11a.73.73,0,0,0,.09.08l.16.12h0a3.19,3.19,0,0,0,.9.35h0l3-4.17.32-5.73-1.48,2Z" fill="#62c7f0"/><ellipse cx="143.48" cy="103.33" rx="1.32" ry="2.21" transform="translate(32.4 240.9) rotate(-86.84)" fill="#06b6ee"/><rect x="143.42" y="100.07" width="0.29" height="3.45" transform="translate(5.83 -7.75) rotate(3.16)" fill="#f9e0b5"/><circle cx="113.35" cy="98.49" r="12.54" fill="#fff2c5" style="mix-blend-mode:multiply"/><path d="M111.6,90.37c.26,2,2.23,2.59,3,2.75l.24,0h0a5.76,5.76,0,0,1,4.61,5.57,5.93,5.93,0,0,1-11.86,0C107.38,95,111.6,90.37,111.6,90.37Z" fill="#f7a670"/><path d="M111.6,94.18a1.83,1.83,0,0,0,1.73,1.2h.14a3,3,0,1,1-3.31,3.42C109.78,96.89,111.6,94.18,111.6,94.18Z" fill="#facc6f"/><path d="M115.56,107.19v40.23c0,.72-1,1.31-2.21,1.31s-2.21-.59-2.21-1.31V107.19Z" fill="#f7f6f2"/><path d="M112.51,107.19V146c0,.72,1,1.31,2.21,1.31a3.22,3.22,0,0,0,.84-.1v.21c0,.72-1,1.31-2.21,1.31s-2.21-.59-2.21-1.31V107.19Z" fill="#eadce4"/><path d="M111.14,138.62l4.42,6.9v1.9c0,.61-.7,1.12-1.65,1.26l-2.77-4.32Z" fill="#6edbdb"/><polygon points="115.56 140.39 111.14 133.48 111.14 127.74 115.56 134.65 115.56 140.39" fill="#6edbdb"/><polygon points="115.56 129.51 111.14 122.6 111.14 116.86 115.56 123.77 115.56 129.51" fill="#6edbdb"/><polygon points="115.56 118.63 111.14 111.72 111.14 107.19 111.91 107.19 115.56 112.89 115.56 118.63" fill="#6edbdb"/><polygon points="112.51 124.74 111.14 122.6 111.14 116.86 112.51 119 112.51 124.74" fill="#62c7f0"/><polygon points="111.91 107.19 112.51 108.12 112.51 113.86 111.14 111.72 111.14 107.19 111.91 107.19" fill="#62c7f0"/><polygon points="112.51 135.62 111.14 133.48 111.14 127.74 112.51 129.87 112.51 135.62" fill="#62c7f0"/><path d="M112.51,146c0,.72,1,1.31,2.21,1.31a3.22,3.22,0,0,0,.84-.1v.21a1,1,0,0,1,0,.24.2.2,0,0,1,0,.08,1,1,0,0,1-.07.15l-.08.1-.09.1-.12.11-.09.07-.18.11h0a2.78,2.78,0,0,1-.91.29h0l-2.77-4.32v-5.74l1.37,2.13Z" fill="#62c7f0"/><ellipse cx="113.35" cy="107.19" rx="2.21" ry="1.32" fill="#06b6ee"/><rect x="113.2" y="103.92" width="0.29" height="3.45" transform="translate(226.7 211.29) rotate(-180)" fill="#f9e0b5"/><circle cx="84.36" cy="97.56" r="11.63" fill="#fff2c5" style="mix-blend-mode:multiply"/><path d="M81.75,90.31a3.27,3.27,0,0,0,3,2.17h.25a5.33,5.33,0,1,1-6,6C78.44,95.1,81.75,90.31,81.75,90.31Z" fill="#f7a670"/><path d="M82.22,93.82A1.66,1.66,0,0,0,84,94.7h.13a2.77,2.77,0,1,1-2.61,3.55C80.88,96.53,82.22,93.82,82.22,93.82Z" fill="#facc6f"/><path d="M87.46,105.28l5,37c.09.67-.75,1.33-1.87,1.48s-2.1-.27-2.19-.93l-5-37Z" fill="#f7f6f2"/><path d="M84.66,105.66l4.79,35.66c.09.67,1.07,1.09,2.19.94a3,3,0,0,0,.77-.2l0,.19c.09.67-.75,1.33-1.87,1.48s-2.1-.27-2.19-.93l-5-37Z" fill="#eadce4"/><path d="M87.28,134.71l4.92,5.8.23,1.74c.08.56-.51,1.12-1.36,1.37L88,140Z" fill="#6edbdb"/><polygon points="91.56 135.79 86.65 129.99 85.94 124.71 90.85 130.51 91.56 135.79" fill="#6edbdb"/><polygon points="90.22 125.79 85.3 119.99 84.59 114.72 89.51 120.52 90.22 125.79" fill="#6edbdb"/><polygon points="88.88 115.8 83.96 109.99 83.4 105.82 84.11 105.73 88.17 110.52 88.88 115.8" fill="#6edbdb"/><polygon points="86.82 121.79 85.3 119.99 84.59 114.72 86.11 116.51 86.82 121.79" fill="#62c7f0"/><polygon points="84.11 105.73 84.77 106.51 85.48 111.79 83.96 109.99 83.4 105.82 84.11 105.73" fill="#62c7f0"/><polygon points="88.17 131.78 86.65 129.99 85.94 124.71 87.46 126.51 88.17 131.78" fill="#62c7f0"/><path d="M89.45,141.32c.09.67,1.07,1.09,2.19.94a3,3,0,0,0,.77-.2l0,.19a.59.59,0,0,1,0,.23.19.19,0,0,1,0,.08.58.58,0,0,1-.05.14l-.06.1a.41.41,0,0,1-.07.11.52.52,0,0,1-.1.11l-.07.08-.15.12,0,0a2.58,2.58,0,0,1-.8.38h0L88,140l-.71-5.28,1.52,1.79Z" fill="#62c7f0"/><ellipse cx="85.43" cy="105.55" rx="2.05" ry="1.22" transform="translate(-13.3 12.32) rotate(-7.66)" fill="#06b6ee"/><rect x="85.1" y="102.53" width="0.27" height="3.2" transform="translate(183.59 195.99) rotate(172.34)" fill="#f9e0b5"/><rect x="175.27" y="81.2" width="2.6" height="67.36" transform="translate(30.72 -37.11) rotate(13.13)" fill="#fab680"/><path d="M179.9,94.86a3.9,3.9,0,0,1,2.61.27l3-12.75L183,81.79Z" fill="#f58a78"/><path d="M189.27,90.85l-4.11-4.61a4.66,4.66,0,0,0-4.08-1.53l-6.12.77a4.69,4.69,0,0,1-4.63-7l3.11-5.33a4.68,4.68,0,0,0,.2-4.35L171,63.2a4.68,4.68,0,0,1,5.23-6.57l6,1.31a4.68,4.68,0,0,0,4.21-1.16l4.5-4.22a4.68,4.68,0,0,1,7.86,2.95l.62,6.14a4.7,4.7,0,0,0,2.4,3.64l5.41,3a4.68,4.68,0,0,1-.38,8.39l-5.65,2.49a4.65,4.65,0,0,0-2.71,3.4l-1.16,6.07A4.69,4.69,0,0,1,189.27,90.85Z" fill="#ffe480"/><path d="M197.37,88.61l1.16-6.07a4.65,4.65,0,0,1,2.71-3.4l5.65-2.49a4.68,4.68,0,0,0,.38-8.39l-5.41-3a4.7,4.7,0,0,1-2.4-3.64l-.62-6.14A4.69,4.69,0,0,0,192,51.8a4.6,4.6,0,0,1,2,3.37l.61,6.15A4.7,4.7,0,0,0,197,65l5.41,3a4.68,4.68,0,0,1-.38,8.39l-5.65,2.48a4.7,4.7,0,0,0-2.72,3.41l-1.16,6.07a4.59,4.59,0,0,1-2.46,3.28A4.69,4.69,0,0,0,197.37,88.61Z" fill="#facc6f"/><path d="M183.78,60.72l-4.67-1a3.62,3.62,0,0,0-4,5.08l2,4.31c-.84-2.45-1.56-4.3-.12-6.5S183.78,60.72,183.78,60.72Z" fill="#f7f6f2"/><path d="M184.15,138c-.51,2.75-4.51,3.6-6,3.82l-.49.06h0c-5.36.8-9.37,4-9.37,7.72,0,4.37,5.39,7.92,12.05,7.92s12-3.55,12-7.92C192.74,144.38,184.15,138,184.15,138Z" fill="#f7f6f2"/><path d="M186.81,140.23c1.36,1.82,2.38,3.84,2.24,5.7,0,4.37-5.39,7.92-12.05,7.92a15.81,15.81,0,0,1-8.32-2.2c1.4,3.36,6.06,5.84,11.62,5.84,6.66,0,12-3.55,12-7.92C192.6,146.31,189.29,142.56,186.81,140.23Z" fill="#eadce4"/><path d="M184.24,140.18c-.32.21-3,2.58-9.16,3-4.25.33,1,6,6.63,4.49S184.24,140.18,184.24,140.18Z" fill="#eadce4"/><circle cx="171.89" cy="97.41" r="11.63" fill="#fff2c5" style="mix-blend-mode:multiply"/><path d="M175.29,90.5A3.25,3.25,0,0,1,172,92.32l-.23,0h0a5.29,5.29,0,0,0-1.36,10.46A5.41,5.41,0,0,0,177,99C178.05,95.62,175.29,90.5,175.29,90.5Z" fill="#f7a670"/><path d="M174.44,93.93a1.71,1.71,0,0,1-1.83.69l-.11,0h0a2.77,2.77,0,1,0,2.2,3.82C175.46,96.78,174.44,93.93,174.44,93.93Z" fill="#facc6f"/><path d="M168,104.74l-9.06,36.19c-.17.65.59,1.4,1.69,1.68s2.12,0,2.28-.69l9.06-36.19Z" fill="#f7f6f2"/><path d="M170.69,105.43,162,140.34c-.16.65-1.18,1-2.28.68a2.84,2.84,0,0,1-.74-.28l0,.19c-.17.65.59,1.4,1.69,1.68s2.12,0,2.28-.69l9.06-36.19Z" fill="#eadce4"/><path d="M164.85,134l-5.54,5.21-.42,1.71c-.14.55.38,1.16,1.2,1.51l3.46-3.27Z" fill="#6edbdb"/><polygon points="160.47 134.6 166 129.38 167.3 124.22 161.76 129.44 160.47 134.6" fill="#6edbdb"/><polygon points="162.92 124.82 168.45 119.6 169.75 114.44 164.21 119.66 162.92 124.82" fill="#6edbdb"/><polygon points="165.37 115.03 170.9 109.81 171.92 105.73 171.23 105.56 166.66 109.87 165.37 115.03" fill="#6edbdb"/><polygon points="166.74 121.21 168.45 119.6 169.75 114.44 168.03 116.05 166.74 121.21" fill="#62c7f0"/><polygon points="171.23 105.56 170.48 106.26 169.19 111.43 170.9 109.81 171.92 105.73 171.23 105.56" fill="#62c7f0"/><polygon points="164.29 131 166 129.38 167.3 124.22 165.59 125.83 164.29 131" fill="#62c7f0"/><path d="M162,140.34c-.16.65-1.18,1-2.28.68a2.84,2.84,0,0,1-.74-.28l0,.19a.58.58,0,0,0,0,.23s0,.05,0,.08a.83.83,0,0,0,0,.15l0,.1a.75.75,0,0,0,.07.12l.08.12.07.08.13.14,0,0a2.81,2.81,0,0,0,.76.47h0l3.46-3.27,1.3-5.16-1.71,1.61Z" fill="#62c7f0"/><ellipse cx="169.94" cy="105.24" rx="1.22" ry="2.05" transform="translate(26.58 244.53) rotate(-75.95)" fill="#06b6ee"/><rect x="170.15" y="102.25" width="0.27" height="3.2" transform="translate(30.32 -38.24) rotate(14.05)" fill="#f9e0b5"/><path d="M158.17,140.76c-.54,2.9-4.75,3.79-6.31,4l-.51.07h0c-5.65.85-9.87,4.16-9.87,8.13,0,4.6,5.68,8.34,12.68,8.34s12.69-3.74,12.69-8.34C167.21,147.52,158.17,140.76,158.17,140.76Z" fill="#f7f6f2"/><path d="M161,143.15c1.43,1.92,2.5,4,2.36,6,0,4.6-5.68,8.34-12.69,8.34a16.66,16.66,0,0,1-8.76-2.32c1.47,3.54,6.38,6.15,12.23,6.15,7,0,12.69-3.74,12.69-8.34C167.06,149.55,163.58,145.6,161,143.15Z" fill="#eadce4"/><path d="M158.5,143.1c-.25.16-2.28,2-7.06,2.35-3.27.25.81,4.65,5.11,3.46S158.5,143.1,158.5,143.1Z" fill="#eadce4"/><path d="M36.7,387.75l-.45.12c-.12-.09-.26-.12-.35,0,.16.24.14.38,0,.55-1,.87-2.58.85-3.64,1.56-.57.39-.69.65-1.35,1.09-.24.16-.58.1-.81.19a8.74,8.74,0,0,0-2,1.1,49.8,49.8,0,0,0-4.49,3.73c-2.54,2.48-9.6,8.48-12.41,3.25-1.56-2.93,1.64-2.94,3.27-4,1.31-.88,2.45-2,3.83-2.87a19.34,19.34,0,0,0,2.21-1.91l.28-.3c-.51.4.12-.61.13-.68A10.55,10.55,0,0,1,22.11,388a8.78,8.78,0,0,0,1.66-2.65c.2-.67.61-2.08-.23-2.46-.28,0-2.91.36-2.91.36s.4-.21.35-.36a9.41,9.41,0,0,0-1.43.78.3.3,0,0,1,.22,0c-.6.17-6.19,5.18-6.64,5.66a28.28,28.28,0,0,1-3.26,3.62c-.23.09-.38.13-.5,0a.75.75,0,0,0-.44.76,18,18,0,0,0-1.07,1.5c-.85,1.11-1.49,2.9-2.38,3.86-1.09,1.2-2.58.49-3.58-.56a4.74,4.74,0,0,1-1.12-1.92,6,6,0,0,1-.14-1.09,3.13,3.13,0,0,1-.18-.89,4.69,4.69,0,0,1-.05.63c-1.14-.72.43-5.45.67-6.32A65.4,65.4,0,0,1,5,378.57,118.72,118.72,0,0,1,14.22,362a134.18,134.18,0,0,1,9.65-13.43,49.39,49.39,0,0,1,6.51-6.81c2-1.66,4.86-3.81,7.72-3.17,5.48,1.35,3.95,9.14,2.37,12.87,0,0-.21,1.45-.61,1.66a12.13,12.13,0,0,0,.48-1.33l-.74,1.56a.14.14,0,0,1,.21,0c0,1-1.27,2.52-1.77,3.27a33.28,33.28,0,0,1-2.44,3c-1.4,1.71-3,3.32-4.45,5a31.11,31.11,0,0,1-5.55,4.81c-.42.34-5,3.62-5.45,3.19a7.14,7.14,0,0,0,.83-.62c-1,.57-2.08,1.22-3.19,1.78a5.52,5.52,0,0,0,.53-.17c-1,1.08-3.13.8-4.06,1.9-1.18,1.32-1.88,3.81-2.55,5.45-1.53,3.46-2.94,7-4.2,10.6l.2-.31-.49,1A37.92,37.92,0,0,1,12.46,387c-.83.62-1.83,1.35-2.77,2.16a53.61,53.61,0,0,1,5.62-4.79c2.31-1.67,5.08-3.83,8-4.54a4.12,4.12,0,0,1,3,.24c2.5,1.34,2.29,4.21,2,6.42a1,1,0,0,1,.26-.59c.23-.09-.49,3.59-.63,3.92a60.4,60.4,0,0,0,6.29-2.74c.94-.45,2.53-2.06,3.12-.74l.07,0,0,.07C37.67,387.16,37.14,387.34,36.7,387.75Zm-27,1.38-1.9,2.11A13,13,0,0,1,9.69,389.13Zm14.85-3.76a19.93,19.93,0,0,1-3.72,5.23c-1.48,1.41-2.95,2.76-4.48,4.09a13,13,0,0,1-3,2.11,17.2,17.2,0,0,0,5.46-3.61C21,391,23.46,388.35,24.54,385.37Zm-11.07-21A92.64,92.64,0,0,1,22.6,351.8a101.74,101.74,0,0,1,7-7.5c1.82-1.7,3.88-3.5,6.43-3.85-2.62.34-5,2.14-6.76,3.71a56.93,56.93,0,0,0-7,7.5A111.27,111.27,0,0,0,13.47,364.41ZM14.84,385a.07.07,0,0,0,.08,0ZM17,369.78l.58-1.16-1.44,2.63v.07a.24.24,0,0,0-.11.19c0,.13-.11.19-.12.26l-.1.12,0,.14C16.28,371.77,16.78,370.3,17,369.78Zm-1.12,2.06-.08.05,0,.14C15.82,372,15.9,371.9,15.91,371.84Zm21.46-29.92c.23-.1.74-.14.78,0-.1-.23-3.35,2.25-4.19,2.94l1.21-1.47a36.27,36.27,0,0,0-5.6,6.5,1.17,1.17,0,0,1,.49-.33c-.64.37-6.63,10-7.23,10.85-2.36,3.72-4.6,7.54-6.63,11.4a54.08,54.08,0,0,0,10.06-6.47c2.38-2,4.89-4.29,7.12-6.27,1.11-1,2.09-3.07,2.84-4.41a21.36,21.36,0,0,0,2.44-5.55c.31-1.21,1.7-6.9-.48-7.33A1.05,1.05,0,0,0,37.37,341.92ZM25.7,355.52c-1.71,2.58-3.36,5.23-5,7.89Z" fill="#444242"/><path d="M49.16,391.35c-1.42,1.55-2.76,3-4.31,4.51-1.64,1.66-3.79,4.38-6.28,4.59-.56,0-3.08-1.08-3-1.48l.14,0c-.52-.36,0,.34-.79-.4a5.54,5.54,0,0,1-1.21-1.86c-.61-1.14-1.45-2.17-1.54-3.45,0-.36.19-2.86.75-2.78.13,0,0,.34,0,.35l.38-1.21c-.09.13-.1.2-.25.25-.26-.11,1.75-4.81,2-5.21.76-1.36,1.27-3,2.76-3.61a3.86,3.86,0,0,1,3.66.53c.52.28,2,1.2,1.9,1.89,0,.41-.41.43-.65.61a.43.43,0,0,1,.29,0c.19.16-1.05,1.46-1.18,1.38s.12-.34.22-.54a35.79,35.79,0,0,0-4.24,6.5c.47-.85,2.75-4.46,2.94-4.36s-5.74,7.68-3.56,9.19c1,.71,3.13-.74,4-1.26a28.4,28.4,0,0,0,4.57-2.93.57.57,0,0,1-.5.07c-.23-.38,3.87-4.43,4.55-4.76s1.54-.41,1.55.5C51.43,389.21,50,390.55,49.16,391.35Zm-12.28,2.24-.22.53.2-.39v-.07C37,393.53,37,393.53,36.88,393.59Zm3.34-16.89c0-.21.06-2.38.77-1.92,0-.21,1-1.13.46-.29a16,16,0,0,0,2.06-2.59l-1,1.12a29.75,29.75,0,0,0,2.26-4c0-.07,0-.71.12-.83-1.37-.76-.21-1.44.47-1.83-.13,0-.2,0-.25-.18-.24-.31.62-.4.84-.44a3.83,3.83,0,0,1,3.06.72A4.83,4.83,0,0,1,50.39,369,2.7,2.7,0,0,1,49,371.35a11.37,11.37,0,0,1-1.21.6c-.48.43-.5,1.06-.91,1.49s-.69.39-1,.71c-.31.16-.33.37-.16.61a2.58,2.58,0,0,0-.76.38,7.57,7.57,0,0,1-2.26,2.07,6.79,6.79,0,0,0,2.19-1.52,4.89,4.89,0,0,1,2.21-1.23c-.8.66-1.06,1.54-2,2s0-.49-1,.21c0,0,.42,0,.19.1A8.77,8.77,0,0,1,42,378.23c-.43.08-.75.31-1.2,0s-.2-.59-.31-.82A6.09,6.09,0,0,1,40.22,376.7Zm.84-1.92a.07.07,0,0,1,.06.08c.08-.06.08-.06.08-.12S41.13,374.79,41.06,374.78Zm1.36-1.63a1.75,1.75,0,0,1-.34.38Z" fill="#444242"/><path d="M74,393.28a24.44,24.44,0,0,1-2.35,3.19c-1.83,2.19-3.8,4.37-5.7,6.56a35.63,35.63,0,0,1-6.33,5.86,45.53,45.53,0,0,1-4.09,2.39c0-.07.08-.13.16-.19l-.51.16c.36,0-1.05.73-1.41.83a3.81,3.81,0,0,1-2.78-.91,4.74,4.74,0,0,1-1.56-2.53,7.59,7.59,0,0,1,0-4.69c.1-.34,1.48-4.26,1.95-4.14.14,0-.19.54-.13.61l.66-1.68c-.2-.09,4.25-7.48,4.65-7.93-2.12.21-4.75-.12-6-2.07-.36-.6-.17-1.07-.27-1.5s-.4-.88-.49-1.38c-.35-3.46,4.08-7.77,7.17-5.15l-.12-.22c.11-.41.84.71.87,1.06s-.77,2.17-1.11,2c-.07,0,.54-1.2.55-1.27-.62,1.27-2.22,2.57-2.5,3.94-.24,1,.31,1.08,1.19,1.38,1.28.48,3.38.48,5,1.14a22.56,22.56,0,0,0-3.27-.89.07.07,0,0,1-.06-.08c1,.24,2.13.36,3,.66,2,.68,3.13,1.57,2.08,3.63s-2.28,3.83-3.38,5.75-1.93,3.86-2.89,5.79c-.28.67-2.1,3.43-1.61,4.18.6.9,4.76-2.18,5.91-3.18-.22.18-.43.16-.58.29a20.71,20.71,0,0,1,1.81-2.06l2.27-2.36,4.24-4.54,4.32-4.74c.39-.38,2.3-2.63,2.53-.79C75.34,391.38,74.53,392.49,74,393.28ZM50.67,409.81a.48.48,0,0,1-.12-.22l.07.07c-.27-.8-.54-1.59-.64-2l.12.92L50,407.08V407a.49.49,0,0,1,0-.22.22.22,0,0,0,0,.15l0-.35a12.25,12.25,0,0,1,.42-2.75v-.07a8.2,8.2,0,0,0-.39,1.85,8.11,8.11,0,0,0-.06,2.65,11.17,11.17,0,0,0,.84,2c0-.07,0-.13,0-.14a4.18,4.18,0,0,0,1.49,1.13,4,4,0,0,1-1.59-1.56Zm-.29-.59a.25.25,0,0,0-.05-.15C50.32,409.14,50.39,409.15,50.38,409.22Zm.07-5.52v.07c0-.07.09-.13.09-.2S50.46,403.63,50.45,403.7Zm.34-1.3c0,.14-.09.2-.1.27S50.78,402.54,50.79,402.4Zm.14,0a43,43,0,0,1,2.46-5L55,394.5c.41-.58,2.2-3.83,2.57-4-.5.09-1.72,2.48-1.88,2.67a37,37,0,0,0-2,3.44A36.77,36.77,0,0,0,50.93,402.42ZM54.7,386.5a3.57,3.57,0,0,0,.44.53,2.84,2.84,0,0,0,1.34.63,3.47,3.47,0,0,1-1.55-.58A.83.83,0,0,1,54.7,386.5Zm0-.07a.07.07,0,0,1,.08-.06Zm6.95,6.72-1.77,3,1.76-2.9Zm0-.07h.07V393Zm0,0h.07V393Z" fill="#444242"/><path d="M100.06,372.12c0,1-1.2,1.68-2,1.85s-1.93-.38-2.77-.28c-.49.12-.37.33-.79.45a6.53,6.53,0,0,1-2,0c-.91-.05-2.83-.63-3.62-.18a1.22,1.22,0,0,0-.44.4l.23-.41c-.42.05-1.21,1.89-1.75,3.12l.84-1.49-1.11,2.59c-.77,1.43-1.47,2.92-2.17,4.35-1.39,2.86-2.65,5.66-3.91,8.59a156.11,156.11,0,0,0-5.83,16.51c-.26,1-1.64,4.93-.35,5.55.2.15,1.7-.61,1.63-.54.37-.33.8-.66,1.17-1.06-.29.2-1.09.78-1.08.64-.05-.42,1.76-1.72,2-2.05.73-.66,1.4-1.4,2.06-2.06l4.27-4.74c2.66-3,5.19-6.08,7.84-9.09.59-.66,2-3,2.88-3.2,1.12-.15,1.28,1,.88,1.86-.71,1.84-2.67,3.28-3.72,4.9-1.89,2.83-4.11,5.44-6.26,8.12-2.37,2.88-4.75,5.76-7.32,8.49-1.18,1.33-2.74,3.21-4.52,4-1.35.55-3-.3-4.12-1.18A5.32,5.32,0,0,1,68,413.67c0-.42-.35-2.67.09-3.13l0,1,.21-1.38c-.16.27-.11-.64-.1-.78a7,7,0,0,1,.36-1.72,25.27,25.27,0,0,1,.86-3.23c.59-2.13,1.25-4.26,1.78-6.47a39.9,39.9,0,0,1,2.13-6.3c.15-.34,1.75-4.52,2.1-4.5.07,0-.18.83-.18.9.33-1,.8-2.05,1.2-3.08-.16.34-.39.68-.38.54,0-.83,1-2.25,1.34-3l1-2.39a67.24,67.24,0,0,1,2.83-6.41,48,48,0,0,0-5.65.07,30,30,0,0,1-8.61-.57c-.35-.09-2-.24-1.56-1a7.47,7.47,0,0,1,2-.53,13.93,13.93,0,0,1,4.13-.36c2.72-.14,5.36.13,8.09-.08a10,10,0,0,0,2.51,0c.63-.17.66-.66,1-1.27.55-1.23,1.16-2.45,1.78-3.61A25,25,0,0,1,87,362.62c.59-.74,1.16-.92,1.62-1.73a22.59,22.59,0,0,1,3.39-5.2c1.48-1.74,3.93-1.89,6.06-1.37,1,.26,2.46,1,1.91,2.32-.24.55-.95.86-1.39,1.26,0,.07.66-.6.64-.32a18,18,0,0,1-3,3.82c-.07,0,1.06-1.69,1.13-1.82a102.17,102.17,0,0,0-7.56,12c.21,0,.43-.26.73-.73a5.43,5.43,0,0,0-.39.75c2.72,0,5.5.13,8.29.13.56,0,1.64-.69,1.66.29ZM73,413.64a.46.46,0,0,0,.21.15Zm23.51-55.15c-6,7.58-9.89,16.73-14.21,25.22a113.74,113.74,0,0,0-6.55,15.43c-.82,2.4-1.5,4.8-2.11,7.28l.41-1.3a79.78,79.78,0,0,1,3.54-9.51c2.85-6.76,5.56-13.74,9-20.19C89.72,369.66,92.53,363.66,96.55,358.49ZM83.75,383.3c-.69,1.36-1.25,2.72-1.87,4,.62-1.22,1.23-2.44,1.79-3.74A.44.44,0,0,1,83.75,383.3Zm7.6-14.05-.77,1.49C90.81,370.34,91.11,369.79,91.35,369.25Zm2.06-3.59-1.83,3.11C92.36,367.21,93.06,365.71,93.41,365.66Z" fill="#444242"/><path d="M128,391c.28-.07-1.56,3.85-1.84,4.2-1,1.68-2.13,3.36-3.23,5-2,3.08-3.84,6.65-6.46,9.24a3.62,3.62,0,0,1-3,1.35,5.21,5.21,0,0,1-3.7-1.77c-.22-.21-2.11-1.79-1.9-2.28l.42.62a5.35,5.35,0,0,1-.5-1.11v.28c-.2.21-.78-2.29-.78-2.57a12,12,0,0,1,.32-3.14c.47-1.67.94-3.35,1.34-5a29.47,29.47,0,0,1,2.19-5.1c.13-.28,1.43-3,1.71-3,0,.07-.27.7-.2.77l1-2.38-.21.21,2-4.89c-2.56,2.11-4.55,5-6.55,7.51a25.31,25.31,0,0,1-3,3.65c-.41.35-.55.14-.9.56a7.22,7.22,0,0,0-.68,1.26c-1.58,2.66-3.58,5-5.23,7.63l-1.23,2.24a2.62,2.62,0,0,1-.41.91,2.21,2.21,0,0,1-3.27-.32,3.61,3.61,0,0,1-.72-2.5c-.31-3.06.36-6.34.89-9.34a134.08,134.08,0,0,1,4.77-19.46c1.83-5.65,4.64-10.76,7.3-16.08,0-.06.34-1.53.68-1.74-.06.07-.47,1.32-.47,1.32l.82-1.6a.22.22,0,0,1-.14-.07c0-1.26,1.5-3.15,2.19-4.2,1-1.61,2-3.15,3.09-4.69,1.93-2.73,3.78-5.74,6.41-7.79a7.51,7.51,0,0,1,4.85-1.92,3.44,3.44,0,0,1,2.45,1c.28.27,1.55,2.42,1.14,2.7a6.54,6.54,0,0,0-.43-1,8.51,8.51,0,0,1,.45,3.48c.07-.14.06-.21.13-.21.35,0-1.12,6.41-1.26,7a49.89,49.89,0,0,1-2.65,7.12,68.26,68.26,0,0,1-8.64,14.35c-.69.77-1.59,1.34-2.21,2s-1.17,1.75-1.86,2.59a65.18,65.18,0,0,1-5.72,5.9,6.93,6.93,0,0,0-2.13,3.29c-.48,1.47-.88,2.93-1.36,4.33-.88,2.79-1.69,5.58-2.43,8.45,1.17-1.82,2.41-3.58,3.71-5.33-.89,1.05-1.51,1.82-1.51,1.82s8.54-10.86,9.43-11.84c2.07-2.25,5.86-7.09,8.95-3.36,1.76,2.15.46,4.73-.56,6.83-1.78,3.85-4,8.32-5,12.23.07-.07.41-1.12.62-1,.42.41-.8,3.7-.94,4.32s-.53,2.72,0,3.07c.91.61,2.5-1.28,3.12-1.84,2.48-2.46,4.76-5.19,7-7.86a38.48,38.48,0,0,1,2.62-3.16c.2-.21.68-.91,1-.91C127.67,390.59,128.44,390.93,128,391Zm-24.2-12.73c-.06.35-.33,1.46-.19,1.46-.21-.06,2.51-7.4,2.78-8.1.54-1.46,1.37-2.72,1.84-4.26a32.61,32.61,0,0,1,2-4.47c.89-2,9.3-18.39,8.74-18.74-.14-.07-6.7,12.73-7.32,14.13-1.37,2.94-3.15,5.74-4.24,8.81-1.22,3.63-2.93,7.2-3.52,11Zm0,0a.24.24,0,0,0,.07-.14C103.89,378.2,103.82,378.2,103.82,378.27ZM121,343.87c-2.47,4-4.59,8.32-6.71,12.52-1.92,3.84-4,7.83-5.67,11.67a2.53,2.53,0,0,1,.55-.77s-1.43,4.12-1.63,4.54l-2,5.52a90.31,90.31,0,0,0,12.72-17.59c-1.37,2.31-2.81,4.62-4.33,6.72l-2.75,3.93-1.24,1.26.55-.63c.69-.84,1.31-1.68,1.93-2.52,1.17-1.68,2.33-3.43,3.43-5.19a78.26,78.26,0,0,0,6-11.26,47.47,47.47,0,0,0,2.17-6.28c.27-1.05,1.15-4,.17-4.81s-2.35,1.7-2.9,2.54c.07-.07,0,.07-.07.21v-.07a.07.07,0,0,1-.07.07v.07A.07.07,0,0,1,121,343.87Zm-11.86,28.64c-.2.21-.34.49-.48.64A4,4,0,0,1,109.13,372.51Zm12-28.78h-.07v.07Z" fill="#444242"/><path d="M162.3,391.84c-1.32,1.65-2.57,3.43-3.82,5.21-2.55,3.71-4.42,7.93-7,11.78-2,3-5.23,8.34-9.22,4.9-3.24-2.66-3-8.27-2.91-12a59.24,59.24,0,0,1-6.17,6.4c-1.24,1-2.67,2.18-4.37,2-5.5-.65-5.38-8.27-4.1-12.08.72-2.23.87-4.55,1.93-6.88,1.17-2.61,2.94-5.63,5.55-7,3.15-1.59,6.45,1.83,8.51,3.82a114.62,114.62,0,0,1,5.08-18.25c.12-.22.44-2.27,1-2.74a5.34,5.34,0,0,0-.61,1.94,17.11,17.11,0,0,1,.92-2.38H147c.18-.29.9-2.59,1.08-2.88a32.41,32.41,0,0,1,1.76-3.09,12.33,12.33,0,0,1,4.48-4.08c2.48-1.19,6.35-1,7.63,1.79,1.72,3.77-.46,8.57-2.06,11.92-1,2-2.1,4.16-3.25,6.15l-1.61,2.51-.56.74c.06-.14.11-.29,0-.35l-.49.81h0l-.19.3-2.64,4.27c.31-.44.81-1.18.95-1.12s-4.2,6.43-4.57,7c-1.55,2.3-1.45,5.93-1.64,8.67-.15,1.55-1.19,11.49,1.24,11.28.63,0,1.36-1.3,1.67-1.75A33.71,33.71,0,0,0,151.4,405c1.66-2.65,3.19-5.3,4.78-7.95s3.26-5.17,5.08-7.56c.39-.38,3.19-4.46,3.8-2.21v.07C165.42,389.06,163.32,390.63,162.3,391.84Zm-22.4,2c.17-1.27.56-2.49-.23-3.54a10.18,10.18,0,0,0-2.31-2.53,1.58,1.58,0,0,0-1.36-.37.24.24,0,0,0-.2.08l.33-.23c-1.45.26-2.36,2.71-3,4.23a48.05,48.05,0,0,0-3,9.48c-.19,1.13-1.24,5.21.42,5.76.86.35,2.16-.81,2.93-1.64a4.32,4.32,0,0,1-2.46,1.46c-2.3.06-1-4.59-.22-7.46-.74,2.79-1.82,7.36.14,7.4,1.61,0,3.87-3.05,4.83-4.11s2-2.27,3-3.47,1-2.74,1.1-4.43a1,1,0,0,1,0-.35ZM134,404.52H134a35.53,35.53,0,0,0,2.76-2.89c.71-.76,2.73-2.46,2.79-3.38q-2.18,2.7-4.59,5.21Zm1-16.23c.07,0,.25-.3.51-.53C135.28,388,135.1,388.28,135,388.29Zm2.88-.59a1.2,1.2,0,0,0-.44-.24Zm6.94-6.32a19.91,19.91,0,0,1-.82,1.82c-.21.85.22,1.72-.28,2.46a.15.15,0,0,0,.13-.15,15.41,15.41,0,0,0,.58-2.21A4.94,4.94,0,0,0,144.78,381.38Zm1.28-7.94a23.86,23.86,0,0,1-1,2.75,23.24,23.24,0,0,0-.78,3.14,14.75,14.75,0,0,0,.84-2.45C145.36,375.81,145.81,374.58,146.06,373.44Zm3.62,3.89-.18.36c-.05.29-.1.43,0,.36-.79,3.07-1.5,6.13-2.15,9.19a1.88,1.88,0,0,1,.31-.44,3.61,3.61,0,0,0-.65,1.38l.25-.3.44-.67,3.14-4.88-1.24,1.86-1.39,1.72a116.13,116.13,0,0,0,7-11.92c1.79-3.5,4.7-8.71,4.07-12.85a2.15,2.15,0,0,0-.92-1.81c-1.67-.76-3.2,2.58-3.74,3.67a67.75,67.75,0,0,0-4.73,13.4v.07a.72.72,0,0,0-.12.29v.07c-.07.08-.05.22-.05.29A.24.24,0,0,0,149.68,377.33Zm-.18.36c0,.14-.05.29,0,.36l.22-.72Zm1.65,7.13a.4.4,0,0,0-.12.22A.74.74,0,0,0,151.15,384.82Zm.06-.15-.06.15A.23.23,0,0,0,151.21,384.67Z" fill="#444242"/><path d="M194.81,386.8a51.57,51.57,0,0,1-2.07,6.26,53.18,53.18,0,0,1-3.17,6.52c-1,1.78-2.37,4.05-4.37,4.73-2.27.8-4.44-.82-5.54-2.76-2.31-3.78-1.84-8.24-1.24-12.35a9.65,9.65,0,0,1-.11-1.11c-.52,1.14-1.28,2.53-1.74,3.6-.61,1.44-1,2.84-1.71,4.23-.31.68-4.83,8.4-5.77,7.36,0,0,.76-.48.67-.6a3.58,3.58,0,0,1-2.81.88c.22.1.37.15.3.16-1.54.46-3.18-1.81-3.71-2.85a13.69,13.69,0,0,1-1-6,32.78,32.78,0,0,1,2.81-12.53,10.64,10.64,0,0,1,1.74-2.75,12.82,12.82,0,0,1,1.49-1.23,5,5,0,0,1,3.17-2.21c3.36-.55,5.37,3.07,6.48,5.57,1.3-2.4,3.79-5.7,6.84-3,1.64,1.42.95,2.8.44,4.44a32.45,32.45,0,0,0-1.6,8.3c0-.22.07-1.28.34-1.4.52-.22-1.88,16.11,3.77,6.23,1.69-3,3.08-6.15,4.48-9.27.61-1.44,1.21-3,1.89-4.4.32-.62,1.34-2.12,1.66-.62S195.15,385.4,194.81,386.8Zm-18.28-2.23c-.09-.55-2.08-4.1-1.78-4.44.06-.07,1,1.82,1.09,1.94-.34-.79-1-3.29-2.27-3.08-2.26.37-3.29,4.84-3.79,6.54a40.61,40.61,0,0,0-1.56,10.28c0-1.07,2-14.15,3.23-14.29-.93.37-2.84,11.54-2.89,12.54,0,.57-.56,4.32.53,4.49.72.1,2-2.3,2.28-2.84q1.57-2.68,2.9-5.55l1.37-2.84c.2-.52.47-1.06.73-1.6A1.42,1.42,0,0,0,176.53,384.57Zm.13-.52.11.69C177,384.5,176.91,384.3,176.66,384.05Zm2.19,3-.27.54c0,.22-.08,1.21-.08,1.21Z" fill="#444242"/><path d="M230.18,376.33l-4.75,6.1c-1.69,2.2-3.36,4.47-4.94,6.79a20.72,20.72,0,0,0-2.24,3.19c-.44,1.11-.22,3.21-.35,4.46-.58,8.52-.92,17.42-3.51,25.64-.83,2.5-1.35,5.06-4,6.41a8.34,8.34,0,0,1-9.05-1.24c-3.56-2.86-1.58-7.71-.12-11.15a98,98,0,0,1,4.59-9.71c1.26-2.17,2.68-4.31,4.09-6.44,1-1.6,2.85-3.63,3.33-5.47.59-2.29.32-5.16.53-7.58.08-2,.23-4.07.37-6.11-.88,1.08-1.38,2.85-2.15,4.11l-3.38,5.55A16.26,16.26,0,0,1,204.5,396c-.37.23-2.55,1.91-2.63,1.85l.1-.16-.37.23c.47-.11-.68.74-.95.81a3.51,3.51,0,0,1-2.25.18,5.15,5.15,0,0,1-3.2-3.16c-.19-.46-1-4.85-.27-5,.13,0,0,.42.18.46a11.47,11.47,0,0,1-.09-1.56l-.1.17c-.36,0,.37-7.33.42-8a31.7,31.7,0,0,1,.69-4.54c.17-.47.48-.69.58-1.15.1-.17.19-.69.33-1a3.53,3.53,0,0,1,3.82-2.86c.81.09,2.05.79,2.06,1.72,0,.44-.34.66-.48,1,.07,0,.12-.1.19-.11a4.91,4.91,0,0,1-.47,2.48c-.14,0-.07-.56-.06-.85a82.48,82.48,0,0,0-1.65,10.65c.18-1.34,1.05-7.21,1.27-7.19s-3.32,14.64.17,14.86c1.25.13,2.89-2.56,3.48-3.35a55.8,55.8,0,0,0,4.5-6c-.12.1-.22.26-.42.31.07,0,2.31-4.64,2.65-5.3.84-1.56,2.44-3.53,2.57-5.35,0-1,0-1.72,1.37-2.34,1.55-.67,4.17-.51,4.95,1.23a3,3,0,0,1-.1,2.25,59.34,59.34,0,0,0-2.63,11.89c2.48-3.4,5-6.79,7.65-10.1.92-1.23,1.94-2.34,2.87-3.56.52-.78,2.11-3.38,2.84-1.27C232,374.53,230.9,375.44,230.18,376.33Zm-17.35,23.85a72.47,72.47,0,0,0-5.66,10.33c-1.59,3.47-3.52,7.3-3.65,11.21-.05,1.58,1.24,6,3.72,4.39,1.3-.82,1.84-3,2.29-4.42a43.35,43.35,0,0,0,1.25-5.18.59.59,0,0,0,0-.22.06.06,0,0,1,0-.08l0-.07.14-.61v-.06C211.87,410.37,212.34,405.24,212.83,400.18ZM214.31,416l.35-1.23a17,17,0,0,0,.6-4,14,14,0,0,0-.61,2.8A23.13,23.13,0,0,0,214.31,416Zm.25-4.57-.17.47A1.42,1.42,0,0,0,214.56,411.44Zm.32-7a5.2,5.2,0,0,1-.08,2.6,5.26,5.26,0,0,0-.13,1.82l.49-3.27A2.3,2.3,0,0,0,214.88,404.48Z" fill="#444242"/><path d="M241.08,339.91c-.07,1.91-.27,3.87-.41,5.8-.25,3.72-.27,7.44-.37,11.18-.17,6.1.25,12.23-.06,18.36-.09,1.13.07,7.12-2.13,5.9-1.39-.74-1.23-4.5-1.35-5.85-.11-1.79,0-3.57-.11-5.35-.45-7.66-1.13-15.38-2-23-.31-2-.3-4.06-.8-6-.33-1.06-.72-1.89,0-3.06,1.42-2.25,5.82-2.87,7-.18l0,.07A11,11,0,0,1,241.08,339.91Zm1,49.2c-.14,1.21-.7,1.74-1.37,2.89-.57,1-1,2.05-2.44,1.77a6.51,6.51,0,0,1-2.48-1.21c-1.54-1.71.08-5.19,1.37-6.46a4.69,4.69,0,0,1,3.67-1.56c.36,0,.28-.3.73,0s.35,1.13.49,1.59C243,385.85,242.13,388.8,242.07,389.11Zm-4.27-30.87a18.48,18.48,0,0,0,.25,4.36,20.13,20.13,0,0,1,.2,3.29c0-1.81.51-3.8.3-5.7a47.79,47.79,0,0,0-.93-6.12l0-.06A37.65,37.65,0,0,1,237.8,358.24Zm.45,7.65a.52.52,0,0,0,0,.29A.52.52,0,0,1,238.25,365.89Z" fill="#444242"/></g></g></g></svg>