<svg xmlns="http://www.w3.org/2000/svg" viewBox="0 0 338.64 291.68"><g id="Layer_2" data-name="Layer 2"><g id="OBJECTS"><polygon points="20.55 23.5 67.15 113.82 109.64 72.21 20.55 23.5" fill="#78edea"/><path d="M21.78,24.52S34.2,2.3,35.85,6.1,21.78,24.52,21.78,24.52Z" fill="#6edbdb"/><path d="M21.8,24.53S19.22.47,24.19,1.46,21.8,24.53,21.8,24.53Z" fill="#444242"/><path d="M21.79,24.5S1.6,11.65,5.49,10.58,21.79,24.5,21.79,24.5Z" fill="#62c7f0"/><path d="M21.8,24.49S7.26-1.63,12.46.08,21.8,24.49,21.8,24.49Z" fill="#444242"/><path d="M21.82,24.52S1.71,37.19.41,32.18,21.82,24.52,21.82,24.52Z" fill="#444242"/><path d="M21.82,24.52S-1.91,22.86.12,20.11,21.82,24.52,21.82,24.52Z" fill="#6edbdb"/><polygon points="61.85 103.55 77.44 103.74 91.01 90.45 54.87 90.02 61.85 103.55" fill="#444242"/><polygon points="49.55 79.72 101.34 80.34 109.64 72.21 99.88 66.88 42.57 66.18 49.55 79.72" fill="#444242"/><polygon points="37.26 55.88 80.73 56.41 55.59 42.66 30.28 42.35 37.26 55.88" fill="#444242"/><polygon points="20.55 23.5 24.96 32.05 36.44 32.18 20.55 23.5" fill="#444242"/><ellipse cx="89.87" cy="94.5" rx="30.05" ry="14.46" transform="translate(-40.45 89.65) rotate(-44.31)" fill="#06b6ee"/><circle cx="159.29" cy="200.07" r="13.82" fill="#444242"/><polygon points="97.64 99.62 91.13 99.62 91.13 87.19 79.48 87.19 79.48 123.7 91.13 123.7 91.13 110.18 97.64 110.18 97.64 123.7 109.36 123.7 109.36 87.19 97.64 87.19 97.64 99.62" fill="#fff"/><polygon points="124.02 87.19 110.18 123.7 121.67 123.7 122.87 120.41 133.93 120.41 135.13 123.7 146.63 123.7 132.78 87.19 124.02 87.19" fill="#fff"/><path d="M171,90.37A15.2,15.2,0,0,0,165.64,88a26.65,26.65,0,0,0-6.54-.77H147.45V123.7H159.1V115a26.65,26.65,0,0,0,6.54-.77,15.2,15.2,0,0,0,5.31-2.41,11.42,11.42,0,0,0,3.59-4.29,16.46,16.46,0,0,0,0-12.87A11.5,11.5,0,0,0,171,90.37Z" fill="#fff"/><path d="M202.09,90.37A15.2,15.2,0,0,0,196.78,88a26.65,26.65,0,0,0-6.54-.77H178.59V123.7h11.65V115a26.65,26.65,0,0,0,6.54-.77,15.2,15.2,0,0,0,5.31-2.41,11.51,11.51,0,0,0,3.59-4.29,16.46,16.46,0,0,0,0-12.87A11.59,11.59,0,0,0,202.09,90.37Z" fill="#fff"/><polygon points="228.06 87.19 223.9 94.91 219.69 87.19 206.72 87.19 218.04 107.99 218.04 123.7 229.7 123.7 229.7 107.99 241.03 87.19 228.06 87.19" fill="#fff"/><path d="M79.48,87.19H91.13V99.62h6.52V87.19h11.71V123.7H97.65V110.18H91.13V123.7H79.48Zm6.89,32.13V105.47h16.09v13.85h1.42V91.57h-1.42v12.59H86.37V91.57H85v27.75Z" fill="#444242"/><path d="M124,87.19h8.76l13.85,36.51h-11.5l-1.2-3.29H122.87l-1.2,3.29H110.18Zm-5.69,32.13,1-2.74h18.06l1,2.74H140L129.44,91.57h-2.08L116.8,119.32ZM128.4,92.89l8.54,22.38H119.86Zm2.46,19.48L128.4,106l-2.46,6.4Z" fill="#444242"/><path d="M175.85,101.1a14.48,14.48,0,0,1-1.31,6.43,11.42,11.42,0,0,1-3.59,4.29,15.2,15.2,0,0,1-5.31,2.41,26.65,26.65,0,0,1-6.54.77v8.7H147.45V87.19H159.1a26.65,26.65,0,0,1,6.54.77A15.2,15.2,0,0,1,171,90.37a11.5,11.5,0,0,1,3.59,4.29A14.5,14.5,0,0,1,175.85,101.1Zm-5.31,0a9.86,9.86,0,0,0-.85-4.27,7.7,7.7,0,0,0-2.38-3,10.49,10.49,0,0,0-3.64-1.72,17,17,0,0,0-4.57-.58h-6.18v27.75h1.42v-8.7h4.76a17,17,0,0,0,4.57-.58,10.49,10.49,0,0,0,3.64-1.72,7.7,7.7,0,0,0,2.38-3A9.84,9.84,0,0,0,170.54,101.1Zm-1.53,0a8.51,8.51,0,0,1-.82,3.94,6.78,6.78,0,0,1-2.19,2.51,9.12,9.12,0,0,1-3.15,1.34,16.21,16.21,0,0,1-3.75.41h-4.76V92.89h4.76a16.21,16.21,0,0,1,3.75.41A9.12,9.12,0,0,1,166,94.64a6.78,6.78,0,0,1,2.19,2.51A8.53,8.53,0,0,1,169,101.1Zm-9.91,4h.5a4.42,4.42,0,0,0,3.31-1.06,4.92,4.92,0,0,0,0-6,4.42,4.42,0,0,0-3.31-1.06h-.5Z" fill="#444242"/><path d="M207,101.1a14.48,14.48,0,0,1-1.31,6.43,11.51,11.51,0,0,1-3.59,4.29,15.2,15.2,0,0,1-5.31,2.41,26.65,26.65,0,0,1-6.54.77v8.7H178.59V87.19h11.65a26.65,26.65,0,0,1,6.54.77,15.2,15.2,0,0,1,5.31,2.41,11.59,11.59,0,0,1,3.59,4.29A14.5,14.5,0,0,1,207,101.1Zm-5.31,0a9.86,9.86,0,0,0-.85-4.27,7.7,7.7,0,0,0-2.38-3,10.49,10.49,0,0,0-3.64-1.72,17,17,0,0,0-4.57-.58h-6.18v27.75h1.42v-8.7h4.76a17,17,0,0,0,4.57-.58,10.49,10.49,0,0,0,3.64-1.72,7.7,7.7,0,0,0,2.38-3A9.84,9.84,0,0,0,201.68,101.1Zm-1.53,0a8.64,8.64,0,0,1-.82,3.94,6.78,6.78,0,0,1-2.19,2.51,9.12,9.12,0,0,1-3.15,1.34,16.21,16.21,0,0,1-3.75.41h-4.76V92.89h4.76a16.21,16.21,0,0,1,3.75.41,9.12,9.12,0,0,1,3.15,1.34,6.78,6.78,0,0,1,2.19,2.51A8.65,8.65,0,0,1,200.15,101.1Zm-9.91,4h.5a4.42,4.42,0,0,0,3.31-1.06,4.92,4.92,0,0,0,0-6,4.42,4.42,0,0,0-3.31-1.06h-.5Z" fill="#444242"/><path d="M218,108l-11.33-20.8h13l4.21,7.72,4.16-7.72h13L229.7,108V123.7H218Zm6.57,11.33V106.24l8-14.67h-1.7l-7,13-7.06-13H215.2l7.93,14.67v13.08Z" fill="#444242"/><path d="M93.9,254.38,76.44,222.31h20l6.49,11.9,6.42-11.9h20l-17.46,32.07v24.21h-18ZM104,271.84V251.68l12.32-22.62h-2.62l-10.8,20-10.88-20H89.52l12.23,22.62v20.16Z" fill="#444242"/><path d="M129.34,250.49A28.68,28.68,0,0,1,131.66,239a29.53,29.53,0,0,1,15.74-15.74,29.54,29.54,0,0,1,22.95,0,30,30,0,0,1,9.41,6.33,29.68,29.68,0,0,1,6.32,9.41,29.54,29.54,0,0,1,0,23,29.68,29.68,0,0,1-6.32,9.41,30,30,0,0,1-9.41,6.33,29.54,29.54,0,0,1-22.95,0A29.53,29.53,0,0,1,131.66,262,28.73,28.73,0,0,1,129.34,250.49Zm7.93,0a20.94,20.94,0,0,0,1.69,8.4,21.74,21.74,0,0,0,11.52,11.52,21.82,21.82,0,0,0,16.79,0,21.83,21.83,0,0,0,11.52-11.52,21.82,21.82,0,0,0,0-16.79,21.83,21.83,0,0,0-11.52-11.52,21.7,21.7,0,0,0-16.79,0A21.74,21.74,0,0,0,139,242.1,20.9,20.9,0,0,0,137.27,250.49Zm21.6,19.41a18.79,18.79,0,0,1-7.55-1.52,19.73,19.73,0,0,1-6.16-4.17,20,20,0,0,1-4.18-6.16,19.66,19.66,0,0,1,0-15.11,20,20,0,0,1,4.18-6.16,19.73,19.73,0,0,1,6.16-4.17,19.51,19.51,0,0,1,15.1,0,19.73,19.73,0,0,1,10.34,10.33,19.54,19.54,0,0,1,0,15.11,19.73,19.73,0,0,1-10.34,10.33A18.79,18.79,0,0,1,158.87,269.9Zm-11.81-19.41a11.43,11.43,0,0,0,.93,4.6,11.83,11.83,0,0,0,6.28,6.29,11.84,11.84,0,0,0,9.2,0,11.91,11.91,0,0,0,3.76-2.53,12.08,12.08,0,0,0,2.53-3.76,11.82,11.82,0,0,0,0-9.19,12.08,12.08,0,0,0-2.53-3.76,11.91,11.91,0,0,0-3.76-2.53,11.84,11.84,0,0,0-9.2,0A11.83,11.83,0,0,0,148,245.9,11.41,11.41,0,0,0,147.06,250.49Z" fill="#444242"/><path d="M216.08,280a32.36,32.36,0,0,1-9.62-1.35,19.75,19.75,0,0,1-7.34-4.05,17.61,17.61,0,0,1-4.68-6.84,26.06,26.06,0,0,1-1.65-9.7V222.31h18v35a7.15,7.15,0,0,0,1.23,4.51c.81,1,2.18,1.56,4.09,1.56a4.9,4.9,0,0,0,4.09-1.56,7.15,7.15,0,0,0,1.22-4.51v-35h18.06v35.78a26.27,26.27,0,0,1-1.64,9.7,17.61,17.61,0,0,1-4.73,6.84,20.17,20.17,0,0,1-7.38,4.05A32.41,32.41,0,0,1,216.08,280Zm0-10.13q-12.66,0-12.66-12.4V229.06h-2.19V257.5q0,7.08,3.84,10.84t11,3.75q7.17,0,11-3.75T231,257.5V229.06h-2.28V257.5Q228.73,269.9,216.08,269.9Z" fill="#444242"/><path d="M154.67,196h-3.29v-.57h7.23V196h-3.28v8.86h-.66Z" fill="#fff"/><path d="M160.06,200.07c0-3,1.47-4.85,3.53-4.85s3.52,1.86,3.52,4.85-1.47,4.92-3.52,4.92S160.06,203.07,160.06,200.07Zm6.36,0c0-2.62-1.14-4.25-2.83-4.25s-2.83,1.63-2.83,4.25,1.14,4.32,2.83,4.32S166.42,202.7,166.42,200.07Z" fill="#fff"/><path d="M24.89,127.64S4,139.41.74,157.91l8.12-2.12.74,10s5.11-26.7,27.75-32Z" fill="#62c7f0"/><path d="M293.14,124.39s16.88,21.37,38.22,21.79l-3.81-8.74,11.09-2.59s-30.87-1-40.84-25.53Z" fill="#ff8cd3"/><path d="M126.43,54.71S128.86,71.32,151.91,74l2.39-6.44,14.09-.52s-33-4.23-25.53-22.19Z" fill="#ff7d9e"/><polygon points="74.74 276.16 65.95 272.83 58.22 278.18 58.67 268.79 51.19 263.1 60.26 260.62 63.37 251.75 68.52 259.61 77.92 259.82 72.04 267.15 74.74 276.16" fill="#e552a4"/><polygon points="217.83 64.56 220.56 59.43 217.88 54.28 223.6 55.28 227.68 51.14 228.49 56.9 233.68 59.49 228.46 62.04 227.6 67.79 223.56 63.61 217.83 64.56" fill="#fab680"/><path d="M267.07,102.84s-15.69,3.6-18.16-18.93a31,31,0,0,0,17.82-12.57s-5.22,20.74,13.43,19.27Z" fill="#ffe480"/><path d="M54.71,224s-7.21,1.66-8.35-8.7a14.25,14.25,0,0,0,8.19-5.78s-2.4,9.54,6.18,8.86Z" fill="#a0a0de"/><path d="M118.1,197.6s2.66,9.46-17.9,17.17c0,0-1.5-6.52-10.73-8.46,0,0,18.64-2.12,18-14.11Z" fill="#06b6ee"/><path d="M274.44,238.8s-4.33-7.54,13.88-22.74c0,0,2.66,5.33,11.85,3.42,0,0-17.42,9.35-14.57,20Z" fill="#ffa2be"/><path d="M296.14,83a5.83,5.83,0,1,1-.18,8.24A5.83,5.83,0,0,1,296.14,83Z" fill="#ff7d9e" fill-rule="evenodd"/><path d="M296.14,251.8A5.83,5.83,0,1,1,296,260,5.83,5.83,0,0,1,296.14,251.8Z" fill="#6edbdb" fill-rule="evenodd"/><path d="M311.86,201.39a5.82,5.82,0,1,1-.19,8.24A5.83,5.83,0,0,1,311.86,201.39Z" fill="#ffe480" fill-rule="evenodd"/><path d="M272.84,256.14s13,14.31,6.79,30.69l-6.29-3.48-5.63,8.33s8.65-23.72-9.18-32.93Z" fill="#fab680"/><polygon points="282.57 159.68 237.67 159.68 237.67 117.02 282.57 117.02 267.4 138.35 282.57 159.68" fill="#78edea" stroke="#fff" stroke-linecap="round" stroke-linejoin="round" stroke-width="2"/><polygon points="237.67 133.95 237.67 117.02 252.13 133.95 237.67 133.95" fill="#78edea" stroke="#fff" stroke-linecap="round" stroke-linejoin="round" stroke-width="2"/><polygon points="36.02 193.54 80.92 193.54 80.92 150.88 36.02 150.88 51.18 172.21 36.02 193.54" fill="#78edea" stroke="#fff" stroke-linecap="round" stroke-linejoin="round" stroke-width="2"/><rect x="66.46" y="133.95" width="185.66" height="42.66" stroke-width="2" stroke="#fff" stroke-linecap="round" stroke-linejoin="round" fill="#78edea"/><polygon points="80.92 176.61 80.92 193.54 66.46 176.61 80.92 176.61" fill="#78edea" stroke="#fff" stroke-linecap="round" stroke-linejoin="round" stroke-width="2"/><path d="M49.71,119.53s-8.17.71-8.76-16.24,8-3.4,3.14,3.56c-3.16,4.53-26.95,19.39-25.63-7,1.63-32.68,6.85-11.54,8.69-7.31,3.19,7.33-17,9.44-18.28-15.29" fill="none" stroke="#5b5b5f" stroke-linecap="round" stroke-miterlimit="10" stroke-width="2"/><path d="M291.92,175.37s-3.61,13.46,10.18,13.17c12.86-.27,6.9-17.79,2.28-17.41s6.17,15.17,14.88,6.38c7.94-8-.3-22.49-9.1-21.6" fill="none" stroke="#5b5b5f" stroke-linecap="round" stroke-miterlimit="10" stroke-width="2"/><path d="M95,163.93a9,9,0,0,1-3.1-2.28v2.48H88.45V138H92v11.42a7.24,7.24,0,0,1,3-2.08,10.7,10.7,0,0,1,4-.71,9.08,9.08,0,0,1,4.58,1.15,8.09,8.09,0,0,1,3.18,3.2,10.22,10.22,0,0,1,0,9.42,8,8,0,0,1-3.18,3.15A9.38,9.38,0,0,1,99,164.66,9.84,9.84,0,0,1,95,163.93Zm6.29-2.86a5.51,5.51,0,0,0,2.19-2.17,6.88,6.88,0,0,0,0-6.44,5.62,5.62,0,0,0-2.19-2.19,6.29,6.29,0,0,0-3.13-.78,6.61,6.61,0,0,0-3.85,1.17,5.73,5.73,0,0,0-2.3,3.11v3.82a6.05,6.05,0,0,0,2.32,3.09,6.47,6.47,0,0,0,3.83,1.15A6.39,6.39,0,0,0,101.3,161.07Z" fill="#fff"/><path d="M112.38,143.24a2,2,0,0,1-.6-1.49,2,2,0,0,1,.6-1.48,2,2,0,0,1,1.49-.6,2.14,2.14,0,0,1,1.54.6,2,2,0,0,1,.61,1.48,2,2,0,0,1-.61,1.49,2.14,2.14,0,0,1-1.54.6A2,2,0,0,1,112.38,143.24Zm-.32,3.92h3.65v17h-3.65Z" fill="#fff"/><path d="M120.62,147.16h3.46v3a6.26,6.26,0,0,1,3-2.3,12.54,12.54,0,0,1,4.47-.74V150a11.16,11.16,0,0,0-4.66.89,5,5,0,0,0-2.69,2.79v10.5h-3.57Z" fill="#fff"/><path d="M137.29,163.17a5.9,5.9,0,0,1-1.4-4.2v-9.05h-2.58v-2.76h2.58v-5.09h3.61v5.09h4.17v2.76H139.5v8.8a3.48,3.48,0,0,0,.65,2.4,3.16,3.16,0,0,0,2.39.71,5,5,0,0,0,2.05-.46v2.83a10.33,10.33,0,0,1-3.33.46A5.18,5.18,0,0,1,137.29,163.17Z" fill="#fff"/><path d="M148,138h3.57v11.49a8.09,8.09,0,0,1,6.5-2.86,6.57,6.57,0,0,1,5.06,1.8,6.91,6.91,0,0,1,1.66,4.85v10.85h-3.57v-10.5q0-4.14-4-4.14a6.57,6.57,0,0,0-3.17.8,7.07,7.07,0,0,0-2.52,2.42v11.42H148Z" fill="#fff"/><path d="M172.78,163.55a8,8,0,0,1-3.18-3.15,10.22,10.22,0,0,1,0-9.42,8.09,8.09,0,0,1,3.18-3.2,9.11,9.11,0,0,1,4.58-1.15q4.59,0,7,2.79V138h3.57v26.13h-3.46v-2.48a9,9,0,0,1-3.09,2.28,9.89,9.89,0,0,1-4,.73A9.41,9.41,0,0,1,172.78,163.55Zm9.23-2.87a6.09,6.09,0,0,0,2.31-3.09v-3.82a5.75,5.75,0,0,0-2.28-3.11,6.6,6.6,0,0,0-3.87-1.17,6.32,6.32,0,0,0-3.13.78,5.62,5.62,0,0,0-2.19,2.19,7,7,0,0,0,0,6.44,5.51,5.51,0,0,0,2.19,2.17,6.42,6.42,0,0,0,3.13.76A6.52,6.52,0,0,0,182,160.68Z" fill="#fff"/><path d="M193.11,163.09a5.29,5.29,0,0,1-1.86-4.26,5.45,5.45,0,0,1,1.79-4.37,7.51,7.51,0,0,1,5.07-1.54,11.61,11.61,0,0,1,5.94,1.42v-.89a3.58,3.58,0,0,0-1.22-3,6.12,6.12,0,0,0-3.84-1,15.09,15.09,0,0,0-3,.3,12.31,12.31,0,0,0-2.63.83v-2.9a11.14,11.14,0,0,1,2.75-.79,19,19,0,0,1,3.29-.3q4.22,0,6.24,1.85a6.62,6.62,0,0,1,2,5.15v10.5H204.3v-1.91a7.25,7.25,0,0,1-2.6,1.82,9.65,9.65,0,0,1-3.66.62A7.4,7.4,0,0,1,193.11,163.09Zm8.89-1.83a4.51,4.51,0,0,0,2.05-1.87v-2.3a9.24,9.24,0,0,0-5.13-1.48,4.93,4.93,0,0,0-3.06.79,2.91,2.91,0,0,0-1,2.43q0,3.1,4.06,3.11A6.93,6.93,0,0,0,202,161.26Z" fill="#fff"/><path d="M210.91,170.74V168a6.43,6.43,0,0,0,2.26.35,2.86,2.86,0,0,0,1.94-.62,5.35,5.35,0,0,0,1.28-2l.81-2-7.43-16.54h3.68l5.66,13,5.26-13h3.68L220.42,166a9.52,9.52,0,0,1-2.53,3.87,5.78,5.78,0,0,1-3.8,1.22A10.94,10.94,0,0,1,210.91,170.74Z" fill="#fff"/><path d="M274.18,158.58s20.63,4.7,18,6.91S274.18,158.58,274.18,158.58Z" fill="#facc6f"/><path d="M274.17,158.6s18.59-7.69,19-3.5S274.17,158.6,274.17,158.6Z" fill="#f7a670"/><path d="M274.19,158.58s5.53-19.11,7.3-16.26S274.19,158.58,274.19,158.58Z" fill="#f7a670"/><path d="M274.2,158.58s17.44-17.7,17.29-13.16S274.2,158.58,274.2,158.58Z" fill="#444242"/><path d="M274.19,158.61s-14.81-13.08-11.13-15.29S274.19,158.61,274.19,158.61Z" fill="#444242"/><path d="M274.19,158.61s-4.23-19.32-1.56-18.34S274.19,158.61,274.19,158.61Z" fill="#facc6f"/><path d="M256.75,240.09h0l0-.19a.43.43,0,0,0,0-.11l18-82.37-61,58.14-.19.18-.11.11h0a6.22,6.22,0,0,0-.93,1.23c-3.25,5.79,3.86,16,15.88,22.73s24.42,7.55,27.67,1.76A6.07,6.07,0,0,0,256.75,240.09Z" fill="#e852a6"/><path d="M237.36,224.05c8,4.51,16.2,6.36,21.73,5.38l2.19-10c-5.18-.11-11.7-2-18.13-5.62s-11.44-8.21-14.23-12.58l-7.44,7.09C223.52,213.52,229.34,219.54,237.36,224.05Z" fill="#facc6f"/><path d="M237.36,224.05c-8-4.51-13.84-10.53-15.88-15.77l-7.63,7.28-.19.18-.11.11h0a6.22,6.22,0,0,0-.93,1.23c-3.25,5.79,3.86,16,15.88,22.73s24.42,7.55,27.67,1.76a6.07,6.07,0,0,0,.58-1.48h0l0-.19a.43.43,0,0,0,0-.11l2.27-10.36C253.56,230.41,245.39,228.56,237.36,224.05Z" fill="#a0a0de"/><polygon points="221.49 208.28 221.49 208.28 222.71 207.11 221.49 208.28" fill="#facc6f"/><polygon points="259.09 229.43 259.09 229.43 261.28 219.39 261.28 219.39 259.09 229.43" fill="#facc6f"/><path d="M249,203.28a44.32,44.32,0,0,0,14.6,5.31l2.41-11a47.66,47.66,0,0,1-11.23-4.6,47.06,47.06,0,0,1-9.75-7.2l-8.15,7.76A44.29,44.29,0,0,0,249,203.28Z" fill="#facc6f"/><path d="M260.72,182.52a49.65,49.65,0,0,0,7.84,3.57l2.53-11.57a52,52,0,0,1-8.93-5l-8.57,8.17A50.55,50.55,0,0,0,260.72,182.52Z" fill="#facc6f"/><circle cx="218.88" cy="218.65" r="2.12" fill="#444242"/><circle cx="224.22" cy="226.52" r="2.12" fill="#444242"/><circle cx="232.24" cy="232.82" r="2.12" fill="#444242"/><circle cx="241.99" cy="236.51" r="2.12" fill="#444242"/><circle cx="251.58" cy="237.04" r="2.12" fill="#444242"/><path d="M237.36,224.05c8,4.51,16.2,6.36,21.73,5.38l2.19-10c-5.18-.11-11.7-2-18.13-5.62s-11.44-8.21-14.23-12.58l-7.44,7.09C223.52,213.52,229.34,219.54,237.36,224.05Z" fill="#facc6f"/></g></g></svg>