<svg xmlns="http://www.w3.org/2000/svg" viewBox="0 0 343.26 390.99"><g id="Layer_2" data-name="Layer 2"><g id="OBJECTS"><path d="M260.82,90.64s-51,50.76,5.43,75.87,54.52,36.22,21.64,42.64,17.84,13.29,10.82,20.77" fill="none" stroke="#5b5b5f" stroke-linecap="round" stroke-miterlimit="10" stroke-width="2"/><path d="M260.23,91.73l-1-3.77-3.58,1.57-7.34,5.93s1,4.83,6,2.85c1.56,5.11,5.95,2.86,5.95,2.86Z" fill="#62c7f0"/><ellipse cx="278.08" cy="48.58" rx="48.04" ry="41.65" transform="translate(114.12 278.38) rotate(-64.4)" fill="#6edbdb"/><ellipse cx="275.25" cy="26.64" rx="19.5" ry="16.91" transform="translate(33.09 160.17) rotate(-34.4)" fill="#78edea"/><path d="M255.71,95.27a35.84,35.84,0,0,0,4.51,1.79V91.73l-1-3.77-3.58,1.57-4.15,3.35A37,37,0,0,0,255.71,95.27Z" fill="#06b6ee"/><path d="M313.3,17.66a52.49,52.49,0,0,1-4.64,31.58C297.2,73.16,271.09,84.5,250.34,74.56a37,37,0,0,1-14.46-12.41c2.26,13,9.75,24.14,21.45,29.75,20.75,9.94,46.86-1.4,58.32-25.33C323.82,49.52,322.34,30.68,313.3,17.66Z" fill="#62c7f0"/><path d="M255.8,187.88c.31,1.38-22.65,28.93,12.27,47.72s70.33,26.77,32.75,45.73-44.22.66-32.59-4.16,50.64,14.73,20.38,26.21-56.83,0-56.83,0" fill="none" stroke="#5b5b5f" stroke-linecap="round" stroke-miterlimit="10" stroke-width="2"/><path d="M254.51,190.45l-1.65-2.94-2.66,2.08-4.88,6.54s1.87,3.83,5.6,1.11c2.4,3.94,5.6,1.12,5.6,1.12Z" fill="#fab680"/><ellipse cx="260.23" cy="150.52" rx="41.5" ry="35.99" transform="translate(61.77 376.32) rotate(-78.73)" fill="#facc6f"/><ellipse cx="253.17" cy="132.76" rx="16.85" ry="14.61" transform="translate(-13.6 235.49) rotate(-48.73)" fill="#ffe480"/><path d="M251.49,194.39a32.86,32.86,0,0,0,4.16.53l-1.14-4.47-1.65-2.94-2.66,2.08-2.76,3.7A33.51,33.51,0,0,0,251.49,194.39Z" fill="#f58a78"/><path d="M283.1,117.11A45.44,45.44,0,0,1,286,144.53c-4.48,22.48-23.91,37.55-43.41,33.67a32,32,0,0,1-14.75-7.3c4.66,10.38,13.32,18.13,24.31,20.32,19.49,3.88,38.92-11.19,43.4-33.67C298.71,141.53,293.44,126.07,283.1,117.11Z" fill="#fab680"/><path d="M112.77,119.15a41.34,41.34,0,0,0,.22,4.71,17.91,17.91,0,0,0,.59,3.09,6.6,6.6,0,0,0,.82,2.21l-11.13-1.64a6.81,6.81,0,0,0,.82-1.92,24,24,0,0,0,.55-2.86,31.81,31.81,0,0,0,.26-4.55V93.25l-10.83-.6v24.22a37.42,37.42,0,0,0,.22,4.48,16.55,16.55,0,0,0,.59,3,6.09,6.09,0,0,0,.82,2.1l-11.13-1.64a6.06,6.06,0,0,0,.82-1.81,22.22,22.22,0,0,0,.55-2.71,28.92,28.92,0,0,0,.26-4.33V81.17a29.54,29.54,0,0,0-.26-4.36,24.29,24.29,0,0,0-.55-2.8,7.31,7.31,0,0,0-.82-1.93H95.7a6.1,6.1,0,0,0-.82,2.06A15,15,0,0,0,94.29,77a35.91,35.91,0,0,0-.22,4.37v8.84l10.83.53V81.65a32.71,32.71,0,0,0-.26-4.59,27,27,0,0,0-.55-3,7.91,7.91,0,0,0-.82-2H114.4a9.16,9.16,0,0,0-.82,2.13,29.87,29.87,0,0,0-.55,3,33,33,0,0,0-.26,4.64v37.3Z" fill="#444242"/><path d="M136.07,132.35a8.74,8.74,0,0,0,.66-1.86,18,18,0,0,0,.34-2.46,16.07,16.07,0,0,0-.26-3.65l-3.49-21-7.72-.59-4.89,23a8.25,8.25,0,0,0-.15,1.53v1.39a12.62,12.62,0,0,0,.07,1.4l-4-.59a6.82,6.82,0,0,0,.67-1.2,10.26,10.26,0,0,0,.56-1.42c.17-.55.36-1.16.56-1.83l10.31-48.79a29.3,29.3,0,0,0-1-3.17l-.44-1h8.53l4.6,27.28,4.6,27.89a18.8,18.8,0,0,0,.6,2.73c.24.82.49,1.53.74,2.15a16,16,0,0,0,.82,1.86Zm-3.2-31.72-3.11-18.19-3.64,17.72Z" fill="#444242"/><path d="M162.93,72.08a16.56,16.56,0,0,1,5.38.82,10.45,10.45,0,0,1,4.15,2.65,12.27,12.27,0,0,1,2.71,4.76,22.91,22.91,0,0,1,1,7c0,5-1.11,9-3.31,11.73s-5.3,4-9.31,3.7a5.85,5.85,0,0,1-2.34-.66,7.42,7.42,0,0,1-1.89-1.43v24.13c0,2.09.08,3.85.22,5.27a20.78,20.78,0,0,0,.6,3.45,7.76,7.76,0,0,0,.81,2.46l-11.13-1.64a8.08,8.08,0,0,0,.82-2.16,30.58,30.58,0,0,0,.56-3.23,42.1,42.1,0,0,0,.26-5.11V82.82a43.18,43.18,0,0,0-.26-5.15,32.45,32.45,0,0,0-.56-3.3,9.47,9.47,0,0,0-.82-2.29Zm.52,28.44a3,3,0,0,0,2.45-.94,6.88,6.88,0,0,0,1.48-2.83,21.54,21.54,0,0,0,.7-4.31c.13-1.67.19-3.42.19-5.25a24.62,24.62,0,0,0-.63-6,12.57,12.57,0,0,0-1.67-4A6.67,6.67,0,0,0,163.63,75a5.65,5.65,0,0,0-2.56-.69h-1.78v16a3.33,3.33,0,0,1,1.34-.93,3.07,3.07,0,0,1,1.63-.21,3.13,3.13,0,0,1,1.52.69,3.18,3.18,0,0,1,1,1.59,3.2,3.2,0,0,0-2.26.17,4.08,4.08,0,0,0-1.74,1.5,5.84,5.84,0,0,0-.9,2.34,6.13,6.13,0,0,0,.23,2.79,3.17,3.17,0,0,0,1.15,1.47A3.89,3.89,0,0,0,163.45,100.52Z" fill="#444242"/><path d="M193.05,72.08a15.53,15.53,0,0,1,5.38.88,10.34,10.34,0,0,1,4.16,2.82,13.55,13.55,0,0,1,2.71,5.08,26,26,0,0,1,1,7.53q0,8.06-3.3,12.53c-2.2,3-5.31,4.27-9.31,4a5.41,5.41,0,0,1-2.34-.7,7.14,7.14,0,0,1-1.89-1.52V128.5c0,2.24.07,4.12.22,5.65a23.82,23.82,0,0,0,.59,3.68,8.62,8.62,0,0,0,.82,2.62l-11.13-1.64a8.91,8.91,0,0,0,.81-2.33,31.89,31.89,0,0,0,.56-3.45,48.71,48.71,0,0,0,.26-5.49V83.59a49.55,49.55,0,0,0-.26-5.52,34.2,34.2,0,0,0-.56-3.54,10.08,10.08,0,0,0-.81-2.45Zm.52,30.4a2.82,2.82,0,0,0,2.45-1,7.53,7.53,0,0,0,1.48-3,24.51,24.51,0,0,0,.71-4.6c.12-1.79.18-3.66.18-5.62a27.92,27.92,0,0,0-.63-6.37,13.67,13.67,0,0,0-1.67-4.27,6.88,6.88,0,0,0-2.33-2.35,5.2,5.2,0,0,0-2.56-.74h-1.78V91.56a3.35,3.35,0,0,1,1.33-1,2.92,2.92,0,0,1,1.63-.23,3.08,3.08,0,0,1,1.53.74,3.43,3.43,0,0,1,1,1.69,3.07,3.07,0,0,0-2.27.19,4.26,4.26,0,0,0-1.74,1.61,6.52,6.52,0,0,0-.89,2.5,7,7,0,0,0,.22,3,3.41,3.41,0,0,0,1.15,1.57A3.66,3.66,0,0,0,193.57,102.48Z" fill="#444242"/><path d="M229.19,133.46q0,3.64.22,6.07a28.92,28.92,0,0,0,.59,3.94,9.82,9.82,0,0,0,.82,2.84l-11.13-1.64a10.78,10.78,0,0,0,.82-2.54c.19-.93.38-2.17.55-3.72a53.26,53.26,0,0,0,.26-5.91V112l-7.49-30.1a60.74,60.74,0,0,0-2.6-7.39c-.44-.94-.84-1.74-1.19-2.41h11.13a4.8,4.8,0,0,0-.7,2.46,9.64,9.64,0,0,0,.19,2.87l6.9,27.6,7.71-28.29c.1-.56.18-1.14.23-1.74s.07-1.11.07-1.53,0-1-.07-1.37h4.23a8.31,8.31,0,0,0-.82,1.49c-.25.49-.5,1-.74,1.64a11.75,11.75,0,0,0-.6,1.85l-8.38,31.39v25Z" fill="#444242"/><path d="M105.8,167a21.35,21.35,0,0,1,4.11,2.53,17,17,0,0,1,3.38,3.51,16.86,16.86,0,0,1,2.3,4.54,17.57,17.57,0,0,1,.84,5.58,17.38,17.38,0,0,1-1.33,7.3,11.3,11.3,0,0,1-3.54,4.51,11.89,11.89,0,0,1-5.2,2.12,21.8,21.8,0,0,1-6.36,0l-14.91-2a5.65,5.65,0,0,0,.8-2,22.64,22.64,0,0,0,.61-2.94,31.87,31.87,0,0,0,.28-4.68V148a33.55,33.55,0,0,0-.28-4.76,26.09,26.09,0,0,0-.61-3.1,7.53,7.53,0,0,0-.8-2.21l14.26,2a23,23,0,0,1,5.84,1.53,14.28,14.28,0,0,1,4.52,2.91,12.62,12.62,0,0,1,2.94,4.47,17.08,17.08,0,0,1,1,6.25,14.33,14.33,0,0,1-2,7.93A9.28,9.28,0,0,1,105.8,167Zm-10.48-2.39,4.51.61a3.37,3.37,0,0,0,2.66-.6,5.51,5.51,0,0,0,1.66-2.35,13.53,13.53,0,0,0,.8-3.72c.13-1.45.2-3,.2-4.6a17.63,17.63,0,0,0-.72-5.37,12.5,12.5,0,0,0-1.86-3.71,8.32,8.32,0,0,0-2.53-2.28,8,8,0,0,0-2.78-1l-1.94-.26Zm4.51,30.48a4.67,4.67,0,0,0,3.11-.71,8.12,8.12,0,0,0,2.58-2.71,15.72,15.72,0,0,0,1.73-4.26,21.54,21.54,0,0,0,.64-5.44,17,17,0,0,0-3.54-10.63,12.86,12.86,0,0,0-3.43-3.08,9.64,9.64,0,0,0-3.66-1.38l-1.94-.26v19a4.33,4.33,0,0,1,1.61-.67,5.58,5.58,0,0,1,2.62.36,2.72,2.72,0,0,1,1.74,1.92,4.11,4.11,0,0,0-2.42-.09,4.19,4.19,0,0,0-1.9,1.14,3.76,3.76,0,0,0-1,2,4.86,4.86,0,0,0,.28,2.51,3.37,3.37,0,0,0,1.21,1.4A5,5,0,0,0,99.83,195.13Z" fill="#444242"/><path d="M130.21,191.4a39.18,39.18,0,0,0,.24,4.74,16.39,16.39,0,0,0,.65,3.09,6.09,6.09,0,0,0,.89,2.21l-12.09-1.62a6.79,6.79,0,0,0,.89-2,24.1,24.1,0,0,0,.6-2.93,31.63,31.63,0,0,0,.28-4.67V152.8a33.15,33.15,0,0,0-.28-4.74,28.14,28.14,0,0,0-.6-3.1,9.22,9.22,0,0,0-.89-2.21L132,144.41a4.58,4.58,0,0,0-.89,2,14,14,0,0,0-.65,2.92,37.6,37.6,0,0,0-.24,4.67V191.4Z" fill="#444242"/><path d="M163.73,196.71a36.26,36.26,0,0,0,2,5.76,8.94,8.94,0,0,0,2.82,3.39,6.18,6.18,0,0,1-2.7.6,17,17,0,0,1-2.46-.09,10.66,10.66,0,0,1-5-2.4,9.73,9.73,0,0,1-2.94-5.32l-4.91-24.57a8.23,8.23,0,0,1-4.11-2.08v21.58a39,39,0,0,0,.24,4.73,16.48,16.48,0,0,0,.64,3.09,6.27,6.27,0,0,0,.89,2.21L136.09,202a6.54,6.54,0,0,0,.89-2,20.78,20.78,0,0,0,.6-2.93,31.31,31.31,0,0,0,.29-4.66V155a33.18,33.18,0,0,0-.29-4.74,24.24,24.24,0,0,0-.6-3.09,8.82,8.82,0,0,0-.89-2.21l14.27,2a23.67,23.67,0,0,1,5.84,1.52,14.24,14.24,0,0,1,4.51,2.91,12.53,12.53,0,0,1,2.94,4.45,16.75,16.75,0,0,1,1,6.23q0,5.7-2.82,8.92a10.59,10.59,0,0,1-8,3.4,15.4,15.4,0,0,1,1.94,1.39,14.35,14.35,0,0,1,2,2.12,16.63,16.63,0,0,1,1.85,2.94,16.17,16.17,0,0,1,1.33,3.82Zm-16.44-26.84a3.48,3.48,0,0,0,1.25,1.42,5,5,0,0,0,2.3.91,3.38,3.38,0,0,0,2.66-.6,5.44,5.44,0,0,0,1.65-2.34,13.82,13.82,0,0,0,.81-3.7c.13-1.45.2-3,.2-4.58a18.15,18.15,0,0,0-.69-5.35,11.72,11.72,0,0,0-1.81-3.7,8.45,8.45,0,0,0-2.54-2.27,7.9,7.9,0,0,0-2.78-1l-1.93-.26v14.28a3.26,3.26,0,0,1,1.45-.68,3.78,3.78,0,0,1,1.77,0,4.15,4.15,0,0,1,1.61.74,3.44,3.44,0,0,1,1.13,1.56,4.24,4.24,0,0,0-2.46-.1,3.81,3.81,0,0,0-1.89,1.15,4.28,4.28,0,0,0-1,2A4.66,4.66,0,0,0,147.29,169.87Z" fill="#444242"/><path d="M201.44,154l-.72,7.82-1.85-.26c-.27-1-.53-2-.77-2.74a4.84,4.84,0,0,0-1.17-2,6.27,6.27,0,0,0-2.25-1.39,18.61,18.61,0,0,0-4-.91v45a38.94,38.94,0,0,0,.24,4.72,15.76,15.76,0,0,0,.64,3.08,6.21,6.21,0,0,0,.89,2.2l-12.09-1.62a7.78,7.78,0,0,0,.89-2,23.88,23.88,0,0,0,.6-2.92,31.25,31.25,0,0,0,.29-4.65V153.32a17,17,0,0,0-4-.19,4.44,4.44,0,0,0-2.26.77,3.33,3.33,0,0,0-1.17,1.68c-.24.71-.5,1.56-.76,2.54l-1.86-.26-.72-8Z" fill="#444242"/><path d="M236.41,205.69a38.34,38.34,0,0,0,.25,4.7,15.64,15.64,0,0,0,.64,3.07,6.21,6.21,0,0,0,.89,2.2L226.1,214a6.84,6.84,0,0,0,.89-2,23.26,23.26,0,0,0,.6-2.91,31.14,31.14,0,0,0,.28-4.63V179.17l-11.76-1.6V203a38.58,38.58,0,0,0,.24,4.7,16.36,16.36,0,0,0,.64,3.08,6.21,6.21,0,0,0,.89,2.2l-12.09-1.62a6.58,6.58,0,0,0,.89-2,21.68,21.68,0,0,0,.61-2.91,32.81,32.81,0,0,0,.28-4.64V164.58a34.47,34.47,0,0,0-.28-4.72,26.05,26.05,0,0,0-.61-3.08,8.89,8.89,0,0,0-.89-2.2l12.09,1.67a5.41,5.41,0,0,0-.89,2,14,14,0,0,0-.64,2.91,36.25,36.25,0,0,0-.24,4.56V175l11.76,1.61v-9.26a32.89,32.89,0,0,0-.28-4.71,27.87,27.87,0,0,0-.6-3.07,9.3,9.3,0,0,0-.89-2.2l12.09,1.67a7.53,7.53,0,0,0-.89,2,23.79,23.79,0,0,0-.6,2.91,30,30,0,0,0-.29,4.58v37.16Z" fill="#444242"/><path d="M112.77,210.4a25.77,25.77,0,0,1,9,3,27.2,27.2,0,0,1,7.19,5.75,26.13,26.13,0,0,1,4.75,7.59,22.48,22.48,0,0,1,1.72,8.68v42.93a20.75,20.75,0,0,1-1.72,8.44,21.63,21.63,0,0,1-4.75,6.92,22.18,22.18,0,0,1-7.19,4.72,23.2,23.2,0,0,1-9,1.75H85.18a12.73,12.73,0,0,0,1.45-3.43,40.81,40.81,0,0,0,1-4.92,53.08,53.08,0,0,0,.46-7.69V222.94a54.36,54.36,0,0,0-.46-7.75,44.72,44.72,0,0,0-1-5.07,15,15,0,0,0-1.45-3.63ZM121.48,234a33.17,33.17,0,0,0-.6-5.62,21.81,21.81,0,0,0-2.37-6.67,19.64,19.64,0,0,0-4.89-5.85,15.57,15.57,0,0,0-8-3.24l-3.56-.49v70.62a11.29,11.29,0,0,1,2.63-1.21,9.17,9.17,0,0,1,4.29.12,3.8,3.8,0,0,1,2.84,2.74,7.1,7.1,0,0,0-4,.29,7.28,7.28,0,0,0-3.11,2.16,7.78,7.78,0,0,0-1.58,3.37,6.44,6.44,0,0,0,.53,4,4.17,4.17,0,0,0,1.91,1.93,7,7,0,0,0,3.63.92h1.06a6.75,6.75,0,0,0,5-2.11,17.5,17.5,0,0,0,3.5-5.17,28.64,28.64,0,0,0,2-6.34,29,29,0,0,0,.66-5.53Z" fill="#444242"/><path d="M172.69,300.21a11.61,11.61,0,0,0,1.19-2.63,19.18,19.18,0,0,0,.59-3.37,15.17,15.17,0,0,0-.46-4.86l-6.2-28.29-13.73-.93-8.71,33.72a10.36,10.36,0,0,0-.26,2.28v2a14.68,14.68,0,0,0,.13,2h-7.13a11.79,11.79,0,0,0,1.19-1.94,17,17,0,0,0,1-2.24c.3-.84.63-1.78,1-2.83l18.34-70.3a42,42,0,0,0-1.71-4.69l-.79-1.52,15.18,2.15,8.18,37.09,8.18,36a17.44,17.44,0,0,0,1.06,3.4A23.55,23.55,0,0,0,191,298a14.91,14.91,0,0,0,1.45,2.22ZM167,257.3l-5.55-25.51L155,256.41Z" fill="#444242"/><path d="M220.61,287.51a39.3,39.3,0,0,0,.39,6.09,16.32,16.32,0,0,0,1.06,3.89,6.42,6.42,0,0,0,1.45,2.72h-19.8a9.71,9.71,0,0,0,1.45-2.81,28.5,28.5,0,0,0,1-4,34.49,34.49,0,0,0,.47-6.24V265.62l-13.34-33.09a64.13,64.13,0,0,0-4.62-8.69c-.79-1.15-1.49-2.14-2.11-3l19.8,2.8a3.19,3.19,0,0,0-1.25,2.42,6.31,6.31,0,0,0,.33,3.07l12.27,29.57,13.73-27a9.58,9.58,0,0,0,.4-1.64,11,11,0,0,0,.13-1.47,7.19,7.19,0,0,0-.13-1.35l7.52,1.06a7,7,0,0,0-1.45,1.22,17.79,17.79,0,0,0-1.32,1.39,7.51,7.51,0,0,0-1.06,1.64l-14.91,29.72v25.19Z" fill="#444242"/><polygon points="273.65 359.83 233.96 359.83 233.96 325.49 273.65 325.49 260.24 342.66 273.65 359.83" fill="#444242" stroke="#fff" stroke-linejoin="round" stroke-width="2"/><polygon points="233.96 346.2 233.96 359.83 246.74 346.2 233.96 346.2" fill="#444242" stroke="#fff" stroke-linejoin="round" stroke-width="2"/><polygon points="55.73 359.83 95.42 359.83 95.42 325.49 55.73 325.49 69.14 342.66 55.73 359.83" fill="#444242" stroke="#fff" stroke-linejoin="round" stroke-width="2"/><rect x="82.65" y="311.86" width="164.09" height="34.34" fill="#444242" stroke="#fff" stroke-linejoin="round" stroke-width="2"/><polygon points="95.42 346.2 95.42 359.83 82.64 346.2 95.42 346.2" fill="#444242" stroke="#fff" stroke-linejoin="round" stroke-width="2"/><path d="M127.51,325.49H123V323.7h11.15v1.79h-4.51v12.72h-2.13Z" fill="#fff"/><path d="M138.2,337.58a6.84,6.84,0,0,1-2.74-2.67,8.26,8.26,0,0,1,0-7.88,6.86,6.86,0,0,1,2.74-2.68,8.4,8.4,0,0,1,7.8,0,6.92,6.92,0,0,1,2.74,2.68,8.26,8.26,0,0,1,0,7.88,6.9,6.9,0,0,1-2.74,2.67,8.56,8.56,0,0,1-7.8,0Zm6.69-1.66a5,5,0,0,0,2-2,6.45,6.45,0,0,0,0-5.94,5,5,0,0,0-2-2,6,6,0,0,0-5.59,0,5.12,5.12,0,0,0-2,2,5.89,5.89,0,0,0-.73,3,6,6,0,0,0,.72,3,5.09,5.09,0,0,0,2,2,6,6,0,0,0,5.58,0Z" fill="#fff"/><path d="M164.55,332.71l-5.27-9h2.26l4.05,7,4.11-7h2.24l-5.33,9v5.5h-2.06Z" fill="#fff"/><path d="M175.78,337.58a7,7,0,0,1-2.74-2.67,8.34,8.34,0,0,1,0-7.88,7,7,0,0,1,2.74-2.68,8.42,8.42,0,0,1,7.81,0,7,7,0,0,1,2.74,2.68,8.34,8.34,0,0,1,0,7.88,7,7,0,0,1-2.74,2.67,8.58,8.58,0,0,1-7.81,0Zm6.7-1.66a5.13,5.13,0,0,0,2-2,6.45,6.45,0,0,0,0-5.94,5,5,0,0,0-2-2,5.65,5.65,0,0,0-2.78-.7,5.77,5.77,0,0,0-2.82.69,5.09,5.09,0,0,0-2,2,5.89,5.89,0,0,0-.73,3,6,6,0,0,0,.72,3,5.13,5.13,0,0,0,2,2,6,6,0,0,0,5.59,0Z" fill="#fff"/><path d="M191,337a5.71,5.71,0,0,1-1.52-4.2v-9.1h2.12v9.18a3.59,3.59,0,0,0,1,2.79,4.73,4.73,0,0,0,5.66,0,3.59,3.59,0,0,0,1-2.79V323.7h2.12v9.1A5.72,5.72,0,0,1,200,337a7.31,7.31,0,0,1-8.94,0Z" fill="#fff"/><path d="M204,338.17a1.23,1.23,0,0,1,1.75-1.74,1.21,1.21,0,0,1,0,1.74,1.27,1.27,0,0,1-1.75,0Zm-.12-14.47h2v10.36h-2Z" fill="#fff"/><path d="M55.49,220s51,50.77-5.43,75.88-54.52,36.22-21.64,42.64S10.58,351.84,17.6,359.32" fill="none" stroke="#5b5b5f" stroke-linecap="round" stroke-miterlimit="10" stroke-width="2"/><path d="M69.53,230.81l-3.21-2-1.45,3.47-1.18,9s3.91,2.72,6-2c4.48,2.52,6.05-2,6.05-2Z" fill="#e552a4"/><ellipse cx="53.32" cy="188.86" rx="40.11" ry="46.26" transform="translate(-55.78 25.74) rotate(-18.01)" fill="#ff7d9e"/><ellipse cx="36.78" cy="175.45" rx="18.78" ry="16.28" transform="translate(-142.48 174.97) rotate(-78.01)" fill="#ffa2be"/><path d="M68.74,236.28a35,35,0,0,0,4.33-1.75l-3.54-3.72-3.21-2-1.45,3.47-.67,5.1A35.47,35.47,0,0,0,68.74,236.28Z" fill="#c4488e"/><path d="M57.34,143.92A50.55,50.55,0,0,1,75.08,169c7.9,24.3-2.78,49.55-23.84,56.39a35.65,35.65,0,0,1-18.33,1c10.19,7.54,22.83,10.36,34.71,6.49,21.07-6.85,31.74-32.09,23.85-56.39C85.84,159.14,72.29,147,57.34,143.92Z" fill="#e552a4"/><path d="M272.37,307.11s18.7,23.66,42.33,24.13l-4.22-9.68,12.27-2.86s-34.18-1.16-45.21-28.27Z" fill="#78edea"/><path d="M9.61,295.75s2.27,23.86,17.85,34.36l1.35-8.28,9.43,3.38s-22.32-15.51-18-38.37Z" fill="#06b6ee"/><path d="M75.58,38.1S54.71,49.87,51.43,68.37l8.12-2.13.74,10S65.4,49.54,88,44.2Z" fill="#62c7f0"/><path d="M218.5,245.23S235.39,266.6,256.73,267l-3.81-8.74L264,255.7s-30.87-1-40.84-25.53Z" fill="#ff8cd3"/><path d="M131.17,378.79s11.87,17.46,39.45,7.88l-.83-8.61,15.65-8.32s-39.68,13.35-41.08-11.09Z" fill="#ff7d9e"/><polygon points="132.86 55.68 124.07 52.35 116.34 57.7 116.79 48.31 109.31 42.62 118.38 40.14 121.48 31.27 126.64 39.13 136.04 39.34 130.16 46.67 132.86 55.68" fill="#e552a4"/><path d="M325.29,248.38s-15.69,3.6-18.16-18.92A31,31,0,0,0,325,216.89s-5.22,20.74,13.43,19.26Z" fill="#ffe480"/><path d="M31.64,279.07s-12.08,2.77-14-14.57a23.94,23.94,0,0,0,13.72-9.68s-4,16,10.33,14.83Z" fill="#a0a0de"/><path d="M343.14,178.13s2.66,9.45-17.9,17.16c0,0-1.5-6.51-10.73-8.46,0,0,18.64-2.11,18-14.11Z" fill="#06b6ee"/><path d="M45.36,106.75s-7,10.8-39.29-2.78c0,0,5.19-7.11-3.57-17.88,0,0,24.12,16.52,36.18,5.54Z" fill="#ffa2be"/><path d="M58,117.35A9,9,0,1,1,57.73,130,9,9,0,0,1,58,117.35Z" fill="#cef287" fill-rule="evenodd"/><path d="M204.82,339.73a9,9,0,1,1-.28,12.65A9,9,0,0,1,204.82,339.73Z" fill="#cef287" fill-rule="evenodd"/><path d="M225.55,1.62a5.82,5.82,0,1,1-.19,8.23A5.82,5.82,0,0,1,225.55,1.62Z" fill="#ff7d9e" fill-rule="evenodd"/><path d="M87.62,381a5.82,5.82,0,1,1-.19,8.23A5.83,5.83,0,0,1,87.62,381Z" fill="#6edbdb" fill-rule="evenodd"/><path d="M283.71,352a5.82,5.82,0,1,1-.19,8.24A5.83,5.83,0,0,1,283.71,352Z" fill="#ffe480" fill-rule="evenodd"/><path d="M198.7,39.68s-8.88,32.82-39,39.08l-.79-12.6-17.67-.47S184.52,56.07,181.31,21Z" fill="#facc6f"/><path d="M322.58,115s13,14.31,6.79,30.69l-6.28-3.48-5.64,8.33s8.66-23.72-9.17-32.93Z" fill="#fab680"/><path d="M35.32,211.71S25.91,228.62,8.4,227.93l1.29-7.07L0,218.18s25.24.64,28.29-19.19Z" fill="#fab680"/></g></g></svg>