<svg xmlns="http://www.w3.org/2000/svg" xmlns:xlink="http://www.w3.org/1999/xlink" viewBox="0 0 422.1 206.89"><defs><clipPath id="clip-path" transform="translate(-6.05)"><rect x="251.71" y="57.73" width="116.73" height="62.29" transform="translate(109.64 -163.85) rotate(35.59)" fill="none"/></clipPath></defs><g id="Layer_2" data-name="Layer 2"><g id="OBJECTS"><path d="M383.49,140.82s16.3-36.66,19.44-30.92S383.49,140.82,383.49,140.82Z" transform="translate(-6.05)" fill="#ffc5d8"/><path d="M386.24,141.41s32.18-20.49,34.25-12.77S386.24,141.41,386.24,141.41Z" transform="translate(-6.05)" fill="#ffc5d8"/><path d="M386.14,144.05s38,1.62,34.71,6S386.14,144.05,386.14,144.05Z" transform="translate(-6.05)" fill="#ffc5d8"/><path d="M381.79,146.64s-12.62,38.1-16.25,32.5S381.79,146.64,381.79,146.64Z" transform="translate(-6.05)" fill="#ffc5d8"/><path d="M380.57,142.62S347,125.36,353,123.12,380.57,142.62,380.57,142.62Z" transform="translate(-6.05)" fill="#ffc5d8"/><path d="M386.29,146.67s47.7,20.15,41.26,21.8S386.29,146.67,386.29,146.67Z" transform="translate(-6.05)" fill="#ffc5d8"/><path d="M381.79,140.06s-26.57-38.92-18.17-37S381.79,140.06,381.79,140.06Z" transform="translate(-6.05)" fill="#ffc5d8"/><path d="M379,146.22s-29.74,22.78-32.5,15.11S379,146.22,379,146.22Z" transform="translate(-6.05)" fill="#ffc5d8"/><path d="M378.89,143.55s-37.49.81-34.7-3.79S378.89,143.55,378.89,143.55Z" transform="translate(-6.05)" fill="#ffc5d8"/><path d="M384.59,148.52s16.63,30.65,10,28.69S384.59,148.52,384.59,148.52Z" transform="translate(-6.05)" fill="#ffc5d8"/><path d="M321.46,158.19s20.41-45.92,24.34-38.74S321.46,158.19,321.46,158.19Z" transform="translate(-6.05)" fill="#ff7d9e"/><path d="M324.9,158.93s40.3-25.67,42.9-16S324.9,158.93,324.9,158.93Z" transform="translate(-6.05)" fill="#ff7d9e"/><path d="M324.78,162.24s47.55,2,43.47,7.46S324.78,162.24,324.78,162.24Z" transform="translate(-6.05)" fill="#ff7d9e"/><path d="M319.33,165.48S303.51,213.2,299,206.19,319.33,165.48,319.33,165.48Z" transform="translate(-6.05)" fill="#ff7d9e"/><path d="M317.8,160.45s-42-21.63-34.54-24.44S317.8,160.45,317.8,160.45Z" transform="translate(-6.05)" fill="#ff7d9e"/><path d="M325,165.51s59.75,25.24,51.69,27.31S325,165.51,325,165.51Z" transform="translate(-6.05)" fill="#ff7d9e"/><path d="M319.33,157.23s-33.28-48.74-22.76-46.31S319.33,157.23,319.33,157.23Z" transform="translate(-6.05)" fill="#ff7d9e"/><path d="M315.87,165s-37.26,28.53-40.71,18.93S315.87,165,315.87,165Z" transform="translate(-6.05)" fill="#ff7d9e"/><path d="M315.69,161.61s-47,1-43.46-4.76S315.69,161.61,315.69,161.61Z" transform="translate(-6.05)" fill="#ff7d9e"/><path d="M322.84,167.83s20.82,38.39,12.53,35.94S322.84,167.83,322.84,167.83Z" transform="translate(-6.05)" fill="#ff7d9e"/><path d="M384.24,49.69c-9.38-18.67-36-5.84-36-5.84C365.24,69,393.62,68.35,384.24,49.69Zm-31.31-5.52S382.19,42,381.07,55,352.93,44.17,352.93,44.17Z" transform="translate(-6.05)" fill="#444242"/><path d="M337.88,36.44s3.56-29.34-17.14-32.2S308.65,28.45,337.88,36.44ZM316.7,9c12-5.28,19.37,23.12,19.37,23.12S304.68,14.26,316.7,9Z" transform="translate(-6.05)" fill="#444242"/><circle cx="336.88" cy="40.5" r="12.77" fill="#444242"/><rect x="274.45" y="38.79" width="123.39" height="27.31" transform="translate(87.26 -185.83) rotate(35.59)" fill="#78edea"/><rect x="322.19" y="37.94" width="25.54" height="27.4" transform="translate(86.57 -185.29) rotate(35.59)" fill="#06b6ee"/><rect x="251.71" y="57.73" width="116.73" height="62.29" transform="translate(103.59 -163.85) rotate(35.59)" fill="#facc6f"/><rect x="267.55" y="62.81" width="116.73" height="7.86" transform="translate(93.67 -177.21) rotate(35.59)" fill="#fab680"/><g clip-path="url(#clip-path)"><circle cx="283.12" cy="42.08" r="3.66" fill="#444242"/><circle cx="306.32" cy="58.68" r="3.66" fill="#444242"/><circle cx="329.53" cy="75.29" r="3.66" fill="#444242"/><circle cx="352.73" cy="91.9" r="3.66" fill="#444242"/><circle cx="261.38" cy="47.94" r="3.66" fill="#444242"/><circle cx="284.58" cy="64.55" r="3.66" fill="#444242"/><circle cx="330.99" cy="97.76" r="3.66" fill="#444242"/><circle cx="354.2" cy="114.37" r="3.66" fill="#444242"/><circle cx="263.12" cy="70.02" r="3.66" fill="#444242"/><circle cx="286.33" cy="86.62" r="3.66" fill="#444242"/><circle cx="309.53" cy="103.23" r="3.66" fill="#444242"/><circle cx="332.74" cy="119.84" r="3.66" fill="#444242"/><circle cx="241.38" cy="75.88" r="3.66" fill="#444242"/><circle cx="264.59" cy="92.49" r="3.66" fill="#444242"/><circle cx="311" cy="125.7" r="3.66" fill="#444242"/><circle cx="334.2" cy="142.31" r="3.66" fill="#444242"/><circle cx="307.79" cy="81.15" r="3.66" fill="#444242"/></g><rect x="296.14" y="56.98" width="25.54" height="62.11" transform="translate(102.89 -163.33) rotate(35.59)" fill="#6edbdb"/><rect x="296.14" y="56.98" width="25.54" height="62.11" transform="translate(102.89 -163.33) rotate(35.59)" fill="#6edbdb"/><rect x="311.95" y="62.06" width="25.54" height="7.77" transform="translate(92.98 -176.66) rotate(35.59)" fill="#62c7f0"/><path d="M138.57,43.66S159.88-.75,162.19,5.87,138.57,43.66,138.57,43.66Z" transform="translate(-6.05)" fill="#cbffff"/><path d="M141.22,44.21S176,18.06,177,27.09,141.22,44.21,141.22,44.21Z" transform="translate(-6.05)" fill="#cbffff"/><path d="M140.75,47.34s37.43-.27,33.59,5.07S140.75,47.34,140.75,47.34Z" transform="translate(-6.05)" fill="#cbffff"/><path d="M136.07,50.66S118.2,96.57,115.39,90.14,136.07,50.66,136.07,50.66Z" transform="translate(-6.05)" fill="#cbffff"/><path d="M135.42,46S104.58,27.42,110.8,24.42,135.42,46,135.42,46Z" transform="translate(-6.05)" fill="#cbffff"/><path d="M140.53,50.43S185,71.58,178.4,73.92,140.53,50.43,140.53,50.43Z" transform="translate(-6.05)" fill="#cbffff"/><path d="M137,42.85S116.1-1.77,124.16.05,137,42.85,137,42.85Z" transform="translate(-6.05)" fill="#cbffff"/><path d="M133.39,50.32S100.69,79,99,70.11,133.39,50.32,133.39,50.32Z" transform="translate(-6.05)" fill="#cbffff"/><path d="M133.62,47.16s-37.3,3.11-33.88-2.51S133.62,47.16,133.62,47.16Z" transform="translate(-6.05)" fill="#cbffff"/><path d="M138.59,52.72s12.18,35.39,5.9,33.46S138.59,52.72,138.59,52.72Z" transform="translate(-6.05)" fill="#cbffff"/><path d="M65.66,73.85S93.72,15.36,96.77,24.09,65.66,73.85,65.66,73.85Z" transform="translate(-6.05)" fill="#78edea"/><path d="M69.15,74.56S115,40.13,116.25,52,69.15,74.56,69.15,74.56Z" transform="translate(-6.05)" fill="#78edea"/><path d="M68.53,78.69s49.29-.35,44.23,6.68S68.53,78.69,68.53,78.69Z" transform="translate(-6.05)" fill="#78edea"/><path d="M62.37,83.06s-23.53,60.45-27.23,52S62.37,83.06,62.37,83.06Z" transform="translate(-6.05)" fill="#78edea"/><path d="M61.52,76.88S20.91,52.46,29.1,48.51,61.52,76.88,61.52,76.88Z" transform="translate(-6.05)" fill="#78edea"/><path d="M68.24,82.76s58.58,27.86,49.87,30.93S68.24,82.76,68.24,82.76Z" transform="translate(-6.05)" fill="#78edea"/><path d="M63.59,72.78S36.07,14,46.69,16.42,63.59,72.78,63.59,72.78Z" transform="translate(-6.05)" fill="#78edea"/><path d="M58.84,82.62s-43.06,37.81-45.25,26.05S58.84,82.62,58.84,82.62Z" transform="translate(-6.05)" fill="#78edea"/><path d="M59.14,78.45S10,82.55,14.53,75.15,59.14,78.45,59.14,78.45Z" transform="translate(-6.05)" fill="#78edea"/><path d="M65.68,85.78s16,46.6,7.77,44.05S65.68,85.78,65.68,85.78Z" transform="translate(-6.05)" fill="#78edea"/><path d="M149.86,46.48l2.48-.57L154,53.18l8.84-2-1.68-7.27,2.47-.57,3.91,16.93-2.47.58-1.75-7.58-8.84,2,1.75,7.58-2.47.57Z" transform="translate(-6.05)" fill="#444242"/><path d="M175.08,41.89l2.42-.21,8.44,16.7-2.57.23-2.12-4.16-7.65.68-1.31,4.45-2.6.23Zm5.29,10.52-3.83-7.83L174.13,53Z" transform="translate(-6.05)" fill="#444242"/><path d="M188.85,41.11l6.69.27A6.56,6.56,0,0,1,199.91,43,5,5,0,0,1,201.38,47a4.9,4.9,0,0,1-1.78,3.92,6.74,6.74,0,0,1-4.5,1.18L191,52l-.27,6.63-2.53-.1ZM194.91,50a4.71,4.71,0,0,0,2.79-.6,2.88,2.88,0,0,0,1.12-2.47,2.89,2.89,0,0,0-.92-2.56,4.63,4.63,0,0,0-2.72-.85l-3.88-.16L191,49.84Z" transform="translate(-6.05)" fill="#444242"/><path d="M204.92,42l6.61,1a6.59,6.59,0,0,1,4.18,2.06,5,5,0,0,1,1,4.18,4.94,4.94,0,0,1-2.2,3.71,6.73,6.73,0,0,1-4.6.67L205.81,53l-1,6.56-2.51-.38Zm5,9.49a4.76,4.76,0,0,0,2.84-.3,2.85,2.85,0,0,0,1.39-2.33,3,3,0,0,0-.63-2.65,4.75,4.75,0,0,0-2.62-1.14l-3.84-.58-1,6.42Z" transform="translate(-6.05)" fill="#444242"/><path d="M222.65,56.29l-3.37-12,2.62.69,2.57,9.34,6.89-6.86,2.59.68L225,56.92l-1.67,6.37L221,62.67Z" transform="translate(-6.05)" fill="#444242"/><path d="M6.05,75.87H35.92q8.65,0,13.4,4.47t4.75,13a15.82,15.82,0,0,1-2.28,8.51,14,14,0,0,1-6,5.45q10.41,3.08,10.42,15.17a18.8,18.8,0,0,1-2.47,9.82A16.67,16.67,0,0,1,47,138.69a20.23,20.23,0,0,1-9.5,2.23H6.05Zm28.66,27.92a9.93,9.93,0,0,0,7.17-2.51q2.59-2.52,2.6-7.45,0-5.67-2.56-8T34.06,83.6H15.54v20.19Zm.65,29.41c3.66,0,6.46-.81,8.38-2.42s2.88-4.37,2.88-8.28-1-6.7-3-8.38-5-2.51-9.07-2.51h-19V133.2Z" transform="translate(-6.05)" fill="#444242"/><path d="M68,85.92a5.5,5.5,0,0,1,3.91-9.4,5.54,5.54,0,0,1,4,1.59,5.49,5.49,0,0,1,0,7.81,5.54,5.54,0,0,1-4,1.59A5.29,5.29,0,0,1,68,85.92Zm-.84,10.33h9.59v44.67H67.19Z" transform="translate(-6.05)" fill="#444242"/><path d="M89.71,96.25h9.12v8a16.27,16.27,0,0,1,7.87-6.05,32.44,32.44,0,0,1,11.77-2v7.36a29.59,29.59,0,0,0-12.29,2.32,13,13,0,0,0-7.07,7.35v27.64h-9.4Z" transform="translate(-6.05)" fill="#444242"/><path d="M133.59,138.41q-3.68-3.91-3.68-11.07V103.51h-6.79V96.25h6.79V82.85h9.5v13.4h11v7.26h-11v23.17q0,4.47,1.72,6.33c1.14,1.25,3.24,1.86,6.28,1.86a13.06,13.06,0,0,0,5.4-1.21v7.45a27.24,27.24,0,0,1-8.75,1.21Q137.26,142.32,133.59,138.41Z" transform="translate(-6.05)" fill="#444242"/><path d="M161.65,72.15h9.4V102.4q6.42-7.55,17.12-7.54,8.94,0,13.31,4.74t4.37,12.75v28.57h-9.4V113.28q0-10.89-10.42-10.88a17.14,17.14,0,0,0-8.33,2.09,18.64,18.64,0,0,0-6.65,6.37v30.06h-9.4Z" transform="translate(-6.05)" fill="#444242"/><path d="M227,139.39a21.16,21.16,0,0,1-8.37-8.28,26.91,26.91,0,0,1,0-24.81A21.71,21.71,0,0,1,227,97.88a24.15,24.15,0,0,1,12.06-3q12.09,0,18.33,7.35V72.15h9.4v68.77h-9.12v-6.51a23.78,23.78,0,0,1-8.14,6,26.34,26.34,0,0,1-10.47,1.91A24.74,24.74,0,0,1,227,139.39Zm24.29-7.54a16.08,16.08,0,0,0,6.1-8.14v-10a15.17,15.17,0,0,0-6-8.19,17.42,17.42,0,0,0-10.19-3.07,16.7,16.7,0,0,0-8.24,2,14.82,14.82,0,0,0-5.77,5.77,18.21,18.21,0,0,0,0,16.94,14.43,14.43,0,0,0,5.77,5.72,16.89,16.89,0,0,0,8.24,2A17.13,17.13,0,0,0,251.31,131.85Z" transform="translate(-6.05)" fill="#444242"/><path d="M280.53,138.18A14,14,0,0,1,275.65,127q0-7.44,4.7-11.49t13.35-4q9.23,0,15.64,3.73v-2.33q0-5.31-3.21-7.87T296,102.4a39.43,39.43,0,0,0-8,.79,32.21,32.21,0,0,0-6.93,2.18V97.74a29.72,29.72,0,0,1,7.26-2.09,49.34,49.34,0,0,1,8.65-.79q11.08,0,16.43,4.88t5.35,13.54v27.64H310v-5a18.9,18.9,0,0,1-6.84,4.79,25.25,25.25,0,0,1-9.63,1.63Q285.42,142.32,280.53,138.18Zm23.41-4.79a12,12,0,0,0,5.4-4.94v-6a24.4,24.4,0,0,0-13.5-3.9c-3.6,0-6.28.69-8,2.09s-2.65,3.52-2.65,6.37q0,8.19,10.7,8.19A18.37,18.37,0,0,0,303.94,133.39Z" transform="translate(-6.05)" fill="#444242"/><path d="M327.39,158.33V151a16.69,16.69,0,0,0,6,.93,7.51,7.51,0,0,0,5.11-1.62,14,14,0,0,0,3.35-5.26l2.15-5.21L324.41,96.25h9.68L349,130.59l13.87-34.34h9.68L352.42,146q-2.79,7-6.65,10.19a15.14,15.14,0,0,1-10,3.21A29.22,29.22,0,0,1,327.39,158.33Z" transform="translate(-6.05)" fill="#444242"/><path d="M159,172.37a3.69,3.69,0,0,1-.87-2.63V164.1h-1.6v-1.71h1.6v-3.18h2.25v3.18H163v1.71h-2.6v5.49a2.22,2.22,0,0,0,.41,1.5,2,2,0,0,0,1.49.44,3.09,3.09,0,0,0,1.27-.29V173a6.22,6.22,0,0,1-2.07.29A3.27,3.27,0,0,1,159,172.37Z" transform="translate(-6.05)" fill="#444242"/><path d="M168,172.62a5,5,0,0,1-2.11-1.94,5.65,5.65,0,0,1-.77-3,5.76,5.76,0,0,1,.75-3,5,5,0,0,1,2.12-2,7.54,7.54,0,0,1,6.3,0,5,5,0,0,1,2.12,2,6.22,6.22,0,0,1,0,6,4.92,4.92,0,0,1-2.12,1.94,7,7,0,0,1-3.15.67A6.94,6.94,0,0,1,168,172.62Zm5.87-2.15a4.37,4.37,0,0,0,0-5.59,4.1,4.1,0,0,0-5.46,0,4.34,4.34,0,0,0,0,5.59,4,4,0,0,0,5.46,0Z" transform="translate(-6.05)" fill="#444242"/><path d="M188,177.08v-1.74a3.87,3.87,0,0,0,1.41.22,1.74,1.74,0,0,0,1.21-.39,3.24,3.24,0,0,0,.8-1.24l.5-1.23-4.62-10.31h2.29l3.52,8.12,3.28-8.12h2.3L194,174.15a6,6,0,0,1-1.58,2.41,3.57,3.57,0,0,1-2.37.76A7,7,0,0,1,188,177.08Z" transform="translate(-6.05)" fill="#444242"/><path d="M201.69,172.62a5,5,0,0,1-2.11-1.94,5.65,5.65,0,0,1-.76-3,5.86,5.86,0,0,1,.74-3,5,5,0,0,1,2.12-2,7.54,7.54,0,0,1,6.3,0,5.13,5.13,0,0,1,2.13,2,6.22,6.22,0,0,1,0,6,5,5,0,0,1-2.13,1.94,7,7,0,0,1-3.15.67A6.94,6.94,0,0,1,201.69,172.62Zm5.87-2.15a4.37,4.37,0,0,0,0-5.59,4.1,4.1,0,0,0-5.46,0,4.34,4.34,0,0,0,0,5.59,4,4,0,0,0,5.46,0Z" transform="translate(-6.05)" fill="#444242"/><path d="M214.27,172.15a4.27,4.27,0,0,1-1.09-3.07v-6.69h2.22V169a2.24,2.24,0,0,0,2.54,2.53,3.91,3.91,0,0,0,3.48-2v-7.13h2.22V173h-2.16v-1.5a4.53,4.53,0,0,1-1.77,1.39,5.59,5.59,0,0,1-2.21.44A4.27,4.27,0,0,1,214.27,172.15Z" transform="translate(-6.05)" fill="#444242"/></g></g></svg>