<svg xmlns="http://www.w3.org/2000/svg" viewBox="0 0 583.82 463.33"><g id="Layer_2" data-name="Layer 2"><g id="Слой_1" data-name="Слой 1"><polygon points="499.17 172.35 512.61 338.34 326.85 343.09 337.13 167.61 499.17 172.35" fill="#76c1ff"/><polygon points="335.79 190.53 337.13 167.61 499.17 172.35 500.64 190.53 335.79 190.53" fill="#2a8ec6"/><path d="M428.67,155.75a128.4,128.4,0,0,1,41.89,50.59l-12.65-1.58-7.11,11.85a155.12,155.12,0,0,0-31.62-54.54Z" fill="#2a8ec6"/><path d="M416.49,155.75a154.23,154.23,0,0,0-50.27,60.7l15.18-1.89,8.53,14.23a187,187,0,0,1,19.92-41.74,185,185,0,0,1,18-23.71Z" fill="#2a8ec6"/><polygon points="434.36 162.07 439.1 345.46 398.79 349.41 408.27 167.61 434.36 162.07" fill="#ffdc78"/><polygon points="435.03 188.16 407.2 188.16 408.27 167.61 409.47 167.35 434.51 168.09 435.03 188.16" fill="#eac468"/><polygon points="509 151.01 512.61 180.25 327.64 180.25 327.64 143.1 509 151.01" fill="#45a4e5"/><path d="M416.75,158.29c9.08.79,48.11,3.31,67.18-21.15,2.43-3.12,11.66-15,7.58-24.3-4.22-9.67-20.33-11.1-29.45-10-16.44,2-26.57,14-30.75,19C419.52,135.77,417.28,151.38,416.75,158.29Zm20-15.74A45.5,45.5,0,0,1,443.4,132c3.25-3.86,10-11.88,19.87-13.34l.65-.09a30.82,30.82,0,0,1,12.39,1,32.06,32.06,0,0,1-4.85,7.85c-5.92,7.6-15.91,12.49-29.7,14.53h0C440.12,142.2,438.46,142.39,436.75,142.55Z" fill="#ffdc78"/><path d="M417.57,124.59c-2.48-4.78-8.48-16.38-21.44-21-7.19-2.55-20.49-4.34-25.68,2.72-5,6.81.3,18.09,1.7,21.06,11,23.3,43,28.4,50.53,29.42A53.65,53.65,0,0,0,417.57,124.59ZM405.42,139h0c-10.79-4.18-18-10-21.39-17.21a26.74,26.74,0,0,1-2.49-7.24A25.56,25.56,0,0,1,391.76,116l.51.19c7.72,3,11.72,10.72,13.65,14.44a37.83,37.83,0,0,1,3.44,9.8C408,140,406.69,139.52,405.42,139Z" fill="#ffdc78"/><path d="M428.82,149.43a127.51,127.51,0,0,1,19,16.6,128.9,128.9,0,0,1,22.92,34l-12.64-1.59q-3.56,5.94-7.11,11.86a156.16,156.16,0,0,0-16.6-34.78,154.24,154.24,0,0,0-15-19.76Z" fill="#ffdc78"/><path d="M416.65,149.43a154,154,0,0,0-50.27,60.7l15.17-1.9,8.54,14.23A186.43,186.43,0,0,1,428,157Z" fill="#ffdc78"/><polygon points="115.3 115.7 96.47 348.3 356.76 354.95 342.36 109.05 115.3 115.7" fill="#ff7381"/><polygon points="344.24 141.17 342.36 109.05 115.3 115.7 113.23 141.17 344.24 141.17" fill="#d3264f"/><path d="M217.2,92.44a179.84,179.84,0,0,0-58.71,70.89l17.73-2.22q5,8.31,10,16.62a217.5,217.5,0,0,1,44.3-76.43Z" fill="#d3264f"/><path d="M234.26,92.44a216.51,216.51,0,0,1,31.9,27.91A217.85,217.85,0,0,1,304.7,177.5l-21.27-2.65-12,19.93a262,262,0,0,0-27.91-58.48,260.89,260.89,0,0,0-25.25-33.23Z" fill="#d3264f"/><polygon points="206.12 101.3 199.48 358.27 255.96 363.81 242.67 109.05 206.12 101.3" fill="#ffca76"/><polygon points="205.18 137.85 244.18 137.85 242.67 109.05 241 108.7 205.9 109.72 205.18 137.85" fill="#f7b452"/><polygon points="101.53 85.79 96.47 126.78 355.65 126.78 355.65 74.72 101.53 85.79" fill="#ff4367"/><path d="M210.39,44.82c-5.86-7-20.06-23.81-43.09-26.54-12.78-1.52-35.35.48-41.27,14-5.72,13.08,7.22,29.68,10.63,34.05C163.37,100.64,218.07,97.11,230.8,96,230.05,86.31,226.92,64.44,210.39,44.82ZM195.75,73.11h0c-19.32-2.87-33.32-9.72-41.62-20.37-4.19-5.38-6-8.92-6.79-11a42.84,42.84,0,0,1,17.36-1.47l.91.12c13.82,2.05,23.29,13.29,27.84,18.69a63.16,63.16,0,0,1,9.31,14.85C200.38,73.73,198,73.45,195.75,73.11Z" fill="#ffca76"/><path d="M222.48,94c10.51-1.43,55.45-8.58,70.82-41.23,1.95-4.16,9.4-20,2.37-29.52-7.28-9.88-25.91-7.37-36-3.81-18.15,6.43-26.57,22.67-30,29.38C219.85,67.7,221.32,86,222.48,94Zm18.67-23A52.19,52.19,0,0,1,246,57.24C248.67,52,254.28,41.19,265.1,37l.71-.26a35.72,35.72,0,0,1,14.33-2,37.07,37.07,0,0,1-3.49,10.14C271.88,55,261.8,63.15,246.67,69h0C244.89,69.7,243,70.36,241.15,71Z" fill="#ffca76"/><path d="M213.87,83.58a180,180,0,0,0-58.7,70.89l17.72-2.22q5,8.31,10,16.62a217.27,217.27,0,0,1,44.31-76.43Z" fill="#ffca76"/><path d="M230.93,83.58a215.41,215.41,0,0,1,31.9,27.91,217.67,217.67,0,0,1,38.55,57.15L280.11,166q-6,10-12,19.94a261.63,261.63,0,0,0-27.92-58.48A260,260,0,0,0,215,94.21Z" fill="#ffca76"/><polygon points="355.57 58.51 396.93 0 416.9 15.75 355.57 58.51" fill="#45a4e5"/><polygon points="341.91 63.57 365.19 23.11 343.47 20.85 341.91 63.57" fill="#76c1ff"/><polygon points="361.29 63.89 405.55 40.8 410.69 72.57 361.29 63.89" fill="#76c1ff"/><polygon points="91.09 141.79 38.04 161.96 43.14 187.43 91.09 141.79" fill="#45a4e5"/><polygon points="91.96 152.92 66.16 183.84 80.75 188.44 91.96 152.92" fill="#76c1ff"/><polygon points="512.42 195.77 553.66 228.04 566.08 210.13 512.42 195.77" fill="#ff4367"/><polygon points="519.58 187.7 555.03 174.4 558.35 195.45 519.58 187.7" fill="#ff7381"/><path d="M94.94,371c-8,28.8-11.09,44.08-8.92,45.91q-1.08,1.66-4.38,2.45a14.45,14.45,0,0,1-5.67.38,5.15,5.15,0,0,1-4-3.57,18.48,18.48,0,0,1-.65-8.23A89,89,0,0,1,73,397.58q1.14-5.2,3.07-12l-.31-.06-.55-.12-.63-.13a2.51,2.51,0,0,1-.61-.21l-.7-.15-.34-.11a2.4,2.4,0,0,0-.43-.13,2.88,2.88,0,0,1-.69-.23,14,14,0,0,1-1.6-.51,4.75,4.75,0,0,0-.76-.28l-.77-.21q-2.88-1.05-5.75-2.13a3.82,3.82,0,0,0-.83-.34q-6.9,24.72-4.62,26.81c-.69,1.1-2.14,1.89-4.35,2.35a14.29,14.29,0,0,1-5.67.23,5.23,5.23,0,0,1-4-4,19.2,19.2,0,0,1-.39-8.24q.67-4.87,2.12-10.91t3.5-12q2.05-6,3.78-11.53t3-9.45a18.16,18.16,0,0,0,1.14-5.82,8.08,8.08,0,0,1,.87.05c.36,0,1,.14,2,.32a16,16,0,0,1,2.77.76A13,13,0,0,1,65,351.1a8.63,8.63,0,0,1,2.28,2.4,8.12,8.12,0,0,1,1,3.61,13.57,13.57,0,0,1-.69,5q-2.47,8.16-4.46,15.16a4.21,4.21,0,0,1,.52.24l.73.36,5.45,2.3,1.51.56,1.51.56a.79.79,0,0,0,.37.16.59.59,0,0,1,.3.14,2.63,2.63,0,0,1,.68.23,1.94,1.94,0,0,1,.61.21l.55.11.3.11a2,2,0,0,0,.31.1l.47.1.46.1q.77-2.42,2-6.51t1.91-6.36c.45-1.52.92-3.2,1.41-5s.84-3.31,1.05-4.44a13.09,13.09,0,0,0,.28-2.64,7.19,7.19,0,0,1,.87,0c.36,0,1,.11,2,.26a15.38,15.38,0,0,1,2.79.7A12.11,12.11,0,0,1,92,360a8.65,8.65,0,0,1,2.36,2.35A8,8,0,0,1,95.49,366,13.42,13.42,0,0,1,94.94,371Z" fill="#3a3a3a"/><path d="M139.54,399.67l2.61.39c-.32.67-.77,1.55-1.36,2.62a64.67,64.67,0,0,1-3.77,5.64,50.76,50.76,0,0,1-6,7,25.82,25.82,0,0,1-7.8,5,16.33,16.33,0,0,1-9.32,1.25,5.76,5.76,0,0,1-4.3-2.8,9.13,9.13,0,0,1-1.13-5.13,40.75,40.75,0,0,1,1.13-6.88c-4.32,2.77-8.53,3.43-12.56,2q-3.8-1.41-4.32-4.64a8.27,8.27,0,0,1,1.76-6.37,12.85,12.85,0,0,1,6-4.54,19.07,19.07,0,0,1,13.07.1,18.64,18.64,0,0,0,.73-5.07c.21,0,.48,0,.8,0s1,.08,1.86.21a17.09,17.09,0,0,1,2.57.55,10.53,10.53,0,0,1,2.54,1.21,7.67,7.67,0,0,1,2.2,2,7.1,7.1,0,0,1,1.14,3.17,11.71,11.71,0,0,1-.37,4.52q-3.77,15.53-.73,16.09c.8.18,1.89-.27,3.27-1.34a39.2,39.2,0,0,0,6.72-6.66,38,38,0,0,0,4.13-6.08C138.83,401.17,139.18,400.42,139.54,399.67ZM101.72,401c-.58,2.54.39,3.66,2.92,3.34a15.69,15.69,0,0,0,6.59-3c.55-1.88,1-3.28,1.31-4.21a18.33,18.33,0,0,0-2.59-.26,25.2,25.2,0,0,0-3.21.13,6.19,6.19,0,0,0-3.24,1.2A4.74,4.74,0,0,0,101.72,401Z" fill="#3a3a3a"/><path d="M159.16,398.79c2.79.73,3.8,2.91,3,6.57-.89,4.05-3.43,8.1-7.67,12.12A28.6,28.6,0,0,1,144,424q-3.81,20.34-1.84,21.86-2.4,5.07-8.73,4.39-2.67-.33-3.84-3.48a19.93,19.93,0,0,1-.88-8q.28-4.83,1.2-10.78t2.41-11.9c1-4,1.9-7.8,2.7-11.47s1.49-6.79,2.07-9.33a17.43,17.43,0,0,0,.63-5.48q.33,0,.81,0c.32,0,.94.05,1.86.16a17.73,17.73,0,0,1,2.57.5,10.21,10.21,0,0,1,2.55,1.15,7.55,7.55,0,0,1,2.24,2,7.09,7.09,0,0,1,1.2,3.15,11.51,11.51,0,0,1-.27,4.52c0,.26-.17.92-.4,2s-.43,1.94-.57,2.59C151.59,400.12,155.38,397.78,159.16,398.79Zm-14.36,21.3-.07-.09a.77.77,0,0,0,0,.15q5.88-2.64,10.17-9.8,3.54-5.87,2.48-8.32a1.28,1.28,0,0,0-1-.91q-2.1-.44-5,4.31a56.36,56.36,0,0,0-4.73,9.74Z" fill="#3a3a3a"/><path d="M188.41,402.22c2.81.65,3.88,2.8,3.19,6.48-.78,4.08-3.21,8.2-7.33,12.33a28.55,28.55,0,0,1-10.32,6.8c-2.16,13.62-2.59,20.92-1.24,21.9-1.51,3.42-4.38,5-8.6,4.62q-2.67-.25-3.93-3.37a20.06,20.06,0,0,1-1.1-8c.1-3.23.41-6.83.91-10.81s1.2-8,2.09-12,1.68-7.86,2.38-11.55,1.31-6.81,1.81-9.38a17.51,17.51,0,0,0,.49-5.49,7.91,7.91,0,0,1,.8-.05,16.92,16.92,0,0,1,1.86.11,19.31,19.31,0,0,1,2.58.42,10.7,10.7,0,0,1,2.59,1.08,7.72,7.72,0,0,1,2.29,1.93,7.13,7.13,0,0,1,1.28,3.11,11.68,11.68,0,0,1-.15,4.52c0,.26-.14.93-.35,2s-.36,1.95-.49,2.6C180.89,403.76,184.61,401.31,188.41,402.22ZM174.64,423.9l-.07-.08c0,.05,0,.1,0,.15,3.86-1.87,7.17-5.24,9.89-10.08,2.25-4,3-6.77,2.26-8.38a1.28,1.28,0,0,0-1-.88q-2.11-.37-4.86,4.44a56.66,56.66,0,0,0-4.46,9.86Z" fill="#3a3a3a"/><path d="M240.52,410.33l1.54,1q-7.31,8-14.81,15.84a89.06,89.06,0,0,1,1.64,15.14,40.87,40.87,0,0,1-.86,10.26,19.44,19.44,0,0,1-2.59,6.05,12.8,12.8,0,0,1-2.81,3.23,7.26,7.26,0,0,1-2.09,1,9.82,9.82,0,0,1-3.06.48q-3.27,0-4.91-4.44a31.9,31.9,0,0,1-1.6-11q0-6.6.44-14.32t1.26-14.34c-3.51,7.55-8.3,11-14.29,10.22a6.55,6.55,0,0,1-5.21-3.33,12.13,12.13,0,0,1-1.29-6.78,59.39,59.39,0,0,1,1.05-7.78q.78-3.86,1.62-7.15a13.44,13.44,0,0,0,.68-4.09,3.14,3.14,0,0,1,.68-.05c.3,0,.85,0,1.67.08a17.23,17.23,0,0,1,2.29.29,12.58,12.58,0,0,1,2.28.75,6.52,6.52,0,0,1,2,1.34,4.42,4.42,0,0,1,1.13,2.17,7.34,7.34,0,0,1-.08,3.18q-3.3,13.79-1.59,15.39,1.06.93,3.86-1.36,4.88-4,5.67-14.21l.09-3.06.81-.13a14.23,14.23,0,0,1,1.84-.08,17.24,17.24,0,0,1,2.62.16,9.65,9.65,0,0,1,2.73.85,7.44,7.44,0,0,1,2.46,1.83,8.65,8.65,0,0,1,1.62,3.22,12.74,12.74,0,0,1,.34,4.9c-.06.91-.18,2.54-.37,4.88s-.32,4.17-.41,5.49q4.32-3.84,8.22-7.75c2.61-2.6,4.49-4.56,5.69-5.88Zm-16.47,40.26a29.59,29.59,0,0,0,2.28-10,35.32,35.32,0,0,0-.24-8.23,51,51,0,0,0-1.27-5.3A190.09,190.09,0,0,0,224.05,450.59Z" fill="#3a3a3a"/><path d="M286.55,409.56c3.82.05,6.44,1.17,7.9,3.39a9.54,9.54,0,0,1,.89,8.05,22.92,22.92,0,0,1-5.23,9.11c-6.33,7.09-14.93,10.55-25.64,10.21a5.18,5.18,0,0,1-4.64-3.1,19.06,19.06,0,0,1-2-8c-.2-3.27-.22-7-.06-11.11s.52-8.29,1.08-12.49,1-8.2,1.43-12,.76-7.12,1.07-9.85a18.58,18.58,0,0,0,0-5.94c.2,0,.49-.08.85-.12s1.05-.06,2.06-.08a14.6,14.6,0,0,1,2.85.21,11.85,11.85,0,0,1,2.95,1,8.37,8.37,0,0,1,2.7,1.92,7.9,7.9,0,0,1,1.7,3.33,13.27,13.27,0,0,1,.31,5.06q-.3,3-.64,7c3.53-7,7.47-10.15,11.92-9.58q5.44,1.07,4.14,8.54c-.89,5-3.48,10-7.86,14.91A18.1,18.1,0,0,1,286.55,409.56Zm-12.8,26.27c.44-.15,1-.39,1.81-.73s2.12-1.07,4-2.18a32.49,32.49,0,0,0,5.06-3.56,19,19,0,0,0,3.9-4.85,11.63,11.63,0,0,0,1.66-6.11,3.45,3.45,0,0,0-1.37-2.81,5.62,5.62,0,0,0-3.31-1,17.65,17.65,0,0,0-4.37.55,24.05,24.05,0,0,0-4.68,1.67,24.48,24.48,0,0,0-4.11,2.43Q271.66,434.63,273.75,435.83Zm9.52-46.14c-1.15-.07-2.33.85-3.57,2.77a31,31,0,0,0-3.29,7.28q-1.44,4.41-2.31,7.49t-1.33,5.37c0,.18,0,.35,0,.53q6-3.83,9.94-12.28c2.13-4.66,2.79-8,2-10A1.72,1.72,0,0,0,283.27,389.69Z" fill="#3a3a3a"/><path d="M326.56,412l2.34.78c0,.06-.39.8-1,2.25s-1.31,3-2.05,4.53a44.14,44.14,0,0,1-7.49,10.72,19.81,19.81,0,0,1-5.39,3.87,13.82,13.82,0,0,1-6.42,1.52,6.58,6.58,0,0,1-5.51-2.78,11.93,11.93,0,0,1-1.95-6.58,60.4,60.4,0,0,1,.29-7.85q.39-3.9.92-7.27a13.38,13.38,0,0,0,.27-4.13l1.27-.2a17.7,17.7,0,0,1,2.82,0,11,11,0,0,1,3.46.67,5.27,5.27,0,0,1,2.48,2.16,5.77,5.77,0,0,1,.68,4.13c-1.34,9.35-1.06,14.38.9,15.07.81.29,1.91,0,3.3-1a22.07,22.07,0,0,0,5.36-5.72,57.94,57.94,0,0,0,4.3-7.1Zm-15.67-11.13a6,6,0,0,1-8.37.06,5.63,5.63,0,0,1,0-8.12,6,6,0,0,1,8.3-.05,5.61,5.61,0,0,1,.09,8.11Z" fill="#3a3a3a"/><path d="M359.92,412.48l1.75-.18c.76.11,1,.5.87,1.18,0,0-.15.7-.45,1.94s-.63,2.59-1,4.05-.87,3.22-1.56,5.33-1.45,4.13-2.24,6.07a42.21,42.21,0,0,1-3,5.9,31.39,31.39,0,0,1-3.81,5.16,16.54,16.54,0,0,1-4.66,3.53,11.5,11.5,0,0,1-5.55,1.33,5.78,5.78,0,0,1-3.75-1.21,6.64,6.64,0,0,1-2.17-3.41,26.28,26.28,0,0,1-.88-4.73,35.12,35.12,0,0,1,0-5.89q.27-3.37.58-6.11c.22-1.82.46-3.86.74-6.11s.47-4,.59-5.23a31.9,31.9,0,0,1-8-.65c-2-.48-3.21-1.13-3.76-1.94a6.39,6.39,0,0,1-1.05-2.73,9,9,0,0,1,.09-3.18,5.52,5.52,0,0,0-.35-3.25,8.17,8.17,0,0,1,1.22-.48,20.79,20.79,0,0,1,2.67-.6,9.4,9.4,0,0,1,3.4-.09,4.21,4.21,0,0,1,2.58,1.68,6.16,6.16,0,0,1,1,4.19c-.07,1.33,1.09,2,3.48,1.87a21.66,21.66,0,0,1,2.55-.09,12.29,12.29,0,0,1,3,.54,7.85,7.85,0,0,1,3,1.52,7.65,7.65,0,0,1,2,3.1,10.67,10.67,0,0,1,.54,4.92c-.87,9.44-1.23,15.17-1,17.21q.42,5.81,4.32,1.49,2.73-3,5-9.25a70.88,70.88,0,0,0,3.09-11.09Z" fill="#3a3a3a"/><path d="M387,408.25l1.85,1.07q-.19.65-.51,1.62c-.22.66-.71,2-1.49,4s-1.62,3.87-2.5,5.65a57,57,0,0,1-3.49,5.95,36.35,36.35,0,0,1-4.48,5.62,20.75,20.75,0,0,1-5.51,3.93,13.84,13.84,0,0,1-6.46,1.55A4.35,4.35,0,0,1,361,436a12.32,12.32,0,0,1-2.35-5,67,67,0,0,1-1.43-7,80.06,80.06,0,0,1-.75-8.89q-.19-5.24-.25-9.3c0-2.71,0-5.87,0-9.5-.32,0-.76.05-1.34.11a9.93,9.93,0,0,0-1.25.17c-1.16.06-2,.13-2.52.21l-3.69.17-1.1.05H346c-.11-.79-.22-1.57-.34-2.36a1.34,1.34,0,0,0,.39-.09l1-.2c.25-.07.57-.13.93-.2l1.36-.25,1.37-.26a10.46,10.46,0,0,0,1.09-.17c.57-.1,1-.19,1.33-.26.57-.12,1.47-.27,2.72-.44a.64.64,0,0,1,.31-.09q.21-15.19-.54-17.46l.76-.19a15.34,15.34,0,0,1,1.81-.21,15.63,15.63,0,0,1,2.55,0,9.72,9.72,0,0,1,2.66.6,7.54,7.54,0,0,1,2.54,1.49,7.28,7.28,0,0,1,1.77,2.84,12,12,0,0,1,.64,4.49c0,.92,0,3.17.05,6.74.21,0,.57,0,1.09-.1s.89-.1,1.1-.11c.57-.09,1.37-.17,2.42-.24l1.09-.12,1-.11,1.65-.12,1.4-.1.33,2.36a10.26,10.26,0,0,1-1.31.4,12.34,12.34,0,0,1-1.63.35,5.57,5.57,0,0,0-1,.18l-1,.26a10.88,10.88,0,0,0-1.21.2L371,394c-.21,0-.61.08-1.21.2s-1.05.21-1.36.28c.06,4,.18,8.48.38,13.32q1,13.9,1.25,15.65,1,6.23,3.24,6a4.21,4.21,0,0,0,2.36-1.24,29.31,29.31,0,0,0,5.1-7,81.33,81.33,0,0,0,4.55-9Z" fill="#3a3a3a"/><path d="M427.29,406.85l1.56.28c-.1.53-.27,1.21-.52,2.07s-.77,2.36-1.57,4.53a44.91,44.91,0,0,1-2.51,5.73,18,18,0,0,1-3.29,4.41,5.18,5.18,0,0,1-4.06,1.79c-1.6-.13-3-1.48-4.18-4a35.09,35.09,0,0,1-2.64-8.27,45.36,45.36,0,0,0-2.25-8c-.94-2.37-2-3.49-3.14-3.38-.95.09-1.59,1.18-1.92,3.26a60.26,60.26,0,0,0-.66,7.49q-.15,4.35-.71,8.75a16.83,16.83,0,0,1-2.81,7.6,7.9,7.9,0,0,1-6.25,3.46c-1.73.2-3.21-.64-4.42-2.51a20.51,20.51,0,0,1-2.64-7.59q-.81-4.77-1.28-10.77t-.39-12.13c.05-4.11,0-8,0-11.79s-.11-6.94-.13-9.55a18.11,18.11,0,0,0-.64-5.48,10.11,10.11,0,0,1,1.41-.38,16.63,16.63,0,0,1,3.08-.18,10.82,10.82,0,0,1,3.89.66,7.11,7.11,0,0,1,3.12,2.8,10.09,10.09,0,0,1,1.46,5.67q.23,17.06.91,28.52c1.21-9.29,3.69-14.1,7.51-14.47q3.06-.3,5.18,3.67a29.06,29.06,0,0,1,3,9,88.29,88.29,0,0,0,2.07,9.33c.82,2.88,1.76,4.4,2.8,4.55,1.27.17,2.75-1,4.43-3.49a42.09,42.09,0,0,0,4.07-7.63C426.25,409.44,426.77,408.15,427.29,406.85Z" fill="#3a3a3a"/><path d="M465.47,401.1l2.1,1q-2.28,10.37-8.13,15.33a19.23,19.23,0,0,1-10.89,4.32,5.87,5.87,0,0,1-4.73-1.37,6.84,6.84,0,0,1-2.08-4.25,46.14,46.14,0,0,1-.35-5.78,13.87,13.87,0,0,1-4.68,5.66,10,10,0,0,1-7.19,2.15c-2.64-.25-4.4-1.39-5.28-3.39a8.35,8.35,0,0,1,.13-6.64,12.58,12.58,0,0,1,4.7-5.87,18.56,18.56,0,0,1,12.63-3.07q0-5.94-.64-14.09t-1.25-12.61c-.4-3-.71-5-.91-6.14a6,6,0,0,0,.76-.14,16.2,16.2,0,0,1,1.85-.17,14.65,14.65,0,0,1,2.67.09,13.75,13.75,0,0,1,2.84.76,8.83,8.83,0,0,1,2.69,1.59,7.85,7.85,0,0,1,1.92,2.93,12.72,12.72,0,0,1,.85,4.48q.06,2.08.08,7.11c-.06,13.88.41,22.65,1.53,26.31,1,3.21,2.38,4,4.27,2.4a24.55,24.55,0,0,0,4.37-4.87,18.43,18.43,0,0,0,2.25-4.18C465.14,402.13,465.31,401.62,465.47,401.1Zm-33.42,8.42c.07,1.94.88,2.8,2.42,2.55,1.8-.32,3.54-1.8,5.19-4.44a16.85,16.85,0,0,0,1.91-4.57C435.1,403.71,431.92,405.83,432.05,409.52Z" fill="#3a3a3a"/><path d="M507,391.52l2.59-.51c-.07.74-.2,1.72-.4,2.93a67.54,67.54,0,0,1-1.67,6.57,51.66,51.66,0,0,1-3.31,8.58,26.09,26.09,0,0,1-5.69,7.33,16.39,16.39,0,0,1-8.38,4.29,5.76,5.76,0,0,1-5-1.2,9,9,0,0,1-2.78-4.46,41.36,41.36,0,0,1-1.23-6.86c-3.15,4.05-6.89,6.08-11.16,6.08-2.7,0-4.56-1-5.62-2.93a8.33,8.33,0,0,1-.47-6.59,12.8,12.8,0,0,1,4.17-6.3,19.06,19.06,0,0,1,12.34-4.27,18.21,18.21,0,0,0-1-5c.2-.09.45-.18.76-.29s.91-.24,1.82-.43a18,18,0,0,1,2.6-.33,10.29,10.29,0,0,1,2.8.29,7.77,7.77,0,0,1,2.76,1.18,7.1,7.1,0,0,1,2.13,2.61,11.69,11.69,0,0,1,1.16,4.38c1.1,10.59,2.65,15.73,4.7,15.4.8-.09,1.68-.88,2.62-2.35a39.09,39.09,0,0,0,4.13-8.53,38.53,38.53,0,0,0,1.86-7.1C506.81,393.17,506.9,392.34,507,391.52Zm-35.22,13.87c.3,2.58,1.59,3.31,3.86,2.16a15.68,15.68,0,0,0,5.21-5.05c-.12-1.95-.18-3.42-.18-4.4a20,20,0,0,0-2.54.62,26.52,26.52,0,0,0-3,1.19,6.23,6.23,0,0,0-2.65,2.22A4.69,4.69,0,0,0,471.76,405.39Z" fill="#3a3a3a"/><path d="M551.11,382.35l1.78.52q-4.78,9.74-9.77,19.42a90,90,0,0,1,5.89,14,41,41,0,0,1,2.1,10.08,19.22,19.22,0,0,1-.79,6.54,12.24,12.24,0,0,1-1.79,3.9,6.87,6.87,0,0,1-1.72,1.56,9.8,9.8,0,0,1-2.81,1.33q-3.16.93-6-2.85a32,32,0,0,1-4.68-10.11q-1.86-6.34-3.66-13.86t-2.87-14.11c-1.22,8.25-4.87,12.9-10.85,13.88a6.57,6.57,0,0,1-6-1.71,12.15,12.15,0,0,1-3.17-6.13,60.16,60.16,0,0,1-1.21-7.76c-.23-2.61-.38-5-.47-7.32a13.58,13.58,0,0,0-.51-4.11,3.36,3.36,0,0,1,.64-.24c.28-.08.82-.21,1.63-.4a18.57,18.57,0,0,1,2.28-.37,11.74,11.74,0,0,1,2.41.07,6.62,6.62,0,0,1,2.34.7,4.44,4.44,0,0,1,1.7,1.76,7.18,7.18,0,0,1,.83,3.08c.5,9.42,1.43,14.49,2.86,15.19q1.28.6,3.32-2.4c2.37-3.46,2.84-8.55,1.42-15.23-.26-1-.53-2-.79-3l.74-.35a14.58,14.58,0,0,1,1.75-.61,19.33,19.33,0,0,1,2.57-.59,9.59,9.59,0,0,1,2.87,0,7.3,7.3,0,0,1,2.9,1,8.66,8.66,0,0,1,2.47,2.63,12.64,12.64,0,0,1,1.73,4.59c.2.9.55,2.5,1,4.79s.88,4.1,1.17,5.39c2-3.29,3.94-6.54,5.71-9.78s3-5.66,3.81-7.27C550.39,383.94,550.75,383.15,551.11,382.35Zm-4.41,43.3a29.32,29.32,0,0,0-.65-10.21,35.07,35.07,0,0,0-2.57-7.82,48.67,48.67,0,0,0-2.74-4.72A188.5,188.5,0,0,0,546.7,425.65Z" fill="#3a3a3a"/><polygon points="17.67 293.58 57.48 330.63 48.29 276.31 17.67 293.58" fill="#ff7381"/><polygon points="0 331.36 50.97 336.16 20.06 310.88 0 331.36" fill="#ff4367"/><polygon points="66 328.92 64.9 296.8 77.08 301.23 66 328.92" fill="#ff4367"/><polygon points="557.24 369.35 557.24 332.79 583.82 335.01 557.24 369.35" fill="#45a4e5"/><polygon points="560.56 374.88 579.39 359.38 579.39 378.21 560.56 374.88" fill="#76c1ff"/></g></g></svg>