<svg xmlns="http://www.w3.org/2000/svg" viewBox="0 0 544.27 393.32"><g id="Layer_2" data-name="Layer 2"><g id="Слой_1" data-name="Слой 1"><path d="M423.07,334c7.11-1.59,54.8-16,77.53-61.43,15.13-30.25,22.12-81.37-11.7-114.1-26.83-26-68.87-30.23-100.93-14.63C346.58,164,330.39,213.05,339.7,253.54,348.73,292.82,381.62,326.36,423.07,334Z" fill="#ffca76"/><path d="M423.07,328.87a113.15,113.15,0,0,1,9.51,14.63c1.37,2.51,2.58,5,3.66,7.32a30.15,30.15,0,0,1-24.14,3.65c1.24-3.71,2.69-7.63,4.39-11.7C418.62,337.69,420.85,333.06,423.07,328.87Z" fill="#ffca76"/><path d="M223.27,354.94c-12.65-2.83-97.61-28.49-138.11-109.45C58.2,191.61,45.76,100.56,106,42.24,153.81-4,228.69-11.61,285.81,16.18c73.74,35.89,102.57,123.31,86,195.44C355.71,281.6,297.12,341.35,223.27,354.94Z" fill="#ff7381"/><path d="M223.27,345.82a202.7,202.7,0,0,0-16.94,26.06c-2.44,4.47-4.6,8.83-6.52,13a53.58,53.58,0,0,0,43,6.51c-2.19-6.6-4.78-13.58-7.82-20.85C231.21,361.52,227.23,353.27,223.27,345.82Z" fill="#ff7381"/><path d="M134,95.26v75.32H121.32V138.94H110.19l-.46,29.7L97,168.46l1-72.93,12.69.18L110.37,122h10.95V95.26Z" fill="#fff"/><path d="M172.54,152.19H154.61l-4.05,16.64H137.69L157,95.44h18.76l16.65,72.66-16.28.18C175.67,165.88,173.46,156.14,172.54,152.19Zm-3.49-16-4.69-24.1-5.8,24.1Z" fill="#fff"/><path d="M211.9,168.46l-15.82-.09.55-72.84h9a28.06,28.06,0,0,1,3.95-.27c6.53,0,13.8,2.11,18.86,5.88,4.5,3.4,7,7.91,7,12.69,0,5.89-2.39,19-23.26,21.06Zm.46-61.62-.09,16.65c11.86-1.47,11.86-7.27,11.86-9.66,0-1.47-1.28-2.76-2.39-3.58A21.71,21.71,0,0,0,212.36,106.84Z" fill="#fff"/><path d="M254.94,168.46l-15.82-.09.55-72.84h9a28.06,28.06,0,0,1,3.95-.27c6.53,0,13.79,2.11,18.85,5.88,4.51,3.4,7,7.91,7,12.69,0,5.89-2.39,19-23.27,21.06Zm.46-61.62-.09,16.65c11.86-1.47,11.86-7.27,11.86-9.66,0-1.47-1.29-2.76-2.39-3.58A21.76,21.76,0,0,0,255.4,106.84Z" fill="#fff"/><path d="M308.37,127.17l1,41.38-12.78.28-1-42-15.27-26.67,11.13-6.35,11.4,19.87,17.56-22.07,10,8Z" fill="#fff"/><polygon points="63.01 194.68 52.59 301.52 486.46 288.49 474.73 188.17 63.01 194.68" fill="#45a4e5"/><polygon points="53.89 185.56 43.47 292.4 477.34 279.37 465.61 179.05 53.89 185.56" fill="#76c1ff"/><path d="M97.41,207.52l-.28-10.12a25.59,25.59,0,0,1,2.67-.09c13.34-.47,33.4-1.11,34.41,16.19a16.68,16.68,0,0,1-4,12.42c-.65.64-1.29,1.29-2,1.93a20.54,20.54,0,0,1,3.68,2.86c4.79,4.6,7.08,10.85,6.81,18.67A19.48,19.48,0,0,1,132,264.1c-6,5.07-14.63,6.26-22.09,6.26a87.83,87.83,0,0,1-12-.92l-.83-.18ZM128.51,249c.09-4.78-1.1-8.37-3.78-10.95-3.22-3.13-8-4.13-11.68-4.41l-.09,26.4c4.69-.27,9.48-1.19,12.42-3.77C127.41,254.63,128.42,252.23,128.51,249Zm-15.27-41.49-.1,15.36c5.61-.83,8.19-2.48,9.39-3.77a6.37,6.37,0,0,0,1.47-5.06C123.82,209.91,120.32,208.07,113.24,207.52Z" fill="#fff"/><path d="M157,270.36H143.32V197.12H157Z" fill="#fff"/><path d="M162.55,270.27,163.1,197l9,.09c7.46-1.1,16.84,1.1,22.91,5.61,4.6,3.41,7.09,7.92,7.09,12.79,0,5.24-1.93,16.1-16.93,20.06l18.95,32-9.75,5.7-15.74-26.49-.18,23.55Zm25.76-58.33a20.61,20.61,0,0,0-9.38-3.5l-.09,16.84c11.87-1.48,11.87-7.36,11.87-9.76C190.71,214.05,189.42,212.76,188.31,211.94Z" fill="#fff"/><path d="M245.73,212.3H233.21v58.15h-14V212.3H206V196.84h39.75Z" fill="#fff"/><path d="M286.4,196.84V272.2H273.7V240.55H262.57l-.46,29.72-12.7-.19,1-73,12.7.19-.37,26.31H273.7V196.84Z" fill="#fff"/><path d="M291.92,270.45v-7.36c0-9.48.65-56.59.65-58.52l.09-6.71,6.71-.65c1.57-.09,3.13-.18,4.6-.18,8.83,0,15.74,2.57,20.71,7.54,5.79,5.89,8.55,14.73,8.37,26.87-.37,28.43-20.89,39-33.68,39Zm14.91-16.84c5.42-2.94,11.22-9.29,11.4-22.35.1-7.83-1.38-13.44-4.14-16.29-1.56-1.56-3.77-2.48-6.8-2.85C307.19,222.42,306.92,241.47,306.83,253.61Z" fill="#fff"/><path d="M370.68,253.8H352.74l-4.05,16.65H335.81L355.13,197H373.9l16.65,72.69-16.28.18C373.81,267.51,371.6,257.76,370.68,253.8Zm-3.5-16-4.69-24.11-5.8,24.11Z" fill="#fff"/><path d="M420.46,228.77l1,41.4-12.79.28-1-42-15.28-26.68,11.14-6.35,11.41,19.88,17.57-22.08,10,8Z" fill="#fff"/><path d="M232.46,360.23A17,17,0,0,0,212.28,358l-2.78-4.8a22.64,22.64,0,0,1,26.72,3Z" fill="#76c1ff"/><path d="M421.76,338.82a25.66,25.66,0,0,1-8.53-1.46l1.83-5.23A20.12,20.12,0,0,0,431.11,331l2.55,4.92A26.11,26.11,0,0,1,422,338.82Z" fill="#76c1ff"/><polygon points="404.28 109.16 452.93 40.34 476.42 58.87 404.28 109.16" fill="#45a4e5"/><polygon points="388.2 115.12 415.59 67.53 390.05 64.87 388.2 115.12" fill="#76c1ff"/><polygon points="411 115.5 463.07 88.34 469.12 125.71 411 115.5" fill="#76c1ff"/><polygon points="104.6 318.52 25.54 330.22 32.31 362.78 104.6 318.52" fill="#45a4e5"/><polygon points="115.13 319.29 92.57 372.48 65.8 354.03 115.13 319.29" fill="#76c1ff"/><polygon points="40.62 173.17 29.54 131.62 0 142.2 40.62 173.17" fill="#45a4e5"/><polygon points="38.52 180.47 12.42 168.55 18.13 189.95 38.52 180.47" fill="#76c1ff"/><polygon points="544.27 326.16 489.42 309.57 523.31 356.7 544.27 326.16" fill="#76c1ff"/><polygon points="543.45 282.22 493.01 301.32 533.98 310.9 543.45 282.22" fill="#45a4e5"/><polygon points="482.15 315.14 498.1 345.01 484.51 346.47 482.15 315.14" fill="#45a4e5"/></g></g></svg>