<svg xmlns="http://www.w3.org/2000/svg" xmlns:xlink="http://www.w3.org/1999/xlink" viewBox="0 0 533.52 460.69"><defs><clipPath id="clip-path" transform="translate(32.57)"><path d="M297.46,203.82c-16.71-33.74-33.29-70-49.24-108.77q-15.83-38.43-28.8-74.91a757.3,757.3,0,0,0-34.57,115.12c-5.61,26-9.48,50.67-12.08,73.51a166.87,166.87,0,0,0,50.15,9.64A169.28,169.28,0,0,0,297.46,203.82Z" fill="#ffca76"/></clipPath><clipPath id="clip-path-2" transform="translate(32.57)"><path d="M0,345.27c16.67-53.69,32.55-111.06,46.91-172Q61.15,112.86,71.66,56a1131,1131,0,0,1,78.18,161.57c14.42,37.07,25.94,72.47,35.18,105.54a249.87,249.87,0,0,1-71.67,26.05A252.39,252.39,0,0,1,0,345.27Z" fill="#45a4e5"/></clipPath></defs><g id="Layer_2" data-name="Layer 2"><g id="Слой_1" data-name="Слой 1"><rect x="32.18" y="395.65" width="32.05" height="7.38" transform="translate(-140.89 63.69) rotate(-26.56)" fill="#ffca76"/><path d="M159.22,147.23c-15.9,6.29-98.09,38.82-114.66,113.35S87.35,404.41,147.75,435.17c77,39.21,201.43,39,262.29-41.69,53.29-70.65,33-170-34.4-224.1C287.45,98.64,166.82,144.22,159.22,147.23Z" transform="translate(32.57)" fill="#ff4367"/><path d="M297.46,203.82c-16.71-33.74-33.29-70-49.24-108.77q-15.83-38.43-28.8-74.91a757.3,757.3,0,0,0-34.57,115.12c-5.61,26-9.48,50.67-12.08,73.51a166.87,166.87,0,0,0,50.15,9.64A169.28,169.28,0,0,0,297.46,203.82Z" transform="translate(32.57)" fill="#ffca76"/><g clip-path="url(#clip-path)"><path d="M158.92,169.7c9.31-6.95,23-6.69,32.43.47,12.9,9.79,10.29,26.78,10.16,27.56-2.5,14.56-17,28.77-32.1,25.82-14.3-2.8-21.17-19.34-20.9-31.46C148.57,189.69,148.85,177.22,158.92,169.7Z" transform="translate(32.57)" fill="#76c1ff"/><path d="M236.52,139.8c-8-1.79-17.15,3.73-19.12,12.51a16.06,16.06,0,0,0,29.76,11.36C252,154.73,246.42,142,236.52,139.8Z" transform="translate(32.57)" fill="#76c1ff"/><path d="M260.58,185.41c-1.18.36-10.88,3.47-14.2,13.15-3.12,9.08,1.33,18.28,7,23.39,6.54,5.93,17.75,9.16,27,3.52s12.71-17.86,8.58-27.63C284.08,186.31,270.54,182.39,260.58,185.41Z" transform="translate(32.57)" fill="#76c1ff"/><path d="M186.66,90.84c-8.33,3.21-12.89,13.44-9,21.32,4.09,8.32,15.69,10.07,23,5.49,5.23-3.27,8.83-10.1,7.16-16.56C205.65,92.72,195.32,87.5,186.66,90.84Z" transform="translate(32.57)" fill="#76c1ff"/><path d="M246.74,61.16c-1,.1-15,1.78-19.28,13.74-3.15,8.82.83,18.17,7,23.39,10,8.52,22.89,3.84,24.57,3.2,7.13-2.72,16.12-9.8,16.23-19.13C275.37,70,259.93,59.81,246.74,61.16Z" transform="translate(32.57)" fill="#76c1ff"/></g><polygon points="252.92 0 245.08 15.53 227.84 17.87 240.18 30.12 237.08 47.23 252.55 39.28 267.87 47.52 265.09 30.36 277.66 18.33 260.47 15.67 252.92 0" fill="#76c1ff"/><path d="M243.12,247.23l-2.78,75.28L227.65,322l1.17-31.62L217.7,290l-1.55,29.67L203.47,319l3.7-72.84,12.68.65-1.34,26.27,10.94.41,1-26.75Z" transform="translate(32.57)" fill="#fff"/><path d="M286.12,321.35l-11.61.3L272.82,305l-11.23,0-4,16.42-13.49-.87,17.31-72.62,17.26,1.38Zm-14.2-31.73-2.77-27.16-5.53,27.59Z" transform="translate(32.57)" fill="#fff"/><path d="M292.27,254.21c13.33.49,35.66,1.32,36.39,21.68.14,6-1.89,11.07-6.07,14.69-4.47,4-10.51,5.59-16.24,6.11l-1,26.47-15.62-.57,1.85-50.19Zm26.34,22c-.24-6-3.9-8.89-11.12-10.45l-.76,20.68c3.79-.5,7.14-1.58,9.24-3.43A8.11,8.11,0,0,0,318.61,276.26Z" transform="translate(32.57)" fill="#fff"/><path d="M333.54,255.73c13.32.49,35.66,1.32,36.38,21.69.14,6-1.89,11.06-6.07,14.68-4.47,4-10.51,5.59-16.23,6.11l-1,26.48L331,324.11l1.86-50.18Zm26.33,22c-.24-6-3.9-8.89-11.12-10.45L348,288c3.79-.51,7.15-1.58,9.24-3.44A8.1,8.1,0,0,0,359.87,277.78Z" transform="translate(32.57)" fill="#fff"/><path d="M401.43,288.89l-.29,37.44-13-.11.37-37.53-15.48-34.16,11.53-5.74,10.78,24.69,12.89-22.54,11.17,6.41Z" transform="translate(32.57)" fill="#fff"/><path d="M114.66,327a400.19,400.19,0,0,0,9.12,127.69,1793,1793,0,0,1,192.83-7.82c61.48.82,118.6,4.74,170.68,10.43q2.16-36.56,2.61-75.57.15-15.19,0-30-126.51-12.1-260.59-19.55Q171.32,329.09,114.66,327Z" transform="translate(32.57)" fill="#76c1ff"/><path d="M174.17,392.14q6.48,0,9,3.91t1,9.46a28,28,0,0,1-5.76,10.76q-10.44,12.62-28.1,12.6-3.24.09-5.22-3.46a23.77,23.77,0,0,1-2.52-9.32c-.36-3.85-.54-8.19-.54-13s.23-9.78.67-14.73.83-9.69,1.13-14.23.57-8.4.81-11.62a21.73,21.73,0,0,0-.27-7l1-.18c.42-.06,1.21-.11,2.38-.18a17.33,17.33,0,0,1,3.34.14,14.34,14.34,0,0,1,3.47,1,9.54,9.54,0,0,1,3.19,2.17,9.36,9.36,0,0,1,2.07,3.87,16.17,16.17,0,0,1,.5,5.95q-.27,3.51-.54,8.27,5.76-12.41,13.51-11.52,6.3,1.17,4.86,10t-8.73,17.66A19.61,19.61,0,0,1,174.17,392.14Zm-13.78,31.15a19.63,19.63,0,0,0,2-.9q1.26-.61,4.41-2.66a37.27,37.27,0,0,0,5.54-4.27,22.5,22.5,0,0,0,4.28-5.76,14.27,14.27,0,0,0,1.8-7.21,4.13,4.13,0,0,0-1.58-3.29,6,6,0,0,0-3.73-1.12,18.81,18.81,0,0,0-4.91.72,25.55,25.55,0,0,0-5.22,2.07,26.12,26.12,0,0,0-4.55,3Q158,421.94,160.39,423.29Zm9.72-54.48c-1.32-.06-2.67,1.06-4.05,3.34a36.54,36.54,0,0,0-3.6,8.64q-1.53,5.22-2.43,8.87T158.68,396v.62q6.66-4.68,11-14.67c2.34-5.52,3.05-9.45,2.16-11.8A2,2,0,0,0,170.11,368.81Z" transform="translate(32.57)" fill="#fff"/><path d="M219.37,395.29l2.61,1c-.06.06-.46.93-1.21,2.61s-1.57,3.43-2.44,5.27a54,54,0,0,1-8.6,12.42,22.07,22.07,0,0,1-6,4.47,14.84,14.84,0,0,1-7.11,1.71,7.22,7.22,0,0,1-6.08-3.29,14.76,14.76,0,0,1-2.16-7.75,72.89,72.89,0,0,1,.31-9.23q.45-4.59,1-8.56c.39-2.63.5-4.26.31-4.86l1.45-.23a20.2,20.2,0,0,1,3.19,0,12.05,12.05,0,0,1,3.92.82,6.13,6.13,0,0,1,2.79,2.57,7,7,0,0,1,.72,4.86q-2.43,16.49.81,17.74c.9.36,2.13,0,3.7-1.08a25.82,25.82,0,0,0,6.07-6.62,70.43,70.43,0,0,0,5-8.24Zm-17.56-13.42a6.74,6.74,0,1,1,2-4.78A6.5,6.5,0,0,1,201.81,381.87Z" transform="translate(32.57)" fill="#fff"/><path d="M256.92,397.45l2-.09c.84.18,1.14.66.91,1.44,0,.06-.22.81-.64,2.25s-.87,3-1.35,4.69-1.17,3.73-2.07,6.16-1.84,4.76-2.84,7a53.46,53.46,0,0,1-3.64,6.76,39.25,39.25,0,0,1-4.46,5.85,18.92,18.92,0,0,1-5.27,3.92,12,12,0,0,1-6.12,1.3,6.07,6.07,0,0,1-4-1.58,7.81,7.81,0,0,1-2.25-4.09,32.16,32.16,0,0,1-.81-5.58,42.26,42.26,0,0,1,.22-6.94q.41-4,.86-7.16c.3-2.13.64-4.52,1-7.15s.68-4.69.85-6.13a35.67,35.67,0,0,1-9-1c-2.19-.62-3.59-1.42-4.19-2.38a7.87,7.87,0,0,1-1.13-3.25,11.09,11.09,0,0,1,.19-3.74,6.77,6.77,0,0,0-.32-3.82,9.4,9.4,0,0,1,1.4-.54,24.88,24.88,0,0,1,3.06-.63,10.44,10.44,0,0,1,3.87,0,4.78,4.78,0,0,1,2.88,2.07,7.37,7.37,0,0,1,.94,5q-.17,2.34,3.88,2.34a19.77,19.77,0,0,1,2.88,0,13.46,13.46,0,0,1,3.42.76,8.58,8.58,0,0,1,3.29,1.94,9.09,9.09,0,0,1,2.12,3.73,13.2,13.2,0,0,1,.35,5.81q-2.16,16.57-2,20.17.18,6.85,4.69,2,3.15-3.34,6-10.58a89.61,89.61,0,0,0,4.1-12.83Z" transform="translate(32.57)" fill="#fff"/><path d="M287.72,394.66l2,1.44c-.19.48-.43,1.1-.73,1.85s-1,2.24-2,4.5-2.15,4.38-3.29,6.39a71.16,71.16,0,0,1-4.37,6.67,44.17,44.17,0,0,1-5.4,6.21,23.36,23.36,0,0,1-6.35,4.19,14.69,14.69,0,0,1-7.21,1.35,4.78,4.78,0,0,1-3.69-2.16,15,15,0,0,1-2.29-6.08q-.77-4-1.17-8.34a99.16,99.16,0,0,1-.32-10.49c.06-4.11.15-7.75.27-10.94s.3-6.89.54-11.16c-.36,0-.87,0-1.53,0a12.88,12.88,0,0,0-1.44.13,28.16,28.16,0,0,0-2.88.1H242l-.27-2.8a1.85,1.85,0,0,0,.46-.08l1.17-.18c.29-.06.66-.13,1.07-.18l1.58-.23,1.58-.22c.18,0,.6-.05,1.26-.13l1.53-.23c.66-.13,1.71-.24,3.15-.36a.81.81,0,0,1,.36-.1q1.17-17.82.45-20.53c.24-.06.54-.11.9-.18a19.62,19.62,0,0,1,2.12-.13,20.31,20.31,0,0,1,3,.13,11.52,11.52,0,0,1,3.06.9A8.68,8.68,0,0,1,266.2,356a8.35,8.35,0,0,1,1.84,3.47,14,14,0,0,1,.41,5.31q-.09,1.62-.45,7.92c.24,0,.66,0,1.26,0s1,0,1.26,0q1-.09,2.79-.09c.3,0,.72,0,1.26-.05s.93,0,1.18,0h3.51l.18,2.79a9.34,9.34,0,0,1-1.54.36,14,14,0,0,1-1.88.28,7,7,0,0,0-1.13.13c-.51.09-.91.16-1.22.23a10.68,10.68,0,0,0-1.39.13l-1.49.22a13.5,13.5,0,0,0-1.39.14l-1.58.22q-.36,7.13-.54,15.67.09,16.4.27,18.47.63,7.38,3.15,7.29a4.52,4.52,0,0,0,2.7-1.26,35.27,35.27,0,0,0,6.22-7.75,101.38,101.38,0,0,0,5.85-10.17Z" transform="translate(32.57)" fill="#fff"/><path d="M333,397.72l1.71.54c-.18.6-.47,1.38-.86,2.34s-1.17,2.66-2.34,5.09A57.45,57.45,0,0,1,328,412a21.24,21.24,0,0,1-4.19,4.72c-1.62,1.35-3.18,1.89-4.68,1.58q-2.61-.54-4.14-5.22a44.1,44.1,0,0,1-2-10,54.51,54.51,0,0,0-1.63-9.63c-.78-2.89-1.83-4.32-3.14-4.32q-1.63,0-2.53,3.59a74.17,74.17,0,0,0-1.53,8.7q-.63,5.09-1.71,10.17a20.51,20.51,0,0,1-3.87,8.61,8.56,8.56,0,0,1-7.21,3.41c-1.92.06-3.46-1.06-4.63-3.38a25,25,0,0,1-2.25-9.14c-.34-3.77-.5-8-.5-12.73s.21-9.47.63-14.28.76-9.41,1-13.82.5-8.15.71-11.21a21.12,21.12,0,0,0-.22-6.49,12.06,12.06,0,0,1,1.67-.31,19.29,19.29,0,0,1,3.6.09,12.13,12.13,0,0,1,4.46,1.17,8.18,8.18,0,0,1,3.33,3.6,12,12,0,0,1,1.08,6.8q-1.53,20-1.89,33.5,3.42-16.12,10-16.12c2.35,0,4.16,1.63,5.45,4.91a35.16,35.16,0,0,1,2.3,10.85,110.25,110.25,0,0,0,1.21,11.16q.86,5.24,2.57,5.68,2.07.54,5.31-3.51a51.59,51.59,0,0,0,5.5-8.38Z" transform="translate(32.57)" fill="#fff"/><path d="M376.42,397.09l2.16,1.53q-4.32,11.63-11.52,16.39a20.73,20.73,0,0,1-12.61,3.24,6.39,6.39,0,0,1-5-2.34,8.38,8.38,0,0,1-1.66-5.27,56.23,56.23,0,0,1,.44-6.79,16.1,16.1,0,0,1-6,5.89,10.72,10.72,0,0,1-8.24,1.49c-2.89-.66-4.68-2.22-5.41-4.68a10.32,10.32,0,0,1,1-7.75,14.45,14.45,0,0,1,6-6.22,20,20,0,0,1,14.59-1.7q.9-6.93,1.39-16.53t.5-14.9c0-3.54,0-6-.09-7.3.24,0,.54,0,.9,0a16.88,16.88,0,0,1,2.16.1,16.28,16.28,0,0,1,3.06.54,15.5,15.5,0,0,1,3.15,1.34,10,10,0,0,1,2.84,2.3,9.35,9.35,0,0,1,1.71,3.74,15.16,15.16,0,0,1,.23,5.36q-.29,2.44-1.08,8.29-3.51,24.23-2.53,30.88c.54,3.9,2,5.08,4.32,3.51a27.65,27.65,0,0,0,5.64-4.9,21.79,21.79,0,0,0,3.19-4.46ZM338,401.51c-.18,2.28.6,3.38,2.34,3.32,2-.12,4.17-1.58,6.4-4.41a20.85,20.85,0,0,0,2.79-5Q338.51,395,338,401.51Z" transform="translate(32.57)" fill="#fff"/><path d="M424.24,394.39h3c-.24.84-.6,1.93-1.08,3.28s-1.56,3.76-3.24,7.21a63.7,63.7,0,0,1-5.4,9.18,30,30,0,0,1-7.66,7.25,17.4,17.4,0,0,1-9.9,3.25,6.18,6.18,0,0,1-5.18-2.39,11.07,11.07,0,0,1-2.21-5.72,51.62,51.62,0,0,1-.09-8.2q-6.3,6.13-13.33,5c-2.94-.55-4.83-2-5.67-4.42a10.22,10.22,0,0,1,.59-7.74,14.57,14.57,0,0,1,5.71-6.57,20.27,20.27,0,0,1,14.5-2.61,22.52,22.52,0,0,0-.18-6,8.64,8.64,0,0,1,.9-.17,18,18,0,0,1,2.12-.15,18.93,18.93,0,0,1,3,.15,11.11,11.11,0,0,1,3.06.89,8.68,8.68,0,0,1,2.84,1.94A8.26,8.26,0,0,1,407.8,392a14,14,0,0,1,.41,5.32q-1.35,18.72,2.07,18.82,1.35.09,3.33-2.16a47.4,47.4,0,0,0,6.26-9,48,48,0,0,0,3.56-7.79Zm-41.6,8.82c-.13,3.06,1.17,4.15,3.87,3.24a17.69,17.69,0,0,0,6.66-4.86c.24-2.28.45-4,.63-5.13a20.72,20.72,0,0,0-2.92.22,28.63,28.63,0,0,0-3.52.81,6.8,6.8,0,0,0-3.33,2.08A5.61,5.61,0,0,0,382.64,403.21Z" transform="translate(32.57)" fill="#fff"/><path d="M474.85,394.84l1.8,1.08-15.49,19.63A109.46,109.46,0,0,1,464,433.2a53.18,53.18,0,0,1-.22,12.11,24.55,24.55,0,0,1-2.39,7.3,14.43,14.43,0,0,1-2.79,4,7.17,7.17,0,0,1-2.16,1.35,9.86,9.86,0,0,1-3.24.81c-2.35.18-4.22-1.4-5.63-4.77A40.67,40.67,0,0,1,445,441.21q-.54-7.74-.76-16.84c-.16-6.05-.11-11.71.13-16.93q-4.86,13.79-14.86,13.42a7.14,7.14,0,0,1-6.08-3.33,14.93,14.93,0,0,1-2.16-7.79,72.82,72.82,0,0,1,.32-9.23q.45-4.59,1-8.56a16.44,16.44,0,0,0,.32-4.86,4.33,4.33,0,0,1,.76-.13c.33,0,1-.06,1.9-.1a18.39,18.39,0,0,1,2.61.1,11.86,11.86,0,0,1,2.65.63,7.45,7.45,0,0,1,2.44,1.35,5.24,5.24,0,0,1,1.48,2.43,8.81,8.81,0,0,1,.22,3.73q-2.34,16.48-.26,18.2,1.24,1,4.14-2,5-5.12,5-17.2l-.18-3.59.9-.23a16.09,16.09,0,0,1,2.07-.27,21.18,21.18,0,0,1,3,0,10.32,10.32,0,0,1,3.16.78,7.89,7.89,0,0,1,2.92,1.93,10,10,0,0,1,2.07,3.64,15.73,15.73,0,0,1,.77,5.72c0,1.08,0,3-.05,5.76s0,4.93,0,6.49q4.5-4.86,8.6-9.73t6-7.29Zm-15.49,48.45a37.38,37.38,0,0,0,1.75-11.9,44,44,0,0,0-.85-9.62,62.78,62.78,0,0,0-1.8-6.13Q458.28,433.92,459.36,443.29Z" transform="translate(32.57)" fill="#fff"/><path d="M0,345.27c16.67-53.69,32.55-111.06,46.91-172Q61.15,112.86,71.66,56a1131,1131,0,0,1,78.18,161.57c14.42,37.07,25.94,72.47,35.18,105.54a249.87,249.87,0,0,1-71.67,26.05A252.39,252.39,0,0,1,0,345.27Z" transform="translate(32.57)" fill="#45a4e5"/><g clip-path="url(#clip-path-2)"><path d="M28.67,166.77a127,127,0,0,0,41.69,1.31,129.47,129.47,0,0,0,59.93-24.76q3.26,7.83,6.52,15.63A150.62,150.62,0,0,1,97.72,177.2a152.13,152.13,0,0,1-62.54,5.21Q31.92,174.59,28.67,166.77Z" transform="translate(32.57)" fill="#ffca76"/><path d="M0,223.26a194.42,194.42,0,0,0,63.8,2c44.54-6,76.11-26.22,91.7-37.87q5,12,10,23.91a230.09,230.09,0,0,1-59.81,27.91,232.84,232.84,0,0,1-95.69,8Q5,235.21,0,223.26Z" transform="translate(32.57)" fill="#ffca76"/><path d="M-32.57,295.62a271.52,271.52,0,0,0,88.91,2.78c62.08-8.41,106.08-36.55,127.81-52.79L198,279a322.15,322.15,0,0,1-83.35,38.9A324.56,324.56,0,0,1-18.68,329Z" transform="translate(32.57)" fill="#ffca76"/></g><polygon points="98.11 26.56 113.34 47.6 139.3 46.98 124 67.95 132.62 92.46 107.93 84.39 87.3 100.15 87.33 74.18 65.97 59.43 90.68 51.45 98.11 26.56" fill="#ffca76"/><path d="M436.78,205.54,431,201c.3-.39,30.75-39,35.05-43.12l5.11,5.33C467.88,166.3,442.86,197.78,436.78,205.54Z" transform="translate(32.57)" fill="#ffca76"/><rect x="439.99" y="212.59" width="43.78" height="7.39" transform="translate(-5.44 317.38) rotate(-36.52)" fill="#ffca76"/><rect x="454.38" y="242.56" width="46.27" height="7.39" transform="translate(-2.14 84.12) rotate(-9.72)" fill="#ffca76"/><rect x="43.52" y="422.36" width="48.47" height="7.39" transform="translate(-283.27 228.64) rotate(-53.73)" fill="#ffca76"/></g></g></svg>