<svg xmlns="http://www.w3.org/2000/svg" viewBox="0 0 470.82 406.5"><g id="Layer_2" data-name="Layer 2"><g id="Слой_1" data-name="Слой 1"><polygon points="377.01 299.66 193.3 238.42 169.85 351.77 377.01 299.66" fill="#d3264f"/><polygon points="336.62 336.14 212.6 299.9 112.44 381.52 108.58 252.37 0 182.33 121.64 138.75 154.7 13.84 233.74 116.06 362.74 108.9 289.95 215.66 336.62 336.14" fill="#76c1ff"/><polygon points="126.53 242.24 40.95 187.03 136.82 152.68 162.88 54.23 225.17 134.81 326.85 129.17 269.48 213.3 306.26 308.27 208.51 279.7 129.56 344.03 126.53 242.24" fill="#ffca76"/><polygon points="144.48 232.11 81.89 191.74 152 166.62 171.06 94.63 216.61 153.55 290.96 149.43 249.01 210.95 275.9 280.38 204.43 259.5 146.7 306.54 144.48 232.11" fill="#76c1ff"/><polygon points="162.42 221.97 122.85 196.44 167.18 180.56 179.23 135.03 208.04 172.29 255.06 169.68 228.52 208.59 245.54 252.51 200.34 239.3 163.83 269.05 162.42 221.97" fill="#ffca76"/><polygon points="139.88 187.6 130.76 267.09 470.82 280.12 434.34 231.91 466.91 166.76 139.88 187.6" fill="#ff7381"/><polygon points="377.01 299.66 377.01 367.41 52.58 406.5 92.97 353.07 44.77 286.63 377.01 299.66" fill="#ff7381"/><path d="M226.75,196.65v63.41H216.06V233.43h-9.37l-.39,25-10.68-.15.85-61.4,10.69.16-.3,22.14h9.2V196.65Z" fill="#fff"/><path d="M259.19,244.57h-15.1l-3.41,14H229.84l16.25-61.78h15.8l14,61.16-13.7.16C261.81,256.11,260,247.9,259.19,244.57Zm-2.95-13.47-4-20.28-4.87,20.28Z" fill="#fff"/><path d="M292.32,258.28,279,258.2l.47-61.32h7.58a24,24,0,0,1,3.33-.23,27.64,27.64,0,0,1,15.86,5c3.8,2.86,5.89,6.66,5.89,10.68,0,5-2,15.94-19.58,17.72Zm.38-51.88-.08,14c10-1.23,10-6.11,10-8.12,0-1.24-1.08-2.32-2-3A18.33,18.33,0,0,0,292.7,206.4Z" fill="#fff"/><path d="M328.54,258.28l-13.31-.08.46-61.32h7.59a24.07,24.07,0,0,1,3.33-.23,27.72,27.72,0,0,1,15.87,5c3.8,2.86,5.88,6.66,5.88,10.68,0,5-2,15.94-19.58,17.72Zm.39-51.88-.07,14c10-1.23,10-6.11,10-8.12,0-1.24-1.09-2.32-2-3A18.33,18.33,0,0,0,328.93,206.4Z" fill="#fff"/><path d="M373.52,223.51l.86,34.84-10.76.23-.86-35.38-12.85-22.45,9.37-5.34,9.6,16.73,14.78-18.59,8.44,6.74Z" fill="#fff"/><path d="M122.51,317.92l-.21-7.65c.63-.06,1.33-.06,2-.06,10.07-.36,25.23-.84,26,12.22a12.63,12.63,0,0,1-3.06,9.39c-.49.49-1,1-1.54,1.46a15.39,15.39,0,0,1,2.79,2.16c3.62,3.47,5.35,8.2,5.14,14.1a14.71,14.71,0,0,1-5,11.12c-4.52,3.83-11.05,4.73-16.68,4.73a67.69,67.69,0,0,1-9.1-.69l-.63-.15ZM146,349.27c.07-3.62-.84-6.33-2.85-8.28-2.44-2.36-6-3.13-8.83-3.33l-.07,19.95c3.54-.21,7.15-.9,9.38-2.85A7,7,0,0,0,146,349.27Zm-11.54-31.35-.08,11.61c4.25-.63,6.2-1.88,7.1-2.86a4.77,4.77,0,0,0,1.11-3.82C142.46,319.73,139.82,318.33,134.47,317.92Z" fill="#fff"/><path d="M169.94,362.79h-9.41v-50.3h9.41Z" fill="#fff"/><path d="M178.94,360.29l.35-45.93,5.66.05a20.83,20.83,0,0,1,14.36,3.52,10,10,0,0,1,4.44,8c0,3.29-1.2,10.1-10.61,12.59L205,358.62l-6.12,3.58L189,345.58l-.12,14.77Zm16.16-36.58a12.92,12.92,0,0,0-5.88-2.2l-.06,10.57c7.44-.93,7.44-4.63,7.44-6.13A3.17,3.17,0,0,0,195.1,323.71Z" fill="#fff"/><path d="M233.73,322.4h-7.86v36.54h-8.79V322.4h-8.32v-9.71h25Z" fill="#fff"/><path d="M260,312.72l3.42,44-7.41.57-1.44-18.48-6.5.52,1.09,17.36-7.42.47L239,314.52l7.42-.48,1,15.38,6.39-.5-1.21-15.62Z" fill="#fff"/><path d="M271,353.73v-4.24c0-5.47.37-32.64.37-33.76l0-3.87,3.88-.37c.89-.06,1.8-.1,2.65-.1,5.1,0,9.07,1.48,11.94,4.34,3.34,3.4,4.93,8.49,4.83,15.5-.21,16.39-12.05,22.5-19.42,22.5Zm8.59-9.71c3.13-1.7,6.48-5.36,6.59-12.89,0-4.51-.8-7.76-2.39-9.4a6.49,6.49,0,0,0-3.93-1.65C279.79,326,279.63,337,279.57,344Z" fill="#fff"/><path d="M317.51,344.12H307.16l-2.33,9.61H297.4l11.14-42.34h10.82L329,353.3l-9.4.11C319.31,352,318,346.4,317.51,344.12Zm-2-9.23L312.78,321l-3.34,13.9Z" fill="#fff"/><path d="M344.14,329.76l.83,22.49-6.94.23-.83-22.84-8.47-14.38,6-3.53,6.33,10.72,9.4-12.11,5.5,4.28Z" fill="#fff"/><polygon points="295.31 54.18 311.6 49.45 324.73 60.19 325.27 43.25 339.54 34.08 323.59 28.33 319.28 11.93 308.88 25.32 291.95 24.34 301.48 38.37 295.31 54.18" fill="#ffca76"/><polygon points="333.17 95.36 340.51 90.79 348.44 94.24 346.36 85.85 352.1 79.37 343.47 78.76 339.08 71.3 335.83 79.31 327.38 81.17 334 86.75 333.17 95.36" fill="#76c1ff"/><polygon points="384.9 80.73 396.63 75.89 407.26 82.82 406.29 70.17 416.16 62.19 403.82 59.21 399.29 47.35 392.64 58.16 379.96 58.81 388.19 68.47 384.9 80.73" fill="#ff7381"/><polygon points="387.23 127.79 393.86 123.66 401.01 126.78 399.14 119.2 404.31 113.36 396.52 112.8 392.57 106.07 389.64 113.31 382.01 114.98 387.98 120.01 387.23 127.79" fill="#ffca76"/><polygon points="427.62 160.59 436.96 150.41 450.64 152.34 443.86 140.31 449.92 127.9 436.38 130.63 426.45 121.03 424.87 134.76 412.67 141.24 425.23 146.98 427.62 160.59" fill="#76c1ff"/><polygon points="202.51 45.71 212.28 50.09 214.2 60.63 221.39 52.69 232 54.12 226.68 44.83 231.31 35.18 220.83 37.37 213.08 29.98 211.93 40.63 202.51 45.71" fill="#ffca76"/><polygon points="237.56 79.85 250.63 88.57 250.86 104.27 263.19 94.53 278.19 99.16 272.74 84.44 281.78 71.59 266.09 72.22 256.67 59.66 252.42 74.78 237.56 79.85" fill="#ff7381"/><polygon points="247.44 20.82 255.87 18.89 262.25 24.74 263.02 16.12 270.55 11.87 262.59 8.48 260.88 0 255.19 6.52 246.6 5.53 251.03 12.95 247.44 20.82" fill="#76c1ff"/><polygon points="34.23 239.2 39.13 252.49 30.96 264.05 45.11 263.5 53.57 274.85 57.42 261.22 70.83 256.67 59.06 248.8 58.88 234.65 47.75 243.4 34.23 239.2" fill="#ffca76"/><polygon points="2.18 273.14 6.42 278.99 4.01 285.81 10.88 283.57 16.61 287.97 16.61 280.75 22.56 276.65 15.69 274.42 13.65 267.5 9.39 273.34 2.18 273.14" fill="#76c1ff"/><polygon points="17.41 315.35 22.12 324.84 16.99 334.1 27.47 332.55 34.69 340.3 36.45 329.85 46.05 325.38 36.66 320.48 35.37 309.96 27.8 317.38 17.41 315.35" fill="#ff7381"/></g></g></svg>