<svg xmlns="http://www.w3.org/2000/svg" viewBox="0 0 397.54 472.94"><g id="Layer_2" data-name="Layer 2"><g id="Слой_1" data-name="Слой 1"><path d="M283.61,381.61a13,13,0,0,0-6.67,8.76c-1.38,6.9,3.13,14.42,9.27,17.14a14,14,0,0,0,10.25.28c.9-.31,8.18-3,9.14-10.08.67-4.95-2.13-9-2.75-9.84C298.79,382.06,290.24,378.36,283.61,381.61Z" fill="#ff4367"/><path d="M307.33,24.54c-3.66-.39-43-3.9-72.65,24.7-34.32,33.12-36.16,90.47-10.17,127.14,20.09,28.34,50.74,35.77,59.57,37.77,6.53,1.48,59.56,12.62,92.27-23.24C399.09,166,397.71,134,397.42,127,395.43,80.62,358.86,30,307.33,24.54Z" fill="#76c1ff"/><path d="M122.81,165.05c-5.31.34-62.11,4.95-96.41,56-39.73,59.16-26.75,147,20.12,196.3,36.22,38.11,81.75,41.66,94.84,42.48,9.66.6,88,4.14,124.66-58.8,25.5-43.75,14.86-92.16,12.53-102.75C263.13,228.2,197.44,160.31,122.81,165.05Z" fill="#ff7381"/><path d="M202.86,433.3c13.07-2.92,100.81-29.43,142.64-113,27.84-55.66,40.7-149.7-21.53-209.93C274.6,62.54,197.26,54.71,138.27,83.42c-76.16,37.06-106,127.35-88.82,201.85C66.06,357.54,126.59,419.26,202.86,433.3Z" fill="#ffca76"/><path d="M202.86,423.88a209.29,209.29,0,0,1,17.49,26.91c2.53,4.62,4.75,9.12,6.73,13.46a55.36,55.36,0,0,1-44.4,6.72c2.27-6.82,4.93-14,8.07-21.52C194.66,440.1,198.77,431.57,202.86,423.88Z" fill="#ffca76"/><path d="M194.1,437.61l-3.4-4.6a23.75,23.75,0,0,1,13.38-4.58A23.46,23.46,0,0,1,218.47,433l-3.39,4.6a17.68,17.68,0,0,0-21,0Z" fill="#76c1ff"/><path d="M142.52,156.63l-2,77.64-13.09-.34.86-32.61-11.47-.3-1.28,30.61-13.08-.54,3-75.14,13.07.53-1.08,27.1,11.27.3.73-27.59Z" fill="#fff"/><path d="M181.26,212.44l-16.38.24-3.5,15.25-11.75.17,16.7-67.29,17.14-.24,16.14,66.15-14.87.38C184.29,224.92,182.14,216,181.26,212.44Zm-3.4-14.57-4.59-22-5,22.09Z" fill="#fff"/><path d="M219.76,231.21l-14.31-.34L207.1,165l8.16.14a24.74,24.74,0,0,1,3.58-.18,29.83,29.83,0,0,1,17,5.62c4,3.15,6.2,7.27,6.12,11.59-.1,5.33-2.47,17.11-21.39,18.69Zm1.39-55.74-.35,15.05c10.76-1.14,10.86-6.38,10.89-8.54,0-1.33-1.12-2.52-2.11-3.29A19.53,19.53,0,0,0,221.15,175.47Z" fill="#fff"/><path d="M262.9,230.38,248,230.1l1.43-68.77,8.5.11a28.5,28.5,0,0,1,3.74-.21A31.11,31.11,0,0,1,279.35,167c4.22,3.27,6.5,7.56,6.45,12.07-.07,5.56-2.5,17.86-22.24,19.6Zm1.19-58.17-.3,15.71c11.23-1.24,11.29-6.71,11.32-9,0-1.39-1.18-2.62-2.2-3.41A20.51,20.51,0,0,0,264.09,172.21Z" fill="#fff"/><path d="M311.6,194.08l-1,37.63-11.63-.36L300,193.14,287.4,168.19,297.81,163l9.42,18.58,17-19.22,8.72,7.75Z" fill="#fff"/><path d="M90.41,259l-.17-7.9a20.14,20.14,0,0,1,2.08-.05c10.41-.3,26.06-.71,26.77,12.8a13,13,0,0,1-3.21,9.67c-.51.5-1,1-1.59,1.49a16.67,16.67,0,0,1,2.85,2.24c3.71,3.62,5.48,8.51,5.22,14.61a15.17,15.17,0,0,1-5.23,11.46c-4.69,3.92-11.44,4.81-17.26,4.77a68.3,68.3,0,0,1-9.4-.77l-.64-.15Zm24.06,32.52c.09-3.73-.82-6.53-2.89-8.55-2.5-2.46-6.23-3.27-9.1-3.5l-.19,20.6c3.66-.19,7.39-.89,9.7-2.89A7.13,7.13,0,0,0,114.47,291.51Zm-11.72-32.44-.14,12c4.38-.62,6.4-1.91,7.34-2.9a5,5,0,0,0,1.17-3.94C111,261,108.27,259.53,102.75,259.07Z" fill="#fff"/><path d="M139.1,305.63l-9.72-.06.32-51.94,9.72.06Z" fill="#fff"/><path d="M148.42,303.12l.64-47.45,5.84.09a21.52,21.52,0,0,1,14.83,3.73,10.29,10.29,0,0,1,4.53,8.31c0,3.4-1.31,10.42-11,12.93l12.16,20.82L169,305.21,158.94,288l-.21,15.26Zm16.91-37.7a13.38,13.38,0,0,0-6.06-2.3L159.14,274c7.7-.91,7.72-4.72,7.73-6.27A3.29,3.29,0,0,0,165.33,265.42Z" fill="#fff"/><path d="M205.25,264.32l-8.12-.05L196.9,302l-9.08-.06.23-37.74-8.6,0,.06-10,25.8.16Z" fill="#fff"/><path d="M232.39,254.48l3.26,45.45-7.65.55-1.38-19.09-6.71.49,1,17.94-7.67.44-2.55-44.05,7.67-.44.92,15.89,6.6-.48L224.73,255Z" fill="#fff"/><path d="M242.19,303.05l0-4.72c0-6.08.62-36.31.62-37.54l.08-4.31,4.31-.39c1-.06,2-.11,3-.11,5.66,0,10.08,1.71,13.25,4.92,3.7,3.8,5.44,9.47,5.28,17.27-.33,18.24-13.54,24.95-21.74,24.91Zm9.62-10.75c3.5-1.87,7.23-5.92,7.4-14.3.08-5-.84-8.63-2.6-10.47a7.1,7.1,0,0,0-4.36-1.85C252.16,272.29,251.91,284.51,251.81,292.3Z" fill="#fff"/><path d="M294,292.65l-11.51-.06-2.65,10.67-8.27-.05,12.66-47,12,.06,10.42,46.7-10.44.06C296,301.46,294.58,295.19,294,292.65Zm-2.19-10.29-2.92-15.48-3.81,15.45Z" fill="#fff"/><path d="M323.74,276.83l.78,25-7.72.22L316,276.66l-9.34-16.06,6.69-3.89,7,12,10.53-13.42,6.1,4.79Z" fill="#fff"/><path d="M158.5,332.23h-7.78l.07,36.16-8.7,0L142,332.26h-8.24v-9.61l24.71,0Z" fill="#fff"/><path d="M186.9,354.28a29.41,29.41,0,0,1-1.69,7,16,16,0,0,1-4.46,7,11,11,0,0,1-4.45,2.35,13.08,13.08,0,0,1-2.59.28,2.31,2.31,0,0,1-.6,0l-.32,0-.22,0-.54-.08-.59-.09a10.83,10.83,0,0,1-4.43-1.64,11.23,11.23,0,0,1-3.46-3.32,16.86,16.86,0,0,1-2.58-7.64,43.92,43.92,0,0,1-.34-7c.08-2.23.22-4.46.35-6.64s.33-4.4.57-6.62a43.22,43.22,0,0,1,1.24-6.9,18.75,18.75,0,0,1,1.43-3.69,10.69,10.69,0,0,1,3-3.74,9.6,9.6,0,0,1,4.86-1.88,9.89,9.89,0,0,1,2.14-.09l.48,0,.5,0c.32,0,.64.09,1,.11a14.73,14.73,0,0,1,4.4,1.31,11.7,11.7,0,0,1,3.68,3.22,17.39,17.39,0,0,1,3,7.55,60.21,60.21,0,0,1,.24,13.77C187.39,349.72,187.26,352,186.9,354.28Zm-6.39-7.21a47.46,47.46,0,0,0-.68-11.89,10.28,10.28,0,0,0-1.76-4.25,3.49,3.49,0,0,0-2.86-1.43l-.55,0-.64,0a7,7,0,0,0-1.1,0,2.07,2.07,0,0,0-1,.32,3.39,3.39,0,0,0-1.06,1.14,9.36,9.36,0,0,0-1.05,2.23,45.35,45.35,0,0,0-2.2,11.81,41.09,41.09,0,0,0,.52,11.93,10.79,10.79,0,0,0,1.92,4.32,4.19,4.19,0,0,0,2.74,1.47l.22,0,.28,0h.44a2.17,2.17,0,0,0,.59-.07,3,3,0,0,0,1.14-.59,10.56,10.56,0,0,0,2.51-3.66,36.8,36.8,0,0,0,2.6-11.36Z" fill="#fff"/><path d="M216.36,345.12l2.46,24.53-7.58.74-2.49-24.92-10.26-15.15,6.33-4.27,7.66,11.28,9.44-13.89,6.31,4.3Z" fill="#fff"/><path d="M253.39,352.47a28.12,28.12,0,0,1-1.17,6.59,14.88,14.88,0,0,1-3.75,6.74,10.29,10.29,0,0,1-4,2.43,13.3,13.3,0,0,1-2.38.41,2,2,0,0,1-.56.05H241l-.51-.05-.56-.06a10,10,0,0,1-4.2-1.26,10.55,10.55,0,0,1-3.4-2.89,15.74,15.74,0,0,1-2.83-6.94,42.25,42.25,0,0,1-.72-6.49c0-2.07,0-4.15,0-6.18s0-4.1.15-6.18a41.08,41.08,0,0,1,.76-6.48,17,17,0,0,1,1.11-3.5,9.83,9.83,0,0,1,2.59-3.65,8.9,8.9,0,0,1,4.4-2,9.61,9.61,0,0,1,2-.21l.46,0h.45c.31,0,.61,0,1,0a13.83,13.83,0,0,1,4.15,1,11,11,0,0,1,3.6,2.79,16,16,0,0,1,3.19,6.84,55.7,55.7,0,0,1,1,12.76C253.59,348.22,253.59,350.35,253.39,352.47Zm-6.33-6.33a45,45,0,0,0-1.32-11,9.33,9.33,0,0,0-1.88-3.85,3.22,3.22,0,0,0-2.73-1.17H240a5.88,5.88,0,0,0-1,.05,1.84,1.84,0,0,0-1,.36,3,3,0,0,0-.91,1.11,8.65,8.65,0,0,0-.87,2.13,43.41,43.41,0,0,0-1.37,11.09,38.87,38.87,0,0,0,1.17,11.05,10.09,10.09,0,0,0,2,3.9,3.86,3.86,0,0,0,2.63,1.21h.86a1.56,1.56,0,0,0,.56-.1,2.81,2.81,0,0,0,1-.6,9.71,9.71,0,0,0,2.12-3.55,34.1,34.1,0,0,0,1.78-10.69Z" fill="#fff"/><path d="M262.69,367.89c-4.37-3.59-5-10-5.33-15.69s.48-22.46,1.56-30.78l8,1a216,216,0,0,0-1.49,26.95c.11,2.45.42,8.2,2.39,9.82.06.06.54.42.72.36.53-.06,1.85-1.14,3.11-3.48,5-9.46,4.91-23,4.85-31.56,0-.83,0-1.67,0-2.33h8.08v2.27c.06,9.29.17,26.53-5.81,37.79-1.26,2.46-4.13,6.71-8.56,7.61a7.34,7.34,0,0,1-1.68.18A9.09,9.09,0,0,1,262.69,367.89Z" fill="#fff"/><path d="M138.48,152.6l-2,77.63-13.09-.34.86-32.61-11.47-.3-1.28,30.61-13.07-.54,3-75.14,13.08.53-1.1,27.11,11.28.29.73-27.59Z" fill="#3a3a3a"/><path d="M177.22,208.41l-16.39.23-3.48,15.26-11.76.16,16.7-67.29,17.14-.24,16.14,66.16-14.87.37C180.25,220.89,178.11,212,177.22,208.41Zm-3.4-14.57-4.6-22-5,22.09Z" fill="#3a3a3a"/><path d="M215.71,227.17l-14.3-.33,1.66-65.9,8.15.14a26.25,26.25,0,0,1,3.58-.18,29.83,29.83,0,0,1,17,5.62c4,3.15,6.19,7.27,6.12,11.6-.1,5.33-2.46,17.1-21.39,18.68Zm1.41-55.74-.35,15.06c10.76-1.15,10.84-6.39,10.88-8.55,0-1.33-1.11-2.52-2.1-3.29A19.58,19.58,0,0,0,217.12,171.43Z" fill="#3a3a3a"/><path d="M258.86,226.35l-14.94-.28,1.42-68.77,8.51.11a26.76,26.76,0,0,1,3.74-.22A31.12,31.12,0,0,1,275.31,163c4.22,3.27,6.51,7.56,6.45,12.07-.08,5.56-2.49,17.86-22.23,19.6Zm1.19-58.18-.29,15.71c11.21-1.24,11.29-6.71,11.32-9,0-1.38-1.18-2.62-2.22-3.41A20.42,20.42,0,0,0,260.05,168.17Z" fill="#3a3a3a"/><path d="M307.56,190l-1,37.63-11.63-.35L296,189.1l-12.6-24.95,10.41-5.23,9.41,18.58,17-19.21,8.72,7.74Z" fill="#3a3a3a"/><path d="M86.37,255l-.17-7.9a17.54,17.54,0,0,1,2.08-.06c10.42-.3,26.06-.71,26.78,12.8a13,13,0,0,1-3.23,9.67c-.5.5-1,1-1.59,1.5a16.3,16.3,0,0,1,2.87,2.24c3.71,3.61,5.48,8.51,5.22,14.6a15.18,15.18,0,0,1-5.24,11.46c-4.69,3.92-11.45,4.81-17.26,4.78a69.79,69.79,0,0,1-9.4-.78l-.64-.15Zm24.06,32.52c.1-3.73-.81-6.54-2.89-8.56-2.5-2.46-6.22-3.27-9.09-3.5l-.2,20.6c3.66-.19,7.4-.89,9.71-2.88A7.12,7.12,0,0,0,110.43,287.48ZM98.71,255l-.14,12c4.38-.62,6.4-1.9,7.33-2.9a4.89,4.89,0,0,0,1.18-3.94C107,257,104.24,255.49,98.71,255Z" fill="#3a3a3a"/><path d="M135.06,301.59l-9.72-.06.32-51.94,9.72.06Z" fill="#3a3a3a"/><path d="M144.38,299.08l.64-47.45,5.84.1a21.48,21.48,0,0,1,14.82,3.72,10.31,10.31,0,0,1,4.54,8.31c0,3.41-1.31,10.43-11,12.93l12.16,20.82L165,301.17,154.9,283.94l-.21,15.26Zm16.92-37.69a13.43,13.43,0,0,0-6.07-2.31L155.11,270c7.69-.9,7.71-4.72,7.72-6.27A3.29,3.29,0,0,0,161.3,261.39Z" fill="#3a3a3a"/><path d="M201.21,260.28l-8.13,0L192.86,298l-9.08-.05.23-37.74-8.6-.05.06-10,25.8.16Z" fill="#3a3a3a"/><path d="M228.36,250.45l3.26,45.45-7.66.55-1.37-19.1-6.71.49,1,17.94-7.66.44-2.55-44.05,7.66-.44.92,15.89,6.61-.47L220.7,251Z" fill="#3a3a3a"/><path d="M238.15,299l0-4.72c0-6.09.61-36.31.62-37.55l.09-4.31,4.31-.39c1-.05,2-.11,2.94-.1,5.68,0,10.1,1.7,13.27,4.91,3.7,3.8,5.44,9.48,5.28,17.27-.34,18.24-13.54,25-21.75,24.91Zm9.62-10.75c3.49-1.87,7.23-5.93,7.4-14.31.09-5-.84-8.63-2.6-10.47a7.16,7.16,0,0,0-4.36-1.85C248.11,268.25,247.88,280.47,247.77,288.27Z" fill="#3a3a3a"/><path d="M290,288.61l-11.51-.06-2.65,10.67-8.27,0,12.65-47.05,12,.07,10.44,46.7-10.45.05C291.93,297.42,290.55,291.15,290,288.61Zm-2.19-10.28-2.92-15.49-3.8,15.45Z" fill="#3a3a3a"/><path d="M319.7,272.79l.79,25-7.73.22L312,272.62l-9.36-16.06,6.71-3.89,7,12,10.53-13.42,6.09,4.8Z" fill="#3a3a3a"/><path d="M154.47,328.2h-7.78l.06,36.15-8.7,0L138,328.22h-8.24l0-9.6,24.72-.05Z" fill="#3a3a3a"/><path d="M182.86,350.24a29.75,29.75,0,0,1-1.68,7,16.16,16.16,0,0,1-4.47,7,11,11,0,0,1-4.45,2.34,13,13,0,0,1-2.58.28,2,2,0,0,1-.6,0l-.33,0h-.22l-.53-.09-.6-.09A10.89,10.89,0,0,1,163,365a11.3,11.3,0,0,1-3.45-3.32,17.15,17.15,0,0,1-2.6-7.63,45.22,45.22,0,0,1-.33-7c.08-2.23.22-4.46.35-6.63s.33-4.4.57-6.62a44.54,44.54,0,0,1,1.25-6.91,18.24,18.24,0,0,1,1.42-3.68,10.84,10.84,0,0,1,3-3.75,9.64,9.64,0,0,1,4.86-1.88,9.89,9.89,0,0,1,2.14-.09l.49,0,.48,0c.34,0,.66.09,1,.11a14.84,14.84,0,0,1,4.39,1.31,11.84,11.84,0,0,1,3.68,3.23,17.08,17.08,0,0,1,3,7.54,59.12,59.12,0,0,1,.25,13.77C183.36,345.69,183.22,348,182.86,350.24ZM176.48,343a47.84,47.84,0,0,0-.69-11.88,10.2,10.2,0,0,0-1.75-4.26,3.5,3.5,0,0,0-2.87-1.42l-.54,0-.66,0a6.57,6.57,0,0,0-1.08,0,2.07,2.07,0,0,0-1,.31,3.39,3.39,0,0,0-1.06,1.14,9.8,9.8,0,0,0-1.07,2.23,46.71,46.71,0,0,0-2.19,11.81A41.78,41.78,0,0,0,164,352.8a10.72,10.72,0,0,0,1.92,4.32,4.2,4.2,0,0,0,2.75,1.48h.22l.26,0h.44a1.68,1.68,0,0,0,.61-.07,2.94,2.94,0,0,0,1.12-.58,10.26,10.26,0,0,0,2.52-3.67,36.18,36.18,0,0,0,2.6-11.35Z" fill="#3a3a3a"/><path d="M212.33,341.08l2.45,24.53-7.58.74-2.48-24.92-10.27-15.15,6.33-4.27,7.67,11.29,9.43-13.9,6.32,4.3Z" fill="#3a3a3a"/><path d="M249.35,348.44a28.1,28.1,0,0,1-1.16,6.58,15.1,15.1,0,0,1-3.76,6.74,10.13,10.13,0,0,1-4,2.43,12.43,12.43,0,0,1-2.39.41,1.87,1.87,0,0,1-.55,0H237l-.51,0-.55-.05a10.17,10.17,0,0,1-4.22-1.27,10.37,10.37,0,0,1-3.38-2.89,15.79,15.79,0,0,1-2.85-6.94,42,42,0,0,1-.7-6.48c-.05-2.08-.05-4.16-.05-6.18s.05-4.11.15-6.18a42.41,42.41,0,0,1,.76-6.49,17.22,17.22,0,0,1,1.12-3.5,9.77,9.77,0,0,1,2.58-3.64,8.82,8.82,0,0,1,4.41-2,9.34,9.34,0,0,1,2-.2l.46-.05h.45c.31,0,.61.05,1,.05a13.42,13.42,0,0,1,4.16,1,10.94,10.94,0,0,1,3.6,2.79,16,16,0,0,1,3.19,6.84,55.7,55.7,0,0,1,1,12.76C249.55,344.18,249.55,346.31,249.35,348.44ZM243,342.1a44,44,0,0,0-1.31-11,9.34,9.34,0,0,0-1.87-3.85,3.3,3.3,0,0,0-2.74-1.17H236a4.92,4.92,0,0,0-1,.06,1.89,1.89,0,0,0-1,.35,3.11,3.11,0,0,0-.92,1.12,8.78,8.78,0,0,0-.85,2.12,42.6,42.6,0,0,0-1.37,11.09A38.47,38.47,0,0,0,232,351.88a10,10,0,0,0,2,3.9,4,4,0,0,0,2.64,1.22h.86a1.93,1.93,0,0,0,.57-.1,2.7,2.7,0,0,0,1-.61,9.72,9.72,0,0,0,2.14-3.55A33.82,33.82,0,0,0,243,342.05Z" fill="#3a3a3a"/><path d="M258.65,363.86c-4.37-3.6-5-10-5.32-15.7s.47-22.45,1.55-30.78l8,1a216,216,0,0,0-1.49,27c.12,2.46.41,8.2,2.39,9.82.06.06.55.42.72.36.54-.06,1.86-1.14,3.12-3.48,5-9.46,4.91-23,4.85-31.55-.07-.84-.07-1.68-.07-2.34h8.09v2.28c.06,9.28.18,26.53-5.81,37.78-1.26,2.46-4.13,6.71-8.57,7.61a7.06,7.06,0,0,1-1.67.18A9.12,9.12,0,0,1,258.65,363.86Z" fill="#3a3a3a"/><path d="M210.52,17.47a15.4,15.4,0,0,0-11.68,4C193.31,26.77,193,36,197.2,41.9A16,16,0,0,0,206.78,48c1.05.24,9.59,2,14.85-3.74,3.65-4,3.43-9.16,3.39-10.29C224.7,26.49,218.81,18.35,210.52,17.47Z" fill="#45a4e5"/><path d="M172.69,39.22a10.64,10.64,0,0,0-8.36-1.69c-5.13,1.26-8.52,6.66-8.07,11.63a11,11,0,0,0,3.6,7c.55.51,5,4.53,10.15,2.92a9.92,9.92,0,0,0,5.6-5C178,49.52,177.32,42.62,172.69,39.22Z" fill="#76c1ff"/><path d="M187.8,1.35A7.32,7.32,0,0,0,182.05.19a7.73,7.73,0,0,0-5.57,8A7.59,7.59,0,0,0,179,13c.38.35,3.46,3.12,7,2a6.85,6.85,0,0,0,3.86-3.41C191.47,8.45,191,3.7,187.8,1.35Z" fill="#76c1ff"/><path d="M302.11,419.41a7.73,7.73,0,0,0-3.95,5.19c-.82,4.08,1.86,8.53,5.49,10.14a8.25,8.25,0,0,0,6.07.17c.53-.19,4.84-1.75,5.41-6a8.6,8.6,0,0,0-1.62-5.83C311.1,419.67,306,417.48,302.11,419.41Z" fill="#ff7381"/><path d="M338.2,403.9a10.61,10.61,0,0,0-8.34-1.69c-5.15,1.26-8.52,6.66-8.08,11.63a11.06,11.06,0,0,0,3.6,7c.55.51,5,4.54,10.16,2.93a10,10,0,0,0,5.58-5C343.53,414.2,342.84,407.3,338.2,403.9Z" fill="#ff4367"/><path d="M326.41,375.46a7.33,7.33,0,0,0-5.76-1.17,7.73,7.73,0,0,0-5.56,8,7.53,7.53,0,0,0,2.48,4.79c.38.35,3.45,3.13,7,2a6.9,6.9,0,0,0,3.85-3.42C330.08,382.56,329.61,377.8,326.41,375.46Z" fill="#ff7381"/><polygon points="69.36 118.68 0 66.09 19.93 42.48 69.36 118.68" fill="#ff4367"/><polygon points="65.53 134.13 17.35 104.22 13.72 130.49 65.53 134.13" fill="#ff7381"/><polygon points="76.14 111.96 49.89 57.27 88.68 52.32 76.14 111.96" fill="#ff7381"/><polygon points="396.7 378 340.05 360.87 375.04 409.55 396.7 378" fill="#76c1ff"/><polygon points="395.86 332.62 343.75 352.35 386.07 362.24 395.86 332.62" fill="#45a4e5"/></g></g></svg>