<svg xmlns="http://www.w3.org/2000/svg" viewBox="0 0 198.96 154.79"><g id="Layer_2" data-name="Layer 2"><g id="Lettering"><path d="M21.9,79.31C20,81.37,18.54,83.47,16.45,85c-.85.61-1.93,2-2.81,1.06-.67-.7.6-1.86,1.3-2.64a58.1,58.1,0,0,0,5-6.44,2.69,2.69,0,0,0,.32-2.63C18.13,67.62,15.72,61,14.4,54.08A15.24,15.24,0,0,1,14,48.26a6.14,6.14,0,0,1,7.58-5.17A12.09,12.09,0,0,1,31.6,54.6c.4,6.32-1.7,11.9-4.84,17.18a3.51,3.51,0,0,0-.25,3.76c.9,1.86,1.51,3.84,2.38,6.11a31.9,31.9,0,0,0,2.73-8.4c.57-2.9,1.07-5.82,1.9-8.65S35.85,59,39.2,58.1c1.5-.42,2.9.11,4.5.47-.56-2,.76-2.46,2.17-2.7,2.25-.38,4,.32,4.49,1.86a73.54,73.54,0,0,1,2.2,10.39,25.53,25.53,0,0,0,2.5,7.3c1.53-4.73,3.45-8.93,1.9-13.7a56.46,56.46,0,0,1-2.15-10c-.11-.83-.33-1.22-1.24-1.36a11,11,0,0,0-8.3,1.61,11.46,11.46,0,0,1-1.35.87c-.68.35-1.46,1.41-2.13.55s-.27-2,.64-2.83c2.4-2.08,5.4-2.22,8.34-2.54,1.11-.12,2.56.49,3.24-.25.52-.57.07-2,.12-3a22.76,22.76,0,0,1,1.13-6.45,3.55,3.55,0,0,1,3.29-2.77,2.83,2.83,0,0,1,3.29,2.25,33.74,33.74,0,0,1,1.62,8.89c0,1.42.61,1.5,1.78,1.21,4.24-1,4.21-1,4.94-5.29a20,20,0,0,1,2.18-6.72c.84-1.47,1.92-2.7,3.82-2.81,2.44-.13,3.41.53,4.23,2.87,1.15,3.25.55,6.45-.24,9.63a52.72,52.72,0,0,1-3.65,10.74c-1,2-.75,3.94-.23,6.07.74-.44.72-1.16.92-1.72a25.74,25.74,0,0,1,3.1-6.37,7.47,7.47,0,0,1,8.6-3c2.75.78,4.74,3.61,5,6.91.31,4.36-.55,8.62-.89,12.93a4.91,4.91,0,0,0,0,2.09c.12,0,.28-.07.31-.14,1.6-4.25,4.07-8.07,5.5-12.45,1.23-3.75,3-7.7,7.65-8.84a7.16,7.16,0,0,1,4.87.27,2.71,2.71,0,0,1,1.39,4,9.74,9.74,0,0,1-7.08,5.42,2.13,2.13,0,0,0-2,2.19,14.14,14.14,0,0,0,1.2,7.62c1,2.09,1.85,2.34,3.71,1.07a11.62,11.62,0,0,0,2.28-2,35.37,35.37,0,0,0,7-13,1.6,1.6,0,0,0-.92-2.24c-2.73-1.5-3.4-3.17-2.42-5.47A4.1,4.1,0,0,1,118.91,47a3.9,3.9,0,0,1,3.44,3.73,10.68,10.68,0,0,1,0,1.6c-.15,2.38-.16,2.42,2.26,2.64,1.53.13,3.08.08,4.62.15,2.45.1,3.62,1.33,3.81,3.76.3,3.8-.64,7.4-1.57,11-.56,2.17-1,4.36-1.52,6.55a14.89,14.89,0,0,0-.12,2,12.77,12.77,0,0,0,3.43-3.18,48.05,48.05,0,0,0,4.38-6.89,19.75,19.75,0,0,1,1.95-3,1.74,1.74,0,0,1,2.28-.35c.9.49.3,1.2.06,1.7a44.22,44.22,0,0,1-9.48,13.42,6,6,0,0,1-2,1.2c-3.47,1.41-5.84-.24-5.94-3.93-.1-4.11,1.28-7.92,2.31-11.79a24.17,24.17,0,0,0,1-6.82c0-1.13-.25-1.66-1.55-1.78-4.38-.42-4.38-.49-6,3.56a37.32,37.32,0,0,1-6.15,10.55c-2.71,3.19-6,5-10.35,3.82-2.7-.71-3.69-2.94-4.72-5.4-1.31,2.58-2.32,5.1-3.77,7.38A4.15,4.15,0,0,1,92,79.24c-3,.17-4.54-1-5.1-4-.79-4.32-.27-8.63.16-12.93a21.15,21.15,0,0,0-.15-6.55c-.17-.81-.24-1.86-1.1-2s-1.27.75-1.76,1.32a18.09,18.09,0,0,0-2.74,5,56.64,56.64,0,0,0-3,10.57c-.41,2,.59,4,.85,5.94.28,2.14,0,2.94-1.63,3.3a2.79,2.79,0,0,1-3.55-2.23c-.42-1.76-.75-3.55-1.18-5.6-.91,1.11-.85,2.27-1.18,3.28-1.19,3.61-4.33,4.36-7,1.59a21.14,21.14,0,0,1-3.65-5.65c-.1-.2-.24-.38-.51-.79A16.72,16.72,0,0,0,59,75.1c-.27,3.19-2.47,4.76-5.63,4-1.73-.41-2.52-1-5.63-4-1,3-1,6.81-5,7.64-3.51.73-6.27-.65-8.29-4.11a50,50,0,0,1-3.81,7.87c-.47.78.13,1.23,1,1.42a17.55,17.55,0,0,1,5,1.9c6.8,3.82,9.18,12.49,8.33,18.92a16.92,16.92,0,0,1-1,4.32c-1.23,3-4.23,3.81-6.79,1.78A16.92,16.92,0,0,1,33.4,110,80.92,80.92,0,0,1,26,92.15c-.42-1.37-.87-1.66-2.17-1A42.77,42.77,0,0,1,19.4,93c-.76.29-1.71.35-2.13-.34s.54-1.05,1-1.46a11.74,11.74,0,0,1,5.16-2.62c1-.26,1.5-.64,1.11-1.81A76.25,76.25,0,0,0,21.9,79.31Zm2.37-9.68c2.61-5.14,4.36-10.08,3.6-15.6a10.52,10.52,0,0,0-3.48-7c-1.34-1.12-2.85-2.59-4.72-1.74s-1.86,3-1.66,4.85C18.75,57,21.73,63,24.27,69.63Zm21.32-1c.11-1.23-.44-2.34-.46-3.53a6.89,6.89,0,0,0-.34-1.73c-.31-1.06-2.89-3.26-3.86-3.14-1.46.18-2,1.5-2.34,2.62a18,18,0,0,0,1.79,16.42c.95,1.47,1.57,1.49,2.21,0A43.09,43.09,0,0,0,45.59,68.6Zm23.06,4.13c.7-3.89,2.45-7.57,2.11-11.58-.31-3.59-1-7.14-1-10.77,0-.68-.15-.93-.92-.77a23.31,23.31,0,0,1-4.7.78c-.75,0-.77.55-.87,1.1a14.14,14.14,0,0,0,.28,6.3A97.17,97.17,0,0,0,68.65,72.73Zm-37,17.93c1.15,6.73,6.44,20.27,8.54,22C43.42,106,40.28,93.48,31.64,90.66ZM75,48.54c1.84-3.34,2.58-8.93,1.54-11.6C75,40.82,74.91,44.67,75,48.54Zm30.23,10.8c1.49-.07,4.36-3,4.28-4.54-.06-1.12-.66-1.48-1.66-.82a8.78,8.78,0,0,0-3.17,4.58C104.49,59,104.45,59.44,105.19,59.34Zm13.07-10a2.32,2.32,0,0,0-.59,1.88c0,.55.12,1.31.64,1.33.72,0,.49-.79.53-1.26A2.32,2.32,0,0,0,118.26,49.38Z" fill="#074a82"/><path d="M65.24,117.64a24.23,24.23,0,0,1-4.64,3.6,8.41,8.41,0,0,1-5.33.89,3.26,3.26,0,0,1-2.64-1.87c-4.34-8.8,1.17-18.24,7.8-21.14A6.3,6.3,0,0,1,65.29,99c1.06.41,1.38.17,1.61-1A88.35,88.35,0,0,1,70,86.45a4.93,4.93,0,0,1,1.78-2.79,3.08,3.08,0,0,1,4.89,2.43,21.1,21.1,0,0,1-.87,7.19,58,58,0,0,1-4.17,10.93c-2,4-1.89,8.14-1.56,12.34a19.49,19.49,0,0,0,1,6.29,4.37,4.37,0,0,0,1.75-2,95.9,95.9,0,0,0,6.46-12.65,15.56,15.56,0,0,1,4.1-6.14,8.67,8.67,0,0,1,7.26-2.16c1.5.23,2.8.81,4.47.13,1.43-.58,3.64,2.12,3.6,4.27-.07,3.25-.31,6.5-.51,9.76-.11,1.7-.42,3.41.13,5.1.14.41.26.91.65,1s.66-.45.84-.79a70.26,70.26,0,0,0,5.06-14.93,2.82,2.82,0,0,0-.16-2.06c-1.22-1.63.13-1.9,1.09-2.12,3.17-.76,5.1.71,5.53,4a33.53,33.53,0,0,0,3.13,10.49,3.45,3.45,0,0,0,1.33,1.78,13.94,13.94,0,0,0,1.49-6.28c.27-3.84.76-7.68.38-11.54-.09-.93.44-1.23,1.24-1.39,3.47-.68,5.94,1.3,6.23,4.79.17,2.1.7,4.17,1.14,6.7,1.57-3.09,2.08-6,2.82-8.92A20.51,20.51,0,0,0,129.7,97c.11-.93.54-1.41,1.48-1.37s1.19.7,1.19,1.59a22.11,22.11,0,0,1-1.91,9.7,16.24,16.24,0,0,0-.63,13.37A45.7,45.7,0,0,1,132.36,133a13.18,13.18,0,0,1-1.13,6.22c-1.08,2.43-2.57,4.18-5.48,4.37a7,7,0,0,1-7.16-4c-1.91-3.56-1.84-7.38-1-11.24a29.4,29.4,0,0,1,4.2-10.3c1.92-2.86.87-5-.68-7.61-.31,1.72-.56,3.25-.87,4.77-.38,1.84-.86,3.74-3.1,4.06-2.47.35-4.74-.15-6.32-2.34a29.86,29.86,0,0,1-3-6c-.16-.38-.24-.79-.68-1a63.6,63.6,0,0,1-2.87,9.86c-1.8,5-8.19,4.74-10.63,1.22a3.52,3.52,0,0,0-1.44-1.57c-.9,4.15-3.53,5.84-7.64,5.26s-5.24-3.56-6.2-7.25L76,121.73a13.48,13.48,0,0,1-3.25,4.18c-2.85,2.32-5.61,1.46-6.63-2.08A42.34,42.34,0,0,1,65.24,117.64Zm.2-11.32c0-.23,0-.47,0-.7.32-1.81-1.09-2.61-2.22-3.25s-1.66.63-2.19,1.37c-2.85,4-3.83,8.68-4.32,13.48a1.57,1.57,0,0,0,.77,1.67c.65.36,1.16-.08,1.57-.49C62.41,115,65.19,111.33,65.44,106.32Zm21,14.78a2.6,2.6,0,0,0,.48-.35c.26-.32.5-.66.73-1C91,115,91.12,109.43,91.4,103.94c0-.84-.69-1.2-1.27-1.57s-1.13.07-1.57.45A8.42,8.42,0,0,0,86.35,106a19.79,19.79,0,0,0-1.25,10.43C85.3,118,85.36,119.72,86.47,121.1Zm38.57-.35c-2.47,4.5-4.06,9.19-3.24,14.37.2,1.28.74,2.49,2.47,2.54,2.72.07,3.74-.94,3.59-3.95C127.65,129.25,126,125.11,125,120.75Z" fill="#074a82"/><path d="M156.1,70.1c-.2,2.31.7,4.41,1.27,6.58.19.69.57.82,1.33.63a60,60,0,0,0,7.7-2,6.27,6.27,0,0,1,3-.32c.42,0,.87.09,1,.56s-.28.87-.68,1.11a15.77,15.77,0,0,1-5.32,1.86c-1.62.33-3.23.76-4.86,1-1.17.17-1.24.7-1.06,1.71.44,2.6.52,5.17-1.12,7.5A7.45,7.45,0,0,1,148,91.05c-2.1-1.1-2.77-3-1.86-5.44a10.8,10.8,0,0,1,4.46-5.16,1.63,1.63,0,0,0,.83-2.15c-.72-2.67-1.58-5.32-1.27-8.18.57-5.38,4-8.25,9.33-7.5a5.43,5.43,0,0,1,4.09,3.1,2.35,2.35,0,0,1-.64,2.91c-.85.8-1.48-.15-2.12-.61a10.44,10.44,0,0,1-2.31-2.19c-.63-.86-1.14-.62-1.63.14C156.09,67.24,156.17,68.69,156.1,70.1Zm-3.33,15.1c0-.59,0-1.18-.13-1.76-.06-.4-.29-.58-.75-.35-1.41.7-2.62,4-1.94,5.33.53,1.07,1.33,1.15,2,.15A5.4,5.4,0,0,0,152.77,85.2Z" fill="#074a82"/><path d="M147.3,54.93a10,10,0,0,1,.53-3.16,3.27,3.27,0,0,1,4.37-2.31c1.05.32,1.4,1,.84,2-1,1.92-2,3.85-3,5.8a1.68,1.68,0,0,1-2.07.91c-.91-.18-.77-.87-.7-1.54C147.33,56.26,147.3,55.84,147.3,54.93Z" fill="#074a82"/><path d="M161.33,112.42c-.86,0-1.68,0-2.48-.09.74-.91,1.49-1.84,2.21-2.79a14,14,0,0,0,5.47-.6.7.7,0,0,0-.12-1.37c-1.28-.08-2.53-.16-3.76-.27a25.1,25.1,0,0,0,1.91-3.44c.19-.44-.53-.78-.77-.36a26.86,26.86,0,0,1-2.53,3.66c-1.25-.14-2.49-.33-3.71-.58a38.85,38.85,0,0,0,4.2-6c.19-.35-.32-.69-.53-.34a45.28,45.28,0,0,1-4.67,6.15,24.35,24.35,0,0,1-5.91-2.26.71.71,0,0,0-.78,1.19,25,25,0,0,0,5.11,2.79c-.92,1-1.86,1.92-2.81,2.85a20.74,20.74,0,0,1-5.36-3.09c-.34-.26-.8.28-.49.58a23.7,23.7,0,0,0,4.82,3.52c-2.44,2.37-4.9,4.69-7.15,7.1-.26.27.05.83.41.59a48.21,48.21,0,0,0,7.88-7.11,16.88,16.88,0,0,0,3.27,1.13c-1.94,2-4.12,4.11-5.46,6.48a.73.73,0,0,0,1.1.93c2.41-1.88,4.42-4.63,6.36-7.1a12,12,0,0,0,3.9-.31A.62.62,0,0,0,161.33,112.42Zm-7.47-1.64c.7-.77,1.41-1.54,2.11-2.34a21.11,21.11,0,0,0,3.45.9c-.83.94-1.68,1.87-2.49,2.79a20.91,20.91,0,0,1-3.58-.79Z" fill="#d9455f"/><path d="M175.39,110.18c.35-.9-.81-2-1.66-1.4a79.14,79.14,0,0,1-11.53,6.32.51.51,0,0,0,.35.94,42.31,42.31,0,0,0,8.14-3,61.53,61.53,0,0,0-4.82,9.16c-1.29-.1-2.59-.15-3.89-.18a.53.53,0,0,0-.18,1,62.22,62.22,0,0,0,6.28,1.62c1.51.29,2.95,1,4.21-.06a.64.64,0,0,0,.13-.76c-.74-1.21-2-1.22-3.26-1.33,1.15-1.88,2.08-3.92,3.07-5.87C173.31,114.52,174.53,112.41,175.39,110.18Z" fill="#d9455f"/><path d="M198.4,115.8a1.38,1.38,0,0,0,.19-1.61c-2-3.94-6.7-6.86-10.34-9.23a61.28,61.28,0,0,0-13.57-6.6,54.8,54.8,0,0,0-29.44-1.67.45.45,0,0,0,.12.88A73.22,73.22,0,0,1,173,101.75a64.88,64.88,0,0,1,12.69,6.14c3.35,2.11,6.16,5.16,9.46,7.28-5.11.09-10.26.13-15.33.7a1.87,1.87,0,0,0-1.3,3.14,64.15,64.15,0,0,1,10.95,18c-12.8-9.27-31.34-12-46.18-9.09a.87.87,0,0,0,.23,1.71,77.62,77.62,0,0,1,25.66,2.52c8.64,2.41,15.48,7,23.05,11.47a1.68,1.68,0,0,0,2.44-1.87,81.81,81.81,0,0,0-11.07-22c4.41.13,8.85,0,13.24-.11A2.3,2.3,0,0,0,198.4,115.8Z" fill="#d9455f"/><path d="M50.63,3.14a49.2,49.2,0,0,0-26.85-1.8C16.52,2.85,4.93,6.49.75,13.06a1.35,1.35,0,0,0,.08,1.48c-1.2,1.14-1.24,3.4.79,3.69,3.92.55,7.86,1.17,11.82,1.55a74.57,74.57,0,0,0-12,18.09,1.68,1.68,0,0,0,2.28,2.27c7-3.08,13.45-6.29,21.08-7.54a71.16,71.16,0,0,1,23.7.37A.87.87,0,0,0,49,31.29C36.14,27,19.52,27.38,7.08,34A58.76,58.76,0,0,1,18.72,19.53a1.85,1.85,0,0,0-.81-3.07C13.53,15.4,9,14.78,4.56,14.15c2.58-1.34,4.94-3.28,7.54-4.59A58,58,0,0,1,24,5.18,66.34,66.34,0,0,1,50.39,4,.45.45,0,0,0,50.63,3.14Z" fill="#d9455f"/><path d="M68.39,6.31c-3.06-.58-5.26,2.44-6.84,4.56A28.81,28.81,0,0,0,56,22.93c-.13.7.84,1.22,1.22.51,1.09-2,2.15-4.12,3.33-6.11h.06c1.61-.05,3.22-.07,4.82-.14l2-.07C66.86,20,65.87,23,66.25,25.86c.15,1.2,2,2.14,2.62.71.94-2,1-4,1.32-6.27.19-1.46.42-2.92.64-4.38A1.8,1.8,0,0,0,71,14.4q.18-1.22.3-2.43C71.58,9.6,71.18,6.84,68.39,6.31Zm-5.85,7.62c1-1.62,2.25-3.29,3.45-3.8,2.46-1.05,2.58,1,2.21,3.16A29.66,29.66,0,0,0,62.54,13.93Z" fill="#074a82"/><path d="M88.18,7.66C86.07,4,76.7,4.54,74.91,8.09a.65.65,0,0,0,.38.93,4.07,4.07,0,0,0,.9.08c-2,5.27-3.8,11-3.31,16.7.06.68,1,1.08,1.38.38a31.88,31.88,0,0,0,3.07-11.66C80.63,14.05,91.29,13,88.18,7.66Zm-3.55,3.2a25.94,25.94,0,0,1-2.58.71c-1.56.43-3.07.95-4.58,1.49.1-1.42.17-2.84.21-4.23.43-.12.88-.26,1.36-.37A13.56,13.56,0,0,1,84.8,8l.93.32Q87,10.5,84.63,10.86Z" fill="#074a82"/><path d="M103.87,7.66C101.76,4,92.39,4.54,90.6,8.09A.65.65,0,0,0,91,9a4,4,0,0,0,.9.08c-2,5.27-3.8,11-3.31,16.7.06.68,1,1.08,1.37.38A31.89,31.89,0,0,0,93,14.52C96.32,14.05,107,13,103.87,7.66Zm-3.38.3.93.32q1.23,2.22-1.1,2.58a25.94,25.94,0,0,1-2.58.71c-1.56.43-3.07.95-4.59,1.49.11-1.42.18-2.84.22-4.23.43-.12.87-.26,1.35-.37A13.62,13.62,0,0,1,100.49,8Z" fill="#074a82"/><path d="M117.31,8.05c0-1.13-1.88-1.51-2.07-.28-.26,1.65-.5,3.34-.79,5-1,1.74-2,4.36-4.22,2.18-2-2-1-5.67-.74-8.13.1-.88-1.18-1.08-1.58-.43-1.43,2.35-2.63,4.95-2,7.78a6.61,6.61,0,0,0,4.23,4.72,4.48,4.48,0,0,0,3-.22,26,26,0,0,1-1.83,4.65c-3.3,6.34-10,7.18-15.76,3.76-1.82-1.09-3.29,1.6-1.63,2.8,5.19,3.73,12.46,2.87,17-1.43C116.81,23,117.56,15.68,117.31,8.05Z" fill="#074a82"/><path d="M56.19,7.21c-1.76,2.43-3.45,4.87-5.11,7.35a25.56,25.56,0,0,0-6.95.5c.74-2.05,1.45-4.09,2.21-6C46.77,8,45,7.29,44.47,8.32c-2.47,5-6.17,10.43-7.35,15.89a1.2,1.2,0,0,0,2.18.92,35.55,35.55,0,0,0,4.24-8.5,45.1,45.1,0,0,0,5.7.68c-1.62,2.38-3.72,4.76-3.12,7.71A1.52,1.52,0,0,0,48,26.08C51,25,51.9,21.66,53.24,19c1.75-3.5,3.34-7,4.89-10.62A1.12,1.12,0,0,0,56.19,7.21Z" fill="#074a82"/><path d="M152.82,19.62c-1.15-.21-2.15,1.28-1,2,1.72,1.06-.52,2.33-1.68,2.21a2.37,2.37,0,0,1-2.2-2.06,14.1,14.1,0,0,0,1.1-2.88c1-.68,2.38-1,3.44-1.64a9.1,9.1,0,0,0,3.71-6.32c.32-2.34-.17-5.08-2.24-6.5-1.7-1.15-4.28-1.16-5.6.47L132,2.52a4.7,4.7,0,0,0-4.54-.41C125,3.23,124,6.23,124.07,8.78a8.64,8.64,0,0,0,3.68,7.1c.88.61,1.81.91,2.34,2a3.16,3.16,0,0,1-.74,3.61c-1.82,1.44-5-1.4-3-2.17,1.09-.4.6-2.11-.46-2.13-3-.05-4,3.05-2.37,5.26,1.85,2.44,5.51,3.06,7.7.73A5.59,5.59,0,0,0,132.51,21,9.25,9.25,0,0,0,137.77,25a4.77,4.77,0,0,1,.85,3.2,4.64,4.64,0,0,1-.79,3.17,7.4,7.4,0,0,0-2.27.4,7.09,7.09,0,0,0-.55,5.82,1,1,0,0,0,.94.79c3.54.1,7.09-.06,10.63-.06a2.28,2.28,0,0,0,1.31-1.52A14.79,14.79,0,0,0,146.75,32a1.13,1.13,0,0,0-1-.84l-2.07.05a7.2,7.2,0,0,1-1.27-5.69l.93-.09a5.41,5.41,0,0,0,2.82-1.26,4.94,4.94,0,0,0,7.29,1.48C155.56,24.07,156,20.2,152.82,19.62Zm.48-13.27c1.22,1.05,1.15,3.49.81,4.88C153.45,14,151.9,15,149.68,16a47.72,47.72,0,0,0,.26-10.28A3.45,3.45,0,0,1,153.3,6.35Zm-25,7.3a6.69,6.69,0,0,1-2.16-4.26c-.24-1.73.09-3.93,1.54-5.05A3,3,0,0,1,131,4a36.36,36.36,0,0,0-.46,11C129.81,14.5,129,14.19,128.33,13.65Z" fill="#d9455f"/><path d="M164.26,19.19a23.22,23.22,0,0,0,7.11,0c2.41-.31,4.59-.17,6.12-2.28a2.29,2.29,0,0,0-.81-3.07c-2-1.35-4.3-.31-6.44.16a22.54,22.54,0,0,0-6.37,2.27c-1.12.64-1,2.69.39,2.94Z" fill="#d9455f"/><path d="M165.06,27.65c5.38,2.34,10.83,5.14,16.45,6.87,3.31,1,4.51-3.9,1.4-5.1-5.31-2.06-11.13-3.21-16.63-4.67-1.67-.44-2.92,2.16-1.22,2.9Z" fill="#d9455f"/><path d="M163.7,9.25c2.68-1,5.39-1.91,8.06-2.93,2.27-.87,4.89-1.6,6.61-3.37A1.75,1.75,0,0,0,177.15,0c-2.51.13-4.72,1.55-6.91,2.71-2.54,1.35-5,2.79-7.54,4.17-1.26.69-.4,2.88,1,2.37Z" fill="#d9455f"/><path d="M35.3,127.6a25.86,25.86,0,0,1-5.58,5.62c-2.12,1.66-3.72,3.51-6.58,3.06-1.41-.21-2-1.81-1.81-3,.46-2.61,3.12-3.65,5.16-5A24.72,24.72,0,0,1,33.27,125c1.39-.39,2.93,1.3,2,2.61Z" fill="#d9455f"/><path d="M41.38,134.84C39,140.94,37,147.45,34,153.25c-1.78,3.43-6.62.54-5.14-2.87,2.52-5.83,6.15-11.33,9.3-16.84,1-1.66,4-.62,3.25,1.3Z" fill="#d9455f"/><path d="M27.85,119.38c-2.88,1.35-5.72,2.78-8.62,4.1-2.47,1.12-5.09,2.63-7.84,2.6A1.94,1.94,0,0,1,10,122.81c2.07-1.88,4.92-2.53,7.55-3.36,3.05-1,6.13-1.8,9.2-2.72,1.53-.46,2.6,1.94,1.09,2.65Z" fill="#d9455f"/></g></g></svg>