<svg xmlns="http://www.w3.org/2000/svg" viewBox="0 0 254.5 163.48"><g id="Layer_2" data-name="Layer 2"><g id="Lettering"><path d="M86.74,49c-1.24-3.5-2.19-7.09-3.21-10.65q1-.52,2-1.11c1.52-.89.27-3.35-1.27-2.45-.51.29-1,.58-1.54.85-1-3.74-2.11-7.48-3-11.26a1.38,1.38,0,0,0-2.7.6c.9,4,2.12,7.94,3.2,11.89a36.26,36.26,0,0,1-5.33,2,67.27,67.27,0,0,0-2.85-10.4c-.64-1.65-3.08-.37-2.45,1.27a65.63,65.63,0,0,1,2.77,10c-2.57.71-1.86,4.05.59,2.82a72.33,72.33,0,0,0,3,11.11c.64,1.66,3.09.38,2.46-1.26a69.17,69.17,0,0,1-3-10.86,47,47,0,0,0,5.51-2c1.16,3.64,1.89,7.52,3.43,11C85.58,52.21,88,50.57,86.74,49Z" fill="#074a82"/><path d="M102,34.71C99.19,29.55,96.3,24.43,93.3,19.4a1.43,1.43,0,0,0-2.4-.17,1.12,1.12,0,0,0-.18,1.19c1.1,5.2,1.34,10.59,2,15.85-3.47-.12-3,3.78.3,2.74.25,2.36.47,4.73.58,7.09.09,1.76,2.84,1.92,2.76.14-.13-2.59-.37-5.18-.64-7.76A26,26,0,0,0,100.05,37q1.92,3.59,3.77,7.22a1.38,1.38,0,0,0,2.45-1.27Q104.17,38.78,102,34.71Zm-4.17.23a16.1,16.1,0,0,1-2.35.76c-.34-2.94-.67-5.84-1-8.81,1.45,2.53,2.86,5.08,4.25,7.63C98.42,34.66,98.11,34.81,97.8,34.94Z" fill="#074a82"/><path d="M109.38,13.64a11,11,0,0,0-3.21,1,1.37,1.37,0,0,0-2.27,1.51,6.87,6.87,0,0,1-1.37,1.26c-1.5.92-.25,3.38,1.27,2.45a9.34,9.34,0,0,0,1.06-.78c1.23,3.6,2.61,7.16,3.81,10.78-2.76.52-1.68,4.06.83,2.65a70.19,70.19,0,0,0,3.1,9.21c.72,1.62,3.18.35,2.45-1.26A72.49,72.49,0,0,1,112,31.18C120,27.33,119.09,13.54,109.38,13.64Zm1.72,14.79c-1.31-3.77-2.72-7.49-4-11.27C114.81,13.39,117.43,25,111.1,28.43Z" fill="#074a82"/><path d="M125.86,9a10,10,0,0,0-4.23.71c-.94-2.34-3.85-.85-2.45,1.29q-.51.34-1,.72c-1.45,1.17.59,3.22,1.94,2q2.07,5.85,4.12,11.69-.84.46-1.65.84c-1.6.76-.34,3.21,1.27,2.46.44-.21.88-.43,1.31-.66q1.51,4.28,3,8.55c.59,1.65,3.29,1.08,2.7-.59l-3.31-9.39C135.15,22.55,136,9.7,125.86,9Zm.77,14.89-4.08-11.58C131.31,9.19,133.54,19.69,126.63,23.85Z" fill="#074a82"/><path d="M147.2,31.08c-1-3.55-2.46-7-3.51-10.46.73-6.35,1.83-12.76,1.61-19.22,0-1.76-2.77-1.92-2.76-.14a99,99,0,0,1-1,15q-2.76-5-5.35-10.07a1.38,1.38,0,0,0-2.45,1.27c2.37,4.43,4.5,9.1,7.25,13.28.88,3.7,2.6,7.22,3.56,10.93C145,33.36,147.72,32.78,147.2,31.08Z" fill="#074a82"/><path d="M213.26,45.22c-1.32,3.57-2.56,7.18-4,10.71-.73,1.79-2.36,3.37-2.57,5.17s2.23,2.71,3.08,4.37c1.65,3.23,2.56,6.47.68,9.86-1.71,3.09-5.54,4.23-9.09,2.86-2.79-1.07-4.36-4.69-3.51-8.43a19.2,19.2,0,0,1,1.64-4.67c.76-1.48.36-2.19-1-2.86-2.38-1.2-4.77-2.39-7-3.77-2.74-1.68-5.12-3.71-6-7.05-1.13-4.3.82-7.85,5.11-8.91a10.94,10.94,0,0,1,6.38.25,4,4,0,0,1,1.91,1.35,2,2,0,0,1-.11,2.6c-.61.72-1.3.08-1.89-.32a6.71,6.71,0,0,0-1.09-.7c-1-.38-1.85-1.33-3-.52a3.34,3.34,0,0,0-1.23,3.27,8.51,8.51,0,0,0,2.89,5.41,33,33,0,0,0,7.16,4.8c1,.55,1.35,0,1.82-.7a67.37,67.37,0,0,0,6-11.73c.79-2.07,2-2.42,3.86-1.42ZM202.37,71.51a8.43,8.43,0,0,0,.82,3.17c.21.44.41,1,1,.92s.79-.57,1-1a5.46,5.46,0,0,0,.23-4.37c-.36-1.08-.42-2.84-1.71-2.85-.88,0-.82,1.75-1.09,2.75C202.53,70.6,202.45,71.09,202.37,71.51Z" fill="#074a82"/><path d="M175.58,35.69c1.26.39,1.12,1.64,1.6,2.52,1,1.89,1.4,4.07,2.61,5.89.51.76.22,1.38-.75,1.52-1.48.22-2.84.16-3.91-1.15a15.62,15.62,0,0,1-2.51-4.25c-.78-2-.26-3.39,1.66-4.53Z" fill="#074a82"/><path d="M106.89,92.93c.31-3.78-.06-7.53.69-11.25A23,23,0,0,1,109,76.93c2-4.62,6.16-5.86,10.47-3.18,2.67,1.66,4,4.22,5,7.09,1.67,5,2.38,10.21,3.9,15.23a6.34,6.34,0,0,0,1.24,3,17.8,17.8,0,0,0,2-6.81c.54-3.57.8-6.94-.79-10.52a19.4,19.4,0,0,1-1.07-11.86c1-4.79,4.77-7.38,9.57-6.43,3.1.62,4.81,4.57,3.49,8.1a14.31,14.31,0,0,1-4.19,5.7,2.41,2.41,0,0,0-.74,3.17,22.55,22.55,0,0,0,4.48,7.81c1.69,1.76,2.81,1.63,4.16-.4a21.82,21.82,0,0,0,3.4-10.81,64.61,64.61,0,0,0-.23-13.83c-.2-1.42-.66-2-2.19-1.85a9.92,9.92,0,0,1-4.48-.48,4.68,4.68,0,0,1-3.22-4.61,4.93,4.93,0,0,1,4-4.54c3.21-.64,6.14.84,7.56,4.34.87,2.15,1.83,2.05,3.47,1.09a10.45,10.45,0,0,1,6-1.56c3.24.17,5.13,1.28,6.08,4.48,1.06,3.57,1.73,7.26,2.69,10.86a27.47,27.47,0,0,0,4.14,9.65c1.59-2.27,1.9-4.78,2.38-7.18a57.2,57.2,0,0,0,1-12.47c0-.64-.41-1.55.61-1.83s1.36.52,1.86,1.15c1.1,1.38.85,3,1,4.58.39,4.37.8,8.77-.19,13.13-.63,2.76-1.5,5.52-4.72,6-3.66.6-7.05-.11-9.33-3.51a34.05,34.05,0,0,1-4.09-9.23,69.47,69.47,0,0,1-2.45-10.92c-.23-1.64-.84-1.65-2.12-1-1.47.71-3.57.82-4.4,1.93s.15,3.17.23,4.82a96.07,96.07,0,0,1-1.1,18.33c-1.34,8.91-8,9.43-14.58,6.58a21,21,0,0,1-2-1.17c-.64,2.58-.38,5.11-.91,7.57-1.31,6-6,7.66-10.56,3.49-4.13-3.75-5.64-8.94-7.12-14.06-.91-3.17-1.47-6.44-2.26-9.64-.16-.65-.17-1.71-1-1.78s-1.14,1-1.45,1.64a23,23,0,0,0-1.73,10.58c.22,5,.56,10,.9,15.07,0,.77.42,1.52.5,2.3s.85,1.75-.41,2.23a2,2,0,0,1-2.74-1c-1.47-2.81-2.9-5.64-4.35-8.45-.16-.32-.33-.62-.5-1-.84.36-.5,1-.49,1.5a75.44,75.44,0,0,1-.49,8.64c-.24,2.44-1.6,3.48-4,3-3.12-.63-5.44-2.55-7.5-4.83-.71-.78-1.38-1.6-2.37-2.77-.18,2.29-.23,4.14-.48,6-.31,2.32-.74,4.84-3.38,5.55a7.29,7.29,0,0,1-7.41-1.76c-2-2-3.15-4.43-4.79-6.86-.24,2.58-.48,5.15-.74,7.72a14.12,14.12,0,0,1-.35,2.13c-1.18,4.69-4,6.1-8.54,4.26a9.6,9.6,0,0,1-5.22-4.66c-3.12-6.42-3.91-13.06-1.12-19.82,1.94-4.7,6-6.71,11-5.56,1.07.24,2,.52,2.84-.65.58-.84,1.39-.53,2,.24a13.53,13.53,0,0,1,2,3.57C77,97.74,78.7,103.1,81.53,108c.62,1.08,1.22,2.85,2.49,2.6.93-.19,1-2.09,1.1-3.31.26-2.94.45-5.89.65-8.84a4.47,4.47,0,0,0-.69-2.67,60.09,60.09,0,0,1-5.56-12.61c-.38-1.19-.71-1.59-2.23-1.34-4.28.69-8,2.74-11.88,4.39-.86.36-1.94,1.24-2.62,0-.59-1.11.12-2.09,1.06-2.78A22.2,22.2,0,0,1,71.71,80c2-.53,4.78-.41,5.81-1.7s-.63-3.87-.83-5.92a23.32,23.32,0,0,1,.14-7.73c.4-1.71,1.25-2.87,3.13-3.07a3.94,3.94,0,0,1,4.28,2.2,24.94,24.94,0,0,1,2.6,9.08c.4,3.28.54,3.34,3.34,1.43.24-.16.47-.33.72-.48,2.18-1.35,3-2.93,2.24-5.72a22,22,0,0,1-.7-9.86c.24-1.4.62-2.75,2.14-3.24a3.87,3.87,0,0,1,4.31,1.21c2.94,3.28,3.77,7.38,4.38,11.54A84.59,84.59,0,0,1,103.7,83C103.56,86.81,105.32,89.78,106.89,92.93Zm-7.8,12.15a95.29,95.29,0,0,0,1-16.83,9.79,9.79,0,0,0-.92-3.3c-1.11-2.57-2.24-5.14-3.29-7.73-.4-1-.74-1.43-1.8-.63a13.61,13.61,0,0,1-4.82,2.31c-1.35.35-1.58,1.11-1.48,2.37C88.51,90.62,94.21,97.61,99.09,105.08ZM67.3,115.68c2.26-3.23,4.08-17.51,2.69-20.92a3.78,3.78,0,0,0-3-2.23c-1.16-.15-1.27,1.34-1.72,2.19a4.61,4.61,0,0,0-.22.83c-1.4,4.94-.57,9.84.32,14.73C65.73,112.15,66,114.07,67.3,115.68Zm29-57.53c-.79,3.18-.14,6.25.48,9.32a.93.93,0,0,0,.92.76c1.81.16,1.93,1,1.11,2.46a5.13,5.13,0,0,0,1.44,6.14C99.92,70.27,100,63.82,96.34,58.15Zm40.25,17.2a5.6,5.6,0,0,0,2.09-2.16c1.1-1.68,1.81-3.46.82-5.46-.32-.64-.64-1.49-1.42-1.47s-1,.88-1.22,1.58C136.24,70.23,136.56,72.63,136.59,75.35ZM147.1,59c.53-.08,1.31.18,1.3-.88,0-1.34-2.31-4.46-3.24-4.23-1.13.28-1.2,1.32-1.19,2.27C144,58,145.17,59.05,147.1,59Z" fill="#074a82"/><path d="M180.63,163.48c-7.23-3.76-10.09-11-8-19.91a30,30,0,0,1,4.53-10c1.92-2.81,1.84-4.27-.24-7.25-1.9,8.53-6,10-13.58,4.46-.18,1.21-.33,2.3-.49,3.4-.52,3.67-2.53,5-6.22,4.33a11.59,11.59,0,0,1-7.53-5c-.56-.81-1.08-1.64-1.89-2.87-.61,3.77-1.14,7.08-1.68,10.39-.38,2.36-1.36,3.11-3.71,3.35a8.5,8.5,0,0,1-9-4.72c-3.29-6.14-4.33-12.61-2-19.37,1.62-4.76,4.35-6.74,9.34-6.69a3.09,3.09,0,0,0,2.11-.73c2.72-2.06,5.77-.93,6.79,2.33,1.34,4.25,2.71,8.49,4.21,12.68a15.76,15.76,0,0,0,4.83,7.16,24.78,24.78,0,0,0,1.57-11.88,32.29,32.29,0,0,0-2.35-8.93c-1-2.14-.56-3.3,1.13-3.85a3.64,3.64,0,0,1,4.81,2.34,119,119,0,0,0,4.34,13.53c.65,1.57,1.22,3.25,2.88,4.21,1.2-1.52,1.39-3.34,1.7-5.09,1-5.47,1.84-10.93.05-16.43-.44-1.37.84-2.94,2.55-3.39a3.55,3.55,0,0,1,4.13,2.11q1.89,6.06,3.79,12.12c.17.54.37,1.07.65,1.84a16.18,16.18,0,0,0,2-5.46c.93-3.48,1.73-7,2.55-10.49.26-1.1.68-1.94,2-1.84,1.59.12,1.18,1.35,1.19,2.29.08,7.08-2.37,13.57-4.74,20.06a5.35,5.35,0,0,0,.07,4.33,68.5,68.5,0,0,1,5.24,16.83,27.69,27.69,0,0,1,.1,8.62c-.68,4-3.52,6.23-7.21,7.49Zm.28-27.1c-3.67,7-5,13.65-1.46,20.65.66,1.29,1.44,3.2,3.08,2.87s2.2-2.36,2.43-4a22.93,22.93,0,0,0-.37-6.86A53.6,53.6,0,0,0,180.91,136.38Zm-39.74,3.13a52.62,52.62,0,0,0,2.33-20,3.06,3.06,0,0,0-2.86-3c-1.59-.24-2,1.27-2.53,2.43-1.14,2.67-1,5.52-.8,8.3A24.45,24.45,0,0,0,141.17,139.51Z" fill="#074a82"/><path d="M116.55,156.07c.31,1.38,1.69,2.63.32,3.71s-3,.76-4.52.1a6.14,6.14,0,0,1-2.64-2.48c-5.61-8.58-9.08-18.09-12.11-27.79A74.81,74.81,0,0,1,94.75,119c-.56-3.57.46-4.68,4-4.39,1.44.12,2.45.66,2.67,2.27.2,1.42.47,2.83.8,4.22a11.59,11.59,0,0,0,1.5,3.8c.25-1.8.42-3.62.77-5.41.64-3.23,2.17-5.79,5.62-6.7a8.35,8.35,0,0,1,8.8,2.65,29.05,29.05,0,0,1,5.37,9.3,63.24,63.24,0,0,1,4.63,18.55,18.39,18.39,0,0,1-.64,6.85,7.75,7.75,0,0,1-8,5.93C119.08,156.08,117.88,156.07,116.55,156.07Zm-7.38-26.32c0,2,0,4,0,6.06-.1,6.73,2.57,12,8.23,15.7,1.86,1.22,2.32,1.08,3.13-1a11.88,11.88,0,0,0,.46-1.65c1-4.43.08-8.74-.89-13-1.47-6.46-3.28-12.81-6.79-18.53-.36-.6-.69-1.46-1.48-1.41s-1.2,1-1.47,1.69a21,21,0,0,0-.76,2.68C108.9,123.39,109.18,126.58,109.17,129.75Z" fill="#074a82"/><path d="M50.71,88.11C47,87.09,43,88,39.16,90.18c-1.48.83-2.1,1.61-1.4,3.39a57.28,57.28,0,0,1,1.9,6.6c.36,1.42.82,2.23,2.41,1.11a13.34,13.34,0,0,1,2.75-1.21,5.66,5.66,0,0,1,3.4-.23,3.33,3.33,0,0,1,2.56,2.66c.25,1.26-1.15,1.52-2,1.89a38.44,38.44,0,0,1-5.84,2.2c-1.3.33-1.21.77-.86,1.77a163.94,163.94,0,0,0,9.19,21.37c.72,1.4.78,2-.85,2.54-3.14,1.11-3.2,1.17-5.12-1.53a79.77,79.77,0,0,1-7.77-14.41c-2.92-6.65-5.86-13.29-8.74-20-.41-1-1.06-1-1.89-1a9.41,9.41,0,0,1-5-.94,2,2,0,0,1-1.06-2.86,1.66,1.66,0,0,1,2.57-.65,4.61,4.61,0,0,0,5.24-.46q4.08-2.81,8.28-5.39a20.73,20.73,0,0,1,18.39-2.18c1.06.37,2.35.64,2.5,2s-1.2,1.67-2,2.27C54.63,88.05,53.74,88.15,50.71,88.11Z" fill="#074a82"/><path d="M241.14,87.77c1.79-.84,2.75-2.64,3.87-4.19a14.07,14.07,0,0,0,1.51-2.38,9.15,9.15,0,0,0,.59-2.79,1.61,1.61,0,0,0-2.31-1.54,9.74,9.74,0,0,0-2.17,1.41,14.24,14.24,0,0,0-1.83,2.54c-1,1.62-2.28,3.19-2.37,5.15a1.9,1.9,0,0,0,2.71,1.8Z" fill="#fcbf1e"/><path d="M242.37,94.68c3.71-.21,8.58-.37,11.57-2.77,1.2-1,.27-2.56-1-2.79-2-.39-3.81.29-5.71.84A40.36,40.36,0,0,0,241.84,92c-1.2.55-.89,2.75.53,2.67Z" fill="#fcbf1e"/><path d="M235.65,83.48a41.21,41.21,0,0,0,1.37-6c.29-2,.66-3.88-.1-5.83a1.61,1.61,0,0,0-2.77-.16c-1.15,1.7-1.14,3.73-1.29,5.71a41.26,41.26,0,0,0,.07,6.09c.11,1.44,2.33,1.45,2.72.18Z" fill="#fcbf1e"/><path d="M10.92,55.25c-2,0-3.71,1.15-5.44,2A14.46,14.46,0,0,0,3,58.77,9.88,9.88,0,0,0,1.22,61a1.64,1.64,0,0,0,1.4,2.46,9.62,9.62,0,0,0,2.62-.29,14,14,0,0,0,2.82-1.48c1.65-1,3.53-1.86,4.5-3.61a1.92,1.92,0,0,0-1.64-2.87Z" fill="#fcbf1e"/><path d="M13,48.4c-3.47-1.5-8-3.58-11.8-2.76-1.53.33-1.4,2.21-.39,3,1.63,1.26,3.6,1.48,5.58,1.84a41.42,41.42,0,0,0,5.88.61c1.34,0,2.06-2.09.73-2.67Z" fill="#fcbf1e"/><path d="M14,61.66a40,40,0,0,0-4,4.83c-1.19,1.7-2.38,3.23-2.57,5.35a1.64,1.64,0,0,0,2.45,1.41c1.81-1,2.73-2.88,3.77-4.61a40.5,40.5,0,0,0,2.72-5.58c.56-1.36-1.47-2.38-2.4-1.4Z" fill="#fcbf1e"/><path d="M189.44,21.05a1.83,1.83,0,0,0,.43-.87,1.84,1.84,0,0,0,.09-.93,1.72,1.72,0,0,0-.3-.88,1.79,1.79,0,0,0-.6-.76l-.56-.33a2.4,2.4,0,0,0-1.24-.18l-.61.14a2.5,2.5,0,0,0-1,.76,1.86,1.86,0,0,0-.42.87,2,2,0,0,0-.1.93,1.93,1.93,0,0,0,.3.88,1.89,1.89,0,0,0,.61.76l.56.33a2.4,2.4,0,0,0,1.24.18l.6-.14a2.44,2.44,0,0,0,1-.76Z" fill="#fcbf1e"/><path d="M183.46,10.71l.13-.07A2.85,2.85,0,0,0,184.75,8V7.9l-.17-.7a2,2,0,0,0-.62-.92,2.65,2.65,0,0,0-1.62-.87,3.36,3.36,0,0,0-1.44.16,2.15,2.15,0,0,0-.92.62,2.19,2.19,0,0,0-.67.91l0,.09A2.88,2.88,0,0,0,179,8.64a2.92,2.92,0,0,0,.53,1.36l.08.11a2.82,2.82,0,0,0,1.81,1.09h.7a2.66,2.66,0,0,0,1.3-.5Z" fill="#fcbf1e"/><path d="M171.13,7.53l-.19-.22a2.76,2.76,0,0,0-1.13-.9,2.61,2.61,0,0,0-1.38-.2,2.71,2.71,0,0,0-1.89,4.3,2.71,2.71,0,0,0,2.5,1.1l.3,0a2.57,2.57,0,0,0,2.07-1.54,2.52,2.52,0,0,0,.19-1.3,2.48,2.48,0,0,0-.47-1.22Z" fill="#fcbf1e"/><path d="M177.52,17.12l-.19-.22a2.76,2.76,0,0,0-1.13-.9,2.71,2.71,0,0,0-1.38-.2,2.72,2.72,0,0,0,.61,5.41l.3,0A2.56,2.56,0,0,0,178,18.34a2.62,2.62,0,0,0-.47-1.22Z" fill="#fcbf1e"/><path d="M67.09,132a1.79,1.79,0,0,0-.82.5,1.85,1.85,0,0,0-.58.74,1.79,1.79,0,0,0-.22.9,1.75,1.75,0,0,0,.11,1l.29.59a2.48,2.48,0,0,0,.94.82l.6.2a2.5,2.5,0,0,0,1.27-.09,1.92,1.92,0,0,0,.82-.5,2.27,2.27,0,0,0,.81-1.65,1.87,1.87,0,0,0-.11-1l-.29-.58a2.43,2.43,0,0,0-1-.82l-.59-.2a2.43,2.43,0,0,0-1.28.09Z" fill="#fcbf1e"/><path d="M66.6,144h-.15a3,3,0,0,0-1.44.5,2.85,2.85,0,0,0-1,1.11l0,.08-.23.69a2.09,2.09,0,0,0,0,1.11,2.65,2.65,0,0,0,.91,1.6,3.33,3.33,0,0,0,1.29.64,2.09,2.09,0,0,0,1.11,0,2.16,2.16,0,0,0,1.06-.41l.08-.05a2.72,2.72,0,0,0,1-1.11,2.85,2.85,0,0,0,.29-1.44v-.13a2.81,2.81,0,0,0-.95-1.89l-.58-.39A2.77,2.77,0,0,0,66.6,144Z" fill="#fcbf1e"/><path d="M75.29,153.27l0,.29a2.73,2.73,0,0,0,1.52,2.28A2.72,2.72,0,0,0,79.25,151l-.27-.14a2.57,2.57,0,0,0-2.58.19,2.48,2.48,0,0,0-.85,1,2.56,2.56,0,0,0-.26,1.28Z" fill="#fcbf1e"/><path d="M75.05,141.75l0,.29a2.81,2.81,0,0,0,.47,1.37,2.74,2.74,0,0,0,3.79.7,2.73,2.73,0,0,0,1.18-2.41A2.78,2.78,0,0,0,79,139.42l-.27-.14a2.57,2.57,0,0,0-2.57.19,2.65,2.65,0,0,0-.86,1,2.62,2.62,0,0,0-.25,1.29Z" fill="#fcbf1e"/><path d="M60.21,52.43l-.09-.07-.67-.54-1.4-1.13a12,12,0,0,0-1.55-1.21c-.13-.08-.27-.15-.41-.22a4.79,4.79,0,0,0-.58-1.59,61.78,61.78,0,0,0-4.13-6.07,116.63,116.63,0,0,0-9.75-11.54c-.91-.95-2.16.16-2.19,1.16Q39.2,37.94,39,44.67l-7.65-6.44a1.36,1.36,0,0,0-2.2,1.16l2.19,13-10-5.12c-1-.5-2.36.63-1.83,1.7l9.28,18.5a1.31,1.31,0,0,0,.27.37,5.73,5.73,0,0,0,.64.83c.28.33.56.66.85,1s.68.8,1.05,1.18.63.61.94.91a5.47,5.47,0,0,0,.46.4.56.56,0,0,0,.72.69,14.75,14.75,0,0,0,2-.6c.56-.26,1.1-.53,1.63-.83,1.18-.64,2.28-1.44,3.39-2.18,2.33-1.55,4.6-3.19,6.88-4.81s4.45-3.11,6.62-4.74l3.27-2.44a18.49,18.49,0,0,0,3.24-2.67A1.41,1.41,0,0,0,60.21,52.43Zm-36.46-.87L32.52,56a1.35,1.35,0,0,0,1.9-1.34q-1-6-2-12l7,5.85a1.37,1.37,0,0,0,2.2-1.16q.21-6.48.44-13,3.54,3.9,6.71,8.14c1.36,1.83,2.68,3.69,3.92,5.6.6.92,1.33,1.84.28,2.67a10.79,10.79,0,0,1-2.31,1.14A64.75,64.75,0,0,0,30.92,65.85Zm32,2.87-3.38,2.29c-2.31,1.57-4.56,3.23-6.83,4.85s-4.44,3.14-6.59,4.79c-1.08.82-2.21,1.61-3.22,2.5-.36.32-.7.66-1,1l-.06-.08-.95-.91c-.31-.31-.65-.58-1-.86L32.6,68a.27.27,0,0,0,.08-.07,62,62,0,0,1,11.12-9.2,60.43,60.43,0,0,1,5.91-3.37c1.73-.85,3.89-1.45,5.31-2.81a3.88,3.88,0,0,0,.59-.72l1,.92.7.63C56.79,53.69,56.26,54.07,55.74,54.43Z" fill="#fcbf1e"/><path d="M196.55,114.68a18.61,18.61,0,0,0,4,1.12l4,.91c2.64.61,5.31,1.1,8,1.64s5.47,1.13,8.23,1.6c1.32.22,2.65.51,4,.62.61.05,1.22.09,1.83.09a14.11,14.11,0,0,0,2.07-.26.56.56,0,0,0,.38-.92,4.64,4.64,0,0,0,.26-.55c.16-.41.34-.81.49-1.22s.32-1,.48-1.5.26-.83.38-1.24a5.21,5.21,0,0,0,.24-1,1.29,1.29,0,0,0,.1-.45q.49-10.34,1-20.67A1.36,1.36,0,0,0,229.6,92l-7.09,8.75q-1.63-6.39-3.28-12.78a1.35,1.35,0,0,0-2.47-.17q-2.2,4.5-4.39,9-2.93-6.06-5.87-12.1c-.44-.91-2-1.41-2.48-.17A116.15,116.15,0,0,0,199.8,99a63.76,63.76,0,0,0-1.32,7.23,5.16,5.16,0,0,0,.12,1.68c-.09.13-.2.25-.28.37a12.51,12.51,0,0,0-.93,1.73l-.82,1.61-.39.76s0,.07-.05.1A1.4,1.4,0,0,0,196.55,114.68Zm31.79-1.78a64.52,64.52,0,0,0-23.64-4.74,11.14,11.14,0,0,1-2.58-.11c-1.3-.33-1-1.47-.82-2.55q.54-3.37,1.31-6.71c.78-3.43,1.72-6.83,2.83-10.17q2.82,5.84,5.66,11.68a1.36,1.36,0,0,0,2.48.16l4-8.17q1.52,5.91,3,11.83a1.35,1.35,0,0,0,2.28.45l6.2-7.65Zm-29.22-.72.39-.87.55-1.25a4,4,0,0,0,.83.42c1.86.67,4.07.33,6,.41a61.37,61.37,0,0,1,20.66,4.58l.1,0,0,.09a12.73,12.73,0,0,0-.56,1.18l-.49,1.22a.32.32,0,0,0,0,.09c-.45-.17-.9-.34-1.35-.48-1.29-.41-2.64-.67-4-1-2.64-.63-5.31-1.15-8-1.7s-5.47-1.17-8.22-1.67l-4-.72C200.39,112.42,199.76,112.28,199.12,112.18Z" fill="#fcbf1e"/></g></g></svg>