<svg xmlns="http://www.w3.org/2000/svg" viewBox="0 0 135.95 150.32"><g id="Layer_2" data-name="Layer 2"><g id="Lettering"><path d="M99.22,55.08c3.28-1.21,6.58-2.33,9.85-3.58,2.78-1.06,6-2,8.07-4.11,1.22-1.25.39-3.7-1.49-3.6-3.06.16-5.77,1.89-8.44,3.31-3.1,1.64-6.13,3.4-9.21,5.09-1.54.84-.49,3.52,1.22,2.89Z" fill="#d9455f"/><path d="M19.91,52.26c-5.54-2-12-5.54-18-4.69-1.64.23-2.13,2.68-1,3.7,4.48,3.95,12,4.52,17.66,5.87,3.21.77,4.39-3.79,1.35-4.88Z" fill="#d9455f"/><path d="M35.51,41.3c1.24-2.07,3.4-2.5,5.48-3,1-.23,1.51-.48,1.4-1.69-.93-9.7.1-19.38.52-29.13-1.88,0-3.75.67-5.65.27-.6-.12-1.37,0-1.61-.8s.38-1.32.89-1.8a6,6,0,0,1,2.93-1.55A62.31,62.31,0,0,1,52.94,2.08c.66,0,1.64-.22,1.81.69s-.61,1.47-1.38,1.72c-1.74.56-3.51,1-5.27,1.5-.86.24-1.51.31-1.49,1.62.13,7.64.07,15.28.14,22.91,0,2.06-.46,4.67.59,6s3.66-.19,5.6,0c1.28.1,3.12-.55,3.63.91.56,1.62-1.47,2-2.43,2.79a3.16,3.16,0,0,1-1.72.76c-5.47.29-10.76,2-16.24,2.11Z" fill="#074a82"/><path d="M91.76,81.17c0-6.22-1.65-11.66-3.85-17A94.45,94.45,0,0,0,82.3,52a5.6,5.6,0,0,1-.33-.8c-.3-.87-.47-1.82.41-2.36s1.69-.21,2.52.52a15,15,0,0,1,3.69,5.57c3,7,6,14,7.1,21.6a25.54,25.54,0,0,1-.24,10.34c-1.39,5.07-6.08,6.84-10.56,4.06a14.24,14.24,0,0,1-5.15-6.33A112.28,112.28,0,0,1,71,58.27c-.37-1.81-.11-4.07,1.47-4.57,1.36-.44,2.17,1.84,2.63,3.16,2.27,6.49,4.33,13,6.53,19.56a40.43,40.43,0,0,0,5.27,11.15c.62.85,1.25,2.06,2.47,1.82s1.45-1.56,1.73-2.58A17.34,17.34,0,0,0,91.76,81.17Z" fill="#074a82"/><path d="M38.36,66.18c1.41-3.76,3.82-7.06,4.74-11.07.36-1.54,1-3.11,3-3.21,1.05,0,2.12.11,2.54,1.23s.91,2.23-.4,3.11c-.06,0-.14.08-.16.14-2.35,5.42-5.56,10.5-7.16,16.2a69.34,69.34,0,0,0-2.39,18,10.73,10.73,0,0,1-.86,3.1,1.59,1.59,0,0,1-1.89,1.1c-1.69-.26-3.56-.29-4.2-2.42a10.79,10.79,0,0,1-.15-5.58c.92-4.16,2-8.3,3-12.43a1.8,1.8,0,0,0,.06-1.23C32.23,68,32.35,62.37,31.22,57c-.15-.71-.24-1.42-.39-2.13-.28-1.38-.57-2.71,1.41-3.11a3.68,3.68,0,0,1,4.07,2.07c1,3,1,6.12,1.34,9.2.11,1,.13,2,.19,3Z" fill="#074a82"/><path d="M68.79,70c-.41-1.9-.07-3.88-.34-5.82a17.65,17.65,0,0,0-2.22-7c-2.73-4.5-6.77-2.77-10.57-2.42a1.94,1.94,0,0,0-1.31.58,12.41,12.41,0,0,0-2.91,3.74,33.91,33.91,0,0,0-3.07,11.68c-.58,8.45-.62,16.81,5.6,23.7a5.78,5.78,0,0,0,7.74,1.24,12.18,12.18,0,0,0,6-8.1A62.19,62.19,0,0,0,68.79,70ZM61.14,88.68C60.63,90.14,59.71,92,58.08,92s-1.84-2-2.2-3.37A41.58,41.58,0,0,1,55.26,68c.64-2.73.89-5.58,2.5-8,.52-.77.93-1.84,2-1.74s1.17,1.19,1.44,2a64,64,0,0,1,2.73,14.28A45.4,45.4,0,0,1,61.14,88.68Z" fill="#074a82"/><path d="M105.14,136.82a23.24,23.24,0,0,1-7,7.75,7,7,0,0,1-6.34.79c-1.52-.47-2-1.54-.62-2.69a1.52,1.52,0,0,0,.56-1.9c-3.21-11.59-7.43-22.89-10-34.65-.14-.66-.49-.84-1-1.05-.83-.32-1.48-.82-1.34-1.87s1-1.34,1.81-1.5c4.33-.86,8.7-1,12.86.58,8.25,3.24,14.56,8.67,14.74,18.08C108.9,127.86,107.13,133.41,105.14,136.82Zm-7.32,2.08c5.21-6.53,5.71-17.5,1.34-25.34-2.57-4.63-8.47-8.85-11.72-8.45C91.86,116,94,127.57,97.82,138.9Z" fill="#074a82"/><path d="M29.33,148.74c-1.68-.07-3.6.32-5-.38-1.8-.86-1.9-1.7-.44-3a8.38,8.38,0,0,1,3.94-1.73,2.82,2.82,0,0,0,2.32-2.74c1.12-10.63,2.55-21.22,4.19-31.78.15-1,.39-1.95.6-2.91.35-1.61.48-2.71-1.92-3.25a10.42,10.42,0,0,1-1.1-.28,1.63,1.63,0,0,1-1.27-1.89c.08-1,.74-1.31,1.53-1.41a12.69,12.69,0,0,1,7,.75c9.3,4.21,15.05,11.23,16.61,21.46a12,12,0,0,1-.39,4.54C52,140.39,46.26,145,34.91,148.16A16.7,16.7,0,0,1,29.33,148.74ZM39.61,108c-.83,12-2.55,23.39-3.87,34.9C47.68,138.08,50.08,118.18,39.61,108Z" fill="#074a82"/><path d="M64,139a23.53,23.53,0,0,1-.3,8c-.6,2.45-2.21,3.67-4.21,3.31-1.7-.32-2.85-2.59-2.58-4.8C58,136.91,59,128.35,60.08,119.8c.53-4,1.26-8,1.94-12a4.36,4.36,0,0,1,1.29-2.66c1.38-1.16,2.18-1.09,3.3-.22,6.38,4.95,7.68,12.42,9.83,19.46,1,3.45.93,3.46,4.55,3.49,1.48,0,3.73-.49,4,1.21.31,2-2.09,2-3.53,2.44-3.3,1.07-3.28,1-2.76,4.49s1,7.11,1.44,10.67c.2,1.62,0,3.12-2.19,3.26s-3.26-.7-3.62-2.88c-.61-3.69-1.3-7.37-1.83-11.07-.2-1.42-.9-1.59-2-1.27a32.31,32.31,0,0,1-3.31.88C64.78,136,63.52,137.12,64,139Zm2.65-24.14c-1,5.69-1.41,10.9-1.94,16.09-.1,1.05.32,1.17,1.2.88,6.45-2.17,5.87-.47,4.19-6.9A50.34,50.34,0,0,0,66.64,114.82Z" fill="#074a82"/><path d="M101.61,64.7a28.45,28.45,0,0,0,8.69,0c2.94-.38,5.62-.21,7.47-2.78.92-1.27.14-3-1-3.76-2.39-1.65-5.26-.37-7.87.2a27.59,27.59,0,0,0-7.78,2.77c-1.37.79-1.24,3.3.47,3.6Z" fill="#d9455f"/><path d="M102.59,75c6.57,2.86,13.23,6.28,20.09,8.4,4.06,1.25,5.53-4.76,1.72-6.24-6.49-2.51-13.59-3.92-20.32-5.7-2-.53-3.56,2.64-1.49,3.54Z" fill="#d9455f"/><path d="M21,64a27.25,27.25,0,0,0-8.29-1.06c-2.73,0-5.6-.63-7.63,1.54A2.76,2.76,0,0,0,5,68.3c2.26,2.07,4.79,1.34,7.63,1.1A27.84,27.84,0,0,0,21,67.74,2,2,0,0,0,21,64Z" fill="#d9455f"/><path d="M20.26,74.8c-6.22,3.14-12.94,6-18.75,9.85-3.45,2.29-.41,7.61,3.27,5.58,6.11-3.37,11.76-8,17.43-12.09a1.93,1.93,0,0,0-1.95-3.34Z" fill="#d9455f"/><path d="M135.93,119a4.58,4.58,0,0,0-4.53-4,7.81,7.81,0,0,0-5.56,2.48c-1-1.73-1.88-3.42-4.23-3.61-3.1-.25-5.1,2.54-5.66,5.28-1,4.8,1.44,10.61,6.1,12.43l-.44.55c-.74,1,.71,2.33,1.67,1.67,3-2,5.45-5,8-7.5C133.37,124.39,136.22,122.22,135.93,119Zm-2.75,1.35a7,7,0,0,1-2.05,2.57c-2.51,2.41-5.44,4.7-7.85,7.3a12.32,12.32,0,0,1-4.77-7.67c-.23-1.71-.07-3.9,1.14-5.25,1.91-2.14,4.4.17,4.59,2.43a1.36,1.36,0,0,0,2.29,1c1.35-1.19,2.87-3,4.87-2.86C132.81,117.93,133.71,118.84,133.18,120.37Z" fill="#d9455f"/><path d="M103.36,10.73c-.44-4.92-4.8-8.07-9.52-8.31-4.5-.23-8.46,2.19-11.69,5.21-2-3.65-4-7.2-8.89-7.6C66.74-.5,62.54,5.37,61.37,11.13c-2,10.09,3,22.3,12.82,26.13-.31.38-.62.76-.92,1.15-1.56,2.05,1.48,4.92,3.51,3.51C83,37.65,88.22,31.39,93.66,26.17,98,22,104,17.46,103.36,10.73Zm-5.78,2.85c-.76,2.2-2.67,3.84-4.31,5.41C88,24,81.84,28.86,76.76,34.31c-5-4.12-9.1-9.52-10-16.1-.5-3.62-.14-8.21,2.4-11,4-4.49,9.23.36,9.64,5.11a2.86,2.86,0,0,0,4.81,2c2.84-2.49,6.05-6.25,10.24-6C96.8,8.44,98.69,10.36,97.58,13.58Z" fill="#d9455f"/><path d="M4.71,124.51c2.19,2.85,4.2,6.17,6.81,8.62.86.81,2.49-.33,1.9-1.4l-.35-.61C18,130,21.22,124.65,21,119.75c-.14-2.79-1.7-5.85-4.8-6.07-2.35-.16-3.52,1.37-4.73,2.94a7.75,7.75,0,0,0-5.12-3.29,4.55,4.55,0,0,0-5.07,3.22C.49,119.68,3,122.25,4.71,124.51Zm1.2-8.43c2,.18,3.23,2.18,4.39,3.55a1.36,1.36,0,0,0,2.4-.59c.53-2.2,3.34-4.11,4.9-1.71,1,1.51.83,3.7.34,5.37a12.33,12.33,0,0,1-5.87,6.85c-2-2.92-4.54-5.63-6.66-8.39a7,7,0,0,1-1.64-2.85C3.48,116.72,4.51,116,5.91,116.08Z" fill="#d9455f"/></g></g></svg>