<svg xmlns="http://www.w3.org/2000/svg" viewBox="0 0 176.55 95.69"><g id="Layer_2" data-name="Layer 2"><g id="Ñëîé_2" data-name="Ñëîé 2"><path d="M101.1,51.78S99.59,22.32,127.38,6.89s49.17-.15,49.17-.15-30.67,10.53-19.69,37.6c-13.5.28-24.29,12.06-19.46,25.09-8.78-3.3-22,3-24.4,11.68C109.21,73,101.1,51.78,101.1,51.78Z" fill="#22262b"/><path d="M85.75,57.9s-19.19-22.42-50-14.48S0,77.14,0,77.14,29.5,63.68,40.16,90.87c10-9.08,25.92-8,31.39,4.82,4.09-8.43,18.1-13,25.78-8.33C94.47,78.82,85.75,57.9,85.75,57.9Z" fill="#22262b"/><path d="M127.76,9.26c23.68-13.14,41-4.6,46.12-1.6.86-.36,1.37-.54,1.37-.54s-19.69-14.68-47.49.74c-26.67,14.8-26.35,42.53-26.29,44.73C101.62,46.34,103.77,22.57,127.76,9.26Z" fill="#4f9199"/><path d="M86.13,58.87S67,36.45,36.17,44.38,1,76.66,1,76.66l.4-.18C3.07,70.79,10,52.54,36.17,45.78c30.78-7.93,50,14.49,50,14.49Z" fill="#4f9199"/><path d="M102.12,42.65a9.77,9.77,0,0,0-4.34-5.13,16.55,16.55,0,0,0-6.29-7.45c-.15-.09-.3.05-.24.23a22.14,22.14,0,0,1,.57,6,17.87,17.87,0,0,0-10,4,22,22,0,0,1-3.72-4.76c-.09-.17-.3-.17-.34,0a16.54,16.54,0,0,0,.57,9.74,9.79,9.79,0,0,0,.37,6.7,12.75,12.75,0,0,0,1.77,3.08,41.53,41.53,0,0,1,6.07,10.15c1.71,4.29,5.13,12.87,6.85,17.16a10.45,10.45,0,0,0,12.76,6.27,10.21,10.21,0,0,0,6.35-13.51c-1.74-4.38-5.23-13.12-7-17.49A41.81,41.81,0,0,1,103,46.1,12.17,12.17,0,0,0,102.12,42.65Zm-8.89,1.12A2.46,2.46,0,0,1,94.78,42l1.72-.68c.09,0,.19,0,.17.1l-.33,2a2.43,2.43,0,0,1-1.55,1.77l-1.72.69c-.1,0-.19,0-.17-.11ZM81.87,47.14l1.72-.69a2.45,2.45,0,0,1,2.35.22l1.58,1.19c.08.06,0,.16,0,.2l-1.71.69a2.47,2.47,0,0,1-2.35-.22l-1.59-1.19A.12.12,0,0,1,81.87,47.14Z" fill="#22262b"/><path d="M107.05,87.54a10.45,10.45,0,0,1-12.77-6.26C92.57,77,89.14,68.4,87.43,64.11A41.47,41.47,0,0,0,81.36,54a12.77,12.77,0,0,1-1.76-3.08,9.77,9.77,0,0,1-.38-6.71,16.73,16.73,0,0,1-.87-8.24c-.08-.13-.17-.27-.24-.4s-.3-.17-.34,0a16.54,16.54,0,0,0,.57,9.74,9.79,9.79,0,0,0,.37,6.7,12.75,12.75,0,0,0,1.77,3.08,41.53,41.53,0,0,1,6.07,10.15c1.71,4.29,5.13,12.87,6.85,17.16a10.45,10.45,0,0,0,12.76,6.27,10.19,10.19,0,0,0,5.22-3.86A10.28,10.28,0,0,1,107.05,87.54Z" fill="#181b1f"/><path d="M81.61,42.32a17.25,17.25,0,0,1,4.69-2.75,16.87,16.87,0,0,1,5.3-1.23c0-.07-.06-1.09-.06-1.09a17.87,17.87,0,0,0-10,4A21.49,21.49,0,0,1,78,36.41c-.09-.17-.22.75-.26.92C78,38.28,80.28,41,81.61,42.32Z" fill="#4f9199"/><path d="M97.49,38.45a14.56,14.56,0,0,0-5.81-8.08c-.15-.09.25,1.22.3,1.25a13.55,13.55,0,0,1,5.58,7.93,9.8,9.8,0,0,1,4.35,5.12,12.67,12.67,0,0,1,.83,3.45c.38,4,.31,2.86-.06-1.09a12.17,12.17,0,0,0-.84-3.45A9.74,9.74,0,0,0,97.49,38.45Z" fill="#4f9199"/></g></g></svg>