<svg xmlns="http://www.w3.org/2000/svg" viewBox="0 0 209.89 53.19"><g id="Layer_2" data-name="Layer 2"><g id="Ñëîé_2" data-name="Ñëîé 2"><path d="M135.8,34.11S153.45,50,200.94,43.77a7.77,7.77,0,0,0,3.75-1.51c1.56-1.28.93-2.6-.64-3.23.6-.26,1.29-.48,1.89-.81.25-.14.53-.33.57-.61s-.3-.64-.61-.82a11.21,11.21,0,0,0-2.23-1l2.59-1.47a3.14,3.14,0,0,0-2.13-1.77,2.36,2.36,0,0,0,2.44-1.75L203.16,29a5.64,5.64,0,0,0,2.06-1,1.24,1.24,0,0,0,.51-.6c.15-.53-.35-1-.87-1.22a6.28,6.28,0,0,1-1.54-.55c1.09.47,2-.9,2.43-2l-2.44-1.18c1.25.25,2.32-1.28,2-2.5a3.3,3.3,0,0,0-2.91-2.12c1.45-.16,3.27-.66,3.44-2.11L203.29,15a2.58,2.58,0,0,0,1.76-2.46,9,9,0,0,0-2.52-.51c1.49.1.77-1.44.15-1.88a8.66,8.66,0,0,0-3.8-1c-1.27,0-2.55.1-3.82.17q-4.8.25-9.58.69a181.86,181.86,0,0,0-23.21,3.52c-9.22,2.07-19.1,5-26.55,11Z" fill="#513214"/><path d="M127.27,34.08s-28.63-1.06-55.92,3c-24.7,3.71-56.18,8.25-69.15,8.74a2.12,2.12,0,0,1-2-3C2,39,3.73,35.31,7.75,34.29c5.1-1.29,23.33,2,33.42,1.57s25.24-4.18,39.16-4.74l46.46-1.86Z" fill="#b05f32"/><path d="M126.23,32.34c-5.37-.14-30.87-.55-55,3.07-25.42,3.81-56.24,8.24-69,8.72a1.26,1.26,0,0,1-1.22-.78,1.24,1.24,0,0,0-.06.43A1.26,1.26,0,0,0,2.17,45C15,44.51,45.8,40.08,71.22,36.27c24.24-3.64,49.83-3.21,55.1-3.08Z" fill="#d1865c"/><path d="M41.17,35.86c-10.09.4-28.32-2.86-33.42-1.57-4,1-5.8,4.73-7.55,8.55a2.1,2.1,0,0,0,.61,2.54A2.09,2.09,0,0,1,1,44.11c1.75-3.82,3.53-7.53,7.55-8.55,5.1-1.29,23.34,2,33.42,1.57S67.17,33,81.09,32.39l45.83-1.84-.13-1.29L80.33,31.12C66.41,31.68,51.26,35.46,41.17,35.86Z" fill="#874926"/><path d="M137.5,36l-1.62.23s-10.8,4.15-14.46,5.34c-2.59.85-4.3-1.63-1-3.07-1.68-.5-2.58-2.9-.08-3.48-2.22-.56-2.59-3.12,0-3.81-1.84-.36-3.06-2.7-.74-3.74-1.94-.28-3-2.76-.8-3.85-2-.63-2.79-4,2.91-2.33,4.95,1.43,16.2,5.65,16.2,5.65Z" fill="#7c5739"/><path d="M136.4,34.9s-10.8,4.15-14.46,5.35c-1.48.48-2.66-.12-2.81-1-1.39,1.39.14,3,2.29,2.26,3.66-1.19,14.46-5.34,14.46-5.34L137.5,36l.05-1.21Z" fill="#bd9b80"/><path d="M202.77,45.4a.86.86,0,0,1-.74.88C161.91,52,136.72,36.05,136.47,35.89a.86.86,0,1,1,.93-1.44c.24.16,24.94,15.78,64.39,10.13a.86.86,0,0,1,1,.73S202.77,45.37,202.77,45.4Z" fill="#7c5739"/><path d="M209.34,41.28a.86.86,0,0,1-.79.89c-37.43,3-70.89-8-71.23-8.15a.86.86,0,1,1,.55-1.63c.33.11,33.47,11,70.54,8.07a.86.86,0,0,1,.93.79Z" fill="#7c5739"/><path d="M207.67,32.56a.86.86,0,0,1-.72.88c-37,6.28-71.32-1.79-71.67-1.88a.85.85,0,1,1,.4-1.66c.34.08,34.32,8.07,71,1.85a.87.87,0,0,1,1,.7S207.67,32.53,207.67,32.56Z" fill="#7c5739"/><path d="M194.85,52.3v.05c0,.47-.6.85-1.07.84-40.67-.65-59.45-17.43-59.63-17.6a.86.86,0,0,1-.1-1.21.82.82,0,0,1,1.18-.05c.18.17,18.63,16.51,58.59,17.15C194.28,51.49,194.85,51.85,194.85,52.3Z" fill="#7c5739"/><path d="M200.55,7.46a.85.85,0,0,1-.8.89C160.86,11,137.3,26.93,137.07,27.09a.86.86,0,1,1-1-1.41c.23-.16,24.18-16.32,63.54-19a.86.86,0,0,1,.91.8Z" fill="#7c5739"/><path d="M208.85,18.85v0a.85.85,0,0,1-.85.86c-37.25,0-70,9.28-70.37,9.38a.86.86,0,1,1-.47-1.65C137.49,27.37,170.5,18,208,18A.84.84,0,0,1,208.85,18.85Z" fill="#7c5739"/><path d="M209.85,27.38v0a.79.79,0,0,1-.72.88c-36,.87-73.26,3.48-73.63,3.5a.83.83,0,0,1-.89-.79.89.89,0,0,1,.81-.92c.37,0,37.63-2.64,73.66-3.51A.76.76,0,0,1,209.85,27.38Z" fill="#7c5739"/><path d="M208.29,12.16a.86.86,0,0,1-.72.88c-34.22,5.37-69.47,12.63-69.83,12.7a.85.85,0,0,1-1-.66.84.84,0,0,1,.67-1c.35-.08,35.64-7.34,69.9-12.72a.85.85,0,0,1,1,.71A.34.34,0,0,1,208.29,12.16Z" fill="#7c5739"/><path d="M189.54,3.76a.87.87,0,0,1-.78.89C149.05,8.47,135.13,27.09,135,27.28a.86.86,0,0,1-1.2.19.85.85,0,0,1-.19-1.19c.57-.79,14.43-19.43,55-23.34a.85.85,0,0,1,.93.77A.09.09,0,0,0,189.54,3.76Z" fill="#7c5739"/><path d="M200.85,6.66v0c0,.47-.62.85-1.09.84C159.86,6.77,137.2,25.29,137,25.48a.93.93,0,0,1-1.27-.11.85.85,0,0,1,.08-1.2c.23-.19,23.49-19.12,64-18.33C200.26,5.84,200.85,6.21,200.85,6.66Z" fill="#7c5739"/><path d="M206.85,10c-1,.11-.06.85-.53.87-37.16,1.58-68.57,16.47-68.88,16.62a.78.78,0,0,1-1.08-.41.88.88,0,0,1,.44-1.14c.32-.15,31.91-15.19,69.43-16.78.47,0,2.62.38.62.83Z" fill="#7c5739"/><path d="M206.84,18.8v.07a.86.86,0,0,1-.9.82C168.77,18,136,30.08,135.72,30.21a.86.86,0,1,1-.6-1.61c.33-.12,33.38-12.33,70.9-10.62A.86.86,0,0,1,206.84,18.8Z" fill="#7c5739"/><path d="M191.31.82a.88.88,0,0,1-.74.89c-39.65,5.52-55.71,24-55.86,24.15a.86.86,0,0,1-1.31-1.1C133.56,24.57,150,5.63,190.33,0a.86.86,0,0,1,1,.73A.19.19,0,0,0,191.31.82Z" fill="#7c5739"/><path d="M202.85,44.58a.87.87,0,0,1-.81.89c-39.4,2.12-65.14-11-65.39-11.13a.85.85,0,0,1,.78-1.52c.26.13,25.62,13,64.52,10.94a.84.84,0,0,1,.9.81Z" fill="#7c5739"/><path d="M209.71,32.26a.86.86,0,0,1-.75.89c-37.22,4.59-71.14-.66-71.48-.71a.86.86,0,0,1,.27-1.69c.34.05,34,5.25,71,.7a.84.84,0,0,1,.95.74A.2.2,0,0,1,209.71,32.26Z" fill="#7c5739"/><path d="M209.86,23.64a.87.87,0,0,1-.78.89c-35.86,3.54-73.11,5.52-73.48,5.54a.73.73,0,0,1-.75-.82h0c0-.46.19-.86.66-.89s37.66-2,73.48-5.53a.83.83,0,0,1,.9.77S209.86,23.63,209.86,23.64Z" fill="#7c5739"/><path d="M209.85,39V39a.8.8,0,0,1-.83.83c-34.66-1.15-70.56-4-70.92-4.07a.86.86,0,0,1,.16-1.71c.36,0,36.19,2.92,70.81,4.07A.8.8,0,0,1,209.85,39Z" fill="#7c5739"/><path d="M192.85,49.6h0c0,.48-.6.87-1.08.88-40.72,1.08-56.89-15.72-57.55-16.44a.85.85,0,0,1,0-1.21.82.82,0,0,1,1.18,0c.15.17,16.48,17,56.36,15.89C192.21,48.77,191.85,49.14,192.85,49.6Z" fill="#7c5739"/><path d="M135.3,22.85c.15,3.85,1.55,11.1,1.7,14.94-2.21,1.38-4.38.48-4.41-.25-.15-3.84-.36-8.89-.51-12.74A2.66,2.66,0,0,1,135.3,22.85Z" fill="#4a2922"/></g></g></svg>