<svg xmlns="http://www.w3.org/2000/svg" viewBox="0 0 111.19 123.44"><g id="Layer_2" data-name="Layer 2"><g id="Ñëîé_2" data-name="Ñëîé 2"><path d="M23.17,113.15c6.72.2,11.46,4.29,14.66,7.37,3.24-2.08,7.69-5,13.64-4.85a22.4,22.4,0,0,1,14.89,5.54c4.74-4.8,12.94-10.11,25.83-9.8,9.3.23,14.35,5.69,18.78,9.45-3.07-5.44-9.16-12.85-21.29-13.15-11.87-.28-19.42,4.61-23.79,9a20.66,20.66,0,0,0-13.72-5.1,21.76,21.76,0,0,0-12.56,3.29,19.82,19.82,0,0,0-13.5-5.62c-8.82-.26-17.25,5.61-20.37,9.72C9.21,116.27,16.87,113,23.17,113.15Z" fill="#cfaf4f"/><path d="M21.89,115.38c6.72.2,11.46,4.29,14.66,7.37,3.25-2.08,7.7-5,13.64-4.85a22.35,22.35,0,0,1,14.89,5.54c4.75-4.8,12.94-10.11,25.84-9.8a31.67,31.67,0,0,1,20.27,7.41c-3.59-4.61-10.66-10.81-22.78-11.1-11.88-.29-19.43,4.6-23.8,9a20.61,20.61,0,0,0-13.71-5.1,21.72,21.72,0,0,0-12.56,3.29,19.79,19.79,0,0,0-13.51-5.61C16,111.28,8,116,4.83,120.1,8.3,117.33,15.6,115.19,21.89,115.38Z" fill="#593019"/><polygon points="77.18 10.61 84.21 24.14 81.66 29.88 85.17 35.29 83.89 28.92 87.71 23.18 84.85 15.22 88.49 11.75 77.18 10.61" fill="#7f8c99"/><path d="M5.82,51.86C4.31,16.23,23.64,1.12,48.46.06,21-1-1.54,13.52.08,51.86.64,65,5.33,94.21,11.35,110a26.28,26.28,0,0,1,5.17-2.16C10.76,91.9,6.36,64.66,5.82,51.86Z" fill="#7f8c99"/><path d="M24.75,106.38A19.84,19.84,0,0,1,38.26,112a21.74,21.74,0,0,1,12.56-3.29,20.61,20.61,0,0,1,13.71,5.1c4.37-4.42,11.92-9.31,23.8-9a31.36,31.36,0,0,1,10.45,2,280.06,280.06,0,0,0,3.51-59.34c-.78-16.76-6.17-28.57-13.86-35.69l-3.66,3.49,2.86,8-3.82,5.74,1.28,6.37-3.51-5.41,2.55-5.74L79,13.94l4.38-6c-6.7-4.21-15-6.44-24-7.43C29.6-2.83,4,11.07,5.74,51.86,6.3,65,10.42,92.05,16.44,107.79A20.7,20.7,0,0,1,24.75,106.38Z" fill="#adb8d1"/><path d="M57.09,2.38c9,1,17.26,3.21,24,7.43l2.44-1.92c-6.7-4.21-15-6.44-24-7.43C44.39-1.2,30.36,1.56,20.42,10,30.15,3.05,43.16.84,57.09,2.38Z" fill="#c4d1ed"/><path d="M102.37,47.42c-.78-16.76-6.18-28.57-13.86-35.69l-2.23,2.12C93.85,21,99.16,32.73,99.93,49.33a280.76,280.76,0,0,1-3.1,56.76c.69.21,1.38.43,2,.67A280.16,280.16,0,0,0,102.37,47.42Z" fill="#c4d1ed"/><path d="M49,67.68,40.44,57.52s8-3.4,4.89-10.2c-4-8.82-19.28.21-19.28.21l7.28,25,5-.47-4-9.42,8.18,8.78Zm-14.87-12-1.49-6.8s5.84-1.8,6.69,2.23S34.12,55.67,34.12,55.67Z" fill="#5c6878"/><path d="M55.67,67.18A2.19,2.19,0,1,1,53.48,65,2.19,2.19,0,0,1,55.67,67.18Z" fill="#5c6878"/><circle cx="67.21" cy="65.48" r="2.02" fill="#5c6878"/><polygon points="59.24 68.47 53.48 41.27 61.69 42.75 62.96 67.94 59.24 68.47" fill="#5c6878"/><path d="M84.3,46.47C80.57,37.45,66.36,44,66.36,44l6,24.44,3.15-1.07L74.32,58S88,55.5,84.3,46.47Zm-9.13,5L74,47.64s3.71-1,4.67.74S75.17,51.46,75.17,51.46Z" fill="#5c6878"/><polygon points="33.42 63.17 37.25 72.17 38.32 72.07 34.28 62.65 33.42 63.17" fill="#48525e"/><path d="M38.62,53.8c-1.46,1.6-4.5,1.87-4.5,1.87l-1.49-6.8-.78.42,1.63,7.48S37.11,56,38.62,53.8Z" fill="#48525e"/><polygon points="40.44 57.52 39.34 58.06 47.94 68.28 48.99 67.68 40.44 57.52" fill="#48525e"/><path d="M44.69,48.41a6.43,6.43,0,0,1,.12,5.6,6.38,6.38,0,0,0,.52-6.69c-4-8.82-19.28.21-19.28.21l.18.64C29.45,46.45,41.25,40.82,44.69,48.41Z" fill="#48525e"/><path d="M53.09,65.77A2.18,2.18,0,0,1,55.27,68a2.35,2.35,0,0,1-.09.6A2.17,2.17,0,0,0,53.48,65a2.18,2.18,0,0,0-2.09,1.59A2.17,2.17,0,0,1,53.09,65.77Z" fill="#48525e"/><path d="M66.81,64.23a2,2,0,0,1,2,2,1.82,1.82,0,0,1-.08.52,2,2,0,0,0,.48-1.29,2,2,0,0,0-4-.51A2,2,0,0,1,66.81,64.23Z" fill="#48525e"/><polygon points="61.05 43.85 62.27 68.04 62.96 67.94 61.69 42.75 53.48 41.27 53.75 42.52 61.05 43.85" fill="#48525e"/><path d="M83.66,47.57A6.52,6.52,0,0,1,83.78,53a6.31,6.31,0,0,0,.52-6.48C80.57,37.45,66.36,44,66.36,44l.18.74C69.61,43.55,80.47,39.84,83.66,47.57Z" fill="#48525e"/><polygon points="73.58 58.16 74.72 67.65 75.45 67.39 74.33 58 73.58 58.16" fill="#48525e"/><path d="M74.54,52.56s2.67-1,3.62-2.6a10.12,10.12,0,0,1-3,1.5L74,47.64,73.2,48Z" fill="#48525e"/></g></g></svg>