<svg xmlns="http://www.w3.org/2000/svg" viewBox="0 0 40.88 35.66"><g id="Layer_2" data-name="Layer 2"><g id="Ñëîé_2" data-name="Ñëîé 2"><path d="M2.08,6.57a.2.2,0,0,1,.24-.31c1.92.89,6.92,2.49,16.61,1.41A45.65,45.65,0,0,0,39.37.58a.68.68,0,0,1,1,.78c-.91,3-2,7.64-2,26.34,0,0,.27,7.34-16.12,7.48-8.25.07-11.88-1.31-13.29-2.12a.47.47,0,0,1,.05-.83c1.58-.7,4.65-3,2.34-9.81C9,15.25,4,8.81,2.08,6.57Z" fill="#2e0104"/><path d="M38.42,27.7c0-1.88,0-3.6,0-5.21-5.16-5.65-10.67-3.4-15.93-.72-9.82-2.88-12.78,6.88-13.65,7.8-.21.95,1.52,3.33,1.42,4.08,1.94.75,5.56,1.59,12,1.53C38.69,35,38.42,27.7,38.42,27.7Z" fill="#d40606"/><path d="M9.5,30.29c.71-.75,1.91-6.79,7.65-7.86,7-1.31,3.62.75,3.62,1.21,5-2.56,13.09-5.87,18.09-1.08v-.07c-5-5.65-10.89-3.4-16.15-.72C12.89,18.89,9.83,28.65,9,29.57c-.2.95,1.47,3.33,1.37,4.08l.52.19C10.5,32.83,9.33,31.08,9.5,30.29Z" fill="#ff3030"/><path d="M1.64,5.73s-.14.13-.14.2c0,1.88.11,8.16,3.74,13.29.06-2.22.38-5.23.65-7.85.16-1.54,1-2.94,1-3.95v0A16.46,16.46,0,0,1,1.64,5.73Z" fill="#f2e2af"/><path d="M36.22,2.42A44.27,44.27,0,0,1,30.53,5c1.31,3,2.12,9.14,2.66,13.05C36.3,12.47,36.37,5.5,36.22,2.42Z" fill="#f2e2af"/><path d="M8.33,13.92H9.45A2.08,2.08,0,0,0,11.51,12l0-.15L11.2,8A31.25,31.25,0,0,1,6.31,7.4v0l0,4.36a2.18,2.18,0,0,0,.26,1l.18.27A2,2,0,0,0,8.33,13.92Z" fill="#f2e2af"/><path d="M11.75,8l0,3.83a.77.77,0,0,1,0,.15A2.09,2.09,0,0,0,13.9,13.8l1.93-.15a2.12,2.12,0,0,0,1.91-2.3L17.64,10l-.21-2.18A47.7,47.7,0,0,1,11.75,8Z" fill="#f2e2af"/><path d="M17.85,7.77,18,10l.14,1.39a2.11,2.11,0,0,0,2.29,1.91l2-.19a2.12,2.12,0,0,0,1.88-2.34L23.9,6.88c-1.47.31-3,.57-4.75.76Z" fill="#f2e2af"/><path d="M24.76,9.82A2.66,2.66,0,0,0,27.85,12l1.45-.26A2.14,2.14,0,0,0,31,9.19l-.76-4.06A46,46,0,0,1,24.19,6.8Z" fill="#f2e2af"/><path d="M4.13,6.85A14.39,14.39,0,0,1,1.36,5.73v.12A15.93,15.93,0,0,0,4.13,6.85Z" fill="#b5a982"/><path d="M6,7.28a19.32,19.32,0,0,0-.86,3.94c-.24,2.37-.4,5.07-.46,7.21.17.26.3.53.48.79.07-2.22.4-5.23.67-7.85.17-1.54,1-2.94,1-3.95v0S6.22,7.32,6,7.28Z" fill="#b5a982"/><path d="M36.22,2.42l-.52.27c.11,3.1-.06,9.22-2.64,14.41,0,.33.08.65.13.95C36.3,12.47,36.37,5.5,36.22,2.42Z" fill="#b5a982"/><path d="M11.48,11.82,11.2,8c-.18,0-.35,0-.53,0L11,11.67a.77.77,0,0,0,0,.15,2.08,2.08,0,0,1-2.06,1.95H7.8a1.26,1.26,0,0,1-.28,0,2,2,0,0,0,.81.2H9.45A2.08,2.08,0,0,0,11.51,12Z" fill="#b5a982"/><path d="M17.64,10l-.21-2.18-.52,0,.2,2,.1,1.36a2.12,2.12,0,0,1-1.92,2.29l-1.93.15a1.79,1.79,0,0,1-.4,0,2.13,2.13,0,0,0,.94.17l1.93-.15a2.12,2.12,0,0,0,1.91-2.3Z" fill="#b5a982"/><path d="M23.9,6.88l-.51.1.35,3.59a2.14,2.14,0,0,1-1.88,2.35l-2,.19a2.57,2.57,0,0,1-.48,0,2,2,0,0,0,1,.17l2-.19a2.12,2.12,0,0,0,1.88-2.34Z" fill="#b5a982"/><path d="M31,9.19l-.76-4.06-.48.16L30.48,9a2.13,2.13,0,0,1-1.72,2.5l-1.45.26a2.52,2.52,0,0,1-.95,0,2.67,2.67,0,0,0,1.49.17l1.45-.26A2.14,2.14,0,0,0,31,9.19Z" fill="#b5a982"/><path d="M33.49,21.05c-.39,2.8-2.38,13.08-2.38,13.08l1.24-.38a12.81,12.81,0,0,0,3.26-1.64A19,19,0,0,0,33.49,21.05Z" fill="#f2e2af"/><path d="M31,30.8a1.91,1.91,0,0,0-2.06-1.71,1.91,1.91,0,0,0-2.11,1.65l-.09,4.09a28.35,28.35,0,0,0,4.16-.5v-.11Z" fill="#f2e2af"/><path d="M21.83,34.9l-.16-3.44a2,2,0,0,0-1.6-2s-1.06-.11-1.42-.1c-1.69.05-1.51,2-1.46,3.05l.19,2.21C18.67,34.78,20.15,34.87,21.83,34.9Z" fill="#f2e2af"/><path d="M24.27,29.36c-2-.06-2.43,1.22-2.3,2.19L22.14,35h0c1.61,0,3.05,0,4.34-.07l.1-3.32A2.55,2.55,0,0,0,24.27,29.36Z" fill="#f2e2af"/><path d="M14.24,29.1c-1.83.12-2.12,1.67-2,2.92L12.52,34a40.55,40.55,0,0,0,4.63.67l-.22-2.19C16.61,31.08,16.61,29,14.24,29.1Z" fill="#f2e2af"/><path d="M8,31.88a15.71,15.71,0,0,1,.7-9.53c.91,3.07,2,8.81,4.33,12.15a18.56,18.56,0,0,1-3.27-1.07A2.77,2.77,0,0,1,8,31.88Z" fill="#f2e2af"/><path d="M33.49,21.05l-.11.7a19.06,19.06,0,0,1,2.07,10.47l.16-.11A19,19,0,0,0,33.49,21.05Z" fill="#b5a982"/><path d="M28.94,29.09a2,2,0,0,0-2.09,1.42,2.2,2.2,0,0,1,1.89-.9,2,2,0,0,1,2.11,1.7l-.1,3.06c.06,0,.11,0,.11,0v-.11L31,30.8A1.87,1.87,0,0,0,28.94,29.09Z" fill="#b5a982"/><path d="M18.45,29.92c.35,0,1.41.1,1.41.1A2,2,0,0,1,21.47,32l.13,2.92h.23l-.16-3.44a2,2,0,0,0-1.6-2s-1.06-.11-1.42-.1a1.38,1.38,0,0,0-1.39,1.18A1.29,1.29,0,0,1,18.45,29.92Z" fill="#b5a982"/><path d="M24.27,29.36c-1.49-.05-2.11.66-2.28,1.43a2.1,2.1,0,0,1,2.07-.92,2.55,2.55,0,0,1,2.35,2.24l-.08,2.82h.19l.1-3.32A2.55,2.55,0,0,0,24.27,29.36Z" fill="#b5a982"/><path d="M14,29.62c2.38-.15,2.37,2,2.69,3.34l.17,1.65.26,0-.22-2.19c-.32-1.37-.32-3.5-2.69-3.35a1.93,1.93,0,0,0-1.9,1.5A1.91,1.91,0,0,1,14,29.62Z" fill="#b5a982"/><path d="M12.38,34.35c.41.11.63.15.63.15-2.29-3.34-3.42-9.08-4.33-12.15-.07.19-.13.38-.19.56C9.33,25.79,10.38,31,12.38,34.35Z" fill="#b5a982"/><path d="M1.64,5.11s.37.18,1,.43a23.76,23.76,0,0,0,3,.93A38.62,38.62,0,0,0,17,7.3l1.81-.15,1.88-.24c1.26-.18,2.55-.41,3.88-.7A44.77,44.77,0,0,0,32.7,3.59a44.47,44.47,0,0,0,4-2c.67-.38,1.33-.77,2-1.17A4.91,4.91,0,0,1,39.27.1a1.13,1.13,0,0,1,1,0,1.17,1.17,0,0,1,.59.76,1.4,1.4,0,0,1,0,.5c0,.17-.06.21-.09.32A42.59,42.59,0,0,0,39.28,11c-.23,3.17-.34,6.36-.4,9.5,0,1.57,0,3.13-.06,4.67v2.29a4.91,4.91,0,0,1-.61,2.36A8.14,8.14,0,0,1,34.93,33c-.32.19-.66.33-1,.5l-.49.24-.51.19-1,.37-.25.07-1.78.46-1,.18a17,17,0,0,1-2,.29c-.65.07-1.29.16-1.92.2l-1.85.08a35.14,35.14,0,0,1-11.66-1.18A17.1,17.1,0,0,1,8.4,33.12L8,32.89a1.17,1.17,0,0,1-.28-1.77h0l.39.28s.32.22.93.59a16.76,16.76,0,0,0,2.84,1.31,23.91,23.91,0,0,0,4.79,1.09,44.71,44.71,0,0,0,6.46.29,31.91,31.91,0,0,0,7.56-.9c.33-.08.66-.16,1-.26l1-.34.48-.18.47-.22c.3-.16.63-.29.93-.46a7.31,7.31,0,0,0,3-2.86,4,4,0,0,0,.53-2c0-.76,0-1.53,0-2.3q0-2.31,0-4.68c.05-3.15.14-6.35.36-9.55a43.5,43.5,0,0,1,1.46-9.5,1.71,1.71,0,0,0,.07-.25.14.14,0,0,0,0-.09A.2.2,0,0,0,39.82,1s-.14,0-.13,0-.32.19-.47.28c-.66.4-1.33.81-2,1.19A45.28,45.28,0,0,1,33.1,4.5a45.63,45.63,0,0,1-8.29,2.73,54.8,54.8,0,0,1-7.72,1.16,39.46,39.46,0,0,1-11.7-.68,24.67,24.67,0,0,1-3.2-.92l-.3-.1A2.75,2.75,0,0,1,0,4.49L0,4.3Z"/></g></g></svg>