<svg xmlns="http://www.w3.org/2000/svg" viewBox="0 0 66.48 76.94"><g id="Layer_2" data-name="Layer 2"><g id="Ñëîé_2" data-name="Ñëîé 2"><path d="M26.91,26.61a8.51,8.51,0,0,1-1.24-4.8l1,.05a7.65,7.65,0,0,0,1.07,4.2Z" fill="#4d3c33"/><path d="M33.63,35.93c.76-10.55,2-12.08.65-12.65s-4.23,3.6-9.19,1.47c-5.37-2.3-4.45,1.75-4.45,1.75V31c-1,2.33-2.28,5.75-1.63,7.05.36.72.63,1,1.63,1v18h12.9l-.31-10.63a1,1,0,0,0,1.56-.13C35.93,44.92,34.5,39.05,33.63,35.93Z" fill="#d9b07c"/><path d="M32.38,47.23l.25,12.71H33l-.27-13.49A1.06,1.06,0,0,0,32.38,47.23Z" fill="#ffdeb5"/><path d="M33.12,35.76c0-.12,0-.24,0-.35.32-4.43.72-7.26,1-9.13.15-1.11.59-2.26.26-2.48s-.73.34-1.08.54A11,11,0,0,1,28,26.16a8.13,8.13,0,0,1-3.18-.68c-1.21-.52-1.79-1.18-2.18-1.18a.81.81,0,0,0-.63.19c-.19.23,1.46,1.44,2.66,2a8.05,8.05,0,0,0,3.19.69,15.28,15.28,0,0,0,4.66-1.27.57.57,0,0,1,.76.46,5,5,0,0,1,0,1.45,72.37,72.37,0,0,0-1.06,7.93c0,.12,2.06,7.91,2.11,9.31l.07,0a.17.17,0,0,0,.06-.06C34.8,44.6,34.91,42.14,33.12,35.76Z" fill="#ffdeb5"/><path d="M21.64,56.94v-19s-1.27-.24-1.63-1c-.65-1.3.63-4.71,1.63-7V25.46a3.37,3.37,0,0,1,.09-1.34c-1.59.39-1.09,2.38-1.09,2.38V31c-1,2.33-2.28,5.75-1.63,7.05.36.72.63,1,1.63,1v18Z" fill="#bf9e73"/><path d="M26.66,21c-3.31-1-5.76-5.42-4.08-8.17C25,8.84,27.44,10.08,33.8,0a37.18,37.18,0,0,1,.73,15.21C33.48,20.64,28.91,21.68,26.66,21Z" fill="#ff8400"/><path d="M27.31,20.21c-3.3-1-5.76-5.42-4.08-8.17.18-.29.35-.55.53-.79a9,9,0,0,0-1.18,1.58C20.9,15.58,23.35,20,26.66,21a6.21,6.21,0,0,0,6.56-2.58A6.15,6.15,0,0,1,27.31,20.21Z" fill="#ff7300"/><path d="M33.24,2.18c-.22.34-.44.67-.64,1a32.06,32.06,0,0,1,.52,12.75A6.53,6.53,0,0,1,31,19.76a6.24,6.24,0,0,0,2.85-4.39A32.3,32.3,0,0,0,33.24,2.18Z" fill="#ffa84a"/><path d="M26.31,20.64a3.37,3.37,0,0,1-.39-4.08c1.32-2.45,2.33-2.39,3.27-3.33C27.12,16.94,28.56,19.89,26.31,20.64Z" fill="#4f2401"/><rect x="25.64" y="66.94" width="4" height="7" fill="#6a412b"/><rect x="28.64" y="66.56" height="7" fill="#a96944"/><path d="M28,68.94H26.64c-3.7,0-7-3.87-7-7.56V56.94h15v4.44C34.64,65.07,31.67,68.94,28,68.94Z" fill="#775836"/><path d="M19.64,60.64a52.62,52.62,0,0,1,15-2.53v-.17h-15Z" fill="#5f472b"/><path d="M33.64,56.94V60c0,3.7-2.64,6.9-6.33,6.9H26a6.38,6.38,0,0,1-5.6-2.7,7,7,0,0,0,6.27,4.7H28c3.7,0,6.67-3.87,6.67-7.57V56.94Z" fill="#5f472b"/><ellipse cx="27.31" cy="57.2" rx="11.92" ry="0.81" fill="#775836"/><path d="M27.31,56.38c-6.59,0-11.92.37-11.92.82,0,0,.1.11.27.17A78,78,0,0,1,27,56.8c5.72,0,10.48.27,11.65.64.35-.08.54-.16.54-.24C39.22,56.75,33.89,56.38,27.31,56.38Z" fill="#b48451"/><path d="M49.92,72.41a3.92,3.92,0,0,1-.49.13.53.53,0,0,1-.33,0c-.19-.06-.16-.25-.22-.4a10.31,10.31,0,0,1,1.69-9.65A9.49,9.49,0,0,1,53.86,60,9.25,9.25,0,0,1,61,59.61a9,9,0,0,1,5.45,8.23,7.36,7.36,0,0,1-1.8,4.83,6,6,0,0,1-4.71,2,4.86,4.86,0,0,1-4.85-3.61,4.81,4.81,0,0,1,.46-4.23,2.56,2.56,0,0,1,.44-.46l0,0a.45.45,0,0,1,.64.1c.2.27,0,.56-.18.79a3.56,3.56,0,0,0,0,4,3.81,3.81,0,0,0,3.9,1.84c3.19-.38,4.77-3.9,3.94-6.76a6.74,6.74,0,0,0-7.54-4.9,7.27,7.27,0,0,0-5.74,5.68,8.37,8.37,0,0,0,0,2.91c.08.45.31.88.35,1.34S50.4,72.25,49.92,72.41Z" fill="#5f3b27"/><path d="M62.32,72.37a5.49,5.49,0,0,0,2.43-6.29,6.75,6.75,0,0,0-7.55-4.9,7.3,7.3,0,0,0-2.36.94,7.08,7.08,0,0,1,1.95-.69,6.74,6.74,0,0,1,7.54,4.9A5.57,5.57,0,0,1,62.32,72.37Z" fill="#492d1d"/><path d="M60.39,74.46A5.2,5.2,0,0,1,56,66.62c.11-.14.21-.24.28-.32a.49.49,0,0,0-.22.08l0,0a2.56,2.56,0,0,0-.44.46,4.81,4.81,0,0,0-.46,4.23A4.86,4.86,0,0,0,60,74.71a6.19,6.19,0,0,0,3.47-1A6.42,6.42,0,0,1,60.39,74.46Z" fill="#492d1d"/><path d="M50.34,72.16a4.43,4.43,0,0,1-.49.13.53.53,0,0,1-.33,0c-.19-.06-.17-.25-.22-.4A10.29,10.29,0,0,1,51,62.25a9.59,9.59,0,0,1,2.18-1.93,9.77,9.77,0,0,0-2.6,2.18,10.31,10.31,0,0,0-1.69,9.65c.06.15,0,.34.22.4a.53.53,0,0,0,.33,0,3.92,3.92,0,0,0,.49-.13,4.32,4.32,0,0,0,1.26-.56A7.69,7.69,0,0,1,50.34,72.16Z" fill="#492d1d"/><path d="M45.83,76.94H8.75c-2.67,0-5.11-2.62-6.11-5.48v.48h49v-.48C50.64,74.32,48.49,76.94,45.83,76.94Z" fill="#5f3b27"/><path d="M3.79,73.78c5.74-.35,22.62-1.06,47.71-1,.16-.33.3-.83.43-.83H2.65C2.93,71.94,3.33,73.12,3.79,73.78Z" fill="#492d1d"/><path d="M51.19,71.94c-1.16,2-3.35,4-5.78,4H8.33a6.4,6.4,0,0,1-5.28-3.4c1.17,2.42,3.33,4.4,5.7,4.4H45.83c2.66,0,5.07-2,6.1-5Z" fill="#492d1d"/><ellipse cx="27.31" cy="71.19" rx="27.31" ry="0.89" fill="#a06c4e"/><path d="M27.14,70.55c13.31.07,23.81.41,27,.81.32-.06.49-.12.49-.17,0-.5-11.67-.9-27.3-.9-13.49,0-24,.3-26.66.7C4.31,70.66,14.45,70.47,27.14,70.55Z" fill="#f6a678"/></g></g></svg>