<svg xmlns="http://www.w3.org/2000/svg" viewBox="0 0 57.12 66.88"><g id="Layer_2" data-name="Layer 2"><g id="Ñëîé_2" data-name="Ñëîé 2"><path d="M35,27.85l11.24-9.26-.31.51L50.46,5.31a.67.67,0,0,1,.86-.43.69.69,0,0,1,.45.81L48.15,19.75l-.07.25-.25.27L37.92,30.94A2.13,2.13,0,0,1,34.79,28,1.8,1.8,0,0,1,35,27.85Z" fill="#574d44"/><path d="M34.89,32.46l.18-.17a3,3,0,0,1,.45-.34l.29-.15.48-.23.92-.42,1.8-.76,3.59-1.47,7.19-2.86h0l-.73.68,6.78-12.06a.68.68,0,0,1,.93-.26.67.67,0,0,1,.29.86L51.59,28l-.18.42-.55.26-7,3.11-3.49,1.58-1.73.81-.82.41-.38.21-.14.07a.78.78,0,0,0,.24-.2c.11-.13,0,0,0,0l-.44.34a1.66,1.66,0,0,1-2.16-2.52Z" fill="#574d44"/><path d="M37.64,35.26l11.61,8.86.4.31.11.39L53.25,58a.64.64,0,0,1-1.22.39L47.09,45.69l.5.7L35.61,38a1.72,1.72,0,0,1,2-2.82Z" fill="#574d44"/><path d="M36.76,38.35l7.65,11.2.26.38v.36l0,15.95a.65.65,0,0,1-1.29.05L42,50.41l.26.73L33.84,40.5a1.82,1.82,0,0,1,2.85-2.25Z" fill="#574d44"/><path d="M28,26.94,20.18,14.61l.14.59,0-14.52A.68.68,0,0,0,19,.63L18,15.12l0,.25.16.34L24.2,29a2.13,2.13,0,0,0,3.88-1.77C28,27.1,28,27,28,26.94Z" fill="#574d44"/><path d="M26.49,31.2,26.35,31a2.14,2.14,0,0,0-.37-.42l-.25-.22L25.31,30l-.8-.6-1.59-1.14-3.19-2.21-6.4-4.34h0l.56.82L9.88,9.3A.68.68,0,0,0,9,8.85a.67.67,0,0,0-.47.77l2.59,13.6.09.45.47.37,6.21,4.56L21,30.9l1.5,1.17.72.58.33.27.11.11a.79.79,0,0,1-.19-.25c-.08-.15,0,0,0,0l.37.43a1.66,1.66,0,0,0,2.65-2Z" fill="#574d44"/><path d="M23.2,33,9.09,36.75l-.49.13-.24.33L.13,48a.65.65,0,0,0,.12.9.66.66,0,0,0,.86-.07L10.5,39l-.74.45L24,36.31A1.72,1.72,0,0,0,23.27,33Z" fill="#574d44"/><path d="M23,36.21,12.31,44.56l-.36.29-.11.33L7,60.37a.64.64,0,0,0,1.2.45l6.17-14.71-.47.62,11.24-7.59a1.82,1.82,0,1,0-2-3Z" fill="#574d44"/><path d="M51.34,4.89a.58.58,0,0,1,0,.39L47.75,19.35l-.06.24-.26.27L37.52,30.54a2.12,2.12,0,0,1-2.89.2,1.64,1.64,0,0,0,.28.31,2.11,2.11,0,0,0,3-.11l9.91-10.67.25-.27.07-.25L51.77,5.69A.68.68,0,0,0,51.34,4.89Z" fill="#2a362c"/><path d="M56.77,14.42l-.08,0a.72.72,0,0,1,0,.48L51.19,27.59,51,28l-.54.26-7,3.1L39.92,33l-1.72.81-.83.41-.38.2-.13.08a.91.91,0,0,0,.24-.2c.11-.14,0,0,0,0l-.45.34a1.67,1.67,0,0,1-2,0l0,.08a1.66,1.66,0,0,0,2.33.31l.44-.34s.11-.11,0,0a.78.78,0,0,1-.24.2l.14-.08.38-.2.82-.41,1.73-.81,3.49-1.58,7-3.11.55-.26.18-.42,5.47-12.71A.67.67,0,0,0,56.77,14.42Z" fill="#2a362c"/><path d="M52.56,58.22,47.8,46,36.14,37.89a1.73,1.73,0,0,1-.43-2.4,1.65,1.65,0,0,1,.69-.57A1.72,1.72,0,0,0,35.61,38l11.66,8.13L52,58.36a.64.64,0,0,0,.76.39.82.82,0,0,0,.26-.14A.63.63,0,0,1,52.56,58.22Z" fill="#2a362c"/><path d="M43.92,66.15,42.55,50.72,34.36,40.35a1.82,1.82,0,0,1,.3-2.55,2.08,2.08,0,0,1,.38-.22,1.81,1.81,0,0,0-1.2,2.92L42,50.86,43.4,66.29a.65.65,0,0,0,.64.59.63.63,0,0,0,.42-.17A.65.65,0,0,1,43.92,66.15Z" fill="#2a362c"/><path d="M27.42,29.73a2.14,2.14,0,0,1-2.83-1.05L18.54,15.43l-.16-.34,0-.25,1-14.49A.73.73,0,0,1,19.5,0a.68.68,0,0,0-.51.6L18,15.12l0,.25.16.34L24.2,29a2.1,2.1,0,0,0,3.38.67Z" fill="#2a362c"/><path d="M24.23,32.91l-.37-.43s-.08-.14,0,0a.92.92,0,0,0,.19.25l-.11-.11-.33-.28-.72-.58-1.51-1.16-3.07-2.3L12.1,23.76l-.48-.37-.08-.45L8.94,9.34a.68.68,0,0,1,.11-.5H9a.67.67,0,0,0-.47.77l2.59,13.6.09.45.47.37,6.21,4.56L21,30.9l1.5,1.17.72.58.33.27.11.11a.79.79,0,0,1-.19-.25c-.08-.15,0,0,0,0l.37.43a1.65,1.65,0,0,0,2.34.19l.07-.07A1.65,1.65,0,0,1,24.23,32.91Z" fill="#2a362c"/><path d="M25.32,34.25a1.61,1.61,0,0,0-.09-.29,1.72,1.72,0,0,1-1.33,1.87L10,38.92,1,48.39a.64.64,0,0,1-.86.07A.69.69,0,0,1,0,48.33a.64.64,0,0,0,.23.61.66.66,0,0,0,.86-.07l9-9.47L24,36.31A1.72,1.72,0,0,0,25.32,34.25Z" fill="#2a362c"/><path d="M25.78,36.94A1.81,1.81,0,0,1,25,38.67L14.05,46.06l-6,14.28a.63.63,0,0,1-.78.36A.56.56,0,0,1,7,60.47a.63.63,0,0,0,.42.71.65.65,0,0,0,.79-.36l6-14.29,11-7.39A1.81,1.81,0,0,0,25.78,36.94Z" fill="#2a362c"/><path d="M30.56,22.3a3,3,0,0,1,1.58-2.72,5.81,5.81,0,0,0-.22,2.31Z" fill="#634e42"/><path d="M33.86,22.81a3,3,0,0,0-.68-3.07,5.79,5.79,0,0,1-.5,2.27Z" fill="#634e42"/><path d="M36.31,27.07a4.93,4.93,0,0,1-5.47,4.32,4.94,4.94,0,0,1-3.91-5.77A4.94,4.94,0,0,1,32.4,21.3,4.94,4.94,0,0,1,36.31,27.07Z" fill="#a48a7b"/><path d="M28.39,26.53a4.25,4.25,0,0,1,4.7-3.74,3.76,3.76,0,0,1,1.73.75A3.89,3.89,0,0,0,32.3,22a4.27,4.27,0,0,0-4.7,3.75A4.48,4.48,0,0,0,29.21,30,4.58,4.58,0,0,1,28.39,26.53Z" fill="#bfa18f"/><path d="M35.7,23.65A5.38,5.38,0,0,1,36,26.46a5,5,0,0,1-5.48,4.31,4.63,4.63,0,0,1-3.3-2.35,4.7,4.7,0,0,0,3.6,3,4.93,4.93,0,0,0,5.47-4.32A5.27,5.27,0,0,0,35.7,23.65Z" fill="#736055"/><path d="M38.76,38.26a8.89,8.89,0,1,1-7.41-10.14A8.89,8.89,0,0,1,38.76,38.26Z" fill="#7b6a58"/><path d="M22.67,36.44a8.18,8.18,0,0,1,13.55-4.85A8.19,8.19,0,1,0,24.53,43,8.16,8.16,0,0,1,22.67,36.44Z" fill="#a18b72"/><path d="M37.85,32.8a8.87,8.87,0,0,1-16,7.57,8.87,8.87,0,1,0,16-7.57Z" fill="#4a3f35"/></g></g></svg>