<svg xmlns="http://www.w3.org/2000/svg" viewBox="0 0 116.48 62.86"><g id="Layer_2" data-name="Layer 2"><g id="Ñëîé_2" data-name="Ñëîé 2"><path d="M59.94,38s12.59-14.82,32.88-9.66,23.66,22.13,23.66,22.13S97,41.67,90.05,59.61c-6.6-6-17.09-5.18-20.67,3.25-2.72-5.55-11.92-8.51-17-5.42C54.27,51.81,59.94,38,59.94,38Z" fill="#22262b"/><path d="M49.82,34S50.74,14.58,32.4,4.48,0,4.5,0,4.5s20.23,6.86,13.06,24.72c8.9.16,16,7.89,12.88,16.49,5.77-2.2,14.55,1.94,16.13,7.65C44.55,48,49.82,34,49.82,34Z" fill="#22262b"/><path d="M91.94,29.64C109.23,34,113.68,46,114.78,49.71c.58.21.91.36.91.36S112.87,34.13,92.57,29C73.09,24,60.72,37.47,59.76,38.56,62.65,35.62,74.42,25.19,91.94,29.64Z" fill="#4f9199"/><path d="M49.56,34.64s.93-19.42-17.42-29.52S.7,4.72.7,4.72l.27.1c3.37-2,14.92-7.63,30.54,1,18.35,10.1,17.42,29.52,17.42,29.52Z" fill="#4f9199"/><path d="M64.56,34.08a6.43,6.43,0,0,0,.23-4.42,10.87,10.87,0,0,0,.35-6.42c0-.11-.16-.11-.22,0a14.37,14.37,0,0,1-2.44,3.15,11.76,11.76,0,0,0-6.59-2.6,14.73,14.73,0,0,1,.36-4c0-.12-.06-.21-.16-.15A10.9,10.9,0,0,0,52,24.6,6.41,6.41,0,0,0,49.12,28a8.16,8.16,0,0,0-.55,2.28,27.21,27.21,0,0,1-1.67,7.61c-1.11,2.83-3.35,8.49-4.47,11.32A6.89,6.89,0,0,0,45.73,58a6.72,6.72,0,0,0,9.14-3.61l4.56-11.54a27.68,27.68,0,0,1,4-6.7A7.94,7.94,0,0,0,64.56,34.08ZM59.79,30.6a1.59,1.59,0,0,1,1.55-.15l1.13.44c.06,0,.08.1,0,.13l-1,.79a1.59,1.59,0,0,1-1.55.15l-1.13-.45a.07.07,0,0,1,0-.13Zm-7-3.52,1.13.45a1.6,1.6,0,0,1,1,1.17L55.2,30c0,.05-.05.09-.11.07L54,29.61a1.61,1.61,0,0,1-1-1.17l-.22-1.28A.08.08,0,0,1,52.82,27.08Z" fill="#22262b"/><path d="M46.65,57.83a6.88,6.88,0,0,1-3.3-8.77l4.47-11.32a27.49,27.49,0,0,0,1.67-7.61A8.16,8.16,0,0,1,50,27.85a6.37,6.37,0,0,1,2.85-3.38,10.81,10.81,0,0,1,3.3-4.34l.06-.31c0-.12-.06-.21-.16-.15A10.9,10.9,0,0,0,52,24.6,6.41,6.41,0,0,0,49.12,28a8.16,8.16,0,0,0-.55,2.28,27.21,27.21,0,0,1-1.67,7.61c-1.11,2.83-3.35,8.49-4.47,11.32A6.89,6.89,0,0,0,45.73,58a6.63,6.63,0,0,0,4.24.5A6.63,6.63,0,0,1,46.65,57.83Z" fill="#181b1f"/><path d="M54.87,24.66a11.69,11.69,0,0,1,6.59,2.6l.46-.55a11.28,11.28,0,0,0-3.09-1.81,11,11,0,0,0-3.5-.79,14.59,14.59,0,0,1,.46-3.94c0-.11-.44.27-.54.33A14.41,14.41,0,0,0,54.87,24.66Z" fill="#4f9199"/><path d="M64.24,30a9.68,9.68,0,0,0,.86-6.5c0-.11-.43.7-.42.73a8.91,8.91,0,0,1-.91,6.33A6.43,6.43,0,0,1,63.54,35a8.22,8.22,0,0,1-1.15,2c-1.61,2.07-1.14,1.51.46-.55a8.25,8.25,0,0,0,1.16-2A6.46,6.46,0,0,0,64.24,30Z" fill="#4f9199"/></g></g></svg>