<svg xmlns="http://www.w3.org/2000/svg" viewBox="0 0 48.72 90.58"><g style="isolation:isolate"><g id="Layer_2" data-name="Layer 2"><g id="Ñëîé_2" data-name="Ñëîé 2"><path d="M47.46,90.45h0a2,2,0,0,1-2.56-1.12L21.77,30.23a2,2,0,0,1,1.12-2.56h0a2,2,0,0,1,2.56,1.12l23.13,59.1A2,2,0,0,1,47.46,90.45Z" fill="#1d1d1b"/><path d="M22.12,28,22,28a2,2,0,0,1,1.62,1.23l23.12,59.1c.38,1,1.48.84,1.08-.18L24.68,29.09A2,2,0,0,0,22.12,28Z" fill="#52524c"/><path d="M48.15,89.94a2,2,0,0,1-2.56-1.12L22.46,29.72a2,2,0,0,1,.36-2,2,2,0,0,0-1.05,2.52L44.9,89.33a2,2,0,0,0,2.56,1.12,1.84,1.84,0,0,0,.76-.55Z"/><circle cx="19.82" cy="19.82" r="19.41" transform="translate(-2.48 36.81) rotate(-82.3)" fill="#f2e2af"/><circle cx="19.82" cy="19.82" r="12.94" transform="translate(-6.28 30.03) rotate(-66.37)" fill="#c2004a"/><path d="M15.1,9A12.66,12.66,0,0,1,32,24.14,12.68,12.68,0,1,0,7.72,16.73,12.63,12.63,0,0,1,15.1,9Z" fill="#fffdf8" opacity="0.63"/><path d="M25.93,14.15a7.82,7.82,0,0,0-14.44,5.66,6.29,6.29,0,0,0,.93,1.89,19.08,19.08,0,0,1,2.25,4l.35.89a1.91,1.91,0,0,0,2.52.92c.66-.26,1.08-.09,1.12.53.13,2.21,1.08,1.43,1.94,1.4A10.81,10.81,0,0,0,23.42,29a10.78,10.78,0,0,0,2.38-1.57c.65-.56,1.88-.62.48-2.34-.4-.49-.2-.89.46-1.15A1.91,1.91,0,0,0,28,21.56l-.35-.89a18.51,18.51,0,0,1-1.08-4.49A6.58,6.58,0,0,0,25.93,14.15Zm-4.67,7,1.2,1.23a.78.78,0,0,1-.27,1.27l-.84.33a.78.78,0,0,1-1.07-.75l0-1.72A.54.54,0,0,1,21.26,21.13Zm-4.26,2c-2.63.9-3.07-1.54-3.1-2.34-.07-1.71,1.35-2.52,2.12-3.06,1.76-1.22,2.51-.38,2.71,2.2C18.78,20.69,18.78,22.51,17,23.11Zm3.7-4c-1.61-2-1.62-3.16.5-3.45.92-.13,2.52-.5,3.63.8.52.61,1.85,2.7-.69,3.83C22.43,21.08,21.19,19.75,20.7,19.14Z" fill="#f2e2af"/><path d="M12.6,1.36A19.82,19.82,0,1,0,38.28,12.6,19.85,19.85,0,0,0,12.6,1.36ZM31,4.45a18.86,18.86,0,0,1,5.47,6.15l-3.75,1.53A15,15,0,0,0,29,8ZM25,33a14.16,14.16,0,1,1,8-18.35A14.17,14.17,0,0,1,25,33ZM12.9,2.13a19.7,19.7,0,0,1,3.28-.95l.25,4.05a15.4,15.4,0,0,0-2.07.63A14.76,14.76,0,0,0,11.44,7.4L8.65,4.46A19.15,19.15,0,0,1,12.9,2.13ZM1,17.51l3.93,1a14.7,14.7,0,0,0,.51,5.41L1.76,25.68A18.91,18.91,0,0,1,1,17.51ZM11.79,37,14,33.6a15,15,0,0,0,5.31,1.19l.53,4A19.13,19.13,0,0,1,11.79,37Zm21.9-4.23-2.58-3.13A14.84,14.84,0,0,0,33.87,25l4,.75A19.14,19.14,0,0,1,33.69,32.79Z" fill="#c2004a"/><path d="M12.49,3.73A19,19,0,0,1,37.43,27.51,19,19,0,1,0,1.94,14,19,19,0,0,1,12.49,3.73Z" fill="#fffdf8" opacity="0.63"/><path d="M9.19,25.72a12.68,12.68,0,0,0,17.33,4.63,12.55,12.55,0,0,0,5.27-5.94A12.67,12.67,0,1,1,8.24,15.1,12.62,12.62,0,0,0,9.19,25.72Z" fill="#d47575" style="mix-blend-mode:multiply"/><path d="M3.86,28.22a19,19,0,0,0,34.33-3A19,19,0,1,1,2,13.65,18.91,18.91,0,0,0,3.86,28.22Z" fill="#d47575" style="mix-blend-mode:multiply"/></g></g></g></svg>