<svg xmlns="http://www.w3.org/2000/svg" viewBox="0 0 89.9 138.76"><g id="Layer_2" data-name="Layer 2"><g id="Ñëîé_2" data-name="Ñëîé 2"><path d="M12,81.75c1.84-6.65-1.26-20.2-2.41-42s-14-33.36-8-38.65S16,10.38,17.51,28.62,14,63.85,18.32,72.11C14.87,77.27,12,81.75,12,81.75Z" fill="#111c38"/><path d="M2.07,3.16A4.83,4.83,0,0,0,.61,7.07C.23,4.86.52,3.12,1.92,1.78,7.36-3.38,15.05,10.4,16.7,28.05,14.79,11.07,7.36-1.87,2.07,3.16Z" fill="#579ebd"/><path d="M25.49,131.94a2.07,2.07,0,0,0,.59.67,3,3,0,0,1-1-.88c-.57-1-2.35-12.89-1.9-16.82.81-6.89,4.14-10,7.35-16.41,4.35-8.72,6.38-11.08,6.87-11.58,2.46.68,4.11,1.22,4.11,1.22s-2,1.36-7.9,11.11c-3.71,6.15-7.28,9-8.63,15.77C24.16,118.9,25,130.87,25.49,131.94Z" fill="#1b253d"/><path d="M67.64,132c0,.12-.49-.14-.64-.4-.57-1,.22-12.79.68-16.72.8-6.89.89-13.43,7.34-16.41,1.79-.82,2.47-1.9,2.38-3.07C78.6,96.84,79,97.29,79,97.29c-7.61,5.95-7,11.4-8.66,18.14C69.38,119.29,67.19,130.93,67.64,132Z" fill="#1b253d"/><path d="M10.68,87.47c0-5,1.47-11.86,8.59-20.35,10.63-12.68,28.85-10.68,39.3,1.46,1.82,2.11,3.54,4,5.16,5.58a11.94,11.94,0,0,1,.47-3.24c.12-.64,1.87-9.08,6.09-13a.42.42,0,0,1,.69.25,52.1,52.1,0,0,0,1.92,8.58c1.15-.07,2.44-.11,3.9-.11s2.71,0,3.85.11a50.12,50.12,0,0,0,1.92-8.58.42.42,0,0,1,.69-.25c3.91,3.63,5.7,11.12,6,12.73a15.51,15.51,0,0,1,.6,5.28,11.3,11.3,0,0,1-7.61,10.66c-.44,5.55-.74,12.33-12,15.81-.28.09-.55.15-.82.22-2,3.33-2.19,7.73-2.72,12.29-.46,3.93-.65,15.79-.08,16.82s3.91,2.22,4.19,4.05a2.55,2.55,0,0,1-1.15,3h-4.2c-.63,0-1.22-.61-1.62-1.1-1-1.2-2.48-4.42-3.22-12.15-.56-5.92-1.51-15.16-2.2-23.24-8-3.32-12-12.66-17.45-13.48a18.34,18.34,0,0,0-6.13.52,92.38,92.38,0,0,0-5.11,9.2c-3.2,6.43-6.54,9.52-7.34,16.4-.46,3.94,1.32,15.79,1.89,16.83s3.91,2.21,4.19,4a2.54,2.54,0,0,1-1.15,3H23.07c-.44,0-.86-.54-1.12-.9-.73-1-2.08-3.83-3.4-10.85-2-10.33-8.06-32.56-7.88-39.44Z" fill="#0b1224"/><path d="M84.12,60a.41.41,0,0,0-.68.25,42.51,42.51,0,0,1-1.86,7.53c-1.13-.07-2.39-.1-3.82-.1s-2.71,0-3.85.1a1.5,1.5,0,0,1-.37-.65c1.06-.06,2.24-.09,3.55-.09s2.69,0,3.82.11a46.47,46.47,0,0,0,1.85-8,.41.41,0,0,1,.68-.25,14.86,14.86,0,0,1,2.7,3.63A13.4,13.4,0,0,0,84.12,60Z" fill="#579ebd"/><path d="M13.84,76.42c1.23-2.63,2.77-4.4,6.07-8.38,10.53-12.68,28.58-10.69,38.93,1.45,1.8,2.12,3.5,4,5.1,5.59a12.08,12.08,0,0,1,.47-3.25c.12-.63,1.58-9.12,5.76-13a.41.41,0,0,1,.69.25c0,.23.07.51.12.83a.27.27,0,0,0-.12.06C66.67,63.85,65.21,72.35,65.09,73a12.47,12.47,0,0,0-.47,3.24c-1.59-1.62-3.3-3.47-5.1-5.58C49.17,58.5,31.13,56.51,20.6,69.18c-7.06,8.49-6.55,8.41-8.36,14A18.3,18.3,0,0,1,13.84,76.42Z" fill="#579ebd"/><path d="M80.15,75.76h2a3,3,0,0,0,2.34-1.54l1.15-1.58c0-.08,0,.12-.14.12h-2c-1,0-1.89,0-2.34.72l-1.15,2C80,75.55,80,75.76,80.15,75.76Z" fill="#fff"/><path d="M69.05,74.22a3,3,0,0,0,2.34,1.54h2.06c.11,0,.18-.44.13-.53l-1.15-1.58a2.52,2.52,0,0,0-2.33-.89H68c-.11,0-.19-.2-.14-.12Z" fill="#fff"/></g></g></svg>