<svg xmlns="http://www.w3.org/2000/svg" viewBox="0 0 132.89 91.2"><g id="Layer_2" data-name="Layer 2"><g id="Ñëîé_2" data-name="Ñëîé 2"><path d="M87.47,57.78c.34,0,4,1.75,4,1.75L91.4,67l-5.83-1.79Z" fill="#5e2e00"/><path d="M41.88,57.29l4.81,0v8.25L41,63.72Z" fill="#5e2e00"/><path d="M132.89,83.7S121,66.9,82.22,67.59,15,60.62,0,53.35c0,0,12.39,32.52,41.94,36.9C65.63,93.76,71.29,86.41,93,87.1S122.07,91,132.89,83.7Z" fill="#0c1529"/><path d="M132.89,83.7S121,66.9,82.22,67.59,15,60.62,0,53.35c0,0,12.39,32.52,41.94,36.9C65.63,93.76,71.29,86.41,93,87.1S122.07,91,132.89,83.7Z" fill="#0c1529"/><path d="M3.67,55C7.92,63.64,20.55,84.76,44,88.23c23.69,3.51,29.35-3.83,51.1-3.15,20.08.63,27.83,3.45,37.42-1.9.27.33.41.52.41.52C122.07,91,114.79,87.78,93,87.1s-27.41,6.66-51.1,3.15C12.39,85.87,0,53.35,0,53.35,1.14,53.9,2.38,54.46,3.67,55Z" fill="#506285"/><path d="M88.33,74.25c2.58-26,2.47-30.78-2-32.81-1.25-.32-4.43-.9-4.43-.9s5.32-14.3,2-20.89c-1.26-1.77-4.5-1.51-4.5-1.51S69.82,3.28,64.83,1.07C60.51-.85,60,2.4,46.86.27,36.32-1.43,37.21,5.51,33.4,12.69s-3.79,8.54,5.06,15.81,4.17.25,2.7-3.3S37,18.25,41.94,15s8-3.56,8-3.56l5.93,6s-6,0-.28,15c-3.08-.85-7.68-4.94-6.53,12a29.16,29.16,0,0,0-5.4,2.83c-2.69,1.83,1,10.52,1,10.52L43.49,74.25Z" fill="#0c1529"/><path d="M43.61,47.2A28.36,28.36,0,0,1,49,44.36c0,.32,0,1,2.93,2.21,0,0-4-1.34-9.13,1.85A2.18,2.18,0,0,1,43.61,47.2Z" fill="#506285"/><path d="M39.64,17.25c-1.46,2.57.38,5.21,1.52,7.94,1.23,3,4.67,8.33.66,5.83,2.33.33-1-4.05-1.48-5.3C39,22.43,37.54,20.34,39.64,17.25Z" fill="#506285"/><path d="M53.52,19.28a3,3,0,0,1,2.3-1.85l3.52,1.68S54.69,17.84,53.52,19.28Z" fill="#506285"/><path d="M49.69,33.12c1.09-2,1.91-2.39,5.85-.71.38,1.05,2.45,3.46,3.63,4.75C52.44,31.22,51,32.52,49.69,33.12Z" fill="#506285"/><path d="M85,43c-4.11-2.11-8.44,2.35-8.44,2.35s9.79-12.71,5.3-24.14c-.79-2-4.18-2.33-8.82.29,5.57-5.57-4.54-16.66-9.52-18.87-4.33-1.92-4.81,1.33-18-.8-4-.64-6.31-.06-7.9,1.3,1.57-2.42,4-3.73,9.25-2.88C60,2.38,60.51-.88,64.83,1c5,2.22,14.51,17,14.51,17s3.24-.34,4.5,1.43c3.36,6.59-2,20.73-2,20.73s3.18.9,4.43,1.22c4.49,2,4.6,6.81,2,32.81H87.15C89.56,49.25,89.36,45,85,43Z" fill="#506285"/><path d="M40.45,72.11C50,77,80.78,79.1,92,74.9c1.2-2.79,1.44-13.47-.47-15.37-8.64,5.37-45.71.6-49.43-2.24C40.39,59.39,39.81,69.9,40.45,72.11Z" fill="#f37500"/><path d="M41.89,57.61c-1.19,3.56-1.54,11.57-1,13.46,9.51,4.9,40.09,7,51.41,2.84a6.08,6.08,0,0,1-.32,1C80.78,79.1,50,77,40.45,72.11,39.83,70,40.35,60.26,41.89,57.61Z" fill="#a85100"/><path d="M90.62,60.87c-8.51,5.29-44.59.75-49.22-2.1a5.14,5.14,0,0,1,.69-1.48c3.72,2.84,40.79,7.61,49.43,2.24,1.91,1.9,1.67,12.58.47,15.37-.17.07-.36.13-.54.19C92.32,71.25,92.32,62.57,90.62,60.87Z" fill="#f3a157"/><path d="M57.05,79.74,47.24,78a3.61,3.61,0,0,1-3-3.87l1.36-14.31a3.57,3.57,0,0,1,4-3.21L59.58,58a3.58,3.58,0,0,1,3.09,3.91L61.23,76.56a3.57,3.57,0,0,1-3.56,3.24A3.26,3.26,0,0,1,57.05,79.74Zm-9.2-5.24,9.81,1.71L59.1,61.53l-9.89-1.34Z" fill="#683c11"/><path d="M45.64,59.85a3.58,3.58,0,0,1,1-2.17,3.63,3.63,0,0,0-.58,1.62L44.73,73.6a3.61,3.61,0,0,0,3,3.87l9.81,1.72a4.21,4.21,0,0,0,.62,0,3.58,3.58,0,0,0,2.54-1.07,3.58,3.58,0,0,1-3,1.63,3.26,3.26,0,0,1-.62-.06L47.24,78a3.61,3.61,0,0,1-3-3.87Z" fill="#3b220a"/><path d="M60.67,77l1.44-14.68A3.58,3.58,0,0,0,59,58.42l-9.89-1.33a3.49,3.49,0,0,0-2.41.54,3.51,3.51,0,0,1,3-1L59.58,58a3.58,3.58,0,0,1,3.09,3.91L61.23,76.56a3.57,3.57,0,0,1-1.64,2.68A3.55,3.55,0,0,0,60.67,77Z" fill="#d69e66"/></g></g></svg>