<svg xmlns="http://www.w3.org/2000/svg" viewBox="0 0 112.93 126.93"><g id="Layer_2" data-name="Layer 2"><g id="Ñëîé_2" data-name="Ñëîé 2"><path d="M1.22,79.56a83.44,83.44,0,0,1,.5-31.06c1.22-5.57,3.63-11.5,8.74-14,3.26-1.62,7.07-1.55,10.71-1.44l14.64.43a5.33,5.33,0,0,0,2.42-.31,5.27,5.27,0,0,0,2.2-2.73l5.82-11.91C48.66,13.56,54.84-4.85,74.3,1.21,91.12,6.45,85.48,21.39,84.88,31.33c-.26,4.36-1,6.7,1.73,10.08,4.62,5.65,18.34,1.65,25.31,12.36,2.11,3.24.32,11.24-.18,15.08-.79,6-3.9,10.29-9.56,17.78a29.49,29.49,0,0,0,0-11c-.36-1.88-1.44-4.14-3.35-4a5.93,5.93,0,0,1-1.6,2.69L96.83,72a4.27,4.27,0,0,0-5.61,4.11c-.77-.55-.91-1.61-1.15-2.52s-.91-1.93-1.85-1.82a2.08,2.08,0,0,0-1.33,1c-2.5,3.8-3.16,7.34-5.74,12.12-.13-2.56-.27-5.12-.4-7.68C77.9,84,74.69,91.17,68.46,95c-.56-2.74-4.37-3.62-6.88-2.37s-4.06,3.78-5.74,6A38,38,0,0,1,47,107.13l-.06-2.46a264,264,0,0,1-27.23,22.26c3.65-7.4,7.31-15.57,8.83-23.68.95-5.09,5.8-18.74,1-20.8-1.73-.74-4.45,4.26-5.5,5.14,1-3,.38-5.41.52-8.55.12-2.87,1.31-9-1.51-8.44-1.65.32-5.52,4.74-7,5.62,1.95-5.44,6.07-16.15.79-15.62-3.68.37-5.48,8.14-5.48,8.14s-1.49-3.56-2.57-3.48C4.81,65.56,1.22,79.56,1.22,79.56Z" fill="#c9cfd1"/><path d="M10.33,64.14a4.58,4.58,0,0,1,.67.62,13.73,13.73,0,0,1,2.28-3.83A8.34,8.34,0,0,0,10.33,64.14Z" fill="#cbedec"/><path d="M1.78,70.06c0,.69.08,1.35.13,2a22.4,22.4,0,0,1,3.68-6.56A11,11,0,0,0,1.78,70.06Z" fill="#cbedec"/><path d="M46.84,102.35l-2.65,2.49q-5,4.64-10.21,9c4.05-3.36,8-6.83,11.85-10.41l1-1Z" fill="#cbedec"/><path d="M9.54,37.27A16.78,16.78,0,0,1,17,36c.84,0,1.68,0,2.51,0l14.64.43h.65A5.79,5.79,0,0,0,37.28,36,4.78,4.78,0,0,0,39,34.55l-.09.06a5.79,5.79,0,0,1-2.51.47h-.65l-14.64-.43c-.83,0-1.67,0-2.51,0a16.8,16.8,0,0,0-7.43,1.32,10.76,10.76,0,0,0-2.75,2A12.47,12.47,0,0,1,9.54,37.27Z" fill="#cbedec"/><path d="M83.89,73.28a26.88,26.88,0,0,0-2.06,3.8l.55.1.05,1a33.85,33.85,0,0,1,3.1-6.24c.06-.09.13-.16.18-.24A4,4,0,0,0,83.89,73.28Z" fill="#cbedec"/><path d="M110.55,54.66c-3.69-5.68-9.39-6.78-14.9-7.85-4.12-.8-8-1.56-10.31-4.37-2.74-3.35-2.52-6-2.23-9.31,0-.59.1-1.22.14-1.9.11-1.76.36-3.62.63-5.59C85.14,16.33,86.44,6.7,73.82,2.77a23.17,23.17,0,0,0-6.88-1.14,15.77,15.77,0,0,0-11,4.43A15.56,15.56,0,0,1,65.3,3a23.05,23.05,0,0,1,6.87,1.14C84.8,8.06,83.5,17.69,82.24,27c-.27,2-.52,3.83-.63,5.59,0,.68-.09,1.31-.14,1.9-.29,3.33-.51,5.95,2.23,9.31C86,46.61,89.89,47.36,94,48.16c5.51,1.08,11.21,2.18,14.9,7.86,1.42,2.18.47,8.14-.09,11.71-.13.84-.26,1.62-.34,2.27-.46,3.5-1.82,6.43-4.16,10,0,.33,0,.67,0,1,3.36-4.69,5.22-8.1,5.78-12.34.08-.65.21-1.42.34-2.27C111,62.8,112,56.84,110.55,54.66Z" fill="#cbedec"/><path d="M53.65,98l-.75,1a36.77,36.77,0,0,1-4.35,4.81v.07a36.13,36.13,0,0,0,6-6.24l.75-1a27.56,27.56,0,0,1,2.83-3.46A19,19,0,0,0,53.65,98Z" fill="#cbedec"/><path d="M77.61,78c-2.46,5.8-4.86,11-8.57,14.58l0,0c4.29-3.3,7-8.49,9.52-14.45Z" fill="#cbedec"/><path d="M62.36,24.09c-1.4,2.69-4.21,4-6.3,2.92s-2.64-4.14-1.24-6.83,4.21-4,6.29-2.92S63.75,21.39,62.36,24.09Z" fill="#7d9491"/><path d="M67.8,22.27c-.38,4.13,1.76,8,4.77,8.63s5.74-2.19,6.12-6.32-1.77-8-4.77-8.63S68.17,18.15,67.8,22.27Z" fill="#7d9491"/></g></g></svg>