<svg xmlns="http://www.w3.org/2000/svg" viewBox="0 0 119.89 160.29"><g style="isolation:isolate"><g id="Layer_2" data-name="Layer 2"><g id="OBJECTS"><path d="M117.2,70.41c-.84-5.69-4.38-10.79-8.46-14.71a26.79,26.79,0,0,0-7-5c-1.81-.85-4.49-1.91-6.72-1.61-1-.37-1.89-.66-2.67-.88A28.39,28.39,0,0,0,81,47.35a30.3,30.3,0,0,0-10.84,3.28l-.15.09a14.7,14.7,0,0,0-4.59,1.35,62.69,62.69,0,0,0-6.26,3.09,55.09,55.09,0,0,0-5.48,3.41l-.29.22-.67-.43a32.78,32.78,0,0,0-4.82-2.49c-7.19-3.13-15-4.95-22.82-3.75A25.88,25.88,0,0,0,14.92,56a22.63,22.63,0,0,0-4.25,3.56A9.91,9.91,0,0,0,8.93,62C4.14,67.58,2.1,75.06,1.7,82.35a55.39,55.39,0,0,0,4.47,25c3.5,7.87,9.53,14.51,15.3,20.8,6.11,6.65,12.31,13.34,19.24,19.16A148.91,148.91,0,0,0,53.1,156.8a33.41,33.41,0,0,0,3.16,2,4.16,4.16,0,0,0,3.25.16,2.53,2.53,0,0,0,1,.62,4.48,4.48,0,0,0,3.56,0l2.52-.06c1.91-.06,3.48-.06,5-1.42,2.7-2.48,5.15-5.27,7.59-8s4.8-5.6,7.09-8.48l.23-.3h0A5.43,5.43,0,0,0,88.1,140a4.51,4.51,0,0,1,.39-.37,3.57,3.57,0,0,0,.38-.3c.26-.3.51-.63.74-.95.77-1.1,1.48-2.25,2.17-3.4a92.71,92.71,0,0,0,7.56-8.53,55.05,55.05,0,0,0,3.39-4.92,6.41,6.41,0,0,0,2.67-3q1.06-1.95,2.14-3.87c1.45-2.57,2.88-5.14,4.17-7.79a58.12,58.12,0,0,0,5.63-17A68.15,68.15,0,0,0,117.2,70.41Z" fill="#d91e50"/><path d="M92.23,44.5c-.18-1-.31-2-.57-3s-.66-1.92-.91-2.91c0,0,0,0,0,0A36.34,36.34,0,0,0,90,32.6a43.49,43.49,0,0,0-4.35-11.9,48.2,48.2,0,0,0-7.83-10.35,33.66,33.66,0,0,0-11-7.73c-8-3.3-17.84-2.47-25.72.83s-13.09,10-16.35,17.76A57.57,57.57,0,0,0,20.88,36c-.65,5-1,10.43,0,15.35a1.69,1.69,0,0,0,2,1.16c.64-.17,1.29-.33,1.93-.48.21.36.42-.28.62.08a1.2,1.2,0,0,0,2.17-.28c.19-.56.43-.09.64-.64.22-.06.45-.11.67-.18a1.34,1.34,0,0,0,.93-1.63,5.81,5.81,0,0,1-.17-3A1.09,1.09,0,0,0,29,45c0-1.34.1-2.67.2-4a55.24,55.24,0,0,1,2-11.12c1.87-6.42,5.36-12.12,11.48-15.2,6.42-3.23,14-2.85,20.68-.61a27.64,27.64,0,0,1,8.53,4.47A21.82,21.82,0,0,1,78,26.73a83.71,83.71,0,0,1,3.75,11.89A42.55,42.55,0,0,0,84,45.14c1,2.23,4,2,6.1,2.17C91.65,47.44,92.45,45.79,92.23,44.5Z" fill="#ff8b4a"/><path d="M62.89,87.09a8,8,0,0,0-.07-.83,5.1,5.1,0,0,0-.7-2.38,2.25,2.25,0,0,0-.56-.55,5.72,5.72,0,0,0-2.63-3.28,2.26,2.26,0,0,0-.43-.17,2.38,2.38,0,0,0-3-.56,7.21,7.21,0,0,0-.62.47l-.1.13-.07,0a5.32,5.32,0,0,0-.69.52,9.4,9.4,0,0,0-1.42,1.6,10.45,10.45,0,0,0-1.64,3.49,13.66,13.66,0,0,0,.41,8.75,5.23,5.23,0,0,0,3.4,2.91,4.7,4.7,0,0,0,4.68-1.62,10,10,0,0,0,1.4-2.13,2.09,2.09,0,0,0,1.29-1,12.13,12.13,0,0,0,.85-2,5.39,5.39,0,0,0,.22-1.06,4.69,4.69,0,0,0,.07-1.12A3.26,3.26,0,0,0,62.89,87.09Z" fill="#0d0d0d"/><path d="M59.64,119c0-.37-.1-.74-.15-1.11-.38-2.69-.69-5.38-1-8.08a24.7,24.7,0,0,0-.63-4.62c-.25-.84-1.22-2.52-2.34-2.39,0-.57.06-1.14.1-1.72.09-1.32-2.09-1.63-2.33-.31-.6,3.17-1.35,6.32-2,9.49s-1.14,6.38-1.64,9.58a2.39,2.39,0,0,0,2.25,3,39,39,0,0,0,4.82.53,2.78,2.78,0,0,0,2.72-2,3.68,3.68,0,0,0,0-1.48A1.89,1.89,0,0,0,59.64,119Z" fill="#0d0d0d"/><path d="M54,76.74c-1.52-.88-3.38.27-4.63,1.17a16.06,16.06,0,0,0-2.86,2.54,14.23,14.23,0,0,0-2.12,3.2c-.18.4-.35.8-.51,1.21l-.12.29a1.47,1.47,0,0,1-.1.22,2.38,2.38,0,0,0,.92,4.56q3.32,0,6.63-.13v0a5.26,5.26,0,0,0,.67-.07,2.5,2.5,0,0,0,1.8-2.77,2.62,2.62,0,0,0-.74-1.47,3.35,3.35,0,0,0,.34-1,2,2,0,0,0,0-.54,3.29,3.29,0,0,0-.22-2.43,1.09,1.09,0,0,0-.23-.29l.09-.06c.8-.48,1.8-1.1,2-2.08A2.13,2.13,0,0,0,54,76.74Z" fill="#c7d0d8" style="mix-blend-mode:multiply"/><path d="M55.48,98.24a1.21,1.21,0,0,0-.61-1,3.76,3.76,0,0,0-3.29,0,15,15,0,0,0-3.68,1.55c-.95.73-1.39,2.38-1.8,3.47s-.83,2.35-1.23,3.53c-1.54,4.62-3.18,9.36-3.82,14.2a2.3,2.3,0,0,0,1.7,2.23c1.9.39,4.4.67,6.17-.36s2-4,2.4-5.82.92-4,1.5-5.92c.3-1,.56-2,.82-3a5.66,5.66,0,0,0,.28-1.87c0-.48-.16-.94-.21-1.42,0-.13.08-.27.11-.41.11-.47.18-1.05.24-1.36a1.79,1.79,0,0,0-.27-1.31A3.5,3.5,0,0,0,55.48,98.24Z" fill="#c7d0d8" style="mix-blend-mode:multiply"/><path d="M60.55,11.81a11.62,11.62,0,0,0-5.32-1.34,31,31,0,0,0-16.95,3.64,25.16,25.16,0,0,0-8.74,8.17,30.21,30.21,0,0,0-4.17,12.43,74.6,74.6,0,0,0-.22,15.81,2.65,2.65,0,1,0,5.22-.7,33.63,33.63,0,0,1-.68-12.12,39.41,39.41,0,0,1,2.8-11.52c2.71-6.14,9.45-11,15.78-12.77a23,23,0,0,1,5.94-.9c2,0,4,.51,6,.41A.6.6,0,0,0,60.55,11.81Z" fill="#c7d0d8" style="mix-blend-mode:multiply"/><path d="M115.1,92.35a13.62,13.62,0,0,0-3.49-.29,14.7,14.7,0,0,0-1.63.09c-.32,0-.63.08-1,.14a2.16,2.16,0,0,0-.69.3,2.66,2.66,0,0,0-.63.27.76.76,0,0,0,0,1.3h0a26.28,26.28,0,0,0-2,4.34c-.43.94-.89,1.86-1.37,2.78a28,28,0,0,0,2.35-8.3c.13-.33.27-.66.4-1,3-7.9,5-16.6,3.37-25-.11-.57-.25-1.14-.4-1.7a18.22,18.22,0,0,0-3.31-8.41,8.39,8.39,0,0,0-2-1.94,4.58,4.58,0,0,0-1-.39A29,29,0,0,0,100.67,52a55.1,55.1,0,0,0-5.32-3,28,28,0,0,0-3.75-1.67,3.41,3.41,0,0,0,.53-2.89,24.79,24.79,0,0,1-.47-4.76c-.14-1.7-.33-3.4-.56-5.09A40.24,40.24,0,0,0,88.58,25,55.68,55.68,0,0,0,85,17.19a44.13,44.13,0,0,0-2.43-3.78c-.38-.52-.77-1-1.19-1.51a14.74,14.74,0,0,0-1.85-1.6c-.6-.51-1.72.17-1.18.91.39.53.67,1.15,1.07,1.7s.79,1.1,1.17,1.66a22.59,22.59,0,0,1,2,3.54,27.64,27.64,0,0,1,2.41,8c.35,3,.55,6.12.66,9.17,0,1.57.06,3.15,0,4.72a17.4,17.4,0,0,1-.32,4.53,3.51,3.51,0,0,0,3.35,4.39,1.38,1.38,0,0,0,.2,0,1.48,1.48,0,0,0,.35.21,36.32,36.32,0,0,1,5.6,2.66,20.46,20.46,0,0,1,4.38,3.93,22.22,22.22,0,0,1,5.08,10.13,28.77,28.77,0,0,1,.68,6.54c-.09.68-.19,1.36-.32,2a64.27,64.27,0,0,1-3.61,11.4c-1.33,3.36-2.76,6.66-4.34,9.9A123.14,123.14,0,0,1,85.2,115a131.7,131.7,0,0,1-13.93,16.45,32.63,32.63,0,0,1-7.9,5.91,17,17,0,0,1-8.91,1.89c-6.62-.41-13.16-4.66-18.41-8.61A68.9,68.9,0,0,1,13.4,100.26,62.76,62.76,0,0,1,9.31,79.82a40.09,40.09,0,0,1,1.08-11.66,27.81,27.81,0,0,1,8-12.89,1,1,0,0,0,0-1.38,1.08,1.08,0,0,0-1.79-.65c-5.87,5.15-9.91,12.2-12.69,19.42A42.58,42.58,0,0,0,1.91,96c1.65,8.81,6.54,16.7,12,23.64a154.85,154.85,0,0,0,19.5,19.92c4,3.5,8.08,6.86,12.25,10.13s8.61,6.81,13.17,9.88a3,3,0,0,0,3,0,2.66,2.66,0,0,0,.9-.77c.3-.11.6-.24.9-.36l.73-.31a3,3,0,0,0,1.8.93,10.55,10.55,0,0,0,3.41.08,5.45,5.45,0,0,0,2.86-1.57,25.09,25.09,0,0,0,1.8-2.18c.63-.78,1.29-1.54,2-2.28a20.53,20.53,0,0,0,2.7-3,23.46,23.46,0,0,0,2.56-2.93c2.23-2.71,4.45-5.45,6.59-8.25a2.29,2.29,0,0,0,1.58.14c2.22-.69,3.62-3,5-4.73s2.64-3.41,3.87-5.19q3.66-5.25,6.88-10.79c2.16-3.69,4-7.54,5.83-11.43s3.71-7.79,4.38-11.93a1.46,1.46,0,0,0-.45-2.6ZM71.26,152.79c-.45.58-.94,1.24-1.31,1.68-.12.14-.25.27-.38.4l-.11.07-.25.09-.19,0a2.11,2.11,0,0,0,.28-.81,2.3,2.3,0,0,0,.15-.32,1.55,1.55,0,0,0,0-.21c1.35-1.33,2.66-2.69,4-4.07,0,.13.1.26.15.4C72.79,151,72,151.85,71.26,152.79ZM83.58,132.1c-.67.62-1.33,1.26-2,1.93-2.13,2.25-4.22,4.56-6.2,6.94a96.55,96.55,0,0,1-12.66,13l-.16.08-.34.2.4-.3A40.59,40.59,0,0,0,68,148.73q4.84-5.19,9.43-10.63c1.8-2.14,3.6-4.32,5.38-6.52l.21-.19c.19-.16.37-.33.55-.5A3.78,3.78,0,0,0,83.58,132.1Zm3.85-4.17c-.16,0-.31,0-.46,0l.58-.61c.3-.31.61-.6.91-.88ZM111,97.79a8.65,8.65,0,0,0,.22-2.67,3,3,0,0,0,.42,0l.87.06C112,96.05,111.45,96.91,111,97.79Z" fill="#c7d0d8" style="mix-blend-mode:multiply"/><path d="M84.13,55.91A33,33,0,0,0,83,51.09c-.56-1.84-1.15-3.93-3.5-3.76a41.25,41.25,0,0,0-9.58,2.27,72.16,72.16,0,0,0-10.66,4.57,33.3,33.3,0,0,0-7.11,4.44l-.51-.3c-1-.62-1.95-1.19-3-1.72A44.61,44.61,0,0,0,42,53.83,36.25,36.25,0,0,0,35.2,52.3c-1.13-.13-2.27-.22-3.41-.25a12.43,12.43,0,0,0-3.13.4.58.58,0,0,0-1.12-.31c-1.65,4-2,8.37-2.25,12.64a63.77,63.77,0,0,0,.33,12.81,49.73,49.73,0,0,0,8.5,20.51,61.51,61.51,0,0,0,3.74,4.9,59.4,59.4,0,0,0,4.4,5,1.91,1.91,0,0,0,3.15-.83c.41-1.26.74-2.55,1.1-3.82a19.19,19.19,0,0,0,.85-3.73c.13-2.25-1.93-3.45-3.14-5.08A13.58,13.58,0,0,1,42.81,82.2c1.68-3.88,6.57-4.62,10.29-3.9,2.11.41,4.16,1.06,6.24,1.59a13.67,13.67,0,0,1,2.12.74,20.79,20.79,0,0,1,1.35,10.42c-.63,3.76-3.87,5.46-7,7a1.62,1.62,0,0,0-.74,1.81c.82,2.83,1.78,5.64,2.48,8.49a1.38,1.38,0,0,0,2.28.6c5.53-4.45,11-8.71,15.33-14.44a50,50,0,0,0,8.3-17.21A52.69,52.69,0,0,0,84.13,55.91Z" fill="#fff" opacity="0.66" style="mix-blend-mode:soft-light"/><path d="M77.83,13.43A29.14,29.14,0,0,0,56.54.93C47.57.14,38.65,4.07,32,9.85a35.35,35.35,0,0,0-5.13,5.46c-1.49,2-2.77,4.25-2.13,6.8a.67.67,0,0,0,1.2.16,28.42,28.42,0,0,1,3.44-5,41.92,41.92,0,0,1,4.29-4A34.27,34.27,0,0,1,43.72,7.47a26.56,26.56,0,0,1,20.87,1,22.18,22.18,0,0,1,4.76,3.2,23.69,23.69,0,0,1,2,2.09,12.57,12.57,0,0,1,1.48,2.6C74.54,19.66,80,16.44,77.83,13.43Z" fill="#fff" style="mix-blend-mode:soft-light"/><path d="M56.43,158.79c-7.35-6.09-14.78-12-21.78-18.5q-6.72-6.21-12.94-12.92c-4.17-4.5-8.25-9.06-11.35-14.38C.45,96-3.28,66.9,17.33,56c11.3-6,24.16-2,34.76,3.57a1.44,1.44,0,0,0,1.65-.21,53.67,53.67,0,0,1,16.61-8.7,43.46,43.46,0,0,1,18.3-2.21,38.22,38.22,0,0,1,16.2,5.77,25.14,25.14,0,0,1,10.06,12.58c4.47,11.87,2.65,24.6-2,36.09a95.94,95.94,0,0,1-8.62,16.43,127.61,127.61,0,0,1-8.69,11.38c-4.07,4.87-8.32,9.6-12.65,14.24q-3.18,3.4-6.41,6.73l-3.09,3.14c-1.06,1.07-2,2.28-3,3.33a1,1,0,0,0,1.45,1.45c.89-.89,1.91-1.66,2.82-2.55s2-2.09,3-3.14c2-2.13,4.08-4.26,6.1-6.42,4.1-4.39,8.12-8.85,12-13.42,3.33-3.94,6.6-8,9.54-12.19a96.39,96.39,0,0,0,9-16.4c5.16-11.89,7.56-25.09,3.58-37.71a28.34,28.34,0,0,0-9.42-14.18,38.85,38.85,0,0,0-16-7.23C78.32,43.37,62.94,48.5,51.82,57.4l1.64-.21c-10-5.13-21.93-9.14-33.06-5.3a29.21,29.21,0,0,0-13,8.93A33.13,33.13,0,0,0,1,74.85c-2.34,11-.25,22.71,4.25,32.91,5.2,11.78,14.66,20.89,23.91,29.57a292.27,292.27,0,0,0,26.73,22.19c.43.31,1-.39.57-.73Z" fill="#0d0d0d"/><path d="M86.58,47.61a43.79,43.79,0,0,1,13.19,5.73,23.36,23.36,0,0,1,8.45,9.17c3.37,7.15,2.38,15.73.66,23.17a83.12,83.12,0,0,1-11.2,26.64A167.75,167.75,0,0,1,80,134.54c-3.65,4-7.42,7.8-11.23,11.6-4,4-8,8.11-12.23,11.94-1,.91.55,2.49,1.5,1.5,3.67-3.85,7.6-7.45,11.37-11.21,3.57-3.56,7.11-7.15,10.54-10.84a186.87,186.87,0,0,0,18.58-23,82.33,82.33,0,0,0,11.86-27.35c1.75-7.77,2.74-16.41-.21-24a23.12,23.12,0,0,0-8.53-10.43c-4.21-3.05-9.57-6-14.9-6.05a.46.46,0,0,0-.12.89Z" fill="#0d0d0d"/><path d="M52.8,77.15a8.5,8.5,0,0,0-1.87-.31,7.61,7.61,0,0,0-1.94.4,12.53,12.53,0,0,0-3.34,1.7,11.64,11.64,0,0,0-4.48,6.43,11.9,11.9,0,0,0,6.11,13.44l-.38-1.43c-1.84,3.69-2.78,7.71-3.82,11.68-1.12,4.33-2.21,8.67-3.39,13a.93.93,0,0,0,.89,1.16c6.28.46,12.59.62,18.89.61a1,1,0,0,0,0-2c-6.3.15-12.6,0-18.89-.42l.88,1.16c1.08-4.17,2.24-8.32,3.37-12.48,1.06-3.88,1.76-8.14,3.88-11.61A1.07,1.07,0,0,0,48.33,97c-3.77-2.14-6.16-6.73-5-11a10.09,10.09,0,0,1,3.55-5.25,9.82,9.82,0,0,1,2.84-1.59,24.17,24.17,0,0,1,3.12-1,.49.49,0,0,0,0-.95Z" fill="#0d0d0d"/><path d="M52.58,78c1.39.59,2.89.7,4.29,1.25a8.28,8.28,0,0,1,3.53,2.47,10.47,10.47,0,0,1,2.18,6.13,8.92,8.92,0,0,1-1.75,5.62c-1.53,2-4,2.87-6.39,3.49a1.33,1.33,0,0,0-.93,1.62,235.38,235.38,0,0,1,5.59,23.9c.27,1.52,2.61.88,2.32-.64-1.51-8-3.28-16-5.36-24l-.92,1.62c5.27-1.43,9.6-6.28,9.3-11.92a12,12,0,0,0-2.88-7.34c-2-2.17-6.08-4-9-2.92a.36.36,0,0,0,0,.68Z" fill="#0d0d0d"/><path d="M56.84,78.27c-1.83-.38-3.87,1.49-4.9,2.8a13.77,13.77,0,0,0-2.54,6.4c-.59,4.12.76,8.65,4.88,10.43a1,1,0,1,0,.8-1.91c-3.22-1.33-4.55-5.33-4-8.57A13.82,13.82,0,0,1,53,82.25a7.08,7.08,0,0,1,2-2.08,13.24,13.24,0,0,0,2-1.28.37.37,0,0,0-.16-.62Z" fill="#0d0d0d"/><path d="M54.08,96a34.31,34.31,0,0,0-1.83,6.31q-.75,3.15-1.42,6.31T49.49,115c-.48,2.28-1.1,4.5-1.67,6.76-.43,1.7,2.31,2.38,2.58.71.72-4.44,1.57-8.83,2.46-13.24.42-2.12.83-4.24,1.21-6.37a34.89,34.89,0,0,0,.86-6.58c0-.42-.65-.66-.85-.23Z" fill="#0d0d0d"/><path d="M55.69,159.05a2.44,2.44,0,0,0,2.3,1.24c1.46,0,2.92-.06,4.38-.1s2.92-.09,4.38-.16a33.78,33.78,0,0,1,4.38-.18c1.75.15,1.46-3-.33-2.43a19.86,19.86,0,0,1-3.75.56c-1.32.14-2.63.27-3.95.37s-2.53.17-3.8.2c-.56,0-1.13,0-1.7,0a5.61,5.61,0,0,0-.58,0c-.35,0-.3.13-.54-.13a.5.5,0,0,0-.79.6Z" fill="#0d0d0d"/><path d="M21.81,52.47c-1.07-9.44-.6-19.16,2.66-28.16C27.22,16.69,32.05,9.43,39.6,5.94,47.77,2.16,57,.77,65.65,3.74a35.92,35.92,0,0,1,18.77,15.4,46.36,46.36,0,0,1,6.2,28c-.15,1.59,2.5,1.64,2.52,0,.08-9.11-1.32-18.38-5.56-26.54A38.69,38.69,0,0,0,69,2.86,33,33,0,0,0,56.85,0,40.23,40.23,0,0,0,42.11,2.73,28.36,28.36,0,0,0,31,9.49a35.6,35.6,0,0,0-7,10.62c-4.45,10.07-6,21.77-3.5,32.55.18.73,1.44.59,1.35-.19Z" fill="#0d0d0d"/><path d="M30.41,51.2c.48-7.05-.15-14.12,2-21,1.88-6.07,5.5-11.09,11.18-14.11s12.35-4.08,18.67-2a26.64,26.64,0,0,1,14,11.15,37.51,37.51,0,0,1,5.25,20c0,1.75,2.8,1.75,2.72,0-.59-13.13-6.78-26.76-19.5-32.1a24.53,24.53,0,0,0-19.24.06A24.92,24.92,0,0,0,31.85,26.72c-3.16,7.56-3.43,16.47-2.36,24.48a.46.46,0,0,0,.92,0Z" fill="#0d0d0d"/><path d="M80.16,143c-2.35,2.44-4.7,4.88-7.11,7.27-1.18,1.17-2.34,2.38-3.51,3.57-.59.59-1.17,1.2-1.76,1.78a14.15,14.15,0,0,0-1.88,1.83,1,1,0,0,0,.27,1.32,1,1,0,0,0,1.34-.08,13.71,13.71,0,0,0,1.61-1.94l1.66-1.87c1.11-1.26,2.23-2.5,3.31-3.78,2.18-2.55,4.39-5.06,6.59-7.58.31-.35-.18-.86-.52-.52Z" fill="#0d0d0d"/><path d="M69.18,150.43c-1.28,1.38-2.64,2.65-3.93,4l-1.87,2-1,1c-.22.23-.49.67-.81.77a.81.81,0,0,0,.44,1.56c.88-.26,1.44-1.2,2-1.87L66,155.62c1.28-1.53,2.47-3.12,3.77-4.63.32-.38-.21-.93-.55-.56Z" fill="#0d0d0d"/><path d="M114.15,87.67a39.81,39.81,0,0,1-1.74,5.63c-.34.88-.72,1.75-1.13,2.6-.21.43-.42.85-.64,1.27a5.34,5.34,0,0,0-.7,1.49.88.88,0,0,0,1.45.85,4.47,4.47,0,0,0,.8-1.43c.19-.45.38-.89.56-1.34.38-.94.72-1.89,1-2.86a40.21,40.21,0,0,0,1.35-5.94c.09-.62-.82-.91-1-.27Z" fill="#0d0d0d"/><path d="M111.66,90.75,111.22,92l-.22.6c-.08.24-.23.5-.14.75V93.1c0,.26-.21.74.11.88s.52-.34.64-.56l-.15.15a.69.69,0,0,0,.29-.4c0-.1.06-.2.1-.3l.2-.63.42-1.27a.43.43,0,0,0-.3-.52.42.42,0,0,0-.51.3Z" fill="#0d0d0d"/><path d="M48.21,88.5a16.58,16.58,0,0,1,.44-2.69,13.66,13.66,0,0,1,.8-2.57A10.39,10.39,0,0,1,50.74,81a9.92,9.92,0,0,1,.94-1,11.46,11.46,0,0,1,1.1-.71c1-.67.07-2.31-1-1.63a4.76,4.76,0,0,0-.67.48c-.18.17-.31.38-.48.55a12.23,12.23,0,0,0-1,1.13,11.42,11.42,0,0,0-1.54,2.61,12.73,12.73,0,0,0-1,4.49c0,.52.08,1,.12,1.55a.49.49,0,0,0,1,0Z" fill="#0d0d0d"/><path d="M45.56,86.1a9.7,9.7,0,0,1,1.36-3.95,9,9,0,0,1,1.2-1.61c.24-.26.51-.49.73-.76a1.92,1.92,0,0,0,.14-.29c0-.12-.08,0,.08-.09a1.06,1.06,0,0,0,.24-.41.22.22,0,0,0-.22-.28,1.69,1.69,0,0,0-.44.12,3.35,3.35,0,0,0-.45.19,3.89,3.89,0,0,0-.86.81A10.08,10.08,0,0,0,46,81.7a9.79,9.79,0,0,0-1.11,4.4c0,.41.59.4.63,0Z" fill="#0d0d0d"/><path d="M50.29,101.5c-1,3.34-2,6.68-2.91,10-.47,1.68-.93,3.36-1.42,5a37.39,37.39,0,0,0-1.35,5.06.87.87,0,0,0,1.67.46,38.21,38.21,0,0,0,1.21-5.1c.37-1.7.76-3.4,1.15-5.1.79-3.41,1.49-6.83,2.22-10.25a.29.29,0,0,0-.57-.15Z" fill="#0d0d0d"/><path d="M45,112.93c-.5,1.48-1,2.95-1.48,4.44l-.68,2.15a4.54,4.54,0,0,0-.52,2.33.61.61,0,0,0,1,.27c.55-.54.57-1.55.73-2.27l.5-2.19c.35-1.53.65-3,1-4.58a.27.27,0,0,0-.51-.15Z" fill="#0d0d0d"/><path d="M28.24,51.33c-.18-2.75-.53-5.47-.48-8.23a43.47,43.47,0,0,1,.93-8.27,38.63,38.63,0,0,1,2.59-7.92c.57-1.26,1.21-2.48,1.89-3.68a22.22,22.22,0,0,0,1.89-3.31c.14-.37-.35-.56-.6-.35a12.21,12.21,0,0,0-2.32,3.3,42.62,42.62,0,0,0-1.93,3.89,46.61,46.61,0,0,0-2.6,8c-1.22,5.27-1.69,11.44-.06,16.68.12.36.72.31.69-.1Z" fill="#0d0d0d"/><path d="M36.42,18.47l.26-.11H36a.69.69,0,0,0,.4.11,1.14,1.14,0,0,0,.41-.12l.21-.09-.63.08a.87.87,0,0,0,.72-.12l.15-.1a2.44,2.44,0,0,0,.31-.22.94.94,0,0,0,.24-.9l-.09.66c0-.09.11-.17.16-.25A.83.83,0,0,0,38,17v0a1.14,1.14,0,0,0-.1-.36l0,.37a1.6,1.6,0,0,0,0-.23.36.36,0,0,0-.28-.36.78.78,0,0,0-.22,0l.24.07a.56.56,0,0,0-.26-.11.81.81,0,0,0-.31,0,.32.32,0,0,0-.19.05l-.12.05-.28.12h.86a1,1,0,0,0-.46-.12.9.9,0,0,0-.47.13,1.14,1.14,0,0,0-.28.25c-.21.23-.45.46-.42.8l.11-.41-.11.18a.77.77,0,0,0,0,.8v-.66l-.14.23a.58.58,0,0,0,.09.69.77.77,0,0,0,.25.14.61.61,0,0,0,.44-.05Z" fill="#0d0d0d"/><path d="M84.83,24.73a40.66,40.66,0,0,1,2.36,10.69,89.79,89.79,0,0,1,.61,10.87c0,1.35,2.18,1.31,2.06,0-.34-3.77-.47-7.53-1-11.28a41,41,0,0,0-3.24-10.6c-.18-.42-.93-.12-.75.32Z" fill="#0d0d0d"/><path d="M83,21.21l.24.65a2.87,2.87,0,0,0,.18.4.69.69,0,0,0,.07.15.53.53,0,0,0,.35.27l-.18-.11a3.85,3.85,0,0,0,.35.35.19.19,0,0,0,.32-.13,4.38,4.38,0,0,0,0-.51l-.06.21a.67.67,0,0,0,0-.6,3,3,0,0,0-.1-.32L84,20.94a.56.56,0,0,0-.23-.31.52.52,0,0,0-.76.58Z" fill="#0d0d0d"/><path d="M6.18,77.34a26.79,26.79,0,0,1,2.93-8.45,24.82,24.82,0,0,1,2.48-3.72c.44-.55.91-1.08,1.4-1.59s1.22-1,1.81-1.55-.3-1.56-1-1a22.2,22.2,0,0,0-1.66,1.7c-.55.57-1.07,1.17-1.57,1.79A25,25,0,0,0,8,68.41a23.58,23.58,0,0,0-2.56,8.84c0,.39.64.49.7.09Z" fill="#0d0d0d"/><path d="M16.14,60.91l.36-.16-.45.12a1.77,1.77,0,0,0,1.05-.49.9.9,0,0,0,.2-.19l.09-.11.22-.29a.93.93,0,0,0,.12-.27,1,1,0,0,0-.1-.73l.09.22h0v.47a2.33,2.33,0,0,0,.11-.51.71.71,0,0,0-.29-.58.71.71,0,0,0-.63-.13,4.46,4.46,0,0,0-.5.22l.69-.09c-.11,0,0-.06-.27,0a1.17,1.17,0,0,0-.38.08.79.79,0,0,0-.31.2l0,0-.05,0-.21.18.2-.16a1.94,1.94,0,0,0-.31.26l-.12.13-.12.13a1.18,1.18,0,0,0-.31.53l.23-.39-.27.28a.82.82,0,0,0-.24.57.83.83,0,0,0,.17.49.81.81,0,0,0,.43.3l.21,0a.72.72,0,0,0,.41-.11Z" fill="#0d0d0d"/><path d="M9.17,77.22a1.16,1.16,0,0,0,0-.18l-.14.23a.85.85,0,0,0,.24-.35l0,.07,0-.08a1.75,1.75,0,0,0,.17-.43l.09-.27L9.63,76s.1-.19,0,0a7.33,7.33,0,0,0,.3-.72c-.09.23,0,0,0,0l.07-.15a.94.94,0,0,0,.13-.44.87.87,0,0,0-.13-.44l.07.55a1.53,1.53,0,0,0,.07-.47.59.59,0,0,0-.22-.45.58.58,0,0,0-.51-.1,1.44,1.44,0,0,0-.52.33l.5-.21a.89.89,0,0,0-.77.46l-.17.31a3.32,3.32,0,0,0-.29.76,5.66,5.66,0,0,0-.12.81,1.49,1.49,0,0,0,0,.47s0,.11,0,.17a1,1,0,0,0,.21.35l-.16-.38c0,.11,0,.22,0,.33a.51.51,0,0,0,1,0Z" fill="#0d0d0d"/><path d="M99.88,69.38a20.35,20.35,0,0,1,.44,4.19,12.67,12.67,0,0,1-.17,2c-.11.68-.51,1.51-.31,2.18a.74.74,0,0,0,1.34.18,2.1,2.1,0,0,0,.24-1.16c0-.36,0-.73,0-1.1,0-.74,0-1.48,0-2.22a22.14,22.14,0,0,0-.62-4.36c-.14-.58-1-.33-.89.25Z" fill="#0d0d0d"/><path d="M99.23,81.34a3.51,3.51,0,0,1,0,.56l0-.22c0,.13-.1.25-.12.38a6,6,0,0,0-.11.61.92.92,0,0,0,.47.8h0l-.32-.32,0,0-.12-.43c0,.1,0,.2,0,.3v.13a1,1,0,0,0,0,.3l0-.17v0a.72.72,0,0,0,.08.32.61.61,0,0,0,.23.22.64.64,0,0,0,.63,0,2.11,2.11,0,0,0,.66-.7l-.31.32,0,0-.45.13h0l.24,0a.65.65,0,0,0,.32-.16.55.55,0,0,0,.17-.17.69.69,0,0,0,.16-.32.65.65,0,0,0,0-.2,3.19,3.19,0,0,0,0-.42,2.06,2.06,0,0,0-.11-.61l0,.22a3.93,3.93,0,0,0-.15-.76.75.75,0,0,0-1.48.2Z" fill="#0d0d0d"/></g></g></g></svg>