<svg xmlns="http://www.w3.org/2000/svg" viewBox="0 0 246.48 65.49"><g style="isolation:isolate"><g id="Layer_2" data-name="Layer 2"><g id="OBJECTS"><path d="M242.62,13.38a4.06,4.06,0,0,0-2.36-1.24c-.85-.22-1.66-.53-2.51-.78a17.21,17.21,0,0,1-4.29-2.14,13,13,0,0,1-1.63-1.33,9.61,9.61,0,0,1-1.49-1.5c-.47-.62-.93-1.24-1.39-1.87a2.45,2.45,0,0,0-1.09-.87,15.52,15.52,0,0,0-.6-2.27,1.57,1.57,0,0,0-2.45-.82,1.47,1.47,0,0,0-.54.79c-1.59.29-2.89,3-3.35,4.21a18.16,18.16,0,0,0-1.12,6.33,33.44,33.44,0,0,0,.14,3.47,23.24,23.24,0,0,0,.4,3.55,2.67,2.67,0,0,0,.3.74,1.77,1.77,0,0,0,3.23,1.28l.24-.38a.6.6,0,0,0,.33-.1c1.12-.72,2.19-1.51,3.29-2.25.17,0,.34,0,.52,0a4.29,4.29,0,0,0,1.56-.3c.93-.35,1.79-.8,2.68-1.21a2.53,2.53,0,0,0,.9-.86h0a8.49,8.49,0,0,0,1.81-.33l1.53-.36a1.09,1.09,0,0,0,.55-.36,5.16,5.16,0,0,0,1.54-.19,1,1,0,0,0,.21-.11l.53.15a3.84,3.84,0,0,0,2.71,0A.93.93,0,0,0,242.62,13.38Z" transform="translate(-0.81)" fill="#d91e50"/><path d="M71.87,28.72a4.28,4.28,0,0,0-1.68.76,1.39,1.39,0,0,0-.55.08Q61.33,32.5,53.05,35.5,49,37,44.89,38.47c-1.32.49-2.65,1-4,1.48a19.06,19.06,0,0,0-4.14,1.77h0a1.1,1.1,0,0,0-.42,1.06,7.08,7.08,0,0,0-.64.83l-.12.23-.1.14c-.61.83-1.17,1.7-1.76,2.55Q31.92,49.14,30,51.7c-2.47,3.38-5,6.74-7.68,9.95a1.5,1.5,0,0,0-.34,1.2,1,1,0,0,0,.13,1.29,1.08,1.08,0,0,0,.74.31,1.15,1.15,0,0,0,.74-.31l.18-.14.07,0,.07-.05.11,0,2.4-1.28a1,1,0,0,0,.57.09c6.72-1.06,13.45-2.09,20.17-3.19a38.77,38.77,0,0,0,4.14-.8A11.1,11.1,0,0,0,55,57.23a14.19,14.19,0,0,0,2.86-2.88,15.13,15.13,0,0,0,1.93-3.67A1,1,0,0,0,59,49.22q2.1-3.34,4.46-6.53c1.56-2.1,3.17-4.17,4.87-6.16.89-1,1.78-2.09,2.63-3.16s1.93-2.18,2.18-3.4A1,1,0,0,0,71.87,28.72Z" transform="translate(-0.81)" fill="#d91e50"/><path d="M78.42,20.83l-.21-.17a1,1,0,0,0-.54-.15l-.46,0H77a1,1,0,0,0-.45.09l-.3.07a1.15,1.15,0,0,0-.17.06.84.84,0,0,0-.34-.17c-4.88-1.31-9.76-2.6-14.62-4-2.4-.66-4.76-1.42-7.14-2.14a63.15,63.15,0,0,0-7.15-2c-4.85-.84-9.17.94-13.67,2.52C28.44,16.59,23.69,18.1,19,19.78c-2.61.94-5.25,1.85-7.9,2.69-1.32.42-2.66.8-4,1.3a8.68,8.68,0,0,0-3.34,1.7c-.85.34-1.32,1.57-.27,2A60.24,60.24,0,0,0,11.24,30c2.75.77,5.54,1.24,8.33,1.82l.25.05s0,0,0,0a1,1,0,0,0,.69,1c.41.17.79.41,1.21.56s.85.26,1.26.39c.79.24,1.57.45,2.37.65l1.19.31c.41.11.81.1,1.22.17a11,11,0,0,0,1.4.13c.38,0,.75-.06,1.12-.09l4.39,1.7a.63.63,0,0,0,.24.48c1.1,1,3.09-.24,4.19-.75l5.22-2.4q5.14-2.36,10.45-4.32c3.51-1.31,7.06-2.53,10.65-3.62,1.76-.53,3.52-1,5.3-1.52s3.55-.63,5-1.65l.5-.1a.76.76,0,0,0,.45-.27,1,1,0,0,0,.36.07h.7a1.07,1.07,0,0,0,1.06-1.06A1,1,0,0,0,78.42,20.83Z" transform="translate(-0.81)" fill="#d91e50"/><path d="M222,9.23c-12.53-.66-25-1.53-37.58-1.49q-12.93,0-25.86.93c-1.77,0-3.53.12-5.29.22-5.53.29-11.06.7-16.56,1.36-11.06,1.32-22.08,3.07-33,5.39-3,.63-5.94,1.41-8.86,2.27-1.27.38-2.52.81-3.76,1.25C85,20.46,78.92,21.91,73,23.73c-13.46,4.08-27,8.4-39.83,14.2-2.13,1-.6,4.69,1.62,3.83,11.58-4.47,23.07-9,34.91-12.75,6-1.91,12-3.52,18.06-5.29s11.9-3.45,18-4.77a340.78,340.78,0,0,1,36.8-5.6c3.09-.32,6.19-.62,9.29-.88,2.9-.18,5.79-.32,8.69-.49,1.58-.1,3.2-.19,4.77-.42q7.28-.39,14.57-.5c13.85-.2,27.94,0,41.68,1.82C224.13,13.24,224.65,9.37,222,9.23Z" transform="translate(-0.81)" fill="#ff8b4a"/><path d="M242.63,13.2a16.21,16.21,0,0,0-5.16-.06,17.62,17.62,0,0,1-3.14-.6,21.89,21.89,0,0,1-6.46-3.28.42.42,0,0,0-.51,0c-.26.06-.53.09-.78.17s-.6.2-.9.28l-.9.25c-.31.1-.61.22-.92.33a.91.91,0,0,0-.58.64c-12.37-.9-24.71-1.76-37.13-1.78-12.72,0-25.45.58-38.12,1.81A392.6,392.6,0,0,0,73.86,25.43,306.79,306.79,0,0,0,33.74,40.06c-.76.34-.22,1.66.57,1.35q5.77-2.27,11.57-4.48a10,10,0,0,0-1.05.9c-1.29.42-2.58.86-3.83,1.38a18.07,18.07,0,0,0-3.92,2.22c-1,.74-2.4,1.77-2.67,3.06a.66.66,0,0,0,.53.82c-.25.15-.5.3-.73.47a24.62,24.62,0,0,0-4.5,4.73c-1.37,1.7-3.41,3.55-4.13,5.64-.13.38.32.62.62.48,1.95-.93,3.51-3.1,5-4.61a30.32,30.32,0,0,1,5-4.5c.29-.18.6-.35.9-.52-.49.71-1,1.42-1.44,2.14a51.62,51.62,0,0,0-3.59,5.6c-.15.32.19.8.54.54a22,22,0,0,0,4-4.51c1.34-1.7,2.58-3.48,3.94-5.16.13-.17.27-.33.4-.49l1-.43,5.29-2.27a72.42,72.42,0,0,0-5.81,8.21c-.41.68.59,1.22,1,.61a110.15,110.15,0,0,1,7.17-9c.46-.51.93-1,1.4-1.5l9.19-3.92C59.35,38,58.46,39,57.6,40.16a90.88,90.88,0,0,0-8.46,13.21.38.38,0,0,0,.65.38c3.11-4.21,6.1-8.53,9.37-12.62a61.48,61.48,0,0,1,5-5.6l.64-.6c1.34-.57,2.69-1.14,4-1.73,1.06-.46,2.11-.93,3.15-1.43a7.56,7.56,0,0,0,1.69-1c.39-.3.69-.79,1.09-1.06a.61.61,0,0,0-.47-1.1c-.47.1-1,0-1.51.05a8.24,8.24,0,0,0-1.87.57c-.63.24-1.24.51-1.86.77l.13-.19c.22-.3-.19-.61-.47-.47a14.61,14.61,0,0,0-3.18,1.79c-1.87.44-3.72.94-5.57,1.55L57,33.7a.43.43,0,0,0-.44-.23,4.39,4.39,0,0,0-2.28,1.17l-4.11,1.45-1.75.58,0-.08a.43.43,0,0,0-.33-.52c7.2-2.72,14.45-5.31,21.82-7.59,12.09-3.74,24.33-6.95,36.73-9.53a387,387,0,0,1,75.12-8.13,315,315,0,0,1,41.2,1.9c-.27.61-.57,1.21-.87,1.8-.06.1-.11.2-.16.3a.75.75,0,0,1-.06-.13,1.24,1.24,0,0,0-2.11,0,3.12,3.12,0,0,0-.32,1.4,10,10,0,0,0,.08,1.09c.07.81.18,1.61.31,2.41a1.31,1.31,0,0,0,.78.91,1.25,1.25,0,0,0,1.56,1.07,2.86,2.86,0,0,0,1.27-1,10,10,0,0,0,1-1.1h0a1,1,0,0,0,.71-.11,43.84,43.84,0,0,1,8.37-3.72,32.73,32.73,0,0,1,4.37-1.06c1.53-.26,3.06-.31,4.61-.46C243,14.15,243.18,13.31,242.63,13.2Z" transform="translate(-0.81)" fill="#c7d0d8" style="mix-blend-mode:multiply"/><path d="M79.06,21a7.82,7.82,0,0,0-3.37-.11c-1.44.31-2.87.66-4.3,1L66.8,23c-2.91-.44-5.81-.91-8.69-1.64C53.41,20.16,48.74,18.87,44,18a.49.49,0,0,0-.27.95c4.75,1.85,9.63,3.31,14.5,4.79.87.26,1.74.52,2.62.76-2.59.67-5.18,1.36-7.75,2.08a29.84,29.84,0,0,1-5.63-.95c-2-.5-3.92-1.18-5.85-1.82-1-.32-1.94-.68-2.92-1s-2-.56-2.93-.91c-.4-.15-.66.49-.29.68,1,.55,2,1.21,3.08,1.72s2.13,1,3.21,1.45c1.73.74,3.46,1.48,5.22,2.14-1.24.33-2.49.68-3.73,1.08-1.85.6-3.68,1.3-5.55,1.89s-3.74.11-5.68-.41A185.57,185.57,0,0,1,10.58,23.9c.71-.37,1.41-.75,2.09-1.16.45-.28.16-1.11-.37-.89-1.15.49-2.26,1-3.38,1.62-.48.25-.27.87.14,1.05l.79.33c-2.79-.59-5.59-.56-7.73,1.37a.53.53,0,0,0,.64.84l.56-.3a1.33,1.33,0,0,0,.51.81h0a8.15,8.15,0,0,0,3.35.82l2.68.38a25.25,25.25,0,0,0,5,1.7l.17,0a18,18,0,0,0,4.27,1.95c1.74.62,3.48,1.21,5.25,1.73s3.53,1,5.32,1.47c.89.23,1.78.44,2.68.65a7.5,7.5,0,0,0,3,.38,1.06,1.06,0,0,0,.74-.5c4.21-1.32,8.41-2.69,12.57-4.16,2.24-.79,4.49-1.57,6.7-2.42l.4-.16a8,8,0,0,0,1-.17,9.14,9.14,0,0,0,2.71-1.51l.09-.08c.26-.18.52-.37.76-.57l1.5-.34,5-1.15a10,10,0,0,0,4.84-1s.05-.05.08-.08c2.54-.51,5.16-1,7.26-2.51C79.53,21.73,79.57,21.08,79.06,21Z" transform="translate(-0.81)" fill="#c7d0d8" style="mix-blend-mode:multiply"/><path d="M66.27,39.26c-.78.82-1.64,1.55-2.37,2.42s-1.34,1.66-2,2.51c-1.37,1.83-2.74,3.65-4.13,5.46-.66.87-1.32,1.75-2,2.6a15.17,15.17,0,0,1-1.94,2.41c-.72.6-2,.59-2.88.73L47.58,56c-4.36.77-8.7,1.65-13,2.58-2.25.49-4.48,1-6.71,1.55-1.48.36-3,.67-4.45,1.15l.81-1.42a.45.45,0,0,0-.77-.45c-.67.91-1.31,1.85-2,2.73a.69.69,0,0,0,.48,1.17,33.9,33.9,0,0,0,7.05-1L35.73,61c4.61-.85,9.22-1.64,13.84-2.41,1.8-.31,4.76-.23,6-1.89s2.36-3.47,3.6-5.16c1.35-1.84,2.7-3.67,4.07-5.5.68-.91,1.38-1.82,2-2.76s1.27-2.24,1.92-3.37A.55.55,0,0,0,66.27,39.26Z" transform="translate(-0.81)" fill="#fff" style="mix-blend-mode:soft-light"/><path d="M68,18.13c-1.92-1.24-4.56-1.46-6.77-1.93s-4.51-.91-6.76-1.42-4.82-1-7.24-1.47c-2.06-.4-4-1-6.08-.56-4.53,1-9,2.44-13.42,3.84-2.19.69-4.37,1.4-6.55,2.11-1.09.36-2.17.73-3.26,1.11a7.86,7.86,0,0,0-2.91,1.4.49.49,0,0,0,.21.81c1.9.32,4.22-.66,6-1.15Q24.63,20,28,19.12c2.22-.57,4.44-1.14,6.66-1.69a63.62,63.62,0,0,1,6.53-1.5,23.54,23.54,0,0,1,6.44-.07c2.29.31,4.57.68,6.86,1s4.54.8,6.8,1.25c2.09.42,4.39,1.24,6.53,1A.53.53,0,0,0,68,18.13Z" transform="translate(-0.81)" fill="#fff" style="mix-blend-mode:soft-light"/><path d="M226.87,1.68a1.49,1.49,0,0,0-2-.8,1.54,1.54,0,0,0-.66.55A10.2,10.2,0,0,0,221,4.35a9.67,9.67,0,0,0-1.19,2.07c-.27.68-.77,2.11.07,2.57s1.59-.81,2-1.44c.2-.3.38-.62.58-.93a4.56,4.56,0,0,1,.27-.39A1.24,1.24,0,0,1,222.9,6c-.21.23,0,0,0,0a10.08,10.08,0,0,1,1.44-1.48s.18-.13.21-.17l0,0L225,4a4.91,4.91,0,0,1,.5-.28,1.29,1.29,0,0,0,.39,0A1.5,1.5,0,0,0,226.87,1.68Z" transform="translate(-0.81)" fill="#fff" style="mix-blend-mode:soft-light"/><path d="M237.6,11.58c-.46-.22-.93-.42-1.36-.67a5,5,0,0,1-1.15-1,6,6,0,0,0-1.2-1.05q-.69-.4-1.35-.87c-.82-.57-1.58-1.21-2.38-1.82s-1.35-1.46-2.22-1.86a.22.22,0,0,0-.33.18c-.06,1,.72,2,1.27,2.76a10.6,10.6,0,0,0,2.44,2.38,6.64,6.64,0,0,0,3,1.5,9.13,9.13,0,0,1,1.56.29c.53.17,1,.39,1.57.57A.22.22,0,0,0,237.6,11.58Z" transform="translate(-0.81)" fill="#fff" style="mix-blend-mode:soft-light"/><path d="M37.43,41.71c5.79-2.09,11.45-4.51,17.23-6.65s11.63-4.16,17.53-6c11.66-3.68,23.52-6.79,35.49-9.3a371.6,371.6,0,0,1,73.45-7.91q10.29-.09,20.58.42c3.45.17,6.91.39,10.36.66s6.88.76,10.33.9c.57,0,.72-.91.14-1-3-.53-6.08-.69-9.12-.94s-6-.45-9-.62q-9.25-.52-18.52-.57A373.17,373.17,0,0,0,76,26.65q-10,3-19.73,6.6A178.34,178.34,0,0,0,37.2,41.17c-.3.15-.09.66.23.54Z" transform="translate(-0.81)" fill="#0d0d0d"/><path d="M37.91,36.37A389.89,389.89,0,0,1,108,15a371.4,371.4,0,0,1,73.24-7.27q10.28,0,20.56.59c3.34.19,6.69.43,10,.71,3.61.3,7.15.81,10.73,1.31a.71.71,0,1,0,.19-1.4c-3.11-.28-6.22-.42-9.33-.69s-6.22-.51-9.34-.7q-9.12-.55-18.27-.67A373.6,373.6,0,0,0,76.48,22,337.06,337.06,0,0,0,37.71,35.88c-.27.12-.08.6.2.49Z" transform="translate(-0.81)" fill="#0d0d0d"/><path d="M222.66,10.27s.13-.07,0,0h.12c-.1,0,0,0,0,0s.13,0,.07,0,.06,0,.06,0l.1.07s0,0,0,0l.1.1c.06.06,0,0,0,0s.1.16.14.24,0,0,0,0a.56.56,0,0,1,0,.12.83.83,0,0,1,0,.15v0a2.26,2.26,0,0,1,0,.26.57.57,0,0,1,0,.13c0,.15,0-.08,0,.07a1.82,1.82,0,0,1-.07.25c0,.14,0-.05,0,.07l-.06.12-.07.11,0,.05-.18.17,0,0-.11.06-.26.14.27-.08c-.16,0,.21.1.13,0a.92.92,0,0,0-.27-.08c-.1,0-.21,0-.31,0h-.17c-.31,0,.13,0-.05,0a1,1,0,0,0-.39.05.75.75,0,0,0-.54.62.74.74,0,0,0,.36.74,1.24,1.24,0,0,0,.57.12,1.34,1.34,0,0,0,.62-.17,1,1,0,0,0,.41-.34.49.49,0,0,0,0-.11c.09-.22,0,.06,0,.09s-.07,0,0,0l.08-.05a2.64,2.64,0,0,0,1-1.08,2.37,2.37,0,0,0-.56-2.78,1.6,1.6,0,0,0-.81-.32,1.13,1.13,0,0,0-.82.28.46.46,0,0,0,0,.63.47.47,0,0,0,.62.13Z" transform="translate(-0.81)" fill="#0d0d0d"/><path d="M220,9.49a15.46,15.46,0,0,1,1.61-4.57,9,9,0,0,1,3.07-3.6c1.86-1,2.59,2,2.81,3.22a17.32,17.32,0,0,1-.09,5.47,24.15,24.15,0,0,1-2.87,9.23c-.44.74-1.15,2.15-2.13,2.16-1.17,0-1.47-1.38-1.65-2.27a19.44,19.44,0,0,1,0-5.85c.1-1-1.54-1-1.61,0a18.27,18.27,0,0,0,.72,5.69c.31,1.17.9,2.64,2.21,3s2.12-.83,2.78-1.75a17,17,0,0,0,2.2-4.49,28.56,28.56,0,0,0,1.46-10.57c-.15-2.1-1.28-6.51-4.34-4.76a10.55,10.55,0,0,0-3.48,4,11.86,11.86,0,0,0-1.47,5c0,.46.73.57.81.11Z" transform="translate(-0.81)" fill="#0d0d0d"/><path d="M226.42,1.11a21.82,21.82,0,0,0,8.64,9.29,36.94,36.94,0,0,0,5.68,2.88,21.3,21.3,0,0,0,6.17,1.79c.49,0,.49-.63.11-.79-1.85-.77-3.83-1.22-5.72-1.93a35.45,35.45,0,0,1-5.62-2.71A24.34,24.34,0,0,1,226.89.83c-.18-.31-.61,0-.47.28Z" transform="translate(-0.81)" fill="#0d0d0d"/><path d="M223,22.05c1.81-1,3.47-2.3,5.3-3.3a35.06,35.06,0,0,1,5.61-2.48,27.38,27.38,0,0,1,6.38-1.35c2.22-.19,4.46.22,6.65-.06.17,0,.3-.27.1-.36-1.92-.91-4.23-.74-6.3-.55a32.24,32.24,0,0,0-6.86,1.45A36.6,36.6,0,0,0,228,17.91a25.27,25.27,0,0,0-5.46,3.62c-.28.26.08.71.41.52Z" transform="translate(-0.81)" fill="#0d0d0d"/><path d="M229.63,11.29a11,11,0,0,1-.5,2.45c-.18.66-.39,1.33-.63,2a9.21,9.21,0,0,1-.88,1.78c-.39.58-1,1-1.33,1.56a.33.33,0,0,0,.37.48,2,2,0,0,0,.86-.63,9.62,9.62,0,0,0,.69-.86,9.46,9.46,0,0,0,1-2,14.82,14.82,0,0,0,.63-2.16,7.2,7.2,0,0,0,.2-2.65c0-.26-.44-.19-.44.06Z" transform="translate(-0.81)" fill="#0d0d0d"/><path d="M231.58,13.83a5.2,5.2,0,0,1-.47,1.68,5.77,5.77,0,0,1-.44.76c-.19.25-.46.48-.41.83,0,.1.13.16.22.17.36,0,.57-.39.73-.66a6.42,6.42,0,0,0,.46-.86,6.5,6.5,0,0,0,.51-1.92.31.31,0,0,0-.3-.3.31.31,0,0,0-.3.3Z" transform="translate(-0.81)" fill="#0d0d0d"/><path d="M223.71,11.13a3.35,3.35,0,0,1-.49,1.4,1.47,1.47,0,0,1-.4.45l-.33.18c-.07,0-.06,0,0,0-.08,0-.06,0,0,0h-.19l.41.11a1.12,1.12,0,0,0-.51-.15,1.28,1.28,0,0,0-.34.06,1.8,1.8,0,0,1-.32.06l.26,0-.64.07.27,0a2.85,2.85,0,0,0-1.27.19,1.11,1.11,0,0,0-.53,1.2,1,1,0,0,0,.67.68,1.06,1.06,0,0,0,.61,0l-.27,0,.46-.08-.27,0c.28,0,.55,0,.84-.08a2.63,2.63,0,0,0,.8-.32,1.34,1.34,0,0,0,.51-.43c.1-.23.12-.29.07-.18s0,.06,0,0l0-.06,0,0a.38.38,0,0,1,.11-.11,1.13,1.13,0,0,0,.1-.13,2.11,2.11,0,0,0,.26-.35,4.19,4.19,0,0,0,.58-1.25,2.73,2.73,0,0,0,0-1.39.21.21,0,0,0-.4.06Z" transform="translate(-0.81)" fill="#0d0d0d"/><path d="M35.18,37.12c-1.63.66-3.55,2.45-2.17,4.32,1.52,2.08,4.45.37,6.19-.37,3.12-1.33,6.25-2.62,9.41-3.84,3-1.16,6.15-2.06,9-3.43.34-.16.1-.66-.24-.58a52.26,52.26,0,0,0-6.63,2.25c-2.27.83-4.52,1.7-6.76,2.59-2.07.82-4.11,1.68-6.16,2.55-1,.45-2.62,1.35-3.75.6-1.65-1.1.31-3,1.27-3.64.22-.14.08-.57-.2-.45Z" transform="translate(-0.81)" fill="#0d0d0d"/><path d="M35.34,38.91a3.17,3.17,0,0,1,.12.44c0,.16.1.31.15.47s.06.3.09.46h0v.15a1.92,1.92,0,0,1,0,.24s0-.06,0,0l0,.1-.06.19c0-.05,0-.06,0,0l-.06.1a.41.41,0,0,1-.05.09s0,0,0,0l-.15.15s0,0,0,.06l-.05,0,0,0-.09.05-.07,0a.45.45,0,0,0-.2.21.49.49,0,0,0,.17.65c.4.23,1-.1,1.21-.42a2.17,2.17,0,0,0,.22-2.36,2.37,2.37,0,0,0-.35-.52,2.88,2.88,0,0,0-.46-.39c-.15-.12-.37.08-.32.25Z" transform="translate(-0.81)" fill="#0d0d0d"/><path d="M83.2,24.85c-2,.81-4.08,1.16-6.11,1.82a9.92,9.92,0,0,0-4.86,3.68C69,34.61,65.9,39.06,62.86,43.49c-1.54,2.24-3,4.49-4.52,6.76A60.8,60.8,0,0,1,54,56.78,5,5,0,0,1,51,58.22c-1.37.3-2.74.55-4.11.81l-8.24,1.5-9.22,1.65c-3.14.56-6.35,1-9.45,1.73l.9,1.18c2.4-4,5.25-7.82,8-11.57s5.77-7.68,8.75-11.44c.49-.63-.38-1.53-.9-.9Q32.22,46.7,28,52.44c-2.89,3.9-5.57,8-8.5,11.84a.8.8,0,0,0,.69,1.2c5.51-.67,11-1.94,16.47-2.93L45.13,61,49,60.34a30.1,30.1,0,0,0,4.16-.7c2-.68,3.08-2.74,4.16-4.45,1.48-2.36,3-4.69,4.57-7,3.05-4.57,6.16-9.11,9.38-13.56,1.63-2.26,3.14-5,5.71-6.26,2.13-1.07,4.73-1.34,6.44-3.12.15-.15,0-.48-.23-.39Z" transform="translate(-0.81)" fill="#0d0d0d"/><path d="M83,19.93c-2.49,1.4-5.26.8-7.87.13s-5.3-1.53-7.94-2.31c-5.48-1.61-10.94-3.28-16.43-4.82a22.53,22.53,0,0,0-7.59-1.1,34,34,0,0,0-7.93,1.93q-8,2.53-16,5.37-9.09,3.21-18,6.8a.58.58,0,0,0,0,1.11C12.13,31.17,23.5,33.83,34.5,37.67c.77.27,1.11-1,.34-1.22C23.75,32.94,12.4,30.08,1.52,25.93V27C12.2,22.76,23,18.79,34,15.27A54.42,54.42,0,0,1,42,13a20.73,20.73,0,0,1,8.8,1c5.58,1.56,11.14,3.22,16.7,4.83a78.93,78.93,0,0,0,8.88,2.45,9.63,9.63,0,0,0,6.88-1,.17.17,0,0,0-.17-.29Z" transform="translate(-0.81)" fill="#0d0d0d"/><path d="M50.66,53.91C54.11,48.18,58.59,43.16,63,38.16c1.06-1.19,2.13-2.36,3.21-3.53a18,18,0,0,1,3.58-3.46,23.34,23.34,0,0,1,4.72-1.84c1.55-.52,2.95-1.18,4.44-1.83.54-.24.12-1-.38-.89-3.24.55-6.81,1.29-9.62,3.12A19.53,19.53,0,0,0,65.5,33c-1.19,1.27-2.35,2.57-3.51,3.87A97.13,97.13,0,0,0,50.06,53.57a.35.35,0,0,0,.6.34Z" transform="translate(-0.81)" fill="#0d0d0d"/><path d="M43.06,51.34q3-3.89,6.29-7.55c2-2.25,3.9-4.64,6-6.77s5.55-3,8.23-4.05c1.41-.58,2.81-1.18,4.21-1.78a16.11,16.11,0,0,0,4-2.05.43.43,0,0,0-.31-.73A17,17,0,0,0,67,29.9q-2.22.92-4.42,1.89c-1.51.67-3,1.32-4.54,2a10.15,10.15,0,0,0-3.22,2.37A145.5,145.5,0,0,0,42.63,51.09c-.19.26.24.5.43.25Z" transform="translate(-0.81)" fill="#0d0d0d"/><path d="M33.76,54.91c2.12-2.68,4.36-5.29,6.57-7.91A89.78,89.78,0,0,1,47,39.58a14.51,14.51,0,0,1,4.4-2.41q2.53-1.08,5.13-2c3.12-1.15,6.39-2,9.46-3.32.26-.11.13-.57-.15-.54a46,46,0,0,0-10.08,2.84c-1.66.61-3.29,1.26-4.91,2a16.77,16.77,0,0,0-4.27,2.2c-2.66,2.2-4.88,5.23-7,7.93s-4.13,5.59-6.22,8.37c-.19.26.25.59.45.34Z" transform="translate(-0.81)" fill="#0d0d0d"/><path d="M43.64,18.13c5.59,1.17,11,3.12,16.52,4.6a48.17,48.17,0,0,0,8,1.72A14.48,14.48,0,0,0,76,22.88a.32.32,0,0,0-.15-.59c-2.6.26-5.26,1.08-7.87.93a41.4,41.4,0,0,1-8.41-1.82,149.52,149.52,0,0,0-15.78-3.75c-.31,0-.45.41-.13.48Z" transform="translate(-0.81)" fill="#0d0d0d"/><path d="M36.51,22.55q4.32,1.48,8.67,2.93L49.63,27a23.59,23.59,0,0,0,3.85,1.23,11.43,11.43,0,0,0,3.81-.43l4.64-1a85.13,85.13,0,0,0,9.18-2.34c.22-.08.2-.46-.06-.43a75.72,75.72,0,0,0-8.45,1.45c-2.86.61-6,1.69-8.89,1.64S48,25.67,45.37,24.78Q41,23.32,36.68,21.91c-.4-.13-.57.5-.17.64Z" transform="translate(-0.81)" fill="#0d0d0d"/><path d="M22.31,26c6,1.85,12,3.57,18,5.33,2.38.69,4.87,1.92,7.35,1.23,2.75-.77,5.88-1.59,8.32-3.13a.43.43,0,0,0-.33-.79,46.13,46.13,0,0,0-7.88,2.55A14.54,14.54,0,0,1,46,31.8a4.83,4.83,0,0,1-2.34-.34L39.37,30.2c-5.62-1.66-11.22-3.36-16.87-4.92a.36.36,0,0,0-.19.69Z" transform="translate(-0.81)" fill="#0d0d0d"/></g></g></g></svg>