<svg xmlns="http://www.w3.org/2000/svg" viewBox="0 0 48.26 93.71"><g id="Layer_2" data-name="Layer 2"><g id="OBJECTS"><path d="M14.79,81.92c-.89-.53-2.4-.22-3.38-.1a14.42,14.42,0,0,0-2.85.67c2.22-2.71,4.58-5.41,5.24-8.86a31.26,31.26,0,0,0-.2-9.89c.16-.32.33-.63.51-.94a4.46,4.46,0,0,1,4.68,2c.24.37.85.09.63-.32a4.68,4.68,0,0,0-4.93-2.3,8,8,0,0,1,3-2.86c2.81-1.42,4.69,1.26,4.35,3.93-.2,1.53-1.19,5.22-3,5.58-2.77.56-3.74-3-4.19-5-.14-.58-1.05-.39-.91.19.57,2.46,1.67,5.74,4.76,5.71,2.87,0,4-4.23,4.27-6.48s-1-5.51-3.84-5.32c-2.36.17-4.39,2.27-5.41,4.47l-.07,0c-.61-4.91-.92-9.71,2.58-14.2.27-.36-.29-.86-.61-.53-4.66,4.78-3.63,10.78-3,16.76h0c-.23-2-2.24-3.38-4.21-3.49a4.68,4.68,0,0,0-4.75,4.6C3.29,68.09,5,71.42,7.89,71.12c2.63-.26,3.23-3.47,4.72-5.26a30.1,30.1,0,0,1,.14,5.27c-.36,4.71-2.69,7.4-5.19,10.46.05-2.07.29-4.39-1.57-5.65s-3.43.12-4.26,1.71A21.43,21.43,0,0,0,.12,82a2.37,2.37,0,0,0,.41,2.31C2,85.93,4.2,85,5.74,83.9c-.28.37-.55.74-.81,1.14A10.08,10.08,0,0,0,3.1,93.27.57.57,0,0,0,4.22,93c-.47-3.36.88-6,2.72-8.49.36,1.88-.32,4.23,1.87,5.16,2,.83,4.07-.35,5.12-2C14.64,86.54,16.46,82.91,14.79,81.92ZM9.63,68.56c-.74,1.15-1.75,1.88-3.13,1.13a3.93,3.93,0,0,1-1.85-2.84c-.35-2.11.83-4.6,3.19-4.71A3.93,3.93,0,0,1,11.32,64,7.42,7.42,0,0,0,5.8,66.36c-.13.14.06.36.2.23a7.71,7.71,0,0,1,5.66-2,3.89,3.89,0,0,1,.16.44A22.57,22.57,0,0,0,9.63,68.56Zm-3.1,14.3h0a4.32,4.32,0,0,0-2.92-3.22.27.27,0,0,0-.17.51,3.92,3.92,0,0,1,2.41,2.72.41.41,0,0,0-.28.07c-.86.58-1.89,1.4-3,1.31-1.33-.1-1.52-1.43-1.39-2.47a12.74,12.74,0,0,1,1.62-4.11,2.06,2.06,0,0,1,2.68-1c1.07.44,1.3,2.28,1.35,3.19s0,1.63.13,2.43Zm6.32,4.67c-1.16,1.58-4.07,2.33-4.89,0-.41-1.15-.22-2.36-.66-3.48h0l3,3.23c.37.4,1-.16.64-.56L8.09,83.61a10.65,10.65,0,0,1,5.18-.9c.65.11,1.09.14,1.06.93A6.93,6.93,0,0,1,14,85,8.24,8.24,0,0,1,12.85,87.53Z" fill="#072d36"/><path d="M48.26,21.93c0-5.61-3.28-11.24-8.69-13.22-5.08-1.86-9.93.12-14.12,3C23.66,6.85,21.08,2.16,15.81.48,10.15-1.33,5.28,2.22,3.3,7.42c-4.49,11.75.9,26.91,9.45,35.71a11.46,11.46,0,0,0-3.13,1.56c-1.45,1-3.53,2.64-2.94,4.67s2.81,2.3,4.46,1.66a7.92,7.92,0,0,0,2.31-1.42,10.41,10.41,0,0,0,3.75,4.26,2.07,2.07,0,0,0,3.19-1.59A11.8,11.8,0,0,0,19.12,46C31.78,44.38,48.2,36.33,48.26,21.93Z" fill="#e0314d"/><path d="M43.08,16.49c-.3-2.43-2.77-4.87-5.34-4.54a.17.17,0,0,0,0,.32c2.4.56,4.15,1.83,4.61,4.37C42.43,17.13,43.14,17,43.08,16.49Z" fill="#072d36"/><path d="M41.77,18.71a5.7,5.7,0,0,0-3.59-4.47c-.28-.1-.52.35-.24.49A5.41,5.41,0,0,1,41,18.87C41.09,19.37,41.84,19.2,41.77,18.71Z" fill="#072d36"/></g></g></svg>