<svg xmlns="http://www.w3.org/2000/svg" viewBox="0 0 56.92 72.78"><g id="Layer_2" data-name="Layer 2"><g id="OBJECTS"><path d="M22.49,0c-4.78.18-7.38,5-8.67,9.47-2.46-2-5.43-3.79-8.34-4C1.92,5.29-.39,8.37.15,11.78c1.28,8,11.7,11.44,18.79,9.57,5.57-.8,8-6.19,9.22-11.31C29.19,5.9,28-.2,22.49,0Z" fill="#e0314d"/><path d="M51.68,30.66c-7.47-11-22.64-16.44-34.51-9l0,0C6.56,25.78-1.06,33.77.12,46.16c1,10.83,8.4,21,18.62,24.86,10.46,4,23,1,30.87-6.85C59,54.83,58.93,41.32,51.68,30.66Zm-16,39.45A27,27,0,0,1,4.06,54.45C1.46,48.51.63,41,3.4,35,6.6,28,13.72,24.47,20.58,22a.66.66,0,0,0,.44-.81c13.2-4.38,26.69,2.7,32.27,15.82C59.47,51.59,50.41,66.26,35.71,70.11Z" fill="#072d36"/><path d="M24.88,29.09c-8.42.82-13.81,8.49-12.44,16.88a16.4,16.4,0,0,0,20.4,13.08C51.61,53.85,41.18,23.66,24.88,29.09ZM33,57.34a14.83,14.83,0,0,1-18.23-8.86c-2.6-7.22.57-14.47,7.06-17.21a.39.39,0,0,0,.44.07,13.29,13.29,0,0,1,18.13,7.35C43.26,45.92,40.83,54.71,33,57.34Z" fill="#072d36"/><path d="M35.05,25.91a8.42,8.42,0,0,0-7.24-1.34c-.34.09-.22.67.13.61a9,9,0,0,1,6.61,1.5C35,27,35.45,26.24,35.05,25.91Z" fill="#072d36"/><path d="M37.48,25.19A6.34,6.34,0,0,0,32,22.67c-.37,0-.31.53,0,.55a6.22,6.22,0,0,1,4.64,2.53C37.05,26.24,37.85,25.7,37.48,25.19Z" fill="#072d36"/><path d="M34.39,67.3a29.16,29.16,0,0,1-3.62.49A12.86,12.86,0,0,1,26.84,67c-.17,0-.24.21-.1.28,2.14,1.16,5.5,1.77,7.81.82C35,68,34.89,67.24,34.39,67.3Z" fill="#072d36"/><path d="M37.49,64a29.62,29.62,0,0,1-8-.11.3.3,0,0,0-.12.59,20.89,20.89,0,0,0,8.17.65C38.28,65,38.22,63.87,37.49,64Z" fill="#072d36"/></g></g></svg>