<svg xmlns="http://www.w3.org/2000/svg" viewBox="0 0 145.44 180.34"><g style="isolation:isolate"><g id="Layer_2" data-name="Layer 2"><g id="OBJECTS"><path d="M143.57,38.23a1.59,1.59,0,0,0-1.63.1,2.36,2.36,0,0,0-1.27-.44c-7.29-.44-14.53-1.75-21.76-2.79-1.81-.26-3.63-.5-5.44-.77-.82-.12-1.64-.28-2.46-.41a4,4,0,0,0-1.29-.13c-.5.07-.73.37-1.1.58.11-.11-.54,0-.61,0h-.67c-.79,0-1.59-.12-2.39-.18-1.89-.15-3.79-.28-5.68-.41-14.45-.94-28.93-1-43.39-.63-4.07.1-8.14.24-12.2.3-2,0-4,0-6,.11-1,0-2,.12-3.05.2a1.21,1.21,0,0,1,0-.14c-.15-.37-.3-.73-.47-1.09a2.13,2.13,0,0,0-1.27-1,2.11,2.11,0,0,0-1.38.11,2,2,0,0,0-1,.86,2.28,2.28,0,0,0-.23.68,13.64,13.64,0,0,0-2.27.42c-1.1.25-2.19.51-3.29.78l-7,1.72c-4.19,1.05-8.45,2.13-12.56,3.53a7,7,0,0,0-.83.24,1.67,1.67,0,0,0-2.69,1.25c0,1.79-.13,3.55-.06,5.35s.14,3.56.25,5.35l.34,5.34c.1,1.64-.15,3.95.86,5.32a1.88,1.88,0,0,0,2.1.72c-.3,25-.26,50.13,0,75.19a25.8,25.8,0,0,0,.07,2.78,13.46,13.46,0,0,0,.21,2.1c.44,1.58,2,2.54,3.24,3.4a24.82,24.82,0,0,0,4.55,2.49,8.23,8.23,0,0,0,2.49.51l0,0a35.8,35.8,0,0,0,6.87,3.9c2.24,1.1,4.47,2.21,6.72,3.29,4.64,2.24,9.23,4.59,13.85,6.85s9.29,4.48,13.91,6.77c2.23,1.1,4.49,2.17,6.7,3.31,1.18.61,2.36,1.24,3.51,1.89,1.32.75,2.36,1.6,3.93,1.67h.22a1.94,1.94,0,0,0,2.7.84l.71-.34a13,13,0,0,0,2.1-.89,5.61,5.61,0,0,0,1.3-.93,13,13,0,0,0,1.59-1c.31-.24.67-.5,1-.75,2.57-.91,5.08-2,7.55-3.17,3.94-1.85,7.82-3.79,11.69-5.78,7.58-3.9,15-8.09,22.66-11.86,3.84-1.9,7.74-3.8,11.75-5.36,1.56,1.22,4.57.55,4.53-2-.42-22.45.22-44.9-.06-67.35-.06-4.88-.18-9.76-.21-14.64,2-.07,3.13-1.28,4.8-2.15a2,2,0,0,0,1-1.77c0-3.85,0-7.69.08-11.54.06-1.88.1-3.77.17-5.65C144.78,41.62,145.13,39,143.57,38.23Z" fill="#49e8af"/><path d="M118.34,46.41a8.47,8.47,0,0,0,.21-2.13,2.13,2.13,0,0,0-3.22-1.81l-.22,0-1.19-.13-2.08-.18-3.13-.27h0a21.17,21.17,0,0,0,.76-2.29,36,36,0,0,0,.78-4.94c.29-3,.47-6.62-.63-9.47s-4.09-4.73-7-5.75a13.32,13.32,0,0,0-5-.83h0a2.8,2.8,0,0,0,0-1.38.85.85,0,0,0,0-.22l0-.06a16.92,16.92,0,0,0-.33-3.82,3.71,3.71,0,0,0-.9-1.89,3,3,0,0,0-2.82-.8,8,8,0,0,0-.84.22l-.48.14-.31.13-.15.07-.46.19-.38.16c.12-.05.09,0-.09,0a8,8,0,0,0-.95.3,21.12,21.12,0,0,0-3.66,1.73c.57-.68,1.11-1.39,1.65-2.09.88-1.13,1.41-2.6.28-3.8a13,13,0,0,0-2.41-1.73,19.05,19.05,0,0,0-2.42-1.44c-2.25-1-4.25.1-5.82,1.74a11.14,11.14,0,0,0-2,2.52c0,.08-.17.4-.27.64l0,0c0-2.66-.8-5.34-3-7A5.13,5.13,0,0,0,68.65,1.1c-1.43,0-2.87.11-4.29.25A41.73,41.73,0,0,0,56,2.69c-3.25,1-2.8,5.69-1.6,8.26l-.74-.53a22.67,22.67,0,0,0-2.32-1.59,10.06,10.06,0,0,0-1.48-.71A3.06,3.06,0,0,0,49.36,8L49,7.9s-.69-.09-.38,0a5.1,5.1,0,0,0-3.17.45,4.72,4.72,0,0,0-2.13,2.13,10.2,10.2,0,0,0-.56,5.91A8.11,8.11,0,0,0,43.18,18a10.08,10.08,0,0,0-4.52,1,9.83,9.83,0,0,0-3.76,2.8,11.16,11.16,0,0,0-2.13,5.34,31.8,31.8,0,0,0-.44,5.76A16.06,16.06,0,0,0,33.05,38a8.12,8.12,0,0,0,1.8,2.86l-.33.26a2.16,2.16,0,0,0-.58,1.18h0c-.13-.1-.26-.21-.4-.3a.18.18,0,0,0-.07-.05,2.17,2.17,0,0,0-.26-.12,1.55,1.55,0,0,0-.27-.1l-.3,0a1,1,0,0,0-.53,0l-.27,0a.77.77,0,0,0-.25.1,1.12,1.12,0,0,0-.25.11l-.48.37-.05,0,0,0-.31.4h0c-.07.15-.13.31-.2.46l-.05.36-.52,0a2.48,2.48,0,0,0-2,.89,2.24,2.24,0,0,0-.24,2.29c-.56,13.74-.56,27.53-.66,41.27q-.14,20.91-.59,41.82c-.08,3.82,0,7.63-.07,11.45q0,3-.07,6c0,1,0,2-.05,3a9.36,9.36,0,0,1-.15,2.95,2,2,0,0,0,.52,2,6.79,6.79,0,0,0,3.75,1.42A69.58,69.58,0,0,0,37.85,162a2.49,2.49,0,0,0,2.58-.09l.28.15a2.06,2.06,0,0,0,3.07-1.77c-.13-2.91-.26-5.81-.37-8.72,0-.58,0-1.15-.08-1.73a1,1,0,0,0,.15-.29A19.8,19.8,0,0,0,44,144c0-1.79-.1-3.58-.18-5.38s-.13-3.39-.16-5.08c0-1.29,0-2.57,0-3.85,0-6.78.21-13.56.49-20.33.28-7,.72-13.89,1.09-20.84.36-6.8.55-13.61.78-20.42.13-3.82.2-7.64.25-11.46,0-2,0-4,0-6,0-.88-.08-1.74-.17-2.6.56-.11,1.12-.26,1.69-.39,1.48-.35,3-.76,4.44-1.14q4.32-1.1,8.66-2.12c2.82-.66,5.66-1.21,8.51-1.7,1.34-.24,2.67-.49,4-.76a1.43,1.43,0,0,0,1,.7c4.34.79,8.76,1.17,13.12,1.77l6.32.88a45.58,45.58,0,0,1,5.75.85,3.64,3.64,0,0,0,.36.63,4,4,0,0,0,1.16,1c-.07,2.58.09,5.18,0,7.76-.09,2.83-.39,5.64-.56,8.46s-.24,5.54-.32,8.3c0,2-.43,4.52.63,6.28-.07,2,0,3.95,0,5.82-.07,3.38,0,6.75,0,10.13s-.1,6.75-.39,10.12c-.15,1.64-.24,3.29-.34,4.94a17.54,17.54,0,0,0,.09,2.71,6.6,6.6,0,0,0,.21,1v.24c0,2.3,0,4.6,0,6.9.07,4.84.22,9.69.35,14.53s.31,9.52.28,14.29-.38,9.67-.77,14.51c-.14,1.62,1.88,2,2.9,1.2,2.58-2.1,6-3.23,9.05-4.49,1.78-.74,3.77-1.28,3.8-3.52a32.14,32.14,0,0,0-.29-5.19,6.11,6.11,0,0,0,.51-1.14,11.35,11.35,0,0,0,.2-2.11c.11-1.33.11-2.66.13-4,0-2.66.11-5.33.16-8q.15-7.74.36-15.48c.13-5.17.28-10.33.41-15.49.06-2.66.06-5.33,0-8,0-1-.07-1.91-.11-2.86a14.83,14.83,0,0,0,.22-1.92c.12-2.29.15-4.57.21-6.86.1-4.48.06-9,0-13.44s.06-8.75.19-13.13A97.09,97.09,0,0,0,118,48.17c0-.08,0-.15,0-.23C118.16,47.43,118.25,46.92,118.34,46.41Z" fill="#d91e50"/><path d="M78.77,11.25l0,0S78.73,11.32,78.77,11.25Z" fill="#d91e50"/><path d="M138.29,64.52c-2,1-3.9,2-5.81,3h0a13.68,13.68,0,0,0-2.92.26,14.26,14.26,0,0,0-5.05,1.47c-.91.37-1.8.75-2.69,1.15a6.06,6.06,0,0,0-1.64,1,.77.77,0,0,0-1,.47,8.62,8.62,0,0,1-.32,1,7.59,7.59,0,0,0-1,3.73A1.26,1.26,0,0,0,119,77.9c-.14,1.35-.23,2.7-.33,4-.25,3.46-.36,6.92-.51,10.37-.6,13.36-.49,26.74-.69,40.11-.06,3.79-.1,7.59-.2,11.39,0,1.81-.1,3.63-.17,5.44l-.12,3a5.83,5.83,0,0,1-.35,2.53,1.84,1.84,0,1,0,3.37.44c-.57-1.46-.13-3.41-.06-4.95s.15-3.3.2-5q.16-4.69.24-9.41c.11-6.52,0-13,0-19.56s.08-12.88.28-19.31.79-13,1.29-19.5a3.36,3.36,0,0,1,.05-.85c.15-.32.66-.51.94-.68.83-.52,1.68-1,2.52-1.49,1.48-.85,3-1.7,4.43-2.57l2.2-1.29a3.66,3.66,0,0,0,1.31-.74l.06-.08c1.95-1.17,3.89-2.37,5.79-3.64A1,1,0,0,0,138.29,64.52Z" fill="#c7d0d8" style="mix-blend-mode:multiply"/><path d="M26.64,69.74l-2.94-.88A3,3,0,0,0,22.37,68c-1.63-.57-3.34-1-5-1.42L12,65.07a18.82,18.82,0,0,0-5.54-1,.82.82,0,0,0-.74.48,1.12,1.12,0,0,0-.08,1.55,10.09,10.09,0,0,0,4.59,2.62c1.69.58,3.4,1.15,5.1,1.71q2.9.95,5.82,1.8c.17,6.57.5,13.13.69,19.7q.57,19.57.64,39.17,0,5.49,0,11l0,5.49a19.15,19.15,0,0,0,.29,5.61,1.4,1.4,0,0,0,2.68,0,15.85,15.85,0,0,0,.4-4.86c0-1.83,0-3.66.05-5.49q0-5,0-10,0-10.35-.14-20.71c0-1.54-.05-3.08-.07-4.63.24-2.41.54-4.82.65-7.25.13-3,0-6,0-9,0-5.9-.14-11.79-.11-17.69a1.95,1.95,0,0,0,.44-3.82Z" fill="#c7d0d8" style="mix-blend-mode:multiply"/><path d="M73.66,35.45a1.35,1.35,0,0,0-.15.17l.15-.17Z" fill="#c7d0d8" style="mix-blend-mode:multiply"/><path d="M71.75,37.07c-.43.07-.24.11,0,0Z" fill="#c7d0d8" style="mix-blend-mode:multiply"/><path d="M70.86,37.32c.1,0,.06-.06-.26.06h.05Z" fill="#c7d0d8" style="mix-blend-mode:multiply"/><path d="M72.65,36.5a.25.25,0,0,0-.14.06.27.27,0,0,1,.12,0Z" fill="#c7d0d8" style="mix-blend-mode:multiply"/><path d="M111.36,31c-.06-.73-.49-1.29-.59-2-.15-1.08-2-1.06-2.17,0A11,11,0,0,1,108,30.3a8.38,8.38,0,0,0-.21,1.42c-.13,1-.24,1.94-.36,2.91a21.8,21.8,0,0,1-1,5,4.81,4.81,0,0,1-2.31,2.82,11.36,11.36,0,0,1-4.82.35,33,33,0,0,1-5.5-.86c-1.87-.41-3.78-.62-5.67-.94s-3.77-.72-5.65-1.15c-.93-.21-1.87-.42-2.8-.66l-.47-.12A10.43,10.43,0,0,0,81,34.26a14.66,14.66,0,0,0-.35-3.73,11.19,11.19,0,0,0-.55-1.9c-.29-.72-.78-1.29-1-2a.86.86,0,0,0-.87-.56,1.06,1.06,0,0,0-1.86.65,17.09,17.09,0,0,1-.25,2.46,20.4,20.4,0,0,1-.41,2.18c-.1.4-.21.8-.34,1.19l-.21.59a.36.36,0,0,0,0,.07l0,.09A16.41,16.41,0,0,1,74,35l0,0-.31.4,0,0,0,0,0,0-.13.14c-.17.18-.32.37-.5.54a3.89,3.89,0,0,1-.36.34h0l0,0c-.23.2-.21.12-.12,0-.24.13-.66.45-.75.5h0l.08,0a2.6,2.6,0,0,0-.36.13,5.45,5.45,0,0,1-.61.14.76.76,0,0,1-.21.06l-.12,0,.07,0H70c-.17,0-.33,0-.49,0h-.1l-.21-.21,0,0a.08.08,0,0,0,0,0c-.13-.26-.31-.5-.44-.76,0,0-.1-.2-.13-.26s-.09-.24-.13-.36c-.11-.35-.21-.71-.29-1.08,0-.18-.07-.36-.11-.54a.63.63,0,0,0,0-.13s0,0,0-.07a20.5,20.5,0,0,1-.14-2.48A23.87,23.87,0,0,1,68,28.85c.08-.86,0-1.76.16-2.61a.71.71,0,0,0-1.29-.54,18.5,18.5,0,0,0-1.34,1.85,13.19,13.19,0,0,0-.92,2.24,19.82,19.82,0,0,0-.95,4.64c0,.36,0,.72,0,1.08a37.1,37.1,0,0,0-3.91,1.13Q57,37.39,54.18,38c-3.61.82-7.49,1.84-11.23,1.41a7.24,7.24,0,0,1-6.37-5.07,23,23,0,0,1-.85-5.21,25.18,25.18,0,0,1,.34-6.32.64.64,0,0,0-1.24-.34c-1.34,4.11-2.74,8.42-2.29,12.83a10,10,0,0,0,2.89,6.21c-.91.7-1.2,2.28.08,2.83l.41.16h0l.09,0a15.73,15.73,0,0,0,3.88.95,90.92,90.92,0,0,0,16.28,2.1,93.21,93.21,0,0,0,10,0A24.66,24.66,0,0,0,71,46.89a18.55,18.55,0,0,0,2.16-.78c.39-.18.85-.47,1.28-.67.46.21.91.5,1.35.71.76.35,1.54.69,2.32,1a33.06,33.06,0,0,0,4.11,1.38,36.85,36.85,0,0,0,9.35,1.22,25.54,25.54,0,0,0,11.5-2.52,8.07,8.07,0,0,0,1.11-.22,7.87,7.87,0,0,0,4.63-3.62,19.52,19.52,0,0,0,2-6.34,30,30,0,0,0,.53-3.87A17.78,17.78,0,0,0,111.36,31Z" fill="#c7d0d8" style="mix-blend-mode:multiply"/><path d="M102.74,19.3a34.89,34.89,0,0,0-5.84.63c-1.9.25-3.79.58-5.66,1-1.3.27-2.6.6-3.88.94l1-.69a16.15,16.15,0,0,1,2.3-1.29.67.67,0,0,0,.42-.64c.54-.38,1.08-.78,1.64-1.16,1-.7.42-2.63-.91-2.14-2.2.81-4.38,1.63-6.5,2.63a2.24,2.24,0,0,0,.42-.6c.44-.49.86-1,1.32-1.46a1,1,0,0,0,.08-1.39,1.06,1.06,0,0,0-1.37-.28,5.91,5.91,0,0,1-.88.62,5.83,5.83,0,0,0-.93.55,4,4,0,0,0-.81.43l-.39.25c-.06,0-.61.37-.25.2a7.46,7.46,0,0,0-1.06.61l-.88.63c-.44.31-.86.63-1.29.95l0-.11A43.13,43.13,0,0,1,82.62,13c.61-.86-.79-2-1.47-1.14s-1.47,1.71-2.28,2.51-1.55,1.72-2.36,2.55c-.19.2-.39.4-.57.62a4.15,4.15,0,0,0-.27.32c-.23.28.42-.25-.17.21a6.29,6.29,0,0,0-1.11,1.29,10,10,0,0,0,.54-3.88c.08-1.41.07-2.83,0-4.25a31.17,31.17,0,0,0-.41-4.41c-.15-1-.49-3-1.55-3.55-.38-.73-1.34-.38-1.54.27-.71.84-.58,2.53-.55,3.47,0,1.46,0,2.92,0,4.38,0,.17,0,.34,0,.51-.25-.75-.56-1.49-.8-2.26a1.21,1.21,0,0,0-2.36.32c-.09,1.16-.38,2.28-.4,3.44s0,2.39,0,3.59l0,1c-.24-.34-.47-.68-.73-1,.09.15.06.12-.07-.08l-.25-.33c-.22-.28-.45-.55-.68-.82s-.7-.81-1-1.22c-.66-.82-1.34-1.61-2-2.45a1.13,1.13,0,0,0-1.5-.4,1.11,1.11,0,0,0-.39,1.5c.28.46.59.92.84,1.41s.42,1,.64,1.52c.37.84.66,1.73,1,2.61l-3.37-3.13c-1.39-1.27-2.73-2.58-4.09-3.88-.65-.62-1.38-1.17-2-1.77S52,8.4,50.83,8.55a1.75,1.75,0,0,0-1.6,1.22c-.57,2,1.49,3.74,2.8,5,.37.37.77.71,1.15,1.05-.14,0-.29-.07-.44-.09a14.8,14.8,0,0,1-2.31-.35c-1-.33-1.48,1.09-.68,1.63a17.47,17.47,0,0,1,1.61,1.61,20.3,20.3,0,0,0,2,1.45c.25.18.51.33.77.5a47.1,47.1,0,0,0-11.68-2.39,2.62,2.62,0,0,0-2.32,1.33,2.69,2.69,0,0,0-.27,2.07,2.78,2.78,0,0,0,2.59,2,89.6,89.6,0,0,1,11.2,1.22c3.78.71,7.68,1,11.41,2a.58.58,0,0,0,.77-.56l.18,0a2,2,0,0,0,1.55-.87l.3.05a1.8,1.8,0,0,0,1.2-.36,2,2,0,0,0,2.52-.33,4,4,0,0,0,.4-.57,2.37,2.37,0,0,0,2.34,1.65,2,2,0,0,0,.14.3,2.87,2.87,0,0,0,3.81,1l.23.05a3.29,3.29,0,0,0,2.26-.83.77.77,0,0,0,.31.12c1.88.27,3.75-.44,5.56-.89s3.55-.81,5.34-1.14,3.53-.56,5.31-.76c2-.23,4-.14,6-.44C105.59,22.89,104.89,19.39,102.74,19.3ZM72.45,22.19v0c0-.55-.08-1.12-.13-1.67a2,2,0,0,0,1.17-.2,2.29,2.29,0,0,0,.43-.32A14.14,14.14,0,0,0,72.45,22.19Z" fill="#c7d0d8" style="mix-blend-mode:multiply"/><path d="M101,98.62q-.47-8.48-1-17l.06,0a1.78,1.78,0,0,0,.65-1,5.1,5.1,0,0,0,.31-1.35,3.55,3.55,0,0,0-.08-1.34c0-.1,0-.2,0-.3a1.14,1.14,0,0,0-.27-.51,1.42,1.42,0,0,0-.79-.55,1.57,1.57,0,0,0-1.71.7h0a1.38,1.38,0,0,0-.32.43s0,.11-.08.17c-4.11.16-8.23.56-12.32,1l-1.46.16a1.69,1.69,0,0,0,.79-1.7c-.5-4.26-.48-8.57-.62-12.85s0-8.57-1-12.63a1,1,0,0,0-2,0c-.11.57-.21,1.14-.28,1.71l-.23-.06a1.59,1.59,0,0,0-1.24.37,3.3,3.3,0,0,0-1.12-.38,37.62,37.62,0,0,0-5.32-1.43,3,3,0,0,0-2,.27c0-.19,0-.37,0-.55-.06-1.16-2-1.58-2.15-.3-.63,4-1.12,8-1.37,12.1L67,69.55a43.11,43.11,0,0,1-.44,6.34A2.1,2.1,0,0,0,68,78.41a36.64,36.64,0,0,0,3.89,1.19c-.07.29-.13.58-.19.88l-1.37-.11a.71.71,0,0,0-.27-.91,20.26,20.26,0,0,0-2.1-1,10.9,10.9,0,0,0-2.8-.74c-1.92-.36-3.9-.54-5.83-.84s-3.88-.63-5.82-1c-.92-.15-1.85-.28-2.76-.5a10.43,10.43,0,0,0-2.62-.63l0,.06a2,2,0,0,0-.43.07,1.07,1.07,0,0,0-2,.42c-.54,7.19-.48,14.43-.63,21.64-.07,3.6-.09,7.2-.27,10.81-.09,1.71-.21,3.43-.33,5.15a35.32,35.32,0,0,0,.16,5.63.42.42,0,0,0,.52.37c-.72,8.47-1.6,16.93-2.34,25.4-.26,2.95-.51,5.89-.73,8.84-.12,1.47-.22,2.95-.33,4.42a28.9,28.9,0,0,1-.48,4.93c-.68,2.74,3.85,2.92,3.53.48-.36-2.72.1-5.63.28-8.36s.37-5.24.57-7.85c.42-5.41.88-10.8,1.33-16.2.89-10.87,1.82-21.75,2.34-32.65.27-5.66.53-11.38.3-17.06,7.23.52,14.44,1.29,21.68,1.63-.4,2.21-.69,4.46-1,6.65-.44,3.22-.85,6.44-1.21,9.67-.74,6.52-1.39,13-2,19.59-1.2,13-2.61,26-3.5,39-.25,3.64-.49,7.28-.69,10.93l-.15,2.74a7.09,7.09,0,0,0,.14,3.21c.7,1.68,3.09,2.88,4.53,3.9a2.89,2.89,0,0,0,3.2,0,3.47,3.47,0,0,0,4,.07,2.93,2.93,0,0,0,3-1.74,3.84,3.84,0,0,0,2.28-.79c1.27-1,1.3-2.72,1.15-4.2-.18-1.63-.36-3.26-.51-4.89q-.41-4.53-.7-9.07c-.4-6.13-.65-12.28-.86-18.42-.43-12.41-.65-24.84-1.33-37.24-.19-3.42-.36-6.84-.7-10.24-.19-2-.47-3.93-.76-5.87,0-.9,0-1.8-.09-2.69,1.14-.1,2.28-.24,3.41-.34,2-.19,4-.42,6-.58,3.54-.29,7.09-.42,10.64-.53q2,32.27,2.26,64.63c.06,6.29.1,12.59,0,18.89,0,2.71,4.24,2.72,4.22,0C102.47,143,102.13,120.81,101,98.62Zm-26.5-18-.34.11a1.08,1.08,0,0,0-.32-.09h-.1V80l1,.21.46.07A.65.65,0,0,0,74.45,80.63Zm4-.86a7.84,7.84,0,0,1,2.1-.87,1.63,1.63,0,0,0,.26-.07,2.17,2.17,0,0,0,.85.52C80.61,79.47,79.54,79.6,78.47,79.77Z" fill="#c7d0d8" style="mix-blend-mode:multiply"/><path d="M114.58,47.59a1.29,1.29,0,0,0-2.57,0c-.56,5.42-.35,11-.44,16.43s-.23,10.78-.36,16.18c-.25,10.86-.56,21.73-1.18,32.58-.17,3-.44,6-.69,9s-.82,6.3-.9,9.44c-.06,2.41,3.46,2.32,3.69,0,.26-2.7.09-5.48.17-8.2s.14-5.47.22-8.2c.16-5.39.47-10.78.73-16.17Q114,82.31,114.47,66C114.62,59.92,115.08,53.67,114.58,47.59Z" fill="#c7d0d8" style="mix-blend-mode:multiply"/><path d="M112.54,141.34a4.73,4.73,0,0,0,0-.53c-.07-.54-.13-1.09-.17-1.64a1.75,1.75,0,0,0-1.51-1.72,1.73,1.73,0,0,0-1.92,1.25q-.21,1.1-.33,2.19a5.29,5.29,0,0,0,0,.89,3.74,3.74,0,0,0,.13.88c0,.15.11.3.17.44a2,2,0,0,0,.65,1,1.7,1.7,0,0,0,1.1.39,2.07,2.07,0,0,0,.92-.25,1.8,1.8,0,0,0,.84-1.09,5.9,5.9,0,0,0,.17-1.32C112.55,141.63,112.54,141.48,112.54,141.34Z" fill="#c7d0d8" style="mix-blend-mode:multiply"/><path d="M39.77,60c-.05-.46-.14-.75-.17-1.08s0-.72-.07-1.08c-.05-.8-.14-1.56-.17-2.37a1.28,1.28,0,0,0-2.56,0c-.08.79-.19,1.5-.28,2.27-.05.36-.09.72-.13,1.08s-.14.54-.19.89a29.17,29.17,0,0,0-.55,4.82,2.28,2.28,0,0,0,1.49,2.09,1.83,1.83,0,0,0,1.63-.1l.19-.09a2.18,2.18,0,0,0,1.09-1.9A26.57,26.57,0,0,0,39.77,60Z" fill="#c7d0d8" style="mix-blend-mode:multiply"/><path d="M39.68,73.79c0-.21-.07-.42-.12-.64a1.29,1.29,0,0,0,0-.19l-.19-.45,0,0a1.37,1.37,0,0,0-.33-.39,1.57,1.57,0,0,0-.43-.38,1.62,1.62,0,0,0-.83-.23,1.66,1.66,0,0,0-.84.23,1.53,1.53,0,0,0-.41.35,2.09,2.09,0,0,0-.59,1.08c-.05.22-.1.44-.13.66s-.06.74-.08,1.11a1.53,1.53,0,0,0,.18.79,1.55,1.55,0,0,0,.42.66,1.5,1.5,0,0,0,.66.42,1.53,1.53,0,0,0,.79.18,2.09,2.09,0,0,0,1.44-.6,2,2,0,0,0,.6-1.45C39.74,74.53,39.73,74.16,39.68,73.79Z" fill="#c7d0d8" style="mix-blend-mode:multiply"/><path d="M143.57,55.61c.11-1.85.21-3.7.32-5.55.21-3.63.4-7.25.53-10.88.08-2-2.89-1.94-3.06,0-.32,3.55-.59,7.1-.84,10.66-.13,1.77-.25,3.55-.37,5.33a11.09,11.09,0,0,1-.32,2.37c-.27.93-.82,1.72-1.06,2.65a2.84,2.84,0,0,0,2.36,3.54c1.49.2,3.43-1.06,3.21-2.79-.13-1-.46-1.82-.66-2.78A9.09,9.09,0,0,1,143.57,55.61Z" fill="#c7d0d8" style="mix-blend-mode:multiply"/><path d="M105.26,23.6a1.72,1.72,0,0,0-.05.29,8,8,0,0,1-1.27.58,19,19,0,0,1-2.09.7,35.45,35.45,0,0,1-4.45.91c-1.56.22-3.13.37-4.7.48-1.32.1-3.36-.12-4.2,1.14a.7.7,0,0,0,0,.75c1,1.42,3.54.93,5,.84q2.82-.16,5.61-.52a27.71,27.71,0,0,0,5.17-1.12,17.82,17.82,0,0,0,2.54-1.09c.91-.48,1.83-.82,2.07-1.95A1.91,1.91,0,0,0,105.26,23.6Z" fill="#fff" style="mix-blend-mode:soft-light"/><path d="M56.87,26a38.28,38.28,0,0,0-5.25-.69c-1.61-.2-3.22-.39-4.83-.63s-3.38-.42-5.07-.61c-1.13-.13-2.33-.39-2.83-1.52a1,1,0,0,0-1.75,0,3.13,3.13,0,0,0,1.38,4.17c1.62,1,3.82,1,5.64,1.27,2,.29,4,.49,6,.75l3.11.42a22.14,22.14,0,0,0,3.12.38A1.81,1.81,0,0,0,56.87,26Z" fill="#fff" style="mix-blend-mode:soft-light"/><path d="M74.34,28.83a2.25,2.25,0,0,0-.11-.52c0-.09-.08-.19-.12-.28L74,27.78a.93.93,0,0,0,0-.13,2.27,2.27,0,0,0-.37-.78l.07.08-.12-.16a4.17,4.17,0,0,0-.41-.53,1.94,1.94,0,0,0-.82-.53,1,1,0,0,0-.37-.14,2.3,2.3,0,0,0-1.22,0,1.48,1.48,0,0,0-.68.27l-.52.4a2.16,2.16,0,0,0-.42.57,1,1,0,0,0-.07.15,2.74,2.74,0,0,0-.38,1.39v.1c0,.07,0,.14,0,.21,0,.3.07.6.12.9a1.46,1.46,0,0,0,0,.2,5.83,5.83,0,0,0,.34.8,3.34,3.34,0,0,0,1.1,1.08,2.84,2.84,0,0,0,1.37.37A2.8,2.8,0,0,0,73,31.66a2.73,2.73,0,0,0,1-1,2.66,2.66,0,0,0,.37-1.37A1.75,1.75,0,0,0,74.34,28.83Z" fill="#fff" style="mix-blend-mode:soft-light"/><path d="M47.82,11.65a4.47,4.47,0,0,1,.25-.81l0,.07a2.17,2.17,0,0,0,.11-.42,1.56,1.56,0,0,0,.12-.67V9.73A1.6,1.6,0,0,0,48.1,9a1.42,1.42,0,0,0-.64-.57,1.82,1.82,0,0,0-1.05-.2l-.31.05-.24.07h0A3.65,3.65,0,0,0,43.53,11a4,4,0,0,0-.13,1.46,2.8,2.8,0,0,0,.71,1.91,2.6,2.6,0,0,0,1.21.65,2,2,0,0,0,1.27-.1,1.8,1.8,0,0,0,.94-.8.57.57,0,0,1,.08-.13,2.34,2.34,0,0,0,.26-1.81c0-.07,0-.15,0-.23Z" fill="#fff" style="mix-blend-mode:soft-light"/><path d="M67.93,1.43c-1.16.11-2.28.45-3.43.57s-2.09.18-3.13.3c-2.13.26-4.68.34-6.44,1.7-.61.47-.16,1.33.41,1.54a7.64,7.64,0,0,0,3.19.25c1,0,2.06-.14,3.09-.21s2.06-.18,3.09-.18,2.15.21,3.22.24A2.13,2.13,0,0,0,70,3.54,2.13,2.13,0,0,0,67.93,1.43Z" fill="#fff" style="mix-blend-mode:soft-light"/><path d="M85.93,7.06a2.16,2.16,0,0,0-.63-1,3.7,3.7,0,0,0-.65-.47,8,8,0,0,0-1.07-.49c-.21-.07-.43-.12-.64-.18l-.34-.1a2.59,2.59,0,0,0-.62-.1,1.45,1.45,0,0,0-.29,0h-.23a1.76,1.76,0,0,0-1.23.51A1.78,1.78,0,0,0,79.8,6a2,2,0,0,0,0,1,2,2,0,0,0,.47.78l.16.17h0a2,2,0,0,0,.61.55l.31.17c.19.11.38.22.58.32A6.87,6.87,0,0,0,83,9.36a3.82,3.82,0,0,0,.82.15l.13,0a1.74,1.74,0,0,0,.64-.09,1.49,1.49,0,0,0,.66-.34,1.47,1.47,0,0,0,.5-.55A1.86,1.86,0,0,0,85.93,7.06Z" fill="#fff" style="mix-blend-mode:soft-light"/><path d="M69.88,54a18.34,18.34,0,0,0-6-2.38c-2.25-.35-4.49-.71-6.74-1.09-4.49-.75-9-1.61-13.43-2.41-8.95-1.61-17.94-3.31-26.78-5.42-2.53-.6-5-1.24-7.57-1.86-1.19-.3-2.38-.54-3.57-.82a7.32,7.32,0,0,0-3.93-.26A1.35,1.35,0,0,0,1.22,42c1.5,1.55,4.1,1.81,6.11,2.35,2.19.59,4.43,1,6.64,1.57,4.5,1.09,9,2.2,13.53,3.15,9,1.88,18,3.71,27.05,5.22q3.72.63,7.46,1.2a17.23,17.23,0,0,0,3.92.29,24.33,24.33,0,0,0,3.79-.61A.65.65,0,0,0,69.88,54Z" fill="#fff" style="mix-blend-mode:soft-light"/><path d="M135.86,40.61c-.57-.14-1.06-.41-1.66-.51a6,6,0,0,0-1.58-.1,21.53,21.53,0,0,0-3.6.82c-2.25.57-4.49,1.21-6.73,1.83-4.4,1.23-8.82,2.37-13.24,3.52L95.79,49.64c-2.25.59-4.49,1.24-6.7,1.93-1.93.61-4.51,1-5.92,2.57a.85.85,0,0,0,.36,1.39c2,.74,4.51-.12,6.52-.47,2.29-.4,4.58-.86,6.85-1.38l4.25-1c-.11,1.13-.26,2.24-.32,3.39-.12,2.23-.17,4.47-.23,6.71-.13,4.55-.1,9.11-.14,13.67q-.13,13.68-.39,27.35c0,2.48-.14,5-.23,7.45-.11,2.65-.22,5.1,1.41,7.33.25.34.83.56,1.15.15a9.06,9.06,0,0,0,1.81-6c.05-2.23,0-4.47,0-6.71,0-4.64.14-9.28.2-13.92.11-9.11.23-18.23.23-27.34,0-2.57,0-5.15-.16-7.71-.07-1.34-.2-2.64-.33-4,0-.35-.09-.71-.14-1.07l6.24-1.45c4.45-1.06,8.89-2.13,13.35-3.15,2.27-.51,4.55-1,6.8-1.58a22.59,22.59,0,0,0,3.36-.94,9.19,9.19,0,0,0,2.66-2.14A1.3,1.3,0,0,0,135.86,40.61Z" fill="#fff" style="mix-blend-mode:soft-light"/><path d="M30,136c-.08-2.57-.08-5.16-.05-7.73q.09-7.73.14-15.46c.07-10.31-.1-20.63-.24-30.93-.09-5.83-.27-11.66-.64-17.47a.47.47,0,0,0-.94,0c-.65,10.3-.75,20.62-1,30.94s-.44,20.61-.64,30.92c-.05,2.83-.16,5.66-.27,8.48-.13,3-.57,6-.6,9s4.42,2.9,4.5,0C30.33,141.18,30.08,138.61,30,136Z" fill="#fff" style="mix-blend-mode:soft-light"/><path d="M105.2,125.12c0-.35-.06-.69-.1-1s-.13-.67-.21-1a3.28,3.28,0,0,0-.55-1.27l-.08-.12a1.77,1.77,0,0,0-3.27-.16,1.7,1.7,0,0,0-.23.3,2,2,0,0,0-.22.32,3.18,3.18,0,0,0-.31.84,8.4,8.4,0,0,0-.19,1,7.27,7.27,0,0,0-.07,1,3.8,3.8,0,0,0,.09,1,2.57,2.57,0,0,0,.43.84,4,4,0,0,0,.72,1,2.17,2.17,0,0,0,1.46.61,2,2,0,0,0,1.45-.61c.12-.15.26-.31.37-.48a2.27,2.27,0,0,0,.23-.5c0-.08.09-.16.14-.24A2.42,2.42,0,0,0,105.2,125.12Z" fill="#fff" style="mix-blend-mode:soft-light"/><path d="M4.67,64.8q-.62,34-.56,67.92c0,3.44.1,6.9,0,10.35,0,1.1-.3,2.33.28,3.35a3.17,3.17,0,0,0,1.13,1c.12.08,1.08.76.61.35l1-2.28c.78-.07.78.32.42.06a2.77,2.77,0,0,0-.37-.22c-.13-.07-.26-.17-.4-.23-.52-.24-.07-.52.29.57l-1.65,1.65c-.38-.06.27.12.47.22l1.28.59,2.79,1.3c1.89.9,3.78,1.8,5.66,2.72,4,2,8,4,12,6,8.38,4.23,16.72,8.53,25.08,12.79q6,3,12,6c2,1,3.89,2.05,5.9,2.9,2.36,1,4.46.27,6.65-.8,9.83-4.78,19.63-9.63,29.44-14.45,11-5.41,22-10.77,33-16.23a1.31,1.31,0,0,0,.66-1.15c-.37-20-.17-40.07,0-60.11l.09-10.43c0-4.14.19-8.24.36-12.37.08-1.86-3-1.86-2.89,0,.14,3.71.31,7.39.29,11.1,0,3.17,0,6.35-.06,9.52q-.06,7.72-.15,15.43c-.11,9.09-.3,18.18-.34,27.27q0,9.79,0,19.59l.65-1.14C119,155.43,99.8,165,80.53,174.43L77,176.18a11.21,11.21,0,0,1-3.78,1.5A6.35,6.35,0,0,1,70,176.59c-1-.49-2-1-2.93-1.44-3.86-1.9-7.7-3.84-11.54-5.77-8.25-4.17-16.45-8.43-24.69-12.6q-6.59-3.34-13.2-6.59-3.18-1.56-6.36-3.07l-3-1.37a10,10,0,0,0-2.24-1c-.93-.15-2,.58-1.65,1.65a3.62,3.62,0,0,0,2.65,1.79c1-.1,1.91-1.47.95-2.29-.26-.22-1.19-.58-1.3-.75s0-1,0-1.32c0-.75,0-1.5,0-2.25,0-3,0-5.91,0-8.86q0-8.25-.13-16.48-.2-15.9-.56-31.8Q5.8,74.62,5.59,64.8a.46.46,0,0,0-.92,0Z" fill="#0d0d0d"/><path d="M71.87,80.23C70.3,105,69,129.87,69.32,154.74c.05,3.64.11,7.27.18,10.91A120.93,120.93,0,0,0,69.89,178a1.46,1.46,0,0,0,2.92,0c.19-3.63-.21-7.35-.34-11-.11-3.24-.22-6.48-.31-9.72-.17-6.1-.37-12.2-.45-18.31-.15-11.84,0-23.68.21-35.52q.26-11.62.7-23.23c0-.49-.72-.48-.75,0Z" fill="#0d0d0d"/><path d="M45.74,75.58c10.07,2.35,20.17,4.76,30.33,6.65,1.76.33,2.53-2.32.75-2.71-10.11-2.24-20.25-4.28-30.34-6.64-1.75-.41-2.49,2.29-.74,2.7Z" fill="#0d0d0d"/><path d="M.82,39.56C.57,43.8.18,48,.09,52.28Q0,55.66,0,59c0,2-.11,4.12,1.78,5.28,1.45.89,3.49,1.16,5.13,1.59l5.67,1.48c4.52,1.19,9,2.41,13.6,3.48a1.4,1.4,0,0,0,.74-2.7c-7.57-2-15.18-4.09-22.81-5.87-1.2-.28-1.46-.74-1.53-2-.05-1-.07-2.08-.11-3.12-.07-1.88-.13-3.77-.17-5.66-.09-4-.27-8-.3-12a.59.59,0,0,0-1.18,0Z" fill="#0d0d0d"/><path d="M99.56,74.43q-5.84,1.44-11.71,2.72c-1.86.4-3.73.78-5.6,1.16a35.29,35.29,0,0,0-6.16,1.29,1.33,1.33,0,0,0,.35,2.59,29.93,29.93,0,0,0,6.13-1.06q2.91-.59,5.82-1.21c4-.86,8-1.79,11.92-2.76,1.77-.44,1-3.17-.75-2.73Z" fill="#0d0d0d"/><path d="M143.59,38.11c-.15,4.07-.57,8.13-.73,12.21s-.21,8.14-.29,12.21l1-1.36c-8.27,2.94-16.6,5.69-25,8.16a1.42,1.42,0,0,0,.76,2.74q12.63-3.69,25-8.19a1.45,1.45,0,0,0,1-1.35c0-4.07.09-8.14,0-12.21s-.35-8.15-.39-12.21a.72.72,0,0,0-1.44,0Z" fill="#0d0d0d"/><path d="M76.7,53.93c-.36,4.41-.85,8.79-1,13.21s-.1,8.81-.08,13.22c0,1.49,2.39,1.48,2.31,0-.47-8.76-1.08-17.66-.5-26.43,0-.45-.67-.44-.7,0Z" fill="#0d0d0d"/><path d="M143.57,37.26c-4.33,1-8.62,2-13,2.68-4.22.71-8.43,1.41-12.6,2.38-8.62,2-17,4.72-25.59,7a98,98,0,0,1-14.56,3,1.11,1.11,0,1,0,.3,2.2c8.53-2,17-4.36,25.38-6.86A238,238,0,0,1,129,41.23a96.19,96.19,0,0,0,14.75-3.4.29.29,0,0,0-.15-.57Z" fill="#0d0d0d"/><path d="M1.44,39.63c3.05,1.27,6.5,1.66,9.73,2.3l15.05,3c11.72,2.35,23.48,4.5,35.23,6.66,2.9.53,5.8,1,8.7,1.51,2.47.43,5,.71,7.41,1.31a1,1,0,1,0,.26-1.91,65.87,65.87,0,0,1-6.55-1c-2.52-.41-5-.86-7.56-1.32-5.76-1-11.52-2.06-17.28-3.14C35.29,45,24.14,42.94,13,40.8,9.28,40.08,5.36,38.92,1.53,39c-.41,0-.43.53-.09.68Z" fill="#0d0d0d"/><path d="M66.27,26.77A11.64,11.64,0,0,0,63.94,32a9.77,9.77,0,0,0,.54,5.08,8,8,0,0,0,8,5.35,7,7,0,0,0,4.68-2.35,10.54,10.54,0,0,0,2-4.68,15.07,15.07,0,0,0,.4-6.08,7.4,7.4,0,0,0-2.39-4,7.08,7.08,0,0,0-5-1.72c-1.61.11-4.08.79-4.67,2.48a.48.48,0,0,0,.58.58,10.89,10.89,0,0,0,1.66-.86,6.25,6.25,0,0,1,1.93-.63,5.64,5.64,0,0,1,3.86.83,5.84,5.84,0,0,1,2.35,3.07A8.7,8.7,0,0,1,77.65,34c-.65,2.46-1.81,5.35-4.54,6a6.09,6.09,0,0,1-6.6-3.11c-1.69-3-1.11-6.83.38-9.77a.36.36,0,0,0-.62-.36Z" fill="#0d0d0d"/><path d="M77.9,26.84a12.52,12.52,0,0,0,3.21-1.65c1.12-.64,2.27-1.23,3.45-1.76A40.08,40.08,0,0,1,92,20.85c4.78-1.13,11.14-2.08,15.17,1.46,2.08,1.84,2.54,4.36,2.62,7a35.05,35.05,0,0,1-.76,8.49c-.56,2.59-1.23,5-4.08,5.72-2.5.63-5.34,0-7.83-.42A92.83,92.83,0,0,1,88,41.17c-1.51-.41-3-.84-4.51-1.31s-3.74-1-5-2.08c-1.46-1.25-2.51,1.66-.71,1.71,1.54,0,3.25.87,4.71,1.33,1.65.52,3.29,1,5,1.47a93.67,93.67,0,0,0,9.66,2c2.65.42,5.66,1.11,8.35.76s4.16-2.27,4.89-4.69a35.08,35.08,0,0,0,1.35-9.22c0-2.82,0-6.1-1.59-8.52-3.36-4.94-9.85-5.13-15.18-4.35a41,41,0,0,0-9.52,2.62,37,37,0,0,0-4.48,2.18,9.9,9.9,0,0,0-3.69,2.81.63.63,0,0,0,.7.92Z" fill="#0d0d0d"/><path d="M90.69,35.55c-3.92-.17-7.85-.33-11.74-.81-1.35-.17-1.38,2.26,0,2.13,3.9-.39,7.83-.45,11.74-.51a.41.41,0,0,0,0-.81Z" fill="#0d0d0d"/><path d="M86.15,31.32c-1.13.31-2.28.51-3.43.71-.53.09-1.06.16-1.59.22s-1.61,0-2,.56a1,1,0,0,0,.19,1.52,2.62,2.62,0,0,0,2.11-.21l1.69-.58c1.12-.39,2.22-.85,3.34-1.27a.49.49,0,0,0-.26-1Z" fill="#0d0d0d"/><path d="M84.27,29.11c-.92.2-1.84.4-2.76.53A8.77,8.77,0,0,0,80.1,30a4.25,4.25,0,0,0-1.55.73.92.92,0,0,0,.64,1.55,4.65,4.65,0,0,0,1.57-.58c.42-.21.84-.4,1.24-.62s.81-.44,1.22-.63a12.29,12.29,0,0,1,1.3-.42.47.47,0,0,0-.25-.9Z" fill="#0d0d0d"/><path d="M75.31,24.72C79,21,82.39,16.9,86.84,14c2-1.27,4.83-3,7.26-2.8a3.12,3.12,0,0,1,2.63,2.68c.34,1.55-.25,3-.21,4.53a1.22,1.22,0,0,0,2.39.32c.91-2.73.34-6.78-2.17-8.51s-5.94-.12-8.32,1.29C83,14.68,78.54,19.39,74.78,24.31c-.23.31.27.67.53.41Z" fill="#0d0d0d"/><path d="M67.27,26.21a76.23,76.23,0,0,0-17.79-7.67c-5-1.47-11.06-2.11-14.72,2.35a14.51,14.51,0,0,0-2.91,7.36,26.82,26.82,0,0,0,0,8.1,7.58,7.58,0,0,0,3.81,5.74c2.6,1.33,5.83,1.5,8.7,1.42a64.38,64.38,0,0,0,10.87-1.45c3.66-.74,7.34-1.63,10.91-2.71,1.4-.42.74-2.68-.6-2.17a68.44,68.44,0,0,1-8.25,2.68A80.44,80.44,0,0,1,49,41.46a31.34,31.34,0,0,1-9.07.18c-2.64-.4-5-1.35-6-4a18.6,18.6,0,0,1-.67-6.93,15.62,15.62,0,0,1,1.84-7.83c3-5,8.9-4.43,13.76-3a109.22,109.22,0,0,1,17.83,7.29.53.53,0,0,0,.53-.91Z" fill="#0d0d0d"/><path d="M54.13,36a28.91,28.91,0,0,0,5.08-.46c.84-.13,1.67-.29,2.51-.38a6.2,6.2,0,0,0,2.71-.5A1.24,1.24,0,0,0,65,33.42a1.22,1.22,0,0,0-.89-1,6.38,6.38,0,0,0-2.89.64c-.8.25-1.62.46-2.42.69A29.27,29.27,0,0,0,54,35.43c-.29.13-.13.56.15.56Z" fill="#0d0d0d"/><path d="M59,30.26c.92.26,1.81.57,2.73.8l1.33.33c.5.13,1.1.45,1.61.29A.72.72,0,0,0,65,30.49c-.43-.39-1-.33-1.56-.43l-1.35-.24c-.94-.18-1.9-.26-2.84-.4-.54-.08-.79.69-.24.84Z" fill="#0d0d0d"/><path d="M44.79,17.76a6.06,6.06,0,0,1,.06-8.25c2.81-2.84,6.87-.17,9.25,1.88a65.59,65.59,0,0,1,6.7,7.14c1.15,1.35,2.36,2.65,3.54,4s2.09,3.18,3.61,3.75c.54.21,1-.4.9-.9A5.82,5.82,0,0,0,67,23c-.85-.86-1.66-1.75-2.47-2.65-1.5-1.69-3.07-3.32-4.6-5-2.6-2.86-5.41-6.09-9-7.66-3.2-1.39-6.64-.63-8.22,2.66-1.31,2.72-1,6.37,1.51,8.27.5.37,1-.42.64-.84Z" fill="#0d0d0d"/><path d="M62.09,18.34c-1.64-1.95-3.17-4-4.67-6.06-1.27-1.76-3.24-4-3.37-6.24C53.86,3,57.29,2.62,59.57,2.18a44.75,44.75,0,0,1,7.31-.76c1.82,0,3.94,0,5.48,1.14,2,1.44,1.89,4.1,1.81,6.28A70.54,70.54,0,0,1,72,24a.57.57,0,0,0,1.09.3,63.42,63.42,0,0,0,2.66-8.95c.57-2.66.81-5.51,1.93-8,.59-1.33,1.6-3.08,3.23-3.17s3.16,1,4.4,1.79,2.91,1.91,2.82,3.49C88.05,10.79,86.71,12,86,13c-.35.5.36,1.24.87.86,2.46-1.8,3.73-5.05,1.27-7.4-2-1.93-6-4.94-8.93-3.29s-3.75,5.73-4.29,8.72A113.52,113.52,0,0,1,72,24l1.09.3c.86-4.67,2.16-9.27,2.47-14,.23-3.6.22-7.92-3.66-9.54C68.33-.76,63.84.39,60.21,1c-3.16.57-7.83,1.18-7.12,5.53.39,2.37,2.23,4.53,3.59,6.42a59.83,59.83,0,0,0,4.92,5.86c.31.33.78-.16.49-.5Z" fill="#0d0d0d"/><path d="M84.71,22.45a13,13,0,0,0-6,3.49.58.58,0,0,0,.11.9c1.09.56,2.35.11,3.48-.08l5.12-.86,10.23-1.71,4.88-.82c1.05-.17,2.65-.17,3.55-.86a1.59,1.59,0,0,0,.24-2.13A1.83,1.83,0,0,0,104,19.8a.43.43,0,0,0-.1.78c.54.39,1.77.9.63,1.29a19.23,19.23,0,0,1-3.21.55L94.22,23.6l-7.07,1.19-3.41.57-1.95.33c-.64.1-1.73.47-2.35.17l.12.89a16,16,0,0,1,5.34-3.63c.4-.16.26-.8-.19-.67Z" fill="#0d0d0d"/><path d="M76,24.59c1.83-.56,3.51-1.92,5.1-3l5.18-3.4,5.15-3.44c1.48-1,3.34-1.87,4.5-3.24a.73.73,0,0,0,0-1,1.83,1.83,0,0,0-1.1-.56.66.66,0,0,0-.71.28c-.37.64.43.93.81,1.28v-1a9.48,9.48,0,0,1-2.26,1.76L90.08,14l-4.85,3.21q-2.42,1.61-4.83,3.24c-1.57,1.05-3.51,2.09-4.73,3.55-.21.25,0,.67.32.57Z" fill="#0d0d0d"/><path d="M72.54,23.56a27.73,27.73,0,0,0-.05-6c-.08-2.06-.21-4.11-.32-6.17l-.33-6.17c0-.8-.54-2.57.78-2.38.86.12,1.42,1.13,1.81,1.8A.3.3,0,0,0,75,4.53c.34-1.59-1.23-3-2.75-3-2.54-.06-1.6,3.63-1.52,5.15.15,2.84.31,5.67.46,8.51.08,1.42.17,2.83.27,4.25a18.42,18.42,0,0,0,.47,4.13c.08.3.58.35.64,0Z" fill="#0d0d0d"/><path d="M66.75,25.77A123.83,123.83,0,0,1,53.6,15.65,15,15,0,0,1,51.12,13c-.41-.6-1.79-3-.47-3.26a4.37,4.37,0,0,1,1.73.34,8.56,8.56,0,0,1,1.61.71,15.53,15.53,0,0,1,2.76,2.22.38.38,0,0,0,.59-.46A7.47,7.47,0,0,0,52.56,9c-.81-.23-2.1-.59-2.88-.11A2,2,0,0,0,49,11.1c.42,2.15,2.08,3.89,3.65,5.3,1.92,1.74,3.94,3.38,6,5a82.73,82.73,0,0,0,7.62,5.22c.52.31,1-.48.47-.81Z" fill="#0d0d0d"/><path d="M66.77,26.61c-6.21-1.18-12.45-2.23-18.68-3.31l-4.43-.77c-1-.18-3.44-.19-3.81-1.36-.69-2.17,7.61-2,9-2.23.31-.06.26-.5,0-.58A13.67,13.67,0,0,0,43.13,18c-1.4.16-3.07.24-4.08,1.34a2.17,2.17,0,0,0-.18,2.88c.81,1,2.31,1.11,3.48,1.3,8.06,1.32,16.11,2.7,24.18,3.91.56.08.81-.75.24-.86Z" fill="#0d0d0d"/><path d="M1.12,40.18c2.65.12,5.45-.81,8-1.36q4.26-.91,8.5-2c2.75-.66,5.49-1.36,8.22-2.08,1.33-.36,2.66-.68,4-1s2.69-.5,3.54-1.51a.37.37,0,0,0-.16-.6c-1.2-.39-2.42.15-3.58.49-1.32.38-2.62.79-3.95,1.14q-4.22,1.13-8.46,2.14T9,37.33c-2.66.59-5.63.86-8.1,2-.44.2-.18.83.23.85Z" fill="#0d0d0d"/><path d="M144.63,37.41c-5.47-1-11.11-1.39-16.64-2.12-2.81-.38-5.63-.77-8.44-1.2s-5.62-1.17-8.44-1.52c-1.21-.15-1.46,1.87-.28,2.14,2.73.63,5.67.84,8.45,1.26s5.48.79,8.23,1.12c5.58.68,11.35,1.5,17,1.3.54,0,.71-.87.14-1Z" fill="#0d0d0d"/><path d="M117.94,42.67c-.34,3.79-.22,7.65-.27,11.46s-.1,7.47-.16,11.21q-.17,11.32-.41,22.66-.48,22.43-1.31,44.83-.47,12.72-1.19,25.4c-.08,1.46,2.26,1.48,2.29,0,.57-30,1.48-60.1,1.93-90.15q.09-6.24.17-12.46c.05-4.3.3-8.67,0-12.95a.53.53,0,0,0-1,0Z" fill="#0d0d0d"/><path d="M100.75,47.77c-1.19,30.83-1.31,61.73-1.24,92.58,0,4.32,0,8.63,0,13s-.25,8.65,0,12.94a1.12,1.12,0,0,0,2.24,0c.12-4-.17-8-.23-12-.07-3.81-.15-7.63-.17-11.45q-.06-11.44,0-22.9c0-15.43,0-30.86.15-46.29q.1-12.95.08-25.88a.35.35,0,0,0-.7,0Z" fill="#0d0d0d"/><path d="M45.65,47.47c-.73,3.59-.49,7.45-.57,11.1C45,62.39,44.9,66.21,44.83,70Q44.64,81.49,44.36,93,43.83,115.88,43,138.8q-.24,6.47-.49,12.95c-.08,2.15-.13,4.32-.27,6.47s-.4,4.32-.39,6.48a1.12,1.12,0,0,0,2.24,0c.33-3.78.17-7.66.31-11.46s.28-7.64.41-11.46q.41-11.44.74-22.91Q46.25,96,46.67,73q.12-6.48.16-13c0-4.12.47-8.52-.25-12.59a.49.49,0,0,0-.93,0Z" fill="#0d0d0d"/><path d="M26.45,43.68c-.34,7.29-.18,14.62-.2,21.91s-.07,14.6-.13,21.9C26,102,26,116.56,25.28,131c-.21,4.07-.4,8.13-.5,12.2s-.42,8.31-.29,12.44a1.16,1.16,0,0,0,2.31,0c.29-3.62.18-7.32.25-11s.12-7.3.1-10.95c0-7.3,0-14.6.05-21.9.09-14.52.29-29,.35-43.55,0-8.2.24-16.46-.18-24.65a.46.46,0,0,0-.92,0Z" fill="#0d0d0d"/><path d="M46.33,48.18c4.52-.77,8.94-2,13.41-3q3.34-.78,6.69-1.5c1.12-.24,2.24-.49,3.37-.68s2.15,0,3-.68a.65.65,0,0,0-.15-1.16,5.29,5.29,0,0,0-2.75.45c-1.1.28-2.24.48-3.35.72-2.32.49-4.63,1-6.95,1.52a116,116,0,0,0-13.49,3.59.39.39,0,0,0,.2.75Z" fill="#0d0d0d"/><path d="M27.16,44.31c1.54-.23,3.05-.66,4.56-1,.74-.18,1.48-.39,2.22-.59l1.14-.33a1.17,1.17,0,0,0,.8-.62.37.37,0,0,0-.13-.5,1.1,1.1,0,0,0-.52-.22,2.15,2.15,0,0,0-.5.07c-.39.09-.77.2-1.15.3-.74.18-1.49.37-2.22.58-1.5.43-3,.81-4.47,1.37a.51.51,0,0,0,.27,1Z" fill="#0d0d0d"/><path d="M73,41.85c2,1.32,4.76,1.66,7.11,2.1,2.57.48,5.16.83,7.74,1.18s5,.7,7.52,1.14c1.29.22,2.56.49,3.82.82.9.24,1.89.85,2.67.14a.38.38,0,0,0,.09-.35c-.3-.94-1.3-.91-2.16-1.09-1.28-.26-2.57-.48-3.85-.72-2.57-.46-5.17-.79-7.75-1.15s-5-.7-7.52-1.15-5-1.38-7.52-1.45a.29.29,0,0,0-.15.53Z" fill="#0d0d0d"/><path d="M107.86,41.83a4.4,4.4,0,0,0,2.3.58l2.84.26,2.73.25c1,.09,1.88.29,2.83.36s1.08-1.4.21-1.52-1.82-.12-2.72-.2-1.89-.18-2.84-.25l-2.73-.16a4.74,4.74,0,0,0-2.57.24.28.28,0,0,0,0,.44Z" fill="#0d0d0d"/><path d="M74.84,87.26c-.11,6.84-.25,13.68-.48,20.53a1,1,0,0,0,.72.93,1.46,1.46,0,0,0,.51,0,1,1,0,0,0,.72-.93c-.14-6.85-.18-13.69-.21-20.53a.63.63,0,0,0-1.26,0Z" fill="#0d0d0d"/><path d="M74.33,113.08c0,.07-.08.22,0,.07a2.07,2.07,0,0,0-.12.38,1.85,1.85,0,0,0,0,.23c0,.11,0,.1,0,0l-.1.25a2.61,2.61,0,0,0-.07.69l0,.48q0,.48,0,1c0,.23,0,.47.08.7a1.68,1.68,0,0,0,.19.65,1.13,1.13,0,0,0,1.19.52,1.11,1.11,0,0,0,.82-.86,4.59,4.59,0,0,0,0-1.17c0-.31,0-.62-.07-.92s0-.32,0-.48,0-.16,0-.24a1.73,1.73,0,0,0-.17-.64l.14.52-.06-.49a1.49,1.49,0,0,0-.14-.55c.07.14,0,0,0-.07a.85.85,0,0,0-.81-.61.86.86,0,0,0-.8.61Z" fill="#0d0d0d"/><path d="M132.81,125.56c.07,2.54.13,5.09.19,7.63,0,1.28,0,2.55.06,3.82a21.62,21.62,0,0,0,.15,3.78c.23,1.16,1.88.8,1.95-.26a22.21,22.21,0,0,0-.34-3.81c-.12-1.23-.24-2.45-.34-3.67-.19-2.5-.35-5-.47-7.49,0-.77-1.22-.78-1.2,0Z" fill="#0d0d0d"/><path d="M8,69.56c-.12,2.08-.16,4.16-.17,6.25,0,1,0,2-.06,3a17.69,17.69,0,0,0-.14,3.25,1,1,0,0,0,2,0,16.5,16.5,0,0,0-.23-3.13c-.1-1-.11-2.08-.15-3.13-.08-2.09-.18-4.17-.36-6.25a.44.44,0,0,0-.88,0Z" fill="#0d0d0d"/><path d="M7.53,88.89a3.78,3.78,0,0,0,.13.67l.12.31a1.09,1.09,0,0,0,.11.27c0,.07.11.14.16.21l.09.11a.75.75,0,0,0,.62.2A.44.44,0,0,0,9,90.57a.75.75,0,0,0,.27-.26.83.83,0,0,0,.07-.13,1,1,0,0,0,.11-.32l0-.32a2.73,2.73,0,0,0,.05-.4s0-.11,0-.16l0-.36a1.15,1.15,0,0,0-.14-.52l-.16-.21a1.1,1.1,0,0,0-.46-.26.78.78,0,0,0-.4,0,.81.81,0,0,0-.38.12.75.75,0,0,0-.29.27.81.81,0,0,0-.19.34,1.28,1.28,0,0,0,0,.55Z" fill="#0d0d0d"/><path d="M64.81,155c0,1.72-.09,3.42-.17,5.13a36.85,36.85,0,0,1-.44,5,1.23,1.23,0,0,0,.54,1.32l.09.06a1,1,0,0,0,1,0l.09-.06a1.22,1.22,0,0,0,.54-1.32,40.33,40.33,0,0,1-.44-5c-.08-1.71-.14-3.41-.17-5.13a.52.52,0,0,0-1,0Z" fill="#0d0d0d"/><path d="M64.59,147c0,.28,0,.55,0,.82l0,.41c0,.06,0,.13,0,.2a.74.74,0,0,0,.24.55l-.15-.26.08.24a1.42,1.42,0,0,0,.21.33.4.4,0,0,0,.56,0,1.15,1.15,0,0,0,.21-.33l.08-.24-.15.26a.77.77,0,0,0,.24-.53c0-.07,0-.14,0-.2l0-.43c0-.27,0-.54,0-.82a.57.57,0,1,0-1.14,0Z" fill="#0d0d0d"/><path d="M138.47,45.56c-.21,2.08-.39,4.15-.6,6.23-.1,1-.26,2-.34,3.07s-.35,2.08.56,2.78a.56.56,0,0,0,.6,0c.92-.65.69-1.78.67-2.78s-.09-2-.08-3.07c0-2.09.15-4.15.33-6.23.07-.74-1.06-.72-1.14,0Z" fill="#0d0d0d"/><path d="M133.63,47l.94-.24a2.37,2.37,0,0,0,1.17-.53.77.77,0,0,0-.33-1.28,2.51,2.51,0,0,0-1.3.13l-.93.29a.85.85,0,0,0-.5.39.82.82,0,0,0-.09.65.87.87,0,0,0,1,.59Z" fill="#0d0d0d"/><path d="M5.76,44.79c1.4.42,2.82.81,4.21,1.27l2,.68c.36.11.71.25,1.07.34a1.37,1.37,0,0,0,1.07-.22.47.47,0,0,0,.17-.64,1.3,1.3,0,0,0-.8-.74,10,10,0,0,0-1.08-.27l-2.1-.51C8.92,44.36,7.51,44,6.1,43.56a.64.64,0,0,0-.34,1.23Z" fill="#0d0d0d"/><path d="M4.24,48.11c0,.21,0,.43,0,.64a1.07,1.07,0,0,0,0,.25l.09.21.06.14.06.13a.61.61,0,0,0,.33.32l-.18-.18a.52.52,0,0,0,.21.23l.07,0a.36.36,0,0,0,.41,0l.07-.07a.76.76,0,0,0,.15-.28l-.23.3a.72.72,0,0,0,.33-.43.8.8,0,0,0,0-.15l0-.15a.64.64,0,0,1,0-.07.61.61,0,0,0,0-.3.51.51,0,0,0,0-.13c0-.22-.08-.43-.11-.65a.7.7,0,0,0-.33-.42.62.62,0,0,0-.44-.08.69.69,0,0,0-.61.69Z" fill="#0d0d0d"/><path d="M90.19,29.36l.27,0a1.16,1.16,0,0,0,.41-.13,1.21,1.21,0,0,0,.3-.25l.17-.17a.51.51,0,0,0-.22-.84l-.23-.06a1.35,1.35,0,0,0-.4-.08,1.23,1.23,0,0,0-.42.1l-.26.09a.75.75,0,0,0-.43.33.5.5,0,0,0-.08.26.57.57,0,0,0,0,.29.75.75,0,0,0,.33.43l.17.07a.62.62,0,0,0,.38,0Z" fill="#0d0d0d"/><path d="M52.56,29a7.19,7.19,0,0,0,.76.32,2.57,2.57,0,0,0,.48.11.72.72,0,0,0,.57-.11l-.14.06.19-.05a.51.51,0,0,0,.17-.07l.1-.07,0,0-.16.1a1.65,1.65,0,0,0,.48-.14c.14-.07.1-.26,0-.34s-.26-.14-.39-.21l.13.14,0,0-.05-.11a.55.55,0,0,0-.17-.17s.07.06,0,0l-.06-.05s-.07-.07,0,0,0-.07,0-.05a.9.9,0,0,0-.42-.27l.16.07c-.12-.05-.24-.12-.36-.16l-.24-.07-.47-.18.17.07-.1,0a.78.78,0,0,0-.54-.07.69.69,0,0,0-.41.32.7.7,0,0,0,.25.95Z" fill="#0d0d0d"/><path d="M48.65,37.16l.5,0a3.11,3.11,0,0,0,.44-.07,1.22,1.22,0,0,0,.36-.18,1,1,0,0,0,.32-.47l-.39.5.14-.11.18-.13a.75.75,0,0,0,.19-.35l-.42.41.43-.15a2.15,2.15,0,0,0,.27-.1l.18-.13a.3.3,0,0,0,0-.52l-.18-.09a1.2,1.2,0,0,0-.27-.08L50,35.57l.42.41a.8.8,0,0,0-.37-.46l-.14-.08.3.3c-.32-.56-1-.47-1.53-.44a.93.93,0,0,0,0,1.86Z" fill="#0d0d0d"/><path d="M68.57,15.77c.15,1.48.34,3,.53,4.44.09.71.18,1.42.28,2.13a7.38,7.38,0,0,0,.45,2.25c.3.56,1,.23,1.08-.29a3.5,3.5,0,0,0-.15-1.15c-.07-.32-.13-.65-.19-1-.13-.71-.26-1.41-.38-2.12-.25-1.42-.43-2.86-.61-4.29-.07-.64-1.08-.66-1,0Z" fill="#0d0d0d"/><path d="M75.56,32.52a7.19,7.19,0,0,1-1,2.53,6.41,6.41,0,0,1-.77,1,12.1,12.1,0,0,1-1.07.95.91.91,0,0,0,0,1.28.92.92,0,0,0,1.28,0,7.17,7.17,0,0,0,2.31-5.67c0-.41-.69-.56-.76-.1Z" fill="#0d0d0d"/><path d="M75.25,30.41c0,.11.07.21.11.31a.76.76,0,0,0,.07.13l0,0,0,.05.07.08a.46.46,0,0,0,.17.17l.16.06.17,0a.42.42,0,0,0,.24-.05.29.29,0,0,0,.14-.08.4.4,0,0,0,.16-.18.52.52,0,0,0,.07-.15l0-.17v-.17a.43.43,0,0,0,0-.11v-.1s0-.08,0-.11l0-.12a.55.55,0,0,0-.12-.24.7.7,0,0,0-.2-.18.57.57,0,0,0-.26-.08.62.62,0,0,0-.27,0l-.17.07a.85.85,0,0,0-.25.25l-.07.17a.77.77,0,0,0,0,.37Z" fill="#0d0d0d"/></g></g></g></svg>