<svg xmlns="http://www.w3.org/2000/svg" viewBox="0 0 92.04 66.29"><g id="Layer_2" data-name="Layer 2"><g id="OBJECTS"><path d="M68.25,32.74c-1.51-5.68-6.54-9.09-12.29-9.28-5.36-.17-10,2.33-14.11,5.47C39.94,18.46,28.48,8,18.66,16.82,8.54,26,12.77,41.54,17.27,52.36c1.73,4.16,4.66,13.09,10,13.87,2.48.36,5.32-1.11,7.64-1.86,4-1.3,8-2.67,11.82-4.35C57.06,55.51,71.8,46.16,68.25,32.74Zm-39.81,25-.27-.63c.28,0,.56,0,.84,0h0Z" fill="#e0314d"/><path d="M14.87,31.36C11.74,33,8.35,35.54,4.68,33.75.22,31.58,2.75,27,5.34,24.49c.22,0,.44.07.67.09a.49.49,0,0,0,.2-.94c-3-1.38-5.71-3.82-4.8-7.51.74-2.95,3.32-4.48,6.12-4.75a9.31,9.31,0,0,0,1.15,1,.45.45,0,0,0,.61-.66l-.35-.39h.17a.23.23,0,0,0,.09-.44,6.54,6.54,0,0,0-.86-.26,6.89,6.89,0,0,1-2.06-4.5C6,.82,12.3.76,15.34,3.32,18.76,6.21,19.41,10.8,20.17,15c.11.6,1,.42.93-.17C20.57,8.86,18-1.33,9.87.14c-6,1.09-6,6.63-3.08,10.38A7.24,7.24,0,0,0,.17,15.86a7.6,7.6,0,0,0,4.26,8.37c-2.94,2.26-5,6.54-1.91,9.57,3.73,3.63,9.47,1.13,13-1.51A.56.56,0,0,0,14.87,31.36Z" fill="#072d36"/><path d="M84.92,41.91C90.74,40,95,32,89.47,27.29c-6.6-5.64-18.11,1.6-22.14,7.14-.31.44.33.86.67.48,3.59-4,8.2-7.13,13.65-7.81,5-.62,10.22,2.26,8.57,8-1,3.53-4.34,5.32-7.67,6.08a.51.51,0,0,0-.18.09h-.25c-.38,0-.34.6,0,.66a.46.46,0,0,0,.49.4l.81-.08c2.89,1.17,2.72,5.24,1.57,7.86-1.28,2.93-5,5.38-7.28,1.86-.25-.4-.7-.24-.91.08a.32.32,0,0,0-.16.34c.84,4.69-3.67,8-8,6.55-3.94-1.31-5.71-5-6.7-8.73a.62.62,0,0,0-1.21.22c.91,5.11,4.61,10.22,10.29,10.1a6.58,6.58,0,0,0,6.6-6.62A4.53,4.53,0,0,0,81.32,55c2.13-.29,3.68-2,4.58-3.86C87.24,48.47,87.51,43.63,84.92,41.91Z" fill="#072d36"/><path d="M63.15,31.71A6.79,6.79,0,0,0,57.56,27c-.24,0-.33.36-.09.42a7.67,7.67,0,0,1,5.12,4.43C62.74,32.17,63.24,32,63.15,31.71Z" fill="#072d36"/><path d="M61.66,32.71a4.81,4.81,0,0,0-2.85-3.12c-.22-.09-.33.24-.12.34a4.2,4.2,0,0,1,2.37,3C61.14,33.34,61.81,33.16,61.66,32.71Z" fill="#072d36"/><path d="M27,62.23c-.86-1.48-1.86-2.83-2.59-4.38a25.23,25.23,0,0,1-1.72-5.23.27.27,0,0,0-.53.1c.55,3.4,1.89,7.31,4.28,9.86C26.64,62.84,27.15,62.57,27,62.23Z" fill="#072d36"/><path d="M29.09,62.37c-.83-2.32-2-4.56-3-6.81-.12-.27-.53-.08-.42.2.87,2.31,1.63,4.71,2.67,7C28.59,63.18,29.26,62.84,29.09,62.37Z" fill="#072d36"/></g></g></svg>