<svg xmlns="http://www.w3.org/2000/svg" viewBox="0 0 78.9 87.8"><g id="Layer_2" data-name="Layer 2"><g id="OBJECTS"><path d="M36.61,15.08a3.88,3.88,0,0,0-4.62.54,7.7,7.7,0,0,0-1.79,3.72c-1.89-1.07-4.19-2.31-6-1.54A3.14,3.14,0,0,0,22.7,22c1.64,4.27,8.37,5.72,12.35,4.94a1.64,1.64,0,0,0,1.23-1.62C38.7,22.46,41,17.51,36.61,15.08Z" fill="#e0314d"/><path d="M74.57,54.26c-2-6.54-3.95-13.11-6-19.62a.74.74,0,0,0-1-.51,33.81,33.81,0,0,1-5.39-3.88.51.51,0,0,0-.47-.08c-3-9.72-6.24-19.44-9.6-29A.8.8,0,0,0,51.19,0,215.3,215.3,0,0,0,.23,19.8c-.42.23-.21.85.18,1a.81.81,0,0,0-.06,1c4.73,7.08,9.11,14.35,13.42,21.66a51.33,51.33,0,0,0-3.31,11,.33.33,0,0,0,.1.32.41.41,0,0,0-.08.41c2,6.06,4.39,12,6.68,18q1.71,4.47,3.41,9c.49,1.27,1,3.65,2,4.73a.62.62,0,0,0,.52.46c2.4,1.68,6.17-.85,8.55-1.71l19.15-6.88L69,72.11c2-.75,5.74-1.27,7.76-3a2.4,2.4,0,0,0,1.5-.73,2.22,2.22,0,0,0-.41-3.55c-.13-.44-.28-.87-.39-1.25C76.53,60.48,75.53,57.38,74.57,54.26ZM66,34.25c-.72,1-1.44,1.92-2.15,2.9-.53-1.77-1.09-3.55-1.63-5.33A15.45,15.45,0,0,0,66,34.25ZM14.66,45c2.53,4.31,5.05,8.64,7.61,12.95a78.78,78.78,0,0,0-10.82-4C12.49,50.92,13.61,47.94,14.66,45Zm8,38.37c-2.58-4-3.86-9.81-5.61-14.28-1.86-4.76-3.72-9.52-5.77-14.21a.45.45,0,0,0-.13-.17l0,0c7.62,3.92,15.72,7,23.38,10.85.8.4,1.37-.84.59-1.25-3.77-1.94-7.65-4-11.61-5.76a.53.53,0,0,0,0-.12C21.07,53,18.33,47.84,15.41,42.74l.06-.17a.62.62,0,0,0-.63-.82c-4.12-7.14-8.57-14.12-13.09-21a.73.73,0,0,0-.39-.31A346,346,0,0,1,51.14,1.62,332.41,332.41,0,0,0,62.87,38.27a.57.57,0,0,0,.08.13A127.46,127.46,0,0,0,51.08,58.71q-2.59-1-5.18-2.09c-1.2-.49-2.15-1.1-3.47-.68-1.89.6-3.17,3.53-4.14,5q-2.84,4.28-5.59,8.6c-3.24,5.1-6.47,10.23-9.35,15.54A3.15,3.15,0,0,1,22.68,83.32ZM63.82,72.1,49.26,77.41,34.71,82.72l-5.46,2L25.61,86a4.44,4.44,0,0,1-1.3-.29c2.28-3.54,4.44-7.14,6.68-10.7,3-4.71,5.83-10.49,9.54-14.69,2.91-3.28,5.44-2,8.91-.6q3.38,1.37,6.77,2.64,7.27,2.75,14.69,5.11c.72.23,1.67.67,2.67,1C70.73,70.36,66.2,71.23,63.82,72.1Zm7.64-21.91q1.14,3.75,2.3,7.48c.57,1.88,2.29,5.16,2.28,7.21a2.68,2.68,0,0,0-1.25,2c-2-.71-4.88-1.44-5-1.48-1.73-.57-3.45-1.14-5.17-1.73-2.87-1-5.72-2-8.56-3.08-1.33-.5-2.67-1-4-1.54,4.87-8,9.68-15.94,14.89-23.73C68.38,40.31,69.94,45.25,71.46,50.19Z" fill="#072d36"/><path d="M22.1,61.26c-2-1-4.15-1.76-6.23-2.54a.25.25,0,0,0-.21.45c2,1,4,2,6.08,2.86A.43.43,0,0,0,22.1,61.26Z" fill="#072d36"/><path d="M22,63.62a7.1,7.1,0,0,0-2.45-1.57,11.52,11.52,0,0,0-2.93-.88.24.24,0,0,0-.09.48,13.11,13.11,0,0,1,2.71,1.05c.81.43,1.47,1.09,2.28,1.5A.39.39,0,0,0,22,63.62Z" fill="#072d36"/><path d="M63.25,69.69A14.05,14.05,0,0,0,58,72c-.29.21,0,.59.31.44a23.27,23.27,0,0,1,5.1-2C63.83,70.32,63.68,69.6,63.25,69.69Z" fill="#072d36"/><path d="M62.28,67.29c-1.23.51-2.48,1-3.72,1.48a.29.29,0,0,0,.2.55c1.27-.41,2.53-.85,3.81-1.24C63.09,67.92,62.78,67.08,62.28,67.29Z" fill="#072d36"/><path d="M49.61,28c-9.54,3.83-19.16,7.92-28.53,12.18a.37.37,0,0,0,.25.69,119.91,119.91,0,0,0,28.73-12C50.54,28.56,50.12,27.77,49.61,28Z" fill="#072d36"/><path d="M51.28,34C41.63,37.6,32.2,42.1,22.81,46.35c-.33.15-.15.68.19.54C32.55,43,42.3,39.3,51.58,34.82,52.1,34.57,51.83,33.76,51.28,34Z" fill="#072d36"/><path d="M47.76,44.8C41,46.71,34.38,49,27.72,51.12a.29.29,0,0,0,.19.54c6.72-2,13.52-3.8,20.16-6C48.64,45.48,48.32,44.64,47.76,44.8Z" fill="#072d36"/><path d="M38.07,10.35a.24.24,0,0,0-.09.48,5.39,5.39,0,0,1,3.65,3.23.32.32,0,0,0,.6-.21A5.11,5.11,0,0,0,38.07,10.35Z" fill="#072d36"/><path d="M41.23,9.53c-.34-.12-.58.36-.24.52a5.66,5.66,0,0,1,3,3.69c.14.45.94.3.84-.19A5.6,5.6,0,0,0,41.23,9.53Z" fill="#072d36"/></g></g></svg>