<svg xmlns="http://www.w3.org/2000/svg" viewBox="0 0 60.47 68.77"><g id="Layer_2" data-name="Layer 2"><g id="OBJECTS"><path d="M43.27,43.54c-3.23-7.1-10-4.52-13.84,0-4.35-4.41-12.57-10.46-14.92-2.46S22.64,57.42,29,59.51a1.31,1.31,0,0,0,.83,0,1.53,1.53,0,0,0,1.16,0C37.54,57.37,47.15,52.06,43.27,43.54Z" fill="#e0314d"/><path d="M58.89,9.56a1.41,1.41,0,0,0-1-1.34A1,1,0,0,0,57,7.53a28.65,28.65,0,0,0-6.21.28l0,0a1.51,1.51,0,0,0-1.84,1.71c.3,1.56.72,3.39.23,5-.57,1.83-2.31,2.75-3.93,1.53-2.18-1.64-2.86-4.5-2.63-7.1.06-.7-.58-.91-1.1-.72a1.17,1.17,0,0,0-.75-.09,46.12,46.12,0,0,1-5.86.68,1.36,1.36,0,0,0-2.38.35c-.7,2.22.41,7.78-2.95,8.07-3.71.32-4.3-4.16-5-7.11,1.31-.52.57-2.57-.91-2.36-2.32.33-4.64.55-7,.87a1.28,1.28,0,0,0-2.14,1c0,2.38.31,8.42-3.88,7.34-3.81-1-2.46-5.36-3.49-8a.61.61,0,0,0-.9-.34,1.12,1.12,0,0,0-.86,0c-.3,0-.62-.1-.91-.12A.51.51,0,0,0,4,8.61a3.76,3.76,0,0,0-2.15.61,1,1,0,0,0-1.39.84C-.29,16,.11,22.15.11,28.13a1.39,1.39,0,0,0,1.38,1.38c18.57-.71,37.07-.39,55.62.58a1.66,1.66,0,0,0,1.63-1.63C59.07,22.15,59.12,15.87,58.89,9.56Z" fill="#e0314d"/><path d="M15.51,2.06a.62.62,0,0,0-.83-.55.5.5,0,0,0-.08-.14A4.14,4.14,0,0,0,10.52.1,3.58,3.58,0,0,0,8,1.84a.23.23,0,0,0-.23.22l0,.32a3.62,3.62,0,0,0-.17.56.19.19,0,0,0,.09.2C7.45,5.1,7.4,7.06,7.39,9a25.3,25.3,0,0,0,.12,5.64c.42,1.84,1.63,3,3.52,2.7a.37.37,0,0,0,.33-.41,3.64,3.64,0,0,0,3.33-2.32C16.31,11.11,15.72,5.79,15.51,2.06ZM10.06,15.92a.25.25,0,0,0-.24,0C7.67,13.83,8.33,5.28,8.23,2.53A3.84,3.84,0,0,1,13.93,2a.4.4,0,0,0,.39.14C14.44,5.09,15.37,18.26,10.06,15.92Z" fill="#072d36"/><path d="M32.61,3.46c-.07-.46-.64-.52-1-.29C30.3.54,26.38.5,25.29,3.21a.37.37,0,0,0-.2.25c-1,3.5-1.4,8.79.84,12,1,1.4,3.22,2.23,4.51,1.1a.28.28,0,0,0,.17-.15v0a2.81,2.81,0,0,0,.45-.7.5.5,0,0,0,0-.34A22,22,0,0,0,32.61,3.46Zm-2.3,11.66c-2.86,3.07-4.35-2.5-4.61-4.28a25.07,25.07,0,0,1,.12-7.08,2.78,2.78,0,0,1,5.09.09.44.44,0,0,0,.56.2A27,27,0,0,1,30.31,15.12Z" fill="#072d36"/><path d="M49.62,2.56c-1.26-2.3-5.17-2.79-6.49-.29a.4.4,0,0,0-.63.17C41.36,6.31,41.4,12,44,15.36c1.27,1.61,4.31,1.8,4.32-.75a3.46,3.46,0,0,0,1.42-2.55,56.51,56.51,0,0,0,.69-9A.55.55,0,0,0,49.62,2.56Zm-.77,6.07c-.08,1.3.25,4.49-1.12,5.41a.46.46,0,0,0-.32.17h0a.35.35,0,0,0-.22.24c-1.56.49-2.49.13-2.78-1.08a9.33,9.33,0,0,1-.62-1.62A18,18,0,0,1,43,8.2a25.48,25.48,0,0,1,.17-5.45.27.27,0,0,0,.36,0,3.28,3.28,0,0,1,5.26.68.46.46,0,0,0,.39.26C49.05,5.3,49,7,48.85,8.63Z" fill="#072d36"/><path d="M60.22,50.3c0-6.93-.34-13.86-.93-20.77-.09-1.05-1.74-1.06-1.66,0a248.14,248.14,0,0,1,.67,28.34c-.15,4.43-1.47,8-6.66,9.05-2.4.46-5.36,0-7.81.06q-7.34,0-14.66,0c-4.88,0-9.77-.11-14.65-.21-2.43,0-5.45.35-7.81-.18-2.63.43-4.31-1-5-4.19,0-1,0-2,0-3,0-10.25.31-20.58-.2-30.82a.52.52,0,0,0-1,0C.09,35.5.25,42.49.23,49.44c0,3.65,0,7.29,0,10.94,0,1.54-.24,3.43.36,4.91,1.49,3.66,5.76,2.78,9.07,2.9,6.83.25,13.67.4,20.51.5,6.51.08,13,.11,19.54,0,3.38,0,7.59.23,9.43-3.22C61.27,61.45,60.22,54.72,60.22,50.3Z" fill="#072d36"/><path d="M42.46,38c-.6,0-.59.87,0,.92a4.69,4.69,0,0,1,4.3,4.13A.61.61,0,1,0,48,42.9,5.72,5.72,0,0,0,42.46,38Z" fill="#072d36"/><path d="M46.56,37.2c-.38-.14-.64.47-.28.66a6.16,6.16,0,0,1,3.35,4.82.54.54,0,0,0,1-.14A6.39,6.39,0,0,0,46.56,37.2Z" fill="#072d36"/><path d="M22.76,61.75c-.92-.77-2-1.34-2.83-2.21a13.51,13.51,0,0,1-2.23-3.13c-.18-.34-.65,0-.51.3.93,2.21,2.85,4.86,5.15,5.77C22.74,62.64,23.08,62,22.76,61.75Z" fill="#072d36"/><path d="M19.74,63.07a16.31,16.31,0,0,1-3.11-3.21c-.25-.33-.71.09-.55.42a11.74,11.74,0,0,0,3,3.64A.54.54,0,1,0,19.74,63.07Z" fill="#072d36"/></g></g></svg>