<svg xmlns="http://www.w3.org/2000/svg" viewBox="0 0 60.49 85.49"><g id="Layer_2" data-name="Layer 2"><g id="OBJECTS"><path d="M60.36,22.54a13.59,13.59,0,0,0-11-11.67c-5-.85-9.34,1.53-13.1,4.55-.77-5.6-2.66-11.16-7.95-14-6-3.24-12.15-.47-15.44,5.13-6.19,10.56,0,27,9.91,34.36a8.5,8.5,0,0,0,.61.7A7.63,7.63,0,0,0,26,43.48a2.06,2.06,0,0,0,2.13,1.17C40.28,43.64,62.37,39.14,60.36,22.54ZM27.9,6.58a7.65,7.65,0,0,0-1.63-1.1A3.19,3.19,0,0,0,26,5a9.64,9.64,0,0,1,1.31.82,9,9,0,0,1,.93.79Z" fill="#e0314d"/><path d="M47,56.42a.63.63,0,0,0-.9-.65c-1.1-1.58-2.23-3.12-3.43-4.63a.3.3,0,0,0-.53.21.9.9,0,0,0-.72-.05s0,0-.06,0a22.41,22.41,0,0,0-9.61-1.94.29.29,0,0,0-.29.26.7.7,0,0,0-1.16.41c-.77,5.79-3.16,21.81-11.86,20.88a7.55,7.55,0,0,1-3.12-1C14,64,15.05,59,17.63,53.67a.4.4,0,0,0,.28-.49.13.13,0,0,1,0-.06L18,53a.19.19,0,0,0-.16-.28c-.41-2.1-.91-4.19-1.47-6.24a.3.3,0,0,0-.39-.22.38.38,0,0,0-.14-.14.55.55,0,0,0-.17-.77c-2.37-1.7-4.76-3.43-7.26-4.93a.41.41,0,0,0-.37,0,.36.36,0,0,0-.43.1C1.43,48.2-2,60.79,1.3,70.36,2.94,81,11.7,87.83,23.11,84.74,36,81.26,44.74,69.09,47,56.42ZM31.67,50.2a.72.72,0,0,0,0-.21l0,0c3.08.75,6.1,1.49,9.14,2.38-.38,2.44-.83,4.91-1.44,7.35h-.06c-3.19-.07-6.43-.2-9.62,0h0A68,68,0,0,0,31.67,50.2ZM14,68.9c-2.71-2.81-2.42-8.12-1.27-13,.69.52,1.39,1,2.1,1.52A20.59,20.59,0,0,0,14,68.9Zm2.89-15.61a.56.56,0,0,0,.09.19,15.79,15.79,0,0,0-1.86,3.21c-.74-.49-1.5-.95-2.24-1.42a53.59,53.59,0,0,1,2.8-8.21C16.05,49.15,16.44,51.23,16.93,53.29ZM8,41.34c2.18,1.79,4.53,3.41,6.84,5a.64.64,0,0,0,.33.12A34.63,34.63,0,0,0,11.63,55,81.28,81.28,0,0,1,4,49.11C5.17,46.46,6.55,43.89,8,41.34ZM1.17,62.1a29.64,29.64,0,0,1,2.6-12.39,38.82,38.82,0,0,0,7.64,6.18c-1.33,5.64-1.18,11.74,3.06,14.71a.4.4,0,0,0,.41.28,9.28,9.28,0,0,0,2.11,1C23.66,74,27.43,67.23,29.52,60.39a.28.28,0,0,0,.18.09c3.11.37,6.26.38,9.38.45A31.57,31.57,0,0,1,32,74.52c-5,5.34-12.93,8.5-20,5.35C5.24,76.84,1.39,69.3,1.17,62.1ZM10.9,83.2c-4.38-1.89-6.81-5.56-8.2-9.73a18.16,18.16,0,0,0,9.39,8c6.49,2.61,13.74.4,18.93-3.93,5-4.15,7.75-9.9,9.48-16,1,.16,2.11.32,3.17.46.62.08.77-.9.15-1-1-.11-2.07-.19-3.1-.27a81.43,81.43,0,0,0,1.76-8.71V52q1.38,2.22,2.86,4.36a.42.42,0,0,0,.3.19C43.85,67.33,37.1,77.3,27.11,82.08,22.12,84.47,16.13,85.46,10.9,83.2Z" fill="#072d36"/><path d="M14,18.23c-.91-3.15-.23-5.44,1.09-8.3a.43.43,0,0,0-.71-.45c-2.1,2.3-2.21,6.26-1,9A.32.32,0,0,0,14,18.23Z" fill="#072d36"/><path d="M15.92,15.68a7.24,7.24,0,0,1,1.53-5.62.49.49,0,0,0-.76-.63,7,7,0,0,0-1.3,6.38C15.48,16.11,16,16,15.92,15.68Z" fill="#072d36"/><path d="M55.33,20.76a8.46,8.46,0,0,0-4.45-6.61.28.28,0,0,0-.29.46,10.83,10.83,0,0,1,2.63,2.77A12.93,12.93,0,0,1,54.56,21C54.69,21.4,55.35,21.19,55.33,20.76Z" fill="#072d36"/></g></g></svg>