<svg xmlns="http://www.w3.org/2000/svg" viewBox="0 0 98.07 183.99"><g style="isolation:isolate"><g id="Layer_2" data-name="Layer 2"><g id="OBJECTS"><path d="M96.49,103.75a4.82,4.82,0,0,0-1.63-3.51c-.06-4.69-.25-9.37-.6-14a102.2,102.2,0,0,0-.42-13.34,21.93,21.93,0,0,0-5.4-11.74,40.06,40.06,0,0,0-4.38-4.26c-1.71-1.48-3.28-2.79-5.57-3-.93-.73-1.85-1.47-2.79-2.2a32.76,32.76,0,0,0-5.33-3.44A26.36,26.36,0,0,0,67.77,47a32.59,32.59,0,0,1,0-5.76,12.83,12.83,0,0,1,1.8-5.19,24.22,24.22,0,0,1,3.14-3.56c2.55-2.61,5.48-5.32,6.33-9a8.52,8.52,0,0,0-.46-5.59,4.26,4.26,0,0,0-4.32-2.61,1.2,1.2,0,0,0-.87.87,2.87,2.87,0,0,0,0,.31A20.69,20.69,0,0,0,72,19.58a1.34,1.34,0,0,0-.07.18C70,20,68.28,21,66.39,21.45a45.7,45.7,0,0,1-6.16,1,127.75,127.75,0,0,1-14,.69,106.55,106.55,0,0,1-13.58-1,11.92,11.92,0,0,1-5.17-1.78A10,10,0,0,1,25,17.48a.84.84,0,0,1,.05-.17c.34-1.18-.66-2.86-2-2.68-3.79.5-4.89,5-4.27,8.24.74,3.8,3.82,6.12,6.52,8.56s5.2,4.93,6.25,8.36c0,.08,0,.18.07.27a.3.3,0,0,0,0,.1A6.1,6.1,0,0,1,31.2,42c-.2.59-.3,1.2-.45,1.81s-.25,1.24-.43,1.86a4.44,4.44,0,0,0-.22,2.28C21.48,52.79,12.13,57.19,7,65a4.89,4.89,0,0,0-1.93,2.67c-.4,1.3-.74,2.59-1,3.9a26.85,26.85,0,0,0-.85,5,4.35,4.35,0,0,0,.26,1.83A5.08,5.08,0,0,0,3,80.49q-.27,24.17-.53,48.33-.15,12.33-.28,24.66c-.06,5.9-.55,12.44,3.9,17,8.73,9,26.07,10.69,37.81,11.41,13.17.8,30.3.36,41.53-7.47a5,5,0,0,0,1.88-2.33,16.54,16.54,0,0,0,3.6-1.62,10.62,10.62,0,0,0,4-5.55c1.84-5.92,1.85-13,2.19-19.09C97.86,131.83,97.17,117.77,96.49,103.75Z" fill="#fff"/><path d="M74.69,4.23A1.79,1.79,0,0,0,73,2.92a24.82,24.82,0,0,1-6.23-.75c-2-.37-4.11-.71-6.17-1A56.88,56.88,0,0,0,48.28.21,106.14,106.14,0,0,0,35.87,2.07c-2.06.37-4.11.85-6.14,1.31a48.32,48.32,0,0,0-6.08,1.54,2.57,2.57,0,0,0-.33.18A1.67,1.67,0,0,0,22,7.24c.77,2.26,1.6,4.5,2.33,6.78l1.05,3.3a9.16,9.16,0,0,0,.6,1.61,3,3,0,0,0,1.64,1.28,7.71,7.71,0,0,0,2,.51,1.59,1.59,0,0,0,1.13.59,152.76,152.76,0,0,0,20.63.45c3.36-.16,6.71-.46,10-.88,1.73-.22,3.46-.47,5.18-.76,1.55-.26,3.74-.27,5-1.18a1.77,1.77,0,0,0,.68-1.71,3,3,0,0,0,.16-.59c.07-.46.15-.92.23-1.37s.14-1.09.2-1.64a4.17,4.17,0,0,0,0-1.45,4.73,4.73,0,0,0,0-.53,1.53,1.53,0,0,0-.09-.34,3.92,3.92,0,0,0,.43-.68c.33-.65.59-1.37.86-2.05A7.84,7.84,0,0,0,74.69,4.23Z" fill="#ff8b4a"/><path d="M78.07,92.49c-4.23-5.6-12.44-6.39-18-2.34C56.72,92.63,55,96.21,53.49,100a46.82,46.82,0,0,0-2.6,10.36c-.29-.75-.59-1.5-.92-2.24a42.74,42.74,0,0,0-7.19-11.4,20.93,20.93,0,0,0-5.12-4.35A18,18,0,0,0,31,90.66a10.14,10.14,0,0,0-8.18,2.9c-4.36,1.58-5.52,6.59-5.59,10.82A36.57,36.57,0,0,0,20,118.07c3.36,8.85,10,16.06,17,22.18,2,1.71,4.07,3.3,6.13,4.93,1,.81,2.09,1.59,3.19,2.31a15.19,15.19,0,0,0,1.78.95c.15.07.31.14.45.22a2.36,2.36,0,0,0,2.71,1.28,2.14,2.14,0,0,0,1.36-.92c11.7-9.14,22.22-21.58,26.52-36C81.1,106.44,82.59,98.46,78.07,92.49Z" fill="#d91e50"/><path d="M96.11,140.61a49.14,49.14,0,0,0-.34-8.83c.16-9.43.23-18.86.16-28.3-.06-7.59.11-15.46-.87-23.1a9.21,9.21,0,0,0,.3-2.31,16.48,16.48,0,0,0-.58-3.27,44.18,44.18,0,0,0-2-5.58c-.4-1-.83-1.9-1.29-2.86-.18-.4-.34-.81-.52-1.22C86.6,55.63,77.65,49,67.71,46.22c-.11,0-.35-.08-.52-.14V46a21.25,21.25,0,0,1-.14-2.26,30.82,30.82,0,0,1,0-4.19,9.68,9.68,0,0,1,3.23-6.76c1.1-1,2.15-1.91,3.3-2.84a13.51,13.51,0,0,0,3.06-3.34c1.54-2.5,2.86-4.84,3.18-7.81a.75.75,0,0,0-.94-.78,5.11,5.11,0,0,0-.57-1.89c-.27-.49-.92-.21-1,.26a7.21,7.21,0,0,1-2.65,5.25,21.25,21.25,0,0,1-5.2,2.7c-4,1.52-8.49,2.06-12.73,2.63q-3.91.54-7.85.83l-.13-.05a13.45,13.45,0,0,0-2.75-.5c-1.7-.17-3.43-.18-5.13-.3-3.43-.23-6.9-.45-10.31-.9-2.62-.34-5.39-.88-7.33-2.82A3.77,3.77,0,0,1,23,17.79c1.16,3,4.69,4.52,7.75,5.19a83.09,83.09,0,0,0,14.67,1.54,80.89,80.89,0,0,0,14.43-.43,46.36,46.36,0,0,0,6.7-1.4,27.75,27.75,0,0,0,6.59-2.6A1.9,1.9,0,0,0,74,18l0-.17c.05-.26.09-.51.13-.76l.06-.35a2.82,2.82,0,0,0,.07-.47.29.29,0,0,0,0-.09l0-.28a1.13,1.13,0,0,0-.11-.83,1.09,1.09,0,0,0-.52-.45,1.07,1.07,0,0,0-1.34.45l-.19.33c.1-.22.19-.44.28-.66,1.21-2.92,1.45-6.1,2.11-9.17.22-1-1.22-1.74-1.74-.74-1.22,2.37-2.78,4.48-4.1,6.77a23,23,0,0,1-1.83,3c-1.38,1.65-4.68,1.82-6.63,2.18-3.26.59-6.54.81-9.84,1.11a51.57,51.57,0,0,1-10.24.28,46.07,46.07,0,0,1-5.48-.92,8.5,8.5,0,0,1-4.2-2,16.55,16.55,0,0,1-2.67-3.9A16.85,16.85,0,0,0,26,8.77c-.74-.91-1.66-1.39-2.44-2.22s-1.81.06-1.65,1c.12.69-.08,1.32,0,2,.09.48.2,1,.31,1.43a16.11,16.11,0,0,0,1.22,3.27c.19.43.39.84.59,1.26a.91.91,0,0,0-.88-.25,4.5,4.5,0,0,0-3.11,2.62.92.92,0,0,0-1.15.63,8.73,8.73,0,0,0,1,7.16,9,9,0,0,0,2.25,2.86c1.24.89,2.69,1.49,3.87,2.45,1.89,1.53,2.53,3.9,3,6.17s1.29,5.45.25,7.72c-1,2.12-3.59,3.56-5.47,4.8-2.25,1.48-4.63,2.75-6.88,4.22-4.67,3-8.87,6.78-11,12a37.45,37.45,0,0,0-2.09,9.59c-.4,3.39-.72,6.8-1,10.2-.55,7-.86,14.13-1,21.2-.22,14.26,0,28.54.11,42.8a102.56,102.56,0,0,0,.34,10.81A13,13,0,0,0,4,165.8c.43.72,1,1.33,1.45,2a16.61,16.61,0,0,0,1.34,2,24.82,24.82,0,0,0,6.65,5.85,24.21,24.21,0,0,0,8.72,3.59.74.74,0,0,0,.86-.53,46.81,46.81,0,0,0,10.63,2.46c13.07,1.55,26.56,2.14,39.21-1.71,1.2.65,3-.28,4.09-.71a37.76,37.76,0,0,0,4.4-2c.81-.43,1.6-.87,2.36-1.35a1.17,1.17,0,0,0,1,.37c5.06-.46,8.17-5.29,9.47-9.9l0-.09a19.7,19.7,0,0,0,.83-2.38c1.08-1.24,1.14-3.28,1.22-4.82.1-2.18.21-4.37.23-6.56C96.49,148.26,96.31,144.43,96.11,140.61ZM24.36,16c.29.56.6,1.1.93,1.63a8.15,8.15,0,0,1-1-1.14A1,1,0,0,0,24.36,16ZM37.09,34.19a4.27,4.27,0,0,1,.57-.79c.88.05,1.77.09,2.65.11a92.47,92.47,0,0,0,12.56-.64c1-.12,2-.24,3-.38.22,0,.44.06.67.09s.72.13,1.07.14.94-.09,1.41,0c1.18.16,1.2,1.52,1.19,2.51a17.6,17.6,0,0,1-.57,4.85,4.34,4.34,0,0,1-3,3.17,22.31,22.31,0,0,1-5.28.78,30.46,30.46,0,0,1-6.4-.37,56.09,56.09,0,0,1-6.21-.81c-1.43-.36-1.79-1.64-2.13-2.94A7.68,7.68,0,0,1,37.09,34.19Zm53.16,97.19q-.06,1.17-.06,2.34v1.21c0,2.66-.12,5.31-.19,8a41.58,41.58,0,0,1-3.26,14.47A30.13,30.13,0,0,1,79,168.12c-3.71,3.13-8.45,4.67-13.19,5.38a83.26,83.26,0,0,1-16.48.42,85.57,85.57,0,0,1-16.78-2.45c-4.84-1.23-9.78-2.81-13.9-5.69s-6.36-6.8-7.8-11.41a107.75,107.75,0,0,1-3.46-15.44c-.08-9.7-.15-19.39,0-29.08.08-6.91.23-13.82.63-20.71.2-3.45.46-6.89.8-10.33.18-1.89.38-3.79.7-5.68,5.09-10.87,17.41-17.7,28.5-20.9,7.34-2.11,15.4-3.27,22.89-1.38A57.49,57.49,0,0,1,71.56,55.2a40.7,40.7,0,0,1,9.21,5.67,30.17,30.17,0,0,1,4.1,4.35,19.84,19.84,0,0,1,2,3.39,34,34,0,0,1,2.23,7.81,126.77,126.77,0,0,1,1.2,18.68C90.5,107.19,90.45,119.29,90.25,131.38Z" fill="#c7d0d8" style="mix-blend-mode:multiply"/><path d="M73.2,2.81C56.49-1.43,38.81.92,22.34,5c-1.35.33-1.11,2.61.33,2.47.51,0,1-.12,1.49-.19A1.25,1.25,0,0,0,25.49,8l5-.49c3.59-.19,7.21-.1,10.83-.06,0,.45,0,.9.08,1.32.11,1.32.28,2.65.44,4a3.41,3.41,0,0,0,1,2.31,3.2,3.2,0,0,0,2.31,1,35.53,35.53,0,0,1,3.72-.22,12.35,12.35,0,0,0,4.29-.14,3.4,3.4,0,0,0,2.43-3.2c0-1.85-.15-3.71-.25-5.56l5.74-.43c3.9-.28,7.85-.81,11.76-.82A1.44,1.44,0,0,0,73.2,2.81Z" fill="#fff" style="mix-blend-mode:soft-light"/><path d="M70.08,85.3c-.37-3.48-.87-7-1.46-10.42-.3-1.75-.61-3.53-1.06-5.25a19.51,19.51,0,0,0-1.75-4.83A1,1,0,0,0,64,65a22.08,22.08,0,0,0-.36,4.15c0,.18,0,.37,0,.55-.38-2.88-.86-5.75-1.23-8.63-.14-1.11-1.77-1.19-1.78,0,0,.93,0,1.86-.07,2.8-.85-.94-2.82-.36-2.68,1,.48,5.09,1.41,10.13,2.08,15.2l0,1.11c-.11,6.56-.26,13.12-.49,19.68-.47,13.3-1.36,26.58-2.76,39.81-.8,7.5-2,15-2.66,22.5a3.89,3.89,0,0,0,3.4,3.85,4,4,0,0,0,4-2,3.32,3.32,0,0,0,1.43.28,3.89,3.89,0,0,0,3.64-2.68,4.46,4.46,0,0,0,.51.07,3.51,3.51,0,0,0,3.32-2.52,18.66,18.66,0,0,0,.69-4.83c.12-1.63.23-3.26.34-4.89.19-3.1.35-6.21.47-9.31.24-6.22.37-12.44.34-18.66A362.57,362.57,0,0,0,70.08,85.3Z" fill="#fff" style="mix-blend-mode:soft-light"/><path d="M78.63,20.34a13.71,13.71,0,0,1-4.39,8.33c-2.44,2.13-5.07,3.64-6.56,6.66a15.35,15.35,0,0,0-1.62,8.47c.14,1.24.31,3,1.29,3.89a25,25,0,0,0,3.72,2.46c5.09,3,10.81,5.28,15.28,9.26,4.91,4.35,6.89,11.12,7.6,17.43.86,7.55,1.13,15.22,1.44,22.81q.47,12,.58,23.92c.07,8,0,15.94.07,23.92,0,3.92-.05,7.87-.27,11.78A16.05,16.05,0,0,1,92.23,169c-4.22,5.08-10.85,8.06-17,10a90.49,90.49,0,0,1-20.88,3.45,92.89,92.89,0,0,1-21.19-1.16,58.69,58.69,0,0,1-19.85-6.59,25.79,25.79,0,0,1-7.19-5.82,15.78,15.78,0,0,1-3.41-9.54c-.41-7.89-.34-15.85-.38-23.74-.09-15.94.18-31.91,1.07-47.83.38-6.85.41-14.13,3-20.61,2.38-6,7.33-9.68,12.81-12.72,2.62-1.45,5.31-2.8,7.88-4.35a24.47,24.47,0,0,0,3.71-2.48c.92-.82,1.07-2.57,1.2-3.74a14.08,14.08,0,0,0-1.7-8.32C28.63,32.6,26,31.13,23.59,29s-4.5-5.25-4.62-8.68c0-.46-.73-.46-.71,0a16.08,16.08,0,0,0,1.67,7.07c1.23,2.39,3.37,3.78,5.4,5.43a12.1,12.1,0,0,1,3.89,13.53l.48-.63C21.46,51.9,10.15,54.56,5.27,64.43,2.73,69.56,2.1,75.36,1.72,81,1.26,87.7.93,94.43.63,101.15,0,115.09-.13,129.05.11,143c.06,3.49.15,7,.3,10.47a53.52,53.52,0,0,0,.85,9.71c1.17,5.1,4.93,9,9.2,11.75,10.07,6.53,22.54,8.19,34.27,8.93A94.63,94.63,0,0,0,63.07,183a69.07,69.07,0,0,0,17-4.26c5-2,10-4.79,13.4-9a16,16,0,0,0,3.32-7,61.5,61.5,0,0,0,.69-9.69c.25-7,.59-13.95.6-20.93s-.07-13.79-.25-20.68-.44-13.78-.77-20.67c-.29-6.21-.36-12.56-1.54-18.68A29,29,0,0,0,92.94,64a22.71,22.71,0,0,0-5-6.14c-3.81-3.43-8.47-5.67-12.92-8.13a53.59,53.59,0,0,1-6.46-4.08l.56.72A11.77,11.77,0,0,1,68.9,39a11.87,11.87,0,0,1,4.31-5.87c2.1-1.64,4.13-3.16,5.55-5.46a12.23,12.23,0,0,0,1.75-7.37.94.94,0,0,0-1.88,0Z" fill="#0d0d0d"/><path d="M21,7.14a50,50,0,0,0,1.83,6.23c.65,1.9,1.24,3.85,2,5.71.65,1.6,2.17,2.17,3.72,2.67a28.47,28.47,0,0,0,5.57,1,100.3,100.3,0,0,0,24.3-.39c4.59-.6,9.13-1.46,13.65-2.45a.85.85,0,0,0,.6-.6c.43-2.26.87-4.51,1.38-6.75s1.27-4.43,1.7-6.68a.8.8,0,0,0-1.54-.42,50.17,50.17,0,0,0-1.8,6.65c-.53,2.23-1,4.48-1.39,6.74l.6-.59a115.58,115.58,0,0,1-28.93,3.36q-3.58-.06-7.15-.4a30,30,0,0,1-7-1.26,5.28,5.28,0,0,1-1.52-.71A4.3,4.3,0,0,1,26,17.16l-1.25-3.54A54.56,54.56,0,0,0,22,6.74c-.29-.55-1.07-.15-1,.4Z" fill="#0d0d0d"/><path d="M22.14,7.67A2.12,2.12,0,0,0,22,6.89a4.85,4.85,0,0,0-.29-.49c-.1-.3,0-.44.42-.4a9.25,9.25,0,0,1,1.74-.54c.58-.19,1.15-.38,1.74-.55C27.77,4.25,30,3.7,32.21,3.22A91.77,91.77,0,0,1,46.69,1.28a89,89,0,0,1,28.47,3l-.45-.79a18.77,18.77,0,0,0-.65,4.71c0,.39.63.64.81.22A18.94,18.94,0,0,0,76,3.81.65.65,0,0,0,75.5,3,96.12,96.12,0,0,0,27.67,3a38.25,38.25,0,0,0-6.38,2c-1.65.78-.4,1.67-.07,2.81a.47.47,0,0,0,.92-.13Z" fill="#0d0d0d"/><path d="M23.6,4.64A1.9,1.9,0,0,0,21.39,6c-.22,1.3,1.17,1.79,2.19,2a95.38,95.38,0,0,0,12.29.94A201.94,201.94,0,0,0,61.42,7.49,81.59,81.59,0,0,0,74.88,5.3a.65.65,0,0,0,.45-.78,1.48,1.48,0,0,0-1.91-1.13.39.39,0,0,0-.09.7,3.08,3.08,0,0,1,.84.92l.38-.94c-4.12,1.58-8.79,1.75-13.13,2.2-4.53.48-9.07.88-13.62,1.12s-9.09.32-13.63.14q-3.41-.12-6.79-.46-1.65-.17-3.3-.39c-.24,0-1.59,0-1.28-.78.07-.18.82-.41,1-.49.41-.18.15-.74-.21-.77Z" fill="#0d0d0d"/><path d="M19.28,18.88a2.4,2.4,0,0,0,.5-.71,6.33,6.33,0,0,1,.44-.7,6.48,6.48,0,0,1,1.16-1.18,5.94,5.94,0,0,1,1.36-.84,6.84,6.84,0,0,1,.72-.25c.29-.09.62-.1.89-.21a.54.54,0,0,0,.37-.49.52.52,0,0,0-.37-.5,4.08,4.08,0,0,0-2,.42,7,7,0,0,0-1.74,1,6,6,0,0,0-1.27,1.47,2.59,2.59,0,0,0-.6,1.82.3.3,0,0,0,.5.13Z" fill="#0d0d0d"/><path d="M79.51,18a1,1,0,0,0-.07-.5c-.07-.15-.14-.29-.22-.43a4.16,4.16,0,0,0-.62-.87,7.47,7.47,0,0,0-1.68-1.28A11.2,11.2,0,0,0,75,14.17,3.89,3.89,0,0,0,72.63,14a1,1,0,0,0-.69.91.94.94,0,0,0,.69.9,3.39,3.39,0,0,0,.64.06l.36-.05c.29,0-.1,0,.08,0a5.62,5.62,0,0,1,.92,0,4.91,4.91,0,0,1,1.58.43,6.08,6.08,0,0,1,1.48.91c.24.2.49.38.72.59l.34.33a1.36,1.36,0,0,0,.39.25.25.25,0,0,0,.37-.21Z" fill="#0d0d0d"/><path d="M22.06,21.54c-.12,3.63,4.92,4.42,7.53,5a72.71,72.71,0,0,0,12,1.67A73.48,73.48,0,0,0,54,27.82q3.07-.34,6.09-1c1.88-.38,4.21-.65,5.8-1.79a.31.31,0,0,0-.16-.57c-1.68-.11-3.45.56-5.09.91q-2.84.6-5.72,1a74.33,74.33,0,0,1-11.26.55,71.94,71.94,0,0,1-11.25-1.21c-1.8-.34-3.59-.74-5.36-1.23s-3.5-1.17-4.25-3.06a.39.39,0,0,0-.77.1Z" fill="#0d0d0d"/><path d="M69.37,24c1-.37,2-.66,2.93-1.1a7.84,7.84,0,0,0,1.19-.69,10.48,10.48,0,0,0,1.08-.81c.35-.32.82-.89.68-1.4a.62.62,0,0,0-.59-.47.87.87,0,0,0-.72.56,5.39,5.39,0,0,1-.63,1.06,4.58,4.58,0,0,1-1,.79c-1,.6-2.12,1-3.14,1.56-.27.14-.09.61.21.5Z" fill="#0d0d0d"/><path d="M35.37,46.88a7.12,7.12,0,0,0,3.1.83c1.08.17,2.16.31,3.25.4a44.6,44.6,0,0,0,6.64,0,43.27,43.27,0,0,0,6.3-.91c1.16-.25,2.29-.57,3.42-.9.85-.25,1.81-.32,2.26-1.14a.4.4,0,0,0-.23-.58c-.87-.34-1.74.25-2.59.52-1.05.32-2.13.59-3.21.83a43,43,0,0,1-6.4.88,42.64,42.64,0,0,1-6.19-.08c-1.11-.1-2.23-.23-3.33-.42A8.51,8.51,0,0,0,35.48,46c-.44.08-.41.66-.11.87Z" fill="#0d0d0d"/><path d="M50.68,150.15a114.48,114.48,0,0,1-14.33-11.28,74.49,74.49,0,0,1-6.42-6.27,58.85,58.85,0,0,1-6.42-9.16C19.3,116.29,16,106.75,19.38,98.6a12.1,12.1,0,0,1,17.21-6.15c6.66,3.66,11.3,11.42,13.53,18.47a.85.85,0,0,0,1.67-.22c.71-6.73,1.82-13.62,7.3-18.23a15.85,15.85,0,0,1,8.84-3.85,11.32,11.32,0,0,1,9.12,3.74c5,5.34,3.83,13,1.75,19.38a67.18,67.18,0,0,1-11.28,21.08c-5.23,6.44-11.41,11.7-17.59,17.18-.63.56.21,1.68.9,1.18a94.67,94.67,0,0,0,17.4-16.48,69.72,69.72,0,0,0,12.23-22.51c2.22-6.79,3.19-14.78-1.8-20.64a13.14,13.14,0,0,0-9.13-4.7,16.14,16.14,0,0,0-9.63,2.81c-7,4.59-9.58,13-9.81,21l1.66-.23C49,103.7,45.4,97,39.39,92.54a15.08,15.08,0,0,0-9.14-3.21,13.48,13.48,0,0,0-9.61,4.45c-5.81,6.5-4.52,16.82-1.47,24.26A56,56,0,0,0,32.4,137.13a101.37,101.37,0,0,0,17.84,13.78c.48.29.91-.46.44-.76Z" fill="#0d0d0d"/><path d="M11.64,166.14a92.12,92.12,0,0,1,28.27-6.3,142.78,142.78,0,0,1,30,1.62c2.82.41,5.63.88,8.44,1.39s6.18.81,8.78,2.11c1.42.71,1.82-1.76.45-1.66-2.65.18-5.45-.63-8-1.08s-5.14-.88-7.72-1.26c-5.11-.76-10.24-1.32-15.39-1.62A115.31,115.31,0,0,0,27.08,161a75.14,75.14,0,0,0-15.58,4.81c-.18.08-.05.4.14.32Z" fill="#0d0d0d"/><path d="M7.71,75.09a20.9,20.9,0,0,1,1.22-4.46,21.27,21.27,0,0,1,2-4.1,19.68,19.68,0,0,1,2.8-3.44A30.81,30.81,0,0,0,17,60c.29-.37-.18-.78-.54-.71a8.16,8.16,0,0,0-3.92,2.6,21,21,0,0,0-3.06,3.9,19.43,19.43,0,0,0-2,4.4,18.19,18.19,0,0,0-.66,4.86c0,.57.81.54.88,0Z" fill="#0d0d0d"/><path d="M21.44,58.34l.83-.53a3.05,3.05,0,0,0,.55-.46l.37-.34a1,1,0,0,0,.25-1l0-.07-.08.61a2.06,2.06,0,0,0,.21-.48.59.59,0,0,0-.57-.75,2.41,2.41,0,0,0-.53.07l.6.08-.06,0a1,1,0,0,0-1,0,6.21,6.21,0,0,0-1,.66l-.73.65a1,1,0,0,0-.29.7,1,1,0,0,0,.21.6,1,1,0,0,0,1.28.26Z" fill="#0d0d0d"/><path d="M22.36,110.17A19.41,19.41,0,0,1,24,100.29a6.83,6.83,0,0,1,6.41-4c1.35.08,1.37-2.09,0-2.11a8.94,8.94,0,0,0-8.25,4.72,17.87,17.87,0,0,0-1.63,5.69,10,10,0,0,0,.85,5.83.53.53,0,0,0,1-.27Z" fill="#0d0d0d"/><path d="M57.5,104.65c1-3.42,2.47-7.25,5.5-9.39a8.34,8.34,0,0,1,4.76-1.59,15.41,15.41,0,0,1,5.53,1.45c1,.43,1.76-1.3.77-1.82-3.69-1.94-8.48-2.46-11.88.29s-4.48,6.8-5.42,10.86a.38.38,0,0,0,.74.2Z" fill="#0d0d0d"/><path d="M76.24,97.81c0,.23.05.45.08.68l0-.23a2.25,2.25,0,0,1,0,.26l0-.25s0,0,0,.07a1.1,1.1,0,0,0,0,.51.36.36,0,0,1,0,.11,2.93,2.93,0,0,0,0,.29,2.23,2.23,0,0,0,.27.73,1,1,0,0,0,1.26.41,1,1,0,0,0,.48-.41l.1-.25a1,1,0,0,0,0-.53,2.7,2.7,0,0,0-.26-.72c0-.07-.07-.15-.11-.23s0-.07,0-.11a1.39,1.39,0,0,0-.21-.27l.14.18-.11-.19.09.21a4.42,4.42,0,0,1-.15-.48.82.82,0,0,0-.9-.58.7.7,0,0,0-.46.23.76.76,0,0,0-.24.57Z" fill="#0d0d0d"/><path d="M34.8,96.83a3.92,3.92,0,0,1,.32.25L35,96.91a2.63,2.63,0,0,0,.39.49,5.47,5.47,0,0,0,.54.41l.18.11a2.19,2.19,0,0,0,.44.2l.22.08a1.27,1.27,0,0,0,.91-.14l.2-.16a.75.75,0,0,0,.21-.32.48.48,0,0,0,.07-.26.78.78,0,0,0,0-.4,1.28,1.28,0,0,0-.65-.82,2.55,2.55,0,0,0-.58-.27l-.34-.12-.19,0-.09,0a1.37,1.37,0,0,0-.57,0l.27,0h-.25l.23,0c-.14,0-.27-.07-.4-.1a.77.77,0,0,0-.87.35.87.87,0,0,0-.1.39.73.73,0,0,0,.22.54Z" fill="#0d0d0d"/><path d="M22.38,114.52c0,.11,0,.23,0,.34s0,.23,0,.35a2.78,2.78,0,0,0,.06.58,1.33,1.33,0,0,0,.86,1l-.27-.12.05,0-.21-.17a1.13,1.13,0,0,0,.34.31,1,1,0,0,0,1.41-.57,1.59,1.59,0,0,0,0-.48l-.15.53a1.28,1.28,0,0,0,.19-.62,1.15,1.15,0,0,0-.08-.41,4.31,4.31,0,0,0-.22-.49c-.08-.16-.17-.32-.26-.48l.1.22a1.83,1.83,0,0,1-.08-.25.89.89,0,0,0-1.75.24Z" fill="#0d0d0d"/></g></g></g></svg>