<svg xmlns="http://www.w3.org/2000/svg" viewBox="0 0 246.05 225.47"><g id="Layer_2" data-name="Layer 2"><g id="OBJECTS"><path d="M2.3,60.61H7.51l10.6,27,10.61-27h5.21L20.48,94.31H15.75Z" transform="translate(0 -8.26)" fill="#072d36"/><path d="M35.73,92.89a7.25,7.25,0,0,1-2.53-5.81,7.43,7.43,0,0,1,2.44-6Q38.07,79,42.56,79A16,16,0,0,1,50.66,81v-1.2A4.88,4.88,0,0,0,49,75.68q-1.66-1.34-5.23-1.33a20.71,20.71,0,0,0-4.12.41,16.81,16.81,0,0,0-3.59,1.13v-4a15.64,15.64,0,0,1,3.76-1.09,26,26,0,0,1,4.48-.41c3.83,0,6.66.85,8.51,2.54a9,9,0,0,1,2.77,7V94.31H51v-2.6a9.76,9.76,0,0,1-3.54,2.48,13.18,13.18,0,0,1-5,.84A10.06,10.06,0,0,1,35.73,92.89ZM47.86,90.4a6.28,6.28,0,0,0,2.8-2.55V84.72a12.62,12.62,0,0,0-7-2,6.71,6.71,0,0,0-4.17,1.08,4,4,0,0,0-1.37,3.31q0,4.24,5.54,4.24A9.32,9.32,0,0,0,47.86,90.4Z" transform="translate(0 -8.26)" fill="#072d36"/><path d="M61.6,58.68h4.87V94.31H61.6Z" transform="translate(0 -8.26)" fill="#072d36"/><path d="M75.41,91.83q-3.64-3.21-3.64-9t3.25-9q3.26-3.33,9.29-3.33A14.08,14.08,0,0,1,91.1,72a10.11,10.11,0,0,1,4.22,4.2,12.77,12.77,0,0,1,1.42,6.1v2.41H76.4a6,6,0,0,0,2.77,4.89A12.65,12.65,0,0,0,86,91.18a25.4,25.4,0,0,0,4.48-.41,22.48,22.48,0,0,0,4-1.09v3.91a19.68,19.68,0,0,1-4.08,1,30.35,30.35,0,0,1-5,.41Q79.06,95,75.41,91.83ZM92.16,81.24A6.7,6.7,0,0,0,90,76.16a8.48,8.48,0,0,0-5.81-1.81,8.07,8.07,0,0,0-5.69,1.88,6.79,6.79,0,0,0-2.12,5Z" transform="translate(0 -8.26)" fill="#072d36"/><path d="M102.05,71.17h4.72v3.32a9.91,9.91,0,0,1,4-3.06,12.88,12.88,0,0,1,5-1q4.62,0,6.89,2.46A9.37,9.37,0,0,1,125,79.51v14.8h-4.87V80q0-5.64-5.4-5.64a8.89,8.89,0,0,0-4.32,1.09,9.55,9.55,0,0,0-3.44,3.3V94.31h-4.87Z" transform="translate(0 -8.26)" fill="#072d36"/><path d="M134.47,93a8.05,8.05,0,0,1-1.91-5.74V74.93H129V71.17h3.52V64.23h4.92v6.94h5.69v3.76h-5.69v12a4.8,4.8,0,0,0,.89,3.28,4.38,4.38,0,0,0,3.26,1,6.73,6.73,0,0,0,2.79-.63v3.86a14.36,14.36,0,0,1-4.53.62A7.07,7.07,0,0,1,134.47,93Z" transform="translate(0 -8.26)" fill="#072d36"/><path d="M149.82,65.82a2.91,2.91,0,0,1,0-4,2.74,2.74,0,0,1,2-.82,2.87,2.87,0,0,1,2.09.82,2.84,2.84,0,0,1,0,4,2.91,2.91,0,0,1-2.09.82A2.78,2.78,0,0,1,149.82,65.82Zm-.43,5.35h5V94.31h-5Z" transform="translate(0 -8.26)" fill="#072d36"/><path d="M161.06,71.17h4.72v3.32a9.91,9.91,0,0,1,4-3.06,12.88,12.88,0,0,1,5-1q4.62,0,6.89,2.46A9.37,9.37,0,0,1,184,79.51v14.8h-4.87V80q0-5.64-5.4-5.64a8.86,8.86,0,0,0-4.32,1.09,9.55,9.55,0,0,0-3.44,3.3V94.31h-4.87Z" transform="translate(0 -8.26)" fill="#072d36"/><path d="M192.66,91.83q-3.65-3.21-3.64-9t3.25-9q3.25-3.33,9.28-3.33a14.09,14.09,0,0,1,6.8,1.52,10.17,10.17,0,0,1,4.22,4.2,12.77,12.77,0,0,1,1.42,6.1v2.41H193.65a6,6,0,0,0,2.77,4.89,12.61,12.61,0,0,0,6.87,1.62,25.4,25.4,0,0,0,4.48-.41,22.13,22.13,0,0,0,4-1.09v3.91a19.57,19.57,0,0,1-4.07,1,30.44,30.44,0,0,1-5,.41Q196.29,95,192.66,91.83Zm16.75-10.59a6.7,6.7,0,0,0-2.14-5.08,8.5,8.5,0,0,0-5.81-1.81,8.05,8.05,0,0,0-5.69,1.88,6.79,6.79,0,0,0-2.12,5Z" transform="translate(0 -8.26)" fill="#072d36"/><path d="M218.33,60.61h4.15v9h-4.15Z" transform="translate(0 -8.26)" fill="#072d36"/><path d="M231.2,94.43A12.77,12.77,0,0,1,227,92.81V88.67a18.5,18.5,0,0,0,4.34,1.81,17.66,17.66,0,0,0,4.77.7,8.65,8.65,0,0,0,3.81-.63,2.12,2.12,0,0,0,1.2-2,2.56,2.56,0,0,0-.55-1.71,4.83,4.83,0,0,0-1.88-1.18,39.66,39.66,0,0,0-4-1.25,26,26,0,0,1-4.51-1.67,6.25,6.25,0,0,1-2.5-2.14,6,6,0,0,1-.85-3.38,5.63,5.63,0,0,1,2.63-5,12.8,12.8,0,0,1,7.06-1.72,23.53,23.53,0,0,1,4.54.44,12,12,0,0,1,3.56,1.2v4a12.61,12.61,0,0,0-3.44-1.3,18.27,18.27,0,0,0-4.17-.48,9.54,9.54,0,0,0-3.91.63,2.23,2.23,0,0,0-1.35,2.21,2.28,2.28,0,0,0,.58,1.64,4.58,4.58,0,0,0,1.86,1.09c.85.3,2.21.7,4.07,1.18,2.92.8,5,1.75,6.1,2.84a6,6,0,0,1,1.71,4.54,5.61,5.61,0,0,1-2.46,4.77Q241.13,95,236.31,95A23.57,23.57,0,0,1,231.2,94.43Z" transform="translate(0 -8.26)" fill="#072d36"/><path d="M55.58,110.88H68.94a25.41,25.41,0,0,1,11.64,2.5,17.67,17.67,0,0,1,7.57,7.12,21.71,21.71,0,0,1,2.65,10.93q0,10.33-6,15.65T68.11,152.4H55.58Zm12.47,36.47q8.31,0,12.47-4.1t4.16-11.82q0-7.12-4.07-11.28T69,116H61.63v31.36Z" transform="translate(0 -8.26)" fill="#072d36"/><path d="M108.85,110.88h5.82l16.57,41.52h-6.18l-4.15-10.34H102.56l-4,10.34H92.28ZM119.24,137l-7.48-19.42L104.28,137Z" transform="translate(0 -8.26)" fill="#072d36"/><path d="M143.65,136.66l-15.08-25.78H135l11.58,20,11.76-20h6.42l-15.27,25.78V152.4h-5.88Z" transform="translate(0 -8.26)" fill="#072d36"/><path d="M34.14,8.26h5.33V23.94H58.54V8.26h5.33V44.79H58.54V28.43H39.47V44.79H34.14Z" transform="translate(0 -8.26)" fill="#072d36"/><path d="M84.2,8.26h5.12l14.59,36.53H98.47l-3.66-9.1H78.66l-3.55,9.1H69.62Zm9.15,23L86.76,14.16,80.18,31.25Z" transform="translate(0 -8.26)" fill="#072d36"/><path d="M109.65,8.26h14.06q5.91,0,9.33,3c2.28,2,3.42,4.76,3.42,8.39s-1.13,6.49-3.39,8.39-5.39,2.84-9.36,2.84H115v14h-5.33Zm13.49,18.13a9.9,9.9,0,0,0,5.8-1.51q2.15-1.51,2.14-5.28t-2.14-5.31a9.82,9.82,0,0,0-5.8-1.54H115V26.39Z" transform="translate(0 -8.26)" fill="#072d36"/><path d="M140.38,8.26h14.06q5.91,0,9.33,3c2.28,2,3.42,4.76,3.42,8.39s-1.13,6.49-3.39,8.39-5.39,2.84-9.36,2.84h-8.73v14h-5.33Zm13.49,18.13a9.9,9.9,0,0,0,5.8-1.51q2.15-1.51,2.14-5.28t-2.14-5.31a9.82,9.82,0,0,0-5.8-1.54h-8.16V26.39Z" transform="translate(0 -8.26)" fill="#072d36"/><path d="M181.25,30.94,168,8.26h5.69l10.19,17.61L194.21,8.26h5.65L186.43,30.94V44.79h-5.18Z" transform="translate(0 -8.26)" fill="#072d36"/><path d="M186.71,230.63s0,0,0-.07a82.05,82.05,0,0,0-.7-8.28c2.31-2.2,4.54-4.56,6.74-6.87.39-.41-.19-1-.64-.77a.6.6,0,0,0-.32-.78c-5.43-2.27-11.66-5.1-17.57-5.59a.31.31,0,0,0-.32.41.53.53,0,0,0-.69-.05,79.87,79.87,0,0,1-7.48,4.52.52.52,0,0,0-.2.22h0q-35.7-14.46-71.39-29-17.38-7.07-34.8-14.06c-12.15-4.89-24.24-10.58-36.7-14.63a.38.38,0,0,0-.29.71c11.46,5.64,23.78,9.88,35.6,14.72s23.77,9.71,35.67,14.54q35.69,14.49,71.38,29a.66.66,0,0,0,.36,0,37.88,37.88,0,0,1,2,8.85.5.5,0,0,0,.64.44.4.4,0,0,0,.18.27c5.57,2.88,11.87,4.7,17.73,6.93A.59.59,0,0,0,186.71,230.63ZM191.33,215a.59.59,0,0,0,.25.05,29.07,29.07,0,0,0-5.83,6.35.49.49,0,0,0-.47-.06A.52.52,0,0,0,185,221c-3.5-1.37-7-2.82-10.51-4.2.95-.75,1.79-1.68,2.71-2.46,1.12-.94,2.33-1.76,3.48-2.65a.38.38,0,0,0,.14-.24C184.31,212.58,187.92,213.62,191.33,215Zm-13.58-4.64c.7.26,1.4.5,2.11.74a18.51,18.51,0,0,0-6.05,5.42l-2.56-1c2.17-1.62,4.27-3.33,6.39-5A.33.33,0,0,0,177.75,210.37Zm-3.86-.87a.49.49,0,0,0,.14-.67s0,0,0,0c1,.44,2,.84,3,1.22-2.16,1.72-4.34,3.42-6.43,5.21-1.41-.52-2.84-1-4.27-1.48A33.81,33.81,0,0,0,173.89,209.5Zm-5.44,14.09a.35.35,0,0,0,0-.18,26.82,26.82,0,0,0-2.13-8.6c4.07,1.86,8.28,3.46,12.49,5.05a.22.22,0,0,0-.07.19,28.69,28.69,0,0,1,.26,7.17A86.25,86.25,0,0,0,168.45,223.59Zm11.32,3.93a20.16,20.16,0,0,0-.52-7.5l2.87,1.09a.13.13,0,0,0-.14.12,35.67,35.67,0,0,0,.13,7.23Zm3,1.22c-.29-2.5-.39-5-.53-7.51a.1.1,0,0,0,0-.08l2.28.88a.55.55,0,0,0,.42,0c.21,2.63.5,5.31,1,7.93C184.88,229.56,183.85,229.16,182.81,228.74Z" transform="translate(0 -8.26)" fill="#072d36"/><path d="M192.73,214.49s-.06,0,0,0S192.76,214.5,192.73,214.49Z" transform="translate(0 -8.26)" fill="#072d36"/><path d="M34.15,145.26c-3.06-3.38-8-2.87-12.11-2.25-6.06.92-12.11,2-18.16,3a1.27,1.27,0,0,0-.81,2c4.46,4.81,7.31,10.1,10.06,16,1.5,3.23,3.74,6.56,7.68,6.69,7.28.24,6.69-9.16,3.29-14,3.73,0,7.57,1,10.3-2.39A7.07,7.07,0,0,0,34.15,145.26Z" transform="translate(0 -8.26)" fill="#e1324d"/><path d="M.19,218.06l0,.06a77.67,77.67,0,0,0,6.36,5.36c-.08,3.19,0,6.43.08,9.62,0,.56.84.56,1,.09a.58.58,0,0,0,.78.32c5.44-2.22,11.85-4.63,16.38-8.46a.31.31,0,0,0-.07-.52.52.52,0,0,0,.52-.45,82,82,0,0,1,2.09-8.48.43.43,0,0,0,0-.3s0,0,0,0l71-30q17.28-7.31,34.55-14.66c12-5.14,24.62-9.67,36.29-15.62a.38.38,0,0,0-.3-.7c-12.09,4.11-23.8,9.83-35.58,14.76S109.62,179,97.8,184q-35.49,15-71,30a.85.85,0,0,0-.29.22,37.73,37.73,0,0,1-7.69-4.82.49.49,0,0,0-.76.14.37.37,0,0,0-.32-.06c-6,1.9-11.72,5.06-17.43,7.63A.59.59,0,0,0,.19,218.06ZM8,232.37a.7.7,0,0,0-.21.14,29.24,29.24,0,0,0-.38-8.61.51.51,0,0,0,.39-.29.49.49,0,0,0,.49,0c3.44-1.51,6.94-3,10.4-4.46-.13,1.2-.07,2.45-.18,3.65-.12,1.46-.4,2.89-.58,4.34a.42.42,0,0,0,.07.27C14.65,229.13,11.36,231,8,232.37Zm12.88-6.32c-.68.31-1.35.64-2,1a18.25,18.25,0,0,0,.45-8.11l2.51-1.12c-.39,2.68-.67,5.38-1,8.07A.41.41,0,0,0,20.85,226.05Zm3.35-2.11a.49.49,0,0,0,.37.57h-.06c-1,.36-2,.78-3,1.22.31-2.74.65-5.48.86-8.23,1.37-.64,2.72-1.29,4.06-2A34.08,34.08,0,0,0,24.2,223.94Zm-6.13-13.81a.75.75,0,0,0,.12.14,26.72,26.72,0,0,0,7.59,4.57c-4.2,1.56-8.31,3.41-12.4,5.26a.21.21,0,0,0-.09-.18A28.65,28.65,0,0,1,8,215,85.63,85.63,0,0,0,18.07,210.13ZM7.3,215.35A20.18,20.18,0,0,0,13,220.29l-2.8,1.26a.15.15,0,0,0,0-.19,36.31,36.31,0,0,0-5.2-5Zm-3,1.29c2,1.56,3.81,3.25,5.69,4.94a.11.11,0,0,0,.08,0l-2.23,1a.5.5,0,0,0-.29.3c-2-1.71-4.12-3.4-6.3-4.92Z" transform="translate(0 -8.26)" fill="#072d36"/><path d="M7.35,233.73s0-.07,0,0S7.31,233.74,7.35,233.73Z" transform="translate(0 -8.26)" fill="#072d36"/><path d="M168.43,170.54c4.55.23,7.72-3.65,10.16-7,3.63-4.94,7.13-10,10.7-15a1.27,1.27,0,0,0-.84-2c-6.55-.24-12.31-2-18.42-4.19-3.34-1.22-7.28-2-10.16.7-5.32,5,1.74,11.2,7.55,12.21-2.64,2.63-6,4.64-5.59,9A7,7,0,0,0,168.43,170.54Z" transform="translate(0 -8.26)" fill="#e1324d"/></g></g></svg>