<svg xmlns="http://www.w3.org/2000/svg" viewBox="0 0 198.76 161.22"><g style="isolation:isolate"><g id="Layer_2" data-name="Layer 2"><g id="OBJECTS"><path d="M194.22,63.48a28.59,28.59,0,0,0-5.41-6.1,26.72,26.72,0,0,0-7.91-4.24,61.58,61.58,0,0,0-10.54-2.64c-3.13-.53-6.48-1.28-9.7-1.14a1.76,1.76,0,0,0-.33,0,76.89,76.89,0,0,0-12,1.32c-3.9.6-7.79,1.25-11.67,1.92-7.9,1.37-15.81,2.7-23.69,4.19A339.47,339.47,0,0,0,68.55,68.23c-4.06,1.35-8.1,2.75-12.08,4.3a61,61,0,0,0-6.28,2.67,10.87,10.87,0,0,0-1.41.9c-.72-.22-1.5-.33-2.16-.49A43.31,43.31,0,0,0,42.07,75c-2.75-.35-5.53-.56-8.3-.8s-5.39-.45-8.09-.65a24.74,24.74,0,0,0-3.25-.13c-.28-.52-.51-1.08-.76-1.67a1.65,1.65,0,0,0-2-.79.59.59,0,0,0-.74.31v0a1.37,1.37,0,0,0-.56.89c0,.11,0,.22,0,.33C14.11,81.16,9.49,89.64,5.86,98.62,2.05,108.05.19,118.38,1.6,128.51a9,9,0,0,0,.89,3.63c.95,1.51,2.57,1.67,4.18,1.88,1,.12,2,.25,3.05.31-.13,2.41-.07,4.87,0,7.25.11,3.16,0,6.39.37,9.54a3.1,3.1,0,0,0,3,2.84c1.58.15,3.17.15,4.75.3,3.06.3,6.1.75,9.14,1.22A275.68,275.68,0,0,0,65,159.08c1,0,2.07,0,3.11,0,3.65,1,7.74.64,11.51.33a1.18,1.18,0,0,0,1.26,1q6.44-.17,12.86-.5a31.92,31.92,0,0,0,6.17-.66l.46-.09c3.62.1,7.23.19,10.84.09a115,115,0,0,0,15-1.5c2.83-.45,5.65-.91,8.46-1.41a19,19,0,0,0,3.95-1l.21-.08q2.44-.66,4.86-1.44c1.28-.4,2.54-.85,3.8-1.31,1.57-.31,3.13-.66,4.7-1.1a101.93,101.93,0,0,0,11.19-3.73c3.68-1.51,7.26-3.19,10.77-5,1.68-.89,3.36-1.81,5-2.78s3.5-2,3.94-3.85a15.08,15.08,0,0,0,2.09-1.81,3.37,3.37,0,0,0,1-.61,6.54,6.54,0,0,0,1.67-2.7,22.77,22.77,0,0,0,.8-6.64c.11-2.33.14-4.67.15-7,0-1.35,0-2.65-.11-4,.33-.25.67-.5,1-.76a32,32,0,0,0,2.74-3c2.1-2.55,3-5.66,3.7-8.84s1.25-6.68,1.76-10a69.52,69.52,0,0,0,.93-10.28C198.77,74.7,197.48,68.26,194.22,63.48Z" fill="#ff8b4a"/><path d="M156.09,46.53a16.36,16.36,0,0,0-9.75-6.37,34.23,34.23,0,0,0-6.44-1,22.18,22.18,0,0,0-3.64.1,37.44,37.44,0,0,0,.72-4.59,16.34,16.34,0,0,0-2-10.12,7.23,7.23,0,0,0-4-3.39c-2.07-.54-4.1.63-5.89,1.51s-3.62,1.85-5.39,2.86c-.65.37-1.31.74-2,1.14.75-1.5,1.45-3,2.13-4.57.75-1.69,1.45-3.22.62-5a24,24,0,0,0-2.82-4.55,10.37,10.37,0,0,0-4.19-3.19c-1.56-.67-3.26-1.12-4.74-1.93a7.43,7.43,0,0,0-2.16-1.13,3.07,3.07,0,0,0-2.23.55,9.38,9.38,0,0,0-1.27,1,6.28,6.28,0,0,0-2.44,3.34,1.31,1.31,0,0,0,.08,1,31.62,31.62,0,0,0-3.2,7,33.11,33.11,0,0,0-1.25,5.75c-.06.5-.14,1.09-.17,1.7-.45,1.47-.86,3-1.24,4.45.16-2.87.28-5.75.32-8.62,0-1.81,0-3.61,0-5.42-.06-1.52-.25-3-.42-4.47.19-2.86-.08-5.74-1.88-8C90.2,1.18,85.57.37,81.56.54A88.89,88.89,0,0,0,67.88,2.39c-2.35.47-5.1.77-7.18,2.05A4.19,4.19,0,0,0,60,5c-1.87-.36-2.85,2.49-3.12,3.94a14.56,14.56,0,0,0,.34,6.53A24.28,24.28,0,0,0,59.91,21L61,23a4.06,4.06,0,0,0-.65.27l-.62.29-.26.14a14.66,14.66,0,0,0-1.51-1.33c-1.38-1.1-2.83-2-4.31-3-2.52-1.65-5.32-4.27-8.56-4-6.09.5-8.3,8.09-8.31,13.17a18,18,0,0,0,.66,5.05,8,8,0,0,0,1.71,3.65l-.82.06a25.9,25.9,0,0,0-7.55,1.5,15.9,15.9,0,0,0-6.12,3.91,17.94,17.94,0,0,0-3.7,6.77c-1.65,5.33-2.15,11.13-2.48,16.68-.32,5.38-.37,10.94,1.83,16A16.8,16.8,0,0,0,24.5,88a19.1,19.1,0,0,0,1.72,1.36c-1.34.6-2.67,1.24-4,1.88-2.11,1-4.22,2.06-6.28,3.18A25.57,25.57,0,0,0,10.45,98l-.1,0a1.64,1.64,0,0,0-2,1.12c-.81,2.12-1.49,4.29-2.14,6.47-.07.27-.16.54-.24.81l-.57.79a2.36,2.36,0,0,0-.25,2.06,27.6,27.6,0,0,0-.65,2.94,1.74,1.74,0,0,0,2.54,2,26,26,0,0,0,3.28-2.24c1.07-.4,2.13-.87,3.21-1.31,2.27-.93,4.54-1.86,6.81-2.81q6.75-2.82,13.46-5.74c9-3.89,17.94-7.91,26.75-12.18,4.93-2.39,9.72-5,14.52-7.63l.05,0,.25.11a1.14,1.14,0,0,0,.55.13,2.35,2.35,0,0,0,.74-.13,3.13,3.13,0,0,0,.72-.27,3.48,3.48,0,0,0,.85-.56c.64.55,1.29,1.1,1.89,1.7a28,28,0,0,0,3.42,3,14,14,0,0,0,6.15,2.39l.15.12c3.64,2.48,7.39,4.78,11.14,7.08s7.43,4.2,11.1,6.39,7.4,4.24,11,6.55c1.85,1.19,3.72,2.33,5.52,3.6l2.7,1.89a6.5,6.5,0,0,0,1.51.92,4.88,4.88,0,0,0,.66.16c0,.69,0,1.39,0,2.08,0,2.56,0,5.11,0,7.67.11,3.41.15,6.92.57,10.34a13.13,13.13,0,0,0-.38,2.82c-.1,1.72-.16,3.45-.24,5.18q-.21,5.28-.43,10.57a1.42,1.42,0,0,0,1.42,1.41c1.7-.06,3.44-.2,5.14-.43a24.93,24.93,0,0,0,4.63-1.24,35.93,35.93,0,0,1,4.56-1.3c1.63-.31,3.29-.5,4.93-.77a1.17,1.17,0,0,0,.92-1.37,1.4,1.4,0,0,0,0-.36c-.35-12.09.05-24.17-1-36.24a3,3,0,0,0,.25-.25,2.4,2.4,0,0,0-1.24-3.76,10.18,10.18,0,0,1-2.89-1c-.78-.53-1.55-1.07-2.34-1.59-1.58-1-3.17-2.07-4.77-3.07-3.38-2.11-6.82-4.13-10.24-6.18s-6.71-4-10-6.18c-1.63-1.07-3.24-2.19-4.87-3.25l-1.25-.85,1.78.53c1.9.56,3.81,1.09,5.73,1.61,3.83,1,7.68,2,11.55,2.85s7.8,2,11.81,1.88a12.45,12.45,0,0,0,4.61-.81,9.17,9.17,0,0,0,3.63-2.77,12.24,12.24,0,0,0,2-5c.43-2,.8-4,1.13-5.93.66-4,1.13-8.06,1.4-12.11C160.47,60.39,160.54,52.68,156.09,46.53Z" fill="#d91e50"/><path d="M196.88,81.8a36.63,36.63,0,0,0,1.39-7.3c.07-.84-1.28-1-1.46-.2a50.18,50.18,0,0,1-9.29,19.85,44.13,44.13,0,0,1-7.85,7.72,41.18,41.18,0,0,1-4.66,3.07c-.74.41-1.49.81-2.26,1.18a7.41,7.41,0,0,0-2.48,1.47l-.07.09a.83.83,0,0,0-.47.66l0,.21a5.8,5.8,0,0,0-.28,1.92c-.38,2.67-.72,5.34-1,8-.15,1.65-.29,3.3-.41,5a16.27,16.27,0,0,0-.19,4.58,68.24,68.24,0,0,1-9.58,3.22c-.06-2.08-.13-4.17-.19-6.25-.11-3.67-.18-7.33-.34-11,0-.92-.13-1.83-.19-2.75a5.43,5.43,0,0,0-.56-2.62,2.85,2.85,0,0,0-2.27-1.29c-.08-.05-.14-.11-.23-.16-4.31-2.38-8.59-4.8-12.88-7.19l1.83.38a21.36,21.36,0,0,0,9.51.21,11.19,11.19,0,0,0,7-5.26c1.6-2.89,1.55-6.28,1.58-9.48,0-3.62,0-7.21-.14-10.82-.08-1.8-.15-3.61-.31-5.41-.17-2-.47-3.93-.47-5.88a.39.39,0,0,0-.14-.32c0-.62,0-1.25,0-1.87,0-.37-.61-.48-.67-.09-.44,2.66-1.16,5.26-1.66,7.91s-1.14,5.23-1.89,7.82a19.35,19.35,0,0,1-2.31,5.69,10.31,10.31,0,0,1-4.23,3.51c-4.18,1.75-9.34,1-13.7.3-5.35-.86-10.63-2.16-15.88-3.51q-4.42-1.15-8.82-2.41c-1.43-.41-2.85-.83-4.28-1.26-.75-.22-1.49-.5-2.25-.7.07-.21.14-.42.2-.63.94,0,1.94-.09,2.8-.12,1.3,0,2.59-.12,3.88-.2,2.75-.15,5.49-.33,8.23-.56s5.32-.47,8-.77,5.45-1,8.21-1.24c.92-.1,1-1.49,0-1.46-2.67.08-5.31-.24-8-.27s-5.48,0-8.21-.1-5.33-.08-8-.14c-1.29,0-2.59-.08-3.88-.1-.52,0-1.08-.06-1.65-.09,1-.29,1.91-.73,2.85-1.08,1.19-.45,2.38-.89,3.58-1.31,2.45-.87,4.92-1.72,7.4-2.53,4.86-1.6,9.72-3.37,14.67-4.68.72-.19.41-1.25-.31-1.11-5.12,1-10.29,1.74-15.4,2.88q-3.7.83-7.39,1.72c-1.63.39-3.35.7-5,1.14,0-.27,0-.53,0-.79,1-.33,2.06-.8,3-1.15,1.67-.63,3.33-1.31,5-1.94s3.37-1.2,5-1.86,3.54-1.54,5.38-2.14a.7.7,0,0,0-.37-1.35c-1.9.4-3.82.58-5.72.92s-3.51.71-5.25,1.08-3.51.71-5.25,1.11c-.79.18-1.59.39-2.38.6a13.3,13.3,0,0,0-1.65-4.28,2.63,2.63,0,0,0,.79-.58,1.49,1.49,0,0,1,.42-.29c.49-.22,1.06-.35,1.57-.52,1.12-.36,2.25-.71,3.38-1.05,2.26-.67,4.54-1.29,6.82-1.87,4.57-1.17,9.18-2.18,13.8-3.12s9.27-1.66,13.8-2.84c1.89-.49,4.48-1.11,5.68-2.81a2.4,2.4,0,0,0-.07-2.82,2.55,2.55,0,0,0-2.59-1.92q-3,0-5.92.21a1.11,1.11,0,0,0-.52-.26,20.51,20.51,0,0,0-6.4-.15,39.23,39.23,0,0,0-6.34,1.41,35.59,35.59,0,0,0-4.85,1.82l-1.08.28a91,91,0,0,0-12,4.32c-1,.45-2,.92-3,1.41.38-.29.75-.58,1.14-.85a56.55,56.55,0,0,1,8.26-4.7,53.06,53.06,0,0,1,8.84-3.13c1.5-.39,3-.72,4.55-1a36.52,36.52,0,0,0,4.54-.79c1.86-.56,2.53-1.95,2.67-3.78.06-.7.46-4.42-1.14-4-.9.25-1.06,1.16-1.36,2-.2.53-.4,1.07-.55,1.61-.09.32-.09.69-.25.81-.36.29-1.73.12-2.2.15a29.76,29.76,0,0,0-3.09.42,54.48,54.48,0,0,0-10.93,3.08A64.77,64.77,0,0,0,100.27,50.5h0c.49-.5,1-1,1.48-1.5a22.06,22.06,0,0,0,2.15-1.54,52.61,52.61,0,0,0,4.27-3.91l1-.9c2.35-1.84,4.77-3.58,7.17-5.35,3.32-2.44,6.7-4.79,10-7.31a54.1,54.1,0,0,0,4.65-3.89c1.28-1.25,2.19-2.62,1-4.2a.62.62,0,0,0-.82-.08.82.82,0,0,0-.27-.21c-1.48-.76-3.58.25-5,.83A37.9,37.9,0,0,0,121,25c-1.45.87-2.84,1.83-4.2,2.83l.81-1c2.13-2.57,4.39-6.54,2.64-9.88-.27-.52-1.27-.47-1.36.18a8.71,8.71,0,0,1-2,4.73,39.39,39.39,0,0,1-3.83,3.59c-2.69,2.38-5.28,4.81-7.78,7.39a78.9,78.9,0,0,0-7.11,8.38l-.21.3c.29-.92.59-1.83.95-2.73.69-1.7,1.32-3.42,2-5.11a43.21,43.21,0,0,1,2.77-5,.43.43,0,0,0-.74-.44c-1,1.62-2,3.3-3,4.89s-2.24,3.27-3.22,5q-.54.93-1.11,1.86c.28-2.74.6-5.48,1-8.21q.67-4.47,1.56-8.91c.3-1.52.61-3,.9-4.55s.42-3.23.69-4.83a.54.54,0,0,0-1-.29c-.59,1.53-1.28,2.95-1.77,4.53-.44,1.41-.82,2.82-1.19,4.24q-1.17,4.59-2.13,9.22c-.62,3-1.21,6-1.72,9.05l-.54,3.29c-.23-1.69-.45-3.39-.65-5.08-.47-4-.8-8-1.21-12a113.09,113.09,0,0,1-.72-11.63c0-1.9.09-3.79.27-5.68.09-1,.18-2,.34-2.94a2.81,2.81,0,0,1,.89-2.08.82.82,0,0,0-.63-1.49c-1.6.27-2.09,2.08-2.47,3.42A35.94,35.94,0,0,0,86.13,12c-.49,4.21-.54,8.45-.81,12.66-.11,1.79-.17,3.59-.21,5.38-.46-2-.94-3.92-1.46-5.85-.77-2.84-1.79-5.6-2.48-8.46-.24-1-2-.81-1.83.25.33,2.82.32,5.66.57,8.49s.62,5.81,1,8.71.78,5.86,1.26,8.77c.2,1.26.41,2.52.61,3.77-1.65-1.92-3.33-3.83-5-5.78-2.63-3.15-5.24-6.34-7.75-9.59s-5.42-6.46-7.67-10c-1.09-1.73-2.09-3.52-3.14-5.28a10.6,10.6,0,0,1-1.66-6.77A.46.46,0,0,0,56.7,8c-1,3.12.48,6.47,1.6,9.37.61,1.57,1.42,3,2.13,4.54s1.49,3.25,2.29,4.85a87.67,87.67,0,0,0,5.22,9.07c1.94,2.91,4,5.7,6.18,8.48,1.37,1.79,2.74,3.59,4.14,5.36l-.45-.37q-2.16-1.86-4.2-3.84a100.16,100.16,0,0,1-7.72-8.37c-2.37-2.88-4.51-5.89-6.68-8.91C58.11,26.62,57,25,56,23.46s-2-3.44-3.59-4.5a.76.76,0,0,0-1.12.35,1.13,1.13,0,0,0-1.95.34c-.86,2.05-.33,4,.51,5.93a39.65,39.65,0,0,0,2.74,5.25,71.39,71.39,0,0,0,7.19,9.59c1.66,1.9,3.42,3.71,5.22,5.48a106.35,106.35,0,0,1-10.75-3.25A71.45,71.45,0,0,0,46.14,40a1,1,0,0,0-.71-1.42l-.13.12-.25-.33a5.3,5.3,0,0,0-.73-.42,10.27,10.27,0,0,0-1.55-.47,15.74,15.74,0,0,0-3.88-.25,18.82,18.82,0,0,0-6.72,1.27c-2.25,1-4,3.24-3.37,5.77s3,3.87,5.36,4.48c9.31,2.34,18.89,3.53,28.33,5.18,2.72.47,5.44,1,8.14,1.56s5.24,1.48,7.9,1.9a19.14,19.14,0,0,0-2.91,3.71c-.25.46-.48.93-.7,1.41-.48-.11-1-.18-1.45-.28-1-.2-2-.42-3-.64-2-.46-4.1-1-6.13-1.5s-3.92-1.08-5.88-1.6c-1.56-.41-3.67-1.08-5.32-.63l-.13,0a.92.92,0,0,0-.71,1.68c.34.2.61.68,1,.93a10.39,10.39,0,0,0,1.26.81,21.86,21.86,0,0,0,3,1.39q2.85,1.1,5.77,2c1.94.6,3.89,1.15,5.86,1.67,1.23.32,2.66.83,4.07,1.08-.09.35-.17.72-.25,1.08l-1.19.29-4,.94-8.37,2c-2.71.66-5.43,1.32-8.13,2a39.45,39.45,0,0,0-3.9,1.09c-.72.27-1.46.47-2.18.72s-1.38.65-2.09.94-.74,1.52.2,1.52c.75,0,1.48.1,2.23.06s1.33-.13,2-.16c1.44-.06,2.86-.3,4.28-.5,2.86-.4,5.72-.84,8.57-1.29l8.33-1.32,3.68-.6a13.66,13.66,0,0,0,.2,1.83l-1.5.6c-1.65.66-3.29,1.32-5,1.95q-4.56,1.75-9.17,3.35C51.21,84,45.13,86,38.87,85.83c-.55,0-1.11-.06-1.67-.11l-.65-.08-.84-.14a24.87,24.87,0,0,1-3.56-1A18.22,18.22,0,0,1,29.32,83a11.39,11.39,0,0,1-2.54-2.16,15.74,15.74,0,0,1-3.33-6.76c-.15-.54-.3-1.09-.44-1.63s-.24-1.36-.37-2a91.06,91.06,0,0,1-1.54-9.84,44,44,0,0,1,.78-6.36,49.76,49.76,0,0,1,2.63-9.65c.28-.67-.77-1.26-1.22-.71-2.1,2.55-3,5.46-3.77,8.64a65.09,65.09,0,0,0-1.76,10.29,51.38,51.38,0,0,0,.39,10.44c.14,1,.31,2,.53,3,0,1,0,2,.07,3,.33,5.54,1.66,13.33,7.11,16.17a15.5,15.5,0,0,0,8.36,1.39,77.74,77.74,0,0,0,9.59-1.39c1-.2,2.06-.42,3.09-.64-8.24,3.75-16.49,7.49-24.8,11.09-2.62,1.13-5.24,2.27-7.87,3.39-1.38.6-2.75,1.21-4.12,1.83a21.74,21.74,0,0,0-4,2.08.78.78,0,0,0,.6,1.42,33.87,33.87,0,0,0,7.46-2.48l7.14-2.83,14.46-5.75q14.55-5.74,28.92-11.88c5.41-2.31,10.83-4.6,16.16-7.07a1.71,1.71,0,0,0,.59-.47A12.41,12.41,0,0,0,95.72,86.4a10.12,10.12,0,0,0,1.49-.93,2.46,2.46,0,0,0,1.06.94A155.56,155.56,0,0,0,131,97.66c1.75,1.14,3.51,2.28,5.29,3.37,5.36,3.28,10.78,6.44,16.16,9.69a1.8,1.8,0,0,0,1.41.24c-.19,2.61,0,5.3.12,7.87l.25,9.39c.08,3.13.17,6.26.25,9.39l.06,2.28-.15,1.52q-.28,2.82-.54,5.64c-2.42.86-4.88,1.62-7.37,2.3-4.1,1.12-8.28,2.12-12.49,3-.12-.79-.27-1.58-.37-2.36-.18-1.27-.35-2.54-.56-3.81-.15-.94-.28-1.89-.44-2.84.1-.32.16-.66.23-1a22.87,22.87,0,0,0,.39-3.79c.09-2.57.07-5.14,0-7.71s-.12-5-.15-7.49-.31-5.13-.41-7.71a1.26,1.26,0,0,0-2.52,0c-.26,2.51-.7,5-.89,7.49s-.46,5.14-.64,7.71-.35,5-.44,7.49c0,.23,0,.45,0,.68-1.31.2-2.63.32-3.95.46-1.94.2-3.88.39-5.83.55-4,.32-7.93.55-11.9.73-7.79.34-15.61.48-23.41.31s-15.78-.62-23.67-1.07L53,139.59a1.56,1.56,0,0,0,.24-.91,82.69,82.69,0,0,1,.08-9.18c.14-3.06.38-6.1.72-9.14a1.24,1.24,0,0,0-1.22-1.22c-1.14,0-2.25.07-3.4,0l-3.39-.2-6.34-.41q-6.45-.44-12.89-.94T14,116.53c-4.33-.38-8.75-1.09-13.1-.85A.69.69,0,0,0,.68,117c.38.1.77.18,1.16.26h0a10.66,10.66,0,0,0-.46,3.64l-.14,3.53q-.07,1.77-.12,3.54a11.91,11.91,0,0,0,.09,3.77c.65,2.08,2.6,2.85,4.59,3.19A2.29,2.29,0,0,0,7.63,136l.87.06a1.49,1.49,0,0,0,.62,2.52l1.1.18a14.37,14.37,0,0,0,0,2c0,1.16,0,2.31,0,3.47-.05,2.33,0,4.64-.24,7a2.35,2.35,0,0,0,1.18,2.06,11.77,11.77,0,0,0,3.95,1.34c1.47.22,3,.29,4.43.39s2.95.22,4.43.3c1.13.07,2.26.17,3.39.13a2.27,2.27,0,0,0,1.11,1.41,4.44,4.44,0,0,0,.85.34,3.56,3.56,0,0,0,3.46-.63,1.67,1.67,0,0,0,1.28.86,1.65,1.65,0,0,0,.76-.07c4.16.89,8.56.87,12.78,1.19,4.65.36,9.32.57,14,.77,9.4.39,18.76.67,28.17.58a270.78,270.78,0,0,0,27.74-1.66c4-.45,8-1,11.9-1.59a2.17,2.17,0,0,0,1.64.76,2.34,2.34,0,0,0,2.05-1.38c4-.7,7.89-1.53,11.77-2.53,3.12-.81,6.23-1.67,9.29-2.68a2.09,2.09,0,0,0,1.49.71,2,2,0,0,0,2-1.93c.36-.14.73-.26,1.1-.41l.95-.39a60.88,60.88,0,0,0,7.87-3.08c1.33-.57,2.64-1.17,3.95-1.8a1.72,1.72,0,0,0,.75.17,1.82,1.82,0,0,0,1.59-.92,3.44,3.44,0,0,0,.21-.53c1.37-.72,2.72-1.48,4-2.3a17,17,0,0,0,4.37-3.65c.44-.54.82-1.08,1.26-1.57a2.7,2.7,0,0,0,1-.94,14.81,14.81,0,0,0,2-1.62,8.06,8.06,0,0,0,2.14-5.39q.22-3.65.46-7.29a1.62,1.62,0,0,0-1-1.69,22.17,22.17,0,0,0,2-2.94c.38-.63-.39-1.46-1-1a42.83,42.83,0,0,0-3.94,2.76c-1.16,1-2.33,1.9-3.53,2.8l-1.85,1.34a13.79,13.79,0,0,0,1.85-2l-.3.39a4.26,4.26,0,0,1,.35-.38L182,119a2.06,2.06,0,0,0,.29-.41l.68-.81a1.74,1.74,0,0,0,.44-1.12,27.77,27.77,0,0,0,2.68-2.07c1.23-1.06,2.4-2.19,3.56-3.32a13.68,13.68,0,0,0,3.51-4.69,32.12,32.12,0,0,0,1.39-5.48c.41-2,.78-4.06,1.13-6.09.05-.29.1-.58.16-.87l.07-.18a1.84,1.84,0,0,0,.13-1,69.84,69.84,0,0,0,1.43-10.51A.69.69,0,0,0,196.88,81.8ZM30.55,90.53a5.23,5.23,0,0,1-2.12-.82,5.64,5.64,0,0,1-.56-.52,22.94,22.94,0,0,0,2.93,1.37ZM99.76,68.79a32.85,32.85,0,0,1-2.53,6.35,25.82,25.82,0,0,1-1.55,2.77A7,7,0,0,1,94,79.65c-.4.25-.8.5-1.21.72-.21.12-.42.22-.63.32l-.27.11a10.85,10.85,0,0,1-1.27.36,4.43,4.43,0,0,1-1.23.07,6.41,6.41,0,0,1-4.17-1.75,12.6,12.6,0,0,1-2.79-5.11,28.31,28.31,0,0,1-1.36-6.63,24.53,24.53,0,0,1,.46-7,15.06,15.06,0,0,1,1.12-3.42c.41-.83.86-1.63,1.3-2.45A3.22,3.22,0,0,0,86.08,54a2.83,2.83,0,0,0,.86-2.12,2,2,0,0,0,.56-.21,2.64,2.64,0,0,0,3-.14,2.63,2.63,0,0,0,1.88,1.24,2.76,2.76,0,0,0,1.82-.45,2.07,2.07,0,0,0,.65.88,2.15,2.15,0,0,0,2.35.18,5,5,0,0,0,2.15,2l.2.1a1.22,1.22,0,0,0-.54.74c-.43,2.11,1,4,1.34,6.06A16.29,16.29,0,0,1,99.76,68.79Zm26.9,22.52a.43.43,0,0,0,0,.07c-1.7-.46-3.39-1-5.07-1.47l-.52-.25a.52.52,0,0,0-.4,0l-1.55-.47c-3.18-1-6.36-2.12-9.48-3.38q4,1.11,7.95,2.15c3,.78,6.09,1.55,9.16,2.27A1.41,1.41,0,0,0,126.66,91.31Zm2.16,62c-3,.52-6,1-9,1.31a261.78,261.78,0,0,1-27.28,1.84c-9.18.09-18.33-.16-27.5-.46-5.1-.17-10.2-.47-15.29-.87-2.61-.21-5.23-.28-7.84-.51a53.13,53.13,0,0,0-5.91-.27c-.09-2.45.07-4.94.1-7.39,0-1.45,0-2.9-.06-4.35,0-.3,0-.59,0-.88q10.26,1,20.52,1.93c7.87.67,15.77,1.06,23.67,1.31s15.77.41,23.64.11c4.43-.16,8.84-.39,13.26-.73q3.36-.26,6.73-.58c1.58-.15,3.16-.37,4.75-.49a4.76,4.76,0,0,0,.26.78h0c0,1.13,0,2.27,0,3.4s0,2.52,0,3.79C128.86,151.92,128.84,152.61,128.82,153.29Zm41.89-16.9c0,1.16-.06,2.33-.09,3.49a.88.88,0,0,0-1,0c-1.81,1.13-3.89,1.71-5.78,2.71-1.67.88-3.37,1.72-5.09,2.49,0-1.13-.15-2.28-.19-3.35-.06-1.83-.12-3.67-.17-5.5v-.16a74.36,74.36,0,0,0,12.65-5.34C170.94,132.61,170.79,134.5,170.71,136.39Zm3.06-11.3c-.49.29-1,.56-1.49.83v-.07a2.12,2.12,0,0,0,.37-2,2.63,2.63,0,0,0,2.15-.64c.25-.2.5-.42.74-.63a1.85,1.85,0,0,0,1.2.38,3.44,3.44,0,0,0,.45,0C176.07,123.69,174.93,124.41,173.77,125.09Z" fill="#c7d0d8" style="mix-blend-mode:multiply"/><path d="M73,56.37a33.61,33.61,0,0,0-6.85-1.61c-2.38-.27-4.77-.54-7.15-.85Q51.81,53,44.69,51.74c-4.37-.75-9.19-1.28-13.23-3.19a9.75,9.75,0,0,1-1.8-1.08c-.29-1.95-.58-3.9-.9-5.85.25-.36.52-.72.78-1.09a1,1,0,0,0-1.12-1.45,4.14,4.14,0,0,0-1.58,1.15,1.75,1.75,0,0,0-1.43.85c-.86,1.56-.63,3.3-.57,5,.07,1.9.11,3.79.05,5.69-.09,3.27-.17,6.79,1.23,9.83,1.3,2.83,4.16,4.17,7.05,2.75s4.64-4.31,6.89-6.37a13.43,13.43,0,0,1,5.77-3.06l.28,0q6.31,1,12.65,1.8,3.57.44,7.15.8a27.46,27.46,0,0,0,7.07-.3C73.48,57.21,73.38,56.5,73,56.37Z" fill="#fff" style="mix-blend-mode:soft-light"/><path d="M95.37,52.75a7.34,7.34,0,0,0-5.23-.54l-.11,0a3.66,3.66,0,0,0-1.89.43l-.42.22c.44-.25-.27.11-.42.19a6.56,6.56,0,0,0-.83.54,8.7,8.7,0,0,0-1.58,1.45,6.54,6.54,0,0,0-1.45,2.41,4.88,4.88,0,0,0,2.14,5.25,7.39,7.39,0,0,0,4.74.91A11.3,11.3,0,0,0,95,62.06c1.67-1,3.25-2.53,3.33-4.63A5.26,5.26,0,0,0,95.37,52.75Z" fill="#fff" style="mix-blend-mode:soft-light"/><path d="M156.15,46.74A3,3,0,0,0,154.73,44c-1.51-1.15-3.45.44-3.53,2,0,0,0,.06,0,.1-.62.09-1.34.42-1.91.56-1.59.39-3.2.76-4.79,1.14-3.13.73-6.27,1.41-9.39,2.12s-6.25,1.42-9.39,2.1-6.31,1.64-9.48,2.48a.89.89,0,0,0,.24,1.74c1.92-.08,3.83-.06,5.75-.26s3.71-.4,5.56-.67c1.66-.24,3.32-.51,5-.78a9,9,0,0,1,5,1.58C139.23,57.27,140,59,141,60.48a8.54,8.54,0,0,0,4.23,3.5c3.56,1.16,7.23-1.35,8.72-4.5,1.67-3.54,1.51-7.69,1.93-11.55A3.51,3.51,0,0,0,156.15,46.74Z" fill="#fff" style="mix-blend-mode:soft-light"/><path d="M135.8,25.3a3.69,3.69,0,0,0-.6-1.53c-.41-.57-1.23-1.14-1.95-.66a2.8,2.8,0,0,0-1,2.31c0,.3-.05.6-.08.9l0,.45s0,0,0,0a.64.64,0,0,0,0,.07c0,.17-.07.34-.12.51l-.09.25a1.76,1.76,0,0,1-.13.25,3.28,3.28,0,0,1-.2.31l-.11.12a3.83,3.83,0,0,1-.28.29c-.11.11-.23.23-.35.33l-.18.15-.19.14a4.51,4.51,0,0,0-.59.47,2.34,2.34,0,0,0-.49.78c-.21.14-.29.24-.54.39l-1,.6c-.61.38-1.25.73-1.83,1.15a6.13,6.13,0,0,0-.78.75,3.71,3.71,0,0,0-.73.86A.55.55,0,0,0,125,35a5.77,5.77,0,0,0,1.64-.25,7.92,7.92,0,0,0,1.79-.73l1.6-.75A3.62,3.62,0,0,1,131,33a2.12,2.12,0,0,0,.75,0,3,3,0,0,0,.91-.41,11.62,11.62,0,0,0,1.31-1,6.14,6.14,0,0,0,1.73-2.81A7.07,7.07,0,0,0,135.8,25.3Z" fill="#fff" style="mix-blend-mode:soft-light"/><path d="M116.38,12.63c-.8-.79-1.69-1.54-2.54-2.27a40.14,40.14,0,0,0-5.15-3.76A3.11,3.11,0,0,0,106.23,6a2,2,0,0,0-.69.31.74.74,0,0,0-.57-.13,4.16,4.16,0,0,0-2.36,1.88,16.07,16.07,0,0,0-1.69,2.7,3.77,3.77,0,0,0-.24,3.13c.36.9,1,1.61,1.41,2.5a8.15,8.15,0,0,1,.45,2.68,8.15,8.15,0,0,0,.48,3.3c1.17,2.17,3.53-.45,4.51-1.46a3.58,3.58,0,0,1,2.16-1.27,22.25,22.25,0,0,1,2.71-.11,7,7,0,0,0,3.37-.72,3.92,3.92,0,0,0,2-3.26A4.3,4.3,0,0,0,116.38,12.63Z" fill="#fff" style="mix-blend-mode:soft-light"/><path d="M95.08,15.24a.67.67,0,0,0-1.34,0c-.59,4.45-1.23,8.88-1.75,13.34-.26,2.19-.6,4.36-1,6.53s-1,4.49-1.3,6.74,3.68,2.87,4.11.56a65,65,0,0,0,.57-6.84c.15-2.26.3-4.51.49-6.76A116,116,0,0,0,95.08,15.24Z" fill="#fff" style="mix-blend-mode:soft-light"/><path d="M86.07,1A11.28,11.28,0,0,0,80.93.13,40.05,40.05,0,0,0,75,.6,102.63,102.63,0,0,0,61.46,3.73a2,2,0,0,0-.4.17,1.27,1.27,0,0,0-.48,0,2.89,2.89,0,0,0-2.21,2.94,5.18,5.18,0,0,0,2.12,3.69c2.57,2.34,4.59,5.31,7.63,7.09a1.34,1.34,0,0,0,2-.8,12.51,12.51,0,0,1,1.36-4.92c.44-.7,1-1.29,1.5-2s.77-1.46,1.24-2.16C75,6.51,76.64,6.37,78,6.32c1.82-.06,3.62-.05,5.43-.26,1.34-.15,2.9-.37,3.69-1.61A2.42,2.42,0,0,0,86.07,1Z" fill="#fff" style="mix-blend-mode:soft-light"/><path d="M44.44,22.62a10.6,10.6,0,0,1,2.87-5.78c.66-.79.06-2.45-1.14-2a16.52,16.52,0,0,0-4.61,2.51,13.32,13.32,0,0,0-3.34,4.05,16.07,16.07,0,0,0-1.76,5.48,13.87,13.87,0,0,0-.1,3.22,17.57,17.57,0,0,0,.64,3,.55.55,0,0,0,.48.39,1.7,1.7,0,0,0,1.19,1.16c1.3.37,2.63.4,3.94.67a6.31,6.31,0,0,0,3.52.15c2.68-1.06.78-4.48,0-6.22C45.14,27.17,44.19,25,44.44,22.62Z" fill="#fff" style="mix-blend-mode:soft-light"/><path d="M194.41,74.1a18.6,18.6,0,0,0-.62-4.3,16.4,16.4,0,0,0-3.19-8.15,30.23,30.23,0,0,0-8-6.75,2.93,2.93,0,0,0-2.28-1.36c-1-.53-1.94-1-2.95-1.47-1.91-.82-3.83-1.79-5.93-1.57a1.56,1.56,0,0,0-1.17.67l-.32-.2c-2.14-1.25-5.15-2.73-7.68-2a.56.56,0,0,0-.13,1,13.17,13.17,0,0,0,2.9,1.21,20.56,20.56,0,0,1,3.35,1.51,19.4,19.4,0,0,1,5.08,4.3,23.5,23.5,0,0,1,5.27,13.46c.39,5.32-1,10.63-2.86,15.56a31.92,31.92,0,0,1-8.18,12.3,30.28,30.28,0,0,1-5.1,3.6l-2.8,1c-2.67,1-5.35,1.89-8,3a7.55,7.55,0,0,0-1.29.68L149,107c-1.21.36-2.4.74-3.57,1.16-1.28-.27-2.56-.54-3.83-.84-3.63-.87-7.24-1.84-10.85-2.83-7.26-2-14.47-4.24-21.64-6.56a.91.91,0,0,0-1.1.51c-.58-.25-1.17-.51-1.75-.78a.3.3,0,0,0-.3.52c2.13,1.49,4.12,3.1,6.36,4.43a77.91,77.91,0,0,1,6.61,4.45c2.07,1.54,4.19,3,6.35,4.42l-3.82.31c-4.61.35-9.23.57-13.84.8-3.75-1.69-7.53-3.33-11.25-5.1-4.3-2-8.51-4.22-12.73-6.4-2.25-1.16-4.29-2.46-6.77-1.14-2.12,1.13-4.06,2.55-6.23,3.61l-13.55,6.6a49.77,49.77,0,0,1-8.47,3.58l-6-.74c-5.16-.63-10.34-1.09-15.52-1.59-2.81-.28-5.63-.57-8.44-.87-2.58-.28-5.27-.79-7.88-.82.85-4.78,2-9.52,3.29-14.2a151.76,151.76,0,0,0,3.9-18c.14-1-1.22-1.4-1.49-.42-.61,2.21-1.31,4.37-2.07,6.52-.64,1.62-1.29,3.24-1.92,4.87-1.11,2.87-2.13,5.77-3.28,8.62S7,102.76,6.06,105.7c-.45,1.43-.87,2.86-1.26,4.31-.43,1.64-.8,3.23.41,4.62a1.35,1.35,0,0,0,1,.42,2.63,2.63,0,0,0,.68.31,3,3,0,0,0,2.32-.44,53,53,0,0,0,7.87.39c2.59,0,5.17.12,7.76.21L38.6,116a.75.75,0,0,0,.48.87,23.23,23.23,0,0,0,5.63.84c1.8.1,3.62.12,5.43.17,2.72.08,5.44.16,8.16.21a181.29,181.29,0,0,0,18.31,1.41c-.93,6.4-.65,13-.7,19.43a2.23,2.23,0,0,0,2.21,2.2c11.92-.72,23.85-1.24,35.77-2a2.08,2.08,0,0,0,2-2.6A72.12,72.12,0,0,1,113,119.77a2.49,2.49,0,0,0-.86-1.71q4-.37,8-.94c3.08-.19,6.17-.39,9.23-.75l2.88-.38a2.1,2.1,0,0,0,.75.14c0,.59.09,1.17.1,1.75,0,1.46,0,2.91,0,4.37a1.63,1.63,0,0,0,2.44,1.41c5.87-4,12.29-7.21,18.43-10.78a.92.92,0,0,0,.14-1.41,60.4,60.4,0,0,0,6.52-2.25A91.22,91.22,0,0,0,175,102.85c8-4.64,15-11.77,18.21-20.52A21.89,21.89,0,0,0,194.41,74.1Z" fill="#fff" style="mix-blend-mode:soft-light"/><path d="M158.11,50c13.92.69,32.21,6.78,35.54,22.32,3.23,15.14-11.47,26.58-23.45,32.29-7.71,3.68-16,5.77-24.35,7.52a251.78,251.78,0,0,1-26.36,4,400.12,400.12,0,0,1-55,1.38c-18.13-.66-36.2-2.24-54.23-4.23-2.1-.23-4.21-.44-6.31-.66-1.28-.14-1.26,1.86,0,2,18.54,2.07,37.19,3.58,55.84,4.4a417.83,417.83,0,0,0,57.05-1A260.64,260.64,0,0,0,144,114.16c8.56-1.72,17.12-3.77,25.12-7.34,12.52-5.58,27.69-16.56,26.43-32.07C194.32,59.62,178.79,51.38,165.46,49a64.65,64.65,0,0,0-7.35-.88c-1.24-.08-1.24,1.87,0,1.94Z" fill="#0d0d0d"/><path d="M4.43,113.79c3-12.74,7.35-25.53,13.79-37,.56-1-1-1.9-1.53-.89A151.83,151.83,0,0,0,3.55,113.55c-.12.56.74.81.88.24Z" fill="#0d0d0d"/><path d="M155,133.76a98.68,98.68,0,0,0,20.39-9.28,83.27,83.27,0,0,0,9-6.32,33.35,33.35,0,0,0,7.69-8c.29-.46-.31-1.14-.78-.78-2.77,2.13-5.2,4.64-7.89,6.87a76.08,76.08,0,0,1-9,6.4,96.78,96.78,0,0,1-19.88,9.09c-1.25.41-.71,2.39.54,2Z" fill="#0d0d0d"/><path d="M4.39,103.62c-.94,2.65-1.75,5.33-2.51,8a31.85,31.85,0,0,0-1.23,3.47c-.2,1.2-.36,2.41-.47,3.62a41.28,41.28,0,0,0,0,7.29c.18,2.24.27,5,1.22,7.05s3.41,2.34,5.5,2.65c2.5.38,5,.78,7.5,1.13q8,1.13,16.09,2a523.09,523.09,0,0,0,65,2.75,289.66,289.66,0,0,0,38-2.78c1.3-.2.75-2.17-.54-2a268.27,268.27,0,0,1-33,2.6q-15.39.45-30.81,0A454.41,454.41,0,0,1,7,133.64c-1-.16-2.66-.17-3.39-1s-.86-2.83-1-4a43.38,43.38,0,0,1-.38-7.89c.06-1.32.16-2.64.32-3.95.08-.7.26-1.41.29-2.1s-.16-1.45-.07-2.2A44.4,44.4,0,0,1,5,103.8c.13-.4-.49-.57-.63-.18Z" fill="#0d0d0d"/><path d="M192.93,62.7c5,5.79,4.31,14,3.79,21.12-.32,4.41-1,8.8-1.68,13.17-.59,3.83-1.24,7.7-3.46,11a32.57,32.57,0,0,1-4.24,4.47c-1.41,1.43-2.85,2.83-4.34,4.18-.26.23.07.65.37.48,1.68-1,3.37-1.93,5-3.06a18.55,18.55,0,0,0,3.91-4c2.47-3.24,3.54-6.87,4.21-10.84a123.5,123.5,0,0,0,1.36-13.84,61.63,61.63,0,0,0-.21-11.84,20.51,20.51,0,0,0-4.52-10.91c-.09-.1-.24.05-.15.16Z" fill="#0d0d0d"/><path d="M8.58,135.41c-.1,4.13.14,8.26.15,12.4,0,2.05-.67,4.56,1.34,5.8a17.3,17.3,0,0,0,4.8,1.71c2.17.55,4.38.93,6.59,1.3a350.75,350.75,0,0,0,37.43,4,358.47,358.47,0,0,0,48.28-.36c14.93-1.16,30.12-3,44.57-7,12.07-3.4,24.63-8.42,33.79-17.27a35.85,35.85,0,0,0,2.84-3.07c.88-1.06-.66-2.58-1.51-1.51-7.61,9.53-19.62,14.94-31,18.6-13.71,4.42-28.21,6.44-42.51,7.81a363.08,363.08,0,0,1-87.33-2.43,83,83,0,0,1-12.89-2.64,8.85,8.85,0,0,1-2.17-.92c-.16-.1-.28-.28-.21-.1.18.45,0-.9,0-.87,0-.5-.06-1-.08-1.49-.27-4.62-.29-9.27-.68-13.88a.71.71,0,0,0-1.41,0Z" fill="#0d0d0d"/><path d="M188.52,111.94c-.59,3.47-.69,7-1,10.54-.16,1.76-.32,3.53-.5,5.29-.09,1-.17,1.91-.34,2.85a2.15,2.15,0,0,0,.38,2,.79.79,0,0,0,1,.12,2.09,2.09,0,0,0,.82-1.85c0-.92.12-1.83.19-2.74.14-1.77.26-3.53.35-5.3a66.26,66.26,0,0,0,0-10.82c-.05-.45-.78-.65-.88-.11Z" fill="#0d0d0d"/><path d="M5.76,114c19.29-8,38.56-16.06,57.72-24.41,5.54-2.41,11.06-4.89,16.64-7.23a.92.92,0,1,0-.71-1.69c-9.52,4.45-19.17,8.59-28.76,12.88L21.92,106.38c-5.43,2.43-10.84,4.9-16.27,7.32-.16.06-.05.33.11.27Z" fill="#0d0d0d"/><path d="M7.83,99.3a94.37,94.37,0,0,0,9.56-4.74q4.83-2.55,9.7-5c.92-.46.11-1.85-.8-1.37q-4.75,2.49-9.48,5a80,80,0,0,0-9.29,5.36c-.34.25-.15.93.31.75Z" fill="#0d0d0d"/><path d="M115,88.41c6.55,3.89,13.07,7.83,19.61,11.73l9.82,5.85,4.69,2.8a35.52,35.52,0,0,0,4.92,2.76c.65.26,1.19-.72.68-1.16a34.7,34.7,0,0,0-4.53-2.93l-4.89-2.95-9.79-5.91c-6.53-3.92-13.1-7.78-19.65-11.67a.86.86,0,0,0-.86,1.48Z" fill="#0d0d0d"/><path d="M89.23,88.66c7.41,4.74,14.91,9.35,22.38,14q5.49,3.43,11,6.9c1.83,1.15,3.66,2.29,5.47,3.47s3.67,2.78,5.66,3.51c.69.25,1.2-.72.7-1.2-1.46-1.42-3.67-2.37-5.42-3.42-1.92-1.16-3.82-2.36-5.72-3.54q-5.51-3.42-11-6.86c-7.46-4.68-14.89-9.41-22.39-14-.73-.44-1.37.68-.66,1.14Z" fill="#0d0d0d"/><path d="M78.09,81.29A58.5,58.5,0,0,0,83.55,85c1.88,1.23,3.78,2.42,5.67,3.63.72.46,1.4-.7.67-1.14l-5.64-3.47a58.35,58.35,0,0,0-5.75-3.28c-.32-.15-.73.26-.41.52Z" fill="#0d0d0d"/><path d="M79.71,56.67C76,63,74.43,70.64,76.76,77.79c2,6,7,11.69,13.88,11,7.24-.73,10.29-7.49,11.59-13.81,1.42-6.87,2.29-14.48-2.63-20.2A11.45,11.45,0,0,0,91,50.6c-3.22,0-7.2,1.55-8.79,4.51-.21.38.23.93.64.64,2.36-1.68,4.4-3.4,7.44-3.6A9.61,9.61,0,0,1,97.65,55c4.92,4.77,4.51,11.55,3.17,17.72-1.12,5.16-3.13,12-8.93,13.52S81.18,83.3,79,78.33c-2.92-6.74-1.78-14.81,1.3-21.3.2-.41-.39-.77-.62-.36Z" fill="#0d0d0d"/><path d="M100.66,55.85c2.28-1.25,4.27-3,6.46-4.4a70.46,70.46,0,0,1,6.68-3.89,64.74,64.74,0,0,1,14.32-5.38c9.37-2.28,21.25-3.23,27.74,5.44,3.28,4.39,3.62,10,3.7,15.27a89.6,89.6,0,0,1-1.44,17.61c-.84,4.62-1.73,10.48-6.63,12.49a14.13,14.13,0,0,1-6.74.62c-2.73-.28-5.46-.74-8.16-1.23a145.75,145.75,0,0,1-18-4.43c-3-.93-5.92-1.93-8.81-3a42.75,42.75,0,0,1-9-4.17c-1.17-.81-2.23,1.45-.77,1.82a90.49,90.49,0,0,1,8.75,3.28c2.76,1,5.53,2.06,8.35,3a150.43,150.43,0,0,0,17.49,4.47q4.26.83,8.58,1.4a25.12,25.12,0,0,0,7,.15c5.24-.77,7.65-5,8.8-9.8a87.51,87.51,0,0,0,2.32-18.23c.15-5.64.31-12-2.11-17.23a18.7,18.7,0,0,0-9.75-9.19c-5.31-2.23-11.22-2-16.8-1.1a65.86,65.86,0,0,0-17.23,5.28,66.62,66.62,0,0,0-8.24,4.53c-2.59,1.67-5.36,3.42-7.33,5.8a.63.63,0,0,0,.76,1Z" fill="#0d0d0d"/><path d="M123.94,75.75c-7.13-.22-14.27-.44-21.39-1-1.36-.1-1.38,2.19,0,2.13,7.12-.33,14.26-.33,21.39-.34a.41.41,0,0,0,0-.81Z" fill="#0d0d0d"/><path d="M115.77,66.78c-2,.71-4.1,1.28-6.19,1.81-1,.26-2.08.51-3.13.72a7.25,7.25,0,0,0-3.1.9,1,1,0,0,0,.42,1.59c1,.22,2.21-.36,3.18-.68s2-.67,3-1c2-.72,4-1.55,6-2.37.57-.23.35-1.16-.26-.94Z" fill="#0d0d0d"/><path d="M112.35,62c-1.67.46-3.32,1-5,1.45-.8.24-1.58.52-2.36.84a11.28,11.28,0,0,0-2.49,1.22.94.94,0,0,0-.41,1,1,1,0,0,0,.23.4.89.89,0,0,0,.88.23A15.64,15.64,0,0,0,105.56,66c.77-.39,1.55-.78,2.31-1.19a27.49,27.49,0,0,1,4.73-1.94.47.47,0,0,0-.25-.9Z" fill="#0d0d0d"/><path d="M95.72,51.79c5.33-6.66,10.38-13.62,16.59-19.51a52.16,52.16,0,0,1,9.76-7.42c3.42-2,8.57-4.63,11.75-.87a11.09,11.09,0,0,1,2.27,6.44c.18,2.75-.5,5.4-.53,8.12a1.22,1.22,0,0,0,2.39.33,26.24,26.24,0,0,0,.49-7.76,15.61,15.61,0,0,0-1.8-6.55,8.22,8.22,0,0,0-4.19-3.8,9.28,9.28,0,0,0-6.61.49,42.09,42.09,0,0,0-11,7.2,85,85,0,0,0-9.79,10A160,160,0,0,0,95.2,51.39c-.22.31.28.7.52.4Z" fill="#0d0d0d"/><path d="M81.06,55.79a141.1,141.1,0,0,0-31.67-16c-4.69-1.68-9.77-3.07-14.8-2.56a16.47,16.47,0,0,0-11.74,6.67c-3.18,4.25-4.63,9.55-5.31,14.74a68.59,68.59,0,0,0-.21,17.06c.56,4.54,2,9.27,5.82,12.13,4.36,3.25,10.7,3.69,16,3.56a95.74,95.74,0,0,0,20-3.08A164,164,0,0,0,79,82.2a1.12,1.12,0,1,0-.87-2.06A124.08,124.08,0,0,1,45,89.35c-5.51.69-11.3.81-16.67-.8a11.55,11.55,0,0,1-6.26-4.08,16.35,16.35,0,0,1-2.52-5.93c-1.14-4.89-1-10.12-.79-15.1.22-5.46,1-11,3.57-15.95,2.26-4.33,5.88-7.61,10.75-8.59s9.73.21,14.25,1.69C59,44.44,70.06,50.28,80.53,56.7c.58.35,1.08-.53.53-.91Z" fill="#0d0d0d"/><path d="M57.35,75.9c3.53-.45,7-1.22,10.45-2,1.74-.39,3.49-.77,5.25-1.08,1-.17,4.09-.66,3-2.39A1.24,1.24,0,0,0,75,69.84a19.33,19.33,0,0,0-4.44,1.25c-1.48.45-3,.87-4.45,1.31-3,.87-5.93,1.76-8.81,2.9-.29.11-.29.64.08.6Z" fill="#0d0d0d"/><path d="M66.32,63.47c1.64.48,3.27,1,4.92,1.46l2.43.66a9.5,9.5,0,0,0,2.53.64.72.72,0,0,0,.36-1.33,9,9,0,0,0-2.43-.62l-2.55-.59c-1.67-.4-3.35-.7-5-1.06a.44.44,0,0,0-.23.84Z" fill="#0d0d0d"/><path d="M40,37.58c-3.19-3.48-3.76-8.82-2.62-13.25,1.23-4.8,4.82-9.33,10.29-8,5,1.18,9.12,5.53,12.4,9.29,3.76,4.3,7.1,9,10.52,13.53,2,2.64,4,5.25,6,7.86,1,1.31,2,2.65,2.93,4a15.7,15.7,0,0,0,2.94,3.54.74.74,0,0,0,1.08-.83,14.34,14.34,0,0,0-2.48-3.58c-1.2-1.49-2.41-3-3.56-4.49C75.59,43,73.66,40.48,71.68,38c-3.91-5-7.62-10.21-12-14.83-3.51-3.73-8-8-13.38-8.41-5.19-.4-8.66,4-10,8.5-1.48,5-1,11.42,3,15.11a.53.53,0,0,0,.75-.75Z" fill="#0d0d0d"/><path d="M71.7,38.75A162.84,162.84,0,0,1,59,18.76c-1.71-3.24-3.21-7.39-1.44-10.93s6.72-4,10.07-4.75a78,78,0,0,1,12.18-1.7c3-.18,6.28-.14,9.06,1.21,7.07,3.4,5.83,13.32,5.4,19.75a208.08,208.08,0,0,1-3.89,28.34.56.56,0,0,0,1.07.3c1.57-5.08,2.91-10.22,4-15.42,1-4.94,1.65-9.94,2.61-14.89.83-4.22,2.07-9.58,5.56-12.47,2.25-1.86,5-.79,7.2.48A29,29,0,0,1,116.54,13c2.11,2,3.8,4.3,3.16,7.38-.54,2.6-2.39,4.84-3.89,7-.42.6.5,1.27,1,.77,3.31-3.36,6.16-8.76,3.18-13.22a23.37,23.37,0,0,0-5.21-5.2A20,20,0,0,0,108,6c-5.3-1.36-8.25,4.09-9.81,8.27-1.91,5.12-2.39,10.64-3.31,16-1.19,6.88-2.73,13.71-4.55,20.45l1.07.3c1.55-9.12,3.52-18.18,4.2-27.42a59.63,59.63,0,0,0,0-12.81c-.49-3.38-1.87-6.63-4.77-8.61C88.19.31,84.81-.08,81.66,0A76.46,76.46,0,0,0,69.42,1.66c-2.25.45-4.49,1-6.7,1.59A11.43,11.43,0,0,0,58.26,5.3c-2.68,2.23-2.91,6.18-2.07,9.33a26,26,0,0,0,2.63,5.93c1.24,2.24,2.55,4.45,3.9,6.64a138.53,138.53,0,0,0,8.43,12c.24.32.79-.1.55-.42Z" fill="#0d0d0d"/><path d="M113.67,46.65c-4.47,1.62-8.16,4.88-11.15,8.5a.59.59,0,0,0,.11.91c1.35,1,3.1.31,4.58,0l6.6-1.3L127,52.18l13.2-2.6,6.6-1.3c1.47-.29,3.26-.41,4.49-1.38,2.64-2.1.05-6.14-2.91-5.83-.37,0-.65.61-.21.8,1.22.53,3.69,2.6,2.37,4.06a4.13,4.13,0,0,1-2.34.89l-3.42.68-13.93,2.75-13.68,2.69-6.84,1.35L106.9,55c-1.13.22-2.65.83-3.69.09l.12.91a29.72,29.72,0,0,1,10.61-8.68c.37-.15.11-.77-.27-.64Z" fill="#0d0d0d"/><path d="M97.17,51.38a90.19,90.19,0,0,0,9.33-6.86c3.07-2.39,6.16-4.78,9.23-7.18l9.2-7.2,4.71-3.68a15.55,15.55,0,0,0,3.52-3.35.73.73,0,0,0-.11-.85,2.1,2.1,0,0,0-2.62-.86.35.35,0,0,0-.07.55,10.13,10.13,0,0,1,1.69,1.3l-.11-.85a17,17,0,0,1-3.87,3.54l-4.51,3.52-9,7c-3,2.35-6,4.71-9,7.07a88.75,88.75,0,0,0-8.78,7.28.34.34,0,0,0,.41.53Z" fill="#0d0d0d"/><path d="M90.63,49.4c.15-9-.55-18-1-26.92L89,9c0-.95-.13-1.91-.12-2.86,0-.76,0-1.62.88-1.9a2.55,2.55,0,0,1,1.28.11C93,4.93,94,7,94.49,8.68a.3.3,0,0,0,.58-.08,5.34,5.34,0,0,0-4.38-5.54c-3.78-.53-3,4.11-2.84,6.46.39,8.47.75,17,1.17,25.42.24,4.83.42,9.66.94,14.46a.34.34,0,0,0,.67,0Z" fill="#0d0d0d"/><path d="M80.23,54.85A219.68,219.68,0,0,1,60.8,38a71.77,71.77,0,0,1-8.32-9,16.44,16.44,0,0,1-2.56-5.21,7.79,7.79,0,0,1-.36-2.83c.06-.54.25-1.24.82-1.46a3.81,3.81,0,0,1,1.77.11c4.32.81,7.53,3.74,10.13,7.12a.38.38,0,0,0,.65-.38A15,15,0,0,0,54,18.84c-1.32-.4-3.55-1.1-4.73-.06s-.94,3.38-.58,4.85c1,4.13,3.82,7.51,6.69,10.51q5.3,5.53,11,10.66,6.36,5.73,13.26,10.79c.43.31,1-.41.57-.74Z" fill="#0d0d0d"/><path d="M80.27,56.61c-9.47-2-19-3.89-28.44-5.8L37.72,48c-1.82-.37-4-.52-5.64-1.47a3.06,3.06,0,0,1,0-5.3c2-1.3,5-1.28,7.23-1.33,2.67-.06,5.35.2,8,0,.33,0,.43-.52.08-.6a32.18,32.18,0,0,0-7.64-.83,21.19,21.19,0,0,0-7.17,1c-3.26,1.24-4.89,5.69-1.59,7.91,1.63,1.09,3.74,1.29,5.61,1.66l8.28,1.62,16.57,3.25C67.68,55.1,73.85,56.31,80,57.47c.55.1.8-.74.23-.86Z" fill="#0d0d0d"/><path d="M122.87,61.23l.51-.13a2.16,2.16,0,0,0,.66-.23l.42-.27.22-.14a.66.66,0,0,0,.3-.38.42.42,0,0,0-.19-.48.94.94,0,0,0-.64-.1h-.5a1.2,1.2,0,0,0-.42.08l-.24.08-.5.17a.84.84,0,0,0-.43.33.72.72,0,0,0,.81,1.06Z" fill="#0d0d0d"/><path d="M54.77,60.48a8.43,8.43,0,0,0,1.59.72l.39.1.31.05c.06,0,.35,0,.19,0,.32,0,.63.05.88-.17l-.18.11a2.26,2.26,0,0,1,.45,0,3.7,3.7,0,0,0,.48-.06c.21,0,.16-.32,0-.38l-.43-.16a1.38,1.38,0,0,1-.4-.15l.15.15c-.12-.24-.43-.32-.64-.45.11.07-.12-.09-.16-.12L57.11,60,57,60s0,0,0,0l-.15-.06-.4-.16-.19-.07-.06,0s0,0,0,0l-.71-.34a.69.69,0,1,0-.7,1.2Z" fill="#0d0d0d"/><path d="M47.37,77.68c.44-.05.9-.08,1.34-.15l.28-.06c.24-.09.28-.11.13-.07l.13-.06a3.17,3.17,0,0,0,.37-.15.76.76,0,0,0,.34-.45l-.17.28.05,0-.27.15a11.15,11.15,0,0,0,1.6-.44.31.31,0,0,0,0-.59A12.93,12.93,0,0,0,49.41,76l.31.08-.06,0,.24.23a.92.92,0,0,0-.71-.41c-.1,0-.09,0,0,0a.89.89,0,0,0-.45-.12H48.5c-.38,0-.76.05-1.13.08a.93.93,0,0,0,0,1.86Z" fill="#0d0d0d"/><path d="M84.06,32.88c.28,3.12.62,6.23,1,9.35q.27,2.33.57,4.65a28.69,28.69,0,0,0,.69,4.44.58.58,0,0,0,1.13-.15,33.56,33.56,0,0,0-.63-4.45c-.23-1.48-.44-3-.65-4.46-.42-3.12-.76-6.25-1.08-9.38-.06-.65-1.07-.66-1,0Z" fill="#0d0d0d"/><path d="M96.66,69a16.7,16.7,0,0,1-1.79,6,14.9,14.9,0,0,1-1.54,2.43c-.31.4-.65.77-1,1.13s-.8.73-.86,1.35a.81.81,0,0,0,.8.79c1,0,1.86-1.47,2.38-2.24a16.73,16.73,0,0,0,1.53-2.9A17.22,17.22,0,0,0,97.45,69c0-.52-.74-.49-.79,0Z" fill="#0d0d0d"/><path d="M96.37,64.06l.08.27,0,.15a1.33,1.33,0,0,0,.1.28l.12.25a.57.57,0,0,0,.15.23,1.08,1.08,0,0,0,.2.16.56.56,0,0,0,.42,0,.52.52,0,0,0,.33-.25,2.29,2.29,0,0,0,.1-.23.67.67,0,0,0,0-.28l0-.28a1.57,1.57,0,0,0,0-.3l0-.14-.08-.28a.75.75,0,0,0-.32-.42.78.78,0,0,0-.54-.07.7.7,0,0,0-.41.32.73.73,0,0,0-.07.54Z" fill="#0d0d0d"/><path d="M132.8,115.3c-1.33.86-1,2.81-1,4.2,0,1.81,0,3.62,0,5.44q0,5.31-.05,10.62c0,3.55,0,7.09,0,10.63,0,1.81,0,3.63,0,5.44,0,1.49-.47,3.58.3,4.9a.92.92,0,0,0,1.57,0c.82-1.28.46-3.42.49-4.9.05-1.82.11-3.63.17-5.44q.2-5.31.32-10.63t.16-10.62c0-1.82,0-3.63,0-5.44,0-1.4.33-3.33-1-4.2a.85.85,0,0,0-.87,0Z" fill="#0d0d0d"/><path d="M153.47,110.47c-.52,3.3-.23,6.75-.18,10.08s.12,6.92.17,10.38.07,6.75.09,10.13q0,2.59,0,5.19c0,1.57-.33,3.51.34,4.94a1,1,0,0,0,1.68,0c.63-1.38.31-3.19.3-4.69,0-1.73,0-3.46,0-5.19q-.06-5.19-.13-10.38c-.06-3.38-.12-6.75-.2-10.13s.08-7-.63-10.33c-.15-.69-1.32-.73-1.43,0Z" fill="#0d0d0d"/><path d="M188,67.74a19,19,0,0,1-3.85,19c-.72.8.48,2,1.17,1.18,4.75-5.55,7.53-13.8,3.23-20.43-.18-.28-.67-.11-.55.23Z" fill="#0d0d0d"/><path d="M181.62,89.48l-.35.33.18-.14a.67.67,0,0,1-.12.06c-.08,0-.17.14-.25.2l-.21.17-.4.34c-.12.13-.25.25-.38.37a2,2,0,0,0-.49.83l.1-.24a2.11,2.11,0,0,0-.17.48,1,1,0,0,0,.27.81,1,1,0,0,0,.68.28,1.21,1.21,0,0,0,.59-.19l-.24.1a3.24,3.24,0,0,0,.33-.13,1.86,1.86,0,0,0,.27-.22l.2-.18.32-.42a4.35,4.35,0,0,0,.76-1.23l-.09.21a4.15,4.15,0,0,1,.3-.43.8.8,0,0,0,.09-.64.91.91,0,0,0-.3-.43.84.84,0,0,0-1.09.07Z" fill="#0d0d0d"/><path d="M54,112.67a71,71,0,0,0,13.51.92l6.91,0,3.46,0a9.67,9.67,0,0,0,3.68-.17.86.86,0,0,0,0-1.63,8.53,8.53,0,0,0-3.19-.1c-1.15.06-2.3.11-3.46.14L68,112.1c-4.58.14-9.28.57-13.83,0-.4,0-.59.54-.17.62Z" fill="#0d0d0d"/><path d="M86.92,113.43l.23,0-.4-.24a2,2,0,0,0,1.37.44,8.19,8.19,0,0,0,1,0,2.36,2.36,0,0,0,.7,0l.45-.14a1.66,1.66,0,0,0,1-.59l-.39.29a2.19,2.19,0,0,0,.6-.28.4.4,0,0,0,0-.68,2.19,2.19,0,0,0-.6-.28l.39.29a1.64,1.64,0,0,0-1-.59l-.45-.14a2.39,2.39,0,0,0-.7,0,8.19,8.19,0,0,0-1,0,2,2,0,0,0-1.37.44l.4-.24-.23.05a.85.85,0,0,0,0,1.64Z" fill="#0d0d0d"/></g></g></g></svg>