<svg xmlns="http://www.w3.org/2000/svg" viewBox="0 0 223.31 166.66"><g style="isolation:isolate"><g id="Layer_2" data-name="Layer 2"><g id="OBJECTS"><path d="M194.69,39.3a40.25,40.25,0,0,0-.62-4.65,8.73,8.73,0,0,0-.44-2,13.24,13.24,0,0,1-.91-2.56.35.35,0,0,0-.46-.26,41.57,41.57,0,0,0-1.43-4.11A39.16,39.16,0,0,0,173.48,6,36.06,36.06,0,0,0,147.69,2.6a44.34,44.34,0,0,0-22.62,14.53,57.42,57.42,0,0,0-8.5,13.55,70.52,70.52,0,0,0-3.07,7.8l-.12.38A82.8,82.8,0,0,0,98.77,19.43C92.42,13.28,85.06,7.66,76.13,6.17A39.27,39.27,0,0,0,50.9,10.11a40.21,40.21,0,0,0-10.63,8.44c-2.4,2.64-4.8,5.62-5.81,9.05a16.52,16.52,0,0,0-3.38,5,60.45,60.45,0,0,0-3,7.75,63.61,63.61,0,0,0-2.83,16,64.66,64.66,0,0,0,6.31,30.74A43.08,43.08,0,0,0,36,94.4a14.09,14.09,0,0,0,1.71,1.66c.49.48.93,1,1.43,1.49a20.34,20.34,0,0,0,2.94,2.29c1.61,1.83,3.26,3.63,4.95,5.38l2.08,2.31c1.34,1.49,2.68,3,4,4.46a2.57,2.57,0,0,0,.79,1.66l.3.3a3.62,3.62,0,0,0,.46.72,31.13,31.13,0,0,0,2.82,2.92v0A2.66,2.66,0,0,0,59.09,119l.27.2a2.64,2.64,0,0,0,.6,1.09c12.83,14.45,29.89,24.13,46.43,33.7,2,1.14,5.57,4.12,7.84,2.29a22.85,22.85,0,0,0,6-3.09c2.25-1.37,4.5-2.76,6.7-4.22q6.51-4.31,12.81-8.92a289.55,289.55,0,0,0,24.09-19.55,60.17,60.17,0,0,0,6.09-6.07c1-1.17,1.83-2.4,2.85-3.54a27.82,27.82,0,0,0,2.63-3.5,1,1,0,0,0-1.37-1.37c-.23.14-.45.29-.67.44a12.41,12.41,0,0,0,1.88-3.15l.48-.58c.72-1,1.49-1.88,2.27-2.8A24.89,24.89,0,0,0,180.47,96a122.8,122.8,0,0,0,6.94-15,105.39,105.39,0,0,0,7.24-32.32A81.54,81.54,0,0,0,194.69,39.3Z" transform="translate(0)" fill="#d91e50"/><path d="M220.74,107l-.14-.19a15.3,15.3,0,0,0-2.82-2.23l-3-2.24c-1.94-1.42-3.92-2.84-5.95-4.14s-3.93-2.55-6-3.67a36.41,36.41,0,0,0-3.35-1.71,18.26,18.26,0,0,0-2.3-.69,86.78,86.78,0,0,0,1.41-9.64A92.94,92.94,0,0,0,199,71.38a50.49,50.49,0,0,0-.49-5.75c-.09-.65-.22-1.26-.36-1.87,0-.38,0-.77,0-1.16a1,1,0,0,0-.48-.78q-.21-.78-.42-1.59c-.32-1.31-2.13-.92-2.24.3-.15,1.81-.51,3.6-.65,5.42,0,.45-.06.9-.09,1.35l-.1.12c-.44.56-.92,1.09-1.38,1.65-1.07,1.31-2.19,2.56-3.37,3.77-.58.58-1.2,1.12-1.77,1.7a23.86,23.86,0,0,1-4.29,1.8c-2.25.71-4.55,1.53-6,3.38-3.85,1-7.75,1.78-11.64,2.53a229.89,229.89,0,0,1-32.13,3.89,214.36,214.36,0,0,1-32.45-.65A299,299,0,0,1,68.8,80.31c-3-.65-6-1.21-9.07-1.85s-5.95-1.14-8.82-2a54.42,54.42,0,0,1-8-3.21c-1.3-.63-2.57-1.32-3.87-2s-2.79-1.11-4.18-1.68a1.1,1.1,0,0,0-1,0c-1.8-2-3.56-4.11-5.16-6.28a2.41,2.41,0,0,0-1.21-.89c-.56-1.34-2.51-.75-2.69.63-.75,5.94-.1,12.1.4,18,.25,3,.72,5.91,1.13,8.85.09.59.23,1.18.38,1.77a57.4,57.4,0,0,0-9.11,9.06,74.91,74.91,0,0,0-5.24,7.4c-.24.39-.48.78-.71,1.17-.74,1-1.47,2.11-2.16,3.2-1.68,2.65-3.33,5.37-4.76,8.17-.74,1.43-1.45,2.88-2,4.37a17,17,0,0,0-1.07,4.27,7.18,7.18,0,0,0-.65.7,1,1,0,0,0,.7,1.67v0c2.4.13,5-1.1,7.19-2s4.63-1.9,7-2.82q2.63-1.05,5.23-2.18c.23,1.4.68,2.81,1,4.16.38,1.7.79,3.39,1.2,5.09s.88,3.36,1.39,5a11.64,11.64,0,0,0,.67,1.67c.19,1,.37,2.08.56,3.12.32,1.77.62,3.54.92,5.32a17.57,17.57,0,0,0,.9,4.12c0,.45,0,.91.05,1.36.12,2.09.16,4.38,1.24,6.24a.57.57,0,0,0,1-.14c.74-1.91.59-4.08.72-6.1s.26-4.25.49-6.37a80.29,80.29,0,0,1,2.2-12.09,96.74,96.74,0,0,1,3.8-11.5,1.33,1.33,0,0,0,.72-.62c.62-1.24,1.29-2.45,2-3.65.69-1,1.37-2,2-3.07q1.92-2.94,4-5.76a26.42,26.42,0,0,0,3.7,1.12q3.06.66,6.13,1.26c3.77.72,7.57,1.39,11.38,1.91,7.84,1.08,15.71,1.88,23.61,2.47s15.74,1,23.62,1.34,16,.89,23.93.64a107.52,107.52,0,0,0,13-1.23,29.05,29.05,0,0,0,6.54-1.44l.31-.13h.07c1.86.21,3.89-.52,5.69-.93s3.67-.73,5.52-1,3.7-.66,5.54-1c1.2-.25,2.57-.43,3.82-.79.63,1.25,2.34,2.08,3.41,2.93,1.23,1,2.51,1.89,3.74,2.87a54.32,54.32,0,0,1,6.63,6.14c2,2.21,3.94,4.38,5.71,6.78A64.71,64.71,0,0,1,203,140c.75,1.36,1.3,2.85,2.05,4.19,0,0,0,.09.08.14a11.64,11.64,0,0,0,.41,1.49,3.63,3.63,0,0,0,.7,1.16l.06.79a3.14,3.14,0,0,0,.09.75c0,.14.11.27.16.41s.11.27.16.41a1.75,1.75,0,0,0,.26.51,1.31,1.31,0,0,0,.5.38.78.78,0,0,0,.67.23.86.86,0,0,0,.52-.3,1.28,1.28,0,0,0,.6-.89c0-.13.05-.27.07-.41s.06-.37.08-.55a2.56,2.56,0,0,0-.08-1c-.1-.52-.25-1-.39-1.56l.06-.22a16.07,16.07,0,0,0,.2-2,36.63,36.63,0,0,0-.3-4.43c-.22-2.87-.39-5.75-.56-8.63s-.27-5.59-.34-8.39c0-1.48-.12-3-.18-4.45a18.25,18.25,0,0,0-.17-2.42,1.1,1.1,0,0,0,.6.11,8.1,8.1,0,0,1,.85,0,7.28,7.28,0,0,0,2-.54,13.24,13.24,0,0,0,1.94-1c.54-.3,1.08-.59,1.63-.87l3.38-1.74a20.69,20.69,0,0,0,3.4-1.93A1.3,1.3,0,0,0,220.74,107Z" transform="translate(0)" fill="#49e8af"/><path d="M207.28,140.61a60.5,60.5,0,0,0-4.22-8.82,85.32,85.32,0,0,0-11.75-15.64c-.28-.29-.57-.57-.85-.85a16.47,16.47,0,0,0,1.6-1.39,24.27,24.27,0,0,0,4.06-5.3c.52.2,1.06.41,1.69.67.89.36,1.67.68,2.54,1.13s1.9.81,2.79,1.36a.8.8,0,0,0,1-1.25c-.72-.73-1.35-1.57-2.13-2.23s-1.73-1.47-2.64-2.15c-.47-.35-1-.67-1.43-1,.06-.15.14-.29.2-.44a26.29,26.29,0,0,0,1.9-5.93,17.29,17.29,0,0,0,.28-6,.86.86,0,0,0-1.55-.2c-.76,1.52-1.25,3.16-2,4.69-.54,1.09-1.12,2.17-1.72,3.23.66-2,1.16-4,1.63-6,.65-2.78,1.17-5.58,1.58-8.4a52.23,52.23,0,0,0,1-6.64,44.22,44.22,0,0,0,.17-7c0-.15,0-.3,0-.45,0-.34,0-.68,0-1a14.09,14.09,0,0,0,.89-3.13,6.71,6.71,0,0,0-.23-4.18A24.48,24.48,0,0,0,198.34,61a1.28,1.28,0,0,0-1.91-.28,1.26,1.26,0,0,0-.7,1c-.1,1.18-.55,2.21-.7,3.37,0,.22,0,.44-.07.65s-.08.57-.13.87a15.62,15.62,0,0,1-1.62,4.87c-1.73,3.21-4.61,5.5-7.67,7.4C178.48,83.22,170,85.66,162,87.45a112.49,112.49,0,0,1-14.73,2.29.6.6,0,0,0,0,1.19,100.38,100.38,0,0,0,28-3.63,71.12,71.12,0,0,0,12.83-4.61A24.73,24.73,0,0,0,193.48,79a2.46,2.46,0,0,1,0,.28c-.15,1-.32,2.08-.49,3.11a10.89,10.89,0,0,1-1.48,3c-2.06,2.81-5.56,4.42-8.64,5.84-.65.31-.18,1.44.49,1.18a41.24,41.24,0,0,0,8.53-4.2l-.27,1.38v.05a17.41,17.41,0,0,1-.83,1.87c-1.82,3.42-5.09,5.74-8.41,7.58a77.73,77.73,0,0,1-13.06,5.63.36.36,0,0,0,.2.7c3.89-1,7.79-2,11.64-3.1a46.58,46.58,0,0,0,7.94-2.74c-.25.65-.52,1.29-.83,1.91a22.82,22.82,0,0,1-3.33,4.61c-1.24,1.45-3.19,2.25-4.91,3A77.16,77.16,0,0,1,167,113q-6.51,1.5-13.13,2.38A201.26,201.26,0,0,1,126.67,117c-5,0-10.08-.18-15.12-.44-2.56-.13-5.12-.29-7.67-.45-3.9-.25-7.64-.17-11.53-.68-4.33-.56-8.66-1.17-13-1.78q-3.66-.51-7.32-1.07A48.66,48.66,0,0,1,65,111.21c-4.37-1.37-8.94-2-13.33-3.36A36.36,36.36,0,0,1,40,102.39a12.18,12.18,0,0,1-3.51-4.14,28.8,28.8,0,0,1-1.58-4,25.81,25.81,0,0,0,9.35,3.26c1.22.17,1.79-1.65.52-1.9A16.83,16.83,0,0,1,34.21,89a33.28,33.28,0,0,1-1.85-3c-.9-3.15-1.74-6.32-2.55-9.5-.11-.41-.2-.82-.3-1.24a28.84,28.84,0,0,0,9.08,5.92c8.69,3.73,18.33,5.15,27.55,7,1.11.22,1.59-1.44.47-1.72a129.33,129.33,0,0,1-12.9-4,92.63,92.63,0,0,1-11.66-4.94,26.49,26.49,0,0,1-8.88-7,18.24,18.24,0,0,1-2.27-4c-.33-.83-.63-1.59-.88-2.33,0-.09-.08-.17-.11-.26a15,15,0,0,0,2.72,2.74,58.62,58.62,0,0,0,8.15,5.25c1.46.8,3,1.48,4.47,2.18,1.77.82,3.38,1.73,5.38,1.44a1.72,1.72,0,0,0,.68-.25c8.1,4.4,17.29,6.78,26.33,8.21a274.91,274.91,0,0,0,29.77,2.76c10.32.5,20.74.64,31.05.13,5.2-.25,10.41-.62,15.58-1.21S164.16,84,169.12,83c4.36-.91,8.53-2.68,11.6-6,.34-.37.64-.75.95-1.14a2.65,2.65,0,0,0,.57-.15,2.44,2.44,0,0,0,1.51,0l.38-.14.09,0a2.67,2.67,0,0,0,1.2-.45A21.79,21.79,0,0,0,188,72.94a12.14,12.14,0,0,0,2.12-2.41c.25-.4.5-.79.74-1.19a2.24,2.24,0,0,0,.42-1.06c.06-.1.11-.22.16-.32a1.33,1.33,0,0,0-.35-1.67,43.66,43.66,0,0,0,1.76-4.85A42.62,42.62,0,0,0,195,48.67a88.32,88.32,0,0,0-.74-12.8A38,38,0,0,0,190.5,24a.66.66,0,0,0-1.09-.13,36.06,36.06,0,0,0-2.25-4.48c-1.19-2-2.47-3.93-3.71-5.89C182.31,11.72,181,9.24,179,8.36a.79.79,0,0,0-1.17.68h0a.81.81,0,0,0-.61.06l-1.42-1.8c-.31-.41-1,.11-.71.55a59.05,59.05,0,0,1,3.45,6.49c1,2.47,2.08,5,2.88,7.51a69.8,69.8,0,0,1,2.24,9.37,66.72,66.72,0,0,1,.57,10.66c-.3,11.67-3.41,25-13.09,32.5a30.18,30.18,0,0,1-9,4.71l-.08,0-2.82.39c-4.78.7-9.59,1.21-14.4,1.61a298.55,298.55,0,0,1-58.19-.9c-9-1-18.16-2.63-26.7-5.87A38.07,38.07,0,0,1,49,68.5a14.19,14.19,0,0,1-3.78-4.62A23.08,23.08,0,0,1,43.36,58a66.47,66.47,0,0,1,0-23.66,54.34,54.34,0,0,1,8.52-21.71C53,11,54.12,9.31,55.4,7.76,56,7,55,6,54.3,6.66a43.11,43.11,0,0,0-3.75,4.14,1,1,0,0,0-1.42-.18c-1.07.8-2.18,1.47-3.19,2.37A35,35,0,0,0,43,15.78a75.91,75.91,0,0,0-4.89,6.13,60.7,60.7,0,0,0-7.61,14.2,49.82,49.82,0,0,0-3.2,15.5,27.25,27.25,0,0,0,.56,8.11,11.22,11.22,0,0,0,.39,1.2A2,2,0,0,0,26,60.48c-.24-.62-1.3-.39-1.3.31,0,.31,0,.63,0,.94l-.06.15a7.18,7.18,0,0,0-.56,3.67,12.08,12.08,0,0,0,.39,1.9c0,.32,0,.63,0,1,0,2.45.25,4.9.48,7.33,0,.13,0,.26.05.39a13.28,13.28,0,0,0-.1,1.86c-.49,1.15-.1,2.66.18,3.83a20.22,20.22,0,0,0,1.33,3.63.9.9,0,0,1,.05.09c.36,1.75.75,3.48,1.19,5.2,1.2,4.69,2.43,9.52,5.45,13.41.27.35.57.67.86,1a2,2,0,0,0-.72-.1,43.69,43.69,0,0,1-4-7.73,1.07,1.07,0,0,0-1-.7c-.14-1.33-.24-2.66-.31-4a1.59,1.59,0,1,0-3.13.42c.35,2,.74,4.12,1.22,6.17a20.24,20.24,0,0,0-2.86,4.22c-1.09,1.72-2,3.56-3,5.33s-2.09,3.39-2.95,5.2c-.43.9-.84,1.8-1.21,2.72a16.88,16.88,0,0,0-.75,3,.62.62,0,0,0,1.12.47c.48-.79,1.06-1.53,1.5-2.36s.89-1.79,1.37-2.66a51.55,51.55,0,0,1,2.92-5,30.78,30.78,0,0,1,3.74-4.17q.81-.81,1.68-1.56c.17.44.34.88.52,1.32a23.26,23.26,0,0,0,1.48,2.85,13,13,0,0,0-.92,1.73s-.08.18-.12.29-.07.15-.08.16c-.11.22-.22.44-.32.66-.24.5-.41,1-.61,1.56a8.41,8.41,0,0,0-.41,1.29c-.05.28-.06.55-.09.83a5,5,0,0,1-.16.67.8.8,0,0,0,1.45.62,8.31,8.31,0,0,1,.8-1,13.9,13.9,0,0,0,.92-1.22c.36-.52.49-.62.84-1.09l.43-.6.14-.19a.81.81,0,0,0,.16-.14c.1-.11.19-.23.29-.35.47.6,1,1.19,1.42,1.8s.77,1.09,1.18,1.63c-.14.47-.27.94-.43,1.41-.34,1-.78,2-1.14,3a57.19,57.19,0,0,0-1.9,6,123.68,123.68,0,0,0-2.41,12.21,94.94,94.94,0,0,0-.73,12.39,52.47,52.47,0,0,0,1.35,12.37.67.67,0,0,0,1.32-.18c-.06-4-.05-8.14,0-12.19,0-.08,0-.17,0-.25s0,.13.05.19a.46.46,0,0,0,.88,0c.89-3.77,1-7.73,1.61-11.56.16-1,.34-2,.55-3A11.53,11.53,0,0,0,35.26,132c.49-1.78,1.07-3.55,1.69-5.3a80,80,0,0,1,3.14-7.57,2.61,2.61,0,0,0,.75-.7l.19-.27,0,0a5.45,5.45,0,0,0,.92-1.38c.23-.4.47-.8.72-1.19s.49-.73.75-1.09c.12-.18.27-.35.39-.53a5.58,5.58,0,0,0,.35-.69,1.72,1.72,0,0,0-.26-2,1.9,1.9,0,0,0-.37-.26l1.25.49a69.44,69.44,0,0,0,10.53,3.07c-.59.13-1.11.78-.67,1.36l.37.42a.83.83,0,0,0,.57,1c.29.1.59.18.89.26,1,.77,2.16,1.44,3.11,2.16L60,120a3,3,0,0,0,.26.79,7.31,7.31,0,0,0,.88,1,17.54,17.54,0,0,0,1.94,1.72c.5.39,1,.75,1.53,1.12a4,4,0,0,0,.16.57c0,.11.07.22.1.33v.1a1,1,0,0,0,.14.48,7.41,7.41,0,0,0,1.09,1.58,14.37,14.37,0,0,0,3,2.91c1,.71,2.05,1.34,3.06,2,.56.36,1.11.72,1.67,1.06a6.09,6.09,0,0,0,2,.95,1.5,1.5,0,0,0,.92-.11c.09.14.18.28.28.41a21.26,21.26,0,0,0,8.56,6.27.41.41,0,0,0,.41-.7,47,47,0,0,1-6.26-5.45c-1.62-1.66-3.78-4.76-.91-6.36,2.34-1.3,5.48-1.38,8.09-1.45,3-.07,6,0,9,.06q9.3.18,18.58.8c5.81.39,11.79.63,17.49,1.9a32,32,0,0,1,4.29,1.26c1.45.53,3.45,1.09,3.86,2.79a4.47,4.47,0,0,1-1.07,3.76c-.93,1.14-2.24,1.75-3,3a.74.74,0,0,0,.83,1.08c2.2-.55,4.32-2.89,5.11-5.16a3.4,3.4,0,0,0,2-1c.5-.41,1-.81,1.46-1.25,1-.9,1.93-1.77,2.89-2.66s1.88-1.72,2.84-2.57a3.94,3.94,0,0,0,.87-.86l.1-.25,0,0a3.07,3.07,0,0,0,.34-.38c.24-.27.51-.54.74-.83l.95-.86a42,42,0,0,1,5.19-3.73,1.89,1.89,0,0,0,.88-1.12l.39-.21c.59-.31,1.12-.69,1.71-1,1.17-.58.34-2.37-.86-2.06-.61.16-1.23.21-1.84.35l-1.62.39a1.13,1.13,0,0,0-.18,0c-1.08.27-2.15.58-3.21.94a3,3,0,0,0-1-.09c-.81.07-1.63.22-2.43.31-1.63.19-3.25.34-4.88.46-2.18.15-4.37.23-6.56.29a1.25,1.25,0,0,0-.17-.43c4.32-.26,8.64-.63,12.93-1.18a166,166,0,0,0,27.35-6,3.51,3.51,0,0,0,.39,1c.83,1.45,2.56,2.44,3.8,3.51A83.82,83.82,0,0,1,197,131.61c2.12,2.91,4,6,5.85,9.14s3.37,6.63,5.23,9.85c.47.82,2.06.54,1.92-.52A39.27,39.27,0,0,0,207.28,140.61ZM40.09,109.48l-.45-.17,0,0a5.18,5.18,0,0,1-.76-.34l-.33-.16-.45-.19a1.92,1.92,0,0,0-.33-.14l-.05,0h0l-.38-.17a5.4,5.4,0,0,0-1-.39,3,3,0,0,1-.32-.12l-.15-.06-.11,0a1.61,1.61,0,0,0-.56-.12l0,0c0-.23.06-.46.08-.69a1.6,1.6,0,0,0-.07-.54,22.87,22.87,0,0,0,5.34,3.35Zm37.85,8.23c-3.6-.33-7.21-.69-10.81-1.08-3-.33-6-.84-9-1a10.39,10.39,0,0,0-1.76-1c.71.14,1.42.29,2.13.4,1.12.18,2.24.35,3.36.5s2.53.13,3.8.24c2.58.22,5.15.72,7.7,1.1q3.47.51,6.93,1Z" transform="translate(0)" fill="#c7d0d8" style="mix-blend-mode:multiply"/><path d="M172.27,4.81a14,14,0,0,0-1.74-1.33,4.31,4.31,0,0,0-1-.49,1.74,1.74,0,0,0-.64-.05,1.71,1.71,0,0,0-.6.09.43.43,0,0,0-.18.71,1.91,1.91,0,0,0,.41.33,1.91,1.91,0,0,0,.52.33c.32.13.64.24,1,.34a4.26,4.26,0,0,1,.47.15l.11,0h0l.23.1a9.84,9.84,0,0,1,.91.48C172.15,5.78,172.65,5.16,172.27,4.81Z" transform="translate(0)" fill="#c7d0d8" style="mix-blend-mode:multiply"/><path d="M138.82,13.19c.11-.74-.6-1.53-1.38-1a26.57,26.57,0,0,0-4.73,4.08c-1.49,1.54-3,3-4.39,4.68C122.89,27.36,118.61,36.45,115,44c-1.57,3.3-1,5.64.19,8.95,1.6,4.68,3.39,7.67,4.23,12.56a3.25,3.25,0,0,0,6.38-.87c0-3.49-.38-7-.25-10.46s.23-6.91.65-10.36a56.9,56.9,0,0,1,6.36-19.64,69.76,69.76,0,0,1,6.39-10A.75.75,0,0,0,138.82,13.19Z" transform="translate(0)" fill="#c7d0d8" style="mix-blend-mode:multiply"/><path d="M105.45,40.57A42.25,42.25,0,0,0,88.89,18.51,38.06,38.06,0,0,0,61.37,12.2a25,25,0,0,0-4.14-.1,2.71,2.71,0,0,0-2.58,3.38c1.44,5,2.41,10.22,4.51,15A35.9,35.9,0,0,0,67.53,42.3,62.56,62.56,0,0,0,79.3,50.77a59.91,59.91,0,0,0,14.6,6.46A50.09,50.09,0,0,0,102,58.57a5.76,5.76,0,0,0,3.73-.45c1.29-.83,1.42-2.28,1.49-3.67A41.29,41.29,0,0,0,105.45,40.57Z" transform="translate(0)" fill="#fff" style="mix-blend-mode:soft-light"/><path d="M175.84,23.77a31.31,31.31,0,0,0-7.12-9.42,26.25,26.25,0,0,0-7.51-5A3,3,0,0,0,157.57,7a16.17,16.17,0,0,0-6.23,3.14,27,27,0,0,0-5.14,4.65,49.32,49.32,0,0,0-4.4,6.33c-1.3,2.15-3.07,4.56-1.8,7.12A28.49,28.49,0,0,0,141.86,31a33.75,33.75,0,0,1,1.78,3.43,26.3,26.3,0,0,0,3.8,5.75,28.8,28.8,0,0,0,10.91,7.21c5,2,10.23,3,15.21,5a2.47,2.47,0,0,0,3-1.72c1.07-4.79,2.15-9.68,2.07-14.62A28.84,28.84,0,0,0,175.84,23.77Z" transform="translate(0)" fill="#fff" style="mix-blend-mode:soft-light"/><path d="M185.92,76.77a60.33,60.33,0,0,0-6.28,2c-2.08.82-4.15,1.64-6.28,2.32a94.76,94.76,0,0,1-12.86,3.09A154.08,154.08,0,0,1,132.27,86c-9.3-.11-18.62-.51-27.91-1A256.23,256.23,0,0,1,78,82.38c-4.84-.77-9.69-1.66-14.45-2.84-2.44-.6-4.86-1.28-7.28-2s-4.73-1.69-7.14-2.39a.66.66,0,0,0-.5,1.2,50.13,50.13,0,0,0,6.08,3.18c2,1,4,1.85,6,2.63a104.42,104.42,0,0,0,13,4A174.4,174.4,0,0,0,101,90c9.33.68,18.72,1,28.08,1.22a178.09,178.09,0,0,0,29.74-1.47,92.3,92.3,0,0,0,14.83-3.48,75.17,75.17,0,0,0,7.28-2.77,23.65,23.65,0,0,0,6.43-4.32A1.48,1.48,0,0,0,185.92,76.77Z" transform="translate(0)" fill="#fff" style="mix-blend-mode:soft-light"/><path d="M129.72,99.5c-1.47-.1-2.91-.39-4.38-.4-1.62,0-3.25,0-4.87.05q-4.5.07-9,0-9.14-.15-18.24-.92a254.09,254.09,0,0,1-35.67-5.42,84.54,84.54,0,0,1-8.72-2.4c-3-1-5.67-2.62-8.57-3.76-1.53-.61-2.7,1.66-1.58,2.72a22.56,22.56,0,0,0,7.47,4.19c2.63,1,5.27,1.79,8,2.51a175.91,175.91,0,0,0,17.8,3.47A279.38,279.38,0,0,0,109,102.92q5.23.12,10.47,0c1.79,0,3.57-.09,5.35-.19a48,48,0,0,0,5.19-.86C131.47,101.65,131,99.59,129.72,99.5Z" transform="translate(0)" fill="#fff" style="mix-blend-mode:soft-light"/><path d="M144.54,98.8a3.67,3.67,0,0,0-1.31-.38,1.28,1.28,0,0,0-.28-.07h-.07a3.69,3.69,0,0,0-.5-.17,2,2,0,0,0-1.16-.38,9.85,9.85,0,0,0-4,.58l.49-.21-.47.13a1.93,1.93,0,0,0,0,3.73,9.09,9.09,0,0,0,2.26.28,16.38,16.38,0,0,0,2.31-.39,2,2,0,0,0,1-.65,2.05,2.05,0,0,0,.46-.33v0h0l.29-.19a3.65,3.65,0,0,0,1.21-.95A.71.71,0,0,0,144.54,98.8Z" transform="translate(0)" fill="#fff" style="mix-blend-mode:soft-light"/><path d="M221.74,106.8a28.18,28.18,0,0,0-3-2.11c-.87-.59-1.73-1.19-2.62-1.74a25.81,25.81,0,0,0-2.7-1.63l-1.36-.64-.43-.18-.2-.1a3.55,3.55,0,0,0-.5-.21l-.07-.06c-1.14-1.09-3.11.32-2.23,1.72.11.18.24.35.34.53a7,7,0,0,0,1.76,2.1,26.29,26.29,0,0,0,2.85,2.19c.66.48,1.33.93,2,1.39-3.06,1-6.1,2.14-9.13,3.3a2.47,2.47,0,0,0-1.76,2.31,18.75,18.75,0,0,0,.32,2.8,3.55,3.55,0,0,0,.75,1.78c.26.82.6,1.74,1.58,1.74s1.29-1,1.48-1.79a4.3,4.3,0,0,0,.63-2.2c0-.27,0-.53,0-.79,3.41-1.5,6.79-3,10.13-4.68a2.22,2.22,0,0,0,2.07-3.73Z" transform="translate(0)" fill="#fff" style="mix-blend-mode:soft-light"/><path d="M23.28,119.73a20.16,20.16,0,0,0-3.66,1.15c-1.14.39-2.28.78-3.41,1.2-2.4.88-4.8,1.78-7.17,2.76S4.13,126.57,2.15,128c-.86.63-1.95,1.49-1.62,2.71a1.61,1.61,0,0,0,.7.93h0a1.28,1.28,0,0,0,.24.11c1.5.68,3.93-.45,5.24-1,2-.79,4.08-1.55,6.12-2.33s4-1.48,5.92-2.22c1.09-.41,2.27-.76,3.42-1.17a12.08,12.08,0,0,0,.62,1.54,29.86,29.86,0,0,0,1.93,3.2.5.5,0,0,0,.93-.26,16.25,16.25,0,0,0-.44-5.9A2.26,2.26,0,0,0,23.28,119.73Z" transform="translate(0)" fill="#fff" style="mix-blend-mode:soft-light"/><path d="M163.42,116.33c-11.27,12.72-25,23.36-39.06,32.88q-2.86,1.93-5.76,3.83c-1.87,1.23-3.62,2.64-5.42,4a.73.73,0,0,0,.74,1.26,53.35,53.35,0,0,0,5.28-2.68c1.77-1.11,3.53-2.24,5.26-3.41q5.42-3.63,10.64-7.52a240.75,240.75,0,0,0,20.47-16.83c3.34-3.1,6.57-6.33,9.6-9.75,1.05-1.19-.69-2.94-1.75-1.75Z" transform="translate(0)" fill="#0d0d0d"/><path d="M29.45,63.76C26.48,46.37,32,26.58,45.75,15A34.11,34.11,0,0,1,68.47,6.76c9.22.26,18.09,4.32,25.09,10.17,8.07,6.73,13.72,15.5,18.83,24.56a1.35,1.35,0,0,0,2.44-.32c3.45-18.41,17.42-36.19,37-38.45a38.37,38.37,0,0,1,26.26,6.57c8.1,5.67,13,14.6,15.15,24.11,2.57,11.57,1.28,23.68-2,34.95a1.22,1.22,0,0,0,2.35.65c5.79-19.73,5.61-45.29-11.42-59.67A40.36,40.36,0,0,0,155.16,0a41.3,41.3,0,0,0-26.44,10.93,53.94,53.94,0,0,0-16.47,29.52l2.44-.32C106.59,22.89,91.48,6.26,71.57,4a35.88,35.88,0,0,0-25,6.89A46.78,46.78,0,0,0,30.74,31.82a60.13,60.13,0,0,0-3.18,32.46c.22,1.24,2.09.71,1.89-.52Z" transform="translate(0)" fill="#0d0d0d"/><path d="M113.78,157.24c-17-9-33.67-19-48.07-31.85A139.29,139.29,0,0,1,54.12,113.8c-.53-.59-1.4.29-.88.88,13,14.49,28.89,26.09,45.72,35.73,4.71,2.7,9.5,5.23,14.36,7.63.53.26,1-.52.46-.8Z" transform="translate(0)" fill="#0d0d0d"/><path d="M32.38,30.72a45,45,0,0,0-4.8,10,47.29,47.29,0,0,0-2.65,11.24c-.36,3.77-.36,7.72,1.35,11.19A18.85,18.85,0,0,0,33,70.25a49.1,49.1,0,0,0,9.79,4.66c3.75,1.42,7.6,2.55,11.46,3.59,8,2.16,16.16,3.9,24.36,5.25A254.62,254.62,0,0,0,128.1,87c8.3-.26,16.6-.93,24.83-2,7.53-1,15.22-2,22.51-4.26,6.52-2,13-5.28,17.26-10.77,3.73-4.81,6.23-11.52,5-17.65A13.18,13.18,0,0,0,196,48.16a.65.65,0,0,0-1.19.5,21.4,21.4,0,0,1-2.24,17.71c-3.49,5.72-9.19,9.32-15.39,11.54-6.67,2.38-13.82,3.45-20.81,4.47-7.89,1.15-15.84,1.91-23.8,2.29a252,252,0,0,1-46.59-2Q74.25,81,62.66,78.3c-7.44-1.75-14.94-3.66-21.92-6.82a30.92,30.92,0,0,1-9.3-6,14,14,0,0,1-3.92-10.17,56.33,56.33,0,0,1,1.14-12.5A56,56,0,0,1,32.87,31a.28.28,0,0,0-.49-.28Z" transform="translate(0)" fill="#0d0d0d"/><path d="M32.27,30.65c-5,8.26-7.89,18-9.12,27.57a82.17,82.17,0,0,0,.85,25,106.47,106.47,0,0,0,2.93,12.47c1.41,4.59,3.76,8.72,7.71,11.56s8.52,4.31,13,5.67a131.74,131.74,0,0,0,15.68,3.7c10.57,1.87,21.3,2.9,32,3.85s21.18,1.66,31.81,1.62a189.39,189.39,0,0,0,31.1-2.53A138.33,138.33,0,0,0,173.56,116c4.78-1.4,9.93-2.81,14.24-5.4,4.12-2.47,6.53-6.54,8.32-10.87a55.78,55.78,0,0,0,3.66-14c1.33-10,.27-20.12-1.45-30a50.36,50.36,0,0,0-1.75-7.25c-.29-.86-1.82-.79-1.69.23.59,4.81,1.79,9.51,2.43,14.32a96.24,96.24,0,0,1,.9,14.49,62.87,62.87,0,0,1-1.8,14.26,38,38,0,0,1-5.58,12.86c-3,4.1-7.61,5.67-12.21,7.26a129.29,129.29,0,0,1-14.56,4,169.55,169.55,0,0,1-30.3,3.62c-20.33.75-40.89-1-61-3.67-10.22-1.36-20.57-3.25-30.22-7-4.3-1.66-8.1-4.18-10.35-8.32-2.12-3.91-3.09-8.39-4.08-12.69a97.3,97.3,0,0,1-2.95-23.59,81.17,81.17,0,0,1,5.18-26c.88-2.46,1.83-4.88,2.7-7.34.16-.45-.51-.7-.74-.32Z" transform="translate(0)" fill="#0d0d0d"/><path d="M1,133A74.08,74.08,0,0,1,11.09,110.2a73.28,73.28,0,0,1,7.65-9.73q2-2.16,4.17-4.15c1.54-1.4,3.34-2.55,4.81-4a1.36,1.36,0,0,0-1.64-2.12,26.11,26.11,0,0,0-3.65,3.16Q20.63,95,19,96.8a75.39,75.39,0,0,0-6.18,7.51A77.19,77.19,0,0,0,3.43,121.8,83.06,83.06,0,0,0,0,132.71c-.14.61.78.86.93.26Z" transform="translate(0)" fill="#0d0d0d"/><path d="M31,165.29c-.58-14.87,2.57-30.42,9.92-43.45,1-1.75,2.06-3.47,3.18-5.14.6-.89,1.26-1.73,1.93-2.56s1.2-1.51.92-2.56a1,1,0,0,0-.91-.68c-1.82.06-2.61,2.39-3.42,3.73-1,1.6-1.93,3.21-2.82,4.86a93.28,93.28,0,0,0-4.73,10.32,81.06,81.06,0,0,0-5,22.36,76.65,76.65,0,0,0,.12,13.12c.05.53.87.55.85,0Z" transform="translate(0)" fill="#0d0d0d"/><path d="M.42,133.45A4.25,4.25,0,0,0,3,133l2.62-1c1.88-.71,3.74-1.44,5.61-2.15s3.75-1.42,5.63-2.12l2.63-1c.87-.32,1.72-.47,2.25-1.25a.73.73,0,0,0-.43-1.07c-.93-.27-1.84.26-2.71.58L16,126c-1.87.69-3.75,1.4-5.62,2.12s-3.74,1.44-5.6,2.21c-.86.35-1.73.71-2.59,1.08a3.87,3.87,0,0,0-2,1.38.48.48,0,0,0,.28.69Z" transform="translate(0)" fill="#0d0d0d"/><path d="M20.67,125.42c.14,3.47,1.1,6.89,1.83,10.29.77,3.61,1.52,7.22,2.28,10.84s1.45,7.07,2.14,10.61l1,5.31c.24,1.25.17,3.55,1.5,4.15a.33.33,0,0,0,.39-.05c1-1,.19-2.91,0-4.1-.33-1.77-.67-3.55-1-5.32q-1.08-5.43-2.23-10.85c-.74-3.52-1.53-7-2.34-10.56s-1.46-7.19-2.94-10.49c-.14-.31-.64-.15-.63.17Z" transform="translate(0)" fill="#0d0d0d"/><path d="M177.76,113.44c1.12,1.64,2.9,2.84,4.39,4.12s3.17,2.81,4.69,4.29a84.93,84.93,0,0,1,8.43,9.55,89.91,89.91,0,0,1,6.91,10.66q1.57,2.83,2.95,5.78c.91,1.95,1.58,4.06,2.58,6,.51,1,2,.28,1.71-.73a30.56,30.56,0,0,0-1.87-4.78c-.68-1.55-1.39-3.09-2.16-4.6a90.15,90.15,0,0,0-18.25-24.4c-1.35-1.26-2.74-2.51-4.2-3.65a14.75,14.75,0,0,0-4.64-2.91.48.48,0,0,0-.54.7Z" transform="translate(0)" fill="#0d0d0d"/><path d="M197.37,92.93a7.91,7.91,0,0,0,2.95,1.64c1.15.52,2.3,1,3.43,1.56a68.85,68.85,0,0,1,12.89,8c1,.79,2,1.6,2.94,2.45.48.42,1,.84,1.41,1.3s.47,1,.92,1.41a.63.63,0,0,0,.74.09l.21-.09a.94.94,0,0,0,.43-1,5.51,5.51,0,0,0-2.14-2.64c-1-.89-2-1.76-3.1-2.59a71.48,71.48,0,0,0-6.59-4.62,69.13,69.13,0,0,0-7-3.8c-1.14-.53-2.3-1-3.48-1.46a6.7,6.7,0,0,0-3.43-.71.32.32,0,0,0-.14.53Z" transform="translate(0)" fill="#0d0d0d"/><path d="M209.63,152.78c.05-1.48.29-2.95.32-4.44s0-3,0-4.45c0-3-.14-6.09-.23-9.14q-.27-9-.64-18l-.53.93q3.85-2.14,7.71-4.31l3.63-2c1.1-.62,2.49-1.06,3-2.3a.74.74,0,0,0-.52-.92c-1.25-.23-2.26.63-3.32,1.22l-3.85,2.16q-3.85,2.16-7.69,4.34a1,1,0,0,0-.53.92q.38,9,.68,18c.09,3,.15,5.93.28,8.89.06,1.48.09,3,.18,4.45s.41,3.12.52,4.69a.53.53,0,0,0,1.06,0Z" transform="translate(0)" fill="#0d0d0d"/><path d="M31,121c1.22-2.21,2.59-4.36,3.95-6.5.66-1.05,1.36-2.08,2.08-3.09.35-.49.71-1,1.07-1.46.09-.11.19-.3.28-.39s.21-.11.31-.18a1.48,1.48,0,0,0,.49-.84.78.78,0,0,0-1.14-.87c-.57.31-.64.83-1,1.28s-.75,1-1.11,1.56c-.76,1.09-1.48,2.19-2.16,3.32a48.18,48.18,0,0,0-3.41,6.91c-.15.36.44.6.62.26Z" transform="translate(0)" fill="#0d0d0d"/><path d="M30.72,110.64c.63-.67,1.28-1.33,1.92-2a13.33,13.33,0,0,1,2-1.79,2.77,2.77,0,0,0,.58-.44,1.28,1.28,0,0,0,.29-.49.77.77,0,0,0,0-.4l-.08-.18c.06.12.07.14,0,0A.78.78,0,0,0,35,105c.25.11-.05,0-.08,0a1,1,0,0,0-.41,0,1.58,1.58,0,0,0-.8.64c-.12.16-.22.33-.34.49s-.32.35-.47.52c-.3.34-.59.69-.88,1a24.42,24.42,0,0,0-1.83,2.57c-.2.3.25.65.5.39Z" transform="translate(0)" fill="#0d0d0d"/><path d="M17.81,114.43c1.68-2.85,3.53-5.62,5.44-8.32q1.44-2,3-4c.5-.61,1-1.21,1.52-1.8s1.3-1.17,1.92-1.81c1-1-.67-2.6-1.53-1.53-.54.66-.92,1.42-1.45,2.07s-1.05,1.3-1.56,2c-1,1.34-2,2.7-3,4.1a64.47,64.47,0,0,0-5,8.92c-.2.44.41.81.66.38Z" transform="translate(0)" fill="#0d0d0d"/><path d="M197.52,117c-.55-.8-1.12-1.58-1.63-2.4a21.18,21.18,0,0,0-1.76-2.46,21.88,21.88,0,0,0-2-2.12,14.32,14.32,0,0,0-2.34-2,1,1,0,0,0-1.23,1.59c.64.67,1.45,1.21,2.14,1.83s1.41,1.25,2.11,1.89l2,1.87a15.67,15.67,0,0,1,1.94,2.21c.31.42,1,0,.72-.42Z" transform="translate(0)" fill="#0d0d0d"/><path d="M199.46,107.59c-.85-.71-1.69-1.43-2.55-2.11-.45-.36-.91-.7-1.37-1a14.66,14.66,0,0,0-1.39-1,1.08,1.08,0,0,0-1.44.38,1.06,1.06,0,0,0,.38,1.43c.56.25,1.15.4,1.72.63s.92.39,1.37.6a22.58,22.58,0,0,1,2.9,1.58c.29.2.65-.26.38-.49Z" transform="translate(0)" fill="#0d0d0d"/><path d="M188.69,35.59a150,150,0,0,1,0,19.08c-.19,3.14-.48,6.28-.88,9.4-.21,1.67-.45,3.34-.73,5a18.93,18.93,0,0,1-.36,2c-.17.59-.55,1-.53,1.62a.78.78,0,0,0,.55.73l.19,0a1,1,0,0,0,1-.26A6.76,6.76,0,0,0,189,69.6c.21-1.52.4-3,.56-4.57.35-3.28.58-6.58.7-9.87a137.59,137.59,0,0,0-.77-19.57c0-.5-.83-.52-.79,0Z" transform="translate(0)" fill="#0d0d0d"/><path d="M186.71,27.61c.11.64.19,1.31.36,1.93l.26.95a1.34,1.34,0,0,0,.66,1,.51.51,0,0,0,.47-.13c.28-.26.23-.74.18-1.09s-.08-.64-.13-1c-.09-.69-.28-1.37-.43-2.05a.71.71,0,0,0-.87-.49.72.72,0,0,0-.5.87Z" transform="translate(0)" fill="#0d0d0d"/><path d="M35.29,35a98.59,98.59,0,0,0-2.83,16.45,72.7,72.7,0,0,0,.18,16.81c.15,1,1.83.76,1.75-.24-.23-2.68-.63-5.34-.77-8s-.15-5.53,0-8.3A83.64,83.64,0,0,1,36,35.19c.1-.42-.56-.61-.67-.18Z" transform="translate(0)" fill="#0d0d0d"/><path d="M37.46,28.49c-.07.47-.22.91-.32,1.37a1.27,1.27,0,0,0,0,.61c-.05-.21,0,0,0,0,0-.09,0-.1,0,0l0,.09a.59.59,0,0,0,.06.45c0-.24,0-.3-.05-.18l0,.08a2.38,2.38,0,0,0-.06.37.27.27,0,0,0,.41.23,2.3,2.3,0,0,0,.45-.36l-.2.11A.68.68,0,0,0,38,31l.1-.1c0-.05.15-.14,0,0a1.77,1.77,0,0,0,.55-.84A7.07,7.07,0,0,0,39,28.7a.74.74,0,0,0-.23-.54.76.76,0,0,0-.43-.21.73.73,0,0,0-.48.09.71.71,0,0,0-.35.45Z" transform="translate(0)" fill="#0d0d0d"/><path d="M36.82,57q0,3.33.07,6.66c0,1.08.1,2.16.17,3.25a14.17,14.17,0,0,0,.36,3.31.75.75,0,0,0,1.46-.2,17.88,17.88,0,0,0-.42-3.17c-.16-1.11-.3-2.21-.42-3.32-.24-2.18-.39-4.35-.44-6.53a.39.39,0,0,0-.78,0Z" transform="translate(0)" fill="#0d0d0d"/><path d="M40.81,68.27c0,.41,0,.82,0,1.22a7.75,7.75,0,0,0,.14,1.36A12.14,12.14,0,0,0,41.23,72c.13.42.4,1.14.89,1.23L41.74,73c.2.27.48.84.9.72s.29-.71.26-1l-.18.44a.92.92,0,0,0,.17-.9,5.35,5.35,0,0,0-.11-.55c-.12-.39-.22-.78-.34-1.17s-.22-.79-.35-1.17c-.06-.18-.13-.35-.19-.53a4.66,4.66,0,0,1-.12-.65c-.09-.55-1-.41-1,.13Z" transform="translate(0)" fill="#0d0d0d"/><path d="M182.34,59.59a68.43,68.43,0,0,1-.69,8.46c-.39,2.72-.93,5.41-1.37,8.13-.16,1,1.38,1.47,1.58.43,1.06-5.55,1-11.39,1-17a.26.26,0,0,0-.52,0Z" transform="translate(0)" fill="#0d0d0d"/><path d="M178.05,73.12a18.64,18.64,0,0,1-.21,2.15l-.09.53c0,.21,0,.42-.06.63s0,.37,0,.57a1.82,1.82,0,0,0,0,.57.36.36,0,0,0,.6.16,1.72,1.72,0,0,0,.29-.49,5.94,5.94,0,0,0,.27-.57,3.54,3.54,0,0,0,.18-.55l.09-.58a21.74,21.74,0,0,0,.21-2.42.66.66,0,0,0-.65-.65.67.67,0,0,0-.65.65Z" transform="translate(0)" fill="#0d0d0d"/><path d="M143.71,130.24a49.12,49.12,0,0,0,4.51-4.5c.7-.78,1.34-1.61,2.06-2.37a13.88,13.88,0,0,0,1-1.2,4.37,4.37,0,0,0,.9-1.52.82.82,0,0,0-1.36-.78,4.74,4.74,0,0,0-.82,1.35c-.24.46-.48.91-.7,1.38a16.6,16.6,0,0,1-1.68,2.67,29,29,0,0,1-4.26,4.59c-.26.23.11.6.37.38Z" transform="translate(0)" fill="#0d0d0d"/><path d="M144,124.61c.5-.54,1-1.08,1.47-1.65.14-.16.29-.33.42-.5a1.51,1.51,0,0,0,.11-.22l0-.18,0,.16.16-.24a3.88,3.88,0,0,0,.3-.52,1.28,1.28,0,0,0,.15-.53.3.3,0,0,0-.38-.29,1.73,1.73,0,0,0-.68.39l-.53.51.26-.16a1.06,1.06,0,0,0-.48.3l-.25.3-.49.59c-.35.42-.66.88-1,1.31a.61.61,0,0,0,.16.78.6.6,0,0,0,.79,0Z" transform="translate(0)" fill="#0d0d0d"/><path d="M70.23,125.25A23.07,23.07,0,0,1,66,120.83a22.72,22.72,0,0,1-1.64-2.56,6.86,6.86,0,0,1-.62-1.41,1.27,1.27,0,0,0-.34-.67.77.77,0,0,0-.29-.17L63,116q-.26,0-.06,0a.26.26,0,0,0-.29.12c.1-.06.11-.07,0,0a.5.5,0,0,0-.14.15.77.77,0,0,0-.08.34,1.23,1.23,0,0,0,.32.76,14.2,14.2,0,0,1,.81,1.3,26.87,26.87,0,0,0,1.82,2.68,24.3,24.3,0,0,0,4.47,4.42c.29.21.67-.28.39-.51Z" transform="translate(0)" fill="#0d0d0d"/><path d="M68.42,118.26l-.24-.17.13.1a5.18,5.18,0,0,1-.87-.88l.11.14c-.09-.12-.19-.23-.29-.35l-.09-.11a.61.61,0,0,0-.16-.12c-.06,0,0,0,0,0a1.89,1.89,0,0,0-.2-.2.7.7,0,0,0-.36-.23.35.35,0,0,0-.39.15.78.78,0,0,0,0,.54c0,.06,0,.12,0,.18s0,0,0,.07,0-.13,0,0a1.43,1.43,0,0,0,.09.34.25.25,0,0,0,0,.07.8.8,0,0,0,.08.16,2,2,0,0,0,.29.4,5.21,5.21,0,0,0,1.15,1,.7.7,0,0,0,.51.07.65.65,0,0,0,.39-.3.67.67,0,0,0-.23-.9Z" transform="translate(0)" fill="#0d0d0d"/><path d="M169.87,110.87a78.6,78.6,0,0,0,17.77-5.72,19.11,19.11,0,0,0,6.53-4.91,14.17,14.17,0,0,0,2.05-3.2,6.8,6.8,0,0,0,.3-3.74c0-.3-.48-.42-.57-.08a28.92,28.92,0,0,1-1.36,3.44,10.89,10.89,0,0,1-1.94,3.15,21.21,21.21,0,0,1-6.67,4.67,77.52,77.52,0,0,1-16.23,6c-.26.06-.15.46.12.4Z" transform="translate(0)" fill="#0d0d0d"/><path d="M183,81.84c4.62-2.5,9.22-5.15,12.47-9.42a17.52,17.52,0,0,0,3.15-6.72,16.06,16.06,0,0,0,.4-3.59,6.32,6.32,0,0,0-1.2-3.52.49.49,0,0,0-.91.25c0,1.1-.23,2.15-.21,3.27a14,14,0,0,1-.36,3.35,19.53,19.53,0,0,1-2.78,6.34c-2.65,4-6.79,7-10.81,9.62a.24.24,0,0,0,.25.42Z" transform="translate(0)" fill="#0d0d0d"/><path d="M156.79,88.46q5.16-.54,10.26-1.53,2.63-.51,5.23-1.1c.87-.19,1.73-.42,2.61-.58a3.26,3.26,0,0,0,2-.7.42.42,0,0,0-.19-.69,3.29,3.29,0,0,0-2.09.38c-.84.29-1.71.49-2.57.71-1.67.43-3.34.81-5,1.16-3.41.71-6.86,1.29-10.31,1.8-.31,0-.24.59.08.55Z" transform="translate(0)" fill="#0d0d0d"/><path d="M53.65,83a128,128,0,0,1-12.77-4.35C37,77.11,33.09,75.8,30.15,72.68c-4.7-5-5.42-12.58-4.42-19.05.05-.36-.46-.66-.64-.27a18.56,18.56,0,0,0,3.09,20.08c2.79,3,6.76,4.39,10.57,5.68,4.84,1.65,9.89,2.79,14.85,4a.09.09,0,0,0,0-.18Z" transform="translate(0)" fill="#0d0d0d"/><path d="M59.75,85.37l1.85.49a7.27,7.27,0,0,0,.93.18l.46.07a2.27,2.27,0,0,0,.52,0,.22.22,0,0,0,.11-.4,1.63,1.63,0,0,0-.43-.27l-.41-.17a7.14,7.14,0,0,0-.92-.32L60,84.42a.49.49,0,0,0-.26,1Z" transform="translate(0)" fill="#0d0d0d"/><path d="M52.23,109.18a56.15,56.15,0,0,1-8.86-3.47,68.91,68.91,0,0,1-7.84-4.24c-4.75-3.18-6.31-8.83-8.15-13.92-.14-.38-.83-.36-.77.1.72,5.56,2.21,11.45,7.21,14.68,5.48,3.54,12.09,5.47,18.31,7.23.24.07.34-.31.1-.38Z" transform="translate(0)" fill="#0d0d0d"/><path d="M57.06,111a20.73,20.73,0,0,0,3.43.93c.58.08,1.14.06,1.72.11a15.13,15.13,0,0,0,1.78.06.23.23,0,0,0,.06-.45c-.57-.15-1.15-.28-1.73-.42s-1-.37-1.58-.52c-1.11-.31-2.25-.53-3.36-.87-.74-.23-1.05.92-.32,1.16Z" transform="translate(0)" fill="#0d0d0d"/><path d="M115.62,47.07a38.75,38.75,0,0,0,1.26,6.11c.3,1,.68,2,1.07,3,.17.43.32.87.52,1.27.3.6.78.79,1.13,1.34,1.12,1.73,2.59-1.5.78-1.35-.74,0-.7-6.08-.68-6.78A26.83,26.83,0,0,1,121,43.76a88.66,88.66,0,0,1,5-13.29,46.76,46.76,0,0,1,7.08-10.93,34.19,34.19,0,0,1,4.42-4.17,20,20,0,0,1,2.52-1.76c1-.52,1.9-.37,2.65-1.26a.77.77,0,0,0-.53-1.3,2.13,2.13,0,0,0-1.64.7,15.1,15.1,0,0,1-2.34,1.79,30,30,0,0,0-3.58,3,39.65,39.65,0,0,0-6.26,8,75,75,0,0,0-8.19,21.09,38.84,38.84,0,0,0-1.06,5.95,15,15,0,0,0,.07,3.07,29.86,29.86,0,0,0,.75,3l1.32.54c-.16-.54,0-1-.14-1.56s-.37-.88-.54-1.31c-.37-.92-.71-1.86-1.07-2.79-.71-1.86-1.37-3.75-2-5.63-.33-.94-2-.87-1.86.25Z" transform="translate(0)" fill="#0d0d0d"/><path d="M144.92,11.21l.55-.11c.19,0,0,0,0,0,.11,0,.3,0,.43,0a9.71,9.71,0,0,0,1.31-.14l.28,0-.12,0,.18,0c.27,0,.53-.06.79-.11a4.48,4.48,0,0,0,.5-.11,1.35,1.35,0,0,0,1-.94l-.46.6a1.83,1.83,0,0,0,.71-.64.68.68,0,0,0-.1-.79,1.66,1.66,0,0,0-.85-.39l.44.25c-.47-.57-1.22-.43-1.86-.31-.36.07-.72.2-1.08.3a7.39,7.39,0,0,0-1.21.47,3.5,3.5,0,0,0-.35.23s.11-.05,0-.05a3.38,3.38,0,0,0-.58.21.82.82,0,0,0,.44,1.57Z" transform="translate(0)" fill="#0d0d0d"/><path d="M123.44,46.17a67.53,67.53,0,0,1,2.87-7.56c.54-1.21,1.11-2.41,1.72-3.59a17,17,0,0,1,.94-1.59c.39-.61.87-1.14.61-1.9a.9.9,0,0,0-1.07-.61c-.78.2-1,.83-1.24,1.51s-.53,1.33-.82,2c-.53,1.19-1,2.4-1.5,3.62a70.35,70.35,0,0,0-2.41,7.89.47.47,0,0,0,.9.25Z" transform="translate(0)" fill="#0d0d0d"/><path d="M132.58,28.8l.63-.65a3,3,0,0,0,.39-.49l.21-.44a1,1,0,0,0,.1-.56.87.87,0,0,0-.24-.5h0l.22.37,0-.06-.07.57a5.83,5.83,0,0,0,.32-.72,1.65,1.65,0,0,0,.13-.66.33.33,0,0,0-.41-.31.71.71,0,0,0-.34.13l-.26.17a4.75,4.75,0,0,0-.6.49l.52-.21h-.06l.42.12h0a.89.89,0,0,0-1.06.14l-.34.3a2.25,2.25,0,0,0-.4.52l-.46.78a.87.87,0,0,0,.22,1.11.86.86,0,0,0,1.13-.07Z" transform="translate(0)" fill="#0d0d0d"/><path d="M44.15,23.49c.13-.15.27-.3.41-.44s0,0,0,0l0,0a.72.72,0,0,0,.22-.17l.21-.19.46-.45c.23-.24.5-.44.54-.79,0-.15,0-.15,0,0s0,.15,0,.09.09-.11,0,0l.2-.26a5.89,5.89,0,0,0,.41-.57c.05-.07.11-.15.15-.22a.42.42,0,0,0,.1-.2s0,0,0,0l0-.05c.13-.17.27-.33.41-.49s-.06-.67-.37-.48-.36.21-.53.33-.19.07-.29.13l-.27.15a9,9,0,0,0-1.1.82l.33-.19a1.09,1.09,0,0,0-.51.29,2.43,2.43,0,0,0-.2.25,7.84,7.84,0,0,0-.5.64,2.33,2.33,0,0,0-.17.26,1.19,1.19,0,0,0-.13.25s-.05.16,0,.09-.07.09-.06.09l-.09.13c-.07.1-.13.2-.19.3a.58.58,0,0,0,.91.7Z" transform="translate(0)" fill="#0d0d0d"/></g></g></g></svg>