<svg xmlns="http://www.w3.org/2000/svg" viewBox="0 0 61.05 51.03"><g id="Layer_2" data-name="Layer 2"><g id="OBJECTS"><path d="M54.29,47.09a3.14,3.14,0,0,0-.91-1c.38-.69.72-1.41,1-2.09a95.78,95.78,0,0,0,4.78-12.71c1.77-5.79,3.78-10.57-2-14.39-6.5-4.34-14.52-7.26-21.85-9.86A149.83,149.83,0,0,0,10,.5a.9.9,0,0,0-.41,0A.5.5,0,0,0,8.62.28C4.88,7.43.64,16.21,0,24.43c-.42,5.73,2.78,8.72,7.52,11.24A220.57,220.57,0,0,0,34.09,47.35c4.45,1.66,11.28,5.54,16,2.62a9.73,9.73,0,0,0,3.25-3.79,3.32,3.32,0,0,1,.95.92ZM2.42,20.21A113.41,113.41,0,0,1,8.94,2c3.15,7.87,6.71,15.64,10.47,23.24a.64.64,0,0,0,.35.32c-5.55,1.55-11.22,2.78-16.69,4.61C1.19,27.11,1.53,23.75,2.42,20.21ZM30.23,44.08Q21.7,40.74,13.4,36.76c-2.74-1.32-6.93-2.67-9-4.89a10.77,10.77,0,0,1-.78-.94,101.34,101.34,0,0,0,10.59-2.41c3.76-1,8.81-3.46,12.66-3.6,6.69-.25,9,8,11.42,12.74L44.05,48.9C39.32,48.44,34,45.56,30.23,44.08ZM50.9,46.87A7.63,7.63,0,0,1,45.64,49q-4.12-8-8.26-16.06c-.32-.62-.68-1.5-1.08-2.48,3.62-1.19,7.06-3.19,10.57-4.66,3.71-1.55,7.49-2.88,11.28-4.2.75-.26.29-1.36-.45-1.13a121.72,121.72,0,0,0-11.88,4.41c-3.28,1.4-6.88,2.78-9.8,4.89-1.13-2.74-2.6-6-4.6-6.82-2.86-1.2-7.87,1.58-10.5,2.34l-.35.1a.54.54,0,0,0,.05-.58c-3.52-7.5-7-15-10.52-22.52A154.31,154.31,0,0,1,45.94,13.16c2.55,1.15,5.08,2.34,7.55,3.65,3,1.58,6.09,2.8,5.9,7.23a15.82,15.82,0,0,1-.75,3.09A102.55,102.55,0,0,1,55.1,38C54.11,40.54,52.94,44.88,50.9,46.87Z" fill="#072d36"/><path d="M17,36.23a10.61,10.61,0,0,1-6.46-3.67.24.24,0,0,0-.38.29,9.6,9.6,0,0,0,6.75,4A.34.34,0,0,0,17,36.23Z" fill="#072d36"/><path d="M17.66,34.76,14,33.26a.31.31,0,0,0-.25.56l3.65,1.66A.39.39,0,0,0,17.66,34.76Z" fill="#072d36"/><path d="M43.5,15a.24.24,0,0,0-.12.45,3.29,3.29,0,0,1,2.12,4.05c-.1.35.52.53.64.17A3.7,3.7,0,0,0,43.5,15Z" fill="#072d36"/><path d="M47.66,15.82c-.11-.18-.42,0-.33.19A4.07,4.07,0,0,1,47,20c-.18.32.34.61.56.33A4.06,4.06,0,0,0,47.66,15.82Z" fill="#072d36"/><path d="M40.3,19.35c-1.11-3.56-5.18-2.35-8-.66a7.25,7.25,0,0,0-2.65-3,3.31,3.31,0,0,0-4.95,1.65c-1.45,3.88,2.38,9.2,5.64,11.2l.25.16.07,0h0a1.93,1.93,0,0,0,1.67.07C35.2,27.33,41.54,23.36,40.3,19.35Z" fill="#e0314d"/></g></g></svg>