<svg xmlns="http://www.w3.org/2000/svg" viewBox="0 0 61.12 74.13"><g id="Layer_2" data-name="Layer 2"><g id="OBJECTS"><path d="M45.6,28.21A10.73,10.73,0,0,0,32.93,22c-4.51,1.09-7.65,4.27-10.26,7.87a18,18,0,0,0-2.79-2.8,15.29,15.29,0,0,0-8.64-3.18C5.06,23.62.5,27.55.05,33.75c-.51,7,3.32,13.4,8,18.2,5,5.12,11.74,11.25,19.17,11.78a1.21,1.21,0,0,0,.75-.2,6.37,6.37,0,0,0,2.59-1.2c5.33-4,9.68-11,12.76-16.81C46.15,40.23,48.21,34,45.6,28.21ZM41.33,30.7c-.07-.41-.16-.81-.26-1.2a8.57,8.57,0,0,1,.86,1.92A4.25,4.25,0,0,0,41.33,30.7Z" fill="#e0314d"/><path d="M26.53,50.05a10.51,10.51,0,0,1-7-5.7c-.21-.45-.92-.2-.74.28A10.64,10.64,0,0,0,20.92,48l-.07.05C16.3,53.58,11.64,59,7.32,64.72,6.66,62.45,5.91,60.21,5.15,58,5,57.45,4,57.47,4,58.08A79.72,79.72,0,0,1,1.16,73.39a.63.63,0,0,0,.83.7,86.58,86.58,0,0,0,12.84-6.71.63.63,0,0,0-.25-1.13,61.12,61.12,0,0,1-6.46-1C12.87,60,17.31,54.38,21.83,48.9a8.94,8.94,0,0,0,4.52,2.15A.51.51,0,0,0,26.53,50.05ZM6.74,65.52A.45.45,0,0,0,7,66l.09.23a.33.33,0,0,0,.57.09,33.12,33.12,0,0,0,4.92,1A83.33,83.33,0,0,1,2.7,72.4,77,77,0,0,0,4.9,60.84Q5.77,63.19,6.74,65.52Z" fill="#072d36"/><path d="M60.51,6.15a29.76,29.76,0,0,0-6.77,1.49Q53.17,4.07,52.52.53c-.1-.53-.86-.77-1.1-.2A27.23,27.23,0,0,1,49.49,4a.35.35,0,0,0-.28.39v0a36.46,36.46,0,0,1-2.14,3,.31.31,0,0,0-.53.25c0,.12,0,.25,0,.37-.77.94-1.59,1.87-2.44,2.83-2.52,2.85.07,4.55-.41,7.91h0A116.48,116.48,0,0,0,32.6,35a10.33,10.33,0,0,0-4-2.24c-.34-.09-.52.47-.19.6a9.79,9.79,0,0,1,3.83,2.71A13.44,13.44,0,0,1,34.28,40c.21.5,1,.36,1-.22a7.46,7.46,0,0,0-2-4,.4.4,0,0,0,.13-.13C37.06,30,40.86,24.53,45,19.35c3.53.7,4.59,1.18,7-1.66,3-3.51,6-7.06,9-10.6A.58.58,0,0,0,60.51,6.15Zm-13.12,3a27.47,27.47,0,0,0,2-2.69c.18,1.65.36,3.31.57,5-.78.86-1.56,1.73-2.32,2.6C47.58,12.44,47.54,10.79,47.39,9.18Zm-2.78,6.7c-.53-3.22.35-4,2.08-5.9.15,1.53.37,3.07.54,4.58-.8.92-1.6,1.83-2.38,2.77C44.8,16.88,44.7,16.42,44.61,15.88Zm6.14,1.62A2.92,2.92,0,0,1,47.36,19l-1.94-.2c1-1.19,1.95-2.36,2.94-3.53,1.27.24,2.53.49,3.81.67A11.17,11.17,0,0,1,50.75,17.5Zm3-3.55c-.39.46-.77,1-1.15,1.48-1.27-.25-2.56-.41-3.85-.59.72-.84,1.45-1.68,2.2-2.51,1.19.25,2.39.45,3.59.67ZM55,12.46c-1.26-.14-2.51-.31-3.76-.44q.9-1,1.83-2c.57-.59-.4-1.4-1-.81S51,10.4,50.4,11c-.09-1.84-.2-3.68-.34-5.51a28,28,0,0,0,1.68-3.09Q52.34,5.19,53,8a.58.58,0,0,0,.2.9l.06.26c.1.4.77.25.71-.16l0-.19A32.14,32.14,0,0,1,59.15,7.5Z" fill="#072d36"/><path d="M3,30.76a9.85,9.85,0,0,0,.52,8.86c.13.2.43,0,.36-.19C3,36.56,2.64,34,3.72,31.13,3.91,30.62,3.15,30.25,3,30.76Z" fill="#072d36"/><path d="M5.73,29.61a4.4,4.4,0,0,0-.67,5.66c.15.23.56,0,.43-.23a4.21,4.21,0,0,1,.79-4.84C6.57,29.86,6.1,29.31,5.73,29.61Z" fill="#072d36"/><path d="M33,55.56a18.54,18.54,0,0,1-4.66,4.52c-.19.12,0,.46.19.36A11.76,11.76,0,0,0,33.64,56C33.86,55.6,33.27,55.23,33,55.56Z" fill="#072d36"/><path d="M32.51,54a38.19,38.19,0,0,0-3.15,2.52.23.23,0,0,0,.26.38c1.11-.74,2.3-1.44,3.33-2.28A.38.38,0,0,0,32.51,54Z" fill="#072d36"/></g></g></svg>