<svg xmlns="http://www.w3.org/2000/svg" viewBox="0 0 400.49 364.98"><g id="Layer_2" data-name="Layer 2"><g id="OBJECTS"><path d="M356.91,161.72c2.15-.51,43.85,46.18,43.29,50.82-3.92,32.67-57.15,63.67-104.06,62.55a91,91,0,0,0,30.08-43.32c0-.06-52.87,4.77-52.52,4.51C325.23,197.07,339.07,179.4,356.91,161.72Z" fill="#d5aa3e" fill-rule="evenodd"/><path d="M43.65,230.92C41.5,231.44-.1,183.49.5,178.86c4-31.09,57.49-62.82,103.93-61.3a91,91,0,0,0-30.08,43.32c0,.06,52.88-4.75,52.52-4.51C77.56,190.06,68.39,199.36,43.65,230.92Z" fill="#d5aa3e" fill-rule="evenodd"/><path d="M230.9,192.1c-2.93-36.46-6.1-69.22-7.29-95.73-.73-16.16-.72-30,.54-40.9a1.32,1.32,0,1,0-2.61-.33c-1.49,11-1.78,25-1.38,41.35.67,26.57,3.19,59.42,5.4,96a2.68,2.68,0,1,0,5.34-.38Z" fill="#78730b" fill-rule="evenodd"/><path d="M208.88,10.44a1.81,1.81,0,1,1,.44-.18,96.82,96.82,0,0,1,6.4,16.11,76.12,76.12,0,0,1,3,19.89.45.45,0,1,1-.9,0,75.38,75.38,0,0,0-2.75-19.72A96.58,96.58,0,0,0,208.88,10.44Z" fill="#ffa100" fill-rule="evenodd"/><path d="M217.17,7.32a1.87,1.87,0,0,1-.65-.1,1.84,1.84,0,0,1-1.09-2.33,1.8,1.8,0,0,1,2.29-1.12,1.83,1.83,0,0,1-.08,3.47,97,97,0,0,1,2.79,17.15,76.38,76.38,0,0,1-1.32,20.09.46.46,0,0,1-.54.36.46.46,0,0,1-.35-.54,75.89,75.89,0,0,0,1.54-19.87A96.41,96.41,0,0,0,217.17,7.32Z" fill="#ffa100" fill-rule="evenodd"/><path d="M224.6,3.64A1.84,1.84,0,0,1,223.25,1a1.79,1.79,0,0,1,2.44-.74,1.83,1.83,0,0,1-.61,3.41,97.48,97.48,0,0,1,.1,17.39,76.6,76.6,0,0,1-4.4,19.65.47.47,0,0,1-.59.27.46.46,0,0,1-.26-.59A75.65,75.65,0,0,0,224.51,21,96.63,96.63,0,0,0,224.6,3.64Z" fill="#ffa100" fill-rule="evenodd"/><path d="M246.55,17.1a1.71,1.71,0,0,0,.59.29,1.83,1.83,0,1,0-1.29-2.23,1.86,1.86,0,0,0,.35,1.61,95.89,95.89,0,0,0-11.77,12.68,76,76,0,0,0-10,17.43.45.45,0,0,0,.24.6.44.44,0,0,0,.59-.25A75.41,75.41,0,0,1,235,29.87,95.59,95.59,0,0,1,246.55,17.1Z" fill="#ffa100" fill-rule="evenodd"/><path d="M240,11.17a1.87,1.87,0,0,0,.64.14,1.82,1.82,0,0,0,1.86-1.77,1.81,1.81,0,0,0-1.74-1.88,1.83,1.83,0,0,0-1.17,3.26,96.39,96.39,0,0,0-8.79,15,76.2,76.2,0,0,0-6,19.21.45.45,0,0,0,.37.52.44.44,0,0,0,.52-.37,75.47,75.47,0,0,1,5.74-19.07A95.93,95.93,0,0,1,240,11.17Z" fill="#ffa100" fill-rule="evenodd"/><path d="M234.35,5a1.62,1.62,0,0,0,.66,0,1.82,1.82,0,0,0,1.56-2,1.79,1.79,0,0,0-2-1.58,1.83,1.83,0,0,0-1.57,2,1.86,1.86,0,0,0,.91,1.37A96.12,96.12,0,0,0,227.54,21a76.37,76.37,0,0,0-3,19.91.46.46,0,0,0,.45.47.47.47,0,0,0,.46-.46,75.52,75.52,0,0,1,2.72-19.73A96.91,96.91,0,0,1,234.35,5Z" fill="#ffa100" fill-rule="evenodd"/><path d="M230.1,57.62c-2.76,1.59-13.4.37-15.68-1.88-9.78-9.66-14.18-38.07-14.09-38.09,1-.18,10.59,6.91,15,18.12,1.71-16.34,10.27-27.81,13-29.58l0,0c2.22,2.43,7.77,15.56,5.58,31.78,7-9.85,18-14.47,18.87-14.06C252.88,24,242,50.74,230.1,57.62Z" fill="#ff5c40" fill-rule="evenodd"/><path d="M252.71,23.92l.08,0c.09,0-10.79,26.8-22.69,33.68-2.76,1.59-13.4.37-15.68-1.88-9.24-9.13-13.68-35-14.06-37.83a58.36,58.36,0,0,1,4,7.11c2.71,5.18,5.44,18.86,9,23.83,1.39,1.93,2.93-8.94,2.94-8.26.09,8.44,1.39,10.77,6.87,11.63,6.07,1,10.2-11.75,9.78-10-5.51,23.48,11.66-8.09,15-12.25,1.63-2,3-4.1,4.64-6Z" fill="#ff3f1e" fill-rule="evenodd"/><path d="M190.93,202.26c-9.93,29.58-18.44,56.33-26.4,77.52-4.85,12.92-9.5,23.76-14.15,31.9a1.12,1.12,0,0,0,.4,1.53,1.13,1.13,0,0,0,1.54-.4c4.86-8.13,9.78-19,15-32,8.39-21,17.44-47.67,28-77.08a2.29,2.29,0,0,0-4.32-1.5Z" fill="#78730b" fill-rule="evenodd"/><path d="M147.25,352.11a1.56,1.56,0,1,1-1,2.89,1.56,1.56,0,0,1-.55-2.12,1.54,1.54,0,0,1,1.17-.77,81.81,81.81,0,0,1,.39-14.79,64.75,64.75,0,0,1,4.32-16.6.38.38,0,0,1,.5-.22.39.39,0,0,1,.21.51,64.82,64.82,0,0,0-4.46,16.38A81.15,81.15,0,0,0,147.25,352.11Z" fill="#ffa100" fill-rule="evenodd"/><path d="M139.69,351.78a1.22,1.22,0,0,1,.48.3,1.56,1.56,0,1,1-2.18.11,1.6,1.6,0,0,1,1.31-.51,82.58,82.58,0,0,1,3.57-14.38A64.84,64.84,0,0,1,150.65,322a.38.38,0,0,1,.54-.1.39.39,0,0,1,.09.54,64.46,64.46,0,0,0-7.87,15.06A81.82,81.82,0,0,0,139.69,351.78Z" fill="#ffa100" fill-rule="evenodd"/><path d="M132.63,352.17a1.88,1.88,0,0,1,.43.37,1.57,1.57,0,0,1-.27,2.18,1.52,1.52,0,0,1-2.16-.23,1.57,1.57,0,0,1,.26-2.18,1.53,1.53,0,0,1,1.37-.29A83.26,83.26,0,0,1,138,338.34a65.32,65.32,0,0,1,10.05-13.92.38.38,0,0,1,.55,0,.39.39,0,0,1,0,.55,64.52,64.52,0,0,0-10.09,13.67A82.08,82.08,0,0,0,132.63,352.17Z" fill="#ffa100" fill-rule="evenodd"/><path d="M119.94,334.25a1.47,1.47,0,0,0-.37-.42,1.54,1.54,0,0,0-2.16.29,1.55,1.55,0,0,0,.26,2.18,1.56,1.56,0,0,0,2.43-1.68,80.51,80.51,0,0,0,13.49-6,64.81,64.81,0,0,0,13.68-10.32.39.39,0,0,0,0-.55.36.36,0,0,0-.54,0,64.61,64.61,0,0,1-13.42,10.37A81.51,81.51,0,0,1,119.94,334.25Z" fill="#ffa100" fill-rule="evenodd"/><path d="M123.13,341.12a1.6,1.6,0,1,0,.23.33,82.05,82.05,0,0,0,11.92-8.79,64.93,64.93,0,0,0,11.16-13,.37.37,0,0,0-.11-.53.38.38,0,0,0-.54.12,64.24,64.24,0,0,1-10.9,13A81.14,81.14,0,0,1,123.13,341.12Z" fill="#ffa100" fill-rule="evenodd"/><path d="M125.45,347.81a1.54,1.54,0,0,0-2.41.83,1.53,1.53,0,0,0,1,1.91,1.56,1.56,0,0,0,1.66-2.45,82.41,82.41,0,0,0,10.42-10.54,65,65,0,0,0,9-14.61.38.38,0,1,0-.7-.31,64.35,64.35,0,0,1-8.76,14.56A81.64,81.64,0,0,1,125.45,347.81Z" fill="#ffa100" fill-rule="evenodd"/><path d="M146.43,308c2.7-.32,10.64,4.21,11.67,6.74,4.43,10.86-1.65,34.61-1.73,34.59-.83-.18-6-9-5.69-19.24-6.83,12.24-17.39,18.36-20.1,18.85v0c-.93-2.66-.88-14.82,6.28-26.8-8.75,5.39-18.94,5.32-19.51,4.69C117.28,326.73,134.79,309.4,146.43,308Z" fill="#ff5c40" fill-rule="evenodd"/><path d="M117.4,326.84s-.05,0-.06,0,17.45-17.39,29.09-18.8c2.7-.32,10.64,4.21,11.67,6.74,4.19,10.26-1,32-1.66,34.39a48.23,48.23,0,0,1-.79-6.94c-.39-5,2.06-16.61.94-21.7-.44-2-5.3,6-5.08,5.49,2.76-6.65,2.53-8.91-1.49-11.43-4.43-2.78-11.94,5.79-11,4.53,12.21-16.57-11.85,2.43-15.89,4.57-2,1-3.7,2.22-5.65,3.16Z" fill="#ff3f1e" fill-rule="evenodd"/><path d="M232.45,200.21c27.08,15.51,51.66,29.07,70.89,41,11.72,7.28,21.45,13.95,28.52,20.09a1.12,1.12,0,0,0,1.49-1.67c-7-6.36-16.72-13.3-28.43-20.9-19-12.34-43.36-26.41-70.16-42.47a2.28,2.28,0,0,0-2.31,3.94Z" fill="#78730b" fill-rule="evenodd"/><path d="M370.91,272.27a1.4,1.4,0,0,1,.29-.48,1.56,1.56,0,1,1,.16,2.18,1.59,1.59,0,0,1-.54-1.3,81.54,81.54,0,0,1-14.42-3.27A64.9,64.9,0,0,1,341,261.94a.39.39,0,0,1-.11-.54.37.37,0,0,1,.53-.11,64.25,64.25,0,0,0,15.2,7.57A81.91,81.91,0,0,0,370.91,272.27Z" fill="#ffa100" fill-rule="evenodd"/><path d="M369.11,279.62a1.38,1.38,0,0,1,.39-.41,1.54,1.54,0,0,1,2.16.35,1.52,1.52,0,0,1-.32,2.15,1.55,1.55,0,0,1-2.16-.35,1.53,1.53,0,0,1-.24-1.38,82.44,82.44,0,0,1-13.41-6.3A64.83,64.83,0,0,1,342,263.06a.38.38,0,1,1,.55-.53,64.6,64.6,0,0,0,13.24,10.66A82.66,82.66,0,0,0,369.11,279.62Z" fill="#ffa100" fill-rule="evenodd"/><path d="M368.12,286.62a1.28,1.28,0,0,1,.45-.34,1.57,1.57,0,0,1,2.09.68A1.53,1.53,0,0,1,370,289a1.56,1.56,0,0,1-2.11-2.07,84.53,84.53,0,0,1-12.29-8.31,65.26,65.26,0,0,1-11.69-12.57.38.38,0,0,1,.09-.54.38.38,0,0,1,.54.1A64.62,64.62,0,0,0,356,278.2,83,83,0,0,0,368.12,286.62Z" fill="#ffa100" fill-rule="evenodd"/><path d="M348.07,295.57a1.6,1.6,0,0,0-.49.28,1.56,1.56,0,1,0,2.18.17,1.52,1.52,0,0,0-1.29-.53,82,82,0,0,0-3.25-14.4,64.83,64.83,0,0,0-7.46-15.43.39.39,0,0,0-.54-.11.37.37,0,0,0-.11.53,64.28,64.28,0,0,1,7.56,15.18A81.69,81.69,0,0,1,348.07,295.57Z" fill="#ffa100" fill-rule="evenodd"/><path d="M355.43,293.79a1.24,1.24,0,0,0-.41.38,1.54,1.54,0,1,0,.78-.55,82.72,82.72,0,0,0-6.3-13.4,64.66,64.66,0,0,0-10.61-13.49.39.39,0,1,0-.54.55A64.48,64.48,0,0,1,349,280.51,82.94,82.94,0,0,1,355.43,293.79Z" fill="#ffa100" fill-rule="evenodd"/><path d="M362.45,292.81a1.43,1.43,0,0,0-.35.45,1.56,1.56,0,0,0,.68,2.08,1.52,1.52,0,0,0,2.08-.65,1.56,1.56,0,0,0-2.08-2.1,82.29,82.29,0,0,0-8.3-12.28,64.79,64.79,0,0,0-12.58-11.7.39.39,0,0,0-.54.09.39.39,0,0,0,.1.54A64.72,64.72,0,0,1,354,280.67,83.65,83.65,0,0,1,362.45,292.81Z" fill="#ffa100" fill-rule="evenodd"/><path d="M327.48,264.47c.21-2.71,6.2-9.61,8.88-10.13,11.52-2.23,33.63,8.37,33.6,8.44-.34.78-10,4.13-20,1.83,10.67,9.08,14.62,20.64,14.57,23.39h0c-2.79.39-14.71-2-25.06-11.38,3.58,9.63,1.52,19.61.79,20.05C340.17,296.71,326.59,276.16,327.48,264.47Z" fill="#ff5c40" fill-rule="evenodd"/><path d="M340.3,296.62l-.06.05c-.07,0-13.65-20.51-12.76-32.2.21-2.71,6.2-9.61,8.88-10.13,10.88-2.11,31.22,7.24,33.4,8.34a50.48,50.48,0,0,1-6.95-.59c-4.95-.58-15.89-5.26-21.11-5.15-2,.05,4.88,6.37,4.4,6.05-6-4-8.25-4.21-11.5-.77C331,266,338,275.07,336.89,273.91c-13.86-15.2.08,12.1,1.39,16.47.63,2.12,1.45,4.07,2,6.17Z" fill="#ff3f1e" fill-rule="evenodd"/><path d="M190.08,211.53c-8.35-89.3-40.32-91.82-50.24-144.87-.22-1.17-13.81,46.41,9.27,93.36C176.38,215.49,190.08,211.53,190.08,211.53Z" fill="#6d720e" fill-rule="evenodd"/><path d="M189.8,211.57c-2.07.2-15.66-.65-40.69-51.55-23.08-47-9.49-94.53-9.27-93.36l0,.22C141.94,136.63,177.65,174.69,189.8,211.57Z" fill="#5b5f0c" fill-rule="evenodd"/><path d="M217.49,194.27C203,279.65,232.15,290,228.14,342c-.09,1.15,24.48-39.84,14.69-89.39C231.25,194,217.49,194.27,217.49,194.27Z" fill="#6d720e" fill-rule="evenodd"/><path d="M217.76,194.3c2,.33,14.45,4.52,25.07,58.25,9.79,49.56-14.78,90.55-14.69,89.4l0-.22C243.67,276.16,219.88,231.73,217.76,194.3Z" fill="#5b5f0c" fill-rule="evenodd"/><path d="M182.41,223.14c-22.63-105,17.23-121.22,10.12-185.68-.16-1.42,34.92,47,23,110C201.36,221.91,182.41,223.14,182.41,223.14Z" fill="#6d720e" fill-rule="evenodd"/><path d="M182.78,223.07c2.72-.63,19.74-7.29,32.71-75.62,12-63-23.12-111.41-23-110l0,.28C215.92,117.87,184.54,176.07,182.78,223.07Z" fill="#5b5f0c" fill-rule="evenodd"/><path d="M230.53,194.3C225.39,297.88,184.16,303.06,174.68,365c-.21,1.36-20.83-52.55,6.07-108.33C212.55,190.71,230.53,194.3,230.53,194.3Z" fill="#6d720e" fill-rule="evenodd"/><path d="M230.16,194.27c-2.69-.08-20.23,1.87-49.41,62.36-26.9,55.78-6.28,109.69-6.07,108.33l0-.26C173,284.11,216.77,237.67,230.16,194.27Z" fill="#5b5f0c" fill-rule="evenodd"/><path d="M242.51,207c-71.58-68.13-49.13-102-87.83-147.49-.86-1,51.2,17.13,74.42,71.78C256.53,195.85,242.51,207,242.51,207Z" fill="#6d720e" fill-rule="evenodd"/><path d="M242.77,206.74c1.77-1.94,11.5-16.21-13.67-75.46C205.88,76.63,153.82,58.5,154.68,59.5l.16.19C214.19,108.42,219.92,169.84,242.77,206.74Z" fill="#5b5f0c" fill-rule="evenodd"/><path d="M177,182.06C226.7,263.51,197.29,289.5,222,341.59c.55,1.15-43.47-28.78-51.47-85.55C161.1,189,177,182.06,177,182.06Z" fill="#6d720e" fill-rule="evenodd"/><path d="M176.66,182.23c-2.14,1.38-14.78,12.25-6.11,73.81,8,56.77,52,86.7,51.47,85.55l-.1-.22C178.74,281.09,188.75,222.36,176.66,182.23Z" fill="#5b5f0c" fill-rule="evenodd"/><path d="M211.44,219.92c-6.16-98.63,33.35-108.21,35.89-167.87,0-1.32,25.89,47.38,5.76,103.23C229.3,221.29,211.44,219.92,211.44,219.92Z" fill="#6d720e" fill-rule="evenodd"/><path d="M211.8,219.91c2.63-.22,19.46-4.06,41.29-64.63,20.13-55.85-5.71-104.55-5.76-103.23v.25C257.7,128.38,220.14,177.32,211.8,219.91Z" fill="#5b5f0c" fill-rule="evenodd"/><path d="M227.84,192.66a250.11,250.11,0,0,1-30.13-49.5A222.74,222.74,0,0,1,180.34,87.7a.7.7,0,0,0-.78-.59.69.69,0,0,0-.56.8A224.36,224.36,0,0,0,195.85,144a252.32,252.32,0,0,0,29.84,50.39,1.36,1.36,0,0,0,1.94.25A1.45,1.45,0,0,0,227.84,192.66Z" fill="#b9b111" fill-rule="evenodd"/><path d="M186.86,118a28.44,28.44,0,0,0-11.74-10.9,30.9,30.9,0,0,0-16.28-3.43,18.12,18.12,0,0,0,9.79,12.43A26.76,26.76,0,0,0,186.86,118Z" fill="#aea710" fill-rule="evenodd"/><path d="M183.3,105.12a21.16,21.16,0,0,1,3.33-11.42,23,23,0,0,1,9.08-8.39A13.5,13.5,0,0,1,194.2,97,19.87,19.87,0,0,1,183.3,105.12Z" fill="#aea710" fill-rule="evenodd"/><path d="M201.64,152.21a32.71,32.71,0,0,0-16.08-9.46,35.82,35.82,0,0,0-19.42.31,21,21,0,0,0,14.23,11.74A31.13,31.13,0,0,0,201.64,152.21Z" fill="#aea710" fill-rule="evenodd"/><path d="M192.41,131.81a26.46,26.46,0,0,1,9.05-12.27,29.27,29.27,0,0,1,14.77-6,17,17,0,0,1-6.91,13.4A25.57,25.57,0,0,1,192.41,131.81Z" fill="#78730b" fill-rule="evenodd"/><path d="M210.2,169.72a33.49,33.49,0,0,1,4.9-18.15A36.45,36.45,0,0,1,229.17,138a21.33,21.33,0,0,1-2,18.47A31.5,31.5,0,0,1,210.2,169.72Z" fill="#aea710" fill-rule="evenodd"/><path d="M158.83,103.69h0a30.9,30.9,0,0,1,16.28,3.43A28.56,28.56,0,0,1,186.83,118a34.23,34.23,0,0,1-4.78-1.79c-6-2.56-11.89-5.38-17.66-8.49C162.41,106.61,160,105.42,158.83,103.69Z" fill="#8f890d" fill-rule="evenodd"/><path d="M195.71,85.31h0a23,23,0,0,0-9.08,8.39,21.17,21.17,0,0,0-3.33,11.37,25.82,25.82,0,0,0,2.37-3q4.28-5.88,8-12.14C194.55,88.54,195.65,86.85,195.71,85.31Z" fill="#8f890d" fill-rule="evenodd"/><path d="M166.14,143.07h0a35.82,35.82,0,0,1,19.42-.31,32.77,32.77,0,0,1,16,9.41,40.25,40.25,0,0,1-5.89-.81c-7.5-1.37-14.89-3.09-22.24-5.14C170.94,145.5,167.85,144.77,166.14,143.07Z" fill="#8f890d" fill-rule="evenodd"/><path d="M216.24,113.58h0a29.27,29.27,0,0,0-14.77,6,26.56,26.56,0,0,0-9,12.21,33.37,33.37,0,0,0,4.19-2.48c5.21-3.43,10.23-7.08,15.11-11C213.41,117,215.5,115.41,216.24,113.58Z" fill="#8f890d" fill-rule="evenodd"/><path d="M229.18,138h0a36.45,36.45,0,0,0-14.07,13.56,33.57,33.57,0,0,0-4.91,18.07,41.45,41.45,0,0,0,3.65-4.75c4.39-6.3,8.47-12.76,12.29-19.44C227.44,143.15,229.13,140.45,229.18,138Z" fill="#8f890d" fill-rule="evenodd"/><path d="M196.54,68.45c3-5.33-1.08-9.24-4-9.6-3.62-.44-7.15,4.39-7,6.86.35,7.62-2.85,5.17-3.66-.61-.38-2.67-2.26-7.12-7.47-6.15-6.11,1.14-5,6.22-4.23,8.4,2.52,7,0,7.57-3.66.69-1.29-2.45-6.15-4.27-9.37-2.44-5.67,3.21.11,7.52,2.91,10.64,5,5.61,13,14.55,20.16,12.73C186.25,87.41,185.85,87.36,196.54,68.45Z" fill="#cd660b" fill-rule="evenodd"/><path d="M184.71,54.41a1,1,0,0,0,.35,0,1,1,0,0,0,.82-1.12,1,1,0,0,0-1.12-.86,1,1,0,0,0-.81,1.12,1,1,0,0,0,.51.74,51.73,51.73,0,0,0-3.17,8.86A41.48,41.48,0,0,0,180,74.05a.26.26,0,0,0,.25.25.23.23,0,0,0,.24-.25,41.55,41.55,0,0,1,1.14-10.79A51.11,51.11,0,0,1,184.71,54.41Z" fill="#ff5c40" fill-rule="evenodd"/><path d="M179,54a1.1,1.1,0,0,0,.35,0,1,1,0,0,0,.58-1.27,1,1,0,0,0-1.26-.62,1,1,0,0,0-.58,1.27,1,1,0,0,0,.65.62,52,52,0,0,0-1.36,9.34,41.77,41.77,0,0,0,.89,11,.25.25,0,0,0,.29.2.25.25,0,0,0,.19-.29,41.72,41.72,0,0,1-1-10.83A52,52,0,0,1,179,54Z" fill="#ff5c40" fill-rule="evenodd"/><path d="M172.41,55.13a1,1,0,0,0,.32-.15,1,1,0,0,0,.16-1.39,1,1,0,1,0-1.54,1.18,1,1,0,0,0,.8.4,53.36,53.36,0,0,0,1.49,9.35,42.8,42.8,0,0,0,4.12,10.22.26.26,0,0,0,.34.1.25.25,0,0,0,.09-.34A41.94,41.94,0,0,1,174,64.44,52.55,52.55,0,0,1,172.41,55.13Z" fill="#ff5c40" fill-rule="evenodd"/><path d="M165.77,57.59a1.2,1.2,0,0,0,.24-.26,1,1,0,0,0-.34-1.36,1,1,0,0,0-1.35.3,1,1,0,0,0,.33,1.36,1,1,0,0,0,.89.09A54.18,54.18,0,0,0,170.27,66,42.44,42.44,0,0,0,177.74,74a.25.25,0,0,0,.35,0,.24.24,0,0,0,0-.35,42.07,42.07,0,0,1-7.48-7.91A52.79,52.79,0,0,1,165.77,57.59Z" fill="#ff5c40" fill-rule="evenodd"/><path d="M178.88,83.24C169.06,73.1,163.41,71,161.65,70.8c-2.45-.2-6.1,1.72-5.87,4.64.12,1.4,1.22,4,10.7,10.23,5.5,3.59,12.42,5.74,13.83,4S180.44,84.86,178.88,83.24Z" fill="#f27a0f" fill-rule="evenodd"/><path d="M182.16,84.19c-2.12-14-5.48-19-6.83-20.18-1.89-1.62-6-2.24-7.5.24-.72,1.19-1.36,4,2.78,14.53,2.41,6.14,6.82,12,9,11.4C181.91,89.59,182.5,86.41,182.16,84.19Z" fill="#f27a0f" fill-rule="evenodd"/><path d="M184.8,86.43c5.4-12.45,5.28-18.59,4.79-20.36-.69-2.45-3.66-5.5-6.14-4.46-1.18.51-3.11,2.32-5.17,13.33-1.2,6.4-.62,13.78,1.4,14.68S183.94,88.41,184.8,86.43Z" fill="#f27a0f" fill-rule="evenodd"/><path d="M185.09,88.35c11.2-8.26,14-13.57,14.38-15.31.51-2.42-.91-6.36-3.81-6.57-1.39-.1-4.12.59-11.39,9.11-4.22,5-7.19,11.54-5.66,13.22S183.31,89.66,185.09,88.35Z" fill="#f27a0f" fill-rule="evenodd"/><path d="M182.78,84.22s1.36-6.34-3.67-6.21c-2,0-5,1.22-2.74,7,0,.06-6.78-3.05-8.72-.94-3.1,3.38,3.68,6.85,12.14,7,5.66.08,13.55-6.32,11.71-8.88C188.46,77.9,183.9,83.6,182.78,84.22Z" fill="#f7a963" fill-rule="evenodd"/><path d="M206,185.25c-18.91,93.54-58.15,92.6-75.43,147.62-.38,1.21-12.31-50.67,20.43-97.73C189.65,179.52,206,185.25,206,185.25Z" fill="#6d720e" fill-rule="evenodd"/><path d="M205.62,185.17c-2.5-.45-19.16-1.07-54.66,50-32.74,47.06-20.81,98.94-20.43,97.73l.08-.23C139.93,259.08,187.2,222.82,205.62,185.17Z" fill="#5b5f0c" fill-rule="evenodd"/><path d="M248.44,206.06c5-30.59,9-58.25,13.6-80.18,2.8-13.37,5.83-24.6,9.49-33A1.44,1.44,0,0,0,269,91.71c-3.91,8.44-7.27,19.69-10.43,33.11-5.15,21.8-9.79,49.33-15.57,79.76a2.88,2.88,0,0,0,2.34,3C246.82,208,248.23,207.3,248.44,206.06Z" fill="#78730b" fill-rule="evenodd"/><path d="M266,51.17a2.48,2.48,0,0,1-.68-.19,1.57,1.57,0,1,1,1.24-2.8,1.76,1.76,0,0,1,1.13,2.17,1.45,1.45,0,0,1-1.21.82,76.53,76.53,0,0,1,2.92,15.22,53.52,53.52,0,0,1-1.31,17.16.42.42,0,0,1-.56.23.47.47,0,0,1-.36-.52,52.83,52.83,0,0,0,1.54-16.93A76.15,76.15,0,0,0,266,51.17Z" fill="#ffa100" fill-rule="evenodd"/><path d="M275,51.41a2.66,2.66,0,0,1-.64-.3,1.56,1.56,0,0,1-.59-2.26,2,2,0,0,1,2.56-.14A1.57,1.57,0,0,1,277,51a1.67,1.67,0,0,1-1.43.53,68.83,68.83,0,0,1-.95,14.86,50.29,50.29,0,0,1-5.73,15.87.45.45,0,0,1-.61.12.43.43,0,0,1-.24-.56,49.85,49.85,0,0,0,5.9-15.62A68.44,68.44,0,0,0,275,51.41Z" fill="#ffa100" fill-rule="evenodd"/><path d="M283.34,50.91a2.47,2.47,0,0,1-.59-.38,1.45,1.45,0,0,1-.19-2.25,2.1,2.1,0,0,1,2.62.22,1.45,1.45,0,0,1,.19,2.25,1.85,1.85,0,0,1-1.55.31,64.76,64.76,0,0,1-3.71,14.16,50.65,50.65,0,0,1-8.74,14.48.51.51,0,0,1-.65,0,.39.39,0,0,1-.13-.57A50.43,50.43,0,0,0,279.45,65,64.87,64.87,0,0,0,283.34,50.91Z" fill="#ffa100" fill-rule="evenodd"/><path d="M302.52,69.19a2.09,2.09,0,0,0,.54.43,1.88,1.88,0,0,0,2.5-.33,1.64,1.64,0,0,0-.82-2.24,1.89,1.89,0,0,0-2.5.34,1.37,1.37,0,0,0,0,1.42,85.28,85.28,0,0,0-14.65,6.35A57.23,57.23,0,0,0,273.71,86a.38.38,0,0,0,.12.56.5.5,0,0,0,.65,0A56.26,56.26,0,0,1,288,75.68,82.75,82.75,0,0,1,302.52,69.19Z" fill="#ffa100" fill-rule="evenodd"/><path d="M297.16,62.16a2.16,2.16,0,0,0,.62.33,1.67,1.67,0,0,0,2.26-.81,1.83,1.83,0,0,0-1.34-2.11,1.68,1.68,0,0,0-2.26.81,1.53,1.53,0,0,0,.36,1.44A73.74,73.74,0,0,0,284.66,71a52.05,52.05,0,0,0-10.27,13.58.42.42,0,0,0,.26.55.45.45,0,0,0,.61-.13,51.15,51.15,0,0,1,10-13.56A72.41,72.41,0,0,1,297.16,62.16Z" fill="#ffa100" fill-rule="evenodd"/><path d="M292.86,55.3a2.37,2.37,0,0,0,.66.25,1.53,1.53,0,0,0,2-1.13,2,2,0,0,0-1.67-2,1.55,1.55,0,0,0-2,1.13,1.72,1.72,0,0,0,.61,1.42,67.45,67.45,0,0,0-10,11,50.6,50.6,0,0,0-7.37,15.17.47.47,0,0,0,.35.53.42.42,0,0,0,.56-.22,49.85,49.85,0,0,1,7.07-15.11A67.26,67.26,0,0,1,292.86,55.3Z" fill="#ffa100" fill-rule="evenodd"/><path d="M277.07,96.59c-3.14.37-13.6-4.19-15.41-6.78-7.75-11.13-6-35.67-5.87-35.65,1,.18,9.17,9.15,11.17,19.74,5.3-12.69,16.45-19.14,19.56-19.68l0,0c1.7,2.72,4.43,15.25-1.32,27.68,9.16-5.67,21.27-5.73,22.1-5.09C307.4,76.9,290.57,95,277.07,96.59Z" fill="#ff5c40" fill-rule="evenodd"/><path d="M307.24,76.79l.08,0c.08.06-16.75,18.14-30.25,19.75-3.14.37-13.6-4.19-15.41-6.78-7.32-10.51-6.14-33-5.9-35.44a52.6,52.6,0,0,1,2.52,7.13c1.6,5.12,1.36,17.14,3.86,22.37,1,2,4.91-6.28,4.77-5.72-1.75,6.88-1,9.21,4.39,11.74,5.91,2.81,12.86-6.12,12-4.81-10.7,17.23,13.53-2.66,17.83-4.92,2.09-1.09,3.89-2.33,6-3.33Z" fill="#ff3f1e" fill-rule="evenodd"/><path d="M208.78,194.79c36.1-75,72.81-64.93,99.84-107.59.59-.94,1.65,46-38.35,78.21C223,203.52,208.78,194.79,208.78,194.79Z" fill="#6d720e" fill-rule="evenodd"/><path d="M209.08,194.93c2.26,1,17.81,5.45,61.19-29.52,40-32.25,38.94-79.15,38.35-78.21l-.12.18C285.32,147.68,233.77,167.3,209.08,194.93Z" fill="#5b5f0c" fill-rule="evenodd"/><path d="M243.9,170a209.75,209.75,0,0,1,35.41-33.44,187,187,0,0,1,42.54-24,.59.59,0,0,0,.34-.75.58.58,0,0,0-.75-.32,189.28,189.28,0,0,0-43.17,23.68,212.5,212.5,0,0,0-36.19,33.35,1.16,1.16,0,0,0,.14,1.65A1.22,1.22,0,0,0,243.9,170Z" fill="#b9b111" fill-rule="evenodd"/><path d="M298.08,123.24a24,24,0,0,0,6.9-11.56,26,26,0,0,0,0-14,15.25,15.25,0,0,0-8.51,10.22A22.5,22.5,0,0,0,298.08,123.24Z" fill="#aea710" fill-rule="evenodd"/><path d="M308.05,118.05a17.81,17.81,0,0,1,10,.74,19.39,19.39,0,0,1,8.48,6,11.31,11.31,0,0,1-9.84.81A16.71,16.71,0,0,1,308.05,118.05Z" fill="#aea710" fill-rule="evenodd"/><path d="M272.56,141.38a27.53,27.53,0,0,0,5-14.87,30.09,30.09,0,0,0-3.66-15.91,17.55,17.55,0,0,0-7.15,13.75A26.16,26.16,0,0,0,272.56,141.38Z" fill="#aea710" fill-rule="evenodd"/><path d="M287.71,130.22a22.23,22.23,0,0,1,11.67,5.28,24.82,24.82,0,0,1,7.49,11.1,14.29,14.29,0,0,1-12.23-3.34A21.45,21.45,0,0,1,287.71,130.22Z" fill="#78730b" fill-rule="evenodd"/><path d="M259.67,151.48a28,28,0,0,1,15.77.85,30.59,30.59,0,0,1,13.61,9.18,17.9,17.9,0,0,1-15.53,1.58A26.44,26.44,0,0,1,259.67,151.48Z" fill="#aea710" fill-rule="evenodd"/><path d="M304.94,97.69h0a26,26,0,0,1,0,14,23.93,23.93,0,0,1-6.86,11.52,28.57,28.57,0,0,1,.63-4.24c1.05-5.39,2.35-10.71,3.89-16C303.16,101.15,303.71,98.92,304.94,97.69Z" fill="#8f890d" fill-rule="evenodd"/><path d="M326.5,124.78h0a19.39,19.39,0,0,0-8.48-6,17.89,17.89,0,0,0-9.93-.75,20.5,20.5,0,0,0,2.85,1.43c3.72,1.66,7.5,3.15,11.38,4.47C323.64,124.39,325.23,125,326.5,124.78Z" fill="#8f890d" fill-rule="evenodd"/><path d="M273.85,110.6h0a30.09,30.09,0,0,1,3.66,15.91,27.55,27.55,0,0,1-4.92,14.81,31.3,31.3,0,0,1-.37-5c-.19-6.4-.08-12.77.33-19.18C272.7,115,272.76,112.3,273.85,110.6Z" fill="#8f890d" fill-rule="evenodd"/><path d="M306.86,146.61h0a24.76,24.76,0,0,0-7.49-11.09,22.27,22.27,0,0,0-11.62-5.29,27,27,0,0,0,2.78,3q5.59,5.52,11.67,10.5C303.6,144.87,305.23,146.32,306.86,146.61Z" fill="#8f890d" fill-rule="evenodd"/><path d="M289.05,161.52h0a30.59,30.59,0,0,0-13.61-9.18,28.06,28.06,0,0,0-15.71-.87,34.62,34.62,0,0,0,4.55,2.16q8.91,3.76,18.13,6.7C284.52,161,287,161.91,289.05,161.52Z" fill="#8f890d" fill-rule="evenodd"/><path d="M340.5,122.51c4.91,1.54,7.41-2.51,7.19-5-.27-3.05-4.87-5.11-6.88-4.59-6.2,1.63-4.74-1.43-.13-3.11,2.12-.78,5.45-3.1,3.74-7.21-2-4.83-6-3-7.64-2-5.31,3.3-6.23,1.3-1.21-2.89,1.78-1.49,2.43-5.8.37-8.13-3.64-4.1-6.17,1.41-8.25,4.26-3.72,5.11-9.67,13.24-6.92,18.8C323.12,117.38,323.09,117,340.5,122.51Z" fill="#cd660b" fill-rule="evenodd"/><path d="M350,110.33a.77.77,0,0,0,0,.29.8.8,0,0,0,1.06.47.84.84,0,0,0,.51-1.06.8.8,0,0,0-1.06-.47.86.86,0,0,0-.52.55,43.77,43.77,0,0,0-7.83-1.06,35.18,35.18,0,0,0-9.17.86.21.21,0,0,0-.16.25.19.19,0,0,0,.24.15,34.43,34.43,0,0,1,9.07-1A43.1,43.1,0,0,1,350,110.33Z" fill="#ff5c40" fill-rule="evenodd"/><path d="M349.3,105.56a.79.79,0,0,0,.1.28.84.84,0,0,0,1.43-.89.81.81,0,0,0-1.14-.25.83.83,0,0,0-.4.64,43.71,43.71,0,0,0-7.91.51,35.18,35.18,0,0,0-8.85,2.65.23.23,0,0,0-.11.28.21.21,0,0,0,.28.1,35,35,0,0,1,8.72-2.73A43.94,43.94,0,0,1,349.3,105.56Z" fill="#ff5c40" fill-rule="evenodd"/><path d="M347.22,100.34a.88.88,0,0,0,.19.24.84.84,0,0,0,1.1-1.27.83.83,0,0,0-1.17.1.86.86,0,0,0-.19.73,43.79,43.79,0,0,0-7.43,2.87,35.45,35.45,0,0,0-7.67,5.17.21.21,0,1,0,.27.31,35.13,35.13,0,0,1,7.53-5.21A45.44,45.44,0,0,1,347.22,100.34Z" fill="#ff5c40" fill-rule="evenodd"/><path d="M344,95.32a.74.74,0,0,0,.26.15.84.84,0,0,0,.57-1.58.85.85,0,0,0-1.06.52.89.89,0,0,0,.08.75,44.83,44.83,0,0,0-5.93,5.32,35.3,35.3,0,0,0-5.33,7.56.2.2,0,0,0,.08.28.21.21,0,0,0,.28-.09,35.45,35.45,0,0,1,5.19-7.54A45.6,45.6,0,0,1,344,95.32Z" fill="#ff5c40" fill-rule="evenodd"/><path d="M325.25,110.59c6.62-9.85,7.4-14.87,7.21-16.34-.26-2-2.48-4.72-4.84-4-1.13.34-3.11,1.71-6.54,10.58-2,5.15-2.53,11.22-.86,12.07S324.2,112.16,325.25,110.59Z" fill="#f27a0f" fill-rule="evenodd"/><path d="M325.05,113.45c11.1-4.18,14.67-7.84,15.39-9.15,1-1.83.79-5.32-1.51-6.12-1.1-.39-3.49-.43-11.46,4.83-4.62,3-8.63,7.7-7.8,9.38S323.29,114.12,325.05,113.45Z" fill="#f27a0f" fill-rule="evenodd"/><path d="M323.67,116c11.18,2.26,16.2,1.09,17.57.37,1.9-1,3.88-4,2.59-5.82-.62-.89-2.45-2.15-11.86-1.92-5.47.14-11.44,1.9-11.82,3.72S321.89,115.65,323.67,116Z" fill="#f27a0f" fill-rule="evenodd"/><path d="M322.15,116.59c8.74,7.75,13.6,9.14,15.1,9.14,2.07,0,5.06-1.87,4.73-4.29-.16-1.16-1.21-3.28-9.49-7.76-4.8-2.6-10.74-3.89-11.85-2.34S320.75,115.35,322.15,116.59Z" fill="#f27a0f" fill-rule="evenodd"/><path d="M325.13,114s5.46,0,4.46-4.1c-.39-1.62-1.88-3.91-6.23-1,0,0,1.32-6.11-.75-7.34-3.32-2-5,4.23-3.59,11.2.93,4.66,7.56,10,9.35,8.07C331.32,117.52,325.84,114.78,325.13,114Z" fill="#f7a963" fill-rule="evenodd"/><path d="M194.79,218.26c-52.42,60.94-84.15,42.37-120,75.4-.79.73,10-43.28,55.32-63.36C183.71,206.57,194.79,218.26,194.79,218.26Z" fill="#6d720e" fill-rule="evenodd"/><path d="M194.54,218.05c-1.87-1.48-15.25-9.53-64.45,12.25C84.72,250.38,74,294.39,74.77,293.66l.15-.14C111.61,243.07,164.6,237.65,194.54,218.05Z" fill="#5b5f0c" fill-rule="evenodd"/><path d="M171.08,239.3C97.75,173.05,119.31,138.59,79.44,94.14c-.88-1,51.63,15.8,76.26,69.82C184.81,227.8,171.08,239.3,171.08,239.3Z" fill="#6d720e" fill-rule="evenodd"/><path d="M171.33,239c1.72-2,11.08-16.5-15.63-75.08-24.63-54-77.14-70.8-76.26-69.82l.16.19C140.2,141.49,147.53,202.75,171.33,239Z" fill="#5b5f0c" fill-rule="evenodd"/><path d="M208.37,172.11c74.75,59.33,56.08,93.86,97.24,134.25.91.89-50.73-12.05-77.78-62.6C195.85,184,208.37,172.11,208.37,172.11Z" fill="#6d720e" fill-rule="evenodd"/><path d="M208.15,172.37c-1.54,2-9.66,16.59,19.68,71.39,27,50.55,78.69,63.49,77.78,62.6l-.17-.17C244.15,264.46,233.32,205.88,208.15,172.37Z" fill="#5b5f0c" fill-rule="evenodd"/><path d="M197.4,199.5C214.87,225.35,231,248.36,243,267.55c7.32,11.71,13.11,22,16.75,30.61a1.12,1.12,0,1,0,2.07-.85c-3.5-8.8-9.15-19.31-16.31-31.29-11.63-19.46-27.28-42.81-44.25-69a2.27,2.27,0,0,0-3.16-.65A2.3,2.3,0,0,0,197.4,199.5Z" fill="#78730b" fill-rule="evenodd"/><path d="M289.92,325.21a1.55,1.55,0,1,1,1.67,2.57,1.56,1.56,0,0,1-1.92-2.25,82.34,82.34,0,0,1-11.51-9.29,65,65,0,0,1-10.57-13.51.39.39,0,1,1,.67-.39,64,64,0,0,0,10.3,13.49A82.14,82.14,0,0,0,289.92,325.21Z" fill="#ffa100" fill-rule="evenodd"/><path d="M285.07,331a1.48,1.48,0,0,1,.52-.2,1.56,1.56,0,0,1,1.79,1.27,1.53,1.53,0,0,1-1.23,1.8,1.57,1.57,0,0,1-1.4-2.61,83.2,83.2,0,0,1-9.26-11.58,65.24,65.24,0,0,1-7.44-15.47.39.39,0,0,1,.74-.24,64.14,64.14,0,0,0,7.18,15.4A82.14,82.14,0,0,0,285.07,331Z" fill="#ffa100" fill-rule="evenodd"/><path d="M281.09,336.86a1.46,1.46,0,0,1,.55-.11,1.57,1.57,0,0,1,1.58,1.53,1.54,1.54,0,0,1-1.5,1.58,1.57,1.57,0,0,1-1-2.8,83.34,83.34,0,0,1-7.37-12.87,65.16,65.16,0,0,1-5-16.44.38.38,0,1,1,.76-.12A64.71,64.71,0,0,0,273.9,324,82.27,82.27,0,0,0,281.09,336.86Z" fill="#ffa100" fill-rule="evenodd"/><path d="M259.15,336.05a1.58,1.58,0,0,0-.57.05,1.53,1.53,0,0,0-1.07,1.89,1.55,1.55,0,0,0,1.89,1.11,1.53,1.53,0,0,0,1.07-1.89,1.58,1.58,0,0,0-.93-1.06A82.1,82.1,0,0,0,263,321.8a65.13,65.13,0,0,0,.11-17.13.39.39,0,0,0-.44-.34.38.38,0,0,0-.33.43,63.71,63.71,0,0,1,.09,17A81.67,81.67,0,0,1,259.15,336.05Z" fill="#ffa100" fill-rule="evenodd"/><path d="M266.54,337.7a1.52,1.52,0,0,0-.54.16,1.56,1.56,0,1,0,2.08.67,1.6,1.6,0,0,0-1.13-.82,82.44,82.44,0,0,0,.25-14.8,65.17,65.17,0,0,0-3.58-16.79.39.39,0,0,0-.49-.24.39.39,0,0,0-.24.5A64.4,64.4,0,0,1,266.63,323,82,82,0,0,1,266.54,337.7Z" fill="#ffa100" fill-rule="evenodd"/><path d="M273.27,339.92a1.49,1.49,0,0,0-.51.24,1.57,1.57,0,0,0-.3,2.18,1.53,1.53,0,0,0,2.15.33,1.57,1.57,0,0,0-.94-2.81,83,83,0,0,0-2-14.68,65.09,65.09,0,0,0-6.13-16A.4.4,0,0,0,265,309a.39.39,0,0,0-.15.53,64.38,64.38,0,0,1,6.25,15.8A82.42,82.42,0,0,1,273.27,339.92Z" fill="#ffa100" fill-rule="evenodd"/><path d="M254.38,299.06c1.38-2.34,9.8-5.89,12.43-5.18,11.32,3.08,26.5,22.34,26.44,22.39-.65.55-10.76-.69-18.75-7.17,5.58,12.86,4,25,2.77,27.42h0c-2.67-.88-12.31-8.3-17.48-21.27-1,10.23-7.27,18.28-8.12,18.35C251.56,333.6,248.42,309.17,254.38,299.06Z" fill="#ff5c40" fill-rule="evenodd"/><path d="M251.71,333.57l-.07,0c-.08,0-3.22-24.42,2.74-34.53,1.38-2.34,9.8-5.89,12.43-5.18,10.7,2.91,24.83,20.26,26.31,22.21a48,48,0,0,1-6-3.59c-4.19-2.71-11.95-11.72-16.68-13.92-1.84-.86,1.57,7.87,1.28,7.36-3.61-6.23-5.55-7.41-10-5.75-4.9,1.83-2.65,13-3.09,11.49-5.75-19.75-5.27,10.9-6,15.4-.37,2.19-.49,4.29-.92,6.42Z" fill="#ff3f1e" fill-rule="evenodd"/><path d="M199.75,189.47c-20.81-22.32-39.87-42.1-54.38-58.83-8.84-10.19-16-19.24-20.8-27a1.11,1.11,0,0,0-1.9,1.15c4.7,8,11.74,17.28,20.48,27.77,14.19,17,32.86,37.22,53.25,60a2.26,2.26,0,0,0,3.35-3Z" fill="#78730b" fill-rule="evenodd"/><path d="M91.13,82.11a1.62,1.62,0,0,1-.41.37,1.52,1.52,0,1,1,.61-.72A80.05,80.05,0,0,1,103.91,89a63.1,63.1,0,0,1,12.29,11.45.38.38,0,0,1-.59.48,62.21,62.21,0,0,0-12-11.46A79.08,79.08,0,0,0,91.13,82.11Z" fill="#ffa100" fill-rule="evenodd"/><path d="M95,75.74a1.61,1.61,0,0,1-.48.27,1.54,1.54,0,0,1-1.94-1,1.52,1.52,0,1,1,2.69.38A80.2,80.2,0,0,1,106,85.2,63,63,0,0,1,115.53,99a.37.37,0,0,1-.17.51.38.38,0,0,1-.51-.17,62.23,62.23,0,0,0-9.26-13.8A79.36,79.36,0,0,0,95,75.74Z" fill="#ffa100" fill-rule="evenodd"/><path d="M98.05,69.45a1.55,1.55,0,0,1-.52.19,1.51,1.51,0,1,1,.83-.44,79.7,79.7,0,0,1,9.07,11.32,63,63,0,0,1,7.24,15.16.39.39,0,0,1-.25.48.39.39,0,0,1-.48-.25,62.28,62.28,0,0,0-7-15.08A80,80,0,0,0,98.05,69.45Z" fill="#ffa100" fill-rule="evenodd"/><path d="M119.58,66.81a1.47,1.47,0,0,0,.54-.13,1.52,1.52,0,1,0-2-.78,1.53,1.53,0,0,0,1.06.88,79.26,79.26,0,0,0-1.25,14.43,63,63,0,0,0,2.39,16.62.39.39,0,0,0,.48.26.38.38,0,0,0,.26-.47,61.92,61.92,0,0,1-2.56-16.41A79.8,79.8,0,0,1,119.58,66.81Z" fill="#ffa100" fill-rule="evenodd"/><path d="M112.13,66.37a1.77,1.77,0,0,0,.5-.24,1.53,1.53,0,1,0-2.13-.33,1.51,1.51,0,0,0,1.23.62,79.22,79.22,0,0,0,1.91,14.38,62.78,62.78,0,0,0,5.94,15.7.38.38,0,0,0,.52.16.39.39,0,0,0,.15-.52,62.29,62.29,0,0,1-6.06-15.47A79.55,79.55,0,0,1,112.13,66.37Z" fill="#ffa100" fill-rule="evenodd"/><path d="M105.23,65.27a1.32,1.32,0,0,0,.46-.32,1.52,1.52,0,1,0-2.15,0,1.49,1.49,0,0,0,1.31.42A80.57,80.57,0,0,0,109,79.29a62.79,62.79,0,0,0,8.33,14.58.38.38,0,0,0,.6-.46,62.45,62.45,0,0,1-8.4-14.34A79.86,79.86,0,0,1,105.23,65.27Z" fill="#ffa100" fill-rule="evenodd"/><path d="M129.63,101.9c-1,2.48-8.71,7.24-11.38,6.95-11.5-1.22-29.11-17.5-29.06-17.56.55-.64,10.6-1,19.34,4-7.32-11.59-7.57-23.56-6.7-26.13h0c2.73.43,13.22,6.12,20.15,17.88-.48-10.07,4.44-18.84,5.26-19C127.34,68,134,91.19,129.63,101.9Z" fill="#ff5c40" fill-rule="evenodd"/><path d="M127.2,68.06a.11.11,0,0,1,.07,0c.07,0,6.7,23.16,2.36,33.87-1,2.48-8.71,7.24-11.38,6.95C107.39,107.7,91.06,93.1,89.34,91.44A49.3,49.3,0,0,1,95.7,94c4.48,2,13.37,9.5,18.31,10.9,1.92.54-2.69-7.38-2.33-6.94,4.43,5.47,6.5,6.32,10.58,4,4.52-2.54.69-13,1.34-11.62,8.49,18.24,3.55-11.37,3.63-15.85,0-2.17-.15-4.23,0-6.36Z" fill="#ff3f1e" fill-rule="evenodd"/><path d="M165.3,220.84c-85-20.76-82.63-57.86-132.38-75.9-1.09-.4,46.87-10.09,88.75,22.33C171.16,205.58,165.3,220.84,165.3,220.84Z" fill="#6d720e" fill-rule="evenodd"/><path d="M165.38,220.53c.51-2.36,1.71-18.1-43.71-53.26-41.88-32.42-89.84-22.73-88.75-22.33l.21.08C100.16,156.1,131.59,201.94,165.38,220.53Z" fill="#5b5f0c" fill-rule="evenodd"/><path d="M168,200.26a250.09,250.09,0,0,1-54.52-19.62,222.59,222.59,0,0,1-48.35-32.27.69.69,0,0,0-1,0,.68.68,0,0,0,.06,1,224.79,224.79,0,0,0,48.35,33.12A253,253,0,0,0,167.41,203a1.37,1.37,0,0,0,1.68-1A1.45,1.45,0,0,0,168,200.26Z" fill="#b9b111" fill-rule="evenodd"/><path d="M89.23,167.87a28.49,28.49,0,0,0-16-1.12,31,31,0,0,0-14.83,7.55,18.14,18.14,0,0,0,15.42,3.54A26.79,26.79,0,0,0,89.23,167.87Z" fill="#aea710" fill-rule="evenodd"/><path d="M78.37,160.07a21.07,21.07,0,0,1-4.58-11,23,23,0,0,1,1.8-12.23,13.47,13.47,0,0,1,6.14,10A19.92,19.92,0,0,1,78.37,160.07Z" fill="#aea710" fill-rule="evenodd"/><path d="M122.2,185.22a32.65,32.65,0,0,0-18.45,2.72,35.79,35.79,0,0,0-14.93,12.44,21,21,0,0,0,18.45.2A31.13,31.13,0,0,0,122.2,185.22Z" fill="#aea710" fill-rule="evenodd"/><path d="M102.21,175.13a26.44,26.44,0,0,1-.66-15.23A29.46,29.46,0,0,1,109.31,146a17,17,0,0,1,3,14.78A25.55,25.55,0,0,1,102.21,175.13Z" fill="#78730b" fill-rule="evenodd"/><path d="M139.86,193.47a33.34,33.34,0,0,1-7.58-17.2,36.31,36.31,0,0,1,2.44-19.38,21.29,21.29,0,0,1,10,15.63A31.42,31.42,0,0,1,139.86,193.47Z" fill="#aea710" fill-rule="evenodd"/><path d="M58.42,174.31h0a31,31,0,0,1,14.83-7.55,28.63,28.63,0,0,1,15.92,1.09,33.22,33.22,0,0,1-4.85,1.61c-6.29,1.78-12.63,3.27-19.07,4.48C63,174.34,60.39,175,58.42,174.31Z" fill="#8f890d" fill-rule="evenodd"/><path d="M75.6,136.86h0a22.88,22.88,0,0,0-1.8,12.23A21.22,21.22,0,0,0,78.33,160a25.25,25.25,0,0,0,0-3.79c-.24-4.85-.7-9.66-1.37-14.48C76.71,140.1,76.51,138.09,75.6,136.86Z" fill="#8f890d" fill-rule="evenodd"/><path d="M88.83,200.39h0a35.79,35.79,0,0,1,14.93-12.44,32.86,32.86,0,0,1,18.38-2.74,41.09,41.09,0,0,1-5.1,3.08q-10,5.44-20.54,9.95C94.09,199.26,91.23,200.63,88.83,200.39Z" fill="#8f890d" fill-rule="evenodd"/><path d="M109.32,146h0a29.46,29.46,0,0,0-7.76,13.92,26.52,26.52,0,0,0,.64,15.17,31.73,31.73,0,0,0,1.7-4.56c1.9-5.94,3.52-11.94,4.87-18C109.23,150.38,109.89,147.87,109.32,146Z" fill="#8f890d" fill-rule="evenodd"/><path d="M134.73,156.88h0a36.31,36.31,0,0,0-2.44,19.38,33.48,33.48,0,0,0,7.52,17.15,38.89,38.89,0,0,0-.15-6c-.53-7.66-1.41-15.25-2.63-22.85C136.6,162,136.22,158.8,134.73,156.88Z" fill="#8f890d" fill-rule="evenodd"/><path d="M65.65,123.22c-1-6-6.64-6.52-9.17-5-3.09,1.93-2.81,7.92-1.17,9.77,5,5.71,1,5.81-3.24,1.82-2-1.84-6.22-4.13-9.67-.1-4,4.72,0,8,2,9.19,6.36,3.87,4.73,5.92-2.41,2.84-2.54-1.1-7.47.53-8.84,4-2.39,6.06,4.81,5.78,9,6.46,7.42,1.21,19.25,3.15,23.68-2.75C69.54,144.43,69.2,144.64,65.65,123.22Z" fill="#cd660b" fill-rule="evenodd"/><path d="M47.63,119.71a1,1,0,0,0,.29-.21,1,1,0,0,0-.07-1.38,1,1,0,0,0-1.41,0,1,1,0,0,0,.07,1.38,1,1,0,0,0,.87.26,52.32,52.32,0,0,0,3.08,8.88,41.81,41.81,0,0,0,5.84,9.27.26.26,0,0,0,.36,0,.24.24,0,0,0,0-.34,41.5,41.5,0,0,1-5.89-9.11A51.5,51.5,0,0,1,47.63,119.71Z" fill="#ff5c40" fill-rule="evenodd"/><path d="M42.93,123a1.2,1.2,0,0,0,.24-.26,1,1,0,0,0-.35-1.35,1,1,0,0,0-1.36.31A1,1,0,0,0,41.8,123a1,1,0,0,0,.9.09,52.88,52.88,0,0,0,4.79,8.12,42.55,42.55,0,0,0,7.57,8,.27.27,0,0,0,.36,0,.26.26,0,0,0,0-.35A41.28,41.28,0,0,1,47.8,131,51.55,51.55,0,0,1,42.93,123Z" fill="#ff5c40" fill-rule="evenodd"/><path d="M38.51,128a1,1,0,0,0-.59-1.51,1,1,0,0,0-1.2.7,1,1,0,0,0,.73,1.18,1,1,0,0,0,.88-.19,53,53,0,0,0,7,6.35A41.93,41.93,0,0,0,55,139.89a.23.23,0,0,0,.32-.13.25.25,0,0,0-.14-.32,41.58,41.58,0,0,1-9.58-5.2A52.7,52.7,0,0,1,38.51,128Z" fill="#ff5c40" fill-rule="evenodd"/><path d="M34.88,134.08a1.1,1.1,0,0,0,0-.36,1,1,0,0,0-1.12-.85,1,1,0,0,0-.86,1.09,1,1,0,0,0,1.86.36,52.93,52.93,0,0,0,8.84,3.43,41.77,41.77,0,0,0,10.89,1.6.24.24,0,0,0,.26-.24.25.25,0,0,0-.25-.24,41.72,41.72,0,0,1-10.8-1.47A53.25,53.25,0,0,1,34.88,134.08Z" fill="#ff5c40" fill-rule="evenodd"/><path d="M61.19,145.81c-14-1.73-19.75.14-21.22,1.14-2,1.37-3.67,5.16-1.65,7.29,1,1,3.48,2.38,14.74,1.25,6.54-.66,13.27-3.34,13.28-5.57C66.35,147.52,63.42,146.09,61.19,145.81Z" fill="#f27a0f" fill-rule="evenodd"/><path d="M64.34,144.49c-10.41-9.53-16.2-11.36-18-11.42-2.48-.07-6.07,2-5.68,4.89.18,1.38,1.42,3.94,11.28,9.57,5.73,3.27,12.82,5,14.16,3.24S66,146,64.34,144.49Z" fill="#f27a0f" fill-rule="evenodd"/><path d="M67.8,144.58c-3.61-13.09-7.55-17.79-9-18.85-2.08-1.48-6.31-2-7.57.38-.61,1.13-1,3.75,4.34,13.62,3.08,5.73,8.16,11.12,10.3,10.55C68.11,149.67,68.37,146.66,67.8,144.58Z" fill="#f27a0f" fill-rule="evenodd"/><path d="M69.23,145.89c3.53-13.46,2.4-19.36,1.59-20.95-1.12-2.2-4.71-4.37-7.09-2.72-1.15.79-2.84,3-3.15,14.24-.18,6.51,1.64,13.5,3.88,13.85C66.86,150.68,68.67,148,69.23,145.89Z" fill="#f27a0f" fill-rule="evenodd"/><path d="M64.84,144.13s-2.92-5.8-6.75-2.53c-1.51,1.28-3.14,4.1,2.26,7.16,0,0-7.2,1.89-7.38,4.75-.29,4.57,7.16,3,13.82-2.21,4.45-3.5,6.58-13.42,3.54-14.26C65.29,135.64,65.33,142.94,64.84,144.13Z" fill="#f7a963" fill-rule="evenodd"/><path d="M245.91,200.72c74.06,40.6,62.61,74.62,104.5,103.88.92.64-46.24-2.3-77.2-43C236.63,213.49,245.91,200.72,245.91,200.72Z" fill="#6d720e" fill-rule="evenodd"/><path d="M245.75,201c-1.06,2.07-6.11,16.45,27.46,60.59,31,40.71,78.13,43.65,77.2,43l-.17-.12C290.49,277.38,272.63,226.78,245.75,201Z" fill="#5b5f0c" fill-rule="evenodd"/><path d="M229.27,191.57c84.44-1.74,91.48,33.46,142.38,37.93,1.12.1-41.23,21.06-88.36,1.22C227.59,207.26,229.27,191.57,229.27,191.57Z" fill="#6d720e" fill-rule="evenodd"/><path d="M229.27,191.88c.12,2.33,2.91,17.32,54,38.84,47.13,19.84,89.48-1.12,88.36-1.22l-.21,0C306.14,235.79,265.42,200.83,229.27,191.88Z" fill="#5b5f0c" fill-rule="evenodd"/><path d="M211.48,203A210,210,0,0,1,254,226.64,187.35,187.35,0,0,1,289.77,260a.57.57,0,1,0,.89-.71,189.14,189.14,0,0,0-35.61-34,212.63,212.63,0,0,0-42.72-24.41,1.14,1.14,0,0,0-1.53.62A1.22,1.22,0,0,0,211.48,203Z" fill="#b9b111" fill-rule="evenodd"/><path d="M272.42,240.51a23.86,23.86,0,0,0,13.1,3.09,26,26,0,0,0,13.32-4.25,15.23,15.23,0,0,0-12.32-5A22.5,22.5,0,0,0,272.42,240.51Z" fill="#aea710" fill-rule="evenodd"/><path d="M280.37,248.45a17.81,17.81,0,0,1,2.31,9.73,19.33,19.33,0,0,1-3.15,9.9,11.37,11.37,0,0,1-3.74-9.14A16.69,16.69,0,0,1,280.37,248.45Z" fill="#aea710" fill-rule="evenodd"/><path d="M247.42,221.66a27.39,27.39,0,0,0,15.67.24,30.08,30.08,0,0,0,14.06-8.29,17.57,17.57,0,0,0-15.27-2.67A26.15,26.15,0,0,0,247.42,221.66Z" fill="#aea710" fill-rule="evenodd"/><path d="M262.63,232.73a22.28,22.28,0,0,1-1.52,12.73A24.58,24.58,0,0,1,252.8,256a14.3,14.3,0,0,1-.52-12.67A21.51,21.51,0,0,1,262.63,232.73Z" fill="#78730b" fill-rule="evenodd"/><path d="M233.89,212.43a28.06,28.06,0,0,1,4,15.29,30.48,30.48,0,0,1-4.65,15.75A17.92,17.92,0,0,1,227,229.14,26.37,26.37,0,0,1,233.89,212.43Z" fill="#aea710" fill-rule="evenodd"/><path d="M298.84,239.34h0a26,26,0,0,1-13.32,4.25,23.89,23.89,0,0,1-13-3.06,30.34,30.34,0,0,1,4.23-.68c5.46-.62,10.92-1,16.43-1.13C295,238.69,297.3,238.54,298.84,239.34Z" fill="#8f890d" fill-rule="evenodd"/><path d="M279.53,268.08h0a19.33,19.33,0,0,0,3.15-9.9,17.84,17.84,0,0,0-2.29-9.69,21.41,21.41,0,0,0-.5,3.14c-.46,4.06-.73,8.11-.82,12.2C279,265.24,278.93,266.93,279.53,268.08Z" fill="#8f890d" fill-rule="evenodd"/><path d="M277.15,213.6h0a30.08,30.08,0,0,1-14.06,8.29,27.48,27.48,0,0,1-15.61-.22,32.75,32.75,0,0,1,4.64-1.85c6-2.11,12.15-3.93,18.38-5.48C272.64,213.82,275.19,213.07,277.15,213.6Z" fill="#8f890d" fill-rule="evenodd"/><path d="M252.79,256h0a24.58,24.58,0,0,0,8.31-10.49,22.29,22.29,0,0,0,1.53-12.68,26.85,26.85,0,0,0-2,3.56c-2.39,4.67-4.54,9.42-6.49,14.3C253.46,252.31,252.57,254.3,252.79,256Z" fill="#8f890d" fill-rule="evenodd"/><path d="M233.19,243.47h0a30.48,30.48,0,0,0,4.65-15.75,28.17,28.17,0,0,0-3.92-15.24,35.06,35.06,0,0,0-.69,5c-.59,6.42-.89,12.84-.9,19.31C232.33,239,232.22,241.68,233.19,243.47Z" fill="#8f890d" fill-rule="evenodd"/><path d="M285.93,280.74c0,5.14,4.62,6.3,6.93,5.34,2.83-1.18,3.4-6.18,2.3-7.94-3.42-5.42-.07-5,2.93-1.07,1.38,1.79,4.6,4.26,8,1.39,4-3.37,1.08-6.63-.39-7.89-4.75-4.07-3.12-5.55,2.38-2,2,1.25,6.27.57,7.87-2.11,2.8-4.7-3.21-5.44-6.55-6.56-6-2-15.55-5.23-20-.93C285.57,262.62,285.88,262.49,285.93,280.74Z" fill="#cd660b" fill-rule="evenodd"/><path d="M300.4,286.08a.87.87,0,0,0-.27.14.8.8,0,0,0-.13,1.15.84.84,0,0,0,1.17.17.82.82,0,0,0,.13-1.16.86.86,0,0,0-.68-.33,44.23,44.23,0,0,0-1.36-7.78,34.62,34.62,0,0,0-3.59-8.48.21.21,0,0,0-.29-.08.21.21,0,0,0-.07.28,34.61,34.61,0,0,1,3.65,8.35A43.53,43.53,0,0,1,300.4,286.08Z" fill="#ff5c40" fill-rule="evenodd"/><path d="M304.74,284a.71.71,0,0,0-.23.19.82.82,0,0,0,.1,1.16.85.85,0,0,0,1.18-.07.85.85,0,0,0-.84-1.35,43.63,43.63,0,0,0-2.88-7.39,35.3,35.3,0,0,0-5.2-7.63.21.21,0,0,0-.31.27,34.84,34.84,0,0,1,5.23,7.49A43.71,43.71,0,0,1,304.74,284Z" fill="#ff5c40" fill-rule="evenodd"/><path d="M309.08,280.45a.72.72,0,0,0-.16.25.82.82,0,1,0,.34-.38,44.28,44.28,0,0,0-5-6.22,35.54,35.54,0,0,0-7.25-5.75.21.21,0,0,0-.29.07.2.2,0,0,0,.08.28,35.28,35.28,0,0,1,7.24,5.61A44.17,44.17,0,0,1,309.08,280.45Z" fill="#ff5c40" fill-rule="evenodd"/><path d="M312.91,275.89a.73.73,0,0,0-.06.3.83.83,0,0,0,.81.85.81.81,0,0,0,.86-.78.85.85,0,0,0-1.5-.55,43.7,43.7,0,0,0-6.87-4,35.24,35.24,0,0,0-8.81-2.8.2.2,0,0,0-.24.17.2.2,0,0,0,.17.23,35.13,35.13,0,0,1,8.75,2.68A44.1,44.1,0,0,1,312.91,275.89Z" fill="#ff5c40" fill-rule="evenodd"/><path d="M292.68,262.6c11.39,3.33,16.41,2.56,17.76,1.93,1.87-.86,3.74-3.79,2.36-5.82-.67-1-2.57-2.45-12.06-3-5.52-.35-11.46,1-11.77,2.82S290.87,262.07,292.68,262.6Z" fill="#f27a0f" fill-rule="evenodd"/><path d="M289.89,263.27c7.34,9.31,11.9,11.62,13.38,11.91,2,.39,5.3-.85,5.37-3.29,0-1.17-.65-3.46-8.06-9.46-4.31-3.49-9.95-5.91-11.3-4.6S288.72,261.79,289.89,263.27Z" fill="#f27a0f" fill-rule="evenodd"/><path d="M287,262.73c1.22,11.34,3.85,15.77,4.95,16.86,1.52,1.51,5,2.5,6.33.71.66-.86,1.31-3-1.75-11.89-1.78-5.17-5.27-10.32-7.12-10.14S286.84,260.92,287,262.73Z" fill="#f27a0f" fill-rule="evenodd"/><path d="M286,261.45c-4.74,10.68-4.6,15.73-4.15,17.15.64,2,3.31,4.27,5.52,3.22,1.05-.5,2.76-2.14,4.53-11.38,1-5.37.47-11.42-1.34-12S286.78,259.75,286,261.45Z" fill="#f27a0f" fill-rule="evenodd"/><path d="M289.43,263.5s1.64,5.21,5.26,3c1.43-.87,3.15-3-.91-6.25,0,0,6.23-.59,6.76-2.94.86-3.75-5.53-3.47-11.75,0-4.17,2.3-7.28,10.25-4.87,11.35C287.91,270.48,288.87,264.42,289.43,263.5Z" fill="#f7a963" fill-rule="evenodd"/><path d="M148,207.61a209.55,209.55,0,0,1-17.94,45.27,187.27,187.27,0,0,1-28.4,39.73.57.57,0,1,0,.81.8,188.62,188.62,0,0,0,29.12-39.72,212.21,212.21,0,0,0,18.68-45.52,1.14,1.14,0,0,0-.82-1.43A1.22,1.22,0,0,0,148,207.61Z" fill="#b9b111" fill-rule="evenodd"/><path d="M118.72,272.89a23.92,23.92,0,0,0-1.36,13.39,25.93,25.93,0,0,0,5.94,12.66,15.28,15.28,0,0,0,3.38-12.86A22.52,22.52,0,0,0,118.72,272.89Z" fill="#aea710" fill-rule="evenodd"/><path d="M111.88,281.81a17.85,17.85,0,0,1-9.35,3.54,19.16,19.16,0,0,1-10.22-1.84,11.35,11.35,0,0,1,8.58-4.89A16.72,16.72,0,0,1,111.88,281.81Z" fill="#aea710" fill-rule="evenodd"/><path d="M134.18,245.66A27.53,27.53,0,0,0,136,261.24a30.09,30.09,0,0,0,10,12.87,17.59,17.59,0,0,0,.67-15.49A26.19,26.19,0,0,0,134.18,245.66Z" fill="#aea710" fill-rule="evenodd"/><path d="M125.17,262.18a22.27,22.27,0,0,1-12.81.15,24.71,24.71,0,0,1-11.48-6.89,14.24,14.24,0,0,1,12.49-2.15A21.44,21.44,0,0,1,125.17,262.18Z" fill="#78730b" fill-rule="evenodd"/><path d="M141.59,231.06a28.13,28.13,0,0,1-14.66,5.9,30.53,30.53,0,0,1-16.21-2.57,17.92,17.92,0,0,1,13.4-8A26.49,26.49,0,0,1,141.59,231.06Z" fill="#aea710" fill-rule="evenodd"/><path d="M123.3,298.94h0a25.93,25.93,0,0,1-5.94-12.66,24,24,0,0,1,1.34-13.34,28.88,28.88,0,0,1,1.22,4.12c1.33,5.33,2.41,10.69,3.25,16.14C123.46,295.06,123.9,297.31,123.3,298.94Z" fill="#8f890d" fill-rule="evenodd"/><path d="M92.31,283.51h0a19.16,19.16,0,0,0,10.22,1.84,17.85,17.85,0,0,0,9.32-3.52,22.46,22.46,0,0,0-3.19-.09q-6.1.11-12.2.77C95.07,282.66,93.37,282.77,92.31,283.51Z" fill="#8f890d" fill-rule="evenodd"/><path d="M146,274.1h0a30.09,30.09,0,0,1-10-12.87,27.47,27.47,0,0,1-1.8-15.51,34,34,0,0,1,2.44,4.36c2.87,5.72,5.47,11.54,7.81,17.52C145.22,269.66,146.29,272.09,146,274.1Z" fill="#8f890d" fill-rule="evenodd"/><path d="M100.88,255.43h0a24.71,24.71,0,0,0,11.48,6.89,22.36,22.36,0,0,0,12.76-.13,27.09,27.09,0,0,0-3.79-1.55q-7.39-2.64-15-4.58C104.57,255.62,102.48,255,100.88,255.43Z" fill="#8f890d" fill-rule="evenodd"/><path d="M110.72,234.38h0A30.53,30.53,0,0,0,126.93,237a28.18,28.18,0,0,0,14.61-5.86,33.86,33.86,0,0,0-5,0c-6.44.24-12.84.77-19.26,1.6C115,233,112.37,233.18,110.72,234.38Z" fill="#8f890d" fill-rule="evenodd"/><path d="M80.59,291.49c-5.11.68-5.66,5.4-4.4,7.57,1.53,2.65,6.57,2.57,8.17,1.25,4.93-4.09,4.9-.71,1.44,2.77-1.6,1.6-3.63,5.11-.35,8.11,3.86,3.53,6.72.22,7.78-1.41,3.42-5.23,5.1-3.81,2.32,2.11-1,2.1.25,6.28,3.1,7.52,5,2.18,5-3.88,5.67-7.34,1.21-6.21,3.17-16.09-1.67-20C98.51,288.79,98.68,289.09,80.59,291.49Z" fill="#cd660b" fill-rule="evenodd"/><path d="M77.16,306.54a.85.85,0,0,0-.17-.25.81.81,0,0,0-1.16,0,.84.84,0,0,0,0,1.18.81.81,0,0,0,1.16,0,.9.9,0,0,0,.24-.72,44.33,44.33,0,0,0,7.54-2.35,35.33,35.33,0,0,0,7.94-4.66.21.21,0,0,0,0-.29.2.2,0,0,0-.29,0,34.94,34.94,0,0,1-7.81,4.7A44.5,44.5,0,0,1,77.16,306.54Z" fill="#ff5c40" fill-rule="evenodd"/><path d="M79.78,310.57a.7.7,0,0,0-.21-.21.84.84,0,0,0-.92,1.41.82.82,0,0,0,1.14-.25.84.84,0,0,0,.09-.75,44,44,0,0,0,7-3.81,35.67,35.67,0,0,0,6.89-6.14.21.21,0,0,0,0-.3.21.21,0,0,0-.29,0,34.62,34.62,0,0,1-6.75,6.16A43.22,43.22,0,0,1,79.78,310.57Z" fill="#ff5c40" fill-rule="evenodd"/><path d="M83.87,314.42a.87.87,0,0,0-.27-.14.83.83,0,0,0-1,.59.82.82,0,1,0,1.57.45.9.9,0,0,0-.14-.75,43.8,43.8,0,0,0,5.52-5.73,35.71,35.71,0,0,0,4.77-7.94.22.22,0,0,0-.11-.28.21.21,0,0,0-.27.12,35,35,0,0,1-4.63,7.9A44.26,44.26,0,0,1,83.87,314.42Z" fill="#ff5c40" fill-rule="evenodd"/><path d="M88.88,317.63a.75.75,0,0,0-.3,0,.83.83,0,0,0-.74.91.82.82,0,0,0,.89.76.85.85,0,0,0,.74-.92.86.86,0,0,0-.39-.64,44.54,44.54,0,0,0,3.12-7.33,35.19,35.19,0,0,0,1.64-9.11.21.21,0,0,0-.2-.22.22.22,0,0,0-.21.21,34.78,34.78,0,0,1-1.52,9A45.12,45.12,0,0,1,88.88,317.63Z" fill="#ff5c40" fill-rule="evenodd"/><path d="M99.44,295.85c-1.83,11.72-.41,16.59.38,17.85,1.11,1.75,4.25,3.22,6.09,1.59.88-.79,2.09-2.86,1.44-12.35-.37-5.51-2.44-11.24-4.32-11.31S99.74,294,99.44,295.85Z" fill="#f27a0f" fill-rule="evenodd"/><path d="M98.41,293.17c-8.28,8.48-10,13.3-10.07,14.8-.13,2.08,1.53,5.15,4,4.91,1.16-.12,3.34-1.1,8.34-9.23,2.9-4.72,4.57-10.63,3.1-11.8S99.73,291.81,98.41,293.17Z" fill="#f27a0f" fill-rule="evenodd"/><path d="M98.59,290.27c-11.09,2.68-15.14,5.86-16.08,7.09-1.3,1.7-1.84,5.24.11,6.37.94.54,3.13.91,11.56-3.28,4.9-2.43,9.56-6.56,9.14-8.37S100.35,289.84,98.59,290.27Z" fill="#f27a0f" fill-rule="evenodd"/><path d="M99.72,289.09c-11.2-3.32-16.19-2.52-17.54-1.89-1.88.88-3.81,3.84-2.48,5.88.63,1,2.48,2.47,11.88,3,5.45.32,11.38-1,11.73-2.89S101.51,289.62,99.72,289.09Z" fill="#f27a0f" fill-rule="evenodd"/><path d="M98.13,292.74s-4.95,2.3-2.31,5.6c1,1.31,3.36,2.74,6.08-1.71,0,0,1.39,6.1,3.79,6.33,3.83.37,2.72-5.94-1.49-11.66-2.82-3.84-11.09-5.89-11.88-3.36C91,292.13,97.14,292.3,98.13,292.74Z" fill="#f7a963" fill-rule="evenodd"/><path d="M174.16,211.36a209.86,209.86,0,0,1,29,39.13,187,187,0,0,1,18.77,45.09.59.59,0,0,0,.7.43.58.58,0,0,0,.41-.71,188.84,188.84,0,0,0-18.38-45.68,212.73,212.73,0,0,0-28.82-39.89,1.15,1.15,0,0,0-1.65-.06A1.22,1.22,0,0,0,174.16,211.36Z" fill="#b9b111" fill-rule="evenodd"/><path d="M214.15,270.71a24,24,0,0,0,10.66,8.23,26,26,0,0,0,13.88,1.63,15.2,15.2,0,0,0-9.14-9.66A22.49,22.49,0,0,0,214.15,270.71Z" fill="#aea710" fill-rule="evenodd"/><path d="M218.11,281.23A17.73,17.73,0,0,1,216.2,291a19.32,19.32,0,0,1-7,7.71,11.35,11.35,0,0,1,.37-9.87A16.71,16.71,0,0,1,218.11,281.23Z" fill="#aea710" fill-rule="evenodd"/><path d="M199.17,243.22a27.62,27.62,0,0,0,14.18,6.69,30.11,30.11,0,0,0,16.23-1.74,17.59,17.59,0,0,0-12.81-8.74A26.18,26.18,0,0,0,199.17,243.22Z" fill="#aea710" fill-rule="evenodd"/><path d="M208.45,259.58a22.15,22.15,0,0,1-6.63,11,24.62,24.62,0,0,1-11.91,6.12,14.27,14.27,0,0,1,4.76-11.75A21.48,21.48,0,0,1,208.45,259.58Z" fill="#78730b" fill-rule="evenodd"/><path d="M190.67,229.22A28,28,0,0,1,188,244.78a30.63,30.63,0,0,1-10.74,12.42,17.91,17.91,0,0,1,.28-15.61A26.4,26.4,0,0,1,190.67,229.22Z" fill="#aea710" fill-rule="evenodd"/><path d="M238.7,280.56h0a26,26,0,0,1-13.88-1.63,24,24,0,0,1-10.63-8.18,29,29,0,0,1,4.14,1.13c5.23,1.68,10.35,3.6,15.43,5.76C235.48,278.38,237.62,279.19,238.7,280.56Z" fill="#8f890d" fill-rule="evenodd"/><path d="M209.24,298.75h0a19.32,19.32,0,0,0,7-7.71,17.86,17.86,0,0,0,1.92-9.77,20.77,20.77,0,0,0-1.76,2.66c-2.09,3.5-4,7.08-5.79,10.77C210,296,209.17,297.46,209.24,298.75Z" fill="#8f890d" fill-rule="evenodd"/><path d="M229.58,248.16h0a30.11,30.11,0,0,1-16.23,1.74,27.54,27.54,0,0,1-14.13-6.65,32.36,32.36,0,0,1,5,.23c6.38.57,12.69,1.44,19,2.6C225.38,246.49,228,246.87,229.58,248.16Z" fill="#8f890d" fill-rule="evenodd"/><path d="M189.9,276.66h0a24.62,24.62,0,0,0,11.91-6.12,22.21,22.21,0,0,0,6.62-10.91,26.8,26.8,0,0,0-3.31,2.41q-6.15,4.89-11.81,10.34C192,273.62,190.38,275.07,189.9,276.66Z" fill="#8f890d" fill-rule="evenodd"/><path d="M177.21,257.2h0A30.63,30.63,0,0,0,188,244.78a28.17,28.17,0,0,0,2.72-15.5,34.5,34.5,0,0,0-2.68,4.26c-3.19,5.6-6.12,11.32-8.8,17.21C178.28,252.76,177.07,255.16,177.21,257.2Z" fill="#8f890d" fill-rule="evenodd"/><path d="M209.84,312.92c-2.12,4.69,1.6,7.65,4.11,7.73,3.06.09,5.65-4.22,5.36-6.28-.87-6.35,2-4.54,3.12.23.52,2.21,2.43,5.79,6.71,4.58,5-1.42,3.73-5.59,2.9-7.35-2.64-5.67-.55-6.34,3-.86,1.27,1.95,5.48,3.1,8,1.33,4.5-3.12-.66-6.29-3.25-8.69-4.63-4.3-12-11.18-17.84-9.11C217,296.27,217.33,296.28,209.84,312.92Z" fill="#cd660b" fill-rule="evenodd"/><path d="M220.81,323.77a1,1,0,0,0-.3,0,.82.82,0,0,0-.6,1,.85.85,0,0,0,1,.63.81.81,0,0,0,.59-1,.83.83,0,0,0-.48-.58,43.46,43.46,0,0,0,2-7.65,34.71,34.71,0,0,0,.23-9.2.21.21,0,0,0-.41,0,34.46,34.46,0,0,1-.12,9.12A44,44,0,0,1,220.81,323.77Z" fill="#ff5c40" fill-rule="evenodd"/><path d="M225.62,323.67a.77.77,0,0,0-.29.07.81.81,0,0,0-.38,1.1.83.83,0,0,0,1.1.42.82.82,0,0,0,.38-1.1.84.84,0,0,0-.59-.47,44,44,0,0,0,.43-7.92,35.05,35.05,0,0,0-1.58-9.1.22.22,0,0,0-.26-.14.2.2,0,0,0-.13.26,34.55,34.55,0,0,1,1.66,9A43.19,43.19,0,0,1,225.62,323.67Z" fill="#ff5c40" fill-rule="evenodd"/><path d="M231,322.23a.73.73,0,0,0-.25.15.84.84,0,1,0,.47-.2,45.71,45.71,0,0,0-2-7.72,35.89,35.89,0,0,0-4.22-8.23.21.21,0,0,0-.29-.06.2.2,0,0,0-.05.29,35.11,35.11,0,0,1,4.27,8.1A43.79,43.79,0,0,1,231,322.23Z" fill="#ff5c40" fill-rule="evenodd"/><path d="M236.41,319.66a1.08,1.08,0,0,0-.18.24.84.84,0,0,0,.39,1.11.82.82,0,0,0,1.11-.35.85.85,0,0,0-1.14-1.12A45.3,45.3,0,0,0,232,313a35.72,35.72,0,0,0-6.87-6.19.21.21,0,0,0-.29.05.2.2,0,0,0,.06.29,35.17,35.17,0,0,1,6.86,6A44.46,44.46,0,0,1,236.41,319.66Z" fill="#ff5c40" fill-rule="evenodd"/><path d="M223.48,299.2c9,7.74,13.88,9.1,15.37,9.09,2.06,0,5-1.9,4.56-4.33-.21-1.16-1.33-3.29-9.73-7.74-4.88-2.59-10.84-3.85-11.89-2.29S222.05,298,223.48,299.2Z" fill="#f27a0f" fill-rule="evenodd"/><path d="M220.66,298.66c2.84,11.51,6,15.49,7.26,16.36,1.7,1.21,5.19,1.42,6.26-.77.51-1.05.84-3.42-3.44-11.95-2.48-5-6.62-9.49-8.39-8.86S220.21,296.82,220.66,298.66Z" fill="#f27a0f" fill-rule="evenodd"/><path d="M218.29,297c-3.57,10.84-3,16-2.46,17.4.76,2,3.49,4.33,5.48,3.26.95-.5,2.42-2.17,3.31-11.54.51-5.45-.53-11.58-2.29-12.18S218.86,295.26,218.29,297Z" fill="#f27a0f" fill-rule="evenodd"/><path d="M217.89,295.4c-8.73,7.76-10.69,12.42-10.86,13.91-.24,2.06,1.25,5.25,3.69,5.21,1.17,0,3.4-.82,8.83-8.5,3.16-4.46,5.15-10.2,3.74-11.49S219.28,294.16,217.89,295.4Z" fill="#f27a0f" fill-rule="evenodd"/><path d="M220.15,298.67s-.66,5.42,3.54,4.92c1.66-.19,4.1-1.4,1.75-6.06,0,0,5.92,2,7.38.12,2.33-3.07-3.61-5.45-10.69-4.9-4.75.38-10.86,6.33-9.13,8.33C215.88,304.4,219.25,299.28,220.15,298.67Z" fill="#f7a963" fill-rule="evenodd"/><path d="M199,170.84c-18.07,1.49-34.73-3-50-10.87s-29.08-19.2-41.46-31.41a.62.62,0,0,0-.87.87c14.86,15,31.87,28.72,51,36.74a89.88,89.88,0,0,0,41.48,7.17,1.25,1.25,0,0,0,1.16-1.34A1.27,1.27,0,0,0,199,170.84Z" fill="#f27a0f" fill-rule="evenodd"/><path d="M123.57,143.71a38.94,38.94,0,0,1-9.68,4.23,24.66,24.66,0,0,1-10.5.67.23.23,0,1,0-.07.45,25.23,25.23,0,0,0,10.74-.45,39.92,39.92,0,0,0,10-4.1.47.47,0,0,0,.16-.64A.46.46,0,0,0,123.57,143.71Z" fill="#f27a0f" fill-rule="evenodd"/><path d="M147.39,159.59A42.5,42.5,0,0,1,135.62,168a21.14,21.14,0,0,1-9.34,2.06.23.23,0,1,0,0,.46,21.75,21.75,0,0,0,9.62-1.93,43.51,43.51,0,0,0,12.15-8.3.48.48,0,0,0,0-.66A.47.47,0,0,0,147.39,159.59Z" fill="#f27a0f" fill-rule="evenodd"/><path d="M171.54,169.53a30.67,30.67,0,0,1-8.38,8.65,28.39,28.39,0,0,1-11,5,.24.24,0,0,0-.2.26.23.23,0,0,0,.26.19,28.84,28.84,0,0,0,11.31-4.87,31.26,31.26,0,0,0,8.77-8.72.46.46,0,1,0-.78-.49Z" fill="#f27a0f" fill-rule="evenodd"/><path d="M183.77,170.89A36.93,36.93,0,0,0,178.92,160a54.87,54.87,0,0,0-7.86-8.95.23.23,0,0,0-.32,0,.22.22,0,0,0,0,.32,54.17,54.17,0,0,1,7.61,9,36.19,36.19,0,0,1,4.52,10.78.46.46,0,0,0,.57.33A.47.47,0,0,0,183.77,170.89Z" fill="#f27a0f" fill-rule="evenodd"/><path d="M159.67,165.21a24.63,24.63,0,0,0-2.29-10.09,25.85,25.85,0,0,0-5.95-8.41.23.23,0,0,0-.32,0,.22.22,0,0,0,0,.32,25.11,25.11,0,0,1,5.62,8.35,23.85,23.85,0,0,1,2,9.8.46.46,0,1,0,.92,0Z" fill="#b16d10" fill-rule="evenodd"/><path d="M134.21,151.31a45.89,45.89,0,0,0-1.26-9.95,23.51,23.51,0,0,0-4.51-9,.23.23,0,0,0-.36.29,22.81,22.81,0,0,1,4.2,8.83,45.42,45.42,0,0,1,1,9.81.46.46,0,1,0,.92,0Z" fill="#f27a0f" fill-rule="evenodd"/><path d="M116.31,137.59c.88-2.11.78-5.63-.46-9.38a24.39,24.39,0,0,0-4.57-8.13.22.22,0,0,0-.32,0,.23.23,0,0,0,0,.32,23.94,23.94,0,0,1,4.25,8c1.07,3.54,1.15,6.84.27,8.8a.46.46,0,0,0,.85.37Z" fill="#f27a0f" fill-rule="evenodd"/><path d="M89.63,119.45a4.82,4.82,0,0,1,3.07,3.19c.83,3.07,1.42,4.6,4,6.77,4,3.4,9.11,1.93,10.7.11,3.37-3.84.65-8.85-1.48-11-3.48-3.45-6.29-2.25-8.11-3a4.76,4.76,0,0,1-2-2.28c-.3-.53-.51-1.2-1.24-1.07-1.26.24-.57,1.42-.54,2.2,0,.09-.4.12-.47.12-.5,0-1.13-.12-1.52.28a1.29,1.29,0,0,0-.17,1.35c.07.25.25.54.1.81a.91.91,0,0,1-.74.29,4.57,4.57,0,0,0-1.6.2C87.41,118.3,89.63,119.45,89.63,119.45Z" fill="#ff5c40" fill-rule="evenodd"/><path d="M103.42,146.77a2.56,2.56,0,1,1,.12,3.62A2.56,2.56,0,0,1,103.42,146.77Z" fill="#ff5c40" fill-rule="evenodd"/><path d="M108.87,117a2.56,2.56,0,1,1,.12,3.62A2.57,2.57,0,0,1,108.87,117Z" fill="#ff5c40" fill-rule="evenodd"/><path d="M126.09,131.57a2.56,2.56,0,1,1,.12,3.61A2.54,2.54,0,0,1,126.09,131.57Z" fill="#ff5c40" fill-rule="evenodd"/><path d="M124.88,168.81a2.56,2.56,0,1,1,.12,3.61A2.55,2.55,0,0,1,124.88,168.81Z" fill="#ff5c40" fill-rule="evenodd"/><path d="M149.09,145a2.55,2.55,0,1,1,.12,3.62A2.55,2.55,0,0,1,149.09,145Z" fill="#ff5c40" fill-rule="evenodd"/><path d="M169.13,149.9a2.56,2.56,0,1,1,.12,3.62A2.56,2.56,0,0,1,169.13,149.9Z" fill="#ff5c40" fill-rule="evenodd"/><path d="M150.92,181.26a2.55,2.55,0,1,1,.12,3.61A2.55,2.55,0,0,1,150.92,181.26Z" fill="#ff5c40" fill-rule="evenodd"/><path d="M226.33,185.78c4.34,17.61,2.57,34.77-2.8,51.06s-14.34,31.77-24.42,45.93a.61.61,0,0,0,.14.86.62.62,0,0,0,.86-.14c12.46-17.06,23.29-36,28.16-56.2a89.78,89.78,0,0,0,.49-42.09,1.25,1.25,0,1,0-2.43.58Z" fill="#f27a0f" fill-rule="evenodd"/><path d="M211.52,264.54a39.14,39.14,0,0,1,5.72,8.89,24.79,24.79,0,0,1,2.33,10.25.22.22,0,0,0,.22.23.21.21,0,0,0,.23-.22,25.27,25.27,0,0,0-2.15-10.53,39.7,39.7,0,0,0-5.64-9.2.46.46,0,0,0-.65-.07A.45.45,0,0,0,211.52,264.54Z" fill="#f27a0f" fill-rule="evenodd"/><path d="M223.41,238.5a42.7,42.7,0,0,1,10.15,10.29,21.21,21.21,0,0,1,3.52,8.9.24.24,0,0,0,.25.2.23.23,0,0,0,.2-.26,21.64,21.64,0,0,0-3.43-9.18A43.24,43.24,0,0,0,224,237.77a.46.46,0,0,0-.65.08A.47.47,0,0,0,223.41,238.5Z" fill="#f27a0f" fill-rule="evenodd"/><path d="M229.39,213.09a30.55,30.55,0,0,1,9.87,6.89A28.35,28.35,0,0,1,245.93,230a.23.23,0,0,0,.28.15.22.22,0,0,0,.15-.28,28.92,28.92,0,0,0-6.6-10.4,31.66,31.66,0,0,0-10-7.27.47.47,0,0,0-.36.86Z" fill="#f27a0f" fill-rule="evenodd"/><path d="M228.79,200.79a36.75,36.75,0,0,0-10,6.52,53.93,53.93,0,0,0-7.58,9.18.22.22,0,0,0,0,.32.24.24,0,0,0,.32-.05,53.88,53.88,0,0,1,7.67-8.94,36.21,36.21,0,0,1,9.92-6.18.45.45,0,0,0,.23-.61A.46.46,0,0,0,228.79,200.79Z" fill="#f27a0f" fill-rule="evenodd"/><path d="M227,225.48a24.67,24.67,0,0,0-9.61,3.88,25.55,25.55,0,0,0-7.35,7.2.23.23,0,0,0,.06.32.22.22,0,0,0,.31-.07,25.26,25.26,0,0,1,7.36-6.87,23.86,23.86,0,0,1,9.35-3.54.47.47,0,0,0,.4-.52A.48.48,0,0,0,227,225.48Z" fill="#b16d10" fill-rule="evenodd"/><path d="M217.34,252.83a45.86,45.86,0,0,0-9.63,2.83,23.53,23.53,0,0,0-8.12,5.87.25.25,0,0,0,0,.33.23.23,0,0,0,.32,0,22.93,22.93,0,0,1,8-5.55,45.58,45.58,0,0,1,9.53-2.55.46.46,0,1,0-.17-.91Z" fill="#f27a0f" fill-rule="evenodd"/><path d="M206.63,272.69c-2.22-.54-5.68.12-9.19,1.94a24.65,24.65,0,0,0-7.3,5.8.22.22,0,0,0,0,.32.22.22,0,0,0,.31,0,24,24,0,0,1,7.27-5.48c3.33-1.62,6.58-2.22,8.65-1.67a.45.45,0,0,0,.56-.33A.46.46,0,0,0,206.63,272.69Z" fill="#f27a0f" fill-rule="evenodd"/><path d="M193,301.91a4.82,4.82,0,0,1,2.66-3.54c2.9-1.31,4.31-2.13,6.06-5,2.72-4.5.45-9.3-1.6-10.59-4.33-2.71-8.84.77-10.59,3.21-2.86,4-1.23,6.57-1.69,8.49a4.77,4.77,0,0,1-1.94,2.34c-.48.38-1.11.69-.86,1.39.44,1.21,1.49.35,2.26.19.09,0,.18.37.19.44.1.5.07,1.13.52,1.46a1.28,1.28,0,0,0,1.36,0c.24-.12.5-.34.78-.23s.36.43.41.68a4.46,4.46,0,0,0,.45,1.55C192.18,304.28,193,301.91,193,301.91Z" fill="#ff5c40" fill-rule="evenodd"/><path d="M217.74,284a2.56,2.56,0,1,1,3.55-.69A2.56,2.56,0,0,1,217.74,284Z" fill="#ff5c40" fill-rule="evenodd"/><path d="M187.48,283.3a2.56,2.56,0,1,1,3.55-.7A2.57,2.57,0,0,1,187.48,283.3Z" fill="#ff5c40" fill-rule="evenodd"/><path d="M199.13,264a2.56,2.56,0,1,1,3.55-.7A2.56,2.56,0,0,1,199.13,264Z" fill="#ff5c40" fill-rule="evenodd"/><path d="M236.09,259.27a2.56,2.56,0,1,1,3.55-.7A2.57,2.57,0,0,1,236.09,259.27Z" fill="#ff5c40" fill-rule="evenodd"/><path d="M208.78,239.14a2.56,2.56,0,1,1,3.55-.69A2.57,2.57,0,0,1,208.78,239.14Z" fill="#ff5c40" fill-rule="evenodd"/><path d="M210.39,218.58a2.56,2.56,0,1,1,3.55-.7A2.56,2.56,0,0,1,210.39,218.58Z" fill="#ff5c40" fill-rule="evenodd"/><path d="M244.25,231.58a2.56,2.56,0,1,1,3.55-.69A2.55,2.55,0,0,1,244.25,231.58Z" fill="#ff5c40" fill-rule="evenodd"/><path d="M157,217.56c3.76,13.09,2.88,25.69-.76,37.56s-10,23-17.29,33.18a.45.45,0,0,0,.13.64.46.46,0,0,0,.64-.08c9-12.24,16.71-25.92,19.87-40.66a64.41,64.41,0,0,0-.76-31,1,1,0,0,0-1.17-.73A.85.85,0,0,0,157,217.56Z" fill="#f27a0f" fill-rule="evenodd"/><path d="M147.9,275.21a31.41,31.41,0,0,1,4.58,6.7,18.61,18.61,0,0,1,2,7.62.18.18,0,0,0,.18.17.15.15,0,0,0,.17-.16,19,19,0,0,0-1.92-7.82,32.13,32.13,0,0,0-4.52-6.93.36.36,0,0,0-.5-.06A.33.33,0,0,0,147.9,275.21Z" fill="#f27a0f" fill-rule="evenodd"/><path d="M156.23,256.34a35.47,35.47,0,0,1,8,7.85,16.5,16.5,0,0,1,2.9,6.65.19.19,0,0,0,.2.15.15.15,0,0,0,.14-.18,16.83,16.83,0,0,0-2.84-6.86,35.78,35.78,0,0,0-8-8.14.33.33,0,1,0-.4.53Z" fill="#f27a0f" fill-rule="evenodd"/><path d="M160.08,237.76a25.78,25.78,0,0,1,7.68,5.35,23,23,0,0,1,5.33,7.59.18.18,0,0,0,.22.11.15.15,0,0,0,.1-.2,23.55,23.55,0,0,0-5.29-7.84,26.14,26.14,0,0,0-7.79-5.62.33.33,0,0,0-.45.16A.35.35,0,0,0,160.08,237.76Z" fill="#f27a0f" fill-rule="evenodd"/><path d="M159.3,228.69a25.36,25.36,0,0,0-7.42,4.54,36.26,36.26,0,0,0-5.5,6.56.16.16,0,0,0,.05.23.15.15,0,0,0,.23,0,36.27,36.27,0,0,1,5.59-6.38,25.15,25.15,0,0,1,7.36-4.29.31.31,0,0,0,.16-.44A.38.38,0,0,0,159.3,228.69Z" fill="#f27a0f" fill-rule="evenodd"/><path d="M158.61,246.84a17.88,17.88,0,0,0-7.18,2.59,17.51,17.51,0,0,0-5.39,5.12.17.17,0,0,0,.06.23.17.17,0,0,0,.24,0,18,18,0,0,1,12.39-7.22.33.33,0,0,0,.29-.38A.38.38,0,0,0,158.61,246.84Z" fill="#b16d10" fill-rule="evenodd"/><path d="M152,266.73a34.52,34.52,0,0,0-7.23,1.82,16.1,16.1,0,0,0-6,4.12.16.16,0,0,0,0,.24.18.18,0,0,0,.25,0,15.68,15.68,0,0,1,6-3.87,34.17,34.17,0,0,1,7.16-1.63.32.32,0,0,0,.27-.39A.4.4,0,0,0,152,266.73Z" fill="#f27a0f" fill-rule="evenodd"/><path d="M144.41,281.08c-1.7-.46-4.31-.06-6.92,1.18a16.81,16.81,0,0,0-5.38,4.08.15.15,0,0,0,0,.23.17.17,0,0,0,.24,0,16.16,16.16,0,0,1,5.37-3.84c2.48-1.11,4.93-1.46,6.51-1a.33.33,0,0,0,.42-.23A.36.36,0,0,0,144.41,281.08Z" fill="#f27a0f" fill-rule="evenodd"/><path d="M134.82,302.24a3.24,3.24,0,0,1,1.93-2.53c2.17-.89,3.21-1.46,4.46-3.53a6.12,6.12,0,0,0-1.5-7.85c-3.35-2.12-6.68.33-8,2.08-2.06,2.86-.75,4.81-1,6.21a3.31,3.31,0,0,1-1.41,1.68c-.35.26-.82.47-.61,1,.36.9,1.14.29,1.72.2.07,0,.14.28.16.33.08.36.07.83.43,1.08a1,1,0,0,0,1,0c.18-.08.36-.24.58-.15a.71.71,0,0,1,.33.51,3.44,3.44,0,0,0,.38,1.16C134.3,304,134.82,302.24,134.82,302.24Z" fill="#ff5c40" fill-rule="evenodd"/><path d="M153.15,289.68a1.85,1.85,0,1,1,2.67-.42A1.93,1.93,0,0,1,153.15,289.68Z" fill="#ff5c40" fill-rule="evenodd"/><path d="M130.17,288.38a1.84,1.84,0,1,1,2.67-.41A1.92,1.92,0,0,1,130.17,288.38Z" fill="#ff5c40" fill-rule="evenodd"/><path d="M138.49,274.46a1.84,1.84,0,1,1,2-3,1.84,1.84,0,1,1-2,3Z" fill="#ff5c40" fill-rule="evenodd"/><path d="M166.41,272a1.85,1.85,0,1,1,2.67-.42A1.93,1.93,0,0,1,166.41,272Z" fill="#ff5c40" fill-rule="evenodd"/><path d="M145.14,256.41a1.85,1.85,0,1,1,2.68-.41A1.91,1.91,0,0,1,145.14,256.41Z" fill="#ff5c40" fill-rule="evenodd"/><path d="M145.82,241.3a1.84,1.84,0,1,1,2.67-.41A1.92,1.92,0,0,1,145.82,241.3Z" fill="#ff5c40" fill-rule="evenodd"/><path d="M171.85,251.79a1.84,1.84,0,1,1,2.05-3,1.84,1.84,0,1,1-2.05,3Z" fill="#ff5c40" fill-rule="evenodd"/><path d="M184.81,192c15.36-9.65,26-23.23,33.46-38.67s11.76-32.81,14.34-50a.62.62,0,0,1,1.22.18c-2.89,20.93-8.28,42.09-18.78,60a89.85,89.85,0,0,1-28.89,30.62,1.25,1.25,0,0,1-1.35-2.11Z" fill="#f27a0f" fill-rule="evenodd"/><path d="M228.87,125.08a38.61,38.61,0,0,0,10.29-2.42,24.63,24.63,0,0,0,8.8-5.75.23.23,0,1,1,.33.31,25.25,25.25,0,0,1-8.87,6.08A39.63,39.63,0,0,1,229,126a.46.46,0,0,1-.11-.92Z" fill="#f27a0f" fill-rule="evenodd"/><path d="M219.34,152.08a42.8,42.8,0,0,0,14.45-.35,21.18,21.18,0,0,0,8.71-4,.23.23,0,0,1,.29.36,21.77,21.77,0,0,1-8.85,4.22,43.42,43.42,0,0,1-14.71.65.46.46,0,0,1,.11-.92Z" fill="#f27a0f" fill-rule="evenodd"/><path d="M206,174.52a30.57,30.57,0,0,0,11.89,1.89,28.23,28.23,0,0,0,11.79-2.6.22.22,0,0,1,.3.1.22.22,0,0,1-.09.3,28.9,28.9,0,0,1-12,2.89,31.35,31.35,0,0,1-12.25-1.72.45.45,0,0,1-.26-.6A.45.45,0,0,1,206,174.52Z" fill="#f27a0f" fill-rule="evenodd"/><path d="M197,182.94a36.74,36.74,0,0,1-2.67-11.64,54.1,54.1,0,0,1,.92-11.87.23.23,0,0,1,.45.07,54.28,54.28,0,0,0-.69,11.76,36.3,36.3,0,0,0,2.85,11.34.46.46,0,0,1-.26.6A.45.45,0,0,1,197,182.94Z" fill="#f27a0f" fill-rule="evenodd"/><path d="M212.89,164a24.64,24.64,0,0,1-4.22-9.46,25.74,25.74,0,0,1-.28-10.29.22.22,0,0,1,.26-.18.23.23,0,0,1,.18.26,25.21,25.21,0,0,0,.51,10.05,23.85,23.85,0,0,0,4.27,9,.46.46,0,0,1-.72.58Z" fill="#b16d10" fill-rule="evenodd"/><path d="M224.92,137.55a46,46,0,0,1-5-8.72,23.42,23.42,0,0,1-1.75-9.86.21.21,0,0,1,.23-.22.22.22,0,0,1,.22.23,22.85,22.85,0,0,0,1.94,9.58,45.17,45.17,0,0,0,5.08,8.46.46.46,0,1,1-.76.53Z" fill="#f27a0f" fill-rule="evenodd"/><path d="M231,115.83c-2-1.16-4-4-5.25-7.78a24.46,24.46,0,0,1-1.23-9.24.23.23,0,0,1,.24-.21.22.22,0,0,1,.22.23,23.65,23.65,0,0,0,1.42,9c1.27,3.48,3.19,6.17,5.06,7.21a.46.46,0,0,1-.46.8Z" fill="#f27a0f" fill-rule="evenodd"/><path d="M241.48,85.31a4.82,4.82,0,0,0-.54,4.4c1.18,3,1.62,4.53.87,7.81-1.17,5.13-6.13,7-8.5,6.51-5-1-5.83-6.69-5.39-9.66.71-4.86,3.68-5.58,4.68-7.29a4.76,4.76,0,0,0,.23-3c-.08-.6-.31-1.26.35-1.59,1.16-.57,1.31.78,1.76,1.43.05.07.39-.15.44-.19.42-.28.83-.77,1.39-.68s.78.51.95,1c.09.25.11.59.4.71a.86.86,0,0,0,.76-.21,4.48,4.48,0,0,1,1.41-.8C242.57,83.07,241.48,85.31,241.48,85.31Z" fill="#ff5c40" fill-rule="evenodd"/><path d="M246.84,115.45a2.56,2.56,0,1,0,2.07,3A2.56,2.56,0,0,0,246.84,115.45Z" fill="#ff5c40" fill-rule="evenodd"/><path d="M224.61,94.89a2.56,2.56,0,1,0-.89,5,2.56,2.56,0,0,0,.89-5Z" fill="#ff5c40" fill-rule="evenodd"/><path d="M219.58,116.88a2.56,2.56,0,1,0,2.07,3A2.56,2.56,0,0,0,219.58,116.88Z" fill="#ff5c40" fill-rule="evenodd"/><path d="M242.88,146a2.56,2.56,0,1,0,2.08,3A2.56,2.56,0,0,0,242.88,146Z" fill="#ff5c40" fill-rule="evenodd"/><path d="M209.26,141.46a2.55,2.55,0,1,0,2.07,3A2.56,2.56,0,0,0,209.26,141.46Z" fill="#ff5c40" fill-rule="evenodd"/><path d="M196.14,157.37a2.56,2.56,0,1,0,2.07,3A2.56,2.56,0,0,0,196.14,157.37Z" fill="#ff5c40" fill-rule="evenodd"/><path d="M229.52,171.53a2.56,2.56,0,1,0,2.07,3A2.57,2.57,0,0,0,229.52,171.53Z" fill="#ff5c40" fill-rule="evenodd"/><path d="M246.42,206.53c17.56-4.5,34.74-2.88,51.08,2.34s31.89,14,46.15,24a.61.61,0,0,0,.85-.15.62.62,0,0,0-.14-.86c-17.17-12.31-36.24-23-56.45-27.66a90,90,0,0,0-42.1-.11,1.25,1.25,0,1,0,.61,2.43Z" fill="#f27a0f" fill-rule="evenodd"/><path d="M325.31,220.63a38.64,38.64,0,0,1,8.84-5.79,24.6,24.6,0,0,1,10.23-2.43.24.24,0,0,0,.23-.22.23.23,0,0,0-.23-.23,25.08,25.08,0,0,0-10.51,2.25,39.33,39.33,0,0,0-9.15,5.71.46.46,0,0,0-.06.66A.46.46,0,0,0,325.31,220.63Z" fill="#f27a0f" fill-rule="evenodd"/><path d="M299.16,209a42.81,42.81,0,0,1,10.2-10.24,21.31,21.31,0,0,1,8.87-3.6.22.22,0,0,0,.19-.25.23.23,0,0,0-.25-.2A21.72,21.72,0,0,0,309,198.2a43.32,43.32,0,0,0-10.59,10.22.47.47,0,0,0,.1.65A.45.45,0,0,0,299.16,209Z" fill="#f27a0f" fill-rule="evenodd"/><path d="M273.69,203.22a30.77,30.77,0,0,1,6.81-9.93,28.4,28.4,0,0,1,10-6.76.23.23,0,0,0,.15-.28.23.23,0,0,0-.29-.15A29,29,0,0,0,280,192.8a31.33,31.33,0,0,0-7.18,10.07.46.46,0,1,0,.85.35Z" fill="#f27a0f" fill-rule="evenodd"/><path d="M261.41,203.93a36.81,36.81,0,0,0,6.6,9.95,55.13,55.13,0,0,0,9.26,7.5.22.22,0,0,0,.31-.06.23.23,0,0,0-.06-.32,53.89,53.89,0,0,1-9-7.59,36.13,36.13,0,0,1-6.27-9.87.46.46,0,0,0-.62-.22A.45.45,0,0,0,261.41,203.93Z" fill="#f27a0f" fill-rule="evenodd"/><path d="M286.11,205.49a24.83,24.83,0,0,0,4,9.56,25.62,25.62,0,0,0,7.27,7.29.24.24,0,0,0,.32-.06.23.23,0,0,0-.07-.31,25.29,25.29,0,0,1-6.94-7.29,23.84,23.84,0,0,1-3.62-9.32.46.46,0,1,0-.92.13Z" fill="#b16d10" fill-rule="evenodd"/><path d="M313.54,214.92a45.81,45.81,0,0,0,2.92,9.6,23.3,23.3,0,0,0,6,8.06.22.22,0,0,0,.32,0,.23.23,0,0,0,0-.32,22.86,22.86,0,0,1-5.62-8,45.28,45.28,0,0,1-2.64-9.51.46.46,0,0,0-.91.19Z" fill="#f27a0f" fill-rule="evenodd"/><path d="M333.5,225.45c-.52,2.22.17,5.68,2,9.17a24.26,24.26,0,0,0,5.86,7.24.22.22,0,1,0,.29-.34,23.92,23.92,0,0,1-5.54-7.22c-1.65-3.31-2.28-6.56-1.74-8.63a.47.47,0,0,0-.34-.56A.46.46,0,0,0,333.5,225.45Z" fill="#f27a0f" fill-rule="evenodd"/><path d="M362.84,238.86a4.83,4.83,0,0,1-3.56-2.64c-1.33-2.88-2.17-4.29-5.07-6-4.52-2.68-9.3-.37-10.57,1.69-2.68,4.35.84,8.83,3.3,10.56,4,2.82,6.58,1.17,8.5,1.62a4.78,4.78,0,0,1,2.37,1.91c.38.47.7,1.1,1.4.84,1.2-.44.33-1.49.17-2.26,0-.09.37-.18.44-.19.49-.11,1.13-.08,1.44-.54a1.25,1.25,0,0,0-.05-1.35c-.12-.24-.34-.49-.23-.78s.42-.36.67-.41a4.43,4.43,0,0,0,1.55-.47C365.22,239.61,362.84,238.86,362.84,238.86Z" fill="#ff5c40" fill-rule="evenodd"/><path d="M344.66,214.23a2.56,2.56,0,1,1-.72-3.54A2.55,2.55,0,0,1,344.66,214.23Z" fill="#ff5c40" fill-rule="evenodd"/><path d="M344.28,244.5a2.56,2.56,0,1,1-.73-3.54A2.55,2.55,0,0,1,344.28,244.5Z" fill="#ff5c40" fill-rule="evenodd"/><path d="M324.87,233a2.56,2.56,0,1,1-.73-3.54A2.56,2.56,0,0,1,324.87,233Z" fill="#ff5c40" fill-rule="evenodd"/><path d="M319.81,196.11a2.56,2.56,0,1,1-.73-3.55A2.55,2.55,0,0,1,319.81,196.11Z" fill="#ff5c40" fill-rule="evenodd"/><path d="M299.93,223.6a2.56,2.56,0,1,1-.72-3.55A2.56,2.56,0,0,1,299.93,223.6Z" fill="#ff5c40" fill-rule="evenodd"/><path d="M279.36,222.17a2.56,2.56,0,1,1-.73-3.55A2.57,2.57,0,0,1,279.36,222.17Z" fill="#ff5c40" fill-rule="evenodd"/><path d="M292.05,188.2a2.56,2.56,0,1,1-.72-3.54A2.55,2.55,0,0,1,292.05,188.2Z" fill="#ff5c40" fill-rule="evenodd"/><path d="M.46,179.36h0c-1.86,21.72-.54,69.28,52.86,76.94,95.62,13.69,245-82.61,346.88-43.76h0c1.86-21.71-4.35-63.91-42.94-72.86C253.46,115.59,102.32,218.21.46,179.36Z" fill="#f4ed81"/><path d="M51.58,204.94c0-.66,2.71-.89,2.68-.06-.65,2.77-1.45,7.48-2.7,12.32a103.42,103.42,0,0,0,10.6,1.7c.73-2.54,1.51-5.12,2.1-7.74.28-1.15.09-1.53-.08-1.79-.11-1.39,2-5.32,4.24-5.48.56,0,2.82.36,2.92,1.71-.14,0-.38-.19-.55-.17-3.11.24-6,10.65-6.78,13.54a9.07,9.07,0,0,0,3.52-.83,2.48,2.48,0,0,0,1.12-1c.18-.45.72,0,.5.44a3,3,0,0,1-1.4,1.37,10.34,10.34,0,0,1-4,.82c-1,4.16-2.3,13.81,4,7.72a22.58,22.58,0,0,0,3.86-5.28.34.34,0,0,1,.58.35,21.57,21.57,0,0,1-4.09,6,6.17,6.17,0,0,1-3.91,1.78c-4.09.22-3.16-6.1-2.76-8.3a20.51,20.51,0,0,1,.53-2.26c-3.64-.17-7.19-.71-10.8-1.09-2,7.68-5,15.52-9.74,17a5.28,5.28,0,0,1-3.5.08,4.45,4.45,0,0,1-2.76-2.64c-.34-.76,0-1.84.68-.19a2.9,2.9,0,0,0,1.89,1.69,6.18,6.18,0,0,0,2.85.08c4.75-1.52,7.37-8.91,8.93-16.23l-2.28-.12c-3-.17-6.56.15-7.16,3.46a1.83,1.83,0,0,0,.28,1.72c.44.58-.22,1-.7.33a6.09,6.09,0,0,1-.87-2.69c-.41-5.31,4-5.17,8.36-4.66.87.08,1.78.21,2.66.38.54-2.68.92-5.31,1.23-7.55a8,8,0,0,1-5.14,2.44c-.63,0-.7-.66-.08-.75C48.28,210.76,50.73,208.06,51.58,204.94Z" fill="#633715"/><path d="M71.37,227.71c-3.83-3.81,4.79-11.05,7.85-12.18a5.74,5.74,0,0,1,4.31-.12,1.66,1.66,0,0,1,.92,1.08c0,.3,0,.31-.22.25a2.42,2.42,0,0,0-2.26-.58c-2.22.24-4.91,2.26-6.79,4.44-1,1.23-3.85,5.63-2.21,7.42.74.81,2.57-.93,3.08-1.46a48.76,48.76,0,0,0,3.5-4.19c.48-.71,3.11-4.66,3.49-4.71s2.15.1,1.88.83A15.34,15.34,0,0,0,83.41,225c.06,1.87,1.08,2.77,2.32,1.87a23,23,0,0,0,5.33-6.76.32.32,0,0,1,.57.28A21.21,21.21,0,0,1,87.09,227c-1.19,1.2-4.17,2.6-5.45.11-.58-1.13-.5-3.76-.2-5.32-.67.42-3.7,6.87-7.1,7.17A4.13,4.13,0,0,1,71.37,227.71Z" fill="#633715"/><path d="M99.46,223.7c-1.78,1.59-5.46,4.06-8.1,3.62-.44,1.81-1,4.94-1.36,7.66-.19,1.21.24,1.68,0,2.84a19.65,19.65,0,0,1-.7,3.34c-.15.63-3.47,2.58-2.93.63.69-2.32,2.14-8.67,3.43-15,1.1-5.57,2.38-11.18,2.08-13.46-.07-.42.63-.61,1.23-.69,1.87-.26,1.91,1,1.1,2.91a31.86,31.86,0,0,0-1.58,5.56,23.19,23.19,0,0,1,3.16-5.48c1.43-1.61,3-2.63,5.26-2.24a2.62,2.62,0,0,1,2.15,1.63C104.22,218.22,101.35,221.93,99.46,223.7Zm1.29-5.8c1-2.66.27-5.12-2.6-3-4.15,3.07-5.1,7-6.53,11.66C95.24,226.1,99.39,221.48,100.75,217.9Z" fill="#633715"/><path d="M115.21,221c-1.78,1.65-5.47,4.24-8.11,3.9-.43,1.83-.95,5-1.36,7.72-.19,1.21.24,1.67.05,2.84a20.32,20.32,0,0,1-.7,3.36c-.16.64-3.48,2.71-2.94.74.7-2.35,2.15-8.75,3.43-15.1,1.11-5.61,2.38-11.26,2.08-13.53-.07-.43.64-.64,1.24-.74,1.87-.33,1.91.93,1.1,2.87a32.79,32.79,0,0,0-1.59,5.62,24.32,24.32,0,0,1,3.17-5.6c1.43-1.65,3-2.73,5.25-2.42a2.53,2.53,0,0,1,2.16,1.56C120,215.37,117.09,219.17,115.21,221Zm1.29-5.85c1-2.69.27-5.12-2.6-2.88-4.15,3.21-5.1,7.13-6.53,11.89C111,223.55,115.14,218.79,116.5,215.16Z" fill="#633715"/><path d="M130.17,231.52c-1.18,2.66-3.21,6-6.19,6.11a3.44,3.44,0,0,1-.9-.12c-2.91-.77-2.06-3.57-.25-6.65,1.7-2.88,5.63-6.72,8.09-9.13,1.27-4.39,2.81-10.38,3.12-12.46-1.85,3.12-4.85,11.13-8.73,11.93s-4-3.12-3.22-5.73a15.18,15.18,0,0,1,2.69-5.15c1.57-2.16,3.48-.5,3,0a16.39,16.39,0,0,0-3.09,4.36c-.53,1-1.6,4.79-.32,5.36.87.44,2.26-.46,3.29-1.91,2.68-3.67,4.4-7.55,6.6-11.49.21-1.05,3.05-.5,2.91,0-.66,2.56-2.21,8.78-3.21,12.46a38.59,38.59,0,0,0,6.46-8.47c.4-.75.86-.15.47.64a43.64,43.64,0,0,1-7.46,9.87C132.23,225.3,131.13,229.17,130.17,231.52Zm-6.25-.18c-2.69,3.87-1,7.25,1.79,4s3.5-7.91,4.67-11.88A78.1,78.1,0,0,0,123.92,231.34Z" fill="#633715"/><path d="M189.74,185.36c-.39,5.71-2.44,9.6-2.05,15.49.36,4.89,2.37,4.39,4.84,1.43a33.52,33.52,0,0,0,3.72-5.8c.17-.35.81-.22.57.2a32.61,32.61,0,0,1-4.58,7.26c-1.64,1.89-4.8,3.19-6,.59-2-4,.54-14.46,1.23-17.94.45-2.05-.73-2.64-2.18-.72a64,64,0,0,0-6.38,11.8,86.17,86.17,0,0,0-3.65,9.78c-.54,2.07-2.08-.15-1.94-.67,1.1-5.5.74-19.15-4.15-17.86-2.22.58-5.84,4.81-9.33,9.59-.64,2.75-2.4,11.34-5.11,16.48-3.14,6-8.21,4.63-5.94-1,1.91-4.65,7.33-12.83,9.45-15.73l.69-5.82a10.71,10.71,0,0,1-5.14,3.69c-.63.2-.66-.49,0-.69,2.38-.85,4.91-4.21,5.68-7.51.1-.68,2.8-1.54,2.76-.7q-.84,4-1.7,7.92c2.85-3.62,5.63-6.53,7.45-7.09,5.56-1.81,7.43,2.32,7.64,6.38a52.2,52.2,0,0,1-.66,9.59c0,.46-.4,2.3.25.64,1.07-2.56,1.88-5.1,3.05-7.87a89.91,89.91,0,0,1,6.06-12.1C186.49,181.26,190.08,180.89,189.74,185.36Zm-36.42,29.49c1.68-2.64,4-10.57,4.52-13.69a114.37,114.37,0,0,0-7.31,12.15C148.38,217.59,150.58,219,153.32,214.85Z" fill="#633715"/><path d="M203.91,197.44a1.05,1.05,0,0,1,.83-1.63c.76-2.58.27-3.36,0-3.81-.67-1,1.13-2,1.66-.94.89,1.55-.15,4.55-.86,6.11a1,1,0,0,0,1.26.83c1.36-.37,2.5-2.31,3.2-3.42.41-.73.85-1.5,1.18-2.21.16-.35.71-.24.56.2a13.52,13.52,0,0,1-1.11,2.32c-.74,1.38-2.13,3.65-3.79,4.11a1.83,1.83,0,0,1-1.93-.56c-.45.73-.91,1.43-1.38,2.08-1.64,2.12-3.91,2.88-5.47,2.39s-2.4-2.27-2.08-5.07a14.41,14.41,0,0,1,2.8-6.51c1.33-1.81,3.13-3,4.49-2.9a1.58,1.58,0,0,1,1.58,1.66c0,.69-.61.83-.67.49s-.2-1.13-1-.9c-1.87.52-5.22,5.91-5.24,9.9,0,1.71.74,3,2.31,2.55,1.32-.36,2.92-2.24,3.87-4.48C204,197.58,203.93,197.56,203.91,197.44Z" fill="#633715"/><path d="M220.14,184.56a44.53,44.53,0,0,1-4.69,2c-.38,1.15-.77,2-.83,2.42-.84,2.86-1.61,5.39-1.51,6.76,0,1.88,1,2.61,2.32,1.51a30.9,30.9,0,0,0,5.33-7.55c.16-.35.72-.24.57.2a27,27,0,0,1-4.54,7.24c-1.19,1.37-4.17,3.24-5.45,1-.51-.87-.17-3.32.39-5.49-.31.56-.58,1.3-1.3,2.55-.35.57-.87.15-.57-.46,1.18-2.21,2.06-4.07,2.53-5.21,0-.08.26-.86.63-2a5.37,5.37,0,0,1-1,.35c-.43.12-.92-.14-.75-.75.21-.81,1.32-1.11,2.12-1.38,0-.09.07-.1.16-.13.48-1.49,1-3,1.45-4.47.76-2.09.77-2.53,1.35-2.78s1.45-.35,1.78-.05.1,1.38-.09,1.82-.58.55-.74,1.12l-1.44,4.08.55-.2a31,31,0,0,1,4-1.39C220.91,183.6,221.85,183.65,220.14,184.56Z" fill="#633715"/><path d="M223.63,184.17a7,7,0,0,0,.46-1.22c.46-1.7,4-15.75,9.73-16.1,2.51-.19,2.63,1.79,2,3.77-1.59,4.49-6.69,10.24-10.15,14.5a62.71,62.71,0,0,0-1.34,7.15,73.49,73.49,0,0,1,6.46-10c1.71-2,3.27-2.49,3.57-1.22s-.71,3.61-1.14,4.95a14.58,14.58,0,0,0-.65,4.51c0,1.88,1,2.61,2.31,1.53a30.47,30.47,0,0,0,5.34-7.5c.2-.36.71-.23.57.2a27.63,27.63,0,0,1-4.5,7.19c-1.19,1.36-4.21,3.22-5.49.94a4.38,4.38,0,0,1-.39-2c-.1-1.81.72-4.31,1.3-6.09.53-1.58.15-2.49-2.5,1-2,2.83-4.67,9.32-5.4,10-.39.33-2.47,1.95-2.18,1,.15-.7,1.11-6.74,1.81-10.17-.47.91-1.87,3.39-2.81,4.92-.34.58-.51-.38-.22-1,1-1.89,2-3.6,2.68-5.11a.65.65,0,1,1,.37-1.24Zm10.94-14c.72-2.29-.13-3.34-2-1.18-3.33,3.91-5.06,8.63-6.44,14C229.18,179.91,233.27,174.22,234.57,170.15Z" fill="#633715"/><path d="M244,185.64c-.63.2-1-.31-.4-.52,1.34-.47,3.49-2.43,4.85-4.09.63-.73,1.69-2.31,1.45-3.21-.25-1.17-1.67-.15-2.22.3-2.31,1.77-5.37,6.2-5.78,9.51-.46,3.79,2.83,3,5.4,1.18a18.91,18.91,0,0,0,6.4-7.7c.14-.25.35-.31.45-.24s.26.24.13.49a18.39,18.39,0,0,1-6.28,8.15c-4,2.82-9.79,2.54-8.36-3.35.79-3.19,6.44-10.4,9.81-10.16,1.85.15,2,2.36,1.35,3.73C249.61,182.34,245.85,185,244,185.64Z" fill="#633715"/><path d="M253.11,182.26a38.93,38.93,0,0,0,2.93-6.91c-.65.08-1.15-.24-1.06-.79a8.51,8.51,0,0,1,2.83-4.41c1.14-.85,1.95-1.53,1.16.81-.41,1-.81,2-1.21,3a43.21,43.21,0,0,0,4.48-1c2.53-.74,1.76.94.56,3a25.64,25.64,0,0,0-2.76,7.18c-.35,2.06.49,3.08,1.77,2a28.3,28.3,0,0,0,5.29-7.34c.17-.34.76-.22.61.21a25.61,25.61,0,0,1-4.54,7.06,6.6,6.6,0,0,1-3.12,2,1.81,1.81,0,0,1-2.31-1.06c-1.23-2.54,1.05-6.3,2.35-8.28.52-.87,2.16-3.19-.86-2.94a10.19,10.19,0,0,0-2,.26c-1.17,2.52-2.24,5.06-3.58,7.54C253.36,183.24,252.6,183.21,253.11,182.26Z" fill="#633715"/><path d="M270.3,162.15a30.69,30.69,0,0,1-2.24,3.45c-.41.45-.48,0-.51-.14a10.85,10.85,0,0,1,.74-1.36,10,10,0,0,0,1.44-3.7c.23-1.5-.54-1.1-.59-2.14a1.56,1.56,0,0,1,1.08-.69c.68-.15,1.26.64,1.34,1.1A8.7,8.7,0,0,1,270.3,162.15Z" fill="#633715"/><path d="M278.16,182.26c-.5,1,0,1.74,1.53,1,2-1.09,4.76-4.15,4.34-6.6-.2-1.19-2.74-1.58-3.64-2a3.39,3.39,0,0,1-1.71-1.21c-.33.91-.83,2.07-1.41,3.33-.31.55-.88.28-.66-.25a19.36,19.36,0,0,0,1.62-4.47c-.14-3.39,5-7.33,8-7.94,1.91-.38,3.77.17,3.13,2.36a3.56,3.56,0,0,1-1.08,1.7c-.18.21-.78.07-.32-.59.57-.82.87-2.41-.35-2.3a12.5,12.5,0,0,0-4.4,2.3,9.73,9.73,0,0,0-3.14,3.81c-.69,1.41-.37,2.22.94,2.69,3.18,1.08,7,1.37,4.43,5.52A12.65,12.65,0,0,1,280,184c-.78.35-2.53,1-3.15.2-.37-.36-.11-1.16.27-1.81a7.56,7.56,0,0,1,1.83-1.66c.28-.15.43.21.16.4A3.42,3.42,0,0,0,278.16,182.26Z" fill="#633715"/><path d="M304.69,166.75c.6.17.41.59-.19.65-1.51.11-5.36-.58-5.41-3.24,0-.13-.17-.45-.21-.66C297.12,153,321.43,146,329.5,151.28A9.93,9.93,0,0,1,334,158.2c1.54,9.24-6.32,16.88-15,18a13.7,13.7,0,0,1-8.07-1.1c-.17.33-1.23,4.12-2.38,4.3-2.17.34-3.07-2.93-3.18-3.56a28.77,28.77,0,0,1-.39-4.63,2.66,2.66,0,0,0-.54-1.13.93.93,0,0,1,.15-.9c.38-.37,1.38-.89,1.72-.72s.23.31.07.95a1.94,1.94,0,0,0-.11,1.42c.17,1,3.31,2.76,3.49,2.78.42-1.9,2-7.53,2.74-10.09.37-1.19.12-1.59,0-1.79,0-1.45,3.39-7.28,5.61-7.57.51-.07,2.37.13,2.77,1.22.13.55-.19.15-.49.19-4,.5-8.07,14.59-9.21,18.7,6.94,3.62,15.22-1.85,18.6-7.47,5-8.28,1.69-17.63-9.81-16.56-9.23.92-20.43,8.27-19.42,14.23C301,166.63,303.63,166.44,304.69,166.75Zm1.72,5.76a28.92,28.92,0,0,0,1.18,4.89c1,2.57,1.73-2.15,1.86-2.69C308.72,174.25,307.3,173.07,306.41,172.51Z" fill="#633715"/><path d="M335.79,171.79c-3.83-3.79,4.79-11.1,7.85-12a5.54,5.54,0,0,1,4.32.12,1.79,1.79,0,0,1,.91,1.14c.06.3,0,.3-.21.22a2.57,2.57,0,0,0-2.27-.72c-2.21.12-4.9,2-6.78,4.2-1,1.2-3.85,5.59-2.21,7.39.74.81,2.56-.9,3.08-1.41A51.76,51.76,0,0,0,344,166.6c.49-.69,3.11-4.51,3.5-4.52s2.14.25,1.87,1a14.64,14.64,0,0,0-1.5,6.42c.05,1.88,1.07,2.84,2.31,2a20.91,20.91,0,0,0,5.34-6.25c.16-.31.71-.06.56.34a18.8,18.8,0,0,1-4.54,6.12c-1.19,1.09-4.16,2.28-5.45-.28-.58-1.15-.5-3.78-.2-5.33-.66.39-3.7,6.68-7.1,6.94A4.2,4.2,0,0,1,335.79,171.79Z" fill="#633715"/><path d="M363.1,183.48c-1.18,2.4-3.2,5.33-6.18,4.86a4.23,4.23,0,0,1-.91-.29c-2.9-1.29-2.06-3.94-.25-6.69,1.71-2.59,5.64-5.65,8.09-7.51A119,119,0,0,0,367,162.11c-1.85,2.68-4.85,10-8.72,10s-4.06-3.85-3.23-6.33a11.89,11.89,0,0,1,2.69-4.65c1.57-1.87,3.49.18,3,.62a12.09,12.09,0,0,0-3.08,3.76c-.53.93-1.61,4.49-.32,5.3.87.6,2.25,0,3.29-1.26,2.68-3.12,4.4-6.61,6.59-10,.22-1,3.05.24,2.92.72-.67,2.39-2.21,8.22-3.21,11.66a27.55,27.55,0,0,0,6.46-6.81c.4-.64.85.08.46.76a31.06,31.06,0,0,1-7.46,8A101.1,101.1,0,0,1,363.1,183.48ZM356.85,182c-2.68,3.39-1,7.06,1.8,4.4s3.49-7.2,4.67-10.92A52.53,52.53,0,0,0,356.85,182Z" fill="#633715"/><path d="M250.53,127.32c.64,0,3.15-4.95,3.09,6.36,0,3.83-1.32,6.4-3.09,6.4s-3.06-3.15-3-7C247.61,123.13,249.88,127.32,250.53,127.32Z" fill="#ffab00" fill-rule="evenodd"/><path d="M259.11,131c.46.47,5.56-1.16-2.09,6.79-2.59,2.69-5.23,3.55-6.48,2.23s0-4.51,2.55-7.19C259.86,125.9,258.66,130.56,259.11,131Z" fill="#ffab00" fill-rule="evenodd"/><path d="M262.69,140.05c0,.68,4.7,3.32-6,3.25-3.64,0-6.09-1.38-6.09-3.25s3-3.22,6.64-3.18C266.67,137,262.69,139.37,262.69,140.05Z" fill="#ffab00" fill-rule="evenodd"/><path d="M259.16,149.08c-.45.48,1.1,5.85-6.46-2.2-2.56-2.72-3.37-5.5-2.12-6.82s4.29-.05,6.84,2.69C264,149.87,259.62,148.6,259.16,149.08Z" fill="#ffab00" fill-rule="evenodd"/><path d="M250.59,152.85c-.64,0-3.15,5-3.08-6.36,0-3.83,1.31-6.41,3.08-6.41s3.06,3.16,3,7C253.52,157,251.24,152.85,250.59,152.85Z" fill="#ffab00" fill-rule="evenodd"/><path d="M242,149.13c-.46-.48-5.56,1.16,2.09-6.79,2.59-2.69,5.23-3.55,6.48-2.23s0,4.51-2.55,7.19C241.26,154.27,242.46,149.61,242,149.13Z" fill="#ffab00" fill-rule="evenodd"/><path d="M238.43,140.12c0-.68-4.7-3.32,6-3.25,3.65,0,6.09,1.38,6.09,3.25s-3,3.22-6.64,3.18C234.45,143.19,238.43,140.8,238.43,140.12Z" fill="#ffab00" fill-rule="evenodd"/><path d="M242,131.09c.45-.48-1.1-5.85,6.46,2.19,2.56,2.73,3.37,5.51,2.12,6.83s-4.29,0-6.83-2.69C237.08,130.3,241.51,131.56,242,131.09Z" fill="#ffab00" fill-rule="evenodd"/><path d="M250.56,136.53a3.56,3.56,0,1,1-3.62,3.55A3.59,3.59,0,0,1,250.56,136.53Z" fill="#ff5c40" fill-rule="evenodd"/><path d="M290.3,201.68c.61,0,3-4.74,3,6.1,0,3.68-1.26,6.15-3,6.15s-2.94-3-2.9-6.7C287.49,197.67,289.68,201.68,290.3,201.68Z" fill="#ffab00" fill-rule="evenodd"/><path d="M298.53,205.25c.44.45,5.34-1.11-2,6.51-2.49,2.59-5,3.41-6.22,2.14s-.05-4.32,2.45-6.89C299.25,200.32,298.1,204.79,298.53,205.25Z" fill="#ffab00" fill-rule="evenodd"/><path d="M302,213.89c0,.65,4.52,3.19-5.79,3.12-3.5,0-5.84-1.32-5.84-3.12s2.88-3.09,6.37-3C305.78,210.94,302,213.24,302,213.89Z" fill="#ffab00" fill-rule="evenodd"/><path d="M298.58,222.56c-.44.46,1.05,5.61-6.19-2.11-2.46-2.61-3.24-5.28-2-6.55s4.11,0,6.56,2.58C303.26,223.31,299,222.1,298.58,222.56Z" fill="#ffab00" fill-rule="evenodd"/><path d="M290.36,226.17c-.61,0-3,4.75-3-6.1,0-3.68,1.26-6.14,3-6.14s2.94,3,2.9,6.7C293.16,230.19,291,226.17,290.36,226.17Z" fill="#ffab00" fill-rule="evenodd"/><path d="M282.13,222.61c-.44-.46-5.34,1.1,2-6.52,2.48-2.58,5-3.41,6.22-2.14s0,4.32-2.45,6.89C281.41,227.53,282.56,223.07,282.13,222.61Z" fill="#ffab00" fill-rule="evenodd"/><path d="M278.69,214c0-.65-4.51-3.18,5.8-3.12,3.49,0,5.84,1.33,5.84,3.12s-2.88,3.09-6.37,3C274.88,216.91,278.69,214.61,278.69,214Z" fill="#ffab00" fill-rule="evenodd"/><path d="M282.08,205.29c.44-.46-1.05-5.61,6.19,2.11,2.46,2.62,3.24,5.28,2,6.55s-4.11,0-6.56-2.58C277.4,204.54,281.64,205.75,282.08,205.29Z" fill="#ffab00" fill-rule="evenodd"/><path d="M290.33,210.52a3.41,3.41,0,1,1-3.48,3.41A3.44,3.44,0,0,1,290.33,210.52Z" fill="#ff5c40" fill-rule="evenodd"/><path d="M149.55,239.17c.62,0,3-4.75,3,6.1,0,3.67-1.25,6.14-3,6.14s-2.94-3-2.9-6.7C146.75,235.15,148.93,239.17,149.55,239.17Z" fill="#ffab00" fill-rule="evenodd"/><path d="M157.79,242.73c.43.46,5.33-1.1-2,6.52-2.48,2.58-5,3.41-6.22,2.14s0-4.33,2.45-6.9C158.5,237.8,157.35,242.27,157.79,242.73Z" fill="#ffab00" fill-rule="evenodd"/><path d="M161.22,251.38c0,.65,4.51,3.18-5.8,3.11-3.49,0-5.84-1.32-5.84-3.11s2.88-3.09,6.37-3C165,248.43,161.22,250.73,161.22,251.38Z" fill="#ffab00" fill-rule="evenodd"/><path d="M157.83,260c-.44.46,1,5.61-6.19-2.1-2.46-2.62-3.24-5.28-2-6.55s4.11,0,6.56,2.58C162.51,260.8,158.27,259.58,157.83,260Z" fill="#ffab00" fill-rule="evenodd"/><path d="M149.61,263.65c-.61,0-3,4.75-3-6.1,0-3.67,1.26-6.14,3-6.14s2.94,3,2.9,6.7C152.42,267.67,150.23,263.65,149.61,263.65Z" fill="#ffab00" fill-rule="evenodd"/><path d="M141.38,260.09c-.44-.46-5.33,1.11,2-6.52,2.49-2.58,5-3.4,6.22-2.13s.05,4.32-2.45,6.89C140.66,265,141.81,260.55,141.38,260.09Z" fill="#ffab00" fill-rule="evenodd"/><path d="M138,251.45c0-.65-4.52-3.19,5.79-3.12,3.5,0,5.84,1.32,5.84,3.12s-2.87,3.08-6.37,3.05C134.13,254.39,138,252.09,138,251.45Z" fill="#ffab00" fill-rule="evenodd"/><path d="M141.33,242.78c.44-.46-1.05-5.61,6.2,2.11,2.45,2.61,3.24,5.28,2,6.55s-4.11,0-6.55-2.59C136.65,242,140.9,243.24,141.33,242.78Z" fill="#ffab00" fill-rule="evenodd"/><path d="M149.58,248a3.41,3.41,0,1,1-3.47,3.41A3.45,3.45,0,0,1,149.58,248Z" fill="#ff5c40" fill-rule="evenodd"/><path d="M118.44,149.94c.78,0,3.81-6,3.73,7.68,0,4.62-1.58,7.73-3.73,7.73s-3.69-3.81-3.65-8.44C114.92,144.88,117.67,149.94,118.44,149.94Z" fill="#ffab00" fill-rule="evenodd"/><path d="M128.81,154.42c.55.58,6.71-1.39-2.52,8.21-3.13,3.25-6.32,4.29-7.83,2.69s-.06-5.44,3.08-8.68C129.72,148.22,128.26,153.85,128.81,154.42Z" fill="#ffab00" fill-rule="evenodd"/><path d="M133.13,165.31c0,.81,5.68,4-7.3,3.92-4.39,0-7.35-1.66-7.35-3.92s3.62-3.89,8-3.84C137.94,161.59,133.13,164.49,133.13,165.31Z" fill="#ffab00" fill-rule="evenodd"/><path d="M128.87,176.22c-.55.57,1.32,7.06-7.8-2.66-3.09-3.29-4.08-6.64-2.56-8.24s5.18-.06,8.25,3.25C134.76,177.17,129.42,175.64,128.87,176.22Z" fill="#ffab00" fill-rule="evenodd"/><path d="M118.52,180.76c-.77,0-3.81,6-3.72-7.68,0-4.62,1.58-7.73,3.72-7.73s3.7,3.81,3.65,8.43C122.05,185.82,119.3,180.76,118.52,180.76Z" fill="#ffab00" fill-rule="evenodd"/><path d="M108.16,176.28c-.55-.58-6.71,1.39,2.52-8.21,3.13-3.25,6.31-4.29,7.83-2.69s.06,5.44-3.09,8.68C107.25,182.48,108.71,176.85,108.16,176.28Z" fill="#ffab00" fill-rule="evenodd"/><path d="M103.84,165.39c0-.81-5.68-4,7.3-3.92,4.39,0,7.34,1.66,7.34,3.92s-3.62,3.89-8,3.84C99,169.1,103.84,166.21,103.84,165.39Z" fill="#ffab00" fill-rule="evenodd"/><path d="M108.1,154.48c.55-.57-1.32-7.06,7.8,2.66,3.09,3.29,4.07,6.64,2.56,8.24s-5.18.06-8.25-3.25C102.21,153.53,107.55,155.06,108.1,154.48Z" fill="#ffab00" fill-rule="evenodd"/><ellipse cx="118.48" cy="165.35" rx="4.38" ry="4.29" fill="#ff5c40"/><path d="M188.78,142.82c.56,0,2.74-4.3,2.68,5.54,0,3.33-1.14,5.56-2.68,5.56s-2.67-2.74-2.63-6.07C186.24,139.18,188.22,142.82,188.78,142.82Z" fill="#ffab00" fill-rule="evenodd"/><path d="M196.24,146.05c.4.42,4.84-1-1.81,5.91-2.26,2.34-4.55,3.09-5.65,1.94s0-3.92,2.23-6.25C196.9,141.59,195.85,145.64,196.24,146.05Z" fill="#ffab00" fill-rule="evenodd"/><path d="M199.35,153.89c0,.59,4.1,2.89-5.25,2.83-3.17,0-5.29-1.2-5.29-2.83s2.6-2.8,5.77-2.76C202.82,151.22,199.35,153.31,199.35,153.89Z" fill="#ffab00" fill-rule="evenodd"/><path d="M196.29,161.75c-.4.42,1,5.09-5.62-1.91-2.23-2.37-2.94-4.79-1.84-5.94s3.72,0,5.94,2.34C200.53,162.44,196.68,161.33,196.29,161.75Z" fill="#ffab00" fill-rule="evenodd"/><path d="M188.83,165c-.55,0-2.74,4.31-2.68-5.53,0-3.33,1.14-5.57,2.68-5.57s2.67,2.75,2.63,6.08C191.38,168.67,189.39,165,188.83,165Z" fill="#ffab00" fill-rule="evenodd"/><path d="M181.37,161.79c-.4-.41-4.84,1,1.81-5.9,2.26-2.35,4.55-3.09,5.65-1.94s0,3.92-2.23,6.25C180.72,166.26,181.76,162.21,181.37,161.79Z" fill="#ffab00" fill-rule="evenodd"/><path d="M178.26,154c0-.59-4.1-2.89,5.25-2.83,3.17,0,5.3,1.2,5.3,2.83s-2.61,2.8-5.78,2.76C174.79,156.63,178.26,154.54,178.26,154Z" fill="#ffab00" fill-rule="evenodd"/><path d="M181.33,146.1c.39-.42-1-5.09,5.61,1.91,2.23,2.37,2.94,4.79,1.84,5.94s-3.72,0-5.94-2.34C177.08,145.41,180.93,146.51,181.33,146.1Z" fill="#ffab00" fill-rule="evenodd"/><path d="M188.81,150.83a3.1,3.1,0,1,1-3.16,3.09A3.12,3.12,0,0,1,188.81,150.83Z" fill="#ff5c40" fill-rule="evenodd"/><path d="M194.12,233.21c.78,0,3.81-6,3.73,7.68,0,4.63-1.58,7.73-3.73,7.73s-3.69-3.81-3.65-8.43C190.59,228.16,193.35,233.21,194.12,233.21Z" fill="#ffab00" fill-rule="evenodd"/><path d="M204.49,237.7c.55.57,6.71-1.4-2.52,8.2-3.13,3.25-6.32,4.29-7.84,2.69s0-5.44,3.09-8.68C205.39,231.5,203.94,237.12,204.49,237.7Z" fill="#ffab00" fill-rule="evenodd"/><path d="M208.81,248.58c0,.82,5.68,4-7.3,3.92-4.4,0-7.35-1.66-7.35-3.92s3.62-3.89,8-3.84C213.61,244.87,208.81,247.76,208.81,248.58Z" fill="#ffab00" fill-rule="evenodd"/><path d="M204.55,259.49c-.55.58,1.32,7.06-7.8-2.66-3.09-3.29-4.08-6.64-2.56-8.24s5.17-.05,8.25,3.25C210.44,260.44,205.1,258.91,204.55,259.49Z" fill="#ffab00" fill-rule="evenodd"/><path d="M194.2,264c-.77,0-3.81,6-3.73-7.68,0-4.62,1.59-7.73,3.73-7.73s3.7,3.81,3.65,8.44C197.73,269.09,195,264,194.2,264Z" fill="#ffab00" fill-rule="evenodd"/><path d="M183.84,259.55c-.55-.58-6.72,1.39,2.52-8.2,3.13-3.25,6.31-4.29,7.83-2.7s.05,5.45-3.09,8.68C182.93,265.75,184.38,260.13,183.84,259.55Z" fill="#ffab00" fill-rule="evenodd"/><path d="M179.52,248.67c0-.82-5.68-4,7.29-3.93,4.4,0,7.35,1.67,7.35,3.93s-3.62,3.88-8,3.83C174.71,252.38,179.52,249.48,179.52,248.67Z" fill="#ffab00" fill-rule="evenodd"/><path d="M183.78,237.76c.55-.58-1.33-7.06,7.79,2.65,3.09,3.29,4.08,6.65,2.56,8.24s-5.17.06-8.24-3.25C177.88,236.81,183.23,238.33,183.78,237.76Z" fill="#ffab00" fill-rule="evenodd"/><path d="M194.16,244.33a4.29,4.29,0,1,1-4.37,4.29A4.33,4.33,0,0,1,194.16,244.33Z" fill="#ff5c40" fill-rule="evenodd"/><path d="M144.6,125.62c1.61-3.92,6.57-5.6,11.07-3.75s6.86,6.52,5.25,10.44-6.56,5.6-11.07,3.75S143,129.54,144.6,125.62Z" fill="#ed3024" fill-rule="evenodd"/><path d="M160.92,132.31c-1.61,3.92-6.56,5.6-11.07,3.75s-6.85-6.52-5.25-10.44Z" fill="#e02e26" fill-rule="evenodd"/><path d="M144.6,125.62a7.26,7.26,0,0,1,4.85-4.16A11.54,11.54,0,0,1,145.13,132,7.31,7.31,0,0,1,144.6,125.62Z" fill="#404041" fill-rule="evenodd"/><path d="M143.24,125.06a3.58,3.58,0,0,1,.87-1.26,4.4,4.4,0,0,1-.41-1.19,3,3,0,0,1-.09-1s0-.22.19-.11,0,.21.06.52a7.71,7.71,0,0,0,.45,1.65,1.58,1.58,0,0,1,1.54-.31.94.94,0,0,1,.22.12,13.22,13.22,0,0,1-.76,2.47,14.47,14.47,0,0,1-1.19,2.3l-.25-.07A1.5,1.5,0,0,1,143,127a6.55,6.55,0,0,0-1.62.92c-.25.19-.23.35-.42.32s-.05-.21-.05-.21.09-.18.79-.68a4.91,4.91,0,0,1,1.25-.6A3.46,3.46,0,0,1,143.24,125.06Z" fill="#404041" fill-rule="evenodd"/><path d="M147.38,130.68a1.49,1.49,0,1,1,.81,1.94A1.49,1.49,0,0,1,147.38,130.68Z" fill="#404041" fill-rule="evenodd"/><path d="M153.87,133.56a1.4,1.4,0,1,1,.77,1.83A1.41,1.41,0,0,1,153.87,133.56Z" fill="#404041" fill-rule="evenodd"/><path d="M152,129.9a.72.72,0,0,1,.93-.39.71.71,0,0,1,.39.93.71.71,0,1,1-1.32-.54Z" fill="#404041" fill-rule="evenodd"/><path d="M151,124.56a1.2,1.2,0,1,1,.66,1.56A1.21,1.21,0,0,1,151,124.56Z" fill="#404041" fill-rule="evenodd"/><path d="M157.55,127.76a1.57,1.57,0,1,1,.86,2.06A1.58,1.58,0,0,1,157.55,127.76Z" fill="#404041" fill-rule="evenodd"/><path d="M155.34,123.64a.89.89,0,1,1,.48,1.16A.88.88,0,0,1,155.34,123.64Z" fill="#404041" fill-rule="evenodd"/></g></g></svg>