<svg xmlns="http://www.w3.org/2000/svg" viewBox="0 0 442.86 309.13"><g style="isolation:isolate"><g id="Layer_2" data-name="Layer 2"><g id="OBJECTS"><path d="M70.73,82.76C56.84,76.31,49.21,46.37,55.47,45c2-.45,3.44-.27,4.43.66,2.06,1.88,2.4,6.94,3.2,16.17S67,76.39,69,79a12.85,12.85,0,0,0,1.69,1.85C71.12,82.37,70.73,82.76,70.73,82.76Z" fill="#83d6c8"/><path d="M69,79c-4.88-5-16.9-25.74-9.14-33.3,2.06,1.88,2.4,6.94,3.2,16.17S67,76.39,69,79Z" fill="#83d6c8" style="mix-blend-mode:multiply"/><path d="M71.31,95.28C51.36,92.15,38.84,70.44,42,67.89a4.26,4.26,0,0,1,2.19-1.07c2.33-.26,5,2.53,10.33,10.86A48.26,48.26,0,0,0,71.12,93.52Z" fill="#83d6c8"/><path d="M71.31,95.28S48.33,84,44.16,66.82c2.33-.26,5,2.53,10.33,10.86A48.26,48.26,0,0,0,71.12,93.52Z" fill="#83d6c8" style="mix-blend-mode:multiply"/><path d="M72.29,106.63v1.17C54.09,115,35.7,92.35,38.44,89.8A5.75,5.75,0,0,1,40,88.71c2.08-.92,4.49.81,12.38,7.75A43.55,43.55,0,0,0,72.29,106.63Z" fill="#83d6c8"/><path d="M72.29,106.63v.74c-5.63-.93-25-5.1-32.34-18.66,2.08-.92,4.49.81,12.38,7.75A43.55,43.55,0,0,0,72.29,106.63Z" fill="#83d6c8" style="mix-blend-mode:multiply"/><path d="M73.14,120.36l.3,1.13C57.72,133.18,34.1,116,36.09,112.83a5.52,5.52,0,0,1,1.18-1.44c1.77-1.43,4.54-.38,14,4.29A43.62,43.62,0,0,0,73.14,120.36Z" fill="#83d6c8"/><path d="M73.14,120.36l.19.71c-5.68.56-25.48,1.53-36.06-9.68,1.77-1.43,4.54-.38,14,4.29A43.62,43.62,0,0,0,73.14,120.36Z" fill="#83d6c8" style="mix-blend-mode:multiply"/><path d="M75.48,138.16l.31,1.13c-15.72,11.69-39.34-5.48-37.35-8.65a5.6,5.6,0,0,1,1.17-1.45c1.78-1.42,4.55-.37,14,4.3A43.55,43.55,0,0,0,75.48,138.16Z" fill="#83d6c8"/><path d="M75.48,138.16l.19.72c-5.68.55-25.47,1.52-36.06-9.69,1.78-1.42,4.55-.37,14,4.3A43.55,43.55,0,0,0,75.48,138.16Z" fill="#83d6c8" style="mix-blend-mode:multiply"/><path d="M84.9,169.77l.55,1c-12.56,15-39.53,3.82-38.33.27a5.77,5.77,0,0,1,.8-1.67c1.4-1.8,4.34-1.43,14.58.92A43.54,43.54,0,0,0,84.9,169.77Z" fill="#83d6c8"/><path d="M84.9,169.77l.35.66c-5.4,1.86-24.43,7.41-37.33-1,1.4-1.8,4.34-1.43,14.58.92A43.54,43.54,0,0,0,84.9,169.77Z" fill="#83d6c8" style="mix-blend-mode:multiply"/><path d="M79.25,153.14l.45,1.08c-14.06,13.64-39.72-.31-38.16-3.71a5.69,5.69,0,0,1,1-1.59c1.57-1.64,4.46-1,14.4,2.44A43.57,43.57,0,0,0,79.25,153.14Z" fill="#83d6c8"/><path d="M79.25,153.14l.29.68c-5.56,1.29-25.07,4.84-37-4.9,1.57-1.64,4.46-1,14.4,2.44A43.57,43.57,0,0,0,79.25,153.14Z" fill="#83d6c8" style="mix-blend-mode:multiply"/><path d="M71.73,95.51C90.24,87.45,96.88,63.28,93.21,61.6a4.28,4.28,0,0,0-2.39-.48c-2.32.34-4.17,3.7-7.26,13.12A48.27,48.27,0,0,1,71.47,93.76Z" fill="#83d6c8"/><path d="M71.73,95.51s19.4-16.68,19.09-34.39c-2.32.34-4.17,3.7-7.26,13.12A48.27,48.27,0,0,1,71.47,93.76Z" fill="#83d6c8" style="mix-blend-mode:multiply"/><path d="M71.69,106.16l.29,1.13c19.44,2.41,31.51-24.19,28.21-26a5.48,5.48,0,0,0-1.73-.67c-2.25-.37-4.14,1.91-10,10.62A43.58,43.58,0,0,1,71.69,106.16Z" fill="#83d6c8"/><path d="M71.69,106.16l.19.71c5.21-2.32,22.91-11.24,26.58-26.21-2.25-.37-4.14,1.91-10,10.62A43.58,43.58,0,0,1,71.69,106.16Z" fill="#83d6c8" style="mix-blend-mode:multiply"/><path d="M72,118.48v1.17c18.16,7.34,36.68-15.24,34-17.8a5.58,5.58,0,0,0-1.51-1.1c-2.07-.94-4.49.78-12.42,7.67A43.52,43.52,0,0,1,72,118.48Z" fill="#83d6c8"/><path d="M72,118.48v.74c5.63-.9,25-5,32.44-18.47-2.07-.94-4.49.78-12.42,7.67A43.52,43.52,0,0,1,72,118.48Z" fill="#83d6c8" style="mix-blend-mode:multiply"/><path d="M75.39,138.59l.13,1.16c18.87,5.23,34.71-19.31,31.71-21.55a5.65,5.65,0,0,0-1.62-.92c-2.17-.69-4.38,1.29-11.47,9A43.58,43.58,0,0,1,75.39,138.59Z" fill="#83d6c8"/><path d="M75.39,138.59l.08.73c5.5-1.53,24.32-7.77,30.14-22-2.17-.69-4.38,1.29-11.47,9A43.58,43.58,0,0,1,75.39,138.59Z" fill="#83d6c8" style="mix-blend-mode:multiply"/><path d="M84.88,169l0,1.17c18.42,6.65,36.07-16.62,33.25-19.08a6,6,0,0,0-1.54-1c-2.11-.85-4.46,1-12.13,8.14A43.59,43.59,0,0,1,84.88,169Z" fill="#83d6c8"/><path d="M84.88,169l0,.74c5.6-1.11,24.84-5.9,31.73-19.69-2.11-.85-4.46,1-12.13,8.14A43.59,43.59,0,0,1,84.88,169Z" fill="#83d6c8" style="mix-blend-mode:multiply"/><path d="M78.73,154l.12,1.16c18.88,5.23,34.71-19.31,31.71-21.55a5.65,5.65,0,0,0-1.62-.92c-2.16-.69-4.37,1.29-11.47,9A43.53,43.53,0,0,1,78.73,154Z" fill="#83d6c8"/><path d="M78.73,154l.08.73c5.5-1.53,24.31-7.77,30.13-22-2.16-.69-4.37,1.29-11.47,9A43.53,43.53,0,0,1,78.73,154Z" fill="#83d6c8" style="mix-blend-mode:multiply"/><path d="M95.18,189.59s-16-22.31-20.54-66.13c-3.76-36.61-.59-56.74-.2-60.26s-2-3.33-2.54.39-4.28,25.74.2,60.26C76.79,160,84.23,173.93,92.84,189.2,92.84,189.2,95.77,190.57,95.18,189.59Z" fill="#83d6c8"/><path d="M73.34,69.31a1.71,1.71,0,0,1-1.5.14A14.36,14.36,0,0,1,71,67.39v0a20.29,20.29,0,0,1,2.09-18c6.65-10.24,14-10.11,14.69-6.22C88.83,49.61,78.3,67,73.34,69.31Z" fill="#83d6c8"/><path d="M80.29,54.79c-2.47,4.94-5.08,11.19-7,14.52a1.71,1.71,0,0,1-1.5.14A14.36,14.36,0,0,1,71,67.39v0c.33-4.45,1.53-12.66,5.92-17.6C83.11,42.74,84.52,46.35,80.29,54.79Z" fill="#83d6c8" style="mix-blend-mode:multiply"/><path d="M113.64,216.52c-4.84-4.84-77.22-62.09-78.78-62.87s-4.7.26-2.35,2.09,80.35,62.61,81.91,63.39S115.21,218.09,113.64,216.52Z" fill="#680e28"/><path d="M136.83,292.08c-1.84.77-17.11-7.07-12.59-10.93s9.47,7,9.75,4.76-2-10.85,3.12-10.77C142.75,275.24,137.93,291.63,136.83,292.08Z" fill="#ed5d7f"/><path d="M103.53,26.48c.36-.91-.39-9.59,7.44-8.81s3.52,9.4,5.08,9.2,8.2-3.77,9.79,1.76c2,6.85-7.44,6.65-6.66,7.44s6.85,5.28,1.37,9.78-10-2.94-10.76-2.55-3.72,8.61-10.37,4.7,1.37-9.59.59-10.37-10.37-1.56-7-8.8S103.14,27.46,103.53,26.48Z" fill="#ed5d7f"/><g opacity="0.33" style="mix-blend-mode:multiply"><path d="M108.17,30.79s-1.41-10.76-.09-10.57,1.66,10.48,1.66,10.48,2-10.83,3.05-10.37S110.46,32,110.46,32,108.24,32,108.17,30.79Z" fill="#680e28"/><path d="M106.05,35.18s-10.77-1.31-10.27-2.54,10.57,1,10.57,1-10-4.61-9.28-5.54,10.69,5.15,10.69,5.15S107.2,35.4,106.05,35.18Z" fill="#680e28"/><path d="M107.91,36s-2.41,10.58-3.58,10,2.08-10.41,2.08-10.41-5.62,9.47-6.46,8.67,6.21-10.11,6.21-10.11S108.25,34.91,107.91,36Z" fill="#680e28"/><path d="M111.82,34.38s8.83,6.31,7.8,7.14-8.8-5.93-8.8-5.93,6.57,8.83,5.5,9.3-6.92-9.63-6.92-9.63S110.91,33.63,111.82,34.38Z" fill="#680e28"/><path d="M113,31.7s9-6.07,9.43-4.81-8.65,6.16-8.65,6.16,10.58-3,10.65-1.89S113,34.27,113,34.27,112,32.28,113,31.7Z" fill="#680e28"/></g><path d="M115.34,33.75a6,6,0,0,1-6,6,6,6,0,0,1-6-6,5.45,5.45,0,0,1,.18-1.41,6,6,0,0,1,11.74,1C115.33,33.45,115.34,33.6,115.34,33.75Z" fill="#680e28"/><path d="M115.32,33.3a6,6,0,0,1-3.7,1.27,6.08,6.08,0,0,1-6-5.44,6,6,0,0,1,9.74,4.17Z" fill="#680e28" opacity="0.37" style="mix-blend-mode:screen"/><path d="M114.25,37.18a6,6,0,0,1-10.85-3.43,5.45,5.45,0,0,1,.18-1.41C104.5,34.61,107.08,38,114.25,37.18Z" fill="#680e28" opacity="0.42" style="mix-blend-mode:multiply"/><path d="M43.16,194.05c.23-.58-.25-6.08,4.71-5.58s2.23,5.95,3.22,5.82,5.2-2.39,6.2,1.12c1.24,4.34-4.71,4.21-4.22,4.71s4.34,3.35.87,6.2-6.32-1.86-6.81-1.61-2.36,5.45-6.57,3,.86-6.07.37-6.57-6.57-1-4.47-5.58S42.91,194.67,43.16,194.05Z" fill="#ed5d7f"/><g opacity="0.33" style="mix-blend-mode:multiply"><path d="M46.1,196.78s-.89-6.82-.06-6.7,1.05,6.64,1.05,6.64,1.26-6.86,1.94-6.57-1.48,7.37-1.48,7.37S46.14,197.52,46.1,196.78Z" fill="#680e28"/><path d="M44.76,199.56s-6.83-.83-6.51-1.61,6.7.64,6.7.64-6.34-2.93-5.89-3.51,6.78,3.26,6.78,3.26S45.49,199.7,44.76,199.56Z" fill="#680e28"/><path d="M45.93,200.1s-1.53,6.71-2.27,6.31,1.32-6.6,1.32-6.6-3.56,6-4.09,5.49,3.94-6.4,3.94-6.4S46.15,199.39,45.93,200.1Z" fill="#680e28"/><path d="M48.41,199.05s5.6,4,4.94,4.53-5.57-3.76-5.57-3.76,4.16,5.59,3.48,5.89-4.38-6.1-4.38-6.1S47.83,198.58,48.41,199.05Z" fill="#680e28"/><path d="M49.16,197.35s5.7-3.84,6-3-5.48,3.9-5.48,3.9,6.7-1.94,6.75-1.2-7.26,2-7.26,2S48.51,197.72,49.16,197.35Z" fill="#680e28"/></g><path d="M50.64,198.65a3.69,3.69,0,0,1-.69,2.17,3.78,3.78,0,0,1-6.87-2.17,3.24,3.24,0,0,1,.11-.89,3.78,3.78,0,0,1,7.44.61C50.63,198.46,50.64,198.56,50.64,198.65Z" fill="#680e28"/><path d="M50.63,198.37a3.84,3.84,0,0,1-6.17-2.65,3.79,3.79,0,0,1,6.17,2.65Z" fill="#680e28" opacity="0.37" style="mix-blend-mode:screen"/><path d="M50,200.82a3.78,3.78,0,0,1-6.87-2.17,3.24,3.24,0,0,1,.11-.89C43.77,199.2,45.41,201.33,50,200.82Z" fill="#680e28" opacity="0.42" style="mix-blend-mode:multiply"/><path d="M17.39,77.34s4.8-17.27,8-15.77-6.6,17-6.6,17Z" fill="#fcdf65"/><path d="M17.39,77.07s5.93-13.83,7-13.4-5.51,14-5.51,14Z" fill="#e8b12a" opacity="0.46" style="mix-blend-mode:multiply"/><path d="M16.78,78.07S7.94,62.48,11.23,61.31,18.59,78,18.59,78Z" fill="#fcdf65"/><path d="M16.59,77.88S11,63.92,12,63.5s6,13.76,6,13.76Z" fill="#e8b12a" opacity="0.46" style="mix-blend-mode:multiply"/><path d="M19.05,78.18s17,5.56,15.4,8.64-16.66-7.34-16.66-7.34Z" fill="#fcdf65"/><path d="M19.32,78.19s13.55,6.54,13.08,7.53-13.71-6.11-13.71-6.11Z" fill="#e8b12a" opacity="0.46" style="mix-blend-mode:multiply"/><path d="M18.34,77.55s16-8.15,17-4.82-17,6.63-17,6.63Z" fill="#fcdf65"/><path d="M18.54,77.37s14.2-5,14.57-4-14,5.41-14,5.41Z" fill="#e8b12a" opacity="0.46" style="mix-blend-mode:multiply"/><path d="M16.07,78.87S-1.21,74.11.29,71s17,6.57,17,6.57Z" fill="#fcdf65"/><path d="M15.8,78.87S2,73,2.39,72s14,5.47,14,5.47Z" fill="#e8b12a" opacity="0.46" style="mix-blend-mode:multiply"/><path d="M16.81,79.47S1.24,88.35.06,85.07s16.63-7.4,16.63-7.4Z" fill="#fcdf65"/><path d="M16.62,79.66S2.67,85.3,2.25,84.28s13.74-6,13.74-6Z" fill="#e8b12a" opacity="0.46" style="mix-blend-mode:multiply"/><path d="M18.11,79.23s-5.69,17-8.76,15.34S16.82,78,16.82,78Z" fill="#fcdf65"/><path d="M18.09,79.5s-6.64,13.5-7.63,13,6.21-13.67,6.21-13.67Z" fill="#e8b12a" opacity="0.46" style="mix-blend-mode:multiply"/><path d="M18.74,78.53s8,16,4.69,17-6.49-17-6.49-17Z" fill="#fcdf65"/><path d="M18.92,78.73S23.81,93,22.77,93.33s-5.3-14-5.3-14Z" fill="#e8b12a" opacity="0.46" style="mix-blend-mode:multiply"/><path d="M20.35,78.19a2.91,2.91,0,0,1-5.81,0,2.82,2.82,0,0,1,.58-1.74,2.92,2.92,0,0,1,5.23,1.74Z" fill="#e8b12a"/><path d="M20.28,77.59a4.1,4.1,0,0,1-2,.49,3.8,3.8,0,0,1-3.2-1.63,2.89,2.89,0,0,1,5.16,1.14Z" fill="#e8b12a" opacity="0.43" style="mix-blend-mode:screen"/><path d="M171.92,284.9s4.81-17.26,8-15.76-6.61,17-6.61,17Z" fill="#fcdf65"/><path d="M171.92,284.63s5.94-13.82,7-13.39-5.5,14-5.5,14Z" fill="#e8b12a" opacity="0.46" style="mix-blend-mode:multiply"/><path d="M171.32,285.64s-8.84-15.59-5.55-16.77,7.36,16.66,7.36,16.66Z" fill="#fcdf65"/><path d="M171.13,285.45s-5.6-14-4.59-14.38,6,13.75,6,13.75Z" fill="#e8b12a" opacity="0.46" style="mix-blend-mode:multiply"/><path d="M173.59,285.75s17,5.56,15.4,8.64-16.66-7.34-16.66-7.34Z" fill="#fcdf65"/><path d="M173.86,285.76s13.55,6.54,13.08,7.53-13.71-6.11-13.71-6.11Z" fill="#e8b12a" opacity="0.46" style="mix-blend-mode:multiply"/><path d="M172.88,285.12s16-8.16,17-4.82-17,6.62-17,6.62Z" fill="#fcdf65"/><path d="M173.08,284.93s14.19-5,14.56-3.95-14,5.41-14,5.41Z" fill="#e8b12a" opacity="0.46" style="mix-blend-mode:multiply"/><path d="M170.61,286.44s-17.28-4.76-15.79-7.92,17,6.56,17,6.56Z" fill="#fcdf65"/><path d="M170.34,286.44s-13.84-5.9-13.41-6.92,14,5.47,14,5.47Z" fill="#e8b12a" opacity="0.46" style="mix-blend-mode:multiply"/><path d="M171.35,287s-15.57,8.88-16.76,5.59,16.64-7.4,16.64-7.4Z" fill="#fcdf65"/><path d="M171.16,287.23s-13.95,5.64-14.37,4.62,13.74-6,13.74-6Z" fill="#e8b12a" opacity="0.46" style="mix-blend-mode:multiply"/><path d="M172.64,286.8s-5.68,17-8.75,15.34,7.46-16.61,7.46-16.61Z" fill="#fcdf65"/><path d="M172.63,287.07s-6.64,13.5-7.63,13,6.21-13.66,6.21-13.66Z" fill="#e8b12a" opacity="0.46" style="mix-blend-mode:multiply"/><path d="M173.28,286.1s8,16,4.69,17-6.5-17-6.5-17Z" fill="#fcdf65"/><path d="M173.46,286.3s4.88,14.23,3.84,14.59-5.29-14-5.29-14Z" fill="#e8b12a" opacity="0.46" style="mix-blend-mode:multiply"/><path d="M174.88,285.76a2.91,2.91,0,0,1-5.81,0,2.83,2.83,0,0,1,.59-1.74,2.89,2.89,0,0,1,5.15,1.13A2.48,2.48,0,0,1,174.88,285.76Z" fill="#e8b12a"/><path d="M174.81,285.15a3.93,3.93,0,0,1-1.95.5,3.79,3.79,0,0,1-3.2-1.63,2.89,2.89,0,0,1,5.15,1.13Z" fill="#e8b12a" opacity="0.43" style="mix-blend-mode:screen"/><path d="M75.14,219.43s4.81-17.27,8-15.77-6.61,17-6.61,17Z" fill="#fcdf65"/><path d="M75.14,219.16s5.94-13.83,7-13.4-5.5,14-5.5,14Z" fill="#e8b12a" opacity="0.46" style="mix-blend-mode:multiply"/><path d="M74.54,220.16S65.7,204.57,69,203.4s7.36,16.65,7.36,16.65Z" fill="#fcdf65"/><path d="M74.35,220s-5.61-14-4.59-14.38,6,13.76,6,13.76Z" fill="#e8b12a" opacity="0.46" style="mix-blend-mode:multiply"/><path d="M76.81,220.27s17,5.56,15.4,8.64-16.66-7.34-16.66-7.34Z" fill="#fcdf65"/><path d="M77.08,220.28s13.55,6.54,13.07,7.53-13.71-6.11-13.71-6.11Z" fill="#e8b12a" opacity="0.46" style="mix-blend-mode:multiply"/><path d="M76.1,219.64s16-8.15,17-4.82-17,6.63-17,6.63Z" fill="#fcdf65"/><path d="M76.3,219.46s14.19-5,14.56-4-14,5.41-14,5.41Z" fill="#e8b12a" opacity="0.46" style="mix-blend-mode:multiply"/><path d="M73.83,221S56.55,216.2,58,213s17,6.57,17,6.57Z" fill="#fcdf65"/><path d="M73.56,221s-13.84-5.9-13.41-6.92,14,5.47,14,5.47Z" fill="#e8b12a" opacity="0.46" style="mix-blend-mode:multiply"/><path d="M74.56,221.56s-15.57,8.88-16.75,5.6,16.64-7.4,16.64-7.4Z" fill="#fcdf65"/><path d="M74.37,221.75S60.43,227.39,60,226.37s13.74-6,13.74-6Z" fill="#e8b12a" opacity="0.46" style="mix-blend-mode:multiply"/><path d="M75.86,221.32s-5.68,17-8.76,15.34,7.47-16.61,7.47-16.61Z" fill="#fcdf65"/><path d="M75.85,221.59s-6.64,13.5-7.63,13S74.43,221,74.43,221Z" fill="#e8b12a" opacity="0.46" style="mix-blend-mode:multiply"/><path d="M76.5,220.62s8,16,4.69,17-6.5-17-6.5-17Z" fill="#fcdf65"/><path d="M76.68,220.82s4.88,14.23,3.84,14.59-5.3-14-5.3-14Z" fill="#e8b12a" opacity="0.46" style="mix-blend-mode:multiply"/><path d="M78.1,220.28a3,3,0,1,1-.07-.6A2.35,2.35,0,0,1,78.1,220.28Z" fill="#e8b12a"/><path d="M78,219.68a4.07,4.07,0,0,1-2,.49,3.8,3.8,0,0,1-3.2-1.63A2.89,2.89,0,0,1,78,219.68Z" fill="#e8b12a" opacity="0.43" style="mix-blend-mode:screen"/><path d="M111.81,211.31c-.93-.54-21.66-23.86-35.33-39.42l-2.25-2.56c-2.55-2.91-4.76-5.43-6.41-7.34s-2.91-3.37-3.16-3.71c-1.76-2.34-.39-3.52,1-2.54.25.18,2,2.1,4.66,5.12,2.9,3.27,6.88,7.82,11.25,12.83l1.93,2.21c13,14.92,28.33,32.67,28.33,32.67C113,210.13,113.18,212.09,111.81,211.31Z" fill="#e8b12a"/><polygon points="87.55 163.18 86.12 167.66 83.48 175.9 83.05 177.26 81.1 175.11 81.55 173.69 83.8 166.62 85.4 161.61 87.55 163.18" fill="#e8b12a"/><polygon points="78.94 171.98 76.48 171.89 68.46 171.6 61.7 171.35 62.12 168.85 68.5 169.1 74.23 169.33 76.99 169.44 78.94 171.98" fill="#e8b12a"/><path d="M70.3,160.86A8.93,8.93,0,0,1,67.82,162c-1.77-2-2.91-3.37-3.16-3.71-1.76-2.34-.39-3.52,1-2.54C65.89,155.92,67.63,157.84,70.3,160.86Z" fill="#e8b12a" style="mix-blend-mode:multiply"/><path d="M68.5,169.1a17.25,17.25,0,0,1,0,2.5l-6.76-.25.42-2.5Z" fill="#e8b12a" style="mix-blend-mode:multiply"/><path d="M87.55,163.18l-1.43,4.48a10.64,10.64,0,0,1-2.32-1l1.6-5Z" fill="#e8b12a" style="mix-blend-mode:multiply"/><path d="M70.14,153.78a7,7,0,1,1-.79-3.24A6.93,6.93,0,0,1,70.14,153.78Z" fill="#fcdf65"/><path d="M96,159.26a7,7,0,1,1-14.09,0,7.06,7.06,0,0,1,7-7,7,7,0,0,1,7,6.34A5.37,5.37,0,0,1,96,159.26Z" fill="#fcdf65"/><path d="M60.09,177a7.06,7.06,0,0,1-7.7-4.24,6.76,6.76,0,0,1-.44-1.51A7,7,0,1,1,60.09,177Z" fill="#fcdf65"/><path d="M69.35,150.54a8,8,0,0,1-12.94,1,7,7,0,0,1,12.94-1Z" fill="#fcdf65" style="mix-blend-mode:screen"/><path d="M60,164.74a8,8,0,0,1-7.58,8,6.76,6.76,0,0,1-.44-1.51,7,7,0,0,1,7.84-8.18A7.72,7.72,0,0,1,60,164.74Z" fill="#fcdf65" style="mix-blend-mode:screen"/><path d="M95.93,158.56a8,8,0,0,1-12.26-4,7,7,0,0,1,12.26,4Z" fill="#fcdf65" style="mix-blend-mode:screen"/><path d="M25.73,150.78c-3-.88-12.61-6.12-16.54-11.66-1.85-2.62-2.44-5.31-.48-7.64,2.95-3.51,6.62-3.72,9.94-2.75a15.07,15.07,0,0,1,1.47.52,26.23,26.23,0,0,1,7.42,4.83h0C30.42,146.35,30.16,152.09,25.73,150.78Z" fill="#c64469"/><path d="M25.73,150.78c-3-.88-12.61-6.12-16.54-11.66,6-1,13.06,4.52,12-1a65.15,65.15,0,0,1-1.11-8.88,26.23,26.23,0,0,1,7.42,4.83h0C30.42,146.35,30.16,152.09,25.73,150.78Z" fill="#c64469" opacity="0.39" style="mix-blend-mode:multiply"/><path d="M34.45,152.85h0a2.19,2.19,0,0,1-.64.9.51.51,0,0,1-.13.09.91.91,0,0,1-.42.11c-.82,0-1.91-.93-3.07-2.47-.44-.6-.9-1.29-1.37-2.05h0c-4.63-7.66-9.24-22.41-2.17-23a4.87,4.87,0,0,1,1.33.07C35.79,128,36.71,147.93,34.45,152.85Z" fill="#ed5d7f"/><path d="M33.26,154c-1.66,4.49-29.73,1.1-27.44-7.59,0-.09,0-.19.08-.28,2.31-6.93,15.75-1.17,22.91,3.34h0a24,24,0,0,1,3.81,2.81,2.39,2.39,0,0,1,.66.88A1.3,1.3,0,0,1,33.26,154Z" fill="#ed5d7f"/><path d="M34.45,152.85h0a2.19,2.19,0,0,1-.64.9c-.11-.37-.25-.78-.4-1.25-1.94-6.11-6.2-20.4-5.44-26C35.79,128,36.71,147.93,34.45,152.85Z" fill="#c64469"/><path d="M34.45,152.85h0a2.19,2.19,0,0,1-.64.9.51.51,0,0,1-.13.09.91.91,0,0,1-.42.11c-1.66,4.49-29.73,1.1-27.44-7.59,5.9-.25,16.8,2.75,24.37,5.12l2.44.76.78.26Z" fill="#c64469"/><path d="M366.69,82.76C380.58,76.31,388.21,46.37,382,45c-2-.45-3.44-.27-4.43.66-2.06,1.88-2.4,6.94-3.2,16.17S370.38,76.39,368.38,79a12.85,12.85,0,0,1-1.69,1.85C366.3,82.37,366.69,82.76,366.69,82.76Z" fill="#83d6c8"/><path d="M368.38,79c4.88-5,16.9-25.74,9.14-33.3-2.06,1.88-2.4,6.94-3.2,16.17S370.38,76.39,368.38,79Z" fill="#83d6c8" style="mix-blend-mode:multiply"/><path d="M366.11,95.28c19.95-3.13,32.47-24.84,29.34-27.39a4.26,4.26,0,0,0-2.19-1.07c-2.33-.26-5,2.53-10.33,10.86A48.26,48.26,0,0,1,366.3,93.52Z" fill="#83d6c8"/><path d="M366.11,95.28s23-11.25,27.15-28.46c-2.33-.26-5,2.53-10.33,10.86A48.26,48.26,0,0,1,366.3,93.52Z" fill="#83d6c8" style="mix-blend-mode:multiply"/><path d="M365.13,106.63v1.17c18.2,7.24,36.59-15.45,33.85-18a5.75,5.75,0,0,0-1.51-1.09c-2.08-.92-4.49.81-12.38,7.75A43.55,43.55,0,0,1,365.13,106.63Z" fill="#83d6c8"/><path d="M365.13,106.63v.74c5.63-.93,25-5.1,32.34-18.66-2.08-.92-4.49.81-12.38,7.75A43.55,43.55,0,0,1,365.13,106.63Z" fill="#83d6c8" style="mix-blend-mode:multiply"/><path d="M364.28,120.36l-.3,1.13c15.72,11.69,39.34-5.49,37.35-8.66a5.72,5.72,0,0,0-1.18-1.44c-1.77-1.43-4.54-.38-14,4.29A43.63,43.63,0,0,1,364.28,120.36Z" fill="#83d6c8"/><path d="M364.28,120.36l-.19.71c5.68.56,25.48,1.53,36.06-9.68-1.77-1.43-4.54-.38-14,4.29A43.63,43.63,0,0,1,364.28,120.36Z" fill="#83d6c8" style="mix-blend-mode:multiply"/><path d="M361.94,138.16l-.31,1.13C377.35,151,401,133.81,399,130.64a5.42,5.42,0,0,0-1.18-1.45c-1.77-1.42-4.54-.37-14,4.3A43.51,43.51,0,0,1,361.94,138.16Z" fill="#83d6c8"/><path d="M361.94,138.16l-.19.72c5.67.55,25.47,1.52,36.05-9.69-1.77-1.42-4.54-.37-14,4.3A43.51,43.51,0,0,1,361.94,138.16Z" fill="#83d6c8" style="mix-blend-mode:multiply"/><path d="M352.52,169.77l-.55,1c12.56,15,39.53,3.82,38.33.27a5.53,5.53,0,0,0-.81-1.67c-1.39-1.8-4.33-1.43-14.57.92A43.54,43.54,0,0,1,352.52,169.77Z" fill="#83d6c8"/><path d="M352.52,169.77l-.35.66c5.4,1.86,24.43,7.41,37.32-1-1.39-1.8-4.33-1.43-14.57.92A43.54,43.54,0,0,1,352.52,169.77Z" fill="#83d6c8" style="mix-blend-mode:multiply"/><path d="M358.17,153.14l-.45,1.08c14.06,13.64,39.72-.31,38.16-3.71a5.69,5.69,0,0,0-1-1.59c-1.57-1.64-4.46-1-14.4,2.44A43.57,43.57,0,0,1,358.17,153.14Z" fill="#83d6c8"/><path d="M358.17,153.14l-.29.68c5.56,1.29,25.07,4.84,37-4.9-1.57-1.64-4.46-1-14.4,2.44A43.57,43.57,0,0,1,358.17,153.14Z" fill="#83d6c8" style="mix-blend-mode:multiply"/><path d="M365.69,95.51c-18.51-8.06-25.15-32.23-21.48-33.91a4.28,4.28,0,0,1,2.39-.48c2.32.34,4.17,3.7,7.26,13.12A48.15,48.15,0,0,0,366,93.76Z" fill="#83d6c8"/><path d="M365.69,95.51s-19.4-16.68-19.09-34.39c2.32.34,4.17,3.7,7.26,13.12A48.15,48.15,0,0,0,366,93.76Z" fill="#83d6c8" style="mix-blend-mode:multiply"/><path d="M365.73,106.16l-.29,1.13c-19.44,2.41-31.51-24.19-28.21-26a5.48,5.48,0,0,1,1.73-.67c2.25-.37,4.14,1.91,10,10.62A43.64,43.64,0,0,0,365.73,106.16Z" fill="#83d6c8"/><path d="M365.73,106.16l-.19.71c-5.21-2.32-22.91-11.24-26.58-26.21,2.25-.37,4.14,1.91,10,10.62A43.64,43.64,0,0,0,365.73,106.16Z" fill="#83d6c8" style="mix-blend-mode:multiply"/><path d="M365.43,118.48v1.17c-18.16,7.34-36.68-15.24-34-17.8a5.58,5.58,0,0,1,1.51-1.1c2.07-.94,4.49.78,12.42,7.67A43.52,43.52,0,0,0,365.43,118.48Z" fill="#83d6c8"/><path d="M365.43,118.48v.74c-5.63-.9-25-5-32.44-18.47,2.07-.94,4.49.78,12.42,7.67A43.52,43.52,0,0,0,365.43,118.48Z" fill="#83d6c8" style="mix-blend-mode:multiply"/><path d="M362,138.59l-.13,1.16C343,145,327.19,120.44,330.19,118.2a5.65,5.65,0,0,1,1.62-.92c2.17-.69,4.38,1.29,11.47,9A43.58,43.58,0,0,0,362,138.59Z" fill="#83d6c8"/><path d="M362,138.59l-.08.73c-5.5-1.53-24.32-7.77-30.14-22,2.17-.69,4.38,1.29,11.47,9A43.58,43.58,0,0,0,362,138.59Z" fill="#83d6c8" style="mix-blend-mode:multiply"/><path d="M352.54,169l0,1.17c-18.42,6.65-36.07-16.62-33.25-19.08a6,6,0,0,1,1.54-1c2.11-.85,4.46,1,12.13,8.14A43.59,43.59,0,0,0,352.54,169Z" fill="#83d6c8"/><path d="M352.54,169l0,.74c-5.6-1.11-24.84-5.9-31.73-19.69,2.11-.85,4.46,1,12.13,8.14A43.59,43.59,0,0,0,352.54,169Z" fill="#83d6c8" style="mix-blend-mode:multiply"/><path d="M358.69,154l-.13,1.16c-18.87,5.23-34.7-19.31-31.7-21.55a5.52,5.52,0,0,1,1.62-.92c2.16-.69,4.37,1.29,11.47,9A43.53,43.53,0,0,0,358.69,154Z" fill="#83d6c8"/><path d="M358.69,154l-.08.73c-5.5-1.53-24.31-7.77-30.13-22,2.16-.69,4.37,1.29,11.47,9A43.53,43.53,0,0,0,358.69,154Z" fill="#83d6c8" style="mix-blend-mode:multiply"/><path d="M342.24,189.59s16-22.31,20.54-66.13c3.76-36.61.59-56.74.19-60.26s2-3.33,2.55.39,4.28,25.74-.2,60.26c-4.69,36.19-12.13,50.08-20.74,65.35C344.58,189.2,341.65,190.57,342.24,189.59Z" fill="#83d6c8"/><path d="M364.08,69.31a1.69,1.69,0,0,0,1.49.14,13.59,13.59,0,0,0,.89-2.06v0a20.29,20.29,0,0,0-2.09-18c-6.65-10.24-14.05-10.11-14.69-6.22C348.59,49.61,359.12,67,364.08,69.31Z" fill="#83d6c8"/><path d="M357.13,54.79c2.47,4.94,5.08,11.19,6.95,14.52a1.69,1.69,0,0,0,1.49.14,13.59,13.59,0,0,0,.89-2.06v0c-.33-4.45-1.53-12.66-5.92-17.6C354.31,42.74,352.9,46.35,357.13,54.79Z" fill="#83d6c8" style="mix-blend-mode:multiply"/><path d="M323.78,216.52c4.84-4.84,77.22-62.09,78.78-62.87s4.7.26,2.35,2.09S324.56,218.35,323,219.13,322.21,218.09,323.78,216.52Z" fill="#680e28"/><path d="M300.59,292.08c1.84.77,17.11-7.07,12.59-10.93s-9.47,7-9.75,4.76,2-10.85-3.12-10.77C294.67,275.24,299.49,291.63,300.59,292.08Z" fill="#ed5d7f"/><path d="M333.89,26.48c-.37-.91.39-9.59-7.44-8.81s-3.52,9.4-5.08,9.2-8.21-3.77-9.79,1.76c-1.95,6.85,7.44,6.65,6.66,7.44s-6.85,5.28-1.37,9.78,10-2.94,10.76-2.55S331.34,51.91,338,48s-1.37-9.59-.59-10.37,10.37-1.56,7-8.8S334.28,27.46,333.89,26.48Z" fill="#ed5d7f"/><g opacity="0.33" style="mix-blend-mode:multiply"><path d="M329.25,30.79s1.4-10.76.09-10.57-1.66,10.48-1.66,10.48-2-10.83-3.05-10.37S327,32,327,32,329.18,32,329.25,30.79Z" fill="#680e28"/><path d="M331.37,35.18s10.77-1.31,10.27-2.54-10.57,1-10.57,1,10-4.61,9.28-5.54-10.69,5.15-10.69,5.15S330.22,35.4,331.37,35.18Z" fill="#680e28"/><path d="M329.51,36s2.41,10.58,3.58,10S331,35.58,331,35.58s5.62,9.47,6.46,8.67-6.21-10.11-6.21-10.11S329.17,34.91,329.51,36Z" fill="#680e28"/><path d="M325.6,34.38s-8.83,6.31-7.8,7.14,8.8-5.93,8.8-5.93-6.57,8.83-5.51,9.3S328,35.26,328,35.26,326.51,33.63,325.6,34.38Z" fill="#680e28"/><path d="M324.42,31.7s-9-6.07-9.43-4.81,8.65,6.16,8.65,6.16S313.06,30,313,31.16s11.45,3.11,11.45,3.11S325.43,32.28,324.42,31.7Z" fill="#680e28"/></g><path d="M322.08,33.75a6,6,0,0,0,6,6,6,6,0,0,0,6-6,5.45,5.45,0,0,0-.18-1.41,6,6,0,0,0-11.74,1C322.09,33.45,322.08,33.6,322.08,33.75Z" fill="#680e28"/><path d="M322.1,33.3a6,6,0,0,0,3.7,1.27,6.08,6.08,0,0,0,6-5.44,6,6,0,0,0-9.74,4.17Z" fill="#680e28" opacity="0.37" style="mix-blend-mode:screen"/><path d="M323.17,37.18A6,6,0,0,0,334,33.75a5.45,5.45,0,0,0-.18-1.41C332.92,34.61,330.34,38,323.17,37.18Z" fill="#680e28" opacity="0.42" style="mix-blend-mode:multiply"/><path d="M394.26,194.05c-.23-.58.25-6.08-4.71-5.58s-2.23,5.95-3.22,5.82-5.2-2.39-6.2,1.12c-1.24,4.34,4.71,4.21,4.21,4.71s-4.33,3.35-.86,6.2,6.32-1.86,6.81-1.61,2.36,5.45,6.57,3-.86-6.07-.37-6.57,6.57-1,4.46-5.58S394.51,194.67,394.26,194.05Z" fill="#ed5d7f"/><g opacity="0.33" style="mix-blend-mode:multiply"><path d="M391.32,196.78s.89-6.82.06-6.7-1.05,6.64-1.05,6.64-1.26-6.86-1.94-6.57,1.48,7.37,1.48,7.37S391.28,197.52,391.32,196.78Z" fill="#680e28"/><path d="M392.66,199.56s6.83-.83,6.51-1.61-6.7.64-6.7.64,6.34-2.93,5.88-3.51-6.77,3.26-6.77,3.26S391.93,199.7,392.66,199.56Z" fill="#680e28"/><path d="M391.49,200.1s1.53,6.71,2.27,6.31-1.32-6.6-1.32-6.6,3.56,6,4.09,5.49-3.94-6.4-3.94-6.4S391.27,199.39,391.49,200.1Z" fill="#680e28"/><path d="M389,199.05s-5.6,4-4.94,4.53,5.57-3.76,5.57-3.76-4.16,5.59-3.48,5.89,4.38-6.1,4.38-6.1S389.58,198.58,389,199.05Z" fill="#680e28"/><path d="M388.26,197.35s-5.7-3.84-6-3,5.48,3.9,5.48,3.9-6.7-1.94-6.75-1.2,7.26,2,7.26,2S388.9,197.72,388.26,197.35Z" fill="#680e28"/></g><path d="M386.78,198.65a3.69,3.69,0,0,0,.69,2.17,3.78,3.78,0,0,0,6.87-2.17,3.24,3.24,0,0,0-.11-.89,3.78,3.78,0,0,0-7.44.61C386.79,198.46,386.78,198.56,386.78,198.65Z" fill="#680e28"/><path d="M386.79,198.37a3.84,3.84,0,0,0,6.17-2.65,3.79,3.79,0,0,0-6.17,2.65Z" fill="#680e28" opacity="0.37" style="mix-blend-mode:screen"/><path d="M387.47,200.82a3.78,3.78,0,0,0,6.87-2.17,3.24,3.24,0,0,0-.11-.89C393.65,199.2,392,201.33,387.47,200.82Z" fill="#680e28" opacity="0.42" style="mix-blend-mode:multiply"/><path d="M420,77.34s-4.8-17.27-7.95-15.77,6.6,17,6.6,17Z" fill="#fcdf65"/><path d="M420,77.07s-5.93-13.83-6.95-13.4,5.51,14,5.51,14Z" fill="#e8b12a" opacity="0.46" style="mix-blend-mode:multiply"/><path d="M420.64,78.07s8.84-15.59,5.55-16.76S418.83,78,418.83,78Z" fill="#fcdf65"/><path d="M420.83,77.88s5.6-14,4.58-14.38-6,13.76-6,13.76Z" fill="#e8b12a" opacity="0.46" style="mix-blend-mode:multiply"/><path d="M418.37,78.18s-17,5.56-15.4,8.64,16.66-7.34,16.66-7.34Z" fill="#fcdf65"/><path d="M418.1,78.19S404.55,84.73,405,85.72s13.71-6.11,13.71-6.11Z" fill="#e8b12a" opacity="0.46" style="mix-blend-mode:multiply"/><path d="M419.08,77.55s-16-8.15-17-4.82,17,6.63,17,6.63Z" fill="#fcdf65"/><path d="M418.88,77.37s-14.2-5-14.57-4,14,5.41,14,5.41Z" fill="#e8b12a" opacity="0.46" style="mix-blend-mode:multiply"/><path d="M421.35,78.87s17.28-4.76,15.78-7.92-17,6.57-17,6.57Z" fill="#fcdf65"/><path d="M421.62,78.87S435.45,73,435,72s-14,5.47-14,5.47Z" fill="#e8b12a" opacity="0.46" style="mix-blend-mode:multiply"/><path d="M420.61,79.47s15.57,8.88,16.75,5.6-16.63-7.4-16.63-7.4Z" fill="#fcdf65"/><path d="M420.8,79.66s13.95,5.64,14.37,4.62-13.74-6-13.74-6Z" fill="#e8b12a" opacity="0.46" style="mix-blend-mode:multiply"/><path d="M419.31,79.23s5.69,17,8.76,15.34S420.6,78,420.6,78Z" fill="#fcdf65"/><path d="M419.33,79.5S426,93,427,92.53s-6.22-13.67-6.22-13.67Z" fill="#e8b12a" opacity="0.46" style="mix-blend-mode:multiply"/><path d="M418.68,78.53s-8,16-4.69,17,6.49-17,6.49-17Z" fill="#fcdf65"/><path d="M418.49,78.73s-4.88,14.23-3.84,14.6,5.3-14,5.3-14Z" fill="#e8b12a" opacity="0.46" style="mix-blend-mode:multiply"/><path d="M417.07,78.19a2.91,2.91,0,0,0,5.81,0,2.82,2.82,0,0,0-.58-1.74,2.92,2.92,0,0,0-5.23,1.74Z" fill="#e8b12a"/><path d="M417.14,77.59a4.1,4.1,0,0,0,2,.49,3.8,3.8,0,0,0,3.2-1.63,2.89,2.89,0,0,0-5.16,1.14Z" fill="#e8b12a" opacity="0.43" style="mix-blend-mode:screen"/><path d="M265.5,284.9s-4.81-17.26-8-15.76,6.6,17,6.6,17Z" fill="#fcdf65"/><path d="M265.5,284.63s-5.94-13.82-6.95-13.39,5.5,14,5.5,14Z" fill="#e8b12a" opacity="0.46" style="mix-blend-mode:multiply"/><path d="M266.1,285.64s8.84-15.59,5.55-16.77-7.36,16.66-7.36,16.66Z" fill="#fcdf65"/><path d="M266.29,285.45s5.6-14,4.58-14.38-6,13.75-6,13.75Z" fill="#e8b12a" opacity="0.46" style="mix-blend-mode:multiply"/><path d="M263.83,285.75s-17,5.56-15.4,8.64,16.66-7.34,16.66-7.34Z" fill="#fcdf65"/><path d="M263.56,285.76s-13.55,6.54-13.08,7.53,13.71-6.11,13.71-6.11Z" fill="#e8b12a" opacity="0.46" style="mix-blend-mode:multiply"/><path d="M264.54,285.12s-16-8.16-17-4.82,17,6.62,17,6.62Z" fill="#fcdf65"/><path d="M264.34,284.93s-14.19-5-14.57-3.95,14,5.41,14,5.41Z" fill="#e8b12a" opacity="0.46" style="mix-blend-mode:multiply"/><path d="M266.81,286.44s17.28-4.76,15.79-7.92-17,6.56-17,6.56Z" fill="#fcdf65"/><path d="M267.08,286.44s13.84-5.9,13.41-6.92-14,5.47-14,5.47Z" fill="#e8b12a" opacity="0.46" style="mix-blend-mode:multiply"/><path d="M266.07,287s15.57,8.88,16.76,5.59-16.64-7.4-16.64-7.4Z" fill="#fcdf65"/><path d="M266.26,287.23s13.95,5.64,14.37,4.62-13.74-6-13.74-6Z" fill="#e8b12a" opacity="0.46" style="mix-blend-mode:multiply"/><path d="M264.78,286.8s5.68,17,8.75,15.34-7.47-16.61-7.47-16.61Z" fill="#fcdf65"/><path d="M264.79,287.07s6.64,13.5,7.63,13-6.21-13.66-6.21-13.66Z" fill="#e8b12a" opacity="0.46" style="mix-blend-mode:multiply"/><path d="M264.14,286.1s-8,16-4.69,17,6.5-17,6.5-17Z" fill="#fcdf65"/><path d="M264,286.3s-4.88,14.23-3.85,14.59,5.3-14,5.3-14Z" fill="#e8b12a" opacity="0.46" style="mix-blend-mode:multiply"/><path d="M262.54,285.76a2.91,2.91,0,0,0,5.81,0,2.83,2.83,0,0,0-.59-1.74,2.9,2.9,0,0,0-5.16,1.13A3.08,3.08,0,0,0,262.54,285.76Z" fill="#e8b12a"/><path d="M262.6,285.15a4,4,0,0,0,2,.5,3.79,3.79,0,0,0,3.2-1.63,2.9,2.9,0,0,0-5.16,1.13Z" fill="#e8b12a" opacity="0.43" style="mix-blend-mode:screen"/><path d="M362.28,219.43s-4.81-17.27-8-15.77,6.61,17,6.61,17Z" fill="#fcdf65"/><path d="M362.28,219.16s-5.94-13.83-6.95-13.4,5.5,14,5.5,14Z" fill="#e8b12a" opacity="0.46" style="mix-blend-mode:multiply"/><path d="M362.88,220.16s8.84-15.59,5.55-16.76-7.35,16.65-7.35,16.65Z" fill="#fcdf65"/><path d="M363.07,220s5.61-14,4.59-14.38-6,13.76-6,13.76Z" fill="#e8b12a" opacity="0.46" style="mix-blend-mode:multiply"/><path d="M360.61,220.27s-17,5.56-15.4,8.64,16.66-7.34,16.66-7.34Z" fill="#fcdf65"/><path d="M360.34,220.28s-13.55,6.54-13.07,7.53S361,221.7,361,221.7Z" fill="#e8b12a" opacity="0.46" style="mix-blend-mode:multiply"/><path d="M361.32,219.64s-16-8.15-17-4.82,17,6.63,17,6.63Z" fill="#fcdf65"/><path d="M361.12,219.46s-14.19-5-14.56-4,14,5.41,14,5.41Z" fill="#e8b12a" opacity="0.46" style="mix-blend-mode:multiply"/><path d="M363.59,221s17.28-4.76,15.79-7.92-17,6.57-17,6.57Z" fill="#fcdf65"/><path d="M363.86,221s13.84-5.9,13.41-6.92-14,5.47-14,5.47Z" fill="#e8b12a" opacity="0.46" style="mix-blend-mode:multiply"/><path d="M362.86,221.56s15.57,8.88,16.75,5.6-16.64-7.4-16.64-7.4Z" fill="#fcdf65"/><path d="M363.05,221.75s13.94,5.64,14.36,4.62-13.74-6-13.74-6Z" fill="#e8b12a" opacity="0.46" style="mix-blend-mode:multiply"/><path d="M361.56,221.32s5.68,17,8.76,15.34-7.47-16.61-7.47-16.61Z" fill="#fcdf65"/><path d="M361.57,221.59s6.64,13.5,7.63,13S363,221,363,221Z" fill="#e8b12a" opacity="0.46" style="mix-blend-mode:multiply"/><path d="M360.92,220.62s-8,16-4.69,17,6.5-17,6.5-17Z" fill="#fcdf65"/><path d="M360.74,220.82s-4.88,14.23-3.84,14.59,5.3-14,5.3-14Z" fill="#e8b12a" opacity="0.46" style="mix-blend-mode:multiply"/><path d="M359.32,220.28a2.91,2.91,0,0,0,5.81,0,2.83,2.83,0,0,0-.59-1.74,2.89,2.89,0,0,0-5.15,1.14A2.35,2.35,0,0,0,359.32,220.28Z" fill="#e8b12a"/><path d="M359.39,219.68a4.06,4.06,0,0,0,1.95.49,3.77,3.77,0,0,0,3.2-1.63,2.89,2.89,0,0,0-5.15,1.14Z" fill="#e8b12a" opacity="0.43" style="mix-blend-mode:screen"/><path d="M325.61,211.31c.93-.54,21.66-23.86,35.33-39.42l2.25-2.56c2.55-2.91,4.76-5.43,6.41-7.34s2.91-3.37,3.16-3.71c1.76-2.34.39-3.52-1-2.54-.25.18-2,2.1-4.66,5.12-2.9,3.27-6.88,7.82-11.25,12.83l-1.93,2.21c-13,14.92-28.33,32.67-28.33,32.67C324.43,210.13,324.24,212.09,325.61,211.31Z" fill="#e8b12a"/><polygon points="349.87 163.18 351.3 167.66 353.94 175.9 354.37 177.26 356.32 175.11 355.87 173.69 353.62 166.62 352.02 161.61 349.87 163.18" fill="#e8b12a"/><polygon points="358.48 171.98 360.94 171.89 368.96 171.6 375.72 171.35 375.3 168.85 368.92 169.1 363.19 169.33 360.43 169.44 358.48 171.98" fill="#e8b12a"/><path d="M367.12,160.86A8.93,8.93,0,0,0,369.6,162c1.77-2,2.91-3.37,3.16-3.71,1.76-2.34.39-3.52-1-2.54C371.53,155.92,369.79,157.84,367.12,160.86Z" fill="#e8b12a" style="mix-blend-mode:multiply"/><path d="M368.92,169.1a17.25,17.25,0,0,0,0,2.5l6.76-.25-.42-2.5Z" fill="#e8b12a" style="mix-blend-mode:multiply"/><path d="M349.87,163.18l1.43,4.48a10.64,10.64,0,0,0,2.32-1l-1.6-5Z" fill="#e8b12a" style="mix-blend-mode:multiply"/><path d="M367.28,153.78a7,7,0,1,0,.79-3.24A6.93,6.93,0,0,0,367.28,153.78Z" fill="#fcdf65"/><path d="M341.45,159.26a7,7,0,1,0,14.09,0,7.06,7.06,0,0,0-7-7,7,7,0,0,0-7,6.34A5.37,5.37,0,0,0,341.45,159.26Z" fill="#fcdf65"/><path d="M377.33,177a7.06,7.06,0,0,0,7.7-4.24,6.76,6.76,0,0,0,.44-1.51,7,7,0,1,0-8.14,5.75Z" fill="#fcdf65"/><path d="M368.07,150.54a8,8,0,0,0,12.94,1,7,7,0,0,0-12.94-1Z" fill="#fcdf65" style="mix-blend-mode:screen"/><path d="M377.45,164.74a8,8,0,0,0,7.58,8,6.76,6.76,0,0,0,.44-1.51,7,7,0,0,0-7.84-8.18A7.72,7.72,0,0,0,377.45,164.74Z" fill="#fcdf65" style="mix-blend-mode:screen"/><path d="M341.49,158.56a8,8,0,0,0,12.26-4,7,7,0,0,0-12.26,4Z" fill="#fcdf65" style="mix-blend-mode:screen"/><path d="M411.69,150.78c3-.88,12.61-6.12,16.54-11.66,1.85-2.62,2.44-5.31.48-7.64-2.95-3.51-6.62-3.72-9.94-2.75a15.07,15.07,0,0,0-1.47.52,26.23,26.23,0,0,0-7.42,4.83h0C407,146.35,407.26,152.09,411.69,150.78Z" fill="#c64469"/><path d="M411.69,150.78c3-.88,12.61-6.12,16.54-11.66-6-1-13.06,4.52-12-1a65.15,65.15,0,0,0,1.11-8.88,26.23,26.23,0,0,0-7.42,4.83h0C407,146.35,407.26,152.09,411.69,150.78Z" fill="#c64469" opacity="0.39" style="mix-blend-mode:multiply"/><path d="M403,152.85h0a2.19,2.19,0,0,0,.64.9.51.51,0,0,0,.13.09.91.91,0,0,0,.42.11c.82,0,1.91-.93,3.07-2.47.44-.6.9-1.29,1.37-2.05h0c4.63-7.66,9.24-22.41,2.17-23a4.87,4.87,0,0,0-1.33.07C401.63,128,400.71,147.93,403,152.85Z" fill="#ed5d7f"/><path d="M404.16,154c1.66,4.49,29.73,1.1,27.44-7.59,0-.09-.05-.19-.08-.28-2.31-6.93-15.75-1.17-22.91,3.34h0a24,24,0,0,0-3.81,2.81,2.39,2.39,0,0,0-.66.88A1.3,1.3,0,0,0,404.16,154Z" fill="#ed5d7f"/><path d="M403,152.85h0a2.19,2.19,0,0,0,.64.9c.11-.37.25-.78.4-1.25,1.94-6.11,6.2-20.4,5.44-26C401.63,128,400.71,147.93,403,152.85Z" fill="#c64469"/><path d="M403,152.85h0a2.19,2.19,0,0,0,.64.9.51.51,0,0,0,.13.09.91.91,0,0,0,.42.11c1.66,4.49,29.73,1.1,27.44-7.59-5.9-.25-16.8,2.75-24.37,5.12l-2.44.76-.78.26Z" fill="#c64469"/><path d="M162.67,251.46s-6.47,2.28-15.29,5.34c-15.56,5.38-38.41,13.17-46,15.1-11.82,3-13.69.75-12.64-2a154.49,154.49,0,0,1,7.82-15.48c2.51-4.21-1.61-4.87-11.38-6.89s-7-5.67-4-7.21c1.91-1,17.75-7.31,29.22-11.88,6.76-2.7,12-4.77,12-4.77C135.42,219.42,162.67,251.46,162.67,251.46Z" fill="#dba9b4"/><path d="M162.67,251.46s-6.47,2.28-15.29,5.34c-10.34-2.14-23.3-5.18-26.68-7.63-3.8-2.76-7.73-13.28-10.27-20.76,6.76-2.7,12-4.77,12-4.77C135.42,219.42,162.67,251.46,162.67,251.46Z" fill="#c64469" opacity="0.22" style="mix-blend-mode:multiply"/><path d="M161.9,252.07c-.79-.13-11.09-2.6-20.69-5.45-9.16-2.71-17.68-5.75-16.66-7.4,2.1-3.37,36.53-7.6,36.8-6,0,0,.88,8,1.08,13.56C162.54,249.85,162.45,252.16,161.9,252.07Z" fill="#e2b5bd"/><path d="M162.43,246.81a96,96,0,0,0-21.22-.19c-9.16-2.71-17.68-5.75-16.66-7.4,2.1-3.37,36.53-7.6,36.8-6C161.35,233.25,162.23,241.24,162.43,246.81Z" fill="#c64469" opacity="0.61" style="mix-blend-mode:multiply"/><path d="M291.89,243s6.26,2.8,14.8,6.58c15.05,6.66,37.18,16.31,44.55,18.87,11.53,4,13.59,1.88,12.77-1a156.15,156.15,0,0,0-6.51-16.07c-2.15-4.4,2-4.72,11.92-5.92s7.48-5.07,4.58-6.85c-1.82-1.13-17.08-8.77-28.14-14.27l-11.55-5.75C321.71,213.32,291.89,243,291.89,243Z" fill="#dba9b4"/><path d="M291.89,243s6.26,2.8,14.8,6.58c10.48-1.26,23.64-3.22,27.22-5.39,4-2.43,8.8-12.58,11.95-19.83l-11.55-5.75C321.71,213.32,291.89,243,291.89,243Z" fill="#c64469" opacity="0.22" style="mix-blend-mode:multiply"/><path d="M284.39,247.48c.79-.15,18.82-5.59,28.29-8.83,9.05-3.08,17.43-6.48,16.35-8.08-2.24-3.28-36.81-6.09-37-4.45,0,0-7.65,7.38-7.62,12.95C284.41,242.11,283.85,247.59,284.39,247.48Z" fill="#e2b5bd"/><path d="M291.49,239.71a95.69,95.69,0,0,1,21.19-1.06c9.05-3.08,17.43-6.48,16.35-8.08-2.24-3.28-36.81-6.09-37-4.45C292,226.12,291.46,234.14,291.49,239.71Z" fill="#c64469" opacity="0.61" style="mix-blend-mode:multiply"/><path d="M335.77,180.51c-2.33,5-4.82,9.75-7.4,14.29-.42.75-.85,1.49-1.28,2.22-7.14,12.21-14.89,22.49-21.9,29.55-4.84,4.88-9.9,9.49-15,13.8q-5.4,4.53-10.86,8.62c-25.74,19.29-51.1,30.79-59.4,30.79-8.95,0-16.16-1.76-50.08-25.53-4.18-2.93-8.76-6.19-13.8-9.84s-10.47-7.58-16.44-12l-1-.71a107.18,107.18,0,0,1-17.54-16.83q-2.19-2.61-4.23-5.37c-40.27-53.93-42.4-145.94,15-159l1.34-.3c17.22-3.69,31.25-2.13,42.63,2.19A69.78,69.78,0,0,1,204.3,73c10.78,12.73,15.32,25.57,16.35,25.57,1.9,0,17.81-42.59,49.49-53.92h0c13.15-4.69,29-4,47.72,7.36C364.47,80.35,356.07,137.28,335.77,180.51Z" fill="#ed5d7f"/><path d="M132.94,212.09c4.38,5.47,6.08,12.68,5.67,19.64a107.18,107.18,0,0,1-17.54-16.83q-2.19-2.61-4.23-5.37c-40.27-53.93-42.4-145.94,15-159l1.34-.3c17.22-3.69,31.25-2.13,42.63,2.19-19.63-.13-42.6,6-60.13,22.76C78.16,111.13,117.29,192.52,132.94,212.09Z" fill="#9b2a50" opacity="0.61" style="mix-blend-mode:multiply"/><path d="M335.77,180.51A91.6,91.6,0,0,1,270.14,44.69h0c13.15-4.69,29-4,47.72,7.36C364.47,80.35,356.07,137.28,335.77,180.51Z" fill="#ed5d7f" opacity="0.34" style="mix-blend-mode:screen"/><path d="M327.09,197c-7.14,12.21-14.89,22.49-21.9,29.55-4.84,4.88-9.9,9.49-15,13.8-36.68-.27-90.63.18-134.14,4-5-3.61-10.47-7.58-16.44-12a106,106,0,0,1-18.5-17.54q-2.19-2.61-4.23-5.37C170.67,206.18,266.85,200.27,327.09,197Z" fill="#9b2a50" opacity="0.61" style="mix-blend-mode:multiply"/><path d="M124.12,131.28l17.23-4.07a11.79,11.79,0,0,1,8.33.6,8.88,8.88,0,0,1,4.49,6.28,8.61,8.61,0,0,1,0,4.22,7.52,7.52,0,0,1-2.08,3.58,7.56,7.56,0,0,1,4.31,1.93,9,9,0,0,1,2.29,4.47,10.21,10.21,0,0,1-.18,5.77,9.86,9.86,0,0,1-3.09,4.46,12.6,12.6,0,0,1-5.18,2.51l-18.05,4.26Zm18.51,9.85c2.53-.59,3.52-2.08,3-4.45a3.41,3.41,0,0,0-1.62-2.51,5,5,0,0,0-3.15-.06l-6.57,1.55,1.67,7.06Zm3.87,14a5.52,5.52,0,0,0,3.07-1.6,3.59,3.59,0,0,0,.38-3.17,3.93,3.93,0,0,0-1.84-2.78,5.36,5.36,0,0,0-3.63-.14l-7.06,1.66,1.83,7.74Z" fill="#fff"/><path d="M166.61,154.81Q162,152.3,161,146.35t1.8-9.89q2.88-4.05,9.52-5.28a15.65,15.65,0,0,1,7.55.26A11.07,11.07,0,0,1,185.2,135a12.84,12.84,0,0,1,2.71,6l.6,3.2-18.83,3.49a4.2,4.2,0,0,0,3,2.4,13.45,13.45,0,0,0,5.52-.11,30.94,30.94,0,0,0,4.67-1.27,21.42,21.42,0,0,0,4-1.87l1.06,5.71a22.5,22.5,0,0,1-4.32,2,34.29,34.29,0,0,1-5.5,1.51C173.48,156.89,169.65,156.49,166.61,154.81Zm12.73-14.56a4.25,4.25,0,0,0-2.13-2.71,6.06,6.06,0,0,0-4-.38,5.88,5.88,0,0,0-3.53,1.8,4.29,4.29,0,0,0-1,3.26Z" fill="#fff"/><path d="M197.5,152.2a15.9,15.9,0,0,1-5.17-.93l-.88-6.39a19.88,19.88,0,0,0,5.15,1.29,20.78,20.78,0,0,0,5.33.05,9.14,9.14,0,0,0,2.49-.6,1,1,0,0,0,.66-1.1,1.14,1.14,0,0,0-.65-.89,7.4,7.4,0,0,0-2-.54c-.95-.15-2-.31-3.28-.48a25.5,25.5,0,0,1-5-1.18,6.54,6.54,0,0,1-2.91-2,7.16,7.16,0,0,1-1.33-3.51,6.38,6.38,0,0,1,2.25-6.18c1.86-1.55,4.55-2.57,8.09-3.06a29.75,29.75,0,0,1,5.49-.2,13.41,13.41,0,0,1,4.49.85l.86,6.29a13.26,13.26,0,0,0-4.16-1.09,18.27,18.27,0,0,0-4.67,0,8.55,8.55,0,0,0-2.58.69,1.17,1.17,0,0,0-.79,1.24c.07.49.43.83,1.1,1a26.42,26.42,0,0,0,3.5.53l1.39.16a19.81,19.81,0,0,1,5.16,1.21,6.32,6.32,0,0,1,2.79,2.12,8,8,0,0,1,1.21,3.49,6.3,6.3,0,0,1-2.21,5.83q-2.67,2.4-8.26,3.18A34.45,34.45,0,0,1,197.5,152.2Z" fill="#fff"/><path d="M220.87,147.35a9.6,9.6,0,0,1-2.92-6.52l-.9-9.36-3.39.33-.58-6.08,3.38-.32-.69-7.17,8.76-.85.69,7.17,5.48-.53.58,6.08-5.47.52.78,8.17a4.28,4.28,0,0,0,1,2.71,3.22,3.22,0,0,0,2.64.6,6.8,6.8,0,0,0,3.2-1.21l.63,6.52a12.08,12.08,0,0,1-2.68,1.14,21.17,21.17,0,0,1-3.58.62C224.84,149.45,222.53,148.85,220.87,147.35Z" fill="#fff"/><path d="M343.39,178.23c.08,1.59-6.66,29.86-11.16,44.27-1.42,4.57-2.62,7.75-3.31,8.24-2.7,1.92-104,.85-105.69.81-36.21-.79-96.59,9.77-99.46,8.1s-19-48.89-19.12-51c-.16-3.57,10.95-7.69,26.72-11.59,29.59-7.33,75.58-13.85,94.07-14.42C269.48,161.29,342.94,168.48,343.39,178.23Z" fill="#f3d3d7"/><path d="M332.23,222.5c-1.42,4.57-2.62,7.75-3.31,8.24-2.7,1.92-104,.85-105.69.81-36.21-.79-96.59,9.77-99.46,8.1s-19-48.89-19.12-51c-.16-3.57,10.95-7.69,26.72-11.59,2.52,14.35,10.62,38,32.51,41.4C191.8,222.8,286,215.63,332.23,222.5Z" fill="#c64469" opacity="0.11" style="mix-blend-mode:multiply"/><path d="M157.72,186.37l24.61-3.11.93,7.39-15.82,2,.82,6.5,11.56-1.46.87,6.89-11.56,1.47.82,6.49,15.83-2,.93,7.39L162.11,221Z" fill="#d19da7"/><path d="M186.5,182.69l9.44-.49,10.11,22.74,7.66-23.69,9.39-.49L211,216.39l-8.69.47Z" fill="#d19da7"/><path d="M228.52,180.9l24.79.47-.14,7.45-15.95-.3-.12,6.55,11.65.22-.13,7L237,202l-.13,6.55,15.95.31-.14,7.45-24.8-.48Z" fill="#d19da7"/><path d="M258.5,181.61l15.64,1.3q6.14.51,9.34,3.89T286.2,196a12.43,12.43,0,0,1-2.25,6.48,10.27,10.27,0,0,1-5.12,3.69L284,218.8l-9.06-.75-4.63-11.38-5-.41-.91,10.91-8.82-.74Zm12.72,17.67a7,7,0,0,0,4.17-.69,4,4,0,0,0,1.74-3.39c.15-1.73-.23-2.95-1.12-3.68a7.27,7.27,0,0,0-4-1.31l-5.28-.44-.76,9.06Z" fill="#d19da7"/><path d="M100.86,54a3.13,3.13,0,1,1-3.13-3.13A3.13,3.13,0,0,1,100.86,54Z" fill="#fefefc"/><path d="M78.94,21.52a2.74,2.74,0,1,1-2.73-2.74A2.74,2.74,0,0,1,78.94,21.52Z" fill="#fefefc"/><circle cx="50.77" cy="43.04" r="1.57" fill="#fefefc"/><circle cx="147.42" cy="34.83" r="1.96" fill="#fefefc"/><path d="M145.47,14.48a2,2,0,1,1-2-2A2,2,0,0,1,145.47,14.48Z" fill="#fefefc"/><path d="M24.94,109.17a2.74,2.74,0,1,1-2.73-2.74A2.73,2.73,0,0,1,24.94,109.17Z" fill="#fefefc"/><path d="M33.55,173.74a2.35,2.35,0,1,1-2.34-2.35A2.35,2.35,0,0,1,33.55,173.74Z" fill="#fefefc"/><path d="M47.64,182.35a1.57,1.57,0,1,1-1.57-1.57A1.56,1.56,0,0,1,47.64,182.35Z" fill="#fefefc"/><path d="M70.34,198.39a2,2,0,1,1-2-2A2,2,0,0,1,70.34,198.39Z" fill="#fefefc"/><path d="M60.94,242.61A3.91,3.91,0,1,1,57,238.7,3.91,3.91,0,0,1,60.94,242.61Z" fill="#fefefc"/><path d="M82.86,257.87a2,2,0,1,1-2-2A2,2,0,0,1,82.86,257.87Z" fill="#fefefc"/><path d="M154.07,269.22a3.13,3.13,0,1,1-3.13-3.13A3.13,3.13,0,0,1,154.07,269.22Z" fill="#fefefc"/><path d="M117.29,277a2.35,2.35,0,1,1-2.35-2.34A2.35,2.35,0,0,1,117.29,277Z" fill="#fefefc"/><path d="M204.94,288.78a2.35,2.35,0,1,1-2.34-2.35A2.35,2.35,0,0,1,204.94,288.78Z" fill="#fefefc"/><path d="M190.07,308a1.17,1.17,0,1,1-1.17-1.18A1.17,1.17,0,0,1,190.07,308Z" fill="#fefefc"/><path d="M154.07,302.87a3.91,3.91,0,1,1-3.91-3.91A3.91,3.91,0,0,1,154.07,302.87Z" fill="#fefefc"/><circle cx="282.81" cy="259.43" r="1.96" fill="#fefefc"/><path d="M327.81,270.78a2.35,2.35,0,1,1-2.34-2.35A2.35,2.35,0,0,1,327.81,270.78Z" fill="#fefefc"/><circle cx="292.6" cy="302.09" r="3.13" fill="#fefefc"/><path d="M371.64,192.13a2,2,0,1,1-2-2A2,2,0,0,1,371.64,192.13Z" fill="#fefefc"/><path d="M389.64,214.43a2.35,2.35,0,1,1-2.35-2.34A2.35,2.35,0,0,1,389.64,214.43Z" fill="#fefefc"/><path d="M442.86,113.48a1.57,1.57,0,1,1-1.57-1.57A1.56,1.56,0,0,1,442.86,113.48Z" fill="#fefefc"/><path d="M417,108.78a2.35,2.35,0,1,1-2.35-2.35A2.35,2.35,0,0,1,417,108.78Z" fill="#fefefc"/><circle cx="399.81" cy="42.26" r="3.13" fill="#fefefc"/><path d="M370.07,25.43a2.74,2.74,0,1,1-2.73-2.73A2.73,2.73,0,0,1,370.07,25.43Z" fill="#fefefc"/><path d="M294.94,28.17a2.35,2.35,0,1,1-2.34-2.34A2.35,2.35,0,0,1,294.94,28.17Z" fill="#fefefc"/><path d="M258.94,38.35A2.35,2.35,0,1,1,256.6,36,2.35,2.35,0,0,1,258.94,38.35Z" fill="#fefefc"/><path d="M312.94,2.35A2.35,2.35,0,1,1,310.6,0,2.35,2.35,0,0,1,312.94,2.35Z" fill="#fefefc"/><path d="M180.68,41.48a2.35,2.35,0,1,1-2.34-2.35A2.35,2.35,0,0,1,180.68,41.48Z" fill="#fefefc"/></g></g></g></svg>