<svg xmlns="http://www.w3.org/2000/svg" viewBox="0 0 65.46 57.36"><g id="Layer_2" data-name="Layer 2"><g id="Capa_1" data-name="Capa 1"><path d="M65.46,46.49S54.64,52,45.91,48.13s-12-15.48-12-15.48S44.69,27.18,53.42,31,65.46,46.49,65.46,46.49Z" fill="#3a6627"/><path d="M62.91,45.37s-9.95,5-18,1.51S33.87,32.65,33.87,32.65s10-5,18-1.52S62.91,45.37,62.91,45.37Z" fill="#47742c"/><path d="M62.91,45.37a67,67,0,0,0-14.09-8.51,55.37,55.37,0,0,0-15-4.21s10-5,18-1.52S62.91,45.37,62.91,45.37Z" fill="#62812c"/><path d="M30.76,33.79s-8.77-9.67-6.87-19S37.67,0,37.67,0s8.78,9.67,6.87,19S30.76,33.79,30.76,33.79Z" fill="#3a6627"/><path d="M31.32,31.07S23.25,22.17,25,13.59,37.67,0,37.67,0,45.74,8.89,44,17.47,31.32,31.07,31.32,31.07Z" fill="#47742c"/><path d="M31.32,31.07A60.12,60.12,0,0,0,37,15.56,49.82,49.82,0,0,0,37.67,0S45.74,8.89,44,17.47,31.32,31.07,31.32,31.07Z" fill="#62812c"/><path d="M33.24,31.06S28.5,42.87,19.32,45.41,0,40.28,0,40.28,4.74,28.47,13.92,25.93,33.24,31.06,33.24,31.06Z" fill="#3a6627"/><path d="M30.56,31.81S26.2,42.66,17.76,45,0,40.28,0,40.28,4.36,29.43,12.8,27.09,30.56,31.81,30.56,31.81Z" fill="#47742c"/><path d="M30.56,31.81a62.43,62.43,0,0,0-16.34,2.13A51.69,51.69,0,0,0,0,40.28S4.36,29.43,12.8,27.09,30.56,31.81,30.56,31.81Z" fill="#62812c"/><path d="M46.76,57.36s-9.61-1.49-13.6-8.08-.86-15.79-.86-15.79S41.9,35,45.89,41.57,46.76,57.36,46.76,57.36Z" fill="#3a6627"/><path d="M45.59,55.43S36.76,54.07,33.09,48s-.79-14.52-.79-14.52,8.83,1.37,12.5,7.42S45.59,55.43,45.59,55.43Z" fill="#47742c"/><path d="M45.59,55.43A54.9,54.9,0,0,0,40.2,43.26a45.61,45.61,0,0,0-7.9-9.77s8.83,1.37,12.5,7.42S45.59,55.43,45.59,55.43Z" fill="#62812c"/><path d="M30.69,30.26a8.07,8.07,0,1,0,5.72,9.86A8.07,8.07,0,0,0,30.69,30.26Z" fill="#e40f1c"/><path d="M36.67,38A8,8,0,0,0,22,42.65,8.06,8.06,0,1,1,36.67,38Z" fill="#90120a"/><path d="M31.68,44.87s.18,2.37,1,2.6.74-1.5.74-1.5,1.12.79,1.7.21-2.42-1.86-2.42-1.86Z" fill="#e40f1c"/><path d="M34.79,38.73c-.63-.52-2.13.25-3.35,1.73s-1.67,3.09-1,3.62,2.13-.26,3.34-1.73S35.43,39.25,34.79,38.73Z" fill="#e6301d"/><path d="M31.81,33.23a8.06,8.06,0,1,1,11.37.84A8.06,8.06,0,0,1,31.81,33.23Z" fill="#e40f1c"/><path d="M41.34,35.26a8.06,8.06,0,0,1-4-14.07A8.26,8.26,0,0,1,39.16,20a8.06,8.06,0,1,0,2.18,15.26Z" fill="#9d130e"/><path d="M45.38,27.75s2.22-.88,2.77-.26-1,1.33-1,1.33,1.21.66.94,1.44-2.73-1.38-2.73-1.38Z" fill="#e40f1c"/><path d="M41.22,33.23c-.75-.35-.71-2,.09-3.77S43.37,26.6,44.12,27s.7,2-.1,3.76S42,33.57,41.22,33.23Z" fill="#e6301d"/><path d="M27.48,19.36a8.07,8.07,0,1,0,5.73,9.87A8.06,8.06,0,0,0,27.48,19.36Z" fill="#e40f1c"/><path d="M33.47,27.06a8.77,8.77,0,0,0-5.58-5.38c-4.3-1.15-10.9,5.79-10.27,3.41a8.06,8.06,0,0,1,15.85,2Z" fill="#9d130e"/><path d="M27.43,31.33c-.27-1.19-2.07-2.12-4-2.09s-3.32,1-3,2.19,2.07,2.11,4,2.09S27.69,32.51,27.43,31.33Z" fill="#e6301d"/><path d="M26.57,28.92l.44.26-.26.44a.37.37,0,0,0,.13.49.38.38,0,0,0,.49-.13l.26-.45.44.26a.35.35,0,0,0,.48-.13.36.36,0,0,0-.13-.49L28,28.92l.25-.45a.35.35,0,0,0-.61-.35l-.26.44-.44-.25a.36.36,0,0,0-.49.13A.35.35,0,0,0,26.57,28.92Z" fill="#9d130e"/></g></g></svg>