<svg xmlns="http://www.w3.org/2000/svg" viewBox="0 0 55.83 60.78"><g style="isolation:isolate"><g id="Layer_2" data-name="Layer 2"><g id="Capa_1" data-name="Capa 1"><path d="M55,58.76c0,2.5-1.73,2.42-4.53,1.16C39.67,55.06,13.11,43,8,40.26c-3.9-2.1-6.48-4.27-6.48-6.77s-3-18.47,0-23.38C3,8.63,55,34.74,55,34.74Z" fill="#de7025"/><path d="M55,58.76c0,2.5-40.55-17.37-45.67-20.13-3.9-2.1-6.11-4.72-6.11-7.22S.27,16.18,3.32,11.27C4.85,9.79,55,34.74,55,34.74Z" fill="#9b4316"/><path d="M39.11,52c-2.85-2.21-6.42-3.1-9.71-4.47A46.25,46.25,0,0,1,21,43.2c-2.36-1.64-2.82-4-3.77-6.58-.08-.22.15-.37.34-.34a19.94,19.94,0,0,0,2.3.47c.74,0,1.47-.67.77-1.34a5.09,5.09,0,0,0-1.06-.78c-1.18-.64-2.47-1-3.63-1.68-1.38-.77-2.79-1.48-4.13-2.31A10.45,10.45,0,0,1,8.7,28.19c-.41-.59-.75-1.73,0-2.28a3.17,3.17,0,0,1,2.47-.36c3.58.57,6.78,2.79,10.44,2.14-4.55-2.43-10.18-4-13.37-8.31A5.64,5.64,0,0,1,8,12.62C5.32,11.55,3.58,11,3.32,11.27c-3,4.91-.14,17.64-.14,20.14s2.21,5.12,6.11,7.22c3.16,1.7,19.77,9.9,32.05,15.36A20.42,20.42,0,0,0,39.11,52Z" fill="#dfc7c6" style="mix-blend-mode:multiply"/><path d="M53.5,40.48c-2.32-1.26-4.72-2.39-7-3.68a64.32,64.32,0,0,0-10-4.72C29.73,29.72,22.73,28,15.87,25.86,11,24.38,6.06,23.1,2,20.12c0,.73.08,1.46.14,2.19.72,2,3.3,2.86,5.14,3.43,2.09.66,4.21,1.18,6.27,1.94,2.74,1,5.42,2.16,8.2,3s5.56,1.62,8.33,2.49a65.89,65.89,0,0,1,15.07,7c2.5,1.54,5,3.19,7.85,4,.66.18,1.32.33,2,.48v-3.4Z" fill="#f39232"/><path d="M53.38,51.11c-2.06-1-4-2.18-6.09-3.11-3.26-1.46-6.8-2.29-10-3.93A77.77,77.77,0,0,1,28,38.38c-1.46-1-2.94-2.3-4.73-2.71a27.52,27.52,0,0,1-4.57-1.14c-1.55-.65-2.95-1.66-4.56-2.2s-3.32-.63-5-1.09C6.8,30.55,5.14,28,2.71,27.47c.09.65.18,1.25.25,1.78,1.77,1.68,4.32,2.65,6.32,4A36.59,36.59,0,0,0,17,37.49c2.56.95,5.2,1.81,7.66,3s4.72,3,7.2,4.41c4.92,2.69,10.54,3.32,15.46,6,1.95,1,3.81,2.23,5.8,3.2.58.28,1.22.58,1.89.84V51.83Z" fill="#f39232"/><path d="M30.54,3.36c-5.69-1.25-25,2.57-29,6.75C-1.63,13.35,55,34.74,55,34.74S36.23,4.61,30.54,3.36Z" fill="#f39232"/><path d="M33.53,26.28a100.36,100.36,0,0,0-10.66-7.41c-1.67-.95-3.32-1.93-5.06-2.76C16.71,15.58,15.3,15,14.59,14c-1.55-2.32.74-3.64,3-3.14,1.31.29,3,.86,4.06-.38a21,21,0,0,0,1.12-1.87,2.56,2.56,0,0,1,2.35-1.31c1.84.09,3.05,1.34,5,.73a8.4,8.4,0,0,0,3.74-2.36,8.41,8.41,0,0,0-3.3-2.28c-5.69-1.25-25,2.57-29,6.75C-.31,12,18,20,33.65,26.36Z" fill="#dfc7c6" style="mix-blend-mode:multiply"/><g style="mix-blend-mode:multiply"><path d="M39.15,50.9a.43.43,0,0,0,0,.86A.43.43,0,0,0,39.15,50.9Z" fill="#b5a19b"/><path d="M40.47,52.24a.07.07,0,0,0,0,.14A.07.07,0,0,0,40.47,52.24Z" fill="#b5a19b"/><path d="M41.3,51.82a.28.28,0,0,0,0,.56A.28.28,0,0,0,41.3,51.82Z" fill="#b5a19b"/><path d="M41.64,50.15h0a.36.36,0,1,0,.44.44v0A.35.35,0,0,0,41.64,50.15Z" fill="#b5a19b"/><path d="M42.76,51.06a.41.41,0,0,0,0,.82A.41.41,0,0,0,42.76,51.06Z" fill="#b5a19b"/><path d="M44.49,53.21a.21.21,0,0,0,0,.42A.21.21,0,0,0,44.49,53.21Z" fill="#b5a19b"/><path d="M45.33,51.09a.25.25,0,0,0,0,.49A.25.25,0,0,0,45.33,51.09Z" fill="#b5a19b"/><path d="M47,53a.24.24,0,0,0,0,.48A.24.24,0,0,0,47,53Z" fill="#b5a19b"/><path d="M49.08,54.83a.32.32,0,0,0,0,.64A.32.32,0,0,0,49.08,54.83Z" fill="#b5a19b"/><path d="M52.55,55.79a.34.34,0,0,0,0,.67A.34.34,0,0,0,52.55,55.79Z" fill="#b5a19b"/><path d="M48.1,55.82a.24.24,0,0,0,0,.47A.24.24,0,0,0,48.1,55.82Z" fill="#b5a19b"/><path d="M46.79,54.67a.21.21,0,0,0,0,.41A.21.21,0,0,0,46.79,54.67Z" fill="#b5a19b"/><path d="M50.26,53.49a.28.28,0,0,0,0,.55A.28.28,0,0,0,50.26,53.49Z" fill="#b5a19b"/><path d="M51.09,55.57a.28.28,0,0,0,0,.56A.28.28,0,0,0,51.09,55.57Z" fill="#b5a19b"/><path d="M53.87,57.6a.13.13,0,0,0,0,.25A.13.13,0,0,0,53.87,57.6Z" fill="#b5a19b"/><path d="M54.21,55.11a.32.32,0,0,0,0,.64A.32.32,0,0,0,54.21,55.11Z" fill="#b5a19b"/><path d="M50.54,56.44a.17.17,0,0,0,0,.34A.17.17,0,0,0,50.54,56.44Z" fill="#b5a19b"/><path d="M34.77,47.83a.18.18,0,0,0,0,.35A.18.18,0,0,0,34.77,47.83Z" fill="#b5a19b"/><path d="M31.6,46.21l0,0a.36.36,0,0,0,0,.49l0,0a.37.37,0,1,0,0-.53Z" fill="#b5a19b"/><path d="M28.94,46.93a.1.1,0,0,0,0,.2A.1.1,0,0,0,28.94,46.93Z" fill="#b5a19b"/><path d="M28.52,45.26a.24.24,0,0,0,0,.48A.24.24,0,0,0,28.52,45.26Z" fill="#b5a19b"/><path d="M25.12,42.1a.14.14,0,0,0,0,.28A.14.14,0,0,0,25.12,42.1Z" fill="#b5a19b"/><path d="M23.73,42.7a.31.31,0,0,0,0,.61A.31.31,0,0,0,23.73,42.7Z" fill="#b5a19b"/><path d="M21.44,40.36a.22.22,0,0,0,0,.43A.22.22,0,0,0,21.44,40.36Z" fill="#b5a19b"/><path d="M18.84,40.84v0a.28.28,0,0,0-.47,0v0a.29.29,0,1,0,.49,0Z" fill="#b5a19b"/><path d="M15.75,38.09a.33.33,0,0,0,0,.66A.33.33,0,0,0,15.75,38.09Z" fill="#b5a19b"/><path d="M12.9,37.83a.25.25,0,0,0,0,.49A.25.25,0,0,0,12.9,37.83Z" fill="#b5a19b"/><path d="M10.61,38.18a.24.24,0,0,0,0,.48A.24.24,0,0,0,10.61,38.18Z" fill="#b5a19b"/><path d="M10.54,36.32a.23.23,0,0,0,0,.45A.23.23,0,0,0,10.54,36.32Z" fill="#b5a19b"/><path d="M9.5,34.34a.33.33,0,0,0,0,.66A.33.33,0,0,0,9.5,34.34Z" fill="#b5a19b"/><path d="M7.83,35.06a.31.31,0,0,0,0,.61A.31.31,0,0,0,7.83,35.06Z" fill="#b5a19b"/><path d="M6,33a.38.38,0,0,0,0,.76A.38.38,0,0,0,6,33Z" fill="#b5a19b"/><path d="M4.36,31.78a.26.26,0,0,0,0,.51A.26.26,0,0,0,4.36,31.78Z" fill="#b5a19b"/></g><g style="mix-blend-mode:multiply"><path d="M33.62,39.22a.43.43,0,0,0,0,.86A.43.43,0,0,0,33.62,39.22Z" fill="#b5a19b"/><path d="M36,40.91a.08.08,0,0,0,0,.15A.08.08,0,1,0,36,40.91Z" fill="#b5a19b"/><path d="M40.47,39.22a.07.07,0,0,0,0,.14A.07.07,0,0,0,40.47,39.22Z" fill="#b5a19b"/><path d="M38,38.14a.28.28,0,0,0,0,.56A.28.28,0,0,0,38,38.14Z" fill="#b5a19b"/><path d="M35.23,36.6h0a.36.36,0,0,0-.16.6.36.36,0,0,0,.6-.16v0A.35.35,0,0,0,35.23,36.6Z" fill="#b5a19b"/><path d="M37.32,41.78a.41.41,0,0,0,0,.82A.41.41,0,0,0,37.32,41.78Z" fill="#b5a19b"/><path d="M43.93,44.07a.21.21,0,0,0,0,.41A.21.21,0,0,0,43.93,44.07Z" fill="#b5a19b"/><path d="M41.72,44.07a.21.21,0,0,0,0,.41A.21.21,0,0,0,41.72,44.07Z" fill="#b5a19b"/><path d="M39.8,41.29a.25.25,0,0,0,0,.5A.25.25,0,0,0,39.8,41.29Z" fill="#b5a19b"/><path d="M46.43,43.9a.24.24,0,0,0,0,.48A.24.24,0,0,0,46.43,43.9Z" fill="#b5a19b"/><path d="M42.09,41.54a.24.24,0,0,0,0,.48A.24.24,0,0,0,42.09,41.54Z" fill="#b5a19b"/><path d="M48.21,44.58a.32.32,0,0,0,0,.64A.32.32,0,0,0,48.21,44.58Z" fill="#b5a19b"/><path d="M52,46.65a.34.34,0,0,0,0,.67A.34.34,0,0,0,52,46.65Z" fill="#b5a19b"/><path d="M47.54,46.68a.24.24,0,0,0,0,.47A.24.24,0,0,0,47.54,46.68Z" fill="#b5a19b"/><path d="M46.22,45.53a.21.21,0,0,0,0,.41A.21.21,0,0,0,46.22,45.53Z" fill="#b5a19b"/><path d="M50.22,45.46a.28.28,0,0,0,0,.55A.28.28,0,0,0,50.22,45.46Z" fill="#b5a19b"/><path d="M45.33,41.75a.28.28,0,0,0,0,.55A.28.28,0,0,0,45.33,41.75Z" fill="#b5a19b"/><path d="M49.7,47.32a.28.28,0,0,0,0,.56A.28.28,0,0,0,49.7,47.32Z" fill="#b5a19b"/><path d="M53.77,48.18a.12.12,0,0,0,0,.24A.12.12,0,0,0,53.77,48.18Z" fill="#b5a19b"/><path d="M53.34,45.78a.32.32,0,0,0,0,.64A.32.32,0,0,0,53.34,45.78Z" fill="#b5a19b"/><path d="M52,49.18a.17.17,0,0,0,0,.34A.17.17,0,0,0,52,49.18Z" fill="#b5a19b"/><path d="M34.21,36.59a.18.18,0,0,0,0,.35A.18.18,0,0,0,34.21,36.59Z" fill="#b5a19b"/><path d="M30.66,35.41l0,0a.34.34,0,0,0,0,.48l0,0a.37.37,0,0,0,.63-.26A.37.37,0,0,0,30.66,35.41Z" fill="#b5a19b"/><path d="M27.94,36.23a.1.1,0,1,0,0,.19A.1.1,0,0,0,27.94,36.23Z" fill="#b5a19b"/><path d="M28.17,33.93a.24.24,0,0,0,0,.48A.24.24,0,0,0,28.17,33.93Z" fill="#b5a19b"/><path d="M25.39,33a.14.14,0,0,0,0,.27A.14.14,0,0,0,25.39,33Z" fill="#b5a19b"/><path d="M22.38,33.86a.31.31,0,0,0,0,.61A.31.31,0,0,0,22.38,33.86Z" fill="#b5a19b"/><path d="M20,32.4a.22.22,0,0,0,0,.43A.22.22,0,0,0,20,32.4Z" fill="#b5a19b"/><path d="M18.28,31.08l0,0a.27.27,0,0,0-.46,0v0a.28.28,0,0,0,.24.43A.29.29,0,0,0,18.28,31.08Z" fill="#b5a19b"/><path d="M14.56,30.89a.33.33,0,0,0,0,.65A.33.33,0,0,0,14.56,30.89Z" fill="#b5a19b"/><path d="M12.34,28.44a.25.25,0,0,0,0,.49A.25.25,0,0,0,12.34,28.44Z" fill="#b5a19b"/><path d="M9.18,29.86a.24.24,0,0,0,0,.48A.24.24,0,0,0,9.18,29.86Z" fill="#b5a19b"/><path d="M9.81,28.73a.22.22,0,0,0,0,.44A.22.22,0,0,0,9.81,28.73Z" fill="#b5a19b"/><path d="M7.54,27.59a.33.33,0,0,0,0,.65A.33.33,0,0,0,7.54,27.59Z" fill="#b5a19b"/><path d="M3.26,26.22a.31.31,0,0,0,0,.61A.31.31,0,0,0,3.26,26.22Z" fill="#b5a19b"/><path d="M5.77,27.92a.38.38,0,0,0,0,.76A.38.38,0,0,0,5.77,27.92Z" fill="#b5a19b"/><path d="M4.61,26.28a.25.25,0,0,0,0,.5A.25.25,0,0,0,4.61,26.28Z" fill="#b5a19b"/></g><g style="mix-blend-mode:multiply"><path d="M35.27,30.3a.43.43,0,0,0,0,.86A.43.43,0,0,0,35.27,30.3Z" fill="#b5a19b"/><path d="M37.32,30.85a.08.08,0,0,0,0,.15A.08.08,0,1,0,37.32,30.85Z" fill="#b5a19b"/><path d="M42,31.14a.08.08,0,0,0,0,.15A.08.08,0,0,0,42,31.14Z" fill="#b5a19b"/><path d="M39.36,29.78a.28.28,0,0,0,0,.56A.28.28,0,0,0,39.36,29.78Z" fill="#b5a19b"/><path d="M36.85,29.15h0a.36.36,0,1,0,.45.44v0A.35.35,0,0,0,36.85,29.15Z" fill="#b5a19b"/><path d="M12.71,20.79a.43.43,0,0,0,0,.86A.43.43,0,0,0,12.71,20.79Z" fill="#b5a19b"/><path d="M14.56,20.05a.07.07,0,1,0,0,.14A.07.07,0,0,0,14.56,20.05Z" fill="#b5a19b"/><path d="M14.41,22h0a.35.35,0,0,0-.15.59.36.36,0,0,0,.6-.15v0A.34.34,0,0,0,14.41,22Z" fill="#b5a19b"/><path d="M40,31.1a.41.41,0,0,0,0,.82A.41.41,0,0,0,40,31.1Z" fill="#b5a19b"/><path d="M45.06,34.35a.21.21,0,0,0,0,.42A.21.21,0,0,0,45.06,34.35Z" fill="#b5a19b"/><path d="M43.37,33.17a.21.21,0,0,0,0,.42A.21.21,0,0,0,43.37,33.17Z" fill="#b5a19b"/><path d="M41.45,32.38a.25.25,0,0,0,0,.49A.25.25,0,0,0,41.45,32.38Z" fill="#b5a19b"/><path d="M47.9,33.14a.24.24,0,0,0,0,.48A.24.24,0,0,0,47.9,33.14Z" fill="#b5a19b"/><path d="M43.73,31.3a.24.24,0,0,0,0,.48A.24.24,0,0,0,43.73,31.3Z" fill="#b5a19b"/><path d="M21.69,25.13a.21.21,0,0,0,0,.42A.21.21,0,0,0,21.69,25.13Z" fill="#b5a19b"/><path d="M16.7,24.8a.21.21,0,0,0,0,.41A.21.21,0,0,0,16.7,24.8Z" fill="#b5a19b"/><path d="M16.9,21.18a.24.24,0,0,0,0,.48A.24.24,0,0,0,16.9,21.18Z" fill="#b5a19b"/><path d="M49,34.45a.32.32,0,0,0,0,.64A.32.32,0,0,0,49,34.45Z" fill="#b5a19b"/><path d="M53.63,37.73a.34.34,0,0,0,0,.67A.34.34,0,0,0,53.63,37.73Z" fill="#b5a19b"/><path d="M48.65,36.71a.24.24,0,0,0,0,.47A.24.24,0,0,0,48.65,36.71Z" fill="#b5a19b"/><path d="M47.11,35.45a.21.21,0,0,0,0,.42A.21.21,0,0,0,47.11,35.45Z" fill="#b5a19b"/><path d="M54,35.4A.28.28,0,0,0,54,36,.28.28,0,0,0,54,35.4Z" fill="#b5a19b"/><path d="M46,33.59a.27.27,0,0,0,0,.54A.27.27,0,0,0,46,33.59Z" fill="#b5a19b"/><path d="M50.3,36.55a.28.28,0,0,0-.17.53A.28.28,0,0,0,50.3,36.55Z" fill="#b5a19b"/><path d="M53.57,39.24a.12.12,0,0,0,0,.24A.12.12,0,1,0,53.57,39.24Z" fill="#b5a19b"/><path d="M51.61,35a.31.31,0,0,0,0,.63A.31.31,0,0,0,51.61,35Z" fill="#b5a19b"/><path d="M52.31,37.66a.17.17,0,0,0,0,.34A.17.17,0,0,0,52.31,37.66Z" fill="#b5a19b"/><path d="M34,27.85a.18.18,0,0,0,0,.35A.18.18,0,0,0,34,27.85Z" fill="#b5a19b"/><path d="M32.31,26.49s0,0,0,0a.36.36,0,0,0,0,.49h0a.37.37,0,0,0,.63-.26A.37.37,0,0,0,32.31,26.49Z" fill="#b5a19b"/><path d="M29.58,27.31a.1.1,0,0,0,0,.19A.1.1,0,1,0,29.58,27.31Z" fill="#b5a19b"/><path d="M29.82,25a.24.24,0,0,0,0,.48A.24.24,0,0,0,29.82,25Z" fill="#b5a19b"/><path d="M27,24a.14.14,0,0,0,0,.28A.14.14,0,0,0,27,24Z" fill="#b5a19b"/><path d="M23.19,26.07a.31.31,0,0,0,0,.61A.31.31,0,0,0,23.19,26.07Z" fill="#b5a19b"/><path d="M22.38,23.83a.22.22,0,0,0,0,.43A.22.22,0,0,0,22.38,23.83Z" fill="#b5a19b"/><path d="M10,19.8a.22.22,0,0,0,0,.43A.22.22,0,0,0,10,19.8Z" fill="#b5a19b"/><path d="M19.23,24.12l0,0a.27.27,0,0,0-.46,0s0,0,0,0a.29.29,0,1,0,.5,0Z" fill="#b5a19b"/><path d="M13.25,18.6a.33.33,0,0,0,0,.65A.33.33,0,0,0,13.25,18.6Z" fill="#b5a19b"/><path d="M11.58,22.38a.25.25,0,0,0,0,.49A.25.25,0,0,0,11.58,22.38Z" fill="#b5a19b"/><path d="M8.36,21.42a.25.25,0,0,0,0,.49A.25.25,0,0,0,8.36,21.42Z" fill="#b5a19b"/><path d="M9,17.08a.23.23,0,0,0,0,.45A.23.23,0,0,0,9,17.08Z" fill="#b5a19b"/><path d="M6.64,16.65a.33.33,0,0,0,0,.65A.33.33,0,0,0,6.64,16.65Z" fill="#b5a19b"/><path d="M3.26,17.3a.31.31,0,0,0,0,.62A.31.31,0,0,0,3.26,17.3Z" fill="#b5a19b"/><path d="M5.59,19.63a.39.39,0,0,0,0,.77A.39.39,0,0,0,5.59,19.63Z" fill="#b5a19b"/><path d="M4.85,14.23a.26.26,0,0,0,0,.51A.26.26,0,0,0,4.85,14.23Z" fill="#b5a19b"/></g><path d="M9.25,11.24c.7-1,1.39-2.38,2.65-2.79,2.07-.67,3.55.77,5.42,1.3a2.7,2.7,0,0,0,3.46-1.51,5.21,5.21,0,0,1,1-1.75,3.23,3.23,0,0,1,3.55-.85c1.31.53,3.18,2.15,4.58,2,1.71-.18,3.43-.57,3.95-2.3.67-2.23-.6-3.29-3-3.75-2.33-3.31-5.69.22-10.36,1.18-3.31.68-5.78-1.23-10.15,2.52C9.12,7,2.38,5.58.53,9.65c-1.33,3,1.35,4.63,4,4.83S8.38,12.49,9.25,11.24Z" fill="#f8ac55"/><path d="M33.64,2.91A4.2,4.2,0,0,1,33.3,4a4.28,4.28,0,0,1-4.75,2.25A18,18,0,0,1,25.31,5c-1.73-.55-2.5.17-3.82,1.3-1.75,1.5-3.9,1.62-6.2,1.41C12.48,7.5,9.82,8.28,7,11.21,5.11,13.1,2.21,14.5.2,11.36c.15,1.89,2.24,3,4.29,3.12,2.61.21,3.89-2,4.76-3.24.7-1,1.39-2.38,2.65-2.79,2.07-.67,3.55.77,5.42,1.3a2.7,2.7,0,0,0,3.46-1.51,5.21,5.21,0,0,1,1-1.75,3.23,3.23,0,0,1,3.55-.85c1.31.53,3.18,2.15,4.58,2,1.71-.18,3.43-.57,3.95-2.3A2.53,2.53,0,0,0,33.64,2.91Z" fill="#e4bca2" style="mix-blend-mode:multiply"/><path d="M9.17,7a10.12,10.12,0,0,0-5,1.45c-1.43.92-2.83,1.26-3,.83S2.23,8.21,3.75,7.43A8,8,0,0,1,9.17,7Z" fill="#d6c2aa" style="mix-blend-mode:soft-light"/><path d="M19.12,3.67a7.82,7.82,0,0,0-5.2.89c-1.43.92-2.83,1.27-3,.83S12,4.32,13.54,3.55C16.1,2.23,19.12,3.67,19.12,3.67Z" fill="#d6c2aa" style="mix-blend-mode:soft-light"/><path d="M22.31,3.12s3.41-1.77,6.14-1.54c1.69.14,2.3.85,2.24.4S30,.47,28.31.5C25.43.55,22.31,3.12,22.31,3.12Z" fill="#d6c2aa" style="mix-blend-mode:soft-light"/><path d="M1.86,10.71c0,.74,1.09,1,1.67,1a2.83,2.83,0,0,0,1.54-.56A29.75,29.75,0,0,0,8.46,9.31c1-.75.82-2,2.08-2.26A25.42,25.42,0,0,1,15,7a7.71,7.71,0,0,0,3.33-.3c1.07-.53,2.18-1,3.33-1.49S22.29,4,23.49,4,27,5.07,28.11,5.23s2,.71,3.14-.14c.54-.42,2.24-1.65,1.51-2.49-.26-.29-1.13-.24-1.46-.15a1.78,1.78,0,0,1-1.38,0,11.89,11.89,0,0,0-3.41.14,11.09,11.09,0,0,0-3.25.57c-1,.36-1.68,1-2.79,1.1-2.21.21-4.6-.35-6.6.69a11.09,11.09,0,0,1-2.72,1.24c-1,.23-1.56,1.15-2.55,1.4a7.77,7.77,0,0,1-1.67,0,3.24,3.24,0,0,0-1.53.57c-.87.53-1.75,1-2.62,1.53a5.14,5.14,0,0,0-.71.47Z" fill="#d6c2aa" opacity="0.5" style="mix-blend-mode:soft-light"/><path d="M37.1,26.34c.08-3-3.44-2.36-6.6-3.83-2.24-1.05-2.86-3.25-7.06-3a2.84,2.84,0,0,1-1.76-.48,3.63,3.63,0,0,1,.22.76c.09.41.24.81.34,1.22a4.64,4.64,0,0,1,.13.91,1.62,1.62,0,0,1,.57.09c1.51.51,1.75,2,2.62,3.13a2,2,0,0,0,2.69.62,3.88,3.88,0,0,1,1.38-.57,2.38,2.38,0,0,1,2.46,1.06c.53.87.92,2.65,1.81,3.17,1.08.65,2.26,1.17,3.32.38C38.59,28.83,38.31,27.65,37.1,26.34Z" fill="#f8ac55"/><path d="M37.46,28.77A3.14,3.14,0,0,1,33.69,28a14,14,0,0,1-1.39-2.11c-.77-1.08-1.54-1-2.81-.91a5.68,5.68,0,0,1-4.25-1.87,6.63,6.63,0,0,0-2.9-1.55c0,.13,0,.26,0,.39a1.62,1.62,0,0,1,.57.09c1.51.51,1.75,2,2.62,3.13a2,2,0,0,0,2.69.62,3.88,3.88,0,0,1,1.38-.57,2.38,2.38,0,0,1,2.46,1.06c.53.87.92,2.65,1.81,3.17,1.08.65,2.26,1.17,3.32.38a1.87,1.87,0,0,0,.91-1.56A3.1,3.1,0,0,1,37.46,28.77Z" fill="#e4bca2" style="mix-blend-mode:multiply"/><path d="M29.27,22.4a5.68,5.68,0,0,0-3.44-1.74c-1.24-.09-2.22-.5-2.12-.82s1.1-.15,2.33.05A5.17,5.17,0,0,1,29.27,22.4Z" fill="#d6c2aa" style="mix-blend-mode:soft-light"/><path d="M31.38,23.47a10.22,10.22,0,0,1,4.28,1.77c.93.83,1,1.51,1.14,1.22a1.58,1.58,0,0,0-.75-1.91C34.34,23.32,31.38,23.47,31.38,23.47Z" fill="#d6c2aa" style="mix-blend-mode:soft-light"/><path d="M37,27a1.31,1.31,0,0,1-.81-.6A8.5,8.5,0,0,0,34.08,25a8,8,0,0,0-2.16-1.09,8.21,8.21,0,0,1-2.12-.57c-1.39-.85-2.55-2.21-4.18-2.47a8.44,8.44,0,0,1-2.13-.47A4.11,4.11,0,0,0,22,20.24l.09.32a1,1,0,0,1,.65.08,19.82,19.82,0,0,1,2.62,1.93,5.5,5.5,0,0,0,2.08,1.28c.87.16,1.74.35,2.62.58s.93-.46,1.63.06a33.93,33.93,0,0,1,2.16,2.75c.62.61.9,1.31,1.91,1.29.51,0,2,0,2-.8C37.72,27.44,37.19,27.1,37,27Z" fill="#d6c2aa" opacity="0.5" style="mix-blend-mode:soft-light"/><path d="M38.14,29.73c.86-.25,1.9-.71,2.79-.36,1.49.58,1.67,2.08,2.48,3.24a2,2,0,0,0,2.66.74,3.92,3.92,0,0,1,1.4-.5A2.35,2.35,0,0,1,49.88,34c.49.9.81,2.69,1.66,3.25,1.06.69,2.21,1.26,3.31.53,1.42-1,1.18-2.15,0-3.52.22-3-3.33-2.5-6.42-4.12-2.19-1.15-2.71-3.37-6.92-3.27-1.52.37-4.68-3.56-7.61-2.11-2.13,1.07-1.38,3.25,0,4.58S37.07,30,38.14,29.73Z" fill="#f8ac55"/><path d="M55.83,36.28a3.42,3.42,0,0,1-.69.45,3.15,3.15,0,0,1-3.74-.92,14.78,14.78,0,0,1-1.29-2.17c-.71-1.11-1.49-1.06-2.76-1a5.77,5.77,0,0,1-4.17-2.07c-1.47-1.44-3.34-2.23-6.32-1.9-1.92.22-4.21-.33-3.9-3-.79,1.14-.1,2.71,1,3.76,1.38,1.32,3.13.66,4.2.37.86-.25,1.9-.71,2.79-.36,1.49.58,1.67,2.08,2.48,3.24a2,2,0,0,0,2.66.74,3.92,3.92,0,0,1,1.4-.5A2.35,2.35,0,0,1,49.88,34c.49.9.81,2.69,1.66,3.25,1.06.69,2.21,1.26,3.31.53A1.88,1.88,0,0,0,55.83,36.28Z" fill="#e4bca2" style="mix-blend-mode:multiply"/><path d="M40.06,27.28a7.36,7.36,0,0,0-3.53-1.51c-1.23-.14-2.19-.6-2.08-.91s1.12-.11,2.33.16A5.83,5.83,0,0,1,40.06,27.28Z" fill="#d6c2aa" style="mix-blend-mode:soft-light"/><path d="M47.24,30a5.69,5.69,0,0,0-3.36-1.9c-1.23-.14-2.18-.6-2.08-.91s1.12-.11,2.33.16A5.12,5.12,0,0,1,47.24,30Z" fill="#d6c2aa" style="mix-blend-mode:soft-light"/><path d="M49.31,31.16a10.23,10.23,0,0,1,4.19,2c.9.86.91,1.55,1.09,1.26a1.58,1.58,0,0,0-.67-1.94C52.27,31.15,49.31,31.16,49.31,31.16Z" fill="#d6c2aa" style="mix-blend-mode:soft-light"/><path d="M34.2,26c-.36.4.13,1.1.46,1.37a2.11,2.11,0,0,0,1.13.39,19.74,19.74,0,0,0,2.8.5c.9,0,1.38-.74,2.22-.32a19.4,19.4,0,0,1,2.53,2,5.69,5.69,0,0,0,2,1.38c.85.19,1.72.42,2.58.69s.95-.42,1.63.13,1.47,2.23,2,2.85.83,1.35,1.84,1.38c.5,0,2,.1,2-.71,0-.29-.53-.66-.76-.77a1.29,1.29,0,0,1-.78-.64,8.55,8.55,0,0,0-2-1.49,7.8,7.8,0,0,0-2.1-1.18A8.37,8.37,0,0,1,47.74,31c-1.36-.91-2.45-2.33-4.07-2.66a8.2,8.2,0,0,1-2.11-.56c-.67-.34-1.42-.07-2.1-.39a5.94,5.94,0,0,1-.94-.77,2.21,2.21,0,0,0-1.13-.38c-.75-.11-1.46-.25-2.2-.35a4.53,4.53,0,0,0-.62-.07Z" fill="#d6c2aa" opacity="0.5" style="mix-blend-mode:soft-light"/><path d="M5.53,15.49c.86-.24,1.9-.71,2.79-.36,1.49.58,1.66,2.08,2.48,3.24a2,2,0,0,0,2.66.75,3.94,3.94,0,0,1,1.4-.51,2.39,2.39,0,0,1,2.41,1.17c.49.9.8,2.69,1.67,3.25,1,.7,2.2,1.27,3.3.53,1.42-.95,1.18-2.14,0-3.51.21-3-3.33-2.51-6.42-4.13-2.19-1.14-2.71-3.37-6.92-3.27C7.42,13,4.26,9.09,1.33,10.54c-2.13,1.07-1.38,3.25,0,4.58S4.46,15.79,5.53,15.49Z" fill="#f8ac55"/><path d="M23.22,22.05a3.42,3.42,0,0,1-.69.45,3.17,3.17,0,0,1-3.74-.92,14,14,0,0,1-1.28-2.18c-.73-1.11-1.5-1.06-2.77-1a5.74,5.74,0,0,1-4.17-2.07c-1.47-1.44-3.34-2.23-6.32-1.9-1.92.22-4.21-.33-3.9-3-.79,1.14-.1,2.72,1,3.76,1.38,1.32,3.13.67,4.2.37.86-.24,1.9-.71,2.79-.36,1.49.58,1.66,2.08,2.48,3.24a2,2,0,0,0,2.66.75,3.94,3.94,0,0,1,1.4-.51,2.39,2.39,0,0,1,2.41,1.17c.49.9.8,2.69,1.67,3.25,1,.7,2.2,1.27,3.3.53A1.87,1.87,0,0,0,23.22,22.05Z" fill="#e4bca2" style="mix-blend-mode:multiply"/><path d="M7.45,13a7.47,7.47,0,0,0-3.52-1.51c-1.24-.14-2.19-.6-2.08-.91s1.11-.1,2.33.16A5.83,5.83,0,0,1,7.45,13Z" fill="#d6c2aa" style="mix-blend-mode:soft-light"/><path d="M14.63,15.76a5.7,5.7,0,0,0-3.35-1.9C10,13.72,9.09,13.27,9.2,13s1.11-.1,2.33.16A5.12,5.12,0,0,1,14.63,15.76Z" fill="#d6c2aa" style="mix-blend-mode:soft-light"/><path d="M16.7,16.92a10.18,10.18,0,0,1,4.19,2c.89.87.91,1.56,1.09,1.27a1.59,1.59,0,0,0-.67-1.94C19.65,16.91,16.7,16.92,16.7,16.92Z" fill="#d6c2aa" style="mix-blend-mode:soft-light"/><path d="M1.59,11.76c-.36.4.13,1.1.46,1.37a2.21,2.21,0,0,0,1.13.4A21.26,21.26,0,0,0,6,14c.9,0,1.38-.74,2.22-.31a18.53,18.53,0,0,1,2.53,2,5.56,5.56,0,0,0,2,1.38c.85.2,1.71.43,2.58.7s.95-.42,1.62.13a32,32,0,0,1,2,2.85c.59.63.84,1.34,1.85,1.37.5,0,2,.11,2-.71,0-.29-.53-.66-.76-.76a1.34,1.34,0,0,1-.78-.64,8.58,8.58,0,0,0-2-1.5,8.38,8.38,0,0,0-2.1-1.18,8.37,8.37,0,0,1-2.09-.67c-1.36-.91-2.45-2.32-4.06-2.66A8.28,8.28,0,0,1,9,13.5c-.67-.33-1.42-.07-2.1-.39a5.94,5.94,0,0,1-.94-.77A2.31,2.31,0,0,0,4.78,12c-.75-.11-1.46-.25-2.2-.35A3.34,3.34,0,0,0,2,11.55Z" fill="#d6c2aa" opacity="0.5" style="mix-blend-mode:soft-light"/><path d="M41.86,17.63c0,1.56-2.84,2.71-8.38,2.71s-10-1.26-10-2.81,4.49-2.81,10-2.81S41.86,16.08,41.86,17.63Z" fill="#dfc7c6" style="mix-blend-mode:multiply"/><path d="M41.93,14.53c0,2.82-3.85,5.1-8.59,5.1s-8.6-2.28-8.6-5.1a3.24,3.24,0,0,1,.37-1.48c1.07-2.09,4.35-3.61,8.23-3.61a11.61,11.61,0,0,1,6.57,1.81A4.1,4.1,0,0,1,41.93,14.53Z" fill="#ede7ca"/><path d="M36.7,17.84a17.69,17.69,0,0,1-5.28,1.66,15,15,0,0,0,1.92.13c4.74,0,8.59-2.28,8.59-5.1a3.08,3.08,0,0,0-.29-1.3A10.59,10.59,0,0,1,36.7,17.84Z" fill="#dfd6a5"/><path d="M39.91,11.25c-.22,2.68-3.6,4.81-7.73,4.81-3.16,0-5.86-1.23-7.07-3,1.07-2.09,4.35-3.61,8.23-3.61A11.61,11.61,0,0,1,39.91,11.25Z" fill="#eaded6" style="mix-blend-mode:multiply"/><path d="M40.24,11.53c0,2.26-3.09,4.09-6.9,4.09s-6.91-1.83-6.91-4.09c0-1.35,1.09-2.55,2.78-3.29a10.31,10.31,0,0,1,4.13-.81A9,9,0,0,1,39,9.16,3.12,3.12,0,0,1,40.24,11.53Z" fill="#ede7ca"/><path d="M32.88,14.88A8.88,8.88,0,0,1,28,12.38a2.59,2.59,0,0,1-.78-1.72c0-.32.42-1.08.51-1.54a3.18,3.18,0,0,0-1.33,2.41c0,2.26,3.09,4.09,6.91,4.09,2.94,0,5.44-1.09,6.44-2.62A9.11,9.11,0,0,1,32.88,14.88Z" fill="#dfd6a5"/><path d="M39,9.16a5.29,5.29,0,0,1-4.73,2.37c-2.6,0-4.75-1.44-5-3.29a10.31,10.31,0,0,1,4.13-.81A9,9,0,0,1,39,9.16Z" fill="#eaded6" style="mix-blend-mode:multiply"/><path d="M30.17,8.84A2.56,2.56,0,0,0,32.74,10,3.57,3.57,0,0,0,35,8.19c1.13-2.06-.39-3.83-2.06-4.95-.07.56.19,1,0,1.6a3.47,3.47,0,0,1-.71,1.5c-.64.73-1.93,1.08-2.28,1.91Z" fill="#fff"/><path d="M28.56,10.81a5.84,5.84,0,0,0,4.18,3.46,10.35,10.35,0,0,0,2.94.08A5.49,5.49,0,0,0,38.23,13c.49-.4,1.79-1.1,1.27-2-.4-.67-2.13.45-2.71.67-2.11.81-5.06,1-6.72-.74-.27-.28-.51-.77-.91-.88C29.16,10,28.2,9.5,28.56,10.81Z" fill="#fff"/><path d="M26,16.72c.41.82,1,.81,1.56,1.09.44.21.88.27,1.31.46a5,5,0,0,0,2.81.42,11.74,11.74,0,0,0,5.61-2.63c.21-.18.42-.3.47-.58a12.41,12.41,0,0,0-3.18.69,18.56,18.56,0,0,1-3.25.45c-2,.08-4.53-.31-5.86-2.09A7.92,7.92,0,0,0,26,16.72Z" fill="#fff"/><path d="M39.34,9.14c0,2-2.69,3.56-6,3.56s-6-1.59-6-3.56a2.22,2.22,0,0,1,.26-1c.75-1.46,3-2.53,5.75-2.53a8.17,8.17,0,0,1,4.59,1.27A2.89,2.89,0,0,1,39.34,9.14Z" fill="#ede7ca"/><path d="M35.68,11.45A12,12,0,0,1,32,12.61a9.73,9.73,0,0,0,1.34.09c3.31,0,6-1.59,6-3.56a2.23,2.23,0,0,0-.2-.91A7.41,7.41,0,0,1,35.68,11.45Z" fill="#dfd6a5"/><path d="M37.93,6.85c-.16,1.87-2.52,3.36-5.4,3.36a6,6,0,0,1-4.94-2.1c.75-1.46,3-2.53,5.75-2.53A8.17,8.17,0,0,1,37.93,6.85Z" fill="#eaded6" style="mix-blend-mode:multiply"/><path d="M38.16,7.05c0,1.58-2.16,2.86-4.82,2.86s-4.83-1.28-4.83-2.86a2.78,2.78,0,0,1,1.95-2.3,7.11,7.11,0,0,1,2.88-.57,6.28,6.28,0,0,1,3.93,1.21A2.2,2.2,0,0,1,38.16,7.05Z" fill="#ede7ca"/><path d="M33,9.39a6.18,6.18,0,0,1-3.39-1.75,1.86,1.86,0,0,1-.55-1.2c0-.22.3-.76.36-1.07a2.21,2.21,0,0,0-.93,1.68c0,1.58,2.16,2.86,4.83,2.86,2,0,3.8-.77,4.49-1.84A6.33,6.33,0,0,1,33,9.39Z" fill="#dfd6a5"/><path d="M37.27,5.39A3.69,3.69,0,0,1,34,7.05c-1.82,0-3.32-1-3.51-2.3a7.11,7.11,0,0,1,2.88-.57A6.28,6.28,0,0,1,37.27,5.39Z" fill="#eaded6" style="mix-blend-mode:multiply"/><path d="M36.32,4.91c0,1.08-1.34,2-3,2s-3-.87-3-1.95c0-2.24,3.77-.62,1.89-4.91C34.3,0,36.32,3.83,36.32,4.91Z" fill="#ede7ca"/><path d="M32.75.08C34,1.42,35.86,2.78,35,4.8a2.6,2.6,0,0,1-2.43,1.53,3.36,3.36,0,0,1-2.11-.9,3,3,0,0,0,2.87,1.43c1.64,0,3-.87,3-1.95S34.61.61,32.75.08Z" fill="#dfd6a5"/><path d="M31.13,5.17A1.77,1.77,0,0,0,32.92,6a2.46,2.46,0,0,0,1.57-1.25c.79-1.43-.27-2.67-1.44-3.46,0,.4.14.7,0,1.13a2.32,2.32,0,0,1-.49,1c-.45.51-1.35.76-1.59,1.33Z" fill="#fff"/><path d="M30,6.55A4.09,4.09,0,0,0,32.92,9a7,7,0,0,0,2,0,3.79,3.79,0,0,0,1.79-1c.34-.28,1.25-.77.88-1.37s-1.49.31-1.89.47c-1.47.57-3.54.68-4.7-.52-.19-.2-.35-.54-.63-.62C30.42,6,29.75,5.63,30,6.55Z" fill="#fff"/><path d="M28.21,10.67c.28.58.67.57,1.08.76s.62.19.92.33a3.55,3.55,0,0,0,2,.29,8.13,8.13,0,0,0,3.92-1.84c.14-.12.3-.21.33-.4a8.33,8.33,0,0,0-2.22.48,12.4,12.4,0,0,1-2.27.31c-1.37.06-3.17-.22-4.1-1.46A5.66,5.66,0,0,0,28.21,10.67Z" fill="#fff"/></g></g></g></svg>