<svg xmlns="http://www.w3.org/2000/svg" viewBox="0 0 64.24 62.97"><g style="isolation:isolate"><g id="Layer_2" data-name="Layer 2"><g id="Capa_1" data-name="Capa 1"><path d="M33.91,13.25C30,14.33,28.7,15,24.23,15c-3.79,0-5.65-.36-10.13-1.79C9.26,11.7,1.42,15,.27,25.06-2.06,45.55,11.07,62,18.1,62c4,0,5.91-1.89,5.91-1.89S25.91,62,29.91,62c7,0,21.45-18.75,18.05-36C45.83,15.23,39.47,11.7,33.91,13.25Z" fill="#d00b10"/><path d="M5.39,43.88A15.17,15.17,0,0,1,10.76,46a53.75,53.75,0,0,0,5.41,2.33c3.83,1.46,9,3,12.21-.64a18.49,18.49,0,0,0,4.55-12.06,7.94,7.94,0,0,0-7.46-7.92c-3-.3-6.24.45-9.25-.18a11.86,11.86,0,0,1-6.08-3.68C8.54,22.15,7.06,20,5,18.93a4.69,4.69,0,0,0-1.32-.48,16,16,0,0,0-2.15,6.61A42.93,42.93,0,0,0,3.66,44,5.84,5.84,0,0,1,5.39,43.88Z" fill="#e30613"/><path d="M48,26C45.83,15.23,39.47,11.7,33.91,13.25,30,14.33,28.7,15,24.23,15c-3.79,0-5.65-.36-10.13-1.79a8.41,8.41,0,0,0-4-.22,11.88,11.88,0,0,0,.39,2,10.08,10.08,0,0,0,2.92,5c3.72,3.31,9,3.5,13.53,2.83A43.86,43.86,0,0,0,31.59,22a8.7,8.7,0,0,1,2.3-.46A3.54,3.54,0,0,1,37,23.41c1.86,3,2.15,6.81,2.37,10.29a32.51,32.51,0,0,1-1,11.63c-1.08,3.5-3,7-6.1,8.75s-6.74.32-10.24-.17-6.72,2.76-10,1.18c-2.58-1.21-5.5-5.17-7.85-6.83,4,8.38,10,13.73,14,13.73S24,60.1,24,60.1,25.91,62,29.91,62C36.94,62,51.36,43.24,48,26Z" fill="#d0c5c5" style="mix-blend-mode:multiply"/><path d="M25.29,18.64c.05,1-1,1.63-1.06.13S25.32,7.19,18.73,2.2C18.68.33,19.54-.32,20.85.14,26.11,4.62,25.25,17.62,25.29,18.64Z" fill="#400a00"/><path d="M25,18.83a56.49,56.49,0,0,1-7.86-.89A17,17,0,0,0,25,20.34a17,17,0,0,0,7.85-2.4A56.26,56.26,0,0,1,25,18.83Z" fill="#841001"/><path d="M37.66,2.57s-1.28,5.26-5,7.45-8.45.48-8.45.48,1.28-5.26,5-7.45S37.66,2.57,37.66,2.57Z" fill="#3a6627"/><path d="M36.58,3.21S35.4,8.05,32,10.06s-7.77.44-7.77.44,1.18-4.84,4.59-6.85S36.58,3.21,36.58,3.21Z" fill="#47742c"/><path d="M36.58,3.21a32,32,0,0,0-6.75,3,28.23,28.23,0,0,0-5.6,4.34s1.18-4.84,4.59-6.85S36.58,3.21,36.58,3.21Z" fill="#62812c"/><path d="M43.53,62c-10.48,4.09-17.19-5.31-20-10.6-1-1.91-.8-3.58.5-4.08L63.21,32C67.51,43.73,57.8,56.39,43.53,62Z" fill="#d00b10"/><path d="M45,59.87c-10.18,4-16.53-6.11-18.85-10.78-.66-1.33-.5-2.42.38-2.76L62.9,32.1C66.9,43,58,54.76,45,59.87Z" fill="#f7daa2"/><path d="M51.13,38.51A2.69,2.69,0,0,0,50,37.12L36.17,42.54a2.91,2.91,0,0,0,0,1.82c.77,2.35,2.52,3.8,6.66,2.18S51.9,40.85,51.13,38.51Z" fill="#daa670"/><path d="M42.76,44.68c-1,.6-2.16.44-2.55-.35a2.11,2.11,0,0,1,1.14-2.52c1-.6,4.65-.88,4.65-.88S43.78,44.08,42.76,44.68Z" fill="#301b16"/><path d="M42.7,44.34c-.5.3-1,.31-1.14,0s.16-.73.66-1a11.59,11.59,0,0,1,2.19-.65A12.7,12.7,0,0,1,42.7,44.34Z" fill="#563332"/></g></g></g></svg>