<svg xmlns="http://www.w3.org/2000/svg" viewBox="0 0 37.39 61.1"><g id="Layer_2" data-name="Layer 2"><g id="Capa_1" data-name="Capa 1"><path d="M5,61.1s1.22-4.62,2.79-5.57,11.27-.75,17.74-6.4c3.48-3,7.09-9.91,7.09-9.91l-3.4,1a31.56,31.56,0,0,0,6.32-9.7c2.25-6.14,1.79-14.63,1.79-14.63l-2.13,2.35a20.86,20.86,0,0,0,.11-7.53c-1.21-5.76-2.8-6.82-2.1-8.62A3.58,3.58,0,0,1,35.84,0,11.5,11.5,0,0,0,31,1C21.23,6,18.27,11.39,18.27,11.39l-.36-2.61A45.62,45.62,0,0,0,7.26,20.84a25.4,25.4,0,0,0-3.53,9.78L3.25,26.9S-1,35.4.22,42.46,6.55,54.83,6.55,54.83L3.34,60.17Z" fill="#f39200"/><path d="M7.62,54.59l1.56-2a6.61,6.61,0,0,0,.75-1.12l.82-1.36.44-.75c.14-.27.27-.55.41-.84.28-.57.57-1.17.88-1.79.56-1.27,1.14-2.67,1.7-4.17s1.1-3.09,1.61-4.76c1.08-3.32,2.1-6.9,3.19-10.47.55-1.78,1.14-3.55,1.74-5.29S22,18.57,22.62,17s1.34-3.17,2.11-4.58c.38-.72.71-1.43,1.08-2.08L27,8.42a27.9,27.9,0,0,1,2.18-3.14L30.08,4,31,3l1.74-1.89L31.07,3.07l-.88,1c-.28.4-.58.84-.91,1.3a36.26,36.26,0,0,0-2.07,3.19l-1.09,1.88c-.36.66-.67,1.37-1,2.08-.73,1.42-1.35,3-2,4.59s-1.26,3.32-1.86,5S20,25.68,19.5,27.46C18.39,31,17.35,34.6,16.24,37.92c-.52,1.67-1.12,3.25-1.69,4.75s-1.2,2.89-1.79,4.16c-.33.62-.64,1.22-.93,1.79l-.44.82c-.16.26-.32.5-.48.74L10,51.52a7.6,7.6,0,0,1-.79,1.1Z" fill="#d87200"/><path d="M31.08,40.5l-.7.76-.82.87a13,13,0,0,1-1.12,1.07c-.43.37-.87.82-1.38,1.21s-1,.84-1.62,1.27L23.62,46.9c-.65.38-1.3.78-2,1.15s-1.35.7-2.05,1-1.36.59-2,.83-1.33.44-1.95.63-1.23.32-1.79.44a20.25,20.25,0,0,1-2.72.4c-.66.05-1,0-1,0s.38,0,1-.14,1.57-.31,2.66-.6a32.4,32.4,0,0,0,3.64-1.22c.66-.24,1.32-.54,2-.84s1.33-.67,2-1,1.31-.73,2-1.09l1.82-1.18,1.64-1.19c.53-.37,1-.78,1.43-1.13s.85-.66,1.18-1l.89-.8Z" fill="#d87200"/><path d="M36.54,19.65,36,20.88c-.18.4-.41.87-.67,1.42s-.53,1.17-.9,1.82-.75,1.36-1.17,2.1a26,26,0,0,1-1.38,2.31c-.53.77-1,1.62-1.61,2.39s-1.14,1.61-1.79,2.37-1.27,1.54-2,2.22a26,26,0,0,1-2.1,2c-.36.3-.69.62-1.05.88l-1.08.77a12.38,12.38,0,0,1-1.07.66,10.43,10.43,0,0,1-1,.57l-1,.46-.92.32a10,10,0,0,1-1.53.38,5.52,5.52,0,0,1-1,.1h-.36a5.92,5.92,0,0,0,1.34-.19A10.66,10.66,0,0,0,18.18,41l.88-.37.94-.49c.33-.16.64-.39,1-.6a12.21,12.21,0,0,0,1-.69,25.23,25.23,0,0,0,2.05-1.68,27,27,0,0,0,2-2c.69-.68,1.28-1.48,1.93-2.21s1.2-1.57,1.8-2.33,1.09-1.59,1.62-2.35,1-1.51,1.44-2.25l1.24-2c.39-.64.69-1.25,1-1.77l.76-1.37C36.29,20.08,36.54,19.65,36.54,19.65Z" fill="#d87200"/><path d="M34.07,10s0,.48-.1,1.33c0,.42-.08.93-.13,1.52a13.59,13.59,0,0,1-.33,2A17.27,17.27,0,0,1,33,17.11a25.29,25.29,0,0,1-.86,2.48c-.4.82-.72,1.72-1.22,2.55a23.5,23.5,0,0,1-1.53,2.47l-.87,1.18-.95,1.09a27,27,0,0,1-2,2c-.68.61-1.36,1.17-2,1.67s-1.32.95-1.95,1.32a18,18,0,0,1-1.72,1c-.53.26-1,.49-1.38.66a12.8,12.8,0,0,1-1.24.48s.44-.18,1.19-.58a26.11,26.11,0,0,0,3-1.81c.61-.39,1.23-.87,1.88-1.38s1.28-1.1,1.95-1.7a26.2,26.2,0,0,0,1.91-2l.92-1.08.83-1.17a24.4,24.4,0,0,0,1.54-2.4c.5-.8.82-1.68,1.22-2.48s.62-1.65.92-2.42a15.84,15.84,0,0,0,.63-2.23,18.26,18.26,0,0,0,.44-1.92c.09-.59.16-1.1.22-1.51C34,10.49,34.07,10,34.07,10Z" fill="#d87200"/><path d="M31.7,3.45s0,.34,0,.93c0,.3,0,.66,0,1.07s-.12.87-.21,1.38a12.14,12.14,0,0,1-.36,1.61q-.12.42-.24.87c-.11.29-.22.58-.34.88l-.35.9c-.15.3-.3.6-.44.9a19.52,19.52,0,0,1-1,1.78c-.33.6-.77,1.13-1.14,1.68S26.75,16.5,26.33,17a27.11,27.11,0,0,1-2.46,2.46,18.71,18.71,0,0,1-2.71,2,28.31,28.31,0,0,0,2.5-2.25c.72-.7,1.5-1.59,2.31-2.55.4-.48.79-1,1.18-1.52s.78-1.08,1.1-1.67a17.37,17.37,0,0,0,1-1.72l.45-.87.36-.88.36-.85c.09-.29.19-.57.28-.84a11.87,11.87,0,0,0,.44-1.55c.11-.49.22-.94.31-1.34s.1-.76.13-1.06C31.66,3.79,31.7,3.45,31.7,3.45Z" fill="#d87200"/><path d="M2.47,31.94s0,.35-.05,1c0,.31,0,.68-.07,1.11s0,.9,0,1.42a14.06,14.06,0,0,0,.07,1.68c.06.6.08,1.23.2,1.87A19.94,19.94,0,0,0,3,41c.15.67.29,1.35.5,2a20.71,20.71,0,0,0,.61,2c.21.66.49,1.27.72,1.88.53,1.19,1,2.3,1.56,3.21a26.33,26.33,0,0,0,1.85,3s-.25-.25-.64-.73S6.63,51.1,6.07,50.2A27.82,27.82,0,0,1,4.35,47c-.25-.61-.55-1.23-.77-1.89s-.47-1.32-.65-2-.34-1.37-.48-2.06-.21-1.36-.3-2A14,14,0,0,1,2,37.13a12.07,12.07,0,0,1,0-1.71c0-.53,0-1,.1-1.44s.12-.79.17-1.09C2.41,32.28,2.47,31.94,2.47,31.94Z" fill="#d87200"/><path d="M11.09,17s-.12.48-.32,1.33c-.11.42-.23.93-.38,1.52s-.33,1.24-.48,2l-.48,2.34C9.24,25,9.1,25.87,9,26.79s-.34,1.85-.41,2.82-.23,1.95-.26,2.93-.14,2-.1,2.94,0,1.92.14,2.84A26,26,0,0,0,8.69,41,10.38,10.38,0,0,0,9,42.14a10.42,10.42,0,0,0,.32,1.11c.12.35.24.68.35,1l.39.88a10,10,0,0,0,.77,1.35,6.43,6.43,0,0,0,.85,1.05l-.27-.24a6.34,6.34,0,0,1-.67-.75,9.47,9.47,0,0,1-.86-1.32l-.45-.86-.4-1a10.31,10.31,0,0,1-.37-1.11A11.28,11.28,0,0,1,8.3,41c-.09-.42-.18-.85-.27-1.3s-.12-.9-.18-1.36c-.13-.93-.14-1.9-.18-2.88s0-2,.06-3,.21-2,.3-3,.31-1.92.46-2.84A24.37,24.37,0,0,1,9,24.08c.2-.83.4-1.62.58-2.34s.4-1.37.58-1.95l.47-1.49C10.93,17.47,11.09,17,11.09,17Z" fill="#d87200"/><path d="M16.24,12,15.75,13l-.57,1.22c-.24.46-.4,1-.63,1.61a14.66,14.66,0,0,0-.66,1.94c-.17.7-.41,1.43-.57,2.21s-.32,1.58-.4,2.4-.2,1.66-.17,2.51a21,21,0,0,0,0,2.51,23.25,23.25,0,0,0,.27,2.42c.12.78.29,1.53.44,2.24s.35,1.37.56,2A22.18,22.18,0,0,0,15.68,38a11.37,11.37,0,0,1-.61-1,21.31,21.31,0,0,1-1.3-2.82c-.24-.59-.43-1.26-.66-2s-.39-1.46-.52-2.26a23.6,23.6,0,0,1-.31-2.46,24.35,24.35,0,0,1-.08-2.57c0-.86.15-1.71.21-2.55s.31-1.65.45-2.45.44-1.52.65-2.22a16,16,0,0,1,.76-1.94A12.61,12.61,0,0,1,15,14.16c.25-.45.48-.84.66-1.17Z" fill="#d87200"/><path d="M26.34,4.58l-.6.86c-.39.56-1,1.32-1.6,2.28-.32.48-.66,1-1,1.55s-.67,1.17-1.05,1.78l-.55.94L21,13c-.17.33-.33.67-.5,1l-.44,1.05-.44,1.05-.36,1.07c-.27.7-.41,1.43-.6,2.11s-.28,1.38-.36,2a15.24,15.24,0,0,0-.14,1.83,12.9,12.9,0,0,0,0,1.56,10.16,10.16,0,0,0,.16,1.19,7,7,0,0,0,.25,1,6.54,6.54,0,0,1-.36-1c-.09-.33-.18-.73-.26-1.2a11.74,11.74,0,0,1-.14-1.57,15.14,15.14,0,0,1,.05-1.88,18.29,18.29,0,0,1,.3-2.08c.18-.7.32-1.44.57-2.16l.36-1.1c.13-.36.29-.72.43-1.08l.46-1.06c.18-.34.35-.68.52-1l.52-1,.57-.94c.38-.62.72-1.23,1.12-1.76l1.1-1.52c.67-.94,1.35-1.62,1.76-2.15Z" fill="#d87200"/><path d="M8.24,54.6c9.88-.89,15.33-5,16.84-6.14a18.12,18.12,0,0,0,5-6.26,28.26,28.26,0,0,1-9.76,7.17A39.81,39.81,0,0,1,11,51.87C10,52,8.17,54.6,8.24,54.6Z" fill="#f8a800"/><path d="M15.5,42.05A13.64,13.64,0,0,0,23,38.69c2.92-2.69,6-4.92,8.1-8.24a61.81,61.81,0,0,0,4.09-7.11l1.17-2.72s-.75,5.48-1.31,6.67S31,33.7,29.81,34.58s-3.32,3-3.32,3a19.13,19.13,0,0,0,3.84-2.8c1.19-1.32,4.6-5.87,4.6-5.87a30.47,30.47,0,0,1-2.28,5.29,18.72,18.72,0,0,1-3.32,4.13c-.64.5-3,2.25-3,2.25l3.78-2.53L28.44,40.3l1.09.11a16.37,16.37,0,0,1-5.67,4.87c-5.64,3.12-11.94,5-12.08,4.72s1-2.37,1-2.37l8-2.25-7.21,1,.83-1.56,6.08-1.38-5.73.44Z" fill="#f8a800"/><path d="M18.56,33.93a43.17,43.17,0,0,0,7.72-5.51,37.71,37.71,0,0,0,5.19-6.53,29.91,29.91,0,0,0,2.26-6.54c.31-1.63.79-3.6.79-3.6a14,14,0,0,1,.34,3.93c-.24,1.29-3,7.58-3,7.58l3-4.31c.54-.79,1.86-2.3,1.86-2.3a13.6,13.6,0,0,1-1.5,3.5C34.16,22,28.78,30,28.78,30l2.4-2.59A44.15,44.15,0,0,1,26,34.44c-2.6,2.67-4.85,4.4-6.71,5.11a14.79,14.79,0,0,1-3.54.86l.73-1.71a18,18,0,0,0,3.93-.9,43.9,43.9,0,0,0,3.74-2.45,27.5,27.5,0,0,1-4.47,2,11.5,11.5,0,0,1-2.84,0l.48-1.13a17.51,17.51,0,0,0,3-.34,10.72,10.72,0,0,0,2-.75,9.51,9.51,0,0,1-2.86.38A4.31,4.31,0,0,1,17.7,35Z" fill="#f8a800"/><path d="M21.82,21.64A29,29,0,0,0,30,12.09,12.91,12.91,0,0,0,31.82,7c.05-.75.07-1.51.09-2.26,0-.39-.1-.74-.11-1.13s.14-.73.12-1a10,10,0,0,1,.61,3.65,16.12,16.12,0,0,1-.32,2.57c-.13.77-.51,1.51-.61,2.25.72-.57,1-1.95,1.12-2.78s.1-1.5.24-2.21c1,.93.24,2,.43,3.07a5.74,5.74,0,0,1,.36-.5c0,.39-.17.76-.18,1.16A9.25,9.25,0,0,1,33.5,11c-.15.82-.42,1.64-.58,2.45A46.25,46.25,0,0,1,31.43,18a11.62,11.62,0,0,1-1.14,2.78c-.24.38-.48.77-.74,1.13a8.07,8.07,0,0,1-.74,1.22,21.65,21.65,0,0,1,1.11-3.43,9,9,0,0,0-1.87,4.37c-.73,1.3-5.54,6-9.64,8.56L18.92,31l5.63-4.93-5.22,3.6.74-2.38,3.27-2.38-2.9,1.2L21,24.3l2.53-1.95-2.1.57Z" fill="#f8a800"/><path d="M22.49,19.49a59.79,59.79,0,0,1,3.4-7.92c1.61-2.78,5.38-8.06,5.38-8.06A17.52,17.52,0,0,1,29.35,8a22.58,22.58,0,0,0-1.79,2.64,23.55,23.55,0,0,0,2.35-2.4A17.22,17.22,0,0,0,31.1,6.08a38.87,38.87,0,0,1-3.27,7C26.34,15.13,22.49,19.49,22.49,19.49Z" fill="#f8a800"/><path d="M7,54.94C.86,47.17.73,42.52.54,40.61a20.1,20.1,0,0,1,1.32-8.38,20.27,20.27,0,0,0,.7,11.82c1.08,3.06,3.17,6,4.93,8.66C8,53.54,7,54.94,7,54.94Z" fill="#f8a800"/><path d="M10.12,17.75A48.07,48.07,0,0,0,6.83,28.17c-.25,1.44-.62,5-.62,5s-.29-2.32-.3-4.1C5.9,26.52,8,21,8,21a33.46,33.46,0,0,0-2.34,5.52,18.32,18.32,0,0,0-.7,5.25c.06.81.42,3.73.42,3.73l-1-5.21-.46,2.75-.78-3.34s-.58,7.3.57,11.72c1.62,6.25,4.6,11.18,4.9,11.1a17.24,17.24,0,0,0,1.88-2.39L5.68,42.81l5.05,7a7.82,7.82,0,0,0,.5-1.58C3.14,38.14,10.12,17.75,10.12,17.75Z" fill="#f8a800"/><path d="M15.2,38.35c-.38-1.05-5.4-8-2.25-20.06a40.06,40.06,0,0,1,2.58-6.62s-3.95,4.12-5.18,17.78l1.16-12.27S8.93,29.85,8.79,33.57a25.8,25.8,0,0,0,1.12,9.34,15,15,0,0,0,1.82,3.17l.73-1.71a17.57,17.57,0,0,1-2-3.47,43.54,43.54,0,0,1-.81-4.4,27.54,27.54,0,0,0,1.65,4.6,11.84,11.84,0,0,0,1.94,2.08L13.69,42a17.19,17.19,0,0,1-1.81-2.38,11.41,11.41,0,0,1-.82-2A9.29,9.29,0,0,0,12.76,40a4.14,4.14,0,0,0,1.58.9Z" fill="#f8a800"/><path d="M18.79,12.67c-.86.3-1.25-3-1.25-3s-5.14,11.15-4,14.3a14.65,14.65,0,0,0,1.52-3.1,6.89,6.89,0,0,1-1.44,4.5c-.44,1.42.57,7.37,1.82,11.42l.84-1.5L15.08,29.5,16.51,33l1.17-2.72-1.3-2.67,1.41,1.3a2,2,0,0,0,.58-1.52C14.32,16.66,25.62,4.71,25.62,4.71S20.08,9,18.79,12.67Z" fill="#f8a800"/><path d="M18.93,25.26S21.76,17.55,23,14.6A49.37,49.37,0,0,1,31.78,1.08s-5.66,4-5.88,5.63-3.15,6.05-3.15,6.05l1.1-2.56a12.11,12.11,0,0,0,.78-2.7s-3.77,6.77-4.55,9.2A28.73,28.73,0,0,0,18.93,25.26Z" fill="#f8a800"/></g></g></svg>