<svg xmlns="http://www.w3.org/2000/svg" viewBox="0 0 60.94 52.95"><g style="isolation:isolate"><g id="Layer_2" data-name="Layer 2"><g id="Capa_1" data-name="Capa 1"><path d="M60.94,15.38C60.94,36,50.42,53,30.47,53S0,36,0,15.38Z" fill="#45babd"/><path d="M32.12,27c-.68,2.93-.42,8.23,1.24,10.86a11.65,11.65,0,0,0,6.7,4.83,25.76,25.76,0,0,0,9.57.85c5.32-5.57,8.06-12,8.06-21.41C57.69,22.13,54.39,27.71,32.12,27Z" fill="#fff" opacity="0.5" style="mix-blend-mode:soft-light"/><path d="M36.59,47.63C27.87,46.89,19,44.06,15.2,35.41c-3-7-1.25-14.39,3.27-20H0C0,36,10.51,53,30.47,53a27.62,27.62,0,0,0,18.31-6.37A34,34,0,0,1,36.59,47.63Z" fill="#c8d2d8" style="mix-blend-mode:multiply"/><ellipse cx="30.47" cy="15.38" rx="30.47" ry="10.32" fill="#88cdd1"/><path d="M57.43,14.71c0,4.67-12.07,8.46-27,8.46s-27-3.79-27-8.46,12.08-8.46,27-8.46S57.43,10,57.43,14.71Z" fill="#006d74"/><path d="M55.72,14.71c0,4.67-11.31,8.46-25.25,8.46S5.22,19.38,5.22,14.71s8.25-9.2,12-11.21c2.12-1.11,6.62-.13,11.53,1.13C30.24,5,32.61-.06,37.38,0,42.65.07,55.72,12,55.72,14.71Z" fill="#ffdc88"/><path d="M6.12,11.92c1.54,1.52,2.74,2.76,5,3.45a44.65,44.65,0,0,0,7.5,1.49c4.16.5,8.48.57,12.28-1.3-4.19-.42-8.42.42-12.58-.25C16,14.92,13.1,14.45,11,13.22c-1.6-.94-2.2-2.31-.68-3.66a2.35,2.35,0,0,0,1-2.52A18.54,18.54,0,0,0,6.12,11.92Z" fill="#ebddd9" style="mix-blend-mode:multiply"/><path d="M32.67,4.91a9.85,9.85,0,0,0,.9-3.79c-2.35,1.45-3.78,3.76-4.78,3.51-2.21-.57-4.34-1.07-6.2-1.36C25.61,5.84,30.43,9.45,32.67,4.91Z" fill="#ebddd9" style="mix-blend-mode:multiply"/><path d="M40.88,9.52a6.5,6.5,0,0,1-3.27,2.82,5.59,5.59,0,0,0,3.57-1.47c1.16-1,2.11-2.51,3.45-3.34a10.78,10.78,0,0,1,4.07-1l-1.25-1a14.21,14.21,0,0,0-3.22.88A6.06,6.06,0,0,0,40.88,9.52Z" fill="#ebddd9" style="mix-blend-mode:multiply"/><path d="M49.86,7.53a12.73,12.73,0,0,1-3.1,1.36A10.13,10.13,0,0,0,44.07,10c-.78.56-.54,1.52-.73,2.29A2.9,2.9,0,0,1,41.81,14c-2,1.07-4.56-.12-6.66.53a3.79,3.79,0,0,0-2.65,2.79,1.92,1.92,0,0,1-.64.8,4.84,4.84,0,0,1-2.73.84,54.91,54.91,0,0,1-11.32-.1c-4.33-.48-9.6-.93-12.58-4.44,0,.1,0,.2,0,.3,0,4.67,11.3,8.46,25.25,8.46s25.25-3.79,25.25-8.46C55.72,13.51,53.17,10.51,49.86,7.53Z" fill="#ebddd9" style="mix-blend-mode:multiply"/><path d="M52.77,10.36l-.14.19C50.86,12.66,49,15,46.52,16.36a8.51,8.51,0,0,1-3.23,1.11c-1.24.11-2.52-.21-3.74,0-3.1.41-4.93,3.91-7.77,5.09a19,19,0,0,1-1.93.65h.62c13.94,0,25.25-3.79,25.25-8.46C55.72,13.89,54.55,12.26,52.77,10.36Z" fill="#ebddd9" style="mix-blend-mode:multiply"/><path d="M29.07,14.41c-2.74,0-5.6.17-8.3-.1-2.37-.23-4.43-.08-6.49-1.36a6.73,6.73,0,0,1-2.18-1.69c-.71-1.24.19-1.39,1.11-1.95.47-.28.62-.15.93-.62s.11-1,.53-1.55a10.31,10.31,0,0,1,2.6-1.72,4.72,4.72,0,0,1,5.82.39c1.71,1.34,4.17,2.75,6.5,2.5s3.75-2.56,5-4.42,2.63-3,5.22-2.59c1.48.23,2.86,1.4,4,2.33,2,1.55.2,1.78-1.31,2.47-2.82,1.3-3.63,5.13-6.72,6.12.42,2.3-3.9,1.54-5.34,1.54Z" fill="#fff" opacity="0.5" style="mix-blend-mode:soft-light"/><path d="M23.25,7.5a2.21,2.21,0,1,0,.57-3.07A2.21,2.21,0,0,0,23.25,7.5Z" fill="#6a931e"/><path d="M23.38,4.83c.05,3.17,3.49,2.86,2.94,3.24a2.21,2.21,0,0,1-2.94-3.24Z" fill="#b6c8bd" style="mix-blend-mode:multiply"/><path d="M25.4,4.54c-.16.3.05.81.46,1.15s.87.39,1,.1-.05-.81-.46-1.16S25.55,4.25,25.4,4.54Z" fill="#fff" style="mix-blend-mode:soft-light"/><path d="M32,11.61a2.21,2.21,0,1,0,.57-3.07A2.2,2.2,0,0,0,32,11.61Z" fill="#6a931e"/><path d="M32.16,8.94c.05,3.17,3.49,2.86,2.93,3.24a2.2,2.2,0,0,1-2.93-3.24Z" fill="#b6c8bd" style="mix-blend-mode:multiply"/><path d="M34.18,8.65c-.16.3,0,.81.46,1.16s.87.38,1,.09,0-.81-.46-1.15S34.33,8.36,34.18,8.65Z" fill="#fff" style="mix-blend-mode:soft-light"/><path d="M31.75,5.59a2.21,2.21,0,1,0,.58-3.06A2.21,2.21,0,0,0,31.75,5.59Z" fill="#6a931e"/><path d="M31.89,2.93c.05,3.17,3.49,2.86,2.93,3.24a2.2,2.2,0,0,1-2.93-3.24Z" fill="#b6c8bd" style="mix-blend-mode:multiply"/><path d="M33.9,2.64c-.16.29.05.81.46,1.15s.87.39,1,.1-.06-.81-.47-1.16S34.06,2.35,33.9,2.64Z" fill="#fff" style="mix-blend-mode:soft-light"/><path d="M38.5,9.55a2.21,2.21,0,1,0-2.91-1.13A2.22,2.22,0,0,0,38.5,9.55Z" fill="#6a931e"/><path d="M35.91,8.93C39,9.46,39.35,6,39.63,6.63A2.22,2.22,0,0,1,38.5,9.55,2.19,2.19,0,0,1,35.91,8.93Z" fill="#b6c8bd" style="mix-blend-mode:multiply"/><path d="M36,6.9a1.11,1.11,0,0,0,1.22-.25c.41-.34.53-.78.27-1s-.8-.1-1.21.24S35.73,6.69,36,6.9Z" fill="#fff" style="mix-blend-mode:soft-light"/><path d="M21.28,9.86a2.21,2.21,0,1,0-2.91-1.13A2.22,2.22,0,0,0,21.28,9.86Z" fill="#6a931e"/><path d="M18.68,9.24c3.13.53,3.45-2.91,3.72-2.3a2.21,2.21,0,0,1-3.72,2.3Z" fill="#b6c8bd" style="mix-blend-mode:multiply"/><path d="M18.76,7.21A1.11,1.11,0,0,0,20,7c.41-.34.54-.78.28-1s-.81-.1-1.22.24S18.5,7,18.76,7.21Z" fill="#fff" style="mix-blend-mode:soft-light"/><path d="M28.59,10a2.21,2.21,0,1,0-2.66-1.64A2.22,2.22,0,0,0,28.59,10Z" fill="#6a931e"/><path d="M26.15,8.9c3,1.09,3.92-2.23,4.08-1.57A2.21,2.21,0,0,1,26.15,8.9Z" fill="#b6c8bd" style="mix-blend-mode:multiply"/><path d="M26.61,6.92c.21.25.77.24,1.24,0s.67-.67.45-.92a1.09,1.09,0,0,0-1.24,0C26.59,6.26,26.39,6.67,26.61,6.92Z" fill="#fff" style="mix-blend-mode:soft-light"/></g></g></g></svg>