<svg xmlns="http://www.w3.org/2000/svg" viewBox="0 0 65.94 69.76"><g style="isolation:isolate"><g id="Layer_2" data-name="Layer 2"><g id="Capa_1" data-name="Capa 1"><path d="M65.57,64.75c1.88,2.23-3.86,6.37-5.39,4.57a83.05,83.05,0,0,0-6.33-5.84l6.64-6.16A86.74,86.74,0,0,0,65.57,64.75Z" fill="#698826"/><path d="M24.61,34.88c7.3,7.29,11.7,14.74,9.81,16.63s-7.85-3.35-15.16-10.64A130.15,130.15,0,0,1,6.93,26.62S17.3,27.58,24.61,34.88Z" fill="#3a5f1d"/><path d="M33.77,16c5.93,8.45,9,16.55,6.77,18.09S29.43,31,23.5,22.54A185.62,185.62,0,0,1,13,5.4S27.84,7.51,33.77,16Z" fill="#3a5f1d"/><path d="M44.66,26.16c7.46,7.14,9.39,14.67,7.26,16.3S44.72,38,38.33,29.88C28.63,17.6,32.69,7.76,32.69,7.76S30.9,13,44.66,26.16Z" fill="#698826"/><path d="M24.18,24.44c6.27,8.21,7.79,19.15,5.71,20.84s-7.6-4-14-12.15C2.53,16.06,0,0,0,0S11.94,8.44,24.18,24.44Z" fill="#698826"/><path d="M54.86,40.86c9.9,11.67,6.36,16.88,1.41,21.08s-11.89,2.91-19.34-5.87C24.13,41,10.69,17.87,15.65,13.67S42.06,25.77,54.86,40.86Z" fill="#f9b22a"/><path d="M16.58,17.51c.28.81.06,1.6-.52,1.75l-1.21.32c-.58.15-1.28-.44-1.55-1.33h0c-.28-.89,0-1.71.55-1.81l1.2-.23c.57-.11,1.24.48,1.53,1.3Z" fill="#f9b22a" stroke="#eaa028" stroke-miterlimit="10" stroke-width="0.46"/><path d="M17.93,20.77c.32.81.15,1.61-.48,1.82L16,23.07c-.62.21-1.35-.34-1.66-1.22h0c-.32-.88-.1-1.71.51-1.88l1.41-.37c.62-.17,1.31.37,1.64,1.17Z" fill="#f9b22a" stroke="#eaa028" stroke-miterlimit="10" stroke-width="0.47"/><path d="M19.43,24c.36.79.23,1.6-.44,1.88l-1.62.68c-.67.28-1.41-.24-1.76-1.1h0c-.36-.87-.19-1.73.47-2l1.61-.56A1.54,1.54,0,0,1,19.43,24Z" fill="#f9b22a" stroke="#eaa028" stroke-miterlimit="10" stroke-width="0.49"/><path d="M21.09,27.06a1.35,1.35,0,0,1-.4,2l-1.82.9c-.71.36-1.47-.12-1.86-1h0c-.4-.85-.28-1.73.43-2l1.81-.76a1.49,1.49,0,0,1,1.84.91Z" fill="#f9b22a" stroke="#eaa028" stroke-miterlimit="10" stroke-width="0.5"/><path d="M22.88,30.07a1.36,1.36,0,0,1-.36,2l-2,1.16c-.75.44-1.52,0-2-.83h0c-.43-.84-.37-1.72.38-2.1l2-1a1.46,1.46,0,0,1,1.92.78Z" fill="#f9b22a" stroke="#eaa028" stroke-miterlimit="10" stroke-width="0.51"/><path d="M24.82,33a1.4,1.4,0,0,1-.32,2.08l-2.17,1.46c-.78.53-1.56.13-2-.69h0a1.48,1.48,0,0,1,.34-2.18l2.18-1.29a1.43,1.43,0,0,1,2,.62Z" fill="#f9b22a" stroke="#eaa028" stroke-miterlimit="10" stroke-width="0.53"/><path d="M26.88,35.76a1.45,1.45,0,0,1-.26,2.15l-2.33,1.8c-.82.63-1.61.26-2.12-.54h0a1.53,1.53,0,0,1,.28-2.26l2.36-1.61a1.4,1.4,0,0,1,2.07.46Z" fill="#f9b22a" stroke="#eaa028" stroke-miterlimit="10" stroke-width="0.54"/><path d="M29.07,38.44a1.49,1.49,0,0,1-.21,2.23l-2.48,2.15a1.34,1.34,0,0,1-2.18-.37h0a1.58,1.58,0,0,1,.22-2.35l2.51-2a1.39,1.39,0,0,1,2.14.29Z" fill="#f9b22a" stroke="#eaa028" stroke-miterlimit="10" stroke-width="0.56"/><path d="M31.37,41a1.52,1.52,0,0,1-.15,2.3l-2.59,2.55a1.35,1.35,0,0,1-2.25-.2h0a1.63,1.63,0,0,1,.15-2.43l2.65-2.34a1.39,1.39,0,0,1,2.19.12Z" fill="#f9b22a" stroke="#eaa028" stroke-miterlimit="10" stroke-width="0.57"/><path d="M33.79,43.42a1.57,1.57,0,0,1-.09,2.38l-2.7,3a1.34,1.34,0,0,1-2.29,0h0a1.68,1.68,0,0,1,.08-2.52l2.77-2.75a1.38,1.38,0,0,1,2.23-.07Z" fill="#f9b22a" stroke="#eaa028" stroke-miterlimit="10" stroke-width="0.59"/><path d="M36.31,45.71c.61.58.86,1.36,0,2.46l-2.77,3.45c-.88,1.1-1.68.86-2.34.15h0a1.72,1.72,0,0,1,0-2.59L34,46c.92-1,1.66-.83,2.27-.26Z" fill="#f9b22a" stroke="#eaa028" stroke-miterlimit="10" stroke-width="0.6"/><path d="M38.93,47.86c.64.55.93,1.3,0,2.54l-2.81,3.94c-.88,1.24-1.68,1-2.37.35h0A1.77,1.77,0,0,1,33.72,52l2.92-3.69c.92-1.15,1.66-1,2.29-.46Z" fill="#f9b22a" stroke="#eaa028" stroke-miterlimit="10" stroke-width="0.61"/><path d="M41.78,50.14c.63.54.92,1.3,0,2.53S40,55.3,39,56.62s-1.68,1-2.37.35h0a1.79,1.79,0,0,1-.08-2.69l2.93-3.69c.91-1.14,1.65-1,2.29-.45Z" fill="#f9b22a" stroke="#eaa028" stroke-miterlimit="10" stroke-width="0.61"/><path d="M44.23,52.54c.63.54.92,1.29.05,2.53s-1.88,2.63-2.81,4-1.68,1-2.37.35h0A1.78,1.78,0,0,1,39,56.68L41.94,53c.91-1.15,1.66-1,2.29-.45Z" fill="#f9b22a" stroke="#eaa028" stroke-miterlimit="10" stroke-width="0.61"/><path d="M47.13,55c.64.54.93,1.3,0,2.53l-2.81,3.95c-.88,1.23-1.68,1-2.37.35h0a1.78,1.78,0,0,1-.08-2.69l2.92-3.69c.92-1.14,1.66-1,2.29-.45Z" fill="#f9b22a" stroke="#eaa028" stroke-miterlimit="10" stroke-width="0.61"/><path d="M49.77,56.41c.63.55.92,1.3,0,2.53l-2.82,4c-.87,1.24-1.68,1-2.37.35h0a1.78,1.78,0,0,1-.08-2.69l2.93-3.68c.91-1.15,1.66-1,2.29-.46Z" fill="#f9b22a" stroke="#eaa028" stroke-miterlimit="10" stroke-width="0.61"/><path d="M53,57.23c.64.55.93,1.3,0,2.54l-2.81,3.94c-.88,1.24-1.68,1-2.37.35h0a1.78,1.78,0,0,1-.08-2.69l2.92-3.68c.92-1.15,1.66-1,2.29-.46Z" fill="#f9b22a" stroke="#eaa028" stroke-miterlimit="10" stroke-width="0.61"/><path d="M20.9,19.78a1.64,1.64,0,0,1-.24,2.39l-1.95,1.65a1.65,1.65,0,0,1-2.41-.14h0a1.66,1.66,0,0,1,.25-2.4l1.95-1.65a1.65,1.65,0,0,1,2.4.15Z" fill="#f9b22a" stroke="#eaa028" stroke-miterlimit="10" stroke-width="0.59"/><path d="M23.5,22.54A1.65,1.65,0,0,1,23.22,25L21,26.81a1.64,1.64,0,0,1-2.43-.12h0a1.64,1.64,0,0,1,.28-2.42l2.17-1.85a1.66,1.66,0,0,1,2.44.12Z" fill="#f9b22a" stroke="#eaa028" stroke-miterlimit="10" stroke-width="0.61"/><path d="M25.66,25.6a1.65,1.65,0,0,1-.31,2.45l-2.41,2A1.64,1.64,0,0,1,20.48,30h0a1.64,1.64,0,0,1,.31-2.45l2.4-2a1.65,1.65,0,0,1,2.47.09Z" fill="#f9b22a" stroke="#eaa028" stroke-miterlimit="10" stroke-width="0.62"/><path d="M27.78,28.69a1.64,1.64,0,0,1-.34,2.47L24.8,33.4a1.64,1.64,0,0,1-2.49-.07h0a1.65,1.65,0,0,1,.34-2.47l2.64-2.24a1.64,1.64,0,0,1,2.49.07Z" fill="#f9b22a" stroke="#eaa028" stroke-miterlimit="10" stroke-width="0.64"/><path d="M30.33,31.41A1.63,1.63,0,0,1,30,33.9L27.1,36.34a1.63,1.63,0,0,1-2.52-.05h0a1.63,1.63,0,0,1,.36-2.49l2.87-2.44a1.64,1.64,0,0,1,2.52.05Z" fill="#f9b22a" stroke="#eaa028" stroke-miterlimit="10" stroke-width="0.66"/><path d="M32.89,34.13a1.64,1.64,0,0,1-.39,2.52l-3.1,2.63c-1.06.89-2,.68-2.55,0h0a1.64,1.64,0,0,1,.39-2.52l3.1-2.63a1.64,1.64,0,0,1,2.55,0Z" fill="#f9b22a" stroke="#eaa028" stroke-miterlimit="10" stroke-width="0.67"/><path d="M35.45,36.85c.59.7.68,1.61-.43,2.55l-3.33,2.82c-1.1.94-2,.71-2.58,0h0c-.59-.7-.68-1.6.43-2.54l3.33-2.83c1.1-.93,2-.7,2.58,0Z" fill="#f9b22a" stroke="#eaa028" stroke-miterlimit="10" stroke-width="0.69"/><path d="M38,39.57c.6.7.71,1.59-.45,2.57l-3.56,3c-1.15,1-2,.73-2.61,0h0c-.59-.7-.7-1.59.45-2.57l3.57-3c1.15-1,2-.73,2.6,0Z" fill="#f9b22a" stroke="#eaa028" stroke-miterlimit="10" stroke-width="0.71"/><path d="M40.56,42.29c.6.7.73,1.57-.48,2.6L36.29,48.1c-1.21,1-2,.76-2.64.06h0c-.6-.71-.73-1.58.48-2.6l3.79-3.22c1.21-1,2-.75,2.64-.05Z" fill="#f9b22a" stroke="#eaa028" stroke-miterlimit="10" stroke-width="0.73"/><path d="M43.12,45c.59.7.74,1.56-.51,2.62l-4,3.41c-1.25,1.07-2.07.78-2.66.08h0c-.6-.7-.75-1.55.51-2.62l4-3.41c1.25-1.07,2.07-.78,2.67-.08Z" fill="#f9b22a" stroke="#eaa028" stroke-miterlimit="10" stroke-width="0.74"/><path d="M45.38,47.68c.6.7.75,1.56-.51,2.62l-4,3.42c-1.26,1.06-2.07.77-2.67.07h0c-.59-.7-.74-1.55.51-2.62l4-3.41c1.25-1.06,2.07-.78,2.66-.08Z" fill="#f9b22a" stroke="#eaa028" stroke-miterlimit="10" stroke-width="0.74"/><path d="M48.39,50.35c.6.7.75,1.55-.51,2.62l-4,3.41c-1.26,1.07-2.07.78-2.67.08h0c-.6-.7-.74-1.55.51-2.62l4-3.41c1.26-1.07,2.07-.78,2.67-.08Z" fill="#f9b22a" stroke="#eaa028" stroke-miterlimit="10" stroke-width="0.74"/><path d="M51.35,52.76c.59.7.74,1.55-.51,2.62l-4,3.41c-1.25,1.07-2.07.78-2.66.08h0c-.6-.7-.75-1.56.51-2.62l4-3.41c1.26-1.07,2.07-.78,2.67-.08Z" fill="#f9b22a" stroke="#eaa028" stroke-miterlimit="10" stroke-width="0.74"/><path d="M54.31,55.28c.59.7.74,1.55-.51,2.62l-4,3.41c-1.25,1.06-2.07.78-2.66.08h0c-.6-.71-.75-1.56.51-2.62l4-3.42c1.26-1.06,2.07-.77,2.67-.07Z" fill="#f9b22a" stroke="#eaa028" stroke-miterlimit="10" stroke-width="0.74"/><path d="M19.4,15.55c.78.39,1.58.27,1.81-.28l.47-1.17c.22-.55-.28-1.32-1.12-1.7h0c-.85-.39-1.69-.24-1.87.31-.13.39-.25.78-.38,1.16-.18.55.32,1.3,1.09,1.68Z" fill="#f9b22a" stroke="#eaa028" stroke-miterlimit="10" stroke-width="0.46"/><path d="M22.48,17.31c.75.42,1.57.35,1.86-.24s.43-.9.65-1.35-.16-1.38-1-1.81h0c-.83-.42-1.69-.31-1.92.28l-.56,1.35a1.59,1.59,0,0,0,1,1.77Z" fill="#f9b22a" stroke="#eaa028" stroke-miterlimit="10" stroke-width="0.47"/><path d="M25.45,19.21c.73.45,1.55.43,1.92-.2l.87-1.52c.36-.63,0-1.43-.86-1.9h0c-.82-.46-1.69-.4-2,.23s-.5,1-.76,1.53a1.55,1.55,0,0,0,.83,1.86Z" fill="#f9b22a" stroke="#eaa028" stroke-miterlimit="10" stroke-width="0.49"/><path d="M28.31,21.24a1.34,1.34,0,0,0,2-.15c.38-.56.75-1.12,1.12-1.69s.08-1.47-.72-2h0c-.8-.5-1.68-.49-2.06.17s-.66,1.14-1,1.7a1.49,1.49,0,0,0,.68,1.94Z" fill="#f9b22a" stroke="#eaa028" stroke-miterlimit="10" stroke-width="0.5"/><path d="M31.06,23.4a1.38,1.38,0,0,0,2.05-.1l1.4-1.83c.53-.69.2-1.51-.58-2h0c-.77-.54-1.66-.58-2.13.12L30.54,21.4a1.44,1.44,0,0,0,.52,2Z" fill="#f9b22a" stroke="#eaa028" stroke-miterlimit="10" stroke-width="0.51"/><path d="M33.7,25.69a1.4,1.4,0,0,0,2.1-.05c.58-.65,1.15-1.31,1.73-2s.33-1.53-.43-2.11h0a1.48,1.48,0,0,0-2.2.06l-1.56,2a1.42,1.42,0,0,0,.36,2.07Z" fill="#f9b22a" stroke="#eaa028" stroke-miterlimit="10" stroke-width="0.53"/><path d="M36.21,28.09a1.44,1.44,0,0,0,2.17,0L40.45,26c.73-.73.46-1.56-.26-2.17h0a1.53,1.53,0,0,0-2.28,0c-.63.71-1.27,1.42-1.9,2.14a1.4,1.4,0,0,0,.2,2.11Z" fill="#f9b22a" stroke="#eaa028" stroke-miterlimit="10" stroke-width="0.54"/><path d="M38.58,30.6a1.48,1.48,0,0,0,2.24.07l2.45-2.18a1.35,1.35,0,0,0-.09-2.21h0a1.57,1.57,0,0,0-2.35-.08l-2.27,2.24a1.4,1.4,0,0,0,0,2.16Z" fill="#f9b22a" stroke="#eaa028" stroke-miterlimit="10" stroke-width="0.56"/><path d="M40.83,33.21a1.52,1.52,0,0,0,2.3.14L46,31.1a1.34,1.34,0,0,0,.08-2.25h0a1.63,1.63,0,0,0-2.43-.16c-.88.78-1.76,1.56-2.65,2.33a1.39,1.39,0,0,0-.16,2.19Z" fill="#f9b22a" stroke="#eaa028" stroke-miterlimit="10" stroke-width="0.57"/><path d="M42.93,35.92a1.57,1.57,0,0,0,2.37.21l3.3-2.3a1.34,1.34,0,0,0,.27-2.27h0a1.68,1.68,0,0,0-2.51-.24l-3.08,2.39a1.39,1.39,0,0,0-.35,2.21Z" fill="#f9b22a" stroke="#eaa028" stroke-miterlimit="10" stroke-width="0.59"/><path d="M44.88,38.71c.49.67,1.24,1,2.44.29l3.77-2.31c1.2-.73,1.07-1.56.45-2.3h0A1.72,1.72,0,0,0,49,34.07l-3.54,2.42c-1.12.78-1,1.54-.54,2.22Z" fill="#f9b22a" stroke="#eaa028" stroke-miterlimit="10" stroke-width="0.6"/><path d="M46.68,41.58c.46.7,1.17,1.08,2.51.37l4.27-2.29c1.33-.71,1.23-1.53.65-2.3h0a1.79,1.79,0,0,0-2.66-.42l-4,2.43c-1.25.76-1.2,1.52-.74,2.21Z" fill="#f9b22a" stroke="#eaa028" stroke-miterlimit="10" stroke-width="0.61"/><path d="M48.58,44.69c.46.7,1.17,1.08,2.5.37l4.27-2.29c1.34-.71,1.24-1.54.65-2.3h0A1.78,1.78,0,0,0,53.35,40l-4,2.44c-1.25.76-1.2,1.52-.74,2.21Z" fill="#f9b22a" stroke="#eaa028" stroke-miterlimit="10" stroke-width="0.61"/><path d="M50.64,47.43c.46.7,1.17,1.08,2.51.37l4.27-2.29c1.34-.71,1.23-1.54.65-2.31h0a1.78,1.78,0,0,0-2.66-.42l-4,2.43c-1.25.77-1.19,1.52-.74,2.22Z" fill="#f9b22a" stroke="#eaa028" stroke-miterlimit="10" stroke-width="0.61"/><path d="M52.71,50.62c.46.7,1.17,1.08,2.51.37l4.27-2.29c1.33-.71,1.23-1.54.65-2.31h0A1.79,1.79,0,0,0,57.48,46l-4,2.44c-1.25.76-1.2,1.52-.74,2.21Z" fill="#f9b22a" stroke="#eaa028" stroke-miterlimit="10" stroke-width="0.61"/><path d="M53.79,53.41c.46.7,1.16,1.08,2.5.37l4.27-2.29c1.34-.71,1.23-1.53.65-2.3h0a1.77,1.77,0,0,0-2.65-.42l-4,2.43c-1.26.76-1.2,1.52-.74,2.21Z" fill="#f9b22a" stroke="#eaa028" stroke-miterlimit="10" stroke-width="0.61"/><path d="M54.19,56.72c.46.69,1.17,1.08,2.51.36L61,54.8c1.33-.72,1.23-1.54.65-2.31h0A1.79,1.79,0,0,0,59,52.07l-4,2.43c-1.25.76-1.2,1.52-.74,2.22Z" fill="#f9b22a" stroke="#eaa028" stroke-miterlimit="10" stroke-width="0.61"/><path d="M20.65,20.37a1.65,1.65,0,0,0,2.41.05l1.88-1.72a1.64,1.64,0,0,0,.17-2.4h0a1.65,1.65,0,0,0-2.41-.06L20.81,18a1.66,1.66,0,0,0-.16,2.41Z" fill="#f9b22a" stroke="#eaa028" stroke-miterlimit="10" stroke-width="0.59"/><path d="M23.06,23.29a1.65,1.65,0,0,0,2.44,0l2.11-1.93A1.65,1.65,0,0,0,27.8,19h0a1.65,1.65,0,0,0-2.44,0l-2.11,1.93a1.65,1.65,0,0,0-.19,2.43Z" fill="#f9b22a" stroke="#eaa028" stroke-miterlimit="10" stroke-width="0.61"/><path d="M25.82,25.82a1.65,1.65,0,0,0,2.47,0l2.33-2.13a1.63,1.63,0,0,0,.22-2.45h0a1.65,1.65,0,0,0-2.47,0L26,23.36a1.65,1.65,0,0,0-.22,2.46Z" fill="#f9b22a" stroke="#eaa028" stroke-miterlimit="10" stroke-width="0.62"/><path d="M28.62,28.31a1.63,1.63,0,0,0,2.49,0L33.67,26a1.64,1.64,0,0,0,.24-2.48h0a1.64,1.64,0,0,0-2.49,0l-2.56,2.33a1.64,1.64,0,0,0-.24,2.48Z" fill="#f9b22a" stroke="#eaa028" stroke-miterlimit="10" stroke-width="0.64"/><path d="M31,31.19a1.64,1.64,0,0,0,2.52,0l2.78-2.54a1.65,1.65,0,0,0,.28-2.51h0a1.65,1.65,0,0,0-2.53,0l-2.77,2.54a1.63,1.63,0,0,0-.28,2.5Z" fill="#f9b22a" stroke="#eaa028" stroke-miterlimit="10" stroke-width="0.66"/><path d="M33.37,34.08A1.64,1.64,0,0,0,35.92,34l3-2.74a1.64,1.64,0,0,0,.3-2.53h0a1.64,1.64,0,0,0-2.55.07l-3,2.74a1.65,1.65,0,0,0-.3,2.54Z" fill="#f9b22a" stroke="#eaa028" stroke-miterlimit="10" stroke-width="0.67"/><path d="M35.74,37c.62.68,1.51.88,2.58-.1l3.22-3c1.08-1,1-1.88.34-2.56h0c-.63-.68-1.51-.87-2.58.1L36.07,34.4c-1.07,1-1,1.88-.33,2.56Z" fill="#f9b22a" stroke="#eaa028" stroke-miterlimit="10" stroke-width="0.69"/><path d="M38.12,39.84c.62.68,1.48.89,2.6-.13l3.45-3.15c1.12-1,1-1.9.36-2.58h0c-.62-.68-1.49-.9-2.61.12l-3.45,3.15c-1.11,1-1,1.91-.35,2.59Z" fill="#f9b22a" stroke="#eaa028" stroke-miterlimit="10" stroke-width="0.71"/><path d="M40.49,42.72c.62.68,1.47.91,2.63-.15l3.68-3.36c1.16-1.06,1-1.93.38-2.6h0c-.62-.68-1.46-.92-2.63.14l-3.67,3.36c-1.17,1.06-1,1.93-.39,2.61Z" fill="#f9b22a" stroke="#eaa028" stroke-miterlimit="10" stroke-width="0.73"/><path d="M42.87,45.6c.62.68,1.44.93,2.66-.18l3.89-3.55c1.22-1.12,1-2,.42-2.64h0c-.62-.68-1.45-.94-2.66.17L43.28,43c-1.22,1.11-1,2-.41,2.64Z" fill="#f9b22a" stroke="#eaa028" stroke-miterlimit="10" stroke-width="0.74"/><path d="M45.23,48.18c.62.68,1.44.94,2.66-.17l3.89-3.56c1.22-1.11,1-2,.42-2.63h0c-.62-.68-1.45-.94-2.66.17l-3.9,3.56c-1.22,1.11-1,2-.41,2.63Z" fill="#f9b22a" stroke="#eaa028" stroke-miterlimit="10" stroke-width="0.74"/><path d="M47.49,51.51c.62.68,1.45.93,2.66-.18l3.9-3.56c1.22-1.11,1-2,.41-2.63h0c-.62-.68-1.44-.94-2.66.17l-3.89,3.56c-1.22,1.11-1,2-.42,2.64Z" fill="#f9b22a" stroke="#eaa028" stroke-miterlimit="10" stroke-width="0.74"/><path d="M49.5,54.75c.63.68,1.45.93,2.67-.18L56.06,51c1.22-1.11,1-1.95.42-2.63h0c-.62-.68-1.45-.94-2.66.17l-3.9,3.56c-1.22,1.11-1,2-.42,2.64Z" fill="#f9b22a" stroke="#eaa028" stroke-miterlimit="10" stroke-width="0.74"/><path d="M51.63,58c.62.68,1.44.94,2.66-.17l3.89-3.56c1.22-1.11,1-2,.42-2.64h0c-.62-.68-1.45-.93-2.66.18L52,55.36c-1.22,1.12-1,2-.41,2.64Z" fill="#f9b22a" stroke="#eaa028" stroke-miterlimit="10" stroke-width="0.74"/><path d="M18,12.77a1.67,1.67,0,0,1-.2,2.35l-1.48,1.26A1.67,1.67,0,0,1,14,16.19h0a1.67,1.67,0,0,1,.19-2.35l1.49-1.26a1.67,1.67,0,0,1,2.35.19Z" fill="#f9b22a" stroke="#eaa028" stroke-miterlimit="10" stroke-width="0.56"/><path d="M20.54,15.49a1.66,1.66,0,0,1-.22,2.38l-1.71,1.45a1.66,1.66,0,0,1-2.38-.17h0a1.65,1.65,0,0,1,.22-2.37l1.71-1.46a1.67,1.67,0,0,1,2.38.17Z" fill="#f9b22a" stroke="#eaa028" stroke-miterlimit="10" stroke-width="0.57"/><path d="M23.1,18.21a1.66,1.66,0,0,1-.25,2.4l-2,1.65a1.65,1.65,0,0,1-2.4-.14h0a1.64,1.64,0,0,1,.25-2.4l1.94-1.65a1.66,1.66,0,0,1,2.41.14Z" fill="#f9b22a" stroke="#eaa028" stroke-miterlimit="10" stroke-width="0.59"/><path d="M25.65,20.93a1.65,1.65,0,0,1-.27,2.43L23.2,25.2a1.64,1.64,0,0,1-2.44-.12h0A1.65,1.65,0,0,1,21,22.66l2.18-1.85a1.64,1.64,0,0,1,2.43.12Z" fill="#f9b22a" stroke="#eaa028" stroke-miterlimit="10" stroke-width="0.61"/><path d="M28.21,23.66a1.63,1.63,0,0,1-.31,2.44l-2.4,2A1.65,1.65,0,0,1,23,28.05h0a1.65,1.65,0,0,1,.31-2.45l2.41-2a1.63,1.63,0,0,1,2.46.1Z" fill="#f9b22a" stroke="#eaa028" stroke-miterlimit="10" stroke-width="0.62"/><path d="M30.77,26.38a1.65,1.65,0,0,1-.34,2.47l-2.64,2.23A1.63,1.63,0,0,1,25.3,31h0a1.63,1.63,0,0,1,.34-2.47l2.63-2.23a1.64,1.64,0,0,1,2.5.07Z" fill="#f9b22a" stroke="#eaa028" stroke-miterlimit="10" stroke-width="0.64"/><path d="M58.47,59a1.64,1.64,0,0,1-.34,2.47l-2.64,2.24A1.64,1.64,0,0,1,53,63.67h0a1.63,1.63,0,0,1,.34-2.47L56,59a1.64,1.64,0,0,1,2.49.07Z" fill="#f9b22a" stroke="#eaa028" stroke-miterlimit="10" stroke-width="0.64"/><path d="M33.32,29.1A1.63,1.63,0,0,1,33,31.59L30.09,34A1.64,1.64,0,0,1,27.57,34h0a1.63,1.63,0,0,1,.36-2.49l2.87-2.44a1.63,1.63,0,0,1,2.52.05Z" fill="#f9b22a" stroke="#eaa028" stroke-miterlimit="10" stroke-width="0.66"/><path d="M35.88,31.82a1.64,1.64,0,0,1-.4,2.52L32.38,37a1.64,1.64,0,0,1-2.55,0h0a1.64,1.64,0,0,1,.4-2.52l3.1-2.63a1.64,1.64,0,0,1,2.55,0Z" fill="#f9b22a" stroke="#eaa028" stroke-miterlimit="10" stroke-width="0.67"/><path d="M56.6,56.24a1.64,1.64,0,0,1-.39,2.52l-3.1,2.63a1.64,1.64,0,0,1-2.55,0h0c-.6-.7-.66-1.62.39-2.52l3.1-2.63c1.06-.89,2-.68,2.55,0Z" fill="#f9b22a" stroke="#eaa028" stroke-miterlimit="10" stroke-width="0.67"/><path d="M38.44,34.54c.59.7.68,1.61-.43,2.54l-3.33,2.83c-1.1.94-2,.7-2.58,0h0c-.59-.7-.68-1.61.43-2.54l3.33-2.83c1.1-.94,2-.7,2.58,0Z" fill="#f9b22a" stroke="#eaa028" stroke-miterlimit="10" stroke-width="0.69"/><path d="M54.45,53.05c.59.7.68,1.6-.43,2.54l-3.33,2.83c-1.1.93-2,.7-2.58,0h0c-.59-.7-.68-1.61.43-2.55l3.33-2.82c1.1-.94,2-.71,2.58,0Z" fill="#f9b22a" stroke="#eaa028" stroke-miterlimit="10" stroke-width="0.69"/><path d="M41,37.26c.6.7.71,1.59-.45,2.57l-3.56,3c-1.16,1-2,.73-2.61,0h0c-.6-.7-.7-1.59.45-2.57l3.56-3c1.16-1,2-.73,2.61,0Z" fill="#f9b22a" stroke="#eaa028" stroke-miterlimit="10" stroke-width="0.71"/><path d="M52,50.25c.6.7.7,1.59-.45,2.57l-3.56,3c-1.16,1-2,.73-2.61,0h0c-.6-.7-.7-1.59.45-2.57l3.56-3c1.16-1,2-.73,2.61,0Z" fill="#f9b22a" stroke="#eaa028" stroke-miterlimit="10" stroke-width="0.71"/><path d="M43.55,40c.59.7.72,1.57-.48,2.59l-3.8,3.22c-1.2,1-2,.76-2.63.05h0c-.6-.7-.73-1.57.48-2.59L40.91,40c1.21-1,2-.75,2.64-.05Z" fill="#f9b22a" stroke="#eaa028" stroke-miterlimit="10" stroke-width="0.73"/><path d="M50.27,47.91c.6.7.73,1.57-.48,2.59L46,53.72c-1.21,1-2,.75-2.64.05h0c-.59-.7-.72-1.57.48-2.59L47.63,48c1.21-1,2-.76,2.64-.05Z" fill="#f9b22a" stroke="#eaa028" stroke-miterlimit="10" stroke-width="0.73"/><path d="M46.1,42.7c.6.7.75,1.55-.51,2.62l-4,3.41c-1.26,1.07-2.07.78-2.67.08h0c-.59-.7-.74-1.55.51-2.62l4-3.41c1.25-1.07,2.07-.78,2.66-.08Z" fill="#f9b22a" stroke="#eaa028" stroke-miterlimit="10" stroke-width="0.74"/><path d="M48.26,45.24c.6.7.75,1.55-.51,2.62l-4,3.41c-1.26,1.07-2.08.78-2.67.08h0c-.6-.7-.75-1.55.51-2.62l4-3.41c1.26-1.07,2.08-.78,2.67-.08Z" fill="#f9b22a" stroke="#eaa028" stroke-miterlimit="10" stroke-width="0.74"/><path d="M15,13.6a1.22,1.22,0,0,0-1,1.37,1,1,0,0,0,.5.71c.23.15.83.21.84-.21,0-.25-.19-.45-.23-.6s0-.08,0,0c.12-.14.24-.22.35-.34A.52.52,0,0,0,15,13.6Z" fill="#fff1be" style="mix-blend-mode:soft-light"/><path d="M17.56,16.69c-.74-.46-1.58.43-1.55,1.16a1.58,1.58,0,0,0,.37,1,1,1,0,0,0,1,.36.42.42,0,0,0,.31-.59.41.41,0,0,1-.05-.09c0,.08,0,.05,0-.11a1.39,1.39,0,0,0-.21-.27l-.07-.1v0l0-.08a.08.08,0,0,0,0,0h0v0h0c.18-.18.39-.25.49-.54A.55.55,0,0,0,17.56,16.69Z" fill="#fff1be" style="mix-blend-mode:soft-light"/><path d="M13.38,18a1.16,1.16,0,0,0,1,.95.45.45,0,0,0,.29-.82c-.16-.09-.11-.13-.16-.32A.55.55,0,0,0,13.38,18Z" fill="#fff1be" style="mix-blend-mode:soft-light"/><path d="M15.79,20.65a.72.72,0,0,0-1-.08.81.81,0,0,0-.25.95,1.58,1.58,0,0,0,.39.5.49.49,0,0,0,.85-.4v0h0v0A.71.71,0,0,0,15.79,20.65Z" fill="#fff1be" style="mix-blend-mode:soft-light"/><path d="M16.38,21.8a1.38,1.38,0,0,0,0,.78,1.7,1.7,0,0,0,.48.62c.33.28.81-.18.63-.54a1,1,0,0,1-.05-.63C17.55,21.41,16.52,21.19,16.38,21.8Z" fill="#fff1be" style="mix-blend-mode:soft-light"/><path d="M19.39,19.93a.72.72,0,0,0-.91.44,1.3,1.3,0,0,0,1.05,1.74.53.53,0,0,0,.47-.94s-.16-.13-.11-.08L19.82,21v-.14c0,.07,0,.06,0,0A.74.74,0,0,0,19.39,19.93Z" fill="#fff1be" style="mix-blend-mode:soft-light"/><path d="M19.23,12.59a1.07,1.07,0,0,0-.49,1.25.5.5,0,0,0,1,0c0-.11.07-.12.14-.2a.63.63,0,0,0,.16-.72A.61.61,0,0,0,19.23,12.59Z" fill="#fff1be" style="mix-blend-mode:soft-light"/><path d="M22.83,13.7a1.14,1.14,0,0,0-.66,1.35c.11.39.69.64.95.2a.27.27,0,0,1,.06-.1c-.06.09.07,0,.08-.05a3.61,3.61,0,0,0,.3-.25A.69.69,0,0,0,22.83,13.7Z" fill="#fff1be" style="mix-blend-mode:soft-light"/><path d="M23.38,16.34a2.37,2.37,0,0,0-.32.39.46.46,0,0,0,.57.67,2.7,2.7,0,0,0,.44-.24C24.63,16.75,23.87,15.85,23.38,16.34Z" fill="#fff1be" style="mix-blend-mode:soft-light"/><path d="M26.53,15.6c-.19.05-.37.09-.56.16a.5.5,0,0,0-.29.56.52.52,0,0,0,.6.42h.3a.59.59,0,0,0,.62-.53A.58.58,0,0,0,26.53,15.6Z" fill="#fff1be" style="mix-blend-mode:soft-light"/><path d="M22.75,22.22a1.9,1.9,0,0,0-1.47,1.06,1.27,1.27,0,0,0-.18.95,1.29,1.29,0,0,0,.57.71c.31.26.74-.15.58-.49,0,0,0-.06,0-.07l.05-.12a.84.84,0,0,1,.19-.36c.21-.26.65-.49.81-.88A.6.6,0,0,0,22.75,22.22Z" fill="#fff1be" style="mix-blend-mode:soft-light"/><path d="M19.94,25.68s0,0,0,0Z" fill="#fff1be" style="mix-blend-mode:soft-light"/><path d="M19.92,25.69h0v0Z" fill="#fff1be" style="mix-blend-mode:soft-light"/><path d="M19.16,24.67a1,1,0,0,0-.3,1.12c.12.3.5.47.77.6s.53-.29.35-.52l-.07-.11s0-.05,0-.07h0s0,0,0,0v0l.14-.19C20.48,24.9,19.7,24.25,19.16,24.67Z" fill="#fff1be" style="mix-blend-mode:soft-light"/><path d="M16.07,25.27a1.75,1.75,0,0,0,.2.35c.27.37.87,0,.67-.43,0-.05-.06-.2-.1-.28C16.6,24.41,15.81,24.79,16.07,25.27Z" fill="#fff1be" style="mix-blend-mode:soft-light"/><path d="M18.3,28.37a.89.89,0,0,0-.39-.12.25.25,0,0,0-.26.22.93.93,0,0,0,.06.4.4.4,0,1,0,.59-.5Z" fill="#fff1be" style="mix-blend-mode:soft-light"/><path d="M20.56,28.59a1.22,1.22,0,0,0,.38,1,.49.49,0,0,0,.58.13.51.51,0,0,0,.25-.66.91.91,0,0,1-.13-.48A.55.55,0,0,0,20.56,28.59Z" fill="#fff1be" style="mix-blend-mode:soft-light"/><path d="M25.59,23.89c-1.13.59-2.52,1.74-2.5,3.12a.51.51,0,0,0,1,.21c.44-1,1.8-1.41,2.49-2.19C27.08,24.45,26.24,23.55,25.59,23.89Z" fill="#fff1be" style="mix-blend-mode:soft-light"/><path d="M27.62,27.5c-.73-.11-1.67.82-2,1.39A1.57,1.57,0,0,0,26,31c.47.39.94-.31.66-.74s.13-.64.37-.86,1-.54,1.18-1.07A.67.67,0,0,0,27.62,27.5Z" fill="#fff1be" style="mix-blend-mode:soft-light"/><path d="M22.77,31.08a1.14,1.14,0,0,0-.59,1.3,1.58,1.58,0,0,0,1,1,.52.52,0,0,0,.57-.82l-.11-.1s-.13-.18-.07-.09a.25.25,0,0,1,0-.07h0s0,0,0,0l0-.08,0-.07a.9.9,0,0,0,.13-.39A.65.65,0,0,0,22.77,31.08Z" fill="#fff1be" style="mix-blend-mode:soft-light"/><path d="M20.52,34.12a.86.86,0,0,0-.28.85,1.12,1.12,0,0,0,.57.69.5.5,0,0,0,.59,0,.49.49,0,0,0,.05-.69l-.06-.07C21.75,34.36,21,33.64,20.52,34.12Z" fill="#fff1be" style="mix-blend-mode:soft-light"/><path d="M18.66,31a1.46,1.46,0,0,0,.3,1.79.51.51,0,0,0,.59.13.5.5,0,0,0,.24-.67c-.2-.35,0-.5-.05-.87A.6.6,0,0,0,18.66,31Z" fill="#fff1be" style="mix-blend-mode:soft-light"/><path d="M28.32,30.87c-1,.48-1.27,2.34-.07,2.77a.51.51,0,0,0,.67-.44c0-.25,0-.47,0-.71,0,0,.12-.32,0-.17.1-.19.22-.36.32-.55C29.6,31.19,28.84,30.63,28.32,30.87Z" fill="#fff1be" style="mix-blend-mode:soft-light"/><path d="M25.18,34.18a1.08,1.08,0,0,0-.36.86.48.48,0,0,0,1,.07,2.83,2.83,0,0,1,.17-.4C26.16,34.23,25.54,33.93,25.18,34.18Z" fill="#fff1be" style="mix-blend-mode:soft-light"/><path d="M23.07,36.71a1.89,1.89,0,0,0-.68,1.34.5.5,0,0,0,1,.09c.05-.28.35-.48.52-.68a.56.56,0,0,0,0-.68A.57.57,0,0,0,23.07,36.71Z" fill="#fff1be" style="mix-blend-mode:soft-light"/><path d="M25.09,40.65a.6.6,0,0,0-.72.24,1.2,1.2,0,0,0,.44,1.6c.51.33,1.23-.38.75-.83l-.09-.09a.26.26,0,0,1,0-.07c0,.12,0-.18,0-.21A.64.64,0,0,0,25.09,40.65Z" fill="#fff1be" style="mix-blend-mode:soft-light"/><path d="M27.85,37.21a1.54,1.54,0,0,0-.58.7,1,1,0,0,0,.23.88.45.45,0,0,0,.79-.33,1.19,1.19,0,0,0,.08-.16c0,.05.07-.06,0,0l.11-.08a.62.62,0,0,0,.29-.8A.6.6,0,0,0,27.85,37.21Z" fill="#fff1be" style="mix-blend-mode:soft-light"/><path d="M33.46,31.77c-1.61.85-4.53,2.88-3.1,5,.27.4.86,0,.8-.38-.23-1.72,2.2-2.28,3.14-3.28C34.86,32.48,34.3,31.33,33.46,31.77Z" fill="#fff1be" style="mix-blend-mode:soft-light"/><path d="M26.2,19.12a1.63,1.63,0,0,1-.45.24c-.56.2-.26,1.08.3,1a2.5,2.5,0,0,0,.75-.27A.56.56,0,1,0,26.2,19.12Z" fill="#fff1be" style="mix-blend-mode:soft-light"/><path d="M28.86,21.53l-.34.31a.51.51,0,0,0,.66.78l.37-.29C30.08,21.91,29.37,21.07,28.86,21.53Z" fill="#fff1be" style="mix-blend-mode:soft-light"/><path d="M32.63,23.6c-.43-.06-.76.31-1,.58a.53.53,0,0,0,.68.81,2.8,2.8,0,0,0,.75-.55A.54.54,0,0,0,32.63,23.6Z" fill="#fff1be" style="mix-blend-mode:soft-light"/><path d="M34.28,26.69a.51.51,0,0,0,.84.58.37.37,0,0,1,.14-.1c.18,0,.34,0,.51-.15a.52.52,0,0,0,.13-.6C35.5,25.71,34.62,26.19,34.28,26.69Z" fill="#fff1be" style="mix-blend-mode:soft-light"/><path d="M38.08,28.79a1.52,1.52,0,0,0-1.39.39.48.48,0,0,0-.11.54.44.44,0,0,0,.6.22c.28-.17.51-.09.82-.15C38.48,29.7,38.6,28.93,38.08,28.79Z" fill="#fff1be" style="mix-blend-mode:soft-light"/><path d="M29.59,17.84a.8.8,0,0,0-.3.19.51.51,0,0,0,.67.78l-.06,0A.52.52,0,1,0,29.59,17.84Z" fill="#fff1be" style="mix-blend-mode:soft-light"/><path d="M33.29,19.85a1.32,1.32,0,0,0-1.29.56c-.29.43.33,1,.7.63.18-.19.39-.15.64-.18a.5.5,0,0,0,.42-.46A.52.52,0,0,0,33.29,19.85Z" fill="#fff1be" style="mix-blend-mode:soft-light"/><path d="M36.25,21.6a1.37,1.37,0,0,0-.94.72A.5.5,0,0,0,36,23s.18-.08.1-.06.08,0,0,0l.09,0h0l.12.06a1.34,1.34,0,0,0,.27.13.65.65,0,0,0,.79-.87A1.08,1.08,0,0,0,36.25,21.6Z" fill="#fff1be" style="mix-blend-mode:soft-light"/><path d="M38.63,24.19A.63.63,0,0,0,39,25.38s.27,0,.18,0h.13l.16.07.2.13a.69.69,0,0,0,.83,0,.68.68,0,0,0,.18-.81A1.52,1.52,0,0,0,38.63,24.19Z" fill="#fff1be" style="mix-blend-mode:soft-light"/><path d="M42.23,26.21a1.45,1.45,0,0,0-1.4,1.41.54.54,0,0,0,.62.43,1.56,1.56,0,0,0,.59-.22l.06,0h.06l.34-.07a.77.77,0,0,0,.62-.89A.79.79,0,0,0,42.23,26.21Z" fill="#fff1be" style="mix-blend-mode:soft-light"/><path d="M44.5,28.83a1.74,1.74,0,0,0-1.16,1c-.21.41.35.9.73.67l.19-.1.05,0h.06l.19-.05h.22s.39.05.26,0a1.34,1.34,0,0,0,.6-.07.64.64,0,0,0,.36-.69C45.91,28.94,45.08,28.67,44.5,28.83Z" fill="#fff1be" style="mix-blend-mode:soft-light"/><path d="M48.39,31.62A1.49,1.49,0,0,0,47,31.4a1.72,1.72,0,0,0-.81.87.51.51,0,0,0,.75.67s.19-.09.1-.07h.3l.11,0c-.18-.07,0,0,0,.05a.81.81,0,0,0,.92-1.34Z" fill="#fff1be" style="mix-blend-mode:soft-light"/><path d="M39.8,31.58a2,2,0,0,0-1.08.75c-.34.4.31,1,.68.62a1.67,1.67,0,0,1,.48-.36h0a.7.7,0,0,1,.19.16.56.56,0,0,0,.93-.6A1.14,1.14,0,0,0,39.8,31.58Z" fill="#fff1be" style="mix-blend-mode:soft-light"/><path d="M36.94,34.76c-1.69.46-4.35,2.34-4.08,4.37a.32.32,0,0,0,.59.12c.89-1.32,2.09-2.89,3.69-3.38C37.82,35.66,37.65,34.56,36.94,34.76Z" fill="#fff1be" style="mix-blend-mode:soft-light"/><path d="M30.13,39.77a1.3,1.3,0,0,0-.73,1.31,1,1,0,0,0,1,.84.38.38,0,0,0,.32-.63c-.06-.07-.1-.15-.16-.23L30.6,41l0,0,.16-.14a.65.65,0,0,0,.17-.74A.63.63,0,0,0,30.13,39.77Z" fill="#fff1be" style="mix-blend-mode:soft-light"/><path d="M27.35,43.52a1.48,1.48,0,0,0-1.07,1.23c-.1.51.73.67.89.18a.65.65,0,0,1,.48-.45C28.18,44.27,27.9,43.35,27.35,43.52Z" fill="#fff1be" style="mix-blend-mode:soft-light"/><path d="M29.24,46.74a1,1,0,0,0-.63,1.16,1.1,1.1,0,0,0,.78.87c.5.17.74-.46.39-.77-.08-.07-.05-.1-.05-.22a.8.8,0,0,1,.07-.2.66.66,0,0,0,0-.55A.51.51,0,0,0,29.24,46.74Z" fill="#fff1be" style="mix-blend-mode:soft-light"/><path d="M32.58,43.54a2.14,2.14,0,0,0-.06.8.43.43,0,0,0,.85.07,5.43,5.43,0,0,0,0-.69A.43.43,0,0,0,32.58,43.54Z" fill="#fff1be" style="mix-blend-mode:soft-light"/><path d="M38.79,37.85a.64.64,0,0,0-.64-.05c-1.36.83-3.55,2.28-3.45,4.07a.44.44,0,0,0,.78.17c.84-1.35,2.29-2,3.36-3.15a.67.67,0,0,0,.17-.77A.73.73,0,0,0,38.79,37.85Z" fill="#fff1be" style="mix-blend-mode:soft-light"/><path d="M43.21,34.42a1.4,1.4,0,0,0-1.14.53.38.38,0,0,0-.09.42.36.36,0,0,0,.47.17,1,1,0,0,1,.68-.18A.47.47,0,0,0,43.21,34.42Z" fill="#fff1be" style="mix-blend-mode:soft-light"/><path d="M31.88,49.23a1.19,1.19,0,0,0-.82.81,1.16,1.16,0,0,0,.37,1.09.44.44,0,0,0,.66-.57.42.42,0,0,1-.06-.14v0s0,0,0,0,.17-.1.26-.19C32.68,49.84,32.43,49.06,31.88,49.23Z" fill="#fff1be" style="mix-blend-mode:soft-light"/><path d="M34.62,45.89a1.08,1.08,0,0,0-.23,1.34.48.48,0,0,0,.91-.29.62.62,0,0,1,.11-.33.54.54,0,0,0-.79-.72Z" fill="#fff1be" style="mix-blend-mode:soft-light"/><path d="M39.61,42c-.82.31-3.07,2-2.12,3a.48.48,0,0,0,.74,0,9.56,9.56,0,0,1,.83-1,6.28,6.28,0,0,0,1.27-1.14A.59.59,0,0,0,39.61,42Z" fill="#fff1be" style="mix-blend-mode:soft-light"/><path d="M45.11,37a2.51,2.51,0,0,0-1,.57,5.08,5.08,0,0,0-.7,1.11.5.5,0,0,0,.73.65c.31-.23.68-.34,1-.56a2.68,2.68,0,0,0,.78-1.08C46.11,37.2,45.49,36.88,45.11,37Z" fill="#fff1be" style="mix-blend-mode:soft-light"/><path d="M51.36,34.16c-1.19-.43-2.11.76-3,1.35-.55.36.05,1.26.62,1,.41-.21.77-.49,1.16-.73a5.77,5.77,0,0,1,1.26-.52A.58.58,0,0,0,51.36,34.16Z" fill="#fff1be" style="mix-blend-mode:soft-light"/><path d="M34.41,52.52A1.74,1.74,0,0,0,34,54.1a.43.43,0,0,0,.85-.15,1.46,1.46,0,0,1,.25-.94C35.32,52.61,34.71,52.19,34.41,52.52Z" fill="#fff1be" style="mix-blend-mode:soft-light"/><path d="M37.31,48.49a1.6,1.6,0,0,0-.66,1,1.36,1.36,0,0,0,.38,1c.18.19.61.06.51-.24a.85.85,0,0,1,.43-1C38.5,48.9,37.83,48.09,37.31,48.49Z" fill="#fff1be" style="mix-blend-mode:soft-light"/><path d="M43.79,43.46c-.93,0-5.36,3.09-4.27,4.2a.16.16,0,0,0,.2,0c.3-.11.43-.42.61-.67a6.38,6.38,0,0,1,1.32-1.22c.64-.5,2.14-1.22,2.33-2.05C44,43.63,44,43.46,43.79,43.46Z" fill="#fff1be" style="mix-blend-mode:soft-light"/><path d="M48.69,39.81A3,3,0,0,0,46.45,41c-.33.36.29.91.63.57a2.49,2.49,0,0,1,1.65-.83C49.27,40.71,49.22,39.81,48.69,39.81Z" fill="#fff1be" style="mix-blend-mode:soft-light"/><path d="M52.8,37c-.75-.19-1.6.5-2,1.06a.41.41,0,0,0,.5.6l.77-.39a6.7,6.7,0,0,0,.91-.38A.53.53,0,0,0,52.8,37Z" fill="#fff1be" style="mix-blend-mode:soft-light"/><path d="M36.66,56.1c0,.15.1.31.14.47.17.57,1.07.44.94-.17a1.45,1.45,0,0,0-.28-.68C37.18,55.39,36.53,55.65,36.66,56.1Z" fill="#fff1be" style="mix-blend-mode:soft-light"/><path d="M38.85,51.82A2.19,2.19,0,0,0,38.53,53a.47.47,0,0,0,.93.08,2.27,2.27,0,0,1,.28-.68C40.08,51.84,39.24,51.23,38.85,51.82Z" fill="#fff1be" style="mix-blend-mode:soft-light"/><path d="M44.43,46.86c-1,.63-3.23,2-2.74,3.43a.41.41,0,0,0,.64.14,12.6,12.6,0,0,1,1.24-1.18A17.41,17.41,0,0,0,45.17,48C45.69,47.51,45.13,46.43,44.43,46.86Z" fill="#fff1be" style="mix-blend-mode:soft-light"/><path d="M49.92,42.26a3.15,3.15,0,0,0-1.27,1.6c-.18.42.41.64.67.33a3.13,3.13,0,0,1,1.12-.81C51.17,43,50.6,41.88,49.92,42.26Z" fill="#fff1be" style="mix-blend-mode:soft-light"/><path d="M55.28,40.29a1.82,1.82,0,0,0-1.89.27.51.51,0,0,0-.14.61.53.53,0,0,0,.69.25c.37-.13.55,0,.91.07A.66.66,0,0,0,55.28,40.29Z" fill="#fff1be" style="mix-blend-mode:soft-light"/><path d="M56.31,43a.51.51,0,0,0-.21,1c.39.17.62.52,1,.68.63.26,1.07-.54.71-1A2.16,2.16,0,0,0,56.31,43Z" fill="#fff1be" style="mix-blend-mode:soft-light"/><path d="M58.05,46.55a.55.55,0,0,0,.32,1,.75.75,0,0,1,.37,0,2.18,2.18,0,0,1,.35.2.66.66,0,0,0,.77,0A.62.62,0,0,0,60,47,1.48,1.48,0,0,0,58.05,46.55Z" fill="#fff1be" style="mix-blend-mode:soft-light"/><path d="M59.67,49.26a.52.52,0,0,0-.33,1,2.1,2.1,0,0,1,.57.54c.5.6,1.43-.19.92-.77A1.88,1.88,0,0,0,59.67,49.26Z" fill="#fff1be" style="mix-blend-mode:soft-light"/><path d="M59.78,53.19a3.16,3.16,0,0,1,.48.55c.27.41,1,0,.88-.42a2.87,2.87,0,0,0-.43-.92C60.26,51.76,59.22,52.63,59.78,53.19Z" fill="#fff1be" style="mix-blend-mode:soft-light"/><path d="M44.76,61.6a.57.57,0,1,0-.23,1.12.13.13,0,0,1,.08,0s.16.12.1,0c.49.49,1.3-.16.83-.7A1.62,1.62,0,0,0,44.76,61.6Z" fill="#fff1be" style="mix-blend-mode:soft-light"/><path d="M40.83,60c-.13.72.6,1.34,1.21,1.54a.56.56,0,0,0,.64-.21.57.57,0,0,0-.15-.77c-.26-.23-.24-.54-.38-.8A.7.7,0,0,0,40.83,60Z" fill="#fff1be" style="mix-blend-mode:soft-light"/><path d="M39.81,57.1a.69.69,0,0,0-.86.41,1.34,1.34,0,0,0,.63,1.43.49.49,0,0,0,.73-.61c-.11-.23-.06-.27-.05-.54A.68.68,0,0,0,39.81,57.1Z" fill="#fff1be" style="mix-blend-mode:soft-light"/><path d="M41.82,54.75a1.15,1.15,0,0,0-.16,1,.48.48,0,0,0,1-.17s0-.09,0-.09a.54.54,0,1,0-.79-.71Z" fill="#fff1be" style="mix-blend-mode:soft-light"/><path d="M44.53,57.37a.86.86,0,0,0,.57,1.14.62.62,0,0,0,.8-.68,1.3,1.3,0,0,0,0-.21A.69.69,0,0,0,44.53,57.37Z" fill="#fff1be" style="mix-blend-mode:soft-light"/><path d="M47.7,59.9a.65.65,0,0,0,.84,1A.65.65,0,0,0,47.7,59.9Z" fill="#fff1be" style="mix-blend-mode:soft-light"/><path d="M48.57,52.64c-.58-.23-1.34.53-1.73.9a2.65,2.65,0,0,0-.93,1.88c0,.3.41.48.57.2a10.17,10.17,0,0,1,1.72-1.75C48.41,53.65,49.23,52.9,48.57,52.64Z" fill="#fff1be" style="mix-blend-mode:soft-light"/><path d="M49.4,48.63a5.54,5.54,0,0,0-2.64,1.26,7.47,7.47,0,0,0-2.57,2.55.29.29,0,0,0,.42.38c.83-.61,1.57-1.34,2.42-1.94a12.89,12.89,0,0,0,2.68-1.75C49.92,48.89,49.63,48.62,49.4,48.63Z" fill="#fff1be" style="mix-blend-mode:soft-light"/><path d="M50,55.35c-.66-.3-1.31.58-1.48,1.1a1.62,1.62,0,0,0,.56,1.85.53.53,0,0,0,.77-.65,1.11,1.11,0,0,1-.12-.87c.12-.35.54-.61.54-1A.42.42,0,0,0,50,55.35Z" fill="#fff1be" style="mix-blend-mode:soft-light"/><path d="M51.66,58.54A1.38,1.38,0,0,0,50.84,60a1.2,1.2,0,0,0,1.18.89.46.46,0,0,0,.29-.83.12.12,0,0,1-.05,0l0,0h0l0,0,.09-.09a3,3,0,0,0,.23-.27C53,59,52.28,58.27,51.66,58.54Z" fill="#fff1be" style="mix-blend-mode:soft-light"/><path d="M53.52,45.38a1.06,1.06,0,0,0-.79.52.59.59,0,0,0,0,.59.58.58,0,0,0,.65.33l.22-.08a.45.45,0,0,0,.74-.17,1.31,1.31,0,0,0,0-.68A.66.66,0,0,0,53.52,45.38Z" fill="#fff1be" style="mix-blend-mode:soft-light"/><path d="M55.69,48.32a1.44,1.44,0,0,0-1.32-.14,1.92,1.92,0,0,0-1.13,1,.67.67,0,0,0,.91.83c.43-.19.72-.77,1.18-.71A.56.56,0,0,0,55.69,48.32Z" fill="#fff1be" style="mix-blend-mode:soft-light"/><path d="M56.28,52.16a.72.72,0,0,0-.4.75.71.71,0,0,0,.81.57L57,53.4l.15,0h.05a5.07,5.07,0,0,1,.68,0,.59.59,0,0,0,.49-.95A1.68,1.68,0,0,0,56.28,52.16Z" fill="#fff1be" style="mix-blend-mode:soft-light"/><path d="M56.77,59.42c-1.48.27-2.26,1.32-3,2.52-.27.43.3,1,.69.62A5.79,5.79,0,0,1,57,60.71.66.66,0,0,0,56.77,59.42Z" fill="#fff1be" style="mix-blend-mode:soft-light"/><path d="M49,62.16a1.7,1.7,0,0,0-1.32.45.64.64,0,0,0-.08.89.65.65,0,0,0,.89.07s0,0,.06,0a.75.75,0,0,1,.16,0,2.3,2.3,0,0,0,.5-.18A.63.63,0,0,0,49,62.16Z" fill="#fff1be" style="mix-blend-mode:soft-light"/><path d="M53.73,65.08,42.46,56.7s7-2,7.92-8.31c.93-6.75-4.21-16.12-1.24-20,2.79,7.85,12.54,11.85,13.55,22.65C63.59,60.78,53.73,65.08,53.73,65.08Z" fill="#627e23"/><path d="M57.66,55.18c-2.55,2.45-4.83,2.72-10.91-.73a13.71,13.71,0,0,1-4.29,2.25l11.27,8.38s9.86-4.3,9-14a18,18,0,0,0-2.26-7.18A10.9,10.9,0,0,1,57.66,55.18Z" fill="#d6e1db" style="mix-blend-mode:multiply"/><path d="M60.27,59.75s-5.31,2.37-15.91-6C39,49.48,31.41,43,25.56,41.66c-8.81-2-15.84,3.64-15.84,3.64s7-4.84,17.59,4.42c5.32,4.65,8.13,14,18.69,16.47C54.44,68.18,60.27,59.75,60.27,59.75Z" fill="#698826"/><path d="M34.88,54c-2.78-3.78-8.49-8.54-13-10.11a12.09,12.09,0,0,0-9.38.41c3-.6,8.19-.31,14.8,5.47,5.32,4.65,8.13,14,18.69,16.47a10.93,10.93,0,0,0,3.22.28C46.93,65.45,43.65,65.88,34.88,54Z" fill="#77992c"/><path d="M49.39,31.27c1,3,3,5.57,4.94,8a23.31,23.31,0,0,1,2.75,4.33c1,2,.64,4,1,6.1a.33.33,0,0,0,.63,0c3.11-6.7-6.46-13.53-9.12-18.62A.12.12,0,1,0,49.39,31.27Z" fill="#bac6af" style="mix-blend-mode:soft-light"/><path d="M32.81,12.86c.75,2,1.8,5.26,3.76,6.45a.22.22,0,0,0,.32-.27A20.56,20.56,0,0,0,35,15.94a27.59,27.59,0,0,1-1.59-3.34C33.21,12.23,32.67,12.49,32.81,12.86Z" fill="#bac6af" style="mix-blend-mode:soft-light"/><path d="M22.42,9.28A20,20,0,0,0,14.93,7a.21.21,0,0,0,0,.41,29,29,0,0,1,7.83,3.08c1.84,1,3.59,2.4,5.59,3,.24.08.52-.24.31-.44A26,26,0,0,0,22.42,9.28Z" fill="#bac6af" style="mix-blend-mode:soft-light"/><path d="M8.49,8.27A71.18,71.18,0,0,0,1.15,2C1,1.82.72,2.09.91,2.25c2,1.67,3.87,3.39,5.69,5.21,2.05,2.05,3.51,4.66,5.6,6.63a.32.32,0,0,0,.51-.35C11.9,11.59,10.08,9.88,8.49,8.27Z" fill="#bac6af" style="mix-blend-mode:soft-light"/></g></g></g></svg>