<svg xmlns="http://www.w3.org/2000/svg" xmlns:xlink="http://www.w3.org/1999/xlink" viewBox="0 0 103.84 55.4"><defs><clipPath id="clip-path" transform="translate(13.07 6.9)"><path d="M89.18,15.24c0,6.59-19.4,11.93-43.32,11.93S2.54,21.83,2.54,15.24,21.94,3.32,45.86,3.32,89.18,8.66,89.18,15.24Z" fill="#f39232"/></clipPath></defs><g style="isolation:isolate"><g id="Layer_2" data-name="Layer 2"><g id="Capa_1" data-name="Capa 1"><path d="M83.22,36.39C77.79,42.21,66.55,45.48,46,45.48s-33.8-2.55-37.24-9.09A59.2,59.2,0,0,1,2.54,16H89.18S89.07,30.12,83.22,36.39Z" transform="translate(13.07 6.9)" fill="#c46001"/><path d="M2.54,16s.13,1.58.62,4.12a38,38,0,0,0,11.18,8.48c9.88,5,21.26,5.15,32.08,5.26,5.77.06,11.86.25,17.43-1.51,2.77-.87,6.43-2.51,9.39-1.7,3.83,1,4.72,5.85,3.9,10a20,20,0,0,0,6.08-4.29c5.85-6.27,6-20.37,6-20.37Z" transform="translate(13.07 6.9)" fill="#ead9d6" style="mix-blend-mode:multiply"/><polygon points="59.67 50.34 58.12 26.59 61.22 26.59 59.67 50.34" fill="#dcc5c4" style="mix-blend-mode:multiply"/><polygon points="71.82 47.45 70.27 23.71 73.36 23.71 71.82 47.45" fill="#dcc5c4" style="mix-blend-mode:multiply"/><polygon points="48.52 47.45 46.98 23.71 50.07 23.71 48.52 47.45" fill="#dcc5c4" style="mix-blend-mode:multiply"/><polygon points="34.81 45.09 33.27 21.34 36.36 21.34 34.81 45.09" fill="#dcc5c4" style="mix-blend-mode:multiply"/><polygon points="25.95 41.62 24.4 17.88 27.5 17.88 25.95 41.62" fill="#dcc5c4" style="mix-blend-mode:multiply"/><polygon points="82.15 47.45 80.61 23.71 83.7 23.71 82.15 47.45" fill="#dcc5c4" style="mix-blend-mode:multiply"/><polygon points="93.54 41.62 91.99 17.88 95.09 17.88 93.54 41.62" fill="#dcc5c4" style="mix-blend-mode:multiply"/><path d="M89.18,15.24c0,6.59-19.4,11.93-43.32,11.93S2.54,21.83,2.54,15.24,21.94,3.32,45.86,3.32,89.18,8.66,89.18,15.24Z" transform="translate(13.07 6.9)" fill="#f39232"/><g clip-path="url(#clip-path)"><path d="M78.13,6.54c-13.31-1-34,6.61-48,29.06A63.29,63.29,0,0,1,27.4,23.87C44.66,3.39,66.46-1.92,80.07.44A24.83,24.83,0,0,0,78.13,6.54Z" transform="translate(13.07 6.9)" fill="#f8ac55"/><path d="M78.13,6.54c-13.31-1-34,6.61-48,29.06-.5-1.47-.94-3-1.32-4.48C44.13,9.39,65.25,2.66,78.68,4.16A22.13,22.13,0,0,0,78.13,6.54Z" transform="translate(13.07 6.9)" fill="#e4bca2" style="mix-blend-mode:multiply"/><path d="M79.11,2.8C65.61,1,44.23,7.22,28.2,28.51c-.25-1.16-.46-2.34-.64-3.53C44.53,4.29,66.24-1.24,79.82,1,79.56,1.59,79.32,2.19,79.11,2.8Z" transform="translate(13.07 6.9)" fill="#d6c2aa" opacity="0.5" style="mix-blend-mode:soft-light"/><path d="M50.6,1.23C37.29,2.24,18,12.84,7.47,37.14A63.45,63.45,0,0,1,3,26C17,3.11,37.8-5.4,51.61-5.1A24.41,24.41,0,0,0,50.6,1.23Z" transform="translate(13.07 6.9)" fill="#f8ac55"/><path d="M50.6,1.23C37.29,2.24,18,12.84,7.47,37.14q-1.07-2.09-2-4.23C17.41,9.13,37.28-.69,50.79-1.21A22.46,22.46,0,0,0,50.6,1.23Z" transform="translate(13.07 6.9)" fill="#e4bca2" style="mix-blend-mode:multiply"/><path d="M51-2.62C37.39-2.39,17.19,7,4.51,30.42c-.42-1.12-.8-2.25-1.16-3.4C17.05,4,37.68-4.68,51.45-4.51,51.28-3.88,51.13-3.25,51-2.62Z" transform="translate(13.07 6.9)" fill="#d6c2aa" opacity="0.5" style="mix-blend-mode:soft-light"/><path d="M89.6,13.34C77.37,14.9,60.07,25.59,51.49,48.5a57.46,57.46,0,0,1-4.62-10.11C58.71,16.66,77.48,7.83,90.24,7.46A22.59,22.59,0,0,0,89.6,13.34Z" transform="translate(13.07 6.9)" fill="#f8ac55"/><path d="M89.6,13.34C77.37,14.9,60.07,25.59,51.49,48.5c-.72-1.24-1.39-2.51-2-3.8,9.87-22.51,27.75-32.5,40.19-33.61A21.27,21.27,0,0,0,89.6,13.34Z" transform="translate(13.07 6.9)" fill="#e4bca2" style="mix-blend-mode:multiply"/><path d="M89.8,9.78C77.25,10.63,59,20.21,48.44,42.44c-.44-1-.85-2-1.23-3.08C58.77,17.5,77.4,8.5,90.11,8,90,8.6,89.88,9.19,89.8,9.78Z" transform="translate(13.07 6.9)" fill="#d6c2aa" opacity="0.5" style="mix-blend-mode:soft-light"/><path d="M83.37,29.08c-4.28-11.57-18.59-26-42.85-29.2A57.93,57.93,0,0,1,49.33-6.9C73.17-.26,86,16,89.24,28.37A22.48,22.48,0,0,0,83.37,29.08Z" transform="translate(13.07 6.9)" fill="#f8ac55"/><path d="M83.37,29.08c-4.28-11.57-18.59-26-42.85-29.2,1-1,2.13-1.92,3.25-2.83C67.92,1.59,81.69,16.76,85.58,28.63A20.11,20.11,0,0,0,83.37,29.08Z" transform="translate(13.07 6.9)" fill="#e4bca2" style="mix-blend-mode:multiply"/><path d="M86.89,28.47C83.23,16.43,69.79.85,45.73-4.45c.89-.66,1.8-1.29,2.73-1.9C72.36,0,85.34,16.1,88.68,28.37,88.08,28.38,87.48,28.41,86.89,28.47Z" transform="translate(13.07 6.9)" fill="#d6c2aa" opacity="0.5" style="mix-blend-mode:soft-light"/><path d="M67.45,33.23C63.17,21.67,48.86,7.23,24.59,4A58.43,58.43,0,0,1,33.4-2.74C57.25,3.9,70.08,20.19,73.32,32.53A22.92,22.92,0,0,0,67.45,33.23Z" transform="translate(13.07 6.9)" fill="#f8ac55"/><path d="M67.45,33.23C63.17,21.67,48.86,7.23,24.59,4q1.57-1.47,3.26-2.83C52,5.75,65.76,20.92,69.66,32.79,68.91,32.9,68.17,33.05,67.45,33.23Z" transform="translate(13.07 6.9)" fill="#e4bca2" style="mix-blend-mode:multiply"/><path d="M71,32.63C67.3,20.59,53.86,5,29.81-.3c.89-.65,1.8-1.28,2.72-1.89C56.44,4.14,69.42,20.26,72.76,32.53,72.15,32.54,71.56,32.57,71,32.63Z" transform="translate(13.07 6.9)" fill="#d6c2aa" opacity="0.5" style="mix-blend-mode:soft-light"/><path d="M52.32,35.21C48,23.65,33.73,9.21,9.46,6A58.43,58.43,0,0,1,18.27-.76C42.12,5.87,55,22.16,58.19,34.51A22.92,22.92,0,0,0,52.32,35.21Z" transform="translate(13.07 6.9)" fill="#f8ac55"/><path d="M52.32,35.21C48,23.65,33.73,9.21,9.46,6Q11,4.55,12.72,3.19C36.87,7.73,50.64,22.9,54.53,34.77A22.15,22.15,0,0,0,52.32,35.21Z" transform="translate(13.07 6.9)" fill="#e4bca2" style="mix-blend-mode:multiply"/><path d="M55.84,34.61C52.17,22.56,38.73,7,14.68,1.68Q16,.71,17.41-.21c23.9,6.33,36.88,22.45,40.22,34.72C57,34.52,56.43,34.55,55.84,34.61Z" transform="translate(13.07 6.9)" fill="#d6c2aa" opacity="0.5" style="mix-blend-mode:soft-light"/><path d="M29.78,35.21C25.5,23.65,11.19,9.21-13.07,6A58.43,58.43,0,0,1-4.26-.76C19.59,5.87,32.42,22.16,35.66,34.51A23.05,23.05,0,0,0,29.78,35.21Z" transform="translate(13.07 6.9)" fill="#f8ac55"/><path d="M29.78,35.21C25.5,23.65,11.19,9.21-13.07,6-12,5-10.94,4.1-9.81,3.19,14.33,7.73,28.1,22.9,32,34.77A22.35,22.35,0,0,0,29.78,35.21Z" transform="translate(13.07 6.9)" fill="#e4bca2" style="mix-blend-mode:multiply"/><path d="M33.31,34.61C29.64,22.56,16.2,7-7.85,1.68-7,1-6.06.4-5.13-.21,18.77,6.12,31.75,22.24,35.1,34.51,34.49,34.52,33.89,34.55,33.31,34.61Z" transform="translate(13.07 6.9)" fill="#d6c2aa" opacity="0.5" style="mix-blend-mode:soft-light"/></g><path d="M52.08,28.27c1.29,2.92,4.32.65,7.92.4,2.55-.19,4.35,1.56,7.92-1.14a2.89,2.89,0,0,1,1.8-.6,4.84,4.84,0,0,1-.64-.56c-.31-.32-.66-.58-1-.9a4.55,4.55,0,0,1-.62-.77,1.77,1.77,0,0,1-.54.25c-1.59.4-2.61-.86-3.93-1.44a1.93,1.93,0,0,0-2.66.85,4.17,4.17,0,0,1-.93,1.26,2.28,2.28,0,0,1-2.72.24c-.91-.58-2.08-2.08-3.11-2.18-1.26-.09-2.55-.06-3.18,1.21C49.6,26.52,50.36,27.55,52.08,28.27Z" transform="translate(13.07 6.9)" fill="#f8ac55"/><path d="M50.66,26.06A3.12,3.12,0,0,1,54.44,25a15.3,15.3,0,0,1,2.25,1.36c1.21.64,1.88.18,3-.58,1.44-1,3-.87,4.72-.51A6.11,6.11,0,0,0,67.72,25a2.62,2.62,0,0,1-.24-.34,1.77,1.77,0,0,1-.54.25c-1.59.4-2.61-.86-3.93-1.44a1.93,1.93,0,0,0-2.66.85,4.17,4.17,0,0,1-.93,1.26,2.28,2.28,0,0,1-2.72.24c-.91-.58-2.08-2.08-3.11-2.18-1.26-.09-2.55-.06-3.18,1.21a2.15,2.15,0,0,0-.15,1.95A3.39,3.39,0,0,1,50.66,26.06Z" transform="translate(13.07 6.9)" fill="#e4bca2" style="mix-blend-mode:multiply"/><path d="M61.18,28.12a5.5,5.5,0,0,0,4-.24c1.15-.62,2.23-.8,2.33-.45s-.89.78-2.1,1.28A5.06,5.06,0,0,1,61.18,28.12Z" transform="translate(13.07 6.9)" fill="#d6c2aa" style="mix-blend-mode:soft-light"/><path d="M58.72,28.22a9.8,9.8,0,0,1-4.79.42c-1.25-.35-1.61-1-1.62-.63s.3,1.27,1.58,1.48A6.3,6.3,0,0,0,57.13,29,11.11,11.11,0,0,0,58.72,28.22Z" transform="translate(13.07 6.9)" fill="#d6c2aa" style="mix-blend-mode:soft-light"/><path d="M51.92,27.54a1.41,1.41,0,0,1,1,.21,8,8,0,0,0,2.55.36,7.48,7.48,0,0,0,2.5-.05,8.93,8.93,0,0,1,2.21-.54c1.68.07,3.45.72,5,.06a8.8,8.8,0,0,1,2.14-.79,3.89,3.89,0,0,0,1.37-.71l-.26-.24a1,1,0,0,1-.6.3,16,16,0,0,1-3.35-.29A5.77,5.77,0,0,0,62,25.78a23.56,23.56,0,0,1-2.62.83c-.83.22-.6.93-1.5.79s-2.47-1.29-3.28-1.57-1.41-.84-2.32-.33c-.46.24-1.88.94-1.46,1.7C51,27.47,51.66,27.56,51.92,27.54Z" transform="translate(13.07 6.9)" fill="#d6c2aa" opacity="0.5" style="mix-blend-mode:soft-light"/><path d="M49.62,25.43c-.68.63-1.45,1.57-2.43,1.61-1.65.1-2.42-1.34-3.64-2.14a1.92,1.92,0,0,0-2.78.35,3.75,3.75,0,0,1-1.14,1.07,2.27,2.27,0,0,1-2.72-.24c-.79-.73-1.7-2.42-2.69-2.69-1.22-.32-2.49-.51-3.32.62-1.08,1.45-.52,2.62,1.05,3.63.76,3.11,4.15,1.41,7.73,1.79,2.55.28,4,2.3,8,.34,1.26-1,6,1.35,8.08-1.53,1.43-2.08-.31-3.8-2.14-4.42S50.48,24.65,49.62,25.43Z" transform="translate(13.07 6.9)" fill="#f8ac55"/><path d="M30.41,25.9a3.35,3.35,0,0,1,.53-.69,3.09,3.09,0,0,1,3.89-.38,15.42,15.42,0,0,1,2,1.73c1.09.84,1.82.5,3,0,1.59-.72,3.13-.32,4.75.34,2,.81,4.1.76,6.68-1,1.68-1.1,3.95-1.7,5,1.07.16-1.5-1.21-2.66-2.65-3.15-1.83-.62-3.12.83-4,1.61-.68.63-1.45,1.57-2.43,1.61-1.65.1-2.42-1.34-3.64-2.14a1.92,1.92,0,0,0-2.78.35,3.75,3.75,0,0,1-1.14,1.07,2.27,2.27,0,0,1-2.72-.24c-.79-.73-1.7-2.42-2.69-2.69-1.22-.32-2.49-.51-3.32.62A2.15,2.15,0,0,0,30.41,25.9Z" transform="translate(13.07 6.9)" fill="#e4bca2" style="mix-blend-mode:multiply"/><path d="M48.9,28.71a7.11,7.11,0,0,0,4-.16c1.22-.46,2.3-.48,2.36-.12s-1,.64-2.24,1A5.7,5.7,0,0,1,48.9,28.71Z" transform="translate(13.07 6.9)" fill="#d6c2aa" style="mix-blend-mode:soft-light"/><path d="M40.94,29.1a5.53,5.53,0,0,0,4,.49c1.24-.38,2.34-.37,2.37,0s-1,.6-2.29.86A5.11,5.11,0,0,1,40.94,29.1Z" transform="translate(13.07 6.9)" fill="#d6c2aa" style="mix-blend-mode:soft-light"/><path d="M38.5,28.75a9.59,9.59,0,0,1-4.79-.42c-1.18-.56-1.41-1.27-1.49-.91a1.65,1.65,0,0,0,1.3,1.74,6.42,6.42,0,0,0,3.28.09A10.19,10.19,0,0,0,38.5,28.75Z" transform="translate(13.07 6.9)" fill="#d6c2aa" style="mix-blend-mode:soft-light"/><path d="M54.92,27.19c.14-.56-.64-1-1.06-1.09a2,2,0,0,0-1.21.15,21.84,21.84,0,0,0-2.8.83c-.86.38-1,1.36-2,1.32a16.66,16.66,0,0,1-3.23-.93A5.79,5.79,0,0,0,42.2,27c-.89.16-1.8.27-2.73.35s-.76.79-1.61.5-2.22-1.7-3-2.12-1.24-1.07-2.23-.74c-.49.16-2,.6-1.72,1.42.1.3.72.5,1,.52a1.35,1.35,0,0,1,1,.39,8.17,8.17,0,0,0,2.46.8,7.79,7.79,0,0,0,2.47.4,8.68,8.68,0,0,1,2.27-.15c1.64.38,3.27,1.34,4.95,1a9.2,9.2,0,0,1,2.25-.37c.78,0,1.37-.56,2.14-.56a5.35,5.35,0,0,1,1.22.33,2.39,2.39,0,0,0,1.24-.16c.74-.24,1.46-.46,2.19-.71a5.36,5.36,0,0,0,.6-.24Z" transform="translate(13.07 6.9)" fill="#d6c2aa" opacity="0.5" style="mix-blend-mode:soft-light"/><path d="M84.34,18.72c-.23.86-.5,2-1.38,2.49-1.47.73-2.71-.32-4.08-.7a1.87,1.87,0,0,0-2.45,1.2,3.79,3.79,0,0,1-.76,1.36,2.24,2.24,0,0,1-2.66.54c-1-.49-2.27-1.89-3.28-1.89-1.25,0-2.51.15-3,1.45-.67,1.69.16,2.65,1.94,3.24,1.53,2.8,4.4.32,8-.38a35.43,35.43,0,0,1,3.7-.15,6.2,6.2,0,0,0,4.21-2.4c.4-.76,2-1.11,3.62-2.12a6.24,6.24,0,0,0,2.15-2.18,3.18,3.18,0,0,0,.13-3.07c-.87-1.22-1.87-.85-2.69-.69a19.6,19.6,0,0,1-2,.29c-.53.11-.76.56-1,1.16S84.49,18.19,84.34,18.72Z" transform="translate(13.07 6.9)" fill="#f8ac55"/><path d="M66.7,25.12a4,4,0,0,1,.34-.81A3.11,3.11,0,0,1,70.69,23a17.05,17.05,0,0,1,2.36,1.14c1.28.51,1.89,0,2.87-.89C77.22,22,78.77,22,80.51,22a5.51,5.51,0,0,0,3-.76,5.58,5.58,0,0,0,2.32-2.93,6.8,6.8,0,0,1,1-2.1c.38-.41,1-.47,2.46-.93a5.45,5.45,0,0,0-2,.25c-.63.1-1.09.06-1.51.17s-.76.56-1,1.16-.31,1.32-.46,1.85c-.23.86-.5,2-1.38,2.49-1.47.73-2.71-.32-4.08-.7a1.87,1.87,0,0,0-2.45,1.2,3.79,3.79,0,0,1-.76,1.36,2.24,2.24,0,0,1-2.66.54c-1-.49-2.27-1.89-3.28-1.89-1.25,0-2.51.15-3,1.45A2.17,2.17,0,0,0,66.7,25.12Z" transform="translate(13.07 6.9)" fill="#e4bca2" style="mix-blend-mode:multiply"/><path d="M85.27,21.94a5.05,5.05,0,0,0,1.27-.48,5.38,5.38,0,0,0,2.26-2.11c.18-.32.34-.66.52-.94s.3-.57.43-.8c.25-.49.48-.78.65-.76.39.06.06,1.67-.92,3a4.79,4.79,0,0,1-2.77,1.9A4.49,4.49,0,0,1,85.27,21.94Z" transform="translate(13.07 6.9)" fill="#d6c2aa" style="mix-blend-mode:soft-light"/><path d="M77.75,25.33a4.82,4.82,0,0,0,1.36.06,4.89,4.89,0,0,0,2.68-.95c1.07-.82,2.13-1.27,2.31-1s-.75,1-1.93,1.73a4.31,4.31,0,0,1-3,.53A5.25,5.25,0,0,1,77.75,25.33Z" transform="translate(13.07 6.9)" fill="#d6c2aa" style="mix-blend-mode:soft-light"/><path d="M75.28,25.73a11.87,11.87,0,0,1-1.59.6,7.33,7.33,0,0,1-3.17.29c-1.29-.24-1.69-.86-1.68-.49a1.68,1.68,0,0,0,1.72,1.35,6.38,6.38,0,0,0,3.21-.8A10.69,10.69,0,0,0,75.28,25.73Z" transform="translate(13.07 6.9)" fill="#d6c2aa" style="mix-blend-mode:soft-light"/><path d="M89.13,16.68c-.46-.34-1.15.09-1.46.27a2.18,2.18,0,0,0-.61.87A23,23,0,0,1,85.34,20c-.54.76-.22,1.67-1.15,2.09a12.53,12.53,0,0,1-3.4.43,6.07,6.07,0,0,0-2.5.34,21.82,21.82,0,0,1-2.49,1.16c-.8.31-.49,1-1.4.94S71.8,24,71,23.76s-1.47-.7-2.33-.13c-.43.29-1.78,1.08-1.31,1.81.17.26.83.3,1.09.26a1.36,1.36,0,0,1,1,.12,7.71,7.71,0,0,0,2.59.13,7.49,7.49,0,0,0,2.5-.29c.79-.24,1.3-.74,2.15-.8,1.69-.14,3.59.24,5.11-.73a11.42,11.42,0,0,1,2-1.24c.76-.31,1.06-1.13,1.77-1.51A12.11,12.11,0,0,1,86.9,21a2.25,2.25,0,0,0,1-.91,8.49,8.49,0,0,0,1.27-2.28,1.93,1.93,0,0,0,.16-.7s0-.11-.11-.22Z" transform="translate(13.07 6.9)" fill="#d6c2aa" opacity="0.5" style="mix-blend-mode:soft-light"/><path d="M8.52,7.83C7.38,6.72,6.19,7,4.92,8A15.36,15.36,0,0,0,1,12.65a8.7,8.7,0,0,0-.94,2.72,6.15,6.15,0,0,0,.32,2.91A5.33,5.33,0,0,0,5,21.69a3.71,3.71,0,0,1,1.91.75,4.49,4.49,0,0,1-.19-.85c-.06-.45-.18-.88-.21-1.33a4,4,0,0,1,0-1A1.31,1.31,0,0,1,6,19.11c-1.38-.76-1.07-2.5-.69-3.35.18-.36.26-.4.17-.46l-.28-.14a3.27,3.27,0,0,1-.54-.29,1.6,1.6,0,0,1-.81-1.06A1.56,1.56,0,0,1,5.49,12c1,0,2.65.84,3.5.57,1-.36,2.12-.82,2.27-2.19C11.46,8.63,10.44,7.85,8.52,7.83Z" transform="translate(13.07 6.9)" fill="#f8ac55"/><path d="M10.64,9.4a3.09,3.09,0,0,1-2.92,2.35c-.79.1-1.65-.2-2.5-.12-1.32.12-1.69,1.08-1.59,2.26.08.69.14,1.19.2,1.72a7.76,7.76,0,0,0,.41,1.88,3.75,3.75,0,0,0,2.27,2.2c0-.14,0-.28,0-.41A1.31,1.31,0,0,1,6,19.11c-1.38-.76-1.07-2.5-.69-3.35.18-.36.26-.4.17-.46l-.28-.14a3.27,3.27,0,0,1-.54-.29,1.6,1.6,0,0,1-.81-1.06A1.56,1.56,0,0,1,5.49,12c1,0,2.65.84,3.5.57,1-.36,2.12-.82,2.27-2.19a2.23,2.23,0,0,0-.51-1.89A3.84,3.84,0,0,1,10.64,9.4Z" transform="translate(13.07 6.9)" fill="#e4bca2" style="mix-blend-mode:multiply"/><path d="M.84,14.53A3.93,3.93,0,0,0,.66,15a3.74,3.74,0,0,0-.12,1.43,4.2,4.2,0,0,0,2,3.22c1.36.74,2.34,1.29,2.19,1.64s-1.28,0-2.7-.95A4.52,4.52,0,0,1,.19,16.55,3.75,3.75,0,0,1,.55,15,3.59,3.59,0,0,1,.84,14.53Z" transform="translate(13.07 6.9)" fill="#d6c2aa" style="mix-blend-mode:soft-light"/><path d="M2.37,11.58s.1-.2.3-.52A8.15,8.15,0,0,1,3.58,10a6.06,6.06,0,0,1,3-1.72C8,8,8.52,8.51,8.4,8.16s-.75-1.08-2.12-.7A5.9,5.9,0,0,0,3.34,9.71,6.61,6.61,0,0,0,2.59,11C2.44,11.36,2.37,11.58,2.37,11.58Z" transform="translate(13.07 6.9)" fill="#d6c2aa" style="mix-blend-mode:soft-light"/><path d="M8.94,8.44a1.45,1.45,0,0,1-1,.21,6.54,6.54,0,0,0-2.56.84A5.55,5.55,0,0,0,3.09,11.1a16.06,16.06,0,0,0-1.25,2.41,5.12,5.12,0,0,0-.67,3.33,4,4,0,0,0,1.7,2.73c.81.52,1.52.71,2.23,1.2a3.48,3.48,0,0,0,1.56.38l0-.34a1.13,1.13,0,0,1-.68-.17A7.31,7.31,0,0,1,3.84,18c-.4-.75-.47-1.58-.77-2.18a3,3,0,0,1,0-2.54,1.74,1.74,0,0,0,.09-.92.76.76,0,0,1,.43-.77,4,4,0,0,1,1.81-.42c.7,0,1.38,0,1.79,0,.85-.09,1.54.19,2.15-.6.3-.39,1.37-1.53.73-2.11C9.82,8.17,9.18,8.33,8.94,8.44Z" transform="translate(13.07 6.9)" fill="#d6c2aa" opacity="0.5" style="mix-blend-mode:soft-light"/><path d="M11.8,9.65c.43-.81.87-1.93,1.8-2.26,1.56-.54,2.69.63,4,1.12a1.91,1.91,0,0,0,2.58-1,3.74,3.74,0,0,1,.86-1.3,2.24,2.24,0,0,1,2.7-.38c.93.54,2.17,2,3.19,2.05,1.26.06,2.53,0,3.11-1.3.75-1.66,0-2.67-1.79-3.33-1.4-2.87-4.37-.51-8-.06A31.3,31.3,0,0,1,16.67,3a6.08,6.08,0,0,0-4.31,1.89c-.48.68-2,.8-3.69,1.3S5.3,7.69,5.06,9.5A2.28,2.28,0,0,0,6.33,12a4.94,4.94,0,0,0,2.59.53C10.62,12.4,11.25,10.68,11.8,9.65Z" transform="translate(13.07 6.9)" fill="#f8ac55"/><path d="M30.16,4.62a3.51,3.51,0,0,1-.37.79A3.1,3.1,0,0,1,26.07,6.6a16.74,16.74,0,0,1-2.31-1.26c-1.24-.59-1.89-.1-2.93.71-1.38,1.06-2.95,1-4.68.82a6.09,6.09,0,0,0-6,2.88,5,5,0,0,1-2,1.84,2.83,2.83,0,0,1-2.84-.72,2.73,2.73,0,0,0,1.59,1.32,5.13,5.13,0,0,0,2.08.3c1.7-.09,2.33-1.81,2.88-2.84.43-.81.87-1.93,1.8-2.26,1.56-.54,2.69.63,4,1.12a1.91,1.91,0,0,0,2.58-1,3.74,3.74,0,0,1,.86-1.3,2.24,2.24,0,0,1,2.7-.38c.93.54,2.17,2,3.19,2.05,1.26.06,2.53,0,3.11-1.3A2.15,2.15,0,0,0,30.16,4.62Z" transform="translate(13.07 6.9)" fill="#e4bca2" style="mix-blend-mode:multiply"/><path d="M11.45,6.31a6.11,6.11,0,0,0-1.28.23A6.16,6.16,0,0,0,7.65,7.88c-1,.9-2,1.48-2.2,1.19S6.09,8,7.21,7.15a5,5,0,0,1,2.86-1A5.13,5.13,0,0,1,11.45,6.31Z" transform="translate(13.07 6.9)" fill="#d6c2aa" style="mix-blend-mode:soft-light"/><path d="M19.16,3.79a6.21,6.21,0,0,0-1.34-.17,4.92,4.92,0,0,0-2.71.7C14,5,12.92,5.32,12.78,5s.83-.87,2-1.47a4.37,4.37,0,0,1,2.94-.25A6.3,6.3,0,0,1,19.16,3.79Z" transform="translate(13.07 6.9)" fill="#d6c2aa" style="mix-blend-mode:soft-light"/><path d="M21.63,3.57a9.42,9.42,0,0,1,4.79-.63c1.27.3,1.65.94,1.65.57a1.66,1.66,0,0,0-1.64-1.43,6.45,6.45,0,0,0-3.24.63A10.23,10.23,0,0,0,21.63,3.57Z" transform="translate(13.07 6.9)" fill="#d6c2aa" style="mix-blend-mode:soft-light"/><path d="M6.31,10c.14.56,1,.59,1.42.52a2.11,2.11,0,0,0,1-.62c.72-.62,1.58-1.05,2.31-1.74s.5-1.61,1.46-1.86a14.31,14.31,0,0,1,3.4,0,5.9,5.9,0,0,0,2.52-.11A23.15,23.15,0,0,1,21,5.2c.82-.26.56-1,1.46-.85S25,5.52,25.83,5.77s1.44.77,2.33.25c.44-.26,1.83-1,1.38-1.75-.15-.27-.8-.34-1.06-.31a1.33,1.33,0,0,1-1-.17,8.18,8.18,0,0,0-2.58-.26,7.76,7.76,0,0,0-2.5.15,9.52,9.52,0,0,1-2.19.66c-1.69,0-3.53-.52-5.1.29a9.75,9.75,0,0,1-2.1,1c-.78.2-1.18.95-1.92,1.2a7.26,7.26,0,0,1-1.3.1,2.26,2.26,0,0,0-1.14.6C8,8,7.37,8.49,6.8,9.06a3.37,3.37,0,0,0-.45.48Z" transform="translate(13.07 6.9)" fill="#d6c2aa" opacity="0.5" style="mix-blend-mode:soft-light"/><path d="M24,23.74c-.79.5-1.71,1.26-2.69,1.12-1.63-.23-2.1-1.78-3.09-2.84a1.89,1.89,0,0,0-2.74-.27,3.88,3.88,0,0,1-1.35.77,2.19,2.19,0,0,1-2.53-.95c-.55-.92-.83-2.79-1.57-3.34-1-.68-1.77-1.25-2.93-.58a2.37,2.37,0,0,0-1.35,1.52,3,3,0,0,0,.64,2.17c-.28,1.57.68,2.39,2.07,2.87s3.21.69,4.95,1.33a34,34,0,0,1,3.2,1.8,6.12,6.12,0,0,0,4.64.29c.73-.39,2.14.24,3.72.64s3.3.56,4.54-.68c1.77-1.81.34-3.79-1.34-4.72S24.94,23.13,24,23.74Z" transform="translate(13.07 6.9)" fill="#f8ac55"/><path d="M5.74,19.08a4.57,4.57,0,0,1,.77-.37A3,3,0,0,1,10,19.77c.54.63.8,1.51,1.3,2.23.79,1.12,1.61,1,2.9.76,1.7-.3,3.09.41,4.53,1.4,1.75,1.2,3.87,1.57,6.72.34,1.83-.79,4.17-1,4.69,1.93.43-1.45-.72-2.82-2.05-3.56-1.68-.93-3.19.26-4.17.87-.79.5-1.71,1.26-2.69,1.12-1.63-.23-2.1-1.78-3.09-2.84a1.89,1.89,0,0,0-2.74-.27,3.88,3.88,0,0,1-1.35.77,2.19,2.19,0,0,1-2.53-.95c-.55-.92-.83-2.79-1.57-3.34-1-.68-1.77-1.25-2.93-.58A2.38,2.38,0,0,0,5.74,19.08Z" transform="translate(13.07 6.9)" fill="#e4bca2" style="mix-blend-mode:multiply"/><path d="M22.64,26.83a7.06,7.06,0,0,0,3.95.57c1.27-.24,2.35-.08,2.34.29s-1.08.46-2.38.56A5.67,5.67,0,0,1,22.64,26.83Z" transform="translate(13.07 6.9)" fill="#d6c2aa" style="mix-blend-mode:soft-light"/><path d="M14.69,25.54a6.42,6.42,0,0,0,1.11.76,4.94,4.94,0,0,0,2.73.6c1.31-.11,2.38.11,2.35.48s-1.13.39-2.46.38a4.29,4.29,0,0,1-2.72-1.12A5.66,5.66,0,0,1,14.69,25.54Z" transform="translate(13.07 6.9)" fill="#d6c2aa" style="mix-blend-mode:soft-light"/><path d="M12.36,24.58a10,10,0,0,1-1.69-.35,6.73,6.73,0,0,1-2.88-1.56c-1-1-.87-1.73-1.1-1.42a1.63,1.63,0,0,0,.62,2.14,6.11,6.11,0,0,0,3.24,1.18A9.49,9.49,0,0,0,12.36,24.58Z" transform="translate(13.07 6.9)" fill="#d6c2aa" style="mix-blend-mode:soft-light"/><path d="M28.84,26.42c.24-.53-.45-1.09-.85-1.27a2.12,2.12,0,0,0-1.22-.06,26.46,26.46,0,0,0-2.9.31c-.91.22-1.2,1.15-2.16.93a15.54,15.54,0,0,1-3-1.55,5.91,5.91,0,0,0-2.29-1,21.53,21.53,0,0,1-2.73-.31c-.85-.16-.95.58-1.7.07s-1.66-2.26-2.19-2.91-.75-1.39-1.72-1.44c-.49,0-2-.25-2.12.59,0,.31.44.76.66.91a1.38,1.38,0,0,1,.76.74A7.15,7.15,0,0,0,9.47,23a7.12,7.12,0,0,0,2.3,1.12,10.74,10.74,0,0,1,2.27.45c1.52.77,2.92,2.07,4.67,2.07a8.75,8.75,0,0,1,2.29.09c.76.18,1.46-.3,2.22-.14a5,5,0,0,1,1.15.54,2.18,2.18,0,0,0,1.24.06c.78-.11,1.53-.17,2.29-.31a2.69,2.69,0,0,0,.64-.13Z" transform="translate(13.07 6.9)" fill="#d6c2aa" opacity="0.5" style="mix-blend-mode:soft-light"/><path d="M71.09,4.3c-.6-3.15-4.11-1.61-7.67-2.12-2.54-.35-3.93-2.43-8-.56a2.87,2.87,0,0,1-1.89.19,5.49,5.49,0,0,1,.5.69c.23.38.52.71.76,1.1a4.52,4.52,0,0,1,.44.88,2,2,0,0,1,.58-.13c1.64,0,2.37,1.39,3.54,2.25a1.92,1.92,0,0,0,2.78-.28,4,4,0,0,1,1.18-1,2.25,2.25,0,0,1,2.7.34c.76.76,1.58,2.48,2.54,2.8,1.2.37,2.44.62,3.33-.46C73.09,6.59,72.61,5.39,71.09,4.3Z" transform="translate(13.07 6.9)" fill="#f8ac55"/><path d="M72,6.78a3.09,3.09,0,0,1-3.9.18,16,16,0,0,1-1.89-1.8c-1-.89-1.8-.57-3-.07-1.61.66-3.13.22-4.72-.49a6.12,6.12,0,0,0-3.32-.5c.06.12.11.25.16.38a2,2,0,0,1,.58-.13c1.64,0,2.37,1.39,3.54,2.25a1.92,1.92,0,0,0,2.78-.28,4,4,0,0,1,1.18-1,2.25,2.25,0,0,1,2.7.34c.76.76,1.58,2.48,2.54,2.8,1.2.37,2.44.62,3.33-.46a2.1,2.1,0,0,0,.61-1.85A3.45,3.45,0,0,1,72,6.78Z" transform="translate(13.07 6.9)" fill="#e4bca2" style="mix-blend-mode:multiply"/><path d="M62.15,2.47a5.53,5.53,0,0,0-4-.61c-1.25.36-2.34.31-2.36-.05s1-.58,2.32-.8A4.21,4.21,0,0,1,61,1.59,6,6,0,0,1,62.15,2.47Z" transform="translate(13.07 6.9)" fill="#d6c2aa" style="mix-blend-mode:soft-light"/><path d="M64.58,2.9a11.11,11.11,0,0,1,1.69-.07,7.23,7.23,0,0,1,3.09.69c1.15.62,1.35,1.34,1.45,1a1.66,1.66,0,0,0-1.22-1.81,6.5,6.5,0,0,0-3.29-.22A10.16,10.16,0,0,0,64.58,2.9Z" transform="translate(13.07 6.9)" fill="#d6c2aa" style="mix-blend-mode:soft-light"/><path d="M71.08,5a1.33,1.33,0,0,1-1-.43,8,8,0,0,0-2.43-.92,7.74,7.74,0,0,0-2.45-.49A8.72,8.72,0,0,1,63,3.26c-1.63-.41-3.22-1.43-4.91-1.11a8.85,8.85,0,0,1-2.26.31,3.89,3.89,0,0,0-1.49.4l.2.29A1,1,0,0,1,55.17,3a15.82,15.82,0,0,1,3.2,1,5.57,5.57,0,0,0,2.45.58c.89-.12,1.8-.22,2.73-.26s.79-.78,1.63-.44,2.14,1.78,2.87,2.23,1.18,1.12,2.18.85c.49-.14,2-.49,1.8-1.33C72,5.31,71.34,5.08,71.08,5Z" transform="translate(13.07 6.9)" fill="#d6c2aa" opacity="0.5" style="mix-blend-mode:soft-light"/><path d="M72.81,7.63c.81-.45,1.78-1.17,2.75-1,1.61.34,2,1.94,2.85,3.06a1.84,1.84,0,0,0,2.65.51,3.63,3.63,0,0,1,1.42-.6A2,2,0,0,1,84.8,11c.38,1,.14,2.86.44,3.41.23.36.3.63.5.72s.44,0,1.05,0a3.91,3.91,0,0,0,2,0,2,2,0,0,0,.9-2.14A2,2,0,0,0,90,10.91a2.74,2.74,0,0,0-.59-1,4.53,4.53,0,0,0-.92-.82c-1.4-1-3.24-1.52-4.94-2.4-1.22-.64-2-1.49-3.1-2.16a6.12,6.12,0,0,0-4.68-.65c-.77.33-2.15-.38-3.71-.86s-3.3-.73-4.59.45C65.65,5.24,67,7.29,68.61,8.29S71.79,8.19,72.81,7.63Z" transform="translate(13.07 6.9)" fill="#f8ac55"/><path d="M88.73,15.14,88,14.86a3.52,3.52,0,0,1-1.4-.57A3.79,3.79,0,0,1,85.77,13c-.27-.7-.33-1.61-.67-2.4-.57-1.26-1.45-1.26-2.74-1.19-1.71.11-3-.74-4.35-1.83-1.66-1.33-3.78-1.84-6.68-.76-1.87.68-4.19.77-4.6-2.15-.48,1.43.6,2.85,1.88,3.65,1.63,1,3.18-.1,4.2-.66.81-.45,1.78-1.17,2.75-1,1.61.34,2,1.94,2.85,3.06a1.84,1.84,0,0,0,2.65.51,3.63,3.63,0,0,1,1.42-.6A2,2,0,0,1,84.8,11c.38,1,.14,2.86.44,3.41.23.36.3.63.5.72s.44,0,1.05,0A4.56,4.56,0,0,0,88.73,15.14Z" transform="translate(13.07 6.9)" fill="#e4bca2" style="mix-blend-mode:multiply"/><path d="M74.31,4.63a7,7,0,0,0-3.93-.79c-1.29.18-2.36,0-2.33-.4S69.15,3,70.46,3a5,5,0,0,1,2.77.8A5.43,5.43,0,0,1,74.31,4.63Z" transform="translate(13.07 6.9)" fill="#d6c2aa" style="mix-blend-mode:soft-light"/><path d="M82.23,6.57a5.77,5.77,0,0,0-1.06-.88,5,5,0,0,0-2.72-.86c-1.33,0-2.39-.28-2.33-.64s1.15-.31,2.5-.2a4.46,4.46,0,0,1,2.69,1.37A5.75,5.75,0,0,1,82.23,6.57Z" transform="translate(13.07 6.9)" fill="#d6c2aa" style="mix-blend-mode:soft-light"/><path d="M84.48,7.84a8.5,8.5,0,0,1,1.69.66,5.92,5.92,0,0,1,2.63,2.4c.69,1.39.19,2.08.55,1.92a1,1,0,0,0,.54-.68,2.16,2.16,0,0,0-.38-1.73,5.64,5.64,0,0,0-3.16-2.22A7.6,7.6,0,0,0,84.48,7.84Z" transform="translate(13.07 6.9)" fill="#d6c2aa" style="mix-blend-mode:soft-light"/><path d="M68.08,4.71c-.27.52.4,1.11.78,1.3a2,2,0,0,0,1.22.12A26.15,26.15,0,0,0,73,6c.92-.17,1.27-1.08,2.22-.8a15.28,15.28,0,0,1,2.9,1.76,6,6,0,0,0,2.2,1.23A20.38,20.38,0,0,1,83,8.78c.82.29,1-.45,1.71.2s1.25,2.54,1.52,3.27.18,1.44.89,1.74c.2.08.51.27.87.44s.74.37,1.09.12a.67.67,0,0,0,.17-.54,1.71,1.71,0,0,0-.14-.6,2,2,0,0,1-.35-1.09c-.12-.9-1-1.68-1.59-2.33A6.43,6.43,0,0,0,85,8.38a13.78,13.78,0,0,1-2.24-.78C81.34,6.65,80,5.22,78.25,5.08A9.71,9.71,0,0,1,76,4.82c-.76-.24-1.49.21-2.24,0a5.21,5.21,0,0,1-1.12-.6,2.33,2.33,0,0,0-1.25-.14c-.78.07-1.53.1-2.3.2a4.28,4.28,0,0,0-.64.1Z" transform="translate(13.07 6.9)" fill="#d6c2aa" opacity="0.5" style="mix-blend-mode:soft-light"/><path d="M36.94,5.35c.66-.65,1.39-1.6,2.38-1.69,1.63-.13,2.45,1.25,3.69,2a1.93,1.93,0,0,0,2.77-.44,4,4,0,0,1,1.1-1.11,2.27,2.27,0,0,1,2.73.15c.82.69,1.78,2.37,2.79,2.59,1.23.29,2.51.42,3.3-.74,1-1.5.41-2.62-1.19-3.58C53.64-.51,50.33,1.3,46.73,1c-2.55-.18-4.06-2.18-8-.07-.62.54-2.12.24-3.74.19s-3.33.15-4.28,1.61C29.38,4.91,31.18,6.55,33,7.1S36.1,6.17,36.94,5.35Z" transform="translate(13.07 6.9)" fill="#f8ac55"/><path d="M56.12,4.24a4.07,4.07,0,0,1-.51.71,3.1,3.1,0,0,1-3.88.52,16.82,16.82,0,0,1-2-1.66c-1.12-.81-1.84-.44-3,.14-1.57.77-3.12.42-4.76-.19-2-.74-4.12-.63-6.64,1.18-1.63,1.17-3.88,1.83-5-.89-.11,1.5,1.3,2.62,2.75,3.05,1.85.56,3.08-.93,3.92-1.75.66-.65,1.39-1.6,2.38-1.69,1.63-.13,2.45,1.25,3.69,2a1.93,1.93,0,0,0,2.77-.44,4,4,0,0,1,1.1-1.11,2.27,2.27,0,0,1,2.73.15c.82.69,1.78,2.37,2.79,2.59,1.23.29,2.51.42,3.3-.74A2.15,2.15,0,0,0,56.12,4.24Z" transform="translate(13.07 6.9)" fill="#e4bca2" style="mix-blend-mode:multiply"/><path d="M37.54,2.05a7.09,7.09,0,0,0-4,.3c-1.2.49-2.28.57-2.35.21s1-.69,2.21-1A5.64,5.64,0,0,1,37.54,2.05Z" transform="translate(13.07 6.9)" fill="#d6c2aa" style="mix-blend-mode:soft-light"/><path d="M45.49,1.4a5.56,5.56,0,0,0-4-.36c-1.22.44-2.32.44-2.36.08s1-.62,2.26-.93A5.12,5.12,0,0,1,45.49,1.4Z" transform="translate(13.07 6.9)" fill="#d6c2aa" style="mix-blend-mode:soft-light"/><path d="M47.94,1.67a9.62,9.62,0,0,1,4.79.26c1.19.53,1.45,1.22,1.52.86a1.68,1.68,0,0,0-1.36-1.7C50.78.41,47.94,1.67,47.94,1.67Z" transform="translate(13.07 6.9)" fill="#d6c2aa" style="mix-blend-mode:soft-light"/><path d="M31.58,3.78c-.12.57.68,1,1.1,1.06a2.11,2.11,0,0,0,1.21-.2,24.13,24.13,0,0,0,2.76-.92c.85-.42.93-1.39,1.9-1.38a16.28,16.28,0,0,1,3.27.81,5.75,5.75,0,0,0,2.48.44A26.4,26.4,0,0,1,47,3.15c.86-.09.73-.83,1.6-.56s2.27,1.62,3,2,1.28,1,2.26.66c.48-.19,2-.66,1.67-1.48-.11-.29-.74-.48-1-.49a1.37,1.37,0,0,1-1-.35,7.89,7.89,0,0,0-2.48-.71,7.49,7.49,0,0,0-2.48-.32,8.19,8.19,0,0,1-2.26.22c-1.65-.31-3.31-1.22-5-.81a8.24,8.24,0,0,1-2.23.44c-.78,0-1.35.62-2.12.64a5.59,5.59,0,0,1-1.24-.28,2.24,2.24,0,0,0-1.22.2c-.73.28-1.45.49-2.17.79a3.91,3.91,0,0,0-.59.26Z" transform="translate(13.07 6.9)" fill="#d6c2aa" opacity="0.5" style="mix-blend-mode:soft-light"/><path d="M5.6,25.58a22.92,22.92,0,0,0,1.47,6.18,16.44,16.44,0,0,0,2.09,3.81A13.43,13.43,0,0,0,16,41a38.26,38.26,0,0,0,7.7,1.16c2.92.28,5.78,1.08,8.7,1.5s5.8,1.35,9,1.35c3.42,0,6.81-.51,10.2-.34a33.89,33.89,0,0,0,4.18.17c1.6-.12,3.17-.69,4.68-.84s3.11.26,4.56-.12,2.8-1,4.14-1.51c2-.76,5.3-1.48,6.48-3.59.75-1.33.36-2.34-.33-3.47-.41-.68-1.34-2.84-1.92-3.23-2.68-1.79-2.15,5.62-2.73,6.92-.32.74-1.8,2.72-2.83,2.34-1.2-.44-.24-2.93-.17-3.9A6,6,0,0,0,67,34.3c-2.4-.59-6-1.14-6.16,2-.07,1.15-1.32,8.71-3.22,5.7-.68-1.09.14-3.12-.12-4.35C57.07,35.8,56,36,54.3,36c-1.28,0-3.31-.69-4.37-.51-1.55.25-1.36,1.88-1.52,3.35-.11,1.06.07,3.46-.49,4.35a1.49,1.49,0,0,1-2.81-.47c-.39-1.44,0-3.09-.38-4.55-.47-2-.66-2.18-2.8-2.17-1.4,0-3.63-.77-4.51,0s-.39,2.6-.54,3.81c-.18,1.37-.7,2.91-2.31,2.46-1.92-.54-1.41-2.25-1.21-3.64s.54-2.9-.67-3.68-3.38-.8-4.72-1.21c-3.59-1.11-5,.24-5,3.88,0,1.6.29,3.36-1.8,3.35s-1.61-1.74-1.25-3.17c.26-1,.86-3.08.34-4.15S18,32.1,17,31.43c-1.49-1-2.49-2.23-2.84.21-.23,1.63.42,3.59-.2,5.11-3.23,0-2.1-5.83-3.11-7.83-.74-1.46-4.11-5.13-5.72-5Z" transform="translate(13.07 6.9)" fill="#bf8266" style="mix-blend-mode:soft-light"/></g></g></g></svg>