<svg xmlns="http://www.w3.org/2000/svg" viewBox="0 0 94.7 87.34"><g style="isolation:isolate"><g id="Layer_2" data-name="Layer 2"><g id="Capa_1" data-name="Capa 1"><path d="M48.7,22c.82,2-1.83,1.87-2.16-.45C46.08,13,51,8.15,52.5,8.32s3.73,3.19,3.32,4.16S48.7,12.73,48.7,22Z" fill="#64a729"/><path d="M73.9,59.54c0,17-6.61,25.59-16.1,27.65-3.43.74-7.24-1.55-11.25-1.55s-7.8,2.29-11.23,1.55c-9.5-2-16.11-10.67-16.11-27.65,0-27.58,12.24-38,27.34-38S73.9,32,73.9,59.54Z" fill="#f07f00"/><path d="M71.53,55.36c0,20.56-11.19,23.22-25,23.22s-25-2.66-25-23.22c0-24.56,11.19-33.86,25-33.86S71.53,30.8,71.53,55.36Z" fill="#f39200"/><path d="M67.19,59.54c0,16.61-4.45,24-11.38,26.21-2.71.86-6.07-.11-9.29-.11-3.46,0-6.41.93-9.28-.11-6.58-2.36-11.38-9.9-11.38-26,0-23.1,9.25-38,20.66-38S67.19,36.44,67.19,59.54Z" fill="#fff" opacity="0.5" style="mix-blend-mode:soft-light"/><path d="M57.58,59.54c0,23.11-4.95,26.1-11.06,26.1s-11.05-3-11.05-26.1,5-38,11.05-38S57.58,36.44,57.58,59.54Z" fill="#fff" opacity="0.5" style="mix-blend-mode:soft-light"/><path d="M49.84,59.54c0,23.11-1.48,26.1-3.32,26.1s-3.31-3-3.31-26.1,1.48-38,3.31-38S49.84,36.44,49.84,59.54Z" fill="#fff" opacity="0.5" style="mix-blend-mode:soft-light"/><path d="M46.52,85.64l-1,.19a22.83,22.83,0,0,1-2.75.34,18.38,18.38,0,0,1-4.32-.2,12.61,12.61,0,0,1-5.21-2.14,14.8,14.8,0,0,1-4.34-5.09,26.21,26.21,0,0,1-2.47-7,52.89,52.89,0,0,1-1-7.87c-.15-2.7-.17-5.43-.05-8.17A63.86,63.86,0,0,1,28.07,39.8a34.56,34.56,0,0,1,6.54-12.4,18.68,18.68,0,0,1,4.24-3.69A14.51,14.51,0,0,1,42.8,22a13.06,13.06,0,0,1,2.74-.44h1l-1,.07a13.89,13.89,0,0,0-2.69.58,14.21,14.21,0,0,0-3.78,1.9,19.81,19.81,0,0,0-4,3.75,29.66,29.66,0,0,0-3.48,5.49A45.27,45.27,0,0,0,29,40.07,63.92,63.92,0,0,0,26.49,55.7a65.85,65.85,0,0,0,.9,15.81,27.89,27.89,0,0,0,2.24,6.86,14.07,14.07,0,0,0,4,5,12.9,12.9,0,0,0,4.93,2.24A17.59,17.59,0,0,0,42.8,86a25.16,25.16,0,0,0,2.75-.19Z" fill="#e37900"/><path d="M46.52,85.64l-.83.09a12.45,12.45,0,0,1-2.36,0,6.58,6.58,0,0,1-3.43-1.37,9.14,9.14,0,0,1-2.65-4,29.11,29.11,0,0,1-1.37-5.5c-.31-2-.54-4.09-.66-6.27-.25-4.36-.33-9-.22-13.65a118.13,118.13,0,0,1,1.2-13.61,58.45,58.45,0,0,1,2.89-11.58c1.22-3.27,2.84-5.83,4.47-7.11a5,5,0,0,1,2.13-1,3.25,3.25,0,0,1,.83-.07,3.85,3.85,0,0,0-.82.13,5,5,0,0,0-2,1.13,10.68,10.68,0,0,0-2.17,2.86,28.14,28.14,0,0,0-1.86,4.3,64,64,0,0,0-2.53,11.51,118.91,118.91,0,0,0-1.06,13.51c-.15,4.6-.13,9.24.08,13.56s.56,8.37,1.66,11.62A9.29,9.29,0,0,0,40.16,84a6.32,6.32,0,0,0,3.2,1.46,14.06,14.06,0,0,0,2.33.17Z" fill="#e37900"/><path d="M46.52,85.64a2.77,2.77,0,0,1-.74,0,1.77,1.77,0,0,1-.85-.32,2.39,2.39,0,0,1-.75-1,11.7,11.7,0,0,1-.78-3.21c-.16-1.26-.29-2.68-.36-4.24-.15-3.11-.26-6.73-.3-10.62s-.06-8,0-12.16.19-8.29.37-12.18.51-7.5.85-10.59a54,54,0,0,1,1.27-7.42A7.4,7.4,0,0,1,46,22c.26-.45.59-.46.57-.45s-.3,0-.52.48a7.82,7.82,0,0,0-.6,2,64.66,64.66,0,0,0-.87,7.43c-.24,3.08-.36,6.7-.51,10.57s-.21,8-.24,12.15-.07,8.27-.09,12.15-.1,7.5,0,10.6c0,1.55.06,3,.15,4.22a11.7,11.7,0,0,0,.57,3.16,2.42,2.42,0,0,0,.64,1,1.61,1.61,0,0,0,.78.36A2.68,2.68,0,0,0,46.52,85.64Z" fill="#e37900"/><path d="M46.52,85.64l1,.18a25.92,25.92,0,0,0,2.75.33,16.61,16.61,0,0,0,4.25-.26A11.58,11.58,0,0,0,57,85.12a11.4,11.4,0,0,0,2.48-1.44,14.11,14.11,0,0,0,4-5,28.33,28.33,0,0,0,2.23-6.9,67.39,67.39,0,0,0,.92-15.87,64.4,64.4,0,0,0-2.46-15.7,47.62,47.62,0,0,0-2.62-6.82A29.44,29.44,0,0,0,58,27.84a19.93,19.93,0,0,0-4-3.77,14.06,14.06,0,0,0-3.8-1.91,13.25,13.25,0,0,0-2.7-.59l-1-.07h1a13,13,0,0,1,2.75.44,14.79,14.79,0,0,1,4,1.77,18.69,18.69,0,0,1,4.26,3.72A35,35,0,0,1,65,39.9a65,65,0,0,1,2.63,15.93Q67.82,60,67.58,64a54.66,54.66,0,0,1-1,7.9A27.47,27.47,0,0,1,64.12,79a14.75,14.75,0,0,1-4.31,5.15,11.73,11.73,0,0,1-5.25,2.12,16.39,16.39,0,0,1-4.34.07,21.38,21.38,0,0,1-2.74-.47Z" fill="#e37900"/><path d="M46.52,85.64h.84a23,23,0,0,0,2.34-.21A7.18,7.18,0,0,0,53,84.11a7.77,7.77,0,0,0,2.46-3.81,26.22,26.22,0,0,0,1.07-5.44c.23-2,.32-4.06.41-6.23.15-4.33.18-9,0-13.6a121.84,121.84,0,0,0-1-13.54A64.85,64.85,0,0,0,53.39,30a28,28,0,0,0-1.86-4.32,10.91,10.91,0,0,0-2.18-2.86,4.89,4.89,0,0,0-2-1.14,3.77,3.77,0,0,0-.82-.13,3.32,3.32,0,0,1,.84.07,5,5,0,0,1,2.13,1c1.63,1.29,3.26,3.85,4.48,7.14a58.59,58.59,0,0,1,2.89,11.61A118.66,118.66,0,0,1,58.06,55c.09,4.67,0,9.31-.18,13.68-.1,2.19-.29,4.3-.57,6.29A27.43,27.43,0,0,1,56,80.5a7.88,7.88,0,0,1-2.8,3.93,7.4,7.4,0,0,1-3.51,1.19,17.18,17.18,0,0,1-2.36.07Z" fill="#e37900"/><path d="M46.52,85.64a4.13,4.13,0,0,0,.72-.18,2.29,2.29,0,0,0,1.4-1.4c.66-1.65.69-4.27.76-7.35s0-6.7,0-10.56,0-8-.09-12.13-.1-8.24-.24-12.11-.27-7.46-.52-10.54A64.87,64.87,0,0,0,47.65,24,8.08,8.08,0,0,0,47,22c-.21-.46-.52-.49-.52-.48s.32,0,.57.45a7.27,7.27,0,0,1,.77,2,53.9,53.9,0,0,1,1.27,7.4c.33,3.08.67,6.69.85,10.56s.31,8,.37,12.14,0,8.27,0,12.14-.15,7.48-.3,10.59c-.07,1.55-.2,3-.37,4.22a11.3,11.3,0,0,1-.81,3.19,2.37,2.37,0,0,1-1.57,1.37A3.42,3.42,0,0,1,46.52,85.64Z" fill="#e37900"/><path d="M43,16.22a6.9,6.9,0,0,0-3-4.52,8.84,8.84,0,0,0-5.37-1.13,5.42,5.42,0,0,0-.71-.89c-2.85-2.67-8.37-1.13-10.15,2,0,.07.06.15.11.09a8.24,8.24,0,0,1,5.5-2.66,4.78,4.78,0,0,1,3.86,1.2c.13.16.25.32.38.47a3.66,3.66,0,0,0-2,1.56c-1.31,2.14-1,5.68,2.12,5.14,2.76-.47,2.51-3.43,1.53-5.66a8.4,8.4,0,0,1,1.54.06c2.15.32,3.53,2.05,4.28,3.94a5.84,5.84,0,0,1,.2.59c-2.7.69-5,2.87-4.39,6.08.61,3,4.64,3.76,5.72.67a12.91,12.91,0,0,0,.57-5.41,3.87,3.87,0,0,1,3.44,2.94.71.71,0,0,0,1.38-.19C47.94,17.47,45.54,16.16,43,16.22ZM32.18,14A2.58,2.58,0,0,1,34.48,12C36.39,15.09,33.1,18.72,32.18,14Zm9.22,8c-.32,2-1.84,2.53-2.94.09a2.73,2.73,0,0,1,1.22-3.28,5.52,5.52,0,0,1,2-.92,18.09,18.09,0,0,1,.08,1.94A10,10,0,0,1,41.4,22Z" fill="#64a729"/><path d="M47.78,21.21a.44.44,0,0,0,.86.13,2.43,2.43,0,0,1,2.16-1.83,8.39,8.39,0,0,0,.34,3.39,1.85,1.85,0,0,0,3.58-.4c.42-2-1-3.38-2.72-3.82,0-.12.08-.25.13-.37a3.57,3.57,0,0,1,2.69-2.44,4.93,4.93,0,0,1,1,0c-.61,1.4-.78,3.24.94,3.55,2,.35,2.16-1.86,1.35-3.21a2.38,2.38,0,0,0-1.22-1l.24-.29a3,3,0,0,1,2.42-.74,5.18,5.18,0,0,1,3.43,1.69s.09,0,.07-.06c-1.1-2-4.55-3-6.34-1.31a3,3,0,0,0-.45.55,5.56,5.56,0,0,0-3.37.68A4.35,4.35,0,0,0,51,18.53,2.81,2.81,0,0,0,47.78,21.21Zm8.54-5.31a1.62,1.62,0,0,1,1.43,1.31C57.16,20.14,55.11,17.85,56.32,15.9Zm-4.56,4.91a9.81,9.81,0,0,1,.06-1.21,3.15,3.15,0,0,1,1.21.58,1.7,1.7,0,0,1,.75,2.06c-.69,1.52-1.64,1.2-1.83-.08A5.57,5.57,0,0,1,51.76,20.81Z" fill="#64a729"/><path d="M54,1.19a.23.23,0,1,0,0,.45A.23.23,0,0,0,54,1.19Z" fill="#44982c"/><path d="M61.39,24.47a.23.23,0,1,0,0,.45A.23.23,0,0,0,61.39,24.47Z" fill="#44982c"/><path d="M53.54,7.89a.23.23,0,0,0,0,.45A.23.23,0,0,0,53.54,7.89Z" fill="#44982c"/><path d="M53.32,28.77a.23.23,0,0,0,0,.45A.23.23,0,0,0,53.32,28.77Z" fill="#44982c"/><path d="M66.07,12.66a.23.23,0,0,0,0,.45A.23.23,0,0,0,66.07,12.66Z" fill="#44982c"/><path d="M58.14,28.48a.23.23,0,0,0,0,.45A.23.23,0,0,0,58.14,28.48Z" fill="#44982c"/><path d="M40.55,17.57a.23.23,0,0,0,0,.45A.23.23,0,0,0,40.55,17.57Z" fill="#44982c"/><path d="M44.66,27.91a.51.51,0,0,0,0,1A.51.51,0,0,0,44.66,27.91Z" fill="#44982c"/><path d="M45.15,15.75a.51.51,0,0,0,0,1A.51.51,0,0,0,45.15,15.75Z" fill="#44982c"/><path d="M47.92,15.24a.51.51,0,0,0,0,1A.51.51,0,0,0,47.92,15.24Z" fill="#44982c"/><path d="M48.44,9.42a.54.54,0,0,0,0,1.07A.54.54,0,0,0,48.44,9.42Z" fill="#44982c"/><path d="M53.32,22.74a1.25,1.25,0,0,0-1.06,1.85s0,0,0,0a1.21,1.21,0,0,0,2.08,0s0,0,0,0A1.25,1.25,0,0,0,53.32,22.74Z" fill="#44982c"/><path d="M69.86,22.51a.74.74,0,0,0,0,1.47A.74.74,0,0,0,69.86,22.51Z" fill="#44982c"/><path d="M68.42,17.18a.62.62,0,0,0,0,1.24A.62.62,0,0,0,68.42,17.18Z" fill="#44982c"/><path d="M58.14,6.19a.74.74,0,0,0,0,1.47A.74.74,0,0,0,58.14,6.19Z" fill="#44982c"/><path d="M61.75,21.53a.38.38,0,0,0,0,.76A.38.38,0,0,0,61.75,21.53Z" fill="#44982c"/><path d="M63.27,5a.52.52,0,0,0,0,1A.52.52,0,0,0,63.27,5Z" fill="#44982c"/><path d="M63.76.28s0,0,0,0a.6.6,0,0,0-1.07.23.59.59,0,0,0,.92.59l0,0A.57.57,0,0,0,63.76.28Z" fill="#44982c"/><path d="M68.64,8.35a.48.48,0,0,0,0,1A.48.48,0,0,0,68.64,8.35Z" fill="#44982c"/><path d="M74.27,12.14a.75.75,0,0,0,0,1.49A.75.75,0,0,0,74.27,12.14Z" fill="#44982c"/><path d="M67.53,28.41a.29.29,0,0,0,0,.58A.29.29,0,0,0,67.53,28.41Z" fill="#44982c"/><path d="M66.22,21.29s0,0,0,0c-.43-.8-1.55.32-.75.75l0,0A.54.54,0,0,0,66.22,21.29Z" fill="#44982c"/><path d="M51.32,11.23a.66.66,0,0,0,0,1.32A.66.66,0,0,0,51.32,11.23Z" fill="#44982c"/><path d="M47.42,22.92a.33.33,0,0,0,0,.65A.33.33,0,0,0,47.42,22.92Z" fill="#44982c"/><path d="M58.85,24.7a.52.52,0,0,0,0,1A.52.52,0,0,0,58.85,24.7Z" fill="#44982c"/><path d="M73.68,54.42a.23.23,0,0,0,0,.45A.23.23,0,0,0,73.68,54.42Z" fill="#eb6209"/><path d="M81.09,77.69a.23.23,0,0,0,0,.45A.23.23,0,0,0,81.09,77.69Z" fill="#eb6209"/><path d="M73.24,61.11a.23.23,0,0,0,0,.45A.23.23,0,0,0,73.24,61.11Z" fill="#eb6209"/><path d="M73,82a.23.23,0,0,0,0,.45A.23.23,0,0,0,73,82Z" fill="#eb6209"/><path d="M85.78,65.88a.23.23,0,0,0,0,.45A.23.23,0,0,0,85.78,65.88Z" fill="#eb6209"/><path d="M77.84,81.7a.23.23,0,0,0,0,.45A.23.23,0,0,0,77.84,81.7Z" fill="#eb6209"/><path d="M60.25,70.8a.23.23,0,0,0,0,.45A.23.23,0,1,0,60.25,70.8Z" fill="#eb6209"/><path d="M64.36,81.13a.51.51,0,0,0,0,1A.51.51,0,0,0,64.36,81.13Z" fill="#eb6209"/><path d="M64.85,69a.51.51,0,0,0,0,1A.51.51,0,0,0,64.85,69Z" fill="#eb6209"/><path d="M67.62,68.46a.51.51,0,0,0,0,1A.51.51,0,0,0,67.62,68.46Z" fill="#eb6209"/><path d="M68.14,62.64a.54.54,0,0,0,0,1.07A.54.54,0,0,0,68.14,62.64Z" fill="#eb6209"/><path d="M73,76A1.25,1.25,0,0,0,72,77.81s0,0,0,0a1.21,1.21,0,0,0,2.08,0l0,0A1.25,1.25,0,0,0,73,76Z" fill="#eb6209"/><path d="M89.57,75.73a.74.74,0,0,0,0,1.47A.74.74,0,0,0,89.57,75.73Z" fill="#eb6209"/><path d="M88.12,70.4a.62.62,0,0,0,0,1.24A.62.62,0,0,0,88.12,70.4Z" fill="#eb6209"/><path d="M77.84,59.41a.74.74,0,0,0,0,1.47A.74.74,0,0,0,77.84,59.41Z" fill="#eb6209"/><path d="M81.45,74.75a.38.38,0,0,0,0,.76A.38.38,0,0,0,81.45,74.75Z" fill="#eb6209"/><path d="M83,58.19a.53.53,0,0,0,0,1.05A.53.53,0,0,0,83,58.19Z" fill="#eb6209"/><path d="M83.47,53.5l0,0a.6.6,0,1,0-.14.83l0,0A.57.57,0,0,0,83.47,53.5Z" fill="#eb6209"/><path d="M88.34,61.57a.48.48,0,0,0,0,1A.48.48,0,0,0,88.34,61.57Z" fill="#eb6209"/><path d="M94,65.36a.75.75,0,0,0,0,1.5A.75.75,0,0,0,94,65.36Z" fill="#eb6209"/><path d="M87.23,81.64a.29.29,0,0,0,0,.57A.29.29,0,0,0,87.23,81.64Z" fill="#eb6209"/><path d="M85.93,74.51l0,0c-.43-.8-1.55.32-.75.75l0,0A.55.55,0,0,0,85.93,74.51Z" fill="#eb6209"/><path d="M71,64.45a.66.66,0,0,0,0,1.32A.66.66,0,0,0,71,64.45Z" fill="#eb6209"/><path d="M67.13,76.14a.33.33,0,0,0,0,.65A.33.33,0,0,0,67.13,76.14Z" fill="#eb6209"/><path d="M78.55,77.92a.53.53,0,0,0,0,1A.53.53,0,0,0,78.55,77.92Z" fill="#eb6209"/><path d="M13.64,47.46a.23.23,0,0,0,0,.45A.23.23,0,0,0,13.64,47.46Z" fill="#eb6209"/><path d="M21.05,70.74a.23.23,0,0,0,0,.45A.23.23,0,0,0,21.05,70.74Z" fill="#eb6209"/><path d="M13.2,54.16a.23.23,0,0,0,0,.45A.23.23,0,0,0,13.2,54.16Z" fill="#eb6209"/><path d="M13,75a.22.22,0,0,0,0,.45A.22.22,0,0,0,13,75Z" fill="#eb6209"/><path d="M25.74,58.93a.23.23,0,0,0,0,.45A.23.23,0,0,0,25.74,58.93Z" fill="#eb6209"/><path d="M17.81,74.75a.22.22,0,0,0,0,.45A.22.22,0,0,0,17.81,74.75Z" fill="#eb6209"/><path d="M.22,63.84a.23.23,0,0,0,0,.45A.23.23,0,0,0,.22,63.84Z" fill="#eb6209"/><path d="M4.33,74.18a.51.51,0,0,0,0,1A.51.51,0,0,0,4.33,74.18Z" fill="#eb6209"/><path d="M4.82,62a.51.51,0,0,0,0,1A.51.51,0,0,0,4.82,62Z" fill="#eb6209"/><path d="M7.58,61.51a.51.51,0,0,0,0,1A.51.51,0,0,0,7.58,61.51Z" fill="#eb6209"/><path d="M8.1,55.69a.54.54,0,0,0,0,1.07A.54.54,0,0,0,8.1,55.69Z" fill="#eb6209"/><path d="M13,69a1.25,1.25,0,0,0-1.07,1.85l0,0a1.21,1.21,0,0,0,2.08,0,.05.05,0,0,1,0,0A1.25,1.25,0,0,0,13,69Z" fill="#eb6209"/><path d="M29.53,68.78a.74.74,0,0,0,0,1.47A.74.74,0,0,0,29.53,68.78Z" fill="#eb6209"/><path d="M28.08,63.45a.62.62,0,0,0,0,1.24A.62.62,0,0,0,28.08,63.45Z" fill="#eb6209"/><path d="M17.8,52.46a.73.73,0,0,0,0,1.46A.73.73,0,0,0,17.8,52.46Z" fill="#eb6209"/><path d="M21.42,67.8a.38.38,0,0,0,0,.76A.38.38,0,0,0,21.42,67.8Z" fill="#eb6209"/><path d="M22.93,51.24a.52.52,0,0,0,0,1A.52.52,0,0,0,22.93,51.24Z" fill="#eb6209"/><path d="M23.43,46.55l0,0a.59.59,0,1,0-.14.82l0,0A.57.57,0,0,0,23.43,46.55Z" fill="#eb6209"/><path d="M28.3,54.62a.48.48,0,0,0,0,1A.48.48,0,0,0,28.3,54.62Z" fill="#eb6209"/><path d="M33.94,58.41a.75.75,0,0,0,0,1.5A.75.75,0,0,0,33.94,58.41Z" fill="#eb6209"/><path d="M27.2,74.68a.29.29,0,0,0,0,.58A.29.29,0,0,0,27.2,74.68Z" fill="#eb6209"/><path d="M25.89,67.56l0,0c-.42-.8-1.55.32-.74.75l0,0A.54.54,0,0,0,25.89,67.56Z" fill="#eb6209"/><path d="M11,57.5a.66.66,0,0,0,0,1.32A.66.66,0,0,0,11,57.5Z" fill="#eb6209"/><path d="M7.09,69.19a.33.33,0,0,0,0,.65A.33.33,0,0,0,7.09,69.19Z" fill="#eb6209"/><path d="M18.52,71a.52.52,0,0,0,0,1A.52.52,0,0,0,18.52,71Z" fill="#eb6209"/><path d="M22.35,7.21a.23.23,0,0,0,0,.45A.23.23,0,1,0,22.35,7.21Z" fill="#44982c"/><path d="M29.76,30.48a.23.23,0,0,0,0,.45A.23.23,0,0,0,29.76,30.48Z" fill="#44982c"/><path d="M21.92,13.9a.23.23,0,0,0,0,.45A.23.23,0,0,0,21.92,13.9Z" fill="#44982c"/><path d="M21.7,34.78a.23.23,0,0,0,0,.45A.23.23,0,0,0,21.7,34.78Z" fill="#44982c"/><path d="M34.45,18.67a.23.23,0,0,0,0,.45A.23.23,0,0,0,34.45,18.67Z" fill="#44982c"/><path d="M26.52,34.49a.23.23,0,0,0,0,.45A.23.23,0,0,0,26.52,34.49Z" fill="#44982c"/><path d="M8.93,23.59a.23.23,0,0,0,0,.45A.23.23,0,0,0,8.93,23.59Z" fill="#44982c"/><path d="M13,33.92a.51.51,0,0,0,0,1A.51.51,0,0,0,13,33.92Z" fill="#44982c"/><path d="M13.53,21.76a.51.51,0,0,0,0,1A.51.51,0,0,0,13.53,21.76Z" fill="#44982c"/><path d="M16.29,21.25a.51.51,0,0,0,0,1A.51.51,0,0,0,16.29,21.25Z" fill="#44982c"/><path d="M16.81,15.43a.54.54,0,0,0,0,1.07A.54.54,0,0,0,16.81,15.43Z" fill="#44982c"/><path d="M21.7,28.75a1.25,1.25,0,0,0-1.06,1.85l0,0a1.21,1.21,0,0,0,2.08,0s0,0,0,0A1.25,1.25,0,0,0,21.7,28.75Z" fill="#44982c"/><path d="M38.24,28.52a.74.74,0,0,0,0,1.47A.74.74,0,0,0,38.24,28.52Z" fill="#44982c"/><path d="M36.8,23.19a.62.62,0,0,0,0,1.24A.62.62,0,0,0,36.8,23.19Z" fill="#44982c"/><path d="M26.52,12.2a.74.74,0,0,0,0,1.47A.74.74,0,0,0,26.52,12.2Z" fill="#44982c"/><path d="M30.13,27.54a.38.38,0,0,0,0,.76A.38.38,0,0,0,30.13,27.54Z" fill="#44982c"/><path d="M31.64,11a.52.52,0,0,0,0,1A.52.52,0,0,0,31.64,11Z" fill="#44982c"/><path d="M32.14,6.29l0,0a.59.59,0,1,0-.14.83l0,0A.57.57,0,0,0,32.14,6.29Z" fill="#44982c"/><path d="M37,14.36a.48.48,0,0,0,0,1A.48.48,0,0,0,37,14.36Z" fill="#44982c"/><path d="M42.65,18.15a.75.75,0,0,0,0,1.5A.75.75,0,0,0,42.65,18.15Z" fill="#44982c"/><path d="M35.91,34.43a.29.29,0,0,0,0,.57A.29.29,0,0,0,35.91,34.43Z" fill="#44982c"/><path d="M34.6,27.3l0,0c-.43-.8-1.55.32-.75.75l0,0A.54.54,0,0,0,34.6,27.3Z" fill="#44982c"/><path d="M19.7,17.24a.66.66,0,0,0,0,1.32A.66.66,0,0,0,19.7,17.24Z" fill="#44982c"/><path d="M15.8,28.93a.33.33,0,0,0,0,.65A.33.33,0,0,0,15.8,28.93Z" fill="#44982c"/><path d="M27.23,30.71a.52.52,0,0,0,0,1A.52.52,0,0,0,27.23,30.71Z" fill="#44982c"/></g></g></g></svg>