<svg xmlns="http://www.w3.org/2000/svg" viewBox="0 0 58.64 78.19"><g style="isolation:isolate"><g id="Layer_2" data-name="Layer 2"><g id="Capa_1" data-name="Capa 1"><path d="M49.59,27.69c0,12.51-19.6,28.8-19.6,28.8S10.38,39.4,10.38,27.69c0-5.3,6-12,19.61-12S49.59,22.39,49.59,27.69Z" fill="#583636"/><path d="M51.45,65.65A14.5,14.5,0,0,1,47.88,71c-3.82,3.65-9.82,5.32-17.9,5.32-10.09,0-15.5-2.46-19-6.64A22.21,22.21,0,0,1,8.08,65C4.3,57,6.71,35.85,6.71,35.85l46-2.12S55.37,55.65,51.45,65.65Z" fill="#583636"/><path d="M47.88,71c-3.82,3.65-9.82,5.32-17.9,5.32-10.09,0-15.5-2.46-19-6.64a48.65,48.65,0,0,1,1.54-11.3c2.26-7.41,7.88-10.7,16.69-10.7,10.47,0,14.45,4.37,17,11.36C47.32,61.9,47.76,66.41,47.88,71Z" fill="#76474a"/><path d="M9.49,36.82C5,30,7.28,15.84,7.28,15.84S21.39,20,25.55,26.39c1.89,2.9,1.81,8.18-3.75,11.8S11.38,39.73,9.49,36.82Z" fill="#583636"/><path d="M49.71,36.82c4.45-6.85,2.22-21,2.22-21S37.82,20,33.65,26.39c-1.88,2.9-1.81,8.18,3.76,11.8S47.83,39.73,49.71,36.82Z" fill="#583636"/><path d="M34,43.28c0,2.35-4.24,6.77-4.24,6.77s-4.25-3.24-4.25-6.77c3-1,4.25-4.71,4.25-4.71A8.7,8.7,0,0,0,34,43.28Z" fill="#e94e1b"/><path d="M27.66,44.93a3,3,0,0,1-.45-1.66,2.23,2.23,0,0,1,1.23,1,.87.87,0,0,1,0,1C28.28,45.46,27.91,45.31,27.66,44.93Z" fill="#c2acab" style="mix-blend-mode:multiply"/><path d="M31.87,44.93a3,3,0,0,0,.45-1.66,2.23,2.23,0,0,0-1.23,1,.87.87,0,0,0-.05,1C31.25,45.46,31.62,45.31,31.87,44.93Z" fill="#c2acab" style="mix-blend-mode:multiply"/><path d="M52.67,33.73A11.63,11.63,0,1,1,41,22.1,11.63,11.63,0,0,1,52.67,33.73Z" fill="#3b1200"/><path d="M49.53,34.56a9.32,9.32,0,1,1-9.32-9.32A9.32,9.32,0,0,1,49.53,34.56Z" fill="#fff"/><path d="M41.32,35.62a4.48,4.48,0,1,1-4.48-4.48A4.47,4.47,0,0,1,41.32,35.62Z" fill="#3b1200"/><path d="M38.88,34.9a1.82,1.82,0,1,0,1.82-1.82A1.82,1.82,0,0,0,38.88,34.9Z" fill="#fff"/><path d="M6.71,33.73A11.63,11.63,0,1,0,18.34,22.1,11.63,11.63,0,0,0,6.71,33.73Z" fill="#3b1200"/><path d="M9.85,34.56a9.32,9.32,0,1,0,9.32-9.32A9.32,9.32,0,0,0,9.85,34.56Z" fill="#fff"/><path d="M18.06,35.62a4.48,4.48,0,1,0,4.48-4.48A4.48,4.48,0,0,0,18.06,35.62Z" fill="#3b1200"/><path d="M20.51,34.9a1.82,1.82,0,1,1-1.82-1.82A1.82,1.82,0,0,1,20.51,34.9Z" fill="#fff"/><path d="M58.61,52.64c-.32,5.73-5.94,13.21-5.94,13.21S46.73,58,46.73,52.64c0-6.33,2.4-12.55,6.52-12.55S58.88,47.71,58.61,52.64Z" fill="#452a29"/><path d="M11.88,52.64c-.32,5.73-5.94,13.21-5.94,13.21S0,58,0,52.64c0-6.33,2.4-12.55,6.52-12.55S12.15,47.71,11.88,52.64Z" fill="#452a29"/><path d="M19,76.72c-.11.48-.44.84-.92.72h0c-.48-.11-.6-.53-.49-1L18.24,73a.89.89,0,0,1,1.07-.66h0A.88.88,0,0,1,20,73.39Z" fill="#e94e1b"/><path d="M20.62,77.1c-.12.48-.45.82-.93.71h0c-.48-.11-.59-.56-.48-1l.61-3.42a.87.87,0,0,1,1.06-.66h0a.89.89,0,0,1,.67,1.06Z" fill="#e94e1b"/><path d="M22.07,77.45c-.17.45-.34.83-.82.72h0c-.47-.11-.62-.56-.51-1l.64-3.42a.89.89,0,0,1,1.07-.66h0a.89.89,0,0,1,.66,1.07Z" fill="#e94e1b"/><path d="M37.76,77.06c.05.49-.16.93-.65,1h0c-.49,0-.74-.32-.78-.81l-.49-3.47a.9.9,0,0,1,.81-1h0a.89.89,0,0,1,1,.81Z" fill="#e94e1b"/><path d="M39.38,76.93c0,.49-.17.92-.66,1h0c-.49,0-.74-.34-.78-.83l-.49-3.45a.89.89,0,0,1,.81-1h0a.89.89,0,0,1,1,.81Z" fill="#e94e1b"/><path d="M40.87,76.81c0,.49-.07.9-.55.94h0c-.49,0-.78-.34-.82-.83l-.45-3.45a.89.89,0,0,1,.81-1h0a.89.89,0,0,1,1,.81Z" fill="#e94e1b"/><path d="M43,19.26c-1,0-23.9.09-25,0,2.06-4,2.25-16.42,2.89-17.41S25.27,0,30.21,0s8.55,1,9.24,1.85S40.49,14.45,43,19.26Z" fill="#0d0d02"/><path d="M19.37,13.94a2.06,2.06,0,0,0-.83,2.7c-1.11.43-.78,2.18-.58,2.62,1.12.09,24,0,25,0,.26-.64,0-2.43-.88-2.62.63-1-.14-2.7-.77-2.7a93,93,0,0,0-10.83-.79A101.33,101.33,0,0,0,19.37,13.94Z" fill="#f39200"/><path d="M26.33,15.45a.74.74,0,0,0,1.48,0,.74.74,0,1,0-1.48,0Z" fill="#ea580c"/><path d="M30.93,15.4a.75.75,0,0,0,.75.75.75.75,0,1,0-.75-.75Z" fill="#ea580c"/><path d="M27.45,15.4a.42.42,0,0,1-.38.45H25a.42.42,0,0,1-.38-.45h0A.42.42,0,0,1,25,15h2.07a.42.42,0,0,1,.38.44Z" fill="#dadada"/><path d="M30.13,12.69H26.21A1.24,1.24,0,0,0,25,13.93v3a1.24,1.24,0,0,0,1.24,1.23h3.92A1.24,1.24,0,0,0,31.37,17v-3A1.24,1.24,0,0,0,30.13,12.69Zm.11,3.74a.8.8,0,0,1-.8.8H26.9a.8.8,0,0,1-.8-.8v-2a.79.79,0,0,1,.8-.79h2.54a.79.79,0,0,1,.8.79Z" fill="#dadada"/><path d="M51.63,20c0,1.19-9.33,2.15-20.84,2.15S10,21.14,10,20s9.33-2.15,20.83-2.15S51.63,18.76,51.63,20Z" fill="#0d0d02"/></g></g></g></svg>