<svg xmlns="http://www.w3.org/2000/svg" viewBox="0 0 78.94 51.51"><g style="isolation:isolate"><g id="Layer_2" data-name="Layer 2"><g id="Capa_1" data-name="Capa 1"><path d="M78.94,38c0,9.17-17.41,13.51-39.21,13.51S0,46.12,0,38c0-8.56,17.67-11.7,39.47-11.7S78.94,29.31,78.94,38Z" fill="#210400"/><path d="M4.9,33c-.4.9,1.29.25,1.61.13.71-.24,4.22-.69,2.92,1.26-.67,1-2.66,1.76-2.94,2.91s2.25.43,2.95.68c2.13.78.31,2.21-.61,3.1,1.8.71,4.12.14,6,.15a19.49,19.49,0,0,1,6.78,1,.46.46,0,0,1,0,.87c-2.08.54-.35,1.14.65,1.12.62,0,1.24,0,1.86-.1a31.1,31.1,0,0,1,3.2-.1c3,0,5.93.68,8.94.88s5.77.28,8.65.72a26.7,26.7,0,0,0,8.68.3c-1.4-.41-2.83-.65-3.68-2a.46.46,0,0,1,.27-.66c2-.8,4.39,0,6.47.11,1.38,0,4.44.55,5.89-.27a6.73,6.73,0,0,1-2-1.34.44.44,0,0,1,.09-.7c2.43-1.27,5.37-.64,7.7-2a13.16,13.16,0,0,1-2.53-1,.46.46,0,0,1,.11-.82A6.73,6.73,0,0,1,67.71,37c.05,0,3.08-.7,2.36-1-1.19-.53-2.72-.39-3.67-1.39a.44.44,0,0,1,.09-.7c.32-.19.65-.36,1-.53-1.25-.6-2.6-.82-3.5-2a.44.44,0,0,1,.16-.62l1.09-.5a27.31,27.31,0,0,1-4-1.82c-.53-.34-1.06-.67-1.6-1A155.8,155.8,0,0,0,39.47,26.3C26.53,26.3,15,27.41,7.85,30.1A7,7,0,0,0,4.9,33Z" fill="#a29094" style="mix-blend-mode:multiply"/><path d="M62.3,36.5c-2,0-45.29.16-47.41,0,3.91-7.5,4.26-31.12,5.47-33S28.74,0,38.1,0,54.3,1.79,55.61,3.5,57.58,27.37,62.3,36.5Z" fill="#210400"/><path d="M62.3,36.5c-4.72-9.13-5.38-31.29-6.69-33A4.38,4.38,0,0,0,54,2.41a5.57,5.57,0,0,1-.12,1.4,7,7,0,0,1-1.38,3.12c-.78,1-2.77,1.3-3.82,1.79-.56.26-2.83,1.86-1,2.12.51.08,1.07,0,1.57.16s1,.47.88,1.07a2.14,2.14,0,0,1-.56,1.11c-.36.37-3.08,1.33-.84,2.41A3.94,3.94,0,0,1,51,17.71c.19.6-.43,1.12-.89,1.35a8.85,8.85,0,0,0-1.48.73c-1.45,1,.19,1.73,1.17,1.84,1.42.15,2.5,1.72.9,2.69a17.25,17.25,0,0,1-1.64.75c-1.86.94.23,2,1.2,2.33a3.79,3.79,0,0,1,2.67,2.13c.52,1.69-1.16,2.17-2.62,2.41,0,.1.08.18.11.28.4,1.24-.26,2.89-1,4.31Z" fill="#d19e89" opacity="0.6" style="mix-blend-mode:soft-light"/><path d="M49.2,34.4c1-2.29-.64-4-2.63-4.88-3-1.31-6.56-1.38-9.8-1.67-2.63-.24-7-.14-8.59-2.67a.45.45,0,0,1,.27-.66A23.15,23.15,0,0,1,31.66,24c.36-.06,4.65-1,3-1.88-1.77-.92-4.47-.64-5.78-2.33a.47.47,0,0,1,0-.64,3.77,3.77,0,0,1,1.52-.8c1-.29,2.77-1.17,1.14-1.94-1.16-.56-2.16-1.1-2.34-2.46a.46.46,0,0,1,.33-.43c.63-.19,1.28-.32,1.9-.55-.68-.8-1.9-1.47-1.87-2.53s2.06-1.06,2.7-1a24.79,24.79,0,0,1,3.16.7c1.18.19,3.87-.44,1.6-1.19A19,19,0,0,0,32.77,8c-2.65-.24-8.12-.27-9.06-3.6a3.13,3.13,0,0,1,.58-2.89c-2.07.58-3.46,1.27-3.93,2-1.21,1.88-1.56,25.5-5.47,33,1.36.1,19.86.07,33.36,0C48.58,35.83,48.88,35.12,49.2,34.4Z" fill="#a29094" style="mix-blend-mode:multiply"/><path d="M17.56,27.43c-1.44.61-2.78,3.45-1.57,5.1-2.11.83-1.49,4.14-1.1,5,1.56,1.31,10.41,3.39,22.87,3.39,16.5,0,22.66-2.08,24.54-3.39.49-1.21,0-4.6-1.68-5,1.21-1.87-.26-5.1-1.45-5.1,0,0-11.35,2.77-21,2.77S17.56,27.43,17.56,27.43Z" fill="#683c11"/><path d="M24.09,39.33c-1.66-.54-4.35-.67-5.52-2.13a.46.46,0,0,1,.2-.75l.4-.13c-.75-.5-1.68-.77-2.42-1.3a.45.45,0,0,1,.22-.84c1.65,0,4.61.8,6.26-.06-1.82-.83-4-.31-5.56-1.87a.45.45,0,0,1,.32-.77,1.77,1.77,0,0,0,.32,0,2.06,2.06,0,0,0-1-.64c-.34-.15-.25-.61,0-.78a1.54,1.54,0,0,1,.92-.35c.07,0,1.24-.19.94-.25a3,3,0,0,1-1.73-.61,1.1,1.1,0,0,1-.28-1.2c-1.27.9-2.26,3.37-1.17,4.86-2.11.83-1.49,4.14-1.1,5,1,.88,5.41,2.11,12,2.82C25.93,40,25,39.64,24.09,39.33Z" fill="#a29094" style="mix-blend-mode:multiply"/><path d="M60.62,32.53c1.21-1.87-.26-5.1-1.45-5.1,0,0-3.23.79-7.7,1.53,2.11.79,4.88-.05,7.15.51a.45.45,0,0,1,.2.75c-.49.43-1,.82-1.5,1.24a7.67,7.67,0,0,1,1.86.76.45.45,0,0,1,0,.77c-.73.42-1.64.52-2.39.9a19.29,19.29,0,0,1,3.18.65.45.45,0,0,1,0,.86,14.39,14.39,0,0,0-2.06.78c1.27.13,2.55-.06,3.75.54a.45.45,0,0,1,.16.61,5.23,5.23,0,0,1-.76.85,7.46,7.46,0,0,0,1.24-.67C62.79,36.3,62.28,32.91,60.62,32.53Z" fill="#d19e89" style="mix-blend-mode:soft-light"/><path d="M30.74,35.24a1.41,1.41,0,1,0,1.41-1.41A1.41,1.41,0,0,0,30.74,35.24Z" fill="#210400"/><path d="M39.47,35.16a1.41,1.41,0,1,0,1.41-1.41A1.41,1.41,0,0,0,39.47,35.16Z" fill="#210400"/><path d="M32.86,35.16a.79.79,0,0,1-.72.84H28.22a.79.79,0,0,1-.72-.84h0a.79.79,0,0,1,.72-.85h3.92a.79.79,0,0,1,.72.85Z" fill="#fab200"/><path d="M38,30H30.51a2.35,2.35,0,0,0-2.34,2.35v5.76a2.34,2.34,0,0,0,2.34,2.34H38a2.34,2.34,0,0,0,2.34-2.34V32.36A2.35,2.35,0,0,0,38,30Zm.2,7.09a1.51,1.51,0,0,1-1.52,1.51h-4.8a1.51,1.51,0,0,1-1.52-1.51V33.38a1.52,1.52,0,0,1,1.52-1.52h4.8a1.52,1.52,0,0,1,1.52,1.52Z" fill="#fab200"/><path d="M53.45,3.6c0,2-6.7,3.6-15,3.6s-15-1.61-15-3.6,6.7-3.6,15-3.6S53.45,1.61,53.45,3.6Z" fill="#3c150e"/><path d="M59.51,49.49a6.19,6.19,0,0,1-3.91-2.36C54.36,45.5,55.34,45,57,45c2.25,0,4.67.44,6.89,0,.87-.17,2.92-.45,2.2-1.59-.42-.67-2-.37-1.65-1.54,1.58-.51,3.38-.25,5-.89.86-.35,1.67-1,.86-1.73-.63-.57-1.66-.08-2-1.1,1.06-.07,2.65,0,3.5-.69,1.24-1.05-.38-1.55-1.37-1.89-.56-.19-2.48-.54-2.26-1.5.18-.79,2.57-.33,1.36-1.46-.69-.64-2.1-.13-3-.86-1-.91-.36-1.2.69-1.39,2.25-.4,3.57,1.07,5.52,1.9s3.1,1.19,3.92,3.39c.66,1.81.92,4-.2,5.63-2.41,3.59-7.51,5.58-11.59,6.5-1.27.29-2.43.61-3.72.82Z" fill="#d19e89" opacity="0.6" style="mix-blend-mode:soft-light"/></g></g></g></svg>