<svg xmlns="http://www.w3.org/2000/svg" viewBox="0 0 63.74 77.27"><g id="Layer_2" data-name="Layer 2"><g id="Capa_1" data-name="Capa 1"><path d="M46,2.18s-.72,5.12-3,5.7-3.79-2.09-3.79-2.09-.2,5.51-2.44,6.45-3.34-1.85-3.66-2.88C24.5,16.7,28.14,31.22,23,33.19c-3,1.16-4.95-5.8-7.49-10.32-.5.76-2.87,2.12-4,1.68-2.1-.83-2.24-4-2.24-4s-2.71,5.76-6.39,5.14C5,28.22,4.25,31.83,0,33.82c3.21,2.24,4.9,7.72,5.65,14.94A27.77,27.77,0,0,0,17.91,69.48L13.4,76l2,1.31s1.93-5.73,4-6.79,10.67,4.82,26.65-2.14c1.31-3.18,6.29-6.64,8.56-5.11-.9-2.84,1.46-5.13,4.67-5.62a18.23,18.23,0,0,0,3.3-7.28s-4.31,4-7.11.79C53,53.13,50.66,52,51,49c-3.46,1.75-4.46-.34-4.81-1.73-1-4,8.45-7.18,13.15-12.43C64.55,29,63.69,23.5,63.69,23.5S58.81,26,57.74,21.74c-1-3.95,1.59-6,3-7-4-1.87-.39-6.78-.39-6.78s-2.67.31-3.3-1.7S57.85,0,57.85,0s-3.23,3.66-4.94,3.17c-.85-.24-.75-2.36-.75-2.36s-2.42,4.63-3.93,4.32C46.24,4.73,46,2.18,46,2.18Z" fill="#f39200"/><path d="M19.28,69.27l.58-.62a22.17,22.17,0,0,0,1.58-1.79c.34-.39.68-.85,1-1.35s.76-1,1.14-1.65.81-1.24,1.22-1.94.82-1.42,1.25-2.19c.84-1.56,1.68-3.27,2.5-5.12s1.62-3.83,2.45-5.87c1.63-4.11,3.22-8.55,4.9-13S39.45,27,41.42,23c1-2,2-3.87,3-5.63s2.09-3.36,3.13-4.79,2.06-2.71,3-3.8c.49-.53.94-1,1.36-1.5l1.2-1.21c.72-.74,1.36-1.25,1.76-1.63l.63-.57-.61.59c-.39.4-1,.92-1.69,1.69L52.08,7.41c-.39.48-.83,1-1.29,1.54-.9,1.12-1.88,2.41-2.88,3.86s-2,3.07-3,4.82-2,3.65-2.93,5.64c-1.94,4-3.69,8.35-5.37,12.75s-3.33,8.83-5,12.94a92.81,92.81,0,0,1-5.16,10.95A42.49,42.49,0,0,1,23.84,64c-.41.59-.82,1.13-1.21,1.61s-.75.94-1.1,1.32a21.74,21.74,0,0,1-1.65,1.74Z" fill="#d87200"/><path d="M60.48,53.23l-1.31,1.15c-.43.36-.91.83-1.53,1.29l-2.13,1.5c-.78.57-1.71,1-2.65,1.58a30.47,30.47,0,0,1-3.08,1.53c-1.07.54-2.25.91-3.42,1.38s-2.4.79-3.6,1.19-2.47.65-3.69.93-2.42.53-3.6.7-2.32.37-3.4.49-2.12.21-3.06.3a53.5,53.5,0,0,1-6.34.15s.63,0,1.73-.1,2.68-.23,4.57-.44c.94-.12,2-.23,3-.41s2.2-.36,3.36-.58,2.36-.48,3.57-.74,2.42-.62,3.64-1,2.42-.7,3.58-1.13,2.33-.81,3.39-1.32,2.15-.89,3.09-1.43,1.89-.94,2.67-1.46l2.18-1.37c.65-.43,1.16-.87,1.61-1.2Z" fill="#d87200"/><path d="M44,47.48s-1.23,1-3.11,2.37L39.41,51c-.55.39-1.07.87-1.64,1.32L36,53.69l-.9.72-.86.78c-.58.52-1.17,1-1.74,1.53a21.88,21.88,0,0,0-1.62,1.56L29.4,59.76l-1.25,1.4c-.4.43-.72.85-1,1.22a10.81,10.81,0,0,0-.75,1c-.39.56-.59.89-.59.89a8.26,8.26,0,0,1,.48-1,22.87,22.87,0,0,1,1.57-2.37c.36-.47.76-1,1.18-1.5s.93-1,1.44-1.56a22,22,0,0,1,1.6-1.6l1.73-1.58.89-.78.92-.71,1.8-1.38c.59-.45,1.15-.89,1.71-1.25l1.59-1C42.69,48.27,44,47.48,44,47.48Z" fill="#d87200"/><path d="M24.85,65.82l.18.28a3.3,3.3,0,0,0,.56.64,17,17,0,0,0,2,1.61l2.14,1.51c.58.43,1,.74,1,.74a8.19,8.19,0,0,1-1.16-.39,12.52,12.52,0,0,1-2.34-1.3A7.4,7.4,0,0,1,25.28,67a1.69,1.69,0,0,1-.24-.46,1.37,1.37,0,0,1-.13-.37C24.87,65.94,24.85,65.82,24.85,65.82Z" fill="#d87200"/><path d="M27.66,65.92l.63.41a3.23,3.23,0,0,0,.75.42,9.85,9.85,0,0,0,1,.44,12.73,12.73,0,0,0,1.23.4c.45.1.91.24,1.41.32a22.28,22.28,0,0,0,3.13.42c1.08.12,2.16.16,3.17.19s2,0,2.78,0c1.63,0,2.73,0,2.73,0a25.32,25.32,0,0,1-2.7.43C41,69,40,69.1,39,69.12s-2.13,0-3.23-.1a24.84,24.84,0,0,1-3.2-.53,11.41,11.41,0,0,1-1.43-.43,10.28,10.28,0,0,1-1.24-.52,6.47,6.47,0,0,1-1-.58,3.35,3.35,0,0,1-.68-.53Z" fill="#d87200"/><path d="M35.75,65l.76.11a5.1,5.1,0,0,0,.88.1c.34,0,.71,0,1.13,0s.87,0,1.34-.06l1.5-.15c.51-.08,1-.13,1.58-.25s1.09-.2,1.63-.33c1.09-.22,2.17-.5,3.18-.78s2-.54,2.75-.8l2.68-.84a26.24,26.24,0,0,1-2.55,1.2c-.78.32-1.7.69-2.71,1s-2.1.63-3.21.88c-.55.12-1.11.21-1.66.3s-1.1.13-1.63.2a17.74,17.74,0,0,1-2.92,0,11.49,11.49,0,0,1-1.16-.17,5.92,5.92,0,0,1-.86-.22Z" fill="#d87200"/><path d="M48.71,51l-.87.34a7.63,7.63,0,0,0-1,.43c-.37.2-.79.37-1.23.63s-.93.5-1.42.82-1,.63-1.54,1c-1.06.7-2.17,1.49-3.24,2.33S37.26,58.14,36.28,59s-1.92,1.55-2.69,2.22L31,63.38s.89-1.05,2.35-2.49c.73-.72,1.59-1.56,2.56-2.4s2-1.72,3.12-2.55,2.24-1.59,3.33-2.28c.53-.36,1.1-.63,1.61-.92s1-.51,1.5-.74a10.75,10.75,0,0,1,1.31-.52,6.77,6.77,0,0,1,1-.31Z" fill="#d87200"/><path d="M54.59,52.46l-.84.32a10.18,10.18,0,0,0-1,.39c-.36.17-.77.33-1.21.55-.88.41-1.87,1-2.93,1.55-.52.3-1.07.6-1.61.94s-1.1.67-1.64,1c-1.11.67-2.19,1.39-3.2,2.07l-2.75,1.87L36.77,63s.94-.91,2.45-2.15c.77-.61,1.65-1.34,2.65-2s2.07-1.46,3.17-2.16c.56-.35,1.13-.68,1.68-1s1.12-.62,1.66-.92c1.09-.57,2.15-1,3.06-1.38.45-.19.9-.31,1.28-.43a8.46,8.46,0,0,1,1-.27Z" fill="#d87200"/><path d="M9.23,58.55s.54.54,1.3,1.39c.18.21.43.4.65.62l.73.69c.23.26.54.46.81.71l.84.73.88.69c.29.22.56.47.85.67l1.54,1.16,1.52,1.13a13.79,13.79,0,0,1-1.73-.8c-.52-.26-1.08-.62-1.68-1s-1.21-.86-1.81-1.32l-.85-.77a8.34,8.34,0,0,1-.8-.77l-.69-.79a7,7,0,0,1-.58-.72C9.6,59.21,9.23,58.55,9.23,58.55Z" fill="#d87200"/><path d="M17.69,61.58l.25-.22a3.76,3.76,0,0,0,.53-.66,17.34,17.34,0,0,0,1.24-2.25l1.14-2.36c.32-.65.56-1.08.56-1.08a8.38,8.38,0,0,1-.19,1.21,12.07,12.07,0,0,1-.89,2.53A7.36,7.36,0,0,1,18.76,61a2,2,0,0,1-.41.32,1.77,1.77,0,0,1-.35.19A2.38,2.38,0,0,1,17.69,61.58Z" fill="#d87200"/><path d="M16.84,57.32l.41-.86a7.32,7.32,0,0,0,.4-1,12.41,12.41,0,0,0,.44-1.34c.33-1,.58-2.16.87-3.42s.54-2.62.77-4,.47-2.72.66-4,.37-2.48.53-3.5c.31-2.06.51-3.44.51-3.44s0,1.4-.13,3.48c-.08,1-.16,2.25-.32,3.54s-.35,2.68-.58,4-.54,2.73-.86,4c-.15.64-.33,1.24-.52,1.81s-.36,1.11-.56,1.6a9.5,9.5,0,0,1-.58,1.31,8.61,8.61,0,0,1-.51,1Z" fill="#d87200"/><path d="M13.6,51.41s.15-.39.4-1.08l.46-1.23L15,47.47a17.57,17.57,0,0,0,.51-1.94c.16-.69.32-1.43.44-2.19s.27-1.56.33-2.37c.05-.4.09-.81.13-1.22l.06-1.24c.08-.83.07-1.66.09-2.47s0-1.62-.06-2.39-.09-1.53-.17-2.24-.13-1.38-.22-2c-.17-1.24-.33-2.27-.48-3s-.23-1.12-.23-1.12.15.38.36,1.09a30.1,30.1,0,0,1,.73,3c.13.61.24,1.29.34,2s.18,1.47.26,2.26.11,1.6.11,2.42,0,1.67,0,2.51L17,39.8l-.15,1.25c-.08.82-.24,1.62-.39,2.4a17.85,17.85,0,0,1-.54,2.21,20.17,20.17,0,0,1-.62,1.94c-.22.59-.42,1.13-.62,1.6l-.58,1.18Z" fill="#d87200"/><path d="M11.5,44.82s.18-1.22.53-3a9.13,9.13,0,0,0,.22-1.46c.05-.53.09-1.07.16-1.64a14,14,0,0,0,.16-1.75c0-.59,0-1.2,0-1.81l.05-.92c0-.3,0-.6,0-.9,0-.6,0-1.19-.05-1.76s-.07-1.13-.1-1.65-.06-1-.12-1.47c-.11-.92-.17-1.68-.27-2.21s-.12-.84-.12-.84a20,20,0,0,1,.77,3c.1.45.16.95.23,1.48s.18,1.08.21,1.66.06,1.17.09,1.78c0,.31,0,.62,0,.92l0,.93c0,.62-.07,1.24-.1,1.85A14.67,14.67,0,0,1,13,38.76c-.07.58-.17,1.13-.26,1.66a9.39,9.39,0,0,1-.33,1.45C11.9,43.65,11.5,44.82,11.5,44.82Z" fill="#d87200"/><path d="M6.27,47.78s.53.83,1.26,2.1a11.82,11.82,0,0,0,.64,1c.23.34.48.7.71,1.09.47.77,1.09,1.53,1.64,2.32.26.41.57.79.86,1.17l.84,1.12c.59.7,1.07,1.41,1.54,2l1.53,1.91a21.43,21.43,0,0,1-1.81-1.65c-.53-.52-1.11-1.15-1.72-1.84l-.89-1.11c-.3-.38-.63-.75-.91-1.15-.53-.83-1.12-1.61-1.58-2.42-.24-.4-.45-.79-.65-1.17a8.85,8.85,0,0,1-.54-1.06C6.61,48.71,6.27,47.78,6.27,47.78Z" fill="#d87200"/><path d="M1.9,34l.72.43a8.13,8.13,0,0,1,.74.63,7.07,7.07,0,0,1,.87.92c.32.34.59.75.92,1.17s.61.9.92,1.38c.6,1,1.19,2.06,1.76,3.14s1,2.22,1.49,3.27.82,2.06,1.14,2.91c.63,1.73.95,2.91.95,2.91L10.11,48c-.39-.82-.85-1.79-1.33-2.82s-1-2.12-1.56-3.2-1.09-2.16-1.66-3.14c-.3-.48-.54-1-.83-1.41s-.52-.87-.8-1.22-.49-.72-.74-1a7.81,7.81,0,0,0-.65-.7Z" fill="#d87200"/><path d="M58.6,26.5s0,.14-.05.41-.07.65-.16,1.14A17.18,17.18,0,0,1,58,29.8,18.26,18.26,0,0,1,57.1,32c-.21.38-.42.78-.64,1.19l-.76,1.22-.89,1.23c-.33.4-.66.81-1,1.21a32.5,32.5,0,0,1-2.37,2.31c-.84.76-1.75,1.45-2.67,2.13A47.65,47.65,0,0,1,43,44.73a52.35,52.35,0,0,1-5.33,2.37,44.24,44.24,0,0,1-5.41,1.74s2.16-.72,5.26-2.09c1.56-.67,3.34-1.55,5.21-2.54a49.84,49.84,0,0,0,5.62-3.49c.91-.66,1.82-1.33,2.65-2.06a29.55,29.55,0,0,0,2.35-2.24c.36-.38.68-.78,1-1.16l.92-1.16.79-1.16.66-1.13a22.81,22.81,0,0,0,1-2.09A16.21,16.21,0,0,0,58.26,28C58.48,27.06,58.6,26.5,58.6,26.5Z" fill="#d87200"/><path d="M56.48,15.22s-.07.54-.2,1.49c-.07.47-.15,1-.24,1.7-.06.33-.09.68-.16,1.05s-.19.74-.3,1.14c-.21.79-.41,1.66-.68,2.57l-1.06,2.77c-.41.94-1,1.87-1.44,2.83s-1.19,1.84-1.8,2.75l-1.07,1.26A11.6,11.6,0,0,1,48.41,34l-1.17,1.1c-.39.37-.83.66-1.23,1a20,20,0,0,1-2.47,1.65,24.92,24.92,0,0,1-2.38,1.18c-.38.16-.74.32-1.09.45l-1,.33c-.63.2-1.2.33-1.67.44a10.57,10.57,0,0,1-1.48.23A13.47,13.47,0,0,0,37.35,40c.45-.14,1-.31,1.62-.56a21.56,21.56,0,0,0,2-.88c.74-.33,1.48-.8,2.29-1.26s1.59-1,2.36-1.69c.38-.33.81-.62,1.18-1L48,33.52A11,11,0,0,0,49,32.34l1-1.23c.6-.89,1.25-1.75,1.79-2.66s1-1.84,1.45-2.75L54.43,23c.3-.87.53-1.72.78-2.49l.34-1.11c.1-.36.16-.71.24-1l.36-1.68Z" fill="#d87200"/><path d="M54.05,6.74l-.11,1.18c0,.37-.09.82-.14,1.34s-.23,1.09-.38,1.72a16.49,16.49,0,0,1-.6,2c-.12.35-.25.71-.37,1.08s-.33.72-.51,1.08-.35.74-.52,1.12l-.64,1.09a22.75,22.75,0,0,1-1.39,2.17c-.48.72-1.07,1.35-1.59,2s-1.12,1.25-1.69,1.83a33.44,33.44,0,0,1-3.32,2.89A25.75,25.75,0,0,1,40.22,28a9.78,9.78,0,0,1-1,.58s.36-.24.95-.69,1.43-1.12,2.39-1.95c.49-.41,1-.87,1.52-1.38s1.06-1.07,1.62-1.63,1.09-1.19,1.63-1.82,1.07-1.3,1.53-2A21.78,21.78,0,0,0,50.23,17c.22-.35.43-.71.64-1.06l.54-1.08c.18-.35.35-.7.52-1l.42-1A13.17,13.17,0,0,0,53,10.88c.19-.61.36-1.17.5-1.66s.19-1,.27-1.32C54,7.16,54.05,6.74,54.05,6.74Z" fill="#d87200"/><path d="M8.51,23.13s0,.72,0,2c0,.63,0,1.4,0,2.29s.11,1.87.15,3,.11,2.25.29,3.49.27,2.54.49,3.87.42,2.73.73,4.12.58,2.81,1,4.19.72,2.8,1.18,4.15c.22.68.42,1.35.65,2l.71,1.94c.45,1.28,1,2.48,1.43,3.64s1,2.22,1.46,3.18a58.14,58.14,0,0,0,3.49,6.35s-.45-.57-1.16-1.63c-.34-.54-.77-1.18-1.21-1.94s-1-1.63-1.46-2.6-1-2-1.57-3.16-1.08-2.34-1.54-3.63l-.73-1.94c-.24-.66-.45-1.34-.68-2-.47-1.36-.84-2.77-1.23-4.17s-.64-2.85-1-4.25-.46-2.81-.68-4.15-.28-2.67-.41-3.92-.13-2.43-.17-3.52-.09-2.1,0-3,.08-1.65.1-2.29Z" fill="#d87200"/><path d="M23.42,35.13s.29,1.79.65,4.47c.08.67.2,1.4.23,2.18s.11,1.6.14,2.45.13,1.73.07,2.62-.05,1.8-.08,2.71a22,22,0,0,1-.27,2.7,23.34,23.34,0,0,1-.41,2.59c-.19.84-.38,1.64-.58,2.4s-.51,1.43-.73,2.08-.54,1.19-.77,1.69A11.75,11.75,0,0,1,21,62.28l-.64,1.07s.18-.41.52-1.13a12.27,12.27,0,0,0,.56-1.3c.18-.52.44-1.08.63-1.73l.62-2.08c.15-.75.31-1.55.47-2.37a20.76,20.76,0,0,0,.36-2.56,26,26,0,0,0,.23-2.66c0-.9.08-1.8.12-2.68s0-1.75,0-2.59,0-1.66,0-2.43-.08-1.5-.12-2.18C23.5,36.94,23.42,35.13,23.42,35.13Z" fill="#d87200"/><path d="M33.06,13l-.34,1.53c-.11.48-.25,1.07-.41,1.75s-.3,1.45-.47,2.28-.37,1.74-.52,2.7-.32,2-.49,3-.27,2.15-.42,3.26-.19,2.24-.29,3.37-.16,2.27-.19,3.38-.07,2.22,0,3.28,0,2.09.07,3.07.11,1.89.17,2.74c.15,1.7.31,3.11.47,4.1s.28,1.54.28,1.54-.18-.55-.41-1.52-.51-2.37-.73-4.08c-.09-.85-.22-1.77-.28-2.75s-.16-2-.17-3.09,0-2.18,0-3.31.09-2.26.14-3.41.23-2.28.35-3.4.31-2.21.46-3.27.4-2.07.59-3,.44-1.86.63-2.7c.38-1.67.85-3,1.13-4Z" fill="#d87200"/><path d="M47.18,7.71l-.84,1c-.53.66-1.34,1.57-2.22,2.73l-1.4,1.87c-.52.65-.95,1.42-1.48,2.16l-.77,1.14-.7,1.22-.72,1.24-.64,1.29c-.21.44-.45.86-.65,1.29s-.36.89-.55,1.32c-.39.87-.64,1.77-.93,2.62s-.47,1.71-.63,2.51c-.07.41-.14.81-.21,1.19s-.08.76-.12,1.12c-.08.72-.08,1.38-.09,2a14.83,14.83,0,0,0,.1,1.51,9.3,9.3,0,0,0,.25,1.31A7.24,7.24,0,0,1,35.2,34,14.7,14.7,0,0,1,35,32.43a14.36,14.36,0,0,1,0-2c0-.36,0-.75.07-1.14s.1-.8.16-1.22a22,22,0,0,1,.55-2.6,26.47,26.47,0,0,1,.91-2.68l.54-1.36c.2-.44.42-.88.63-1.32l.67-1.31c.26-.41.51-.83.75-1.24s.5-.83.75-1.23.53-.77.79-1.15c.54-.74,1-1.48,1.57-2.12s1-1.26,1.51-1.82a18.41,18.41,0,0,1,1.34-1.47c.42-.42.78-.8,1.07-1.1Z" fill="#d87200"/><path d="M31.19,46.57l1.69-4.29a20.84,20.84,0,0,1-1.34-4.19,13.62,13.62,0,0,1,.27-4.65s.12,3.21.32,4.41a10.26,10.26,0,0,0,1.18,2.83l1.07-2.13L33.31,36l1.55,1.12.38-1.29a15.8,15.8,0,0,1-.23-10,39.33,39.33,0,0,1,4.05-9.15,69.83,69.83,0,0,1,4.14-5.69c.8-1,2.93-2.85,3.1-4.09A7.58,7.58,0,0,0,46,4.13s-.88,4.13-3.41,5c-.79.22-1.66,2.23-1.66,2.23L40.78,9,39.59,7s-.71,5.59-3.26,6.3C34,14,33.69,12,33.69,12s-1.1,5.25-1.93,9.6a132.52,132.52,0,0,0-1.37,17A36.14,36.14,0,0,0,31.19,46.57Z" fill="#f8a800"/><path d="M36.12,34s3.57-9.33,4.75-11.7A126.31,126.31,0,0,1,50.1,8.57c1.72-1.86,6-5.9,6-5.9s-2.78,2.2-3.57,1.56a2.93,2.93,0,0,1-.86-1.89s-2,3.45-2.6,4.26S48.78,6,48.78,6,46,9.73,43.46,13.42a58.4,58.4,0,0,0-5.62,9.5A24.3,24.3,0,0,0,36.12,34Z" fill="#f8a800"/><path d="M20.48,67.21s6.78-11.53,7.46-12.78S27.1,49,27.1,49l1.78,3.34,1.54-2.86s-2.18-5.93-1.86-11.11.17-8.8.8-12.44,1.25-7.45,1.78-9S32.76,12,32.76,12s-2.23,3.48-2.27,3.36,2-5,2-5a48.14,48.14,0,0,0-3.77,6c-1,2.26-2.06,11.54-3.06,14.27s-1.81,2.88-1.81,2.88.64,3.8,1.05,7.73A44.14,44.14,0,0,1,25,51.55c-1,9.57-5.33,13.13-5.33,13.13l.26.81,1.14-1-1,1.6Z" fill="#f8a800"/><path d="M19,64a32.31,32.31,0,0,0,2.73-5c.4-1.4,1.32-5.78,1.32-5.78a44.62,44.62,0,0,1-2.58,5.8,15.36,15.36,0,0,1-2.56,3.12Z" fill="#f8a800"/><path d="M17.22,60.94s3.62-5.18,3.91-6.18.82-2.63.82-2.63L22,54.48a4.66,4.66,0,0,0,1.24-3.07A67.19,67.19,0,0,0,22.35,34s-1,10-1.68,13.28C19,55.87,16.33,59.06,16.33,59.06l.34.46L17.8,58,16.86,60Z" fill="#f8a800"/><path d="M15.63,56.85a25.84,25.84,0,0,0,3.46-9.14c.67-4.82,1.69-14,1.69-14s-1,3.2-1.49,2.72.65-1.26-.62-5.25A58.57,58.57,0,0,0,16,25.1a37.88,37.88,0,0,1,1.46,14.48,32.55,32.55,0,0,1-3.74,12.88l.29.91,1.42-2.07-.58,3.09Z" fill="#f8a800"/><path d="M13,49.63s2.55-6.08,2.83-9.54c.6-7.36-.2-7.2-1.21-15.09l-.44,5.41-1.66-5.22s1.35,7.52,1.12,11.94c-.38,7.44-2.19,8.33-2.19,8.33l.47.77,1-1-.93,2.05Z" fill="#f8a800"/><path d="M11,42.27A16.46,16.46,0,0,0,12,36.09a56.09,56.09,0,0,0-.07-5.94c-.06-.81-.3-1.68-.43-2.5A20,20,0,0,1,11,25.24a.89.89,0,0,1-.52.7c-.32-1-.88-1.75-1.26-2.72a7.07,7.07,0,0,0-.3,3.17c.12,1,.23,2,.27,3.06.08,2.11.22,4.19.49,6.28.15,1.14.18,2.3.3,3.42a6.75,6.75,0,0,0,.76,3Z" fill="#f8a800"/><path d="M9.45,43.59A15.47,15.47,0,0,1,8.72,40c-.28-1.34-.35-2.74-.56-4.1s-.29-2.42-.43-3.63c-.06-.5-.06-1-.07-1.54,0-.71-.15-.66-.66-1.11a2.63,2.63,0,0,1-.74-.95c.45-.07.8.35,1.27.08a8.08,8.08,0,0,1,.29-2.46,14.15,14.15,0,0,1,0-2.35,7.63,7.63,0,0,1-1.6,1.4A16.91,16.91,0,0,1,4.12,26c1.44,2.09.31,5.07-1.05,6.79-.43.55-.42.47.06.92s.85.75,1.25,1.17a10.23,10.23,0,0,1,1,1.38c.2.28.49,1.1.78,1.12a6.38,6.38,0,0,1,.48-1.69c.47,1.12.35,2.47.72,3.65A6.34,6.34,0,0,0,8,40.92c.11.2.28.39.4.58s.4.46.27.4Z" fill="#f8a800"/><path d="M12.69,56.36c-.21-1-1.52-1.89-2.14-2.63s-1-1.21-1.47-1.88-.59-1.17-.93-1.68a17,17,0,0,1-1.6-2.46,19,19,0,0,1-.89-2.64,3.86,3.86,0,0,0,.79.52C6,44.15,5.29,42.8,4.89,41.28a17.82,17.82,0,0,0-.65-2.43,11.47,11.47,0,0,1-1-1.88c.71-.34,1.86,2.38,2.17,2.87.71,1.14,1.1,2.52,1.8,3.7,1.27,2.14,2.18,4.47,3.33,6.59a14,14,0,0,1,1.08,2.61c.15.44.25.93.44,1.37s.55.67.66,1.1Z" fill="#f8a800"/><path d="M16.85,64.51A31.81,31.81,0,0,0,13.67,62a26.87,26.87,0,0,1-3.19-3.21C9.05,57.22,7.74,56,7.1,54c.11.32.44.74.78.73-.34-1.35-1-2.54-1.34-3.88.7-.41,2.25,2.8,2.54,3.32a19.39,19.39,0,0,0,1.44,2.13c.36.48.57,1,1,1.49a17.87,17.87,0,0,0,2.32,2c.71.57,1.67,1,2.1,1.84-.34.14-.65-.09-1-.12,0,.6.84.86,1.2,1.3a11.61,11.61,0,0,0,1,1.37Z" fill="#f8a800"/><path d="M18.27,67.19a29.07,29.07,0,0,1-3.74-2.07c-1.18-.73-2.06-1.85-3.14-2.63a4.83,4.83,0,0,0,1.56,2c.68.7,1.27,1.49,2,2.18.89.93,2.16,2.39,3.54,1.88-.08-.4-.59-.43-.89-.65.18-.39.85,0,.86-.46Z" fill="#f8a800"/><path d="M41,26.78a42.45,42.45,0,0,0,7.49-8.4A60.61,60.61,0,0,0,53.38,7s-3.74,4.35-6,7.77A134.28,134.28,0,0,0,41,26.78Z" fill="#f8a800"/><path d="M36.16,39.68a18.67,18.67,0,0,0,9.08-4,35.19,35.19,0,0,0,8.18-11.56,57.65,57.65,0,0,0,2.36-8.14L53.5,19.61a43.73,43.73,0,0,1,2.4-6.22,27.42,27.42,0,0,1,3.29-4.68,1.4,1.4,0,0,1-2.31-.64,7.85,7.85,0,0,1-.42-4.2L54.37,6.18s1.83-.66-.48,5.53-3.09,8.57-6.71,11.73a75.76,75.76,0,0,1-7.39,5.61l-1.24,2.66,4.18-2.53L38.24,33,36.9,36.43l3.83-2.15-4.39,3.39Z" fill="#f8a800"/><path d="M56,21S58.41,23.82,51.71,31,44.11,38.91,41.17,40a33.82,33.82,0,0,1-5.87,1.5l-.52,1.73,3.1-.36-3.49,1.11-1.78,4.5s8.53-2.82,12.88-6.08,6.52-4.46,8.4-7.07a26.74,26.74,0,0,0,3.5-7,21.17,21.17,0,0,0,.55-2.64l-4.3,6.06s3.26-5.18,3.46-7.31A4.64,4.64,0,0,0,56,21Z" fill="#f8a800"/><path d="M28.7,58.61S32.33,55.2,35.06,53s8.72-6.28,8.72-6.28L41.14,47l3.18-2.29a58,58,0,0,1-7,3.24,37.63,37.63,0,0,1-5.66,1.55l-1,2.56,2.71-.87L30.1,53.1,27.57,59Z" fill="#f8a800"/><path d="M26.45,64.05a101.39,101.39,0,0,1,8.82-8.29C39.42,52.44,44.81,49,44.81,49l-.26,1.6,1.55-.31s-.06.08-3.93,2.7a37.41,37.41,0,0,0-5.83,4.36C33.69,59.66,30,63.69,30,63.69H28.49l1-1.26L27.64,64Z" fill="#f8a800"/><path d="M36.33,62.74a37.84,37.84,0,0,1,6.34-5.19c3.55-2.26,9-4.92,9-4.92s-1.14.08-1.55-.31,0-1.85,0-1.85a38,38,0,0,0-6.22,3.3,65.89,65.89,0,0,0-8.4,6.43,19.68,19.68,0,0,0-3.1,3.21l1.73-.55,2-1.89-1.06,1.89Z" fill="#f8a800"/><path d="M59.29,53.4A23.81,23.81,0,0,1,52,58.19a68.09,68.09,0,0,1-8.76,3.48c-.23-.07-4.83.85-4.83.85s3.1-2.26,5.16-3.48,3.56-2.83,6.77-4.16,5.83-2.37,5.83-2.37l-3.75,2.4,5.46-2-3.25,2.62Z" fill="#f8a800"/><path d="M52.94,61.31a44.29,44.29,0,0,1-6,1.91,52.8,52.8,0,0,1-8.34,1.21s8.57-2.84,11.08-3.83,6.55-3,6.55-3a6.84,6.84,0,0,1-2.94,2.53C51.47,60.78,52.94,61.31,52.94,61.31Z" fill="#f8a800"/><path d="M44.7,68a29.55,29.55,0,0,1-8.47-.32,35.29,35.29,0,0,1-7.17-2.22L34.85,65s.45,1.88,4.73,1.33,7.47-1,7.47-1L43,67l2,.36Z" fill="#f8a800"/><path d="M39.06,70.23s-2.8.59-4.92.88-1.85,0-2.92-.67-2.49-2-3.64-2.82a10.23,10.23,0,0,1-1.72-1.41L27,65.85a5.93,5.93,0,0,0,3.23,2.33,22.78,22.78,0,0,0,4.92,1.29C36.3,69.68,39.06,70.23,39.06,70.23Z" fill="#f8a800"/><path d="M28.79,70.94a32.37,32.37,0,0,1-4.29-.47,25.29,25.29,0,0,1-3.78-.94l.6-1.6,2,1-.94-1.66.57-.9,1.61-.22a2.43,2.43,0,0,0,1.16,2.47A20.3,20.3,0,0,1,28.79,70.94Z" fill="#f8a800"/></g></g></svg>