<svg xmlns="http://www.w3.org/2000/svg" viewBox="0 0 73.26 67.43"><g style="isolation:isolate"><g id="Layer_2" data-name="Layer 2"><g id="Capa_1" data-name="Capa 1"><path d="M27.53,10.39c-2.22,15.87,2.14,46.09,2.14,46.09S41.59,28.84,43.85,12.66c1-7.5-2.06-11.95-6.56-12.58S28.58,2.88,27.53,10.39Z" fill="#9a3215"/><path d="M37.29.08c4.5.63,7.6,5.08,6.56,12.58a104.07,104.07,0,0,1-3.58,15,7.09,7.09,0,0,0-4.54-2.51c-3.46-.49-6.74,1.43-8.56,5.75-.38-7.33-.44-14.86.36-20.55C28.58,2.88,32.78-.55,37.29.08Z" fill="#872c10"/><path d="M37.29.08c4.5.63,7.6,5.08,6.56,12.58a79.4,79.4,0,0,1-1.67,8.18,7.22,7.22,0,0,0-5.47-3.92c-4.45-.62-8.6,2.72-9.71,10a101.3,101.3,0,0,1,.53-16.57C28.58,2.88,32.78-.55,37.29.08Z" fill="#7e290d"/><path d="M35.53,7.8c-4.5.34-6.27,3.89-8.63,14.79A65.54,65.54,0,0,1,27.61,10C28.92,2.5,32.78-.55,37.29.08s7.55,5,6.58,12.4C42.24,10,39.3,7.51,35.53,7.8Z" fill="#692206"/><path d="M66.82,38.2C54.25,48.14,26,59.69,26,59.69S43.79,35.42,56.6,25.28C62.54,20.58,68,21,70.77,24.57S72.76,33.5,66.82,38.2Z" fill="#9a3215"/><path d="M70.77,24.57c-2.82-3.57-8.23-4-14.17.71a96.8,96.8,0,0,0-9.94,9.39,7.1,7.1,0,0,1,5.27,2.73c2.22,2.81,2.18,6.72-.83,10.55A108.69,108.69,0,0,0,66.82,38.2C72.76,33.5,73.59,28.14,70.77,24.57Z" fill="#872c10"/><path d="M70.77,24.57c-2.82-3.57-8.23-4-14.17.71a82,82,0,0,0-7.42,6.78c3.76-1.22,7-.26,8.94,2.21,2.11,2.68,2.17,6.36-.43,10a83.5,83.5,0,0,0,9.13-6.09C72.76,33.5,73.59,28.14,70.77,24.57Z" fill="#7e290d"/><path d="M64.06,29.47c2.47,1.8,3.14,5.69,2.85,8.66,5.86-4.69,6.46-9.86,3.86-13.56C66.9,19.05,59.31,19.26,45.47,37,54.58,27,60.48,26.86,64.06,29.47Z" fill="#692206"/><path d="M65.77,56.21c-12.6,3.56-37.55,3.41-37.55,3.41s21-12.74,33.89-16.37c6-1.68,9.91.33,10.92,3.91S71.73,54.52,65.77,56.21Z" fill="#9a3215"/><path d="M73,47.16c-1-3.58-5-5.59-10.92-3.91A86.91,86.91,0,0,0,50,48a5.79,5.79,0,0,1,1.89,2.92c.84,3-.61,6.08-4.52,8,6.55-.48,13.46-1.31,18.44-2.72C71.73,54.52,74,50.74,73,47.16Z" fill="#872c10"/><path d="M73,47.16c-1-3.58-5-5.59-10.92-3.91a74.53,74.53,0,0,0-9,3.31,6.05,6.05,0,0,1,4.68,4.27c.76,2.69-.36,5.5-3.5,7.44a76.2,76.2,0,0,0,11.43-2.06C71.73,54.52,74,50.74,73,47.16Z" fill="#7e290d"/><path d="M73,47.16c-1-3.58-4.56-5.47-10.92-3.91s-19.53,8.38-19.53,8.38,20.3-9.71,23.56-2.13A8.32,8.32,0,0,1,66.59,56C71.94,54.16,74,50.57,73,47.16Z" fill="#692206"/><path d="M61,17.43C52.83,31.22,30.57,52.12,30.57,52.12S38.5,23.08,46.83,9c3.86-6.52,9.06-8.06,13-5.74S64.86,10.91,61,17.43Z" fill="#9a3215"/><path d="M59.81,3.29C55.89,1,50.69,2.51,46.83,9a102.79,102.79,0,0,0-6.59,14,7.09,7.09,0,0,1,5.12.86c3,1.78,4.37,5.33,3.09,9.83C53.33,28.23,58.07,22.37,61,17.43,64.86,10.91,63.72,5.61,59.81,3.29Z" fill="#872c10"/><path d="M59.81,3.29C55.89,1,50.69,2.51,46.83,9A75.2,75.2,0,0,0,43,16.46a7.18,7.18,0,0,1,6.71.35c3.87,2.29,5,7.49,1.33,13.9A101,101,0,0,0,61,17.43C64.86,10.91,63.72,5.61,59.81,3.29Z" fill="#7e290d"/><path d="M56.36,10.41c3.31,3.08,2.47,7-2.49,17a66,66,0,0,0,7.34-10.31c3.62-6.65,2.51-11.44-1.4-13.76s-9-.8-12.89,5.59C49.73,8,53.6,7.84,56.36,10.41Z" fill="#692206"/><path d="M8.73,18.49c2.82.83,4.7,6.62,3.51,12.54a20.07,20.07,0,0,1-2.92,7.5s14.38,1.62,13.51-.64-3-2-1.09-4.64c2.2-2.9,7.31-9.39,7.31-14.08S25.55,5.76,16.42,5.76C6.11,5.76,3.21,16.85,8.73,18.49Z" fill="#ab3d1a"/><path d="M42,47c-4.24-11.5-16.17-5.09-19.2-9.34s-10.4-3.25-13.51.64C5.45,43.09,1.63,46.72,1.63,52.9c0,6.92,5.65,14.53,21.45,14.53C38.48,67.43,44.41,53.41,42,47Z" fill="#ab3d1a"/><path d="M7.8,29.53c.18-3.69,3.22-9,.93-11,3.22.1,5,7.47,4.8,11.23a3.08,3.08,0,0,1-3,3.06A3,3,0,0,1,7.8,29.53Z" fill="#e32713"/><path d="M6.16,12.91A41.44,41.44,0,0,1,0,15.46a9.1,9.1,0,0,0,4.83,3,8.57,8.57,0,0,0,4,0A31.43,31.43,0,0,1,6.16,12.91Z" fill="#e94e1b"/><path d="M5.32,15.23a1.58,1.58,0,0,1,.84.6,1.53,1.53,0,0,1-1,.05c-.27-.08-.44-.29-.39-.47S5.05,15.15,5.32,15.23Z" fill="#c2acab" style="mix-blend-mode:multiply"/><path d="M21,14.59A4.66,4.66,0,1,1,16.3,9.94,4.65,4.65,0,0,1,21,14.59Z" fill="#3b1200"/><path d="M19.71,14.93A3.74,3.74,0,1,1,16,11.19,3.74,3.74,0,0,1,19.71,14.93Z" fill="#fff"/><path d="M16.42,15.35a1.8,1.8,0,1,1-1.8-1.79A1.8,1.8,0,0,1,16.42,15.35Z" fill="#3b1200"/><path d="M15.43,15.07a.74.74,0,0,0,.74.73.73.73,0,1,0-.74-.73Z" fill="#fff"/><path d="M13.68,41.57s-2.47,8.35,6.52,14.58c4.58,3.18,14.1,2,10.34-1,3-.5,5.43-2.84,3-4.32,2.6-.2,4-1.15,4-1.91C37.44,44.26,13.68,41.57,13.68,41.57Z" fill="#8b2c19"/></g></g></g></svg>