<svg xmlns="http://www.w3.org/2000/svg" viewBox="0 0 77.38 52.22"><g style="isolation:isolate"><g id="Layer_2" data-name="Layer 2"><g id="Capa_1" data-name="Capa 1"><path d="M63.3,43.91c1.52-3.69-4.13-4.3-2.56-7.21s8.06.52,9.81-2.29c1.34-2.12-2.3-2.23-1.67-6,.36-2.19,9.33-6.3,8.43-9.76-.94-2.38-11,.89-12.67-.5-3-2.4-.66-7.16-3.07-7.87-3.18-.93-4.4,5.61-7.51,4.48s-.15-6.64-3.74-8.39C45.45,4,43.34,16.75,40.57,16c-4.6-1.2-1-5.14-4.72-5.35-4.81-.27-8.26,21.89-10.6,20.69s.21-2.9-2.4-3.81c-1.7-.6-10.09,7.91-8.67,13.14,2.41,4.85,14.39,8.1,15.26,6.53,1.35-2.43-1.68-2-.73-4.46S46.23,55.1,49.65,51.71c2.66-2.65-1.46-4,1.18-8C52.42,41.38,61.23,48.92,63.3,43.91Z" fill="#df9124"/><path d="M60.22,42.85c1.25-3-5-4.57-3.72-7s8.85.31,10.29-2c1.1-1.75-4.13-1.72-3.61-4.81.3-1.8,7.66-5.18,6.93-8-.77-2-9,.73-10.41-.41-2.44-2,3.53-8.56,1.55-9.14-2.61-.76-5.4,7.89-10.24,6.36-2.59-.83-.32-8-2.93-8.63s-5.87,10.26-8.15,9.67c-3.77-1-.85-5.15-3.92-5.32C32.06,13.38,29.68,34,24.07,34.75c-2.14.28.08-4-1.1-4-1.47.05-5.51,6.59-4.92,8.59s8.78,7.1,9.5,5.8c1.11-2-2.13-3.15-1.35-5.16s18.38,11,21.19,8.24c2.19-2.17-1.2-3.28,1-6.53C49.67,39.74,58.52,47,60.22,42.85Z" fill="#e2a722"/><path d="M0,46.32,2.86,45l7.57-3.31c3.13-1.38,6.82-2.89,10.75-4.56,2-.83,4-1.69,6.09-2.5l6.32-2.51c2.13-.82,4.23-1.73,6.35-2.45s4.17-1.55,6.22-2.15,4-1.31,5.9-1.8,3.67-1,5.33-1.43,3.18-.77,4.54-1,2.55-.53,3.53-.71c2-.37,3.09-.52,3.09-.52s-1.13.17-3.08.57c-1,.19-2.17.43-3.52.76s-2.87.68-4.52,1.12S54,25.45,52.13,26s-3.82,1.22-5.85,1.88-4.08,1.48-6.18,2.25-4.18,1.69-6.3,2.55L27.53,35.3c-2.07.84-4.08,1.74-6,2.61-3.9,1.73-7.56,3.3-10.65,4.74l-7.5,3.44L.5,47.41Z" fill="#782519"/><path d="M57.31,24.43s.11-.13.28-.37.4-.6.68-1c.13-.22.25-.47.39-.72a7.65,7.65,0,0,0,.41-.81c.12-.29.26-.59.39-.89s.22-.64.33-.95.21-.64.32-1,.14-.65.21-.95.14-.61.21-.89.07-.56.11-.81c.12-1,.23-1.68.23-1.68s0,.67-.06,1.7a6.19,6.19,0,0,1-.07.82c-.05.29-.11.6-.16.91s-.13.64-.2,1-.2.65-.31,1a9.05,9.05,0,0,1-.35,1q-.21.47-.42.9a4.84,4.84,0,0,1-.45.81c-.16.25-.29.49-.44.7A9.11,9.11,0,0,1,57.31,24.43Z" fill="#782519"/><path d="M41.87,29.21a21.06,21.06,0,0,0,2.37-2.86c.34-.44.65-1,1-1.49s.68-1.13,1-1.75a29,29,0,0,0,1.77-4c.27-.69.45-1.41.68-2.11s.34-1.41.51-2.08.23-1.35.34-2a17.67,17.67,0,0,0,.2-1.8c0-.55.12-1.06.11-1.52s0-.85,0-1.17c0-.66,0-1,0-1s0,.37,0,1c0,.32,0,.72,0,1.18s0,1,0,1.53,0,1.17-.15,1.8-.16,1.32-.31,2-.29,1.4-.49,2.11-.4,1.44-.67,2.13a26.73,26.73,0,0,1-1.83,4c-.31.63-.71,1.19-1,1.74s-.7,1-1,1.48A18.72,18.72,0,0,1,41.87,29.21Z" fill="#782519"/><path d="M27.25,35s.29-.24.75-.71,1.12-1.15,1.84-2c.37-.43.75-.91,1.13-1.43s.76-1.09,1.16-1.67.76-1.21,1.11-1.86.7-1.31,1-2l.44-1c.13-.35.24-.7.36-1.05s.24-.7.34-1l.24-1a14.94,14.94,0,0,0,.36-2c0-.32.09-.63.13-.93s0-.6,0-.88c0-.56.06-1.08,0-1.54s-.06-.85-.08-1.18c0-.66-.07-1-.07-1s0,.37.12,1c0,.32.08.72.14,1.18s0,1,0,1.55c0,.28,0,.58,0,.88s-.07.62-.1,1a12.49,12.49,0,0,1-.33,2c-.07.35-.15.7-.23,1.06s-.22.7-.33,1.06-.23.71-.36,1.07l-.44,1a20.12,20.12,0,0,1-1,2c-.36.65-.75,1.28-1.13,1.88S31.56,30.5,31.14,31s-.79,1-1.17,1.41A25.13,25.13,0,0,1,28,34.35C27.55,34.79,27.25,35,27.25,35Z" fill="#782519"/><path d="M55.29,25.2s.21,0,.58.14a15.64,15.64,0,0,1,1.53.47c.63.2,1.33.5,2.1.81.38.16.75.37,1.14.55s.8.38,1.17.61c.74.48,1.52.89,2.17,1.41l.93.74a7.12,7.12,0,0,1,.81.69l1.49,1.62-1.6-1.49a8.26,8.26,0,0,0-.83-.65l-1-.7c-.64-.5-1.43-.9-2.16-1.36-.37-.24-.77-.41-1.15-.62s-.75-.4-1.13-.56c-.75-.32-1.43-.67-2-.9s-1.12-.45-1.48-.57Z" fill="#782519"/><path d="M38.06,30.8s.4,0,1.1,0a23.6,23.6,0,0,1,2.88.31c.59.09,1.23.23,1.9.38s1.37.36,2.1.55,1.46.45,2.19.77a23.46,23.46,0,0,1,2.19,1A19.31,19.31,0,0,1,52.51,35a20.89,20.89,0,0,1,1.93,1.29c.63.42,1.15.92,1.69,1.36a16.68,16.68,0,0,1,1.41,1.33c.41.44.81.82,1.12,1.2l.78,1,.67.86-.71-.83-.82-1c-.32-.36-.74-.72-1.16-1.15A13,13,0,0,0,56,37.76a18.17,18.17,0,0,0-1.7-1.32,20.53,20.53,0,0,0-1.92-1.26,23.27,23.27,0,0,0-2.09-1.12,22.1,22.1,0,0,0-2.16-1c-.71-.32-1.46-.53-2.16-.79s-1.4-.43-2.07-.59-1.3-.3-1.89-.4c-1.17-.22-2.16-.36-2.86-.42S38.06,30.8,38.06,30.8Z" fill="#782519"/><path d="M25.3,36s.37,0,1,0a22,22,0,0,1,2.73.28c.56.09,1.16.2,1.8.35s1.29.33,2,.52,1.37.46,2.07.73,1.39.57,2.05.94l1,.54c.32.19.63.41.95.61s.63.39.92.61l.85.67a12,12,0,0,1,1.53,1.36l.68.67.57.68c.35.44.7.83,1,1.21l.64,1,.56.88L45,46.2l-.69-1c-.28-.36-.64-.73-1-1.16l-.58-.66-.69-.64a15.62,15.62,0,0,0-1.54-1.32l-.84-.65c-.3-.22-.61-.4-.92-.6s-.62-.4-.95-.59l-1-.52c-.65-.38-1.36-.64-2-1s-1.37-.52-2-.74-1.32-.42-2-.56-1.22-.29-1.77-.4a26,26,0,0,0-2.7-.39C25.67,36,25.3,36,25.3,36Z" fill="#782519"/><path d="M21.6,40.69c1.27-3.78,6-2.87,8.82-2.14a50.73,50.73,0,0,1,9.09,2.72c-.69-.67-1.38-1.34-2.11-2-1-.9-2.21-1.64-3.24-2.55-.49-.42-1.38-1.12-1-1.87A5.51,5.51,0,0,1,36,32.64c3-1.39,6.18-.69,9.24.15a59.82,59.82,0,0,1,6.19,1.75c1.61.62,3,1.79,4.56,2.46-2-3.2-5.8-5.08-9.12-6.53a.31.31,0,0,1-.06-.48c5.64-4.54,12.17-2.1,18,.53a20.44,20.44,0,0,0-5.68-4.87.31.31,0,0,1,0-.53A17.89,17.89,0,0,1,63.6,23c-1.33-.44-2.75.14-4.1.46a.3.3,0,0,1-.34-.44,19.06,19.06,0,0,0,2.07-4.32c-1.65,1.75-3.28,3.56-5.55,4.48a41.26,41.26,0,0,1-8.7,2.2.29.29,0,0,1-.37-.29C46.55,23,48,21.2,48.45,19.23a32,32,0,0,0,.95-7.08c-1.66,4.12-2.81,8.55-5.26,12.27a15,15,0,0,1-8,6c-.66.22-2,.8-2.58,0s-.19-2.06.06-2.93c.4-1.4,1.06-2.77,1.34-4.2a34.5,34.5,0,0,0,.63-5C33.67,24,31.44,30.12,26.48,33.65c-.95.67-3.81,2.27-4.38.19-.46-1.68,2-4.7,1-6.17l-.26-.11c-1.7-.6-10.09,7.91-8.67,13.14,1.39,2.81,6,5.08,9.78,6.19C21.92,45.4,20.66,43.45,21.6,40.69Z" fill="#d7c5c3" style="mix-blend-mode:multiply"/><path d="M46.19,23.6c-.1-3.14-4.36-1.75-4.16-4.35S48,17,48.33,14.43c.27-2-2.38-.85-3.15-3.76C44.74,9,49.84,3.12,48.08.93c-1.45-1.42-7.57,4.18-9.27,3.74C35.9,3.91,36-.26,34.07,0c-2.59.36-1.35,5.45-3.95,5.65S27.87.94,24.72.84c-4.27-.12-1.65,9.72-3.88,10.1-3.68.63-2.36-3.38-5.12-2.32C12.18,10,16.88,27,14.81,26.92s-.79-2.15-3-2c-1.42.13-4.68,9-2,12.25,3.3,2.71,13,1.16,13.08-.25.18-2.18-1.86-.9-2-3s16.57,3.18,17.93-.36c1-2.76-2.35-2.39-1.73-6.09C37.57,25.31,46.33,27.87,46.19,23.6Z" fill="#dc7f25"/><path d="M43.64,23.84c-.08-2.58-5.08-1.66-4.92-3.8s6.45-2.64,6.74-4.76c.22-1.61-3.52.11-4.15-2.29-.37-1.38,3.83-6.19,2.38-8-1.19-1.16-6.22,3.44-7.61,3.08C33.69,7.44,35.85.78,34.24,1c-2.12.3-1.33,7.42-5.3,7.88-2.13.25-2.81-5.62-4.9-5.24s-.89,9.27-2.72,9.58c-3,.51-2.27-3.43-4.54-2.55-2.91,1.12,2.06,16.71-1.72,19.06-1.45.89-1.25-2.93-2.08-2.52-1.05.51-1.83,6.51-.76,7.76s8.6,2.26,8.7,1.09c.15-1.78-2.55-1.57-2.64-3.27s16.77,2,17.89-.94c.86-2.27-1.93-2-1.42-5C35.06,25,43.75,27.34,43.64,23.84Z" fill="#e19e23"/><path d="M1.51,45.83s2.39-2.69,6-6.67c1.8-2,4-4.29,6.24-6.76,1.15-1.23,2.33-2.51,3.57-3.77l3.73-3.85c1.26-1.27,2.47-2.61,3.76-3.81s2.5-2.46,3.77-3.56,2.46-2.23,3.66-3.2,2.29-1.94,3.36-2.75,2-1.59,2.92-2.23S40.19,8,40.83,7.58c1.29-.9,2.06-1.37,2.06-1.37s-.76.48-2,1.4c-.64.45-1.41,1-2.28,1.68s-1.84,1.42-2.88,2.27-2.16,1.79-3.32,2.8S30,16.48,28.79,17.61,26.34,20,25.07,21.22s-2.45,2.57-3.69,3.87L17.72,29c-1.22,1.27-2.37,2.57-3.49,3.83C12,35.34,9.87,37.65,8.11,39.68c-3.55,4-5.88,6.77-5.88,6.77Z" fill="#782519"/><path d="M35.58,11.55a2.11,2.11,0,0,0,.09-.36c.06-.22.09-.56.15-.95a13.48,13.48,0,0,0,.08-1.36V8.12c0-.26,0-.53-.07-.79s0-.53-.08-.79-.11-.51-.16-.75-.09-.48-.14-.7a3.48,3.48,0,0,0-.18-.62l-.38-1.28.51,1.24c.06.19.17.39.22.61s.11.46.17.71.12.5.18.76l.09.8a7.18,7.18,0,0,1,.06.8c0,.27,0,.53,0,.78a4.32,4.32,0,0,1-.06.73c0,.22-.06.44-.1.64A7.15,7.15,0,0,1,35.58,11.55Z" fill="#782519"/><path d="M26,20a16.73,16.73,0,0,0,.79-2.83c.1-.43.16-.9.24-1.4s.14-1,.16-1.57a22,22,0,0,0,0-3.44c0-.59-.12-1.16-.18-1.74s-.21-1.12-.31-1.66-.27-1-.4-1.54a12.4,12.4,0,0,0-.44-1.34c-.16-.41-.26-.81-.42-1.13l-.36-.85-.32-.75.35.73c.12.23.26.51.41.83A9.26,9.26,0,0,1,26,4.42a13.26,13.26,0,0,1,.47,1.35c.13.49.31,1,.43,1.54s.25,1.1.33,1.67.19,1.16.22,1.75a22.24,22.24,0,0,1,0,3.47c0,.55-.12,1.08-.18,1.58s-.16,1-.27,1.41A14.12,14.12,0,0,1,26,20Z" fill="#782519"/><path d="M17.42,28.89s.13-.27.32-.75.42-1.19.67-2.05a21.59,21.59,0,0,0,.65-3c.08-.55.15-1.12.19-1.7s.07-1.17,0-1.76a12.89,12.89,0,0,0-.1-1.76,11.33,11.33,0,0,0-.25-1.68,10.33,10.33,0,0,0-.39-1.55L18.34,14c-.09-.22-.18-.43-.26-.64-.18-.41-.32-.79-.47-1.12l-.44-.82-.39-.72.42.7c.13.22.3.49.48.8s.33.7.51,1.11l.28.64c.07.23.15.47.23.71a11.84,11.84,0,0,1,.42,1.56,13.11,13.11,0,0,1,.28,1.7,15.06,15.06,0,0,1,.12,1.78,17.54,17.54,0,0,1-.07,1.78c-.05.59-.13,1.16-.21,1.71a24.58,24.58,0,0,1-.71,3,17.56,17.56,0,0,1-.76,2A7.08,7.08,0,0,1,17.42,28.89Z" fill="#782519"/><path d="M34.38,12.75l.47-.08c.3-.05.73-.12,1.25-.16s1.12-.07,1.77-.09c.32,0,.66,0,1,0s.69,0,1,.06a20.36,20.36,0,0,1,2,.31l.91.23a4.42,4.42,0,0,1,.8.24l1.6.67-1.64-.55a5.84,5.84,0,0,0-.8-.2L41.88,13c-.63-.15-1.32-.18-2-.28-.34-.05-.68,0-1-.07s-.67,0-1,0c-.65,0-1.25,0-1.77,0C35.07,12.67,34.38,12.75,34.38,12.75Z" fill="#782519"/><path d="M23.82,22.36s.28-.14.8-.34a17.27,17.27,0,0,1,2.17-.71c.46-.13,1-.24,1.49-.35s1.1-.18,1.68-.28,1.2-.15,1.82-.16,1.26-.05,1.89,0,1.26.09,1.88.16,1.22.2,1.8.31,1.13.29,1.65.43a11.68,11.68,0,0,1,1.45.5c.44.18.85.32,1.19.5l.88.46.77.41-.79-.37-.89-.42c-.35-.16-.77-.28-1.21-.46A9.74,9.74,0,0,0,39,21.55a13.11,13.11,0,0,0-1.64-.4,17.13,17.13,0,0,0-1.79-.28,16.62,16.62,0,0,0-1.87-.13,23.7,23.7,0,0,0-6.84.69A19.59,19.59,0,0,0,23.82,22.36Z" fill="#782519"/><path d="M16.33,30.21a7.57,7.57,0,0,1,.75-.32,17.41,17.41,0,0,1,2.05-.68,24.53,24.53,0,0,1,3-.59c.55-.06,1.13-.12,1.72-.14a17.61,17.61,0,0,1,1.78,0,13,13,0,0,1,1.77.19,12.63,12.63,0,0,1,1.69.35,11.11,11.11,0,0,1,1.54.49l.7.25.63.3c.4.2.77.37,1.08.56l.79.51.68.45-.7-.41L33,30.69c-.32-.17-.7-.32-1.09-.51l-.63-.29-.7-.24a10.1,10.1,0,0,0-1.53-.45,11.34,11.34,0,0,0-1.68-.32,12.65,12.65,0,0,0-1.75-.16,17.43,17.43,0,0,0-1.77,0c-.58,0-1.15.07-1.7.12a23.51,23.51,0,0,0-3,.53c-.86.22-1.57.42-2.06.59S16.33,30.21,16.33,30.21Z" fill="#782519"/><path d="M15.2,34.79c-.3-3.13,3.36-4,5.65-4.39a39.85,39.85,0,0,1,7.41-1c-.72-.26-1.43-.52-2.16-.73-1-.31-2.12-.47-3.15-.78-.49-.15-1.36-.36-1.35-1a4.35,4.35,0,0,1,1.31-2.53c1.71-2,4.22-2.5,6.69-2.89a46.89,46.89,0,0,1,5-.74c1.36-.08,2.72.32,4.07.29-2.44-1.66-5.81-1.77-8.66-1.74a.23.23,0,0,1-.2-.32c2.58-5.09,8.06-5.45,13.13-5.47a16.3,16.3,0,0,0-5.66-1.66.24.24,0,0,1-.17-.37,14.2,14.2,0,0,1,2.51-3c-1.1.12-1.93,1-2.8,1.66a.23.23,0,0,1-.38-.2,15,15,0,0,0,.08-3.78,13.16,13.16,0,0,1-2.53,5,33.11,33.11,0,0,1-5.54,4.39.24.24,0,0,1-.36-.08c-.72-1.49-.28-3.2-.56-4.77a25.25,25.25,0,0,0-1.61-5.4c.14,3.5.75,7.06.19,10.52a11.81,11.81,0,0,1-3.78,6.9c-.4.37-1.21,1.24-1.84.86s-.81-1.42-.91-2.13c-.17-1.13-.14-2.33-.39-3.45A28.69,28.69,0,0,0,18,14.23c.42,4.66.81,9.78-1.61,13.92-.46.79-2,2.87-3.09,1.56-.87-1.06-.05-4-1.27-4.76h-.22c-1.42.13-4.68,9-2,12.25,1.91,1.57,5.94,1.71,9,1.28C17,38.07,15.43,37.08,15.2,34.79Z" fill="#d7c5c3" style="mix-blend-mode:multiply"/></g></g></g></svg>