<svg xmlns="http://www.w3.org/2000/svg" viewBox="0 0 68.68 72.97"><g style="isolation:isolate"><g id="Layer_2" data-name="Layer 2"><g id="Capa_1" data-name="Capa 1"><path d="M42.76,51.62C42,61.49,38,67.69,28.27,67,20,66.33,14.39,56.15,13.63,46.33c-1.46-19,8-37.81,16.7-37.88C37.55,8.4,44.38,29.53,42.76,51.62Z" fill="#c45421"/><path d="M49.69,51.62C49,61.49,44.88,67.69,35.19,67c-8.29-.63-13.87-10.81-14.63-20.63-1.46-19,8-37.81,16.7-37.88C44.48,8.4,51.31,29.53,49.69,51.62Z" fill="#c45421"/><path d="M36.09,53.2c-.73,9.86-4.8,16.06-14.49,15.33C13.31,67.91,7.72,57.72,7,47.9,5.5,28.91,15,10.09,23.67,10,30.88,10,37.72,31.1,36.09,53.2Z" fill="#d96825"/><path d="M56.92,53.2c-.72,9.86-4.8,16.06-14.49,15.33C34.14,67.91,28.55,57.72,27.8,47.9c-1.47-19,8-37.81,16.7-37.87C51.72,10,58.55,31.1,56.92,53.2Z" fill="#d96825"/><path d="M32.73,49.37c-.83,10-5,18-16.07,18.05C5.32,67.46-1,56.44.14,43.35,2,22.61,15.14,9.65,24.39,13.54,32.07,16.76,34.58,27,32.73,49.37Z" fill="#da7325"/><path d="M26.5,14.7c-.84.16-1.66.37-2.45.6a22.75,22.75,0,0,0-8.27,4.39C-1.3,34.55,5.11,54.5,3.08,55.06a2.1,2.1,0,0,1-2-.72c2.18,7.72,7.67,13.11,15.6,13.08,11.06,0,15.24-8,16.07-18.05C34.4,29.17,32.51,18.88,26.5,14.7Z" fill="#e8c8ca" style="mix-blend-mode:multiply"/><path d="M29.81,13.54c-.43.67,5.11,4.95,8.38.37.68-1-6.25-9.77,4-12.34C42.54,1,42.52,0,41.85,0,30.62.81,30.24,12.88,29.81,13.54Z" fill="#400a00"/><path d="M42.15,1.57a1.63,1.63,0,0,0,.17-.38,7.12,7.12,0,0,0-2.65.68c-2.61.76-3.86,1.84-4.5,4.49-.42,1.73.39,4.32-.73,5.79-.77,1-3.44,1.21-4.55,1.17a1.2,1.2,0,0,1-.08.22c-.43.67,5.11,4.95,8.38.37C38.87,13,31.94,4.14,42.15,1.57Z" fill="#260000"/><path d="M40.13,56.68c-.82,10-5.46,16.29-16.49,15.55C14.2,71.6,6.82,65.89,5.92,51.73,4.71,32.44,18.65,9.09,27.45,12.92,35.08,16.24,42,34.28,40.13,56.68Z" fill="#dd8725"/><path d="M30.1,14.7a10.25,10.25,0,0,1-1.06.77c-18.49,9.8-10.75,46.42-14.75,48.87-3.65,2.24-5.91-3-6.61-3.69,2.87,7.73,8.83,11.1,16,11.58,11,.74,15.67-5.54,16.49-15.55C41.76,36.91,36.58,20.56,30.1,14.7Z" fill="#e8c8ca" style="mix-blend-mode:multiply"/><path d="M36,49.37c.83,10,5,18,16.06,18.05,11.34,0,17.7-11,16.53-24.07-1.85-20.74-15-33.7-24.26-29.81C36.61,16.76,34.1,27,36,49.37Z" fill="#da7325"/><path d="M67,55.56c-2-1.12-2.42-3.33-2.56-5.47a69.1,69.1,0,0,0-.91-10.25C62.28,34,60.44,28.13,57.09,23.08c-2.92-4.39-7.18-9.16-12.84-9.4a.34.34,0,0,1-.15-.06c-7.53,3.31-10,13.53-8.15,35.75.83,10,5,18,16.06,18.05,7.47,0,12.78-4.74,15.2-11.75Z" fill="#e8c8ca" style="mix-blend-mode:multiply"/><path d="M28.54,56.68C29.37,66.69,34,73,45,72.23,54.48,71.6,62.58,66.45,63.28,52,64.2,32.7,50,9.09,41.22,12.92,33.59,16.24,26.69,34.28,28.54,56.68Z" fill="#dd8725"/><path d="M57.76,58.62C53.42,53,55.22,33.67,45.87,23.37c-3-3.27-7.42-3.14-11.55-2.95-4.27,8-7,21.1-5.78,36.26C29.37,66.69,34,73,45,72.23c7.47-.5,14.1-3.84,16.88-12.36A4.1,4.1,0,0,1,57.76,58.62Z" fill="#e8c8ca" style="mix-blend-mode:multiply"/><path d="M52.54,58.35C51.71,68.35,43.31,73,34.67,73S19.58,66.49,18.1,55.57c-2.57-18.92,5.73-43.86,11.83-43.86A7.75,7.75,0,0,1,34,13.17C41.6,8.74,54.39,35.94,52.54,58.35Z" fill="#e19e23"/><path d="M23.32,26.3C24.67,22,25.2,17.72,28,14.16a24.88,24.88,0,0,1,2.18-2.44h-.23c-5.91,0-13.85,23.33-12,42C19,52.7,21.06,33.39,23.32,26.3Z" fill="#e4b021"/><path d="M36.89,12.87a32.45,32.45,0,0,1,3,4.41c3.92,6.38,5.52,13.68,6.42,21.06.81,6.59,1.44,14.79-3.28,20.15a17.57,17.57,0,0,1-15.71,5.56c-4.8-.9-7.27-4.65-9.22-8.69l0,.21C19.58,66.49,26,73,34.67,73s17-4.62,17.87-14.62C54.17,38.58,44.41,15.1,36.89,12.87Z" fill="#e8c8ca" style="mix-blend-mode:multiply"/><g style="mix-blend-mode:multiply"><path d="M37.54,39.69l0,0a1.35,1.35,0,0,0-1-1,1.59,1.59,0,0,0-1.62.54,1.38,1.38,0,0,0,1.75,2.13A1.41,1.41,0,0,0,37.54,39.69Z" fill="#e8c8ca"/><path d="M36.33,36.8A.84.84,0,0,0,35.5,36a.85.85,0,0,0-.83.83v.07a.83.83,0,1,0,1.66,0Z" fill="#e8c8ca"/><path d="M37.45,36.86a.43.43,0,0,0,0,.85A.43.43,0,0,0,37.45,36.86Z" fill="#e8c8ca"/><path d="M39.25,36.22a.51.51,0,0,0,0,1A.51.51,0,0,0,39.25,36.22Z" fill="#e8c8ca"/><path d="M38.14,33.63a.46.46,0,0,0,0,.92A.46.46,0,0,0,38.14,33.63Z" fill="#e8c8ca"/><path d="M35.92,33.2a.47.47,0,0,0,0,.94A.47.47,0,0,0,35.92,33.2Z" fill="#e8c8ca"/><path d="M37.31,30.05a.43.43,0,0,0,0,.86A.43.43,0,0,0,37.31,30.05Z" fill="#e8c8ca"/><path d="M40,32.31a.53.53,0,0,0,0,1.06A.53.53,0,0,0,40,32.31Z" fill="#e8c8ca"/><path d="M41.75,38.75a.48.48,0,0,0,0,1A.48.48,0,0,0,41.75,38.75Z" fill="#e8c8ca"/><path d="M39.53,42.52a.46.46,0,0,0,0,.92A.46.46,0,0,0,39.53,42.52Z" fill="#e8c8ca"/><path d="M36.8,45.62l0,0a.5.5,0,0,0-.85,0,.1.1,0,0,1,0,0,.54.54,0,1,0,.93,0Z" fill="#e8c8ca"/><path d="M33,44.44a.34.34,0,0,0,0,.68A.34.34,0,0,0,33,44.44Z" fill="#e8c8ca"/><path d="M36.2,43.09a.45.45,0,0,0,0,.89A.45.45,0,0,0,36.2,43.09Z" fill="#e8c8ca"/></g><path d="M29.18,25.06c.51,3.49.61,8.14-1.38,8.14s-4.14-2.89-3.62-6.38c1.32-8.84,5.53-13.95,6.6-13.2S28.24,18.61,29.18,25.06Z" fill="#e4b021"/><path d="M49.93,20.34c-2.3-2.68-8.37-5.43-6.68-6.5s5.26,1,7.53,3.72c4.88,5.82,7.07,10.69,5.76,10.63C55.4,28.13,54.17,25.3,49.93,20.34Z" fill="#e19e23"/><path d="M57.61,19.58c-2.26-2.71-8.74-4-7-5.06s5.25,1.09,7.48,3.82C62.85,24.22,65,29.12,63.67,29,62.53,29,61.79,24.6,57.61,19.58Z" fill="#dd8725"/><path d="M18.87,20.34a84.16,84.16,0,0,1,6.68-6.5s-5.26,1-7.52,3.72C13.15,23.38,11,28.25,12.26,28.19,13.4,28.13,14.63,25.3,18.87,20.34Z" fill="#e19e23"/><path d="M11.19,19.58c2.26-2.71,8.74-4,7-5.06S13,15.61,10.75,18.34C6,24.22,3.83,29.12,5.13,29,6.27,29,7,24.6,11.19,19.58Z" fill="#dd8725"/></g></g></g></svg>