<svg xmlns="http://www.w3.org/2000/svg" viewBox="0 0 58.39 54.84"><g style="isolation:isolate"><g id="Layer_2" data-name="Layer 2"><g id="Capa_1" data-name="Capa 1"><path d="M.81,6c1.71-.24,3.21-1.06,5-1.08a9.37,9.37,0,0,1,4.59,1.42c2.45,1.35,4.43,3.67,7.15,4.51a.38.38,0,0,0,.49-.43C16.92,4.11,7.21-1.28,1.22,1.66.55,2-.91,6.18.81,6Z" fill="#642c12"/><path d="M10.14,36.3c-1.29-1.47,2.39-8.64,13.77-18.56C33.3,9.54,42.82,5.21,44.17,6.61,59.54,22.72,62,44.69,53.72,51.91,47.18,57.61,27.54,56.25,10.14,36.3Z" fill="#884016"/><path d="M36.8,50c-4.19-1.55-13.5-4.63-12.21-10.63.73-3.43,3.34-6.16,5.85-8.45,2.89-2.64,6-5.06,8.84-7.73,3.66-3.42,6.38-8,5.64-13.16A9.92,9.92,0,0,0,43.75,6.4c-2.31-.55-11.12,3.73-19.84,11.34C12.53,27.66,8.85,34.83,10.14,36.3c17.4,20,37,21.31,43.58,15.61.17-.15.33-.32.49-.48C48.64,53,41.85,51.83,36.8,50Z" fill="#d9cccd" style="mix-blend-mode:multiply"/><path d="M44.72,25C41,28,32.27,32.17,33.61,38c2,8.63,13.27,10.07,20,6.44a12,12,0,0,0,4.7-4.3c.3-6.61-1.66-14.72-6.07-22.55C50.43,20.58,47.07,23.18,44.72,25Z" fill="#9f4a1c"/><path d="M45.19,7.07c.88,1.74-2.5,8.73-14.1,18.85-9.59,8.36-18.88,12.33-20.6,11.42C3,33.42,4.67,15,14.25,6.62S40.21-2.82,45.19,7.07Z" fill="#512309"/><path d="M15.11,19.35c4.65,1.39,9.21-2.2,12.76-4.71,1.82-1.3,4-2.58,5.19-4.52,1.4-2.21,2.47-6.07,1.17-8.56A5.22,5.22,0,0,0,33.09.05,27.25,27.25,0,0,0,14.25,6.62,21.31,21.31,0,0,0,11,10.29C10.36,13.86,11.56,18.28,15.11,19.35Z" fill="#642c12"/><path d="M37.08.71a6.19,6.19,0,0,1,1.46,1.78,8.7,8.7,0,0,1,.21,7.22C36.19,16.68,30,22.24,24,26.31c-3.94,2.67-13,7.13-15.58.32-1.24-3.34-1-6.85-.66-10.36C4.51,24.79,5.27,34.6,10.49,37.34c1.72.91,11-3.06,20.6-11.42,11.6-10.12,15-17.11,14.1-18.85A12.5,12.5,0,0,0,37.08.71Z" fill="#d9cccd" style="mix-blend-mode:multiply"/></g></g></g></svg>