<svg xmlns="http://www.w3.org/2000/svg" viewBox="0 0 93.93 50.17"><g style="isolation:isolate"><g id="Layer_2" data-name="Layer 2"><g id="Capa_1" data-name="Capa 1"><ellipse cx="47.46" cy="38.51" rx="39.74" ry="11.67" fill="silver"/><ellipse cx="46.96" cy="33.7" rx="46.96" ry="11.66" fill="#dadada"/><path d="M47,44.62C22,44.62,1.64,39.79.1,33.7a3.07,3.07,0,0,0-.1.74C0,40.88,21,46.1,47,46.1s47-5.22,47-11.66a3.07,3.07,0,0,0-.1-.74C92.29,39.79,71.9,44.62,47,44.62Z" fill="#fff"/><path d="M85,31.74C85,35.48,68,38.51,47,38.51s-38.07-3-38.07-6.77S25.93,25,47,25,85,28,85,31.74Z" fill="#b2b2b2"/><path d="M6.61,34.9c-1.51,3.5,3.26,1.77,4.31,3.2.67.91.39,2,1.38,2.87a3.06,3.06,0,0,0,3.73.17c1.11-.67,1.64-1.38,2.95-.59,1.11.68,1.19,1.5,2.77,1.43,1.15,0,1.84-.82,2.92-1.08a5.8,5.8,0,0,1,3.44.42c2.06.9,3.81,4.28,6.28,2.47.9-.66,1.24-1.52,2.5-1.78s2,.37,3.19.91c1.93.9,8,1.18,9.69-.27.9-.78.72-1.91,1.87-2.59a3.8,3.8,0,0,1,3.29-.3c2.2.75,3.92,3.77,6.68,2.89,1.56-.51,1.13-1.84,1.94-2.89a3.62,3.62,0,0,1,3.19-1.11c2.37.14,4.45,1.82,7,1.94,1.4.07,2.16.18,2.46-1.25s.07-2.24,1.84-2.61c2.15-.45,6.88,0,5.59-3.78-.89-2.59-3.48-3.3-5.73-3.74a23.5,23.5,0,0,0-4.44-.15c-2.54,0-3.74-2.21-6-2.88C62.09,24.61,56.43,24.86,51,24a37.6,37.6,0,0,0-5.11-.87,33.92,33.92,0,0,1-7-1.22,9,9,0,0,0-5.65.11,34.53,34.53,0,0,1-4.17,1.67c-2.63.62-4.46.71-6.7,2.39A31,31,0,0,1,17,28.79Z" fill="#717b27"/><path d="M59.33,41.42c-1.29-1.19-2.41-2.56-4.25-2.88-3-.53-4.5,2.45-6.69,3.89a10.42,10.42,0,0,1-2.57,1.22,7.16,7.16,0,0,0,4-1c.9-.78.72-1.91,1.87-2.59a3.8,3.8,0,0,1,3.29-.3c2.2.75,3.92,3.77,6.68,2.89a2.09,2.09,0,0,0,.54-.26A3.26,3.26,0,0,1,59.33,41.42Z" fill="#a4a221"/><path d="M78.88,35.68A2.93,2.93,0,0,0,77.17,37a3.14,3.14,0,0,1,.82-.27c1.68-.35,4.9-.18,5.65-1.84C82.08,35.38,80.47,35.18,78.88,35.68Z" fill="#a4a221"/><path d="M76.14,38.69c-.54.72-1.39,1.75-2.44,1.49-1.47-.35-2.51-1.59-4-2a4.48,4.48,0,0,0-3.56.42,4.14,4.14,0,0,1,.61,0c2.37.14,4.45,1.82,7,1.94,1.4.07,2.16.18,2.46-1.25.07-.33.12-.62.16-.88Z" fill="#a4a221"/><path d="M9.68,35a8.39,8.39,0,0,1,2.52.67A3.37,3.37,0,0,1,14,37.43c.36.83.18,1.87.9,2.48.71-1.09,1.93-2.81,3.36-1.73.35.26.81.84,1.23.89a3.1,3.1,0,0,0,2.07-.37,6.27,6.27,0,0,1,2.11-.86c1.83-.3,3.94.73,5.56,1.45a10.66,10.66,0,0,1,2.5,1.26c1.36,1.13,2.44.17,3.75-.42,2.66-1.2,5.26.7,7.78,1.42,1.93.55,4.3.52,5.72-1.14a8.94,8.94,0,0,0,1.79-4.64c.12-.75.23-1.84.95-2.29a3.74,3.74,0,0,1,2.9-.16c1.74.52,3.34,2.07,5.24,1.94,1.63-.12,3-1.55,4.24-2.5.82-.63,1.49-.88,2.37-.2A23.75,23.75,0,0,0,70,35.31a5.54,5.54,0,0,0,5.89-.9,6,6,0,0,0,2-2.14A13.06,13.06,0,0,1,78.29,31a3,3,0,0,1,2.38-1,13.66,13.66,0,0,0-2.82-.8,23.5,23.5,0,0,0-4.44-.15c-2.54,0-3.74-2.21-6-2.88C62.09,24.61,56.43,24.86,51,24a37.6,37.6,0,0,0-5.11-.87,33.92,33.92,0,0,1-7-1.22,9,9,0,0,0-5.65.11,34.53,34.53,0,0,1-4.17,1.67c-2.63.62-4.46.71-6.7,2.39A31,31,0,0,1,17,28.79l-9.56,5.6C7.93,34.9,8.83,34.89,9.68,35Z" fill="#5b7028"/><path d="M8.71,30.13c-2.09.76-7.12,1.74-6.29,5.18.76,3.18,5.24-.49,7.45.33s.84,1.77,1.65,3.2c.61,1.1,3.2,1.39,4.23.92,2.29-1,3.11-3.29,6.25-1.3,2.36,1.5,2.71,4.68,5.78,4.44,2-.14,1.71-1.35,2.22-3,.58-1.8,6.72-.88,10.93,1.49,3.21,1.81,7.53,1.48,8.15-2.6,1.69-11-15.06-10.59-21.67-11.29Z" fill="#7c8e28"/><path d="M8.11,30.33a2.61,2.61,0,0,0-.63,1c.23.72.63,1,1.21.94,1-.36,1.74-1,2.86-.69.79.24,1.52,1.37,2.07,1.93a2.87,2.87,0,0,0,1.37.9c.36.11,1,.15.87.48C15,36.46,13.18,38.4,14,38.51s3.15-2.67,3.38-2.93c.4-.46,1.69.43,2,.46,2.43.17,4.11,2,6.22,3.05a2.89,2.89,0,0,1,1.4-2c1.07-.41,2.39-.15,3.51-.26,2-.2,6.07-1.29,7.94-.6,2.09.77,3.4,2.32,4.7,2.62.61.15,1.94.19,1.47-.8-.23-.46-.48-.91-.68-1.39s-2.58-2-1.79-2.36c1.05-.48,4.07-1.23,4.5-2.36C42,28,32.13,28,27.41,27.54L8.71,30.13Z" fill="#ced9d3" style="mix-blend-mode:multiply"/><path d="M14.84,39.52a2.5,2.5,0,0,1-2.58-1.17c-.8-1.47-.53-3.83-2.94-3.58-1.37.15-2.57.87-3.92,1.07a2.77,2.77,0,0,1-2.6-.75,1.83,1.83,0,0,1-.45-.83,2.94,2.94,0,0,0,.07,1.05c.76,3.18,5.24-.49,7.45.33s.84,1.77,1.65,3.2c.61,1.1,3.2,1.39,4.23.92a12.19,12.19,0,0,0,2-1.28A16.14,16.14,0,0,1,14.84,39.52Z" fill="#a4a221"/><path d="M46.33,41.16c-3.61.38-6.76-1.67-10.26-2.17-2-.29-5.07-.73-6.61.9-.74.79-1.33,1.83-2.44,2.11s-2.06-.6-2.64-1.3c-1.06-1.29-1.9-3-3.85-2.93h0a5.61,5.61,0,0,1,1.48.69c2.36,1.5,2.71,4.68,5.78,4.44,2-.14,1.71-1.35,2.22-3,.58-1.8,6.72-.88,10.93,1.49,2.67,1.51,6.1,1.52,7.54-.86A6.56,6.56,0,0,1,46.33,41.16Z" fill="#a4a221"/><path d="M46.05,30.45c2.32-.23,3.31,3.5,4.72,4.62a3.63,3.63,0,0,0,3.93.28c.95-.67.95-2.12,2-2.71,2.74-1.49,3.72,1.5,5.55,2.43,1.14.58,3.69,1.24,4.87.52s.76-2.18,1.49-3.19c1.41-2,4.82.14,6.81.14,4.31,0,10.54-1.28,11.6-6.26.32-1.49-.61-3.71-2.27-3.88-1.17-.12-2.1.76-3.47.69-3-.15-3.84-2.14-6.25-3.47a3.62,3.62,0,0,0-2.95-.45c-1,.4-1.28,1.14-2.46,1.31-3.28.48-6.57-3.26-9.86-3.92-1.38-.27-3.93-.69-5.32-.28s-2,2-3,2.79a9.72,9.72,0,0,1-5,1.66c-1.9.16-2,.82-3.05,2.36Z" fill="#819127"/><path d="M84.79,22.4c-1.08-.11,5.56,8.19-9,4.31A2.47,2.47,0,0,0,73,28.11a2.6,2.6,0,0,1-.75.86c-1.25.74-2.74.2-4-.21-1.93-.63-4-.73-5.92-1.25s-3.74-1.6-5.63-.69a13.35,13.35,0,0,1-4.55,1.51,46.57,46.57,0,0,0-6.43.94l-.09,0,.41,1.15c2.32-.23,3.31,3.5,4.72,4.62a3.63,3.63,0,0,0,3.93.28c.95-.67.95-2.12,2-2.71,2.74-1.49,3.72,1.5,5.55,2.43,1.14.58,3.69,1.24,4.87.52s.76-2.18,1.49-3.19c1.41-2,4.82.14,6.81.14,4.31,0,10.54-1.28,11.6-6.26C87.38,24.79,86.45,22.57,84.79,22.4Z" fill="#668329"/><path d="M81.71,30.79c-3.37,1.27-6.51-.7-9.91-.08a7.58,7.58,0,0,0-3.85,2,6.3,6.3,0,0,1-3,1.8c-3,.6-4.93-3.18-7.65-3.64-1.68-.27-2.3.58-3.47,1.52a3.81,3.81,0,0,1-2.56,1.11c-.85-.06-1.39-1.05-1.87-1.62A4.6,4.6,0,0,0,47,30.12c-.41-.09-.81-.18-1.21-.29l.22.62c2.32-.23,3.31,3.5,4.72,4.62a3.63,3.63,0,0,0,3.93.28c.95-.67.95-2.12,2-2.71,2.74-1.49,3.72,1.5,5.55,2.43,1.14.58,3.69,1.24,4.87.52s.76-2.18,1.49-3.19c1.41-2,4.82.14,6.81.14,4.15,0,10.05-1.2,11.44-5.72A12.75,12.75,0,0,1,81.71,30.79Z" fill="#7c8e28"/><path d="M63.88,31.3c-3.08,1.67-8-.39-12-.74-8.12-.68-14.37,7.47-29.62,5.05-8.73-1.39-15.78-7.46-15-18.7C8.31,1.86,20.46-1.79,31.3.73,42.35,3.3,46,13.7,52.38,16.13c7,2.67,11.84.54,13.51,4.12C66.76,22.12,66.28,30,63.88,31.3Z" fill="#ba5526"/><path d="M65.89,20.25c-1.67-3.58-6.54-1.45-13.51-4.12a12.17,12.17,0,0,1-3.58-2.3,11.6,11.6,0,0,0,2.12,2.26c1.84,1.5,4,2.5,5.84,4.06,1.36,1.18,2.34,2.72,1.85,4.6A3.27,3.27,0,0,1,56.29,27c-4.4,1.38-9.2-.59-13.66-.65C35.39,26.3,28.16,29.17,20.91,28a13.25,13.25,0,0,1-7.35-3.35,16.67,16.67,0,0,1-3.78-6.39,34,34,0,0,1-1.53-6.76,23.5,23.5,0,0,0-1,5.45c-.79,11.24,6.26,17.31,15,18.7,15.25,2.42,21.5-5.73,29.62-5.05,4.07.35,8.94,2.41,12,.74C66.28,30,66.76,22.12,65.89,20.25Z" fill="#ead6d5" style="mix-blend-mode:multiply"/><path d="M60.93,31.21c-1-.83-.4-2.89-.49-5.87-1.15,2.88-1.09,4.94-5.64,4.2-10.1-1.64-10.64,2.3-19.17,2.62-7,.27-12.3,2.4-22.43-3.33-2.35-1.33-4.42-4.41-5.72-6.74C8.85,30,15,34.45,22.24,35.61c15.25,2.42,21.5-5.73,29.62-5.05,3.82.33,8.35,2.16,11.43,1C63,31.39,61.2,31.43,60.93,31.21Z" fill="#ead6d5" style="mix-blend-mode:multiply"/><path d="M65.53,19.63c-3.15.15-4.26,4.82-4.33,7.42a7,7,0,0,0,1.4,4.72,4.8,4.8,0,0,0,1.28-.47c2.4-1.3,2.88-9.18,2-11A4,4,0,0,0,65.53,19.63Z" fill="#ead6d5" style="mix-blend-mode:multiply"/><path d="M75.8,26.5a8.25,8.25,0,0,0,2.59-5.07c.16-2.5-2-5.51-4.65-4.88-4.2,1-2,4.42-5.28,5.25l-3.62-.23c-2-.12-3,7.34-.46,7.5l3.62.22c3.16,1.16-.35,5.77,4.54,6.81a4.52,4.52,0,0,0,5.21-4.22A8.41,8.41,0,0,0,75.8,26.5Z" fill="#dcca9f"/><path d="M78.39,21.43c.14-2.18-1.49-4.76-3.68-4.95l.23.15a5,5,0,0,1,2.23,3.25c.13,1.77-.78,2.56-2.14,3.52-.48.33-1.2.75-1.39,1.34a1.75,1.75,0,0,0,.43,2A5.17,5.17,0,0,1,75.14,29c.16,1,.2,3.18-1.06,3.67s-2.58-1-3-2.13c-.74-1.86-.66-3.95-1.11-5.89a6.42,6.42,0,0,0-.7,1.44,1.26,1.26,0,0,1-.4.65,4.22,4.22,0,0,1-3.09.21c-2.44-.45-2.5-2.37-2.21-4.29-1,2.06-1.09,6.26.84,6.38l3.62.22c3.16,1.16-.35,5.77,4.54,6.81a4.52,4.52,0,0,0,5.21-4.22,8.41,8.41,0,0,0-2-5.38A8.25,8.25,0,0,0,78.39,21.43Z" fill="#edebdd" style="mix-blend-mode:multiply"/><path d="M72.54,17.79c-1.26,1.2-1.94,6,.81,4.95,1.77-.68,2.9-4.16,1-5.17Z" fill="#ece5b7" opacity="0.5" style="mix-blend-mode:soft-light"/><path d="M71,25.53c-.14,1.42.71,3.23,1.23,4.5.59,1.46,2.31,2.45,2,.06-.16-1.35-1.14-2.49-1.59-3.74-.29-.8.3-1.91-.32-2.52-.42-.41-1.67-2-2.23-1.79-1.8.59-7-1-5.71,2.43s5.67-2.23,6.16.19" fill="#ece5b7" opacity="0.5" style="mix-blend-mode:soft-light"/><path d="M10,12.05c.14,3.8,4.29,7.15,8.18,8.76,3,1.24,6.78,2.84,10.11,2.64,4.1-.25,8.19-.81,12.27-1.27a20.26,20.26,0,0,1,5.16-.06c1.09.18,2.12.55,3.23.67,1.67.18,5.21,1.55,6-.57S53.71,19.11,52.17,18c-3.28-2.43-5.38-5.11-7.89-7.35A74.6,74.6,0,0,0,34.61,3C30.11.16,25.2-.31,19.71,1.41c-2.18.68-5.37,1.9-6.81,3.66S9.82,8.25,10,12.05Z" fill="#cfac96" opacity="0.3" style="mix-blend-mode:soft-light"/><path d="M23.73,2.34a.3.3,0,0,0,0,.6A.3.3,0,0,0,23.73,2.34Z" fill="#ead6d5" style="mix-blend-mode:multiply"/><path d="M26.61,2.72a.31.31,0,0,0,0,.62A.31.31,0,0,0,26.61,2.72Z" fill="#ead6d5" style="mix-blend-mode:multiply"/><path d="M25.79,5.6a.39.39,0,0,0-.05.78A.39.39,0,0,0,25.79,5.6Z" fill="#ead6d5" style="mix-blend-mode:multiply"/><path d="M25.05,3.61A.19.19,0,0,0,25,4,.19.19,0,0,0,25.05,3.61Z" fill="#ead6d5" style="mix-blend-mode:multiply"/><path d="M22,5.92a.27.27,0,0,0,0,.54A.27.27,0,0,0,22,5.92Z" fill="#ead6d5" style="mix-blend-mode:multiply"/><path d="M18.88,2.49a.29.29,0,0,0,0,.57A.29.29,0,0,0,18.88,2.49Z" fill="#ead6d5" style="mix-blend-mode:multiply"/><path d="M19.67,8.83a.12.12,0,0,0,0,.24A.12.12,0,0,0,19.67,8.83Z" fill="#ead6d5" style="mix-blend-mode:multiply"/><path d="M25.11,9.71a.33.33,0,0,0,0,.66A.33.33,0,0,0,25.11,9.71Z" fill="#ead6d5" style="mix-blend-mode:multiply"/><path d="M29,8.38a.39.39,0,0,0-.05.77A.39.39,0,0,0,29,8.38Z" fill="#ead6d5" style="mix-blend-mode:multiply"/><path d="M30.05,4.49a.37.37,0,0,0,0,.74A.37.37,0,0,0,30.05,4.49Z" fill="#ead6d5" style="mix-blend-mode:multiply"/><path d="M33.4,7.77a.41.41,0,0,0,0,.82A.41.41,0,0,0,33.4,7.77Z" fill="#ead6d5" style="mix-blend-mode:multiply"/><path d="M34.34,13.51a.43.43,0,0,0-.05.86A.43.43,0,0,0,34.34,13.51Z" fill="#ead6d5" style="mix-blend-mode:multiply"/><path d="M30.1,14.26a.39.39,0,0,0-.05.77A.39.39,0,0,0,30.1,14.26Z" fill="#ead6d5" style="mix-blend-mode:multiply"/><path d="M27.88,12.75a.16.16,0,0,0-.15-.1.27.27,0,0,0-.4.21c0,.19.21.38.39.27S28,12.92,27.88,12.75Z" fill="#ead6d5" style="mix-blend-mode:multiply"/><path d="M30.73,11a.13.13,0,0,0,0,.26A.13.13,0,0,0,30.73,11Z" fill="#ead6d5" style="mix-blend-mode:multiply"/><path d="M36.42,11.05a.44.44,0,0,0-.05.87A.44.44,0,0,0,36.42,11.05Z" fill="#ead6d5" style="mix-blend-mode:multiply"/><path d="M41.41,12.25a.19.19,0,0,0,0,.38A.19.19,0,0,0,41.41,12.25Z" fill="#ead6d5" style="mix-blend-mode:multiply"/></g></g></g></svg>