<svg xmlns="http://www.w3.org/2000/svg" viewBox="0 0 1579.15 1117.93"><g id="Layer_2" data-name="Layer 2"><g id="Layer_1-2" data-name="Layer 1"><path d="M1242.34,475.38h3.19c8.42-9.58,17.12-19.15,25.83-29.61a93.66,93.66,0,0,1,45-29.6,91.75,91.75,0,0,1,29.62-4.65h136.14a92.08,92.08,0,0,1,75.19,145.13l-7,9.58a30.72,30.72,0,0,1,2.9,3.48l1.16,1.17,1.16,1.45a30.85,30.85,0,0,1,2.91,3.48c.58.29.87.87,1.15,1.16a91.35,91.35,0,0,1,15.1,84.47,90.33,90.33,0,0,1-67.35,62.11,89.07,89.07,0,0,1-24.67,2.32h-142a91,91,0,0,1-48.19-13.64,97.63,97.63,0,0,1-15.68-11.32c-12.19-11.32-23.8-22.64-34.25-34.83-.59,60.95-6.1,126-1.17,187.5a140.73,140.73,0,0,1,36,38c33.1,50.21,30.78,117.84-20.32,156.16-51.67,38.6-117,20.89-156.18-25.26-3.77-4.35-7.26-9.29-10.75-14.22-10.44,0-21.19.29-31.64.29h-4.64a38.1,38.1,0,0,1,0,8.13v2.9l-.29,2.61c-2.61,30.19-16.84,57.18-41.52,75.18a105.47,105.47,0,0,1-62.7,20c-5.52,0-11.32-.3-16.84-.59h-1.45a202.62,202.62,0,0,1-35.13.59q-8.7-.45-17.42-1.75l-9.28-.87a93.68,93.68,0,0,1-34-9.58,97.49,97.49,0,0,1-46.74,10.16h-2a122.27,122.27,0,0,1-28.74-5.22,88.61,88.61,0,0,1-29.61-14.81,95.12,95.12,0,0,1-41.51,18,113.57,113.57,0,0,1-68.52-9.29,93.16,93.16,0,0,1-47.61-49.92,103.73,103.73,0,0,1-7-42.09V1008a76.08,76.08,0,0,1-11.62.58c-10.45,0-20.9-.29-31.06-.29a150.5,150.5,0,0,1-19.74,23.51c-39.77,39.19-99.86,49-146,14.8-53.42-39.47-56-113.2-16.26-163.41a166.16,166.16,0,0,1,29-28.16c3.78-52.24,1.45-105.65.58-158.19A93.84,93.84,0,0,1,256.17,725c-56.89-25.54-115.24-45.86-170.11-75.47a93,93,0,0,1-44.71-54.86c-15.09-47.31,9.87-99.55,58.93-115.81,56.9-18.86,117-32.79,172.15-56.31a92.37,92.37,0,0,1,82.74,5.23,110.8,110.8,0,0,1,13.93,8.71c1.45-46.44,3.49-94.63,0-140.49a151.15,151.15,0,0,1-36.29-38c-33.09-50.22-30.48-117.84,20.62-156.16C400.16,66.7,458.22,78,498,114.89a88.38,88.38,0,0,1,7-17.13c12.49-23.51,34.26-40.06,59.81-47l2-.58,2-.29a110,110,0,0,1,62.71,5.22l2.32.87,2.32,1.16c.59.29,1.45.58,2,.87,3.2-1.45,6.39-2.32,9.58-3.48a157.57,157.57,0,0,1,33.1-5.22A97.47,97.47,0,0,1,732,61.77a94.45,94.45,0,0,1,40.93-11,22.75,22.75,0,0,0,4.06-.58l.87-.29H779a120.56,120.56,0,0,1,78.38,12.77l3.49,1.74a107,107,0,0,1,22.06-9.29,109.71,109.71,0,0,1,66.19,1.16,101.73,101.73,0,0,1,16-4.93H966l.87-.29a115.71,115.71,0,0,1,47.9.58h.87l.87.29c35.71,8.71,62.41,36.28,70.54,72a91.17,91.17,0,0,1,2.62,17.42h0a167.31,167.31,0,0,1,19.74-23.8c39.77-38.9,99.86-48.77,146-14.52,53.42,39.48,56,113.2,16.25,163.42a167.29,167.29,0,0,1-29.31,28.15c-4.07,59.79-.58,120.75,0,180.83Z" fill="#c56b9f" fill-rule="evenodd"/><path d="M1205.36,427.85h3.2c8.42-9.58,17.12-19.16,25.83-29.61a93.75,93.75,0,0,1,45-29.61A91.72,91.72,0,0,1,1309,364h136.15a92.08,92.08,0,0,1,75.19,145.13q-3.48,4.78-7,9.58a29.82,29.82,0,0,1,2.91,3.48l1.16,1.16,1.16,1.45a32.93,32.93,0,0,1,2.91,3.48c.58.29.86.87,1.15,1.17a91.33,91.33,0,0,1,15.1,84.46,92.66,92.66,0,0,1-92,64.44h-142a91,91,0,0,1-48.19-13.65,96.58,96.58,0,0,1-15.68-11.32c-12.19-11.31-23.8-22.64-34.26-34.82-.58,61-6.09,126-1.16,187.5a140.84,140.84,0,0,1,36,38c33.1,50.22,30.77,117.84-20.32,156.16-51.67,38.6-117,20.9-156.18-25.25-3.78-4.35-7.26-9.29-10.75-14.23-10.44,0-21.19.29-31.64.29H1017a36.83,36.83,0,0,1,0,8.13v2.9l-.28,2.62c-2.61,30.19-16.84,57.17-41.52,75.17a105.42,105.42,0,0,1-62.7,20c-5.52,0-11.33-.29-16.84-.58h-1.45a202.63,202.63,0,0,1-35.13.58q-8.7-.44-17.42-1.74l-9.29-.87a93.69,93.69,0,0,1-34-9.58,97.61,97.61,0,0,1-46.74,10.16h-2a121.78,121.78,0,0,1-28.74-5.23,88.74,88.74,0,0,1-29.62-14.8,95,95,0,0,1-41.51,18,113.61,113.61,0,0,1-68.51-9.28,93.15,93.15,0,0,1-47.61-49.93,103.52,103.52,0,0,1-7-42.08v-4.07A76.08,76.08,0,0,1,515,961c-10.45,0-20.9-.29-31.06-.29a150.5,150.5,0,0,1-19.74,23.51c-39.77,39.19-99.86,49.06-146,14.81-53.42-39.48-56-113.2-16.26-163.41a165.8,165.8,0,0,1,29-28.16c3.77-52.25,1.45-105.65.58-158.19A93.88,93.88,0,0,1,219.2,677.47C162.3,651.92,104,631.6,49.09,602A93.1,93.1,0,0,1,4.38,547.14c-15.1-47.31,9.87-99.56,58.93-115.81,56.9-18.87,117-32.8,172.15-56.31a92.37,92.37,0,0,1,82.74,5.22A113.91,113.91,0,0,1,332.13,389c1.45-46.44,3.48-94.62,0-140.48a151.19,151.19,0,0,1-36.29-38C262.75,160.23,265.36,92.6,316.46,54.29,363.19,19.17,421.25,30.49,461,67.35a88.63,88.63,0,0,1,7-17.13c12.49-23.51,34.26-40,59.8-47l2-.58,2-.29a110.11,110.11,0,0,1,62.71,5.23l2.32.87,2.32,1.16c.58.29,1.45.58,2,.87,3.2-1.45,6.39-2.32,9.58-3.48a156.94,156.94,0,0,1,33.1-5.23A97.5,97.5,0,0,1,695,14.23a94.8,94.8,0,0,1,40.93-11A22.08,22.08,0,0,0,740,2.62l.87-.29H742A120.56,120.56,0,0,1,820.42,15.1l3.48,1.75A106.75,106.75,0,0,1,846,7.56a109.56,109.56,0,0,1,66.19,1.16,99.55,99.55,0,0,1,16-4.93H929l.87-.3a115.93,115.93,0,0,1,47.91.58h.87l.87.29c35.7,8.71,62.41,36.29,70.54,72a91.07,91.07,0,0,1,2.62,17.41h0A168.43,168.43,0,0,1,1072.41,70c39.76-38.89,99.86-48.76,146-14.51,53.41,39.47,56,113.2,16.25,163.41A167.77,167.77,0,0,1,1205.36,247c-4.06,59.79-.58,120.74,0,180.83Z" fill="#fff" fill-rule="evenodd"/><path d="M1264.87,528.27h35.42c7.55,9.88,16.55,18.29,24.68,27.58,6.1,7,11.61,14.51,17.12,22.06h-35.7c-15.68-14.22-32.52-30.19-41.52-49.64Zm45-63.85h25.26c-9,16.54-17.42,33.67-30.77,47H1270.1c11.61-17.13,26.71-31.35,39.77-47ZM1410,575c-13.65-14.51-24.68-30.76-36-46.73h28.74c9,16.55,18.29,34.25,29.61,49.64h-20.61A6.12,6.12,0,0,0,1410,575Zm18.87-110.58c-10.46,15.09-20.33,30.47-28.16,47h-25.26c9-15.09,17.71-31.06,24.39-47Zm-74.32,0h27c-3.78,7.25-8.13,14.51-12.19,21.77-4.65,8.42-8.72,17.12-13.94,25.25h-29c11-14.51,18.58-31.35,27.87-46.73a.28.28,0,0,1,.29-.29ZM1363,577.91c-8.13-10.16-15.39-20.9-23.52-30.77-5.51-6.67-11.61-12.48-17.41-18.87h31.64c.29.29.29.59.58.87,11.61,16.55,22.93,33.38,36,48.77Zm94.93,10.74a7.41,7.41,0,0,0-1.45-7.84l-.3-.29v-.29c-16.83-17.41-28.16-40.93-40.06-62.11,10.17-20.61,22.94-39.48,36.29-57.76,2.62-3.78,1.74-7.26-.87-9.58-1.16-2-3.48-3.2-6.39-3.2H1309a7.44,7.44,0,0,0-4.64,1.45c-2-.29-3.78.59-5.52,2.62-16.55,19.74-35.71,37.44-48.48,59.79H262.17c6.38-15.38,11.9-31.35,20.9-45.57,3.19-5.51-.58-10.74-5.22-12.19-2.62-2-6.1-3.19-9.59-1.74-57.48,24.38-119.6,39.18-178.53,58.63-5.81,2-7,7.83-4.94,12.19a7.4,7.4,0,0,0,4.07,5.51c52.83,28.45,110,48.19,164.6,72.86a11.39,11.39,0,0,0,4.07.87c4.64,0,9-3.19,8.7-8.13a6.06,6.06,0,0,0-1.16-4.93c-5.81-19.45-7.26-40.35-7.84-60.67h989.65v.59c9.87,25,29.9,44.69,49.35,62.4a6.85,6.85,0,0,0,2.61,1.74,8.38,8.38,0,0,0,4.94,1.74h144.85a10.91,10.91,0,0,0,3.2-.29,7.1,7.1,0,0,0,6.1-5.8Z" fill="#6fbf97"/><path d="M850.61,369.8c-24.09-3.78-52,16.25-70.83,61.53-4.07-48.76-22.64-76.05-43.84-79.24-140.5-21.77-82.15,278.94,7.84,312.32C839.58,659.76,988.51,391,850.61,369.8Z" fill="#ea4b85"/><path d="M647.11,85.35c3.77,0,6.68.87,8.71,3.19,1.74,2.32,2.32,5.22,1.74,9a76.21,76.21,0,0,1-8.13,20.32,101.26,101.26,0,0,0-10.74,21.76,74.18,74.18,0,0,1-8.42,16.55,41.16,41.16,0,0,0-5.8,11.9,68.81,68.81,0,0,1-4.36,10.74A32.15,32.15,0,0,0,617.79,189v.87c-.29,3.48-.58,7.25-.58,10.74-.29,7.54-.87,14.8-1.74,22.06v.87a29.88,29.88,0,0,0,0,10.16,46.85,46.85,0,0,1,.29,18c0,1.45-.29,3.19-.29,4.94v16.54a21.82,21.82,0,0,1-.58,6.1c-1.45,5.22-4.65,8.41-10.16,8.7a5.53,5.53,0,0,1-2,.3h-.87a18,18,0,0,1-9.57-2.33,8.1,8.1,0,0,1-4.65-4.65,17.67,17.67,0,0,1-1.16-2.31,4,4,0,0,1-.58-1.75,18.93,18.93,0,0,1-1.16-15.38,22.43,22.43,0,0,0,.57-11.61,79.14,79.14,0,0,1-1.74-20.32c0-.87.29-1.45.29-2.32a51.83,51.83,0,0,0,.3-6.67,13.7,13.7,0,0,0-.3-3.49c0-1.16-.29-2-.29-3.19,0-4.06,0-8.13.29-12.19a19.94,19.94,0,0,0-1.16-9.29,78.53,78.53,0,0,1-2.32-11.9,63.78,63.78,0,0,0-2-7,124,124,0,0,0-6.68-12.19,93,93,0,0,1-4.93-9.29,43.26,43.26,0,0,0-4.94-9.57,23.28,23.28,0,0,1-4.06-9A45.81,45.81,0,0,0,550.44,117a116.31,116.31,0,0,1-9-18,10.4,10.4,0,0,1,.29-9.29,11.67,11.67,0,0,1,7.55-5.52,25.84,25.84,0,0,1,14.8,1.17,18.55,18.55,0,0,1,7.26,6.09c0,.29.29.29.29.58a20.66,20.66,0,0,1,2.9,4.07c1.46,2.9,2.91,5.51,4.36,8.41a135.21,135.21,0,0,1,7,14.51l3.48,7a59,59,0,0,1,4.93,8.42,10.66,10.66,0,0,0,2,2.9,5.35,5.35,0,0,0,3.48,1.45,6.15,6.15,0,0,0,3.2-1.16c.57-.58.87-.87,1.45-1.45a26.75,26.75,0,0,1,1.45-2.32A61.58,61.58,0,0,0,614.31,119a44.74,44.74,0,0,1,1.45-4.93,21.73,21.73,0,0,0,1.45-4.64,82.22,82.22,0,0,1,8.13-16,14.41,14.41,0,0,1,8.41-5.8,53.38,53.38,0,0,1,13.36-2.32Z" fill="#241b2e"/><path d="M776.29,205.22a52.94,52.94,0,0,1,.88-16.54,21.38,21.38,0,0,0,.28-11.33,40.14,40.14,0,0,1-.57-11.89c.29-3.2.57-7,.57-11.33,0-2.31-.28-4.93-.28-7.83-.29-3.48-.29-7-.29-10.74a15.89,15.89,0,0,0-2.91-9.29c-5.22-7.84-12.48-10.74-21.48-9.58a9.42,9.42,0,0,0-7,3.78,35.5,35.5,0,0,0-8.7,16.25,27.73,27.73,0,0,0,0,9.87v.29a54.59,54.59,0,0,1,0,16.83,41.56,41.56,0,0,0,.28,10.45,42.37,42.37,0,0,1-.28,16,31.49,31.49,0,0,0-1.17,11.61Q737,217,737.4,232.21c0,2.62.29,5.23.29,7.84a16.09,16.09,0,0,0,4.06,8.71,27.6,27.6,0,0,0,13.64,7.54c5.23.87,9.58,0,13.65-3.48a19.72,19.72,0,0,0,7.25-12.77,66,66,0,0,0,.59-7.54c0-1.46.29-3.19.29-4.65a1.79,1.79,0,0,0,.28-1.16,25.86,25.86,0,0,0,.3-6.67,26.36,26.36,0,0,0-.58-4.94c-.29-3.19-.59-6.39-.88-9.87Zm34-75.17c0,1.44.29,2.9.29,4.35a34.8,34.8,0,0,1,.87,11,43.68,43.68,0,0,1-.29,8.7c0,1.46-.29,2.91-.29,4.36,0,.29-.29.87-.29,1.16V162a117.1,117.1,0,0,1-.87,14.22,78.88,78.88,0,0,0,.29,16.54,5.66,5.66,0,0,0,.29,2,141.56,141.56,0,0,1-.29,29.32,101.53,101.53,0,0,0-.58,16.25c0,3.2-.29,6.68-.58,9.87A44.13,44.13,0,0,1,792,277.78a51,51,0,0,1-26.13,10.16,11.93,11.93,0,0,1-3.19.58,69.65,69.65,0,0,1-7.84.88,16.53,16.53,0,0,1-6.38-1.16c-2.33-.59-4.36-1.46-6.39-2A119,119,0,0,1,727.81,281a32,32,0,0,1-13.06-9,41.41,41.41,0,0,1-7.26-12.48,100.82,100.82,0,0,1-3.77-13.35,41.09,41.09,0,0,1-.29-13.35,50.21,50.21,0,0,0,0-17.42,23.58,23.58,0,0,1,0-6.39V205.8c0-4.06,0-8.42.29-12.48.29-3.19.58-6.38.58-9.58a43.26,43.26,0,0,1,.58-6.09,21.25,21.25,0,0,0,0-10.45,48.41,48.41,0,0,1-.58-14.51,30.92,30.92,0,0,0,.29-9,57.19,57.19,0,0,1,0-12.2,67.2,67.2,0,0,1,4.35-18.28A41.45,41.45,0,0,1,721.72,97c.87-.59,2-1.17,2.9-1.75,2.61-2,5.23-3.77,7.55-5.8a10.22,10.22,0,0,1,6.67-2.61,129,129,0,0,0,17.71-2,35.06,35.06,0,0,1,24.1,4.07c1.74.87,3.48,1.74,5.52,2.9s4.35,2.32,6.38,3.48a19.45,19.45,0,0,1,8.42,9c2,4.36,3.78,8.42,5.52,12.78a73.59,73.59,0,0,1,3.77,13.06Z" fill="#241b2e"/><path d="M961.8,265c-.87,1.15-1.46,2-2,2.89a31.11,31.11,0,0,1-4.65,5.81,20.16,20.16,0,0,1-6.39,4.65,45.59,45.59,0,0,0-8.41,4.35,48.06,48.06,0,0,1-20,6.39,7.39,7.39,0,0,1-4.35-.3,15.05,15.05,0,0,1-3.48-.57,123.65,123.65,0,0,1-19.74-4.94h-.58a48.58,48.58,0,0,1-13.65-6.39,24.68,24.68,0,0,1-7.25-7.25,53.84,53.84,0,0,1-8.72-25.54,91.25,91.25,0,0,1,.59-17.71,14.12,14.12,0,0,1,.29-3.48,65.63,65.63,0,0,0-.29-7.55,9.55,9.55,0,0,0-.3-2.9v-1.74c0-1.45-.29-2.62-.29-4.07a47,47,0,0,0,.29-6.38c0-3.78,0-7.26.3-10.74a157.36,157.36,0,0,0-.3-20.32c0-1.45-.29-3.19-.29-4.93a14.5,14.5,0,0,0-.87-4.94v-.58a24.78,24.78,0,0,1,0-12.19A22.78,22.78,0,0,0,862.8,139c0-3.77-.29-7.83-.29-11.61v-11.9c0-3.48,0-7,.29-10.45.3-2.9.3-6.09.3-9.29,0-4.06,2-6.67,6.09-7.83a26.63,26.63,0,0,1,17.13.29c3.19,1.16,5.52,3.19,6.39,6.67a23.93,23.93,0,0,1,.58,7.84,65.27,65.27,0,0,0,.58,15.1c0,.87.29,1.74.29,2.61a33,33,0,0,1,.87,10.74c-.29,5.8-.58,11.61-.29,17.41v11a163.1,163.1,0,0,0,.58,20.61,19.29,19.29,0,0,0,.29,4.07,61.36,61.36,0,0,1-1.16,14.8,33.29,33.29,0,0,0,0,10.73,86.07,86.07,0,0,1,.87,24.39c-.58,4.93.58,9,3.77,12.19a17.55,17.55,0,0,1,2.32,2.61,12.63,12.63,0,0,0,1.75,2c4.64,4.94,9.87,6.09,16,4.07a30.69,30.69,0,0,0,9-4.94,12.38,12.38,0,0,0,4.36-5.8,29.64,29.64,0,0,0,1.74-7.26c.58-6.39,1.16-12.48,1.16-18.58v-.87a53.13,53.13,0,0,1,.87-13.64,72.84,72.84,0,0,0,.87-16c-.29-6.38-.87-12.77-1.45-19.15-.29-2.61-.58-5.23-.87-8.13a11.9,11.9,0,0,1,.29-3.19c0-.87.29-1.45.29-2.32q0-10.45.87-20.9v-2.32a70.38,70.38,0,0,1-.58-11,60.21,60.21,0,0,0-1.16-16,19.15,19.15,0,0,1,0-8.12c1.45-6.1,5.23-10.16,11.32-11.33a37.55,37.55,0,0,1,13.94,0c4.64,1.17,7.55,4.36,8.7,9a28.41,28.41,0,0,1,.3,11,74.55,74.55,0,0,0-.88,11.33v18.86c0,3.77,0,7.84.3,11.9a66.32,66.32,0,0,1-.3,13.06,43.81,43.81,0,0,0,.88,15.1,37.5,37.5,0,0,1,0,13.93c-.58,4.64-1.17,9-1.45,13.35a21.23,21.23,0,0,0-.3,4.35,17.14,17.14,0,0,0,.3,5.51,3.86,3.86,0,0,1,.28,1.75,40.21,40.21,0,0,1,0,11.9,70.78,70.78,0,0,0,0,15.67A29.88,29.88,0,0,1,961.8,265Z" fill="#241b2e"/><path d="M768.46,784.86c0,.87.29,1.74.29,2.61a10,10,0,0,1,.29,2.62,24.83,24.83,0,0,1,0,11.31,42.34,42.34,0,0,0-.58,16,51.42,51.42,0,0,1,0,13.35v.58a112.64,112.64,0,0,0-.3,22.06v4.07a118.67,118.67,0,0,1-.57,27,72.11,72.11,0,0,0,.57,27.29,62.08,62.08,0,0,1,.3,19.45,33,33,0,0,0,0,13.06,72.29,72.29,0,0,1,0,17.7v1.17a24.78,24.78,0,0,0-.58,4.93,22.38,22.38,0,0,0-.58,4.36,9,9,0,0,1-.87,3.77c-2.33,5.51-6.1,8.12-12.2,8.12a51.61,51.61,0,0,1-9.29-1.74,11.68,11.68,0,0,1-8.42-8.7,21.79,21.79,0,0,1-.87-5.81,127.8,127.8,0,0,1-1.16-23.51v-2.61a132.45,132.45,0,0,1,.29-18.58,82.75,82.75,0,0,0-.58-18.87,34.84,34.84,0,0,1,.87-11,53,53,0,0,0,.58-9.57A7.32,7.32,0,0,0,733,878c-2-1.45-3.77-1.16-5.52.29a32.8,32.8,0,0,0-1.74,3.2c-1.45,3.77-3.19,7.54-4.93,11.31-2.91,6.39-5.52,12.78-7.84,19.45a58.39,58.39,0,0,1-3.19,7.55,27.89,27.89,0,0,1-7,8.42,4.46,4.46,0,0,1-1.74,1.15,24.07,24.07,0,0,1-17.42,1.75c-3.2-.87-5.52-3.2-7.26-6.09a57.22,57.22,0,0,1-6.09-12.78A56.5,56.5,0,0,1,668,905.9c-2.61-6.68-4.93-13.65-7.54-20.32a24.42,24.42,0,0,0-6.39-10.45,5.13,5.13,0,0,0-5.52-1.74,5.31,5.31,0,0,0-3.77,5.22,56.07,56.07,0,0,0,0,9.87,1.07,1.07,0,0,1,.29.87v2.9c0,7.84.29,15.39.87,22.93,0,3.48.29,7,.29,10.46a101.41,101.41,0,0,1-.29,16.25v5.51a61.05,61.05,0,0,1-.58,7.26,1,1,0,0,1-.29.58v1.16a31,31,0,0,0-.29,13.64,11.65,11.65,0,0,1-1.74,9,13.43,13.43,0,0,1-7.55,4.35,30.19,30.19,0,0,1-18.87-2.61,9.22,9.22,0,0,1-5.23-5.22,16,16,0,0,1-1.16-7.55,219.14,219.14,0,0,0-.58-23.8v-.87a47.23,47.23,0,0,1,.58-14.22,56.64,56.64,0,0,0,.58-7c0-3.77,0-7.84.29-11.9a19.58,19.58,0,0,0,.58-4.07,60,60,0,0,0-.87-10.15c0-.58-.29-1.16-.29-1.74a134.11,134.11,0,0,1-1.74-21.48,59.43,59.43,0,0,0,0-10.16c0-3.78.29-7.84.29-11.61v-1.46a110,110,0,0,1,1.45-16.83,42.83,42.83,0,0,0,.29-6.09v-.59c.29-2.32.29-4.64.58-7a84.2,84.2,0,0,0,.29-17.13c-.58-6.38-.58-12.76-.58-19.44v-6.39a39.63,39.63,0,0,1,.58-5.51c1.17-4.07,3.49-6.68,7.55-7.84a17.06,17.06,0,0,1,3.77-.58h.58a94.52,94.52,0,0,1,15.68.58q9.59.87,13.07,9.58l1.74,5.23,1.74,4.35a121,121,0,0,0,5.8,12.19c1.46,3.19,2.62,6.38,3.78,9.58,2,7.83,4.35,15.38,6.68,23.22a36.81,36.81,0,0,0,4.64,9.58,25.13,25.13,0,0,1,3.77,10.73,35.12,35.12,0,0,0,1.17,5.81,8.65,8.65,0,0,0,7,7,9,9,0,0,0,5.23-1.46,9.16,9.16,0,0,0,4.06-4.06,15.46,15.46,0,0,0,1.75-4.64,179.52,179.52,0,0,1,10.44-29.61,72,72,0,0,0,5.81-17.42,34.45,34.45,0,0,1,5.23-13.06,116.22,116.22,0,0,0,9.29-16.54,33.27,33.27,0,0,1,4.35-6.68,13.33,13.33,0,0,1,9-4.35,78.3,78.3,0,0,1,14.23.29c6.09,1.16,9.29,4.94,9.87,11.32v4.06a28.28,28.28,0,0,0,.58,7Z" fill="#241b2e"/><path d="M923.48,953.5c6.68,1.74,10.16,6.39,9.87,13.64q-.87,10.46-7,14.8A23.53,23.53,0,0,1,913,986.3c-3.78,0-7.26-.3-11-.58a113.81,113.81,0,0,0-17.12.28,90.31,90.31,0,0,1-19.75.3c-4.64-.3-9-.58-13.64-1.16-3.77-.29-7.55-.88-11.61-1.16-6.09-.59-9.58-4.07-10.16-10.75v-.58c0-2-.29-4.35-.29-6.38A67.23,67.23,0,0,0,828,952.92a31.46,31.46,0,0,1,.29-12.77,35.8,35.8,0,0,0-.58-13.64,36.73,36.73,0,0,1,.29-18.58,27.45,27.45,0,0,0,0-11.9,31.39,31.39,0,0,1-.58-9v-11.9a112.08,112.08,0,0,0-.58-13.94A85.93,85.93,0,0,1,828.26,840a22.73,22.73,0,0,1,.58-4.65,84.39,84.39,0,0,0-1.45-31.92,46,46,0,0,1-1.16-11v-3.19a64.81,64.81,0,0,1,.58-13.07A17.29,17.29,0,0,1,831.45,766a14.66,14.66,0,0,1,9.29-4.35c9.29-.87,18.58-1.45,28.16-2.32h6.68a52,52,0,0,1,11.61.58,121.11,121.11,0,0,0,17.71,1.16h10.74c7,0,11.9,3.19,13.94,10.16a28.13,28.13,0,0,1,1.74,9.58,13.4,13.4,0,0,1-3.2,8.12,11,11,0,0,1-6.09,4.36,24.82,24.82,0,0,1-6.39,1.16,183.79,183.79,0,0,0-22.06,1.45,63.25,63.25,0,0,1-7.26.29h-1.45c-3.77,0-7.26.29-11,.58-5.81.58-9.29,3.48-10.74,9a52.79,52.79,0,0,0-.3,15.09,71.3,71.3,0,0,1,0,11.32,34.05,34.05,0,0,0-.29,9.29c.59,4.36,2,7.55,4.94,9.87a18.49,18.49,0,0,0,10.16,4.06,49.31,49.31,0,0,0,11.32-.29A57,57,0,0,1,911,857.71a11.83,11.83,0,0,1,6.67,5.23,20.64,20.64,0,0,1,2.61,14.22,12.52,12.52,0,0,1-8.7,10.45,17,17,0,0,1-7.55,1.74,116.56,116.56,0,0,1-14.23-.29,61.09,61.09,0,0,0-16.25.58Q864,891.4,863.1,901q-.89,8.71-1.74,17.42v3.77a67.85,67.85,0,0,1,.57,10.74v3.19c0,1.45.3,2.61.3,4.07a9.25,9.25,0,0,0,7.25,8.71,33.12,33.12,0,0,0,15.1,1.44,91.21,91.21,0,0,1,23.51.59c2.62.58,5.23.87,7.84,1.45a17,17,0,0,1,4.06.58,14.55,14.55,0,0,1,3.49.58Z" fill="#241b2e"/><path d="M744.07,475.45a50.36,50.36,0,0,0,.87,9.29,9.09,9.09,0,0,0,2.62,4.93,22,22,0,0,0,8.7,4.94,12.55,12.55,0,0,0,9.29-1.17,11.65,11.65,0,0,0,5.52-7.54,29.54,29.54,0,0,0,.58-16.26c-1.74-4.64-4.35-7.54-8.42-9s-8.13-.87-12.19,2a16,16,0,0,0-7,12.78Zm30.77,84.75c3.2-1.74,4.07-4.06,2.61-7.25a16,16,0,0,0-1.74-2.33v-.28a144,144,0,0,0-11.61-14.81,11,11,0,0,1-2.61-3.48,79.14,79.14,0,0,0-6.68-7.26c-.29-.29-.58-.29-.87-.58a10.42,10.42,0,0,0-2.9-2c-3.2-.87-5.23,0-6.39,3.19a4.12,4.12,0,0,0-.58,1.75,92.8,92.8,0,0,0-1.74,13.35v.87c0,.87.29,2,.29,3.19l.87,2.61a1.07,1.07,0,0,0,.29.87c1.74,5.81,5.52,9.58,11.32,11.61a40.06,40.06,0,0,0,11.33,2.61,17.16,17.16,0,0,0,8.41-2Zm38-27.86c3.2.87,5.52,2.32,7,4.64a10.39,10.39,0,0,1,1.16,7.84c-.58,1.45-.87,2.61-1.45,3.77a49.82,49.82,0,0,0-2.91,5.23c-.28.58-.57.87-.57,1.16a25.11,25.11,0,0,0-2,4.93,8.79,8.79,0,0,0,1.16,7.55c.3.29.58.87.88,1.16.57.87,1.16,1.45,1.45,2a5.75,5.75,0,0,1,.87,5.22c-.87,2.62-2.32,4.07-4.94,4.36a11.9,11.9,0,0,1-3.19.29,2.17,2.17,0,0,0-1.45.29,23.28,23.28,0,0,1-8.71-1.74,12.79,12.79,0,0,0-4.65-1.74,10.6,10.6,0,0,0-8.42.29,52.22,52.22,0,0,1-25,3.19c-.58,0-1.16-.29-2-.29-3.2-.29-6.39-.58-9.58-1.16a23,23,0,0,1-8.42-3.19l-1.74-.87c-1.75-1.17-3.48-2-5.23-3.19a21.29,21.29,0,0,1-5.51-5.81,51.2,51.2,0,0,1-8.42-25,30.45,30.45,0,0,1,.29-7.26,11.9,11.9,0,0,1,.29-3.19,6.44,6.44,0,0,1,.29-2.33v-3.77a37.34,37.34,0,0,1,2.9-12.77,7.57,7.57,0,0,0,1.17-2,9.92,9.92,0,0,1,1.15-2.61c1.74-4.36,2-8.42.29-12.77a51.16,51.16,0,0,1-3.19-9.29,25.7,25.7,0,0,1-.58-8.13c.29-2.32.58-4.65.87-7.26a25.54,25.54,0,0,0,.58-4.93,24.87,24.87,0,0,1,9.58-16A31.72,31.72,0,0,1,749,442.65c2.9-.29,5.8-.87,8.7-1.16a20.27,20.27,0,0,1,9.3.58c3.48.87,7,2,10.44,3.19a23.05,23.05,0,0,1,10.75,9.58,37.26,37.26,0,0,1,2.32,4.94,93.62,93.62,0,0,1,4.36,17.7,10.06,10.06,0,0,1,0,2.9,62,62,0,0,1-4.07,16,27.43,27.43,0,0,1-10.16,12.19,1,1,0,0,1-.58.29c-1.16.87-2,1.74-3.19,2.61a5.7,5.7,0,0,0-1.17,7.26,10.25,10.25,0,0,0,3.2,4.64c3.77,4.65,7.54,9,11,13.64a16.09,16.09,0,0,0,1.74,2.32c3.2,2.33,6.1,2.33,9,0a13.75,13.75,0,0,0,2.9-2.9,4,4,0,0,0,.87-1.16c2.33-2.61,5.23-3.77,8.42-2.9Z" fill="#241b2e"/><path d="M931,572.39c-15.68,0-15.39-23.8.29-23.8,37.45.29,71.41,15.68,98.12,42.09,11,11-5.51,27.87-16.55,16.83-22.35-22-50.22-34.83-81.86-35.12ZM626.79,566c15.39-.29,15.68,23.51,0,23.51-27,.29-52.26,8.42-76.06,20.32-13.94,6.67-24.68-14.23-10.74-21.19C567.27,575,596,566,626.79,566Zm-23.52-98.4c15.39,2.61,10.74,25.83-4.35,23.22-29-4.93-55.45-18.87-78.38-36.86-12.2-9.58,3.19-27.87,15.09-18.28,19.75,15.67,42.68,27.57,67.64,31.92Zm342.56,21.77c-13.35,7.84-25.55-12.48-12.19-20.32,20.9-12.48,43.55-22.06,64.44-34.54,13.07-7.83,25.26,12.48,11.91,20.61-20.9,12.48-43.25,21.77-64.16,34.25Z" fill="#241b2e" fill-rule="evenodd"/><path d="M1138.89,155.59c2-3.77,11.89-20.32,18.57-17.13,5.52,2.62-9,19.45-10.45,20.9a39.41,39.41,0,0,1-13.93,9.87,111.74,111.74,0,0,1,5.81-13.64Zm-117.87,43c25,0,54.58,2.9,81.87-.3-3.49,26.42-2.91,53.7-3.49,75.18-1.74,56.6.88,113.2,1.16,169.8,0,13.93,21.48,13.93,21.2,0,0-79.53-5.81-159.64,3.77-238.59.29-3.77.87-7.26,1.45-11,16.26-4.64,31.06-13.06,42.1-27,25.54-32.22-7.26-67.05-38-36.87-11.89,11.9-19.15,27.87-23.8,45.86-8.71.87-17.42,1.17-25.26,1.46-20.32.87-40.64,0-61,0-13.64,0-13.64,21.18,0,21.48Z" fill="#ea4b85"/><path d="M393.68,163.42c-9.59-7.83-22.65-37.44-3.2-18.58,6.68,6.68,10.74,15.39,13.65,24.68a60.62,60.62,0,0,1-10.45-6.1Zm121.63,13.65c-18.28,0-36.58.58-54.87.28-9.58-.28-20.61-.28-31.35-1.44-4.06-16-10.45-30.77-20.61-42.38-9.87-11.9-27.29-23.22-41.8-12.19-14.52,10.74-9.29,30.48-.87,43.25,10.45,15.67,26.12,24.67,43.83,29.6.29,1.45.29,2.9.58,4.06,13.07,80.4,4.65,164,4.35,245,0,13.93,21.49,13.93,21.49,0,.29-54.57,2.61-109.43,1.45-164-.58-23.81,0-52.83-4.07-80.69,28.17,2.9,58.65,0,81.87,0,13.94-.3,13.94-21.48,0-21.48Z" fill="#ea4b85"/><path d="M1146.14,909.38c-6.68-6.39-10.74-15.09-13.64-24.38a61.62,61.62,0,0,1,10.45,6.09c9.29,7.84,22.64,37.44,3.19,18.29Zm24.68-19.45c-10.46-15.67-26.13-24.67-43.84-29.61a22.62,22.62,0,0,1-.58-4.06c-13.06-80.4-4.64-164-4.64-245,.28-13.94-21.2-13.94-21.2,0-.28,54.56-2.61,109.42-1.45,164,.58,23.51,0,52.83,3.78,80.69-27.87-2.9-58.35,0-81.87,0-13.64,0-13.64,21.48,0,21.48,18.58,0,36.87-.58,55.16-.29,9.58.29,20.61.29,31.35,1.45,4.07,16,10.45,30.77,20.32,42.38s27.29,23.22,42.1,12.19c14.51-11,9.29-30.48.87-43.25Z" fill="#ea4b85"/><path d="M397.74,898.93c-2,3.77-11.9,20.32-18.58,17.12-5.52-2.61,9-19.44,10.16-20.9a43.37,43.37,0,0,1,14.23-9.86,113.32,113.32,0,0,1-5.81,13.64Zm117.57-43c-24.67,0-54.28-2.9-81.87.29,3.78-26.41,3.2-54,3.78-75.17,1.74-56.6-.87-113.2-1.16-169.8,0-13.94-21.49-13.94-21.49,0,.3,79.53,6.11,159.35-3.48,238.59-.28,3.77-.87,7.25-1.45,11-16.26,4.64-31.06,12.76-42.09,26.7-25.55,32.51,7.26,67.34,38,37.15,11.9-11.9,19.16-28.15,23.8-45.86,8.42-.87,17.42-1.16,25.26-1.45,20.32-.87,40.64,0,60.67,0,13.94,0,13.94-21.48,0-21.48Z" fill="#ea4b85"/></g></g></svg>