<svg xmlns="http://www.w3.org/2000/svg" viewBox="0 0 1242.84 1224.08"><g id="Layer_2" data-name="Layer 2"><g id="Layer_1-2" data-name="Layer 1"><path d="M317.24,583.62c-6.67,0-13.35.29-20,.29-8.42,0-16.26.58-24.67.58-8.13,0-16.26-.87-24.1-.87-5.22,0-10.45.58-16,.87C192.7,595.23,154.39,582.75,132,545c-23.23-38.61-14.52-79.54,15.38-107.69,2.33-4.93,4.65-9.57,7.55-14.51.3-.59.58-1.16.88-1.74-2-3.78-4.65-7.26-7-10.74-20.61-19.16-32.22-43.83-31.07-69.95L65.55,288.14a80.57,80.57,0,0,1-14.81-17.7A87.5,87.5,0,0,1,114,136.63c1.16,0,2.62-.29,3.77-.29,1.75,0,3.2-.29,4.65-.29a51.31,51.31,0,0,0,9-.88c.87-4.93,1.74-10.15,2.32-15.09,6.68-40.63,40.06-70.24,80.12-72.27a86.19,86.19,0,0,1,67.93,25.25c31.94,32.22,64.16,64.15,96.1,96.36a79.64,79.64,0,0,1,16.84,23.52,83.67,83.67,0,0,1,10.16,49.63c-.59,6.39-.87,12.48-1.17,18.58,4.94.29,10.17.87,15.39.87h1.16c7.84-.87,14.81-1.74,22.94-1.74,8.42,0,16.54.57,24.67.57A130.92,130.92,0,0,1,494,263.47c7,0,14.22-.58,21.19-.58a149.49,149.49,0,0,1,25.55-2.32,140.25,140.25,0,0,1,25,2.32c8.12,0,15.67-1.16,23.8-1.16,8.41,0,16.26.87,24.38.87,9,0,17.71-.87,26.42-.87,9,0,17.71.29,26.42.29h1.16a155.25,155.25,0,0,1,23.23-1.74,116,116,0,0,1,26.7,2.9,183.93,183.93,0,0,1,22.06-1.45c7.84,0,15.39.58,23.23.87A124.46,124.46,0,0,1,788.7,260a168,168,0,0,1,24.38,2h.58a160.13,160.13,0,0,1,23.81-1.74,119.22,119.22,0,0,1,27.28,2.9l11.33-.87c-.29-6.39-.58-13.06-1.46-19.74a87,87,0,0,1,10.46-49.93,83.52,83.52,0,0,1,16.83-23.22c31.94-32.21,64.16-64.14,96.1-96.36a86.18,86.18,0,0,1,67.92-25.25,85.08,85.08,0,0,1,79.84,72.27c.87,4.94,1.74,10.16,2.61,15.09a51.4,51.4,0,0,0,9,.88c1.74,0,3.48.29,5.22.29,1.17,0,2.33.29,3.49.29a87.21,87.21,0,0,1,66.77,47,85.67,85.67,0,0,1-3.48,86.2A78.24,78.24,0,0,1,1214,288.43l-51.67,51.67c2,26.41-9.29,50.79-30.2,71.4-1.74,3.48-3.48,7.25-5.8,11a.28.28,0,0,1-.29.29c2.9,4.64,5.22,9.58,7.84,14.22,29.6,29,36.86,69.67,14.22,107.68-22.65,37.45-61.25,50.22-100.45,38.61-4.93,0-10.15.29-15.09.29-8.42,0-16.26-1.16-24.39-1.16s-16,1.45-24.38,1.45c-8.13,0-16.26.58-24.39.58a68.94,68.94,0,0,1,1.75,15.39A85.86,85.86,0,0,1,997.42,642a87.73,87.73,0,0,1,1.75,63.57c2.9,0,6.09-.29,9-.29,8.13,0,16.26.87,24.39.87h14.8c39.2-11.9,78.68.29,101.32,38.31,24.68,41.51,14.51,80.4-16.55,111.17-1.74,3.48-3.48,7.26-5.8,11a.28.28,0,0,1-.29.29c2.9,4.64,5.22,9.29,7.84,14.22,28.15,27.86,36.28,66.18,16.84,102.75,19.15,38,40.63,74.88,59.51,112.62,21.77,43.25,3.77,95.2-38,117a87.63,87.63,0,0,1-66.77,7c-59.81-18-115.25-44.7-173.61-66.76a88.69,88.69,0,0,1-45-126.84,140,140,0,0,1-25,2.32,149.28,149.28,0,0,1-25.54-2.32,203.88,203.88,0,0,1-23.23,1.45,150,150,0,0,1-25.83-2.32c-7.55,0-15.4.29-22.94.29H739.63a168.18,168.18,0,0,1-24.09,1.74H666.77c-9,0-17.71-1.45-26.42-1.45s-17.42.58-26.42.58c-8.12,0-16-1.16-24.09-1.16a139.43,139.43,0,0,1-24.68,2c-8.13,0-16.26.29-24.38.29s-16.26-.29-24.39-.29-16.26.29-24.38.29-16.26-.58-24.39-.58c-7.84,0-16,1.16-24.38,1.16a172.71,172.71,0,0,1-24.4-1.74h0c-8.12,0-16.25-.58-24.38-.58h-1.74c20,33.38,15.39,77.5-13.35,106.52a86.58,86.58,0,0,1-31.65,20.61c-58.06,22.06-113.51,48.76-173.3,66.76a86.78,86.78,0,0,1-66.49-7c-42.09-21.48-60.38-73.72-38.61-117,18.87-37.74,40.65-74.59,59.81-112.62-19.46-36.86-10.46-75.46,18.28-102.46,2.33-4.93,4.65-9.58,7.55-14.51.3-.58.58-1.17.88-1.74-2-3.78-4.65-7.26-7-10.74-31.65-29-42.1-71.4-18.29-110.88C153.8,705,193,693.62,233.06,705.24h15.38c8.42,0,15.68.87,23.81,1.74h.58c3.19,0,6.67,0,10.16-.29a88.06,88.06,0,0,1,36.57-99.27,88.79,88.79,0,0,1,2-15.67,74,74,0,0,1-4.36-8.13Z" fill="#c56b9f" fill-rule="evenodd"/><path d="M280.27,536.09c-6.68,0-13.35.28-20,.28-8.42,0-16.26.59-24.67.59-8.13,0-16.26-.87-24.1-.87-5.23,0-10.45.57-16,.87-39.78,10.74-78.09-1.74-100.45-39.48C71.83,458.88,80.54,418,110.44,389.8c2.32-4.94,4.65-9.58,7.55-14.52l.87-1.74c-2-3.77-4.64-7.25-7-10.74C91.28,343.64,79.67,319,80.83,292.85q-26.11-26.13-52.25-52.24A80.35,80.35,0,0,1,13.77,222.9,87.51,87.51,0,0,1,77.06,89.09c1.16,0,2.61-.29,3.77-.29,1.75,0,3.19-.29,4.65-.29a52.3,52.3,0,0,0,9-.87c.87-4.93,1.74-10.16,2.32-15.09C103.48,31.91,136.86,2.3,176.92.28a86.13,86.13,0,0,1,67.93,25.25c31.93,32.22,64.16,64.14,96.09,96.36a79.37,79.37,0,0,1,16.84,23.51A83.63,83.63,0,0,1,367.94,195c-.58,6.38-.87,12.48-1.16,18.57,4.94.29,10.16.87,15.39.87h1.16c7.84-.87,14.8-1.74,22.93-1.74,8.42,0,16.55.58,24.68.58a130.19,130.19,0,0,1,26.13,2.62c7,0,14.22-.59,21.19-.59A149.49,149.49,0,0,1,503.81,213a140.13,140.13,0,0,1,25,2.32c8.13,0,15.67-1.16,23.8-1.16,8.42,0,16.26.88,24.39.88,9,0,17.71-.88,26.42-.88,9,0,17.71.29,26.41.29H631a156.56,156.56,0,0,1,23.22-1.74,116,116,0,0,1,26.71,2.9A183.93,183.93,0,0,1,703,214.19c7.84,0,15.39.58,23.23.88a124.43,124.43,0,0,1,25.54-2.62,169.41,169.41,0,0,1,24.39,2h.58a161.38,161.38,0,0,1,23.81-1.74,119.28,119.28,0,0,1,27.28,2.9c3.78-.29,7.55-.57,11.32-.87-.28-6.38-.57-13.06-1.45-19.73a87,87,0,0,1,10.45-49.93,83.61,83.61,0,0,1,16.84-23.22C896.88,89.67,929.1,57.75,961,25.53A86.11,86.11,0,0,1,1029,.28a85.07,85.07,0,0,1,79.84,72.27c.87,4.93,1.74,10.16,2.61,15.09a52.21,52.21,0,0,0,9,.87c1.74,0,3.48.29,5.22.29,1.17,0,2.32.29,3.49.29a87.24,87.24,0,0,1,66.77,47,85.67,85.67,0,0,1-3.48,86.2A78.68,78.68,0,0,1,1177,240.9l-51.68,51.66c2,26.42-9.28,50.8-30.19,71.41-1.74,3.48-3.48,7.25-5.81,11a.28.28,0,0,1-.28.29c2.9,4.65,5.22,9.58,7.83,14.23,29.61,29,36.87,69.66,14.23,107.68-22.65,37.45-61.26,50.21-100.45,38.6-4.93,0-10.16.3-15.09.3-8.42,0-16.26-1.17-24.39-1.17s-16,1.45-24.38,1.45c-8.13,0-16.26.59-24.39.59a68.85,68.85,0,0,1,1.75,15.38,85.94,85.94,0,0,1,36.28,42.09A87.65,87.65,0,0,1,962.19,658c2.91,0,6.1-.29,9-.29,8.13,0,16.26.87,24.39.87h14.8c39.2-11.9,78.68.29,101.32,38.32,24.68,41.5,14.51,80.4-16.55,111.16-1.74,3.49-3.48,7.26-5.81,11a.28.28,0,0,1-.28.29c2.9,4.65,5.22,9.29,7.83,14.22,28.16,27.87,36.29,66.19,16.84,102.76,19.16,38,40.64,74.88,59.51,112.61,21.78,43.25,3.78,95.21-38,117a87.64,87.64,0,0,1-66.76,7c-59.81-18-115.26-44.71-173.61-66.76a88.69,88.69,0,0,1-45-126.85,140.13,140.13,0,0,1-25,2.32,149.28,149.28,0,0,1-25.54-2.32,204,204,0,0,1-23.23,1.45,150.22,150.22,0,0,1-25.84-2.32c-7.54,0-15.39.3-22.93.3H702.66a169.64,169.64,0,0,1-24.09,1.74H629.79c-9,0-17.7-1.46-26.41-1.46s-17.42.59-26.42.59c-8.13,0-16-1.17-24.09-1.17a139.51,139.51,0,0,1-24.68,2c-8.13,0-16.26.28-24.38.28s-16.26-.28-24.39-.28-16.26.28-24.39.28-16.25-.58-24.38-.58c-7.84,0-16,1.17-24.39,1.17a174.07,174.07,0,0,1-24.39-1.74h0c-8.12,0-16.25-.59-24.38-.59h-1.74c20,33.38,15.39,77.5-13.35,106.53a86.79,86.79,0,0,1-31.65,20.61c-58.06,22-113.51,48.76-173.31,66.76a86.81,86.81,0,0,1-66.48-7c-42.09-21.48-60.38-73.73-38.61-117,18.87-37.73,40.65-74.59,59.8-112.61C72.7,899.48,81.7,860.88,110.44,833.89c2.32-4.94,4.65-9.58,7.55-14.52l.87-1.74c-2-3.77-4.64-7.26-7-10.74-31.65-29-42.1-71.4-18.29-110.87,23.22-38.61,62.41-49.93,102.48-38.32h15.38a211.52,211.52,0,0,1,23.81,1.75h.57c3.19,0,6.68,0,10.17-.3a88.08,88.08,0,0,1,36.57-99.27,88.1,88.1,0,0,1,2-15.67,70.59,70.59,0,0,1-4.36-8.12Z" fill="#fff" fill-rule="evenodd"/><path d="M946.52,265.86l25.25-25.25c12.2,1.74,24.39,1.45,36.58,2.32,9.29.58,18.58,2,27.87,3.48L1011,271.66c-21.2.87-44.42,1.74-64.45-5.8Zm-13.35-77.21c6.09-5.81,11.89-11.61,17.7-17.7,5.23,18,11.62,36.27,11.62,55.14l-24.1,24.09c-3.77-20-3.48-40.92-5.22-61.53Zm148.92,7.55c-19.74-.58-38.9-4.07-58.35-7.55,6.68-6.68,13.35-13.64,20.32-20.32,18,5.52,36.86,11.32,56,14.23-4.94,4.93-9.88,9.57-14.52,14.51a7.72,7.72,0,0,0-3.48-.87Zm-64.74-91.44c3.19,18,7.26,35.71,13.36,53.12-5.81,5.81-11.91,11.9-18,18a343.64,343.64,0,0,0-16-50.79c7-6.68,13.64-13.65,20.61-20.33ZM964.81,157.3c6.1-6.38,12.77-12.77,19.16-19.15,2.61,7.83,4.35,16,6.67,23.8,2.91,9.57,5.81,18.28,8.13,27.86l-20.61,20.61c-2.61-18-9-35.41-13.35-52.83v-.29Zm86.22,74c-13.07-1.16-25.84-3.49-38.61-4.94-8.42-.87-16.84-.58-25.55-.87l22.35-22.35h1.16c19.75,3.49,39.77,7.55,59.81,9.29-6.39,6.39-12.78,12.48-19.16,18.87Zm74.89-59.22a8.3,8.3,0,0,0-6.67-4.64h-.58c-24.39-.58-49.07-9-72.29-16C1038.83,130,1034.48,107.67,1031,85c-.58-4.36-3.78-6.1-7.26-6.1a7.7,7.7,0,0,0-6.68,2.33c-32.22,32.22-64.45,64.14-96.38,96.36a7.36,7.36,0,0,0-2.32,4.07,7.2,7.2,0,0,0-2,6.09c2.33,25.54,1.17,51.38,8.13,76.34h0L225.4,963.05c-6.09-15.67-13.35-30.77-17.42-47.31-1.45-6.1-7.83-7.26-12.19-4.65a8.22,8.22,0,0,0-7.83,5.52c-23.52,57.76-56.9,112-85.06,167.77-2.61,5.22.87,10.16,5.22,11.89,1.75,1.46,4.07,1.75,6.68,1.17,57.77-17.42,112.05-43.83,168.08-65a10.48,10.48,0,0,0,3.49-2.32c3.19-3.19,4.06-8.42.58-11.9a6.91,6.91,0,0,0-4.36-2.62c-18-9.57-33.67-23.22-48.48-37.43L933.74,278.63c.29,0,.29,0,.58.29,24.68,10.74,52.55,10.74,79,9.29a8.34,8.34,0,0,0,2.9-.59,8.52,8.52,0,0,0,4.93-2.32c34-34.25,68.22-68.21,102.19-102.46a5.94,5.94,0,0,0,2.32-2.32,8,8,0,0,0,.29-8.42Z" fill="#6fbf97"/><path d="M194.92,271.66l-25.25-25.25c9.29-1.45,18.58-2.9,27.87-3.48,12.19-.87,24.38-.58,36.57-2.32l25.26,25.25c-20,7.54-43.26,6.67-64.45,5.8Zm72.58-21.48c-8.13-8.12-16.26-16-24.1-24.09-.29-18.87,6.1-37.15,11.32-55.14,6.1,6.09,11.91,11.89,18,17.7-2,20.61-1.45,41.51-5.22,61.53ZM120.31,197.07,105.8,182.56c19.16-2.91,37.74-8.71,56-14.23l20.32,20.32c-19.45,3.48-38.61,7-58.35,7.55a7.76,7.76,0,0,0-3.49.87Zm88.55-72a379.33,379.33,0,0,0-15.68,50.79l-18-18c6.1-17.41,10.16-35.12,13.36-53.12l20.32,20.33Zm32.22,32.5c-4.36,17.42-10.74,34.84-13.35,52.83l-20.62-20.61c2-9.58,5.23-18.29,8.13-27.86,2.33-7.84,4.07-16,6.68-23.8l19.16,19.15v.29Zm-86.22,73.73c-6.38-6.39-12.77-12.48-19.16-18.87,20-1.74,40.06-5.8,59.81-9.29h.86c7.55,7.26,15.1,14.8,22.65,22.35-8.71.29-17.13,0-25.55.87-13.06,1.45-25.84,3.78-38.61,4.94Zm-74.61-50.8a7.82,7.82,0,0,0,2,2.32L184.76,285.3a8.58,8.58,0,0,0,4.94,2.32,8.34,8.34,0,0,0,2.9.59c26.42,1.45,54.29,1.45,79-9.29.28-.29.28-.29.57-.29Q621.82,628.24,971.77,978.15c-14.8,14.21-30.48,27.86-48.47,37.43a6.89,6.89,0,0,0-4.36,2.62c-3.77,3.48-2.62,8.71.58,11.9a10.43,10.43,0,0,0,3.48,2.32c56,21.19,110.32,47.6,168.09,65,2.61.58,4.93.29,6.67-1.17,4.36-1.73,7.85-6.67,4.94-11.89-27.87-55.73-61.25-110-84.77-167.77a8.23,8.23,0,0,0-7.84-5.52c-4.35-2.61-10.74-1.45-12.19,4.65-4.06,16.54-11.32,31.64-17.71,47.31Q631,613.45,281.43,264.12h0c7-25,5.81-50.8,8.13-76.34a7.16,7.16,0,0,0-2-6.09,7.36,7.36,0,0,0-2.32-4.07c-31.94-32.22-64.16-64.14-96.38-96.36a7.72,7.72,0,0,0-6.68-2.33c-3.48,0-6.68,1.74-7.26,6.1-3.77,22.64-7.84,45-15.39,66.47-23.22,7-47.89,15.38-72.28,16h-.58A8.33,8.33,0,0,0,80,172.1a7.47,7.47,0,0,0,.29,8.42Z" fill="#6fbf97"/><path d="M1044.06,293.43c-6.39-10.45-11.9.29-24.09.29s-12.2-.58-24.39-.58-12.2-.58-24.39-.58-12.19.87-24.38.87-12.19-.58-24.39-.58-12.19.58-24.39.58-12.19-.29-24.38-.29-12.19.29-24.38.29-12.2,1.16-24.39,1.16-12.2-2.9-24.38-2.9-12.2,1.74-24.39,1.74-12.19-2-24.39-2-12.19,2.32-24.38,2.32-12.2-.87-24.39-.87-12.19,1.74-24.38,1.74-12.19-2.9-24.39-2.9-12.19,1.45-24.39,1.45H603.38c-13.07,0-13.07.58-26.42.58-12.19,0-12.19-.58-24.39-.58s-12.19.87-24.38.87-12.19-2-24.38-2-12.2,2.32-24.39,2.32-12.19.58-24.39.58-12.19-2.61-24.09-2.61c-12.19,0-12.19-.58-24.68-.58-11.9,0-11.9,1.45-24.09,1.45s-12.19-.87-24.39-.87-12.19.87-24.38.87-12.2-.29-24.39-.29-12.19.58-24.38.58-12.2-.29-24.39-.29-12.19,1.16-24.39,1.16-12.19-1.74-24.38-1.74H187.09c-12.2,0-19.46-10.74-25.84-.29-6.09,10.45,7,11.32,13.06,21.48,6.1,10.45,6.68,9.87,12.78,20,6.09,10.44,5.51,10.74,11.6,20.9,6.1,10.44,13.65,8.41,13.65,20.31s-7,10.74-12.77,20.9c-6.1,10.16-7.55,9.29-13.65,19.74-6.09,10.16-4.64,11-10.74,21.19s-18.58,9.86-12.48,20.32,12.19,1.15,24.39,1.15c11.9,0,11.9-.87,24.38-.87,11.9,0,11.9.87,24.1.87s12.19-.57,24.67-.57c11.9,0,11.9-.58,24.09-.58h24.39c12.2,0,12.2-.58,24.39-.58s12.19-.59,24.38-.59,12.19.59,24.38.59,12.2,2,24.39,2,12.2-1.45,24.39-1.45,12.19.58,24.38.58,12.2-.3,24.39-.3,12.19.3,24.39.3h24.38c12.19,0,12.19-2,24.38-2s12.2,1.16,24.39,1.16c13.35,0,13.35-.87,26.42-.87,13.35,0,13.35,1.45,26.41,1.45,12.2,0,12.2.3,24.39.3h24.39c12.19,0,12.19-2,24.38-2h24.39c12.19,0,12.19-.28,24.38-.28s12.2,2.61,24.39,2.61,12.19-1.74,24.39-1.74,12.18,2.32,24.38,2.32,12.19-2.32,24.39-2.32,12.19.29,24.38.29,12.19-.29,24.38-.29,12.2,1.74,24.39,1.74,12.2-.59,24.39-.59,12.19-1.15,24.38-1.15,12.19.87,24.39.87,12.19-.58,24.39-.58,17.12,10.45,23.51,0c6.1-10.16-4.65-10.16-10.74-20.32s-5.52-10.45-11.62-20.61c-6.09-10.45-7.26-9.58-13.35-20-6.1-10.16-12.48-8.71-12.48-20.61s7.55-9.57,13.64-19.74,6.39-10.15,12.48-20.31,2.91-12.19,11.33-20.9c9-9.29,17.41-10.45,11.32-20.61Z" fill="#ea4b85"/><path d="M1044.06,737.52c-6.39-10.45-11.9.29-24.09.29s-12.2-.58-24.39-.58-12.2-.58-24.39-.58-12.19.87-24.38.87-12.19-.58-24.39-.58-12.19.58-24.39.58-12.19-.29-24.38-.29-12.19.29-24.38.29-12.2,1.16-24.39,1.16-12.2-2.9-24.38-2.9-12.2,1.74-24.39,1.74-12.19-2-24.39-2-12.19,2.32-24.38,2.32-12.2-.87-24.39-.87-12.19,1.74-24.38,1.74-12.19-2.9-24.39-2.9-12.19,1.45-24.39,1.45H603.38c-13.07,0-13.07.58-26.42.58-12.19,0-12.19-.58-24.39-.58s-12.19.87-24.38.87-12.19-2-24.38-2-12.2,2.32-24.39,2.32S467.23,739,455,739s-12.19-2.61-24.09-2.61c-12.19,0-12.19-.58-24.68-.58-11.9,0-11.9,1.45-24.09,1.45s-12.19-.87-24.39-.87-12.19.87-24.38.87-12.2-.29-24.39-.29-12.19.58-24.38.58-12.2-.29-24.39-.29-12.19,1.16-24.39,1.16-12.19-1.74-24.38-1.74H187.09c-12.2,0-19.46-10.74-25.84-.29-6.09,10.45,7,11.32,13.06,21.48,6.1,10.45,6.68,9.87,12.78,20,6.09,10.46,5.51,10.74,11.6,20.9,6.1,10.46,13.65,8.42,13.65,20.32s-7,10.75-12.77,20.9c-6.1,10.16-7.55,9.29-13.65,19.45-6.09,10.45-4.64,11.32-10.74,21.48s-18.58,9.87-12.48,20.32,12.19,1.16,24.39,1.16c11.9,0,11.9-.87,24.38-.87,11.9,0,11.9.87,24.1.87s12.19-.59,24.67-.59c11.9,0,11.9-.57,24.09-.57h24.39c12.2,0,12.2-.58,24.39-.58s12.19-.58,24.38-.58,12.19.58,24.38.58,12.2,2,24.39,2,12.2-1.44,24.39-1.44,12.19.57,24.38.57,12.2-.28,24.39-.28,12.19.28,24.39.28,12.19-.28,24.38-.28,12.19-2,24.38-2,12.2,1.45,24.39,1.45c13.35,0,13.35-.86,26.42-.86,13.35,0,13.35,1.45,26.41,1.45,12.2,0,12.2.28,24.39.28h24.39c12.19,0,12.19-2,24.38-2h24.39c12.19,0,12.19-.3,24.38-.3s12.2,2.62,24.39,2.62,12.19-1.75,24.39-1.75,12.18,2.32,24.38,2.32,12.19-2.32,24.39-2.32,12.19.3,24.38.3,12.19-.3,24.38-.3,12.2,1.75,24.39,1.75,12.2-.58,24.39-.58,12.19-1.17,24.38-1.17,12.19.88,24.39.88,12.19-.58,24.39-.58,17.12,10.44,23.51,0c6.1-10.16-4.65-10.16-10.74-20.32s-5.52-10.45-11.62-20.9c-6.09-10.16-7.26-9.29-13.35-19.74-6.1-10.16-12.48-8.71-12.48-20.61s7.55-9.58,13.64-19.74,6.39-10.15,12.48-20.31,2.91-12.19,11.33-20.9c9-9.29,17.41-10.45,11.32-20.61Z" fill="#ea4b85"/><path d="M286.37,324.2a24.74,24.74,0,0,0-6.68.87,9.56,9.56,0,0,0-4.36,3.19,68.08,68.08,0,0,0-4.06,7.84,5.46,5.46,0,0,1-.58,2.32l-.87,2.61a37.91,37.91,0,0,1-4.06,7.55l-.87.87c-.3.29-.3.58-.58.87a4.07,4.07,0,0,1-1.74.58,3.25,3.25,0,0,1-2.62-2.32c-.87-1.45-1.74-2.9-2.61-4.06L255.59,341c-1.15-2.61-2.32-4.93-3.48-7.25-.87-1.45-1.45-2.91-2.32-4.36-.29-.58-.87-1.45-1.16-2-.29,0-.29,0-.29-.29a7.83,7.83,0,0,0-3.77-2.9,12.51,12.51,0,0,0-7.26-.58,4.65,4.65,0,0,0-3.78,2.61,5.19,5.19,0,0,0-.29,4.64,52.51,52.51,0,0,0,4.65,9,29.48,29.48,0,0,1,3.77,8.71,13.67,13.67,0,0,0,1.74,4.35,18.86,18.86,0,0,1,2.62,4.65,22.61,22.61,0,0,0,2.32,4.64,44.93,44.93,0,0,1,3.48,6.39,15.29,15.29,0,0,1,.87,3.48c.29,2,.87,4.06,1.16,5.81a8.6,8.6,0,0,1,.59,4.64v7.84a3.8,3.8,0,0,1,.28,1.74,14.61,14.61,0,0,1-.28,3.48v.87a62.36,62.36,0,0,0,.87,10.45,13.45,13.45,0,0,1-.29,5.81,10.53,10.53,0,0,0,.57,7.83.88.88,0,0,0,.3.58,1.53,1.53,0,0,0,.58,1.17,4.16,4.16,0,0,0,2.32,2.61,8.86,8.86,0,0,0,4.64.87h1.46q4.35-.44,5.22-4.35a12,12,0,0,0,.29-3.2v-8.13a8,8,0,0,1,.29-2.61,23.54,23.54,0,0,0-.29-9,15.77,15.77,0,0,1,0-5.22V393a70.78,70.78,0,0,0,.87-11c0-1.74.3-3.77.3-5.51v-.3a23.9,23.9,0,0,1,1.15-4.93c.87-2,1.74-3.77,2.32-5.51a15,15,0,0,1,2.91-6.1,30.49,30.49,0,0,0,4.06-8.13,49.28,49.28,0,0,1,5.52-11,43.58,43.58,0,0,0,4.06-10.16,5.9,5.9,0,0,0-.87-4.64C289.56,324.49,288.4,324.2,286.37,324.2Z" fill="#fff"/><path d="M316.56,411.57a16.56,16.56,0,0,0,3.77,6.09,14.63,14.63,0,0,0,6.39,4.65,37.73,37.73,0,0,0,7.26,2.61,22,22,0,0,1,3.19,1.16,11.9,11.9,0,0,0,3.19.29,19.24,19.24,0,0,0,4.07-.29,12.56,12.56,0,0,1,1.45-.29c4.93-.58,9.29-2,13.06-5.23a20.8,20.8,0,0,0,8.42-13.64,29.82,29.82,0,0,0,.29-4.93,37,37,0,0,1,.58-8.13,126,126,0,0,0,0-14.8V377.9a25.55,25.55,0,0,1-.29-8.13,31,31,0,0,0,.29-7.26c0-.29.29-.87.29-1.16v-2.61a22,22,0,0,0,.29-4.36,38.93,38.93,0,0,0-.29-5.8,4.94,4.94,0,0,1-.29-2,28.4,28.4,0,0,0-1.74-6.68,42.36,42.36,0,0,1-2.9-6.39,9.79,9.79,0,0,0-4.07-4.35c-1.16-.58-2.32-1.45-3.48-2a11.75,11.75,0,0,1-2.61-1.45,17.91,17.91,0,0,0-12.19-1.74,44.44,44.44,0,0,1-8.71.87,5.35,5.35,0,0,0-3.49,1.45c-1.16.87-2.61,1.74-3.77,2.61a5.09,5.09,0,0,1-1.45,1.16,17.93,17.93,0,0,0-6.39,8.13,33.51,33.51,0,0,0-2.32,9.29v6.09a11,11,0,0,1,0,4.36,20.07,20.07,0,0,0,.29,7.25,15.83,15.83,0,0,1,0,5.23,11.9,11.9,0,0,0-.29,3.19c0,1.45-.29,3.19-.29,4.65a47.53,47.53,0,0,0-.3,6.38v4.64a23.1,23.1,0,0,1,0,9,17.74,17.74,0,0,0,.3,6.68A57.16,57.16,0,0,0,316.56,411.57Zm14.81-43a15.31,15.31,0,0,1,0-5.23,40.73,40.73,0,0,0,0-8.41,15.31,15.31,0,0,1,0-5.23,22.18,22.18,0,0,1,4.35-8.13,5.06,5.06,0,0,1,3.48-1.74c4.65-.58,8.13.87,10.74,4.65a7.26,7.26,0,0,1,1.46,4.64,33.48,33.48,0,0,0,.29,5.52v4.06a33.3,33.3,0,0,1-.29,5.51,42.9,42.9,0,0,0,.29,6.1,11.93,11.93,0,0,1,0,5.51,27.23,27.23,0,0,0-.58,8.42c.29,1.74.29,3.19.58,4.93,0,.87.29,1.75.29,2.33a14.12,14.12,0,0,1-.29,3.48v.58c0,.87-.29,1.45-.29,2.32a15.28,15.28,0,0,1-.29,3.77,8.85,8.85,0,0,1-3.49,6.39,7.61,7.61,0,0,1-7,1.75,12,12,0,0,1-6.68-3.78,6.14,6.14,0,0,1-2-4.36,17.07,17.07,0,0,1-.28-3.77,132.93,132.93,0,0,0-.87-15.38,18.85,18.85,0,0,1,.58-5.81A19.48,19.48,0,0,0,331.37,368.61Z" fill="#fff"/><path d="M409.75,423.46a54.15,54.15,0,0,0,9.86,2.62,3.7,3.7,0,0,1,1.75.29h2a24.57,24.57,0,0,0,10.16-3.19,27.06,27.06,0,0,1,4.06-2,9,9,0,0,0,3.2-2.32,20.32,20.32,0,0,0,2.32-2.9c.29-.58.88-1.16,1.16-1.74a14.08,14.08,0,0,0,2.91-11.32,35.43,35.43,0,0,1,0-7.84,21.42,21.42,0,0,0,0-6.09v-.58a9.93,9.93,0,0,1-.29-2.91v-2.32c.29-2,.58-4.35.87-6.39a20.52,20.52,0,0,0,0-7.25,21.76,21.76,0,0,1-.29-7.55,51.29,51.29,0,0,0,0-6.68V340.16a19.11,19.11,0,0,1,.29-5.81,17.53,17.53,0,0,0,0-5.51,5.58,5.58,0,0,0-4.36-4.64c-2.32-.29-4.94-.58-7,0a6.77,6.77,0,0,0-5.81,5.8,9.6,9.6,0,0,0,0,4.07,35.63,35.63,0,0,1,.58,7.83,33.36,33.36,0,0,0,.29,5.52v1.45c-.29,3.19-.58,6.68-.58,10.16v1.45a12.56,12.56,0,0,0-.29,1.45c.29,1.45.29,2.91.58,4.06.29,3.2.58,6.39.58,9.59a37.41,37.41,0,0,1-.29,8.12,26.08,26.08,0,0,0-.58,7V391c0,2.9-.29,6.09-.58,9.29a8.06,8.06,0,0,1-.87,3.77,6.63,6.63,0,0,1-2,2.9,14,14,0,0,1-4.65,2.32,6.36,6.36,0,0,1-7.84-2l-.87-.87a5.09,5.09,0,0,1-1.16-1.45,6.65,6.65,0,0,1-2-6.09,57.24,57.24,0,0,0-.29-12.2,15.77,15.77,0,0,1,0-5.22,66,66,0,0,0,.58-7.55,5.66,5.66,0,0,1-.29-2c-.29-3.48-.29-7-.29-10.45v-5.52c0-2.9,0-5.8.29-8.7a17.94,17.94,0,0,0-.58-5.52v-1.16a22,22,0,0,1-.29-7.54,9.92,9.92,0,0,0-.58-4.07,3.73,3.73,0,0,0-2.91-3.19,12.86,12.86,0,0,0-8.71-.29,4,4,0,0,0-3.19,4.06v4.65c0,1.74-.29,3.48-.29,5.22a41,41,0,0,1,.29,5.81v5.8a19.77,19.77,0,0,1-.58,4.07,9.87,9.87,0,0,0,0,5.8v.58a5.65,5.65,0,0,1,.29,2.32,8.09,8.09,0,0,1,.29,2.62,59.43,59.43,0,0,1,0,10.16v13.06a15.32,15.32,0,0,1,.29,3.77,2.17,2.17,0,0,0-.29,1.45c-.29,3.19-.29,6.09-.29,9a31.69,31.69,0,0,0,4.36,12.77,15.33,15.33,0,0,0,3.77,3.77,25.46,25.46,0,0,0,7,3.19Z" fill="#fff"/><path d="M535.16,414.47a4.36,4.36,0,0,1,.29-2v-.28c.58-3.78,2.61-5.81,6.39-6.1h.86c2.33,0,4.94-.29,7.26-.29h2.61a7.19,7.19,0,0,1,6.1,3.19,17.33,17.33,0,0,1,2.9,7.26,2.54,2.54,0,0,1,.3,1.45,12.33,12.33,0,0,0,.58,3.19,6.37,6.37,0,0,0,3.48,3.78,21.79,21.79,0,0,0,7.55,1.45,4.15,4.15,0,0,0,4.36-3.19,10.81,10.81,0,0,0-.3-5.23,67.18,67.18,0,0,1-1.74-11v-.58a39.83,39.83,0,0,0-2.32-10.16,47.55,47.55,0,0,1-2.9-11,16.72,16.72,0,0,0-.88-4.06,39.87,39.87,0,0,1-1.74-7.55c-.29-2-.87-3.77-1.16-5.51a4.3,4.3,0,0,1-.29-2,38.35,38.35,0,0,0-2.32-9.58,19.48,19.48,0,0,1-2.62-7.84,22.38,22.38,0,0,0-.87-6.39c-.28-1.45-.58-2.61-.87-4.06a55.79,55.79,0,0,0-3.19-9.87c-.29-.29-.29-.58-.58-.87a6.75,6.75,0,0,0-3.49-3.48,13.63,13.63,0,0,0-6.09-.29,14.84,14.84,0,0,0-5.23,2.32,7.69,7.69,0,0,0-1.45,1.74,12.7,12.7,0,0,0-2,5.52,28.32,28.32,0,0,1-1.74,6.67,11.69,11.69,0,0,0-.87,4.36,24.61,24.61,0,0,1-1.46,6.68,19.89,19.89,0,0,0-1.45,5.51c-.57,2.9-1.16,5.22-1.74,7.84a14.47,14.47,0,0,0-.58,3.48,48.3,48.3,0,0,1-2.32,9.28,4.68,4.68,0,0,0-.87,2.61c-1.16,4.94-2.32,9.87-3.77,14.81v.29a1.74,1.74,0,0,1-.29,1.16,31.18,31.18,0,0,0-1.46,7.55,10.87,10.87,0,0,1-.29,3.19,58.82,58.82,0,0,1-2.61,9.58v.29l-.87,2.61a5.43,5.43,0,0,0,1.16,4.64c.87,1.46,2.32,2,4.36,2a43.26,43.26,0,0,0,6.09-.58,7.17,7.17,0,0,0,4.64-4.07A15.65,15.65,0,0,0,535.16,414.47ZM543,380.8a34.82,34.82,0,0,0,1.74-7.84,5.85,5.85,0,0,1,.87-3.19,3.37,3.37,0,0,1,2.32-1.74,2.64,2.64,0,0,1,2.32,1.16c.3.58.87,1.16.87,1.74a21.67,21.67,0,0,1,1.16,4.65c.29,2.89.59,6.09,1.16,9.28.3,2.61-.57,4.07-3.48,4.65-.58,0-1.16.29-2,.29s-1.74-.29-2.9-.29a4.72,4.72,0,0,1-3.19-4.65A16.19,16.19,0,0,1,543,380.8Z" fill="#fff"/><path d="M618.76,426.37a37.17,37.17,0,0,1,5.81-.29h2.61a1.07,1.07,0,0,0,.87-.29,68.28,68.28,0,0,1,7.55.29,13.89,13.89,0,0,0,8.42-.87,4.16,4.16,0,0,0,3.19-2.62,15.67,15.67,0,0,0,1.46-4.93c.29-2.32-.29-4.06-2.33-5.23a4.66,4.66,0,0,0-2.61-.86.28.28,0,0,1-.29-.29,54.11,54.11,0,0,0-7-.3,32.63,32.63,0,0,1-5.22-.28h-5.52c-.29,0-.29,0-.58-.29-2.9-.3-4.64-1.75-5.23-4.65a20.1,20.1,0,0,1,0-5.8,90.71,90.71,0,0,0,0-12.77,17.64,17.64,0,0,1,0-6.68,17.08,17.08,0,0,1,.59-3.78c0-2.9.29-5.8,0-8.7v-1.74a38.93,38.93,0,0,0-.29-5.81,29.67,29.67,0,0,1,.29-10.16,14.05,14.05,0,0,0,0-4.93,17.74,17.74,0,0,1-.29-8.71,17.77,17.77,0,0,0-.3-7.84c-1.16-3.77-3.77-5.51-7.54-5.51h-.29a7.35,7.35,0,0,0-6.39,3.19,8.76,8.76,0,0,0-1.45,4.64,23.54,23.54,0,0,0,.29,4.65,16.54,16.54,0,0,1,.29,3.77,29.27,29.27,0,0,1-.29,8.71,75.28,75.28,0,0,0-1.16,13.93,67.55,67.55,0,0,0,1.16,7.55,32.12,32.12,0,0,1,.58,5.51v2.91a16.49,16.49,0,0,0-.29,3.77,50.36,50.36,0,0,1-.87,9.29,31.54,31.54,0,0,0,0,10.44,31.7,31.7,0,0,1,.87,9c0,1.45-.29,2.9-.29,4.64A10.65,10.65,0,0,0,605.7,422a4.07,4.07,0,0,0,2.62,2.31,18.17,18.17,0,0,0,8.7,2Z" fill="#fff"/><path d="M747.37,354.68v-6.39a30.4,30.4,0,0,1,0-7.26v-2.61a15.54,15.54,0,0,1-.29-6.09v-2.62c-.58-3.48-2.61-5.22-6.1-5.51H737.5a5.49,5.49,0,0,0-3.77,1.45A5.44,5.44,0,0,0,732,330a15.92,15.92,0,0,1-.3,5.23,10.91,10.91,0,0,0,0,6.1,14.78,14.78,0,0,1,.3,3.77c-.3,2.9-.3,6.09-.88,9a23.48,23.48,0,0,0,0,6.38,40.91,40.91,0,0,1,.29,5.81,24.75,24.75,0,0,0,0,4.64,4.12,4.12,0,0,1-.58,1.74c-.87,1.16-1.74,1.16-2.61.29a6.07,6.07,0,0,1-1.16-1.74c-.29-.87-.87-2-1.17-3.19a13.69,13.69,0,0,1-1.73-4.36v-.29a70.39,70.39,0,0,0-2.62-7,43.93,43.93,0,0,1-2.61-5.23,5.34,5.34,0,0,0-4.94-3.48,21.58,21.58,0,0,0-7.54.58,5.08,5.08,0,0,0-2.62,2.33c-.29.57-.57,1.44-.87,2a12.46,12.46,0,0,1-2.9,7,14.63,14.63,0,0,0-2,4.36,35.16,35.16,0,0,1-3.77,9l-.87.87c-.3.29-.59.29-1.17.29a4,4,0,0,1-.87-1.16v-1.45a29.82,29.82,0,0,0-.29-4.93,44.44,44.44,0,0,1-.87-8.71v-1.74a26.25,26.25,0,0,1,.58-8.13,37,37,0,0,0,.29-5.8,23.82,23.82,0,0,1-.29-7.85,14.53,14.53,0,0,0-2-8.41,5.76,5.76,0,0,0-4.65-2.9,22.39,22.39,0,0,0-4.35.58,5.69,5.69,0,0,0-4.65,6.09v2a2.2,2.2,0,0,1,.29,1.46,33.43,33.43,0,0,1-.87,7.54,20.65,20.65,0,0,0,.29,7.26,17.19,17.19,0,0,1,.58,4.06v2.32a66,66,0,0,1-.58,7.55,35.22,35.22,0,0,0-.29,5.52v2.9a22,22,0,0,0,.29,4.35,51.54,51.54,0,0,1,.29,13.36,33.21,33.21,0,0,0-.29,9.28,11,11,0,0,1-.29,2.91v1.44a18,18,0,0,0-.29,4.07,25,25,0,0,1,.29,4.65v5.8a22,22,0,0,0,.29,4.35,5.15,5.15,0,0,0,1.16,2.9,7.11,7.11,0,0,0,4.65,1.75,51.19,51.19,0,0,0,6.67,0,7,7,0,0,0,5.23-3.77c.88-1.46,1.45-2.91,2.32-4.07,0-.29,0-.29.3-.58a35.23,35.23,0,0,0,3.77-9,31.69,31.69,0,0,1,1.45-4.93c0-.29.29-.87.29-1.17a5.56,5.56,0,0,0,.87-2.89,20.86,20.86,0,0,1,2.61-5.81,30.79,30.79,0,0,0,4.07-9.58c.29-.58.58-1.45.87-2a2.19,2.19,0,0,1,2-1.16c.58-.29,1.16,0,2,.58.58.87,1.16,1.74,1.46,2.32a58,58,0,0,1,5.22,13.35c0,.58.29.87.29,1.16l.87,2.62c.58,2,1.17,3.77,1.74,5.8.87,2.9,2,6.1,3.19,9,0,.29.3.58.3.87a31.7,31.7,0,0,0,2.32,4.35,13.56,13.56,0,0,0,2.9,2.91,10,10,0,0,0,3.48,2,43.71,43.71,0,0,0,6.39.58,4.68,4.68,0,0,0,3.78-1.74,5.07,5.07,0,0,0,1.74-4.65v-1.74a13,13,0,0,1,.29-3.19,58.32,58.32,0,0,0,.29-7.26v-2.32a12,12,0,0,0-.58-5.52,14.15,14.15,0,0,1-.29-4.93c0-.29.29-.58.29-.87.29-1.45.29-2.9.58-4.06v-2a35.3,35.3,0,0,0-.29-9.57c-.58-1.75-.29-3.49,0-5.52a7.46,7.46,0,0,0,.29-4.35v-4.94A40.76,40.76,0,0,0,747.37,354.68Z" fill="#fff"/><path d="M829.53,406.63v-.58a40.27,40.27,0,0,0-2.33-10.16,47.55,47.55,0,0,1-2.9-11,16.62,16.62,0,0,0-1.16-4.06c-.58-2.61-1.16-5.22-1.74-7.55a30.79,30.79,0,0,0-1.17-5.51v-2a29.24,29.24,0,0,0-2.61-9.58,24.48,24.48,0,0,1-2.32-7.84,42.67,42.67,0,0,0-.87-6.39,21.36,21.36,0,0,1-1.16-4.06,39.56,39.56,0,0,0-3.19-9.87c0-.29-.29-.58-.29-.87a8,8,0,0,0-3.49-3.48,13.93,13.93,0,0,0-6.09-.29,19.61,19.61,0,0,0-5.52,2.32c-.29.58-.87,1.16-1.16,1.74a12.72,12.72,0,0,0-2,5.52,56.51,56.51,0,0,1-2,6.67,23.22,23.22,0,0,0-.87,4.36,17.1,17.1,0,0,1-1.16,6.68,20,20,0,0,0-1.74,5.51,63.08,63.08,0,0,1-1.45,7.84,15.73,15.73,0,0,0-.88,3.48,33.18,33.18,0,0,1-2.32,9.28,8.47,8.47,0,0,0-.58,2.61c-1.16,4.94-2.32,9.87-3.77,14.81v.29c0,.29-.29.87-.29,1.16a21.85,21.85,0,0,0-1.46,7.55c0,1.16-.28,2.32-.28,3.19a58.82,58.82,0,0,1-2.61,9.58v.29a4.69,4.69,0,0,0-.88,2.61,6.39,6.39,0,0,0,.88,4.64,5.39,5.39,0,0,0,4.64,2,35.7,35.7,0,0,0,5.8-.58,7.68,7.68,0,0,0,4.94-4.07,15.8,15.8,0,0,0,1.45-6.38v-2.32c.58-3.78,2.91-5.81,6.39-6.1h.87c2.61,0,5.22-.29,7.54-.29h2.62a7.2,7.2,0,0,1,6.1,3.19,22.51,22.51,0,0,1,2.9,7.26,2.61,2.61,0,0,0,.29,1.45,12.33,12.33,0,0,0,.58,3.19,6.88,6.88,0,0,0,3.19,3.78,25,25,0,0,0,7.84,1.45,4,4,0,0,0,4.07-3.19,8.08,8.08,0,0,0,0-5.23A66.13,66.13,0,0,1,829.53,406.63Zm-25.85-17.12c-.57,0-1.15.29-2,.29h-.3c-.57,0-1.45-.29-2.61-.29-2.32-.88-3.48-2.32-3.19-4.65a9.44,9.44,0,0,1,1.16-4.06,34.29,34.29,0,0,0,1.74-7.84,5.77,5.77,0,0,1,.88-3.19,3.35,3.35,0,0,1,2.32-1.74,2.17,2.17,0,0,1,2,1.16,5.91,5.91,0,0,1,1.17,1.74,12,12,0,0,1,.87,4.65c.29,2.89.87,6.09,1.45,9.28C807.46,387.47,806.3,388.93,803.68,389.51Z" fill="#fff"/><path d="M894.56,324.2a26.35,26.35,0,0,0-6.68.87,7.49,7.49,0,0,0-4.07,3.19,28.85,28.85,0,0,0-4.06,7.84,20,20,0,0,1-.87,2.32L878,341a27,27,0,0,1-4.07,7.55l-.87.87c0,.29-.29.58-.58.87a4,4,0,0,1-1.74.58A2.47,2.47,0,0,1,869,350a6.34,6.34,0,0,1-.87-1.45c-.88-1.45-1.75-2.9-2.62-4.06L863.78,341a33,33,0,0,0-3.49-7.25c-.57-1.45-1.45-2.91-2-4.36-.59-.58-.88-1.45-1.45-2-.3,0-.3,0-.3-.29a8.53,8.53,0,0,0-3.48-2.9,13.47,13.47,0,0,0-7.54-.58,5.11,5.11,0,0,0-3.78,2.61,5.22,5.22,0,0,0-.3,4.64,86.64,86.64,0,0,0,4.66,9,29.46,29.46,0,0,1,3.76,8.71,13.94,13.94,0,0,0,1.75,4.35,18.81,18.81,0,0,1,2.61,4.65,23.51,23.51,0,0,0,2.62,4.64,44.8,44.8,0,0,1,3.19,6.39,7.72,7.72,0,0,1,.87,3.48,34.28,34.28,0,0,0,1.45,5.81,25.27,25.27,0,0,1,.58,4.64,42.83,42.83,0,0,0-.29,6.09c0,.58.29,1.17.29,1.75v5.22c0,.29-.29.58-.29.87a63.43,63.43,0,0,0,.87,10.45,10,10,0,0,1-.29,5.81,10.53,10.53,0,0,0,.58,7.83,1,1,0,0,1,.29.58c.29.58.29.88.58,1.17a7,7,0,0,0,2.32,2.61,9.43,9.43,0,0,0,4.94.87h1.45a5.27,5.27,0,0,0,4.94-4.35,12.48,12.48,0,0,0,.58-3.2V407.5a18.93,18.93,0,0,0-.29-9,15.77,15.77,0,0,1,0-5.22V393c.58-3.78.87-7.26,1.16-11a35.1,35.1,0,0,1,.29-5.51v-.3a9.53,9.53,0,0,1,1.16-4.93c.58-2,1.45-3.77,2-5.51a19.69,19.69,0,0,1,2.9-6.1,30.23,30.23,0,0,0,4.07-8.13,65.63,65.63,0,0,1,5.51-11,33.56,33.56,0,0,0,4.07-10.16,5.9,5.9,0,0,0-.87-4.64C898,324.49,896.58,324.2,894.56,324.2Z" fill="#fff"/><path d="M972.65,398.8a44.3,44.3,0,0,1-1.17-9,6.36,6.36,0,0,0-.57-3.2,41.81,41.81,0,0,0-3.78-7,16.67,16.67,0,0,0-4.36-4.65,28.48,28.48,0,0,0-8.71-5.8,48.4,48.4,0,0,1-12.48-7.26,11,11,0,0,1-4.64-7.55,7.07,7.07,0,0,0-.58-2.32v-.58a7.9,7.9,0,0,1,2.9-8.12,15.48,15.48,0,0,1,5.8-2.91h.58a6.32,6.32,0,0,1,6.68,1.45,19,19,0,0,1,3.78,4.65,8.13,8.13,0,0,0,6.09,4.07,10,10,0,0,0,7.55-1.46,5,5,0,0,0,2.32-4.64,16.36,16.36,0,0,0-3.48-8.71c-1.74-2-3.77-4.07-5.81-6.1a6.32,6.32,0,0,0-2.61-2,29.5,29.5,0,0,0-12.77-3.77c-7.55-.58-13.94,1.16-19.74,5.8a13.26,13.26,0,0,0-4.06,5.81,84.47,84.47,0,0,1-2.33,9c0,.29-.29.58-.29.87a10.68,10.68,0,0,0-.29,5.23,35.86,35.86,0,0,1,.87,7.83,20.25,20.25,0,0,0,3.48,9.87c1.17,1.16,2,2.32,3.2,3.48l1.74,1.74a31.78,31.78,0,0,0,11,7.26l2.61.87c.58,0,.88.29,1.45.58a9.24,9.24,0,0,1,4.65,2.61,57.58,57.58,0,0,0,4.07,4.35,9.2,9.2,0,0,1,2.61,4.94,70.76,70.76,0,0,1,.29,7.84,7.65,7.65,0,0,1-2,4.64,6.47,6.47,0,0,1-3.78,2.61,10.83,10.83,0,0,1-5.23.59,10.19,10.19,0,0,1-8.12-5.52c-.58-.58-.88-1.45-1.46-2-1.44-2.32-3.48-3.2-6.38-2.91-.58,0-1.16.3-1.74.3-.87,0-1.74.29-2.62.29-2.61.58-3.77,1.73-3.77,4.06a13.46,13.46,0,0,0,1.16,7.55c.59,1.16.88,2,1.46,3.19.28.29.28.29.28.58a17.84,17.84,0,0,0,10.17,9.29,27.3,27.3,0,0,0,11.61,2,28.84,28.84,0,0,0,10.16-1.16,13,13,0,0,0,6.1-3.48,16.12,16.12,0,0,1,3.19-3.2,16.18,16.18,0,0,0,4.06-5.8c.29,0,.29-.29.58-.29a2.17,2.17,0,0,1,.59-1.45A18.85,18.85,0,0,0,972.65,398.8Z" fill="#fff"/><path d="M379.26,779.9c0-.29-.28-.87-.28-1.16v-3.19a3.61,3.61,0,0,0-.3-1.75q0-4.35-4.35-5.22a51.41,51.41,0,0,0-6.68-.29,6.06,6.06,0,0,0-3.77,2,7.41,7.41,0,0,0-2,3.19c-1.46,2.61-2.91,4.94-4.36,7.55a14.42,14.42,0,0,0-2.32,5.81,38,38,0,0,1-2.61,8.12,57,57,0,0,0-4.94,13.35c-.29.88-.29,1.46-.87,2a3.06,3.06,0,0,1-1.74,2,3.91,3.91,0,0,1-2.32.58,3.7,3.7,0,0,1-3.2-3.19,8.59,8.59,0,0,1-.58-2.62,16.75,16.75,0,0,0-1.74-4.93,10.13,10.13,0,0,1-2-4.36c-1.16-3.48-2.33-7-3.2-10.44a25.24,25.24,0,0,0-1.74-4.36c-.87-2-1.74-3.77-2.61-5.51a13.66,13.66,0,0,0-.87-2,4.68,4.68,0,0,0-.87-2.62,6.29,6.29,0,0,0-5.81-4.35,58.32,58.32,0,0,0-7.26-.29h-.28c-.58,0-1.17.29-1.75.29a4.36,4.36,0,0,0-3.19,3.77,6.39,6.39,0,0,0-.29,2.32v2.91a46,46,0,0,0,.29,9,70.67,70.67,0,0,1-.29,7.83c0,1.16-.29,2-.29,3.2v.28a8.09,8.09,0,0,1-.29,2.62,71.1,71.1,0,0,0-.58,7.83v10.45c0,3.49.29,6.68.58,9.87a1.07,1.07,0,0,1,.29.87,12.59,12.59,0,0,1,.29,4.65v2a31.52,31.52,0,0,0-.29,5.22,10.94,10.94,0,0,1-.29,3.2,51.34,51.34,0,0,0-.29,6.67v.29a70.1,70.1,0,0,1,.29,11,5.77,5.77,0,0,0,.58,3.2,4.12,4.12,0,0,0,2.32,2.6,18.07,18.07,0,0,0,8.71,1.17,7,7,0,0,0,3.48-2,5.05,5.05,0,0,0,.88-4.07,11.72,11.72,0,0,1,0-6.38v-.87a11.36,11.36,0,0,0,.28-3.2v-2.61a58.61,58.61,0,0,0,.3-7.25,27.27,27.27,0,0,0-.3-4.94c-.28-3.48-.28-7-.28-10.45v-1.74a11,11,0,0,1,0-4.35,2.72,2.72,0,0,1,1.45-2.62,2.19,2.19,0,0,1,2.61.88,10.59,10.59,0,0,1,2.9,4.93c1.17,2.9,2.32,6.09,3.49,9.29a20,20,0,0,0,1.16,2.9,25.57,25.57,0,0,0,2.61,5.8,8.55,8.55,0,0,0,3.48,2.91,13,13,0,0,0,8.13-.87c.29-.29.29-.59.58-.59a12.73,12.73,0,0,0,3.19-3.77c.59-1.16.87-2.32,1.46-3.77l3.48-8.71a40.58,40.58,0,0,0,2.32-5.23c.29-.57.59-.87.87-1.44a1.77,1.77,0,0,1,2.33,0,3,3,0,0,1,1.45,2.61,22,22,0,0,1-.29,4.35,9.56,9.56,0,0,0-.29,4.94c.29,2.9.29,5.8.29,8.7a41.63,41.63,0,0,0-.29,8.42v1.16a64.92,64.92,0,0,0,.58,10.74,10.84,10.84,0,0,0,.29,2.9,5,5,0,0,0,3.77,3.78,11.69,11.69,0,0,0,4.36.87,5.32,5.32,0,0,0,5.51-3.78,3.53,3.53,0,0,0,.3-1.74,3.8,3.8,0,0,0,.28-1.74A7.77,7.77,0,0,0,379,860v-.29a19.54,19.54,0,0,0,0-8.13,20.72,20.72,0,0,1,0-6.09,22.4,22.4,0,0,0,0-8.71,35.87,35.87,0,0,1-.3-12.48,60.1,60.1,0,0,0,.3-12.48v-1.74a57.43,57.43,0,0,1,0-10.16v-.29a22.25,22.25,0,0,0,0-6.1,15.37,15.37,0,0,1,.57-7.26,15.25,15.25,0,0,0,0-5.22C379.26,780.77,379.26,780.48,379.26,779.9Z" fill="#fff"/><path d="M456.77,768a18,18,0,0,0-6.67,1.16,6,6,0,0,0-4.07,2.9A33.74,33.74,0,0,0,442,779.9a20,20,0,0,1-.87,2.32l-.87,2.62a27,27,0,0,1-4.07,7.54l-.87.87c0,.29-.28.58-.58.87a4.12,4.12,0,0,1-1.74.58,2.51,2.51,0,0,1-1.74-.87,6.34,6.34,0,0,1-.87-1.45,19.45,19.45,0,0,0-2.61-4.06,18.32,18.32,0,0,1-1.46-3.48,56.45,56.45,0,0,0-3.77-7.26c-.58-1.46-1.45-2.91-2-4.07a17.13,17.13,0,0,0-1.45-2.32.28.28,0,0,1-.29-.29,8.49,8.49,0,0,0-3.49-2.9,13.46,13.46,0,0,0-7.54-.58,6,6,0,0,0-3.78,2.61,5.19,5.19,0,0,0-.29,4.64,87.55,87.55,0,0,0,4.64,9,29.13,29.13,0,0,1,3.78,8.71,8.67,8.67,0,0,0,2,4.36c.87,1.45,1.74,3.19,2.62,4.93a17.07,17.07,0,0,0,2.32,4.64,30.09,30.09,0,0,1,3.19,6.1,16.35,16.35,0,0,1,1.16,3.48,34.33,34.33,0,0,0,1.16,5.81,13.57,13.57,0,0,1,.58,4.64,47.06,47.06,0,0,0-.29,6.38,12.81,12.81,0,0,1,.29,1.46v5.22c0,.29-.29.58-.29,1.16a60,60,0,0,0,.87,10.16,9.88,9.88,0,0,1-.29,5.81,12.1,12.1,0,0,0,.59,7.83c.28.29.28.29.28.59.3.58.3.87.58,1.15a6.91,6.91,0,0,0,2.33,2.62,9.53,9.53,0,0,0,4.93,1.16h.29c.29,0,.59-.29,1.16-.29a5.26,5.26,0,0,0,4.94-4.36,12.66,12.66,0,0,0,.58-2.9v-11a19,19,0,0,0-.29-9,14.11,14.11,0,0,1,0-4.94v-.58c.58-3.48.87-7.26,1.16-11a37.17,37.17,0,0,1,.29-5.52V820a9.54,9.54,0,0,1,1.16-4.94,41.88,41.88,0,0,0,2-5.52,20,20,0,0,1,2.9-6.09,30.08,30.08,0,0,0,4.07-8.13,65.29,65.29,0,0,1,5.52-11A33.84,33.84,0,0,0,462,774.1a5.92,5.92,0,0,0-.87-4.65C460.26,768.29,458.81,768,456.77,768Z" fill="#fff"/><path d="M587.12,786.28c-.28-2.61-.28-4.93-.58-7.54a31.56,31.56,0,0,0-1.16-7.26A5.23,5.23,0,0,0,581.9,768a14.2,14.2,0,0,0-3.49-.29q-5.22,0-6.09,5.22a5.68,5.68,0,0,0-.29,2,4.26,4.26,0,0,0-.29,2,23.7,23.7,0,0,0-.58,7.85v.87a41.48,41.48,0,0,1-.3,6.09,21.82,21.82,0,0,0,.58,7.54,13.2,13.2,0,0,1,0,7.55,5.89,5.89,0,0,1-1.15,1.74,5.8,5.8,0,0,1-4.94,2.32h-.58a32.32,32.32,0,0,1-7.55-.28,14.61,14.61,0,0,0-3.48.28H552c-2-.28-3.19-1.45-3.48-3.77a3.68,3.68,0,0,1,.29-1.74,40.85,40.85,0,0,0,0-8.42,39.72,39.72,0,0,1-.58-8.42,1,1,0,0,0,.29-.87,42.76,42.76,0,0,0,.29-6.09,26.7,26.7,0,0,0-.29-4.65v-.57a17.58,17.58,0,0,0-1.45-5.23,6.77,6.77,0,0,0-3.48-2.9,10.47,10.47,0,0,0-5.23-.58c-3.77.29-5.8,2.61-5.8,6.39a10.88,10.88,0,0,0,.29,4.35,10.87,10.87,0,0,1,0,6.09,13.94,13.94,0,0,0,0,7,21.49,21.49,0,0,1,0,6.1v1.15a30.56,30.56,0,0,0-.29,9,7.77,7.77,0,0,1-.3,2.61,20,20,0,0,0,.59,7.26,16.06,16.06,0,0,1,.58,5.22,52.7,52.7,0,0,1-.87,9.29,10.67,10.67,0,0,0,0,4.36,28,28,0,0,1,0,7,25.75,25.75,0,0,0-.3,6.67q.45,3,.88,6.1v.29a17.53,17.53,0,0,1,0,5.51v2.32c.29,2.61,1.45,4.06,4.06,4.65a11.78,11.78,0,0,0,5.51,0,5.21,5.21,0,0,0,4.65-4.36,17.4,17.4,0,0,0,.58-6.67,19.19,19.19,0,0,1-.29-4.06,35.29,35.29,0,0,0,.29-5.52v-.29c0-1.16.29-2,.29-2.91a11.22,11.22,0,0,0,0-7.54,9,9,0,0,1,.58-7.26c1.16-2.9,3.19-4.06,6.39-3.77a23.48,23.48,0,0,0,9,0,7.36,7.36,0,0,1,3.48.58,5.47,5.47,0,0,1,3.49,3.19,15.16,15.16,0,0,1,.58,3.49v10.74c0,.57,0,.87-.3,1.16a97.17,97.17,0,0,0,0,12.77,17,17,0,0,1,0,5.52c-.28,3.19,1.17,4.93,4.36,5.51a13.31,13.31,0,0,0,8.13-1.17,3.77,3.77,0,0,0,2.61-3.19,29.42,29.42,0,0,0,.58-7.25,10.24,10.24,0,0,1-.28-2.9,22.72,22.72,0,0,0-.3-4.65,12.16,12.16,0,0,1-.29-4.64,92.35,92.35,0,0,0,.29-12.77,25.72,25.72,0,0,1,.3-4.94,22.51,22.51,0,0,0,.28-7.54,6.2,6.2,0,0,1,0-3.2,22,22,0,0,0-.28-7.54,10,10,0,0,1-.3-5.81v-1.16c.3-.29.3-.58.3-1.16a17.16,17.16,0,0,0,.28-3.78,18.15,18.15,0,0,1,0-5.51A14.42,14.42,0,0,0,587.12,786.28Z" fill="#fff"/><path d="M658,855.94c-.58-.28-1.17-.28-1.75-.58h-1.74a17.55,17.55,0,0,0-3.77-.57A33.35,33.35,0,0,0,640,854.2a11.48,11.48,0,0,1-7-.58c-2-.58-2.9-1.74-3.2-4.06v-3.19c0-1.45-.28-3.19-.28-4.94v-1.74c.28-2.61.28-5.22.58-7.84.28-2.9,2-4.64,4.93-5.22a32.3,32.3,0,0,1,7.55-.29,45,45,0,0,0,6.39.29,15.29,15.29,0,0,0,3.48-.87,6.46,6.46,0,0,0,4.07-4.93,10,10,0,0,0-1.46-6.39,4.61,4.61,0,0,0-2.9-2.32A24.47,24.47,0,0,0,642,811a15.31,15.31,0,0,1-5.23,0,12.62,12.62,0,0,1-4.64-1.73,6.35,6.35,0,0,1-2-4.65,10.62,10.62,0,0,1,0-4.35,14.61,14.61,0,0,0,0-4.94,27,27,0,0,1,0-7c.87-2.61,2.32-4.07,4.93-4.07a31.64,31.64,0,0,1,5.23-.29h.58a10.87,10.87,0,0,0,3.19-.29c3.49-.29,6.68-.58,10.16-.58a8.69,8.69,0,0,0,2.91-.58,4.9,4.9,0,0,0,2.9-2,5.41,5.41,0,0,0,1.45-3.49,12,12,0,0,0-.87-4.64,6.29,6.29,0,0,0-6.39-4.64h-4.93a38.83,38.83,0,0,1-8.13-.29,15.89,15.89,0,0,0-5.23-.29H632.7c-4.06.29-8.42.58-12.78.87a9.78,9.78,0,0,0-4.34,2,9.46,9.46,0,0,0-2,4.64,43,43,0,0,0-.29,6.1v1.45a25.44,25.44,0,0,0,.58,4.93,35.27,35.27,0,0,1,.58,14.52,6.39,6.39,0,0,1-.29,2.32,53.09,53.09,0,0,0-.58,9.58,49.23,49.23,0,0,1,.29,6.39v5.51a19.15,19.15,0,0,0,.29,4.06,17.62,17.62,0,0,1,0,5.52,13.91,13.91,0,0,0,0,8.42,21.42,21.42,0,0,1,0,6.09,19.42,19.42,0,0,0,0,5.8,52.41,52.41,0,0,1,.58,6.39,8.94,8.94,0,0,1,.29,2.9v.3c.29,2.89,1.74,4.64,4.65,4.93,1.74,0,3.48.29,5.22.29a43.41,43.41,0,0,0,6.1.58,49.71,49.71,0,0,0,9.29,0,35.43,35.43,0,0,1,7.84,0H653a9.66,9.66,0,0,0,6.1-2c1.73-1.16,2.9-3.49,3.19-6.68C662.31,858.85,660.85,856.82,658,855.94Z" fill="#fff"/><path d="M742.43,850.43v-.58a57.58,57.58,0,0,0-2.32-10.16,47.94,47.94,0,0,1-2.91-11,16.19,16.19,0,0,0-1.15-4.06c-.58-2.62-1.17-4.94-1.74-7.55a30.79,30.79,0,0,0-1.17-5.51c0-.59-.28-1.17-.28-2a23,23,0,0,0-2.33-9.57,22.48,22.48,0,0,1-2.32-7.84,48.87,48.87,0,0,0-1.16-6.38c-.29-1.17-.58-2.62-.87-4.07a37.75,37.75,0,0,0-3.19-9.58c0-.29-.3-.58-.3-.87a8.81,8.81,0,0,0-3.48-3.77,10.86,10.86,0,0,0-6.1,0,10.64,10.64,0,0,0-5.51,2.32,2.9,2.9,0,0,0-1.16,1.45,18.25,18.25,0,0,0-2.33,5.52,27.84,27.84,0,0,1-1.74,6.67,11.68,11.68,0,0,0-.87,4.35,17.21,17.21,0,0,1-1.45,6.68,35,35,0,0,0-1.46,5.81,30.83,30.83,0,0,1-1.74,7.54,15.22,15.22,0,0,0-.58,3.78,33.66,33.66,0,0,1-2.32,9c-.28.87-.57,1.74-.87,2.9A131.69,131.69,0,0,1,689.6,838v.29a1.74,1.74,0,0,0-.29,1.16,21.79,21.79,0,0,0-1.45,7.55,13,13,0,0,0-.29,3.19,57.87,57.87,0,0,1-2.62,9.58V860a4.76,4.76,0,0,0-.87,2.61,6.52,6.52,0,0,0,.87,4.65,5.44,5.44,0,0,0,4.65,2,35.83,35.83,0,0,0,5.81-.58,6.57,6.57,0,0,0,4.64-4.07,12.16,12.16,0,0,0,1.45-6.38c0-.58.29-1.45.29-2v-.3c.58-3.77,2.9-5.8,6.39-6.09h.87c2.61,0,5.22-.29,7.55-.29h2.61a8,8,0,0,1,6.1,3.19,22.51,22.51,0,0,1,2.9,7.26v1.45c.29,1.16.58,2,.87,3.19a6,6,0,0,0,3.19,3.77,24.66,24.66,0,0,0,7.84,1.46,4.05,4.05,0,0,0,4.07-3.19,8.21,8.21,0,0,0,0-5.23A68.44,68.44,0,0,1,742.43,850.43ZM716.6,833.31a5.15,5.15,0,0,1-2,.28h-.3c-.58,0-1.74-.28-2.61-.28-2.32-.87-3.48-2.33-3.19-4.65a9.26,9.26,0,0,1,.87-4.06,17,17,0,0,0,1.74-7.55,9.78,9.78,0,0,1,1.16-3.48,3,3,0,0,1,2.33-1.45c.87-.29,1.44.29,2,.87a6.07,6.07,0,0,1,1.16,1.74,12,12,0,0,1,.87,4.64c.29,2.91.58,6.1,1.16,9.29C720.37,831.27,719.21,833,716.6,833.31Z" fill="#fff"/><path d="M817.33,779a43.3,43.3,0,0,0-7.25-7.26,19.14,19.14,0,0,0-9.29-4.06c-1.17,0-2.33-.29-3.49-.29h-2.61c-.87,0-2-.29-2.9-.29a35.79,35.79,0,0,0-5.52-.58,8,8,0,0,1-2.61.29,35.22,35.22,0,0,0-5.52.29,22.39,22.39,0,0,0-4.35.58A7.43,7.43,0,0,0,770.3,770c-.87,1.16-.87,2.61-.58,4.64A22,22,0,0,1,770,779a9.92,9.92,0,0,0,0,5.81,35.42,35.42,0,0,1,.29,7.83c-.29,2.61-.29,5.22-.58,8.13a1.06,1.06,0,0,0-.29.87,25.68,25.68,0,0,0,0,6.67A53.27,53.27,0,0,1,770,822v.59a6,6,0,0,0,0,3.19,51.41,51.41,0,0,1,.29,6.68v7a22,22,0,0,1-.29,4.36,17.48,17.48,0,0,0-.29,6.67c0,1.45.29,2.9.29,4.36a66,66,0,0,0,.58,7.54v1.45c.29,2.91,1.75,4.64,4.35,5.23a23,23,0,0,0,4.07.58c3.48,0,5.23-1.45,5.81-4.64V862a44.9,44.9,0,0,1,.29-6.38,19.29,19.29,0,0,0,.29-4.07,14.12,14.12,0,0,1,.29-3.48v-2a43.71,43.71,0,0,0,0-8.71v-3.78a3.48,3.48,0,0,1,2-2.89,3.58,3.58,0,0,1,3.48.87,6.66,6.66,0,0,1,2,2,33.93,33.93,0,0,1,3.19,9.59,7.12,7.12,0,0,0,1.45,4.35c.87,1.45,1.46,2.61,2.33,4.06a50.23,50.23,0,0,1,3.47,9.29,12.67,12.67,0,0,0,1.46,4.65,6.38,6.38,0,0,0,3.77,3.48,18.22,18.22,0,0,0,7.84.87,4.68,4.68,0,0,0,4.07-3.19,10,10,0,0,0,0-4.07,18.75,18.75,0,0,0-1.74-5.22,67,67,0,0,1-3.49-8.13,14.14,14.14,0,0,0-1.16-3.19,85.15,85.15,0,0,1-4.07-14.81,7.58,7.58,0,0,1,2.32-7.25,18.94,18.94,0,0,0,3.2-3.48,58.22,58.22,0,0,0,5.22-9.29,28.6,28.6,0,0,0,3.2-12.77,30.72,30.72,0,0,0-1.45-9A44.58,44.58,0,0,0,817.33,779Zm-11.9,28.15a13.62,13.62,0,0,1-7.84,4.65,12.76,12.76,0,0,0-2.9.58,12.56,12.56,0,0,1-1.45.29h-.88a4.57,4.57,0,0,1-4.06-.87,5.4,5.4,0,0,1-2-3.49,18.92,18.92,0,0,1-.58-7,15.47,15.47,0,0,1,.29-5.23,24.75,24.75,0,0,0,0-4.64v-2q.43-5.65,6.09-5.23a35.37,35.37,0,0,1,7.55,1.74h.29a28.87,28.87,0,0,0,2.91,1.16,6.29,6.29,0,0,1,3.19,3.49,27.87,27.87,0,0,1,1.75,9.58A10.13,10.13,0,0,1,805.43,807.18Z" fill="#fff"/><path d="M892.52,767.13a19.48,19.48,0,0,1-5.81,0,20,20,0,0,0-5.8-.29,33.16,33.16,0,0,0-7.55.58,29.28,29.28,0,0,1-8.71-.29,23.48,23.48,0,0,0-6.38,0c-1.45,0-2.91.29-4.65.29a21.8,21.8,0,0,0-4.35,0c-3.19.58-4.65,2.32-4.94,5.51a20,20,0,0,0,1.45,7,3.69,3.69,0,0,0,3.19,2.9,8.4,8.4,0,0,0,3.78.29h1.74a22,22,0,0,1,4.35-.29c3.78.58,5.81,2.61,5.52,6.39a81.43,81.43,0,0,0-.29,11.89v2a56.78,56.78,0,0,0,.58,6.68v.29a8,8,0,0,1,.29,2.61c0,3.19-.29,6.38-.58,9.28a30.49,30.49,0,0,0-.29,7.26,46.63,46.63,0,0,1,0,9v1.45a25,25,0,0,0-.29,4.64c0,2,.29,3.78.29,5.81.29,3.78.58,7.84.58,11.61a17.22,17.22,0,0,0,1.45,5.52,4.14,4.14,0,0,0,4.65,2.61,10.3,10.3,0,0,0,2.9-.58h.58a6.21,6.21,0,0,0,4.94-4.94,24.72,24.72,0,0,0,.87-6.67v-8.42a25.72,25.72,0,0,0,0-6.68,25,25,0,0,1-.29-4.64c0-1.74.29-3.48.29-5.23a20.35,20.35,0,0,0,.29-7.25v-.87a19.76,19.76,0,0,1-.58-5.81c0-.87.29-1.74.29-2.32,0-.87.29-1.74.29-2.32.29-3.78.29-7.55.29-11.32v-4.35a57,57,0,0,0,.58-6.68v-3.48c.29-2.33,1.45-3.78,3.77-4.07a17.88,17.88,0,0,1,3.78-.29l6.09-.87a6.23,6.23,0,0,0,4.65-4.93,19.51,19.51,0,0,0,0-5.81Q898.19,766.7,892.52,767.13Z" fill="#fff"/><path d="M671.31,465.26c-28.16,0-56.32,19.74-69.67,59.22-13.36-39.48-39.19-59.22-64.16-59.22-163.73,0-44.42,238.88,64.16,254.85,108.28-16,230.5-254.85,69.67-254.85Z" fill="#ea4b85"/><path d="M567.67,613.58a13.19,13.19,0,0,0,.87,4.65,42.58,42.58,0,0,1,.29,12.19c0,2-.29,4.06-.29,5.8,0,1.16-.29,2.33-.29,3.48a5.34,5.34,0,0,1-5.51,4.07,9.69,9.69,0,0,1-4.94-.58,5.24,5.24,0,0,1-4.06-4.64,8.35,8.35,0,0,1-.58-2.91,13.15,13.15,0,0,0-.29-4.64,10.93,10.93,0,0,1-.3-4.36,17.84,17.84,0,0,0-.29-3.77,18.07,18.07,0,0,1,.29-5.51,15.31,15.31,0,0,0,0-5.23,33.78,33.78,0,0,1,.59-7.83,57.89,57.89,0,0,0,0-7v-1.74c-.29-2.62-.29-5.52-.59-8.13a13.66,13.66,0,0,1,.3-3.48,15.43,15.43,0,0,0-.3-6.39,22.3,22.3,0,0,1-.29-7.55,40.73,40.73,0,0,0,0-8.41,65.54,65.54,0,0,1,.29-13.06,9.45,9.45,0,0,1,1.17-4.07,5.47,5.47,0,0,1,3.77-2.9,10.64,10.64,0,0,1,5.23,0c3.77.58,5.51,2.61,5.51,6.67a81.63,81.63,0,0,0,0,11.91v3.19a25,25,0,0,0,.29,4.64,56.31,56.31,0,0,1-.58,7v.29a30.4,30.4,0,0,0,0,7.26,42.47,42.47,0,0,1,.58,8.41v2.32a7.29,7.29,0,0,1,.29,2.33c-.29,2-.29,4.06-.58,5.8v.29a1.07,1.07,0,0,0-.29.87v4.94a42.83,42.83,0,0,0-.29,6.09Z" fill="#fff"/><path d="M653.6,580.21v10.15a60.59,60.59,0,0,1,0,7.26,1.07,1.07,0,0,0-.29.87,77.58,77.58,0,0,0,0,11.61,19.48,19.48,0,0,1,0,5.81,46.56,46.56,0,0,0,0,9,28.31,28.31,0,0,1-.29,4.94,20.35,20.35,0,0,0-.29,7.25,4.52,4.52,0,0,1-.58,3.49,5.28,5.28,0,0,1-2.61,1.74,8.53,8.53,0,0,1-2.62.58,32.78,32.78,0,0,1-7.54,0,6.94,6.94,0,0,1-5.81-4.35A32.25,32.25,0,0,1,631,633a20.85,20.85,0,0,0-1.45-3.77c-.29-1.17-.59-2-.87-2.91a11.76,11.76,0,0,1-1.17-2.9A61.78,61.78,0,0,1,623.7,611a24.16,24.16,0,0,0-1.16-4.35l-.87-2.62c0-.29-.29-.57-.29-.87-.29-1.16-.58-2-.87-3.19a6.28,6.28,0,0,0-1.16-1.74,2,2,0,0,0-2.33-.87,2.17,2.17,0,0,0-1.44,2,2.4,2.4,0,0,0,0,2,11.55,11.55,0,0,1-.3,7,8.52,8.52,0,0,0,.3,4.64,13.25,13.25,0,0,1,0,6.68,35.86,35.86,0,0,0-.3,12.48,9.79,9.79,0,0,1-.87,7,6,6,0,0,1-5.23,4.06,7.46,7.46,0,0,1-4.35.29,6.4,6.4,0,0,1-4.06-3.19,12.18,12.18,0,0,1-.87-7.84,11.91,11.91,0,0,0,0-6.38,24.28,24.28,0,0,1-.3-4.65,70.94,70.94,0,0,0-.29-7.84,54.67,54.67,0,0,1,.59-6.67,29,29,0,0,0,.28-8.71v-1.45a20.4,20.4,0,0,0-.58-8.42,23.71,23.71,0,0,1,0-7.84,32.54,32.54,0,0,0,0-11.89,29.33,29.33,0,0,1,.3-7.26,44.48,44.48,0,0,0-.3-10.74,8.29,8.29,0,0,1,2.32-6.68c.59-.29.88-.58,1.46-.87a19.25,19.25,0,0,1,8.13-1.45,6.65,6.65,0,0,1,5.22,3.48,34.14,34.14,0,0,1,2.32,4.65,10.34,10.34,0,0,1,1.17,2.61,13.79,13.79,0,0,1,2,6.1c0,.57.29,1.16.29,1.74a74.28,74.28,0,0,1,2.32,7.55,16,16,0,0,0,1.45,3.19,34.71,34.71,0,0,1,3.78,9.57c.28,0,.28.29.28.59a23.4,23.4,0,0,1,1.17,4.35,5.38,5.38,0,0,1,.58,2,7.38,7.38,0,0,1,.58,2c.29.58.58.87.58,1.16a3.87,3.87,0,0,0,.87,1.16,2.61,2.61,0,0,0,1.45.29,2.56,2.56,0,0,0,2-1.74,17.55,17.55,0,0,0,.57-3.77v-2.32a51.49,51.49,0,0,0-.29-6.68c0-.29-.28-.29-.28-.58v-3.77a82.82,82.82,0,0,0,0-14.52,6.92,6.92,0,0,1-.3-2.32v-7.54a5.5,5.5,0,0,1,.3-2.33,5.24,5.24,0,0,1,4.93-4.35,11.84,11.84,0,0,1,6.39.58,5.86,5.86,0,0,1,4.35,5.22,17.88,17.88,0,0,1-.29,4.07,23.7,23.7,0,0,0,.29,7.83,14.18,14.18,0,0,1,0,7,14.18,14.18,0,0,0,0,7,24.14,24.14,0,0,1,.29,6.39Z" fill="#fff"/><path d="M357.49,505.32c18.58,2.61,36.58,5.8,54.29,11.32,13.35,4.35,18.87-16.25,5.81-20.61-17.72-5.52-36-8.71-54.29-11.32C349.66,482.68,343.85,503.28,357.49,505.32Z" fill="#241b2e"/><path d="M429.2,654.22c-13.65,8.42-27.58,16.54-43,21.77-13.06,4.64-7.55,25.25,5.52,20.9,17.13-6.1,32.8-14.81,48.48-24.09C451.84,665.83,441.1,647.25,429.2,654.22Z" fill="#241b2e"/><path d="M411.78,607.49c-27,7.84-55.16,11.32-82.74,17.12-13.64,2.91-7.84,23.51,5.52,20.61,27.87-5.8,55.74-9.29,83-17.13C430.94,624.32,425.13,603.71,411.78,607.49Z" fill="#241b2e"/><path d="M403.36,552.92H372c-13.94,0-13.94,21.48,0,21.48h31.35C417,574.4,417,552.92,403.36,552.92Z" fill="#241b2e"/><path d="M811.82,670.47C797.88,664.66,784,659.15,769.14,656c-13.64-2.61-19.16,18-5.8,20.9,14.8,3.19,28.73,8.71,43,14.22C819.08,696.3,824.59,675.41,811.82,670.47Z" fill="#241b2e"/><path d="M880.62,618.81c-30.48-6.1-60.68-13.94-91.45-17.42-13.93-1.45-13.64,20,0,21.48,28.74,3.2,57.19,11,85.64,16.83C888.46,642.32,894,621.71,880.62,618.81Z" fill="#241b2e"/><path d="M797.59,547.11c-13.64.29-13.64,21.77,0,21.49,12.49-.3,24.68-2.62,37.16-2.91,13.93-.29,13.93-21.77,0-21.48C822.27,544.5,810.08,546.82,797.59,547.11Z" fill="#241b2e"/><path d="M794.4,518.67c12.77-6.39,25.83-11.9,37.16-20,11-8.13.58-26.7-10.74-18.58-11.61,8.42-24.39,13.65-37.16,20C771.17,506.19,782.2,524.76,794.4,518.67Z" fill="#241b2e"/></g></g></svg>