<svg xmlns="http://www.w3.org/2000/svg" viewBox="0 0 1348.09 906.96"><g id="Layer_2" data-name="Layer 2"><g id="Layer_1-2" data-name="Layer 1"><path d="M237.73,90.2A98.79,98.79,0,0,1,315,49.86a140.43,140.43,0,0,1,22.06.87,111.66,111.66,0,0,1,20,4.35,92.79,92.79,0,0,1,22.35-4.64,121.56,121.56,0,0,1,30.78.58l1.16.29h.87a12.76,12.76,0,0,0,2.9.58,6.83,6.83,0,0,0,2.32-.58l1.74-.29,2-.58a108.64,108.64,0,0,1,53.7,2.32,178.42,178.42,0,0,1,25-3.48A100.24,100.24,0,0,1,556.2,64.37a106,106,0,0,1,41.51-14.8,103.06,103.06,0,0,1,38.9,2.32,103.14,103.14,0,0,1,20.91-2.61,96.57,96.57,0,0,1,31.64,3.48h.29a96.19,96.19,0,0,1,18.29-2.9c5.51-.58,11-1.16,16.55-1.46h1.16l1.16-.28h7.54A102.19,102.19,0,0,1,753,49.28a41,41,0,0,1,5.81-.29,96.35,96.35,0,0,1,37.74,7.54,101.42,101.42,0,0,1,22.65-6.67c18.28-3.2,36.86-2,54.28,4.35l3.19,1.17,1.75.86c3.19-1.45,6.09-2.32,9.28-3.48a119.58,119.58,0,0,1,27-4.64,70.85,70.85,0,0,0,7.84-.29H924l2-.29h2a154.76,154.76,0,0,1,20,1.16c3.48.29,7.26.58,11,.87A99.41,99.41,0,0,1,980,54.21c5.23-2,11-3.19,16.55-4.35l1.45-.29h1.45a101,101,0,0,1,16-1.17,138.79,138.79,0,0,1,21.77,0c4.65-.28,9.29-.57,13.93-.57a120.08,120.08,0,0,1,14.52.29c44.13-1.16,82.45,26.12,95.8,67.63h30.19a100.45,100.45,0,0,1,95.22,132.35c17.42,8.13,32.81,22.06,45,42.67,16,26.41,20.9,57.18,11.32,87.08-9.58,28.44-20.61,35.7-37.74,51.37a144.73,144.73,0,0,1-11,22.35c-4.35,7.55-9,14.81-13.65,22.35a189.75,189.75,0,0,1,13.36,19.45c5.51,9.28,10.45,18.87,15.68,28.16,38.31,36,50.22,83,20.9,131.77-29,48.47-75.77,60.66-125.12,44.12-2.91,0-5.81.29-9,.29,34.55,56.3,6.68,133.8-62.42,150.06a161.94,161.94,0,0,1-49.93,3.48,10.6,10.6,0,0,0-1.46,2.32,177.73,177.73,0,0,1-11.6,14.52,101,101,0,0,1-31.35,22.64,123.42,123.42,0,0,1-46.46,15.09,99.49,99.49,0,0,1-29.32-.87c-1.16-.29-2-.58-3.19-.87a74.36,74.36,0,0,1-7.84-1.45h-2L938,898.56c-1.45-.58-2.9-.87-4.36-1.45h-.29v-.29a25.52,25.52,0,0,1-4.35-1.45A133.74,133.74,0,0,1,895,905a113.8,113.8,0,0,1-17.13,1.45h-2.32a100.73,100.73,0,0,1-31.06-4.64l-1.74-.59L841,900.6h0a130.26,130.26,0,0,1-17.7-6.39h0a97.12,97.12,0,0,1-35.42,11c-3.48.29-7,.58-10.74.58a100.92,100.92,0,0,1-48.48-11.32A95.56,95.56,0,0,1,701.06,873a95.21,95.21,0,0,1-64.74,32.51,104.14,104.14,0,0,1-34.26-2.32,102.61,102.61,0,0,1-25,2.32h-.87l-1.16-.29a121.77,121.77,0,0,1-20.62-2.9c-4.06-1.17-8.12-2.32-11.9-3.78A133.6,133.6,0,0,1,516.72,905a113.91,113.91,0,0,1-17.13,1.45h-2.32a104,104,0,0,1-31.36-4.64l-1.74-.59L463,900.6a134.18,134.18,0,0,1-18-6.39l-7.84-3.48c-2.61,1.74-5.22,3.19-7.83,4.64a105.93,105.93,0,0,1-63.87,10.45h-.87l-.87-.29a95.61,95.61,0,0,1-72-54.86H267.06a99.81,99.81,0,0,1-84.48-46.15c-21.49-34-19.75-73.73-2.33-104.49H179.1c-50.23,13.93-95.51,2.9-124.55-45.86-29.89-49.93-15.67-98.69,24.68-133.23,4.36-9,8.13-18.29,13.65-27.57,4.35-7.55,9.87-14.22,14.51-20.9-4.06-7.54-8.13-15.38-12.48-22.64C90,441.12,84.16,433,78.65,424.58c-16.55-13.93-28.16-25.84-36-48.76C32.2,346.5,36.56,315.44,52.52,289c13.94-23.8,35.71-40.93,62.13-47.89-18.87-30.77-20.9-71.12-1.45-104.2A100.21,100.21,0,0,1,225,90.78a96.34,96.34,0,0,1,12.77-.58Z" fill="#c56b9f" fill-rule="evenodd"/><path d="M200.76,42.67A98.86,98.86,0,0,1,278,2.32a139.24,139.24,0,0,1,22.06.88,110,110,0,0,1,20,4.35A93.28,93.28,0,0,1,342.43,2.9a121.1,121.1,0,0,1,30.78.59l1.15.28h.88a12.84,12.84,0,0,0,2.9.59,6.85,6.85,0,0,0,2.32-.59l1.74-.28,2-.59a108.68,108.68,0,0,1,53.71,2.33,178.44,178.44,0,0,1,25-3.49,100.24,100.24,0,0,1,56.32,15.1A106,106,0,0,1,560.74,2a102.87,102.87,0,0,1,38.9,2.33,102.45,102.45,0,0,1,20.91-2.62,96.33,96.33,0,0,1,31.64,3.49h.29a96.1,96.1,0,0,1,18.28-2.91c5.52-.58,11-1.16,16.55-1.45h1.17l1.16-.29h7.54a103.06,103.06,0,0,1,18.87,1.16,41,41,0,0,1,5.81-.29A96.21,96.21,0,0,1,759.6,9a101.51,101.51,0,0,1,22.64-6.68c18.29-3.19,36.87-2,54.29,4.36l3.19,1.16,1.74.87c3.2-1.45,6.1-2.32,9.29-3.48a119.59,119.59,0,0,1,27-4.65,70.85,70.85,0,0,0,7.84-.29H887l2-.29h2a154.76,154.76,0,0,1,20,1.16c3.48.29,7.26.58,11,.87a99.56,99.56,0,0,1,20.9,4.65c5.22-2,11-3.19,16.55-4.36L961.07,2h1.45a100.94,100.94,0,0,1,16-1.16,136.53,136.53,0,0,1,21.78,0c4.64-.29,9.29-.58,13.93-.58a120.13,120.13,0,0,1,14.52.29c44.13-1.16,82.45,26.13,95.8,67.63h30.19a99.81,99.81,0,0,1,84.48,46.15,100.84,100.84,0,0,1,10.74,86.21c17.42,8.12,32.8,22.05,45,42.66,16,26.42,20.9,57.19,11.32,87.08-9.58,28.45-20.61,35.7-37.74,51.38a144.64,144.64,0,0,1-11,22.34c-4.35,7.55-9,14.81-13.65,22.35a190.86,190.86,0,0,1,13.36,19.45c5.51,9.29,10.45,18.87,15.68,28.16,38.31,36,50.21,83,20.89,131.78-29,48.47-75.76,60.66-125.11,44.12-2.91,0-5.81.28-9,.28,34.54,56.31,6.67,133.81-62.42,150.06a161.66,161.66,0,0,1-49.93,3.49,10.6,10.6,0,0,0-1.46,2.32,177.3,177.3,0,0,1-11.61,14.51,100.68,100.68,0,0,1-31.35,22.64,123.14,123.14,0,0,1-46.45,15.09,99.15,99.15,0,0,1-29.32-.87c-1.16-.28-2-.58-3.19-.87a74.36,74.36,0,0,1-7.84-1.45h-2L901,851c-1.45-.58-2.91-.87-4.36-1.45h-.29v-.29a26.43,26.43,0,0,1-4.35-1.45,134.25,134.25,0,0,1-34,9.57,113.82,113.82,0,0,1-17.13,1.46h-2.32a100.73,100.73,0,0,1-31.06-4.65l-1.74-.58-1.75-.58h0a128.22,128.22,0,0,1-17.71-6.39h0a97.28,97.28,0,0,1-35.41,11c-3.48.29-7,.57-10.74.57A100.91,100.91,0,0,1,691.67,847a95.6,95.6,0,0,1-27.58-21.48A95.29,95.29,0,0,1,599.35,858a104.4,104.4,0,0,1-34.26-2.33,103.11,103.11,0,0,1-25,2.33h-.87l-1.16-.29a122.8,122.8,0,0,1-20.62-2.91c-4.06-1.16-8.12-2.32-11.9-3.77a134.49,134.49,0,0,1-25.83,6.38,113.93,113.93,0,0,1-17.13,1.46H460.3a104,104,0,0,1-31.36-4.65l-1.74-.58-1.16-.58a131.46,131.46,0,0,1-18-6.39l-7.84-3.48c-2.61,1.74-5.23,3.2-7.83,4.65a105.87,105.87,0,0,1-63.87,10.44h-.87l-.88-.28a95.65,95.65,0,0,1-72-54.86H230.08A99.83,99.83,0,0,1,145.61,757c-21.49-34-19.75-73.73-2.33-104.5h-1.16c-50.22,13.94-95.5,2.91-124.54-45.85C-12.32,556.71,1.9,508,42.26,473.41c4.36-9,8.13-18.29,13.65-27.58,4.35-7.54,9.86-14.22,14.51-20.9-4.07-7.54-8.13-15.38-12.48-22.64C53,393.59,47.19,385.46,41.68,377c-16.55-13.93-28.16-25.83-36-48.76C-4.77,299-.42,267.91,15.55,241.49c13.94-23.8,35.71-40.92,62.13-47.89-18.87-30.77-20.91-71.11-1.45-104.2A100.22,100.22,0,0,1,188,43.25a96.27,96.27,0,0,1,12.77-.58Z" fill="#fff" fill-rule="evenodd"/><path d="M1199.12,526.23c-9.87-17.12-9.29-17.7-19.16-34.53-10.16-17.13-12.19-16-22.36-32.81-9.87-17.12-20.61-14.51-20.61-34.24s12.48-16,22.65-32.8c10.16-17.13,10.45-16.84,20.61-33.67,10.16-17.13,4.93-20.32,18.87-34.54,15.09-15.39,28.74-17.42,18.58-34.55-10.45-17.41-19.74.59-39.78.59-20.32,0-20.32-.59-40.35-.59-20.32,0-20.32-1.15-40.64-1.15-20,0-20,1.74-40.35,1.74-20,0-20-1.17-40.36-1.17s-20.32.88-40.34.88c-20.33,0-20.33-.58-40.36-.58-20.32,0-20.32.28-40.64.28-20,0-20,2-40.35,2-20,0-20-4.94-40.35-4.94-20,0-20,2.9-40.36,2.9s-20.32-2.9-40.35-2.9c-20.32,0-20.32,3.78-40.35,3.78-20.32,0-20.32-1.46-40.64-1.46a66,66,0,0,0-8.13.3,35.56,35.56,0,0,0-4.65.28c-4.93.3-8.42.88-13.06,1.46h0a48.87,48.87,0,0,1-6.68.28c-20,0-20,.59-40.35.59s-20.32-4.07-40.35-4.07c-20.33,0-20.33-.87-40.35-.87-20.33,0-20.33,2.61-40.65,2.61-20,0-20-1.74-40.35-1.74-20,0-20,1.74-40.35,1.74-20,0-20-.87-40.35-.87s-20.32.87-40.35.87c-20.32,0-20.32-.28-40.36-.28-20.32,0-20.32,2-40.64,2-20,0-20-2.89-40.35-2.89H135.16c-20.32,0-32.23-17.71-42.68-.3-9.87,16.84,11.32,18.58,21.48,35.7,9.88,16.84,11.33,16,21.49,33.09,9.87,17.13,9,17.42,19.15,34.55s22.65,13.93,22.65,33.67-11.61,17.41-21.48,34.54c-10.16,16.83-12.49,15.38-22.65,32.51-9.87,16.83-7.54,18.28-17.7,35.4-10.17,16.84-30.78,16.55-20.62,33.38,10.45,17.42,20,2.33,40.36,2.33,20,0,20-1.75,40.35-1.75,20,0,20,1.46,40.35,1.46s20.32-1.17,40.35-1.17c20.33,0,20.33-.57,40.35-.57h40.36c20.31,0,20.31-1.17,40.64-1.17,20,0,20-.87,40.35-.87,20,0,20,1.16,40.35,1.16s20.32,2.91,40.35,2.91c20.32,0,20.32-2,40.36-2,20.32,0,20.32,1.15,40.64,1.15,20,0,20-.87,40.35-.87a140.71,140.71,0,0,0,24.39-2.32,68.3,68.3,0,0,1,8.13-.29h40.35c20.32,0,20.32-.58,40.35-.58,20.32,0,20.32,4.06,40.35,4.06,20.32,0,20.32-2.9,40.65-2.9,20,0,20,4.07,40.35,4.07,20,0,20-3.78,40.35-3.78s20.32.29,40.35.29c20.32,0,20.32-.29,40.35-.29,20.32,0,20.32,2.9,40.64,2.9,20,0,20-1.16,40.36-1.16,20,0,20-2,40.35-2s20.32,1.75,40.35,1.75c20.32,0,20.32-.88,40.64-.88,20,0,28.46,17.13,38.91-.29,9.87-16.83-7.55-16.54-17.71-33.38Z" fill="#ea4b85"/><path d="M539.84,375a61.4,61.4,0,0,1-.58,7.55,53.66,53.66,0,0,0-.29,18,26.59,26.59,0,0,1,0,9.58h0c0,.87-.3,1.16,0,1.74a20.38,20.38,0,0,1-.58,8.42,25.05,25.05,0,0,0,.28,9.29,66.89,66.89,0,0,1,.59,13.35,64.17,64.17,0,0,1-.59,7.26,99.88,99.88,0,0,0-.28,13.06,14.43,14.43,0,0,1-2,7.84,65.4,65.4,0,0,1-9,13.06,15.9,15.9,0,0,1-11,5.22c-2.9.29-5.8.58-8.41.87h-3.78a13.67,13.67,0,0,1-6.09-.58,34.34,34.34,0,0,1-5.81-2.32,49.9,49.9,0,0,1-12.48-7.84,27.37,27.37,0,0,1-6.39-9.87,14.46,14.46,0,0,1-.87-7,7.16,7.16,0,0,1,5.81-7,21.71,21.71,0,0,1,7.54-.29,8.56,8.56,0,0,1,5.23,2.9,10.32,10.32,0,0,0,2,2.91,24.19,24.19,0,0,1,2.32,3.48c3.49,4.35,7.84,5.52,13.07,4.06a19.22,19.22,0,0,0,8.42-5.8,8,8,0,0,0,1.73-7,42.18,42.18,0,0,1,0-8.41,37.66,37.66,0,0,0-.58-9.87,42.31,42.31,0,0,1,0-8.42c0-.29,0-.29.3-.58a24.38,24.38,0,0,0,0-6.39,17.33,17.33,0,0,1,.28-6.68,40.87,40.87,0,0,0,.29-13.35c-.29-2-.29-3.77-.57-5.51a18.52,18.52,0,0,0-.3-4.06,25.93,25.93,0,0,0-.28-4.65V378.5a45.5,45.5,0,0,0-.3-6.39,19.18,19.18,0,0,1,3.78-10.74,7.32,7.32,0,0,1,5.52-3.19c1.45,0,3.19.29,4.93.29a9.13,9.13,0,0,1,7,6.38,19,19,0,0,1,.59,4.06,3.64,3.64,0,0,0,.29,1.74v3.78c.29,0,.29.29.29.58Z" fill="#fff"/><path d="M638.25,475.44a12.61,12.61,0,0,1-1.16,2,19.65,19.65,0,0,1-3.2,3.77,12.94,12.94,0,0,1-4.06,2.91,50.39,50.39,0,0,0-5.51,2.9,27.64,27.64,0,0,1-12.78,4.06,4.92,4.92,0,0,1-2.9,0c-.87-.29-1.45-.29-2.32-.58a91,91,0,0,1-12.78-2.9c-.28-.29-.28-.29-.58-.29a39.09,39.09,0,0,1-8.7-4.06,18.88,18.88,0,0,1-4.94-4.65,38.74,38.74,0,0,1-5.52-16.54,78,78,0,0,1,.29-11.61c0-.88.3-1.46.3-2.33v-4.93a3.57,3.57,0,0,1-.3-1.74v-1.16c0-.87-.29-1.74-.29-2.61a22,22,0,0,0,.29-4.36v-7a94.87,94.87,0,0,0,0-13.06c0-1.16-.29-2-.29-3.19s-.28-2-.28-3.19c-.3-.29-.3-.29-.3-.58a14.34,14.34,0,0,1,.3-7.84,26.38,26.38,0,0,0,.57-4.93c0-2.32-.29-4.94-.29-7.55V378.5a49.23,49.23,0,0,1,.29-6.68c0-2,.3-4.36.3-6.39,0-2.61,1.16-4.35,3.77-4.93a16.87,16.87,0,0,1,11.32.29,5.67,5.67,0,0,1,4.06,4.35,13.55,13.55,0,0,1,.29,4.94,54.28,54.28,0,0,0,.3,9.86,3.29,3.29,0,0,1,.28,1.46,20,20,0,0,1,.59,7.25c-.29,3.77-.29,7.55-.29,11.32v7c0,4.64,0,9,.29,13.64a8.3,8.3,0,0,1,.28,2.61,35.51,35.51,0,0,1-.57,9.58,14.18,14.18,0,0,0,0,7,49,49,0,0,1,.29,16,10,10,0,0,0,2.61,7.84,7.69,7.69,0,0,1,1.45,1.74c.58.29.87.87,1.16,1.16a9,9,0,0,0,10.45,2.61,16.24,16.24,0,0,0,5.81-3.19,9.42,9.42,0,0,0,2.9-3.77,12.07,12.07,0,0,0,.87-4.65,86.06,86.06,0,0,0,.87-12.19v-.58a42.47,42.47,0,0,1,.58-8.7,42.28,42.28,0,0,0,.59-10.46q-.43-6.09-.88-12.19c-.29-2-.29-3.77-.58-5.51v-2a3.15,3.15,0,0,0,.29-1.45c0-4.65.29-9,.58-13.65v-1.45a60.62,60.62,0,0,1-.29-7.25,29.82,29.82,0,0,0-.86-10.16,11.55,11.55,0,0,1,.28-5.52,8.63,8.63,0,0,1,7.26-7.26,23.9,23.9,0,0,1,9,0c2.9.88,4.93,2.62,5.51,5.81a18.41,18.41,0,0,1,.29,7,33.68,33.68,0,0,0-.57,7.55v12.18a73.27,73.27,0,0,0,.28,7.84c0,2.62,0,5.52-.28,8.42a28.11,28.11,0,0,0,.57,9.87,23.1,23.1,0,0,1,0,9,45,45,0,0,0-.87,8.7,9,9,0,0,0-.29,2.91,14.12,14.12,0,0,0,.29,3.48v1.16a23.45,23.45,0,0,1,0,7.84,59.4,59.4,0,0,0,0,10.16,18.84,18.84,0,0,1-3.77,14.51Z" fill="#fff"/><path d="M740.44,443.8a74.57,74.57,0,0,0,1.45,11.61,22.86,22.86,0,0,1-2.33,16.26c-.28.57-.58,1.16-.86,1.74,0,.29-.29.29-.29.58a27.36,27.36,0,0,1-5.23,7.25c-1.74,1.46-2.9,2.91-4.35,4.36a17.64,17.64,0,0,1-8.13,4.64,44.23,44.23,0,0,1-12.78,1.46,34.32,34.32,0,0,1-15.09-2.91,24.5,24.5,0,0,1-13.36-11.9c0-.29,0-.58-.29-.58-.57-1.45-1.16-2.9-1.74-4.35a16.2,16.2,0,0,1-1.74-9.58c0-2.9,1.74-4.64,4.93-5.23,1.17-.29,2.33-.29,3.49-.58.87,0,1.45-.29,2.32-.29a8.73,8.73,0,0,1,8.42,3.78c.58.87,1.17,1.74,1.74,2.61,2.32,4.35,5.81,6.38,10.45,7a13.18,13.18,0,0,0,6.68-.58,11.13,11.13,0,0,0,4.94-3.19,11.54,11.54,0,0,0,2.61-6.1,59.78,59.78,0,0,0-.58-10.16,8.77,8.77,0,0,0-2.91-6.38c-2-1.74-3.77-3.77-5.51-5.51a13.53,13.53,0,0,0-6.1-3.78c-.58-.29-1.16-.29-1.74-.58A17.74,17.74,0,0,1,701,431.9a35.6,35.6,0,0,1-14.23-9.29,16.58,16.58,0,0,0-2.32-2,29.9,29.9,0,0,1-3.78-4.64A22.92,22.92,0,0,1,676,403.16,61.14,61.14,0,0,0,674.54,393a13.44,13.44,0,0,1,.58-6.68c0-.29.29-.58.29-1.16,1.16-3.77,2.32-7.55,3.2-11.32a13.74,13.74,0,0,1,5.22-7.55,33.47,33.47,0,0,1,25.25-7.83,40.11,40.11,0,0,1,16.84,4.93,27.28,27.28,0,0,1,3.49,2.61c2.32,2.62,4.93,5.23,7.25,7.84A21,21,0,0,1,741,385.17a5.86,5.86,0,0,1-2.91,6.1,11.22,11.22,0,0,1-9.57,1.74,9.36,9.36,0,0,1-7.84-5.23,23.82,23.82,0,0,0-4.94-5.8,8.08,8.08,0,0,0-9-2h-.29a23.09,23.09,0,0,0-7.55,3.78c-3.48,2.61-4.64,6.38-4.06,10.74.29.29.29.29.29.58a12.76,12.76,0,0,1,.58,2.9,13.88,13.88,0,0,0,6.1,9.87,67.89,67.89,0,0,0,16,9.29,38,38,0,0,1,11.62,7.55,27.38,27.38,0,0,1,5.51,6.09,53.23,53.23,0,0,1,4.94,9,6.67,6.67,0,0,1,.58,4.06Z" fill="#fff"/><path d="M829.56,357.89c4.94-.59,7.84,1.74,8.71,6.67a16.58,16.58,0,0,1,0,7.55,7.41,7.41,0,0,1-5.81,6.09,24.44,24.44,0,0,1-7.83,1.17,29.69,29.69,0,0,0-4.94.57c-2.9.3-4.64,2-4.93,5.23a11,11,0,0,0,0,4.35c0,2.9-.29,5.81-.58,8.71a40.91,40.91,0,0,0-.29,5.8,119.26,119.26,0,0,1-.3,14.52c0,.87-.29,2-.29,2.9-.29,1.16-.29,2-.58,3.2a33.5,33.5,0,0,0,.87,7.54v1.16a32.84,32.84,0,0,1-.29,9.29c-.29,2-.29,4.36-.58,6.68a47.42,47.42,0,0,0,.58,6.38,40.83,40.83,0,0,1,0,8.42,66.38,66.38,0,0,0,0,10.74,27.54,27.54,0,0,1-1.16,8.71c-.87,3.48-3.19,5.51-6.67,6.38a.9.9,0,0,0-.58.29,19.93,19.93,0,0,0-3.78.58,5.44,5.44,0,0,1-5.8-3.19,16.51,16.51,0,0,1-1.75-7.26c-.29-5.22-.58-10.15-.86-15.38-.3-2.32-.3-4.64-.59-7.25a42.9,42.9,0,0,1,.29-6.1c0-.58.3-1.16.3-2a52.91,52.91,0,0,0-.3-11.61,31.32,31.32,0,0,1,.58-9,86.27,86.27,0,0,0,.87-12.19,14.64,14.64,0,0,0-.58-3.49v-.57c-.29-2.91-.57-5.81-.87-8.42v-2.62a92.12,92.12,0,0,1,.58-15.38c.29-4.93-2.32-7.54-7.26-8.13a33.94,33.94,0,0,0-5.51.3h-2.32a14.38,14.38,0,0,1-4.94-.3,5.38,5.38,0,0,1-4.06-3.77,25,25,0,0,1-1.74-9.29c0-3.77,2.32-6.1,6.09-7,2,0,4.06-.29,5.81-.29a37.83,37.83,0,0,0,6.1-.3,36.75,36.75,0,0,1,8.12.3,29.73,29.73,0,0,0,11.32,0c3.2-.3,6.39-.59,9.59-.59a65.55,65.55,0,0,1,7.54.29,23.5,23.5,0,0,0,7.84.3Z" fill="#fff"/><path d="M366,105.66v1.45a3.68,3.68,0,0,1,.29,1.74,11.91,11.91,0,0,1,0,6.38,21.11,21.11,0,0,0-.29,9.58,35.43,35.43,0,0,1,0,7.84v.29a64.1,64.1,0,0,0-.29,13.06v2.61a72.92,72.92,0,0,1-.3,16,42,42,0,0,0,.3,16,31.29,31.29,0,0,1,.29,11.61,17.58,17.58,0,0,0,0,7.84,62.87,62.87,0,0,1,0,10.45V211c-.29.87-.29,2-.59,2.9a8.3,8.3,0,0,1-.28,2.61,6.26,6.26,0,0,1-.3,2.33c-1.44,3.19-3.77,4.93-7.25,4.64a16.54,16.54,0,0,1-5.51-.88,6.93,6.93,0,0,1-4.94-5.22,14.56,14.56,0,0,1-.58-3.48,110.5,110.5,0,0,1-.87-13.93v-1.46c0-3.77,0-7.25.28-11a46.28,46.28,0,0,0-.28-11,16.94,16.94,0,0,1,.58-6.68,38.87,38.87,0,0,0,.29-5.8,4,4,0,0,0-1.74-3.2c-.87-.87-2-.87-3.2.29a4.81,4.81,0,0,0-.87,1.74c-.87,2-2,4.36-2.9,6.68-1.75,3.77-3.49,7.55-4.94,11.32a21.77,21.77,0,0,1-1.74,4.64,15.94,15.94,0,0,1-4.06,4.94c-.3.29-.58.58-.88.58a14.66,14.66,0,0,1-10.44,1.16,6.3,6.3,0,0,1-4.36-3.77,33.67,33.67,0,0,1-3.48-7.26,22.78,22.78,0,0,1-1.46-4.06c-1.45-3.78-2.9-7.84-4.35-11.9a16.52,16.52,0,0,0-3.77-6.1,3.51,3.51,0,0,0-3.49-1.16,3.85,3.85,0,0,0-2.32,3.19,41,41,0,0,0,.29,5.81v2.32c0,4.35.29,9,.58,13.64a43,43,0,0,0,.29,6.1c0,3.19,0,6.38-.29,9.57v3.2c0,1.45-.29,2.9-.29,4.35l-.29.3V207a19.2,19.2,0,0,0,0,8.13c.29,2.32,0,4.06-1.16,5.52a11.19,11.19,0,0,1-4.36,2.61A19.16,19.16,0,0,1,276,221.47a6.3,6.3,0,0,1-3.19-2.91,22.54,22.54,0,0,1-.58-4.64,111.66,111.66,0,0,0-.29-13.93v-.59a40.83,40.83,0,0,1,.29-8.41,19.19,19.19,0,0,0,.29-4.07,55.88,55.88,0,0,1,.29-7,8,8,0,0,0,.29-2.61,18.82,18.82,0,0,0-.58-5.81v-1.16a63.42,63.42,0,0,1-1.16-12.77,21.42,21.42,0,0,0,0-6.09c0-2,.29-4.36.29-6.68V144a60,60,0,0,1,.87-10.16,14.24,14.24,0,0,1,.29-3.49V126a40.11,40.11,0,0,0,.29-10.16c-.29-3.77-.29-7.83-.29-11.61v-3.77c0-1.16.29-2,.29-3.19a6,6,0,0,1,4.35-4.65,7.26,7.26,0,0,1,2.33-.29H280a35.39,35.39,0,0,1,9.58.29,8.91,8.91,0,0,1,7.55,5.52c.29,1.16.87,2,1.16,3.19l.87,2.61c1.16,2.62,2.32,4.94,3.48,7.26a20.79,20.79,0,0,1,2,5.52c1.45,4.64,2.91,9.28,4.07,13.63a35.79,35.79,0,0,0,2.9,5.81,12.78,12.78,0,0,1,2,6.39c.29,1.16.59,2.32.87,3.48.29,2.32,1.74,3.48,4.07,4.06a6.61,6.61,0,0,0,3.19-.87,8.83,8.83,0,0,0,2.32-2.32A5.6,5.6,0,0,0,325,144a113.08,113.08,0,0,1,6.39-17.42,55.71,55.71,0,0,0,3.49-10.45,18.41,18.41,0,0,1,2.9-7.54,47.69,47.69,0,0,0,5.51-9.87,41,41,0,0,1,2.61-3.77,6.63,6.63,0,0,1,5.23-2.62,40.83,40.83,0,0,1,8.42,0c3.78.88,5.8,2.9,5.8,6.68a7.77,7.77,0,0,1,.3,2.61,9.85,9.85,0,0,0,.29,4.07Z" fill="#241b2e"/><path d="M466.68,91.72a6.32,6.32,0,0,1,5.52,2c1.16,1.45,1.45,3.49,1.16,5.81a50.92,50.92,0,0,1-5.23,13.06,94.29,94.29,0,0,0-7.25,14.22,36.8,36.8,0,0,1-5.23,10.74,24.55,24.55,0,0,0-3.77,7.84,72.14,72.14,0,0,1-2.91,7,17.16,17.16,0,0,0-1.45,6.67v.29c-.29,2.61-.29,4.65-.58,7.26a117,117,0,0,1-.87,14.22c-.29.29-.29.29-.29.58a17.54,17.54,0,0,0,.29,6.68,31.25,31.25,0,0,1,0,11.61v3.19h0v10.74a14.69,14.69,0,0,1-.58,3.77c-.87,3.78-2.91,5.52-6.68,5.81a1.74,1.74,0,0,1-1.16.29h-.58a13.56,13.56,0,0,1-6.1-1.45,6.85,6.85,0,0,1-3.19-3.19c-.29-.59-.58-.88-.87-1.46a1.74,1.74,0,0,0-.29-1.16,13.65,13.65,0,0,1-.58-10.16,15.36,15.36,0,0,0,.29-7.25,69.32,69.32,0,0,1-1.16-13.36c0-.58.29-.87.29-1.44v-6.68c0-.58-.29-1.45-.29-2a70.67,70.67,0,0,1,.29-7.83,14.78,14.78,0,0,0-.87-6.09,69.69,69.69,0,0,1-1.45-7.55,22.6,22.6,0,0,0-1.45-4.65,44.82,44.82,0,0,0-4.36-8.13,36.09,36.09,0,0,1-2.9-5.8,20.88,20.88,0,0,0-3.49-6.09,15.73,15.73,0,0,1-2.32-6.1,34,34,0,0,0-4.93-11,62.06,62.06,0,0,1-5.81-11.61,5.91,5.91,0,0,1,.29-5.81,6.22,6.22,0,0,1,4.64-3.77,19,19,0,0,1,9.88.87,11.64,11.64,0,0,1,4.64,3.77c0,.3,0,.3.29.3.58.87,1.16,2,1.74,2.9a48.59,48.59,0,0,0,2.9,5.22c1.46,3.2,3.2,6.39,4.65,9.58a29.27,29.27,0,0,0,2,4.35,53.22,53.22,0,0,1,3.19,5.52,5.41,5.41,0,0,0,1.45,2,2.67,2.67,0,0,0,2,.87,3.86,3.86,0,0,0,2.32-.87l.87-.87a6.34,6.34,0,0,0,.87-1.45,38.93,38.93,0,0,0,5.52-9.58c.29-1.16.58-2,.87-3.19a12.12,12.12,0,0,0,1.16-2.9,35.16,35.16,0,0,1,5.23-10.46,8.5,8.5,0,0,1,5.22-3.76,30.45,30.45,0,0,1,9-1.46Z" fill="#241b2e"/><path d="M634.48,145.71a22.52,22.52,0,0,1,.58,9.87,9.58,9.58,0,0,0,0,4.06,35.37,35.37,0,0,1-.29,9.58,51.41,51.41,0,0,0-.29,6.68,104,104,0,0,1-.59,16.54,19.1,19.1,0,0,0,.3,5.81,21.71,21.71,0,0,1,.58,6.09,16.67,16.67,0,0,0,.29,3.78,35.45,35.45,0,0,1-.58,9.57,5.37,5.37,0,0,1-3.78,4.06,18.05,18.05,0,0,1-10.45,1.46c-4.06-.87-5.8-3.2-5.22-7.26v-7.26a151.84,151.84,0,0,1,0-16.25V176.77a9.26,9.26,0,0,0-.58-4.07,6.52,6.52,0,0,0-4.36-4.35,9.69,9.69,0,0,0-4.94-.58,38.94,38.94,0,0,1-11.61,0,7.13,7.13,0,0,0-8.13,4.64,12.94,12.94,0,0,0-.86,9.29,16.37,16.37,0,0,1,.28,9.87,17.11,17.11,0,0,0-.28,3.77v.58a56,56,0,0,1-.29,7,30.45,30.45,0,0,0,0,5.23,17.79,17.79,0,0,1-.59,8.7,7.4,7.4,0,0,1-6.09,5.8,27.1,27.1,0,0,1-7,0c-3.19-.87-5.22-2.89-5.52-6.38v-2.9a27,27,0,0,0,0-7v-.3c-.29-2.61-.58-5.51-.87-8.12a29.27,29.27,0,0,1,.29-8.71,31.56,31.56,0,0,0-.29-9,35.1,35.1,0,0,1,.29-5.51,57.31,57.31,0,0,0,1.16-12.2,23.75,23.75,0,0,0-.87-6.38,26.73,26.73,0,0,1-.58-9.58v-3.19a53.7,53.7,0,0,1,.58-11.9,2.61,2.61,0,0,1,.29-1.45,23.23,23.23,0,0,0-.29-7.84,15.84,15.84,0,0,1,0-9,17.58,17.58,0,0,0,0-7.84,39.3,39.3,0,0,1-.58-5.8c.29-4.94,2.91-7.84,7.84-8.42a14.49,14.49,0,0,1,7,.87,7.38,7.38,0,0,1,4.06,3.78,19.3,19.3,0,0,1,2,7v.58a44.49,44.49,0,0,1,.28,6.1,73.46,73.46,0,0,1-.28,7.84,1.05,1.05,0,0,1-.3.87,49.94,49.94,0,0,0,.58,11.31,32.81,32.81,0,0,1,0,10.74,5.17,5.17,0,0,0-.28,2c.28,3.19,1.74,4.64,4.64,5.22.87,0,1.45-.29,2-.29a11,11,0,0,1,4.36,0c3.48.29,6.67.29,10.16.29h.58a8.82,8.82,0,0,0,6.39-2.9,11.6,11.6,0,0,0,1.45-2.62,17.89,17.89,0,0,0,.29-9.57,28.54,28.54,0,0,1-.88-9.87,68.41,68.41,0,0,0,.3-7.84v-1.16a38.75,38.75,0,0,1,.58-10.16c.29-.87.29-1.74.58-2.61a5.65,5.65,0,0,1,.29-2.32c.87-4.65,3.48-7,8.12-7a22,22,0,0,1,4.36.29,6.4,6.4,0,0,1,4.35,4.65,32.88,32.88,0,0,1,1.75,9.29c.29,3.19.29,6.38.87,9.57a25.54,25.54,0,0,1-.29,8.13,28,28,0,0,0,0,7,26.59,26.59,0,0,1-.29,4.94,12.56,12.56,0,0,1-.29,1.45,2.66,2.66,0,0,1-.29,1.46,16.45,16.45,0,0,0,.29,7.54Z" fill="#241b2e"/><path d="M726.5,205.5c4.07.88,6.1,3.77,6.1,7.84-.58,4.06-2,7-4.36,9a10.93,10.93,0,0,1-7.83,2.32H714a39.7,39.7,0,0,0-10.16,0A54.45,54.45,0,0,1,692,225l-7.84-.87a56.47,56.47,0,0,0-7-.58c-3.48-.29-5.52-2.62-6.09-6.39v-4.06a70.32,70.32,0,0,0-1.17-8.13,22.5,22.5,0,0,1,.29-7.54,17.91,17.91,0,0,0-.29-7.84,23.62,23.62,0,0,1,0-11,14.18,14.18,0,0,0,0-7c0-2-.28-3.77-.28-5.51a26.64,26.64,0,0,0,0-6.68v-.29a38.06,38.06,0,0,0-.3-8.12,61.63,61.63,0,0,1,.87-12.77c0-.88.29-1.75.29-2.62a45.65,45.65,0,0,0-.58-18.86A26.46,26.46,0,0,1,669,110v-2a65.63,65.63,0,0,1,.29-7.55,10.06,10.06,0,0,1,2.91-6.1,9,9,0,0,1,5.51-2.61c5.52-.29,11-.87,16.55-1.16a4,4,0,0,1,2.61,0h1.46a25.75,25.75,0,0,1,6.67.29,66.69,66.69,0,0,0,10.74.58h6.1c4.36,0,7,2,8.42,6.1a18.7,18.7,0,0,1,.87,5.8,7.12,7.12,0,0,1-1.74,4.65,11.07,11.07,0,0,1-3.78,2.61,14.56,14.56,0,0,1-3.48.58,100.07,100.07,0,0,0-13.36.87,20.49,20.49,0,0,1-4.06.29h-.87a51.49,51.49,0,0,0-6.68.29c-3.48.29-5.51,2-6.38,5.52a22,22,0,0,0,0,8.7v6.68a35.82,35.82,0,0,0-.3,5.52c.3,2.61,1.17,4.64,2.91,5.8a11.54,11.54,0,0,0,6.09,2.61,51.41,51.41,0,0,0,6.68-.29,33.65,33.65,0,0,1,13.07,1.45A6.86,6.86,0,0,1,723,151.8a11,11,0,0,1,1.74,8.42,8.36,8.36,0,0,1-5.22,6.39,11.73,11.73,0,0,1-4.36.87,78.92,78.92,0,0,1-8.42-.29,52.93,52.93,0,0,0-9.58.29c-4.06.58-6.09,2.9-6.38,7-.3,3.19-.58,6.68-.87,10.16v2.32a45.11,45.11,0,0,1,.29,6.39v4.07a5.56,5.56,0,0,0,4.35,5.22,23.82,23.82,0,0,0,9,.87,45,45,0,0,1,13.93.58,25.38,25.38,0,0,1,4.65.58c.87,0,1.74.29,2.32.29a4.19,4.19,0,0,1,2,.58Z" fill="#241b2e"/><path d="M802.56,176.19c3.78-.58,4.94-2.62,4.36-6.1-.58-4.06-1.16-7.83-1.45-11.9a45,45,0,0,0-1.16-6.09,13,13,0,0,0-1.46-2,3.21,3.21,0,0,0-2.9-1.45c-1.16,0-2,.87-2.9,2a12.78,12.78,0,0,0-1.46,4.35,28.6,28.6,0,0,1-2,9.87,12,12,0,0,0-1.45,5.22,5.28,5.28,0,0,0,4.06,6.1,16.78,16.78,0,0,0,3.49.29H800a6.44,6.44,0,0,0,2.61-.29ZM836,197.66v.59a116.47,116.47,0,0,0,2.32,14.51,10.6,10.6,0,0,1,.29,6.67c-.87,2.91-2.61,4.36-5.51,4.36a28.29,28.29,0,0,1-9.87-2,6.78,6.78,0,0,1-4.36-4.93,10.23,10.23,0,0,1-.87-4.06c0-.58-.3-1.16-.3-1.74a22.85,22.85,0,0,0-3.76-9.58,9.8,9.8,0,0,0-8.13-4.06h-2.91c-3.19,0-6.68.28-9.87.28h-1.16c-4.65.59-7.55,2.91-8.42,7.84v2.9a17.17,17.17,0,0,1-2,8.42,9.21,9.21,0,0,1-6.1,5.23,32.15,32.15,0,0,1-7.55.87c-2.61,0-4.64-.87-5.8-2.61a9.55,9.55,0,0,1-1.45-6.1,16.35,16.35,0,0,1,1.16-3.48v-.29a63.8,63.8,0,0,0,3.2-12.19,23.37,23.37,0,0,0,.57-4.36,40.28,40.28,0,0,1,2-9.86,3.27,3.27,0,0,1,.28-1.46v-.29c1.75-6.38,3.2-12.48,4.65-18.87a14.36,14.36,0,0,1,1.16-3.77,42.06,42.06,0,0,0,2.91-11.9,11.62,11.62,0,0,1,.86-4.35c.88-3.49,1.75-6.68,2.33-10.16a33,33,0,0,1,1.74-7.26,22.19,22.19,0,0,0,1.74-8.7,42.36,42.36,0,0,1,1.16-5.81,27.19,27.19,0,0,0,2.32-8.71,19.63,19.63,0,0,1,2.91-6.68,4.51,4.51,0,0,1,1.74-2.32,15.37,15.37,0,0,1,7-2.9,13,13,0,0,1,7.55.29,7.38,7.38,0,0,1,4.64,4.65c.29.28.29.58.58.87a65.65,65.65,0,0,1,4.35,12.77c.3,1.74.58,3.48.88,5.22a26.73,26.73,0,0,1,1.44,8.13,31.6,31.6,0,0,0,3.2,10.45,34.39,34.39,0,0,1,3.2,12.19v.29a7.45,7.45,0,0,0,.28,2.32c.58,2.32.87,4.64,1.46,7a37.78,37.78,0,0,0,2.32,9.87,30.8,30.8,0,0,1,1.16,5.51,44.78,44.78,0,0,0,3.78,13.93,55.19,55.19,0,0,1,2.9,13.35Z" fill="#241b2e"/><path d="M917.52,142.23c2.33-2.33,3.2-5.23,3.2-8.71a44.59,44.59,0,0,0-2-12.48,8.58,8.58,0,0,0-4.35-4.65c-1.45-.29-2.61-.87-3.78-1.16-.29,0-.29-.29-.58-.29a35.53,35.53,0,0,0-9.29-2c-5.22-.29-7.83,1.74-8.12,6.68v2.61a19.51,19.51,0,0,1-.29,5.8,27.63,27.63,0,0,0-.29,7,23.64,23.64,0,0,0,.87,9,6.84,6.84,0,0,0,2.61,4.64,7,7,0,0,0,5.22,1.16,3.17,3.17,0,0,0,1.46-.29c.58,0,1.16-.29,1.74-.29,1.16-.29,2.61-.58,3.77-.87a13.87,13.87,0,0,0,9.87-6.09Zm9.29,22.05a9.16,9.16,0,0,0-2.61,9.29A113.05,113.05,0,0,0,929.42,193c.59,1.16.88,2.62,1.46,3.77a49.89,49.89,0,0,0,4.64,10.74,18,18,0,0,1,2,6.68,15.25,15.25,0,0,1,0,5.22,5.57,5.57,0,0,1-5.22,4.07,24.46,24.46,0,0,1-10.16-1.16,9.18,9.18,0,0,1-4.94-4.36,23.08,23.08,0,0,1-2-5.8,49,49,0,0,0-4.35-12.48c-.88-1.74-2-3.2-2.91-4.94a13.9,13.9,0,0,1-2-5.8,30.74,30.74,0,0,0-4.35-12.19,7.39,7.39,0,0,0-2.33-2.9,3.93,3.93,0,0,0-4.35-.88,4.41,4.41,0,0,0-2.9,3.78v4.64a37,37,0,0,1,0,11.32v2.61a24.18,24.18,0,0,0-.3,4.65,26.53,26.53,0,0,1-.29,4.93,40.92,40.92,0,0,0-.28,8.42h0a14.82,14.82,0,0,1-.3,3.77c-.58,4.36-2.9,6.1-7.25,6.1l-5.23-.87c-3.48-.87-5.51-2.91-5.81-6.39v-2.32c-.28-3.19-.58-6.38-.58-9.58-.29-1.74-.29-3.77-.57-5.52a28.89,28.89,0,0,1,.28-8.7,35.68,35.68,0,0,0,.59-5.52V175a41.76,41.76,0,0,0-.59-8.41v-5.22a69.66,69.66,0,0,0-.58-17.42,43.71,43.71,0,0,1,0-8.71c0-.29.3-.87.3-1.16.28-3.48.57-7,.87-10.45a39.18,39.18,0,0,0-.59-10.16,22.2,22.2,0,0,1,0-7.54,13.28,13.28,0,0,0-.28-5.81,6.48,6.48,0,0,1,.87-5.81,8.91,8.91,0,0,1,4.35-2.9,18.22,18.22,0,0,1,5.52-.87,65.63,65.63,0,0,1,7.55-.29,11.82,11.82,0,0,1,3.19-.29,30.73,30.73,0,0,1,7.26.58,15.28,15.28,0,0,0,3.77.29,14.12,14.12,0,0,0,3.48.29,22.1,22.1,0,0,1,4.36.29,22.73,22.73,0,0,1,11.9,4.94,57.52,57.52,0,0,1,9.29,9.58,51.69,51.69,0,0,1,7.26,13.64,36.9,36.9,0,0,1,1.74,11.32,37.72,37.72,0,0,1-3.77,16.83,90.9,90.9,0,0,1-7.26,12.19,27.5,27.5,0,0,1-4.07,4.35Z" fill="#241b2e"/><path d="M1030.45,90.56c4.94-.29,7.84,1.74,9,6.68a32.76,32.76,0,0,1,0,7.54,8.51,8.51,0,0,1-6.1,6.39,72.86,72.86,0,0,1-7.83,1.16,25,25,0,0,0-4.65.29c-3.19.58-4.93,2.32-5.23,5.52v4.35c0,2.9-.29,5.8-.57,8.7a18.84,18.84,0,0,0,0,5.81,114.57,114.57,0,0,1-.59,14.22,11.82,11.82,0,0,1-.29,3.19c0,.88-.29,2-.29,2.91a32,32,0,0,0,.58,7.55c0,.58,0,.87.29,1.16a32.13,32.13,0,0,1-.29,9.28,56.47,56.47,0,0,0-.58,7,43,43,0,0,0,.29,6.1,29.27,29.27,0,0,1,.29,8.71c-.29,3.48-.29,7-.29,10.73a30,30,0,0,1-1.16,8.71c-.87,3.48-2.9,5.52-6.39,6.09a1,1,0,0,1-.87.3,14.47,14.47,0,0,1-3.48.58,5.64,5.64,0,0,1-6.09-3.19,15.68,15.68,0,0,1-1.75-7.26c-.29-4.93-.58-10.16-.87-15.09a63.33,63.33,0,0,1-.29-7.26,21.49,21.49,0,0,1,0-6.1,5.66,5.66,0,0,0,.29-2,77.55,77.55,0,0,0,0-11.61,33.29,33.29,0,0,1,.29-9.29,86.16,86.16,0,0,0,.87-12.19,11.9,11.9,0,0,0-.29-3.19v-.58a44.36,44.36,0,0,1-.87-8.71c0-.87-.29-1.74-.29-2.32a89.81,89.81,0,0,1,.58-15.38c.29-4.94-2-7.84-7-8.42a38.93,38.93,0,0,0-5.8.29c-.58,0-1.45.29-2,.29a13.54,13.54,0,0,1-4.93-.58,5,5,0,0,1-4.36-3.77,23.73,23.73,0,0,1-1.75-9q.45-6.09,6.11-7a42.92,42.92,0,0,1,5.8-.29c2.32,0,4.35-.29,6.38-.29a25.81,25.81,0,0,1,8.13.29,37,37,0,0,0,11.32,0,50.47,50.47,0,0,1,9.3-.87,61.23,61.23,0,0,1,7.54.58,35.43,35.43,0,0,0,7.84,0Z" fill="#241b2e"/><path d="M394.4,639.43a6.16,6.16,0,0,1,1.45,3.78,8.6,8.6,0,0,1-.58,4.64,30.25,30.25,0,0,1-1.75,4.64c-1.15,2.62-3.19,3.78-6.09,3.78h-.58c-.29,0-.29,0-.58-.29a43.78,43.78,0,0,0-10.74-.58h-8.71a14.45,14.45,0,0,0-9.59,4.06,4,4,0,0,0-1.15,3.19,4.32,4.32,0,0,0-.29,2,82.62,82.62,0,0,1-1.16,14.51,17.29,17.29,0,0,0,2,10.15,4.46,4.46,0,0,0,4.93,2.33A90.38,90.38,0,0,1,377,692h1.74a14.12,14.12,0,0,1,3.48.29,6.18,6.18,0,0,1,5.52,5.51,30.92,30.92,0,0,1,.29,9c-.87,3.78-3.19,5.8-7,5.8a98.2,98.2,0,0,1-13.06-.28,31.6,31.6,0,0,0-7.26.28,7.62,7.62,0,0,0-5.51,5.52,29.33,29.33,0,0,0-.58,15.1,29.82,29.82,0,0,1,0,10.15,48.48,48.48,0,0,0,0,13.07c0,.29,0,.58.28.58a15.25,15.25,0,0,1,0,5.22,6.43,6.43,0,0,1-3.77,5.52,13.69,13.69,0,0,1-9.58,1.74,6.52,6.52,0,0,1-5.52-4.94,24.41,24.41,0,0,1-1.15-7.83v-2.62a79.8,79.8,0,0,0-.59-8.13c-.29-.28-.29-.57-.29-1.15a17.74,17.74,0,0,1,.29-8.71,45.22,45.22,0,0,0,.3-13.93,21.33,21.33,0,0,0-.3-4.36c-.29-4.64-.58-9-.87-13.64a121.18,121.18,0,0,1,.29-14.51,43.26,43.26,0,0,0,.58-6.1,42.16,42.16,0,0,0,0-8.7,146.66,146.66,0,0,1,0-16,29.37,29.37,0,0,0,0-7.26V649.3a36.53,36.53,0,0,1,1.17-7.83,7.41,7.41,0,0,1,6.09-5.81c1.16,0,2.33-.29,3.48-.29s2.33-.29,3.49-.29h1.74a49.38,49.38,0,0,1,6.68.29h1.16a25.68,25.68,0,0,0,6.67,0,1.05,1.05,0,0,1,.58-.29,33.55,33.55,0,0,1,5.53.29,70.46,70.46,0,0,0,11,.87,37.1,37.1,0,0,1,5.81.29,9.48,9.48,0,0,1,6.68,2.9Z" fill="#241b2e"/><path d="M474.23,714.61a28.06,28.06,0,0,1,.58-11,15.35,15.35,0,0,0,0-7.26,23.75,23.75,0,0,1-.29-7.84,55.86,55.86,0,0,0,.29-7.25,29.82,29.82,0,0,0-.29-4.93v-7a9.15,9.15,0,0,0-2-6.1c-3.19-5.22-7.84-7.25-13.93-6.38a10,10,0,0,0-4.65,2.32,29.35,29.35,0,0,0-5.52,10.74,23.58,23.58,0,0,0,0,6.39v.29a35.16,35.16,0,0,1,0,11,17.26,17.26,0,0,0,.29,6.67,25.4,25.4,0,0,1-.29,10.45,21.64,21.64,0,0,0-.58,7.55c.58,6.38.87,13.06.87,19.73,0,1.75.29,3.49.29,5.23a10.72,10.72,0,0,0,2.62,5.51,17.92,17.92,0,0,0,9,4.65c3.2.87,6.1,0,9-2a11.48,11.48,0,0,0,4.36-8.42,25.38,25.38,0,0,0,.58-4.64,11.93,11.93,0,0,1,.29-3.2v-.87a22,22,0,0,0,.29-4.35c0-.87-.29-2-.29-3.19a43.55,43.55,0,0,1-.58-6.1ZM496,665.56a9.87,9.87,0,0,1,.29,2.9,19.78,19.78,0,0,1,.58,7.26,33.79,33.79,0,0,1,0,5.51,10.24,10.24,0,0,0-.28,2.91,1,1,0,0,1-.3.57v1.75c0,2.89,0,6.09-.29,9a33.35,33.35,0,0,0,0,10.74v1.45a70.65,70.65,0,0,1,0,19.16c-.29,3.48-.58,7-.58,10.45a23.57,23.57,0,0,1-.29,6.38,28.45,28.45,0,0,1-10.74,18,33.81,33.81,0,0,1-17.13,6.68,4.94,4.94,0,0,0-2,.29c-1.74.29-3.48.29-4.93.58a11.69,11.69,0,0,1-4.36-.87c-1.45-.29-2.9-.88-4.06-1.16a90.4,90.4,0,0,1-9.3-3.49,19.13,19.13,0,0,1-8.41-5.8,25.52,25.52,0,0,1-4.65-8.13,50.57,50.57,0,0,1-2.61-8.71,22,22,0,0,1,0-8.7,29.81,29.81,0,0,0-.29-11.33v-4.06a6.39,6.39,0,0,0,.29-2.32v-7.84a44.9,44.9,0,0,0,.29-6.38,17.06,17.06,0,0,1,.58-3.78,13.91,13.91,0,0,0,0-7,24.86,24.86,0,0,1-.29-9.29,19.51,19.51,0,0,0,0-5.81,43.7,43.7,0,0,1,2.9-20,26.36,26.36,0,0,1,8.42-10.45c.58-.29,1.16-.87,1.74-1.17,1.46-1.15,3.2-2.61,4.94-3.77a5.9,5.9,0,0,1,4.35-1.74,75,75,0,0,0,11.33-1.16,21.28,21.28,0,0,1,15.67,2.61c1.16.58,2.33,1.16,3.48,1.75,1.46.87,2.91,1.44,4.36,2.31a12.51,12.51,0,0,1,5.52,6.1c1.16,2.61,2.32,5.23,3.48,8.13a27.86,27.86,0,0,1,2.32,8.42Z" fill="#241b2e"/><path d="M577.58,687.33a14,14,0,0,0,3.19-8.72,45.3,45.3,0,0,0-2.32-12.48,7.69,7.69,0,0,0-4.36-4.64,20.14,20.14,0,0,0-3.77-1.45h-.58a33.6,33.6,0,0,0-9.29-2.32c-5.23-.29-7.84,2-7.84,6.67V667a37,37,0,0,1-.29,5.8,28.32,28.32,0,0,0-.58,7,50.44,50.44,0,0,0,.87,9.29,6.87,6.87,0,0,0,2.61,4.35c1.17,1.16,2.91,1.46,5.23,1.16h1.45c.58-.29,1.16-.29,1.74-.58a20.05,20.05,0,0,1,3.78-.58,17.64,17.64,0,0,0,10.16-6.09Zm9.29,21.77c-2.61,2.61-3.78,5.8-2.91,9.28a114,114,0,0,0,5.23,19.45,22.73,22.73,0,0,1,1.45,4.06,70.16,70.16,0,0,0,4.64,10.74,25.82,25.82,0,0,1,2.33,6.68,14.15,14.15,0,0,1-.29,4.93,5.87,5.87,0,0,1-5.23,4.36,27.75,27.75,0,0,1-9.87-1.17,9.11,9.11,0,0,1-5.22-4.64,35,35,0,0,1-2-5.8,43.5,43.5,0,0,0-4.35-12.19,27.63,27.63,0,0,0-2.9-4.94,15.17,15.17,0,0,1-2-6.09,37.69,37.69,0,0,0-4.06-12.19,6.7,6.7,0,0,0-2.32-2.61c-1.45-1.17-2.9-1.75-4.65-1.17a4,4,0,0,0-2.61,3.78,12.48,12.48,0,0,0,0,4.64,77.58,77.58,0,0,1,0,11.61c0,.58-.29,1.45-.29,2.32,0,1.74-.29,3.19-.29,4.94a14.16,14.16,0,0,1-.29,4.93,38.17,38.17,0,0,0-.29,8.13v4.06c-.58,4.07-3.2,6.1-7.26,5.81a18.21,18.21,0,0,1-5.51-.87c-3.49-.59-5.23-2.91-5.52-6.39a5.65,5.65,0,0,1-.29-2.32c-.29-3.2-.58-6.39-.58-9.58a39.92,39.92,0,0,0-.58-5.52,27,27,0,0,1,.29-8.41,19.83,19.83,0,0,0,.58-5.81c0-2.9,0-6.09.29-9,0-2.9-.29-5.8-.58-8.7a19.15,19.15,0,0,1-.29-4.06v-.88a72.08,72.08,0,0,0-.29-17.7,20.58,20.58,0,0,1,0-8.42v-1.45l.87-10.45a39.76,39.76,0,0,0-.29-10.16,20.4,20.4,0,0,1-.29-7.26,12.88,12.88,0,0,0-.29-5.8c-.29-2.61,0-4.35,1.16-5.81a7.22,7.22,0,0,1,4.36-3.19c1.74-.29,3.48-.58,5.51-.87,2.32,0,4.94-.29,7.26-.29a11.9,11.9,0,0,0,3.19-.29,56.8,56.8,0,0,1,7.26.58c1.45.29,2.61.29,3.77.58h3.49c1.45,0,2.9.29,4.35.29a23.18,23.18,0,0,1,11.91,5.23A74.59,74.59,0,0,1,593,651a45,45,0,0,1,7,13.35A38.87,38.87,0,0,1,601.67,676a36.39,36.39,0,0,1-3.77,16.55,83.19,83.19,0,0,1-7,12.19,19.79,19.79,0,0,1-4.06,4.36Z" fill="#241b2e"/><path d="M768.6,636.53a7.26,7.26,0,0,1,5.52,2c1.15,1.45,1.44,3.48,1.15,5.81a50.9,50.9,0,0,1-5.22,13.06,85.5,85.5,0,0,0-7.26,14.51,35.19,35.19,0,0,1-5.22,10.45,32,32,0,0,0-3.78,7.84,54,54,0,0,1-2.9,7.25,15.89,15.89,0,0,0-1.45,6.39v.58a56,56,0,0,0-.29,7c-.29,4.93-.59,9.57-1.17,14.22a.91.91,0,0,0-.28.58,17.44,17.44,0,0,0,.28,6.67,31.1,31.1,0,0,1,0,11.62V748h0v10.45a19.56,19.56,0,0,1-.57,4.06c-.88,3.48-2.91,5.52-6.68,5.81H739a10.5,10.5,0,0,1-6.09-1.46,5.71,5.71,0,0,1-3.19-3.19,6.34,6.34,0,0,1-.87-1.45,1.07,1.07,0,0,0-.29-.87,13.68,13.68,0,0,1-.58-10.16,13.31,13.31,0,0,0,.28-7.55,67.21,67.21,0,0,1-1.15-13.35,13,13,0,0,0,.28-1.45v-6.67c0-.58-.28-1.17-.28-2a73.18,73.18,0,0,1,.28-7.83,14.85,14.85,0,0,0-.87-6.1,57.74,57.74,0,0,1-1.45-7.55A12.42,12.42,0,0,0,723.6,694a41.48,41.48,0,0,0-4.35-7.84,57.13,57.13,0,0,1-2.91-6.09,32.7,32.7,0,0,0-3.48-6.1,14.24,14.24,0,0,1-2.32-5.8,29.31,29.31,0,0,0-4.94-11,63.8,63.8,0,0,1-5.8-11.9,5.85,5.85,0,0,1,.29-5.81,7.2,7.2,0,0,1,4.64-3.48,16.32,16.32,0,0,1,9.87.58,12.46,12.46,0,0,1,4.65,4.07l.29.29,1.74,2.61a33.06,33.06,0,0,0,2.9,5.51c1.45,2.9,3.19,6.1,4.65,9.58a29.27,29.27,0,0,0,2,4.35,34.7,34.7,0,0,1,3.19,5.52c.58.58.87,1.16,1.45,1.74a3.17,3.17,0,0,0,2,.87,3.14,3.14,0,0,0,2.33-.58l.87-.87c.29-.58.58-.87.87-1.45a39.4,39.4,0,0,0,5.51-9.58q.45-1.74.87-3.48a8.66,8.66,0,0,0,1.17-2.91,39.12,39.12,0,0,1,5.22-10.44,10.51,10.51,0,0,1,5.52-3.78,38.91,38.91,0,0,1,8.71-1.45Z" fill="#241b2e"/><path d="M852.5,714.61a28.06,28.06,0,0,1,.57-11,15.35,15.35,0,0,0,0-7.26,24,24,0,0,1-.28-7.84,57.84,57.84,0,0,0,.28-7.25V676.3a58.11,58.11,0,0,1-.28-7,10.85,10.85,0,0,0-1.74-6.1c-3.49-5.22-8.13-7.25-14.23-6.38a8,8,0,0,0-4.36,2.32,26.1,26.1,0,0,0-5.81,10.74,24.41,24.41,0,0,0,0,6.39v.29a34.57,34.57,0,0,1,0,11,17.46,17.46,0,0,0,.3,6.67,25.24,25.24,0,0,1-.3,10.45,21.88,21.88,0,0,0-.57,7.55c.57,6.38.87,13.06.87,19.73a31.7,31.7,0,0,1,.29,5.23,10.78,10.78,0,0,0,2.61,5.51,18,18,0,0,0,9,4.65,10.15,10.15,0,0,0,9-2A11.44,11.44,0,0,0,852.2,737a24.56,24.56,0,0,0,.59-4.64,12.34,12.34,0,0,1,.28-3.2v-.87a21.23,21.23,0,0,0,.3-4.35c0-.87-.3-2-.3-3.19a45.08,45.08,0,0,1-.57-6.1Zm21.77-49.05c.29.87.29,2,.58,2.9a56.51,56.51,0,0,1,.58,7.26c0,1.74-.29,3.77-.29,5.51a9.9,9.9,0,0,0-.29,2.91v.57a3.7,3.7,0,0,0-.29,1.75c0,2.89,0,6.09-.29,9a33.35,33.35,0,0,0,0,10.74v1.45a70.65,70.65,0,0,1,0,19.16c-.29,3.48-.58,7-.58,10.45a23.57,23.57,0,0,1-.29,6.38,28.46,28.46,0,0,1-10.75,18,33.77,33.77,0,0,1-17.12,6.68,4.91,4.91,0,0,0-2,.29c-1.75.29-3.2.29-4.94.58a11.73,11.73,0,0,1-4.36-.87c-1.45-.29-2.61-.88-4.06-1.16a91.1,91.1,0,0,1-9.29-3.49,19.13,19.13,0,0,1-8.41-5.8,25.52,25.52,0,0,1-4.65-8.13,49.7,49.7,0,0,1-2.61-8.71,21.6,21.6,0,0,1,0-8.7,37.11,37.11,0,0,0,0-11.33,19.15,19.15,0,0,1-.29-4.06,6.39,6.39,0,0,0,.29-2.32v-7.84a44.9,44.9,0,0,0,.29-6.38,17.06,17.06,0,0,1,.58-3.78,14.14,14.14,0,0,0,0-7,24.86,24.86,0,0,1-.29-9.29,19.51,19.51,0,0,0,0-5.81,43.7,43.7,0,0,1,2.9-20,26.27,26.27,0,0,1,8.42-10.45c.57-.29,1.16-.87,1.74-1.17,1.74-1.15,3.19-2.61,4.94-3.77a5.89,5.89,0,0,1,4.35-1.74,74.92,74.92,0,0,0,11.32-1.16,21.3,21.3,0,0,1,15.68,2.61l3.48,1.75c1.46.87,2.9,1.44,4.35,2.31a12.51,12.51,0,0,1,5.52,6.1c1.16,2.61,2.32,5.23,3.48,8.13a27.59,27.59,0,0,1,2.33,8.42Z" fill="#241b2e"/><path d="M973,753.21c-.58.87-1.16,1.46-1.45,2a18.41,18.41,0,0,1-2.9,3.78,11.43,11.43,0,0,1-4.36,2.9,46.92,46.92,0,0,0-5.22,2.9A34.23,34.23,0,0,1,946,768.89a9.72,9.72,0,0,1-2.9,0c-.58-.29-1.45-.29-2.33-.58a75,75,0,0,1-12.77-3.2h-.29a36,36,0,0,1-9-4.06,17.65,17.65,0,0,1-4.64-4.64,35.12,35.12,0,0,1-5.52-16.55,51.42,51.42,0,0,1,.29-11.61,5.48,5.48,0,0,1,.3-2.32,27.32,27.32,0,0,0-.3-4.94,3.68,3.68,0,0,0-.29-1.74v-8.13a56,56,0,0,1,.29-7,96.55,96.55,0,0,0-.29-13.06v-3.2c-.29-1.16-.29-2.31-.58-3.19,0-.29,0-.29-.29-.57a14.43,14.43,0,0,1,.29-7.84,25.65,25.65,0,0,0,.58-4.94V649.59a49.16,49.16,0,0,0,.29-6.38,4.74,4.74,0,0,1,4.07-4.94,17.92,17.92,0,0,1,11,0,6.59,6.59,0,0,1,4.06,4.64,25,25,0,0,1,.58,4.94,38,38,0,0,0,.3,9.87,2.17,2.17,0,0,0,.29,1.45,58.32,58.32,0,0,1,.58,7,77.93,77.93,0,0,0-.58,11.61,29,29,0,0,1,0,7c0,4.64.28,9,.58,13.64A8.06,8.06,0,0,0,930,701a53.51,53.51,0,0,1-.87,9.58,28,28,0,0,0,0,7,56.89,56.89,0,0,1,.58,15.68c-.3,3.19.29,5.8,2.61,8.12a8,8,0,0,0,1.45,1.75c.29.28.58.87,1.16,1.16,2.91,3.19,6.1,4.06,10.16,2.6a16.09,16.09,0,0,0,5.81-3.19,7.42,7.42,0,0,0,2.9-3.77,21.72,21.72,0,0,0,1.16-4.64,85.87,85.87,0,0,0,.58-12.19v-.58a47.23,47.23,0,0,1,.87-9c.29-3.2.59-6.68.59-10.16-.3-4.06-.59-8.13-1.17-12.48,0-1.74-.29-3.48-.29-5.22v-3.78a103.19,103.19,0,0,1,.87-13.35,2.17,2.17,0,0,0-.29-1.45,30.37,30.37,0,0,1,0-7.26,57.61,57.61,0,0,0-.87-10.16,8.93,8.93,0,0,1,0-5.51,8.62,8.62,0,0,1,7.26-7.26,23.48,23.48,0,0,1,9,0c3.19.58,4.94,2.61,5.81,5.81a14.38,14.38,0,0,1,0,7,64,64,0,0,0-.59,7.55v12.19c0,2.61.29,5.22.29,7.84a39.47,39.47,0,0,1,0,8.42,28.19,28.19,0,0,0,.3,9.86,23.9,23.9,0,0,1,0,9c-.3,2.91-.59,5.8-.87,8.71a10.53,10.53,0,0,1-.3,2.9,13.66,13.66,0,0,0,.3,3.48c0,.29.28.58.28,1.17a32.78,32.78,0,0,1,0,7.54,65.11,65.11,0,0,0,0,10.45A20,20,0,0,1,973,753.21Z" fill="#241b2e"/><path d="M194.38,132.94c-8.71,2-17.42,2-25.84-1.75-5.51-2.61-11.61-1.74-14.81,3.78-2.61,4.64-1.45,12.19,3.78,14.51,13.94,6.68,27.87,7.55,42.68,4.06,13.35-3.19,7.83-23.79-5.81-20.6Z" fill="#241b2e"/><path d="M1071.09,692c-8.71,2-17.41,2-25.83-1.74-5.52-2.61-11.62-1.75-14.81,3.77-2.61,4.64-1.45,12.19,3.77,14.51,13.94,6.68,27.87,7.55,42.68,4.06,13.35-3.19,7.84-23.79-5.81-20.6Z" fill="#241b2e"/><path d="M1123.35,179.67h31.35c13.94,0,13.94-21.48,0-21.48h-31.35c-13.94,0-13.94,21.48,0,21.48Z" fill="#241b2e"/><path d="M230.08,713.45h31.65c13.64,0,13.64-21.48,0-21.48H230.08c-13.64,0-13.64,21.48,0,21.48Z" fill="#241b2e"/></g></g></svg>