<svg xmlns="http://www.w3.org/2000/svg" viewBox="0 0 1220.53 850.83"><g id="Layer_2" data-name="Layer 2"><g id="Layer_1-2" data-name="Layer 1"><path d="M888,138.84c0-3.49.59-7.25.87-10.74,8.13-67.63,85.93-104.2,142-63.57A175.08,175.08,0,0,1,1058.11,88a90.35,90.35,0,0,1,103.35,83.6,10.87,10.87,0,0,0,.29,3.19,90.34,90.34,0,0,1,29.9,47.6,134.53,134.53,0,0,1,.29,63.57c19.16,17.41,31.06,43,28.16,73.43a166.61,166.61,0,0,1-18.87,62.12,86.08,86.08,0,0,1,15.68,63.57c-4.94,34.53-21.48,63.56-44.71,86.49a86.86,86.86,0,0,1,4.36,39.76c-5.81,49.06-34.84,81.57-72.87,101.59a89.29,89.29,0,0,1-9.29,25.84c-14.23,27-36.58,47.89-65.32,58.92-44.13,17.13-83.31,7-124-6.1a392.58,392.58,0,0,1-75.76,14.23,89.39,89.39,0,0,1-54.59-12.77c-42.38,28.15-88.83,48.76-137.6,56l-11.61,1.73-11.32-1.73c-47.9-7-93.19-27-134.7-54.28a90.33,90.33,0,0,1-51.68,11,409.12,409.12,0,0,1-75.18-13.94c-7.26,2.33-14.23,4.65-21.49,6.68-66.47,18.28-133.54,6.09-168.37-59.79A98.37,98.37,0,0,1,153.53,713c-38-20-67.06-52.53-72.87-101.59A86.42,86.42,0,0,1,85,571.61c-23.23-22.93-39.78-52-44.71-86.49C36.82,461.31,43.5,439.25,56,421.55a161,161,0,0,1-18.58-62.12c-2.91-30.47,9-56,28.15-73.43a130.89,130.89,0,0,1,0-63.57,90.83,90.83,0,0,1,30.19-47.6v-2.9c4.07-56,54-91.43,103.64-83.89a173,173,0,0,1,27-23.51c56-40.63,133.83-4.06,142,63.57.58,4.06.87,8.13,1.16,12.19,35.42-12.48,74.32-17.7,113.22-17.7,58.06,0,106.54,25.25,144.28,63.27,40.64-38.6,92.9-63.27,154.15-63.27,36.58,0,73.16,4.64,106.83,16.25Z" fill="#c56b9f" fill-rule="evenodd"/><path d="M851,91.31c0-3.49.58-7.26.87-10.75C860,12.94,937.82-23.64,993.85,17a174.54,174.54,0,0,1,27.29,23.51,90.35,90.35,0,0,1,103.35,83.59,11.21,11.21,0,0,0,.28,3.19,90.43,90.43,0,0,1,29.91,47.61,134.66,134.66,0,0,1,.29,63.57c19.16,17.41,31.06,43,28.16,73.43A166.61,166.61,0,0,1,1164.26,374a86,86,0,0,1,15.67,63.56c-4.93,34.54-21.48,63.57-44.7,86.49a87.05,87.05,0,0,1,4.35,39.77c-5.8,49.06-34.83,81.57-72.86,101.59a89.24,89.24,0,0,1-9.29,25.83c-14.23,27-36.58,47.89-65.32,58.92-44.13,17.13-83.32,7-124-6.09a392.52,392.52,0,0,1-75.77,14.22,89.3,89.3,0,0,1-54.58-12.77c-42.38,28.15-88.83,48.77-137.6,56l-11.61,1.74-11.32-1.74c-47.9-7-93.19-27-134.7-54.28a90.27,90.27,0,0,1-51.68,11,409.37,409.37,0,0,1-75.19-13.93c-7.26,2.32-14.22,4.64-21.48,6.68-66.47,18.28-133.54,6.09-168.37-59.8a98.3,98.3,0,0,1-9.29-25.83c-38-20-67.06-52.53-72.87-101.59A86.61,86.61,0,0,1,48,524.07c-23.22-22.92-39.77-52-44.7-86.49C-.15,413.78,6.53,391.72,19,374A161.13,161.13,0,0,1,.43,311.9c-2.9-30.48,9-56,28.16-73.43a130.89,130.89,0,0,1,0-63.57,90.9,90.9,0,0,1,30.19-47.61V124.4c4.07-56,54-91.43,103.64-83.89a172.52,172.52,0,0,1,27-23.51c56-40.64,133.83-4.06,142,63.56.58,4.07.87,8.14,1.16,12.2C368,80.28,406.86,75.05,445.76,75.05c58.06,0,106.54,25.25,144.28,63.28,40.64-38.61,92.9-63.28,154.15-63.28,36.58,0,73.16,4.65,106.83,16.26Z" fill="#fff" fill-rule="evenodd"/><path d="M744.19,154.58c-63,0-125.7,44.41-155.6,132.65C558.68,199,501.2,154.58,445.76,154.58c-365.2,0-99,532.91,142.83,568.32,241.82-35.41,514.13-568.32,155.6-568.32Z" fill="#ea4b85"/><path d="M537.49,503.18a4.32,4.32,0,0,1,4.36,1.45,5.48,5.48,0,0,1,.87,4.36,31.15,31.15,0,0,1-4.06,10.15,77.26,77.26,0,0,0-5.52,11,32.19,32.19,0,0,1-4.06,8.42,21.77,21.77,0,0,0-2.91,5.8,30.74,30.74,0,0,1-2,5.52,11.37,11.37,0,0,0-1.16,5.22v.3c-.29,1.74-.29,3.48-.58,5.51a73.64,73.64,0,0,1-.87,11v.29a15.77,15.77,0,0,0,0,5.22,18.8,18.8,0,0,1,.29,9v2.61h0v8.13a12.33,12.33,0,0,1-.58,3.19,5.25,5.25,0,0,1-4.94,4.36h-1.45a13.55,13.55,0,0,1-4.93-.87,5.13,5.13,0,0,1-2.32-2.62c-.3-.29-.3-.87-.59-1.16,0-.29-.29-.58-.29-.87a10.31,10.31,0,0,1-.58-7.83,9,9,0,0,0,.29-5.52,63.52,63.52,0,0,1-.87-10.45c0-.29.29-.58.29-1.16v-4.94c0-.58-.29-1.16-.29-1.74a43,43,0,0,1,.29-6.1,12.8,12.8,0,0,0-.58-4.64,20.61,20.61,0,0,1-1.16-5.8,14.43,14.43,0,0,0-1.16-3.78,59.44,59.44,0,0,0-3.2-6.09,24.84,24.84,0,0,1-2.61-4.64,14.75,14.75,0,0,0-2.61-4.65,12.81,12.81,0,0,1-1.74-4.64,30.85,30.85,0,0,0-3.78-8.42,86.54,86.54,0,0,1-4.64-9,5.19,5.19,0,0,1,.29-4.64,6.4,6.4,0,0,1,3.78-2.9,13.64,13.64,0,0,1,7.55.87,6.75,6.75,0,0,1,3.47,2.9l.29.29c.59.58.88,1.45,1.45,2,.59,1.45,1.46,2.91,2,4.06a44.16,44.16,0,0,1,3.48,7.55,31.63,31.63,0,0,0,1.74,3.19c.88,1.46,1.74,2.91,2.61,4.36A6.7,6.7,0,0,0,512,529c.58.58,1.16.58,1.74.87a4.12,4.12,0,0,0,1.74-.58c.29-.29.58-.58.58-.87a3.83,3.83,0,0,0,.87-1.16,22.14,22.14,0,0,0,4.06-7.26c.3-.87.59-1.74.88-2.61s.58-1.45.87-2.32a25.19,25.19,0,0,1,4.06-7.84,6.42,6.42,0,0,1,4.07-3.19,26.33,26.33,0,0,1,6.67-.87Z" fill="#241b2e"/><path d="M602.52,563.26a27.05,27.05,0,0,1,.29-8.42,11.58,11.58,0,0,0,.29-5.51,14.48,14.48,0,0,1-.29-6.1c0-1.74.29-3.48.29-5.8a15.4,15.4,0,0,1-.29-3.78c0-1.74-.29-3.48-.29-5.51a8.57,8.57,0,0,0-1.16-4.65,10.37,10.37,0,0,0-11-4.64,5,5,0,0,0-3.48,1.75,21.94,21.94,0,0,0-4.36,8.12,14.08,14.08,0,0,0,0,4.93v.29a20.24,20.24,0,0,1,0,8.42,31.52,31.52,0,0,0,.29,5.22,25.23,25.23,0,0,1-.29,8.13,12.89,12.89,0,0,0-.29,5.8c.29,4.94.58,10.16.58,15.1,0,1.45.3,2.91.3,4.07a7.55,7.55,0,0,0,2,4.35,13,13,0,0,0,6.68,3.77,7.64,7.64,0,0,0,7-1.74,9.44,9.44,0,0,0,3.48-6.38,17.06,17.06,0,0,0,.58-3.78v-2.32a1,1,0,0,1,.29-.58v-3.49a8,8,0,0,0-.29-2.6c0-1.46-.29-3.2-.29-4.65Zm16.84-37.73c0,.58.29,1.45.29,2a35.53,35.53,0,0,1,.58,5.52c0,1.44-.29,2.89-.29,4.35,0,.86-.29,1.45-.29,2.32v1.74a55.8,55.8,0,0,1-.29,7,40.82,40.82,0,0,0,0,8.42v.87a63.25,63.25,0,0,1,0,14.81,38.8,38.8,0,0,0-.29,8.13c0,1.74-.29,3.48-.29,4.93a21.85,21.85,0,0,1-8.42,13.93A28.27,28.27,0,0,1,597,604.77a12.37,12.37,0,0,1-1.46.29,16.49,16.49,0,0,1-3.77.29,7.36,7.36,0,0,1-3.48-.58c-.88-.29-2-.59-3.2-.87l-7-2.62a18.43,18.43,0,0,1-6.68-4.64,22.7,22.7,0,0,1-3.48-6.39,56.12,56.12,0,0,1-2-6.38,19,19,0,0,1,0-7,43.71,43.71,0,0,0,0-8.71,11.25,11.25,0,0,1-.28-3.19,3.25,3.25,0,0,0,.28-1.45v-6.38a25.11,25.11,0,0,0,.29-4.65,10.52,10.52,0,0,1,.3-3.19,15.83,15.83,0,0,0,0-5.23,29.88,29.88,0,0,1-.3-7.25,10.67,10.67,0,0,0,0-4.36,43.42,43.42,0,0,1,.3-6.38,24,24,0,0,1,2-9,19.92,19.92,0,0,1,6.38-8.12c.59-.3.87-.88,1.46-1.17a18.62,18.62,0,0,0,3.77-2.9,5.58,5.58,0,0,1,3.49-1.16,44.87,44.87,0,0,0,8.7-1.16,19.6,19.6,0,0,1,12.2,2c.87.58,1.73.87,2.61,1.45l3.48,1.74a10.63,10.63,0,0,1,4.07,4.64,63.18,63.18,0,0,1,2.9,6.39,25.05,25.05,0,0,1,1.74,6.68Z" fill="#241b2e"/><path d="M695.42,593.16a6,6,0,0,1-.87,1.44,24.67,24.67,0,0,1-2.32,2.91,8.33,8.33,0,0,1-3.2,2.32,31.7,31.7,0,0,0-4.35,2.32,23.23,23.23,0,0,1-9.87,3.2,6.39,6.39,0,0,1-2.32-.29,3.64,3.64,0,0,1-1.74-.29,60.59,60.59,0,0,1-9.87-2.33h-.3a37.14,37.14,0,0,1-7-3.19,14.4,14.4,0,0,1-3.49-3.77,25,25,0,0,1-4.35-12.77,31.25,31.25,0,0,1,.29-9v-5.52a12.12,12.12,0,0,1-.29-1.45v-6.09a31.52,31.52,0,0,1,.29-5.22c0-3.49,0-7-.29-10.17v-2.61a5.46,5.46,0,0,0-.58-2.32v-.58a14.42,14.42,0,0,1,0-6.1,8,8,0,0,0,.58-3.77V513.05a28.25,28.25,0,0,0,.29-4.94,3.49,3.49,0,0,1,2.9-3.77,14.86,14.86,0,0,1,8.71,0,4.85,4.85,0,0,1,3.2,3.48,18.5,18.5,0,0,1,.28,4.06,22.84,22.84,0,0,0,.29,7.55,2.18,2.18,0,0,0,.3,1.17,15.81,15.81,0,0,1,.28,5.22c-.28,3.19-.28,6.09-.28,9v5.51c0,3.48,0,7,.28,10.45,0,.58.3,1.16.3,2a30.61,30.61,0,0,1-.58,7.25,17,17,0,0,0,0,5.52,43,43,0,0,1,.28,12.19,7.86,7.86,0,0,0,2,6.1c.28.58.87.87,1.16,1.45l.87.87c2.32,2.32,4.93,3.19,8.13,2a31.7,31.7,0,0,0,4.35-2.32,8.35,8.35,0,0,0,2.33-3.19c.28-1.16.58-2.32.86-3.49.3-3.19.3-6.38.3-9.29v-.58a56.31,56.31,0,0,1,.58-7,66.34,66.34,0,0,0,.58-7.84l-.87-9.58c0-1.45-.29-2.61-.29-4.06V538c0-3.49.29-7,.58-10.45V526.4a33.36,33.36,0,0,1-.29-5.52,23.58,23.58,0,0,0-.59-7.83,11.42,11.42,0,0,1,0-4.36c.88-2.9,2.62-4.93,5.81-5.51a14.18,14.18,0,0,1,7,0,5.57,5.57,0,0,1,4.35,4.64,15.83,15.83,0,0,1,0,5.23,40.24,40.24,0,0,0-.28,5.8v9.29a44.27,44.27,0,0,0,.28,6.09,53.23,53.23,0,0,1-.28,6.68,21.74,21.74,0,0,0,.28,7.54,14,14,0,0,1,0,7,53.45,53.45,0,0,0-.58,6.67c0,.87-.29,1.45-.29,2.32a10.88,10.88,0,0,0,.29,2.9v.59a20.72,20.72,0,0,1,0,6.09,35.43,35.43,0,0,0,0,7.84,14.4,14.4,0,0,1-2.9,11.32Z" fill="#241b2e"/><path d="M460.85,446.29a7.37,7.37,0,0,1,3.2,7,27.7,27.7,0,0,1-2,7,8.13,8.13,0,0,1-4.36,3.78,26.18,26.18,0,0,1-11.61.86,39.76,39.76,0,0,0-10.16-.29c-.29,0-.87.29-1.17.29h-3.47c-2.62,0-5.23.29-7.84.29a5.68,5.68,0,0,0-2.33.29,39.78,39.78,0,0,1-11.61-2.61,10,10,0,0,1-3.48-3.48,16.22,16.22,0,0,1-1.75-9c0-2,.29-4.06.29-6.1a41.42,41.42,0,0,0-.87-12.19,40.66,40.66,0,0,1,0-14.51,86.69,86.69,0,0,0,1.17-12.19v-9.29a22.52,22.52,0,0,0-.59-7.55,36.83,36.83,0,0,1-1.45-9.86h0a82.16,82.16,0,0,1,1.45-18.87,54,54,0,0,0,.59-11.9c-.3-1.45-.3-3.19-.59-4.94-.28-2-.28-4.06-.58-6.09a14.27,14.27,0,0,1,2.33-6.68,9,9,0,0,1,8.42-4.06h.29c5.22,0,8.71,2.32,10.15,7.55a18.3,18.3,0,0,1,.59,10.45,22.54,22.54,0,0,0,.29,11.61,17.26,17.26,0,0,1,0,6.68,44.24,44.24,0,0,0-.29,13.92,71.47,71.47,0,0,1,.58,7.85v2.32c0,3.77,0,7.83-.29,11.61q-.44,2.61-.88,5.22a33.59,33.59,0,0,0,.3,9.28,81.71,81.71,0,0,1,0,16.84,36.81,36.81,0,0,0,0,8.13c.87,3.77,3.19,5.8,7,6.38H433a60.7,60.7,0,0,1,7.26.29h7.26a51.9,51.9,0,0,1,9.29.88h.58a8.2,8.2,0,0,1,3.48,1.16Z" fill="#241b2e"/><path d="M547.94,408.55a36.85,36.85,0,0,1,.58-11.32,13.28,13.28,0,0,0,.29-7.54,28,28,0,0,1-.29-8.42c0-2,.29-4.64.29-7.55,0-1.74-.29-3.48-.29-5.22,0-2.33-.28-4.94-.28-7.26a12.33,12.33,0,0,0-1.75-6.38c-3.48-5.23-8.41-7.55-14.8-6.39a6,6,0,0,0-4.64,2.33,23.82,23.82,0,0,0-5.81,11,17,17,0,0,0,0,6.68v.29a38.94,38.94,0,0,1,0,11.61,27.1,27.1,0,0,0,0,7,22.33,22.33,0,0,1-.3,10.74,36.24,36.24,0,0,0-.57,7.83c.57,7,1.16,13.93,1.16,20.61,0,2,.29,3.77.29,5.51a10.68,10.68,0,0,0,2.61,5.81,17.13,17.13,0,0,0,9.29,4.93,10.55,10.55,0,0,0,9.29-2,13.27,13.27,0,0,0,4.93-8.71c.3-1.74.3-3.48.58-5.22v-2.9a2.2,2.2,0,0,0,.29-1.17,21.23,21.23,0,0,0,.3-4.35c-.3-1.16-.3-2.32-.59-3.48a46.13,46.13,0,0,0-.58-6.39Zm22.94-51.08a8.94,8.94,0,0,1,.29,2.9,21.62,21.62,0,0,1,.58,7.55,38.72,38.72,0,0,1,0,5.8,11,11,0,0,0-.29,2.91,1.07,1.07,0,0,0-.29.87V379a53,53,0,0,1-.58,9.57,49.39,49.39,0,0,0,.29,11.33v1.45a89.75,89.75,0,0,1,0,19.73,72.24,72.24,0,0,0-.58,11,49.3,49.3,0,0,1-.29,6.68,30.45,30.45,0,0,1-11.33,18.86,33.42,33.42,0,0,1-17.7,7c-.87,0-1.45.29-2.32.29a32.08,32.08,0,0,1-5.23.58,22.39,22.39,0,0,1-4.35-.58,25.91,25.91,0,0,0-4.36-1.45c-3.48-1.16-6.68-2.32-9.87-3.48a23.42,23.42,0,0,1-8.71-6.39,27,27,0,0,1-4.94-8.41,83.86,83.86,0,0,1-2.32-9,23.53,23.53,0,0,1-.28-9,40.91,40.91,0,0,0,0-11.9,11,11,0,0,1,0-4.36v-2a81.53,81.53,0,0,1,.28-8.41c0-2.32.3-4.36.3-6.68a21.26,21.26,0,0,1,.28-4.06,13.94,13.94,0,0,0,0-7,37.44,37.44,0,0,1-.28-9.87,22.18,22.18,0,0,0,0-6.09,40.9,40.9,0,0,1,.28-8.42,39,39,0,0,1,2.91-12.48,22.52,22.52,0,0,1,8.7-10.74c.59-.58,1.17-.87,1.75-1.45,1.74-1.16,3.48-2.62,5.22-3.77a7.09,7.09,0,0,1,4.65-1.75,86.88,86.88,0,0,0,11.9-1.45,22.77,22.77,0,0,1,16.26,2.62c1.16.58,2.61,1.45,3.77,2,1.45.88,2.91,1.45,4.36,2.33a13.72,13.72,0,0,1,5.8,6.38c1.16,2.62,2.62,5.52,3.78,8.42a31.56,31.56,0,0,1,2.32,9Z" fill="#241b2e"/><path d="M676.26,327.28c3.48,1.45,5.23,4.06,4.93,7.55a33,33,0,0,1-1.74,9.29,72.84,72.84,0,0,0-2.9,17.7,49.16,49.16,0,0,1-4.06,18,39.39,39.39,0,0,0-3.2,12.77,73.28,73.28,0,0,1-2.61,16,55.65,55.65,0,0,0-1.74,9.58,17.48,17.48,0,0,1-1.45,5.52,51.44,51.44,0,0,0-2.33,11.6c-.28.59-.28,1.46-.58,2-.87,4.35-1.74,8.71-2.32,13.06a20.62,20.62,0,0,1-3.77,9,10,10,0,0,1-7.55,5.22,43.71,43.71,0,0,1-8.71,0c-3.48-.29-5.81-2-7.84-4.93a22.21,22.21,0,0,1-3.19-9.29,38.29,38.29,0,0,0-2.91-9.87,14,14,0,0,1-1.15-5.8A98.81,98.81,0,0,0,618.2,408a31.34,31.34,0,0,1-1.45-6.09c-.87-4.94-2-10.16-2.91-15.1A73.66,73.66,0,0,1,612.4,379a3.08,3.08,0,0,1-.3-1.45,28,28,0,0,0-2.9-10.74,55.9,55.9,0,0,1-4.06-18,16.71,16.71,0,0,0-1.17-5.51,20.88,20.88,0,0,1-1.74-8.42,14.86,14.86,0,0,1,.58-3.19,6.83,6.83,0,0,1,5.23-5.52,22,22,0,0,1,4.36-.29,17.92,17.92,0,0,1,4.06.29,10.17,10.17,0,0,1,8.42,6.39,21.73,21.73,0,0,1,1.45,4.64c.87,3.48,1.74,6.68,2.61,10.16a26.41,26.41,0,0,1,.87,6.68,5.64,5.64,0,0,1,.29,2,16.93,16.93,0,0,0,1.16,5.23,60.33,60.33,0,0,1,4.65,18.58,131.74,131.74,0,0,0,3.48,15.38,9.23,9.23,0,0,0,1.45,2.91c1.45,1.15,2.62,1.15,3.78-.3a2.63,2.63,0,0,0,.87-2,4.3,4.3,0,0,0,.29-2c.29-.87.29-1.74.58-2.61a108.25,108.25,0,0,1,3.48-13.06,33.24,33.24,0,0,0,2-9.29c.29-1.45.57-2.9.87-4.36.28-1.16.58-2.61.87-3.77a72.33,72.33,0,0,1,1.45-7.84,12.49,12.49,0,0,1,.58-3.19,32,32,0,0,0,.58-5.22c.29-.87.29-1.74.58-2.9a29.82,29.82,0,0,1,2.32-8.72c2-5.51,6.1-7.83,11.9-7a35.18,35.18,0,0,1,5.23,1.45Z" fill="#241b2e"/><path d="M774.38,445.71c4.36,1.45,6.39,4.06,6.1,8.42s-1.74,7.54-4.36,9.28A14.21,14.21,0,0,1,768,466a57.94,57.94,0,0,1-7-.28,41.57,41.57,0,0,0-10.45.28,57.9,57.9,0,0,1-12.2.3l-8.41-.88c-2.33-.29-4.65-.58-7.26-.87-3.78-.29-5.81-2.32-6.1-6.38v-.59a16.45,16.45,0,0,1-.29-3.77,41.41,41.41,0,0,0-.87-8.41,23.71,23.71,0,0,1,0-7.84,16.56,16.56,0,0,0-.29-8.41,21.48,21.48,0,0,1,.29-11.33,16.6,16.6,0,0,0,0-7.55,17.16,17.16,0,0,1-.29-5.51v-7.26c0-2.9-.29-5.8-.29-8.7a65.67,65.67,0,0,1,.58-13.06c.29-1.17.29-2,.58-2.91a56.52,56.52,0,0,0-.87-19.73,24.79,24.79,0,0,1-.87-6.68v-2a73.5,73.5,0,0,1,.29-8.13,12.87,12.87,0,0,1,2.9-6.38,10.72,10.72,0,0,1,5.81-2.62c5.81-.58,11.61-.87,17.41-1.45h4.07a30.65,30.65,0,0,1,7.26.58c3.77.29,7.26.58,11,.58h6.38q7,0,8.72,6.1a15.14,15.14,0,0,1,1.16,6.09,8.29,8.29,0,0,1-2,4.94,6.47,6.47,0,0,1-3.78,2.61,8.93,8.93,0,0,1-3.77.87,112.44,112.44,0,0,0-13.94.87,22,22,0,0,1-4.35.29h-.87a49.23,49.23,0,0,0-6.68.29c-3.78.29-5.8,2-6.67,5.51a32.92,32.92,0,0,0-.3,9.29,27.1,27.1,0,0,1,0,7,19.48,19.48,0,0,0,0,5.81,7.72,7.72,0,0,0,2.91,6.09,11.47,11.47,0,0,0,6.09,2.61,58.32,58.32,0,0,0,7.26-.29,34.58,34.58,0,0,1,13.35,1.74,7,7,0,0,1,4.36,3.2,14.75,14.75,0,0,1,1.74,8.7c-.58,3.2-2.32,5.23-5.52,6.68a13.13,13.13,0,0,1-4.64.87c-2.9,0-5.81,0-8.71-.29a39.16,39.16,0,0,0-10.16.58c-4.06.58-6.1,2.9-6.38,7-.59,3.48-.88,7-1.17,10.74v2.32a49.3,49.3,0,0,1,.29,6.68v2c0,.59.29,1.46.29,2.33A5.92,5.92,0,0,0,741,443.1a20.36,20.36,0,0,0,9.29.57,63.3,63.3,0,0,1,14.8.58c1.45.29,3.2.59,4.65.88.87,0,1.74.29,2.61.29.58,0,1.45.29,2,.29Z" fill="#241b2e"/><path d="M966.27,542.07c1.46-14.51,4.07-28.73,9.58-41.22-.29,13.94-4.06,27.87-9.58,41.22Zm66.19,24.09c.58,0,1.17-.29,1.75-.29a7.85,7.85,0,0,1-2,2.32,4.3,4.3,0,0,0,.29-2ZM930.86,89.85C925.63,134,947.4,163.58,984,184.48h.29c3.2,4.93,6.1,9.87,9,14.8-13.93-7.84-29.9-11.32-45.87-12.19-10.16-.58-13.93,10.74-8.41,17.7,15.38,20.33,47.31,28.45,71.12,32.81a3.8,3.8,0,0,1,1.74.28,341.18,341.18,0,0,1,18,61.54c-10.16-14.23-22.64-26.12-39.48-30.19-7.26-1.74-13.36,2.62-13.94,9.58-3.77,31.64,34.84,57.18,59.22,68.79h0A336.61,336.61,0,0,1,1034.5,399,99.79,99.79,0,0,0,1011,364.15c-4.64-4.36-13.64-5.23-17.13,1.15-15.38,31.06,8.42,66.76,29,89.7a3.94,3.94,0,0,0,.87,1.15c-1.74,5.52-3.48,10.74-5.22,16.26a285.21,285.21,0,0,1-24.68,54c4.65-18.58,5.51-37.74-.58-56-2.32-7.26-11.32-11.32-17.71-5.52-32.8,30.77-30.77,83-32.22,124.52a262.79,262.79,0,0,1-46.16,34c9.87-16.83,14.81-36.57,11.61-56.6-1.16-9-11.61-9.87-17.41-5.8-26.13,18.28-33.68,53.7-42.68,82.14a5.66,5.66,0,0,0-.29,2,272,272,0,0,1-61.83,12.48c-13.65,1.16-14.52,22.64-.88,21.48a309.51,309.51,0,0,0,83-18.86,20.72,20.72,0,0,0,3.48,1.74c35.71,11.61,91.45,36.57,115-7.84,2.91-5.51,2-11.32-3.19-14.8-20-15.1-44.42-10.45-67.06-3.19a270.54,270.54,0,0,0,34.55-25.26H959c38.91-.87,96.39-12.77,101.61-56.6.87-5.81-4.65-10.74-10.16-11-16.83-.87-33.38,4.06-49.06,11.9a292.78,292.78,0,0,0,31.35-58.92,11.06,11.06,0,0,0,4.94-1.16c29-12.77,58.93-35.41,63.57-68.79.87-6.68-7-12.48-13.06-10.74-18.87,5.22-29.9,19.45-40.93,34a349.09,349.09,0,0,0,9.58-73.44c.29-.28.58-.28.87-.58,25-16.25,43.25-40.92,46.16-71.11.87-9.28-11.62-14.8-18-8.41-13.06,13.06-21.19,28.73-29.61,44.69a348.21,348.21,0,0,0-10.17-65c17.42-22.35,38.91-51.38,31.36-81.27-1.75-7.26-11.61-11.32-17.71-5.52-13.07,13.35-21.19,29.61-25.84,47.31a361,361,0,0,0-16.25-36c.57-.29.87-.58,1.45-.87a88.22,88.22,0,0,0,26.13-69.37c-.88-9.58-10.16-14.23-18-8.42-14.52,10.74-24.39,29.89-26.71,49.05a1.05,1.05,0,0,0-.29-.58c-3.77-34.25-25.26-68.78-52.84-88.52-7-5.23-15.67.87-16.54,8.41Z" fill="#6fbf97"/><path d="M207.42,500.85c5.52,12.49,8.42,26.71,9.58,41.22-5.52-13.35-9.29-27.28-9.58-41.22ZM151.1,568.19a16.58,16.58,0,0,1-2-2.32c.58,0,1.16.29,2,.29v2ZM235.87,81.44c-27.29,19.74-49.06,54.27-52.55,88.52-.28,0-.28.3-.58.58-2.32-19.16-12.19-38.31-26.7-49-7.84-5.81-17.13-1.16-17.72,8.42a88,88,0,0,0,25.85,69.37c.57.29.87.58,1.45.87a358.38,358.38,0,0,0-16,36c-4.65-17.7-12.78-34-26.12-47.31-5.81-5.8-16-1.74-17.72,5.52-7.55,29.89,13.94,58.92,31.36,81.27a374.85,374.85,0,0,0-10.17,65c-8.41-16-16.54-31.63-29.6-44.69-6.39-6.39-18.87-.87-18,8.41,2.91,30.19,21.2,54.86,46.16,71.11.3.3.58.3.88.58A391.77,391.77,0,0,0,136,449.48c-11-14.51-22.06-28.74-40.93-34C89,413.78,81.14,419.58,82,426.26c4.93,33.38,34.84,56,63.57,68.79a11.12,11.12,0,0,0,4.94,1.16,292.78,292.78,0,0,0,31.35,58.92c-15.67-7.84-32.22-12.77-49.06-11.9-5.22.29-11,5.22-10.16,11,5.23,43.83,62.71,55.73,101.61,56.6h7.55a295.7,295.7,0,0,0,34.83,25.26c-22.93-7.26-47.32-11.91-67.35,3.19-4.93,3.48-6.09,9.29-3.19,14.8,23.8,44.41,79.25,19.45,115.25,7.84a36.2,36.2,0,0,0,3.19-1.74,314.75,314.75,0,0,0,83,18.86c13.93,1.16,12.77-20.32-.58-21.48a265.63,265.63,0,0,1-61.83-12.48,16.31,16.31,0,0,1-.59-2c-8.71-28.44-16.55-63.86-42.38-82.14-6.1-4.07-16.26-3.2-17.71,5.8-3.2,20,1.74,39.77,11.9,56.6a243.26,243.26,0,0,1-46.16-34c-1.45-41.5.3-93.75-32.51-124.52-6.38-5.8-15.1-1.74-17.71,5.52-5.8,18.28-5.22,37.44-.58,56a304.56,304.56,0,0,1-24.68-54c-1.74-5.52-3.48-10.74-4.93-16.26a3.94,3.94,0,0,0,.87-1.15c20.32-22.94,44.42-58.64,28.74-89.7-3.19-6.38-12.48-5.51-16.83-1.15A96.6,96.6,0,0,0,148.78,399a380,380,0,0,1-1.16-51.38h.29c24.38-11.61,62.7-37.15,59.22-68.79a11,11,0,0,0-13.93-9.58c-16.84,4.07-29.61,16-39.78,30.19a342,342,0,0,1,18-61.54,5.12,5.12,0,0,1,2-.28c23.8-4.36,55.44-12.48,70.83-32.81,5.51-7,1.74-18.28-8.13-17.7-16.26.87-32.22,4.35-46.16,12.19,2.91-4.93,5.81-9.87,9-14.8h.29c36.87-20.9,58.35-50.51,53.13-94.63-.87-7.54-9.29-13.64-16.55-8.41Z" fill="#6fbf97"/><path d="M334.57,335.41c-3.77-40.06.87-84.17,43.26-101,25.26-9.87,14.22-51.37-11.61-41.22-61,23.81-80.42,80.41-74.61,142.23,2.61,27.28,45.57,27.28,43,0Z" fill="#fff"/><path d="M437.05,230.63c27.58,0,27.58-43,0-43s-27.58,43,0,43Z" fill="#fff"/></g></g></svg>