<svg xmlns="http://www.w3.org/2000/svg" viewBox="0 0 1261.44 875.39"><g id="Layer_2" data-name="Layer 2"><g id="Layer_1-2" data-name="Layer 1"><path d="M149.9,243.83A112.3,112.3,0,0,1,158,175.32a114.93,114.93,0,0,1,15.68-60.66c33.67-57.47,110.6-75.17,165.47-36.57a123.94,123.94,0,0,1,15.68-4.94A120.69,120.69,0,0,1,401.6,72a136,136,0,0,1,26.71,8.13,124.89,124.89,0,0,1,31.35-8.42,114.78,114.78,0,0,1,34.55.88A84.35,84.35,0,0,1,509,71.12a111.8,111.8,0,0,1,34,3.78h0a82.28,82.28,0,0,1,11.62-2.62,117.18,117.18,0,0,1,45,.3,109.42,109.42,0,0,1,25.84-2.33,129.54,129.54,0,0,1,18.29,1.45,1.74,1.74,0,0,0,1.16.29,120.64,120.64,0,0,1,36.87-.58c2.32.29,4.93.58,7.55,1.17l7.83-.88c4.36-.29,8.72-.87,13.07-1.16h2.61a68.28,68.28,0,0,1,7.55-.29,159.27,159.27,0,0,1,16.83.87h2.62a113.11,113.11,0,0,1,63.87,19.74c37.16-47,102.76-58.34,157.92-21.19,19.16,13.06,36.58,28.15,55.45,41.22,61.54,42.38,124.54,82.43,186.09,124.52a154,154,0,0,1,20,16.25,118.45,118.45,0,0,1,33.38,57.18A112.78,112.78,0,0,1,1260.9,353a144.66,144.66,0,0,1-5.81,29.61c-11.9,39.18-28.16,76.92-39.77,116.1-8.42,26.7-12.19,55.15-20.32,82.43v.29a113.48,113.48,0,0,1,27,89.11,91.7,91.7,0,0,1-2,12.77c7.26,30.77.87,61.82-14.8,87.08a92.66,92.66,0,0,1-1.74,11.9c-16.26,81.85-111.19,119-178,73.43a109.92,109.92,0,0,1-27.29,6.1,103.29,103.29,0,0,1-32.8-.88c-1.17-.28-2-.28-3.2-.57s-2-.3-3.19-.58h-3.2l-10.73-3.49a108.53,108.53,0,0,1-21.49,4.64h0c-5.81.88-11.32,1.46-16.84,1.75h-3.48A123.92,123.92,0,0,1,869,857.71l-2-.87-1.74-.58c-.29,0-.87-.29-1.16-.29a119.2,119.2,0,0,1-25,5.52c-3.77.29-7.25.58-11,.58a117.27,117.27,0,0,1-54.28-12.48c-1.75-.87-3.2-1.74-4.65-2.62a106.55,106.55,0,0,1-47.32,14.81,126,126,0,0,1-29.61-.88,116.93,116.93,0,0,1-20.32.88h-2.62a189.63,189.63,0,0,1-21.76-3.19,1.06,1.06,0,0,0-.88-.3,122.8,122.8,0,0,1-14.51,2.61h-.29a157.74,157.74,0,0,1-16.55,1.75h-3.49a121.81,121.81,0,0,1-34-4.94l-2.32-.87-1.74-.58c-2.33-.58-4.65-1.45-6.68-2a116.2,116.2,0,0,1-62.13,7.55h-1.16l-1.16-.29A104.18,104.18,0,0,1,473,851.91c-38,26.41-89.12,27-135.86-4.65-69.67-47-137.89-96.65-207.57-143.67-12.19-8.13-25-13.35-37.45-22.35-52.54-36.57-69.09-97.53-43-155.58,9.87-36,21.48-72.27,32.51-108.27,5.81-18.28,14.81-36,20-53.69,6.09-20,8.12-41.51,14.51-62.4,7.25-23.52,18.58-43,33.67-57.47Z" fill="#c56b9f" fill-rule="evenodd"/><path d="M112.93,196.29a112.26,112.26,0,0,1,8.13-68.5,114.79,114.79,0,0,1,15.68-60.66C170.41,9.66,247.34-8,302.21,30.55a124.29,124.29,0,0,1,15.67-4.93,120.69,120.69,0,0,1,46.74-1.16,135,135,0,0,1,26.71,8.13,124.54,124.54,0,0,1,31.36-8.42,115.11,115.11,0,0,1,34.55.87A85.18,85.18,0,0,1,472,23.59a112.17,112.17,0,0,1,34,3.77h0a83.33,83.33,0,0,1,11.62-2.61,117.38,117.38,0,0,1,45,.29,110,110,0,0,1,25.84-2.32,129.66,129.66,0,0,1,18.29,1.45,1.74,1.74,0,0,0,1.16.29,120.64,120.64,0,0,1,36.87-.58c2.32.29,4.93.58,7.55,1.16l7.83-.87c4.36-.29,8.71-.87,13.07-1.16h2.61a68.28,68.28,0,0,1,7.55-.29,159.27,159.27,0,0,1,16.83.87h2.62a113.07,113.07,0,0,1,63.86,19.73C803.85-3.69,869.46-15,924.62,22.14c19.16,13.06,36.58,28.15,55.45,41.21,61.54,42.38,124.54,82.44,186.09,124.52a153.3,153.3,0,0,1,20,16.26,118.36,118.36,0,0,1,33.39,57.17,112.81,112.81,0,0,1,4.35,44.13,144.69,144.69,0,0,1-5.8,29.6c-11.9,39.19-28.16,76.92-39.77,116.1-8.42,26.71-12.19,55.15-20.33,82.44v.29a113.42,113.42,0,0,1,27,89.1,90.24,90.24,0,0,1-2,12.77c7.26,30.77.87,61.83-14.81,87.08a89,89,0,0,1-1.74,11.9c-16.26,81.86-111.18,119-178,73.44a109.46,109.46,0,0,1-27.29,6.09,103.28,103.28,0,0,1-32.8-.87c-1.17-.29-2-.29-3.2-.58s-2-.29-3.19-.58h-3.2l-10.74-3.49a108.61,108.61,0,0,1-21.48,4.65h0c-5.81.87-11.32,1.45-16.84,1.75h-3.48A123.92,123.92,0,0,1,832,810.18l-2-.87-1.74-.59c-.29,0-.87-.28-1.16-.28a119.82,119.82,0,0,1-25,5.51c-3.77.29-7.26.58-11,.58a117.27,117.27,0,0,1-54.28-12.48c-1.75-.87-3.2-1.74-4.65-2.61a106.58,106.58,0,0,1-47.32,14.8,126,126,0,0,1-29.61-.87,117.93,117.93,0,0,1-20.32.87h-2.62a187.45,187.45,0,0,1-21.76-3.19,1.1,1.1,0,0,0-.88-.29,126.8,126.8,0,0,1-14.52,2.61h-.28a163.28,163.28,0,0,1-16.55,1.75H574.8a121.76,121.76,0,0,1-34-4.94l-2.33-.87-1.73-.59c-2.33-.57-4.65-1.44-6.68-2A116.19,116.19,0,0,1,468,814.24h-1.16l-1.16-.29A103.87,103.87,0,0,1,436,804.37c-38,26.42-89.12,27-135.86-4.64-69.67-47-137.89-96.66-207.57-143.67-12.19-8.13-25-13.36-37.45-22.35-52.55-36.58-69.09-97.53-43-155.58,9.87-36,21.48-72.28,32.51-108.27,5.81-18.28,14.81-36,20-53.7,6.1-20,8.13-41.5,14.52-62.4,7.25-23.51,18.57-43,33.67-57.47Z" fill="#fff" fill-rule="evenodd"/><path d="M418.33,551.27C404.1,594.81,391.91,637.48,378,680.73c-4.64,14.51-15.39,14.22-23.51,9.28-7-4.35-13.07-10.45-19.74-15.09-44.42-30.77-90.58-57.47-135-88.24-20.9-14.51-40.35-32.21-60.67-47.6,54.29.29,106-9,160.54-8.42,38.9.59,79.83,8.13,119.6,11.32-.29,3.2-.29,7-.87,9.29Zm395.39-281c7.26-22.93,20.33-70.53,20-70.53,6.09-18.86,15.09-35.7,21.19-54.56a40.15,40.15,0,0,1,3.48-8.13c2.61-4.65,6.68-6.1,11.32-4.35a58.5,58.5,0,0,1,10.45,5.51c63,42.09,123.67,76,188.7,126,9.58,6.68,20.61,12.19,29,20.32-41.22-.88-84.19,4.35-125.41,3.77-54-1.16-107.7-2.9-161.41-4.65,1.46-4.35,1.16-9,2.61-13.35ZM1057.58,504c8.13-27,12.19-56.6,20.32-83.3,12.19-39.48,27.87-76.34,40.06-116.11a75.89,75.89,0,0,0,1.74-8.12,10.31,10.31,0,0,0-1.45-7,12.87,12.87,0,0,0-4.35-9.58,64.67,64.67,0,0,0-7-5.51c-62.12-42.67-124.25-82.14-186.08-124.81-18.29-12.48-36.58-28.16-54.87-40.64-11-7.25-16.55-5.22-20.9,7-2.91,8.13-4.07,17.71-6.68,25.83C824.47,185,808.5,226.48,794.27,270a76.18,76.18,0,0,0-2.32,8.7,20.59,20.59,0,0,0-.29,4.06c-53.12-1.74-106.25-3.48-159.38-4.35-95.5-2-189-1.74-284.2-3.48-48.19-.87-97.25-6.67-145.44-7.55-15.1,0-18.87,2.62-23.23,16.84-6.1,20-8.42,41.79-14.22,61.82-5.52,18.87-14.52,35.7-20.32,54.86-9.3,29.61-30.49,100.72-32.23,106.52-.58,2.61-1.45,4.94-2,7.55L108,520.21c-6.1,12.78-4.36,19.74,7.25,27.87,11,7.83,25,13.64,36,20.9,70,47.6,137.61,96.65,207.86,144.25,14.52,9.87,19.74,8.13,25-8.7,8.13-25.84,13.06-52,20.61-77.79,7.26-25,16.84-49.63,25-75.47.58-2.32,3.49-5.52,4.65-8.41,3.77.28,7.54.57,11.32.57,56.32.88,112.35,1.45,168.66,2.32,43.55.59,94.93-2.61,138.77-2,55.74.87,103.93,5.51,159.67,6.38,38.32.29,76.64,1.16,115.25,1.45,11.9.29,16.55-3.19,20.32-14.8,3.19-10.74,6.1-21.77,9.29-32.8Z" fill="#6fbf97" fill-rule="evenodd"/><path d="M313,454.33a10.15,10.15,0,0,1,1.16,2.61c.29,2.32-.29,4.06-2.32,4.93a13.91,13.91,0,0,1-8.42,1.16,7.2,7.2,0,0,1-4.64-3.48l-.29-.29a96.85,96.85,0,0,1-5.23-11.32,39.49,39.49,0,0,0-3.77-8.71,10.3,10.3,0,0,1-1.16-2.61,2.22,2.22,0,0,1-.59-1.16,9,9,0,0,0-2.61-3.19c-1.16-1.16-2.61-.87-4.06.29a11.37,11.37,0,0,0-1.45,2.61,14.18,14.18,0,0,0,0,7,27.63,27.63,0,0,1-.3,8.41,16.19,16.19,0,0,0-.28,5.23c.58,3.48-1.17,5.8-4.65,6.38a14.37,14.37,0,0,1-6.09,0,6.52,6.52,0,0,1-4.36-4.35c-.29-.87-.29-1.45-.58-2.62v-6.38a15.84,15.84,0,0,1,.29-5.22,2.6,2.6,0,0,1,.29-1.45,14.11,14.11,0,0,0,0-4.94,25.54,25.54,0,0,1-.58-4.93,15.83,15.83,0,0,0,0-5.23,43.26,43.26,0,0,1,.58-6.09v-7a37,37,0,0,0-.29-5.8,33.61,33.61,0,0,1-.29-10.74v-5.23a19.51,19.51,0,0,1,.29-5.8,19.24,19.24,0,0,0,.29-4.07c0-1.16.29-2.61.29-3.77a32.94,32.94,0,0,0-.29-7.55,11.84,11.84,0,0,1,.29-5.51c.58-2.61,2-3.78,4.65-4.06a18.78,18.78,0,0,1,5.8,0,5.59,5.59,0,0,1,3.49,2.61,10.47,10.47,0,0,1,.87,7.25,19,19,0,0,0,.28,7,21.61,21.61,0,0,1,.87,7.55,9.87,9.87,0,0,0-.29,2.9v.87c0,.29.29.87.29,1.16a3,3,0,0,0,1.46,1.74,1.92,1.92,0,0,0,2-.58,5.77,5.77,0,0,0,2.32-3.48,67.64,67.64,0,0,1,2.91-7c1.45-2.62,2.9-5.23,4.64-7.85a26.48,26.48,0,0,1,2.32-3.77c.3-.58.87-1.45,1.17-2a10.17,10.17,0,0,0,1.45-2.32,8.07,8.07,0,0,1,6.09-4.06,5.46,5.46,0,0,0,2-.3c.88,0,1.75-.29,2.91-.29,2.61.29,4.06,1.46,4.06,4.35a8.46,8.46,0,0,1-.58,2.62c-.58,1.45-1.16,2.9-1.74,4.06a40.36,40.36,0,0,1-2.9,7.55,5.83,5.83,0,0,0-1.16,2.32c-.29.87-.88,1.46-1.16,2.32-.3,0-.3.29-.58.29a15.56,15.56,0,0,0-2,3.78c-.58,1.45-1.45,2.9-2.32,4.64a1.51,1.51,0,0,0-.58,1.16,8.53,8.53,0,0,0-1.74,3.2c-1.46,2.32-2.61,4.64-4.07,7a7.49,7.49,0,0,0-.58,7,28.37,28.37,0,0,0,2,4.35c.87,1.45,1.45,2.62,2,3.77a25.52,25.52,0,0,0,2.32,4.94,20.19,20.19,0,0,1,2.32,5.81,28.69,28.69,0,0,0,4.36,9.57,40.64,40.64,0,0,1,3.48,8.13,45.21,45.21,0,0,0,2.32,6.68Z" fill="#fff"/><path d="M358,432.27a14.73,14.73,0,0,0,.87,4.93,43,43,0,0,1,.29,12.19c0,1.74-.29,3.78-.29,5.51a14.16,14.16,0,0,1-.29,3.49,5.91,5.91,0,0,1-5.52,4.35,32.29,32.29,0,0,1-4.93-.58,5.58,5.58,0,0,1-4.07-4.93,8.3,8.3,0,0,1-.28-2.61,23.35,23.35,0,0,0-.58-4.65,12.35,12.35,0,0,1-.3-4.64,14.24,14.24,0,0,0-.29-3.49,33.36,33.36,0,0,1,.29-5.51,35.76,35.76,0,0,0,.3-5.51,23.49,23.49,0,0,1,.28-7.84,27.1,27.1,0,0,0,0-7v-1.45c-.28-2.9-.28-5.51-.58-8.12a16,16,0,0,1,.3-3.78,16.28,16.28,0,0,0-.3-6.39,21.71,21.71,0,0,1-.29-7.54,38.1,38.1,0,0,0,0-8.13,65.56,65.56,0,0,1,.29-13.06,9.52,9.52,0,0,1,1.16-4.07,5.49,5.49,0,0,1,3.78-2.9,15.77,15.77,0,0,1,5.22,0c3.78.58,5.52,2.9,5.52,6.68a81.49,81.49,0,0,0,0,11.9v3.19a25.05,25.05,0,0,0,.29,4.65,26,26,0,0,1-.58,6.67V394a32.84,32.84,0,0,0,0,7.55,41.1,41.1,0,0,1,.58,8.42v2.32a5.65,5.65,0,0,1,.29,2.32c-.29,2-.29,3.77-.58,5.81h0a1.07,1.07,0,0,0-.29.87v4.93a43,43,0,0,0-.29,6.1Z" fill="#fff"/><path d="M437.78,426.75a44.29,44.29,0,0,0,.87,8.71,16.81,16.81,0,0,1-1.45,12.48c-.29.58-.58.87-.87,1.45,0,.3,0,.3-.29.58a18,18,0,0,1-4.07,5.52,34.26,34.26,0,0,0-3.19,3.19,11.4,11.4,0,0,1-6.09,3.77,29.33,29.33,0,0,1-10.16.87,23.45,23.45,0,0,1-11.62-2A18.74,18.74,0,0,1,390.75,452a.28.28,0,0,0-.29-.29,17.74,17.74,0,0,0-1.45-3.48,12.46,12.46,0,0,1-1.16-7.26,3.9,3.9,0,0,1,3.77-4.06c.87-.29,1.74-.29,2.61-.58H396c2.9-.29,4.93.58,6.38,2.9a5.33,5.33,0,0,1,1.46,2,9.82,9.82,0,0,0,8.13,5.22,10.65,10.65,0,0,0,5.22-.29,11.17,11.17,0,0,0,3.78-2.61,6.66,6.66,0,0,0,1.74-4.65,36.6,36.6,0,0,0,0-7.83,8.24,8.24,0,0,0-2.61-4.94c-1.46-1.45-2.62-2.9-4.07-4.35a9.7,9.7,0,0,0-4.65-2.9c-.58,0-.87-.3-1.45-.3a10,10,0,0,1-2.61-1.16,27.45,27.45,0,0,1-11-7l-1.74-1.74a29.88,29.88,0,0,1-2.91-3.49,18.05,18.05,0,0,1-3.77-9.86,36,36,0,0,0-.87-7.84,10.46,10.46,0,0,1,.29-5.23,1.06,1.06,0,0,0,.29-.86l2.61-8.72A9.73,9.73,0,0,1,394,367a26.88,26.88,0,0,1,19.74-6.1,34.09,34.09,0,0,1,12.77,3.78,15.86,15.86,0,0,1,2.62,2c2,2,3.76,4.06,5.51,6.09a16.39,16.39,0,0,1,3.48,8.72,4.77,4.77,0,0,1-2,4.64,10,10,0,0,1-7.54,1.45,8.08,8.08,0,0,1-6.1-4.07,18.75,18.75,0,0,0-3.78-4.64,6.43,6.43,0,0,0-6.67-1.45h-.59a15.61,15.61,0,0,0-5.8,2.9c-2.62,2-3.48,4.93-2.9,8.42V389a7,7,0,0,1,.57,2.32,11,11,0,0,0,4.65,7.55,58.59,58.59,0,0,0,12.48,7.25,27.93,27.93,0,0,1,8.72,5.52,17.56,17.56,0,0,1,4.34,4.93,52.2,52.2,0,0,1,3.78,7,10.43,10.43,0,0,1,.58,3.19Z" fill="#fff"/><path d="M514.71,426.75a44.29,44.29,0,0,0,.87,8.71,15.62,15.62,0,0,1-1.74,12.48c0,.58-.29.87-.58,1.45,0,.3-.29.3-.29.58a18.08,18.08,0,0,1-4.06,5.52,33.24,33.24,0,0,0-3.2,3.19,11.14,11.14,0,0,1-6.38,3.77,27.15,27.15,0,0,1-9.88.87,23.43,23.43,0,0,1-11.61-2A17.79,17.79,0,0,1,467.68,452a.28.28,0,0,0-.29-.29,17.74,17.74,0,0,0-1.45-3.48,12.46,12.46,0,0,1-1.16-7.26c0-2.32,1.16-3.77,3.78-4.06.86-.29,1.74-.29,2.61-.58h1.74c2.9-.29,4.93.58,6.38,2.9a12.24,12.24,0,0,1,1.46,2,9.82,9.82,0,0,0,8.13,5.22,10.65,10.65,0,0,0,5.22-.29,11,11,0,0,0,3.77-2.61,6.57,6.57,0,0,0,1.75-4.65,35.42,35.42,0,0,0-.29-7.83,6.65,6.65,0,0,0-2.33-4.94,55.67,55.67,0,0,1-4.06-4.35,11.25,11.25,0,0,0-4.64-2.9,12,12,0,0,1-1.46-.3,10,10,0,0,1-2.61-1.16,27.51,27.51,0,0,1-11-7l-1.74-1.74a29.76,29.76,0,0,1-2.9-3.49,18,18,0,0,1-3.78-9.86,36,36,0,0,0-.87-7.84,10.69,10.69,0,0,1,.29-5.23c0-.29.29-.58.29-.86l2.61-8.72a9.73,9.73,0,0,1,3.78-5.8,26.58,26.58,0,0,1,19.45-6.1,34,34,0,0,1,13.06,3.78,15.41,15.41,0,0,1,2.61,2c2,2,3.77,4.06,5.52,6.09a16.39,16.39,0,0,1,3.48,8.72,4.49,4.49,0,0,1-2.32,4.64,9.07,9.07,0,0,1-7.26,1.45,8.08,8.08,0,0,1-6.09-4.07,19.21,19.21,0,0,0-3.78-4.64,6.82,6.82,0,0,0-7-1.45h-.28a15.57,15.57,0,0,0-5.81,2.9c-2.61,2-3.48,4.93-2.91,8.42V389a6.62,6.62,0,0,1,.59,2.32,11,11,0,0,0,4.64,7.55,58.42,58.42,0,0,0,12.49,7.25,27.85,27.85,0,0,1,8.7,5.52,17.63,17.63,0,0,1,4.36,4.93,53.32,53.32,0,0,1,3.77,7,10.43,10.43,0,0,1,.58,3.19Z" fill="#fff"/><path d="M619.22,386.41a24.15,24.15,0,0,0,.87,6.38,5.78,5.78,0,0,0,1.74,3.78,15.45,15.45,0,0,0,6.39,3.48,7.5,7.5,0,0,0,6.68-.58,9.4,9.4,0,0,0,4.35-5.52,26.33,26.33,0,0,0,.87-6.67,32.08,32.08,0,0,0-.58-5.23,9.81,9.81,0,0,0-6.39-6.67c-2.9-1.16-5.8-.58-8.7,1.45a12.34,12.34,0,0,0-5.23,9.58Zm22.65,61.82q3.48-1.74,1.74-5.22a6.14,6.14,0,0,0-1.16-1.74V441c-2.62-3.77-5.52-7.25-8.42-10.74a8.86,8.86,0,0,1-2-2.61c-1.46-1.74-3.2-3.48-4.94-5.22l-.58-.58a8.81,8.81,0,0,0-2-1.45,3.89,3.89,0,0,0-4.94,2.32c0,.29-.29.87-.29,1.16-.58,3.19-.87,6.38-1.16,9.87v.87a4.94,4.94,0,0,0,.29,2,4.19,4.19,0,0,0,.58,2v.58c1.46,4.36,4.07,7.26,8.42,8.71a27.18,27.18,0,0,0,8.42,1.75,15.69,15.69,0,0,0,6.1-1.46Zm27.86-20.32a7.12,7.12,0,0,1,4.94,3.49,6.51,6.51,0,0,1,.87,5.8,10.52,10.52,0,0,1-1.16,2.62,15.62,15.62,0,0,1-2,3.77c0,.29-.29.58-.29.87a17.2,17.2,0,0,0-1.46,3.48,6.24,6.24,0,0,0,.87,5.51c.3.3.3.59.59.88.29.57.87,1.16,1.16,1.74a5.53,5.53,0,0,1,.58,3.77A4.36,4.36,0,0,1,670,463a7.21,7.21,0,0,0-2.32.29h-1.16a15.14,15.14,0,0,1-6.09-1.16,18.07,18.07,0,0,0-3.49-1.45,9.6,9.6,0,0,0-6.39.29,34.86,34.86,0,0,1-18,2.32,2.2,2.2,0,0,1-1.46-.29,28.6,28.6,0,0,1-7-.87,16.46,16.46,0,0,1-6.39-2c-.29-.29-.87-.58-1.16-.87a26.48,26.48,0,0,1-3.77-2.32,10.86,10.86,0,0,1-4.07-4.06,37.6,37.6,0,0,1-6.39-18.29,35.29,35.29,0,0,1,.29-5.52,6.21,6.21,0,0,1,.3-2.32V425a8.94,8.94,0,0,0,.29-2.9,24,24,0,0,1,2-9l.87-1.74.87-1.74c1.16-3.19,1.45-6.1,0-9.29a31.49,31.49,0,0,1-2-7,13.24,13.24,0,0,1-.58-5.8,32.08,32.08,0,0,0,.58-5.23c.29-1.45.29-2.61.58-3.77a15.9,15.9,0,0,1,7-11.61A19.2,19.2,0,0,1,623,362.32a46.67,46.67,0,0,0,6.09-1.17,19,19,0,0,1,7,.58,59.49,59.49,0,0,1,7.55,2.33,17.33,17.33,0,0,1,8.13,7c.58,1.17,1.16,2.61,1.74,3.78a62.8,62.8,0,0,1,2.9,12.77,6.39,6.39,0,0,1,.29,2.32,40.65,40.65,0,0,1-3.19,11.61,20.17,20.17,0,0,1-7.26,9c-.29,0-.29,0-.58.29-.87.58-1.45,1.16-2.32,1.74-1.45,1.45-2,3.19-.87,5.22a10.33,10.33,0,0,0,2.32,3.49c2.9,3.48,5.51,6.67,8.13,10.16a3.49,3.49,0,0,0,1.45,1.45,4.88,4.88,0,0,0,6.39.29,15.52,15.52,0,0,0,2-2.32c.29-.29.57-.59.57-.87a6.53,6.53,0,0,1,6.39-2Z" fill="#fff"/><path d="M804.43,402.66a14.24,14.24,0,0,1,.29,7.84v2.9a31.76,31.76,0,0,1,0,7.55,29.82,29.82,0,0,0-.29,4.93,65.71,65.71,0,0,1-.58,13.06,11.25,11.25,0,0,0,.58,4.35,25.11,25.11,0,0,1,.29,4.65v2.9a29.37,29.37,0,0,1-.29,7.26,5.1,5.1,0,0,1-2.9,3.48,13,13,0,0,1-8.13.87c-2.9-.58-4.35-2.32-4.06-5.51a17.62,17.62,0,0,0,0-5.52,89.62,89.62,0,0,1,0-12.48V426.75a6,6,0,0,0-.29-3.19,5.28,5.28,0,0,0-3.49-3.49,8,8,0,0,0-3.77-.28,45.26,45.26,0,0,1-8.71,0c-3.19-.3-5.22.87-6.39,3.77a8.48,8.48,0,0,0-.58,7,11.21,11.21,0,0,1,0,7.54c0,1.16-.28,2-.28,2.9v5.81a9.55,9.55,0,0,0,0,4.06,16.94,16.94,0,0,1-.59,6.68,5.88,5.88,0,0,1-4.64,4.64,11.89,11.89,0,0,1-5.52-.29,5,5,0,0,1-4.06-4.64V454.9a15.71,15.71,0,0,0,0-5.21v-.3c-.29-2-.58-4.35-.87-6.38a53.68,53.68,0,0,1,.29-6.68,28,28,0,0,0,0-7,11.06,11.06,0,0,1,.29-4.35,48,48,0,0,0,.87-9.29,16.09,16.09,0,0,0-.87-4.93,20.41,20.41,0,0,1-.29-7.26v-2.61a31.26,31.26,0,0,1,.29-9v-1.16a21.42,21.42,0,0,0,0-6.09,14.18,14.18,0,0,1,0-7,10.87,10.87,0,0,0,0-6.09,22.1,22.1,0,0,1-.29-4.36c0-3.78,2-5.8,5.8-6.39a11.49,11.49,0,0,1,5.52.59,6.2,6.2,0,0,1,3.2,2.9,17.91,17.91,0,0,1,1.45,5.22v.58a27.53,27.53,0,0,1,.28,4.65,42.29,42.29,0,0,1-.28,6.09,1,1,0,0,1-.3.87,41.1,41.1,0,0,0,.58,8.42,40.85,40.85,0,0,1,0,8.42,3.8,3.8,0,0,0-.28,1.74,4,4,0,0,0,3.48,3.77,3.68,3.68,0,0,0,1.74-.29h3.2a70.58,70.58,0,0,0,7.83.29H783a7.28,7.28,0,0,0,5.23-2.32c.29-.58.87-1.16.87-1.74a11.27,11.27,0,0,0,.29-7.55,22.14,22.14,0,0,1-.58-7.54,43,43,0,0,0,.29-6.1V378a35.51,35.51,0,0,1,.29-7.84c.29-.58.29-1.45.58-2v-1.74c.87-3.77,2.9-5.52,6.39-5.52a14.09,14.09,0,0,1,3.48.59,5.45,5.45,0,0,1,3.48,3.19,34.15,34.15,0,0,1,1.16,7.25,64,64,0,0,0,.59,7.55,21.49,21.49,0,0,1,0,6.1,16.87,16.87,0,0,0-.3,5.51,8.05,8.05,0,0,1,0,3.78c0,.28-.29.87-.29,1.15a1.08,1.08,0,0,1-.28.87,12.78,12.78,0,0,0,.28,5.81Z" fill="#fff"/><path d="M880.2,451.13c-.29.58-.57.87-.87,1.45a24.67,24.67,0,0,1-2.32,2.91,12.88,12.88,0,0,1-3.19,2.32,29.37,29.37,0,0,0-4.36,2,23.26,23.26,0,0,1-9.87,3.19,3.2,3.2,0,0,1-2.32,0c-.58,0-1.16-.29-1.74-.29-3.2-.58-6.68-1.45-9.87-2.32,0-.29,0-.29-.29-.29a27.42,27.42,0,0,1-6.68-2.9,15.54,15.54,0,0,1-3.77-3.78,25.78,25.78,0,0,1-4.36-12.77,46,46,0,0,1,.29-9,3.66,3.66,0,0,1,.29-1.73,16.58,16.58,0,0,0-.29-3.78v-1.45a1.07,1.07,0,0,0-.29-.87v-5.23a31.52,31.52,0,0,1,.29-5.22,58.68,58.68,0,0,0-.29-10.16v-2.61c0-.87-.29-1.74-.29-2.32,0-.29-.29-.29-.29-.58a12.92,12.92,0,0,1,.29-5.81,19.15,19.15,0,0,0,.29-4.06V376.25a31.58,31.58,0,0,1,.29-5.23v-4.64a4,4,0,0,1,3.2-4.06,13.82,13.82,0,0,1,8.41.29,5,5,0,0,1,3.2,3.19,9.65,9.65,0,0,1,.29,4.06,32.94,32.94,0,0,0,.29,7.55,1.74,1.74,0,0,0,.29,1.16,17.63,17.63,0,0,1,.29,5.51c-.29,2.91-.29,5.81-.29,8.71a17.62,17.62,0,0,1,0,5.52c0,3.48,0,7,.29,10.45a4.3,4.3,0,0,1,.29,2,30.73,30.73,0,0,1-.58,7.26,17.56,17.56,0,0,0,0,5.51,34.46,34.46,0,0,1,.29,12.19,7.83,7.83,0,0,0,2,6.09A4.4,4.4,0,0,1,850,443a4,4,0,0,0,.88,1.16,7.68,7.68,0,0,0,8.12,2,17.13,17.13,0,0,0,4.35-2.61,5.78,5.78,0,0,0,2.33-2.91l.87-3.48c.29-3.19.29-6.38.29-9.58v-.29a56.31,56.31,0,0,1,.58-7,66.34,66.34,0,0,0,.58-7.84l-.87-9.58c0-1.16-.29-2.61-.29-4.06V396c0-3.48.29-6.67.58-10.15v-1.16a37.17,37.17,0,0,1-.29-5.52,25.08,25.08,0,0,0-.58-8.13,9.58,9.58,0,0,1,0-4.06,7.46,7.46,0,0,1,5.81-5.81,18.56,18.56,0,0,1,7,.3,5.56,5.56,0,0,1,4.36,4.35,17.56,17.56,0,0,1,0,5.51,37.1,37.1,0,0,0-.29,5.81v15.09a25.75,25.75,0,0,1,0,6.68,21.77,21.77,0,0,0,.29,7.55,14.14,14.14,0,0,1,0,7,51.77,51.77,0,0,0-.58,6.67,6.47,6.47,0,0,0-.29,2.33,8,8,0,0,0,.29,2.61v.87a21.49,21.49,0,0,1,0,6.1,35.43,35.43,0,0,0,0,7.84,14.62,14.62,0,0,1-2.91,11.31Z" fill="#fff"/><path d="M961.49,413.69v4.64c0,2.33-.29,4.94-.58,7.84,0,1.16-.29,2.61-.29,3.78v4.35a60.7,60.7,0,0,0-.29,7.26,7.24,7.24,0,0,1-.87,4.93c0,.29-.29.58-.29,1.16a30.64,30.64,0,0,0-2.32,4.35,13.25,13.25,0,0,1-3.2,3.78,25.5,25.5,0,0,1-2.9,1.74c-.58.58-1.45,1.16-2,1.74a8.69,8.69,0,0,1-4.36,1.45,58.31,58.31,0,0,1-12.19,1.45,29.53,29.53,0,0,1-13.06-3.77,8,8,0,0,1-3.49-4.06,28.44,28.44,0,0,0-3.19-4.94,11.57,11.57,0,0,1-2-7v-2a27.53,27.53,0,0,0-.28-4.94c0-.29,0-.29-.3-.58V434a27.39,27.39,0,0,1-.57-11.9,33.31,33.31,0,0,0,.57-5.52v-3.48c0-.87.3-1.74.3-2.61a61.24,61.24,0,0,0-.59-7.26,49.11,49.11,0,0,1,0-16c0-1.45.29-3.2.29-4.94,0-.58.3-1.16.3-1.74a16.15,16.15,0,0,1,.87-5.22A18.47,18.47,0,0,1,915,369c.87-.58,1.74-1.45,2.61-2a13,13,0,0,0,2-2,17.59,17.59,0,0,1,4.07-2c3.48-.58,7.26-1.45,10.74-2.33h4.64a24.85,24.85,0,0,1,10.75,4.36,68.9,68.9,0,0,1,8.71,9.57,14.11,14.11,0,0,1,2,7.55,4.88,4.88,0,0,1-2.9,4.65c-.58.29-1.17.29-1.46.58a38.87,38.87,0,0,1-5.8.29,6.65,6.65,0,0,1-5.23-3.49c-.29-.58-.87-1.16-1.16-1.74a1,1,0,0,0-.29-.58,6.21,6.21,0,0,0-4.65-3.48,16.91,16.91,0,0,0-6.67-.58,8.06,8.06,0,0,0-4.65,3.48,28.9,28.9,0,0,0-2,4.36,15.17,15.17,0,0,0-.87,5.22,28.1,28.1,0,0,1-.29,7,12.48,12.48,0,0,0,0,4.64,20.25,20.25,0,0,1,.29,9.29,12.16,12.16,0,0,0,.29,4.64,15.53,15.53,0,0,1-.29,7.26,3.68,3.68,0,0,1-.29,1.74c0,.58,0,.87-.29,1.16a17.05,17.05,0,0,0,.29,6.68,5.66,5.66,0,0,0,.29,2,17.06,17.06,0,0,0,1.16,5.23,9.2,9.2,0,0,0,9,5.8,7.07,7.07,0,0,0,3.48,0,6.87,6.87,0,0,0,4.36-2.61,8.23,8.23,0,0,0,2-4.94,19.42,19.42,0,0,0,0-5.8v-3.78a12.55,12.55,0,0,0-.29-4.64,6.35,6.35,0,0,0-4.35-4.94,8.65,8.65,0,0,0-2.91-.57,6.7,6.7,0,0,1-4.93-4.65,29.82,29.82,0,0,1-.29-4.93c.58-2.9,2-4.64,5.22-4.64H938a42.18,42.18,0,0,0,8.41,0h2a48.73,48.73,0,0,1,6.39.28,3.15,3.15,0,0,1,1.45.29c1.74,0,2.91,1.17,3.78,2.91a17.16,17.16,0,0,1,1.45,5.51Z" fill="#fff"/><path d="M351.56,199.48v-6.09c0-1.45.29-3.19.29-4.94v-.86a39.71,39.71,0,0,0,.58-5.81v-2.33a6.36,6.36,0,0,1-.29-2.32,27.45,27.45,0,0,0-.58-8.41,32.87,32.87,0,0,1,0-7.55v-.29a26,26,0,0,0,.58-6.68c0-1.74-.29-3.19-.29-4.64v-3.2a81.49,81.49,0,0,1,0-11.9c0-4.06-1.74-6.09-5.23-6.67a17.56,17.56,0,0,0-5.51,0,6.15,6.15,0,0,0-3.77,2.9,16.44,16.44,0,0,0-1.16,4.06,65.61,65.61,0,0,0,0,13.07V156a32.76,32.76,0,0,0,0,7.54,16.44,16.44,0,0,1,.29,6.39c0,1.16-.29,2.61-.29,3.77a71.37,71.37,0,0,1,.57,8.13,2.54,2.54,0,0,0,.3,1.45,54.26,54.26,0,0,1-.3,7,36,36,0,0,0-.28,7.83,37.17,37.17,0,0,1-.29,5.52,17.53,17.53,0,0,0,0,5.51v3.49a25,25,0,0,0,.29,4.64,12,12,0,0,1,.58,4.64,8,8,0,0,0,.29,2.61,6.34,6.34,0,0,0,4.35,4.94,12.57,12.57,0,0,0,4.64.29,5.35,5.35,0,0,0,5.52-4.07c.29-1.16.29-2.31.58-3.48a35.1,35.1,0,0,1,.29-5.51,42,42,0,0,0-.58-12.19A28.8,28.8,0,0,1,351.56,199.48Z" fill="#241b2e"/><path d="M483.94,225.32a29.88,29.88,0,0,0,.29-7.26v-2.9a25.38,25.38,0,0,0-.58-4.65,22,22,0,0,1-.29-4.35,98.5,98.5,0,0,0,.58-13.07,14.55,14.55,0,0,1,.29-4.93,32.84,32.84,0,0,0,0-7.55,9.72,9.72,0,0,1,0-2.9,17.87,17.87,0,0,0-.29-7.83,12.93,12.93,0,0,1-.29-5.81c0-.29.29-.58.29-.87a1.74,1.74,0,0,1,.29-1.16,19,19,0,0,0,0-4.07,15.77,15.77,0,0,1,0-5.22,14.42,14.42,0,0,0,.29-6.09,66.33,66.33,0,0,1-.58-7.55,35.5,35.5,0,0,0-1.45-7.25,4.83,4.83,0,0,0-3.48-3.2,10.55,10.55,0,0,0-3.2-.58c-3.48,0-5.8,1.74-6.39,5.52,0,.57-.29,1.15-.29,1.74a4.94,4.94,0,0,1-.29,2,73.83,73.83,0,0,0-.58,7.84v.86a20.78,20.78,0,0,1,0,6.1,22.2,22.2,0,0,0,.58,7.55,13.46,13.46,0,0,1-.28,7.54,6.37,6.37,0,0,1-1.17,1.75,6.22,6.22,0,0,1-4.93,2.32h-.29a70.85,70.85,0,0,1-7.84-.29h-3.19a3.7,3.7,0,0,1-1.75.29,3.79,3.79,0,0,1-3.48-3.77v-1.75a20.59,20.59,0,0,0,0-8.42,41.51,41.51,0,0,1-.29-8.41v-.88a43.26,43.26,0,0,0,.58-6.09,26.54,26.54,0,0,0-.29-4.64v-.58a17.75,17.75,0,0,0-1.45-5.23,6.75,6.75,0,0,0-3.49-2.9,10.79,10.79,0,0,0-5.22-.58c-3.78.58-5.81,2.61-6.1,6.38a22.38,22.38,0,0,0,.58,4.36,10.7,10.7,0,0,1,0,6.09,14.18,14.18,0,0,0,0,7,21.42,21.42,0,0,1,0,6.09v.87a51.62,51.62,0,0,0-.58,9.29,4.05,4.05,0,0,1,0,2.62,20.49,20.49,0,0,0,.58,7.25,14.19,14.19,0,0,1,.59,4.94,48.17,48.17,0,0,1-.88,9.29,22,22,0,0,0-.29,4.35,28.08,28.08,0,0,1,.29,7,26.28,26.28,0,0,0-.29,6.67c.29,2,.58,4.35.87,6.39v.29a15.25,15.25,0,0,1,0,5.22,6.24,6.24,0,0,0,0,2.32c.3,2.61,1.45,4.07,4.07,4.65a10.68,10.68,0,0,0,5.23.29,5.86,5.86,0,0,0,4.93-4.65,16.91,16.91,0,0,0,.58-6.67A17.88,17.88,0,0,1,445,214a33.48,33.48,0,0,0,.29-5.52v-.29a9.87,9.87,0,0,1,.29-2.9c.87-2.33.58-4.94,0-7.55a9.63,9.63,0,0,1,.29-7A5.72,5.72,0,0,1,452.3,187a46.64,46.64,0,0,0,9,0,8.35,8.35,0,0,1,3.77.29,5.47,5.47,0,0,1,3.19,3.49,6.24,6.24,0,0,1,.58,3.19v12.19a92.81,92.81,0,0,0,0,12.48v5.52c-.28,3.19,1.17,4.93,4.07,5.51a15.42,15.42,0,0,0,8.13-.87A5.12,5.12,0,0,0,483.94,225.32Z" fill="#241b2e"/><path d="M551.58,221.54a10.43,10.43,0,0,0,.58,3.19,6,6,0,0,0,3.2,3.78,25.4,25.4,0,0,0,7.83,1.74,4.3,4.3,0,0,0,4.07-3.48,7.23,7.23,0,0,0,0-4.94,74.89,74.89,0,0,1-1.74-11.32v-.29a45.26,45.26,0,0,0-2.33-10.45,45.1,45.1,0,0,1-2.9-10.74,24.38,24.38,0,0,0-1.16-4.35c-.58-2.32-1.16-4.94-1.75-7.55a47,47,0,0,0-1.15-5.51v-1.74a27.89,27.89,0,0,0-2.62-9.58,24.48,24.48,0,0,1-2.32-7.84,48.3,48.3,0,0,0-.87-6.39,10.23,10.23,0,0,1-.87-4.06,54.19,54.19,0,0,0-3.49-9.58c0-.29-.29-.57-.29-.87a5.89,5.89,0,0,0-3.48-3.48,10.66,10.66,0,0,0-6.1-.29,8.76,8.76,0,0,0-5.22,2.32,3,3,0,0,0-1.45,1.75,10.42,10.42,0,0,0-2,5.22,28.85,28.85,0,0,1-1.75,6.67,11.92,11.92,0,0,0-.87,4.35,24.81,24.81,0,0,1-1.45,6.68A19.45,19.45,0,0,0,522,160.3l-1.74,7.83a14.64,14.64,0,0,0-.58,3.49,31.27,31.27,0,0,1-2.33,9,11.23,11.23,0,0,0-.87,2.91c-1.16,4.93-2.32,9.87-3.77,14.8,0,.58,0,.87-.29,1.16a74.36,74.36,0,0,0-1.45,7.84,13,13,0,0,1-.29,3.19A54.79,54.79,0,0,1,508,219.8v.29c-.28.87-.58,1.74-.86,2.61a6.57,6.57,0,0,0,1.15,4.65,5.3,5.3,0,0,0,4.65,2.32c1.74-.29,3.77-.58,5.81-.87a7.17,7.17,0,0,0,4.64-4.07,15.8,15.8,0,0,0,1.45-6.38V216c.87-3.78,2.91-5.52,6.39-5.81.58,0,.87,0,1.16-.29h8.13a1.85,1.85,0,0,1,1.74,0,7.2,7.2,0,0,1,6.1,3.19,20.17,20.17,0,0,1,2.9,7.26C551.29,220.67,551.58,221.25,551.58,221.54Zm-11.9-27.86h-2a11,11,0,0,1-2.91-.29c-2.32-.58-3.19-2.33-3.19-4.65a30.16,30.16,0,0,1,1.16-4.06,31.86,31.86,0,0,0,1.74-7.55,5.77,5.77,0,0,1,.88-3.19,2.72,2.72,0,0,1,2.32-1.74,2.65,2.65,0,0,1,2.32,1.16l.87,1.74a11.64,11.64,0,0,1,.87,4.35,88.58,88.58,0,0,0,1.45,9.29C543.45,191.65,542.58,193.09,539.68,193.68Z" fill="#241b2e"/><path d="M634.32,153.91a51.08,51.08,0,0,1,2-13.06,44.92,44.92,0,0,0,1.45-6.68,5.32,5.32,0,0,0-3.77-5.51A16.83,16.83,0,0,0,630,127.5c-4.06-.58-7,1.16-8.71,4.93a25.54,25.54,0,0,0-1.74,6.68c0,.58-.29,1.45-.29,2a17,17,0,0,1-.58,3.77c0,.88-.29,1.75-.29,2.32a41.48,41.48,0,0,0-1.16,5.81,10.37,10.37,0,0,1-.58,2.91,12.26,12.26,0,0,0-.58,3.19,29.77,29.77,0,0,1-1.45,7,46.41,46.41,0,0,0-2.62,9.58,4.3,4.3,0,0,0-.29,2,2.25,2.25,0,0,0-.28,1.45,4.06,4.06,0,0,1-.87,1.45,1.63,1.63,0,0,1-2.62,0,4.64,4.64,0,0,1-1.16-2,46.18,46.18,0,0,1-2.32-11.33,55.49,55.49,0,0,0-3.49-13.64,16.62,16.62,0,0,1-1.16-4.06V148.4a32.08,32.08,0,0,0-.58-5.23,67.71,67.71,0,0,1-2-7.25,14.43,14.43,0,0,0-1.16-3.78,7.83,7.83,0,0,0-6.1-4.64h-3.19a13.08,13.08,0,0,0-3.2.29c-2,.58-3.48,1.74-3.77,4.07a5.6,5.6,0,0,0-.29,2.31,15.16,15.16,0,0,0,1.16,6.1,9.28,9.28,0,0,1,.87,4.07,36.26,36.26,0,0,0,3.19,13.35,34.52,34.52,0,0,1,2,7.83v1.16c.29,1.75.87,3.77,1.16,5.81.87,3.77,1.45,7.25,2,11,.29,1.74.87,3.19,1.16,4.64A44.64,44.64,0,0,1,592.8,194a52.81,52.81,0,0,1,1.74,13.64,8.2,8.2,0,0,0,1.17,4.35,30,30,0,0,1,2,7.26,17.9,17.9,0,0,0,2.32,7,9,9,0,0,0,5.81,3.78,23.57,23.57,0,0,0,6.38-.29,6.71,6.71,0,0,0,5.52-3.49c1.45-2.32,2.62-4.35,2.9-7a55.48,55.48,0,0,1,1.74-9.58,2.54,2.54,0,0,0,.3-1.45,27.54,27.54,0,0,1,2-8.42,23.12,23.12,0,0,0,.87-4.35,58.23,58.23,0,0,1,1.16-7,53.76,53.76,0,0,0,2-11.9,33.68,33.68,0,0,1,2.32-9.29A36,36,0,0,0,634.32,153.91Z" fill="#241b2e"/><path d="M706.31,216a2.17,2.17,0,0,0-1.45-.29,3.57,3.57,0,0,0-1.74-.3c-1.45-.28-2.61-.28-3.78-.57a33.38,33.38,0,0,0-10.73-.3,17,17,0,0,1-6.68-.57,4.64,4.64,0,0,1-3.49-4.07v-3.19a26.53,26.53,0,0,0-.29-4.93v-1.74a71.47,71.47,0,0,0,.58-7.84c.29-3.2,2-4.94,4.94-5.23a21.76,21.76,0,0,1,7.55-.29h6.38a14.47,14.47,0,0,0,3.48-.58,5.61,5.61,0,0,0,3.78-4.93,8.29,8.29,0,0,0-1.16-6.39,6.4,6.4,0,0,0-2.9-2.61c-3.49-.87-6.68-1.45-10.16-.87h-5.23a9.7,9.7,0,0,1-4.65-2,5.28,5.28,0,0,1-2-4.36,11,11,0,0,1,0-4.35,15.83,15.83,0,0,0,0-5.23,17.26,17.26,0,0,1,.29-6.67c.59-2.62,2-4.07,4.65-4.07a32.63,32.63,0,0,1,5.22-.28h.59a11.51,11.51,0,0,0,3.19-.3c3.48-.29,6.67-.58,10.16-.58a10.3,10.3,0,0,0,2.9-.58,4.86,4.86,0,0,0,2.9-2,7.46,7.46,0,0,0,1.46-3.48,12.89,12.89,0,0,0-.88-4.64,6.28,6.28,0,0,0-6.38-4.65c-1.75,0-3.2.29-4.94.29-2.61,0-5.22-.29-8.13-.58a15.84,15.84,0,0,0-5.22-.29h-3.2c-4.06.29-8.41.58-12.77,1.16a5.73,5.73,0,0,0-4.06,1.74,10,10,0,0,0-2.32,4.65,42.68,42.68,0,0,0,0,6.09v1.46a9.32,9.32,0,0,0,.58,4.93,35,35,0,0,1,.29,14.51v2a37.68,37.68,0,0,0-.58,9.87v11.9a20.54,20.54,0,0,0,.29,4.06,15.83,15.83,0,0,1,0,5.23,22,22,0,0,0,0,8.7,14.57,14.57,0,0,1,.29,6.1,12.91,12.91,0,0,0-.29,5.81,47.25,47.25,0,0,1,.87,6.09V225a5,5,0,0,0,4.64,4.93,32.08,32.08,0,0,1,5.23.58,43.44,43.44,0,0,1,6.38.58c2.91,0,6.1,0,9-.29a35.52,35.52,0,0,1,7.85,0h4.93a12.18,12.18,0,0,0,6.09-1.74,9.88,9.88,0,0,0,3.2-7A5.7,5.7,0,0,0,706.31,216Z" fill="#241b2e"/><path d="M518.78,608.16h-4.36a39.53,39.53,0,0,1-8.42-.87,11,11,0,0,0-4.35,0h-.58a28.25,28.25,0,0,1-4.94.29,1.07,1.07,0,0,1-.87-.29,31.37,31.37,0,0,0-5.22,0H486a8,8,0,0,1-2.61.29,5.55,5.55,0,0,0-4.65,4.65,19.24,19.24,0,0,0-.87,6.09v7.25a88.7,88.7,0,0,0,0,12.2v7c-.28,1.45-.28,2.91-.58,4.65a69.14,69.14,0,0,0-.29,11c.29,3.48.59,7,.87,10.45v3.48a27.13,27.13,0,0,1-.28,10.74,12.81,12.81,0,0,0,0,6.68v.87a25.3,25.3,0,0,1,.57,6.38v2a21.79,21.79,0,0,0,.88,6.1,4.67,4.67,0,0,0,4.35,3.48,10.55,10.55,0,0,0,7.26-1.16,5.27,5.27,0,0,0,2.9-4.35,8.32,8.32,0,0,0,0-3.78v-.58a39.75,39.75,0,0,1-.29-10.16,17.83,17.83,0,0,0,0-7.83,22.59,22.59,0,0,1,.58-11.61,5.68,5.68,0,0,1,4.36-4.07,11.71,11.71,0,0,1,5.51-.28c3.49.28,6.68.28,9.87.28,3.19-.28,4.94-1.74,5.52-4.64a18.83,18.83,0,0,0-.29-7c-.59-2.32-1.75-3.77-4.07-4.06a8.94,8.94,0,0,0-2.9-.29,1.74,1.74,0,0,1-1.16-.29,81.49,81.49,0,0,0-11.9,0,3.33,3.33,0,0,1-3.78-1.74,12,12,0,0,1-1.45-7.84,74.31,74.31,0,0,0,.87-11.32v-1.45a3.14,3.14,0,0,1,1.16-2.61,10.13,10.13,0,0,1,7-2.91h7a24.82,24.82,0,0,1,8.13.59h.87a4.48,4.48,0,0,0,4.64-2.91,14.57,14.57,0,0,0,1.45-3.77,6.7,6.7,0,0,0,.59-3.48,4.36,4.36,0,0,0-1.17-2.62A9,9,0,0,0,518.78,608.16Z" fill="#241b2e"/><path d="M602.38,630.8a28.52,28.52,0,0,0-1.74-6.68c-.87-2-2-4.06-2.9-6.38a9.79,9.79,0,0,0-4.07-4.35c-1.16-.58-2.32-1.45-3.48-2a11.37,11.37,0,0,1-2.61-1.45,17.68,17.68,0,0,0-12.19-1.74,44.44,44.44,0,0,1-8.71.87,4.68,4.68,0,0,0-3.2,1.45c-1.45.87-2.61,1.75-4.06,2.61a2.91,2.91,0,0,1-1.45,1.17,20,20,0,0,0-6.39,8.12,31.34,31.34,0,0,0-2,9,23.55,23.55,0,0,0,0,6.39,22,22,0,0,1-.29,4.35,30.45,30.45,0,0,0,.29,7.26,8,8,0,0,1,0,5.22c0,.87-.29,2-.29,2.91a28.14,28.14,0,0,1-.29,4.93v7.84a6,6,0,0,0,0,3.19,29.16,29.16,0,0,1,0,8.7,25.75,25.75,0,0,0,0,6.68,57.85,57.85,0,0,0,2,6.67,20.79,20.79,0,0,0,3.48,6.1,13.45,13.45,0,0,0,6.68,4.65,33.87,33.87,0,0,0,7,2.61,10.39,10.39,0,0,1,3.19,1.16,14.16,14.16,0,0,0,3.48.29,17.88,17.88,0,0,0,3.78-.29,2.61,2.61,0,0,0,1.45-.29,25,25,0,0,0,13.35-4.94,23,23,0,0,0,8.13-13.93,28.14,28.14,0,0,0,.29-4.93,38.39,38.39,0,0,1,.58-8.13,83.13,83.13,0,0,0,0-14.8v-.87a27.37,27.37,0,0,1-.29-8.42,28,28,0,0,0,.29-7c0-.3.29-.88.29-1.17V645a6.19,6.19,0,0,1,.3-2.32v-4.35a34,34,0,0,0-.3-5.52A4.94,4.94,0,0,1,602.38,630.8Zm-16.84,37.74c0,1.45.3,3.19.3,4.64,0,.87.28,1.74.28,2.61a12.31,12.31,0,0,1-.28,3.19v3.19c-.3,1.17-.3,2.33-.59,3.49a10,10,0,0,1-3.48,6.67,8.38,8.38,0,0,1-7,1.46,13,13,0,0,1-6.67-3.78,7.73,7.73,0,0,1-2-4.06c0-1.45-.3-2.61-.3-4.06,0-5.23-.28-10.16-.57-15.09a18.76,18.76,0,0,1,.29-5.81,25.52,25.52,0,0,0,.28-8.13,16.32,16.32,0,0,1,0-5.22,39.47,39.47,0,0,0,0-8.42l-.28-.29a9.82,9.82,0,0,1,.28-4.94,18.06,18.06,0,0,1,4.07-8.12,5,5,0,0,1,3.48-1.75,10.4,10.4,0,0,1,11,4.65,9.27,9.27,0,0,1,1.15,4.64c0,2,.3,3.78.3,5.52v9.58a20.72,20.72,0,0,0,0,6.09,9,9,0,0,1,0,5.52A20.43,20.43,0,0,0,585.54,668.54Z" fill="#241b2e"/><path d="M677,619.48a44.32,44.32,0,0,0-7.55-7.25,15.06,15.06,0,0,0-9-4.07c-1.17,0-2.33-.29-3.49-.29h-2.61c-.87,0-1.75-.29-2.9-.29a35.79,35.79,0,0,0-5.52-.58c-.87,0-1.74.29-2.32.29a37.1,37.1,0,0,0-5.81.29,22.39,22.39,0,0,0-4.35.58c-1.45.58-2.62,1.16-3.2,2.32a5.92,5.92,0,0,0-.87,4.65,11.06,11.06,0,0,1,.29,4.35,19.51,19.51,0,0,0,0,5.81,22,22,0,0,1,.29,7.54,71.47,71.47,0,0,1-.58,8.13,2.19,2.19,0,0,1-.29,1.16,23.58,23.58,0,0,0,0,6.39,53.82,53.82,0,0,1,.58,13.64v4.06a47.42,47.42,0,0,1,.58,6.39,55.88,55.88,0,0,0-.29,7,19.3,19.3,0,0,1-.29,4.36,18.77,18.77,0,0,0-.29,7,17.92,17.92,0,0,1,.29,4.07c.29,2.61.29,4.93.58,7.55v1.44c.29,2.91,1.75,4.65,4.65,5.23a17.12,17.12,0,0,0,4.06.58c3.2,0,4.94-1.45,5.52-4.64V702.2a44.9,44.9,0,0,1,.29-6.38,17.88,17.88,0,0,0,.29-3.78,15.32,15.32,0,0,1,.29-3.77v-2a43.71,43.71,0,0,0,0-8.71v-3.48c.29-1.45.87-2.61,2-2.9a3,3,0,0,1,3.49.58,7.7,7.7,0,0,1,2,2.32,35.24,35.24,0,0,1,3.19,9.29,8.76,8.76,0,0,0,1.45,4.64,39.59,39.59,0,0,1,2.32,3.78,45.47,45.47,0,0,1,3.48,9.57,13.13,13.13,0,0,0,1.46,4.36,6.35,6.35,0,0,0,3.77,3.48,18.22,18.22,0,0,0,7.84.87,4,4,0,0,0,3.78-3.19,9.86,9.86,0,0,0,.29-4.07,18.15,18.15,0,0,0-1.75-5.22,40.39,40.39,0,0,1-3.48-8.13,12.12,12.12,0,0,0-1.16-2.9A89.36,89.36,0,0,1,670,671.44a6.86,6.86,0,0,1,2.33-7,30.72,30.72,0,0,0,2.9-3.48,43.8,43.8,0,0,0,5.51-9.29,31.7,31.7,0,0,0,1.75-21.77A45,45,0,0,0,677,619.48Zm-11.9,27.86a12.22,12.22,0,0,1-7.84,4.65,8.58,8.58,0,0,1-2.9.58c-.29.29-.87.29-1.45.58H652a5.68,5.68,0,0,1-4.06-.87,5.38,5.38,0,0,1-2-3.48,19,19,0,0,1-.58-7,17.16,17.16,0,0,1,.29-5.51,22.1,22.1,0,0,0,.29-4.36v-2q0-5.65,6.09-5.23a30.78,30.78,0,0,1,7,1.75h.57a19.62,19.62,0,0,1,2.91,1.16,5.47,5.47,0,0,1,3.19,3.48,27.94,27.94,0,0,1,1.74,9.58A10.34,10.34,0,0,1,665.09,647.34Z" fill="#241b2e"/><path d="M812.27,608.45a17,17,0,0,0-6.67,1.16,7.33,7.33,0,0,0-4.36,2.91,33.7,33.7,0,0,0-4.07,7.83c-.28.87-.28,1.74-.57,2.32-.29.88-.58,1.75-.88,2.62-1.16,2.61-2.32,5.22-4.35,7.25a1.55,1.55,0,0,1-.58,1.17c-.29.28-.29.58-.58.86a4.14,4.14,0,0,1-1.74.59,2.53,2.53,0,0,1-1.74-.87,6.65,6.65,0,0,1-.88-1.46c-.87-1.45-1.74-2.9-2.61-4.06l-1.74-3.48c-1.16-2.62-2.32-4.94-3.48-7.26-.87-1.45-1.45-2.9-2.33-4.35a7.07,7.07,0,0,0-1.16-2,.28.28,0,0,1-.29-.29,8.53,8.53,0,0,0-3.48-2.9,13.48,13.48,0,0,0-7.55-.58,5.37,5.37,0,0,0-3.78,2.61,5.24,5.24,0,0,0-.28,4.65,87.39,87.39,0,0,0,4.64,9,31.43,31.43,0,0,1,3.78,8.42,12.68,12.68,0,0,0,1.74,4.65,14.71,14.71,0,0,1,2.61,4.64,23.12,23.12,0,0,0,2.32,4.64,33.09,33.09,0,0,1,3.49,6.1,8,8,0,0,1,.87,3.77,56.54,56.54,0,0,0,1.45,5.81,22.55,22.55,0,0,1,.58,4.65,42.76,42.76,0,0,0-.29,6.09,2.17,2.17,0,0,0,.29,1.45v5.22a1.76,1.76,0,0,0-.29,1.17,57.5,57.5,0,0,0,.87,10.15,13.14,13.14,0,0,1-.29,5.81,10.55,10.55,0,0,0,.58,7.84c0,.28.29.28.29.58a1.51,1.51,0,0,0,.58,1.16,5.12,5.12,0,0,0,2.32,2.61,6.76,6.76,0,0,0,4.65.87h1.45c2.9-.29,4.65-1.74,5.23-4.35a10.88,10.88,0,0,0,.29-2.9v-8.42a8.09,8.09,0,0,1,.29-2.62,29.21,29.21,0,0,0-.29-8.7,15.83,15.83,0,0,1,0-5.23v-.29a74.39,74.39,0,0,0,.86-11.32c0-1.74.3-3.48.3-5.22v-.29a17.06,17.06,0,0,1,1.16-5.23,31.43,31.43,0,0,0,2.32-5.51,15.65,15.65,0,0,1,2.9-5.81,31.85,31.85,0,0,0,4.07-8.41,55.71,55.71,0,0,1,5.51-11,29.17,29.17,0,0,0,3.78-9.87c.58-2,.29-3.48-.87-4.65C815.47,608.74,814,608.45,812.27,608.45Z" fill="#241b2e"/><path d="M893.84,630.8a28,28,0,0,0-1.73-6.68c-.87-2-2-4.06-2.91-6.38a9.83,9.83,0,0,0-4.06-4.35c-1.16-.58-2.32-1.45-3.48-2a11,11,0,0,1-2.61-1.45,17.7,17.7,0,0,0-12.2-1.74,44.36,44.36,0,0,1-8.71.87,4.66,4.66,0,0,0-3.19,1.45c-1.45.87-2.62,1.75-4.06,2.61a3,3,0,0,1-1.46,1.17,20,20,0,0,0-6.38,8.12,31.69,31.69,0,0,0-2,9,23.55,23.55,0,0,0,0,6.39,22,22,0,0,1-.29,4.35,60.7,60.7,0,0,0,.29,7.26,8,8,0,0,1,0,5.22c0,.87-.29,2-.29,2.91a28.14,28.14,0,0,1-.29,4.93v7.84a6,6,0,0,0,0,3.19,29.16,29.16,0,0,1,0,8.7,25.75,25.75,0,0,0,0,6.68,57.85,57.85,0,0,0,2,6.67,21,21,0,0,0,3.49,6.1,13.36,13.36,0,0,0,6.68,4.65,34,34,0,0,0,7,2.61,10.29,10.29,0,0,1,3.19,1.16,14.24,14.24,0,0,0,3.49.29A16.54,16.54,0,0,0,870,710a2.66,2.66,0,0,0,1.46-.29,25,25,0,0,0,13.35-4.94A23,23,0,0,0,893,690.88a28.14,28.14,0,0,0,.29-4.93,39,39,0,0,1,.57-8.13,62.1,62.1,0,0,0,0-14.8v-.87a27.69,27.69,0,0,1-.28-8.42,28,28,0,0,0,.28-7c0-.3.3-.88.3-1.17V645a6.39,6.39,0,0,1,.29-2.32v-4.35a35.16,35.16,0,0,0-.29-5.52A4.78,4.78,0,0,1,893.84,630.8ZM877,668.54c0,1.45.29,3.19.29,4.64,0,.87.29,1.74.29,2.61a11.9,11.9,0,0,1-.29,3.19v.87a7.21,7.21,0,0,1-.29,2.32,14.16,14.16,0,0,1-.29,3.49,10.06,10.06,0,0,1-3.48,6.67,8.39,8.39,0,0,1-7,1.46,13,13,0,0,1-6.68-3.78,7.73,7.73,0,0,1-2-4.06c0-1.45-.29-2.61-.29-4.06,0-5.23-.29-10.16-.58-15.09A19.07,19.07,0,0,1,857,661a25.83,25.83,0,0,0,.29-8.13,15.77,15.77,0,0,1,0-5.22,40.82,40.82,0,0,0,0-8.42l-.29-.29a9.72,9.72,0,0,1,.29-4.94,17.94,17.94,0,0,1,4.06-8.12,4.52,4.52,0,0,1,3.49-1.75c4.64-.87,8.13.88,11,4.65a9.18,9.18,0,0,1,1.16,4.64,33.36,33.36,0,0,0,.29,5.52v3.77a35.28,35.28,0,0,1-.29,5.81,42.83,42.83,0,0,0,.29,6.09,9,9,0,0,1,0,5.52A20.44,20.44,0,0,0,877,668.54Z" fill="#241b2e"/><path d="M973.1,660.7a14.18,14.18,0,0,0,0-7,22,22,0,0,1-.29-7.55,25.68,25.68,0,0,0,0-6.67V624.12a35.1,35.1,0,0,1,.29-5.51,17.6,17.6,0,0,0,0-5.52,5.94,5.94,0,0,0-4.35-4.64,28,28,0,0,0-7,0c-3.19.58-4.93,2.62-5.81,5.81a9.56,9.56,0,0,0,0,4.06,23.64,23.64,0,0,1,.58,7.84,32.2,32.2,0,0,0,.3,5.51v1.16c-.3,3.49-.3,7-.3,10.45,0,.58-.29.87-.29,1.17v1.73c0,1.46.29,2.62.29,4.07q.45,4.79.87,9.57a36.43,36.43,0,0,1-.57,7.85,27.53,27.53,0,0,0-.3,7v.29c0,3.19-.29,6.1-.58,9.58L955.1,688a7.36,7.36,0,0,1-2.32,2.9,15.85,15.85,0,0,1-4.36,2.33,7.07,7.07,0,0,1-8.12-1.75c-.3-.29-.58-.87-.87-1.16s-.59-.87-1.17-1.16a7.64,7.64,0,0,1-1.74-6.09,42.53,42.53,0,0,0-.58-12.19,17.59,17.59,0,0,1,0-5.52,31.84,31.84,0,0,0,.58-7.54v-2c-.29-3.19-.58-6.67-.58-10.16a17.53,17.53,0,0,0,0-5.51c0-2.9,0-5.8.29-8.71a17.16,17.16,0,0,0-.29-5.51c0-.3-.29-.87-.29-1.17a33.46,33.46,0,0,1-.29-7.54,9.71,9.71,0,0,0-.29-4.07c-.58-1.74-1.45-2.9-3.19-3.19a12,12,0,0,0-8.42-.29c-2,.58-3.2,1.74-3.2,4.07v4.64a32.76,32.76,0,0,0-.28,5.23v5.8a38.48,38.48,0,0,0,.28,5.81,14.34,14.34,0,0,1-.58,3.77,14.58,14.58,0,0,0-.28,6.09.28.28,0,0,0,.28.3,7.75,7.75,0,0,1,.3,2.61,5.84,5.84,0,0,0,.28,2.32c0,3.48.3,7,0,10.16a36.2,36.2,0,0,0,0,5.51c0,.88-.28,2-.28,3.19a5.17,5.17,0,0,0,.28,2v2.32a16,16,0,0,1,.3,3.77,3.57,3.57,0,0,0-.3,1.74,46,46,0,0,0-.28,9,25.77,25.77,0,0,0,4.35,12.77,10.92,10.92,0,0,0,3.78,3.49,28,28,0,0,0,6.67,3.19h.29a62.06,62.06,0,0,0,9.87,2.61,3.68,3.68,0,0,1,1.74.29H949a23.26,23.26,0,0,0,9.87-3.19,29.84,29.84,0,0,1,4.36-2,12.91,12.91,0,0,0,3.19-2.33c.88-.86,1.45-2,2.33-2.9a6.34,6.34,0,0,1,.87-1.45,14.68,14.68,0,0,0,2.9-11.32,38.1,38.1,0,0,1,0-8.13,19.42,19.42,0,0,0,0-5.8v-.88a8.88,8.88,0,0,1-.29-2.89c0-.59.29-1.46.29-2A51.77,51.77,0,0,1,973.1,660.7Z" fill="#241b2e"/><path d="M279.57,168.13c-18,0-35.71,0-53.71-2-13.64-1.74-13.35,19.74,0,21.49,18,2,35.71,2,53.71,2,13.64,0,13.64-21.48,0-21.48Z" fill="#ea4b85"/><path d="M231.09,134.75c9.58,7,19.45,13.94,30.48,18.87,5.23,2.61,11.32,1.74,14.51-3.77,2.91-4.64,1.45-12.19-3.77-14.51-11-5.23-20.91-11.9-30.48-19.16-4.65-3.48-11.91-.87-14.81,3.77-2.9,5.52-.58,11.32,4.07,14.8Z" fill="#ea4b85"/><path d="M267.38,203.83c-13.07,6.39-27.3,11-40.07,18-12.48,6.68-1.45,25,10.74,18.58,13.07-7,27-11.9,40.36-18.29,12.19-5.8,1.44-24.38-11-18.29Z" fill="#ea4b85"/><path d="M1073.26,653.15c-16-2.32-31.65-4.35-47.91-4.64-13.64,0-13.64,21.48,0,21.48,14.23.29,28.17,2,42.1,3.77,13.64,2,19.45-18.58,5.81-20.61Z" fill="#ea4b85"/><path d="M1039.29,638.06c12.78-5.81,24.1-14.22,36.58-20.61,12.19-6.38,1.45-24.67-10.74-18.58-12.78,6.39-23.81,14.81-36.58,20.9-12.48,5.8-1.74,24.38,10.74,18.29Z" fill="#ea4b85"/><path d="M1026.23,682.76c-5.52-2-11.9,2.32-13.36,7.54-1.74,6.1,2,11,7.55,13.35a80.11,80.11,0,0,1,25.25,16.26c9.87,9.87,25-5.23,15.1-15.1-9.87-9.57-21.77-16.54-34.54-22Z" fill="#ea4b85"/></g></g></svg>