<svg xmlns="http://www.w3.org/2000/svg" viewBox="0 0 1696.6 853.21"><g id="Layer_2" data-name="Layer 2"><g id="Layer_1-2" data-name="Layer 1"><path d="M1675.48,524.79c15.68-28.73,23.81-61.24,20.33-95.78a99.44,99.44,0,0,0-29.32-60.95,179.8,179.8,0,0,0,1.73-62.41c-4.64-31.63-22.06-55.44-45-69.95a142.81,142.81,0,0,0-17.13-60.08,98.75,98.75,0,0,0-41.22-41.8A103.25,103.25,0,0,0,1434,69.1a234.49,234.49,0,0,0-28.45-14.23C1334.38,26.72,1260.64,83.61,1264.41,157c-2.32-1.74-4.64-3.48-7-4.93a98.21,98.21,0,0,0-21.77-22.06A110.08,110.08,0,0,0,1159.62,108a107.84,107.84,0,0,0-50.52,18,99.25,99.25,0,0,0-58.34-18c-3.78-.29-7.85-.29-11.91-.29-3.77,0-7.26.29-11,.58a87.42,87.42,0,0,0-17.42,0,113.77,113.77,0,0,0-14.23.87l-1.74.29-1.74.29c-1.45.29-2.9.58-4.06.87a107.1,107.1,0,0,0-19.16-1.74h-3.2a100,100,0,0,0-16-.87c-3.2,0-6.39,0-9.29.29-4.35.29-9,.58-13.35,1.16-3.78.29-7.55.87-11.33,1.45a98.23,98.23,0,0,0-20.9-2h-3.19a98.31,98.31,0,0,0-16-.87c-3.2,0-6.09,0-9.29.29-4.35.29-8.71.58-13.06,1.16a86.37,86.37,0,0,0-12.49,1.74,119.89,119.89,0,0,0-14.22-2,102.66,102.66,0,0,0-13.36,0,98.33,98.33,0,0,0-20.9,3.19A105.13,105.13,0,0,0,769.45,108h-2.33a110.78,110.78,0,0,0-29.31,3.19,24,24,0,0,0-6.1,1.74,116.75,116.75,0,0,0-22.35-4.06,118.57,118.57,0,0,0-78.68,21.48A109.17,109.17,0,0,0,574.08,108a110.86,110.86,0,0,0-76.36,22.06A104.48,104.48,0,0,0,476,152.11c-2.32,1.45-4.64,3.19-7,4.93,4.07-73.43-70-130.32-140.79-102.17A199.32,199.32,0,0,0,299.74,69.1a103.14,103.14,0,0,0-130.93,64.72,101.08,101.08,0,0,0-41.51,41.8,142.81,142.81,0,0,0-17.13,60.08c-22.93,14.51-40.06,38.32-45,70.24a185.64,185.64,0,0,0,1.75,62.12,99,99,0,0,0-29,60.95c-3.78,34.54,4.35,67.05,20.32,95.78A98.93,98.93,0,0,0,46.3,561.08c-6.09,49.63,13.36,91.72,46.16,123.35a107.19,107.19,0,0,0,3.19,25c19.46,78.37,86.81,110.3,162,108.26,6.39,0,12.49-.29,18.87-.87A392.7,392.7,0,0,0,345,847.56a101.32,101.32,0,0,0,133.24-78.95,115.57,115.57,0,0,0,21.2,11.61c27,11.61,56.6,13.06,84.76,5.22,3.49-.87,7.26-1.45,10.75-2,3.19-.58,6.09-1.16,9-1.74a81.92,81.92,0,0,0,20.32-4.35l3.49-1.16,65.32-27.29a97.64,97.64,0,0,0,16.54,18,98.65,98.65,0,0,0,63.58,23.22H779a128.3,128.3,0,0,0,36.29-4.35,101.69,101.69,0,0,0,28.15,4.06h3.78a114.73,114.73,0,0,0,20-2.61,103.4,103.4,0,0,0,25,3.19h3.19a81.89,81.89,0,0,0,20.61-2.61,93.51,93.51,0,0,0,23.81,2.32c3.19,0,6.38-.29,9.87-.58,35.7-3.77,76.63-46.73,76.63-46.73l79.55,33.38,3.48,1.16a82.11,82.11,0,0,0,20.32,4.35l8.72,1.74c3.48.58,7.55,1.16,11,2,28.16,7.84,57.78,6.39,84.77-5.22a137.69,137.69,0,0,0,21.19-11.61,101.21,101.21,0,0,0,133,78.95,399.49,399.49,0,0,0,69.1-31.06c44.41,2.9,85.34,2,126-26.7,27.87-19.45,46.45-47.6,54.57-80.4a121.85,121.85,0,0,0,3.2-24.67c15.67-15.1,28.74-33.09,37.16-54a139.28,139.28,0,0,0,8.7-69.66A98.62,98.62,0,0,0,1675.48,524.79Z" fill="#c56b9f" fill-rule="evenodd"/><path d="M1638.51,477.26c15.68-28.74,23.81-61.24,20.32-95.78a99.34,99.34,0,0,0-29.32-61,179.5,179.5,0,0,0,1.74-62.4c-4.64-31.64-22.06-55.44-45-70a142.85,142.85,0,0,0-17.13-60.09,98.84,98.84,0,0,0-41.22-41.79A103.26,103.26,0,0,0,1397,21.56a235.13,235.13,0,0,0-28.45-14.22c-71.12-28.16-144.86,28.73-141.09,102.17-2.32-1.74-4.64-3.49-7-4.94a98.46,98.46,0,0,0-21.78-22.06,110,110,0,0,0-76-22.05,107.94,107.94,0,0,0-50.52,18,99.2,99.2,0,0,0-58.35-18c-3.77-.3-7.84-.3-11.9-.3-3.78,0-7.26.3-11,.58a87.42,87.42,0,0,0-17.42,0,113.77,113.77,0,0,0-14.23.87l-1.74.3-1.74.29c-1.45.28-2.9.58-4.07.87a106.9,106.9,0,0,0-19.15-1.74h-3.2a100,100,0,0,0-16-.87c-3.2,0-6.39,0-9.3.28-4.35.29-9,.59-13.35,1.17-3.77.29-7.54.87-11.32,1.45a98.29,98.29,0,0,0-20.9-2h-3.19a98.31,98.31,0,0,0-16-.87c-3.2,0-6.1,0-9.29.28-4.35.29-8.71.59-13.07,1.17a86.43,86.43,0,0,0-12.48,1.74,122.33,122.33,0,0,0-14.22-2,106.32,106.32,0,0,0-13.36,0,99,99,0,0,0-20.9,3.2,104.1,104.1,0,0,0-23.52-4.35h-2.32a110.37,110.37,0,0,0-29.31,3.19,24,24,0,0,0-6.1,1.74,116.71,116.71,0,0,0-22.36-4.06A118.49,118.49,0,0,0,593.71,82.8,109.14,109.14,0,0,0,537.1,60.46a110.78,110.78,0,0,0-76.35,22.05A105,105,0,0,0,439,104.57c-2.32,1.45-4.64,3.2-7,4.94,4.07-73.44-70-130.33-140.79-102.17a199.27,199.27,0,0,0-28.45,14.22A103.14,103.14,0,0,0,131.84,86.29a101,101,0,0,0-41.51,41.79A142.85,142.85,0,0,0,73.2,188.17c-22.93,14.51-40.06,38.31-45,70.24a185.84,185.84,0,0,0,1.74,62.11,99.13,99.13,0,0,0-29,61c-3.77,34.54,4.36,67,20.33,95.78A98.75,98.75,0,0,0,9.33,513.54C3.24,563.18,22.68,605.26,55.49,636.9a107.11,107.11,0,0,0,3.19,25c19.45,78.37,86.8,110.3,162,108.27,6.39,0,12.49-.3,18.87-.87A392.61,392.61,0,0,0,308.05,800,101.33,101.33,0,0,0,441.3,721.08a116.42,116.42,0,0,0,21.19,11.61c27,11.61,56.61,13.06,84.77,5.22,3.49-.87,7.26-1.45,10.75-2,3.19-.58,6.09-1.17,9-1.75a81.47,81.47,0,0,0,20.32-4.35l3.49-1.16,65.32-27.28a98,98,0,0,0,80.12,41.21h5.81a127.82,127.82,0,0,0,36.28-4.35,101.76,101.76,0,0,0,28.16,4.06h3.78a114.85,114.85,0,0,0,20-2.61,103.41,103.41,0,0,0,25,3.2h3.19a82,82,0,0,0,20.61-2.62,93.06,93.06,0,0,0,23.81,2.32c3.19,0,6.38-.29,9.86-.58,35.71-3.77,76.64-46.73,76.64-46.73l79.55,33.38,3.48,1.16a81.66,81.66,0,0,0,20.32,4.35l8.71,1.75c3.48.58,7.55,1.16,11,2,28.16,7.84,57.78,6.39,84.77-5.22a138.55,138.55,0,0,0,21.19-11.61,101.21,101.21,0,0,0,133,78.95A399.49,399.49,0,0,0,1420.5,769c44.41,2.9,85.34,2,126-26.71,27.87-19.44,46.45-47.6,54.57-80.4a121.76,121.76,0,0,0,3.2-24.67c15.67-15.09,28.74-33.09,37.16-54a139.27,139.27,0,0,0,8.7-69.66A98.63,98.63,0,0,0,1638.51,477.26Z" fill="#fff" fill-rule="evenodd"/><path d="M1394.08,298.17c-8.13-13.35-15.1.3-30.77.3s-15.68-.3-31.36-.3-15.67-.87-31.06-.87c-15.67,0-15.67,1.17-31.35,1.17s-15.68-.88-31.06-.88c-15.68,0-15.68.88-31.36.88s-15.67-.59-31.06-.59c-15.67,0-15.67.29-31.35.29s-15.68,1.45-31.36,1.45c-15.38,0-15.38-3.77-31.06-3.77s-15.68,2.32-31.35,2.32c-15.39,0-15.39-2.32-31.06-2.32s-15.68,2.9-31.36,2.9-15.67-1.16-31.06-1.16c-15.68,0-15.68,2-31.35,2s-15.68-3.77-31.35-3.77c-15.39,0-15.39,2.32-31.07,2.32-16.83,0-16.83-.29-34-.29-16.84,0-16.84.87-33.67.87-15.68,0-15.68-.87-31.36-.87s-15.68,1.46-31.06,1.46c-15.68,0-15.68-2.91-31.35-2.91s-15.68,2.91-31.07,2.91c-15.67,0-15.67.57-31.35.57s-15.68-3.19-31.35-3.19c-15.39,0-15.39-.58-31.07-.58s-15.67,2-31.35,2c-15.39,0-15.39-1.45-31.06-1.45s-15.68,1.16-31.35,1.16c-15.39,0-15.39-.29-31.07-.29s-15.67.58-31.35.58-15.67-.29-31.06-.29c-15.68,0-15.68,1.74-31.35,1.74s-15.68-2.32-31.35-2.32H296.44c-15.67,0-25-13.64-32.8-.29-7.84,13.07,8.71,14.22,16.54,27.57,7.55,13.07,8.72,12.48,16.55,25.55,7.55,13.06,7,13.64,14.81,26.7S329,387.57,329,403c0,15.09-9,13.35-16.55,26.41-7.84,13.06-9.58,12.19-17.42,25.25s-6.09,14.22-13.64,27.28c-7.84,13.07-23.81,12.78-16,25.83,7.84,13.36,15.39,1.75,31.06,1.75,15.39,0,15.39-1.45,31.07-1.45s15.67,1.16,31.35,1.16,15.67-.58,31.06-.58c15.68,0,15.68-.58,31.35-.58h31.07c15.67,0,15.67-.87,31.35-.87s15.67-.58,31.35-.58c15.39,0,15.39.58,31.06.58s15.68,2.61,31.35,2.61c15.39,0,15.39-1.74,31.07-1.74s15.67.87,31.35.87c15.38,0,15.38-.58,31.06-.58s15.68.29,31.36.29h31.06C749,508.61,749,506,764.7,506s15.68,1.46,31.36,1.46c16.83,0,16.83-1.16,33.67-1.16,17.13,0,17.13,2,34,2,15.68,0,15.68.29,31.07.29h31.35c15.67,0,15.67-2.32,31.06-2.32,15.68,0,15.68-.3,31.35-.3s15.68-.28,31.07-.28c15.67,0,15.67,3.19,31.35,3.19s15.67-2.32,31.35-2.32c15.39,0,15.39,3.19,31.06,3.19s15.68-2.9,31.36-2.9c15.38,0,15.38.29,31.06.29s15.68-.29,31.35-.29c15.39,0,15.39,2.32,31.06,2.32s15.68-.87,31.36-.87,15.68-1.74,31.06-1.74c15.68,0,15.68,1.45,31.35,1.45s15.68-.58,31.36-.58c15.38,0,21.77,13.06,29.89-.29,7.85-13.06-5.8-12.78-13.35-25.84-7.84-13.35-7.26-13.64-15.09-26.7s-9.29-12.19-17.13-25.25c-7.84-13.35-16-11.32-16-26.41,0-15.39,9.87-12.49,17.42-25.55,7.84-13.06,8.13-12.77,16-26.12,7.84-13.06,3.77-15.68,14.51-26.41,11.9-11.91,22.36-13.65,14.52-26.71Zm69.67,237.72c-2.32-14.51-3.19-29-.58-42.38,2.9,13.65,2.62,28.16.58,42.38Zm70,7.55,1.75-.87a25.21,25.21,0,0,0-1.45,2.9c0-.87-.3-1.45-.3-2ZM1320.05,105.73c5.52,43.83,33.67,67.34,74.32,78.66l.29.29c4.35,3.78,8.42,7.84,12.48,11.9-15.38-4.06-31.93-3.77-47.61-.58-9.87,2-10.74,13.93-3.77,19.45,19.74,16,52.54,16,76.64,14.51.87,0,1.45-.29,2-.29a350.36,350.36,0,0,1,32.51,55.45c-13.35-11.33-28.74-20-45.87-19.75-7.54,0-12.19,5.52-11.32,12.77,4.07,31.64,47.61,46.74,74,52.25h.29a325.43,325.43,0,0,1,11,49.92A98.67,98.67,0,0,0,1464,352.45c-5.51-3.19-14.51-1.74-16.26,5.51-7.54,33.68,24.39,62.41,49.64,79.82.3.3.87.59,1.17.88-.3,5.8-.58,11.32-.87,16.83a292.47,292.47,0,0,1-11,58.34c0-19.15-3.77-37.73-14.22-54-4.06-6.39-13.65-8.42-18.29-1.17-24.38,37.74-9.87,87.95-1.45,128.59a244,244,0,0,1-36.58,44.4c5.81-18.86,5.81-39.18-2.32-58-3.19-8.13-13.64-6.68-18.29-1.17-20.9,24.1-19.74,60.09-21.48,90a5,5,0,0,0,.29,2,288.24,288.24,0,0,1-57.19,27c-12.78,4.35-8.71,25.54,4.35,20.89a291.81,291.81,0,0,0,76.06-38.31c1.16.3,2.32.58,3.78.87,37.45,2.62,97.54,13.65,109.73-35.41,1.45-6.09-.87-11.32-6.67-13.64-22.94-9.87-45.59.58-65.91,13.35a296.66,296.66,0,0,0,27.58-33.08,47.8,47.8,0,0,0,6.1-1.46c.29,0,.58-.29,1.16-.29,37.45-10.45,90.57-35.7,85.06-79.24-.87-6.09-7.26-9.29-12.77-8.42-16.55,2.91-31.36,11.91-44.42,23.22a310,310,0,0,0,16-64.72,9.89,9.89,0,0,0,4.36-2c25-19.74,48.48-48.77,45.29-82.14-.87-7-9.87-10.75-15.39-7.55-17.13,9.87-24.09,26.41-31.64,43a367.34,367.34,0,0,0-8.13-73.73l.58-.58c20.32-21.77,31.93-50.21,27.58-80.11-1.45-9.29-14.8-11.61-19.45-3.77-9.58,15.67-13.64,32.8-18,50.21a344.86,344.86,0,0,0-25.55-60.37c11.61-26.12,25.26-59.22,10.74-86.5-3.48-6.68-14.22-8.12-18.28-1.16-9.87,16.25-13.65,34-13.94,52.25a352.9,352.9,0,0,0-24.39-30.77c.3-.58.88-.87,1.17-1.45a87.25,87.25,0,0,0,8.41-73.43c-2.9-9.29-13.06-11.33-19.45-3.78-11.32,13.65-16.25,34.83-13.93,53.7-.29,0-.29-.29-.58-.29-11.9-32.51-41.22-60.67-72.58-73.15-8.13-3.48-14.8,4.65-13.93,12.19ZM196.57,493.51c2.33,13.36,1.46,27.87-.87,42.38-2-14.22-2.32-28.73.87-42.38Zm-71.12,52a30.09,30.09,0,0,0-1.16-2.9l1.74.87a18.48,18.48,0,0,0-.58,2Zm200-451.93C294.12,106,264.8,134.18,252.9,166.69l-.29.29c2-18.87-2.62-40-14.23-53.7-6.09-7.55-16.26-5.51-19.45,3.78a88.42,88.42,0,0,0,8.71,73.43c.29.58.58.87.87,1.45a302.25,302.25,0,0,0-24.09,30.77c-.3-18.29-4.36-36-13.94-52.25-4.35-7-14.8-5.52-18.58,1.16-14.51,27.28-.58,60.38,10.74,86.5a396.36,396.36,0,0,0-25.54,60.37c-4.36-17.41-8.13-34.54-17.71-50.21-4.94-7.84-18.29-5.52-19.45,3.77-4.65,29.9,7.26,58.34,27.58,80.11a.62.62,0,0,0,.57.58,368.29,368.29,0,0,0-8.41,73.73c-7.26-16.55-14.52-33.09-31.35-43-5.81-3.2-14.81.58-15.39,7.55-3.48,33.37,20,62.4,45,82.14a10.85,10.85,0,0,0,4.64,2,292.9,292.9,0,0,0,16,64.72c-13.35-11.31-28.16-20.31-44.71-23.22-5.23-.87-11.9,2.33-12.48,8.42-5.52,43.54,47.32,68.79,85.06,79.24.29,0,.58.29,1.16.29a47.8,47.8,0,0,0,6.1,1.46,268,268,0,0,0,27.57,33.08c-20.61-12.77-43-23.22-66.18-13.35-5.81,2.32-8.13,7.55-6.68,13.64,12.19,49.06,72.28,38,110,35.41l3.49-.87A301.18,301.18,0,0,0,338,712.36c13.06,4.65,17.41-16.54,4.35-20.89a285.75,285.75,0,0,1-56.9-27v-2c-1.74-29.89-.29-65.88-21.19-90-4.94-5.51-15.1-7-18.58,1.17-7.84,18.86-7.84,39.18-2.33,58a256.94,256.94,0,0,1-36.57-44.4c8.71-40.64,23.22-90.85-1.16-128.59-4.65-7.25-14.52-5.22-18.58,1.17-10.17,16.25-14.23,34.83-14.23,54A314.48,314.48,0,0,1,162,455.49a159.41,159.41,0,0,1-.87-16.83l.87-.88c25.55-17.41,57.48-46.14,49.64-79.82-1.45-7.25-10.45-8.7-16-5.51a99.81,99.81,0,0,0-31.35,27.86,327.81,327.81,0,0,1,11-49.92h.3c26.41-5.51,70-20.61,74-52.25.87-7.25-3.77-12.77-11-12.77-17.42-.28-32.51,8.42-45.86,19.75a329.49,329.49,0,0,1,32.5-55.45c.59,0,1.17.29,1.75.29,24.1,1.45,56.9,1.45,76.93-14.51,7-5.52,5.8-17.42-3.77-19.45-15.68-3.19-32.23-3.48-47.61.58,4.06-4.06,8.12-8.12,12.19-11.9a.28.28,0,0,0,.29-.29c40.64-11.32,69.09-34.83,74.61-78.66.87-7.54-5.81-15.67-14.23-12.19Zm856.4,517.53c-2.33-4.65-7.26-8.71-11.33-12.19-3.77-3.2-9-4.65-14.22-5.23-2-.29-7.26-1.74-8.71.29.87-4.06,2.61-7,1.45-11.32a16.87,16.87,0,0,0-6.1-9.87,17.24,17.24,0,0,0-11.9-3.77c-6.38.58-10.74,4.35-14.51,9.58-2.9,4.06-4.65,11-6.1,16.25-1.16,5.81-2,11.9-3.19,17.71-1.74,9.87-4.36,19.45-7,28.74l1.16.58c1.45.57,2.9-.3,4.65,0,3.19.29,6.09,2,9,2.61a148.53,148.53,0,0,1,22.06,4.35c7.84,2,15.68,2.33,23.51-1.16,7.84-3.19,16.55-11.32,20-19.16,2.62-5.51,4.07-11.61,1.17-17.41ZM549,594.81c-1.17-5.22-2.91-12.19-6.1-16.25-3.77-5.23-7.84-9-14.23-9.58a18.49,18.49,0,0,0-12.19,3.77,16.9,16.9,0,0,0-6.09,9.87c-.88,4.36.57,7.26,1.74,11.32-1.74-2-6.68-.58-9-.29-4.94.58-10.16,2-14.23,5.23-4.06,3.48-8.71,7.54-11.32,12.19-2.61,5.8-1.16,11.9,1.16,17.41,3.48,7.84,12.2,16,20.32,19.16,7.55,3.49,15.39,3.19,23.52,1.16a137.78,137.78,0,0,1,21.77-4.35c3.19-.58,6.1-2.32,9.29-2.61,1.45-.3,3.19.57,4.36,0l1.45-.58c-2.62-9.29-5.23-18.87-7.26-28.74-.87-5.81-1.74-11.9-3.19-17.71Zm632.86-400c-2.33-4.93-7.26-8.7-11.33-12.19-3.77-3.48-9-4.93-14.22-5.51-2-.29-7.26-1.74-8.71.58.87-4.06,2.61-7,1.45-11.32a16.65,16.65,0,0,0-18-13.64c-6.38.58-10.74,4.35-14.51,9.57-2.9,4.07-4.65,11-6.1,16-1.16,5.8-2,11.9-3.19,18-1.74,9.58-4.36,19.45-7,28.74l1.16.58c1.45.58,2.9-.29,4.65,0,3.19,0,6.09,2,9,2.32a198,198,0,0,1,22.06,4.35,34.42,34.42,0,0,0,23.51-.87c7.84-3.48,16.55-11.31,20-19.15,2.62-5.52,4.07-11.9,1.17-17.42ZM549,178.3c-1.17-4.94-2.91-11.9-6.1-16-3.77-5.22-7.84-9-14.23-9.57a19.87,19.87,0,0,0-12.19,3.48,18.57,18.57,0,0,0-6.09,10.16c-.88,4.35.57,7.26,1.74,11.32-1.74-2.32-6.68-.87-9-.58-4.94.58-10.16,2-14.23,5.51s-8.71,7.26-11.32,12.19c-2.61,5.52-1.16,11.9,1.16,17.42,3.48,7.84,12.2,15.67,20.32,19.15,7.55,3.2,15.39,3.2,23.52.87,7-2,14.51-3.19,21.77-4.35,3.19-.29,6.1-2.32,9.29-2.32,1.45-.29,3.19.58,4.36,0l1.45-.58c-2.62-9.29-5.23-19.16-7.26-28.74a179.08,179.08,0,0,0-3.19-18ZM924.37,548.37a4,4,0,0,1,4.06,1.45,3.94,3.94,0,0,1,.87,4.36,28.47,28.47,0,0,1-3.77,10.16A51,51,0,0,0,920,575.66a44.16,44.16,0,0,1-4.35,8.13,30.24,30.24,0,0,0-2.91,6.09,38.73,38.73,0,0,1-2,5.22,17.06,17.06,0,0,0-1.16,5.23v.29a35.16,35.16,0,0,0-.29,5.52c-.29,3.77-.58,7.25-.87,11v.28a15.83,15.83,0,0,0,0,5.23,23.44,23.44,0,0,1,0,9v2.62h0v8.12a11.93,11.93,0,0,1-.29,3.2q-.87,3.92-5.22,4.35h-1.46a8.34,8.34,0,0,1-4.64-.87,5.76,5.76,0,0,1-2.62-2.61c0-.29-.28-.58-.57-1.16a1,1,0,0,0-.3-.87,10.42,10.42,0,0,1-.28-7.84,11.71,11.71,0,0,0,.28-5.51,32.26,32.26,0,0,1-.87-10.46v-1.15c0-.87.29-2,.29-3.2,0-.58-.29-1.16-.29-1.74v-1.74a44.35,44.35,0,0,1,0-6.1,8.6,8.6,0,0,0-.58-4.64,35.22,35.22,0,0,1-1.16-5.8,12.24,12.24,0,0,0-1.16-3.49,43.66,43.66,0,0,0-3.19-6.38,23.48,23.48,0,0,1-2.32-4.65c-.87-1.45-1.74-3.19-2.62-4.64a14.74,14.74,0,0,1-2-4.36A19.57,19.57,0,0,0,875.6,564a51.1,51.1,0,0,1-4.36-9,5.21,5.21,0,0,1,0-4.64,5.14,5.14,0,0,1,3.78-2.62,11.18,11.18,0,0,1,7.54.58,6.81,6.81,0,0,1,3.49,2.91.28.28,0,0,1,.29.29,8.81,8.81,0,0,1,1.45,2c.58,1.45,1.45,2.9,2,4.35a56.49,56.49,0,0,1,3.78,7.26,9.8,9.8,0,0,0,1.74,3.48,18.49,18.49,0,0,1,2.32,4.06,2.85,2.85,0,0,0,1.16,1.45,1.58,1.58,0,0,0,1.45.87,3.14,3.14,0,0,0,1.75-.57c.28-.3.57-.58.87-.87,0-.3.28-.58.58-.88a39.14,39.14,0,0,0,4.35-7.54,8.53,8.53,0,0,1,.58-2.62,19.31,19.31,0,0,0,.87-2.32,25.12,25.12,0,0,1,4.07-7.84,7.5,7.5,0,0,1,4.06-3.19,28.62,28.62,0,0,1,7-.87Zm-91.16,65.31c2.9-.58,4.07-2,3.48-4.93s-.87-6.1-1.15-9a22.59,22.59,0,0,0-1.17-4.65c0-.58-.58-1.16-.87-1.74a2.64,2.64,0,0,0-2.32-1.16,3.37,3.37,0,0,0-2.32,1.74,5.86,5.86,0,0,0-.87,3.2c0,2.9-.87,5.22-1.74,7.83a18.89,18.89,0,0,0-1.17,3.78c0,2.61,1.17,4.06,3.2,4.64a12.76,12.76,0,0,0,2.9.58h0c.87,0,1.45-.29,2-.29Zm25.84,16.54v.58a67.47,67.47,0,0,0,1.74,11,10.65,10.65,0,0,1,.29,5.22,4.14,4.14,0,0,1-4.35,3.19,21.79,21.79,0,0,1-7.55-1.45,6.4,6.4,0,0,1-3.49-3.77,12.77,12.77,0,0,1-.58-3.19,2.6,2.6,0,0,0-.29-1.45,17.23,17.23,0,0,0-2.9-7.26,7.19,7.19,0,0,0-6.1-3.2H833.5a63.33,63.33,0,0,0-7.55.29h-.87c-3.77.3-5.8,2.33-6.67,6.1h0v2.32A17,17,0,0,1,817,645a6.11,6.11,0,0,1-4.64,3.77,21.67,21.67,0,0,1-5.81.87c-2.32,0-3.77-.58-4.64-2A5.44,5.44,0,0,1,800.7,643l.87-2.61v-.59a48.76,48.76,0,0,0,2.61-9.28,12,12,0,0,0,.29-3.2,56.27,56.27,0,0,1,1.46-7.54,2.28,2.28,0,0,0,.28-1.16v-.3c1.46-4.93,2.61-9.87,3.78-14.8a4.68,4.68,0,0,1,.87-2.61,33.22,33.22,0,0,0,2-9.29l.87-3.48,1.74-7.84a19.73,19.73,0,0,1,1.45-5.51,25,25,0,0,0,1.46-6.68,11.64,11.64,0,0,1,.87-4.35,32.72,32.72,0,0,0,1.74-6.68,12.71,12.71,0,0,1,2-5.51,7.72,7.72,0,0,1,1.45-1.75c1.17-1.16,3.19-1.74,5.52-2.32a12.63,12.63,0,0,1,5.8.29,6.77,6.77,0,0,1,3.49,3.49c.29.29.29.58.58.87a56,56,0,0,1,3.19,9.86c.29,1.45.58,2.62.87,4.07a22.26,22.26,0,0,1,.87,6.38,28.06,28.06,0,0,0,2.62,7.84,35.61,35.61,0,0,1,2.32,9.58h0a3.68,3.68,0,0,0,.29,1.74c.29,2,.87,3.78,1.16,5.8a32.9,32.9,0,0,0,1.74,7.26,23.28,23.28,0,0,1,.87,4.35,48.15,48.15,0,0,0,2.91,11,39.76,39.76,0,0,1,2.32,10.15ZM767,604.1a7.77,7.77,0,0,0,.3-2.61v-2.33a40.32,40.32,0,0,1-.59-8.41,11,11,0,0,0,0-4.35,24,24,0,0,0-2.32-8.13c-1.16-1.74-2-3.48-2.9-4.94v-.28a16.56,16.56,0,0,0-7.55-7.26c-2.62-1.16-4.64-.87-6.39,1.45a4.32,4.32,0,0,0-1.16,2.61,10.88,10.88,0,0,0-.29,2.9v2.32a20.12,20.12,0,0,0,.29,7.26,15.85,15.85,0,0,1,.29,6.39c-.29,2.61-.29,4.93-.58,7.55a28.24,28.24,0,0,0,.58,7,4.3,4.3,0,0,0,.29,2v1.45a43.71,43.71,0,0,1,.58,6.39,50.89,50.89,0,0,1-1.16,11.61,8.93,8.93,0,0,0,.87,5.51c1.17,2.33,2.91,2.91,5.23,2.33a10.3,10.3,0,0,0,2.61-1.16,21.76,21.76,0,0,0,8.71-10.46c0-.57.29-.86.29-1.15L765,618a20.29,20.29,0,0,0,1.45-7.26,17,17,0,0,1,.58-6.68Zm15.39-6.38a53.6,53.6,0,0,1-.29,6.67,4.94,4.94,0,0,0-.29,2,21.9,21.9,0,0,0,0,4.36,7.46,7.46,0,0,1-.29,4.35,63.89,63.89,0,0,1-5.23,14.8,10.21,10.21,0,0,0-1.16,2.62,17.22,17.22,0,0,1-1.16,2.32,22.09,22.09,0,0,1-6.67,7.84,33.66,33.66,0,0,1-11.62,5.8A32,32,0,0,1,744.09,650a19.51,19.51,0,0,0-5.81,0h-2a4.62,4.62,0,0,1-3.48-1.16,10,10,0,0,1-2.32-2.9,15.65,15.65,0,0,1-.3-5.23,10.63,10.63,0,0,0,0-4.35,35,35,0,0,1,0-5.52,31.31,31.31,0,0,0,.59-7.54,13.15,13.15,0,0,1,.29-5.81v-.28a21.55,21.55,0,0,0-.29-6.1,27.73,27.73,0,0,1,0-9.87,28,28,0,0,0,0-7h0a104,104,0,0,1-.59-16.54c0-1.16.3-2.32.3-3.49a12.46,12.46,0,0,0,0-4.64,76.31,76.31,0,0,1-.3-8.13c0-2.61.3-4.93.3-7.54.29-3.48,2-5.52,5.8-6.1a60.7,60.7,0,0,1,7.26.29,19.51,19.51,0,0,0,5.81,0,11.12,11.12,0,0,1,6.09.88h.29a42.21,42.21,0,0,0,5.51,2,7.76,7.76,0,0,1,3.78,1.74,17,17,0,0,1,3.2,3.2c.87.87,1.45,1.74,2.32,2.61,1.74,2,3.77,4.36,5.51,6.39a16.35,16.35,0,0,1,3.19,5.8,35.11,35.11,0,0,0,1.46,5.22,29.28,29.28,0,0,1,1.16,7,43,43,0,0,0,.29,6.1c.29,2.9.29,5.8.29,8.71Zm232-444.67q5.65-.44,7,5.22a19.42,19.42,0,0,1,0,5.8,6.22,6.22,0,0,1-4.65,4.94,22.08,22.08,0,0,1-6.09.87,17.93,17.93,0,0,0-3.78.29,3.9,3.9,0,0,0-3.77,4.06,7.11,7.11,0,0,0,0,3.49,51.77,51.77,0,0,1-.58,6.67V189c0,3.48,0,7.25-.29,11,0,.87-.29,1.45-.29,2.32s-.29,1.74-.29,2.32a18.79,18.79,0,0,0,.58,5.8v.88a20.14,20.14,0,0,1-.29,7.26c0,1.74-.29,3.47-.29,5.22a28.14,28.14,0,0,0,.29,4.93,25.73,25.73,0,0,1,0,6.68v8.13a24.72,24.72,0,0,1-.87,6.67,5.86,5.86,0,0,1-4.94,4.94c-.29,0-.58,0-.58.28-.87,0-2,.3-2.9.3a4.29,4.29,0,0,1-4.65-2.33,18.93,18.93,0,0,1-1.45-5.8c0-3.78-.29-7.84-.58-11.61,0-2-.29-3.78-.29-5.81v-4.64a2.17,2.17,0,0,0,.29-1.45,46.66,46.66,0,0,0,0-9,18.82,18.82,0,0,1,.29-7,53,53,0,0,0,.58-9.57,8.12,8.12,0,0,0-.29-2.62v-.29a56.62,56.62,0,0,1-.58-6.67,3.74,3.74,0,0,0-.29-1.75,85.66,85.66,0,0,1,.58-12.18c.29-3.78-1.74-5.81-5.51-6.39-1.46,0-2.91.29-4.36.29-.58,0-1.16.29-1.74.29a16.54,16.54,0,0,1-3.77-.29,4.61,4.61,0,0,1-3.2-2.9,20.25,20.25,0,0,1-1.45-7.26c.29-2.9,1.74-4.94,4.94-5.22a22,22,0,0,1,4.35-.29,23.59,23.59,0,0,0,4.65-.29,15.56,15.56,0,0,1,6.38.29,29.57,29.57,0,0,0,8.71,0,66.15,66.15,0,0,1,7.55-.58,35.1,35.1,0,0,1,5.51.29,21.49,21.49,0,0,0,6.1,0ZM936,241.86a5.72,5.72,0,0,1,4.65,6.1,9.91,9.91,0,0,1-3.2,7c-2,1.17-4.06,2-6.1,1.75h-5.22a32.84,32.84,0,0,0-7.55,0,49.75,49.75,0,0,1-9.29.29c-2-.29-4.06-.29-6.1-.58a32,32,0,0,0-5.22-.58c-2.91-.3-4.35-2-4.65-4.94v-.29a10.2,10.2,0,0,1-.28-2.9,43.43,43.43,0,0,0-.59-6.1,20.1,20.1,0,0,1,0-5.8,15.79,15.79,0,0,0-.28-6.39,16.54,16.54,0,0,1,.28-8.41,17.6,17.6,0,0,0,0-5.52,18.46,18.46,0,0,1-.28-4.06v-5.23h0a43.42,43.42,0,0,0-.3-6.38,36.93,36.93,0,0,1,.58-9.87c0-.87.29-1.45.29-2a34.88,34.88,0,0,0-.57-14.52,30.91,30.91,0,0,1-.59-5.22v-1.45a37.17,37.17,0,0,1,.29-5.81,9.44,9.44,0,0,1,2-4.93,5.89,5.89,0,0,1,4.35-1.74c4.35-.58,8.42-.87,12.78-1.16h3.19a31.52,31.52,0,0,1,5.22.29,76.59,76.59,0,0,0,8.13.57h4.94c3.19,0,5.22,1.46,6.38,4.65a11.65,11.65,0,0,1,.88,4.35,6.48,6.48,0,0,1-1.46,3.49,5.93,5.93,0,0,1-2.9,2,5.23,5.23,0,0,1-2.9.58,57.53,57.53,0,0,0-10.16.87h-3.78a31.52,31.52,0,0,0-5.22.29c-2.62.29-4.36,1.45-4.94,4.06a28.12,28.12,0,0,0-.29,7,15.77,15.77,0,0,1,0,5.22v4.07a6.55,6.55,0,0,0,2.32,4.64,7.17,7.17,0,0,0,4.65,1.75,16.32,16.32,0,0,0,5.22,0,22.61,22.61,0,0,1,9.87,1.15,5.23,5.23,0,0,1,3.2,2.33,10.63,10.63,0,0,1,1.16,6.68,5.7,5.7,0,0,1-3.78,4.64,7.72,7.72,0,0,1-3.48.87,51.49,51.49,0,0,1-6.68-.29,60.62,60.62,0,0,0-7.25.29c-3.2.58-4.65,2.32-4.94,5.22a71.47,71.47,0,0,0-.58,7.84,2.45,2.45,0,0,0,0,2V234a3.68,3.68,0,0,0,.29,1.74,4,4,0,0,0,3.19,4.06,19,19,0,0,0,7,.58,33.68,33.68,0,0,1,10.74.29c1.16.29,2.32.29,3.49.58a4.3,4.3,0,0,1,2,.29,2.61,2.61,0,0,1,1.45.29Zm-73.74,0c2.91.88,4.65,2.91,4.36,6.1s-1.17,5.51-3.19,7a8.89,8.89,0,0,1-6.1,1.75h-4.94a35.34,35.34,0,0,0-7.83,0,46.76,46.76,0,0,1-9,.29c-2-.29-4.36-.29-6.39-.58a32,32,0,0,0-5.23-.58c-2.9-.3-4.35-2-4.64-4.94v-.29a9.87,9.87,0,0,0-.29-2.9,43.41,43.41,0,0,0-.58-6.1,19.42,19.42,0,0,1,0-5.8,15.79,15.79,0,0,0,0-6.39,20.19,20.19,0,0,1,0-8.41,17.6,17.6,0,0,0,0-5.52,17.83,17.83,0,0,1-.29-4.06v-5.23h0v-6.38a36.33,36.33,0,0,1,.29-9.87,5.66,5.66,0,0,0,.29-2,34.88,34.88,0,0,0-.58-14.52,30.89,30.89,0,0,1-.58-5.22v-1.45a38.48,38.48,0,0,1,.28-5.81,7.94,7.94,0,0,1,2.33-4.93,5.73,5.73,0,0,1,4.06-1.74c4.36-.58,8.71-.87,12.78-1.16h3.19a31.7,31.7,0,0,1,5.23.29,81.91,81.91,0,0,0,8.41.57h4.65c3.19,0,5.51,1.46,6.39,4.65a11.84,11.84,0,0,1,.87,4.35,4.79,4.79,0,0,1-1.46,3.49,4.87,4.87,0,0,1-2.9,2,4.77,4.77,0,0,1-2.9.58,62.73,62.73,0,0,0-10.16.87h-3.77a31.58,31.58,0,0,0-5.23.29c-2.62.29-4.07,1.45-4.64,4.06a18.63,18.63,0,0,0-.3,7,15.25,15.25,0,0,1,0,5.22,9.6,9.6,0,0,0,0,4.07,6.28,6.28,0,0,0,2,4.64,7.12,7.12,0,0,0,4.64,1.75,16.39,16.39,0,0,0,5.23,0A23.94,23.94,0,0,1,856.44,198a4.66,4.66,0,0,1,2.9,2.33,10.8,10.8,0,0,1,1.45,6.68,6,6,0,0,1-4.06,4.64,7.76,7.76,0,0,1-3.49.87,44.9,44.9,0,0,1-6.38-.29,65.63,65.63,0,0,0-7.55.29c-2.9.58-4.64,2.32-4.94,5.22-.29,2.62-.29,5.23-.58,7.84v2a25,25,0,0,1,.29,4.64v3.49a4.65,4.65,0,0,0,3.48,4.06,17,17,0,0,0,6.68.58,33.51,33.51,0,0,1,10.75.29c1.45.29,2.61.29,3.77.58a3.68,3.68,0,0,1,1.74.29,3.68,3.68,0,0,1,1.74.29Zm-71.7-63.27a37,37,0,0,0,.29,5.8,43.71,43.71,0,0,1,0,8.71,14.05,14.05,0,0,0,0,4.93,22,22,0,0,1-.29,4.36,10.68,10.68,0,0,0-.29,5.23,37.6,37.6,0,0,1,.58,9.86,3.7,3.7,0,0,0-.29,1.74,17.28,17.28,0,0,1-.58,4.07v.87a9.34,9.34,0,0,0,.29,4.93,39.76,39.76,0,0,1,.58,5.52v2.61a66.65,66.65,0,0,1-.58,7.26,11.7,11.7,0,0,0,0,3.19v1.45a6.59,6.59,0,0,1-1.74,4.64,7.89,7.89,0,0,1-4.07,2,24.11,24.11,0,0,1-6.38-.88,7.89,7.89,0,0,1-3.49-1.74c-.87-1.16-2-2-2.9-3.19a10.08,10.08,0,0,1-2-4.36c-.3-.28-.3-.57-.58-.86a46.18,46.18,0,0,1-2.91-9c-.58-1.74-1.16-3.77-1.74-5.52l-.87-2.61c-.29-.58-.29-.87-.58-1.16A43.56,43.56,0,0,0,758,213.13a16.09,16.09,0,0,0-1.74-2.32,3.15,3.15,0,0,0-2-.88,2,2,0,0,0-1.74,1.17,3.13,3.13,0,0,0-.87,2,35.15,35.15,0,0,1-4.07,9.58,20.93,20.93,0,0,0-2.61,5.8c-.29,1.16-.58,2-.87,2.9-.29.59-.29.87-.58,1.46-.58,1.45-.87,3.19-1.45,4.93a23.52,23.52,0,0,1-3.78,8.71c0,.29,0,.58-.29.58-.87,1.45-1.45,2.9-2,4.06a6.42,6.42,0,0,1-5.51,3.77,47.75,47.75,0,0,1-6.68.3,5.26,5.26,0,0,1-4.36-2,5.53,5.53,0,0,1-1.45-2.9,11,11,0,0,1,0-4.35v-2a16.64,16.64,0,0,1-.29-3.48,26.53,26.53,0,0,0-.29-4.93,19.29,19.29,0,0,1,.29-4.07c0-.57.29-.87.29-1.45v-2.9a33.61,33.61,0,0,1,.29-9.29,41.44,41.44,0,0,0-.29-13.35,17.83,17.83,0,0,1-.29-4.06v-2.91a33.36,33.36,0,0,1,.29-5.51,35.72,35.72,0,0,0,.58-7.84v-2.32a9.87,9.87,0,0,0-.58-4.06,15.35,15.35,0,0,1,0-7.26,31.92,31.92,0,0,0,.58-7.55v-1.45a4.94,4.94,0,0,1-.29-2,5.69,5.69,0,0,1,4.65-6.09,22,22,0,0,1,4.35-.29,4.87,4.87,0,0,1,4.65,2.9,12.24,12.24,0,0,1,2,8.42,35.42,35.42,0,0,0,.29,7.83,20,20,0,0,1-.29,5.81,25.66,25.66,0,0,0-.58,8.13,2.6,2.6,0,0,1,.29,1.45h0a30.66,30.66,0,0,0,.58,9,26.64,26.64,0,0,1,.29,4.94,3.15,3.15,0,0,0,.29,1.45.77.77,0,0,0,.87.87c.29.29.58,0,1.16-.29.29-.29.29-.58.58-.87a29.39,29.39,0,0,0,3.78-8.71,10,10,0,0,1,2.32-4.64,19.6,19.6,0,0,0,2.9-6.68,6.83,6.83,0,0,1,.58-2.32,3.71,3.71,0,0,1,2.61-2,35.63,35.63,0,0,1,7.55-.88,6,6,0,0,1,5.23,3.78,26.09,26.09,0,0,0,2.32,4.94,31.33,31.33,0,0,1,2.62,7.25h0c.57,1.45,1.15,2.9,1.74,4.64a34.29,34.29,0,0,1,1.45,3.2,1.59,1.59,0,0,0,.87,1.45c.87.87,1.74.87,2.61-.29.58-.29.58-.87.58-1.45V190.49a23.55,23.55,0,0,1,0-6.39c.29-3.19.58-6.09.87-9.29a20.08,20.08,0,0,0-.58-3.77,21.38,21.38,0,0,1,0-6.1,32,32,0,0,0,.58-5.22c0-1.74.29-3.19,1.45-4.06a8.81,8.81,0,0,1,4.07-1.75,13.66,13.66,0,0,1,3.48.3c3.49,0,5.23,2,5.81,5.51v2.61a26.59,26.59,0,0,0,.29,4.65V171a28,28,0,0,0,0,7v.58ZM689.22,219.8a44.29,44.29,0,0,0,.87,8.71A16.86,16.86,0,0,1,688.64,241c-.29.58-.58.87-.87,1.45,0,.3-.29.3-.29.58a17.84,17.84,0,0,1-4.07,5.52,33.08,33.08,0,0,0-3.19,3.19,11.14,11.14,0,0,1-6.38,3.77,27.11,27.11,0,0,1-9.87.88,23,23,0,0,1-11.62-2,17.89,17.89,0,0,1-10.16-9.29.28.28,0,0,1-.29-.29l-1.74-3.49A15.31,15.31,0,0,1,639,234c.29-2.33,1.45-3.78,3.77-4.07.87-.29,1.75-.29,2.62-.58a4.32,4.32,0,0,0,2-.29,6.48,6.48,0,0,1,6.38,3.19,4.89,4.89,0,0,1,1.17,2,10.29,10.29,0,0,0,8.42,5.22,10.66,10.66,0,0,0,5.22-.29,11,11,0,0,0,3.77-2.61,6.56,6.56,0,0,0,1.74-4.64,35.48,35.48,0,0,0-.28-7.84,7.28,7.28,0,0,0-2.32-5.23,26.48,26.48,0,0,1-4.07-4.06,10.62,10.62,0,0,0-4.94-2.9c-.29-.29-.87-.29-1.16-.58-.87-.29-1.74-.58-2.9-.88a27.09,27.09,0,0,1-10.74-7.25c-.59-.58-1.16-1.16-1.74-1.74a18,18,0,0,1-3.2-3.49,19.24,19.24,0,0,1-3.48-9.86,36.5,36.5,0,0,0-1.16-7.84,10.79,10.79,0,0,1,.58-5.22,1.45,1.45,0,0,1,.29-.88c.87-2.9,1.74-5.8,2.32-8.71a10.24,10.24,0,0,1,4.07-5.8,26.19,26.19,0,0,1,19.45-6.09,33.78,33.78,0,0,1,13.06,3.77c.87.58,1.74,1.45,2.61,2,2,2,3.78,4.07,5.52,6.09a16.39,16.39,0,0,1,3.48,8.71,4.49,4.49,0,0,1-2.32,4.65,9.62,9.62,0,0,1-13.35-2.61,18.17,18.17,0,0,0-3.78-4.35,6.35,6.35,0,0,0-7-1.75.29.29,0,0,0-.3.29,15.1,15.1,0,0,0-5.8,2.61c-2.62,2.33-3.77,4.94-2.9,8.42v.58c.28.58.28,1.45.57,2a10.12,10.12,0,0,0,4.65,7.55,41.51,41.51,0,0,0,12.48,7.25,35.23,35.23,0,0,1,8.71,5.81,21.59,21.59,0,0,1,4.35,4.65,55.77,55.77,0,0,1,3.78,7.25,10.48,10.48,0,0,1,.58,3.19Z" fill="#ffeb00"/><path d="M1394.08,298.17c-8.13-13.35-15.1.3-30.77.3s-15.68-.3-31.36-.3-15.67-.87-31.06-.87c-15.67,0-15.67,1.17-31.35,1.17s-15.68-.88-31.06-.88c-15.68,0-15.68.88-31.36.88s-15.67-.59-31.06-.59c-15.67,0-15.67.29-31.35.29s-15.68,1.45-31.36,1.45c-15.38,0-15.38-3.77-31.06-3.77s-15.68,2.32-31.35,2.32c-15.39,0-15.39-2.32-31.06-2.32s-15.68,2.9-31.36,2.9-15.67-1.16-31.06-1.16c-15.68,0-15.68,2-31.35,2s-15.68-3.77-31.35-3.77c-15.39,0-15.39,2.32-31.07,2.32-16.83,0-16.83-.29-34-.29-16.84,0-16.84.87-33.67.87-15.68,0-15.68-.87-31.36-.87s-15.68,1.46-31.06,1.46c-15.68,0-15.68-2.91-31.35-2.91s-15.68,2.91-31.07,2.91c-15.67,0-15.67.57-31.35.57s-15.68-3.19-31.35-3.19c-15.39,0-15.39-.58-31.07-.58s-15.67,2-31.35,2c-15.39,0-15.39-1.45-31.06-1.45s-15.68,1.16-31.35,1.16c-15.39,0-15.39-.29-31.07-.29s-15.67.58-31.35.58-15.67-.29-31.06-.29c-15.68,0-15.68,1.74-31.35,1.74s-15.68-2.32-31.07-2.32H296.44c-15.67,0-25-13.64-32.8-.29-7.84,13.07,8.71,14.22,16.54,27.57,7.55,13.07,8.72,12.48,16.55,25.55,7.55,13.06,7,13.64,14.81,26.7S329,387.57,329,403c0,15.09-9,13.35-16.55,26.41-7.84,13.06-9.58,12.19-17.42,25.25s-6.09,14.22-13.64,27.28c-7.84,13.07-23.81,12.78-16,25.83,7.84,13.36,15.39,1.75,31.06,1.75,15.39,0,15.39-1.45,31.07-1.45s15.67,1.16,31.35,1.16,15.67-.58,31.06-.58c15.68,0,15.68-.58,31.35-.58h31.07c15.67,0,15.67-.87,31.35-.87s15.67-.58,31.35-.58c15.39,0,15.39.58,31.06.58s15.68,2.61,31.35,2.61c15.39,0,15.39-1.74,31.07-1.74s15.67.87,31.35.87c15.38,0,15.38-.58,31.06-.58s15.68.29,31.36.29h31.06C749,508.61,749,506,764.7,506s15.68,1.46,31.36,1.46c16.83,0,16.83-1.16,33.67-1.16,17.13,0,17.13,2,34,2,15.68,0,15.68.29,31.07.29h31.35c15.67,0,15.67-2.32,31.06-2.32,15.68,0,15.68-.3,31.35-.3s15.68-.28,31.07-.28c15.67,0,15.67,3.19,31.35,3.19s15.67-2.32,31.35-2.32c15.39,0,15.39,3.19,31.06,3.19s15.68-2.9,31.36-2.9c15.38,0,15.38.29,31.06.29s15.68-.29,31.35-.29c15.39,0,15.39,2.32,31.06,2.32s15.68-.87,31.36-.87,15.68-1.74,31.06-1.74c15.68,0,15.68,1.45,31.35,1.45s15.68-.58,31.36-.58c15.38,0,21.77,13.06,29.89-.29,7.85-13.06-5.8-12.78-13.35-25.84-7.84-13.35-7.26-13.64-15.09-26.7s-9.29-12.19-17.13-25.25c-7.84-13.35-16-11.32-16-26.41,0-15.39,9.87-12.49,17.42-25.55,7.84-13.06,8.13-12.77,16-26.12,7.84-13.06,3.77-15.68,14.51-26.41,11.9-11.91,22.36-13.65,14.52-26.71Z" fill="#ea4b85"/><path d="M689.22,219.8a44.29,44.29,0,0,0,.87,8.71A16.86,16.86,0,0,1,688.64,241c-.29.58-.58.87-.87,1.45,0,.3-.29.3-.29.58a17.84,17.84,0,0,1-4.07,5.52,33.08,33.08,0,0,0-3.19,3.19,11.14,11.14,0,0,1-6.38,3.77,27.11,27.11,0,0,1-9.87.88,23,23,0,0,1-11.62-2,17.89,17.89,0,0,1-10.16-9.29.28.28,0,0,1-.29-.29,17.82,17.82,0,0,1-1.45-3.49A12.6,12.6,0,0,1,639,234c.29-2.33,1.45-3.78,3.77-4.07.87-.29,1.75-.29,2.62-.58a4.32,4.32,0,0,0,2-.29,6.48,6.48,0,0,1,6.38,3.19,12.84,12.84,0,0,1,1.45,2,9.47,9.47,0,0,0,8.14,5.22,10.66,10.66,0,0,0,5.22-.29,11,11,0,0,0,3.77-2.61,6.56,6.56,0,0,0,1.74-4.64,35.48,35.48,0,0,0-.28-7.84,7.28,7.28,0,0,0-2.32-5.23,26.48,26.48,0,0,1-4.07-4.06,10.62,10.62,0,0,0-4.94-2.9c-.29-.29-.87-.29-1.16-.58-.87-.29-1.74-.58-2.9-.88a27.09,27.09,0,0,1-10.74-7.25c-.59-.58-1.16-1.16-1.74-1.74a18,18,0,0,1-3.2-3.49,19.24,19.24,0,0,1-3.48-9.86,36.5,36.5,0,0,0-1.16-7.84,10.79,10.79,0,0,1,.58-5.22,1.08,1.08,0,0,1,.29-.88c.87-2.9,1.74-5.8,2.32-8.71a11.82,11.82,0,0,1,4.07-5.8,26.19,26.19,0,0,1,19.45-6.09,33.78,33.78,0,0,1,13.06,3.77c.87.58,1.74,1.45,2.61,2,2,2,3.78,4.07,5.52,6.09a16.39,16.39,0,0,1,3.48,8.71,4.49,4.49,0,0,1-2.32,4.65,9.62,9.62,0,0,1-13.35-2.61,18.17,18.17,0,0,0-3.78-4.35,6.35,6.35,0,0,0-7-1.75.29.29,0,0,0-.3.29,15.1,15.1,0,0,0-5.8,2.61c-2.62,2.33-3.77,4.94-2.9,8.42v.58c.28.58.28,1.45.57,2a10.12,10.12,0,0,0,4.65,7.55,41.51,41.51,0,0,0,12.48,7.25,35.23,35.23,0,0,1,8.71,5.81,21.59,21.59,0,0,1,4.35,4.65,55.77,55.77,0,0,1,3.78,7.25,10.48,10.48,0,0,1,.58,3.19Z" fill="#241b2e"/><path d="M790.54,178.59a37,37,0,0,0,.29,5.8,43.71,43.71,0,0,1,0,8.71,14.05,14.05,0,0,0,0,4.93,22,22,0,0,1-.29,4.36,10.68,10.68,0,0,0-.29,5.23,37.6,37.6,0,0,1,.58,9.86,3.7,3.7,0,0,0-.29,1.74,17.28,17.28,0,0,1-.58,4.07v.87a9.34,9.34,0,0,0,.29,4.93,39.76,39.76,0,0,1,.58,5.52v2.61a66.65,66.65,0,0,1-.58,7.26,11.7,11.7,0,0,0,0,3.19v1.45a6.59,6.59,0,0,1-1.74,4.64,7.89,7.89,0,0,1-4.07,2,24.11,24.11,0,0,1-6.38-.88,7.89,7.89,0,0,1-3.49-1.74c-.87-1.16-2-2-2.9-3.19a10.08,10.08,0,0,1-2-4.36c-.3-.28-.3-.57-.58-.86a46.18,46.18,0,0,1-2.91-9c-.58-1.74-1.16-3.77-1.74-5.52l-.87-2.61c-.29-.58-.29-.87-.58-1.16A43.56,43.56,0,0,0,758,213.13a16.09,16.09,0,0,0-1.74-2.32,3.15,3.15,0,0,0-2-.88,2,2,0,0,0-1.74,1.17,3.13,3.13,0,0,0-.87,2,35.15,35.15,0,0,1-4.07,9.58,20.93,20.93,0,0,0-2.61,5.8c-.29,1.16-.58,2-.87,2.9-.29.59-.29.87-.58,1.46-.58,1.45-.87,3.19-1.45,4.93a23.52,23.52,0,0,1-3.78,8.71c0,.29,0,.58-.29.58-.87,1.45-1.45,2.9-2,4.06a6.42,6.42,0,0,1-5.51,3.77,47.75,47.75,0,0,1-6.68.3,5.26,5.26,0,0,1-4.36-2,5.53,5.53,0,0,1-1.45-2.9,11,11,0,0,1,0-4.35v-2a16.64,16.64,0,0,1-.29-3.48,26.53,26.53,0,0,0-.29-4.93,19.29,19.29,0,0,1,.29-4.07c0-.57.29-.87.29-1.45v-2.9a33.61,33.61,0,0,1,.29-9.29,41.44,41.44,0,0,0-.29-13.35,17.83,17.83,0,0,1-.29-4.06v-2.91a33.36,33.36,0,0,1,.29-5.51,35.72,35.72,0,0,0,.58-7.84v-2.32a9.87,9.87,0,0,0-.58-4.06,15.35,15.35,0,0,1,0-7.26,31.92,31.92,0,0,0,.58-7.55v-1.45a4.94,4.94,0,0,1-.29-2,5.69,5.69,0,0,1,4.65-6.09,22,22,0,0,1,4.35-.29,4.87,4.87,0,0,1,4.65,2.9,12.24,12.24,0,0,1,2,8.42,35.42,35.42,0,0,0,.29,7.83,20,20,0,0,1-.29,5.81,25.66,25.66,0,0,0-.58,8.13,2.6,2.6,0,0,1,.29,1.45h0a30.66,30.66,0,0,0,.58,9,26.64,26.64,0,0,1,.29,4.94,3.15,3.15,0,0,0,.29,1.45.77.77,0,0,0,.87.87c.29.29.58,0,1.16-.29.29-.29.29-.58.58-.87a29.39,29.39,0,0,0,3.78-8.71,10,10,0,0,1,2.32-4.64,19.6,19.6,0,0,0,2.9-6.68,6.83,6.83,0,0,1,.58-2.32,3.71,3.71,0,0,1,2.61-2,35.63,35.63,0,0,1,7.55-.88,6,6,0,0,1,5.23,3.78,26.09,26.09,0,0,0,2.32,4.94,31.33,31.33,0,0,1,2.62,7.25h0c.57,1.45,1.15,2.9,1.74,4.64a34.29,34.29,0,0,1,1.45,3.2,1.59,1.59,0,0,0,.87,1.45c.87.87,1.74.87,2.61-.29.58-.29.58-.87.58-1.45V190.49a23.55,23.55,0,0,1,0-6.39c.29-3.19.58-6.09.87-9.29a20.08,20.08,0,0,0-.58-3.77,21.38,21.38,0,0,1,0-6.1,32,32,0,0,0,.58-5.22c0-1.74.29-3.19,1.45-4.06a8.81,8.81,0,0,1,4.07-1.75,13.66,13.66,0,0,1,3.48.3c3.49,0,5.23,2,5.81,5.51v2.61a26.59,26.59,0,0,0,.29,4.65V171a28,28,0,0,0,0,7v.58Z" fill="#241b2e"/><path d="M862.24,241.86c2.91.88,4.65,2.91,4.36,6.1s-1.17,5.51-3.19,7a8.89,8.89,0,0,1-6.1,1.75h-4.94a35.34,35.34,0,0,0-7.83,0,46.76,46.76,0,0,1-9,.29c-2-.29-4.36-.29-6.39-.58a32,32,0,0,0-5.23-.58c-2.9-.3-4.35-2-4.64-4.94v-.29a9.87,9.87,0,0,0-.29-2.9,43.41,43.41,0,0,0-.58-6.1,19.42,19.42,0,0,1,0-5.8,15.79,15.79,0,0,0,0-6.39,20.19,20.19,0,0,1,0-8.41,17.6,17.6,0,0,0,0-5.52,17.83,17.83,0,0,1-.29-4.06v-5.23h0v-6.38a36.33,36.33,0,0,1,.29-9.87,5.66,5.66,0,0,0,.29-2,34.88,34.88,0,0,0-.58-14.52,30.89,30.89,0,0,1-.58-5.22v-1.45a38.48,38.48,0,0,1,.28-5.81,7.94,7.94,0,0,1,2.33-4.93,5.73,5.73,0,0,1,4.06-1.74c4.36-.58,8.71-.87,12.78-1.16h3.19a31.7,31.7,0,0,1,5.23.29,81.91,81.91,0,0,0,8.41.57h4.65c3.19,0,5.51,1.46,6.39,4.65a11.84,11.84,0,0,1,.87,4.35,4.79,4.79,0,0,1-1.46,3.49,4.87,4.87,0,0,1-2.9,2,4.77,4.77,0,0,1-2.9.58,62.73,62.73,0,0,0-10.16.87h-3.77a31.58,31.58,0,0,0-5.23.29c-2.62.29-4.07,1.45-4.64,4.06a18.63,18.63,0,0,0-.3,7,15.25,15.25,0,0,1,0,5.22,9.6,9.6,0,0,0,0,4.07,5.64,5.64,0,0,0,2.32,4.64,6,6,0,0,0,4.36,1.75,16.39,16.39,0,0,0,5.23,0A23.94,23.94,0,0,1,856.44,198a4.66,4.66,0,0,1,2.9,2.33,10.8,10.8,0,0,1,1.45,6.68,6,6,0,0,1-4.06,4.64,7.76,7.76,0,0,1-3.49.87,44.9,44.9,0,0,1-6.38-.29,65.63,65.63,0,0,0-7.55.29c-2.9.58-4.64,2.32-4.94,5.22a71.1,71.1,0,0,1-.58,7.84v2a25,25,0,0,1,.29,4.64v3.49a4.65,4.65,0,0,0,3.48,4.06,17,17,0,0,0,6.68.58,33.51,33.51,0,0,1,10.75.29c1.45.29,2.61.29,3.77.58a3.68,3.68,0,0,1,1.74.29,3.68,3.68,0,0,1,1.74.29Z" fill="#241b2e"/><path d="M936,241.86a5.72,5.72,0,0,1,4.65,6.1,9.91,9.91,0,0,1-3.2,7c-2,1.17-4.06,2-6.1,1.75h-5.22a32.84,32.84,0,0,0-7.55,0,49.75,49.75,0,0,1-9.29.29c-2-.29-4.06-.29-6.1-.58a32,32,0,0,0-5.22-.58c-2.91-.3-4.35-2-4.65-4.94v-.29a10.2,10.2,0,0,1-.28-2.9,43.43,43.43,0,0,0-.59-6.1,20.1,20.1,0,0,1,0-5.8,15.79,15.79,0,0,0-.28-6.39,16.54,16.54,0,0,1,.28-8.41,17.6,17.6,0,0,0,0-5.52,18.46,18.46,0,0,1-.28-4.06v-5.23h0a43.42,43.42,0,0,0-.3-6.38,36.93,36.93,0,0,1,.58-9.87c0-.87.29-1.45.29-2a34.88,34.88,0,0,0-.57-14.52,30.91,30.91,0,0,1-.59-5.22v-1.45a37.17,37.17,0,0,1,.29-5.81,9.44,9.44,0,0,1,2-4.93,5.89,5.89,0,0,1,4.35-1.74c4.35-.58,8.42-.87,12.78-1.16h3.19a31.52,31.52,0,0,1,5.22.29,76.59,76.59,0,0,0,8.13.57h4.94c3.19,0,5.22,1.46,6.38,4.65a11.65,11.65,0,0,1,.88,4.35,6.48,6.48,0,0,1-1.46,3.49,5.93,5.93,0,0,1-2.9,2,5.23,5.23,0,0,1-2.9.58,57.53,57.53,0,0,0-10.16.87h-3.78a31.52,31.52,0,0,0-5.22.29c-2.62.29-4.36,1.45-4.94,4.06a28,28,0,0,0,0,7v5.22a20.69,20.69,0,0,0-.29,4.07,6.55,6.55,0,0,0,2.32,4.64,7.17,7.17,0,0,0,4.65,1.75,16.32,16.32,0,0,0,5.22,0,22.61,22.61,0,0,1,9.87,1.15,4.57,4.57,0,0,1,3.2,2.33,10.63,10.63,0,0,1,1.16,6.68,5.7,5.7,0,0,1-3.78,4.64,7.72,7.72,0,0,1-3.48.87,51.49,51.49,0,0,1-6.68-.29,60.62,60.62,0,0,0-7.25.29c-3.2.58-4.65,2.32-4.94,5.22a71.47,71.47,0,0,0-.58,7.84,2.45,2.45,0,0,0,0,2V234c0,.58.29,1.16.29,1.74a4,4,0,0,0,3.19,4.06,19,19,0,0,0,7,.58,33.68,33.68,0,0,1,10.74.29c1.16.29,2.32.29,3.49.58a4.3,4.3,0,0,1,2,.29,2.61,2.61,0,0,1,1.45.29Z" fill="#241b2e"/><path d="M1014.36,153.05q5.65-.44,7,5.22a19.42,19.42,0,0,1,0,5.8,6.22,6.22,0,0,1-4.65,4.94,22.08,22.08,0,0,1-6.09.87,17.93,17.93,0,0,0-3.78.29,3.9,3.9,0,0,0-3.77,4.06,7.11,7.11,0,0,0,0,3.49,51.77,51.77,0,0,1-.58,6.67V189c0,3.48,0,7.25-.29,11,0,.87-.29,1.45-.29,2.32s-.29,1.74-.29,2.32a18.79,18.79,0,0,0,.58,5.8v.88a20.14,20.14,0,0,1-.29,7.26c0,1.74-.29,3.47-.29,5.22a28.14,28.14,0,0,0,.29,4.93,25.73,25.73,0,0,1,0,6.68v8.13a24.72,24.72,0,0,1-.87,6.67,5.86,5.86,0,0,1-4.94,4.94c-.29,0-.58,0-.58.28-.87,0-2,.3-2.9.3a4.29,4.29,0,0,1-4.65-2.33,18.93,18.93,0,0,1-1.45-5.8c0-3.78-.29-7.84-.58-11.61,0-2-.29-3.78-.29-5.81v-4.64a2.17,2.17,0,0,0,.29-1.45,46.66,46.66,0,0,0,0-9,18.82,18.82,0,0,1,.29-7,53,53,0,0,0,.58-9.57,8.12,8.12,0,0,0-.29-2.62v-.29a56.62,56.62,0,0,1-.58-6.67,3.74,3.74,0,0,0-.29-1.75,85.66,85.66,0,0,1,.58-12.18c.29-3.78-1.74-5.81-5.51-6.39-1.46,0-2.91.29-4.36.29-.58,0-1.16.29-1.74.29a16.54,16.54,0,0,1-3.77-.29,4.61,4.61,0,0,1-3.2-2.9,20.25,20.25,0,0,1-1.45-7.26c.29-2.9,1.74-4.94,4.94-5.22a22,22,0,0,1,4.35-.29,23.59,23.59,0,0,0,4.65-.29,15.56,15.56,0,0,1,6.38.29,29.57,29.57,0,0,0,8.71,0,66.15,66.15,0,0,1,7.55-.58,35.1,35.1,0,0,1,5.51.29,21.49,21.49,0,0,0,6.1,0Z" fill="#241b2e"/><path d="M767,604.1a7.77,7.77,0,0,0,.3-2.61v-2.33a40.32,40.32,0,0,1-.59-8.41,11,11,0,0,0,0-4.35,18.88,18.88,0,0,0-2.32-8.13c-1.16-1.74-2-3.48-2.9-4.94v-.28a16.56,16.56,0,0,0-7.55-7.26c-2.62-1.16-4.64-.87-6.39,1.45a4.32,4.32,0,0,0-1.16,2.61,10.88,10.88,0,0,0-.29,2.9v2.32a20.12,20.12,0,0,0,.29,7.26,15.85,15.85,0,0,1,.29,6.39c-.29,2.61-.29,4.93-.58,7.55a28.24,28.24,0,0,0,.58,7,4.3,4.3,0,0,0,.29,2v1.45a43.71,43.71,0,0,1,.58,6.39,50.89,50.89,0,0,1-1.16,11.61,8.93,8.93,0,0,0,.87,5.51c1.17,2.33,2.91,2.91,5.23,2.33a10.3,10.3,0,0,0,2.61-1.16,21.76,21.76,0,0,0,8.71-10.46c0-.57.29-.86.29-1.15L765,618a20.29,20.29,0,0,0,1.45-7.26,17,17,0,0,1,.58-6.68Zm15.39-6.38a53.6,53.6,0,0,1-.29,6.67,4.94,4.94,0,0,0-.29,2,21.9,21.9,0,0,0,0,4.36,7.46,7.46,0,0,1-.29,4.35,63.89,63.89,0,0,1-5.23,14.8c-.29.87-.87,1.74-1.16,2.62a17.22,17.22,0,0,1-1.16,2.32,22.09,22.09,0,0,1-6.67,7.84,33.66,33.66,0,0,1-11.62,5.8A32,32,0,0,1,744.09,650a19.51,19.51,0,0,0-5.81,0h-2a4.62,4.62,0,0,1-3.48-1.16,10,10,0,0,1-2.32-2.9,15.65,15.65,0,0,1-.3-5.23,10.63,10.63,0,0,0,0-4.35V630.8a31.31,31.31,0,0,0,.59-7.54,13.15,13.15,0,0,1,.29-5.81v-.28a21.55,21.55,0,0,0-.29-6.1,27.73,27.73,0,0,1,0-9.87,28,28,0,0,0,0-7h0a104,104,0,0,1-.59-16.54c0-1.16.3-2.32.3-3.49a12.46,12.46,0,0,0,0-4.64,76.31,76.31,0,0,1-.3-8.13c0-2.61.3-4.93.3-7.54.29-3.48,2-5.52,5.8-6.1a60.7,60.7,0,0,1,7.26.29,19.51,19.51,0,0,0,5.81,0,11.12,11.12,0,0,1,6.09.88h.29a42.21,42.21,0,0,0,5.51,2,10.44,10.44,0,0,1,4.07,1.74,33.1,33.1,0,0,1,2.91,3.2c.87.87,1.45,1.74,2.32,2.61,1.74,2,3.77,4.36,5.51,6.39a16.35,16.35,0,0,1,3.19,5.8,35.11,35.11,0,0,0,1.46,5.22,29.28,29.28,0,0,1,1.16,7,43,43,0,0,0,.29,6.1c.29,2.9.29,5.8.29,8.71Z" fill="#241b2e"/><path d="M833.21,613.68c2.9-.58,4.07-2,3.48-4.93s-.87-6.1-1.15-9a22.59,22.59,0,0,0-1.17-4.65c0-.58-.58-1.16-.87-1.74a2.64,2.64,0,0,0-2.32-1.16,3.37,3.37,0,0,0-2.32,1.74,5.86,5.86,0,0,0-.87,3.2c0,2.9-.87,5.22-1.74,7.83a18.89,18.89,0,0,0-1.17,3.78c0,2.61,1.17,4.06,3.2,4.64a12.76,12.76,0,0,0,2.9.58h0c.87,0,1.45-.29,2-.29Zm25.84,16.54v.58a67.47,67.47,0,0,0,1.74,11,10.65,10.65,0,0,1,.29,5.22,4.14,4.14,0,0,1-4.35,3.19,21.79,21.79,0,0,1-7.55-1.45,6.4,6.4,0,0,1-3.49-3.77,12.77,12.77,0,0,1-.58-3.19v-1.45a22.8,22.8,0,0,0-3.19-7.26,7.19,7.19,0,0,0-6.1-3.2H833.5a63.33,63.33,0,0,0-7.55.29h-.87c-3.77.3-5.8,2.33-6.67,6.1h0v2.32A17,17,0,0,1,817,645a6.11,6.11,0,0,1-4.64,3.77,21.67,21.67,0,0,1-5.81.87c-2.32,0-3.77-.58-4.64-2A5.44,5.44,0,0,1,800.7,643l.87-2.61v-.59a48.76,48.76,0,0,0,2.61-9.28,12,12,0,0,0,.29-3.2,56.27,56.27,0,0,1,1.46-7.54,2.28,2.28,0,0,0,.28-1.16v-.3c1.46-4.93,2.61-9.87,3.78-14.8a4.68,4.68,0,0,1,.87-2.61,48.4,48.4,0,0,0,2.32-9.29,14.56,14.56,0,0,1,.58-3.48l1.74-7.84a19.73,19.73,0,0,1,1.45-5.51,25,25,0,0,0,1.46-6.68,11.64,11.64,0,0,1,.87-4.35,32.72,32.72,0,0,0,1.74-6.68,12.71,12.71,0,0,1,2-5.51,7.72,7.72,0,0,1,1.45-1.75c1.17-1.16,3.19-1.74,5.52-2.32a12.63,12.63,0,0,1,5.8.29,6.77,6.77,0,0,1,3.49,3.49c.29.29.29.58.58.87a56,56,0,0,1,3.19,9.86c.29,1.45.58,2.62.87,4.07a40.43,40.43,0,0,1,1.16,6.38,20.42,20.42,0,0,0,2.33,7.84,35.61,35.61,0,0,1,2.32,9.58h0a3.68,3.68,0,0,0,.29,1.74c.29,2,.87,3.78,1.16,5.8a32.9,32.9,0,0,0,1.74,7.26,23.28,23.28,0,0,1,.87,4.35,48.15,48.15,0,0,0,2.91,11,39.76,39.76,0,0,1,2.32,10.15Z" fill="#241b2e"/><path d="M924.37,548.37a4,4,0,0,1,4.06,1.45,3.94,3.94,0,0,1,.87,4.36,28.47,28.47,0,0,1-3.77,10.16A51,51,0,0,0,920,575.66a44.16,44.16,0,0,1-4.35,8.13,30.24,30.24,0,0,0-2.91,6.09,38.73,38.73,0,0,1-2,5.22,17.06,17.06,0,0,0-1.16,5.23v.29a35.16,35.16,0,0,0-.29,5.52c-.29,3.77-.29,7.25-.87,11v.28a15.83,15.83,0,0,0,0,5.23,23.44,23.44,0,0,1,0,9v2.62h0v8.12a11.93,11.93,0,0,1-.29,3.2q-.87,3.92-5.22,4.35h-1.46a8.34,8.34,0,0,1-4.64-.87,5.76,5.76,0,0,1-2.62-2.61c0-.29-.28-.58-.57-1.16a1,1,0,0,0-.3-.87,10.42,10.42,0,0,1-.28-7.84,11.71,11.71,0,0,0,.28-5.51,32.26,32.26,0,0,1-.87-10.46v-1.15c0-.87.29-2,.29-3.2,0-.58-.29-1.16-.29-1.74v-1.74a44.35,44.35,0,0,1,0-6.1,8.6,8.6,0,0,0-.58-4.64,35.22,35.22,0,0,1-1.16-5.8,12.24,12.24,0,0,0-1.16-3.49,43.66,43.66,0,0,0-3.19-6.38,23.48,23.48,0,0,1-2.32-4.65c-.87-1.45-1.74-3.19-2.62-4.64a14.74,14.74,0,0,1-2-4.36A19.57,19.57,0,0,0,875.6,564a51.1,51.1,0,0,1-4.36-9,5.21,5.21,0,0,1,0-4.64,5.14,5.14,0,0,1,3.78-2.62,11.18,11.18,0,0,1,7.54.58,6.81,6.81,0,0,1,3.49,2.91.28.28,0,0,1,.29.29,8.81,8.81,0,0,1,1.45,2c.58,1.45,1.45,2.9,2,4.35a56.49,56.49,0,0,1,3.78,7.26,9.8,9.8,0,0,0,1.74,3.48,18.49,18.49,0,0,1,2.32,4.06,2.85,2.85,0,0,0,1.16,1.45,1.58,1.58,0,0,0,1.45.87,3.14,3.14,0,0,0,1.75-.57c.28-.3.57-.58.87-.87,0-.3.28-.58.58-.88a39.14,39.14,0,0,0,4.35-7.54,8.53,8.53,0,0,1,.58-2.62,19.31,19.31,0,0,0,.87-2.32,25.12,25.12,0,0,1,4.07-7.84,7.5,7.5,0,0,1,4.06-3.19,28.62,28.62,0,0,1,7-.87Z" fill="#241b2e"/><path d="M501.4,340.84a6.64,6.64,0,0,1,4.35,6.68,39.34,39.34,0,0,1-1.74,8.41,72.87,72.87,0,0,0-2.61,16,44.11,44.11,0,0,1-3.49,16.25,32.59,32.59,0,0,0-2.9,11.61,61,61,0,0,1-2.61,14.52A84.86,84.86,0,0,0,491,423a24.49,24.49,0,0,1-1.17,4.94,45.12,45.12,0,0,0-2.32,10.45c0,.58-.29,1.45-.29,2A82.26,82.26,0,0,0,484.85,452a21.56,21.56,0,0,1-3.49,8.42,9.28,9.28,0,0,1-7,4.64,35.43,35.43,0,0,1-7.84,0,9,9,0,0,1-6.68-4.35,18.71,18.71,0,0,1-3.19-8.71,42.64,42.64,0,0,0-2.62-8.71,11.9,11.9,0,0,1-1.15-5.52A67.32,67.32,0,0,0,450.59,421a63,63,0,0,0-2-7,39.11,39.11,0,0,1-1.45-5.52q-1.31-7-2.62-13.94c-.28-2.31-.87-4.64-1.15-7a3.15,3.15,0,0,1-.29-1.45,28,28,0,0,0-2.62-9.58A52.83,52.83,0,0,1,436.66,360a16.14,16.14,0,0,0-.87-4.94,15.6,15.6,0,0,1-1.74-7.25c.29-1.16.29-2,.57-3.2a6.25,6.25,0,0,1,4.65-4.93,20.64,20.64,0,0,1,4.07-.29,15.32,15.32,0,0,1,3.77.29,9.21,9.21,0,0,1,7.55,5.8,15.47,15.47,0,0,1,1.45,4.36c.58,2.9,1.45,5.8,2.32,9a22.2,22.2,0,0,1,.87,6.1v1.75a29.6,29.6,0,0,0,1.17,4.93,55.39,55.39,0,0,1,4.35,16.83A80.53,80.53,0,0,0,468,402.38a3.58,3.58,0,0,0,1.16,2.32c1.16,1.16,2.32,1.16,3.19,0a2.65,2.65,0,0,0,.87-2,3.61,3.61,0,0,0,.3-1.75c.29-.58.29-1.45.58-2.32a79.43,79.43,0,0,1,3.19-11.9,27.22,27.22,0,0,0,1.74-8.41c.3-1.17.58-2.62.87-3.78a17,17,0,0,0,.58-3.77c.59-2.33.87-4.65,1.46-7a12.24,12.24,0,0,1,.58-2.9c.29-1.45.29-2.91.58-4.65,0-.87.29-1.74.29-2.61a41.87,41.87,0,0,1,2-8.13c2-4.64,5.8-6.67,11-6.09a32.12,32.12,0,0,1,4.94,1.45Z" fill="#fff"/><path d="M561.49,420.66c3.48-.58,4.64-2.61,4.06-5.8-.58-3.78-1.16-7.55-1.45-11.33a18.81,18.81,0,0,0-1.16-5.8,7.27,7.27,0,0,0-1.16-2,3,3,0,0,0-2.9-1.17,3.13,3.13,0,0,0-2.62,1.75,7.25,7.25,0,0,0-1.16,4.06,25.85,25.85,0,0,1-2.32,9.58,13.67,13.67,0,0,0-1.16,4.94c-.29,2.89,1.16,4.64,4.07,5.51a14.86,14.86,0,0,0,3.19.58h0c1.16,0,2-.29,2.61-.29ZM593.13,441v.58a74.56,74.56,0,0,0,2.32,13.64,10.91,10.91,0,0,1,0,6.1c-.87,2.61-2.61,4.06-5.22,4.06a25.13,25.13,0,0,1-9.29-1.74,7.2,7.2,0,0,1-4.06-4.64,10.16,10.16,0,0,1-.88-4.07,2.61,2.61,0,0,0-.29-1.45,24.28,24.28,0,0,0-3.48-9,9.92,9.92,0,0,0-7.55-4.06h-3.19c-2.91.29-5.8.29-9,.29a1.74,1.74,0,0,1-1.16.29c-4.36.29-7,2.61-7.84,7.26v.28a8.09,8.09,0,0,0-.29,2.62,16.92,16.92,0,0,1-1.74,7.54,7.73,7.73,0,0,1-5.81,4.94,57.9,57.9,0,0,1-7,1.16c-2.61,0-4.64-.87-5.8-2.61a8.14,8.14,0,0,1-1.16-5.81c.29-1.16.58-2,.87-3.19a.28.28,0,0,0,.29-.29,84.93,84.93,0,0,0,2.9-11.61,17.12,17.12,0,0,0,.58-4.06,52.34,52.34,0,0,1,1.74-9.29,13,13,0,0,0,.29-1.45v-.3c1.75-5.8,3.2-11.89,4.65-18a10.28,10.28,0,0,1,.87-3.19,54.31,54.31,0,0,0,2.9-11.32,11.54,11.54,0,0,1,.88-4.36,84.46,84.46,0,0,0,2-9.29,31.15,31.15,0,0,1,1.75-7,20.48,20.48,0,0,0,1.74-8.13,11.77,11.77,0,0,1,1.16-5.51,41.87,41.87,0,0,0,2-8.13,26.46,26.46,0,0,1,2.62-6.68c.58-.57,1.16-1.45,1.74-2,1.45-1.45,3.77-2.32,6.68-2.9a19.44,19.44,0,0,1,7.25.29,9.12,9.12,0,0,1,4.36,4.35c0,.29.29.87.29,1.16a44.52,44.52,0,0,1,4.06,11.91,30.34,30.34,0,0,0,1.16,4.93,36.6,36.6,0,0,1,1.16,7.84,33.65,33.65,0,0,0,2.91,9.58,27.66,27.66,0,0,1,2.9,11.9h0c0,.58.29,1.45.29,2a59.39,59.39,0,0,1,1.45,7,45.53,45.53,0,0,0,2.32,9,33.62,33.62,0,0,1,1.17,5.23,49.85,49.85,0,0,0,3.48,13.35,62.65,62.65,0,0,1,2.9,12.77Z" fill="#fff"/><path d="M679.35,448.52c2.32,1.46,3.19,3.49,2.9,6.39a23.56,23.56,0,0,1-1.74,6.09,6.37,6.37,0,0,1-3.77,3.49,22.36,22.36,0,0,1-10.74.87,31.25,31.25,0,0,0-9-.29h-1.16a1.76,1.76,0,0,1-1.17.29h-2a60.7,60.7,0,0,0-7.26.29h-2a25.11,25.11,0,0,1-10.46-2.32,6.22,6.22,0,0,1-3.19-2.9A14.33,14.33,0,0,1,628,452a32.23,32.23,0,0,0,.58-5.51,35.57,35.57,0,0,0-.87-11,31.56,31.56,0,0,1,0-12.77,74.41,74.41,0,0,0,.87-11.32,23.44,23.44,0,0,1,.29-4.64V403a28.12,28.12,0,0,0-.87-6.68,82.06,82.06,0,0,1-1.16-9h0a83.58,83.58,0,0,1,1.45-17.12,44.41,44.41,0,0,0,.29-10.74,22,22,0,0,0-.29-4.36,39.3,39.3,0,0,1-.58-5.8,10.82,10.82,0,0,1,2-5.81c2-2.61,4.65-4.06,7.55-3.77h.29c4.93,0,8.13,2.32,9.29,7a16.74,16.74,0,0,1,.58,9.28,21.27,21.27,0,0,0,.29,10.45,21.49,21.49,0,0,1,0,6.1,37.79,37.79,0,0,0-.29,12.77c.29,2.32.29,4.64.58,7v2c0,3.48,0,7-.29,10.74-.29,1.45-.59,2.9-.87,4.64a28,28,0,0,0,.28,8.42,126.62,126.62,0,0,1,0,15.09,31.45,31.45,0,0,0,0,7.26,6.57,6.57,0,0,0,6.39,5.8c.29.3.29.3.59.3a49.49,49.49,0,0,1,6.67,0,48.73,48.73,0,0,0,6.39.28,43.27,43.27,0,0,1,8.71.59h.29a10.38,10.38,0,0,1,3.19,1.15Z" fill="#fff"/><path d="M766.73,448c3.78,1.16,5.52,3.77,5.52,7.83-.58,3.77-1.74,6.68-4.06,8.13a11.77,11.77,0,0,1-7.26,2.61c-2.33,0-4.36-.29-6.39-.29a52.85,52.85,0,0,0-9.58,0,46.41,46.41,0,0,1-11,.29c-2.61-.29-4.94-.29-7.55-.58-2-.29-4.35-.58-6.39-.87a5.83,5.83,0,0,1-5.8-5.81v-.58c0-1.16-.29-2.32-.29-3.48a34.17,34.17,0,0,0-.87-7.55,18.36,18.36,0,0,1,.29-7,22.26,22.26,0,0,0-.29-7.55,21.25,21.25,0,0,1,0-10.45,13.21,13.21,0,0,0,0-6.67,30.54,30.54,0,0,1-.3-5.23V404.4h0a73.18,73.18,0,0,0-.28-7.83,57.53,57.53,0,0,1,.87-12.19c0-.87.28-1.45.28-2.33a53.35,53.35,0,0,0-.57-18,20.63,20.63,0,0,1-.87-6.1v-1.74a58.24,58.24,0,0,1,.29-7.25,10.54,10.54,0,0,1,2.61-5.81,7.26,7.26,0,0,1,5.22-2.32c5.23-.58,10.46-.87,15.68-1.45h3.77a26,26,0,0,1,6.68.58c3.19.29,6.68.58,9.87.58,2,0,4.06-.29,5.81-.29,4.06,0,6.67,2,8.12,5.81a16.58,16.58,0,0,1,.88,5.51,9.83,9.83,0,0,1-1.75,4.35,9.08,9.08,0,0,1-3.48,2.62,15.07,15.07,0,0,1-3.48.58,87.36,87.36,0,0,0-12.49.87,19,19,0,0,1-4.06,0H745c-2,0-4.06.29-6.1.29a6.47,6.47,0,0,0-6.09,5.22,27,27,0,0,0,0,8.42v6.38a30.6,30.6,0,0,0-.3,5.23,8.06,8.06,0,0,0,2.91,5.52,9.16,9.16,0,0,0,5.52,2,23.5,23.5,0,0,0,6.38,0,28.83,28.83,0,0,1,12.19,1.44,6.48,6.48,0,0,1,3.78,2.91,13,13,0,0,1,1.74,7.84,8.16,8.16,0,0,1-4.93,6.09,11.73,11.73,0,0,1-4.36.87,70.85,70.85,0,0,1-7.84-.29,49.67,49.67,0,0,0-9.28.29,6.56,6.56,0,0,0-5.81,6.39c-.3,3.48-.58,6.67-.87,9.87v2a42.83,42.83,0,0,1,.29,6.09v4.07a5.91,5.91,0,0,0,4.06,4.93,17.71,17.71,0,0,0,8.71.58,49.36,49.36,0,0,1,13.06.58c1.45.29,2.91.29,4.36.59.87,0,1.45.28,2.32.28.58,0,1.16.3,2,.3Z" fill="#fff"/><path d="M871,387.28v3.19a37.1,37.1,0,0,1-.29,5.81v2a1.74,1.74,0,0,1,.29,1.16c0,2.91,0,5.81-.29,9v1.16a56,56,0,0,0,0,13.93v7a49.31,49.31,0,0,0-.29,11.32,19,19,0,0,1-.29,5.8,33.29,33.29,0,0,0-.29,9.29,5,5,0,0,1-.87,4.06,6.57,6.57,0,0,1-3.19,2.33,12.48,12.48,0,0,1-3.2.58,49.68,49.68,0,0,1-9.29,0,9.23,9.23,0,0,1-7-5.23,71.8,71.8,0,0,1-3.2-7,30.3,30.3,0,0,0-1.74-4.65c-.29-1.16-.87-2.32-1.16-3.48-.58-1.16-.87-2.32-1.45-3.48a90,90,0,0,1-4.65-15.1,30.59,30.59,0,0,0-1.45-5.51c-.29-1.16-.58-2-.87-3.19a2.2,2.2,0,0,1-.29-1.17,27.35,27.35,0,0,0-1.16-3.77,10.17,10.17,0,0,0-1.45-2.32,2.64,2.64,0,0,0-2.91-.87,2.21,2.21,0,0,0-1.74,2.32,4,4,0,0,0,0,2.61,16.47,16.47,0,0,1-.29,8.42,11.84,11.84,0,0,0,.29,5.51,20.25,20.25,0,0,1,0,8.42,39.18,39.18,0,0,0-.29,15.39,13.86,13.86,0,0,1-.87,8.41,9.55,9.55,0,0,1-6.38,5.23,17.59,17.59,0,0,1-5.52,0,7.29,7.29,0,0,1-4.94-3.77,13,13,0,0,1-1.16-9.87,16.34,16.34,0,0,0,.29-7.55,20.15,20.15,0,0,1-.87-5.8c.29-3.2,0-6.39,0-9.29a37,37,0,0,1,.58-8.13,46.44,46.44,0,0,0,.58-11c-.29-.29-.29-.29-.29-.58v-1.16a23.68,23.68,0,0,0-.58-10.16,26.59,26.59,0,0,1,0-9.58,42.29,42.29,0,0,0,0-14.8,29.28,29.28,0,0,1,.29-8.71,49.27,49.27,0,0,0-.29-13.06,9.52,9.52,0,0,1,2.91-8.13,5.93,5.93,0,0,1,1.74-1.16,19.31,19.31,0,0,1,9.87-1.74c2.9.29,4.93,1.74,6.67,4.35.87,1.75,1.74,3.78,2.62,5.52.58,1.16.87,2,1.45,3.19a21.29,21.29,0,0,1,2.32,7.26c.29.87.29,1.74.58,2.61a81.71,81.71,0,0,1,2.9,9,19.52,19.52,0,0,0,1.46,3.77,45.12,45.12,0,0,1,4.93,11.61c0,.29.29.58.29.87.58,1.74.87,3.49,1.45,5.23.29.87.29,1.74.59,2.61s.57,1.74.87,2.61c0,.58.28.87.58,1.45a2.23,2.23,0,0,0,1.16,1.16,2.13,2.13,0,0,0,1.74.58,3.13,3.13,0,0,0,2.32-2.32,22.54,22.54,0,0,0,.58-4.64,2.47,2.47,0,0,0,0-2v-.87a70.67,70.67,0,0,0-.29-7.83v-.87a12.51,12.51,0,0,1,0-4.65,93.39,93.39,0,0,0-.58-18V349a11.86,11.86,0,0,1,.29-3.19,6.47,6.47,0,0,1,6.1-5.23,23.93,23.93,0,0,1,7.84.58,7.43,7.43,0,0,1,5.22,6.68,28.19,28.19,0,0,1-.29,4.93,35.37,35.37,0,0,0,.29,9.58,20.58,20.58,0,0,1,0,8.42,22,22,0,0,0,0,8.7,71.28,71.28,0,0,1,.58,7.84Z" fill="#fff"/><path d="M962.69,339.68c4.64-.58,7.26,1.74,8.42,6.1a31.36,31.36,0,0,1,0,7.25,7.45,7.45,0,0,1-5.81,5.8A20.87,20.87,0,0,1,958,360c-1.45,0-3.19.29-4.64.29-2.9.58-4.64,2.32-4.94,5.22v4.06a41.1,41.1,0,0,1-.58,8.42v5.52a102.61,102.61,0,0,1-.29,13.35c0,1.16-.29,2-.29,2.9-.29,1.16-.29,2-.58,2.91a29.22,29.22,0,0,0,.87,7.25v.87a30.89,30.89,0,0,1-.29,9c-.29,2-.29,4.06-.58,6.38a39.3,39.3,0,0,0,.58,5.81,38.07,38.07,0,0,1,0,8.13,59.41,59.41,0,0,0,0,10.16,26.81,26.81,0,0,1-1.16,8.41,7.41,7.41,0,0,1-6.1,5.81c-.28,0-.58,0-.58.29a14.56,14.56,0,0,0-3.48.58,5.46,5.46,0,0,1-5.81-3.19,17.29,17.29,0,0,1-1.45-6.68c-.58-4.93-.58-9.58-.87-14.51-.29-2.32-.29-4.65-.58-7a40.91,40.91,0,0,1,.29-5.81,3.66,3.66,0,0,1,.29-1.74,70.07,70.07,0,0,0-.29-11,29.42,29.42,0,0,1,.58-8.71,49.45,49.45,0,0,0,.58-11.32,10.87,10.87,0,0,0-.29-3.19v-.58c-.29-2.61-.58-5.52-.87-8.13v-2.33a79.84,79.84,0,0,1,.58-14.5c0-4.65-2-7.26-7-7.85a30.48,30.48,0,0,0-5.22.3h-2a12.36,12.36,0,0,1-4.64-.3,5.54,5.54,0,0,1-4.06-3.48,22.71,22.71,0,0,1-1.45-8.7c0-3.78,2-6.1,5.8-6.68a33.43,33.43,0,0,1,5.23-.29,41,41,0,0,0,6.1-.29,33.46,33.46,0,0,1,7.54.29,33.36,33.36,0,0,0,10.74,0c2.91-.29,6.1-.58,9-.58a56,56,0,0,1,7,.29,32.92,32.92,0,0,0,7.55.29Z" fill="#fff"/><path d="M1024.52,427.92c.29,2,.58,3.77.87,5.8a44,44,0,0,1,.59,15.09c0,2.33-.3,4.65-.3,7a17.2,17.2,0,0,1-.58,4.07c-1.16,3.19-3.19,4.93-6.67,5.22a43.56,43.56,0,0,1-5.81-.58c-2.9-1.16-4.64-2.9-5.23-5.81a15.07,15.07,0,0,1-.58-3.48,13.15,13.15,0,0,0-.58-5.81,17.16,17.16,0,0,1-.29-5.51,22.1,22.1,0,0,0-.29-4.36,56,56,0,0,1,.29-7,23.63,23.63,0,0,0,.29-6.39,37.46,37.46,0,0,1,.29-9.86,39.57,39.57,0,0,0,.29-8.42v-1.74c-.29-3.48-.58-6.68-.87-10.16a21.9,21.9,0,0,1,.29-4.35,17.92,17.92,0,0,0-.29-7.84,25,25,0,0,1,0-9.29V364.35a73.41,73.41,0,0,1,0-16,24.59,24.59,0,0,1,1.45-4.94c1.17-1.74,2.62-3.19,4.65-3.48a17.3,17.3,0,0,1,6.68-.29c4.35.87,6.38,3.48,6.38,8.42a121.11,121.11,0,0,0,0,14.51,2.19,2.19,0,0,1,.29,1.16v2.91a35.16,35.16,0,0,0,.29,5.51,41.58,41.58,0,0,1-.87,8.42v.29a49.6,49.6,0,0,0,0,9.28,57.69,57.69,0,0,1,.87,10.16v2.91c0,.87.3,1.74.3,2.9q-.45,3.48-.88,7v1.45c0,1.75-.29,3.78-.29,5.81,0,2.61-.29,4.93-.29,7.55Z" fill="#fff"/><path d="M1129.9,387.28v3.19a37.1,37.1,0,0,1-.29,5.81v2c0,.29.29.87.29,1.16,0,2.91,0,5.81-.29,9v1.16a56,56,0,0,0,0,13.93v7a49.31,49.31,0,0,0-.29,11.32,37,37,0,0,1-.29,5.8,25.06,25.06,0,0,0-.29,9.29,5,5,0,0,1-.87,4.06,8.25,8.25,0,0,1-3.19,2.33,12.33,12.33,0,0,1-3.2.58,49.71,49.71,0,0,1-9.29,0,9.74,9.74,0,0,1-7.26-5.23,73.36,73.36,0,0,1-2.9-7c-.58-1.45-1.16-3.2-1.74-4.65a17.74,17.74,0,0,0-1.45-3.48,16.35,16.35,0,0,0-1.16-3.48A90.93,90.93,0,0,1,1093,425a30.59,30.59,0,0,0-1.45-5.51c-.29-1.16-.87-2-1.16-3.19,0-.58,0-.87-.29-1.17-.29-1.15-.58-2.32-.87-3.77a10.17,10.17,0,0,0-1.45-2.32,2.78,2.78,0,0,0-2.9-.87,2.2,2.2,0,0,0-1.75,2.32,4,4,0,0,0,0,2.61,16.69,16.69,0,0,1-.29,8.42,9,9,0,0,0,.29,5.51,20.59,20.59,0,0,1,0,8.42,39.18,39.18,0,0,0-.29,15.39,13.86,13.86,0,0,1-.87,8.41,9.55,9.55,0,0,1-6.39,5.23,17.53,17.53,0,0,1-5.51,0,6.71,6.71,0,0,1-4.93-3.77,13,13,0,0,1-1.17-9.87,16.59,16.59,0,0,0,0-7.55,39.44,39.44,0,0,1-.58-5.8v-9.29a25.06,25.06,0,0,1,.58-8.13,47,47,0,0,0,.58-11c-.29-.29-.29-.29-.29-.58v-1.16a29.59,29.59,0,0,0-.58-10.16,26.59,26.59,0,0,1,0-9.58,42.29,42.29,0,0,0,0-14.8,29.28,29.28,0,0,1,.29-8.71,65.56,65.56,0,0,0-.29-13.06,9.54,9.54,0,0,1,2.9-8.13,6.24,6.24,0,0,1,1.75-1.16,18.77,18.77,0,0,1,9.87-1.74,7.78,7.78,0,0,1,6.38,4.35,49.82,49.82,0,0,1,2.91,5.52c.58,1.16.87,2,1.45,3.19a21.29,21.29,0,0,1,2.32,7.26,8.47,8.47,0,0,0,.58,2.61c.87,2.91,2,5.8,2.91,9a19.47,19.47,0,0,0,1.45,3.77,45.12,45.12,0,0,1,4.93,11.61,1.07,1.07,0,0,0,.29.87,35.18,35.18,0,0,0,1.45,5.23,8.77,8.77,0,0,0,.58,2.61c.3.87.58,1.74.87,2.61,0,.58.3.87.58,1.45a2.32,2.32,0,0,0,1.17,1.16c.29.58.87.58,1.74.58a3.13,3.13,0,0,0,2.32-2.32,22.54,22.54,0,0,0,.58-4.64v-2.91a70.67,70.67,0,0,0-.29-7.83,1.07,1.07,0,0,0-.29-.87v-4.65a74.71,74.71,0,0,0-.29-18V349a11.86,11.86,0,0,1,.29-3.19,6.47,6.47,0,0,1,6.1-5.23,23.85,23.85,0,0,1,7.83.58,7.42,7.42,0,0,1,5.23,6.68,28.19,28.19,0,0,1-.29,4.93,35.37,35.37,0,0,0,.29,9.58,20.58,20.58,0,0,1,0,8.42,17.7,17.7,0,0,0-.29,8.7,36.09,36.09,0,0,1,.87,7.84Z" fill="#fff"/><path d="M1219.9,448c3.77,1.16,5.51,3.77,5.51,7.83-.29,3.77-1.74,6.68-4.06,8.13a11.77,11.77,0,0,1-7.26,2.61c-2,0-4.07-.29-6.39-.29a49.68,49.68,0,0,0-9.29,0,49.29,49.29,0,0,1-11.32.29c-2.32-.29-4.94-.29-7.55-.58-2-.29-4.35-.58-6.38-.87-3.48-.29-5.23-2.33-5.81-5.81V455.2c-.29-2.61-.58-4.93-.87-7.55a18.72,18.72,0,0,1,0-7,16.47,16.47,0,0,0-.29-7.55,25.4,25.4,0,0,1,.29-10.45,25.65,25.65,0,0,0,0-6.67,15.89,15.89,0,0,1-.29-5.23V404.4h0a70.67,70.67,0,0,0-.29-7.83,57.29,57.29,0,0,1,.58-12.19,6.41,6.41,0,0,0,.29-2.33,41.89,41.89,0,0,0-.58-18,20.63,20.63,0,0,1-.87-6.1v-1.74a29.42,29.42,0,0,1,.58-7.25,7.75,7.75,0,0,1,2.61-5.81,6.39,6.39,0,0,1,5.23-2.32c4.93-.58,10.16-.87,15.39-1.45h3.77a26,26,0,0,1,6.67.58c3.2.29,6.68.58,9.87.58,2,0,4.07-.29,6.1-.29,3.77,0,6.39,2,7.84,5.81a16.84,16.84,0,0,1,.87,5.51,5.9,5.9,0,0,1-1.74,4.35,7.4,7.4,0,0,1-3.49,2.62,15,15,0,0,1-3.48.58,87.22,87.22,0,0,0-12.48.87,19,19,0,0,1-4.06,0h-.59c-2.32,0-4.35.29-6.39.29a5.93,5.93,0,0,0-5.8,5.22,27.05,27.05,0,0,0-.29,8.42,23.48,23.48,0,0,1,0,6.38,15.83,15.83,0,0,0,0,5.23,6.75,6.75,0,0,0,2.62,5.52,9.84,9.84,0,0,0,5.51,2,23.48,23.48,0,0,0,6.38,0,30.22,30.22,0,0,1,12.49,1.44,7.5,7.5,0,0,1,3.77,2.91,12.69,12.69,0,0,1,1.45,7.84,7.6,7.6,0,0,1-4.93,6.09,10.59,10.59,0,0,1-4.35.87A71,71,0,0,1,1201,412a46.76,46.76,0,0,0-9,.29c-3.77.58-5.8,2.9-6.09,6.39s-.58,6.67-.87,9.87v2a42.83,42.83,0,0,1,.29,6.09v1.75c0,.87.29,1.45.29,2.32a5.51,5.51,0,0,0,4.06,4.93,16.36,16.36,0,0,0,8.42.58,49.45,49.45,0,0,1,13.07.58c1.45.29,2.9.29,4.35.59.87,0,1.74.28,2.33.28s1.44.3,2,.3Z" fill="#fff"/><path d="M549,178.3c-1.17-4.94-2.91-11.9-6.1-16-3.77-5.22-7.84-9-14.23-9.57a19.87,19.87,0,0,0-12.19,3.48,18.57,18.57,0,0,0-6.09,10.16c-.88,4.35.57,7.26,1.74,11.32-1.74-2.32-6.68-.87-9-.58-4.94.58-10.16,2-14.23,5.51s-8.71,7.26-11.32,12.19c-2.61,5.52-1.16,11.9,1.16,17.42,3.48,7.84,12.2,15.67,20.32,19.15,7.55,3.2,15.39,3.2,23.52.87,7-2,14.51-3.19,21.77-4.35,3.19-.29,6.1-2.32,9.29-2.32,1.45-.29,3.19.58,4.36,0l1.45-.58c-2.62-9.29-5.23-19.16-7.26-28.74a179.08,179.08,0,0,0-3.19-18Z" fill="#ea4b85"/><path d="M1181.87,194.84c-2.33-4.93-7.26-8.7-11.33-12.19-3.77-3.48-9-4.93-14.22-5.51-2-.29-7.26-1.74-8.71.58.87-4.06,2.61-7,1.45-11.32a16.65,16.65,0,0,0-18-13.64c-6.38.58-10.74,4.35-14.51,9.57-2.9,4.07-4.65,11-6.1,16-1.16,5.8-2,11.9-3.19,18-1.74,9.58-4.36,19.45-7,28.74l1.16.58c1.45.58,2.9-.29,4.65,0,3.19,0,6.09,2,9,2.32a198,198,0,0,1,22.06,4.35,34.42,34.42,0,0,0,23.51-.87c7.84-3.48,16.55-11.31,20-19.15,2.62-5.52,4.07-11.9,1.17-17.42Z" fill="#ea4b85"/><path d="M549,594.81c-1.17-5.22-2.91-12.19-6.1-16.25-3.77-5.23-7.84-9-14.23-9.58a18.49,18.49,0,0,0-12.19,3.77,16.9,16.9,0,0,0-6.09,9.87c-.88,4.36.57,7.26,1.74,11.32-1.74-2-6.68-.58-9-.29-4.94.58-10.16,2-14.23,5.23-4.06,3.48-8.71,7.54-11.32,12.19-2.61,5.8-1.16,11.9,1.16,17.41,3.48,7.84,12.2,16,20.32,19.16,7.55,3.49,15.39,3.19,23.52,1.16a137.78,137.78,0,0,1,21.77-4.35c3.19-.58,6.1-2.32,9.29-2.61,1.45-.3,3.19.57,4.36,0l1.45-.58c-2.62-9.29-5.23-18.87-7.26-28.74-.87-5.81-1.74-11.9-3.19-17.71Z" fill="#ea4b85"/><path d="M1181.87,611.07c-2.33-4.65-7.26-8.71-11.33-12.19-3.77-3.2-9-4.65-14.22-5.23-2-.29-7.26-1.74-8.71.29.87-4.06,2.61-7,1.45-11.32a16.87,16.87,0,0,0-6.1-9.87,17.24,17.24,0,0,0-11.9-3.77c-6.38.58-10.74,4.35-14.51,9.58-2.9,4.06-4.65,11-6.1,16.25-1.16,5.81-2,11.9-3.19,17.71-1.74,9.87-4.36,19.45-7,28.74l1.16.58c1.45.57,2.9-.3,4.65,0,3.19.29,6.09,2,9,2.61a148.53,148.53,0,0,1,22.06,4.35c7.84,2,15.68,2.33,23.51-1.16,7.84-3.19,16.55-11.32,20-19.16,2.62-5.51,4.07-11.61,1.17-17.41Z" fill="#ea4b85"/><path d="M196.57,493.51c2.33,13.36,1.46,27.87-.87,42.38-2-14.22-2.32-28.73.87-42.38Zm-71.12,52a30.09,30.09,0,0,0-1.16-2.9l1.74.87a18.48,18.48,0,0,0-.58,2Zm200-451.93C294.12,106,264.8,134.18,252.9,166.69l-.29.29c2-18.87-2.62-40-14.23-53.7-6.09-7.55-16.26-5.51-19.45,3.78a88.42,88.42,0,0,0,8.71,73.43c.29.58.58.87.87,1.45a302.25,302.25,0,0,0-24.09,30.77c-.3-18.29-4.36-36-13.94-52.25-4.35-7-14.8-5.52-18.58,1.16-14.51,27.28-.58,60.38,10.74,86.5a396.36,396.36,0,0,0-25.54,60.37c-4.36-17.41-8.13-34.54-17.71-50.21-4.94-7.84-18-5.52-19.45,3.77-4.65,29.9,7.26,58.34,27.58,80.11a.62.62,0,0,0,.57.58,368.29,368.29,0,0,0-8.41,73.73c-7.26-16.55-14.52-33.09-31.35-43-5.81-3.2-14.81.58-15.39,7.55-3.48,33.37,20,62.4,45,82.14a10.85,10.85,0,0,0,4.64,2,292.9,292.9,0,0,0,16,64.72c-13.07-11.31-28.16-20.31-44.71-23.22-5.23-.87-11.9,2.33-12.48,8.42-5.52,43.54,47.32,68.79,85.06,79.24.29,0,.58.29,1.16.29a47.8,47.8,0,0,0,6.1,1.46,248.81,248.81,0,0,0,27.57,33.08c-20.61-12.77-43-23.22-66.18-13.35-5.81,2.32-8.13,7.55-6.68,13.64,12.19,49.06,72.28,38,110,35.41l3.49-.87A301.18,301.18,0,0,0,338,712.36c13.06,4.65,17.41-16.54,4.35-20.89a285.75,285.75,0,0,1-56.9-27v-2c-1.74-29.89-.29-65.88-21.19-90-4.94-5.51-15.1-7-18.58,1.17-7.84,18.86-7.84,39.18-2.33,58a266.29,266.29,0,0,1-36.57-44.11c8.71-40.93,23.22-91.14-1.16-128.88-4.65-7.25-14.52-5.22-18.58,1.17-10.17,16.25-13.94,34.83-14.23,54A314.48,314.48,0,0,1,162,455.49a159.41,159.41,0,0,1-.87-16.83l.87-.88c25.55-17.41,57.48-46.14,49.64-79.82-1.45-7.25-10.45-8.7-16-5.51a99.81,99.81,0,0,0-31.35,27.86,327.81,327.81,0,0,1,11-49.92h.3c26.41-5.51,70-20.61,74-52.25,1.16-7.25-3.77-12.77-11-12.77-17.42-.28-32.51,8.42-45.86,19.75a329.49,329.49,0,0,1,32.5-55.45c.59,0,1.17.29,1.75.29,24.1,1.45,56.9,1.45,76.93-14.51,7-5.52,5.8-17.42-3.77-19.45-15.68-3.19-32.23-3.48-47.61.58,4.06-4.06,8.12-8.12,12.19-11.9a.28.28,0,0,0,.29-.29c40.64-11.32,69.09-34.83,74.61-78.66.87-7.54-5.81-15.67-14.23-12.19Z" fill="#6fbf97"/><path d="M1463.75,535.89c-2.32-14.51-3.19-29-.58-42.38,2.9,13.65,2.62,28.16.58,42.38Zm70,7.55,1.75-.87a25.21,25.21,0,0,0-1.45,2.9c0-.87-.3-1.45-.3-2ZM1320.05,105.73c5.52,43.83,33.67,67.34,74.32,78.66l.29.29c4.35,3.78,8.42,7.84,12.48,11.9-15.38-4.06-31.93-3.77-47.61-.58-9.87,2-10.74,13.93-3.77,19.45,19.74,16,52.54,16,76.64,14.51.87,0,1.45-.29,2-.29a350.36,350.36,0,0,1,32.51,55.45c-13.35-11.33-28.74-20-45.87-19.75-7.54,0-12.19,5.52-11.32,12.77,4.07,31.64,47.61,46.74,74,52.25h.29a325.43,325.43,0,0,1,11,49.92A98.67,98.67,0,0,0,1464,352.45c-5.51-3.19-14.51-1.74-16.26,5.51-7.54,33.68,24.39,62.41,49.64,79.82.3.3.87.59,1.17.88-.3,5.8-.58,11.32-.87,16.83a292.47,292.47,0,0,1-11,58.34c0-19.15-3.77-37.73-14.22-54-4.06-6.39-13.65-8.42-18.29-1.17-24.38,37.74-9.87,87.95-1.45,128.88a252.3,252.3,0,0,1-36.58,44.11c5.81-18.86,5.81-39.18-2.32-58-3.19-8.13-13.64-6.68-18.29-1.17-20.9,24.1-19.74,60.09-21.48,90a5,5,0,0,0,.29,2,288.24,288.24,0,0,1-57.19,27c-12.78,4.35-8.71,25.54,4.35,20.89a291.81,291.81,0,0,0,76.06-38.31c1.16.3,2.32.58,3.78.87,37.45,2.62,97.54,13.65,109.73-35.41,1.45-6.09-.87-11.32-6.67-13.64-22.94-9.87-45.59.58-65.91,13.35a273.26,273.26,0,0,0,27.58-33.08,47.8,47.8,0,0,0,6.1-1.46c.29,0,.58-.29,1.16-.29,37.45-10.45,90.57-35.7,85.06-79.24-.87-6.09-7.26-9.29-12.77-8.42-16.55,2.91-31.36,11.91-44.42,23.22a292.89,292.89,0,0,0,16-64.72,9.89,9.89,0,0,0,4.36-2c25-19.74,48.48-48.77,45.29-82.14-.87-7-9.87-10.75-15.39-7.55-17.13,9.87-24.09,26.41-31.64,43a367.34,367.34,0,0,0-8.13-73.73l.58-.58c20.32-21.77,31.93-50.21,27.58-80.11-1.45-9.29-14.8-11.61-19.45-3.77-9.58,15.67-13.64,32.8-18,50.21a344.86,344.86,0,0,0-25.55-60.37c11.61-26.12,25.26-59.22,10.74-86.5-3.48-6.68-14.22-8.12-18.28-1.16-9.87,16.25-13.65,34-13.94,52.25a352.9,352.9,0,0,0-24.39-30.77,5,5,0,0,0,1.17-1.45,87.25,87.25,0,0,0,8.41-73.43c-2.9-9.29-13.06-11.33-19.45-3.78-11.32,13.65-16.25,34.83-13.93,53.7-.29,0-.29-.29-.58-.29-11.9-32.51-41.22-60.67-72.58-73.15-8.13-3.48-14.8,4.65-13.93,12.19Z" fill="#6fbf97"/></g></g></svg>