<svg xmlns="http://www.w3.org/2000/svg" viewBox="0 0 1642.64 916.11"><g id="Layer_2" data-name="Layer 2"><g id="Layer_1-2" data-name="Layer 1"><path d="M1429.85,798.13l32.8-76.91,100.73,59.21,26.72-132.94c5.22-25.54,3.19-47.89-6.68-72.27l-.29-.58v-.87c-1.17-6.68-2.33-13.64-3.49-20.61l-.29-.87v-.58a128.14,128.14,0,0,0-1.16-27.86l-.58-2.91,1.74-2.32c4.07-5.51,8.42-10.74,12.2-16,15.38-21.76,23.22-31.92,30.76-58l20.33-70-61.54-38.6c-10.46-6.39-20.91-12.48-31.36-18.58-10.74-6.38-21.19-13.35-32.51-19.44-11-6.1-23.23-9.87-34.84-15.38-11.32-5.81-21.48-13.36-32.8-18.58-11.32-5.52-22.06-11.9-33.68-17.13-11.61-4.93-23.8-8.13-35.71-12.77-10.74-4.36-21.48-9-32.51-13.06L1265,190.34l-7.85,16.25L1251,192.67c-10.16-22.94-27.29-41.8-48.48-55.16a115.44,115.44,0,0,0-16.84-8.7l-1.16-.59-.87-.57A101.23,101.23,0,0,0,1168.28,116c-18.87-12.19-40.64-19.45-63-20h-3.2l-2-2.62a101.41,101.41,0,0,0-72-35.41,168.73,168.73,0,0,0-17.13,0l-1.45.29-1.16-.58a110.85,110.85,0,0,0-47.61-5.22l-2.33.29-3.77.58-1.16-.29a3.15,3.15,0,0,0-1.45-.29l-1.16-.29-1.46-.29a122.15,122.15,0,0,0-30.76-2,123.64,123.64,0,0,0-14.52,1.74l-1.46.58-1.74-.58c-3.77-.87-7.54-1.74-11.32-2.32a181.84,181.84,0,0,0-21.77-2,103,103,0,0,0-28.16,3.77,86.62,86.62,0,0,0-20.32,7.83l-3.19,1.46L813,59.14a105.28,105.28,0,0,0-50.8-10.44,9.87,9.87,0,0,1-2.9.29h-.87a157.52,157.52,0,0,0-16.55,0c-2.32.29-4.94.29-7.26.58h-1.16l-1.45.29L718.89,51.6a110.45,110.45,0,0,0-23.8,6.09l-1.74.58-2-.29a14.72,14.72,0,0,0-3.49-.58,117.76,117.76,0,0,0-31.93-.86H655a145.26,145.26,0,0,0-15.39,1.15,155.06,155.06,0,0,0-34,9A103,103,0,0,0,565,96.59l-2.61,3.48-4.35-1.16c-31.94-7.54-65-.29-92.9,17.13a114.49,114.49,0,0,0-15.09,11.61l-1.17.57-.87.59a114.82,114.82,0,0,0-16.83,8.7c-24.39,15.39-44.13,36.87-53.13,64.44l-1.16,3.2L336,220.53c-11.33,4.06-22.94,8.13-34.26,12.77-11.61,4.64-22.35,11.61-34,16.84-11.33,4.93-23.23,9.29-34.55,14.8-11.62,5.22-22.93,10.44-34.26,16.25-10.74,5.52-21.19,11.61-31.64,17.42l-.29.28h-.29c-12.19,5.23-24.1,9.29-35.71,16-11.32,6.68-21.48,15.1-32.51,22.06L37,375.52l20,70c7.26,25,18.58,42.67,37.74,60.08l.29.29.29.58c3.2,4.06,6.39,7.84,9.87,11.61l2.62,3.19L106.35,525a184,184,0,0,0-5.51,21.77c-1.74,10.16-4.07,20.61-5.81,30.77l-.29.29v.58c-7.54,25-9.29,43.54-4.06,69.37l26.71,132.94,103.34-60.66,33.39,77.2L345,753.44a113.59,113.59,0,0,0,12.77-7.26l24.38-13.94-14.8,23.81a6.72,6.72,0,0,1-.87,1.45c-18.58,30.77-20,67.34-4.36,99.55C379.53,892.18,413.79,914.53,453,916a166.35,166.35,0,0,0,68.22-11.32l1.45-.58,2,.29a104.18,104.18,0,0,0,82.74-26.12c2.9-2.62,5.51-5.23,8.13-7.84l1.74-1.74,2.32-.29a125.25,125.25,0,0,0,38.9-13.93l1.74-.87h2.33a126.24,126.24,0,0,0,47.61-4.36l3.77-.87,2.9,2.9c29.32,29.32,66.48,52,108,58l13.94,2,13.93-2c41.81-6.09,79-29,108.58-58.63l2.9-2.9,4.06,1.16a126.14,126.14,0,0,0,48.78,4.65h2l2,.87a125.25,125.25,0,0,0,38.9,13.93l2.32.29,1.46,1.74c2.61,2.61,5.22,5.22,8.12,7.84,22.94,20.31,52.55,29.89,83,26.12l1.74-.29,1.74.58c21.78,8.71,44.71,12.19,68.23,11.32a104.58,104.58,0,0,0,90.57-58.93c16-32.21,14.23-68.78-4.07-99.55a6.28,6.28,0,0,1-1.16-1.74l-12.19-19.45,20.9,9.29c6.1,2.61,12.2,5.52,18.29,8.41Z" fill="#c56b9f" fill-rule="evenodd"/><path d="M1392.88,750.6l32.8-76.92,100.73,59.22L1553.12,600c5.23-25.55,3.19-47.9-6.67-72.27l-.29-.59v-.87c-1.17-6.68-2.33-13.64-3.49-20.61l-.29-.87v-.57a128.25,128.25,0,0,0-1.16-27.87l-.58-2.9,1.74-2.32c4.07-5.52,8.42-10.74,12.2-16,15.38-21.77,23.22-31.93,30.76-58.05l20.32-69.95-61.54-38.61c-10.45-6.38-20.9-12.48-31.35-18.57-10.74-6.39-21.19-13.35-32.52-19.45-11-6.09-23.22-9.86-34.83-15.38-11.32-5.81-21.48-13.35-32.8-18.58-11.33-5.52-22.07-11.9-33.68-17.12-11.61-4.94-23.8-8.13-35.71-12.78-10.74-4.35-21.48-9-32.51-13.06L1228,142.8l-7.85,16.26-6.09-13.93c-10.16-22.93-27.29-41.8-48.48-55.15a115.49,115.49,0,0,0-16.84-8.71l-1.16-.58-.87-.58a101.89,101.89,0,0,0-15.39-11.61c-18.87-12.19-40.64-19.44-63-20h-3.19l-2-2.61a101.37,101.37,0,0,0-72-35.41,168.53,168.53,0,0,0-17.12,0l-1.45.29-1.17-.58a110.66,110.66,0,0,0-47.61-5.22l-2.32.28-3.77.59-1.16-.3A3.15,3.15,0,0,0,915,5.22l-1.17-.28-1.45-.3a122.19,122.19,0,0,0-30.77-2,120,120,0,0,0-14.52,1.74l-1.45.58-1.74-.58c-3.77-.88-7.55-1.74-11.32-2.33a183.92,183.92,0,0,0-21.77-2,103,103,0,0,0-28.16,3.77,86.65,86.65,0,0,0-20.32,7.84l-3.2,1.45L776,11.61a105.32,105.32,0,0,0-50.8-10.45,9.87,9.87,0,0,1-2.9.29h-.87a157.52,157.52,0,0,0-16.55,0c-2.32.29-4.94.29-7.26.58h-1.16L695,2.32,681.92,4.07a109.88,109.88,0,0,0-23.8,6.09l-1.75.58-2-.29a14.72,14.72,0,0,0-3.49-.58A118.17,118.17,0,0,0,618.93,9h-.87a142.54,142.54,0,0,0-15.39,1.16,154,154,0,0,0-34,9,102.88,102.88,0,0,0-40.65,29.9l-2.61,3.48-4.35-1.16c-31.94-7.55-65-.3-92.9,17.12a116.12,116.12,0,0,0-15.1,11.61l-1.16.58-.87.58A115.49,115.49,0,0,0,394.23,90c-24.38,15.38-44.13,36.86-53.12,64.43l-1.16,3.2L299,173c-11.32,4.07-22.93,8.13-34.26,12.78-11.61,4.64-22.35,11.61-34,16.83-11.32,4.93-23.22,9.29-34.54,14.8-11.62,5.23-22.94,10.45-34.26,16.26-10.74,5.51-21.19,11.61-31.64,17.41l-.29.29h-.29c-12.2,5.23-24.1,9.29-35.71,16-11.32,6.68-21.49,15.1-32.51,22.07L0,328l20,69.95c7.26,25,18.58,42.67,37.74,60.08l.29.29.29.58c3.2,4.07,6.39,7.84,9.87,11.61l2.62,3.2-1.46,3.77a183.48,183.48,0,0,0-5.51,21.77C62.12,509.4,59.8,519.85,58.06,530l-.29.29v.58c-7.55,25-9.29,43.53-4.06,69.37L80.42,733.19l103.34-60.66,33.39,77.2L308,705.9a110.69,110.69,0,0,0,12.78-7.26l24.38-13.93-14.81,23.8a5.81,5.81,0,0,1-.87,1.45c-18.57,30.77-20,67.34-4.35,99.56C342.56,844.64,376.82,867,416,868.44a166.54,166.54,0,0,0,68.22-11.31l1.45-.59,2,.29a104.11,104.11,0,0,0,82.74-26.12c2.9-2.61,5.51-5.22,8.13-7.83l1.74-1.75,2.32-.29a124.75,124.75,0,0,0,38.9-13.93l1.74-.87h2.33c16,1.74,31.93,0,47.61-4.35l3.77-.88,2.9,2.91c29.32,29.32,66.48,51.95,108,58l13.94,2,13.93-2c41.81-6.1,79-29,108.58-58.63l2.9-2.91,4.06,1.17A126.13,126.13,0,0,0,980.07,806h2l2,.87a124.75,124.75,0,0,0,38.9,13.93l2.32.29,1.46,1.75c2.6,2.61,5.22,5.22,8.12,7.83,22.94,20.32,52.55,29.9,83,26.12l1.74-.29,1.74.59c21.78,8.7,44.71,12.18,68.22,11.31a104.59,104.59,0,0,0,90.58-58.92c16-32.22,14.22-68.79-4.07-99.56a6.07,6.07,0,0,1-1.16-1.74l-12.19-19.44,20.9,9.29c6.1,2.61,12.2,5.51,18.29,8.41Z" fill="#fff" fill-rule="evenodd"/><polygon points="283.62 312.31 217.15 415.94 336.17 366.59 328.33 272.26 283.62 312.31" fill="#fff"/><polygon points="1293.88 279.23 1281.11 273.71 1276.17 330.89 1272.98 363.11 1390.26 416.81 1293.88 279.23" fill="#fff"/><path d="M690.05,680.06l.87-.86c4.07.86,8.42,1.74,12.49,2.9a242,242,0,0,1,24.67,7.84l18.58-3.48-2.61-7.84q-11.32-4.8-23.52-8.71a5.57,5.57,0,0,0-1.16-3.48c-11.32-21.19-30.19-42.38-55.74-43.83-5.22-.29-9,5.8-7.54,10.45,5.22,13.93,16.83,21.18,28.15,28.73a259.22,259.22,0,0,0-56-2.61,1,1,0,0,0-.29-.58c-13.94-18-33.68-30.19-56.9-30.48-7-.29-10.45,9.58-5.23,13.93,10.74,9,23.22,14.23,35.71,19.74A252,252,0,0,0,553,673.39c-18-11.9-41.23-26.12-63.29-18.57-5.51,1.74-8.13,9.57-3.19,13.64,10.74,9,23.8,14.22,37.45,16.83a229.39,229.39,0,0,0-26.13,14.22l-.87-.87a65.94,65.94,0,0,0-54.29-15.38c-7,.87-9.87,8.42-4.93,13.94,9,10.16,24.09,16.54,38.61,17.12-.29.29-.29.29-.58.29-25.55,4.93-50.23,23.51-63.58,45.28-3.48,5.8,1.74,11.9,7.55,12.19,33.38,1.16,54.58-17.12,67.93-46.15l.29-.29c3.19-2.61,7-5.23,10.45-7.55-4.93,11-6.67,23.22-6.39,35.41.3,7.55,9,9.87,13.94,5.23C520.52,746,524.58,721.29,526.32,703a1.29,1.29,0,0,0,0-1.45,254.72,254.72,0,0,1,45.58-17.42c-9.87,8.71-18.29,18.87-20.32,31.93-.87,5.52,2.61,9.87,8.13,9.87,24.09.87,40.93-29.9,48.18-49h0a251.21,251.21,0,0,1,38.91-2.33,75.2,75.2,0,0,0-24.68,20c-2.91,3.78-3.19,10.74,2,12.78,24.39,9.86,49.93-10.46,65.9-27.3Z" fill="#6fbf97"/><path d="M915.33,680.06c-.29-.28-.59-.57-.59-.86-4.35.86-8.41,1.74-12.77,2.9a215.5,215.5,0,0,0-24.38,7.84l-18.87-3.48,2.61-7.84c7.55-3.2,15.68-6.09,23.8-8.71a7.85,7.85,0,0,1,.87-3.48c11.62-21.19,30.49-42.38,56-43.83,4.94-.29,9,5.8,7.26,10.45-4.94,13.93-16.55,21.18-28.16,28.73a261.16,261.16,0,0,1,56.32-2.61c0-.29,0-.58.29-.58,13.94-18,33.68-30.19,56.61-30.48,7-.29,10.45,9.58,5.22,13.93-10.44,9-22.93,14.23-35.41,19.74a257.44,257.44,0,0,1,48.48,11.61c18-11.9,41.22-26.12,63.28-18.57,5.52,1.74,7.85,9.57,3.2,13.64-11,9-23.81,14.22-37.45,16.83a229.39,229.39,0,0,1,26.13,14.22c.29-.29.58-.57.87-.87a65.3,65.3,0,0,1,54-15.38c7.26.87,10.17,8.42,5.23,13.94-9,10.16-24.1,16.54-38.61,17.12a.28.28,0,0,0,.29.29c25.84,4.93,50.51,23.51,63.87,45.28,3.48,5.8-1.74,11.9-7.55,12.19-33.68,1.16-54.58-17.12-68.22-46.15v-.29c-3.49-2.61-7-5.23-10.45-7.55,4.93,11,6.68,23.22,6.09,35.41,0,7.55-9,9.87-13.93,5.23-14.23-12.77-18.58-37.44-20.32-55.73v-1.45a254.72,254.72,0,0,0-45.58-17.42c10.16,8.71,18.58,18.87,20.61,31.93a8.23,8.23,0,0,1-8.41,9.87c-24.1.87-40.94-29.9-48.2-49h0a246.8,246.8,0,0,0-38.9-2.33,76.26,76.26,0,0,1,25,20c2.9,3.78,3.19,10.74-2,12.78-24.39,9.86-49.93-10.46-66.19-27.3Z" fill="#6fbf97"/><path d="M850.59,588.35c-19.74,0-39.48,13.93-48.77,41.51-9.29-27.58-27.29-41.51-44.71-41.51-114.38,0-31.06,166.89,44.71,177.93,75.77-11,160.83-177.93,48.77-177.93Z" fill="#ea4b85"/><path d="M479.87,150.06c-7,4.65-11,14.22-8.13,26.42-9.87-7.84-19.44-8.71-25.83-4.94-41.81,26.71,27.28,68.21,57.48,54.86,25-21.48,17.71-102.46-23.52-76.34Z" fill="#6fbf97"/><path d="M1113.9,171.54c-6.39-3.77-16-2.9-25.84,4.94,2.9-12.2-1.16-21.77-8.13-26.42-41.23-26.12-48.48,54.86-23.52,76.34,30.2,13.35,99.29-28.15,57.49-54.86Z" fill="#6fbf97"/><path d="M1277.92,362.24c-3.49-19.74,2.61-20.32,4.06-40.35,1.16-20,2.61-23.8,2.32-38.89,8.71,11.61,12.49,13.06,23.52,28.73,11.32,15.39,10.45,16.26,21.77,31.64,11,15.39,10.45,16,21.48,31.64,11.32,15.38,16.55,12.48,24.68,29.89-10.16-5.22-22.65-9.28-33.39-14.51-10.45-4.93-20.32-11.32-31.06-16-10.45-4.64-22.35-7.84-33.38-12.19Zm-953.07-81c1.16,15.38.58,20.61,1.74,40.63,1.45,20,5.52,20,2,40.06-11,4.35-19.74,10.74-30.19,15.38-10.74,4.94-21.77,8.71-32.22,13.65-10.45,5.22-21.2,9.57-31.35,15.09,8.13-17.41,9.28-17.13,20.32-32.51,11.32-15.67,13.06-14.22,24.38-29.61,11-15.67,16.84-12.77,23.81-30.47,7.84-20.61,11.61-19.74,21.48-32.22ZM1435.26,452.51c3.78-16.25,10.74-13.06,20.61-26.7,9.58-13.65,10.45-13.36,20-27,9.87-13.64,11.9-12.48,16.84-28.44-9.87-6.39-18.58-11-28.74-17.13-9.87-5.81-19.45-12.48-29.9-18-10.16-5.52-21.77-8.71-32.23-13.94-10.16-5.22-19.73-12.47-30.48-17.41-10.45-4.94-20.32-11-31.06-16-10.74-4.65-22.35-7.26-33.09-11.61s-19.17-8.13-30.19-12.2c-7,14.23-4.94,14.52-6.1,30.19-1.16,16,2.32,16.26,1.45,31.93-1.16,16,3.77,18-3.2,32.22-11.32-4.36-24.38-7.55-36-11.61-11.32-4.07-22.94-7.26-34.55-11s-22.93-8.12-34.54-11.61c-11.62-3.19-22.65-9.86-34.26-12.76-11.9-2.91-24.68-1.74-36.58-4.36s-23.22-7-35.12-9.29-24.39-2.32-36.29-4.35-23.52-6.38-35.71-8.13c-11.9-1.45-23.81-5.51-36-6.67-11.9-1.45-24.38.87-36.57-.29-12.2-.88-24.1-2.33-36.29-2.9s-24.39-.88-36.58-1.17-24.39-1.16-36.58-1.16-24.1,2.9-36.29,3.2-24.67-3.78-36.57-3.2c-12.2.58-24.1,4.94-36.29,5.81-12.19,1.16-24.1,2.61-36.29,4.06s-24.39,1.45-36.29,2.9c-12.19,1.74-24.09,3.49-36,5.52-12.19,2-24.09,3.48-36,5.8s-24.09,4.94-35.7,7.55c-11.91,2.61-23.52,6.68-35.42,9.58-11.61,2.9-24.1,4.06-35.71,7.54-11.61,3.2-22.35,9.87-34,13.65s-23.52,6.09-34.84,10.15c-11.61,4.07-21.19,6.68-32.51,11-7-13.93-.87-14.8-1.74-30.76-1.17-15.68-2.32-15.68-3.49-31.35-.87-16,2.62-16.83-4.35-31.06-11,4.06-20.9,7.26-31.65,11.61-11,4.65-20.9,11.32-31.35,16-10.74,4.64-21.77,8.42-32.51,13.35-10.45,5.23-21.19,9.87-31.36,15.38-10.44,5.23-20.61,11.32-30.76,16.84s-22.07,8.12-32.23,13.93c-10.16,6.09-20,14.22-29.9,20.32,4.64,16.25,10.74,13.35,20.61,27s11.61,12.48,21.19,26.12c9.87,13.65,13.93,12.2,17.71,28.74,3.77,16-.58,16.25-3.48,32.51-2.91,16-7.26,15.09-10.17,31.35-2.9,16-3.19,16-6.09,31.92s-7.55,16.84-4.36,32.8c11-6.67,23.52-12.19,34.84-18.28s22.64-11.9,34.26-17.71,21.48-11.61,33.09-17.12c9.58,21.19,4.65,22.34,7.84,45.27s-1.74,24.09,7.55,45.28c11-5.22,20.32-11.61,31.64-16.83,11.32-4.94,24.1-6.39,35.71-11,11.32-4.35,22.64-9.87,34.25-13.93,11.62-4.35,22.65-9.58,34.55-13.35,11.9-4.07,23.23-8.71,35.42-12.19,11.61-3.2,23.8-6.39,35.7-9.29,11.91-3.2,24.1-6.1,36.29-9,11.91-2.61,24.1-4.65,36.29-7.25,12.19-2.33,24.38-3.2,36.87-5.23,12.19-2,24.1-5.51,36.29-7.26s25-.29,37.16-1.45c12.48-1.45,24.38-5.51,36.86-6.39,12.2-1.16,24.68-1.16,37.16-2,12.19-.58,24.68-.29,36.87-.58,12.48-.29,24.68-2.32,37.16-2.32s25-.87,37.16-.29c12.48.29,25,2.61,37.16,3.19,12.48.59,24.67,2.33,36.87,3.49,12.48.87,25,.58,37.15,1.74,12.49,1.45,24.68,3.77,36.87,5.22,12.2,1.75,24.39,4.65,36.58,6.68s24.1,5.8,36.29,8.12,25,1.75,36.87,4.65c12.19,2.61,24.38,4.94,36.29,8.13s22.93,9.87,34.83,13.35,24.1,5.81,35.71,9.57c11.9,3.78,23.22,8.72,34.84,13.07s24.67,4.93,36,9.58c11.62,4.64,22.07,11.9,33.39,16.83,11.32,5.23,22.93,10.16,34,15.68,9-21.48,2.62-23.22,5.81-46.16s-2.9-25,6.38-45.85c11.91,5.22,24.68,9.28,36,14.8,11.61,5.8,22.65,12.48,34,18.58s21.19,13.34,32.23,20c3.19-16-3.49-15.67-6.39-31.63-2.91-16.26-2.61-16.26-5.52-32.23-2.9-16.25,2.32-17.7-2.61-33.08-5.22-16-12.48-15.68-8.71-31.64Z" fill="#ea4b85"/><path d="M513.26,393a56.38,56.38,0,0,1-.87-13.94,31.39,31.39,0,0,0,0-7.25,5.84,5.84,0,0,0-4.94-4.93,21.23,21.23,0,0,0-4.35-.3c-4.36.3-7,2.91-7.84,7.26a18.77,18.77,0,0,0-.29,7v2.32a19.29,19.29,0,0,1,.29,4.07v2.61c0,2,.29,4.07.29,6.1v2.9a14.12,14.12,0,0,0,.29,3.48,32.87,32.87,0,0,1,0,7.55,40.67,40.67,0,0,0-.58,10.45v3.48a3.66,3.66,0,0,1-.29,1.74,2,2,0,0,1-2.91.88,5.38,5.38,0,0,1-1.45-2,76.8,76.8,0,0,1-5.22-11A57,57,0,0,0,479,400a15.62,15.62,0,0,1-2-3.77c0-.58-.29-.87-.29-1.46-.58-1.73-1.16-3.47-1.75-4.93-1.44-2.32-2.61-4.93-3.77-7.25a22.15,22.15,0,0,0-2-3.49,7.6,7.6,0,0,0-7.26-3.19,13,13,0,0,0-3.19.29,14.14,14.14,0,0,0-3.19,1.16,5.08,5.08,0,0,0-3.19,4.94,8.33,8.33,0,0,0,.28,2.61,15.1,15.1,0,0,0,2.61,5.8,12.19,12.19,0,0,1,1.75,4.06,38.12,38.12,0,0,0,6.1,13.07,26.31,26.31,0,0,1,3.77,7.55c.29.28.29.58.58,1.16.87,1.74,1.45,3.77,2.32,5.8,1.74,3.49,3.2,7.26,4.65,11a30.74,30.74,0,0,0,2.32,4.36,50.39,50.39,0,0,1,2.9,5.51,48.36,48.36,0,0,1,4.94,13.64,12.09,12.09,0,0,0,2,4.36,26.7,26.7,0,0,1,3.77,7,23,23,0,0,0,4.07,6.68,8,8,0,0,0,6.67,2.32,22.76,22.76,0,0,0,6.39-1.45,7.86,7.86,0,0,0,5.22-5.23,21.4,21.4,0,0,0,1.17-7.54c-.29-3.2-.29-6.68-.29-10.16v-1.74a46.66,46.66,0,0,1,0-9,11,11,0,0,0,0-4.35,68.37,68.37,0,0,1-.29-7.55,62.69,62.69,0,0,0-.29-12.77,24.15,24.15,0,0,1,.29-10.16A39.06,39.06,0,0,0,513.26,393Z" fill="#fff"/><path d="M603.25,438.58V438a77.07,77.07,0,0,0-4.06-10.45,44.9,44.9,0,0,1-4.94-10.74,16.62,16.62,0,0,0-1.45-4.06,53.6,53.6,0,0,1-3.19-7.55,31.83,31.83,0,0,0-2-5.52c-.3-.87-.3-1.45-.58-2a23.62,23.62,0,0,0-4.07-9.58,24,24,0,0,1-3.48-7.83,41.94,41.94,0,0,0-2-6.39c-.58-1.45-1.16-2.61-1.74-4.06a37.27,37.27,0,0,0-4.93-9.58c0-.29-.29-.58-.29-.87a9.49,9.49,0,0,0-4.36-3.19,11.88,11.88,0,0,0-6.1.87,10.34,10.34,0,0,0-5.51,3.19,12.61,12.61,0,0,0-1.16,2,18.75,18.75,0,0,0-1.16,5.8,31,31,0,0,1-.87,7.26A25,25,0,0,0,551,380a20.35,20.35,0,0,1-.29,7.25,21.78,21.78,0,0,0-.58,6.1,73.9,73.9,0,0,1-.59,8.12,16.62,16.62,0,0,0-.29,3.78,27.93,27.93,0,0,1-.87,9.87,9.83,9.83,0,0,0-.29,2.89c-.29,5.52-.87,10.75-1.45,16v.29c0,.29-.29.87-.29,1.16a38.19,38.19,0,0,0-.29,8.13,14.12,14.12,0,0,1,.29,3.48c-.29,3.2-.58,6.68-1.16,10.16v.29a8.59,8.59,0,0,0-.58,2.91,7.11,7.11,0,0,0,1.74,4.64,6.3,6.3,0,0,0,5.23,1.45,19.25,19.25,0,0,0,5.8-1.74,6.78,6.78,0,0,0,4.36-4.94,17.4,17.4,0,0,0,.58-6.67,6.39,6.39,0,0,1-.29-2.32v-.29a6.94,6.94,0,0,1,5.8-7.26h.88a74.18,74.18,0,0,1,7.83-1.45,1,1,0,0,1,.59-.29c.57,0,1.15-.29,1.73-.29a7.91,7.91,0,0,1,7,2.61,21.64,21.64,0,0,1,4.36,7,2.61,2.61,0,0,0,.29,1.45,22,22,0,0,0,1.16,3.19,5.61,5.61,0,0,0,4.06,3.19,19,19,0,0,0,8.13.58c2.32-.58,3.49-1.74,3.77-4.06a8.11,8.11,0,0,0-.86-5.22A83.06,83.06,0,0,1,603.25,438.58Zm-29.32-13.65c-.87,0-1.45.29-2.33.29v.29h-2.89c-2.62-.29-3.78-1.74-4.07-4.35a22,22,0,0,1,.29-4.35,19.55,19.55,0,0,0,.87-8.13,8.4,8.4,0,0,1,.29-3.78c.58-1.15,1.16-1.73,2-1.73a2.8,2.8,0,0,1,2.62.58,9.59,9.59,0,0,1,1.45,1.74c.58,1.16,1.16,2.9,1.74,4.35a58.55,58.55,0,0,0,2.61,9.58C577.41,422,576.54,424.06,573.93,424.93Z" fill="#fff"/><path d="M677,436.54a8.74,8.74,0,0,0-2.62-.57h-.57a58.62,58.62,0,0,0-7.26,0,35.64,35.64,0,0,1-5.52.57,37.78,37.78,0,0,0-5.81.3h-.28c-3.2,0-5.23-1.46-6.1-4.36a43.26,43.26,0,0,1-.58-6.09A67.21,67.21,0,0,0,647.09,413a19,19,0,0,1-.88-7c0-1.45.3-2.61.3-4.07,0-3.19-.3-6.09-.58-9,0-.59-.3-1.46-.3-2-.29-1.75-.57-3.78-.87-5.81a33.69,33.69,0,0,1-.87-10.74,10.85,10.85,0,0,0-.58-5.23,23.21,23.21,0,0,1-.87-9,14.86,14.86,0,0,0-1.16-7.84c-1.74-4.06-4.35-5.51-8.42-5.23h-.29v.29a7.27,7.27,0,0,0-6.38,3.49,11.27,11.27,0,0,0-1.17,5.23c.29,1.74.59,3.19.87,4.93.3,1.16.58,2.32.87,3.77.3,2.91.59,6.1.59,9a62.18,62.18,0,0,0,0,14.81,31.3,31.3,0,0,0,1.74,7.54,18.75,18.75,0,0,1,1.16,5.8,10.94,10.94,0,0,1,.29,3.2,16.54,16.54,0,0,0,.29,3.77,56.07,56.07,0,0,1,0,9.87A27.25,27.25,0,0,0,632,429.58a36.54,36.54,0,0,1,1.45,9.58,24.8,24.8,0,0,1,0,4.64,11.85,11.85,0,0,0,2.32,7,5.86,5.86,0,0,0,2.91,2.32,23.33,23.33,0,0,0,9,1.16c.58,0,1.16-.29,1.74-.29l6.09-.87a3.7,3.7,0,0,0,1.75-.29h.87c.58,0,.87,0,1.16-.29a35.48,35.48,0,0,1,7.84-.29,22.24,22.24,0,0,0,8.71-1.74,5,5,0,0,0,3.19-3.2,16.88,16.88,0,0,0,.87-5.51A5.09,5.09,0,0,0,677,436.54Z" fill="#fff"/><path d="M751.31,432.19a3.72,3.72,0,0,0-1.75-.29,4.3,4.3,0,0,0-2-.29c-1.16,0-2.32-.29-3.77-.29a37,37,0,0,0-11.32,0,20.65,20.65,0,0,1-7.26-.29,4.64,4.64,0,0,1-3.49-4.06,5.15,5.15,0,0,1-.28-2v-1.45a32,32,0,0,0-.59-5.22v-1.74c0-2.9.29-5.52.29-8.42.3-3.2,1.74-4.93,4.94-5.51a23.64,23.64,0,0,1,7.84-.59,53.6,53.6,0,0,0,6.67-.29,9,9,0,0,0,3.78-.87,7,7,0,0,0,3.77-5.22,10.83,10.83,0,0,0-1.45-6.68,7.92,7.92,0,0,0-3.48-2.61,25.5,25.5,0,0,0-10.45-.58,35.29,35.29,0,0,1-5.52.29,7.87,7.87,0,0,1-4.93-1.74,6.83,6.83,0,0,1-2.62-4.64,21.9,21.9,0,0,1,0-4.36,35.1,35.1,0,0,0-.29-5.51,20.34,20.34,0,0,1,0-7.26,5,5,0,0,1,4.94-4.35,32,32,0,0,1,5.22-.58h.58c1.17,0,2.33-.3,3.49-.3a63.89,63.89,0,0,1,10.45-1.15,13.57,13.57,0,0,0,3.19-.88,5,5,0,0,0,2.91-2,6.66,6.66,0,0,0,1.16-4.06,14.42,14.42,0,0,0-.87-4.64q-1.76-4.8-7-4.36a31.58,31.58,0,0,0-5.23.29c-2.61,0-5.51,0-8.42-.29a17.56,17.56,0,0,0-5.51,0h-3.2c-4.64.58-9,1.16-13.35,1.74a7,7,0,0,0-6.39,7.26,21.42,21.42,0,0,0,0,6.09V357a16.42,16.42,0,0,0,.87,5.22,37.92,37.92,0,0,1,1.17,15.09,6.26,6.26,0,0,1-.3,2.33,61.43,61.43,0,0,0,0,10.15c.3,2.32.3,4.65.59,6.68v5.8a22.38,22.38,0,0,0,.58,4.36,11.71,11.71,0,0,1,.28,5.51,18.92,18.92,0,0,0,.3,9,23.83,23.83,0,0,1,.58,6.39,14.37,14.37,0,0,0,0,6.09,26,26,0,0,1,.87,6.39c.29,1.16.29,2,.58,3.19v.29c.29,3.19,2,4.64,4.93,4.94a34.54,34.54,0,0,1,5.52.28c2.32,0,4.35.29,6.68.29a54.12,54.12,0,0,0,9.58-.57,69.07,69.07,0,0,1,8.12-.58,16.39,16.39,0,0,0,5.23,0,9.35,9.35,0,0,0,6.09-2.33c2-1.45,2.91-3.77,3.2-7.25C756.24,434.8,754.5,432.77,751.31,432.19Z" fill="#fff"/><path d="M840.14,365.44a20.41,20.41,0,0,0,.29-7.26,27.39,27.39,0,0,1-.29-8.42,17.92,17.92,0,0,0,.29-4.07,6.58,6.58,0,0,0-4.36-5.8,18.92,18.92,0,0,0-7-.58c-2.61.29-4.36,1.74-5.23,4.64,0,.59-.29,1.45-.29,2.61v1.17a38.72,38.72,0,0,1,0,5.8v.58a8,8,0,0,0,.29,2.61,87.52,87.52,0,0,1,0,15.1v4.64a56,56,0,0,1,.29,7v2.32a17,17,0,0,1-.58,4.06,2.17,2.17,0,0,1-2,1.74,1.27,1.27,0,0,1-1.45-.28,3.9,3.9,0,0,1-.87-1.17,1.5,1.5,0,0,1-.59-1.16,5.57,5.57,0,0,1-.58-2,7,7,0,0,1-.57-2.32,21.29,21.29,0,0,1-1.17-4.64c-.29,0-.29-.29-.29-.58A43.83,43.83,0,0,0,812,369.2a10.72,10.72,0,0,1-1.45-3.19,80.08,80.08,0,0,0-2.33-7.83,16.69,16.69,0,0,1-.57-2,23.37,23.37,0,0,0-1.75-6.39,10.21,10.21,0,0,1-1.16-2.62,40.5,40.5,0,0,0-2.61-4.93,6.15,6.15,0,0,0-5.52-3.48,16.61,16.61,0,0,0-8.42,1.16,5.09,5.09,0,0,0-1.45,1.16c-2,1.74-2.61,4.06-2.61,6.68A49.22,49.22,0,0,1,784.4,359a22.06,22.06,0,0,0-.29,7.55,37.85,37.85,0,0,1-.29,12.78c-.58,2.61-.29,5.22,0,8.12a29.42,29.42,0,0,1,.58,8.71v1.45a32.94,32.94,0,0,1-.29,9.29,28.6,28.6,0,0,0-.87,7,76.27,76.27,0,0,1,.29,8.13,14.22,14.22,0,0,0,.29,4.94,13,13,0,0,1,0,6.67,10.08,10.08,0,0,0,.87,8.13,6.13,6.13,0,0,0,4.07,3.48,8.46,8.46,0,0,0,4.64-.29,6.71,6.71,0,0,0,5.51-4.06,10.52,10.52,0,0,0,.87-7.26,41.36,41.36,0,0,1,.3-13.35,14.42,14.42,0,0,0,0-7,13.62,13.62,0,0,1,0-4.93,12.41,12.41,0,0,0,.29-7.26,2.48,2.48,0,0,1,0-2,1.92,1.92,0,0,1,1.74-2,1.94,1.94,0,0,1,2.32.87,4.67,4.67,0,0,1,1.16,2c.29.87.58,2,.87,2.91,0,.58.29.87.29,1.15.29.87.58,1.75.88,2.91a24.12,24.12,0,0,1,1.15,4.35,87.16,87.16,0,0,0,3.78,13.07,14,14,0,0,1,1.16,3.19c.29.87.87,2,1.16,2.9.58,1.45.87,2.61,1.45,4.06a21,21,0,0,0,2.62,5.81A7.28,7.28,0,0,0,825,445a35.43,35.43,0,0,0,7.84,0,8,8,0,0,0,2.61-.29,10.42,10.42,0,0,0,2.9-2,4.94,4.94,0,0,0,.59-3.48,35.48,35.48,0,0,1,.29-7.84,32.29,32.29,0,0,0,.58-4.93,56.07,56.07,0,0,1,0-9.87,38.93,38.93,0,0,0,.29-5.81,57.1,57.1,0,0,1,0-12.19v-.87a70.85,70.85,0,0,0,.29-7.84v-.87c0-.58-.29-1.16,0-1.74v-4.93a8.94,8.94,0,0,0,.29-2.9,56.6,56.6,0,0,0-.58-6.68A15.32,15.32,0,0,1,840.14,365.44Z" fill="#fff"/><path d="M923.74,342.79a43.41,43.41,0,0,1-6.09-.58,43.41,43.41,0,0,0-6.1-.58,35.34,35.34,0,0,0-7.83,0,31.37,31.37,0,0,1-9-.58,17.47,17.47,0,0,0-6.68-.58,30,30,0,0,1-4.94-.29h-4.64c-3.2.29-4.94,2-5.52,5.22a21.42,21.42,0,0,0,1.17,7.55,4.35,4.35,0,0,0,3.19,3.49,17.58,17.58,0,0,0,3.77.58,3.57,3.57,0,0,0,1.74-.3,22.82,22.82,0,0,1,4.65.3c4.06.58,5.8,2.9,5.52,7a85,85,0,0,0-1.46,12.48v1.74c0,2.33.29,4.93.29,7.26v.29a9,9,0,0,1,.29,2.91,54.56,54.56,0,0,1-1.45,9.57,33.52,33.52,0,0,0-.87,7.55,49.78,49.78,0,0,1-.29,9.29,3.66,3.66,0,0,0-.29,1.74,25.54,25.54,0,0,0-.58,4.93v18a14.17,14.17,0,0,0,.87,6.1,4.7,4.7,0,0,0,4.64,2.9c1.17,0,2-.28,3.2-.28a.88.88,0,0,0,.58-.3,5.84,5.84,0,0,0,5.51-4.64,29.25,29.25,0,0,0,1.45-7c0-2.9.3-5.8.59-8.7a28.12,28.12,0,0,0,.28-7v-4.93a32.19,32.19,0,0,1,.88-5.52,21.58,21.58,0,0,0,.58-7.54V402a42.83,42.83,0,0,1-.29-6.09c.29-.87.29-1.74.58-2.61a5.65,5.65,0,0,0,.29-2.32,79,79,0,0,0,1.16-11.61c0-1.46.29-3.2.29-4.65a28.6,28.6,0,0,0,.87-7,18,18,0,0,0,.29-3.78,4.92,4.92,0,0,1,4.35-4.06h4.07a23.9,23.9,0,0,0,6.39-.58,5.87,5.87,0,0,0,4.93-4.65,14.56,14.56,0,0,0,.58-6.09C930.13,344.54,927.81,342.5,923.74,342.79Z" fill="#fff"/><path d="M975.42,347.73a12,12,0,0,0-5.52-.59,6.89,6.89,0,0,0-4.35,2.62,10.17,10.17,0,0,0-1.74,4.06,70.26,70.26,0,0,0-1.46,13.64,86.18,86.18,0,0,1-1.15,8.71,23.91,23.91,0,0,0-.59,7.84,26.19,26.19,0,0,1-.28,6.67,14.16,14.16,0,0,0-.88,3.78c0,2.9-.29,5.8-.29,8.71v1.45a63.32,63.32,0,0,1-1.16,7.26,36.56,36.56,0,0,0-1.16,8.12,16.88,16.88,0,0,1-.87,5.51c-.29,2-.58,3.78-.87,5.81a15.32,15.32,0,0,1-.29,3.77,28.1,28.1,0,0,0,0,4.94,14.05,14.05,0,0,1,0,4.93v2.91c.29,2.61,1.45,4.35,3.77,5.22a11.44,11.44,0,0,0,5.23,1.16c2.9.29,4.93-1.16,6.09-3.77l.87-3.49c.3-2,.58-3.77.88-5.8a31.78,31.78,0,0,0,.87-12.77,30.6,30.6,0,0,1-.3-5.23c.3-2,.59-4.06.88-6.38.29-1.45.58-3.19.87-4.93a1.08,1.08,0,0,1,.29-.88v-.29a40.91,40.91,0,0,0,1.16-5.81c0-.87.29-1.73.29-2.61V400a29.21,29.21,0,0,0,.29-8.7,32.37,32.37,0,0,1,.87-7.84.29.29,0,0,1,.29-.3,62.8,62.8,0,0,0,1.16-7.25c0-1.45.29-3.19.29-4.64,0-.59.29-1.45.29-2v-1.44a93.18,93.18,0,0,1,1.45-12.49C980.65,351.21,979.2,348.6,975.42,347.73Z" fill="#fff"/><path d="M1068.9,362a13.26,13.26,0,0,0-6.39-1.74,6.05,6.05,0,0,0-6.1,3.77c-.29.87-.29,1.74-.58,2.61a1.77,1.77,0,0,1-.29,1.17c-.29,2-.58,3.77-.87,5.8v.58c0,.87-.29,1.45-.29,2.32a65.4,65.4,0,0,1-2.32,15.09c-.29,1.46-.29,2.62-.58,4.07v.58a56.64,56.64,0,0,1-.58,7,1,1,0,0,0-.29.58,3.7,3.7,0,0,1-.29,1.74,8.22,8.22,0,0,1-1.16,3.77,3,3,0,0,1-2.33,1.74,1.47,1.47,0,0,1-1.15-.58c-.59-.58-.88-.87-.88-1.45a1.74,1.74,0,0,1-.29-1.16,6.39,6.39,0,0,1-.29-2.32,5.7,5.7,0,0,1-.29-2.32c-.29-1.46-.29-2.91-.58-4.65v-.58a44.73,44.73,0,0,0-2.61-10.74l-.87-3.48a73.08,73.08,0,0,0-1.17-7.84,4.44,4.44,0,0,0-.28-2,13.06,13.06,0,0,0-.87-6.68c-.3-1.16-.3-2-.59-2.9l-1.74-5.23a6.79,6.79,0,0,0-4.93-4.35,22,22,0,0,0-8.71,0,6.57,6.57,0,0,1-1.45.87,7.29,7.29,0,0,0-3.49,6.39,35.12,35.12,0,0,1-1.74,11,21.64,21.64,0,0,0-1.16,7.55,38,38,0,0,1-2.32,12.48,25,25,0,0,0-1.16,8.12,22.34,22.34,0,0,1-.87,8.71v1.45a34,34,0,0,1-2,9,59.13,59.13,0,0,0-1.45,7c-.29,2.61-.87,5.22-1.16,7.83a14.22,14.22,0,0,0-.29,4.94,15.61,15.61,0,0,1-1.16,6.38c-1.16,2.91-1.45,5.81-.29,8.42a6.13,6.13,0,0,0,3.48,4.06,11.91,11.91,0,0,0,4.65.59,6.83,6.83,0,0,0,6.09-3.49,11.51,11.51,0,0,0,2-7,32.14,32.14,0,0,1,2-13,11.91,11.91,0,0,0,1.16-7,10,10,0,0,1,.87-4.94,14.15,14.15,0,0,0,1.16-7,4.28,4.28,0,0,1,.29-2,2.44,2.44,0,0,1,2-2,3,3,0,0,1,2.32,1.45c.28.58.57,1.45.87,2,0,1.16.29,2.32.29,3.19v1.16c.29.87.29,2,.58,2.9a25.49,25.49,0,0,1,.58,4.65,55,55,0,0,0,1.74,13.64c.29.87.29,2,.58,3.19a10.37,10.37,0,0,1,.58,2.9,11.73,11.73,0,0,1,.87,4.36,48,48,0,0,0,1.74,6.09,7.24,7.24,0,0,0,5.23,5.52,36.6,36.6,0,0,0,7.84,1.16,9.67,9.67,0,0,0,2.9,0,4.42,4.42,0,0,0,2.9-1.74c.87-.58,1.16-1.74,1.16-3.19a37.79,37.79,0,0,1,1.45-7.84,12,12,0,0,0,1.17-4.64,55.31,55.31,0,0,1,1.74-9.58,22.15,22.15,0,0,0,.87-6.1,54.29,54.29,0,0,1,2-11.61c0-.58,0-.87.29-1.16.58-2.32.88-4.93,1.45-7.54v-2.62a24.55,24.55,0,0,0,1.17-4.93c0-.87.28-1.74.28-2.62A26.65,26.65,0,0,0,1068,395a19.83,19.83,0,0,1,1.16-7.26,15.5,15.5,0,0,0,1.45-7.25,25,25,0,0,1,.87-8.13,11.39,11.39,0,0,0,.87-4.07A6,6,0,0,0,1068.9,362Z" fill="#fff"/><path d="M1151.34,378.49a39.54,39.54,0,0,0-4.93-1.16,46.6,46.6,0,0,1-8.42-2.61,34.85,34.85,0,0,0-5.23-1.45c-.29,0-.58-.29-.87-.29-.87-.29-1.45-.29-2.32-.58-4.35-.58-9-1.16-13.35-1.75a6.49,6.49,0,0,0-4.65.88,8.38,8.38,0,0,0-3.48,4.35,34,34,0,0,0-1.45,5.81c-.29.58-.29,1.16-.59,1.74a33.07,33.07,0,0,0-.57,5.23,38.85,38.85,0,0,1-2.91,15.09,17.85,17.85,0,0,0-.58,2,38.59,38.59,0,0,0-2.9,9.86,50.26,50.26,0,0,1-1.45,6.39v.29c-.29,1.74-.87,3.49-1.16,5.23a21.63,21.63,0,0,0-.87,4.35,11.77,11.77,0,0,1-1.17,5.51,19.17,19.17,0,0,0-2,8.72,15.8,15.8,0,0,1-1.45,6.38,18.93,18.93,0,0,0-1.45,5.8,43.58,43.58,0,0,1-.58,6.39,15.07,15.07,0,0,0-.58,3.19v.29c-.58,3.19.58,5.23,3.48,6.1l5.22,1.74a50.69,50.69,0,0,0,6.1,2,38.45,38.45,0,0,0,9.29,2,37.26,37.26,0,0,1,8.13,1.74,36.13,36.13,0,0,0,5.23,1.46,9.74,9.74,0,0,0,6.38-.58c2.33-.88,4.07-2.91,4.94-6.1.87-3.49,0-5.8-2.9-7.55a4.21,4.21,0,0,0-1.75-.58l-1.74-.87a17.74,17.74,0,0,1-3.48-1.45,47.55,47.55,0,0,0-11-2.9,16,16,0,0,1-7-2,4.91,4.91,0,0,1-2.32-4.94c0-.58.29-1.45.29-2a2.17,2.17,0,0,0,.29-1.45,30.34,30.34,0,0,0,1.16-4.93,5,5,0,0,1,.29-2l2.61-7.83c.87-2.91,2.91-4.36,6.1-4.07a24.81,24.81,0,0,1,7.83,1.45c2,.59,4.36,1.16,6.39,1.75a8.58,8.58,0,0,0,3.78,0,6,6,0,0,0,5.22-4.07,11.34,11.34,0,0,0,.29-7,9,9,0,0,0-2.61-3.2,30.89,30.89,0,0,0-9.87-3.48,17,17,0,0,1-5.52-1.16,8.14,8.14,0,0,1-4.06-2.9,6.62,6.62,0,0,1-1.45-5.23,24.16,24.16,0,0,1,1.16-4.35,15.32,15.32,0,0,0,1.16-5.23,21.12,21.12,0,0,1,2-7,5,5,0,0,1,5.81-2.91,16.71,16.71,0,0,1,5.22.87h.87c.87.3,2,.58,3.2.87,3.48.3,7,.88,10.45,1.46a11.9,11.9,0,0,0,3.19.29,6.05,6.05,0,0,0,3.49-1.45,7.43,7.43,0,0,0,2.32-3.49,23.44,23.44,0,0,0,.29-4.64C1156.28,381.11,1154.54,379.07,1151.34,378.49Z" fill="#fff"/><path d="M661.6,172.12a26.87,26.87,0,0,0-4.93-8.42,6.45,6.45,0,0,1-1.46-3.19,9.72,9.72,0,0,1,.59-4.06c.29-.58.57-1.16.87-1.74a8.57,8.57,0,0,0,.87-2.91,16.35,16.35,0,0,0,1.16-3.48c.29-.87.58-2,.87-2.9a15.83,15.83,0,0,0,0-5.23,1.07,1.07,0,0,1-.29-.87,14.36,14.36,0,0,1-1.16-3.77,82.63,82.63,0,0,0-3.49-11.32,15.41,15.41,0,0,0-7.83-8.71l-4.36-2.61v-.29a17.3,17.3,0,0,0-6.68-2.9,28.88,28.88,0,0,0-8.7.28,11.64,11.64,0,0,1-5.52.59,19.51,19.51,0,0,0-5.81,0,45.36,45.36,0,0,0-10.74,2.9,5.74,5.74,0,0,0-3.19,3.19,19,19,0,0,0-.87,8.13c0,.29.29.58.29.87.29,1.16.29,2.32.58,3.48a31.92,31.92,0,0,1,.87,10.45,26,26,0,0,0,.58,6.68,12.82,12.82,0,0,1,.58,5.8,25,25,0,0,0,.58,6.68,43.59,43.59,0,0,1,.58,5.8,24.71,24.71,0,0,0,1.16,6.68v.58a14.58,14.58,0,0,1,.59,3.48A25.93,25.93,0,0,0,607,180c0,.58.3.87.3,1.45v3.77a19.82,19.82,0,0,0,.87,5.81v.58a14.12,14.12,0,0,1,.58,6.09,35.4,35.4,0,0,0,0,7.84,31.34,31.34,0,0,0,1.45,7.83A6.89,6.89,0,0,0,616.6,218a40.91,40.91,0,0,0,5.81-.29h4.94a61.05,61.05,0,0,0,7.25-.58,34.53,34.53,0,0,1,5.81-1.16c.29-.29.87-.29,1.16-.58a22.23,22.23,0,0,0,13.06-7c.3,0,.58-.29.87-.58a22.92,22.92,0,0,0,4.36-6.1q.87-2.16,1.74-4.35l1.74-5.22a13.53,13.53,0,0,0,.87-5.81c-.29-3.19-.87-6.38-1.45-9.58A36.07,36.07,0,0,0,661.6,172.12Zm-40.06-20.61a8.4,8.4,0,0,1-.58-2.61,71.47,71.47,0,0,0-.58-8.13c-.29-1.74-.29-3.19-.58-4.93v-3.2a4.22,4.22,0,0,1,2.9-4.35,17.24,17.24,0,0,1,9.29-1.16c4.36.58,7.26,2.9,9.29,6.68a4.94,4.94,0,0,1,.29,2,7.21,7.21,0,0,1,.29,2.32,1.07,1.07,0,0,0,.29.87v1.16c0,.87.29,1.74.29,2.33a10.17,10.17,0,0,1-2,6.67,4.49,4.49,0,0,1-2.33,1.74,24.65,24.65,0,0,1-10.73,3.49,4,4,0,0,1-2.61,0A4.57,4.57,0,0,1,621.54,151.51Zm26.13,36.28a20.19,20.19,0,0,1-3.19,6.1,10,10,0,0,1-4.65,3.77,29.88,29.88,0,0,1-7,1.46.28.28,0,0,0-.29.29h-.29a5.08,5.08,0,0,1-5.52-2.62,34.55,34.55,0,0,1-1.74-4.93v-.58a17.83,17.83,0,0,1-.58-8.71,18.37,18.37,0,0,0,0-4.06v-.88a5.1,5.1,0,0,1,1.75-3.77,5,5,0,0,1,3.77-2,11.37,11.37,0,0,1,7.55,1.16l1.74.87c1.16.58,2,1.45,3.19,2A11.91,11.91,0,0,1,648,184.6,5.76,5.76,0,0,1,647.67,187.79Z" fill="#241b2e"/><path d="M738.53,194.18h-1.74a3.68,3.68,0,0,0-1.74-.29c-1.45,0-2.61-.29-3.77-.29a37.09,37.09,0,0,0-11.33,0,15.35,15.35,0,0,1-7.26,0,4.63,4.63,0,0,1-3.77-4.36c0-.57-.29-1.16-.29-1.74v-1.45a32,32,0,0,0-.58-5.22v-1.75c0-2.89.29-5.51.29-8.41,0-3.2,1.74-4.93,4.64-5.81a35.77,35.77,0,0,1,7.84-.58,56,56,0,0,0,7-.29,7.79,7.79,0,0,0,3.49-.87c2.32-.87,3.48-2.9,4.06-5.22a13.51,13.51,0,0,0-1.74-6.68,5.79,5.79,0,0,0-3.49-2.32,25.62,25.62,0,0,0-10.45-.87,32.12,32.12,0,0,1-5.51.58,14.33,14.33,0,0,1-4.94-1.74,6.84,6.84,0,0,1-2.61-4.64,21.9,21.9,0,0,1,0-4.36,33.24,33.24,0,0,0-.29-5.51,20.41,20.41,0,0,1-.29-7.26,5.53,5.53,0,0,1,4.93-4.64c1.74-.3,3.49-.3,5.23-.58h.87a10.87,10.87,0,0,0,3.19-.29A67.71,67.71,0,0,1,731,118.42a5.63,5.63,0,0,0,2.91-.87,4.9,4.9,0,0,0,2.9-2,6.93,6.93,0,0,0,1.45-4.06,27,27,0,0,0-1.16-4.65q-1.74-4.78-7-4.35a26.53,26.53,0,0,0-4.93.29h-8.71a35.22,35.22,0,0,0-5.52-.29,1.74,1.74,0,0,0-1.16.29h-2c-4.65.58-9,1.16-13.35,1.74a6.49,6.49,0,0,0-4.36,2.32,8.23,8.23,0,0,0-2,4.94,23.48,23.48,0,0,0,0,6.38v1.46a32.69,32.69,0,0,0,.87,5.22,39.22,39.22,0,0,1,1.45,15.38,5,5,0,0,1-.29,2,62.75,62.75,0,0,0,0,10.44,47.88,47.88,0,0,1,.58,6.68,35.1,35.1,0,0,1,.29,5.51,22.38,22.38,0,0,0,.58,4.36,18.71,18.71,0,0,1,.29,5.8,17.62,17.62,0,0,0,.3,8.71,16.16,16.16,0,0,1,.57,6.39,21.42,21.42,0,0,0,0,6.09,57.72,57.72,0,0,1,1.16,6.39c0,1.16.29,2.32.29,3.19v.29c.59,3.19,2.33,4.64,5.23,4.93a35.29,35.29,0,0,1,5.52.29c2.32,0,4.35.29,6.38.29,3.49,0,6.39-.29,9.58-.58a26.27,26.27,0,0,1,8.13-.57,35.88,35.88,0,0,0,5.52-.3,10.67,10.67,0,0,0,6.09-2.32c2-1.45,2.91-3.77,3.2-7.25C743.47,197.08,741.72,195.05,738.53,194.18Z" fill="#241b2e"/><path d="M898.78,116.39v-1.45a5.93,5.93,0,0,1,0-3.19v-2c-.29-3.19-1.74-4.94-4.65-5.52a27.1,27.1,0,0,0-6.67-.58,6.21,6.21,0,0,0-4.36,2,11.53,11.53,0,0,0-2.32,2.9,49.61,49.61,0,0,1-4.65,7.84,14.85,14.85,0,0,0-2.9,6.09,41,41,0,0,1-2.9,8.42,74.27,74.27,0,0,0-5.81,13.94c-.28.58-.58,1.45-.87,2a4.57,4.57,0,0,1-2,2,8.47,8.47,0,0,1-2.61.58,4.37,4.37,0,0,1-3.2-3.48c0-.87-.29-1.74-.29-2.9a17.29,17.29,0,0,0-1.45-5.23,13.91,13.91,0,0,1-2.32-4.65l-2.61-11.31c-.58-1.45-1.16-2.9-1.75-4.65-.87-1.74-1.74-3.77-2.61-5.8a5.37,5.37,0,0,0-.58-2l-.87-2.61c-.87-2.9-2.9-4.35-5.81-4.93a71.4,71.4,0,0,0-7.54-.58h-.29a4.36,4.36,0,0,0-2,.29,5.66,5.66,0,0,0-3.77,3.48c0,.87-.29,1.74-.29,2.61v3.19c-.29,3.2-.29,6.1-.29,9.29a37.46,37.46,0,0,1-.29,8.13,14.16,14.16,0,0,0-.29,3.48v.3c-.29.87-.29,1.74-.58,2.9a36,36,0,0,0-.87,7.83v.88a35.1,35.1,0,0,0-.29,5.51c0,1.74-.29,3.19-.29,4.94a59.39,59.39,0,0,0,.29,10.15c0,.29.29.58.29.87a14.13,14.13,0,0,1,0,4.94v2a35.53,35.53,0,0,0-.58,5.51c0,1.17-.29,2.33-.29,3.49a17.21,17.21,0,0,0-.58,6.67v.58c0,3.78,0,7.55-.3,11.33a12.65,12.65,0,0,0,.3,3.48,8.23,8.23,0,0,0,2.61,2.9,19,19,0,0,0,9,1.45,5.38,5.38,0,0,0,3.48-2,4.62,4.62,0,0,0,1.16-4.35,15.68,15.68,0,0,1,.3-6.39v-.58a.28.28,0,0,0,.28-.29c0-1.16.29-2.32.29-3.48a7.86,7.86,0,0,1,.3-2.62,73.18,73.18,0,0,0,.28-7.83V175c0-3.48,0-7.25.3-11v-1.45l-.3-.29a27.38,27.38,0,0,1,.3-4.94c0-1.15.57-1.73,1.74-2.32a2.79,2.79,0,0,1,2.9.88,14.7,14.7,0,0,1,2.61,5.22c1.17,3.19,2.32,6.68,3.19,9.87a14.68,14.68,0,0,0,1.17,3.19,27.6,27.6,0,0,0,2.61,6.1,7.38,7.38,0,0,0,3.48,3.19,12.1,12.1,0,0,0,8.42-.58c.3,0,.58-.29.87-.58a19.6,19.6,0,0,0,3.19-3.77,14.59,14.59,0,0,0,1.75-3.78c1.16-2.9,2.61-6.09,4.06-9a21.88,21.88,0,0,0,2.62-5.23,2.9,2.9,0,0,1,1.16-1.45c.87-.87,1.45-.87,2.32,0a3,3,0,0,1,1.45,2.61c-.29,1.45-.29,3.19-.58,4.65a16.06,16.06,0,0,0-.58,5.22,46.64,46.64,0,0,1,0,9,46.9,46.9,0,0,0-.58,9v1.16a73.75,73.75,0,0,0,0,11.32,10.88,10.88,0,0,0,.29,2.9,6.3,6.3,0,0,0,3.77,4.35c1.45.29,2.91.58,4.65.87a5.3,5.3,0,0,0,5.8-3.48,7.46,7.46,0,0,0,.59-2c0-.58.28-1.16.28-2s.3-1.45.3-2.32v-.58a27.53,27.53,0,0,0,.57-8.42,24.41,24.41,0,0,1,0-6.39,20.1,20.1,0,0,0,.3-9.28,39.57,39.57,0,0,1,.29-13.07,61.58,61.58,0,0,0,.87-12.76v-2a66.69,66.69,0,0,1,.58-10.74,23.59,23.59,0,0,0,.29-6.38,23.89,23.89,0,0,1,.58-7.84,10.69,10.69,0,0,0,.29-5.23C899.07,117,899.07,116.68,898.78,116.39Z" fill="#241b2e"/><path d="M989.94,113.49a5.71,5.71,0,0,0-4.36-2,29.88,29.88,0,0,0-7.26.29,6.77,6.77,0,0,0-4.64,2.9,27.67,27.67,0,0,0-4.94,7.83,5.94,5.94,0,0,0-1.16,2.33,17.22,17.22,0,0,1-1.16,2.32,27.06,27.06,0,0,1-5.22,7.55q-.45.44-.87.87c0,.29-.3.58-.59.87a4.3,4.3,0,0,1-2,.29,1.59,1.59,0,0,1-1.45-.87,2.51,2.51,0,0,1-.87-1.75c-.87-1.45-1.45-3.19-2.32-4.64-.59-1.16-.87-2.32-1.46-3.77-.87-2.61-1.74-5.22-2.9-7.84-.58-1.74-1.16-3.19-1.74-4.64a6.44,6.44,0,0,0-1.45-2.33v-.28A10,10,0,0,0,942,107.1a12,12,0,0,0-7.83-1.45,6.37,6.37,0,0,0-4.07,2.32,7.25,7.25,0,0,0-.87,4.94,58.87,58.87,0,0,0,4.07,9.87,26.67,26.67,0,0,1,2.9,9.29,9.78,9.78,0,0,0,1.45,4.93,40.58,40.58,0,0,1,2.32,5.23,25.09,25.09,0,0,0,2,4.93,65,65,0,0,1,2.62,7,8,8,0,0,1,.87,3.77,52.08,52.08,0,0,0,.58,6.38,12.54,12.54,0,0,1,0,4.65,52.08,52.08,0,0,0-.58,6.38v1.75a3.72,3.72,0,0,1-.29,1.74c0,1.45-.29,2.61-.29,3.77-.29.29-.29.58-.29,1.16a44.49,44.49,0,0,0-.3,10.74,9.82,9.82,0,0,1-.87,5.81,12.09,12.09,0,0,0-.28,8.42.88.88,0,0,1,.28.57,2.2,2.2,0,0,0,.59,1.45,6.52,6.52,0,0,0,2,2.91,9.78,9.78,0,0,0,4.93,1.45h1.45c2.91.29,4.94-1.16,5.81-4.07a11,11,0,0,0,.87-2.9l.87-8.7c0-.88.3-1.75.3-2.62a27.12,27.12,0,0,0,.87-9.58,15.84,15.84,0,0,1,.28-5.22.29.29,0,0,1,.3-.29c.87-3.77,1.44-7.84,2-11.61.29-1.74.58-3.77.87-5.52V164a14.28,14.28,0,0,1,1.74-4.93c1.16-2,2-3.77,2.9-5.52a20.66,20.66,0,0,1,3.49-6.09,24.27,24.27,0,0,0,5.22-8.13,89.24,89.24,0,0,1,7-11,30.59,30.59,0,0,0,5.22-10.16A5.08,5.08,0,0,0,989.94,113.49Z" fill="#241b2e"/></g></g></svg>