<svg xmlns="http://www.w3.org/2000/svg" viewBox="0 0 1847.49 807.86"><g id="Layer_2" data-name="Layer 2"><g id="Layer_1-2" data-name="Layer 1"><path d="M1669.63,276.36s12-184.73-47.66-194.3c-33.47-5.37-98.08,74.14-98.08,74.14-15.38-26.13-41.8-45.87-76.05-49.93a100.44,100.44,0,0,0-46.45,4.93c-23.51-10.73-47.32-17.41-74-15.67h-.87a113.41,113.41,0,0,0-8.7-11.9,99.63,99.63,0,0,0-80.13-34.83,161.08,161.08,0,0,0-26.42,3.77A112.32,112.32,0,0,0,1154.92,50l-2.32.58-2,.58c-.87.29-1.74.29-2.33.58a14.56,14.56,0,0,0-3.48-.58l-1.45-.29-1.16-.29a130.5,130.5,0,0,0-31.93-.58,106.27,106.27,0,0,0-23.52,5.22,106.86,106.86,0,0,0-21.19-4.93,159.42,159.42,0,0,0-23.51-.87A102.21,102.21,0,0,0,1013.83,54c-32.8,10.45-70.4,25.91-79.1,59.29,0,0-13.17,22.7-31.5-3.52-12.66-18.1-24.68-31.09-43.84-42.13-2.32-1.45-4.93-2.61-7.25-3.77-.88-.58-2-1.16-2.9-1.74a117.15,117.15,0,0,0-76.65-12.48l-.87.29A88.27,88.27,0,0,0,747,54.31a107,107,0,0,0-37.15-5.51,161.08,161.08,0,0,0-26.42,3.77A112.48,112.48,0,0,0,627.15,50l-2.32.58-2.32.58a99.52,99.52,0,0,0-59.8,44.41c-24.39-1.16-49.94,4.64-74.9,15.67a102.8,102.8,0,0,0-122.51,45s-66.1-88.32-84.87-72.82c-46.56,38.45-60.86,193-60.86,193S71.63,245.42,40.12,274.84c-19.81,18.48,60.42,146.07,60.42,146.07,13.64,18.86,27.87,36.86,42.68,54.86,11.9,14.5,23.8,28.73,36.28,42.66a327.4,327.4,0,0,0,29,27.57,1007.51,1007.51,0,0,0,81.87,72,206.62,206.62,0,0,0,17.71,14.8c24.67,20.61,63.11,44.3,84.19,56.6,92.8,54.2,145.44,25.54,145.44,25.54,18.57,8.42,37.45,16.26,56.6,23.22,7,3.2,13.65,6.1,20.91,8.71,34,13.64,88.54,26.12,115,32.8a284.08,284.08,0,0,0,31.06,6.68c23.22,4.93,46.45,9,69.68,12.48l4.35.87a28.92,28.92,0,0,1,4.64.58c9,1.16,17.71,2.32,26.71,3.48a5.66,5.66,0,0,1,2,.29c38.9,5.81,120.77,4.65,160.83-1.16l20.9-2.61c1.74-.29,3.2-.58,4.94-.87a20.28,20.28,0,0,0,4.06-.58c23.23-3.48,46.45-7.55,69.68-12.48a284.08,284.08,0,0,0,31.06-6.68c26.42-6.68,81.28-19.16,115-32.8a222.72,222.72,0,0,0,20.9-8.71c18.58-7,37.16-14.51,55.45-22.63,0,0,50,21.9,145.44-26.13,21.8-11,59.81-36,84.48-56.6a216.26,216.26,0,0,0,17.13-14.51,1021,1021,0,0,0,81.86-72,295.57,295.57,0,0,0,29.32-27.86c12.48-13.93,24.39-28.16,36.29-42.66,14.81-18,29-36,42.67-54.86,0,0,72.71-106.38,56.47-151.35C1828,222,1669.63,276.36,1669.63,276.36Z" fill="#c56b9f" fill-rule="evenodd"/><path d="M1632.66,228.82s12-184.73-47.66-194.3c-33.47-5.37-98.08,74.14-98.08,74.14-15.38-26.12-41.8-45.86-76.05-49.93a100.42,100.42,0,0,0-46.45,4.94c-23.52-10.74-47.32-17.42-74-15.68h-.87a112,112,0,0,0-8.71-11.89,99.61,99.61,0,0,0-80.12-34.84A161.09,161.09,0,0,0,1174.27,5,112.21,112.21,0,0,0,1118,2.42l-2.32.58-2,.59a21.1,21.1,0,0,0-2.32.58,14.07,14.07,0,0,0-3.48-.58l-1.45-.29-1.16-.3a130.59,130.59,0,0,0-31.94-.58,106.89,106.89,0,0,0-23.51,5.23,107.19,107.19,0,0,0-21.19-4.93A158.15,158.15,0,0,0,1005,1.85a101.83,101.83,0,0,0-28.16,4.64c-32.8,10.45-70.4,25.9-79.1,59.28,0,0-13.17,22.7-31.51-3.52-12.65-18.09-24.67-31.09-43.83-42.12-2.32-1.45-4.93-2.61-7.25-3.77-.88-.58-2-1.16-2.91-1.74A117.18,117.18,0,0,0,735.62,2.13l-.87.29a88.57,88.57,0,0,0-24.68,4.36,107,107,0,0,0-37.16-5.52A161,161,0,0,0,646.5,5a112.37,112.37,0,0,0-56.32-2.62L587.86,3l-2.32.59A99.6,99.6,0,0,0,525.73,48c-24.38-1.16-49.93,4.65-74.89,15.68a102.77,102.77,0,0,0-122.51,45s-66.11-88.31-84.87-72.82c-46.56,38.45-60.87,193-60.87,193S34.66,197.89,3.14,227.3c-19.8,18.49,60.43,146.07,60.43,146.07,13.64,18.87,27.87,36.86,42.67,54.86,11.91,14.51,23.81,28.73,36.29,42.66a326.21,326.21,0,0,0,29,27.58,1010.87,1010.87,0,0,0,81.86,72,208.42,208.42,0,0,0,17.72,14.81c24.67,20.61,63.11,44.29,84.18,56.6,92.8,54.19,145.45,25.54,145.45,25.54,18.57,8.42,37.44,16.25,56.6,23.22,7,3.19,13.65,6.1,20.91,8.71,34,13.64,88.54,26.12,115,32.8a281.73,281.73,0,0,0,31.06,6.67c23.22,4.93,46.45,9,69.67,12.48l4.35.87a28.89,28.89,0,0,1,4.65.58c9,1.17,17.71,2.33,26.71,3.48a5.49,5.49,0,0,1,2,.3c38.9,5.8,120.77,4.64,160.83-1.16l20.9-2.62c1.74-.29,3.2-.58,4.94-.87a19.58,19.58,0,0,0,4.06-.58c23.22-3.48,46.45-7.55,69.68-12.48a282.22,282.22,0,0,0,31.06-6.67c26.41-6.68,81.28-19.16,115-32.8a225.43,225.43,0,0,0,20.9-8.71c18.58-7,37.16-14.52,55.45-22.64,0,0,50,21.91,145.44-26.12,21.79-11,59.8-36,84.48-56.6a216.34,216.34,0,0,0,17.13-14.52,1022.84,1022.84,0,0,0,81.86-72,296.83,296.83,0,0,0,29.32-27.87c12.48-13.93,24.38-28.15,36.29-42.66,14.8-18,29-36,42.67-54.86,0,0,72.71-106.38,56.47-151.35C1791,174.49,1632.66,228.82,1632.66,228.82Z" fill="#fff" fill-rule="evenodd"/><path d="M779.75,311.26a16.06,16.06,0,0,0-11.62,0c-3.48,1.16-6.38,4.06-8.41,7.25-2,3.77-1.46,6.68-1.75,10.74-.58-2.61-5.51-2.61-7.83-2.9-4.65-.87-9.58-1.16-14.23.87s-9.87,4.06-13.35,7.83c-4.07,4.36-4.65,10.46-4.07,16,1.16,7.84,6.68,17.41,12.78,22.64s13.35,7.25,20.9,7.55c7,0,14.22,1.16,20.9,2,2.91.58,6.1-.29,9,.29,1.45.29,2.61,1.45,4.07,1.45h1.16c.29-9.29.57-18.86,1.74-27.86.58-5.81,1.45-11.61,2-17.13.29-4.94.58-11.61-.87-16-2-5.81-4.94-10.45-10.45-12.77Z" fill="#6fbf97"/><path d="M1092.7,335.05c-3.49-3.77-9-5.8-13.36-7.83-4.64-2-9.58-1.74-14.23-.87-2.32.29-7.25.29-7.83,2.9-.3-4.06.29-7-1.74-10.74-2-3.19-4.94-6.09-8.42-7.25a16.06,16.06,0,0,0-11.62,0c-5.51,2.32-8.41,7-10.45,12.77-1.45,4.35-1.16,11-.87,16,.29,5.52,1.46,11.32,2,17.13,1.16,9,1.45,18.57,1.74,27.86h1.16c1.45,0,2.61-1.16,4.06-1.45,2.9-.58,6.1.29,9-.29,6.68-.87,13.94-2,20.91-2,7.54-.3,14.8-2.33,20.89-7.55s11.61-14.8,12.49-22.64c.87-5.51.29-11.61-3.77-16Z" fill="#6fbf97"/><path d="M933.32,302c-10.45,0-21.19,7.54-26.13,22.35C902,309.51,892.39,302,882.81,302c-61.55,0-16.55,90.27,24.38,96.07C948.12,392.24,994,302,933.32,302Z" fill="#6fbf97"/><path d="M1425.67,456.1c-7.84-11-20.9-34-28.74-45-6.68-9.59-27.29-29-34.25-38.9-6.68-9.29-23.52-36.29-23.52-36.29C1164.69,470,970.77,481.06,924.32,481.63c-9.58-.57-26.42-.29-29.32,0-40.65-.29-239.21-8.41-417.75-145.71,0,0-18.87,27.29-25.26,36.87C445,383,426.74,403,418.9,412.55c-8.13,10.16-23.51,30.77-30.77,41.51-5.23,7.55-16.55,32.22-16.55,32.22,16.55,12.19,34,24.09,52.55,35.7,14.22,9.58,28.73,18.58,44.13,27.57a187.79,187.79,0,0,0,27.86,13.35,947.47,947.47,0,0,0,97.54,43,179.41,179.41,0,0,0,17.13,7.25c4.94,3.48,76.06,22.06,105.67,29.61A234.26,234.26,0,0,0,742,648.24c21.48,4.64,43.84,8.42,67.06,11.9a12.33,12.33,0,0,0,3.19.58,5.68,5.68,0,0,0,2.33.29c9.57,1.46,19.73,2.62,29.89,3.78.3.29.3.29.59.29,34.83,5.51,123.67.58,135.28-1.16,7.26-.88,14.51-2,21.77-2.91a4.94,4.94,0,0,0,2-.29,10.49,10.49,0,0,0,3.2-.58c23.22-3.48,45.57-7.26,67.35-11.9,8.41-1.45,17.13-3.19,25.54-5.51,29.32-7.55,100.74-26.13,105.38-29.61a178.33,178.33,0,0,0,17.13-7.25,947.47,947.47,0,0,0,97.54-43,188.38,188.38,0,0,0,27.87-13.35c15.39-9,29.9-18,44.13-27.57,18.58-11.61,36-23.51,52.83-35.7,0,0-14.22-22.64-19.45-30.18Z" fill="#ea4b85"/><path d="M361.71,468a174.91,174.91,0,0,0,20.9-27c6.39-10.16,11.62-21.77,19.45-31.06,11.91-14.22,23.81-29.89,36-43.53-52.25-39.48-106.54-91.15-153-158.19l-16,53.69-12.48,57.18-54.28,3.19-63.87-2.9c12.19,16.54,25.25,33.38,39.19,49.93,10.74,13.35,21.77,26.41,33.68,39.76A223.67,223.67,0,0,0,234,430.26a924.6,924.6,0,0,0,80.12,70.53Q320.63,506.88,328,513c2.9,3.78,47,32.22,76.63,50.8-.57-11.61-21.48-37.73-25.54-43.54-10.45-15.39-34.55-33.38-17.42-52.25Z" fill="#ea4b85"/><path d="M1612.92,322.28l-54.29-3.19-12.48-57.18-16-53.69c-46.45,67-100.73,118.71-153,158.19,12.19,13.64,24.1,29.31,36,43.53,7.84,9.29,13.06,20.9,19.45,31.06a176.15,176.15,0,0,0,20.9,27c17.13,18.87-7,36.86-17.42,52.25-4.06,5.81-25,31.93-25.55,43.54,29.62-18.58,73.74-47,76.65-50.8q7.4-6.09,13.93-12.19a924.6,924.6,0,0,0,80.12-70.53,223.79,223.79,0,0,0,22.65-21.19c11.9-13.35,22.93-26.41,33.67-39.76,13.94-16.55,27-33.39,39.19-49.93Z" fill="#ea4b85"/><path d="M559.12,531.56c2.32,2.32,2.9,4.93,1.16,7.84s-3.78,4.64-6.1,4.93a10.65,10.65,0,0,1-6.68-1.16,18.93,18.93,0,0,1-4.64-2.61,33,33,0,0,0-7.26-3.49,45,45,0,0,1-8.41-4.06c-1.75-1.16-3.78-2.32-5.52-3.48-1.45-1.16-2.91-2-4.65-3.2-2.32-1.45-3.19-3.77-2-6.67a.28.28,0,0,0,.29-.29,10.67,10.67,0,0,1,1.16-2.61,49.65,49.65,0,0,0,2.32-6.1,11.62,11.62,0,0,1,2.91-5.22,25.84,25.84,0,0,0,2.61-5.81,16.85,16.85,0,0,1,4.06-7.83,17.59,17.59,0,0,0,2.62-5.23,9,9,0,0,1,1.74-3.77c.87-1.74,1.74-3.48,2.32-4.94l.29-.29c.87-1.74,1.75-3.77,2.62-5.8a55.44,55.44,0,0,1,5.22-9,6.07,6.07,0,0,0,1.16-1.74,34.72,34.72,0,0,0,6.39-13.65,14.77,14.77,0,0,1,2-4.93,2.22,2.22,0,0,1,.58-1.45,34.7,34.7,0,0,1,3.19-5.52,7.49,7.49,0,0,1,4.07-3.19,7.2,7.2,0,0,1,4.93,0l12.2,5.23a14.14,14.14,0,0,1,2,.87c.29.29.58.29.87.58a26.62,26.62,0,0,1,4.94,2.61,37,37,0,0,0,7.25,4.35c1.45.88,2.91,1.45,4.35,2.32,3.2,1.46,4.36,4.07,4.07,7.26a21.82,21.82,0,0,1-1.45,4.65,7.06,7.06,0,0,1-3.2,2.61,5,5,0,0,1-3.48.58c-1.16-.29-2-.58-2.9-.87a59.36,59.36,0,0,0-9.87-4.07c-.87-.57-2-.87-2.9-1.45a.91.91,0,0,0-.59-.29,37.75,37.75,0,0,0-4.93-2.32c-2.61-.87-4.64-.58-6.39,1.75a20.73,20.73,0,0,0-3.48,6.09,15.93,15.93,0,0,1-2.62,4.93,25.74,25.74,0,0,0-2,3.77,8.16,8.16,0,0,0,0,5.23,11.83,11.83,0,0,0,3.49,4.06,33.56,33.56,0,0,0,4.64,2.33,22.86,22.86,0,0,1,9,5.8,7.69,7.69,0,0,1,1.75,3.77,9.9,9.9,0,0,1-2,6.39,6,6,0,0,1-5.81,2.62,8.06,8.06,0,0,1-3.77-.88,37.72,37.72,0,0,1-5.81-3.19,24.82,24.82,0,0,0-7-3.19q-4.79-1.74-7,2.61c-1.74,2.32-3.19,4.65-4.64,7-.29.58-.58.88-.58,1.45-.87,1.75-1.46,3.2-2.33,4.65a2.17,2.17,0,0,1-.58,1.45l-.87,1.74a4.92,4.92,0,0,0,1.17,5.23,13.48,13.48,0,0,0,6.09,3.77A36,36,0,0,1,553,527.2c1.16.87,2,1.46,3.2,2.33a2.89,2.89,0,0,1,1.45,1.16c.58.29.87.58,1.45.87Z" fill="#fff"/><path d="M677.27,481.06a5.31,5.31,0,0,1,1.45,6.67,21.76,21.76,0,0,1-3.77,6.1A62.26,62.26,0,0,0,668.27,506a39.48,39.48,0,0,1-7.55,11.9,24.28,24.28,0,0,0-5.8,8.41,49.81,49.81,0,0,1-6.39,10.74,29.73,29.73,0,0,0-3.49,6.68,26.3,26.3,0,0,1-2.61,3.48,36.31,36.31,0,0,0-4.94,7.84,2.18,2.18,0,0,1-.57,1.16,56.68,56.68,0,0,0-5.23,9,23.38,23.38,0,0,1-5.22,5.51,7.65,7.65,0,0,1-7,1.75,29.07,29.07,0,0,1-6.39-2.33,8.07,8.07,0,0,1-4.06-5.51,17.88,17.88,0,0,1,0-7.84,23.89,23.89,0,0,0,.58-7.84,8.6,8.6,0,0,1,.58-4.64,57.17,57.17,0,0,0,3.19-13.93,47.06,47.06,0,0,0,.29-6.39,25.38,25.38,0,0,1,.58-4.64c.59-4.06,1.17-8.13,2-11.9.3-2,.59-4.07.88-6.1,0-.58,0-.87.29-1.16a39.37,39.37,0,0,0,.87-8.41,39.18,39.18,0,0,1,1.74-14.23,22.39,22.39,0,0,0,.58-4.35,12.27,12.27,0,0,1,.87-6.39c.29-.58.88-1.45,1.17-2a4.86,4.86,0,0,1,5.22-2.61,6.89,6.89,0,0,1,3.48.87,12,12,0,0,1,2.9,1.16,7.36,7.36,0,0,1,4.07,6.67,9.63,9.63,0,0,1,0,4.07q-.43,3.92-.88,7.84a32.66,32.66,0,0,1-.86,5.22c-.29.58-.29.87-.58,1.45a9.69,9.69,0,0,0-.29,4.07,51.71,51.71,0,0,1-1.74,14.8,87.17,87.17,0,0,0-1.46,12.19,7.21,7.21,0,0,0,.29,2.32,1.72,1.72,0,0,0,2.62.87c.58-.29.87-.87,1.45-1.45a2.25,2.25,0,0,1,.57-1.16,18.44,18.44,0,0,1,1.17-2,55.73,55.73,0,0,1,6.1-8.42,31.05,31.05,0,0,0,3.77-6.09,24.84,24.84,0,0,1,1.74-2.91l1.74-2.61a48.71,48.71,0,0,1,2.91-5.22c.58-.88.87-1.46,1.45-2.33l1.74-3.48a16.63,16.63,0,0,1,1.16-2,19.18,19.18,0,0,1,4.07-5.81q4.35-4.79,10.44-1.74a26.7,26.7,0,0,1,3.49,2.62Z" fill="#fff"/><path d="M726.62,588.45c2.9,1.74,3.77,4.07,2.9,7.26s-2.61,5.22-4.93,6.09a8.24,8.24,0,0,1-6.39.58,35.52,35.52,0,0,1-5.23-1.45,37.83,37.83,0,0,0-7.83-1.74,33.3,33.3,0,0,1-9.29-2,50.11,50.11,0,0,1-6.1-2l-5.22-1.75c-2.9-.86-4.07-2.9-3.49-6.09V587a10.11,10.11,0,0,1,.59-2.91,54.13,54.13,0,0,0,.58-6.38,23.85,23.85,0,0,1,1.74-6.1,22.59,22.59,0,0,0,1.16-6.09,17.55,17.55,0,0,1,2-8.71,12,12,0,0,0,1.45-5.52,17.12,17.12,0,0,1,.58-4.06c.58-2,.87-3.77,1.46-5.51h0a51.85,51.85,0,0,0,1.15-6.68,53.43,53.43,0,0,1,2.91-9.58,14.14,14.14,0,0,1,.87-2,38.81,38.81,0,0,0,2.9-15.09,33.22,33.22,0,0,1,.58-5.23c.29-.58.29-.87.59-1.45a44.81,44.81,0,0,1,1.45-6.09,9.46,9.46,0,0,1,3.48-4.07,5.3,5.3,0,0,1,4.64-.87c4.36.59,9,1.17,13.36,1.74.58.3,1.45.3,2,.58.29,0,.58.29.87.29A30.92,30.92,0,0,1,731,494.7a37.86,37.86,0,0,0,8.13,2.61,30.34,30.34,0,0,1,4.93,1.16c3.19.58,4.93,2.9,5.52,6.1a11.85,11.85,0,0,1-.59,4.64,5.73,5.73,0,0,1-2.32,3.48,4.64,4.64,0,0,1-3.19,1.45,12,12,0,0,1-3.2-.29,65.37,65.37,0,0,0-10.44-1.74,12.33,12.33,0,0,1-3.2-.58c-.29,0-.58,0-.58-.29l-5.22-.87c-2.91-.29-4.94.58-6.1,3.19a25.55,25.55,0,0,0-1.75,6.68,22.76,22.76,0,0,1-1.15,5.22,25.55,25.55,0,0,0-1.17,4.35,6.48,6.48,0,0,0,1.17,5.23,9.56,9.56,0,0,0,4.06,2.9,29.26,29.26,0,0,0,5.52,1.16,31,31,0,0,1,9.87,3.49,6.08,6.08,0,0,1,2.32,3.19,9.63,9.63,0,0,1,0,7,7.38,7.38,0,0,1-5.22,4.06,15.36,15.36,0,0,1-3.78-.29,55,55,0,0,1-6.68-1.45,31.89,31.89,0,0,0-7.54-1.74c-3.2-.3-5.23,1.16-6.1,4.06q-1.31,3.93-2.62,7.84a4.44,4.44,0,0,0-.28,2,38,38,0,0,1-1.17,4.93c0,.59-.29.87-.29,1.46s-.28,1.16-.28,1.74a4.65,4.65,0,0,0,2.32,4.93,14.29,14.29,0,0,0,7,2.33,45.08,45.08,0,0,1,10.74,2.89,17.52,17.52,0,0,0,3.49,1.46l1.74.87a4.12,4.12,0,0,1,1.74.58Z" fill="#fff"/><path d="M807,550.72a10.8,10.8,0,0,0,3.48-6.68,29.7,29.7,0,0,0-.29-10.16,7,7,0,0,0-3.19-4.35,29.09,29.09,0,0,0-2.91-1.46h-.29a32.11,32.11,0,0,0-7.26-2.9c-4.06-.58-6.38.88-7,4.64,0,.59-.3,1.46-.3,2a12,12,0,0,1-.86,4.64A30.24,30.24,0,0,0,787.3,542a29.39,29.39,0,0,0,0,7.26,6.23,6.23,0,0,0,1.45,4.06,5.74,5.74,0,0,0,4.06,1.45H794a12.56,12.56,0,0,0,1.45-.29h3.2a13.31,13.31,0,0,0,8.42-3.77ZM812.26,569a7.38,7.38,0,0,0-3.19,7,104.44,104.44,0,0,0,2.32,16.25,10.48,10.48,0,0,1,.58,3.19c.87,3.2,1.74,6.1,2.62,9a12.52,12.52,0,0,1,1.15,5.51,17.13,17.13,0,0,1-.57,4.06,4.73,4.73,0,0,1-4.65,2.9,26.11,26.11,0,0,1-7.84-2,6.91,6.91,0,0,1-3.49-4.06,24.57,24.57,0,0,1-1.15-4.93,30.7,30.7,0,0,0-2.32-10.16c-.59-1.45-1.17-2.91-1.75-4.36a13.13,13.13,0,0,1-.87-4.64,26.08,26.08,0,0,0-2.32-10.45,6.21,6.21,0,0,0-1.46-2.32,3.15,3.15,0,0,0-3.47-1.16,3.07,3.07,0,0,0-2.62,2.61,15.32,15.32,0,0,0-.29,3.77c-.29,2.9-.58,6.1-1.16,9-.29.58-.29,1.45-.58,2a17,17,0,0,0-.58,3.77,20.17,20.17,0,0,1-.87,4.06,41.87,41.87,0,0,0-1.16,6.4v.28c0,.87-.29,1.74-.29,2.91-1.16,3.19-3.2,4.64-6.39,4.06a25.52,25.52,0,0,1-4.35-1.45,5,5,0,0,1-3.78-5.52V603a71.1,71.1,0,0,1,.58-7.83c0-1.46.29-2.91.29-4.36a18.48,18.48,0,0,1,.87-7,21.72,21.72,0,0,0,1.16-4.64q.44-3.48.88-7a58.3,58.3,0,0,0,.57-7,13.62,13.62,0,0,1,.3-3.48v-.58a46.61,46.61,0,0,0,1.45-14.23,24.72,24.72,0,0,1,.87-6.67c0-.29.29-.87.29-1.17.58-2.61,1.16-5.51,1.74-8.12a25.68,25.68,0,0,0,.58-8.13,18.7,18.7,0,0,1,.87-5.8,14.21,14.21,0,0,0,.29-4.94c0-1.74.29-3.48,1.46-4.35a6.06,6.06,0,0,1,3.77-2,22,22,0,0,1,4.35-.29,43.55,43.55,0,0,0,6.1.58c.87,0,1.74.28,2.61.28a54.32,54.32,0,0,1,5.81,1.17,8.58,8.58,0,0,0,2.9.58,8.47,8.47,0,0,0,2.61.58c1.16.29,2.33.29,3.49.58a17.36,17.36,0,0,1,9,5.51,47,47,0,0,1,6.68,8.42,43.5,43.5,0,0,1,4.36,11.61,33.21,33.21,0,0,1,0,9.29A31,31,0,0,1,823,557.1a64.82,64.82,0,0,1-7,8.71,20.35,20.35,0,0,1-3.78,3.19Z" fill="#fff"/><path d="M905.74,516.18a5.44,5.44,0,0,1,4.65,2,4.93,4.93,0,0,1,.57,4.64,40.19,40.19,0,0,1-4.35,10.45,42.92,42.92,0,0,0-6.1,11.32,28.2,28.2,0,0,1-4.64,8.13,26.28,26.28,0,0,0-3.19,6.38,46.43,46.43,0,0,1-2.33,5.52,11.82,11.82,0,0,0-1.45,5.22v.58a32.24,32.24,0,0,0-.58,5.52c-.29,3.77-.58,7.55-1.16,11.61-.29,0-.29,0-.29.29a15.77,15.77,0,0,0,0,5.22,25,25,0,0,1,0,9.29,9.9,9.9,0,0,0-.29,2.9h0c0,2.91-.29,5.52-.29,8.42a10.43,10.43,0,0,1-.58,3.19c-.58,2.91-2.62,4.36-5.52,4.36a1.07,1.07,0,0,1-.87.29h-.58a10.76,10.76,0,0,1-4.94-1.45,5.2,5.2,0,0,1-2.32-2.61c-.28-.3-.28-.88-.58-1.17,0-.29-.29-.58-.29-.87a11.25,11.25,0,0,1-.29-8.13,14.4,14.4,0,0,0,.58-6.09,42.17,42.17,0,0,1-.58-10.45v-1.45a14.12,14.12,0,0,0,.29-3.48v-3.49a49.16,49.16,0,0,1,.29-6.38,12.85,12.85,0,0,0-.58-4.65,42.18,42.18,0,0,1-.87-6.38,26.93,26.93,0,0,0-1.16-3.77,64.46,64.46,0,0,0-3.19-6.39,25,25,0,0,1-2.33-4.94,15.7,15.7,0,0,0-2.61-4.93,15.16,15.16,0,0,1-1.74-4.64,25.67,25.67,0,0,0-3.48-9.29,49.18,49.18,0,0,1-4.65-9.58,6.44,6.44,0,0,1,.29-4.64,5.68,5.68,0,0,1,4.07-2.62,12.22,12.22,0,0,1,7.83.88,7.94,7.94,0,0,1,3.78,3.19v.29a6.31,6.31,0,0,1,1.45,2.32c.58,1.45,1.45,2.9,2,4.35a35.4,35.4,0,0,1,3.48,7.55c.58,1.45,1.17,2.61,1.75,3.77l2.61,4.36.87,1.74a4.12,4.12,0,0,0,1.74.58c.58.29,1.16,0,1.74-.58a.63.63,0,0,0,.59-.58,4.19,4.19,0,0,0,.87-1.16A25.25,25.25,0,0,0,888,533.3l.87-2.61c.29-.88.58-1.45.87-2.32a36.85,36.85,0,0,1,4.65-8.13,9.48,9.48,0,0,1,4.35-3.19,28.14,28.14,0,0,1,7-.87Z" fill="#fff"/><path d="M982.38,511.82c3.77-.58,6.38.87,7.55,4.64a14.48,14.48,0,0,1,.29,6.1,6.21,6.21,0,0,1-4.36,5.51,22.23,22.23,0,0,1-6.09,1.17c-1.46.29-2.62.57-3.78.87-2.61.29-3.77,2-4.06,4.35a15.4,15.4,0,0,1,.29,3.78,55.88,55.88,0,0,1,.29,7,24.75,24.75,0,0,0,0,4.64,76,76,0,0,1,.58,11.61v2.33a8,8,0,0,1-.29,2.61,34.21,34.21,0,0,0,1.16,5.8v.87a34.48,34.48,0,0,1,.58,7.55,35.22,35.22,0,0,0-.29,5.52c.29,1.74.58,3.48.87,4.93a28.28,28.28,0,0,1,.58,7,43.36,43.36,0,0,0,.59,8.72,27.77,27.77,0,0,1-.59,7,6.5,6.5,0,0,1-4.93,5.52h-.29c-1.17.28-2,.58-2.91.87a5.12,5.12,0,0,1-5.22-2.32,19.4,19.4,0,0,1-1.74-5.81c-.59-3.77-1.17-7.84-1.46-11.9-.28-2-.58-4.06-.87-6.1a24.89,24.89,0,0,1-.29-4.64v-1.74a50,50,0,0,0-.58-9.29,32.28,32.28,0,0,1-.29-7.55,52.74,52.74,0,0,0,0-9.57,13.33,13.33,0,0,0-.57-2.91V558a56.18,56.18,0,0,1-1.17-7,3.66,3.66,0,0,0-.29-1.74,89.73,89.73,0,0,1-.29-12.48c-.29-4.07-2.32-6.1-6.39-6.1a22,22,0,0,0-4.35.29c-.58.29-1.17.29-1.74.58a19.24,19.24,0,0,1-4.07-.29,4.18,4.18,0,0,1-3.48-2.61,22.82,22.82,0,0,1-2-7.26,5.69,5.69,0,0,1,4.64-6.09c1.45-.29,3.19-.29,4.65-.59a27.62,27.62,0,0,0,4.93-.58,47.21,47.21,0,0,1,6.39-.29,25.16,25.16,0,0,0,9.29-.58,58.57,58.57,0,0,1,7.55-1.16H976a45,45,0,0,0,6.39-.29Z" fill="#fff"/><path d="M1075.28,542.3a19.15,19.15,0,0,1,1.74,7.84,5.75,5.75,0,0,0,.58,3.19,36.5,36.5,0,0,1,1.16,7.84,32.08,32.08,0,0,0,.58,5.22,67.89,67.89,0,0,1,2,13.06,21.57,21.57,0,0,0,1.16,4.64,27.66,27.66,0,0,1,1.45,4.65,12.35,12.35,0,0,0,.59,3.19,31.75,31.75,0,0,1,.87,7.55,4.51,4.51,0,0,1-2.33,3.77,13.51,13.51,0,0,1-8.12,2.62c-3.2,0-4.94-1.75-5.23-4.94-.29-2-.58-3.77-.87-5.8a65.11,65.11,0,0,1-2.32-12.78c0-.58-.29-.87-.29-1.45-.3-1.45-.58-2.9-.87-4.35-.3-2.32-.88-4.36-1.17-6.68a10.38,10.38,0,0,0-1.15-3.19,5.27,5.27,0,0,0-4.07-2.9,5.55,5.55,0,0,0-3.78.29,52.23,52.23,0,0,1-9.28,1.74c-3.2,0-5.23,1.74-5.81,4.93a9.92,9.92,0,0,0,.87,7.55,13.6,13.6,0,0,1,1.45,7.55,8.94,8.94,0,0,0,.29,2.9v.58c.29,1.74.58,3.77.87,5.51a9.17,9.17,0,0,0,.88,4.07,19,19,0,0,1,.58,7,5.35,5.35,0,0,1-4.07,5.51,9,9,0,0,1-5.52.87c-2.61,0-4.35-1.45-5.22-4.06,0-.88-.29-1.45-.29-2.32a18.22,18.22,0,0,0-.87-5.52l-.29-.29c-.59-2-1.16-4.06-1.74-6.1a28.64,28.64,0,0,1-1.17-7,19.72,19.72,0,0,0-1.45-7,25.38,25.38,0,0,1-.58-4.64,37.66,37.66,0,0,0-.58-9.87,16.8,16.8,0,0,0-1.74-4.94,15.72,15.72,0,0,1-1.74-7.25c-.29-.87-.29-1.74-.58-2.61a36.15,36.15,0,0,1-1.16-9.58c0-.29-.29-.58-.29-1.16a15.33,15.33,0,0,0-1.16-6.1,12.38,12.38,0,0,1-1.17-7.26,14.26,14.26,0,0,0-1.16-6.09,21.73,21.73,0,0,1-1.45-4.64c-.29-3.78,1.45-6.39,5.23-7.55a8.86,8.86,0,0,1,5.51-.29,5.33,5.33,0,0,1,3.78,2.32,16.06,16.06,0,0,1,2.61,4.94v.58a39.54,39.54,0,0,1,1.16,4.93,22.09,22.09,0,0,1,.87,6.1v.87a29.3,29.3,0,0,0,2,8.7,30.5,30.5,0,0,1,1.45,8.71v1.74a4.39,4.39,0,0,0,4.65,3.2,5,5,0,0,0,1.45-.59,15.07,15.07,0,0,1,3.49-.58,75.41,75.41,0,0,0,7.83-1.15h.58a6.82,6.82,0,0,0,5.52-5.52,13.52,13.52,0,0,0-1.16-7.55,19.62,19.62,0,0,1-2-7.83c-.29-2-.59-4.07-.87-6.1-.3-.29-.3-.58-.3-1.16a37.32,37.32,0,0,1-.87-8.13v-2a4.3,4.3,0,0,1-.29-2,6.07,6.07,0,0,1,5.52-6.38,7,7,0,0,1,3.48-.3,5.29,5.29,0,0,1,4.35,2.9,30.67,30.67,0,0,1,2.62,7.26c.58,2.32,1.16,4.64,2,7.26a24.15,24.15,0,0,1,.87,6.38,17,17,0,0,0,.87,5.52,9.87,9.87,0,0,1,.58,4.06v2.32a13.08,13.08,0,0,0,1.46,5.81Z" fill="#fff"/><path d="M1130.14,560.29a22.32,22.32,0,0,0,2,4.65,42.65,42.65,0,0,1,3.77,12.19c.29,2,.87,3.77,1.16,5.8a14.64,14.64,0,0,1,.58,3.49,5.68,5.68,0,0,1-4.06,5.8,16.53,16.53,0,0,1-5.23.87,6.42,6.42,0,0,1-5.51-3.77,10.34,10.34,0,0,1-1.17-2.61,12.93,12.93,0,0,0-1.74-4.65,13.67,13.67,0,0,1-1.74-4.35,16.35,16.35,0,0,0-1.16-3.48,41.48,41.48,0,0,1-1.16-5.81,19.54,19.54,0,0,0-1.45-5.52,38,38,0,0,1-1.75-7.83,30.28,30.28,0,0,0-1.74-7c-.29-.58-.29-1.16-.58-1.74l-2.61-7.83a10.1,10.1,0,0,1-.87-3.78,16.47,16.47,0,0,0-2-6.38,22.64,22.64,0,0,1-2.33-7.55,45.78,45.78,0,0,0-2.32-8.42,108.75,108.75,0,0,1-3.48-13.06,22,22,0,0,1,.29-4.35,6,6,0,0,1,2.9-4.07,11.89,11.89,0,0,1,5.23-1.45c3.77-.58,6.38,1.16,7.26,5.23a80.42,80.42,0,0,0,3.48,11.9c0,.29.29.87.29,1.16v.29a4.12,4.12,0,0,1,.58,1.74c.58,1.74.87,3.19,1.45,4.65a29.77,29.77,0,0,1,1.45,7v.29a32,32,0,0,0,2,7.55,28.63,28.63,0,0,1,2.91,8.42c.29.58.58,1.44.87,2a8.59,8.59,0,0,1,.58,2.62,34.21,34.21,0,0,1,1.16,5.8v.29a1.1,1.1,0,0,0,.29.88,30.34,30.34,0,0,0,1.16,4.93,46.36,46.36,0,0,0,1.45,6.09Z" fill="#fff"/><path d="M1207.07,497.31a10.34,10.34,0,0,0,1.17,2.61c.57,1.45.87,3.19,1.44,4.65.3.58.3,1.16.59,1.73.29,0,.29.3.58.59a53,53,0,0,1,2.32,7.25c.29.3.29.58.58.88a52.67,52.67,0,0,0,4.06,11.31,32,32,0,0,1,2.33,5.52,80.82,80.82,0,0,0,3.19,9,14.32,14.32,0,0,1,1.45,4.64,30.93,30.93,0,0,0,2.61,7.26,4.41,4.41,0,0,1,.59,3.77,5.3,5.3,0,0,1-1.75,2.61,6.31,6.31,0,0,1-2.32,1.45,31.6,31.6,0,0,1-7.25,2.91,8.1,8.1,0,0,1-7.55-2l-4.36-4.35a15.2,15.2,0,0,0-2.9-3.19,7.59,7.59,0,0,0-2-2.32c-.57-.87-1.45-1.75-2-2.62a73.61,73.61,0,0,1-8.41-10.44c-.88-1.46-1.75-2.62-2.62-4.07a13.4,13.4,0,0,1-2-2c-.29-.29-.29-.58-.58-.87-.58-.87-1.16-1.75-1.75-2.61a5.09,5.09,0,0,0-2-1.45,2.19,2.19,0,0,0-2.62,0,3,3,0,0,0-.58,2.61,5.57,5.57,0,0,0,.58,2,13.49,13.49,0,0,1,2.62,6.68,5.86,5.86,0,0,0,1.74,4.35,14.64,14.64,0,0,1,2.61,6.67,36.34,36.34,0,0,0,4.35,12.2,12.76,12.76,0,0,1,2,7,8.28,8.28,0,0,1-3.49,6.1,13.67,13.67,0,0,1-4.35,1.74,5.7,5.7,0,0,1-4.94-1.45,10.9,10.9,0,0,1-4.06-7.55,16.78,16.78,0,0,0-2-6.09,10.45,10.45,0,0,1-2.32-4.36c-1.17-2.32-2-4.93-3.2-7.25a28.4,28.4,0,0,1-1.74-6.68,33.32,33.32,0,0,0-3.19-9v-.29c-.29-.29-.58-.58-.58-.87a24.1,24.1,0,0,0-3.49-7.84,28,28,0,0,1-3.19-7.54,42,42,0,0,0-4.35-11.9,33.77,33.77,0,0,1-2.62-7,41.36,41.36,0,0,0-4.06-10.45,8,8,0,0,1-.29-7.26,2.9,2.9,0,0,1,1.16-1.45,16.77,16.77,0,0,1,7.26-4.35A6.42,6.42,0,0,1,1158,477a50.77,50.77,0,0,1,4.06,3.48,14,14,0,0,0,2,2,18.06,18.06,0,0,1,4.06,5.22,5.87,5.87,0,0,1,1.16,1.74c1.74,2,3.49,4.36,5.23,6.39a8.83,8.83,0,0,0,2.32,2.32,40.18,40.18,0,0,1,7.55,8.12l.29.3a42.63,42.63,0,0,0,2.9,3.77,11.88,11.88,0,0,0,1.17,2,8,8,0,0,1,1.45,1.74l.87.88c.58.29.87.57,1.45.57a1.26,1.26,0,0,0,1.45,0,2.82,2.82,0,0,0,1.16-2.61,8.93,8.93,0,0,0-.87-3.77c-.29-.58-.29-1.16-.58-1.74a1,1,0,0,1-.29-.58c-.87-2-1.74-4.36-2.61-6.1-.29-.29-.29-.58-.58-.87-.59-1.16-.87-2.32-1.45-3.48a85.82,85.82,0,0,0-5.52-14.23c-.29-.58-.58-1.45-.88-2a1.07,1.07,0,0,1-.28-.86c-.87-1.75-1.46-3.49-2.32-5.23,0-.29-.29-.58-.29-1.16-.29-.87-.58-1.74-.88-2.61a6.07,6.07,0,0,1,3.2-6.1,25.08,25.08,0,0,1,6.67-1.74,6.3,6.3,0,0,1,6.1,3.77c.58,1.16.87,2.61,1.45,3.78a21.33,21.33,0,0,0,2.91,7.54,14.59,14.59,0,0,1,2.61,7,14.72,14.72,0,0,0,2.61,6.68,28.8,28.8,0,0,1,2.9,6.09Z" fill="#fff"/><path d="M1288.65,472.93a5.61,5.61,0,0,1,1.45,2.61A6.34,6.34,0,0,1,1291,477a26.11,26.11,0,0,1,3.49,7.55,23.89,23.89,0,0,0,2,3.77.29.29,0,0,0,.3.29c.58,1.16.87,2.32,1.45,3.48a49.1,49.1,0,0,0,3.77,6.68,9.93,9.93,0,0,1,1.46,5.22,2.27,2.27,0,0,0,.28,1.17v5.22a8.39,8.39,0,0,1-.86,4.65c-.59,1.16-1.17,2.31-1.75,3.48-.29.87-.87,1.45-1.16,2.32a13.73,13.73,0,0,1-3.19,3.77,52.1,52.1,0,0,1-10.45,7.26,32.44,32.44,0,0,1-13.65,3.19,12.71,12.71,0,0,1-5.51-2,48,48,0,0,0-5.23-2.9,11.39,11.39,0,0,1-5.52-5.52,6,6,0,0,0-1.15-1.74,22.14,22.14,0,0,0-2.62-4.35c0-.29-.29-.29-.29-.58-.29-.29-.58-.59-.58-.87a27.54,27.54,0,0,1-6.38-10.45,42.1,42.1,0,0,0-2.33-5.23c-.58-1.16-1.16-2-1.74-3.19a5.83,5.83,0,0,0-1.16-2.32,51.92,51.92,0,0,0-4.07-6.68,55,55,0,0,1-8.12-14.51c-.59-1.45-1.45-3.19-2-4.64-.29-.58-.29-1.17-.58-1.75a18.43,18.43,0,0,1-1.74-5.22,14.52,14.52,0,0,1,.58-7.84c.29-1.16.87-2.32,1.16-3.48l.87-2.62a7.41,7.41,0,0,1,2.91-3.76,104.73,104.73,0,0,1,8.71-7.55v-.29a26.59,26.59,0,0,1,4.06-2,23.76,23.76,0,0,1,11.9-1.45,51.23,51.23,0,0,1,12.78,4.36,14.68,14.68,0,0,1,5.8,6.09,4.88,4.88,0,0,1-.58,5.52c-.29.29-.58.87-1.16,1.16a18,18,0,0,1-4.93,3.19,7.08,7.08,0,0,1-6.39-.58,4.77,4.77,0,0,1-2-1.16c-.28,0-.28-.29-.57-.29a7.67,7.67,0,0,0-6.1-.87,14.85,14.85,0,0,0-6.09,2.9,6.72,6.72,0,0,0-2.62,5.51,15.89,15.89,0,0,0,.29,5.23,8.56,8.56,0,0,0,1.74,4.94,47.21,47.21,0,0,1,3.2,6.67,31.79,31.79,0,0,0,2.32,4.36,19.05,19.05,0,0,1,4.93,8.41,10.93,10.93,0,0,0,2.62,3.77,29.5,29.5,0,0,1,3.48,6.68,5.38,5.38,0,0,0,.58,2c0,.29.29.88.29,1.16a25.32,25.32,0,0,0,3.48,6.1,5.83,5.83,0,0,1,1.16,1.45,17.19,17.19,0,0,0,3.78,4.06c3.48,2.91,7.26,3.2,11.32,1.17a16,16,0,0,0,2.91-1.75,9.74,9.74,0,0,0,2.9-4.64,8.9,8.9,0,0,0-.58-5.52,33.1,33.1,0,0,0-2.91-5.51,12,12,0,0,1-2-3.19,31.79,31.79,0,0,0-2.32-4.36,6.42,6.42,0,0,0-6.68-2,10.3,10.3,0,0,0-2.9.58,5.82,5.82,0,0,1-6.68-1.74,8.91,8.91,0,0,1-2.9-4.35c-1.17-2.91-.29-5.23,2.32-6.68,0-.29,0-.29.29-.29a.28.28,0,0,0,.29-.29,50.52,50.52,0,0,0,7.84-4.06c.58-.29,1.16-.87,1.74-1.17a57,57,0,0,1,6.1-2.61c.29-.29.87-.29,1.16-.58a5,5,0,0,1,4.93.58,10.54,10.54,0,0,1,4.07,4.65Z" fill="#fff"/><path d="M676.69,93.56A51.55,51.55,0,0,0,667.4,95c-2.32.87-4.35,2-5.51,4.35a47.53,47.53,0,0,0-5.81,10.74c-.29,1.16-.58,2-.87,3.19a17,17,0,0,0-1.17,3.48,43.73,43.73,0,0,1-5.8,10.16c-.29.59-.58.87-.87,1.46l-.87.87a3.88,3.88,0,0,1-2.33.87,3.29,3.29,0,0,1-2.32-.87,9.4,9.4,0,0,1-1.45-2,23.71,23.71,0,0,0-3.48-5.8c-.87-1.45-1.45-3.19-2.32-4.65a109.63,109.63,0,0,0-4.94-10.15c-.87-1.75-2-3.78-2.9-5.52a25.5,25.5,0,0,0-1.74-2.9l-.29-.29a11.76,11.76,0,0,0-4.94-4.36,21.47,21.47,0,0,0-10.45-.87c-2.32.87-4.06,2-4.94,3.78a7,7,0,0,0-.29,6.38,80.17,80.17,0,0,0,6.1,12.19,31.4,31.4,0,0,1,5.23,11.9,11.54,11.54,0,0,0,2.61,6.1,34.64,34.64,0,0,1,3.48,6.38,43.31,43.31,0,0,0,3.2,6.39c1.74,2.9,3.19,5.51,4.64,8.42a31.69,31.69,0,0,1,1.45,4.93,36.81,36.81,0,0,0,1.74,8.13,15.48,15.48,0,0,1,.59,6.38,39.48,39.48,0,0,0,0,8.42v2a7.45,7.45,0,0,1,.28,2.32,24.26,24.26,0,0,1-.28,4.64v1.74a45.31,45.31,0,0,0,1.15,13.93,17.76,17.76,0,0,1-.28,7.84,13.7,13.7,0,0,0,.58,10.74c0,.29.29.58.29.87.28.58.58,1.16.87,1.74a7.35,7.35,0,0,0,3.19,3.49,17,17,0,0,0,6.39,1.45h.87a1.7,1.7,0,0,0,1.16-.3c4.06-.28,6.39-2.32,7.26-6.09a17.83,17.83,0,0,0,.29-4.06V211.12a14.2,14.2,0,0,1,.29-3.49,34.46,34.46,0,0,0-.29-12.19,14.14,14.14,0,0,1,0-7v-.58a137.39,137.39,0,0,0,1.16-15.38,66.26,66.26,0,0,1,.58-7.26v-.58a20,20,0,0,1,1.45-7,54.94,54.94,0,0,0,2.91-7.26,28.26,28.26,0,0,1,4.06-8.41,58.28,58.28,0,0,0,5.81-11,65.33,65.33,0,0,1,7.25-15.09A41.47,41.47,0,0,0,683.66,102c.58-2.61.29-4.64-1.17-6.09C681.33,94.15,679.3,93.56,676.69,93.56Z" fill="#241b2e"/><path d="M788.46,124.33a31.73,31.73,0,0,0-2.32-9c-1.17-2.9-2.62-5.8-4.07-8.7a13.11,13.11,0,0,0-5.52-6.39c-1.45-.87-2.9-1.45-4.64-2.32a21.63,21.63,0,0,0-3.48-2,24.27,24.27,0,0,0-16.84-2.61c-4.07.57-7.84,1.15-11.9,1.45A8.85,8.85,0,0,0,735,96.17a61.75,61.75,0,0,1-5.22,4.07,12.84,12.84,0,0,1-2,1.45,27.48,27.48,0,0,0-8.71,11,37.3,37.3,0,0,0-2.9,12.48,40.85,40.85,0,0,0,0,8.42,49.38,49.38,0,0,1-.29,6.39,28.69,28.69,0,0,0,.58,9.86,28,28,0,0,1,0,7,11.27,11.27,0,0,0-.58,4.35c0,2-.29,4.36-.29,6.39-.29,2.9-.29,5.8-.29,8.71v2a11,11,0,0,0,0,4.35,42.92,42.92,0,0,1,0,12.19,31.25,31.25,0,0,0,.29,9,55.68,55.68,0,0,0,2.61,9.29,28.09,28.09,0,0,0,4.94,8.42,21.29,21.29,0,0,0,8.71,6.38c3.19,1.16,6.67,2.62,9.87,3.49a25.52,25.52,0,0,1,4.35,1.45,22.55,22.55,0,0,0,4.65.58,32,32,0,0,0,5.22-.58,4.78,4.78,0,0,0,2-.3,35.4,35.4,0,0,0,18.29-7,31.27,31.27,0,0,0,11.33-18.87,57.86,57.86,0,0,0,.28-7,70.9,70.9,0,0,1,.59-11,78.07,78.07,0,0,0,0-20v-1.45a48.21,48.21,0,0,1-.29-11.32,56.44,56.44,0,0,0,.58-9.87v-1.45c0-.29.29-.58.29-.87a10.2,10.2,0,0,1,.28-2.9c0-2,.3-4.07.3-6.1a34.17,34.17,0,0,0-.87-7.55A8.94,8.94,0,0,0,788.46,124.33ZM765.23,176c.29,2,.58,4.36.87,6.39a14.2,14.2,0,0,0,.29,3.49,25,25,0,0,1-.29,4.64v.87a11.9,11.9,0,0,0-.29,3.19,32.08,32.08,0,0,1-.58,5.23,13.35,13.35,0,0,1-4.93,8.7,9.84,9.84,0,0,1-9.29,2.33,18.44,18.44,0,0,1-9.29-5.23,9.3,9.3,0,0,1-2.9-5.8c0-1.74-.3-3.49-.3-5.52,0-7-.58-13.93-1.16-20.9a23.83,23.83,0,0,1,.88-7.83,28.08,28.08,0,0,0,.28-11,18.61,18.61,0,0,1-.28-7,40.91,40.91,0,0,0,0-11.9,18.36,18.36,0,0,1,0-7,23.89,23.89,0,0,1,5.8-11A8.2,8.2,0,0,1,749,115a14.52,14.52,0,0,1,14.81,6.68,12.44,12.44,0,0,1,1.74,6.38c0,2.33.29,4.94.29,7.26,0,2,.29,3.78.29,5.52,0,2.9-.29,5.51-.29,7.54a27.37,27.37,0,0,0,.29,8.42,16.55,16.55,0,0,1,0,7.54A38.58,38.58,0,0,0,765.23,176Z" fill="#241b2e"/><path d="M896.74,115.33a71.1,71.1,0,0,1,.58-7.83,16.6,16.6,0,0,0,0-7.55,8.18,8.18,0,0,0-6.1-6.1,21.51,21.51,0,0,0-9.58,0,9.27,9.27,0,0,0-7.54,7.55,13.29,13.29,0,0,0-.3,5.81,34.51,34.51,0,0,1,.87,11,66.1,66.1,0,0,0,.3,7.55c0,.28.29.86,0,1.44-.3,4.65-.58,9.58-.58,14.23a3.68,3.68,0,0,1-.29,1.74v2c.29,2,.29,3.78.57,5.8.3,4.36.88,8.71.88,13.07a43.78,43.78,0,0,1-.58,10.74,53,53,0,0,0-.58,9.57V185a97.62,97.62,0,0,1-.87,12.76,13.52,13.52,0,0,1-1.17,4.94,9.62,9.62,0,0,1-2.9,4.06,20.51,20.51,0,0,1-6.1,3.2,9.84,9.84,0,0,1-11-2.61c-.3-.3-.59-.87-1.17-1.45s-.87-1.17-1.45-1.75a10.1,10.1,0,0,1-2.9-8.41,52.82,52.82,0,0,0-.29-16.55,16.6,16.6,0,0,1,0-7.55,39.08,39.08,0,0,0,.58-10.15,8.06,8.06,0,0,0-.29-2.62c-.29-4.93-.29-9.58-.29-14.22V137.1c0-4.06,0-8.12.29-12.19a20.49,20.49,0,0,0-.58-7.25c0-.59-.29-1.16-.29-1.74a42.13,42.13,0,0,1-.29-10.46,16.06,16.06,0,0,0-.58-5.22,6,6,0,0,0-4.36-4.65,17.74,17.74,0,0,0-11.61-.28c-2.9.86-4.06,2.61-4.06,5.51,0,2-.3,4.35-.3,6.39a57.86,57.86,0,0,0-.28,7v8.42a73.46,73.46,0,0,0,.28,7.84,16.41,16.41,0,0,1-.86,5.22,18.89,18.89,0,0,0,0,8.13v.58a15.62,15.62,0,0,1,.58,3.19,15.81,15.81,0,0,0,.28,3.77,103.62,103.62,0,0,1,0,13.65,67.91,67.91,0,0,0,0,7.55,22.72,22.72,0,0,1-.28,4.35,11.25,11.25,0,0,0,.28,2.9v1.16a5.49,5.49,0,0,0,.3,2v4.94a5.48,5.48,0,0,1-.3,2.32,58.76,58.76,0,0,0-.28,12.48,41.27,41.27,0,0,0,5.8,17.42,17,17,0,0,0,5.22,4.93,30.15,30.15,0,0,0,9.3,4.35h.58a112.7,112.7,0,0,0,13.35,3.49c.87,0,1.74.29,2.32.29a11.93,11.93,0,0,0,3.19.29,37.41,37.41,0,0,0,13.65-4.36,21.65,21.65,0,0,1,5.81-2.9A16.89,16.89,0,0,0,888,223c1.16-1.45,2-2.61,3.19-4.06a8.71,8.71,0,0,1,1.46-2,22.9,22.9,0,0,0,4.06-15.67,33.35,33.35,0,0,1,0-10.74,25.55,25.55,0,0,0-.29-8.13v-1.16a15.32,15.32,0,0,1-.29-3.77,11.9,11.9,0,0,1,.29-3.19c0-2.91.58-5.81.87-9a26.59,26.59,0,0,0,0-9.58,41.4,41.4,0,0,1-.58-10.45,46,46,0,0,0,.29-9,73.41,73.41,0,0,1-.29-8.13V115.33Z" fill="#241b2e"/><path d="M1098.5,111.56a3.15,3.15,0,0,0-.29-1.45,3.68,3.68,0,0,0-.29-1.74,21.8,21.8,0,0,1,0-4.35,8.06,8.06,0,0,0-.29-2.62c0-4.06-2.32-6.38-6.1-7a30.57,30.57,0,0,0-9-.28,9.3,9.3,0,0,0-5.51,2.9,19.9,19.9,0,0,0-2.62,4.06,70.58,70.58,0,0,1-5.8,10.16,17.5,17.5,0,0,0-3.19,8.42,47.93,47.93,0,0,1-3.77,10.74A140,140,0,0,0,1055,149a6.58,6.58,0,0,1-.87,2.89,5.73,5.73,0,0,1-2.62,2.62,5.85,5.85,0,0,1-3.19.87,5.61,5.61,0,0,1-4.36-4.36c-.29-1.16-.58-2.32-.87-3.77a14.18,14.18,0,0,0-2.32-6.67,30.05,30.05,0,0,1-2.9-6.1c-1.46-4.64-2.91-9.58-4.07-14.22a52.42,52.42,0,0,0-2.32-6.1c-1.45-2.61-2.61-4.93-3.77-7.54-.29-.87-.58-1.75-.87-2.91a32.48,32.48,0,0,1-1.16-3.19,10.43,10.43,0,0,0-8.14-6.1,56,56,0,0,0-9.86-.28h-.29a8.25,8.25,0,0,0-2.62.58c-2.32.58-3.77,2.32-4.64,4.64,0,1.16-.29,2.32-.29,3.48v4.07c0,4.06,0,8.12.29,12.19a44.8,44.8,0,0,1-.29,10.74v4.64c-.29,1.16-.29,2.61-.58,3.78-.29,3.48-.59,7-.59,10.44v1.16a58.11,58.11,0,0,0-.28,7v6.39a98.39,98.39,0,0,0,.87,13.35,2.19,2.19,0,0,1,.29,1.16,24.91,24.91,0,0,1,.58,6.39,8,8,0,0,1-.29,2.61,65.55,65.55,0,0,0-.29,7.54,22,22,0,0,1-.29,4.36,28.62,28.62,0,0,0-.29,8.71v.58a129.73,129.73,0,0,1,.29,15.09,12.77,12.77,0,0,0,.58,4.64,7.62,7.62,0,0,0,3.48,3.2,17.93,17.93,0,0,0,11.61,1.45,6.94,6.94,0,0,0,4.65-2.61,6.28,6.28,0,0,0,1.45-5.52,17.71,17.71,0,0,1,0-8.71v-.58l.29-.29c0-1.74.29-3.19.29-4.64v-3.48c.29-3.49.29-6.68.29-10.17a47,47,0,0,1-.29-6.38c-.29-4.93-.58-9.58-.58-14.51v-2.33a42.83,42.83,0,0,1-.29-6.09c.29-1.74.87-2.9,2.32-3.48a3.82,3.82,0,0,1,3.78,1.16,15.35,15.35,0,0,1,3.77,6.67c1.74,4.07,3.19,8.42,4.65,12.48a39.5,39.5,0,0,1,1.45,4.07,69.43,69.43,0,0,0,3.77,8.12,8.5,8.5,0,0,0,4.65,3.78,16.11,16.11,0,0,0,11-1.16c.29-.29.86-.29,1.16-.58a21.5,21.5,0,0,0,4.06-5.23,36.72,36.72,0,0,0,2-4.93c1.45-4.07,3.19-8.13,4.93-12.19a75.5,75.5,0,0,0,3.19-7,7.27,7.27,0,0,1,1.16-2,2.27,2.27,0,0,1,3.19,0,4.12,4.12,0,0,1,1.75,3.48,43,43,0,0,1-.29,6.1,17.89,17.89,0,0,0-.58,7,51.86,51.86,0,0,1,.29,11.61c-.29,3.78-.29,7.84-.29,11.62v1.74a121.89,121.89,0,0,0,.87,14.51,17,17,0,0,0,.58,3.77,7.2,7.2,0,0,0,5.22,5.51,20.23,20.23,0,0,0,5.81.88,6.78,6.78,0,0,0,7.55-4.94,8.47,8.47,0,0,0,.58-2.61,5.65,5.65,0,0,0,.29-2.32,14.16,14.16,0,0,0,.29-3.49V219a46.84,46.84,0,0,0,.29-11,25.55,25.55,0,0,1-.29-8.13,28.79,28.79,0,0,0,0-12.19,48.46,48.46,0,0,1-.29-17.13,81.29,81.29,0,0,0,.29-16.83V151a107,107,0,0,1,0-13.64v-.29a27.36,27.36,0,0,0,.29-8.42,24.1,24.1,0,0,1,.29-10.15A14.18,14.18,0,0,0,1098.5,111.56Z" fill="#241b2e"/><path d="M1204.46,93.56a51.55,51.55,0,0,0-9.29,1.46c-2.32.87-4.35,2-5.52,4.35a47.9,47.9,0,0,0-5.8,10.74c-.29,1.16-.58,2-.87,3.19s-.87,2.32-1.16,3.48a35.37,35.37,0,0,1-5.81,10.16c-.29.59-.58.87-.87,1.46-.29.28-.58.58-.87.87a3.86,3.86,0,0,1-2.32.87,3.32,3.32,0,0,1-2.33-.87,9.76,9.76,0,0,1-1.45-2,23.71,23.71,0,0,0-3.48-5.8c-.87-1.45-1.45-3.19-2.32-4.65a108.14,108.14,0,0,0-4.65-10.15c-1.16-1.75-2-3.78-3.19-5.52a25.5,25.5,0,0,0-1.74-2.9l-.29-.29a11.76,11.76,0,0,0-4.94-4.36,21.46,21.46,0,0,0-10.45-.87c-2.32.87-4.06,2-4.93,3.78a7,7,0,0,0-.3,6.38A80.17,80.17,0,0,0,1138,115a31.4,31.4,0,0,1,5.23,11.9,14.41,14.41,0,0,0,2.61,6.1,34.64,34.64,0,0,1,3.48,6.38,43.31,43.31,0,0,0,3.2,6.39c1.74,2.9,3.19,5.51,4.64,8.42a31.69,31.69,0,0,1,1.45,4.93,36.81,36.81,0,0,0,1.74,8.13,15.32,15.32,0,0,1,.59,6.38,81.49,81.49,0,0,0,0,8.42v2a7.21,7.21,0,0,1,.29,2.32,23.44,23.44,0,0,1-.29,4.64v1.74a57,57,0,0,0,1.15,13.93,17.76,17.76,0,0,1-.28,7.84,12.61,12.61,0,0,0,.58,10.74c0,.29.29.58.29.87l.87,1.74a7.4,7.4,0,0,0,3.19,3.49,17.21,17.21,0,0,0,6.68,1.45h.58a1.7,1.7,0,0,0,1.16-.3c4.07-.28,6.39-2.32,7.25-6.09a17.25,17.25,0,0,0,.3-4.06V211.12c0-1.16.29-2.33.29-3.49a34.46,34.46,0,0,0-.29-12.19,18.51,18.51,0,0,1,0-7v-.58a137.39,137.39,0,0,0,1.16-15.38,66.26,66.26,0,0,1,.58-7.26v-.58a20,20,0,0,1,1.45-7,31.49,31.49,0,0,0,2.91-7.26,37.23,37.23,0,0,1,4.06-8.41,58.28,58.28,0,0,0,5.81-11,65.74,65.74,0,0,1,7.25-15.09,41.05,41.05,0,0,0,5.52-13.94c.58-2.61.29-4.64-1.16-6.09C1209.11,94.15,1207.07,93.56,1204.46,93.56Z" fill="#241b2e"/><path d="M424.13,153.65c-9.29-10.45-24.68,4.93-15.39,15.38,15.39,18,35.12,20.61,56.61,12.48,16.55-6.09,45.29-31.06,61-14.51,9.87,10.16,25.26-5.23,15.68-15.38C504,111.85,456.35,190.8,424.13,153.65Z" fill="#241b2e"/><path d="M1391.13,153.65c-32.23,37.15-79.84-41.8-117.87-2-9.58,10.15,5.81,25.54,15.39,15.38,16-16.55,44.71,8.42,61.25,14.51,21.48,8.13,41.23,5.51,56.61-12.48C1415.8,158.58,1400.42,143.2,1391.13,153.65Z" fill="#241b2e"/></g></g></svg>