<svg xmlns="http://www.w3.org/2000/svg" viewBox="0 0 1672.83 917.54"><g id="Layer_2" data-name="Layer 2"><g id="Layer_1-2" data-name="Layer 1"><path d="M1048.68,816.13a13.29,13.29,0,0,1-1.46-.29l-3.48-.58-38-11a90.57,90.57,0,0,1-63.86,37.15c-3.19.29-6.39.58-9.58.58a90.53,90.53,0,0,1-25-2.9A94.48,94.48,0,0,1,885,842.25h-2.62a113.73,113.73,0,0,1-26.41-3.77,122.17,122.17,0,0,1-22.36,3.19h-3.48a91.91,91.91,0,0,1-29.61-4.93c-.3.29-.58.29-1.17.29a111.38,111.38,0,0,1-38,4.64,33.42,33.42,0,0,1-5.52.29h-.29a90.56,90.56,0,0,1-58.06-21.18,104.4,104.4,0,0,1-11.32-11.33l-20,5.81-3.19.58h-.3a93.36,93.36,0,0,1-93.77,86.49,401.8,401.8,0,0,1-81-8.12c-7.25,3.19-14.51,6.39-22.06,9-68.52,25.54-140.51,18.86-183.47-47.61a95,95,0,0,1-11.9-26.7c-25-10.45-46.74-25.54-63-47l-86.51,39.76L92.42,730.21C81.68,696,93,643.71,109.84,599.6l-8.71-8.71L37,522.1l75.19-56a15.94,15.94,0,0,1,2.61-2c-5.22-31.35,4.94-58.92,23.23-78.95-7-20.32-9.29-42.67-5.23-67.34,3.48-21.48,13.35-39.47,27.29-52.82v-3.78c-.87-59.21,48.77-100.72,101.6-97.53a201.17,201.17,0,0,1,26.71-27.57c33.1-28.44,76.35-29,109.16-10.16,24.09-32.22,60.38-43.54,97.54-39.47a83.11,83.11,0,0,1,37.16-13.36,89.31,89.31,0,0,1,58.06,12.2,90.82,90.82,0,0,1,53.12-35.13,97.54,97.54,0,0,1,38.91-.86A87.93,87.93,0,0,1,715.7,62a92.56,92.56,0,0,1,51.09-14.22A95.79,95.79,0,0,1,810,59.15a90.37,90.37,0,0,1,34.85-9.59h.28a110.25,110.25,0,0,1,46.75,2.33,34,34,0,0,0,5.22-1.46l1.45-.29,1.45-.28a91.47,91.47,0,0,1,21.77-2A105.79,105.79,0,0,1,938.36,49c1.75.3,3.49.88,5.52,1.16A101,101,0,0,1,979,48.41c3.77.57,7.25,1.45,11,2.32A81.42,81.42,0,0,1,1001.65,49c4.64-.29,9.29-.57,13.93-1.16,2.9,0,5.81-.28,8.71-.28a150.12,150.12,0,0,1,16.26.87h4.06a90.78,90.78,0,0,1,74,37.44,87.85,87.85,0,0,1,58.93-12.78,83.11,83.11,0,0,1,37.16,13.36c37.45-4.07,74,7.25,98.12,40.35,32.81-19.74,76.64-19.45,110,9.28a201.17,201.17,0,0,1,26.71,27.57c52.83-3.19,102.47,38.32,101.6,97.53v3.78a93.16,93.16,0,0,1,27.58,52.82c3.77,24.67,1.45,47-5.52,67.34,18.59,20.32,28.74,48.18,22.94,79.82.58.29.87.87,1.45,1.16l75.19,56-64.16,68.79L1600,599.6c16.84,44.11,28.16,96.07,17.42,130.61l-28.16,91.43-85.93-39.18c-16,21.19-37.74,36.28-62.41,46.44A87.68,87.68,0,0,1,1429,855.6c-17.7,27.29-43.25,47.32-74.6,56.31-47.9,13.93-88.55-.29-130.35-17.7a407.52,407.52,0,0,1-81.58,8.12,93.72,93.72,0,0,1-78.09-41.21,95.47,95.47,0,0,1-15.67-45Z" fill="#c56b9f" fill-rule="evenodd"/><path d="M1011.71,768.6a12.44,12.44,0,0,1-1.46-.3l-3.48-.58-38-11a90.53,90.53,0,0,1-63.86,37.15c-3.2.3-6.39.59-9.59.59a90.51,90.51,0,0,1-25-2.91A93.54,93.54,0,0,1,848,794.71h-2.62A113.35,113.35,0,0,1,818.94,791a122.81,122.81,0,0,1-22.35,3.19h-3.48a91.65,91.65,0,0,1-29.61-4.94c-.3.29-.58.29-1.17.29a111.41,111.41,0,0,1-38,4.65,33.24,33.24,0,0,1-5.51.29h-.29a90.51,90.51,0,0,1-58.06-21.19,104.3,104.3,0,0,1-11.32-11.32l-20,5.8-3.2.58h-.29a93.38,93.38,0,0,1-93.77,86.5,401.8,401.8,0,0,1-81-8.12c-7.25,3.19-14.51,6.38-22.06,9-68.52,25.54-140.51,18.87-183.48-47.6a95.75,95.75,0,0,1-11.9-26.71c-25-10.44-46.74-25.54-63-47L83.9,774.11,55.45,682.68c-10.74-34.25.58-86.5,17.41-130.61l-8.7-8.72L0,474.57l75.19-56a15.85,15.85,0,0,1,2.61-2c-5.22-31.36,4.93-58.93,23.23-79-7-20.31-9.3-42.66-5.23-67.33,3.48-21.49,13.35-39.48,27.29-52.83v-3.77c-.87-59.21,48.77-100.72,101.6-97.53A200,200,0,0,1,251.4,88.53c33.1-28.45,76.35-29,109.16-10.16,24.09-32.22,60.38-43.54,97.54-39.48a83,83,0,0,1,37.16-13.35,89.37,89.37,0,0,1,58.06,12.19A90.8,90.8,0,0,1,606.44,2.61a97.73,97.73,0,0,1,38.91-.87,87.94,87.94,0,0,1,33.38,12.77A92.37,92.37,0,0,1,729.82.29a95.78,95.78,0,0,1,43.25,11.32A90.36,90.36,0,0,1,807.91,2h.29a110.35,110.35,0,0,1,46.74,2.32,35.18,35.18,0,0,0,5.23-1.45l1.45-.29,1.45-.29a91,91,0,0,1,21.77-2,105.79,105.79,0,0,1,16.55,1.16c1.74.29,3.49.87,5.52,1.16A101,101,0,0,1,942,.87c3.77.58,7.25,1.45,11,2.32a80,80,0,0,1,11.61-1.74c4.64-.29,9.29-.58,13.93-1.16,2.9,0,5.81-.29,8.71-.29a152.85,152.85,0,0,1,16.26.87h4.06a90.78,90.78,0,0,1,74,37.44,87.9,87.9,0,0,1,58.93-12.77,83,83,0,0,1,37.16,13.35c37.45-4.06,74,7.26,98.12,40.35,32.81-19.74,76.64-19.45,110,9.29a199.53,199.53,0,0,1,26.72,27.57c52.83-3.19,102.47,38.32,101.6,97.53v3.77a93.22,93.22,0,0,1,27.58,52.83c3.77,24.67,1.45,47-5.52,67.33,18.58,20.32,28.74,48.19,22.93,79.83.59.28.88.87,1.46,1.15l75.19,56-64.16,68.78-8.71,8.72c16.84,44.11,28.16,96.07,17.42,130.61l-28.16,91.43-85.93-39.19c-16,21.19-37.74,36.29-62.41,46.44A87.84,87.84,0,0,1,1392,808.07c-17.71,27.28-43.25,47.31-74.6,56.31-47.91,13.93-88.55-.29-130.35-17.7a407.52,407.52,0,0,1-81.58,8.12,93.7,93.7,0,0,1-78.09-41.22,95.4,95.4,0,0,1-15.67-45Z" fill="#fff" fill-rule="evenodd"/><path d="M606.44,647.56c-.58-4.06-1.15-9.58-3.19-13.06-2.62-4.65-5.51-7.84-10.74-9a14,14,0,0,0-9.58,1.74,12,12,0,0,0-5.81,7.26c-1.16,3.19-.29,5.8,0,9-.87-1.75-4.93-1.17-7-1.17-4.06,0-8.12.58-11.61,2.91s-7.84,4.93-10.16,8.7c-2.61,4.07-2,9.29-.58,13.65,2,6.67,8.13,13.64,13.94,17.12s12.19,4.07,18.58,3.2A120.07,120.07,0,0,1,598,686.45c2.6,0,4.93-1.16,7.54-1.16,1.16,0,2.32.87,3.49.58l1.15-.29c-1.15-7.84-2.32-15.67-2.9-23.51-.28-4.65-.28-9.58-.87-14.51Z" fill="#ea4b85"/><path d="M1087.47,653.94c-2.32-3.77-6.67-6.38-10.16-8.7s-7.54-2.91-11.6-2.91c-2,0-6.1-.58-7,1.17.3-3.2,1.17-5.81,0-9-1.15-2.91-2.9-5.81-5.8-7.26a14,14,0,0,0-9.58-1.74c-5.23,1.16-8.13,4.35-10.74,9-2,3.48-2.62,9-3.19,13.06-.58,4.93-.58,9.86-.88,14.51-.58,7.84-1.74,15.67-2.9,23.51l1.16.29c1.16.29,2.32-.58,3.49-.58,2.61,0,4.93,1.16,7.54,1.16a120.18,120.18,0,0,1,17.71,1.46c6.39.87,12.77.28,18.58-3.2s11.9-10.45,13.93-17.12c1.46-4.36,2-9.58-.58-13.65Z" fill="#ea4b85"/><path d="M636.05,161.09a45.65,45.65,0,0,1,.3-6.39v-5.22a1.09,1.09,0,0,1,.28-.87v-.29c.29-2,.29-4.06.58-6.1v-2.61a6.39,6.39,0,0,1-.29-2.32,46.31,46.31,0,0,0-.57-9,34.17,34.17,0,0,1,0-7.83v-.29a33.77,33.77,0,0,0,.57-7.55,25,25,0,0,1-.29-4.65v-3.48a97.17,97.17,0,0,1,0-12.77c0-4.06-2-6.68-5.8-7.26a11.89,11.89,0,0,0-5.52.29,5.15,5.15,0,0,0-4.06,3.2A9.61,9.61,0,0,0,619.8,92a56,56,0,0,0,0,13.93v8.71a25.47,25.47,0,0,0,0,8.13,19.21,19.21,0,0,1,.29,7c0,1.16-.29,2.32-.29,3.78.29,2.9.57,5.8.87,8.7v1.46a63.37,63.37,0,0,1-.3,7.54,40.92,40.92,0,0,0-.28,8.42,18,18,0,0,1-.29,5.52,21.42,21.42,0,0,0,0,6.09V175a28.25,28.25,0,0,0,.29,4.94,13.57,13.57,0,0,1,.58,4.93c0,.87.29,2,.29,2.9a5.86,5.86,0,0,0,4.64,4.94,10.85,10.85,0,0,0,5.23.58c2.9,0,4.64-1.45,5.52-4.36a7.47,7.47,0,0,0,.57-3.48c0-2,.29-4.35.29-6.38a37.17,37.17,0,0,0-.29-12.78A16.66,16.66,0,0,1,636.05,161.09Z" fill="#241b2e"/><path d="M720.82,139.61v3.2c0,1.15-.29,2.61-.29,4.06,0,3.19-.29,6.38-.58,9.57a24.92,24.92,0,0,0,0,11.33,35.45,35.45,0,0,1,.58,9.57c0,1.45-.29,3.2-.29,4.94a11.65,11.65,0,0,0,1.46,7,5.62,5.62,0,0,0,2.6,2.61,20.34,20.34,0,0,0,9,2h8.13c.58,0,1.17-.29,2-.29h1.75a35.34,35.34,0,0,1,7.83,0,20,20,0,0,0,9.29-.58,5.72,5.72,0,0,0,3.2-3.2,15.84,15.84,0,0,0,1.74-5.22,5.26,5.26,0,0,0-2.62-5.51,4.64,4.64,0,0,0-2.61-.88h-.58a29.7,29.7,0,0,0-7.25-.87,33.91,33.91,0,0,1-5.52,0,38.67,38.67,0,0,0-5.8,0,1,1,0,0,1-.58-.29,5.63,5.63,0,0,1-5.52-4.93,47.06,47.06,0,0,1-.29-6.39,51.42,51.42,0,0,0,0-13.35,30.29,30.29,0,0,1,0-7.25c.29-1.17.29-2.62.58-4.06.29-2.91.29-6.1.29-9.29V130c0-2-.29-4.06-.29-6.09a35.16,35.16,0,0,1,0-11,10.64,10.64,0,0,0,0-5.23,18.85,18.85,0,0,1,0-9,15.36,15.36,0,0,0-.58-8.13c-1.16-4.07-3.78-6.1-8.13-6.1h-.29a7.35,7.35,0,0,0-6.38,3.2A8,8,0,0,0,720,92.88a28.19,28.19,0,0,0,.29,4.94c.29,1.15.29,2.61.58,3.77a48.52,48.52,0,0,1-.58,9.29,85.76,85.76,0,0,0-1.16,14.8V126a31.61,31.61,0,0,0,1.16,7.55A43.26,43.26,0,0,1,720.82,139.61Z" fill="#241b2e"/><path d="M851.75,111.46c0-.87-.29-1.75-.29-2.33a21.12,21.12,0,0,0-2-7,48.2,48.2,0,0,0-2.9-6.68,9.16,9.16,0,0,0-4.36-4.93,21.28,21.28,0,0,0-3.49-2,26.72,26.72,0,0,1-2.89-1.45,20.37,20.37,0,0,0-13.07-2.33,34,34,0,0,1-9.29,1.16,4.79,4.79,0,0,0-3.49,1.46,49.58,49.58,0,0,0-4.06,3.19l-1.74.87a22,22,0,0,0-6.68,8.71,28.83,28.83,0,0,0-2.32,9.86,23.55,23.55,0,0,0,0,6.39,28.08,28.08,0,0,1-.29,4.93,32.92,32.92,0,0,0,.29,7.55,9,9,0,0,1,0,5.52c0,1.16-.29,2.32-.29,3.48a28.25,28.25,0,0,1-.29,4.94v6.67a3.68,3.68,0,0,1-.29,1.74,14.12,14.12,0,0,0,.29,3.48,33.21,33.21,0,0,1,0,9.29,28,28,0,0,0,0,7,52.9,52.9,0,0,0,2,7.25,30.22,30.22,0,0,0,3.78,6.68,18.31,18.31,0,0,0,7,4.65c2.61,1.16,5.23,2,7.55,2.9a16.35,16.35,0,0,1,3.48,1.16,14.72,14.72,0,0,0,3.49.58,22.39,22.39,0,0,0,4.35-.58,3.21,3.21,0,0,0,1.46-.29c5.22-.29,9.87-2.32,14.22-5.23,4.65-4.06,7.84-9,8.71-14.8a15.89,15.89,0,0,0,.29-5.23c0-2.89.29-5.8.58-8.7a70.78,70.78,0,0,0,0-15.67v-1.17a30.83,30.83,0,0,1-.29-9,61.22,61.22,0,0,0,.58-7.26v-2a7.21,7.21,0,0,1,.29-2.32,24.85,24.85,0,0,0,0-4.65A19,19,0,0,0,851.75,111.46Zm-18.29,37.73a32.2,32.2,0,0,0,.58,5.23V157a14,14,0,0,1,0,3.48v.87a6.39,6.39,0,0,0-.29,2.32c0,1.46-.29,2.9-.29,4.07a12.63,12.63,0,0,1-3.78,7,8.8,8.8,0,0,1-7.54,1.74,15.1,15.1,0,0,1-7.26-4.06,6.84,6.84,0,0,1-2-4.64,19.24,19.24,0,0,1-.29-4.07,148.53,148.53,0,0,0-.87-16.25,22.72,22.72,0,0,1,.58-6.38,27.07,27.07,0,0,0,.29-8.42,11.89,11.89,0,0,1-.29-5.52,23.49,23.49,0,0,0,0-9v-.28a15.83,15.83,0,0,1,0-5.23,21.2,21.2,0,0,1,4.64-8.71,6.12,6.12,0,0,1,3.78-2,11.61,11.61,0,0,1,11.61,5.22,9.84,9.84,0,0,1,1.45,4.94v5.81c0,1.44.29,2.89.29,4.06,0,2.32-.29,4.35-.29,6.09a15.86,15.86,0,0,0,.29,6.39,19.42,19.42,0,0,1,0,5.8A24,24,0,0,0,833.46,149.19Z" fill="#241b2e"/><path d="M934.49,85.62a25.91,25.91,0,0,0-4.36-1.45c-4.36-.58-7.55,1.17-9.29,5.52a15.44,15.44,0,0,0-1.74,7c-.29.87-.29,1.45-.58,2.32,0,1.17-.29,2.62-.29,3.78a14.71,14.71,0,0,0-.58,2.61,46.81,46.81,0,0,0-1.17,6.1c-.28,1.16-.28,2-.58,3.19a15.05,15.05,0,0,0-.57,3.48,33.07,33.07,0,0,1-1.75,7.26,103.07,103.07,0,0,0-2.9,10.16c0,.87-.29,1.45-.29,2.32a12.56,12.56,0,0,0-.29,1.45,4.21,4.21,0,0,1-.58,1.75c-1.16.87-2,.87-2.9,0a7.21,7.21,0,0,1-1.16-2,62,62,0,0,1-2.91-12.19,50.1,50.1,0,0,0-3.48-14.8,16.58,16.58,0,0,1-1.16-4.07v-1.45A18.21,18.21,0,0,0,897,101c-.58-2.62-1.45-5.23-2-7.84a18.76,18.76,0,0,0-1.16-3.77,8,8,0,0,0-6.38-4.94,14.24,14.24,0,0,0-3.49-.29,13,13,0,0,0-3.19.29,5.6,5.6,0,0,0-4.36,4.36,8,8,0,0,0-.29,2.61,13.8,13.8,0,0,0,1.46,6.67c.29,1.17.58,2.61.87,4.07a38.93,38.93,0,0,0,3.19,14.22,21.14,21.14,0,0,1,2,8.42A1.74,1.74,0,0,1,884,126c.3,2,.87,4.06,1.16,6.38.87,3.78,1.46,7.84,2.33,11.91a27.11,27.11,0,0,0,1.15,4.64,22.69,22.69,0,0,1,1.75,6.39,48.7,48.7,0,0,1,2,14.51,8.57,8.57,0,0,0,1.16,4.65,34.91,34.91,0,0,1,2,7.83,16.94,16.94,0,0,0,2.61,7.26,8.93,8.93,0,0,0,6.09,4.06,28.08,28.08,0,0,0,7-.29,6.88,6.88,0,0,0,5.81-3.77,18.06,18.06,0,0,0,3.19-7.26A65.31,65.31,0,0,1,922,171.83a2.17,2.17,0,0,0,.29-1.45,44.5,44.5,0,0,1,2-9,21.73,21.73,0,0,0,1.15-4.64,63,63,0,0,1,1.17-7.26A65.62,65.62,0,0,0,929,136.71a32.77,32.77,0,0,1,2.61-10.16,37.39,37.39,0,0,0,2.91-13.93,69.74,69.74,0,0,1,2.32-13.93,21.57,21.57,0,0,0,1.45-7.26C938.26,88.53,937.1,86.49,934.49,85.62Z" fill="#241b2e"/><path d="M1011.71,178.79c-.59-.28-1.16-.28-1.75-.58h-2c-1.16-.29-2.61-.57-3.77-.87a52.7,52.7,0,0,0-11.62-.29,15.46,15.46,0,0,1-7.25-.58,4.67,4.67,0,0,1-3.48-4.35v-3.48c0-1.74-.3-3.48-.3-5.23v-1.74a76.91,76.91,0,0,1,.59-8.42c.28-3.19,2-5.22,5.22-5.51a23.75,23.75,0,0,1,7.84-.29,55.89,55.89,0,0,0,7,0,17,17,0,0,0,3.77-.58,6.72,6.72,0,0,0,4.06-5.23,11.15,11.15,0,0,0-1.16-7,9.21,9.21,0,0,0-3.19-2.62,27.25,27.25,0,0,0-10.74-1.16,17,17,0,0,1-5.51,0,7.57,7.57,0,0,1-4.94-2,5.25,5.25,0,0,1-2.32-4.64,12.46,12.46,0,0,1,0-4.64,18.21,18.21,0,0,0,0-5.52,30.37,30.37,0,0,1,0-7.26,5.85,5.85,0,0,1,5.22-4.35c1.74,0,3.78-.29,5.51-.29h4.07a69.94,69.94,0,0,1,10.74-.87,10.25,10.25,0,0,0,3.2-.59,4.88,4.88,0,0,0,2.9-2,6.54,6.54,0,0,0,1.74-4.06,13.15,13.15,0,0,0-.87-4.65,6.91,6.91,0,0,0-7-4.94h-4.93a43,43,0,0,1-8.71-.29,19.83,19.83,0,0,0-5.81-.58H985c-4.64.58-9,.87-13.65,1.17a9.44,9.44,0,0,0-4.64,2,8.34,8.34,0,0,0-2,5.22,21.2,21.2,0,0,0-.29,6.1v1.74a16.06,16.06,0,0,0,.58,5.22,40.79,40.79,0,0,1,.58,15.67c0,.59-.29,1.46-.29,2a42.17,42.17,0,0,0-.58,10.45c0,2.32.29,4.64.29,7v5.52a21.8,21.8,0,0,0,0,4.35,10.91,10.91,0,0,1,0,6.1,23.43,23.43,0,0,0,0,9,15.62,15.62,0,0,1,.29,6.39,21.51,21.51,0,0,0-.29,6.09,26.46,26.46,0,0,1,.87,6.68,11.9,11.9,0,0,0,.29,3.19v.29c.29,3.2,1.74,4.94,4.93,5.23a35.53,35.53,0,0,1,5.52.58c2.32.29,4.36.29,6.68.58a35.3,35.3,0,0,0,9.57-.29,40.85,40.85,0,0,1,8.42,0c1.75,0,3.49.29,5.23.29a10.81,10.81,0,0,0,6.39-2.32c2-1.45,3.19-3.77,3.48-7.26S1014.9,179.66,1011.71,178.79Z" fill="#241b2e"/><path d="M767.56,654.81c0-3.19,0-6.38-.29-9.28-.29-2.33-.29-4.36-.58-6.68a24,24,0,0,0-1.16-7.55c-.58-1.74-.88-3.48-1.45-5.22a15.47,15.47,0,0,0-3.49-6.39c-1.74-2-3.77-4.35-5.8-6.67-.58-.87-1.46-1.74-2.33-2.91a32,32,0,0,0-3.19-3.19,15.15,15.15,0,0,0-4.35-2,46.16,46.16,0,0,1-5.81-2h-.29a9.89,9.89,0,0,0-6.38-.87h-6.1a23.77,23.77,0,0,0-7.84-.29c-4.06.58-6.1,2.61-6.38,6.38a78.83,78.83,0,0,1-.29,8.13c0,2.9.29,5.51.57,8.42a13.62,13.62,0,0,1,0,4.93c-.28,1.45-.28,2.62-.57,4.07a111,111,0,0,0,.87,17.12V651a31.48,31.48,0,0,1,0,7.26,31.6,31.6,0,0,0,0,10.45,50.9,50.9,0,0,1,.28,6.67.28.28,0,0,0-.28.29,41.48,41.48,0,0,0-.3,6.1,25.18,25.18,0,0,1-.28,8.12,17.62,17.62,0,0,0,0,5.52,23.44,23.44,0,0,1-.29,4.64,20.13,20.13,0,0,0,.57,5.81,5.58,5.58,0,0,0,2.32,2.9,5.52,5.52,0,0,0,3.78,1.45h2a21.49,21.49,0,0,1,6.1,0,44.59,44.59,0,0,0,12.48-1.45,38.85,38.85,0,0,0,12.48-6.39,26.52,26.52,0,0,0,7-8.12,17.1,17.1,0,0,0,1.16-2.32,8.84,8.84,0,0,1,1.46-2.91,111.74,111.74,0,0,0,5.51-15.67,12.92,12.92,0,0,0,.29-4.64,28.25,28.25,0,0,1-.29-4.94,4.3,4.3,0,0,0,.29-2A29.46,29.46,0,0,0,767.56,654.81Zm-16.25,6.68a15.1,15.1,0,0,0-.87,7.26,16.69,16.69,0,0,1-1.46,7.54l-.87,1.74c0,.29-.29.87-.29,1.17a24,24,0,0,1-9.29,11.32,10.67,10.67,0,0,1-2.61,1.16,4.38,4.38,0,0,1-5.81-2.32,8.15,8.15,0,0,1-.58-5.81,90.27,90.27,0,0,0,.87-12.48,56.47,56.47,0,0,0-.58-7v-1.45a4.3,4.3,0,0,1-.29-2,33.16,33.16,0,0,1-.58-7.55l.87-7.83a19,19,0,0,0-.58-7,22.05,22.05,0,0,1-.29-7.55v-2.61a9.87,9.87,0,0,1,.29-2.9A10.29,10.29,0,0,1,730.4,622a4.94,4.94,0,0,1,6.68-1.17,15.9,15.9,0,0,1,8.13,7.55v.29a50.56,50.56,0,0,0,3.19,5.23,21.6,21.6,0,0,1,2.61,8.7,24.08,24.08,0,0,1,0,4.65,46,46,0,0,0,.3,9,5.84,5.84,0,0,1,.28,2.32A11.25,11.25,0,0,1,751.31,661.49Z" fill="#241b2e"/><path d="M849.14,689.64v-.28a36.1,36.1,0,0,0-2.61-11,51.71,51.71,0,0,1-2.91-11.61,36.48,36.48,0,0,0-1.16-4.64,37.92,37.92,0,0,1-1.74-7.84c-.59-2-.87-4.06-1.45-5.8,0-.58-.29-1.45-.29-2a24.58,24.58,0,0,0-2.33-10.15,22.09,22.09,0,0,1-2.61-8.42,58.23,58.23,0,0,0-1.16-7c-.29-1.16-.58-2.61-.87-4.06a56.2,56.2,0,0,0-3.48-10.45c0-.29-.29-.58-.29-.87a8,8,0,0,0-3.78-3.77,11.84,11.84,0,0,0-6.39-.29,10.65,10.65,0,0,0-5.8,2.32,5.33,5.33,0,0,0-1.46,2,13.32,13.32,0,0,0-2.32,5.52,29.45,29.45,0,0,1-1.74,7.25,21.72,21.72,0,0,0-1.16,4.64,14.34,14.34,0,0,1-1.45,7,46.88,46.88,0,0,0-1.45,6.1c-.58,2.9-1.16,5.51-1.75,8.13a24.87,24.87,0,0,0-.87,3.77,37,37,0,0,1-2.32,9.87,4.9,4.9,0,0,0-.87,2.9c-1.16,5.22-2.61,10.45-4.06,15.67v.29a1.74,1.74,0,0,1-.29,1.16,37.25,37.25,0,0,0-1.46,8.13c0,1.16-.28,2.33-.28,3.48a95.64,95.64,0,0,1-2.62,9.88c-.29.28-.29.28-.29.57l-.87,2.62a6.06,6.06,0,0,0,1.16,4.93c.88,1.45,2.62,2.32,4.94,2.32a22.08,22.08,0,0,0,6.09-.87,6.79,6.79,0,0,0,4.94-4.35,13.51,13.51,0,0,0,1.74-6.68v-2.61c.87-3.77,2.91-5.81,7-6.09a1,1,0,0,0,.87-.3,73.46,73.46,0,0,0,7.84-.28h2.9a9.43,9.43,0,0,1,6.39,3.47,20.45,20.45,0,0,1,3.19,7.84v1.45l.87,3.49a5.66,5.66,0,0,0,3.48,3.77,20.56,20.56,0,0,0,8.14,1.74,4.41,4.41,0,0,0,4.64-3.48,12.07,12.07,0,0,0-.29-5.52A78,78,0,0,1,849.14,689.64Zm-27.58-18c-.58,0-1.16.29-2,.29h-.29a12.73,12.73,0,0,1-2.91-.58c-2.32-.58-3.48-2.33-3.48-4.94a16.62,16.62,0,0,1,1.16-4.06,25.7,25.7,0,0,0,2-8.13,8,8,0,0,1,.87-3.77c.88-.87,1.45-1.45,2.62-1.45a2.4,2.4,0,0,1,2.32.87,12.61,12.61,0,0,1,1.16,2,13.13,13.13,0,0,1,.87,4.64c.29,3.49.58,6.68,1.16,9.87C825.91,669.33,824.46,671.07,821.56,671.65Z" fill="#241b2e"/><path d="M918.52,602a54,54,0,0,0-7.26,1.16,9,9,0,0,0-4.64,3.19,30.12,30.12,0,0,0-4.07,8.71c-.29.87-.58,1.45-.87,2.32l-.87,2.61a32.37,32.37,0,0,1-4.65,8.13c-.28.29-.28.58-.57,1.16-.3,0-.59.29-.88.58a2.13,2.13,0,0,1-1.74.58,4.12,4.12,0,0,1-1.74-.58,6.07,6.07,0,0,1-1.16-1.74,34.53,34.53,0,0,0-2.61-4.35c-.58-1.17-1.17-2.33-1.75-3.78-1.16-2.61-2.32-5.22-3.77-7.83a31.79,31.79,0,0,1-2.32-4.36c-.58-.87-.88-1.45-1.45-2.32-.29,0-.29,0-.29-.29A13.93,13.93,0,0,0,874.1,602a15.36,15.36,0,0,0-8.13-.58c-1.74.58-3.19,1.45-3.77,2.9a5.89,5.89,0,0,0-.29,4.93,37,37,0,0,0,4.94,9.58,26.15,26.15,0,0,1,3.77,9.29,13.45,13.45,0,0,0,2,4.65,43.66,43.66,0,0,1,2.9,4.93,25.15,25.15,0,0,0,2.33,4.93c1.45,2.32,2.61,4.36,3.77,6.68a14.39,14.39,0,0,1,.87,3.77,51.05,51.05,0,0,0,1.45,6.39,13.57,13.57,0,0,1,.58,4.93,48.8,48.8,0,0,0-.28,6.39,3.8,3.8,0,0,1,.28,1.74V678a2.29,2.29,0,0,1-.28,1.17,47.59,47.59,0,0,0,1.15,11,12.89,12.89,0,0,1-.29,5.8,12.09,12.09,0,0,0,.29,8.42c.29.29.29.58.58.87a1.48,1.48,0,0,0,.59,1.16,4.09,4.09,0,0,0,2.32,2.61,8.62,8.62,0,0,0,5.22,1.16h1.46c2.9-.29,4.93-1.74,5.51-4.64a13,13,0,0,0,.29-3.2v-9a8.12,8.12,0,0,1,.29-2.62,26.57,26.57,0,0,0-.29-9.57,17.62,17.62,0,0,1,0-5.52v-.29a82,82,0,0,0,.87-11.9,37,37,0,0,0,.29-5.8v-.3a19.09,19.09,0,0,1,1.46-5.51c.87-1.74,1.45-3.77,2.32-5.8a25.45,25.45,0,0,1,2.9-6.39,31.54,31.54,0,0,0,4.65-8.71,43.53,43.53,0,0,1,5.8-11.61,35.61,35.61,0,0,0,4.06-11,4.42,4.42,0,0,0-.86-4.64A5.51,5.51,0,0,0,918.52,602Z" fill="#241b2e"/><path d="M1309.27,641.75c2.61-15.09,6.68-29.89,13.93-42.37-1.74,14.51-7,29-13.93,42.37Zm67.63,31.64h2a17.5,17.5,0,0,1-2.32,2.32,6.6,6.6,0,0,0,.28-2.32Zm-64.15-513.46c-9.58,45.86,10.74,79.24,47.9,104.78h.29c2.62,5.52,5.52,11,8.13,16.54-14.23-9.57-30.78-14.8-47.9-17.12-10.16-1.45-15.39,10.16-10.16,18.29,14.22,22.93,47.32,34.25,72,40.93a5.87,5.87,0,0,0,2,.28,352.62,352.62,0,0,1,13.64,67.05c-9.58-16-21.78-29.89-39.19-35.7-7.55-2.32-14.23,1.45-15.68,9.29-7,32.8,31.65,63.27,56.32,77.79.29,0,.29,0,.29.29a337.2,337.2,0,0,1-6.1,54,103.37,103.37,0,0,0-21.76-38.9c-4.36-4.93-13.94-6.67-18,0-19.45,31.35,2.91,71.11,22.35,97.52.3.3.59.88.88,1.17-2.32,5.51-4.35,11.32-7,16.54A299.1,299.1,0,0,1,1340,627.82c6.39-19.15,9-39.48,4.35-59.21-2-8.13-11-13.35-18.28-7.55-37.45,29.61-40.36,85.05-45.58,128.87a291.53,291.53,0,0,1-52,31.94c12.19-17.13,19.16-37.45,17.71-59.22-.87-9.29-11.61-11.32-18.29-7.55-29.32,17.13-40.64,54-52.54,83.31-.3.58-.3,1.45-.58,2a293.29,293.29,0,0,1-66.48,7.54c-14.52,0-17.71,22.64-2.91,22.64a326.55,326.55,0,0,0,89.71-12.48,12,12,0,0,0,3.19,2c37.16,15.67,93.77,47.31,122.8,2.32,3.77-5.52,2.9-11.61-2-16-19.74-18-46.16-15.09-70.84-9.28a279.42,279.42,0,0,0,38.9-23.8c2.33.29,4.36.29,6.68.58h1.45c41.22,2.61,103.35-4.65,112.93-50.51,1.16-6.1-4.35-11.9-10.16-12.77-17.42-2.61-35.71,1.16-52.84,8.42a334.41,334.41,0,0,0,38.61-59.79,17.66,17.66,0,0,0,5.23-.59c31.94-11,65.61-32.22,73.45-67,1.74-7.25-6.1-13.93-12.77-12.77-20.33,3.78-33.39,18-46.46,32.22a387.32,387.32,0,0,0,17.13-76.91c.29-.29.29-.29.87-.29,27.87-15.1,49.35-39.48,55.16-71.41,1.74-9.58-10.74-16.54-18.29-10.45-14.81,12.48-25,28.45-35.41,44.41a373.49,373.49,0,0,0-4.65-69.66c20.32-22.06,45.86-50.79,40.35-83-1.16-8.13-11.32-13.35-18-7.55-15.38,12.77-25.54,29.32-31.93,47.6a397,397,0,0,0-13.64-39.47,6.7,6.7,0,0,1,1.45-.88,93.18,93.18,0,0,0,33.68-71.1c.28-10.17-9.3-16-18-10.45-16.26,10.15-28.46,29.6-32.81,49.34-.29-.29-.29-.29-.29-.58-.87-36.57-20.61-75.18-47.9-98.69-7-6.09-16.55-.29-18.29,7.84Z" fill="#6fbf97"/><path d="M314.11,599.38c7.26,12.48,11.32,27.28,13.93,42.37-7-13.35-12.19-27.86-13.93-42.37Zm-53.42,76.33a17.5,17.5,0,0,1-2.32-2.32h2a6.39,6.39,0,0,0,.29,2.32Zm45.58-523.62c-27.29,23.51-47,62.12-47.9,98.69,0,.29,0,.29-.29.58-4.35-19.74-16.26-39.19-32.8-49.34-8.72-5.52-18.29.28-18,10.45a92.44,92.44,0,0,0,34,71.1,6,6,0,0,0,1.45.88,336.45,336.45,0,0,0-13.93,39.47c-6.39-18.28-16.55-34.83-31.93-47.6-6.68-5.8-16.84-.58-18,7.55-5.21,32.22,20,60.95,40.36,83a398.94,398.94,0,0,0-4.64,69.66c-10.46-16-20.62-31.93-35.42-44.41-7.55-6.09-20,.87-18.29,10.45,5.8,31.93,27.29,56.31,55.45,71.41a1,1,0,0,1,.86.29A388.12,388.12,0,0,0,234,551.19C220.92,537,208.15,522.75,187.54,519c-6.68-1.16-14.52,5.52-12.78,12.77,8.13,34.83,41.52,56,73.45,67a17.6,17.6,0,0,0,5.22.59A335.51,335.51,0,0,0,292,659.17c-17.12-7.26-35.41-11-52.83-8.42-5.81.87-11.32,6.67-9.87,12.77C238.63,709.38,300.76,716.64,342,714h1.46c2.32-.29,4.35-.29,6.67-.58a280.59,280.59,0,0,0,38.9,23.8c-24.67-5.81-51.09-8.71-70.83,9.28-4.93,4.36-5.52,10.45-2,16,29,45,85.64,13.35,122.8-2.32a12,12,0,0,0,3.19-2,326.53,326.53,0,0,0,89.7,12.48c14.81,0,11.91-22.64-2.61-22.64a293.8,293.8,0,0,1-66.76-7.54c-.3-.58-.3-1.45-.59-2-11.9-29.32-23.22-66.18-52.55-83.31-6.67-3.77-17.41-1.74-18,7.55-1.74,21.77,5.52,42.09,17.42,59.22a291.53,291.53,0,0,1-52-31.94c-5.22-43.82-8.13-99.26-45.57-128.87-7.26-5.8-16.26-.58-18,7.55-4.94,19.73-2.33,40.06,4.35,59.21-12.19-16.83-22.35-35.41-31.06-55.15-2.62-5.22-4.65-11-7-16.54.29-.29.58-.87.87-1.17,19.74-26.41,41.81-66.17,22.36-97.52-4.07-6.67-13.65-4.93-18,0A103.53,103.53,0,0,0,243,496.34a338.33,338.33,0,0,1-6.09-54,.28.28,0,0,1,.29-.29c24.67-14.52,63.28-45,56.31-77.79-1.45-7.84-8.12-11.61-15.38-9.29-17.71,5.81-29.9,19.74-39.48,35.7a351.87,351.87,0,0,1,13.65-67.05,5.83,5.83,0,0,0,2-.28c24.68-6.68,57.78-18,72.29-40.93,4.93-8.13,0-19.74-10.45-18.29-17.13,2.32-33.67,7.55-47.61,17.12,2.32-5.51,5.22-11,8.13-16.54H277c36.87-25.54,57.19-58.92,47.61-104.78-1.74-8.13-11.32-13.93-18.29-7.84Z" fill="#6fbf97"/><path d="M371,574.12c-9-4.06-18.58-7-27-11.61-7.26-3.77-21.49-7.25-27-12.48-9.29-9-4.93-45.27-4.93-58.63,0-21.19,1.16-63.57,1.16-62.11l-.59-7c-12.48,4.36-107.41,4.07-186.95,63.56,16.55,17.71,44.42,42.67,45.58,54.28-23.52,38.32-40.07,103.34-35.41,117.56,51.95-23.8,107.69-45.28,165.17-52.83A683.44,683.44,0,0,1,415.13,600C414,586,382.33,579.06,371,574.12Z" fill="#ea4b85"/><path d="M1510.16,485.88c-79.55-59.49-174.47-59.2-187-63.56l-.58,7c0-1.46,1.16,40.92,1.16,62.11,0,13.36,4.36,49.63-4.93,58.63-5.52,5.23-19.75,8.71-27,12.48-8.42,4.65-18,7.55-27,11.61-11.32,4.94-43,11.9-44.12,25.83a683.49,683.49,0,0,1,114.09,4.94c57.47,7.55,113.21,29,165.17,52.83,4.65-14.22-11.9-79.24-35.41-117.56,1.16-11.61,29-36.57,45.58-54.28Z" fill="#ea4b85"/><path d="M1269.49,511.14c11.91.58,21.78.87,29.91.58.58-5.22,1.15-10.16,1.15-13.35.88-22.93-1.45-44.7-1.45-67.63V362.82c0-23.51-2.61-45.57-3.19-68.79-11.61-.58-21.48-.58-26.42-.58-18.86,1.16-37.74-.58-56.61,0-28.15,1.45-42.67,0-43,0-16.54-.29-35.41,1.45-46.45,1.45-22.64,0-44.12,3.48-67.06,2.61-21.48-1.16-43.25-3.48-65.31-2.61-11-.29-22.65.87-32.23,1.45-18.29.58-35.42-1.45-53.71-1.45-8.7,0-17.12.29-25.83.58,0,.29.29.58,0,.87a10.87,10.87,0,0,1-2,1.74,4,4,0,0,1-2.32-2.61c-7.25.29-14.51.87-22.06.87H783c-7.55,0-14.81-.58-22.07-.87a4,4,0,0,1-2.32,2.61,10.83,10.83,0,0,1-2-1.74c-.29-.29,0-.58,0-.87-8.71-.29-17.13-.58-25.84-.58-18.29,0-35.41,2-53.71,1.45-9.57-.58-21.19-1.74-31.93-1.45-22.35-.87-44.12,1.45-65.61,2.61-22.93.87-44.41-2.61-67.35-2.61-10.74,0-29.61-1.74-46.16-1.45-.28,0-14.8,1.45-43,0-18.87-.58-37.74,1.16-56.61,0-4.93,0-14.8,0-26.41.58-.58,23.22-3.2,45.28-3.2,68.79v67.92c0,22.93-2.32,44.7-1.45,67.63,0,3.19.58,8.13,1.16,13.35,8.13.29,18,0,29.9-.58,18.87-.58,37.74,1.16,56.61,0,11-.29,28.45,1.45,42.68,0,16.25.87,35.7-.87,46.44-.87,22.94-.3,44.42-3.77,67.35-2.62,22.07.87,44.42,3.49,67.35,2.62l61.84-.58c37.16,0,73.16-.87,109.16-1.17,36.28.3,72.57,1.17,109.44,1.17l61.83.58c22.94.87,45.29-1.75,67.35-2.62,22.94-1.15,44.42,2.32,67.06,2.62,11,0,30.48,1.74,46.74.87,14.23,1.45,31.65-.29,42.67,0,18.87,1.16,37.75-.58,56.61,0Z" fill="#ea4b85"/><path d="M523.41,346.85a24.16,24.16,0,0,0-4.35-1.16c-4.64-.58-8.13,1.16-9.87,5.52a33,33,0,0,0-1.74,7.25,7.26,7.26,0,0,0-.29,2.33,22.75,22.75,0,0,0-.58,4.06,10.3,10.3,0,0,0-.58,2.9,45.16,45.16,0,0,0-1.16,6.1c-.3,1.16-.3,2-.58,3.19s-.59,2.32-.87,3.48a21.8,21.8,0,0,1-1.46,7.55,45.23,45.23,0,0,0-2.9,10.74c-.29.58-.29,1.45-.58,2v1.74c-.29.59-.58,1.16-.87,1.74-1.16.88-2,.88-2.91,0a3.61,3.61,0,0,1-1.15-2.32,60,60,0,0,1-2.91-12.48,54.78,54.78,0,0,0-3.77-15.09,19.08,19.08,0,0,1-1.16-4.35v-1.46a17.92,17.92,0,0,0-.88-5.51c-.86-2.62-1.45-5.52-2-8.13a22.73,22.73,0,0,0-1.45-4.06c-1.16-2.91-3.48-4.36-6.67-4.94a10.94,10.94,0,0,0-3.2-.29A14.12,14.12,0,0,0,468,346q-3.93.87-4.36,4.35a9,9,0,0,0-.29,2.62,18.57,18.57,0,0,0,1.16,7,25.06,25.06,0,0,1,1.17,4.35,36.36,36.36,0,0,0,3.19,14.51,32.46,32.46,0,0,1,2.32,8.71v1.16c.58,2.32.87,4.35,1.45,6.67.58,4.07,1.46,8.14,2.33,12.2a24.15,24.15,0,0,0,1.16,4.94,25.91,25.91,0,0,1,1.74,6.38,52.59,52.59,0,0,1,2,15.09,15.36,15.36,0,0,0,1.16,4.94,24.18,24.18,0,0,1,2.32,7.83,16.37,16.37,0,0,0,2.91,7.84,7.57,7.57,0,0,0,6.09,3.77,28,28,0,0,0,7,0,8.62,8.62,0,0,0,6.39-4.06,24.06,24.06,0,0,0,2.9-7.55,66.67,66.67,0,0,1,2-10.45c0-.58.29-1.16.29-1.74a33.3,33.3,0,0,1,2-9.29,21.72,21.72,0,0,0,1.17-4.64,21.84,21.84,0,0,1,1.45-7.55,67.89,67.89,0,0,0,2-13.06,30.77,30.77,0,0,1,2.61-10.45,36.46,36.46,0,0,0,3.19-14.8,82,82,0,0,1,2.33-14.23,21.74,21.74,0,0,0,1.45-7.54C527.48,350.05,526,348,523.41,346.85Z" fill="#fff"/><path d="M605.57,437.12v-.29a51.08,51.08,0,0,0-2.32-11.61,39.75,39.75,0,0,1-3.19-11.9,36.23,36.23,0,0,0-1.17-4.64,68.49,68.49,0,0,1-2-8.13,43.94,43.94,0,0,0-1.16-6.1,4.4,4.4,0,0,1-.28-2A31,31,0,0,0,592.8,382a24.94,24.94,0,0,1-2.61-8.7,60,60,0,0,0-1.16-7c-.29-1.45-.59-2.9-.88-4.36a42.88,42.88,0,0,0-3.77-10.73c0-.29-.29-.88-.29-1.16a7.43,7.43,0,0,0-4.07-3.78,11.47,11.47,0,0,0-6.38-.29,14.89,14.89,0,0,0-6.1,2.62c-.58.58-.87,1.16-1.45,1.73a20.43,20.43,0,0,0-2.32,5.81,22.66,22.66,0,0,1-2,7.55,13.34,13.34,0,0,0-.87,4.93,21.39,21.39,0,0,1-1.46,7.26,23.75,23.75,0,0,0-1.73,6.09,39.93,39.93,0,0,1-1.75,8.42c-.29,1.45-.58,2.61-.87,4.06a37.6,37.6,0,0,1-2.32,9.87,6.65,6.65,0,0,0-.87,3.2c-1.17,5.51-2.62,10.74-4.07,16v.29a2.61,2.61,0,0,0-.29,1.45,40.73,40.73,0,0,0-1.74,8.13,15.32,15.32,0,0,1-.29,3.77,58.25,58.25,0,0,1-2.9,10.16v.58a4.62,4.62,0,0,0-.88,2.62,6.43,6.43,0,0,0,1.17,5.22c.87,1.45,2.61,2.32,4.93,2.32a24.23,24.23,0,0,0,6.39-.87,7.22,7.22,0,0,0,5.22-4.35,15.09,15.09,0,0,0,1.46-7c0-.87.28-1.45.28-2.32v-.29c.59-4.07,3.2-6.39,7-6.68h1.17c2.6,0,5.51-.29,8.12-.29H580a8.55,8.55,0,0,1,7,3.77,23.6,23.6,0,0,1,3.2,7.84,2.61,2.61,0,0,0,.29,1.45,14.64,14.64,0,0,0,.58,3.49,5.36,5.36,0,0,0,3.77,4.06,20.85,20.85,0,0,0,8.42,1.74,4.12,4.12,0,0,0,4.36-3.48,9.11,9.11,0,0,0,0-5.52A91.4,91.4,0,0,1,605.57,437.12Zm-28.16-18.58h-2.32a12.42,12.42,0,0,1-3.2-.28c-2.32-.59-3.48-2.33-3.48-4.94a10.91,10.91,0,0,1,1.16-4.35,29.4,29.4,0,0,0,2-8.42,8,8,0,0,1,.86-3.77c.88-1.16,1.46-1.74,2.62-1.74a2.61,2.61,0,0,1,2.32,1.16,6.07,6.07,0,0,1,1.16,1.74,33.58,33.58,0,0,1,1.16,5.23c.29,3.19.59,6.67,1.17,10.15C581.48,416.22,580.32,418,577.41,418.54Z" fill="#fff"/><path d="M683.09,443.51a5,5,0,0,0-2.91-.87h-.29a36.1,36.1,0,0,0-7.84-.88,37.51,37.51,0,0,1-5.81,0,38.28,38.28,0,0,0-5.8-.28h-.58c-3.2-.29-5.23-2-5.52-5.23a15.81,15.81,0,0,1-.29-6.38,56.06,56.06,0,0,0,0-13.94,15.32,15.32,0,0,1,0-7.25,22.59,22.59,0,0,1,.58-4.36c.29-3.19.29-6.38.29-9.57V393c-.29-2-.29-4.06-.58-6.38a37.07,37.07,0,0,1,.29-11.32,15.77,15.77,0,0,0,0-5.22,21.44,21.44,0,0,1-.29-9.59,16.56,16.56,0,0,0-.29-8.41C652.6,348,650,346,645.63,346h-.28c-2.91-.29-4.94.87-7,3.2a17.26,17.26,0,0,0-1.75,5.51c.29,1.74.29,3.19.58,4.93a19.24,19.24,0,0,1,.29,4.07,34.59,34.59,0,0,1-.29,9.58,68.65,68.65,0,0,0-1.16,15.38,39.5,39.5,0,0,0,.87,8.13,22.09,22.09,0,0,1,.88,6.09v3.19a18.66,18.66,0,0,0-.3,4.07,60.17,60.17,0,0,1-.87,10.16,38.94,38.94,0,0,0,0,11.61,27.66,27.66,0,0,1,.87,9.86,28.57,28.57,0,0,1-.58,4.94,13.76,13.76,0,0,0,1.75,7.55,5.69,5.69,0,0,0,2.61,2.61,21.9,21.9,0,0,0,9.58,2h1.74a49.31,49.31,0,0,1,6.39-.29h2.9c.29,0,.58-.29.87-.29a40.93,40.93,0,0,1,8.42.29,16.81,16.81,0,0,0,9.29-.87,5.12,5.12,0,0,0,3.49-2.9,20.28,20.28,0,0,0,1.74-5.52A5.72,5.72,0,0,0,683.09,443.51Z" fill="#fff"/><path d="M761.18,443.22a3.74,3.74,0,0,0-1.75-.29,4.3,4.3,0,0,0-2-.29c-1.16-.29-2.61-.58-3.77-.88a55.19,55.19,0,0,0-11.91-.28,16.52,16.52,0,0,1-7.54-.59,5.25,5.25,0,0,1-3.78-4.64v-3.48a31.7,31.7,0,0,0-.29-5.23v-2l.87-8.71a5.94,5.94,0,0,1,5.23-5.8,76,76,0,0,1,8.12-.29,58.49,58.49,0,0,0,7.26.29,8.94,8.94,0,0,0,3.78-.87,6.74,6.74,0,0,0,4.35-5.22,10.68,10.68,0,0,0-1.45-7.26,7.09,7.09,0,0,0-3.19-2.61,28.51,28.51,0,0,0-11-1.16,20.17,20.17,0,0,1-5.81,0,9.59,9.59,0,0,1-4.94-2,7.5,7.5,0,0,1-2.61-4.93v-4.64a19.48,19.48,0,0,0,0-5.81,20.41,20.41,0,0,1,.29-7.26c.58-2.9,2.61-4.35,5.52-4.64a33.3,33.3,0,0,1,5.51-.29h.59a14.12,14.12,0,0,0,3.48-.29c3.78-.29,7.55-.58,11.32-.58a12.33,12.33,0,0,0,3.19-.58c1.17-.29,2-1.16,3.2-2.33a6.32,6.32,0,0,0,1.45-4.06,13.13,13.13,0,0,0-.87-4.64q-1.75-5.22-7-5.23h-5.52a43.9,43.9,0,0,1-8.7-.58,43,43,0,0,0-6.1-.29h-3.19c-4.65.29-9.59.87-14.23,1.16a6.51,6.51,0,0,0-4.64,2.33,10.93,10.93,0,0,0-2.32,4.93,49.71,49.71,0,0,0-.3,6.68v1.74a33.09,33.09,0,0,0,.58,5.22,37.45,37.45,0,0,1,.88,16,7.29,7.29,0,0,0-.29,2.33,46,46,0,0,0-.87,10.74,57.86,57.86,0,0,1,.28,7v6.1a26.54,26.54,0,0,0,.29,4.64,9.74,9.74,0,0,1,0,5.81,16.86,16.86,0,0,0,0,9.29,17.3,17.3,0,0,1,.3,6.67,17.12,17.12,0,0,0-.3,6.68,45,45,0,0,1,.88,6.67v3.49c.57,3.19,2,4.93,5.23,5.22a43.42,43.42,0,0,0,5.8.58c2.32.29,4.64.58,6.67.87a59.48,59.48,0,0,0,10.16-.29,41,41,0,0,1,8.43,0H756a11.33,11.33,0,0,0,6.68-2c2-1.45,3.19-4.06,3.48-7.54S764.65,444.09,761.18,443.22Z" fill="#fff"/><path d="M854.36,373.85a16.6,16.6,0,0,0,0-7.55,29.28,29.28,0,0,1-.29-8.71,22,22,0,0,0,.29-4.35,6.54,6.54,0,0,0-4.64-5.8,15.14,15.14,0,0,0-7.26-.88c-2.91.29-4.65,2-5.23,4.94a8,8,0,0,0-.29,2.61v10.74a72.5,72.5,0,0,1,.29,16v4.07a1.05,1.05,0,0,0,.3.87c0,2.32.28,4.64.28,7v2.61a16.63,16.63,0,0,1-.58,4.07c-.58,1.16-1.16,2-2.32,2-.58.29-.87,0-1.45-.29-.29-.29-.87-.58-.87-1.16a2.2,2.2,0,0,1-.58-1.16c-.29-.87-.58-1.45-.88-2.32a6.91,6.91,0,0,0-.57-2.33c-.29-1.45-.88-3.19-1.16-4.64a1.07,1.07,0,0,1-.29-.87,41.83,41.83,0,0,0-4.36-10.45,17.74,17.74,0,0,1-1.45-3.48c-.87-2.61-1.74-5.23-2.61-8.13-.29-.58-.29-1.45-.58-2a18,18,0,0,0-2-6.68c-.28-.87-.87-1.74-1.16-2.9a40.5,40.5,0,0,0-2.61-4.93,6.86,6.86,0,0,0-5.81-3.78,19,19,0,0,0-9,1.45,5.28,5.28,0,0,0-1.45,1.17,7.24,7.24,0,0,0-2.32,7,54.42,54.42,0,0,1,0,11.9,17.88,17.88,0,0,0,0,7.84,41.27,41.27,0,0,1-.29,13.35,16.6,16.6,0,0,0,.29,8.42,33.28,33.28,0,0,1,.29,9.29v1.16l.29.29a37.71,37.71,0,0,1-.58,9.87,56.5,56.5,0,0,0-.58,7.25,81.79,81.79,0,0,1,.29,8.42,16.15,16.15,0,0,0,.58,5.23,17,17,0,0,1-.29,6.67,12.18,12.18,0,0,0,1.16,9,5.58,5.58,0,0,0,4.36,3.19c1.45.58,3.19.29,4.93,0a7,7,0,0,0,5.52-4.64,11.26,11.26,0,0,0,.87-7.55,42.88,42.88,0,0,1,.29-13.64,16.59,16.59,0,0,0,0-7.55,8,8,0,0,1,0-5.22,16.59,16.59,0,0,0,0-7.55v-2c0-1.17.58-1.74,1.74-2.32a2.46,2.46,0,0,1,2.61.87,5.7,5.7,0,0,1,1.16,2.32c.3.87.58,2,.88,3.19a1.07,1.07,0,0,1,.29.87c.28,1.16.58,2,.87,2.91a31.69,31.69,0,0,1,1.45,4.93A73.83,73.83,0,0,0,825.91,436a13.67,13.67,0,0,1,1.16,3.19,10.46,10.46,0,0,1,1.17,3.2c.57,1.16,1.16,2.61,1.74,4.06a27.6,27.6,0,0,0,2.61,6.1c1.16,2.9,3.48,4.35,6.39,4.93h8.41c.87-.29,1.75-.29,2.62-.58a4.78,4.78,0,0,0,2.9-2.32,3.63,3.63,0,0,0,.87-3.49,25.16,25.16,0,0,1,.29-8.12,31.64,31.64,0,0,0,.29-5.23,59.43,59.43,0,0,1,0-10.16,23.5,23.5,0,0,0,0-6.38,89.62,89.62,0,0,1,0-12.48c0-.58.29-.87.29-1.16a76,76,0,0,0,0-8.13v-2.61c0-1.74.29-3.48.29-5.23v-2.9a28.6,28.6,0,0,0-.87-7A23.75,23.75,0,0,1,854.36,373.85Z" fill="#fff"/><path d="M937.1,346a51.49,51.49,0,0,1-6.68-.29,47.06,47.06,0,0,0-6.39-.29c-2.61,0-5.22.29-8.13.58a26.54,26.54,0,0,1-9.57,0,28.1,28.1,0,0,0-7-.29,28.31,28.31,0,0,1-5.23.29,26.54,26.54,0,0,0-4.64.29c-3.49.58-5.22,2.62-5.52,5.81a23.54,23.54,0,0,0,1.45,7.84,5.19,5.19,0,0,0,3.78,3.19,9.65,9.65,0,0,0,4.06.29H895a30,30,0,0,1,4.94-.29c4.35.29,6.39,2.61,6.09,7a100.06,100.06,0,0,0-.57,13.06c0,.57.29,1.45.29,2a59,59,0,0,0,.58,7.26V393a9,9,0,0,1,.29,2.91,58.61,58.61,0,0,1-.59,10.15,24,24,0,0,0-.28,7.84,58.09,58.09,0,0,1,0,9.87,3.68,3.68,0,0,1-.29,1.74v5.23c0,2,.29,4.06.29,6.09.28,4.36.58,8.71.87,12.77a10.6,10.6,0,0,0,1.45,6.1,4.51,4.51,0,0,0,4.94,2.9c1.15-.29,2-.29,3.19-.58.28,0,.28,0,.58-.29a6.81,6.81,0,0,0,5.51-5.22,28.83,28.83,0,0,0,.87-7.26c0-3.19,0-6.1.29-9.29a20.66,20.66,0,0,0-.29-7.26c0-1.74-.28-3.48-.28-5.22a39.55,39.55,0,0,1,.57-5.81,23.65,23.65,0,0,0,0-7.83V409a52.13,52.13,0,0,1-.57-6.39c0-.87.28-1.74.28-2.9a5.65,5.65,0,0,0,.29-2.32,85.69,85.69,0,0,0,.29-12.2,26.64,26.64,0,0,1,.29-4.93,63.37,63.37,0,0,0,.3-7.54V369.2c.29-2.9,1.74-4.35,4.35-4.64a20.54,20.54,0,0,1,4.06-.29,45.49,45.49,0,0,0,6.68-1.16c2.9-.58,4.35-2.32,4.94-5.23a15.56,15.56,0,0,0,.29-6.38C943.77,347.44,941.16,345.4,937.1,346Z" fill="#fff"/><path d="M992.54,424.93a53.6,53.6,0,0,1,.29-6.67V413c0-.29.3-.87.3-1.16a47.42,47.42,0,0,0,.58-6.39v-2.61a8,8,0,0,1-.29-2.61,31,31,0,0,0-.59-9,40.85,40.85,0,0,1,0-8.42v-.29a31.31,31.31,0,0,0,.59-7.54c0-1.74-.29-3.19-.29-4.93v-3.49a94.87,94.87,0,0,1,0-13.06c0-4.35-2-7-5.81-7.55a12.93,12.93,0,0,0-5.81.29,5.59,5.59,0,0,0-4.35,3.19,9.52,9.52,0,0,0-1.16,4.07,81.4,81.4,0,0,0-.29,14.51,46.63,46.63,0,0,1,0,9,27.05,27.05,0,0,0,.29,8.42,18.77,18.77,0,0,1,.29,7,19.29,19.29,0,0,0-.29,4.07c.29,2.9.29,6.09.58,9v1.75a32.78,32.78,0,0,1,0,7.54,44,44,0,0,0-.58,8.71,19.48,19.48,0,0,1,0,5.81,21.5,21.5,0,0,0-.29,6.09,19,19,0,0,1,0,4.06,28.57,28.57,0,0,0,.58,4.94,32,32,0,0,1,.58,5.22,9.93,9.93,0,0,0,.29,2.91,6.58,6.58,0,0,0,4.65,5.22,16.06,16.06,0,0,0,5.22.58c3.19-.29,4.93-1.74,6.1-4.64.29-1.16.29-2.32.58-3.77a42.9,42.9,0,0,1,.29-6.1,43.22,43.22,0,0,0-.58-13.65A31.45,31.45,0,0,1,992.54,424.93Z" fill="#fff"/><path d="M1086.31,373.85a16.5,16.5,0,0,0,.29-7.55,22.05,22.05,0,0,1-.29-8.71,11,11,0,0,0,0-4.35,6.17,6.17,0,0,0-4.64-5.8,14.35,14.35,0,0,0-7-.88c-2.91.29-4.66,2-5.52,4.94,0,.87-.29,1.74-.29,2.61v1.45a42.9,42.9,0,0,1,.29,6.1v3.19a97.22,97.22,0,0,1,.29,16v4.94a56.29,56.29,0,0,1,.57,7v2.61a16.26,16.26,0,0,1-.86,4.07c-.29,1.16-.88,2-2,2a1.27,1.27,0,0,1-1.45-.29,2.25,2.25,0,0,1-1.17-1.16c-.29-.29-.29-.87-.58-1.16-.29-.87-.29-1.45-.58-2.32a6.82,6.82,0,0,1-.58-2.33c-.58-1.45-.87-3.19-1.45-4.64a1.07,1.07,0,0,0-.29-.87A41.24,41.24,0,0,0,1057,378.2a17.74,17.74,0,0,1-1.45-3.48c-.87-2.61-1.74-5.23-2.61-8.13a5.38,5.38,0,0,1-.58-2,18,18,0,0,0-2-6.68,8.28,8.28,0,0,1-1.16-2.9c-.87-1.74-1.75-3.19-2.62-4.93a7.32,7.32,0,0,0-6.09-3.78,18.41,18.41,0,0,0-8.71,1.45,2.87,2.87,0,0,0-1.45,1.17,8.17,8.17,0,0,0-2.62,7,54.48,54.48,0,0,1,.29,11.9,23.76,23.76,0,0,0-.29,7.84,51.43,51.43,0,0,1,0,13.35,20.94,20.94,0,0,0,0,8.42,33.42,33.42,0,0,1,.58,9.29v1.45A37.55,37.55,0,0,1,1028,418a29.42,29.42,0,0,0-.58,7.25,81.54,81.54,0,0,1,0,8.42,32.2,32.2,0,0,0,.58,5.23,13,13,0,0,1,0,6.67,12.11,12.11,0,0,0,.88,9,6.66,6.66,0,0,0,4.35,3.19,9.46,9.46,0,0,0,4.93,0,7.38,7.38,0,0,0,5.81-4.64,11.26,11.26,0,0,0,.87-7.55,30.85,30.85,0,0,1,.29-13.64,16.59,16.59,0,0,0,0-7.55,10.65,10.65,0,0,1-.29-5.22,13.3,13.3,0,0,0,.29-7.55,2.48,2.48,0,0,1,0-2c0-1.17.58-1.74,1.74-2.32a2.46,2.46,0,0,1,2.61.87,17.16,17.16,0,0,1,1.17,2.32c.29.87.58,2,.87,3.19a1.07,1.07,0,0,0,.29.87c.29,1.16.58,2,.87,2.91a31.69,31.69,0,0,1,1.45,4.93,73.09,73.09,0,0,0,4.07,13.64c.29,1.16.87,2,1.15,3.19.3.87.88,2,1.17,3.2a16.77,16.77,0,0,1,1.45,4.06,58.1,58.1,0,0,0,2.9,6.1c1.16,2.9,3.48,4.35,6.39,4.93h8.13c1.16-.29,2-.29,2.9-.58a5.79,5.79,0,0,0,2.9-2.32,6.2,6.2,0,0,0,.87-3.49,25.41,25.41,0,0,1,0-8.12,16.12,16.12,0,0,0,.58-5.23,59.43,59.43,0,0,1,0-10.16,22.73,22.73,0,0,0,0-6.38,89.62,89.62,0,0,1,0-12.48v-1.16a73.65,73.65,0,0,0,.3-8.13v-.87a1.79,1.79,0,0,1,0-1.74v-8.13a27.77,27.77,0,0,0-.59-7A17.88,17.88,0,0,1,1086.31,373.85Z" fill="#fff"/><path d="M1167.6,443.22a3.17,3.17,0,0,0-1.46-.29,6.33,6.33,0,0,0-2.32-.29c-1.16-.29-2.61-.58-3.77-.88a55.09,55.09,0,0,0-11.9-.28,16.89,16.89,0,0,1-7.55-.59,5.25,5.25,0,0,1-3.77-4.64v-3.48a31.7,31.7,0,0,0-.29-5.23v-2q.43-4.35.86-8.71a6,6,0,0,1,5.23-5.8,76.27,76.27,0,0,1,8.13-.29,60.78,60.78,0,0,0,7.26.29,8.93,8.93,0,0,0,3.77-.87,6.7,6.7,0,0,0,4.35-5.22,10.68,10.68,0,0,0-1.44-7.26,5.86,5.86,0,0,0-3.2-2.61,28.49,28.49,0,0,0-11-1.16,20.2,20.2,0,0,1-5.81,0,10.69,10.69,0,0,1-4.93-2,7.46,7.46,0,0,1-2.61-4.93v-4.64a20.17,20.17,0,0,0,0-5.81,20.64,20.64,0,0,1,.28-7.26c.59-2.9,2.62-4.35,5.52-4.64a33.36,33.36,0,0,1,5.52-.29h.58a14.12,14.12,0,0,0,3.48-.29c3.77-.29,7.55-.58,11.32-.58a14.93,14.93,0,0,0,3.2-.58c1.16-.29,2-1.16,3.19-2.33a6.27,6.27,0,0,0,1.45-4.06,13.13,13.13,0,0,0-.87-4.64q-1.74-5.22-7-5.23h-5.51a44,44,0,0,1-8.71-.58,42.83,42.83,0,0,0-6.09-.29h-3.2c-4.64.29-9.29.87-14.22,1.16a6.52,6.52,0,0,0-4.65,2.33,11,11,0,0,0-2.32,4.93,51.41,51.41,0,0,0-.29,6.68v1.74a32,32,0,0,0,.58,5.22,37.44,37.44,0,0,1,.87,16A7.29,7.29,0,0,0,1120,386a46,46,0,0,0-.87,10.74,55.88,55.88,0,0,1,.29,7v6.1a26.54,26.54,0,0,0,.29,4.64,9.9,9.9,0,0,1,0,5.81,16.86,16.86,0,0,0,0,9.29,17.48,17.48,0,0,1,.29,6.67,17.31,17.31,0,0,0-.29,6.68,24.72,24.72,0,0,1,.87,6.67v3.49c.58,3.19,2,4.93,5.22,5.22a43.89,43.89,0,0,0,5.81.58c2.33.29,4.65.58,6.68.87a59.54,59.54,0,0,0,10.16-.29,40.85,40.85,0,0,1,8.42,0h5.52a11.28,11.28,0,0,0,6.67-2c2-1.45,3.2-4.06,3.49-7.54S1171.08,444.09,1167.6,443.22Z" fill="#fff"/><path d="M1170.21,140.77c7.26-2.9,14.52-4.93,20.61-4.64,6.39.29,11.33,7,2,7.55a57.82,57.82,0,0,1-15.68-.87,66.16,66.16,0,0,1-7-2Zm-37.16,27c4.65-5.81,12.49-12.48,20.9-18.29a72.57,72.57,0,0,0,28.45,8.13c13.65.87,38-4.07,28.46-23.51-9.59-19.74-34.84-12.78-56.33-.58-8.13-5.23-15.09-12.2-19.45-21.19-4.06-8.13-16.25-.87-12.19,7.26a67.57,67.57,0,0,0,18.58,22c-8.13,5.81-14.8,11.61-18.58,16.26-5.51,7,4.36,16.83,10.16,9.87Z" fill="#ea4b85"/><path d="M458.68,142.81a57.82,57.82,0,0,1-15.68.87c-9-.59-4.35-7.26,2-7.55,6.09-.29,13.35,1.74,20.61,4.64a66.16,66.16,0,0,1-7,2ZM513,157.9c-3.77-4.65-10.44-10.45-18.57-16.26a67.42,67.42,0,0,0,18.57-22c4.07-8.13-8.12-15.39-12.19-7.26-4.35,9-11.32,16-19.45,21.19-21.48-12.2-46.73-19.16-56.32.58-9.58,19.44,14.81,24.38,28.46,23.51a72.57,72.57,0,0,0,28.44-8.13c8.42,5.81,16.26,12.48,20.9,18.29,5.81,7,15.68-2.91,10.16-9.87Z" fill="#ea4b85"/></g></g></svg>