<?xml version="1.0" encoding="iso-8859-1"?>
<!-- Generator: Adobe Illustrator 19.0.0, SVG Export Plug-In . SVG Version: 6.00 Build 0)  -->
<svg version="1.1" id="Layer_1" xmlns="http://www.w3.org/2000/svg" xmlns:xlink="http://www.w3.org/1999/xlink" x="0px" y="0px"
	 viewBox="0 0 512 512" style="enable-background:new 0 0 512 512;" xml:space="preserve">
<polygon style="fill:#FEDA44;" points="433.883,262.675 256,84.793 78.117,262.675 52.86,237.418 256,34.277 459.14,237.418 "/>
<polygon style="fill:#EEBF00;" points="256,34.746 256,85.261 433.414,262.675 458.672,237.418 "/>
<path style="fill:#D80029;" d="M256,113.116c-29.545,0-53.581-24.037-53.581-53.581S226.455,5.953,256,5.953
	s53.581,24.037,53.581,53.581S285.545,113.116,256,113.116z M256,41.674c-9.848,0-17.86,8.012-17.86,17.86s8.012,17.86,17.86,17.86
	c9.848,0,17.86-8.012,17.86-17.86S265.848,41.674,256,41.674z"/>
<path style="fill:#2487FF;" d="M512,506.047H0v-273.86h512V506.047z"/>
<path style="fill:#016EF1;" d="M512,506.047H256v-273.86h256V506.047z"/>
<g>
	<path style="fill:#D80029;" d="M105.258,366.878v49.866H77.395V315.297h21.718l40.722,51.581v-51.581h27.862v101.447h-22.147
		L105.258,366.878z"/>
	<path style="fill:#D80029;" d="M266.145,392.454v24.29h-72.299V315.297h71.013v24.29h-43.151v14.288h36.864v22.576h-36.864v16.003
		L266.145,392.454L266.145,392.454z"/>
</g>
<g>
	<path style="fill:#A50020;" d="M322.87,315.297h25.576l8.859,31.292l9.002-31.292h25.576l-16.717,48.438l7.287,21.147
		l21.861-69.584h30.291l-39.722,101.447h-23.147l-14.431-36.292l-14.288,36.292h-23.147l-39.722-101.447h30.148l22.004,69.584
		l7.001-21.147L322.87,315.297z"/>
	<rect x="256" y="315.297" style="fill:#A50020;" width="8.858" height="24.29"/>
	<rect x="256" y="353.875" style="fill:#A50020;" width="2.572" height="22.576"/>
	<rect x="256" y="392.454" style="fill:#A50020;" width="10.145" height="24.29"/>
	<path style="fill:#A50020;" d="M256,5.953v35.721c9.848,0,17.86,8.012,17.86,17.86s-8.012,17.86-17.86,17.86v35.721
		c29.545,0,53.581-24.037,53.581-53.581S285.545,5.953,256,5.953z"/>
</g>
<g>
</g>
<g>
</g>
<g>
</g>
<g>
</g>
<g>
</g>
<g>
</g>
<g>
</g>
<g>
</g>
<g>
</g>
<g>
</g>
<g>
</g>
<g>
</g>
<g>
</g>
<g>
</g>
<g>
</g>
</svg>
