<?xml version="1.0" encoding="iso-8859-1"?>
<!-- Generator: Adobe Illustrator 19.0.0, SVG Export Plug-In . SVG Version: 6.00 Build 0)  -->
<svg version="1.1" id="Layer_1" xmlns="http://www.w3.org/2000/svg" xmlns:xlink="http://www.w3.org/1999/xlink" x="0px" y="0px"
	 viewBox="0 0 511.995 511.995" style="enable-background:new 0 0 511.995 511.995;" xml:space="preserve">
<circle style="fill:#E21B1B;" cx="255.998" cy="255.998" r="255.998"/>
<path d="M452,256.608l-51.448-41.52l33.048-57.392l-69.824-6.104l-6.128-67.2l-58.8,28.088L258.447,60l-37.976,53.736
	l-61.272-31.752l-3.672,69.6l-68.6,3.664l25.728,65.944l-52.656,31.752l53.904,40.296l-26.952,57.4l67.376,7.328L158,426.352
	l62.472-29.312L262.128,452l36.752-54.952l57.6,28.088l4.896-68.384l67.376-1.224l-24.496-56.177L452,256.608z"/>
<g>
	<path style="fill:#FFFFFF;" d="M143.536,184h45.92v11.92h-31.392v21.96h29.256v11.92h-29.256v33.76h-14.528V184z"/>
	<path style="fill:#FFFFFF;" d="M200.608,185.088c7.264-1.135,14.607-1.689,21.96-1.656c8.681-0.837,17.377,1.43,24.544,6.4
		c4.567,4.012,7.081,9.87,6.84,15.944c-0.061,9.037-5.841,17.043-14.4,19.944v0.368c6.014,2.954,10.171,8.699,11.096,15.336
		c1.545,7.54,3.638,14.957,6.264,22.192h-14.992c-2.308-6.091-4.083-12.37-5.304-18.768c-2.248-10.4-6.016-13.696-14.288-13.92
		h-7.312v32.696h-14.4L200.608,185.088z M215.008,220.288h8.616c9.792,0,15.928-5.2,15.928-13.104
		c0-8.736-6.144-12.752-15.576-12.752c-3.006-0.086-6.012,0.153-8.968,0.712L215.008,220.288z"/>
	<path style="fill:#FFFFFF;" d="M312.224,228.288h-29.976v23.376h33.512v11.92h-48.04V184h46.272v11.92h-31.744v20.552h29.976
		V228.288z"/>
	<path style="fill:#FFFFFF;" d="M372.944,228.288h-29.976v23.376h33.512v11.92h-48.04V184h46.272v11.92h-31.744v20.552h29.976
		V228.288z"/>
	<path style="fill:#FFFFFF;" d="M144.672,320.312c2.856,1.592,6.067,2.44,9.336,2.464c4.512,0,7.04-2.112,7.04-5.256
		c0-2.92-1.944-4.632-6.872-6.4c-6.352-2.28-10.4-5.672-10.4-11.2c0-6.296,5.256-11.096,13.6-11.096
		c3.2-0.091,6.378,0.575,9.272,1.944l-1.72,5.656c-2.37-1.227-5.004-1.852-7.672-1.824c-4.456,0-6.4,2.4-6.4,4.632
		c0,2.976,2.232,4.344,7.384,6.352c6.688,2.52,9.952,5.896,9.952,11.448c0,6.184-4.696,11.568-14.656,11.568
		c-3.607,0.021-7.167-0.8-10.4-2.4L144.672,320.312z"/>
	<path style="fill:#FFFFFF;" d="M181.6,289.408v15.456h16.312v-15.456h7.04V328h-7.04v-17.008H181.6V328h-7.056v-38.592H181.6z"/>
	<path style="fill:#FFFFFF;" d="M220,289.408V328h-7.056v-38.592H220z"/>
	<path style="fill:#FFFFFF;" d="M228.064,289.928c3.556-0.583,7.157-0.851,10.76-0.8c4.049-0.303,8.079,0.808,11.4,3.144
		c2.465,2.139,3.846,5.266,3.768,8.528c0.165,3.252-1.035,6.424-3.312,8.752c-3.366,2.922-7.743,4.408-12.192,4.136
		c-1.148,0.022-2.297-0.052-3.432-0.224V328h-6.992L228.064,289.928z M235.056,307.896c1.128,0.234,2.281,0.331,3.432,0.288
		c5.256,0,8.464-2.568,8.464-7.096c0-4.288-2.976-6.584-7.84-6.584c-1.361-0.032-2.721,0.086-4.056,0.352L235.056,307.896z"/>
	<path style="fill:#FFFFFF;" d="M260,289.928c3.556-0.583,7.157-0.851,10.76-0.8c4.049-0.303,8.079,0.808,11.4,3.144
		c2.465,2.139,3.846,5.266,3.768,8.528c0.165,3.252-1.035,6.424-3.312,8.752c-3.366,2.922-7.743,4.408-12.192,4.136
		c-1.148,0.022-2.297-0.052-3.432-0.224V328H260V289.928z M266.992,307.896c1.128,0.234,2.281,0.331,3.432,0.288
		c5.256,0,8.464-2.568,8.464-7.096c0-4.288-2.976-6.584-7.84-6.584c-1.361-0.032-2.721,0.086-4.056,0.352L266.992,307.896
		L266.992,307.896z"/>
	<path style="fill:#FFFFFF;" d="M299.04,289.408V328H292v-38.592H299.04z"/>
	<path style="fill:#FFFFFF;" d="M307.096,328v-38.592h8l9.952,16.536c2.482,4.16,4.681,8.482,6.584,12.936h0.104
		c-0.456-5.152-0.624-10.12-0.624-16v-13.472h6.52V328h-7.232l-10.08-16.96c-2.554-4.309-4.862-8.758-6.912-13.328l-0.184,0.064
		c0.288,4.968,0.352,10.064,0.352,16.416V328L307.096,328L307.096,328z"/>
	<path style="fill:#FFFFFF;" d="M376.672,326.208c-3.988,1.413-8.185,2.149-12.416,2.176c-5.523,0.368-10.963-1.487-15.112-5.152
		c-3.681-3.778-5.631-8.914-5.384-14.184c-0.271-10.822,8.283-19.813,19.105-20.083c0.787-0.02,1.575,0.008,2.359,0.083
		c3.505-0.094,6.992,0.526,10.248,1.824l-1.552,5.672c-2.764-1.177-5.749-1.742-8.752-1.656c-7.102-0.64-13.379,4.6-14.018,11.702
		c-0.064,0.713-0.069,1.431-0.014,2.145c-0.682,7.01,4.447,13.245,11.456,13.928c0.643,0.063,1.29,0.077,1.935,0.041
		c1.814,0.092,3.629-0.179,5.336-0.8v-9.6h-6.808v-5.544h13.6L376.672,326.208z"/>
</g>
<g>
</g>
<g>
</g>
<g>
</g>
<g>
</g>
<g>
</g>
<g>
</g>
<g>
</g>
<g>
</g>
<g>
</g>
<g>
</g>
<g>
</g>
<g>
</g>
<g>
</g>
<g>
</g>
<g>
</g>
</svg>
