<?xml version="1.0" encoding="iso-8859-1"?>
<!-- Generator: Adobe Illustrator 19.0.0, SVG Export Plug-In . SVG Version: 6.00 Build 0)  -->
<svg version="1.1" id="Layer_1" xmlns="http://www.w3.org/2000/svg" xmlns:xlink="http://www.w3.org/1999/xlink" x="0px" y="0px"
	 viewBox="0 0 511.998 511.998" style="enable-background:new 0 0 511.998 511.998;" xml:space="preserve">
<polyline style="fill:#6EAECD;" points="231.432,321.908 296.637,500.078 326.885,429.552 395.513,463.892 336.014,301.315 "/>
<polygon style="fill:#5388B4;" points="271.376,431.054 311.317,323.38 268.711,314.675 231.437,321.921 "/>
<polyline style="fill:#6EAECD;" points="280.573,323.38 214.816,503.058 184.567,432.532 115.94,466.872 176.254,302.065 "/>
<path style="fill:#FF705B;" d="M271.735,21.031L271.735,21.031c3.711,13.048,20.634,16.413,29.056,5.78l0,0
	c10.405-13.139,31.513-4.395,29.581,12.253l0,0c-1.564,13.475,12.782,23.061,24.633,16.459l0,0
	c14.641-8.156,30.797,7.999,22.639,22.639l0,0c-6.602,11.85,2.985,26.198,16.459,24.633l0,0
	c16.648-1.932,25.391,19.175,12.253,29.581l0,0c-10.634,8.422-7.268,25.345,5.78,29.056l0,0c16.12,4.586,16.12,27.433,0,32.017l0,0
	c-13.047,3.711-16.413,20.634-5.78,29.056l0,0c13.139,10.405,4.395,31.513-12.253,29.581l0,0
	c-13.475-1.564-23.061,12.782-16.459,24.633l0,0c8.156,14.641-7.999,30.797-22.639,22.639l0,0
	c-11.85-6.602-26.198,2.985-24.633,16.459l0,0c1.932,16.648-19.175,25.391-29.581,12.253l0,0
	c-8.422-10.634-25.345-7.268-29.056,5.78l0,0c-4.586,16.12-27.433,16.12-32.017,0l0,0c-3.711-13.047-20.634-16.413-29.056-5.78l0,0
	c-10.405,13.139-31.513,4.395-29.581-12.253l0,0c1.564-13.475-12.782-23.061-24.633-16.459l0,0
	c-14.641,8.156-30.797-7.999-22.639-22.639l0,0c6.602-11.85-2.985-26.198-16.459-24.633l0,0
	c-16.648,1.932-25.391-19.175-12.253-29.581l0,0c10.634-8.422,7.268-25.345-5.78-29.056l0,0c-16.12-4.586-16.12-27.433,0-32.017l0,0
	c13.047-3.711,16.413-20.634,5.78-29.056l0,0c-13.139-10.405-4.395-31.513,12.253-29.581l0,0
	c13.475,1.564,23.061-12.782,16.459-24.633l0,0c-8.156-14.641,7.999-30.797,22.639-22.639l0,0
	c11.85,6.602,26.198-2.985,24.633-16.459l0,0c-1.932-16.648,19.175-25.391,29.581-12.253l0,0c8.422,10.634,25.345,7.268,29.056-5.78
	l0,0C244.302,4.911,267.15,4.911,271.735,21.031z"/>
<g>
	<path style="fill:#F44A46;" d="M368.058,59.09L368.058,59.09c-5.175,9.288-0.402,20.109,8.391,23.6
		c0.343-1.525,0.915-3.045,1.742-4.527l0,0c5.42-9.73,0.1-20.118-8.373-23.606C369.464,56.065,368.896,57.585,368.058,59.09z"/>
	<path style="fill:#F44A46;" d="M331.03,37.327c0.16-7.497-4.428-13.165-10.351-15.587C320.569,28.97,325.041,34.854,331.03,37.327z
		"/>
	<path style="fill:#F44A46;" d="M101.724,128.056c0.373-3.544-0.361-7.214-2.333-10.407
		C98.996,121.166,99.69,124.826,101.724,128.056z"/>
	<path style="fill:#F44A46;" d="M396.77,113.303L396.77,113.303c-10.188,8.069-7.518,23.935,4.198,28.514
		c0.764-3.526,2.696-6.878,5.934-9.441l0,0c10.775-8.534,6.827-24.257-4.123-28.574C402.044,107.292,400.124,110.646,396.77,113.303
		z"/>
	<path style="fill:#F44A46;" d="M414.258,161.963c-1.168,5.535-5.066,10.526-11.708,12.415l0,0
		c-13.048,3.711-16.415,20.634-5.78,29.056l0,0c1.637,1.296,2.931,2.757,3.916,4.32c0.669-6.348,4.893-12.283,11.996-14.303l0,0
		C428.258,189.02,428.781,167.545,414.258,161.963z"/>
	<path style="fill:#F44A46;" d="M99.861,193.45L99.861,193.45c0.546,0.155,1.069,0.342,1.581,0.542
		c1.748-8.059-2.637-17.033-11.713-19.615l0,0c-0.545-0.155-1.068-0.335-1.577-0.53C86.484,181.746,90.383,190.755,99.861,193.45z"
		/>
	<path style="fill:#F44A46;" d="M406.902,222.507L406.902,222.507c-1.614-1.278-2.9-2.754-3.884-4.346
		c-0.951,8.441-8.212,16.049-18.502,14.854l0,0c-13.475-1.564-23.061,12.782-16.459,24.633l0,0
		c8.156,14.641-7.999,30.797-22.639,22.639l0,0c-11.85-6.602-26.198,2.985-24.633,16.459l0,0
		c1.932,16.648-19.175,25.391-29.581,12.253l0,0c-8.422-10.634-25.345-7.268-29.056,5.779l0,0c-4.586,16.12-27.433,16.12-32.017,0
		l0,0c-3.711-13.047-20.634-16.413-29.056-5.779l0,0c-5.183,6.544-13.02,7.657-19.343,5.071c-0.008,0.576-0.036,1.158-0.105,1.749
		l0,0c-1.934,16.648,19.175,25.391,29.581,12.253l0,0c8.422-10.634,25.345-7.268,29.056,5.779l0,0
		c4.585,16.12,27.433,16.12,32.017,0l0,0c3.711-13.047,20.634-16.413,29.056-5.779l0,0c10.405,13.139,31.513,4.395,29.581-12.253
		l0,0c-1.565-13.475,12.782-23.061,24.633-16.459l0,0c14.641,8.156,30.797-7.999,22.639-22.639l0,0
		c-6.602-11.85,2.985-26.198,16.459-24.633l0,0C411.297,254.021,420.041,232.913,406.902,222.507z"/>
	<path style="fill:#F44A46;" d="M171.493,296.747L171.493,296.747c1.564-13.475-12.782-23.061-24.633-16.46l0,0
		c-4.911,2.736-9.989,2.727-14.268,0.967c-3.079,13.171,11.263,25.424,24.399,18.106l0,0c4.793-2.67,9.995-2.69,14.388-0.877
		C171.393,297.914,171.425,297.336,171.493,296.747z"/>
	<path style="fill:#F44A46;" d="M107.761,233.014L107.761,233.014c-2.994,0.348-5.728-0.06-8.13-1.006
		c-2.142,10.18,5.864,21.519,18.262,20.079l0,0c2.913-0.339,5.643,0.07,8.068,1.034C128.363,242.458,119.55,231.646,107.761,233.014
		z"/>
</g>
<circle style="fill:#E6E6E6;" cx="255.729" cy="177.234" r="111.588"/>
<path style="fill:#D1D1D1;" d="M321.853,87.339c13.637,18.508,21.701,41.374,21.701,66.126c0,61.632-49.963,111.594-111.594,111.594
	c-24.753,0-47.619-8.064-66.126-21.701c20.319,27.575,53.014,45.468,89.894,45.468c61.632,0,111.594-49.963,111.594-111.594
	C367.321,140.354,349.427,107.658,321.853,87.339z"/>
<circle style="fill:#42A555;" cx="255.729" cy="177.234" r="35.952"/>
<path d="M262.304,374.04c-4.637-1.699-9.77,0.687-11.468,5.324l-36.406,99.479l-21.375-49.836c-0.97-2.263-2.831-4.026-5.144-4.872
	c-2.31-0.845-4.87-0.703-7.074,0.401l-48.494,24.265l35.69-97.523c1.697-4.637-0.685-9.77-5.324-11.468
	c-4.637-1.696-9.77,0.687-11.468,5.324l-43.429,118.665c-1.26,3.44-0.292,7.301,2.441,9.741c2.735,2.439,6.678,2.967,9.956,1.326
	l60.147-30.098l26.511,61.813c1.413,3.294,4.648,5.417,8.216,5.417c0.08,0,0.163-0.001,0.244-0.004
	c3.662-0.099,6.894-2.423,8.152-5.865l44.144-120.623C269.325,380.872,266.942,375.738,262.304,374.04z"/>
<path d="M361.842,345.135c-1.696-4.637-6.833-7.02-11.468-5.324c-4.638,1.697-7.021,6.83-5.324,11.468l34.599,94.543l-48.494-24.265
	c-2.203-1.103-4.761-1.247-7.075-0.401c-2.311,0.846-4.172,2.608-5.142,4.872l-21.375,49.836l-17.523-47.881
	c-1.696-4.637-6.83-7.022-11.468-5.324c-4.638,1.698-7.021,6.831-5.324,11.468l25.261,69.025c1.26,3.441,4.49,5.766,8.152,5.865
	c0.082,0.002,0.163,0.004,0.244,0.004c3.567,0,6.803-2.124,8.216-5.417l26.511-61.813l60.147,30.098
	c3.279,1.643,7.223,1.115,9.956-1.326s3.7-6.301,2.441-9.741L361.842,345.135z"/>
<path d="M414.854,202.049c11.116-3.161,18.585-13.051,18.585-24.609c0-11.558-7.469-21.446-18.585-24.609
	c-4.088-1.163-5.171-4.518-5.448-5.907c-0.275-1.389-0.559-4.903,2.773-7.541c9.061-7.176,12.176-19.171,7.753-29.848
	c-4.424-10.677-15.106-16.957-26.588-15.622c-4.217,0.492-6.507-2.195-7.293-3.371c-0.787-1.178-2.394-4.318-0.324-8.03
	c5.625-10.097,3.914-22.371-4.258-30.543c-8.172-8.17-20.445-9.885-30.542-4.258c-3.716,2.069-6.853,0.463-8.03-0.324
	c-1.177-0.787-3.862-3.072-3.372-7.293c1.333-11.479-4.943-22.164-15.621-26.588c-10.677-4.421-22.674-1.308-29.849,7.753
	c-2.637,3.331-6.149,3.05-7.541,2.773c-1.389-0.277-4.743-1.361-5.907-5.448C277.445,7.469,267.556,0,255.998,0
	c-11.558,0-21.446,7.469-24.609,18.585c-1.163,4.088-4.518,5.171-5.907,5.448c-1.389,0.275-4.902,0.559-7.542-2.773
	c-7.176-9.062-19.174-12.174-29.848-7.753c-10.677,4.424-16.955,15.108-15.621,26.586c0.49,4.222-2.196,6.507-3.372,7.294
	c-1.177,0.787-4.315,2.395-8.028,0.324c-10.096-5.625-22.369-3.914-30.543,4.258c-8.172,8.172-9.883,20.446-4.258,30.542
	c2.068,3.713,0.463,6.853-0.324,8.031c-0.786,1.177-3.053,3.873-7.293,3.371c-11.485-1.329-22.165,4.945-26.588,15.622
	s-1.308,22.673,7.753,29.847c3.332,2.639,3.049,6.153,2.773,7.542c-0.277,1.389-1.361,4.743-5.448,5.907
	c-11.116,3.161-18.585,13.051-18.585,24.609s7.469,21.446,18.585,24.609c4.088,1.163,5.171,4.518,5.448,5.907
	c0.275,1.389,0.559,4.903-2.773,7.542c-9.061,7.176-12.176,19.171-7.753,29.848c4.424,10.676,15.095,16.953,26.588,15.622
	c4.222-0.496,6.506,2.195,7.293,3.371c0.787,1.178,2.394,4.316,0.324,8.028c-5.625,10.097-3.914,22.371,4.258,30.543
	c8.173,8.17,20.445,9.884,30.542,4.258c3.716-2.069,6.853-0.463,8.03,0.324c1.177,0.787,3.862,3.072,3.372,7.293
	c-1.333,11.479,4.945,22.165,15.621,26.588c10.68,4.423,22.673,1.307,29.849-7.753c2.638-3.331,6.152-3.048,7.541-2.773
	c1.389,0.277,4.743,1.361,5.907,5.448c3.161,11.116,13.051,18.585,24.609,18.585s21.446-7.469,24.609-18.585
	c1.163-4.088,4.518-5.171,5.907-5.448c1.389-0.277,4.902-0.56,7.541,2.773c7.177,9.062,19.172,12.177,29.849,7.753
	c10.676-4.422,16.955-15.108,15.621-26.586c-0.49-4.222,2.196-6.507,3.372-7.294c1.177-0.787,4.316-2.395,8.028-0.324
	c10.099,5.626,22.37,3.914,30.543-4.258c8.172-8.172,9.883-20.446,4.258-30.542c-2.068-3.713-0.463-6.852,0.324-8.03
	c0.786-1.177,3.092-3.865,7.293-3.371c11.482,1.328,22.165-4.946,26.588-15.622c4.422-10.677,1.308-22.673-7.753-29.849
	c-3.332-2.638-3.049-6.152-2.773-7.541C409.683,206.567,410.767,203.213,414.854,202.049z M401.078,229.514
	c4.232,3.353,2.856,7.727,2.334,8.989c-0.522,1.26-2.646,5.325-8.005,4.703c-9.586-1.11-18.863,3.179-24.223,11.201
	c-5.359,8.02-5.773,18.237-1.078,26.665c2.627,4.716-0.318,8.23-1.283,9.196c-0.964,0.966-4.481,3.91-9.195,1.283
	c-8.427-4.694-18.644-4.284-26.665,1.076c-8.021,5.359-12.313,14.641-11.201,24.224c0.622,5.362-3.443,7.483-4.703,8.006
	c-1.262,0.52-5.637,1.898-8.987-2.335c-5.988-7.561-15.581-11.086-25.047-9.21c-9.463,1.882-16.978,8.815-19.618,18.094
	c-1.477,5.191-6.045,5.595-7.41,5.595c-1.365,0-5.933-0.404-7.41-5.595c-2.639-9.279-10.156-16.212-19.618-18.094
	c-1.683-0.334-3.37-0.498-5.041-0.498c-7.72,0-15.082,3.491-20.005,9.708c-3.351,4.233-7.727,2.855-8.987,2.335
	c-1.261-0.522-5.326-2.644-4.703-8.007c1.112-9.582-3.18-18.863-11.201-24.223c-8.02-5.359-18.238-5.772-26.665-1.076
	c-4.712,2.626-8.231-0.318-9.195-1.283c-0.966-0.966-3.91-4.48-1.283-9.195c4.694-8.428,4.282-18.646-1.078-26.665
	c-5.359-8.021-14.637-12.309-24.221-11.201c-5.383,0.625-7.483-3.444-8.006-4.703c-0.522-1.262-1.898-5.637,2.334-8.988
	c7.562-5.988,11.091-15.586,9.21-25.047c-1.882-9.463-8.815-16.978-18.094-19.618c-5.191-1.477-5.595-6.045-5.595-7.41
	c0-1.365,0.404-5.933,5.595-7.41c9.278-2.639,16.212-10.156,18.094-19.616c1.881-9.461-1.647-19.059-9.21-25.049
	c-4.232-3.352-2.856-7.726-2.334-8.987c0.522-1.261,2.637-5.338,8.005-4.703c9.592,1.11,18.863-3.179,24.223-11.201
	c5.359-8.021,5.773-18.238,1.078-26.666c-2.627-4.716,0.318-8.23,1.283-9.196c0.963-0.966,4.482-3.91,9.195-1.283
	c8.425,4.693,18.643,4.283,26.665-1.076c8.021-5.359,12.313-14.641,11.201-24.224c-0.622-5.362,3.443-7.481,4.703-8.005
	c1.26-0.522,5.637-1.897,8.987,2.334c5.989,7.562,15.586,11.091,25.047,9.21c9.463-1.882,16.978-8.815,19.618-18.094
	c1.477-5.191,6.045-5.595,7.41-5.595c1.365,0,5.933,0.404,7.41,5.595c2.639,9.279,10.156,16.212,19.618,18.094
	c9.458,1.879,19.059-1.646,25.046-9.21c3.353-4.233,7.728-2.856,8.988-2.334c1.261,0.522,5.326,2.643,4.703,8.006
	c-1.112,9.582,3.18,18.863,11.201,24.223c8.02,5.358,18.236,5.771,26.665,1.076c4.711-2.626,8.231,0.318,9.195,1.283
	c0.966,0.966,3.91,4.48,1.283,9.196c-4.694,8.428-4.282,18.646,1.078,26.666c5.359,8.02,14.648,12.314,24.223,11.201
	c5.35-0.627,7.483,3.441,8.005,4.703c0.522,1.261,1.898,5.636-2.334,8.988c-7.562,5.988-11.091,15.586-9.21,25.047
	c1.882,9.461,8.816,16.977,18.094,19.616c5.191,1.477,5.595,6.045,5.595,7.41c0,1.365-0.404,5.933-5.595,7.41
	c-9.279,2.639-16.212,10.156-18.094,19.618C389.988,213.929,393.516,223.528,401.078,229.514z"/>
<path d="M255.998,56.698c-66.463,0-120.534,54.072-120.534,120.534s54.072,120.536,120.534,120.536s120.534-54.072,120.534-120.534
	S322.461,56.698,255.998,56.698z M255.998,279.887c-56.603,0-102.654-46.05-102.654-102.654S199.394,74.58,255.998,74.58
	s102.654,46.05,102.654,102.654S312.602,279.887,255.998,279.887z"/>
<path d="M255.998,132.335c-24.758,0-44.899,20.141-44.899,44.899s20.141,44.899,44.899,44.899s44.899-20.141,44.899-44.899
	S280.755,132.335,255.998,132.335z M255.998,204.251c-14.897,0-27.018-12.121-27.018-27.018c0-14.897,12.121-27.018,27.018-27.018
	s27.018,12.121,27.018,27.018S270.895,204.251,255.998,204.251z"/>
<g>
</g>
<g>
</g>
<g>
</g>
<g>
</g>
<g>
</g>
<g>
</g>
<g>
</g>
<g>
</g>
<g>
</g>
<g>
</g>
<g>
</g>
<g>
</g>
<g>
</g>
<g>
</g>
<g>
</g>
</svg>
