<?xml version="1.0" encoding="iso-8859-1"?>
<!-- Generator: Adobe Illustrator 19.0.0, SVG Export Plug-In . SVG Version: 6.00 Build 0)  -->
<svg version="1.1" id="Layer_1" xmlns="http://www.w3.org/2000/svg" xmlns:xlink="http://www.w3.org/1999/xlink" x="0px" y="0px"
	 viewBox="0 0 512 512" style="enable-background:new 0 0 512 512;" xml:space="preserve">
<path d="M256,0C114.616,0,0,114.616,0,256s114.616,256,256,256s256-114.616,256-256S397.384,0,256,0z"/>
<g>
	<path style="fill:#F00000;" d="M100.08,160.424h61.528v15.968h-42.056v29.432h39.208v15.968h-39.208v45.24H100.08V160.424z"/>
	<path style="fill:#F00000;" d="M176.56,161.848c7.288-1.264,18.192-2.224,29.432-2.224c15.336,0,25.784,2.528,32.896,8.536
		c5.848,4.912,9.168,12.344,9.168,21.368c0,13.752-9.328,23.096-19.288,26.72v0.488c7.6,2.832,12.176,10.264,14.872,20.552
		c3.32,13.28,6.168,25.624,8.392,29.736h-20.104c-1.568-3.16-4.112-11.856-7.112-25.152c-3.016-13.912-8.064-18.352-19.144-18.656
		h-9.8v43.808H176.56V161.848z M195.864,208.984h11.552c13.12,0,21.344-6.968,21.344-17.56c0-11.712-8.232-17.088-20.88-17.088
		c-6.168,0-10.12,0.488-12.016,0.96L195.864,208.984L195.864,208.984z"/>
	<path style="fill:#F00000;" d="M326.112,219.736h-40.168v31.328h44.912v15.968H266.48V160.424h62v15.968h-42.528v27.536h40.168
		v15.808H326.112z"/>
	<path style="fill:#F00000;" d="M407.48,219.736h-40.168v31.328h44.912v15.968H347.84V160.424h62v15.968h-42.528v27.536h40.168
		V219.736z"/>
</g>
<g>
	<path style="fill:#FFFFFF;" d="M101.6,332.616c3.072,1.768,7.68,3.296,12.504,3.296c6.048,0,9.432-2.832,9.432-7.048
		c0-3.912-2.608-6.216-9.208-8.592c-8.512-3.056-13.952-7.6-13.952-15.032c0-8.432,7.048-14.872,18.248-14.872
		c5.6,0,9.736,1.224,12.424,2.608l-2.304,7.576c-1.832-1-5.44-2.448-10.288-2.448c-5.968,0-8.576,3.216-8.576,6.216
		c0,3.992,2.992,5.824,9.896,8.512c8.96,3.384,13.344,7.904,13.344,15.336c0,8.288-6.296,15.496-19.632,15.496
		c-5.456,0-11.12-1.544-13.976-3.216L101.6,332.616z"/>
	<path style="fill:#FFFFFF;" d="M151.056,291.208v20.712h21.856v-20.712h9.432v51.696h-9.432v-22.768h-21.856v22.768h-9.448v-51.696
		H151.056z"/>
	<path style="fill:#FFFFFF;" d="M202.544,291.208v51.696h-9.448v-51.696H202.544z"/>
	<path style="fill:#FFFFFF;" d="M213.344,291.896c3.384-0.608,8.064-1.08,14.424-1.08c6.904,0,11.976,1.464,15.272,4.216
		c3.056,2.544,5.048,6.6,5.048,11.424c0,4.912-1.528,8.984-4.44,11.728c-3.768,3.768-9.672,5.536-16.336,5.536
		c-1.768,0-3.384-0.08-4.6-0.304v19.472h-9.368V291.896z M222.712,315.976c1.144,0.304,2.688,0.384,4.6,0.384
		c7.048,0,11.344-3.44,11.344-9.512c0-5.744-3.992-8.816-10.512-8.816c-2.608,0-4.44,0.224-5.44,0.472v17.472H222.712z"/>
	<path style="fill:#FFFFFF;" d="M256.176,291.896c3.384-0.608,8.064-1.08,14.424-1.08c6.904,0,11.976,1.464,15.272,4.216
		c3.056,2.544,5.048,6.6,5.048,11.424c0,4.912-1.528,8.984-4.44,11.728c-3.768,3.768-9.672,5.536-16.336,5.536
		c-1.768,0-3.384-0.08-4.6-0.304v19.472h-9.368V291.896z M265.544,315.976c1.144,0.304,2.688,0.384,4.6,0.384
		c7.048,0,11.344-3.44,11.344-9.512c0-5.744-3.992-8.816-10.512-8.816c-2.608,0-4.44,0.224-5.44,0.472v17.472H265.544z"/>
	<path style="fill:#FFFFFF;" d="M308.456,291.208v51.696h-9.448v-51.696H308.456z"/>
	<path style="fill:#FFFFFF;" d="M319.248,342.896V291.2H330l13.344,22.16c3.44,5.768,6.44,11.728,8.816,17.336h0.144
		c-0.608-6.904-0.832-13.568-0.832-21.464v-18.024h8.736v51.696h-9.736l-13.504-22.712c-3.296-5.664-6.744-12.04-9.264-17.864
		l-0.248,0.08c0.384,6.664,0.472,13.48,0.472,22v18.496h-8.68V342.896z"/>
	<path style="fill:#FFFFFF;" d="M412.472,340.512c-3.296,1.24-9.736,2.912-16.64,2.912c-8.76,0-15.336-2.224-20.248-6.904
		c-4.6-4.36-7.288-11.184-7.208-19c0-16.336,11.648-26.848,28.76-26.848c6.352,0,11.344,1.304,13.728,2.448l-2.08,7.6
		c-2.832-1.224-6.296-2.224-11.728-2.224c-11.04,0-18.8,6.52-18.8,18.552c0,11.728,7.208,18.72,17.944,18.72
		c3.384,0,5.904-0.472,7.152-1.08v-12.896h-9.128v-7.432h18.248L412.472,340.512L412.472,340.512z"/>
</g>
<g>
</g>
<g>
</g>
<g>
</g>
<g>
</g>
<g>
</g>
<g>
</g>
<g>
</g>
<g>
</g>
<g>
</g>
<g>
</g>
<g>
</g>
<g>
</g>
<g>
</g>
<g>
</g>
<g>
</g>
</svg>
