<?xml version="1.0" encoding="iso-8859-1"?>
<!-- Generator: Adobe Illustrator 19.0.0, SVG Export Plug-In . SVG Version: 6.00 Build 0)  -->
<svg version="1.1" id="Layer_1" xmlns="http://www.w3.org/2000/svg" xmlns:xlink="http://www.w3.org/1999/xlink" x="0px" y="0px"
	 viewBox="0 0 512.001 512.001" style="enable-background:new 0 0 512.001 512.001;" xml:space="preserve">
<path style="fill:#666666;" d="M463.479,256c0-19.566,19.178-41.389,14.355-59.434c-4.99-18.672-32.654-27.963-42.113-44.311
	c-9.595-16.583-3.909-45.151-17.367-58.609c-13.458-13.458-42.026-7.772-58.609-17.367c-16.348-9.458-25.638-37.121-44.31-42.113
	c-18.046-4.823-39.868,14.355-59.434,14.355c-19.566,0-41.389-19.178-59.434-14.355c-18.672,4.99-27.963,32.654-44.311,42.113
	c-16.583,9.595-45.151,3.909-58.609,17.367s-7.772,42.026-17.367,58.609c-9.458,16.348-37.121,25.638-42.113,44.31
	c-4.823,18.046,14.355,39.868,14.355,59.434s-19.178,41.389-14.355,59.434c4.99,18.672,32.654,27.963,42.113,44.311
	c9.595,16.583,3.909,45.151,17.367,58.609c13.458,13.458,42.026,7.772,58.609,17.367c16.348,9.458,25.638,37.121,44.31,42.113
	c18.046,4.823,39.868-14.355,59.434-14.355s41.389,19.178,59.434,14.355c18.672-4.99,27.963-32.654,44.311-42.113
	c16.583-9.595,45.151-3.909,58.609-17.367c13.458-13.458,7.772-42.026,17.367-58.609c9.458-16.348,37.121-25.638,42.113-44.31
	C482.656,297.39,463.479,275.567,463.479,256z"/>
<circle style="fill:#F95428;" cx="256" cy="256" r="162.352"/>
<path style="fill:#E54728;" d="M291.795,382.56c-89.665,0-162.354-72.688-162.354-162.354c0-35.698,11.531-68.7,31.059-95.501
	C119.984,154.226,93.646,202.033,93.646,256c0,89.665,72.688,162.354,162.354,162.354c53.967,0,101.774-26.339,131.294-66.854
	C360.494,371.028,327.493,382.56,291.795,382.56z"/>
<g>
	<path style="fill:#FFFFFF;" d="M233.153,380.609c-3.214,0-6.43-1.226-8.881-3.679c-4.905-4.905-4.905-12.858,0-17.762
		l45.692-45.694c4.905-4.905,12.858-4.905,17.764,0c4.905,4.905,4.905,12.858,0,17.762l-45.692,45.694
		C239.583,379.382,236.367,380.609,233.153,380.609z"/>
	<circle style="fill:#FFFFFF;" cx="233.153" cy="322.355" r="12.56"/>
	<circle style="fill:#FFFFFF;" cx="278.847" cy="368.049" r="12.56"/>
</g>
<g>
	<path style="fill:#333333;" d="M309.304,491.168c-10.852,0-21.424-4.42-31.003-8.423c-7.888-3.297-16.043-6.706-22.299-6.706
		s-14.413,3.409-22.3,6.706c-12.323,5.15-26.287,10.988-40.377,7.222c-14.622-3.909-23.962-16.225-32.203-27.092
		c-4.993-6.583-10.154-13.39-15.154-16.283c-5.174-2.993-13.777-4.098-22.098-5.168c-13.398-1.722-28.584-3.673-39.101-14.189
		c-10.517-10.517-12.468-25.703-14.189-39.102c-1.069-8.321-2.174-16.925-5.167-22.098c-2.893-5-9.7-10.162-16.283-15.154
		c-10.867-8.241-23.183-17.582-27.091-32.203c-3.767-14.089,2.071-28.055,7.222-40.378c3.297-7.888,6.706-16.044,6.706-22.3
		c0-6.256-3.409-14.413-6.706-22.3c-5.151-12.323-10.989-26.29-7.222-40.378c3.907-14.621,16.224-23.962,27.091-32.203
		c6.583-4.991,13.39-10.154,16.283-15.154c2.993-5.174,4.098-13.777,5.168-22.098c1.722-13.399,3.673-28.586,14.189-39.102
		c10.517-10.517,25.702-12.468,39.101-14.189c8.321-1.069,16.925-2.174,22.098-5.168c5-2.893,10.162-9.7,15.154-16.283
		c8.241-10.867,17.582-23.183,32.203-27.092c14.086-3.766,28.054,2.072,40.377,7.222c7.888,3.297,16.044,6.706,22.3,6.706
		s14.413-3.409,22.299-6.706c12.323-5.151,26.288-10.988,40.378-7.222c14.622,3.909,23.962,16.225,32.203,27.092
		c4.993,6.583,10.154,13.39,15.154,16.283c5.173,2.993,13.777,4.098,22.098,5.168c13.398,1.722,28.584,3.673,39.101,14.189
		c10.517,10.517,12.468,25.703,14.189,39.102c1.069,8.321,2.174,16.925,5.167,22.098c2.893,5,9.7,10.162,16.283,15.154
		c10.867,8.241,23.183,17.582,27.092,32.203c3.766,14.089-2.072,28.056-7.222,40.378c-3.297,7.888-6.706,16.043-6.706,22.299
		s3.409,14.413,6.706,22.3c5.151,12.323,10.989,26.29,7.222,40.378c-3.907,14.621-16.224,23.961-27.091,32.202
		c-6.583,4.993-13.39,10.154-16.283,15.154c-2.993,5.173-4.098,13.777-5.168,22.098c-1.722,13.399-3.673,28.586-14.189,39.102
		c-10.517,10.517-25.702,12.468-39.101,14.189c-8.321,1.069-16.925,2.174-22.098,5.168c-5,2.893-10.162,9.7-15.154,16.283
		c-8.241,10.867-17.582,23.183-32.203,27.092C315.543,490.806,312.411,491.168,309.304,491.168z M256,450.919
		c11.295,0,21.814,4.397,31.987,8.649c9.04,3.779,18.387,7.687,24.203,6.132c6.299-1.683,12.59-9.979,18.674-18.002
		c6.495-8.565,13.212-17.421,22.591-22.848c9.544-5.521,20.694-6.955,31.477-8.34c9.873-1.269,20.085-2.581,24.54-7.037
		c4.456-4.456,5.769-14.666,7.037-24.54c1.385-10.783,2.818-21.934,8.34-31.478c5.426-9.379,14.283-16.095,22.848-22.591
		c8.022-6.084,16.318-12.374,18.001-18.672c1.555-5.817-2.353-15.164-6.131-24.205c-4.252-10.174-8.649-20.693-8.649-31.988
		c0-11.294,4.396-21.814,8.649-31.987c3.778-9.041,7.686-18.388,6.132-24.205c-1.683-6.299-9.979-12.59-18.002-18.674
		c-8.565-6.495-17.421-13.211-22.848-22.589c-5.521-9.544-6.955-20.694-8.34-31.477c-1.269-9.875-2.581-20.085-7.037-24.54
		c-4.455-4.456-14.666-5.768-24.54-7.036c-10.783-1.385-21.934-2.818-31.478-8.34c-9.379-5.426-16.095-14.283-22.589-22.848
		c-6.084-8.022-12.375-16.318-18.673-18.002c-5.82-1.555-15.165,2.354-24.205,6.132c-10.174,4.252-20.693,8.649-31.987,8.649
		c-11.295,0-21.816-4.397-31.988-8.649c-9.041-3.779-18.388-7.684-24.203-6.132c-6.299,1.683-12.589,9.98-18.673,18.002
		c-6.495,8.565-13.212,17.421-22.591,22.848c-9.544,5.521-20.694,6.955-31.477,8.34c-9.875,1.269-20.085,2.58-24.54,7.036
		c-4.456,4.456-5.769,14.666-7.037,24.54c-1.385,10.783-2.818,21.934-8.34,31.478c-5.426,9.379-14.283,16.095-22.848,22.591
		c-8.022,6.084-16.318,12.374-18.001,18.673c-1.555,5.817,2.353,15.164,6.131,24.205c4.252,10.174,8.649,20.693,8.649,31.988
		c0,11.295-4.396,21.814-8.649,31.988c-3.778,9.041-7.686,18.388-6.132,24.205c1.683,6.299,9.979,12.589,18.002,18.673
		c8.565,6.495,17.421,13.211,22.848,22.591c5.521,9.544,6.955,20.694,8.34,31.477c1.269,9.874,2.581,20.084,7.037,24.54
		s14.666,5.768,24.54,7.036c10.783,1.385,21.934,2.818,31.477,8.34c9.379,5.426,16.096,14.283,22.591,22.848
		c6.084,8.022,12.375,16.318,18.673,18.002c5.818,1.555,15.164-2.352,24.205-6.132C234.186,455.315,244.706,450.919,256,450.919z"/>
	<path style="fill:#333333;" d="M256,430.915c-96.448,0-174.914-78.467-174.914-174.914S159.552,81.087,256,81.087
		S430.913,159.553,430.913,256S352.448,430.915,256,430.915z M256,106.207c-82.596,0-149.794,67.197-149.794,149.793
		S173.402,405.795,256,405.795c82.596,0,149.793-67.197,149.793-149.794C405.794,173.404,338.597,106.207,256,106.207z"/>
</g>
<g>
	<path style="fill:#FFFFFF;" d="M203.815,302.4h-24.054c-6.937,0-12.56-5.623-12.56-12.56c0-6.937,5.623-12.56,12.56-12.56h24.054
		c12.458,0,22.596-10.136,22.596-22.596c0-12.46-10.136-22.596-22.596-22.596h-24.054c-6.937,0-12.56-5.623-12.56-12.56v-48.108
		c0-6.937,5.623-12.56,12.56-12.56h59.21c6.937,0,12.56,5.623,12.56,12.56s-5.623,12.56-12.56,12.56h-46.649v22.987h11.494
		c26.311,0,47.716,21.405,47.716,47.716C251.531,280.994,230.126,302.4,203.815,302.4z"/>
	<path style="fill:#FFFFFF;" d="M313.254,302.402c-26.651,0-48.333-21.681-48.333-48.333v-46.881
		c0-26.651,21.682-48.333,48.333-48.333c26.651,0,48.333,21.681,48.333,48.333v46.881
		C361.587,280.72,339.904,302.402,313.254,302.402z M313.254,183.977c-12.8,0-23.212,10.414-23.212,23.212v46.881
		c0,12.799,10.414,23.212,23.212,23.212l0,0c12.799,0,23.212-10.414,23.212-23.212v-46.881
		C336.466,194.389,326.053,183.977,313.254,183.977z"/>
</g>
<g>
	<path style="fill:#333333;" d="M447.768,76.793c-3.215,0-6.428-1.226-8.881-3.679c-4.905-4.905-4.905-12.858,0-17.762
		l51.672-51.672c4.906-4.905,12.858-4.905,17.764,0c4.905,4.905,4.905,12.858,0,17.762L456.65,73.114
		C454.197,75.566,450.982,76.793,447.768,76.793z"/>
	<path style="fill:#333333;" d="M418.88,47.905c-3.215,0-6.428-1.226-8.881-3.679c-4.905-4.905-4.905-12.858,0-17.762l22.156-22.156
		c4.905-4.905,12.857-4.905,17.762,0c4.905,4.905,4.905,12.858,0,17.762l-22.156,22.156
		C425.309,46.678,422.094,47.905,418.88,47.905z"/>
	<path style="fill:#333333;" d="M476.656,105.681c-3.215,0-6.428-1.226-8.881-3.679c-4.905-4.905-4.905-12.858,0-17.762
		l22.156-22.156c4.905-4.905,12.857-4.905,17.762,0c4.905,4.905,4.905,12.858,0,17.762l-22.156,22.156
		C483.086,104.454,479.87,105.681,476.656,105.681z"/>
	<path style="fill:#333333;" d="M12.56,512c-3.215,0-6.428-1.226-8.881-3.679c-4.905-4.905-4.905-12.858,0-17.762l51.672-51.672
		c4.906-4.905,12.858-4.905,17.764,0c4.905,4.905,4.905,12.858,0,17.762l-51.672,51.672C18.99,510.773,15.774,512,12.56,512z"/>
	<path style="fill:#333333;" d="M70.965,511.372c-3.215,0-6.428-1.226-8.881-3.679c-4.905-4.905-4.905-12.858,0-17.762
		l22.156-22.156c4.905-4.905,12.858-4.905,17.762,0c4.905,4.905,4.905,12.858,0,17.763l-22.156,22.156
		C77.394,510.145,74.179,511.372,70.965,511.372z"/>
	<path style="fill:#333333;" d="M13.188,453.596c-3.215,0-6.428-1.226-8.881-3.679c-4.905-4.905-4.905-12.858,0-17.763
		l22.156-22.156c4.905-4.905,12.858-4.905,17.762,0s4.905,12.858,0,17.763L22.07,449.917
		C19.618,452.369,16.402,453.596,13.188,453.596z"/>
	<path style="fill:#333333;" d="M499.44,512c-3.214,0-6.43-1.226-8.881-3.679l-51.672-51.672c-4.905-4.905-4.906-12.858,0-17.762
		c4.906-4.905,12.858-4.905,17.764,0l51.672,51.672c4.905,4.905,4.905,12.858,0,17.762C505.87,510.775,502.654,512,499.44,512z"/>
	<path style="fill:#333333;" d="M498.812,453.596c-3.214,0-6.428-1.226-8.881-3.679l-22.156-22.156
		c-4.905-4.905-4.906-12.858,0-17.763c4.906-4.905,12.858-4.905,17.763,0l22.156,22.156c4.905,4.905,4.906,12.858,0,17.763
		C505.242,452.37,502.026,453.596,498.812,453.596z"/>
	<path style="fill:#333333;" d="M441.036,511.372c-3.214,0-6.428-1.226-8.881-3.679l-22.156-22.156
		c-4.905-4.905-4.906-12.858,0-17.762s12.858-4.905,17.762,0l22.156,22.156c4.905,4.905,4.906,12.858,0,17.762
		C447.465,510.147,444.25,511.372,441.036,511.372z"/>
	<path style="fill:#333333;" d="M64.233,76.793c-3.214,0-6.43-1.226-8.881-3.679L3.679,21.442c-4.905-4.905-4.906-12.858,0-17.762
		s12.858-4.905,17.764,0l51.672,51.672c4.905,4.905,4.905,12.858,0,17.762C70.662,75.567,67.447,76.793,64.233,76.793z"/>
	<path style="fill:#333333;" d="M35.344,105.681c-3.214,0-6.428-1.226-8.881-3.679L4.307,79.846c-4.905-4.905-4.906-12.858,0-17.762
		s12.858-4.905,17.762,0L44.226,84.24c4.905,4.905,4.906,12.858,0,17.762C41.774,104.455,38.558,105.681,35.344,105.681z"/>
	<path style="fill:#333333;" d="M93.121,47.905c-3.214,0-6.428-1.226-8.881-3.679L62.083,22.07c-4.905-4.905-4.906-12.858,0-17.762
		s12.858-4.905,17.762,0l22.156,22.156c4.905,4.905,4.906,12.858,0,17.762C99.55,46.679,96.335,47.905,93.121,47.905z"/>
</g>
<g>
</g>
<g>
</g>
<g>
</g>
<g>
</g>
<g>
</g>
<g>
</g>
<g>
</g>
<g>
</g>
<g>
</g>
<g>
</g>
<g>
</g>
<g>
</g>
<g>
</g>
<g>
</g>
<g>
</g>
</svg>
