<?xml version="1.0" encoding="iso-8859-1"?>
<!-- Generator: Adobe Illustrator 19.0.0, SVG Export Plug-In . SVG Version: 6.00 Build 0)  -->
<svg xmlns="http://www.w3.org/2000/svg" xmlns:xlink="http://www.w3.org/1999/xlink" version="1.1" id="Layer_1" x="0px" y="0px" viewBox="0 0 474.32 474.32" style="enable-background:new 0 0 474.32 474.32;" xml:space="preserve" width="512px" height="512px">
<g>
	<g>
		<path d="M158.576,215.964c-2.931-2.928-7.679-2.928-10.608,0l-37.066,37.066c-2.929,2.929-2.929,7.678,0,10.606    c1.465,1.464,3.385,2.197,5.304,2.197s3.839-0.732,5.304-2.197l37.066-37.066C161.505,223.641,161.505,218.892,158.576,215.964z" fill="#FFFFFF"/>
	</g>
</g>
<g>
	<g>
		<path d="M158.572,253.028c-1.39-1.39-3.32-2.19-5.301-2.19c-1.97,0-3.909,0.8-5.3,2.19c-1.399,1.4-2.2,3.33-2.2,5.31    c0,1.97,0.801,3.9,2.2,5.3c1.391,1.39,3.33,2.2,5.3,2.2c1.971,0,3.91-0.81,5.301-2.2c1.399-1.4,2.199-3.33,2.199-5.3    C160.771,256.358,159.971,254.428,158.572,253.028z" fill="#FFFFFF"/>
	</g>
</g>
<g>
	<g>
		<path d="M121.512,215.958c-1.399-1.39-3.33-2.19-5.31-2.19c-1.971,0-3.91,0.8-5.3,2.19c-1.4,1.4-2.2,3.34-2.2,5.31    c0,1.97,0.8,3.91,2.2,5.3c1.4,1.4,3.329,2.2,5.3,2.2c1.979,0,3.91-0.8,5.31-2.2c1.391-1.4,2.19-3.33,2.19-5.3    C123.702,219.298,122.902,217.358,121.512,215.958z" fill="#FFFFFF"/>
	</g>
</g>
<g>
	<g>
		<path d="M363.411,215.965c-2.93-2.929-7.678-2.929-10.607,0l-37.066,37.066c-2.929,2.929-2.929,7.678-0.001,10.606    c1.465,1.464,3.385,2.197,5.304,2.197c1.919,0,3.839-0.732,5.304-2.197l37.066-37.066    C366.34,223.642,366.34,218.893,363.411,215.965z" fill="#FFFFFF"/>
	</g>
</g>
<g>
	<g>
		<path d="M363.413,253.028c-1.401-1.39-3.331-2.19-5.311-2.19c-1.97,0-3.899,0.8-5.3,2.19c-1.39,1.4-2.189,3.33-2.189,5.31    c0,1.97,0.8,3.9,2.189,5.3c1.4,1.4,3.33,2.2,5.3,2.2c1.98,0,3.91-0.8,5.311-2.2c1.399-1.4,2.2-3.33,2.2-5.3    C365.613,256.358,364.812,254.428,363.413,253.028z" fill="#FFFFFF"/>
	</g>
</g>
<g>
	<g>
		<path d="M326.342,215.958c-1.39-1.39-3.33-2.19-5.3-2.19c-1.97,0-3.91,0.8-5.311,2.19c-1.39,1.4-2.189,3.34-2.189,5.31    c0,1.97,0.8,3.91,2.189,5.3c1.4,1.4,3.341,2.2,5.311,2.2c1.97,0,3.91-0.8,5.3-2.2c1.4-1.39,2.2-3.33,2.2-5.3    C328.542,219.298,327.742,217.358,326.342,215.958z" fill="#FFFFFF"/>
	</g>
</g>
<g>
	<g>
		<path d="M224.785,187.666c-1.407-1.973-3.682-3.144-6.105-3.144h-36.911c-4.143,0-7.5,3.358-7.5,7.5c0,4.142,3.357,7.5,7.5,7.5    h26.399l-21.981,63.885c-1.348,3.917,0.735,8.184,4.651,9.532c0.809,0.278,1.632,0.41,2.44,0.41c3.113,0,6.022-1.953,7.092-5.062    l25.401-73.825C226.56,192.17,226.192,189.639,224.785,187.666z" fill="#FFFFFF"/>
	</g>
</g>
<g>
	<g>
		<path d="M264.749,184.519c-16.433,0-29.801,13.369-29.801,29.801v29.225c0,16.433,13.368,29.801,29.801,29.801    c16.433,0,29.801-13.369,29.801-29.801V214.32C294.55,197.888,281.182,184.519,264.749,184.519z M279.55,243.545    c0,8.161-6.64,14.801-14.801,14.801c-8.161,0-14.801-6.64-14.801-14.801V214.32c0-8.161,6.64-14.801,14.801-14.801    c8.161,0,14.801,6.64,14.801,14.801V243.545z" fill="#FFFFFF"/>
	</g>
</g>
<g>
	<g>
		<path d="M468.683,324.695c-17.682-4.54-35.484-8.543-53.375-12.023c11.362-25.163,17.347-52.808,17.347-80.569    c0-107.795-87.698-195.493-195.494-195.493c-107.795,0-195.493,87.698-195.493,195.493c0,27.76,5.985,55.405,17.347,80.568    c-17.893,3.48-35.696,7.483-53.38,12.024c-1.927,0.495-3.578,1.735-4.591,3.447c-1.012,1.712-1.303,3.757-0.809,5.683    c3.86,15.031,26.359,33.621,36.667,41.49c-5.16,13.021-15.314,41.667-11.44,56.76c0.495,1.926,1.734,3.578,3.446,4.59    c1.714,1.012,3.758,1.305,5.684,0.809c132.521-34.025,272.613-34.025,405.135,0c0.614,0.158,1.241,0.236,1.865,0.236    c1.332,0,2.651-0.355,3.817-1.044c1.713-1.013,2.952-2.664,3.447-4.59c3.875-15.092-6.281-43.74-11.441-56.76    c10.309-7.869,32.808-26.459,36.667-41.49C475.112,329.813,472.694,325.725,468.683,324.695z M56.668,232.103    c0-99.524,80.969-180.493,180.493-180.493s180.494,80.969,180.494,180.493c0,27.279-5.902,53.405-17.549,77.743    c-6.357-1.127-12.723-2.189-19.1-3.183c11.901-22.93,18.146-48.486,18.146-74.56c0-89.323-72.669-161.992-161.992-161.992    c-89.328,0-162.002,72.669-162.002,161.992c0,26.073,6.246,51.63,18.147,74.561c-6.373,0.993-12.737,2.055-19.09,3.181    C62.57,285.507,56.668,259.382,56.668,232.103z M365.203,304.341c-84.886-11.742-171.207-11.741-256.093,0.001    c-12.41-21.952-18.951-46.821-18.951-72.239c0-81.052,65.944-146.992,147.002-146.992c81.052,0,146.992,65.94,146.992,146.992    C384.153,257.522,377.613,282.391,365.203,304.341z M423.913,366.65c-2.871,2.044-3.934,5.813-2.551,9.055    c5.153,12.083,12.115,32.332,13.256,45.023c-129.395-31.697-265.523-31.698-394.918,0c1.141-12.691,8.102-32.94,13.255-45.023    c1.382-3.242,0.32-7.011-2.551-9.055c-9.905-7.05-25.049-19.761-32.075-29.678c143.377-35.261,294.281-35.261,437.66,0    C448.963,346.888,433.818,359.599,423.913,366.65z" fill="#FFFFFF"/>
	</g>
</g>
<g>
	<g>
		<path d="M103.803,358.106c-2.058,0-3.731-1.674-3.731-3.732s1.674-3.732,3.732-3.732h11.232c4.143,0,7.5-3.358,7.5-7.5    c0-4.142-3.357-7.5-7.5-7.5h-11.232c-10.328,0-18.731,8.403-18.731,18.732c0,10.329,8.403,18.732,18.731,18.732    c2.058,0,3.732,1.674,3.732,3.732c0,2.058-1.675,3.732-3.732,3.732H92.572c-4.143,0-7.5,3.358-7.5,7.5c0,4.142,3.357,7.5,7.5,7.5    h11.231c10.329,0,18.732-8.403,18.732-18.732C122.535,366.509,114.132,358.106,103.803,358.106z" fill="#FFFFFF"/>
	</g>
</g>
<g>
	<g>
		<path d="M292.843,368.57h-14.964v-37.428c0-4.142-3.357-7.5-7.5-7.5s-7.5,3.358-7.5,7.5v44.928c0,4.142,3.357,7.5,7.5,7.5h22.464    c4.143,0,7.5-3.358,7.5-7.5C300.343,371.928,296.986,368.57,292.843,368.57z" fill="#FFFFFF"/>
	</g>
</g>
<g>
	<g>
		<path d="M381.746,380.57h-14.965v-7.464h5.173c4.143,0,7.5-3.358,7.5-7.5c0-4.142-3.357-7.5-7.5-7.5h-5.173v-7.464h14.965    c4.143,0,7.5-3.358,7.5-7.5c0-4.142-3.357-7.5-7.5-7.5h-22.465c-4.143,0-7.5,3.358-7.5,7.5v44.928c0,4.142,3.358,7.5,7.5,7.5    h22.465c4.143,0,7.5-3.358,7.5-7.5C389.246,383.928,385.889,380.57,381.746,380.57z" fill="#FFFFFF"/>
	</g>
</g>
<g>
	<g>
		<path d="M195.893,323.642h-6.373c-11.27,0-20.438,9.168-20.438,20.438v31.408c0,4.142,3.357,7.5,7.5,7.5s7.5-3.358,7.5-7.5v-7.473    h17.25v7.473c0,4.142,3.357,7.5,7.5,7.5s7.5-3.358,7.5-7.5V344.08C216.332,332.81,207.163,323.642,195.893,323.642z     M201.331,353.015h-17.249v-8.935c0-2.999,2.439-5.438,5.438-5.438h6.373c2.999,0,5.438,2.439,5.438,5.438V353.015z" fill="#FFFFFF"/>
	</g>
</g>
<g>
	<g>
		<path d="M325.656,147.57h-177c-4.143,0-7.5,3.358-7.5,7.5c0,4.142,3.358,7.5,7.5,7.5h177c4.143,0,7.5-3.358,7.5-7.5    C333.156,150.928,329.799,147.57,325.656,147.57z" fill="#FFFFFF"/>
	</g>
</g>
<g>
	<g>
		<path d="M280.012,110.57h-85.71c-4.143,0-7.5,3.358-7.5,7.5c0,4.142,3.357,7.5,7.5,7.5h85.71c4.143,0,7.5-3.358,7.5-7.5    C287.512,113.928,284.155,110.57,280.012,110.57z" fill="#FFFFFF"/>
	</g>
</g>
<g>
</g>
<g>
</g>
<g>
</g>
<g>
</g>
<g>
</g>
<g>
</g>
<g>
</g>
<g>
</g>
<g>
</g>
<g>
</g>
<g>
</g>
<g>
</g>
<g>
</g>
<g>
</g>
<g>
</g>
</svg>
