<?xml version="1.0" encoding="iso-8859-1"?>
<!-- Generator: Adobe Illustrator 19.0.0, SVG Export Plug-In . SVG Version: 6.00 Build 0)  -->
<svg version="1.1" id="Layer_1" xmlns="http://www.w3.org/2000/svg" xmlns:xlink="http://www.w3.org/1999/xlink" x="0px" y="0px"
	 viewBox="0 0 512 512" style="enable-background:new 0 0 512 512;" xml:space="preserve">
<path style="fill:#E6E6E6;" d="M255.999,12.779c132.837,0,240.522,107.686,240.522,240.522c0,63.442-24.574,121.134-64.707,164.112
	c0,0-6.865,51.423,13.635,81.809c0,0-45.204-4.312-78.061-32.707c-33.305,17.435-71.192,27.311-111.39,27.311
	c-132.837,0-240.522-107.686-240.522-240.522S123.161,12.779,255.999,12.779z"/>
<path style="fill:#333333;" d="M445.453,512c-0.404,0-0.809-0.019-1.217-0.057c-1.886-0.18-43.922-4.467-78.449-30.327
	c-34.038,16.37-71.813,24.989-109.788,24.989c-139.671,0-253.301-113.63-253.301-253.301S116.328,0,255.999,0
	s253.302,113.63,253.302,253.301c0,62.943-23.121,123.004-65.204,169.627c-0.988,11.714-2.603,47.581,11.947,69.145
	c2.765,4.099,2.917,9.424,0.392,13.676C454.118,509.647,449.928,512,445.453,512z M367.387,453.734c3.006,0,5.984,1.059,8.359,3.11
	c15.176,13.116,33.607,20.596,47.877,24.763c-8.973-30.741-4.713-64.098-4.473-65.886c0.351-2.632,1.514-5.09,3.328-7.031
	c39.509-42.308,61.268-97.493,61.268-155.389c0-125.578-102.166-227.744-227.745-227.744S28.255,127.723,28.255,253.301
	S130.42,481.045,255.998,481.045c36.687,0,73.156-8.94,105.463-25.853C363.331,454.213,365.365,453.734,367.387,453.734z"/>
<g>
	<path style="fill:#F95428;" d="M124.93,294.232h3.665c4.204,0,7.624,3.42,7.624,7.624c0,7.058,5.721,12.779,12.779,12.779
		c7.058,0,12.779-5.721,12.779-12.779c0-18.295-14.885-33.181-33.181-33.181h-3.665c-20.317,0-36.846,16.529-36.846,36.846
		c0,20.317,16.529,36.845,36.846,36.845c6.225,0,11.289,5.064,11.289,11.289c0,6.224-5.064,11.289-11.289,11.289h-3.665
		c-4.204,0-7.624-3.42-7.624-7.624c0-7.058-5.721-12.779-12.779-12.779c-7.058,0-12.779,5.721-12.779,12.779
		c0,18.295,14.885,33.181,33.181,33.181h3.665c20.317,0,36.846-16.529,36.846-36.846c0-20.317-16.529-36.846-36.846-36.846
		c-6.225,0-11.289-5.064-11.289-11.287C113.641,299.296,118.705,294.232,124.93,294.232z"/>
	<path style="fill:#F95428;" d="M328.813,351.553c-7.058,0-12.779,5.721-12.779,12.779v0.612h-22.576v-83.491
		c0-7.058-5.721-12.779-12.779-12.779c-7.058,0-12.779,5.721-12.779,12.779v96.269c0,7.058,5.721,12.779,12.779,12.779h48.134
		c7.058,0,12.779-5.721,12.779-12.779v-13.391C341.592,357.274,335.869,351.553,328.813,351.553z"/>
	<path style="fill:#F95428;" d="M411.135,310.274c7.058,0,12.779-5.721,12.779-12.779v-16.043c0-7.058-5.721-12.779-12.779-12.779
		H363c-7.058,0-12.779,5.721-12.779,12.779v96.269c0,7.058,5.721,12.779,12.779,12.779h48.135c7.058,0,12.779-5.721,12.779-12.779
		v-13.391c0-7.058-5.721-12.779-12.779-12.779s-12.779,5.721-12.779,12.779v0.612h-22.578v-22.578h14.375
		c7.058,0,12.779-5.721,12.779-12.779s-5.721-12.779-12.779-12.779h-14.375v-22.576h22.578v3.264
		C398.356,304.553,404.077,310.274,411.135,310.274z"/>
	<path style="fill:#F95428;" d="M212.283,269.298c-20.146,0-36.535,16.39-36.535,36.535v71.269c0,7.058,5.721,12.779,12.779,12.779
		c7.058,0,12.779-5.721,12.779-12.779v-19.305h21.954v19.305c0,7.058,5.721,12.779,12.779,12.779
		c7.058,0,12.779-5.721,12.779-12.779v-71.269C248.818,285.686,232.428,269.298,212.283,269.298z M201.306,332.237v-26.405
		c0-6.053,4.925-10.977,10.977-10.977c6.053,0,10.977,4.925,10.977,10.977v26.405H201.306z"/>
	<path style="fill:#F95428;" d="M254.32,105.198c-7.058,0-12.779,5.721-12.779,12.779v118.838c0,7.058,5.721,12.779,12.779,12.779
		c7.058,0,12.779-5.721,12.779-12.779V117.976C267.099,110.919,261.378,105.198,254.32,105.198z"/>
	<path style="fill:#F95428;" d="M325.885,249.593c21.139,0,38.336-17.198,38.336-38.336V200.48c0-7.058-5.721-12.779-12.779-12.779
		h-19.594c-7.058,0-12.779,5.721-12.779,12.779c0,7.058,5.721,12.779,12.779,12.779h6.659c-0.964,6.098-6.257,10.776-12.622,10.776
		c-7.046,0-12.779-5.733-12.779-12.779v-67.722c0-7.046,5.733-12.779,12.779-12.779s12.779,5.733,12.779,12.779v2.423
		c0,7.058,5.721,12.779,12.779,12.779s12.779-5.721,12.779-12.779v-2.423c0-21.139-17.198-38.336-38.336-38.336
		c-21.139,0-38.336,17.198-38.336,38.336v67.722C287.549,232.395,304.747,249.593,325.885,249.593z"/>
	<path style="fill:#F95428;" d="M160.555,249.593h21.503c25.049,0,45.429-20.38,45.429-45.429c0-14.567-6.901-27.545-17.595-35.864
		c4.898-6.585,7.801-14.736,7.801-23.554c0-21.807-17.741-39.548-39.548-39.548h-17.59c-7.058,0-12.779,5.721-12.779,12.779v53.538
		v65.298C147.776,243.872,153.497,249.593,160.555,249.593z M182.057,224.035h-8.724v-39.741h4.811h3.914
		c10.957,0,19.871,8.914,19.871,19.87C201.928,215.121,193.014,224.035,182.057,224.035z M173.333,130.755h4.811
		c7.715,0,13.99,6.276,13.99,13.99c0,7.715-6.276,13.99-13.99,13.99h-4.811V130.755z"/>
</g>
<g>
</g>
<g>
</g>
<g>
</g>
<g>
</g>
<g>
</g>
<g>
</g>
<g>
</g>
<g>
</g>
<g>
</g>
<g>
</g>
<g>
</g>
<g>
</g>
<g>
</g>
<g>
</g>
<g>
</g>
</svg>
