<?xml version="1.0" encoding="iso-8859-1"?>
<!-- Generator: Adobe Illustrator 19.0.0, SVG Export Plug-In . SVG Version: 6.00 Build 0)  -->
<svg xmlns="http://www.w3.org/2000/svg" xmlns:xlink="http://www.w3.org/1999/xlink" version="1.1" id="Layer_1" x="0px" y="0px" viewBox="0 0 512 512" style="enable-background:new 0 0 512 512;" xml:space="preserve" width="512px" height="512px">
<g>
	<g>
		<path d="M453.909,232.186L304.345,82.621c3.354-6.995,5.237-14.824,5.237-23.086c0-29.545-24.035-53.581-53.581-53.581    s-53.581,24.037-53.581,53.581c0,8.262,1.883,16.091,5.237,23.086L58.091,232.186H0v273.86h512v-273.86H453.909z M232.914,107.88    c6.995,3.354,14.824,5.237,23.086,5.237s16.091-1.883,23.086-5.237l124.306,124.306H108.607L232.914,107.88z M476.279,470.326    H35.721V267.907h440.558V470.326z" fill="#FFFFFF"/>
	</g>
</g>
<g>
	<g>
		<polygon points="139.836,315.297 139.836,366.878 99.114,315.297 77.395,315.297 77.395,416.744 105.258,416.744 105.258,366.878     145.551,416.744 167.698,416.744 167.698,315.297   " fill="#FFFFFF"/>
	</g>
</g>
<g>
	<g>
		<polygon points="221.708,392.454 221.708,376.451 258.572,376.451 258.572,353.875 221.708,353.875 221.708,339.587     264.858,339.587 264.858,315.297 193.844,315.297 193.844,416.744 266.145,416.744 266.145,392.454   " fill="#FFFFFF"/>
	</g>
</g>
<g>
	<g>
		<polygon points="404.313,315.297 382.452,384.881 375.165,363.734 391.882,315.297 366.306,315.297 357.305,346.588     348.446,315.297 322.87,315.297 339.301,363.734 332.3,384.881 310.296,315.297 280.147,315.297 319.869,416.744 343.016,416.744     357.305,380.452 371.736,416.744 394.883,416.744 434.605,315.297   " fill="#FFFFFF"/>
	</g>
</g>
<g>
</g>
<g>
</g>
<g>
</g>
<g>
</g>
<g>
</g>
<g>
</g>
<g>
</g>
<g>
</g>
<g>
</g>
<g>
</g>
<g>
</g>
<g>
</g>
<g>
</g>
<g>
</g>
<g>
</g>
</svg>
