<?xml version="1.0" encoding="iso-8859-1"?>
<!-- Generator: Adobe Illustrator 19.0.0, SVG Export Plug-In . SVG Version: 6.00 Build 0)  -->
<svg xmlns="http://www.w3.org/2000/svg" xmlns:xlink="http://www.w3.org/1999/xlink" version="1.1" id="Layer_1" x="0px" y="0px" viewBox="0 0 438.676 438.676" style="enable-background:new 0 0 438.676 438.676;" xml:space="preserve" width="512px" height="512px">
<g>
	<g>
		<path d="M219.34,37.97c-100.008,0-181.37,81.362-181.37,181.37s81.362,181.37,181.37,181.37s181.37-81.362,181.37-181.37    S319.348,37.97,219.34,37.97z M219.34,385.709c-91.736,0-166.37-74.633-166.37-166.37S127.604,52.97,219.34,52.97    c91.737,0,166.37,74.633,166.37,166.37S311.077,385.709,219.34,385.709z" fill="#FFFFFF"/>
	</g>
</g>
<g>
	<g>
		<path d="M432.377,219.339c11.326-21.738,7.084-48.65-10.38-65.85c4.022-24.177-8.355-48.432-30.289-59.366    c-3.625-24.237-22.883-43.504-47.15-47.148c-10.933-21.937-35.188-34.313-59.368-30.292c-17.202-17.47-44.118-21.708-65.851-10.38    c-21.759-11.336-48.697-7.08-65.856,10.379c-24.17-4.017-48.427,8.359-59.36,30.29c-24.245,3.626-43.518,22.898-47.15,47.151    c-21.933,10.934-34.309,35.191-30.29,59.366c-17.46,17.197-21.705,44.1-10.378,65.848c-11.342,21.762-7.083,48.705,10.377,65.859    c-4.013,24.152,8.341,48.385,30.289,59.353c3.622,24.229,22.872,43.495,47.15,47.152c10.934,21.937,35.187,34.317,59.369,30.294    c17.189,17.456,44.08,21.701,65.846,10.378c8.139,4.242,17.002,6.302,25.811,6.301c14.717-0.001,29.283-5.753,40.044-16.679    c3.044,0.506,6.089,0.753,9.109,0.752c20.962-0.001,40.701-11.871,50.257-31.041c24.227-3.624,43.489-22.874,47.146-47.149    c21.936-10.933,34.314-35.192,30.294-59.369C439.463,267.987,443.705,241.071,432.377,219.339z M408.992,276.751    c-0.022,0.019-0.06,0.05-0.082,0.069c-2.167,1.852-3.096,4.772-2.398,7.536c5.009,19.85-5.547,40.545-24.555,48.146    c-2.687,1.065-4.532,3.639-4.726,6.531c-1.37,20.405-17.791,36.826-38.244,38.2c-2.781,0.182-5.233,1.896-6.365,4.442    c-0.039,0.087-0.076,0.176-0.112,0.265c-7.595,19.018-28.297,29.582-48.153,24.571c-2.794-0.705-5.758,0.269-7.604,2.48    c-13.12,15.712-36.073,19.328-53.405,8.401c-2.446-1.545-5.586-1.531-8.032,0.011c-17.314,10.916-40.267,7.3-53.387-8.412    c-0.033-0.04-0.08-0.095-0.114-0.134c-1.444-1.658-3.517-2.574-5.656-2.574c-0.611,0-1.227,0.075-1.835,0.228    c-19.857,5.011-40.558-5.553-48.156-24.579c-1.071-2.678-3.643-4.508-6.521-4.702c-20.405-1.371-36.826-17.792-38.2-38.243    c-0.188-2.885-2.022-5.406-4.707-6.478c-19.019-7.595-29.582-28.297-24.572-48.153c0.706-2.797-0.271-5.76-2.48-7.604    c-15.712-13.12-19.328-36.071-8.428-53.363c1.572-2.45,1.568-5.613,0.016-8.075c-10.916-17.315-7.299-40.267,8.44-53.41    c2.204-1.848,3.156-4.793,2.453-7.581c-5.007-19.844,5.54-40.532,24.536-48.139c2.677-1.052,4.525-3.548,4.737-6.431    c0.001-0.016,0.006-0.091,0.008-0.107c1.37-20.405,17.791-36.826,38.244-38.2c2.781-0.182,5.233-1.896,6.365-4.442    c0.039-0.087,0.076-0.176,0.112-0.264c7.595-19.018,28.295-29.582,48.153-24.571c2.794,0.705,5.758-0.269,7.604-2.48    c13.12-15.711,36.071-19.328,53.35-8.436c2.452,1.58,5.622,1.578,8.087,0.023c17.316-10.917,40.268-7.3,53.387,8.412    c0.033,0.04,0.08,0.095,0.114,0.134c1.856,2.131,4.752,3.036,7.491,2.346c19.857-5.011,40.558,5.553,48.152,24.572    c0.023,0.058,0.049,0.119,0.073,0.176c1.11,2.591,3.639,4.344,6.451,4.533c20.405,1.37,36.826,17.791,38.2,38.244    c0.182,2.781,1.896,5.233,4.442,6.365c0.087,0.039,0.175,0.076,0.264,0.112c19.019,7.595,29.582,28.296,24.572,48.153    c-0.697,2.764,0.232,5.684,2.398,7.536c0.022,0.019,0.06,0.05,0.082,0.069c15.712,13.12,19.329,36.071,8.462,53.31l-0.016,0.026    c-1.589,2.453-1.592,5.63-0.033,8.102C428.32,240.68,424.704,263.632,408.992,276.751z" fill="#FFFFFF"/>
	</g>
</g>
<g>
	<g>
		<path d="M108.128,209.623c-7.125,0-12.921-5.796-12.921-12.921s5.796-12.921,12.921-12.921h3.11c5.41,0,9.811,4.401,9.811,9.811    c0,4.142,3.358,7.5,7.5,7.5c4.142,0,7.5-3.358,7.5-7.5c0-13.681-11.13-24.811-24.811-24.811h-3.11    c-15.396,0-27.921,12.525-27.921,27.921c0,15.396,12.525,27.921,27.921,27.921c7.125,0,12.921,5.797,12.921,12.921    s-5.796,12.921-12.921,12.921h-3.11c-5.41,0-9.811-4.401-9.811-9.811c0-4.142-3.358-7.5-7.5-7.5c-4.142,0-7.5,3.358-7.5,7.5    c0,13.681,11.13,24.811,24.811,24.811h3.11c15.396,0,27.921-12.525,27.921-27.921S123.524,209.623,108.128,209.623z" fill="#FFFFFF"/>
	</g>
</g>
<g>
	<g>
		<path d="M281.122,239.103c-4.142,0-7.5,3.358-7.5,7.5v3.862H247.78V176.28c0-4.142-3.358-7.5-7.5-7.5c-4.142,0-7.5,3.358-7.5,7.5    v81.685c0,4.142,3.358,7.5,7.5,7.5h40.842c4.142,0,7.5-3.358,7.5-7.5v-11.362C288.622,242.461,285.264,239.103,281.122,239.103z" fill="#FFFFFF"/>
	</g>
</g>
<g>
	<g>
		<path d="M350.973,197.392c4.142,0,7.5-3.358,7.5-7.5V176.28c0-4.142-3.358-7.5-7.5-7.5h-40.842c-4.142,0-7.5,3.358-7.5,7.5v81.685    c0,4.142,3.358,7.5,7.5,7.5h40.842c4.142,0,7.5-3.358,7.5-7.5v-11.362c0-4.142-3.358-7.5-7.5-7.5c-4.142,0-7.5,3.358-7.5,7.5    v3.862h-25.842v-25.843h15.539c4.142,0,7.5-3.358,7.5-7.5c0-4.142-3.358-7.5-7.5-7.5h-15.539V183.78h25.842v6.112    C343.473,194.034,346.831,197.392,350.973,197.392z" fill="#FFFFFF"/>
	</g>
</g>
<g>
	<g>
		<path d="M182.247,169.309c-15.25,0-27.657,12.407-27.657,27.657v60.47c0,4.142,3.358,7.5,7.5,7.5c4.142,0,7.5-3.358,7.5-7.5    v-19.723h25.314v19.723c0,4.143,3.358,7.5,7.5,7.5c4.142,0,7.5-3.358,7.5-7.5v-60.47    C209.904,181.716,197.497,169.309,182.247,169.309z M194.904,222.714H169.59v-25.748c0-6.979,5.678-12.657,12.657-12.657    s12.657,5.678,12.657,12.657V222.714z" fill="#FFFFFF"/>
	</g>
</g>
<g>
	<g>
		<path d="M298.357,133.093H140.324c-4.142,0-7.5,3.358-7.5,7.5c0,4.142,3.358,7.5,7.5,7.5h158.033c4.142,0,7.5-3.358,7.5-7.5    C305.857,136.451,302.499,133.093,298.357,133.093z" fill="#FFFFFF"/>
	</g>
</g>
<g>
	<g>
		<path d="M253.839,98.595h-68.997c-4.142,0-7.5,3.358-7.5,7.5c0,4.142,3.358,7.5,7.5,7.5h68.997c4.142,0,7.5-3.358,7.5-7.5    C261.339,101.953,257.981,98.595,253.839,98.595z" fill="#FFFFFF"/>
	</g>
</g>
<g>
	<g>
		<path d="M298.356,290.585H140.324c-4.142,0-7.5,3.358-7.5,7.5c0,4.142,3.358,7.5,7.5,7.5h158.033c4.142,0,7.5-3.358,7.5-7.5    C305.857,293.943,302.499,290.585,298.356,290.585z" fill="#FFFFFF"/>
	</g>
</g>
<g>
	<g>
		<path d="M253.838,325.084h-68.997c-4.142,0-7.5,3.358-7.5,7.5c0,4.142,3.358,7.5,7.5,7.5h68.997c4.142,0,7.5-3.358,7.5-7.5    C261.338,328.442,257.98,325.084,253.838,325.084z" fill="#FFFFFF"/>
	</g>
</g>
<g>
</g>
<g>
</g>
<g>
</g>
<g>
</g>
<g>
</g>
<g>
</g>
<g>
</g>
<g>
</g>
<g>
</g>
<g>
</g>
<g>
</g>
<g>
</g>
<g>
</g>
<g>
</g>
<g>
</g>
</svg>
