<?xml version="1.0" encoding="iso-8859-1"?>
<!-- Generator: Adobe Illustrator 19.0.0, SVG Export Plug-In . SVG Version: 6.00 Build 0)  -->
<svg version="1.1" id="Layer_1" xmlns="http://www.w3.org/2000/svg" xmlns:xlink="http://www.w3.org/1999/xlink" x="0px" y="0px"
	 viewBox="0 0 512 512" style="enable-background:new 0 0 512 512;" xml:space="preserve">
<polygon style="fill:#FF0C38;" points="423.759,178.799 512,178.799 477.178,256 512,333.2 402.55,333.2 119.723,333.2 0,333.2 
	34.823,256 0,178.799 97.475,178.799 "/>
<polygon style="fill:#FFA5B5;" points="34.845,255.997 16.212,297.306 495.832,297.306 477.199,255.997 494.875,216.811 
	17.169,216.811 "/>
<path style="opacity:0.32;fill:#A5001E;enable-background:new    ;" d="M402.55,334.259h46.17
	c9.825-23.792,15.257-49.86,15.257-77.201c0-27.34-5.432-53.408-15.257-77.201h-24.961H97.475H74.4
	c-9.825,23.792-15.257,49.86-15.257,77.201c0,27.34,5.432,53.408,15.257,77.201h45.322H402.55z"/>
<path style="fill:#EEBF00;" d="M270.506,80.056l34.853,30.201l45.647-6.564c6.725-0.967,13.138,3.155,15.052,9.674l12.992,44.249
	L421,176.773c6.18,2.822,9.348,9.758,7.433,16.276l-12.994,44.248l24.933,38.796c3.674,5.716,2.589,13.262-2.546,17.71
	l-34.854,30.199l0.001,46.117c0,6.795-4.993,12.556-11.717,13.523l-45.648,6.562l-24.932,38.797
	c-3.673,5.716-10.988,7.863-17.168,5.041l-41.949-19.158l-41.949,19.158c-6.18,2.822-13.495,0.675-17.168-5.041l-24.931-38.795
	l-45.648-6.562c-6.725-0.967-11.717-6.728-11.717-13.523l0.001-46.117l-34.854-30.199c-5.135-4.45-6.22-11.996-2.546-17.71
	l24.933-38.796l-12.994-44.249c-1.914-6.519,1.253-13.454,7.433-16.276l41.95-19.157l12.992-44.249
	c1.914-6.519,8.328-10.64,15.052-9.674l45.647,6.564l34.853-30.201C257.748,75.607,265.373,75.607,270.506,80.056z"/>
<circle style="fill:#CCA400;" cx="261.556" cy="255.999" r="119.333"/>
<circle style="fill:#FFEB99;stroke:#FFF5CC;stroke-miterlimit:10;" cx="261.556" cy="255.999" r="91.794"/>
<path style="opacity:0.22;fill:#FFFFFF;enable-background:new    ;" d="M379.789,157.616l-12.992-44.249
	c-1.914-6.519-8.328-10.64-15.052-9.674l-10.333,1.486L120.885,325.706l-0.001,44.414c0,6.795,4.993,12.556,11.717,13.523
	l45.648,6.562l2.238,3.483l224.545-224.545L379.789,157.616z"/>
<path style="opacity:0.11;fill:#CCA400;enable-background:new    ;" d="M441.883,276.094l-24.933-38.796l12.994-44.248
	c1.915-6.519-1.253-13.454-7.433-16.276l-41.95-19.157l-12.992-44.249c-1.914-6.519-8.328-10.64-15.052-9.674l-14.985,2.154
	c12.182,24.243,19.05,51.617,19.05,80.598c0,99.281-80.484,179.764-179.764,179.764c-19.245,0-37.778-3.036-55.161-8.635v12.546
	c0,6.795,4.992,12.556,11.717,13.523l45.648,6.562l24.932,38.797c3.673,5.716,10.988,7.863,17.168,5.041l41.949-19.158
	l41.949,19.158c6.18,2.822,13.495,0.675,17.168-5.041l24.932-38.797l45.648-6.562c6.725-0.967,11.717-6.728,11.717-13.523
	l-0.001-46.117l34.854-30.199C444.471,289.355,445.556,281.809,441.883,276.094z"/>
<g>
</g>
<g>
</g>
<g>
</g>
<g>
</g>
<g>
</g>
<g>
</g>
<g>
</g>
<g>
</g>
<g>
</g>
<g>
</g>
<g>
</g>
<g>
</g>
<g>
</g>
<g>
</g>
<g>
</g>
</svg>
