<?xml version="1.0" encoding="iso-8859-1"?>
<!-- Generator: Adobe Illustrator 19.0.0, SVG Export Plug-In . SVG Version: 6.00 Build 0)  -->
<svg version="1.1" id="Layer_1" xmlns="http://www.w3.org/2000/svg" xmlns:xlink="http://www.w3.org/1999/xlink" x="0px" y="0px"
	 viewBox="0 0 512 512" style="enable-background:new 0 0 512 512;" xml:space="preserve">
<g>
	<path style="fill:#D75D72;" d="M512,256c0,141.383-114.617,256-256,256S0,397.383,0,256S114.617,0,256,0S512,114.617,512,256"/>
	<g>
		<path style="fill:#FFFFFF;" d="M123.586,300.138c-4.882,0-8.828-3.955-8.828-8.828v-88.276c0-4.873,3.946-8.828,8.828-8.828
			s8.828,3.955,8.828,8.828v88.276C132.414,296.183,128.468,300.138,123.586,300.138"/>
		<path style="fill:#FFFFFF;" d="M176.552,300.138c-4.882,0-8.828-3.955-8.828-8.828v-88.276c0-4.873,3.946-8.828,8.828-8.828
			s8.828,3.955,8.828,8.828v88.276C185.379,296.183,181.433,300.138,176.552,300.138"/>
		<path style="fill:#FFFFFF;" d="M176.561,300.138c-3.001,0-5.923-1.527-7.574-4.281l-52.966-88.276
			c-2.516-4.184-1.156-9.604,3.019-12.111c4.193-2.516,9.604-1.156,12.111,3.019l52.966,88.276
			c2.516,4.184,1.156,9.604-3.019,12.111C179.677,299.732,178.105,300.138,176.561,300.138"/>
		<path style="fill:#FFFFFF;" d="M326.621,300.142c-3.805,0-7.309-2.472-8.457-6.294l-26.483-88.276
			c-1.395-4.67,1.254-9.596,5.923-10.99c4.679-1.395,9.596,1.245,10.99,5.914l26.483,88.276c1.395,4.67-1.254,9.596-5.923,10.999
			C328.307,300.019,327.459,300.142,326.621,300.142"/>
		<path style="fill:#FFFFFF;" d="M326.621,300.142c-0.839,0-1.686-0.124-2.534-0.371c-4.67-1.404-7.318-6.329-5.923-10.999
			l26.483-88.276c1.395-4.67,6.294-7.336,10.99-5.914c4.67,1.395,7.318,6.321,5.923,10.99l-26.483,88.276
			C333.93,297.671,330.425,300.142,326.621,300.142"/>
		<path style="fill:#FFFFFF;" d="M379.586,300.142c-3.805,0-7.309-2.472-8.457-6.294l-26.483-88.276
			c-1.395-4.67,1.254-9.596,5.923-10.99c4.67-1.395,9.596,1.245,10.99,5.914l26.483,88.276c1.395,4.67-1.254,9.596-5.923,10.999
			C381.272,300.019,380.425,300.142,379.586,300.142"/>
		<path style="fill:#FFFFFF;" d="M379.586,300.142c-0.839,0-1.686-0.124-2.534-0.371c-4.67-1.404-7.318-6.329-5.923-10.999
			l26.483-88.276c1.395-4.67,6.303-7.336,10.99-5.914c4.67,1.395,7.318,6.321,5.923,10.99l-26.483,88.276
			C386.895,297.671,383.391,300.142,379.586,300.142"/>
		<path style="fill:#FFFFFF;" d="M206.319,68.091c-3.937,0-7.53-2.648-8.545-6.638c-1.201-4.732,1.651-9.543,6.374-10.743
			c17.028-4.343,34.463-6.559,51.844-6.568h0.009c4.873,0,8.828,3.946,8.828,8.819s-3.946,8.828-8.819,8.836
			c-15.916,0.009-31.885,2.039-47.501,6.02C207.776,68.002,207.043,68.091,206.319,68.091"/>
		<path style="fill:#FFFFFF;" d="M75.431,171.884c-1.359,0-2.745-0.318-4.034-0.98c-4.334-2.233-6.038-7.556-3.805-11.891
			c20.789-40.377,55.164-73.684,96.786-93.767c4.387-2.11,9.675-0.265,11.785,4.122c2.119,4.387,0.274,9.666-4.114,11.785
			c-38.188,18.423-69.711,48.949-88.761,85.945C81.725,170.136,78.626,171.884,75.431,171.884"/>
		<path style="fill:#FFFFFF;" d="M52.966,264.828L52.966,264.828c-4.882,0-8.828-3.955-8.828-8.828
			c0.009-19.359,2.622-38.541,7.768-57.009c1.298-4.696,6.179-7.433,10.867-6.135c4.696,1.306,7.442,6.17,6.135,10.867
			c-4.714,16.931-7.106,34.516-7.115,52.277C61.793,260.882,57.838,264.828,52.966,264.828"/>
		<path style="fill:#FFFFFF;" d="M256,467.862c-4.873,0-8.828-3.946-8.828-8.828c0-4.873,3.946-8.828,8.819-8.828
			c17.002-0.009,34.022-2.313,50.573-6.841c4.652-1.28,9.551,1.474,10.84,6.188c1.289,4.696-1.483,9.551-6.188,10.84
			c-18.07,4.943-36.643,7.459-55.208,7.468H256z"/>
		<path style="fill:#FFFFFF;" d="M349.828,444.561c-3.178,0-6.25-1.721-7.83-4.732c-2.269-4.317-0.591-9.649,3.716-11.917
			c37.976-19.906,68.679-51.889,86.449-90.041c2.048-4.414,7.274-6.347,11.723-4.281c4.423,2.066,6.338,7.309,4.281,11.732
			c-19.394,41.649-52.868,76.526-94.243,98.233C352.608,444.234,351.205,444.561,349.828,444.561"/>
		<path style="fill:#FFFFFF;" d="M453.681,311.383c-0.671,0-1.342-0.071-2.022-0.23c-4.758-1.121-7.698-5.87-6.585-10.62
			c3.399-14.46,5.12-29.449,5.129-44.535c0-4.882,3.964-8.828,8.828-8.828h0.009c4.873,0.009,8.819,3.955,8.819,8.836
			c-0.009,16.437-1.88,32.777-5.588,48.569C461.308,308.638,457.68,311.383,453.681,311.383"/>
		<path style="fill:#FFFFFF;" d="M220.69,300.138c-4.882,0-8.828-3.955-8.828-8.828v-88.276c0-4.873,3.946-8.828,8.828-8.828
			s8.828,3.955,8.828,8.828v88.276C229.517,296.183,225.571,300.138,220.69,300.138"/>
		<path style="fill:#FFFFFF;" d="M256,300.138h-35.31c-4.882,0-8.828-3.955-8.828-8.828c0-4.873,3.946-8.828,8.828-8.828H256
			c4.882,0,8.828,3.955,8.828,8.828C264.828,296.183,260.882,300.138,256,300.138"/>
		<path style="fill:#FFFFFF;" d="M256,211.862h-35.31c-4.882,0-8.828-3.955-8.828-8.828c0-4.873,3.946-8.828,8.828-8.828H256
			c4.882,0,8.828,3.955,8.828,8.828C264.828,207.907,260.882,211.862,256,211.862"/>
		<path style="fill:#FFFFFF;" d="M256,256h-35.31c-4.882,0-8.828-3.955-8.828-8.828c0-4.873,3.946-8.828,8.828-8.828H256
			c4.882,0,8.828,3.955,8.828,8.828C264.828,252.045,260.882,256,256,256"/>
	</g>
	<path style="fill:#DF7E8E;" d="M256,0c4.44,0,8.854,0.115,13.241,0.335C134.012,7.23,26.483,119.058,26.483,256
		s107.529,248.77,242.759,255.665C264.854,511.885,260.44,512,256,512C114.617,512,0,397.383,0,256S114.617,0,256,0"/>
	<path style="fill:#A14756;" d="M256,0c-4.44,0-8.854,0.115-13.241,0.335C377.988,7.23,485.517,119.058,485.517,256
		S377.988,504.77,242.759,511.665C247.146,511.885,251.56,512,256,512c141.383,0,256-114.617,256-256S397.383,0,256,0"/>
</g>
<g>
</g>
<g>
</g>
<g>
</g>
<g>
</g>
<g>
</g>
<g>
</g>
<g>
</g>
<g>
</g>
<g>
</g>
<g>
</g>
<g>
</g>
<g>
</g>
<g>
</g>
<g>
</g>
<g>
</g>
</svg>
