<?xml version="1.0" encoding="iso-8859-1"?>
<!-- Generator: Adobe Illustrator 19.0.0, SVG Export Plug-In . SVG Version: 6.00 Build 0)  -->
<svg xmlns="http://www.w3.org/2000/svg" xmlns:xlink="http://www.w3.org/1999/xlink" version="1.1" id="Layer_1" x="0px" y="0px" viewBox="0 0 507.176 507.176" style="enable-background:new 0 0 507.176 507.176;" xml:space="preserve" width="512px" height="512px">
<g>
	<g>
		<path d="M505.71,193.128c-4.604-14.052-19.424-23.544-41.732-26.724l-118.972-16.92L291.494,41.828    c-10.004-20.116-23.632-31.204-38.38-31.204c-14.812,0-28.44,11.164-38.372,31.416l-52.876,107.972L42.974,167.636    c-22.22,3.292-36.964,12.828-41.532,26.852c-4.232,13.016,0.924,28.044,14.544,42.664c0.172,0.276,0.596,0.532,0.84,0.764    l2.988,2.688v0.008l-0.152,0.06l-0.084,0.024c0.032,0.032,0.012,0.064,0.048,0.092l86.18,83.576l-19.972,118.54    c-3.136,18.584-0.524,33.464,7.576,43.048c5.864,6.928,14.308,10.6,24.424,10.6c9.132,0,19.296-2.928,30.2-8.704l106.22-56.244    l106.552,55.624c23.012,12.02,43.448,11.068,54.556-2.14c8.084-9.62,10.64-24.552,7.4-43.164L402.094,323.5l85.828-84.156    C503.99,223.576,510.314,207.172,505.71,193.128z" fill="#FFFFFF"/>
	</g>
</g>
<g>
</g>
<g>
</g>
<g>
</g>
<g>
</g>
<g>
</g>
<g>
</g>
<g>
</g>
<g>
</g>
<g>
</g>
<g>
</g>
<g>
</g>
<g>
</g>
<g>
</g>
<g>
</g>
<g>
</g>
</svg>
