<?xml version="1.0" encoding="iso-8859-1"?>
<!-- Generator: Adobe Illustrator 19.0.0, SVG Export Plug-In . SVG Version: 6.00 Build 0)  -->
<svg version="1.1" id="Layer_1" xmlns="http://www.w3.org/2000/svg" xmlns:xlink="http://www.w3.org/1999/xlink" x="0px" y="0px"
	 viewBox="0 0 512 512" style="enable-background:new 0 0 512 512;" xml:space="preserve">
<path style="fill:#666666;" d="M466.579,256c0-19.858,19.465-42.008,14.569-60.322c-5.065-18.951-33.142-28.38-42.742-44.973
	c-9.738-16.831-3.967-45.826-17.626-59.485c-13.659-13.659-42.654-7.888-59.485-17.626c-16.592-9.599-26.021-37.676-44.971-42.742
	c-18.316-4.895-40.464,14.569-60.322,14.569c-19.858,0-42.008-19.465-60.322-14.569c-18.951,5.065-28.38,33.142-44.973,42.742
	c-16.831,9.738-45.826,3.967-59.485,17.626c-13.659,13.659-7.888,42.654-17.626,59.485c-9.599,16.592-37.676,26.021-42.742,44.971
	c-4.895,18.316,14.569,40.464,14.569,60.322s-19.465,42.008-14.569,60.322c5.065,18.951,33.142,28.38,42.742,44.973
	c9.738,16.831,3.967,45.826,17.626,59.485c13.659,13.659,42.654,7.888,59.485,17.626c16.592,9.599,26.021,37.676,44.971,42.742
	c18.316,4.895,40.464-14.569,60.322-14.569s42.008,19.465,60.322,14.569c18.951-5.065,28.38-33.142,44.973-42.742
	c16.831-9.738,45.826-3.967,59.485-17.626c13.659-13.659,7.888-42.654,17.626-59.485c9.599-16.592,37.676-26.021,42.742-44.971
	C486.042,298.007,466.579,275.859,466.579,256z"/>
<circle style="fill:#F95428;" cx="256.001" cy="256" r="164.777"/>
<path style="fill:#E54728;" d="M292.33,384.45c-91.005,0-164.78-73.774-164.78-164.78c0-36.232,11.704-69.726,31.523-96.927
	C117.953,152.705,91.222,201.226,91.222,256c0,91.005,73.774,164.78,164.78,164.78c54.773,0,103.295-26.732,133.256-67.852
	C362.055,372.747,328.562,384.45,292.33,384.45z"/>
<g>
	<path style="fill:#FFFFFF;" d="M232.813,379.283c-2.446,0-4.894-0.933-6.76-2.801c-3.734-3.734-3.734-9.786,0-13.52l46.375-46.376
		c3.734-3.734,9.788-3.734,13.52,0c3.734,3.734,3.734,9.786,0,13.52l-46.375,46.376C237.706,378.35,235.26,379.283,232.813,379.283z
		"/>
	<circle style="fill:#FFFFFF;" cx="279.189" cy="369.862" r="8.758"/>
	<circle style="fill:#FFFFFF;" cx="232.838" cy="323.499" r="8.758"/>
</g>
<path style="fill:#4D4D4D;" d="M256.001,433.527c-97.889,0-177.527-79.639-177.527-177.527S158.112,78.473,256.001,78.473
	S433.527,158.111,433.527,256S353.889,433.527,256.001,433.527z M256.001,103.969c-83.83,0-152.032,68.2-152.032,152.031
	s68.2,152.032,152.032,152.032c83.83,0,152.031-68.2,152.031-152.032C408.033,172.169,339.831,103.969,256.001,103.969z"/>
<g>
	<path style="fill:#FFFFFF;" d="M203.038,299.905h-24.413c-5.28,0-9.561-4.281-9.561-9.561c0-5.28,4.281-9.561,9.561-9.561h24.413
		c14.402,0,26.12-11.718,26.12-26.12c0-14.402-11.718-26.12-26.12-26.12h-24.413c-5.28,0-9.561-4.281-9.561-9.561v-48.826
		c0-5.28,4.281-9.561,9.561-9.561h60.094c5.28,0,9.561,4.281,9.561,9.561c0,5.28-4.281,9.561-9.561,9.561h-50.533v29.705h14.852
		c24.946,0,45.242,20.296,45.242,45.242S227.984,299.905,203.038,299.905z"/>
	<path style="fill:#FFFFFF;" d="M314.11,299.908c-25.292,0-45.868-20.576-45.868-45.868v-47.581
		c0-25.292,20.576-45.868,45.868-45.868c25.292,0,45.868,20.576,45.868,45.868v47.581
		C359.978,279.332,339.401,299.908,314.11,299.908z M314.11,179.713c-14.748,0-26.746,11.998-26.746,26.746v47.581
		c0,14.748,11.998,26.746,26.746,26.746l0,0c14.748,0,26.746-11.998,26.746-26.746v-47.581
		C340.856,191.712,328.858,179.713,314.11,179.713z"/>
</g>
<g>
	<path style="fill:#F95428;" d="M450.633,70.291c-2.284,0-4.568-0.871-6.31-2.613c-3.485-3.485-3.485-9.135,0-12.619l52.444-52.444
		c3.485-3.485,9.136-3.484,12.619,0c3.485,3.485,3.485,9.135,0,12.619l-52.444,52.444C455.201,69.42,452.916,70.291,450.633,70.291z
		"/>
	<path style="fill:#F95428;" d="M421.313,40.971c-2.284,0-4.568-0.871-6.31-2.613c-3.485-3.485-3.485-9.135,0-12.619L437.49,3.252
		c3.485-3.484,9.136-3.484,12.619,0c3.485,3.485,3.485,9.135,0,12.619l-22.487,22.487C425.881,40.1,423.596,40.971,421.313,40.971z"
		/>
	<path style="fill:#F95428;" d="M479.953,99.61c-2.284,0-4.568-0.871-6.31-2.613c-3.485-3.485-3.485-9.135,0-12.619l22.487-22.487
		c3.485-3.485,9.136-3.484,12.619,0c3.485,3.485,3.485,9.135,0,12.619l-22.487,22.487C484.52,98.74,482.236,99.61,479.953,99.61z"/>
	<path style="fill:#F95428;" d="M8.924,512c-2.284,0-4.568-0.871-6.31-2.613c-3.485-3.485-3.485-9.135,0-12.619l52.444-52.444
		c3.485-3.484,9.136-3.484,12.619,0c3.485,3.485,3.485,9.135,0,12.619l-52.444,52.444C13.492,511.129,11.207,512,8.924,512z"/>
	<path style="fill:#F95428;" d="M68.201,511.362c-2.284,0-4.568-0.871-6.31-2.613c-3.485-3.485-3.485-9.135,0-12.619l22.487-22.487
		c3.485-3.484,9.136-3.484,12.619,0c3.485,3.485,3.485,9.135,0,12.619L74.51,508.749C72.769,510.492,70.484,511.362,68.201,511.362z
		"/>
	<path style="fill:#F95428;" d="M9.561,452.723c-2.284,0-4.568-0.871-6.31-2.613c-3.485-3.485-3.485-9.135,0-12.619l22.487-22.487
		c3.485-3.485,9.136-3.484,12.619,0c3.485,3.485,3.485,9.135,0,12.619L15.87,450.109C14.129,451.852,11.845,452.723,9.561,452.723z"
		/>
	<path style="fill:#F95428;" d="M503.077,512c-2.284,0-4.568-0.871-6.31-2.613l-52.444-52.444c-3.485-3.485-3.485-9.135,0-12.619
		c3.484-3.485,9.135-3.485,12.619,0l52.444,52.444c3.485,3.485,3.485,9.135,0,12.619C507.645,511.129,505.362,512,503.077,512z"/>
	<path style="fill:#F95428;" d="M502.44,452.723c-2.284,0-4.568-0.871-6.31-2.613l-22.487-22.487c-3.485-3.485-3.485-9.135,0-12.619
		c3.484-3.485,9.135-3.485,12.619,0l22.487,22.487c3.485,3.485,3.485,9.135,0,12.619
		C507.007,451.852,504.724,452.723,502.44,452.723z"/>
	<path style="fill:#F95428;" d="M443.8,511.362c-2.284,0-4.568-0.871-6.31-2.613l-22.487-22.487c-3.485-3.485-3.485-9.135,0-12.619
		c3.484-3.485,9.135-3.485,12.619,0l22.487,22.487c3.485,3.485,3.485,9.135,0,12.619C448.368,510.492,446.085,511.362,443.8,511.362
		z"/>
	<path style="fill:#F95428;" d="M61.368,70.291c-2.284,0-4.568-0.871-6.31-2.613L2.614,15.233c-3.485-3.485-3.485-9.135,0-12.619
		c3.484-3.485,9.135-3.485,12.619,0l52.444,52.444c3.485,3.485,3.485,9.135,0,12.619C65.936,69.42,63.653,70.291,61.368,70.291z"/>
	<path style="fill:#F95428;" d="M32.048,99.61c-2.284,0-4.568-0.871-6.31-2.613L3.251,74.51c-3.485-3.485-3.485-9.135,0-12.619
		c3.484-3.485,9.135-3.485,12.619,0l22.487,22.487c3.485,3.485,3.485,9.135,0,12.619C36.616,98.74,34.333,99.61,32.048,99.61z"/>
	<path style="fill:#F95428;" d="M90.688,40.971c-2.284,0-4.568-0.871-6.31-2.613L61.891,15.871c-3.485-3.485-3.485-9.135,0-12.619
		c3.484-3.485,9.135-3.485,12.619,0l22.487,22.487c3.485,3.485,3.485,9.135,0,12.619C95.256,40.1,92.972,40.971,90.688,40.971z"/>
</g>
<g>
</g>
<g>
</g>
<g>
</g>
<g>
</g>
<g>
</g>
<g>
</g>
<g>
</g>
<g>
</g>
<g>
</g>
<g>
</g>
<g>
</g>
<g>
</g>
<g>
</g>
<g>
</g>
<g>
</g>
</svg>
