<?xml version="1.0" encoding="iso-8859-1"?>
<!-- Generator: Adobe Illustrator 19.0.0, SVG Export Plug-In . SVG Version: 6.00 Build 0)  -->
<svg version="1.1" id="Layer_1" xmlns="http://www.w3.org/2000/svg" xmlns:xlink="http://www.w3.org/1999/xlink" x="0px" y="0px"
	 viewBox="0 0 491.521 491.521" style="enable-background:new 0 0 491.521 491.521;" xml:space="preserve">
<polygon style="fill:#27A2DB;" points="451.208,286.073 491.52,245.76 450.286,204.526 472.322,150.535 419.539,128.991 
	419.539,71.982 361.225,71.982 338.629,18.222 286.073,40.312 245.76,0 204.526,41.234 150.535,19.198 128.992,71.982 
	71.982,71.982 71.982,130.296 18.222,152.891 40.313,205.448 0,245.76 41.235,286.995 19.198,340.986 71.982,362.529 
	71.982,419.539 130.296,419.539 152.891,473.298 205.448,451.208 245.76,491.521 286.995,450.286 340.985,472.322 362.529,419.539 
	419.539,419.539 419.539,361.225 473.298,338.629 "/>
<circle style="fill:#2D93BA;" cx="245.76" cy="245.76" r="162.002"/>
<path style="fill:#1C75A1;" d="M231.807,174.887c7.247,7.839,10.874,17.331,10.874,28.458c0,11.127-3.667,20.658-11.001,28.584
	c-7.342,7.926-16.446,11.886-27.32,11.886c-10.882,0-19.946-3.92-27.193-11.759c-7.255-7.839-10.882-17.331-10.882-28.458
	c0-11.127,3.675-20.658,11.008-28.584c7.334-7.926,16.438-11.886,27.32-11.886C215.488,163.128,224.552,167.048,231.807,174.887z
	 M334.755,167.427l-129.51,176.815h-32.63l129.51-176.815H334.755z M214.855,216.63c2.695-3.461,4.046-7.721,4.046-12.779
	c0-5.058-1.43-9.317-4.299-12.771c-2.869-3.453-6.37-5.192-10.495-5.192c-4.133,0-7.555,1.739-10.25,5.192
	c-2.695,3.453-4.046,7.713-4.046,12.771c0,5.058,1.43,9.317,4.299,12.779c2.869,3.453,6.37,5.184,10.503,5.184
	C208.739,221.814,212.153,220.083,214.855,216.63z M332.227,277.338c7.247,7.84,10.882,17.323,10.882,28.458
	c0,11.127-3.675,20.658-11.008,28.584c-7.334,7.926-16.438,11.886-27.32,11.886c-10.874,0-19.939-3.92-27.193-11.759
	c-7.247-7.847-10.874-17.331-10.874-28.458c0-11.135,3.667-20.658,11.001-28.584c7.342-7.926,16.446-11.894,27.32-11.894
	C315.915,265.571,324.972,269.491,332.227,277.338z M315.789,319.578c2.695-3.453,4.046-7.713,4.046-12.771
	s-1.438-9.317-4.299-12.779c-2.869-3.453-6.37-5.184-10.503-5.184c-4.133,0-7.547,1.731-10.242,5.184
	c-2.703,3.461-4.046,7.721-4.046,12.779s1.43,9.317,4.299,12.771c2.861,3.461,6.362,5.184,10.495,5.184
	C309.672,324.763,313.086,323.04,315.789,319.578z"/>
<path style="fill:#FFFFFF;" d="M222.87,165.951c7.247,7.839,10.874,17.331,10.874,28.458c0,11.127-3.667,20.658-11.001,28.584
	c-7.342,7.926-16.446,11.886-27.32,11.886c-10.882,0-19.946-3.92-27.193-11.759c-7.255-7.839-10.882-17.331-10.882-28.458
	s3.675-20.658,11.008-28.584c7.334-7.926,16.438-11.886,27.32-11.886C206.551,154.192,215.615,158.111,222.87,165.951z
	 M325.819,158.491l-129.51,176.815h-32.63l129.51-176.815H325.819z M205.919,207.693c2.695-3.461,4.046-7.721,4.046-12.779
	s-1.43-9.317-4.299-12.771c-2.869-3.453-6.37-5.192-10.495-5.192c-4.133,0-7.555,1.739-10.25,5.192
	c-2.695,3.453-4.046,7.713-4.046,12.771s1.43,9.317,4.299,12.779c2.869,3.453,6.37,5.184,10.503,5.184
	C199.802,212.877,203.216,211.146,205.919,207.693z M323.29,268.402c7.247,7.839,10.882,17.323,10.882,28.458
	c0,11.127-3.675,20.658-11.008,28.584c-7.334,7.926-16.438,11.886-27.32,11.886c-10.874,0-19.939-3.92-27.193-11.759
	c-7.247-7.847-10.874-17.331-10.874-28.458c0-11.135,3.667-20.658,11.001-28.584c7.342-7.926,16.446-11.894,27.32-11.894
	C306.979,256.634,316.035,260.554,323.29,268.402z M306.852,310.642c2.695-3.453,4.046-7.713,4.046-12.771
	s-1.438-9.317-4.299-12.779c-2.869-3.453-6.37-5.184-10.503-5.184s-7.547,1.731-10.242,5.184c-2.703,3.461-4.046,7.721-4.046,12.779
	s1.43,9.317,4.299,12.771c2.861,3.461,6.362,5.184,10.495,5.184C300.736,315.826,304.15,314.103,306.852,310.642z"/>
<g>
</g>
<g>
</g>
<g>
</g>
<g>
</g>
<g>
</g>
<g>
</g>
<g>
</g>
<g>
</g>
<g>
</g>
<g>
</g>
<g>
</g>
<g>
</g>
<g>
</g>
<g>
</g>
<g>
</g>
</svg>
