<?xml version="1.0" encoding="iso-8859-1"?>
<!-- Generator: Adobe Illustrator 19.0.0, SVG Export Plug-In . SVG Version: 6.00 Build 0)  -->
<svg version="1.1" id="Layer_1" xmlns="http://www.w3.org/2000/svg" xmlns:xlink="http://www.w3.org/1999/xlink" x="0px" y="0px"
	 viewBox="0 0 491.52 491.52" style="enable-background:new 0 0 491.52 491.52;" xml:space="preserve">
<g>
	<path style="fill:#64798A;" d="M244.372,153.895l-98.806-28.36v48.882c8.489,3.514,14.467,11.861,14.467,21.618
		c0,6.615-2.768,12.56-7.178,16.817l6.601,36.108c27.868,9.727,54.834,17.458,80.413,22.122c3.507,0.64,7.094,0.627,10.6-0.02
		c48.76-8.991,100.63-26.604,154.824-50.644c12.262-5.439,19.509-18.238,17.818-31.544c-3.602-28.327-13.905-54.531-29.157-77.116
		l-146.804,42.136C246.241,154.155,245.279,154.155,244.372,153.895z"/>
	<path style="fill:#64798A;" d="M113.222,196.035c0-9.758,5.981-18.106,14.47-21.618v-54.011l-30.157-8.657
		c-15.203,22.509-25.483,48.616-29.119,76.831c-1.726,13.399,5.652,26.296,18.054,31.648c10.179,4.393,20.257,8.564,30.278,12.605
		l3.653-19.981C115.99,208.595,113.222,202.65,113.222,196.035z"/>
</g>
<g>
	<path style="fill:#2F4859;" d="M487.874,78.963l-240.726,69.094c-0.908,0.262-1.869,0.262-2.777,0l-93.549-26.849l-5.257,2.042
		v2.286l98.806,28.36c0.908,0.26,1.869,0.26,2.777,0l146.804-42.136l93.922-26.958c3.64-1.045,4.552-5.166,2.741-7.757
		C490.009,77.915,489.097,78.612,487.874,78.963z"/>
	<path style="fill:#2F4859;" d="M127.692,117.131c0-0.847,0.148-1.667,0.376-2.456L3.644,78.963
		c-1.221-0.351-2.133-1.048-2.739-1.918c-1.812,2.591-0.899,6.712,2.739,7.757l93.89,26.948l30.157,8.657V117.131z"/>
</g>
<path style="fill:#3A556A;" d="M3.644,78.963l124.423,35.712c0.756-2.64,2.677-4.848,5.323-5.869l89.344-34.711
	c0.026-8.21,10.323-14.865,23.026-14.865c12.72,0,23.031,6.671,23.031,14.896c0,8.227-10.311,14.895-23.031,14.895
	c-3.204,0-6.252-0.425-9.023-1.19l-85.915,33.377l93.549,26.849c0.908,0.262,1.869,0.262,2.777,0l240.726-69.094
	c1.223-0.351,2.134-1.048,2.741-1.918c1.811-2.59,0.899-6.712-2.741-7.755L247.149,0.195c-0.908-0.26-1.869-0.26-2.777,0
	L3.644,69.289c-3.639,1.044-4.551,5.165-2.739,7.755C1.512,77.915,2.423,78.612,3.644,78.963z"/>
<path style="fill:#E56353;" d="M222.728,74.126l0.005-0.031l-89.344,34.711c-2.646,1.021-4.567,3.229-5.323,5.869
	c-0.227,0.789-0.376,1.609-0.376,2.456v3.275v54.011c2.756-1.14,5.768-1.786,8.935-1.786c3.169,0,6.183,0.645,8.939,1.786v-48.882
	v-2.286l5.257-2.042l85.915-33.377C228.503,85.561,222.728,80.281,222.728,74.126z"/>
<path style="fill:#2F4859;" d="M236.737,87.83c2.772,0.765,5.819,1.19,9.023,1.19c12.72,0,23.031-6.668,23.031-14.895
	c0-8.225-10.311-14.896-23.031-14.896c-12.703,0-23,6.655-23.026,14.865l-0.005,0.031C222.728,80.281,228.503,85.561,236.737,87.83z
	"/>
<path style="fill:#E56353;" d="M136.626,219.442c-6.312,0-12.015-2.527-16.226-6.589l-3.653,19.981l-12.995,71.075h65.75
	l-10.048-54.947l-6.601-36.108C148.643,216.914,142.939,219.442,136.626,219.442z"/>
<path style="fill:#D15241;" d="M127.692,174.417c-8.489,3.512-14.47,11.86-14.47,21.618c0,6.615,2.768,12.56,7.178,16.817
	c4.211,4.062,9.914,6.589,16.226,6.589c6.313,0,12.017-2.527,16.227-6.589c4.411-4.257,7.178-10.202,7.178-16.817
	c0-9.757-5.978-18.103-14.467-21.618c-2.756-1.141-5.77-1.786-8.939-1.786C133.46,172.631,130.448,173.276,127.692,174.417z"/>
<g>
	<polygon style="fill:#EBF0F3;" points="196.829,396.23 202.522,390.538 198.497,383.566 205.468,379.541 203.385,371.764 
		211.16,369.681 211.16,361.631 219.211,361.631 220.988,355 220.988,335.385 0,335.385 0,399.552 200.152,399.552 	"/>
	<polygon style="fill:#EBF0F3;" points="270.53,354.997 272.309,361.631 280.359,361.631 280.359,369.681 288.134,371.764 
		286.051,379.541 293.023,383.566 288.998,390.538 294.69,396.23 291.368,399.552 491.52,399.552 491.52,335.385 270.53,335.385 	
		"/>
</g>
<g>
	<polygon style="fill:#E1E6E9;" points="288.998,401.923 293.023,408.895 286.051,412.921 288.134,420.696 280.359,422.779 
		280.359,424.357 491.52,424.357 491.52,399.552 291.368,399.552 	"/>
	<polygon style="fill:#E1E6E9;" points="203.385,420.696 205.468,412.921 198.497,408.895 202.522,401.923 200.152,399.552 
		0,399.552 0,424.357 211.16,424.357 211.16,422.779 	"/>
</g>
<g>
	<polygon style="fill:#E56353;" points="262.449,436.523 260.169,440.472 258.424,443.494 251.452,439.469 247.7,443.221 
		245.759,445.16 243.819,443.221 240.067,439.469 233.096,443.494 231.35,440.473 229.07,436.523 221.294,438.606 220.988,437.462 
		220.988,491.52 245.76,473.787 270.53,491.52 270.53,437.464 270.226,438.606 	"/>
	<polygon style="fill:#E56353;" points="221.294,353.856 229.07,355.937 233.096,348.967 240.067,352.993 245.759,347.3 
		251.452,352.993 258.424,348.967 262.449,355.937 270.226,353.856 270.53,354.997 270.53,335.385 220.988,335.385 220.988,355 	"/>
</g>
<g>
	<path style="fill:#FCD462;" d="M288.134,420.696l-2.083-7.775l6.973-4.026l-4.026-6.972l2.371-2.371l3.322-3.322l-5.692-5.692
		l4.026-6.972l-6.973-4.025l2.083-7.777l-7.775-2.083v-8.05h-8.05l-1.779-6.634l-0.304-1.141l-7.777,2.081l-4.025-6.97l-6.973,4.026
		l-5.692-5.693l-5.692,5.693l-6.971-4.026l-4.026,6.97l-7.776-2.081L220.988,355l-1.777,6.632h-8.051v8.05l-7.775,2.083l2.083,7.777
		l-6.971,4.025l4.025,6.972l-5.692,5.692l3.323,3.322l2.369,2.371l-4.025,6.972l6.971,4.026l-2.083,7.775l7.775,2.084v1.577v6.473
		h8.051l1.054,3.935l0.723,2.697l0.306,1.144l7.776-2.083l2.28,3.95l1.746,3.021l6.971-4.025l3.752,3.752l1.941,1.939l1.941-1.939
		l3.752-3.752l6.973,4.025l1.745-3.022l2.28-3.949l7.777,2.083l0.304-1.142l0.724-2.699l1.054-3.935h8.05v-6.473v-1.577
		L288.134,420.696z M245.761,431.331c-19.355,0-35.101-15.746-35.101-35.101c0-19.354,15.746-35.101,35.101-35.101
		c19.355,0,35.099,15.747,35.099,35.101C280.86,415.586,265.116,431.331,245.761,431.331z"/>
	<circle style="fill:#FCD462;" cx="245.76" cy="396.237" r="29.88"/>
</g>
<path style="fill:#E56353;" d="M280.86,396.23c0-19.354-15.744-35.101-35.099-35.101c-19.355,0-35.101,15.747-35.101,35.101
	c0,19.355,15.746,35.101,35.101,35.101C265.116,431.331,280.86,415.586,280.86,396.23z M215.88,396.23
	c0-16.477,13.404-29.881,29.881-29.881c16.477,0,29.88,13.404,29.88,29.881c0,16.476-13.402,29.881-29.88,29.881
	C229.284,426.111,215.88,412.706,215.88,396.23z"/>
<g>
</g>
<g>
</g>
<g>
</g>
<g>
</g>
<g>
</g>
<g>
</g>
<g>
</g>
<g>
</g>
<g>
</g>
<g>
</g>
<g>
</g>
<g>
</g>
<g>
</g>
<g>
</g>
<g>
</g>
</svg>
