<?xml version="1.0" encoding="iso-8859-1"?>
<!-- Generator: Adobe Illustrator 19.0.0, SVG Export Plug-In . SVG Version: 6.00 Build 0)  -->
<svg version="1.1" id="Layer_1" xmlns="http://www.w3.org/2000/svg" xmlns:xlink="http://www.w3.org/1999/xlink" x="0px" y="0px"
	 viewBox="0 0 491.53 491.53" style="enable-background:new 0 0 491.53 491.53;" xml:space="preserve">
<path style="fill:#64798A;" d="M319.045,237.349H172.487v-50.646c0-10.378,8.45-18.828,18.829-18.828h108.892
	c10.387,0,18.837,8.45,18.837,18.828V237.349z M186.078,223.758h119.378v-37.055c0-2.885-2.355-5.238-5.247-5.238H191.316
	c-2.885,0-5.239,2.353-5.239,5.238V223.758z"/>
<rect x="189.804" style="fill:#44C4A1;" width="111.882" height="181.463"/>
<g>
	<rect x="201.016" style="fill:#EBF0F3;" width="17.516" height="181.463"/>
	<rect x="273.004" style="fill:#EBF0F3;" width="17.516" height="181.463"/>
</g>
<circle style="fill:#FCD462;" cx="245.765" cy="346.112" r="145.418"/>
<g>
	<path style="fill:#DC8744;" d="M245.767,465.892c-66.05,0-119.793-53.742-119.793-119.793c0-66.051,53.743-119.793,119.793-119.793
		c66.049,0,119.793,53.742,119.793,119.793C365.559,412.149,311.816,465.892,245.767,465.892z M245.767,244.427
		c-56.061,0-101.672,45.611-101.672,101.672s45.611,101.672,101.672,101.672c56.06,0,101.672-45.611,101.672-101.672
		S301.827,244.427,245.767,244.427z"/>
	<path style="fill:#DC8744;" d="M218.225,270.337h55.079v151.528h-24.293v-128.77h-30.785V270.337z"/>
</g>
<g>
</g>
<g>
</g>
<g>
</g>
<g>
</g>
<g>
</g>
<g>
</g>
<g>
</g>
<g>
</g>
<g>
</g>
<g>
</g>
<g>
</g>
<g>
</g>
<g>
</g>
<g>
</g>
<g>
</g>
</svg>
