<?xml version="1.0" encoding="iso-8859-1"?>
<!-- Generator: Adobe Illustrator 19.0.0, SVG Export Plug-In . SVG Version: 6.00 Build 0)  -->
<svg version="1.1" id="Layer_1" xmlns="http://www.w3.org/2000/svg" xmlns:xlink="http://www.w3.org/1999/xlink" x="0px" y="0px"
	 viewBox="0 0 491.52 491.52" style="enable-background:new 0 0 491.52 491.52;" xml:space="preserve">
<path style="fill:#EBF0F3;" d="M477.615,198.517c-22.957-32.241-75.129-53.64-136.876-64.215
	c-6.604-1.131-11.396-7.072-11.396-13.931V76.715H162.179v43.656c0,6.859-4.794,12.801-11.396,13.931
	c-61.748,10.575-113.92,31.974-136.877,64.215c-37.783,53.064,7.586,200.771,62.391,267.656
	c6.512,7.946,13.146,14.818,19.799,20.186c4.246,3.426,9.543,5.16,14.948,5.16h269.436c5.403,0,10.701-1.734,14.948-5.16
	c6.651-5.368,13.286-12.24,19.798-20.186C470.026,399.288,515.396,251.581,477.615,198.517z"/>
<path style="fill:#D5D6DB;" d="M76.297,466.174c6.512,7.945,13.146,14.819,19.798,20.186c4.246,3.425,9.543,5.16,14.948,5.16
	h269.436c5.404,0,10.701-1.735,14.948-5.16c6.651-5.368,13.286-12.241,19.798-20.186H76.297z"/>
<rect x="143.872" style="fill:#64798A;" width="203.73" height="80.282"/>
<path style="fill:#FCD462;" d="M441.224,224.433c-10.822-15.186-44.884-35.275-107.991-46.088
	c-62.042-9.689-120.122-9.112-174.903-0.009c-63.15,10.823-97.204,30.904-108.018,46.098
	c-16.226,22.787,1.501,119.796,42.266,187.293c3.728,6.172,10.575,9.769,17.785,9.769h270.801c7.21,0,14.058-3.598,17.785-9.77
	C439.708,344.228,457.441,247.22,441.224,224.433z"/>
<circle style="fill:#FFFFFF;" cx="245.76" cy="255.35" r="52.593"/>
<g>
	<path style="fill:#64798A;" d="M128.01,338.856h7.375v43.706h-7.375V338.856z"/>
	<path style="fill:#64798A;" d="M180.278,338.856h7.374v43.706h-8.003l-24.76-31.89v31.89h-7.374v-43.706h7.374l25.388,32.64
		V338.856z"/>
	<path style="fill:#64798A;" d="M199.783,338.856h7.375v21.32l20.012-21.32h9.373l-17.568,19.139l17.821,24.567h-8.752
		l-14.505-19.13l-6.38,6.877v12.253h-7.375V338.856z"/>
	<path style="fill:#64798A;" d="M273.302,342.67c3.046,2.548,4.565,6.467,4.565,11.755c0,5.298-1.555,9.173-4.653,11.634
		c-3.107,2.461-7.871,3.683-14.286,3.683h-7.759v12.82h-7.374v-43.706h15.002C265.431,338.856,270.265,340.13,273.302,342.67z
		 M268.083,360.71c1.484-1.562,2.217-3.849,2.217-6.877c0-3.02-0.934-5.158-2.81-6.406c-1.876-1.248-4.817-1.876-8.814-1.876h-7.506
		v17.507h8.571C263.825,363.057,266.6,362.272,268.083,360.71z"/>
	<path style="fill:#64798A;" d="M323.135,376.532c-4.424,4.311-9.88,6.467-16.381,6.467c-6.502,0-11.965-2.156-16.381-6.467
		c-4.417-4.32-6.624-9.696-6.624-16.137c0-6.431,2.207-11.816,6.624-16.128c4.415-4.311,9.879-6.467,16.381-6.467
		c6.502,0,11.957,2.156,16.381,6.467c4.415,4.312,6.624,9.697,6.624,16.128C329.759,366.836,327.55,372.212,323.135,376.532z
		 M317.724,349.172c-2.976-3.081-6.642-4.626-10.97-4.626c-4.338,0-7.995,1.544-10.971,4.626c-2.984,3.09-4.476,6.834-4.476,11.223
		c0,4.399,1.492,8.142,4.476,11.224c2.976,3.09,6.633,4.625,10.971,4.625c4.328,0,7.994-1.535,10.97-4.625
		c2.984-3.081,4.468-6.824,4.468-11.224C322.192,356.006,320.708,352.262,317.724,349.172z"/>
	<path style="fill:#64798A;" d="M354.396,345.611v36.952h-7.375v-36.952h-13.256v-6.755h33.888v6.755H354.396z"/>
</g>
<path style="fill:#E56353;" d="M245.774,218.941c-5.361,27.902-24.842,33.559-24.123,50.838c0.554,13.312,10.8,24.124,24.123,24.124
	c13.323,0,24.124-10.8,24.124-24.124C269.898,256.455,248.289,205.856,245.774,218.941z"/>
<path style="fill:#D15241;" d="M251.965,232.958c5.23,11.707,10.512,26.744,10.512,32.819c0,10.227-8.321,18.549-18.547,18.549
	c-6.666,0-12.384-3.51-15.653-8.953c2.536,7.676,9.313,12.953,17.5,12.953c10.227,0,18.548-8.321,18.548-18.548
	C264.323,262.982,257.717,244.972,251.965,232.958z"/>
<g>
</g>
<g>
</g>
<g>
</g>
<g>
</g>
<g>
</g>
<g>
</g>
<g>
</g>
<g>
</g>
<g>
</g>
<g>
</g>
<g>
</g>
<g>
</g>
<g>
</g>
<g>
</g>
<g>
</g>
</svg>
