<?xml version="1.0" encoding="iso-8859-1"?>
<!-- Generator: Adobe Illustrator 19.0.0, SVG Export Plug-In . SVG Version: 6.00 Build 0)  -->
<svg version="1.1" id="Layer_1" xmlns="http://www.w3.org/2000/svg" xmlns:xlink="http://www.w3.org/1999/xlink" x="0px" y="0px"
	 viewBox="0 0 491.52 491.52" style="enable-background:new 0 0 491.52 491.52;" xml:space="preserve">
<path style="fill:#64798A;" d="M399.128,0H92.391c-8.827,0-15.984,7.155-15.984,15.984v459.553c0,8.827,7.156,15.984,15.984,15.984
	h306.737c8.828,0,15.984-7.156,15.984-15.984V15.984C415.112,7.155,407.956,0,399.128,0z"/>
<path style="fill:#D15241;" d="M221.828,185.954H119.992c-4.748,0-8.597,3.849-8.597,8.597v101.836c0,4.747,3.849,8.597,8.597,8.597
	h101.836c4.748,0,8.596-3.85,8.596-8.597V194.551C230.424,189.803,226.575,185.954,221.828,185.954z"/>
<path style="fill:#31978C;" d="M371.528,185.954H269.692c-4.748,0-8.596,3.849-8.596,8.597v101.836c0,4.747,3.848,8.597,8.596,8.597
	h101.836c4.748,0,8.597-3.85,8.597-8.597V194.551C380.125,189.803,376.276,185.954,371.528,185.954z"/>
<path style="fill:#D5D6DB;" d="M221.828,335.632H119.992c-4.748,0-8.597,3.848-8.597,8.596v101.836c0,4.748,3.849,8.597,8.597,8.597
	h101.836c4.748,0,8.596-3.849,8.596-8.597V344.228C230.424,339.481,226.575,335.632,221.828,335.632z"/>
<path style="fill:#F6C358;" d="M371.528,335.632H269.692c-4.748,0-8.596,3.848-8.596,8.596v101.836c0,4.748,3.848,8.597,8.596,8.597
	h101.836c4.748,0,8.597-3.849,8.597-8.597V344.228C380.125,339.481,376.276,335.632,371.528,335.632z"/>
<rect x="111.396" y="38.052" style="fill:#FFFFFF;" width="268.749" height="100.777"/>
<rect x="111.396" y="125.916" style="fill:#EBF0F3;" width="268.749" height="12.913"/>
<path style="fill:#E56353;" d="M221.828,176.385H119.992c-4.748,0-8.597,3.849-8.597,8.597v101.836c0,4.747,3.849,8.597,8.597,8.597
	h101.836c4.748,0,8.596-3.85,8.596-8.597V184.982C230.424,180.234,226.575,176.385,221.828,176.385z"/>
<path style="fill:#44C4A1;" d="M371.528,176.385H269.692c-4.748,0-8.596,3.849-8.596,8.597v101.836c0,4.747,3.848,8.597,8.596,8.597
	h101.836c4.748,0,8.597-3.85,8.597-8.597V184.982C380.125,180.234,376.276,176.385,371.528,176.385z"/>
<path style="fill:#EBF0F3;" d="M221.828,326.064H119.992c-4.748,0-8.597,3.848-8.597,8.596v101.836c0,4.748,3.849,8.597,8.597,8.597
	h101.836c4.748,0,8.596-3.849,8.596-8.597V334.66C230.424,329.912,226.575,326.064,221.828,326.064z"/>
<path style="fill:#FCD462;" d="M371.528,326.064H269.692c-4.748,0-8.596,3.848-8.596,8.596v101.836c0,4.748,3.848,8.597,8.596,8.597
	h101.836c4.748,0,8.597-3.849,8.597-8.597V334.66C380.125,329.912,376.276,326.064,371.528,326.064z"/>
<g>
	<polygon style="fill:#FFFFFF;" points="208.658,231.431 175.381,231.431 175.381,198.146 166.445,198.146 166.445,231.431 
		133.158,231.431 133.158,240.369 166.445,240.369 166.445,273.655 175.381,273.655 175.381,240.369 208.658,240.369 	"/>
	<polygon style="fill:#FFFFFF;" points="344.141,206.051 320.61,229.581 297.074,206.044 290.755,212.364 314.291,235.9 
		290.755,259.437 297.074,265.756 320.61,242.22 344.147,265.756 350.466,259.437 326.929,235.9 350.46,212.37 	"/>
</g>
<rect x="133.171" y="381.133" style="fill:#3A556A;" width="75.5" height="8.94"/>
<g>
	<rect x="282.88" y="365.158" style="fill:#DC8744;" width="75.5" height="8.94"/>
	<rect x="282.88" y="397.056" style="fill:#DC8744;" width="75.5" height="8.94"/>
</g>
<g>
</g>
<g>
</g>
<g>
</g>
<g>
</g>
<g>
</g>
<g>
</g>
<g>
</g>
<g>
</g>
<g>
</g>
<g>
</g>
<g>
</g>
<g>
</g>
<g>
</g>
<g>
</g>
<g>
</g>
</svg>
