<?xml version="1.0" encoding="iso-8859-1"?>
<!-- Generator: Adobe Illustrator 19.0.0, SVG Export Plug-In . SVG Version: 6.00 Build 0)  -->
<svg version="1.1" id="Layer_1" xmlns="http://www.w3.org/2000/svg" xmlns:xlink="http://www.w3.org/1999/xlink" x="0px" y="0px"
	 viewBox="0 0 492.229 492.229" style="enable-background:new 0 0 492.229 492.229;" xml:space="preserve">
<rect x="291.36" y="106.626" transform="matrix(-0.7071 0.7071 -0.7071 -0.7071 681.5915 35.0277)" style="fill:#E1E6E9;" width="84.363" height="104.1"/>
<path style="fill:#EBF0F3;" d="M413.319,152.519c2.328-2.328,2.328-6.105,0-8.432l-65.176-65.176
	c-2.33-2.328-6.107-2.328-8.434-0.001l-13.15,13.15l73.609,73.609L413.319,152.519z"/>
<path id="SVGCleanerId_0" style="fill:#FCD462;" d="M431.573,303.809L188.421,60.656c-1.339-1.339-1.339-3.509,0-4.848
	l54.804-54.805c1.339-1.339,3.509-1.339,4.848,0l243.152,243.152c1.339,1.339,1.339,3.509,0,4.848l-54.805,54.805
	C435.082,305.147,432.911,305.147,431.573,303.809z"/>
<g>
	<path id="SVGCleanerId_0_1_" style="fill:#FCD462;" d="M431.573,303.809L188.421,60.656c-1.339-1.339-1.339-3.509,0-4.848
		l54.804-54.805c1.339-1.339,3.509-1.339,4.848,0l243.152,243.152c1.339,1.339,1.339,3.509,0,4.848l-54.805,54.805
		C435.082,305.147,432.911,305.147,431.573,303.809z"/>
</g>
<path style="fill:#EBF0F3;" d="M1.745,416.874c-2.328,2.328-2.328,6.104,0.002,8.434l65.175,65.175c2.328,2.328,6.105,2.328,8.432,0
	l265.163-265.161l-73.61-73.609L1.745,416.874z"/>
<g>
	<ellipse style="fill:#DC8744;" cx="321.26" cy="133.824" rx="12.042" ry="12.042"/>
	<ellipse style="fill:#DC8744;" cx="358.37" cy="170.976" rx="12.042" ry="12.042"/>
</g>
<g>
	
		<rect x="8.815" y="410.068" transform="matrix(-0.7071 0.7071 -0.7071 -0.7071 312.6106 701.9495)" style="fill:#64798A;" width="4.204" height="11.31"/>
	
		<rect x="16.279" y="402.578" transform="matrix(-0.7071 0.7071 -0.7071 -0.7071 320.0554 683.8858)" style="fill:#64798A;" width="4.204" height="11.31"/>
	
		<rect x="23.727" y="395.111" transform="matrix(-0.7071 0.7071 -0.7071 -0.7071 327.4744 665.8821)" style="fill:#64798A;" width="4.204" height="11.305"/>
	
		<rect x="31.225" y="387.62" transform="matrix(-0.7071 0.7071 -0.7071 -0.7071 334.9796 647.7971)" style="fill:#64798A;" width="4.204" height="11.31"/>
	
		<rect x="43.108" y="378.357" transform="matrix(-0.707 0.7072 -0.7072 -0.707 353.1378 634.1453)" style="fill:#64798A;" width="4.204" height="23.731"/>
	
		<rect x="47.391" y="371.458" transform="matrix(-0.7071 0.7071 -0.7071 -0.7071 351.1474 608.7708)" style="fill:#64798A;" width="4.204" height="11.305"/>
	
		<rect x="54.865" y="363.989" transform="matrix(-0.7072 0.707 -0.707 -0.7072 358.6068 590.7681)" style="fill:#64798A;" width="4.204" height="11.31"/>
	
		<rect x="62.354" y="356.493" transform="matrix(-0.7071 0.7071 -0.7071 -0.7071 366.1111 572.6483)" style="fill:#64798A;" width="4.204" height="11.31"/>
	
		<rect x="69.792" y="349.01" transform="matrix(-0.7071 0.7071 -0.7071 -0.7071 373.5163 554.6085)" style="fill:#64798A;" width="4.204" height="11.305"/>
	
		<rect x="81.681" y="339.752" transform="matrix(-0.7072 0.707 -0.707 -0.7072 391.6375 541.0381)" style="fill:#64798A;" width="4.204" height="23.731"/>
	
		<rect x="86.002" y="332.867" transform="matrix(-0.7071 0.7071 -0.7071 -0.7071 389.764 515.6095)" style="fill:#64798A;" width="4.204" height="11.31"/>
	
		<rect x="93.518" y="325.414" transform="matrix(-0.7071 0.7071 -0.7071 -0.7071 397.3329 497.5514)" style="fill:#64798A;" width="4.204" height="11.305"/>
	
		<rect x="100.937" y="317.917" transform="matrix(-0.7071 0.7071 -0.7071 -0.7071 404.6954 479.5096)" style="fill:#64798A;" width="4.204" height="11.305"/>
	
		<rect x="108.431" y="310.435" transform="matrix(-0.707 0.7072 -0.7072 -0.707 412.2132 461.4133)" style="fill:#64798A;" width="4.204" height="11.31"/>
	
		<rect x="120.283" y="301.157" transform="matrix(-0.707 0.7072 -0.7072 -0.707 430.2791 447.781)" style="fill:#64798A;" width="4.204" height="23.726"/>
	
		<rect x="124.628" y="294.266" transform="matrix(-0.7071 0.7071 -0.7071 -0.7071 428.4151 422.3821)" style="fill:#64798A;" width="4.204" height="11.305"/>
	
		<rect x="132.063" y="286.78" transform="matrix(-0.7071 0.7071 -0.7071 -0.7071 435.8202 404.3287)" style="fill:#64798A;" width="4.204" height="11.305"/>
	
		<rect x="139.516" y="279.348" transform="matrix(-0.7071 0.7071 -0.7071 -0.7071 443.2884 386.3765)" style="fill:#64798A;" width="4.204" height="11.31"/>
	
		<rect x="147.015" y="271.848" transform="matrix(-0.7071 0.7071 -0.7071 -0.7071 450.7815 368.2811)" style="fill:#64798A;" width="4.204" height="11.305"/>
	
		<rect x="158.875" y="262.545" transform="matrix(-0.7071 0.7071 -0.7071 -0.7071 468.8426 354.621)" style="fill:#64798A;" width="4.204" height="23.731"/>
	
		<rect x="163.195" y="255.667" transform="matrix(-0.7071 0.7071 -0.7071 -0.7071 466.9574 329.2368)" style="fill:#64798A;" width="4.204" height="11.31"/>
	
		<rect x="170.666" y="248.207" transform="matrix(-0.7071 0.7071 -0.7071 -0.7071 474.4393 311.2002)" style="fill:#64798A;" width="4.204" height="11.305"/>
	
		<rect x="178.141" y="240.718" transform="matrix(-0.7071 0.7071 -0.7071 -0.7071 481.9008 293.1452)" style="fill:#64798A;" width="4.204" height="11.305"/>
	
		<rect x="185.593" y="233.269" transform="matrix(-0.7071 0.7071 -0.7071 -0.7071 489.3593 275.1483)" style="fill:#64798A;" width="4.204" height="11.31"/>
	
		<rect x="197.484" y="223.95" transform="matrix(-0.7071 0.7071 -0.7071 -0.7071 507.4605 261.4349)" style="fill:#64798A;" width="4.204" height="23.731"/>
	
		<rect x="201.79" y="217.09" transform="matrix(-0.7071 0.7071 -0.7071 -0.7071 505.5683 236.0916)" style="fill:#64798A;" width="4.204" height="11.31"/>
	
		<rect x="209.271" y="209.613" transform="matrix(-0.7071 0.7071 -0.7071 -0.7071 513.0516 218.0162)" style="fill:#64798A;" width="4.204" height="11.305"/>
	
		<rect x="216.739" y="202.14" transform="matrix(-0.7071 0.7071 -0.7071 -0.7071 520.5159 199.9821)" style="fill:#64798A;" width="4.204" height="11.305"/>
	
		<rect x="224.215" y="194.645" transform="matrix(-0.7071 0.7071 -0.7071 -0.7071 527.9786 181.9)" style="fill:#64798A;" width="4.204" height="11.305"/>
	
		<rect x="236.072" y="185.356" transform="matrix(-0.7071 0.7071 -0.7071 -0.7071 546.0455 168.2641)" style="fill:#64798A;" width="4.204" height="23.731"/>
	
		<rect x="240.392" y="178.464" transform="matrix(-0.7071 0.7071 -0.7071 -0.7071 544.1532 142.8396)" style="fill:#64798A;" width="4.204" height="11.305"/>
	
		<rect x="247.866" y="171.006" transform="matrix(-0.7071 0.7071 -0.7071 -0.7071 551.6371 124.8206)" style="fill:#64798A;" width="4.204" height="11.305"/>
	
		<rect x="255.339" y="163.541" transform="matrix(-0.7071 0.7071 -0.7071 -0.7071 559.1141 106.779)" style="fill:#64798A;" width="4.204" height="11.305"/>
	
		<rect x="262.811" y="156.058" transform="matrix(-0.7071 0.7071 -0.7071 -0.7071 566.5805 88.735)" style="fill:#64798A;" width="4.204" height="11.305"/>
	
		<rect x="274.685" y="146.75" transform="matrix(-0.7071 0.7071 -0.7071 -0.7071 584.6605 75.052)" style="fill:#64798A;" width="4.204" height="23.726"/>
</g>
<g>
</g>
<g>
</g>
<g>
</g>
<g>
</g>
<g>
</g>
<g>
</g>
<g>
</g>
<g>
</g>
<g>
</g>
<g>
</g>
<g>
</g>
<g>
</g>
<g>
</g>
<g>
</g>
<g>
</g>
</svg>
