<?xml version="1.0" encoding="iso-8859-1"?>
<!-- Generator: Adobe Illustrator 19.0.0, SVG Export Plug-In . SVG Version: 6.00 Build 0)  -->
<svg version="1.1" id="Layer_1" xmlns="http://www.w3.org/2000/svg" xmlns:xlink="http://www.w3.org/1999/xlink" x="0px" y="0px"
	 viewBox="0 0 491.52 491.52" style="enable-background:new 0 0 491.52 491.52;" xml:space="preserve">
<path style="fill:#DC8744;" d="M480.722,88.383H10.798C4.835,88.383,0,93.218,0,99.179v301.267c0,5.964,4.835,10.798,10.798,10.798
	h207.804c3.379,11.881,14.193,20.636,27.159,20.636c12.965,0,23.777-8.755,27.155-20.636h207.806
	c5.964,0,10.798-4.835,10.798-10.798V99.179C491.52,93.218,486.685,88.383,480.722,88.383z"/>
<path style="fill:#D5D6DB;" d="M273.902,59.639c-14.377,0-26.03,11.653-26.03,26.028v317.549h0.375
	c1.817-12.597,12.553-22.31,25.655-22.31h198.559V59.639H273.902z"/>
<g>
	<path style="fill:#E1E6E9;" d="M221.844,59.639c14.376,0,26.029,11.653,26.029,26.028v317.549h-0.376
		c-1.816-12.597-12.553-22.31-25.653-22.31H23.283V59.639H221.844z"/>
	<path style="fill:#E1E6E9;" d="M273.902,59.639c-14.377,0-26.03,11.653-26.03,26.028v317.549h0.375
		c1.817-12.597,12.553-22.31,25.655-22.31h180.686V59.639H273.902z"/>
</g>
<path style="fill:#EBF0F3;" d="M221.844,59.639c14.376,0,26.029,11.653,26.029,26.028v317.549h-0.376
	c-1.816-12.597-12.553-22.31-25.653-22.31H41.157V59.639H221.844z"/>
<g>
	<rect x="61.747" y="190.617" style="fill:#D5D6DB;" width="165.53" height="8.724"/>
	<rect x="61.747" y="233.528" style="fill:#D5D6DB;" width="165.53" height="8.724"/>
	<rect x="61.747" y="276.413" style="fill:#D5D6DB;" width="165.53" height="8.724"/>
	<rect x="61.747" y="319.283" style="fill:#D5D6DB;" width="165.53" height="8.724"/>
	<rect x="268.493" y="104.863" style="fill:#D5D6DB;" width="165.53" height="8.724"/>
	<rect x="268.493" y="147.748" style="fill:#D5D6DB;" width="165.53" height="8.724"/>
	<rect x="268.493" y="190.617" style="fill:#D5D6DB;" width="165.53" height="8.724"/>
	<rect x="268.493" y="233.528" style="fill:#D5D6DB;" width="165.53" height="8.724"/>
	<rect x="268.493" y="276.413" style="fill:#D5D6DB;" width="165.53" height="8.724"/>
	<rect x="268.493" y="319.283" style="fill:#D5D6DB;" width="165.53" height="8.724"/>
</g>
<g>
	<polygon style="fill:#E56353;" points="408.985,156.474 380.108,139.554 351.231,156.474 351.231,59.639 408.985,59.639 	"/>
	<path style="fill:#E56353;" d="M191.973,128.68c0.489-2.474,0.77-5.027,0.77-7.645c0-8.404-2.688-16.154-7.179-22.542
		l-32.112,22.542L191.973,128.68z"/>
</g>
<path style="fill:#44C4A1;" d="M174.099,95.597c-7.109-10.106-18.815-16.752-32.111-16.752v39.295L174.099,95.597z"/>
<path style="fill:#FCD462;" d="M135.578,122.991V83.696c-21.7,0-39.292,17.592-39.292,39.295c0,21.701,17.593,39.292,39.292,39.292
	c19.08,0,34.959-13.61,38.521-31.647L135.578,122.991z"/>
<g>
</g>
<g>
</g>
<g>
</g>
<g>
</g>
<g>
</g>
<g>
</g>
<g>
</g>
<g>
</g>
<g>
</g>
<g>
</g>
<g>
</g>
<g>
</g>
<g>
</g>
<g>
</g>
<g>
</g>
</svg>
