<?xml version="1.0" encoding="iso-8859-1"?>
<!-- Generator: Adobe Illustrator 19.0.0, SVG Export Plug-In . SVG Version: 6.00 Build 0)  -->
<svg version="1.1" id="Layer_1" xmlns="http://www.w3.org/2000/svg" xmlns:xlink="http://www.w3.org/1999/xlink" x="0px" y="0px"
	 viewBox="0 0 491.52 491.52" style="enable-background:new 0 0 491.52 491.52;" xml:space="preserve">
<path style="fill:#FCD462;" d="M355.78,138.791H9.246c-5.106,0-9.246,4.14-9.246,9.246V379.9c0,5.105,4.14,9.246,9.246,9.246h15.556
	c5.106,0,9.246,4.14,9.246,9.246v47.724c0,8.237,9.959,12.362,15.784,6.538l60.8-60.801c1.735-1.733,4.086-2.707,6.538-2.707h238.61
	c5.106,0,9.246-4.141,9.246-9.246V148.037C365.026,142.931,360.886,138.791,355.78,138.791z"/>
<path style="fill:#E56353;" d="M108.625,277.246V138.791H9.246c-5.106,0-9.246,4.14-9.246,9.246v231.861
	c0,5.108,4.14,9.246,9.246,9.246h15.556c5.106,0,9.247,4.139,9.247,9.247v47.724c0,8.237,9.959,12.362,15.783,6.537l60.8-60.801
	c1.735-1.733,4.086-2.708,6.538-2.708h238.609c5.108,0,9.247-4.138,9.247-9.246v-75.527H135.741
	C120.791,304.371,108.625,292.204,108.625,277.246z"/>
<path style="fill:#D15241;" d="M355.779,138.791H108.625v138.454c0,14.958,12.166,27.125,27.116,27.125h229.285V148.037
	C365.026,142.931,360.887,138.791,355.779,138.791z"/>
<path style="fill:#27A2DB;" d="M135.74,36.14h346.534c5.106,0,9.246,4.14,9.246,9.246v231.861c0,5.106-4.14,9.246-9.246,9.246
	h-15.557c-5.106,0-9.246,4.139-9.246,9.246v47.725c0,8.237-9.959,12.363-15.784,6.538l-60.8-60.801
	c-1.734-1.733-4.086-2.708-6.538-2.708H135.74c-5.106,0-9.246-4.14-9.246-9.246V45.386C126.494,40.279,130.634,36.14,135.74,36.14z"
	/>
<g>
	<circle style="fill:#FFFFFF;" cx="201.472" cy="162.068" r="30.822"/>
	<circle style="fill:#FFFFFF;" cx="308.992" cy="162.068" r="30.822"/>
	<circle style="fill:#FFFFFF;" cx="416.563" cy="162.068" r="30.822"/>
</g>
<g>
</g>
<g>
</g>
<g>
</g>
<g>
</g>
<g>
</g>
<g>
</g>
<g>
</g>
<g>
</g>
<g>
</g>
<g>
</g>
<g>
</g>
<g>
</g>
<g>
</g>
<g>
</g>
<g>
</g>
</svg>
