<?xml version="1.0" encoding="iso-8859-1"?>
<!-- Generator: Adobe Illustrator 19.0.0, SVG Export Plug-In . SVG Version: 6.00 Build 0)  -->
<svg version="1.1" id="Layer_1" xmlns="http://www.w3.org/2000/svg" xmlns:xlink="http://www.w3.org/1999/xlink" x="0px" y="0px"
	 viewBox="0 0 491.52 491.52" style="enable-background:new 0 0 491.52 491.52;" xml:space="preserve">
<rect x="163.891" y="308.275" style="fill:#3A556A;" width="163.758" height="33.792"/>
<polygon style="fill:#64798A;" points="327.639,342.076 163.88,342.076 327.639,308.287 "/>
<rect x="128.819" y="342.077" style="fill:#2F4859;" width="233.856" height="23.02"/>
<path style="fill:#EBF0F3;" d="M476.076,0H15.444C6.914,0,0,6.623,0,14.792v278.701c0,8.169,6.914,14.793,15.444,14.793h460.632
	c8.529,0,15.444-6.624,15.444-14.793V14.792C491.52,6.623,484.606,0,476.076,0z"/>
<g>
	<rect x="26.813" y="25.651" style="fill:#64798A;" width="437.914" height="216.269"/>
	<ellipse style="fill:#64798A;" cx="245.76" cy="271.718" rx="19.21" ry="18.401"/>
	<path style="fill:#64798A;" d="M485.853,365.095H5.666c-3.129,0-5.666,2.536-5.666,5.666v115.094c0,3.128,2.537,5.666,5.666,5.666
		h480.188c3.129,0,5.666-2.537,5.666-5.666V370.76C491.52,367.631,488.982,365.095,485.853,365.095z"/>
</g>
<rect x="25.308" y="393.692" style="fill:#3A556A;" width="176.051" height="42.573"/>
<g>
	<rect x="180.019" y="447.232" style="fill:#EBF0F3;" width="21.325" height="7.721"/>
	<circle style="fill:#EBF0F3;" cx="257.229" cy="422.553" r="20.07"/>
</g>
<circle style="fill:#64798A;" cx="257.229" cy="422.553" r="9.006"/>
<g>
	<rect x="314.675" y="382.925" style="fill:#3A556A;" width="8.668" height="90.808"/>
	<rect x="343.245" y="382.925" style="fill:#3A556A;" width="8.668" height="90.808"/>
	<rect x="371.763" y="382.925" style="fill:#3A556A;" width="8.668" height="90.808"/>
	<rect x="400.281" y="382.925" style="fill:#3A556A;" width="8.668" height="90.808"/>
	<rect x="428.851" y="382.925" style="fill:#3A556A;" width="8.668" height="90.808"/>
	<rect x="457.37" y="382.925" style="fill:#3A556A;" width="8.668" height="90.808"/>
</g>
<g>
</g>
<g>
</g>
<g>
</g>
<g>
</g>
<g>
</g>
<g>
</g>
<g>
</g>
<g>
</g>
<g>
</g>
<g>
</g>
<g>
</g>
<g>
</g>
<g>
</g>
<g>
</g>
<g>
</g>
</svg>
