<?xml version="1.0" encoding="iso-8859-1"?>
<!-- Generator: Adobe Illustrator 19.0.0, SVG Export Plug-In . SVG Version: 6.00 Build 0)  -->
<svg version="1.1" id="Layer_1" xmlns="http://www.w3.org/2000/svg" xmlns:xlink="http://www.w3.org/1999/xlink" x="0px" y="0px"
	 viewBox="0 0 491.52 491.52" style="enable-background:new 0 0 491.52 491.52;" xml:space="preserve">
<rect x="60.467" style="fill:#EBF0F3;" width="370.586" height="491.52"/>
<polygon style="fill:#D5D6DB;" points="431.055,491.52 60.465,491.52 348.314,423.102 "/>
<g>
	<path style="fill:#E56353;" d="M156.54,112.773l-6.973-16.189h-31.418l-6.973,16.189H93.38l32.387-74.958h16.19l32.387,74.958
		H156.54z M133.91,60.122l-9.434,21.765h18.764L133.91,60.122z"/>
	<path style="fill:#E56353;" d="M197.724,101.088V81.783H178.96V68.588h18.764V49.292h14.801v19.296h18.764v13.195h-18.764v19.305
		H197.724z"/>
</g>
<g>
	<rect x="93.379" y="152.576" style="fill:#D5D6DB;" width="313.242" height="8.94"/>
	<rect x="93.379" y="196.838" style="fill:#D5D6DB;" width="313.242" height="8.94"/>
	<rect x="93.379" y="241.101" style="fill:#D5D6DB;" width="260.239" height="8.934"/>
	<rect x="93.379" y="285.379" style="fill:#D5D6DB;" width="313.242" height="8.94"/>
	<rect x="93.379" y="329.626" style="fill:#D5D6DB;" width="313.242" height="8.934"/>
	<rect x="93.379" y="373.914" style="fill:#D5D6DB;" width="147.876" height="8.934"/>
</g>
<g>
</g>
<g>
</g>
<g>
</g>
<g>
</g>
<g>
</g>
<g>
</g>
<g>
</g>
<g>
</g>
<g>
</g>
<g>
</g>
<g>
</g>
<g>
</g>
<g>
</g>
<g>
</g>
<g>
</g>
</svg>
