<?xml version="1.0" encoding="iso-8859-1"?>
<!-- Generator: Adobe Illustrator 19.0.0, SVG Export Plug-In . SVG Version: 6.00 Build 0)  -->
<svg version="1.1" id="Layer_1" xmlns="http://www.w3.org/2000/svg" xmlns:xlink="http://www.w3.org/1999/xlink" x="0px" y="0px"
	 viewBox="0 0 491.52 491.52" style="enable-background:new 0 0 491.52 491.52;" xml:space="preserve">
<path style="fill:#64798A;" d="M11.6,456.091L11.6,456.091c3.498,3.502,8.386,4.027,10.418,1.121l-0.746,1.068
	c-1.761,2.519-0.806,6.686,2.225,9.72c3.034,3.035,7.194,3.991,9.711,2.229l1.068-0.748c-2.905,2.034-2.379,6.927,1.12,10.429l0,0
	c2.419,2.422,5.652,3.525,8.115,2.769l4.883-1.499l0,0l-32.173,9.972c-7.952,2.463-18.313-7.908-15.852-15.867l9.708-31.379
	l-1.244,4.063C8.078,450.434,9.18,453.668,11.6,456.091z"/>
<path style="fill:#DC8744;" d="M35.395,479.909L35.395,479.909c-3.499-3.501-4.024-8.394-1.12-10.429l4.759-3.329l40.779-28.544
	c0.81-0.568,4.931-4.525,5.995-4.533c-2.84,5.692-3.768,17.962,2.666,24.401c4.325,4.329,9.608,6.74,14.336,7
	c-0.025,0.008-0.043,0.027-0.07,0.035l-54.346,16.67l-4.883,1.499C41.047,483.434,37.815,482.331,35.395,479.909z"/>
<path style="fill:#F6C358;" d="M57.306,406.633c-1.489,5.563-1.753,17.888,3.937,23.585c5.692,5.695,19.682,3.668,25.242,2.176
	c-0.323,0.698-7.417,5.734-8.075,6.194l-39.375,27.563l-4.759,3.329l-1.068,0.748c-2.517,1.762-6.677,0.806-9.711-2.229
	c-3.031-3.034-3.986-7.201-2.225-9.72l0.746-1.068l0,0l3.328-4.762l27.537-39.414C53.341,412.377,56.609,406.956,57.306,406.633z"/>
<path style="fill:#FCD462;" d="M34.012,402.961c6.434,6.44,19.242,3.104,24.929,0.261c-0.008,1.064-4.513,7.598-5.079,8.409
	l-28.517,40.818l-3.328,4.762l0,0c-2.032,2.907-6.92,2.382-10.418-1.121l0,0c-2.419-2.423-3.521-5.657-2.766-8.123l1.244-4.063
	l16.908-55.225c0.008-0.026,0.027-0.042,0.035-0.069C27.28,393.344,29.688,398.633,34.012,402.961z"/>
<path style="fill:#2D93BA;" d="M84.537,434.16c-1.299,1.3-2.904,2.173-4.69,2.651c-5.56,1.492-12.912-0.897-18.604-6.592
	c-5.69-5.697-8.076-13.058-6.586-18.621c0.478-1.789,1.35-3.394,2.65-4.695L361.922,85.006l48.102,48.13L84.537,434.16z"/>
<path style="fill:#1C75A1;" d="M88.473,457.475c-6.433-6.439-8.635-15.001-5.795-20.694c0.478-0.961,1.087-1.849,1.858-2.621
	l313.341-313.17l27.231,27.256l-3.941,3.944L111.767,461.416c-2.271,2.273-5.463,3.25-8.957,3.058
	C98.081,464.215,92.798,461.804,88.473,457.475z"/>
<path style="fill:#27A2DB;" d="M57.306,406.903c-0.773,0.772-1.66,1.379-2.62,1.859c-5.686,2.844-14.239,0.641-20.674-5.8
	c-4.325-4.328-6.732-9.618-6.993-14.35c-0.191-3.497,0.784-6.693,3.056-8.966L339.468,70.428l3.949-3.953l27.23,27.256
	L57.306,406.903z"/>
<path style="fill:#D15241;" d="M370.64,64.355l72.496-43.182c9.258,8.278,18.961,17.99,27.232,27.257l-42.457,73.221
	C418.759,112.638,379.645,73.515,370.64,64.355z"/>
<path style="fill:#CE412D;" d="M470.368,48.43c14.152,15.856,24.098,30.394,20.36,34.134L440.2,133.141
	c-9.318-8.887-18.506-17.846-27.644-26.845L470.368,48.43z"/>
<path style="fill:#E56353;" d="M443.136,21.172l-57.81,57.868c-8.991-9.146-17.94-18.344-26.819-27.671l50.53-50.577
	C412.773-2.947,427.296,7.007,443.136,21.172z"/>
<path style="fill:#EBF0F3;" d="M413.922,104.931c9.151,8.985,18.361,17.923,27.721,26.768l-17.983,17.996l-27.229-27.259
	l-27.228-27.261l-27.228-27.259l17.982-17.997c8.835,9.37,17.761,18.592,26.737,27.753
	C395.683,86.848,404.757,95.932,413.922,104.931z"/>
<g>
</g>
<g>
</g>
<g>
</g>
<g>
</g>
<g>
</g>
<g>
</g>
<g>
</g>
<g>
</g>
<g>
</g>
<g>
</g>
<g>
</g>
<g>
</g>
<g>
</g>
<g>
</g>
<g>
</g>
</svg>
