<?xml version="1.0" encoding="iso-8859-1"?>
<!-- Generator: Adobe Illustrator 19.0.0, SVG Export Plug-In . SVG Version: 6.00 Build 0)  -->
<svg version="1.1" id="Layer_1" xmlns="http://www.w3.org/2000/svg" xmlns:xlink="http://www.w3.org/1999/xlink" x="0px" y="0px"
	 viewBox="0 0 491.513 491.513" style="enable-background:new 0 0 491.513 491.513;" xml:space="preserve">
<g>
	<path style="fill:#3A556A;" d="M300.364,461.33c-3.474,0-6.781-2.043-8.221-5.446l-90.702-213.434l-90.702,213.434
		c-1.929,4.547-7.218,6.668-11.713,4.73c-4.547-1.928-6.667-7.174-4.73-11.713l98.924-232.791c1.396-3.308,4.634-5.446,8.221-5.446
		c3.587,0,6.824,2.138,8.221,5.446l98.924,232.791c1.938,4.539-0.184,9.784-4.73,11.713
		C302.721,461.103,301.534,461.33,300.364,461.33z"/>
	<path style="fill:#3A556A;" d="M201.441,446.241c-4.94,0-8.936-3.997-8.936-8.936V219.602c0-4.939,3.997-8.936,8.936-8.936
		c4.94,0,8.936,3.997,8.936,8.936v217.702C210.377,442.243,206.38,446.241,201.441,446.241z"/>
	
		<rect x="422.601" y="34.184" transform="matrix(-0.9708 0.2398 -0.2398 -0.9708 909.9813 107.8101)" style="fill:#3A556A;" width="51.661" height="150.164"/>
</g>
<rect x="258.482" y="71.255" transform="matrix(0.9708 -0.2398 0.2398 0.9708 -22.519 85.9981)" style="fill:#EBF0F3;" width="167.301" height="128.563"/>
<rect x="233.498" y="94.639" transform="matrix(-0.9708 0.2398 -0.2398 -0.9708 525.7402 253.8659)" style="fill:#E56353;" width="27.853" height="128.564"/>
<rect x="144.699" y="122.714" transform="matrix(0.9708 -0.2398 0.2398 0.9708 -35.9673 50.6038)" style="fill:#EBF0F3;" width="90.527" height="100.777"/>
<rect x="120.632" y="136.684" transform="matrix(-0.9708 0.2398 -0.2398 -0.9708 307.9789 336.6743)" style="fill:#E56353;" width="25.754" height="100.777"/>
<rect x="31.799" y="172.791" transform="matrix(0.9708 -0.2398 0.2398 0.9708 -45.958 24.3452)" style="fill:#EBF0F3;" width="90.527" height="56.473"/>
<g>
	
		<rect x="7.735" y="181.151" transform="matrix(-0.9708 0.2398 -0.2398 -0.9708 92.1793 418.7249)" style="fill:#64798A;" width="25.753" height="67.64"/>
	<circle style="fill:#64798A;" cx="201.419" cy="219.608" r="31.826"/>
</g>
<circle style="fill:#2F4859;" cx="201.419" cy="219.608" r="17.526"/>
<g>
</g>
<g>
</g>
<g>
</g>
<g>
</g>
<g>
</g>
<g>
</g>
<g>
</g>
<g>
</g>
<g>
</g>
<g>
</g>
<g>
</g>
<g>
</g>
<g>
</g>
<g>
</g>
<g>
</g>
</svg>
