<?xml version="1.0" encoding="iso-8859-1"?>
<!-- Generator: Adobe Illustrator 19.0.0, SVG Export Plug-In . SVG Version: 6.00 Build 0)  -->
<svg version="1.1" id="Layer_1" xmlns="http://www.w3.org/2000/svg" xmlns:xlink="http://www.w3.org/1999/xlink" x="0px" y="0px"
	 viewBox="0 0 491.52 491.52" style="enable-background:new 0 0 491.52 491.52;" xml:space="preserve">
<g>
	<path style="fill:#EBF0F3;" d="M488.035,349.211H3.485c-1.925,0-3.485,1.561-3.485,3.486v79.022c0,1.925,1.561,3.485,3.485,3.485
		h484.55c1.925,0,3.485-1.561,3.485-3.485v-79.022C491.52,350.772,489.96,349.211,488.035,349.211z"/>
	<path style="fill:#EBF0F3;" d="M245.76,56.316c-133.67,0-242.421,106.683-245.758,239.55c-0.084,3.435,2.755,6.287,6.192,6.287
		h479.134c3.437,0,6.276-2.852,6.189-6.287C488.183,162.999,379.431,56.316,245.76,56.316z M83.192,232.44
		c35.74-65.586,86.332-105.406,162.568-105.406c76.235,0,124.272,36.541,162.579,105.406H83.192z"/>
</g>
<path style="fill:#D5D6DB;" d="M245.76,121.929c-76.235,0-141.569,47.586-167.859,114.609h335.72
	C387.33,169.515,321.995,121.929,245.76,121.929z M89.637,228.819c28.246-59.76,89.593-99.171,156.123-99.171
	c66.53,0,127.877,39.411,156.123,99.171H89.637z"/>
<g>
	<rect x="13.527" y="290.652" style="fill:#64798A;" width="5.571" height="11.5"/>
	<rect x="29.558" y="290.652" style="fill:#64798A;" width="5.571" height="11.5"/>
	<rect x="45.578" y="290.652" style="fill:#64798A;" width="5.571" height="11.5"/>
	<rect x="61.594" y="290.652" style="fill:#64798A;" width="5.571" height="11.5"/>
	<rect x="77.619" y="279.603" style="fill:#64798A;" width="5.571" height="22.569"/>
	<rect x="92.519" y="290.652" style="fill:#64798A;" width="5.571" height="11.5"/>
	<rect x="108.493" y="290.652" style="fill:#64798A;" width="5.571" height="11.5"/>
	<rect x="124.539" y="290.652" style="fill:#64798A;" width="5.571" height="11.5"/>
	<rect x="140.559" y="290.652" style="fill:#64798A;" width="5.571" height="11.5"/>
	<rect x="156.58" y="279.603" style="fill:#64798A;" width="5.571" height="22.569"/>
	<rect x="171.454" y="290.652" style="fill:#64798A;" width="5.571" height="11.5"/>
	<rect x="187.474" y="290.652" style="fill:#64798A;" width="5.571" height="11.5"/>
	<rect x="203.495" y="290.652" style="fill:#64798A;" width="5.571" height="11.5"/>
	<rect x="219.515" y="290.652" style="fill:#64798A;" width="5.571" height="11.5"/>
	<rect x="235.52" y="279.603" style="fill:#64798A;" width="5.571" height="22.569"/>
	<rect x="250.414" y="290.652" style="fill:#64798A;" width="5.571" height="11.5"/>
	<rect x="266.445" y="290.652" style="fill:#64798A;" width="5.571" height="11.5"/>
	<rect x="282.471" y="290.652" style="fill:#64798A;" width="5.571" height="11.5"/>
	<rect x="298.496" y="290.652" style="fill:#64798A;" width="5.571" height="11.5"/>
	<rect x="314.522" y="279.603" style="fill:#64798A;" width="5.571" height="22.569"/>
	<rect x="329.37" y="290.652" style="fill:#64798A;" width="5.571" height="11.5"/>
	<rect x="345.395" y="290.652" style="fill:#64798A;" width="5.571" height="11.5"/>
	<rect x="361.421" y="290.652" style="fill:#64798A;" width="5.571" height="11.5"/>
	<rect x="377.447" y="290.652" style="fill:#64798A;" width="5.571" height="11.5"/>
	<rect x="393.472" y="279.603" style="fill:#64798A;" width="5.571" height="22.569"/>
	<rect x="408.32" y="290.652" style="fill:#64798A;" width="5.571" height="11.5"/>
	<rect x="424.346" y="290.652" style="fill:#64798A;" width="5.571" height="11.5"/>
	<rect x="440.371" y="290.652" style="fill:#64798A;" width="5.571" height="11.5"/>
	<rect x="456.397" y="290.652" style="fill:#64798A;" width="5.571" height="11.5"/>
	<rect x="472.423" y="279.603" style="fill:#64798A;" width="5.571" height="22.569"/>
	<rect x="9.237" y="423.68" style="fill:#64798A;" width="4.936" height="11.5"/>
	<rect x="23.434" y="423.68" style="fill:#64798A;" width="4.936" height="11.5"/>
	<rect x="37.622" y="423.68" style="fill:#64798A;" width="4.936" height="11.5"/>
	<rect x="51.815" y="423.68" style="fill:#64798A;" width="4.936" height="11.5"/>
	<rect x="65.997" y="412.621" style="fill:#64798A;" width="4.936" height="22.569"/>
	<rect x="79.171" y="423.68" style="fill:#64798A;" width="4.936" height="11.5"/>
	<rect x="93.358" y="423.68" style="fill:#64798A;" width="4.936" height="11.5"/>
	<rect x="107.52" y="423.68" style="fill:#64798A;" width="4.936" height="11.5"/>
	<rect x="121.733" y="423.68" style="fill:#64798A;" width="4.936" height="11.5"/>
	<rect x="135.921" y="412.621" style="fill:#64798A;" width="4.936" height="22.569"/>
	<rect x="149.095" y="423.68" style="fill:#64798A;" width="4.936" height="11.5"/>
	<rect x="163.282" y="423.68" style="fill:#64798A;" width="4.936" height="11.5"/>
	<rect x="177.47" y="423.68" style="fill:#64798A;" width="4.936" height="11.5"/>
	<rect x="191.657" y="423.68" style="fill:#64798A;" width="4.936" height="11.5"/>
	<rect x="205.824" y="412.621" style="fill:#64798A;" width="4.936" height="22.569"/>
	<rect x="219.023" y="423.68" style="fill:#64798A;" width="4.936" height="11.5"/>
	<rect x="233.211" y="423.68" style="fill:#64798A;" width="4.936" height="11.5"/>
	<rect x="247.399" y="423.68" style="fill:#64798A;" width="4.936" height="11.5"/>
	<rect x="261.581" y="423.68" style="fill:#64798A;" width="4.936" height="11.5"/>
	<rect x="275.784" y="412.621" style="fill:#64798A;" width="4.936" height="22.569"/>
	<rect x="288.973" y="423.68" style="fill:#64798A;" width="4.936" height="11.5"/>
	<rect x="303.155" y="423.68" style="fill:#64798A;" width="4.936" height="11.5"/>
	<rect x="317.333" y="423.68" style="fill:#64798A;" width="4.936" height="11.5"/>
	<rect x="331.52" y="423.68" style="fill:#64798A;" width="4.936" height="11.5"/>
	<rect x="345.703" y="412.621" style="fill:#64798A;" width="4.936" height="22.569"/>
	<rect x="358.861" y="423.68" style="fill:#64798A;" width="4.936" height="11.5"/>
	<rect x="373.069" y="423.68" style="fill:#64798A;" width="4.936" height="11.5"/>
	<rect x="387.277" y="423.68" style="fill:#64798A;" width="4.936" height="11.5"/>
	<rect x="401.459" y="423.68" style="fill:#64798A;" width="4.936" height="11.5"/>
	<rect x="415.642" y="412.621" style="fill:#64798A;" width="4.936" height="22.569"/>
</g>
<rect x="0" y="379.443" style="fill:#E1E6E9;" width="491.52" height="25.564"/>
<circle style="fill:#D5D6DB;" cx="455.219" cy="392.192" r="17.818"/>
<g>
</g>
<g>
</g>
<g>
</g>
<g>
</g>
<g>
</g>
<g>
</g>
<g>
</g>
<g>
</g>
<g>
</g>
<g>
</g>
<g>
</g>
<g>
</g>
<g>
</g>
<g>
</g>
<g>
</g>
</svg>
