<?xml version="1.0" encoding="iso-8859-1"?>
<!-- Generator: Adobe Illustrator 19.0.0, SVG Export Plug-In . SVG Version: 6.00 Build 0)  -->
<svg version="1.1" id="Layer_1" xmlns="http://www.w3.org/2000/svg" xmlns:xlink="http://www.w3.org/1999/xlink" x="0px" y="0px"
	 viewBox="0 0 491.52 491.52" style="enable-background:new 0 0 491.52 491.52;" xml:space="preserve">
<path style="fill:#F6C358;" d="M141.606,17.874H6.45C2.888,17.874,0,20.732,0,24.26v460.874c0,3.527,2.888,6.386,6.45,6.386h135.156
	c3.562,0,6.447-2.858,6.447-6.386V24.26C148.053,20.732,145.168,17.874,141.606,17.874z"/>
<path style="fill:#3EA69B;" d="M313.339,17.874H178.183c-3.562,0-6.45,2.858-6.45,6.387v460.874c0,3.527,2.888,6.386,6.45,6.386
	h135.156c3.562,0,6.447-2.858,6.447-6.386V24.26C319.786,20.732,316.901,17.874,313.339,17.874z"/>
<path style="fill:#2D93BA;" d="M485.072,17.874H349.915c-3.561,0-6.45,2.858-6.45,6.387v460.874c0,3.527,2.889,6.386,6.45,6.386
	h135.156c3.562,0,6.448-2.858,6.448-6.386V24.26C491.52,20.732,488.634,17.874,485.072,17.874z"/>
<path style="fill:#FCD462;" d="M141.606,0H6.45C2.888,0,0,2.858,0,6.387V467.26c0,3.527,2.888,6.386,6.45,6.386h135.156
	c3.562,0,6.447-2.858,6.447-6.386V6.387C148.053,2.858,145.168,0,141.606,0z"/>
<rect x="26.813" y="26.808" style="fill:#FFFFFF;" width="94.428" height="179.866"/>
<rect x="26.813" y="195.533" style="fill:#EBF0F3;" width="94.428" height="11.1"/>
<path style="fill:#44C4A1;" d="M313.339,0H178.183c-3.562,0-6.45,2.858-6.45,6.387V467.26c0,3.527,2.888,6.386,6.45,6.386h135.156
	c3.562,0,6.447-2.858,6.447-6.386V6.387C319.786,2.858,316.901,0,313.339,0z"/>
<path style="fill:#27A2DB;" d="M485.072,0H349.915c-3.561,0-6.45,2.858-6.45,6.387V467.26c0,3.527,2.889,6.386,6.45,6.386h135.156
	c3.562,0,6.448-2.858,6.448-6.386V6.387C491.52,2.858,488.634,0,485.072,0z"/>
<rect x="198.543" y="26.808" style="fill:#FFFFFF;" width="94.428" height="179.866"/>
<rect x="198.543" y="195.533" style="fill:#EBF0F3;" width="94.428" height="11.1"/>
<rect x="370.278" y="26.808" style="fill:#FFFFFF;" width="94.428" height="179.866"/>
<g>
	<rect x="370.278" y="195.533" style="fill:#EBF0F3;" width="94.428" height="11.1"/>
	<rect x="39.711" y="46.182" style="fill:#EBF0F3;" width="68.634" height="6.702"/>
	<rect x="39.711" y="71.936" style="fill:#EBF0F3;" width="68.634" height="6.702"/>
	<rect x="39.711" y="97.69" style="fill:#EBF0F3;" width="68.634" height="6.702"/>
	<rect x="39.711" y="123.392" style="fill:#EBF0F3;" width="68.634" height="6.702"/>
	<rect x="39.711" y="149.146" style="fill:#EBF0F3;" width="68.634" height="6.702"/>
	<rect x="39.711" y="174.899" style="fill:#EBF0F3;" width="68.634" height="6.702"/>
	<rect x="211.456" y="46.182" style="fill:#EBF0F3;" width="68.634" height="6.702"/>
	<rect x="211.456" y="71.936" style="fill:#EBF0F3;" width="68.634" height="6.702"/>
	<rect x="211.456" y="97.69" style="fill:#EBF0F3;" width="68.634" height="6.702"/>
	<rect x="211.456" y="123.392" style="fill:#EBF0F3;" width="68.634" height="6.702"/>
	<rect x="211.456" y="149.146" style="fill:#EBF0F3;" width="68.634" height="6.702"/>
	<rect x="211.456" y="174.899" style="fill:#EBF0F3;" width="68.634" height="6.702"/>
	<rect x="383.176" y="46.182" style="fill:#EBF0F3;" width="68.628" height="6.702"/>
	<rect x="383.176" y="71.936" style="fill:#EBF0F3;" width="68.628" height="6.702"/>
	<rect x="383.176" y="97.69" style="fill:#EBF0F3;" width="68.628" height="6.702"/>
	<rect x="383.176" y="123.392" style="fill:#EBF0F3;" width="68.628" height="6.702"/>
	<rect x="383.176" y="149.146" style="fill:#EBF0F3;" width="68.628" height="6.702"/>
	<rect x="383.176" y="174.899" style="fill:#EBF0F3;" width="68.628" height="6.702"/>
</g>
<circle style="fill:#64798A;" cx="74.025" cy="409.211" r="31.739"/>
<circle style="fill:#FFFFFF;" cx="74.025" cy="409.211" r="25.574"/>
<circle style="fill:#64798A;" cx="245.76" cy="409.211" r="31.739"/>
<circle style="fill:#FFFFFF;" cx="245.76" cy="409.211" r="25.574"/>
<circle style="fill:#64798A;" cx="417.485" cy="409.211" r="31.739"/>
<circle style="fill:#FFFFFF;" cx="417.485" cy="409.211" r="25.574"/>
<g>
</g>
<g>
</g>
<g>
</g>
<g>
</g>
<g>
</g>
<g>
</g>
<g>
</g>
<g>
</g>
<g>
</g>
<g>
</g>
<g>
</g>
<g>
</g>
<g>
</g>
<g>
</g>
<g>
</g>
</svg>
