<?xml version="1.0" encoding="iso-8859-1"?>
<!-- Generator: Adobe Illustrator 19.0.0, SVG Export Plug-In . SVG Version: 6.00 Build 0)  -->
<svg version="1.1" id="Layer_1" xmlns="http://www.w3.org/2000/svg" xmlns:xlink="http://www.w3.org/1999/xlink" x="0px" y="0px"
	 viewBox="0 0 491.52 491.52" style="enable-background:new 0 0 491.52 491.52;" xml:space="preserve">
<polygon style="fill:#EBF0F3;" points="336.885,424.229 321.924,428.327 237.625,120.568 267.548,112.371 327.962,332.933 "/>
<polygon style="fill:#2F4859;" points="346.025,475.664 346.71,491.52 339.22,477.527 325.477,427.354 332.281,425.49 "/>
<polygon style="fill:#EBF0F3;" points="154.635,424.229 169.597,428.327 253.896,120.568 223.973,112.371 163.559,332.933 "/>
<polygon style="fill:#2F4859;" points="145.497,475.664 144.81,491.52 152.301,477.527 166.044,427.354 159.24,425.49 "/>
<path style="fill:#3A556A;" d="M293.679,71.698h-95.837c-2.502,0-4.531,2.028-4.531,4.53v65.617
	c0,29.398,24.058,54.364,53.451,53.813c28.505-0.533,51.448-23.807,51.448-52.439V76.229
	C298.21,73.726,296.182,71.698,293.679,71.698z"/>
<g>
	<circle style="fill:#2F4859;" cx="245.76" cy="143.565" r="29.204"/>
	<path style="fill:#2F4859;" d="M249.737,0h-7.952c-2.878,0-5.21,2.332-5.21,5.21v66.488h18.372V5.21
		C254.947,2.332,252.614,0,249.737,0z"/>
</g>
<g>
</g>
<g>
</g>
<g>
</g>
<g>
</g>
<g>
</g>
<g>
</g>
<g>
</g>
<g>
</g>
<g>
</g>
<g>
</g>
<g>
</g>
<g>
</g>
<g>
</g>
<g>
</g>
<g>
</g>
</svg>
