<?xml version="1.0" encoding="iso-8859-1"?>
<!-- Generator: Adobe Illustrator 19.0.0, SVG Export Plug-In . SVG Version: 6.00 Build 0)  -->
<svg version="1.1" id="Layer_1" xmlns="http://www.w3.org/2000/svg" xmlns:xlink="http://www.w3.org/1999/xlink" x="0px" y="0px"
	 viewBox="0 0 491.173 491.173" style="enable-background:new 0 0 491.173 491.173;" xml:space="preserve">
<path style="fill:#F6C358;" d="M18.731,232.185v243.254c0,6.222,5.044,11.268,11.268,11.268h431.174
	c6.223,0,11.267-5.046,11.267-11.268V232.185H18.731z"/>
<path style="fill:#DC8744;" d="M146.735,26.634c0-2.371,1.936-4.308,4.308-4.308H347.87c2.371,0,4.308,1.936,4.308,4.308v53.449
	h17.861V26.634c0-12.226-9.942-22.169-22.169-22.169H151.042c-12.226,0-22.169,9.942-22.169,22.169v53.449h17.861V26.634z"/>
<path style="fill:#FCD462;" d="M479.905,80.083H370.039h-17.861H146.735h-17.861H11.267C5.044,80.083,0,85.127,0,91.35v180.777
	c0,6.223,5.044,11.269,11.267,11.269h7.464h190.842v-44.912h72.025v44.912h190.841h7.466c6.223,0,11.268-5.046,11.268-11.269V91.35
	C491.173,85.127,486.127,80.083,479.905,80.083z"/>
<g>
	<rect x="18.729" y="283.372" style="fill:#DC8744;" width="190.822" height="17.859"/>
	<rect x="281.58" y="283.372" style="fill:#DC8744;" width="190.822" height="17.859"/>
</g>
<path style="fill:#64798A;" d="M209.573,327.329c0,3.672,2.975,6.646,6.645,6.646h58.734c3.669,0,6.645-2.975,6.645-6.646v-26.073
	v-17.861v-44.912h-72.025v44.912v17.861V327.329z M264.795,245.103c4.347,0,7.873,3.525,7.873,7.873
	c0,4.348-3.526,7.873-7.873,7.873c-4.348,0-7.873-3.526-7.873-7.873C256.922,248.627,260.447,245.103,264.795,245.103z
	 M226.373,245.103c4.348,0,7.873,3.525,7.873,7.873c0,4.348-3.526,7.873-7.873,7.873c-4.347,0-7.873-3.526-7.873-7.873
	C218.5,248.627,222.026,245.103,226.373,245.103z M218.5,283.016h54.167v34.488c0,4.164-3.378,7.542-7.542,7.542h-39.084
	c-4.164,0-7.542-3.378-7.542-7.542V283.016z"/>
<g>
	<path style="fill:#3A556A;" d="M218.5,317.504c0,4.164,3.378,7.542,7.542,7.542h39.084c4.164,0,7.542-3.378,7.542-7.542v-34.488
		H218.5V317.504z"/>
	<circle style="fill:#3A556A;" cx="226.386" cy="252.959" r="7.875"/>
	<circle style="fill:#3A556A;" cx="264.797" cy="252.959" r="7.875"/>
</g>
<g>
</g>
<g>
</g>
<g>
</g>
<g>
</g>
<g>
</g>
<g>
</g>
<g>
</g>
<g>
</g>
<g>
</g>
<g>
</g>
<g>
</g>
<g>
</g>
<g>
</g>
<g>
</g>
<g>
</g>
</svg>
