<?xml version="1.0" encoding="iso-8859-1"?>
<!-- Generator: Adobe Illustrator 19.0.0, SVG Export Plug-In . SVG Version: 6.00 Build 0)  -->
<svg version="1.1" id="Layer_1" xmlns="http://www.w3.org/2000/svg" xmlns:xlink="http://www.w3.org/1999/xlink" x="0px" y="0px"
	 viewBox="0 0 491.52 491.52" style="enable-background:new 0 0 491.52 491.52;" xml:space="preserve">
<path style="fill:#2F4859;" d="M336.663,476.45l-82.14-79.846v-69.956c0-4.851-3.926-8.777-8.777-8.777
	c-4.851,0-8.777,3.926-8.777,8.777v69.956l-82.131,79.846c-3.471,3.378-3.548,8.932-0.171,12.412
	c3.376,3.463,8.93,3.566,12.411,0.171l69.891-67.95v61.658c0,4.852,3.926,8.777,8.777,8.777c4.851,0,8.777-3.925,8.777-8.777
	v-61.658l69.9,67.95c1.706,1.663,3.918,2.486,6.119,2.486c2.289,0,4.577-0.891,6.291-2.657
	C340.211,485.382,340.133,479.828,336.663,476.45z"/>
<rect x="4.378" style="fill:#64798A;" width="482.765" height="39.7"/>
<rect x="39.741" y="39.7" style="fill:#EBF0F3;" width="412.006" height="267.11"/>
<g>
	<rect x="4.378" y="306.796" style="fill:#64798A;" width="482.765" height="39.7"/>
	<path style="fill:#64798A;" d="M92.583,189.316c0.256,14.931,9.784,21.079,20.824,21.079c7.904,0,12.663-1.379,16.809-3.135
		l1.879,7.894c-3.891,1.756-10.538,3.768-20.19,3.768c-18.689,0-29.851-12.296-29.851-30.606c0-18.311,10.785-32.731,28.472-32.731
		c19.813-0.001,25.083,17.432,25.083,28.594c0,2.257-0.256,4.014-0.379,5.136H92.583z M124.946,181.422
		c0.123-7.026-2.889-17.944-15.297-17.944c-11.163,0-16.054,10.294-16.933,17.944H124.946z"/>
	<path style="fill:#64798A;" d="M145.167,175.397v-7.526h64.717v7.526H145.167z M145.167,199.979v-7.527h64.717v7.527H145.167z"/>
	<path style="fill:#64798A;" d="M224.11,173.395c0-6.27-0.134-11.417-0.511-16.431h9.661l0.5,9.783h0.379
		c3.39-5.77,9.027-11.162,19.066-11.162c8.272,0,14.542,5.015,17.177,12.164h0.255c1.879-3.391,4.259-6.016,6.772-7.904
		c3.635-2.758,7.648-4.259,13.418-4.259c8.027,0,19.945,5.27,19.945,26.338v35.744h-10.785v-34.366
		c0-11.662-4.268-18.688-13.174-18.688c-6.27,0-11.162,4.636-13.041,10.039c-0.501,1.501-0.878,3.503-0.878,5.514v37.501h-10.784
		v-36.377c0-9.651-4.269-16.677-12.674-16.677c-6.894,0-11.908,5.515-13.664,11.039c-0.633,1.624-0.878,3.514-0.878,5.393v36.622
		H224.11V173.395z"/>
	<path style="fill:#64798A;" d="M372.038,215.409c-2.89,1.501-9.284,3.513-17.444,3.513c-18.311,0-30.219-12.418-30.219-30.984
		c0-18.689,12.786-32.231,32.609-32.231c6.515,0,12.285,1.634,15.299,3.137l-2.512,8.526c-2.625-1.501-6.771-2.879-12.786-2.879
		c-13.92,0-21.446,10.284-21.446,22.947c0,14.053,9.029,22.703,21.069,22.703c6.271,0,10.406-1.634,13.541-3.014L372.038,215.409z"
		/>
	<path style="fill:#64798A;" d="M379.115,175.877v-3.942l5.045-4.901c12.133-11.551,17.606-17.688,17.688-24.847
		c0-4.821-2.339-9.283-9.436-9.283c-4.31,0-7.884,2.195-10.08,4.024l-2.042-4.534c3.289-2.778,7.966-4.821,13.439-4.821
		c10.234,0,14.543,7.016,14.543,13.807c0,8.773-6.352,15.861-16.371,25.511l-3.799,3.503v0.154h21.344v5.331H379.115z"/>
</g>
<g>
</g>
<g>
</g>
<g>
</g>
<g>
</g>
<g>
</g>
<g>
</g>
<g>
</g>
<g>
</g>
<g>
</g>
<g>
</g>
<g>
</g>
<g>
</g>
<g>
</g>
<g>
</g>
<g>
</g>
</svg>
