<?xml version="1.0" encoding="iso-8859-1"?>
<!-- Generator: Adobe Illustrator 19.0.0, SVG Export Plug-In . SVG Version: 6.00 Build 0)  -->
<svg version="1.1" id="Layer_1" xmlns="http://www.w3.org/2000/svg" xmlns:xlink="http://www.w3.org/1999/xlink" x="0px" y="0px"
	 viewBox="0 0 491.542 491.542" style="enable-background:new 0 0 491.542 491.542;" xml:space="preserve">
<rect x="171.377" y="-27.408" transform="matrix(-0.7071 0.7071 -0.7071 -0.7071 593.3438 245.7711)" style="fill:#EBF0F3;" width="148.788" height="546.358"/>
<g>
	
		<rect x="296.501" y="236.044" transform="matrix(-0.7071 0.7071 -0.7071 -0.7071 728.4345 203.9369)" style="fill:#E1E6E9;" width="50.96" height="33.577"/>
	
		<rect x="227.312" y="305.153" transform="matrix(-0.7073 0.7069 -0.7069 -0.7073 659.1778 370.9302)" style="fill:#E1E6E9;" width="50.96" height="33.577"/>
	
		<rect x="222.321" y="-27.384" transform="matrix(-0.7071 0.7071 -0.7071 -0.7071 593.3203 245.8279)" style="fill:#E1E6E9;" width="46.853" height="546.358"/>
</g>
<g>
	<ellipse style="fill:#D5D6DB;" cx="88.246" cy="88.255" rx="20.531" ry="20.531"/>
	
		<rect x="109.302" y="18.531" transform="matrix(-0.7072 0.707 -0.707 -0.7072 212.423 -47.3287)" style="fill:#D5D6DB;" width="13.419" height="3.579"/>
	
		<rect x="116.74" y="25.971" transform="matrix(-0.7071 0.7071 -0.7071 -0.7071 230.3758 -39.9043)" style="fill:#D5D6DB;" width="13.425" height="3.579"/>
	
		<rect x="124.163" y="33.417" transform="matrix(-0.7071 0.7071 -0.7071 -0.7071 248.3083 -32.4396)" style="fill:#D5D6DB;" width="13.42" height="3.579"/>
	
		<rect x="131.597" y="40.831" transform="matrix(-0.7071 0.7071 -0.7071 -0.7071 266.2459 -25.0427)" style="fill:#D5D6DB;" width="13.425" height="3.579"/>
	
		<rect x="131.402" y="51.42" transform="matrix(-0.7071 0.7071 -0.7071 -0.7071 281.0265 -9.9865)" style="fill:#D5D6DB;" width="22.359" height="3.579"/>
	
		<rect x="146.216" y="55.443" transform="matrix(-0.7071 0.7071 -0.7071 -0.7071 301.5339 -10.4345)" style="fill:#D5D6DB;" width="13.425" height="3.579"/>
	
		<rect x="153.651" y="62.864" transform="matrix(-0.7071 0.7071 -0.7071 -0.7071 319.4721 -3.0152)" style="fill:#D5D6DB;" width="13.42" height="3.579"/>
	
		<rect x="161.069" y="70.276" transform="matrix(-0.7071 0.7071 -0.7071 -0.7071 337.3786 4.3834)" style="fill:#D5D6DB;" width="13.425" height="3.579"/>
	
		<rect x="168.502" y="77.738" transform="matrix(-0.7071 0.7071 -0.7071 -0.7071 355.3454 11.8728)" style="fill:#D5D6DB;" width="13.425" height="3.579"/>
	
		<rect x="168.335" y="88.328" transform="matrix(-0.7071 0.7071 -0.7071 -0.7071 370.1728 26.9051)" style="fill:#D5D6DB;" width="22.359" height="3.579"/>
	
		<rect x="183.103" y="92.333" transform="matrix(-0.7073 0.7069 -0.7069 -0.7073 390.6104 26.518)" style="fill:#D5D6DB;" width="13.425" height="3.579"/>
	
		<rect x="190.563" y="99.752" transform="matrix(-0.7071 0.7071 -0.7071 -0.7071 408.5707 33.8481)" style="fill:#D5D6DB;" width="13.425" height="3.579"/>
	
		<rect x="197.974" y="107.209" transform="matrix(-0.7071 0.7071 -0.7071 -0.7071 426.4916 41.3286)" style="fill:#D5D6DB;" width="13.425" height="3.579"/>
	
		<rect x="205.413" y="114.637" transform="matrix(-0.7071 0.7071 -0.7071 -0.7071 444.4459 48.7571)" style="fill:#D5D6DB;" width="13.425" height="3.579"/>
	
		<rect x="205.212" y="125.23" transform="matrix(-0.7071 0.7071 -0.7071 -0.7071 459.2191 63.8232)" style="fill:#D5D6DB;" width="22.359" height="3.579"/>
	
		<rect x="220.015" y="129.246" transform="matrix(-0.7071 0.7071 -0.7071 -0.7071 479.704 63.3703)" style="fill:#D5D6DB;" width="13.425" height="3.579"/>
	
		<rect x="227.437" y="136.697" transform="matrix(-0.7071 0.7071 -0.7071 -0.7071 497.6428 70.8415)" style="fill:#D5D6DB;" width="13.425" height="3.579"/>
	
		<rect x="234.864" y="144.099" transform="matrix(-0.7071 0.7071 -0.7071 -0.7071 515.5585 78.2377)" style="fill:#D5D6DB;" width="13.425" height="3.579"/>
	
		<rect x="242.329" y="151.561" transform="matrix(-0.7071 0.7071 -0.7071 -0.7071 533.573 85.675)" style="fill:#D5D6DB;" width="13.425" height="3.579"/>
	
		<rect x="242.126" y="162.149" transform="matrix(-0.7071 0.7071 -0.7071 -0.7071 548.3438 100.7537)" style="fill:#D5D6DB;" width="22.359" height="3.579"/>
	
		<rect x="256.926" y="166.172" transform="matrix(-0.7071 0.7071 -0.7071 -0.7071 568.8255 100.3036)" style="fill:#D5D6DB;" width="13.425" height="3.579"/>
	
		<rect x="264.359" y="173.613" transform="matrix(-0.7071 0.7071 -0.7071 -0.7071 586.7742 107.7698)" style="fill:#D5D6DB;" width="13.42" height="3.579"/>
	
		<rect x="271.767" y="181.022" transform="matrix(-0.7071 0.7071 -0.7071 -0.7071 604.6567 115.165)" style="fill:#D5D6DB;" width="13.42" height="3.579"/>
	
		<rect x="279.243" y="188.433" transform="matrix(-0.7071 0.7071 -0.7071 -0.7071 622.66 122.5298)" style="fill:#D5D6DB;" width="13.42" height="3.579"/>
	
		<rect x="279.04" y="199.048" transform="matrix(-0.7071 0.7071 -0.7071 -0.7071 637.4497 137.6341)" style="fill:#D5D6DB;" width="22.359" height="3.579"/>
	
		<rect x="293.836" y="203.083" transform="matrix(-0.707 0.7072 -0.7072 -0.707 657.9211 137.1681)" style="fill:#D5D6DB;" width="13.419" height="3.579"/>
	
		<rect x="301.265" y="210.496" transform="matrix(-0.7071 0.7071 -0.7071 -0.7071 675.8621 144.6374)" style="fill:#D5D6DB;" width="13.425" height="3.579"/>
	
		<rect x="308.677" y="217.92" transform="matrix(-0.7072 0.7071 -0.7071 -0.7072 693.7657 152.0831)" style="fill:#D5D6DB;" width="13.425" height="3.579"/>
	
		<rect x="316.124" y="225.367" transform="matrix(-0.7071 0.7071 -0.7071 -0.7071 711.7421 159.5168)" style="fill:#D5D6DB;" width="13.425" height="3.579"/>
	
		<rect x="315.929" y="235.943" transform="matrix(-0.7072 0.7071 -0.7071 -0.7072 726.5154 174.5628)" style="fill:#D5D6DB;" width="22.359" height="3.579"/>
	
		<rect x="330.746" y="239.954" transform="matrix(-0.7072 0.707 -0.707 -0.7072 747.025 174.1236)" style="fill:#D5D6DB;" width="13.425" height="3.579"/>
	
		<rect x="338.183" y="247.404" transform="matrix(-0.7071 0.7071 -0.7071 -0.7071 764.9795 181.5253)" style="fill:#D5D6DB;" width="13.425" height="3.579"/>
	
		<rect x="345.615" y="254.848" transform="matrix(-0.7071 0.7071 -0.7071 -0.7071 782.9312 188.9742)" style="fill:#D5D6DB;" width="13.425" height="3.579"/>
	
		<rect x="353.031" y="262.262" transform="matrix(-0.7071 0.7071 -0.7071 -0.7071 800.8335 196.3864)" style="fill:#D5D6DB;" width="13.425" height="3.579"/>
	
		<rect x="352.84" y="272.857" transform="matrix(-0.7071 0.7071 -0.7071 -0.7071 815.6243 211.4499)" style="fill:#D5D6DB;" width="22.359" height="3.579"/>
	
		<rect x="367.629" y="276.885" transform="matrix(-0.707 0.7072 -0.7072 -0.707 836.0829 210.9599)" style="fill:#D5D6DB;" width="13.425" height="3.579"/>
	
		<rect x="375.105" y="284.326" transform="matrix(-0.7071 0.7071 -0.7071 -0.7071 854.1148 218.4233)" style="fill:#D5D6DB;" width="13.425" height="3.579"/>
	
		<rect x="382.497" y="291.718" transform="matrix(-0.7071 0.7072 -0.7072 -0.7071 871.9573 225.7983)" style="fill:#D5D6DB;" width="13.425" height="3.579"/>
	
		<rect x="389.944" y="299.173" transform="matrix(-0.7071 0.7071 -0.7071 -0.7071 889.945 233.2753)" style="fill:#D5D6DB;" width="13.425" height="3.579"/>
	
		<rect x="389.75" y="309.753" transform="matrix(-0.7071 0.7071 -0.7071 -0.7071 904.722 248.3215)" style="fill:#D5D6DB;" width="22.359" height="3.579"/>
	
		<rect x="404.532" y="313.781" transform="matrix(-0.7071 0.7071 -0.7071 -0.7071 925.1797 247.9196)" style="fill:#D5D6DB;" width="13.425" height="3.579"/>
	
		<rect x="411.958" y="321.197" transform="matrix(-0.7071 0.7071 -0.7071 -0.7071 943.0934 255.3033)" style="fill:#D5D6DB;" width="13.419" height="3.579"/>
	
		<rect x="419.418" y="328.613" transform="matrix(-0.7071 0.7071 -0.7071 -0.7071 961.0796 262.7122)" style="fill:#D5D6DB;" width="13.425" height="3.579"/>
	
		<rect x="426.865" y="336.058" transform="matrix(-0.7071 0.7071 -0.7071 -0.7071 979.0576 270.1568)" style="fill:#D5D6DB;" width="13.425" height="3.579"/>
	
		<rect x="426.67" y="346.683" transform="matrix(-0.7071 0.7071 -0.7071 -0.7071 993.8629 285.2728)" style="fill:#D5D6DB;" width="22.359" height="3.579"/>
	
		<rect x="441.446" y="350.688" transform="matrix(-0.7072 0.707 -0.707 -0.7072 1014.2989 284.9063)" style="fill:#D5D6DB;" width="13.419" height="3.579"/>
	
		<rect x="448.878" y="358.103" transform="matrix(-0.7071 0.7071 -0.7071 -0.7071 1032.2269 292.2485)" style="fill:#D5D6DB;" width="13.425" height="3.579"/>
	
		<rect x="456.297" y="365.55" transform="matrix(-0.7071 0.7071 -0.7071 -0.7071 1050.1565 299.7151)" style="fill:#D5D6DB;" width="13.425" height="3.579"/>
	
		<rect x="463.763" y="372.978" transform="matrix(-0.7071 0.7071 -0.7071 -0.7071 1068.1544 307.1124)" style="fill:#D5D6DB;" width="13.425" height="3.579"/>
	
		<rect x="463.56" y="383.535" transform="matrix(-0.7071 0.7071 -0.7071 -0.7071 1082.8971 322.1117)" style="fill:#D5D6DB;" width="22.359" height="3.579"/>
	
		<rect x="263.936" y="270.609" transform="matrix(-0.7072 0.707 -0.707 -0.7072 693.779 287.5028)" style="fill:#D5D6DB;" width="46.853" height="33.577"/>
</g>
<path style="fill:#64798A;" d="M10.108,460.66L10.108,460.66c3.049,3.051,7.308,3.51,9.079,0.976l-0.65,0.932
	c-1.535,2.195-0.703,5.826,1.939,8.47c2.643,2.644,6.269,3.477,8.463,1.941l0.93-0.651c-2.53,1.773-2.074,6.036,0.976,9.088l0,0
	c2.108,2.111,4.925,3.072,7.072,2.413l4.255-1.306l0,0l-28.037,8.689c-6.93,2.147-15.958-6.891-13.812-13.827l8.46-27.345
	l-1.084,3.541C7.04,455.73,8,458.549,10.108,460.66z"/>
<path style="fill:#F6C358;" d="M391.333,61.247l58.024-42.783c8.068,7.214,16.523,15.678,23.73,23.753l-40.874,59.932
	C424.239,94.297,399.18,69.23,391.333,61.247z"/>
<path style="fill:#FCD462;" d="M449.357,18.464l-50.378,50.428c-7.835-7.97-15.634-15.985-23.37-24.113l44.032-44.075
	C422.896-2.553,435.553,6.12,449.357,18.464z"/>
<path style="fill:#DC8744;" d="M30.845,481.416L30.845,481.416c-3.05-3.052-3.507-7.315-0.976-9.088l4.146-2.901l35.536-24.875
	c0.706-0.494,4.159-3.965,5.086-3.972c-2.475,4.961-3.144,15.675,2.462,21.286c3.769,3.772,8.373,5.874,12.494,6.099
	c-0.022,0.008-0.038,0.024-0.061,0.031l-47.359,14.527l-4.255,1.306C35.77,484.488,32.953,483.527,30.845,481.416z"/>
<path style="fill:#F6C358;" d="M51.081,416.19c-1.298,4.848-2.671,16.96,2.288,21.925c4.96,4.964,15.996,4.192,20.841,2.893
	c-0.282,0.608-5.308,4-5.881,4.401l-34.313,24.019l-4.146,2.901l-0.93,0.651c-2.193,1.536-5.82,0.703-8.463-1.941
	c-2.642-2.644-3.474-6.275-1.939-8.47l0.65-0.932l0,0l2.9-4.15l23.996-34.346C46.483,422.567,50.474,416.471,51.081,416.19z"/>
<path style="fill:#FCD462;" d="M29.639,414.361c5.607,5.613,16.57,3.471,21.526,0.993c-0.007,0.927-3.734,5.855-4.228,6.561
	l-24.85,35.571l-2.9,4.15l0,0c-1.77,2.534-6.03,2.075-9.079-0.976l0,0c-2.108-2.111-3.068-4.93-2.411-7.078l1.084-3.541
	l14.734-48.124c0.007-0.023,0.023-0.037,0.03-0.061C23.772,405.981,25.87,410.589,29.639,414.361z"/>
<path style="fill:#D15241;" d="M73.668,441.549c-1.133,1.134-2.53,1.894-4.087,2.311c-4.845,1.299-11.253-0.782-16.212-5.745
	c-4.959-4.964-7.038-11.379-5.74-16.227c0.417-1.558,1.176-2.957,2.309-4.091L376.854,72.362l45.158,45.182L73.668,441.549z"/>
<path style="fill:#E56353;" d="M49.938,417.796c-0.673,0.673-1.446,1.202-2.282,1.62c-4.955,2.478-12.409,0.558-18.017-5.055
	c-3.769-3.772-5.867-8.38-6.093-12.505c-0.167-3.047,0.683-5.832,2.663-7.813L359.016,61.388l3.441-3.444l23.73,23.752
	L49.938,417.796z"/>
<path style="fill:#DC8744;" d="M473.087,42.218c12.333,13.818,20.999,26.485,17.742,29.745l-44.032,44.075
	c-8.12-7.743-16.127-15.55-24.09-23.393L473.087,42.218z"/>
<path style="fill:#CE412D;" d="M77.098,461.866c-5.606-5.611-7.525-13.072-5.05-18.033c0.418-0.837,0.947-1.611,1.619-2.284
	l336.25-336.1l23.73,23.752l-3.435,3.438L97.397,465.3c-1.978,1.981-4.761,2.832-7.805,2.665
	C85.471,467.74,80.867,465.638,77.098,461.866z"/>
<path style="fill:#EBF0F3;" d="M424.562,90.791c7.974,7.83,16.001,15.618,24.158,23.324l-15.74,15.752l-23.727-23.754
	l-23.727-23.756l-23.727-23.754l15.739-15.752c7.698,8.166,15.475,16.203,23.297,24.186
	C408.668,75.033,416.575,82.949,424.562,90.791z"/>
<g>
</g>
<g>
</g>
<g>
</g>
<g>
</g>
<g>
</g>
<g>
</g>
<g>
</g>
<g>
</g>
<g>
</g>
<g>
</g>
<g>
</g>
<g>
</g>
<g>
</g>
<g>
</g>
<g>
</g>
</svg>
