<?xml version="1.0" encoding="iso-8859-1"?>
<!-- Generator: Adobe Illustrator 19.0.0, SVG Export Plug-In . SVG Version: 6.00 Build 0)  -->
<svg version="1.1" id="Layer_1" xmlns="http://www.w3.org/2000/svg" xmlns:xlink="http://www.w3.org/1999/xlink" x="0px" y="0px"
	 viewBox="0 0 491.52 491.52" style="enable-background:new 0 0 491.52 491.52;" xml:space="preserve">
<path style="fill:#DC8744;" d="M346.701,169.184l-24.365-24.365c0,0,76.093-142.939,123.663-144.809
	c16.078-0.632,46.143,29.433,45.511,45.511C489.64,93.092,346.701,169.184,346.701,169.184z"/>
<path style="fill:#FCD462;" d="M252.576,476.97c7.712-58.644,34.529-113.503,76.812-155.787l35.475-35.475
	c42.821-42.821,46.761-112.574,6-157.362c-43.517-47.82-117.609-49.131-162.805-3.936l-37.723,37.722
	c-42.283,42.284-97.142,69.101-155.786,76.812c-13.58,1.786-19.441,18.083-9.755,27.768l220.012,220.014
	C234.493,496.409,250.791,490.549,252.576,476.97z"/>
<path style="fill:#F6C358;" d="M337.07,140.498c34.983,34.982,34.983,91.899,0.005,126.877l-37.723,37.723
	c-40.334,40.333-67.44,90.363-79.177,144.823l11.67,11.669c10.218-58.974,38.256-113.292,81.456-156.492l37.722-37.723
	c34.978-34.978,34.978-91.894-0.005-126.877c-19.26-19.261-45.168-27.853-70.407-25.902
	C301.205,116.189,321.354,124.782,337.07,140.498z"/>
<path style="fill:#DC8744;" d="M72.162,334.08c-23.548,23.549-23.548,61.729,0,85.278c23.549,23.549,61.729,23.548,85.278,0
	L72.162,334.08z"/>
<g>
</g>
<g>
</g>
<g>
</g>
<g>
</g>
<g>
</g>
<g>
</g>
<g>
</g>
<g>
</g>
<g>
</g>
<g>
</g>
<g>
</g>
<g>
</g>
<g>
</g>
<g>
</g>
<g>
</g>
</svg>
