<?xml version="1.0" encoding="iso-8859-1"?>
<!-- Generator: Adobe Illustrator 19.0.0, SVG Export Plug-In . SVG Version: 6.00 Build 0)  -->
<svg version="1.1" id="Layer_1" xmlns="http://www.w3.org/2000/svg" xmlns:xlink="http://www.w3.org/1999/xlink" x="0px" y="0px"
	 viewBox="0 0 491.52 491.52" style="enable-background:new 0 0 491.52 491.52;" xml:space="preserve">
<path style="fill:#64798A;" d="M353.73,0H65.17C31.986,0,5.085,26.901,5.085,60.084v372.038
	c0.946-31.538,365.129-52.329,365.129-47.983V16.484C370.214,7.38,362.834,0,353.73,0z"/>
<rect x="65.168" style="fill:#3A556A;" width="9.871" height="385.843"/>
<path style="fill:#2F4859;" d="M62.686,475.778c-24.476,0-44.116-21.105-41.679-46.071c2.123-21.759,21.685-37.699,43.547-37.699
	h297.792c4.346,0,7.869-3.523,7.869-7.869l0,0c0-4.346-3.523-7.869-7.869-7.869H65.098c-31.553,0-59.067,24.314-60.013,55.853
	c-0.978,32.635,25.184,59.396,57.597,59.396h299.664c4.346,0,7.869-3.523,7.869-7.869v-0.005c0-4.345-3.523-7.868-7.869-7.868
	H62.686z"/>
<path style="fill:#EBF0F3;" d="M21.007,429.707c-2.438,24.965,17.203,46.072,41.679,46.072h298.167
	c-12.996-27.924-12.996-55.846,0-83.77H64.553C42.691,392.009,23.13,407.949,21.007,429.707z"/>
<g>
	<path style="fill:#E1E6E9;" d="M46.718,411.117h307.357c0.28-1.107,0.644-2.213,0.966-3.319H46.718V411.117z"/>
	<path style="fill:#E1E6E9;" d="M46.718,423.332h305.011c0.131-1.107,0.411-2.214,0.581-3.32H46.718V423.332z"/>
	<path style="fill:#E1E6E9;" d="M46.718,435.554h304.484c-0.021-1.107-0.021-2.213,0-3.32H46.718V435.554z"/>
	<path style="fill:#E1E6E9;" d="M46.718,447.775H352.31c-0.17-1.107-0.449-2.213-0.581-3.319H46.718V447.775z"/>
	<path style="fill:#E1E6E9;" d="M46.718,459.991h308.324c-0.322-1.107-0.687-2.215-0.966-3.32H46.718V459.991z"/>
</g>
<rect x="249.216" y="102.707" style="fill:#3A556A;" width="121.001" height="131.251"/>
<rect x="267.07" y="84.808" style="fill:#EBF0F3;" width="219.392" height="131.251"/>
<g>
	<path style="fill:#E56353;" d="M331.069,123.188c4.659,3.957,6.984,10.029,6.984,18.227c0,8.198-2.395,14.193-7.17,17.994
		c-4.781,3.793-12.076,5.694-21.887,5.694h-8.824v18.513h-14.811v-66.361h23.449C319.002,117.254,326.418,119.233,331.069,123.188z
		 M320.199,149.295c1.777-1.993,2.665-4.907,2.665-8.738c0-3.824-1.159-6.545-3.469-8.159c-2.31-1.614-5.903-2.425-10.778-2.425
		h-8.445v22.313h9.967C315.076,152.285,318.43,151.289,320.199,149.295z"/>
	<path style="fill:#E56353;" d="M400.335,125.939c6.328,5.795,9.488,13.845,9.488,24.16c0,10.323-3.083,18.481-9.256,24.5
		c-6.166,6.011-15.584,9.017-28.239,9.017h-22.692v-66.361h23.449C384.921,117.254,393.999,120.144,400.335,125.939z
		 M389.465,165.39c3.639-3.423,5.454-8.391,5.454-14.912c0-6.513-1.816-11.535-5.454-15.043c-3.647-3.516-9.225-5.269-16.759-5.269
		h-8.259v40.347h9.395C380.617,170.512,385.818,168.804,389.465,165.39z"/>
	<path style="fill:#E56353;" d="M468.211,117.254v13.004h-30.758v14.34h29.235v13.003h-29.235v26.014h-14.812v-66.361H468.211z"/>
</g>
<g>
</g>
<g>
</g>
<g>
</g>
<g>
</g>
<g>
</g>
<g>
</g>
<g>
</g>
<g>
</g>
<g>
</g>
<g>
</g>
<g>
</g>
<g>
</g>
<g>
</g>
<g>
</g>
<g>
</g>
</svg>
