<?xml version="1.0" encoding="iso-8859-1"?>
<!-- Generator: Adobe Illustrator 19.0.0, SVG Export Plug-In . SVG Version: 6.00 Build 0)  -->
<svg version="1.1" id="Layer_1" xmlns="http://www.w3.org/2000/svg" xmlns:xlink="http://www.w3.org/1999/xlink" x="0px" y="0px"
	 viewBox="0 0 491.52 491.52" style="enable-background:new 0 0 491.52 491.52;" xml:space="preserve">
<rect x="15.928" y="173.303" style="fill:#EBF0F3;" width="459.674" height="225.843"/>
<polygon style="fill:#E56353;" points="475.591,173.305 15.928,173.305 48.924,94.919 442.594,94.919 "/>
<polygon style="fill:#D15241;" points="245.76,71.32 113.382,184.278 378.139,184.278 "/>
<rect x="113.357" y="386.459" style="fill:#3A556A;" width="264.755" height="16.225"/>
<g>
	<rect y="399.151" style="fill:#64798A;" width="491.52" height="21.048"/>
	<rect x="132.68" y="184.28" style="fill:#64798A;" width="40.315" height="17.331"/>
	<rect x="318.515" y="184.28" style="fill:#64798A;" width="40.315" height="17.331"/>
</g>
<g>
	<rect x="323.328" y="201.627" style="fill:#D5D6DB;" width="30.72" height="167.531"/>
	<rect x="137.472" y="201.627" style="fill:#D5D6DB;" width="30.72" height="167.531"/>
</g>
<g>
	<rect x="132.68" y="369.153" style="fill:#64798A;" width="40.315" height="17.331"/>
	<rect x="318.515" y="369.153" style="fill:#64798A;" width="40.315" height="17.331"/>
</g>
<rect x="202.86" y="256.667" style="fill:#DC8744;" width="85.796" height="129.797"/>
<rect x="45.834" y="196.763" style="fill:#D5D6DB;" width="43.674" height="48.778"/>
<rect x="50.309" y="201.217" style="fill:#27A2DB;" width="34.739" height="39.839"/>
<g>
	<polygon style="fill:#39B9E5;" points="58.442,241.069 56.992,241.069 72.724,201.23 74.175,201.23 	"/>
	<polygon style="fill:#39B9E5;" points="62.633,241.069 59.597,241.069 75.329,201.23 78.365,201.23 	"/>
</g>
<rect x="45.824" y="286.035" style="fill:#D5D6DB;" width="43.674" height="48.778"/>
<rect x="50.309" y="290.515" style="fill:#27A2DB;" width="34.739" height="39.839"/>
<g>
	<polygon style="fill:#39B9E5;" points="58.442,330.356 56.992,330.356 72.724,290.517 74.175,290.517 	"/>
	<polygon style="fill:#39B9E5;" points="62.633,330.356 59.597,330.356 75.329,290.517 78.365,290.517 	"/>
</g>
<rect x="401.987" y="196.768" style="fill:#D5D6DB;" width="43.668" height="48.778"/>
<rect x="406.477" y="201.217" style="fill:#27A2DB;" width="34.739" height="39.839"/>
<g>
	<polygon style="fill:#39B9E5;" points="414.6,241.069 413.15,241.069 428.884,201.23 430.333,201.23 	"/>
	<polygon style="fill:#39B9E5;" points="418.791,241.069 415.755,241.069 431.488,201.23 434.524,201.23 	"/>
</g>
<rect x="401.976" y="286.056" style="fill:#D5D6DB;" width="43.668" height="48.778"/>
<rect x="406.477" y="290.515" style="fill:#27A2DB;" width="34.739" height="39.839"/>
<g>
	<polygon style="fill:#39B9E5;" points="414.6,330.356 413.15,330.356 428.884,290.517 430.333,290.517 	"/>
	<polygon style="fill:#39B9E5;" points="418.791,330.356 415.755,330.356 431.488,290.517 434.524,290.517 	"/>
</g>
<g>
</g>
<g>
</g>
<g>
</g>
<g>
</g>
<g>
</g>
<g>
</g>
<g>
</g>
<g>
</g>
<g>
</g>
<g>
</g>
<g>
</g>
<g>
</g>
<g>
</g>
<g>
</g>
<g>
</g>
</svg>
