<?xml version="1.0" encoding="iso-8859-1"?>
<!-- Generator: Adobe Illustrator 19.0.0, SVG Export Plug-In . SVG Version: 6.00 Build 0)  -->
<svg version="1.1" id="Layer_1" xmlns="http://www.w3.org/2000/svg" xmlns:xlink="http://www.w3.org/1999/xlink" x="0px" y="0px"
	 viewBox="0 0 491.52 491.52" style="enable-background:new 0 0 491.52 491.52;" xml:space="preserve">
<path style="fill:#FCD462;" d="M480.722,88.383H10.798C4.835,88.383,0,93.218,0,99.18v301.267c0,5.964,4.835,10.798,10.798,10.798
	h207.804c3.379,11.881,14.193,20.636,27.159,20.636c12.965,0,23.777-8.755,27.155-20.636h207.806
	c5.964,0,10.798-4.835,10.798-10.798V99.18C491.52,93.218,486.685,88.383,480.722,88.383z"/>
<g>
	<path style="fill:#D5D6DB;" d="M273.903,59.639c-14.376,0-26.03,11.653-26.03,26.028v317.549h0.375
		c1.817-12.597,12.553-22.31,25.655-22.31h198.559V59.639H273.903z"/>
	<path style="fill:#D5D6DB;" d="M221.844,59.639c14.375,0,26.029,11.653,26.029,26.028v317.549h-0.376
		c-1.816-12.597-12.552-22.31-25.653-22.31H23.283V59.639H221.844z"/>
</g>
<path style="fill:#E1E6E9;" d="M273.903,59.639c-14.376,0-26.03,11.653-26.03,26.028v317.549h0.375
	c1.817-12.597,12.553-22.31,25.655-22.31h180.687V59.639H273.903z"/>
<path style="fill:#EBF0F3;" d="M221.844,59.639c14.375,0,26.029,11.653,26.029,26.028v317.549h-0.376
	c-1.816-12.597-12.552-22.31-25.653-22.31H41.157V59.639H221.844z"/>
<g>
	<rect x="61.747" y="104.863" style="fill:#D5D6DB;" width="165.53" height="8.724"/>
	<rect x="61.747" y="147.748" style="fill:#D5D6DB;" width="165.53" height="8.724"/>
	<rect x="61.747" y="190.618" style="fill:#D5D6DB;" width="165.53" height="8.724"/>
	<rect x="61.747" y="233.528" style="fill:#D5D6DB;" width="165.53" height="8.724"/>
	<rect x="61.747" y="276.413" style="fill:#D5D6DB;" width="165.53" height="8.724"/>
	<rect x="61.747" y="319.283" style="fill:#D5D6DB;" width="165.53" height="8.724"/>
	<rect x="268.493" y="104.863" style="fill:#D5D6DB;" width="165.53" height="8.724"/>
	<rect x="268.493" y="147.748" style="fill:#D5D6DB;" width="165.53" height="8.724"/>
	<rect x="268.493" y="190.618" style="fill:#D5D6DB;" width="165.53" height="8.724"/>
	<rect x="268.493" y="233.528" style="fill:#D5D6DB;" width="165.53" height="8.724"/>
	<rect x="268.493" y="276.413" style="fill:#D5D6DB;" width="165.53" height="8.724"/>
	<rect x="268.493" y="319.283" style="fill:#D5D6DB;" width="165.53" height="8.724"/>
</g>
<g>
</g>
<g>
</g>
<g>
</g>
<g>
</g>
<g>
</g>
<g>
</g>
<g>
</g>
<g>
</g>
<g>
</g>
<g>
</g>
<g>
</g>
<g>
</g>
<g>
</g>
<g>
</g>
<g>
</g>
</svg>
