<?xml version="1.0" encoding="iso-8859-1"?>
<!-- Generator: Adobe Illustrator 19.0.0, SVG Export Plug-In . SVG Version: 6.00 Build 0)  -->
<svg version="1.1" id="Layer_1" xmlns="http://www.w3.org/2000/svg" xmlns:xlink="http://www.w3.org/1999/xlink" x="0px" y="0px"
	 viewBox="0 0 491.173 491.173" style="enable-background:new 0 0 491.173 491.173;" xml:space="preserve">
<path style="fill:#E56353;" d="M407.514,245.586c0-35.986,9.627-68.179,24.785-89.763c4.145-5.9,6.506-12.832,6.506-20.042V8.366
	c0-4.621-3.745-8.366-8.366-8.366H60.736c-4.622,0-8.368,3.746-8.368,8.368v127.413c0,7.21,2.362,14.142,6.505,20.042
	c15.16,21.584,24.787,53.777,24.787,89.763s-9.627,68.179-24.787,89.763c-4.143,5.9-6.505,12.832-6.505,20.042v127.413
	c0,4.622,3.747,8.368,8.368,8.368h369.701c4.622,0,8.368-3.746,8.368-8.368V355.392c0-7.21-2.361-14.142-6.506-20.042
	C417.141,313.766,407.514,281.572,407.514,245.586z"/>
<g>
	<rect x="301.758" y="0" style="fill:#D15241;" width="33.403" height="491.162"/>
	<rect x="156.007" y="0" style="fill:#D15241;" width="10.982" height="491.162"/>
</g>
<path style="fill:#FFFFFF;" d="M191.073,32.955c-13.302,0-24.085,10.783-24.085,24.084v377.095c0,13.3,10.784,24.083,24.085,24.083
	h81.316V32.955H191.073z"/>
<rect x="272.364" y="32.958" style="fill:#EBF0F3;" width="29.373" height="425.267"/>
<circle style="fill:#E1E6E9;" cx="219.689" cy="245.586" r="26.522"/>
<path style="fill:#D5D6DB;" d="M245.761,241.138h-21.625v-21.624c-1.454-0.249-2.926-0.45-4.447-0.45
	c-1.525,0-2.996,0.201-4.449,0.45v21.624h-21.625c-0.246,1.452-0.449,2.924-0.449,4.447c0,1.524,0.203,2.993,0.449,4.448h21.625
	v21.626c1.453,0.246,2.924,0.447,4.449,0.447c1.521,0,2.993-0.201,4.447-0.447v-21.626h21.625c0.246-1.455,0.449-2.924,0.449-4.448
	C246.21,244.062,246.007,242.59,245.761,241.138z"/>
<g>
</g>
<g>
</g>
<g>
</g>
<g>
</g>
<g>
</g>
<g>
</g>
<g>
</g>
<g>
</g>
<g>
</g>
<g>
</g>
<g>
</g>
<g>
</g>
<g>
</g>
<g>
</g>
<g>
</g>
</svg>
