<?xml version="1.0" encoding="iso-8859-1"?>
<!-- Generator: Adobe Illustrator 19.0.0, SVG Export Plug-In . SVG Version: 6.00 Build 0)  -->
<svg version="1.1" id="Layer_1" xmlns="http://www.w3.org/2000/svg" xmlns:xlink="http://www.w3.org/1999/xlink" x="0px" y="0px"
	 viewBox="0 0 491.52 491.52" style="enable-background:new 0 0 491.52 491.52;" xml:space="preserve">
<path style="fill:#EBF0F3;" d="M482.071,431.287L313.862,204.278V34.011H177.657v170.27L9.45,431.287
	c-21.153,23.22-4.481,60.233,27.128,60.233h418.364C486.552,491.52,503.224,454.507,482.071,431.287z"/>
<polygon style="fill:#E1E6E9;" points="329.517,49.371 329.517,0 162.002,0 162.002,49.371 177.657,49.371 313.862,49.371 "/>
<g>
	<path style="fill:#E56353;" d="M471.447,440.746l-0.482-0.531l-73.776-99.567H94.329l-73.775,99.567l-0.482,0.531
		c-6.05,6.629-7.466,15.465-3.789,23.618c3.671,8.16,11.256,13.029,20.293,13.029h418.368c9.036,0,16.621-4.869,20.292-13.029
		C478.914,456.211,477.497,447.375,471.447,440.746z"/>
	<ellipse style="fill:#E56353;" cx="188.621" cy="297.114" rx="9.19" ry="9.083"/>
	<ellipse style="fill:#E56353;" cx="231.936" cy="192.671" rx="7.982" ry="7.89"/>
	<ellipse style="fill:#E56353;" cx="272.794" cy="103.014" rx="6.287" ry="6.216"/>
	<ellipse style="fill:#E56353;" cx="321.71" cy="287.181" rx="7.808" ry="7.721"/>
</g>
<g>
</g>
<g>
</g>
<g>
</g>
<g>
</g>
<g>
</g>
<g>
</g>
<g>
</g>
<g>
</g>
<g>
</g>
<g>
</g>
<g>
</g>
<g>
</g>
<g>
</g>
<g>
</g>
<g>
</g>
</svg>
