<?xml version="1.0" encoding="iso-8859-1"?>
<!-- Generator: Adobe Illustrator 19.0.0, SVG Export Plug-In . SVG Version: 6.00 Build 0)  -->
<svg version="1.1" id="Layer_1" xmlns="http://www.w3.org/2000/svg" xmlns:xlink="http://www.w3.org/1999/xlink" x="0px" y="0px"
	 viewBox="0 0 491.52 491.52" style="enable-background:new 0 0 491.52 491.52;" xml:space="preserve">
<path style="fill:#EBF0F3;" d="M441.633,0H38.952c-9.348,0-15.236,10.065-10.656,18.214l29.638,52.731
	c2.766,4.922,4.219,10.472,4.219,16.119v381.28c0,12.8,10.377,23.177,23.177,23.177h356.304c12.8,0,23.177-10.376,23.177-23.177
	V23.177C464.81,10.376,454.434,0,441.633,0z"/>
<g>
	<rect x="88.965" y="259.753" style="fill:#FCD462;" width="349.03" height="204.954"/>
	<circle style="fill:#FCD462;" cx="166.723" cy="197.453" r="8.576"/>
	<circle style="fill:#FCD462;" cx="156.15" cy="88.566" r="10.573"/>
	<circle style="fill:#FCD462;" cx="241.408" cy="117.811" r="4.367"/>
	<circle style="fill:#FCD462;" cx="269.768" cy="199.731" r="6.287"/>
	<circle style="fill:#FCD462;" cx="364.902" cy="107.878" r="19.292"/>
	<circle style="fill:#FCD462;" cx="361.011" cy="225.946" r="3.927"/>
</g>
<g>
	<circle style="fill:#FFFFFF;" cx="269.768" cy="362.24" r="12.083"/>
	<circle style="fill:#FFFFFF;" cx="371.149" cy="308.787" r="10.163"/>
	<circle style="fill:#FFFFFF;" cx="175.616" cy="333.824" r="8.899"/>
</g>
<g>
	<rect x="404.26" y="59.474" style="fill:#64798A;" width="16.891" height="4.5"/>
	<rect x="404.26" y="72.694" style="fill:#64798A;" width="16.891" height="4.506"/>
	<rect x="404.26" y="85.919" style="fill:#64798A;" width="16.891" height="4.506"/>
	<rect x="404.26" y="99.154" style="fill:#64798A;" width="16.891" height="4.5"/>
	<rect x="393.011" y="112.374" style="fill:#64798A;" width="28.134" height="4.5"/>
	<rect x="404.26" y="125.153" style="fill:#64798A;" width="16.891" height="4.5"/>
	<rect x="404.26" y="138.394" style="fill:#64798A;" width="16.891" height="4.5"/>
	<rect x="404.26" y="151.598" style="fill:#64798A;" width="16.891" height="4.5"/>
	<rect x="404.26" y="164.813" style="fill:#64798A;" width="16.891" height="4.506"/>
	<rect x="393.011" y="178.053" style="fill:#64798A;" width="28.134" height="4.5"/>
	<rect x="404.26" y="190.822" style="fill:#64798A;" width="16.891" height="4.5"/>
	<rect x="404.26" y="204.052" style="fill:#64798A;" width="16.891" height="4.506"/>
	<rect x="404.26" y="217.293" style="fill:#64798A;" width="16.891" height="4.506"/>
	<rect x="404.26" y="230.502" style="fill:#64798A;" width="16.891" height="4.5"/>
	<rect x="393.011" y="243.732" style="fill:#64798A;" width="28.134" height="4.5"/>
	<rect x="404.26" y="256.512" style="fill:#64798A;" width="16.891" height="4.5"/>
	<rect x="404.26" y="269.732" style="fill:#64798A;" width="16.891" height="4.5"/>
	<rect x="404.26" y="282.931" style="fill:#64798A;" width="16.891" height="4.5"/>
	<rect x="404.26" y="296.187" style="fill:#64798A;" width="16.891" height="4.5"/>
	<rect x="393.011" y="309.402" style="fill:#64798A;" width="28.134" height="4.5"/>
	<rect x="404.26" y="322.186" style="fill:#64798A;" width="16.891" height="4.506"/>
	<rect x="404.26" y="335.411" style="fill:#64798A;" width="16.891" height="4.506"/>
	<rect x="404.26" y="348.621" style="fill:#64798A;" width="16.891" height="4.506"/>
	<rect x="404.26" y="361.882" style="fill:#64798A;" width="16.891" height="4.5"/>
	<rect x="393.011" y="375.091" style="fill:#64798A;" width="28.134" height="4.5"/>
	<rect x="404.26" y="387.84" style="fill:#64798A;" width="16.891" height="4.5"/>
	<rect x="404.26" y="401.101" style="fill:#64798A;" width="16.891" height="4.5"/>
	<rect x="404.26" y="414.31" style="fill:#64798A;" width="16.891" height="4.5"/>
	<rect x="404.26" y="427.52" style="fill:#64798A;" width="16.891" height="4.5"/>
</g>
<g>
</g>
<g>
</g>
<g>
</g>
<g>
</g>
<g>
</g>
<g>
</g>
<g>
</g>
<g>
</g>
<g>
</g>
<g>
</g>
<g>
</g>
<g>
</g>
<g>
</g>
<g>
</g>
<g>
</g>
</svg>
