<?xml version="1.0" encoding="iso-8859-1"?>
<!-- Generator: Adobe Illustrator 19.0.0, SVG Export Plug-In . SVG Version: 6.00 Build 0)  -->
<svg version="1.1" id="Layer_1" xmlns="http://www.w3.org/2000/svg" xmlns:xlink="http://www.w3.org/1999/xlink" x="0px" y="0px"
	 viewBox="0 0 491.52 491.52" style="enable-background:new 0 0 491.52 491.52;" xml:space="preserve">
<polygon style="fill:#EBF0F3;" points="491.52,0 0,0 0,103.554 387.967,103.554 491.52,0.001 "/>
<polygon style="fill:#E1E6E9;" points="387.967,103.554 387.967,491.52 491.52,491.52 491.52,0.001 "/>
<g>
	<rect x="6.717" y="85.437" style="fill:#64798A;" width="4.47" height="18.12"/>
	<rect x="19.574" y="85.437" style="fill:#64798A;" width="4.47" height="18.12"/>
	<rect x="32.42" y="85.437" style="fill:#64798A;" width="4.47" height="18.12"/>
	<rect x="45.266" y="85.437" style="fill:#64798A;" width="4.47" height="18.12"/>
	<rect x="58.112" y="68.925" style="fill:#64798A;" width="4.47" height="34.632"/>
	<rect x="70.042" y="85.437" style="fill:#64798A;" width="4.47" height="18.12"/>
	<rect x="82.893" y="85.437" style="fill:#64798A;" width="4.47" height="18.12"/>
	<rect x="95.734" y="85.437" style="fill:#64798A;" width="4.47" height="18.12"/>
	<rect x="108.595" y="85.437" style="fill:#64798A;" width="4.47" height="18.12"/>
	<rect x="121.431" y="68.925" style="fill:#64798A;" width="4.47" height="34.632"/>
	<rect x="133.376" y="85.437" style="fill:#64798A;" width="4.47" height="18.12"/>
	<rect x="146.207" y="85.437" style="fill:#64798A;" width="4.47" height="18.12"/>
	<rect x="159.027" y="85.437" style="fill:#64798A;" width="4.47" height="18.12"/>
	<rect x="171.899" y="85.437" style="fill:#64798A;" width="4.47" height="18.12"/>
	<rect x="184.73" y="68.925" style="fill:#64798A;" width="4.47" height="34.632"/>
	<rect x="196.659" y="85.437" style="fill:#64798A;" width="4.47" height="18.12"/>
	<rect x="209.521" y="85.437" style="fill:#64798A;" width="4.47" height="18.12"/>
	<rect x="222.362" y="85.437" style="fill:#64798A;" width="4.47" height="18.12"/>
	<rect x="235.223" y="85.437" style="fill:#64798A;" width="4.47" height="18.12"/>
	<rect x="248.064" y="68.925" style="fill:#64798A;" width="4.47" height="34.632"/>
	<rect x="259.999" y="85.437" style="fill:#64798A;" width="4.47" height="18.12"/>
	<rect x="272.845" y="85.437" style="fill:#64798A;" width="4.47" height="18.12"/>
	<rect x="285.696" y="85.437" style="fill:#64798A;" width="4.47" height="18.12"/>
	<rect x="298.547" y="85.437" style="fill:#64798A;" width="4.47" height="18.12"/>
	<rect x="311.388" y="68.925" style="fill:#64798A;" width="4.47" height="34.632"/>
	<rect x="323.328" y="85.437" style="fill:#64798A;" width="4.47" height="18.12"/>
	<rect x="336.179" y="85.437" style="fill:#64798A;" width="4.47" height="18.12"/>
	<rect x="349.03" y="85.437" style="fill:#64798A;" width="4.47" height="18.12"/>
	<rect x="361.882" y="85.437" style="fill:#64798A;" width="4.47" height="18.12"/>
	<rect x="374.682" y="68.925" style="fill:#64798A;" width="4.47" height="34.632"/>
	<rect x="387.942" y="479.795" style="fill:#64798A;" width="18.115" height="4.47"/>
	<rect x="387.942" y="466.944" style="fill:#64798A;" width="18.115" height="4.47"/>
	<rect x="387.942" y="454.093" style="fill:#64798A;" width="18.115" height="4.47"/>
	<rect x="387.942" y="441.242" style="fill:#64798A;" width="18.115" height="4.47"/>
	<rect x="387.942" y="428.39" style="fill:#64798A;" width="34.632" height="4.47"/>
	<rect x="387.942" y="416.461" style="fill:#64798A;" width="18.115" height="4.47"/>
	<rect x="387.942" y="403.61" style="fill:#64798A;" width="18.115" height="4.47"/>
	<rect x="387.942" y="390.758" style="fill:#64798A;" width="18.115" height="4.47"/>
	<rect x="387.942" y="377.907" style="fill:#64798A;" width="18.115" height="4.47"/>
	<rect x="387.942" y="365.056" style="fill:#64798A;" width="34.632" height="4.47"/>
	<rect x="387.942" y="353.152" style="fill:#64798A;" width="18.115" height="4.47"/>
	<rect x="387.942" y="340.326" style="fill:#64798A;" width="18.115" height="4.47"/>
	<rect x="387.942" y="327.455" style="fill:#64798A;" width="18.115" height="4.47"/>
	<rect x="387.942" y="314.624" style="fill:#64798A;" width="18.115" height="4.47"/>
	<rect x="387.942" y="301.763" style="fill:#64798A;" width="34.632" height="4.47"/>
	<rect x="387.942" y="289.843" style="fill:#64798A;" width="18.115" height="4.47"/>
	<rect x="387.942" y="276.992" style="fill:#64798A;" width="18.115" height="4.47"/>
	<rect x="387.942" y="264.141" style="fill:#64798A;" width="18.115" height="4.47"/>
	<rect x="387.942" y="251.29" style="fill:#64798A;" width="18.115" height="4.47"/>
	<rect x="387.942" y="238.438" style="fill:#64798A;" width="34.632" height="4.47"/>
	<rect x="387.942" y="226.509" style="fill:#64798A;" width="18.115" height="4.47"/>
	<rect x="387.942" y="213.663" style="fill:#64798A;" width="18.115" height="4.47"/>
	<rect x="387.942" y="200.806" style="fill:#64798A;" width="18.115" height="4.47"/>
	<rect x="387.942" y="187.971" style="fill:#64798A;" width="18.115" height="4.47"/>
	<rect x="387.942" y="175.104" style="fill:#64798A;" width="34.632" height="4.47"/>
	<rect x="387.942" y="163.19" style="fill:#64798A;" width="18.115" height="4.47"/>
	<rect x="387.942" y="150.344" style="fill:#64798A;" width="18.115" height="4.47"/>
	<rect x="387.942" y="137.498" style="fill:#64798A;" width="18.115" height="4.47"/>
	<rect x="387.942" y="124.652" style="fill:#64798A;" width="18.115" height="4.47"/>
	<rect x="387.942" y="111.805" style="fill:#64798A;" width="34.632" height="4.47"/>
</g>
<g>
</g>
<g>
</g>
<g>
</g>
<g>
</g>
<g>
</g>
<g>
</g>
<g>
</g>
<g>
</g>
<g>
</g>
<g>
</g>
<g>
</g>
<g>
</g>
<g>
</g>
<g>
</g>
<g>
</g>
</svg>
