<?xml version="1.0" encoding="iso-8859-1"?>
<!-- Generator: Adobe Illustrator 19.0.0, SVG Export Plug-In . SVG Version: 6.00 Build 0)  -->
<svg version="1.1" id="Layer_1" xmlns="http://www.w3.org/2000/svg" xmlns:xlink="http://www.w3.org/1999/xlink" x="0px" y="0px"
	 viewBox="0 0 491.52 491.52" style="enable-background:new 0 0 491.52 491.52;" xml:space="preserve">
<path style="fill:#FCD462;" d="M349.297,0H60.738C27.554,0,0.652,26.901,0.652,60.084v372.038
	c0.947-31.538,365.13-52.329,365.13-47.983V16.484C365.783,7.38,358.401,0,349.297,0z"/>
<g>
	<rect x="60.739" style="fill:#F6C358;" width="9.871" height="385.843"/>
	<path style="fill:#F6C358;" d="M58.253,475.778c-24.475,0-44.116-21.105-41.679-46.071c2.123-21.759,21.684-37.699,43.546-37.699
		h297.793c4.345,0,7.869-3.523,7.869-7.869l0,0c0-4.346-3.524-7.869-7.869-7.869H60.665c-31.552,0-59.066,24.314-60.013,55.853
		c-0.978,32.635,25.185,59.396,57.598,59.396h299.664c4.345,0,7.869-3.523,7.869-7.869v-0.005c0-4.345-3.524-7.868-7.869-7.868
		H58.253z"/>
</g>
<path style="fill:#EBF0F3;" d="M16.575,429.707c-2.439,24.965,17.203,46.072,41.678,46.072H356.42
	c-12.995-27.924-12.995-55.846,0-83.77H60.121C38.258,392.009,18.697,407.949,16.575,429.707z"/>
<g>
	<path style="fill:#E1E6E9;" d="M42.286,411.117h307.357c0.28-1.107,0.644-2.213,0.966-3.319H42.286V411.117z"/>
	<path style="fill:#E1E6E9;" d="M42.286,423.332h305.011c0.131-1.107,0.41-2.214,0.58-3.32H42.286V423.332z"/>
	<path style="fill:#E1E6E9;" d="M42.286,435.554h304.483c-0.021-1.107-0.021-2.213,0-3.32H42.286V435.554z"/>
	<path style="fill:#E1E6E9;" d="M42.286,447.775h305.591c-0.17-1.107-0.449-2.213-0.58-3.319H42.286V447.775z"/>
	<path style="fill:#E1E6E9;" d="M42.286,459.991h308.323c-0.322-1.107-0.686-2.215-0.966-3.32H42.286V459.991z"/>
</g>
<path style="fill:#F6C358;" d="M363.824,225.494c-13.752,0-24.899-11.148-24.899-24.899c0-13.752,11.147-24.899,24.899-24.899
	c0.67,0,1.301,0.146,1.957,0.197V73.624c-0.658-0.01-1.296-0.099-1.957-0.099c-70.178,0-127.069,56.891-127.069,127.07
	c0,70.178,56.892,127.069,127.069,127.069c0.661,0,1.299-0.089,1.957-0.099V225.297
	C365.125,225.349,364.495,225.494,363.824,225.494z"/>
<path style="fill:#EBF0F3;" d="M363.824,63.476c-70.178,0-127.069,56.891-127.069,127.07c0,70.178,56.891,127.069,127.069,127.069
	c70.179,0,127.07-56.891,127.07-127.069C490.894,120.367,434.003,63.476,363.824,63.476z M363.824,247.596
	c-31.508,0-57.049-25.542-57.049-57.049c0-31.508,25.541-57.05,57.049-57.05s57.05,25.542,57.05,57.05
	C420.874,222.053,395.332,247.596,363.824,247.596z"/>
<path style="fill:#D5D6DB;" d="M363.824,133.496c-31.508,0-57.049,25.542-57.049,57.05c0,31.507,25.541,57.049,57.049,57.049
	s57.05-25.542,57.05-57.049C420.874,159.038,395.332,133.496,363.824,133.496z M363.824,245.018
	c-30.085,0-54.472-24.387-54.472-54.472s24.387-54.473,54.472-54.473s54.473,24.388,54.473,54.473S393.909,245.018,363.824,245.018z
	"/>
<g>
	<path style="fill:#E1E6E9;" d="M363.824,136.073c-30.085,0-54.472,24.388-54.472,54.473s24.387,54.472,54.472,54.472
		s54.473-24.387,54.473-54.472S393.909,136.073,363.824,136.073z M363.824,215.445c-13.751,0-24.899-11.148-24.899-24.899
		c0-13.752,11.148-24.899,24.899-24.899c13.751,0,24.899,11.148,24.899,24.899C388.723,204.297,377.575,215.445,363.824,215.445z"/>
	<path style="fill:#E1E6E9;" d="M354.498,252.856l-8.57,57.255c5.857,0.875,11.801,1.474,17.897,1.474v-57.961
		C360.649,253.624,357.55,253.312,354.498,252.856z"/>
	<path style="fill:#E1E6E9;" d="M409.827,147.524l42.27-39.53c-14.57-15.57-33.133-27.312-54.11-33.498l-16.358,55.571
		C392.56,133.29,402.234,139.41,409.827,147.524z"/>
	<path style="fill:#E1E6E9;" d="M317.822,233.566l-42.268,39.53c14.57,15.57,33.132,27.312,54.11,33.499l16.359-55.572
		C335.089,247.801,325.416,241.681,317.822,233.566z"/>
	<path style="fill:#E1E6E9;" d="M373.151,128.235l8.569-57.255c-5.856-0.874-11.801-1.474-17.895-1.474v57.961
		C367.002,127.467,370.099,127.78,373.151,128.235z"/>
</g>
<g>
</g>
<g>
</g>
<g>
</g>
<g>
</g>
<g>
</g>
<g>
</g>
<g>
</g>
<g>
</g>
<g>
</g>
<g>
</g>
<g>
</g>
<g>
</g>
<g>
</g>
<g>
</g>
<g>
</g>
</svg>
