<?xml version="1.0" encoding="iso-8859-1"?>
<!-- Generator: Adobe Illustrator 19.0.0, SVG Export Plug-In . SVG Version: 6.00 Build 0)  -->
<svg version="1.1" id="Layer_1" xmlns="http://www.w3.org/2000/svg" xmlns:xlink="http://www.w3.org/1999/xlink" x="0px" y="0px"
	 viewBox="0 0 491.52 491.52" style="enable-background:new 0 0 491.52 491.52;" xml:space="preserve">
<rect y="47.795" style="fill:#EBF0F3;" width="491.52" height="395.93"/>
<path style="fill:#64798A;" d="M469.179,421.392H22.343V70.137h446.836V421.392z M31.279,412.456h428.963V79.074H31.279V412.456z"/>
<path style="fill:#E56353;" d="M281.391,354.829L281.391,354.829c-2.469-2.468-3.855-5.816-3.855-9.307v-0.001
	c0-7.269-5.892-13.161-13.161-13.161h-0.001c-3.491,0-6.838-1.387-9.307-3.855h-0.001c-5.139-5.14-13.473-5.14-18.612,0h-0.001
	c-2.468,2.468-5.816,3.855-9.306,3.855h-0.002c-7.268,0-13.16,5.892-13.16,13.161v0.001c0,3.491-1.387,6.838-3.855,9.306v0.001
	c-5.141,5.139-5.141,13.474,0,18.613c2.468,2.468,3.855,5.816,3.855,9.308l0,0c0,7.269,5.893,13.162,13.16,13.162h0.002
	c3.49,0,6.838,1.386,9.306,3.854l0.001,0.001c5.139,5.139,13.473,5.139,18.612,0l0.001-0.001c2.468-2.468,5.816-3.854,9.307-3.854
	h0.001c7.269,0,13.161-5.893,13.161-13.162v-0.001c0-3.491,1.386-6.839,3.855-9.307h0.001
	C286.53,368.302,286.53,359.968,281.391,354.829z"/>
<path style="fill:#D15241;" d="M245.76,391.499c-15.086,0-27.362-12.276-27.362-27.362c0-15.089,12.276-27.365,27.362-27.365
	c15.086,0,27.361,12.276,27.361,27.365C273.121,379.224,260.846,391.499,245.76,391.499z M245.76,339.351
	c-13.666,0-24.783,11.12-24.783,24.786c0,13.665,11.117,24.782,24.783,24.782c13.666,0,24.783-11.117,24.783-24.782
	C270.543,350.471,259.426,339.351,245.76,339.351z"/>
<path style="fill:#44C4A1;" d="M373.354,210.271h-8.936c0-58.413-53.229-105.933-118.657-105.933s-118.655,47.52-118.655,105.933
	h-8.937c0-63.343,57.241-114.869,127.592-114.869S373.354,146.928,373.354,210.271z"/>
<g>
	<rect x="62.054" y="241.311" style="fill:#D5D6DB;" width="367.462" height="8.934"/>
	<rect x="62.054" y="277.919" style="fill:#D5D6DB;" width="367.462" height="8.94"/>
	<rect x="62.054" y="374.072" style="fill:#D5D6DB;" width="71.731" height="8.934"/>
	<rect x="357.775" y="374.072" style="fill:#D5D6DB;" width="71.731" height="8.934"/>
</g>
<g>
</g>
<g>
</g>
<g>
</g>
<g>
</g>
<g>
</g>
<g>
</g>
<g>
</g>
<g>
</g>
<g>
</g>
<g>
</g>
<g>
</g>
<g>
</g>
<g>
</g>
<g>
</g>
<g>
</g>
</svg>
