<?xml version="1.0" encoding="iso-8859-1"?>
<!-- Generator: Adobe Illustrator 19.0.0, SVG Export Plug-In . SVG Version: 6.00 Build 0)  -->
<svg version="1.1" id="Layer_1" xmlns="http://www.w3.org/2000/svg" xmlns:xlink="http://www.w3.org/1999/xlink" x="0px" y="0px"
	 viewBox="0 0 491.52 491.52" style="enable-background:new 0 0 491.52 491.52;" xml:space="preserve">
<path style="fill:#27A2DB;" d="M411.853,0H123.294C90.109,0,63.209,26.901,63.209,60.084v372.038
	c0.946-31.538,28.461-55.852,60.012-55.852h297.248c4.346,0,7.869,3.523,7.869,7.869V16.484C428.338,7.38,420.957,0,411.853,0z"/>
<rect x="123.29" style="fill:#2D93BA;" width="9.871" height="385.843"/>
<path style="fill:#1C75A1;" d="M120.809,475.778c-24.475,0-44.116-21.105-41.679-46.071c2.124-21.759,21.685-37.699,43.547-37.699
	h297.792c4.346,0,7.869-3.523,7.869-7.869l0,0c0-4.346-3.523-7.869-7.869-7.869H123.221c-31.552,0-59.066,24.314-60.012,55.853
	c-0.979,32.635,25.184,59.396,57.597,59.396h299.664c4.346,0,7.869-3.523,7.869-7.869v-0.005c0-4.345-3.523-7.868-7.869-7.868
	H120.809z"/>
<path style="fill:#EBF0F3;" d="M79.131,429.707c-2.438,24.965,17.203,46.072,41.679,46.072h298.167
	c-12.996-27.924-12.996-55.846,0-83.77H122.677C100.814,392.009,81.254,407.949,79.131,429.707z"/>
<g>
	<path style="fill:#E1E6E9;" d="M104.842,411.117h307.357c0.28-1.107,0.644-2.213,0.966-3.319H104.842V411.117z"/>
	<path style="fill:#E1E6E9;" d="M104.842,423.332h305.011c0.131-1.107,0.41-2.214,0.58-3.32H104.842V423.332z"/>
	<path style="fill:#E1E6E9;" d="M104.842,435.554h304.484c-0.022-1.107-0.022-2.213,0-3.32H104.842V435.554z"/>
	<path style="fill:#E1E6E9;" d="M104.842,447.775h305.591c-0.17-1.107-0.449-2.213-0.58-3.319H104.842V447.775z"/>
	<path style="fill:#E1E6E9;" d="M104.842,459.991h308.324c-0.322-1.107-0.687-2.215-0.966-3.32H104.842V459.991z"/>
</g>
<polygon style="fill:#E56353;" points="292.739,484.302 259.888,465.443 227.035,484.302 227.035,407.797 292.739,407.797 "/>
<g>
</g>
<g>
</g>
<g>
</g>
<g>
</g>
<g>
</g>
<g>
</g>
<g>
</g>
<g>
</g>
<g>
</g>
<g>
</g>
<g>
</g>
<g>
</g>
<g>
</g>
<g>
</g>
<g>
</g>
</svg>
