<?xml version="1.0" encoding="iso-8859-1"?>
<!-- Generator: Adobe Illustrator 19.0.0, SVG Export Plug-In . SVG Version: 6.00 Build 0)  -->
<svg version="1.1" id="Layer_1" xmlns="http://www.w3.org/2000/svg" xmlns:xlink="http://www.w3.org/1999/xlink" x="0px" y="0px"
	 viewBox="0 0 491.52 491.52" style="enable-background:new 0 0 491.52 491.52;" xml:space="preserve">
<path style="fill:#EBF0F3;" d="M98.49,187.559v156.69c0,81.336,65.935,147.27,147.27,147.27c81.334,0,147.27-65.934,147.27-147.27
	v-156.69H98.49z"/>
<path style="fill:#E1E6E9;" d="M98.49,147.269v55.65h140.675V0.333C160.914,3.807,98.49,68.161,98.49,147.269z"/>
<path style="fill:#D5D6DB;" d="M252.353,0.333v202.587H393.03v-55.65C393.03,68.161,330.606,3.807,252.353,0.333z"/>
<path style="fill:#64798A;" d="M252.353,0.333C250.152,0.236,247.986,0,245.76,0c-2.226,0-4.392,0.236-6.595,0.333l0,0v202.587
	h13.188V0.333L252.353,0.333z"/>
<ellipse style="fill:#E1E6E9;" cx="245.76" cy="406.323" rx="39.757" ry="19.456"/>
<ellipse style="fill:#3A556A;" cx="245.76" cy="102.81" rx="27.197" ry="48.302"/>
<g>
</g>
<g>
</g>
<g>
</g>
<g>
</g>
<g>
</g>
<g>
</g>
<g>
</g>
<g>
</g>
<g>
</g>
<g>
</g>
<g>
</g>
<g>
</g>
<g>
</g>
<g>
</g>
<g>
</g>
</svg>
