<?xml version="1.0" encoding="iso-8859-1"?>
<!-- Generator: Adobe Illustrator 19.0.0, SVG Export Plug-In . SVG Version: 6.00 Build 0)  -->
<svg version="1.1" id="Layer_1" xmlns="http://www.w3.org/2000/svg" xmlns:xlink="http://www.w3.org/1999/xlink" x="0px" y="0px"
	 viewBox="0 0 491.52 491.52" style="enable-background:new 0 0 491.52 491.52;" xml:space="preserve">
<path style="fill:#D5D6DB;" d="M245.76,0v73.956c50.998,0,92.34,41.342,92.34,92.34c0,50.998-41.342,92.34-92.34,92.34v232.883
	c0.011-0.015,166.295-233.384,166.295-325.223C412.055,74.453,337.603,0,245.76,0z"/>
<path style="fill:#E1E6E9;" d="M245.76,258.636c-50.998,0-92.341-41.342-92.341-92.34c0-50.997,41.342-92.34,92.341-92.34l0,0V0l0,0
	C153.918,0,79.465,74.453,79.465,166.296S245.76,491.52,245.76,491.52v-0.001V258.636L245.76,258.636z"/>
<g>
</g>
<g>
</g>
<g>
</g>
<g>
</g>
<g>
</g>
<g>
</g>
<g>
</g>
<g>
</g>
<g>
</g>
<g>
</g>
<g>
</g>
<g>
</g>
<g>
</g>
<g>
</g>
<g>
</g>
</svg>
