<?xml version="1.0" encoding="iso-8859-1"?>
<!-- Generator: Adobe Illustrator 19.0.0, SVG Export Plug-In . SVG Version: 6.00 Build 0)  -->
<svg version="1.1" id="Layer_1" xmlns="http://www.w3.org/2000/svg" xmlns:xlink="http://www.w3.org/1999/xlink" x="0px" y="0px"
	 viewBox="0 0 491.521 491.521" style="enable-background:new 0 0 491.521 491.521;" xml:space="preserve">
<rect x="337.798" y="24.835" transform="matrix(-0.7071 0.7071 -0.7071 -0.7071 747.9409 -127.5277)" style="fill:#EBF0F3;" width="125.169" height="132.609"/>
<g>
	
		<rect x="338.748" y="56.52" transform="matrix(-0.7071 0.7071 -0.7071 -0.7071 694.6934 -149.5918)" style="fill:#D5D6DB;" width="79.161" height="25.119"/>
	
		<rect x="382.872" y="100.642" transform="matrix(-0.7071 0.7071 -0.7071 -0.7071 801.2173 -105.4696)" style="fill:#D5D6DB;" width="79.16" height="25.119"/>
</g>
<path style="fill:#64798A;" d="M5.894,346.083c-7.859,7.858-7.859,20.6,0,28.459l111.083,111.083c7.859,7.858,20.601,7.858,28.459,0
	l280.462-280.462L286.356,65.621L5.894,346.083z M107.176,412.331c4.607,4.607,4.607,12.078,0,16.684
	c-4.606,4.607-12.077,4.608-16.685,0l-27.987-27.987c-4.607-4.607-4.607-12.078,0-16.684c4.607-4.607,12.078-4.608,16.685,0
	L107.176,412.331z"/>
<g>
</g>
<g>
</g>
<g>
</g>
<g>
</g>
<g>
</g>
<g>
</g>
<g>
</g>
<g>
</g>
<g>
</g>
<g>
</g>
<g>
</g>
<g>
</g>
<g>
</g>
<g>
</g>
<g>
</g>
</svg>
