<?xml version="1.0" encoding="iso-8859-1"?>
<!-- Generator: Adobe Illustrator 19.0.0, SVG Export Plug-In . SVG Version: 6.00 Build 0)  -->
<svg version="1.1" id="Layer_1" xmlns="http://www.w3.org/2000/svg" xmlns:xlink="http://www.w3.org/1999/xlink" x="0px" y="0px"
	 viewBox="0 0 491.52 491.52" style="enable-background:new 0 0 491.52 491.52;" xml:space="preserve">
<g>
	<rect y="182.221" style="fill:#FCD462;" width="491.52" height="309.299"/>
	<polygon style="fill:#FCD462;" points="245.76,0 0,182.221 0,182.223 63.537,229.332 208.57,336.871 245.76,364.445 
		282.949,336.871 491.52,182.223 491.52,182.221 	"/>
</g>
<rect x="49.587" y="45.911" style="fill:#EBF0F3;" width="392.346" height="345.088"/>
<rect x="159.898" y="91.53" style="fill:#27A2DB;" width="171.704" height="5.965"/>
<g>
	<rect x="75.223" y="126.915" style="fill:#D5D6DB;" width="341.094" height="4.562"/>
	<rect x="75.223" y="160.461" style="fill:#D5D6DB;" width="341.094" height="4.562"/>
	<rect x="75.223" y="194.002" style="fill:#D5D6DB;" width="341.094" height="4.562"/>
	<rect x="75.223" y="227.533" style="fill:#D5D6DB;" width="341.094" height="4.562"/>
	<rect x="75.223" y="261.084" style="fill:#D5D6DB;" width="341.094" height="4.562"/>
	<rect x="75.223" y="294.656" style="fill:#D5D6DB;" width="341.094" height="4.562"/>
	<rect x="75.223" y="328.192" style="fill:#D5D6DB;" width="341.094" height="4.562"/>
</g>
<g>
	<polygon style="fill:#F6C358;" points="0,182.223 0,182.223 0,491.52 199.355,343.704 	"/>
	<polygon style="fill:#F6C358;" points="0,182.223 0,182.223 63.537,229.332 	"/>
	<polygon style="fill:#F6C358;" points="282.949,336.871 491.52,182.223 491.52,182.223 491.52,182.223 	"/>
	<polygon style="fill:#F6C358;" points="292.165,343.704 491.52,491.52 491.52,182.223 	"/>
</g>
<polygon style="fill:#FCD462;" points="245.76,381.293 199.355,343.704 0,491.52 491.52,491.52 292.165,343.704 "/>
<polygon style="fill:#DC8744;" points="245.76,381.293 292.165,343.704 491.52,182.223 491.52,182.223 491.52,182.223 
	282.949,336.871 245.76,364.445 208.57,336.871 63.537,229.332 0,182.223 199.355,343.704 "/>
<g>
</g>
<g>
</g>
<g>
</g>
<g>
</g>
<g>
</g>
<g>
</g>
<g>
</g>
<g>
</g>
<g>
</g>
<g>
</g>
<g>
</g>
<g>
</g>
<g>
</g>
<g>
</g>
<g>
</g>
</svg>
