<?xml version="1.0" encoding="iso-8859-1"?>
<!-- Generator: Adobe Illustrator 19.0.0, SVG Export Plug-In . SVG Version: 6.00 Build 0)  -->
<svg version="1.1" id="Layer_1" xmlns="http://www.w3.org/2000/svg" xmlns:xlink="http://www.w3.org/1999/xlink" x="0px" y="0px"
	 viewBox="0 0 491.52 491.52" style="enable-background:new 0 0 491.52 491.52;" xml:space="preserve">
<path style="fill:#EBF0F3;" d="M299.515,194.622c-2.466-0.87-4.144-3.142-4.144-5.758V22.47h-93.46v166.383
	c0,2.62-1.68,4.898-4.152,5.771c-16.298,5.758-31.318,14.206-44.544,24.806c-2.663,2.133-6.497,1.824-8.666-0.812l-18.397-22.336
	c-1.992-2.42-5.566-2.764-7.983-0.772L92.145,216.94c-2.417,1.99-2.762,5.564-0.773,7.981l24.677,29.964
	c1.643,1.995,1.819,4.769,0.517,7.003c-14.631,25.087-22.342,54.705-20.443,86.254c4.808,79.926,72.746,143.531,152.817,143.378
	c84.253-0.162,152.5-68.51,152.5-152.799C401.44,272.171,358.888,215.583,299.515,194.622z"/>
<g>
	<path style="fill:#E56353;" d="M106.645,315.986c-1.196,7.488-1.869,15.079-1.869,22.735c0,79.321,64.538,143.859,143.869,143.859
		c79.322,0,143.861-64.538,143.861-143.859c0-7.714-0.622-15.306-1.796-22.735H106.645z"/>
	<circle style="fill:#E56353;" cx="197.852" cy="255.457" r="14.766"/>
	<circle style="fill:#E56353;" cx="264.765" cy="182.354" r="6.431"/>
	<circle style="fill:#E56353;" cx="227.635" cy="114.964" r="4.526"/>
	<circle style="fill:#E56353;" cx="258.355" cy="74.01" r="6.252"/>
	<circle style="fill:#E56353;" cx="317.85" cy="290.698" r="9.999"/>
</g>
<g>
	<circle style="fill:#FFFFFF;" cx="159.283" cy="363.085" r="10.568"/>
	<circle style="fill:#FFFFFF;" cx="237.722" cy="337.971" r="5.565"/>
	<circle style="fill:#FFFFFF;" cx="201.728" cy="416.051" r="7.158"/>
	<circle style="fill:#FFFFFF;" cx="341.453" cy="348.017" r="4.495"/>
	<circle style="fill:#FFFFFF;" cx="281.354" cy="404.081" r="4.797"/>
	<circle style="fill:#FFFFFF;" cx="332.406" cy="413.389" r="4.536"/>
</g>
<rect x="194.56" style="fill:#E1E6E9;" width="108.134" height="30.152"/>
<g>
</g>
<g>
</g>
<g>
</g>
<g>
</g>
<g>
</g>
<g>
</g>
<g>
</g>
<g>
</g>
<g>
</g>
<g>
</g>
<g>
</g>
<g>
</g>
<g>
</g>
<g>
</g>
<g>
</g>
</svg>
