<?xml version="1.0" encoding="iso-8859-1"?>
<!-- Generator: Adobe Illustrator 19.0.0, SVG Export Plug-In . SVG Version: 6.00 Build 0)  -->
<svg version="1.1" id="Layer_1" xmlns="http://www.w3.org/2000/svg" xmlns:xlink="http://www.w3.org/1999/xlink" x="0px" y="0px"
	 viewBox="0 0 491.52 491.52" style="enable-background:new 0 0 491.52 491.52;" xml:space="preserve">
<path style="fill:#D5D6DB;" d="M452.302,0H39.217C17.558,0,0,17.558,0,39.217v413.086c0,21.659,17.558,39.217,39.217,39.217h413.085
	c21.659,0,39.218-17.558,39.218-39.217V39.217C491.52,17.558,473.961,0,452.302,0z"/>
<path style="fill:#EBF0F3;" d="M452.302,0H39.217C17.558,0,0,17.558,0,39.217v390.114c0,21.659,17.558,39.217,39.217,39.217h413.085
	c21.659,0,39.218-17.558,39.218-39.217V39.217C491.52,17.558,473.961,0,452.302,0z"/>
<circle style="fill:#64798A;" cx="245.76" cy="234.276" r="50.627"/>
<path style="fill:#3A556A;" d="M245.759,183.649c-0.981,0-1.938,0.091-2.905,0.147c23.392,1.504,41.914,20.9,41.914,44.671
	c0,24.753-20.066,44.818-44.818,44.818c-23.772,0-43.167-18.52-44.672-41.913c-0.055,0.968-0.146,1.925-0.146,2.905
	c0,27.961,22.666,50.627,50.627,50.627s50.627-22.666,50.627-50.627S273.721,183.649,245.759,183.649z"/>
<circle style="fill:#64798A;" cx="85.084" cy="85.089" r="50.627"/>
<path style="fill:#3A556A;" d="M85.084,34.46c-0.98,0-1.938,0.092-2.905,0.147c23.392,1.504,41.914,20.9,41.914,44.671
	c0,24.753-20.066,44.819-44.817,44.819c-23.772,0-43.168-18.522-44.671-41.914c-0.055,0.967-0.147,1.924-0.147,2.905
	c0,27.961,22.668,50.628,50.628,50.628c27.961,0,50.628-22.667,50.628-50.628C135.713,57.127,113.046,34.46,85.084,34.46z"/>
<circle style="fill:#64798A;" cx="406.426" cy="383.468" r="50.627"/>
<path style="fill:#3A556A;" d="M406.434,332.837c-0.981,0-1.938,0.092-2.905,0.147c23.392,1.503,41.914,20.9,41.914,44.671
	c0,24.752-20.066,44.817-44.818,44.817c-23.771,0-43.168-18.52-44.671-41.913c-0.055,0.967-0.147,1.925-0.147,2.905
	c0,27.961,22.667,50.627,50.628,50.627c27.961,0,50.627-22.667,50.627-50.627C457.061,355.504,434.395,332.837,406.434,332.837z"/>
<g>
</g>
<g>
</g>
<g>
</g>
<g>
</g>
<g>
</g>
<g>
</g>
<g>
</g>
<g>
</g>
<g>
</g>
<g>
</g>
<g>
</g>
<g>
</g>
<g>
</g>
<g>
</g>
<g>
</g>
</svg>
