<?xml version="1.0" encoding="iso-8859-1"?>
<!-- Generator: Adobe Illustrator 19.0.0, SVG Export Plug-In . SVG Version: 6.00 Build 0)  -->
<svg version="1.1" id="Layer_1" xmlns="http://www.w3.org/2000/svg" xmlns:xlink="http://www.w3.org/1999/xlink" x="0px" y="0px"
	 viewBox="0 0 491.52 491.52" style="enable-background:new 0 0 491.52 491.52;" xml:space="preserve">
<path style="fill:#E1E6E9;" d="M395.425,259.109c0,27.607-7.625,53.39-20.766,75.509h37.884
	c10.824-22.926,17.014-48.471,17.014-75.509c0-86.243-61.592-158.037-143.175-173.961v36.815
	C351.795,137.399,395.425,188.978,395.425,259.109z"/>
<path style="fill:#D5D6DB;" d="M383.283,259.109c0,28.14-8.991,54.16-24.155,75.509h20.647
	c13.14-22.119,20.766-47.902,20.766-75.509c0-70.131-48.746-128.704-114.159-144.141v17.886
	C342.097,147.927,383.283,198.689,383.283,259.109z"/>
<rect y="445.235" style="fill:#3A556A;" width="491.52" height="46.285"/>
<rect x="104.489" y="324.147" style="fill:#EBF0F3;" width="275.328" height="46.285"/>
<path style="fill:#64798A;" d="M424.428,445.246h-113.88V352.56c0-31.448,25.493-56.94,56.94-56.94l0,0
	c31.447,0,56.94,25.491,56.94,56.94V445.246z"/>
<circle style="fill:#EBF0F3;" cx="367.514" cy="347.295" r="33.055"/>
<circle style="fill:#2F4859;" cx="367.514" cy="347.295" r="20.685"/>
<g>
	<rect x="218.68" style="fill:#EBF0F3;" width="54.159" height="32.763"/>
	<rect x="212.92" y="234.168" style="fill:#EBF0F3;" width="65.674" height="21.007"/>
</g>
<rect x="212.92" y="255.176" style="fill:#2F4859;" width="65.674" height="7.864"/>
<rect x="195.942" y="27.612" style="fill:#3A556A;" width="70.968" height="211.149"/>
<rect x="261.786" y="27.612" style="fill:#2F4859;" width="33.777" height="211.149"/>
<circle style="fill:#EBF0F3;" cx="295.572" cy="111.928" r="33.055"/>
<circle style="fill:#2F4859;" cx="295.572" cy="111.928" r="20.685"/>
<g>
</g>
<g>
</g>
<g>
</g>
<g>
</g>
<g>
</g>
<g>
</g>
<g>
</g>
<g>
</g>
<g>
</g>
<g>
</g>
<g>
</g>
<g>
</g>
<g>
</g>
<g>
</g>
<g>
</g>
</svg>
