<?xml version="1.0" encoding="iso-8859-1"?>
<!-- Generator: Adobe Illustrator 19.0.0, SVG Export Plug-In . SVG Version: 6.00 Build 0)  -->
<svg version="1.1" id="Layer_1" xmlns="http://www.w3.org/2000/svg" xmlns:xlink="http://www.w3.org/1999/xlink" x="0px" y="0px"
	 viewBox="0 0 491.519 491.519" style="enable-background:new 0 0 491.519 491.519;" xml:space="preserve">
<rect x="4.163" y="445.542" style="fill:#DC8744;" width="193.526" height="23.02"/>
<polygon style="fill:#FCD462;" points="4.162,424.724 4.162,450.802 197.688,450.802 197.688,291.962 "/>
<rect x="294.185" y="445.542" style="fill:#DC8744;" width="193.172" height="23.02"/>
<polygon style="fill:#FCD462;" points="487.338,424.724 487.338,450.802 294.168,450.802 294.168,291.962 "/>
<path style="fill:#64798A;" d="M260.948,24.295L260.948,24.295c-4.447-0.002-7.887,2.769-7.33,5.906l-0.206-1.153
	c-0.481-2.719-3.735-4.759-7.588-4.761c-3.855-0.001-7.105,2.035-7.585,4.754l-0.203,1.153c0.553-3.137-2.888-5.912-7.337-5.914l0,0
	c-3.076-0.002-5.829,1.352-6.914,3.396l-2.15,4.054l0,0L235.74,4.958c3.487-6.616,16.657-6.609,20.148,0.011l13.767,26.1
	l-1.791-3.371C266.778,25.653,264.024,24.297,260.948,24.295z"/>
<path style="fill:#D15241;" d="M272.568,417.571l-9.472,73.486c-11.14,0.622-23.474,0.616-34.614-0.017l-17.325-73.485
	C222.695,417.465,261.029,417.471,272.568,417.571z"/>
<path style="fill:#E56353;" d="M263.096,491.057l-0.035-73.486c11.521,0.098,23.049,0.255,34.615,0.541l0.03,64.229
	C297.707,487.09,282.158,489.992,263.096,491.057z"/>
<path style="fill:#DC8744;" d="M230.701,24.281L230.701,24.281c4.448,0.002,7.89,2.777,7.337,5.914l-0.909,5.138l-7.771,44.038
	c-0.155,0.875-0.627,5.468-1.297,6.148c-1.812-5.421-8.65-13.265-16.827-13.268c-5.497-0.003-10.386,1.822-13.554,4.661
	c0.011-0.021,0.01-0.045,0.022-0.066l23.934-45.115l2.15-4.054C224.872,25.633,227.625,24.279,230.701,24.281z"/>
<path style="fill:#F6C358;" d="M263.16,85.148c-2.589-4.48-10.079-12.877-17.312-12.881c-7.235-0.003-14.718,9.148-17.302,13.627
	c-0.238-0.648,0.954-7.329,1.079-8.039l7.504-42.523l0.909-5.138l0.203-1.153c0.48-2.719,3.73-4.755,7.585-4.754
	c3.853,0.002,7.107,2.042,7.588,4.761l0.206,1.153l0,0l0.912,5.139l7.545,42.531C262.201,78.582,263.397,84.5,263.16,85.148z"/>
<path style="fill:#FCD462;" d="M280.462,72.284c-8.179-0.004-15.013,7.816-16.819,13.235c-0.67-0.681-1.143-5.257-1.297-6.132
	l-7.815-44.046l-0.912-5.139l0,0c-0.557-3.137,2.883-5.908,7.33-5.906l0,0c3.076,0.002,5.83,1.357,6.917,3.403l1.791,3.371
	l24.341,45.822c0.012,0.022,0.011,0.045,0.022,0.068C290.848,74.116,285.958,72.286,280.462,72.284z"/>
<path style="fill:#2D93BA;" d="M228.547,84.561c-0.001-1.652,0.464-3.226,1.295-4.664c2.584-4.479,8.772-7.633,16.007-7.63
	c7.233,0.004,13.425,3.165,16.014,7.645c0.832,1.441,1.298,3.014,1.299,4.666l19.488,314.335l-71.491-0.017L228.547,84.561z"/>
<path style="fill:#27A2DB;" d="M263.16,84.578c0-0.981,0.177-1.931,0.482-2.845c1.806-5.418,8.64-9.453,16.819-9.449
	c5.497,0.002,10.386,1.832,13.557,4.675c2.343,2.099,3.754,4.749,3.756,7.636l-0.112,309.315l0.002,5.02l-34.613-0.016
	L263.16,84.578z"/>
<path style="fill:#CE412D;" d="M228.482,491.04c-19.063-1.083-34.615-4-34.618-8.75l-0.031-64.228
	c11.565-0.275,23.093-0.42,34.614-0.508L228.482,491.04z"/>
<path style="fill:#1C75A1;" d="M211.234,72.251c8.177,0.003,15.015,4.044,16.827,9.465c0.306,0.915,0.485,1.865,0.485,2.845
	l-0.109,314.335l-34.613-0.017l-0.002-5.009l0.111-309.326c-0.002-2.887,1.406-5.536,3.747-7.633
	C200.849,74.073,205.737,72.248,211.234,72.251z"/>
<path style="fill:#EBF0F3;" d="M228.447,418.77c-11.522,0.104-23.05,0.276-34.614,0.603l-0.008-22.771l34.613,0.02l34.615,0.02
	l34.613,0.019l0.01,22.771c-11.565-0.34-23.094-0.526-34.615-0.643C251.521,418.671,239.985,418.663,228.447,418.77z"/>
<g>
</g>
<g>
</g>
<g>
</g>
<g>
</g>
<g>
</g>
<g>
</g>
<g>
</g>
<g>
</g>
<g>
</g>
<g>
</g>
<g>
</g>
<g>
</g>
<g>
</g>
<g>
</g>
<g>
</g>
</svg>
