<?xml version="1.0" encoding="iso-8859-1"?>
<!-- Generator: Adobe Illustrator 19.0.0, SVG Export Plug-In . SVG Version: 6.00 Build 0)  -->
<svg version="1.1" id="Layer_1" xmlns="http://www.w3.org/2000/svg" xmlns:xlink="http://www.w3.org/1999/xlink" x="0px" y="0px"
	 viewBox="0 0 491.52 491.52" style="enable-background:new 0 0 491.52 491.52;" xml:space="preserve">
<rect x="163.891" y="394.907" style="fill:#3A556A;" width="163.758" height="53.151"/>
<polygon style="fill:#64798A;" points="327.639,448.054 163.88,448.054 327.639,394.905 "/>
<rect x="128.819" y="448.053" style="fill:#2F4859;" width="233.856" height="24.028"/>
<path style="fill:#EBF0F3;" d="M476.077,19.439H15.445C6.914,19.439,0,26.353,0,34.882V379.46c0,8.529,6.914,15.444,15.445,15.444
	h460.632c8.529,0,15.443-6.915,15.443-15.444V34.882C491.52,26.353,484.606,19.439,476.077,19.439z"/>
<g>
	<rect x="26.813" y="46.235" style="fill:#64798A;" width="437.914" height="279.398"/>
	<circle style="fill:#64798A;" cx="245.76" cy="356.763" r="19.21"/>
</g>
<path style="fill:#EBF0F3;" d="M261.833,79.875c-8.875,0-16.07,7.195-16.07,16.07v196.051h0.231
	c1.121-7.778,7.75-13.774,15.838-13.774h122.59V79.875H261.833z"/>
<path style="fill:#FFFFFF;" d="M229.693,79.875c8.876,0,16.07,7.195,16.07,16.07v196.051h-0.232
	c-1.121-7.778-7.75-13.774-15.838-13.774H107.104V79.875H229.693z"/>
<g>
	<rect x="124.57" y="107.778" style="fill:#EBF0F3;" width="102.19" height="5.386"/>
	<rect x="124.57" y="134.248" style="fill:#EBF0F3;" width="102.19" height="5.386"/>
	<rect x="124.57" y="160.749" style="fill:#EBF0F3;" width="102.19" height="5.386"/>
	<rect x="124.57" y="187.23" style="fill:#EBF0F3;" width="102.19" height="5.386"/>
	<rect x="124.57" y="213.71" style="fill:#EBF0F3;" width="102.19" height="5.386"/>
	<rect x="124.57" y="240.186" style="fill:#EBF0F3;" width="102.19" height="5.386"/>
</g>
<g>
	<rect x="263.987" y="107.778" style="fill:#E1E6E9;" width="102.19" height="5.386"/>
	<rect x="263.987" y="134.248" style="fill:#E1E6E9;" width="102.19" height="5.386"/>
	<rect x="263.987" y="160.749" style="fill:#E1E6E9;" width="102.19" height="5.386"/>
	<rect x="263.987" y="187.23" style="fill:#E1E6E9;" width="102.19" height="5.386"/>
	<rect x="263.987" y="213.71" style="fill:#E1E6E9;" width="102.19" height="5.386"/>
	<rect x="263.987" y="240.186" style="fill:#E1E6E9;" width="102.19" height="5.386"/>
</g>
<g>
</g>
<g>
</g>
<g>
</g>
<g>
</g>
<g>
</g>
<g>
</g>
<g>
</g>
<g>
</g>
<g>
</g>
<g>
</g>
<g>
</g>
<g>
</g>
<g>
</g>
<g>
</g>
<g>
</g>
</svg>
