<?xml version="1.0" encoding="iso-8859-1"?>
<!-- Generator: Adobe Illustrator 19.0.0, SVG Export Plug-In . SVG Version: 6.00 Build 0)  -->
<svg version="1.1" id="Layer_1" xmlns="http://www.w3.org/2000/svg" xmlns:xlink="http://www.w3.org/1999/xlink" x="0px" y="0px"
	 viewBox="0 0 491.52 491.52" style="enable-background:new 0 0 491.52 491.52;" xml:space="preserve">
<g>
	<path style="fill:#3A556A;" d="M42.563,471.552c-3.63,6.449-1.335,14.627,5.123,18.248c2.078,1.169,4.329,1.719,6.554,1.719
		c4.687,0,9.234-2.461,11.695-6.842l41.37-73.645H76.56L42.563,471.552z"/>
	<path style="fill:#3A556A;" d="M425.585,484.677c2.461,4.381,7.007,6.842,11.694,6.842c2.226,0,4.477-0.55,6.554-1.719
		c6.458-3.622,8.753-11.8,5.123-18.248l-34.001-60.52H384.21L425.585,484.677z"/>
</g>
<g>
	<path style="fill:#64798A;" d="M202.817,57.244c3.054-2.095,3.823-6.275,1.728-9.321c-2.094-3.046-6.257-3.805-9.32-1.728
		l-46.759,32.146h23.661L202.817,57.244z"/>
	<path style="fill:#64798A;" d="M71.237,2.681c-2.217-2.95-6.415-3.57-9.382-1.336c-2.959,2.226-3.561,6.424-1.336,9.382
		l50.812,67.614h16.774L71.237,2.681z"/>
</g>
<path style="fill:#EBF0F3;" d="M466.428,383.308c5.772,0,10.45-4.678,10.45-10.449V88.791c0-5.772-4.679-10.449-10.45-10.449
	H172.126h-23.661h-20.36h-16.774H25.094c-5.771,0-10.449,4.678-10.449,10.449v284.068c0,5.771,4.679,10.449,10.449,10.449H466.428z
	 M416.783,185.691c14.8,0,26.799,11.998,26.799,26.798c0,14.799-11.998,26.798-26.799,26.798c-14.799,0-26.796-11.998-26.796-26.798
	C389.987,197.689,401.984,185.691,416.783,185.691z M416.783,273.956c14.8,0,26.799,11.998,26.799,26.796
	c0,14.8-11.998,26.797-26.799,26.797c-14.799,0-26.796-11.997-26.796-26.797C389.987,285.953,401.984,273.956,416.783,273.956z
	 M41.45,105.156h157.573h157.571v251.345H41.45V105.156z"/>
<polygon style="fill:#64798A;" points="356.595,105.156 199.023,105.156 356.595,356.501 "/>
<polygon style="fill:#3A556A;" points="199.023,105.156 41.45,105.156 41.45,356.501 356.595,356.501 "/>
<g>
	<path style="fill:#64798A;" d="M487.366,383.308h-20.938H25.094H4.156c-2.296,0-4.156,1.86-4.156,4.156v19.413
		c0,2.295,1.861,4.154,4.156,4.154H76.56h30.745H384.21h30.746h72.41c2.296,0,4.154-1.859,4.154-4.154v-19.413
		C491.52,385.168,489.661,383.308,487.366,383.308z"/>
	<circle style="fill:#64798A;" cx="416.768" cy="212.49" r="26.798"/>
	<circle style="fill:#64798A;" cx="416.768" cy="300.754" r="26.798"/>
</g>
<path style="fill:#EBF0F3;" d="M210.013,140.151c-7.751,0-14.034,6.284-14.034,14.034v171.222h0.202
	c0.979-6.792,6.768-12.029,13.832-12.029h97.427V140.151H210.013z"/>
<path style="fill:#FFFFFF;" d="M181.943,140.151c7.751,0,14.035,6.284,14.035,14.034v171.222h-0.202
	c-0.98-6.792-6.769-12.029-13.833-12.029H84.516V140.151H181.943z"/>
<g>
	<rect x="95.626" y="164.557" style="fill:#EBF0F3;" width="89.247" height="4.705"/>
	<rect x="95.626" y="187.663" style="fill:#EBF0F3;" width="89.247" height="4.705"/>
	<rect x="95.626" y="210.79" style="fill:#EBF0F3;" width="89.247" height="4.705"/>
	<rect x="95.626" y="233.912" style="fill:#EBF0F3;" width="89.247" height="4.705"/>
	<rect x="95.626" y="257.024" style="fill:#EBF0F3;" width="89.247" height="4.705"/>
	<rect x="95.626" y="280.161" style="fill:#EBF0F3;" width="89.247" height="4.705"/>
</g>
<g>
	<rect x="207.104" y="164.557" style="fill:#D5D6DB;" width="89.247" height="4.705"/>
	<rect x="207.104" y="187.663" style="fill:#D5D6DB;" width="89.247" height="4.705"/>
	<rect x="207.104" y="210.79" style="fill:#D5D6DB;" width="89.247" height="4.705"/>
	<rect x="207.104" y="233.912" style="fill:#D5D6DB;" width="89.247" height="4.705"/>
	<rect x="207.104" y="257.024" style="fill:#D5D6DB;" width="89.247" height="4.705"/>
	<rect x="207.104" y="280.161" style="fill:#D5D6DB;" width="89.247" height="4.705"/>
</g>
<g>
</g>
<g>
</g>
<g>
</g>
<g>
</g>
<g>
</g>
<g>
</g>
<g>
</g>
<g>
</g>
<g>
</g>
<g>
</g>
<g>
</g>
<g>
</g>
<g>
</g>
<g>
</g>
<g>
</g>
</svg>
