<?xml version="1.0" encoding="iso-8859-1"?>
<!-- Generator: Adobe Illustrator 19.0.0, SVG Export Plug-In . SVG Version: 6.00 Build 0)  -->
<svg version="1.1" id="Layer_1" xmlns="http://www.w3.org/2000/svg" xmlns:xlink="http://www.w3.org/1999/xlink" x="0px" y="0px"
	 viewBox="0 0 491.52 491.52" style="enable-background:new 0 0 491.52 491.52;" xml:space="preserve">
<path style="fill:#2F4859;" d="M474.241,50.386H17.279C7.735,50.386,0,58.121,0,67.665v356.191c0,9.543,7.735,17.278,17.279,17.278
	h456.962c9.543,0,17.279-7.735,17.279-17.278V67.665C491.52,58.121,483.784,50.386,474.241,50.386z"/>
<rect x="35.743" y="86.134" style="fill:#44C4A1;" width="420.045" height="319.232"/>
<g>
	<path style="fill:#FFFFFF;" d="M112.729,247.553v-13.727h12.008v13.727h9.016v11.477h-9.016v18.877h-12.008V259.03H80.56v-11.154
		l27.56-44.936h13.833L94.82,247.553H112.729z"/>
	<path style="fill:#FFFFFF;" d="M185.113,220.857l12.227,18.764l12.655-18.764h14.26l-19.951,27.875l20.807,29.176h-14.802
		l-13.614-18.982l-13.301,18.982h-14.051l20.274-29.062l-19.201-27.988H185.113z"/>
	<path style="fill:#FFFFFF;" d="M308.655,202.835v11.477H277.02v18.449c3.141-1.72,6.719-2.575,10.725-2.575
		c7.008,0,13.048,2.104,18.118,6.328c5.079,4.216,7.619,9.933,7.619,17.159c0,7.217-2.644,13.203-7.933,17.96
		c-5.296,4.756-11.799,7.131-19.522,7.131c-10.081,0-18.119-3.36-24.131-10.081l6.764-9.224c0.568,0.577,1.335,1.256,2.304,2.042
		c0.959,0.786,2.95,1.842,5.951,3.159c3.003,1.327,6.285,1.991,9.862,1.991c3.578,0,6.825-1.074,9.757-3.22
		c2.933-2.147,4.398-5.272,4.398-9.383c0-4.11-1.553-7.296-4.66-9.547c-3.116-2.252-7.043-3.377-11.8-3.377
		c-4.756,0-9.277,1.177-13.561,3.534l-5.368-5.787v-36.035H308.655z"/>
	<path style="fill:#FFFFFF;" d="M354.439,221.284h54.048v10.081h-54.048V221.284z M354.439,241.445h54.048v10.079h-54.048V241.445z"
		/>
</g>
<g>
</g>
<g>
</g>
<g>
</g>
<g>
</g>
<g>
</g>
<g>
</g>
<g>
</g>
<g>
</g>
<g>
</g>
<g>
</g>
<g>
</g>
<g>
</g>
<g>
</g>
<g>
</g>
<g>
</g>
</svg>
