<?xml version="1.0" encoding="iso-8859-1"?>
<!-- Generator: Adobe Illustrator 19.0.0, SVG Export Plug-In . SVG Version: 6.00 Build 0)  -->
<svg version="1.1" id="Layer_1" xmlns="http://www.w3.org/2000/svg" xmlns:xlink="http://www.w3.org/1999/xlink" x="0px" y="0px"
	 viewBox="0 0 491.52 491.52" style="enable-background:new 0 0 491.52 491.52;" xml:space="preserve">
<path style="fill:#64798A;" d="M448.529,0c-23.703,0-42.99,19.251-42.99,42.91h17.874c0-13.824,11.267-25.069,25.117-25.069
	c13.851,0,25.117,11.245,25.117,25.069v278.137c-19.752-30.338-53.946-50.488-92.814-50.488c-42.842,0-80.001,24.47-98.389,60.101
	c-10.595-7.66-23.45-11.948-36.683-11.948c-13.414,0-26.094,4.214-36.687,11.939c-18.393-35.625-55.547-60.092-98.385-60.092
	c-38.871,0-73.062,20.15-92.814,50.488V42.91c0-13.824,11.267-25.069,25.117-25.069S68.108,29.086,68.108,42.91h17.873
	C85.981,19.251,66.694,0,42.99,0S0,19.251,0,42.91v338.129C0,441.955,49.657,491.52,110.687,491.52
	c61.03,0,110.689-49.565,110.689-110.481c0-11.528-1.793-22.644-5.09-33.099c8.155-7.254,18.419-11.387,29.474-11.387
	c11.083,0,21.32,4.146,29.465,11.404c-3.292,10.452-5.081,21.56-5.081,33.082c0,60.916,49.657,110.481,110.688,110.481
	c61.03,0,110.688-49.565,110.688-110.481V42.91C491.52,19.251,472.232,0,448.529,0z M110.687,473.679
	c-51.176,0-92.814-41.559-92.814-92.641c0-51.08,41.638-92.641,92.814-92.641c51.177,0,92.815,41.56,92.815,92.641
	C203.502,432.121,161.864,473.679,110.687,473.679z M380.832,473.679c-51.176,0-92.815-41.559-92.815-92.641
	c0-51.08,41.639-92.641,92.815-92.641s92.814,41.56,92.814,92.641C473.646,432.121,432.008,473.679,380.832,473.679z"/>
<ellipse style="fill:#EBF0F3;" cx="110.689" cy="381.03" rx="92.826" ry="92.621"/>
<path style="fill:#E1E6E9;" d="M35.037,406.965c0-56.02,45.501-101.435,101.625-101.435c12.686,0,24.777,2.424,35.977,6.665
	c-16.438-14.749-38.11-23.797-61.952-23.797c-51.259,0-92.814,41.477-92.814,92.641c0,23.799,9.065,45.428,23.84,61.836
	C37.468,431.697,35.037,419.627,35.037,406.965z"/>
<ellipse style="fill:#EBF0F3;" cx="380.826" cy="381.03" rx="92.826" ry="92.621"/>
<path style="fill:#E1E6E9;" d="M305.182,406.965c0-56.02,45.5-101.435,101.624-101.435c12.686,0,24.777,2.424,35.977,6.665
	c-16.438-14.749-38.11-23.797-61.951-23.797c-51.26,0-92.815,41.477-92.815,92.641c0,23.799,9.065,45.428,23.841,61.836
	C307.612,431.697,305.182,419.627,305.182,406.965z"/>
<g>
</g>
<g>
</g>
<g>
</g>
<g>
</g>
<g>
</g>
<g>
</g>
<g>
</g>
<g>
</g>
<g>
</g>
<g>
</g>
<g>
</g>
<g>
</g>
<g>
</g>
<g>
</g>
<g>
</g>
</svg>
