<?xml version="1.0" encoding="iso-8859-1"?>
<!-- Generator: Adobe Illustrator 19.0.0, SVG Export Plug-In . SVG Version: 6.00 Build 0)  -->
<svg version="1.1" id="Layer_1" xmlns="http://www.w3.org/2000/svg" xmlns:xlink="http://www.w3.org/1999/xlink" x="0px" y="0px"
	 viewBox="0 0 491.52 491.52" style="enable-background:new 0 0 491.52 491.52;" xml:space="preserve">
<path style="fill:#3A556A;" d="M468.414,17.874H23.106C10.344,17.874,0,28.219,0,40.98v427.434
	c0,12.761,10.344,23.106,23.106,23.106h445.308c12.761,0,23.106-10.345,23.106-23.106V40.98
	C491.52,28.219,481.175,17.874,468.414,17.874z"/>
<path style="fill:#64798A;" d="M468.414,0H23.106C10.344,0,0,10.345,0,23.106V450.54c0,12.761,10.344,23.106,23.106,23.106h445.308
	c12.761,0,23.106-10.345,23.106-23.106V23.106C491.52,10.345,481.175,0,468.414,0z"/>
<path style="fill:#3A556A;" d="M35.748,236.822v185.043c0,8.856,7.178,16.034,16.033,16.034H439.74
	c8.854,0,16.034-7.179,16.034-16.034V236.822H35.748z"/>
<rect x="35.748" y="236.8" style="fill:#E1E6E9;" width="420.045" height="17.874"/>
<path style="fill:#EBF0F3;" d="M35.748,254.696v149.295c0,8.857,7.178,16.034,16.033,16.034H439.74
	c8.854,0,16.034-7.178,16.034-16.034V254.696H35.748z"/>
<path style="fill:#FFFFFF;" d="M455.774,51.78c0-8.855-7.18-16.034-16.034-16.034H51.781c-8.855,0-16.033,7.179-16.033,16.034
	v185.042h420.026V51.78z"/>
<g>
	<path style="fill:#64798A;" d="M61.988,203.806c-4.32,0-7.819,3.501-7.819,7.82v50.396c0,4.318,3.499,7.819,7.819,7.819
		c4.318,0,7.82-3.501,7.82-7.819v-50.396C69.808,207.306,66.307,203.806,61.988,203.806z"/>
	<path style="fill:#64798A;" d="M429.532,203.806c-4.32,0-7.82,3.501-7.82,7.82v50.396c0,4.318,3.5,7.819,7.82,7.819
		c4.317,0,7.819-3.501,7.819-7.819v-50.396C437.351,207.306,433.849,203.806,429.532,203.806z"/>
</g>
<g>
	<polygon style="fill:#E56353;" points="191.538,124.939 120.35,124.939 120.35,154.368 160.146,154.368 160.146,236.822 
		191.538,236.822 	"/>
	<rect x="160.154" y="254.694" style="fill:#E56353;" width="31.391" height="66.135"/>
</g>
<rect x="160.154" y="236.8" style="fill:#D15241;" width="31.391" height="17.874"/>
<g>
	<polygon style="fill:#E56353;" points="337.537,124.939 301.389,124.939 232.762,236.822 269.491,236.822 	"/>
	<polygon style="fill:#E56353;" points="229.362,254.696 229.362,271.505 313.441,271.505 313.441,320.831 344.824,320.831 
		344.824,271.505 368.361,271.505 368.361,254.696 	"/>
</g>
<polygon style="fill:#D15241;" points="368.361,241.518 344.824,241.518 344.824,236.822 313.441,236.822 313.441,241.518 
	266.636,241.518 269.491,236.822 232.762,236.822 229.362,242.365 229.362,254.696 368.361,254.696 "/>
<rect x="313.446" y="205.67" style="fill:#E56353;" width="31.38" height="31.171"/>
<g>
</g>
<g>
</g>
<g>
</g>
<g>
</g>
<g>
</g>
<g>
</g>
<g>
</g>
<g>
</g>
<g>
</g>
<g>
</g>
<g>
</g>
<g>
</g>
<g>
</g>
<g>
</g>
<g>
</g>
</svg>
