<?xml version="1.0" encoding="iso-8859-1"?>
<!-- Generator: Adobe Illustrator 19.0.0, SVG Export Plug-In . SVG Version: 6.00 Build 0)  -->
<svg version="1.1" id="Layer_1" xmlns="http://www.w3.org/2000/svg" xmlns:xlink="http://www.w3.org/1999/xlink" x="0px" y="0px"
	 viewBox="0 0 491.52 491.52" style="enable-background:new 0 0 491.52 491.52;" xml:space="preserve">
<g>
	<path style="fill:#3A556A;" d="M267.842,22.082C267.842,9.886,257.955,0,245.759,0c-12.196,0-22.082,9.886-22.082,22.082
		c0,8.652,5.024,16.064,12.27,19.687v28.001h19.625V41.769C262.818,38.147,267.842,30.735,267.842,22.082z"/>
	<path style="fill:#3A556A;" d="M463.362,27.285c-3.495-3.496-9.162-3.495-12.658,0.001l-79.073,79.073l12.657,12.658l79.073-79.074
		C466.858,36.448,466.858,30.78,463.362,27.285z"/>
	<path style="fill:#3A556A;" d="M28.158,29.524c3.495-3.495,9.161-3.494,12.657,0.001l79.073,79.073l-12.658,12.658L28.158,42.183
		C24.662,38.687,24.662,33.019,28.158,29.524z"/>
	<polygon style="fill:#3A556A;" points="173.266,394.99 131.505,394.99 89.306,491.52 114.625,491.52 	"/>
	<polygon style="fill:#3A556A;" points="318.254,394.99 360.015,394.99 402.213,491.52 376.895,491.52 	"/>
</g>
<path style="fill:#D15241;" d="M452.555,40.079c-29.251-29.253-75.612-30.97-106.873-5.153c-3.18,2.627-3.35,7.469-0.435,10.386
	l102.076,102.076c2.916,2.916,7.759,2.746,10.385-0.434C483.525,115.692,481.807,69.331,452.555,40.079z"/>
<path style="fill:#E56353;" d="M452.555,49.176c-28.564-28.564-74.877-28.564-103.442,0l98.195,98.195
	c2.916,2.918,7.776,2.763,10.376-0.439C481.003,118.205,479.294,75.916,452.555,49.176z"/>
<path style="fill:#D15241;" d="M38.965,40.079c29.252-29.253,75.611-30.97,106.873-5.153c3.18,2.627,3.35,7.469,0.434,10.386
	L44.196,147.387c-2.915,2.916-7.758,2.746-10.384-0.434C7.995,115.692,9.712,69.331,38.965,40.079z"/>
<path style="fill:#E56353;" d="M38.965,49.176c28.564-28.564,74.877-28.564,103.441,0l-98.195,98.195
	c-2.916,2.918-7.776,2.763-10.376-0.439C10.517,118.205,12.227,75.916,38.965,49.176z"/>
<circle style="fill:#64798A;" cx="245.76" cy="265.938" r="207.35"/>
<circle style="fill:#FFFFFF;" cx="245.76" cy="265.938" r="164.403"/>
<path style="fill:#EBF0F3;" d="M245.76,111.466c90.601,0,164.052,73.413,164.122,163.999c0.181-3.155,0.297-6.328,0.297-9.529
	c0-90.804-73.612-164.417-164.418-164.417c-90.805,0-164.417,73.613-164.417,164.417c0,3.2,0.115,6.374,0.296,9.529
	C81.707,184.879,155.158,111.466,245.76,111.466z"/>
<path style="fill:#E56353;" d="M331.389,353.451c-0.954,0-1.907-0.365-2.636-1.092L220.2,243.805c-1.457-1.457-1.457-3.816,0-5.272
	c1.455-1.456,3.814-1.456,5.27,0l108.554,108.554c1.456,1.455,1.456,3.815,0,5.271C333.296,353.086,332.344,353.451,331.389,353.451
	z"/>
<path style="fill:#64798A;" d="M251.767,249.849v-87.954c0-3.087-2.505-5.591-5.591-5.591c-3.087,0-5.592,2.504-5.592,5.591v87.954
	c-4.206,1.48-7.632,4.541-9.586,8.5h-67.139c-4.12,0-7.454,3.335-7.454,7.455c0,4.121,3.335,7.455,7.454,7.455h67.139
	c2.772,5.617,8.503,9.523,15.178,9.523c9.361,0,16.977-7.615,16.977-16.978C263.153,258.41,258.375,252.173,251.767,249.849z"/>
<circle style="fill:#FFFFFF;" cx="246.17" cy="265.805" r="9.523"/>
<g>
</g>
<g>
</g>
<g>
</g>
<g>
</g>
<g>
</g>
<g>
</g>
<g>
</g>
<g>
</g>
<g>
</g>
<g>
</g>
<g>
</g>
<g>
</g>
<g>
</g>
<g>
</g>
<g>
</g>
</svg>
