<?xml version="1.0" encoding="iso-8859-1"?>
<!-- Generator: Adobe Illustrator 19.0.0, SVG Export Plug-In . SVG Version: 6.00 Build 0)  -->
<svg version="1.1" id="Layer_1" xmlns="http://www.w3.org/2000/svg" xmlns:xlink="http://www.w3.org/1999/xlink" x="0px" y="0px"
	 viewBox="0 0 491.521 491.521" style="enable-background:new 0 0 491.521 491.521;" xml:space="preserve">
<rect x="256.051" y="407.093" style="fill:#3A556A;" width="117.699" height="38.2"/>
<polygon style="fill:#64798A;" points="373.736,445.316 256.039,445.316 373.736,407.117 "/>
<rect x="230.861" y="445.314" style="fill:#2F4859;" width="168.074" height="17.27"/>
<path style="fill:#EBF0F3;" d="M480.421,137.262H149.357c-6.132,0-11.101,4.97-11.101,11.1v247.655c0,6.13,4.97,11.1,11.101,11.1
	h331.064c6.13,0,11.1-4.97,11.1-11.1V148.362C491.521,142.232,486.551,137.262,480.421,137.262z"/>
<rect x="157.527" y="156.526" style="fill:#27A2DB;" width="314.726" height="200.806"/>
<g>
	<circle style="fill:#64798A;" cx="314.88" cy="379.701" r="13.809"/>
	<path style="fill:#64798A;" d="M141.579,88.96c-50.047,27.137-71.111,86.9-51.123,138.628c3.048,7.89,10.957,12.786,19.381,12.031
		c36.678-3.289,70.951-8.406,99.602-17.789c2.121-0.694,4.093-1.773,5.829-3.173c24.151-19.5,47.444-44.675,70.097-74.078
		c5.125-6.652,5.295-15.86,0.392-22.68C253.34,76.809,191.681,61.792,141.579,88.96z"/>
</g>
<path style="fill:#2F4859;" d="M309.043,32.719L133.277,71.535c-0.663,0.146-1.27,0.475-1.755,0.951L3.098,198.612
	c-2.591,2.545-0.233,6.895,3.315,6.112l175.766-38.817c0.662-0.147,1.27-0.475,1.754-0.951L312.357,38.831
	C314.948,36.285,312.59,31.935,309.043,32.719z"/>
<path style="fill:#3A556A;" d="M307.043,29.029L131.276,67.847c-0.662,0.146-1.27,0.475-1.754,0.951L1.098,194.924
	c-2.592,2.545-0.233,6.896,3.315,6.112l175.765-38.816c0.664-0.147,1.271-0.476,1.755-0.951L310.357,35.143
	C312.948,32.596,310.59,28.247,307.043,29.029z"/>
<path style="fill:#FCD462;" d="M136.364,243.867c-3.121,1.693-7.016,0.536-8.708-2.584l-31.791-58.631
	c-1.262-2.327-0.969-5.196,0.748-7.212l53.091-62.602c2.279-2.706,6.349-3.043,9.049-0.747c2.706,2.293,3.043,6.349,0.75,9.055
	l-50.249,59.249l29.695,54.765C140.641,238.28,139.484,242.175,136.364,243.867z"/>
<ellipse transform="matrix(-0.4767 -0.8791 0.8791 -0.4767 128.8445 306.7623)" style="fill:#2F4859;" cx="155.731" cy="115.03" rx="10.706" ry="16.553"/>
<polygon style="fill:#FCD462;" points="186.269,286.338 144.726,308.863 121.429,237.613 139.267,227.941 "/>
<ellipse style="fill:#F6C358;" cx="128.544" cy="229.434" rx="16.819" ry="16.819"/>
<g>
</g>
<g>
</g>
<g>
</g>
<g>
</g>
<g>
</g>
<g>
</g>
<g>
</g>
<g>
</g>
<g>
</g>
<g>
</g>
<g>
</g>
<g>
</g>
<g>
</g>
<g>
</g>
<g>
</g>
</svg>
