<?xml version="1.0" encoding="iso-8859-1"?>
<!-- Generator: Adobe Illustrator 19.0.0, SVG Export Plug-In . SVG Version: 6.00 Build 0)  -->
<svg version="1.1" id="Layer_1" xmlns="http://www.w3.org/2000/svg" xmlns:xlink="http://www.w3.org/1999/xlink" x="0px" y="0px"
	 viewBox="0 0 491.52 491.52" style="enable-background:new 0 0 491.52 491.52;" xml:space="preserve">
<path style="fill:#E56353;" d="M457.651,0H301.569c-18.708,0-33.871,15.164-33.871,33.87v156.082
	c0,18.706,15.163,33.87,33.871,33.87h156.082c18.705,0,33.869-15.164,33.869-33.87V33.87C491.52,15.164,476.356,0,457.651,0z"/>
<path style="fill:#FCD462;" d="M189.951,0H33.868C15.163,0,0,15.164,0,33.87v156.082c0,18.706,15.163,33.87,33.868,33.87h156.083
	c18.707,0,33.871-15.164,33.871-33.87V33.87C223.822,15.164,208.658,0,189.951,0z"/>
<path style="fill:#EBF0F3;" d="M457.651,267.698H301.569c-18.708,0-33.871,15.164-33.871,33.87V457.65
	c0,18.705,15.163,33.87,33.871,33.87h156.082c18.705,0,33.869-15.164,33.869-33.87V301.567
	C491.52,282.862,476.356,267.698,457.651,267.698z"/>
<path style="fill:#27A2DB;" d="M189.951,267.698H33.868C15.163,267.698,0,282.862,0,301.567V457.65
	c0,18.705,15.163,33.87,33.868,33.87h156.083c18.707,0,33.871-15.164,33.871-33.87V301.567
	C223.822,282.862,208.658,267.698,189.951,267.698z"/>
<g>
	<polygon style="fill:#2F4859;" points="98.505,175.201 125.315,175.201 125.315,125.316 175.2,125.316 175.2,98.506 
		125.315,98.506 125.315,48.621 98.505,48.621 98.505,98.506 48.619,98.506 48.619,125.316 98.505,125.316 	"/>
	<rect x="316.319" y="98.504" style="fill:#2F4859;" width="126.582" height="26.808"/>
	<rect x="48.62" y="398.234" style="fill:#2F4859;" width="126.582" height="26.808"/>
	<rect x="48.62" y="334.182" style="fill:#2F4859;" width="126.582" height="26.808"/>
	<polygon style="fill:#2F4859;" points="414.886,325.38 379.609,360.654 344.334,325.38 325.379,344.336 360.652,379.609 
		325.379,414.882 344.334,433.838 379.609,398.564 414.886,433.838 433.842,414.882 398.565,379.609 433.842,344.336 	"/>
</g>
<g>
</g>
<g>
</g>
<g>
</g>
<g>
</g>
<g>
</g>
<g>
</g>
<g>
</g>
<g>
</g>
<g>
</g>
<g>
</g>
<g>
</g>
<g>
</g>
<g>
</g>
<g>
</g>
<g>
</g>
</svg>
