<?xml version="1.0" encoding="utf-8"?>
<!-- Generator: Adobe Illustrator 19.0.0, SVG Export Plug-In . SVG Version: 6.00 Build 0)  -->
<svg version="1.1" id="Capa_1" xmlns="http://www.w3.org/2000/svg" xmlns:xlink="http://www.w3.org/1999/xlink" x="0px" y="0px"
	 viewBox="-49 141 512 512" style="enable-background:new -49 141 512 512;" xml:space="preserve">
<style type="text/css">
	.st0{fill:#F36A86;}
	.st1{fill:#FFFFFF;}
	.st2{fill:url(#SVGID_1_);}
</style>
<g>
	<polygon class="st0" points="210.5,210.2 185.4,185.5 165.7,214.8 135.5,196.9 123.4,230.1 89.7,220 85.9,255.2 50.8,253.5 
		55.4,288.6 21,295.4 33.8,328.3 1.9,343.3 22.2,372.2 -5.2,394.3 21.3,417.5 0.1,445.6 31.3,461.8 17.3,494.2 51.5,502.3 
		45.6,537.2 80.7,536.8 83.3,572.1 117.3,563.3 128.1,596.9 159,580.1 177.6,610.1 203.6,586.4 228.7,611.1 248.4,581.8 
		278.7,599.7 290.8,566.5 324.4,576.6 328.3,541.4 363.3,543.1 358.7,508 393.2,501.2 380.4,468.3 412.2,453.3 392,424.4 
		419.3,402.3 392.8,379.1 407.9,359.1 229,193.3 	"/>
	<g id="XMLID_1054_">
		<g id="XMLID_1063_">
			<path id="XMLID_1086_" class="st1" d="M97.5,395.3c0.9,2.2,2.1,4,3.5,5.6c0.6,0.7,1.2,1.3,1.9,1.9c0.7,0.6,1.5,1.1,2.4,1.5
				c0.9,0.4,1.8,0.7,2.8,0.8c1,0.1,2.1,0.1,3.3-0.2c2.1-0.4,3.8-1.2,5.1-2.2c1.3-1,2.3-2.3,3-3.9c0.7-1.6,1-3.4,1-5.4
				c0-2-0.2-4.3-0.7-6.7c-0.4-1.9-1-3.7-1.9-5.5s-1.9-3.4-3.1-4.7c-1.2-1.3-2.7-2.3-4.2-2.9c-1.6-0.7-3.3-0.8-5.3-0.4
				c-2.2,0.5-4.2,1.6-5.9,3.3s-3.1,3.6-4.3,5.8l-14.3-2.7L74.4,329l46.3-9.9l1.7,15.2l-29.5,6.3l2.6,22.6c1-0.7,2.1-1.4,3.4-2
				c1-0.6,2.3-1.1,3.7-1.7c1.4-0.6,3-1.1,4.6-1.4l0.1,0c3.5-0.8,6.9-0.7,10.3,0.3c3.3,0.9,6.4,2.6,9.1,4.8c2.7,2.3,5.1,5.1,7.1,8.4
				c2,3.3,3.4,7,4.2,11c1,4.7,1.2,9.2,0.6,13.4c-0.6,4.3-1.8,8.1-3.7,11.5c-1.9,3.4-4.4,6.3-7.5,8.6c-3.1,2.3-6.7,4-10.8,4.8
				c-3.2,0.7-6.3,0.8-9.4,0.4c-3.1-0.4-6.1-1.3-9-2.7c-2.8-1.4-5.5-3.4-7.8-5.9c-2.4-2.5-4.3-5.5-5.9-9.1L97.5,395.3z"/>
			<path id="XMLID_1083_" class="st1" d="M184.1,406.5c-4.1,0.9-7.9,0.9-11.2,0.1c-3.3-0.8-6.3-2.2-9-4.2c-2.7-2-5-4.5-7-7.5
				c-2-3-3.8-6.3-5.4-9.9s-2.9-7.3-4-11.2c-1.1-3.9-2.1-7.7-2.9-11.4c-0.7-3.4-1.3-7-1.8-10.7c-0.5-3.7-0.7-7.4-0.6-11.1
				c0-3.7,0.4-7.2,1.1-10.6c0.7-3.4,1.9-6.5,3.5-9.3c1.6-2.8,3.8-5.2,6.5-7.2c2.7-2,6.1-3.4,10.2-4.3c4.1-0.9,7.7-0.9,11.1-0.2
				c3.3,0.7,6.3,2,8.9,3.9c2.6,1.9,5,4.2,7,7.1c2,2.8,3.8,5.9,5.4,9.2c1.5,3.3,2.8,6.8,3.9,10.3c1.1,3.6,2,7.1,2.7,10.5
				c0.8,3.8,1.4,7.6,1.9,11.7c0.5,4,0.8,8,0.8,11.9c0,3.9-0.3,7.6-1,11.2c-0.7,3.6-1.8,6.9-3.5,9.8c-1.6,2.9-3.8,5.4-6.5,7.5
				C191.6,404.2,188.2,405.7,184.1,406.5z M180.7,390.8c1.1-0.2,2.2-0.6,3.1-1.2c0.9-0.5,1.7-1.4,2.4-2.5c0.7-1.1,1.2-2.5,1.5-4.3
				c0.3-1.7,0.4-4,0.4-6.6c-0.1-2.7-0.4-5.8-0.9-9.5c-0.5-3.7-1.3-8-2.3-12.9c-1-4.7-2-9-3-12.9c-1-3.9-2.2-7.2-3.6-9.9
				c-1.4-2.7-3-4.7-4.9-6c-1.9-1.3-4.1-1.6-6.8-1.1c-2.7,0.6-4.6,1.8-5.8,3.8c-1.2,1.9-1.8,4.4-1.9,7.4c-0.1,3,0.2,6.5,0.9,10.5
				c0.7,4,1.5,8.3,2.5,13c1,4.9,2.1,9.2,3.1,12.8c1,3.6,2,6.6,3,9.1c1,2.5,2,4.4,3,5.9c1,1.5,2,2.6,3,3.3c1,0.7,2.1,1.2,3.1,1.3
				C178.4,391.1,179.6,391,180.7,390.8z"/>
			<path id="XMLID_1077_" class="st1" d="M236.1,346.3c-4,0.9-7.7,1-10.9,0.4c-3.3-0.6-6.1-1.8-8.6-3.6c-2.5-1.8-4.5-4.1-6.2-6.9
				c-1.6-2.8-2.9-6.1-3.6-9.8c-0.8-3.6-1-7-0.6-10.2c0.4-3.2,1.3-6.2,2.9-8.8c1.5-2.6,3.7-4.9,6.4-6.8c2.7-1.9,6.1-3.3,10.1-4.1
				c3.9-0.8,7.5-1,10.8-0.4c3.2,0.6,6.1,1.8,8.6,3.6c2.5,1.8,4.6,4.1,6.3,6.8c1.7,2.8,2.9,6,3.7,9.6c0.8,3.7,1,7.1,0.6,10.4
				c-0.4,3.3-1.4,6.2-2.9,8.9c-1.6,2.6-3.7,4.9-6.4,6.8C243.4,344.1,240,345.5,236.1,346.3z M233.4,334.3c1.5-0.3,2.7-1,3.7-1.9
				c1-1,1.7-2.2,2.2-3.6c0.5-1.4,0.7-2.9,0.8-4.6c0-1.6-0.1-3.3-0.5-4.9c-0.3-1.6-0.9-3.2-1.6-4.7c-0.7-1.5-1.6-2.8-2.6-3.9
				c-1-1.1-2.1-1.9-3.4-2.4c-1.3-0.5-2.6-0.6-4.1-0.3c-1.5,0.3-2.7,1-3.6,1.9c-0.9,1-1.7,2.2-2.1,3.6c-0.5,1.4-0.7,2.9-0.8,4.6
				c0,1.7,0.1,3.3,0.5,5c0.3,1.6,0.9,3.2,1.6,4.6c0.7,1.5,1.5,2.8,2.5,3.9c1,1.1,2.1,1.9,3.4,2.4C230.6,334.5,232,334.6,233.4,334.3
				z M265.9,287.9l16.9-3.6l-4.1,100.2l-16.9,3.6L265.9,287.9z M320.4,375.7c-4,0.9-7.7,1-10.9,0.4s-6.1-1.8-8.6-3.6
				c-2.5-1.8-4.5-4.1-6.2-6.9c-1.6-2.8-2.9-6.1-3.6-9.8c-0.8-3.6-1-7-0.6-10.2c0.4-3.2,1.3-6.2,2.9-8.8c1.5-2.6,3.7-4.9,6.4-6.8
				c2.7-1.9,6.1-3.3,10.1-4.1c3.9-0.8,7.5-1,10.8-0.4c3.2,0.6,6.1,1.8,8.6,3.6c2.5,1.8,4.6,4.1,6.3,6.8c1.7,2.8,2.9,6,3.7,9.6
				c0.8,3.7,1,7.1,0.6,10.4c-0.4,3.3-1.4,6.2-2.9,8.9c-1.6,2.6-3.7,4.9-6.4,6.8C327.7,373.5,324.4,374.8,320.4,375.7z M317.8,363.7
				c1.5-0.3,2.7-1,3.7-1.9c1-1,1.7-2.2,2.2-3.6c0.5-1.4,0.7-2.9,0.8-4.6c0-1.6-0.1-3.3-0.5-4.9c-0.3-1.6-0.9-3.2-1.6-4.7
				c-0.7-1.5-1.6-2.8-2.6-3.9c-1-1.1-2.1-1.9-3.4-2.4c-1.3-0.5-2.6-0.6-4.1-0.3c-1.5,0.3-2.7,1-3.6,1.9c-0.9,1-1.7,2.2-2.1,3.6
				c-0.5,1.4-0.7,2.9-0.8,4.6c0,1.7,0.1,3.3,0.5,5c0.3,1.6,0.9,3.2,1.6,4.6c0.7,1.5,1.5,2.8,2.5,3.9c1,1.1,2.1,1.9,3.4,2.4
				C314.9,363.8,316.3,364,317.8,363.7z"/>
		</g>
		<g id="XMLID_1055_">
			<path id="XMLID_1060_" class="st1" d="M182.2,530.8c-4,0.9-7.7,0.9-11,0.2c-3.3-0.7-6.3-2.1-9-4c-2.7-2-5.1-4.5-7.2-7.5
				c-2.1-3-4-6.4-5.6-10.1c-1.6-3.7-3.1-7.7-4.3-12c-1.2-4.3-2.3-8.6-3.3-13.1c-1.4-6.7-2.2-13-2.2-18.9c-0.1-5.9,0.6-11.2,2.2-15.7
				c1.5-4.6,3.9-8.3,7.1-11.3c3.2-3,7.4-5,12.5-6.1c5.1-1.1,9.8-0.9,13.9,0.5c4.2,1.4,7.9,3.9,11.1,7.4s6,8,8.4,13.5
				s4.2,11.5,5.6,18.2c0.9,4.5,1.7,8.9,2.3,13.3c0.6,4.4,0.9,8.6,0.9,12.7c0,4.1-0.4,7.9-1.1,11.6c-0.7,3.6-1.9,6.9-3.6,9.8
				c-1.7,2.9-3.9,5.4-6.6,7.4C189.6,528.5,186.2,529.9,182.2,530.8z M178.9,515c2.5-0.5,4.2-1.8,5.3-3.8c1.1-2,1.7-4.7,1.8-8.1
				c0.1-3.4-0.3-7.3-1-11.9c-0.8-4.6-1.7-9.7-2.9-15.4c-0.4-2-0.9-4-1.4-6.2c-0.5-2.2-1.1-4.4-1.9-6.6c-0.7-2.3-1.6-4.4-2.5-6.5
				c-0.9-2.1-2-3.9-3.2-5.4c-1.2-1.5-2.5-2.6-3.9-3.4c-1.4-0.8-3-0.9-4.6-0.6c-1.7,0.4-3,1.2-4,2.4c-1,1.3-1.7,2.8-2.1,4.7
				c-0.4,1.8-0.7,3.9-0.7,6.2c0,2.3,0.1,4.6,0.4,7c0.2,2.4,0.6,4.7,1,6.8c0.4,2.2,0.8,4.2,1.2,6.2c1.2,5.7,2.4,10.8,3.5,15.3
				s2.5,8.3,3.9,11.3c1.4,3,3,5.3,4.8,6.7C174.3,515.1,176.4,515.5,178.9,515z"/>
			<path id="XMLID_1058_" class="st1" d="M205,424.5l47.9-10.3l1.7,15.2l-28,6l5.2,24.9l19.8-4.2l3.3,15.8l-19.8,4.2l8.2,38.7
				l-18.1,5.4L205,424.5z"/>
			<path id="XMLID_1056_" class="st1" d="M262.7,412.1l47.9-10.3l1.7,15.2l-28,6l5.2,24.9l19.8-4.2l3.3,15.8l-19.8,4.2l8.2,38.7
				l-18.1,5.4L262.7,412.1z"/>
		</g>
	</g>
	<polygon class="st1" points="425.8,375.7 407.9,359.1 392.8,379.1 419.3,402.3 392,424.4 412.2,453.3 380.4,468.3 393.2,501.2 
		358.7,508 363.3,543.1 328.3,541.4 324.4,576.6 290.8,566.5 278.7,599.7 248.4,581.8 228.7,611.1 203.6,586.4 177.6,610.1 
		159,580.1 128.1,596.9 117.3,563.3 83.3,572.1 80.7,536.8 45.6,537.2 51.5,502.3 17.3,494.2 31.3,461.8 0.1,445.6 21.3,417.5 
		-5.2,394.3 22.2,372.2 1.9,343.3 33.8,328.3 21,295.4 55.4,288.6 50.8,253.5 85.9,255.2 89.7,220 123.4,230.1 135.5,196.9 
		165.7,214.8 185.4,185.5 210.5,210.2 229,193.3 211.1,176.7 181.5,147.6 158.4,182.2 122.7,161.1 108.5,200.2 68.9,188.3 
		64.3,229.7 23,227.7 28.4,269 -12.1,277.1 2.9,315.9 -34.6,333.5 -10.7,367.5 -42.9,393.6 -11.7,420.9 -36.8,454.1 0,473 
		-16.4,511.3 23.8,520.8 16.9,561.9 58.2,561.5 61.2,603 101.3,592.6 114.1,632.2 150.5,612.5 172.3,647.8 203,619.9 232.6,649 
		255.7,614.4 291.4,635.5 305.6,596.4 345.3,608.3 349.8,566.9 391.1,568.9 385.7,527.6 426.3,519.5 411.2,480.7 448.7,463.1 
		424.9,429.1 457.1,403 	"/>
	<linearGradient id="SVGID_1_" gradientUnits="userSpaceOnUse" x1="251.7704" y1="332.8606" x2="343.2021" y2="256.8734">
		<stop  offset="0" style="stop-color:#FFFFFF"/>
		<stop  offset="0.1665" style="stop-color:#FAFAFA"/>
		<stop  offset="0.3725" style="stop-color:#EBEBEB"/>
		<stop  offset="0.5992" style="stop-color:#D1D2D3"/>
		<stop  offset="0.8392" style="stop-color:#AFB0B2"/>
		<stop  offset="1" style="stop-color:#939598"/>
	</linearGradient>
	<polygon class="st2" points="222.9,228.8 206.5,267 246.7,276.5 239.8,317.6 281.1,317.2 284.1,358.7 324.2,348.3 337,387.9 
		373.4,368.2 395.2,403.6 425.8,375.7 211.1,176.7 186.1,209.8 	"/>
</g>
</svg>
