<?xml version="1.0" encoding="utf-8"?>
<!-- Generator: Adobe Illustrator 19.0.0, SVG Export Plug-In . SVG Version: 6.00 Build 0)  -->
<svg version="1.1" id="Capa_1" xmlns="http://www.w3.org/2000/svg" xmlns:xlink="http://www.w3.org/1999/xlink" x="0px" y="0px"
	 viewBox="-49 141 512 512" style="enable-background:new -49 141 512 512;" xml:space="preserve">
<style type="text/css">
	.st0{fill:#FFFFFF;}
	.st1{fill:#F9A500;}
	.st2{fill:#C6820A;}
	.st3{fill:url(#SVGID_1_);}
</style>
<g>
	<path class="st0" d="M387.5,574.9h69.2V205.1l-17.7,2.9l0,0v350.2h-84.6c26.5,39,55.5,72.1,71,79.8c0,0-99.9-33.8-180.4-79.8H-26.8
		V262.6l364.2-100l0-17.5L-44.5,250v324.9h284.6C342.8,648.3,459,653,459,653S416.7,614.5,387.5,574.9z"/>
	<path class="st1" d="M337.4,162.6L337.4,162.6l-364.2,100v295.6H245c80.5,46,180.4,79.8,180.4,79.8c-15.5-7.7-44.5-40.7-71-79.8
		h84.6V208l-101.5,16.8V162.6z"/>
	<polygon class="st1" points="456.8,205.1 456.7,205 456.7,205.1 	"/>
	<rect x="438.9" y="196.2" class="st1" width="0" height="11.9"/>
	<g>
		<path class="st2" d="M12.1,276.6V304l18-5.3v5.8l-24.6,7.3v-33.1L12.1,276.6z"/>
		<path class="st2" d="M34.9,303v-33.1l6.6-1.9v33.1L34.9,303z"/>
		<path class="st2" d="M78.2,266.2L66.8,284l-1.3,0.4l-11.2-11.1v24.1l-6.6,2v-33.1l7.6-2.3l11,11l11-17.5l7.6-2.2v33.1l-6.6,2
			V266.2z"/>
		<path class="st2" d="M91.1,286.4v-33.1l6.6-1.9v33.1L91.1,286.4z"/>
		<path class="st2" d="M114.6,252l-11.1,3.3v-5.7c10.1-3,18.7-5.5,28.9-8.5v5.7l-11.1,3.3v27.4l-6.6,2V252z"/>
		<path class="st2" d="M162.5,265.3l-26.3,7.8c0-11,0-22.1,0-33.1l26.3-7.8v6.1l-19.7,5.8v7.6l19-5.6v5.8l-19,5.6v7.5l19.7-5.8
			V265.3z"/>
		<path class="st2" d="M198.5,237.8c0.2,8.3-5.3,18.4-17.5,22c-4.3,1.3-9.5,2.8-13.8,4.1v-33.1c4.3-1.3,9.5-2.8,13.8-4.1
			C193,223.1,198.3,229.6,198.5,237.8z M173.7,255.9l7.2-2.1c8-2.4,11.1-8.8,11-14.1c-0.2-5.1-3.4-9.3-11-7.1l-7.2,2.1V255.9z"/>
		<path class="st2" d="M247.4,223.8c-0.1,8.6-5.7,18.8-18,22.4c-12.3,3.6-18-3-18-11.7c0-8.7,5.9-19.2,18-22.8
			C241.5,208.1,247.5,215.1,247.4,223.8z M217.9,232.6c0.1,5.4,3.3,10.3,11.5,7.9c8.3-2.4,11.4-9.2,11.5-14.7
			c0.1-5.6-3.2-10.9-11.5-8.4C221.2,219.8,217.8,227.1,217.9,232.6z"/>
		<path class="st2" d="M252.3,238.7v-33.1l25.2-7.4v6l-18.6,5.5v9l17.6-5.2v5.8l-17.6,5.2v12.3L252.3,238.7z"/>
		<path class="st2" d="M282.1,229.9v-33.1l25.2-7.4v6l-18.6,5.5v9l17.6-5.2v5.8l-17.6,5.2V228L282.1,229.9z"/>
		<path class="st2" d="M338,213.4l-26.3,7.8c0-11,0-22.1,0-33.1l26.3-7.8v6.1l-19.7,5.8v7.6l19-5.6v5.8l-19,5.6v7.5l19.7-5.8V213.4z
			"/>
		<path class="st2" d="M374.3,202.7l-7.9,2.3l-10.2-8.1l-6.4,1.9v11.1l-6.6,2v-33.2c5.6-1.6,11.1-3.2,16.7-4.9
			c8.3-2.4,12.6,1.5,12.6,7.2c0,4.5-2.2,9.8-8.9,13l10.6,8.2V202.7z M349.8,182.6v10.6l10.1-3c4.2-1.2,6-4.4,6-7.1
			c0-2.6-1.9-4.8-6-3.5L349.8,182.6z"/>
	</g>
	<g>
		<path class="st0" d="M238.3,287.7c-0.9,6.4-6,12.4-15.4,11.1c-3.3-0.4-7.3-1-10.6-1.4l3.9-25.4c3.3,0.4,7.3,1,10.6,1.4
			C235.9,274.6,239.1,281.4,238.3,287.7z M218,293.4l5.5,0.7c6.1,0.8,9.2-3.1,9.7-7.2c0.5-4-1.4-8.3-7.2-9l-5.5-0.7L218,293.4z"/>
		<path class="st0" d="M240.1,301.1l3.9-25.4l5,0.7l-3.9,25.4L240.1,301.1z"/>
		<path class="st0" d="M270.2,285.5c-0.7-1.6-3-3.3-5.9-3.7c-3.8-0.5-5.8,0.7-6.1,2.6c-0.3,2.2,2.3,3.2,5.5,4
			c5.5,1.4,10.5,3.5,9.6,9.6c-0.9,5.7-6.5,7.4-12.5,6.6c-5.5-0.7-9.5-2.9-10.8-7.8l4.5-1.5c0.8,3,3.7,4.6,7,5.1
			c3.2,0.4,6.3-0.2,6.8-3c0.4-2.4-2.1-3.7-5.7-4.6c-5.4-1.4-10.3-3.4-9.4-9.1c0.8-5.2,6.6-6.6,11.5-6c4.2,0.6,8.4,2.3,9.8,6.5
			L270.2,285.5z"/>
		<path class="st0" d="M300.3,306c-3.2,2.2-6.9,2.9-10.8,2.4c-10-1.4-13.2-8.4-12.3-15c1-6.6,6.6-12.8,16.3-11.5
			c3.6,0.5,6.9,2.3,9.3,5.2l-3.9,2.6c-1.5-1.9-3.8-3-6.1-3.3c-6.5-0.9-10,3.3-10.6,7.6c-0.6,4.2,1.3,9,8,9.9
			c2.3,0.3,5.1-0.2,7.2-1.7L300.3,306z"/>
		<path class="st0" d="M336.7,288.3l-2.2,14.6c-1.1,7.5-6.6,10.7-13.4,9.8c-6.5-0.9-11.4-5.3-10.2-13l2.2-14.6l5,0.7l-2.2,14.6
			c-0.7,4.6,1.7,7.4,5.9,7.9c4.2,0.6,7-1.8,7.6-6.1l2.2-14.6L336.7,288.3z"/>
		<path class="st0" d="M351.6,308.6l-7.6-1l-1.1,7.5l-5.1-0.7l3.9-25.4c4.2,0.6,8.5,1.1,12.7,1.7
			C367.5,292.4,364.8,310.4,351.6,308.6z M344.7,303.2l7.6,1c6.5,0.9,7.8-8.1,1.4-9l-7.6-1L344.7,303.2z"/>
		<path class="st0" d="M381.7,298.8l-8.5-1.2l0.7-4.4c7.8,1.1,14.3,1.9,22.1,3l-0.7,4.4l-8.5-1.2l-3.2,21l-5.1-0.7L381.7,298.8z"/>
		<path class="st0" d="M423.6,313.1c-1.1,6.6-6.3,12.5-15.8,11.3s-12.9-8.3-11.8-15c1-6.7,6.6-12.8,15.9-11.5
			C421.1,299.2,424.7,306.5,423.6,313.1z M400.9,310.2c-0.5,4.2,1.2,9,7.5,9.8c6.3,0.9,9.4-3.3,10.1-7.5c0.7-4.3-1.1-9.4-7.4-10.3
			C404.8,301.4,401.5,305.9,400.9,310.2z"/>
	</g>
	<g>
		<path class="st0" d="M58.5,469.1v15.8c0,12.1,5.7,16.5,14.7,16.5c9,0,14.7-4.4,14.7-16.5v-37.4c0-12.1-5.7-16.8-14.7-16.8
			c-9,0-14.7,4.6-14.7,16.8v5.1H31.8l5.1-98.6h74.6v24.3H62.4l-2.3,40.6c5.1-8,13.4-12.4,24.7-12.4c20.8,0,31.4,13.8,31.4,38.9v37.9
			c0,27.2-14.4,42.7-42.2,42.7c-27.8,0-42.2-15.5-42.2-42.7v-14.1H58.5z"/>
		<path class="st0" d="M132.6,394.8c0-27.2,15.2-42.7,42.9-42.7s42.9,15.5,42.9,42.7v88.4c0,27.2-15.2,42.7-42.9,42.7
			s-42.9-15.5-42.9-42.7V394.8z M160.9,484.8c0,12.1,5.7,16.8,14.7,16.8c9,0,14.7-4.6,14.7-16.8v-91.8c0-12.1-5.7-16.8-14.7-16.8
			c-9,0-14.7,4.6-14.7,16.8V484.8z"/>
		<path class="st0" d="M235.2,379.9c0-17.5,9.5-27.2,27.3-27.2s27.3,9.7,27.3,27.2v55.9c0,17.5-9.5,27.2-27.3,27.2
			s-27.3-9.7-27.3-27.2V379.9z M253.2,437c0,7.5,3.3,10.7,9.3,10.7c5.7,0,9.3-3.2,9.3-10.7v-58.3c0-7.5-3.6-10.7-9.3-10.7
			c-5.9,0-9.3,3.2-9.3,10.7V437z M333.4,354h16.7l-71,170h-16.7L333.4,354z M324.4,442.1c0-17.5,9.5-27.2,27.3-27.2
			c17.7,0,27.3,9.7,27.3,27.2V498c0,17.5-9.5,27.2-27.3,27.2c-17.7,0-27.3-9.7-27.3-27.2V442.1z M342.4,499.2
			c0,7.5,3.3,10.7,9.3,10.7c5.7,0,9.3-3.2,9.3-10.7v-58.3c0-7.5-3.6-10.7-9.3-10.7c-5.9,0-9.3,3.2-9.3,10.7V499.2z"/>
	</g>
	<linearGradient id="SVGID_1_" gradientUnits="userSpaceOnUse" x1="345.7838" y1="235.8109" x2="428.0055" y2="138.4871">
		<stop  offset="0" style="stop-color:#FFFFFF"/>
		<stop  offset="0.1665" style="stop-color:#FAFAFA"/>
		<stop  offset="0.3725" style="stop-color:#EBEBEB"/>
		<stop  offset="0.5992" style="stop-color:#D1D2D3"/>
		<stop  offset="0.8392" style="stop-color:#AFB0B2"/>
		<stop  offset="1" style="stop-color:#939598"/>
	</linearGradient>
	<polygon class="st3" points="438.9,196.2 438.9,196.2 359.9,156.4 337.4,145.2 337.4,145.2 337.4,224.8 456.7,205.1 456.7,205 	"/>
</g>
</svg>
