<?xml version="1.0" encoding="iso-8859-1"?>
<!-- Generator: Adobe Illustrator 19.0.0, SVG Export Plug-In . SVG Version: 6.00 Build 0)  -->
<svg version="1.1" id="Capa_1" xmlns="http://www.w3.org/2000/svg" xmlns:xlink="http://www.w3.org/1999/xlink" x="0px" y="0px"
	 viewBox="0 0 56 56" style="enable-background:new 0 0 56 56;" xml:space="preserve">
<path style="fill:#38454F;" d="M1.046,56c-0.256,0-0.512-0.098-0.707-0.293c-0.391-0.391-0.391-1.023,0-1.414l7.908-7.908
	c0.391-0.391,1.023-0.391,1.414,0s0.391,1.023,0,1.414l-7.908,7.908C1.558,55.902,1.302,56,1.046,56z"/>
<path style="fill:#38454F;" d="M54.954,56c-0.258,0-0.516-0.099-0.711-0.297l-7.816-7.908c-0.388-0.393-0.384-1.026,0.008-1.415
	c0.393-0.388,1.026-0.384,1.415,0.008l7.816,7.908c0.388,0.393,0.384,1.026-0.008,1.415C55.462,55.904,55.208,56,54.954,56z"/>
<circle style="fill:#ECF0F1;" cx="28.046" cy="28" r="27"/>
<circle style="fill:#FFFFFF;" cx="28.046" cy="28" r="18"/>
<path style="fill:#E64C3C;" d="M28.046,47c-10.477,0-19-8.523-19-19s8.523-19,19-19s19,8.523,19,19S38.522,47,28.046,47z M28.046,11
	c-9.374,0-17,7.626-17,17s7.626,17,17,17s17-7.626,17-17S37.42,11,28.046,11z"/>
<path style="fill:#E64C3C;" d="M28.046,38c-5.514,0-10-4.486-10-10s4.486-10,10-10s10,4.486,10,10S33.56,38,28.046,38z M28.046,20
	c-4.411,0-8,3.589-8,8s3.589,8,8,8s8-3.589,8-8S32.457,20,28.046,20z"/>
<circle style="fill:#E64C3C;" cx="28.046" cy="28" r="2"/>
<g>
	<path style="fill:#F3D55B;" d="M6.046,5V1c0-0.552-0.448-1-1-1s-1,0.448-1,1v3h-3c-0.552,0-1,0.448-1,1s0.448,1,1,1h4
		C5.598,6,6.046,5.552,6.046,5z"/>
	<path style="fill:#F3D55B;" d="M11.046,5c-0.552,0-1,0.448-1,1v4h-4c-0.552,0-1,0.448-1,1s0.448,1,1,1h5c0.552,0,1-0.448,1-1V6
		C12.046,5.448,11.598,5,11.046,5z"/>
	<path style="fill:#F3D55B;" d="M9.046,8V3c0-0.552-0.448-1-1-1s-1,0.448-1,1v4h-4c-0.552,0-1,0.448-1,1s0.448,1,1,1h5
		C8.598,9,9.046,8.552,9.046,8z"/>
</g>
<path style="fill:#546A79;" d="M28.046,29c-0.256,0-0.512-0.098-0.707-0.293l-26-26c-0.391-0.391-0.391-1.023,0-1.414
	s1.023-0.391,1.414,0l26,26c0.391,0.391,0.391,1.023,0,1.414C28.558,28.902,28.302,29,28.046,29z"/>
<g>
</g>
<g>
</g>
<g>
</g>
<g>
</g>
<g>
</g>
<g>
</g>
<g>
</g>
<g>
</g>
<g>
</g>
<g>
</g>
<g>
</g>
<g>
</g>
<g>
</g>
<g>
</g>
<g>
</g>
</svg>
