<?xml version="1.0" encoding="iso-8859-1"?>
<!-- Generator: Adobe Illustrator 19.0.0, SVG Export Plug-In . SVG Version: 6.00 Build 0)  -->
<svg version="1.1" id="Capa_1" xmlns="http://www.w3.org/2000/svg" xmlns:xlink="http://www.w3.org/1999/xlink" x="0px" y="0px"
	 viewBox="0 0 57 57" style="enable-background:new 0 0 57 57;" xml:space="preserve">
<path style="fill:#FDD7AD;" d="M28.674,0c-0.191,0-0.347,0.138-0.381,0.326c-0.213,1.178-1.955,5.746-15,18.582
	c0,0-4.385,3.72-3.545,12.584c0.292,3.08,0.419,6.169,0.175,9.253C9.502,46.078,7.36,52.829,7.293,54.908
	c-0.037,1.163,0.915,1.715,2.072,1.959c2.559,0.541,5.16-0.616,6.713-2.72c1.76-2.385,4.073-6.7,6.075-14.33
	c1.326-5.056,5.793-8.748,11.018-8.912c0.093-0.003,0.186-0.005,0.28-0.007c1.828-0.04,3.632-0.748,4.811-2.146
	c1.24-1.469,1.99-3.719,0.031-6.844c-3.917-6.25-2.833-10.583,1-13c3.087-1.946,8.361-6.502,10.288-8.238
	C49.844,0.432,49.672,0,49.317,0H28.674z"/>
<path style="fill:#ED7161;" d="M9.924,40.746C9.502,46.078,7.36,52.829,7.293,54.908c-0.037,1.162,0.915,1.715,2.071,1.959
	c2.559,0.541,5.16-0.616,6.713-2.72c1.76-2.385,4.073-6.7,6.075-14.33c1.326-5.056,5.793-8.748,11.018-8.912
	c0.093-0.003,0.186-0.005,0.28-0.008c1.828-0.04,3.632-0.748,4.811-2.146c1.24-1.469,1.99-3.719,0.031-6.844
	c-0.77-1.229-1.34-2.38-1.741-3.461c-9.163,2.272-20.154,9.908-26.654,14.916C10.071,35.822,10.118,38.286,9.924,40.746z"/>
<path style="fill:#CB465F;" d="M38.262,28.752c0.643-0.762,1.153-1.734,1.223-2.93c0.01-0.171-0.155-0.308-0.323-0.274l-1.521,0.309
	c-0.052,0.01-0.097,0.037-0.132,0.077c-0.686,0.77-1.806,0.947-3.088,0.975l-0.376,0.011c-7.864,0.246-14.773,6.097-16.801,13.828
	c-2.203,8.398-4.664,13.131-6.448,15.699c-0.115,0.166,0.303,0.516,0.498,0.463c1.209-0.329,2.938-0.167,4.785-2.761
	c1.714-2.406,4.057-6.671,6.054-14.254c1.355-5.145,5.911-8.86,11.23-8.994c0.029-0.001,0.059-0.001,0.089-0.002
	C35.278,30.857,37.082,30.149,38.262,28.752z"/>
<path style="fill:#FB7B76;" d="M17.828,14.306l6.679,9.257c1.792-1.004,3.61-1.934,5.418-2.745l-7.97-11.045
	C20.801,11.11,19.438,12.615,17.828,14.306z"/>
<path style="fill:#FF5364;" d="M25.085,6c-0.236,0.292-0.494,0.61-0.767,0.945c-0.667,0.847-1.447,1.791-2.355,2.838l1.534,2.126
	h12.999c0.284-0.583,0.656-1.118,1.107-1.605c0.039-0.042,0.079-0.082,0.119-0.123c0.182-0.187,0.375-0.367,0.579-0.539
	c0.061-0.051,0.119-0.103,0.182-0.153c0.256-0.203,0.522-0.399,0.81-0.58c0.28-0.177,0.58-0.377,0.892-0.594
	c0.008-0.005,0.016-0.011,0.024-0.016c0.314-0.219,0.641-0.455,0.978-0.705l0.02-0.006C41.87,7.098,42.569,6.559,43.274,6H25.085z"
	/>
<g>
</g>
<g>
</g>
<g>
</g>
<g>
</g>
<g>
</g>
<g>
</g>
<g>
</g>
<g>
</g>
<g>
</g>
<g>
</g>
<g>
</g>
<g>
</g>
<g>
</g>
<g>
</g>
<g>
</g>
</svg>
