<?xml version="1.0" encoding="iso-8859-1"?>
<!-- Generator: Adobe Illustrator 19.0.0, SVG Export Plug-In . SVG Version: 6.00 Build 0)  -->
<svg version="1.1" id="Capa_1" xmlns="http://www.w3.org/2000/svg" xmlns:xlink="http://www.w3.org/1999/xlink" x="0px" y="0px"
	 viewBox="0 0 512 512" style="enable-background:new 0 0 512 512;" xml:space="preserve">
<g>
	<path style="fill:#F7EAB7;" d="M168.124,509.924c-0.88-0.831-21.548-20.653-22.163-48.958c-0.384-17.632,6.994-34.367,21.927-49.74
		c16.385-16.87,21.391-36.24,14.878-57.575c-5.02-16.441-14.999-27.771-15.099-27.883c-2.796-3.139-2.518-7.952,0.622-10.748
		c3.138-2.797,7.952-2.52,10.748,0.622c0.5,0.561,12.308,13.967,18.291,33.564c5.676,18.591,7.071,46.284-18.518,72.629
		c-11.987,12.341-17.918,25.396-17.626,38.801c0.478,22.006,17.221,38.055,17.39,38.215c3.058,2.887,3.197,7.704,0.312,10.762
		C176.002,512.668,171.184,512.811,168.124,509.924z"/>
	<path style="fill:#F7EAB7;" d="M367.395,396.665c-2.023,0-4.04-0.801-5.538-2.388c-2.886-3.058-2.746-7.877,0.312-10.762
		c0.154-0.147,16.982-16.464,17.393-38.344c0.251-13.359-5.681-26.37-17.629-38.672c-25.59-26.344-24.195-54.037-18.518-72.629
		c5.983-19.596,17.792-33.003,18.292-33.564c2.796-3.141,7.609-3.419,10.749-0.622c3.135,2.792,3.417,7.596,0.632,10.736l0,0
		c-1.618,1.834-39.189,45.366-0.233,85.47c14.934,15.375,22.311,32.11,21.927,49.741c-0.616,28.305-21.284,48.127-22.163,48.957
		C371.148,395.977,369.269,396.665,367.395,396.665z"/>
</g>
<path style="fill:#D63322;" d="M369.846,163.617c0,0-8.435-3.644-20.449-10.787v14.211v11.669v14.211
	c0,11.297,9.157,20.452,20.452,20.452c11.293,0,20.45-9.156,20.45-20.452V178.71v-11.672v-14.211
	C378.283,159.973,369.846,163.617,369.846,163.617z"/>
<path style="fill:#C1261A;" d="M369.849,192.921V178.71v-11.669v-3.425l-0.002,0.001c0,0-8.435-3.644-20.449-10.787v14.211v11.669
	v14.211c0,11.297,9.157,20.452,20.452,20.452c3.729,0,7.215-1.014,10.225-2.759C373.967,207.076,369.849,200.487,369.849,192.921z"
	/>
<path style="fill:#4A94CC;" d="M174.054,274.142c0,0-8.163-3.527-20.45-10.456c0,3.613,0,38.315,0,42.74
	c0,11.293,9.157,20.451,20.45,20.451c11.297,0,20.451-9.158,20.451-20.451c0-10.206,0-16.946,0-27.514v-15.226
	C182.218,270.615,174.054,274.142,174.054,274.142z"/>
<path style="fill:#3987B7;" d="M174.054,306.426c0-10.206,0-16.946,0-27.514v-4.77c0,0-8.163-3.527-20.45-10.456
	c0,3.613,0,38.315,0,42.74c0,15.714,17.059,25.584,30.676,17.692C178.173,320.581,174.054,313.99,174.054,306.426z"/>
<path style="fill:#49B5CE;" d="M248.15,56.363c-27.048-2.816-52.473,10.87-65.39,33.638c-0.025,0.028-0.05,0.058-0.075,0.086
	c-4.834,5.664-11.689,6.321-17.3-0.085c-13.03-22.967-38.196-35.581-62.048-33.905c-35.837,2.009-63.32,31.414-63.32,66.91
	c0,44.923,22.467,86.535,66.779,123.678c28.011,23.48,63.381,42.086,67.277,42.086c3.675,0,38.735-18.161,67.277-42.086
	c44.311-37.143,66.779-78.755,66.779-123.678C308.127,88.83,282.581,59.987,248.15,56.363z"/>
<path style="fill:#31A6BA;" d="M60.449,123.008c0-33.305,24.197-61.246,56.779-66.228c-39.43-6.084-77.211,23.86-77.211,66.228
	c0,44.923,22.467,86.535,66.779,123.678c28.011,23.48,63.381,42.086,67.277,42.086c1.459,0,2.004-0.114,10.216-4.347
	C120.502,251.553,60.449,195.228,60.449,123.008z"/>
<path style="fill:#EA473B;" d="M420.914,0c-30.979,0-43.666,25.052-44.57,26.067c-3.882,4.354-8.964,4.553-13.016-0.024
	c-0.039-0.044-0.077-0.086-0.117-0.129C354.146,9.93,337.121,0,318.781,0c-28.158,0-51.066,22.908-51.066,51.065
	c0,74.302,82.894,117.623,99.512,125.553c0.83,0.396,1.726,0.594,2.623,0.594c0.895,0,1.789-0.197,2.617-0.591
	c7.848-3.734,28.303-14.265,48.689-31.366c33.727-28.291,50.828-59.98,50.828-94.189C471.983,22.908,449.074,0,420.914,0z"/>
<path style="fill:#C1261A;" d="M288.165,51.065c0-24.645,17.551-45.269,40.81-50.03C325.654,0.355,322.241,0,318.781,0
	c-28.158,0-51.066,22.908-51.066,51.065c0,74.302,82.894,117.623,99.512,125.553c0.83,0.396,1.726,0.594,2.623,0.594
	c0.895,0,1.789-0.197,2.617-0.591c1.876-0.892,4.479-2.178,7.622-3.844C353.997,158.891,288.165,117.281,288.165,51.065z"/>
<g>
</g>
<g>
</g>
<g>
</g>
<g>
</g>
<g>
</g>
<g>
</g>
<g>
</g>
<g>
</g>
<g>
</g>
<g>
</g>
<g>
</g>
<g>
</g>
<g>
</g>
<g>
</g>
<g>
</g>
</svg>
