<?xml version="1.0" encoding="utf-8"?>
<!-- Generator: Adobe Illustrator 19.0.0, SVG Export Plug-In . SVG Version: 6.00 Build 0)  -->
<svg version="1.1" id="Layer_1" xmlns="http://www.w3.org/2000/svg" xmlns:xlink="http://www.w3.org/1999/xlink" x="0px" y="0px"
	 viewBox="-46 357.9 518.1 132" enable-background="new -46 357.9 518.1 132" xml:space="preserve">
<g>
	
		<image overflow="visible" opacity="0.3" width="533" height="143" xlink:href="B4E68CC6.png"  transform="matrix(1 0 0 1 -48 354)">
	</image>
	<g>
		<g>
			<defs>
				<path id="SVGID_1_" d="M438.5,364.9H-9.6c-15,0-28.1,9.2-28.1,21.4V454c0,12.2,13.2,22.8,28.1,22.8h448.1
					c15,0,26.3-10.7,26.3-22.8v-67.8C464.8,374.1,453.5,364.9,438.5,364.9L438.5,364.9z"/>
			</defs>
			<clipPath id="SVGID_2_">
				<use xlink:href="#SVGID_1_"  overflow="visible"/>
			</clipPath>
			<g clip-path="url(#SVGID_2_)">
				<defs>
					<rect id="SVGID_3_" x="-37.7" y="364.9" width="502.5" height="112"/>
				</defs>
				<clipPath id="SVGID_4_">
					<use xlink:href="#SVGID_3_"  overflow="visible"/>
				</clipPath>
			</g>
		</g>
		<g>
			<defs>
				<path id="SVGID_5_" d="M438.5,364.9H-9.6c-15,0-28.1,9.2-28.1,21.4V454c0,12.2,13.2,22.8,28.1,22.8h448.1
					c15,0,26.3-10.7,26.3-22.8v-67.8C464.8,374.1,453.5,364.9,438.5,364.9L438.5,364.9z"/>
			</defs>
			<clipPath id="SVGID_6_">
				<use xlink:href="#SVGID_5_"  overflow="visible"/>
			</clipPath>
			<g clip-path="url(#SVGID_6_)">
				<defs>
					<rect id="SVGID_7_" x="-37.7" y="364.9" width="502.5" height="112"/>
				</defs>
				<clipPath id="SVGID_8_">
					<use xlink:href="#SVGID_7_"  overflow="visible"/>
				</clipPath>
			</g>
			<linearGradient id="SVGID_9_" gradientUnits="userSpaceOnUse" x1="214.4578" y1="369.1587" x2="214.4578" y2="472.5784">
				<stop  offset="0" style="stop-color:#E5005B"/>
				<stop  offset="5.656155e-002" style="stop-color:#E71669"/>
				<stop  offset="0.1229" style="stop-color:#E92875"/>
				<stop  offset="0.2029" style="stop-color:#EA357D"/>
				<stop  offset="0.3097" style="stop-color:#EB3C82"/>
				<stop  offset="0.5532" style="stop-color:#EB3E83"/>
				<stop  offset="0.6949" style="stop-color:#EB3B81"/>
				<stop  offset="0.7958" style="stop-color:#EA327B"/>
				<stop  offset="0.8841" style="stop-color:#E82271"/>
				<stop  offset="0.9646" style="stop-color:#E60C63"/>
				<stop  offset="1" style="stop-color:#E5005B"/>
			</linearGradient>
			<path clip-path="url(#SVGID_6_)" fill="url(#SVGID_9_)" d="M-9.6,473.9c-13.5,0-24.5-8.9-24.5-19.9v-67.8c0-11,11-19.9,24.5-19.9
				h448.1c13.5,0,24.5,8.9,24.5,19.9V454c0,11-11,19.9-24.5,19.9H-9.6z"/>
			<path clip-path="url(#SVGID_6_)" fill="#AD0248" d="M438.5,369.3c12,0,20.9,7.2,20.9,16.9V454c0,9.8-8.9,18.4-20.9,18.4H-9.6
				c-12,0-22.7-8.7-22.7-18.4v-67.8c0-9.8,10.7-16.9,22.7-16.9h447.2 M438.5,364.9H-9.6c-15,0-28.1,9.2-28.1,21.4V454
				c0,12.2,13.2,22.8,28.1,22.8h448.1c15,0,26.3-10.7,26.3-22.8v-67.8C464.8,374.1,453.5,364.9,438.5,364.9L438.5,364.9z"/>
		</g>
		<g>
			<defs>
				<path id="SVGID_10_" d="M438.5,364.9H-9.6c-15,0-28.1,9.2-28.1,21.4V454c0,12.2,13.2,22.8,28.1,22.8h448.1
					c15,0,26.3-10.7,26.3-22.8v-67.8C464.8,374.1,453.5,364.9,438.5,364.9L438.5,364.9z"/>
			</defs>
			<clipPath id="SVGID_11_">
				<use xlink:href="#SVGID_10_"  overflow="visible"/>
			</clipPath>
			<g clip-path="url(#SVGID_11_)">
				<defs>
					<rect id="SVGID_12_" x="-37.7" y="364.9" width="502.5" height="112"/>
				</defs>
				<clipPath id="SVGID_13_">
					<use xlink:href="#SVGID_12_"  overflow="visible"/>
				</clipPath>
			</g>
		</g>
	</g>
</g>
</svg>
