<?xml version="1.0" encoding="utf-8"?>
<!-- Generator: Adobe Illustrator 19.0.0, SVG Export Plug-In . SVG Version: 6.00 Build 0)  -->
<svg version="1.1" id="Layer_1" xmlns="http://www.w3.org/2000/svg" xmlns:xlink="http://www.w3.org/1999/xlink" x="0px" y="0px"
	 viewBox="-46 348.9 518.1 144" enable-background="new -46 348.9 518.1 144" xml:space="preserve">
<g>
	
		<image overflow="visible" opacity="0.3" width="1158" height="1088" xlink:href="EAC805A2.png"  transform="matrix(1 0 0 1 -65 -564)">
	</image>
	<g>
		<g>
			<defs>
				<path id="SVGID_1_" d="M438.5,357.9h-449c-15,0-28.2,9.7-28.2,22.5v71.4c0,12.8,13.2,24.1,28.2,24.1h449
					c15,0,26.4-11.3,26.4-24.1v-71.4C464.8,367.6,453.4,357.9,438.5,357.9L438.5,357.9z"/>
			</defs>
			<clipPath id="SVGID_2_">
				<use xlink:href="#SVGID_1_"  overflow="visible"/>
			</clipPath>
			<g clip-path="url(#SVGID_2_)">
				<g>
					<defs>
						<rect id="SVGID_3_" x="-38.7" y="357.9" width="503.5" height="118"/>
					</defs>
					<clipPath id="SVGID_4_">
						<use xlink:href="#SVGID_3_"  overflow="visible"/>
					</clipPath>
				</g>
			</g>
		</g>
		<g>
			<defs>
				<path id="SVGID_5_" d="M438.5,357.9h-449c-15,0-28.2,9.7-28.2,22.5v71.4c0,12.8,13.2,24.1,28.2,24.1h449
					c15,0,26.4-11.3,26.4-24.1v-71.4C464.8,367.6,453.4,357.9,438.5,357.9L438.5,357.9z"/>
			</defs>
			<clipPath id="SVGID_6_">
				<use xlink:href="#SVGID_5_"  overflow="visible"/>
			</clipPath>
			<g clip-path="url(#SVGID_6_)">
				
					<image overflow="visible" opacity="0.3" width="1262" height="1552" xlink:href="EAC805A6.png"  transform="matrix(1.8177 0 0 1.5526 -636.7313 -1902.7776)">
				</image>
				<g>
					<defs>
						<rect id="SVGID_7_" x="-38.7" y="357.9" width="503.5" height="118"/>
					</defs>
					<clipPath id="SVGID_8_">
						<use xlink:href="#SVGID_7_"  overflow="visible"/>
					</clipPath>
				</g>
				<linearGradient id="SVGID_9_" gradientUnits="userSpaceOnUse" x1="213.9621" y1="362.3893" x2="213.9621" y2="471.3493">
					<stop  offset="0" style="stop-color:#009FE3"/>
					<stop  offset="3.864182e-002" style="stop-color:#1BA9E5"/>
					<stop  offset="9.555108e-002" style="stop-color:#3CB5E8"/>
					<stop  offset="0.1569" style="stop-color:#58BFEB"/>
					<stop  offset="0.2232" style="stop-color:#6DC6ED"/>
					<stop  offset="0.2969" style="stop-color:#7CCCEE"/>
					<stop  offset="0.3838" style="stop-color:#84CFEF"/>
					<stop  offset="0.5169" style="stop-color:#87D0EF"/>
					<stop  offset="0.588" style="stop-color:#82CEEF"/>
					<stop  offset="0.6748" style="stop-color:#73C9ED"/>
					<stop  offset="0.7698" style="stop-color:#5AC0EB"/>
					<stop  offset="0.8706" style="stop-color:#38B3E8"/>
					<stop  offset="0.975" style="stop-color:#0CA3E4"/>
					<stop  offset="1" style="stop-color:#009FE3"/>
				</linearGradient>
				<path fill="url(#SVGID_9_)" d="M-10.5,472.7c-13.5,0-24.5-9.4-24.5-21v-71.4c0-11.6,11-21,24.5-21h449c13.5,0,24.5,9.4,24.5,21
					v71.4c0,11.6-11,21-24.5,21H-10.5z"/>
				<path fill="#009FE3" d="M438.5,362.5c12,0,20.9,7.6,20.9,17.9v71.4c0,10.3-8.9,19.4-20.9,19.4h-449c-12,0-22.7-9.1-22.7-19.4
					v-71.4c0-10.3,10.7-17.9,22.7-17.9h448.1 M438.5,357.9h-449c-15,0-28.2,9.7-28.2,22.5v71.4c0,12.8,13.2,24.1,28.2,24.1h449
					c15,0,26.4-11.3,26.4-24.1v-71.4C464.8,367.6,453.4,357.9,438.5,357.9L438.5,357.9z"/>
			</g>
		</g>
		<g>
			<defs>
				<path id="SVGID_10_" d="M438.5,357.9h-449c-15,0-28.2,9.7-28.2,22.5v71.4c0,12.8,13.2,24.1,28.2,24.1h449
					c15,0,26.4-11.3,26.4-24.1v-71.4C464.8,367.6,453.4,357.9,438.5,357.9L438.5,357.9z"/>
			</defs>
			<clipPath id="SVGID_11_">
				<use xlink:href="#SVGID_10_"  overflow="visible"/>
			</clipPath>
			<g clip-path="url(#SVGID_11_)">
				<g>
					<defs>
						<rect id="SVGID_12_" x="-38.7" y="357.9" width="503.5" height="118"/>
					</defs>
					<clipPath id="SVGID_13_">
						<use xlink:href="#SVGID_12_"  overflow="visible"/>
					</clipPath>
				</g>
			</g>
		</g>
	</g>
</g>
</svg>
