<?xml version="1.0" encoding="utf-8"?>
<!-- Generator: Adobe Illustrator 19.0.0, SVG Export Plug-In . SVG Version: 6.00 Build 0)  -->
<svg version="1.1" id="Capa_1" xmlns="http://www.w3.org/2000/svg" xmlns:xlink="http://www.w3.org/1999/xlink" x="0px" y="0px"
	 viewBox="-49 141 512 512" style="enable-background:new -49 141 512 512;" xml:space="preserve">
<style type="text/css">
	.st0{opacity:0.45;}
	.st1{opacity:0;fill:#D1D3D4;}
	.st2{opacity:3.225806e-002;fill:#CACCCD;}
	.st3{opacity:6.451613e-002;fill:#C4C5C6;}
	.st4{opacity:9.677419e-002;fill:#BDBFBF;}
	.st5{opacity:0.129;fill:#B6B8B9;}
	.st6{opacity:0.1613;fill:#AFB1B2;}
	.st7{opacity:0.1935;fill:#A9AAAB;}
	.st8{opacity:0.2258;fill:#A2A3A4;}
	.st9{opacity:0.2581;fill:#9B9D9D;}
	.st10{opacity:0.2903;fill:#949696;}
	.st11{opacity:0.3226;fill:#8E8F90;}
	.st12{opacity:0.3548;fill:#878889;}
	.st13{opacity:0.3871;fill:#808182;}
	.st14{opacity:0.4194;fill:#797B7B;}
	.st15{opacity:0.4516;fill:#737474;}
	.st16{opacity:0.4839;fill:#6C6D6D;}
	.st17{opacity:0.5161;fill:#656667;}
	.st18{opacity:0.5484;fill:#5E5F60;}
	.st19{opacity:0.5806;fill:#585859;}
	.st20{opacity:0.6129;fill:#515252;}
	.st21{opacity:0.6452;fill:#4A4B4B;}
	.st22{opacity:0.6774;fill:#434444;}
	.st23{opacity:0.7097;fill:#3D3D3E;}
	.st24{opacity:0.7419;fill:#363637;}
	.st25{opacity:0.7742;fill:#2F3030;}
	.st26{opacity:0.8065;fill:#282929;}
	.st27{opacity:0.8387;fill:#222222;}
	.st28{opacity:0.871;fill:#1B1B1B;}
	.st29{opacity:0.9032;fill:#141415;}
	.st30{opacity:0.9355;fill:#0D0E0E;}
	.st31{opacity:0.9677;fill:#070707;}
	.st32{fill:#FFFFFF;}
	.st33{fill:#46B7E8;}
	.st34{fill:#297D9B;}
	.st35{fill:url(#SVGID_1_);}
</style>
<g class="st0">
	<path class="st1" d="M185.9,190.1c-9.3,1.3-18.7,3.1-28,5.5C31.4,228.4-43.7,354-9.8,476.3s163.9,194.8,290.4,162
		c116.6-30.2,189.4-139.2,173.7-251.7C453,376.9,185.9,190.1,185.9,190.1z"/>
	<path class="st2" d="M185,188.8c-9.3,1.3-18.7,3.1-28,5.5C30.5,227.1-44.5,352.7-10.6,474.9s163.9,194.8,290.4,162
		c116.6-30.2,189.4-139.2,173.7-251.7C452.2,375.6,185,188.8,185,188.8z"/>
	<path class="st3" d="M184.2,187.5c-9.3,1.3-18.7,3.1-28,5.5C29.7,225.7-45.4,351.4-11.5,473.6s163.9,194.8,290.4,162
		c116.6-30.2,189.4-139.2,173.7-251.7C451.3,374.3,184.2,187.5,184.2,187.5z"/>
	<path class="st4" d="M183.4,186.1c-9.3,1.3-18.7,3.1-28,5.5C28.9,224.4-46.2,350.1-12.3,472.3s163.9,194.8,290.4,162
		c116.6-30.2,189.4-139.2,173.7-251.7C450.5,372.9,183.4,186.1,183.4,186.1z"/>
	<path class="st5" d="M182.6,184.8c-9.3,1.3-18.7,3.1-28,5.5C28.1,223.1-47,348.7-13.1,471s163.9,194.8,290.4,162
		C393.9,602.8,466.8,493.8,451,381.2C449.7,371.6,182.6,184.8,182.6,184.8z"/>
	<path class="st6" d="M181.8,183.5c-9.3,1.3-18.7,3.1-28,5.5C27.3,221.8-47.8,347.4-13.9,469.6s163.9,194.8,290.4,162
		C393.1,601.5,466,492.5,450.2,379.9C448.9,370.3,181.8,183.5,181.8,183.5z"/>
	<path class="st7" d="M180.9,182.2c-9.3,1.3-18.7,3.1-28,5.5C26.4,220.5-48.6,346.1-14.7,468.3s163.9,194.8,290.4,162
		c116.6-30.2,189.4-139.2,173.7-251.7C448,369,180.9,182.2,180.9,182.2z"/>
	<path class="st8" d="M180.1,180.8c-9.3,1.3-18.7,3.1-28,5.5C25.6,219.1-49.5,344.8-15.6,467s163.9,194.8,290.4,162
		c116.6-30.2,189.4-139.2,173.7-251.7C447.2,367.6,180.1,180.8,180.1,180.8z"/>
	<path class="st9" d="M179.3,179.5c-9.3,1.3-18.7,3.1-28,5.5C24.8,217.8-50.3,343.4-16.4,465.7s163.9,194.8,290.4,162
		c116.6-30.2,189.4-139.2,173.7-251.7C446.4,366.3,179.3,179.5,179.3,179.5z"/>
	<path class="st10" d="M178.5,178.2c-9.3,1.3-18.7,3.1-28,5.5C24,216.5-51.1,342.1-17.2,464.3s163.9,194.8,290.4,162
		c116.6-30.2,189.4-139.2,173.7-251.7C445.6,365,178.5,178.2,178.5,178.2z"/>
	<path class="st11" d="M177.6,176.9c-9.3,1.3-18.7,3.1-28,5.5C23.1,215.2-51.9,340.8-18,463s163.9,194.8,290.4,162
		C389,594.9,461.9,485.8,446.1,373.3C444.8,363.7,177.6,176.9,177.6,176.9z"/>
	<path class="st12" d="M176.8,175.6c-9.3,1.3-18.7,3.1-28,5.5C22.3,213.8-52.8,339.5-18.9,461.7s163.9,194.8,290.4,162
		C388.1,593.5,461,484.5,445.3,372C443.9,362.4,176.8,175.6,176.8,175.6z"/>
	<path class="st13" d="M176,174.2c-9.3,1.3-18.7,3.1-28,5.5C21.5,212.5-53.6,338.1-19.7,460.4s163.9,194.8,290.4,162
		c116.6-30.2,189.4-139.2,173.7-251.7C443.1,361,176,174.2,176,174.2z"/>
	<path class="st14" d="M175.2,172.9c-9.3,1.3-18.7,3.1-28,5.5C20.7,211.2-54.4,336.8-20.5,459s163.9,194.8,290.4,162
		c116.6-30.2,189.4-139.2,173.7-251.7C442.3,359.7,175.2,172.9,175.2,172.9z"/>
	<path class="st15" d="M174.4,171.6c-9.3,1.3-18.7,3.1-28,5.5C19.9,209.9-55.2,335.5-21.3,457.7s163.9,194.8,290.4,162
		C385.7,589.6,458.6,480.5,442.8,368C441.5,358.4,174.4,171.6,174.4,171.6z"/>
	<path class="st16" d="M173.5,170.3c-9.3,1.3-18.7,3.1-28,5.5C19,208.5-56,334.2-22.1,456.4s163.9,194.8,290.4,162
		C384.9,588.2,457.7,479.2,442,366.7C440.6,357.1,173.5,170.3,173.5,170.3z"/>
	<path class="st17" d="M172.7,168.9c-9.3,1.3-18.7,3.1-28,5.5C18.2,207.2-56.9,332.8-23,455.1s163.9,194.8,290.4,162
		C384,586.9,456.9,477.9,441.2,365.3C439.8,355.7,172.7,168.9,172.7,168.9z"/>
	<path class="st18" d="M171.9,167.6c-9.3,1.3-18.7,3.1-28,5.5C17.4,205.9-57.7,331.5-23.8,453.8s163.9,194.8,290.4,162
		C383.2,585.6,456.1,476.6,440.3,364C439,354.4,171.9,167.6,171.9,167.6z"/>
	<path class="st19" d="M171.1,166.3c-9.3,1.3-18.7,3.1-28,5.5C16.6,204.6-58.5,330.2-24.6,452.4s163.9,194.8,290.4,162
		c116.6-30.2,189.4-139.2,173.7-251.7C438.2,353.1,171.1,166.3,171.1,166.3z"/>
	<path class="st20" d="M170.2,165c-9.3,1.3-18.7,3.1-28,5.5C15.7,203.2-59.3,328.9-25.4,451.1s163.9,194.8,290.4,162
		c116.6-30.2,189.4-139.2,173.7-251.7C437.4,351.8,170.2,165,170.2,165z"/>
	<path class="st21" d="M169.4,163.6c-9.3,1.3-18.7,3.1-28,5.5C14.9,201.9-60.2,327.6-26.3,449.8s163.9,194.8,290.4,162
		c116.6-30.2,189.4-139.2,173.7-251.7C436.5,350.4,169.4,163.6,169.4,163.6z"/>
	<path class="st22" d="M168.6,162.3c-9.3,1.3-18.7,3.1-28,5.5C14.1,200.6-61,326.2-27.1,448.5s163.9,194.8,290.4,162
		c116.6-30.2,189.4-139.2,173.7-251.7C435.7,349.1,168.6,162.3,168.6,162.3z"/>
	<path class="st23" d="M167.8,161c-9.3,1.3-18.7,3.1-28,5.5C13.3,199.3-61.8,324.9-27.9,447.1s163.9,194.8,290.4,162
		C379.1,579,452,470,436.2,357.4C434.9,347.8,167.8,161,167.8,161z"/>
	<path class="st24" d="M167,159.7c-9.3,1.3-18.7,3.1-28,5.5C12.5,198-62.6,323.6-28.7,445.8s163.9,194.8,290.4,162
		c116.6-30.2,189.4-139.2,173.7-251.7C434.1,346.5,167,159.7,167,159.7z"/>
	<path class="st25" d="M166.1,158.3c-9.3,1.3-18.7,3.1-28,5.5C11.6,196.6-63.4,322.3-29.5,444.5s163.9,194.8,290.4,162
		c116.6-30.2,189.4-139.2,173.7-251.7C433.2,345.1,166.1,158.3,166.1,158.3z"/>
	<path class="st26" d="M165.3,157c-9.3,1.3-18.7,3.1-28,5.5C10.8,195.3-64.3,320.9-30.4,443.2s163.9,194.8,290.4,162
		C376.6,575,449.5,466,433.8,353.4C432.4,343.8,165.3,157,165.3,157z"/>
	<path class="st27" d="M164.5,155.7c-9.3,1.3-18.7,3.1-28,5.5C10,194-65.1,319.6-31.2,441.8s163.9,194.8,290.4,162
		c116.6-30.2,189.4-139.2,173.7-251.7C431.6,342.5,164.5,155.7,164.5,155.7z"/>
	<path class="st28" d="M163.7,154.4c-9.3,1.3-18.7,3.1-28,5.5C9.2,192.7-65.9,318.3-32,440.5s163.9,194.8,290.4,162
		C375,572.4,447.9,463.3,432.1,350.8C430.8,341.2,163.7,154.4,163.7,154.4z"/>
	<path class="st29" d="M162.9,153.1c-9.3,1.3-18.7,3.1-28,5.5C8.3,191.3-66.7,317-32.8,439.2s163.9,194.8,290.4,162
		C374.2,571,447.1,462,431.3,349.5C430,339.9,162.9,153.1,162.9,153.1z"/>
	<path class="st30" d="M162,151.7c-9.3,1.3-18.7,3.1-28,5.5C7.5,190-67.5,315.6-33.7,437.9s163.9,194.8,290.4,162
		c116.6-30.2,189.4-139.2,173.7-251.7C429.1,338.5,162,151.7,162,151.7z"/>
	<path class="st31" d="M161.2,150.4c-9.3,1.3-18.7,3.1-28,5.5C6.7,188.7-68.4,314.3-34.5,436.5s163.9,194.8,290.4,162
		c116.6-30.2,189.4-139.2,173.7-251.7C428.3,337.2,161.2,150.4,161.2,150.4z"/>
	<path d="M160.4,149.1c-9.3,1.3-18.7,3.1-28,5.5C5.9,187.4-69.2,313-35.3,435.2s163.9,194.8,290.4,162
		C371.7,567.1,444.6,458,428.8,345.5C427.5,335.9,160.4,149.1,160.4,149.1z"/>
</g>
<path class="st32" d="M248,571.3c-111.7,28.9-226.5-35.1-256.4-143c-29.9-107.9,36.4-218.8,148.1-247.8c8.7-2.3,17.4-3.9,26.1-5.1
	c-2.3-8.8-4.1-17.6-5.3-26.3c-9.3,1.3-18.7,3.1-28,5.5C5.9,187.4-69.2,313-35.3,435.2c33.9,122.2,163.9,194.8,290.4,162
	C371.7,567.1,444.6,458,428.8,345.5c-9.3,1.3-18.5,2-27.7,2.2C415.8,447.6,351.3,544.6,248,571.3z"/>
<path class="st33" d="M1.1,431.4c29.9,107.9,144.7,172,256.4,143c103.4-26.8,167.8-123.7,153.2-223.6
	c-107,2.6-205.8-65.5-234.7-169.8c-0.2-0.8-0.4-1.7-0.7-2.5c-8.7,1.1-17.4,2.8-26.1,5.1C37.4,212.5-28.9,323.4,1.1,431.4z"/>
<g>
	<path class="st32" d="M143.7,277.8l1.2,4.2c3.4,12.2,1.7,21-5.8,27.2c11.4,1.2,18,9.2,21.5,21.7l2.7,9.7
		c5.1,18.3-2.2,30.8-21.5,35.8l-30.4,7.9L78.3,265.5l29.2-7.5C127.5,252.7,138.6,259.5,143.7,277.8z M102.4,277.4l8.7,31.4l7.6-2
		c7.2-1.9,10.7-6.1,8.1-15.6l-1.8-6.6c-2.4-8.5-6.4-11.4-13.2-9.7L102.4,277.4z M115.8,325.8l10.1,36.5l11.1-2.9
		c6.5-1.7,9.2-5.5,6.8-14.3l-2.9-10.4c-3.1-11-7.7-13.5-16.5-11.2L115.8,325.8z"/>
	<path class="st32" d="M149.6,247l19.3-5l32.9,118.8l-19.3,5L149.6,247z"/>
	<path class="st32" d="M226.6,283.5l27-7l10.4,37.7c5.3,19-1.6,32.4-20.5,37.3c-19,4.9-31.8-3.4-37.1-22.4l-17.1-61.8
		c-5.3-19,1.6-32.4,20.5-37.3c19-4.9,31.8,3.4,37.1,22.4l3.2,11.5l-18.3,4.7l-3.5-12.7c-2.4-8.5-7.1-10.7-13.3-9.1
		c-6.1,1.6-9.1,5.8-6.8,14.3l17.8,64.1c2.4,8.5,7.1,10.5,13.2,8.9c6.1-1.6,9.2-5.6,6.8-14.1l-6.1-21.9l-8.8,2.3L226.6,283.5z"/>
</g>
<g>
	<path class="st34" d="M98.1,406.7c18.8-4.9,31.5,3.5,36.7,22.5l1,3.7l-18.3,4.7l-1.4-4.9c-2.4-8.5-6.8-10.8-12.9-9.2
		c-6.1,1.6-8.8,5.7-6.4,14.2c6.8,24.4,45.8,19.2,55.2,53.2c5.3,19-1.6,32.4-20.5,37.3c-19,4.9-31.8-3.4-37.1-22.4l-2-7.3l18.3-4.7
		l2.4,8.5c2.4,8.5,7.1,10.5,13.2,8.9c6.1-1.6,9.2-5.6,6.8-14.1c-6.8-24.4-45.8-19.2-55.2-53.2C72.7,425,79.3,411.6,98.1,406.7z"/>
	<path class="st34" d="M233.7,500.4l-19.5,5l-9.3-20.7l-23.7,6.1l2.6,22.4l-17.7,4.6l-13.3-123.9l28.3-7.3L233.7,500.4z
		 M179.1,474.2l18.6-4.8l-26-57.7L179.1,474.2z"/>
	<path class="st34" d="M209.7,379.3l19.3-5l28.2,101.8l31.8-8.2l4.7,17l-51.1,13.2L209.7,379.3z"/>
	<path class="st34" d="M302.4,409l26.5-6.9l4.7,17l-26.5,6.9l9.6,34.8l33.4-8.6l4.7,17l-52.7,13.6l-32.9-118.8l52.7-13.6l4.7,17
		l-33.4,8.6L302.4,409z"/>
</g>
<linearGradient id="SVGID_1_" gradientUnits="userSpaceOnUse" x1="231.3225" y1="307.5639" x2="339.0329" y2="204.9827">
	<stop  offset="0" style="stop-color:#FFFFFF"/>
	<stop  offset="0.1665" style="stop-color:#FAFAFA"/>
	<stop  offset="0.3725" style="stop-color:#EBEBEB"/>
	<stop  offset="0.5992" style="stop-color:#D1D2D3"/>
	<stop  offset="0.8392" style="stop-color:#AFB0B2"/>
	<stop  offset="1" style="stop-color:#939598"/>
</linearGradient>
<path class="st35" d="M160.4,149.1c1.2,8.8,3,17.6,5.3,26.3c0.2,0.8,0.4,1.7,0.7,2.5c28.9,104.3,127.8,172.3,234.7,169.8
	c9.2-0.2,18.4-1,27.7-2.2C427.5,335.9,160.4,149.1,160.4,149.1z"/>
</svg>
