<?xml version="1.0" encoding="iso-8859-1"?>
<!-- Generator: Adobe Illustrator 19.0.0, SVG Export Plug-In . SVG Version: 6.00 Build 0)  -->
<svg version="1.1" id="Capa_1" xmlns="http://www.w3.org/2000/svg" xmlns:xlink="http://www.w3.org/1999/xlink" x="0px" y="0px"
	 viewBox="0 0 56.042 56.042" style="enable-background:new 0 0 56.042 56.042;" xml:space="preserve">
<path style="fill:#A5A5A4;" d="M5.022,38.906c-0.552,0-1-0.447-1-1v-3.233c0-0.553,0.448-1,1-1s1,0.447,1,1v3.233
	C6.022,38.458,5.574,38.906,5.022,38.906z"/>
<path style="fill:#A5A5A4;" d="M9.022,39.906c-0.552,0-1-0.447-1-1v-2.89c0-0.553,0.448-1,1-1s1,0.447,1,1v2.89
	C10.022,39.458,9.574,39.906,9.022,39.906z"/>
<path style="fill:#A5A5A4;" d="M13.022,39.906c-0.552,0-1-0.447-1-1v-2.284c0-0.553,0.448-1,1-1s1,0.447,1,1v2.284
	C14.022,39.458,13.574,39.906,13.022,39.906z"/>
<path style="fill:#A5A5A4;" d="M49.022,39.885c-0.553,0-1-0.447-1-1v-2.173c0-0.553,0.447-1,1-1s1,0.447,1,1v2.173
	C50.022,39.438,49.575,39.885,49.022,39.885z"/>
<path style="fill:#A5A5A4;" d="M45.022,39.99c-0.552,0-1-0.447-1-1v-2.506c0-0.553,0.448-1,1-1c0.553,0,1,0.447,1,1v2.506
	C46.022,39.542,45.575,39.99,45.022,39.99z"/>
<path style="fill:#A5A5A4;" d="M41.022,39.99c-0.552,0-1-0.447-1-1v-3.503c0-0.553,0.448-1,1-1s1,0.447,1,1v3.503
	C42.022,39.542,41.574,39.99,41.022,39.99z"/>
<path style="fill:#ECF0F1;" d="M55.512,25.477c-0.067-0.237-0.163-0.461-0.258-0.682l-2.413-6.417
	c-0.433-1.152-1.972-1.363-2.699-0.37c-1.326,1.812-3.466,3.128-5.71,3.044h-4.411l-4-4.468c-0.813-0.58-1.864-0.696-2.78-0.299
	c-1.643,0.712-3.513,1.986-5.737,3.396l5.252,5.693c0.375,0.405,0.349,1.038-0.057,1.413c-0.192,0.177-0.436,0.265-0.678,0.265
	c-0.27,0-0.539-0.108-0.735-0.322l-5.377-5.829c-0.046-0.05-0.067-0.111-0.101-0.167c-0.744,0.448-1.524,0.9-2.347,1.343
	l4.268,4.268c0.391,0.391,0.391,1.023,0,1.414c-0.195,0.195-0.451,0.293-0.707,0.293s-0.512-0.098-0.707-0.293l-4.5-4.5
	c-0.078-0.078-0.128-0.17-0.174-0.263c-0.724,0.347-1.472,0.685-2.258,1.002l3.347,3.347c0.391,0.391,0.391,1.023,0,1.414
	c-0.195,0.195-0.451,0.293-0.707,0.293s-0.512-0.098-0.707-0.293l-3.668-3.668c-0.109-0.109-0.18-0.239-0.228-0.376
	c-0.857,0.288-1.741,0.557-2.672,0.788c-1.09,0.27-2.215,0.402-3.338,0.548H3.726c-1.523-0.146-2.892,0.781-3.458,2.195v0
	c-0.652,1.63-0.085,3.498,1.375,4.472c0.039,0.026,0.079,0.052,0.119,0.079c4.515,2.981,9.753,4.276,15.14,3.771
	c3.817-0.357,9.697-0.978,14.115-1.764c2.641-0.47,5.346-0.414,7.958,0.2l5.214,1.227l0.07,0.024
	c0.067,0.024,0.136,0.047,0.205,0.069C50.136,38.124,58.189,34.948,55.512,25.477z"/>
<path style="fill:#D1D4D1;" d="M39.694,20.686l-3.672-4.102c-0.813-0.58-1.864-0.696-2.78-0.299
	c-1.643,0.712-3.513,1.986-5.737,3.396l5.252,5.693c0.375,0.405,0.349,1.038-0.057,1.413c-0.192,0.177-0.436,0.265-0.678,0.265
	c-0.27,0-0.539-0.108-0.735-0.322l-5.377-5.829c-0.046-0.05-0.067-0.111-0.101-0.167c-0.744,0.448-1.524,0.9-2.347,1.343
	l4.268,4.268c0.391,0.391,0.391,1.023,0,1.414c-0.195,0.195-0.451,0.293-0.707,0.293s-0.512-0.098-0.707-0.293l-4.5-4.5
	c-0.078-0.078-0.128-0.17-0.174-0.263c-0.724,0.347-1.472,0.685-2.258,1.002l3.347,3.347c0.391,0.391,0.391,1.023,0,1.414
	c-0.195,0.195-0.451,0.293-0.707,0.293s-0.512-0.098-0.707-0.293l-3.668-3.668c-0.109-0.109-0.18-0.239-0.228-0.376
	c-0.857,0.288-1.741,0.557-2.672,0.788c-1.09,0.27-2.215,0.402-3.338,0.548h-5.49c0.912,0.335,1.905,0.669,3.005,1
	C29.181,33.142,37.017,25.148,39.694,20.686z"/>
<g>
	<path style="fill:#0096E6;" d="M31.612,17.299c0.144-0.082,0.293-0.17,0.434-0.246C31.905,17.128,31.755,17.217,31.612,17.299z"/>
	<path style="fill:#0096E6;" d="M55.999,28.255c-0.535,6.06-6.846,7.978-11.537,6.49c-0.069-0.022-0.138-0.045-0.205-0.069
		l-0.07-0.024l-5.214-1.227c-2.611-0.615-5.317-0.67-7.958-0.2c-4.417,0.786-10.298,1.407-14.115,1.764
		c-5.386,0.504-10.625-0.79-15.14-3.771c-0.04-0.026-0.079-0.053-0.119-0.079c-0.797-0.532-1.317-1.333-1.528-2.214
		c-0.366,1.497,0.217,3.092,1.528,3.967c0.039,0.026,0.079,0.052,0.119,0.079c4.515,2.981,9.753,4.276,15.14,3.771
		c3.817-0.357,9.697-0.978,14.115-1.764c2.641-0.47,5.346-0.414,7.958,0.2l5.214,1.227l0.07,0.024
		c0.067,0.024,0.136,0.047,0.205,0.069C49.579,38.121,56.628,35.695,55.999,28.255z"/>
</g>
<path style="fill:#0096E6;" d="M31.287,26.73c0.197,0.214,0.466,0.322,0.735,0.322c0.242,0,0.485-0.088,0.678-0.265
	c0.406-0.375,0.431-1.008,0.057-1.413l-5.252-5.693c-0.545,0.345-1.106,0.697-1.696,1.053c0.034,0.056,0.055,0.117,0.101,0.167
	L31.287,26.73z"/>
<path style="fill:#0096E6;" d="M26.315,27.759c0.195,0.195,0.451,0.293,0.707,0.293s0.512-0.098,0.707-0.293
	c0.391-0.391,0.391-1.023,0-1.414l-4.268-4.268c-0.583,0.314-1.195,0.619-1.821,0.919c0.047,0.093,0.097,0.185,0.174,0.263
	L26.315,27.759z"/>
<path style="fill:#0096E6;" d="M21.315,28.759c0.195,0.195,0.451,0.293,0.707,0.293s0.512-0.098,0.707-0.293
	c0.391-0.391,0.391-1.023,0-1.414l-3.347-3.347c-0.631,0.254-1.29,0.491-1.964,0.717c0.048,0.137,0.119,0.266,0.228,0.376
	L21.315,28.759z"/>
<g>
</g>
<g>
</g>
<g>
</g>
<g>
</g>
<g>
</g>
<g>
</g>
<g>
</g>
<g>
</g>
<g>
</g>
<g>
</g>
<g>
</g>
<g>
</g>
<g>
</g>
<g>
</g>
<g>
</g>
</svg>
