<?xml version="1.0" encoding="iso-8859-1"?>
<!-- Generator: Adobe Illustrator 19.0.0, SVG Export Plug-In . SVG Version: 6.00 Build 0)  -->
<svg version="1.1" id="Capa_1" xmlns="http://www.w3.org/2000/svg" xmlns:xlink="http://www.w3.org/1999/xlink" x="0px" y="0px"
	 viewBox="0 0 58.016 58.016" style="enable-background:new 0 0 58.016 58.016;" xml:space="preserve">
<circle style="fill:#556080;" cx="22.017" cy="40.507" r="17.509"/>
<g>
	<path style="fill:#F5EFCA;" d="M49.88,25.681c-1.761-3.56-2.694-7.466-2.694-11.438c0.138-2.48,0.266-5.729,0.754-7.555
		c0.311-1.165,0.363-2.396,0.039-3.558c-0.99-3.554-4.076-3.113-4.076-3.113s-3.407-0.487-4.21,3.686
		c-0.192,0.999-0.078,2.03,0.181,3.014c0.481,1.831,0.838,5.105,0.746,7.526c0,3.971-0.933,7.878-2.694,11.438
		c-0.642,1.298-1.314,2.779-1.916,4.334c0,0,0,0,0,0c2.198,2.926,3.516,6.551,3.516,10.492c0,4.24-1.527,8.109-4.035,11.136
		c-0.002,0.025-0.004,0.05-0.006,0.075c0.029,0.092,0.051,0.187,0.083,0.278c1.052,3.01,2.693,6.019,5.053,6.019h6.566
		c2.36,0,3.757-3.006,4.809-6.016c1.044-2.987,1.513-6.144,1.513-9.308v-4.371C53.394,34.16,51.642,29.243,49.88,25.681z"/>
</g>
<circle style="fill:#38454F;" cx="14.508" cy="35" r="3"/>
<circle style="fill:#38454F;" cx="20.508" cy="29" r="3"/>
<circle style="fill:#38454F;" cx="24.508" cy="37.016" r="3"/>
<path style="fill:#E64C3C;" d="M40.239,19h7.328c-0.251-1.441-0.381-3.284-0.381-4.756c0.038-0.686,0.076-1.431,0.121-2.189h-6.711
	c0.038,0.762,0.05,1.51,0.025,2.189C40.62,15.716,40.491,17.559,40.239,19z"/>
<g>
</g>
<g>
</g>
<g>
</g>
<g>
</g>
<g>
</g>
<g>
</g>
<g>
</g>
<g>
</g>
<g>
</g>
<g>
</g>
<g>
</g>
<g>
</g>
<g>
</g>
<g>
</g>
<g>
</g>
</svg>
