<?xml version="1.0" encoding="iso-8859-1"?>
<!-- Generator: Adobe Illustrator 19.0.0, SVG Export Plug-In . SVG Version: 6.00 Build 0)  -->
<svg version="1.1" id="Capa_1" xmlns="http://www.w3.org/2000/svg" xmlns:xlink="http://www.w3.org/1999/xlink" x="0px" y="0px"
	 viewBox="0 0 58 58" style="enable-background:new 0 0 58 58;" xml:space="preserve">
<polygon style="fill:#38454F;" points="50,12 8,12 9,3 49,3 "/>
<rect x="22" y="3" style="fill:#546A79;" width="13" height="9"/>
<path style="fill:#FFFFFF;" d="M35,7H22c-0.552,0-1-0.447-1-1s0.448-1,1-1h13c0.552,0,1,0.447,1,1S35.552,7,35,7z"/>
<path style="fill:#FFFFFF;" d="M35,10H22c-0.552,0-1-0.447-1-1s0.448-1,1-1h13c0.552,0,1,0.447,1,1S35.552,10,35,10z"/>
<polygon style="fill:#CC4B4C;" points="49,12 30,12 30,45.75 33,51 46,54 58,51 "/>
<polygon style="fill:#CC4B4C;" points="9,12 0,51 13,55 25,51 28,45.75 28,12 "/>
<polygon style="fill:#C03A2B;" points="29,12 28,12 28,45.75 29,44 30,45.75 30,12 "/>
<polygon style="fill:#FFFFFF;" points="13,55 13.219,54.927 22,12 16,12 7.548,53.322 "/>
<polygon style="fill:#FFFFFF;" points="46,54 48.465,53.384 40,12 34,12 42.422,53.174 "/>
<g>
</g>
<g>
</g>
<g>
</g>
<g>
</g>
<g>
</g>
<g>
</g>
<g>
</g>
<g>
</g>
<g>
</g>
<g>
</g>
<g>
</g>
<g>
</g>
<g>
</g>
<g>
</g>
<g>
</g>
</svg>
