<?xml version="1.0" encoding="utf-8"?>
<!-- Generator: Adobe Illustrator 19.0.0, SVG Export Plug-In . SVG Version: 6.00 Build 0)  -->
<svg version="1.1" id="Layer_1" xmlns="http://www.w3.org/2000/svg" xmlns:xlink="http://www.w3.org/1999/xlink" x="0px" y="0px"
	 viewBox="-46 311.9 518.1 168" enable-background="new -46 311.9 518.1 168" xml:space="preserve">
<path fill="#D7E4EA" d="M41.6,340.1c-49.2,0-64.2,20.8-71.9,39c-9,21.3-10.2,47.7-3.9,85.5c0.1,0.6,0.5,1.2,1,1.6
	c1.4,0.9,3.9,2.7,93.8,2.7c67.2,0,155.4-1,219.8-1.7c33.4-0.4,59.7-0.6,70.2-0.6c64,0,65.8-48.6,65.8-54.2c0-3,0.1-7.2,0.3-12.1
	c0.8-27.2,1-52.1-4.9-58.4c-1.1-1.2-2.4-1.8-3.9-1.8H41.6z"/>
<g>
	<g>
		<path fill="#EC4F51" d="M453.1,325.8H49.7c-50.9,0-66.2,21.5-74.5,42.6c-9.3,23.7-10.6,53.3-4.2,95.9c4.8,0.9,25,2.1,99.7,2.1
			c74,0,171.1-1.1,242-1.9c36.8-0.4,65.8-0.8,77.3-0.8c64.2,0,67.5-48.5,67.5-58.2c0-3.6,0.1-8.6,0.3-14.4c0.6-20.4,1.6-58.4-4-64.7
			C453.4,325.8,453.2,325.8,453.1,325.8z"/>
		<path fill="#9D3132" d="M457.4,322.4c-1.2-1.4-2.7-2.1-4.3-2.1H49.7c-54.1,0-70.7,24.5-79.1,45.9c-9.9,25.1-11.2,56.2-4.3,100.8
			c0.1,0.8,0.5,1.4,1.1,1.9c1.5,1.1,4.3,3.2,103.3,3.2c74,0,171.1-1.1,242.1-1.9c36.7-0.4,65.8-0.8,77.3-0.8
			c70.5,0,72.5-57.3,72.5-63.8c0-3.5,0.1-8.5,0.3-14.3C463.6,359.2,463.9,329.8,457.4,322.4z M457.7,391c-0.2,5.8-0.3,10.8-0.3,14.4
			c0,9.7-3.3,58.2-67.5,58.2c-11.5,0-40.6,0.3-77.3,0.8c-70.9,0.8-168,1.9-242,1.9c-74.7,0-94.9-1.2-99.7-2.1
			c-6.4-42.5-5.1-72.1,4.2-95.9c8.3-21.1,23.6-42.6,74.5-42.6h403.4c0.1,0,0.3,0,0.7,0.4C459.3,332.6,458.3,370.6,457.7,391z"/>
		<path fill="#E44047" d="M455.1,421.9c-63.9,19.2-405.8,16.7-436.7-5.9C-4.4,399.3-0.2,357.3,4,334.7
			c-16.3,8.2-23.9,21.1-28.9,33.7c-9.3,23.7-10.6,53.3-4.2,95.9c4.8,0.9,25,2.1,99.7,2.1c74,0,171.1-1.1,242-1.9
			c36.8-0.4,65.8-0.8,77.3-0.8C435.2,463.7,450.2,439.5,455.1,421.9z"/>
		<path fill="#EF7971" d="M388.8,343c-0.6-1.7-2.1-2.8-3.6-3.6c-6.4-3.5-13.7-4-20.9-4.5c-10.1-0.7-20.2-1.3-30.4-2
			c-13.5-0.9-27-1.8-40.5-0.2c-8.6,1-17.1,3-25.3,6.2c-3.1,1.2-6.9,3.9-5.9,7.5c0.8,2.8,3.9,3.6,6.5,3.9c37.3,4.4,75.2,8.7,112.1,1
			C385,350.4,390.2,347.3,388.8,343z"/>
		<path fill="#EF7971" d="M439.9,342.7c-0.5-2.5-3-4.1-5.3-5c-9.3-3.8-19.8-2.5-29.3,0.5c-2,0.6-4.1,1.4-5.5,3.1
			c-1.4,1.7-1.6,4.6,0,6c0.7,0.6,1.5,0.8,2.3,1c9.1,2.4,18.6,3.2,27.9,2.5c2.4-0.2,4.8-0.5,6.8-1.8
			C438.9,347.6,440.4,345.1,439.9,342.7z"/>
	</g>
	<g>
		<path fill="#FFFFFF" d="M98.8,387.2c-3.1,0-5.3,4-5.3,9.9c0,6,2.2,9.9,5.3,9.9c2.3,0,4.1-1.4,5.2-4.6l6.4,5.7
			c-2.1,6.3-6.4,9.8-12,9.8c-8.2,0-13.6-8.2-13.6-20.7c0-12.7,5.5-21.1,13.7-21.1c5.3,0,9.5,3.6,11.8,9.7l-6.3,5.7
			C102.8,388.8,101,387.2,98.8,387.2z"/>
		<path fill="#FFFFFF" d="M140.4,397c0,12.6-5.8,20.9-14.5,20.9s-14.4-8.3-14.4-20.9c0-12.6,5.7-20.9,14.4-20.9
			S140.4,384.4,140.4,397z M120.2,397.1c0,6.1,2.3,10.2,5.7,10.2c3.4,0,5.7-4.1,5.7-10.2c0-6-2.3-10.1-5.7-10.1
			C122.5,387,120.2,391.1,120.2,397.1z"/>
		<path fill="#FFFFFF" d="M171.9,391.7v25.8h-8.7v-21.9c0-4.6-1.8-7.5-4.5-7.5c-2.9,0.1-4.8,3.2-5.2,7.8v21.6h-8.7v-40.9h8.7v6.7
			c1.9-4.7,4.9-7.2,8.8-7.2C168.1,376,171.9,382.1,171.9,391.7z"/>
		<path fill="#FFFFFF" d="M195.1,415.3c-1.9,1.7-4.6,2.7-7.1,2.7c-5.1,0.1-8.9-4.6-8.9-13.1v-17.5h-3.7v-8.9h3.7v-11.3h8.7v11.3h6.9
			v8.9h-6.9v15.4c0,3,0.9,4.4,2.4,4.3c0.9,0,2-0.5,3.3-1.4L195.1,415.3z"/>
		<path fill="#FFFFFF" d="M222.8,390.9v26.6h-8.6v-4.6c-1.7,3.4-4.4,5.2-8,5.2c-5.7,0-9.1-5.3-9.1-12.8c0-7.8,3.6-12.2,10.1-12.4
			h6.9v-0.5c0-3.9-1.7-6.1-5-6.1c-2.2,0-5.1,1.1-7.9,3.3l-2.4-9.1c4.2-2.9,8-4.5,12.3-4.5C218.5,376,222.7,381.5,222.8,390.9z
			 M214.2,403.6v-3.6H209c-2.4,0-3.7,1.4-3.7,4.2c0,2.8,1.3,4.6,3.6,4.6C211.5,408.9,213.7,406.7,214.2,403.6z"/>
		<path fill="#FFFFFF" d="M240.5,387.2c-3.1,0-5.3,4-5.3,9.9c0,6,2.2,9.9,5.3,9.9c2.3,0,4.1-1.4,5.2-4.6l6.4,5.7
			c-2.1,6.3-6.4,9.8-12,9.8c-8.2,0-13.6-8.2-13.6-20.7c0-12.7,5.5-21.1,13.7-21.1c5.3,0,9.5,3.6,11.8,9.7l-6.3,5.7
			C244.5,388.8,242.8,387.2,240.5,387.2z"/>
		<path fill="#FFFFFF" d="M273.4,415.3c-1.9,1.7-4.6,2.7-7.1,2.7c-5.1,0.1-8.9-4.6-8.9-13.1v-17.5h-3.7v-8.9h3.7v-11.3h8.7v11.3h6.9
			v8.9H266v15.4c0,3,0.9,4.4,2.4,4.3c0.9,0,2-0.5,3.3-1.4L273.4,415.3z"/>
		<path fill="#FFFFFF" d="M318.1,376.6v40.9h-8.7v-6.7c-1.8,4.8-4.7,7.2-8.5,7.3c-5.7,0-9.4-6.1-9.4-15.7v-25.9h8.7v22
			c0,4.6,1.7,7.4,4.3,7.4c3.1-0.1,4.9-3.9,4.9-9.2v-20.2H318.1z"/>
		<path fill="#FFFFFF" d="M334,385.3c-1.5,0-2.5,0.8-2.5,2.6c0,5.4,13.9,2.8,13.8,17c0,8.4-4.7,13.2-11.2,13.2
			c-4.5,0-8.7-2-11.9-5.8l2.7-8.7c3,3.3,6.5,5.1,9.4,5.1c1.6,0,2.8-0.8,2.8-2.5c0-5.6-13.7-2.8-13.7-16.9c0-8.5,4.6-13.2,10.9-13.2
			c3.8,0,7.7,1.7,11,4.8l-2.9,8.8C339.1,386.8,336.1,385.3,334,385.3z"/>
	</g>
	<path fill="#FFFFFF" d="M396.6,396.4c-9.6-2.2-21-0.4-30.7,0.1c-2,0.1-2,3.4,0,3.5c9.7,0.5,21.2,2.3,30.7,0.1
		C398.3,399.7,398.3,396.7,396.6,396.4z"/>
	<path fill="#FFFFFF" d="M28.2,400.1c9.6,2.2,21,0.4,30.7-0.1c2-0.1,2-3.4,0-3.5c-9.7-0.5-21.2-2.3-30.7-0.1
		C26.6,396.7,26.6,399.7,28.2,400.1z"/>
</g>
</svg>
