<?xml version="1.0" encoding="utf-8"?>
<!-- Generator: Adobe Illustrator 19.0.0, SVG Export Plug-In . SVG Version: 6.00 Build 0)  -->
<svg version="1.1" id="Layer_1" xmlns="http://www.w3.org/2000/svg" xmlns:xlink="http://www.w3.org/1999/xlink" x="0px" y="0px"
	 viewBox="-46 338.9 518.1 137" enable-background="new -46 338.9 518.1 137" xml:space="preserve">
<g>
	<g>
		<g opacity="0.5">
			
				<image overflow="visible" width="1960" height="643" xlink:href="A30E07AA.png"  transform="matrix(0.2552 0 0 0.2724 -40.12 321.694)">
			</image>
		</g>
	</g>
	<path fill="#399ABF" d="M374.5,451.6H45.2c-22.6,0-41-18.4-41-41v-11.1c0-22.6,18.4-41,41-41h329.3c22.6,0,41,18.4,41,41v11.1
		C415.5,433.3,397.1,451.6,374.5,451.6z"/>
	<path fill="#57DFFF" d="M374.5,442.3H45.2c-22.6,0-41-18.4-41-41v-11.1c0-22.6,18.4-41,41-41h329.3c22.6,0,41,18.4,41,41v11.1
		C415.5,424,397.1,442.3,374.5,442.3z"/>
	<path fill="#39BEE1" d="M374.5,446.1H45.2c-22.6,0-41-18.4-41-41v-11.1c0-22.6,18.4-41,41-41h329.3c22.6,0,41,18.4,41,41v11.1
		C415.5,427.8,397.1,446.1,374.5,446.1z"/>
	<g>
		<g>
			<path fill="#EDEDED" d="M109.8,384.7c-2.1,0-3.7,0.8-4.8,2.5c-1.1,1.7-1.7,4-1.7,7c0,6.2,2.2,9.3,6.5,9.3c1.8,0,4-0.5,6.6-1.5
				v4.9c-2.1,1-4.5,1.4-7.2,1.4c-3.8,0-6.7-1.2-8.7-3.7s-3-6-3-10.6c0-2.9,0.5-5.4,1.5-7.6c1-2.2,2.4-3.8,4.2-5
				c1.8-1.2,4-1.7,6.5-1.7c2.5,0,5.1,0.7,7.6,2l-1.8,4.8c-1-0.5-2-0.9-2.9-1.3C111.7,384.8,110.8,384.7,109.8,384.7z"/>
			<path fill="#EDEDED" d="M145.6,394c0,4.6-1.1,8.1-3.2,10.6c-2.1,2.5-5.2,3.7-9.2,3.7c-4,0-7-1.2-9.2-3.7c-2.1-2.5-3.2-6-3.2-10.6
				s1.1-8.2,3.2-10.6c2.1-2.4,5.2-3.7,9.2-3.7s7.1,1.2,9.2,3.7S145.6,389.4,145.6,394z M126.6,394c0,3.1,0.6,5.4,1.7,7
				c1.1,1.6,2.8,2.4,4.9,2.4c4.4,0,6.6-3.1,6.6-9.4c0-6.3-2.2-9.4-6.6-9.4c-2.2,0-3.9,0.8-5,2.4S126.6,390.9,126.6,394z"/>
			<path fill="#EDEDED" d="M174.1,407.9h-7l-11.3-21h-0.2c0.2,3.7,0.3,6.4,0.3,7.9v13.1H151v-27.8h7l11.3,20.8h0.1
				c-0.2-3.6-0.3-6.2-0.3-7.7v-13.1h5V407.9z"/>
			<path fill="#EDEDED" d="M190.7,407.9h-5.5V385h-7.1v-4.9h19.6v4.9h-7.1V407.9z"/>
			<path fill="#EDEDED" d="M217.7,407.9l-1.9-6.6h-9.5l-1.9,6.6h-5.9l9.2-27.9h6.7l9.2,27.9H217.7z M214.5,396.4
				c-1.7-6-2.7-9.4-2.9-10.2c-0.2-0.8-0.4-1.4-0.5-1.9c-0.4,1.6-1.5,5.6-3.4,12H214.5z"/>
			<path fill="#EDEDED" d="M238,384.7c-2.1,0-3.7,0.8-4.8,2.5c-1.1,1.7-1.7,4-1.7,7c0,6.2,2.2,9.3,6.5,9.3c1.8,0,4-0.5,6.6-1.5v4.9
				c-2.1,1-4.5,1.4-7.2,1.4c-3.8,0-6.7-1.2-8.7-3.7s-3-6-3-10.6c0-2.9,0.5-5.4,1.5-7.6c1-2.2,2.4-3.8,4.2-5c1.8-1.2,4-1.7,6.5-1.7
				c2.5,0,5.1,0.7,7.6,2l-1.8,4.8c-1-0.5-2-0.9-2.9-1.3C239.9,384.8,238.9,384.7,238,384.7z"/>
			<path fill="#EDEDED" d="M260.2,407.9h-5.5V385h-7.1v-4.9h19.7v4.9h-7.1V407.9z"/>
			<path fill="#EDEDED" d="M301.9,380.1v18c0,2.1-0.4,3.9-1.3,5.4s-2.1,2.7-3.7,3.6c-1.6,0.8-3.5,1.2-5.8,1.2
				c-3.3,0-5.9-0.9-7.8-2.7c-1.9-1.8-2.8-4.3-2.8-7.5v-17.9h5.5v17c0,2.1,0.4,3.7,1.2,4.7c0.8,1,2.1,1.5,4,1.5
				c1.8,0,3.1-0.5,3.9-1.5s1.2-2.6,1.2-4.7v-17H301.9z"/>
			<path fill="#EDEDED" d="M323.6,400.2c0,2.5-0.8,4.5-2.5,5.9c-1.7,1.4-4,2.2-7.1,2.2c-2.8,0-5.2-0.6-7.4-1.7v-5.5
				c1.8,0.8,3.2,1.4,4.5,1.8c1.2,0.3,2.3,0.5,3.3,0.5c1.2,0,2.1-0.2,2.8-0.7c0.6-0.5,1-1.2,1-2.2c0-0.5-0.1-1-0.4-1.5
				c-0.3-0.4-0.7-0.8-1.3-1.2c-0.6-0.4-1.7-1-3.4-1.9c-1.6-0.8-2.8-1.6-3.6-2.3c-0.8-0.7-1.4-1.6-1.9-2.6s-0.7-2.1-0.7-3.4
				c0-2.5,0.8-4.4,2.3-5.8c1.6-1.4,3.7-2.1,6.5-2.1c1.4,0,2.6,0.2,3.9,0.5c1.2,0.3,2.5,0.8,3.9,1.4l-1.8,4.6c-1.4-0.6-2.5-1-3.4-1.3
				c-0.9-0.2-1.8-0.4-2.7-0.4c-1,0-1.8,0.3-2.4,0.8s-0.8,1.2-0.8,2c0,0.5,0.1,1,0.3,1.4c0.2,0.4,0.6,0.8,1.1,1.1
				c0.5,0.4,1.7,1,3.5,1.9c2.4,1.2,4.1,2.5,5,3.7C323.2,396.9,323.6,398.4,323.6,400.2z"/>
		</g>
	</g>
	<g>
		<g>
			<path fill="#EDEDED" d="M146.3,415.7h3.7v0.8h-2.8v2.5h2.6v0.8h-2.6v3.4h-0.9V415.7z"/>
			<path fill="#EDEDED" d="M157.4,420.5c0,2-1.3,2.8-2.5,2.8c-1.3,0-2.4-1.1-2.4-2.7c0-1.8,1.1-2.8,2.5-2.8
				C156.4,417.7,157.4,418.8,157.4,420.5z M153.4,420.5c0,1.2,0.6,2,1.5,2c0.9,0,1.5-0.9,1.5-2.1c0-0.9-0.4-2-1.5-2
				S153.4,419.5,153.4,420.5z"/>
			<path fill="#EDEDED" d="M160.5,419.5c0-0.6,0-1.2,0-1.7h0.8l0,1h0c0.2-0.7,0.8-1.2,1.4-1.2c0.1,0,0.2,0,0.3,0v0.9
				c-0.1,0-0.2,0-0.3,0c-0.6,0-1.1,0.5-1.2,1.2c0,0.1,0,0.3,0,0.5v2.8h-0.9V419.5z"/>
			<path fill="#EDEDED" d="M175.8,419.9c-0.1-1-0.1-2.3-0.1-3.2h0c-0.2,0.9-0.5,1.8-0.9,2.8l-1.2,3.6h-0.7l-1.1-3.5
				c-0.3-1-0.6-2-0.8-2.9h0c0,0.9-0.1,2.2-0.1,3.3l-0.2,3.2h-0.9l0.5-7.4h1.1l1.2,3.6c0.3,0.9,0.5,1.7,0.7,2.5h0
				c0.2-0.7,0.4-1.6,0.7-2.5l1.2-3.6h1.1l0.4,7.4h-0.9L175.8,419.9z"/>
			<path fill="#EDEDED" d="M184.7,420.5c0,2-1.3,2.8-2.5,2.8c-1.3,0-2.4-1.1-2.4-2.7c0-1.8,1.1-2.8,2.5-2.8
				C183.7,417.7,184.7,418.8,184.7,420.5z M180.7,420.5c0,1.2,0.6,2,1.5,2c0.9,0,1.5-0.9,1.5-2.1c0-0.9-0.4-2-1.5-2
				S180.7,419.5,180.7,420.5z"/>
			<path fill="#EDEDED" d="M187.7,419.5c0-0.6,0-1.2,0-1.7h0.8l0,1h0c0.2-0.7,0.8-1.2,1.4-1.2c0.1,0,0.2,0,0.3,0v0.9
				c-0.1,0-0.2,0-0.3,0c-0.6,0-1.1,0.5-1.2,1.2c0,0.1,0,0.3,0,0.5v2.8h-0.9V419.5z"/>
			<path fill="#EDEDED" d="M193.5,420.7c0,1.3,0.8,1.8,1.7,1.8c0.6,0,1-0.1,1.4-0.3l0.2,0.7c-0.3,0.2-0.9,0.3-1.7,0.3
				c-1.5,0-2.5-1.1-2.5-2.7s0.9-2.9,2.3-2.9c1.6,0,2.1,1.5,2.1,2.5c0,0.2,0,0.4,0,0.5H193.5z M196.1,420c0-0.6-0.2-1.6-1.3-1.6
				c-0.9,0-1.3,0.9-1.4,1.6H196.1z"/>
			<path fill="#EDEDED" d="M205.1,415.7v7.4h-0.9v-7.4H205.1z"/>
			<path fill="#EDEDED" d="M208.7,419.3c0-0.5,0-1,0-1.4h0.8l0.1,0.9h0c0.2-0.5,0.8-1,1.6-1c0.7,0,1.8,0.4,1.8,2.3v3.2H212v-3.1
				c0-0.9-0.3-1.6-1.2-1.6c-0.6,0-1.1,0.5-1.2,1c0,0.1-0.1,0.3-0.1,0.5v3.2h-0.9V419.3z"/>
			<path fill="#EDEDED" d="M216.4,423.2v-4.6h-0.7v-0.7h0.7v-0.3c0-0.7,0.2-1.4,0.6-1.9c0.3-0.4,0.8-0.5,1.2-0.5
				c0.3,0,0.6,0.1,0.8,0.2l-0.1,0.7c-0.1-0.1-0.3-0.1-0.6-0.1c-0.8,0-1,0.7-1,1.5v0.3h1.2v0.7h-1.2v4.6H216.4z"/>
			<path fill="#EDEDED" d="M225.6,420.5c0,2-1.3,2.8-2.5,2.8c-1.3,0-2.4-1.1-2.4-2.7c0-1.8,1.1-2.8,2.5-2.8
				C224.7,417.7,225.6,418.8,225.6,420.5z M221.7,420.5c0,1.2,0.6,2,1.5,2c0.9,0,1.5-0.9,1.5-2.1c0-0.9-0.4-2-1.5-2
				S221.7,419.5,221.7,420.5z"/>
			<path fill="#EDEDED" d="M228.7,419.5c0-0.6,0-1.2,0-1.7h0.8l0,1h0c0.2-0.7,0.8-1.2,1.4-1.2c0.1,0,0.2,0,0.3,0v0.9
				c-0.1,0-0.2,0-0.3,0c-0.6,0-1.1,0.5-1.2,1.2c0,0.1,0,0.3,0,0.5v2.8h-0.9V419.5z"/>
			<path fill="#EDEDED" d="M234.1,419.3c0-0.5,0-1,0-1.4h0.8l0,0.9h0c0.3-0.5,0.7-1,1.6-1c0.7,0,1.2,0.4,1.4,1.1h0
				c0.2-0.3,0.3-0.5,0.6-0.7c0.3-0.2,0.6-0.4,1.1-0.4c0.7,0,1.6,0.5,1.6,2.3v3.1h-0.9v-3c0-1-0.4-1.6-1.1-1.6
				c-0.5,0-0.9,0.4-1.1,0.9c0,0.1-0.1,0.3-0.1,0.5v3.3h-0.9V420c0-0.8-0.4-1.5-1-1.5c-0.6,0-1,0.5-1.1,1c-0.1,0.1-0.1,0.3-0.1,0.5
				v3.2h-0.9V419.3z"/>
			<path fill="#EDEDED" d="M247.4,423.2l-0.1-0.7h0c-0.3,0.4-0.8,0.8-1.5,0.8c-1,0-1.5-0.8-1.5-1.5c0-1.3,1.1-2,3-2v-0.1
				c0-0.4-0.1-1.2-1.1-1.2c-0.5,0-0.9,0.2-1.3,0.4l-0.2-0.6c0.4-0.3,1-0.5,1.6-0.5c1.5,0,1.9,1.1,1.9,2.2v2c0,0.5,0,0.9,0.1,1.3
				H247.4z M247.2,420.4c-1,0-2.1,0.2-2.1,1.2c0,0.6,0.4,0.9,0.9,0.9c0.6,0,1.1-0.4,1.2-0.9c0-0.1,0.1-0.2,0.1-0.3V420.4z"/>
			<path fill="#EDEDED" d="M252.6,416.3v1.5h1.3v0.7h-1.3v2.9c0,0.7,0.2,1,0.7,1c0.2,0,0.4,0,0.5-0.1l0,0.7
				c-0.2,0.1-0.5,0.1-0.8,0.1c-0.4,0-0.8-0.1-1-0.4c-0.3-0.3-0.3-0.8-0.3-1.4v-2.9h-0.8v-0.7h0.8v-1.3L252.6,416.3z"/>
			<path fill="#EDEDED" d="M257.8,416.3c0,0.3-0.2,0.6-0.6,0.6c-0.3,0-0.5-0.3-0.5-0.6c0-0.3,0.2-0.6,0.6-0.6
				C257.6,415.7,257.8,416,257.8,416.3z M256.8,423.2v-5.3h0.9v5.3H256.8z"/>
			<path fill="#EDEDED" d="M265.7,420.5c0,2-1.3,2.8-2.5,2.8c-1.3,0-2.4-1.1-2.4-2.7c0-1.8,1.1-2.8,2.5-2.8
				C264.7,417.7,265.7,418.8,265.7,420.5z M261.7,420.5c0,1.2,0.6,2,1.5,2c0.9,0,1.5-0.9,1.5-2.1c0-0.9-0.4-2-1.5-2
				S261.7,419.5,261.7,420.5z"/>
			<path fill="#EDEDED" d="M268.8,419.3c0-0.5,0-1,0-1.4h0.8l0.1,0.9h0c0.2-0.5,0.8-1,1.6-1c0.7,0,1.8,0.4,1.8,2.3v3.2h-0.9v-3.1
				c0-0.9-0.3-1.6-1.2-1.6c-0.6,0-1.1,0.5-1.2,1c0,0.1-0.1,0.3-0.1,0.5v3.2h-0.9V419.3z"/>
		</g>
	</g>
	<g>
		<g>
			<g>
				<g>
					<path fill="#399ABF" d="M54.4,411.7c-0.9,0-1.8-0.4-2.4-1.1c-1.3-1.4-1.3-3.7,0-5.2l6.5-7l-6.5-7c-1.3-1.4-1.3-3.7,0-5.2
						c1.3-1.4,3.5-1.4,4.9,0l9,9.6c0.6,0.7,1,1.6,1,2.6c0,1-0.4,1.9-1,2.6l-9,9.6C56.2,411.3,55.3,411.7,54.4,411.7z"/>
				</g>
			</g>
			<g>
				<g>
					<path fill="#399ABF" d="M35,411.7c-0.9,0-1.8-0.4-2.4-1.1c-1.3-1.4-1.3-3.7,0-5.2l6.5-7l-6.5-7c-1.3-1.4-1.3-3.7,0-5.2
						c1.3-1.4,3.5-1.4,4.9,0l9,9.6c0.6,0.7,1,1.6,1,2.6c0,1-0.4,1.9-1,2.6l-9,9.6C36.7,411.3,35.9,411.7,35,411.7z"/>
				</g>
			</g>
		</g>
		<g>
			<g>
				<g>
					<path fill="#399ABF" d="M364.1,385.2c0.9,0,1.8,0.4,2.4,1.1c1.3,1.4,1.3,3.7,0,5.2l-6.5,7l6.5,7c1.3,1.4,1.3,3.7,0,5.2
						c-1.3,1.4-3.5,1.4-4.9,0l-9-9.6c-0.6-0.7-1-1.6-1-2.6s0.4-1.9,1-2.6l9-9.6C362.3,385.6,363.2,385.2,364.1,385.2z"/>
				</g>
			</g>
			<g>
				<g>
					<path fill="#399ABF" d="M383.5,385.2c0.9,0,1.8,0.4,2.4,1.1c1.3,1.4,1.3,3.7,0,5.2l-6.5,7l6.5,7c1.3,1.4,1.3,3.7,0,5.2
						c-1.3,1.4-3.5,1.4-4.9,0l-9-9.6c-0.6-0.7-1-1.6-1-2.6s0.4-1.9,1-2.6l9-9.6C381.8,385.6,382.7,385.2,383.5,385.2z"/>
				</g>
			</g>
		</g>
	</g>
</g>
</svg>
