<?xml version="1.0" encoding="utf-8"?>
<!-- Generator: Adobe Illustrator 19.0.0, SVG Export Plug-In . SVG Version: 6.00 Build 0)  -->
<svg version="1.1" id="Capa_1" xmlns="http://www.w3.org/2000/svg" xmlns:xlink="http://www.w3.org/1999/xlink" x="0px" y="0px"
	 viewBox="-49 300 512 145" enable-background="new -49 300 512 145" xml:space="preserve">
<g>
	<path fill="#FFFFFF" d="M403.6,396.9c-8.3-5.8-16.4-12-25.3-17.1c-2-1.1-4,1.3-2.5,2.7c5.4,4.9,11.5,9.2,17.5,13.6
		c3,2.2,5.9,4.4,8.9,6.7c3.5,2.6,10.5,5.1,7,8.9c-10.1,10.8-20.3,21.5-30,32.5c-2.3,2.6,2.9,6.1,5.4,3.5
		c6.7-6.9,13.2-14.1,19.8-21.1c3.7-4,14.2-11.5,14.2-17C418.6,404.3,407.6,399.7,403.6,396.9z"/>
</g>
<path fill="#D7E4EA" d="M26.9,435.6c33.5,0.7,78.9,1.1,131.5,1.1c95.5,0,241.3-1.5,251.1-4.7c14.8-4.8,50.3-34.6,47.4-48.1
	c-2.5-11.6-37-51.4-50.6-52.6c-8.3-0.7-202.2-2.8-326.5-2.8c-69.5,0-107.8,0.6-113.9,1.8c-3,0.6-4.5,3.4-5.3,5.4
	c-7.6,18.7-3,89.3,4.1,95.8C-34.1,432.6-32.1,434.4,26.9,435.6z"/>
<g>
	<g>
		<path fill="#9FC84F" d="M452.3,369.1c-2.6-12.1-36.9-48.7-46.5-49.6c-7.2-0.6-195-2.7-326-2.7c-86,0-108.8,0.9-112.7,1.7
			c0,0-1.3,0.5-2.7,5.1c-6.2,20.8-1.3,84.3,3.7,90c5.3,1.9,58.1,4,190.2,4c125.6,0,242.1-2.1,249.3-4.4
			C422.3,408.4,454.6,380.1,452.3,369.1z"/>
		<path fill="#77983B" d="M456.9,368.5c-2.5-11.6-37-51.4-50.6-52.6c-8.3-0.7-202.2-2.8-326.5-2.8c-69.5,0-107.8,0.6-113.9,1.8
			c-3,0.6-4.5,3.4-5.3,5.4c-7.6,18.7-3,89.3,4.1,95.8c1.2,1.1,3.2,2.9,62.2,4.1c33.5,0.7,78.9,1.1,131.5,1.1
			c95.5,0,241.3-1.5,251.1-4.7C424.3,411.8,459.8,382.1,456.9,368.5z M-31.9,413.6c-5-5.7-9.9-69.2-3.7-90c1.4-4.6,2.7-5.1,2.7-5.1
			c3.9-0.8,26.7-1.7,112.7-1.7c131,0,318.7,2.1,326,2.7c9.6,0.8,43.9,37.4,46.5,49.6c2.3,11-30,39.3-44.6,44.1
			c-7.2,2.3-123.7,4.4-249.3,4.4C26.2,417.6-26.5,415.5-31.9,413.6z"/>
		<path fill="#92B848" d="M448.9,379.1c-11.8,6-28.2,12.5-48.4,16.2c-43.9,8-324.3,9.2-388.6-8c-28.4-7.6-43-21.6-50.5-34.8
			c-0.2,25.9,3.2,57.1,6.6,61.1c5.3,1.9,58.1,4,190.2,4c125.6,0,242.1-2.1,249.3-4.4C418.9,409.5,440.5,392,448.9,379.1z"/>
		<path fill="#C5D661" d="M354.5,331.4c-1.6-4.4-8.5-5.9-14.3-6.5c-11.3-1.3-22.6-2.7-34-2.2c-6.8,0.3-13.6,1.3-20.3,2.3
			c-2,0.3-4,0.6-5.7,1.4c-1.7,0.8-3,2.4-2.7,3.9c0.4,2.6,4.4,3.6,7.7,4c9.3,1.2,18.6,2.2,27.9,2.8
			C327.4,338.1,342.9,338.1,354.5,331.4z"/>
		<path fill="#C5D661" d="M386.9,323.4c-5.4-0.5-10.8-0.4-16.2,0.2c-3.9,0.5-8.6,2.1-8.4,5.1c0.2,2.9,4.5,4.3,8.2,4.7
			c6.9,0.8,13.9,0.5,20.7-0.8c1.6-0.3,3.3-0.7,4.3-1.8c1.6-1.6,0.7-4.1-1.3-5.4C392.2,324.1,389.5,323.7,386.9,323.4z"/>
	</g>
	<g>
		<path fill="#FFFFFF" d="M38.2,370c-0.3,1.5-0.7,2.9-1.4,4s-1.5,2.1-2.4,2.9c-1,0.8-2.1,1.3-3.3,1.7c-1.2,0.4-2.5,0.6-3.9,0.6
			c-1.9,0-3.6-0.3-5.1-0.9c-1.5-0.6-2.9-1.5-4-2.6c-1.1-1.2-2-2.6-2.6-4.3c-0.6-1.7-0.9-3.6-0.9-5.8c0-2.1,0.3-4.1,0.9-5.7
			c0.6-1.7,1.5-3.1,2.6-4.3c1.1-1.2,2.4-2.1,4-2.7c1.6-0.6,3.3-0.9,5.2-0.9c1.4,0,2.7,0.2,3.9,0.6s2.3,0.9,3.3,1.7
			c1,0.7,1.8,1.7,2.4,2.8c0.7,1.1,1.1,2.4,1.4,3.9h-6.8c-0.2-1.3-0.6-2.2-1.4-2.7c-0.8-0.6-1.7-0.8-2.8-0.8c-0.9,0-1.7,0.2-2.4,0.5
			s-1.3,0.9-1.9,1.5c-0.5,0.7-0.9,1.5-1.2,2.5c-0.3,1-0.4,2.2-0.4,3.6c0,1.4,0.1,2.5,0.4,3.6c0.3,1,0.7,1.9,1.2,2.6s1.1,1.2,1.9,1.6
			s1.5,0.5,2.4,0.5c0.5,0,1-0.1,1.5-0.2c0.5-0.2,0.9-0.4,1.3-0.7c0.4-0.3,0.7-0.7,1-1.2c0.3-0.5,0.4-1,0.5-1.6H38.2z"/>
		<path fill="#FFFFFF" d="M54.4,351.9c1.9,0,3.7,0.3,5.2,0.9c1.5,0.6,2.9,1.5,4,2.7s1.9,2.6,2.5,4.3c0.6,1.7,0.9,3.6,0.9,5.7
			c0,2.1-0.3,4.1-0.9,5.7c-0.6,1.7-1.4,3.1-2.5,4.3c-1.1,1.2-2.4,2.1-4,2.7c-1.6,0.6-3.3,0.9-5.2,0.9c-1.9,0-3.6-0.3-5.1-0.9
			c-1.5-0.6-2.9-1.5-4-2.6c-1.1-1.2-2-2.6-2.6-4.3c-0.6-1.7-0.9-3.6-0.9-5.8c0-2.1,0.3-4.1,0.9-5.7c0.6-1.7,1.4-3.1,2.5-4.3
			s2.4-2.1,4-2.7C50.8,352.2,52.5,351.9,54.4,351.9z M54.4,373.7c0.9,0,1.6-0.2,2.4-0.5c0.7-0.3,1.3-0.9,1.8-1.6
			c0.5-0.7,0.9-1.5,1.2-2.6s0.4-2.2,0.4-3.6c0-1.4-0.1-2.5-0.4-3.6c-0.3-1-0.7-1.9-1.2-2.5c-0.5-0.7-1.1-1.2-1.8-1.5
			c-0.7-0.3-1.5-0.5-2.4-0.5c-0.9,0-1.7,0.2-2.4,0.5s-1.3,0.9-1.8,1.5c-0.5,0.7-0.9,1.5-1.2,2.5c-0.3,1-0.4,2.2-0.4,3.6
			c0,1.4,0.1,2.5,0.4,3.6c0.3,1,0.7,1.9,1.2,2.6c0.5,0.7,1.1,1.2,1.8,1.6S53.5,373.7,54.4,373.7z"/>
		<path fill="#FFFFFF" d="M79.4,354.1c1.9-1.4,3.9-2.1,6.2-2.1c6.3,0,9.4,3.3,9.4,9.9v16.7h-6.6V362c0-1.6-0.3-2.8-0.8-3.5
			s-1.4-1-2.6-1c-1.8,0-3.6,1.1-5.5,3.2v17.8h-6.5v-26h6.5V354.1z"/>
		<path fill="#FFFFFF" d="M113.7,378.6c-0.8,0.2-1.6,0.3-2.3,0.4s-1.3,0.1-1.9,0.1c-1.5,0-2.8-0.2-3.7-0.5c-0.9-0.4-1.6-0.9-2.1-1.6
			c-0.5-0.7-0.8-1.6-0.9-2.6s-0.2-2.3-0.2-3.7v-12.8h-3v-5.4h3v-6.5h6.6v6.5h3.9v5.4h-3.9v13c0,0.6,0,1.1,0.1,1.4
			c0.1,0.4,0.1,0.6,0.2,0.8c0.1,0.2,0.2,0.3,0.4,0.4c0.2,0.1,0.3,0.1,0.5,0.1c0.4,0,0.9,0,1.4-0.1s1.2-0.1,1.8-0.3V378.6z"/>
		<path fill="#FFFFFF" d="M128.7,351.9c1.7,0,3.2,0.1,4.6,0.4s2.5,0.8,3.5,1.6c1,0.8,1.7,1.8,2.2,3.1c0.5,1.3,0.8,3,0.8,5v16.5h-6.5
			v-1.4c-1.1,0.6-2.2,1.1-3.5,1.5s-2.6,0.5-4,0.5c-1.3,0-2.6-0.2-3.7-0.6c-1.1-0.4-2.1-0.9-3-1.6c-0.8-0.7-1.5-1.6-2-2.5
			c-0.5-1-0.7-2.1-0.7-3.2c0-6.3,5.3-9.4,15.8-9.4h1.1c0-0.7-0.1-1.3-0.2-1.9c-0.1-0.5-0.3-1-0.7-1.4c-0.3-0.4-0.8-0.7-1.4-0.8
			s-1.5-0.3-2.5-0.3c-1.3,0-2.4,0.2-3.1,0.6c-0.8,0.4-1.3,1.2-1.6,2.3H117C117.8,354.7,121.7,351.9,128.7,351.9z M133.2,367h-1.9
			c-5.5,0-8.3,1.3-8.3,4c0,0.9,0.4,1.6,1.1,2s1.7,0.7,2.9,0.7s2.4-0.2,3.5-0.7c1.1-0.5,2-1.2,2.7-2.1V367z"/>
		<path fill="#FFFFFF" d="M169.3,370c-0.3,1.5-0.7,2.9-1.4,4s-1.5,2.1-2.4,2.9c-1,0.8-2.1,1.3-3.3,1.7c-1.2,0.4-2.5,0.6-3.9,0.6
			c-1.9,0-3.6-0.3-5.1-0.9c-1.5-0.6-2.9-1.5-4-2.6c-1.1-1.2-2-2.6-2.6-4.3c-0.6-1.7-0.9-3.6-0.9-5.8c0-2.1,0.3-4.1,0.9-5.7
			c0.6-1.7,1.5-3.1,2.6-4.3c1.1-1.2,2.4-2.1,4-2.7c1.6-0.6,3.3-0.9,5.2-0.9c1.4,0,2.7,0.2,3.9,0.6s2.3,0.9,3.3,1.7
			c1,0.7,1.8,1.7,2.4,2.8c0.7,1.1,1.1,2.4,1.4,3.9h-6.8c-0.2-1.3-0.6-2.2-1.4-2.7c-0.8-0.6-1.7-0.8-2.8-0.8c-0.9,0-1.7,0.2-2.4,0.5
			s-1.3,0.9-1.9,1.5c-0.5,0.7-0.9,1.5-1.2,2.5c-0.3,1-0.4,2.2-0.4,3.6c0,1.4,0.1,2.5,0.4,3.6c0.3,1,0.7,1.9,1.2,2.6s1.1,1.2,1.9,1.6
			s1.5,0.5,2.4,0.5c0.5,0,1-0.1,1.5-0.2c0.5-0.2,0.9-0.4,1.3-0.7c0.4-0.3,0.7-0.7,1-1.2c0.3-0.5,0.4-1,0.5-1.6H169.3z"/>
		<path fill="#FFFFFF" d="M185.6,378.6c-0.8,0.2-1.6,0.3-2.3,0.4s-1.3,0.1-1.9,0.1c-1.5,0-2.8-0.2-3.7-0.5c-0.9-0.4-1.6-0.9-2.1-1.6
			c-0.5-0.7-0.8-1.6-0.9-2.6s-0.2-2.3-0.2-3.7v-12.8h-3v-5.4h3v-6.5h6.6v6.5h3.9v5.4h-3.9v13c0,0.6,0,1.1,0.1,1.4
			c0.1,0.4,0.1,0.6,0.2,0.8c0.1,0.2,0.2,0.3,0.4,0.4c0.2,0.1,0.3,0.1,0.5,0.1c0.4,0,0.9,0,1.4-0.1s1.2-0.1,1.8-0.3V378.6z"/>
		<path fill="#FFFFFF" d="M233.9,377c-1.9,1.4-3.9,2.1-6.2,2.1c-6.3,0-9.4-3.3-9.4-9.9v-16.7h6.6V369c0,1.6,0.3,2.8,0.8,3.5
			s1.4,1,2.6,1c2,0,3.9-1,5.6-3.1v-17.9h6.5v26h-6.5V377z"/>
		<path fill="#FFFFFF" d="M261.5,359.8c-0.4-1.7-1.8-2.5-4-2.5c-0.6,0-1.1,0-1.6,0.1c-0.5,0.1-0.9,0.2-1.3,0.4
			c-0.4,0.2-0.6,0.4-0.8,0.7s-0.3,0.6-0.3,0.9c0,0.3,0.1,0.5,0.2,0.7s0.4,0.4,0.7,0.6c0.4,0.2,1,0.4,1.8,0.6
			c0.8,0.2,1.8,0.5,3.2,0.8c1.6,0.4,3,0.8,4.2,1.2s2.2,0.9,3,1.6s1.4,1.4,1.8,2.3c0.4,0.9,0.6,2,0.6,3.3c0,1.2-0.3,2.4-0.8,3.4
			c-0.5,1.1-1.2,2-2.2,2.7c-0.9,0.8-2.1,1.4-3.4,1.8c-1.3,0.4-2.8,0.7-4.5,0.7c-7,0-10.8-2.9-11.6-8.8h6.7c0.4,2.2,2,3.4,4.9,3.4
			c1.4,0,2.5-0.3,3.3-0.8c0.7-0.5,1.1-1.2,1.1-2c0-0.4-0.1-0.7-0.2-0.9s-0.5-0.5-0.9-0.7s-1.1-0.4-1.9-0.6c-0.8-0.2-1.9-0.5-3.2-0.8
			c-1.6-0.4-3-0.8-4.1-1.2s-2.1-0.9-2.8-1.4c-0.7-0.6-1.3-1.3-1.7-2.1c-0.4-0.9-0.5-1.9-0.5-3.2c0-1.1,0.2-2.2,0.7-3.1
			c0.5-1,1.2-1.8,2.1-2.5c0.9-0.7,2-1.3,3.2-1.7s2.7-0.6,4.2-0.6c6.7,0,10.4,2.6,10.8,7.9H261.5z"/>
	</g>
	<path fill="#FFFFFF" d="M301.6,355.5c-6.1-4.1-12-8.6-18.6-12.2c-1.5-0.8-3,1-1.8,2c4,3.5,8.5,6.6,12.8,9.7
		c2.2,1.6,4.4,3.2,6.6,4.7c2.6,1.9,7.7,3.7,5.1,6.3c-7.4,7.7-14.9,15.3-22,23.1c-1.7,1.9,2.1,4.3,3.9,2.5c5-4.9,9.7-10,14.6-15.1
		c2.7-2.8,10.4-8.2,10.4-12.1C312.6,360.7,304.6,357.5,301.6,355.5z"/>
	<path fill="#FFFFFF" d="M341.6,355.5c-6.1-4.1-12-8.6-18.6-12.2c-1.5-0.8-3,1-1.8,2c4,3.5,8.5,6.6,12.8,9.7
		c2.2,1.6,4.4,3.2,6.6,4.7c2.6,1.9,7.7,3.7,5.1,6.3c-7.4,7.7-14.9,15.3-22,23.1c-1.7,1.9,2.1,4.3,3.9,2.5c5-4.9,9.7-10,14.6-15.1
		c2.7-2.8,10.4-8.2,10.4-12.1C352.6,360.7,344.6,357.5,341.6,355.5z"/>
	<path fill="#FFFFFF" d="M381.6,355.5c-6.1-4.1-12-8.6-18.6-12.2c-1.5-0.8-3,1-1.8,2c4,3.5,8.5,6.6,12.8,9.7
		c2.2,1.6,4.4,3.2,6.6,4.7c2.6,1.9,7.7,3.7,5.1,6.3c-7.4,7.7-14.9,15.3-22,23.1c-1.7,1.9,2.1,4.3,3.9,2.5c5-4.9,9.7-10,14.6-15.1
		c2.7-2.8,10.4-8.2,10.4-12.1C392.6,360.7,384.5,357.5,381.6,355.5z"/>
</g>
</svg>
