<?xml version="1.0" encoding="utf-8"?>
<!-- Generator: Adobe Illustrator 19.0.0, SVG Export Plug-In . SVG Version: 6.00 Build 0)  -->
<svg version="1.1" id="Capa_1" xmlns="http://www.w3.org/2000/svg" xmlns:xlink="http://www.w3.org/1999/xlink" x="0px" y="0px"
	 viewBox="-49 344 512 148" enable-background="new -49 344 512 148" xml:space="preserve">
<g>
	<g>
		<path fill="#3EC0D6" d="M432.2,362.1c-4.2-2.3-30.3-6.3-159-6.3c-125.1,0-282.5,3.8-299.7,5.3c-1.1,0.1-3.5,2.6-5.7,11.2
			c-7.3,29.8-3.7,96.9,8,103.8c7.2,4.3,113,7.2,257.1,7.2c103.5,0,192.5-1.6,198.2-3.6c3.5-1.3,9.6-19.1,11.9-48.9
			C446,395,441.6,367.3,432.2,362.1z"/>
		<path fill="#156976" d="M434.7,358.1c-3-1.7-12.3-6.9-161.5-6.9c-125.2,0-282.9,3.8-300.1,5.3c-4.3,0.4-7.6,5.2-9.9,14.8
			c-6.7,27.5-5.5,99.5,10.2,108.8c12.5,7.3,201.9,7.9,259.7,7.9c0,0,0,0,0,0c76.2,0,192.4-1.1,200-4c10.8-4.1,14.6-47.8,15-52.8
			C450.4,400.9,448.1,365.7,434.7,358.1z M443.2,430.9c-2.4,29.8-8.5,47.5-11.9,48.9c-5.8,2-94.7,3.6-198.2,3.6
			c-144.2,0-249.9-3-257.1-7.2c-11.8-6.9-15.3-74-8-103.8c2.1-8.7,4.6-11.2,5.7-11.2c17.1-1.5,174.6-5.3,299.7-5.3
			c128.7,0,154.9,3.9,159,6.3C441.6,367.3,446,395,443.2,430.9z"/>
		<path fill="#3AB2C6" d="M431.2,479.8c2.7-1,7-12,9.9-30.9c-32.2,10.2-67.2,9.7-101.2,8.9c-57.6-1.2-115.2-2.5-172.7-3.7
			c-36.8-0.8-73.9-1.6-109.6-10.1c-23.2-5.5-46.3-14.6-63.3-30.7c-13.9-13.2-23.2-31.9-22.7-50.5c-1.1,1.6-2.5,4.5-3.7,9.6
			c-7.3,29.8-3.7,96.9,8,103.8c7.2,4.3,113,7.2,257.1,7.2C336.6,483.4,425.5,481.8,431.2,479.8z"/>
		<path fill="#8FD5F4" d="M373,372.4c-0.5-1.4-2-2.3-3.4-3c-6.1-2.9-13.1-3.3-19.9-3.7c-9.7-0.5-19.3-1.1-29-1.6
			c-12.9-0.7-25.8-1.4-38.7-0.1c-8.2,0.8-16.4,2.5-24.2,5.1c-3,1-6.6,3.3-5.6,6.2c0.7,2.3,3.7,2.9,6.2,3.2
			c35.6,3.6,71.9,7.2,107.1,0.8C369.4,378.6,374.4,376,373,372.4z"/>
		<path fill="#8FD5F4" d="M421.8,372.2c-0.5-2.1-2.8-3.3-5-4.1c-8.9-3.1-18.9-2-28,0.4c-1.9,0.5-4,1.1-5.3,2.5
			c-1.3,1.4-1.6,3.8,0,4.9c0.6,0.5,1.4,0.7,2.2,0.8c8.7,1.9,17.8,2.6,26.7,2c2.3-0.2,4.6-0.4,6.5-1.5
			C420.9,376.3,422.3,374.2,421.8,372.2z"/>
	</g>
	<g>
		<path fill="#231F20" d="M44.2,404.8c-2.8,0-4.6,3.1-4.6,7.8c0,4.8,1.8,7.9,4.6,7.9c2.1,0,3.5-1.4,4.3-4.6l11.7,6.5
			c-2.6,7.5-8.8,11.8-16.8,11.8c-11.2,0-18.5-8.5-18.5-21.6c0-13.3,7.4-22,18.6-22c7.7,0,13.8,4.5,16.7,12.2l-11.5,5.9
			C47.8,406.3,46.2,404.8,44.2,404.8z"/>
		<path fill="#231F20" d="M100.3,412.5c0,13.2-7.8,21.8-19.9,21.8c-12.1,0-19.9-8.6-19.9-21.8s7.8-21.8,19.9-21.8
			C92.5,390.7,100.3,399.2,100.3,412.5z M75,412.7c0,5,2.1,8.2,5.3,8.2s5.3-3.3,5.3-8.2s-2.1-8.2-5.3-8.2S75,407.8,75,412.7z"/>
		<path fill="#231F20" d="M142.6,406.7v27h-14.5v-22c0-3.6-1.7-5.8-4.2-5.8c-2.8,0-4.6,2.7-4.6,6.8v21h-14.5v-42.4h14.5v6
			c2.4-4.3,6.1-6.8,10.7-6.8C137.4,390.6,142.6,396.9,142.6,406.7z"/>
		<path fill="#231F20" d="M173.9,431.8c-2.3,1.6-6.3,2.6-10.1,2.6c-8.1,0.1-13.3-5.6-13.3-14.4v-15.4h-4.8v-11h4.8v-11.8H165v11.8
			h8.3v11H165v12.8c0,2.2,1.1,3.6,2.8,3.6c0.8,0,2.3-0.5,3.6-1.1L173.9,431.8z"/>
		<path fill="#231F20" d="M211.8,406.3v27.4h-14.3v-4.6c-2.1,3.4-5.4,5.3-9.9,5.3c-7.5,0-11.8-5.3-11.8-13.3
			c0-8.4,4.7-12.8,13.7-12.9h8.1c-0.1-2.9-1.9-4.6-5.5-4.6c-2.6,0-6.7,0.9-10.7,2.7l-3.2-11.6c6-2.6,12.2-4.1,17.4-4.1
			C205.8,390.6,211.8,396.3,211.8,406.3z M197.6,420.1v-3.9h-5c-2,0-3.1,1.2-3.1,3.4c0,2.3,1.2,3.7,3.2,3.7
			C194.5,423.4,196.4,422.2,197.6,420.1z"/>
		<path fill="#231F20" d="M234.7,404.8c-2.8,0-4.6,3.1-4.6,7.8c0,4.8,1.8,7.9,4.6,7.9c2.1,0,3.5-1.4,4.3-4.6l11.7,6.5
			c-2.6,7.5-8.8,11.8-16.8,11.8c-11.2,0-18.5-8.5-18.5-21.6c0-13.3,7.4-22,18.6-22c7.7,0,13.8,4.5,16.7,12.2l-11.5,5.9
			C238.3,406.3,236.7,404.8,234.7,404.8z"/>
		<path fill="#231F20" d="M279.3,431.8c-2.3,1.6-6.3,2.6-10.1,2.6c-8.1,0.1-13.3-5.6-13.3-14.4v-15.4h-4.8v-11h4.8v-11.8h14.4v11.8
			h8.3v11h-8.3v12.8c0,2.2,1.1,3.6,2.8,3.6c0.8,0,2.3-0.5,3.6-1.1L279.3,431.8z"/>
		<path fill="#231F20" d="M339.4,391.3v42.4h-14.5v-5.9c-2.3,4.3-5.9,6.7-10.4,6.7c-7.2,0-12.3-6.3-12.3-16.1v-27h14.5v22
			c0,3.6,1.5,5.8,3.9,5.8c2.6,0,4.3-2.7,4.3-6.8v-21H339.4z"/>
		<path fill="#231F20" d="M360.6,402c-1.2,0-2,0.5-2,1.4c0,3.9,18.3,2.4,18.3,16.6c0,8.7-6.3,14.4-16,14.4c-6.5,0-12.3-2-17.2-6
			l4.4-10.8c4.7,3.5,9.1,5.3,13,5.3c1.4,0,2.2-0.5,2.2-1.2c0-3.7-17.9-2.1-17.9-16.4c0-8.9,6.1-14.6,15.5-14.6
			c5.6,0,11.1,1.8,16.4,5.3l-4.8,10.8C367.3,403.6,363.3,402,360.6,402z"/>
	</g>
	<path fill="#FFFFFF" d="M403.6,396.9c-8.3-5.8-16.4-12-25.3-17.1c-2-1.1-4,1.3-2.5,2.7c5.4,4.9,11.5,9.2,17.5,13.6
		c3,2.2,5.9,4.4,8.9,6.7c3.5,2.6,10.5,5.1,7,8.9c-10.1,10.8-20.3,21.5-30,32.5c-2.3,2.6,2.9,6.1,5.4,3.5
		c6.7-6.9,13.2-14.1,19.8-21.1c3.7-4,14.2-11.5,14.2-17C418.6,404.3,407.6,399.7,403.6,396.9z"/>
	<path fill="#FFFFFF" d="M-4.4,395.9c9.6-6.1,19-12.7,29.4-18.1c2.3-1.2,4.7,1.4,2.9,2.9c-6.3,5.2-13.4,9.7-20.3,14.4
		c-3.5,2.3-6.9,4.7-10.4,7c-4.1,2.8-12.2,5.4-8.1,9.4c11.7,11.4,23.5,22.7,34.9,34.3c2.7,2.8-3.4,6.4-6.2,3.7
		c-7.8-7.3-15.4-14.9-23-22.3c-4.3-4.2-16.5-12.2-16.5-18C-21.7,403.7-9,398.9-4.4,395.9z"/>
</g>
</svg>
