<?xml version="1.0" encoding="utf-8"?>
<!-- Generator: Adobe Illustrator 19.0.0, SVG Export Plug-In . SVG Version: 6.00 Build 0)  -->
<svg version="1.1" id="Layer_1" xmlns="http://www.w3.org/2000/svg" xmlns:xlink="http://www.w3.org/1999/xlink" x="0px" y="0px"
	 viewBox="-46 326.9 518.1 158" enable-background="new -46 326.9 518.1 158" xml:space="preserve">
<g>
	<g>
		<path fill="#FCB424" d="M429.4,408.4c-1.5-5.6,4.4-14.7,14.2-29.1c7.2-10.6,16.2-23.7,15.2-29.1c-11.2-5.1-145.8-9.4-291-9.4
			c-132,0-197,3.6-203.4,7.2c-0.7,4.1,12.1,23.1,19.8,34.5c9.2,13.6,14.8,22.1,15.4,26.1c0.8,5-5.2,14.7-15,30.2
			c-6.7,10.7-15,23.7-15.6,29c13.6,4.4,148,7.6,324,7.6c0,0,0,0,0,0c102.1,0,160-1.1,164.5-2.3c0.7-0.2,1-0.5,1.3-1
			c2.9-6.5-11.1-30.5-19.5-44.8C434.3,418.6,430.3,411.8,429.4,408.4z"/>
		<path fill="#F26B31" d="M443.9,424.9c-4.5-7.7-8.8-15.1-9.5-17.8c-1-3.8,7-15.6,13.5-25.1c9.4-13.7,18.2-26.7,15.6-33.9
			c-0.9-2.5-2.2-6.2-98.7-9.4c-55.4-1.8-127.2-2.8-197-2.8c-55.8,0-104.3,0.7-140.3,1.9c-62.4,2.2-65.5,5.3-67,6.9
			c-4.3,4.4,2.6,15.7,19.4,40.6c6.6,9.9,14.2,21,14.7,24.2c0.5,3.5-8,17-14.3,26.9c-10.6,16.8-17.1,27.5-16.3,33.2
			c0.4,3.2,0.9,6.5,112.6,8.9c58,1.3,136.9,2,216.5,2c0,0,0,0,0,0c77.7,0,159.1-0.8,165.8-2.4c2.2-0.6,3.8-1.9,4.7-3.9
			C467.2,466,457.2,447.8,443.9,424.9z M458.9,472.1c-0.2,0.6-0.6,0.9-1.3,1c-4.5,1.1-62.5,2.3-164.5,2.3c0,0,0,0,0,0
			c-176,0-310.4-3.2-324-7.6c0.6-5.2,8.8-18.3,15.6-29c9.8-15.5,15.7-25.2,15-30.2c-0.6-4-6.3-12.5-15.4-26.1
			c-7.7-11.4-20.5-30.4-19.8-34.5c6.5-3.6,71.5-7.2,203.4-7.2c145.3,0,279.8,4.4,291,9.4c1,5.3-8,18.4-15.2,29.1
			c-9.8,14.3-15.7,23.4-14.2,29.1c0.9,3.4,4.9,10.3,10,19C447.8,441.7,461.8,465.6,458.9,472.1z"/>
		<path fill="#F89A25" d="M458.9,472.1c2-4.5-4.1-17.5-10.9-29.7c-9.1,2.4-18.9,4.5-28.8,5.8c-40,4.9-375.6,11.5-402.9-4.9
			c-12.4-7.5-18.1-15.8-20.6-22.7c-2.6,4.9-6.4,10.9-11.1,18.3c-6.7,10.7-15,23.7-15.6,29c13.6,4.4,148,7.6,324,7.6c0,0,0,0,0,0
			c102.1,0,160-1.1,164.5-2.3C458.3,473,458.7,472.7,458.9,472.1z"/>
		<path fill="#FFD628" d="M270.5,364.7c6.8,4.7,15.8,5,24.2,5.1c12.5,0.1,24.9,0.2,37.4,0.2c15.9,0.1,32.3,0,47-5.9
			c0-1.3,0-2.6-0.1-3.9c-6.7-5.1-15.8-5.9-24.3-6.5c-23.7-1.6-47.7-3.1-70.9,1.8C278.1,356.7,271.7,359.2,270.5,364.7z"/>
		<path fill="#FFD628" d="M422,359c-4.7-1.3-9.4-2.2-14.2-2.9c-3.8-0.5-7.7-0.9-11.5,0c-3.7,0.9-7.3,3.2-8.7,6.6
			c1.1,3.8,5.6,5.4,9.6,6.3c8,1.8,16.7,2.6,24.1-0.8c3.1-1.4,6.1-5.3,3.8-7.8C424.3,359.6,423.1,359.3,422,359z"/>
	</g>
	<g>
		<path fill="#FFFFFF" d="M90.8,397.8c-3.4,0-5.7,3.9-5.7,9.6c0,5.8,2.3,9.6,5.7,9.6c2.5,0,4.4-1.4,5.6-4.5l6.9,5.5
			c-2.3,6.1-6.9,9.5-12.9,9.5c-8.8,0-14.6-8-14.6-20.1c0-12.3,5.9-20.4,14.7-20.4c5.7,0,10.2,3.4,12.7,9.4l-6.8,5.5
			C95.1,399.4,93.2,397.8,90.8,397.8z"/>
		<path fill="#FFFFFF" d="M135.4,407.3c0,12.2-6.2,20.3-15.5,20.3c-9.3,0-15.5-8.1-15.5-20.3c0-12.2,6.1-20.2,15.5-20.2
			C129.2,387.1,135.4,395.1,135.4,407.3z M113.8,407.4c0,5.9,2.5,9.9,6.1,9.9c3.7,0,6.1-4,6.1-9.9c0-5.9-2.5-9.8-6.1-9.8
			C116.3,397.6,113.8,401.6,113.8,407.4z"/>
		<path fill="#FFFFFF" d="M169.2,402.2v25h-9.3v-21.2c0-4.5-1.9-7.3-4.8-7.3c-3.1,0.1-5.2,3.1-5.6,7.5v20.9h-9.3v-39.6h9.3v6.4
			c2-4.5,5.2-7,9.4-7C165.1,387,169.2,392.9,169.2,402.2z"/>
		<path fill="#FFFFFF" d="M194,425.1c-2,1.7-4.9,2.6-7.7,2.6c-5.5,0.1-9.5-4.5-9.5-12.7v-17h-3.9v-8.6h3.9v-11h9.3v11h7.3v8.6h-7.3
			V413c0,2.9,0.9,4.2,2.6,4.2c0.9,0,2.1-0.5,3.5-1.3L194,425.1z"/>
		<path fill="#FFFFFF" d="M223.7,401.4v25.8h-9.2v-4.5c-1.8,3.3-4.7,5.1-8.5,5.1c-6.1,0-9.7-5.1-9.7-12.4c0-7.5,3.8-11.9,10.9-12
			h7.4v-0.4c0-3.7-1.8-5.9-5.4-5.9c-2.4,0-5.5,1.1-8.5,3.1l-2.6-8.8c4.5-2.8,8.5-4.3,13.2-4.3C219.1,387,223.6,392.3,223.7,401.4z
			 M214.5,413.7v-3.4h-5.6c-2.6,0-3.9,1.3-3.9,4.1c0,2.7,1.4,4.5,3.8,4.5C211.6,418.9,213.9,416.7,214.5,413.7z"/>
		<path fill="#FFFFFF" d="M242.7,397.8c-3.4,0-5.7,3.9-5.7,9.6c0,5.8,2.3,9.6,5.7,9.6c2.5,0,4.4-1.4,5.6-4.5l6.9,5.5
			c-2.3,6.1-6.9,9.5-12.9,9.5c-8.8,0-14.6-8-14.6-20.1c0-12.3,5.9-20.4,14.7-20.4c5.7,0,10.2,3.4,12.7,9.4l-6.8,5.5
			C247,399.4,245.1,397.8,242.7,397.8z"/>
		<path fill="#FFFFFF" d="M277.9,425.1c-2,1.7-4.9,2.6-7.7,2.6c-5.5,0.1-9.5-4.5-9.5-12.7v-17h-3.9v-8.6h3.9v-11h9.3v11h7.3v8.6
			h-7.3V413c0,2.9,0.9,4.2,2.6,4.2c0.9,0,2.2-0.5,3.5-1.3L277.9,425.1z"/>
		<path fill="#FFFFFF" d="M325.8,387.5v39.6h-9.3v-6.4c-1.9,4.6-5,7-9.1,7c-6.1,0-10.1-5.9-10.1-15.2v-25h9.3v21.3
			c0,4.5,1.8,7.2,4.6,7.2c3.3-0.1,5.3-3.7,5.3-8.9v-19.6H325.8z"/>
		<path fill="#FFFFFF" d="M342.9,396c-1.6,0-2.7,0.8-2.7,2.5c0,5.2,14.9,2.7,14.8,16.5c0,8.1-5.1,12.7-12,12.7
			c-4.8,0-9.3-1.9-12.8-5.6l2.9-8.4c3.3,3.1,6.9,4.9,10.1,4.9c1.7,0,3-0.8,3-2.4c0-5.4-14.6-2.7-14.6-16.4c0-8.3,5-12.8,11.6-12.8
			c4.1,0,8.2,1.6,11.8,4.6l-3.1,8.5C348.4,397.5,345.2,396,342.9,396z"/>
	</g>
	<path fill="#FFFFFF" d="M384.1,393.8c-6.1-4.8-11.9-9.9-18.5-14.1c-1.5-0.9-2.9,1.1-1.8,2.3c3.9,4.1,8.4,7.6,12.7,11.3
		c2.2,1.8,4.3,3.7,6.5,5.5c2.5,2.2,7.6,4.3,5.1,7.3c-7.4,8.9-14.8,17.8-21.9,26.9c-1.7,2.2,2.1,5,3.9,2.9
		c4.9-5.7,9.7-11.6,14.5-17.5c2.7-3.3,10.4-9.5,10.4-14C395,399.9,387,396.1,384.1,393.8z"/>
	<path fill="#FFFFFF" d="M409.1,397.3c-4.6-3.6-9-7.5-13.9-10.7c-1.1-0.7-2.2,0.8-1.4,1.7c3,3.1,6.3,5.7,9.6,8.5
		c1.6,1.4,3.3,2.8,4.9,4.2c1.9,1.6,5.8,3.2,3.8,5.5c-5.5,6.7-11.1,13.4-16.5,20.2c-1.3,1.6,1.6,3.8,2.9,2.2
		c3.7-4.3,7.3-8.8,10.9-13.2c2-2.5,7.8-7.2,7.8-10.6C417.4,401.9,411.3,399,409.1,397.3z"/>
	<path fill="#FFFFFF" d="M47,422.2c6,4.8,11.9,9.9,18.5,14.1c1.5,0.9,2.9-1.1,1.8-2.3c-3.9-4.1-8.4-7.6-12.7-11.3
		c-2.2-1.8-4.3-3.7-6.5-5.5c-2.5-2.2-7.6-4.3-5.1-7.3c7.4-8.9,14.8-17.8,21.9-26.9c1.7-2.2-2.1-5-3.9-2.9
		c-4.9,5.7-9.7,11.6-14.5,17.5c-2.7,3.3-10.4,9.5-10.4,14C36.1,416,44.1,419.8,47,422.2z"/>
	<path fill="#FFFFFF" d="M21.9,418.7c4.6,3.6,9,7.5,13.9,10.7c1.1,0.7,2.2-0.8,1.4-1.7c-3-3.1-6.3-5.7-9.6-8.5
		c-1.6-1.4-3.3-2.8-4.9-4.2c-1.9-1.6-5.8-3.2-3.8-5.5c5.5-6.7,11.1-13.4,16.5-20.2c1.3-1.6-1.6-3.8-2.9-2.2
		c-3.7,4.3-7.3,8.8-10.9,13.2c-2,2.5-7.8,7.2-7.8,10.6C13.7,414,19.7,416.9,21.9,418.7z"/>
</g>
</svg>
