<?xml version="1.0" encoding="iso-8859-1"?>
<!-- Generator: Adobe Illustrator 19.0.0, SVG Export Plug-In . SVG Version: 6.00 Build 0)  -->
<svg version="1.1" id="Capa_1" xmlns="http://www.w3.org/2000/svg" xmlns:xlink="http://www.w3.org/1999/xlink" x="0px" y="0px"
	 viewBox="0 0 512 512" style="enable-background:new 0 0 512 512;" xml:space="preserve">
<path style="fill:#DDDDDD;" d="M496.885,436.998c-3.408,0,3.99,4.419-110.041-74.609c-3.476-2.409-4.341-7.18-1.932-10.656
	s7.18-4.34,10.655-1.932l105.686,73.246C507.428,427.325,504.341,436.998,496.885,436.998z"/>
<path style="fill:#585A60;" d="M511.979,434.164c-0.092-1.267,0.787,2.292-17.011-61.752c-1.133-4.075-5.355-6.457-9.428-5.327
	c-4.074,1.132-6.46,5.353-5.327,9.428l14.262,51.323l-53.109,4.097c-4.217,0.325-7.371,4.007-7.045,8.224
	c0.31,4.016,3.664,7.069,7.626,7.069c0.198,0,0.397-0.008,0.598-0.023c66.826-5.156,63.131-4.767,64.522-5.294
	C510.118,440.742,512.236,437.695,511.979,434.164z"/>
<g>
	<polygon style="fill:#49B5CE;" points="97.095,152.554 109.096,100.865 81.177,81.294 69.522,133.226 	"/>
	<polygon style="fill:#49B5CE;" points="69.522,133.227 24.678,161.894 52.599,181.466 97.094,152.555 	"/>
</g>
<polygon style="fill:#31A6BA;" points="43.93,149.587 24.678,161.894 52.599,181.466 71.658,169.081 "/>
<g>
	<path style="fill:#4A94CC;" d="M133.391,117.896l-1.385-0.971l0,0l0,0l-22.91-16.059l-12.001,51.689l-0.001,0.001l29.321,20.554
		l10.195-45.419C137.771,122.517,135.135,119.358,133.391,117.896z"/>
	<path style="fill:#4A94CC;" d="M86.941,198.344l39.473-25.235l-29.321-20.554l-44.495,28.911l25.245,17.696
		C81.304,201.306,85.92,199.365,86.941,198.344z"/>
</g>
<path style="fill:#3987B7;" d="M71.658,169.081l-19.06,12.385l25.245,17.696c3.461,2.144,8.077,0.203,9.098-0.818l13.795-8.82
	L71.658,169.081z"/>
<g>
	<path style="fill:#6EDCF9;" d="M60.273,66.64c-6.309-4.42-8.021,0.239-8.353,1.487l-10.534,45.376l28.137,19.724l11.655-51.932
		L60.273,66.64z"/>
	<path style="fill:#6EDCF9;" d="M41.385,113.503L1.895,139.16c-1.666,1.32-3.792,4.107,1.289,7.668l21.494,15.066l44.844-28.667
		v-0.001L41.385,113.503z"/>
</g>
<path style="fill:#57CEEA;" d="M16.032,129.974l-14.137,9.185c-1.666,1.32-3.792,4.107,1.289,7.668l21.494,15.066l19.252-12.307
	L16.032,129.974z"/>
<path style="fill:#EA473B;" d="M374.074,152.654c-30.237-0.008-56.585,16.561-70.508,41.105l-0.006-0.004
	c0,0-4.523,5.587-10.525,5.587c-6.006-0.002-10.515-5.591-10.515-5.591l-0.014,0.003c-13.915-24.548-40.251-41.128-70.486-41.133
	c-44.75-0.013-81.03,36.259-81.039,81.006c-0.03,131.207,162.002,201.164,162.002,201.164s162.074-69.889,162.102-201.093
	C455.094,188.947,418.824,152.664,374.074,152.654z"/>
<path style="fill:#D63322;" d="M151.401,233.626c0.008-41.3,30.922-75.355,70.869-80.351c-48.787-6.172-91.278,31.845-91.288,80.351
	c-0.03,131.207,162.002,201.164,162.002,201.164s3.795-1.637,10.215-4.875C267.652,411.971,151.375,344.778,151.401,233.626z"/>
<path style="fill:#DDDDDD;" d="M282.319,289.947L33.03,117.955c-3.481-2.402-4.356-7.17-1.954-10.652
	c2.401-3.481,7.169-4.355,10.652-1.954l249.29,171.991c3.481,2.401,4.356,7.17,1.954,10.652
	C290.57,291.472,285.802,292.349,282.319,289.947z"/>
<g>
</g>
<g>
</g>
<g>
</g>
<g>
</g>
<g>
</g>
<g>
</g>
<g>
</g>
<g>
</g>
<g>
</g>
<g>
</g>
<g>
</g>
<g>
</g>
<g>
</g>
<g>
</g>
<g>
</g>
</svg>
