<?xml version="1.0" encoding="utf-8"?>
<!-- Generator: Adobe Illustrator 19.0.0, SVG Export Plug-In . SVG Version: 6.00 Build 0)  -->
<svg version="1.1" id="Layer_1" xmlns="http://www.w3.org/2000/svg" xmlns:xlink="http://www.w3.org/1999/xlink" x="0px" y="0px"
	 viewBox="-46 342.9 518.1 139" enable-background="new -46 342.9 518.1 139" xml:space="preserve">
<g>
	<g>
		<path fill="#78A548" d="M465.4,412.5l-42.4-55.2c-0.6-0.8-1.6-1.3-2.6-1.3H89.3v116.8h331.1c1,0,1.9-0.5,2.6-1.3l42.4-55.2
			C466.2,415.3,466.2,413.6,465.4,412.5z"/>
		<path fill="#2B2A2F" d="M-8.3,356c-14.1,0-25.7,11.6-25.7,25.8v65.3c0,14.2,11.6,25.8,25.7,25.8h97.6V356H-8.3z"/>
	</g>
	<g>
		<path fill="#9FC54D" d="M465.4,405.8l-42.4-55.2c-0.6-0.8-1.6-1.3-2.6-1.3H89.3v116.8h331.1c1,0,1.9-0.5,2.6-1.3l42.4-55.2
			C466.2,408.6,466.2,407,465.4,405.8z"/>
		<path fill="#373942" d="M-8.3,349.3c-14.1,0-25.7,11.6-25.7,25.8v65.3c0,14.2,11.6,25.8,25.7,25.8h97.6V349.3H-8.3z"/>
	</g>
	<g>
		<g>
			<path fill="#FFFFFF" d="M129.5,438.7c-2.2,0-4.2-0.3-5.9-1c-1.7-0.7-3.1-1.6-4.2-2.8s-2-2.7-2.7-4.5c-0.7-1.8-1.2-3.7-1.4-5.8
				c-0.3-2.1-0.4-4.4-0.4-7v-16.4c0-2.6,0.1-4.9,0.4-7c0.3-2.1,0.8-4,1.4-5.8c0.7-1.8,1.6-3.3,2.7-4.5c1.1-1.2,2.5-2.1,4.2-2.8
				c1.7-0.7,3.7-1,5.9-1c2.5,0,4.6,0.4,6.4,1.2c1.8,0.8,3.2,2,4.3,3.5c1.1,1.5,1.9,3.3,2.4,5.4c0.5,2,0.9,4.4,1,7.1c0,0.4,0,1,0,1.9
				H136v-1.8c0-1.1-0.1-2.1-0.1-2.9c-0.1-0.8-0.2-1.6-0.3-2.5s-0.4-1.6-0.7-2.1c-0.3-0.6-0.7-1.1-1.2-1.6c-0.5-0.5-1.1-0.8-1.8-1.1
				c-0.7-0.2-1.5-0.3-2.5-0.3c-1.2,0-2.3,0.2-3.2,0.6c-0.9,0.4-1.6,1-2.1,1.7c-0.5,0.7-0.9,1.6-1.1,2.7c-0.3,1.1-0.4,2.2-0.5,3.3
				c-0.1,1.1-0.1,2.4-0.1,4v20.6c0,1.4,0.1,2.6,0.2,3.7c0.1,1.1,0.3,2.2,0.6,3.3c0.3,1.1,0.7,2,1.2,2.8c0.5,0.8,1.2,1.4,2,1.8
				s1.8,0.7,3,0.7s2.1-0.2,2.9-0.7c0.8-0.5,1.4-1.1,1.9-1.8c0.5-0.7,0.8-1.7,1.1-2.8c0.3-1.1,0.4-2.2,0.5-3.3
				c0.1-1.1,0.1-2.3,0.1-3.7v-2.1h7.6v2.1c0,3-0.2,5.6-0.7,7.8c-0.5,2.3-1.3,4.2-2.3,6c-1.1,1.7-2.5,3-4.4,3.9
				C134.3,438.3,132.1,438.7,129.5,438.7z"/>
			<path fill="#FFFFFF" d="M162.4,438.7c-2.7,0-5-0.4-6.9-1.3c-1.9-0.9-3.4-2.2-4.6-3.9s-1.9-3.7-2.5-6c-0.5-2.3-0.8-4.9-0.8-8
				v-20.9c0-3,0.3-5.7,0.8-7.9c0.5-2.3,1.3-4.2,2.5-5.9c1.1-1.7,2.6-2.9,4.6-3.7c1.9-0.8,4.2-1.3,6.9-1.3c5.2,0,8.9,1.6,11.2,4.8
				c2.3,3.2,3.4,7.9,3.4,14v20.9c0,3-0.3,5.6-0.8,7.9c-0.5,2.3-1.3,4.3-2.5,6c-1.1,1.7-2.6,3-4.6,3.9
				C167.3,438.3,165,438.7,162.4,438.7z M156.8,429.3c1,1.7,2.9,2.6,5.5,2.6s4.5-0.9,5.5-2.6c1-1.7,1.5-4.3,1.5-7.7v-25
				c0-3.3-0.5-5.8-1.5-7.5c-1-1.6-2.9-2.5-5.5-2.5c-2.7,0-4.5,0.8-5.5,2.5c-1,1.7-1.5,4.1-1.5,7.5v25
				C155.3,425.1,155.8,427.6,156.8,429.3z"/>
			<path fill="#FFFFFF" d="M183.7,438.1v-57.6h5.7l13.3,35.6v-35.6h7.6v57.6h-5.4l-13.6-38.3v38.3H183.7z"/>
			<path fill="#FFFFFF" d="M223.5,438.1v-50.3H214v-7.3h26.6v7.3h-9.5v50.3H223.5z"/>
			<path fill="#FFFFFF" d="M240.3,438.1l11.4-57.6h7.6l11.4,57.6H263l-2.8-14.4h-9.5l-2.8,14.4H240.3z M251.6,417.5h7.6l-3.8-24.7
				L251.6,417.5z"/>
			<path fill="#FFFFFF" d="M288.3,438.7c-2.2,0-4.2-0.3-5.9-1s-3.1-1.6-4.2-2.8s-2-2.7-2.7-4.5c-0.7-1.8-1.2-3.7-1.4-5.8
				c-0.3-2.1-0.4-4.4-0.4-7v-16.4c0-2.6,0.1-4.9,0.4-7c0.3-2.1,0.8-4,1.4-5.8c0.7-1.8,1.6-3.3,2.7-4.5c1.1-1.2,2.5-2.1,4.2-2.8
				s3.7-1,5.9-1c2.5,0,4.6,0.4,6.4,1.2c1.8,0.8,3.2,2,4.3,3.5c1.1,1.5,1.9,3.3,2.4,5.4s0.9,4.4,1,7.1c0,0.4,0,1,0,1.9h-7.6v-1.8
				c0-1.1-0.1-2.1-0.1-2.9s-0.2-1.6-0.3-2.5s-0.4-1.6-0.7-2.1c-0.3-0.6-0.7-1.1-1.2-1.6c-0.5-0.5-1.1-0.8-1.8-1.1s-1.5-0.3-2.5-0.3
				c-1.2,0-2.3,0.2-3.2,0.6c-0.9,0.4-1.6,1-2.1,1.7c-0.5,0.7-0.9,1.6-1.1,2.7c-0.3,1.1-0.4,2.2-0.5,3.3c-0.1,1.1-0.1,2.4-0.1,4v20.6
				c0,1.4,0.1,2.6,0.2,3.7c0.1,1.1,0.3,2.2,0.6,3.3s0.7,2,1.2,2.8c0.5,0.8,1.2,1.4,2,1.8c0.8,0.5,1.8,0.7,3,0.7s2.1-0.2,2.9-0.7
				c0.8-0.5,1.4-1.1,1.9-1.8s0.8-1.7,1.1-2.8c0.3-1.1,0.4-2.2,0.5-3.3c0.1-1.1,0.1-2.3,0.1-3.7v-2.1h7.6v2.1c0,3-0.2,5.6-0.7,7.8
				c-0.5,2.3-1.3,4.2-2.3,6c-1.1,1.7-2.5,3-4.4,3.9S290.9,438.7,288.3,438.7z"/>
			<path fill="#FFFFFF" d="M313.1,438.1v-50.3h-9.5v-7.3h26.6v7.3h-9.5v50.3H313.1z"/>
			<path fill="#FFFFFF" d="M367.2,437.7c-1.8,0.7-3.8,1-6.1,1c-2.3,0-4.3-0.3-6.1-1c-1.8-0.7-3.2-1.6-4.3-2.8
				c-1.1-1.2-2.1-2.7-2.8-4.5c-0.7-1.8-1.2-3.7-1.5-5.8c-0.3-2.1-0.4-4.5-0.4-7.1v-37h7.6v37c0,1.8,0,3.3,0.1,4.5s0.3,2.5,0.5,3.8
				c0.3,1.4,0.7,2.4,1.2,3.3c0.5,0.8,1.3,1.5,2.2,2s2.1,0.8,3.5,0.8s2.5-0.3,3.5-0.8c1-0.5,1.7-1.2,2.2-2c0.5-0.8,0.9-1.9,1.2-3.3
				c0.3-1.4,0.5-2.6,0.5-3.8s0.1-2.7,0.1-4.5v-37h7.6v37c0,2.6-0.1,5-0.4,7.1c-0.3,2.1-0.8,4-1.5,5.8c-0.7,1.8-1.6,3.3-2.8,4.5
				S368.9,437.1,367.2,437.7z"/>
			<path fill="#FFFFFF" d="M397.3,438.7c-4.8,0-8.4-1.5-11-4.6c-2.5-3-3.9-7.2-4.2-12.5l7.6-2.1c0.4,8.2,2.9,12.3,7.6,12.3
				c3.8,0,5.7-2.1,5.7-6.2c0-1.2-0.2-2.4-0.5-3.4c-0.3-1-0.8-2-1.4-2.9s-1.2-1.6-1.7-2.1c-0.5-0.5-1.2-1.2-2.1-1.9l-9.5-8.2
				c-1.7-1.5-3.1-3.4-4.2-5.6c-1-2.3-1.6-4.9-1.6-7.8c0-4.2,1.2-7.6,3.6-10.1c2.4-2.5,5.7-3.8,9.7-3.8c4.3,0,7.7,1.1,10.3,3.4
				c2.5,2.3,4.1,5.5,4.7,9.7c0.1,0.5,0.1,1.1,0.2,1.9L403,397c0-0.4-0.1-0.9-0.1-1.6c-0.3-2.6-1.1-4.7-2.3-6.3
				c-1.2-1.6-2.9-2.4-5.2-2.4c-1.8,0-3.2,0.6-4.2,1.7c-1,1.1-1.5,2.6-1.5,4.6c0,3.2,1.3,5.9,3.8,8.1l9.5,8.2
				c5.1,4.4,7.6,9.7,7.6,15.9c0,4.2-1.2,7.5-3.6,9.9S401.3,438.7,397.3,438.7z"/>
		</g>
	</g>
</g>
<g>
	<g>
		<g>
			<g>
				<path fill="#9FC54D" d="M64.4,393.5c-1.5-4.6-3.5-7.9-3.6-8c-0.1-0.2-0.2-0.3-0.4-0.4c-12.4-9.7-47.4-12.5-62.7,0.6
					c-0.1,0.1-0.3,0.3-0.3,0.5c-0.2,0.3-4.8,8.3-4.6,17c0,0.5,0.2,1.1,0.5,1.5c0.2,0.3,5.3,6.2,17.7,2.5c1-0.3,1.7-1.2,1.7-2.3
					l-0.1-8.6c1.7-1.6,16.5-10.7,33.4-0.1l0.1,8.6c0,1.1,0.7,2,1.8,2.2c12.6,3.2,17.4-2.9,17.6-3.1c0.3-0.4,0.5-0.9,0.5-1.5
					C66,399.6,65.4,396.6,64.4,393.5z"/>
			</g>
			<path fill="#9FC54D" d="M40.5,403.6c-0.1-0.1-0.2-0.2-0.2-0.3v-3.2c0-0.7-0.6-1.2-1.2-1.2h-2.2c-0.7,0-1.2,0.6-1.2,1.2v2.8H23.1
				v-2.8c0-0.7-0.6-1.2-1.2-1.2h-2.2c-0.7,0-1.2,0.6-1.2,1.2v3.3c0,0-0.1,0.1-0.1,0.1L1,427.5c-0.2,0.3-0.3,0.6-0.3,1v9.6
				c0,0.9,0.7,1.7,1.7,1.7h54.1c0.9,0,1.7-0.7,1.7-1.7v-9.6c0-0.4-0.1-0.7-0.3-1L40.5,403.6z M29.4,434.4c-6,0-10.8-4.8-10.8-10.8
				c0-6,4.8-10.8,10.8-10.8c6,0,10.8,4.8,10.8,10.8C40.2,429.5,35.4,434.4,29.4,434.4z"/>
			<circle fill="#9FC54D" cx="29.4" cy="423.5" r="7.1"/>
		</g>
	</g>
</g>
</svg>
