<?xml version="1.0" encoding="utf-8"?>
<!-- Generator: Adobe Illustrator 19.0.0, SVG Export Plug-In . SVG Version: 6.00 Build 0)  -->
<svg version="1.1" id="Layer_1" xmlns="http://www.w3.org/2000/svg" xmlns:xlink="http://www.w3.org/1999/xlink" x="0px" y="0px"
	 viewBox="-46 334.9 518.1 161" enable-background="new -46 334.9 518.1 161" xml:space="preserve">
<g>
	<path fill="#5C8D41" d="M333.6,355.9v68.1c0,7.7,6.3,14,14,14h33.7c7.7,0,14-6.3,14-14v-68.1c0-7.7-6.3-14-14-14h-33.7
		C340,341.8,333.6,348.1,333.6,355.9z"/>
	<path fill="#373942" d="M442.8,478.9H-16.5c-12.3,0-22.3-10-22.3-22.3v-81.9c0-12.3,10-22.3,22.3-22.3h459.3
		c12.3,0,22.3,10,22.3,22.3v81.9C465.1,468.9,455.1,478.9,442.8,478.9z"/>
	<path fill="#2B2A2F" d="M442.8,487H-16.5c-12.3,0-22.3-10-22.3-22.3v-81.9c0-12.3,10-22.3,22.3-22.3h459.3
		c12.3,0,22.3,10,22.3,22.3v81.9C465.1,477,455.1,487,442.8,487z"/>
	<path fill="#373942" d="M442.8,478.9H-16.5c-12.3,0-22.3-10-22.3-22.3v-81.9c0-12.3,10-22.3,22.3-22.3h459.3
		c12.3,0,22.3,10,22.3,22.3v81.9C465.1,468.9,455.1,478.9,442.8,478.9z"/>
	<path fill="#2B2A2F" d="M387.5,432.6l33.8-26.8c0.5-0.4,0.8-1,0.8-1.6v-59h-71.6v59c0,0.6,0.3,1.2,0.8,1.6l33.8,26.8
		C385.7,433.2,386.7,433.2,387.5,432.6z"/>
	<path fill="#76A54E" d="M20.6,360.4h-34.3c-13.8,0-25,11.5-25,25.7v75.2c0,14.2,11.2,25.7,25,25.7h34.3V360.4z"/>
	<path fill="#9FC54D" d="M20.6,352.4h-34.3c-13.8,0-25,11.5-25,25.7v75.2c0,14.2,11.2,25.7,25,25.7h34.3V352.4z"/>
	<g>
		<g>
			<path fill="#FFFFFF" d="M65.8,445.8c-2.2,0-4.1-0.3-5.7-1c-1.7-0.7-3-1.6-4.1-2.7c-1.1-1.2-1.9-2.6-2.6-4.3
				c-0.7-1.7-1.1-3.6-1.4-5.5c-0.3-2-0.4-4.2-0.4-6.6V410c0-2.5,0.1-4.7,0.4-6.6c0.3-2,0.7-3.8,1.4-5.5c0.7-1.7,1.5-3.2,2.6-4.3
				c1.1-1.1,2.4-2,4.1-2.7c1.7-0.7,3.6-1,5.7-1c2.4,0,4.5,0.4,6.2,1.1c1.7,0.8,3.1,1.9,4.2,3.3c1,1.5,1.8,3.2,2.4,5.1
				c0.5,1.9,0.8,4.2,0.9,6.8c0,0.4,0,1,0,1.8h-7.4v-1.7c0-1.1-0.1-2-0.1-2.8s-0.2-1.6-0.3-2.4c-0.2-0.8-0.4-1.5-0.7-2
				c-0.3-0.5-0.7-1-1.1-1.5c-0.5-0.5-1-0.8-1.7-1s-1.5-0.3-2.4-0.3c-1.2,0-2.2,0.2-3.1,0.6c-0.9,0.4-1.5,0.9-2,1.6
				c-0.5,0.6-0.8,1.5-1.1,2.6c-0.3,1.1-0.4,2.1-0.5,3.2c-0.1,1-0.1,2.3-0.1,3.8v19.6c0,1.3,0.1,2.5,0.2,3.5c0.1,1.1,0.3,2.1,0.6,3.2
				c0.3,1,0.7,1.9,1.2,2.6c0.5,0.7,1.1,1.3,2,1.7c0.8,0.4,1.8,0.7,2.9,0.7c1.1,0,2-0.2,2.8-0.7c0.8-0.4,1.4-1,1.9-1.7
				c0.5-0.7,0.8-1.6,1.1-2.7c0.3-1.1,0.4-2.1,0.5-3.1c0.1-1,0.1-2.2,0.1-3.5v-2h7.4v2c0,2.8-0.2,5.3-0.7,7.5s-1.2,4-2.3,5.7
				c-1,1.6-2.5,2.9-4.3,3.7C70.5,445.4,68.4,445.8,65.8,445.8z"/>
			<path fill="#FFFFFF" d="M97.8,445.8c-2.6,0-4.8-0.4-6.7-1.3c-1.9-0.8-3.3-2.1-4.4-3.7c-1.1-1.6-1.9-3.5-2.4-5.7
				c-0.5-2.2-0.7-4.7-0.7-7.6v-19.9c0-2.9,0.2-5.4,0.7-7.5c0.5-2.1,1.3-4,2.4-5.6c1.1-1.6,2.6-2.8,4.4-3.6c1.9-0.8,4.1-1.2,6.7-1.2
				c5,0,8.7,1.5,10.9,4.6s3.3,7.5,3.3,13.3v19.9c0,2.8-0.3,5.3-0.8,7.5c-0.5,2.2-1.3,4.1-2.4,5.7c-1.1,1.6-2.6,2.9-4.4,3.7
				C102.5,445.4,100.3,445.8,97.8,445.8z M92.4,436.9c1,1.6,2.8,2.5,5.4,2.5c2.6,0,4.4-0.8,5.4-2.5c1-1.7,1.5-4.1,1.5-7.3v-23.8
				c0-3.2-0.5-5.5-1.5-7.1c-1-1.6-2.8-2.4-5.4-2.4s-4.4,0.8-5.4,2.4s-1.5,3.9-1.5,7.1v23.8C90.9,432.8,91.4,435.2,92.4,436.9z"/>
			<path fill="#FFFFFF" d="M118.4,445.2v-54.7h5.5l12.9,33.9v-33.9h7.4v54.7H139l-13.2-36.4v36.4H118.4z"/>
			<path fill="#FFFFFF" d="M157.1,445.2v-47.8h-9.2v-7h25.8v7h-9.2v47.8H157.1z"/>
			<path fill="#FFFFFF" d="M173.4,445.2l11.1-54.7h7.4l11.1,54.7h-7.4l-2.8-13.7h-9.2l-2.8,13.7H173.4z M184.4,425.7h7.4l-3.7-23.5
				L184.4,425.7z"/>
			<path fill="#FFFFFF" d="M220,445.8c-2.2,0-4.1-0.3-5.7-1s-3-1.6-4.1-2.7c-1.1-1.2-1.9-2.6-2.6-4.3c-0.7-1.7-1.1-3.6-1.4-5.5
				c-0.3-2-0.4-4.2-0.4-6.6V410c0-2.5,0.1-4.7,0.4-6.6c0.3-2,0.7-3.8,1.4-5.5c0.7-1.7,1.5-3.2,2.6-4.3c1.1-1.1,2.4-2,4.1-2.7
				c1.7-0.7,3.6-1,5.7-1c2.4,0,4.5,0.4,6.2,1.1c1.7,0.8,3.1,1.9,4.2,3.3c1,1.5,1.8,3.2,2.4,5.1c0.5,1.9,0.8,4.2,0.9,6.8
				c0,0.4,0,1,0,1.8h-7.4v-1.7c0-1.1-0.1-2-0.1-2.8s-0.2-1.6-0.3-2.4c-0.2-0.8-0.4-1.5-0.7-2c-0.3-0.5-0.7-1-1.1-1.5
				c-0.5-0.5-1-0.8-1.7-1c-0.7-0.2-1.5-0.3-2.4-0.3c-1.2,0-2.2,0.2-3.1,0.6c-0.9,0.4-1.5,0.9-2,1.6s-0.8,1.5-1.1,2.6
				c-0.3,1.1-0.4,2.1-0.5,3.2c-0.1,1-0.1,2.3-0.1,3.8v19.6c0,1.3,0.1,2.5,0.2,3.5c0.1,1.1,0.3,2.1,0.6,3.2c0.3,1,0.7,1.9,1.2,2.6
				c0.5,0.7,1.1,1.3,2,1.7c0.8,0.4,1.8,0.7,2.9,0.7s2-0.2,2.8-0.7c0.8-0.4,1.4-1,1.9-1.7c0.5-0.7,0.8-1.6,1.1-2.7
				c0.3-1.1,0.4-2.1,0.5-3.1c0.1-1,0.1-2.2,0.1-3.5v-2h7.4v2c0,2.8-0.2,5.3-0.7,7.5c-0.5,2.1-1.2,4-2.3,5.7c-1,1.6-2.5,2.9-4.3,3.7
				S222.5,445.8,220,445.8z"/>
			<path fill="#FFFFFF" d="M244.1,445.2v-47.8h-9.2v-7h25.8v7h-9.2v47.8H244.1z"/>
			<path fill="#FFFFFF" d="M296.6,444.9c-1.7,0.6-3.7,0.9-5.9,0.9c-2.2,0-4.2-0.3-5.9-0.9c-1.7-0.6-3.1-1.5-4.2-2.6
				c-1.1-1.1-2-2.6-2.7-4.3c-0.7-1.7-1.2-3.6-1.5-5.5c-0.3-2-0.4-4.2-0.4-6.7v-35.2h7.4v35.2c0,1.7,0,3.1,0.1,4.2s0.2,2.4,0.5,3.7
				c0.3,1.3,0.7,2.3,1.2,3.1c0.5,0.8,1.2,1.4,2.2,1.9c0.9,0.5,2.1,0.8,3.4,0.8c1.3,0,2.5-0.3,3.4-0.8c0.9-0.5,1.7-1.2,2.2-1.9
				c0.5-0.8,0.9-1.8,1.2-3.1c0.3-1.3,0.5-2.5,0.5-3.7c0.1-1.1,0.1-2.6,0.1-4.2v-35.2h7.4v35.2c0,2.5-0.1,4.8-0.4,6.7
				c-0.3,2-0.8,3.8-1.5,5.5c-0.7,1.7-1.6,3.1-2.7,4.3C299.7,443.4,298.3,444.2,296.6,444.9z"/>
			<path fill="#FFFFFF" d="M325.8,445.8c-4.6,0-8.2-1.4-10.6-4.3c-2.4-2.9-3.8-6.8-4.1-11.9l7.4-2c0.4,7.8,2.8,11.7,7.4,11.7
				c3.7,0,5.5-2,5.5-5.9c0-1.2-0.1-2.2-0.4-3.2c-0.3-1-0.8-1.9-1.4-2.7c-0.6-0.8-1.2-1.5-1.7-2c-0.5-0.5-1.2-1.1-2-1.8l-9.2-7.8
				c-1.7-1.4-3-3.2-4-5.4s-1.5-4.6-1.5-7.4c0-4,1.2-7.2,3.5-9.6c2.4-2.4,5.5-3.6,9.4-3.6c4.2,0,7.5,1.1,10,3.3
				c2.5,2.2,4,5.2,4.6,9.2c0.1,0.4,0.1,1,0.2,1.8l-7.4,2c0-0.3-0.1-0.9-0.1-1.6c-0.3-2.5-1.1-4.5-2.2-6c-1.1-1.5-2.8-2.2-5-2.2
				c-1.8,0-3.1,0.5-4.1,1.6c-1,1-1.4,2.5-1.4,4.4c0,3.1,1.2,5.7,3.7,7.7l9.2,7.8c4.9,4.2,7.4,9.3,7.4,15.1c0,4-1.2,7.1-3.5,9.4
				S329.7,445.8,325.8,445.8z"/>
		</g>
	</g>
	<path fill="#9FC54D" d="M387.5,429.1l33.8-26.8c0.5-0.4,0.8-1,0.8-1.6v-59h-71.6v59c0,0.6,0.3,1.2,0.8,1.6l33.8,26.8
		C385.7,429.7,386.7,429.7,387.5,429.1z"/>
	<path fill="#373942" d="M399.5,380.4c0.1-0.4,3-10.8-0.5-17.6c-0.1-0.1-0.1-0.2-0.2-0.3c-0.2-0.2-4.1-4.6-9.3-6.2
		c-0.3-0.1-0.7-0.1-1,0c-0.2,0.1-4.7,2-4.9,10.3c0,0.7,0.4,1.3,1,1.5l5.2,1.6c0.6,1.4,2.2,5.2,1.2,8.7l-0.7,2.5
		c-1,3.5-4.4,5.8-5.7,6.5l-5.2-1.6c-0.6-0.2-1.3,0.1-1.7,0.6c-4.3,7-1.7,11.2-1.5,11.4c0.2,0.3,0.5,0.5,0.8,0.6
		c1.7,0.5,3.5,0.8,5.6,0.8c3,0,5.4-0.6,5.5-0.6c0.1,0,0.2-0.1,0.3-0.1c6.6-3.6,9.9-13.9,10-14.3c0,0,0,0,0,0L399.5,380.4
		C399.5,380.4,399.5,380.4,399.5,380.4z"/>
	<path fill="#373942" d="M7.6,413.8l-13.4-17.2c-2.3-3-6.6-3.4-9.4-1.1l0,0c-2.9,2.4-3.3,6.7-1,9.7l10.2,13l-10.2,13
		c-2.3,3-1.8,7.3,1,9.7l0,0c2.9,2.4,7.1,1.9,9.4-1.1l13.4-17.2c1-1.3,1.5-2.9,1.5-4.5C9.1,416.7,8.6,415.1,7.6,413.8z"/>
</g>
</svg>
