<?xml version="1.0" encoding="iso-8859-1"?>
<!-- Generator: Adobe Illustrator 19.0.0, SVG Export Plug-In . SVG Version: 6.00 Build 0)  -->
<svg version="1.1" id="Capa_1" xmlns="http://www.w3.org/2000/svg" xmlns:xlink="http://www.w3.org/1999/xlink" x="0px" y="0px"
	 viewBox="0 0 409.585 409.585" style="enable-background:new 0 0 409.585 409.585;" xml:space="preserve">
<polygon style="fill:#EBF0F3;" points="148.672,409.585 115.817,366.953 63.04,377.517 138.837,175.113 224.469,207.181 "/>
<polygon style="fill:#E56353;" points="260.913,409.585 293.768,366.953 346.545,377.517 270.748,175.113 185.116,207.181 "/>
<polygon style="fill:#FCD462;" points="204.792,13.009 219.178,0 230.545,15.715 247.321,5.982 255.172,23.717 273.605,17.684 
	277.597,36.664 296.882,34.596 296.84,53.991 316.133,55.977 312.061,74.94 330.519,80.894 322.593,98.595 339.41,108.257 
	327.976,123.924 342.417,136.871 327.976,149.818 339.41,165.485 322.593,175.147 330.519,192.848 312.061,198.802 316.133,217.765 
	296.84,219.751 296.882,239.146 277.597,237.078 273.605,256.058 255.172,250.025 247.321,267.76 230.545,258.027 219.178,273.742 
	204.792,260.734 190.407,273.742 179.04,258.027 162.264,267.76 154.413,250.025 135.98,256.058 131.988,237.078 112.703,239.146 
	112.745,219.751 93.452,217.765 97.524,198.802 79.066,192.848 86.992,175.147 70.175,165.485 81.609,149.818 67.167,136.871 
	81.609,123.924 70.175,108.257 86.992,98.595 79.066,80.894 97.524,74.94 93.452,55.977 112.745,53.991 112.703,34.596 
	131.988,36.664 135.98,17.684 154.413,23.717 162.264,5.982 179.04,15.715 190.407,0 "/>
<circle style="fill:#DC8744;" cx="204.792" cy="136.871" r="101.396"/>
<circle style="fill:#F6C358;" cx="204.792" cy="136.871" r="89.641"/>
<path style="fill:#E56353;" d="M191.437,90.328c4.226,4.574,6.351,10.108,6.351,16.603c0,6.483-2.149,12.041-6.423,16.663
	c-4.274,4.622-9.592,6.939-15.93,6.939c-6.339,0-11.633-2.293-15.858-6.867c-4.226-4.574-6.339-10.096-6.339-16.591
	c0-6.495,2.137-12.053,6.411-16.675c4.286-4.622,9.592-6.927,15.93-6.927C181.929,83.473,187.211,85.754,191.437,90.328z
	 M251.473,85.982l-75.523,103.11h-19.028l75.523-103.11H251.473z M181.557,114.674c1.573-2.017,2.365-4.502,2.365-7.455
	c0-2.953-0.84-5.426-2.509-7.443c-1.681-2.017-3.722-3.025-6.122-3.025c-2.413,0-4.406,1.008-5.978,3.025
	c-1.573,2.017-2.365,4.49-2.365,7.443c0,2.953,0.84,5.438,2.509,7.455c1.681,2.017,3.71,3.025,6.122,3.025
	S179.984,116.691,181.557,114.674z M250.009,150.076c4.226,4.574,6.339,10.108,6.339,16.591c0,6.495-2.137,12.053-6.423,16.675
	c-4.274,4.622-9.58,6.927-15.93,6.927c-6.339,0-11.621-2.281-15.858-6.855c-4.226-4.574-6.339-10.108-6.339-16.591
	c0-6.495,2.137-12.053,6.423-16.675c4.274-4.622,9.58-6.939,15.93-6.939C240.489,143.21,245.771,145.503,250.009,150.076z
	 M240.417,174.71c1.573-2.017,2.353-4.502,2.353-7.455c0-2.941-0.828-5.426-2.497-7.443c-1.681-2.017-3.721-3.025-6.122-3.025
	c-2.413,0-4.406,1.008-5.978,3.025c-1.573,2.017-2.365,4.502-2.365,7.443c0,2.953,0.84,5.438,2.509,7.455s3.71,3.025,6.122,3.025
	S238.844,176.727,240.417,174.71z"/>
<g>
</g>
<g>
</g>
<g>
</g>
<g>
</g>
<g>
</g>
<g>
</g>
<g>
</g>
<g>
</g>
<g>
</g>
<g>
</g>
<g>
</g>
<g>
</g>
<g>
</g>
<g>
</g>
<g>
</g>
</svg>
