<?xml version="1.0" encoding="iso-8859-1"?>
<!-- Generator: Adobe Illustrator 19.0.0, SVG Export Plug-In . SVG Version: 6.00 Build 0)  -->
<svg version="1.1" id="Capa_1" xmlns="http://www.w3.org/2000/svg" xmlns:xlink="http://www.w3.org/1999/xlink" x="0px" y="0px"
	 viewBox="0 0 56 56" style="enable-background:new 0 0 56 56;" xml:space="preserve">
<circle style="fill:#38454F;" cx="28" cy="28" r="28"/>
<ellipse style="fill:#ECF0F1;" cx="22" cy="23.5" rx="16" ry="15.5"/>
<path style="fill:#38454F;" d="M22.5,24h-3c-3.033,0-5.5-2.467-5.5-5.5s2.467-5.5,5.5-5.5h3c3.033,0,5.5,2.467,5.5,5.5
	S25.533,24,22.5,24z M19.5,15c-1.93,0-3.5,1.57-3.5,3.5s1.57,3.5,3.5,3.5h3c1.93,0,3.5-1.57,3.5-3.5S24.43,15,22.5,15H19.5z"/>
<path style="fill:#38454F;" d="M22.5,33h-3c-3.033,0-5.5-2.467-5.5-5.5s2.467-5.5,5.5-5.5h3c3.033,0,5.5,2.467,5.5,5.5
	S25.533,33,22.5,33z M19.5,24c-1.93,0-3.5,1.57-3.5,3.5s1.57,3.5,3.5,3.5h3c1.93,0,3.5-1.57,3.5-3.5S24.43,24,22.5,24H19.5z"/>
<g>
</g>
<g>
</g>
<g>
</g>
<g>
</g>
<g>
</g>
<g>
</g>
<g>
</g>
<g>
</g>
<g>
</g>
<g>
</g>
<g>
</g>
<g>
</g>
<g>
</g>
<g>
</g>
<g>
</g>
</svg>
