<?xml version="1.0" encoding="iso-8859-1"?>
<!-- Generator: Adobe Illustrator 19.0.0, SVG Export Plug-In . SVG Version: 6.00 Build 0)  -->
<svg version="1.1" id="Capa_1" xmlns="http://www.w3.org/2000/svg" xmlns:xlink="http://www.w3.org/1999/xlink" x="0px" y="0px"
	 viewBox="0 0 55.008 55.008" style="enable-background:new 0 0 55.008 55.008;" xml:space="preserve">
<path style="fill:#7A3726;" d="M35.004,0h-16c-0.553,0-1,0.447-1,1v6c0,0.553,0.447,1,1,1h16c0.553,0,1-0.447,1-1V1
	C36.004,0.447,35.557,0,35.004,0z"/>
<path style="fill:#E64C3C;stroke:#C03A2B;stroke-width:2;stroke-linecap:round;stroke-linejoin:round;stroke-miterlimit:10;" d="
	M52.004,23V11c-0.037-2.025-1.256-3.443-2.585-4.389C47.881,5.516,46.004,5,44.116,5h-0.488c-1.059,0-2.093-0.313-2.974-0.901
	L35.004,1l-6.202,4.43c-0.516,0.369-1.134,0.571-1.769,0.573c-0.009,0-0.019,0-0.029,0c-0.643,0.002-1.274-0.2-1.797-0.573L19.004,1
	l-3.649,3.099C14.474,4.687,13.439,5,12.381,5h-1.488C9.004,5,7.128,5.516,5.59,6.611C4.26,7.557,3.042,8.975,3.004,11v12h9
	c0,0,3.833,19.917-2,26c0,0,3.632,5.237,12.642,5c2.573-0.068,6.793-0.068,9.366,0c9.012,0.238,12.992-5,12.992-5
	c-5.833-6.083-2-26-2-26H52.004z"/>
<path style="fill:#F0C419;" d="M39.004,44h-23c-0.553,0-1-0.447-1-1s0.447-1,1-1h23c0.553,0,1,0.447,1,1S39.557,44,39.004,44z"/>
<path style="fill:#F0C419;" d="M38.004,39h-21c-0.553,0-1-0.447-1-1s0.447-1,1-1h21c0.553,0,1,0.447,1,1S38.557,39,38.004,39z"/>
<path style="fill:#F0C419;" d="M38.004,34h-21c-0.553,0-1-0.447-1-1s0.447-1,1-1h21c0.553,0,1,0.447,1,1S38.557,34,38.004,34z"/>
<g>
	<path style="fill:#F0C419;" d="M37.611,17c0.858-0.722,1.393-1.774,1.393-3c0-2.28-1.812-4-4.214-4h-2.144
		c-2.402,0-4.214,1.72-4.214,4c0,1.226,0.535,2.278,1.393,3c-0.858,0.722-1.393,1.774-1.393,3c0,2.28,1.812,4,4.214,4h2.144
		c2.402,0,4.214-1.72,4.214-4C39.004,18.774,38.469,17.722,37.611,17z M30.433,14c0-1.313,1.113-2,2.214-2h2.144
		c1.101,0,2.214,0.687,2.214,2s-1.113,2-2.214,2h-2.144C31.546,16,30.433,15.313,30.433,14z M34.79,22h-2.144
		c-1.101,0-2.214-0.687-2.214-2s1.113-2,2.214-2h2.144c1.101,0,2.214,0.687,2.214,2S35.891,22,34.79,22z"/>
	<path style="fill:#F0C419;" d="M26.575,14c0-2.28-1.812-4-4.214-4h-2.144c-2.402,0-4.214,1.72-4.214,4c0,1.226,0.535,2.278,1.393,3
		c-0.858,0.722-1.393,1.774-1.393,3c0,2.28,1.812,4,4.214,4h2.144c2.402,0,4.214-1.72,4.214-4c0-1.226-0.535-2.278-1.393-3
		C26.04,16.278,26.575,15.226,26.575,14z M24.575,20c0,1.313-1.113,2-2.214,2h-2.144c-1.101,0-2.214-0.687-2.214-2s1.113-2,2.214-2
		h2.144C23.462,18,24.575,18.687,24.575,20z M20.218,16c-1.101,0-2.214-0.687-2.214-2s1.113-2,2.214-2h2.144
		c1.101,0,2.214,0.687,2.214,2s-1.113,2-2.214,2H20.218z"/>
</g>
<line style="fill:none;stroke:#C03A2B;stroke-width:2;stroke-linecap:round;stroke-linejoin:round;stroke-miterlimit:10;" x1="12.004" y1="23" x2="12.004" y2="12"/>
<line style="fill:none;stroke:#C03A2B;stroke-width:2;stroke-linecap:round;stroke-linejoin:round;stroke-miterlimit:10;" x1="43.004" y1="23" x2="43.004" y2="12"/>
<g>
</g>
<g>
</g>
<g>
</g>
<g>
</g>
<g>
</g>
<g>
</g>
<g>
</g>
<g>
</g>
<g>
</g>
<g>
</g>
<g>
</g>
<g>
</g>
<g>
</g>
<g>
</g>
<g>
</g>
</svg>
