<?xml version="1.0" encoding="iso-8859-1"?>
<!-- Generator: Adobe Illustrator 19.0.0, SVG Export Plug-In . SVG Version: 6.00 Build 0)  -->
<svg version="1.1" id="Layer_1" xmlns="http://www.w3.org/2000/svg" xmlns:xlink="http://www.w3.org/1999/xlink" x="0px" y="0px"
	 viewBox="0 0 512 512" style="enable-background:new 0 0 512 512;" xml:space="preserve">
<path style="fill:#0098FF;" d="M312.663,305.293v127.746H199.337V305.293C236.836,307.47,275.085,307.474,312.663,305.293z"/>
<path style="fill:#078CD6;" d="M199.337,305.293v127.746H256V306.927C236.688,306.927,217.763,306.363,199.337,305.293z"/>
<path style="fill:#71C5DB;" d="M214.197,385.977c-5.453,0-10.542,1.548-14.861,4.22v42.843h36.017
	C251.421,414.945,238.673,385.977,214.197,385.977z"/>
<circle style="fill:#7FCEEA;" cx="269.728" cy="362.517" r="18.126"/>
<g>
	<path style="fill:#71C5DB;" d="M255.999,350.701c-5.863,6.812-5.861,16.814,0,23.624V350.701z"/>
	<path style="fill:#71C5DB;" d="M199.337,341.506c21.863,9.279,43.038-14.199,32.068-34.905c-10.833-0.271-21.54-0.697-32.068-1.308
		V341.506z"/>
</g>
<path style="fill:#FFCA54;" d="M199.337,122.585v127.746h113.327V122.585C276.343,124.695,238.057,124.834,199.337,122.585z"/>
<path style="fill:#F99830;" d="M199.337,122.585v127.746H256V124.22C236.688,124.22,217.763,123.656,199.337,122.585z"/>
<path style="fill:#17DDC0;" d="M337.696,120.799l75.389,115.791c2.034-7.71,33.14-125.663,35.063-132.953
	C415.108,111.49,377.821,117.375,337.696,120.799z"/>
<path style="fill:#0DBAA1;" d="M367.094,117.793c-9.61,1.148-19.417,2.154-29.398,3.005l75.389,115.791l9.039-34.275
	L367.094,117.793z"/>
<path style="fill:#7F8CDD;" d="M130.863,370.228l-31.949,49.071L63.851,286.344c33.04,7.852,70.328,13.739,110.453,17.162
	l-28.648,44"/>
<path style="fill:#959FEF;" d="M90.977,292.156l26.152,99.165c35.067-53.858,1.925-2.961,57.174-87.816
	C144.804,300.989,116.848,297.137,90.977,292.156z"/>
<path style="fill:#FC3842;" d="M50.358,100.257L27.434,223.639l63.273-30.361l48.146,51.062l23.165-124.679
	C121.076,115.599,83.327,108.948,50.358,100.257z"/>
<path style="fill:#EF2235;" d="M104.95,111.992c-19.32-3.32-37.595-7.253-54.591-11.733L27.434,223.64l62.331-29.909L104.95,111.992
	z"/>
<path style="fill:#FC3842;" d="M461.641,282.964l22.924,123.382l-63.273-30.361l-48.146,51.062l-23.165-124.678
	C390.923,298.306,428.671,291.656,461.641,282.964z"/>
<path style="fill:#EF2235;" d="M407.45,294.632c-18.276,3.15-37.488,5.755-57.469,7.737l23.165,124.678l48.146-51.062l1.398,0.671
	L407.45,294.632z"/>
<path style="fill:#F99841;" d="M312.663,166.017l-49.08-41.851c-16.973,0.125-32.904-0.084-52.536-0.984
	c111.56,95.127,62.938,53.662,101.616,86.646V166.017z"/>
<path style="fill:#EA5E18;" d="M211.047,123.181l44.952,38.331V124.22c-4.315,0-8.604-0.037-12.878-0.094
	C226.266,123.904,211.047,123.181,211.047,123.181z"/>
<polygon style="fill:#F99841;" points="199.337,200.818 257.401,250.332 308.779,250.332 199.337,157.006 "/>
<polygon style="fill:#EA5E18;" points="255.999,205.325 199.337,157.006 199.337,200.818 255.999,249.136 "/>
<g>
	<path style="fill:#BAD8E8;" d="M5.281,94.629c-4.187-1.55-6.327-6.2-4.777-10.388c1.55-4.187,6.201-6.325,10.388-4.776
		C73.886,102.77,163.224,116.136,256,116.136c92.777,0,182.115-13.366,245.109-36.671c4.187-1.55,8.838,0.591,10.388,4.776
		c1.55,4.187-0.59,8.838-4.777,10.388C370.599,144.987,141.182,144.906,5.281,94.629z"/>
	<path style="fill:#BAD8E8;" d="M5.281,277.337c-4.187-1.55-6.327-6.2-4.777-10.388c1.55-4.188,6.201-6.326,10.388-4.777
		c131.929,48.807,358.196,48.84,490.216,0c4.187-1.551,8.838,0.59,10.388,4.777c1.55,4.187-0.59,8.838-4.777,10.388
		C370.621,327.685,141.213,327.624,5.281,277.337z"/>
</g>
<g>
</g>
<g>
</g>
<g>
</g>
<g>
</g>
<g>
</g>
<g>
</g>
<g>
</g>
<g>
</g>
<g>
</g>
<g>
</g>
<g>
</g>
<g>
</g>
<g>
</g>
<g>
</g>
<g>
</g>
</svg>
