<?xml version="1.0" encoding="iso-8859-1"?>
<!-- Generator: Adobe Illustrator 19.0.0, SVG Export Plug-In . SVG Version: 6.00 Build 0)  -->
<svg version="1.1" id="Capa_1" xmlns="http://www.w3.org/2000/svg" xmlns:xlink="http://www.w3.org/1999/xlink" x="0px" y="0px"
	 viewBox="0 0 511.999 511.999" style="enable-background:new 0 0 511.999 511.999;" xml:space="preserve">
<path style="fill:#EA473B;" d="M222.999,118.253c-0.062-57.529-68.881-88.086-111.555-48.806C68.91,30.475-0.059,60.54,0,118.48
	c0.069,68.178,62.157,109.646,90.006,124.819v112.756H64.705c-11.869,0-21.493,9.623-21.493,21.493s9.624,21.493,21.493,21.493
	h25.301v39.638c0,11.87,9.622,21.494,21.494,21.494c11.867,0,21.492-9.624,21.492-21.494v-39.638h25.299
	c11.87,0,21.493-9.623,21.493-21.493s-9.623-21.493-21.493-21.493h-25.299V243.391C160.692,228.274,223.068,186.634,222.999,118.253
	z M42.986,118.435C42.96,94.425,75.014,85.849,86.94,106.83c0.84,1.477,1.836,2.822,2.957,4.029
	c3.032,3.335,10.447,9.94,21.609,9.939c11.328-0.015,18.802-6.867,21.719-10.143c1.069-1.172,2.009-2.471,2.804-3.876
	c11.852-20.944,43.957-12.531,43.983,11.518c0.044,45.909-48.288,76.862-68.384,87.745C91.6,195.15,43.033,164.022,42.986,118.435z"
	/>
<path style="fill:#D63322;" d="M110.612,438.679c0-10.479,0-175.323,0-185.599c0-6.981-3.783-12.343-8.423-14.603h0.001
	C-10.079,171.112,5.843,63.796,76.698,52.731C36.446,46.422-0.041,77.585,0,118.48c0.069,68.178,62.157,109.646,90.006,124.819
	c0,11.256,0,101.421,0,112.756H64.705c-11.869,0-21.493,9.623-21.493,21.493s9.624,21.493,21.493,21.493h25.301
	c0,41.623-1.053,44.035,3.23,50.929c4.017,6.493,11.035,10.203,18.264,10.203c3.733,0,7.242-0.955,10.301-2.629
	C115.134,453.894,110.612,446.816,110.612,438.679z"/>
<path style="fill:#49B5CE;" d="M421.994,268.605v-143.4l36.871,36.871c4.194,4.198,9.697,6.295,15.197,6.295
	c5.502,0,11.001-2.098,15.199-6.295c8.393-8.393,8.393-22.003,0-30.396c-78.586-78.582-75.159-76.014-80.548-78.223
	c-5.916-2.465-12.71-2.104-18.346,0.908c-5.228,2.816-5.657,4.347-78.628,77.316c-8.395,8.392-8.395,22.002,0,30.396
	c8.395,8.392,22.002,8.392,30.395,0l36.871-36.873V268.7C351.157,283.871,289.07,325.338,289,393.517
	c-0.052,57.941,68.911,88.011,111.446,49.032c42.669,39.287,111.489,8.724,111.553-48.805
	C512.067,325.363,449.691,283.723,421.994,268.605z M425.032,405.218c-3.498-6.182-12.678-14.003-24.526-14.018
	c-11.17-0.001-20.672,7.116-24.564,13.967c-11.916,20.964-43.97,12.398-43.957-11.605c0.049-45.587,48.613-76.715,68.645-87.608
	c20.093,10.883,68.428,41.836,68.381,87.746C468.987,417.705,436.888,426.182,425.032,405.218z"/>
<path style="fill:#31A6BA;" d="M390.367,54.365c-5.228,2.816-5.657,4.347-78.628,77.316c-8.395,8.392-8.395,22.002,0,30.396
	c8.395,8.392,22.002,8.392,30.395,0l36.871-36.873c0,8.236,0,136.849,0,143.497C351.157,283.872,289.07,325.339,289,393.518
	c-0.037,40.734,36.262,72.087,76.7,65.749c-13.834-2.16-26.588-8.612-36.666-18.711c-12.547-12.572-19.445-29.276-19.429-47.038
	c0.064-61.66,50.85-101.47,81.161-119.742l0.004-0.002c5.976-3.618,8.84-10.501,8.84-17.775c0-0.928,0-198.763,0-204.13
	C396.344,51.981,393.115,52.896,390.367,54.365z"/>
<g>
</g>
<g>
</g>
<g>
</g>
<g>
</g>
<g>
</g>
<g>
</g>
<g>
</g>
<g>
</g>
<g>
</g>
<g>
</g>
<g>
</g>
<g>
</g>
<g>
</g>
<g>
</g>
<g>
</g>
</svg>
