<?xml version="1.0" encoding="utf-8"?>
<!-- Generator: Adobe Illustrator 19.0.0, SVG Export Plug-In . SVG Version: 6.00 Build 0)  -->
<svg version="1.1" id="Capa_1" xmlns="http://www.w3.org/2000/svg" xmlns:xlink="http://www.w3.org/1999/xlink" x="0px" y="0px"
	 viewBox="-49 342 512 112" style="enable-background:new -49 342 512 112;" xml:space="preserve">
<style type="text/css">
	.st0{fill:#FFFFFF;}
	.st1{fill:#F9A500;}
	.st2{fill:url(#XMLID_2_);}
</style>
<g id="XMLID_1259_">
	<polygon id="XMLID_1016_" class="st0" points="-40.8,374.7 -40.8,445.1 454.4,420.2 454.4,380.8 417.4,351.7 	"/>
	<polygon id="XMLID_986_" class="st1" points="-33.1,380.8 -33.1,438.2 446.6,414.1 446.6,374.6 425.2,357.8 	"/>
	<g id="XMLID_911_">
		<path id="XMLID_912_" class="st0" d="M17.9,390.4l5.9-0.3l-5.3,27l9.6-0.5l-0.9,4.5l-15.5,0.8L17.9,390.4z"/>
		<path id="XMLID_914_" class="st0" d="M41.3,389.2l5.9-0.3L41,420.4l-5.9,0.3L41.3,389.2z"/>
		<path id="XMLID_916_" class="st0" d="M64.8,410.2l8.4-22.6l8.1-0.4l-6.2,31.5l-5.5,0.3l4.4-22.6l-8.5,22.8l-5.5,0.3l0-22.1
			l-4.4,22.3l-5.1,0.3l6.2-31.5l8.1-0.4L64.8,410.2z"/>
		<path id="XMLID_918_" class="st0" d="M90.9,386.7l5.9-0.3l-6.2,31.5l-5.9,0.3L90.9,386.7z"/>
		<path id="XMLID_920_" class="st0" d="M104.6,386l18.1-0.9l-0.9,4.5l-6.1,0.3l-5.3,27l-5.9,0.3l5.3-27l-6.1,0.3L104.6,386z"/>
		<path id="XMLID_922_" class="st0" d="M133.8,397.7l8-0.4l-0.9,4.5l-8,0.4l-1.8,9.2l10.1-0.5l-0.9,4.5l-16,0.8l6.2-31.5l16-0.8
			l-0.9,4.5l-10.1,0.5L133.8,397.7z"/>
		<path id="XMLID_924_" class="st0" d="M155.5,383.4l9.3-0.5c5.9-0.3,8.2,2.3,7.2,7.3l-3.1,15.9c-1,5-4.4,7.9-10.3,8.2l-9.3,0.5
			L155.5,383.4z M160.5,387.7l-4.4,22.5l3.3-0.2c1.9-0.1,3.1-1,3.6-3.2l3.2-16.4c0.4-2.3-0.5-3-2.4-2.9L160.5,387.7z"/>
		<path id="XMLID_927_" class="st0" d="M194.4,381.5l18.1-0.9l-0.9,4.5l-6.1,0.3l-5.3,27l-5.9,0.3l5.3-27l-6.1,0.3L194.4,381.5z"/>
		<path id="XMLID_929_" class="st0" d="M220.4,380.2l5.9-0.3l-6.2,31.5l-5.9,0.3L220.4,380.2z"/>
		<path id="XMLID_931_" class="st0" d="M243.9,401.2l8.4-22.6l8.1-0.4l-6.2,31.5l-5.5,0.3l4.4-22.6l-8.5,22.8l-5.5,0.3l0-22.1
			l-4.4,22.3l-5.1,0.3l6.2-31.5l8.1-0.4L243.9,401.2z"/>
		<path id="XMLID_933_" class="st0" d="M273.3,390.7l8-0.4l-0.9,4.5l-8,0.4l-1.8,9.2l10.1-0.5l-0.9,4.5l-16,0.8l6.2-31.5l16-0.8
			l-0.9,4.5l-10.1,0.5L273.3,390.7z"/>
		<path id="XMLID_935_" class="st0" d="M306.6,383.3c1-5,4.7-8.1,10.4-8.4c5.8-0.3,8.3,2.4,7.3,7.5l-3.2,16.4c-1,5-4.7,8.1-10.4,8.4
			c-5.8,0.3-8.3-2.4-7.3-7.5L306.6,383.3z M309.1,399.8c-0.4,2.3,0.6,3,2.4,3c1.9-0.1,3.2-1,3.6-3.3l3.3-17c0.4-2.3-0.6-3-2.4-3
			c-1.9,0.1-3.2,1-3.6,3.3L309.1,399.8z"/>
		<path id="XMLID_938_" class="st0" d="M338.5,382.9l-4.5,22.8l-5.3,0.3l6.2-31.5l7.3-0.4l2.3,18.6l3.7-18.9l5.2-0.3l-6.2,31.5
			l-6,0.3L338.5,382.9z"/>
		<path id="XMLID_940_" class="st0" d="M363,373l5.9-0.3l-5.3,27l9.6-0.5l-0.9,4.5l-15.5,0.8L363,373z"/>
		<path id="XMLID_942_" class="st0" d="M384.4,392.8l-3.3-20.7l6.1-0.3l1.7,14.1l7.3-14.6l5.6-0.3l-11.5,21.4l-2,10.4l-5.9,0.3
			L384.4,392.8z"/>
	</g>
	
		<linearGradient id="XMLID_2_" gradientUnits="userSpaceOnUse" x1="421.2035" y1="278.3806" x2="443.5727" y2="256.6275" gradientTransform="matrix(1 -6.000000e-002 0 1 0 128.1779)">
		<stop  offset="0" style="stop-color:#FFFFFF"/>
		<stop  offset="0.1665" style="stop-color:#FAFAFA"/>
		<stop  offset="0.3725" style="stop-color:#EBEBEB"/>
		<stop  offset="0.5992" style="stop-color:#D1D2D3"/>
		<stop  offset="0.8392" style="stop-color:#AFB0B2"/>
		<stop  offset="1" style="stop-color:#939598"/>
	</linearGradient>
	<polygon id="XMLID_712_" class="st2" points="454.3,380.7 417.4,351.7 417.4,382.5 	"/>
</g>
</svg>
