<?xml version="1.0" encoding="iso-8859-1"?>
<!-- Generator: Adobe Illustrator 19.0.0, SVG Export Plug-In . SVG Version: 6.00 Build 0)  -->
<svg version="1.1" id="Layer_1" xmlns="http://www.w3.org/2000/svg" xmlns:xlink="http://www.w3.org/1999/xlink" x="0px" y="0px"
	 viewBox="0 0 512.001 512.001" style="enable-background:new 0 0 512.001 512.001;" xml:space="preserve">
<polygon style="fill:#C21B23;" points="474.962,117.094 394.906,37.038 235.88,179.284 242.345,269.657 332.717,276.121 "/>
<path style="fill:#EE3840;" d="M491.743,150.658l-130.4-130.401c-4.634-4.634-4.634-12.148,0-16.781
	c4.634-4.634,12.147-4.634,16.781,0l130.401,130.401c4.634,4.634,4.634,12.147,0,16.781
	C503.891,155.292,496.378,155.292,491.743,150.658z"/>
<polygon style="fill:#CCC4C1;" points="188.018,297.133 11.746,473.404 0,512 38.597,500.254 214.867,323.984 "/>
<path style="fill:#EE3840;" d="M332.717,276.121l-96.837-96.837c-59.731-22.719-129.85-10.026-177.966,38.09l236.712,236.713
	C342.743,405.972,355.436,335.851,332.717,276.121z"/>
<g>
</g>
<g>
</g>
<g>
</g>
<g>
</g>
<g>
</g>
<g>
</g>
<g>
</g>
<g>
</g>
<g>
</g>
<g>
</g>
<g>
</g>
<g>
</g>
<g>
</g>
<g>
</g>
<g>
</g>
</svg>
