<?xml version="1.0" encoding="iso-8859-1"?>
<!-- Generator: Adobe Illustrator 19.0.0, SVG Export Plug-In . SVG Version: 6.00 Build 0)  -->
<svg version="1.1" id="Layer_1" xmlns="http://www.w3.org/2000/svg" xmlns:xlink="http://www.w3.org/1999/xlink" x="0px" y="0px"
	 viewBox="0 0 512 512" style="enable-background:new 0 0 512 512;" xml:space="preserve">
<path style="fill:#E6E2E0;" d="M53.859,106.667c0.004,0.028,21.879,177.217,21.879,177.217L362.86,320l33.928-213.333H53.859z"/>
<path style="fill:#ADA7A4;" d="M396.789,118.519V94.815H53.859c-3.397,0-6.63,1.457-8.879,4.002c-2.249,2.545-3.3,5.933-2.882,9.304
	c0.049,0.389,21.877,177.216,21.877,177.216c0.665,5.384,4.901,9.63,10.284,10.306l287.121,36.116l2.958-23.519l-85.623-10.77
	l4.313-43.872l90.21,7.105l1.861-23.63l-89.753-7.068l4.318-43.924l95.375,3.54l0.879-23.687l-93.932-3.487l4.319-43.929H396.789z
	 M160.073,118.519l-0.798,39.002l-87.597-3.252c-2.136-17.297-3.519-28.499-4.414-35.751h92.808V118.519z M74.62,178.099
	l84.169,3.124l-0.793,38.753l-78.975-6.22C77.356,200.262,75.898,188.446,74.62,178.099z M81.986,237.766l75.525,5.948
	l-0.786,38.412l-70.355-8.85C84.792,260.488,83.334,248.681,81.986,237.766z M255.188,294.511l-74.815-9.41l0.808-39.522
	l78.21,6.159L255.188,294.511z M261.711,228.145l-80.044-6.304l0.813-39.738l83.451,3.098L261.711,228.145z M268.256,161.567
	l-85.289-3.166l0.817-39.881h88.704L268.256,161.567z"/>
<path style="fill:#7A7674;" d="M351.474,426.667H90.733c-6.546,0-11.852-5.307-11.852-11.852s5.306-11.852,11.852-11.852h250.504
	l57.769-392.836C399.862,4.311,404.853,0,410.733,0h47.407c6.545,0,11.852,5.307,11.852,11.852s-5.307,11.852-11.852,11.852h-37.171
	L363.2,416.539C362.343,422.356,357.353,426.667,351.474,426.667z"/>
<g>
	<circle style="fill:#181818;" cx="121.552" cy="481.185" r="30.815"/>
	<circle style="fill:#181818;" cx="320.664" cy="481.185" r="30.815"/>
</g>
<g>
</g>
<g>
</g>
<g>
</g>
<g>
</g>
<g>
</g>
<g>
</g>
<g>
</g>
<g>
</g>
<g>
</g>
<g>
</g>
<g>
</g>
<g>
</g>
<g>
</g>
<g>
</g>
<g>
</g>
</svg>
