<?xml version="1.0" encoding="iso-8859-1"?>
<!-- Generator: Adobe Illustrator 19.0.0, SVG Export Plug-In . SVG Version: 6.00 Build 0)  -->
<svg version="1.1" id="Capa_1" xmlns="http://www.w3.org/2000/svg" xmlns:xlink="http://www.w3.org/1999/xlink" x="0px" y="0px"
	 viewBox="0 0 57 57" style="enable-background:new 0 0 57 57;" xml:space="preserve">
<path style="fill:#546A79;" d="M41.962,14.47c0,0-8.74,3.92-18.621,1.347c-6.278-1.635-9.894,5.957-7.607,11.964
	C21.687,43.414,42.384,42.614,53,35.816C53,35.816,37.454,35.636,41.962,14.47z"/>
<path style="fill:#24AE5F;" d="M56,34.164c0,0-3.582,1.792-5.248,2.343c-10.974,5.797-29.396,6.036-35.017-8.726
	c-2.287-6.007,1.329-13.599,7.607-11.964c9.881,2.574,18.621-1.347,18.621-1.347c-0.041,0.193-0.069,0.372-0.107,0.562l0.767-0.428
	c-0.001-0.001-0.005-0.01-0.005-0.01c-0.589-0.761-1.073-1.291-1.398-1.486c0,0-0.594-0.636-1.724-1.545
	c-8.362-6.726-20.123-7.106-29.179-1.348C6.3,12.768,2.516,16.517,1.131,21.907c0,0-4.644,13.933,4.889,24.444
	c0,0,1.762,2.422,13.478,3.456c8.201,0.723,16.457,1.663,24.585,0.357c2.308-0.371,5.792-1.583,7.917-3
	c0.322-0.215,0.634-0.474,0.931-0.762C54.967,44.436,56,41.65,56,38.82V34.164z"/>
<path style="fill:none;stroke:#F0C419;stroke-width:2;stroke-linecap:round;stroke-linejoin:round;stroke-miterlimit:10;" d="
	M56,35.164c-0.125,2.594-5.75,7.188-13,8"/>
<path style="fill:none;stroke:#F0C419;stroke-width:2;stroke-linecap:round;stroke-linejoin:round;stroke-miterlimit:10;" d="
	M56,39.164c-0.125,2.594-5.781,6.5-13,7"/>
<path style="fill:none;stroke:#F0C419;stroke-width:2;stroke-linecap:round;stroke-linejoin:round;stroke-miterlimit:10;" d="
	M4,28.164c0-9.949,8.051-18,18-18"/>
<circle style="fill:none;stroke:#F0C419;stroke-width:2;stroke-linecap:round;stroke-linejoin:round;stroke-miterlimit:10;" cx="10.877" cy="39.672" r="2.422"/>
<g>
</g>
<g>
</g>
<g>
</g>
<g>
</g>
<g>
</g>
<g>
</g>
<g>
</g>
<g>
</g>
<g>
</g>
<g>
</g>
<g>
</g>
<g>
</g>
<g>
</g>
<g>
</g>
<g>
</g>
</svg>
