<?xml version="1.0" encoding="utf-8"?>
<!-- Generator: Adobe Illustrator 19.0.0, SVG Export Plug-In . SVG Version: 6.00 Build 0)  -->
<svg version="1.1" id="Capa_1" xmlns="http://www.w3.org/2000/svg" xmlns:xlink="http://www.w3.org/1999/xlink" x="0px" y="0px"
	 viewBox="-49 141 512 512" style="enable-background:new -49 141 512 512;" xml:space="preserve">
<style type="text/css">
	.st0{opacity:0.45;}
	.st1{opacity:0;fill:#D1D3D4;}
	.st2{opacity:3.225806e-002;fill:#CACCCD;}
	.st3{opacity:6.451613e-002;fill:#C4C5C6;}
	.st4{opacity:9.677419e-002;fill:#BDBFBF;}
	.st5{opacity:0.129;fill:#B6B8B9;}
	.st6{opacity:0.1613;fill:#AFB1B2;}
	.st7{opacity:0.1935;fill:#A9AAAB;}
	.st8{opacity:0.2258;fill:#A2A3A4;}
	.st9{opacity:0.2581;fill:#9B9D9D;}
	.st10{opacity:0.2903;fill:#949696;}
	.st11{opacity:0.3226;fill:#8E8F90;}
	.st12{opacity:0.3548;fill:#878889;}
	.st13{opacity:0.3871;fill:#808182;}
	.st14{opacity:0.4194;fill:#797B7B;}
	.st15{opacity:0.4516;fill:#737474;}
	.st16{opacity:0.4839;fill:#6C6D6D;}
	.st17{opacity:0.5161;fill:#656667;}
	.st18{opacity:0.5484;fill:#5E5F60;}
	.st19{opacity:0.5806;fill:#585859;}
	.st20{opacity:0.6129;fill:#515252;}
	.st21{opacity:0.6452;fill:#4A4B4B;}
	.st22{opacity:0.6774;fill:#434444;}
	.st23{opacity:0.7097;fill:#3D3D3E;}
	.st24{opacity:0.7419;fill:#363637;}
	.st25{opacity:0.7742;fill:#2F3030;}
	.st26{opacity:0.8065;fill:#282929;}
	.st27{opacity:0.8387;fill:#222222;}
	.st28{opacity:0.871;fill:#1B1B1B;}
	.st29{opacity:0.9032;fill:#141415;}
	.st30{opacity:0.9355;fill:#0D0E0E;}
	.st31{opacity:0.9677;fill:#070707;}
	.st32{fill:#FFFFFF;}
	.st33{fill:#46B7E8;}
	.st34{fill:#297D9B;}
	.st35{fill:url(#XMLID_2_);}
</style>
<g class="st0">
	<polygon class="st1" points="244.3,648.9 377.8,579.4 455.4,286.8 286.3,181.2 83.1,223.5 -17.9,604.3 	"/>
	<polygon class="st2" points="243.5,647.9 377,578.4 454.7,285.7 285.5,180.1 82.3,222.4 -18.7,603.2 	"/>
	<polygon class="st3" points="242.7,646.9 376.2,577.4 453.9,284.7 284.7,179.1 81.5,221.4 -19.5,602.2 	"/>
	<polygon class="st4" points="241.9,645.8 375.5,576.3 453.1,283.6 284,178 80.7,220.3 -20.3,601.1 	"/>
	<polygon class="st5" points="241.1,644.8 374.7,575.3 452.3,282.6 283.2,177 80,219.3 -21.1,600.1 	"/>
	<polygon class="st6" points="240.4,643.7 373.9,574.2 451.5,281.6 282.4,175.9 79.2,218.3 -21.8,599.1 	"/>
	<polygon class="st7" points="239.6,642.7 373.1,573.2 450.7,280.5 281.6,174.9 78.4,217.2 -22.6,598 	"/>
	<polygon class="st8" points="238.8,641.6 372.3,572.1 450,279.5 280.8,173.9 77.6,216.2 -23.4,597 	"/>
	<polygon class="st9" points="238,640.6 371.6,571.1 449.2,278.4 280,172.8 76.8,215.1 -24.2,595.9 	"/>
	<polygon class="st10" points="237.2,639.5 370.8,570.1 448.4,277.4 279.3,171.8 76,214.1 -25,594.9 	"/>
	<polygon class="st11" points="236.5,638.5 370,569 447.6,276.3 278.5,170.7 75.3,213 -25.7,593.8 	"/>
	<polygon class="st12" points="235.7,637.5 369.2,568 446.8,275.3 277.7,169.7 74.5,212 -26.5,592.8 	"/>
	<polygon class="st13" points="234.9,636.4 368.4,566.9 446.1,274.2 276.9,168.6 73.7,211 -27.3,591.8 	"/>
	<polygon class="st14" points="234.1,635.4 367.6,565.9 445.3,273.2 276.1,167.6 72.9,209.9 -28.1,590.7 	"/>
	<polygon class="st15" points="233.3,634.3 366.9,564.8 444.5,272.2 275.4,166.5 72.1,208.9 -28.9,589.7 	"/>
	<polygon class="st16" points="232.5,633.3 366.1,563.8 443.7,271.1 274.6,165.5 71.4,207.8 -29.7,588.6 	"/>
	<polygon class="st17" points="231.8,632.2 365.3,562.7 442.9,270.1 273.8,164.5 70.6,206.8 -30.4,587.6 	"/>
	<polygon class="st18" points="231,631.2 364.5,561.7 442.1,269 273,163.4 69.8,205.7 -31.2,586.5 	"/>
	<polygon class="st19" points="230.2,630.2 363.7,560.7 441.4,268 272.2,162.4 69,204.7 -32,585.5 	"/>
	<polygon class="st20" points="229.4,629.1 363,559.6 440.6,266.9 271.4,161.3 68.2,203.6 -32.8,584.4 	"/>
	<polygon class="st21" points="228.6,628.1 362.2,558.6 439.8,265.9 270.7,160.3 67.4,202.6 -33.6,583.4 	"/>
	<polygon class="st22" points="227.9,627 361.4,557.5 439,264.9 269.9,159.2 66.7,201.6 -34.3,582.4 	"/>
	<polygon class="st23" points="227.1,626 360.6,556.5 438.2,263.8 269.1,158.2 65.9,200.5 -35.1,581.3 	"/>
	<polygon class="st24" points="226.3,624.9 359.8,555.4 437.5,262.8 268.3,157.2 65.1,199.5 -35.9,580.3 	"/>
	<polygon class="st25" points="225.5,623.9 359,554.4 436.7,261.7 267.5,156.1 64.3,198.4 -36.7,579.2 	"/>
	<polygon class="st26" points="224.7,622.8 358.3,553.3 435.9,260.7 266.8,155.1 63.5,197.4 -37.5,578.2 	"/>
	<polygon class="st27" points="223.9,621.8 357.5,552.3 435.1,259.6 266,154 62.8,196.3 -38.2,577.1 	"/>
	<polygon class="st28" points="223.2,620.8 356.7,551.3 434.3,258.6 265.2,153 62,195.3 -39,576.1 	"/>
	<polygon class="st29" points="222.4,619.7 355.9,550.2 433.6,257.5 264.4,151.9 61.2,194.2 -39.8,575.1 	"/>
	<polygon class="st30" points="221.6,618.7 355.1,549.2 432.8,256.5 263.6,150.9 60.4,193.2 -40.6,574 	"/>
	<polygon class="st31" points="220.8,617.6 354.4,548.1 432,255.5 262.8,149.8 59.6,192.2 -41.4,573 	"/>
	<polygon points="220,616.6 353.6,547.1 431.2,254.4 262.1,148.8 58.8,191.1 -42.2,571.9 	"/>
</g>
<polygon id="XMLID_776_" class="st32" points="431.2,254.4 262.1,148.8 58.8,191.1 -42.2,571.9 220,616.6 353.6,547.1 "/>
<polygon id="XMLID_775_" class="st33" points="408.4,261.1 257.4,166.8 76.4,204.5 -17.7,559.2 244.5,603.9 329.1,559.8 "/>
<g id="XMLID_531_">
	<path id="XMLID_291_" class="st34" d="M158.2,246.1c-1.3-3.1-6.3-6.7-12.9-7.8c-8.5-1.4-13.3,0.7-14.2,4.3
		c-1.1,4.2,4.8,6.5,11.8,8.4c12.3,3.4,23.3,8,20.2,19.6c-2.9,10.8-16,13.4-29.5,11.1c-12.3-2.1-21-6.8-23.2-16.4l10.5-2.3
		c1.3,5.8,7.6,9.3,15,10.6c7.2,1.2,14.4,0.4,15.8-4.9c1.2-4.6-4.2-7.4-12.1-9.5c-12-3.3-22.7-7.8-19.8-18.7c2.6-10,16-12,27.1-10.1
		c9.4,1.6,18.6,5.4,21.2,13.7L158.2,246.1z"/>
	<path id="XMLID_293_" class="st34" d="M213.5,284.4L182,279l-7.6,8.2l-12.3-2.1l39.9-43.8l12.4,2.1l14.3,53l-12.4-2.1L213.5,284.4z
		 M205.5,252.6l-16.7,18.7l22.4,3.8L205.5,252.6z"/>
	<path id="XMLID_302_" class="st34" d="M258.9,251.1l-10.6,40l31.1,5.3l-2.2,8.4l-42.5-7.2l12.8-48.4L258.9,251.1z"/>
	<path id="XMLID_524_" class="st34" d="M330.2,313.8l-45.2-7.7c4.3-16.1,8.6-32.3,12.8-48.4l45.2,7.7l-2.3,8.9l-33.9-5.8l-3,11.1
		l32.7,5.6l-2.3,8.5l-32.7-5.6l-2.9,10.9l33.9,5.8L330.2,313.8z"/>
</g>
<g id="XMLID_290_">
	<path id="XMLID_526_" class="st34" d="M150.6,299.9l-6.4,24.3c-3.3,12.5-14.6,17.3-27.9,15.1c-12.7-2.2-21.9-10.2-18.5-23l6.4-24.3
		l9.9,1.7l-6.4,24.3c-2,7.6,2.3,12.6,10.6,14s14.1-2.2,16-9.5l6.4-24.3L150.6,299.9z"/>
	<path id="XMLID_528_" class="st34" d="M177.4,335.7l-15-2.5l-3.3,12.5l-10-1.7l11.2-42.4c8.3,1.4,16.6,2.8,25,4.2
		C211.2,310.1,203.3,340.1,177.4,335.7z M164.4,325.8l15,2.5c12.8,2.2,16.7-12.9,4-15l-15-2.5L164.4,325.8z"/>
	<path id="XMLID_748_" class="st34" d="M238.5,322.4l-16.8-2.9l1.9-7.3c15.3,2.6,28.2,4.8,43.5,7.4l-1.9,7.3l-16.8-2.9l-9.3,35.1
		l-10-1.7L238.5,322.4z"/>
	<path id="XMLID_750_" class="st34" d="M319.6,351c-3.1,10.9-14.4,20.5-33,17.3c-18.6-3.2-24.4-15.4-21.4-26.5
		c3-11.1,14.9-20.8,33.1-17.7C316.6,327.2,322.7,340,319.6,351z M275,343.6c-1.6,7,1.1,15.3,13.6,17.4c12.5,2.1,19.2-4.6,21.2-11.5
		c2-7.1-0.8-16-13.3-18.1C284,329.2,276.7,336.4,275,343.6z"/>
</g>
<linearGradient id="XMLID_2_" gradientUnits="userSpaceOnUse" x1="433.3228" y1="1145.3" x2="350.6886" y2="1075.9618" gradientTransform="matrix(0.9781 0.2079 -0.2079 0.9781 123.6684 -599.563)">
	<stop  offset="0" style="stop-color:#939598"/>
	<stop  offset="0.1608" style="stop-color:#AFB0B2"/>
	<stop  offset="0.4008" style="stop-color:#D1D2D3"/>
	<stop  offset="0.6275" style="stop-color:#EBEBEB"/>
	<stop  offset="0.8335" style="stop-color:#FAFAFA"/>
	<stop  offset="1" style="stop-color:#FFFFFF"/>
</linearGradient>
<polygon id="XMLID_815_" class="st35" points="220,616.6 243.4,528.3 353.6,547.1 "/>
</svg>
