<?xml version="1.0" encoding="iso-8859-1"?>
<!-- Generator: Adobe Illustrator 19.0.0, SVG Export Plug-In . SVG Version: 6.00 Build 0)  -->
<svg version="1.1" id="Capa_1" xmlns="http://www.w3.org/2000/svg" xmlns:xlink="http://www.w3.org/1999/xlink" x="0px" y="0px"
	 viewBox="0 0 512 512" style="enable-background:new 0 0 512 512;" xml:space="preserve">
<path style="fill:#F7EAB7;" d="M220.73,0.021h-8.563c-9.461,0-17.129,7.669-17.129,17.13c0,6.887,0,467.334,0,474.151h42.822
	c0-20.06,0-451.952,0-474.151C237.861,7.69,230.191,0.021,220.73,0.021z"/>
<path style="fill:#E8CDA0;" d="M216.45,17.151c0-7.187,4.43-13.331,10.705-15.873c-3.811-1.543-5.786-1.257-14.987-1.257
	c-9.461,0-17.129,7.669-17.129,17.13v13.245c0,3.285,0,457.032,0,460.906h21.411C216.45,484.485,216.45,24.038,216.45,17.151z"/>
<path style="fill:#F75D59;" d="M388.456,46.651H61.569c-9.458,0-17.13,7.669-17.13,17.13V188.29c0,9.46,7.671,17.129,17.13,17.129
	h326.887l6.235-5.982V52.633L388.456,46.651z"/>
<path style="fill:#EA473B;" d="M64.795,188.29V63.781c0-9.46,7.671-17.13,17.13-17.13H61.569c-9.458,0-17.13,7.669-17.13,17.13
	V188.29c0,9.46,7.671,17.129,17.13,17.129h20.356C72.467,205.419,64.795,197.751,64.795,188.29z"/>
<path style="fill:#E8CDA0;" d="M283.895,494.87c0,9.461-7.669,17.13-17.129,17.13H166.132c-9.461,0-17.13-7.669-17.13-17.13v-7.137
	c0-9.459,7.669-17.129,17.13-17.129h100.634c9.46,0,17.129,7.67,17.129,17.129V494.87z"/>
<path style="fill:#D1B080;" d="M266.766,491.302H166.132c-7.051,0-13.102-4.262-15.73-10.349c-0.898,2.08-1.4,4.37-1.4,6.78v7.137
	c0,9.461,7.669,17.13,17.13,17.13h100.634c9.46,0,17.129-7.669,17.129-17.13c0-7.467,0.318-9.936-1.4-13.917
	C279.867,487.04,273.816,491.302,266.766,491.302z"/>
<g>
	<path style="fill:#F5F5F5;" d="M99.53,170.956c-3.405,0-6.692-1.644-6.692-4.814V89.826c0-6.321,15.264-6.286,15.264,0v67.746
		h28.647c3.052,0,4.58,3.287,4.58,6.692c0,3.287-1.527,6.692-4.58,6.692H99.53z"/>
	<path style="fill:#F5F5F5;" d="M147.32,144.774v-32.757c0-19.608,11.975-26.887,27.473-26.887s27.591,7.279,27.591,26.887v32.757
		c0,19.608-12.093,26.887-27.591,26.887S147.32,164.381,147.32,144.774z M187.121,112.016c0-9.275-4.696-13.502-12.328-13.502
		c-7.749,0-12.21,4.227-12.21,13.502v32.757c0,9.276,4.462,13.502,12.21,13.502c7.632,0,12.328-4.227,12.328-13.502V112.016z"/>
	<path style="fill:#F5F5F5;" d="M209.432,91.47c0-5.703,13.239-9.191,14.794-3.287l17.963,63.636l17.847-63.636
		c0.588-2.231,2.584-3.053,5.166-3.053c4.11,0,9.628,2.7,9.628,6.34c0,0.632-22.593,74.421-22.777,75.025
		c-2.042,6.802-17.38,7.038-19.726,0C232.141,165.89,209.432,92.103,209.432,91.47z"/>
	<path style="fill:#F5F5F5;" d="M298.198,121.996h17.845c3.053,0,4.814,2.935,4.814,6.105c0,2.7-1.526,5.87-4.814,5.87h-17.845v23.6
		h33.227c6.328,0,6.507,13.385,0,13.385h-41.799c-3.405,0-6.692-1.644-6.692-4.814V89.944c0-3.17,3.288-4.814,6.692-4.814h41.799
		c3.287,0,4.813,3.405,4.813,6.575c0,3.639-1.761,6.81-4.813,6.81h-33.227V121.996z"/>
</g>
<path style="fill:#EA473B;" d="M465.069,120.15l-76.613-73.499v158.768l75.606-72.533
	C469.618,127.555,467.458,122.503,465.069,120.15z"/>
<g>
</g>
<g>
</g>
<g>
</g>
<g>
</g>
<g>
</g>
<g>
</g>
<g>
</g>
<g>
</g>
<g>
</g>
<g>
</g>
<g>
</g>
<g>
</g>
<g>
</g>
<g>
</g>
<g>
</g>
</svg>
