<?xml version="1.0" encoding="utf-8"?>
<!-- Generator: Adobe Illustrator 19.0.0, SVG Export Plug-In . SVG Version: 6.00 Build 0)  -->
<svg version="1.1" id="Capa_1" xmlns="http://www.w3.org/2000/svg" xmlns:xlink="http://www.w3.org/1999/xlink" x="0px" y="0px"
	 viewBox="-49 369 512 118" style="enable-background:new -49 369 512 118;" xml:space="preserve">
<style type="text/css">
	.st0{fill:url(#SVGID_1_);}
	.st1{fill:url(#SVGID_2_);}
	.st2{opacity:0.2;}
	.st3{filter:url(#Adobe_OpacityMaskFilter);}
	.st4{filter:url(#Adobe_OpacityMaskFilter_1_);}
	.st5{mask:url(#SVGID_3_);fill:url(#SVGID_4_);}
	.st6{fill:url(#SVGID_5_);}
	.st7{filter:url(#Adobe_OpacityMaskFilter_2_);}
	.st8{filter:url(#Adobe_OpacityMaskFilter_3_);}
	.st9{mask:url(#SVGID_6_);fill:url(#SVGID_7_);}
	.st10{fill:url(#SVGID_8_);}
	.st11{fill:url(#SVGID_9_);}
</style>
<g>
	
		<linearGradient id="SVGID_1_" gradientUnits="userSpaceOnUse" x1="-3.179" y1="375.011" x2="67.763" y2="375.011" gradientTransform="matrix(-1 0 0 -1 20.4043 804.6621)">
		<stop  offset="0" style="stop-color:#830007"/>
		<stop  offset="0.1775" style="stop-color:#A20009"/>
		<stop  offset="0.3659" style="stop-color:#BC000A"/>
		<stop  offset="0.5616" style="stop-color:#CE000B"/>
		<stop  offset="0.7675" style="stop-color:#D8000C"/>
		<stop  offset="1" style="stop-color:#DC000C"/>
	</linearGradient>
	<path class="st0" d="M-42.5,469.2c23.7,4.7,47.3-4.7,70.9,0c0-26.4,0-52.7,0-79.1c-23.6-4.7-47.3,4.7-70.9,0
		c4.2,14,8.5,27.6,12.7,40.9C-34,444.1-38.3,456.9-42.5,469.2z"/>
	<linearGradient id="SVGID_2_" gradientUnits="userSpaceOnUse" x1="390.015" y1="427.4131" x2="460.9504" y2="427.4131">
		<stop  offset="0" style="stop-color:#830007"/>
		<stop  offset="0.1775" style="stop-color:#A20009"/>
		<stop  offset="0.3659" style="stop-color:#BC000A"/>
		<stop  offset="0.5616" style="stop-color:#CE000B"/>
		<stop  offset="0.7675" style="stop-color:#D8000C"/>
		<stop  offset="1" style="stop-color:#DC000C"/>
	</linearGradient>
	<path class="st1" d="M461,387.9c-23.6-4.7-47.3,4.7-70.9,0c0,26.4,0,52.7,0,79.1c23.6,4.7,47.3-4.7,70.9,0
		c-4.2-14-8.5-27.6-12.7-40.9C452.5,413,456.7,400.2,461,387.9z"/>
	<g class="st2">
		<defs>
			<filter id="Adobe_OpacityMaskFilter" filterUnits="userSpaceOnUse" x="-42.5" y="390.1" width="70.9" height="80.5">
				<feFlood  style="flood-color:white;flood-opacity:1" result="back"/>
				<feBlend  in="SourceGraphic" in2="back" mode="normal"/>
			</filter>
		</defs>
		<mask maskUnits="userSpaceOnUse" x="-42.5" y="390.1" width="70.9" height="80.5" id="SVGID_3_">
			<g class="st3">
				<defs>
					<filter id="Adobe_OpacityMaskFilter_1_" filterUnits="userSpaceOnUse" x="-42.5" y="390.1" width="70.9" height="80.5">
						<feFlood  style="flood-color:white;flood-opacity:1" result="back"/>
						<feBlend  in="SourceGraphic" in2="back" mode="normal"/>
					</filter>
				</defs>
				<mask maskUnits="userSpaceOnUse" x="-42.5" y="390.1" width="70.9" height="80.5" id="SVGID_3_">
					<g class="st4">
					</g>
				</mask>
				<linearGradient id="SVGID_4_" gradientUnits="userSpaceOnUse" x1="-42.4914" y1="430.3358" x2="28.4505" y2="430.3358">
					<stop  offset="1.084370e-002" style="stop-color:#000000"/>
					<stop  offset="5.102414e-002" style="stop-color:#4D4D4D"/>
					<stop  offset="0.1034" style="stop-color:#ACACAC"/>
					<stop  offset="0.1402" style="stop-color:#E8E8E8"/>
					<stop  offset="0.1576" style="stop-color:#FFFFFF"/>
					<stop  offset="0.8315" style="stop-color:#FFFFFF"/>
					<stop  offset="1" style="stop-color:#000000"/>
				</linearGradient>
				<path class="st5" d="M-40.4,467c4.2-12.3,8.5-25.1,12.7-38.2c-3.9-12.4-7.9-25.1-11.8-38.2c-1-0.2-2-0.3-2.9-0.5
					c4.2,14,8.5,27.6,12.7,40.9c-4.2,13.1-8.5,25.9-12.7,38.2c23.7,4.7,47.3-4.7,70.9,0c0-0.9,0-1.7,0-2.6
					C5.5,462.8-17.4,471.6-40.4,467z"/>
			</g>
		</mask>
		<linearGradient id="SVGID_5_" gradientUnits="userSpaceOnUse" x1="-42.4914" y1="430.3358" x2="28.4505" y2="430.3358">
			<stop  offset="1.084370e-002" style="stop-color:#231F20"/>
			<stop  offset="0.1576" style="stop-color:#231F20"/>
			<stop  offset="0.8315" style="stop-color:#231F20"/>
			<stop  offset="1" style="stop-color:#231F20"/>
		</linearGradient>
		<path class="st6" d="M-40.4,467c4.2-12.3,8.5-25.1,12.7-38.2c-3.9-12.4-7.9-25.1-11.8-38.2c-1-0.2-2-0.3-2.9-0.5
			c4.2,14,8.5,27.6,12.7,40.9c-4.2,13.1-8.5,25.9-12.7,38.2c23.7,4.7,47.3-4.7,70.9,0c0-0.9,0-1.7,0-2.6
			C5.5,462.8-17.4,471.6-40.4,467z"/>
		<defs>
			<filter id="Adobe_OpacityMaskFilter_2_" filterUnits="userSpaceOnUse" x="390" y="387.9" width="70.9" height="80.5">
				<feFlood  style="flood-color:white;flood-opacity:1" result="back"/>
				<feBlend  in="SourceGraphic" in2="back" mode="normal"/>
			</filter>
		</defs>
		<mask maskUnits="userSpaceOnUse" x="390" y="387.9" width="70.9" height="80.5" id="SVGID_6_">
			<g class="st7">
				<defs>
					<filter id="Adobe_OpacityMaskFilter_3_" filterUnits="userSpaceOnUse" x="390" y="387.9" width="70.9" height="80.5">
						<feFlood  style="flood-color:white;flood-opacity:1" result="back"/>
						<feBlend  in="SourceGraphic" in2="back" mode="normal"/>
					</filter>
				</defs>
				<mask maskUnits="userSpaceOnUse" x="390" y="387.9" width="70.9" height="80.5" id="SVGID_6_">
					<g class="st8">
					</g>
				</mask>
				<linearGradient id="SVGID_7_" gradientUnits="userSpaceOnUse" x1="390.015" y1="428.0978" x2="460.9504" y2="428.0978">
					<stop  offset="1.084370e-002" style="stop-color:#000000"/>
					<stop  offset="5.102414e-002" style="stop-color:#4D4D4D"/>
					<stop  offset="0.1034" style="stop-color:#ACACAC"/>
					<stop  offset="0.1402" style="stop-color:#E8E8E8"/>
					<stop  offset="0.1576" style="stop-color:#FFFFFF"/>
					<stop  offset="0.8315" style="stop-color:#FFFFFF"/>
					<stop  offset="1" style="stop-color:#000000"/>
				</linearGradient>
				<path class="st9" d="M392.1,464.7c0-25.5,0-51,0-76.5c-0.7-0.1-1.4-0.2-2.1-0.3c0,26.4,0,52.7,0,79.1c23.6,4.7,47.3-4.7,70.9,0
					c-0.3-0.9-0.5-1.8-0.8-2.7C437.5,460.8,414.8,469.3,392.1,464.7z"/>
			</g>
		</mask>
		<linearGradient id="SVGID_8_" gradientUnits="userSpaceOnUse" x1="390.015" y1="428.0978" x2="460.9504" y2="428.0978">
			<stop  offset="1.084370e-002" style="stop-color:#231F20"/>
			<stop  offset="0.1576" style="stop-color:#231F20"/>
			<stop  offset="0.8315" style="stop-color:#231F20"/>
			<stop  offset="1" style="stop-color:#231F20"/>
		</linearGradient>
		<path class="st10" d="M392.1,464.7c0-25.5,0-51,0-76.5c-0.7-0.1-1.4-0.2-2.1-0.3c0,26.4,0,52.7,0,79.1c23.6,4.7,47.3-4.7,70.9,0
			c-0.3-0.9-0.5-1.8-0.8-2.7C437.5,460.8,414.8,469.3,392.1,464.7z"/>
	</g>
	<linearGradient id="SVGID_9_" gradientUnits="userSpaceOnUse" x1="19.5561" y1="427.4113" x2="397.6204" y2="427.4113">
		<stop  offset="0" style="stop-color:#830007"/>
		<stop  offset="3.488934e-002" style="stop-color:#970008"/>
		<stop  offset="8.948301e-002" style="stop-color:#B0000A"/>
		<stop  offset="0.1506" style="stop-color:#C4000B"/>
		<stop  offset="0.221" style="stop-color:#D2000B"/>
		<stop  offset="0.3088" style="stop-color:#DA000C"/>
		<stop  offset="0.4683" style="stop-color:#DC000C"/>
		<stop  offset="0.7131" style="stop-color:#DA000C"/>
		<stop  offset="0.8013" style="stop-color:#D3000C"/>
		<stop  offset="0.8641" style="stop-color:#C8000B"/>
		<stop  offset="0.9149" style="stop-color:#B7000A"/>
		<stop  offset="0.9579" style="stop-color:#A10009"/>
		<stop  offset="0.9959" style="stop-color:#860007"/>
		<stop  offset="1" style="stop-color:#830007"/>
	</linearGradient>
	<path class="st11" d="M397.6,475.5c-126-11.5-252,11.5-378.1,0c0-32,0-64.1,0-96.1c126,11.5,252-11.5,378.1,0
		C397.6,411.4,397.6,443.4,397.6,475.5z"/>
</g>
</svg>
