<?xml version="1.0" encoding="utf-8"?>
<!-- Generator: Adobe Illustrator 19.0.0, SVG Export Plug-In . SVG Version: 6.00 Build 0)  -->
<svg version="1.1" id="Capa_1" xmlns="http://www.w3.org/2000/svg" xmlns:xlink="http://www.w3.org/1999/xlink" x="0px" y="0px"
	 viewBox="-49 141 512 512" style="enable-background:new -49 141 512 512;" xml:space="preserve">
<style type="text/css">
	.st0{fill:none;stroke:#FFFFFF;stroke-width:0.9388;stroke-miterlimit:10;}
	.st1{fill:#FFFFFF;}
	.st2{fill:url(#SVGID_1_);}
	.st3{fill:url(#SVGID_2_);}
	.st4{fill:url(#SVGID_3_);}
</style>
<g>
	<polyline class="st0" points="-22.1,334.2 377.5,335.7 357.3,384.4 377.5,425.4 -22.1,423.9 	"/>
	<g>
		<path class="st1" d="M133.3,381.7c0,17.6-2.3,22.6-14.5,22.6h-11.3v-43.7h11.3c12.1,0,14.5,5,14.5,22.6V381.7z M123.8,383.2
			c0-14.2-1-14.7-6.8-14.7v27.9c5.8,0,6.8-0.5,6.8-14.7V383.2z"/>
		<path class="st1" d="M147.6,360.6v43.7h-9.5v-43.7H147.6z"/>
		<path class="st1" d="M163.1,372.7c0,7.7,13.6,7.2,13.6,19.9c0,7.3-1.1,12.4-12.1,12.4c-10.3,0-12.2-6.7-12.2-15.7h10.4
			c0,3.9,0,7.2,1.9,7.2c1.4,0,1.7-1.5,1.7-4c0-8.1-13.4-7-13.4-20.1c0-9,2.5-12.5,12.2-12.5c8.7,0,11.9,6.2,11.9,15.2h-10.4
			c0-5.3-0.2-6.7-1.7-6.7C163.6,368.4,163.1,369.2,163.1,372.7z"/>
		<path class="st1" d="M198.9,389.9h10.4c0,9-3.8,15.2-13.1,15.2c-12.6,0-14.4-5.4-14.4-22.5c0-16.5,2-22.6,14.4-22.6
			c9.3,0,13.1,6.2,13.1,15.2h-10.4c0-3.9-0.5-6.7-3.2-6.7c-3,0-3.5,2.3-3.5,14.1c0,12.1,0.4,14,3.4,14
			C198.3,396.6,198.9,393.9,198.9,389.9z"/>
		<path class="st1" d="M241.7,382.5c0,16.5-1,22.5-13.8,22.5c-12.8,0-13.8-6.1-13.8-22.5c0-15.9,1-22.6,13.8-22.6
			C240.7,359.9,241.7,366.6,241.7,382.5z M224.5,382.5c0,12.1,0.4,14,3.3,14c3,0,3.4-1.9,3.4-14c0-11.9-0.4-14.1-3.4-14.1
			C224.9,368.4,224.5,370.7,224.5,382.5z"/>
		<path class="st1" d="M264.4,384.9v-24.3h9.7v24.3c0,17.1-2.7,20.1-13.8,20.1c-11,0-13.8-3.1-13.8-20.1v-24.3h9.7v24.3
			c0,9.7,0.5,12.1,4.1,12.1C263.8,397,264.4,394.6,264.4,384.9z"/>
		<path class="st1" d="M307.6,360.6v43.7h-9.5l-9.8-21.6v21.6h-9.5v-43.7h9.4l9.8,22.8v-22.8H307.6z"/>
		<path class="st1" d="M330.5,404.3H321v-35.2h-8.5v-8.5H339v8.5h-8.5V404.3z"/>
		<g>
			<path class="st1" d="M11.9,390.2v22.6H7v-8.9H3.7v8.9h-4.9v-22.6h4.9v9.3H7v-9.3H11.9z"/>
			<path class="st1" d="M23.6,402.7v-12.6h5v12.6c0,8.8-1.4,10.4-7.1,10.4c-5.7,0-7.1-1.6-7.1-10.4v-12.6h5v12.6
				c0,5,0.3,6.3,2.1,6.3C23.4,409,23.6,407.7,23.6,402.7z"/>
			<path class="st1" d="M43.7,412.8l-0.4-1.5c-1.1,1.2-2.7,1.9-4.8,1.9c-6.5,0-7.4-2.8-7.4-11.6c0-8.5,1.1-11.7,7.4-11.7
				c4.8,0,6.8,3.2,6.8,7.8h-5.4c0-2-0.3-3.4-1.6-3.4c-1.5,0-1.8,1.2-1.8,7.3c0,6.3,0.2,7.2,1.8,7.2c1.3,0,1.7-1.2,1.7-3.2v-1h-1.8
				v-4.1h7.1v12.3H43.7z"/>
			<path class="st1" d="M52.7,399h3.8v4.4h-3.8v4.9h5.3v4.4H47.8v-22.6h10.3v4.4h-5.3V399z"/>
			<path class="st1" d="M61.3,405.3l-0.6-15.1h5.5l-0.6,15.1H61.3z M66,412.8h-5.2v-5.3H66V412.8z"/>
			<g>
				<path class="st1" d="M17.9,365.1c0,3.8,7.1,2.1,7.1,8.9c0,2.7-1.1,4.7-4.3,5.3v2h-3.9v-2c-3.2-0.6-4-3.1-4-6.6h4.6
					c0,1.7,0.1,3,1.1,3c1.1,0,1.2-0.7,1.2-1.8c0-4-6.7-2.5-6.7-9c0-3.2,0.9-5,3.7-5.6v-2.1h3.9v2c3,0.6,4,3.1,4,6.6h-4.6
					c0-2.1,0-3-1-3C18,363,17.9,363.4,17.9,365.1z"/>
				<path class="st1" d="M32.2,365.1c0,3.8,7.1,2.1,7.1,8.9c0,2.7-1.1,4.7-4.3,5.3v2h-3.9v-2c-3.2-0.6-4-3.1-4-6.6h4.6
					c0,1.7,0.1,3,1.1,3c1.1,0,1.2-0.7,1.2-1.8c0-4-6.7-2.5-6.7-9c0-3.2,0.9-5,3.7-5.6v-2.1H35v2c3,0.6,4,3.1,4,6.6h-4.6
					c0-2.1,0-3-1-3C32.3,363,32.2,363.4,32.2,365.1z"/>
				<path class="st1" d="M46.5,365.1c0,3.8,7.1,2.1,7.1,8.9c0,2.7-1.1,4.7-4.3,5.3v2h-3.9v-2c-3.2-0.6-4-3.1-4-6.6h4.6
					c0,1.7,0.1,3,1.1,3c1.1,0,1.2-0.7,1.2-1.8c0-4-6.7-2.5-6.7-9c0-3.2,0.9-5,3.7-5.6v-2.1h3.9v2c3,0.6,4,3.1,4,6.6h-4.6
					c0-2.1,0-3-1-3C46.6,363,46.5,363.4,46.5,365.1z"/>
			</g>
		</g>
	</g>
	<linearGradient id="SVGID_1_" gradientUnits="userSpaceOnUse" x1="-37.0344" y1="378.4512" x2="456.8551" y2="378.4512">
		<stop  offset="0" style="stop-color:#830007"/>
		<stop  offset="0.1775" style="stop-color:#A20009"/>
		<stop  offset="0.3659" style="stop-color:#BC000A"/>
		<stop  offset="0.5616" style="stop-color:#CE000B"/>
		<stop  offset="0.7675" style="stop-color:#D8000C"/>
		<stop  offset="1" style="stop-color:#DC000C"/>
	</linearGradient>
	<polygon class="st2" points="456.9,320.6 -37,320.6 -37,436.3 454.5,436.3 433.4,378.4 	"/>
	<linearGradient id="SVGID_2_" gradientUnits="userSpaceOnUse" x1="-22.1072" y1="394.4043" x2="87.0704" y2="394.4043">
		<stop  offset="0" style="stop-color:#830007"/>
		<stop  offset="0.1775" style="stop-color:#A20009"/>
		<stop  offset="0.3659" style="stop-color:#BC000A"/>
		<stop  offset="0.5616" style="stop-color:#CE000B"/>
		<stop  offset="0.7675" style="stop-color:#D8000C"/>
		<stop  offset="1" style="stop-color:#DC000C"/>
	</linearGradient>
	<polygon class="st3" points="87.1,478.1 32.5,445.3 -22.1,478.1 -22.1,310.8 87.1,310.8 	"/>
	<linearGradient id="SVGID_3_" gradientUnits="userSpaceOnUse" x1="-37.0344" y1="378.4512" x2="42.1442" y2="378.4512">
		<stop  offset="0" style="stop-color:#830007"/>
		<stop  offset="0.1775" style="stop-color:#A20009"/>
		<stop  offset="0.3659" style="stop-color:#BC000A"/>
		<stop  offset="0.5616" style="stop-color:#CE000B"/>
		<stop  offset="0.7675" style="stop-color:#D8000C"/>
		<stop  offset="1" style="stop-color:#DC000C"/>
	</linearGradient>
	<rect x="-37" y="320.6" class="st4" width="23" height="115.6"/>
</g>
</svg>
