<?xml version="1.0" encoding="iso-8859-1"?>
<!-- Generator: Adobe Illustrator 19.0.0, SVG Export Plug-In . SVG Version: 6.00 Build 0)  -->
<svg version="1.1" id="Capa_1" xmlns="http://www.w3.org/2000/svg" xmlns:xlink="http://www.w3.org/1999/xlink" x="0px" y="0px"
	 viewBox="0 0 59 59" style="enable-background:new 0 0 59 59;" xml:space="preserve">
<path style="fill:none;stroke:#BDC3C7;stroke-width:2;stroke-miterlimit:10;" d="M29.5,1c-5.523,0-10,3.134-10,7
	c0,3.134,2.943,5.786,7,6.679V11h6v3.679c4.057-0.892,7-3.544,7-6.679C39.5,4.134,35.023,1,29.5,1z"/>
<path style="fill:#38454F;" d="M33.5,11h-8c-1.1,0-2-0.9-2-2v0c0-1.1,0.9-2,2-2h8c1.1,0,2,0.9,2,2v0C35.5,10.1,34.6,11,33.5,11z"/>
<rect x="26.5" y="11" style="fill:#D1D4D1;" width="6" height="7.741"/>
<path style="fill:#ECF0F1;" d="M29.5,59c-11.579,0-21-9.421-21-21s9.421-21,21-21s21,9.421,21,21S41.079,59,29.5,59z"/>
<circle style="fill:#FFFFFF;" cx="29.5" cy="38" r="16"/>
<g>
	<path style="fill:#546A79;" d="M31.687,35.453C31.184,35.173,30.615,35,30,35c-1.93,0-3.5,1.57-3.5,3.5S28.07,42,30,42
		s3.5-1.57,3.5-3.5c0-0.615-0.173-1.184-0.453-1.687c0.053-0.036,0.113-0.059,0.16-0.106l6.5-6.5c0.391-0.391,0.391-1.023,0-1.414
		s-1.023-0.391-1.414,0l-6.5,6.5C31.746,35.34,31.723,35.399,31.687,35.453z M30,40c-0.827,0-1.5-0.673-1.5-1.5S29.173,37,30,37
		s1.5,0.673,1.5,1.5S30.827,40,30,40z"/>
	<path style="fill:#D1D4D1;" d="M41.548,49.979C44.606,46.904,46.5,42.67,46.5,38c0-9.374-7.626-17-17-17
		c-4.67,0-8.904,1.894-11.979,4.952c-0.013,0.011-0.029,0.015-0.041,0.027s-0.016,0.028-0.027,0.041
		C14.394,29.096,12.5,33.33,12.5,38s1.894,8.904,4.952,11.979c0.011,0.013,0.015,0.029,0.027,0.041s0.028,0.016,0.041,0.027
		C20.596,53.106,24.83,55,29.5,55s8.904-1.894,11.979-4.952c0.013-0.011,0.029-0.015,0.041-0.027S41.536,49.992,41.548,49.979z
		 M44.449,37H41.5c-0.553,0-1,0.447-1,1s0.447,1,1,1h2.949c-0.225,3.383-1.569,6.457-3.674,8.861l-2.083-2.083
		c-0.391-0.391-1.023-0.391-1.414,0s-0.391,1.023,0,1.414l2.083,2.083c-2.404,2.105-5.478,3.449-8.861,3.674V50c0-0.553-0.447-1-1-1
		s-1,0.447-1,1v2.949c-3.383-0.225-6.457-1.569-8.861-3.674l2.083-2.083c0.391-0.391,0.391-1.023,0-1.414s-1.023-0.391-1.414,0
		l-2.083,2.083c-2.105-2.404-3.449-5.478-3.674-8.861H17.5c0.553,0,1-0.447,1-1s-0.447-1-1-1h-2.949
		c0.225-3.383,1.569-6.457,3.674-8.861l2.083,2.083c0.195,0.195,0.451,0.293,0.707,0.293s0.512-0.098,0.707-0.293
		c0.391-0.391,0.391-1.023,0-1.414l-2.083-2.083c2.404-2.105,5.478-3.449,8.861-3.674V26c0,0.553,0.447,1,1,1s1-0.447,1-1v-2.949
		C37.973,23.547,43.953,29.527,44.449,37z"/>
</g>
<path style="fill:#38454F;" d="M45.993,25.043l1.811-1.811c0.976-0.976,0.976-2.559,0-3.536c-0.976-0.976-2.559-0.976-3.535,0
	l-1.811,1.811C43.772,22.542,44.958,23.728,45.993,25.043z"/>
<path style="fill:#38454F;" d="M12.595,25.594c0.993-1.349,2.13-2.584,3.41-3.661l-2.237-2.237c-0.976-0.976-2.559-0.976-3.536,0v0
	c-0.976,0.976-0.976,2.559,0,3.535L12.595,25.594z"/>
<g>
</g>
<g>
</g>
<g>
</g>
<g>
</g>
<g>
</g>
<g>
</g>
<g>
</g>
<g>
</g>
<g>
</g>
<g>
</g>
<g>
</g>
<g>
</g>
<g>
</g>
<g>
</g>
<g>
</g>
</svg>
