<?xml version="1.0" encoding="utf-8"?>
<!-- Generator: Adobe Illustrator 19.0.0, SVG Export Plug-In . SVG Version: 6.00 Build 0)  -->
<svg version="1.1" id="Capa_1" xmlns="http://www.w3.org/2000/svg" xmlns:xlink="http://www.w3.org/1999/xlink" x="0px" y="0px"
	 viewBox="-49 141 512 512" style="enable-background:new -49 141 512 512;" xml:space="preserve">
<style type="text/css">
	.st0{fill:#FFFFFF;}
	.st1{fill:#F9A500;}
	.st2{fill:#C6820A;}
	.st3{fill:url(#SVGID_1_);}
</style>
<g>
	<path class="st0" d="M422.7,329l-47.2,264.2c-2.6,14.5-18,24.4-34.3,22.1l-320.5-45c-16.3-2.3-27.5-16-25-30.5l59.5-333.4
		c2.6-14.5,18-24.4,34.3-22.1l201.9,28.4l-41.1-36.4L94.9,154.3c-35-4.9-67.8,16.3-73.4,47.3L-38,535.1c-5.5,31,18.3,60.2,53.3,65.1
		l320.5,45c35,4.9,67.8-16.3,73.4-47.3l43.3-242.5L422.7,329z"/>
	<path class="st1" d="M89.6,184.2c-16.3-2.3-31.8,7.6-34.3,22.1L-4.3,539.8c-2.6,14.5,8.6,28.2,25,30.5l320.5,45
		c16.3,2.3,31.8-7.6,34.3-22.1L422.7,329L291.5,212.6L89.6,184.2z"/>
	<g>
		<path class="st2" d="M102.8,262c18.5,2.6,26.2,13.7,23.1,30.9l-0.6,3.4l-17.9-2.5l0.8-4.4c1.4-7.7-1.6-11.1-7.6-11.9
			c-6-0.8-10,1.6-11.4,9.2c-3.9,22.1,32.4,31.4,27,62c-3.1,17.2-14.5,25.6-33.1,23c-18.6-2.6-26.6-13.8-23.5-30.9l1.2-6.6l17.9,2.5
			l-1.4,7.7c-1.4,7.7,1.9,10.9,8,11.8c6,0.8,10.3-1.4,11.7-9c3.9-22-32.4-31.4-27-62C73.1,267.9,84.3,259.4,102.8,262z"/>
		<path class="st2" d="M159.7,271.2l-14.8,82.7c-1.4,7.7,1.9,10.9,8,11.8c6,0.8,10.3-1.4,11.7-9l14.8-82.7l17.9,2.5l-14.6,81.6
			c-3.1,17.2-14.5,25.6-33.1,23c-18.6-2.6-26.6-13.8-23.5-30.9l14.6-81.6L159.7,271.2z"/>
		<path class="st2" d="M261.8,312.7l-2.5,13.9c-3.1,17.2-14,25.2-33,22.5l-9-1.3l-7.2,40.3l-19-2.7l19.1-107.2l28,3.9
			C257.2,284.9,264.8,295.6,261.8,312.7z M226.5,296.3l-6.5,36.3l9,1.3c6,0.8,9.8-1.1,11.1-8.8L243,309c1.4-7.7-1.5-10.6-7.5-11.4
			L226.5,296.3z"/>
		<path class="st2" d="M287.1,335.5l26.1,3.7l-2.7,15.3l-26.1-3.7l-5.6,31.4l32.8,4.6l-2.7,15.3l-51.8-7.3l19.1-107.2l51.8,7.3
			l-2.7,15.3l-32.8-4.6L287.1,335.5z"/>
		<path class="st2" d="M360.2,409.3c-0.5-2.9-0.9-4.7,0.6-13.4l3-16.8c1.8-10-1.4-14.2-10-15.4l-6.6-0.9l-7.8,43.6l-19-2.7
			l19.1-107.2l28.6,4c19.7,2.8,26.7,12.1,23.7,28.6l-1.5,8.4c-2,11-7.2,17.7-16.3,20c8.9,4.9,10.5,13.4,8.5,24.6l-3,16.5
			c-0.9,5.2-1.4,9.1-0.3,13.3L360.2,409.3z M355.9,314.5l-5.9,32.9l7.4,1c7.1,1,11.9-1.2,13.4-9.7l1.9-10.6c1.4-7.7-1-11.4-7.7-12.4
			L355.9,314.5z"/>
		<g>
			<path class="st0" d="M117.5,395.6c18.5,2.6,26.2,13.7,23.1,30.9l-0.6,3.4l-17.9-2.5l0.8-4.4c1.4-7.7-1.6-11.1-7.6-11.9
				c-6-0.8-10,1.6-11.4,9.2c-3.9,22,32.4,31.4,27,62c-3.1,17.2-14.5,25.6-33.1,23c-18.6-2.6-26.6-13.8-23.5-30.9l1.2-6.6l17.9,2.5
				l-1.4,7.7c-1.4,7.7,1.9,10.9,8,11.8c6,0.8,10.3-1.4,11.7-9c3.9-22-32.4-31.4-27-62C87.8,401.5,99,393,117.5,395.6z"/>
			<path class="st0" d="M198.6,518.1l-19.2-2.7l0.2-19.9l-23.3-3.3l-6.7,19l-17.4-2.4l38.5-104.5l27.8,3.9L198.6,518.1z
				 M161.3,478.1l18.3,2.6l0.5-55.5L161.3,478.1z"/>
			<path class="st0" d="M226.5,412.2l19,2.7l-16.4,91.9l31.2,4.4l-2.7,15.3l-50.2-7.1L226.5,412.2z"/>
			<path class="st0" d="M295.9,468.3l26.1,3.7l-2.7,15.3l-26.1-3.7l-5.6,31.4l32.8,4.6l-2.7,15.3l-51.8-7.3L285,420.4l51.8,7.3
				L334,443l-32.8-4.6L295.9,468.3z"/>
		</g>
	</g>
	<linearGradient id="SVGID_1_" gradientUnits="userSpaceOnUse" x1="265.8624" y1="336.7799" x2="406.8625" y2="219.563">
		<stop  offset="0" style="stop-color:#FFFFFF"/>
		<stop  offset="0.1665" style="stop-color:#FAFAFA"/>
		<stop  offset="0.3725" style="stop-color:#EBEBEB"/>
		<stop  offset="0.5992" style="stop-color:#D1D2D3"/>
		<stop  offset="0.8392" style="stop-color:#AFB0B2"/>
		<stop  offset="1" style="stop-color:#939598"/>
	</linearGradient>
	<path class="st3" d="M411.4,318.9L280.2,202.5L250.4,176l-16.2,91c-5.5,31,18.3,60.2,53.3,65.1l165,23.2L411.4,318.9z"/>
</g>
</svg>
