<?xml version="1.0" encoding="iso-8859-1"?>
<!-- Generator: Adobe Illustrator 19.0.0, SVG Export Plug-In . SVG Version: 6.00 Build 0)  -->
<svg version="1.1" id="Capa_1" xmlns="http://www.w3.org/2000/svg" xmlns:xlink="http://www.w3.org/1999/xlink" x="0px" y="0px"
	 viewBox="0 0 60 60" style="enable-background:new 0 0 60 60;" xml:space="preserve">
<circle style="fill:#ECF0F1;stroke:#38454F;stroke-width:2;stroke-linecap:round;stroke-miterlimit:10;" cx="30" cy="30" r="28"/>
<path style="fill:#556080;stroke:#38454F;stroke-width:2;stroke-linecap:round;stroke-miterlimit:10;" d="M30,51
	C18.42,51,9,41.579,9,30S18.42,9,30,9s21,9.421,21,21S41.58,51,30,51z"/>
<path style="fill:#E64C3C;stroke:#38454F;stroke-width:2;stroke-linecap:round;stroke-miterlimit:10;" d="M30,44
	c-7.72,0-14-6.28-14-14s6.28-14,14-14s14,6.28,14,14S37.72,44,30,44z"/>
<path style="fill:#F3D55B;stroke:#38454F;stroke-width:2;stroke-linecap:round;stroke-miterlimit:10;" d="M30,37
	c-3.859,0-7-3.141-7-7s3.141-7,7-7s7,3.141,7,7S33.859,37,30,37z"/>
<path style="fill:#ECF0F1;" d="M30,60c-0.553,0-1-0.448-1-1V1c0-0.552,0.447-1,1-1s1,0.448,1,1v58C31,59.552,30.553,60,30,60z"/>
<path style="fill:#ECF0F1;" d="M59,31H1c-0.553,0-1-0.448-1-1s0.447-1,1-1h58c0.553,0,1,0.448,1,1S59.553,31,59,31z"/>
<g>
</g>
<g>
</g>
<g>
</g>
<g>
</g>
<g>
</g>
<g>
</g>
<g>
</g>
<g>
</g>
<g>
</g>
<g>
</g>
<g>
</g>
<g>
</g>
<g>
</g>
<g>
</g>
<g>
</g>
</svg>
