<?xml version="1.0" encoding="utf-8"?>
<!-- Generator: Adobe Illustrator 24.1.1, SVG Export Plug-In . SVG Version: 6.00 Build 0)  -->
<svg version="1.1" id="Layer_1" xmlns="http://www.w3.org/2000/svg" xmlns:xlink="http://www.w3.org/1999/xlink" x="0px" y="0px"
	 viewBox="0 0 1125 1105" style="enable-background:new 0 0 1125 1105;" xml:space="preserve">
<style type="text/css">
	.st0{fill:#FC0812;}
	.st1{fill:#CF001A;}
	.st2{fill:#FB6376;}
	.st3{fill:#950304;}
</style>
<path class="st0" d="M733.31,917.05c-5.37,2.82,0.34,10.29,0.49,14.69c8.08,26.64,14.43,53.8,17.52,81.48
	c2.38,15.82,14.59,30,30.22,33.57c10.44-2.51,9.36-16.47,7.55-24.66c-5.68-25.44-28.19-41.89-36.56-66.11
	c-6.16-12.48-8.81-27.04-16.87-38.45C734.95,917.19,734.11,916.94,733.31,917.05L733.31,917.05z M733.31,917.05"/>
<path class="st0" d="M532.65,4c-14.69,4.25-31.15,13.39-33.78,29.95c0.22,13.37,13.7,21.08,20.61,31.2
	c16.2,21.42,15.01,50.14,13.76,75.63c-0.96,26.26-13.02,50.48-27.02,72.28c-9.94,11.24-25.08,16.95-39.42,20.09
	c-17.3,1.79-29.84-12.23-40.86-23.29c-39.76-48.79-75.53-100.94-118.76-146.84c-5.21-4.94-5.77-12.19-3.34-18.66
	c2.8-10.39-4.07-20.68-14.04-23.75c-14.11-8.48-35.05,4.38-31.69,21.05c2.73,9.13,10.61,15.92,18.97,19.76
	c39.37,29.19,66.35,70.84,96.44,108.66c14.78,19.66,30.66,41.99,28.1,67.97c0.13,13.35-10.82,23.61-22.02,28.94
	c-10.32,2.28-22.12,3.29-31.96-1.2c-19.58-12.1-36.79-28.3-51.63-45.91c-8.84-10.61-2.27-25.42-6.93-37.19
	c-8.57-12.28-32.49-10.36-35.2,5.61c-1.29,16.19,15.66,25,25.11,35.33c18.05,16.26,28.79,38.82,40.69,59.66
	c3.61,8.23,5.9,17.61,0.21,25.61c-7.59,14.85-15.43,31.46-30.59,39.69c-11.56,6.07-26.27,6.82-36.86-2.13
	c-11.98-7.77-24.94-14.03-35.38-24.05c-29.77-25.36-60-50.29-91.34-73.69c-11.62-6.74-23.7-15.34-27.15-29.17
	c-3.84-16.53-16.35-33.62-34.86-33.58c-10.55-1.3-19.74,9.01-16.81,19.32c3.83,17.65,20.59,28.66,37.01,33.27
	c26.97,10.75,49.64,29.68,72.21,47.49c24.92,22.77,51.31,44.84,71.61,72.11c14.37,18.83,14.28,43.94,12.18,66.45
	c-1.97,22.84-2.33,46.04-6.5,68.61c-6.88,11.86-20.87,18.1-33.97,20.41c-38.81,5.29-77.59-3.67-115.45-11.59
	c-9.06-3.31-20.1,0.75-22.84,10.49c-5.39,13.32,4.08,29.55,18.66,30.6c17.1,4.02,32.09-6.5,47.3-12.3
	c23.97-8.82,50.09-4.33,74.89-3.45c20.45,1.96,40.54,12.92,53.72,28.59c13.11,15.88,15.61,39.35,6.55,57.76
	c-7.88,19.09-26.81,29.87-44.77,37.88c-14.2,7.8-30.11,13.57-42.39,24.28c-2.79,5.13,4.74,6.11,7.83,3.87
	c25.21-8.83,50.4-19.72,77.32-21.6c19.74,0.35,41.39,2.5,57.59,14.81c10.07,10.28,11.46,26.31,6.13,39.07
	c-5.96,20.6-25.3,32.87-41.41,45.01c-12.28,9.99-28.88,13.91-39.7,25.93c-10.41,13.57-1.95,38.96,16.02,40.08
	c12.16,0.15,17.09-12.38,19.63-22.24c3.45-21.37,17.43-39.57,35.39-50.88c16.79-6.59,36.77-7.44,53.16,0.43
	c19.53,12.85,34.01,33.29,41.42,55.34c3.99,14.86-3.11,30.36-10.83,42.79c-24.44,30.69-45.73,63.92-70.2,94.38
	c-11.07,14.27-26.19,24.23-40.66,34.61c-9.63,8.55-12.94,25.52-4.88,36.09c6.08,7.26,16.6,8.73,24.79,4.21
	c14.3-5.78,14.12-23.9,17.65-36.53c4.15-19.72,14.32-37.92,25.58-54.6c23.26-27.29,45.66-55.5,70.11-81.67
	c13.04-11.72,29.88-22.52,48.23-18.54c23.66,4.04,46.79,10.83,70.18,16.14c12.85,6.61,14.13,23.32,17.71,35.8
	c5.5,29.89,3.67,60.57,5.15,90.9c-0.72,14.84,3.49,32.44-7.47,44.6c-6.51,7.87-8.02,21.8,2.4,27.15
	c12.33,6.33,24.61-4.83,28.75-15.94c4.37-11.9-2.72-24.23-4.35-36.05c-5.33-19.32-8.01-39.68-3.27-59.43
	c5.14-24.72,10.86-50.04,24.62-71.47c9.34-11.15,23.84-16.53,36.88-22.16c14.29-4.56,31.49-5.11,44.36,4.02
	c21.3,9.99,27.51,34.47,37.11,53.81c0.29,4.19,7.07,11.01,8.76,4.01c-0.33-23.07-14.89-46.21-6.26-69.2
	c5.75-14.44,16.26-28.54,31.05-34.34c12.51-2.61,27.2-1.35,35.94,9.12c8.52,6.41,14.73,16.82,24.85,20.66
	c6.19-1.56,0.72-8.06-1.95-10.35c-9.59-19.26-9.18-41.16-9.31-62.17c12.97-23.82,26.1-47.66,39.36-71.26
	c10.5-11.63,28.11-15.76,42.13-8.54c27.13,10.67,45.38,34.45,60.49,58.2c5.11,10.03,21.14,10.44,27.38,1.6
	c4.72-10.94-4.12-22.47-11.54-29.91c-18.76-16.9-45.53-22.22-62.97-40.72c-17.87-23.21-24.09-52.87-24.13-81.42
	c0.45-15.05-2.43-30.82,1.97-45.42c10.46-13.36,29.65-12.36,44.82-14.98c34.35-3.5,68.87-7.22,103.24-10.92
	c15.69-1.22,31.2,2.85,44.58,11.05c12.86,7.19,33.83,7.66,41.21-7.38c3.04-13.58-10.5-24.53-21.84-28.95
	c-14.32-5.22-28.34,5.04-41.7,8.83c-32.36,13.46-67.96,7.98-102.12,8.52c-21.14-0.08-43.22-1.54-61.69-13.08
	c-23.31-11.69-31.96-37.89-43.64-59.33c-7.75-11.77-9.4-28.17,0.12-39.45c19.4-23.68,44.06-43.09,69.61-59.92
	c18.52-10.97,40-16.41,57.89-28.38c9.97-8.19,10.54-27.87-2.36-33.29c-13.15-3.74-25.63,4.64-32.35,15.49
	c-10.84,17.84-24.28,34.46-41.97,45.77c-20.58,12.62-42.04,29.13-67.56,26.64c-23.23-1.17-39.56-31.93-24.97-50.81
	c12.49-14.23,25.68-28.25,41.37-38.97c15.99-10.11,38.85-5.25,52.06-20.18c6.74-8.79-2.14-18.72-10.4-22.05
	c-9.46-5.38-23.81-6.39-29.9,4.48c-9.8,12.97-13.69,31.42-29.67,38.74c-22.11,13.43-50.43,11.02-72.73-1.01
	c-20.82-10.48-39.9-26.85-50.14-47.77c-2.06-8.82-1.59-18.51-0.61-27.21c20.96-37.92,45.22-74.21,73.94-106.87
	c8.6-12.36,21.26-20.87,31.36-31.89c6.74-10.68,5.6-27.31-4.23-35.75c-7.03-6.85-16.97-1.09-21.7,5.52
	c-10.96,15.02-7.2,35.57-16.1,51.68c-12.39,22.2-27.6,42.71-42.31,63.41c-21.07,25.83-41.59,54.73-72.07,70.06
	c-20.19,7.7-43.51,14.22-64.07,4.67c-13.85-4.75-28.86-12.92-32.56-28.35c-8.69-33.38-1.59-68.39-8.53-102.2
	c-1.7-10.97-4.3-24.57,5.65-32.72c7.6-7.45,14.97-19.24,8.15-29.59C550.55,10.44,541.09,4.99,532.65,4L532.65,4z M597.91,239.98
	c21.88,0.86,43.39,6.32,64.24,11.82c21.91,7.51,41.25,20.88,61.37,31.92c23.61,15.28,36.91,41.15,52.78,63.57
	c12.94,23.92,29.37,46.13,39.62,71.43c9.72,33.72,14.19,69.12,17.46,104.24c1.01,9.54,4.85,18.57,10.71,25.96
	c1.32,20.82,1.59,42.4-0.73,62.79c-4.24,20.96-11.41,41.37-19.59,61.09c-8.68,14.45-22.91,24.84-30.42,40.17
	c-8.86,13.4-17.09,28.33-32.03,35.84c-18.35,10.63-35.52,23.14-53.78,33.89c-12.53,7.15-26.63,9.69-40.58,12.18
	c-20.88,7.5-40.85,19.71-63.78,18.72c-27.69,2.06-54.77-4.64-81.84-9.06c-17.37-2.12-32.67-10.67-46.04-21.52
	c-16.42-13.52-38.52-16.46-57.09-25.83c-16.82-7.36-35.07-13.69-46.95-28.55c-15.27-14.46-21.33-35.01-26.8-54.63
	c-7.83-15.88-21.39-28.02-29.28-43.89c-11.35-21.94-31.05-39.8-35.11-65.16c-6.27-33.51-5.34-68.03-8.91-102.01
	c-1.8-31.88,9.39-63.48,30.44-87.7c14.44-23.44,38.45-37.74,57.34-57.26c20.45-20.5,45.07-36.82,72.49-45.96
	c38.75-15.24,79.12-28.03,121.02-28.9C567.63,242.09,582.75,240.34,597.91,239.98L597.91,239.98z M597.91,239.98"/>
<path class="st0" d="M139.27,694.63c-24.5,5.76-46.03,25.24-72.33,21.56c-9.36-1.07-22.91-5.47-29.52,3.86
	c-4.75,8.63-7.02,21.76,0.48,29.46c9.51,4.24,21.39,3.99,31.08,0.22c18.75-10.12,33.31-26.31,52.31-36
	c7.13-4.7,17.87-7.76,20.93-16.44C142.19,695.74,140.8,694.49,139.27,694.63L139.27,694.63z M139.27,694.63"/>
<path class="st0" d="M822.56,829.3c-4.35,4.31,1.7,11.07,0.88,16.45c0.81,13.37-0.71,31.16,12.92,38.93
	c12.56,6.75,28.3-9.33,21.75-21.94c-5.97-13.55-19.97-20.83-30.17-30.83C826.3,830.87,824.76,828.72,822.56,829.3L822.56,829.3z
	 M822.56,829.3"/>
<path class="st1" d="M593.29,243.45c-24.41,1.27-48.71,3.35-73.09,4.88c-23.99,3.39-46.5,13.14-69.59,20.03
	c-29.65,9.99-60.55,20.99-82.77,44.08c-13.38,12.66-26.32,25.71-40.79,37.14c-8.61,6.91-14.88,15.86-21.59,24.37
	c-11.02,13.37-20.8,28.01-25.84,44.74c-5.94,16.4-8.48,34.08-5.69,51.4c3.57,29.52,2.37,59.4,6.94,88.81
	c4.49,28.02,26.47,48.06,38.65,72.62c6.45,12.69,16.34,23.03,24.7,34.37c6.35,12.06,6.18,26.53,13.55,38.24
	c8.93,16.63,21.98,31.77,39.59,39.44c20.44,10.86,42.14,18.92,63.69,27.21c11.14,5.56,19.38,15.5,30.59,21.06
	c12.54,7.67,27.66,8.89,41.79,11.66c17.76,1.9,35.21,6.42,53.07,7.18c14.82,0.17,30,0.49,44.03-5.11
	c12.05-3.13,22.57-10.12,34.31-13.95c13.24-2.49,27.05-3.85,38.82-11.04c14.02-7,26-17.26,39.66-24.89
	c8.05-5.65,16.94-10.18,24.92-15.78c17.98-16.91,27.29-40.49,44.5-58.04c13.65-15.42,17.86-36.39,23.64-55.57
	c7-23.27,7.52-48.01,5.23-72.04c-1.02-9.18-8.66-15.68-11.21-24.42c-4.92-10.22-0.4-21.64-2.72-32.39
	c-3.19-20.5-1.78-41.94-9.2-61.62c-2.13-14.19-6.09-28.48-15.12-39.96c-11.06-15.48-17.36-34.08-29.88-48.53
	c-3.58-2.64-3.49-8.27-7.23-11.08c-5.98-9.3-11.86-19.01-19.65-26.88c-3.95-3.84-5.74-9.57-9.99-13.51
	c-5.71-6.85-14.79-8.95-21.87-14.02c-16.46-8.59-32.35-18.42-49.36-25.88c-18.98-6.44-38.96-9.77-58.81-12.11
	C602.16,243.51,597.73,243.38,593.29,243.45L593.29,243.45z M499.3,277.51c8.61,0.58,17.3,4.64,23.38,10.72
	c1.82,5.2-1.24,10.99-3.47,15.69c-3.79,6.53-10.56,14.51-19.07,11.04c-8.3-1.44-17.38-4.88-20.43-13.56
	C474.09,288.87,487.3,277.01,499.3,277.51L499.3,277.51z M591.85,281.67c15.14-0.25,30.23,7.14,38.3,20.14
	c8.64,11.6,14,28.25,29.25,32.94c4.47,2.3,9.03,0.19,13.53-0.22c6.71,2.14,11.3,10.13,9.06,17.03c-2.09,6.76-3.67,14.72,1.34,20.68
	c3.25,5.44,9.08,9.95,7.34,16.99c0.14,10.07,1.63,20.99-4.69,29.68c-4.45,9.02-15.96,16.08-25.58,10.16
	c-8.63-4.95-12.33-15.12-15.61-23.94c-2.38-13.43-1.79-29.05-12.14-39.49c-7.01-11.66-18.96-20.19-32.15-23.79
	c-12.87-4.66-27.63-8.89-36.1-20.46c-3.51-6.73-5.16-15.01-2.87-22.32C566.22,287.08,579.77,281.67,591.85,281.67L591.85,281.67z
	 M475.06,342.67c15.91-0.48,32.54,0.09,46.68,8.45c8.5,3.49,11.85,12.61,12.42,21.12c2.45,14.26-4.98,27.91-15.07,37.46
	c-3.07,3.25-8.61,0.18-12.81,0.19c-18.98-2.74-37.13-9.97-56.25-11.59c-10.18-0.22-17.15,8.82-23.13,15.84
	c-7.72,12.75-10.11,29.16-3.66,42.95c4.72,11.22,14.93,20.39,16.13,32.92c0.4,7.97,0.21,18.67-8.84,21.76
	c-7.11,2.8-15.78,4.96-23.13,2.27c-8.6-11.28-8.55-26.61-15.3-38.9c-6.16-13.82-18.91-25.81-17.37-42.1
	c0.26-13.28,5.99-25.58,10.64-37.92c8.42-18.68,23.72-34.38,41.71-43.83c13.16-6.69,27.55-9.41,42.04-8.62
	C471.11,342.68,473.08,342.68,475.06,342.67L475.06,342.67z M739.02,355.88c13.71,0.37,19.87,14.31,25.04,24.88
	c4.51,10.94,7.23,22.6,13.14,32.98c8.71,18.09,4.52,38.86,8.78,57.98c3.62,21.5,16.11,40.26,19.72,61.79
	c1.4,9.36,4.49,20.09-0.12,28.94c-6.24,6.57-15.8,2.57-21.36-2.82c-10.16-7.66-17.65-18.34-22.05-30.32
	c-13.88-28.95-8.99-62.68-19.05-92.76c-6.21-17.53-23.7-28.16-29.99-45.55c-1.76-14.63,7.53-31.65,22.58-34.92
	C736.8,355.92,737.91,355.85,739.02,355.88L739.02,355.88z M579.99,393.87c12.14,0.01,23.89,5.64,33.18,13.11
	c3.61,4.13,2.55,11.99-2.02,15.17c-11.21,8.62-26.47,15.5-40.7,11c-9.03-3.6-19.19-11.72-16.18-22.73
	c1.1-9.24,9.58-14.99,18.31-15.91C575.02,394.1,577.51,393.88,579.99,393.87L579.99,393.87z M329.03,404.26
	c10.78,6.31,15.33,19.73,17.45,31.31c4.3,20.81,8.02,42.07,17.81,61.18c3.02,5.6,3.09,12.69-1.42,17.53
	c-3.91,6.28-10.99,11.66-18.73,9.13c-12.59-2.86-17.54-16.59-21.1-27.53c-4.2-18.05-11.93-34.99-19.41-51.82
	c-0.84-7.22-2.27-14.93,0.13-21.86C308.76,412.66,319.31,407.6,329.03,404.26L329.03,404.26z M482.32,433.16
	c8.98,0.75,20.97-0.99,26.55,7.85c2.13,10.92-3.77,22.51-14.29,26.53c-10.34,4.06-22.24,3.17-32.86,0.4
	c-8.41-1.92-14.77-10.48-12.33-19.14c2.46-8.65,11.6-13.41,19.36-16.06C473.26,432.89,477.79,433.02,482.32,433.16L482.32,433.16z
	 M602.48,449.68c12.17-0.51,23.81,4.46,34.43,9.91c16.84,11.86,29.48,28.59,43.88,43.13c7.3,7.26,13.09,16.56,23.26,20.06
	c8.41,5.04,20.81,8.67,23.25,19.52c0.22,7.21-2.73,17.08-10.63,18.83c-12.5,0.11-25.18-5.21-32.51-15.64
	c-14.91-18.74-31.48-36.33-49.96-51.57c-13.49-11.08-32.15-10.97-48.38-7.45c-11.36,2.29-24.94,5.41-35.49-1.8
	c-5.32-2.23-7.68-8.79-4.31-13.69c8.53-17.95,31.09-21.05,48.7-21.25C597.31,449.69,599.9,449.69,602.48,449.68L602.48,449.68z
	 M691,451.3c12.76,0.61,26.75,10.28,27.85,23.85c-1.68,3.32-2.99,6.79-4.06,10.3c-2.44,5.2-8.63,6.29-13.47,3.91
	c-8.88-3.91-18.71-10.6-21.33-20.62c-0.49-5.17-2.41-11.9,3.19-14.93C685.4,452.09,688.2,451.26,691,451.3L691,451.3z
	 M493.08,491.14c16.94,0.14,31.78,10.43,47.38,16.1c10.41,4.96,22.36,6.96,33.51,3.26c7.68-2.19,16.58-4.93,23.52,0.74
	c5.5,4.14,11.89,8.9,13.72,15.82c1.72,12.3-9.76,20.23-19.91,23.87c-11.81,5.41-25.63,6.06-37.61,1.18
	c-18.66-6.48-36.58-16.84-56.92-16.51c-6.33-0.97-9.39,6.31-13.62,9.97c-6.82,7.31-5.36,19.03-12,26.27
	c-8.64,5.43-19.69-2.11-20.82-11.51c-2.34-10.47-6.04-21.61-3.41-32.33c4.75-12.77,13.84-23.9,25.04-31.65
	C478.4,492.86,485.77,491.17,493.08,491.14L493.08,491.14z M399.62,534.92c8.86-0.22,21.23,0.81,25.29,10.86
	c3.24,6.64,5.42,14.82,0.87,21.47c-3.75,9.78-16.07,10.84-24.45,6.74c-12.13-3.82-25.03-13.01-26.01-26.62
	c1.57-8.65,12.06-11.18,19.57-12.2C396.47,534.99,398.05,534.91,399.62,534.92L399.62,534.92z M336.56,559.78
	c11.17,1.94,20.72,9.06,30.68,14.17c19.52,10.51,33.75,28.98,54.22,37.89c15.21,6.1,31.65,1.23,46.98-0.15
	c10.99-0.99,23.34,1.69,30.66,10.83c0.66,8.22-0.3,17.79-7.67,22.89c-13.39,9.79-30.83,10.19-46.5,12.74
	c-12.87,2.21-26.56,1.74-38.75-3.07c-12.71-2.98-21.11-14.32-27.43-24.98c-4.74-9.85-12.84-17.82-23.15-21.66
	c-12.15-6.58-26.77-8.1-37.46-17.19c-6.69-7-0.92-17.35,3.38-24C324.92,562.43,330.61,559.45,336.56,559.78L336.56,559.78z
	 M634.39,560.37c15.19,0.71,28.49,11.13,36.93,23.18c4.13,8.35-5.41,14.73-9.27,21.04c-3.57,6.25-12.15,7.29-18.63,7.61
	c-10.23-1.98-18.4-9.89-24.55-17.92c-6.82-8.76-5.49-22.05,2.98-29.23C625.13,561.81,629.83,560.33,634.39,560.37L634.39,560.37z
	 M758.43,564.87c8.22,1.37,12.37,10.3,15.36,17.26c2.97,12.75-6.94,24.32-16.37,31.38c-8.77,5.97-20.1,11.64-30.67,7.2
	c-8.09-6.35-7.08-18.26-4.58-27.09c3.1-11.5,12.02-20.63,23.13-24.74C749.44,566.97,753.76,564.85,758.43,564.87L758.43,564.87z
	 M539.94,578.08c12.85,0.52,27.69,3.35,36.72,13.52c2.33,7.36,12.64,8.32,13.37,16.5c2.57,10.96-0.28,23.64-9.94,30.31
	c-10.12,8.48-23.69,7.01-35.78,6.48c-17.08-5.73-29.85-20.79-35.62-37.49c-3.71-10.85,3.55-22.37,13.85-26.08
	C528.02,578.99,534.01,578.08,539.94,578.08L539.94,578.08z M781.32,624.27c8.78,0.25,17.67,7.75,16.22,17.15
	c0.89,13.46-4.6,26.49-13.43,36.46c-9.79,13.55-20.59,27.15-34.94,36.04c-13.27,6.72-28.73,10.25-39.91,20.89
	c-13.08,12.53-27.84,23.43-44.93,29.61c-14.07,5.08-28.49,10.33-43.49,11.53c-7.5,1.2-14.47-7.48-10.78-14.24
	c6.41-5.13,13.76-9.19,19.53-15.22c11.1-9.62,20.89-22.04,35.61-26.19c16.46-6.95,35.67-8.57,49.83-20.29
	c10.69-10.99,16.08-25.91,24.99-38.24c10.13-15.33,23.94-28.44,39.96-37.41C780.41,624.28,780.86,624.26,781.32,624.27
	L781.32,624.27z M698.97,625.98c7.15-0.29,14.82,5.98,13.09,13.5c0.75,8.14-1.3,16.66-7.62,22.22c-6.49,8.74-18.18,9.97-28.17,11.12
	c-11.14,1.55-17.1-12.68-11.57-21.19c4.44-9.4,11.66-18.51,21.8-22.23C690.41,627.58,694.59,626.05,698.97,625.98L698.97,625.98z
	 M623.21,629.61c5.09,0.56,11.97,2,11.89,8.51c1.58,19.46,2.6,40.5-7.84,57.96c-8.34,12.21-19.24,22.61-31.13,31.37
	c-16.14,7.84-34.64,3-51.96,3.16c-12.45-0.31-24.98-0.64-37.39-0.09c-7.94,3.51-15.48,9.04-23.86,11.08
	c-9.84-3.58-16.4-13.54-18.99-23.23c3.83-7.29,10.75-13,17.97-16.88c16.39-6.05,34.92-6.1,51.46-0.99
	c13.21,2.69,29.06,3.63,39.37-6.78c10.89-8.64,18.88-20.21,24.03-33.06c5.35-11.53,9.92-24.53,21.01-31.91
	C619.59,629.03,621.4,629.32,623.21,629.61L623.21,629.61z M407.67,678.24c5.17,0.97,10.93,1.25,14.56,5.73
	c5.73,5.78,7.84,15.9,1.43,22.04c-4.01,4.42-7.99,9.85-12.83,12.77c-8.71,0.32-18.85,0.04-24.89-7.44
	c-4.96-4.31-9.36-11.4-5.54-17.84C384.82,683.15,397.54,679.53,407.67,678.24L407.67,678.24z M560.56,742.34
	c11.09,1.2,18.93,10.63,26.22,18.18c3.92,14.99-17.54,18.07-27.75,19.84c-10.29,1.96-23.42,1.84-30.15-7.93
	c-5.35-4.35-2.39-11,1.03-15.42C536.5,746.79,548.98,742.9,560.56,742.34L560.56,742.34z M560.56,742.34"/>
<path class="st2" d="M592.96,285.7c-10.61-1.04-22.13,3.42-27.48,13c-5.5,12.15,3.54,25.36,14.33,30.89
	c15.47,9.17,36.02,9.89,48.2,24.33c9.78,10.25,18.57,22.73,19.36,37.26c1.22,12.32,2.97,26.48,13.8,34.34
	c8.17,6.01,18.66-0.39,22.49-8.39c7.58-13.79,5.88-32-4.44-44.01c-4.8-5.41-1.04-13.25-1.67-19.85c0.47-5.32,0.9-14.03-5.96-15.22
	c-8.82,3.26-18.52-1.3-25.2-7.15c-12.1-12.4-16.88-31.07-32.55-40.16C607.65,286.33,600.42,285.17,592.96,285.7L592.96,285.7z
	 M592.96,285.7"/>
<path class="st2" d="M498.36,281.47c-10.43-0.86-20.76,11.05-14.83,20.84c5.75,9.23,20.76,13.69,29.31,5.91
	c3.21-4.8,7.78-10.43,6.74-16.5C516.6,283.07,506.32,281.36,498.36,281.47L498.36,281.47z M498.36,281.47"/>
<path class="st2" d="M460.19,346.32c-13.35,0.68-26.49,5.41-37.88,12.31c-16.61,11.53-31,27.45-36.68,47.25
	c-3.44,12.27-10.11,25.24-5.28,38.09c5.24,14.82,17.37,26.3,20.86,41.94c3.22,7.9,3.7,17.45,9.33,24.11
	c6.78,2.63,14.91,0.21,21.12-3.12c8.02-4.82,5.69-16.16,2.75-23.37c-5.65-13.31-17.78-25-17.27-40.13
	c-0.41-9.33,0.32-19.12,5.66-27.23c5.43-10.55,14.42-21.99,27.59-21.32c12.98-1.56,24.64,5.71,37.14,7.8
	c9.24,1.41,18.96,6.45,28.28,3.22c10.31-5.65,17.26-17.58,15.69-29.47c0.27-9.41-3.6-19.61-12.9-23.35
	c-16.1-8.41-34.99-5.71-52.46-6.73C464.17,346.29,462.18,346.28,460.19,346.32L460.19,346.32z M460.19,346.32"/>
<path class="st2" d="M325.89,410.54c-8.02,1.55-15.78,7.02-19.73,14.15c-2.6,15.14,5.27,29.03,11.03,42.42
	c7.33,15.8,7.87,34.87,19.46,48.56c9.25,10.38,29.47-2.12,23.79-15.06c-5.15-12.46-10.82-24.8-13.12-38.22
	c-3.51-13.58-4.73-27.93-9.77-41.03C334.62,417.42,331.55,410.55,325.89,410.54L325.89,410.54z M325.89,410.54"/>
<path class="st2" d="M474.84,436.67c-8.76-0.05-18.24,5.35-21.54,13.64c-2.46,8.92,6.07,16.57,14.44,17.17
	c10.89,2.37,23.45,1.51,31.54-7.08c4.53-2.87,6.96-7.19,5.44-12.59c1.13-5.59-1.64-9.74-7.44-9.87
	C489.89,436.68,482.32,436.68,474.84,436.67L474.84,436.67z M474.84,436.67"/>
<path class="st2" d="M580.35,397.91c-8.65-0.11-20.66,2.69-22.43,12.65c-1.3,6.03,1.43,11.74,6.42,15.17
	c6.96,7.65,18.05,6.63,27.01,3.84c7.74-2.58,18.3-6.34,19.57-15.58c0.97-7.22-7.29-9-12.14-11.74
	C593.08,399.31,586.8,397.62,580.35,397.91L580.35,397.91z M580.35,397.91"/>
<path class="st2" d="M736.21,358.92c-8.89,0.85-14.4,9.63-18.08,16.88c-3.37,9.16-1.46,19.67,5.15,26.91
	c9.83,12.18,21.65,24.02,25.33,39.64c8.22,29.41,4.28,61.79,18.76,89.46c5.92,13.37,15.53,26.65,29.76,31.68
	c6.66,0.06,6.98-8.33,6.69-13.18c0.82-20.81-8.72-39.76-15.78-58.7c-7.62-19.54-7.18-40.61-9.93-61.27
	c-2.43-16-13.37-29.17-15.66-45.21c-3.74-10.64-10.34-22.72-22.03-25.82C739.05,359.04,737.63,358.87,736.21,358.92L736.21,358.92z
	 M736.21,358.92"/>
<path class="st2" d="M690.69,455.3c-5.98-1.36-8.65,2.96-7.62,8.4c-0.19,13.13,12.59,25.1,25.69,23.12c4.38-2.7,1.51-8.94,3.5-13.04
	c3.19-8.38-6.17-14.4-12.89-16.78C696.6,456,693.66,455.27,690.69,455.3L690.69,455.3z M690.69,455.3"/>
<path class="st2" d="M602.32,453.32c-16.75,0.87-36.47-0.9-49.62,11.63c-4.08,4.25-7.2,13.4-1.24,17.27
	c14.5,8.02,31.17,0.24,45.86-1.42c19.4-2.63,38.12,7.03,51.34,20.9c14.68,13.89,27.67,29.38,40.89,44.64
	c7.44,7.75,19.77,14.5,30.32,9.31c4.8-4.93,5.4-14.78-1.2-18.62c-11.06-9.76-26.28-13.5-35.4-25.54
	c-16.33-17.52-32.47-35.57-51.46-50.26C622.57,457.07,612.65,452.71,602.32,453.32L602.32,453.32z M602.32,453.32"/>
<path class="st2" d="M482.77,496.26c-17.23,7.47-32.73,23.14-34.14,42.61c3.74,9.45,2.41,21.58,10.36,29.05
	c4.56,3.14,11.8,0.8,12.31-5.24c3.46-11.37,8.01-25.29,20.71-29.32c15.38-3.99,30.77,2.67,45.02,7.93
	c12.99,6.51,27.69,12.63,42.58,9.2c9.84-2.5,21.54-5.69,26.84-15.16c2.52-8.57-5.29-16.22-11.47-21.02
	c-9.16-6.46-19.88,1.84-29.5,1.97c-15.17,2.1-29.21-7.08-43.02-12.23c-8.7-3.55-17.03-8.83-26.8-7.61
	C491.38,496.48,486.99,495.7,482.77,496.26L482.77,496.26z M482.77,496.26"/>
<path class="st2" d="M402.11,539.37c-7.13,0.48-17.65-0.75-21.15,7.09c-2.46,11.97,9.13,20.27,19.12,23.54
	c7.58,3.28,19.64,4.19,23.39-4.94c2.25-5.48,2.01-12.97-3.83-16.07c-2.71-2.67-1.99-8.11-6.8-8.79
	C409.36,539.2,405.69,539.36,402.11,539.37L402.11,539.37z M402.11,539.37"/>
<path class="st2" d="M335.37,564.59c-9.08-0.77-12.89,8.97-15.79,15.77c-4.43,5.7,3.21,10.03,7.32,12.97
	c6.32,3.44,13.8,3.79,20.16,7.2c11.71,5.44,25.82,9.17,32.31,21.44c7.2,10.98,13.28,24.6,26.78,29.02
	c19.1,8.06,40.31,2.97,59.87-0.44c10.19-2.42,23.07-4.25,28.75-14.19c1.66-6.66,0.76-16.07-6.9-18.52
	c-10.65-4.35-22.51-1.23-33.57-0.51c-10.21,2.45-20.91,2.6-30.88-1.03c-15.89-5.4-27.42-18.51-40.96-27.83
	c-12.35-9.52-25.85-18.02-40.54-23.35C339.78,564.64,337.56,564.57,335.37,564.59L335.37,564.59z M335.37,564.59"/>
<path class="st2" d="M409.83,682.42c-8.42,1.28-17.62,3.62-23.98,9.57c-4.95,7.64-0.07,18.94,8.58,21.44
	c6.03,2.43,13.71,4.18,18.85-1.07c6.51-4.12,12.67-11.35,9.93-19.59C421.63,686.85,416.04,682.28,409.83,682.42L409.83,682.42z
	 M409.83,682.42"/>
<path class="st2" d="M619.63,633.79c-7.67,0.9-9.97,10.16-13.63,15.67c-8.23,15.79-14.73,33.44-29.12,44.89
	c-7.51,7.25-17.44,12.64-28.31,11.81c-13.46,0.99-26.2-6.22-39.82-5.06c-7.75-0.25-15.98-0.52-22.59,4.22
	c-7.79,1.85-15.35,7.51-17.75,15.4c0.72,8.03,7.66,14.87,14.97,17.65c9.17-2.54,16.44-11.77,26.77-10.62
	c24.98-0.75,50.2,0.08,75.18,0.42c15.1-5.5,25.64-18.24,36.04-29.85c11.92-14.21,9.46-33.99,10.45-51.22
	c0.43-5.17-0.47-12.84-7.19-12.91C622.97,634.01,621.3,633.8,619.63,633.79L619.63,633.79z M619.63,633.79"/>
<path class="st2" d="M539.23,582.15c-11.35-0.14-25.69,5.41-27.11,18.23c-1.13,12.56,9.24,22.06,16.7,30.81
	c9.33,10.49,24.48,13.58,37.81,10.57c15.3-2.29,24.15-19.84,19.86-33.98c-3.36-7.36-10.94-11.53-16.38-17.22
	C561.38,584.05,549.86,582.23,539.23,582.15L539.23,582.15z M539.23,582.15"/>
<path class="st2" d="M634.26,563.16c-8.58,0.38-16.5,8.3-17.33,16.78c0.41,15.35,15.4,28.34,30.39,28.55
	c10.07-1.36,16.17-11.13,21.26-18.92c1.08-6.97-4.66-13.18-9.42-17.63C651.83,567.05,643.23,563.13,634.26,563.16L634.26,563.16z
	 M634.26,563.16"/>
<path class="st2" d="M696,629.92c-16.48,0.9-30.9,17.41-29.08,33.88c0.95,8.2,10.92,8.75,17.2,7.13
	c9.93-2.28,19.14-9.18,23.91-18.17c1.14-6.57,3.01-14.72-1.19-20.53C703.98,629.57,699.61,629.99,696,629.92L696,629.92z
	 M696,629.92"/>
<path class="st2" d="M756.46,569.74c-11.99,1.68-23.88,9.23-29.21,20.3c-2.96,8.1-3.45,17.66-0.4,25.77
	c3.75,5.19,11.35,2.3,16.57,1.63c9.81-3,18.6-9.9,24.41-18.3c4.57-7.57,5.01-18.28-2.07-24.55
	C763.42,571.77,760.35,569.36,756.46,569.74L756.46,569.74z M756.46,569.74"/>
<path class="st2" d="M782.78,630.62c-13.79,2.49-23.13,14.44-32.55,23.78c-12.52,12.81-17.12,31.06-28.82,44.39
	c-15.72,15.16-38.93,15.57-57.82,24.64c-11.54,3.22-18.11,13.95-26.9,21.3c-6.48,6.64-14,12.08-21.13,17.86
	c-4.01,3.53-1.87,10.28,3.38,10.98c8.68,2.93,17.42-2.46,25.84-4.1c17.39-5.37,35.75-10.58,49.07-23.78
	c9.33-7.68,16.83-18.05,27.7-23.63c15.27-6.7,33.12-10.84,43.93-24.71c8.91-10.82,18.17-21.72,24.72-34.14
	c2.82-9.14,4.98-19.68,1.34-28.84C789.64,631.58,786.05,630.32,782.78,630.62L782.78,630.62z M782.78,630.62"/>
<path class="st2" d="M558.74,746.56c-12.02-0.11-25.65,7.56-28.19,19.9c2.11,9.65,13.43,13.59,22.32,12.97
	c10.07-0.52,21.54-1.18,29.52-8.01c3.2-4.21,1.81-10.81-3.37-12.74c-4.39-3.57-6.15-10.27-12.52-11.28
	C563.99,746.71,561.35,746.52,558.74,746.56L558.74,746.56z M558.74,746.56"/>
<path class="st3" d="M824.56,839.62c1.52,4.43,1.87,8.31,1.5,16.59c-0.45,10.12-0.27,11.23,2.85,17.59
	c4.03,8.2,8.26,11.72,13.97,11.62c8.45-0.13,15.05-7.45,14.91-16.55c-0.08-5.2-4.85-12.48-11.46-17.46
	c-3.1-2.34-9.14-7.55-13.42-11.57c-6.86-6.46-10.38-8.71-10.34-6.64C822.57,833.56,823.47,836.46,824.56,839.62L824.56,839.62z
	 M733.84,925.26c10.7,33.27,18.27,67.28,18.53,83.2c0.12,7.28,4.86,19.35,9.94,25.32c5.59,6.57,16.22,12.7,20.17,11.65
	c6.32-1.69,7.82-13.45,3.45-26.91c-3.07-9.44-6.56-15.7-13.93-24.97c-7.61-9.58-15.03-20.65-16.78-25.04
	c-0.81-2.02-2.21-5.3-3.11-7.29c-0.91-1.99-1.66-4.09-1.67-4.67c-0.01-0.58-1.34-3.69-2.96-6.93c-2.89-5.75-8.11-19.01-10.42-26.44
	c-0.64-2.06-1.92-3.72-2.84-3.71C732.2,919.48,732.17,920.03,733.84,925.26L733.84,925.26z M729.15,616.66
	c2.6,1.6,11.93,1.11,16.46-0.87c5.1-2.23,13.17-7.81,17.05-11.82c4.17-4.31,6.55-10.07,6.46-15.7c-0.08-5.52-1.29-8.09-6.06-12.94
	c-3.94-4-7.34-3.89-16.81,0.58c-10.72,5.06-17.47,12.94-19.03,22.21C726.23,604.09,727.42,615.6,729.15,616.66L729.15,616.66z
	 M719.14,597.66c2.3-11.81,9.77-22.27,19.08-26.75c1.9-0.91,6.46-3.12,10.13-4.91c10.49-5.09,16.18-3.15,23.6,8.04
	c5.87,8.84,6.58,15.05,2.74,23.79c-3.92,8.93-11.98,17.46-20.53,21.73c-19.68,9.81-30.68,8.11-34.92-5.42
	c-2.14-6.84-2.14-6.05-0.11-16.47H719.14z M720,395.44c1.04,2.62,13.32,17.7,19.07,23.42c2.72,2.7,6.4,9.28,9.71,17.32
	c3.68,8.98,6.42,23.93,8.38,45.87c0.76,8.57,2.01,18.96,2.79,23.08c2.62,14.01,13.27,37.98,19.63,44.2
	c13.05,12.76,18.91,15.7,21.45,10.76c1.53-2.95,1.26-18-0.44-25.74c-1.86-8.41-5.42-19.4-8.2-25.31
	c-9.94-21.12-13.26-35.08-14.49-60.81c-0.87-18.19-3.07-27.54-8.68-36.9c-4.68-7.82-7.94-16.23-7.89-20.35
	c0.06-4.33-2.33-10.22-6.8-16.79c-6.51-9.59-10.54-12.19-18.63-12.07c-3.55,0.05-4.99,0.97-9.51,6.01
	c-2.93,3.26-5.84,7.61-6.46,9.64C718.43,382.73,718.46,391.57,720,395.44L720,395.44z M712.79,376.47
	c3.64-10.76,11.64-19.26,20.03-21.29c5.59-1.34,14.79,0.29,18.02,3.22c1.4,1.26,2.9,2.29,3.35,2.28
	c1.31-0.02,12.39,19.54,14.57,25.71c1.11,3.12,2.03,6.9,2.05,8.4c0.03,1.5,1.84,5.95,4.05,9.89c2.2,3.94,5.44,11.24,7.21,16.24
	c2.85,8.08,3.23,10.85,3.47,25.26c0.2,12.81,0.92,19.06,3.38,29.93c1.72,7.56,3.63,14.59,4.25,15.62c1.5,2.52,8.02,17.97,9.99,23.71
	c6.37,18.5,8.81,39.15,5.56,47.23c-1.93,4.82-7.42,7.07-14.82,6.07c-4.31-0.58-6.6-2.09-15.2-9.96
	c-9.41-8.63-10.51-10.12-15.66-21.34c-10.03-21.8-11.54-27.92-14.67-59.32c-2.49-25.07-2.72-26.41-6.51-38.06
	c-3.15-9.68-4.9-12.28-19.6-29.06C710.21,397.25,708.23,390,712.79,376.47L712.79,376.47z M688.31,475.68
	c4.23,6.31,10.06,9.94,16.02,9.96l4.85,0.02l0.08-5.63c0.06-3.1,0.71-6.04,1.47-6.53c1.9-1.21,0.59-4.51-3.43-8.66
	c-4.01-4.16-14.75-7.93-19.16-6.76c-2.84,0.76-3.07,1.28-2.98,6.93C685.24,469.62,686.01,472.23,688.31,475.68L688.31,475.68z
	 M679.4,455.04c8.09-9.68,28.87-4.26,38.2,9.96c3.87,5.9,4.74,12.88,1.91,15.31c-0.94,0.8-1.69,2.67-1.67,4.14
	c0.06,4.03-4.45,8.64-9.28,9.49c-3.33,0.58-5.61,0-11.03-2.81c-8.59-4.47-9.37-5.08-15.03-11.85c-4.2-5.03-4.71-6.32-5.21-13.3
	C676.8,459.15,677.05,457.85,679.4,455.04L679.4,455.04z M670.95,668.66c5.07,5.28,21.41,0.73,30.11-8.36
	c5.66-5.92,6.33-7.78,6.34-17.61c0-8.06-0.58-8.73-8.81-9.97c-5.93-0.88-15.36,3.17-21,9.04
	C669.36,650.33,666.08,663.59,670.95,668.66L670.95,668.66z M661.42,654.43c1.26-4.4,8.33-15.1,12.54-18.97
	c1.98-1.8,6.98-4.94,11.13-6.96c12.01-5.85,21.59-4.94,27.35,2.59c3.62,4.74,3.64,16.69,0.02,24.32
	c-3.04,6.45-8.67,12.67-14.02,15.54c-4.42,2.38-17.07,5.33-23.19,5.42C664.71,676.54,658.1,666.06,661.42,654.43L661.42,654.43z
	 M622.08,592.19c4.19,7.39,14.15,14.26,21.74,14.99c5.07,0.5,12.26-1.46,12.23-3.33c-0.01-0.47,1.8-2.64,4.03-4.83
	c2.23-2.19,4.82-5.5,5.78-7.34c1.59-3.08,1.55-3.73-0.47-7.79c-1.2-2.43-2.58-4.42-3.07-4.42c-0.48,0-0.87-0.66-0.89-1.46
	c-0.02-1.72-2.65-3.45-12.77-8.42c-11.12-5.46-18.33-4.81-25.2,2.27C617.88,577.61,617.44,584.01,622.08,592.19L622.08,592.19z
	 M612.99,576.11c1.41-6.76,9.26-15.24,15.22-16.45c11.84-2.42,26.27,3.22,38.43,15.03c10.57,10.26,10.8,17.04,0.95,27.57
	c-3.13,3.36-5.69,6.75-5.68,7.54c0.01,1.86-10.93,5.67-16.52,5.75c-6.32,0.09-11.66-2.48-19.63-9.49
	c-8.25-7.24-10.55-10.54-12.54-18C611.63,582.05,611.64,582.57,612.99,576.11L612.99,576.11z M618.06,772.02
	c5.13,2.65,12.76,1.2,37.54-7.13c17.38-5.84,17.27-5.8,20.75-7.92c11.07-6.82,16.14-10.85,24.51-19.58
	c13.65-14.22,14.19-14.6,29.35-20.15c7.5-2.75,15.95-6.11,18.8-7.48c6.51-3.14,20.62-17.8,27.61-28.7c2.93-4.58,6.15-9.02,7.13-9.86
	c3.28-2.8,6.12-10.22,7.3-19.05c1.55-11.65,0.61-15.86-3.97-17.8c-3.26-1.39-4.26-1.23-11.24,1.8c-6.39,2.78-9.56,5.3-19.07,15.17
	c-6.28,6.51-12.66,14.3-14.2,17.31c-13.12,25.82-15.67,29.81-22.91,35.83c-2.63,2.19-7.62,5.27-11.1,6.85
	c-3.47,1.58-7.34,3.35-8.61,3.93c-1.26,0.58-5.67,1.71-9.79,2.51c-8.25,1.6-14.56,3.63-22.09,7.12c-2.72,1.25-6.75,2.99-8.96,3.86
	c-2.43,0.95-9.61,7.3-18.09,16.02c-7.73,7.94-14.53,14.46-15.13,14.47c-0.58,0.01-3.11,1.35-5.62,2.99
	C615.15,765.56,614.14,770,618.06,772.02L618.06,772.02z M607.29,762.98c0.87-2.34,3.16-4.11,10.01-7.75
	c3.4-1.8,10.06-7.59,16.3-14.16c9.34-9.81,21.08-19.29,23.98-19.33c0.55-0.01,4.16-1.36,8.01-2.99c3.84-1.63,12.61-4.42,19.47-6.2
	c15.65-4.05,24.95-8.57,30.9-15.05c2.56-2.78,8.56-12.4,13.32-21.37c4.78-8.98,10.44-18.05,12.61-20.16
	c2.16-2.11,3.92-4.14,3.92-4.51c-0.03-1.7,13.54-14.95,18.73-18.3c3.19-2.05,6.91-4.9,8.27-6.32c8.67-9.05,26.98-0.46,27.37,12.84
	c0.23,8.35-1.37,19.19-3.47,23.24c-1.16,2.25-2.1,4.64-2.09,5.34c0.01,0.69-1.29,2.53-2.89,4.08c-1.61,1.55-4.41,5.2-6.24,8.1
	c-5.52,8.77-6.88,10.47-17.52,21.91c-10.61,11.41-18.78,16.7-31.48,20.41c-6.22,1.81-21.83,9.71-21.8,11.04
	c0,0.52-0.42,0.94-0.95,0.95c-0.53,0.01-4.98,3.97-9.91,8.8c-15.54,15.26-33.76,24.28-66.33,32.84c-13.31,3.5-17.35,3.72-23.96,1.36
	C608.38,775.92,605.24,768.49,607.29,762.98L607.29,762.98z M568.59,317.6c3.45,6.84,14.71,14.01,28.47,18.1
	c11.94,3.55,23.08,8.54,27.36,12.26c5.64,4.89,15.04,16.26,18.62,22.52c4.59,8.03,6.13,13.63,7.01,25.56
	c0.82,11.06,2.16,15.55,6.83,22.87c7.73,12.15,19.85,10.19,26.42-4.26c2.68-5.9,3.27-8.77,3.16-15.35
	c-0.16-9.78-1.76-14.34-7.61-21.86c-4.31-5.54-4.43-5.94-3.97-13.24c0.26-4.13,0.77-9.48,1.14-11.89
	c0.76-4.88-1.39-11.22-3.79-11.19c-0.83,0.01-2.84,0.54-4.44,1.18c-3.69,1.47-15.21-2.25-20.81-6.71
	c-4.45-3.56-11.73-13.59-16.78-23.14c-5.05-9.56-11.09-15.78-19.56-20.15c-6.79-3.51-8.17-3.8-17.77-3.67
	c-9.05,0.13-11.17,0.55-16.29,3.34c-3.24,1.75-6.96,4.65-8.25,6.45C565.17,302.8,565.28,311.04,568.59,317.6L568.59,317.6z
	 M560.66,296.85c1.64-3.36,3.32-6.12,3.73-6.13c0.42-0.01,2.27-1.35,4.12-2.99c1.84-1.64,6.98-4.14,11.41-5.56
	c7.32-2.34,8.96-2.47,17.78-1.43c14.31,1.69,23.93,6.85,31.99,17.15c1.69,2.16,6.4,9.6,10.47,16.53
	c8.07,13.75,8.25,13.93,17.5,18.32c5.52,2.62,6.83,2.84,9.94,1.66c5.99-2.27,8.22-1.7,12.53,3.2c4.77,5.4,5.88,10.17,3.9,16.64
	c-3.39,11.09-3.32,11.62,2.83,20.32l5.7,8.08l0.62,12.53c0.49,9.98,0.22,13.67-1.37,18.13c-5.67,15.98-16.37,23.65-28.53,20.45
	c-6.68-1.76-11.09-6.18-16.44-16.49c-3.76-7.24-4.42-9.76-5.45-20.84c-0.65-6.94-1.86-14.42-2.69-16.63
	c-1.48-3.95-6.76-11.67-8.48-12.4c-0.48-0.21-0.89-1.12-0.9-2.03c-0.02-2.05-9.59-11.14-15.65-14.89
	c-2.47-1.53-9.84-4.44-16.39-6.48c-6.54-2.03-14.47-5.08-17.63-6.76c-5.21-2.78-7.54-4.35-14.12-9.52c-3.37-2.64-6-9.21-6.96-17.33
	C557.78,303.79,558.02,302.28,560.66,296.85L560.66,296.85z M564.35,424.18c2.61,2.29,6.06,4.64,7.67,5.22
	c8.25,3,24.32-0.74,32.87-7.65c3.37-2.73,4.16-4.13,4.11-7.42c-0.07-3.92-0.36-4.18-10.07-8.8c-9.31-4.43-10.64-4.75-18.96-4.5
	c-11.92,0.35-18.3,3.4-19.69,9.43C558.74,417.22,559.56,419.98,564.35,424.18L564.35,424.18z M553.17,407.09
	c3.07-8.82,10.41-13.27,23.87-14.49c9.18-0.84,14.23,0.4,27.06,6.65c10.22,4.97,13.66,8.56,13.74,14.32
	c0.09,5.84-2.09,9.8-6.83,12.46c-2.13,1.19-3.87,2.49-3.86,2.9c0.02,1.42-13.64,7.1-20.28,8.43c-10.83,2.17-19.83-0.4-28.59-8.19
	C551.41,423.05,549.89,416.5,553.17,407.09L553.17,407.09z M555.14,482.69c7.65,3.56,16.18,3.06,34.87-2.03
	c9.48-2.58,16.77-2.55,27.1,0.16c12.55,3.28,23.83,10.41,35.81,22.61c19.11,19.5,26.46,27.65,31.55,34.98
	c6.13,8.86,14.1,14.97,22.3,17.1c10.25,2.68,14.4,0.37,14.68-8.17c0.12-3.77-0.36-5.18-2.11-6.18c-1.24-0.71-3.61-2.64-5.27-4.32
	c-1.65-1.67-7.73-5.33-13.49-8.15c-9.74-4.76-11.24-5.99-21.08-17.28c-5.82-6.67-18.51-19.95-28.19-29.49
	c-15.95-15.71-18.32-17.6-25.17-20.13c-15.65-5.79-16.12-5.87-33.62-5.28c-16.43,0.54-21.54,1.52-31.87,6.13
	c-5.53,2.46-10.68,9.16-10.6,13.8C550.11,479.91,550.69,480.62,555.14,482.69L555.14,482.69z M544.06,470.88
	c6.96-14.9,22.49-21.75,51.24-22.57c12.35-0.36,15.01-0.07,24.32,2.73c13.44,4.03,23.53,9.41,29.17,15.56
	c2.46,2.68,10.93,11.54,18.81,19.7c7.89,8.15,17.01,17.96,20.3,21.8c7.56,8.88,10.15,10.81,21.1,15.79
	c11.93,5.41,16.35,8.86,19.11,14.85c2.19,4.76,2.22,5.41,0.61,12.26c-1.78,7.54-5.19,11.82-10.61,13.32
	c-4.8,1.32-20.21-2.59-25.18-6.41c-0.64-0.49-2.65-1.98-4.45-3.29c-1.81-1.31-6.17-6.36-9.68-11.23
	c-3.53-4.86-8.13-10.65-10.25-12.86c-2.11-2.21-8.6-9.03-14.41-15.16c-25.45-26.8-40.41-32.39-68.63-25.56
	c-15.38,3.72-23.75,3.71-32.61-0.02C542.88,485.54,540.04,479.49,544.06,470.88L544.06,470.88z M535.51,772.47
	c5.09,4.93,10.26,6.6,19.43,6.29c8.39-0.29,21.54-3.74,25.37-6.66c1.14-0.86,2.14-3.03,2.25-4.81c0.14-2.59-0.54-3.59-3.31-4.9
	c-4.09-1.91-6.35-4.44-6.44-7.24c-0.09-2.9-5.76-5.28-12.94-5.41c-11.27-0.21-18.49,3.16-24.18,11.27
	C531.73,766.67,531.7,768.76,535.51,772.47L535.51,772.47z M524.36,763.9c1.42-5,8.81-14.3,13.45-16.92
	c2.29-1.29,7.74-3.28,12.09-4.42c11.23-2.92,18.98-1.38,25.85,5.13c2.72,2.58,6.83,6.18,9.1,8.01c5.18,4.14,6.63,9.73,3.88,15.02
	c-3.56,6.86-18.14,12.47-35.41,13.61c-12.27,0.82-15.87-0.12-23.08-6.01c-2.98-2.43-7.35-9.31-6.9-10.87
	C523.42,767.29,523.86,765.68,524.36,763.9L524.36,763.9z M515.6,611.17c0.95,2.18,2.3,4.61,3.01,5.41c0.71,0.8,3.9,4.78,7.1,8.85
	c6.1,7.78,13.22,13.71,16.38,13.65c1.03-0.01,2.47,0.56,3.21,1.27c0.81,0.78,5.68,1.23,12.38,1.13c11.84-0.18,14.75-1.36,22.68-9.17
	c6.64-6.56,7.02-26.57,0.53-28.16c-1.27-0.31-2.31-1.28-2.33-2.16c-0.01-0.88-0.71-1.59-1.56-1.58c-0.84,0.02-3.19-1.96-5.19-4.37
	c-4.4-5.32-9.01-7.54-20-9.68c-10.56-2.05-15.12-1.97-23.12,0.42c-7.6,2.26-11.01,4.89-13.19,10.14
	C513.41,601.89,513.45,606.23,515.6,611.17L515.6,611.17z M507.25,593.94c5.93-13.64,22.23-19.58,44.25-16.12
	c13.32,2.1,27.34,9.97,28.31,15.91c0.22,1.29,1.31,2.77,2.43,3.3c1.12,0.52,2.95,1.38,4.08,1.91c4.22,2,6.78,8.27,6.83,16.84
	c0.08,10.68-1.61,15.42-7.71,21.79c-8.28,8.67-13.74,10.77-28.72,11.08c-9.8,0.2-13.52-0.18-16.21-1.63
	c-1.93-1.03-5.29-2.77-7.49-3.87c-4.97-2.48-15.32-12.47-17.63-16.99c-0.95-1.87-2.87-4.94-4.25-6.83
	C505.86,612.14,504.16,601.05,507.25,593.94L507.25,593.94z M486.37,304.11c1.62,2.29,4.54,4.31,7.89,5.45
	c11.27,3.85,17.86,1,21.93-9.5c2.27-5.86,2.29-6.26,0.35-9.14c-2.56-3.76-4.84-4.95-11.91-6.18c-7.92-1.38-14,0.34-17.81,5.02
	C483.01,294.42,482.86,299.15,486.37,304.11L486.37,304.11z M478.12,288.4c6.01-10.07,17.14-14.32,28.86-11.03
	c5.82,1.63,16.9,8.25,18.56,11.1c1.13,1.91-0.87,11.14-3.68,16.99c-2.86,5.94-9.41,12.22-13.73,13.15c-4.61,1-17.75-1.97-22.71-5.13
	c-4.42-2.81-9.71-12.17-9.78-17.31C475.61,294.23,476.73,290.74,478.12,288.4L478.12,288.4z M473.57,729.46
	c2.71,3.87,8.13,7.67,10.88,7.63c0.59-0.01,3.58-1.77,6.65-3.91c9.27-6.49,13.59-7.4,35.57-7.52c10.81-0.06,26.33,0.42,34.49,1.07
	c25.76,2.05,31,0.22,48.13-16.75c15.48-15.33,18.82-22.27,20.03-41.63c1.08-17.36,0.96-27.25-0.35-29.25
	c-0.56-0.86-3.33-1.79-6.15-2.06c-4.77-0.47-5.38-0.21-8.87,3.9c-2.06,2.42-5.22,7.86-7.01,12.09c-1.79,4.22-4.06,9.25-5.04,11.17
	c-0.98,1.93-3.08,6.12-4.66,9.33c-6.98,14.06-21.84,29.02-33.42,33.63c-7.94,3.16-22.53,3.4-31.69,0.55
	c-17.15-5.37-35.71-5.73-41.76-0.82c-1.64,1.33-4.42,2.45-6.17,2.47c-4.41,0.07-13.72,8.87-13.66,12.91
	C470.56,723.87,471.93,727.11,473.57,729.46L473.57,729.46z M463.25,715.44c1.05-1.6,2.81-3.61,3.92-4.46
	c1.11-0.85,3.68-3.14,5.72-5.09c5.72-5.47,9.02-6.82,22.24-9.06c10.73-1.83,13.67-1.92,23.42-0.73c6.14,0.75,13.26,2.28,15.81,3.4
	c7.39,3.22,22.8,2.62,30.11-1.16c4.69-2.44,13.77-10.74,21.26-19.44c1.57-1.82,9.48-18.21,15.25-31.6
	c3.47-8.04,10.64-17.36,13.4-17.4c0.88-0.02,1.59-0.58,1.58-1.25c-0.01-0.8,1.91-1,5.49-0.57c15.58,1.87,16.99,4.04,17.06,26.31
	c0.07,18.26-2.16,31.29-6.89,40.28c-1.95,3.69-3.93,6.71-4.42,6.72c-0.49,0-0.89,0.55-0.87,1.21c0.03,2.43-23.75,25.43-28.91,27.95
	c-9.08,4.44-19,5.43-38.96,3.91c-24.41-1.87-49.36-1.8-53.7,0.16c-1.86,0.84-5.44,2.91-7.96,4.61c-2.52,1.69-6.7,3.79-9.29,4.65
	c-5.03,1.67-8.22,0.75-13.88-4c-3.37-2.85-9.98-12.38-10-14.47c-0.01-0.96-0.56-2.06-1.19-2.44
	C460.74,721.94,461.08,718.77,463.25,715.44L463.25,715.44z M456.34,459.41c2.35,4.96,7.59,7.18,18.61,7.91
	c9.04,0.59,10.56,0.39,15.46-2.07c2.99-1.5,7.17-4.49,9.31-6.62c3.58-3.57,3.85-4.35,3.44-9.94l-0.44-6.06l-5.23-1.51
	c-2.88-0.84-10.2-1.52-16.28-1.53c-9.67-0.02-11.73,0.35-16.53,2.9C455.63,447.31,453.07,452.51,456.34,459.41L456.34,459.41z
	 M447.81,446.75c1.49-3.85,7.47-9.39,13.41-12.43c4.77-2.44,7.02-2.8,17.64-2.83c15.51-0.04,24,1.58,28.86,5.52
	c3.44,2.78,3.83,3.71,3.96,9.49c0.27,11.46-6.36,20.46-18.43,25c-4.71,1.78-8.12,2.13-17.25,1.83c-19.06-0.62-29.11-7.22-29.12-19.1
	C446.88,451.45,447.31,448.09,447.81,446.75L447.81,446.75z M451.43,541.03c0.54-0.01,1.35,3.23,1.78,7.2
	c0.95,8.59,3.85,17.01,6.55,18.98c1.07,0.78,3.37,1.39,5.11,1.36c2.87-0.03,3.33-0.67,4.91-6.72c5.7-21.76,15.49-31.2,32.53-31.34
	c8.68-0.07,27.89,5.84,43.56,13.4c15.93,7.69,25.63,8.57,40.81,3.68c11.62-3.74,18.65-9.4,18.57-14.95
	c-0.07-4.62-7.59-14.46-12.56-16.45c-5.17-2.07-8.12-1.88-16.11,1.03c-12.14,4.43-22.8,3.68-37.52-2.62
	c-3.52-1.5-7.45-3.16-8.72-3.67c-1.28-0.51-7.82-3.35-14.55-6.32c-10.83-4.78-13.29-5.42-21.65-5.67
	c-8.58-0.26-10.09,0.06-16.72,3.34c-12.04,5.98-22.46,18.44-25.53,30.56C450.25,539.35,450.15,541.04,451.43,541.03L451.43,541.03z
	 M445,527.83c1.7-5.61,6.03-13.39,7.46-13.41c0.57-0.01,1.03-0.68,1.02-1.48c-0.03-1.49,7.74-10.43,12.04-13.86
	c6.38-5.09,15.72-8.63,24.45-9.25c10-0.72,16.26,0.87,32.8,8.35c25.56,11.56,31.18,13.55,38.06,13.44
	c3.72-0.05,10.8-1.41,15.98-3.03c7.19-2.28,10.28-2.74,13.67-2.02c5.68,1.19,12.46,5.89,18.49,12.83c4.32,4.95,4.82,6.16,4.84,11.49
	c0.03,7.84-4.29,14.2-13.07,19.23c-8.25,4.74-24.49,9.71-29.79,9.12c-8.86-1-19.56-3.94-27.86-7.68
	c-18.41-8.28-31.35-12.51-37.74-12.33c-3.37,0.09-7.21-0.17-8.53-0.56c-1.82-0.55-3.7,0.51-7.67,4.28
	c-6.3,5.98-8.19,9.53-10.75,20.14c-2.47,10.25-5.44,13.51-12.52,13.76c-5.95,0.21-11.48-2.14-14.07-5.98
	c-2.64-3.9-5.47-14.02-7.01-25.07C443.18,534.26,443.19,533.85,445,527.83L445,527.83z M389.72,709.02
	c2.74,2.65,5.75,4.13,10.45,5.1c6.34,1.32,6.77,1.25,10.92-1.61c8.18-5.62,10.59-8.97,10.51-14.56c-0.15-9.7-7.29-14.68-16.8-11.7
	c-16.78,5.24-19.12,7.02-19.01,14.42C385.86,704.35,386.65,706.05,389.72,709.02L389.72,709.02z M378.71,692.75
	c2.41-5.54,9.13-10.62,17.33-13.12c2.76-0.85,6.39-1.97,8.06-2.52c1.67-0.55,3.76-0.55,4.63-0.01c0.88,0.53,2.8,0.95,4.3,0.94
	c4.91-0.04,10.46,3.4,13.39,8.31c6.4,10.72,4.78,17.76-6.61,28.9l-6.92,6.75l-7.81,0.12c-9.26,0.14-15.64-2.4-21.35-8.48
	C376.17,705.58,375.08,701.06,378.71,692.75L378.71,692.75z M384.2,557.07c3.84,7.15,16.74,13.91,26.61,13.93
	c6.02,0.02,7.03-0.33,9.48-3.26c1.99-2.38,2.72-4.64,2.63-8.14c-0.11-4.18-0.64-5.16-3.86-7.13c-2.94-1.8-3.68-2.96-3.43-5.38
	c0.28-2.76-0.22-3.22-4.69-4.36c-6.5-1.66-20.15-0.55-24.9,2.02c-2.96,1.59-3.72,2.73-3.68,5.5
	C382.38,552.18,383.22,555.25,384.2,557.07L384.2,557.07z M374.76,543.17c1.91-3.64,9.33-7.61,16.61-8.91
	c6.45-1.14,8.11-1.16,16.76-0.17c12.12,1.38,17.8,5.85,20.95,16.48c2.64,8.87,2.51,11.12-1.02,18.37c-2.4,4.92-4.09,6.75-8,8.67
	c-6.16,3.01-8.29,3.04-17.13,0.27c-14.35-4.49-21.72-9.7-26.72-18.83C372.8,552.79,372.34,547.79,374.76,543.17L374.76,543.17z
	 M382.4,444.67c0.94,3.33,3.62,8.62,5.95,11.77c2.33,3.14,4.24,5.98,4.24,6.31c0.01,0.33,1.36,2.58,3.03,5
	c3.92,5.74,7.34,14.47,9.63,24.55c1.01,4.46,2.87,10.36,4.14,13.11c2.26,4.92,2.41,5,7.86,4.9c5.71-0.11,13.73-3.18,16.03-6.11
	c0.71-0.9,1.62-3.81,2.01-6.45c0.87-5.84-1.8-12.46-10.79-26.84c-8.77-14.01-9.47-16.13-9.66-29.34
	c-0.16-10.82,0.1-12.19,4.01-21.45c7.19-17.02,18.78-26.88,31.84-27.07c7.42-0.11,16.36,1.58,20.12,3.8
	c1.29,0.76,5.21,1.98,8.71,2.71c3.51,0.73,10.75,2.5,16.09,3.94c5.34,1.43,12.03,2.57,14.86,2.52c4.52-0.07,5.74-0.69,9.98-5.06
	c2.65-2.75,5.7-6.43,6.75-8.19c4.16-6.91,3.03-25.85-1.87-31.35c-7.43-8.34-21.97-12.02-48.89-12.36
	c-19.12-0.25-20.8-0.09-30.62,2.85c-13.2,3.95-22.88,8.56-25.66,12.2c-1.19,1.56-2.68,2.86-3.29,2.87
	c-2.4,0.04-10.76,8.08-16.92,16.27c-6.57,8.74-11.5,19.52-14.43,31.57c-0.89,3.68-2.36,8.47-3.26,10.63
	C380.17,430.42,380.23,436.97,382.4,444.67L382.4,444.67z M373.96,423.11c1.38-4.16,3.65-11.48,5.03-16.26
	c2.26-7.87,9.15-22.98,11.14-24.45c0.44-0.33,1.63-1.85,2.64-3.38c1.02-1.54,4.48-5.6,7.68-9.03
	c19.03-20.37,39.57-28.81,71.23-29.28c29.23-0.44,48.73,4.65,59.07,15.4c3.89,4.06,6.51,14.84,6.02,24.85
	c-0.51,10.64-3.66,17.65-12.26,27.3l-5.41,6.06l-9-0.55c-5.68-0.35-17.28-2.79-31.48-6.63c-24.84-6.71-30.78-7.25-37.06-3.35
	c-5.75,3.56-14.97,13.45-14.93,16.02c0.01,1.16-0.31,2.47-0.72,2.9c-0.41,0.42-1.67,3.5-2.78,6.83
	c-3.92,11.67-1.79,23.42,6.43,35.51c2.35,3.46,6.13,9.64,8.38,13.74c3.56,6.48,4.11,8.52,4.2,15.55c0.13,10.92-2.51,16.52-9.45,20
	c-9.1,4.57-24.45,5.87-27.18,2.3c-3.78-4.96-6.73-12.38-9.11-22.96c-2.6-11.55-6.34-19.43-15.42-32.54
	C372.5,448.91,369.96,435.13,373.96,423.11L373.96,423.11z M323.69,589.44c4.03,3.64,7.61,5.44,10.72,5.4
	c1.33-0.02,3.32,0.42,4.43,0.98c1.12,0.56,6.21,2.6,11.33,4.54c10.32,3.91,23.44,10.99,26.39,14.24c1.06,1.17,4.97,7.28,8.7,13.58
	c8.05,13.61,11.88,17.77,19.2,20.8c15.42,6.4,23.53,6.94,47.1,3.12c24.15-3.91,32.29-6.38,38.34-11.63c3.2-2.77,3.64-3.86,3.55-8.91
	c-0.09-6.67-1.69-10.2-4.59-10.16c-1.12,0.02-2.7-0.6-3.51-1.39c-2.05-1.99-21.69-1.49-32.53,0.83
	c-11.83,2.53-18.52,2.24-29.98-1.33c-6.79-2.11-11.22-4.31-14.56-7.23c-2.63-2.3-6.63-5.39-8.88-6.85
	c-2.26-1.47-6.76-5.01-10.02-7.87c-10.8-9.46-21.47-16.68-32.68-22.13c-3.81-1.85-7.45-4-8.11-4.78c-0.66-0.78-4.18-1.97-7.83-2.64
	c-9.56-1.75-12.59-0.16-16.89,8.91c-1.87,3.93-3.39,7.71-3.38,8.39C320.48,585.97,321.93,587.83,323.69,589.44L323.69,589.44z
	 M315.5,574.47c3.78-8.64,7.37-12.44,14.11-14.95c5.92-2.21,11.07-1.53,18.25,2.38c2.89,1.57,8.63,4.59,12.78,6.69
	c4.14,2.12,8.34,4.52,9.33,5.37c1,0.84,3.61,2.41,5.83,3.49c2.21,1.07,4.62,2.54,5.35,3.23c0.73,0.71,4.66,4.09,8.74,7.52
	c4.08,3.44,8,6.81,8.71,7.49c0.71,0.69,2.54,1.89,4.06,2.67c1.52,0.79,4.98,3.41,7.7,5.85c3.22,2.87,7.55,5.21,12.37,6.68
	c13.64,4.18,16.82,4.34,29.96,1.6c6.66-1.38,15.59-2.53,19.84-2.53c14.81-0.03,28.54,7.53,29.13,16.03
	c1.09,15.66-6.87,25.15-25.29,30.15c-10.84,2.93-37,6.52-50.14,6.88c-4.84,0.12-25.99-5.74-30.22-8.38
	c-3.7-2.32-14.57-13.26-14.6-14.68c-0.02-1.8-11.06-18.99-13.51-21.06c-6.08-5.12-19.18-11.18-34.46-15.92
	C314.24,597.02,309.16,588.94,315.5,574.47L315.5,574.47z M310.43,446.91c1.44,4.6,2.99,8.34,3.46,8.34
	c0.46-0.01,2.05,3.22,3.53,7.17c1.48,3.95,3.92,10.28,5.43,14.07c1.51,3.8,3.61,11.13,4.67,16.31c2.18,10.71,9.61,23.74,14.19,24.88
	c5.95,1.5,9.64,0.59,13.86-3.39c5.63-5.31,5.44-8.68-1.23-21.96c-4.44-8.84-6.05-13.97-9.61-30.7c-2.36-11.05-4.97-23.94-5.81-28.64
	c-1.04-5.84-2.32-9.33-4.02-11c-1.38-1.35-3.26-3.83-4.19-5.53c-0.93-1.69-2.58-3.06-3.67-3.05c-3.76,0.06-10.88,3.86-15.14,8.08
	c-3.92,3.9-4.26,4.77-4.17,10.66C307.77,435.68,308.99,442.32,310.43,446.91L310.43,446.91z M301.06,423.54
	c2.74-6.21,8.89-12.33,15.49-15.4c3.51-1.63,7.28-3.45,8.37-4.05c3.69-2.01,6.64-1.18,10.78,3.09c5.59,5.75,10.82,15.76,11.86,22.71
	c1.26,8.41,7.97,39.23,10.27,47.13c1.08,3.75,4.01,10.63,6.51,15.29c6.71,12.5,6.17,18.73-2.45,27.92
	c-5.99,6.4-8.53,7.44-16.36,6.64c-4.83-0.49-7.33-1.52-10.94-4.52c-6.36-5.27-12.63-17.85-14.92-29.87
	c-0.99-5.22-2.34-10.45-3-11.64c-0.67-1.19-2.77-6.25-4.69-11.24c-3.36-8.73-7.58-18.31-9.95-22.61
	C299.99,443.28,299.33,427.48,301.06,423.54L301.06,423.54z M276.57,473.72c1.08,8.25,2.36,27.49,2.83,42.74
	c0.83,26.79,2.93,43.47,7.13,56.56c2.8,8.76,10.61,21.9,20.76,34.92c3.12,4,8.12,11.97,11.11,17.68
	c6.83,13.08,7.47,14.16,11.03,19.02c3.29,4.49,12.96,16.24,14.07,17.11c3.31,2.57,6.75,11.25,8.57,21.63
	c0.72,4.11,2.38,9.71,3.68,12.46s2.86,6.22,3.46,7.74c2.46,6.21,12.24,19.28,19.73,26.4c6.68,6.33,10.44,8.72,22.56,14.31
	c8,3.68,19.01,8.87,24.45,11.53c5.45,2.66,15.8,6.63,23.01,8.82c13.1,3.99,21.3,8.59,28.24,15.87c1.61,1.69,6.08,4.92,9.93,7.16
	c3.85,2.25,7.68,4.74,8.52,5.53c1.82,1.73,12.33,4.81,16.21,4.76c1.51-0.03,3.75,0.47,4.96,1.09c2.67,1.38,17.76,3.96,31.27,5.34
	c5.41,0.55,14.03,1.93,19.13,3.06c5.18,1.16,16.26,2.29,25.09,2.58c15.56,0.51,16.09,0.44,32.09-3.91
	c15.91-4.32,23.59-7.42,32.72-13.2c3.27-2.07,6.96-3.1,13.25-3.7c10.36-1,17.42-2.56,23.68-5.21c6.78-2.89,20.55-10,21.22-10.98
	c0.97-1.41,8.33-6.83,12.87-9.46c10.57-6.13,13.02-7.67,23.85-14.93c6.31-4.23,11.94-7.7,12.52-7.71
	c3.87-0.07,23.97-26.43,31.12-40.81c1.07-2.17,6.01-8.25,10.97-13.52c11.34-12.06,11.53-12.34,16.92-25.88
	c6.17-15.46,6.19-15.58,13.74-45.13c1.47-5.72,2.65-13.01,2.63-16.23c0-3.22,0.34-8.24,0.78-11.15c0.43-2.92,0.36-12.61-0.17-21.52
	c-0.96-16.11-0.98-16.23-4.83-20.94c-2.13-2.6-5.41-8.89-7.29-13.96c-3.2-8.63-3.35-9.72-2.28-16.83c0.86-5.67,0.76-9.39-0.36-14.7
	c-1.35-6.35-2.7-22.06-3-34.83c-0.14-6.08-3.7-22.87-5.01-23.66c-0.57-0.34-1.31-2.93-1.65-5.76c-1.53-12.86-6.23-27.77-9.86-31.32
	c-1.44-1.41-3-3.72-3.46-5.15c-0.47-1.42-1.35-2.58-1.94-2.57c-0.59,0.01-1.09-0.76-1.1-1.72c-0.01-0.95-0.54-1.73-1.16-1.72
	c-0.62,0.01-1.5-1.36-1.95-3.05c-0.45-1.69-1.9-4.28-3.22-5.74c-1.32-1.48-3.17-4.85-4.11-7.5c-0.95-2.66-2.99-6.44-4.54-8.41
	c-1.55-1.97-2.83-4.22-2.84-5c-0.01-0.78-0.69-2.12-1.48-2.97c-0.81-0.85-2.78-3.65-4.38-6.2c-1.6-2.57-3.55-4.65-4.36-4.64
	c-0.8,0.01-2.03-1.99-2.74-4.47c-0.71-2.46-2.06-4.77-3.01-5.12c-0.96-0.35-1.75-1.69-1.77-2.98c-0.02-1.29-0.52-2.34-1.1-2.33
	c-0.58,0.01-2.25-1.92-3.69-4.28c-4.01-6.54-8.64-13.28-10.28-14.96c-0.81-0.83-1.48-1.99-1.48-2.58c-0.01-0.59-0.76-1.06-1.68-1.04
	c-0.91,0.01-2-1.01-2.42-2.27c-0.42-1.27-1.26-2.29-1.85-2.28c-0.59,0.01-1.09-0.77-1.1-1.72c-0.01-0.95-0.42-1.73-0.9-1.72
	c-0.48,0.01-1.59-1.54-2.46-3.43c-0.88-1.9-2.27-3.43-3.09-3.42c-0.83,0.01-1.8-1.02-2.14-2.29c-0.36-1.26-1.6-2.28-2.78-2.27
	c-1.17,0.01-3.71-1.02-5.63-2.27c-6.55-4.31-19.81-11.65-27.86-15.42c-4.42-2.07-9.71-5.01-11.78-6.53
	c-2.06-1.52-4.61-2.77-5.66-2.75c-1.05,0.01-1.92-0.43-1.93-1.01c-0.01-0.56-3.29-2.54-7.3-4.39c-7.5-3.45-19.68-6.6-36.85-9.5
	c-5.42-0.92-13.26-2.39-17.4-3.25c-8.91-1.88-23.28-1.8-41.62,0.22c-7.3,0.8-22.12,1.75-32.92,2.12c-18.5,0.62-35.41,3-41.82,5.86
	c-5.72,2.57-8.35,3.46-22.72,7.72c-25.18,7.47-27.43,8.22-33.36,11.01c-3.16,1.48-8.85,3.56-12.64,4.62
	c-12.95,3.57-38.01,16.23-46.48,23.47c-1.57,1.34-5.16,4.4-7.99,6.81c-2.82,2.41-9.8,9.12-15.52,14.93
	c-12.42,12.63-18.72,18.39-22.31,20.38c-1.46,0.81-4.74,3.44-7.29,5.84c-2.55,2.41-6.68,6.26-9.19,8.57
	c-2.51,2.31-5.78,6.26-7.27,8.78c-1.49,2.52-4.64,6.58-7.02,9.02c-2.37,2.45-4.31,4.81-4.3,5.27c0,0.45-1.33,2.41-2.99,4.34
	c-4.24,4.97-11.72,17.02-11.69,18.82c0.02,0.84-1.05,3.5-2.36,5.92c-3.57,6.59-8.62,23.64-9.63,32.53
	C274.36,455.51,274.42,457.33,276.57,473.72L276.57,473.72z M270.81,432.56c5.14-22.73,15.16-42.01,31.26-60.14
	c1.87-2.12,3.68-4.74,4.01-5.84c1.3-4.3,17.74-20.33,30.27-29.51c2.83-2.08,10.78-9.46,17.67-16.4c6.89-6.94,14.55-14.18,17.03-16.1
	c2.48-1.91,5.92-4.8,7.65-6.41c1.73-1.62,5.62-4.28,8.65-5.91c3.03-1.64,5.67-3.37,5.88-3.86c0.2-0.48,0.88-0.87,1.5-0.88
	c0.63-0.01,2.77-1.29,4.77-2.83c2-1.55,4.94-3.22,6.51-3.69c3.52-1.08,9.56-3.74,14.93-6.56c2.21-1.16,6.08-2.45,8.6-2.88
	c2.52-0.42,7.73-2.38,11.58-4.34c3.85-1.97,10.32-4.46,14.4-5.53c9.01-2.39,24.54-7.13,33.86-10.34c16.76-5.77,27.95-7.53,56.53-8.9
	c15.25-0.73,33.7-2.08,41-2.98c13.85-1.73,16.87-1.48,42.26,3.49c3.83,0.75,11.39,2.2,16.82,3.22c5.41,1.03,10.9,2.28,12.18,2.77
	c1.28,0.51,5.73,1.96,9.87,3.22c4.16,1.27,10.18,3.99,13.4,6.03c8.33,5.31,12.9,7.9,22.16,12.55c4.48,2.25,10.23,5.57,12.76,7.38
	c2.54,1.8,5.1,3.27,5.72,3.26c0.6-0.01,3.81,1.73,7.13,3.86c7.18,4.62,18.28,16.58,25.45,27.45c4.7,7.13,8.98,13.18,14.08,19.93
	c2.57,3.41,4.7,6.89,4.71,7.74c0.02,0.85,0.55,1.52,1.18,1.51c0.63-0.01,1.17,0.59,1.18,1.34c0.01,0.75,0.79,2.19,1.74,3.21
	c1.8,1.93,7.35,11.52,13.96,24.11c2.14,4.1,4.83,8.45,5.96,9.67c1.14,1.21,2.07,2.62,2.08,3.13c0,0.5,1.8,3.63,3.99,6.95
	c5.72,8.67,13.82,23.97,13.86,26.17c0.01,1.03,0.42,2.26,0.91,2.72c0.48,0.47,1.54,4.58,2.35,9.12c0.81,4.55,2.37,11.9,3.46,16.34
	c4.79,19.46,5.63,23.7,5.71,29.17c0.07,3.19,0.93,9.86,1.96,14.83c1.03,4.96,1.96,14.68,2.06,21.58
	c0.23,15.06,4.32,30.03,9.47,34.66c3.39,3.04,3.33,2.75,4.68,25.41c1.85,31.04-1.54,48.59-18.79,97.26
	c-3.44,9.68-4.32,11-14.6,21.69c-6.02,6.26-12.39,13.97-14.16,17.14c-10.62,19.01-26.08,40.21-29.34,40.26
	c-0.64,0.01-4.29,2.06-8.1,4.55c-10.35,6.73-18.99,12.13-24.14,15.05c-11.24,6.38-13.92,8.15-16.59,10.93
	c-1.57,1.64-4.92,3.99-7.43,5.24c-2.53,1.25-6.66,3.46-9.18,4.93c-7.34,4.24-19.82,7.89-31.95,9.33
	c-9.77,1.16-12.06,1.86-17.26,5.34c-6.49,4.32-14.17,7.22-33.05,12.45c-11.07,3.07-13.56,3.35-29.44,3.23
	c-10.51-0.07-19.18-0.7-22-1.61c-2.56-0.82-5.69-1.48-6.96-1.48c-10.03,0.03-58.68-9.12-66.37-12.49
	c-6.56-2.87-20.49-12.32-26.8-18.17c-6.64-6.17-9.29-7.43-26.58-12.7c-6.39-1.95-15.55-5.31-20.35-7.47
	c-11.95-5.38-32.32-14.64-37.19-16.89c-5.64-2.62-20.62-16.59-25.82-24.08c-2.41-3.46-5.57-8.88-7.05-12.03
	c-1.48-3.16-3.27-6.78-3.99-8.04c-2.12-3.72-5.73-15.83-5.79-19.4c-0.08-5.02-6.42-16.73-12.48-23.11
	c-7.01-7.37-12.89-15.91-19.29-28.03c-6.33-11.99-9.86-17.72-13.45-21.8c-3.12-3.54-3.64-4.27-10.84-15.46
	c-7.15-11.11-10.17-19.48-11.72-32.46c-0.72-6.1-1.84-12.94-2.48-15.19c-0.64-2.26-1.65-16.85-2.22-32.41
	c-0.58-15.58-1.62-31.94-2.29-36.39C268.28,465.15,268.52,442.66,270.81,432.56L270.81,432.56z M49.85,210.38
	c0.58,1.09,1.73,3.4,2.57,5.1c2.18,4.5,12.06,14.1,16.59,16.13c6.43,2.88,21.25,8.48,22.4,8.46c3.31-0.04,15.79,7.35,28.08,16.63
	c0.64,0.48,4.01,2.85,7.5,5.26c3.49,2.4,6.91,4.83,7.6,5.41c0.7,0.57,4.86,3.52,9.25,6.54c4.4,3.02,17.58,14.36,29.29,25.21
	c43.99,40.73,53.77,51.53,62.4,68.84c8.36,16.76,9.64,29.78,6.33,64.08c-1.08,11.14-2.2,24.17-2.5,28.94
	c-0.74,11.81-2.32,28.77-3.09,33c-0.38,2.1-2.74,5.5-5.93,8.54c-5.27,5.04-17.65,12.06-21.33,12.12c-1.07,0.01-2.81,0.51-3.88,1.1
	c-1.07,0.59-8.3,1.72-16.08,2.5c-14.28,1.44-39,0.22-49.8-2.46c-2.36-0.58-10.81-2.08-18.77-3.31c-7.97-1.23-17.63-3.14-21.45-4.25
	c-3.84-1.11-11.27-2.6-16.53-3.32c-7.98-1.1-10.04-1.04-12.52,0.33c-4.54,2.52-8.42,10.31-8.33,16.71
	c0.18,11.4,7.3,18.45,21.33,21.13c7.59,1.45,14.86-0.22,27.1-6.21c3.9-1.92,7.38-3.49,7.72-3.49c0.35-0.01,3.86-1.54,7.83-3.42
	c6.42-3.03,26.19-7.15,28.41-5.92c0.4,0.23,10.36,0.6,22.13,0.83c29.1,0.58,35.35,1.38,46.33,5.93
	c31.29,12.95,46.95,32.63,47.63,59.85c0.25,9.88-0.01,11.11-4.68,22.62c-4.43,10.93-5.79,13.04-13.28,20.58
	c-6.69,6.73-10.74,9.61-20.37,14.48c-6.61,3.34-12.5,6.07-13.1,6.08c-0.59,0.01-2.54,0.78-4.32,1.71
	c-1.79,0.92-7.23,3.63-12.11,6.01c-4.87,2.38-9.53,4.96-10.36,5.74c-1.57,1.49-5.69,4.07-12.03,7.54c-4.34,2.38-5.1,5.71-1.08,4.71
	c1.43-0.36,6.73-2.38,11.78-4.5c5.06-2.12,14.37-5.39,20.7-7.27c6.34-1.88,15.14-4.58,19.57-5.99c18.57-5.93,19.65-6.08,38.07-5.18
	c18.36,0.9,25.45,2.35,37.7,7.69c11.04,4.82,14.95,8.16,18.87,16.1c4.43,9.02,5.15,12.79,3.79,19.83c-0.61,3.14-1.41,7.28-1.79,9.19
	c-0.37,1.91-2.23,7.15-4.12,11.62c-2.89,6.81-4.94,9.5-12.44,16.38c-4.94,4.53-9.84,9.05-10.91,10.06
	c-8.86,8.37-38.33,27.03-42.89,27.16c-1.12,0.03-2.02,0.54-2.01,1.14c0.01,0.59-1.15,1.45-2.57,1.9c-3.7,1.19-8.88,6.4-10.67,10.77
	c-2.09,5.08-1.77,15.88,0.6,20.69c1.06,2.16,4.38,6.02,7.36,8.55c4.84,4.15,5.88,4.56,9.93,3.96c2.48-0.38,5.85-1.69,7.47-2.92
	c3.86-2.93,8.73-12.25,9.55-18.25c1.02-7.41,4.09-17.24,6.36-20.3c1.14-1.53,2.05-3.49,2.04-4.33
	c-0.04-2.07,13.41-17.34,18.93-21.51c10.02-7.57,13.03-8.73,27.99-10.82c10.04-1.4,24.54-0.07,31.79,2.91
	c4.81,1.98,16.06,9.72,16.82,11.57c0.22,0.56,1.58,2.15,2.99,3.52c1.41,1.37,5.08,5.59,8.15,9.35c3.08,3.77,6.05,7.42,6.62,8.11
	c0.57,0.7,2.49,4.31,4.29,8.03c10.97,22.79,11.44,25.02,8.05,38.04c-2.65,10.16-9.86,25.39-13.03,27.51
	c-0.71,0.48-4.29,4.95-7.94,9.92c-3.66,4.98-7.76,10.38-9.12,12.02c-2.31,2.77-5.31,7.03-13.36,18.98
	c-4.27,6.34-17.47,24.14-20.17,27.21c-1.12,1.28-2.32,3.51-2.66,4.96c-0.34,1.45-1.21,2.65-1.94,2.68c-0.72,0.03-3.87,3.58-6.99,7.9
	c-10.93,15.15-22.56,27.45-29.81,31.52c-21.16,11.89-24.82,16.08-25.96,29.77c-0.78,9.36,1.41,14.85,7.53,18.88
	c5.4,3.54,10.23,3.57,18.02,0.08c10.63-4.76,11.57-6.61,16-31.17c1.74-9.63,4-18.1,5.91-22.06c5.75-11.94,12.63-25.05,14.78-28.17
	c1.17-1.71,2.12-3.94,2.11-4.95c-0.01-1.02,0.49-1.85,1.13-1.87c1.36-0.02,7.13-6.45,14.58-16.25c6.19-8.12,23-27.88,35.99-42.26
	c5-5.54,10.62-12.17,12.47-14.73c4.88-6.73,15.06-16.72,19.84-19.5c2.27-1.32,6.63-3.88,9.68-5.71c9.04-5.41,16.3-6.73,29.37-5.4
	c6.17,0.64,14.87,2.2,19.35,3.48c17.63,5.02,36.11,9.56,47.29,11.6c8.7,1.6,9.13,1.82,13.23,7.24c4.74,6.24,7.94,15.15,10.73,29.74
	c1.03,5.39,2.5,12.65,3.27,16.13c0.91,4.16,1.37,16.12,1.31,34.67c-0.06,15.59,0.58,35.25,1.41,43.72
	c0.82,8.46,1.25,15.64,0.96,15.94c-0.3,0.3-0.56,3.51-0.58,7.14c-0.03,5.71-2.69,14.48-4.99,16.5c-2.77,2.43-8.94,13.72-8.9,16.28
	c0.14,9.31,5.32,14.25,14.89,14.21c5.33-0.03,6.47-0.49,10.16-4.14c7.76-7.68,10.69-16.98,8.32-26.39
	c-10.35-41.2-11.58-48.01-10.97-60.87c0.69-14.39,5.92-39.93,11.94-58.19c5.95-18.1,7.66-22.11,13.05-30.65
	c4.69-7.41,6.73-9.45,12.51-12.49c2.3-1.21,7.6-4.27,11.8-6.79c11.95-7.18,30.86-12.22,41.52-11.05
	c10.64,1.16,29.13,11.28,37.62,20.61c2.42,2.64,9.08,14.81,12.93,23.58c0.83,1.9,2.81,6.29,4.41,9.76c1.6,3.48,3.63,8.26,4.5,10.63
	c3.31,8.93,6.12,2.71,3.29-7.28c-4.74-16.71-8.65-35.6-8.74-42.22c-0.25-18.83,14.13-42.46,31.08-51.08
	c6.24-3.17,7.4-3.38,17.28-3.01c14.83,0.55,18.76,2.7,34.1,18.57c6.82,7.06,13.09,12.82,13.93,12.82c2.42-0.04,1.77-2.84-1.3-5.63
	c-5.36-4.89-9.98-22.94-11.42-44.55c-1.23-18.51-0.23-22.43,10.28-40.12c4.71-7.93,10.9-18.89,13.78-24.34
	c2.87-5.45,6.81-12.47,8.75-15.58c1.95-3.12,3.85-7.16,4.21-8.99c0.42-2.06,2.16-4.26,4.61-5.82c2.16-1.38,3.92-2.9,3.91-3.38
	c-0.01-0.49,2.62-2.37,5.85-4.19c8.8-4.96,17.56-5.46,29.33-1.66c10.06,3.24,13.59,5.26,28.15,16.06
	c13.67,10.13,19.69,17.18,32.04,37.47c2.72,4.45,6.49,9.54,8.39,11.31c3.23,3.01,3.91,3.17,10.59,2.46
	c8.25-0.87,10.23-2.44,10.94-8.66c1.1-9.52-7.95-22.86-20.81-30.64c-12.4-7.5-14.3-8.54-21.97-11.97c-4.02-1.8-9.63-4.8-12.46-6.68
	c-2.83-1.89-5.41-3.42-5.74-3.42c-2.73,0.04-17.08-11.81-17.12-14.12c-0.01-0.96-2.31-5.49-5.11-10.08
	c-12.46-20.43-16.38-39.12-17.46-83.31c-0.74-30.42-0.01-33.7,8.69-39.47c2.92-1.94,6.38-3.98,7.68-4.54
	c5.04-2.17,16.88-4.26,32.93-5.81c9.2-0.88,25.57-2.48,36.37-3.54c10.79-1.07,26.64-2.6,35.21-3.41c8.57-0.81,17.66-1.99,20.2-2.62
	c16.47-4.14,41.82-0.39,53.23,7.87c6.16,4.45,10.6,6.11,18.24,6.77c9.59,0.83,16.53-1.17,21.38-6.18c4.69-4.83,4.85-9.25,0.56-16.31
	c-3.28-5.41-11.9-13.01-14.71-12.96c-0.92,0.01-2.7-0.72-3.95-1.65c-4.71-3.45-16.35-1.21-32.71,6.28
	c-5.24,2.4-14.53,5.7-20.63,7.32c-19.33,5.16-29.34,5.88-71.76,5.22c-35.68-0.58-39.72-0.85-50.93-3.47
	c-6.7-1.57-13.83-3.57-15.85-4.45c-2.02-0.89-4.12-1.6-4.66-1.59c-0.54,0.01-3.62-1.69-6.83-3.78c-3.2-2.08-6.97-4.14-8.39-4.56
	c-2.9-0.87-14.36-12.63-18.68-19.18c-3.14-4.75-11.21-20.05-20.71-39.3c-5.47-11.08-6.23-13.45-6.19-19.41
	c0.06-7.2,2.63-14.75,7.01-20.5c4.57-6,13.78-15.85,20.23-21.64c3.45-3.09,7.79-6.99,9.65-8.65c1.85-1.66,10.75-8.77,19.78-15.81
	c17.8-13.9,29.23-20.23,54.16-30.05c13.86-5.45,23.09-10.14,26.15-13.27c2.57-2.64,5.81-11.36,5.76-15.53
	c-0.04-4.14-3.5-10.95-6.85-13.48c-4.07-3.07-17.29-0.48-23.95,4.7c-4,3.11-13.49,16.39-17.41,24.37
	c-3.01,6.13-17.63,21.41-25.13,26.26c-3.46,2.24-7,4.96-7.85,6.03c-0.86,1.07-2,1.96-2.55,1.97c-0.55,0.01-3.71,1.8-7.03,4
	c-3.32,2.19-11.97,7.17-19.21,11.07c-22.31,11.99-39.25,13.76-53.92,5.66c-15.03-8.29-23.03-27.34-17.7-42.13
	c1.09-3.01,2.28-5.74,2.66-6.06c0.38-0.33,2.2-2.7,4.06-5.27c3.58-4.96,11.8-13.17,19.37-19.37c2.51-2.06,6.37-5.61,8.56-7.91
	c4.62-4.82,15.14-12.11,17.54-12.15c0.9-0.02,3.54-0.85,5.86-1.86c2.31-1.02,8.47-2.43,13.68-3.14c5.2-0.71,11.94-2.15,14.98-3.19
	c6.06-2.08,12.77-8.34,13.85-12.93c1.76-7.47-11.09-17.15-24.13-18.17c-7.45-0.57-7.6-0.54-12.14,3.69
	c-3.13,2.92-6.59,8.46-10.84,17.37c-3.44,7.2-7.54,14.51-9.13,16.24c-7.42,8.14-21.52,15.36-35.63,18.24
	c-10.32,2.11-20.88,2.59-21.89,1.03c-0.37-0.58-3.34-1.36-6.6-1.77c-7.46-0.91-17.76-5.03-31.64-12.65
	c-12.71-6.97-30.3-22.52-34.02-30.07c-1.07-2.18-2.67-4.22-3.55-4.54c-2.46-0.9-6.62-10.09-7.97-17.6
	c-1.81-10.15,1.08-23.98,6.1-29.16c0.86-0.88,1.55-2.29,1.54-3.12c-0.01-0.84,2.27-4.97,5.07-9.19c2.79-4.22,5.08-8.12,5.07-8.67
	c-0.01-0.54,0.88-2.01,1.98-3.26c2.47-2.81,5.2-6.86,11.02-16.4c8.43-13.81,18.41-27.9,23.93-33.82
	c3.04-3.24,9.86-11.35,15.16-17.99c19.06-23.87,18.74-23.53,29.33-31.2c6.62-4.79,8.52-6.89,10.08-11.14
	c2.95-8.04,2.29-18.38-1.58-24.75c-3.65-6.02-6-7.51-11.71-7.42c-3.35,0.05-5.15,1.09-9.66,5.63c-6.27,6.32-7.8,10.69-10.49,29.94
	c-0.89,6.37-2.72,14.15-4.04,17.29c-3.65,8.57-12.07,22.67-17.61,29.47c-2.71,3.32-4.92,6.31-4.91,6.65c0.01,0.33-4,6.72-8.9,14.21
	c-8.74,13.35-12.69,18.53-24.93,32.69c-3.35,3.89-7.42,8.91-9.02,11.17c-11.39,16.03-37.75,39.84-50.4,45.52
	c-11.7,5.25-27.86,9.54-40.88,10.85c-6.25,0.63-10.06,0.29-16.78-1.46c-9.32-2.44-29.09-10.96-29.11-12.56
	c-0.01-0.52-0.64-0.95-1.39-0.94c-3.94,0.06-13.96-14.26-15.6-22.31c-2.83-13.82-4.33-42.63-3.46-66.25
	c0.22-5.87-0.38-13.34-1.52-19.06c-1.04-5.18-2.54-15.43-3.34-22.8c-1.31-12.17-1.25-13.8,0.62-17.9c1.13-2.48,3.72-6.03,5.77-7.88
	c6.04-5.46,11.69-14.22,11.64-18.01c-0.14-9.35-6.37-17.36-16.22-20.88c-7.3-2.61-9.57-2.22-19.89,3.38
	c-8.96,4.87-11.09,6.67-15.11,12.8c-6.92,10.54-4.98,17.76,8.23,30.54c4.81,4.66,8.78,9.13,8.81,9.93c0.03,0.79,0.5,1.43,1.03,1.43
	c2.35-0.04,9.82,18.36,11.71,28.83c4.04,22.47,1.9,57.35-4.81,78.15c-2.59,8.05-15.91,34.06-20.96,40.93
	c-5.13,6.99-13.81,12.37-29.29,18.13c-10.92,4.07-16.23,4.46-25.86,1.92c-5.12-1.36-8.29-3.18-12.91-7.42
	c-3.35-3.08-8.07-7.14-10.47-9.01c-4.58-3.55-10.5-10.7-22.99-27.74c-4.12-5.62-9.6-12.82-12.18-16
	c-5.63-6.93-27.73-35.56-35.66-46.19c-3.12-4.17-6.57-8.62-7.68-9.88c-1.11-1.25-6.9-8.5-12.86-16.09
	c-5.97-7.6-16.33-19.18-23.03-25.74c-14.18-13.88-17.75-20.22-15.04-26.61c0.85-2.01,1.52-6.61,1.49-10.22
	c-0.07-8.21-2.46-11.61-11.22-15.97c-13.76-6.84-27.44-1.7-30.99,11.66c-1.7,6.38,1,12.82,7.23,17.29c2.52,1.81,4.61,3.68,4.63,4.15
	c0.02,0.48,0.58,0.87,1.26,0.86c6.21-0.09,43.69,34.58,56.57,52.32c4.33,5.98,10.14,13.8,12.91,17.39
	c12.46,16.12,26.35,33.65,28.27,35.68c1.16,1.22,2.12,2.59,2.12,3.06c0.01,0.47,0.72,1.54,1.58,2.37
	c7.25,7.03,25.63,37.92,25.71,43.21c0.03,1.23,0.51,2.42,1.08,2.61c1.98,0.7,3.9,20.07,2.7,27.24c-1.34,7.99-3.54,11.89-10.77,19.13
	c-9.07,9.08-13.81,11.01-27.36,11.16c-10.08,0.11-12.43-0.26-18.25-2.89c-6.63-2.99-10.92-6.07-17.78-12.81
	c-1.98-1.94-7.61-6.66-12.53-10.48c-11.94-9.29-21.73-19.84-25.55-27.56c-2.88-5.83-3.11-7.31-3-19.39
	c0.12-13.01,0.11-13.08-3.22-16.31c-6.28-6.09-16.15-7.17-22.95-2.5c-6.18,4.25-7.29,6.07-7.21,11.81
	c0.1,6.46,5.09,13.83,14.58,21.51c16.75,13.57,24.57,22.25,31.38,34.79c3.59,6.63,8.31,14.62,10.49,17.77
	c9.06,13.07,11.91,19.44,13.89,31c0.7,4.05,0.03,6.18-5.52,17.43c-7.1,14.4-13.31,23.51-20.87,30.55
	c-6.16,5.73-8.93,7.32-16.56,9.47c-12.97,3.67-23.71,1.86-31.79-5.34c-2.98-2.65-7.25-5.49-9.48-6.31
	c-2.24-0.82-5.12-2.36-6.41-3.44c-1.29-1.07-4.18-2.84-6.4-3.93c-2.24-1.09-8.56-6.22-14.05-11.39
	c-10.36-9.78-32.2-27.82-48.11-39.75c-5.05-3.79-11.7-9.16-14.8-11.92c-3.08-2.77-7.91-6.82-10.7-9.01c-2.8-2.18-6.75-5.38-8.78-7.1
	c-2.03-1.73-7.65-5.4-12.48-8.16c-4.83-2.77-10.44-6.46-12.48-8.22c-4.34-3.76-9.02-12.32-11.51-21.03
	c-3.3-11.59-5.09-15.1-10.32-20.25c-11.78-11.59-28.79-13.59-35.2-4.14C48.48,197.54,48.14,207.13,49.85,210.38L49.85,210.38z
	 M36.89,746.76c1.27,3.15,8.17,5.09,17.62,4.95c8.07-0.12,10.09-0.6,15.95-3.79c3.68-2.01,7.99-4.86,9.56-6.34
	c1.57-1.48,5.3-4.39,8.3-6.48c3-2.08,6.34-4.74,7.43-5.91c3.4-3.65,15.27-11.42,26.6-17.43c5.99-3.18,11.15-6.05,11.46-6.39
	c0.31-0.34,1.98-1.54,3.72-2.68c3.09-2.04,4.28-5.51,1.86-5.47c-1.69,0.03-24.38,9.68-25.72,10.95c-0.59,0.55-1.74,1.03-2.55,1.04
	c-0.81,0.01-4.3,1.36-7.75,3.01c-10.44,4.97-12.38,5.6-21.96,7.19c-8.1,1.34-10.23,1.29-17.35-0.43
	c-10.75-2.58-19.24-2.46-22.59,0.35c-4.37,3.65-6.81,11.47-5.95,19.15C35.92,742.18,36.55,745.91,36.89,746.76L36.89,746.76z
	 M29.17,726.84c0.65-2.77,2.77-6.89,4.7-9.18c6.49-7.67,13.51-9.02,29.91-5.76c8.66,1.72,9.71,1.7,18.91-0.33
	c5.35-1.19,10.73-2.68,11.94-3.31c1.21-0.62,3.22-1.67,4.48-2.33c1.25-0.66,2.82-1.19,3.5-1.21c0.67-0.01,4.56-1.65,8.66-3.63
	c4.09-1.99,9.06-3.97,11.05-4.4c1.98-0.42,4.56-1.75,5.72-2.94c1.15-1.18,2.74-2.17,3.54-2.19c0.79-0.01,4.54-1.63,8.33-3.59
	c3.78-1.96,7.79-3.58,8.9-3.6c1.11-0.01,2.01-0.55,2-1.18c-0.01-0.64,0.62-1.16,1.39-1.18c1.56-0.02,21.05-11.31,23.96-13.88
	c1.83-1.62,31.31-17.02,32.6-17.04c0.38,0,3.5-1.35,6.95-2.99c3.45-1.64,6.66-2.99,7.11-3c1.37-0.01,11.13-5.3,11.53-6.25
	c0.21-0.48,1.08-0.89,1.96-0.9c2.82-0.04,17.28-15.67,20.31-21.98c2.98-6.19,6.18-19.75,6.09-25.84c-0.08-5.37-6.11-22.01-9.9-27.35
	c-5.15-7.25-16.27-17.33-19.07-17.3c-0.83,0.02-2.11-0.69-2.86-1.56c-0.74-0.87-4.48-2.7-8.29-4.06c-3.81-1.36-6.95-2.86-6.95-3.32
	c-0.04-2.66-50.47-5.83-68.67-4.32c-5.61,0.46-11.85,1.61-13.84,2.54c-1.99,0.93-5.7,2.37-8.24,3.19c-2.53,0.81-8.09,3.29-12.33,5.5
	c-19.76,10.26-38.03,10.08-49.06-0.48c-6.86-6.56-10.32-14.31-9.58-21.46c0.81-7.92,4.43-14.41,10.63-19.11
	c4.49-3.4,6.37-4.1,11.19-4.14c5.97-0.06,6.83,0.09,30.13,4.46c17.26,3.24,32.84,5.6,51.42,7.77c11.85,1.38,17.11,1.43,30.37,0.24
	c15.43-1.37,16.4-1.62,25.71-6.4c11.55-5.94,14.71-9.44,13.58-15.04c-0.56-2.78-0.26-4.5,1.04-6c2.24-2.55,3.81-11.29,4.87-27.11
	c0.44-6.52,1.53-22.25,2.45-34.94c1.57-22.08,1.54-23.57-0.6-34.11c-1.45-7.1-3.43-12.96-5.6-16.5c-1.84-3.03-3.35-5.92-3.36-6.44
	c-0.01-0.51-1.87-3.29-4.14-6.18c-2.27-2.88-4.13-5.55-4.13-5.93c-0.01-0.65-10.05-11.21-19.98-21.03
	c-2.27-2.23-9.56-8.92-16.23-14.86c-6.67-5.94-14.62-13.1-17.66-15.91c-13.6-12.57-22.75-20.47-23.67-20.46
	c-0.56,0.01-1.94-0.72-3.07-1.63c-1.14-0.9-5.48-4.07-9.66-7.05c-4.18-2.99-8.29-6.07-9.16-6.87c-0.85-0.8-2.69-2.04-4.08-2.76
	c-1.4-0.72-6.21-3.93-10.72-7.12c-5-3.56-11.35-6.82-16.32-8.38c-15.7-4.94-26.96-10.7-33.39-17.11
	c-6.83-6.8-9.59-12.05-11.76-22.39c-1.37-6.53-1.3-7.56,0.86-12.16c3.65-7.74,9.1-10.81,19.23-10.84
	c12.44-0.03,17.28,1.99,26.3,10.94c5.2,5.17,7.9,9.82,13.31,22.93c6.37,15.41,8.09,17.38,20.52,23.45c4.23,2.06,8.38,4.41,9.23,5.23
	c0.86,0.81,1.9,1.48,2.33,1.48c0.43-0.01,2.89,1.82,5.47,4.07c2.58,2.25,7.28,6.2,10.45,8.8c3.18,2.6,7.91,6.51,10.52,8.7
	c2.61,2.18,5.28,4.33,5.94,4.78c0.65,0.44,6.1,4.78,12.1,9.65c6,4.86,13.38,10.76,16.38,13.13c5.17,4.06,9.86,8.06,28.61,24.38
	c4.34,3.78,10.9,8.51,14.59,10.52c3.69,2,8.56,5.06,10.81,6.78c2.26,1.73,7.2,4.7,10.98,6.61c11.26,5.71,23.97,4.4,32.92-3.36
	c10.85-9.41,25.73-36.54,25.22-45.97c-0.24-4.62-6.29-19.01-8.68-20.68c-1.75-1.22-8.04-11.32-12.47-20.03
	c-6.35-12.46-10.87-18.27-20.95-26.9c-14.58-12.47-24.56-22.03-26.13-25.01c-2.51-4.76-3.28-11.2-1.97-16.43
	c1.41-5.64,3.16-8,9.46-12.76c3.92-2.96,5.44-3.38,12.66-3.47c9.79-0.12,16.83,2.53,22.4,8.43c4.16,4.4,5.28,9.56,5.13,23.62
	c-0.1,10.96,3.73,17.98,15.87,29.06c5.19,4.74,11.89,10.5,14.89,12.81c3,2.31,7.9,6.27,10.9,8.79c7.95,6.67,8,6.7,15.34,9.54
	c8.05,3.12,18.2,2.61,25.75-1.29c5.08-2.62,11.86-9.7,14.64-15.29c2.3-4.63,2.06-24.04-0.39-31.72
	c-1.97-6.11-9.91-20.81-14.75-27.28c-4.74-6.33-37.41-48.06-40.15-51.29c-1.33-1.57-5.71-7.23-9.72-12.57
	c-4.01-5.35-7.6-9.97-7.97-10.28c-0.37-0.31-2.15-2.7-3.98-5.29c-1.81-2.6-8.42-9.66-14.68-15.69c-6.26-6.04-13.1-12.74-15.18-14.89
	c-2.09-2.15-8.14-6.72-13.45-10.14c-19.13-12.33-23.91-18.39-22.83-28.9c0.75-7.33,1.9-9.69,7.95-16.4
	c7.17-7.92,17.73-10.43,28.9-6.86c8.37,2.68,13.31,6.33,17.7,13.06c4.22,6.48,5.08,12.55,2.91,20.8
	c-1.6,6.12,1.65,11.67,13.52,23.11c8.59,8.27,19.49,20.77,26.07,29.91c1.3,1.8,3.55,4.37,5,5.71c1.46,1.34,2.65,2.9,2.66,3.48
	c0.01,0.89,2.34,3.88,11.26,14.43c0.94,1.11,1.71,2.48,1.72,3.05c0.01,0.58,0.47,1.21,1.02,1.42c1.52,0.56,18.92,22.94,39.85,51.25
	c11.23,15.19,23.75,30.27,27.27,32.84c2.33,1.69,5.78,4.77,7.68,6.85c9.71,10.62,23.09,10.28,44.65-1.15
	c11.12-5.9,16.15-11.59,21.2-24.05c1.66-4.08,3.61-8.21,4.34-9.18c4.86-6.38,7.51-14.36,11.05-33.3c2.16-11.58,2.6-17.56,2.35-31.92
	c-0.53-30.53-4.88-43.97-18.87-58.36c-4.15-4.26-7.54-8.33-7.55-9.05c-0.01-0.71-0.55-1.29-1.17-1.28
	c-0.64,0.01-1.18-0.77-1.18-1.72c-0.01-0.95-0.49-1.73-1.06-1.72c-1.16,0.02-4.16-6.76-5.46-12.33c-1.26-5.44,3.4-15.21,10.82-22.66
	C515.55,2.27,530.31-2.55,542.53,1.3c6.23,1.97,15.48,8.83,15.53,11.52c0.01,0.91,0.55,1.63,1.17,1.62
	c0.64-0.01,1.18,0.64,1.19,1.43c0.02,0.8,0.9,3,1.96,4.89c1.06,1.89,2.03,5.78,2.14,8.64c0.23,5.68-1.35,8.54-10.48,18.89
	c-8.69,9.86-9.42,11.72-8.42,21.74c0.48,4.83,1.8,12.67,2.95,17.42c1.67,6.98,2.1,13.68,2.18,34.66
	c0.06,14.31,0.75,32.76,1.54,41.02c2.36,24.55,6.42,31.39,23.11,38.92c18.67,8.42,30.68,9.95,46.89,5.95
	c28.22-6.97,45.95-18.6,66.59-43.66c4.15-5.06,12.4-15.04,18.32-22.2c5.93-7.16,16.01-21.11,22.41-30.99
	c6.4-9.87,12.05-18.13,12.57-18.36c0.51-0.22,0.92-0.85,0.91-1.4c-0.01-0.55,1.2-2.36,2.71-4.02c4.96-5.53,13.94-23.15,15.14-29.73
	c2.81-15.46,3.33-18.85,3.28-21.79c-0.08-5.6,8.96-22.34,12.1-22.38c0.59-0.01,2.05-1.13,3.24-2.48c7.15-8.14,16.29-6.83,26.21,3.77
	c4.35,4.64,6.06,10.05,6.19,19.56c0.16,12.32-2.47,21.52-7.27,25.39c-2.01,1.62-7.38,5.93-11.94,9.57c-4.55,3.65-8.27,7.2-8.26,7.89
	c0.01,0.69-1.9,3.44-4.24,6.13c-2.34,2.68-5.54,6.44-7.1,8.35c-1.56,1.91-5.63,6.88-9.03,11.07c-3.41,4.17-8.37,9.96-11.02,12.86
	c-2.66,2.9-6.71,8.17-9.02,11.7c-2.29,3.53-5.55,8.26-7.21,10.51c-1.67,2.26-4.89,7.5-7.17,11.68c-3.9,7.12-9.86,16.27-16.73,25.69
	c-4.45,6.11-8.36,14.83-10.33,23.08c-2.17,9.07-2.16,9.85,0.19,15.05c1.04,2.31,2.67,5.92,3.62,8.04
	c4.92,10.91,23.84,28.55,39.17,36.5c17.37,9.02,24.29,11.19,40.84,12.82c13.8,1.37,34.71-6.96,43.64-17.36
	c2.43-2.83,4.4-5.86,4.38-6.72c-0.01-0.86,0.5-1.58,1.14-1.59c0.63-0.01,1.14-0.83,1.13-1.81c-0.03-1.73,3.43-8.77,7.57-15.41
	c3.63-5.83,7.61-9.83,12.19-12.26c9.53-5.06,26.18-0.71,37.36,9.77c4.54,4.26,5.12,5.38,5.2,9.97c0.04,2.84-0.37,6.38-0.91,7.86
	c-2.8,7.63-16.46,16.77-27.28,18.26c-8.82,1.2-21.95,5.33-27.99,8.78c-3.07,1.75-8.83,6.35-12.81,10.22
	c-3.99,3.87-9.5,8.89-12.25,11.16c-8.14,6.72-15.11,15.17-18.3,22.21c-5.34,11.81,2.33,28.81,15.96,35.37
	c9.98,4.79,28.3,4.02,37.37-1.57c1.93-1.19,6.83-3.96,10.89-6.15c10.73-5.77,19.97-11.74,29.7-19.16
	c15.21-11.6,15.71-12.17,29.91-34.6c7.76-12.26,7.79-12.29,15.82-18.99c7.6-6.33,15.72-8.79,25.2-7.62
	c4.36,0.53,6.59,1.54,8.94,4.07c4.78,5.13,7.28,10.21,7.36,14.95c0.08,5.66-4.57,18.95-7.93,22.66c-2.64,2.9-11.88,9.8-13.17,9.82
	c-0.37,0.01-3.84,1.55-7.7,3.44c-3.87,1.88-9.35,4.39-12.19,5.56c-2.85,1.18-9.04,4-13.78,6.29c-4.74,2.27-10.29,4.89-12.35,5.8
	c-6.23,2.77-25.83,17.36-36.59,27.24c-2.97,2.73-5.77,4.98-6.22,5.01c-0.89,0.05-2.09,1.17-15.65,14.68
	c-11.37,11.33-17.02,21.51-16.94,30.51c0.04,3.92,17.47,39.75,24.34,50.06c4.41,6.61,12.36,15.73,16.21,18.57
	c10.33,7.64,23.13,12.91,39.35,16.18c9.48,1.92,16.59,2.24,50.92,2.3c37.85,0.07,40.52-0.05,52.09-2.6
	c13.06-2.88,23.46-6.47,32.68-11.29c6.69-3.51,20.14-6.98,27.4-7.09c5.39-0.08,10.61,1.88,16.73,6.27c2.05,1.47,4.05,2.67,4.46,2.66
	c0.4-0.01,2.57,1.35,4.83,3.02c5.79,4.28,9.86,12.53,9.98,20.23c0.08,5.37-0.4,6.77-3.6,10.44c-5.75,6.59-11.46,9.1-21.02,9.25
	c-11.2,0.17-20.82-1.64-26.16-4.9c-6.37-3.88-23.35-8.39-33.53-8.9c-4.78-0.24-13.61,0.23-19.64,1.03
	c-16.47,2.2-58.48,6.69-76.77,8.2c-39.55,3.28-52.33,7.36-56.66,18.06c-3.06,7.56,1.09,63.78,6.02,81.67
	c2.35,8.53,5.59,15.41,12.92,27.48c7.98,13.14,10.7,15.27,33.69,26.31c4.81,2.31,9,4.46,9.33,4.78c0.32,0.33,3.47,2.06,7,3.86
	c9.88,5.04,15.76,9.23,19.62,13.94c13.33,16.34,15.59,34.24,5.03,39.93c-5.09,2.74-12.7,3.88-18.79,2.84
	c-5.82-1.01-15.44-10.61-22.88-22.87c-9.2-15.13-20.61-26.42-37.2-36.77c-20.46-12.77-35.02-12.05-44.64,2.19
	c-2.49,3.68-6.06,8.42-7.93,10.54c-1.88,2.12-6.1,9.29-9.38,15.92c-5.15,10.42-13.89,25.84-16.76,29.58
	c-0.5,0.64-2.11,3.79-3.58,6.99c-6.73,14.59-1.8,54.3,8.31,66.89c4.17,5.19,21.17,21.88,32.53,31.93
	c10.21,9.03,13.19,14.67,12.73,24.14c-0.29,6.03-0.99,8.05-4.27,12.49c-4.8,6.49-9.63,9.05-17.28,9.18
	c-6.73,0.09-9.61-1.12-14.26-6.03c-6.55-6.92-9.38-14.87-10.57-29.63c-0.63-7.96-1.79-14.8-2.83-16.73
	c-1.87-3.49-12.52-15.11-20.07-21.9c-2.52-2.27-6.21-5.85-8.22-7.96c-7.06-7.47-11.95-9.61-22.9-9.97
	c-7.81-0.27-10.76,0.09-13.85,1.7c-4.7,2.46-14.76,12.26-14.72,14.35c0.01,0.82-0.5,1.5-1.14,1.5c-0.64,0.01-3.03,4.08-5.33,9.04
	c-3.91,8.47-4.16,9.7-4,20.01c0.12,8.18,1.03,14.22,3.57,23.65c1.87,6.96,4.17,16.3,5.1,20.74c0.94,4.44,3.91,14.27,6.61,21.87
	c2.69,7.59,4.93,14.67,4.96,15.73c0.02,1.06,0.81,3.39,1.74,5.18c0.93,1.79,3.57,7.38,5.88,12.43
	c11.89,26.06,15.06,31.69,23.91,42.54c9.38,11.49,10.06,12.38,10.08,13.25c0,0.48,1.45,3.86,3.2,7.5
	c2.12,4.41,3.63,10.17,4.51,17.19c1.16,9.12,1.07,11.25-0.61,15.86c-2.09,5.73-7.36,10.11-12.23,10.19
	c-4.64,0.08-14.95-5.75-21.89-12.35c-7.69-7.32-12.5-17.7-13.88-29.94c-1.99-17.7-6.59-41.82-10.1-52.98
	c-0.89-2.85-2.01-7.51-2.48-10.37c-0.46-2.85-1.49-6.21-2.28-7.48c-0.79-1.27-4.04-9.79-7.23-18.97
	c-3.19-9.18-6.49-18.23-7.34-20.13c-0.84-1.89-4.37-9.81-7.83-17.6c-7.09-15.94-13.4-26.05-19.63-31.45
	c-5.06-4.38-15.14-9.85-18.04-9.81c-1.15,0.02-2.42-0.48-2.82-1.11c-0.4-0.63-2.52-1.12-4.71-1.09c-2.22,0.03-3.99-0.52-4-1.26
	c-0.04-2.34-15.99-0.03-25.38,3.68c-16.82,6.65-35.54,20.24-35.45,25.74c0.01,0.95-0.45,1.74-1.03,1.75
	c-2.56,0.03-10.65,24.02-16.08,47.64c-3.6,15.7-4.33,41.25-1.53,53.79c1.13,5.07,2.47,9.73,2.99,10.36
	c0.51,0.63,1.84,6.39,2.95,12.8c1.1,6.41,2.56,13.06,3.24,14.77c2.59,6.52,1.69,15.86-2.34,24.18
	c-5.38,11.11-12.19,16.02-22.43,16.17c-11.35,0.18-17.81-4.64-20.15-15.01c-1.69-7.52-0.36-13.41,4.66-20.58
	c8.09-11.53,9.8-21.38,6.77-38.96c-1.68-9.74-2.01-17.63-1.87-43.42c0.15-25.75-0.15-32.8-1.64-38.48
	c-1.01-3.83-2.36-10.07-3.01-13.88c-3.2-18.84-9.84-30.77-18.21-32.68c-2.08-0.47-7.44-2.2-11.92-3.84
	c-4.47-1.62-11.53-3.65-15.67-4.48c-4.14-0.84-10.94-2.48-15.09-3.65c-9.7-2.72-26.13-5.49-32.08-5.4
	c-14.13,0.22-31.21,11.55-46.35,30.77c-5.04,6.4-7.8,9.69-13.27,15.81c-2.3,2.58-5.92,6.96-8.03,9.76
	c-5.44,7.19-7.73,9.93-15.18,18.14c-3.62,3.99-9.17,11.05-12.33,15.71c-3.17,4.66-6.14,8.48-6.6,8.49
	c-1.24,0.01-12.82,18.22-16.7,26.27c-8.33,17.26-9.73,22.23-13.43,47.61c-1.11,7.62-2.47,10.92-6.18,14.94
	c-4.79,5.19-12.43,8.07-23.69,8.91l-9.98,0.76l-5.13-4.99c-16.12-15.66-8.27-42.04,17.13-57.53c13.18-8.03,16.6-11.74,39.15-42.42
	c7.4-10.07,10.69-14.4,13.9-18.3c1.61-1.96,4.47-5.92,6.37-8.81c1.9-2.9,4.54-6.27,5.87-7.5c1.34-1.23,2.41-2.93,2.4-3.79
	c-0.02-0.85,0.43-1.56,0.99-1.57c0.56-0.01,1.62-1.53,2.35-3.38c0.73-1.85,2.21-4.34,3.27-5.55c1.07-1.19,3.87-4.8,6.24-8.02
	c2.36-3.22,6.3-8.05,8.75-10.75c9.51-10.47,17.94-30.32,17.78-41.84c-0.06-4.65-1.16-8.01-5.03-15.53
	c-5.76-11.17-8.66-15.03-21.87-29.14c-10.91-11.67-17.39-15.45-28.95-16.9c-18.46-2.34-35.25,1.32-43.01,9.37
	c-12.58,13.06-18.56,22.73-21.07,34.13c-3.87,17.56-6.96,25.1-12.25,29.89c-4.93,4.46-7.96,5.37-16.22,4.8
	c-5.74-0.39-6.89-0.96-12.19-6.03c-3.22-3.07-7.03-7.92-8.48-10.76c-5.39-10.56-2.67-28.24,5.46-35.56
	c1.59-1.43,8.49-5.58,15.32-9.24c16.77-8.95,34.32-20.83,39.79-26.93c1.02-1.13,2.11-2.06,2.42-2.06
	c1.86-0.03,13.59-13.35,16.5-18.75c4.72-8.74,7.71-23.97,5.86-29.84c-2.82-8.9-7.21-13.69-16.04-17.51
	c-16.68-7.19-19.92-7.9-37.77-8.23c-17.89-0.34-17.5-0.4-40.94,7.01c-6.33,2.01-13.59,4.03-16.12,4.51
	c-2.54,0.48-5.64,1.51-6.9,2.29c-1.26,0.78-4.57,2.12-7.36,2.98c-2.79,0.85-7.71,2.8-10.92,4.33c-3.22,1.52-9.44,4-13.84,5.48
	c-8.28,2.8-15.4,6.76-29.57,16.42c-10.32,7.05-27.71,16.75-30.07,16.79c-0.97,0.01-1.76,0.46-1.75,1
	c0.01,0.96-15.11,13.46-22.84,18.89c-2.2,1.55-4.26,3.17-4.57,3.6c-1.81,2.53-11.89,8.16-18.17,10.15
	c-6.47,2.05-8.35,2.18-16.42,1.13c-10.6-1.38-15.84-3.65-17.37-7.51C28.65,746.99,27.89,732.24,29.17,726.84L29.17,726.84z
	 M29.17,726.84"/>
</svg>
