<?xml version="1.0" encoding="utf-8"?>
<!-- Generator: Adobe Illustrator 24.1.1, SVG Export Plug-In . SVG Version: 6.00 Build 0)  -->
<svg version="1.1" id="Layer_1" xmlns="http://www.w3.org/2000/svg" xmlns:xlink="http://www.w3.org/1999/xlink" x="0px" y="0px"
	 viewBox="0 0 1125 1148" style="enable-background:new 0 0 1125 1148;" xml:space="preserve">
<style type="text/css">
	.st0{fill:#A55EA0;}
	.st1{fill:#EAC8E9;}
	.st2{fill:#190018;}
</style>
<path class="st0" d="M606.78,68.63c-37.21,0.68-75.41,7.67-108.1,26.06c-9.4,6.86-7.3,22.6,2.37,28.34
	c13.26,11.07,28.61,19.18,42.92,28.63c17.44,14.46,33.73,33.96,33.68,57.86c2.21,38.25-8.07,75.47-10.72,113.52
	c-1.73,9.06-0.5,19.89-5.8,27.64c-6.13,0.28-2.76-8.84-2.98-12.38c1.5-13.08,2.93-26.8,0.88-39.69
	c-10.33,0.22-19.92-5.05-30.22-5.56c-13.51-0.62-21,11.96-26.95,22.08c-7.47,12.64-23.34,8.28-35.31,10.58
	c-13.64,2.74-22.75,14.34-34.11,21.4c-8.12,5.73-6.04,17.49,0.82,23.35c23.58,22.84,54.23,37.99,86.13,45.19
	c0.27,2.5,1.71,7.96-2.83,6.07c-18.25-4.5-34.57-14.77-51.3-23.05c-21.05-11.91-38.15-29.36-55.1-46.44
	c-8.58-8.7-12.9-22.22-6.93-33.6c3.55-10.04,15.22-14.73,16.69-25.95c3.32-9.66,3.95-24.77-8.35-28.03
	c-22.94-4.58-44.63,8.57-63.87,19.32c-23.8,15.23-49.61,27.07-72.6,43.57c-26.42,15.72-56.62,28.38-75.56,53.66
	c-8.36,12.62-1.94,33.86,14.06,36.53c23.17,4.07,44.73-9.06,65.4-17.52c25.57-11.28,54.46-21.83,82.47-13.38
	c33.89,7.12,63.5,28.57,85.22,54.99c9.98,14.55,16.78,31.68,17.45,49.38c0.46,5.38-7,2.58-6.34-1.46
	c-2.31-16.38-6.71-32.91-17.05-46.23c-13.77-18.2-33.61-30.73-53.04-42.11c-14.96-5.92-32.4-3.46-47.1,2.21
	c-15.24,9.05-24.2,26.09-29.56,42.5c-2.33,18.71-14.39,33.54-24.59,48.6c-6.71,8.54-7.77,21.45,0.36,29.45
	c9.76,8.55,23.85,1.5,33.87-2.91c14.47-8.2,31.86-20.92,30.88-39.56c0.52-3.97-3.99-8.38-4.97-9.93c7.45,3.07,12.92,11.35,9.5,19.42
	c-6.07,14.47-19.67,24.43-32.36,32.9c-18.52,12.17-40.97,13.56-62.55,12.73c-39.07-0.94-78.56,0.25-117.23-4.55
	c-11.87-2.5-18.76-15.05-21.92-25.76c-3.04-20.38,0.86-41.94-6.01-61.69c-3.86-6.71-9.93-13.95-17.22-16.15
	c-10.51,0.97-25.67-2.16-31.13,9.84c-13.81,29.59-21.43,61.8-27.03,93.84c-3.74,28.56-6.55,60.69,9.53,86.21
	c7.09,12.44,23.35,9.16,35.23,8.69c19.51-1.05,35.91-13.07,48.97-26.66c16.51-14.49,31.14-34.75,54.57-37.51
	c31.5-5.74,63.21,5.57,92.54,15.8c20.98,7.95,41.46,20.24,54.94,38.43c0.23,4.22-4.89-0.17-6.04-1.31
	c-13.85-11.6-27.35-27.56-46.52-29.12c-9.58,0.02-10.62,11.52-10.08,18.76c-0.99,13.22,0.3,27.06,8.58,37.97
	c5.76,8.66,14.83,15.93,15.18,27.2c3.92,29.8,4.45,59.97,3.25,90c-1.61,8.17-8.1,16.51-17.16,15.85
	c-18.84,6.26-38.15,14.52-58.5,10.12c-27.28-3.8-54.92-10.31-78.76-24.84c-7.69-2.93-20.27-3.28-22.61,6.78
	c-4.71,13.42-4.12,28.49,3.37,40.81c13.18,26.29,34.9,46.83,52.16,70.35c14.08,16.16,26.19,35.66,45.65,45.87
	c11.89,4.38,28.76,5.81,37.63-5.07c8.48-13.26-1.19-28.35-4.47-41.61c-3.14-13.08-1.48-28.2,9.32-37.44
	c12.83-15.97,32.93-22.47,49.04-34.28c4.39-3.55,9.92-3.96,14.55-0.62c13.92,6.67,27.7,14.74,36.43,27.9
	c7.8,11.65,22.93,9.3,34.95,9.15c16.47,0.58,25.68,17.58,41.55,20.74c13.35,3.65,26.07,9.97,39.32,13.34
	c11.99-0.86,24.21-0.36,36.05-2.44c5.13-6.27,2.88-15.97,4-23.61c0.37-17.86,0-38.56-14.67-51.25c-3.15-3.94-11.69-8.98-3.85-11.79
	c7.82-1.73,11.83,8.02,15.75,13.2c12.26,17.17,13.38,39.28,9,59.3c-7.06,35.49-18.13,71.33-37.7,102.2
	c-13.08,18.41-33.62,29.3-54.78,35.77c-16.45,6.7-36.26,8.53-49.62,21.27c-5.97,9.14-5.51,22.12-0.77,31.74
	c12.02,19.07,35.68,25.64,56.44,30c18.55,4.85,37.73,6.88,56.81,4.32c28.98-2.88,60-2.58,86.13-17.11
	c12.33-7.35,21.73-20.77,19.94-35.65c0.95-17.58-14.7-30.06-27.91-38.8c-12.38-7.42-23.33-18.91-28.29-32.65
	c-6.24-21.12-0.91-43.2-0.42-64.76c-0.1-15.24,5.46-29.45,11.46-43.31c4.72-10.37,6.76-23.19,15.2-31.26c1.08,3-3.78,8.3-4.98,12.06
	c-4.47,11.54-10.93,23.58-10.02,36.21c3.39,8.46,14.42,3.27,20.46,1c9.99-3.61,19.4-10.22,29.33-12.69
	c25.81,8.03,54.93,10.42,79.6-2.58c11.31-6.57,24.21-7.72,36.22-12.06c10.76-6.79,19.11-16.98,29.77-23.87
	c3.33-10.86-2.95-22.24-7.34-32.04c-7.6-13.73-14.39-28.3-24.14-40.62c-8.33-8.21-19.29-12.75-29.74-17.21
	c-0.55-7.07,9.16-4.53,12.4-1.56c19.98,16.76,34.61,38.83,47.13,61.36c9.83,23.87,18.48,48.37,24.09,73.47
	c3.96,26.27-1.71,52.78-2.19,78.86c8.73,9.96,20.67,20.34,35.14,18.31c29.41-0.76,51.26-23.65,71.36-42.37
	c23.45-23.81,51.28-47.78,58.65-81.98c1.01-15.63,3.42-32.09-1.42-47.29c-5.97-11.73-19.93-16.87-32.02-19.73
	c-26.19-2.77-52.62,14.09-78.21,3.27c-21.11-8.25-41.97-18.48-58.18-34.53c-12.96-11.75-27.03-23.85-33.55-40.58
	c13.01,22.81,31.99,42.95,55.18,55.5c13,7.06,28.39,2.03,38.84-7.19c12.43-9.27,23.77-21.24,26.83-37
	c6.28-21.25,8.57-43.86,19.63-63.46c11.43-25.54,6.62-54.37,9.62-81.36c-0.24-20.4,9.61-42.65-1.06-61.9
	c-12.43-21.87-32.25-38.31-53.3-51.49c-12.32-8.19-21.41-20.95-34.26-28.39c-14.86-3.71-27.78,8.14-38.86,16.29
	c-22.17,17.97-41.68,39.87-61.39,59.81c10.07-22.35,29.26-38.96,47.75-54.69c20.74-16.34,43.94-32.59,70.4-36.68
	c23.79,0.3,48.35,4.46,72.27,0.96c29.28-8.8,42.2-49.28,23.37-73.48c-9.18-14.7-22.62-25.93-36.96-35.35
	c-15.63-11.2-33.43-19.75-51.72-25.67c-13.34-3.35-27.47-4.28-41.02-4.14c-7.96,10.24-13.08,24.46-11.01,37.6
	c8.53,10.41,21.61,18.27,26.08,31.44c-0.95,21.28-16.81,38.83-32.39,52.03c-16.56,12.3-35.41,21.47-52.85,32.09
	c-16.52,9.2-38.2,18.84-56.3,7.64c-6.19-4.3-13.63-9.75-16.71-16.35c13.38,3.53,24.63,16.18,39.63,13.34
	c16.07-2.5,31.07-9.64,44.51-18.48c8.92-5.68,23.71-9.02,24.79-21.55c-0.78-14.01-16.06-20.38-26.77-26.08
	c-11.9-3.55-22.17-10.79-30.26-20.18c-12.37-12.89-20.19-32.73-39.44-36.75c-10.06-1.97-20.77-3.65-30.8-2.59
	c-2.33,16.93,3.08,34.23,4.78,51.18c1.12,8.9,2.61,17.85,2.26,26.85c-8.26-14.52-7.44-32.09-11.4-47.98
	C611,296.15,616,257.7,634.06,225.37c16.35-32.05,46.9-57.25,53.45-94.3c3.6-18.21-0.07-39.4-15.71-51.13
	c-15.63-11.83-36.62-9.77-55.09-11.26C613.4,68.61,610.09,68.61,606.78,68.63L606.78,68.63z M613.76,88.48
	c17.26,0.78,24.13,19.69,27.71,33.89c1.59,6.45,1.91,17.31-7.2,17.35c-17.83,7.2-39.43,13.03-57.44,3.26
	c-14.05-9.48-11.24-32.49,0.59-42.59C587.43,92.28,601.05,88.72,613.76,88.48L613.76,88.48z M366.77,300.62
	c5.27-1.12,14.33,5.35,9.14,10.67c-15.94,18.3-37.76,29.95-58.31,42.26c-13.08,6.46-26.29,15.74-41.42,15.42
	c-4.4-2.47-1.21-9.99-1.4-13.97c1.8-8.84,12.07-12.4,18.3-17.71c22.01-13.8,44.75-26.97,69.14-36.11
	C363.71,300.8,365.24,300.61,366.77,300.62L366.77,300.62z M827.83,306.32c17.58,3.3,29.1,18.11,39.41,31.55
	c2.26,4.12,7.16,9.5,5.37,14.19c-13.45,1.78-26.48-5.8-37.69-12.39c-8.38-6.22-20.23-15.11-17.73-27.01
	C818.96,308.67,823.4,305.78,827.83,306.32L827.83,306.32z M627.69,475.62c10.2,0.39,24.25,5.38,25.74,16.92
	c-2.58,11.65-15.31,25.19-28.07,18.71c-6.09-4.6-14.16-10.09-11.97-18.97c-0.68-7.86,4.07-17.05,12.96-16.6
	C626.8,475.63,627.25,475.64,627.69,475.62L627.69,475.62z M764.28,480.58c10.83,1.86,19.19,18.98,7.76,25.79
	c-6.19,5.33-15.03,1.76-17.83-5.28c-2.4-4.79-8.24-13.09-1.04-16.6C756.51,482.48,760.24,480.42,764.28,480.58L764.28,480.58z
	 M93.41,494.26c11.6,14.21,17.1,33.61,15.38,51.84c-4.75,13.94-11.87,27.19-20.8,38.89c-2.73,1.71-4.48-5.5-6.42-7.48
	c-5.12-10.97-14.61-20.97-12.4-33.81c-0.85-14.22,0.77-29.32,10.85-40.48c3.21-4.2,7.25-7.66,11.46-10.8l0.96,0.92l0.96,0.93H93.41z
	 M549.79,504.08c5.73-0.67,12.05,2.54,11.27,9.13c-0.23,8.46,2.66,21.62-7.38,25.61c-7.82,2.61-19.01,4.68-25.2-2.06
	C525.24,522.29,533.46,503.91,549.79,504.08L549.79,504.08z M818,518.49c18.25-0.75,29.84,17.29,33.31,33.1
	c0.63,28.73-9.77,59.28-31.97,78.6c-7.64,8.04-21.34,9.42-29.12,0.87c-11.72-8.39-20.06-25.08-36.39-24.34
	c-19.04-0.48-38,1.9-56.87,4.19c-2.57-2.38-5.83-5.79-0.37-6.13c20.67-4.41,42.07-5.27,63.2-3.41c14.53,3.77,22.47,17.48,34.68,24.9
	c11.65,4.86,25.16-1.06,31.2-11.79c10.66-14.04,16.07-31.23,16.36-48.78c0.99-12.81,3.36-29.21-9.07-37.58
	c-10.11-8.3-24.31-3.39-35.56-0.36c-15.07,4.88-23.45,18.92-33.4,30.02c-14.52,11.52-34.11,4.19-50.05-0.36
	c-11.2-4.02-24.79-8.38-34.24-13.6c5.2-0.97,10.77,3.15,16,4.15c19.29,5.96,40.75,16.28,60.85,7.91
	c19.5-10.93,33.21-33.54,56.34-37.09C814.58,518.58,816.29,518.49,818,518.49L818,518.49z M377,534.21
	c8.44,2.74,8.1,15.34,5.63,22.43c-1.98,7.04-12.43,17.38-19.13,9.55c-5.1-5.02-9.01-13.12-3.15-19.21
	C364.24,541.28,369.57,534.65,377,534.21L377,534.21z M811.1,544.19c7.5,10.69,0.43,24.08-3.32,34.86
	c-2.29,6.58-9.21,15.09-16.82,9.5c-11-5.15-6.3-20.02-2.15-28.41C793.33,552.11,802.61,546.74,811.1,544.19L811.1,544.19z
	 M436.82,571.98c11.61,4.73,23.7,17.01,19.39,30.57c-6.75,21.06-28.38,32.14-46.77,41.58c-21.44,12.02-46.58,12.85-69.2,21.45
	c-12.65,4.55-19.13,18.18-17.99,31.07c1.09,29.76,12.43,59.17,30.46,82.77c9.66,11.63,26.68,21.53,41.48,13.19
	c11.27-6.78,22.16-16.13,27.75-28.26c10.49-28.78,6.09-62.86,27.01-87.32c11.78-13.16,28.81-24.5,47.08-24.9
	c5.03,0.43,0.7,2.73-2.25,2.44c-22.55,1.06-45.19,15.82-50.95,38.47c-8.45,23.53-6.51,49.73-16.62,72.69
	c-8.49,16.85-24.74,29.96-43.02,34.04c-12.47-0.9-24.12-6.96-34.12-14.11c-14.08-12.36-20.19-31.24-25.41-48.63
	c-2.29-19-4.08-38.57-3.08-57.88c3.14-12.52,17.98-16.78,28.83-20.32c31.4-8.68,65.88-15.23,89.64-39.5
	c6.17-4.61,11.5-10.18,9.25-18.46c0.77-10.52-3.91-20.21-11.07-27.63C437.48,573.18,435.54,571.37,436.82,571.98L436.82,571.98z
	 M530.8,591.24c8.88,13.01,10.54,29.58,16.31,44.06c5.3,16.67,13.86,36.02,3.27,52.55c-8.51,15.69-22.17,31.23-18.55,50.46
	c0.07,13.73,9.24,27.53,23.44,29.61c22.82,4.12,47.5-3.39,63.2-20.71c9.12-6.65,11.56-18.26,9.67-28.88
	c-0.59-7.79-2.79-17.61-11.2-20.03c-9.09-8.19-20.48-14.06-27.87-24.24c-9.48-11.41-18.88-28.03-10.44-42.6
	c8.6-18.13,25.1-32.3,43.73-39.37c-19.61,10-41.4,24.73-44.38,48.43c-2.03,20.88,16.09,35.77,30.52,47.79
	c10.1,8.2,25.89,16.11,25.04,31.33c0.63,23.33-20.6,39-39.92,47.29c-16.82,7.82-39.5,10.46-54.53-2.38
	c-12.76-10.33-18.56-29.39-10.98-44.69c5.96-15.84,20.86-28.45,19.65-46.58c1.24-13.44-0.85-26.87-7.11-38.91
	c-4.93-13.73-10.79-28.04-10.84-42.73C530.05,591.39,530.51,590.59,530.8,591.24L530.8,591.24z M807.93,664.95
	c8.66-0.87,12.91,8.66,10.33,15.91c-1.72,7.03-6.28,16.6-14.16,17.14c-11.74-2.25-19.94-18.07-12.48-28.01
	C795.85,665.78,802.23,664.83,807.93,664.95L807.93,664.95z M371.29,688.14c13.13,4.09,23.86,17.61,22.74,31.66
	c-3.66,10.38-8.03,21.14-15.8,29.14c-9.91-9.84-14.06-23.8-18-36.79C358.57,703.59,362.11,690.77,371.29,688.14L371.29,688.14z
	 M592.9,701.46c3.84,3.77,14.12,7.18,9.55,14.22c-3.53,6.99-5.67,19.08-16.06,18.47c-10.28-0.09-17.58-9.65-22.31-17.81
	c3.79-9.64,15.13-14.12,23.88-18.45C589.6,699.08,591.25,700.27,592.9,701.46L592.9,701.46z M657.82,763.32
	c7.31,1.53,13.88,8.64,10.6,16.4c-3.13,12.66-14.12,24.71-27.53,25.54c-7.2-2.91-16.24-10.87-13.22-19.38
	C634.03,774.85,645.87,766.71,657.82,763.32L657.82,763.32z M457.81,797.46c8.23,2.11,15.24,11.97,13.98,20.6
	c-2.89,7.09-10.92,16.43-19.14,11.22C442.15,822.58,445.67,799.93,457.81,797.46L457.81,797.46z M894.67,806.1
	c8.53,1.17,9.68,13.06,9.69,19.91c-2.55,21.1-17.79,37.57-29.63,54.23c-13.54,16.11-26.99,33.96-46.11,43.7
	c-4.91,2.55-1.87-5.25-4.74-6.88c-4.64-4.52,1.35-11.13,2.16-16.24c10.91-24.75,21.57-50.66,38.73-71.68
	C873.41,820.33,882.02,808.88,894.67,806.1L894.67,806.1z M178.23,808.35c10.15,5.32,14.74,17.37,23.07,24.97
	c10.22,12.61,23.41,23.11,31.98,36.9c1.21,3.85,1.95,7.86,1.98,11.89c-23.94-10.91-51.17-24.65-60.31-51.41
	C173.42,823.98,169.3,811.41,178.23,808.35L178.23,808.35z M527.23,1013.17c11.92,0.43,25.61,3.23,33.94,12.41
	c5.98,12.82-6.62,25.47-18.75,28.03c-22.92,6.35-47.05,3.97-70.57,5.28c-10.72,0.19-23.81,1.29-30.43-9.21
	c-3.25-3.45-9.83-9.48-4.09-14.18c5.57-6.24,11.9-12.81,20.97-12.72C481.16,1018.92,504.06,1014.72,527.23,1013.17L527.23,1013.17z
	 M527.23,1013.17"/>
<path class="st0" d="M1108.01,597.13c-15.73-0.34-31.65,2.65-44.77,11.8c-21.04,12-39.06,30.79-63.86,34.97
	c-20.46,3.58-41.18-1.96-61.05-5.91c-13.12-3.25-24.84-10.1-36.68-16.18c-7.17-3.15-12.91,3.37-14.35,9.92
	c-3.85,11.89-9.99,24.05-9.53,36.71c4.66,6.49,14.27,1.45,20.72,1.24c15.41-1.89,31.06-9.1,46.7-5.68
	c15.96,6.1,32.23,13.34,45.08,24.81c15.74,15.48,25.54,36.13,40.86,52.03c7.5,7.92,22.75,9.57,28.54-1.23
	c26.54-34.69,54.12-72.35,59.14-117.03c-0.06-7.91,3.44-19.32-4.2-24.72C1112.53,597.02,1110.22,597.13,1108.01,597.13
	L1108.01,597.13z M1082.15,638.08c3.32,12.82-2.25,26.39-7.85,37.92c-9.42,14.95-22.56,29.42-40.07,34.42
	c-7.5-0.43-10.31-11.74-4.95-16.77c9.85-18.73,24.55-34.98,41.45-47.61C1074.57,643.7,1078.44,639.83,1082.15,638.08L1082.15,638.08
	z M1082.15,638.08"/>
<path class="st1" d="M358.87,307.97c-29.5,1.8-54.06,21.37-76.36,38.94c-6.57,3.78-6.23,16.65,3.06,15.36
	c23.57-1.65,44.11-16.27,63.38-28.73c6.55-5.95,20.07-12.66,16.59-23.39C364.12,307.92,361.21,307.87,358.87,307.97L358.87,307.97z
	 M358.87,307.97"/>
<path class="st1" d="M603.34,95.7c-15.56-0.49-31.06,11.31-30.1,27.81c-1.1,12.41,10.81,21.13,22.5,19.18
	c13.25-0.92,30.36-1.27,38.8-13.1c3.78-15.66-7.02-34.11-24.31-33.82C607.94,95.58,605.64,95.58,603.34,95.7L603.34,95.7z
	 M603.34,95.7"/>
<path class="st1" d="M827.26,310.04c-10.52,1.94-7.19,17.37-0.49,22.25c8.7,7.22,22.19,17.16,33.56,10.78
	c5.88-9.94-6.07-20.07-13.2-25.67C841.34,313.28,834.52,309.98,827.26,310.04L827.26,310.04z M827.26,310.04"/>
<path class="st1" d="M373.27,538.04c-5.1-0.61-10.3,2.88-9.8,8.39c-0.26,5.62-1.37,14.87,6.23,16.05c5.15,1.02,13.73-0.18,13-7.19
	c-0.34-5.22,1.53-12.24-2.81-16.11C377.87,538.11,375.5,538.02,373.27,538.04L373.27,538.04z M373.27,538.04"/>
<path class="st1" d="M550.59,508.81c-11.86,0.3-23.58,10.55-23.82,22.65c1.21,8.91,12.82,10.37,19.88,8.16
	c5.98-1.89,9.85-7.38,15.37-9.87c2.32-5.22,2.13-12.4-1.18-17.22C558.38,509.53,554.29,508.59,550.59,508.81L550.59,508.81z
	 M550.59,508.81"/>
<path class="st1" d="M633.15,477.65c-10-0.61-14.14,10.49-15.83,18.46c-1.13,5.2-0.86,12.34,5.53,13.71
	c6.66,1.73,14.51,2.66,20.86-0.44c8.27-5.5,13.09-19.77,4.59-27.07C643.99,479.08,638.47,477.67,633.15,477.65L633.15,477.65z
	 M633.15,477.65"/>
<path class="st1" d="M763.22,483.28c-6-0.67-10.58,4.81-9.77,10.61c0.16,5.06-0.59,14.2,6.74,14.22c5.48,0.76,14.35,1.08,15.13-6.3
	c0.03-5.7,2.32-13.88-3.41-17.57C769.21,483.02,766.09,483.3,763.22,483.28L763.22,483.28z M763.22,483.28"/>
<path class="st1" d="M802.78,547.79c-8.83,0.08-11.41,9.78-12.75,16.77c-1.46,5.5-1.15,13.96,5.97,15.01
	c8.38,1.54,11.71-8.53,13.33-14.87c1.55-5.42,3.24-15.38-4.45-16.8C804.19,547.79,803.48,547.76,802.78,547.79L802.78,547.79z
	 M802.78,547.79"/>
<path class="st1" d="M1067.91,655.18c-13.8,1.71-21.83,14.98-28.81,25.58c-3.18,6.11-9.35,13.86-5.21,20.81
	c5.77,5.05,14.16,0.12,19.47-3.41c8.23-5.98,15.2-13.64,20.05-22.54c3.83-4.75,2.86-11.81,1.65-17.35
	C1073.93,655.45,1070.6,654.93,1067.91,655.18L1067.91,655.18z M1067.91,655.18"/>
<path class="st1" d="M805.45,664.81c-13.78-0.56-21.43,18.46-12.31,28.16c8.93,8.26,25.58,0.49,24.87-11.8
	c0.94-6.36-0.77-14.9-8.37-15.98C808.27,664.89,806.86,664.77,805.45,664.81L805.45,664.81z M805.45,664.81"/>
<path class="st1" d="M889.92,811.1c-11.09,0.49-17.56,11.38-24.17,18.88c-13.16,18.06-22.72,38.53-31.56,58.97
	c-2.01,6.7-5.62,15.03-1.62,21.61c6.18,5.31,14.13-1.09,18.58-5.72c16.83-16.7,31.24-35.95,42.88-56.58
	c5.15-10.86,3.78-23.5,3.57-35.02C896.7,810.47,892.32,811.39,889.92,811.1L889.92,811.1z M889.92,811.1"/>
<path class="st1" d="M651.06,766.59c-4.78-0.61-9.09,2.12-10.93,6.33c-5.84,3.87-11.03,10.28-9.25,17.77
	c0.61,5.59,5.25,10.31,11.13,9.34c8.83,1.56,16.47-4.91,19.52-12.76c1.49-5.36,8.51-11.19,4.89-16.94
	C662.43,766.65,656.17,766.7,651.06,766.59L651.06,766.59z M651.06,766.59"/>
<path class="st1" d="M587.82,701.41c-8.11-0.53-17.6,4.36-17.61,13.44c-1.15,6.32,3.01,13.95,10.16,13.27
	c6.28,0.86,13.6-0.72,16.15-7.3c3.11-5.58,5.54-15.92-2.07-18.93C592.3,701.3,590.03,701.42,587.82,701.41L587.82,701.41z
	 M587.82,701.41"/>
<path class="st1" d="M458.06,800.44c-7.63,0.87-6.92,10.58-6.87,16.25c-0.3,4.41,0.17,11.22,6.18,10.84
	c6.64,0.53,14.43-3.92,13.37-11.48C470.71,808.62,466.57,800.22,458.06,800.44L458.06,800.44z M458.06,800.44"/>
<path class="st1" d="M373.27,696.83c-6.46-1.41-7.54,4.54-6.85,9.51c0.23,8.42-2.25,20.01,6.02,25.49
	c6.51,4.02,14.28-2.26,14.43-9.23c1.61-8.99,0.37-21.91-9.64-25.38C375.94,696.87,374.6,696.77,373.27,696.83L373.27,696.83z
	 M373.27,696.83"/>
<path class="st1" d="M179.57,817.98c-6.17,0.92-4.08,9.1-2.39,13.03c5.05,16.17,18.4,27.58,31.06,37.93
	c6.94,3.64,14.85,8.83,22.94,6.04c1.92-4.66-4.34-7.95-5.68-12.28c-7.53-13.45-19.65-23.79-31.7-33.12
	c-2.15-1.71-5.47-1.77-5.06-5.16C187.49,820.68,183.36,818.18,179.57,817.98L179.57,817.98z M179.57,817.98"/>
<path class="st1" d="M525.64,1016.64c-25.67,1.71-52.41,3.43-76.36,13.46c-9.25,4.98-11.42,22.33,0.81,24.74
	c28.83,1.45,58.04,0.39,86.73-2.97c10.94-0.39,21.22-9.09,18.81-20.8c0.91-13.26-14.99-14.69-24.67-14.45
	C529.2,1016.58,527.42,1016.61,525.64,1016.64L525.64,1016.64z M525.64,1016.64"/>
<path class="st2" d="M1055.94,690.2c5.99-5.53,10.89-11.55,10.89-13.38c0-1.83,1.09-3.34,2.42-3.34c1.35,0,2.43-3.83,2.43-8.52
	c0-6.93-0.9-8.5-4.95-8.5c-2.72,0-7.52,1.69-10.67,3.74c-7.42,4.87-23.3,28.82-23.3,35.14
	C1032.76,703.84,1043.77,701.41,1055.94,690.2L1055.94,690.2z M1023.08,705.22c-2.7-6.53-2.29-8.21,4.58-18.37
	c4.14-6.15,7.54-11.98,7.54-12.96c0-2.79,30.25-32.03,33.13-32.03c1.43,0,4.55-2.16,6.95-4.81c5.97-6.59,8.6-4.08,8.37,7.99
	c-0.41,22.34-14.32,45.76-35.81,60.29C1034.15,714.59,1026.96,714.56,1023.08,705.22L1023.08,705.22z M1051.17,742.15
	c2.84-1.96,25.34-32.5,35.44-48.09c19.43-30.02,32.36-71.97,27.79-90.18c-1.58-6.33-1.9-6.42-17.9-5.24
	c-10.15,0.73-19.68,3.1-25.26,6.26c-16.92,9.58-29.96,18.26-39.06,26c-8.51,7.25-29.34,15.14-43.19,16.36
	c-6.57,0.58-25.13-1.74-45.76-5.74c-13.41-2.59-38.24-12.87-40.69-16.85c-0.78-1.25-3.83-2.28-6.77-2.28
	c-4.45,0-6.31,2.8-10.93,16.42c-3.06,9.04-6.17,19.43-6.93,23.11c-1.7,8.31,0.11,8.42,29.71,1.88c11.97-2.65,24.85-4.84,28.61-4.87
	c9.62-0.09,42.62,15.68,52.39,25c7.45,7.11,24.39,29.51,31.06,41.06C1028.4,740.07,1042.81,747.93,1051.17,742.15L1051.17,742.15z
	 M621.88,134.4c2.11-1.85,5.26-3.35,7.01-3.35c2.33,0,2.82-3.01,1.87-11.47c-2.23-19.78-19.6-27.98-42.44-20.02
	c-16.18,5.64-20.52,33.11-6.08,38.46C590.71,141.14,616.87,138.75,621.88,134.4L621.88,134.4z M583.97,148.37
	c-17.12-3.52-24.5-16.02-20.36-34.45c1.26-5.6,4.71-12.3,7.68-14.89c13.84-12.04,37.96-17.55,50.93-11.63
	c8.37,3.81,16.22,16.79,19.43,32.11c3.08,14.67,0.72,21.27-7.59,21.27c-2.23,0-8.35,2.19-13.59,4.86
	C611.05,150.46,598.63,151.38,583.97,148.37L583.97,148.37z M857.63,337.06c0-3.09-1.37-7.3-3.04-9.36
	c-6.24-7.7-20.74-16.65-26.98-16.65c-5.54,0-6.47,1.03-6.47,7.2c0,3.96,1.37,8.39,3.05,9.84c9.35,8.13,20.88,14.36,26.75,14.46
	C856.34,342.64,857.63,341.59,857.63,337.06L857.63,337.06z M845.98,348.99c-28.32-11.93-43.1-34.67-28.66-44.13
	c6-3.94,6.96-3.94,17.37,0.03c15.39,5.87,42.29,37.92,39.02,46.47c-1.88,4.88-12.67,3.95-27.73-2.39V348.99z M311.02,351.01
	c21.18-11.18,21.99-11.65,36.4-21.72c10.26-7.15,13.95-11.24,13.98-15.48c0.03-5.47-0.53-5.66-11.53-4.12
	c-15.51,2.2-33.47,11.13-51.77,25.75c-8.32,6.66-16.08,12.09-17.25,12.09c-1.17,0-2.13,2.89-2.13,6.41c0,6.07,0.51,6.33,9.8,5.08
	C293.89,358.3,304.02,354.69,311.02,351.01L311.02,351.01z M272.04,370.25c-3.89-1.57-3.83-17.92,0.12-22.72
	c9.74-11.88,79.76-51.07,91.27-51.07c8.28,0,15.04,4.37,15.04,9.73c0,7.24-13.96,19.59-41.65,36.81
	c-36.4,22.67-55.85,30.85-64.76,27.24H272.04z M771.29,494.7c0-9.5-0.2-9.73-8.51-9.73c-8.3,0-8.54,0.26-9.28,10.5l1.25,8.57
	l7.27,1.15C771.09,504.45,771.29,504.21,771.29,494.7L771.29,494.7z M757.13,510.12c-5.29-2.95-14.16-20.23-12.53-24.4
	c1.43-3.67,12.43-9.26,18.23-9.26c5.2,0,13.78,9.34,15.69,17.09C780.95,503.31,765.87,515.01,757.13,510.12L757.13,510.12z
	 M644.52,502.08c5.91-9.01,5.02-17.05-2.27-20.37c-11.6-5.28-18.04-3.64-21.9,5.62c-6.84,16.36-4.71,20.21,11.39,20.56
	C638.59,508.03,641.49,506.71,644.52,502.08L644.52,502.08z M622.9,513.05c-2.67-1.11-7.33-4.68-10.35-7.93
	c-4.64-5.01-5.25-7.61-3.96-17.03c1.65-12.06,7.03-16.51,19.91-16.5c8.01,0,21.11,7.66,24.73,14.44
	c3.29,6.15-1.57,16.72-11.14,24.25C635.25,515.68,630.8,516.31,622.9,513.05L622.9,513.05z M532.47,542.69
	c-8.71-1.39-11.16-6.5-9.3-19.34c2.58-17.73,17.33-26.78,34.7-21.29c5.57,1.76,4.66,23.97,2.37,29.71
	c-0.69,1.72-1.35,0.68-1.45-2.33c-0.18-4.89,3.28-18.93-7.18-18.93c-9.74,0-12.84,1.19-18.45,7.04c-4.38,4.56-6.46,9.04-5.93,12.76
	c0.69,4.89,2.4,5.86,11.44,6.5c8.33,0.6,11.78-4.7,16.79-9.11l6.64-1.37l-2.47,9.39C553.24,542.97,540.57,543.99,532.47,542.69
	L532.47,542.69z M378.45,549.42c0-9.18-0.41-9.73-7.29-9.73c-6.9,0-7.31,0.54-7.31,9.73c0,9.2,0.41,9.73,7.31,9.73
	C378.05,559.15,378.45,558.62,378.45,549.42L378.45,549.42z M356.63,563.57c-5.98-9.81-6.05-11.43-0.81-19.07
	c13.29-19.41,25.9-19.21,29.04,0.45c1.72,10.76-7.37,24.82-16.75,25.91C362.88,571.47,360.53,569.98,356.63,563.57L356.63,563.57z
	 M95.89,553.07c2.06-6.19,2.7-14.54,1.74-23c-2.41-21.38-3.66-24.43-9.97-24.43c-9.47,0-13.25,8.55-13.25,29.88
	c0,22.87,2.59,29.08,11.71,28.03C91.31,562.96,93.3,560.82,95.89,553.07L95.89,553.07z M76.71,577c-3.27-6.24-7.53-14.18-9.46-17.63
	c-2.04-3.66-3.52-12.9-3.53-22.1c-0.03-18.28,6.65-34.07,18.36-43.47l7.19-5.77l5.65,5.31c6.26,5.87,15.98,32.65,15.98,44.02
	c0,4-1.02,9.17-2.27,11.49c-1.23,2.33-4.59,9.36-7.45,15.65c-5.47,12.04-13.76,23.85-16.74,23.85
	C83.47,588.34,79.99,583.24,76.71,577L76.71,577z M803.73,566.78c4.22-14.1,3.66-17.36-3.02-17.36c-4.36,0-6.51,1.94-8.52,7.66
	c-4.48,12.87-3.5,19.09,3.04,19.09C799.72,576.18,801.51,574.22,803.73,566.78L803.73,566.78z M787.97,590.16
	c-7.99-3.57-10.76-11.89-7.59-22.86c3.3-11.36,8.54-17.6,20-23.74c8.57-4.6,8.74-4.6,12.31,0c4.08,5.24,3.17,14.38-3.32,33.71
	C804.99,590.31,797.9,594.59,787.97,590.16L787.97,590.16z M793.14,637.13c-2.68-1.09-9.5-6.99-15.14-13.1
	c-5.64-6.11-12.4-12.27-15.02-13.67c-6.22-3.33-27-3.24-50.18,0.19c-15.94,2.38-19.07,2.24-22.28-0.97
	c-2.05-2.06-3.1-4.78-2.32-6.05c2.26-3.66,43.83-8.71,59.8-7.26c15.71,1.43,25.24,6.67,37.49,20.62c5.52,6.27,8.84,7.94,15.99,7.94
	c10.88,0,18.34-7.03,28.37-26.76c5.67-11.15,6.97-17.23,7.82-36.49c0.97-22.34,0.79-23.35-5.51-30.12
	c-6.14-6.6-7.37-6.93-21.09-5.68c-17.3,1.56-30.87,9.5-39.44,23.09c-7.94,12.57-11.3,14.9-24.05,16.66
	c-10.85,1.48-30.33-3.12-52.91-12.49c-4.68-1.95-11.64-4.66-15.47-6.05c-5.81-2.1-6.46-3.11-3.93-6.15
	c1.85-2.23,4.08-2.82,5.73-1.53c4.49,3.5,38.42,14.27,50.15,15.92c16.33,2.31,25.89-1.62,40.6-16.69
	c7.23-7.41,17.74-15.82,23.36-18.71c21.84-11.19,43.3-4.13,52.51,17.28c6.17,14.36,6.34,19.53,1.3,41.69
	c-4.2,18.47-11.6,33.45-22.19,45.03C813.38,638.4,804.73,641.83,793.14,637.13L793.14,637.13z M810.47,688.68
	c4.56-6.02,4.28-19.21-0.46-21.03c-6.42-2.46-11.36-1.68-16.04,2.55c-5.05,4.57-5.89,15.46-1.53,19.82
	C796.74,694.31,806.75,693.58,810.47,688.68L810.47,688.68z M796.83,698.09c-7.59-2.05-14.16-14.56-12.74-24.24
	c0.79-5.36,3.07-8.11,8.6-10.4c8.48-3.52,17.98-3.36,22.48,0.37c7.71,6.4,4.3,25.48-5.93,33.29c-4.32,3.3-3.97,3.27-12.4,0.99
	V698.09z M592.57,718.32c4.42-11.62,3.1-15.65-5.08-15.65c-11.18,0-16.87,4-16.87,11.84c0,8.74,1.48,10.04,11.41,10.04
	C588.55,724.56,590.67,723.31,592.57,718.32L592.57,718.32z M577.3,735.02c-3.68-0.58-6.69-2.5-6.69-4.26
	c0-1.77-2.73-5.01-6.08-7.19c-7.97-5.23-7.68-10.21,1.04-17.87c7.58-6.65,22.07-13.71,22.07-10.77c0,0.97,3.83,3.83,8.5,6.35
	c9.89,5.31,10.27,8.35,2.95,23.27C593.57,735.81,590.79,737.15,577.3,735.02L577.3,735.02z M382.24,721.05
	c2.33-12.44-1.57-21.87-9.46-22.79c-6.16-0.74-6.5-0.23-6.46,9.73c0.06,16.25,2.15,21.45,8.65,21.45
	C379.53,729.43,380.97,727.76,382.24,721.05L382.24,721.05z M369.37,744.58c-3-3.65-5.46-7.88-5.48-9.4
	c-0.01-1.52-1.66-5.9-3.67-9.73c-6.41-12.29-7.1-22.33-2.17-31.47c6.16-11.44,11.54-12.56,22-4.57
	c10.43,7.96,16.39,20.92,14.37,31.29c-1.55,8-14.73,30.65-17.79,30.57C375.63,751.23,372.36,748.23,369.37,744.58L369.37,744.58z
	 M541.66,770.35c-12.42-6.57-22.16-22.44-22.07-36.02c0.06-10.04,6.7-25.66,16.23-38.14c5.64-7.4,6.92-11.79,7.64-26.23
	c0.77-15.17-0.02-19.32-6.36-33.06c-8.26-17.94-14.56-45.24-11.21-48.58c4.47-4.47,8.89,2.35,14.4,22.22
	c3.1,11.2,8.32,27.78,11.58,36.84c7.72,21.43,5.88,32.41-9.16,54.37c-9.89,14.42-11.02,17.49-10.99,29.79
	c0.06,25.73,11.28,35.43,38.91,33.68c18.61-1.18,29-5.88,43.16-19.53c9.31-8.97,10.34-11.12,10.34-21.5
	c0-13.06-4.05-23.94-8.91-23.94c-1.79,0-3.25-1.02-3.25-2.26c0-1.25-1.91-2.88-4.26-3.62c-7.77-2.48-26.86-21.92-32.43-33.03
	c-3.09-6.17-5.26-14.54-4.98-19.19c1.32-21.31,28.88-49.51,53.69-54.97c11.87-2.61,7.61,1.68-10.58,10.62
	c-21.61,10.64-35.52,28.72-35.48,46.06c0.03,12.53,12.77,29.97,30.47,41.76c21.39,14.22,26.14,20.73,25.85,35.39
	c-0.37,18.32-12.39,33.28-36.17,44.98c-21.78,10.72-41.49,12.25-56.43,4.37V770.35z M369.94,799.41
	c-22.96-7.77-35.48-19.26-42.78-39.27c-3-8.2-6.26-16-7.27-17.34c-0.99-1.34-2.59-17.3-3.55-35.49
	c-1.72-32.71-1.69-33.12,4.03-38.52c8.92-8.42,17.08-11.9,40.3-17.24c35.65-8.17,56.08-17.48,73.1-33.27
	c10.85-10.07,10.98-10.38,9.78-22.96c-0.97-10.06-2.66-14-7.95-18.55c-9.87-8.51-4.43-12.47,6.93-5.05
	c18.36,11.98,20.19,29.43,5.01,47.34c-13.44,15.87-52.16,35.82-77.1,39.75c-38.43,6.05-47.92,13.45-47.92,37.37
	c0,29.53,19.83,75.6,38.16,88.65c16.18,11.52,27.61,10.06,44.45-5.7c13.04-12.2,15.2-17.94,20.53-54.66
	c3.86-26.57,10.22-41.9,22.75-54.8c11.37-11.71,36.69-23.76,45.34-21.59c10.26,2.58,7.89,8.37-3.42,8.37
	c-11.78,0-28.63,7.52-37.02,16.51c-7.88,8.46-15.68,33.2-17.81,56.46c-3.36,36.95-15.89,56.4-44.56,69.29
	C381.72,802.85,380.24,802.89,369.94,799.41L369.94,799.41z M657.49,782.94c7.22-9.18,7.71-13.13-0.36-14.27
	c-8.49-1.2-15.98-0.71-15.98,3.2c0,1.89-2.19,4.13-4.86,4.98c-6.5,2.06-6.99,17.33-0.61,18.99c11.92,3.13,15.31-1.26,20.38-7.71
	L657.49,782.94z M628.1,800.84c-3.52-3.52-6.41-9.13-6.41-12.43c0-7.08,14.11-21.27,26.37-26.55c7.22-3.1,8.82-3.06,14.12,0.42
	c8.11,5.31,9.47,9.99,5.84,20.02c-3.8,10.54-9.14,17.03-17.63,21.5C640.86,808.82,635.35,808.09,628.1,800.84L628.1,800.84z
	 M465.61,818.62c1.73-9.14-1.83-16.23-8.15-16.23c-5.54,0-6.02,0.9-6.02,11.11c0,10.68,0.25,11.07,6.66,10.34
	C462.24,823.36,465.07,821.38,465.61,818.62L465.61,818.62z M451.43,832.12c-10.96-3.29-13.35-22.82-4.12-33.55
	c7-8.13,14.51-6.5,21.3,4.66c5.93,9.71,5.91,14.02-0.09,21.65c-5.11,6.5-11.12,9.05-17.08,7.25H451.43z M224.54,868.55
	c-1.99-2.28-4.32-6.47-5.2-9.33c-1.9-6.25-30.21-31.62-34.02-30.47c-1.47,0.44-1.87,0-0.87-0.98c2.3-2.31-2.62-8.33-6.8-8.33
	c-3.64,0-1.71,8.64,4.54,20.38c4.67,8.78,25.1,28.26,29.61,28.26c1.87,0,3.92,0.86,4.56,1.9c0.65,1.04,3.57,2.08,6.48,2.3
	c4.8,0.36,4.96,0,1.7-3.72H224.54z M213.05,874.15c-24.34-12.67-37.28-25.99-43.05-44.31c-3.18-10.09-3.43-13.98-1.21-18.86
	c4.93-10.8,12.53-7.62,24.03,10.04c2.43,3.74,11.54,14.02,20.24,22.85c8.68,8.83,17.01,17.67,18.48,19.64
	c3.42,4.56,6.68,21.62,4.12,21.49C234.59,884.95,224.42,880.07,213.05,874.15L213.05,874.15z M852.99,896.79
	c6.59-6.95,18.22-21.82,25.85-33.04c12.65-18.63,13.94-21.78,14.86-36.01c0.97-15.3,0.86-15.62-5.08-15.62
	c-10.73,0-27.15,19.91-43.23,52.42c-15.66,31.66-18.45,44.89-9.44,44.89C838.88,909.43,846.03,904.13,852.99,896.79L852.99,896.79z
	 M821.15,921.78c0-2.56-1.34-5.11-2.98-5.65c-5.14-1.71,10.34-37.96,33.19-77.75c3.61-6.3,12.62-16.96,20-23.71
	c17.8-16.27,27.83-16.37,32.43-0.33c4.29,14.97-0.51,27.95-20.23,54.74c-18.36,24.94-26.6,34.32-40.8,46.44
	C829.04,927.22,821.15,929.52,821.15,921.78L821.15,921.78z M542.73,1046.65c7.69-3.64,8.43-4.91,8.43-14.51
	c0-11.12-0.09-11.21-16.29-14.46c-4.26-0.86-24.52,0.79-44.99,3.67c-29.76,4.18-38.34,6.25-42.71,10.31
	c-6.05,5.62-7.13,13.77-2.44,18.49C449.47,1054.91,531.49,1051.98,542.73,1046.65L542.73,1046.65z M447.01,1058.85
	c-6.86-2.88-17.45-15.87-17.47-21.45c0-1.18,3.74-5.68,8.33-10c6.89-6.51,10.97-8.15,23.71-9.56c8.47-0.93,24.56-3.26,35.77-5.2
	c27.25-4.69,38.32-4.35,51.31,1.54c12.14,5.51,14.58,8.22,14.62,16.36c0.12,17.73-15.71,27.2-48,28.73
	c-11.03,0.52-29.19,1.36-40.34,1.87C461.64,1061.75,452.02,1060.95,447.01,1058.85L447.01,1058.85z M546.29,1078.28
	c26.12-4.13,41.39-11.75,50.42-25.17c7.35-10.89,7.36-26.25,0.06-37.27c-5.23-7.88-21.5-21.27-25.84-21.27
	c-1.15,0-7.03-5.31-13.1-11.8c-13.86-14.81-18.03-31.12-15-58.75c1.1-10.03,2.14-25.01,2.31-33.29c0.17-8.28,1.42-16.49,2.75-18.24
	c1.35-1.75,4.37-8.66,6.74-15.36c10.54-29.86,14.47-37.69,18.88-37.69c5.25,0,5.73,4.2,1.06,9.53
	c-4.21,4.82-13.67,31.58-13.67,38.66c0,7.79,7.76,6.84,28.32-3.46l17.49-8.76l15.56,3.9c8.55,2.14,20.41,3.88,26.34,3.87
	c14.06-0.03,34.32-5.51,42.91-11.6c3.75-2.65,12.64-5.62,19.76-6.58c11.11-1.52,14.71-3.47,25.25-13.68
	c6.76-6.55,13.24-11.9,14.4-11.9c7.55,0-2.68-28.93-18.32-51.8c-3.48-5.08-6.3-10.05-6.3-11.06c0-4.97-19.04-19.63-27.51-21.18
	c-7.63-1.4-9.11-2.59-8.5-6.87c1.28-9.04,11.56-7.8,22.62,2.71c20.87,19.81,44.44,56.26,49.96,77.25c1.05,4.01,5.41,16.6,9.68,27.97
	c8.69,23.12,10.08,41.54,6.23,82.07L776.65,941l9.06,8.54c8.17,7.71,10.37,8.53,22.86,8.48c24.46-0.09,43.92-12.95,87.66-57.94
	c20.08-20.67,26.93-29.6,33.74-44.05c7.69-16.32,8.57-20.32,8.81-40.13c0.32-26.36-1.74-30.86-17.9-39.04
	c-14.62-7.41-19.87-7.5-51.08-0.85c-27.41,5.83-31.39,5.28-58.84-8.17c-7.62-3.73-14.59-6.78-15.49-6.78
	c-4.17,0-42.71-33.4-52.19-45.24c-4.5-5.62-12.12-21.37-12.12-25.06c0-5.93,4.39-2.07,8.71,7.66c5.47,12.34,24.15,32.94,41.66,45.94
	c21.61,16.02,35.17,13.11,61.85-13.27c7.24-7.16,13.55-25.48,19.05-55.17c1.61-8.7,4.38-17.45,6.16-19.45
	c1.79-2.01,5.8-11.31,8.92-20.68c4.79-14.36,5.59-21.22,5.1-43.79c-0.34-15.63,0.99-36.22,3.19-49.5c3.55-21.37,3.5-23.51-0.65-35.1
	c-4.91-13.77-29.39-40.19-44.46-47.98c-10.44-5.4-22.5-15.13-33.93-27.35c-10.45-11.18-15.66-11.43-33.1-1.59
	c-13.43,7.57-50.85,42.63-67.26,63c-6.6,8.19-9.53,10.26-11.66,8.22c-3.71-3.55,12.81-28.03,28.85-42.75
	c30.71-28.19,50.91-41.78,75.28-50.68c13.09-4.77,17.25-5.22,31.44-3.41c9,1.14,25.67,2.08,37.04,2.08
	c16.61,0,22.22-0.97,28.52-4.96c19.64-12.41,27.8-39.51,17.81-59.1c-6.92-13.57-22.67-30.55-34.51-37.2
	c-5.16-2.91-9.39-6.06-9.39-7.02c0-0.96-10.62-6.92-23.61-13.24c-20.64-10.03-26.11-11.64-43.39-12.71l-19.77-1.24l-5.27,8.51
	c-2.93,4.76-5.25,12.53-5.25,17.61c0,7.94,1.72,10.69,13.37,21.37c11.49,10.52,13.38,13.49,13.36,21.01
	c-0.03,12.92-9.9,31.75-22.42,42.81c-16.37,14.47-24.65,20.61-27.86,20.64c-1.59,0.03-4.36,1.41-6.18,3.07
	c-3.42,3.16-5.99,4.73-29.02,17.81c-32.57,18.49-51.07,18.16-72.14-1.26c-13.25-12.22-4.28-17.31,10.55-5.99
	c12.65,9.65,24.99,10.24,45.06,2.16c9.3-3.75,16.89-7.6,16.89-8.56c0-0.96,3.57-3.19,7.92-4.95c23.45-9.49,28.66-18.11,17.92-29.68
	c-5.23-5.65-24.93-16.36-30.08-16.36c-5.48,0-22.85-16.04-30.96-28.57c-13.34-20.64-19.83-24.94-40.13-26.64l-17.09-1.44v7.64
	c0,4.21,2.31,20.76,5.14,36.78c2.84,16.02,4.39,31.08,3.48,33.45c-1.54,3.94-2.1,3.81-6.36-1.43c-2.58-3.15-4.69-8.23-4.69-11.28
	s-2.19-16.18-4.87-29.19c-12.55-60.98,1.18-107.92,47.48-162.44c2.03-2.38,7.46-11.74,12.08-20.8
	c19.85-38.95,10.76-73.94-21.44-82.49c-6.33-1.69-25.42-3.05-42.76-3.05c-42.08,0-65.36,4.75-105.51,21.49
	c-9.71,4.06-13.1,10.61-10.61,20.53c0.87,3.46,8.63,10.31,20.65,18.24c10.6,6.99,19.98,12.71,20.87,12.71
	c0.88,0,2.92,1.03,4.54,2.29c29.24,22.69,39.27,41.33,39.35,73.12c0.03,11.38-1.75,30.53-3.94,42.58
	c-2.2,12.04-5.29,35.57-6.86,52.29c-3.44,36.58-4.02,38.92-9.71,38.92c-6.04,0-7.28-4.44-4.81-17.2c1.15-5.92,2.13-16.6,2.19-23.72
	c0.11-12.69-0.03-12.94-6.59-12.31c-3.68,0.36-9.08-0.65-12-2.24c-11.86-6.49-24.4-1.53-31.47,12.44
	c-6.13,12.09-15.29,18.44-24.47,16.94c-12.02-1.95-24.03,1.26-31.94,8.53c-3.95,3.63-10.33,8.45-14.16,10.7
	c-11.28,6.6-10.63,15.31,1.96,26.66c18.43,16.61,54.15,35.13,73.77,38.25c8.35,1.32,9.73,2.41,9.73,7.62c0,5.31-0.93,5.99-7.29,5.31
	c-11.35-1.19-59.66-25.81-70.96-36.15c-5.58-5.11-16.29-14.76-23.81-21.45c-16.94-15.08-23.2-24.8-23.2-36.02
	c0-8.63,8.24-26,12.33-26c3.92,0,9.56-14.25,9.56-24.12c0-11.43-4.31-14.8-18.88-14.8c-11.4,0-37.03,10.01-50.45,19.7
	c-5.36,3.87-15.21,9.83-21.89,13.26c-6.69,3.42-16.54,8.91-21.9,12.21c-5.35,3.3-11.96,6.95-14.69,8.13
	c-2.74,1.17-6.42,3.9-8.21,6.04c-1.78,2.15-4.38,3.9-5.79,3.9c-1.4,0-4.28,1.52-6.39,3.39c-2.12,1.86-13.06,8.15-24.32,13.99
	c-26.7,13.81-48.84,34.31-48.84,45.21c0,16.29,8.73,24.98,25.13,24.98c8.37,0,30.88-7.2,45.25-14.49
	c30.24-15.32,60.28-23.38,77.59-20.82c29.75,4.39,44.75,10.15,67.49,25.86c31.24,21.59,46.43,42.75,52.07,72.5
	c2.7,14.21,1.88,17.2-4.69,17.2c-4.69,0-7.35-6.32-7.41-17.56c-0.06-9.92-11.1-32.15-21.36-42.97
	c-4.99-5.28-17.84-15.41-28.54-22.53c-18.5-12.31-20.25-12.94-35.33-12.98c-22.77-0.06-33.01,5.27-44.56,23.1
	c-5.56,8.6-9.89,18.65-10.68,24.84c-1.68,13.14-8.47,26.72-20.46,40.94c-10.29,12.22-12.02,21.78-5.59,30.96
	c5.14,7.33,15.22,6.96,31.77-1.14c18.82-9.22,30.12-22.3,30.12-34.89c0-7.84-1.06-10.2-5.29-11.75c-3.17-1.18-4.22-2.61-2.64-3.59
	c4.27-2.64,13.84,2.22,17.37,8.81c4.69,8.78,0.17,20.46-12.52,32.35c-20.18,18.91-35.98,26.46-60.17,28.76
	c-7.35,0.7-42.58,0.49-78.28-0.48c-72.9-1.97-72.91-1.97-84.03-21.41c-4.73-8.28-5.45-13.04-5.48-37.03
	c-0.02-27.83-1.19-32.62-10.4-43.22c-3.91-4.48-7.55-5.88-15.46-5.88c-22.15,0-22.3,0.2-37.36,50.67
	c-20.11,67.43-19.34,120.65,2.05,140c4.27,3.86,7.83,4.39,22.75,3.44c23.94-1.54,33.26-6.57,58.24-31.41
	c27.87-27.71,31.69-30.18,52.5-33.86c21.25-3.77,39.15-1.19,78.78,11.35c27.52,8.71,47.64,20.35,63.63,36.82
	c8.15,8.39,8.79,9.88,5.45,12.65c-3.23,2.68-5.59,1.33-16.14-9.21c-19.22-19.22-40.78-28.19-44.49-18.49
	c-0.81,2.12-1.48,10.73-1.48,19.15c0,12,1.38,17.78,6.4,26.76c3.52,6.3,7.82,11.99,9.55,12.66c7.09,2.72,10.22,19.19,11.96,63.13
	c1.56,39.23,1.29,44.98-2.47,52.3c-5.1,9.93-7.63,11.79-16.17,11.83c-3.6,0.03-7.15,1.02-7.88,2.21c-0.74,1.19-9.18,4.09-18.79,6.44
	c-15.29,3.75-19.87,3.9-37.12,1.28c-32.41-4.93-57.8-12.44-67.45-19.98c-9.61-7.52-21.56-9.13-26.19-3.53
	c-1.55,1.86-3.48,8.91-4.27,15.66c-1.24,10.49-0.36,14.53,5.98,27.63c4.09,8.44,9.98,18.04,13.09,21.32
	c3.12,3.3,11.97,14.25,19.68,24.32c7.71,10.09,16.47,21.16,19.46,24.61c2.99,3.45,9.26,11.05,13.94,16.89
	c17.33,21.62,26.08,28.42,38.69,30.1c12.62,1.68,18.41,0.44,25.16-5.36c5.38-4.61,5.54-17.7,0.34-27.74
	c-4.17-8.06-6.09-17.63-6.14-30.47c-0.02-8.87,10.52-25.42,19.18-30.11c3-1.63,5.47-3.87,5.47-4.98c0-1.12,1.28-2.03,2.86-2.03
	c1.56,0,4.57-1.48,6.68-3.28c2.12-1.81,8.77-5.91,14.79-9.13c6.02-3.2,12.39-7.2,14.17-8.88c4.59-4.34,10.29-3.74,18.67,1.95
	c4.01,2.73,10.7,6.43,14.86,8.23c4.17,1.8,11.18,8.3,15.58,14.45c9.3,12.93,13.45,14.76,28.32,12.53
	c8.56-1.28,13.01-0.51,21.05,3.61c5.61,2.88,11.83,7.31,13.84,9.87c2,2.56,10.01,6.31,17.79,8.32c7.78,2.03,18.92,5.87,24.77,8.53
	c8.87,4.04,13.62,4.59,28.88,3.29l18.25-1.54l1.71-15.97c1-9.29,0.58-22.12-0.99-30.68c-2.29-12.42-4.22-16.09-12.5-23.63
	c-11.14-10.17-11.68-11.83-5.03-15.99c6.67-4.17,9.89-2.28,19.14,11.28c12.86,18.85,16.19,33.69,12.56,55.95
	c-5.2,31.8-21.12,81.79-29.41,92.32c-2.55,3.24-4.63,7.28-4.63,8.99c0,1.71-4.21,8.44-9.37,14.95
	c-11.35,14.37-30.97,25.39-60.32,33.91c-40.57,11.75-44.63,14.96-44.63,35.17c0,18.65,25.16,35.25,62.5,41.22
	c9.02,1.44,16.98,3.23,17.7,3.99c2.05,2.19,57.48-1.48,82.78-5.49L546.29,1078.28z M456.29,1092.6
	c-48.92-8.24-68.47-17.86-82.5-40.57c-5.32-8.61-5.55-10.17-2.68-18.24c7.5-21.02,14.94-26.08,58.43-39.7
	c33.8-10.59,41.44-15.79,54.81-37.23c11.8-18.93,27.9-58.42,27.9-68.44c0-5.47-0.74-5.73-15.21-5.37
	c-17.92,0.43-27.19-1.38-39.8-7.81c-5.1-2.61-12.15-4.72-15.68-4.72c-6.3,0-22.14-9.84-28.73-17.85c-2.55-3.09-7.46-4.05-20.8-4.05
	c-9.6,0-20.13-1.28-23.42-2.84c-3.27-1.57-11.36-9.37-17.95-17.33l-12-14.48l-14.67,1.53c-10.28,1.08-17.51,3.52-24.21,8.21
	c-5.26,3.67-12.15,8.11-15.33,9.86c-13.25,7.3-27.59,26-27.6,36c-0.01,2.82,3.41,11.76,7.6,19.87c9.25,17.95,8.43,28.47-3.01,38.09
	c-7.12,5.99-13.76,7.36-30.1,6.24c-14.86-1.03-32.22-14.43-48.53-37.46c-2.59-3.66-6.7-8.93-9.13-11.73
	c-2.42-2.8-4.43-5.74-4.44-6.53c-0.03-0.8-3.31-5.16-7.31-9.69c-3.99-4.53-7.26-8.97-7.26-9.88c0-0.89-5.33-7.18-11.87-13.95
	c-6.52-6.77-16.37-19.89-21.89-29.18c-8.65-14.55-10.02-18.81-10.02-30.95c0-17.03,4.97-26.56,16.79-32.17
	c9.31-4.42,7.59-4.97,29.11,9.46c11.51,7.72,53.02,16.98,76.99,17.19c21.28,0.17,46.43-7.54,54.08-16.6l6.17-7.31l-1.5-41.69
	c-1.61-44.41-2.81-49.55-15.23-65.33c-12.97-16.46-14.07-20.11-13.57-45.24l0.46-23.35l-15.24-4.03
	c-34.08-9.05-67.6-10.48-80.72-3.46c-2.58,1.37-7.5,5.92-10.94,10.1c-26.98,32.77-46.86,46.71-73.96,51.86
	c-15.39,2.92-18.6,2.86-27.18-0.53c-11.27-4.46-19.95-14.45-24.79-28.47c-8.69-25.21-6.01-76.01,5.79-109.86
	c3.32-9.51,7.54-24.22,9.39-32.68c4.15-19.01,11.07-30.53,23.16-38.53c11.58-7.66,24.07-6.29,38.62,4.24
	c14.58,10.58,17.85,20.32,17.34,51.82c-0.39,24.44,0.03,27.15,5.58,35.52l6,9.08l53.1,1.61c29.2,0.88,59.95,2.26,68.3,3.06
	c14.86,1.43,15.21,1.32,15.21-4.42c0-3.24-1.21-7.09-2.68-8.56c-4.2-4.21-0.15-16.99,7.42-23.35c9.87-8.31,19-23.35,20.97-34.54
	c0.94-5.36,4.02-13.93,6.85-19.06c9.59-17.4,12.48-22.29,16.71-28.31c2.33-3.3,4.25-8.5,4.25-11.55c0-4.84-1.23-5.55-9.65-5.55
	c-10.61,0-22.47,4.21-53.59,19.02c-27.28,12.98-38.48,16.02-51.69,14.04c-13.01-1.96-21.98-10.43-26.18-24.74
	c-2.58-8.75-2.33-11.04,2.07-19.45c10.38-19.81,21.81-28.92,70.93-56.53c15.39-8.64,30.88-17.47,34.45-19.63
	c3.56-2.15,12.87-7.63,20.68-12.18c7.81-4.54,22.08-13.56,31.73-20.07c9.64-6.5,19.15-11.81,21.14-11.81c1.98,0,4.29-1.1,5.12-2.44
	c0.83-1.34,4.11-2.43,7.29-2.43c3.18,0,6.47-1.1,7.29-2.44c2.89-4.67,17.1-2.3,28.24,4.7c18.02,11.32,18.27,26.52,0.74,45.7
	c-8.95,9.8-10.63,13.23-10.68,21.76c-0.09,14.53,1.8,17.84,10.1,17.84c5.86,0,20.32-8.06,26.34-14.69
	c0.67-0.74,5.59-3.94,10.94-7.12c7.22-4.28,13.19-5.74,23.11-5.64c14.16,0.15,21.89-3.9,21.89-11.47
	c0-13.35,30.77-28.15,40.02-19.25c2.83,2.73,13.61,2.86,17.78,0.2c1.69-1.08,5.32-15.56,8.09-32.19
	c7.34-44.3,4.28-66.23-12.38-88.67c-3.82-5.14-12.46-11.29-26.75-19.05c-18.64-10.12-34.89-22.3-39.21-29.39
	c-7.21-11.84-6.02-21.92,3.46-29.17c23.53-17.94,73.2-30.34,122.17-30.51c45.66-0.14,64.39,7.27,78.29,30.99
	c5.27,8.99,6.37,13.87,6.37,28.33c0,15.39-1.09,19.61-9.12,35.37c-5.02,9.84-17.81,29.66-28.42,44.04
	c-25.71,34.82-35.92,59.25-36.16,86.46l-0.09,10.03l14.58,1.64c24.52,2.77,34.28,8.91,48.66,30.61c10.86,16.38,20,24.13,32.87,27.88
	c6.91,2,16.71,6.95,21.8,10.98c5.08,4.04,10.74,7.35,12.56,7.35c1.82,0,3.31,1.1,3.31,2.43s2.74,2.44,6.08,2.44
	c10.72,0,21.57-15.06,24.63-34.19c1.63-10.16,1.4-10.6-11.05-21.81c-15.81-14.22-18.98-24.36-12.02-38.41
	c6.77-13.69,12.98-19.38,24.62-22.57c13.91-3.81,33.93,0.25,57.75,11.79c45.93,22.21,76.38,51.09,83.77,79.47
	c3.37,12.91,3.28,14.73-1.14,26.47c-6.18,16.42-16.99,27.63-33.79,35.08c-13.1,5.81-14.76,5.96-48.23,4.29
	c-33.89-1.69-34.66-1.61-34.66,3.27c0,7.42,23.18,29.05,35.27,32.9c2.67,0.86,13.42,10.2,23.87,20.77
	c15.98,16.16,19.89,21.78,24.61,35.25c4.64,13.29,5.2,17.8,3.27,26.39c-1.28,5.68-2.89,23.6-3.57,39.79
	c-1.19,28.39-1.05,29.51,3.87,30.79c3.08,0.81,5.11,3.31,5.11,6.3c0,3.75,4.31,7.07,17.63,13.56
	c37.56,18.32,89.15,16.73,110.05-3.41c7.66-7.36,29.02-20.71,47.2-29.49c14.61-7.06,35.35-5.64,42.29,2.91
	c4.04,4.97,4.56,8.38,3.46,22.87c-2.19,28.66-18.19,66.62-42.07,99.73c-18.17,25.2-32.76,40.13-39.19,40.13
	c-6.55,0-34.33-25.1-39.92-36.07c-6.87-13.48-21.29-31.13-30.41-37.24c-17.79-11.95-31.85-15.27-52.24-12.33
	c-20.9,3-40.19,7.87-47.41,11.97c-3.43,1.94-6.06,7.38-8.19,16.98c-4.32,19.44-7.78,25.33-24.53,41.78
	c-16.03,15.71-18.54,23.55-8.39,26.09c8.04,2.03,32.39-0.25,52.2-4.86c12.47-2.89,18.09-3.1,26.76-0.97
	c10.52,2.58,24.63,10.46,26.43,14.78c0.48,1.12,3.14,4.17,5.91,6.75c4.12,3.85,5.24,8.45,6.13,25.19
	c2,38.09-9.12,59.42-54.56,104.63c-49.29,49.05-75.52,62.45-99.74,50.96c-23.61-11.2-29.77-26.3-25.27-61.93
	c3.04-24.04,0.63-53.77-5.42-67.05c-3.74-8.22-11.77-7.17-24.09,3.16c-12.3,10.33-23.35,15.47-33.25,15.47
	c-3.87,0-13.4,3.2-21.16,7.12c-22.06,11.12-30.95,11.51-74.75,3.3c-4.43-0.84-11.39,1.03-20.47,5.47
	c-7.57,3.7-18.21,8.05-23.64,9.66c-8.7,2.56-10.14,4.05-12.03,12.39c-1.18,5.22-2.3,22.07-2.48,37.46
	c-0.32,24.94,0.25,29.1,5.26,38.49c3.67,6.86,9.48,12.78,16.74,17.02c17.95,10.52,31.76,24.2,36.22,35.89
	c3.88,10.15,3.87,11.4-0.19,22.31c-7.06,18.97-22.63,32.23-47.45,40.38c-20.16,6.63-84.64,10.96-107.03,7.19H456.29z M456.29,1092.6
	"/>
</svg>
