<?xml version="1.0"?>
<svg xmlns="http://www.w3.org/2000/svg" xmlns:xlink="http://www.w3.org/1999/xlink" xmlns:svgjs="http://svgjs.com/svgjs" version="1.1" width="512" height="512" x="0" y="0" viewBox="0 0 512.001 512.001" style="enable-background:new 0 0 512 512" xml:space="preserve" class=""><g><g xmlns="http://www.w3.org/2000/svg"><path d="m503.825 8.175c-23.397-23.399-90.011 5.158-148.491 63.64l-83.093 83.091c-89.845 89.847-175.511 190.659-239.163 278.67-4.319 5.977-3.666 14.191 1.544 19.4l24.404 24.404c5.209 5.209 13.423 5.861 19.4 1.544 88.011-63.651 188.823-149.318 278.667-239.165l83.093-83.091c58.481-58.482 87.038-125.094 63.639-148.493z" fill="#ffffff" data-original="#000000" style="" class=""/><path d="m195.315 507.604 21.215-21.213c3.728-3.728 5.229-9.146 3.946-14.262l-13.936-55.466c-23.344 19.475-46.274 37.852-68.43 54.948l35.993 35.993c5.863 5.863 15.351 5.863 21.212 0z" fill="#ffffff" data-original="#000000" style="" class=""/><path d="m4.397 337.9 35.995 35.993c17.097-22.158 35.473-45.086 54.948-68.432l-55.466-13.934c-5.116-1.285-10.534.218-14.262 3.946l-21.215 21.212c-5.861 5.863-5.861 15.352 0 21.215z" fill="#ffffff" data-original="#000000" style="" class=""/><path d="m206.841 29.39-22.908 22.908 53.02 31.831 12.316-12.314c5.861-5.863 5.861-15.35 0-21.213l-21.215-21.212c-5.861-5.863-15.35-5.863-21.213 0z" fill="#ffffff" data-original="#000000" style="" class=""/><path d="m482.612 283.947-21.212-21.213c-5.863-5.863-15.352-5.863-21.213 0l-12.307 12.306 31.827 53.026 22.905-22.905c5.864-5.863 5.864-15.351 0-21.214z" fill="#ffffff" data-original="#000000" style="" class=""/><path d="m495.466 445.936-113.333-188.787-3.829 3.829c-28.553 28.553-58.612 56.569-89.101 84.119l150.984 150.983c5.861 5.863 15.35 5.863 21.213 0l31.82-31.82c4.869-4.869 5.801-12.43 2.246-18.324z" fill="#ffffff" data-original="#000000" style="" class=""/><path d="m15.922 71.815 150.983 150.983c27.55-30.489 55.565-60.547 84.119-89.101l3.831-3.831-188.789-113.332c-5.894-3.552-13.455-2.62-18.323 2.249l-31.82 31.82c-5.864 5.862-5.864 15.349-.001 21.212z" fill="#ffffff" data-original="#000000" style="" class=""/></g></g></svg>
