<?xml version="1.0" encoding="utf-8"?>
<!-- Generator: Adobe Illustrator 24.1.1, SVG Export Plug-In . SVG Version: 6.00 Build 0)  -->
<svg version="1.1" id="Capa_1" xmlns="http://www.w3.org/2000/svg" xmlns:xlink="http://www.w3.org/1999/xlink" x="0px" y="0px"
	 viewBox="0 0 53 53" style="enable-background:new 0 0 53 53;" xml:space="preserve">
<style type="text/css">
	.st0{fill:#FFFFFF;}
</style>
<g>
	<path class="st0" d="M53,21.92c-2.33,0-4.65,0-6.98,0l-2.1-2.63l-1.04-9.16l-9.17-1.05L26.5,3.33l-7.22,5.74l-9.16,1.05l-1.05,9.16
		l-2.1,2.63c-2.32,0-4.65,0-6.98,0c1.2,2.6,1.79,3.8,2.97,6.05c-1.2,2.59-1.8,3.97-2.97,6.95c2.93-0.73,5.77-1.34,8.56-1.84
		l0.51,0.64l1.05,9.17l9.16,1.04l7.22,5.74l7.22-5.74l9.16-1.04l1.05-9.17l0.51-0.64c2.79,0.51,5.63,1.11,8.56,1.84
		c-1.17-2.98-1.77-4.36-2.97-6.95C51.21,25.72,51.8,24.52,53,21.92z M41.5,26.1c0,1.15-0.93,2.08-2.08,2.08s-2.08-0.93-2.08-2.08
		s0.93-2.08,2.08-2.08S41.5,24.95,41.5,26.1z M14.35,21.47l0.73-6.39l6.39-0.73l5.03-4l5.03,4l6.39,0.73l0.73,6.39l0.36,0.45
		c-8.34,0-16.68,0-25.02,0L14.35,21.47z M28.5,26.1c0,1.15-0.93,2.08-2.08,2.08s-2.08-0.93-2.08-2.08s0.93-2.08,2.08-2.08
		S28.5,24.95,28.5,26.1z M12.48,29.18c-0.02,0-0.04,0.01-0.06,0.01c-1.15,0-2.08-0.93-2.08-2.08c0-0.18,0.03-0.35,0.07-0.52
		c0.02-0.09,0.05-0.18,0.08-0.27c0.15-0.36,0.4-0.67,0.71-0.9c0.34-0.25,0.76-0.4,1.21-0.4c1.15,0,2.08,0.93,2.08,2.08
		C14.5,28.23,13.6,29.15,12.48,29.18z M37.92,37.92l-6.39,0.73l-5.03,4l-5.03-4l-6.39-0.73l-0.66-5.76c8.17-1.03,15.99-1.03,24.16,0
		L37.92,37.92z"/>
</g>
</svg>
