<?xml version="1.0" encoding="utf-8"?>
<!-- Generator: Adobe Illustrator 24.1.1, SVG Export Plug-In . SVG Version: 6.00 Build 0)  -->
<svg version="1.1" id="Capa_1" xmlns="http://www.w3.org/2000/svg" xmlns:xlink="http://www.w3.org/1999/xlink" x="0px" y="0px"
	 viewBox="0 0 335.88 335.88" style="enable-background:new 0 0 335.88 335.88;" xml:space="preserve">
<style type="text/css">
	.st0{fill:#FFFFFF;}
</style>
<g>
	<g>
		<path class="st0" d="M44.47,321.39l-0.04-0.08c6.01,2.38,12.5,3.77,19.35,3.77c27.14,0,49.48-20.4,52.62-46.69
			c-6.78,2.6-14.11,4.08-21.79,4.08c-9.01,0-17.54-2.01-25.25-5.52l-1.49,11.86H30.69l7.86,22.7l-15.97-26.54l36.81-5.12l-0.11-8.69
			c-15.63-11.1-25.87-29.3-25.87-49.88c0-2.32,0.16-4.6,0.41-6.85c-22.39,8.7-36.75,31.85-33.3,56.68
			C3.45,292.25,25.32,315.55,44.47,321.39z"/>
		<path class="st0" d="M195.89,10.79l-92.2,128.91l-15.4-84.25l-20.68,94.42l-22.42-27.89v63.37v16.79v1.03
			c0,2.91,0.03,5.62,0.09,8.21c0.44,17.46,2.86,28.26,13.77,42.42c2.52,3.27,5.45,6.7,8.95,10.46c0.79,0.85,1.68,1.64,2.64,2.38
			c5.59,4.32,14.1,6.77,26.03,7.58c2.95,0.2,6.04,0.34,9.42,0.34c3.42,0,6.97-0.11,10.6-0.3c3.13-0.16,6.3-0.39,9.52-0.67
			c35.39-3.11,74.23-12.61,76.17-13.09l37.58-9.27l-73.56-12.89l107.17-38.11H166.54L335.88,20.81L152.83,146.72L195.89,10.79z
			 M149.51,194.49l-5.99,6.35l-6.26,6.64l-8.56,9.07h10.5h8.18h8.16h23.43l-23.36,8.31l-8.43,3l-8.79,3.13l-30.99,11.02l-4.83,1.72
			l6.68,1.17l20.92,3.67l8.91,1.56l8.59,1.51l8.8,1.54c-3.49,0.58-7.11,1.13-10.75,1.66c-3.77,0.55-7.55,1.03-11.36,1.48
			c-4.56,0.54-9.07,0.98-13.5,1.3c-2.04,0.15-4,0.25-5.98,0.35c-2.98,0.14-5.98,0.3-8.78,0.3c-19.84,0-25.04-3.92-26.16-5.12
			c-2.57-2.75-4.74-5.23-6.64-7.57c-11.22-13.78-11.79-21.91-11.79-42.39v-12.07v-11.2v-9.99v-1.6l0.85,1.07l5.14,6.38l5.16,6.42
			l3.6,4.47l1.52-6.93l2.04-9.33l1.95-8.91l5.07-23.18l4.02,21.99l1.48,8.08l1.48,8.08l0.74,4.05l2.82-3.95l5.43-7.6l5.23-7.32
			l41.16-57.55l-20.96,66.16l-2.58,8.14l-2.61,8.25l-0.16,0.45l0.36-0.25l6.91-4.75l6.88-4.73l81.55-56.09L149.51,194.49z"/>
		<path class="st0" d="M253.45,292.88l-116.86-5.64l114.25,15.74C268.25,299.1,253.45,292.88,253.45,292.88z"/>
		<path class="st0" d="M52.14,61.84l9.32,63.33c0,0-2.37-71.94-1.36-80.05C61.11,37.01,48.14,34.6,52.14,61.84z"/>
		<path class="st0" d="M238.88,38.05l-59.67,70.83c0,0,75.9-71.07,85.71-77.61C274.72,24.71,264.54,7.57,238.88,38.05z"/>
	</g>
</g>
</svg>
