<?xml version="1.0" encoding="utf-8"?>
<!-- Generator: Adobe Illustrator 24.1.1, SVG Export Plug-In . SVG Version: 6.00 Build 0)  -->
<svg version="1.1" id="Capa_1" xmlns="http://www.w3.org/2000/svg" xmlns:xlink="http://www.w3.org/1999/xlink" x="0px" y="0px"
	 viewBox="0 0 306.63 306.63" style="enable-background:new 0 0 306.63 306.63;" xml:space="preserve">
<style type="text/css">
	.st0{fill:#FFFFFF;}
</style>
<g>
	<g>
		<path class="st0" d="M171.9,85.01c0.02-0.02,0.05-0.04,0.07-0.06c-10.04-2.85-20.24-4.71-30.67-5.55
			c-0.16,0.25-0.35,0.47-0.51,0.71c-0.76-0.02-1.5-0.11-2.27-0.11C75.95,80,25.22,130.73,25.22,193.32s50.73,113.31,113.31,113.31
			s113.31-50.73,113.31-113.31C251.84,142.35,218.19,99.26,171.9,85.01z M100.12,193.04c-17.24,0-31.21-13.97-31.21-31.21
			s13.97-31.21,31.21-31.21s31.21,13.97,31.21,31.21C131.33,179.07,117.36,193.04,100.12,193.04z"/>
		<path class="st0" d="M181.94,76.61c5.17-3.68,10.83-6.91,17.12-9.62c6.81-2.94,8.28-12.8,4.88-18.61
			c-4.08-6.97-11.8-7.81-18.6-4.88c-13.95,6.01-26.28,14.68-36.12,25.7C160.32,70.59,171.22,73.1,181.94,76.61z"/>
		<path class="st0" d="M271.62,14.75c-18.26,7.31-36.52,14.64-54.53,22.58c-9.61,4.24-1.3,18.29,8.24,14.09
			c16.71-7.37,33.67-14.15,50.63-20.93C285.6,26.62,281.4,10.84,271.62,14.75z"/>
		<path class="st0" d="M250.57,67.32c-6.14-2.16-11.77-5.55-18.13-7.25c-10.18-2.72-14.49,13.02-4.34,15.74
			c6.35,1.7,11.96,5.08,18.13,7.25c4.2,1.48,8.92-1.64,10.04-5.7C257.51,72.85,254.76,68.8,250.57,67.32z"/>
		<path class="st0" d="M218.19,24.79c1.42-4.26,2.99-9.2,4.62-12.55c1.94-4,1.13-8.78-2.93-11.16c-3.61-2.12-9.23-1.08-11.16,2.93
			c-2.56,5.29-4.41,10.89-6.26,16.45c-1.41,4.22,1.58,8.9,5.7,10.03C212.62,31.71,216.79,29,218.19,24.79z"/>
		<path class="st0" d="M187.25,31.48c3.63-2.13,5.44-7.48,2.93-11.16c-4.04-5.91-8.92-11.11-13.97-16.15
			c-7.45-7.45-18.98,4.09-11.54,11.54c4.06,4.06,8.23,8.19,11.42,12.85C178.59,32.21,183.21,33.84,187.25,31.48z"/>
	</g>
</g>
</svg>
