<?xml version="1.0" encoding="iso-8859-1"?>
<!-- Generator: Adobe Illustrator 19.0.0, SVG Export Plug-In . SVG Version: 6.00 Build 0)  -->
<svg version="1.1" id="Capa_1" xmlns="http://www.w3.org/2000/svg" xmlns:xlink="http://www.w3.org/1999/xlink" x="0px" y="0px"
	 viewBox="0 0 512 512" style="enable-background:new 0 0 512 512;" xml:space="preserve">
<path style="fill:#EA473B;" d="M221.307,290.958c-7.525-6.051-7.938-17.375-0.87-23.95l39.341-36.613
	c2.983-2.776,2.506-7.634-0.955-9.78l-60.927-37.752c-7.642-4.731-9.818-14.922-4.761-22.367l40.691-59.926
	c1.424-2.096,1.423-4.849,0-6.945c-23.857-35.123-63.419-56.091-105.827-56.091C57.42,37.533,0,94.953,0,165.531
	C0,326.324,155.785,429.587,222.764,466.52c0.934,0.515,1.961,0.769,2.984,0.769c3.988,0,6.949-3.736,6.01-7.63l-2.651-10.995
	c-1.385-5.744,0.514-11.731,4.956-15.625c21.188-18.587,21.957-18.293,21.837-22.152c-0.121-3.886-0.616-3.322-27.37-23.994
	c-3.752-2.899-5.993-7.28-6.147-12.021c-0.154-4.742,1.797-9.26,5.357-12.397c36.9-32.56,36.032-30.817,35.944-34.651
	C263.593,323.888,264.25,325.457,221.307,290.958z"/>
<path style="fill:#D63322;" d="M222.764,466.52c4.518,2.493,9.974-1.35,9.054-6.498c-73.39-42.447-211.214-142.405-211.214-294.49
	c0-67.197,51.776-122.29,117.611-127.576C61.783,32.137,0,92.641,0,165.531C0,297.57,106.919,402.641,222.764,466.52z"/>
<path style="fill:#F75D59;" d="M383.999,37.533c-36.726,0-71.732,15.842-96.042,43.462c-0.328,0.371-55.236,77.865-55.523,78.269
	c-2.057,2.901-1.246,6.95,1.787,8.829l65.811,40.776c8.892,5.511,10.06,17.983,2.45,25.066
	c-45.07,41.944-43.926,39.812-43.787,43.669c0.142,3.892-0.565,2.288,42.915,37.219c3.653,2.936,5.809,7.305,5.915,11.992
	c0.109,4.68-1.844,9.142-5.358,12.242c-36.444,32.157-35.689,30.493-35.562,34.372c0.126,3.88,0.605,3.305,27.427,24.029
	c7.894,6.106,8.252,17.878,0.763,24.45l-29.833,26.172c-1.727,1.515-2.471,3.862-1.933,6.096
	c3.995,16.574,3.726,18.142,7.182,19.726c1.703,0.783,3.697,0.756,5.399-0.119c30.885-15.847,90.363-50.146,141.705-101.819
	C480.144,308.733,512,239.278,512,165.531C512,94.953,454.579,37.533,383.999,37.533z"/>
<path style="fill:#EA473B;" d="M298.384,448.083l29.833-26.172c3.571-3.134,5.535-7.655,5.388-12.404
	c-0.148-4.746-2.39-9.138-6.151-12.047c-27.037-20.89-27.302-20.152-27.427-24.029c-0.127-3.879-0.886-2.212,35.562-34.372
	c3.515-3.1,5.467-7.562,5.358-12.242c-0.107-4.687-2.263-9.057-5.915-11.992c-43.981-35.333-42.778-33.447-42.915-37.219
	c-0.139-3.829-1.395-1.621,43.787-43.669c7.629-7.101,6.423-19.567-2.45-25.066c-71.371-44.221-67.878-41.171-68.614-44.804
	c-0.744-3.678-3.715,1.872,56.136-82.561c0.125-0.177,0.26-0.347,0.403-0.509c20.6-23.405,48.881-38.347,79.379-42.364
	c-42.96-5.649-85.007,10.787-112.799,42.364c-0.328,0.371-55.236,77.865-55.523,78.269c-2.057,2.901-1.246,6.95,1.787,8.829
	l65.811,40.776c8.892,5.511,10.06,17.983,2.45,25.066c-45.07,41.944-43.926,39.812-43.787,43.669
	c0.142,3.892-0.565,2.288,42.915,37.219c3.653,2.936,5.809,7.305,5.915,11.992c0.109,4.68-1.844,9.142-5.358,12.242
	c-36.444,32.157-35.689,30.493-35.562,34.372c0.126,3.88,0.605,3.305,27.427,24.029c7.894,6.106,8.252,17.878,0.763,24.45
	l-29.833,26.172c-1.727,1.515-2.471,3.862-1.933,6.096c3.995,16.574,3.726,18.142,7.182,19.726c1.703,0.783,3.697,0.756,5.399-0.119
	c6.41-3.289,14.066-7.385,22.612-12.255C296.52,454.464,294.935,451.109,298.384,448.083z"/>
<g>
</g>
<g>
</g>
<g>
</g>
<g>
</g>
<g>
</g>
<g>
</g>
<g>
</g>
<g>
</g>
<g>
</g>
<g>
</g>
<g>
</g>
<g>
</g>
<g>
</g>
<g>
</g>
<g>
</g>
</svg>
