<?xml version="1.0" encoding="utf-8"?>
<!-- Generator: Adobe Illustrator 24.1.1, SVG Export Plug-In . SVG Version: 6.00 Build 0)  -->
<svg version="1.1" id="Capa_1" xmlns="http://www.w3.org/2000/svg" xmlns:xlink="http://www.w3.org/1999/xlink" x="0px" y="0px"
	 viewBox="0 0 314.87 314.87" style="enable-background:new 0 0 314.87 314.87;" xml:space="preserve">
<style type="text/css">
	.st0{fill:#FFFFFF;}
</style>
<g>
	<g>
		<path class="st0" d="M89.05,287.11c0-0.02,0.01-0.03,0.02-0.04c2.61,2.11,5.31,4.11,8.16,5.92c-2.63-3.75-4.55-8.02-5.61-12.79
			c-0.23-1.01-0.5-2-0.64-3.06c-0.35-2.54-5.26-28.93,2.26-55.07c3.57-12.42,9.92-24.79,20.95-34.52c0,0-0.47,46.22,29.88,75.23
			c0,0-1-16.2,15.69-47.75c17.77-33.61,4.52-78.47,4.52-78.47s27.6,25.79,41.81,64.33c7.28-9.19,12.65-13.75,11.85-11.68
			c-5.06,13.11-2.44,22.87,1.76,32.53c4.86,11.16,11.83,22.2,11.66,38.15c-0.09,8.09-4,16.48-9.57,24.43
			c-1.66,2.38-3.46,4.7-5.38,6.98c2.24-1.33,4.38-2.74,6.4-4.24c0.01,0.02,0.01,0.03,0.02,0.04c0,0,51.4-34.08,51.72-63.86
			s-24.32-42.43-13.42-70.68c1.01-2.62-7.86,5.38-18.02,20.01C218.94,66.93,114.71,0,114.71,0s47.53,54.6,29.94,108.92
			c-17.58,54.32-6.85,86.97-6.85,86.97c-30.55-41.76-14.87-109.41-14.87-109.41c-28.75,25.36-44.62,56.76-53.22,83.29
			c-8.69-12.85-15.89-19.66-14.95-17.21c10.91,28.25-13.74,40.9-13.42,70.68C41.67,253.02,89.05,287.11,89.05,287.11z"/>
		<polygon class="st0" points="176.5,314.87 191.64,314.87 272.39,314.87 272.39,303.3 205.02,303.3 190.92,303.3 185.99,303.3 
			173.77,303.3 119.41,303.3 107.74,303.3 40.32,303.3 40.32,314.87 148.99,314.87 		"/>
	</g>
</g>
</svg>
