<?xml version="1.0" encoding="utf-8"?>
<!-- Generator: Adobe Illustrator 24.1.1, SVG Export Plug-In . SVG Version: 6.00 Build 0)  -->
<svg version="1.1" id="Capa_1" xmlns="http://www.w3.org/2000/svg" xmlns:xlink="http://www.w3.org/1999/xlink" x="0px" y="0px"
	 viewBox="0 0 279.92 279.92" style="enable-background:new 0 0 279.92 279.92;" xml:space="preserve">
<style type="text/css">
	.st0{fill:#FFFFFF;}
</style>
<g>
	<path class="st0" d="M138.32,246.47c-1.34-0.02-2.42-1.13-2.4-2.48l0,0c0.02-1.35,1.13-2.43,2.48-2.41l0,0
		c1.35,0.02,2.43,1.13,2.4,2.48l0,0c-0.02,1.34-1.11,2.41-2.44,2.41l0,0C138.35,246.47,138.34,246.47,138.32,246.47z M145.05,243.94
		c-0.1-1.34,0.91-2.51,2.26-2.61l0,0c1.34-0.09,2.51,0.92,2.61,2.26l0,0c0.09,1.35-0.92,2.52-2.26,2.62l0,0c-0.06,0-0.12,0-0.18,0
		l0,0C146.21,246.21,145.14,245.23,145.05,243.94z M129,245.93c-1.34-0.14-2.32-1.34-2.18-2.69l0,0c0.14-1.34,1.34-2.32,2.68-2.18
		v0.01c1.34,0.13,2.32,1.33,2.18,2.67l0,0c-0.12,1.26-1.19,2.2-2.43,2.2l0,0C129.17,245.94,129.09,245.93,129,245.93z M154.13,243.1
		c-0.21-1.33,0.7-2.59,2.03-2.8l0,0c1.33-0.21,2.58,0.69,2.8,2.03l0,0c0.21,1.33-0.7,2.58-2.03,2.8l0,0
		c-0.13,0.02-0.26,0.03-0.39,0.03l0,0C155.36,245.17,154.32,244.31,154.13,243.1z M119.76,244.57c-1.32-0.25-2.19-1.53-1.94-2.86
		l0,0c0.26-1.33,1.54-2.2,2.87-1.94l0,0c1.32,0.25,2.19,1.53,1.94,2.86l0,0c-0.23,1.17-1.25,1.98-2.4,1.98l0,0
		C120.08,244.6,119.92,244.6,119.76,244.57z M163.11,241.48c-0.33-1.31,0.47-2.63,1.77-2.96l0,0c1.31-0.33,2.64,0.46,2.97,1.77l0,0
		c0.33,1.31-0.46,2.63-1.77,2.96l0,0c-0.2,0.06-0.4,0.08-0.6,0.08l0,0C164.39,243.32,163.39,242.59,163.11,241.48z M110.68,242.4
		L110.68,242.4L110.68,242.4c-1.3-0.38-2.05-1.73-1.68-3.03l0,0c0.37-1.29,1.72-2.05,3.02-1.67l0,0c1.3,0.37,2.05,1.72,1.68,3.02
		l0,0c-0.31,1.07-1.29,1.77-2.35,1.77l0,0C111.13,242.49,110.9,242.47,110.68,242.4z M171.91,239.07c-0.44-1.28,0.23-2.67,1.51-3.11
		l0,0c1.27-0.45,2.66,0.23,3.11,1.5l0,0c0.44,1.28-0.23,2.67-1.5,3.11l0,0c-0.27,0.1-0.54,0.14-0.81,0.14l0,0
		C173.21,240.71,172.27,240.07,171.91,239.07z M101.82,239.45c-1.26-0.48-1.89-1.9-1.41-3.16l0,0c0.49-1.26,1.9-1.89,3.16-1.4l0,0
		c1.26,0.48,1.89,1.89,1.41,3.15l0,0c-0.38,0.98-1.3,1.57-2.29,1.57l0,0C102.4,239.6,102.11,239.56,101.82,239.45z M180.47,235.89
		c-0.56-1.23-0.01-2.68,1.22-3.23l0,0c1.23-0.56,2.68-0.01,3.23,1.22l0,0c0.56,1.23,0.01,2.68-1.22,3.24l0,0l0,0l0,0
		c-0.33,0.14-0.67,0.21-1,0.21l0,0C181.76,237.32,180.87,236.8,180.47,235.89z M93.25,235.72c-1.21-0.59-1.71-2.05-1.12-3.27l0,0
		c0.59-1.21,2.05-1.71,3.27-1.12l0,0c1.21,0.59,1.71,2.06,1.12,3.27l0,0c-0.43,0.87-1.29,1.37-2.2,1.37l0,0
		C93.96,235.97,93.6,235.89,93.25,235.72z M188.71,231.97c-0.66-1.18-0.25-2.67,0.93-3.33l0,0c1.18-0.66,2.67-0.24,3.33,0.94l0,0
		c0.66,1.18,0.24,2.66-0.94,3.33l0,0c-0.37,0.21-0.78,0.31-1.19,0.31l0,0C189.99,233.22,189.16,232.77,188.71,231.97z M85.04,231.24
		c-1.15-0.69-1.52-2.2-0.83-3.35l0,0c0.7-1.16,2.2-1.53,3.36-0.83l0,0c1.15,0.69,1.53,2.2,0.83,3.35l0,0
		c-0.46,0.76-1.27,1.18-2.1,1.18l0,0C85.87,231.6,85.44,231.49,85.04,231.24z M196.57,227.34c-0.76-1.11-0.47-2.63,0.64-3.39l0,0
		c1.12-0.77,2.64-0.48,3.4,0.63l0,0c0.76,1.12,0.47,2.64-0.64,3.4l0,0c-0.42,0.29-0.9,0.43-1.38,0.43l0,0
		C197.81,228.4,197.05,228.02,196.57,227.34z M77.26,226.07c-1.09-0.79-1.33-2.32-0.53-3.41l0,0c0.8-1.09,2.32-1.33,3.41-0.53l0,0
		c1.09,0.79,1.33,2.32,0.54,3.41l0,0c-0.48,0.66-1.22,1-1.98,1l0,0C78.2,226.55,77.7,226.4,77.26,226.07z M204,222.04
		c-0.85-1.04-0.7-2.58,0.34-3.44l0,0c1.05-0.85,2.59-0.7,3.44,0.34l0,0c0.86,1.05,0.7,2.59-0.34,3.44l0,0
		c-0.45,0.37-1,0.55-1.55,0.55l0,0C205.19,222.93,204.49,222.63,204,222.04z M69.97,220.26c-1.02-0.89-1.13-2.43-0.24-3.45l0,0
		c0.89-1.02,2.43-1.12,3.45-0.23l0,0c1.01,0.88,1.12,2.43,0.23,3.44l0,0c-0.48,0.56-1.16,0.84-1.84,0.84l0,0
		C71,220.85,70.43,220.65,69.97,220.26z M210.94,216.1c-0.94-0.96-0.92-2.51,0.04-3.45l0,0c0.97-0.95,2.51-0.93,3.46,0.04l0,0
		c0.94,0.96,0.92,2.51-0.04,3.45l0,0l0,0l0,0c-0.48,0.47-1.09,0.7-1.71,0.7l0,0C212.06,216.85,211.42,216.6,210.94,216.1z
		 M63.2,213.82c-0.94-0.97-0.9-2.52,0.07-3.46l0,0c0.97-0.93,2.52-0.9,3.45,0.07l0,0c0.94,0.97,0.91,2.52-0.06,3.45l0,0
		c-0.48,0.46-1.09,0.69-1.7,0.69l0,0C64.32,214.57,63.68,214.32,63.2,213.82z M217.34,209.6c-1.02-0.88-1.14-2.42-0.26-3.44l0,0
		c0.88-1.03,2.42-1.15,3.45-0.27l0,0c1.02,0.88,1.14,2.43,0.26,3.45l0,0c-0.49,0.56-1.17,0.85-1.86,0.85l0,0
		C218.37,210.19,217.8,209.99,217.34,209.6z M57.02,206.81C57.02,206.81,57.02,206.81,57.02,206.81L57.02,206.81
		c-0.84-1.05-0.68-2.58,0.37-3.43l0,0c1.05-0.85,2.59-0.69,3.44,0.36l0,0c0.85,1.05,0.68,2.59-0.37,3.44l0,0
		c-0.45,0.36-0.99,0.54-1.53,0.54l0,0C58.21,207.72,57.51,207.4,57.02,206.81z M223.15,202.56c-1.1-0.79-1.35-2.32-0.56-3.41l0,0
		c0.79-1.1,2.31-1.35,3.41-0.56l0,0c1.09,0.78,1.35,2.31,0.56,3.41l0,0c-0.48,0.66-1.23,1.01-1.99,1.01l0,0
		C224.08,203.01,223.58,202.87,223.15,202.56z M51.48,199.3L51.48,199.3L51.48,199.3c-0.75-1.12-0.45-2.64,0.67-3.39l0,0
		c1.12-0.76,2.64-0.46,3.39,0.66l0,0c0.75,1.12,0.46,2.64-0.66,3.39l0,0c-0.42,0.28-0.9,0.42-1.37,0.42l0,0
		C52.73,200.38,51.95,199.99,51.48,199.3z M228.32,195.02c-1.16-0.69-1.55-2.18-0.86-3.35l0,0c0.69-1.16,2.19-1.54,3.35-0.85l0,0
		c1.16,0.68,1.55,2.18,0.86,3.34l0,0c-0.46,0.78-1.27,1.2-2.11,1.2l0,0C229.14,195.37,228.71,195.26,228.32,195.02z M46.62,191.32
		L46.62,191.32L46.62,191.32c-0.65-1.19-0.22-2.67,0.96-3.32l0,0c1.18-0.66,2.67-0.23,3.32,0.96l0,0c0.65,1.18,0.22,2.66-0.96,3.32
		l0,0c-0.37,0.2-0.78,0.3-1.18,0.3l0,0C47.9,192.59,47.06,192.13,46.62,191.32z M232.81,187.07c-1.22-0.58-1.73-2.04-1.15-3.26h0.01
		c0.58-1.21,2.04-1.73,3.25-1.14l0,0c1.22,0.58,1.73,2.04,1.15,3.26l0,0l0,0l0,0c-0.42,0.87-1.29,1.39-2.21,1.39l0,0
		C233.51,187.32,233.15,187.24,232.81,187.07z M42.48,182.96c-0.55-1.24,0.01-2.68,1.24-3.22l0,0c1.24-0.55,2.68,0.01,3.23,1.24l0,0
		c0.54,1.24-0.02,2.68-1.25,3.23l0,0c-0.32,0.14-0.66,0.2-0.99,0.2l0,0C43.77,184.4,42.88,183.87,42.48,182.96z M236.59,178.77
		c-1.27-0.48-1.91-1.88-1.43-3.15l0,0c0.47-1.26,1.88-1.9,3.14-1.43l0,0c1.27,0.48,1.91,1.89,1.43,3.15l0,0
		c-0.36,0.98-1.3,1.59-2.29,1.59l0,0C237.16,178.93,236.87,178.88,236.59,178.77z M39.08,174.26c-0.43-1.28,0.25-2.67,1.53-3.1l0,0
		c1.28-0.43,2.67,0.25,3.1,1.53l0,0c0.43,1.27-0.25,2.66-1.53,3.1l0,0c-0.26,0.09-0.52,0.13-0.78,0.13l0,0
		C40.38,175.92,39.43,175.27,39.08,174.26z M239.62,170.15c-1.31-0.36-2.07-1.71-1.71-3.01l0,0c0.36-1.3,1.71-2.06,3.01-1.7l0,0
		c1.3,0.36,2.06,1.71,1.7,3.01l0,0c-0.3,1.08-1.28,1.79-2.35,1.79l0,0C240.05,170.24,239.83,170.22,239.62,170.15z M36.47,165.29
		c-0.32-1.31,0.48-2.63,1.8-2.95l0,0c1.31-0.32,2.63,0.48,2.95,1.79l0,0c0.32,1.32-0.49,2.64-1.8,2.96l0,0
		c-0.19,0.05-0.38,0.07-0.58,0.07l0,0C37.74,167.15,36.74,166.4,36.47,165.29z M241.87,161.32c-1.33-0.25-2.21-1.52-1.96-2.85l0,0
		c0.24-1.33,1.52-2.21,2.84-1.96l0,0c1.33,0.24,2.21,1.52,1.96,2.84l0,0c-0.21,1.18-1.24,2.01-2.4,2.01l0,0
		C242.17,161.35,242.02,161.34,241.87,161.32z M34.66,156.13L34.66,156.13L34.66,156.13c-0.2-1.33,0.71-2.58,2.05-2.78l0,0
		c1.33-0.21,2.58,0.71,2.78,2.05l0,0c0.2,1.33-0.71,2.58-2.05,2.78l0,0c-0.12,0.02-0.24,0.03-0.36,0.03l0,0
		C35.89,158.21,34.84,157.34,34.66,156.13z M243.34,152.31c-1.35-0.13-2.33-1.32-2.21-2.66h0.01c0.12-1.35,1.31-2.34,2.66-2.21l0,0
		c1.34,0.13,2.33,1.32,2.2,2.66l0,0l0,0l0,0c-0.12,1.27-1.18,2.22-2.43,2.22l0,0C243.49,152.32,243.42,152.31,243.34,152.31z
		 M33.66,146.85L33.66,146.85L33.66,146.85c-0.08-1.35,0.94-2.51,2.28-2.6l0,0c1.35-0.08,2.51,0.94,2.6,2.29l0,0
		c0.08,1.34-0.94,2.5-2.29,2.59l0,0c-0.05,0-0.1,0.01-0.15,0.01l0,0C34.82,149.14,33.74,148.14,33.66,146.85z M244.01,143.21
		c-1.35-0.01-2.43-1.12-2.42-2.47h-0.01c0.01-1.35,1.12-2.43,2.47-2.42l0,0c1.35,0.01,2.43,1.11,2.42,2.46l0,0l0,0l0,0
		c-0.01,1.35-1.1,2.43-2.44,2.43l0,0C244.02,143.21,244.02,143.21,244.01,143.21z M35.86,140.01c-1.35-0.03-2.42-1.15-2.39-2.5l0,0
		l0,0l0,0c0.03-1.35,1.15-2.42,2.5-2.39l0,0c1.35,0.04,2.42,1.15,2.38,2.5l0,0c-0.02,1.33-1.11,2.39-2.43,2.39l0,0
		C35.9,140.01,35.88,140.01,35.86,140.01z M241.27,131.84v-0.01c-0.11-1.34,0.9-2.52,2.24-2.62l0,0c1.35-0.11,2.52,0.89,2.63,2.24
		l0,0l0,0l0,0c0.11,1.34-0.9,2.52-2.24,2.63l0,0c-0.07,0-0.13,0.01-0.2,0.01l0,0C242.44,134.09,241.37,133.12,241.27,131.84z
		 M36.25,130.89c-1.34-0.14-2.31-1.35-2.17-2.69l0,0l0,0l0,0c0.15-1.34,1.36-2.31,2.7-2.16l0,0c1.34,0.14,2.31,1.35,2.16,2.69l0,0
		c-0.14,1.25-1.19,2.18-2.43,2.18l0,0C36.43,130.9,36.34,130.9,36.25,130.89z M240.18,122.99c-0.23-1.33,0.67-2.59,2-2.81l0,0
		c1.33-0.23,2.59,0.67,2.82,2l0,0c0.22,1.33-0.67,2.59-2.01,2.82l0,0c-0.13,0.02-0.27,0.03-0.41,0.03l0,0
		C241.41,125.03,240.38,124.19,240.18,122.99z M37.43,121.84c-1.33-0.26-2.19-1.55-1.92-2.87l0,0l0,0l0,0
		c0.26-1.32,1.55-2.18,2.88-1.92l0,0c1.32,0.27,2.18,1.55,1.91,2.88l0,0c-0.23,1.16-1.25,1.96-2.39,1.96l0,0
		C37.75,121.89,37.59,121.88,37.43,121.84z M238.32,114.28c-0.34-1.3,0.44-2.64,1.74-2.98l0,0c1.31-0.34,2.65,0.44,2.99,1.75l0,0
		c0.34,1.31-0.45,2.64-1.75,2.98l0,0c-0.21,0.05-0.42,0.08-0.62,0.08l0,0C239.59,116.11,238.6,115.38,238.32,114.28z M39.4,112.93
		c-1.3-0.38-2.04-1.74-1.66-3.03l0,0c0.38-1.3,1.74-2.04,3.04-1.66l0,0c1.29,0.38,2.03,1.74,1.65,3.04l0,0
		c-0.31,1.06-1.28,1.75-2.34,1.75l0,0C39.86,113.03,39.63,113,39.4,112.93z M235.69,105.77c-0.45-1.27,0.21-2.67,1.48-3.13l0,0
		c1.27-0.45,2.67,0.21,3.13,1.48l0,0l0,0l0,0c0.45,1.27-0.21,2.67-1.48,3.13l0,0c-0.28,0.09-0.55,0.14-0.83,0.14l0,0
		C236.99,107.39,236.05,106.77,235.69,105.77z M42.15,104.23c-1.26-0.49-1.87-1.91-1.38-3.17l0,0l0,0l0,0
		c0.49-1.26,1.91-1.87,3.17-1.38l0,0c1.25,0.49,1.87,1.91,1.38,3.17l0,0c-0.38,0.96-1.3,1.55-2.28,1.55l0,0
		C42.74,104.4,42.44,104.34,42.15,104.23z M232.33,97.52c-0.56-1.22-0.03-2.68,1.2-3.24l0,0c1.23-0.56,2.68-0.03,3.24,1.2l0,0l0,0
		l0,0c0.57,1.22,0.03,2.68-1.2,3.24l0,0c-0.33,0.15-0.68,0.23-1.02,0.23l0,0C233.63,98.94,232.74,98.42,232.33,97.52z M45.66,95.8
		c-1.21-0.6-1.7-2.07-1.1-3.28l0,0c0.61-1.2,2.07-1.7,3.28-1.1l0,0c1.21,0.61,1.7,2.07,1.1,3.28l0,0c-0.43,0.86-1.3,1.36-2.19,1.36
		l0,0C46.38,96.06,46.01,95.97,45.66,95.8z M228.25,89.6L228.25,89.6c-0.67-1.17-0.26-2.66,0.91-3.33l0,0
		c1.17-0.67,2.67-0.27,3.34,0.91l0,0c0.67,1.17,0.26,2.66-0.91,3.33l0,0c-0.38,0.22-0.8,0.32-1.21,0.32l0,0
		C229.53,90.82,228.71,90.39,228.25,89.6z M49.9,87.71c-1.15-0.7-1.51-2.21-0.81-3.36l0,0c0.71-1.15,2.21-1.51,3.37-0.8l0,0
		c1.14,0.7,1.51,2.21,0.8,3.36l0,0c-0.46,0.75-1.26,1.16-2.08,1.16l0,0C50.74,88.07,50.3,87.96,49.9,87.71z M223.5,82.07
		L223.5,82.07c-0.77-1.11-0.5-2.63,0.61-3.4l0,0c1.11-0.77,2.63-0.5,3.4,0.61l0,0c0.77,1.11,0.5,2.63-0.61,3.4l0,0
		c-0.43,0.3-0.91,0.44-1.39,0.44l0,0C224.73,83.11,223.97,82.75,223.5,82.07z M54.83,80.03c-1.08-0.8-1.31-2.33-0.51-3.42l0,0
		c0.8-1.08,2.34-1.31,3.42-0.51l0,0c1.08,0.81,1.31,2.34,0.51,3.42l0,0c-0.48,0.65-1.22,0.99-1.97,0.99l0,0
		C55.78,80.51,55.27,80.35,54.83,80.03z M218.1,74.98c-0.87-1.04-0.72-2.58,0.31-3.44l0,0c1.04-0.87,2.58-0.73,3.45,0.31l0,0
		c0.86,1.04,0.72,2.58-0.32,3.44l0,0c-0.46,0.38-1.01,0.57-1.56,0.57l0,0C219.28,75.86,218.58,75.56,218.1,74.98z M60.41,72.81
		c-1.01-0.9-1.1-2.44-0.21-3.45l0,0c0.9-1.01,2.44-1.11,3.45-0.21l0,0c1.01,0.89,1.11,2.44,0.21,3.45l0,0
		c-0.48,0.54-1.15,0.82-1.83,0.82l0,0C61.45,73.42,60.88,73.21,60.41,72.81z M212.1,68.38L212.1,68.38
		c-0.95-0.96-0.94-2.5,0.02-3.45l0,0c0.95-0.95,2.5-0.95,3.45,0.01l0,0l0,0l0,0c0.95,0.96,0.95,2.51-0.01,3.46l0,0
		c-0.48,0.47-1.1,0.71-1.72,0.71l0,0C213.21,69.11,212.58,68.86,212.1,68.38z M66.6,66.1c-0.93-0.98-0.88-2.53,0.1-3.46l0,0
		c0.97-0.93,2.52-0.88,3.45,0.1l0,0c0.93,0.97,0.89,2.52-0.09,3.45l0,0c-0.47,0.45-1.08,0.67-1.68,0.67l0,0
		C67.73,66.86,67.08,66.6,66.6,66.1z M205.56,62.33c-1.04-0.87-1.16-2.41-0.29-3.44l0,0c0.87-1.03,2.41-1.16,3.44-0.28l0,0
		c1.03,0.87,1.16,2.41,0.29,3.44l0,0c-0.48,0.57-1.17,0.86-1.87,0.86l0,0C206.58,62.91,206.01,62.72,205.56,62.33z M73.35,59.95
		c-0.84-1.05-0.66-2.59,0.4-3.43l0,0c1.05-0.84,2.59-0.66,3.43,0.39l0,0c0.84,1.06,0.66,2.6-0.39,3.44l0,0
		c-0.45,0.35-0.99,0.53-1.52,0.53l0,0C74.55,60.88,73.84,60.56,73.35,59.95z M198.51,56.88L198.51,56.88
		c-1.11-0.78-1.37-2.3-0.59-3.4l0,0c0.78-1.11,2.3-1.37,3.4-0.59l0,0c1.11,0.78,1.37,2.3,0.59,3.41l0,0c-0.48,0.67-1.23,1.03-2,1.03
		l0,0C199.43,57.33,198.93,57.18,198.51,56.88z M80.61,54.42c-0.74-1.12-0.43-2.64,0.7-3.38l0,0c1.12-0.75,2.64-0.44,3.38,0.69l0,0
		c0.74,1.12,0.43,2.64-0.69,3.38l0,0c-0.42,0.28-0.88,0.41-1.35,0.41l0,0C81.86,55.52,81.08,55.13,80.61,54.42z M191.01,52.06
		c-1.17-0.67-1.57-2.17-0.89-3.34l0,0c0.68-1.16,2.18-1.56,3.34-0.88l0,0c1.17,0.68,1.57,2.18,0.89,3.34l0,0
		c-0.46,0.78-1.28,1.22-2.12,1.22l0,0C191.82,52.4,191.39,52.29,191.01,52.06z M88.33,49.54c-0.64-1.19-0.2-2.67,0.98-3.32l0,0
		c1.19-0.64,2.67-0.2,3.32,0.99l0,0c0.64,1.19,0.2,2.67-0.99,3.31l0,0c-0.37,0.2-0.77,0.3-1.16,0.3l0,0
		C89.61,50.83,88.77,50.35,88.33,49.54z M183.11,47.92c-1.22-0.57-1.74-2.03-1.17-3.25l0,0c0.57-1.22,2.03-1.74,3.25-1.17l0,0
		c1.22,0.57,1.75,2.03,1.17,3.25l0,0c-0.41,0.89-1.29,1.41-2.21,1.41l0,0C183.8,48.16,183.45,48.08,183.11,47.92z M96.44,45.37
		c-0.54-1.24,0.03-2.68,1.27-3.22l0,0l0,0l0,0c1.24-0.53,2.68,0.04,3.21,1.28l0,0c0.54,1.24-0.03,2.67-1.27,3.21l0,0
		c-0.31,0.14-0.64,0.2-0.97,0.2l0,0C97.74,46.83,96.84,46.29,96.44,45.37z M174.89,44.49c-1.27-0.46-1.92-1.86-1.46-3.13l0,0
		c0.46-1.27,1.87-1.92,3.14-1.45l0,0c1.26,0.46,1.91,1.86,1.45,3.13l0,0c-0.36,0.99-1.3,1.6-2.29,1.6l0,0
		C175.45,44.64,175.16,44.58,174.89,44.49z M104.89,41.92c-0.43-1.28,0.27-2.67,1.55-3.09l0,0c1.28-0.43,2.66,0.27,3.09,1.55l0,0
		c0.42,1.28-0.27,2.66-1.56,3.09l0,0c-0.25,0.08-0.51,0.12-0.77,0.12l0,0C106.18,43.58,105.22,42.94,104.89,41.92z M166.39,41.79
		c-1.3-0.34-2.07-1.68-1.72-2.99l0,0c0.35-1.3,1.69-2.07,2.99-1.72l0,0c1.3,0.34,2.08,1.69,1.73,2.99l0,0
		c-0.3,1.09-1.28,1.81-2.36,1.81l0,0C166.82,41.89,166.6,41.85,166.39,41.79z M113.61,39.23c-0.31-1.32,0.5-2.63,1.81-2.94l0,0
		c1.32-0.31,2.63,0.5,2.94,1.81l0,0c0.31,1.32-0.5,2.63-1.82,2.94h0.01c-0.19,0.05-0.38,0.07-0.57,0.07l0,0
		C114.87,41.1,113.87,40.35,113.61,39.23z M157.69,39.88c-1.33-0.24-2.21-1.51-1.98-2.83l0,0c0.24-1.33,1.5-2.22,2.83-1.99l0,0l0,0
		l0,0c1.33,0.24,2.22,1.5,1.98,2.83l0,0c-0.21,1.19-1.24,2.02-2.4,2.02l0,0C157.98,39.91,157.84,39.9,157.69,39.88z M122.53,37.31
		c-0.19-1.33,0.73-2.57,2.07-2.76l0,0c1.33-0.2,2.57,0.73,2.77,2.07l0,0c0.19,1.33-0.74,2.57-2.07,2.76l0,0
		c-0.12,0.02-0.24,0.03-0.35,0.03l0,0C123.75,39.41,122.71,38.53,122.53,37.31z M148.86,38.72c-1.34-0.12-2.34-1.3-2.22-2.65l0,0
		c0.12-1.34,1.3-2.34,2.64-2.22l0,0c1.35,0.12,2.34,1.3,2.23,2.65l0,0c-0.11,1.27-1.18,2.23-2.43,2.23l0,0
		C149.01,38.73,148.93,38.72,148.86,38.72z M131.59,36.19c-0.08-1.34,0.95-2.5,2.3-2.57l0,0c1.35-0.08,2.5,0.95,2.58,2.3l0,0
		c0.07,1.35-0.96,2.5-2.31,2.58l0,0c-0.04,0-0.09,0-0.13,0l0,0C132.74,38.5,131.66,37.49,131.59,36.19z M137.51,35.89
		c0-1.35,1.1-2.44,2.45-2.44l0,0c1.35,0,2.44,1.09,2.44,2.44l0,0c0,1.35-1.09,2.44-2.44,2.44l0,0
		C138.61,38.33,137.51,37.24,137.51,35.89z"/>
	<path class="st0" d="M139.96,279.92C62.79,279.92,0,217.13,0,139.96S62.79,0,139.96,0c77.17,0,139.96,62.79,139.96,139.96
		C279.92,217.13,217.13,279.92,139.96,279.92z M139.96,4.45C65.24,4.45,4.45,65.24,4.45,139.96s60.79,135.51,135.51,135.51
		c74.72,0,135.51-60.79,135.51-135.51S214.68,4.45,139.96,4.45z"/>
	<path class="st0" d="M139.96,208.92c-38.02,0-68.96-30.93-68.96-68.96S101.93,71,139.96,71c38.02,0,68.96,30.93,68.96,68.96
		S177.98,208.92,139.96,208.92z M139.96,74.85c-35.9,0-65.11,29.21-65.11,65.11s29.21,65.11,65.11,65.11
		c35.9,0,65.11-29.21,65.11-65.11S175.86,74.85,139.96,74.85z"/>
	<polygon class="st0" points="139.96,73.64 154.53,118.49 201.69,118.49 163.54,146.21 178.11,191.05 139.96,163.34 101.81,191.05 
		116.38,146.21 78.23,118.49 125.39,118.49 	"/>
</g>
</svg>
