<?xml version="1.0" encoding="iso-8859-1"?>
<!-- Generator: Adobe Illustrator 19.0.0, SVG Export Plug-In . SVG Version: 6.00 Build 0)  -->
<svg version="1.1" id="Layer_1" xmlns="http://www.w3.org/2000/svg" xmlns:xlink="http://www.w3.org/1999/xlink" x="0px" y="0px"
	 viewBox="0 0 512 512" style="enable-background:new 0 0 512 512;" xml:space="preserve">
<g>
	<path style="fill:#ECEEF0;" d="M478.979,424.057L422,438.782v0.011c-60.921,15.759-59.59,16.411-63.832,13.631
		c-6.291-4.067-4.813-13.76,2.515-15.661l48.599-12.569l-33.018-127.644c4.406,4.502,13.987,3.529,16.759-4.339l33.018,127.655
		l48.61-12.58c4.627-1.189,9.349,1.592,10.549,6.221C486.388,418.136,483.607,422.857,478.979,424.057"/>
	<path style="fill:#ECEEF0;" d="M158.9,505.133c-0.865,4.073-4.455,6.867-8.46,6.867c-0.6,0-1.2-0.058-1.8-0.184
		C25.257,485.816,31.925,487.748,29.398,485.444c-6.524-5.588-1.061-16.666,7.629-14.842l49.129,10.351l27.179-129.016
		c2.1,6.218,11.11,9.249,16.943,3.567c-4.92,23.321-1.573,7.44-27.191,129.017l49.13,10.352
		C156.892,495.864,159.882,500.447,158.9,505.133"/>
	<path style="fill:#ECEEF0;" d="M399.305,95.317c0,0-57.786,15.627-81.238-5.528c-17.237-15.531-43.459-15.91-58.017-12.071
		l-8.621-28.022c-3.238-10.961,3.295-22.408,14.322-25.251l35.466-9.175l56.538-14.623c11.108-2.867,22.454,4.083,24.825,15.396
		L399.305,95.317z"/>
	<path style="fill:#ECEEF0;" d="M243.72,103.488c-2.908,11.275-6.728,26.025-10.63,41.131l-0.011,0.013
		c-0.923,0.519-39.251,22.321-68.508,9.083c-21.056-9.518-49.638-6.064-66.142,0c13.993-85.495,12.512-82.167,17.174-87.769
		c4.483-5.446,11.984-8.502,19.712-6.879c38.587,8.134,19.355,4.081,93.009,19.598C239.546,81.024,246.616,92.279,243.72,103.488z"
		/>
</g>
<g>
	<path style="fill:#FFC20A;" d="M397.279,279.979c-0.135,0.389-4.416,12.685-4.281,12.297c-2.374,6.83-10.98,9.363-16.735,4.277
		c-12.955-11.591-38.716-33.043-62.415-72.271c-24.298-45.769-17.65-29.036-53.804-146.559c0,0,34.541-9.094,58.017,12.072
		c23.462,21.154,81.238,5.528,81.238,5.528C408.041,136.797,425.646,198.48,397.279,279.979"/>
	<path style="fill:#FFC20A;" d="M233.075,144.637c-5.424,20.992-11.045,42.702-14.692,56.817
		c-6.215,22.89-18.799,86.152-78.86,144.99c-0.116,0.114-9.414,9.227-9.298,9.113c-5.272,5.163-14.149,3.328-16.889-3.619
		l-4.812-12.026c-31.863-79.694-17.473-141.142-10.099-186.19c0,0,36.515-13.401,66.141,0
		C193.823,166.957,232.151,145.158,233.075,144.637"/>
</g>
<path style="fill:#D8D9DD;" d="M165.864,65.507c-15.58,20.97-34.75,57.544-38.894,82.518c-12.128,0.948-23.488,3.834-28.541,5.691
	c14.169-86.572,12.006-79.075,17.174-87.769c4.483-5.446,11.984-8.502,19.712-6.879L165.864,65.507z"/>
<g>
	<path style="fill:#F7B307;" d="M181.722,293.626c-11.818,19.17-25.967,36.908-42.194,52.812c-0.082,0.081-9.212,9.045-9.302,9.118
		c-5.649,5.536-14.794,2.702-16.885-3.625l-4.813-12.025c-31.863-79.676-17.474-141.141-10.099-186.18
		c0,0,12.361-4.535,28.541-5.691C118.042,202.004,137.862,257.658,181.722,293.626z"/>
	<path style="fill:#F7B307;" d="M411.48,215.137c-3.512,36.582-12.742,60.447-18.477,77.139c-2.6,7.459-12.006,8.999-16.735,4.271
		c-42.537-38.062-53.014-54.569-76.886-99.53c-10.154-21.995-11.413-28.542-39.332-119.299c0,0,16.089-4.236,33.77-0.196
		C299.347,143.385,346.609,199.291,411.48,215.137z"/>
</g>
<path style="fill:#D8D9DD;" d="M293.819,77.521c-11.425-2.543-24.49-2.249-33.77,0.196l-8.621-28.022
	c-2.043-6.914-0.208-14.034,4.236-19.054c5.007-5.732,6.897-5.381,43.047-14.726C294.341,42.155,292.164,58.185,293.819,77.521z"/>
<g>
</g>
<g>
</g>
<g>
</g>
<g>
</g>
<g>
</g>
<g>
</g>
<g>
</g>
<g>
</g>
<g>
</g>
<g>
</g>
<g>
</g>
<g>
</g>
<g>
</g>
<g>
</g>
<g>
</g>
</svg>
