<?xml version="1.0" encoding="utf-8"?>
<!-- Generator: Adobe Illustrator 24.1.1, SVG Export Plug-In . SVG Version: 6.00 Build 0)  -->
<svg version="1.1" id="Capa_1" xmlns="http://www.w3.org/2000/svg" xmlns:xlink="http://www.w3.org/1999/xlink" x="0px" y="0px"
	 viewBox="0 0 328.15 328.15" style="enable-background:new 0 0 328.15 328.15;" xml:space="preserve">
<style type="text/css">
	.st0{fill:#FFFFFF;}
</style>
<g>
	<g>
		<path class="st0" d="M213.33,20.4C199.73,6.8,181.9,0,164.07,0s-35.66,6.8-49.26,20.4l-94.41,94.41
			c-27.21,27.21-27.21,71.31,0,98.52l94.41,94.41c13.6,13.61,31.43,20.41,49.26,20.41c17.83,0,35.66-6.8,49.26-20.4l94.41-94.42
			c27.21-27.21,27.21-71.31,0-98.52L213.33,20.4z M130.2,292.36l-94.41-94.41c-9.05-9.05-14.03-21.08-14.03-33.87
			c0-12.8,4.98-24.83,14.03-33.87l94.41-94.41c9.05-9.05,21.08-14.03,33.87-14.03c12.8,0,24.83,4.98,33.87,14.03l94.42,94.41
			c9.05,9.05,14.03,21.08,14.03,33.87s-4.98,24.82-14.03,33.87l-94.41,94.41c-9.05,9.05-21.08,14.03-33.88,14.03
			C151.28,306.39,139.25,301.41,130.2,292.36z"/>
		<path class="st0" d="M259.92,208.24l-42.62-42.62l42.62-42.62l-54.28-54.28l-42.62,42.62l-42.62-42.62l-54.28,54.28l42.62,42.61
			l-42.62,42.62l54.28,54.28l42.62-42.62l42.62,42.62L259.92,208.24z M147.65,204.51l-27.23,27.23l-23.51-23.51l27.23-27.23
			l15.38-15.38l-15.38-15.38l-27.23-27.23l23.51-23.51l27.23,27.23l15.38,15.38l15.38-15.38l27.23-27.23l23.51,23.51l-27.23,27.23
			l-15.38,15.38l15.38,15.38l27.23,27.23l-23.51,23.51l-27.23-27.23l-15.38-15.38L147.65,204.51z"/>
	</g>
</g>
</svg>
