<?xml version="1.0" encoding="utf-8"?>
<!-- Generator: Adobe Illustrator 24.1.1, SVG Export Plug-In . SVG Version: 6.00 Build 0)  -->
<svg version="1.1" id="Capa_1" xmlns="http://www.w3.org/2000/svg" xmlns:xlink="http://www.w3.org/1999/xlink" x="0px" y="0px"
	 viewBox="0 0 47.44 47.44" style="enable-background:new 0 0 47.44 47.44;" xml:space="preserve">
<style type="text/css">
	.st0{fill:#FFFFFF;}
</style>
<g>
	<path class="st0" d="M45.8,15.91c-1.18-0.83-2.75-1.07-4.16-1.23c-2.99-0.32-6.06,0.02-9.02,0.46c-0.13,0.02-0.25,0.04-0.38,0.06
		c-0.24-1.57-0.57-3.13-0.98-4.65c-0.43-1.6-0.97-3.18-1.67-4.69c-0.63-1.35-1.45-2.7-2.6-3.67c-0.93-0.8-2.05-1.29-3.29-1.31
		c-0.01,0-0.01,0-0.02,0c-3.16,0.05-4.84,3.57-5.84,6.08c-1.01,2.56-1.66,5.27-2.13,7.97c-1.52-0.3-3.06-0.53-4.6-0.69
		c-2.87-0.3-6.18-0.52-8.87,0.74c-1.22,0.57-2.05,1.64-2.21,2.98c-0.19,1.61,0.54,3.27,1.47,4.54c2.03,2.77,5.18,4.63,8.23,6.07
		c0.53,0.25,1.07,0.49,1.61,0.72c-0.76,1.53-1.46,3.1-2.09,4.69c-0.61,1.56-1.15,3.15-1.52,4.77c-0.34,1.5-0.55,3.06-0.27,4.58
		c0.25,1.37,1.14,2.45,2.46,2.89c1.46,0.49,3.09,0,4.44-0.58c3.07-1.32,5.75-3.6,8.18-5.85c0.4-0.37,0.79-0.76,1.18-1.15
		c1.27,1.23,2.6,2.41,3.98,3.51c1.35,1.08,2.75,2.11,4.26,2.96c1.27,0.72,2.7,1.36,4.18,1.41c1.41,0.04,2.63-0.76,3.25-2.01
		c0.72-1.46,0.63-3.13,0.39-4.69c-0.49-3.21-1.89-6.32-3.34-9.2c-0.12-0.23-0.25-0.46-0.37-0.69c1.7-0.84,3.34-1.81,4.91-2.87
		c1.48-1,2.93-2.11,4.16-3.41c1.12-1.19,2.07-2.59,2.28-4.24C47.6,17.99,46.97,16.74,45.8,15.91z M3.43,16.65
		C3.45,16.64,3.45,16.64,3.43,16.65L3.43,16.65z M45.42,19.32c-0.02,0.13-0.05,0.26-0.09,0.39c-0.04,0.14-0.09,0.27-0.14,0.41
		c-0.02,0.04-0.04,0.1-0.05,0.11c-0.05,0.1-0.1,0.2-0.15,0.3c-0.17,0.32-0.36,0.61-0.57,0.9c-0.01,0.01-0.09,0.11-0.1,0.14
		c-0.05,0.06-0.1,0.12-0.15,0.18c-0.15,0.17-0.3,0.34-0.45,0.51c-0.58,0.63-1.23,1.2-1.9,1.75c-2.06,1.68-4.69,3.21-7.2,4.44
		c-0.14,0.07-0.28,0.14-0.42,0.2c-0.5,0.23-0.61,0.93-0.36,1.37c0.33,0.58,0.63,1.17,0.93,1.77c0.31,0.63,0.61,1.26,0.9,1.9
		c0.35,0.78,0.57,1.3,0.89,2.15c0.31,0.81,0.59,1.64,0.82,2.48c0.11,0.4,0.21,0.79,0.3,1.19c0.04,0.19,0.08,0.39,0.12,0.59
		c0.02,0.1,0.03,0.19,0.05,0.29c0.01,0.05,0.02,0.11,0.02,0.17c0,0.02,0,0.02,0.01,0.04c0.04,0.37,0.07,0.73,0.08,1.1
		c0,0.17,0,0.35-0.01,0.52c0,0.08-0.01,0.17-0.02,0.25c-0.01,0.06-0.01,0.08-0.01,0.1c0,0,0,0.01-0.01,0.04
		c-0.05,0.31-0.13,0.6-0.24,0.89c-0.01,0.01-0.01,0.02-0.02,0.03c-0.03,0.07-0.07,0.13-0.1,0.19c-0.03,0.06-0.07,0.12-0.11,0.18
		c-0.03,0.04-0.03,0.05-0.04,0.06c-0.01,0,0,0-0.02,0.02c-0.09,0.11-0.19,0.21-0.3,0.31c0,0,0,0,0,0c-0.05,0.03-0.1,0.06-0.15,0.09
		c-0.03,0.02-0.06,0.03-0.09,0.04c-0.02,0.01-0.04,0.02-0.05,0.02c-0.06,0.02-0.25,0.06-0.31,0.08c-0.22,0.02-0.45,0.01-0.67-0.01
		c-0.01,0-0.01,0-0.03-0.01c-0.07-0.01-0.14-0.03-0.22-0.04c-0.17-0.04-0.35-0.08-0.52-0.13c-0.15-0.05-0.31-0.1-0.46-0.15
		c-0.08-0.03-0.16-0.06-0.24-0.09c-0.03-0.01-0.06-0.02-0.07-0.03c-0.01,0-0.01,0-0.01-0.01c-0.36-0.16-0.71-0.33-1.06-0.52
		c-0.72-0.39-1.42-0.83-2.1-1.3c-1.37-0.94-2.48-1.84-3.78-2.96c-0.86-0.75-1.71-1.53-2.53-2.33c-0.13-0.13-0.26-0.26-0.4-0.39
		c-0.38-0.38-1.04-0.39-1.41,0c-1.51,1.59-3.17,3.06-4.9,4.42c-1.18,0.93-2.73,1.99-4.22,2.71c-0.53,0.26-1.2,0.51-1.95,0.67
		c-0.05,0.01-0.1,0.02-0.15,0.03c-0.03,0.01-0.12,0.02-0.14,0.02c-0.15,0.02-0.3,0.02-0.46,0.02c-0.05,0-0.24-0.02-0.31-0.02
		c-0.14-0.02-0.27-0.05-0.41-0.1c-0.02-0.01-0.06-0.02-0.1-0.04c-0.04-0.02-0.07-0.03-0.11-0.05c-0.05-0.02-0.18-0.11-0.23-0.14
		c-0.07-0.06-0.14-0.12-0.2-0.19c-0.01-0.01-0.01-0.02-0.02-0.03c-0.04-0.05-0.07-0.11-0.11-0.17c-0.02-0.04-0.09-0.18-0.12-0.24
		c-0.04-0.1-0.07-0.2-0.1-0.3c-0.04-0.13-0.07-0.27-0.09-0.41c0-0.02-0.01-0.05-0.01-0.08c-0.01-0.08-0.02-0.16-0.02-0.24
		c-0.02-0.32-0.02-0.64,0-0.96c0.01-0.17,0.02-0.34,0.04-0.51c0.01-0.09,0.02-0.18,0.03-0.26c0-0.03,0-0.03,0.01-0.05
		c0.01-0.04,0.01-0.09,0.02-0.13c0.12-0.79,0.31-1.58,0.52-2.35c0.44-1.6,1.03-3.17,1.66-4.7c0.01-0.02,0.13-0.3,0.04-0.1
		c0.03-0.08,0.07-0.17,0.11-0.25c0.07-0.16,0.14-0.33,0.21-0.49c0.14-0.33,0.29-0.65,0.44-0.97c0.23-0.49,0.46-0.98,0.7-1.47
		c0.15-0.3,0.29-0.59,0.45-0.88c0.32-0.6,0.02-1.25-0.6-1.47c-0.17-0.06-0.34-0.13-0.51-0.19c-0.09-0.03-0.17-0.07-0.26-0.1
		c-0.03-0.01-0.1-0.04-0.16-0.07c-0.25-0.11-0.5-0.22-0.74-0.33c-1.4-0.63-2.76-1.35-4.06-2.17c-1.46-0.92-2.72-1.89-3.86-3.26
		c-0.15-0.18-0.38-0.5-0.59-0.83c-0.1-0.16-0.19-0.33-0.28-0.5c-0.04-0.08-0.08-0.17-0.12-0.25c-0.01-0.03-0.01-0.03-0.02-0.04
		c-0.02-0.05-0.04-0.1-0.06-0.15c-0.12-0.33-0.21-0.66-0.27-1.01c0-0.04-0.02-0.15-0.02-0.16c-0.01-0.09-0.01-0.18-0.02-0.28
		c0-0.07,0.02-0.32,0.02-0.38c0.02-0.09,0.04-0.19,0.07-0.28c0.01-0.03,0.02-0.05,0.03-0.08c0.01-0.03,0.02-0.05,0.03-0.07
		c0.04-0.08,0.09-0.15,0.14-0.22c0.03-0.02,0.16-0.19,0.21-0.24c0.04-0.04,0.09-0.08,0.14-0.12c0,0,0,0,0,0
		c0.1-0.07,0.21-0.14,0.32-0.2c0.12-0.07,0.24-0.13,0.36-0.18c0.01,0,0.03-0.01,0.04-0.02c0.08-0.03,0.16-0.06,0.25-0.09
		c0.29-0.1,0.58-0.18,0.88-0.25c0.16-0.03,0.32-0.07,0.48-0.09c0.08-0.01,0.16-0.03,0.24-0.04c0.07-0.01,0.09-0.01,0.11-0.02
		c-0.02,0-0.03,0,0.04,0c0.74-0.09,1.49-0.12,2.24-0.12c1.53,0,3.06,0.13,4.57,0.32c0.08,0.01,0.16,0.02,0.25,0.03
		c0.01,0,0.03,0,0.07,0.01c0.16,0.02,0.32,0.05,0.48,0.07c0.32,0.05,0.64,0.1,0.96,0.15c0.49,0.08,0.98,0.17,1.46,0.26
		c0.3,0.06,0.59,0.11,0.88,0.18c0.48,0.11,1.15-0.14,1.23-0.7c0.28-1.96,0.72-3.91,1.25-5.81c0.44-1.57,0.97-3.09,1.62-4.41
		c0.32-0.65,0.69-1.28,1.12-1.86c0.03-0.03,0.06-0.07,0.07-0.09c0.05-0.06,0.1-0.12,0.16-0.18c0.1-0.12,0.21-0.23,0.32-0.34
		c0.11-0.11,0.22-0.2,0.33-0.3c0.01-0.01,0,0,0.01-0.01c0.01-0.01,0,0,0.02-0.01c0.08-0.06,0.15-0.11,0.23-0.16
		c0.1-0.06,0.2-0.11,0.3-0.17c0.01-0.01,0.03-0.02,0.05-0.02c0.05-0.02,0.09-0.04,0.14-0.05c0.09-0.03,0.19-0.05,0.28-0.07
		c0.03,0,0.25-0.03,0.31-0.03c0.06,0,0.29,0.02,0.34,0.02c0.12,0.02,0.24,0.04,0.35,0.07c0.12,0.03,0.24,0.08,0.35,0.12
		c-0.01,0.01,0.29,0.14,0.35,0.18c0.13,0.07,0.26,0.16,0.38,0.25c0.02,0.01,0.01,0.01,0.03,0.02c0.01,0.01,0,0,0.02,0.01
		c0.06,0.05,0.12,0.1,0.18,0.15c0.27,0.23,0.5,0.49,0.73,0.76c0.01,0.01,0.09,0.11,0.1,0.12c0.04,0.05,0.07,0.1,0.11,0.15
		c0.1,0.14,0.2,0.29,0.3,0.43c0.22,0.33,0.41,0.68,0.6,1.02c0.18,0.33,0.34,0.68,0.5,1.02c0.13,0.28,0.25,0.59,0.41,1.02
		c0.93,2.48,1.52,5.11,1.91,7.73c0.01,0.08,0.02,0.16,0.03,0.24c0.01,0.05,0.01,0.09,0.02,0.14c0.08,0.67,0.58,1.1,1.27,0.96
		c0.6-0.11,1.2-0.21,1.81-0.3c0.12-0.02,0.24-0.03,0.36-0.05c0.08-0.01,0.26-0.03,0.31-0.04c0.35-0.05,0.71-0.09,1.07-0.12
		c0.76-0.08,1.53-0.14,2.3-0.18c0.81-0.05,1.62-0.06,2.43-0.05c0.38,0.01,0.76,0.03,1.15,0.05c0.19,0.01,0.37,0.03,0.56,0.05
		c0.09,0.01,0.18,0.02,0.27,0.03c0.06,0.01,0.08,0.01,0.09,0.01c0.03,0,0.06,0.01,0.09,0.01c0.68,0.1,1.35,0.26,1.99,0.51
		c0,0,0,0,0,0c0.01,0,0.01,0.01,0.03,0.01c0.07,0.03,0.13,0.06,0.19,0.09c0.13,0.06,0.24,0.13,0.36,0.21
		c0.06,0.03,0.11,0.07,0.16,0.11c0.01,0,0,0,0.01,0.01c0.11,0.09,0.22,0.2,0.31,0.31c0.03,0.05,0.06,0.1,0.09,0.15
		c0.03,0.05,0.06,0.1,0.08,0.15c0.04,0.12,0.07,0.24,0.1,0.36c0,0,0,0,0,0.01c0,0.01,0,0.01,0,0.03c0.01,0.1,0.01,0.2,0.01,0.3
		C45.45,19.04,45.42,19.27,45.42,19.32z M34.29,22.54c-1.99,1.44-3.97,2.88-5.95,4.33c0.77,2.36,1.53,4.72,2.3,7.09
		c0.16,0.47-0.45,0.99-0.88,0.68c-2.02-1.47-4.04-2.93-6.05-4.4c-2.02,1.47-4.03,2.93-6.05,4.4c-0.43,0.31-1.04-0.2-0.88-0.68
		c0.77-2.36,1.53-4.73,2.3-7.09c-1.99-1.44-3.97-2.88-5.95-4.33c-0.46-0.33-0.34-1.12,0.3-1.12c2.47,0,4.95,0,7.42,0
		c0.75-2.32,1.5-4.63,2.26-6.94c0.01-0.2,0.14-0.34,0.31-0.43c0.02-0.01,0.05-0.02,0.08-0.03c0.04-0.01,0.07-0.02,0.11-0.03
		c0.04-0.01,0.07-0.01,0.11-0.01c0.04,0,0.08,0.01,0.11,0.01c0.04,0.01,0.07,0.01,0.11,0.03c0.03,0.01,0.05,0.02,0.08,0.03
		c0.17,0.08,0.29,0.23,0.31,0.42c0.75,2.31,1.5,4.63,2.26,6.95c2.47,0,4.95,0,7.42,0C34.63,21.42,34.75,22.2,34.29,22.54z"/>
</g>
</svg>
