<?xml version="1.0" encoding="utf-8"?>
<!-- Generator: Adobe Illustrator 24.1.1, SVG Export Plug-In . SVG Version: 6.00 Build 0)  -->
<svg version="1.1" id="Capa_1" xmlns="http://www.w3.org/2000/svg" xmlns:xlink="http://www.w3.org/1999/xlink" x="0px" y="0px"
	 viewBox="0 0 49 49" style="enable-background:new 0 0 49 49;" xml:space="preserve">
<style type="text/css">
	.st0{fill:#FFFFFF;}
</style>
<g>
	<path class="st0" d="M24.5,22c-1.57,0-3.08,0.26-4.5,0.72V0l4.5,6L29,0v22.72C27.58,22.26,26.07,22,24.5,22z M37,36.5
		C37,43.39,31.39,49,24.5,49S12,43.39,12,36.5c0-5.31,3.33-9.84,8-11.65c1.4-0.54,2.91-0.85,4.5-0.85s3.1,0.31,4.5,0.85
		C33.67,26.66,37,31.19,37,36.5z M27.19,38.08l4.36-3.17h-5.39l-1.66-5.13l-1.67,5.13h-5.39l4.36,3.17l-1.67,5.13l4.36-3.17
		l4.36,3.17L27.19,38.08z"/>
</g>
</svg>
