<?xml version="1.0"?>
<svg xmlns="http://www.w3.org/2000/svg" xmlns:xlink="http://www.w3.org/1999/xlink" version="1.1" id="Layer_1" x="0px" y="0px" viewBox="0 0 511.998 511.998" style="enable-background:new 0 0 511.998 511.998;" xml:space="preserve" width="512px" height="512px"><g><g>
	<g>
		<path d="M510.639,401.269c-3.532-7.964-12.853-11.557-20.817-8.025l-36.909,16.37l-14.47-25.414l-0.093-80.704l32.573-33.885    c1.287-1.34,2.276-2.936,2.901-4.686l20.426-57.148c2.445-6.837-1.117-14.36-7.955-16.804c-6.833-2.442-14.36,1.118-16.804,7.955    l-19.478,54.493l-24.532,25.519H382.87l-29.705-18.163l-35.784-39.735c-4.86-5.395-13.17-5.829-18.567-0.972    c-5.395,4.86-5.831,13.171-0.972,18.567l37.097,41.194c0.871,0.966,1.881,1.799,2.996,2.47l30.778,18.503l0.091,79.191    l-24.267,52.704c-2.078,4.515-1.907,9.746,0.46,14.115l30.775,56.78c4.152,7.658,13.722,10.506,21.388,6.353    c7.659-4.152,10.503-13.727,6.353-21.388l-27.013-49.838l21.932-47.773l7.813-0.009l26.311,46.686    c4.006,7.039,12.694,9.901,20.105,6.615l49.953-22.156C510.58,418.553,514.172,409.233,510.639,401.269z" data-original="#000000" class="active-path" data-old_color="#000000" fill="#FFFFFF"/>
	</g>
</g><g>
	<g>
		<circle cx="402.703" cy="238.59" r="32.557" data-original="#000000" class="active-path" data-old_color="#000000" fill="#FFFFFF"/>
	</g>
</g><g>
	<g>
		<circle cx="156.214" cy="81.683" r="40.753" data-original="#000000" class="active-path" data-old_color="#000000" fill="#FFFFFF"/>
	</g>
</g><g>
	<g>
		<path d="M311.508,49.074c-7.396-6.66-18.788-6.064-25.448,1.331l-53.731,59.665l-43.312,26.038h-64.304l-39.87-42.099    L55.569,12.101C52.22,2.73,41.908-2.151,32.536,1.197c-9.372,3.35-14.254,13.662-10.904,23.032l30.575,85.544    c0.858,2.398,2.212,4.586,3.979,6.423l47.57,49.487l-0.153,133.871L84.07,361.237l-71.158,36.201    c-11.624,5.915-16.254,20.132-10.34,31.756c5.914,11.623,20.128,16.254,31.756,10.34l79.978-40.688    c5.642-2.87,9.894-7.886,11.805-13.92l25.745-81.312l11.646,0.013c0.203,0.542,34.917,76.048,34.917,76.048l-13.924,105.47    c-1.859,14.077,9.069,26.708,23.44,26.708c11.668,0,21.813-8.645,23.382-20.526l14.818-112.237    c0.583-4.421-0.096-8.916-1.961-12.967l-36.254-78.894V166.752l45.282-27.181c1.528-0.918,2.912-2.059,4.106-3.384l55.531-61.664    C319.499,67.127,318.903,55.733,311.508,49.074z" data-original="#000000" class="active-path" data-old_color="#000000" fill="#FFFFFF"/>
	</g>
</g></g> </svg>
