<?xml version="1.0" encoding="utf-8"?>
<!-- Generator: Adobe Illustrator 24.1.1, SVG Export Plug-In . SVG Version: 6.00 Build 0)  -->
<svg version="1.1" id="Capa_1" xmlns="http://www.w3.org/2000/svg" xmlns:xlink="http://www.w3.org/1999/xlink" x="0px" y="0px"
	 viewBox="0 0 361.54 361.54" style="enable-background:new 0 0 361.54 361.54;" xml:space="preserve">
<style type="text/css">
	.st0{fill:#FFFFFF;}
</style>
<g>
	<g>
		<path class="st0" d="M75.97,361.54h209.6c41.96,0,75.97-34.01,75.97-75.97V75.97C361.54,34.01,327.52,0,285.57,0H75.97
			C34.02,0,0,34.01,0,75.97v209.59C0.01,327.53,34.02,361.54,75.97,361.54z M24.6,75.97c0-28.33,23.05-51.37,51.38-51.37h209.6
			c28.33,0,51.38,23.05,51.38,51.37v209.59c0,28.33-23.05,51.38-51.38,51.38H75.97c-28.33,0-51.37-23.05-51.37-51.38L24.6,75.97
			L24.6,75.97z"/>
		<path class="st0" d="M206.14,75.86c-3.55,5.25-12.01,5.31-18.12,5.31c-6.2,0-14.82-0.08-18.27-5.59
			c-17.27,7.04-29.46,23.98-29.46,43.78v186.6c0,0,46.43,29.24,94.59,0V119.38C234.88,99.85,223.04,83.08,206.14,75.86z"/>
		<path class="st0" d="M118.24,208.44c1.72-0.79,3.63-1.26,5.71-1.26c1.06,0,2.07,0.15,3.05,0.36c1.66-1.5,2.6-3.76,1.86-6.58
			C115.42,149.91,95.3,69.78,168.9,65.47c1.11-0.06,2.16-0.17,3.32-0.2c0,0,0.01,0,0.01,0.01c0.77,0.71,1.66,1.28,2.61,1.75
			c-0.29,0.89-0.5,1.81-0.5,2.78c0,1.65,0.44,2.85,1.94,3.69c1.83,1.04,5.27,1.53,11.76,1.53c6.18,0,9.6-0.43,11.5-1.36
			c0.7-0.35,1.19-0.76,1.52-1.25l3.12,0.56l3.17,0.57l24.08,4.3c0.37,0.07,0.72,0.1,1.08,0.1c2.93,0,5.51-2.09,6.05-5.07
			c0.6-3.35-1.63-6.54-4.98-7.13l-23.49-4.2l21.51-12.27c2.95-1.69,3.98-5.44,2.3-8.39c-1.68-2.96-5.45-3.98-8.38-2.3l-28.3,16.14
			l-3.42,1.94l-2.62,1.49l-0.2-0.04c-0.16-0.03-0.3,0.03-0.46,0.01c0.02-0.29,0.08-0.57,0.08-0.87c0-0.44-0.08-0.87-0.13-1.3
			c-0.13-1.1-0.39-2.16-0.82-3.14c-1.7-3.84-5.54-6.53-10.01-6.53c-3.98,0-7.43,2.14-9.35,5.31C83.74,54.96,99.37,143,115.6,204.63
			C116.08,206.41,117.05,207.65,118.24,208.44z"/>
		<path class="st0" d="M123.96,213.33c-3.44,0-6.88,2.22-6.88,6.65v22.36c0,4.43,3.44,6.65,6.88,6.65c3.44,0,6.88-2.22,6.88-6.65
			v-22.36C130.84,215.55,127.39,213.33,123.96,213.33z"/>
	</g>
</g>
</svg>
