<?xml version="1.0" encoding="iso-8859-1"?>
<!-- Generator: Adobe Illustrator 19.0.0, SVG Export Plug-In . SVG Version: 6.00 Build 0)  -->
<svg version="1.1" id="Layer_1" xmlns="http://www.w3.org/2000/svg" xmlns:xlink="http://www.w3.org/1999/xlink" x="0px" y="0px"
	 viewBox="0 0 512 512" style="enable-background:new 0 0 512 512;" xml:space="preserve">
<path style="fill:#464655;" d="M509.435,448.962L271.75,44.367c-7.076-12.045-24.424-12.045-31.5,0L2.565,448.962
	c-7.194,12.245,1.595,27.705,15.75,27.705h475.368C507.839,476.666,516.629,461.207,509.435,448.962z"/>
<path style="fill:#5B5D6E;" d="M310.09,109.633c-75.525,54.5-124.731,143.208-124.731,243.46c0,44.069,9.578,85.877,26.64,123.573
	h281.685c14.155,0,22.944-15.459,15.75-27.705L310.09,109.633z"/>
<path style="fill:#FFDC64;" d="M252.195,93.738L53.788,431.474c-2.57,4.374,0.585,9.885,5.658,9.885h393.11
	c5.073,0,8.228-5.511,5.658-9.885L259.805,93.738C258.099,90.834,253.901,90.834,252.195,93.738z"/>
<path style="fill:#FFF082;" d="M185.36,353.093c0,30.722,4.638,60.357,13.216,88.267h253.98c5.073,0,8.228-5.511,5.658-9.885
	L282.389,132.181C222.755,187.029,185.36,265.683,185.36,353.093z"/>
<path style="fill:#FFC850;" d="M452.556,450.186H59.442c-5.499,0-10.62-2.966-13.353-7.741c-2.733-4.78-2.698-10.697,0.086-15.442
	L244.587,89.258c2.405-4.086,6.672-6.525,11.422-6.525c4.741,0,9.008,2.439,11.413,6.525l198.401,337.744
	c2.784,4.75,2.819,10.667,0.086,15.442C463.176,447.22,458.055,450.186,452.556,450.186z M63.399,432.533h385.201L255.998,104.684
	L63.399,432.533z"/>
<path style="fill:#FFDC64;" d="M448.599,432.533H196.069c1.633,5.964,3.455,11.844,5.441,17.653h251.048
	c5.499,0,10.62-2.966,13.353-7.741c2.733-4.775,2.698-10.692-0.086-15.442L289.135,126.224c-4.553,3.944-9,8.005-13.307,12.212
	L448.599,432.533z"/>
<path style="fill:#464655;" d="M298.451,249.104c0,0-20.136,3.586-32.916,26.02c0,0-11.769-24.089-9.509-70.497
	c0,0-70.613,61.787-70.613,150.053c0,23.843,11.861,47.301,29.969,60.524c3.037,2.218,7.333,1.428,9.425-1.697l0.025-0.038
	c1.336-1.996,1.563-4.599,0.384-6.691c-2.81-4.982-4.496-10.656-4.496-16.793c0-44.133,35.307-70.613,35.307-70.613
	s3.532,14.688,17.659,34.627c10.883,15.361,17.648,23.262,17.648,35.986c0,6.164-1.697,11.864-4.529,16.862
	c-1.185,2.091-0.959,4.697,0.376,6.695c2.091,3.126,6.383,3.919,9.424,1.705c18.146-13.217,30.036-36.696,30.036-60.568
	C326.64,310.546,291.556,303.443,298.451,249.104z"/>
<g>
</g>
<g>
</g>
<g>
</g>
<g>
</g>
<g>
</g>
<g>
</g>
<g>
</g>
<g>
</g>
<g>
</g>
<g>
</g>
<g>
</g>
<g>
</g>
<g>
</g>
<g>
</g>
<g>
</g>
</svg>
