<?xml version="1.0" encoding="utf-8"?>
<!-- Generator: Adobe Illustrator 24.1.1, SVG Export Plug-In . SVG Version: 6.00 Build 0)  -->
<svg version="1.1" id="Capa_1" xmlns="http://www.w3.org/2000/svg" xmlns:xlink="http://www.w3.org/1999/xlink" x="0px" y="0px"
	 viewBox="0 0 324.99 324.99" style="enable-background:new 0 0 324.99 324.99;" xml:space="preserve">
<style type="text/css">
	.st0{fill:#FFFFFF;}
</style>
<g>
	<g>
		<path class="st0" d="M59.07,206.26c2.22,7.09,8.01,13.4,15.27,18.87c1.25-5.79,3.04-11.37,5.33-16.69
			c-5.66-21.64-5.19-38.8-3.88-36.02c2.27,4.8,5.04,8.24,8.15,10.81c2.47,2.04,5.18,3.52,8.03,4.69c3.13-3.95,6.59-7.61,10.31-10.99
			c6.47-5.88,13.78-10.84,21.74-14.68c-0.08-5.81-0.98-11.73-3.37-17.92c-0.61-1.57,10.97,5.49,17.26,12.51
			c0.46-0.14,0.93-0.23,1.39-0.36c5.57-40.12,24.95-67.02,24.95-67.02s-12.57,31.33,1.69,63.75c14.8,0.38,28.76,4.2,41.02,10.84
			c6.98-15.22,9.83-26.5,9.83-26.5c7.94,10.54,9.75,24.75,8.4,39.58c1.68,1.53,3.31,3.12,4.87,4.77
			c10.55-3.74,20.98-5.24,25.36-18.62c1.07-3.26,5.01,25.77-5.1,52.45c0.98,2.96,1.83,5.97,2.51,9.06
			c11.05-12.17,19.53-27.06,19.53-44.12c0-35.83-14.07-28.72-5.24-51.58c0.77-1.98-10.68,9.14-17.71,19.54
			c-6.96-21.47-19.81-58.11-43.07-78.62c0,0,12.69,32.29-12.04,66.08c0,0,8.68-20.8-5.54-64.76S207.38,0,207.38,0
			s-78.74,45.36-98.29,130.84c-8.22-11.83-19.8-22.7-18.98-20.59c6.34,16.43,0.11,33.16-3.81,50.22
			c-18.34-16.27-35.59-24.18-33.49-21.6C70.9,161.11,50.71,179.59,59.07,206.26z"/>
		<path class="st0" d="M223.23,190.46c-1.12-1.24-2.25-2.47-3.44-3.64c-5.24-5.1-11.14-9.52-17.61-13.05
			c-9.18-5.01-19.42-8.29-30.32-9.4c-2.7-0.27-5.45-0.41-8.22-0.41c-14.79,0-28.62,4.06-40.53,11.02c-5.14,3-9.9,6.55-14.23,10.58
			c-1.96,1.82-3.82,3.73-5.59,5.73c-3.46,3.93-6.55,8.19-9.2,12.74c-3.9,6.7-6.86,14.01-8.7,21.76c-0.46,1.91-0.83,3.85-1.14,5.81
			c-0.67,4.2-1.12,8.47-1.12,12.86c0,44.47,36.05,80.52,80.52,80.52s80.52-36.05,80.52-80.52c0-3.54-0.3-7.01-0.75-10.43
			c-0.15-1.19-0.34-2.37-0.54-3.54C240.19,215.24,233.22,201.47,223.23,190.46z M163.63,302.09c-25.21,0-46.57-16.44-53.99-39.18
			c-1.82-5.56-2.83-11.48-2.83-17.64c0-0.99,0.1-1.96,0.15-2.94c0.37-7.24,2.07-14.13,4.91-20.41c1.82-4.03,4.1-7.79,6.77-11.26
			c0.7-0.91,1.43-1.81,2.18-2.67c2.33-2.68,4.91-5.14,7.7-7.34c9.67-7.62,21.85-12.21,35.12-12.21c6.91,0,13.5,1.29,19.62,3.55
			c2.06,0.76,4.07,1.62,6.01,2.6c7.48,3.8,14.01,9.18,19.13,15.74c2.4,3.08,4.48,6.41,6.22,9.95c3.7,7.55,5.84,16,5.84,24.98
			c0,1.88-0.1,3.74-0.28,5.57c-0.01,0.1-0.02,0.21-0.02,0.32C217.21,279.77,193.03,302.09,163.63,302.09z"/>
	</g>
</g>
</svg>
