<svg id="Layer_1" data-name="Layer 1" xmlns="http://www.w3.org/2000/svg" viewBox="0 0 1034.73 650.31"><g id="layer1"><path id="path1679" d="M108.17,832.69c2.48-21.18,19.83-42.5,25-64.93,4-28.29-31.81,1.53-40.66,9.34-16.62,15-36.17,39.85-59,19.08-19.69-10-43.29-27.31-28.52-51.41,4.34-13,25.57-12.4,36.48-15.47,23.43,10.17,32.25-24.24,47.3-33.3,13.61-16.72,31-28.56,47.71-42.64,39.79-30,75.88-64.51,109.63-101.17,29.5-29.77,59.36-59.23,88.85-89,16.71-14.46,35.72-31.14,59.45-28.36,9.48-12.3,20.53-25.19,35.18-32.41,24.24-17.9,60.8-6.57,75.73,18.17C543,477,562.66,543,580.11,607.8c3.7,12,8.69,23.41,13.55,34.84,12.08-9.9,28.16-13.66,39.81-23.55,11.15-18.81.25-42.21,9.56-62.11-12.39-12.45-23.11-30.59-21-50.34,1.84-22.79,30.76-29.62,46.85-41.19,21.69-11.78,40.42-28,59.06-44-2.25-14.24,2.71-29,13.72-38.45-7.28-14-19.47-25.53-21.18-42.11-4.62-14.58-10.34-27.88-15.28-43.06-10.25-21.18,2.12-44.91,12.28-63.53,11.59-17.49,31.5-29.2,51.62-32.33,30.16-4.63,56.45,18.82,70.22,43.57C858.29,282.3,871,321.9,885.91,360.38c5.88,18.34,5.77,34.54,10.27,53,8.15,25.18,11.09,51.75,21.41,76.26-1.82,9.44,12.68,23.6,9.17,24.2-6.24,8.42-4.34,35.57-24,25.37a104.54,104.54,0,0,0-18.87,47.53c-4.07,21.18-8.71,41.94,1.83,62.42,14,42.78,12.89,88.2,21.61,132.1,3.71,25.08,32.52,22.57,51.34,26.47,21.52,3.48,43.6,4,64.11,12.4,11.07,5.29,20.12,14.91,1.45,12.4-14.59-1.39-39.69,1.53-48.35-.83-1.5-8.78-12-7.39-17.43-7.11C984,848,948.05,832,937.62,832.69c-13.92-1.11-27.87-.42-41.8-.14-14.36-14.07-20.78-33-25.7-52-14.66-46.68-31.81-92.38-45.27-139.48-5.85-10.45-2-34.27-7.58-37.76-2.91,9.62-14.91,16.17-11.9,27,3.83,50.58,3.72,101.3,4.47,151.88,14.23,5.3,34.63,6.13,45.54,15.88,16.12,10.32,3.41,15-5.42,12.13-20.06-3.9-37.55,1.67-54.54,1.81-13.79,4-22.08-12.4-25.89-27.59-1.68-27.59-2.77-55.6-10.35-82.21-14.39,13.93-24.72,33.58-38.54,48.91-16.7,19.64-27.1,43.47-42.41,64.09C644.37,859.58,526.06,862.51,503,829.21c-14.55-14.35-24.9-41.53-35.87-59.36C439,721.08,413.27,670.36,397.88,616c-8.07-12.82-25.71,19.37-37.19,25.5-11.06,12.82-38.77,26.47-19.13,44.31,0,15.74,19.44,14.07,7.76,30-14.46,34-22.75,70.5-23.35,107.43-16.79-1.12-2.13-32.19-9.07-44.45C320,759,306,730.84,294,761.49c-12.29,18.39-15.87,40.55-24.65,60.33-20.14,6-33.77-.83-51.72.84-8.52.69-25.61-4-20-19.51-11-19.65,10.85-32.74,28.54-38.6,18-11.56,11.6-36.22,20-53.22,1.62-19.51,14.65-37.2,23.86-54.76-1.27-9.89-26.28,8.78-36.1,11-13.17,10.73-43.85,13.65-40.34,34.83,5.46,12.4-8.47,29.12,2.55,35.53-22.88,20.76-46.21,41.66-64.88,66.6C121.68,809.84,118.26,836.17,108.17,832.69Z" transform="translate(-0.27 -201.38)" fill="#fff"/></g></svg>