<?xml version="1.0" encoding="iso-8859-1"?>
<!-- Generator: Adobe Illustrator 19.0.0, SVG Export Plug-In . SVG Version: 6.00 Build 0)  -->
<svg version="1.1" id="Layer_1" xmlns="http://www.w3.org/2000/svg" xmlns:xlink="http://www.w3.org/1999/xlink" x="0px" y="0px"
	 viewBox="0 0 511.998 511.998" style="enable-background:new 0 0 511.998 511.998;" xml:space="preserve">
<path style="fill:#FC3842;" d="M179.421,89.863c-6.458,2.035-13.552,2.252-20.401,0.387L13.215,477.321h176.74l67.709-179.747
	L179.421,89.863z"/>
<path style="fill:#EF2235;" d="M179.421,89.863c-6.458,2.035-13.552,2.252-20.401,0.387L13.215,477.321h34.131l139.013-369.039
	L179.421,89.863z"/>
<polygon style="fill:#FFCA54;" points="99.46,248.365 249.398,319.52 257.665,297.574 250.642,278.932 112.621,213.429 "/>
<polygon style="fill:#F9B24B;" points="112.621,213.429 99.46,248.365 128.416,262.104 141.575,227.17 "/>
<polygon style="fill:#FFCA54;" points="129.289,169.181 226.717,215.417 207.827,165.272 142.449,134.246 "/>
<polygon style="fill:#F9B24B;" points="142.449,134.246 129.289,169.181 158.243,182.921 171.403,147.985 "/>
<polyline style="fill:#FFCA54;" points="176.573,337.117 82.792,292.611 69.634,327.547 219.572,398.704 232.731,363.768 
	202.018,349.192 "/>
<path style="fill:#F9B24B;" d="M82.792,292.611c-7.246,19.235-4.488,11.914-13.159,34.936l28.955,13.741l13.16-34.936
	L82.792,292.611z"/>
<polygon style="fill:#FFCA54;" points="52.965,371.795 39.805,406.73 188.552,477.321 189.956,477.321 202.902,442.952 "/>
<polygon style="fill:#F9B24B;" points="81.921,385.536 52.965,371.795 39.805,406.73 68.76,420.472 "/>
<path style="fill:#00CDB3;" d="M355.663,88.536l-9.627-5.06l-9.628,5.06L189.956,477.321h312.159
	C457.455,358.764,398.456,202.14,355.663,88.536z"/>
<path style="fill:#0EDBBD;" d="M382.646,160.17c-43.481,116.805,1.006,250.994,111.53,317.151h7.939
	C501.085,474.588,383.165,161.549,382.646,160.17z"/>
<g>
	<path style="fill:#84EFDA;" d="M426.62,276.909l-17.786-47.217c-14.87,0.016-26.921,12.075-26.921,26.948
		C381.913,279.838,409.307,292.088,426.62,276.909z"/>
	<circle style="fill:#84EFDA;" cx="309.008" cy="314.975" r="22.708"/>
	<circle style="fill:#84EFDA;" cx="411.736" cy="401.613" r="29.824"/>
</g>
<polygon style="fill:#0DBAA1;" points="355.663,88.536 346.035,83.475 336.407,88.536 189.956,477.321 224.088,477.321 
	363.101,108.284 "/>
<circle style="fill:#BAD8E8;" cx="168.546" cy="55.353" r="36.173"/>
<path style="fill:#9EC6D8;" d="M184.206,22.737c-23.892-11.487-51.828,5.944-51.828,32.619c0,26.631,27.882,44.122,51.828,32.619
	C156.871,74.83,156.91,35.862,184.206,22.737z"/>
<path style="fill:#FFCA54;" d="M388.231,34.246l-25.018-3.638L352.023,7.938c-2.445-4.955-9.531-4.953-11.975,0l-11.19,22.67
	l-25.016,3.638c-5.467,0.795-7.658,7.53-3.7,11.391l18.101,17.645l-4.272,24.917c-0.935,5.442,4.799,9.616,9.689,7.04l22.375-11.762
	c24.541,12.9,23.291,12.531,25.483,12.531c4.438,0,7.576-4.174,6.488-8.357l-4.18-24.368l18.103-17.645
	C395.881,41.78,393.701,35.041,388.231,34.246z"/>
<path style="fill:#11A590;" d="M237.597,507.783h-47.488c-7.376,0-13.356-5.98-13.356-13.356v-3.75
	c0-7.376,5.98-13.356,13.356-13.356h308.524c7.376,0,13.356,5.98,13.356,13.356v3.75c0,7.376-5.98,13.356-13.356,13.356H266.531"/>
<path style="fill:#0E8E78;" d="M498.632,494.779c-15.553,0-296.502,0-308.524,0c-5.747,0-10.632-3.638-12.516-8.73
	c-1.014,2.74-0.841,4.435-0.841,8.378c0,7.376,5.98,13.356,13.356,13.356c11.785,0,292.826,0,308.524,0
	c7.376,0,13.356-5.98,13.356-13.356c0-3.949,0.172-5.637-0.839-8.378C509.264,491.141,504.38,494.779,498.632,494.779z"/>
<path style="fill:#DD2234;" d="M176.752,494.428v-3.75c0-7.376,5.98-13.356,13.356-13.356H13.366
	c-7.377,0-13.355,5.98-13.355,13.356v3.75c0,7.376,5.978,13.356,13.355,13.356h176.742
	C182.732,507.783,176.752,501.803,176.752,494.428z"/>
<path style="fill:#C6122C;" d="M176.769,494.779H13.366c-5.747,0-10.631-3.638-12.515-8.73c-1.014,2.745-0.84,4.439-0.84,8.378
	c0,7.376,5.978,13.356,13.355,13.356h176.742C182.85,507.783,176.957,501.989,176.769,494.779z"/>
<g>
	<circle style="fill:#84EFDA;" cx="381.911" cy="325.813" r="10.839"/>
	<circle style="fill:#84EFDA;" cx="355.205" cy="439.871" r="10.839"/>
	<path style="fill:#84EFDA;" d="M318.043,415.361c-4.607-0.144-8.226-3.998-8.08-8.606l0.523-16.628
		c0.146-4.607,4.007-8.231,8.606-8.079c4.609,0.144,8.226,3.998,8.08,8.606l-0.524,16.628
		C326.502,412.002,322.482,415.553,318.043,415.361z"/>
	<path style="fill:#84EFDA;" d="M317.396,252.316c-0.144-4.609,3.475-8.461,8.082-8.604l16.627-0.523
		c4.616-0.165,8.461,3.475,8.606,8.081c0.144,4.609-3.474,8.461-8.082,8.606l-16.627,0.521
		C321.587,260.594,317.545,257.053,317.396,252.316z"/>
</g>
<path style="fill:#F9B24B;" d="M353.256,10.435c-1.157-2.346-2.522-6.221-7.221-6.221c-2.541,0-4.863,1.444-5.987,3.722
	l-11.19,22.67l-25.016,3.638c-5.467,0.795-7.658,7.53-3.7,11.391l18.101,17.645l-4.272,24.917c-0.935,5.442,4.799,9.616,9.689,7.04
	l22.375-11.762l4.062,2.134C334.389,63.033,335.198,32.242,353.256,10.435z"/>
<path style="fill:#6EE5CF;" d="M334.054,191.496c0-15.772-9.558-29.307-23.197-35.136l-26.905,71.428
	C308.695,235.896,334.054,217.416,334.054,191.496z"/>
<path style="fill:#84EFDA;" d="M283.992,391.807c0-21.888-17.745-39.633-39.635-39.633c-2.576,0-5.093,0.254-7.532,0.723
	l-23.796,63.171C236.003,445.695,283.992,429.633,283.992,391.807z"/>
<path style="fill:#6EE5CF;" d="M241.415,431.321l26.804-71.157c-9.038-6.825-20.408-9.381-31.394-7.266
	c-4.959,13.163-18.834,49.997-23.796,63.171C219.716,424.692,229.879,430.471,241.415,431.321z"/>
<g>
</g>
<g>
</g>
<g>
</g>
<g>
</g>
<g>
</g>
<g>
</g>
<g>
</g>
<g>
</g>
<g>
</g>
<g>
</g>
<g>
</g>
<g>
</g>
<g>
</g>
<g>
</g>
<g>
</g>
</svg>
