<?xml version="1.0" encoding="iso-8859-1"?>
<!-- Generator: Adobe Illustrator 19.0.0, SVG Export Plug-In . SVG Version: 6.00 Build 0)  -->
<svg version="1.1" id="Capa_1" xmlns="http://www.w3.org/2000/svg" xmlns:xlink="http://www.w3.org/1999/xlink" x="0px" y="0px"
	 viewBox="0 0 512 512" style="enable-background:new 0 0 512 512;" xml:space="preserve">
<path style="fill:#4A94CC;" d="M340.608,380.797c28.981,0.668,51.47-5.33,68.914-14.866l13.353,1.369v2.766
	c0,0-30.638,105.625-124.445,47.669l2.824-4.485C316.486,402.672,329.53,391.732,340.608,380.797z"/>
<path style="fill:#49B5CE;" d="M379.728,328.112c46.121-8.732,74.342-29.319,91.481-52.833l8.931-0.961
	c0,0-7.584,122.393-140.86,111.523l1.125-4.839C357.529,364.135,370.646,346.475,379.728,328.112z"/>
<path style="fill:#6EDCF9;" d="M394.894,261.144c51.899-24.414,79.871-53.252,93.885-81.206c8.698-5.868,14.414-9.527,15.063-9.472
	c0,0,22.232,134.551-120.547,158.481l-0.858-6.609C391.73,301.455,395.651,279.446,394.894,261.144z"/>
<path style="fill:#C0F1F9;" d="M377.827,217.667l-3.459-7.535c0,0,80.512-48.529,117.382-134.897
	c0.021-0.045,0.042-0.078,0.063-0.125c4.57-10.079,9.862,1.477,9.862,1.477c13.503,32.648,36.502,125.564-102.51,187.565
	l-5.03-10.957C392.07,239.769,386.261,227.567,377.827,217.667z"/>
<path style="fill:#3987B7;" d="M390.691,374.045c6.849-2.256,13.117-4.99,18.832-8.114l13.353,1.369v2.766
	c0,0-22.557,77.753-88.212,63.231C369.697,424.549,386.164,386.518,390.691,374.045z"/>
<path style="fill:#31A6BA;" d="M443.4,302.575c11.534-8.154,20.645-17.467,27.809-27.296l8.931-0.961
	c0,0-7.574,122.142-140.465,111.549C407.52,379.919,433.543,333.632,443.4,302.575z"/>
<path style="fill:#57CEEA;" d="M473.729,203.226c6.223-7.756,11.174-15.555,15.05-23.288c8.698-5.868,14.414-9.527,15.063-9.472
	c0,0,22.232,134.551-120.547,158.481l-0.858-6.609c0.126-0.283,0.242-0.568,0.367-0.851
	C454.406,297.499,470.87,239.952,473.729,203.226z"/>
<path style="fill:#A2E6ED;" d="M478.508,101.742c4.814-8.391,9.281-17.23,13.242-26.507c0.021-0.045,0.042-0.078,0.063-0.125
	c4.57-10.079,9.862,1.477,9.862,1.477c13.503,32.648,36.502,125.564-102.51,187.565l-5.03-10.957
	c-0.09-0.583-0.195-1.159-0.299-1.738C481.355,202.863,486.445,140.657,478.508,101.742z"/>
<path style="fill:#4A94CC;" d="M171.394,380.797c-28.982,0.668-51.47-5.33-68.914-14.866L89.127,367.3v2.766
	c0,0,30.638,105.625,124.445,47.669l-2.824-4.485C195.484,402.649,182.449,391.71,171.394,380.797z"/>
<path style="fill:#49B5CE;" d="M132.274,328.112c-46.121-8.732-74.342-29.319-91.481-52.833l-8.931-0.961
	c0,0,7.584,122.393,140.861,111.523l-1.125-4.839C154.474,364.135,141.357,346.475,132.274,328.112z"/>
<path style="fill:#6EDCF9;" d="M117.108,261.144c-51.9-24.414-79.871-53.252-93.886-81.206c-8.698-5.868-14.414-9.527-15.062-9.472
	c0,0-22.232,134.551,120.547,158.481l0.858-6.609C120.292,301.502,116.347,279.488,117.108,261.144z"/>
<path style="fill:#C0F1F9;" d="M134.176,217.667l3.459-7.535c0,0-80.512-48.529-117.382-134.897
	c-0.021-0.045-0.043-0.078-0.064-0.125c-4.569-10.079-9.862,1.477-9.862,1.477c-13.503,32.648-36.502,125.564,102.511,187.565
	l5.03-10.957C119.932,239.769,125.742,227.567,134.176,217.667z"/>
<path style="fill:#3987B7;" d="M121.312,374.045c-6.849-2.256-13.117-4.99-18.832-8.114L89.127,367.3v2.766
	c0,0,22.556,77.753,88.212,63.231C142.305,424.549,125.838,386.518,121.312,374.045z"/>
<path style="fill:#31A6BA;" d="M68.603,302.575c-11.535-8.154-20.645-17.467-27.809-27.296l-8.931-0.961
	c0,0,7.574,122.142,140.465,111.549C104.482,379.919,78.459,333.632,68.603,302.575z"/>
<path style="fill:#57CEEA;" d="M38.273,203.226c-6.223-7.756-11.174-15.555-15.051-23.288c-8.698-5.868-14.414-9.527-15.062-9.472
	c0,0-22.232,134.551,120.547,158.481l0.858-6.609c-0.126-0.283-0.242-0.568-0.366-0.851
	C57.596,297.499,41.132,239.952,38.273,203.226z"/>
<path style="fill:#A2E6ED;" d="M33.494,101.742c-4.814-8.391-9.281-17.23-13.242-26.507c-0.021-0.045-0.043-0.078-0.064-0.125
	c-4.569-10.079-9.862,1.477-9.862,1.477c-13.503,32.648-36.502,125.564,102.511,187.565l5.03-10.957
	c0.09-0.583,0.195-1.159,0.299-1.738C30.647,202.863,25.558,140.657,33.494,101.742z"/>
<path id="SVGCleanerId_0" style="fill:#F75D59;" d="M327.287,192.352c-43.595,0-61.676,35.517-62.593,36.548
	c-0.667,0.759-4.221,4.539-8.694,4.539c-3.498,0-6.451-2.156-8.849-4.705c-12.755-22.443-36.675-36.382-62.441-36.382
	c-39.59,0-71.799,32.21-71.799,71.801c0,48.035,24.047,92.502,71.472,132.165c29.417,24.602,67.179,44.699,71.616,44.699
	c0.971,0,1.941-0.211,2.842-0.633c8.623-4.041,39.084-19.176,69.023-44.271c47.264-39.615,71.229-84.013,71.229-131.96
	C399.093,224.561,366.881,192.352,327.287,192.352z"/>
<g>
	<path id="SVGCleanerId_0_1_" style="fill:#F75D59;" d="M327.287,192.352c-43.595,0-61.676,35.517-62.593,36.548
		c-0.667,0.759-4.221,4.539-8.694,4.539c-3.498,0-6.451-2.156-8.849-4.705c-12.755-22.443-36.675-36.382-62.441-36.382
		c-39.59,0-71.799,32.21-71.799,71.801c0,48.035,24.047,92.502,71.472,132.165c29.417,24.602,67.179,44.699,71.616,44.699
		c0.971,0,1.941-0.211,2.842-0.633c8.623-4.041,39.084-19.176,69.023-44.271c47.264-39.615,71.229-84.013,71.229-131.96
		C399.093,224.561,366.881,192.352,327.287,192.352z"/>
</g>
<g>
	<path style="fill:#EA473B;" d="M133.514,264.152c0-36.085,26.761-66.026,61.477-71.048c-43.262-6.3-82.08,27.429-82.08,71.048
		c0,48.035,24.047,92.502,71.472,132.165c29.417,24.602,67.179,44.699,71.616,44.699c0.971,0,1.941-0.211,2.842-0.633
		c1.695-0.795,4.244-2.024,7.457-3.667C198.58,402.105,133.514,341.793,133.514,264.152z"/>
	<path style="fill:#EA473B;" d="M300.509,286.996c-16.608,0-31.077,9.103-38.726,22.589l-0.004-0.006
		c-3.273,4.051-8.3,4.035-11.561,0l-0.002,0.004c-7.649-13.484-22.116-22.587-38.724-22.587c-24.584,0-44.509,19.923-44.509,44.507
		c0,68.435,83.22,109.512,89.015,109.512c0.971,0,1.941-0.211,2.842-0.633c43.538-20.412,86.18-60.044,86.18-108.879
		C345.02,306.919,325.095,286.996,300.509,286.996z"/>
</g>
<path style="fill:#D63322;" d="M221.765,288.214c-3.3-0.781-6.733-1.217-10.273-1.217c-24.584,0-44.509,19.923-44.509,44.507
	c0,68.435,83.22,109.512,89.015,109.512c1.653,0,2.314-0.218,10.298-4.301C173.585,389.281,168.594,300.853,221.765,288.214z"/>
<g>
</g>
<g>
</g>
<g>
</g>
<g>
</g>
<g>
</g>
<g>
</g>
<g>
</g>
<g>
</g>
<g>
</g>
<g>
</g>
<g>
</g>
<g>
</g>
<g>
</g>
<g>
</g>
<g>
</g>
</svg>
