<?xml version="1.0" encoding="utf-8"?>
<!-- Generator: Adobe Illustrator 24.1.1, SVG Export Plug-In . SVG Version: 6.00 Build 0)  -->
<svg version="1.1"
	 id="svg4851" inkscape:version="0.92.1 r15371" sodipodi:docname="holding-hands.svg" xmlns:cc="http://creativecommons.org/ns#" xmlns:dc="http://purl.org/dc/elements/1.1/" xmlns:inkscape="http://www.inkscape.org/namespaces/inkscape" xmlns:rdf="http://www.w3.org/1999/02/22-rdf-syntax-ns#" xmlns:sodipodi="http://sodipodi.sourceforge.net/DTD/sodipodi-0.dtd" xmlns:svg="http://www.w3.org/2000/svg"
	 xmlns="http://www.w3.org/2000/svg" xmlns:xlink="http://www.w3.org/1999/xlink" x="0px" y="0px" viewBox="0 0 591.69 473.47"
	 style="enable-background:new 0 0 591.69 473.47;" xml:space="preserve">
<style type="text/css">
	.st0{fill:#FFFFFF;}
</style>
<sodipodi:namedview  bordercolor="#666666" borderopacity="1.0" fit-margin-bottom="0" fit-margin-left="0" fit-margin-right="0" fit-margin-top="0" id="base" inkscape:current-layer="layer1" inkscape:cx="711.60547" inkscape:cy="464.22067" inkscape:document-units="mm" inkscape:pageopacity="0.0" inkscape:pageshadow="2" inkscape:window-height="863" inkscape:window-maximized="1" inkscape:window-width="1440" inkscape:window-x="0" inkscape:window-y="0" inkscape:zoom="0.35" pagecolor="#ffffff" showgrid="false">
	</sodipodi:namedview>
<g id="layer1" transform="translate(236.6599,-104.62732)" inkscape:groupmode="layer" inkscape:label="Layer 1">
	
		<path id="path4797" inkscape:connector-curvature="0" sodipodi:nodetypes="sssssccssccssscscccccsccccscscscssssscscccsscccsscccccccssssccsccssccsccccscssssccscscccsscccc" class="st0" d="
		M175.83,127.9c-39.96,73.97-68.05,133.97-81.51,153.11c-13.47,19.14-23.39,38.99-35.44,47.49C46.82,337,22.51,342.61,6.06,350.83
		c-13.59,6.79-29.06,21.62-48.91,35.44c-15.49,10.79-10.35,20.36-14.89,28c-4.48,6.53-9.21,9.69-17.01,23.75
		c3.76,8.87,19.14,9.92,34.38-2.83c14.6-12.23,15.3-13.37,23.39-19.85c7.28-5.82,15.95-11.34,15.95-11.34
		c0.81-11.81,3.54-26.58,10.99-36.15c-6.38,18.08-5.67,24.81-7.8,39.34c-1.44,9.82-8.51,22.68-8.51,30.48
		c0,7.8,2.3,31.74,4.11,45.81c1.98,15.38,10.92,16.39,17.44,26.88c3.87-12.26,7.32-28.71,6.62-40.05c-0.38-6,3.58,0.85,3.54,3.54
		c-0.19,13.79-4.29,31.91-6.44,45.2c2.92,8.06,4.52,14.58,5.25,22.06c6.47,7.82,15.18,3.52,17.75,2.09
		c-2.58-24.29,14.95-45,26.16-55.21c-7.61,14.64-21.77,32.88-21.77,49.18c0,12.11,5.41,19.46,16.1,20.99
		c7.85,1.12,10.26-3.07,12.4-8.5c1.19-3.03,2.54-6.87,4.11-11.16c-7.97-21.03,5.06-33.03,13.47-34.46
		c-14.87-9.58-24.65-16.85-26.71-31.71c-1.68-12.19,6.18-22.86,15.93-28.31c-14.32-13.66-1.99-43.76,24.88-37.2
		c4.93,1.2,7.73,2.76,10.53,4.07c-1.82-19.51,14.58-27.16,32.02-25.42c9.89,0.99,17.11,3.52,20.13,4.55
		c1.15-6.59,3.99-15.79,8.05-26.07c12.05-30.48,141.68-176.8,175.79-223.99C376.08,108.07,192.48,97.08,175.83,127.9L175.83,127.9z
		 M-222.05,166.92C-94.85,305.8-78.07,314.95-67.99,328.45c13.05,17.48,27.87,34.55,30.84,46.67c13.11-7.67,30.86-27.09,51.99-34.74
		c24.92-9.01,40.59-12.8,48.91-24.81c-13.67,0.06-20.48-3.77-28.35-5.56c8.49-1.35,13.21-0.72,18.44-1.6
		C17.96,268.6-4.21,225.36-62.27,128.61C-83.2,93.75-293.07,89.37-222.05,166.92L-222.05,166.92z M176.35,388.49
		c-1.23,0.12-1.51,1.8-1.44,4.06c3.83,2.6,6.19,4.62,13.49,10.71c-33.88-17.2-57.72-18.8-64.82-1.55
		c-4.78,11.61,4.81,16.37,11.69,19.21c12.24,5.06,36.31,15.38,44.07,18.95c6.96,3.21,19.49,0.33,25.08-10.38
		c5.48-10.5-2.4-23.15-5.93-26.38c-4.92-4.5-13.65-10.47-20.56-14.18C177.27,388.59,176.76,388.46,176.35,388.49L176.35,388.49z
		 M-2.17,409.71c-17.56,11.44-26.17,23.57-45.48,35.45c-7.77,29.19,0.1,34.97,2.18,42.98c4.54,17.49,2.43,24.82,7.39,39.71
		c4.96,14.89,13.11,5.12,19.7,21.81c10.91,27.67,44.5,17.93,36.7-16.8c-7.8-34.73-28.69-34.37-44.02-31.23
		c10.39-8.23,21.32-6.36,21.32-6.36c-4.2-10.09-3.38-16.63-6.5-40.78C-14.33,427.79-8.71,425.73-2.17,409.71L-2.17,409.71z
		 M102,410.92c-16.22-0.21-27.21,21.49-12.56,33.47c7.35,6.01,18.85,5.03,47.02,23.44c14.26,9.32,31.15,23.59,36.67,27.34
		c6.33-0.05,23.96-7.85,22.54-21.83c-1.24-12.22-1.7-13.7-12.28-23.81c-10.58-10.1-30.83-16.54-38.09-19.3
		c-7.27-2.76-26.83-13.99-36.09-17.79C106.75,411.43,104.32,410.95,102,410.92L102,410.92z M87.34,450.26
		c-12.53,0.24-25.45,20.84-6.19,39.62c4.49,4.37,10.8,8.31,19.98,13.8c13.28,1.56,29.15,23.95,40.89,38.32
		c5.26,6.43,17.95,2.89,22.33-1.5c6.26-6.28,16.69-14.56,14.03-25.56c-2.66-11.04-9.72-15.67-23.97-28.02
		c-21.8-18.89-52.65-31.58-62.54-35.79C90.41,450.51,88.88,450.23,87.34,450.26L87.34,450.26z M97.93,508.21
		c-0.39,0-0.78,0.01-1.17,0.04c-11.14,0.8-21.76,14.17-12.6,33.51c5.82,12.28,11.28,16.54,15.54,22.8
		c4.26,6.27,7.31,10.33,13.53,11.53c17.87,3.43,23.92-5.49,29.06-13.83c4.57-7.41-7.43-21.9-15.09-30.33
		C119.66,523.65,109.95,508.34,97.93,508.21L97.93,508.21z M81.36,544.16c-2.76,7.58-5.45,13.94-5.24,18.09
		c0.67,13.56,11.79,22.3,23.65,9.86C94.58,564.24,87.44,559.31,81.36,544.16L81.36,544.16z"/>
</g>
</svg>
