<?xml version="1.0" encoding="utf-8"?>
<!-- Generator: Adobe Illustrator 24.1.1, SVG Export Plug-In . SVG Version: 6.00 Build 0)  -->
<svg version="1.1" id="Capa_1" xmlns="http://www.w3.org/2000/svg" xmlns:xlink="http://www.w3.org/1999/xlink" x="0px" y="0px"
	 viewBox="0 0 57.5 57.5" style="enable-background:new 0 0 57.5 57.5;" xml:space="preserve">
<style type="text/css">
	.st0{fill:#FFFFFF;}
</style>
<g>
	<path class="st0" d="M16.61,40.56c7.7-1.76,15.29-3.98,22.98-5.79l-0.98,10.49c-0.16,2.76-1.53,5.99-4.29,5.99H21.34
		c-2.76,0-4.13-3.24-4.29-5.99L16.61,40.56z M41.41,15.35l0.38-4.11c0.16-2.76-1.95-4.99-4.71-4.99h-18.5
		c-2.76,0-4.87,2.24-4.71,4.99l1,10.72C23.79,20.02,32.51,17.35,41.41,15.35z M8.33,42.18c0-0.86,0-1.29,0-2.14c0-3.2,0-5.55,0-7.96
		c-2.6,0.38-4.94,0.54-8.33,0.54c2.26,3.02,3.39,4.46,5.66,7.26C3.39,43.11,2.26,44.69,0,47.7c5.47,0,8.2-0.41,13.67-1.5
		c0-1.9,0-3.51,0-5c-1.25,0.26-2.51,0.52-3.77,0.75C9.27,42.05,8.96,42.09,8.33,42.18z M57.5,22.09c-3.3,0-5.67,0.15-8.17,0.5
		c0,2.45,0,4.83,0,8.08c0,0.86,0,1.29,0,2.14c-0.69,0.09-1.04,0.14-1.73,0.25c-1.58,0.28-3.15,0.6-4.71,0.93c0,1.45,0,3.01,0,4.86
		c5.85-1.22,8.77-1.69,14.61-1.69c-2.26-3.02-3.39-4.46-5.66-7.26C54.11,26.68,55.24,25.11,57.5,22.09z M42.89,32.01
		c-1.04,0.22-2.07,0.47-3.1,0.71c-7.82,1.83-15.52,4.11-23.35,5.89c-0.92,0.21-1.84,0.41-2.76,0.6c-1.11,0.23-2.22,0.47-3.34,0.67
		c0-3.28,0-5.66,0-8.13c0-2.05,0-4.15,0-6.87c1.58-0.29,3.16-0.61,4.72-0.95c8.79-1.92,17.39-4.56,26.16-6.54
		c2.03-0.46,4.06-0.9,6.11-1.27c0,2.69,0,4.77,0,6.8c0,2.49,0,4.89,0,8.2C45.85,31.39,44.37,31.69,42.89,32.01z M20.01,31.67
		l3.31-2.4h-4.09l-1.26-3.89l-1.26,3.89h-1.15h-2.94l3.15,2.29l0.16,0.11l-0.11,0.35l-1.15,3.54l1.39-1.01l1.92-1.39l3.31,2.4
		L20.01,31.67z M30.71,28.67l3.31-2.4h-4.09l-1.26-3.89l-1.26,3.89h-4.09l3.31,2.4l-1.26,3.89l3.31-2.4l3.31,2.4L30.71,28.67z
		 M42.89,29.16l0.53,0.39l-0.53-1.65l-0.73-2.24l0.73-0.53l2.58-1.87l0,0h-4.09l-0.55-1.7l-0.71-2.19l-1.26,3.89h-4.09l3.31,2.4
		l-1.26,3.89l3.31-2.4l0.18,0.13L42.89,29.16z"/>
</g>
</svg>
