<?xml version="1.0" encoding="utf-8"?>
<!-- Generator: Adobe Illustrator 24.1.1, SVG Export Plug-In . SVG Version: 6.00 Build 0)  -->
<svg version="1.1" id="Layer_1" xmlns="http://www.w3.org/2000/svg" xmlns:xlink="http://www.w3.org/1999/xlink" x="0px" y="0px"
	 viewBox="0 0 1125 628" style="enable-background:new 0 0 1125 628;" xml:space="preserve">
<style type="text/css">
	.st0{fill:#FFFFFF;}
</style>
<path class="st0" d="M98.17,189.59l28.96,2.07l18.68,55.74l67.96,42.89l19.57,1.21l0.74-10.74L211.8,267.3l2.85-26.15l2.2,26.61
	l36.33,6.95l2.51-12.97l-18.88-32.95l4.22-30.82l-28.14-13.4l31.91,12.55l4.11,39.39l19.3,19.19l22.22-2.15l-0.83-31.29l-3.01-26.09
	l-26.92-22.29l33.5,22.3l6.13,29.98l22.69,10.5l16.11-42.93l-2.37-25.43l-40.72-17.56l-4.44-31.62l12.63-22.84l-8.46,24.43
	l5.71,26.69l32.66,8.06l-1.3-26.41l40.07-25.71L359.68,59l18.7,44.94l-33.69,28.43l19.16,77.01l25.05,19.05l9.08-7.57l-10.07-22.54
	l16.87-13.75l-12.3,15.07l9.36,17.07l15.83-19.55l-12.59,25.25l2.38,14.63l18.1-6.73l12.99-20.11l-15.82-41.97l15.54-12.07
	l-11.13,14.58l20.68,33.12l40.09-9.8l0.35-21.28l3.81,25.56l-47.24,16.65l-3.68,18.87l12.64,19.77l16.74-7.46l4.08-16.43l-5.05-0.47
	l26.05-14.1l-16.67,14.97l-4.05,21.53l6.85,3.33l28.7-12.06l19.75-37.49l7.5-25.42l-46.99-38.55l25.36-30.37l38.77-13.53
	l-32.7,17.64l-20.07,23.64l40.86,26.94l5.89-28.29l38.03-22.88l-8.55-23l13.4,24.94l-34.87,25.11l-1.83,74.74l22.11,20.05l8.66,0.8
	l18.31-10.91L603,207.68l16.04-21.03l-7.42-25.89l11.75,28.99l-15.76,24.35l8.96,14.63l27.45,18.44l20.53,4.9l20.49-24.22
	l-9.34-27.87l-47.18-21.16l16.57-30.28l-9.39,28.54l39.08,16.21l18.43-43.86l-33.09-22.56l37.27,18.75l-15.19,46.86l35.87,45.03
	l18.89,3.54l3.12-29.81l16.83,20.25l26.72-29.64l22.38-56.44l-29.63-29.46l20.43-31.73l33.23-10.44l-30.22,12.52l-11.14,30.62
	l28.74,25.03l-10.07,49.49l28.1-15.71l16.54-37.62l-21.66-26.47l29.56,24.34L848,174.78l-44.3,35.22l-1.9,8.53l11.74,34.4
	l29.15,3.29l15.74-10.85l5.88-37.57l32.31-14.42l-26.54,17.66l2.32,28.42l30.22-12.52l17.18-34.73l-9.43-45.89l13.68,46.88
	l-11.33,34.67l-51.58,24.35l-9.93,16.49l2.05,25.1l60.67,10.7l93.17-9.89l17.56-35.4l41.39-24.69l37.93,5.9l-37.7-2.28l-34.46,24.66
	l-12.57,35.82l-62,17.68l14.33,18.13l45.81-3.57l-54.69,12.36l-21.46-22.09l-33.83,9.48l-32.47,36.92l9.83,21.61l34.2,12.86
	l44.72-17.88l36.12,3.03l-35.7,1.81l-41.03,22.02l-47.23-10.06l-21.07,9.76l8.4,16.08l53.82,37.44l95.7,18.38l-2.31,29.98
	l-4.67-27.03l-87.84-8.33l-16.83,73.39l30.23,10.34l-36.97-9.16l9.22-75.37l-43.28-25.6l-7.98,28.01l23.3,22.92l-32.1-16.47
	l5.12-42.74l-34.25-6.16l-13.76,28.44l11.01,37.03l-21.92,37.29l22.41,23.68l-26.87-23.19l11.83-40.98l-16.84-37.21l-28.04,25.92
	l4.56,57.44l51.44,38.06l-60.85-34.06l-44.47,53.15l35.91-54.79l-22.36-65.5L695,467.36l-13.6,8.28l-2.82,9.94l16.15,23.77
	l-13.46,36.87l6.29-37.32l-22.85-17.93l2.28-22l-15.54-11.94l-9.84,7.8l-6.78,49.49l30.28,53.81l-24.56,32.54l18.14-33.74
	l-32.8-32.74l-39.03,37.59l18.15,26.8l-25.19-26.93l37.99-55.91l-10.27-50.47l-13.06-11.41l-17.26,5.91l-9.49,15.93l1.85,21.18
	l18.87,17.05l-28.47,42.39l21.41-44.24l-26.73-12.97l-0.83-9.98l-24.11-0.12l-19.31,16.94l19.2,59.99l-27.48-47.55l-40.29,40.69
	L477,576.7l-21.47-19.39l36.65-46.13l-2.9-16.17l-15.96-7.59l-21.96-10.43l-15.11,16.29l-2.63,41.2l-38.86,19.52l33.45-22.72
	l-4.87-39.16l11.46-16.95l-2.83-11.37l-7.7-2.51l-20.79,10.38l-19.73,45.3l10.38-43.76l-5.69-6.53l-15.73,2.75l-22.57,20.72
	l-6.34,24.92l20.99,65.56l-23.77,13.41l19.6-15l-28.73-54.8l-8.39,40.27l-4.99-44.66l-37.73,28.88l11.43,44.1l27.16,23.21
	l-32.33-22.79l-20.02-45.96l53.1-47.79l0.19-18.41l-16.58-17.74l-21.08,9.11l-3.93,32.1l-37.29,18.77l30.25-23.12l-1.61-28.56
	l19.67-34.2l-20.46-0.09l-58,25.86l17.95,61.08l-42.57,6.57l39.4-10.17l-24.65-60.2l50.19-32.88l-3.47-12.02l-19.95-14.45
	l-33.76-7.02l-24.3,19.96l-18.88,44.47l-40.54,21.17l34.91-28.43l5.93-26.92L91.93,451.3l-34.37-2.57l29.69-3.26l53.22-27.93
	l22.66-19.09L63.08,421.92l-28.43,28.6l-7.09,43.76l-0.73-48.08l27.88-30.14l52.66-21.55l-31.59-24.52l-27.91,13.33l-16.66,33.57
	l13.5-39.87l31.43-16l52.98,26.8l41.86-17.44l-50.69-32.89l5.52-28.23l-38.06-11.69l-29.14,9.91l28.54-16.27l50.23,14.84
	l-3.66,32.07l41.56,19.44l13.8-2.03l20.37-23.33l-13.55-29.16l-52.11-46.52l-68.74-2.45l-5.86-23.95l8.99,19.74l52.23-5.08
	l-4.85-49.96L98.17,189.59z M98.17,189.59"/>
</svg>
