<?xml version="1.0" encoding="iso-8859-1"?>
<!-- Generator: Adobe Illustrator 19.0.0, SVG Export Plug-In . SVG Version: 6.00 Build 0)  -->
<svg version="1.1" id="Capa_1" xmlns="http://www.w3.org/2000/svg" xmlns:xlink="http://www.w3.org/1999/xlink" x="0px" y="0px"
	 viewBox="0 0 512 512" style="enable-background:new 0 0 512 512;" xml:space="preserve">
<path style="fill:#F75D59;" d="M437.619,331.439c-39.768-6.791-55.674-25.705-86.362-39.97
	c-45.833-20.963-98.127-22.867-130.205,15.547c-2.435-2.435-14.6-19.238-41.244-26.826c-1.436-0.404-3.076-0.818-4.476-1.132
	c-37.697-8.496-79.727,6.507-112.229,27.96c-19.005,12.807-38.728,21.023-58.62,24.42c-2.275,0.388-4.05,2.183-4.414,4.461
	c-0.365,2.279,0.762,4.537,2.803,5.616c35.523,18.784,70.665,56.177,79.093,64.286c20.654,19.87,44.658,35.121,71.811,43.52
	c1.425,0.441,44.643,8.221,67.276-5.195c12.444,7.376,54.149,16.716,99.751-8.821c44.483-24.97,66.516-66.339,118.43-93.789
	C443.765,339.118,442.678,332.303,437.619,331.439z"/>
<path style="fill:#EA473B;" d="M76.586,334.009c0-19.246,9.493-36.264,24.041-46.663c-41.005,15.968-50.385,36.279-96.145,44.093
	c-2.275,0.388-4.05,2.183-4.414,4.461c-0.365,2.279,0.762,4.537,2.803,5.616c35.523,18.784,70.665,56.177,79.093,64.286
	c16.433,15.809,35.278,28.989,56.578,37.944C108.419,419.799,76.586,382.927,76.586,334.009z"/>
<path style="fill:#F98885;" d="M437.619,331.439c-39.768-6.791-55.674-25.705-86.362-39.97
	c-45.833-20.963-98.127-22.867-130.205,15.547c-2.435-2.435-14.6-19.238-41.244-26.826c-1.436-0.404-3.076-0.818-4.476-1.132
	c-37.697-8.496-79.727,6.507-112.229,27.96c-19.005,12.807-38.728,21.023-58.62,24.42c-2.275,0.388-4.05,2.183-4.414,4.461
	c-0.09,0.565-0.088,1.129-0.004,1.674c45.617,9.527,147.452,28.909,220.989,28.909c73.535,0,175.366-19.381,220.984-28.908
	C442.487,334.659,440.513,331.933,437.619,331.439z"/>
<path style="fill:#F75D59;" d="M0.064,337.573c18.581,3.88,46.49,9.396,78.014,14.571c-4.306-26.051,0.658-49.148,22.548-64.798
	c-32.649,11.13-50.773,36.345-96.143,44.092c-2.604,0.445-4.482,2.703-4.482,5.307C0.001,336.949,0.052,337.497,0.064,337.573z"/>
<g>
	<path style="fill:#EA473B;" d="M332.443,206.479v-0.003c-2.433,3.009-6.168,3.001-8.593,0l-0.004,0.001
		c-16.673-29.398-61.867-17.618-61.867,16.295c0,53.573,66.168,82.121,66.168,82.121s66.168-28.548,66.168-82.121
		C394.314,188.921,349.133,177.049,332.443,206.479z"/>
	<path style="fill:#EA473B;" d="M464.855,135.143l-0.001-0.002c-1.844,2.28-4.689,2.298-6.547,0l-0.002,0.001
		c-12.708-22.402-47.144-13.425-47.144,12.417c0,40.821,50.417,62.575,50.417,62.575S512,188.38,512,147.559
		C512,121.762,477.57,112.721,464.855,135.143z"/>
	<path style="fill:#EA473B;" d="M362.362,68.625L362.362,68.625c-1.245,1.54-3.174,1.561-4.437-0.001l-0.003,0.001
		c-8.608-15.184-31.947-9.098-31.947,8.415c0,27.665,34.167,42.409,34.167,42.409s34.171-14.744,34.171-42.409
		C394.314,59.558,370.985,53.429,362.362,68.625z"/>
</g>
<g>
	<path style="fill:#D63322;" d="M305.842,191.492c-21.494-7.414-43.864,8.612-43.864,31.279c0,53.573,66.168,82.121,66.168,82.121
		s4.335-1.873,10.779-5.549C272.779,261.603,271.43,203.348,305.842,191.492z"/>
	<path style="fill:#D63322;" d="M447.135,124.773c-16.69-7.908-35.973,4.307-35.973,22.785c0,40.821,50.417,62.575,50.417,62.575
		s4.486-1.936,10.779-5.734C426.912,176.973,423.298,136.085,447.135,124.773z"/>
	<path style="fill:#D63322;" d="M353.832,63.794c-11.106-9.056-27.857-1.136-27.857,13.246c0,27.665,34.167,42.409,34.167,42.409
		s4.788-2.067,10.779-6.103C343.966,95.185,343.603,72.132,353.832,63.794z"/>
</g>
<g>
</g>
<g>
</g>
<g>
</g>
<g>
</g>
<g>
</g>
<g>
</g>
<g>
</g>
<g>
</g>
<g>
</g>
<g>
</g>
<g>
</g>
<g>
</g>
<g>
</g>
<g>
</g>
<g>
</g>
</svg>
