<?xml version="1.0" encoding="utf-8"?>
<!-- Generator: Adobe Illustrator 24.1.1, SVG Export Plug-In . SVG Version: 6.00 Build 0)  -->
<svg version="1.1" id="Capa_1" xmlns="http://www.w3.org/2000/svg" xmlns:xlink="http://www.w3.org/1999/xlink" x="0px" y="0px"
	 viewBox="0 0 328.15 328.15" style="enable-background:new 0 0 328.15 328.15;" xml:space="preserve">
<style type="text/css">
	.st0{fill:#FFFFFF;}
</style>
<g>
	<g>
		<path class="st0" d="M114.82,307.75c13.6,13.6,31.43,20.4,49.26,20.4s35.66-6.8,49.26-20.4l94.41-94.42
			c27.21-27.21,27.21-71.31,0-98.52L213.33,20.4C199.73,6.8,181.9,0,164.07,0s-35.66,6.8-49.26,20.4l-94.41,94.41
			c-27.21,27.21-27.21,71.31,0,98.52L114.82,307.75z M164.08,21.76c12.8,0,24.82,4.98,33.87,14.03l94.41,94.41
			c9.05,9.05,14.03,21.08,14.03,33.87c0,12.8-4.98,24.83-14.03,33.87l-94.41,94.41c-9.05,9.05-21.08,14.03-33.87,14.03
			c-12.8,0-24.83-4.98-33.87-14.03l-94.41-94.41c-9.05-9.05-14.03-21.08-14.03-33.87c0-12.8,4.98-24.82,14.03-33.87l94.41-94.41
			C139.25,26.74,151.28,21.76,164.08,21.76z"/>
		<path class="st0" d="M125.24,173.29l-7.16,21.48h14.29l-4.75,14.25l-18.44,55.32l44.47-37.71l42.13-35.73l33.91-28.76h-36.12
			l4.75-14.25l7.16-21.48H191.2l4.75-14.25l18.44-55.32l-44.47,37.71l-42.13,35.73l-33.91,28.76h36.12L125.24,173.29z
			 M180.46,106.99l-11.91,35.73h14.29l-11.91,35.73h14.29l-42.13,35.73l11.91-35.73h-14.29l11.91-35.73h-14.29L180.46,106.99z"/>
	</g>
</g>
</svg>
