<?xml version="1.0"?>
<svg xmlns="http://www.w3.org/2000/svg" id="Capa_1" enable-background="new 0 0 512.001 512.001" height="512px" viewBox="0 0 512.001 512.001" width="512px"><g><g><path d="m462.72 61.091h-54.91c-11.79 0-23.71-.57-35.85-1.54 10.26 24.07 10.52 53.56 10.02 66.59.08 17.75 3.95 32.88 11.21 43.78 18.03 27.07 28.34 61.29 27.9 91.44 45.206-19.829 91.154-82.744 90.91-140.33-.15-37.03-19.04-59.94-49.28-59.94z" data-original="#000000" class="active-path" data-old_color="#000000" fill="#FFFFFF"/><path d="m351.98 125.571c0-.1 3.08-65.37-24.79-71.6-.03 0-.06-.01-.08-.02-7.722-1.198-24.96-4.527-42.21-8.66-39.94-9.59-81.33-14.37-123.05-14.29-89.08.23-161.85 73.96-161.85 163.15v172.77c0 29.82 24.26 54.08 54.09 54.08 19.04 0 36.88-10.19 46.57-26.59 18.32-31.03 46.31-55.41 80.33-61.77v-34.21c0-23.36-9.08-45.31-25.59-61.82-5.86-5.86-5.86-15.36 0-21.22 5.85-5.86 15.35-5.85 21.21 0 22.18 22.18 34.39 51.67 34.39 83.04v47.96c.2 8.09 6.85 14.61 14.99 14.61 8.27 0 14.99-6.73 14.99-15 0-.13 0-.26.01-.38 0-15.127 0-32.105 0-47.19 0-31.37 12.23-60.86 34.41-83.04 5.85-5.86 15.35-5.86 21.21 0s5.86 15.36 0 21.22c-16.51 16.51-25.61 38.46-25.61 61.82v32.58c26.87 0 50.7-.01 50.77-.01 36.385 0 66.047-28.291 68.93-62.89.01-.07.02-.14.03-.21 2.11-22.57-4.82-54.79-22.51-81.35-10.62-15.95-16.24-37.03-16.24-60.98z" data-original="#000000" class="active-path" data-old_color="#000000" fill="#FFFFFF"/><path d="m211 388.431v77.57c0 8.605 7.225 15.59 16.16 14.96 7.76-.57 13.83-7.4 13.83-15.55v-76.99c-4.7 1.67-9.74 2.58-15 2.58-5.25 0-10.3-.91-14.99-2.57z" data-original="#000000" class="active-path" data-old_color="#000000" fill="#FFFFFF"/></g></g> </svg>
