<?xml version="1.0" encoding="utf-8"?>
<!-- Generator: Adobe Illustrator 24.1.1, SVG Export Plug-In . SVG Version: 6.00 Build 0)  -->
<svg version="1.1" id="Capa_1" xmlns="http://www.w3.org/2000/svg" xmlns:xlink="http://www.w3.org/1999/xlink" x="0px" y="0px"
	 viewBox="0 0 63.1 63.1" style="enable-background:new 0 0 63.1 63.1;" xml:space="preserve">
<style type="text/css">
	.st0{fill:#FFFFFF;}
</style>
<g>
	<path class="st0" d="M52.27,20.21l-3.84-3.85l1.79-5.14l-5.13-1.8l-0.62-5.41l-5.41,0.6L36.16,0l-4.61,2.89L26.94,0l-2.9,4.6
		l-5.41-0.6l-0.62,5.41l-5.14,1.8l1.79,5.14l-3.84,3.86l3.84,3.86l-1.79,5.14l5.13,1.8l0.62,5.41l5.41-0.6l0.09,27.29l7.43-8.02
		l7.43,8.02l0.09-27.29l5.41,0.6l0.62-5.41l5.13-1.8l-1.79-5.14L52.27,20.21z M31.55,33.4c-7.27,0-13.19-5.92-13.19-13.19
		c0-7.27,5.92-13.19,13.19-13.19c7.28,0,13.2,5.92,13.2,13.19C44.75,27.48,38.83,33.4,31.55,33.4z M42.45,20.21
		c0,6.01-4.89,10.9-10.9,10.9c-6.01,0-10.9-4.89-10.9-10.9s4.89-10.9,10.9-10.9C37.56,9.31,42.45,14.2,42.45,20.21z"/>
</g>
</svg>
