<?xml version="1.0"?>
<svg xmlns="http://www.w3.org/2000/svg" id="Capa_1" enable-background="new 0 0 512 512" height="512px" viewBox="0 0 512 512" width="512px"><g><g><path d="m331 236c0 41.355-33.645 75-75 75s-75-33.645-75-75v-25h-30v25c0 57.897 47.103 105 105 105s105-47.103 105-105v-25h-30z" data-original="#000000" class="active-path" data-old_color="#000000" fill="#FFFFFF"/><path d="m437.02 74.981c-48.353-48.352-112.64-74.981-181.02-74.981s-132.667 26.629-181.019 74.981-74.981 112.638-74.981 181.019c0 45.934 12.43 90.908 36.011 130.533l-35.241 105.724c-1.797 5.39-.394 11.332 3.624 15.35 2.859 2.859 6.692 4.395 10.608 4.394 1.586 0 3.187-.252 4.741-.77l105.724-35.241c39.626 23.58 84.6 36.01 130.533 36.01 68.38 0 132.667-26.629 181.02-74.98 48.351-48.353 74.98-112.64 74.98-181.02 0-68.381-26.629-132.668-74.98-181.019zm-46.02 161.019c0 69.369-52.594 126.676-120 134.162v30.838h15c8.284 0 15 6.716 15 15s-6.716 15-15 15h-60c-8.284 0-15-6.716-15-15s6.716-15 15-15h15v-30.838c-67.405-7.486-120-64.793-120-134.162v-40c0-8.284 6.716-15 15-15h45v-25c0-41.355 33.645-75 75-75s75 33.645 75 75v25h45c8.284 0 15 6.716 15 15z" data-original="#000000" class="active-path" data-old_color="#000000" fill="#FFFFFF"/><path d="m256 281c24.813 0 45-20.187 45-45v-80c0-24.813-20.187-45-45-45s-45 20.187-45 45v80c0 24.814 20.187 45 45 45z" data-original="#000000" class="active-path" data-old_color="#000000" fill="#FFFFFF"/></g></g> </svg>
