<?xml version="1.0" encoding="utf-8"?>
<!-- Generator: Adobe Illustrator 24.1.1, SVG Export Plug-In . SVG Version: 6.00 Build 0)  -->
<svg version="1.1" id="Capa_1" xmlns="http://www.w3.org/2000/svg" xmlns:xlink="http://www.w3.org/1999/xlink" x="0px" y="0px"
	 viewBox="0 0 59.17 59.17" style="enable-background:new 0 0 59.17 59.17;" xml:space="preserve">
<style type="text/css">
	.st0{fill:#FFFFFF;}
</style>
<g>
	<g>
		<path class="st0" d="M29.58,59.17c16.34,0,29.58-13.24,29.58-29.58S45.92,0,29.58,0C13.24,0,0,13.24,0,29.58
			C0,45.92,13.24,59.17,29.58,59.17z M29.58,5c13.56,0,24.58,11.03,24.58,24.58c0,5.67-1.94,10.9-5.18,15.07L37.98,33.68h5.69v-8.56
			H29.39L14.46,10.23C18.63,6.96,23.88,5,29.58,5z M10.22,14.47l10.67,10.64H8v8.56h21.48L44.76,48.9
			c-4.18,3.29-9.45,5.26-15.17,5.26C16.03,54.17,5,43.14,5,29.58C5,23.89,6.95,18.64,10.22,14.47z"/>
		<rect x="45" y="25.11" class="st0" width="2.67" height="8.56"/>
		<rect x="49" y="25.11" class="st0" width="2.67" height="8.56"/>
		<path class="st0" d="M37.49,16.2c0,0,10.01-0.04,12.17,6.36c0,0-0.5-10.06-12.83-9.87s-11.5-5.73-11.5-5.73
			S21.99,14.54,37.49,16.2z"/>
		<path class="st0" d="M46.83,24.3c0,0-0.41-7.04-10.49-6.91c-10.08,0.13-9.4-4.01-9.4-4.01s-2.73,5.31,9.94,6.47
			C36.88,19.85,45.06,19.82,46.83,24.3z"/>
	</g>
</g>
</svg>
