<?xml version="1.0"?>
<svg xmlns="http://www.w3.org/2000/svg" id="Layer_1" enable-background="new 0 0 480 480" height="512px" viewBox="0 0 480 480" width="512px"><g><path d="m404.502 131v210.66c0 4.68-5.35 7.3-9.07 4.47-16.455-12.506-37.008-19.96-59.5-19.96-4.648 0-9.051-1.792-12.4-5.14-2.42-2.44-1.91-6.54.95-8.44 32.86-21.87 54.65-59.11 55.02-101.37v-41.98c0-48.99-36.89-89.54-84.35-95.31-2.25-.27-4.05-1.88-4.72-4.04-4.43-14.45-21.59-21.61-35.2-13.51-65.551 38.993-107.711 104.422-114.43 186.23-.25 1.49-.37 3.01-.34 4.53-1.94 29.78.94 49.3 4.72 77.64.48 3.63-1.55 7.12-4.95 8.48-8.005 3.224-15.367 7.446-21.71 12.16-3.73 2.77-9.02.14-9.02-4.51v-129.24c-14.57 27.913-23.014 59.431-24 92.57-.122 4.077-3.352 7.76-8.24 7.76-4.41-.13-7.89-3.82-7.76-8.24 1.358-45.31 15.667-87.608 40-123.17v-58.52c-18.944 6.822-37.728 9.93-40.01 9.93-3.88 0-7.29-2.83-7.9-6.78-.67-4.37 2.32-8.45 6.69-9.13 14.65-2.25 28.76-6.11 42.2-11.52 7.58-58.98 57.98-104.57 119.02-104.57h39c34.23 0 62.64 25.43 67.33 58.4.37 2.6 2.54 4.58 5.16 4.76 35.8 2.4 63.51 32.16 63.51 67.84zm-248.02 116.19c.05-.72.11-1.45.16-2.19-.16.71-.21 1.45-.16 2.19zm127.02-157.96h-20.44c2.79-1.84 5.63-3.63 8.53-5.35 3.8-2.26 5.04-7.17 2.79-10.97-2.26-3.8-7.17-5.04-10.97-2.79-62.777 37.381-101.562 99.828-106.93 177.07-1.66 23.91.28 43.84 2.11 56 .6 3.97 4.01 6.81 7.9 6.81 4.901 0 8.651-4.353 7.92-9.19-.95-6.29-1.93-14.8-2.35-24.93 19.711 25.284 50.375 41.24 84.44 41.24 58.72 0 106.54-47.54 107-106.16v-41.72c0-44.12-35.89-80.01-80-80.01zm-117 390.77h179c4.418 0 8-3.582 8-8v-121.127c0-3.967-2.9-7.386-6.832-7.915-3.596-.484-7.286-.754-11.064-.79-3.44-.033-6.526 2.104-7.717 5.332-22.969 62.278-116.376 65.328-142.782-.29-1.185-2.945-3.875-5.041-8.035-5.041-4.017 0-7.963.296-11.823.856-3.894.565-6.747 3.968-6.747 7.902v121.073c0 4.418 3.582 8 8 8zm-24-116.477c0-6.49-7.3-10.248-12.623-6.536-21.387 14.912-35.377 39.681-35.377 67.753v47.26c0 4.418 3.582 8 8 8h32c4.418 0 8-3.582 8-8zm227-.693v109.17c0 4.418 3.582 8 8 8h33c4.418 0 8-3.582 8-8v-47.26c0-27.854-13.971-53.522-36.63-68.616-5.286-3.521-12.37.355-12.37 6.706zm-55.94-22.85c-7.73 23.81-31.31 39.84-56.94 39.84-25.99 0-48.52-17.41-57.07-39.63-1.11-2.87-.41-6.13 1.73-8.32 1.191-1.22 2.231-2.465 3.138-3.723 2.086-2.891 5.873-3.985 9.213-2.738 28.115 10.5 58.799 10.07 85.745-.002 3.34-1.248 7.134-.159 9.216 2.736.922 1.282 1.981 2.549 3.198 3.787 2.07 2.11 2.69 5.23 1.77 8.05z" data-original="#000000" class="active-path" data-old_color="#000000" fill="#FFFFFF"/></g> </svg>
