<?xml version="1.0" encoding="iso-8859-1"?>
<!-- Generator: Adobe Illustrator 18.1.1, SVG Export Plug-In . SVG Version: 6.00 Build 0)  -->
<svg xmlns="http://www.w3.org/2000/svg" xmlns:xlink="http://www.w3.org/1999/xlink" version="1.1" id="Capa_1" x="0px" y="0px" viewBox="0 0 18.901 18.901" style="enable-background:new 0 0 18.901 18.901;" xml:space="preserve" width="512px" height="512px">
<g>
	<path d="M3.099,6.199h5.825v5.602H3.099V6.199z M10.143,6.199v5.602h5.659V6.199H10.143z M10.143,18.901   h5.659v-5.879h-5.659V18.901z M3.099,18.901h5.825v-5.879H3.099V18.901z M12.607,5.591H9.89V2.874h0.013   c0.125-1.246,1.176-2.219,2.455-2.219c1.364,0,2.468,1.104,2.468,2.468c0,1.28-0.972,2.33-2.219,2.456L12.607,5.591z M12.506,4.571   c0.735-0.073,1.308-0.693,1.308-1.448c0-0.803-0.652-1.455-1.455-1.455c-0.754,0-1.375,0.573-1.449,1.308h-0.007v1.603h1.603   C12.506,4.579,12.506,4.571,12.506,4.571z M9.163,2.515h0.015v3.077H6.1V5.577C4.688,5.435,3.586,4.244,3.586,2.795   C3.586,1.251,4.837,0,6.382,0C7.83,0.001,9.022,1.103,9.163,2.515z M8.03,2.63H8.022C7.94,1.797,7.236,1.148,6.382,1.148   c-0.911,0-1.649,0.739-1.649,1.648c0,0.854,0.65,1.557,1.482,1.64v0.009H8.03V2.63z" fill="#FFFFFF"/>
</g>
<g>
</g>
<g>
</g>
<g>
</g>
<g>
</g>
<g>
</g>
<g>
</g>
<g>
</g>
<g>
</g>
<g>
</g>
<g>
</g>
<g>
</g>
<g>
</g>
<g>
</g>
<g>
</g>
<g>
</g>
</svg>
