<?xml version="1.0" encoding="iso-8859-1"?>
<!-- Generator: Adobe Illustrator 19.0.0, SVG Export Plug-In . SVG Version: 6.00 Build 0)  -->
<svg version="1.1" id="Capa_1" xmlns="http://www.w3.org/2000/svg" xmlns:xlink="http://www.w3.org/1999/xlink" x="0px" y="0px"
	 viewBox="0 0 511.999 511.999" style="enable-background:new 0 0 511.999 511.999;" xml:space="preserve">
<path style="fill:#49B5CE;" d="M227.386,220.743c-19.237-7.808-20.486-16.123-26.26-13.219
	c-14.247,7.172-36.164,17.722-59.667,27.252c-1.716,0.696,5.748-7.582-111.872,129.521c-1.159,1.351-1.538,3.204-1.004,4.901
	c0.535,1.698,1.908,2.999,3.632,3.442l69.91,17.953l45.124,67.817c0.963,1.448,2.579,2.298,4.287,2.298
	c2.236,0,4.219-1.442,4.905-3.575l73.912-230.042C231.176,224.524,229.883,221.757,227.386,220.743z"/>
<path style="fill:#31A6BA;" d="M227.386,220.743c-7.493-3.041-14.423-7.258-20.599-12.535c-1.035-0.884-2.351-1.294-3.658-1.214
	c0.945,1.546,1.053,3.531,0.11,5.207L102.488,391.14l44.76,67.27c0.963,1.448,2.579,2.298,4.287,2.298
	c2.236,0,4.219-1.442,4.905-3.575l73.912-230.042C231.176,224.524,229.883,221.757,227.386,220.743z"/>
<path style="fill:#49B5CE;" d="M284.615,220.743c7.493-3.041,14.423-7.258,20.599-12.535c5.199-4.442,7.114,2.963,65.329,26.568
	c0.762,0.309,1.439,0.796,1.974,1.419l109.899,128.102c2.482,2.894,1.062,7.396-2.628,8.343l-69.91,17.953l-45.124,67.817
	c-0.963,1.448-2.579,2.298-4.287,2.298c-2.236,0-4.219-1.442-4.905-3.575L281.65,227.091
	C280.824,224.524,282.117,221.757,284.615,220.743z"/>
<path style="fill:#31A6BA;" d="M284.615,220.743c7.493-3.041,14.423-7.258,20.599-12.535c1.035-0.884,2.351-1.294,3.658-1.214
	c-0.945,1.546-1.053,3.531-0.11,5.207L409.513,391.14l-44.76,67.27c-2.38,3.579-7.874,2.826-9.192-1.278L281.649,227.09
	C280.824,224.524,282.117,221.757,284.615,220.743z"/>
<g>
	<path style="fill:#49B5CE;" d="M207.339,105.216C145.905,73.993,0,9.999,0,89.851c0,31.601,0,112.204,0,141.759
		c0,79.853,145.905,15.857,207.339-15.364C175.127,186.204,175.115,135.269,207.339,105.216z"/>
	<path style="fill:#49B5CE;" d="M304.663,105.216c32.213,30.049,32.218,80.976,0,111.029
		c61.433,31.221,207.336,95.217,207.336,15.364c0-29.531,0-110.177,0-141.759C511.999,9.999,366.096,73.993,304.663,105.216z"/>
</g>
<g>
	<path style="fill:#31A6BA;" d="M193.719,199.285C126.756,231.776,0,282.32,0,207.889c0,7.03,0,14.9,0,23.721
		c0,79.853,145.905,15.857,207.339-15.364C202.026,211.291,197.44,205.574,193.719,199.285z"/>
	<path style="fill:#31A6BA;" d="M318.281,199.284c-3.721,6.29-8.307,12.007-13.618,16.962
		c61.433,31.221,207.336,95.217,207.336,15.364c0-8.821,0-16.691,0-23.721C511.999,282.321,385.244,231.775,318.281,199.284z"/>
</g>
<circle style="fill:#F75D59;" cx="256" cy="160.73" r="75.913"/>
<path style="fill:#EA473B;" d="M200.69,160.731c0-38.429,28.562-70.169,65.611-75.199c-3.371-0.458-6.805-0.714-10.301-0.714
	c-41.925,0-75.913,33.988-75.913,75.913c0,45.684,40.225,81.441,86.214,75.197C229.252,230.897,200.69,199.16,200.69,160.731z"/>
<path style="fill:#F5F5F5;" d="M257.521,142.669v-0.006c-1.415,1.753-3.588,1.755-5,0l-0.003,0.003
	c-3.306-5.836-9.56-9.778-16.745-9.778c-10.629,0-19.243,8.626-19.243,19.267c0,31.203,38.49,47.834,38.49,47.834
	s38.495-16.631,38.495-47.834C293.514,132.44,267.231,125.528,257.521,142.669z"/>
<path style="fill:#DDDDDD;" d="M237.133,152.156c0-6.846,3.575-12.842,8.948-16.259c-2.979-1.899-6.511-3.008-10.307-3.008
	c-10.629,0-19.243,8.626-19.243,19.267c0,31.203,38.49,47.834,38.49,47.834s4.441-1.923,10.302-5.675
	C253.92,187.012,237.133,172.765,237.133,152.156z"/>
<g>
</g>
<g>
</g>
<g>
</g>
<g>
</g>
<g>
</g>
<g>
</g>
<g>
</g>
<g>
</g>
<g>
</g>
<g>
</g>
<g>
</g>
<g>
</g>
<g>
</g>
<g>
</g>
<g>
</g>
</svg>
