<?xml version="1.0" encoding="utf-8"?>
<!-- Generator: Adobe Illustrator 24.1.1, SVG Export Plug-In . SVG Version: 6.00 Build 0)  -->
<svg version="1.1" id="Capa_1" xmlns="http://www.w3.org/2000/svg" xmlns:xlink="http://www.w3.org/1999/xlink" x="0px" y="0px"
	 viewBox="0 0 337.6 337.6" style="enable-background:new 0 0 337.6 337.6;" xml:space="preserve">
<style type="text/css">
	.st0{fill:#FFFFFF;}
</style>
<g>
	<g>
		<path class="st0" d="M236.76,234.65c27.42-15.07,45.28-39.01,45.28-66.03c0-45.51-50.46-82.54-112.5-82.54
			s-112.5,37.03-112.5,82.54c0,26.51,17.2,50.09,43.78,65.2v21.81c0,16.64,13.53,30.18,30.17,30.18c7.15,0,13.72-2.51,18.9-6.69
			c5.18,4.18,11.75,6.69,18.9,6.69c7.15,0,13.72-2.51,18.9-6.69c5.18,4.18,11.75,6.69,18.9,6.69c16.64,0,30.17-13.53,30.17-30.18
			L236.76,234.65L236.76,234.65L236.76,234.65z M78.8,168.63c0-33.52,40.71-60.78,90.75-60.78s90.74,27.27,90.74,60.78
			c0,19.78-14.24,37.32-36.14,48.42h-9.14v1.33v2.76v22.91v11.58c0,4.65-3.77,8.42-8.41,8.42c-3.52,0-6.54-2.19-7.79-5.28
			c-0.39-0.97-0.62-2.03-0.62-3.14v-7.29v-22.09v-4.47h-10.09h-0.79h-10.09h-0.79v7.39v21.73v4.73c0,1.06,0.06,2.11,0.16,3.14
			c-1.25,3.09-4.26,5.28-7.79,5.28c-3.53,0-6.54-2.19-7.79-5.28c-0.39-0.97-0.62-2.03-0.62-3.14v-4.82v-21.73v-7.31h-10.09h-0.79
			h-10.09h-0.79v3.91v22.22v7.72c0,1.06,0.06,2.11,0.16,3.14c-1.25,3.09-4.26,5.28-7.79,5.28c-4.64,0-8.41-3.77-8.41-8.42v-12.11
			v-23v-2.14v-1.33h-7.64C93.04,205.95,78.8,188.4,78.8,168.63z"/>
		<path class="st0" d="M122.14,187.72h27.76c5.22,0,9.45-4.23,9.45-9.45v-27.76c0-5.22-4.23-9.45-9.45-9.45l-27.76,4.73
			c-5.22,0-9.45,4.23-9.45,9.45v23.03C112.69,183.49,116.92,187.72,122.14,187.72z"/>
		<path class="st0" d="M188.28,187.72h27.76c5.22,0,9.45-4.23,9.45-9.45v-23.03c0-5.22-4.23-9.45-9.45-9.45l-27.76-4.73
			c-5.22,0-9.45,4.23-9.45,9.45v27.76C178.84,183.49,183.07,187.72,188.28,187.72z"/>
		<path class="st0" d="M32.96,123.83c5.94,0,11.6-1.63,16.51-4.69l9.86,9.86l32.49-32.49l-9.45-9.45c3.62-5.21,5.61-11.4,5.61-17.83
			c0-17.42-14.17-31.59-31.59-31.59c-14.63,0-27.1,10.19-30.58,23.86C11.82,64.74,1.38,77.29,1.38,92.25
			C1.37,109.66,15.54,123.83,32.96,123.83z M32.99,76.97h8.03l0.13-8.02c0.14-8.28,6.97-15.02,15.23-15.02
			c8.42,0,15.27,6.85,15.27,15.27c0,4.53-2.08,8.82-5.72,11.78l-7.01,5.71l9.81,9.81l-9.41,9.42l-9.48-9.49l-5.76,6.18
			c-2.95,3.16-6.9,4.9-11.12,4.9c-8.42,0-15.27-6.85-15.27-15.27S24.54,76.97,32.99,76.97z"/>
		<path class="st0" d="M313.74,62.52c-3.25-13.98-15.81-24.43-30.77-24.43c-17.42,0-31.58,14.17-31.58,31.59
			c0,5.94,1.63,11.6,4.69,16.51l-9.86,9.86l32.49,32.5l9.45-9.46c5.2,3.62,11.39,5.61,17.83,5.61c17.42,0,31.58-14.17,31.58-31.59
			C337.59,78.47,327.4,66,313.74,62.52z M306.01,108.37c-4.52,0-8.82-2.08-11.77-5.72l-5.71-7.02l-9.81,9.82l-9.42-9.41l9.49-9.48
			l-6.18-5.76c-3.16-2.95-4.9-6.9-4.9-11.12c0-8.42,6.85-15.27,15.27-15.27c8.28,0,15.05,6.64,15.27,14.87v8.47l8.02,0.13
			c8.28,0.14,15.02,6.97,15.02,15.23C321.27,101.51,314.43,108.37,306.01,108.37z"/>
		<path class="st0" d="M306.01,213.37c-6.45,0-12.63,1.99-17.83,5.61l-9.45-9.45l-32.49,32.49l9.86,9.86
			c-3.06,4.92-4.69,10.57-4.69,16.51c0,17.42,14.16,31.58,31.59,31.58c14.96,0,27.52-10.45,30.77-24.43
			c13.66-3.49,23.85-15.96,23.85-30.58C337.59,227.54,323.42,213.37,306.01,213.37z M298.23,268.74c-0.19,8.26-6.97,14.9-15.27,14.9
			c-8.42,0-15.27-6.85-15.27-15.27c0-4.22,1.74-8.17,4.9-11.12l6.18-5.76l-9.49-9.48l9.42-9.41l9.81,9.81l5.71-7.01
			c2.96-3.63,7.25-5.72,11.78-5.72c8.42,0,15.27,6.85,15.27,15.27c0,8.26-6.73,15.09-15.02,15.23l-8.02,0.14L298.23,268.74
			L298.23,268.74z"/>
		<path class="st0" d="M86.2,268.38c0-5.94-1.63-11.6-4.69-16.51l9.86-9.86l-32.49-32.49l-9.45,9.45
			c-5.21-3.62-11.4-5.61-17.83-5.61C14.17,213.36,0,227.53,0,244.95c0,14.62,10.19,27.09,23.85,30.58
			c3.25,13.98,15.81,24.43,30.76,24.43C72.02,299.96,86.2,285.8,86.2,268.38z M31.33,260.18c-8.28-0.14-15.02-6.97-15.02-15.23
			c0-8.42,6.85-15.27,15.27-15.27c4.52,0,8.82,2.08,11.78,5.72l5.71,7.01l9.81-9.81l9.42,9.41l-9.49,9.48l6.18,5.76
			c3.16,2.95,4.9,6.9,4.9,11.12c0,8.42-6.85,15.27-15.27,15.27c-8.28,0-15.05-6.63-15.26-14.86v-8.46L31.33,260.18z"/>
	</g>
</g>
</svg>
