<?xml version="1.0" encoding="utf-8"?>
<!-- Generator: Adobe Illustrator 24.1.1, SVG Export Plug-In . SVG Version: 6.00 Build 0)  -->
<svg version="1.1" id="Capa_1" xmlns="http://www.w3.org/2000/svg" xmlns:xlink="http://www.w3.org/1999/xlink" x="0px" y="0px"
	 viewBox="0 0 57.5 57.5" style="enable-background:new 0 0 57.5 57.5;" xml:space="preserve">
<style type="text/css">
	.st0{fill:#FFFFFF;}
</style>
<g>
	<path class="st0" d="M35.37,15.63c-6.05,1.26-11.97,3.03-18.1,3.91c2.49-3.49,6.57-5.78,11.19-5.78
		C30.98,13.75,33.33,14.44,35.37,15.63z M28.46,41.27c5.47,0,10.18-3.2,12.4-7.82c-7.24,0.95-14.18,3.23-21.35,4.49
		C21.91,40.02,25.03,41.27,28.46,41.27z M7.53,38.53c0-0.88,0-1.31,0-2.19c0-3.1,0-5.4,0-7.73c-2.29-0.35-4.49-1.16-7.53-2.8
		c2.26,4.2,3.39,6.11,5.66,9.67C3.39,37.89,2.26,38.96,0,40.71c5.47,2.96,8.2,3.22,13.67,2.96c0-1.9,0-3.49,0-4.98
		c-1.25,0.09-2.5,0.15-3.77,0.14C8.95,38.75,8.48,38.69,7.53,38.53z M57.5,25.81c-3.22-1.74-5.55-2.57-7.97-2.9
		c0,2.47,0,4.85,0,8.13c0,0.88,0,1.31,0,2.19c-0.77-0.12-1.16-0.16-1.93-0.22c-1.59-0.02-3.16,0.06-4.71,0.21c0,1.38,0,2.86,0,4.6
		c5.85-0.43,8.77-0.26,14.61,2.9c-2.26-4.2-3.39-6.11-5.66-9.67C54.11,28.64,55.24,27.57,57.5,25.81z M42.89,31.25
		c-0.41,0.04-0.82,0.09-1.23,0.14c-8.1,0.96-15.81,3.65-23.84,4.85c-1.37,0.21-2.76,0.36-4.15,0.46c-1.37,0.1-2.74,0.15-4.14,0.12
		c0-3.23,0-5.58,0-8.01c0-2.03,0-4.11,0-6.81c2.2,0.05,4.36-0.09,6.49-0.34c7.3-0.86,14.3-3.15,21.51-4.47
		c3.27-0.6,6.58-1,9.99-0.98c0,2.58,0,4.6,0,6.54c0,2.53,0,4.93,0,8.28C45.96,31.02,44.42,31.1,42.89,31.25z M30.66,28.06l3.1-2.25
		h-3.83l-1.18-3.64l-1.18,3.64h-3.83l3.1,2.25l-1.18,3.64l3.1-2.25l3.1,2.25L30.66,28.06z"/>
</g>
</svg>
