<?xml version="1.0" encoding="utf-8"?>
<!-- Generator: Adobe Illustrator 24.1.1, SVG Export Plug-In . SVG Version: 6.00 Build 0)  -->
<svg version="1.1" id="Layer_1" xmlns="http://www.w3.org/2000/svg" xmlns:xlink="http://www.w3.org/1999/xlink" x="0px" y="0px"
	 viewBox="0 0 1125 1734" style="enable-background:new 0 0 1125 1734;" xml:space="preserve">
<style type="text/css">
	.st0{fill:#627F2D;}
	.st1{fill:#9B7A45;}
</style>
<path class="st0" d="M563.44,487.3c-3.12,1.04-5.26,4.04-7.97,5.88c-14.04,11.94-28.86,23.27-45.58,31.26
	c-8.25,3.92-16.85,9.53-26.34,7.95c-0.76-1.23,1.21-2.62,1.92-3.64c5.58-6.13,11.03-12.55,15.06-19.81
	c1.23-2.49-2.37-4.44-4.02-2.36c-7.08,5.77-13.98,11.96-22.42,15.73c-6.85,3.51-14.14,6.18-20.53,10.54
	c-7.08,3.48-15.22,3.82-22.32,7.25c-4.08,1.08-8.63,1.81-12.68,0.29c8.81-9.84,18.99-18.45,27.46-28.63
	c2.6-4.86,5.95-9.29,8.52-14.14c0.58-2.42-2.63-3.5-4.2-1.91c-3.17,2.08-6.63,3.57-10.22,4.75c-5.74,2.53-11.3,5.5-17.08,7.88
	c-7.71,5.17-17.07,6.62-25.67,9.71c-4.3,1.6-9.65,1.84-12.37,6.09c-4.49,5.62-8.88,11.38-12.44,17.64
	c-8.35,9.92-17.91,18.86-27.35,27.67c-8.96,7.74-17.55,15.91-26.53,23.61c-8.42,7.17-17.78,13.27-25.68,21.03
	c-1.8,1.22-2.25,4.41,0.43,4.84c8.21-1.85,16.21-4.74,24.39-6.8c16.38-4.85,33.64-7.45,48.96-15.43
	c10.98-5.04,21.01-11.98,31.29-18.1c1.55-0.7,3.71-2.25,5.18-1.95c-1.16,6.04-6.06,10.37-9.01,15.55
	c-3.59,5.13-8.39,9.25-12.13,14.27c-7.7,8.5-16.17,16.32-25.44,23.02c-2.64,1.03-1.73,5.25,1.19,4.43
	c8.28-1.82,15.84-5.97,23.54-9.37c10.59-4.88,20.78-10.63,29.98-17.82c11.98-9.09,24.13-18.1,35.01-28.52
	c1.74-1.82,3.08-4.18,5.29-5.48c-1.59,12.95-6.62,25.35-13.72,36.24c-4.28,7.25-9.76,13.92-13.31,21.6
	c-0.66,2.86,2.86,3.53,4.9,2.83c8.48-1.83,16.08-6.32,23.8-10.08c7.24-3.77,14.24-8.01,20.97-12.61c4.98-3.92,10.17-7.64,15-11.73
	c3.18-4.01,5.7-8.6,9.71-11.91c2.05-1.77,4.16-3.69,6.77-4.56c-0.32,7.77-3.1,15.21-5.11,22.66c-2.6,9.72-7.36,18.77-12.02,27.7
	c-1.21,2.5,2.19,4.19,3.92,2.44c12.03-8.02,23.7-16.63,34.83-25.85c6.71-6.01,13.65-12.23,17.52-20.56
	c1.64-2.78,2.64-5.88,4.07-8.74c2.04-0.74,5.54-2.11,6.53,0.82c3.93,8.6,5.01,18.15,8.22,27.01c2.14,5.93,3.68,12.27,7.31,17.51
	c2.52,2.48,4.46-1.31,5.72-3.18c6.74-10.65,12.94-21.72,17.95-33.29c1.75-4.3,1.26-9.16,2.9-13.45c1.29-1.39,4.22-1.45,4.55,0.89
	c4.14,15.44,10.91,30.12,18.99,43.89c1.68,2.05,2.74,5.97,5.89,5.93c2.81-0.98,2.16-4.8,3.01-7.13
	c2.95-13.84,7.63-27.24,10.73-41.07c0.77-2.95,3.9-6.84,7.23-4.8c7.59,4.69,13.45,11.64,19.92,17.68
	c11.63,11.27,23.39,22.55,36.54,32.06c2.15,1.39,5.83,3.93,7.8,0.92c1.14-3.32-0.71-6.83-0.34-10.27
	c0.15-5.94,0.51-12.03,2.75-17.63c2.26-3.07,6.86-1.54,9.83-0.36c9.42,4.22,17.38,11.36,27.44,14.23
	c7.16,2.14,14.43,4.21,21.83,5.26c2.86,0.18,3.47-3.33,2.19-5.29c-1.25-2.86-3.99-4.82-4.43-8.08c-3.13-11.22-3.91-22.94-4.31-34.53
	c9.91,1.09,18.61,6.88,27.95,10.11c17.65,6.58,35.34,12.85,52.76,20.03c3.16,0.99,6.18,2.92,9.51,3.14
	c2.63-0.74,1.73-3.88,0.04-5.09c-9.42-10.49-19.63-20.3-28.62-31.17c-3.31-5.11-8.25-8.93-11.62-13.94
	c-5.4-7.32-11.32-14.36-15.9-22.22c-3.42-6.44-8.73-12.08-10.2-19.44c0.42-3.33-2.14-5.97-5.2-6.79
	c-12.56-4.02-25.4-7.13-38.22-10.23c-9.71-2.27-19.84-3.33-29.78-2.17c-4.7,1.08-6.01,7.58-3.25,11.15
	c1.68,4.16,2.31,8.78,5.16,12.42c2.17,3.26,4.54,6.93,8.01,8.73c0.03,1.69-0.3,3.37-0.55,5.03c-8.04-0.58-15.98-2.58-23.04-6.55
	c-13.23-6.67-27.04-13.06-37.65-23.7c-1.76-1.57-4.63-4.58-6.91-2.11c-2.43,4.15-3.13,9.15-4.05,13.83
	c-0.9,6.57-1.3,13.5-4.27,19.54c-1.82,2.24-4.93,0.03-6.97-0.88c-7.74-3.93-11.42-12.24-16.79-18.58
	c-4.5-5.49-7.7-11.88-11.86-17.59c-1.94-2.13-4.26,0.48-4.99,2.38c-7.57,12.34-14.87,25.41-26.2,34.74
	c-2.5,1.78-6.48,5.26-9.48,2.22c-4.13-4.45-5.66-10.66-7.39-16.24c-2.19-7.84-2.16-15.88-1.91-23.91
	C565.9,488.61,564.93,487.24,563.44,487.3L563.44,487.3z M754.31,517.36c4.18,1.99,6.86,6.08,10.02,9.28
	c5.35,6.48,11.44,12.94,14.49,20.95c1.18,2.08-1.53,1.8-2.76,1.44c-5.46-8.53-11.35-16.82-16.74-25.42
	C757.81,521.4,756.18,519.24,754.31,517.36L754.31,517.36z M549.29,538.33c1.34,3.22-2.07,5.89-3.81,8.19
	c-4.59,4.58-9.66,9.44-16.12,11.06c-1.99,0.29,1.52-2.24,2.06-3.12c5.64-5.37,10.93-11.49,17.26-15.9
	C548.87,538.49,549.1,538.33,549.29,538.33L549.29,538.33z M688.44,539.84c3.95,6.36,6.86,13.31,10.08,20.05
	c0.74,2.09,1.65,4.46,0.88,6.65c-3.39-3.46-4.86-8.2-6.06-12.75c-2-4.68-3.7-9.34-5.1-14.23L688.44,539.84z M398.51,555.05
	c1.12,3.95-3.69,5.84-6.37,7.35c-2.09,1-4.77,2.48-6.49,3.03C389.13,561.2,393.81,557.69,398.51,555.05L398.51,555.05z
	 M398.51,555.05"/>
<path class="st0" d="M662.36,79.59c-3.39,0.67-2.3,5.02-3.75,7.36c-9.19,25.92-18.67,51.89-30.41,76.73
	c-9.07,17.77-17.53,36.01-27.98,53.07c-5.21,7.54-9.38,15.78-15.42,22.73c-8.78,12.85-17.31,25.87-25.81,38.91
	c-12.66,16.91-25.89,33.53-40.1,49.22c-12.1,12.93-25.16,25.04-37.77,37.51c-1.65,1.33-1.98,3.66-2.97,5.24
	c-6.95,0.88-12.17,6.42-17.72,10.2c-9.36,7.25-17.96,15.47-28.62,20.78c-3.24,3.41,2.43,4.77,5.08,3.98
	c15.16-1.11,29.8-5.92,44.11-10.81c15.64-5.43,28.97-15.63,42.46-24.93c4.11-2.82,7.93-6.11,11.4-9.59
	c3.9-1.87,8.29-4.02,12.66-3.76c-1.74,3.44-5.92,6.08-8.16,9.58c-5.14,7.69-6.35,17.21-10.59,25.38
	c-6.31,14.77-15.1,28.44-21.96,42.99c-0.97,3.27,3.39,3.82,4.96,1.64c16.3-13.52,31.56-28.43,44.99-44.82
	c5.9-7.81,11.43-15.75,16.87-23.79c3.16-5.51,4.44-12.03,6.98-17.66c1.23,13.6,0.39,27.33,0.52,40.99c0.2,13.58-3.06,27-3.6,40.47
	c1.65,3.94,5.05-0.42,6.5-2.44c17.04-22.72,26.08-50.14,33.58-77.21c1.03-3.14,1.26-7.18,2.79-9.73c2.37,0.36,2.24,4.11,3.13,5.81
	c3.16,14.99,11.96,28.12,23.02,38.49c7.3,6.96,14.19,14.61,22.6,20.22c3.21,1.14,3.97-3.06,2.28-4.98
	c-6.35-13.96-8.33-29.37-9.38-44.56c-0.42-7.69-1.45-15.83-0.63-23.39c7.66,3.27,13.49,9.71,20.68,13.87
	c17.52,11.09,35.44,21.86,54.65,29.77c11.45,4,22.9,8.24,34.71,11.08c5.06-0.82,0.48-5.55-1.75-7.11
	c-13.82-12.54-27.78-25.06-38.7-40.34c-4.37-6.28-8.83-12.72-13.1-19.12c-1.57-4.03-5.21-7.18-5.4-11.73
	c-1.36-2.14-3.38-3.75-4.13-6.34c-2.39-3.08-1.74-7.62-5.2-9.98c-5.67-7.42-7.96-16.83-11.16-25.48
	c-5.09-16.11-9.79-32.36-14.1-48.69c-1.37-10.34-5.01-19.83-6.2-30.17c-2.23-11.66-4.21-23.24-4.65-35.05
	c-1.68-23.86-0.84-47.83-1.62-71.74C665.12,80.79,663.9,79.46,662.36,79.59L662.36,79.59z M599.06,258.94
	c-2.3,11.42-4.37,23.04-8.7,33.9c-2.64,5.69-5.63,12.42-11.13,15.56c0.05-6.05,5.26-10.37,7.27-15.8
	c5.51-10.58,7.99-22.37,12.29-33.4C598.83,259.23,599.09,258.76,599.06,258.94L599.06,258.94z M653.15,269.23
	c2.26,11.36,3.9,22.87,3.47,34.47c-2.21,1.58-1.64-3.4-2.19-4.49c-1.33-10.15-2.28-20.56-1.45-30.72l0.14,0.59L653.15,269.23z
	 M653.15,269.23"/>
<path class="st0" d="M670.47,350.16c-4.86,0.65-3.87,6.89-3.71,10.36c1.15,13.46,3.4,27.09,9.9,39.12
	c3.29,5.99,4.95,12.78,8.43,18.71c1.95,2.88,5.24,5.22,6.71,7.87c-8.57,0.03-16.62-4.39-23.34-9.39
	c-7.74-7.13-15.96-13.73-23.17-21.45c-8.97-8.72-15.65-19.63-22.34-30.19c-1.16-2.52-4.79-1.9-5.09,0.84
	c-4.19,11.54-7.32,23.5-12.85,34.5c-5.05,11.98-11.56,23.58-20.15,33.4c-2.26,2.86-5.6,4.17-8.86,5.42
	c-1.53,0.58-1.87,3.84-3.73,2.44c0.64-9.73,3.22-19.29,4.18-29.01c1.34-11.89,3.06-23.96,1.92-35.91c-0.67-3.29-4.96-2.49-6.05,0.1
	c-9.39,14.76-20.39,28.36-33.12,40.4c-10.89,10-21.15,21.4-34.65,27.91c-3.81,1.41-8.55,3.29-12.41,1.89
	c4.4-9.12,11.44-16.77,16.19-25.75c4.6-8.62,9.95-16.81,14.54-25.42c2.41-5.65,5.75-11.17,6.69-17.29c-0.39-3.42-4.42-2.2-6.06-0.5
	c-10.35,6.75-20.88,13.25-30.92,20.42c-6.25,6.43-10.51,14.57-16.53,21.17c-3.63,4.57-7.96,8.53-13.15,11.22
	c-16.48,12.19-31.34,26.29-48.55,37.37c-21.02,15.21-39.95,33.35-62.53,46.36c-3.2,2.48-7.71,3.89-9.76,7.55
	c-0.26,4.04,5.03,2.81,7.5,2.42c27.9-5.51,55.26-14,81.09-25.95c13.02-6.15,26.52-11.81,38.19-20.37c1.26-1.77,4-3.91,5.01-0.76
	c1.59,4.81-4.21,7.48-6.56,10.77c-7.17,7.75-11.38,17.75-18.81,25.26c-2.91,5.62-8.04,9.61-11.36,14.9
	c-0.63,3.96,4.52,3.53,6.87,2.43c12.11-4.79,23.64-11.03,35.02-17.33c15.57-10.88,29.41-23.98,43.01-37.17
	c1.32-1.49,4.6-0.54,3.2,1.82c-1.99,7.2-8.41,11.85-11.63,18.43c-4.38,7.61-9.54,14.97-12.59,23.23c-0.05,3.91,4.62,2.38,6.55,0.96
	c17.13-9.16,32.82-20.93,47.21-33.94c4.76-4.03,7.32-10.04,11.75-14.26c2.31-1,3.77,1.09,3.66,3.19c1.61,14.15,2.37,28.8,7.81,42.11
	c1.18,2.81,4.85,6.21,7.22,2.56c10.23-10.68,17.88-23.55,25.29-36.26c2.46-3.77,3.7-8.52,6.26-12.04c3.08,4.19,3.84,9.79,6.87,14.13
	c6.83,11.47,15.14,22.13,23.79,32.18c3.9,1.65,3.81-4.48,5-6.84c4.21-11.93,3.24-24.96,6.69-37.02c2.37-0.03,3.57,3.56,4.95,5.28
	c7.72,13.07,21.99,20.02,34.62,27.43c3.77,1.55,7.51,4.88,11.79,4.27c3.61-2.17,0.38-6.95,0.06-10.02
	c-2.51-8.77-1.42-18.07-1.07-27.06c0.29-3.25,4.83-3.32,6.93-1.69c7.31,4.57,14.89,9.02,23.51,10.58
	c25.49,6.33,50.89,13.15,76.65,18.29c7.84,1.32,15.88,2.3,23.78,2.16c3.79-1.67-0.46-5.04-2.33-6.54
	c-5.09-3.93-10.76-7.09-15.38-11.64c-22.64-20.39-43.97-42.19-63.57-65.52c-7.15-8.55-13.29-17.86-17.94-27.9
	c-2.79-6.31-10.45-7.59-15.72-10.89c-17.6-8.96-33.92-20-50.85-30.12C673.27,350.73,671.92,350.09,670.47,350.16L670.47,350.16z
	 M724.79,417.26c11.05,6.55,19.26,17.45,23.48,29.5c-1.19,1.53-3.3-1.55-4.17-2.35c-2.68-2.66-2.52-7.05-5.73-9.2
	c-3.81-6.65-9.63-11.82-13.95-18.11L724.79,417.26z M640.34,424.82c5.52,7.82,10.79,16.09,14.03,25.15c0.94,1.88,0,5.65-1.55,1.96
	c-4.76-7.75-8.26-16.52-12.81-24.41C640.04,427.08,639.78,424.29,640.34,424.82L640.34,424.82z M469.07,461.41
	c1.14,3.08-2.8,5.59-4.86,7.35c-2.71,1.86-5.87,4.02-8.76,4.82c3.16-4.97,7.68-9.45,12.99-12.07
	C468.65,461.46,468.86,461.4,469.07,461.41L469.07,461.41z M469.07,461.41"/>
<path class="st0" d="M775.94,579.49c-4.12,0.83-1.44,5.79-1.02,8.41c2.5,10.15,6.82,20.55,15.69,26.73c3.06,2.69,7.3,4.94,8.89,8.79
	c-1.09,2.98-5.54,2.01-8.02,2.22c-14.85-1.49-30.08-4.13-44.56-8.64c-8.15-2.48-14.72-8.09-22.21-11.85
	c-3.3-1.81-6.99,1.13-6.8,4.69c-1.23,6.41,1.37,13.15,6.74,16.92c2.41,2.02,5.4,3.61,7.42,5.9c-5.14,2.95-11.19,5.29-17.18,4.88
	c-9.66-2.24-18.63-7.08-25.58-14.18c-12.92-11.64-24.51-24.76-37.84-35.92c-4.2-1.17-6.12,4.19-7.64,7.11
	c-4.85,12.09-8.38,25.29-7.08,38.4c0.71,7.95,5.95,15.32,4.52,23.42c-1.15,1.6-3.7-0.61-4.8-1.3
	c-11.13-10.06-21.86-21.12-28.27-34.94c-3.49-6.25-5.52-13.5-9.16-19.73c-3.47-2.08-4.66,3.1-6.15,5.16
	c-5.07,10.46-12.84,19.38-17.63,29.97c-1.89,4.83-3.44,11.65-9.25,12.92c-2.17,0.43-2.99-1.27-2.5-3.12
	c-0.13-13.49-8.79-24.87-11.55-37.72c-0.53-2.46-1.63-7.33-5.15-5.32c-13.87,8.27-24.94,20.47-38.92,28.59
	c-10.37,8.41-21.7,15.99-33.98,21.12c-1.21,0.66-2.86-0.09-1.55-1.61c3.3-8.85,8.78-16.61,14.41-24.1
	c4.09-7.02,7.26-14.79,8.6-22.81c-0.36-3.46-4.39-2.02-5.95-0.28c-6.9,5.33-13.77,10.7-21.29,15.15
	c-14.45,10.1-30.64,18.1-48.03,21.62c-2.21,0.19-5.24,0.95-7,0.03c2.26-7.49,8.33-13.11,12.78-19.36
	c6.9-8.91,13.47-18.43,17.19-29.13c0.32-3.56-4.18-3.11-5.75-1.04c-19.3,15.05-38.11,31.52-61.08,40.88
	c-11.29,4.54-22.79,9.43-35.17,9.52c-2.39,0.49-2.59-1.99-0.99-3.17c6.15-6.65,14.55-10.65,21.24-16.71
	c8.99-7.54,18.12-15.2,25.47-24.37c1.43-2.84-2.51-4.44-4.46-2.63c-5.61,3.15-11.11,6.59-17.08,8.95
	c-4.81,3.86-11.32,5.19-16.94,7.7c-4.9,2.18-11.78,3.39-13.03,9.6c-2.34,10.77-4.39,21.66-8.09,32.18
	c-5.12,15.14-10.96,30.51-19.63,44.09c-3.41,3.84-4.35,9.26-8.18,12.83c-2.36,3.83-3.38,8.46-6.24,11.99
	c-5.53,8.54-13.37,15.25-18.84,23.85c-5.05,7.08-11.48,13.06-16.76,19.99c-1.2,3.14,3.02,3.97,4.75,1.98
	c12.8-7.82,24.04-17.64,35.92-26.75c2.89-2.66,6.03-5.01,9.55-6.67c6.91-9.1,15.66-16.8,22.43-26.08c2.53-2.71,5.1-6.17,8.8-7.11
	c4.37,5.18,3.97,12.55,1.22,18.42c-5.84,14.52-13.44,28.32-23.82,40.15c-4.4,5.77-9.84,10.86-13.59,17.06
	c-0.53,3.41,3.75,3.45,5.86,2.24c12.45-4.35,25.85-7.6,36.02-16.49c19.36-13.81,38.45-28.18,55.75-44.54
	c4.48-3.95,7.56-9.07,10.98-13.87c1.03-1.35,3.75-2.83,5.13-1.41c-1.26,8.24-6.57,15.21-9.6,22.96
	c-4.55,10.29-7.48,21.46-14.67,30.39c-4.28,6.32-10.63,10.71-15.17,16.82c-1.08,3.02,2.88,3.89,4.81,2.41
	c14.9-6.46,27.69-16.67,41.65-24.82c14.36-9.47,28.27-19.74,41.21-31.08c4.61-5.37,9.68-10.64,16.07-13.9
	c-1.03,13.51-3.69,26.88-5.64,40.29c-0.34,4.9-2.97,9.74-2.27,14.64c2.5,2.91,6.06-0.88,8.7-1.79
	c20.95-11.35,40.12-26.16,56.3-43.65c3.91-3.59,5.7-9,9.76-12.36c1.33-0.55,4.19-1.12,3.66,1.3c0.64,14.23,4.87,28.02,8.26,41.78
	c1.69,4.41,1.82,10.18,5.69,13.34c3.95,0.98,6.51-3.58,9.11-5.81c8.9-10.15,15.41-22.18,21.45-34.17
	c2.03-5.78,4.52-12.34,10.01-15.52c0.85,13.52,4.02,26.94,8.9,39.58c3.93,7.63,8.47,15.14,14.18,21.55
	c2.59,3.32,5.88,0.35,7.12-2.47c4.77-12.75,5.44-26.59,8.53-39.79c0.75-1.91,0.55-5.29,2.69-6.35c4.53,1.28,6.45,6.51,9.57,9.64
	c12.28,13.92,28.8,23.35,45.49,31.01c2.99,1.4,4.31-2.44,2.99-4.63c-4.71-16.32-8.33-32.85-9.39-49.81
	c-0.5-2.07,0.66-5.38,3.09-5.28c6.72,4.48,11.53,11.32,17.82,16.39c19.55,17.54,42.32,31.41,66.5,41.56
	c3.56,1.1,4.11-3.37,3.05-5.74c-3.92-15.23-6.24-30.82-6.75-46.6c0.33-3.84,0.48-9.24,4.28-11.23c6.1,1.38,10.29,6.65,15.09,10.29
	c17.99,16.39,36.89,32.56,58.82,43.66c5.3,2.67,10.42,5.85,15.96,7.97c3.1,0.05,2.7-3.72,0.84-5.17
	c-11.56-16.24-24.5-31.79-33.63-49.51c-1.95-4.49-5.73-7.8-7.32-12.49c-6.57-13.29-10.36-27.69-12.92-42.23
	c-2.99-15.24-5.69-30.51-7.31-45.97c-1.34-4.34-7.04-4.77-10.48-6.79c-8.97-3.51-17.52-8.28-26.75-11.03h-0.23L775.94,579.49z
	 M610.56,656.4c4.23,7.95,8.71,15.89,11.22,24.61c0.37,2.27-2.92,0.88-3.37-0.44c-4.13-7.49-5.99-16.02-7.95-24.33L610.56,656.4z
	 M376.78,664.71c-0.19,7.48-0.03,15.63-3.77,22.33c-0.47-0.82,0.52-4.63,0.66-6.48c0.88-5.42,1.72-10.87,3.1-16.19L376.78,664.71z
	 M749.82,666.86c5.19,7.54,10.03,15.6,12.81,24.35c0.7,2.04-1.03,1.16-1.75,0.12c-5.81-6.55-9.76-14.78-11.36-23.41
	C749.59,667.63,749.09,665.49,749.82,666.86L749.82,666.86z M454.96,677.68c-0.49,7.95-1.93,16.16-5.85,23.18
	c0.53-8.21,3-16.19,5.85-23.8l0,0.6V677.68z M454.96,677.68"/>
<path class="st0" d="M786.5,706.4c-4,0.84-2.24,6.16-2.44,9.01c0.96,12.33,2.98,24.83,7.8,36.28c3.3,5.35,11.51,7.42,12.15,14.41
	c-1.08,4.31-6.93,3.89-10.15,2.42c-14.89-5.17-29.69-10.78-43.87-17.55c-2.48-1.5-4.32-3.82-7.22-4.68
	c-14.92-8.39-26.55-21.16-38.75-32.9c-2.44-2.28-5.36,1.06-3.99,3.64c3.18,11.41,4.23,23.41,9.1,34.32
	c1.82,5.45,6.07,10.01,7.13,15.67c-0.07,3.37-4.02,3.5-6.46,2.83c-8.28-1.05-15.01-6.73-22.32-10.3
	c-14.1-7.89-27.18-17.24-37.63-29.64c-4.36-2.35-4,4.4-4.62,7.04c-2.33,13.56-4.75,27.43-10.71,39.97
	c-1.73,3.48-6.17,0.58-8.16-1.05c-5.93-4.93-9.56-11.91-13.95-18.12c-4.86-8.34-7.8-17.58-9.86-26.95
	c-0.75-2.47-2.13-7.82-5.42-4.94c-8.78,12.64-15.62,26.75-26.09,38.14c-2.71,3.06-8.22,6.11-11.4,2.03
	c-4.69-7.85-7.88-16.65-9.35-25.63c-0.66-6.41-3.46-12.4-4.49-18.77c0.03-2.43-2.51-4.89-4.68-2.89c-3.95,3.42-8.28,6.39-12.18,9.85
	c-4.12,6.72-10.17,12.22-17.09,16.02c-14.09,10.14-28.93,19.4-45.03,25.93c-1.35,0.44-5.29,1.79-4.73-0.92
	c3.36-10.81,7.93-21.32,9.36-32.66c0.71-5.3,2.05-10.64,2.58-15.89c-1.41-3.66-5.11-0.22-6.66,1.5
	c-10.18,9.9-22.86,16.78-33.14,26.6c-8.57,7.39-19.6,11.01-28.93,17.29c-12.03,7.97-24.95,15.5-39.49,17.47
	c-1.48,0.37-5.31,0.33-3.6-2.12c6.54-9.69,16.15-16.82,23.85-25.54c7.65-7.49,12.13-17.65,14.14-28.03
	c-0.07-3.44-4.46-2.65-5.35-0.1c-8.92,9.3-19.68,16.98-29.73,25.2c-12.11,8.52-24.22,17.15-37.54,23.67
	c-6.82,3.11-16.44,4.1-19.29,12.24c-1.24,4.1-5.18,6.69-6,11.02c-5.67,13.63-14.36,25.82-22.33,38.11
	c-11.96,18.1-27.48,33.36-41.68,49.66c-9.45,10.94-20.02,20.83-30.63,30.66c-2.37,1.38-2.29,6.01,1.15,5.37
	c22.46-8.07,43.86-19.03,64.12-31.63c9.7-6.52,20.16-12.74,27.33-22.18c1.35-2.53,2.09-6.02,5.51-6.49c1.44-0.12,4.35-1.71,5.25-0.1
	c-0.81,6.95-4.32,13.23-6.46,19.87c-3.89,9.73-6.98,20.47-14.91,27.74c-1.48,1.95-5.32,4.91-2.54,7.35
	c3.88,0.82,7.55-2.21,11.27-3.14c5.78-1.85,11.82-3.06,16.99-6.46c15-8.45,27.62-20.35,41.49-30.44
	c10.07-7.41,18.71-16.46,27.7-25.07c1.94-2.21,1.07,1.59,1.02,2.52c-2.28,12.25-4.51,24.97-10.92,35.84
	c-5.08,7.96-10.69,15.57-17.07,22.53c-2.19,2.11,0.34,5.57,3.01,4.13c15.74-5.91,30.38-14.38,45.08-22.46
	c14.22-8.19,27.71-18.13,38.2-30.86c1.42-1.63,3.18-4.57,5.4-4.53c1.04,6.77,1.06,13.91-0.47,20.61
	c-4.02,12.06-11.75,22.35-19.28,32.41c-2.12,2.45,0.36,5.98,3.39,5.14c13.54-1.7,25.77-8.48,37.74-14.63
	c15.54-8.8,31.24-18.19,43.54-31.33c5.03-6.06,6.41-14.52,11.94-20.14c4.87,4.25,5.85,11.25,8.31,16.97
	c5.28,15.05,9,30.58,11.97,46.18c1.21,3.74,5.26,0.93,6.45-1.28c13.4-17.17,23.67-36.5,33.57-55.82c1.23-1.76,2.32-4.7,4.29-5.29
	c1.24,3.23,0.9,7.23,1.79,10.69c2.26,12.85,3.97,25.88,7.41,38.47c1.36,4.68,6.18,0.94,8.45-1.01c7.46-6.53,12.34-15.29,17.13-23.81
	c3.1-5.96,3.12-13.59,7.85-18.61c3.21-0.97,4.9,3.42,6.6,5.44c9.83,17.01,20.29,34.64,35.63,47.46c2.55,1.45,5.81,5.22,8.64,2.88
	c1.1-8.09-2.59-16.06-2.25-24.23c0.03-9.82-0.66-19.87,0.67-29.45c1.27-4.44,7.44-2.49,9.87-0.18
	c12.92,11.41,23.52,25.09,35.63,37.32c10.48,11.18,22.32,21.25,35.68,28.81c4.31,0.36,3.15-5.14,2.76-7.81
	c-3.05-16.56-3.42-33.5-7.83-49.82c-0.39-4.32-1.71-9.26,0.24-13.31c2.83-3.08,5.75,1.47,7.5,3.44c5.9,8.24,10.65,17.33,17.72,24.71
	c10.49,11.4,22.11,21.94,34.99,30.56c3.64,1.46,4.39-3.39,3.63-5.85c-2.27-15.25-3.27-30.64-2.95-46.04
	c-0.17-1.84,2.21-4.44,3.63-2.03c10.02,9.1,18.85,19.49,28.87,28.53c15.82,10.85,32.27,20.73,48.23,31.29
	c2.02,1.26,5.76,3.77,7.08,0.31c-0.86-4.34-4.52-7.71-6.6-11.58c-5.46-8.18-10.17-16.88-14.87-25.44
	c-2.82-6.37-7.32-12.04-8.73-18.96c-3.59-7.26-7.14-14.4-9.66-22.15c-6-15.72-8.86-32.3-13.49-48.52
	c-3.71-13.35-5.68-27.23-10.55-40.22c-3.57-5.28-10.07-7.58-14.92-11.47c-12.02-7.66-22.15-18.17-32.95-27.54
	C792.14,713.3,791.58,706.65,786.5,706.4L786.5,706.4z M792.72,793.21c4.81,9.21,7.56,19.35,11.61,28.91
	c1.16,3.97,3.57,8.04,3.02,12.24c-1.36,0.53-3.57,0.46-3.23-1.53c-4.98-12.92-10.11-26.05-11.57-39.88L792.72,793.21z
	 M494.35,794.88c0.09,9.85-2.28,19.57-4.2,29.18c-1.13,3.09-1.23,7.59-4.39,9.33c-1.96,0.41-0.36-2.71-0.45-3.6
	c2.96-11.02,5.82-22.12,8.32-33.19C493.78,796.14,494.12,795.03,494.35,794.88L494.35,794.88z M671.41,797.26
	c3.95,5.73,4.5,13.01,6.41,19.63c0.82,5.34,3.05,10.82,2.13,16.23c-2.02,1.16-3.54-1.06-3.21-2.99
	C675.02,819.17,671.94,808.18,671.41,797.26L671.41,797.26z M354.17,810.04c-2.22,9.79-3.45,20.15-8.59,28.96
	c-1.34,1.91-3.08,1.83-1.82-0.6c3.12-9.77,6.49-19.48,10.49-28.87L354.17,810.04z M354.17,810.04"/>
<path class="st0" d="M374.17,869.26c-4.7,1.89-8.31,6.04-12.56,8.81c-10.75,8.04-21.09,16.7-31.41,25.17
	c-9.8,7.68-20.52,13.92-31.16,20.27c-4.53,3.42-9.82,7.49-10.03,13.68c-1.68,7.24-5.48,13.65-8.46,20.36
	c-4.3,13.87-14.68,24.64-22.35,36.67c-6.6,9.68-13.84,18.9-20.46,28.55c-4.49,6.47-9.36,12.64-14.89,18.27
	c-6.43,7.8-12.6,15.83-19.99,22.77c-13.18,12.87-26.24,25.96-41.14,36.83c-5.7,3.93-12.18,7.55-16.22,13.29
	c-0.76,3.72,4.05,3.45,6.29,2.48c22.15-6.95,43.54-16.21,64.59-25.95c22.26-10.33,39.85-28.04,58.82-42.99
	c1.68-0.95,3.72-2.62,5.61-2.39c0.65,4.4-2.72,8.28-4.5,12.07c-1.81,4.05-6.25,6.37-7.21,10.81c-7.09,13.79-16.98,25.76-27.61,36.96
	c-2.5,2.65,1.37,5.41,3.96,4.15c16.27-4.47,31.52-12,46.9-18.83c19.7-9.4,38.93-20.1,56.47-33.14c7.75-5.56,13.98-12.97,21.79-18.39
	c2.98-2.09,4.69,3.23,2.34,4.82c-4.63,5.44-9.67,10.55-13.94,16.28c-9.18,8.52-15.03,19.89-22.78,29.62
	c-3.2,4.89-7.7,9.13-9.91,14.57c-0.26,3.74,4.26,2.96,6.4,1.85c13.77-4.95,27.96-9.23,40.77-16.4
	c15.28-9.98,29.86-21.08,43.43-33.29c7.2-6.41,14.67-12.75,21.26-19.7c2.22-0.72,5.66,0.68,4.12,3.39
	c-3.2,7.39-9.87,13.24-10.53,21.68c-1.88,8.75-2.13,18.17-6.35,26.17c-3.22,3.09-3.42,7.81-5.8,11.44
	c-2.02,2.14-0.49,6.53,2.71,4.93c13.8-7.28,26.36-16.72,38.94-25.9c18.37-14.65,34.57-32.27,46.68-52.45
	c0.87-2.11,3.7-2.75,4.69-0.4c4.74,11.75,7.7,24.33,13.51,35.73c5.15,10.45,9.5,21.43,15.88,31.21c2.99,3.01,5.93-1.67,7.51-3.86
	c9.37-13.05,19.53-25.63,27.58-39.56c3.52-6.44,6.86-13.43,12.43-18.36c1.26-0.52,4.57-1.69,3.57,0.72
	c-0.45,7.06-2.76,14.23-1.42,21.28c2.03,6.34,3.43,13.15,7.41,18.82c6.23,10.13,13.43,19.87,21.89,28.17
	c4.31,1.4,3.1-4.98,3.55-7.55c1.18-15.22-1.36-30.59,1.35-45.58c0.37-3.42,4.2-7.8,7.61-4.71c9.82,7.5,17.37,17.52,26.16,26.14
	c7.28,8.23,15.63,15.43,24.98,21.23c6.28,3.71,12.27,8.58,19.41,10.45c4.07-0.55,2.51-5.67,2.11-8.42
	c-3.41-16.69-6.12-33.52-9.84-50.15c-1.21-3.34,2.12-7.51,5.46-4.81c4.44,4.95,7.7,10.95,12.57,15.59
	c10.08,10.87,21.77,20.3,35.13,26.82c8.77,4.59,17.45,9.69,26.68,13.19c4.22-0.3,1.48-5.63,0.39-7.95
	c-3.88-9.31-9.98-17.56-11.28-27.7c-1.99-6.25-2.29-12.98-1.39-19.41c1.04-1.74,3.46,0.78,4.62,1.41
	c11.52,9.38,21.43,20.95,34.87,27.78c15.96,9.63,32.22,18.79,49.3,26.33c9.02,3.83,18,8.3,27.62,10.31
	c3.84-0.66,1.61-5.07-0.16-6.77c-4.16-5.15-9.94-8.71-14.03-13.97c-12.66-14.22-24.9-31.25-25.31-51.08c0.36-2.48-0.68-6.43,1.78-8
	c6.79,3.46,11.52,9.93,16.98,15.09c12.16,13.21,25.17,26.33,41.83,33.73c18.93,9.25,38.78,16.61,59.09,22.17
	c3.48-0.09,2.35-4.15,0.45-5.59c-15.39-18.8-27.33-40.08-40.76-60.25c-11.19-17.19-23.03-34.02-30.67-53.16
	c-4.69-12.09-10.2-24.31-11.76-37.34c-0.24-6.33,0.18-13.79-5.26-18.26c-11.28-9.71-24.17-17.37-34.81-27.88
	c-2.8-1.96-4.82-6.29-8.31-6.42c-3.03,1.74-1.01,6.3-1.56,9.28c0,6.68,0.99,13.32,2.73,19.72c0.31,6.01,1.39,12.38-0.37,18.21
	c-2.12,3.4-6.64,0.14-8.96-1.43c-13.51-9.75-27.27-19.53-38.09-32.36c-4.23-4.2-7.53-9.56-12.33-13c-3.84,0.88-2,5.92-2.52,8.86
	c-0.22,8.03,2.54,15.61,4.02,23.38c0.34,7.39,2.59,14.48,3.45,21.78c0.07,1.07,0.06,4.05-1.25,1.93c-3.87-2.67-8.93-2.7-12.91-5.29
	c-19.36-9.8-36.22-24.03-50.64-40.25c-6.1-6.41-11.26-13.72-16.83-20.49c-3.72-1.71-4.04,4.03-4.49,6.63
	c-0.9,15.68,3.48,31.07,4.35,46.59c-0.44,3.11-4.67,1.43-6.62,1.48c-10.47-2.64-18.64-10.23-26.78-16.88
	c-10.02-8.39-16.34-20.29-23.89-30.91c-1.3-2.46-4.71-2.49-5.92,0.06c-5.65,8.28-10.65,17.04-17.95,24.08
	c-4.58,4.33-7.69,9.93-12.08,14.36c-2.98,2.05-5.95-1.12-6.43-4.04c-4.28-13.9-6.8-28.03-7.54-42.62c-1.24-3.86-4.89-0.7-6.01,1.59
	c-9.81,14.67-17.12,31.59-29.91,43.81c-3.15,3.14-8.8,6.57-12.96,3.33c-3.11-5.36-3.31-11.97-4.94-17.88
	c-2.63-11.39-4.5-23.09-8.66-34.05c-2.58-3.12-5.42,1.29-7.1,3.17c-13.68,14.71-31.12,25.39-48.37,35.18
	c-10.57,5.3-20.78,11.73-32.39,14.56c-5.62,0.68-11.01,2.7-16.61,3.27c-2.79,0.4-0.99-3.54-0.19-4.75
	c8.23-10.39,16.7-20.91,22.04-33.15c1.52-4.54,3.93-9.22,3.55-14.1c-1.7-3.7-5.78-0.16-7.5,1.65
	c-13.29,12.01-28.75,21.15-44.29,29.89c-15.21,8.43-30.77,16.14-46.73,23.08c-1.99,0.59-5.2,1.43-6.61,0.64
	c6.97-10.9,18.12-18.66,24.68-29.75c5.21-5.01,8.6-11.8,11-18.54c0.82-3.73,1.91-8.07,0.27-11.66
	C375.56,869.53,374.86,869.23,374.17,869.26L374.17,869.26z M469.96,959.29c0.13,13.47-1.65,26.7-5.16,39.62
	c-0.09,2.39-3.66,2.95-4.99,1.53c0.27-6.14,3.95-11.54,4.82-17.62C466.54,974.99,467.66,966.86,469.96,959.29L469.96,959.29z
	 M597.09,960.87c1.52,11.28,0.99,22.87,0.72,34.2c-0.06,1.3,0.15,4.84-1.81,2.39c-0.83-11.47-0.92-23.15,0.54-34.58
	C596.67,962.27,596.82,961.13,597.09,960.87L597.09,960.87z M326.36,970.48c-4.58,12.81-8.59,25.9-14.35,38.23
	c-0.34,1.17-2.22,2.75-2.5,0.55c-0.21-6.25,4.12-11.61,6.37-17.21c3.72-7.51,6.79-15.34,10.83-22.69l-0.18,0.57L326.36,970.48z
	 M856.08,970.03c5.24,8.86,10.11,17.99,13.69,27.63c0.59,1.13,0.1,2.85-0.98,0.98c-5.79-8.25-8.84-18.01-12.36-27.33
	C856.51,971.31,855.9,969.8,856.08,970.03L856.08,970.03z M756.84,972.75c6.14,10.26,10.98,21.78,14.44,33.24
	c0.21,1.33,1.06,3.53,0.39,4.41c-4.04-2.17-4.19-7.68-6.09-11.43c-3-8.79-6.23-17.51-8.87-26.41L756.84,972.75z M756.84,972.75"/>
<path class="st0" d="M506.54,1039.37c-4.34,2.06-6.91,6.75-10.12,10.2c-8.31,11.22-18.72,20.74-29.17,29.93
	c-14.61,11.61-29.96,22.22-46.44,31.1c-3.59,2.92-9.49,6.08-13.45,2.1c0.71-6.53,5.23-12.02,8-17.85
	c4.44-7.94,8.96-16.07,9.99-25.28c0.14-3.5,2.4-7.91-0.08-10.93c-3.51-1.28-6.3,2.73-9.11,4.24c-14.9,11.19-28.22,24.43-43.68,34.85
	c-10.64,6-23,7.53-34.23,12.09c-8.91,2.4-18.23,3.88-26.29,8.7c-2.89,1.54-7.26,3.47-10.11,1.01c2.92-6.78,9.39-11.29,14.06-16.85
	c7.21-8.13,15.1-15.87,20.99-25.03c1.08-3.14-3.08-3.94-4.84-2c-20.71,12.59-42.53,23.23-64.99,32.32
	c-11.64,4.25-23.33,8.67-35.28,12.11c-2.39,0.28-5.78,1.62-7.08-1.19c2.93-1.25,1.93-5.55,5.16-6.36
	c4.33-4.37,6.87-10.25,11.17-14.72c5.54-6.86,11.82-13.31,16.36-20.91c1.02-2.86-2.98-3.93-4.55-1.88
	c-6.04,4.44-11.89,9.16-18.44,12.82c-9.88,7.55-18.72,16.75-24.24,28.01c-5.67,10.88-14.32,19.7-21.6,29.47
	c-14.03,16.69-26.64,34.56-41.63,50.44c-17.81,21.03-39.58,38.14-60.23,56.22c-6.02,5.4-12.64,10.29-18.2,16.14
	c-0.77,3.67,3.55,3.27,5.5,1.79c12.2-5.69,23.88-12.48,35.88-18.52c2.83-2.98,7.21-3.64,10.44-6.19
	c10.04-5.68,19.3-12.6,27.66-20.55c3.77-2.81,7.19-7.4,12.01-8.06c-2.5,8.55-8.9,15.15-12.41,23.4c-3.52,6.96-6.14,14.43-11.19,20.5
	c-2.06,2.42,1.39,5.25,3.68,3.39c18.14-9.77,35.47-21.19,51.46-34.2c10.61-9,19.79-19.68,31.25-27.49c-1.15,7.33-6,13.44-9.1,20.04
	c-6.95,12.57-12.38,26.1-21.7,37.22c-1.77,3.13-5.37,5.54-5.82,9.22c1.95,3.37,6.17,0.13,9.04-0.05
	c20.34-4.94,38.27-16.23,56.4-26.22c18.32-10.36,35.13-23.59,48.24-40.15c2.39-2.42,4.78-6.15,7.81-7.24
	c-0.9,5.99-6.04,10.3-8.87,15.45c-9.39,13.38-15.53,28.28-25.32,41.31c-2.23,3.91-6.6,6.65-7.68,11.13
	c0.89,4.05,5.53,1.22,7.94,0.45c16.69-6.81,32.56-15.85,46.16-27.75c10.26-8.22,19.83-17.24,29.21-26.42
	c1.14-1.12,4.15-2.81,2.39,0.21c-4.2,10.4-9.32,20.41-13.44,30.84c-3.41,7.31-9.73,13.03-12.22,20.77c-0.39,3.91,4.48,3.3,6.88,2.48
	c13.87-2.28,26.13-9.72,36.77-18.59c14.41-11.22,27.11-24.58,42.08-35.07c2.55-1.83,3.03,3.09,3.39,4.58
	c2.91,13.91,4.71,27.96,7.11,41.9c0.79,3.37,4.91,2.43,6.26,0.03c13.28-14,24.42-29.89,35.35-45.76c2.11-2.43,2.99-6.08,5.63-7.95
	c1.71,11.39,2.06,23.11,5.93,34.16c2.18,6.62,3.76,13.59,7.03,19.77c3.24,2.44,6.27-2.1,8.51-3.98c5.98-6.4,11.85-13.22,15.3-21.34
	c5.72-7.81,12.07-15.15,17.28-23.33c3.04-3.75,5.92-8.39,10.15-10.66c3.84,4.27,4.25,10.62,6.38,15.79
	c5.01,14.91,12.4,28.89,19.69,42.79c1.15,2.21,3.37,6.61,6.35,4.06c10.17-8.35,14.49-21.33,19.75-32.93
	c2.77-5.9,3.61-13.12,8.21-17.94c4.13,1.38,2.66,6.44,2.8,9.83c0.26,7.27-1.66,15.34,2.94,21.71c3.15,5.46,5.24,11.74,9.35,16.57
	c4.19,1.9,7.02-3.39,9.12-6.12c8.95-12.8,12.58-28.27,20.12-41.76c0.92-1.77,2.81-2.82,3.95-0.59c7.69,10.78,11.64,23.58,17.6,35.35
	c2.95,5.52,4.93,11.81,9.06,16.58c3.75,1.54,5.63-3.64,7.5-5.93c7.64-10.9,8.88-24.47,13.5-36.62c1.74-3.12,3.95-8.13,8.17-7.79
	c7.62,3.06,9.6,12.01,14.87,17.55c10.9,13.38,22.12,26.66,34.85,38.33c4.07,1.17,4.8-4.42,5.82-7.11c4.4-15.39,6.1-31.35,8.11-47.17
	c-0.25-3.37,4.18-3.33,5.51-1.01c3.88,5.46,8.39,10.48,11.82,16.25c3.41,4.32,7.26,8.47,11.74,11.61
	c4.9,7.15,12.25,12.26,18.52,18.16c6.77,5.96,13.73,12.63,22.44,15.45c3.75-0.31,2.05-5.33,2.17-7.99
	c-1.59-15.93-6.42-31.31-8.54-47.14c-0.26-3.12,4-1.66,5.36-0.43c14.15,12.9,25.61,29.22,42.77,38.51
	c11.5,6.93,22.65,14.61,34.77,20.43c3.34,0.56,3.21-3.67,1.3-5.27c-2.53-4.43-6.46-8.05-8.84-12.46
	c-3.7-7.42-9.96-13.11-13.86-20.46c-4.52-7.9-9.73-15.69-12.14-24.47c0.27-2.44,2.73-4.13,4.81-2.25
	c14.65,8.93,26.58,21.5,39.34,32.78c6.84,5.8,13.11,12.53,20.82,17.17c2.82,1.05,4.1-2.86,2.1-4.53
	c-14.09-18.67-26.42-38.7-36.17-59.97c-10.1-23.57-19.56-47.55-25.93-72.38c-1.34-4.22-1.1-10.16-6.01-12.05
	c-19.38-8.2-38.9-16.26-57.29-26.68c-12.56-8.76-26.48-15.67-37.75-26.22c-1.86-1.56-5.53-5.27-7.29-1.64
	c0.08,4.97,3.53,9.28,5.54,13.7c2.43,5.07,6.53,9.19,8.3,14.56c4.95,7.27,12.67,12.38,17.19,19.92c0.72,1.81,1.02,5.65-2.11,4.96
	c-12.42-0.79-23.33-7.97-34.69-12.1c-18-8.28-35.28-18.64-49.98-32c-2.28-1.54-4.48-5.93-7.61-4.04c-1.77,2.68,1.04,5.83,0.59,8.8
	c0.99,14.46,5.98,28.2,10.67,41.78c1.64,2.92-1.78,6.07-4.67,4.48c-10.62-2.74-19.57-9.52-29.17-14.56
	c-18.17-10.18-32.58-25.74-45.56-41.85c-2.08-2-3.62-6.62-7.13-5.63c-3.1,2.69-1.23,7.58-1.87,11.16
	c0.05,13.05-0.99,26.14-0.14,39.16c0.04,4.22,2.53,8.69,0.99,12.76c-2.9,3.29-7.42,0.94-9.68-1.85
	c-10.64-11.02-20.95-22.54-29.31-35.37c-5.63-8.63-5.94-19.4-8.69-29.14c-2.34-3.08-5,0.83-6.02,2.99
	c-5.78,9.38-11.13,19.03-16.69,28.52c-6.32,7.53-10.81,16.35-16.49,24.32c-2.74,3.05-5.87-1.8-7.46-3.83
	c-9.88-15-16.52-31.86-23.31-48.41c-2.3-5.12-3.2-10.89-5.87-15.78C507.63,1039.55,507.2,1039.25,506.54,1039.37L506.54,1039.37z
	 M814.09,1148.43c3.67,6.91,4.51,14.97,6.78,22.41c1.32,6.07,3.38,12.21,3.86,18.34c-1.46-1.36-1.55-4.76-2.42-6.84
	c-2.81-11.36-6.62-22.54-8.39-34.12L814.09,1148.43z M266.38,1153.74c-4.37,7.74-12.35,12.99-15.63,21.48
	c-2.7,5-4.35,10.49-6.16,15.78c-1.94,2.28-1.93-1.56-1.39-2.72c3.01-13.71,9.93-27.75,22.74-34.65
	C266.08,1153.62,266.78,1153.21,266.38,1153.74L266.38,1153.74z M411.65,1158.52c-2.55,7.38-6.2,14.56-11.1,20.66
	c0.5-7.66,5.06-14.56,10.11-20.09C410.71,1159.14,411.88,1157.88,411.65,1158.52L411.65,1158.52z M709.24,1169.38
	c0.49,9.29,1.07,18.67,0.46,27.97c-1.87-1.9-2.02-5.91-2.27-8.72c-0.25-6.53,0.15-13.15,1.77-19.49L709.24,1169.38z M563.57,1175.27
	c0.16,3.78,0.32,8.33-1.96,11.47c-2.68,0.88-1.04-3.1-0.93-4.45C561.3,1179.93,562.26,1176.96,563.57,1175.27L563.57,1175.27z
	 M563.57,1175.27"/>
<path class="st1" d="M527.46,1207.76c-6.88,4.41-9.37,13.65-14.57,19.81c-0.26,7.61,6.35,14.52,8.15,22.17
	c5.58,16.73,3.67,34.66,4.92,52.03c1.12,54.5-1.99,109.02-5.39,163.36c-2.08,25.48-8.98,50.45-8.36,76.18
	c-0.93,29.79,0.63,59.92-1.75,89.49c-5.57,9.32-12.17,18.33-17.65,27.59c-6.81,10.76-17.12,18.61-26.25,27.03
	c0,6.09,7.79,1.79,11.18,1.27c36.07-9.56,73.92-11.86,111.19-12.3c6.93-0.49,14.3,0.77,21.01-0.96c1.39-5.86-4.69-11.46-6.28-17.15
	c-12.38-23.19-18.5-48.75-20.26-74.8c-3.33-29.23-6.56-58.28-5.62-87.72c-0.5-52.03,1.96-104,8.74-155.6
	c2.3-26.74,11.87-52.42,13.48-79.25c-2.46-6.15-5.16-13.06-10.22-17.58c-6.24,0.12-7.44,9.01-11.72,12.42
	c-5.74,6.54-11.41,14.07-18.55,18.83c-10.62-9.96-15.73-24.36-21.45-37.4c-4.02-8.4-4.62-18.21-8.25-26.67
	C529.2,1207.91,528.3,1207.61,527.46,1207.76L527.46,1207.76z M527.46,1207.76"/>
<path d="M453.83,1695.92c-2.85-3.17,0.45-7.84,13.73-19.43c14.9-13,17.62-16.66,26.16-35.21c5.84-12.69,6.98-22.76,5.28-46.79
	c-0.54-7.63-0.56-27.69-0.05-44.56c0.82-27.18,1.41-32.8,5.16-49.21c3.13-13.74,4.39-23.23,4.86-36.69
	c1.38-39.74,2.88-68.35,4.44-84.91c1.63-17.17,2.57-57.71,2.19-94.49c-0.18-17.49-1.86-28.61-5.97-39.45l-1.62-4.28l-2.02,3.36
	c-4.05,6.75-23.37,24.78-26.37,24.62c-2.29-0.12-9.09-13.29-8.89-17.21c0.07-1.22-0.42-3.39-1.08-4.81
	c-0.66-1.43-2.04-7.71-3.06-13.96c-1.02-6.25-2.45-11.04-3.16-10.65c-0.71,0.39-3.88,4.64-7.04,9.43
	c-6.41,9.73-19.52,26.24-24.11,30.36c-1.65,1.48-3.04,3.57-3.1,4.64c-0.06,1.08-1.51,3.1-3.24,4.5c-2.35,1.91-3.71,2.14-5.43,0.92
	c-2.63-1.86-3.6-5.52-5.85-21.97c-0.88-6.45-2.74-16.11-4.13-21.47l-2.53-9.74l-7.69,7.74c-4.23,4.26-10.5,10.05-13.94,12.87
	c-3.44,2.82-9.04,7.52-12.45,10.43c-15.43,13.16-37.91,22.51-49.43,20.56c-3.53-0.6-3.88-1.22-3.48-6.06
	c0.3-3.54,1.99-7.2,4.93-10.64c4.69-5.48,8.82-12.71,12.71-22.22l2.3-5.62l-10.24,9.06c-5.63,4.98-11.61,10.2-13.29,11.58
	c-6.31,5.21-26.05,16.33-38.46,21.66c-10.3,4.42-13.75,5.28-17.33,4.29c-5.9-1.63-5.65-5.4,0.84-12.88c2.75-3.17,5.4-6.07,5.89-6.44
	c1.81-1.39,15.85-22.81,15.33-23.39c-0.3-0.33-2.39,0.95-4.67,2.83c-2.27,1.89-4.44,3.42-4.82,3.4c-0.38-0.03-4.92,2.85-10.09,6.39
	c-9.49,6.49-24.04,15.16-28.15,16.79c-1.23,0.49-4.93,2.38-8.23,4.2c-3.3,1.83-8.38,4.44-11.28,5.81
	c-6.93,3.27-40.97,12.49-45.27,12.26c-5.26-0.28-3.91-5.27,2.61-9.61c10.37-6.92,18.12-15.91,24.94-28.95
	c2.85-5.45,6.59-12.34,8.3-15.31c2.77-4.8,1.78-4.2-8.94,5.35c-6.63,5.91-12.95,11.35-14.04,12.09c-1.1,0.74-4.71,3.11-8.02,5.25
	c-3.32,2.15-6.72,4.62-7.57,5.49c-2.23,2.31-18.1,10.6-30.41,15.88c-12.13,5.21-18.04,5.67-17.81,1.39c0.2-3.77,1.88-7.3,3.43-7.21
	c2.5,0.13,12.04-10.4,16.05-17.74c2.25-4.1,4.1-7.79,4.12-8.2c0.03-0.41-5.21,2.5-11.63,6.47c-13.09,8.09-45.97,25.76-55.07,29.59
	c-3.28,1.38-9.04,4.11-12.81,6.07c-3.77,1.96-9.93,3.81-13.69,4.13c-6.57,0.54-6.82,0.43-6.63-3.08c0.15-2.71,2.26-5.04,8.22-9.06
	c4.41-2.98,13.47-10.01,20.12-15.62c6.65-5.62,16.15-13.53,21.12-17.59c4.96-4.06,10.79-8.99,12.96-10.95
	c15.95-14.5,28.25-26.66,34.79-34.39c4.21-4.98,8.86-10.05,10.32-11.27c1.46-1.22,2.7-2.95,2.75-3.86c0.05-0.9,0.74-1.61,1.54-1.57
	c0.8,0.04,1.51-0.9,1.57-2.1c0.06-1.2,0.66-2.15,1.31-2.11c0.66,0.04,4.49-4.24,8.51-9.51c4.02-5.26,9.09-11.38,11.26-13.59
	c6.39-6.51,23.49-29.86,29.24-39.91l5.32-9.3l-4.5,2.43c-2.47,1.33-5.86,2.35-7.54,2.27c-1.67-0.09-4.24,1.03-5.7,2.48
	c-1.46,1.45-4.43,2.97-6.59,3.37c-2.17,0.41-6.38,2.16-9.37,3.89c-2.99,1.73-14.3,5.11-25.14,7.5c-10.85,2.39-20.15,4.94-20.67,5.67
	c-0.52,0.73-2.83,1.01-5.13,0.62c-5.36-0.9-6.16-6.09-1.48-9.59c1.8-1.34,6.76-5.4,11.03-9.03s13.25-11,19.95-16.4
	c20.24-16.31,34.67-30.91,60.96-61.69c9.3-10.89,32.31-41.81,47.7-64.1c6.83-9.89,16.97-29.53,17.17-33.24
	c0.07-1.36,0.81-2.84,1.63-3.29c2.11-1.15,2-3.53-0.17-3.65c-1-0.05-6.12,1.67-11.39,3.83c-19.73,8.07-20.77,1.62-2.26-14
	c7.13-6.02,14.51-12.82,16.4-15.14c1.9-2.31,4.09-4.88,4.87-5.7c0.78-0.83,2.04-4.27,2.8-7.65l1.38-6.15l-5.06,3.16
	c-2.78,1.74-5.4,3.5-5.82,3.92c-0.42,0.41-3.14,2.2-6.03,3.97c-2.9,1.77-5.62,3.59-6.04,4.04c-0.43,0.46-3.14,2.3-6.04,4.09
	c-2.9,1.8-6.47,4.2-7.93,5.33c-10.01,7.75-61.71,28.52-75.86,30.47c-3.68,0.51-4.01,0.17-3.8-3.82c0.18-3.38,1.34-4.97,5.1-7
	c9.26-4.99,21.8-15.23,34.78-28.39c2.2-2.23,5.41-4.92,7.14-5.97c1.72-1.05,3.6-3.4,4.16-5.24c0.57-1.83,1.95-3.28,3.08-3.22
	c1.13,0.06,2.51-1.1,3.07-2.59c0.56-1.48,2.63-4.26,4.6-6.17c1.97-1.91,5.78-6.38,8.46-9.93c2.68-3.55,5.59-7.22,6.46-8.16
	c0.87-0.94,3.99-4.85,6.92-8.7c2.94-3.85,8.5-11.08,12.36-16.08c7.3-9.45,20.7-31.5,25.49-41.94l2.77-6.04l-4.22-0.22
	c-10.06-0.54-11.53-6.07-3.42-12.86c5-4.18,5.66-4.87,14.45-14.94c8.97-10.27,24.23-34.87,24.48-39.47c0.19-3.64-1.8-2.56-9.22,4.99
	c-23.05,23.47-52.53,46.22-75.68,58.39c-4.53,2.38-9.45,5.34-10.94,6.58c-4.48,3.72-18.04,9.14-22.29,8.92
	c-3.02-0.16-3.93-0.92-3.81-3.16c0.09-1.62,1.16-3.27,2.38-3.67c1.22-0.39,2.28-1.86,2.36-3.25c0.15-2.7,1.76-4.28,20.72-20.11
	c6.7-5.6,13.01-10.14,14-10.1c1,0.05,1.89-1.07,1.98-2.46c0.15-2.32,12.71-18.61,20.77-26.91c1.84-1.9,4.69-5.68,6.33-8.4
	c1.64-2.71,6.23-10.33,10.19-16.92c3.97-6.6,7.82-12.58,8.56-13.3c0.74-0.72,1.39-2.1,1.44-3.07c0.05-0.97,2.59-6.43,5.64-12.14
	c9.01-16.86,21.54-52.51,19.33-54.97c-0.5-0.56-6.42,0.76-13.15,2.93c-19.75,6.37-36.53,9.9-44.92,9.45
	c-7.29-0.39-7.78-0.64-7.19-3.66c0.44-2.25,3.2-4.44,9-7.16c7.42-3.48,13.55-7.22,22.99-14.03c9.17-6.62,17.04-12.45,18.36-13.6
	c20.94-18.19,24.37-21.25,33.22-29.58c3.99-3.76,7.98-7.45,8.85-8.2c7.34-6.32,22.82-26.61,21.46-28.12
	c-0.32-0.35-6.36,0.7-13.42,2.35c-7.06,1.65-17.41,3.05-22.99,3.13c-5.58,0.07-11.43,0.74-12.99,1.47
	c-3.83,1.79-5.96,1.56-5.86-0.64c0.06-1-2.51-3.07-5.68-4.61c-5.02-2.43-5.67-3.31-5.08-6.82c0.61-3.61,1.36-4.07,7.25-4.43
	c7.53-0.46,17.29-4.53,26.05-10.85c8.78-6.33,27.28-16.66,31.21-17.42c1.86-0.36,5.79-2.62,8.73-5.02
	c6.41-5.22,15.33-11.95,28.64-21.6c5.41-3.93,10.19-7.5,10.61-7.95c0.43-0.45,4.51-3.28,9.07-6.3c4.56-3.02,11.06-8.09,14.43-11.28
	c3.37-3.19,9.97-8.45,14.65-11.71c7.33-5.09,19.17-18.07,17.83-19.56c-0.25-0.28-6.05,1.22-12.9,3.31
	c-9.41,2.88-16.78,3.95-30.2,4.39c-21.5,0.71-25.24-0.15-24.94-5.72c0.23-4.27,6.08-10.01,20.73-20.36
	c4.16-2.93,12.78-9.31,19.17-14.18c6.39-4.86,15.89-11.88,21.1-15.59c17.6-12.53,44.68-38.24,57.17-54.29
	c4.42-5.67,11.05-14.16,14.74-18.87c12.66-16.13,15.18-19.59,20.46-28.11c2.91-4.69,9.39-14.21,14.39-21.15
	c15.76-21.86,26.79-40.44,43.17-72.66c13.33-26.23,18.35-38.02,35-82.19c8.59-22.78,10.82-27.44,13.07-27.32
	c2.16,0.12,2.81,1.57,3.16,7.08c0.25,3.82,0.29,9.55,0.1,12.74c-1.43,23.77,0.3,77.22,2.84,87.59c0.61,2.49,1.01,6.31,0.9,8.48
	c-0.24,4.53,8.42,45.95,10.42,49.86c0.73,1.43,1.23,4.53,1.11,6.89c-0.12,2.36,0.9,6.52,2.28,9.24c1.38,2.72,3.77,9.6,5.31,15.29
	c3.04,11.22,16.39,42.55,20.28,47.59c1.32,1.71,4.48,6.5,7,10.64c2.53,4.14,5.39,8.43,6.36,9.54c0.97,1.11,1.72,2.95,1.66,4.09
	c-0.06,1.14,0.87,2.12,2.06,2.19c1.2,0.06,2.13,0.99,2.08,2.05c-0.06,1.07,3.55,6.17,8,11.34c4.46,5.17,8.3,9.93,8.53,10.58
	c1.2,3.32,50.44,42.21,53.86,42.54c3.04,0.29,7.51,6.35,6.92,9.37c-0.8,4.06-6.92,4.8-13.45,1.63c-2.73-1.33-8.68-2.23-15.37-2.34
	c-6-0.1-14.59-1.28-19.09-2.64c-7.45-2.24-8.08-2.25-7.05-0.06c2.1,4.47,25.26,31.6,33.64,39.41c4.57,4.27,14.71,14.38,22.51,22.47
	c7.8,8.09,20.33,19.23,27.83,24.75c13.81,10.17,30.75,28.91,30.49,33.73c-0.17,3.13-4.22,2.74-9.54-0.91
	c-3.72-2.55-8.06-3.24-30.67-4.92c-14.48-1.08-26.35-1.75-26.36-1.51c0,0.25,3.1,4.68,6.92,9.85
	c14.52,19.67,48.93,57.04,64.66,70.24c3.75,3.14,8.42,7.84,10.38,10.44c1.96,2.6,6.05,6.17,9.1,7.93
	c7.49,4.34,10.95,8.47,10.72,12.82c-0.1,1.99-0.4,3.62-0.67,3.6c-0.26,0-7.23-1.35-15.49-2.97c-14.74-2.89-36.86-9.82-53.38-16.73
	c-4.6-1.92-8.71-3.17-9.14-2.79c-0.43,0.39,0.61,6.21,2.32,12.94c1.71,6.72,3.94,16.2,4.95,21.06c1.01,4.86,2.41,10,3.1,11.43
	c0.69,1.43,1.2,3.6,1.14,4.83c-0.17,3.2,8.01,21.3,12.56,27.78c2.12,3.02,4.6,6.76,5.51,8.3c12.2,20.66,23.06,35.38,38.37,52.07
	c5.8,6.31,11.28,12.61,12.18,14c2.8,4.3,6.47,18,6.2,23.14c-0.26,4.82-0.34,4.88-5.66,3.86c-10.81-2.05-29.1-9.44-40.59-16.39
	c-4.18-2.53-6.83-1.93-7.02,1.58c-0.57,10.68,18.62,73.37,26.22,85.65c1.36,2.2,2.42,4.94,2.36,6.09c-0.06,1.15,1.58,4.74,3.65,7.97
	c2.07,3.23,5.77,9.91,8.22,14.85c2.45,4.93,4.97,9.22,5.6,9.52c0.63,0.3,1.1,1.42,1.04,2.48c-0.06,1.07,0.44,2.18,1.1,2.49
	c0.66,0.3,3.97,4.62,7.36,9.61c3.39,4.98,10.18,14.19,15.09,20.45c8.48,10.8,11.52,17.63,9.3,20.84c-1.25,1.79-8.64,1.47-14.44-0.64
	c-2.41-0.88-7.28-2.56-10.82-3.75c-3.54-1.19-10.11-4.22-14.59-6.74c-11.99-6.72-12.48-4.2-4.15,21.02
	c2.42,7.33,6.16,16.2,8.31,19.71c2.15,3.51,3.9,6.92,3.9,7.57c0,0.66,2.7,4.94,6.02,9.52c3.32,4.58,9.92,14.1,14.69,21.16
	c4.76,7.06,9.95,14.4,11.52,16.31c1.57,1.91,2.84,3.89,2.81,4.4c-0.03,0.51,3.97,5.56,8.89,11.23c5.2,6,10.3,13.74,12.18,18.51
	c2.24,5.67,5.84,10.72,11.67,16.38c26,25.22,29.73,32.08,18.14,33.31c-6.2,0.66-11.7-0.67-42.2-10.18
	c-56.22-17.52-67.59-23.49-88.35-46.4c-7.11-7.84-13.12-14.27-13.36-14.28c-0.24,0,0.43,2.41,1.49,5.38
	c4.14,11.61,19.26,30.47,29.02,36.19c2.42,1.42,4.37,3.16,4.33,3.87c-0.04,0.71,4.58,6.32,10.25,12.47
	c7.76,8.42,10.27,12.14,10.11,15.07c-0.25,4.69-3.01,5.8-10.44,4.2c-5.13-1.1-5.5-0.96-4.91,1.92c0.35,1.71,1.26,3.15,2.01,3.19
	c0.76,0.04,1.11,1.26,0.78,2.7c-0.57,2.53,2.61,11.12,17.62,47.55c7.17,17.41,17.38,36.19,28.18,51.84
	c8,11.59,31.52,38.7,34.58,39.85c1.3,0.49,5.34,3.98,8.98,7.74c3.64,3.77,7.07,6.87,7.62,6.91c0.56,0.03,1.34,1.71,1.73,3.73
	c0.39,2.02,1.61,3.72,2.7,3.78c1.09,0.06,2.24,1.37,2.56,2.92c0.32,1.55,3.02,4.59,5.99,6.75c7.34,5.34,13.04,11.11,12.93,13.11
	c-0.14,2.6-10.87,1.36-18.55-2.15c-3.83-1.75-12.27-6.56-18.77-10.68c-6.5-4.13-18.34-11.34-26.33-16.04
	c-16.77-9.85-24.35-16.05-43.5-35.56c-4.95-5.04-11.13-11.27-13.72-13.83l-4.71-4.66l3.86,6.03c3.9,6.08,7.58,10.91,23.72,31.06
	c4.86,6.08,9.84,12.89,11.04,15.14c1.21,2.25,3.81,5.88,5.78,8.07c2.68,2.98,3.51,5.47,3.27,9.83c-0.27,5.14-0.79,5.94-4.28,6.62
	c-2.83,0.55-5.59-0.3-9.67-2.94c-3.13-2.04-7.6-4.84-9.93-6.22c-2.33-1.38-4.42-3.01-4.66-3.62c-0.23-0.61-1.01-1.15-1.73-1.18
	c-0.72-0.04-4.63-2.43-8.69-5.32c-4.06-2.89-11.52-7.68-16.56-10.64c-15.29-8.97-29.77-20.3-37.8-29.56l-7.61-8.79l2.05,11.19
	c1.13,6.15,2.3,12.69,2.61,14.53c0.31,1.84,1.64,4.55,2.97,6.02c2.73,3.04,3.13,13.93,0.66,18.01c-2.77,4.57-11.67,2.84-24.47-4.76
	c-12.08-7.17-32.76-25.01-41.28-35.6c-2.83-3.52-6.52-8.08-8.22-10.14c-1.69-2.06-3.04-4.41-2.99-5.23
	c0.04-0.81-0.28-1.16-0.71-0.77c-0.43,0.39-2.02,7.13-3.52,14.98c-1.51,7.84-4.22,18.93-6.02,24.64c-2.86,9.01-3.72,10.35-6.56,10.2
	c-3.3-0.17-12.94-5.35-14.38-7.72c-0.43-0.7-3.61-3.48-7.06-6.17c-9.64-7.49-18.19-17.06-25.31-28.33c-6.08-9.62-6.6-10.08-8.6-7.52
	c-1.17,1.5-3.24,6.17-4.6,10.38c-3.39,10.51-4.95,13.58-11.4,22.36c-3.07,4.18-5.78,8.09-6.03,8.67c-1.24,2.89-8.11,2.35-11.85-0.93
	c-3.66-3.2-14.4-26.17-19.38-41.41c-2.02-6.2-5.09-7.49-5.37-2.26c-0.5,9.31-19.86,40.48-26.46,42.6c-2.84,0.91-3.46,2.5-4.85,12.33
	c-0.88,6.21-2.4,15.5-3.39,20.65c-3.01,15.66-9.66,93.65-9.65,113.02c0,10.01-0.33,35.21-0.76,56c-0.65,31.58-0.22,43.7,2.61,73.65
	c5.02,53.2,8.46,73.62,13.85,82.25c1.3,2.07,4.12,7.79,6.28,12.71c2.16,4.92,5.82,11.59,8.13,14.83c2.31,3.23,4.16,6.68,4.11,7.64
	c-0.05,0.97,1.89,3.44,4.31,5.49c10.85,9.18,10.29,8.13,7.59,14.25c-1.95,4.41-3.29,5.58-6.61,5.79c-2.33,0.14-4.64-0.61-5.24-1.7
	c-0.83-1.51-1.31-1.4-2.16,0.5c-1.33,2.98-5.18,3.06-5.02,0.11c0.18-3.33-4.23-5.19-17.68-7.45c-26.55-4.46-89.45,1.21-125.17,11.29
	C464.46,1697.18,455.85,1698.16,453.83,1695.92L453.83,1695.92z M482.98,1683.84c22.3-6.72,84.73-13.01,115.38-11.61
	c7.11,0.32,12.95,0.29,12.97-0.09c0.03-0.37-1.98-4.47-4.45-9.11c-14.52-27.3-21.25-50.85-22.86-80.01
	c-0.33-6.02-1.14-14.25-1.81-18.29c-0.66-4.04-1.62-12.93-2.12-19.76c-0.5-6.83-1.31-16.05-1.79-20.47
	c-1.2-11.19-0.26-86.25,1.42-113.46c1.28-20.66,4.04-48.15,8.26-82.18c0.91-7.37,2.94-18.07,4.5-23.78
	c1.56-5.71,3.27-13.97,3.8-18.34c0.53-4.37,2.01-12.44,3.3-17.92c1.8-7.7,1.95-10.12,0.64-10.64c-0.94-0.37-1.63-1.92-1.55-3.45
	c0.08-1.53-0.52-2.82-1.33-2.86c-0.81-0.04-2.44-2.42-3.63-5.29c-1.18-2.86-2.52-5.22-2.97-5.25c-0.45-0.03-2.11,2.68-3.69,5.99
	c-3.68,7.72-21.38,26.74-25.21,27.1c-6.11,0.56-25.41-36.95-28.99-56.35l-2-10.82l-2.82,3.29c-1.55,1.81-2.87,4-2.93,4.88
	c-0.08,0.88-2.15,4.3-4.64,7.6l-4.52,6.01l4.31,8.39c8,15.55,9.87,28.48,9.56,65.76c-0.06,6.58,0.35,12.79,0.9,13.81
	c0.79,1.45-2.14,78.09-5.72,149.36c-0.25,5.19-2.06,16.56-3.99,25.26c-4.76,21.42-7.78,78.82-5.48,104.37
	c1.85,20.6-0.03,39.54-4.03,40.7c-1.32,0.38-5.67,6.82-9.67,14.32c-7.29,13.65-17.1,24.51-30.94,34.26
	c-3.01,2.12-4.02,3.37-2.34,2.89C470.19,1687.67,476.68,1685.73,482.98,1683.84L482.98,1683.84z M97.59,1256.66
	c5.94-3.38,11.45-6.1,12.24-6.06c0.79,0.04,1.47-0.53,1.51-1.28c0.04-0.75,1.57-1.73,3.39-2.2c1.83-0.47,3.67-1.23,4.09-1.7
	c0.43-0.47,3.79-2.66,7.49-4.86c8.6-5.13,13.48-8.95,23.98-18.73c13.87-12.93,18.67-8.7,7.99,7.05c-3.04,4.48-5.55,8.6-5.59,9.16
	c-0.03,0.56-1.03,2.64-2.21,4.64c-1.18,1.99-2.72,5.51-3.43,7.82c-0.71,2.31-3.04,6.26-5.17,8.78l-3.89,4.58l10.2-5.52
	c17.81-9.64,43.96-28.4,53.37-38.3c8.82-9.27,21.62-20.16,23.6-20.05c4.14,0.22,2.3,5.66-8.44,24.86
	c-5.75,10.29-10.5,19.54-10.56,20.57c-0.05,1.02-3.81,6.68-8.35,12.57l-8.24,10.7l9.82-2.63c12.85-3.44,18.34-5.96,46.1-21.1
	c25.15-13.73,41.38-26.68,54.63-43.57c4.18-5.32,7.84-8.61,9.49-8.53c4.14,0.22,3.05,5.12-2.8,12.6
	c-5.95,7.6-11.75,17.06-17.94,29.23c-2.38,4.68-5.99,10.5-8.03,12.94c-2.04,2.44-3.73,4.88-3.76,5.41
	c-0.03,0.54-1.82,2.86-3.97,5.16c-2.16,2.3-3.65,4.49-3.32,4.86c0.92,1.02,21.35-8.23,31.54-14.28
	c9.73-5.78,38.23-29.79,45.45-38.29c4.32-5.1,10.09-6.84,9.88-3c-0.06,1.06-3.04,7.81-6.62,15c-3.59,7.19-6.59,14.19-6.66,15.54
	c-0.07,1.36-2.84,6.25-6.12,10.88c-6.77,9.53-8.74,13.36-6.92,13.46c0.69,0.04,5.53-1.01,10.76-2.32
	c12.52-3.15,24.57-11.44,50.2-34.52c12.82-11.55,21.63-18.43,23.46-18.34c2.17,0.12,3.23,1.6,4.08,5.68
	c2.2,10.58,4.64,24.7,6.01,34.74l1.37,10.11l4.96-4.68c6.12-5.77,33.25-42.16,36.22-48.56c1.39-3.01,2.99-4.48,4.48-4.11
	c1.75,0.43,2.41,3.05,2.72,10.77c0.22,5.61,1.24,13.19,2.26,16.84c3.17,11.41,8.12,26.95,8.82,27.74
	c1.64,1.82,19.36-19.06,19.57-23.05c0.06-1.08,3.17-5.51,6.92-9.84c3.75-4.34,8.26-10.43,10.03-13.53
	c1.77-3.11,5.34-7.83,7.94-10.49c6.39-6.54,8.74-4.65,12.72,10.26c1.72,6.44,5.26,15.74,7.88,20.68c2.61,4.94,4.96,9.65,5.22,10.46
	c1.16,3.64,9.38,18.7,10.24,18.74c1.13,0.06,9.45-9.1,9.52-10.49c0.03-0.53,2.18-4.87,4.78-9.65c2.6-4.78,6.25-13.5,8.11-19.37
	c3.78-11.93,6.82-14.97,10.67-10.68c1.96,2.18,2.26,4.85,1.54,13.76c-0.67,8.35-0.33,12,1.39,14.94c4.18,7.16,5.6,9.86,7.19,13.61
	c0.87,2.05,2.19,4.2,2.93,4.79c2.62,2.06,12.13-13.58,18.73-30.8c10.79-28.18,12.49-27.7,27.99,7.84
	c6.29,14.43,12.09,26.34,12.88,26.46c2.15,0.33,10.62-14.36,12.34-21.39c0.82-3.36,2.17-8.87,3-12.24
	c2.47-10.08,7.21-17.36,11.49-17.63c4.35-0.27,9.81,4.74,13.09,12.02c2.34,5.19,36.72,44.2,39.07,44.32
	c2.79,0.15,8.32-25.66,10.33-48.21c0.74-8.26,0.97-8.71,4.7-8.93c2.97-0.19,4.51,0.78,6.34,3.98c1.33,2.32,3.81,5.68,5.51,7.46
	c1.71,1.79,3.08,3.64,3.06,4.12c-0.1,1.79,10.17,13.16,11.97,13.26c1.03,0.06,1.85,0.92,1.81,1.92c-0.03,1,4.12,5.31,9.22,9.59
	c5.11,4.28,11,9.5,13.11,11.62c4.65,4.68,16.2,11.96,17.35,10.93c1.23-1.1-2.6-24.02-7.04-42.18c-3-12.29-2.48-14.91,2.95-14.62
	c2.9,0.15,7.18,3.95,17.88,15.87c10.18,11.34,16.76,17.27,23.83,21.45c5.37,3.17,12.29,7.42,15.39,9.43
	c7.79,5.07,16.15,10.03,20.96,12.44l4.05,2.03l-4.53-6.47c-2.49-3.56-5.01-6.71-5.6-7.01c-0.59-0.3-1.05-1.3-1.03-2.24
	c0.03-0.93-2.96-5.34-6.63-9.79c-8.22-9.98-20.45-32.81-19.65-36.69c0.33-1.57,1.73-3.5,3.14-4.28c3.32-1.84,17.05,8.33,37.81,28.01
	c12.71,12.05,26.7,23.86,27.46,23.17c0.38-0.34-1.46-3.18-4.1-6.31c-6.58-7.82-19.6-28.64-27.78-44.44
	c-3.74-7.23-6.79-13.37-6.78-13.65c0-0.28-2.87-7.57-6.41-16.2c-3.54-8.63-6.42-16.08-6.39-16.54c0.03-0.47-1.06-3.69-2.4-7.15
	c-4.2-10.84-9.89-29.75-10.63-35.35c-0.68-5.15-1.1-5.5-10.92-9.19c-16.01-6-48.12-21.33-52.74-25.16
	c-2.3-1.91-9.13-6.31-15.19-9.77c-6.05-3.46-14.09-9.3-17.87-12.96c-4.05-3.93-6.9-5.82-6.97-4.6
	c-0.12,2.36,10.22,21.01,12.12,21.85c0.68,0.3,1.18,1.73,1.11,3.16c-0.08,1.44,1.33,3.7,3.14,5.02c1.8,1.32,6.19,5.65,9.75,9.62
	c4.96,5.51,6.33,8.1,5.84,10.98c-0.5,2.92-1.56,3.83-4.71,4.02c-3.75,0.23-15.04-3.29-21.79-6.79c-1.56-0.81-6.04-2.68-9.97-4.16
	c-16.71-6.31-46.44-25-54.22-34.09c-0.38-0.44-1.8-1.77-3.16-2.97c-2.3-2.01-2.39-1.88-1.19,1.85c0.71,2.21,1.18,5.91,1.06,8.21
	c-0.12,2.3,0.28,5.72,0.9,7.59c0.62,1.87,1.8,6.39,2.64,10.03c0.83,3.65,2.87,9.79,4.52,13.66c3.52,8.23,3.6,10.51,0.5,12.82
	c-1.83,1.36-3.64,1.25-9.07-0.52c-3.73-1.23-7.72-3.05-8.87-4.05c-1.15-1-6.06-3.76-10.91-6.12c-4.85-2.36-13.41-7.68-19.02-11.8
	c-9.96-7.33-30.45-28.71-34.99-36.51c-1.25-2.15-2.77-3.41-3.36-2.8c-0.6,0.61-0.84,7.67-0.55,15.69c0.3,8.02,0.1,17.75-0.44,21.63
	c-0.54,3.87-0.25,10.05,0.65,13.73c0.9,3.68,1.57,7.87,1.49,9.31c-0.18,3.32-5.34,5.8-9.12,4.38c-4.53-1.71-29.7-30.87-34.72-40.22
	c-4.08-7.59-5.08-11.08-7.49-26.03c-0.7-4.31-0.82-4.22-5.9,4.78c-2.85,5.05-6.74,11.58-8.64,14.5c-1.9,2.92-3.5,5.98-3.54,6.78
	c-0.04,0.81-1.32,2.67-2.84,4.13c-2.72,2.62-7.31,9.55-13.25,20.01c-5.29,9.31-10.2,6.57-19.47-10.88
	c-6.98-13.14-18.04-38.93-20.89-48.74l-1.6-5.52l-4.34,4.47c-2.39,2.46-5.86,7.01-7.71,10.11c-2.66,4.45-29.37,29.73-31.3,29.62
	c-0.26,0-2.39,1.57-4.74,3.52c-7.54,6.24-25.27,18.05-30.66,20.41c-2.87,1.26-6.93,3.69-9.02,5.41c-4.46,3.65-11.4,3.25-13.64-0.79
	c-1.18-2.13,0.28-5.67,7.66-18.51c7.66-13.34,9.33-17.46,10.43-25.78l1.31-9.9l-5.35,3.65c-2.94,2.01-7.57,5.59-10.28,7.96
	c-7.15,6.26-27.45,23.05-31.38,25.94c-5.72,4.21-15.44,8.38-22.74,9.76c-3.84,0.72-9.34,2.49-12.24,3.92
	c-2.9,1.43-8.06,2.88-11.46,3.22c-5.56,0.55-16.65,4.89-21.45,8.38c-0.99,0.72-3.63,1-5.86,0.63c-7.21-1.22-5.62-5.63,6.03-16.74
	c9.89-9.43,29.79-33.28,25-29.95c-17.72,12.3-63.45,34.06-83.52,39.72c-5.28,1.49-10.29,3.19-11.12,3.77
	c-3.06,2.15-12.63,3.94-15.41,2.89c-2.91-1.1-3.89-5.31-1.2-5.17c0.8,0.04,1.52-1.23,1.61-2.83c0.08-1.59,1.07-2.85,2.19-2.79
	c1.12,0.06,2.76-1.65,3.65-3.81c0.88-2.15,4.71-7.35,8.49-11.55c7.96-8.83,17.34-20.91,16.29-20.97c-0.4-0.03-2.4,1.35-4.45,3.04
	c-7.84,6.46-11.7,9.2-12.9,9.14c-1.92-0.1-17.34,13.82-20.55,18.55c-1.57,2.32-4.71,7.72-6.97,12c-2.26,4.28-4.55,8.09-5.1,8.46
	c-0.54,0.37-4.81,5.71-9.48,11.87c-4.67,6.15-10.99,14.01-14.03,17.45c-3.05,3.44-6.25,7.33-7.12,8.64
	c-3.98,5.99-17.57,22.58-23.35,28.5c-2.12,2.17-5.08,5.52-12.73,14.44c-5.68,6.62-22.35,21.47-61.56,54.85l-9.91,8.44l8.3-3.85
	C83.05,1264.53,91.65,1260.04,97.59,1256.66L97.59,1256.66z M243.29,1192.37c-1.27-2.33,2.7-15.73,7.05-23.77
	c4.07-7.54,14.75-17.43,18.59-17.22c3.73,0.2,1.51,5.27-5.3,12.08c-3.79,3.8-6.92,7.43-6.96,8.07c-0.03,0.64-1.51,3.8-3.28,7.02
	c-1.77,3.22-3.28,6.98-3.36,8.36C249.73,1192.74,245.41,1196.24,243.29,1192.37L243.29,1192.37z M708.25,1194.19
	c-2.17-9.85,0.31-29.55,3.71-29.37c1.3,0.07,1.85,4.06,1.89,13.56c0.03,7.41,0.17,15.09,0.32,17.07c0.19,2.46-0.52,3.72-2.2,3.97
	C710.18,1199.7,709.15,1198.25,708.25,1194.19L708.25,1194.19z M400.43,1178.09c0.36-6.79,9.89-22.08,13.64-21.88
	c3.16,0.17,2.38,3.3-3.73,15.01C404.65,1182.13,400.05,1185.33,400.43,1178.09L400.43,1178.09z M560.13,1185.81
	c0.27-5.07,4.31-14.3,6.21-14.2c1.92,0.1,2.02,10.95,0.14,15.17C564.98,1190.13,559.94,1189.36,560.13,1185.81L560.13,1185.81z
	 M824.75,1190.85c0-0.2-2.46-9.33-5.47-20.28c-3.01-10.95-5.4-21.07-5.33-22.48c0.21-4,3.99-2.81,5.45,1.72
	c3.23,10.02,9.93,37.35,9.79,39.95C829.13,1191.11,824.76,1192.18,824.75,1190.85L824.75,1190.85z M164.69,1110.87
	c16.66-5.57,54.11-21.88,63.85-27.81c10.05-6.11,23.82-16.83,39.63-30.83c11.76-10.41,17.37-12.18,17-5.35
	c-0.22,4.07-7.87,17.61-9.9,17.5c-0.67-0.04-1.26,0.67-1.31,1.57c-0.28,5.23-17.07,29.06-26.42,37.5c-1.97,1.78-3.35,3.51-3.05,3.84
	c1.16,1.29,15.49-3.77,34.22-12.07c25.66-11.37,28.23-12.69,50.43-25.82c16.13-9.54,23.9-15.56,39.79-30.78
	c3.51-3.37,8.1-3.04,9.05,0.65c0.92,3.55-0.16,5.35-7.57,12.53c-3.17,3.07-5.79,6.22-5.83,7.01c-0.04,0.79-1.48,2.31-3.2,3.38
	c-1.72,1.07-6.36,6.87-10.33,12.88c-3.96,6.01-10.63,15.22-14.81,20.47c-4.18,5.24-7.02,9.57-6.32,9.6
	c2.15,0.12,30.03-10.04,39.07-14.23c4.69-2.17,12.14-6.95,16.58-10.62c4.43-3.67,8.51-6.65,9.06-6.62
	c1.99,0.08,43.89-36.66,43.99-38.58c0.04-0.82,1.86-1.18,4.04-0.81c5.83,0.99,5.56,5.73-0.8,13.99c-4.64,6.03-5.55,8.5-6.98,19.01
	c-1.76,12.88-4.7,22.83-6.7,22.73c-0.67-0.04-1.28,0.95-1.34,2.18c-0.06,1.24-1.28,4.22-2.69,6.64l-2.57,4.39l7.27-3.75
	c7.53-3.88,33.36-22.12,41.91-29.59c13.56-11.85,31.94-33.94,36.94-44.39c1.83-3.82,4.99-4.77,8.2-2.46
	c0.88,0.64,2.41,4.47,3.41,8.53c1,4.06,3.95,12.73,6.57,19.28c4.98,12.45,19.09,40.95,20.34,41.06c0.4,0.03,3.1-3.24,6-7.28
	c2.9-4.04,9.72-13.49,15.15-20.99c5.43-7.51,10.33-15.1,10.88-16.89c0.56-1.78,3.35-6.72,6.21-10.97c4.04-5.99,6.11-7.78,9.26-7.98
	l4.05-0.25l-1.6,11.63c-0.98,7.11-1.07,12.37-0.24,13.55c0.74,1.06,1.66,4.2,2.04,6.99c0.73,5.43,11.77,22.53,20.91,32.41l5.6,6.05
	l0.5-10.82c0.28-5.95,0.21-16.08-0.13-22.5c-0.83-15.43,1.59-25.04,6.57-26.01c4.63-0.9,7.66,1.42,20.97,16.08
	c5.98,6.59,14.41,15.49,18.73,19.76c8.04,7.97,33.81,24.33,35.67,22.65c0.57-0.51,0.37-3.37-0.44-6.35
	c-0.81-2.98-2.62-12.46-4.01-21.05c-1.4-8.6-3.48-18.78-4.62-22.63c-2.74-9.25-1.24-14.28,4.16-13.99c2.94,0.16,4.65,1.44,6.4,4.79
	c4.61,8.85,22.68,26.24,34.78,33.47c7.11,4.25,34.17,18.15,35.46,18.22c1.23,0.07-3.3-10.31-7.73-17.72
	c-2.75-4.6-4.68-9.78-4.55-12.2c0.12-2.31-0.35-4.24-1.05-4.28c-1.39-0.07-2.16-17.15-0.92-20.06c1.43-3.34,6.16-1.49,12.9,5.06
	c3.71,3.6,9.18,8.91,12.15,11.8c2.98,2.89,10.19,7.86,16.02,11.05c5.83,3.19,14.72,8.43,19.76,11.65
	c9.31,5.95,43.22,21.52,52.85,24.25l5.3,1.51l-2.12-3.65c-1.17-2.01-3.84-4.66-5.92-5.88c-4.91-2.88-17.84-18.46-24.56-29.59
	c-8.18-13.54-12.18-31.37-8.76-39.03c2.11-4.73,7.06-1.74,19.43,11.74c17.62,19.21,24.78,25.39,37.73,32.57
	c12.54,6.95,34.96,16.03,53.12,21.5l11.87,3.58l-5.9-7.07c-6.15-7.37-8.95-11.56-33.41-50.02c-8.17-12.84-17.27-26.76-20.24-30.92
	c-10.14-14.26-27.37-57.94-26.84-68.02c0.66-12.37,0.03-13.33-16.65-25.22c-8.59-6.12-18.65-14.24-22.35-18.03l-6.74-6.9l0.12,10.89
	c0.06,5.99,0.86,11.9,1.78,13.13c0.92,1.23,1.43,3.41,1.14,4.84c-0.29,1.43-0.2,5.78,0.21,9.65c1.22,11.74-4.72,14.33-14.89,6.5
	c-2.99-2.3-9.14-6.96-13.66-10.35c-11.25-8.45-14.09-11.12-24.77-23.29l-9.26-10.56l-0.29,5.38c-0.33,6.21,1.73,18.5,3.46,20.63
	c0.65,0.79,1.08,3.77,0.97,6.6c-0.12,2.84,0.59,7.82,1.57,11.07c2.37,7.86,2.03,13.93-0.78,13.78c-1.2-0.06-2.14-0.77-2.1-1.57
	c0.04-0.8-1.57-1.54-3.58-1.64c-6.57-0.35-31.74-15.99-43.54-27.06c-11.11-10.41-25.2-26.08-30.58-33.99l-2.8-4.12l-1.25,5.79
	c-0.84,3.9-0.29,11.87,1.67,24.43c3.97,25.46,3.94,25.87-2.22,26.13c-6.2,0.26-14.08-3.58-24.94-12.16
	c-12.16-9.6-17.37-15.46-24.67-27.71c-3.57-6-6.99-10.93-7.59-10.96c-0.6-0.03-3.31,3.92-6.02,8.77
	c-2.71,4.86-8.08,11.87-11.94,15.58c-3.86,3.71-8.44,9.19-10.18,12.19c-3.52,6.08-8.41,7.09-11.9,2.44
	c-2.96-3.94-9.43-36.87-8.99-45.71c0.14-2.63-3.53,2.71-11.38,16.61c-13.23,23.42-23.96,35.11-31.82,34.69
	c-5.72-0.3-6.85-2.2-9.52-15.89c-3.06-15.71-6.38-29.9-8.23-35.16l-1.52-4.33l-3.69,4.78c-3.97,5.15-15.66,14.61-28.52,23.09
	c-4.4,2.9-8.69,5.78-9.52,6.4c-3.37,2.5-28.59,15.4-35.72,18.27c-4.2,1.69-9.02,3-10.72,2.92c-1.7-0.09-5.58,0.74-8.64,1.83
	c-11.15,3.97-12.64-2.48-2.96-12.79c3.4-3.61,6.19-6.98,6.22-7.47c0.03-0.5,2.44-4.24,5.36-8.31c4.54-6.32,9.14-18.05,9.46-24.1
	c0.05-0.95-1.52-0.19-3.48,1.7c-7.87,7.57-23.28,18.72-32.98,23.86c-5.64,2.99-12.48,6.95-15.2,8.79
	c-2.72,1.84-11.32,6.32-19.12,9.96c-7.8,3.64-17.21,8.14-20.91,10.01c-7,3.53-14.78,4.23-14.63,1.32
	c0.09-1.68,11.85-16.04,13.74-16.78c1.79-0.71,11.08-12.02,11.16-13.6c0.05-0.84,0.68-1.5,1.39-1.47c0.73,0.04,3.6-3.94,6.4-8.83
	c3.58-6.28,5.03-10.47,4.9-14.22l-0.19-5.31l-5.52,4.36c-3.04,2.4-10.43,7.99-16.43,12.44c-6,4.44-11.73,9.09-12.73,10.33
	c-3.46,4.29-25.52,19.74-34.74,24.33c-5.09,2.53-9.98,6.04-10.87,7.79c-0.88,1.75-2.08,3.16-2.67,3.13
	c-0.59-0.03-0.75,0.91-0.37,2.1c0.66,2.04-5.1,17.01-7.7,20.02c-0.67,0.77-1.7,3.69-2.28,6.48c-0.58,2.79-4.51,9.79-8.73,15.55
	c-4.22,5.76-10.84,15.21-14.7,21.01c-3.86,5.8-7.92,11.38-9.01,12.39c-1.09,1.02-3.15,3.86-4.58,6.3c-1.43,2.45-4.25,6.4-6.25,8.76
	c-2.01,2.37-3.68,4.81-3.71,5.41c-0.03,0.61-3.26,4.3-7.18,8.21c-3.92,3.91-7.94,8.71-8.94,10.66c-1,1.95-3.88,5.44-6.41,7.77
	c-2.52,2.33-7.03,6.93-10.01,10.24c-5.99,6.65-6.11,6.76-25.73,23.77c-7.61,6.6-14.42,11.97-15.13,11.93
	c-0.71-0.04-4.67,2.76-8.8,6.23C145.89,1116.84,146.61,1116.91,164.69,1110.87L164.69,1110.87z M309.85,1010.07
	c-0.97-2.99,0.53-7.8,5.03-16.1c1.97-3.64,5.67-11.58,8.23-17.64c2.71-6.44,5.48-10.99,6.64-10.93c1.09,0.06,1.94,0.79,1.9,1.63
	c-0.1,1.9-13.19,38.08-15.34,42.41C314.46,1013.13,310.95,1013.47,309.85,1010.07L309.85,1010.07z M459.88,1000.65
	c-0.41-1.27,0.39-4.66,1.77-7.55c1.39-2.88,3.6-11.08,4.93-18.22c3.22-17.33,3.91-19.44,6.28-19.31c3.29,0.17,0.92,26.12-4.07,44.54
	C467.76,1003.93,461.08,1004.34,459.88,1000.65L459.88,1000.65z M768.6,1007.37c-0.99-2.65-3.35-9.49-5.24-15.2
	c-1.9-5.71-4.24-12.48-5.21-15.05c-2.23-5.89-2.13-7.9,0.38-7.77c3.21,0.17,18.03,34.17,17.69,40.56
	C775.96,1014.48,770.58,1012.67,768.6,1007.37L768.6,1007.37z M595.95,997.43c-0.27-1.42-0.44-6.5-0.37-11.3
	c0.07-4.8,0.15-10.03,0.16-11.63c0.12-10.07,1.44-16.66,3.3-16.56c2.72,0.14,3.39,5.15,3.41,25.29c0.03,16.65-0.06,17.1-3,16.94
	C597.79,1000.07,596.22,998.85,595.95,997.43L595.95,997.43z M867.47,997.36c-3.39-5.53-12.02-26.98-11.88-29.53
	c0.27-4.98,4.26-0.94,8.91,9c2.78,5.95,6.17,12.62,7.52,14.82c2.94,4.76,2.97,10.12,0.06,9.97
	C870.94,1001.54,868.87,999.63,867.47,997.36L867.47,997.36z M231.71,913.58c17.8-7.81,42.28-21.75,54.82-31.23
	c10.49-7.93,15.39-12.89,15.54-15.76c0.17-3.25,5.01-5.75,10.58-5.45c3.13,0.17,3.39,2.7,0.96,9.41
	c-11.3,31.17-12.81,34.43-18.52,40c-3.22,3.14-5.88,6.14-5.9,6.66c-0.03,0.52,3.28-0.52,7.35-2.32c4.07-1.8,8.57-3.21,10-3.13
	c3.49,0.19,18.83-8.95,28.22-16.83c4.19-3.51,14.44-11.46,22.78-17.67c8.34-6.21,17.96-14.78,21.39-19.04
	c6.55-8.14,11.45-10,11.14-4.23c-0.33,6.18-5.93,28.23-8.53,33.62c-1.43,2.97-4.63,8.03-7.12,11.27c-2.49,3.23-4.54,6.25-4.57,6.7
	c-0.03,0.46-1.26,2.03-2.73,3.49c-5.17,5.12-6.86,7.21-6.32,7.82c0.83,0.92,19.61-7.74,31.28-14.44c5.7-3.27,11-5.91,11.77-5.87
	c0.77,0.04,1.44-0.41,1.47-1.01c0.03-0.6,3.25-2.67,7.16-4.6c9.04-4.47,28.21-20.7,32.09-27.15c1.66-2.77,4.3-5.06,5.99-5.22
	c2.61-0.25,3.11,0.72,3.63,6.94c0.33,3.98,0,10.38-0.76,14.23c-1.3,6.69-9.62,22.21-15.06,28.11c-1.41,1.53-3.51,4.28-4.68,6.12
	c-2.11,3.32-2.08,3.34,3.5,2.67c14.72-1.77,52.06-21.9,70.48-37.99c8.49-7.42,9.64-9.07,14.54-20.92c3.46-8.37,7.95-9.19,11.11-2.03
	c5.47,12.37,13.24,37.47,14.83,47.89c0.96,6.31,1.96,11.71,2.22,12c2.36,2.63,25.72-34.45,35.68-56.63c2.21-4.92,4.12-7.2,6.2-7.4
	c2.57-0.25,3.08,0.71,3.57,6.74c0.31,3.87,1.62,12.33,2.91,18.8c1.3,6.47,2.89,14.91,3.55,18.75c0.66,3.84,1.67,7,2.25,7.04
	c2.66,0.14,10.51-7.44,13.96-13.48c2.09-3.67,4.96-8.25,6.36-10.18c1.41-1.93,3.18-6.6,3.94-10.4c0.76-3.79,2.56-8.2,4-9.8
	c4.26-4.72,8.1-1.86,14.91,11.12c9.3,17.72,24.34,36.51,33.66,42.07c4.62,2.75,4.55,3.2,1.73-12.16
	c-2.59-14.05-1.93-39.42,1.09-42.13c4.04-3.64,11.85-0.28,19.2,8.26c7.6,8.82,10.84,12.39,23.39,25.75
	c16.26,17.3,20.05,20.6,35.53,30.92c6.02,4.02,5.93,4.25,3.63-8.45c-0.95-5.26-2.08-14.28-2.5-20.05
	c-0.42-5.77-1.89-14.51-3.26-19.41c-3.88-13.95-2.64-22.12,3.33-21.8c3.4,0.18,8.24,5.98,14.01,16.76
	c1.54,2.88,6.71,9.51,11.48,14.73c10.64,11.63,33.49,30.67,34.31,28.59c0.33-0.83,0.04-3.68-0.64-6.33
	c-0.68-2.64-1.41-9.4-1.62-15.02c-0.21-5.61-0.78-14.34-1.27-19.39c-0.95-9.93,0.68-14.85,4.85-14.63c1.29,0.07,7.7,6.14,14.25,13.5
	c6.54,7.35,14.38,15.01,17.42,17.02c3.04,2.01,10.79,7.17,17.22,11.47c6.43,4.3,12.07,7.84,12.52,7.86c0.46,0.03,4.69,2.76,9.4,6.07
	c4.71,3.31,9.81,6.56,11.33,7.22c2.52,1.09,2.59,0.95,0.74-1.52c-5.24-7.02-13.35-19.73-13.29-20.83c0.04-0.67-1.08-2.63-2.47-4.36
	c-1.4-1.73-4.24-6.81-6.31-11.3c-2.08-4.48-4.55-9.09-5.49-10.22c-0.94-1.14-1.64-3.28-1.56-4.76c0.08-1.48-0.71-3.64-1.75-4.81
	c-3.99-4.44-14.94-35.84-17.21-49.33c-0.68-4.04-1.69-8.35-2.25-9.58c-1.18-2.62-4.86-17.42-8.97-36.09
	c-1.6-7.27-3.87-13.94-5.04-14.83c-1.17-0.89-7.55-5.1-14.16-9.35c-6.62-4.25-16.3-12.14-21.53-17.52
	c-5.23-5.39-10.24-9.83-11.13-9.88c-0.9-0.05-2.27-1.72-3.06-3.72c-0.79-2-2.38-4.06-3.55-4.58c-1.81-0.81-2.05,0.42-1.62,8.2
	c0.73,13.02,6.25,35.01,9.13,36.32c1.29,0.59,4.32,2.94,6.73,5.22c5.71,5.4,5.67,11.11-0.1,12.98c-3.3,1.07-6.37,0.45-16.2-3.28
	c-28.6-10.87-39.91-15.89-39.81-17.68c0.03-0.6-0.87-1.15-2-1.21c-1.13-0.06-6.84-3.7-12.7-8.08c-9.84-7.37-13.52-10.76-25.24-23.28
	l-4.31-4.6l0.52,4.14c0.29,2.28,0.96,4.82,1.5,5.65c0.54,0.83,1.26,4.37,1.61,7.86c0.8,8.08,6.12,22.96,10.53,29.43
	c2.45,3.61,3.09,5.99,2.29,8.59c-0.95,3.09-1.93,3.55-6.91,3.28c-3.19-0.17-6.9-0.95-8.25-1.72c-1.35-0.78-7.55-4.16-13.77-7.52
	c-15.05-8.12-29.22-18.42-35.58-25.86l-5.18-6.06l-2.29,14.06c-2.06,12.63-5.3,23.85-9.51,32.96c-2.36,5.1-8.13,3.8-14.41-3.26
	c-2.96-3.33-5.37-6.43-5.34-6.9c0.03-0.47-1.53-2.7-3.46-4.97c-1.93-2.27-4.64-7.13-6.02-10.81c-1.39-3.68-3.09-7.85-3.79-9.28
	c-0.7-1.43-1.22-3.51-1.16-4.63c0.06-1.12-0.65-4.13-1.57-6.7l-1.68-4.67l-4.65,7.26c-2.56,3.99-6.56,10.19-8.9,13.76
	c-2.34,3.58-4.95,7.78-5.81,9.33c-0.85,1.56-3.8,5.17-6.54,8.02c-6.41,6.69-13.27,6.94-16.12,0.59c-1.01-2.26-2.22-4.45-2.68-4.87
	c-1.42-1.31-6.19-17.74-6.02-20.77c0.08-1.58-0.42-4.04-1.13-5.46c-0.7-1.43-1.84-5.45-2.51-8.93l-1.23-6.34l-5.59,4.88
	c-3.08,2.68-6.06,4.86-6.63,4.83c-0.57-0.03-1.56,1.39-2.21,3.16c-1.1,3-10.73,12.13-12.75,12.08c-0.5,0-5.34,3.32-10.77,7.42
	c-5.42,4.09-11.38,8.01-13.25,8.71c-1.87,0.7-8.06,3.98-13.78,7.29c-10.04,5.82-16.71,7.29-18.47,4.07
	c-0.47-0.85,1.18-6.5,3.66-12.54c2.8-6.83,5.16-15.94,6.23-24.08c0.95-7.19,2.25-14,2.88-15.13c0.63-1.12,0.24-0.81-0.87,0.7
	c-2.91,3.96-8.78,9.13-15.63,13.78c-8.04,5.45-19.14,14.31-22.37,17.84c-1.45,1.59-6.88,4.84-12.06,7.22
	c-5.18,2.39-13.58,7.24-18.66,10.77c-10.46,7.28-18.53,11.14-30.28,14.49c-15.48,4.42-17.49-1.26-4.72-13.32
	c23.67-22.36,24.84-24.02,30.31-43l0.82-2.87l-1.92,2.81c-1.86,2.72-16.48,15.86-17.57,15.8c-0.3-0.03-3.68,2.76-7.53,6.16
	c-3.84,3.41-10.84,8.61-15.54,11.56c-4.71,2.96-12.48,8.02-17.27,11.25c-4.79,3.23-12.35,6.81-16.81,7.96
	c-8.04,2.06-12.64,5.79-12.89,10.45c-0.07,1.33-1.04,2.72-2.16,3.08c-1.12,0.36-2.63,3.14-3.35,6.16
	c-0.72,3.03-4.36,10.26-8.08,16.06c-3.72,5.81-7.24,11.51-7.83,12.68c-0.59,1.17-1.96,3.35-3.04,4.85c-1.08,1.5-4.4,6.23-7.37,10.52
	c-2.97,4.29-7.33,9.99-9.7,12.67c-30.67,34.72-42.37,47.48-47.95,52.29c-9.64,8.31-14.05,12.82-12.64,12.88
	C210.45,922.64,220.33,918.57,231.71,913.58L231.71,913.58z M343.2,839.84c0.49-1.37,3.49-10.05,6.66-19.29
	c3.41-9.92,6.51-16.75,7.58-16.7c2.31,0.12,2.21,1.41-1.28,16.59c-3.77,16.39-6.63,22.29-10.71,22.07
	C343.14,842.39,342.55,841.68,343.2,839.84L343.2,839.84z M484.97,833.55c-0.34-1.03,0.94-6.82,2.83-12.86
	c1.89-6.04,4.1-14.91,4.91-19.72c1.17-7,1.97-8.72,4.01-8.61c2.24,0.12,2.41,1.31,1.39,9.9c-1.52,12.88-4.7,27.64-6.64,30.84
	C489.69,836.05,485.86,836.32,484.97,833.55L484.97,833.55z M677.46,832.93c-0.29-1.42-1.12-5.88-1.84-9.92
	c-0.72-4.04-1.77-9.66-2.33-12.5c-2.29-11.51-2.27-16.13,0.07-16.01c1.22,0.07,3.12,2.62,4.21,5.68
	c3.63,10.16,7.85,30.87,6.79,33.25C682.95,836.55,678.14,836.2,677.46,832.93L677.46,832.93z M804.5,834.2
	c0.07-1.23-0.75-3.72-1.8-5.55c-2.85-4.94-9.05-26.07-9.78-33.34c-0.54-5.37-0.28-6.24,1.69-5.73c1.39,0.36,3.97,5.39,6.39,12.46
	c2.23,6.52,5.62,15.44,7.53,19.81c4.54,10.38,4.37,15.03-0.53,14.77C805.72,836.5,804.42,835.61,804.5,834.2L804.5,834.2z
	 M321.96,772.65c8.38-2.86,16.27-6.26,17.54-7.55c1.27-1.29,6.7-5.33,12.07-8.98c5.37-3.65,11.62-8.18,13.88-10.06
	c2.26-1.88,7.67-6.18,12.01-9.55c15.65-12.15,29.15-24.82,31.36-29.41c2.76-5.73,6-8.3,9.4-7.46c4.28,1.07,3.55,5.08-3.17,17.35
	c-3.53,6.45-7.01,14.31-7.72,17.47c-1.73,7.63-11.09,23.99-16.4,28.65c-2.33,2.05-5.97,5.53-8.09,7.74l-3.84,4.02l9.01-4.15
	c4.95-2.28,10.7-5.54,12.76-7.24c2.06-1.7,9.16-6.31,15.77-10.24c6.62-3.93,15.43-9.63,19.6-12.69
	c16.18-11.86,30.37-23.14,30.96-24.62c1.37-3.42,13.32-13.25,15.95-13.1c2.57,0.14,2.68,0.88,1.34,9.17
	c-0.8,4.96-2.39,15.52-3.52,23.46c-1.13,7.95-2.66,16.67-3.41,19.38l-1.35,4.93l7.35-3.79c21.97-11.33,53.67-37.47,60.53-49.91
	c2.72-4.94,4.4-6.42,7.51-6.61c3.68-0.23,3.98,0.16,3.74,4.74c-0.39,7.26,10.62,52.53,12.8,52.64c2.9,0.16,10.94-8.76,16.63-18.44
	c3.75-6.38,7.98-13.51,9.41-15.83c1.43-2.33,2.69-5.21,2.81-6.4c0.49-5.04,7.35-14.9,10.57-15.18c2.97-0.26,3.25,0.31,2.94,6.09
	c-0.42,7.92,7.3,35.87,10.92,39.51c0.42,0.42,3.1,4.67,5.95,9.43c7.88,13.16,10.18,9.82,15.2-22.13c1.5-9.53,3.42-18.1,4.27-19.06
	c3.01-3.39,6.76-1.4,11.58,6.13c5.53,8.63,18.49,18.67,36.22,28.08c6.35,3.37,11.74,5.97,11.97,5.78c0.23-0.19-0.65-3.28-1.96-6.86
	c-2.66-7.31-6.51-26.76-8.08-40.83c-0.84-7.54-0.64-9.68,1.08-11.22c3.32-2.98,5.74-2.13,10.84,3.8
	c7.62,8.88,26.02,24.11,39.65,32.85c11.9,7.63,35.55,19.78,38.83,19.95c0.83,0.05,0.48-2.69-0.8-6.23
	c-3.21-8.89-7.21-41.39-5.93-48.19c2.5-13.25,7.4-12.65,24.16,2.98c23.34,21.76,39.65,33.52,62.07,44.75l11.04,5.53l-9.21-12.41
	c-5.07-6.82-10.3-13.75-11.63-15.39c-4.11-5.06-15.77-24.57-15.68-26.24c0.05-0.87-0.44-1.61-1.08-1.64
	c-2.05-0.11-11.79-21.42-14.32-31.33c-4.24-16.64-11.73-58.85-11.43-64.45c0.18-3.36-0.66-4.23-5.86-6.07
	c-3.34-1.18-11.33-4.61-17.76-7.6c-6.43-3-11.97-5.2-12.31-4.89c-1.16,1.05,2.68,14.14,6.09,20.75c2.13,4.13,6.27,8.64,11.08,12.09
	c8.43,6.05,10.05,8.73,7.16,11.86c-2.42,2.62-11.9,2.11-31.92-1.7c-20.35-3.89-29.3-7.12-38.33-13.83
	c-8.32-6.19-10.05-5.77-10.53,2.53c-0.34,5.72,2.5,10.09,9.42,14.48c3.08,1.95,5.57,4.25,5.52,5.11c-0.15,2.71-12.52,7.44-18.57,7.1
	c-5.14-0.31-20.15-6.85-22.01-9.62c-0.39-0.58-4.45-4.19-9.02-8.04c-4.57-3.84-13.81-12.85-20.53-20.01
	c-6.71-7.16-12.96-13.07-13.88-13.11c-3.91-0.21-10.78,19.62-12.02,34.66c-0.65,7.97-0.14,11.49,2.76,18.99
	c6.01,15.56,0.94,21.57-9.46,11.22c-17.53-17.45-22.23-24.21-30.2-43.4l-3.99-9.62l-4.55,8.74c-2.5,4.81-7.01,12.07-10.03,16.15
	c-3.02,4.07-6.07,9.84-6.79,12.81c-1.85,7.69-6.58,12.64-11.31,11.84c-3.45-0.59-3.78-1.25-3.61-7.19c0.14-4.55-1.23-9.5-4.47-16.25
	c-2.57-5.34-5.33-12.7-6.15-16.34c-0.82-3.65-1.63-6.86-1.8-7.13c-0.53-0.84-17.61,11.82-24.18,17.94
	c-3.41,3.17-8.84,7.14-12.08,8.82c-3.24,1.68-6.77,4.2-7.87,5.59c-3.07,3.92-28.57,18.83-31.91,18.66c-2.01-0.11-2.91-1.1-2.81-3.1
	c0.17-3.18,8.38-18.27,11.63-21.39c3.29-3.16,7.48-11.29,10.1-19.62c1.36-4.33,2.35-8.01,2.2-8.18c-0.15-0.17-4.35,3.05-9.33,7.14
	c-4.98,4.1-9.54,7.42-10.12,7.39c-0.59-0.03-3.31,1.68-6.06,3.81c-14.19,11.01-42.94,22.69-54.35,22.08
	c-5.83-0.31-3.59-6.33,7.16-19.26c9.51-11.44,16.47-22.37,19.2-30.2l1.22-3.5l-5.13,3.83c-2.82,2.1-9.67,7.6-15.23,12.21
	c-14.48,12.01-27.16,19.89-44.21,27.46c-19.4,8.62-37.5,12.38-39.75,8.27c-1.68-3.07,1.3-6.69,10.34-12.56
	c15.28-9.93,45.13-37.85,35.53-33.23c-1.5,0.72-5.07,2.88-7.93,4.78c-2.86,1.9-6.05,3.42-7.09,3.37c-1.04-0.06-1.93,0.39-1.97,0.99
	c-0.09,1.1-4.36,2.98-19.68,8.63c-9.14,3.37-9.15,3.38-11.56,17.73c-2.53,15.11-14.32,47.54-21.39,58.88
	c-0.84,1.34-1.56,3.11-1.6,3.92c-0.04,0.81-1.46,2.71-3.14,4.22c-1.68,1.51-3.12,3.95-3.2,5.43c-0.08,1.47-1.51,3.79-3.19,5.15
	c-1.68,1.36-3.11,3.79-3.2,5.41c-0.16,2.94-10.17,17.31-13.88,19.92c-1.09,0.77-3.89,4.28-6.24,7.82
	c-4.31,6.5-9.84,13.16-18.08,21.79l-4.52,4.73l7.01-4.21c3.86-2.31,8.91-5.87,11.24-7.91c2.32-2.04,7.98-6.42,12.56-9.75
	c4.58-3.33,10.12-7.78,12.3-9.89c2.19-2.11,4.73-3.8,5.66-3.75c0.92,0.05,1.72-0.6,1.77-1.43c0.04-0.84,1.66-2.88,3.58-4.54
	c4.49-3.87,18.08-19.55,18.15-20.96c0.09-1.63,8.17-7.67,10.2-7.62c2.34,0.06,5.8,7.87,5.56,12.5c-0.34,6.25-9.63,26.59-16.94,37.06
	c-3.77,5.4-8.13,10.99-10.8,13.86c-5.14,5.52-13.66,16.13-12.98,16.17c0.38,0.03,7.54-2.31,15.91-5.17V772.65z M449.22,699.94
	c0.42-7.81,6.4-27.68,8.33-27.57c2.7,0.14,1.73,13.23-1.74,23.46C452.82,704.64,448.85,707.11,449.22,699.94L449.22,699.94z
	 M373.61,681.5c2.77-17.18,3.76-20.68,5.81-20.57c1.51,0.08,1.89,2.24,1.5,8.45c-0.83,13.09-2.79,19.75-5.93,20.19
	C372.48,689.9,372.36,689.2,373.61,681.5L373.61,681.5z M756.79,686.51c-6.77-11.84-9.49-23.52-5.4-23.14
	c2.48,0.23,15.8,24.33,15.6,28.2C766.68,697.43,761.59,694.9,756.79,686.51L756.79,686.51z M616.57,677.31
	c-2.31-5.32-6.37-20.85-6.21-23.79c0.03-0.36,0.95-0.61,2.07-0.54c2.03,0.11,14.06,25.54,13.86,29.31
	c-0.06,1.12-1.59,1.91-3.48,1.81C620.28,683.96,618.73,682.28,616.57,677.31L616.57,677.31z M378.35,624.94
	c9.71-4.22,21.75-10.88,28.21-15.6c23.33-17.06,40.43-31.04,42.42-34.68c1.13-2.07,3.3-3.94,4.82-4.15
	c2.53-0.35,2.64,0.28,1.34,7.33c-2.48,13.38-7.98,25.21-19.21,41.34c-4.31,6.19-7.49,11.63-7.07,12.1
	c1.4,1.56,11.63-2.22,24.51-9.07c7-3.72,13.64-7.56,14.75-8.54c1.11-0.97,2.46-1.76,3-1.74c0.54,0.03,4.72-3.04,9.28-6.78
	c4.56-3.75,8.66-6.8,9.1-6.77c0.45,0.03,1.71-1.72,2.81-3.89c2.94-5.79,12.34-14.23,15.65-14.05c2.59,0.14,2.75,0.85,1.65,7
	c-1.45,8.16-7.47,28.31-9.45,31.64c-0.77,1.3-2.66,4.91-4.2,8.03c-1.54,3.12-3.11,6.15-3.49,6.74c-1.57,2.44,20.87-13.6,33.31-23.8
	c9.82-8.06,14.68-13.26,18.14-19.37c2.59-4.6,4.76-9.2,4.82-10.24c0.11-2.04,3.32-3.47,7.33-3.25c3.21,0.17,4.88,3.88,8.43,18.64
	c2.91,12.13,9.39,29.48,10.6,28.4c1.37-1.23,8.58-13,11.77-19.2c1.8-3.5,4.69-8.99,6.42-12.19c1.73-3.2,3.3-8.78,3.49-12.4
	c0.25-4.66,1.03-6.8,2.69-7.34c4.81-1.56,6.37-0.4,7.74,5.71c2.27,10.15,11.8,31.39,18.92,42.19l2.9,4.4l1.36-7.17
	c0.75-3.95,3.29-13.55,5.64-21.35c2.35-7.8,4.35-15.57,4.45-17.27c0.23-4.43,4.52-9.33,8-9.14c3.51,0.19,10.84,6.3,24.2,20.14
	c12.03,12.48,35.82,32.55,38.76,32.71c1.79,0.1,1.99-0.77,1.07-4.68c-0.62-2.64-0.46-9.2,0.35-14.59c1.15-7.68,2.11-10.1,4.41-11.18
	c4.46-2.09,11.22,0.19,21.72,7.31c7.21,4.89,12.78,7.28,23.22,9.97c7.55,1.94,13.99,3.31,14.3,3.03c0.94-0.85-0.93-5.37-2.25-5.44
	c-2.08-0.11-6.08-19.64-6.45-31.44l-0.35-11.14l4.42,0.24c2.43,0.13,8.79,2.36,14.14,4.96c5.35,2.6,16.95,7.18,25.77,10.18
	c8.82,3,23.19,8.44,31.94,12.09c8.74,3.66,16.04,6.47,16.21,6.25c0.18-0.22-6.96-7.99-15.86-17.27
	c-8.9-9.28-16.21-17.54-16.26-18.35c-0.04-0.81-1.26-2.31-2.72-3.32c-1.46-1.02-6.51-7.18-11.25-13.69
	c-4.73-6.51-9.39-12.74-10.35-13.85c-0.96-1.11-1.72-2.58-1.68-3.26c0.03-0.68-0.7-2.15-1.65-3.26c-4.36-5.13-9.05-14.55-8.87-17.84
	c0.19-3.48-0.56-3.83-18.1-8.49c-28.43-7.55-33.41-8.54-43.86-8.78c-8.24-0.19-9.98,0.22-11.26,2.67c-1.06,2.02-0.95,3.77,0.35,5.76
	c1.03,1.57,1.82,3.76,1.76,4.86c-0.17,3.23,7.85,15.32,10.25,15.45c1.61,0.08,2.01,1.38,1.49,4.81l-0.71,4.69l-7.83-0.91
	c-4.3-0.5-11.07-2.58-15.04-4.62c-3.96-2.04-11.35-5.8-16.42-8.36c-10.06-5.07-18.28-10.83-24.26-17c-2.56-2.64-4.09-3.38-4.57-2.2
	c-1.68,4.06-4.17,14.59-3.67,15.52c0.3,0.55-0.37,4.98-1.5,9.84c-1.7,7.35-2.61,8.95-5.4,9.49c-4.05,0.79-13.76-5.64-17.05-11.31
	c-1.23-2.12-4.08-6.04-6.33-8.71c-2.25-2.68-6.04-8.12-8.42-12.1l-4.33-7.23l-8.33,13.66c-10.08,16.53-22.02,28.56-28.03,28.24
	c-3.06-0.17-4.76-1.45-6.73-5.09c-4.75-8.76-7.68-20.57-7.46-30.04c0.12-5.11,0.12-9.29,0-9.3c-0.12,0-3.27,2.61-7,5.82
	c-12.8,10.99-29.36,23.14-36.08,26.46c-3.7,1.83-9.42,4.75-12.72,6.49c-9.8,5.18-16.1,7.29-21.44,7.17
	c-6.62-0.14-7.14-3.5-1.35-8.77c4.21-3.84,15.08-18.72,13.73-18.79c-0.36-0.03-4.03,2.95-8.15,6.6c-6.94,6.14-10.02,7.9-26.53,15.19
	c-3.28,1.45-6.31,3.09-6.75,3.65c-1.36,1.77-9.52,4.93-14.86,5.76c-2.82,0.44-5.82,1.22-6.64,1.74c-6.53,4.1-19.87,4.09-19.65-0.03
	c0.05-0.98,6.3-7.58,13.88-14.67c7.58-7.09,13.81-13.42,13.85-14.06c0.03-0.64,2.22-4.41,4.85-8.37l4.79-7.21l-4.41,2.8
	c-2.43,1.54-5.12,2.76-5.98,2.72c-0.86-0.04-4.86,1.71-8.88,3.89c-4.02,2.19-7.79,3.95-8.37,3.92c-0.58-0.03-2.72,1.11-4.75,2.53
	c-2.02,1.43-7.48,3.56-12.13,4.74c-4.64,1.18-10.12,2.91-12.17,3.83c-2.05,0.92-4.71,1.63-5.91,1.58c-1.2-0.06-3.88,2.26-5.95,5.15
	c-2.08,2.89-5.08,6.95-6.67,9.04c-1.59,2.08-2.92,4.24-2.95,4.79c-0.14,2.58-22.52,25.06-37.11,37.27
	c-3.66,3.07-8.77,7.74-11.35,10.39c-2.58,2.65-10.11,8.85-16.75,13.8c-6.63,4.94-13.36,10.38-14.95,12.09
	c-2.82,3.03-2.83,3.08-0.11,2.16c7.24-2.44,37.59-10.85,44.13-12.23c15.5-3.27,32.96-11.38,52.05-24.16
	c11.24-7.53,15.42-7.88,13.43-1.14c-0.64,2.16-2.51,5.49-4.16,7.41c-1.65,1.91-4.18,5.54-5.62,8.07c-1.44,2.52-3.14,4.56-3.77,4.53
	c-0.63-0.03-2.52,1.99-4.19,4.51c-4.24,6.35-18.52,20.15-25.58,24.72c-9.11,5.9-3.88,4.7,14.67-3.36V624.94z M385.04,566.12
	c0.14-2.62,13.07-13.37,15.9-13.22c2.73,0.15,2.75,5.43,0.03,7.79c-2.61,2.27-12.98,7.53-14.67,7.44
	C385.56,568.1,384.99,567.19,385.04,566.12L385.04,566.12z M528.14,557.72c0.06-1.08,2.01-3.43,4.35-5.23
	c2.33-1.79,6.91-6.23,10.16-9.86c6.83-7.61,11.5-8.55,11.16-2.26c-0.21,4.05-8.13,12.19-16.9,17.38
	C532.4,560.43,528,560.41,528.14,557.72L528.14,557.72z M696.82,563.51c-1.52-2.93-2.73-6.16-2.67-7.18
	c0.06-1.02-0.34-2.34-0.88-2.94c-1.07-1.2-5.47-14.36-5.38-16.11c0.03-0.6,0.99-1.04,2.14-0.98c1.14,0.06,3.93,4.28,6.19,9.38
	c2.26,5.1,4.95,10.63,5.99,12.29c2.47,3.97,2.1,11.12-0.59,10.98C700.5,568.88,698.34,566.44,696.82,563.51L696.82,563.51z
	 M776.01,549.76c0.04-0.72-2.1-4.21-4.75-7.75c-2.65-3.54-6.95-10.05-9.56-14.48c-2.61-4.42-5.33-8.07-6.05-8.11
	c-0.72-0.04-1.26-1.05-1.19-2.25c0.24-4.54,5.41-1.57,13.27,7.62c15.46,18.08,19.39,26.87,11.84,26.47
	C777.57,551.16,775.97,550.49,776.01,549.76L776.01,549.76z M453.41,525.96c3.29-1.61,8.67-4.31,11.96-5.99
	c3.29-1.68,7.63-3.83,9.63-4.76c7.8-3.63,39.31-30.16,44.96-37.86c1.76-2.39,4.1-3.75,6.26-3.63c2.84,0.15,3.42,0.93,3.24,4.34
	c-0.19,3.48-4.41,10.24-8.04,12.87c-1.3,0.94-17.29,29.64-16.54,29.68c1.85,0.1,11.26-5,18.94-10.27
	c22.5-15.43,34.5-25.82,39.47-34.16c3.06-5.12,4.35-6.11,7.32-5.61c3.31,0.56,3.65,1.39,4.14,10.04
	c1.05,18.63,6.41,40.37,9.73,39.48c4.82-1.3,27.87-35.85,31.51-47.22c1.66-5.19,5.75-2.97,7.42,4.03
	c1.35,5.68,9.21,17.7,22.03,33.69l5.44,6.79l1.18-4.25c0.65-2.34,1.6-5.21,2.12-6.39c0.51-1.17,1.71-9.3,2.66-18.05
	c1.57-14.49,1.99-15.94,4.65-16.14c2.12-0.16,3.95,1.73,6.68,6.91c2.68,5.09,6.43,9.01,13.1,13.7
	c12.79,8.99,30.42,18.47,31.11,16.71c0.31-0.79-0.45-4.59-1.68-8.44c-1.48-4.58-2.06-11.01-1.68-18.6
	c0.55-11.09,0.74-11.65,4.29-12.7c2.98-0.88,5.09-0.15,10.72,3.74c7.71,5.33,10.39,6.21,40.75,13.4
	c11.47,2.71,28.89,6.94,38.72,9.39c9.83,2.45,22.73,4.71,28.67,5.03l10.8,0.58l-3.53-3.1c-1.95-1.7-3.91-3.12-4.37-3.15
	c-2.71-0.14-24.14-19.42-42.56-38.26c-29.03-29.71-45.88-50.86-49.88-62.65c-1.54-4.53-3.09-5.87-10.67-9.21
	c-9.09-4.01-36.46-20.05-50.7-29.71c-10.07-6.84-11.72-5.74-10.23,6.78c1.94,16.28,3.53,23.33,6.81,30.06
	c6.84,14.02,9.39,19.98,9.3,21.68c-0.05,0.97,2.1,3.62,4.78,5.9c2.68,2.28,4.82,5.18,4.75,6.44c-0.29,5.46-26.58-4.62-30.49-11.69
	c-0.8-1.46-2.15-2.69-2.99-2.73c-0.84-0.04-5.54-4.2-10.44-9.23c-4.9-5.03-9.32-9.2-9.82-9.26c-1.17-0.14-16.54-22.43-18.72-27.16
	c-1.58-3.43-1.85-3.06-4.92,7.02c-4.44,14.58-7.12,21.82-8.63,23.38c-0.7,0.72-1.32,2.22-1.38,3.33c-0.06,1.11-3.4,8.02-7.42,15.37
	c-7.84,14.31-16.63,24.41-21.06,24.17c-1.5-0.08-2.79,0.83-2.85,2.03c-0.06,1.21-1.41,2.11-3.02,2.02
	c-3.37-0.18-3.42-1.87-0.46-16.77c2.93-14.7,5.71-45.74,4.46-49.62c-1.03-3.19-1.21-3.1-4.2,1.96
	c-5.56,9.44-17.64,24.91-25.45,32.59c-29.35,28.86-38.49,35.54-50.71,37.1c-8.48,1.08-8.35-2.26,0.56-14.09
	c4.18-5.55,9.5-13.92,11.82-18.6c4.08-8.22,7.95-14.8,9.53-16.23c0.76-0.68,3-5.43,7.62-16.15c1.31-3.04,2.1-5.83,1.75-6.22
	c-0.35-0.38-5.92,3.03-12.38,7.6c-6.46,4.56-14.21,9.51-17.21,10.99c-3.83,1.89-7.18,5.49-11.23,12.07
	c-5.57,9.05-18.08,22.55-20.76,22.41c-1.14-0.06-5.97,3.75-30.23,23.86c-7.03,5.83-9.7,7.78-14.91,10.93
	c-2.52,1.52-6.39,4.27-8.6,6.1c-2.21,1.84-5.28,4.21-6.81,5.27c-2.77,1.92-14.02,10.84-28.64,22.68c-7.08,5.74-13.7,10.13-28.66,19
	c-3.3,1.96-5.25,3.86-4.33,4.22c2.22,0.88,29.72-5.77,49.13-11.87c25.36-7.97,73.38-30.65,75.64-35.72
	c1.23-2.77,5.92-2.39,6.87,0.55c1.36,4.19,0.62,6.27-3.58,10.04c-4.83,4.35-9.03,9.9-14.57,19.31c-2.2,3.73-4.84,7.07-5.85,7.42
	c-1.02,0.34-1.9,1.42-1.95,2.39c-0.05,0.97-2.52,4.31-5.49,7.43c-2.97,3.11-5.42,6.09-5.45,6.62
	C440.78,530.94,446.62,529.28,453.41,525.96L453.41,525.96z M455.48,473.54c0.17-3.26,12.36-14.59,15.51-14.43
	c1.92,0.1,2.66,1.2,2.53,3.71c-0.14,2.53-2.22,4.95-7.2,8.35C458.79,476.32,455.3,477.08,455.48,473.54L455.48,473.54z
	 M647.94,443.04c-3.14-7-6.25-13.09-6.91-13.55c-1.88-1.31-1.04-7.93,0.99-7.83c1.69,0.09,9.43,12.22,14.77,23.15
	c3.02,6.17,2.74,11.27-0.59,11.09C654.47,455.8,651.82,451.7,647.94,443.04L647.94,443.04z M743.87,444.7
	c-1.53-2.41-2.74-5.09-2.69-5.97c0.05-0.87-0.57-1.63-1.36-1.67c-0.8-0.04-1.42-0.74-1.37-1.56c0.04-0.81-3.32-5.27-7.48-9.89
	c-8.01-8.91-9.05-11.34-4.76-11.11c2.43,0.13,12.5,8.56,16.7,13.98c4.2,5.42,9.62,15.86,9.5,18.27
	C752.17,450.88,746.99,449.63,743.87,444.7L743.87,444.7z M528.5,420.7c22.58-22.32,28.59-29.2,37.79-43.33
	c2.44-3.75,4.85-7.12,5.35-7.5c2.01-1.5,6.35-11.12,7.57-16.79c1.33-6.19,4.53-7.99,5.73-3.24c1.51,5.98,0.97,45.67-0.77,57.09
	c-1.04,6.75-2.05,14.88-2.25,18.07l-0.37,5.8l3.12-3.47c3.6-4.01,14.8-22.96,16.67-28.22c0.7-1.96,2.19-5.49,3.3-7.83
	c1.12-2.34,2.99-7.16,4.16-10.7c1.17-3.54,3.62-10.94,5.45-16.45c1.83-5.51,3.93-13.45,4.68-17.65c1.18-6.69,1.73-7.57,4.36-7.05
	c2.36,0.47,3.4,2.55,4.87,9.73c2.33,11.38,9.68,23.57,20.51,34c4.56,4.39,11.3,10.93,14.98,14.53c6.33,6.19,11.51,9.12,8.55,4.82
	c-2.61-3.78-7.75-21.4-8.31-28.5c-0.32-4-0.96-10.57-1.44-14.6c-0.47-4.03-0.99-12.08-1.14-17.89c-0.27-10.01-0.12-10.56,2.74-10.41
	c1.66,0.09,6.7,3.32,11.19,7.17c8.1,6.95,44.66,28.5,58.47,34.46c9.67,4.18,39.59,13.94,40.42,13.2c0.37-0.33-4.54-5.01-10.89-10.41
	c-13.63-11.57-29.87-29.71-36.19-40.43c-2.47-4.2-5.47-8.53-6.66-9.63c-1.19-1.1-2.13-2.6-2.1-3.34c0.04-0.73-1.16-2.81-2.66-4.6
	c-1.5-1.8-2.67-4.46-2.6-5.9c0.08-1.44-0.51-2.66-1.31-2.7c-0.8-0.04-1.41-0.78-1.37-1.63c0.05-0.86-0.84-2.59-1.98-3.85
	c-1.13-1.26-1.99-3.55-1.91-5.09c0.08-1.54-0.67-2.85-1.66-2.9c-1-0.06-2.47-1.61-3.28-3.45c-0.8-1.84-2.79-6.36-4.42-10.05
	c-2.88-6.54-9.42-27.35-13.25-42.19c-1.05-4.06-2.96-10.5-4.26-14.32c-1.29-3.82-2.26-8.52-2.16-10.44c0.1-1.93-0.72-5.58-1.82-8.12
	c-1.1-2.54-2.44-8.72-2.98-13.74c-0.54-5.02-1.22-9.56-1.51-10.11c-3.15-5.76-6.32-58.2-5.03-83.22c0.45-8.38,0.21-16.25-0.5-17.49
	c-1.15-2-1.3-2.01-1.42-0.08c-0.06,1.2-2.51,8.6-5.42,16.45c-2.91,7.85-7.55,20.38-10.31,27.83c-2.76,7.46-5.67,14.84-6.46,16.4
	c-0.8,1.56-3.41,7.31-5.8,12.79c-5.02,11.49-4.84,11.13-14.76,29.78c-4.14,7.78-8.6,16.71-9.91,19.83
	c-1.31,3.12-3.57,7.26-5.04,9.19c-4.55,6.02-6.46,8.93-9.87,15.08c-1.82,3.27-3.92,6.28-4.67,6.69c-0.75,0.41-2.37,2.48-3.61,4.6
	c-1.24,2.12-5.91,9.11-10.38,15.53c-4.47,6.42-8.14,11.93-8.16,12.22c-0.06,1.12-10.94,16.99-13.67,19.93
	c-1.57,1.69-5.31,6.27-8.32,10.17c-15.46,20.03-24.44,30.2-41.15,46.56c-10.08,9.87-19.52,18.74-20.97,19.71
	c-1.46,0.97-2.72,3.03-2.8,4.58c-0.1,1.81-1.15,2.77-2.93,2.67c-3.11-0.17-13.3,6.82-25.75,17.65c-4.58,3.99-11.06,8.68-14.38,10.43
	l-6.05,3.18l9.11-0.34c8.52-0.32,35.33-8.13,49.17-14.32c9.26-4.15,42.15-26.86,42.35-29.25c0.14-1.68,10.8-5.7,14.56-5.51
	c4.64,0.25,3.7,4-2.15,8.61c-4.18,3.3-5.77,6.2-9.05,16.58c-2.18,6.92-7.55,19.12-11.93,27.1c-7.28,13.28-13.94,25.76-15.65,29.34
	C509.46,437.17,523.34,425.8,528.5,420.7L528.5,420.7z M579.36,306.83c0.11-2.07,1.57-5.49,3.25-7.6
	c3.91-4.91,8.98-16.62,12.48-28.81c3.62-12.6,4.34-14.05,6.87-13.92c1.55,0.08,1.87,1.2,1.16,4.07c-0.53,2.17-2,8.78-3.26,14.68
	c-1.26,5.9-3.7,14.23-5.43,18.49C588.93,307.36,578.87,316.09,579.36,306.83L579.36,306.83z M654.68,300.44
	c-0.3-3.02-0.92-8.78-1.37-12.81c-1.47-13.13-0.73-24.06,1.63-23.93c1.52,0.08,2.7,4.65,4.3,16.61c2.83,21.17,2.61,25.97-1.17,25.77
	C655.91,305.96,655.1,304.62,654.68,300.44L654.68,300.44z M654.68,300.44"/>
</svg>
