<?xml version="1.0" encoding="iso-8859-1"?>
<!-- Generator: Adobe Illustrator 19.0.0, SVG Export Plug-In . SVG Version: 6.00 Build 0)  -->
<svg xmlns="http://www.w3.org/2000/svg" xmlns:xlink="http://www.w3.org/1999/xlink" version="1.1" id="Capa_1" x="0px" y="0px" viewBox="0 0 490.667 490.667" style="enable-background:new 0 0 490.667 490.667;" xml:space="preserve" width="512px" height="512px">
<g>
	<g>
		<path d="M245.333,0C109.84,0,0,109.84,0,245.333S109.84,490.667,245.333,490.667s245.333-109.839,245.333-245.333    C490.549,109.888,380.778,0.118,245.333,0z M357.547,324.48c-1.846,3.197-5.269,5.153-8.96,5.12h-206.72    c-5.655-0.015-10.227-4.612-10.212-10.268c0.005-1.705,0.435-3.382,1.252-4.879l103.467-189.227    c3.103-5.007,9.678-6.551,14.686-3.448c1.4,0.868,2.58,2.048,3.448,3.448l103.467,189.227    C359.591,317.641,359.429,321.441,357.547,324.48z" fill="#FFFFFF"/>
	</g>
</g>
<g>
</g>
<g>
</g>
<g>
</g>
<g>
</g>
<g>
</g>
<g>
</g>
<g>
</g>
<g>
</g>
<g>
</g>
<g>
</g>
<g>
</g>
<g>
</g>
<g>
</g>
<g>
</g>
<g>
</g>
</svg>
