<?xml version="1.0" encoding="utf-8"?>
<!-- Generator: Adobe Illustrator 24.1.1, SVG Export Plug-In . SVG Version: 6.00 Build 0)  -->
<svg version="1.1" id="Layer_1" xmlns="http://www.w3.org/2000/svg" xmlns:xlink="http://www.w3.org/1999/xlink" x="0px" y="0px"
	 viewBox="0 0 1038 845" style="enable-background:new 0 0 1038 845;" xml:space="preserve">
<style type="text/css">
	.st0{fill:#AED739;}
	.st1{fill:#76A51B;}
	.st2{fill:#90C127;}
	.st3{fill:#4F6800;}
</style>
<path class="st0" d="M608.51,295.61c-12.57,1.88-24.07,8.43-34.45,15.53c-8.74,6.82-18.26,13.26-29.17,15.87
	c-7.69,3.18-16.5,6.44-24.57,2.48c-16.63-6.81-33.42-16.31-51.93-16.05c-6.65,2.34-4.68,10.75-6.22,16.13
	c-2.53,13.71-9.76,26.73-9.17,40.92c1.48,6.35,8.79,8.84,13.03,13.07c5.99,3.9,9.92,10,10.5,17.08c1.36,7.3-0.77,14.78-5.9,20.29
	c-8.92,11.74-17.98,24.65-20.09,39.58c-0.62,5.99,2.61,11.17,6.93,15c7.89,7.43,8.8,18.75,6.86,28.78
	c-2.34,16.88-8.39,33.57-7.07,50.78c0.38,6.4,6.21,10.62,12.26,10.91c8.31,2.09,15.38-4.91,23.65-4.32
	c11.95-0.97,23.39,3.77,35.22,4.04c11.33-3.82,21.76-12.34,34.27-11.6c12.08,1,23.96,5.26,36.17,4.96
	c7.78-2.21,11.54-10.67,15.73-16.84c3.97-8.04,12.7-11.97,21.27-12.55c6.05-0.2,12.2-2.4,15.44-7.85
	c6.74-9.25,14.43-18.35,16.92-29.82c2.77-6.82,4.44-15.44,11.05-19.64c8.09-2.02,16.91-0.26,24.81-2.95
	c5.16-5.38,7.91-13.61,4.6-20.71c-4.36-13.54-13.62-25.79-12.75-40.59c-0.08-6.7-0.57-14.45,5.04-19.28
	c5.69-7.45,16.86-10.39,19.84-19.9c0.66-6.62-7.64-8.64-12.63-9.72c-8.45-1.92-18.61-4.12-23.33-12.1
	c-2.19-4.89-1.72-13.21-8.55-14.27c-14.91-0.4-30.16,3.16-44.85,0.1c-9.42-2.55-10.81-13.77-12.16-21.89
	C618.45,304.79,617.09,294.89,608.51,295.61L608.51,295.61z M593.13,339.83c7.45,0.1,16.64-0.81,21.66,6.03
	c6.3,5.83,5.95,15.72,4.13,23.32c-5.05,11.55-17.32,17.45-28.07,22.76c-11.75,5.58-25.28,3.95-37.64,2.11
	c-10.78-3.35-22.85-11.57-22.81-24.08c0.34-9.29,9.83-14.55,16.83-18.87c12.31-6.26,25.47-12.27,39.62-11.25
	C588.94,339.84,591.04,339.83,593.13,339.83L593.13,339.83z M498.5,349.26c7.15-0.83,12.67,7.46,8.73,13.61
	c-3.78,5.08-9.57,9.53-15.97,10.19c-1.78-2.41-4.77-4.65-7.89-4.5c-2.95-2.45-6.81-7.71-2.34-10.86
	C485.76,353.31,491.91,349.63,498.5,349.26L498.5,349.26z M680.13,360.68c7.56-0.14,12.07,10.14,7.13,15.74
	c-3.75,4.05-9.09,8.15-14.83,7.93c-4.57-2.18-9.58-6.05-10.55-11.25C663.61,365.44,672.91,361.14,680.13,360.68L680.13,360.68z
	 M634.02,400.19c6.3,0.4,11.01,9.74,5.1,13.97c-3.59,2.9-7.25,6.06-11.16,8.31c-4.45-1.23-8.51-4.73-8.01-9.76
	c-1.1-6,3.64-11.54,9.5-12.03C630.96,400.41,632.49,400.23,634.02,400.19L634.02,400.19z M500.07,425.88
	c8.2-0.1,10.14,10.47,7.11,16.44c-2.65,7.99-15.34,9.84-19.13,1.9C483.91,436.06,491.23,425.84,500.07,425.88L500.07,425.88z
	 M560.2,427.98c7.23-0.38,16.72,5.09,14.92,13.42c-1.1,10.26-10,18.01-18.84,22.08c-5.72,2.42-13.5,3.2-17.75-2.35
	c-3.6-4.14-9-8.31-9.37-14.11c2.78-8.99,12.18-13.81,20.39-16.97C553,428.84,556.53,428.01,560.2,427.98L560.2,427.98z
	 M673.76,429.6c4.9,1.27,8.1,6.37,10.27,10.63c0.84,5.33-4.03,9.53-7.06,13.41c-3.76,4.4-10.31,9.59-16.02,5.21
	c-5.08-3.79-5.52-10.8-2.97-16.21C660.28,435.88,666.61,430.65,673.76,429.6L673.76,429.6z M633.39,450.6
	c8.42-0.5,14.59,8.07,13.16,15.93c-1.89,13.37-13.83,22.4-24.6,28.97c-6.62,3.99-14.99,7.54-22.41,3.36
	c-5.63-1.38-10.11-6.38-9.46-12.37c0.95-13.39,13.59-21.27,23.81-27.81C619.94,455.17,626.1,450.7,633.39,450.6L633.39,450.6z
	 M501.88,478c4.37-0.56,10.27,3.58,7.68,8.35c-3,5.8-7.05,12.76-13.84,14.43c-6.71,0.17-11.64-7.14-9.74-13.46
	C488.76,481.46,495.54,478.05,501.88,478L501.88,478z M533.54,502.88c7.22-0.83,13.87,5.54,13.13,12.88
	c-0.02,11.57-11.79,17.59-20.89,21.78c-6.74,2.95-14.36,1.11-21.47,1.65c-3.49-2.64-6.18-6.4-5.19-10.99
	c-0.59-6.17,3.64-10.92,8.43-14.17C515.16,508.46,523.83,503.17,533.54,502.88L533.54,502.88z M582.48,515.54
	c6.41-0.44,14.95,3.92,13.13,11.46c-2.03,8.25-9.97,17.17-19.28,14.45c-8.64-2.34-9.51-14.25-4.29-20.33
	C574.38,517.67,578.27,515.45,582.48,515.54L582.48,515.54z M582.48,515.54"/>
<path class="st1" d="M497.61,355.46c-4.18,0.33-10.51,1.53-11.52,6.31c1.21,6,9.84,5,13.33,1.57c3.5-1.61,5.47-7.92-0.02-7.81
	C498.8,355.47,498.21,355.44,497.61,355.46L497.61,355.46z M497.61,355.46"/>
<path class="st1" d="M499.51,431.87c-3.55,0.8-7.82,4.08-7.72,7.94c3.3,5.05,13.45,0.94,10.94-5.19
	C502.34,433.19,501.19,431.61,499.51,431.87L499.51,431.87z M499.51,431.87"/>
<path class="st1" d="M498.72,485.81c-3.3,0.23-7.33,4.48-5.6,7.68c1.85,3.35,5.79,1.95,7.39-0.8c2.16-1.69,3.38-7.15-0.76-6.91
	C499.4,485.78,499.06,485.75,498.72,485.81L498.72,485.81z M498.72,485.81"/>
<path class="st1" d="M535.3,507.82c-12.44,0.83-26.19,7.16-31.13,19.28c-1.37,3.37,1.5,6.98,5.1,6.46
	c10.12-0.38,20.67-3.25,28.76-9.5c4.01-3.98,5.41-12.75-0.03-16.01C537.11,507.82,536.2,507.8,535.3,507.82L535.3,507.82z
	 M535.3,507.82"/>
<path class="st1" d="M586.74,523.01c-4.77,0.28-12.08,2.39-10.83,8.61c0,5.82,7.8,5.66,10.66,2.14c2.35-2.49,5.75-7.27,3.09-10.46
	C588.75,522.91,587.71,523.01,586.74,523.01L586.74,523.01z M586.74,523.01"/>
<path class="st1" d="M560.48,433.3c-8.98,1.08-18.08,4.73-24.78,10.89c-4.3,4.46,1.05,10.74,5.09,13.15
	c7.52,2.14,16.98,1.59,22.14-5.1c3.2-3.96,8.11-8.94,6.56-14.44C568.07,434.29,564.01,433.03,560.48,433.3L560.48,433.3z
	 M560.48,433.3"/>
<path class="st1" d="M593.45,344.1c-16.38,0.95-32.68,5.85-46.93,13.99c-4.64,3.35-11.38,7.3-11.14,13.79
	c2.34,9.49,12.3,14.32,20.76,17.37c8.77,1.94,18.01,0.45,26.8-0.81c9.29-3.31,18.88-7.52,25.86-14.66
	c6.27-7.03,8.58-20.33-0.26-26.31C604.12,344.59,598.62,344.04,593.45,344.1L593.45,344.1z M593.45,344.1"/>
<path class="st1" d="M634.59,455.93c-10.91,1.73-20.26,8.61-29.08,14.88c-5.32,4.37-12.47,10.5-10.73,18.17
	c2.73,5.41,10.04,2.67,14.76,2.96c9.43,0.11,17.61-5.31,23.65-12.14c4.97-5.22,11.1-13.81,6.26-20.94
	C638.27,457.36,636.69,455.71,634.59,455.93L634.59,455.93z M634.59,455.93"/>
<path class="st1" d="M631.13,405.6c-4.97-0.47-8.36,7.72-3.8,10.12c5.65,1.19,12.87-8.39,4.85-10.07
	C631.83,405.6,631.48,405.58,631.13,405.6L631.13,405.6z M631.13,405.6"/>
<path class="st1" d="M679.45,366.82c-3.77,0.19-10.53,1.59-9.85,6.57c3.47,6.21,16.28,2.74,13.8-4.96
	C682.81,366.86,680.87,366.71,679.45,366.82L679.45,366.82z M679.45,366.82"/>
<path class="st1" d="M672.8,439.6c-6.17-0.53-11.32,5.1-10.31,11.2c-0.23,4.9,6.9,4.7,9.1,1.54c2.84-2.84,8.14-6.95,5.81-11.42
	C676.25,439.66,674.38,439.55,672.8,439.6L672.8,439.6z M672.8,439.6"/>
<path class="st2" d="M785.94,65.13c-3.67,0.42-10.35-0.66-11.34,4.16c1.75,9.37,9.62,16.15,14.34,24.06
	c5.86,9.3,11.84,18.87,16.23,28.8c-0.43,12.28,0.33,24.87-4.77,36.35c-10.96,31.99-31.97,59.01-46.73,89.16
	c-9.8,19.52-19.32,40.85-38.88,52.57c-6.34,4.37-14.59,2.22-21.79,2.18c-10.99-0.52-20.78-5.69-29.66-11.88
	c-12.19-8.59-27.96-14.66-34.59-29.04c-3.79-6.54-1.65-14.08,0.73-20.7c6.57-19,3.75-40.21,12.08-58.61
	c4.8-6.14,13.89-4.73,19.34-9.97c3.65-8.35-2.65-18.14-11.14-20.14c-19.85-4.57-39.64-9.57-59.38-14.65
	c-12.5-2.25-25.6-3.37-38.13-0.92c-6.4,1.91-11.23,10.59-7.28,16.52c7.44,5.96,17.6,6.79,26.41,9.74
	c12.59,2.83,25.08,7.94,33.87,17.75c6.78,6.57,14.22,14.67,13.07,24.89c0.38,10.84,0.1,21.79-3.69,32.08
	c-2.82,9.98-5.56,21.26-14.87,27.29c-9.03,6.41-20.15,9.99-31.37,9.14c-14.48,0.52-28.85-1.87-43.3-1.62
	c-17.26,2.38-35.24,5.58-52.4,1.6c-13.67-6.08-23.35-18.18-35.52-26.57c-7.18-5.96-16.45-10.66-19.75-20
	c-6.2-12.96-11.25-26.97-21.82-37.18c-9.99-12-23.31-21.61-30.12-35.97c-4.35-8.16-3.97-20.02,4.03-25.79
	c10.86-6.9,25.55-9.54,32.73-21.16c3.71-7.1,3.13-18.21-5.26-21.68c-6.51-4.32-13.26,2.26-18.6,5.44
	c-20.32,14.72-40.86,29.15-62.22,42.32c-11.07,7.19-22.88,16.59-25.67,30.21c-1.29,7.84,3.07,18.99,12.4,18.54
	c10.63-0.39,21.12-2.7,31.82-2.1c11.22,0.38,23.2-0.6,33.58,4.33c11.09,7,14.61,20.89,23.44,30.15c3.05,4.18,6.14,8.21,10.55,11.11
	c14.23,13.74,27.64,28.44,39.66,44.17c4.61,7.13,5.73,15.69,7.72,23.78c-3.23,8.43-11.42,13.6-19.88,15.52
	c-6.7,3.28-8.73,11.48-12,17.61c-4.68,10.67-8.54,23.11-18.56,30.05c-7.25,3.82-15.73,0.92-23.27-0.28
	c-10.72-1.46-17.98-9.87-25.19-17.05c-7.06-7.61-18.44-12.05-28.57-8.63c-6.11,3.17-6.24,11.29-8.68,16.95
	c-5.56,19.18-8.62,41.78,2.66,59.55c2.61,3.34,5.14,7.84,8.89,9.49c5.16,0.24,11.48,0.72,14.48-4.5
	c8.96-12.59,9.45-31.33,23.5-39.99c9.98-4.97,21.9-3.63,32.72-2.89c15.04,1.96,32.4,7.56,39.19,22.46
	c4.99,11.81,6.73,25.09,5.4,37.8c-3.82,11.93-16.23,18.32-28,19.48c-15.99,2.46-32.62,1.96-47.84,8.23
	c-23.01,8.5-47.6,10.24-71.94,10.39c-20.91,0.84-41.79-0.26-62.36-4.1c-17.77-3.13-35.93-2.38-53.76-4.47
	c-8.18-1.38-11.54-9.92-12.42-17.21c-2.01-10.79-1.16-22.6-7.69-32.08c-3.03-4.58-5.43-10.86-10.83-13.03
	c-7.32-0.25-15.35,2.81-18.21,10.09c-8.27,17.41-9.73,37.04-13.06,55.77c-2.85,20.16-3.82,43.01,8.73,60.31
	c5.31,4.9,13.49,2.76,19.96,2.27c8.49-2.7,12.84-11.61,17.26-18.67c5.95-11.05,11.71-23.98,24.23-28.92
	c6.11-2.68,12.14-6.27,19.07-5.01c41.31,0.06,82.31,8.71,123.67,6.33c10.83-1.01,20.93-5.18,30.93-9.09
	c11.7-2.45,24.12-4.26,35.91-1.92c8.39,1.76,16.4,10.92,12.33,19.64c-5.52,11.49-15.72,19.87-24.79,28.51
	c-7.17,7.18-16.69,11.8-23.12,19.68c-6.43,13.5-11.21,29.03-23.95,38.19c-10.49,7.05-21.14,15.23-33.68,18.09
	c-10.5,2.03-22.89-0.46-28.8-10.23c-8.58-12.81-8.44-29.84-18.37-41.95c-2.25-1.98-3.16,1.68-2.68,3.4
	c0.11,17.23-0.54,34.69,2.39,51.73c3.44,13.72,10.04,26.65,18.17,38.18c4.59,6.65,12.91,10.56,20.88,8.77
	c8.39-15.19,13.66-33.14,28.19-43.96c10.98-8.44,24.52-13.98,32.77-25.63c7.58-10.83,14.05-22.85,24.91-30.91
	c9.59-7.66,20.53-15.26,33.32-14.85c5.26-1.09,9.86,2.42,11.57,7.25c6.03,13.95,13.85,27.21,20.28,40.85
	c3.2,11.6-0.36,24.69-8.76,33.42c-6.86,8.15-13.97,16.4-17.37,26.71c-7.65,20.3-15.51,42.19-33.01,56.22
	c-11.78,9.35-24.68,18.32-39.88,20.65c-9.87,2.07-20.7,4.05-30.02-0.93c-16.11-6.97-31.72-15.1-47.44-22.81
	c-5.72-1.62-15.11,0.42-15.29,7.61c4.24,17.91,17.03,31.99,27.02,46.93c10.81,14.03,21.84,27.97,33.88,40.96
	c6.33,5.41,13.53,13.4,22.75,11.8c8.3-2.56,9.01-13.03,8.75-20.3c-0.22-11.67-5.36-23.35-2.7-34.97
	c6.18-11.49,17.16-19.59,27.69-26.86c23.46-13.27,43.74-32.07,58.16-54.89c8.94-13.89,16-29.75,30-39.44
	c15.58-12.32,36.02-20.61,56-17.02c4.71,1.23,9.04,4.89,13.71,5.08c10.86-3.48,21.14-9.55,32.51-10.9
	c10-0.82,20.75,3.41,25.49,12.66c9.24,15.35,4.8,34.23-0.81,50.04c-5.76,14.02-11.29,29.25-23.58,38.97
	c-11.05,10.08-27.36,9.31-39.76,16.75c-5.03,3.88-4.73,11.4-3.35,16.95c6.43,10.39,20.21,10.87,31.15,10.98
	c23.09-0.73,46.43-3.91,68.25-11.73c7.28-2.22,14.72-9.44,12.05-17.63c-2.01-6.46-8.8-10.11-15.35-9.73
	c-8.89-1.24-19.96,0.38-26.83-6.62c-5.17-7.05-1.82-16.28,2.14-23.04c2.89-6.77,7.67-13,9.41-20.08
	c1.49-16.52-0.44-34.48,8.52-49.31c5.41-8.25,13.58-14.83,22.38-19.24c15.59-4.11,31.88,2.35,45.39,10.01
	c15.66,8.46,28.15,21.34,42.98,30.97c15.52,9.58,34.87,15.1,45.35,31.15c8.96,12.65,19.78,24.42,25.79,38.88
	c2.53,6.87-0.45,14.32-5.91,18.81c-5.74,6.66-13.35,10.79-20.28,15.93c-4.14,2.68-5.21,8.88-0.92,11.96
	c3.71,3.36,8.94-0.6,13.05-1.09c28.42-9.79,57.73-20.49,80.13-41.31c3.94-4.19,10.69-9.57,7.93-16.01
	c-4.54-4.73-12.15-3.62-18.11-4.73c-14.95-1.67-30.57-1.07-44.9-6c-14.9-9.88-20.58-28.35-34.15-39.68
	c-14.95-14.13-33.43-23.43-50.72-34.22c-10.85-7.92-21.46-17.06-28.86-28.39c-3.04-6.19-6.06-13.61-3.76-20.45
	c4.58-6.84,12.87-10.23,19.45-14.91c7.27-4.39,16.12-10.52,24.75-6.03c9.65,4.31,19.73,8.26,30.51,7.81
	c9.67,0.24,19.66,0.45,28.33,5.3c6.47,2.46,13.75,7.68,13.8,15.27c-0.23,4.64-3.4,9.75-1.43,14.28c4.84,4.55,12.62,3.45,18.59,2.28
	c8.52-3.9,12.17-13.53,17.62-20.56c8.48-13.81,19.7-25.8,27.34-40.11c3.01-5.59,5.05-13.64-0.69-18.28
	c-4.87-5.85-13.42-5.74-19.64-2.24c-16.33,6.42-25.42,24.16-42.56,29.01c-15.62,1.99-34.28-0.39-45.14-13.15
	c-8.98-13.69-9.95-32.17-3.32-47.04c2.22-3.75,3.78-7.78,7.3-10.65c4.9-4.75,9.43-10.73,14.86-14.37
	c20.42-0.52,40.73,1.49,60.91,4.42c24.4,1.66,48.78-4.6,73.11-1.81c9.25,1.87,13.49,11.93,21.1,16.48
	c6.9,0.73,11.46-6.67,13.42-12.38c7.21-21.91,10.79-45.03,11.65-68.05c-0.29-4.46,0.71-12.06-5.05-13.29
	c-6.4-0.33-9.65,6.89-13.42,10.88c-7.78,11.42-16.99,22.21-29.37,28.8c-7.84,5.72-15.92,11.16-25.35,13.94
	c-14.95,5.3-30.5,8.91-46.42,8.23c-21.94-0.13-44.31,0.37-65.71-4.97c-10.89-3.05-16.8-14.56-16.63-25.28
	c-0.76-10.4,2.65-21.42,11.17-27.97c7.25-6.35,15.93-11.02,25.41-12.88c21.86-9.44,41.87-23.03,59.26-39.27
	c14.11-11.99,27.87-25.98,45.95-31.65c5.54-1.51,12.36-0.81,15.5,4.64c2.62,4.77,8.51,8.55,13.81,5.52
	c7.11-3.2,7.24-12.07,6.34-18.68c-2.33-21.68-5.6-43.47-12.21-64.29c-2.16-4.61-5.68-9.33-10.37-11.45
	c-5.46,2.15-8.33,8.34-10.59,13.43c-3.77,14.76-2.03,30.93-9.08,44.75c-6.53,9.03-15.42,16.26-24.28,22.92
	c-22.79,14.23-43.72,31.21-65.17,47.33c-4.93,3.23-10.1,6.35-15.57,8.51c-10.65,2.22-21.52,5.56-32.47,4.37
	c-12.51-5.04-17.05-22-9.57-32.81c10.8-14.61,21.43-29.37,32.98-43.43c17.44-23.23,26.49-51.25,36.59-78.12
	c5.44-14.79,9.65-31.26,22.06-41.99c3.39-3.76,8.43-7.98,13.72-5.13c5.32,2.24,12.38,6,17.39,0.99c5.08-4.31,0.38-11.19-2.67-15.14
	c-13.83-18.09-28.93-35.42-46.06-50.47c-6.53-5.84-15.1-9.05-23.89-8.38C787.63,65.11,786.79,65.12,785.94,65.13L785.94,65.13z
	 M803.65,87.06c10.08,2.07,18.1,9.5,25.6,16.12c4.72,4.96,11.88,11.04,9.92,18.67c-2.99,6.39-11.7,4.23-16.1,0.67
	c-7.05-5.14-15.65-9.55-19.9-17.5c-1.12-4.94-7.24-8.83-5.6-14.24C798.87,88.78,801.22,87.16,803.65,87.06L803.65,87.06z
	 M343,132.92c6.26,0.37,9.2,9.22,5.9,14.11c-5.77,9.25-14.64,16.79-24.71,20.92c-5.16,1.23-12,3.44-16.45-0.49
	c-3.59-5.62,1.97-11.58,5.75-15.43c8.31-8.03,17.34-16.88,29.09-19.11L343,132.92L343,132.92z M601.6,148.66
	c11.71-0.11,23.09,4.25,33.34,9.61c3.83,2.23,2.5,7.87-1.46,9.14c-13.35,1.83-27.16-0.39-39.9-4.42c-4.05-1.67-8.08-4.72-10.22-8.46
	C588.13,149.71,595.05,148.48,601.6,148.66L601.6,148.66z M903.83,232.74c5.08,1.23,5.92,7.78,7.99,11.8
	c2.78,8.89,7.56,18.51,4.67,27.94c-1.64,4.91-8.94,4.25-10.67-0.26c-4.7-9.92-10.46-21.28-7.12-32.47
	C899.84,237.37,900.93,233.41,903.83,232.74L903.83,232.74z M608.84,288.01c9.86-0.22,16.84,8.72,18.29,17.71
	c2.11,5.55,1.3,12.99,6.11,17.13c7.57,3.91,16.61,1.51,24.78,2.13c8.12,0.48,16.65-1.32,24.57,0.96c7.67,2.75,7.4,12.38,11.73,18.16
	c4.65,6.32,13.69,5.73,20.57,7.58c5.23,1.19,11.1,1.33,16.07,2.68c4.3,10.87,1.85,25.36-9.05,31.46c-4.21,2.23-7.81,5.54-12.05,7.53
	c-6.58,5.39-4.77,14.47-4.62,21.9c-0.06,10.02,7.22,17.54,10.85,26.18c2.33,7.03,2.41,15.1,1.93,22.28
	c-4.59,8.25-11.83,16.06-21.71,17.07c-4.84,0.85-11.8-0.26-13.86,5.59c-2.38,5.3-3.73,11.04-7.41,15.66
	c-5.28,7.89-5.91,18.23-13.29,24.67c-7.46,7.4-17.63,12.04-28.19,12.05c-5.29,0.79-10.58,3.19-12.79,8.4
	c-5.09,7.44-9.11,16.02-15.81,22.13c-10.59,2.11-20.55-4.25-30.99-5.13c-7.96-0.89-16.27-0.82-24.1,0.22
	c-8.07,3.67-15.54,9.37-24.28,11.2c-10.47-1.17-20.57-5.64-31.15-5.43c-11.67,2.17-24.23,6.57-35.78,1.7
	c-5.22-2.61-8.65-7.71-9.79-13.34c-3.67-8.04,0.16-17.08,1.08-25.32c3-14.24,7.68-28.71,5.69-43.44
	c-2.87-6.74-9.12-11.47-11.86-18.38c-2.34-4.89-6.49-10.48-3.38-16.07c6.13-15.76,16.29-29.6,26.37-43.05
	c3.01-5.61,3.43-13.26,0.07-18.77c-5.43-4.69-12.55-7.28-17.36-12.9c-7.6-6.51-5.2-17.58-4.23-26.22
	c1.12-11.2,7.05-21.38,7.11-32.73c1.18-7.68,6.03-17.43,15.11-16.93c9.16-0.76,18.11,1.56,26.26,5.66
	c9.61,3.17,18.48,8.76,28.46,10.64c10.88,1.09,22.52-1.46,30.35-9.53c14.09-10.46,30.94-16.76,47.39-22.14
	C602.8,288.56,605.82,287.98,608.84,288.01L608.84,288.01z M333.19,342.2c7.95,1.32,11.18,9.88,10.94,16.97
	c0.61,7.71,0.17,15.78-4.37,22.31c-1.74,4.17-6.05,8.76-10.95,6.33c-7.16-3.3-8-12.01-7.4-18.98c-0.35-8.99,2.54-18.22,8.19-25.24
	C330.56,342.68,331.84,342.06,333.19,342.2L333.19,342.2z M931.05,394.44c5.25-0.69,5.43,5.75,5.41,9.35
	c-0.18,10.36,0.91,21.95-5.42,30.82c-2.52,3.15-8.3,5.01-10.56,0.57c-4.71-6.99-3.04-15.7-1.24-23.32
	c0.71-6.16,3.67-12.15,7.48-16.93C928.14,394.52,929.57,394.48,931.05,394.44L931.05,394.44z M139.5,427.64
	c6.86,0.1,12.14,6.46,11.84,13.18c1.24,17.21,0.72,34.78-0.95,51.88c0.06,4.7-4.14,8.75-8.91,7.55
	c-6.09-0.87-10.55-6.17-10.99-12.21c-2.8-15.42-3.21-31.34-2.1-46.97C130.3,436.05,132.87,427.61,139.5,427.64L139.5,427.64z
	 M830.32,511.53c5.58,0.35,9.22,7.08,7.5,12.24c-2.18,13.4-10.4,25.73-22.21,32.42c-7.48-2.7-7.2-12.51-4.67-18.7
	c2.93-7.41,6.89-14.52,11.22-21.23C824.24,513.91,827.02,511.67,830.32,511.53L830.32,511.53z M272.59,595.26
	c10.07-0.02,18.44,9.14,20.57,18.44c-0.28,4.2-2.9,9.96-8.09,8.65c-8.98-1.04-17.5-7.57-20.88-15.83c-1.74-3.84-0.1-7.84,3.35-10.02
	C268.94,595.27,270.85,595.25,272.59,595.26L272.59,595.26z M825.76,690.07c3.78-0.48,9.45,0.84,8.86,5.77
	c-2.41,8.8-10.29,14.79-16.77,20.68c-5.41,3.75-11.64,8.25-18.51,7.79c-5.78-3.34-7.35-12.62-2.73-17.73
	c5.27-5.92,10.9-12.28,18.26-15.51C818.39,690.03,822.13,690.18,825.76,690.07L825.76,690.07z M288.75,706.2
	c9.7,1.39,16.83,9.43,23.34,16.12c5.64,6.92,11.85,14.36,13.43,23.34c-0.8,2.18-2.73,3.9-3.01,6.4c-4.97,4.85-12.87,0.97-18.7,0.14
	c-7.4-1.67-11.89-8.67-16.65-14.02c-5.45-7.33-9.75-16.85-7.71-26.12C281.16,708.72,285.04,706.39,288.75,706.2L288.75,706.2z
	 M585.01,707.02c5.13,0.53,11.04,1.74,14.54,5.81c1.83,3.99-0.37,8.54-4.42,9.98c-12.16,6.5-25.67,10.97-39.39,12.27
	c-5.11,0.68-12.92-1.61-12.23-7.96c1.06-6.37,5.83-11.29,11.95-13.07C564.93,710.5,574.89,707.63,585.01,707.02L585.01,707.02z
	 M585.01,707.02"/>
<path class="st1" d="M575.91,714.4c-8.63,0.49-17,4.35-23.96,9.33c-2.34,1.22-3.3,5.49,0.33,5.35c12.05,0.08,24.16-3.2,34.99-8.37
	c1.79-0.63,5.83-3.74,2.31-5C585.16,714.5,580.45,714.54,575.91,714.4L575.91,714.4z M575.91,714.4"/>
<path class="st1" d="M599.53,152.91c-3.15-0.87-6.23,3.61-2.78,5.37c8.28,3.64,17.63,4.61,26.6,5.04c2.12,0.53,6.78-1.4,3.54-3.6
	C618.53,155.73,608.82,153.19,599.53,152.91L599.53,152.91z M599.53,152.91"/>
<path class="st3" d="M926.03,429.61c0.96-0.02,2.47-1.79,3.36-3.95c1.97-4.73,4.54-18.91,3.59-19.82c-1.8-1.75-6.43,2.35-7.49,6.63
	C923.65,419.86,923.95,429.64,926.03,429.61L926.03,429.61z M918.1,415.97c0.54-1.32,1-4.03,1.02-6.02c0.01-1.98,1.09-5.5,2.39-7.81
	c1.3-2.32,2.65-5.1,3-6.18c0.79-2.42,7-3.92,9.96-2.4c5.05,2.61,4.17,27.3-1.39,38.7c-1.76,3.62-6.56,6.18-9.77,5.21
	C918.33,435.96,915.19,423.02,918.1,415.97L918.1,415.97z M906.9,261.45c1.48,4.3,2.54,5.64,4.41,5.62c2.14-0.03,2.35-0.58,1.7-4.27
	c-1.55-8.72-6.23-20.8-8.05-20.77c-1.47,0.02-1.63,1.24-0.9,6.9C904.54,252.7,905.82,258.34,906.9,261.45L906.9,261.45z
	 M898.17,239.78c2.96-9.87,7.81-11.1,11.53-2.91c4.26,9.38,8.52,23.21,8.69,28.21c0.25,6.91-2.98,11.78-7.2,10.86
	c-4.38-0.95-5.53-2.22-8.23-9.1C896.98,251.67,896.1,246.69,898.17,239.78L898.17,239.78z M817.44,546.12
	c1.66-0.07,6.82-4.19,6.8-5.43c0-0.43,1.22-2.52,2.73-4.63c2.49-3.51,5.4-11.74,5.36-15.1c-0.01-0.74-0.97-1.32-2.11-1.29
	c-2.1,0.06-11.87,14.49-13.34,19.72C815.64,543.68,815.86,546.18,817.44,546.12L817.44,546.12z M810.61,536.68
	c0.98-2.97,3.26-7.67,5.05-10.43c1.79-2.77,3.59-6.13,4.01-7.48c1.04-3.45,7.35-8.66,10.55-8.71c3.32-0.06,7.7,3.78,8.73,7.62
	c0.9,3.38-3.23,17.52-6.67,22.87c-3.55,5.51-13.72,15.17-15.98,15.19c-3.01,0.01-4.73-1.4-6.19-5.08
	C808.35,546.24,808.46,543.17,810.61,536.68L810.61,536.68z M807.47,99.7c1.07,2.07,2.38,3.74,2.92,3.73
	c0.53-0.01,1.34,1.33,1.78,2.97c0.44,1.64,1.28,2.97,1.86,2.96c0.59-0.01,3.83,2.1,7.2,4.68c6.01,4.61,12.2,6.17,12.16,3.08
	c-0.06-4.06-10.82-15.3-18.93-19.78C805.25,92.26,803.85,92.74,807.47,99.7L807.47,99.7z M796.74,90.29c0.23-1.09,2.07-2.7,4.1-3.57
	c3.38-1.47,4.33-1.28,11.64,2.35c8.56,4.24,22.63,16.75,26.03,23.15c4.06,7.63,1.46,13.5-6.04,13.61
	c-4.19,0.07-6.74-1.27-17.66-9.24c-8.49-6.2-11.07-8.96-12.18-13.05c-0.45-1.64-1.79-4.04-2.97-5.34
	C797.08,95.39,796.19,92.97,796.74,90.29L796.74,90.29z M803.29,716.32c4.04-0.06,9.53-3.58,16.92-10.84
	c6.94-6.81,7.62-9.88,2.17-9.79c-4.61,0.07-10.03,3.35-16.29,9.85C799.95,711.93,798.79,716.39,803.29,716.32L803.29,716.32z
	 M794.75,707.83c1.63-3.66,13.35-14.59,18.72-17.47c2.4-1.29,6.07-1.82,11.55-1.66c7.45,0.21,8.14,0.46,9.67,3.55
	c1.52,3.05,1.35,3.79-1.99,9.19c-2,3.23-5.83,7.71-8.51,9.96c-2.68,2.24-5.55,4.77-6.39,5.62c-2.05,2.1-13.63,7.64-16.06,7.68
	C795.75,724.84,791.62,714.84,794.75,707.83L794.75,707.83z M597.32,157.74c2.4,1.48,20.21,4.74,25.8,4.72
	c7.45-0.03,6.5-2.81-1.88-5.55c-13.24-4.32-22.85-5.87-24.69-3.96C595.28,154.25,595.68,156.74,597.32,157.74L597.32,157.74z
	 M585.78,151.45c9.79-6.66,23.94-5.62,45.55,3.36c7.86,3.27,9.17,8.01,3.32,11.97c-3.8,2.57-17.34,1.86-32.69-1.72
	c-9.19-2.14-12.13-3.39-15.36-6.51c-2.19-2.13-3.99-4.11-4-4.4C582.6,153.85,584.02,152.64,585.78,151.45L585.78,151.45z
	 M559.29,727.93c13.23-1.42,31.89-8.15,31.84-11.49c-0.03-1.86-13.66-3.31-19.11-2.02c-6.37,1.5-18.44,6.94-19.98,9.02
	C548.62,728,550.11,728.93,559.29,727.93L559.29,727.93z M543.13,726.25c2.03-6.84,4.34-9.8,9.5-12.22
	c11.29-5.29,33.36-9.86,37.58-7.8c1.41,0.69,4.07,1.78,5.91,2.41c4.5,1.55,6.44,6.51,4.02,10.32c-1,1.58-2.57,2.87-3.49,2.89
	c-0.92,0.01-2.46,0.83-3.41,1.81c-3.93,4.06-34.55,12.82-40.13,11.5c-1-0.24-3.2-0.72-4.9-1.07
	C544.94,733.42,542.24,729.26,543.13,726.25L543.13,726.25z M672.75,374.83c5.38,2.78,12.78-1.85,10.81-6.76
	c-0.68-1.69-1.79-1.96-5.64-1.38C669.73,367.91,667.18,371.95,672.75,374.83L672.75,374.83z M664.25,366.74
	c3.42-4.19,13.42-8.17,17.9-7.12c8.1,1.91,10.74,12.08,4.67,17.99c-3.64,3.55-10.04,6.71-13.67,6.77
	c-3.26,0.05-11.78-8.16-11.84-11.4C661.29,371.55,662.62,368.74,664.25,366.74L664.25,366.74z M666.25,453.66
	c2.28,0.23,4.29-0.89,7.48-4.19c3.2-3.29,4.26-5.33,3.96-7.6c-0.37-2.81-0.86-3.07-5.05-2.75c-6.9,0.53-10.45,4.59-9.8,11.24
	C663.06,452.61,663.91,453.42,666.25,453.66L666.25,453.66z M656.19,448.06c0.74-6.03,2.65-10.49,5.79-13.54
	c3.98-3.86,10.89-6.93,13.56-6.02c2.84,0.97,9.51,9.45,9.55,12.13c0.08,5.56-11.07,18.27-17.14,19.53
	C661.33,461.54,655.3,455.34,656.19,448.06L656.19,448.06z M627.61,414.98c0.86-0.01,3-0.72,4.75-1.56
	c4.41-2.13,4.58-8.15,0.22-8.08c-5.19,0.08-6.66,1.32-6.59,5.61C626.03,413.49,626.64,415,627.61,414.98L627.61,414.98z
	 M620.36,406.12c2.15-5.04,7.24-7.38,15.1-6.94c3.18,0.18,7.18,4.71,7.19,8.15c0.01,3.21-2.26,7.47-4.01,7.49
	c-0.5,0.01-2.72,1.66-4.94,3.67c-2.22,2.01-4.6,3.66-5.3,3.68c-2.49,0.04-8.28-4.02-8.32-5.82c-0.03-1.01-0.32-2.91-0.65-4.22
	C619.09,410.81,619.52,408.11,620.36,406.12L620.36,406.12z M596.04,489.67c0.92,1.39,3.41,1.68,11.49,1.36
	c8.6-0.34,11.18-0.93,15.45-3.52c9.95-6.04,18.28-16.83,18.17-23.55c-0.07-4.58-2.95-8.45-6.26-8.4
	c-6.86,0.1-24.75,10.15-33.91,19.06C595.54,479.92,593.57,485.9,596.04,489.67L596.04,489.67z M589.92,483.18
	c1.51-6.73,4.67-11.33,12.05-17.48c4.05-3.38,8-6.16,8.78-6.17c0.78-0.01,2.93-1.3,4.77-2.85c4.3-3.65,13-7.22,17.78-7.3
	c6.15-0.1,11.43,3.31,13.17,8.47c3.9,11.62-3.94,24.93-21.03,35.66c-11.79,7.41-18.95,9.1-23.85,5.66c-0.67-0.46-2.69-1.17-4.5-1.58
	C591.76,496.39,588.45,489.75,589.92,483.18L589.92,483.18z M580.74,535.15c2.96,0.24,4.38-0.49,6.83-3.49
	c3.13-3.84,3.95-7.7,1.9-8.93c-1.72-1.03-11.04,1.53-12.18,3.34c-0.56,0.88-0.85,3.21-0.64,5.19
	C576.95,534.31,577.56,534.89,580.74,535.15L580.74,535.15z M570.2,522.94c3.09-6.37,7.68-9.15,14.22-8.6
	c12.51,1.05,15.91,10.64,7.48,21.18C580.87,549.33,562.55,538.71,570.2,522.94L570.2,522.94z M537.95,376.33
	c3.1,4.92,12.78,10.72,20.43,12.24c10.25,2.03,28.77-0.6,33.68-4.79c0.98-0.83,3.03-1.91,4.57-2.41
	c10.21-3.28,17.86-13.26,17.76-23.17c-0.15-15.49-19.15-18.75-49.68-8.54c-12.13,4.07-19.21,7.87-24.73,13.3
	C535.02,367.85,534.55,370.94,537.95,376.33L537.95,376.33z M531.86,362.69c3.6-6.49,16.68-14.87,30.91-19.78
	c11.48-3.96,13.62-4.31,27.41-4.54c17.03-0.27,21.08,0.96,26.69,8.12c6.3,8.04,5.77,20.16-1.27,29.08
	c-3.87,4.89-15.61,12.66-25.12,16.59c-7.67,3.17-9.18,3.39-22.1,3.13c-12.66-0.26-14.54-0.6-21.7-3.99
	C532.8,384.73,526.44,372.47,531.86,362.69L531.86,362.69z M537.89,453.64c2.93,3.18,4.44,3.8,9.81,4.05
	c7.32,0.33,11.8-1.95,17.61-8.96c5.04-6.08,5.92-11.16,2.42-13.91c-4.07-3.19-12.77-2.05-23.19,3.04
	C533.86,443.08,532.08,447.32,537.89,453.64L537.89,453.64z M530.55,442.19c3.1-5.06,6.49-7.69,15.14-11.77
	c20.05-9.45,36.51,0.77,28.27,17.56c-6.46,13.14-26.54,21.97-33.45,14.71c-1.39-1.46-4.37-4.51-6.61-6.77
	C528.62,450.56,527.71,446.83,530.55,442.19L530.55,442.19z M506.45,532.19c6.07,2.22,26.13-3.48,31.78-9.03
	c3.51-3.45,4.25-9.23,1.77-13.71c-1.22-2.2-2.06-2.34-8.7-1.5c-8.57,1.1-17.78,6.03-23.24,12.45
	C504.07,525.09,503.26,531.03,506.45,532.19L506.45,532.19z M500.5,519.46c2.55-4.33,15.62-13.28,23.28-15.96
	c7.34-2.58,12.9-2.69,17.54-0.38c4.25,2.12,5.96,5.8,6.07,13.09c0.11,6.98-5.03,12.97-16.09,18.76c-7.12,3.72-9.21,4.25-17.29,4.38
	c-8.07,0.14-9.57-0.19-12.31-2.69c-2.48-2.25-3.12-3.96-3.16-8.31C498.52,525.31,499.39,521.33,500.5,519.46L500.5,519.46z
	 M496.44,440.91c4.67-0.07,7.04-2.39,6.42-6.31c-0.59-3.73-4.25-4.1-7.69-0.76C490.92,437.97,491.46,440.99,496.44,440.91
	L496.44,440.91z M486.66,435.68c4.65-15.11,23.41-14.55,22.6,0.67c-0.42,7.97-5.32,12.83-13.04,12.95
	C489.88,449.4,484.71,442.03,486.66,435.68L486.66,435.68z M495.63,494.19c1.71,0.52,3.12-0.1,4.72-2.08
	c3.11-3.85,2.97-7.02-0.3-6.97C494.34,485.23,490.7,492.71,495.63,494.19L495.63,494.19z M487.16,483.7
	c6.86-8.99,23.71-9.22,23.84-0.32c0.04,2.97-5.21,10.98-9.95,15.18C492.58,506.05,480.2,492.82,487.16,483.7L487.16,483.7z
	 M488.04,363.79c3.42,4.53,16.68-2.19,14.59-7.4c-1.55-3.88-16.3,0.19-16.23,4.49C486.4,361.28,487.14,362.59,488.04,363.79
	L488.04,363.79z M479.2,358.43c0.61-1.08,3.84-3.79,7.19-6.01c11.61-7.7,22.54-5.1,22.7,5.41c0.06,3.25-0.87,5.12-4.02,8.18
	c-4.85,4.71-14.87,8.85-14.92,6.15c-0.02-1.79-4.62-4.73-5.68-3.64c-0.79,0.82-3.16-1.45-5.02-4.8
	C477.77,360.71,477.78,360.94,479.2,358.43L479.2,358.43z M456.36,472.78c10.58,9.01,12.05,19.28,6.27,43.66
	c-1.86,7.81-3.93,19.19-4.6,25.28c-1.9,17.1,0.72,21.74,13.33,23.56c3.77,0.54,6.12,0.05,10.56-2.22c7.16-3.66,18.1-3.8,31.97-0.4
	c12.39,3.03,16.21,2.87,21.6-0.9c2.44-1.71,8.52-4.56,13.52-6.31c10.23-3.61,11.22-3.59,33.16,0.73c9.79,1.92,15.59,2.52,17.97,1.84
	c3.68-1.03,10.63-9.33,14.37-17.13c1.11-2.31,4.25-5.8,6.97-7.75c4.06-2.92,6.71-3.74,14.64-4.56c10.66-1.1,10.98-1.31,17.8-11.65
	c2.2-3.32,5.48-7.68,7.3-9.68c1.82-2,3.82-5.8,4.45-8.44c2.11-8.91,7.05-21.15,9.99-24.75c2.85-3.49,3.16-3.58,14.25-3.75
	c6.23-0.1,12.42-0.77,13.75-1.51c1.32-0.73,3.43-3.77,4.7-6.73c3.08-7.28,2.06-12.33-5.67-27.86c-5.6-11.24-6.29-13.49-6.98-22.8
	c-0.42-5.68-0.42-12.31-0.01-14.73c0.93-5.37,7.03-12.6,13.89-16.45c2.78-1.56,6.58-4.67,8.42-6.9c6.07-7.33,1.84-12.9-11.02-14.55
	c-8.05-1.04-18.73-5.98-21.4-9.92c-1.01-1.49-2.3-5.3-2.89-8.48c-1.54-8.43-3.76-9.17-21.55-7.15c-15.93,1.79-27.31,1.29-32.82-1.46
	c-4.92-2.45-7.95-9.35-9.11-20.72c-0.96-9.47-2.96-13.7-7.34-15.62c-5.49-2.4-30.8,8.83-40.86,18.14
	c-4.77,4.42-17.71,11.61-21,11.65c-1.09,0.01-5.16,1.43-9.05,3.13c-8.86,3.89-14.61,4-22.2,0.43
	c-19.65-9.24-28.07-12.44-38.06-14.46c-10.87-2.2-11.27-2.2-14.09-0.03c-2.47,1.9-2.92,3.31-2.99,9.38
	c-0.04,4.26-1.05,9.43-2.49,12.81c-3.1,7.32-8.19,27.21-8.13,31.73c0.06,3.64,3.02,6.99,10.75,12.13
	c10.32,6.85,13.56,12.31,13.72,23.15c0.13,7.94-1.06,11.21-6.11,16.87c-5.96,6.68-13.3,18.43-16.77,26.84
	c-3.18,7.73-3.75,10.47-3.24,15.61C451.86,468.15,452.57,469.55,456.36,472.78L456.36,472.78z M440.51,453.02
	c0.81-2.72,2.97-7.25,4.81-10.09c1.83-2.84,4.52-7.3,5.95-9.93c1.44-2.62,3.41-5.59,4.39-6.59c0.97-1,1.76-2.24,1.75-2.73
	c-0.01-0.5,2.14-3.32,4.77-6.27c5.83-6.55,6.97-9.3,6.85-16.64c-0.07-4.4-0.72-6.27-2.89-8.25c-1.55-1.41-3.44-2.55-4.22-2.54
	c-0.78,0.02-1.43-0.38-1.43-0.88c-0.01-0.49-2.49-2.4-5.51-4.25c-8.06-4.92-11.47-10.39-11.6-18.59c-0.06-3.68,0.59-9.35,1.43-12.61
	c0.84-3.26,2.16-8.8,2.93-12.31c0.77-3.51,2.18-8,3.13-9.98c0.96-1.99,1.39-4.87,0.96-6.46c-1.2-4.53,3.37-15.71,7.76-18.95
	c3.15-2.32,5.21-2.77,12.57-2.78c4.84-0.01,9.15,0.49,9.59,1.1c0.44,0.61,3.23,1.81,6.2,2.66c2.97,0.85,8.66,2.98,12.64,4.72
	c3.98,1.75,9.94,4.34,13.25,5.77c8.31,3.59,14.5,3.94,24.11,1.4c6.55-1.73,9.09-3.11,12.62-6.86c6.01-6.39,27.76-16.96,49.24-23.91
	c4.96-1.6,7.36-1.77,12.1-0.83c9.96,1.98,14.69,8.46,17.25,23.61c1.15,6.82,2.14,9.43,4.19,10.94c2.72,2.02,16.51,3.96,18.61,2.62
	c0.62-0.4,6.99-0.86,14.14-1.03c17.37-0.41,20.96,1.01,24.28,9.55c1.33,3.45,2.81,7.43,3.27,8.85c0.45,1.41,2.03,3.32,3.51,4.23
	c3.3,2.05,16.96,5.09,26.97,6c7.41,0.67,7.51,0.73,8.91,5.17c0.86,2.73,1.12,7.15,0.67,11.31c-0.86,7.87-5.71,14.54-13.26,18.21
	c-2.44,1.19-4.85,2.9-5.36,3.79c-0.51,0.9-1.98,1.66-3.27,1.68c-1.28,0.01-2.32,0.49-2.31,1.05c0.01,0.56-1.04,2.27-2.33,3.81
	c-4.17,4.94-1.81,26.04,3.71,33.18c5.52,7.14,8.03,14.28,8.32,23.62c0.22,7.43-0.14,9.27-2.38,12.13c-1.46,1.86-2.92,4.22-3.26,5.24
	c-0.33,1.03-3.45,3.63-6.93,5.79c-5.28,3.27-7.56,3.94-13.65,4.03c-6.96,0.1-7.41,0.3-9.62,4.03c-1.27,2.16-2.61,5.64-2.97,7.75
	c-0.37,2.1-1.68,4.77-2.91,5.91c-1.23,1.15-2.23,2.56-2.22,3.13c0.01,0.57-1.26,3.12-2.82,5.68c-1.56,2.56-3.19,6.74-3.62,9.3
	c-1.55,9.26-18.95,21.09-31.33,21.28c-7.13,0.11-13.88,2.98-14.89,6.34c-0.38,1.28-2.5,4.76-4.71,7.75
	c-2.22,2.99-4.02,5.92-4.01,6.52c0.01,0.6-0.41,1.27-0.92,1.5c-0.52,0.23-2.14,2.45-3.61,4.94c-2.43,4.13-3.13,4.53-7.93,4.61
	c-2.89,0.04-7.31-0.67-9.8-1.6c-9.12-3.36-20.38-5.36-29.73-5.29c-9.98,0.08-11.34,0.57-28.57,10.24c-5.51,3.09-7.1,3.01-24.53-1.35
	c-11.1-2.77-13.15-2.96-17.38-1.63c-14.03,4.42-21.26,5.09-29.6,2.72c-5.75-1.63-11.78-7.13-11.84-10.81
	c-0.03-1.47-0.66-3.26-1.42-3.99c-3.12-3.03-0.77-21.88,5.56-44.73c1.28-4.63,2.12-11.48,2.04-16.74
	c-0.13-8.71-0.24-8.99-4.87-13.65c-4.43-4.46-12.54-19.85-12.33-23.4C439.01,458.66,439.7,455.73,440.51,453.02L440.51,453.02z
	 M327.04,378.56c0.73,2.56,4.09,3.83,4.06,1.52c-0.01-0.61,0.72-1.88,1.63-2.82c5.98-6.15,7.05-28.52,1.37-28.43
	C328.9,348.91,324.22,368.62,327.04,378.56L327.04,378.56z M321.33,360.99c0.52-2.97,2.33-8.48,4.05-12.24
	c3.57-7.86,6.53-9.39,12.14-6.28c5.4,2.98,7.5,8.31,7.67,19.44c0.12,7.93-0.38,10.65-2.89,15.86c-4.07,8.44-6.04,10.52-10,10.58
	C323.23,388.49,318.55,376.86,321.33,360.99L321.33,360.99z M313.15,163.62c3.79-0.11,14.3-4.19,17.69-6.86
	c8.78-6.91,13.44-12.32,13.39-15.55c-0.03-2.24-0.67-3.16-2.14-3.13c-4.01,0.08-18.82,9.68-24.33,15.76
	C312.77,159.33,310.72,163.7,313.15,163.62L313.15,163.62z M310.03,154.52c6.55-7.75,13.63-13.98,19.49-17.16
	c3.1-1.68,6.14-3.55,6.76-4.14c0.61-0.59,3.46-1.11,6.32-1.16c4.85-0.07,5.34,0.21,7.08,4.21c2.94,6.76,1.4,10.79-7.47,19.53
	c-8.91,8.78-15.85,12.58-24.61,13.48c-8.14,0.84-11.25-0.85-11.33-6.15C306.22,160.22,307.31,157.74,310.03,154.52L310.03,154.52z
	 M289.25,728.27c3.6,7.3,11.14,15.5,15.81,17.19c9.46,3.44,14.8-1.31,10.39-9.25c-5.68-10.27-23.44-25.35-27.78-23.6
	C284.9,713.72,285.62,720.91,289.25,728.27L289.25,728.27z M278.36,713.24c0.54-3.91,5.91-8.19,10.34-8.26
	c8.98-0.14,25.44,14.65,34.38,30.86c3.48,6.32,4.16,11.64,1.49,11.68c-0.58,0.01-1.03,1.1-1.02,2.44c0.07,4.16-5.03,5.18-15.4,3.09
	c-8.33-1.68-9.65-2.38-15.31-7.97C283.48,735.82,277.15,721.89,278.36,713.24L278.36,713.24z M272.12,607.69
	c2.34,3.69,10.41,8.7,11.77,7.3c0.42-0.45,0.38-2.71-0.1-5.05c-0.95-4.65-4.13-7.29-10.15-8.4
	C269.1,600.71,268.71,602.29,272.12,607.69L272.12,607.69z M264.97,597.31c5.56-7.29,20.53-2.42,26.17,8.52
	c3.29,6.39,3.43,8.23,0.98,13.14c-1.78,3.57-2.07,3.69-7.8,3.1c-4.13-0.42-7.41-1.73-10.7-4.26
	C263.88,610.32,260.73,602.86,264.97,597.31L264.97,597.31z M137.44,481.66c1.48,6.86,2.61,9.63,4.02,9.87
	c2.53,0.44,3.08-4.03,3.67-29.73c0.5-21.42-0.38-26.33-4.67-26.26C133.93,435.65,132.44,458.48,137.44,481.66L137.44,481.66z
	 M127.75,441.12c4.43-14.03,9.81-17.84,18.21-12.89c6.57,3.87,7.32,8.95,6.41,43.63c-0.69,26.31-1.25,28.04-9.16,28.23
	c-3.51,0.09-5.68-0.69-8.12-2.88c-1.83-1.64-3.34-3.1-3.37-3.24c-0.02-0.14-0.89-4.55-1.94-9.8
	C126.96,470.03,125.89,447.02,127.75,441.12L127.75,441.12z M114.59,500.65c1.99,9.69,5.23,17.52,8.93,21.6
	c2.45,2.7,8.48,3.64,16.32,2.53c5.16-0.72,7.25-1.75,10.98-5.44c2.53-2.5,5.49-6.3,6.58-8.43c13.25-25.83,14.86-27.99,24.64-33.1
	c10.35-5.4,19-7.66,26.81-7.01c3.82,0.32,12.87,1.02,20.13,1.57c7.25,0.54,22.35,1.91,33.56,3.04c42.81,4.31,61.91,4.38,76.91,0.29
	c5.42-1.48,11.59-3.69,13.71-4.93c4.7-2.73,8.87-3.59,23.29-4.77c13.77-1.12,21.34,0.38,26.49,5.26
	c10.7,10.15,6.48,19.54-19.54,43.54c-4.21,3.88-10.59,9.07-14.17,11.53c-3.59,2.46-7.26,5.22-8.16,6.14
	c-2.23,2.27-5.5,9.09-7.72,16.13c-1.94,6.17-9.6,17.64-15.29,22.9c-3.83,3.55-21.91,14.87-29.36,18.39
	c-6.36,3.01-20.73,3.43-26.22,0.76c-8.8-4.27-15.37-13.8-17.91-26.03c-2.44-11.73-9.01-25.49-12.14-25.44
	c-1.39,0.01-1.51,4.48-0.73,26.64c0.87,25.04,1.12,27.16,4.26,35.75c2.97,8.15,8.23,18.9,13.2,26.98c2.45,3.99,7.25,8.8,11.1,11.11
	c3.95,2.38,12.95,2.57,12.91,0.27c-0.01-0.85,0.56-2.15,1.26-2.88c0.7-0.72,2.96-5.31,5.01-10.19
	c8.27-19.64,16.98-29.49,34.14-38.62c11.63-6.18,18.03-12.43,24.55-23.95c7.13-12.6,14.43-20.34,28.13-29.82
	c8.66-6,11.3-7.2,18.27-8.29c14.25-2.24,16.88-0.78,21.75,12.05c1.66,4.36,5.06,11.51,7.56,15.89
	c9.93,17.39,11.46,20.93,11.59,26.77c0.14,6.9-1.94,16.41-4.08,18.63c-0.86,0.88-1.55,2.03-1.55,2.55c0.01,0.52-2.67,3.88-5.95,7.48
	c-5.71,6.25-12.84,15.89-12.82,17.33c0.01,0.38-1.81,4.78-4.04,9.8c-2.22,5.02-4.04,9.6-4.03,10.16
	c0.04,2.51-6.63,16.96-11.28,24.42c-7.41,11.88-11.02,15.7-23.12,24.42c-15.07,10.84-20.63,13.37-35.83,16.31
	c-16.09,3.1-19.94,2.73-32.9-3.2c-20.97-9.58-36.93-17.65-39.58-20c-2.74-2.43-13.07-1.69-15.81,1.14
	c-1.29,1.33-2.34,3.13-2.33,3.99c0.04,2.69,4.95,15.57,7.17,18.83c22.46,32.9,23.63,34.51,31.53,43.54
	c2.04,2.33,7.34,8.77,11.78,14.29c9.22,11.49,11.52,13.8,19.48,19.65c7.22,5.3,14.32,5.91,17.78,1.51
	c4.75-6.06,5.58-15.91,2.47-29.54c-1.97-8.66-2.55-20.1-1.19-23.43c1.58-3.87,9.21-12.33,16.92-18.78c4.35-3.64,8.12-6.62,8.37-6.62
	c0.26-0.01,4.69-2.5,9.86-5.54c11.45-6.74,27.65-20.24,35.46-29.55c5.33-6.34,18.09-23.99,18.08-24.99
	c-0.02-0.65,10.3-17.73,13.36-22.13c3.94-5.68,14.19-14.4,23.67-20.17c11.2-6.81,23.84-10.88,35.2-11.35
	c7.96-0.33,10.12,0.07,16.68,3.08l7.55,3.45l9.1-3.55c21.71-8.47,21.87-8.51,29.08-7.81c12.14,1.18,19.29,6.81,24.33,19.16
	c3.94,9.64,2.63,25.88-3.48,43.42c-2.34,6.69-9.07,21.77-10.24,22.89c-0.34,0.33-1.4,2.17-2.35,4.08
	c-2.79,5.6-12.05,14.43-18.99,18.09c-3.54,1.87-11.52,4.58-17.73,6.02c-15.27,3.55-19.08,6.78-18.93,16.13
	c0.07,5.05,0.65,6.42,4.11,9.78c2.29,2.22,6.31,4.48,9.35,5.26c15.63,3.99,52.51,0.44,79.84-7.68c13.79-4.1,19.18-8.77,19.06-16.52
	c-0.06-3.46-0.98-5.25-4.38-8.45c-4.25-3.99-4.5-4.06-15.69-4.16c-13.85-0.13-20.76-2.56-23.78-8.39
	c-2.39-4.61-2.74-12.27-0.68-14.52c0.8-0.88,4.19-7.3,7.53-14.26l6.06-12.66l0.37-13.96c0.2-7.68,0.69-15.5,1.09-17.37
	c2.54-11.9,7.6-22.57,12.2-25.73c1.48-1.01,4.57-3.52,6.9-5.57c9.8-8.66,18.64-10.21,33.85-5.9c18.03,5.12,32.49,13.97,56.76,34.78
	c4.83,4.14,12.42,8.59,23.44,13.75c18.13,8.49,24.41,13.63,33.71,27.57c2.84,4.26,7.36,10.3,10.04,13.44
	c2.69,3.13,6.97,9.64,9.51,14.47c4.09,7.76,4.54,9.42,3.89,14.28c-0.61,4.54-1.9,6.71-7.44,12.56c-3.69,3.88-9.37,8.48-12.64,10.2
	c-10.81,5.74-13.19,9.68-9.18,15.22c1.68,2.32,2.63,2.6,6.31,1.86c7.76-1.57,26.67-8.36,40.04-14.38
	c7.19-3.24,14.25-6.27,15.69-6.74c1.43-0.45,7.76-4.38,14.04-8.73c6.29-4.34,11.79-7.9,12.23-7.91c0.43,0,3.83-3.28,7.56-7.29
	c5.21-5.61,6.75-8.12,6.71-10.94c-0.09-5.42-5.1-6.9-26.82-7.95c-10-0.49-22.65-1.8-28.09-2.93c-9.24-1.91-10.32-2.47-16.39-8.43
	c-3.57-3.51-8.66-10.3-11.31-15.09c-9.05-16.36-29.29-32.82-59.88-48.69c-10.5-5.44-30.96-24.12-35.02-31.96
	c-3.75-7.24-5.66-15.14-4.81-19.82c0.67-3.66,2.21-5.12,12.87-12.2c6.66-4.43,13.44-8.64,15.07-9.36c8.09-3.54,9.45-3.85,13.27-3.04
	c2.22,0.48,7.3,2.44,11.28,4.36c9.18,4.44,14.11,5.36,28.21,5.26c10.21-0.07,12.36,0.32,21,3.9c10.87,4.5,11.54,5,15.1,11.1
	c2.48,4.26,2.49,4.59,0.64,10.78c-1.04,3.51-1.55,7.26-1.13,8.32c1.77,4.42,15.27,5.64,20.92,1.9c4.73-3.12,4.81-3.23,15.7-20.38
	c5.52-8.69,13.08-19.31,16.82-23.6c7.52-8.64,13.44-20.21,13.35-26.09c-0.06-4.26-5.8-10.55-10.71-11.74
	c-7.61-1.86-22.36,5.73-32.84,16.88c-3.2,3.41-7.46,7.07-9.45,8.13c-1.99,1.06-3.88,2.31-4.21,2.78
	c-1.69,2.49-13.38,5.14-19.95,4.53c-16.07-1.51-24.83-4.65-31.83-11.45c-7.23-7.01-11.59-22.81-9.8-35.5
	c1.24-8.81,3.08-15.32,4.32-15.34c0.49-0.01,1.59-1.91,2.46-4.22c0.87-2.32,2-4.22,2.53-4.23c0.52-0.01,4.26-3.59,8.33-7.97
	l7.39-7.95l12.56-0.17c15.02-0.18,31.8,1.2,44.93,3.71c6.84,1.31,12.36,1.58,19.17,0.94c5.25-0.49,19.24-1.58,31.08-2.42
	c29.44-2.07,33.13-1.08,43.17,11.69c1.85,2.34,4.32,4.55,5.5,4.91c3.44,1.03,7.92-1.42,10.51-5.76
	c8.71-14.58,17.91-72.76,13.34-84.27c-1.94-4.89-7.48-4.12-11.61,1.59c-1.81,2.5-3.87,5.09-4.59,5.75
	c-0.72,0.67-3.79,4.89-6.84,9.38c-3.05,4.49-5.9,8.17-6.34,8.18c-0.43,0.01-2.41,1.52-4.39,3.35c-4.18,3.88-7.09,5.91-11.06,7.68
	c-1.56,0.69-4.5,2.63-6.52,4.3c-2.02,1.68-4.21,3.44-4.86,3.93c-5.2,3.95-26.45,11.02-40.61,13.52
	c-19.36,3.42-43.97,2.85-79.87-1.86c-14.06-1.84-21.38-8.69-23.9-22.37c-1.73-9.38,0.01-19.56,4.57-26.75
	c3.28-5.16,14.39-13.79,20.22-15.69c2.45-0.8,4.46-1.88,4.45-2.41c-0.01-0.53,0.74-0.69,1.66-0.36c6.23,2.28,45.92-21.61,59.98-36.1
	c1.74-1.8,4.95-4.65,7.13-6.33c2.18-1.67,6.92-5.87,10.54-9.3c8.6-8.17,27.44-19.69,33.97-20.76c8.16-1.35,12.16,0.04,15.28,5.3
	c3.71,6.24,8.19,7.99,13.64,5.29c5.52-2.74,6.71-6.6,5.8-18.83c-1.48-19.67-9.13-58.09-13-65.3c-2.42-4.49-7.64-9.8-9.53-9.7
	c-2.41,0.14-9.02,9.36-10.28,14.34c-0.62,2.45-1.83,11.37-2.69,19.81c-2.14,21.06-4.11,24.96-19.21,38.1
	c-4.22,3.68-7.85,7.09-8.06,7.6c-0.21,0.49-1.23,0.91-2.27,0.92c-1.04,0.01-6.19,3.24-11.46,7.16
	c-5.27,3.93-14.37,10.47-20.23,14.53c-5.87,4.07-11.83,8.42-13.26,9.67c-1.43,1.25-4.33,3.64-6.45,5.32
	c-2.13,1.67-7.04,5.66-10.92,8.86c-3.89,3.2-9.11,6.46-11.61,7.25c-2.5,0.8-4.54,1.83-4.54,2.31c0.01,0.48-1.46,1.17-3.27,1.53
	c-1.8,0.37-7.84,1.59-13.42,2.73c-16.56,3.38-19.76,3.06-25.35-2.53c-5.8-5.8-7.3-9.29-7.51-17.5c-0.17-6.49,2.14-11.29,9.16-19.11
	c1.55-1.73,5.57-7.31,8.92-12.39c3.35-5.09,9.4-12.86,13.45-17.29c9.22-10.07,19.76-27.84,25.97-43.76
	c2.62-6.72,6.03-14.98,7.59-18.37c1.55-3.39,3.8-9.08,5.01-12.64c1.2-3.57,4.24-12.57,6.74-20.01c5.51-16.34,8.48-21.79,16.71-30.62
	c7.81-8.38,11.29-9.37,19.14-5.48c6.68,3.32,8.26,3.43,12.96,0.9c5.26-2.82,4.62-7.16-2.36-16.28c-3.17-4.13-6.06-7.77-6.43-8.1
	c-0.37-0.32-3.94-4.79-7.97-9.93c-10.27-13.14-27.92-30.44-36.12-35.42c-5.95-3.6-8.28-4.29-16.23-4.75
	c-14.77-0.86-19.49,2.87-13.3,10.53c1.32,1.62,2.41,3.39,2.43,3.91c0.02,0.52,0.58,1.59,1.24,2.38c6.42,7.61,10.7,14.03,16.78,25.12
	l7.15,13.06l0.11,12.57c0.12,11.51-0.26,13.75-4.53,26.65c-4.71,14.28-12.44,29.58-25.45,50.41c-8.83,14.15-22.72,39.71-27.41,50.48
	c-7.24,16.61-17.62,29.83-30.38,38.71c-6.31,4.4-6.82,4.53-16.48,4.48c-12.29-0.07-24.57-3.41-31.68-8.62
	c-6.21-4.54-16.33-10.98-24.17-15.34c-9.94-5.56-17.17-14.86-18.81-24.24c-0.69-3.91-0.13-6.79,2.71-14.26
	c2.69-7.04,3.82-12.62,4.57-22.51c1.05-13.69,3.19-25.2,6.28-33.78c1.83-5.09,3.95-6.62,11.68-8.48c1.97-0.47,5.04-1.63,6.85-2.57
	c2.82-1.47,3.25-2.42,3.18-7.01c-0.07-4.52-0.77-6.02-4.75-10.08c-2.73-2.78-5.79-4.75-7.34-4.73c-3.43,0.06-41.48-9.16-53.75-13.02
	c-9.97-3.12-31.82-4.76-40.41-3.01c-6.7,1.36-11.41,6.18-11.33,11.56c0.11,7.44,1.7,8.23,31.8,15.89
	c14.63,3.71,21.19,7.48,31.48,18.1c10.27,10.59,12.39,15.69,12.28,29.57c-0.07,9.34-0.51,11.8-5.13,28.9
	c-3.35,12.41-5.4,16.75-10.4,21.92c-3.96,4.11-5.54,5.05-16.26,9.74c-7.78,3.4-21.02,3.86-45.87,1.62
	c-12.5-1.12-16.65-1.08-22.14,0.22c-3.71,0.88-13.75,2.01-22.29,2.5c-16.91,0.97-26.38-0.57-31.85-5.17
	c-1.51-1.27-3.09-2.3-3.53-2.3c-0.43,0.01-4.61-3.56-9.27-7.94c-4.65-4.37-13.35-11.38-19.31-15.56
	c-5.95-4.19-11.02-8.03-11.26-8.53c-0.23-0.5-1.08-1.57-1.9-2.37c-0.81-0.8-3.58-6.43-6.14-12.5
	c-9.17-21.74-11.15-24.48-32.79-45.42c-16.21-15.69-22.85-31.21-17.74-41.46c2.9-5.83,4.35-7.02,12.69-10.51
	c19.62-8.19,26.31-13.8,27.56-23.1c0.99-7.3-0.49-11.12-5.57-14.43c-6.35-4.15-9.18-3.39-21.42,5.69
	c-27.39,20.33-33.49,24.51-52.27,35.85c-4.89,2.96-9.16,5.72-9.48,6.15c-0.33,0.42-1.99,1.55-3.71,2.49
	c-6.78,3.73-16.52,14.7-19.59,22.07c-2.28,5.46-1.59,12.37,1.74,17.48c2.42,3.71,3.94,4.74,7.81,5.34c2.64,0.41,5.84,0.39,7.1-0.04
	c9.79-3.28,41.12-3.36,54.74-0.14c7.31,1.72,13.5,7.67,18.44,17.73c2.07,4.22,5.99,10.02,8.71,12.9c2.72,2.88,5.24,6.03,5.6,7.02
	c0.36,0.98,2.64,3.09,5.07,4.7c2.43,1.6,7.67,6.64,11.63,11.19c3.97,4.56,9.28,10.41,11.81,13.01c9.37,9.6,19.56,22.27,19.59,24.35
	c0.02,1.17,0.49,2.41,1.04,2.73c0.95,0.57,3.28,9.25,4.45,16.57c0.33,2.09-0.39,4.72-1.94,7.05c-2.56,3.84-11.18,9.54-14.51,9.6
	c-5.98,0.08-10.7,6.43-16.67,22.44c-5.69,15.23-12.75,25.36-19.08,27.36c-4.75,1.5-16.32,0.42-26.22-2.44
	c-4.44-1.28-12.76-6.97-15.55-10.63c-7.94-10.44-15.76-14.97-26.15-15.18c-10.05-0.21-11.19,1.35-17.22,23.37
	c-6.47,23.65-3.78,45.33,7.16,57.64c4.58,5.17,5.41,5.61,10.44,5.53c4.61-0.07,6-0.69,9.12-4.1c2.07-2.26,4.86-7.64,6.43-12.36
	c9.37-28.43,17.19-33.85,45.7-31.71c5.27,0.39,12.29,1.38,15.59,2.18c8.85,2.15,20.41,8.63,24.65,13.81
	c5.17,6.31,8.8,18.12,9.8,31.92c0.76,10.41,0.58,12.11-1.75,16.78c-6.06,12.16-16.35,16.55-42.84,18.31
	c-15.9,1.05-18.52,1.57-31.63,6.23c-21,7.48-40.78,10.42-74.44,11.05c-23.95,0.45-36.6-0.54-61.3-4.82
	c-10.58-1.83-21.8-2.88-32.36-3.01c-20.24-0.26-22.9-0.65-26.78-3.88c-4.47-3.73-6.69-10.79-7.77-24.78
	c-0.53-6.7-1.44-13.05-2.02-14.1c-0.58-1.06-2.3-4.44-3.81-7.53c-1.51-3.09-4.34-7.48-6.29-9.78c-3.32-3.9-3.88-4.12-8.54-3.32
	c-8.09,1.37-10,2.56-13.16,8.14c-5.43,9.59-7.82,18.9-12.44,48.33c-4.24,27.05-4.48,33.76-1.67,47.39L114.59,500.65z M105.07,467.2
	c6.15-49.11,11.41-66.8,22.06-74.23c5.15-3.6,6.55-3.99,14.49-4.11c8.58-0.13,8.9-0.03,13.52,4.37c2.61,2.47,6.79,8.51,9.3,13.4
	c3.69,7.19,4.8,10.95,5.76,19.58c2.8,25,3.24,25.52,21.45,25.14c13.13-0.29,22.6,0.49,33.45,2.75c32.01,6.66,82.53,7.21,114.92,1.25
	c7.19-1.32,18.68-4.64,23.72-6.86c9.99-4.38,16.54-5.72,32.92-6.75c15.22-0.95,18.21-1.49,24.5-4.42
	c10.16-4.74,11.86-7.81,11.44-20.56c-0.26-7.91-1.07-11.91-3.63-18.03c-3.84-9.2-7.19-12.59-17.07-17.34
	c-12.2-5.86-36.71-7.5-45.41-3.04c-3.68,1.9-10.61,14.39-13.4,24.19c-4.49,15.77-10.51,21.36-24.42,22.69l-7.8,0.74l-6.13-6.35
	c-9.87-10.23-14.53-23.69-14.82-42.76c-0.23-15.14,5.37-38.88,11.03-46.74c6.12-8.49,15.61-10.63,29.32-6.62
	c9.14,2.67,15.58,7.04,20.49,13.9c1.81,2.52,5.38,5.72,7.95,7.11c5.16,2.8,22.31,6.24,25.61,5.13c3.43-1.15,12.64-17.19,15.47-26.93
	c1.2-4.15,8.14-16.1,10.75-18.54c1.23-1.15,4.49-2.92,7.25-3.94c2.77-1.03,6.95-2.81,9.3-3.97c4.24-2.1,4.27-2.17,3.55-8.18
	c-1.21-9.96-5.11-16.65-17.54-30.11c-15.98-17.29-22.1-23.54-28.96-29.61c-6.93-6.14-17.51-19.8-21.15-27.32
	c-5.55-11.49-11.07-13.5-35.86-12.99c-9.87,0.21-23.53,0.65-30.35,0.99l-12.4,0.62l-5.32-5.86c-2.93-3.23-5.95-7.68-6.73-9.92
	c-2.24-6.46-0.95-14.8,3.5-22.55c7.46-12.99,17.03-21.51,38.85-34.55c15.58-9.31,38.69-25.68,53.29-37.73
	c9.96-8.22,17.79-7.6,28.27,2.23c6.37,5.99,6.57,6.38,6.67,12.7c0.26,16.95-8.1,27.31-28.24,35.01
	c-13.96,5.34-15.55,7.83-12.11,19.01c2.56,8.35,5.21,11.85,19.45,25.74c15.13,14.75,19.01,19.76,24.35,31.42
	c4.2,9.17,7.09,14.94,11.1,22.18c0.79,1.41,7.12,6.68,14.06,11.71c6.94,5.02,15.73,12.18,19.51,15.92
	c10.16,10.01,14.14,11.83,26.31,12.02c5.6,0.08,15.82-0.69,22.72-1.73c11.47-1.71,34.81-2.61,59.28-2.27
	c9.04,0.13,9.9-0.08,13.61-3.3c2.52-2.19,4.77-3.2,6.17-2.78c1.21,0.36,3.23,0.95,4.47,1.32c2.53,0.75,6.31-2.76,9.29-8.62
	c2.75-5.43,8.12-27.76,8.86-36.83c0.98-11.99-1.84-18.42-12.83-29.24c-9.27-9.13-13.23-11.3-24.99-13.71
	c-20.66-4.22-32.72-9.01-35.93-14.25c-3.26-5.33-2.93-14.14,0.73-19.7c4.75-7.23,10.88-9.34,27.67-9.55
	c15.69-0.19,18.38,0.27,53.33,9.17c13.72,3.49,26.58,6.33,28.58,6.3c4.71-0.07,10.03,2.63,14.44,7.33c4.7,5.01,6.87,9.64,7.95,16.95
	c0.86,5.86,0.75,6.19-3.56,10.51c-4.17,4.18-7.21,5.72-14.77,7.5c-1.72,0.4-3.67,2.06-4.42,3.79c-2.4,5.49-5.81,26.02-5.68,34.24
	c0.1,6.23-0.69,10.13-3.47,17.34c-5.93,15.34-3.42,23.98,8.98,30.96c9.64,5.42,21.03,12.51,25.38,15.8c5.71,4.32,17.88,8.13,25.56,8
	c10.78-0.18,14.24-1.9,24.24-12.07c8.62-8.77,9.92-10.8,19.39-30.56c5.59-11.64,11.84-23.84,13.89-27.13
	c2.06-3.28,4.74-7.87,5.97-10.19c1.23-2.32,3.95-6.67,6.06-9.66c5.91-8.41,16.91-28.67,20.55-37.88
	c10.35-26.17,11.34-37.73,4.42-51.75c-2.38-4.82-4.33-9.05-4.34-9.39c0-0.35-1.87-3.16-4.15-6.26c-2.28-3.09-7.52-10.81-11.63-17.15
	c-11.05-17.01-10.13-22.45,4.45-26.18c6.46-1.65,23.64-1.16,24.9,0.71c0.37,0.56,2,1.41,3.62,1.89c8.49,2.51,31.64,23.9,47.8,44.16
	c5.45,6.83,10.33,12.59,10.84,12.8c0.52,0.21,0.94,0.81,0.95,1.34c0.01,0.53,1.94,4.05,4.31,7.84c2.36,3.79,4.31,8.06,4.33,9.49
	c0.06,3.65-3.91,8.43-10.13,12.2c-4.29,2.6-6.35,3.12-10.7,2.7c-2.96-0.29-6.35-1.38-7.55-2.42c-4.89-4.3-11.43-0.36-19.13,11.52
	c-0.96,1.49-2.41,3.43-3.23,4.3c-0.8,0.87-1.45,2.85-1.43,4.39c0.04,2.64-4.91,17.45-8.63,25.8c-0.93,2.09-1.68,4.17-1.68,4.63
	c0.01,0.46-0.82,2.81-1.84,5.23c-2.86,6.8-3.44,8.31-8.66,22.3c-2.68,7.19-6.68,16.13-8.89,19.88c-2.2,3.75-5.06,8.71-6.34,11.03
	c-2.38,4.31-17.2,23.29-18.76,24.01c-0.47,0.22-3.8,4.76-7.41,10.08c-3.61,5.32-7.45,10.6-8.54,11.73
	c-1.09,1.12-3.73,4.89-5.88,8.35c-3.37,5.44-3.78,6.96-3.02,11.07c1.23,6.7,6.22,9.54,16.5,9.38c12.56-0.19,29.7-6.21,37.38-13.14
	c8.86-7.98,17.82-15.15,29.71-23.77c5.09-3.69,9.85-7.26,10.58-7.94c1.32-1.21,12.72-8.85,19.89-13.31
	c9.74-6.06,21.76-17.87,24.65-24.21c1.03-2.27,2.56-10.81,3.39-19c2.3-22.53,3.19-25.32,10.88-33.65c7.05-7.64,9.53-8.55,15.38-5.64
	c6.7,3.33,12.97,14.79,16.95,30.96c4.26,17.29,8.23,42.49,8.43,53.49c0.2,11.37,0.1,11.88-3.6,17.02
	c-4.73,6.57-7.44,7.93-16.14,8.07c-6.57,0.1-7.12-0.13-12.24-5.21c-6.73-6.65-11.36-6.98-20.36-1.48c-3.32,2.03-6.43,3.68-6.89,3.69
	c-0.47,0.01-4.13,2.89-8.13,6.41c-4,3.51-10.83,9.41-15.18,13.1c-4.35,3.69-8.52,7.25-9.25,7.93c-3.96,3.61-20.82,17.55-24.37,20.15
	c-9.61,7.03-23.56,14.35-31.59,16.57c-9.53,2.63-19.11,7.81-23.66,12.78c-4.88,5.33-6.82,12.4-6,21.79
	c1.15,13.24,7.36,17.59,26.79,18.82c6.7,0.42,15.41,1.35,19.37,2.07c4.65,0.84,14.22,0.99,26.93,0.41c16-0.72,22.11-1.53,32.25-4.25
	c6.89-1.85,15.2-3.91,18.48-4.58c3.28-0.67,6.13-1.77,6.34-2.45c0.22-0.67,1.28-1.24,2.38-1.26c1.1-0.01,5.19-2.25,9.1-4.95
	c3.91-2.7,8.16-5.6,9.45-6.43c3.98-2.54,10.28-9.79,18.21-20.91c8.54-11.99,15.07-17.58,20.6-17.64c4.62-0.04,6.42,1.03,8.66,5.2
	c5.84,10.84-2.49,74.73-11.9,91.36c-4.03,7.13-11.58,12.56-17.58,12.65c-4.38,0.07-5.48-0.65-13.65-8.94l-8.89-9.02l-19.44,1.09
	c-10.7,0.6-25.63,1.77-33.18,2.59c-12.79,1.4-14.95,1.31-31.09-1.34c-22.99-3.77-45.2-3.71-50.42,0.13
	c-1.89,1.39-3.43,3.11-3.42,3.83c0.02,0.72-1.98,3.06-4.42,5.21c-6.55,5.79-9.9,13.62-9.93,23.27
	c-0.06,16.64,5.14,27.54,14.95,31.34c14.71,5.71,21.4,6.34,30.26,2.88c3.93-1.54,7.14-3.27,7.13-3.85
	c-0.01-0.57,0.68-1.06,1.52-1.07c0.85-0.02,4.17-2.79,7.39-6.16c8.17-8.58,22.16-17.6,30.34-19.55c9.97-2.39,14.28-1.18,22.08,6.2
	c7.72,7.32,8.09,9.12,4.31,21c-2.9,9.14-7.62,17.04-16.3,27.3c-3.48,4.11-8.13,10.63-10.35,14.52c-2.22,3.88-5.25,8.6-6.73,10.48
	c-1.48,1.88-2.68,4.11-2.67,4.94c0.04,3.07-11.35,13.81-16.33,15.38c-6.46,2.04-20.39,0.08-25.5-3.57
	c-4.6-3.29-5.44-6.66-3.91-15.66c1.59-9.3,0.7-10.61-10.2-15.15c-7.48-3.1-9.68-3.47-19.58-3.23c-11.99,0.28-20.91-1.75-31.6-7.23
	c-3.08-1.57-6.69-2.84-8.03-2.82c-4.25,0.07-17.98,7.63-28.07,15.46c-3.16,2.45-3.21,2.63-1.6,7.8c0.9,2.91,3.16,7.72,5.03,10.7
	c4.85,7.72,21.31,22.53,30.31,27.26c12.55,6.6,22.76,12.84,22.77,13.92c0.01,0.56,0.82,1,1.8,1c2.03-0.03,10.22,5.65,19.89,13.79
	c7.33,6.18,15.82,16.78,20.4,25.46c3.2,6.07,7.67,11.09,12.59,14.15c4.75,2.93,12.47,4.21,31.2,5.13
	c19.78,0.97,31.73,3.18,35.14,6.5c3.42,3.32,4.33,12.35,1.66,16.57c-3.5,5.52-12.37,14.75-16.91,17.61c-2.35,1.47-4.54,3-4.87,3.39
	c-2.76,3.29-12.23,9.32-23.11,14.71c-37.61,18.62-60.43,25.67-67.87,20.95c-1.68-1.07-4.51-4.06-6.28-6.65
	c-3.21-4.7-3.21-4.73-1.26-10.09c1.75-4.81,9.17-12.74,11.96-12.78c1.17-0.01,9.78-6.03,12.29-8.58c5.62-5.71,7.12-8.85,6.28-13.14
	c-1.2-6.1-4.38-11.64-10.92-19.01c-3.12-3.52-8.69-10.83-12.35-16.21c-9.29-13.66-12.22-15.73-40.17-28.46
	c-4.11-1.87-17.61-12.1-26.26-19.89c-9.81-8.85-23.55-16.55-29.37-16.46c-1.92,0.03-4.25-0.83-5.16-1.91
	c-2.67-3.13-13.31-7.36-18.35-7.3c-3.51,0.04-6.59,1.42-12.79,5.67c-14.6,10.04-19.54,21.6-19.3,45.29
	c0.13,12.63-0.14,14.54-2.84,19.78c-1.63,3.19-2.96,6.2-2.96,6.69c0.01,0.49-1.89,3.95-4.21,7.71c-2.32,3.74-4.46,8.82-4.75,11.28
	c-0.48,4.06-0.16,4.69,3.58,6.92c2.26,1.35,5.16,2.42,6.46,2.38c1.28-0.05,6.46,0.05,11.49,0.22c8.55,0.28,9.52,0.6,14.85,4.84
	c6.47,5.13,10.98,13.57,9.86,18.43c-0.99,4.29-6.22,13.31-7.73,13.33c-0.69,0.02-2.67,1.04-4.4,2.3
	c-6.73,4.86-30.79,11.33-52.63,14.14c-6.9,0.89-19.82,1.54-28.7,1.44c-18.98-0.2-24.7-2.14-32.07-10.86
	c-3.99-4.72-4.5-6.11-5.13-13.88l-0.69-8.63l4.92-5.22c5.86-6.23,11.99-9.17,23.56-11.3c19.29-3.55,30.45-16.32,40.36-46.19
	c4.35-13.14,4.93-16.19,4.74-24.78c-0.37-15.92-5.41-23.33-16.7-24.57c-6.12-0.67-7.86-0.28-18.46,4.16
	c-16.83,7.05-19.95,7.43-28.54,3.43c-6.05-2.81-8.35-3.22-16.33-2.93c-6.74,0.25-10.35,0.98-13.14,2.69
	c-2.12,1.29-5.7,2.75-7.96,3.24c-4.58,0.99-16.23,8.49-22.61,14.56c-6.03,5.74-10.67,12.33-16.42,23.32
	c-13.95,26.63-33.41,47.28-59.62,63.23c-6.35,3.87-12.1,7.51-12.78,8.08c-0.68,0.57-3.46,2.82-6.18,5
	c-2.72,2.17-6.56,6.07-8.54,8.66c-3.13,4.1-3.59,5.66-3.49,12.07c0.06,4.05,1.02,10.55,2.12,14.46c3.5,12.41,1.3,26.89-5.26,34.57
	c-3.6,4.21-4.28,4.5-11.6,4.86c-9.36,0.47-13.5-1.34-24.45-10.69c-6.54-5.59-25.93-27.83-31.31-35.92c-1.01-1.51-3.67-4.83-5.9-7.36
	c-2.23-2.53-6.79-8.86-10.14-14.08c-3.34-5.22-8.51-12.83-11.49-16.9c-11.53-15.81-11.85-31.24-0.77-37.82
	c6.74-4.01,22.56-1.82,29.57,4.1c2.32,1.95,12.58,7.02,29.41,14.54c15.18,6.78,21.08,7.3,34.89,3.12
	c11.07-3.35,14.79-5.26,27.05-13.89c15.44-10.87,21.89-19.52,30.19-40.49c5.94-14.99,13.62-31.57,16.18-34.92
	c1.3-1.71,4.82-5.88,7.82-9.29c3.01-3.4,6.48-8.65,7.72-11.65c3.84-9.26,2.43-13.99-11.65-39.23c-2.69-4.83-4.92-9.76-4.93-10.94
	c-0.01-1.19-0.68-3.52-1.47-5.18c-1.17-2.47-2.27-3.01-6-2.96c-4.21,0.07-13.1,3-15.91,5.24c-0.65,0.53-4.62,3.57-8.82,6.77
	c-8.13,6.2-13.94,13.21-22.31,26.92c-8.07,13.23-11.1,16.05-25.08,23.43c-14.69,7.75-21.42,15.27-29.65,33.13
	c-3.67,7.95-7.21,15.64-7.89,17.07c-2.58,5.49-15.03,5.82-24.74,0.64c-8.12-4.34-13.13-10.44-21.2-25.87
	c-9.96-19.07-10.66-22.53-11.43-55.56c-0.77-33.92-0.42-35.61,7.6-36.31c4.16-0.37,5.6,0.13,8.47,2.86
	c4.36,4.17,11.86,20.09,13.89,29.48c3.75,17.34,13.82,25.46,27.13,21.89c6.7-1.79,30.12-16.13,34.35-21.03
	c4.3-4.97,9.13-13.64,11.77-21.12c3.4-9.62,9.18-16.72,18.72-23c2.03-1.33,5.47-4.08,7.66-6.1c2.19-2.02,5.37-4.93,7.09-6.48
	c11.16-10.04,19.01-19.89,18.95-23.74c-0.03-1.46-1.15-3.82-2.52-5.24c-2.11-2.2-3.77-2.57-11.17-2.45
	c-8.71,0.13-39.85,6.38-46.73,9.38c-4.64,2.02-45.63,2.52-62.23,0.77c-14.83-1.57-30.06-3.01-44.94-4.23
	c-6.26-0.51-14.52-1.25-18.35-1.64c-8.57-0.87-18.27,1.37-26.55,6.14c-7.89,4.53-9.88,6.92-16.16,19.37
	c-10.33,20.47-13.72,24.22-25.36,28.09c-7.91,2.63-12.5,2.67-18.75,0.16c-10.94-4.41-15.32-10.56-19.49-27.46
	C104.21,497.3,103.64,478.56,105.07,467.2L105.07,467.2z M105.07,467.2"/>
</svg>
