<?xml version="1.0" encoding="utf-8"?>
<!-- Generator: Adobe Illustrator 24.1.1, SVG Export Plug-In . SVG Version: 6.00 Build 0)  -->
<svg version="1.1" id="Layer_1" xmlns="http://www.w3.org/2000/svg" xmlns:xlink="http://www.w3.org/1999/xlink" x="0px" y="0px"
	 viewBox="0 0 1125 1105" style="enable-background:new 0 0 1125 1105;" xml:space="preserve">
<style type="text/css">
	.st0{fill:#F8AA00;}
	.st1{fill:#DB8700;}
	.st2{fill:#FFC025;}
	.st3{fill:#FFDEA7;}
</style>
<path class="st0" d="M518.19,145.09c-36.43,1.02-75.32,4.08-105.65,26.56c-8.7,7.35-20.78,13.88-24.38,25.27
	c0.42,16.78,19.75,22.15,33.22,24.5c16.44,1.96,33.99,8.49,41.7,24.35c12.65,18.49,8.44,43.85-6.74,59.54
	c-24.09,25.94-59.68,35.73-91.78,47.59c-20.04,5.88-42.64,17.81-63.03,6.42c-16.8-8.71-34.37-17.79-47.53-31.78
	c-6.89-8.67-10.7-21.89-1.94-30.72c10.78-14.67,30.11-26.98,29.33-47.19c-4.2-18.6-28.79-25.3-44.48-16.82
	c-30.02,13.39-57.99,31.75-82.58,53.51c-11.14,9.69-19.13,23.67-17.18,38.85c0.34,9.05-0.7,23.51,11.24,25.34
	c16.83,1.78,32.19-7.36,48.44-8.63c16.13,7.05,28.93,20.91,37.54,36.12c10.66,20.63-0.77,43.1-7.25,63
	c-8.19,22.11-26.12,38.91-33.92,61.24c-7.66,14.18-20.94,25.98-36.24,31.04c-14.06,0.51-22.19-14.66-25.97-26.19
	c-9.56-27.19-7.75-56.44-15.12-84.06c-3.92-15.92-20.26-28.46-36.87-23.87c-19.31,3.15-36.37,19.54-36.43,39.82
	c-2.7,41.36-4.13,82.79-6.11,124.21c-1.26,36.52,2.18,73.28,11.45,108.64c3.34,13.87,17.62,27.57,32.51,21.46
	c16.05-8.3,16.29-29.21,20.89-44.45c5.35-18.18,5.12-40.42,19.97-54.12c20.68-13.82,48.05-25.32,72.61-14.23
	c24.31,11.61,39.13,35.54,55.14,56.07c11.8,14.71,16.68,33.65,15.36,52.2c2.01,17.32-8.66,36.86-27.04,39.27
	c-14.99,3.31-31.04,2.46-45.49,7.68c-12.18,9.76-8.4,29.5,0.44,40.39c20.54,23.9,49.03,39.07,75.62,55.21
	c21.6,12.6,46.26,25.16,72.05,19.62c12.78-2.45,30.6-8.38,30.49-24.15c-1.03-23.93-24.01-37.4-39.76-51.98
	c-6.49-7.33-15.48-11-23.59-15.8c-9.27-7.52-16.13-18.77-13.57-31.13c-0.13-10.45,6.32-22.83,18.29-22.15
	c40.57-0.11,81.5,5.25,122.27,7c29.27,2.88,59.49,1.28,87.77,10.34c15.48,6.63,33.67,21.13,28.31,40.14
	c-6.49,19.82-29.73,24.89-47.27,30.05c-15.19,4.49-36.49,8.36-40.62,26.59c-3.24,11.53,1.27,25.17,13,29.88
	c23.03,14.35,51.21,9.05,76.86,9.65c32.73-1.88,67.48-2.66,97.06-18.41c14.94-9.78,26-28.65,23.04-46.77
	c-4.89-12.14-20.96-12.6-31.92-14.87c-14.71-1.98-33.13-0.45-42.02-14.9c-7.67-15.49,0.86-34.73,12.68-45.71
	c28.08-17.65,61.99-22.03,93.17-32.02c26.43-6.46,51.94-18.86,78.93-20.86c22.47-0.43,48.02,16.7,47.2,40.98
	c-4.35,32.93-32.98,55.54-40.52,87.18c-0.55,9.9,12.71,11.65,19.9,13.48c24.59,4.96,49.74-3.83,70.99-15.73
	c35.77-25.11,66.18-58.06,89.2-95.14c4.24-13.03-11.41-21.73-22.49-22.07c-16.23-1.29-27.27,13.51-40.87,19.87
	c-9.99,4.78-20.04,13.37-31.6,12.44c-16.45-6.22-24.29-24.49-29.01-40.21c-3.4-10.27-0.95-21.46,7.01-28.86
	c12.23-13.75,25.76-26.86,32.33-44.53c7.62-16.14,14.05-35.83,32.25-42.97c14.19-5.37,29.65-11.2,45.14-8.28
	c22.08,6.09,28.5,31.59,32.99,51.06c2.78,10.98,3.27,28.69,17.37,31.1c16-0.16,30.14-10.34,42.07-20.09
	c14.05-17.75,15.87-41.72,22.79-62.61c2.33-23.49,0.35-47.54,0.98-71.24c-0.03-22.35,1.49-45.72-8.93-66.32
	c-4.35-11.75-14.36-26.39-28.87-22.8c-21.33,5.58-31.23,28.8-37.39,47.88c-7.01,17.88-1.7,40.04-14.93,55.26
	c-17.78,16.03-44.31,15.29-66.21,11.04c-15.05-6.84-22.87-23.12-33.38-35.06c-19.45-25.39-35.84-53.25-58.45-76.2
	c-17.18-20.45-38.88-37.34-53.04-60.09c-5.53-15.39,5.54-31.4,16.9-41.14c15.03-11.71,32.14-21.57,50.64-26.02
	c25.95-3.78,46.63,17.2,70.23,24.84c13.89,4.4,30.05,11.85,44.44,5.59c9.38-6.66,3.03-19.8-0.14-28.22
	c-13.42-29.32-39.63-50.65-68.69-63.47c-37.05-17.48-75.65-32.34-115.55-41.77c-13.97-2.6-34.16-3.29-40.96,12.12
	c-5.83,13.77,8.04,24,16.45,32.51c9.89,11.23,28.08,19.78,26.41,37.28c-2.62,25.26-26.79,42.88-49.19,50.22
	c-31.91,6.66-64.93,5.24-97.34,8.27c-38.22,1.75-76.31,7.17-114.53,7.44c-11.75-2.47-14.26-16.56-19.28-25.71
	c-3.67-16.3-2.02-34.9,6.86-49.42c9.38-10.92,25.87-9.71,38.76-12.86c18.43-3.75,39.85-4.29,54.42-17.61
	c9.87-10.78,3.69-28.57-8.95-34.22C566.84,150.53,542.3,144.15,518.19,145.09L518.19,145.09z M519.68,166.19
	c5.81-0.1,9.31,6.1,15.2,6.27c3.14,1.91,10.53,6.57,4.48,9.95c-20.87,17.04-48.22,24.47-75,23.01c-7.49-0.22-21.69-0.27-21.64-10.62
	c0.51-14.86,18.24-18.9,29.84-21.62C488.07,169.88,503.79,167.11,519.68,166.19L519.68,166.19z M798.78,184.29
	c30.89,9.87,60.47,24.34,90.67,36.42c4.75,2.68,11.6,5.66,14.05,10.62c-14.65,12.83-36.39,7.71-53,1.76
	c-15.53-6.54-33.04-10.62-46.15-21.68c-4.61-6.02-13.41-12.96-11.43-21.36C794.12,187.75,796.01,184.74,798.78,184.29L798.78,184.29
	z M225.49,263.78c9.91,2.88,5.92,16.9,1.03,22.87c-12.95,14.84-27.31,30.11-45.57,38.01c-9.42,1.2-15.44-10.56-10.91-18.44
	c6.83-14.78,22.49-22.8,34.93-32.25C211.45,270.17,217.91,264.87,225.49,263.78L225.49,263.78z M607.86,331.07
	c23.23,1.01,41.9,16.59,62.65,25.12c26.64,8.12,57.32,1.27,81.28,17.75c18.77,12.72,40.87,28.11,43.14,52.78
	c1.34,18.83,4.78,38.06,16.25,53.61c6.55,11.98,16.6,23.01,19.36,36.59c0.25,14.89-3.03,30.51-14.4,41
	c-17.84,21.72-38.62,41.25-63.73,54.3c-23.18,12.72-47.99,25.73-75.18,25.18c-25.27,2.28-51.43-0.32-76.18,6.16
	c-13.93,6.09-28.62,10.81-42.57,17.12c-27.1,12.2-57.01,2.42-85.52,4.05c-17.47-0.37-35.2,1.59-51.84,5.75
	c-22.02,3.24-44.46-3.29-62.25-16.44c-29.78-20.71-58.67-43.59-82.3-71.29c-10.03-14.43-23.6-28.21-24.69-46.71
	c-1.12-14.72,5.22-28.89,5.04-43.78c0.38-21.83,19.14-36.67,37.16-45.33c22.51-11.03,49.82-14.27,67.79-33.58
	c19.19-19.08,36.34-45.25,64.81-50.5c40.19-5.67,82.07-0.2,120.9-14.45c19.98-4.79,38.55-15.48,59.16-17.3L607.86,331.07
	L607.86,331.07z M1035.81,433.4c19.48,9.19,21.32,34.05,20.83,53.01c-0.98,23.82-3.92,47.76-4.93,71.58
	c-4.86,6.59-11.36,13.6-19.36,16.12c-10-3.78-13.09-16.49-16.24-25.6c-7.62-30.9-7.67-64.7,3.07-94.68
	C1023.29,446.24,1028.47,438.14,1035.81,433.4L1035.81,433.4z M89.57,458.7c5.94,6.68,4.69,17.44,6.74,25.81
	c3.74,35.49,4.61,71.66,0.75,107.21c-0.84,9.99-5.23,21.16-14.95,25.15c-11.8-5.51-17.19-18.94-15.85-31.25
	c-0.54-35.55-3.69-72.24,3.43-106.84C71.52,468.86,80.53,461.68,89.57,458.7L89.57,458.7z M920.31,709.89
	c6.46-0.22,12.55,2.72,17.19,7.07c-18.6,22.18-43.1,38.51-66.5,55.19c-8.06,4.71-17.58,14.08-26.92,6.79
	c-5.88-1.74-10.21-8.33-4.85-13.3c12.69-15.34,26.67-29.99,42.78-41.92C893.82,717.06,906.37,710.34,920.31,709.89L920.31,709.89z
	 M233.82,760.53c19.87,0.24,40.21,3.36,58.29,12.07c12.37,7.72,23.67,17.48,36.58,24.57c6.51,4.5,10.72,11.44,14.01,18.49
	c-6.9,6.2-14.95,12.82-24.91,10.47c-25.69-5.3-47.67-20.82-70.59-32.86c-8.61-5.12-20.1-9.55-21.31-21.03
	c-2.2-4.44-2.46-10.81,3.96-11.45C231.16,760.56,232.49,760.54,233.82,760.53L233.82,760.53z M587.58,794.21
	c14.52,0.64,34.55-1.13,42.92,13.72c3.72,8.2-7.7,13-13.11,16.77c-25.02,12.66-53.65,15.91-81.29,16.73
	c-11.29-1.32-25.43-3.54-31.99-13.91c-3.72-9.72,9.57-12.66,15.56-16.43C540.73,800.6,563.95,794.18,587.58,794.21L587.58,794.21z
	 M587.58,794.21"/>
<path class="st1" d="M221.41,272.4c-18.85,3.13-38.69,12.84-47.8,30.36c-1.22,5.74-4.73,18.01,4.15,18.99
	c16.98-2.9,30.82-15.59,41.95-28.08c3.78-5.37,12.76-14.57,6.06-20.66C224.41,272.34,222.87,272.33,221.41,272.4L221.41,272.4z
	 M221.41,272.4"/>
<path class="st1" d="M511.16,171.09c-20.85,1.26-43.48,1.59-61.83,12.73c-6.84,3.21-9.29,15.22-0.48,17.37
	c27.66,3.92,57.26-0.03,82.13-13.07c7-3.99,5.39-16.44-3.67-16.03C521.99,171.14,516.55,171.05,511.16,171.09L511.16,171.09z
	 M511.16,171.09"/>
<path class="st1" d="M804.19,189.19c-9.5,1.73-6.93,13.93-1.16,18.42c14.54,12.16,33.54,17.64,51.06,24.18
	c11.05,2.64,23.76,6.93,34.75,2.81c5.01-8.39-5.61-14.85-12.33-17.17c-23.76-9.8-47.33-20.66-71.85-28.29L804.19,189.19z
	 M804.19,189.19"/>
<path class="st1" d="M1035.36,439.02c-10.57,0.51-12.32,14.18-15.48,21.93c-8.56,32.33-6.76,67.1,2,99.16
	c1.3,10.82,19.63,13.01,21.18,1.35c6.2-28.76,9.69-58.33,9.95-87.76c-0.77-11.81-2.48-25.99-11.98-33.99
	C1039.25,438.95,1037.26,439.01,1035.36,439.02L1035.36,439.02z M1035.36,439.02"/>
<path class="st1" d="M923.82,710.76c-26.76,0.48-48.83,17.88-66.25,36.56c-5.26,6.84-16.42,13.9-13.81,23.79
	c5.67,6.61,16.11,1.33,22.88-0.97c20.88-10.58,40.03-24.81,57.31-40.53c4.22-4.34,9.17-13.93,3.35-18.56
	C926.19,710.66,924.99,710.69,923.82,710.76L923.82,710.76z M923.82,710.76"/>
<path class="st1" d="M588.77,797.95c-26.64,0.51-54.95,5.33-76.73,21.59c-5.31,6.44,0.66,17.6,9.33,15.25
	c28.07-0.82,57,1.17,84.19-7.03c8.5-3.3,22.37-8.01,21.32-19.3c-4.11-10.72-18.56-9.09-27.86-10.37
	C595.61,797.93,592.19,797.9,588.77,797.95L588.77,797.95z M588.77,797.95"/>
<path class="st1" d="M234.18,762.75c-8.97,0.35-5.44,12.97-0.55,16.57c24.02,18.16,50.09,35.8,79.84,42.68
	c8.19,2.14,23.83,2.44,23.33-9.58c-4.21-14.57-19.11-22.82-30.71-31.11C284.88,766.57,259.28,763.7,234.18,762.75L234.18,762.75z
	 M234.18,762.75"/>
<path class="st2" d="M601.56,336.73c-19.76-0.26-36.66,12.01-55.42,16.56c-29.78,11.6-62.1,10.24-93.45,12.93
	c-18.51,0.8-39.04,0.72-53.7,13.94c-23.03,20.1-40.42,48.82-71.18,58.09c-19.22,7.87-41.92,11.46-55.47,28.77
	c-6.94,6.55-12.52,14.8-11.74,24.76c-1.4,18.99-2.36,38.14-2.43,57.09c21.28,40.17,56.67,70.59,92.86,97
	c15.38,10.57,32.53,21.46,52.1,19.23c16.16,0.28,32.52-0.54,47.87-5.98c27.2-1.26,54.48,2.79,81.78,1.99
	c11.33,1.5,21.83-1.36,31.77-6.72c23.58-10.91,48.35-19.52,74.48-19.57c20.18-1.5,40.84-0.77,60.87-3.13
	c29.12-12.13,59.24-24.52,83.27-45.44c13.03-13.24,27.95-25.41,37.95-41.16c3.76-15.66,6.5-34.42-4.04-48.18
	c-12.01-16.2-23.26-33.85-25.03-54.4c-1.9-16.8-3.58-35.81-17.76-47.29c-15.82-15.39-36.05-27.45-58.67-27.97
	c-19.11-3.41-40.42-1.04-57.59-11.42C642.54,342.35,622.22,334.48,601.56,336.73L601.56,336.73z M619.99,395.22
	c15.16-1.52,29.62,15.35,21.07,29.72c-7.53,13.63-26.69,16.92-40.26,12.34c-10.79-3.17-20.02-16.35-12.47-26.77
	C595.27,400.69,608.31,395.77,619.99,395.22L619.99,395.22z M507.8,395.67c13.78,0.96,25,16.61,17.44,29.41
	c-7.92,16.07-29.06,24.1-45.62,18.22c-8.28-4.43-20.62-17.4-10.2-25.65C482.36,410.64,492.52,397.75,507.8,395.67L507.8,395.67z
	 M393.16,434.16c13.88,0.15,21.88,15.96,19.57,28.4c1.27,10.98-6.96,22.89-18.9,21.21c-10.22-3.68-18.66-13.08-22.49-23.14
	c-0.62-11.27,9.01-21.02,18.05-26.15C390.62,434.19,391.9,434.17,393.16,434.16L393.16,434.16z M521.72,473.22
	c13.06-0.19,28.71,4.44,35.04,16.83c1.05,15.14-10.81,28.12-22.4,36.47c-13.67,8.48-31.23,9.8-46.5,5.32
	c-11.96-5.67-22.67-19.56-16.95-33.2c5.69-18.12,26.86-25.97,44.15-25.27C517.27,473.32,519.5,473.23,521.72,473.22L521.72,473.22z
	 M753.86,473.53c11.51,2.8,21.32,13.6,23.84,25.18c0.55,13.2-8.2,26.56-21.48,29.59c-13.27,5.83-34.32,0.94-37.03-15.18
	c-0.62-16.22,12.75-29.45,25.52-37.5C747.51,474.18,750.67,473.24,753.86,473.53L753.86,473.53z M650.63,475.13
	c11.29-1.01,22.57,6.71,23.03,18.62c3.97,11.86-4.07,23.14-13.85,28.72c-17.52,10.65-43.63,13.43-59.7-1.22
	c-9.27-8.83-4-23.61,5.49-30.03C618.09,480.91,634.49,475.42,650.63,475.13L650.63,475.13z M327.82,495.34
	c13.98-0.87,31.22,11.64,26.44,26.89c-9.42,18.32-39.5,20.19-49.92,1.73C295.72,507.84,312.64,494.3,327.82,495.34L327.82,495.34z
	 M680.23,555.65c9.67-0.63,23.92,3.51,21.98,15.85c-0.31,9.4-8.79,17.02-18.39,14.94c-12.24-0.91-17.37-17.64-14.38-27.82
	C671.69,555.25,676.79,555.92,680.23,555.65L680.23,555.65z M580.61,568.82c8.48-0.66,22.59,1.85,22.64,12.57
	c-6.42,13.26-18.43,25.02-34.08,24.3c-12.22,1.25-27.02,0.58-34.12-11.24c-2.67-7.24,6.6-12.32,11.21-16.37
	C556.35,571.44,568.67,568.89,580.61,568.82L580.61,568.82z M415.13,574c8.7-0.11,17.28,9.15,11.67,17.52
	c-3.61,10.81-17.53,19.89-27.71,11.51c-4.96-3.36-10.07-10.74-4.13-15.9c4.48-4.72,6.38-11.84,14.1-12.23
	C411.04,574.37,413.08,573.92,415.13,574L415.13,574z M415.13,574"/>
<path class="st3" d="M324.2,500.93c-7.52-1.18-14.58,4.33-14.03,12.21c-3.97,11.85,8.68,24.04,20.4,20.57
	c8.4-0.61,20.8-3.34,19.99-14.25c1.8-9.69-5.94-18.47-15.75-18.15C331.3,500.92,327.74,500.87,324.2,500.93L324.2,500.93z
	 M324.2,500.93"/>
<path class="st3" d="M390.52,439.81c-8.79-0.95-14.61,7.43-13.63,15.58c-1.35,9.96,2.77,23.15,14.7,23.49
	c7.34,1.64,17.99-1.48,16.96-10.79c-1.12-8.79,2.36-22.39-7.34-27.29C397.81,439.61,394.09,439.78,390.52,439.81L390.52,439.81z
	 M390.52,439.81"/>
<path class="st3" d="M511.84,477.01c-17.12-0.11-37.8,9.92-38.29,29.22c-1.21,11.08,6.07,21.37,16.97,23.79
	c18.37,2.29,40.48,1.43,53.73-13.49c7.9-8.2,11.44-26.81-1.26-32.22c-6.29-2.55-13.9-0.43-18.98-5.63
	C520.19,477.09,515.93,476.91,511.84,477.01L511.84,477.01z M511.84,477.01"/>
<path class="st3" d="M409.89,579.51c-9.18,0.88-10.65,13.52-9.16,20.68c4.68,4.99,13.99,2.33,18.98-1.21
	c6.24-5.92,4.2-18.24-5.28-19.11C412.94,579.53,411.41,579.39,409.89,579.51L409.89,579.51z M409.89,579.51"/>
<path class="st3" d="M505.16,400.61c-14.82,2.1-32.24,9.3-37.7,24.44c-3.35,9.55,5.74,19.96,15.75,17.46
	c12.22-1.54,29.58,2.11,36.9-10.63c5.73-10.33,4.03-29.44-10.32-31.08C508.26,400.58,506.7,400.54,505.16,400.61L505.16,400.61z
	 M505.16,400.61"/>
<path class="st3" d="M619.18,398.97c-11.93,1.06-23.24,10.11-27.92,20.9c-2.42,9.17,6.78,15.78,15.23,14.6
	c11.39,0.81,26.76,2.5,32.46-10.19C644.3,412.05,631.81,397.92,619.18,398.97L619.18,398.97z M619.18,398.97"/>
<path class="st3" d="M644.74,477.25c-14.8,0.55-28.21,9.34-39.57,18.11c-5.83,7.6-10.66,22.54,0.71,27.76
	c14.82,6.5,32.08,4,47.54,1.29c13.26-4.44,23.39-21.25,17.93-34.68c-4.15-6.61-9.21-15.28-18.43-12.53
	C650.19,477.21,647.47,477.21,644.74,477.25L644.74,477.25z M644.74,477.25"/>
<path class="st3" d="M573.54,569.88c-7.05,0.64-11.81,6.97-18.96,7.75c-6.81,2.46-16.46,6.21-14.12,15.33
	c1.02,10.43,15.1,9.03,22.61,9.58c11.14-0.55,27.78,3.05,32.85-10.31C599.97,579.32,584.19,570.67,573.54,569.88L573.54,569.88z
	 M573.54,569.88"/>
<path class="st3" d="M686.12,560.52c-8.67-0.98-15.36,8.18-11.21,16.06c4.56,13.16,27.98,5.07,23.7-8.42
	C697.46,562.5,691.35,560.13,686.12,560.52L686.12,560.52z M686.12,560.52"/>
</svg>
