<?xml version="1.0" encoding="utf-8"?>
<!-- Generator: Adobe Illustrator 24.1.1, SVG Export Plug-In . SVG Version: 6.00 Build 0)  -->
<svg version="1.1" id="Capa_1" xmlns="http://www.w3.org/2000/svg" xmlns:xlink="http://www.w3.org/1999/xlink" x="0px" y="0px"
	 viewBox="0 0 320.83 320.83" style="enable-background:new 0 0 320.83 320.83;" xml:space="preserve">
<style type="text/css">
	.st0{fill:#FFFFFF;}
</style>
<g>
	<g>
		<path class="st0" d="M21.62,290.25h277.6c9.47,0,17.01-4.55,20.17-12.18c2.9-7.01,1.36-14.8-4.11-21.21L180.5,39.68l-1.33-1.33
			c-5.01-5.01-11.67-7.77-18.75-7.77c-7.08,0-13.74,2.76-18.74,7.77l-1.33,1.33L5.55,256.84c-5.47,6.41-7.02,14.21-4.11,21.21
			C4.6,285.69,12.14,290.25,21.62,290.25z M160.42,69.21l116.93,188.39H43.49L160.42,69.21z"/>
		<path class="st0" d="M160.42,105.35c-9.2,0-16.65,7.46-16.65,16.65v71.39c0,9.2,7.46,16.65,16.65,16.65s16.65-7.46,16.65-16.65
			V122C177.08,112.8,169.62,105.35,160.42,105.35z"/>
		<circle class="st0" cx="160.25" cy="234.9" r="16.49"/>
	</g>
</g>
</svg>
