<?xml version="1.0" encoding="utf-8"?>
<!-- Generator: Adobe Illustrator 24.1.1, SVG Export Plug-In . SVG Version: 6.00 Build 0)  -->
<svg version="1.1" id="Capa_1" xmlns="http://www.w3.org/2000/svg" xmlns:xlink="http://www.w3.org/1999/xlink" x="0px" y="0px"
	 viewBox="0 0 326.79 326.79" style="enable-background:new 0 0 326.79 326.79;" xml:space="preserve">
<style type="text/css">
	.st0{fill:#FFFFFF;}
</style>
<g>
	<g>
		<path class="st0" d="M16.46,294.33h293.86c10.59,0,14.33-6.26,15.44-8.95c1.07-2.57,2.74-9.12-3.61-16.22L180.27,40.56l-0.66-1.07
			l-0.89-0.89c-8.2-8.19-22.47-8.19-30.65,0l-0.89,0.89L4.64,269.16c-6.35,7.1-4.68,13.65-3.62,16.22
			C2.14,288.07,5.87,294.33,16.46,294.33z M163.39,54.63l135.28,217.94l-270.54-0.01L163.39,54.63z"/>
		<path class="st0" d="M186.11,218.32h46.25c5.72,0,10.36-4.64,10.36-10.36c0-5.72-4.64-10.36-10.36-10.36h-46.25
			c-0.45,0-0.89,0.08-1.33,0.14v-2.68c0.44,0.05,0.87,0.14,1.33,0.14h26.98c5.72,0,10.36-4.64,10.36-10.36
			c0-5.72-4.64-10.36-10.36-10.36h-23.82c-0.18,3.4-1.89,6.38-4.48,8.26c-1.8,1.3-4,2.1-6.4,2.1c-0.9,0-1.76-0.14-2.6-0.34
			c-1.35-0.33-2.6-0.9-3.7-1.68c-1.81,3.56-5.46,6.03-9.72,6.03c-6.04,0-10.94-4.9-10.94-10.94c0-1.2,0.24-2.34,0.6-3.43h-25.51
			l16.93-16.93c4.05-4.05,4.05-10.61,0-14.65s-10.61-4.05-14.65,0L97.23,174.5l0,0l0,0v90.57h59.26h28.31h17.94
			c5.72,0,10.36-4.64,10.36-10.36c0-5.72-4.64-10.36-10.36-10.36H184.8v-2.89h41.07c5.72,0,10.36-4.64,10.36-10.36
			c0-5.72-4.64-10.36-10.36-10.36H184.8v-2.54C185.23,218.25,185.66,218.32,186.11,218.32z"/>
		<path class="st0" d="M166.45,165.49c4.26,0,7.72-3.45,7.72-7.72c0.35-4.74-7.72-18.29-7.72-18.29
			c-5.36,6.63-7.01,13.46-7.51,16.56c-0.06,0.26-0.08,0.53-0.11,0.79c-0.08,0.6-0.09,0.94-0.09,0.94
			C158.73,162.04,162.18,165.49,166.45,165.49z"/>
		<path class="st0" d="M200.6,151.26c4.26,0,7.72-3.46,7.72-7.72c0.35-4.74-7.72-18.29-7.72-18.29c-5.36,6.63-7.01,13.46-7.51,16.56
			c-0.06,0.26-0.08,0.53-0.11,0.79c-0.08,0.6-0.09,0.94-0.09,0.94C192.88,147.81,196.34,151.26,200.6,151.26z"/>
		<path class="st0" d="M177.83,129.84c4.26,0,7.72-3.46,7.72-7.72c0.35-4.74-7.72-18.29-7.72-18.29
			c-5.36,6.63-7.01,13.46-7.51,16.56c-0.06,0.26-0.08,0.53-0.11,0.79c-0.08,0.6-0.09,0.94-0.09,0.94
			C170.11,126.38,173.57,129.84,177.83,129.84z"/>
	</g>
</g>
</svg>
